<?xml version="1.0" encoding="utf-8"?>
<svg xmlns="http://www.w3.org/2000/svg" xmlns:xlink="http://www.w3.org/1999/xlink" width="672" height="480" viewBox="0 0 2688 1920">
<defs>
  <clipPath id="clip550">
    <rect x="0" y="0" width="2688" height="1920"/>
  </clipPath>
</defs>
<path clip-path="url(#clip550)" d="
M0 1920 L2688 1920 L2688 0 L0 0  Z
  " fill="#ffffff" fill-rule="evenodd" fill-opacity="1"/>
<defs>
  <clipPath id="clip551">
    <rect x="537" y="0" width="1883" height="1883"/>
  </clipPath>
</defs>
<defs>
  <clipPath id="clip552">
    <rect x="196" y="47" width="2445" height="1755"/>
  </clipPath>
</defs>
<path clip-path="url(#clip550)" d="
M150.589 1800.78 L2640.76 1800.78 L2640.76 47.2441 L150.589 47.2441  Z
  " fill="#ffffff" fill-rule="evenodd" fill-opacity="1"/>
<defs>
  <clipPath id="clip553">
    <rect x="150" y="47" width="2491" height="1755"/>
  </clipPath>
</defs>
<polyline clip-path="url(#clip553)" style="stroke:#000000; stroke-linecap:round; stroke-linejoin:round; stroke-width:2; stroke-opacity:0.1; fill:none" points="
  150.589,1800.78 150.589,47.2441 
  "/>
<polyline clip-path="url(#clip553)" style="stroke:#000000; stroke-linecap:round; stroke-linejoin:round; stroke-width:2; stroke-opacity:0.1; fill:none" points="
  316.6,1800.78 316.6,47.2441 
  "/>
<polyline clip-path="url(#clip553)" style="stroke:#000000; stroke-linecap:round; stroke-linejoin:round; stroke-width:2; stroke-opacity:0.1; fill:none" points="
  482.612,1800.78 482.612,47.2441 
  "/>
<polyline clip-path="url(#clip553)" style="stroke:#000000; stroke-linecap:round; stroke-linejoin:round; stroke-width:2; stroke-opacity:0.1; fill:none" points="
  648.623,1800.78 648.623,47.2441 
  "/>
<polyline clip-path="url(#clip553)" style="stroke:#000000; stroke-linecap:round; stroke-linejoin:round; stroke-width:2; stroke-opacity:0.1; fill:none" points="
  814.634,1800.78 814.634,47.2441 
  "/>
<polyline clip-path="url(#clip553)" style="stroke:#000000; stroke-linecap:round; stroke-linejoin:round; stroke-width:2; stroke-opacity:0.1; fill:none" points="
  980.645,1800.78 980.645,47.2441 
  "/>
<polyline clip-path="url(#clip553)" style="stroke:#000000; stroke-linecap:round; stroke-linejoin:round; stroke-width:2; stroke-opacity:0.1; fill:none" points="
  1146.66,1800.78 1146.66,47.2441 
  "/>
<polyline clip-path="url(#clip553)" style="stroke:#000000; stroke-linecap:round; stroke-linejoin:round; stroke-width:2; stroke-opacity:0.1; fill:none" points="
  1312.67,1800.78 1312.67,47.2441 
  "/>
<polyline clip-path="url(#clip553)" style="stroke:#000000; stroke-linecap:round; stroke-linejoin:round; stroke-width:2; stroke-opacity:0.1; fill:none" points="
  1478.68,1800.78 1478.68,47.2441 
  "/>
<polyline clip-path="url(#clip553)" style="stroke:#000000; stroke-linecap:round; stroke-linejoin:round; stroke-width:2; stroke-opacity:0.1; fill:none" points="
  1644.69,1800.78 1644.69,47.2441 
  "/>
<polyline clip-path="url(#clip553)" style="stroke:#000000; stroke-linecap:round; stroke-linejoin:round; stroke-width:2; stroke-opacity:0.1; fill:none" points="
  1810.7,1800.78 1810.7,47.2441 
  "/>
<polyline clip-path="url(#clip553)" style="stroke:#000000; stroke-linecap:round; stroke-linejoin:round; stroke-width:2; stroke-opacity:0.1; fill:none" points="
  1976.71,1800.78 1976.71,47.2441 
  "/>
<polyline clip-path="url(#clip553)" style="stroke:#000000; stroke-linecap:round; stroke-linejoin:round; stroke-width:2; stroke-opacity:0.1; fill:none" points="
  2142.72,1800.78 2142.72,47.2441 
  "/>
<polyline clip-path="url(#clip553)" style="stroke:#000000; stroke-linecap:round; stroke-linejoin:round; stroke-width:2; stroke-opacity:0.1; fill:none" points="
  2308.73,1800.78 2308.73,47.2441 
  "/>
<polyline clip-path="url(#clip553)" style="stroke:#000000; stroke-linecap:round; stroke-linejoin:round; stroke-width:2; stroke-opacity:0.1; fill:none" points="
  2474.74,1800.78 2474.74,47.2441 
  "/>
<polyline clip-path="url(#clip553)" style="stroke:#000000; stroke-linecap:round; stroke-linejoin:round; stroke-width:2; stroke-opacity:0.1; fill:none" points="
  2640.76,1800.78 2640.76,47.2441 
  "/>
<polyline clip-path="url(#clip550)" style="stroke:#000000; stroke-linecap:round; stroke-linejoin:round; stroke-width:4; stroke-opacity:1; fill:none" points="
  150.589,1800.78 2640.76,1800.78 
  "/>
<polyline clip-path="url(#clip550)" style="stroke:#000000; stroke-linecap:round; stroke-linejoin:round; stroke-width:4; stroke-opacity:1; fill:none" points="
  150.589,1800.78 150.589,1781.88 
  "/>
<polyline clip-path="url(#clip550)" style="stroke:#000000; stroke-linecap:round; stroke-linejoin:round; stroke-width:4; stroke-opacity:1; fill:none" points="
  316.6,1800.78 316.6,1781.88 
  "/>
<polyline clip-path="url(#clip550)" style="stroke:#000000; stroke-linecap:round; stroke-linejoin:round; stroke-width:4; stroke-opacity:1; fill:none" points="
  482.612,1800.78 482.612,1781.88 
  "/>
<polyline clip-path="url(#clip550)" style="stroke:#000000; stroke-linecap:round; stroke-linejoin:round; stroke-width:4; stroke-opacity:1; fill:none" points="
  648.623,1800.78 648.623,1781.88 
  "/>
<polyline clip-path="url(#clip550)" style="stroke:#000000; stroke-linecap:round; stroke-linejoin:round; stroke-width:4; stroke-opacity:1; fill:none" points="
  814.634,1800.78 814.634,1781.88 
  "/>
<polyline clip-path="url(#clip550)" style="stroke:#000000; stroke-linecap:round; stroke-linejoin:round; stroke-width:4; stroke-opacity:1; fill:none" points="
  980.645,1800.78 980.645,1781.88 
  "/>
<polyline clip-path="url(#clip550)" style="stroke:#000000; stroke-linecap:round; stroke-linejoin:round; stroke-width:4; stroke-opacity:1; fill:none" points="
  1146.66,1800.78 1146.66,1781.88 
  "/>
<polyline clip-path="url(#clip550)" style="stroke:#000000; stroke-linecap:round; stroke-linejoin:round; stroke-width:4; stroke-opacity:1; fill:none" points="
  1312.67,1800.78 1312.67,1781.88 
  "/>
<polyline clip-path="url(#clip550)" style="stroke:#000000; stroke-linecap:round; stroke-linejoin:round; stroke-width:4; stroke-opacity:1; fill:none" points="
  1478.68,1800.78 1478.68,1781.88 
  "/>
<polyline clip-path="url(#clip550)" style="stroke:#000000; stroke-linecap:round; stroke-linejoin:round; stroke-width:4; stroke-opacity:1; fill:none" points="
  1644.69,1800.78 1644.69,1781.88 
  "/>
<polyline clip-path="url(#clip550)" style="stroke:#000000; stroke-linecap:round; stroke-linejoin:round; stroke-width:4; stroke-opacity:1; fill:none" points="
  1810.7,1800.78 1810.7,1781.88 
  "/>
<polyline clip-path="url(#clip550)" style="stroke:#000000; stroke-linecap:round; stroke-linejoin:round; stroke-width:4; stroke-opacity:1; fill:none" points="
  1976.71,1800.78 1976.71,1781.88 
  "/>
<polyline clip-path="url(#clip550)" style="stroke:#000000; stroke-linecap:round; stroke-linejoin:round; stroke-width:4; stroke-opacity:1; fill:none" points="
  2142.72,1800.78 2142.72,1781.88 
  "/>
<polyline clip-path="url(#clip550)" style="stroke:#000000; stroke-linecap:round; stroke-linejoin:round; stroke-width:4; stroke-opacity:1; fill:none" points="
  2308.73,1800.78 2308.73,1781.88 
  "/>
<polyline clip-path="url(#clip550)" style="stroke:#000000; stroke-linecap:round; stroke-linejoin:round; stroke-width:4; stroke-opacity:1; fill:none" points="
  2474.74,1800.78 2474.74,1781.88 
  "/>
<polyline clip-path="url(#clip550)" style="stroke:#000000; stroke-linecap:round; stroke-linejoin:round; stroke-width:4; stroke-opacity:1; fill:none" points="
  2640.76,1800.78 2640.76,1781.88 
  "/>
<path clip-path="url(#clip550)" d="M120.231 1848.65 L149.907 1848.65 L149.907 1852.59 L120.231 1852.59 L120.231 1848.65 Z" fill="#000000" fill-rule="evenodd" fill-opacity="1" /><path clip-path="url(#clip550)" d="M160.045 1830.92 L178.402 1830.92 L178.402 1834.86 L164.328 1834.86 L164.328 1843.33 Q165.346 1842.98 166.365 1842.82 Q167.383 1842.64 168.402 1842.64 Q174.189 1842.64 177.568 1845.81 Q180.948 1848.98 180.948 1854.4 Q180.948 1859.97 177.476 1863.08 Q174.004 1866.15 167.684 1866.15 Q165.508 1866.15 163.24 1865.78 Q160.994 1865.41 158.587 1864.67 L158.587 1859.97 Q160.67 1861.11 162.893 1861.66 Q165.115 1862.22 167.592 1862.22 Q171.596 1862.22 173.934 1860.11 Q176.272 1858.01 176.272 1854.4 Q176.272 1850.78 173.934 1848.68 Q171.596 1846.57 167.592 1846.57 Q165.717 1846.57 163.842 1846.99 Q161.99 1847.4 160.045 1848.28 L160.045 1830.92 Z" fill="#000000" fill-rule="evenodd" fill-opacity="1" /><path clip-path="url(#clip550)" d="M285.501 1848.65 L315.177 1848.65 L315.177 1852.59 L285.501 1852.59 L285.501 1848.65 Z" fill="#000000" fill-rule="evenodd" fill-opacity="1" /><path clip-path="url(#clip550)" d="M338.117 1835 L326.311 1853.45 L338.117 1853.45 L338.117 1835 M336.89 1830.92 L342.769 1830.92 L342.769 1853.45 L347.7 1853.45 L347.7 1857.34 L342.769 1857.34 L342.769 1865.48 L338.117 1865.48 L338.117 1857.34 L322.515 1857.34 L322.515 1852.82 L336.89 1830.92 Z" fill="#000000" fill-rule="evenodd" fill-opacity="1" /><path clip-path="url(#clip550)" d="M452.079 1848.65 L481.755 1848.65 L481.755 1852.59 L452.079 1852.59 L452.079 1848.65 Z" fill="#000000" fill-rule="evenodd" fill-opacity="1" /><path clip-path="url(#clip550)" d="M506.014 1846.85 Q509.371 1847.57 511.246 1849.84 Q513.144 1852.1 513.144 1855.44 Q513.144 1860.55 509.625 1863.35 Q506.107 1866.15 499.625 1866.15 Q497.449 1866.15 495.135 1865.71 Q492.843 1865.3 490.389 1864.44 L490.389 1859.93 Q492.334 1861.06 494.649 1861.64 Q496.963 1862.22 499.487 1862.22 Q503.885 1862.22 506.176 1860.48 Q508.491 1858.75 508.491 1855.44 Q508.491 1852.38 506.338 1850.67 Q504.209 1848.93 500.389 1848.93 L496.362 1848.93 L496.362 1845.09 L500.574 1845.09 Q504.024 1845.09 505.852 1843.72 Q507.681 1842.34 507.681 1839.74 Q507.681 1837.08 505.783 1835.67 Q503.908 1834.23 500.389 1834.23 Q498.468 1834.23 496.269 1834.65 Q494.07 1835.07 491.431 1835.95 L491.431 1831.78 Q494.093 1831.04 496.408 1830.67 Q498.746 1830.3 500.806 1830.3 Q506.13 1830.3 509.232 1832.73 Q512.334 1835.14 512.334 1839.26 Q512.334 1842.13 510.69 1844.12 Q509.047 1846.09 506.014 1846.85 Z" fill="#000000" fill-rule="evenodd" fill-opacity="1" /><path clip-path="url(#clip550)" d="M618.565 1848.65 L648.241 1848.65 L648.241 1852.59 L618.565 1852.59 L618.565 1848.65 Z" fill="#000000" fill-rule="evenodd" fill-opacity="1" /><path clip-path="url(#clip550)" d="M662.361 1861.55 L678.68 1861.55 L678.68 1865.48 L656.736 1865.48 L656.736 1861.55 Q659.398 1858.79 663.981 1854.16 Q668.588 1849.51 669.768 1848.17 Q672.014 1845.65 672.893 1843.91 Q673.796 1842.15 673.796 1840.46 Q673.796 1837.71 671.852 1835.97 Q669.93 1834.23 666.829 1834.23 Q664.63 1834.23 662.176 1835 Q659.745 1835.76 656.968 1837.31 L656.968 1832.59 Q659.792 1831.46 662.245 1830.88 Q664.699 1830.3 666.736 1830.3 Q672.106 1830.3 675.301 1832.98 Q678.495 1835.67 678.495 1840.16 Q678.495 1842.29 677.685 1844.21 Q676.898 1846.11 674.792 1848.7 Q674.213 1849.37 671.111 1852.59 Q668.009 1855.78 662.361 1861.55 Z" fill="#000000" fill-rule="evenodd" fill-opacity="1" /><path clip-path="url(#clip550)" d="M784.391 1848.65 L814.067 1848.65 L814.067 1852.59 L784.391 1852.59 L784.391 1848.65 Z" fill="#000000" fill-rule="evenodd" fill-opacity="1" /><path clip-path="url(#clip550)" d="M824.969 1861.55 L832.608 1861.55 L832.608 1835.18 L824.298 1836.85 L824.298 1832.59 L832.562 1830.92 L837.238 1830.92 L837.238 1861.55 L844.877 1861.55 L844.877 1865.48 L824.969 1865.48 L824.969 1861.55 Z" fill="#000000" fill-rule="evenodd" fill-opacity="1" /><path clip-path="url(#clip550)" d="M980.645 1834 Q977.034 1834 975.205 1837.57 Q973.4 1841.11 973.4 1848.24 Q973.4 1855.34 975.205 1858.91 Q977.034 1862.45 980.645 1862.45 Q984.279 1862.45 986.085 1858.91 Q987.913 1855.34 987.913 1848.24 Q987.913 1841.11 986.085 1837.57 Q984.279 1834 980.645 1834 M980.645 1830.3 Q986.455 1830.3 989.511 1834.9 Q992.589 1839.49 992.589 1848.24 Q992.589 1856.96 989.511 1861.57 Q986.455 1866.15 980.645 1866.15 Q974.835 1866.15 971.756 1861.57 Q968.701 1856.96 968.701 1848.24 Q968.701 1839.49 971.756 1834.9 Q974.835 1830.3 980.645 1830.3 Z" fill="#000000" fill-rule="evenodd" fill-opacity="1" /><path clip-path="url(#clip550)" d="M1137.04 1861.55 L1144.68 1861.55 L1144.68 1835.18 L1136.37 1836.85 L1136.37 1832.59 L1144.63 1830.92 L1149.31 1830.92 L1149.31 1861.55 L1156.95 1861.55 L1156.95 1865.48 L1137.04 1865.48 L1137.04 1861.55 Z" fill="#000000" fill-rule="evenodd" fill-opacity="1" /><path clip-path="url(#clip550)" d="M1307.32 1861.55 L1323.64 1861.55 L1323.64 1865.48 L1301.69 1865.48 L1301.69 1861.55 Q1304.36 1858.79 1308.94 1854.16 Q1313.55 1849.51 1314.73 1848.17 Q1316.97 1845.65 1317.85 1843.91 Q1318.76 1842.15 1318.76 1840.46 Q1318.76 1837.71 1316.81 1835.97 Q1314.89 1834.23 1311.79 1834.23 Q1309.59 1834.23 1307.13 1835 Q1304.7 1835.76 1301.93 1837.31 L1301.93 1832.59 Q1304.75 1831.46 1307.2 1830.88 Q1309.66 1830.3 1311.69 1830.3 Q1317.07 1830.3 1320.26 1832.98 Q1323.45 1835.67 1323.45 1840.16 Q1323.45 1842.29 1322.64 1844.21 Q1321.86 1846.11 1319.75 1848.7 Q1319.17 1849.37 1316.07 1852.59 Q1312.97 1855.78 1307.32 1861.55 Z" fill="#000000" fill-rule="evenodd" fill-opacity="1" /><path clip-path="url(#clip550)" d="M1482.93 1846.85 Q1486.28 1847.57 1488.16 1849.84 Q1490.06 1852.1 1490.06 1855.44 Q1490.06 1860.55 1486.54 1863.35 Q1483.02 1866.15 1476.54 1866.15 Q1474.36 1866.15 1472.05 1865.71 Q1469.75 1865.3 1467.3 1864.44 L1467.3 1859.93 Q1469.25 1861.06 1471.56 1861.64 Q1473.87 1862.22 1476.4 1862.22 Q1480.8 1862.22 1483.09 1860.48 Q1485.4 1858.75 1485.4 1855.44 Q1485.4 1852.38 1483.25 1850.67 Q1481.12 1848.93 1477.3 1848.93 L1473.27 1848.93 L1473.27 1845.09 L1477.49 1845.09 Q1480.94 1845.09 1482.76 1843.72 Q1484.59 1842.34 1484.59 1839.74 Q1484.59 1837.08 1482.69 1835.67 Q1480.82 1834.23 1477.3 1834.23 Q1475.38 1834.23 1473.18 1834.65 Q1470.98 1835.07 1468.34 1835.95 L1468.34 1831.78 Q1471 1831.04 1473.32 1830.67 Q1475.66 1830.3 1477.72 1830.3 Q1483.04 1830.3 1486.14 1832.73 Q1489.25 1835.14 1489.25 1839.26 Q1489.25 1842.13 1487.6 1844.12 Q1485.96 1846.09 1482.93 1846.85 Z" fill="#000000" fill-rule="evenodd" fill-opacity="1" /><path clip-path="url(#clip550)" d="M1647.7 1835 L1635.89 1853.45 L1647.7 1853.45 L1647.7 1835 M1646.47 1830.92 L1652.35 1830.92 L1652.35 1853.45 L1657.28 1853.45 L1657.28 1857.34 L1652.35 1857.34 L1652.35 1865.48 L1647.7 1865.48 L1647.7 1857.34 L1632.1 1857.34 L1632.1 1852.82 L1646.47 1830.92 Z" fill="#000000" fill-rule="evenodd" fill-opacity="1" /><path clip-path="url(#clip550)" d="M1800.98 1830.92 L1819.33 1830.92 L1819.33 1834.86 L1805.26 1834.86 L1805.26 1843.33 Q1806.28 1842.98 1807.3 1842.82 Q1808.32 1842.64 1809.33 1842.64 Q1815.12 1842.64 1818.5 1845.81 Q1821.88 1848.98 1821.88 1854.4 Q1821.88 1859.97 1818.41 1863.08 Q1814.94 1866.15 1808.62 1866.15 Q1806.44 1866.15 1804.17 1865.78 Q1801.93 1865.41 1799.52 1864.67 L1799.52 1859.97 Q1801.6 1861.11 1803.83 1861.66 Q1806.05 1862.22 1808.52 1862.22 Q1812.53 1862.22 1814.87 1860.11 Q1817.2 1858.01 1817.2 1854.4 Q1817.2 1850.78 1814.87 1848.68 Q1812.53 1846.57 1808.52 1846.57 Q1806.65 1846.57 1804.77 1846.99 Q1802.92 1847.4 1800.98 1848.28 L1800.98 1830.92 Z" fill="#000000" fill-rule="evenodd" fill-opacity="1" /><path clip-path="url(#clip550)" d="M1977.12 1846.34 Q1973.97 1846.34 1972.12 1848.49 Q1970.29 1850.65 1970.29 1854.4 Q1970.29 1858.12 1972.12 1860.3 Q1973.97 1862.45 1977.12 1862.45 Q1980.26 1862.45 1982.09 1860.3 Q1983.95 1858.12 1983.95 1854.4 Q1983.95 1850.65 1982.09 1848.49 Q1980.26 1846.34 1977.12 1846.34 M1986.4 1831.69 L1986.4 1835.95 Q1984.64 1835.11 1982.83 1834.67 Q1981.05 1834.23 1979.29 1834.23 Q1974.66 1834.23 1972.21 1837.36 Q1969.78 1840.48 1969.43 1846.8 Q1970.8 1844.79 1972.86 1843.72 Q1974.92 1842.64 1977.39 1842.64 Q1982.6 1842.64 1985.61 1845.81 Q1988.64 1848.96 1988.64 1854.4 Q1988.64 1859.72 1985.5 1862.94 Q1982.35 1866.15 1977.12 1866.15 Q1971.12 1866.15 1967.95 1861.57 Q1964.78 1856.96 1964.78 1848.24 Q1964.78 1840.04 1968.67 1835.18 Q1972.56 1830.3 1979.11 1830.3 Q1980.87 1830.3 1982.65 1830.65 Q1984.45 1830.99 1986.4 1831.69 Z" fill="#000000" fill-rule="evenodd" fill-opacity="1" /><path clip-path="url(#clip550)" d="M2131.61 1830.92 L2153.83 1830.92 L2153.83 1832.91 L2141.29 1865.48 L2136.4 1865.48 L2148.21 1834.86 L2131.61 1834.86 L2131.61 1830.92 Z" fill="#000000" fill-rule="evenodd" fill-opacity="1" /><path clip-path="url(#clip550)" d="M2308.73 1849.07 Q2305.4 1849.07 2303.48 1850.85 Q2301.58 1852.64 2301.58 1855.76 Q2301.58 1858.89 2303.48 1860.67 Q2305.4 1862.45 2308.73 1862.45 Q2312.07 1862.45 2313.99 1860.67 Q2315.91 1858.86 2315.91 1855.76 Q2315.91 1852.64 2313.99 1850.85 Q2312.09 1849.07 2308.73 1849.07 M2304.06 1847.08 Q2301.05 1846.34 2299.36 1844.28 Q2297.69 1842.22 2297.69 1839.26 Q2297.69 1835.11 2300.63 1832.71 Q2303.59 1830.3 2308.73 1830.3 Q2313.9 1830.3 2316.84 1832.71 Q2319.78 1835.11 2319.78 1839.26 Q2319.78 1842.22 2318.09 1844.28 Q2316.42 1846.34 2313.43 1847.08 Q2316.81 1847.87 2318.69 1850.16 Q2320.59 1852.45 2320.59 1855.76 Q2320.59 1860.78 2317.51 1863.47 Q2314.45 1866.15 2308.73 1866.15 Q2303.02 1866.15 2299.94 1863.47 Q2296.88 1860.78 2296.88 1855.76 Q2296.88 1852.45 2298.78 1850.16 Q2300.68 1847.87 2304.06 1847.08 M2302.34 1839.7 Q2302.34 1842.38 2304.01 1843.89 Q2305.7 1845.39 2308.73 1845.39 Q2311.74 1845.39 2313.43 1843.89 Q2315.15 1842.38 2315.15 1839.7 Q2315.15 1837.01 2313.43 1835.51 Q2311.74 1834 2308.73 1834 Q2305.7 1834 2304.01 1835.51 Q2302.34 1837.01 2302.34 1839.7 Z" fill="#000000" fill-rule="evenodd" fill-opacity="1" /><path clip-path="url(#clip550)" d="M2465.05 1864.77 L2465.05 1860.51 Q2466.81 1861.34 2468.61 1861.78 Q2470.42 1862.22 2472.15 1862.22 Q2476.78 1862.22 2479.21 1859.12 Q2481.67 1855.99 2482.01 1849.65 Q2480.67 1851.64 2478.61 1852.71 Q2476.55 1853.77 2474.05 1853.77 Q2468.87 1853.77 2465.83 1850.65 Q2462.82 1847.5 2462.82 1842.06 Q2462.82 1836.73 2465.97 1833.52 Q2469.12 1830.3 2474.35 1830.3 Q2480.35 1830.3 2483.49 1834.9 Q2486.67 1839.49 2486.67 1848.24 Q2486.67 1856.41 2482.78 1861.29 Q2478.91 1866.15 2472.36 1866.15 Q2470.6 1866.15 2468.8 1865.81 Q2466.99 1865.46 2465.05 1864.77 M2474.35 1850.11 Q2477.5 1850.11 2479.33 1847.96 Q2481.18 1845.81 2481.18 1842.06 Q2481.18 1838.33 2479.33 1836.18 Q2477.5 1834 2474.35 1834 Q2471.2 1834 2469.35 1836.18 Q2467.52 1838.33 2467.52 1842.06 Q2467.52 1845.81 2469.35 1847.96 Q2471.2 1850.11 2474.35 1850.11 Z" fill="#000000" fill-rule="evenodd" fill-opacity="1" /><path clip-path="url(#clip550)" d="M2615.44 1861.55 L2623.08 1861.55 L2623.08 1835.18 L2614.77 1836.85 L2614.77 1832.59 L2623.04 1830.92 L2627.71 1830.92 L2627.71 1861.55 L2635.35 1861.55 L2635.35 1865.48 L2615.44 1865.48 L2615.44 1861.55 Z" fill="#000000" fill-rule="evenodd" fill-opacity="1" /><path clip-path="url(#clip550)" d="M2654.8 1834 Q2651.18 1834 2649.36 1837.57 Q2647.55 1841.11 2647.55 1848.24 Q2647.55 1855.34 2649.36 1858.91 Q2651.18 1862.45 2654.8 1862.45 Q2658.43 1862.45 2660.23 1858.91 Q2662.06 1855.34 2662.06 1848.24 Q2662.06 1841.11 2660.23 1837.57 Q2658.43 1834 2654.8 1834 M2654.8 1830.3 Q2660.61 1830.3 2663.66 1834.9 Q2666.74 1839.49 2666.74 1848.24 Q2666.74 1856.96 2663.66 1861.57 Q2660.61 1866.15 2654.8 1866.15 Q2648.99 1866.15 2645.91 1861.57 Q2642.85 1856.96 2642.85 1848.24 Q2642.85 1839.49 2645.91 1834.9 Q2648.99 1830.3 2654.8 1830.3 Z" fill="#000000" fill-rule="evenodd" fill-opacity="1" /><polyline clip-path="url(#clip553)" style="stroke:#000000; stroke-linecap:round; stroke-linejoin:round; stroke-width:2; stroke-opacity:0.1; fill:none" points="
  150.589,1800.78 2640.76,1800.78 
  "/>
<polyline clip-path="url(#clip553)" style="stroke:#000000; stroke-linecap:round; stroke-linejoin:round; stroke-width:2; stroke-opacity:0.1; fill:none" points="
  150.589,1216.27 2640.76,1216.27 
  "/>
<polyline clip-path="url(#clip553)" style="stroke:#000000; stroke-linecap:round; stroke-linejoin:round; stroke-width:2; stroke-opacity:0.1; fill:none" points="
  150.589,631.756 2640.76,631.756 
  "/>
<polyline clip-path="url(#clip553)" style="stroke:#000000; stroke-linecap:round; stroke-linejoin:round; stroke-width:2; stroke-opacity:0.1; fill:none" points="
  150.589,47.2441 2640.76,47.2441 
  "/>
<polyline clip-path="url(#clip550)" style="stroke:#000000; stroke-linecap:round; stroke-linejoin:round; stroke-width:4; stroke-opacity:1; fill:none" points="
  150.589,1800.78 150.589,47.2441 
  "/>
<polyline clip-path="url(#clip550)" style="stroke:#000000; stroke-linecap:round; stroke-linejoin:round; stroke-width:4; stroke-opacity:1; fill:none" points="
  150.589,1800.78 169.487,1800.78 
  "/>
<polyline clip-path="url(#clip550)" style="stroke:#000000; stroke-linecap:round; stroke-linejoin:round; stroke-width:4; stroke-opacity:1; fill:none" points="
  150.589,1216.27 169.487,1216.27 
  "/>
<polyline clip-path="url(#clip550)" style="stroke:#000000; stroke-linecap:round; stroke-linejoin:round; stroke-width:4; stroke-opacity:1; fill:none" points="
  150.589,631.756 169.487,631.756 
  "/>
<polyline clip-path="url(#clip550)" style="stroke:#000000; stroke-linecap:round; stroke-linejoin:round; stroke-width:4; stroke-opacity:1; fill:none" points="
  150.589,47.2441 169.487,47.2441 
  "/>
<path clip-path="url(#clip550)" d="M49.5521 1801.23 L79.2279 1801.23 L79.2279 1805.17 L49.5521 1805.17 L49.5521 1801.23 Z" fill="#000000" fill-rule="evenodd" fill-opacity="1" /><path clip-path="url(#clip550)" d="M89.3667 1783.5 L107.723 1783.5 L107.723 1787.43 L93.6491 1787.43 L93.6491 1795.91 Q94.6676 1795.56 95.6861 1795.4 Q96.7047 1795.21 97.7232 1795.21 Q103.51 1795.21 106.89 1798.38 Q110.269 1801.55 110.269 1806.97 Q110.269 1812.55 106.797 1815.65 Q103.325 1818.73 97.0056 1818.73 Q94.8297 1818.73 92.5612 1818.36 Q90.3158 1817.99 87.9084 1817.25 L87.9084 1812.55 Q89.9917 1813.68 92.2139 1814.24 Q94.4361 1814.8 96.913 1814.8 Q100.918 1814.8 103.256 1812.69 Q105.593 1810.58 105.593 1806.97 Q105.593 1803.36 103.256 1801.25 Q100.918 1799.15 96.913 1799.15 Q95.038 1799.15 93.163 1799.56 Q91.3112 1799.98 89.3667 1800.86 L89.3667 1783.5 Z" fill="#000000" fill-rule="evenodd" fill-opacity="1" /><path clip-path="url(#clip550)" d="M98.325 1202.07 Q94.7139 1202.07 92.8852 1205.63 Q91.0797 1209.17 91.0797 1216.3 Q91.0797 1223.41 92.8852 1226.97 Q94.7139 1230.52 98.325 1230.52 Q101.959 1230.52 103.765 1226.97 Q105.593 1223.41 105.593 1216.3 Q105.593 1209.17 103.765 1205.63 Q101.959 1202.07 98.325 1202.07 M98.325 1198.36 Q104.135 1198.36 107.191 1202.97 Q110.269 1207.55 110.269 1216.3 Q110.269 1225.03 107.191 1229.64 Q104.135 1234.22 98.325 1234.22 Q92.5149 1234.22 89.4362 1229.64 Q86.3806 1225.03 86.3806 1216.3 Q86.3806 1207.55 89.4362 1202.97 Q92.5149 1198.36 98.325 1198.36 Z" fill="#000000" fill-rule="evenodd" fill-opacity="1" /><path clip-path="url(#clip550)" d="M89.3667 614.476 L107.723 614.476 L107.723 618.411 L93.6491 618.411 L93.6491 626.883 Q94.6676 626.536 95.6861 626.374 Q96.7047 626.189 97.7232 626.189 Q103.51 626.189 106.89 629.36 Q110.269 632.531 110.269 637.948 Q110.269 643.527 106.797 646.628 Q103.325 649.707 97.0056 649.707 Q94.8297 649.707 92.5612 649.337 Q90.3158 648.966 87.9084 648.226 L87.9084 643.527 Q89.9917 644.661 92.2139 645.216 Q94.4361 645.772 96.913 645.772 Q100.918 645.772 103.256 643.665 Q105.593 641.559 105.593 637.948 Q105.593 634.337 103.256 632.23 Q100.918 630.124 96.913 630.124 Q95.038 630.124 93.163 630.541 Q91.3112 630.957 89.3667 631.837 L89.3667 614.476 Z" fill="#000000" fill-rule="evenodd" fill-opacity="1" /><path clip-path="url(#clip550)" d="M58.9734 60.5889 L66.6122 60.5889 L66.6122 34.2233 L58.3021 35.89 L58.3021 31.6308 L66.5659 29.9641 L71.2418 29.9641 L71.2418 60.5889 L78.8807 60.5889 L78.8807 64.5241 L58.9734 64.5241 L58.9734 60.5889 Z" fill="#000000" fill-rule="evenodd" fill-opacity="1" /><path clip-path="url(#clip550)" d="M98.325 33.0428 Q94.7139 33.0428 92.8852 36.6076 Q91.0797 40.1492 91.0797 47.2788 Q91.0797 54.3853 92.8852 57.9501 Q94.7139 61.4917 98.325 61.4917 Q101.959 61.4917 103.765 57.9501 Q105.593 54.3853 105.593 47.2788 Q105.593 40.1492 103.765 36.6076 Q101.959 33.0428 98.325 33.0428 M98.325 29.3391 Q104.135 29.3391 107.191 33.9456 Q110.269 38.5289 110.269 47.2788 Q110.269 56.0056 107.191 60.6121 Q104.135 65.1954 98.325 65.1954 Q92.5149 65.1954 89.4362 60.6121 Q86.3806 56.0056 86.3806 47.2788 Q86.3806 38.5289 89.4362 33.9456 Q92.5149 29.3391 98.325 29.3391 Z" fill="#000000" fill-rule="evenodd" fill-opacity="1" /><polyline clip-path="url(#clip553)" style="stroke:#009af9; stroke-linecap:round; stroke-linejoin:round; stroke-width:4; stroke-opacity:1; fill:none" points="
  150.589,1132.77 166.802,1133.24 316.708,1138.34 406.796,1142.21 482.964,1146.15 565.703,1151.33 641.982,1157.24 723.761,1165.27 818.51,1177.91 860.61,1185.23 
  902.711,1194.04 939.63,1203.41 976.548,1214.84 1016.8,1217.26 1057.05,1221.14 1077.3,1224.46 1097.54,1228.89 1117.79,1234.62 1138.03,1241.87 1160.41,1252.02 
  1182.8,1264.9 1205.18,1281.17 1227.57,1301.76 1248.86,1326.49 1270.16,1357.8 1280.81,1376.59 1291.46,1397.95 1302.11,1422.33 1312.76,1450.32 1323.83,1484.06 
  1334.9,1523.59 1345.97,1570.37 1357.04,1626.38 1362.58,1658.67 1368.12,1694.38 1373.65,1734.07 1379.19,1778.39 1384.73,1828.17 1390.26,1884.42 1393.03,1915.37 
  1395.8,1948.45 1398.57,1983.88 1401.33,2021.92 1405.99,2092.67 1410.65,2173.35 1412.98,2218.06 1415.31,2266.13 1417.64,2317.93 1419.97,2373.9 1422.3,2434.57 
  1424.63,2500.54 1426.96,2572.53 1429.29,2651.4 1431.62,2738.15 1433.96,2834.03 1436.29,2940.54 1438.62,3059.54 1439.78,3124.42 1440.95,3193.33 1442.11,3266.66 
  1443.28,3344.84 1444.44,3428.37 1445.61,3517.82 
  "/>
<polyline clip-path="url(#clip553)" style="stroke:#009af9; stroke-linecap:round; stroke-linejoin:round; stroke-width:4; stroke-opacity:1; fill:none" points="
  1523.55,-1096.6 1524.26,-1066.48 1525.68,-1009 1527.1,-954.923 1529.95,-855.859 1532.79,-767.315 1535.64,-687.716 1538.48,-615.785 1541.33,-550.477 1544.17,-490.93 
  1547.02,-436.424 1549.86,-386.354 1552.71,-340.21 1555.55,-297.555 1558.4,-258.016 1561.24,-221.27 1564.09,-187.04 1566.93,-155.08 1572.14,-101.732 1577.35,-54.2137 
  1582.57,-11.6473 1587.78,26.6767 1592.99,61.3387 1598.2,92.8176 1603.42,121.513 1608.63,147.758 1619.05,193.994 1629.48,233.331 1639.9,267.106 1650.32,296.332 
  1659.95,319.965 1669.58,340.872 1679.21,359.446 1688.83,376.007 1708.09,404.106 1727.34,426.804 1746.85,445.481 1766.35,460.693 1785.86,473.102 1805.36,483.209 
  1827.22,492.278 1849.08,499.369 1870.94,504.811 1892.8,508.867 1932.41,513.331 1972.03,514.838 2017.39,513.772 2062.74,510.392 2104.74,505.635 2146.74,499.617 
  2229.55,484.878 2309.95,467.819 2392.37,448.276 2482.67,425.079 2613.84,388.944 2640.76,381.251 
  "/>
<path clip-path="url(#clip550)" d="
M233.595 209.375 L572.91 209.375 L572.91 105.695 L233.595 105.695  Z
  " fill="#ffffff" fill-rule="evenodd" fill-opacity="1"/>
<polyline clip-path="url(#clip550)" style="stroke:#000000; stroke-linecap:round; stroke-linejoin:round; stroke-width:4; stroke-opacity:1; fill:none" points="
  233.595,209.375 572.91,209.375 572.91,105.695 233.595,105.695 233.595,209.375 
  "/>
<polyline clip-path="url(#clip550)" style="stroke:#009af9; stroke-linecap:round; stroke-linejoin:round; stroke-width:4; stroke-opacity:1; fill:none" points="
  261.263,157.535 427.275,157.535 
  "/>
<path clip-path="url(#clip550)" d="M476.96 150.46 Q476.96 150.484 476.82 151.327 L471.479 172.618 Q471.198 173.742 470.402 174.866 Q469.629 176.014 468.388 176.998 Q467.17 178.005 465.296 178.614 Q463.445 179.246 461.314 179.246 Q457.918 179.246 456.419 178.52 Q454.943 177.818 454.943 176.319 Q454.943 175.007 455.763 174.257 Q456.583 173.531 457.52 173.531 Q458.41 173.531 458.878 174.047 Q459.346 174.562 459.346 175.218 Q459.346 175.944 458.855 176.67 Q458.363 177.419 457.379 177.701 Q458.948 178.192 461.22 178.192 Q466.022 178.192 468.083 173.11 Q468.13 173.039 468.13 173.016 L469.723 166.669 L469.652 166.622 Q469.254 167.09 468.622 167.629 Q468.013 168.144 466.701 168.777 Q465.389 169.409 464.101 169.409 Q461.408 169.409 459.557 167.348 Q457.73 165.263 457.73 161.82 Q457.73 159.314 458.738 156.808 Q459.768 154.278 461.361 152.428 Q462.977 150.554 465.038 149.383 Q467.123 148.212 469.137 148.212 Q470.542 148.212 471.737 149.055 Q472.932 149.875 473.587 151.233 Q473.704 150.109 474.337 149.64 Q474.993 149.172 475.555 149.172 Q476.187 149.172 476.562 149.523 Q476.96 149.851 476.96 150.46 M473.025 153.388 Q473.025 153.248 472.932 152.873 Q472.838 152.475 472.557 151.842 Q472.299 151.21 471.901 150.648 Q471.503 150.086 470.777 149.687 Q470.074 149.266 469.184 149.266 Q467.732 149.266 466.28 150.484 Q464.827 151.678 463.82 153.529 Q462.883 155.309 461.993 158.752 Q461.127 162.195 461.127 163.952 Q461.127 165.685 461.876 167.02 Q462.626 168.355 464.242 168.355 Q466.116 168.355 468.13 166.622 Q470.215 164.818 470.566 163.272 L472.885 154.114 Q473.025 153.552 473.025 153.388 Z" fill="#000000" fill-rule="evenodd" fill-opacity="1" /><path clip-path="url(#clip550)" d="M483.538 157.417 Q483.538 149.313 486.559 142.778 Q487.847 140.037 489.651 137.742 Q491.455 135.446 492.649 134.439 Q493.844 133.432 494.172 133.432 Q494.64 133.432 494.663 133.901 Q494.663 134.135 494.031 134.72 Q486.302 142.59 486.325 157.417 Q486.325 172.29 493.844 179.855 Q494.663 180.675 494.663 180.933 Q494.663 181.401 494.172 181.401 Q493.844 181.401 492.696 180.441 Q491.548 179.481 489.768 177.279 Q487.988 175.077 486.7 172.384 Q483.538 165.849 483.538 157.417 Z" fill="#000000" fill-rule="evenodd" fill-opacity="1" /><path clip-path="url(#clip550)" d="M522.201 151.374 Q522.201 152.685 521.381 153.435 Q520.561 154.161 519.625 154.161 Q518.734 154.161 518.266 153.646 Q517.798 153.13 517.798 152.475 Q517.798 151.585 518.453 150.812 Q519.109 150.039 520.093 149.875 Q519.133 149.266 517.704 149.266 Q516.767 149.266 515.947 149.758 Q515.151 150.249 514.659 150.882 Q514.191 151.514 513.769 152.428 Q513.371 153.318 513.207 153.857 Q513.066 154.372 512.949 154.934 L511.31 161.492 Q510.513 164.607 510.513 165.708 Q510.513 167.067 511.169 167.98 Q511.825 168.87 513.137 168.87 Q513.652 168.87 514.237 168.73 Q514.823 168.566 515.572 168.144 Q516.345 167.699 517.025 167.043 Q517.727 166.364 518.407 165.216 Q519.086 164.069 519.531 162.593 Q519.671 162.078 520.14 162.078 Q520.725 162.078 520.725 162.546 Q520.725 162.944 520.397 163.788 Q520.093 164.607 519.414 165.685 Q518.758 166.739 517.891 167.699 Q517.025 168.636 515.736 169.292 Q514.448 169.948 513.043 169.948 Q511.029 169.948 509.693 168.87 Q508.358 167.793 507.866 166.294 Q507.749 166.505 507.585 166.786 Q507.421 167.067 506.93 167.699 Q506.461 168.308 505.922 168.777 Q505.384 169.222 504.54 169.573 Q503.721 169.948 502.831 169.948 Q501.706 169.948 500.699 169.62 Q499.715 169.292 499.013 168.542 Q498.31 167.793 498.31 166.762 Q498.31 165.615 499.083 164.818 Q499.879 163.998 500.957 163.998 Q501.636 163.998 502.175 164.397 Q502.737 164.795 502.737 165.661 Q502.737 166.622 502.081 167.348 Q501.425 168.074 500.488 168.261 Q501.449 168.87 502.878 168.87 Q504.423 168.87 505.641 167.512 Q506.859 166.153 507.445 163.881 Q508.897 158.424 509.459 155.988 Q510.021 153.529 510.021 152.475 Q510.021 151.491 509.764 150.812 Q509.506 150.132 509.061 149.828 Q508.639 149.5 508.241 149.383 Q507.866 149.266 507.445 149.266 Q506.742 149.266 505.946 149.547 Q505.173 149.828 504.236 150.484 Q503.323 151.116 502.456 152.428 Q501.589 153.739 501.004 155.543 Q500.887 156.082 500.371 156.082 Q499.809 156.058 499.809 155.59 Q499.809 155.192 500.114 154.372 Q500.442 153.529 501.097 152.475 Q501.777 151.421 502.643 150.484 Q503.533 149.523 504.822 148.868 Q506.133 148.212 507.539 148.212 Q508.171 148.212 508.78 148.352 Q509.412 148.469 510.162 148.821 Q510.935 149.172 511.614 149.945 Q512.293 150.718 512.715 151.842 Q512.996 151.303 513.371 150.788 Q513.769 150.273 514.378 149.64 Q515.01 148.985 515.877 148.61 Q516.767 148.212 517.751 148.212 Q518.711 148.212 519.648 148.469 Q520.585 148.704 521.381 149.477 Q522.201 150.226 522.201 151.374 Z" fill="#000000" fill-rule="evenodd" fill-opacity="1" /><path clip-path="url(#clip550)" d="M526.821 180.933 Q526.821 180.699 527.43 180.113 Q535.159 172.243 535.159 157.417 Q535.159 142.543 527.734 135.025 Q526.821 134.158 526.821 133.901 Q526.821 133.432 527.289 133.432 Q527.617 133.432 528.765 134.392 Q529.936 135.353 531.693 137.554 Q533.473 139.756 534.784 142.45 Q537.946 148.985 537.946 157.417 Q537.946 165.521 534.925 172.056 Q533.637 174.796 531.833 177.092 Q530.03 179.387 528.835 180.394 Q527.64 181.401 527.289 181.401 Q526.821 181.401 526.821 180.933 Z" fill="#000000" fill-rule="evenodd" fill-opacity="1" /></svg>
