<?xml version="1.0" encoding="utf-8"?>
<svg xmlns="http://www.w3.org/2000/svg" xmlns:xlink="http://www.w3.org/1999/xlink" width="672" height="480" viewBox="0 0 2688 1920">
<defs>
  <clipPath id="clip110">
    <rect x="0" y="0" width="2688" height="1920"/>
  </clipPath>
</defs>
<path clip-path="url(#clip110)" d="
M0 1920 L2688 1920 L2688 0 L0 0  Z
  " fill="#ffffff" fill-rule="evenodd" fill-opacity="1"/>
<defs>
  <clipPath id="clip111">
    <rect x="537" y="0" width="1883" height="1883"/>
  </clipPath>
</defs>
<path clip-path="url(#clip110)" d="
M196.978 1800.78 L2640.76 1800.78 L2640.76 47.2441 L196.978 47.2441  Z
  " fill="#ffffff" fill-rule="evenodd" fill-opacity="1"/>
<defs>
  <clipPath id="clip112">
    <rect x="196" y="47" width="2445" height="1755"/>
  </clipPath>
</defs>
<polyline clip-path="url(#clip112)" style="stroke:#000000; stroke-linecap:round; stroke-linejoin:round; stroke-width:2; stroke-opacity:0.1; fill:none" points="
  496.687,1800.78 496.687,47.2441 
  "/>
<polyline clip-path="url(#clip112)" style="stroke:#000000; stroke-linecap:round; stroke-linejoin:round; stroke-width:2; stroke-opacity:0.1; fill:none" points="
  957.777,1800.78 957.777,47.2441 
  "/>
<polyline clip-path="url(#clip112)" style="stroke:#000000; stroke-linecap:round; stroke-linejoin:round; stroke-width:2; stroke-opacity:0.1; fill:none" points="
  1418.87,1800.78 1418.87,47.2441 
  "/>
<polyline clip-path="url(#clip112)" style="stroke:#000000; stroke-linecap:round; stroke-linejoin:round; stroke-width:2; stroke-opacity:0.1; fill:none" points="
  1879.96,1800.78 1879.96,47.2441 
  "/>
<polyline clip-path="url(#clip112)" style="stroke:#000000; stroke-linecap:round; stroke-linejoin:round; stroke-width:2; stroke-opacity:0.1; fill:none" points="
  2341.05,1800.78 2341.05,47.2441 
  "/>
<polyline clip-path="url(#clip110)" style="stroke:#000000; stroke-linecap:round; stroke-linejoin:round; stroke-width:4; stroke-opacity:1; fill:none" points="
  196.978,1800.78 2640.76,1800.78 
  "/>
<polyline clip-path="url(#clip110)" style="stroke:#000000; stroke-linecap:round; stroke-linejoin:round; stroke-width:4; stroke-opacity:1; fill:none" points="
  496.687,1800.78 496.687,1781.88 
  "/>
<polyline clip-path="url(#clip110)" style="stroke:#000000; stroke-linecap:round; stroke-linejoin:round; stroke-width:4; stroke-opacity:1; fill:none" points="
  957.777,1800.78 957.777,1781.88 
  "/>
<polyline clip-path="url(#clip110)" style="stroke:#000000; stroke-linecap:round; stroke-linejoin:round; stroke-width:4; stroke-opacity:1; fill:none" points="
  1418.87,1800.78 1418.87,1781.88 
  "/>
<polyline clip-path="url(#clip110)" style="stroke:#000000; stroke-linecap:round; stroke-linejoin:round; stroke-width:4; stroke-opacity:1; fill:none" points="
  1879.96,1800.78 1879.96,1781.88 
  "/>
<polyline clip-path="url(#clip110)" style="stroke:#000000; stroke-linecap:round; stroke-linejoin:round; stroke-width:4; stroke-opacity:1; fill:none" points="
  2341.05,1800.78 2341.05,1781.88 
  "/>
<path clip-path="url(#clip110)" d="M465.587 1848.65 L495.263 1848.65 L495.263 1852.59 L465.587 1852.59 L465.587 1848.65 Z" fill="#000000" fill-rule="evenodd" fill-opacity="1" /><path clip-path="url(#clip110)" d="M518.203 1835 L506.397 1853.45 L518.203 1853.45 L518.203 1835 M516.976 1830.92 L522.855 1830.92 L522.855 1853.45 L527.786 1853.45 L527.786 1857.34 L522.855 1857.34 L522.855 1865.48 L518.203 1865.48 L518.203 1857.34 L502.601 1857.34 L502.601 1852.82 L516.976 1830.92 Z" fill="#000000" fill-rule="evenodd" fill-opacity="1" /><path clip-path="url(#clip110)" d="M927.719 1848.65 L957.395 1848.65 L957.395 1852.59 L927.719 1852.59 L927.719 1848.65 Z" fill="#000000" fill-rule="evenodd" fill-opacity="1" /><path clip-path="url(#clip110)" d="M971.515 1861.55 L987.835 1861.55 L987.835 1865.48 L965.89 1865.48 L965.89 1861.55 Q968.552 1858.79 973.136 1854.16 Q977.742 1849.51 978.923 1848.17 Q981.168 1845.65 982.048 1843.91 Q982.95 1842.15 982.95 1840.46 Q982.95 1837.71 981.006 1835.97 Q979.085 1834.23 975.983 1834.23 Q973.784 1834.23 971.33 1835 Q968.899 1835.76 966.122 1837.31 L966.122 1832.59 Q968.946 1831.46 971.399 1830.88 Q973.853 1830.3 975.89 1830.3 Q981.26 1830.3 984.455 1832.98 Q987.649 1835.67 987.649 1840.16 Q987.649 1842.29 986.839 1844.21 Q986.052 1846.11 983.946 1848.7 Q983.367 1849.37 980.265 1852.59 Q977.163 1855.78 971.515 1861.55 Z" fill="#000000" fill-rule="evenodd" fill-opacity="1" /><path clip-path="url(#clip110)" d="M1418.87 1834 Q1415.26 1834 1413.43 1837.57 Q1411.62 1841.11 1411.62 1848.24 Q1411.62 1855.34 1413.43 1858.91 Q1415.26 1862.45 1418.87 1862.45 Q1422.5 1862.45 1424.31 1858.91 Q1426.14 1855.34 1426.14 1848.24 Q1426.14 1841.11 1424.31 1837.57 Q1422.5 1834 1418.87 1834 M1418.87 1830.3 Q1424.68 1830.3 1427.73 1834.9 Q1430.81 1839.49 1430.81 1848.24 Q1430.81 1856.96 1427.73 1861.57 Q1424.68 1866.15 1418.87 1866.15 Q1413.06 1866.15 1409.98 1861.57 Q1406.92 1856.96 1406.92 1848.24 Q1406.92 1839.49 1409.98 1834.9 Q1413.06 1830.3 1418.87 1830.3 Z" fill="#000000" fill-rule="evenodd" fill-opacity="1" /><path clip-path="url(#clip110)" d="M1874.61 1861.55 L1890.93 1861.55 L1890.93 1865.48 L1868.98 1865.48 L1868.98 1861.55 Q1871.65 1858.79 1876.23 1854.16 Q1880.84 1849.51 1882.02 1848.17 Q1884.26 1845.65 1885.14 1843.91 Q1886.05 1842.15 1886.05 1840.46 Q1886.05 1837.71 1884.1 1835.97 Q1882.18 1834.23 1879.08 1834.23 Q1876.88 1834.23 1874.42 1835 Q1871.99 1835.76 1869.22 1837.31 L1869.22 1832.59 Q1872.04 1831.46 1874.49 1830.88 Q1876.95 1830.3 1878.98 1830.3 Q1884.36 1830.3 1887.55 1832.98 Q1890.74 1835.67 1890.74 1840.16 Q1890.74 1842.29 1889.93 1844.21 Q1889.15 1846.11 1887.04 1848.7 Q1886.46 1849.37 1883.36 1852.59 Q1880.26 1855.78 1874.61 1861.55 Z" fill="#000000" fill-rule="evenodd" fill-opacity="1" /><path clip-path="url(#clip110)" d="M2344.06 1835 L2332.25 1853.45 L2344.06 1853.45 L2344.06 1835 M2342.83 1830.92 L2348.71 1830.92 L2348.71 1853.45 L2353.64 1853.45 L2353.64 1857.34 L2348.71 1857.34 L2348.71 1865.48 L2344.06 1865.48 L2344.06 1857.34 L2328.45 1857.34 L2328.45 1852.82 L2342.83 1830.92 Z" fill="#000000" fill-rule="evenodd" fill-opacity="1" /><polyline clip-path="url(#clip112)" style="stroke:#000000; stroke-linecap:round; stroke-linejoin:round; stroke-width:2; stroke-opacity:0.1; fill:none" points="
  196.978,1615.24 2640.76,1615.24 
  "/>
<polyline clip-path="url(#clip112)" style="stroke:#000000; stroke-linecap:round; stroke-linejoin:round; stroke-width:2; stroke-opacity:0.1; fill:none" points="
  196.978,1207.51 2640.76,1207.51 
  "/>
<polyline clip-path="url(#clip112)" style="stroke:#000000; stroke-linecap:round; stroke-linejoin:round; stroke-width:2; stroke-opacity:0.1; fill:none" points="
  196.978,799.778 2640.76,799.778 
  "/>
<polyline clip-path="url(#clip112)" style="stroke:#000000; stroke-linecap:round; stroke-linejoin:round; stroke-width:2; stroke-opacity:0.1; fill:none" points="
  196.978,392.046 2640.76,392.046 
  "/>
<polyline clip-path="url(#clip110)" style="stroke:#000000; stroke-linecap:round; stroke-linejoin:round; stroke-width:4; stroke-opacity:1; fill:none" points="
  196.978,1800.78 196.978,47.2441 
  "/>
<polyline clip-path="url(#clip110)" style="stroke:#000000; stroke-linecap:round; stroke-linejoin:round; stroke-width:4; stroke-opacity:1; fill:none" points="
  196.978,1615.24 215.876,1615.24 
  "/>
<polyline clip-path="url(#clip110)" style="stroke:#000000; stroke-linecap:round; stroke-linejoin:round; stroke-width:4; stroke-opacity:1; fill:none" points="
  196.978,1207.51 215.876,1207.51 
  "/>
<polyline clip-path="url(#clip110)" style="stroke:#000000; stroke-linecap:round; stroke-linejoin:round; stroke-width:4; stroke-opacity:1; fill:none" points="
  196.978,799.778 215.876,799.778 
  "/>
<polyline clip-path="url(#clip110)" style="stroke:#000000; stroke-linecap:round; stroke-linejoin:round; stroke-width:4; stroke-opacity:1; fill:none" points="
  196.978,392.046 215.876,392.046 
  "/>
<path clip-path="url(#clip110)" d="M49.8993 1615.69 L79.5751 1615.69 L79.5751 1619.63 L49.8993 1619.63 L49.8993 1615.69 Z" fill="#000000" fill-rule="evenodd" fill-opacity="1" /><path clip-path="url(#clip110)" d="M99.6676 1601.04 Q96.0565 1601.04 94.2278 1604.61 Q92.4223 1608.15 92.4223 1615.28 Q92.4223 1622.38 94.2278 1625.95 Q96.0565 1629.49 99.6676 1629.49 Q103.302 1629.49 105.107 1625.95 Q106.936 1622.38 106.936 1615.28 Q106.936 1608.15 105.107 1604.61 Q103.302 1601.04 99.6676 1601.04 M99.6676 1597.34 Q105.478 1597.34 108.533 1601.94 Q111.612 1606.53 111.612 1615.28 Q111.612 1624.01 108.533 1628.61 Q105.478 1633.19 99.6676 1633.19 Q93.8574 1633.19 90.7788 1628.61 Q87.7232 1624.01 87.7232 1615.28 Q87.7232 1606.53 90.7788 1601.94 Q93.8574 1597.34 99.6676 1597.34 Z" fill="#000000" fill-rule="evenodd" fill-opacity="1" /><path clip-path="url(#clip110)" d="M119.83 1626.64 L124.714 1626.64 L124.714 1632.52 L119.83 1632.52 L119.83 1626.64 Z" fill="#000000" fill-rule="evenodd" fill-opacity="1" /><path clip-path="url(#clip110)" d="M135.038 1631.81 L135.038 1627.55 Q136.797 1628.38 138.603 1628.82 Q140.408 1629.26 142.144 1629.26 Q146.774 1629.26 149.204 1626.16 Q151.658 1623.03 152.005 1616.69 Q150.663 1618.68 148.603 1619.75 Q146.542 1620.81 144.042 1620.81 Q138.857 1620.81 135.825 1617.69 Q132.816 1614.54 132.816 1609.1 Q132.816 1603.77 135.964 1600.56 Q139.112 1597.34 144.343 1597.34 Q150.339 1597.34 153.487 1601.94 Q156.658 1606.53 156.658 1615.28 Q156.658 1623.45 152.769 1628.33 Q148.903 1633.19 142.353 1633.19 Q140.593 1633.19 138.788 1632.85 Q136.982 1632.5 135.038 1631.81 M144.343 1617.15 Q147.491 1617.15 149.32 1615 Q151.172 1612.85 151.172 1609.1 Q151.172 1605.37 149.32 1603.22 Q147.491 1601.04 144.343 1601.04 Q141.195 1601.04 139.343 1603.22 Q137.515 1605.37 137.515 1609.1 Q137.515 1612.85 139.343 1615 Q141.195 1617.15 144.343 1617.15 Z" fill="#000000" fill-rule="evenodd" fill-opacity="1" /><path clip-path="url(#clip110)" d="M49.5521 1207.96 L79.2279 1207.96 L79.2279 1211.9 L49.5521 1211.9 L49.5521 1207.96 Z" fill="#000000" fill-rule="evenodd" fill-opacity="1" /><path clip-path="url(#clip110)" d="M99.3204 1193.31 Q95.7093 1193.31 93.8806 1196.87 Q92.075 1200.42 92.075 1207.55 Q92.075 1214.65 93.8806 1218.22 Q95.7093 1221.76 99.3204 1221.76 Q102.955 1221.76 104.76 1218.22 Q106.589 1214.65 106.589 1207.55 Q106.589 1200.42 104.76 1196.87 Q102.955 1193.31 99.3204 1193.31 M99.3204 1189.61 Q105.131 1189.61 108.186 1194.21 Q111.265 1198.8 111.265 1207.55 Q111.265 1216.27 108.186 1220.88 Q105.131 1225.46 99.3204 1225.46 Q93.5102 1225.46 90.4315 1220.88 Q87.376 1216.27 87.376 1207.55 Q87.376 1198.8 90.4315 1194.21 Q93.5102 1189.61 99.3204 1189.61 Z" fill="#000000" fill-rule="evenodd" fill-opacity="1" /><path clip-path="url(#clip110)" d="M119.482 1218.91 L124.367 1218.91 L124.367 1224.79 L119.482 1224.79 L119.482 1218.91 Z" fill="#000000" fill-rule="evenodd" fill-opacity="1" /><path clip-path="url(#clip110)" d="M145.13 1205.65 Q141.982 1205.65 140.13 1207.8 Q138.302 1209.95 138.302 1213.7 Q138.302 1217.43 140.13 1219.61 Q141.982 1221.76 145.13 1221.76 Q148.278 1221.76 150.107 1219.61 Q151.959 1217.43 151.959 1213.7 Q151.959 1209.95 150.107 1207.8 Q148.278 1205.65 145.13 1205.65 M154.413 1190.99 L154.413 1195.25 Q152.653 1194.42 150.848 1193.98 Q149.065 1193.54 147.306 1193.54 Q142.677 1193.54 140.223 1196.67 Q137.792 1199.79 137.445 1206.11 Q138.811 1204.1 140.871 1203.03 Q142.931 1201.94 145.408 1201.94 Q150.616 1201.94 153.626 1205.12 Q156.658 1208.26 156.658 1213.7 Q156.658 1219.03 153.51 1222.24 Q150.362 1225.46 145.13 1225.46 Q139.135 1225.46 135.964 1220.88 Q132.792 1216.27 132.792 1207.55 Q132.792 1199.35 136.681 1194.49 Q140.57 1189.61 147.121 1189.61 Q148.88 1189.61 150.663 1189.95 Q152.468 1190.3 154.413 1190.99 Z" fill="#000000" fill-rule="evenodd" fill-opacity="1" /><path clip-path="url(#clip110)" d="M50.3623 800.23 L80.0381 800.23 L80.0381 804.165 L50.3623 804.165 L50.3623 800.23 Z" fill="#000000" fill-rule="evenodd" fill-opacity="1" /><path clip-path="url(#clip110)" d="M100.131 785.577 Q96.5195 785.577 94.6908 789.142 Q92.8852 792.683 92.8852 799.813 Q92.8852 806.919 94.6908 810.484 Q96.5195 814.026 100.131 814.026 Q103.765 814.026 105.57 810.484 Q107.399 806.919 107.399 799.813 Q107.399 792.683 105.57 789.142 Q103.765 785.577 100.131 785.577 M100.131 781.873 Q105.941 781.873 108.996 786.48 Q112.075 791.063 112.075 799.813 Q112.075 808.54 108.996 813.146 Q105.941 817.73 100.131 817.73 Q94.3204 817.73 91.2417 813.146 Q88.1862 808.54 88.1862 799.813 Q88.1862 791.063 91.2417 786.48 Q94.3204 781.873 100.131 781.873 Z" fill="#000000" fill-rule="evenodd" fill-opacity="1" /><path clip-path="url(#clip110)" d="M120.292 811.179 L125.177 811.179 L125.177 817.058 L120.292 817.058 L120.292 811.179 Z" fill="#000000" fill-rule="evenodd" fill-opacity="1" /><path clip-path="url(#clip110)" d="M149.528 798.424 Q152.885 799.142 154.76 801.41 Q156.658 803.679 156.658 807.012 Q156.658 812.128 153.14 814.929 Q149.621 817.73 143.14 817.73 Q140.964 817.73 138.649 817.29 Q136.357 816.873 133.904 816.017 L133.904 811.503 Q135.848 812.637 138.163 813.216 Q140.478 813.794 143.001 813.794 Q147.399 813.794 149.69 812.058 Q152.005 810.322 152.005 807.012 Q152.005 803.956 149.853 802.244 Q147.723 800.507 143.903 800.507 L139.876 800.507 L139.876 796.665 L144.089 796.665 Q147.538 796.665 149.366 795.299 Q151.195 793.91 151.195 791.318 Q151.195 788.656 149.297 787.244 Q147.422 785.808 143.903 785.808 Q141.982 785.808 139.783 786.225 Q137.584 786.642 134.945 787.521 L134.945 783.355 Q137.607 782.614 139.922 782.244 Q142.26 781.873 144.32 781.873 Q149.644 781.873 152.746 784.304 Q155.848 786.711 155.848 790.832 Q155.848 793.702 154.204 795.693 Q152.561 797.66 149.528 798.424 Z" fill="#000000" fill-rule="evenodd" fill-opacity="1" /><path clip-path="url(#clip110)" d="M99.4824 377.844 Q95.8713 377.844 94.0426 381.409 Q92.2371 384.951 92.2371 392.08 Q92.2371 399.187 94.0426 402.752 Q95.8713 406.293 99.4824 406.293 Q103.117 406.293 104.922 402.752 Q106.751 399.187 106.751 392.08 Q106.751 384.951 104.922 381.409 Q103.117 377.844 99.4824 377.844 M99.4824 374.141 Q105.293 374.141 108.348 378.747 Q111.427 383.33 111.427 392.08 Q111.427 400.807 108.348 405.414 Q105.293 409.997 99.4824 409.997 Q93.6723 409.997 90.5936 405.414 Q87.538 400.807 87.538 392.08 Q87.538 383.33 90.5936 378.747 Q93.6723 374.141 99.4824 374.141 Z" fill="#000000" fill-rule="evenodd" fill-opacity="1" /><path clip-path="url(#clip110)" d="M119.644 403.446 L124.529 403.446 L124.529 409.326 L119.644 409.326 L119.644 403.446 Z" fill="#000000" fill-rule="evenodd" fill-opacity="1" /><path clip-path="url(#clip110)" d="M144.714 377.844 Q141.103 377.844 139.274 381.409 Q137.468 384.951 137.468 392.08 Q137.468 399.187 139.274 402.752 Q141.103 406.293 144.714 406.293 Q148.348 406.293 150.153 402.752 Q151.982 399.187 151.982 392.08 Q151.982 384.951 150.153 381.409 Q148.348 377.844 144.714 377.844 M144.714 374.141 Q150.524 374.141 153.579 378.747 Q156.658 383.33 156.658 392.08 Q156.658 400.807 153.579 405.414 Q150.524 409.997 144.714 409.997 Q138.903 409.997 135.825 405.414 Q132.769 400.807 132.769 392.08 Q132.769 383.33 135.825 378.747 Q138.903 374.141 144.714 374.141 Z" fill="#000000" fill-rule="evenodd" fill-opacity="1" /><polyline clip-path="url(#clip112)" style="stroke:#009af9; stroke-linecap:round; stroke-linejoin:round; stroke-width:4; stroke-opacity:1; fill:none" points="
  266.142,450.719 273.646,444.492 281.151,438.147 350.545,374.87 419.938,306.764 461.641,265.819 503.343,226.454 538.602,195.402 573.861,167.261 593.012,153.482 
  612.162,140.924 631.313,129.708 650.463,119.951 668.118,112.347 685.773,106.164 703.429,101.481 721.084,98.3744 740.012,96.8724 758.94,97.3403 777.868,99.8487 
  796.796,104.46 818.726,112.502 840.657,123.505 862.587,137.52 884.517,154.579 904.006,172.303 923.495,192.438 942.984,214.968 962.472,239.866 979.562,263.617 
  996.652,289.123 1013.74,316.343 1030.83,345.229 1049.47,378.555 1068.1,413.713 1086.73,450.614 1105.36,489.156 1124.11,529.475 1142.85,571.228 1161.59,614.289 
  1180.34,658.522 1221.78,759.789 1263.23,864.465 1302.67,965.633 1342.1,1066.74 1383.1,1170.06 1424.11,1269.76 1441.37,1310.21 1458.62,1349.57 1475.88,1387.72 
  1493.14,1424.52 1514.21,1467.48 1535.28,1508.05 1556.35,1546.05 1577.42,1581.28 1596.72,1610.98 1616.02,1638.09 1635.33,1662.5 1654.63,1684.1 1672.45,1701.49 
  1690.28,1716.35 1708.11,1728.62 1725.93,1738.27 1743.99,1745.32 1762.05,1749.62 1780.11,1751.15 1798.17,1749.9 1818.4,1745.2 1838.64,1737.04 1858.88,1725.46 
  1879.12,1710.5 1897.46,1694.1 1915.79,1675.04 1934.13,1653.41 1952.47,1629.28 1973.47,1598.7 1994.46,1565.13 2015.46,1528.71 2036.46,1489.63 2055.9,1451.24 
  2075.34,1410.9 2094.78,1368.76 2114.22,1325 2152.55,1234.67 2190.89,1140.17 2228.1,1045.82 2265.32,950.271 2303.48,852.496 2341.63,756.305 2362.53,704.773 
  2383.43,654.337 2404.33,605.202 2425.23,557.561 2455.59,491.389 2485.95,429.271 2516.32,371.665 2546.68,318.966 2552.91,308.793 2559.13,298.843 2565.36,289.118 
  2571.59,279.621 
  "/>
<path clip-path="url(#clip110)" d="
M278.437 1742.33 L575.245 1742.33 L575.245 1638.65 L278.437 1638.65  Z
  " fill="#ffffff" fill-rule="evenodd" fill-opacity="1"/>
<polyline clip-path="url(#clip110)" style="stroke:#000000; stroke-linecap:round; stroke-linejoin:round; stroke-width:4; stroke-opacity:1; fill:none" points="
  278.437,1742.33 575.245,1742.33 575.245,1638.65 278.437,1638.65 278.437,1742.33 
  "/>
<polyline clip-path="url(#clip110)" style="stroke:#009af9; stroke-linecap:round; stroke-linejoin:round; stroke-width:4; stroke-opacity:1; fill:none" points="
  305.59,1690.49 468.509,1690.49 
  "/>
<path clip-path="url(#clip110)" d="M509.505 1710.18 Q507.699 1714.81 505.986 1716.22 Q504.273 1717.63 501.403 1717.63 L498 1717.63 L498 1714.06 L500.5 1714.06 Q502.259 1714.06 503.231 1713.23 Q504.204 1712.4 505.384 1709.3 L506.148 1707.35 L495.662 1681.84 L500.176 1681.84 L508.278 1702.12 L516.379 1681.84 L520.893 1681.84 L509.505 1710.18 Z" fill="#000000" fill-rule="evenodd" fill-opacity="1" /><path clip-path="url(#clip110)" d="M528.185 1703.83 L535.824 1703.83 L535.824 1677.47 L527.514 1679.13 L527.514 1674.87 L535.778 1673.21 L540.453 1673.21 L540.453 1703.83 L548.092 1703.83 L548.092 1707.77 L528.185 1707.77 L528.185 1703.83 Z" fill="#000000" fill-rule="evenodd" fill-opacity="1" /></svg>
