<?xml version="1.0" encoding="utf-8"?>
<svg xmlns="http://www.w3.org/2000/svg" xmlns:xlink="http://www.w3.org/1999/xlink" width="672" height="480" viewBox="0 0 2688 1920">
<defs>
  <clipPath id="clip430">
    <rect x="0" y="0" width="2688" height="1920"/>
  </clipPath>
</defs>
<path clip-path="url(#clip430)" d="
M0 1920 L2688 1920 L2688 0 L0 0  Z
  " fill="#ffffff" fill-rule="evenodd" fill-opacity="1"/>
<defs>
  <clipPath id="clip431">
    <rect x="537" y="0" width="1883" height="1883"/>
  </clipPath>
</defs>
<path clip-path="url(#clip430)" d="
M115.057 1800.78 L2640.76 1800.78 L2640.76 47.2441 L115.057 47.2441  Z
  " fill="#ffffff" fill-rule="evenodd" fill-opacity="1"/>
<defs>
  <clipPath id="clip432">
    <rect x="115" y="47" width="2527" height="1755"/>
  </clipPath>
</defs>
<polyline clip-path="url(#clip432)" style="stroke:#000000; stroke-linecap:round; stroke-linejoin:round; stroke-width:2; stroke-opacity:0.1; fill:none" points="
  115.057,1800.78 115.057,47.2441 
  "/>
<polyline clip-path="url(#clip432)" style="stroke:#000000; stroke-linecap:round; stroke-linejoin:round; stroke-width:2; stroke-opacity:0.1; fill:none" points="
  746.482,1800.78 746.482,47.2441 
  "/>
<polyline clip-path="url(#clip432)" style="stroke:#000000; stroke-linecap:round; stroke-linejoin:round; stroke-width:2; stroke-opacity:0.1; fill:none" points="
  1377.91,1800.78 1377.91,47.2441 
  "/>
<polyline clip-path="url(#clip432)" style="stroke:#000000; stroke-linecap:round; stroke-linejoin:round; stroke-width:2; stroke-opacity:0.1; fill:none" points="
  2009.33,1800.78 2009.33,47.2441 
  "/>
<polyline clip-path="url(#clip432)" style="stroke:#000000; stroke-linecap:round; stroke-linejoin:round; stroke-width:2; stroke-opacity:0.1; fill:none" points="
  2640.76,1800.78 2640.76,47.2441 
  "/>
<polyline clip-path="url(#clip430)" style="stroke:#000000; stroke-linecap:round; stroke-linejoin:round; stroke-width:4; stroke-opacity:1; fill:none" points="
  115.057,1800.78 2640.76,1800.78 
  "/>
<polyline clip-path="url(#clip430)" style="stroke:#000000; stroke-linecap:round; stroke-linejoin:round; stroke-width:4; stroke-opacity:1; fill:none" points="
  115.057,1800.78 115.057,1781.88 
  "/>
<polyline clip-path="url(#clip430)" style="stroke:#000000; stroke-linecap:round; stroke-linejoin:round; stroke-width:4; stroke-opacity:1; fill:none" points="
  746.482,1800.78 746.482,1781.88 
  "/>
<polyline clip-path="url(#clip430)" style="stroke:#000000; stroke-linecap:round; stroke-linejoin:round; stroke-width:4; stroke-opacity:1; fill:none" points="
  1377.91,1800.78 1377.91,1781.88 
  "/>
<polyline clip-path="url(#clip430)" style="stroke:#000000; stroke-linecap:round; stroke-linejoin:round; stroke-width:4; stroke-opacity:1; fill:none" points="
  2009.33,1800.78 2009.33,1781.88 
  "/>
<polyline clip-path="url(#clip430)" style="stroke:#000000; stroke-linecap:round; stroke-linejoin:round; stroke-width:4; stroke-opacity:1; fill:none" points="
  2640.76,1800.78 2640.76,1781.88 
  "/>
<path clip-path="url(#clip430)" d="M69.1199 1848.65 L98.7957 1848.65 L98.7957 1852.59 L69.1199 1852.59 L69.1199 1848.65 Z" fill="#000000" fill-rule="evenodd" fill-opacity="1" /><path clip-path="url(#clip430)" d="M109.698 1861.55 L117.337 1861.55 L117.337 1835.18 L109.027 1836.85 L109.027 1832.59 L117.291 1830.92 L121.967 1830.92 L121.967 1861.55 L129.606 1861.55 L129.606 1865.48 L109.698 1865.48 L109.698 1861.55 Z" fill="#000000" fill-rule="evenodd" fill-opacity="1" /><path clip-path="url(#clip430)" d="M149.05 1834 Q145.439 1834 143.61 1837.57 Q141.805 1841.11 141.805 1848.24 Q141.805 1855.34 143.61 1858.91 Q145.439 1862.45 149.05 1862.45 Q152.684 1862.45 154.49 1858.91 Q156.319 1855.34 156.319 1848.24 Q156.319 1841.11 154.49 1837.57 Q152.684 1834 149.05 1834 M149.05 1830.3 Q154.86 1830.3 157.916 1834.9 Q160.994 1839.49 160.994 1848.24 Q160.994 1856.96 157.916 1861.57 Q154.86 1866.15 149.05 1866.15 Q143.24 1866.15 140.161 1861.57 Q137.106 1856.96 137.106 1848.24 Q137.106 1839.49 140.161 1834.9 Q143.24 1830.3 149.05 1830.3 Z" fill="#000000" fill-rule="evenodd" fill-opacity="1" /><path clip-path="url(#clip430)" d="M716.123 1848.65 L745.799 1848.65 L745.799 1852.59 L716.123 1852.59 L716.123 1848.65 Z" fill="#000000" fill-rule="evenodd" fill-opacity="1" /><path clip-path="url(#clip430)" d="M755.938 1830.92 L774.294 1830.92 L774.294 1834.86 L760.22 1834.86 L760.22 1843.33 Q761.239 1842.98 762.257 1842.82 Q763.276 1842.64 764.294 1842.64 Q770.081 1842.64 773.461 1845.81 Q776.84 1848.98 776.84 1854.4 Q776.84 1859.97 773.368 1863.08 Q769.896 1866.15 763.577 1866.15 Q761.401 1866.15 759.132 1865.78 Q756.887 1865.41 754.48 1864.67 L754.48 1859.97 Q756.563 1861.11 758.785 1861.66 Q761.007 1862.22 763.484 1862.22 Q767.489 1862.22 769.827 1860.11 Q772.165 1858.01 772.165 1854.4 Q772.165 1850.78 769.827 1848.68 Q767.489 1846.57 763.484 1846.57 Q761.609 1846.57 759.734 1846.99 Q757.882 1847.4 755.938 1848.28 L755.938 1830.92 Z" fill="#000000" fill-rule="evenodd" fill-opacity="1" /><path clip-path="url(#clip430)" d="M1377.91 1834 Q1374.3 1834 1372.47 1837.57 Q1370.66 1841.11 1370.66 1848.24 Q1370.66 1855.34 1372.47 1858.91 Q1374.3 1862.45 1377.91 1862.45 Q1381.54 1862.45 1383.35 1858.91 Q1385.18 1855.34 1385.18 1848.24 Q1385.18 1841.11 1383.35 1837.57 Q1381.54 1834 1377.91 1834 M1377.91 1830.3 Q1383.72 1830.3 1386.77 1834.9 Q1389.85 1839.49 1389.85 1848.24 Q1389.85 1856.96 1386.77 1861.57 Q1383.72 1866.15 1377.91 1866.15 Q1372.1 1866.15 1369.02 1861.57 Q1365.96 1856.96 1365.96 1848.24 Q1365.96 1839.49 1369.02 1834.9 Q1372.1 1830.3 1377.91 1830.3 Z" fill="#000000" fill-rule="evenodd" fill-opacity="1" /><path clip-path="url(#clip430)" d="M1999.61 1830.92 L2017.97 1830.92 L2017.97 1834.86 L2003.89 1834.86 L2003.89 1843.33 Q2004.91 1842.98 2005.93 1842.82 Q2006.95 1842.64 2007.97 1842.64 Q2013.75 1842.64 2017.13 1845.81 Q2020.51 1848.98 2020.51 1854.4 Q2020.51 1859.97 2017.04 1863.08 Q2013.57 1866.15 2007.25 1866.15 Q2005.07 1866.15 2002.8 1865.78 Q2000.56 1865.41 1998.15 1864.67 L1998.15 1859.97 Q2000.23 1861.11 2002.46 1861.66 Q2004.68 1862.22 2007.16 1862.22 Q2011.16 1862.22 2013.5 1860.11 Q2015.84 1858.01 2015.84 1854.4 Q2015.84 1850.78 2013.5 1848.68 Q2011.16 1846.57 2007.16 1846.57 Q2005.28 1846.57 2003.41 1846.99 Q2001.55 1847.4 1999.61 1848.28 L1999.61 1830.92 Z" fill="#000000" fill-rule="evenodd" fill-opacity="1" /><path clip-path="url(#clip430)" d="M2615.44 1861.55 L2623.08 1861.55 L2623.08 1835.18 L2614.77 1836.85 L2614.77 1832.59 L2623.04 1830.92 L2627.71 1830.92 L2627.71 1861.55 L2635.35 1861.55 L2635.35 1865.48 L2615.44 1865.48 L2615.44 1861.55 Z" fill="#000000" fill-rule="evenodd" fill-opacity="1" /><path clip-path="url(#clip430)" d="M2654.8 1834 Q2651.18 1834 2649.36 1837.57 Q2647.55 1841.11 2647.55 1848.24 Q2647.55 1855.34 2649.36 1858.91 Q2651.18 1862.45 2654.8 1862.45 Q2658.43 1862.45 2660.23 1858.91 Q2662.06 1855.34 2662.06 1848.24 Q2662.06 1841.11 2660.23 1837.57 Q2658.43 1834 2654.8 1834 M2654.8 1830.3 Q2660.61 1830.3 2663.66 1834.9 Q2666.74 1839.49 2666.74 1848.24 Q2666.74 1856.96 2663.66 1861.57 Q2660.61 1866.15 2654.8 1866.15 Q2648.99 1866.15 2645.91 1861.57 Q2642.85 1856.96 2642.85 1848.24 Q2642.85 1839.49 2645.91 1834.9 Q2648.99 1830.3 2654.8 1830.3 Z" fill="#000000" fill-rule="evenodd" fill-opacity="1" /><polyline clip-path="url(#clip432)" style="stroke:#000000; stroke-linecap:round; stroke-linejoin:round; stroke-width:2; stroke-opacity:0.1; fill:none" points="
  115.057,1800.78 2640.76,1800.78 
  "/>
<polyline clip-path="url(#clip432)" style="stroke:#000000; stroke-linecap:round; stroke-linejoin:round; stroke-width:2; stroke-opacity:0.1; fill:none" points="
  115.057,1508.52 2640.76,1508.52 
  "/>
<polyline clip-path="url(#clip432)" style="stroke:#000000; stroke-linecap:round; stroke-linejoin:round; stroke-width:2; stroke-opacity:0.1; fill:none" points="
  115.057,1216.27 2640.76,1216.27 
  "/>
<polyline clip-path="url(#clip432)" style="stroke:#000000; stroke-linecap:round; stroke-linejoin:round; stroke-width:2; stroke-opacity:0.1; fill:none" points="
  115.057,924.012 2640.76,924.012 
  "/>
<polyline clip-path="url(#clip432)" style="stroke:#000000; stroke-linecap:round; stroke-linejoin:round; stroke-width:2; stroke-opacity:0.1; fill:none" points="
  115.057,631.756 2640.76,631.756 
  "/>
<polyline clip-path="url(#clip432)" style="stroke:#000000; stroke-linecap:round; stroke-linejoin:round; stroke-width:2; stroke-opacity:0.1; fill:none" points="
  115.057,339.5 2640.76,339.5 
  "/>
<polyline clip-path="url(#clip432)" style="stroke:#000000; stroke-linecap:round; stroke-linejoin:round; stroke-width:2; stroke-opacity:0.1; fill:none" points="
  115.057,47.2441 2640.76,47.2441 
  "/>
<polyline clip-path="url(#clip430)" style="stroke:#000000; stroke-linecap:round; stroke-linejoin:round; stroke-width:4; stroke-opacity:1; fill:none" points="
  115.057,1800.78 115.057,47.2441 
  "/>
<polyline clip-path="url(#clip430)" style="stroke:#000000; stroke-linecap:round; stroke-linejoin:round; stroke-width:4; stroke-opacity:1; fill:none" points="
  115.057,1800.78 133.955,1800.78 
  "/>
<polyline clip-path="url(#clip430)" style="stroke:#000000; stroke-linecap:round; stroke-linejoin:round; stroke-width:4; stroke-opacity:1; fill:none" points="
  115.057,1508.52 133.955,1508.52 
  "/>
<polyline clip-path="url(#clip430)" style="stroke:#000000; stroke-linecap:round; stroke-linejoin:round; stroke-width:4; stroke-opacity:1; fill:none" points="
  115.057,1216.27 133.955,1216.27 
  "/>
<polyline clip-path="url(#clip430)" style="stroke:#000000; stroke-linecap:round; stroke-linejoin:round; stroke-width:4; stroke-opacity:1; fill:none" points="
  115.057,924.012 133.955,924.012 
  "/>
<polyline clip-path="url(#clip430)" style="stroke:#000000; stroke-linecap:round; stroke-linejoin:round; stroke-width:4; stroke-opacity:1; fill:none" points="
  115.057,631.756 133.955,631.756 
  "/>
<polyline clip-path="url(#clip430)" style="stroke:#000000; stroke-linecap:round; stroke-linejoin:round; stroke-width:4; stroke-opacity:1; fill:none" points="
  115.057,339.5 133.955,339.5 
  "/>
<polyline clip-path="url(#clip430)" style="stroke:#000000; stroke-linecap:round; stroke-linejoin:round; stroke-width:4; stroke-opacity:1; fill:none" points="
  115.057,47.2441 133.955,47.2441 
  "/>
<path clip-path="url(#clip430)" d="M62.7928 1786.58 Q59.1817 1786.58 57.353 1790.14 Q55.5475 1793.68 55.5475 1800.81 Q55.5475 1807.92 57.353 1811.49 Q59.1817 1815.03 62.7928 1815.03 Q66.427 1815.03 68.2326 1811.49 Q70.0613 1807.92 70.0613 1800.81 Q70.0613 1793.68 68.2326 1790.14 Q66.427 1786.58 62.7928 1786.58 M62.7928 1782.87 Q68.6029 1782.87 71.6585 1787.48 Q74.7372 1792.06 74.7372 1800.81 Q74.7372 1809.54 71.6585 1814.15 Q68.6029 1818.73 62.7928 1818.73 Q56.9826 1818.73 53.904 1814.15 Q50.8484 1809.54 50.8484 1800.81 Q50.8484 1792.06 53.904 1787.48 Q56.9826 1782.87 62.7928 1782.87 Z" fill="#000000" fill-rule="evenodd" fill-opacity="1" /><path clip-path="url(#clip430)" d="M54.8299 1521.87 L62.4687 1521.87 L62.4687 1495.5 L54.1586 1497.17 L54.1586 1492.91 L62.4224 1491.24 L67.0983 1491.24 L67.0983 1521.87 L74.7372 1521.87 L74.7372 1525.8 L54.8299 1525.8 L54.8299 1521.87 Z" fill="#000000" fill-rule="evenodd" fill-opacity="1" /><path clip-path="url(#clip430)" d="M58.4178 1229.61 L74.7372 1229.61 L74.7372 1233.55 L52.7928 1233.55 L52.7928 1229.61 Q55.4549 1226.86 60.0382 1222.23 Q64.6446 1217.58 65.8252 1216.23 Q68.0705 1213.71 68.9502 1211.97 Q69.8529 1210.21 69.8529 1208.52 Q69.8529 1205.77 67.9085 1204.03 Q65.9872 1202.3 62.8854 1202.3 Q60.6863 1202.3 58.2326 1203.06 Q55.8021 1203.83 53.0243 1205.38 L53.0243 1200.65 Q55.8484 1199.52 58.3021 1198.94 Q60.7558 1198.36 62.7928 1198.36 Q68.1631 1198.36 71.3576 1201.05 Q74.552 1203.73 74.552 1208.22 Q74.552 1210.35 73.7418 1212.27 Q72.9548 1214.17 70.8483 1216.77 Q70.2696 1217.44 67.1678 1220.65 Q64.0659 1223.85 58.4178 1229.61 Z" fill="#000000" fill-rule="evenodd" fill-opacity="1" /><path clip-path="url(#clip430)" d="M67.6076 922.658 Q70.964 923.375 72.839 925.644 Q74.7372 927.912 74.7372 931.245 Q74.7372 936.361 71.2187 939.162 Q67.7002 941.963 61.2187 941.963 Q59.0428 941.963 56.728 941.523 Q54.4364 941.107 51.9827 940.25 L51.9827 935.736 Q53.9271 936.87 56.2419 937.449 Q58.5567 938.028 61.0798 938.028 Q65.478 938.028 67.7696 936.292 Q70.0844 934.556 70.0844 931.245 Q70.0844 928.19 67.9317 926.477 Q65.802 924.741 61.9826 924.741 L57.9549 924.741 L57.9549 920.898 L62.1678 920.898 Q65.6169 920.898 67.4455 919.533 Q69.2742 918.144 69.2742 915.551 Q69.2742 912.889 67.3761 911.477 Q65.5011 910.042 61.9826 910.042 Q60.0613 910.042 57.8623 910.459 Q55.6632 910.875 53.0243 911.755 L53.0243 907.588 Q55.6864 906.847 58.0012 906.477 Q60.3391 906.107 62.3993 906.107 Q67.7233 906.107 70.8252 908.537 Q73.927 910.945 73.927 915.065 Q73.927 917.935 72.2835 919.926 Q70.64 921.894 67.6076 922.658 Z" fill="#000000" fill-rule="evenodd" fill-opacity="1" /><path clip-path="url(#clip430)" d="M65.1539 618.55 L53.3484 636.999 L65.1539 636.999 L65.1539 618.55 M63.927 614.476 L69.8066 614.476 L69.8066 636.999 L74.7372 636.999 L74.7372 640.888 L69.8066 640.888 L69.8066 649.036 L65.1539 649.036 L65.1539 640.888 L49.5521 640.888 L49.5521 636.374 L63.927 614.476 Z" fill="#000000" fill-rule="evenodd" fill-opacity="1" /><path clip-path="url(#clip430)" d="M53.8345 322.22 L72.1909 322.22 L72.1909 326.155 L58.1169 326.155 L58.1169 334.627 Q59.1354 334.28 60.1539 334.118 Q61.1724 333.933 62.1909 333.933 Q67.978 333.933 71.3576 337.104 Q74.7372 340.275 74.7372 345.692 Q74.7372 351.271 71.265 354.373 Q67.7928 357.451 61.4734 357.451 Q59.2974 357.451 57.0289 357.081 Q54.7836 356.711 52.3762 355.97 L52.3762 351.271 Q54.4595 352.405 56.6817 352.961 Q58.9039 353.516 61.3808 353.516 Q65.3854 353.516 67.7233 351.41 Q70.0613 349.303 70.0613 345.692 Q70.0613 342.081 67.7233 339.974 Q65.3854 337.868 61.3808 337.868 Q59.5058 337.868 57.6308 338.285 Q55.7789 338.701 53.8345 339.581 L53.8345 322.22 Z" fill="#000000" fill-rule="evenodd" fill-opacity="1" /><path clip-path="url(#clip430)" d="M63.2095 45.3807 Q60.0613 45.3807 58.2095 47.5334 Q56.3808 49.6862 56.3808 53.4362 Q56.3808 57.163 58.2095 59.3389 Q60.0613 61.4917 63.2095 61.4917 Q66.3576 61.4917 68.1863 59.3389 Q70.0381 57.163 70.0381 53.4362 Q70.0381 49.6862 68.1863 47.5334 Q66.3576 45.3807 63.2095 45.3807 M72.4918 30.728 L72.4918 34.9872 Q70.7326 34.1539 68.927 33.7141 Q67.1446 33.2743 65.3854 33.2743 Q60.7558 33.2743 58.3021 36.3992 Q55.8715 39.5242 55.5243 45.8436 Q56.89 43.8298 58.9502 42.765 Q61.0104 41.677 63.4872 41.677 Q68.6955 41.677 71.7048 44.8483 Q74.7372 47.9964 74.7372 53.4362 Q74.7372 58.7602 71.589 61.9778 Q68.4409 65.1954 63.2095 65.1954 Q57.2141 65.1954 54.0428 60.6121 Q50.8716 56.0056 50.8716 47.2788 Q50.8716 39.0844 54.7604 34.2233 Q58.6493 29.3391 65.2002 29.3391 Q66.9594 29.3391 68.7418 29.6863 Q70.5474 30.0335 72.4918 30.728 Z" fill="#000000" fill-rule="evenodd" fill-opacity="1" /><polyline clip-path="url(#clip432)" style="stroke:#009af9; stroke-linecap:round; stroke-linejoin:round; stroke-width:4; stroke-opacity:1; fill:none" points="
  115.057,908.885 131.501,907.3 283.546,889.766 374.919,875.877 452.174,861.255 536.094,841.127 613.462,816.87 696.407,781.418 792.508,718.967 835.209,678.391 
  877.911,624.303 896.634,594.442 915.356,559.445 924.718,539.583 934.079,517.845 938.76,506.186 943.44,493.949 948.121,481.087 952.802,467.553 973.214,399.157 
  993.627,310.403 1014.04,190.418 1034.45,18.7807 1044.72,-99.1052 1054.99,-250.092 1060.12,-342.771 1065.25,-450.738 1070.39,-578.19 1075.52,-731.03 1080.65,-917.839 
  1085.79,-1151.6 1090.92,-1452.95 1096.05,-1856.85 1101.19,-2427.67 1106.32,-3298.61 1108.89,-3933.37 1111.46,-4798.2 1114.02,-6048.25 1116.59,-8019.72 1117.3,-8783.8 
  1118.01,-9694.13 1118.72,-10797.5 1119.43,-12163.2 1120.14,-13898 1120.85,-16176.3 1121.56,-19303 1122.26,-23863.9 1123.68,-44652.4 1125.1,-315895 
  "/>
<polyline clip-path="url(#clip432)" style="stroke:#009af9; stroke-linecap:round; stroke-linejoin:round; stroke-width:4; stroke-opacity:1; fill:none" points="
  1378.03,1507.41 1380.84,1492.96 1383.65,1482.11 1421.46,1394.04 1459.28,1340.19 1505.44,1293.5 1551.61,1258.9 1593.9,1234.04 1636.19,1213.74 1714.31,1184.56 
  1793.44,1162.41 1882.13,1143.38 1962.49,1129.76 2054.5,1117.17 2139.69,1107.61 2223.68,1099.67 2305.23,1093.08 2388.82,1087.22 2480.41,1081.65 2613.46,1074.81 
  2640.76,1073.55 
  "/>
<path clip-path="url(#clip430)" d="
M2251.57 209.375 L2556.57 209.375 L2556.57 105.695 L2251.57 105.695  Z
  " fill="#ffffff" fill-rule="evenodd" fill-opacity="1"/>
<polyline clip-path="url(#clip430)" style="stroke:#000000; stroke-linecap:round; stroke-linejoin:round; stroke-width:4; stroke-opacity:1; fill:none" points="
  2251.57,209.375 2556.57,209.375 2556.57,105.695 2251.57,105.695 2251.57,209.375 
  "/>
<polyline clip-path="url(#clip430)" style="stroke:#009af9; stroke-linecap:round; stroke-linejoin:round; stroke-width:4; stroke-opacity:1; fill:none" points="
  2279.63,157.535 2448.01,157.535 
  "/>
<path clip-path="url(#clip430)" d="M2489.91 177.223 Q2488.11 181.852 2486.4 183.264 Q2484.68 184.676 2481.81 184.676 L2478.41 184.676 L2478.41 181.112 L2480.91 181.112 Q2482.67 181.112 2483.64 180.278 Q2484.61 179.445 2485.79 176.343 L2486.56 174.399 L2476.07 148.889 L2480.59 148.889 L2488.69 169.167 L2496.79 148.889 L2501.3 148.889 L2489.91 177.223 Z" fill="#000000" fill-rule="evenodd" fill-opacity="1" /><path clip-path="url(#clip430)" d="M2508.6 170.88 L2516.23 170.88 L2516.23 144.515 L2507.92 146.181 L2507.92 141.922 L2516.19 140.255 L2520.86 140.255 L2520.86 170.88 L2528.5 170.88 L2528.5 174.815 L2508.6 174.815 L2508.6 170.88 Z" fill="#000000" fill-rule="evenodd" fill-opacity="1" /></svg>
