<?xml version="1.0" encoding="utf-8"?>
<svg xmlns="http://www.w3.org/2000/svg" xmlns:xlink="http://www.w3.org/1999/xlink" width="672" height="480" viewBox="0 0 2688 1920">
<defs>
  <clipPath id="clip750">
    <rect x="0" y="0" width="2688" height="1920"/>
  </clipPath>
</defs>
<path clip-path="url(#clip750)" d="
M0 1920 L2688 1920 L2688 0 L0 0  Z
  " fill="#ffffff" fill-rule="evenodd" fill-opacity="1"/>
<defs>
  <clipPath id="clip751">
    <rect x="537" y="0" width="1883" height="1883"/>
  </clipPath>
</defs>
<path clip-path="url(#clip750)" d="
M149.988 1800.78 L2640.76 1800.78 L2640.76 47.2441 L149.988 47.2441  Z
  " fill="#ffffff" fill-rule="evenodd" fill-opacity="1"/>
<defs>
  <clipPath id="clip752">
    <rect x="149" y="47" width="2492" height="1755"/>
  </clipPath>
</defs>
<polyline clip-path="url(#clip752)" style="stroke:#000000; stroke-linecap:round; stroke-linejoin:round; stroke-width:2; stroke-opacity:0.1; fill:none" points="
  220.481,1800.78 220.481,47.2441 
  "/>
<polyline clip-path="url(#clip752)" style="stroke:#000000; stroke-linecap:round; stroke-linejoin:round; stroke-width:2; stroke-opacity:0.1; fill:none" points="
  807.926,1800.78 807.926,47.2441 
  "/>
<polyline clip-path="url(#clip752)" style="stroke:#000000; stroke-linecap:round; stroke-linejoin:round; stroke-width:2; stroke-opacity:0.1; fill:none" points="
  1395.37,1800.78 1395.37,47.2441 
  "/>
<polyline clip-path="url(#clip752)" style="stroke:#000000; stroke-linecap:round; stroke-linejoin:round; stroke-width:2; stroke-opacity:0.1; fill:none" points="
  1982.82,1800.78 1982.82,47.2441 
  "/>
<polyline clip-path="url(#clip752)" style="stroke:#000000; stroke-linecap:round; stroke-linejoin:round; stroke-width:2; stroke-opacity:0.1; fill:none" points="
  2570.26,1800.78 2570.26,47.2441 
  "/>
<polyline clip-path="url(#clip750)" style="stroke:#000000; stroke-linecap:round; stroke-linejoin:round; stroke-width:4; stroke-opacity:1; fill:none" points="
  149.988,1800.78 2640.76,1800.78 
  "/>
<polyline clip-path="url(#clip750)" style="stroke:#000000; stroke-linecap:round; stroke-linejoin:round; stroke-width:4; stroke-opacity:1; fill:none" points="
  220.481,1800.78 220.481,1781.88 
  "/>
<polyline clip-path="url(#clip750)" style="stroke:#000000; stroke-linecap:round; stroke-linejoin:round; stroke-width:4; stroke-opacity:1; fill:none" points="
  807.926,1800.78 807.926,1781.88 
  "/>
<polyline clip-path="url(#clip750)" style="stroke:#000000; stroke-linecap:round; stroke-linejoin:round; stroke-width:4; stroke-opacity:1; fill:none" points="
  1395.37,1800.78 1395.37,1781.88 
  "/>
<polyline clip-path="url(#clip750)" style="stroke:#000000; stroke-linecap:round; stroke-linejoin:round; stroke-width:4; stroke-opacity:1; fill:none" points="
  1982.82,1800.78 1982.82,1781.88 
  "/>
<polyline clip-path="url(#clip750)" style="stroke:#000000; stroke-linecap:round; stroke-linejoin:round; stroke-width:4; stroke-opacity:1; fill:none" points="
  2570.26,1800.78 2570.26,1781.88 
  "/>
<path clip-path="url(#clip750)" d="M189.382 1848.65 L219.057 1848.65 L219.057 1852.59 L189.382 1852.59 L189.382 1848.65 Z" fill="#000000" fill-rule="evenodd" fill-opacity="1" /><path clip-path="url(#clip750)" d="M241.997 1835 L230.192 1853.45 L241.997 1853.45 L241.997 1835 M240.77 1830.92 L246.65 1830.92 L246.65 1853.45 L251.58 1853.45 L251.58 1857.34 L246.65 1857.34 L246.65 1865.48 L241.997 1865.48 L241.997 1857.34 L226.395 1857.34 L226.395 1852.82 L240.77 1830.92 Z" fill="#000000" fill-rule="evenodd" fill-opacity="1" /><path clip-path="url(#clip750)" d="M777.869 1848.65 L807.544 1848.65 L807.544 1852.59 L777.869 1852.59 L777.869 1848.65 Z" fill="#000000" fill-rule="evenodd" fill-opacity="1" /><path clip-path="url(#clip750)" d="M821.665 1861.55 L837.984 1861.55 L837.984 1865.48 L816.04 1865.48 L816.04 1861.55 Q818.702 1858.79 823.285 1854.16 Q827.892 1849.51 829.072 1848.17 Q831.317 1845.65 832.197 1843.91 Q833.1 1842.15 833.1 1840.46 Q833.1 1837.71 831.155 1835.97 Q829.234 1834.23 826.132 1834.23 Q823.933 1834.23 821.48 1835 Q819.049 1835.76 816.271 1837.31 L816.271 1832.59 Q819.095 1831.46 821.549 1830.88 Q824.003 1830.3 826.04 1830.3 Q831.41 1830.3 834.604 1832.98 Q837.799 1835.67 837.799 1840.16 Q837.799 1842.29 836.989 1844.21 Q836.202 1846.11 834.095 1848.7 Q833.516 1849.37 830.415 1852.59 Q827.313 1855.78 821.665 1861.55 Z" fill="#000000" fill-rule="evenodd" fill-opacity="1" /><path clip-path="url(#clip750)" d="M1395.37 1834 Q1391.76 1834 1389.93 1837.57 Q1388.13 1841.11 1388.13 1848.24 Q1388.13 1855.34 1389.93 1858.91 Q1391.76 1862.45 1395.37 1862.45 Q1399.01 1862.45 1400.81 1858.91 Q1402.64 1855.34 1402.64 1848.24 Q1402.64 1841.11 1400.81 1837.57 Q1399.01 1834 1395.37 1834 M1395.37 1830.3 Q1401.18 1830.3 1404.24 1834.9 Q1407.32 1839.49 1407.32 1848.24 Q1407.32 1856.96 1404.24 1861.57 Q1401.18 1866.15 1395.37 1866.15 Q1389.56 1866.15 1386.48 1861.57 Q1383.43 1856.96 1383.43 1848.24 Q1383.43 1839.49 1386.48 1834.9 Q1389.56 1830.3 1395.37 1830.3 Z" fill="#000000" fill-rule="evenodd" fill-opacity="1" /><path clip-path="url(#clip750)" d="M1977.47 1861.55 L1993.79 1861.55 L1993.79 1865.48 L1971.84 1865.48 L1971.84 1861.55 Q1974.51 1858.79 1979.09 1854.16 Q1983.7 1849.51 1984.88 1848.17 Q1987.12 1845.65 1988 1843.91 Q1988.91 1842.15 1988.91 1840.46 Q1988.91 1837.71 1986.96 1835.97 Q1985.04 1834.23 1981.94 1834.23 Q1979.74 1834.23 1977.28 1835 Q1974.85 1835.76 1972.08 1837.31 L1972.08 1832.59 Q1974.9 1831.46 1977.35 1830.88 Q1979.81 1830.3 1981.84 1830.3 Q1987.22 1830.3 1990.41 1832.98 Q1993.6 1835.67 1993.6 1840.16 Q1993.6 1842.29 1992.79 1844.21 Q1992.01 1846.11 1989.9 1848.7 Q1989.32 1849.37 1986.22 1852.59 Q1983.12 1855.78 1977.47 1861.55 Z" fill="#000000" fill-rule="evenodd" fill-opacity="1" /><path clip-path="url(#clip750)" d="M2573.27 1835 L2561.47 1853.45 L2573.27 1853.45 L2573.27 1835 M2572.04 1830.92 L2577.92 1830.92 L2577.92 1853.45 L2582.85 1853.45 L2582.85 1857.34 L2577.92 1857.34 L2577.92 1865.48 L2573.27 1865.48 L2573.27 1857.34 L2557.67 1857.34 L2557.67 1852.82 L2572.04 1830.92 Z" fill="#000000" fill-rule="evenodd" fill-opacity="1" /><polyline clip-path="url(#clip752)" style="stroke:#000000; stroke-linecap:round; stroke-linejoin:round; stroke-width:2; stroke-opacity:0.1; fill:none" points="
  149.988,1800.78 2640.76,1800.78 
  "/>
<polyline clip-path="url(#clip752)" style="stroke:#000000; stroke-linecap:round; stroke-linejoin:round; stroke-width:2; stroke-opacity:0.1; fill:none" points="
  149.988,1450.07 2640.76,1450.07 
  "/>
<polyline clip-path="url(#clip752)" style="stroke:#000000; stroke-linecap:round; stroke-linejoin:round; stroke-width:2; stroke-opacity:0.1; fill:none" points="
  149.988,1099.37 2640.76,1099.37 
  "/>
<polyline clip-path="url(#clip752)" style="stroke:#000000; stroke-linecap:round; stroke-linejoin:round; stroke-width:2; stroke-opacity:0.1; fill:none" points="
  149.988,748.658 2640.76,748.658 
  "/>
<polyline clip-path="url(#clip752)" style="stroke:#000000; stroke-linecap:round; stroke-linejoin:round; stroke-width:2; stroke-opacity:0.1; fill:none" points="
  149.988,397.951 2640.76,397.951 
  "/>
<polyline clip-path="url(#clip752)" style="stroke:#000000; stroke-linecap:round; stroke-linejoin:round; stroke-width:2; stroke-opacity:0.1; fill:none" points="
  149.988,47.2441 2640.76,47.2441 
  "/>
<polyline clip-path="url(#clip750)" style="stroke:#000000; stroke-linecap:round; stroke-linejoin:round; stroke-width:4; stroke-opacity:1; fill:none" points="
  149.988,1800.78 149.988,47.2441 
  "/>
<polyline clip-path="url(#clip750)" style="stroke:#000000; stroke-linecap:round; stroke-linejoin:round; stroke-width:4; stroke-opacity:1; fill:none" points="
  149.988,1800.78 168.885,1800.78 
  "/>
<polyline clip-path="url(#clip750)" style="stroke:#000000; stroke-linecap:round; stroke-linejoin:round; stroke-width:4; stroke-opacity:1; fill:none" points="
  149.988,1450.07 168.885,1450.07 
  "/>
<polyline clip-path="url(#clip750)" style="stroke:#000000; stroke-linecap:round; stroke-linejoin:round; stroke-width:4; stroke-opacity:1; fill:none" points="
  149.988,1099.37 168.885,1099.37 
  "/>
<polyline clip-path="url(#clip750)" style="stroke:#000000; stroke-linecap:round; stroke-linejoin:round; stroke-width:4; stroke-opacity:1; fill:none" points="
  149.988,748.658 168.885,748.658 
  "/>
<polyline clip-path="url(#clip750)" style="stroke:#000000; stroke-linecap:round; stroke-linejoin:round; stroke-width:4; stroke-opacity:1; fill:none" points="
  149.988,397.951 168.885,397.951 
  "/>
<polyline clip-path="url(#clip750)" style="stroke:#000000; stroke-linecap:round; stroke-linejoin:round; stroke-width:4; stroke-opacity:1; fill:none" points="
  149.988,47.2441 168.885,47.2441 
  "/>
<path clip-path="url(#clip750)" d="M49.5521 1801.23 L79.2279 1801.23 L79.2279 1805.17 L49.5521 1805.17 L49.5521 1801.23 Z" fill="#000000" fill-rule="evenodd" fill-opacity="1" /><path clip-path="url(#clip750)" d="M93.3482 1814.12 L109.668 1814.12 L109.668 1818.06 L87.7232 1818.06 L87.7232 1814.12 Q90.3852 1811.37 94.9685 1806.74 Q99.575 1802.09 100.756 1800.74 Q103.001 1798.22 103.881 1796.49 Q104.783 1794.73 104.783 1793.04 Q104.783 1790.28 102.839 1788.55 Q100.918 1786.81 97.8158 1786.81 Q95.6167 1786.81 93.163 1787.57 Q90.7325 1788.34 87.9547 1789.89 L87.9547 1785.17 Q90.7788 1784.03 93.2324 1783.45 Q95.6861 1782.87 97.7232 1782.87 Q103.094 1782.87 106.288 1785.56 Q109.482 1788.24 109.482 1792.74 Q109.482 1794.86 108.672 1796.79 Q107.885 1798.68 105.779 1801.28 Q105.2 1801.95 102.098 1805.17 Q98.9963 1808.36 93.3482 1814.12 Z" fill="#000000" fill-rule="evenodd" fill-opacity="1" /><path clip-path="url(#clip750)" d="M97.7232 1435.87 Q94.1121 1435.87 92.2834 1439.44 Q90.4778 1442.98 90.4778 1450.11 Q90.4778 1457.21 92.2834 1460.78 Q94.1121 1464.32 97.7232 1464.32 Q101.357 1464.32 103.163 1460.78 Q104.992 1457.21 104.992 1450.11 Q104.992 1442.98 103.163 1439.44 Q101.357 1435.87 97.7232 1435.87 M97.7232 1432.17 Q103.533 1432.17 106.589 1436.77 Q109.668 1441.36 109.668 1450.11 Q109.668 1458.83 106.589 1463.44 Q103.533 1468.02 97.7232 1468.02 Q91.913 1468.02 88.8343 1463.44 Q85.7788 1458.83 85.7788 1450.11 Q85.7788 1441.36 88.8343 1436.77 Q91.913 1432.17 97.7232 1432.17 Z" fill="#000000" fill-rule="evenodd" fill-opacity="1" /><path clip-path="url(#clip750)" d="M93.3482 1112.71 L109.668 1112.71 L109.668 1116.65 L87.7232 1116.65 L87.7232 1112.71 Q90.3852 1109.96 94.9685 1105.33 Q99.575 1100.67 100.756 1099.33 Q103.001 1096.81 103.881 1095.07 Q104.783 1093.31 104.783 1091.62 Q104.783 1088.87 102.839 1087.13 Q100.918 1085.4 97.8158 1085.4 Q95.6167 1085.4 93.163 1086.16 Q90.7325 1086.92 87.9547 1088.47 L87.9547 1083.75 Q90.7788 1082.62 93.2324 1082.04 Q95.6861 1081.46 97.7232 1081.46 Q103.094 1081.46 106.288 1084.15 Q109.482 1086.83 109.482 1091.32 Q109.482 1093.45 108.672 1095.37 Q107.885 1097.27 105.779 1099.86 Q105.2 1100.53 102.098 1103.75 Q98.9963 1106.95 93.3482 1112.71 Z" fill="#000000" fill-rule="evenodd" fill-opacity="1" /><path clip-path="url(#clip750)" d="M100.084 735.452 L88.2788 753.901 L100.084 753.901 L100.084 735.452 M98.8574 731.378 L104.737 731.378 L104.737 753.901 L109.668 753.901 L109.668 757.79 L104.737 757.79 L104.737 765.938 L100.084 765.938 L100.084 757.79 L84.4825 757.79 L84.4825 753.276 L98.8574 731.378 Z" fill="#000000" fill-rule="evenodd" fill-opacity="1" /><path clip-path="url(#clip750)" d="M98.1398 396.088 Q94.9917 396.088 93.1399 398.24 Q91.3112 400.393 91.3112 404.143 Q91.3112 407.87 93.1399 410.046 Q94.9917 412.199 98.1398 412.199 Q101.288 412.199 103.117 410.046 Q104.968 407.87 104.968 404.143 Q104.968 400.393 103.117 398.24 Q101.288 396.088 98.1398 396.088 M107.422 381.435 L107.422 385.694 Q105.663 384.861 103.857 384.421 Q102.075 383.981 100.316 383.981 Q95.6861 383.981 93.2324 387.106 Q90.8019 390.231 90.4547 396.551 Q91.8204 394.537 93.8806 393.472 Q95.9408 392.384 98.4176 392.384 Q103.626 392.384 106.635 395.555 Q109.668 398.703 109.668 404.143 Q109.668 409.467 106.519 412.685 Q103.371 415.902 98.1398 415.902 Q92.1445 415.902 88.9732 411.319 Q85.8019 406.713 85.8019 397.986 Q85.8019 389.791 89.6908 384.93 Q93.5797 380.046 100.131 380.046 Q101.89 380.046 103.672 380.393 Q105.478 380.741 107.422 381.435 Z" fill="#000000" fill-rule="evenodd" fill-opacity="1" /><path clip-path="url(#clip750)" d="M97.8158 48.1121 Q94.4824 48.1121 92.5612 49.8945 Q90.663 51.6769 90.663 54.8019 Q90.663 57.9269 92.5612 59.7093 Q94.4824 61.4917 97.8158 61.4917 Q101.149 61.4917 103.07 59.7093 Q104.992 57.9038 104.992 54.8019 Q104.992 51.6769 103.07 49.8945 Q101.172 48.1121 97.8158 48.1121 M93.1399 46.1214 Q90.1306 45.3807 88.4408 43.3205 Q86.7741 41.2603 86.7741 38.2974 Q86.7741 34.1539 89.7139 31.7465 Q92.6769 29.3391 97.8158 29.3391 Q102.978 29.3391 105.918 31.7465 Q108.857 34.1539 108.857 38.2974 Q108.857 41.2603 107.168 43.3205 Q105.501 45.3807 102.515 46.1214 Q105.894 46.9084 107.769 49.2001 Q109.668 51.4918 109.668 54.8019 Q109.668 59.825 106.589 62.5102 Q103.533 65.1954 97.8158 65.1954 Q92.0982 65.1954 89.0195 62.5102 Q85.964 59.825 85.964 54.8019 Q85.964 51.4918 87.8621 49.2001 Q89.7602 46.9084 93.1399 46.1214 M91.4269 38.7372 Q91.4269 41.4224 93.0936 42.927 Q94.7834 44.4316 97.8158 44.4316 Q100.825 44.4316 102.515 42.927 Q104.228 41.4224 104.228 38.7372 Q104.228 36.052 102.515 34.5474 Q100.825 33.0428 97.8158 33.0428 Q94.7834 33.0428 93.0936 34.5474 Q91.4269 36.052 91.4269 38.7372 Z" fill="#000000" fill-rule="evenodd" fill-opacity="1" /><polyline clip-path="url(#clip752)" style="stroke:#009af9; stroke-linecap:round; stroke-linejoin:round; stroke-width:4; stroke-opacity:1; fill:none" points="
  220.481,1485.14 228.13,1485.33 298.858,1487.12 341.362,1488.29 377.299,1489.34 416.337,1490.54 452.326,1491.72 490.91,1493.06 535.614,1494.72 575.341,1496.32 
  610.178,1497.81 648.16,1499.55 686.368,1501.44 728.612,1503.7 768.805,1506.04 810.597,1508.7 845.777,1511.15 888.728,1514.42 928.074,1517.75 946.243,1519.41 
  964.412,1521.15 982.817,1523 1001.22,1524.95 1021.85,1527.26 1042.48,1529.73 1061.17,1532.1 1079.86,1534.61 1101.26,1537.69 1122.66,1541 1142.47,1544.3 
  1162.29,1547.84 1181.82,1551.61 1201.36,1555.67 1210.84,1557.77 1220.33,1559.95 1229.81,1562.21 1239.29,1564.58 1249.01,1567.11 1258.74,1569.75 1268.46,1572.52 
  1278.18,1575.42 1288.83,1578.75 1299.48,1582.27 1310.13,1585.98 1320.78,1589.91 1328.52,1592.91 1336.26,1596.05 1343.99,1599.32 1351.73,1602.74 1359.47,1606.32 
  1367.2,1610.08 1374.94,1614.02 1382.67,1618.16 1385.85,1619.92 1389.02,1621.72 1392.2,1623.55 1395.37,1625.43 
  "/>
<polyline clip-path="url(#clip752)" style="stroke:#e26f46; stroke-linecap:round; stroke-linejoin:round; stroke-width:4; stroke-opacity:1; fill:none" points="
  1395.37,973.412 1397.28,973.392 1399.2,973.331 1401.11,973.23 1403.02,973.088 1420.7,969.827 1438.38,962.851 1456.07,951.669 1473.75,935.433 1484.37,922.7 
  1495,907.232 1505.63,888.456 1516.25,865.598 1525.24,842.307 1534.22,814.465 1538.71,798.481 1543.21,780.881 1545.45,771.407 1547.7,761.444 1549.94,750.956 
  1552.19,739.906 1557.07,713.759 1561.95,684.266 1566.83,650.816 1571.71,612.643 1576.59,568.779 1581.47,517.982 1583.91,489.497 1586.35,458.636 1588.79,425.117 
  1591.23,388.61 1593.48,351.977 1595.73,312.133 1597.98,268.672 1600.22,221.122 1602.47,168.933 1604.72,111.452 1606.97,47.9073 1609.22,-22.6196 1610.35,-60.838 
  1611.47,-101.233 1612.6,-143.978 1613.72,-189.266 1614.85,-237.308 1615.97,-288.341 1617.09,-342.625 1618.22,-400.451 1619.34,-462.142 1620.47,-528.06 1621.59,-598.611 
  1622.72,-674.248 1623.84,-755.484 1624.97,-842.898 1626.09,-937.145 1627.22,-1038.97 1627.52,-1067.65 1627.82,-1096.96 1628.12,-1126.91 1628.42,-1157.52 1629.03,-1220.79 
  1629.63,-1286.95 1630.23,-1356.17 1630.83,-1428.65 1631.44,-1504.61 1632.04,-1584.25 1632.64,-1667.84 1633.25,-1755.64 1633.85,-1847.93 1634.45,-1945.03 1634.75,-1995.49 
  1635.05,-2047.28 
  "/>
<polyline clip-path="url(#clip752)" style="stroke:#e26f46; stroke-linecap:round; stroke-linejoin:round; stroke-width:4; stroke-opacity:1; fill:none" points="
  1689.2,1450.07 1689.55,1450.07 1690.25,1450.07 1690.95,1450.07 1692.34,1450.07 1693.74,1450.07 1696.53,1450.07 1699.33,1450.07 1704.92,1450.05 1710.5,1449.84 
  1730.37,1443.76 1750.23,1430.16 1767.65,1416.36 1785.07,1403.01 1823.05,1378.26 1861.26,1359.41 1903.5,1343.91 1943.7,1332.81 1985.49,1323.92 2020.67,1317.96 
  2063.62,1312.06 2102.96,1307.67 2139.3,1304.29 2176.11,1301.37 2217.37,1298.6 2254.75,1296.44 2297.55,1294.32 2337.18,1292.63 2376.25,1291.17 2414.18,1289.92 
  2453.07,1288.78 2495.67,1287.67 2557.57,1286.28 2570.26,1286.03 
  "/>
</svg>
