<?xml version="1.0" encoding="utf-8"?>
<svg xmlns="http://www.w3.org/2000/svg" xmlns:xlink="http://www.w3.org/1999/xlink" width="672" height="480" viewBox="0 0 2688 1920">
<defs>
  <clipPath id="clip020">
    <rect x="0" y="0" width="2688" height="1920"/>
  </clipPath>
</defs>
<path clip-path="url(#clip020)" d="
M0 1920 L2688 1920 L2688 0 L0 0  Z
  " fill="#ffffff" fill-rule="evenodd" fill-opacity="1"/>
<defs>
  <clipPath id="clip021">
    <rect x="537" y="0" width="1883" height="1883"/>
  </clipPath>
</defs>
<path clip-path="url(#clip020)" d="
M189.293 1800.78 L2640.76 1800.78 L2640.76 47.2441 L189.293 47.2441  Z
  " fill="#ffffff" fill-rule="evenodd" fill-opacity="1"/>
<defs>
  <clipPath id="clip022">
    <rect x="189" y="47" width="2452" height="1755"/>
  </clipPath>
</defs>
<polyline clip-path="url(#clip022)" style="stroke:#000000; stroke-linecap:round; stroke-linejoin:round; stroke-width:2; stroke-opacity:0.1; fill:none" points="
  258.674,1800.78 258.674,47.2441 
  "/>
<polyline clip-path="url(#clip022)" style="stroke:#000000; stroke-linecap:round; stroke-linejoin:round; stroke-width:2; stroke-opacity:0.1; fill:none" points="
  836.849,1800.78 836.849,47.2441 
  "/>
<polyline clip-path="url(#clip022)" style="stroke:#000000; stroke-linecap:round; stroke-linejoin:round; stroke-width:2; stroke-opacity:0.1; fill:none" points="
  1415.02,1800.78 1415.02,47.2441 
  "/>
<polyline clip-path="url(#clip022)" style="stroke:#000000; stroke-linecap:round; stroke-linejoin:round; stroke-width:2; stroke-opacity:0.1; fill:none" points="
  1993.2,1800.78 1993.2,47.2441 
  "/>
<polyline clip-path="url(#clip022)" style="stroke:#000000; stroke-linecap:round; stroke-linejoin:round; stroke-width:2; stroke-opacity:0.1; fill:none" points="
  2571.37,1800.78 2571.37,47.2441 
  "/>
<polyline clip-path="url(#clip020)" style="stroke:#000000; stroke-linecap:round; stroke-linejoin:round; stroke-width:4; stroke-opacity:1; fill:none" points="
  189.293,1800.78 2640.76,1800.78 
  "/>
<polyline clip-path="url(#clip020)" style="stroke:#000000; stroke-linecap:round; stroke-linejoin:round; stroke-width:4; stroke-opacity:1; fill:none" points="
  258.674,1800.78 258.674,1781.88 
  "/>
<polyline clip-path="url(#clip020)" style="stroke:#000000; stroke-linecap:round; stroke-linejoin:round; stroke-width:4; stroke-opacity:1; fill:none" points="
  836.849,1800.78 836.849,1781.88 
  "/>
<polyline clip-path="url(#clip020)" style="stroke:#000000; stroke-linecap:round; stroke-linejoin:round; stroke-width:4; stroke-opacity:1; fill:none" points="
  1415.02,1800.78 1415.02,1781.88 
  "/>
<polyline clip-path="url(#clip020)" style="stroke:#000000; stroke-linecap:round; stroke-linejoin:round; stroke-width:4; stroke-opacity:1; fill:none" points="
  1993.2,1800.78 1993.2,1781.88 
  "/>
<polyline clip-path="url(#clip020)" style="stroke:#000000; stroke-linecap:round; stroke-linejoin:round; stroke-width:4; stroke-opacity:1; fill:none" points="
  2571.37,1800.78 2571.37,1781.88 
  "/>
<path clip-path="url(#clip020)" d="M214.832 1861.55 L231.151 1861.55 L231.151 1865.48 L209.207 1865.48 L209.207 1861.55 Q211.869 1858.79 216.452 1854.16 Q221.058 1849.51 222.239 1848.17 Q224.484 1845.65 225.364 1843.91 Q226.267 1842.15 226.267 1840.46 Q226.267 1837.71 224.322 1835.97 Q222.401 1834.23 219.299 1834.23 Q217.1 1834.23 214.646 1835 Q212.216 1835.76 209.438 1837.31 L209.438 1832.59 Q212.262 1831.46 214.716 1830.88 Q217.17 1830.3 219.207 1830.3 Q224.577 1830.3 227.771 1832.98 Q230.966 1835.67 230.966 1840.16 Q230.966 1842.29 230.156 1844.21 Q229.369 1846.11 227.262 1848.7 Q226.683 1849.37 223.582 1852.59 Q220.48 1855.78 214.832 1861.55 Z" fill="#000000" fill-rule="evenodd" fill-opacity="1" /><path clip-path="url(#clip020)" d="M240.966 1859.6 L245.85 1859.6 L245.85 1865.48 L240.966 1865.48 L240.966 1859.6 Z" fill="#000000" fill-rule="evenodd" fill-opacity="1" /><path clip-path="url(#clip020)" d="M256.174 1864.77 L256.174 1860.51 Q257.933 1861.34 259.739 1861.78 Q261.544 1862.22 263.28 1862.22 Q267.91 1862.22 270.341 1859.12 Q272.794 1855.99 273.141 1849.65 Q271.799 1851.64 269.739 1852.71 Q267.678 1853.77 265.179 1853.77 Q259.993 1853.77 256.961 1850.65 Q253.952 1847.5 253.952 1842.06 Q253.952 1836.73 257.1 1833.52 Q260.248 1830.3 265.479 1830.3 Q271.475 1830.3 274.623 1834.9 Q277.794 1839.49 277.794 1848.24 Q277.794 1856.41 273.905 1861.29 Q270.04 1866.15 263.489 1866.15 Q261.729 1866.15 259.924 1865.81 Q258.118 1865.46 256.174 1864.77 M265.479 1850.11 Q268.628 1850.11 270.456 1847.96 Q272.308 1845.81 272.308 1842.06 Q272.308 1838.33 270.456 1836.18 Q268.628 1834 265.479 1834 Q262.331 1834 260.479 1836.18 Q258.651 1838.33 258.651 1842.06 Q258.651 1845.81 260.479 1847.96 Q262.331 1850.11 265.479 1850.11 Z" fill="#000000" fill-rule="evenodd" fill-opacity="1" /><path clip-path="url(#clip020)" d="M296.197 1834 Q292.586 1834 290.757 1837.57 Q288.952 1841.11 288.952 1848.24 Q288.952 1855.34 290.757 1858.91 Q292.586 1862.45 296.197 1862.45 Q299.831 1862.45 301.637 1858.91 Q303.465 1855.34 303.465 1848.24 Q303.465 1841.11 301.637 1837.57 Q299.831 1834 296.197 1834 M296.197 1830.3 Q302.007 1830.3 305.063 1834.9 Q308.141 1839.49 308.141 1848.24 Q308.141 1856.96 305.063 1861.57 Q302.007 1866.15 296.197 1866.15 Q290.387 1866.15 287.308 1861.57 Q284.252 1856.96 284.252 1848.24 Q284.252 1839.49 287.308 1834.9 Q290.387 1830.3 296.197 1830.3 Z" fill="#000000" fill-rule="evenodd" fill-opacity="1" /><path clip-path="url(#clip020)" d="M793.504 1861.55 L809.824 1861.55 L809.824 1865.48 L787.88 1865.48 L787.88 1861.55 Q790.542 1858.79 795.125 1854.16 Q799.731 1849.51 800.912 1848.17 Q803.157 1845.65 804.037 1843.91 Q804.94 1842.15 804.94 1840.46 Q804.94 1837.71 802.995 1835.97 Q801.074 1834.23 797.972 1834.23 Q795.773 1834.23 793.319 1835 Q790.889 1835.76 788.111 1837.31 L788.111 1832.59 Q790.935 1831.46 793.389 1830.88 Q795.842 1830.3 797.879 1830.3 Q803.25 1830.3 806.444 1832.98 Q809.639 1835.67 809.639 1840.16 Q809.639 1842.29 808.828 1844.21 Q808.041 1846.11 805.935 1848.7 Q805.356 1849.37 802.254 1852.59 Q799.153 1855.78 793.504 1861.55 Z" fill="#000000" fill-rule="evenodd" fill-opacity="1" /><path clip-path="url(#clip020)" d="M819.639 1859.6 L824.523 1859.6 L824.523 1865.48 L819.639 1865.48 L819.639 1859.6 Z" fill="#000000" fill-rule="evenodd" fill-opacity="1" /><path clip-path="url(#clip020)" d="M834.847 1864.77 L834.847 1860.51 Q836.606 1861.34 838.412 1861.78 Q840.217 1862.22 841.953 1862.22 Q846.583 1862.22 849.013 1859.12 Q851.467 1855.99 851.814 1849.65 Q850.472 1851.64 848.412 1852.71 Q846.351 1853.77 843.851 1853.77 Q838.666 1853.77 835.634 1850.65 Q832.625 1847.5 832.625 1842.06 Q832.625 1836.73 835.773 1833.52 Q838.921 1830.3 844.152 1830.3 Q850.148 1830.3 853.296 1834.9 Q856.467 1839.49 856.467 1848.24 Q856.467 1856.41 852.578 1861.29 Q848.713 1866.15 842.162 1866.15 Q840.402 1866.15 838.597 1865.81 Q836.791 1865.46 834.847 1864.77 M844.152 1850.11 Q847.3 1850.11 849.129 1847.96 Q850.981 1845.81 850.981 1842.06 Q850.981 1838.33 849.129 1836.18 Q847.3 1834 844.152 1834 Q841.004 1834 839.152 1836.18 Q837.324 1838.33 837.324 1842.06 Q837.324 1845.81 839.152 1847.96 Q841.004 1850.11 844.152 1850.11 Z" fill="#000000" fill-rule="evenodd" fill-opacity="1" /><path clip-path="url(#clip020)" d="M864.916 1830.92 L883.273 1830.92 L883.273 1834.86 L869.199 1834.86 L869.199 1843.33 Q870.217 1842.98 871.236 1842.82 Q872.254 1842.64 873.273 1842.64 Q879.06 1842.64 882.439 1845.81 Q885.819 1848.98 885.819 1854.4 Q885.819 1859.97 882.347 1863.08 Q878.874 1866.15 872.555 1866.15 Q870.379 1866.15 868.111 1865.78 Q865.865 1865.41 863.458 1864.67 L863.458 1859.97 Q865.541 1861.11 867.763 1861.66 Q869.986 1862.22 872.462 1862.22 Q876.467 1862.22 878.805 1860.11 Q881.143 1858.01 881.143 1854.4 Q881.143 1850.78 878.805 1848.68 Q876.467 1846.57 872.462 1846.57 Q870.587 1846.57 868.712 1846.99 Q866.861 1847.4 864.916 1848.28 L864.916 1830.92 Z" fill="#000000" fill-rule="evenodd" fill-opacity="1" /><path clip-path="url(#clip020)" d="M1381.25 1846.85 Q1384.61 1847.57 1386.48 1849.84 Q1388.38 1852.1 1388.38 1855.44 Q1388.38 1860.55 1384.86 1863.35 Q1381.34 1866.15 1374.86 1866.15 Q1372.69 1866.15 1370.37 1865.71 Q1368.08 1865.3 1365.63 1864.44 L1365.63 1859.93 Q1367.57 1861.06 1369.89 1861.64 Q1372.2 1862.22 1374.72 1862.22 Q1379.12 1862.22 1381.41 1860.48 Q1383.73 1858.75 1383.73 1855.44 Q1383.73 1852.38 1381.58 1850.67 Q1379.45 1848.93 1375.63 1848.93 L1371.6 1848.93 L1371.6 1845.09 L1375.81 1845.09 Q1379.26 1845.09 1381.09 1843.72 Q1382.92 1842.34 1382.92 1839.74 Q1382.92 1837.08 1381.02 1835.67 Q1379.14 1834.23 1375.63 1834.23 Q1373.71 1834.23 1371.51 1834.65 Q1369.31 1835.07 1366.67 1835.95 L1366.67 1831.78 Q1369.33 1831.04 1371.65 1830.67 Q1373.98 1830.3 1376.04 1830.3 Q1381.37 1830.3 1384.47 1832.73 Q1387.57 1835.14 1387.57 1839.26 Q1387.57 1842.13 1385.93 1844.12 Q1384.28 1846.09 1381.25 1846.85 Z" fill="#000000" fill-rule="evenodd" fill-opacity="1" /><path clip-path="url(#clip020)" d="M1397.25 1859.6 L1402.13 1859.6 L1402.13 1865.48 L1397.25 1865.48 L1397.25 1859.6 Z" fill="#000000" fill-rule="evenodd" fill-opacity="1" /><path clip-path="url(#clip020)" d="M1422.32 1834 Q1418.7 1834 1416.88 1837.57 Q1415.07 1841.11 1415.07 1848.24 Q1415.07 1855.34 1416.88 1858.91 Q1418.7 1862.45 1422.32 1862.45 Q1425.95 1862.45 1427.76 1858.91 Q1429.58 1855.34 1429.58 1848.24 Q1429.58 1841.11 1427.76 1837.57 Q1425.95 1834 1422.32 1834 M1422.32 1830.3 Q1428.13 1830.3 1431.18 1834.9 Q1434.26 1839.49 1434.26 1848.24 Q1434.26 1856.96 1431.18 1861.57 Q1428.13 1866.15 1422.32 1866.15 Q1416.51 1866.15 1413.43 1861.57 Q1410.37 1856.96 1410.37 1848.24 Q1410.37 1839.49 1413.43 1834.9 Q1416.51 1830.3 1422.32 1830.3 Z" fill="#000000" fill-rule="evenodd" fill-opacity="1" /><path clip-path="url(#clip020)" d="M1452.48 1834 Q1448.87 1834 1447.04 1837.57 Q1445.23 1841.11 1445.23 1848.24 Q1445.23 1855.34 1447.04 1858.91 Q1448.87 1862.45 1452.48 1862.45 Q1456.11 1862.45 1457.92 1858.91 Q1459.75 1855.34 1459.75 1848.24 Q1459.75 1841.11 1457.92 1837.57 Q1456.11 1834 1452.48 1834 M1452.48 1830.3 Q1458.29 1830.3 1461.34 1834.9 Q1464.42 1839.49 1464.42 1848.24 Q1464.42 1856.96 1461.34 1861.57 Q1458.29 1866.15 1452.48 1866.15 Q1446.67 1866.15 1443.59 1861.57 Q1440.53 1856.96 1440.53 1848.24 Q1440.53 1839.49 1443.59 1834.9 Q1446.67 1830.3 1452.48 1830.3 Z" fill="#000000" fill-rule="evenodd" fill-opacity="1" /><path clip-path="url(#clip020)" d="M1959.92 1846.85 Q1963.28 1847.57 1965.16 1849.84 Q1967.05 1852.1 1967.05 1855.44 Q1967.05 1860.55 1963.54 1863.35 Q1960.02 1866.15 1953.54 1866.15 Q1951.36 1866.15 1949.04 1865.71 Q1946.75 1865.3 1944.3 1864.44 L1944.3 1859.93 Q1946.24 1861.06 1948.56 1861.64 Q1950.87 1862.22 1953.4 1862.22 Q1957.79 1862.22 1960.09 1860.48 Q1962.4 1858.75 1962.4 1855.44 Q1962.4 1852.38 1960.25 1850.67 Q1958.12 1848.93 1954.3 1848.93 L1950.27 1848.93 L1950.27 1845.09 L1954.48 1845.09 Q1957.93 1845.09 1959.76 1843.72 Q1961.59 1842.34 1961.59 1839.74 Q1961.59 1837.08 1959.69 1835.67 Q1957.82 1834.23 1954.3 1834.23 Q1952.38 1834.23 1950.18 1834.65 Q1947.98 1835.07 1945.34 1835.95 L1945.34 1831.78 Q1948 1831.04 1950.32 1830.67 Q1952.66 1830.3 1954.72 1830.3 Q1960.04 1830.3 1963.14 1832.73 Q1966.24 1835.14 1966.24 1839.26 Q1966.24 1842.13 1964.6 1844.12 Q1962.96 1846.09 1959.92 1846.85 Z" fill="#000000" fill-rule="evenodd" fill-opacity="1" /><path clip-path="url(#clip020)" d="M1975.92 1859.6 L1980.8 1859.6 L1980.8 1865.48 L1975.92 1865.48 L1975.92 1859.6 Z" fill="#000000" fill-rule="evenodd" fill-opacity="1" /><path clip-path="url(#clip020)" d="M2000.99 1834 Q1997.38 1834 1995.55 1837.57 Q1993.74 1841.11 1993.74 1848.24 Q1993.74 1855.34 1995.55 1858.91 Q1997.38 1862.45 2000.99 1862.45 Q2004.62 1862.45 2006.43 1858.91 Q2008.26 1855.34 2008.26 1848.24 Q2008.26 1841.11 2006.43 1837.57 Q2004.62 1834 2000.99 1834 M2000.99 1830.3 Q2006.8 1830.3 2009.85 1834.9 Q2012.93 1839.49 2012.93 1848.24 Q2012.93 1856.96 2009.85 1861.57 Q2006.8 1866.15 2000.99 1866.15 Q1995.18 1866.15 1992.1 1861.57 Q1989.04 1856.96 1989.04 1848.24 Q1989.04 1839.49 1992.1 1834.9 Q1995.18 1830.3 2000.99 1830.3 Z" fill="#000000" fill-rule="evenodd" fill-opacity="1" /><path clip-path="url(#clip020)" d="M2021.2 1830.92 L2039.55 1830.92 L2039.55 1834.86 L2025.48 1834.86 L2025.48 1843.33 Q2026.5 1842.98 2027.52 1842.82 Q2028.54 1842.64 2029.55 1842.64 Q2035.34 1842.64 2038.72 1845.81 Q2042.1 1848.98 2042.1 1854.4 Q2042.1 1859.97 2038.63 1863.08 Q2035.16 1866.15 2028.84 1866.15 Q2026.66 1866.15 2024.39 1865.78 Q2022.15 1865.41 2019.74 1864.67 L2019.74 1859.97 Q2021.82 1861.11 2024.04 1861.66 Q2026.27 1862.22 2028.74 1862.22 Q2032.75 1862.22 2035.09 1860.11 Q2037.42 1858.01 2037.42 1854.4 Q2037.42 1850.78 2035.09 1848.68 Q2032.75 1846.57 2028.74 1846.57 Q2026.87 1846.57 2024.99 1846.99 Q2023.14 1847.4 2021.2 1848.28 L2021.2 1830.92 Z" fill="#000000" fill-rule="evenodd" fill-opacity="1" /><path clip-path="url(#clip020)" d="M2537.6 1846.85 Q2540.96 1847.57 2542.83 1849.84 Q2544.73 1852.1 2544.73 1855.44 Q2544.73 1860.55 2541.21 1863.35 Q2537.69 1866.15 2531.21 1866.15 Q2529.04 1866.15 2526.72 1865.71 Q2524.43 1865.3 2521.98 1864.44 L2521.98 1859.93 Q2523.92 1861.06 2526.24 1861.64 Q2528.55 1862.22 2531.07 1862.22 Q2535.47 1862.22 2537.76 1860.48 Q2540.08 1858.75 2540.08 1855.44 Q2540.08 1852.38 2537.93 1850.67 Q2535.8 1848.93 2531.98 1848.93 L2527.95 1848.93 L2527.95 1845.09 L2532.16 1845.09 Q2535.61 1845.09 2537.44 1843.72 Q2539.27 1842.34 2539.27 1839.74 Q2539.27 1837.08 2537.37 1835.67 Q2535.5 1834.23 2531.98 1834.23 Q2530.06 1834.23 2527.86 1834.65 Q2525.66 1835.07 2523.02 1835.95 L2523.02 1831.78 Q2525.68 1831.04 2528 1830.67 Q2530.33 1830.3 2532.39 1830.3 Q2537.72 1830.3 2540.82 1832.73 Q2543.92 1835.14 2543.92 1839.26 Q2543.92 1842.13 2542.28 1844.12 Q2540.63 1846.09 2537.6 1846.85 Z" fill="#000000" fill-rule="evenodd" fill-opacity="1" /><path clip-path="url(#clip020)" d="M2553.6 1859.6 L2558.48 1859.6 L2558.48 1865.48 L2553.6 1865.48 L2553.6 1859.6 Z" fill="#000000" fill-rule="evenodd" fill-opacity="1" /><path clip-path="url(#clip020)" d="M2569.48 1861.55 L2577.12 1861.55 L2577.12 1835.18 L2568.81 1836.85 L2568.81 1832.59 L2577.07 1830.92 L2581.75 1830.92 L2581.75 1861.55 L2589.38 1861.55 L2589.38 1865.48 L2569.48 1865.48 L2569.48 1861.55 Z" fill="#000000" fill-rule="evenodd" fill-opacity="1" /><path clip-path="url(#clip020)" d="M2608.83 1834 Q2605.22 1834 2603.39 1837.57 Q2601.58 1841.11 2601.58 1848.24 Q2601.58 1855.34 2603.39 1858.91 Q2605.22 1862.45 2608.83 1862.45 Q2612.46 1862.45 2614.27 1858.91 Q2616.1 1855.34 2616.1 1848.24 Q2616.1 1841.11 2614.27 1837.57 Q2612.46 1834 2608.83 1834 M2608.83 1830.3 Q2614.64 1830.3 2617.69 1834.9 Q2620.77 1839.49 2620.77 1848.24 Q2620.77 1856.96 2617.69 1861.57 Q2614.64 1866.15 2608.83 1866.15 Q2603.02 1866.15 2599.94 1861.57 Q2596.88 1856.96 2596.88 1848.24 Q2596.88 1839.49 2599.94 1834.9 Q2603.02 1830.3 2608.83 1830.3 Z" fill="#000000" fill-rule="evenodd" fill-opacity="1" /><polyline clip-path="url(#clip022)" style="stroke:#000000; stroke-linecap:round; stroke-linejoin:round; stroke-width:2; stroke-opacity:0.1; fill:none" points="
  189.293,1627.08 2640.76,1627.08 
  "/>
<polyline clip-path="url(#clip022)" style="stroke:#000000; stroke-linecap:round; stroke-linejoin:round; stroke-width:2; stroke-opacity:0.1; fill:none" points="
  189.293,1282.44 2640.76,1282.44 
  "/>
<polyline clip-path="url(#clip022)" style="stroke:#000000; stroke-linecap:round; stroke-linejoin:round; stroke-width:2; stroke-opacity:0.1; fill:none" points="
  189.293,937.797 2640.76,937.797 
  "/>
<polyline clip-path="url(#clip022)" style="stroke:#000000; stroke-linecap:round; stroke-linejoin:round; stroke-width:2; stroke-opacity:0.1; fill:none" points="
  189.293,593.156 2640.76,593.156 
  "/>
<polyline clip-path="url(#clip022)" style="stroke:#000000; stroke-linecap:round; stroke-linejoin:round; stroke-width:2; stroke-opacity:0.1; fill:none" points="
  189.293,248.515 2640.76,248.515 
  "/>
<polyline clip-path="url(#clip020)" style="stroke:#000000; stroke-linecap:round; stroke-linejoin:round; stroke-width:4; stroke-opacity:1; fill:none" points="
  189.293,1800.78 189.293,47.2441 
  "/>
<polyline clip-path="url(#clip020)" style="stroke:#000000; stroke-linecap:round; stroke-linejoin:round; stroke-width:4; stroke-opacity:1; fill:none" points="
  189.293,1627.08 208.191,1627.08 
  "/>
<polyline clip-path="url(#clip020)" style="stroke:#000000; stroke-linecap:round; stroke-linejoin:round; stroke-width:4; stroke-opacity:1; fill:none" points="
  189.293,1282.44 208.191,1282.44 
  "/>
<polyline clip-path="url(#clip020)" style="stroke:#000000; stroke-linecap:round; stroke-linejoin:round; stroke-width:4; stroke-opacity:1; fill:none" points="
  189.293,937.797 208.191,937.797 
  "/>
<polyline clip-path="url(#clip020)" style="stroke:#000000; stroke-linecap:round; stroke-linejoin:round; stroke-width:4; stroke-opacity:1; fill:none" points="
  189.293,593.156 208.191,593.156 
  "/>
<polyline clip-path="url(#clip020)" style="stroke:#000000; stroke-linecap:round; stroke-linejoin:round; stroke-width:4; stroke-opacity:1; fill:none" points="
  189.293,248.515 208.191,248.515 
  "/>
<path clip-path="url(#clip020)" d="M61.6354 1627.95 Q58.3021 1627.95 56.3808 1629.73 Q54.4827 1631.51 54.4827 1634.64 Q54.4827 1637.76 56.3808 1639.55 Q58.3021 1641.33 61.6354 1641.33 Q64.9687 1641.33 66.89 1639.55 Q68.8113 1637.74 68.8113 1634.64 Q68.8113 1631.51 66.89 1629.73 Q64.9919 1627.95 61.6354 1627.95 M56.9595 1625.96 Q53.9503 1625.22 52.2604 1623.16 Q50.5938 1621.1 50.5938 1618.13 Q50.5938 1613.99 53.5336 1611.58 Q56.4965 1609.18 61.6354 1609.18 Q66.7974 1609.18 69.7372 1611.58 Q72.677 1613.99 72.677 1618.13 Q72.677 1621.1 70.9872 1623.16 Q69.3205 1625.22 66.3344 1625.96 Q69.7141 1626.74 71.589 1629.04 Q73.4872 1631.33 73.4872 1634.64 Q73.4872 1639.66 70.4085 1642.35 Q67.353 1645.03 61.6354 1645.03 Q55.9178 1645.03 52.8391 1642.35 Q49.7836 1639.66 49.7836 1634.64 Q49.7836 1631.33 51.6817 1629.04 Q53.5799 1626.74 56.9595 1625.96 M55.2465 1618.57 Q55.2465 1621.26 56.9132 1622.76 Q58.603 1624.27 61.6354 1624.27 Q64.6446 1624.27 66.3344 1622.76 Q68.0474 1621.26 68.0474 1618.57 Q68.0474 1615.89 66.3344 1614.38 Q64.6446 1612.88 61.6354 1612.88 Q58.603 1612.88 56.9132 1614.38 Q55.2465 1615.89 55.2465 1618.57 Z" fill="#000000" fill-rule="evenodd" fill-opacity="1" /><path clip-path="url(#clip020)" d="M81.7973 1638.48 L86.6816 1638.48 L86.6816 1644.36 L81.7973 1644.36 L81.7973 1638.48 Z" fill="#000000" fill-rule="evenodd" fill-opacity="1" /><path clip-path="url(#clip020)" d="M96.913 1609.8 L115.269 1609.8 L115.269 1613.74 L101.195 1613.74 L101.195 1622.21 Q102.214 1621.86 103.232 1621.7 Q104.251 1621.51 105.269 1621.51 Q111.056 1621.51 114.436 1624.68 Q117.816 1627.86 117.816 1633.27 Q117.816 1638.85 114.343 1641.95 Q110.871 1645.03 104.552 1645.03 Q102.376 1645.03 100.107 1644.66 Q97.8621 1644.29 95.4547 1643.55 L95.4547 1638.85 Q97.538 1639.99 99.7602 1640.54 Q101.982 1641.1 104.459 1641.1 Q108.464 1641.1 110.802 1638.99 Q113.14 1636.88 113.14 1633.27 Q113.14 1629.66 110.802 1627.55 Q108.464 1625.45 104.459 1625.45 Q102.584 1625.45 100.709 1625.86 Q98.8574 1626.28 96.913 1627.16 L96.913 1609.8 Z" fill="#000000" fill-rule="evenodd" fill-opacity="1" /><path clip-path="url(#clip020)" d="M137.029 1612.88 Q133.417 1612.88 131.589 1616.44 Q129.783 1619.99 129.783 1627.11 Q129.783 1634.22 131.589 1637.79 Q133.417 1641.33 137.029 1641.33 Q140.663 1641.33 142.468 1637.79 Q144.297 1634.22 144.297 1627.11 Q144.297 1619.99 142.468 1616.44 Q140.663 1612.88 137.029 1612.88 M137.029 1609.18 Q142.839 1609.18 145.894 1613.78 Q148.973 1618.36 148.973 1627.11 Q148.973 1635.84 145.894 1640.45 Q142.839 1645.03 137.029 1645.03 Q131.218 1645.03 128.14 1640.45 Q125.084 1635.84 125.084 1627.11 Q125.084 1618.36 128.14 1613.78 Q131.218 1609.18 137.029 1609.18 Z" fill="#000000" fill-rule="evenodd" fill-opacity="1" /><path clip-path="url(#clip020)" d="M62.6308 1283.31 Q59.2974 1283.31 57.3762 1285.09 Q55.478 1286.87 55.478 1290 Q55.478 1293.12 57.3762 1294.9 Q59.2974 1296.69 62.6308 1296.69 Q65.9641 1296.69 67.8854 1294.9 Q69.8066 1293.1 69.8066 1290 Q69.8066 1286.87 67.8854 1285.09 Q65.9872 1283.31 62.6308 1283.31 M57.9549 1281.32 Q54.9456 1280.58 53.2558 1278.52 Q51.5892 1276.45 51.5892 1273.49 Q51.5892 1269.35 54.529 1266.94 Q57.4919 1264.53 62.6308 1264.53 Q67.7928 1264.53 70.7326 1266.94 Q73.6724 1269.35 73.6724 1273.49 Q73.6724 1276.45 71.9826 1278.52 Q70.3159 1280.58 67.3298 1281.32 Q70.7094 1282.1 72.5844 1284.39 Q74.4825 1286.69 74.4825 1290 Q74.4825 1295.02 71.4039 1297.7 Q68.3483 1300.39 62.6308 1300.39 Q56.9132 1300.39 53.8345 1297.7 Q50.779 1295.02 50.779 1290 Q50.779 1286.69 52.6771 1284.39 Q54.5752 1282.1 57.9549 1281.32 M56.2419 1273.93 Q56.2419 1276.62 57.9086 1278.12 Q59.5984 1279.63 62.6308 1279.63 Q65.64 1279.63 67.3298 1278.12 Q69.0428 1276.62 69.0428 1273.93 Q69.0428 1271.25 67.3298 1269.74 Q65.64 1268.24 62.6308 1268.24 Q59.5984 1268.24 57.9086 1269.74 Q56.2419 1271.25 56.2419 1273.93 Z" fill="#000000" fill-rule="evenodd" fill-opacity="1" /><path clip-path="url(#clip020)" d="M82.7927 1293.84 L87.6769 1293.84 L87.6769 1299.72 L82.7927 1299.72 L82.7927 1293.84 Z" fill="#000000" fill-rule="evenodd" fill-opacity="1" /><path clip-path="url(#clip020)" d="M96.6815 1265.16 L118.904 1265.16 L118.904 1267.15 L106.357 1299.72 L101.473 1299.72 L113.279 1269.09 L96.6815 1269.09 L96.6815 1265.16 Z" fill="#000000" fill-rule="evenodd" fill-opacity="1" /><path clip-path="url(#clip020)" d="M128.07 1265.16 L146.427 1265.16 L146.427 1269.09 L132.353 1269.09 L132.353 1277.57 Q133.371 1277.22 134.39 1277.06 Q135.408 1276.87 136.427 1276.87 Q142.214 1276.87 145.593 1280.04 Q148.973 1283.21 148.973 1288.63 Q148.973 1294.21 145.501 1297.31 Q142.028 1300.39 135.709 1300.39 Q133.533 1300.39 131.265 1300.02 Q129.019 1299.65 126.612 1298.91 L126.612 1294.21 Q128.695 1295.34 130.917 1295.9 Q133.14 1296.45 135.616 1296.45 Q139.621 1296.45 141.959 1294.35 Q144.297 1292.24 144.297 1288.63 Q144.297 1285.02 141.959 1282.91 Q139.621 1280.81 135.616 1280.81 Q133.741 1280.81 131.866 1281.22 Q130.015 1281.64 128.07 1282.52 L128.07 1265.16 Z" fill="#000000" fill-rule="evenodd" fill-opacity="1" /><path clip-path="url(#clip020)" d="M51.7743 954.36 L51.7743 950.101 Q53.5336 950.934 55.3391 951.374 Q57.1447 951.813 58.8808 951.813 Q63.5104 951.813 65.9409 948.712 Q68.3946 945.587 68.7418 939.244 Q67.3993 941.235 65.3391 942.3 Q63.2789 943.364 60.7789 943.364 Q55.5938 943.364 52.5614 940.239 Q49.5521 937.091 49.5521 931.652 Q49.5521 926.328 52.7003 923.11 Q55.8484 919.892 61.0798 919.892 Q67.0752 919.892 70.2233 924.499 Q73.3946 929.082 73.3946 937.832 Q73.3946 946.003 69.5057 950.888 Q65.64 955.749 59.0891 955.749 Q57.3299 955.749 55.5243 955.401 Q53.7188 955.054 51.7743 954.36 M61.0798 939.707 Q64.228 939.707 66.0567 937.554 Q67.9085 935.402 67.9085 931.652 Q67.9085 927.925 66.0567 925.772 Q64.228 923.596 61.0798 923.596 Q57.9317 923.596 56.0799 925.772 Q54.2512 927.925 54.2512 931.652 Q54.2512 935.402 56.0799 937.554 Q57.9317 939.707 61.0798 939.707 Z" fill="#000000" fill-rule="evenodd" fill-opacity="1" /><path clip-path="url(#clip020)" d="M81.7973 949.198 L86.6816 949.198 L86.6816 955.077 L81.7973 955.077 L81.7973 949.198 Z" fill="#000000" fill-rule="evenodd" fill-opacity="1" /><path clip-path="url(#clip020)" d="M106.867 923.596 Q103.256 923.596 101.427 927.161 Q99.6213 930.702 99.6213 937.832 Q99.6213 944.939 101.427 948.503 Q103.256 952.045 106.867 952.045 Q110.501 952.045 112.306 948.503 Q114.135 944.939 114.135 937.832 Q114.135 930.702 112.306 927.161 Q110.501 923.596 106.867 923.596 M106.867 919.892 Q112.677 919.892 115.732 924.499 Q118.811 929.082 118.811 937.832 Q118.811 946.559 115.732 951.165 Q112.677 955.749 106.867 955.749 Q101.056 955.749 97.9778 951.165 Q94.9223 946.559 94.9223 937.832 Q94.9223 929.082 97.9778 924.499 Q101.056 919.892 106.867 919.892 Z" fill="#000000" fill-rule="evenodd" fill-opacity="1" /><path clip-path="url(#clip020)" d="M137.029 923.596 Q133.417 923.596 131.589 927.161 Q129.783 930.702 129.783 937.832 Q129.783 944.939 131.589 948.503 Q133.417 952.045 137.029 952.045 Q140.663 952.045 142.468 948.503 Q144.297 944.939 144.297 937.832 Q144.297 930.702 142.468 927.161 Q140.663 923.596 137.029 923.596 M137.029 919.892 Q142.839 919.892 145.894 924.499 Q148.973 929.082 148.973 937.832 Q148.973 946.559 145.894 951.165 Q142.839 955.749 137.029 955.749 Q131.218 955.749 128.14 951.165 Q125.084 946.559 125.084 937.832 Q125.084 929.082 128.14 924.499 Q131.218 919.892 137.029 919.892 Z" fill="#000000" fill-rule="evenodd" fill-opacity="1" /><path clip-path="url(#clip020)" d="M52.7697 609.718 L52.7697 605.459 Q54.529 606.293 56.3345 606.732 Q58.14 607.172 59.8761 607.172 Q64.5057 607.172 66.9363 604.07 Q69.39 600.945 69.7372 594.603 Q68.3946 596.593 66.3344 597.658 Q64.2743 598.723 61.7743 598.723 Q56.5891 598.723 53.5567 595.598 Q50.5475 592.45 50.5475 587.01 Q50.5475 581.686 53.6956 578.469 Q56.8438 575.251 62.0752 575.251 Q68.0705 575.251 71.2187 579.857 Q74.39 584.441 74.39 593.191 Q74.39 601.362 70.5011 606.246 Q66.6354 611.107 60.0845 611.107 Q58.3252 611.107 56.5197 610.76 Q54.7141 610.413 52.7697 609.718 M62.0752 595.066 Q65.2233 595.066 67.052 592.913 Q68.9039 590.76 68.9039 587.01 Q68.9039 583.283 67.052 581.131 Q65.2233 578.955 62.0752 578.955 Q58.9271 578.955 57.0752 581.131 Q55.2465 583.283 55.2465 587.01 Q55.2465 590.76 57.0752 592.913 Q58.9271 595.066 62.0752 595.066 Z" fill="#000000" fill-rule="evenodd" fill-opacity="1" /><path clip-path="url(#clip020)" d="M82.7927 604.556 L87.6769 604.556 L87.6769 610.436 L82.7927 610.436 L82.7927 604.556 Z" fill="#000000" fill-rule="evenodd" fill-opacity="1" /><path clip-path="url(#clip020)" d="M101.89 606.501 L118.209 606.501 L118.209 610.436 L96.2648 610.436 L96.2648 606.501 Q98.9269 603.746 103.51 599.117 Q108.117 594.464 109.297 593.121 Q111.543 590.598 112.422 588.862 Q113.325 587.103 113.325 585.413 Q113.325 582.658 111.38 580.922 Q109.459 579.186 106.357 579.186 Q104.158 579.186 101.705 579.95 Q99.2741 580.714 96.4963 582.265 L96.4963 577.543 Q99.3204 576.408 101.774 575.83 Q104.228 575.251 106.265 575.251 Q111.635 575.251 114.83 577.936 Q118.024 580.621 118.024 585.112 Q118.024 587.242 117.214 589.163 Q116.427 591.061 114.32 593.654 Q113.742 594.325 110.64 597.543 Q107.538 600.737 101.89 606.501 Z" fill="#000000" fill-rule="evenodd" fill-opacity="1" /><path clip-path="url(#clip020)" d="M128.07 575.876 L146.427 575.876 L146.427 579.811 L132.353 579.811 L132.353 588.283 Q133.371 587.936 134.39 587.774 Q135.408 587.589 136.427 587.589 Q142.214 587.589 145.593 590.76 Q148.973 593.931 148.973 599.348 Q148.973 604.927 145.501 608.029 Q142.028 611.107 135.709 611.107 Q133.533 611.107 131.265 610.737 Q129.019 610.367 126.612 609.626 L126.612 604.927 Q128.695 606.061 130.917 606.617 Q133.14 607.172 135.616 607.172 Q139.621 607.172 141.959 605.066 Q144.297 602.959 144.297 599.348 Q144.297 595.737 141.959 593.631 Q139.621 591.524 135.616 591.524 Q133.741 591.524 131.866 591.941 Q130.015 592.357 128.07 593.237 L128.07 575.876 Z" fill="#000000" fill-rule="evenodd" fill-opacity="1" /><path clip-path="url(#clip020)" d="M51.7743 265.077 L51.7743 260.818 Q53.5336 261.651 55.3391 262.091 Q57.1447 262.531 58.8808 262.531 Q63.5104 262.531 65.9409 259.429 Q68.3946 256.304 68.7418 249.961 Q67.3993 251.952 65.3391 253.017 Q63.2789 254.082 60.7789 254.082 Q55.5938 254.082 52.5614 250.957 Q49.5521 247.809 49.5521 242.369 Q49.5521 237.045 52.7003 233.827 Q55.8484 230.61 61.0798 230.61 Q67.0752 230.61 70.2233 235.216 Q73.3946 239.799 73.3946 248.549 Q73.3946 256.721 69.5057 261.605 Q65.64 266.466 59.0891 266.466 Q57.3299 266.466 55.5243 266.119 Q53.7188 265.771 51.7743 265.077 M61.0798 250.424 Q64.228 250.424 66.0567 248.272 Q67.9085 246.119 67.9085 242.369 Q67.9085 238.642 66.0567 236.489 Q64.228 234.313 61.0798 234.313 Q57.9317 234.313 56.0799 236.489 Q54.2512 238.642 54.2512 242.369 Q54.2512 246.119 56.0799 248.272 Q57.9317 250.424 61.0798 250.424 Z" fill="#000000" fill-rule="evenodd" fill-opacity="1" /><path clip-path="url(#clip020)" d="M81.7973 259.915 L86.6816 259.915 L86.6816 265.795 L81.7973 265.795 L81.7973 259.915 Z" fill="#000000" fill-rule="evenodd" fill-opacity="1" /><path clip-path="url(#clip020)" d="M96.913 231.235 L115.269 231.235 L115.269 235.17 L101.195 235.17 L101.195 243.642 Q102.214 243.295 103.232 243.133 Q104.251 242.948 105.269 242.948 Q111.056 242.948 114.436 246.119 Q117.816 249.29 117.816 254.707 Q117.816 260.285 114.343 263.387 Q110.871 266.466 104.552 266.466 Q102.376 266.466 100.107 266.096 Q97.8621 265.725 95.4547 264.984 L95.4547 260.285 Q97.538 261.42 99.7602 261.975 Q101.982 262.531 104.459 262.531 Q108.464 262.531 110.802 260.424 Q113.14 258.318 113.14 254.707 Q113.14 251.096 110.802 248.989 Q108.464 246.883 104.459 246.883 Q102.584 246.883 100.709 247.299 Q98.8574 247.716 96.913 248.596 L96.913 231.235 Z" fill="#000000" fill-rule="evenodd" fill-opacity="1" /><path clip-path="url(#clip020)" d="M137.029 234.313 Q133.417 234.313 131.589 237.878 Q129.783 241.42 129.783 248.549 Q129.783 255.656 131.589 259.221 Q133.417 262.762 137.029 262.762 Q140.663 262.762 142.468 259.221 Q144.297 255.656 144.297 248.549 Q144.297 241.42 142.468 237.878 Q140.663 234.313 137.029 234.313 M137.029 230.61 Q142.839 230.61 145.894 235.216 Q148.973 239.799 148.973 248.549 Q148.973 257.276 145.894 261.883 Q142.839 266.466 137.029 266.466 Q131.218 266.466 128.14 261.883 Q125.084 257.276 125.084 248.549 Q125.084 239.799 128.14 235.216 Q131.218 230.61 137.029 230.61 Z" fill="#000000" fill-rule="evenodd" fill-opacity="1" /><circle clip-path="url(#clip022)" cx="2571.37" cy="96.8724" r="14.4" fill="#009af9" fill-rule="evenodd" fill-opacity="1" stroke="#000000" stroke-opacity="1" stroke-width="3.84"/>
<circle clip-path="url(#clip022)" cx="1993.2" cy="520.781" r="14.4" fill="#009af9" fill-rule="evenodd" fill-opacity="1" stroke="#000000" stroke-opacity="1" stroke-width="3.84"/>
<circle clip-path="url(#clip022)" cx="1800.47" cy="660.553" r="14.4" fill="#009af9" fill-rule="evenodd" fill-opacity="1" stroke="#000000" stroke-opacity="1" stroke-width="3.84"/>
<circle clip-path="url(#clip022)" cx="1704.11" cy="730.151" r="14.4" fill="#009af9" fill-rule="evenodd" fill-opacity="1" stroke="#000000" stroke-opacity="1" stroke-width="3.84"/>
<circle clip-path="url(#clip022)" cx="1646.29" cy="771.818" r="14.4" fill="#009af9" fill-rule="evenodd" fill-opacity="1" stroke="#000000" stroke-opacity="1" stroke-width="3.84"/>
<circle clip-path="url(#clip022)" cx="1607.75" cy="799.558" r="14.4" fill="#009af9" fill-rule="evenodd" fill-opacity="1" stroke="#000000" stroke-opacity="1" stroke-width="3.84"/>
<circle clip-path="url(#clip022)" cx="1580.22" cy="819.353" r="14.4" fill="#009af9" fill-rule="evenodd" fill-opacity="1" stroke="#000000" stroke-opacity="1" stroke-width="3.84"/>
<circle clip-path="url(#clip022)" cx="1559.57" cy="834.19" r="14.4" fill="#009af9" fill-rule="evenodd" fill-opacity="1" stroke="#000000" stroke-opacity="1" stroke-width="3.84"/>
<circle clip-path="url(#clip022)" cx="1543.51" cy="845.723" r="14.4" fill="#009af9" fill-rule="evenodd" fill-opacity="1" stroke="#000000" stroke-opacity="1" stroke-width="3.84"/>
<circle clip-path="url(#clip022)" cx="1530.66" cy="854.946" r="14.4" fill="#009af9" fill-rule="evenodd" fill-opacity="1" stroke="#000000" stroke-opacity="1" stroke-width="3.84"/>
<circle clip-path="url(#clip022)" cx="258.674" cy="1751.15" r="14.4" fill="#e26f46" fill-rule="evenodd" fill-opacity="1" stroke="#000000" stroke-opacity="1" stroke-width="3.84"/>
<circle clip-path="url(#clip022)" cx="836.849" cy="1347.92" r="14.4" fill="#e26f46" fill-rule="evenodd" fill-opacity="1" stroke="#000000" stroke-opacity="1" stroke-width="3.84"/>
<circle clip-path="url(#clip022)" cx="1029.57" cy="1211.98" r="14.4" fill="#e26f46" fill-rule="evenodd" fill-opacity="1" stroke="#000000" stroke-opacity="1" stroke-width="3.84"/>
<circle clip-path="url(#clip022)" cx="1125.94" cy="1143.72" r="14.4" fill="#e26f46" fill-rule="evenodd" fill-opacity="1" stroke="#000000" stroke-opacity="1" stroke-width="3.84"/>
<circle clip-path="url(#clip022)" cx="1183.75" cy="1102.67" r="14.4" fill="#e26f46" fill-rule="evenodd" fill-opacity="1" stroke="#000000" stroke-opacity="1" stroke-width="3.84"/>
<circle clip-path="url(#clip022)" cx="1222.3" cy="1075.27" r="14.4" fill="#e26f46" fill-rule="evenodd" fill-opacity="1" stroke="#000000" stroke-opacity="1" stroke-width="3.84"/>
<circle clip-path="url(#clip022)" cx="1249.83" cy="1055.68" r="14.4" fill="#e26f46" fill-rule="evenodd" fill-opacity="1" stroke="#000000" stroke-opacity="1" stroke-width="3.84"/>
<circle clip-path="url(#clip022)" cx="1270.48" cy="1040.97" r="14.4" fill="#e26f46" fill-rule="evenodd" fill-opacity="1" stroke="#000000" stroke-opacity="1" stroke-width="3.84"/>
<circle clip-path="url(#clip022)" cx="1286.54" cy="1029.53" r="14.4" fill="#e26f46" fill-rule="evenodd" fill-opacity="1" stroke="#000000" stroke-opacity="1" stroke-width="3.84"/>
<circle clip-path="url(#clip022)" cx="1299.39" cy="1020.37" r="14.4" fill="#e26f46" fill-rule="evenodd" fill-opacity="1" stroke="#000000" stroke-opacity="1" stroke-width="3.84"/>
<path clip-path="url(#clip020)" d="
M271.008 261.215 L1219.09 261.215 L1219.09 105.695 L271.008 105.695  Z
  " fill="#ffffff" fill-rule="evenodd" fill-opacity="1"/>
<polyline clip-path="url(#clip020)" style="stroke:#000000; stroke-linecap:round; stroke-linejoin:round; stroke-width:4; stroke-opacity:1; fill:none" points="
  271.008,261.215 1219.09,261.215 1219.09,105.695 271.008,105.695 271.008,261.215 
  "/>
<circle clip-path="url(#clip020)" cx="379.962" cy="157.535" r="23.04" fill="#009af9" fill-rule="evenodd" fill-opacity="1" stroke="#000000" stroke-opacity="1" stroke-width="6.144"/>
<path clip-path="url(#clip020)" d="M504.749 144.862 L498.407 162.061 L511.115 162.061 L504.749 144.862 M502.111 140.255 L507.411 140.255 L520.583 174.815 L515.722 174.815 L512.573 165.95 L496.995 165.95 L493.847 174.815 L488.916 174.815 L502.111 140.255 Z" fill="#000000" fill-rule="evenodd" fill-opacity="1" /><path clip-path="url(#clip020)" d="M529.564 170.926 L529.564 184.676 L525.282 184.676 L525.282 148.889 L529.564 148.889 L529.564 152.825 Q530.907 150.51 532.944 149.399 Q535.004 148.264 537.851 148.264 Q542.573 148.264 545.513 152.014 Q548.476 155.764 548.476 161.876 Q548.476 167.987 545.513 171.737 Q542.573 175.487 537.851 175.487 Q535.004 175.487 532.944 174.375 Q530.907 173.241 529.564 170.926 M544.055 161.876 Q544.055 157.176 542.11 154.514 Q540.189 151.829 536.809 151.829 Q533.43 151.829 531.485 154.514 Q529.564 157.176 529.564 161.876 Q529.564 166.575 531.485 169.26 Q533.43 171.922 536.809 171.922 Q540.189 171.922 542.11 169.26 Q544.055 166.575 544.055 161.876 Z" fill="#000000" fill-rule="evenodd" fill-opacity="1" /><path clip-path="url(#clip020)" d="M570.559 152.871 Q569.842 152.454 568.985 152.269 Q568.152 152.061 567.133 152.061 Q563.522 152.061 561.578 154.422 Q559.657 156.76 559.657 161.158 L559.657 174.815 L555.374 174.815 L555.374 148.889 L559.657 148.889 L559.657 152.917 Q560.999 150.556 563.152 149.422 Q565.305 148.264 568.383 148.264 Q568.823 148.264 569.356 148.334 Q569.888 148.38 570.536 148.496 L570.559 152.871 Z" fill="#000000" fill-rule="evenodd" fill-opacity="1" /><path clip-path="url(#clip020)" d="M584.031 151.876 Q580.605 151.876 578.615 154.561 Q576.624 157.223 576.624 161.876 Q576.624 166.528 578.592 169.213 Q580.582 171.875 584.031 171.875 Q587.434 171.875 589.425 169.19 Q591.416 166.505 591.416 161.876 Q591.416 157.269 589.425 154.584 Q587.434 151.876 584.031 151.876 M584.031 148.264 Q589.587 148.264 592.758 151.876 Q595.929 155.487 595.929 161.876 Q595.929 168.241 592.758 171.875 Q589.587 175.487 584.031 175.487 Q578.453 175.487 575.281 171.875 Q572.133 168.241 572.133 161.876 Q572.133 155.487 575.281 151.876 Q578.453 148.264 584.031 148.264 Z" fill="#000000" fill-rule="evenodd" fill-opacity="1" /><path clip-path="url(#clip020)" d="M623.082 148.889 L613.707 161.505 L623.568 174.815 L618.545 174.815 L610.999 164.63 L603.453 174.815 L598.429 174.815 L608.499 161.251 L599.286 148.889 L604.309 148.889 L611.184 158.126 L618.059 148.889 L623.082 148.889 Z" fill="#000000" fill-rule="evenodd" fill-opacity="1" /><path clip-path="url(#clip020)" d="M629.587 148.889 L633.846 148.889 L633.846 174.815 L629.587 174.815 L629.587 148.889 M629.587 138.797 L633.846 138.797 L633.846 144.19 L629.587 144.19 L629.587 138.797 Z" fill="#000000" fill-rule="evenodd" fill-opacity="1" /><path clip-path="url(#clip020)" d="M662.943 153.866 Q664.54 150.996 666.762 149.63 Q668.985 148.264 671.994 148.264 Q676.045 148.264 678.244 151.112 Q680.443 153.936 680.443 159.167 L680.443 174.815 L676.161 174.815 L676.161 159.306 Q676.161 155.579 674.841 153.774 Q673.522 151.968 670.813 151.968 Q667.503 151.968 665.582 154.167 Q663.661 156.366 663.661 160.163 L663.661 174.815 L659.378 174.815 L659.378 159.306 Q659.378 155.556 658.059 153.774 Q656.739 151.968 653.985 151.968 Q650.721 151.968 648.8 154.19 Q646.878 156.389 646.878 160.163 L646.878 174.815 L642.596 174.815 L642.596 148.889 L646.878 148.889 L646.878 152.917 Q648.337 150.533 650.374 149.399 Q652.411 148.264 655.212 148.264 Q658.036 148.264 660.003 149.7 Q661.994 151.135 662.943 153.866 Z" fill="#000000" fill-rule="evenodd" fill-opacity="1" /><path clip-path="url(#clip020)" d="M700.721 161.783 Q695.559 161.783 693.568 162.963 Q691.577 164.144 691.577 166.991 Q691.577 169.26 693.059 170.602 Q694.563 171.922 697.133 171.922 Q700.674 171.922 702.804 169.422 Q704.957 166.899 704.957 162.732 L704.957 161.783 L700.721 161.783 M709.216 160.024 L709.216 174.815 L704.957 174.815 L704.957 170.88 Q703.498 173.241 701.322 174.375 Q699.147 175.487 695.998 175.487 Q692.017 175.487 689.656 173.264 Q687.318 171.019 687.318 167.269 Q687.318 162.894 690.235 160.672 Q693.174 158.45 698.984 158.45 L704.957 158.45 L704.957 158.033 Q704.957 155.093 703.012 153.496 Q701.091 151.876 697.596 151.876 Q695.373 151.876 693.267 152.408 Q691.16 152.94 689.216 154.005 L689.216 150.07 Q691.554 149.167 693.753 148.727 Q695.952 148.264 698.035 148.264 Q703.66 148.264 706.438 151.181 Q709.216 154.098 709.216 160.024 Z" fill="#000000" fill-rule="evenodd" fill-opacity="1" /><path clip-path="url(#clip020)" d="M736.646 149.885 L736.646 153.866 Q734.841 152.871 733.012 152.385 Q731.207 151.876 729.355 151.876 Q725.211 151.876 722.92 154.514 Q720.628 157.13 720.628 161.876 Q720.628 166.621 722.92 169.26 Q725.211 171.875 729.355 171.875 Q731.207 171.875 733.012 171.389 Q734.841 170.88 736.646 169.885 L736.646 173.82 Q734.864 174.653 732.943 175.07 Q731.044 175.487 728.892 175.487 Q723.035 175.487 719.586 171.806 Q716.137 168.125 716.137 161.876 Q716.137 155.533 719.609 151.899 Q723.105 148.264 729.169 148.264 Q731.137 148.264 733.012 148.681 Q734.887 149.075 736.646 149.885 Z" fill="#000000" fill-rule="evenodd" fill-opacity="1" /><path clip-path="url(#clip020)" d="M744.054 148.889 L748.313 148.889 L748.313 174.815 L744.054 174.815 L744.054 148.889 M744.054 138.797 L748.313 138.797 L748.313 144.19 L744.054 144.19 L744.054 138.797 Z" fill="#000000" fill-rule="evenodd" fill-opacity="1" /><path clip-path="url(#clip020)" d="M767.271 151.876 Q763.845 151.876 761.854 154.561 Q759.864 157.223 759.864 161.876 Q759.864 166.528 761.831 169.213 Q763.822 171.875 767.271 171.875 Q770.674 171.875 772.665 169.19 Q774.655 166.505 774.655 161.876 Q774.655 157.269 772.665 154.584 Q770.674 151.876 767.271 151.876 M767.271 148.264 Q772.827 148.264 775.998 151.876 Q779.169 155.487 779.169 161.876 Q779.169 168.241 775.998 171.875 Q772.827 175.487 767.271 175.487 Q761.692 175.487 758.521 171.875 Q755.373 168.241 755.373 161.876 Q755.373 155.487 758.521 151.876 Q761.692 148.264 767.271 148.264 M770.489 136.899 L775.095 136.899 L767.549 145.602 L764.007 145.602 L770.489 136.899 Z" fill="#000000" fill-rule="evenodd" fill-opacity="1" /><path clip-path="url(#clip020)" d="M807.78 159.167 L807.78 174.815 L803.521 174.815 L803.521 159.306 Q803.521 155.626 802.086 153.797 Q800.651 151.968 797.78 151.968 Q794.331 151.968 792.34 154.167 Q790.35 156.366 790.35 160.163 L790.35 174.815 L786.067 174.815 L786.067 148.889 L790.35 148.889 L790.35 152.917 Q791.877 150.579 793.938 149.422 Q796.021 148.264 798.729 148.264 Q803.197 148.264 805.489 151.042 Q807.78 153.797 807.78 159.167 Z" fill="#000000" fill-rule="evenodd" fill-opacity="1" /><path clip-path="url(#clip020)" d="M835.465 170.926 L835.465 184.676 L831.183 184.676 L831.183 148.889 L835.465 148.889 L835.465 152.825 Q836.808 150.51 838.845 149.399 Q840.905 148.264 843.752 148.264 Q848.474 148.264 851.414 152.014 Q854.377 155.764 854.377 161.876 Q854.377 167.987 851.414 171.737 Q848.474 175.487 843.752 175.487 Q840.905 175.487 838.845 174.375 Q836.808 173.241 835.465 170.926 M849.956 161.876 Q849.956 157.176 848.011 154.514 Q846.09 151.829 842.711 151.829 Q839.331 151.829 837.387 154.514 Q835.465 157.176 835.465 161.876 Q835.465 166.575 837.387 169.26 Q839.331 171.922 842.711 171.922 Q846.09 171.922 848.011 169.26 Q849.956 166.575 849.956 161.876 Z" fill="#000000" fill-rule="evenodd" fill-opacity="1" /><path clip-path="url(#clip020)" d="M871.484 151.876 Q868.058 151.876 866.067 154.561 Q864.076 157.223 864.076 161.876 Q864.076 166.528 866.044 169.213 Q868.034 171.875 871.484 171.875 Q874.886 171.875 876.877 169.19 Q878.868 166.505 878.868 161.876 Q878.868 157.269 876.877 154.584 Q874.886 151.876 871.484 151.876 M871.484 148.264 Q877.039 148.264 880.21 151.876 Q883.382 155.487 883.382 161.876 Q883.382 168.241 880.21 171.875 Q877.039 175.487 871.484 175.487 Q865.905 175.487 862.734 171.875 Q859.585 168.241 859.585 161.876 Q859.585 155.487 862.734 151.876 Q865.905 148.264 871.484 148.264 Z" fill="#000000" fill-rule="evenodd" fill-opacity="1" /><path clip-path="url(#clip020)" d="M905.465 152.871 Q904.747 152.454 903.891 152.269 Q903.057 152.061 902.039 152.061 Q898.428 152.061 896.483 154.422 Q894.562 156.76 894.562 161.158 L894.562 174.815 L890.28 174.815 L890.28 148.889 L894.562 148.889 L894.562 152.917 Q895.905 150.556 898.057 149.422 Q900.21 148.264 903.289 148.264 Q903.729 148.264 904.261 148.334 Q904.794 148.38 905.442 148.496 L905.465 152.871 Z" fill="#000000" fill-rule="evenodd" fill-opacity="1" /><path clip-path="url(#clip020)" d="M925.002 138.797 L929.261 138.797 L929.261 174.815 L925.002 174.815 L925.002 138.797 Z" fill="#000000" fill-rule="evenodd" fill-opacity="1" /><path clip-path="url(#clip020)" d="M949.955 161.783 Q944.793 161.783 942.803 162.963 Q940.812 164.144 940.812 166.991 Q940.812 169.26 942.293 170.602 Q943.798 171.922 946.367 171.922 Q949.909 171.922 952.039 169.422 Q954.191 166.899 954.191 162.732 L954.191 161.783 L949.955 161.783 M958.451 160.024 L958.451 174.815 L954.191 174.815 L954.191 170.88 Q952.733 173.241 950.557 174.375 Q948.381 175.487 945.233 175.487 Q941.252 175.487 938.891 173.264 Q936.553 171.019 936.553 167.269 Q936.553 162.894 939.469 160.672 Q942.409 158.45 948.219 158.45 L954.191 158.45 L954.191 158.033 Q954.191 155.093 952.247 153.496 Q950.326 151.876 946.83 151.876 Q944.608 151.876 942.502 152.408 Q940.395 152.94 938.451 154.005 L938.451 150.07 Q940.789 149.167 942.988 148.727 Q945.187 148.264 947.27 148.264 Q952.895 148.264 955.673 151.181 Q958.451 154.098 958.451 160.024 Z" fill="#000000" fill-rule="evenodd" fill-opacity="1" /><path clip-path="url(#clip020)" d="M999.353 152.825 L999.353 138.797 L1003.61 138.797 L1003.61 174.815 L999.353 174.815 L999.353 170.926 Q998.011 173.241 995.95 174.375 Q993.913 175.487 991.043 175.487 Q986.344 175.487 983.381 171.737 Q980.441 167.987 980.441 161.876 Q980.441 155.764 983.381 152.014 Q986.344 148.264 991.043 148.264 Q993.913 148.264 995.95 149.399 Q998.011 150.51 999.353 152.825 M984.839 161.876 Q984.839 166.575 986.761 169.26 Q988.705 171.922 992.085 171.922 Q995.464 171.922 997.409 169.26 Q999.353 166.575 999.353 161.876 Q999.353 157.176 997.409 154.514 Q995.464 151.829 992.085 151.829 Q988.705 151.829 986.761 154.514 Q984.839 157.176 984.839 161.876 Z" fill="#000000" fill-rule="evenodd" fill-opacity="1" /><path clip-path="url(#clip020)" d="M1034.56 160.788 L1034.56 162.871 L1014.98 162.871 Q1015.26 167.269 1017.62 169.584 Q1020 171.875 1024.24 171.875 Q1026.69 171.875 1028.98 171.274 Q1031.3 170.672 1033.57 169.468 L1033.57 173.496 Q1031.27 174.468 1028.87 174.977 Q1026.46 175.487 1023.98 175.487 Q1017.78 175.487 1014.14 171.875 Q1010.53 168.264 1010.53 162.107 Q1010.53 155.741 1013.96 152.014 Q1017.41 148.264 1023.24 148.264 Q1028.47 148.264 1031.51 151.644 Q1034.56 155.001 1034.56 160.788 M1030.3 159.538 Q1030.26 156.042 1028.33 153.959 Q1026.44 151.876 1023.29 151.876 Q1019.72 151.876 1017.57 153.889 Q1015.44 155.903 1015.12 159.561 L1030.3 159.538 Z" fill="#000000" fill-rule="evenodd" fill-opacity="1" /><path clip-path="url(#clip020)" d="M1056.58 152.871 Q1055.86 152.454 1055 152.269 Q1054.17 152.061 1053.15 152.061 Q1049.54 152.061 1047.59 154.422 Q1045.67 156.76 1045.67 161.158 L1045.67 174.815 L1041.39 174.815 L1041.39 148.889 L1045.67 148.889 L1045.67 152.917 Q1047.02 150.556 1049.17 149.422 Q1051.32 148.264 1054.4 148.264 Q1054.84 148.264 1055.37 148.334 Q1055.9 148.38 1056.55 148.496 L1056.58 152.871 Z" fill="#000000" fill-rule="evenodd" fill-opacity="1" /><path clip-path="url(#clip020)" d="M1082.18 160.788 L1082.18 162.871 L1062.59 162.871 Q1062.87 167.269 1065.23 169.584 Q1067.62 171.875 1071.85 171.875 Q1074.31 171.875 1076.6 171.274 Q1078.91 170.672 1081.18 169.468 L1081.18 173.496 Q1078.89 174.468 1076.48 174.977 Q1074.08 175.487 1071.6 175.487 Q1065.39 175.487 1061.76 171.875 Q1058.15 168.264 1058.15 162.107 Q1058.15 155.741 1061.58 152.014 Q1065.02 148.264 1070.86 148.264 Q1076.09 148.264 1079.12 151.644 Q1082.18 155.001 1082.18 160.788 M1077.92 159.538 Q1077.87 156.042 1075.95 153.959 Q1074.05 151.876 1070.9 151.876 Q1067.34 151.876 1065.19 153.889 Q1063.06 155.903 1062.73 159.561 L1077.92 159.538 Z" fill="#000000" fill-rule="evenodd" fill-opacity="1" /><path clip-path="url(#clip020)" d="M1107.82 149.885 L1107.82 153.866 Q1106.02 152.871 1104.19 152.385 Q1102.39 151.876 1100.53 151.876 Q1096.39 151.876 1094.1 154.514 Q1091.81 157.13 1091.81 161.876 Q1091.81 166.621 1094.1 169.26 Q1096.39 171.875 1100.53 171.875 Q1102.39 171.875 1104.19 171.389 Q1106.02 170.88 1107.82 169.885 L1107.82 173.82 Q1106.04 174.653 1104.12 175.07 Q1102.22 175.487 1100.07 175.487 Q1094.21 175.487 1090.76 171.806 Q1087.32 168.125 1087.32 161.876 Q1087.32 155.533 1090.79 151.899 Q1094.28 148.264 1100.35 148.264 Q1102.32 148.264 1104.19 148.681 Q1106.07 149.075 1107.82 149.885 Z" fill="#000000" fill-rule="evenodd" fill-opacity="1" /><path clip-path="url(#clip020)" d="M1136.78 159.167 L1136.78 174.815 L1132.52 174.815 L1132.52 159.306 Q1132.52 155.626 1131.09 153.797 Q1129.65 151.968 1126.78 151.968 Q1123.33 151.968 1121.34 154.167 Q1119.35 156.366 1119.35 160.163 L1119.35 174.815 L1115.07 174.815 L1115.07 138.797 L1119.35 138.797 L1119.35 152.917 Q1120.88 150.579 1122.94 149.422 Q1125.02 148.264 1127.73 148.264 Q1132.2 148.264 1134.49 151.042 Q1136.78 153.797 1136.78 159.167 Z" fill="#000000" fill-rule="evenodd" fill-opacity="1" /><path clip-path="url(#clip020)" d="M1157.06 161.783 Q1151.9 161.783 1149.91 162.963 Q1147.92 164.144 1147.92 166.991 Q1147.92 169.26 1149.4 170.602 Q1150.9 171.922 1153.47 171.922 Q1157.01 171.922 1159.14 169.422 Q1161.3 166.899 1161.3 162.732 L1161.3 161.783 L1157.06 161.783 M1165.56 160.024 L1165.56 174.815 L1161.3 174.815 L1161.3 170.88 Q1159.84 173.241 1157.66 174.375 Q1155.49 175.487 1152.34 175.487 Q1148.36 175.487 1146 173.264 Q1143.66 171.019 1143.66 167.269 Q1143.66 162.894 1146.57 160.672 Q1149.51 158.45 1155.32 158.45 L1161.3 158.45 L1161.3 158.033 Q1161.3 155.093 1159.35 153.496 Q1157.43 151.876 1153.94 151.876 Q1151.71 151.876 1149.61 152.408 Q1147.5 152.94 1145.56 154.005 L1145.56 150.07 Q1147.89 149.167 1150.09 148.727 Q1152.29 148.264 1154.38 148.264 Q1160 148.264 1162.78 151.181 Q1165.56 154.098 1165.56 160.024 Z" fill="#000000" fill-rule="evenodd" fill-opacity="1" /><circle clip-path="url(#clip020)" cx="379.962" cy="209.375" r="23.04" fill="#e26f46" fill-rule="evenodd" fill-opacity="1" stroke="#000000" stroke-opacity="1" stroke-width="6.144"/>
<path clip-path="url(#clip020)" d="M504.749 196.702 L498.407 213.901 L511.115 213.901 L504.749 196.702 M502.111 192.095 L507.411 192.095 L520.583 226.655 L515.722 226.655 L512.573 217.79 L496.995 217.79 L493.847 226.655 L488.916 226.655 L502.111 192.095 Z" fill="#000000" fill-rule="evenodd" fill-opacity="1" /><path clip-path="url(#clip020)" d="M529.564 222.766 L529.564 236.516 L525.282 236.516 L525.282 200.729 L529.564 200.729 L529.564 204.665 Q530.907 202.35 532.944 201.239 Q535.004 200.104 537.851 200.104 Q542.573 200.104 545.513 203.854 Q548.476 207.604 548.476 213.716 Q548.476 219.827 545.513 223.577 Q542.573 227.327 537.851 227.327 Q535.004 227.327 532.944 226.215 Q530.907 225.081 529.564 222.766 M544.055 213.716 Q544.055 209.016 542.11 206.354 Q540.189 203.669 536.809 203.669 Q533.43 203.669 531.485 206.354 Q529.564 209.016 529.564 213.716 Q529.564 218.415 531.485 221.1 Q533.43 223.762 536.809 223.762 Q540.189 223.762 542.11 221.1 Q544.055 218.415 544.055 213.716 Z" fill="#000000" fill-rule="evenodd" fill-opacity="1" /><path clip-path="url(#clip020)" d="M570.559 204.711 Q569.842 204.294 568.985 204.109 Q568.152 203.901 567.133 203.901 Q563.522 203.901 561.578 206.262 Q559.657 208.6 559.657 212.998 L559.657 226.655 L555.374 226.655 L555.374 200.729 L559.657 200.729 L559.657 204.757 Q560.999 202.396 563.152 201.262 Q565.305 200.104 568.383 200.104 Q568.823 200.104 569.356 200.174 Q569.888 200.22 570.536 200.336 L570.559 204.711 Z" fill="#000000" fill-rule="evenodd" fill-opacity="1" /><path clip-path="url(#clip020)" d="M584.031 203.716 Q580.605 203.716 578.615 206.401 Q576.624 209.063 576.624 213.716 Q576.624 218.368 578.592 221.053 Q580.582 223.715 584.031 223.715 Q587.434 223.715 589.425 221.03 Q591.416 218.345 591.416 213.716 Q591.416 209.109 589.425 206.424 Q587.434 203.716 584.031 203.716 M584.031 200.104 Q589.587 200.104 592.758 203.716 Q595.929 207.327 595.929 213.716 Q595.929 220.081 592.758 223.715 Q589.587 227.327 584.031 227.327 Q578.453 227.327 575.281 223.715 Q572.133 220.081 572.133 213.716 Q572.133 207.327 575.281 203.716 Q578.453 200.104 584.031 200.104 Z" fill="#000000" fill-rule="evenodd" fill-opacity="1" /><path clip-path="url(#clip020)" d="M623.082 200.729 L613.707 213.345 L623.568 226.655 L618.545 226.655 L610.999 216.47 L603.453 226.655 L598.429 226.655 L608.499 213.091 L599.286 200.729 L604.309 200.729 L611.184 209.966 L618.059 200.729 L623.082 200.729 Z" fill="#000000" fill-rule="evenodd" fill-opacity="1" /><path clip-path="url(#clip020)" d="M629.587 200.729 L633.846 200.729 L633.846 226.655 L629.587 226.655 L629.587 200.729 M629.587 190.637 L633.846 190.637 L633.846 196.03 L629.587 196.03 L629.587 190.637 Z" fill="#000000" fill-rule="evenodd" fill-opacity="1" /><path clip-path="url(#clip020)" d="M662.943 205.706 Q664.54 202.836 666.762 201.47 Q668.985 200.104 671.994 200.104 Q676.045 200.104 678.244 202.952 Q680.443 205.776 680.443 211.007 L680.443 226.655 L676.161 226.655 L676.161 211.146 Q676.161 207.419 674.841 205.614 Q673.522 203.808 670.813 203.808 Q667.503 203.808 665.582 206.007 Q663.661 208.206 663.661 212.003 L663.661 226.655 L659.378 226.655 L659.378 211.146 Q659.378 207.396 658.059 205.614 Q656.739 203.808 653.985 203.808 Q650.721 203.808 648.8 206.03 Q646.878 208.229 646.878 212.003 L646.878 226.655 L642.596 226.655 L642.596 200.729 L646.878 200.729 L646.878 204.757 Q648.337 202.373 650.374 201.239 Q652.411 200.104 655.212 200.104 Q658.036 200.104 660.003 201.54 Q661.994 202.975 662.943 205.706 Z" fill="#000000" fill-rule="evenodd" fill-opacity="1" /><path clip-path="url(#clip020)" d="M700.721 213.623 Q695.559 213.623 693.568 214.803 Q691.577 215.984 691.577 218.831 Q691.577 221.1 693.059 222.442 Q694.563 223.762 697.133 223.762 Q700.674 223.762 702.804 221.262 Q704.957 218.739 704.957 214.572 L704.957 213.623 L700.721 213.623 M709.216 211.864 L709.216 226.655 L704.957 226.655 L704.957 222.72 Q703.498 225.081 701.322 226.215 Q699.147 227.327 695.998 227.327 Q692.017 227.327 689.656 225.104 Q687.318 222.859 687.318 219.109 Q687.318 214.734 690.235 212.512 Q693.174 210.29 698.984 210.29 L704.957 210.29 L704.957 209.873 Q704.957 206.933 703.012 205.336 Q701.091 203.716 697.596 203.716 Q695.373 203.716 693.267 204.248 Q691.16 204.78 689.216 205.845 L689.216 201.91 Q691.554 201.007 693.753 200.567 Q695.952 200.104 698.035 200.104 Q703.66 200.104 706.438 203.021 Q709.216 205.938 709.216 211.864 Z" fill="#000000" fill-rule="evenodd" fill-opacity="1" /><path clip-path="url(#clip020)" d="M736.646 201.725 L736.646 205.706 Q734.841 204.711 733.012 204.225 Q731.207 203.716 729.355 203.716 Q725.211 203.716 722.92 206.354 Q720.628 208.97 720.628 213.716 Q720.628 218.461 722.92 221.1 Q725.211 223.715 729.355 223.715 Q731.207 223.715 733.012 223.229 Q734.841 222.72 736.646 221.725 L736.646 225.66 Q734.864 226.493 732.943 226.91 Q731.044 227.327 728.892 227.327 Q723.035 227.327 719.586 223.646 Q716.137 219.965 716.137 213.716 Q716.137 207.373 719.609 203.739 Q723.105 200.104 729.169 200.104 Q731.137 200.104 733.012 200.521 Q734.887 200.915 736.646 201.725 Z" fill="#000000" fill-rule="evenodd" fill-opacity="1" /><path clip-path="url(#clip020)" d="M744.054 200.729 L748.313 200.729 L748.313 226.655 L744.054 226.655 L744.054 200.729 M744.054 190.637 L748.313 190.637 L748.313 196.03 L744.054 196.03 L744.054 190.637 Z" fill="#000000" fill-rule="evenodd" fill-opacity="1" /><path clip-path="url(#clip020)" d="M767.271 203.716 Q763.845 203.716 761.854 206.401 Q759.864 209.063 759.864 213.716 Q759.864 218.368 761.831 221.053 Q763.822 223.715 767.271 223.715 Q770.674 223.715 772.665 221.03 Q774.655 218.345 774.655 213.716 Q774.655 209.109 772.665 206.424 Q770.674 203.716 767.271 203.716 M767.271 200.104 Q772.827 200.104 775.998 203.716 Q779.169 207.327 779.169 213.716 Q779.169 220.081 775.998 223.715 Q772.827 227.327 767.271 227.327 Q761.692 227.327 758.521 223.715 Q755.373 220.081 755.373 213.716 Q755.373 207.327 758.521 203.716 Q761.692 200.104 767.271 200.104 M770.489 188.739 L775.095 188.739 L767.549 197.442 L764.007 197.442 L770.489 188.739 Z" fill="#000000" fill-rule="evenodd" fill-opacity="1" /><path clip-path="url(#clip020)" d="M807.78 211.007 L807.78 226.655 L803.521 226.655 L803.521 211.146 Q803.521 207.466 802.086 205.637 Q800.651 203.808 797.78 203.808 Q794.331 203.808 792.34 206.007 Q790.35 208.206 790.35 212.003 L790.35 226.655 L786.067 226.655 L786.067 200.729 L790.35 200.729 L790.35 204.757 Q791.877 202.419 793.938 201.262 Q796.021 200.104 798.729 200.104 Q803.197 200.104 805.489 202.882 Q807.78 205.637 807.78 211.007 Z" fill="#000000" fill-rule="evenodd" fill-opacity="1" /><path clip-path="url(#clip020)" d="M835.465 222.766 L835.465 236.516 L831.183 236.516 L831.183 200.729 L835.465 200.729 L835.465 204.665 Q836.808 202.35 838.845 201.239 Q840.905 200.104 843.752 200.104 Q848.474 200.104 851.414 203.854 Q854.377 207.604 854.377 213.716 Q854.377 219.827 851.414 223.577 Q848.474 227.327 843.752 227.327 Q840.905 227.327 838.845 226.215 Q836.808 225.081 835.465 222.766 M849.956 213.716 Q849.956 209.016 848.011 206.354 Q846.09 203.669 842.711 203.669 Q839.331 203.669 837.387 206.354 Q835.465 209.016 835.465 213.716 Q835.465 218.415 837.387 221.1 Q839.331 223.762 842.711 223.762 Q846.09 223.762 848.011 221.1 Q849.956 218.415 849.956 213.716 Z" fill="#000000" fill-rule="evenodd" fill-opacity="1" /><path clip-path="url(#clip020)" d="M871.484 203.716 Q868.058 203.716 866.067 206.401 Q864.076 209.063 864.076 213.716 Q864.076 218.368 866.044 221.053 Q868.034 223.715 871.484 223.715 Q874.886 223.715 876.877 221.03 Q878.868 218.345 878.868 213.716 Q878.868 209.109 876.877 206.424 Q874.886 203.716 871.484 203.716 M871.484 200.104 Q877.039 200.104 880.21 203.716 Q883.382 207.327 883.382 213.716 Q883.382 220.081 880.21 223.715 Q877.039 227.327 871.484 227.327 Q865.905 227.327 862.734 223.715 Q859.585 220.081 859.585 213.716 Q859.585 207.327 862.734 203.716 Q865.905 200.104 871.484 200.104 Z" fill="#000000" fill-rule="evenodd" fill-opacity="1" /><path clip-path="url(#clip020)" d="M905.465 204.711 Q904.747 204.294 903.891 204.109 Q903.057 203.901 902.039 203.901 Q898.428 203.901 896.483 206.262 Q894.562 208.6 894.562 212.998 L894.562 226.655 L890.28 226.655 L890.28 200.729 L894.562 200.729 L894.562 204.757 Q895.905 202.396 898.057 201.262 Q900.21 200.104 903.289 200.104 Q903.729 200.104 904.261 200.174 Q904.794 200.22 905.442 200.336 L905.465 204.711 Z" fill="#000000" fill-rule="evenodd" fill-opacity="1" /><path clip-path="url(#clip020)" d="M925.002 190.637 L929.261 190.637 L929.261 226.655 L925.002 226.655 L925.002 190.637 Z" fill="#000000" fill-rule="evenodd" fill-opacity="1" /><path clip-path="url(#clip020)" d="M949.955 213.623 Q944.793 213.623 942.803 214.803 Q940.812 215.984 940.812 218.831 Q940.812 221.1 942.293 222.442 Q943.798 223.762 946.367 223.762 Q949.909 223.762 952.039 221.262 Q954.191 218.739 954.191 214.572 L954.191 213.623 L949.955 213.623 M958.451 211.864 L958.451 226.655 L954.191 226.655 L954.191 222.72 Q952.733 225.081 950.557 226.215 Q948.381 227.327 945.233 227.327 Q941.252 227.327 938.891 225.104 Q936.553 222.859 936.553 219.109 Q936.553 214.734 939.469 212.512 Q942.409 210.29 948.219 210.29 L954.191 210.29 L954.191 209.873 Q954.191 206.933 952.247 205.336 Q950.326 203.716 946.83 203.716 Q944.608 203.716 942.502 204.248 Q940.395 204.78 938.451 205.845 L938.451 201.91 Q940.789 201.007 942.988 200.567 Q945.187 200.104 947.27 200.104 Q952.895 200.104 955.673 203.021 Q958.451 205.938 958.451 211.864 Z" fill="#000000" fill-rule="evenodd" fill-opacity="1" /><path clip-path="url(#clip020)" d="M982.293 200.729 L986.552 200.729 L986.552 226.655 L982.293 226.655 L982.293 200.729 M982.293 190.637 L986.552 190.637 L986.552 196.03 L982.293 196.03 L982.293 190.637 Z" fill="#000000" fill-rule="evenodd" fill-opacity="1" /><path clip-path="url(#clip020)" d="M993.613 200.729 L1013.84 200.729 L1013.84 204.618 L997.825 223.253 L1013.84 223.253 L1013.84 226.655 L993.034 226.655 L993.034 222.766 L1009.05 204.132 L993.613 204.132 L993.613 200.729 Z" fill="#000000" fill-rule="evenodd" fill-opacity="1" /><path clip-path="url(#clip020)" d="M1022.89 213.716 Q1022.89 218.415 1024.82 221.1 Q1026.76 223.762 1030.14 223.762 Q1033.52 223.762 1035.46 221.1 Q1037.41 218.415 1037.41 213.716 Q1037.41 209.016 1035.46 206.354 Q1033.52 203.669 1030.14 203.669 Q1026.76 203.669 1024.82 206.354 Q1022.89 209.016 1022.89 213.716 M1037.41 222.766 Q1036.07 225.081 1034.01 226.215 Q1031.97 227.327 1029.1 227.327 Q1024.4 227.327 1021.44 223.577 Q1018.5 219.827 1018.5 213.716 Q1018.5 207.604 1021.44 203.854 Q1024.4 200.104 1029.1 200.104 Q1031.97 200.104 1034.01 201.239 Q1036.07 202.35 1037.41 204.665 L1037.41 200.729 L1041.67 200.729 L1041.67 236.516 L1037.41 236.516 L1037.41 222.766 Z" fill="#000000" fill-rule="evenodd" fill-opacity="1" /><path clip-path="url(#clip020)" d="M1050 216.424 L1050 200.729 L1054.26 200.729 L1054.26 216.262 Q1054.26 219.942 1055.7 221.794 Q1057.13 223.623 1060 223.623 Q1063.45 223.623 1065.44 221.424 Q1067.45 219.225 1067.45 215.428 L1067.45 200.729 L1071.71 200.729 L1071.71 226.655 L1067.45 226.655 L1067.45 222.674 Q1065.9 225.035 1063.84 226.192 Q1061.81 227.327 1059.1 227.327 Q1054.63 227.327 1052.32 224.549 Q1050 221.771 1050 216.424 M1060.72 200.104 L1060.72 200.104 Z" fill="#000000" fill-rule="evenodd" fill-opacity="1" /><path clip-path="url(#clip020)" d="M1080.49 200.729 L1084.75 200.729 L1084.75 226.655 L1080.49 226.655 L1080.49 200.729 M1080.49 190.637 L1084.75 190.637 L1084.75 196.03 L1080.49 196.03 L1080.49 190.637 Z" fill="#000000" fill-rule="evenodd" fill-opacity="1" /><path clip-path="url(#clip020)" d="M1115.83 212.628 L1115.83 214.711 L1096.25 214.711 Q1096.53 219.109 1098.89 221.424 Q1101.27 223.715 1105.51 223.715 Q1107.96 223.715 1110.26 223.114 Q1112.57 222.512 1114.84 221.308 L1114.84 225.336 Q1112.55 226.308 1110.14 226.817 Q1107.73 227.327 1105.26 227.327 Q1099.05 227.327 1095.42 223.715 Q1091.81 220.104 1091.81 213.947 Q1091.81 207.581 1095.23 203.854 Q1098.68 200.104 1104.51 200.104 Q1109.75 200.104 1112.78 203.484 Q1115.83 206.841 1115.83 212.628 M1111.57 211.378 Q1111.53 207.882 1109.61 205.799 Q1107.71 203.716 1104.56 203.716 Q1101 203.716 1098.84 205.729 Q1096.71 207.743 1096.39 211.401 L1111.57 211.378 Z" fill="#000000" fill-rule="evenodd" fill-opacity="1" /><path clip-path="url(#clip020)" d="M1137.85 204.711 Q1137.13 204.294 1136.27 204.109 Q1135.44 203.901 1134.42 203.901 Q1130.81 203.901 1128.87 206.262 Q1126.95 208.6 1126.95 212.998 L1126.95 226.655 L1122.66 226.655 L1122.66 200.729 L1126.95 200.729 L1126.95 204.757 Q1128.29 202.396 1130.44 201.262 Q1132.59 200.104 1135.67 200.104 Q1136.11 200.104 1136.64 200.174 Q1137.18 200.22 1137.82 200.336 L1137.85 204.711 Z" fill="#000000" fill-rule="evenodd" fill-opacity="1" /><path clip-path="url(#clip020)" d="M1158.54 204.665 L1158.54 190.637 L1162.8 190.637 L1162.8 226.655 L1158.54 226.655 L1158.54 222.766 Q1157.2 225.081 1155.14 226.215 Q1153.1 227.327 1150.23 227.327 Q1145.53 227.327 1142.57 223.577 Q1139.63 219.827 1139.63 213.716 Q1139.63 207.604 1142.57 203.854 Q1145.53 200.104 1150.23 200.104 Q1153.1 200.104 1155.14 201.239 Q1157.2 202.35 1158.54 204.665 M1144.03 213.716 Q1144.03 218.415 1145.95 221.1 Q1147.89 223.762 1151.27 223.762 Q1154.65 223.762 1156.6 221.1 Q1158.54 218.415 1158.54 213.716 Q1158.54 209.016 1156.6 206.354 Q1154.65 203.669 1151.27 203.669 Q1147.89 203.669 1145.95 206.354 Q1144.03 209.016 1144.03 213.716 Z" fill="#000000" fill-rule="evenodd" fill-opacity="1" /><path clip-path="url(#clip020)" d="M1183.36 213.623 Q1178.19 213.623 1176.2 214.803 Q1174.21 215.984 1174.21 218.831 Q1174.21 221.1 1175.69 222.442 Q1177.2 223.762 1179.77 223.762 Q1183.31 223.762 1185.44 221.262 Q1187.59 218.739 1187.59 214.572 L1187.59 213.623 L1183.36 213.623 M1191.85 211.864 L1191.85 226.655 L1187.59 226.655 L1187.59 222.72 Q1186.13 225.081 1183.96 226.215 Q1181.78 227.327 1178.63 227.327 Q1174.65 227.327 1172.29 225.104 Q1169.95 222.859 1169.95 219.109 Q1169.95 214.734 1172.87 212.512 Q1175.81 210.29 1181.62 210.29 L1187.59 210.29 L1187.59 209.873 Q1187.59 206.933 1185.65 205.336 Q1183.73 203.716 1180.23 203.716 Q1178.01 203.716 1175.9 204.248 Q1173.8 204.78 1171.85 205.845 L1171.85 201.91 Q1174.19 201.007 1176.39 200.567 Q1178.59 200.104 1180.67 200.104 Q1186.3 200.104 1189.07 203.021 Q1191.85 205.938 1191.85 211.864 Z" fill="#000000" fill-rule="evenodd" fill-opacity="1" /></svg>
