<?xml version="1.0" encoding="utf-8"?>
<svg xmlns="http://www.w3.org/2000/svg" xmlns:xlink="http://www.w3.org/1999/xlink" width="672" height="480" viewBox="0 0 2688 1920">
<defs>
  <clipPath id="clip410">
    <rect x="0" y="0" width="2688" height="1920"/>
  </clipPath>
</defs>
<path clip-path="url(#clip410)" d="
M0 1920 L2688 1920 L2688 0 L0 0  Z
  " fill="#ffffff" fill-rule="evenodd" fill-opacity="1"/>
<defs>
  <clipPath id="clip411">
    <rect x="537" y="0" width="1883" height="1883"/>
  </clipPath>
</defs>
<defs>
  <clipPath id="clip412">
    <rect x="150" y="47" width="2491" height="1755"/>
  </clipPath>
</defs>
<path clip-path="url(#clip410)" d="
M150.589 1800.78 L2640.76 1800.78 L2640.76 47.2441 L150.589 47.2441  Z
  " fill="#ffffff" fill-rule="evenodd" fill-opacity="1"/>
<polyline clip-path="url(#clip412)" style="stroke:#000000; stroke-linecap:round; stroke-linejoin:round; stroke-width:2; stroke-opacity:0.1; fill:none" points="
  150.589,1800.78 150.589,47.2441 
  "/>
<polyline clip-path="url(#clip412)" style="stroke:#000000; stroke-linecap:round; stroke-linejoin:round; stroke-width:2; stroke-opacity:0.1; fill:none" points="
  316.6,1800.78 316.6,47.2441 
  "/>
<polyline clip-path="url(#clip412)" style="stroke:#000000; stroke-linecap:round; stroke-linejoin:round; stroke-width:2; stroke-opacity:0.1; fill:none" points="
  482.612,1800.78 482.612,47.2441 
  "/>
<polyline clip-path="url(#clip412)" style="stroke:#000000; stroke-linecap:round; stroke-linejoin:round; stroke-width:2; stroke-opacity:0.1; fill:none" points="
  648.623,1800.78 648.623,47.2441 
  "/>
<polyline clip-path="url(#clip412)" style="stroke:#000000; stroke-linecap:round; stroke-linejoin:round; stroke-width:2; stroke-opacity:0.1; fill:none" points="
  814.634,1800.78 814.634,47.2441 
  "/>
<polyline clip-path="url(#clip412)" style="stroke:#000000; stroke-linecap:round; stroke-linejoin:round; stroke-width:2; stroke-opacity:0.1; fill:none" points="
  980.645,1800.78 980.645,47.2441 
  "/>
<polyline clip-path="url(#clip412)" style="stroke:#000000; stroke-linecap:round; stroke-linejoin:round; stroke-width:2; stroke-opacity:0.1; fill:none" points="
  1146.66,1800.78 1146.66,47.2441 
  "/>
<polyline clip-path="url(#clip412)" style="stroke:#000000; stroke-linecap:round; stroke-linejoin:round; stroke-width:2; stroke-opacity:0.1; fill:none" points="
  1312.67,1800.78 1312.67,47.2441 
  "/>
<polyline clip-path="url(#clip412)" style="stroke:#000000; stroke-linecap:round; stroke-linejoin:round; stroke-width:2; stroke-opacity:0.1; fill:none" points="
  1478.68,1800.78 1478.68,47.2441 
  "/>
<polyline clip-path="url(#clip412)" style="stroke:#000000; stroke-linecap:round; stroke-linejoin:round; stroke-width:2; stroke-opacity:0.1; fill:none" points="
  1644.69,1800.78 1644.69,47.2441 
  "/>
<polyline clip-path="url(#clip412)" style="stroke:#000000; stroke-linecap:round; stroke-linejoin:round; stroke-width:2; stroke-opacity:0.1; fill:none" points="
  1810.7,1800.78 1810.7,47.2441 
  "/>
<polyline clip-path="url(#clip412)" style="stroke:#000000; stroke-linecap:round; stroke-linejoin:round; stroke-width:2; stroke-opacity:0.1; fill:none" points="
  1976.71,1800.78 1976.71,47.2441 
  "/>
<polyline clip-path="url(#clip412)" style="stroke:#000000; stroke-linecap:round; stroke-linejoin:round; stroke-width:2; stroke-opacity:0.1; fill:none" points="
  2142.72,1800.78 2142.72,47.2441 
  "/>
<polyline clip-path="url(#clip412)" style="stroke:#000000; stroke-linecap:round; stroke-linejoin:round; stroke-width:2; stroke-opacity:0.1; fill:none" points="
  2308.73,1800.78 2308.73,47.2441 
  "/>
<polyline clip-path="url(#clip412)" style="stroke:#000000; stroke-linecap:round; stroke-linejoin:round; stroke-width:2; stroke-opacity:0.1; fill:none" points="
  2474.74,1800.78 2474.74,47.2441 
  "/>
<polyline clip-path="url(#clip412)" style="stroke:#000000; stroke-linecap:round; stroke-linejoin:round; stroke-width:2; stroke-opacity:0.1; fill:none" points="
  2640.76,1800.78 2640.76,47.2441 
  "/>
<polyline clip-path="url(#clip410)" style="stroke:#000000; stroke-linecap:round; stroke-linejoin:round; stroke-width:4; stroke-opacity:1; fill:none" points="
  150.589,1800.78 2640.76,1800.78 
  "/>
<polyline clip-path="url(#clip410)" style="stroke:#000000; stroke-linecap:round; stroke-linejoin:round; stroke-width:4; stroke-opacity:1; fill:none" points="
  150.589,1800.78 150.589,1781.88 
  "/>
<polyline clip-path="url(#clip410)" style="stroke:#000000; stroke-linecap:round; stroke-linejoin:round; stroke-width:4; stroke-opacity:1; fill:none" points="
  316.6,1800.78 316.6,1781.88 
  "/>
<polyline clip-path="url(#clip410)" style="stroke:#000000; stroke-linecap:round; stroke-linejoin:round; stroke-width:4; stroke-opacity:1; fill:none" points="
  482.612,1800.78 482.612,1781.88 
  "/>
<polyline clip-path="url(#clip410)" style="stroke:#000000; stroke-linecap:round; stroke-linejoin:round; stroke-width:4; stroke-opacity:1; fill:none" points="
  648.623,1800.78 648.623,1781.88 
  "/>
<polyline clip-path="url(#clip410)" style="stroke:#000000; stroke-linecap:round; stroke-linejoin:round; stroke-width:4; stroke-opacity:1; fill:none" points="
  814.634,1800.78 814.634,1781.88 
  "/>
<polyline clip-path="url(#clip410)" style="stroke:#000000; stroke-linecap:round; stroke-linejoin:round; stroke-width:4; stroke-opacity:1; fill:none" points="
  980.645,1800.78 980.645,1781.88 
  "/>
<polyline clip-path="url(#clip410)" style="stroke:#000000; stroke-linecap:round; stroke-linejoin:round; stroke-width:4; stroke-opacity:1; fill:none" points="
  1146.66,1800.78 1146.66,1781.88 
  "/>
<polyline clip-path="url(#clip410)" style="stroke:#000000; stroke-linecap:round; stroke-linejoin:round; stroke-width:4; stroke-opacity:1; fill:none" points="
  1312.67,1800.78 1312.67,1781.88 
  "/>
<polyline clip-path="url(#clip410)" style="stroke:#000000; stroke-linecap:round; stroke-linejoin:round; stroke-width:4; stroke-opacity:1; fill:none" points="
  1478.68,1800.78 1478.68,1781.88 
  "/>
<polyline clip-path="url(#clip410)" style="stroke:#000000; stroke-linecap:round; stroke-linejoin:round; stroke-width:4; stroke-opacity:1; fill:none" points="
  1644.69,1800.78 1644.69,1781.88 
  "/>
<polyline clip-path="url(#clip410)" style="stroke:#000000; stroke-linecap:round; stroke-linejoin:round; stroke-width:4; stroke-opacity:1; fill:none" points="
  1810.7,1800.78 1810.7,1781.88 
  "/>
<polyline clip-path="url(#clip410)" style="stroke:#000000; stroke-linecap:round; stroke-linejoin:round; stroke-width:4; stroke-opacity:1; fill:none" points="
  1976.71,1800.78 1976.71,1781.88 
  "/>
<polyline clip-path="url(#clip410)" style="stroke:#000000; stroke-linecap:round; stroke-linejoin:round; stroke-width:4; stroke-opacity:1; fill:none" points="
  2142.72,1800.78 2142.72,1781.88 
  "/>
<polyline clip-path="url(#clip410)" style="stroke:#000000; stroke-linecap:round; stroke-linejoin:round; stroke-width:4; stroke-opacity:1; fill:none" points="
  2308.73,1800.78 2308.73,1781.88 
  "/>
<polyline clip-path="url(#clip410)" style="stroke:#000000; stroke-linecap:round; stroke-linejoin:round; stroke-width:4; stroke-opacity:1; fill:none" points="
  2474.74,1800.78 2474.74,1781.88 
  "/>
<polyline clip-path="url(#clip410)" style="stroke:#000000; stroke-linecap:round; stroke-linejoin:round; stroke-width:4; stroke-opacity:1; fill:none" points="
  2640.76,1800.78 2640.76,1781.88 
  "/>
<path clip-path="url(#clip410)" d="M120.231 1848.65 L149.907 1848.65 L149.907 1852.59 L120.231 1852.59 L120.231 1848.65 Z" fill="#000000" fill-rule="evenodd" fill-opacity="1" /><path clip-path="url(#clip410)" d="M160.045 1830.92 L178.402 1830.92 L178.402 1834.86 L164.328 1834.86 L164.328 1843.33 Q165.346 1842.98 166.365 1842.82 Q167.383 1842.64 168.402 1842.64 Q174.189 1842.64 177.568 1845.81 Q180.948 1848.98 180.948 1854.4 Q180.948 1859.97 177.476 1863.08 Q174.004 1866.15 167.684 1866.15 Q165.508 1866.15 163.24 1865.78 Q160.994 1865.41 158.587 1864.67 L158.587 1859.97 Q160.67 1861.11 162.893 1861.66 Q165.115 1862.22 167.592 1862.22 Q171.596 1862.22 173.934 1860.11 Q176.272 1858.01 176.272 1854.4 Q176.272 1850.78 173.934 1848.68 Q171.596 1846.57 167.592 1846.57 Q165.717 1846.57 163.842 1846.99 Q161.99 1847.4 160.045 1848.28 L160.045 1830.92 Z" fill="#000000" fill-rule="evenodd" fill-opacity="1" /><path clip-path="url(#clip410)" d="M285.501 1848.65 L315.177 1848.65 L315.177 1852.59 L285.501 1852.59 L285.501 1848.65 Z" fill="#000000" fill-rule="evenodd" fill-opacity="1" /><path clip-path="url(#clip410)" d="M338.117 1835 L326.311 1853.45 L338.117 1853.45 L338.117 1835 M336.89 1830.92 L342.769 1830.92 L342.769 1853.45 L347.7 1853.45 L347.7 1857.34 L342.769 1857.34 L342.769 1865.48 L338.117 1865.48 L338.117 1857.34 L322.515 1857.34 L322.515 1852.82 L336.89 1830.92 Z" fill="#000000" fill-rule="evenodd" fill-opacity="1" /><path clip-path="url(#clip410)" d="M452.079 1848.65 L481.755 1848.65 L481.755 1852.59 L452.079 1852.59 L452.079 1848.65 Z" fill="#000000" fill-rule="evenodd" fill-opacity="1" /><path clip-path="url(#clip410)" d="M506.014 1846.85 Q509.371 1847.57 511.246 1849.84 Q513.144 1852.1 513.144 1855.44 Q513.144 1860.55 509.625 1863.35 Q506.107 1866.15 499.625 1866.15 Q497.449 1866.15 495.135 1865.71 Q492.843 1865.3 490.389 1864.44 L490.389 1859.93 Q492.334 1861.06 494.649 1861.64 Q496.963 1862.22 499.487 1862.22 Q503.885 1862.22 506.176 1860.48 Q508.491 1858.75 508.491 1855.44 Q508.491 1852.38 506.338 1850.67 Q504.209 1848.93 500.389 1848.93 L496.362 1848.93 L496.362 1845.09 L500.574 1845.09 Q504.024 1845.09 505.852 1843.72 Q507.681 1842.34 507.681 1839.74 Q507.681 1837.08 505.783 1835.67 Q503.908 1834.23 500.389 1834.23 Q498.468 1834.23 496.269 1834.65 Q494.07 1835.07 491.431 1835.95 L491.431 1831.78 Q494.093 1831.04 496.408 1830.67 Q498.746 1830.3 500.806 1830.3 Q506.13 1830.3 509.232 1832.73 Q512.334 1835.14 512.334 1839.26 Q512.334 1842.13 510.69 1844.12 Q509.047 1846.09 506.014 1846.85 Z" fill="#000000" fill-rule="evenodd" fill-opacity="1" /><path clip-path="url(#clip410)" d="M618.565 1848.65 L648.241 1848.65 L648.241 1852.59 L618.565 1852.59 L618.565 1848.65 Z" fill="#000000" fill-rule="evenodd" fill-opacity="1" /><path clip-path="url(#clip410)" d="M662.361 1861.55 L678.68 1861.55 L678.68 1865.48 L656.736 1865.48 L656.736 1861.55 Q659.398 1858.79 663.981 1854.16 Q668.588 1849.51 669.768 1848.17 Q672.014 1845.65 672.893 1843.91 Q673.796 1842.15 673.796 1840.46 Q673.796 1837.71 671.852 1835.97 Q669.93 1834.23 666.829 1834.23 Q664.63 1834.23 662.176 1835 Q659.745 1835.76 656.968 1837.31 L656.968 1832.59 Q659.792 1831.46 662.245 1830.88 Q664.699 1830.3 666.736 1830.3 Q672.106 1830.3 675.301 1832.98 Q678.495 1835.67 678.495 1840.16 Q678.495 1842.29 677.685 1844.21 Q676.898 1846.11 674.792 1848.7 Q674.213 1849.37 671.111 1852.59 Q668.009 1855.78 662.361 1861.55 Z" fill="#000000" fill-rule="evenodd" fill-opacity="1" /><path clip-path="url(#clip410)" d="M784.391 1848.65 L814.067 1848.65 L814.067 1852.59 L784.391 1852.59 L784.391 1848.65 Z" fill="#000000" fill-rule="evenodd" fill-opacity="1" /><path clip-path="url(#clip410)" d="M824.969 1861.55 L832.608 1861.55 L832.608 1835.18 L824.298 1836.85 L824.298 1832.59 L832.562 1830.92 L837.238 1830.92 L837.238 1861.55 L844.877 1861.55 L844.877 1865.48 L824.969 1865.48 L824.969 1861.55 Z" fill="#000000" fill-rule="evenodd" fill-opacity="1" /><path clip-path="url(#clip410)" d="M980.645 1834 Q977.034 1834 975.205 1837.57 Q973.4 1841.11 973.4 1848.24 Q973.4 1855.34 975.205 1858.91 Q977.034 1862.45 980.645 1862.45 Q984.279 1862.45 986.085 1858.91 Q987.913 1855.34 987.913 1848.24 Q987.913 1841.11 986.085 1837.57 Q984.279 1834 980.645 1834 M980.645 1830.3 Q986.455 1830.3 989.511 1834.9 Q992.589 1839.49 992.589 1848.24 Q992.589 1856.96 989.511 1861.57 Q986.455 1866.15 980.645 1866.15 Q974.835 1866.15 971.756 1861.57 Q968.701 1856.96 968.701 1848.24 Q968.701 1839.49 971.756 1834.9 Q974.835 1830.3 980.645 1830.3 Z" fill="#000000" fill-rule="evenodd" fill-opacity="1" /><path clip-path="url(#clip410)" d="M1137.04 1861.55 L1144.68 1861.55 L1144.68 1835.18 L1136.37 1836.85 L1136.37 1832.59 L1144.63 1830.92 L1149.31 1830.92 L1149.31 1861.55 L1156.95 1861.55 L1156.95 1865.48 L1137.04 1865.48 L1137.04 1861.55 Z" fill="#000000" fill-rule="evenodd" fill-opacity="1" /><path clip-path="url(#clip410)" d="M1307.32 1861.55 L1323.64 1861.55 L1323.64 1865.48 L1301.69 1865.48 L1301.69 1861.55 Q1304.36 1858.79 1308.94 1854.16 Q1313.55 1849.51 1314.73 1848.17 Q1316.97 1845.65 1317.85 1843.91 Q1318.76 1842.15 1318.76 1840.46 Q1318.76 1837.71 1316.81 1835.97 Q1314.89 1834.23 1311.79 1834.23 Q1309.59 1834.23 1307.13 1835 Q1304.7 1835.76 1301.93 1837.31 L1301.93 1832.59 Q1304.75 1831.46 1307.2 1830.88 Q1309.66 1830.3 1311.69 1830.3 Q1317.07 1830.3 1320.26 1832.98 Q1323.45 1835.67 1323.45 1840.16 Q1323.45 1842.29 1322.64 1844.21 Q1321.86 1846.11 1319.75 1848.7 Q1319.17 1849.37 1316.07 1852.59 Q1312.97 1855.78 1307.32 1861.55 Z" fill="#000000" fill-rule="evenodd" fill-opacity="1" /><path clip-path="url(#clip410)" d="M1482.93 1846.85 Q1486.28 1847.57 1488.16 1849.84 Q1490.06 1852.1 1490.06 1855.44 Q1490.06 1860.55 1486.54 1863.35 Q1483.02 1866.15 1476.54 1866.15 Q1474.36 1866.15 1472.05 1865.71 Q1469.75 1865.3 1467.3 1864.44 L1467.3 1859.93 Q1469.25 1861.06 1471.56 1861.64 Q1473.87 1862.22 1476.4 1862.22 Q1480.8 1862.22 1483.09 1860.48 Q1485.4 1858.75 1485.4 1855.44 Q1485.4 1852.38 1483.25 1850.67 Q1481.12 1848.93 1477.3 1848.93 L1473.27 1848.93 L1473.27 1845.09 L1477.49 1845.09 Q1480.94 1845.09 1482.76 1843.72 Q1484.59 1842.34 1484.59 1839.74 Q1484.59 1837.08 1482.69 1835.67 Q1480.82 1834.23 1477.3 1834.23 Q1475.38 1834.23 1473.18 1834.65 Q1470.98 1835.07 1468.34 1835.95 L1468.34 1831.78 Q1471 1831.04 1473.32 1830.67 Q1475.66 1830.3 1477.72 1830.3 Q1483.04 1830.3 1486.14 1832.73 Q1489.25 1835.14 1489.25 1839.26 Q1489.25 1842.13 1487.6 1844.12 Q1485.96 1846.09 1482.93 1846.85 Z" fill="#000000" fill-rule="evenodd" fill-opacity="1" /><path clip-path="url(#clip410)" d="M1647.7 1835 L1635.89 1853.45 L1647.7 1853.45 L1647.7 1835 M1646.47 1830.92 L1652.35 1830.92 L1652.35 1853.45 L1657.28 1853.45 L1657.28 1857.34 L1652.35 1857.34 L1652.35 1865.48 L1647.7 1865.48 L1647.7 1857.34 L1632.1 1857.34 L1632.1 1852.82 L1646.47 1830.92 Z" fill="#000000" fill-rule="evenodd" fill-opacity="1" /><path clip-path="url(#clip410)" d="M1800.98 1830.92 L1819.33 1830.92 L1819.33 1834.86 L1805.26 1834.86 L1805.26 1843.33 Q1806.28 1842.98 1807.3 1842.82 Q1808.32 1842.64 1809.33 1842.64 Q1815.12 1842.64 1818.5 1845.81 Q1821.88 1848.98 1821.88 1854.4 Q1821.88 1859.97 1818.41 1863.08 Q1814.94 1866.15 1808.62 1866.15 Q1806.44 1866.15 1804.17 1865.78 Q1801.93 1865.41 1799.52 1864.67 L1799.52 1859.97 Q1801.6 1861.11 1803.83 1861.66 Q1806.05 1862.22 1808.52 1862.22 Q1812.53 1862.22 1814.87 1860.11 Q1817.2 1858.01 1817.2 1854.4 Q1817.2 1850.78 1814.87 1848.68 Q1812.53 1846.57 1808.52 1846.57 Q1806.65 1846.57 1804.77 1846.99 Q1802.92 1847.4 1800.98 1848.28 L1800.98 1830.92 Z" fill="#000000" fill-rule="evenodd" fill-opacity="1" /><path clip-path="url(#clip410)" d="M1977.12 1846.34 Q1973.97 1846.34 1972.12 1848.49 Q1970.29 1850.65 1970.29 1854.4 Q1970.29 1858.12 1972.12 1860.3 Q1973.97 1862.45 1977.12 1862.45 Q1980.26 1862.45 1982.09 1860.3 Q1983.95 1858.12 1983.95 1854.4 Q1983.95 1850.65 1982.09 1848.49 Q1980.26 1846.34 1977.12 1846.34 M1986.4 1831.69 L1986.4 1835.95 Q1984.64 1835.11 1982.83 1834.67 Q1981.05 1834.23 1979.29 1834.23 Q1974.66 1834.23 1972.21 1837.36 Q1969.78 1840.48 1969.43 1846.8 Q1970.8 1844.79 1972.86 1843.72 Q1974.92 1842.64 1977.39 1842.64 Q1982.6 1842.64 1985.61 1845.81 Q1988.64 1848.96 1988.64 1854.4 Q1988.64 1859.72 1985.5 1862.94 Q1982.35 1866.15 1977.12 1866.15 Q1971.12 1866.15 1967.95 1861.57 Q1964.78 1856.96 1964.78 1848.24 Q1964.78 1840.04 1968.67 1835.18 Q1972.56 1830.3 1979.11 1830.3 Q1980.87 1830.3 1982.65 1830.65 Q1984.45 1830.99 1986.4 1831.69 Z" fill="#000000" fill-rule="evenodd" fill-opacity="1" /><path clip-path="url(#clip410)" d="M2131.61 1830.92 L2153.83 1830.92 L2153.83 1832.91 L2141.29 1865.48 L2136.4 1865.48 L2148.21 1834.86 L2131.61 1834.86 L2131.61 1830.92 Z" fill="#000000" fill-rule="evenodd" fill-opacity="1" /><path clip-path="url(#clip410)" d="M2308.73 1849.07 Q2305.4 1849.07 2303.48 1850.85 Q2301.58 1852.64 2301.58 1855.76 Q2301.58 1858.89 2303.48 1860.67 Q2305.4 1862.45 2308.73 1862.45 Q2312.07 1862.45 2313.99 1860.67 Q2315.91 1858.86 2315.91 1855.76 Q2315.91 1852.64 2313.99 1850.85 Q2312.09 1849.07 2308.73 1849.07 M2304.06 1847.08 Q2301.05 1846.34 2299.36 1844.28 Q2297.69 1842.22 2297.69 1839.26 Q2297.69 1835.11 2300.63 1832.71 Q2303.59 1830.3 2308.73 1830.3 Q2313.9 1830.3 2316.84 1832.71 Q2319.78 1835.11 2319.78 1839.26 Q2319.78 1842.22 2318.09 1844.28 Q2316.42 1846.34 2313.43 1847.08 Q2316.81 1847.87 2318.69 1850.16 Q2320.59 1852.45 2320.59 1855.76 Q2320.59 1860.78 2317.51 1863.47 Q2314.45 1866.15 2308.73 1866.15 Q2303.02 1866.15 2299.94 1863.47 Q2296.88 1860.78 2296.88 1855.76 Q2296.88 1852.45 2298.78 1850.16 Q2300.68 1847.87 2304.06 1847.08 M2302.34 1839.7 Q2302.34 1842.38 2304.01 1843.89 Q2305.7 1845.39 2308.73 1845.39 Q2311.74 1845.39 2313.43 1843.89 Q2315.15 1842.38 2315.15 1839.7 Q2315.15 1837.01 2313.43 1835.51 Q2311.74 1834 2308.73 1834 Q2305.7 1834 2304.01 1835.51 Q2302.34 1837.01 2302.34 1839.7 Z" fill="#000000" fill-rule="evenodd" fill-opacity="1" /><path clip-path="url(#clip410)" d="M2465.05 1864.77 L2465.05 1860.51 Q2466.81 1861.34 2468.61 1861.78 Q2470.42 1862.22 2472.15 1862.22 Q2476.78 1862.22 2479.21 1859.12 Q2481.67 1855.99 2482.01 1849.65 Q2480.67 1851.64 2478.61 1852.71 Q2476.55 1853.77 2474.05 1853.77 Q2468.87 1853.77 2465.83 1850.65 Q2462.82 1847.5 2462.82 1842.06 Q2462.82 1836.73 2465.97 1833.52 Q2469.12 1830.3 2474.35 1830.3 Q2480.35 1830.3 2483.49 1834.9 Q2486.67 1839.49 2486.67 1848.24 Q2486.67 1856.41 2482.78 1861.29 Q2478.91 1866.15 2472.36 1866.15 Q2470.6 1866.15 2468.8 1865.81 Q2466.99 1865.46 2465.05 1864.77 M2474.35 1850.11 Q2477.5 1850.11 2479.33 1847.96 Q2481.18 1845.81 2481.18 1842.06 Q2481.18 1838.33 2479.33 1836.18 Q2477.5 1834 2474.35 1834 Q2471.2 1834 2469.35 1836.18 Q2467.52 1838.33 2467.52 1842.06 Q2467.52 1845.81 2469.35 1847.96 Q2471.2 1850.11 2474.35 1850.11 Z" fill="#000000" fill-rule="evenodd" fill-opacity="1" /><path clip-path="url(#clip410)" d="M2615.44 1861.55 L2623.08 1861.55 L2623.08 1835.18 L2614.77 1836.85 L2614.77 1832.59 L2623.04 1830.92 L2627.71 1830.92 L2627.71 1861.55 L2635.35 1861.55 L2635.35 1865.48 L2615.44 1865.48 L2615.44 1861.55 Z" fill="#000000" fill-rule="evenodd" fill-opacity="1" /><path clip-path="url(#clip410)" d="M2654.8 1834 Q2651.18 1834 2649.36 1837.57 Q2647.55 1841.11 2647.55 1848.24 Q2647.55 1855.34 2649.36 1858.91 Q2651.18 1862.45 2654.8 1862.45 Q2658.43 1862.45 2660.23 1858.91 Q2662.06 1855.34 2662.06 1848.24 Q2662.06 1841.11 2660.23 1837.57 Q2658.43 1834 2654.8 1834 M2654.8 1830.3 Q2660.61 1830.3 2663.66 1834.9 Q2666.74 1839.49 2666.74 1848.24 Q2666.74 1856.96 2663.66 1861.57 Q2660.61 1866.15 2654.8 1866.15 Q2648.99 1866.15 2645.91 1861.57 Q2642.85 1856.96 2642.85 1848.24 Q2642.85 1839.49 2645.91 1834.9 Q2648.99 1830.3 2654.8 1830.3 Z" fill="#000000" fill-rule="evenodd" fill-opacity="1" /><polyline clip-path="url(#clip412)" style="stroke:#000000; stroke-linecap:round; stroke-linejoin:round; stroke-width:2; stroke-opacity:0.1; fill:none" points="
  150.589,1800.78 2640.76,1800.78 
  "/>
<polyline clip-path="url(#clip412)" style="stroke:#000000; stroke-linecap:round; stroke-linejoin:round; stroke-width:2; stroke-opacity:0.1; fill:none" points="
  150.589,1216.27 2640.76,1216.27 
  "/>
<polyline clip-path="url(#clip412)" style="stroke:#000000; stroke-linecap:round; stroke-linejoin:round; stroke-width:2; stroke-opacity:0.1; fill:none" points="
  150.589,631.756 2640.76,631.756 
  "/>
<polyline clip-path="url(#clip412)" style="stroke:#000000; stroke-linecap:round; stroke-linejoin:round; stroke-width:2; stroke-opacity:0.1; fill:none" points="
  150.589,47.2441 2640.76,47.2441 
  "/>
<polyline clip-path="url(#clip410)" style="stroke:#000000; stroke-linecap:round; stroke-linejoin:round; stroke-width:4; stroke-opacity:1; fill:none" points="
  150.589,1800.78 150.589,47.2441 
  "/>
<polyline clip-path="url(#clip410)" style="stroke:#000000; stroke-linecap:round; stroke-linejoin:round; stroke-width:4; stroke-opacity:1; fill:none" points="
  150.589,1800.78 169.487,1800.78 
  "/>
<polyline clip-path="url(#clip410)" style="stroke:#000000; stroke-linecap:round; stroke-linejoin:round; stroke-width:4; stroke-opacity:1; fill:none" points="
  150.589,1216.27 169.487,1216.27 
  "/>
<polyline clip-path="url(#clip410)" style="stroke:#000000; stroke-linecap:round; stroke-linejoin:round; stroke-width:4; stroke-opacity:1; fill:none" points="
  150.589,631.756 169.487,631.756 
  "/>
<polyline clip-path="url(#clip410)" style="stroke:#000000; stroke-linecap:round; stroke-linejoin:round; stroke-width:4; stroke-opacity:1; fill:none" points="
  150.589,47.2441 169.487,47.2441 
  "/>
<path clip-path="url(#clip410)" d="M49.5521 1801.23 L79.2279 1801.23 L79.2279 1805.17 L49.5521 1805.17 L49.5521 1801.23 Z" fill="#000000" fill-rule="evenodd" fill-opacity="1" /><path clip-path="url(#clip410)" d="M89.3667 1783.5 L107.723 1783.5 L107.723 1787.43 L93.6491 1787.43 L93.6491 1795.91 Q94.6676 1795.56 95.6861 1795.4 Q96.7047 1795.21 97.7232 1795.21 Q103.51 1795.21 106.89 1798.38 Q110.269 1801.55 110.269 1806.97 Q110.269 1812.55 106.797 1815.65 Q103.325 1818.73 97.0056 1818.73 Q94.8297 1818.73 92.5612 1818.36 Q90.3158 1817.99 87.9084 1817.25 L87.9084 1812.55 Q89.9917 1813.68 92.2139 1814.24 Q94.4361 1814.8 96.913 1814.8 Q100.918 1814.8 103.256 1812.69 Q105.593 1810.58 105.593 1806.97 Q105.593 1803.36 103.256 1801.25 Q100.918 1799.15 96.913 1799.15 Q95.038 1799.15 93.163 1799.56 Q91.3112 1799.98 89.3667 1800.86 L89.3667 1783.5 Z" fill="#000000" fill-rule="evenodd" fill-opacity="1" /><path clip-path="url(#clip410)" d="M98.325 1202.07 Q94.7139 1202.07 92.8852 1205.63 Q91.0797 1209.17 91.0797 1216.3 Q91.0797 1223.41 92.8852 1226.97 Q94.7139 1230.52 98.325 1230.52 Q101.959 1230.52 103.765 1226.97 Q105.593 1223.41 105.593 1216.3 Q105.593 1209.17 103.765 1205.63 Q101.959 1202.07 98.325 1202.07 M98.325 1198.36 Q104.135 1198.36 107.191 1202.97 Q110.269 1207.55 110.269 1216.3 Q110.269 1225.03 107.191 1229.64 Q104.135 1234.22 98.325 1234.22 Q92.5149 1234.22 89.4362 1229.64 Q86.3806 1225.03 86.3806 1216.3 Q86.3806 1207.55 89.4362 1202.97 Q92.5149 1198.36 98.325 1198.36 Z" fill="#000000" fill-rule="evenodd" fill-opacity="1" /><path clip-path="url(#clip410)" d="M89.3667 614.476 L107.723 614.476 L107.723 618.411 L93.6491 618.411 L93.6491 626.883 Q94.6676 626.536 95.6861 626.374 Q96.7047 626.189 97.7232 626.189 Q103.51 626.189 106.89 629.36 Q110.269 632.531 110.269 637.948 Q110.269 643.527 106.797 646.628 Q103.325 649.707 97.0056 649.707 Q94.8297 649.707 92.5612 649.337 Q90.3158 648.966 87.9084 648.226 L87.9084 643.527 Q89.9917 644.661 92.2139 645.216 Q94.4361 645.772 96.913 645.772 Q100.918 645.772 103.256 643.665 Q105.593 641.559 105.593 637.948 Q105.593 634.337 103.256 632.23 Q100.918 630.124 96.913 630.124 Q95.038 630.124 93.163 630.541 Q91.3112 630.957 89.3667 631.837 L89.3667 614.476 Z" fill="#000000" fill-rule="evenodd" fill-opacity="1" /><path clip-path="url(#clip410)" d="M58.9734 60.5889 L66.6122 60.5889 L66.6122 34.2233 L58.3021 35.89 L58.3021 31.6308 L66.5659 29.9641 L71.2418 29.9641 L71.2418 60.5889 L78.8807 60.5889 L78.8807 64.5241 L58.9734 64.5241 L58.9734 60.5889 Z" fill="#000000" fill-rule="evenodd" fill-opacity="1" /><path clip-path="url(#clip410)" d="M98.325 33.0428 Q94.7139 33.0428 92.8852 36.6076 Q91.0797 40.1492 91.0797 47.2788 Q91.0797 54.3853 92.8852 57.9501 Q94.7139 61.4917 98.325 61.4917 Q101.959 61.4917 103.765 57.9501 Q105.593 54.3853 105.593 47.2788 Q105.593 40.1492 103.765 36.6076 Q101.959 33.0428 98.325 33.0428 M98.325 29.3391 Q104.135 29.3391 107.191 33.9456 Q110.269 38.5289 110.269 47.2788 Q110.269 56.0056 107.191 60.6121 Q104.135 65.1954 98.325 65.1954 Q92.5149 65.1954 89.4362 60.6121 Q86.3806 56.0056 86.3806 47.2788 Q86.3806 38.5289 89.4362 33.9456 Q92.5149 29.3391 98.325 29.3391 Z" fill="#000000" fill-rule="evenodd" fill-opacity="1" /><polyline clip-path="url(#clip412)" style="stroke:#009af9; stroke-linecap:round; stroke-linejoin:round; stroke-width:4; stroke-opacity:1; fill:none" points="
  150.589,1132.77 166.802,1133.24 316.708,1138.34 406.796,1142.21 482.964,1146.15 565.703,1151.33 641.982,1157.24 723.761,1165.27 818.51,1177.91 860.61,1185.23 
  902.711,1194.04 939.63,1203.41 976.548,1214.84 1016.8,1217.26 1057.05,1221.14 1077.3,1224.46 1097.54,1228.89 1117.79,1234.62 1138.03,1241.87 1160.41,1252.02 
  1182.8,1264.9 1205.18,1281.17 1227.57,1301.76 1248.86,1326.49 1270.16,1357.8 1280.81,1376.59 1291.46,1397.95 1302.11,1422.33 1312.76,1450.32 1323.83,1484.06 
  1334.9,1523.59 1345.97,1570.37 1357.04,1626.38 1362.58,1658.67 1368.12,1694.38 1373.65,1734.07 1379.19,1778.39 1384.73,1828.17 1390.26,1884.42 1393.03,1915.37 
  1395.8,1948.45 1398.57,1983.88 1401.33,2021.92 1405.99,2092.67 1410.65,2173.35 1412.98,2218.06 1415.31,2266.13 1417.64,2317.93 1419.97,2373.9 1422.3,2434.57 
  1424.63,2500.54 1426.96,2572.53 1429.29,2651.4 1431.62,2738.15 1433.96,2834.03 1436.29,2940.54 1438.62,3059.54 1439.78,3124.42 1440.95,3193.33 1442.11,3266.66 
  1443.28,3344.84 1444.44,3428.37 1445.61,3517.82 
  "/>
<polyline clip-path="url(#clip412)" style="stroke:#009af9; stroke-linecap:round; stroke-linejoin:round; stroke-width:4; stroke-opacity:1; fill:none" points="
  1523.55,-1096.6 1524.26,-1066.48 1525.68,-1009 1527.1,-954.923 1529.95,-855.859 1532.79,-767.315 1535.64,-687.716 1538.48,-615.785 1541.33,-550.477 1544.17,-490.93 
  1547.02,-436.424 1549.86,-386.354 1552.71,-340.21 1555.55,-297.555 1558.4,-258.016 1561.24,-221.27 1564.09,-187.04 1566.93,-155.08 1572.14,-101.732 1577.35,-54.2137 
  1582.57,-11.6473 1587.78,26.6767 1592.99,61.3387 1598.2,92.8176 1603.42,121.513 1608.63,147.758 1619.05,193.994 1629.48,233.331 1639.9,267.106 1650.32,296.332 
  1659.95,319.965 1669.58,340.872 1679.21,359.446 1688.83,376.007 1708.09,404.106 1727.34,426.804 1746.85,445.481 1766.35,460.693 1785.86,473.102 1805.36,483.209 
  1827.22,492.278 1849.08,499.369 1870.94,504.811 1892.8,508.867 1932.41,513.331 1972.03,514.838 2017.39,513.772 2062.74,510.392 2104.74,505.635 2146.74,499.617 
  2229.55,484.878 2309.95,467.819 2392.37,448.276 2482.67,425.079 2613.84,388.944 2640.76,381.251 
  "/>
<polyline clip-path="url(#clip412)" style="stroke:#e26f46; stroke-linecap:round; stroke-linejoin:round; stroke-width:4; stroke-opacity:1; fill:none" points="
  1478.68,3554.31 1478.68,-1706.29 
  "/>
<polyline clip-path="url(#clip412)" style="stroke:#3da44d; stroke-linecap:round; stroke-linejoin:round; stroke-width:4; stroke-opacity:1; fill:none" points="
  -2339.58,1099.37 5130.92,1099.37 
  "/>
<polyline clip-path="url(#clip412)" style="stroke:#c271d2; stroke-linecap:round; stroke-linejoin:round; stroke-width:4; stroke-opacity:1; fill:none" points="
  150.589,1333.17 166.802,1327.46 316.708,1274.68 406.796,1242.96 482.964,1216.14 565.703,1187.01 641.982,1160.15 723.761,1131.36 818.51,1098 902.711,1068.35 
  976.548,1042.36 1057.05,1014.01 1138.03,985.5 1227.57,953.975 1312.76,923.98 1401.33,892.793 1475.9,866.54 1566.93,834.488 1650.32,805.126 1727.34,778.008 
  1805.36,750.538 1892.8,719.752 1972.03,691.855 2062.74,659.915 2146.74,630.342 2229.55,601.186 2309.95,572.878 2392.37,543.858 2482.67,512.064 2613.84,465.878 
  2640.76,456.402 
  "/>
<path clip-path="url(#clip410)" d="
M233.595 542.545 L1135.79 542.545 L1135.79 105.695 L233.595 105.695  Z
  " fill="#ffffff" fill-rule="evenodd" fill-opacity="1"/>
<polyline clip-path="url(#clip410)" style="stroke:#000000; stroke-linecap:round; stroke-linejoin:round; stroke-width:4; stroke-opacity:1; fill:none" points="
  233.595,542.545 1135.79,542.545 1135.79,105.695 233.595,105.695 233.595,542.545 
  "/>
<polyline clip-path="url(#clip410)" style="stroke:#009af9; stroke-linecap:round; stroke-linejoin:round; stroke-width:4; stroke-opacity:1; fill:none" points="
  261.263,193.065 427.275,193.065 
  "/>
<path clip-path="url(#clip410)" d="M476.96 185.99 Q476.96 186.014 476.82 186.857 L471.479 208.148 Q471.198 209.272 470.402 210.396 Q469.629 211.544 468.388 212.528 Q467.17 213.535 465.296 214.144 Q463.445 214.776 461.314 214.776 Q457.918 214.776 456.419 214.05 Q454.943 213.348 454.943 211.849 Q454.943 210.537 455.763 209.787 Q456.583 209.061 457.52 209.061 Q458.41 209.061 458.878 209.577 Q459.346 210.092 459.346 210.748 Q459.346 211.474 458.855 212.2 Q458.363 212.949 457.379 213.231 Q458.948 213.722 461.22 213.722 Q466.022 213.722 468.083 208.64 Q468.13 208.569 468.13 208.546 L469.723 202.199 L469.652 202.152 Q469.254 202.62 468.622 203.159 Q468.013 203.674 466.701 204.307 Q465.389 204.939 464.101 204.939 Q461.408 204.939 459.557 202.878 Q457.73 200.793 457.73 197.35 Q457.73 194.844 458.738 192.338 Q459.768 189.808 461.361 187.958 Q462.977 186.084 465.038 184.913 Q467.123 183.742 469.137 183.742 Q470.542 183.742 471.737 184.585 Q472.932 185.405 473.587 186.763 Q473.704 185.639 474.337 185.17 Q474.993 184.702 475.555 184.702 Q476.187 184.702 476.562 185.053 Q476.96 185.381 476.96 185.99 M473.025 188.918 Q473.025 188.778 472.932 188.403 Q472.838 188.005 472.557 187.372 Q472.299 186.74 471.901 186.178 Q471.503 185.616 470.777 185.217 Q470.074 184.796 469.184 184.796 Q467.732 184.796 466.28 186.014 Q464.827 187.208 463.82 189.059 Q462.883 190.839 461.993 194.282 Q461.127 197.725 461.127 199.482 Q461.127 201.215 461.876 202.55 Q462.626 203.885 464.242 203.885 Q466.116 203.885 468.13 202.152 Q470.215 200.348 470.566 198.802 L472.885 189.644 Q473.025 189.082 473.025 188.918 Z" fill="#000000" fill-rule="evenodd" fill-opacity="1" /><path clip-path="url(#clip410)" d="M483.538 192.947 Q483.538 184.843 486.559 178.308 Q487.847 175.567 489.651 173.272 Q491.455 170.976 492.649 169.969 Q493.844 168.962 494.172 168.962 Q494.64 168.962 494.663 169.431 Q494.663 169.665 494.031 170.25 Q486.302 178.12 486.325 192.947 Q486.325 207.82 493.844 215.385 Q494.663 216.205 494.663 216.463 Q494.663 216.931 494.172 216.931 Q493.844 216.931 492.696 215.971 Q491.548 215.011 489.768 212.809 Q487.988 210.607 486.7 207.914 Q483.538 201.379 483.538 192.947 Z" fill="#000000" fill-rule="evenodd" fill-opacity="1" /><path clip-path="url(#clip410)" d="M522.201 186.904 Q522.201 188.215 521.381 188.965 Q520.561 189.691 519.625 189.691 Q518.734 189.691 518.266 189.176 Q517.798 188.66 517.798 188.005 Q517.798 187.115 518.453 186.342 Q519.109 185.569 520.093 185.405 Q519.133 184.796 517.704 184.796 Q516.767 184.796 515.947 185.288 Q515.151 185.779 514.659 186.412 Q514.191 187.044 513.769 187.958 Q513.371 188.848 513.207 189.387 Q513.066 189.902 512.949 190.464 L511.31 197.022 Q510.513 200.137 510.513 201.238 Q510.513 202.597 511.169 203.51 Q511.825 204.4 513.137 204.4 Q513.652 204.4 514.237 204.26 Q514.823 204.096 515.572 203.674 Q516.345 203.229 517.025 202.573 Q517.727 201.894 518.407 200.746 Q519.086 199.599 519.531 198.123 Q519.671 197.608 520.14 197.608 Q520.725 197.608 520.725 198.076 Q520.725 198.474 520.397 199.318 Q520.093 200.137 519.414 201.215 Q518.758 202.269 517.891 203.229 Q517.025 204.166 515.736 204.822 Q514.448 205.478 513.043 205.478 Q511.029 205.478 509.693 204.4 Q508.358 203.323 507.866 201.824 Q507.749 202.035 507.585 202.316 Q507.421 202.597 506.93 203.229 Q506.461 203.838 505.922 204.307 Q505.384 204.752 504.54 205.103 Q503.721 205.478 502.831 205.478 Q501.706 205.478 500.699 205.15 Q499.715 204.822 499.013 204.072 Q498.31 203.323 498.31 202.292 Q498.31 201.145 499.083 200.348 Q499.879 199.528 500.957 199.528 Q501.636 199.528 502.175 199.927 Q502.737 200.325 502.737 201.191 Q502.737 202.152 502.081 202.878 Q501.425 203.604 500.488 203.791 Q501.449 204.4 502.878 204.4 Q504.423 204.4 505.641 203.042 Q506.859 201.683 507.445 199.411 Q508.897 193.954 509.459 191.518 Q510.021 189.059 510.021 188.005 Q510.021 187.021 509.764 186.342 Q509.506 185.662 509.061 185.358 Q508.639 185.03 508.241 184.913 Q507.866 184.796 507.445 184.796 Q506.742 184.796 505.946 185.077 Q505.173 185.358 504.236 186.014 Q503.323 186.646 502.456 187.958 Q501.589 189.269 501.004 191.073 Q500.887 191.612 500.371 191.612 Q499.809 191.588 499.809 191.12 Q499.809 190.722 500.114 189.902 Q500.442 189.059 501.097 188.005 Q501.777 186.951 502.643 186.014 Q503.533 185.053 504.822 184.398 Q506.133 183.742 507.539 183.742 Q508.171 183.742 508.78 183.882 Q509.412 183.999 510.162 184.351 Q510.935 184.702 511.614 185.475 Q512.293 186.248 512.715 187.372 Q512.996 186.833 513.371 186.318 Q513.769 185.803 514.378 185.17 Q515.01 184.515 515.877 184.14 Q516.767 183.742 517.751 183.742 Q518.711 183.742 519.648 183.999 Q520.585 184.234 521.381 185.007 Q522.201 185.756 522.201 186.904 Z" fill="#000000" fill-rule="evenodd" fill-opacity="1" /><path clip-path="url(#clip410)" d="M526.821 216.463 Q526.821 216.229 527.43 215.643 Q535.159 207.773 535.159 192.947 Q535.159 178.073 527.734 170.555 Q526.821 169.688 526.821 169.431 Q526.821 168.962 527.289 168.962 Q527.617 168.962 528.765 169.922 Q529.936 170.883 531.693 173.084 Q533.473 175.286 534.784 177.98 Q537.946 184.515 537.946 192.947 Q537.946 201.051 534.925 207.586 Q533.637 210.326 531.833 212.622 Q530.03 214.917 528.835 215.924 Q527.64 216.931 527.289 216.931 Q526.821 216.931 526.821 216.463 Z" fill="#000000" fill-rule="evenodd" fill-opacity="1" /><polyline clip-path="url(#clip410)" style="stroke:#e26f46; stroke-linecap:round; stroke-linejoin:round; stroke-width:4; stroke-opacity:1; fill:none" points="
  261.263,280.435 427.275,280.435 
  "/>
<path clip-path="url(#clip410)" d="M470.776 265.777 L464.434 282.976 L477.142 282.976 L470.776 265.777 M468.137 261.17 L473.438 261.17 L486.61 295.73 L481.748 295.73 L478.6 286.865 L463.022 286.865 L459.874 295.73 L454.943 295.73 L468.137 261.17 Z" fill="#000000" fill-rule="evenodd" fill-opacity="1" /><path clip-path="url(#clip410)" d="M507.998 270.568 L507.998 274.596 Q506.193 273.67 504.248 273.207 Q502.304 272.744 500.221 272.744 Q497.049 272.744 495.452 273.716 Q493.878 274.689 493.878 276.633 Q493.878 278.115 495.012 278.971 Q496.147 279.804 499.572 280.568 L501.031 280.892 Q505.568 281.865 507.466 283.647 Q509.387 285.406 509.387 288.578 Q509.387 292.189 506.517 294.295 Q503.67 296.402 498.67 296.402 Q496.586 296.402 494.318 295.985 Q492.073 295.591 489.573 294.781 L489.573 290.383 Q491.934 291.61 494.225 292.235 Q496.517 292.837 498.762 292.837 Q501.772 292.837 503.392 291.818 Q505.012 290.777 505.012 288.902 Q505.012 287.165 503.832 286.24 Q502.674 285.314 498.716 284.457 L497.235 284.11 Q493.276 283.277 491.517 281.564 Q489.758 279.828 489.758 276.818 Q489.758 273.161 492.35 271.17 Q494.943 269.179 499.711 269.179 Q502.072 269.179 504.156 269.527 Q506.239 269.874 507.998 270.568 Z" fill="#000000" fill-rule="evenodd" fill-opacity="1" /><path clip-path="url(#clip410)" d="M521.517 257.814 L526.123 257.814 L518.577 266.517 L515.035 266.517 L521.517 257.814 M516.17 269.804 L520.429 269.804 L520.429 295.73 L516.17 295.73 L516.17 269.804 M518.299 269.179 L518.299 269.179 Z" fill="#000000" fill-rule="evenodd" fill-opacity="1" /><path clip-path="url(#clip410)" d="M550.892 280.082 L550.892 295.73 L546.632 295.73 L546.632 280.221 Q546.632 276.541 545.197 274.712 Q543.762 272.883 540.892 272.883 Q537.443 272.883 535.452 275.082 Q533.461 277.281 533.461 281.078 L533.461 295.73 L529.179 295.73 L529.179 269.804 L533.461 269.804 L533.461 273.832 Q534.989 271.494 537.049 270.337 Q539.132 269.179 541.841 269.179 Q546.308 269.179 548.6 271.957 Q550.892 274.712 550.892 280.082 Z" fill="#000000" fill-rule="evenodd" fill-opacity="1" /><path clip-path="url(#clip410)" d="M563.6 262.443 L563.6 269.804 L572.373 269.804 L572.373 273.115 L563.6 273.115 L563.6 287.189 Q563.6 290.36 564.456 291.263 Q565.336 292.165 567.998 292.165 L572.373 292.165 L572.373 295.73 L567.998 295.73 Q563.067 295.73 561.193 293.902 Q559.318 292.05 559.318 287.189 L559.318 273.115 L556.193 273.115 L556.193 269.804 L559.318 269.804 L559.318 262.443 L563.6 262.443 Z" fill="#000000" fill-rule="evenodd" fill-opacity="1" /><path clip-path="url(#clip410)" d="M588.021 272.791 Q584.595 272.791 582.604 275.476 Q580.614 278.138 580.614 282.791 Q580.614 287.443 582.581 290.128 Q584.572 292.79 588.021 292.79 Q591.424 292.79 593.415 290.105 Q595.405 287.42 595.405 282.791 Q595.405 278.184 593.415 275.499 Q591.424 272.791 588.021 272.791 M588.021 269.179 Q593.577 269.179 596.748 272.791 Q599.919 276.402 599.919 282.791 Q599.919 289.156 596.748 292.79 Q593.577 296.402 588.021 296.402 Q582.442 296.402 579.271 292.79 Q576.123 289.156 576.123 282.791 Q576.123 276.402 579.271 272.791 Q582.442 269.179 588.021 269.179 Z" fill="#000000" fill-rule="evenodd" fill-opacity="1" /><path clip-path="url(#clip410)" d="M611.192 262.443 L611.192 269.804 L619.965 269.804 L619.965 273.115 L611.192 273.115 L611.192 287.189 Q611.192 290.36 612.049 291.263 Q612.928 292.165 615.59 292.165 L619.965 292.165 L619.965 295.73 L615.59 295.73 Q610.66 295.73 608.785 293.902 Q606.91 292.05 606.91 287.189 L606.91 273.115 L603.785 273.115 L603.785 269.804 L606.91 269.804 L606.91 262.443 L611.192 262.443 Z" fill="#000000" fill-rule="evenodd" fill-opacity="1" /><path clip-path="url(#clip410)" d="M637.35 282.698 Q632.187 282.698 630.197 283.878 Q628.206 285.059 628.206 287.906 Q628.206 290.175 629.688 291.517 Q631.192 292.837 633.762 292.837 Q637.303 292.837 639.433 290.337 Q641.586 287.814 641.586 283.647 L641.586 282.698 L637.35 282.698 M645.845 280.939 L645.845 295.73 L641.586 295.73 L641.586 291.795 Q640.127 294.156 637.951 295.29 Q635.775 296.402 632.627 296.402 Q628.646 296.402 626.285 294.179 Q623.947 291.934 623.947 288.184 Q623.947 283.809 626.863 281.587 Q629.803 279.365 635.613 279.365 L641.586 279.365 L641.586 278.948 Q641.586 276.008 639.641 274.411 Q637.72 272.791 634.225 272.791 Q632.002 272.791 629.896 273.323 Q627.789 273.855 625.845 274.92 L625.845 270.985 Q628.183 270.082 630.382 269.642 Q632.581 269.179 634.664 269.179 Q640.289 269.179 643.067 272.096 Q645.845 275.013 645.845 280.939 Z" fill="#000000" fill-rule="evenodd" fill-opacity="1" /><path clip-path="url(#clip410)" d="M666.632 269.804 L671.146 269.804 L679.247 291.564 L687.349 269.804 L691.863 269.804 L682.141 295.73 L676.354 295.73 L666.632 269.804 Z" fill="#000000" fill-rule="evenodd" fill-opacity="1" /><path clip-path="url(#clip410)" d="M719.919 281.703 L719.919 283.786 L700.335 283.786 Q700.613 288.184 702.974 290.499 Q705.358 292.79 709.594 292.79 Q712.048 292.79 714.34 292.189 Q716.655 291.587 718.923 290.383 L718.923 294.411 Q716.631 295.383 714.224 295.892 Q711.817 296.402 709.34 296.402 Q703.136 296.402 699.502 292.79 Q695.891 289.179 695.891 283.022 Q695.891 276.656 699.317 272.929 Q702.766 269.179 708.599 269.179 Q713.831 269.179 716.863 272.559 Q719.919 275.916 719.919 281.703 M715.659 280.453 Q715.613 276.957 713.692 274.874 Q711.794 272.791 708.645 272.791 Q705.081 272.791 702.928 274.804 Q700.798 276.818 700.474 280.476 L715.659 280.453 Z" fill="#000000" fill-rule="evenodd" fill-opacity="1" /><path clip-path="url(#clip410)" d="M741.932 273.786 Q741.215 273.369 740.358 273.184 Q739.525 272.976 738.506 272.976 Q734.895 272.976 732.951 275.337 Q731.03 277.675 731.03 282.073 L731.03 295.73 L726.747 295.73 L726.747 269.804 L731.03 269.804 L731.03 273.832 Q732.372 271.471 734.525 270.337 Q736.678 269.179 739.756 269.179 Q740.196 269.179 740.729 269.249 Q741.261 269.295 741.909 269.411 L741.932 273.786 Z" fill="#000000" fill-rule="evenodd" fill-opacity="1" /><path clip-path="url(#clip410)" d="M750.613 262.443 L750.613 269.804 L759.386 269.804 L759.386 273.115 L750.613 273.115 L750.613 287.189 Q750.613 290.36 751.469 291.263 Q752.349 292.165 755.011 292.165 L759.386 292.165 L759.386 295.73 L755.011 295.73 Q750.08 295.73 748.205 293.902 Q746.33 292.05 746.33 287.189 L746.33 273.115 L743.205 273.115 L743.205 269.804 L746.33 269.804 L746.33 262.443 L750.613 262.443 Z" fill="#000000" fill-rule="evenodd" fill-opacity="1" /><path clip-path="url(#clip410)" d="M764.988 269.804 L769.247 269.804 L769.247 295.73 L764.988 295.73 L764.988 269.804 M764.988 259.712 L769.247 259.712 L769.247 265.105 L764.988 265.105 L764.988 259.712 Z" fill="#000000" fill-rule="evenodd" fill-opacity="1" /><path clip-path="url(#clip410)" d="M796.816 270.8 L796.816 274.781 Q795.011 273.786 793.182 273.3 Q791.376 272.791 789.525 272.791 Q785.381 272.791 783.089 275.429 Q780.798 278.045 780.798 282.791 Q780.798 287.536 783.089 290.175 Q785.381 292.79 789.525 292.79 Q791.376 292.79 793.182 292.304 Q795.011 291.795 796.816 290.8 L796.816 294.735 Q795.034 295.568 793.113 295.985 Q791.214 296.402 789.062 296.402 Q783.205 296.402 779.756 292.721 Q776.307 289.04 776.307 282.791 Q776.307 276.448 779.779 272.814 Q783.275 269.179 789.339 269.179 Q791.307 269.179 793.182 269.596 Q795.057 269.99 796.816 270.8 Z" fill="#000000" fill-rule="evenodd" fill-opacity="1" /><path clip-path="url(#clip410)" d="M816.006 282.698 Q810.844 282.698 808.853 283.878 Q806.862 285.059 806.862 287.906 Q806.862 290.175 808.344 291.517 Q809.849 292.837 812.418 292.837 Q815.96 292.837 818.089 290.337 Q820.242 287.814 820.242 283.647 L820.242 282.698 L816.006 282.698 M824.501 280.939 L824.501 295.73 L820.242 295.73 L820.242 291.795 Q818.784 294.156 816.608 295.29 Q814.432 296.402 811.284 296.402 Q807.302 296.402 804.941 294.179 Q802.603 291.934 802.603 288.184 Q802.603 283.809 805.52 281.587 Q808.46 279.365 814.27 279.365 L820.242 279.365 L820.242 278.948 Q820.242 276.008 818.298 274.411 Q816.376 272.791 812.881 272.791 Q810.659 272.791 808.552 273.323 Q806.446 273.855 804.501 274.92 L804.501 270.985 Q806.839 270.082 809.038 269.642 Q811.237 269.179 813.321 269.179 Q818.946 269.179 821.724 272.096 Q824.501 275.013 824.501 280.939 Z" fill="#000000" fill-rule="evenodd" fill-opacity="1" /><path clip-path="url(#clip410)" d="M833.274 259.712 L837.534 259.712 L837.534 295.73 L833.274 295.73 L833.274 259.712 Z" fill="#000000" fill-rule="evenodd" fill-opacity="1" /><path clip-path="url(#clip410)" d="M880.938 277.695 Q880.938 279.007 880.119 279.756 Q879.299 280.482 878.362 280.482 Q877.472 280.482 877.003 279.967 Q876.535 279.452 876.535 278.796 Q876.535 277.906 877.191 277.133 Q877.847 276.36 878.83 276.196 Q877.87 275.587 876.441 275.587 Q875.504 275.587 874.685 276.079 Q873.888 276.571 873.396 277.203 Q872.928 277.836 872.506 278.749 Q872.108 279.639 871.944 280.178 Q871.804 280.693 871.686 281.255 L870.047 287.813 Q869.25 290.929 869.25 292.03 Q869.25 293.388 869.906 294.301 Q870.562 295.192 871.874 295.192 Q872.389 295.192 872.975 295.051 Q873.56 294.887 874.31 294.465 Q875.083 294.02 875.762 293.365 Q876.465 292.685 877.144 291.538 Q877.823 290.39 878.268 288.914 Q878.409 288.399 878.877 288.399 Q879.463 288.399 879.463 288.867 Q879.463 289.266 879.135 290.109 Q878.83 290.929 878.151 292.006 Q877.495 293.06 876.629 294.02 Q875.762 294.957 874.474 295.613 Q873.185 296.269 871.78 296.269 Q869.766 296.269 868.431 295.192 Q867.096 294.114 866.604 292.615 Q866.487 292.826 866.323 293.107 Q866.159 293.388 865.667 294.02 Q865.198 294.629 864.66 295.098 Q864.121 295.543 863.278 295.894 Q862.458 296.269 861.568 296.269 Q860.444 296.269 859.436 295.941 Q858.453 295.613 857.75 294.864 Q857.047 294.114 857.047 293.084 Q857.047 291.936 857.82 291.139 Q858.617 290.32 859.694 290.32 Q860.373 290.32 860.912 290.718 Q861.474 291.116 861.474 291.983 Q861.474 292.943 860.818 293.669 Q860.163 294.395 859.226 294.583 Q860.186 295.192 861.615 295.192 Q863.161 295.192 864.379 293.833 Q865.597 292.475 866.182 290.203 Q867.634 284.745 868.196 282.309 Q868.759 279.85 868.759 278.796 Q868.759 277.812 868.501 277.133 Q868.243 276.454 867.798 276.149 Q867.377 275.821 866.979 275.704 Q866.604 275.587 866.182 275.587 Q865.479 275.587 864.683 275.868 Q863.91 276.149 862.973 276.805 Q862.06 277.437 861.193 278.749 Q860.327 280.061 859.741 281.864 Q859.624 282.403 859.109 282.403 Q858.546 282.379 858.546 281.911 Q858.546 281.513 858.851 280.693 Q859.179 279.85 859.835 278.796 Q860.514 277.742 861.381 276.805 Q862.271 275.845 863.559 275.189 Q864.871 274.533 866.276 274.533 Q866.908 274.533 867.517 274.673 Q868.15 274.791 868.899 275.142 Q869.672 275.493 870.351 276.266 Q871.031 277.039 871.452 278.163 Q871.733 277.625 872.108 277.109 Q872.506 276.594 873.115 275.962 Q873.748 275.306 874.614 274.931 Q875.504 274.533 876.488 274.533 Q877.448 274.533 878.385 274.791 Q879.322 275.025 880.119 275.798 Q880.938 276.547 880.938 277.695 Z" fill="#000000" fill-rule="evenodd" fill-opacity="1" /><path clip-path="url(#clip410)" d="M897.525 288.446 Q897.572 287.86 898.486 287.86 L927.881 287.86 Q929.263 287.86 929.286 288.399 Q929.286 288.985 927.975 288.961 L898.814 288.961 Q897.525 288.985 897.525 288.446 M897.525 279.077 Q897.525 278.491 898.533 278.515 L927.834 278.515 Q929.263 278.515 929.286 279.077 Q929.286 279.616 928.068 279.616 L898.486 279.616 Q897.525 279.616 897.525 279.077 Z" fill="#000000" fill-rule="evenodd" fill-opacity="1" /><path clip-path="url(#clip410)" d="M947.794 289.266 Q947.794 287.837 948.613 287.158 Q949.433 286.478 950.487 286.478 Q951.588 286.478 952.361 287.204 Q953.157 287.907 953.157 289.149 Q953.157 290.484 952.22 291.233 Q951.307 291.983 949.995 291.795 Q951.143 293.716 953.251 294.583 Q955.382 295.449 957.35 295.449 Q959.411 295.449 961.074 293.669 Q962.76 291.889 962.76 287.532 Q962.76 283.832 961.308 281.7 Q959.879 279.569 957.045 279.569 L954.937 279.569 Q954.211 279.569 954 279.499 Q953.79 279.428 953.79 279.03 Q953.79 278.562 954.516 278.468 Q955.242 278.468 956.39 278.327 Q959.177 278.234 960.652 275.821 Q961.988 273.573 961.988 270.364 Q961.988 267.436 960.582 266.218 Q959.2 264.977 957.397 264.977 Q955.71 264.977 953.86 265.679 Q952.01 266.382 951.002 267.951 Q953.977 267.951 953.977 270.364 Q953.977 271.418 953.298 272.12 Q952.642 272.8 951.541 272.8 Q950.487 272.8 949.784 272.144 Q949.082 271.465 949.082 270.317 Q949.082 267.576 951.518 265.679 Q953.977 263.782 957.584 263.782 Q961.144 263.782 963.768 265.656 Q966.414 267.53 966.414 270.411 Q966.414 273.245 964.541 275.564 Q962.667 277.882 959.692 278.843 Q963.346 279.569 965.524 282.052 Q967.703 284.511 967.703 287.532 Q967.703 291.28 964.751 294.044 Q961.8 296.784 957.49 296.784 Q953.509 296.784 950.651 294.629 Q947.794 292.475 947.794 289.266 Z" fill="#000000" fill-rule="evenodd" fill-opacity="1" /><polyline clip-path="url(#clip410)" style="stroke:#3da44d; stroke-linecap:round; stroke-linejoin:round; stroke-width:4; stroke-opacity:1; fill:none" points="
  261.263,367.805 427.275,367.805 
  "/>
<path clip-path="url(#clip410)" d="M470.776 348.798 L464.434 365.997 L477.142 365.997 L470.776 348.798 M468.137 344.192 L473.438 344.192 L486.61 378.752 L481.748 378.752 L478.6 369.886 L463.022 369.886 L459.874 378.752 L454.943 378.752 L468.137 344.192 Z" fill="#000000" fill-rule="evenodd" fill-opacity="1" /><path clip-path="url(#clip410)" d="M507.998 353.59 L507.998 357.617 Q506.193 356.691 504.248 356.228 Q502.304 355.766 500.221 355.766 Q497.049 355.766 495.452 356.738 Q493.878 357.71 493.878 359.654 Q493.878 361.136 495.012 361.992 Q496.147 362.826 499.572 363.59 L501.031 363.914 Q505.568 364.886 507.466 366.668 Q509.387 368.427 509.387 371.599 Q509.387 375.21 506.517 377.316 Q503.67 379.423 498.67 379.423 Q496.586 379.423 494.318 379.006 Q492.073 378.613 489.573 377.802 L489.573 373.404 Q491.934 374.631 494.225 375.256 Q496.517 375.858 498.762 375.858 Q501.772 375.858 503.392 374.84 Q505.012 373.798 505.012 371.923 Q505.012 370.187 503.832 369.261 Q502.674 368.335 498.716 367.478 L497.235 367.131 Q493.276 366.298 491.517 364.585 Q489.758 362.849 489.758 359.84 Q489.758 356.182 492.35 354.191 Q494.943 352.201 499.711 352.201 Q502.072 352.201 504.156 352.548 Q506.239 352.895 507.998 353.59 Z" fill="#000000" fill-rule="evenodd" fill-opacity="1" /><path clip-path="url(#clip410)" d="M521.517 340.835 L526.123 340.835 L518.577 349.539 L515.035 349.539 L521.517 340.835 M516.17 352.826 L520.429 352.826 L520.429 378.752 L516.17 378.752 L516.17 352.826 M518.299 352.201 L518.299 352.201 Z" fill="#000000" fill-rule="evenodd" fill-opacity="1" /><path clip-path="url(#clip410)" d="M550.892 363.103 L550.892 378.752 L546.632 378.752 L546.632 363.242 Q546.632 359.562 545.197 357.733 Q543.762 355.904 540.892 355.904 Q537.443 355.904 535.452 358.103 Q533.461 360.303 533.461 364.099 L533.461 378.752 L529.179 378.752 L529.179 352.826 L533.461 352.826 L533.461 356.853 Q534.989 354.516 537.049 353.358 Q539.132 352.201 541.841 352.201 Q546.308 352.201 548.6 354.978 Q550.892 357.733 550.892 363.103 Z" fill="#000000" fill-rule="evenodd" fill-opacity="1" /><path clip-path="url(#clip410)" d="M563.6 345.465 L563.6 352.826 L572.373 352.826 L572.373 356.136 L563.6 356.136 L563.6 370.21 Q563.6 373.381 564.456 374.284 Q565.336 375.187 567.998 375.187 L572.373 375.187 L572.373 378.752 L567.998 378.752 Q563.067 378.752 561.193 376.923 Q559.318 375.071 559.318 370.21 L559.318 356.136 L556.193 356.136 L556.193 352.826 L559.318 352.826 L559.318 345.465 L563.6 345.465 Z" fill="#000000" fill-rule="evenodd" fill-opacity="1" /><path clip-path="url(#clip410)" d="M588.021 355.812 Q584.595 355.812 582.604 358.497 Q580.614 361.159 580.614 365.812 Q580.614 370.465 582.581 373.15 Q584.572 375.812 588.021 375.812 Q591.424 375.812 593.415 373.127 Q595.405 370.441 595.405 365.812 Q595.405 361.205 593.415 358.52 Q591.424 355.812 588.021 355.812 M588.021 352.201 Q593.577 352.201 596.748 355.812 Q599.919 359.423 599.919 365.812 Q599.919 372.177 596.748 375.812 Q593.577 379.423 588.021 379.423 Q582.442 379.423 579.271 375.812 Q576.123 372.177 576.123 365.812 Q576.123 359.423 579.271 355.812 Q582.442 352.201 588.021 352.201 Z" fill="#000000" fill-rule="evenodd" fill-opacity="1" /><path clip-path="url(#clip410)" d="M611.192 345.465 L611.192 352.826 L619.965 352.826 L619.965 356.136 L611.192 356.136 L611.192 370.21 Q611.192 373.381 612.049 374.284 Q612.928 375.187 615.59 375.187 L619.965 375.187 L619.965 378.752 L615.59 378.752 Q610.66 378.752 608.785 376.923 Q606.91 375.071 606.91 370.21 L606.91 356.136 L603.785 356.136 L603.785 352.826 L606.91 352.826 L606.91 345.465 L611.192 345.465 Z" fill="#000000" fill-rule="evenodd" fill-opacity="1" /><path clip-path="url(#clip410)" d="M637.35 365.719 Q632.187 365.719 630.197 366.9 Q628.206 368.08 628.206 370.927 Q628.206 373.196 629.688 374.539 Q631.192 375.858 633.762 375.858 Q637.303 375.858 639.433 373.358 Q641.586 370.835 641.586 366.668 L641.586 365.719 L637.35 365.719 M645.845 363.96 L645.845 378.752 L641.586 378.752 L641.586 374.816 Q640.127 377.177 637.951 378.312 Q635.775 379.423 632.627 379.423 Q628.646 379.423 626.285 377.201 Q623.947 374.955 623.947 371.205 Q623.947 366.83 626.863 364.608 Q629.803 362.386 635.613 362.386 L641.586 362.386 L641.586 361.969 Q641.586 359.029 639.641 357.432 Q637.72 355.812 634.225 355.812 Q632.002 355.812 629.896 356.344 Q627.789 356.877 625.845 357.941 L625.845 354.006 Q628.183 353.104 630.382 352.664 Q632.581 352.201 634.664 352.201 Q640.289 352.201 643.067 355.117 Q645.845 358.034 645.845 363.96 Z" fill="#000000" fill-rule="evenodd" fill-opacity="1" /><path clip-path="url(#clip410)" d="M691.238 363.103 L691.238 378.752 L686.979 378.752 L686.979 363.242 Q686.979 359.562 685.544 357.733 Q684.109 355.904 681.238 355.904 Q677.789 355.904 675.798 358.103 Q673.808 360.303 673.808 364.099 L673.808 378.752 L669.525 378.752 L669.525 342.733 L673.808 342.733 L673.808 356.853 Q675.335 354.516 677.396 353.358 Q679.479 352.201 682.187 352.201 Q686.655 352.201 688.946 354.978 Q691.238 357.733 691.238 363.103 Z" fill="#000000" fill-rule="evenodd" fill-opacity="1" /><path clip-path="url(#clip410)" d="M709.78 355.812 Q706.354 355.812 704.363 358.497 Q702.372 361.159 702.372 365.812 Q702.372 370.465 704.34 373.15 Q706.331 375.812 709.78 375.812 Q713.182 375.812 715.173 373.127 Q717.164 370.441 717.164 365.812 Q717.164 361.205 715.173 358.52 Q713.182 355.812 709.78 355.812 M709.78 352.201 Q715.335 352.201 718.506 355.812 Q721.678 359.423 721.678 365.812 Q721.678 372.177 718.506 375.812 Q715.335 379.423 709.78 379.423 Q704.201 379.423 701.03 375.812 Q697.882 372.177 697.882 365.812 Q697.882 359.423 701.03 355.812 Q704.201 352.201 709.78 352.201 Z" fill="#000000" fill-rule="evenodd" fill-opacity="1" /><path clip-path="url(#clip410)" d="M743.761 356.807 Q743.043 356.391 742.187 356.205 Q741.354 355.997 740.335 355.997 Q736.724 355.997 734.78 358.358 Q732.858 360.696 732.858 365.094 L732.858 378.752 L728.576 378.752 L728.576 352.826 L732.858 352.826 L732.858 356.853 Q734.201 354.492 736.354 353.358 Q738.506 352.201 741.585 352.201 Q742.025 352.201 742.557 352.27 Q743.09 352.316 743.738 352.432 L743.761 356.807 Z" fill="#000000" fill-rule="evenodd" fill-opacity="1" /><path clip-path="url(#clip410)" d="M748.229 352.826 L752.488 352.826 L752.488 378.752 L748.229 378.752 L748.229 352.826 M748.229 342.733 L752.488 342.733 L752.488 348.127 L748.229 348.127 L748.229 342.733 Z" fill="#000000" fill-rule="evenodd" fill-opacity="1" /><path clip-path="url(#clip410)" d="M759.548 352.826 L779.779 352.826 L779.779 356.715 L763.761 375.349 L779.779 375.349 L779.779 378.752 L758.969 378.752 L758.969 374.863 L774.988 356.228 L759.548 356.228 L759.548 352.826 Z" fill="#000000" fill-rule="evenodd" fill-opacity="1" /><path clip-path="url(#clip410)" d="M796.33 355.812 Q792.904 355.812 790.914 358.497 Q788.923 361.159 788.923 365.812 Q788.923 370.465 790.89 373.15 Q792.881 375.812 796.33 375.812 Q799.733 375.812 801.724 373.127 Q803.714 370.441 803.714 365.812 Q803.714 361.205 801.724 358.52 Q799.733 355.812 796.33 355.812 M796.33 352.201 Q801.886 352.201 805.057 355.812 Q808.228 359.423 808.228 365.812 Q808.228 372.177 805.057 375.812 Q801.886 379.423 796.33 379.423 Q790.751 379.423 787.58 375.812 Q784.432 372.177 784.432 365.812 Q784.432 359.423 787.58 355.812 Q790.751 352.201 796.33 352.201 Z" fill="#000000" fill-rule="evenodd" fill-opacity="1" /><path clip-path="url(#clip410)" d="M836.839 363.103 L836.839 378.752 L832.58 378.752 L832.58 363.242 Q832.58 359.562 831.145 357.733 Q829.71 355.904 826.839 355.904 Q823.39 355.904 821.399 358.103 Q819.409 360.303 819.409 364.099 L819.409 378.752 L815.126 378.752 L815.126 352.826 L819.409 352.826 L819.409 356.853 Q820.936 354.516 822.997 353.358 Q825.08 352.201 827.788 352.201 Q832.256 352.201 834.548 354.978 Q836.839 357.733 836.839 363.103 Z" fill="#000000" fill-rule="evenodd" fill-opacity="1" /><path clip-path="url(#clip410)" d="M849.547 345.465 L849.547 352.826 L858.321 352.826 L858.321 356.136 L849.547 356.136 L849.547 370.21 Q849.547 373.381 850.404 374.284 Q851.284 375.187 853.946 375.187 L858.321 375.187 L858.321 378.752 L853.946 378.752 Q849.015 378.752 847.14 376.923 Q845.265 375.071 845.265 370.21 L845.265 356.136 L842.14 356.136 L842.14 352.826 L845.265 352.826 L845.265 345.465 L849.547 345.465 Z" fill="#000000" fill-rule="evenodd" fill-opacity="1" /><path clip-path="url(#clip410)" d="M875.705 365.719 Q870.543 365.719 868.552 366.9 Q866.561 368.08 866.561 370.927 Q866.561 373.196 868.043 374.539 Q869.547 375.858 872.117 375.858 Q875.658 375.858 877.788 373.358 Q879.941 370.835 879.941 366.668 L879.941 365.719 L875.705 365.719 M884.2 363.96 L884.2 378.752 L879.941 378.752 L879.941 374.816 Q878.482 377.177 876.307 378.312 Q874.131 379.423 870.983 379.423 Q867.001 379.423 864.64 377.201 Q862.302 374.955 862.302 371.205 Q862.302 366.83 865.219 364.608 Q868.158 362.386 873.969 362.386 L879.941 362.386 L879.941 361.969 Q879.941 359.029 877.996 357.432 Q876.075 355.812 872.58 355.812 Q870.358 355.812 868.251 356.344 Q866.145 356.877 864.2 357.941 L864.2 354.006 Q866.538 353.104 868.737 352.664 Q870.936 352.201 873.02 352.201 Q878.645 352.201 881.422 355.117 Q884.2 358.034 884.2 363.96 Z" fill="#000000" fill-rule="evenodd" fill-opacity="1" /><path clip-path="url(#clip410)" d="M892.973 342.733 L897.232 342.733 L897.232 378.752 L892.973 378.752 L892.973 342.733 Z" fill="#000000" fill-rule="evenodd" fill-opacity="1" /><path clip-path="url(#clip410)" d="M938.88 359.381 Q938.88 359.709 938.67 360.482 L934.079 378.798 Q933.072 382.874 929.792 385.731 Q926.537 388.589 922.836 388.589 Q920.611 388.589 919.182 387.394 Q917.753 386.223 917.753 384.42 Q917.753 382.827 918.597 382.054 Q919.44 381.305 920.447 381.305 Q920.775 381.305 921.126 381.398 Q921.477 381.492 921.852 381.89 Q922.227 382.288 922.227 382.968 Q922.227 384.068 921.267 384.935 Q920.798 385.333 920.353 385.427 Q919.932 385.521 919.206 385.521 Q919.487 386.176 920.002 386.621 Q920.517 387.066 921.103 387.23 Q921.688 387.418 922.063 387.465 Q922.461 387.535 922.836 387.535 Q925.834 387.535 928.129 384.513 Q928.809 383.6 929.301 382.686 Q929.816 381.796 930.191 380.696 Q930.565 379.618 930.729 379.033 Q930.917 378.447 931.245 377.112 Q929.066 379.29 926.396 379.29 Q925.272 379.29 924.265 378.986 Q923.281 378.681 922.414 378.049 Q921.548 377.393 921.032 376.245 Q920.541 375.098 920.541 373.575 Q920.541 371.959 921.173 369.757 Q921.805 367.556 923.328 363.504 Q924.148 361.232 924.148 360.131 Q924.148 359.592 924.031 359.264 Q923.913 358.913 923.679 358.796 Q923.445 358.655 923.304 358.632 Q923.187 358.608 922.953 358.608 Q921.571 358.608 920.283 360.014 Q918.995 361.419 918.105 364.558 Q917.917 365.143 917.8 365.284 Q917.683 365.424 917.332 365.424 Q916.746 365.401 916.746 364.932 Q916.746 364.745 916.957 364.019 Q917.168 363.269 917.66 362.168 Q918.175 361.044 918.878 360.037 Q919.58 359.006 920.681 358.28 Q921.805 357.554 923.094 357.554 Q924.85 357.554 925.928 358.702 Q927.029 359.826 927.029 361.489 Q927.029 362.168 926.841 362.777 Q926.677 363.363 926.068 364.932 Q923.609 371.256 923.609 374.348 Q923.609 375.098 923.726 375.73 Q923.867 376.339 924.171 376.948 Q924.476 377.534 925.085 377.885 Q925.717 378.213 926.584 378.213 Q927.684 378.213 928.715 377.698 Q929.769 377.159 930.425 376.433 Q931.104 375.707 931.502 375.098 Q931.924 374.465 932.018 374.137 L934.172 365.518 L935.133 361.677 Q935.578 359.592 935.789 359.077 Q936.07 358.585 936.562 358.327 Q937.053 358.069 937.475 358.069 Q938.061 358.069 938.459 358.421 Q938.88 358.772 938.88 359.381 Z" fill="#000000" fill-rule="evenodd" fill-opacity="1" /><path clip-path="url(#clip410)" d="M953.327 371.467 Q953.373 370.882 954.287 370.882 L983.682 370.882 Q985.064 370.882 985.087 371.42 Q985.087 372.006 983.776 371.982 L954.615 371.982 Q953.327 372.006 953.327 371.467 M953.327 362.098 Q953.327 361.513 954.334 361.536 L983.635 361.536 Q985.064 361.536 985.087 362.098 Q985.087 362.637 983.869 362.637 L954.287 362.637 Q953.327 362.637 953.327 362.098 Z" fill="#000000" fill-rule="evenodd" fill-opacity="1" /><path clip-path="url(#clip410)" d="M1003.59 351.371 L1003.59 349.872 Q1009.36 349.872 1012.33 346.803 Q1013.15 346.803 1013.29 346.991 Q1013.43 347.178 1013.43 348.045 L1013.43 374.957 Q1013.43 376.386 1014.13 376.831 Q1014.84 377.276 1017.91 377.276 L1019.43 377.276 L1019.43 378.752 Q1017.74 378.611 1011.65 378.611 Q1005.56 378.611 1003.9 378.752 L1003.9 377.276 L1005.42 377.276 Q1008.44 377.276 1009.17 376.854 Q1009.9 376.409 1009.9 374.957 L1009.9 350.106 Q1007.39 351.371 1003.59 351.371 Z" fill="#000000" fill-rule="evenodd" fill-opacity="1" /><polyline clip-path="url(#clip410)" style="stroke:#c271d2; stroke-linecap:round; stroke-linejoin:round; stroke-width:4; stroke-opacity:1; fill:none" points="
  261.263,455.175 427.275,455.175 
  "/>
<path clip-path="url(#clip410)" d="M470.776 437.629 L464.434 454.828 L477.142 454.828 L470.776 437.629 M468.137 433.023 L473.438 433.023 L486.61 467.583 L481.748 467.583 L478.6 458.717 L463.022 458.717 L459.874 467.583 L454.943 467.583 L468.137 433.023 Z" fill="#000000" fill-rule="evenodd" fill-opacity="1" /><path clip-path="url(#clip410)" d="M507.998 442.421 L507.998 446.449 Q506.193 445.523 504.248 445.06 Q502.304 444.597 500.221 444.597 Q497.049 444.597 495.452 445.569 Q493.878 446.541 493.878 448.486 Q493.878 449.967 495.012 450.824 Q496.147 451.657 499.572 452.421 L501.031 452.745 Q505.568 453.717 507.466 455.499 Q509.387 457.259 509.387 460.43 Q509.387 464.041 506.517 466.148 Q503.67 468.254 498.67 468.254 Q496.586 468.254 494.318 467.837 Q492.073 467.444 489.573 466.634 L489.573 462.236 Q491.934 463.462 494.225 464.087 Q496.517 464.689 498.762 464.689 Q501.772 464.689 503.392 463.671 Q505.012 462.629 505.012 460.754 Q505.012 459.018 503.832 458.092 Q502.674 457.166 498.716 456.31 L497.235 455.962 Q493.276 455.129 491.517 453.416 Q489.758 451.68 489.758 448.671 Q489.758 445.013 492.35 443.023 Q494.943 441.032 499.711 441.032 Q502.072 441.032 504.156 441.379 Q506.239 441.726 507.998 442.421 Z" fill="#000000" fill-rule="evenodd" fill-opacity="1" /><path clip-path="url(#clip410)" d="M521.517 429.666 L526.123 429.666 L518.577 438.37 L515.035 438.37 L521.517 429.666 M516.17 441.657 L520.429 441.657 L520.429 467.583 L516.17 467.583 L516.17 441.657 M518.299 441.032 L518.299 441.032 Z" fill="#000000" fill-rule="evenodd" fill-opacity="1" /><path clip-path="url(#clip410)" d="M550.892 451.935 L550.892 467.583 L546.632 467.583 L546.632 452.074 Q546.632 448.393 545.197 446.564 Q543.762 444.736 540.892 444.736 Q537.443 444.736 535.452 446.935 Q533.461 449.134 533.461 452.93 L533.461 467.583 L529.179 467.583 L529.179 441.657 L533.461 441.657 L533.461 445.685 Q534.989 443.347 537.049 442.189 Q539.132 441.032 541.841 441.032 Q546.308 441.032 548.6 443.81 Q550.892 446.564 550.892 451.935 Z" fill="#000000" fill-rule="evenodd" fill-opacity="1" /><path clip-path="url(#clip410)" d="M563.6 434.296 L563.6 441.657 L572.373 441.657 L572.373 444.967 L563.6 444.967 L563.6 459.041 Q563.6 462.212 564.456 463.115 Q565.336 464.018 567.998 464.018 L572.373 464.018 L572.373 467.583 L567.998 467.583 Q563.067 467.583 561.193 465.754 Q559.318 463.902 559.318 459.041 L559.318 444.967 L556.193 444.967 L556.193 441.657 L559.318 441.657 L559.318 434.296 L563.6 434.296 Z" fill="#000000" fill-rule="evenodd" fill-opacity="1" /><path clip-path="url(#clip410)" d="M588.021 444.643 Q584.595 444.643 582.604 447.328 Q580.614 449.99 580.614 454.643 Q580.614 459.296 582.581 461.981 Q584.572 464.643 588.021 464.643 Q591.424 464.643 593.415 461.958 Q595.405 459.273 595.405 454.643 Q595.405 450.037 593.415 447.351 Q591.424 444.643 588.021 444.643 M588.021 441.032 Q593.577 441.032 596.748 444.643 Q599.919 448.254 599.919 454.643 Q599.919 461.009 596.748 464.643 Q593.577 468.254 588.021 468.254 Q582.442 468.254 579.271 464.643 Q576.123 461.009 576.123 454.643 Q576.123 448.254 579.271 444.643 Q582.442 441.032 588.021 441.032 Z" fill="#000000" fill-rule="evenodd" fill-opacity="1" /><path clip-path="url(#clip410)" d="M611.192 434.296 L611.192 441.657 L619.965 441.657 L619.965 444.967 L611.192 444.967 L611.192 459.041 Q611.192 462.212 612.049 463.115 Q612.928 464.018 615.59 464.018 L619.965 464.018 L619.965 467.583 L615.59 467.583 Q610.66 467.583 608.785 465.754 Q606.91 463.902 606.91 459.041 L606.91 444.967 L603.785 444.967 L603.785 441.657 L606.91 441.657 L606.91 434.296 L611.192 434.296 Z" fill="#000000" fill-rule="evenodd" fill-opacity="1" /><path clip-path="url(#clip410)" d="M637.35 454.55 Q632.187 454.55 630.197 455.731 Q628.206 456.912 628.206 459.759 Q628.206 462.027 629.688 463.37 Q631.192 464.689 633.762 464.689 Q637.303 464.689 639.433 462.189 Q641.586 459.666 641.586 455.499 L641.586 454.55 L637.35 454.55 M645.845 452.791 L645.845 467.583 L641.586 467.583 L641.586 463.648 Q640.127 466.009 637.951 467.143 Q635.775 468.254 632.627 468.254 Q628.646 468.254 626.285 466.032 Q623.947 463.786 623.947 460.037 Q623.947 455.662 626.863 453.439 Q629.803 451.217 635.613 451.217 L641.586 451.217 L641.586 450.8 Q641.586 447.861 639.641 446.263 Q637.72 444.643 634.225 444.643 Q632.002 444.643 629.896 445.175 Q627.789 445.708 625.845 446.773 L625.845 442.838 Q628.183 441.935 630.382 441.495 Q632.581 441.032 634.664 441.032 Q640.289 441.032 643.067 443.949 Q645.845 446.865 645.845 452.791 Z" fill="#000000" fill-rule="evenodd" fill-opacity="1" /><path clip-path="url(#clip410)" d="M679.734 444.643 Q676.308 444.643 674.317 447.328 Q672.326 449.99 672.326 454.643 Q672.326 459.296 674.294 461.981 Q676.284 464.643 679.734 464.643 Q683.136 464.643 685.127 461.958 Q687.118 459.273 687.118 454.643 Q687.118 450.037 685.127 447.351 Q683.136 444.643 679.734 444.643 M679.734 441.032 Q685.289 441.032 688.46 444.643 Q691.632 448.254 691.632 454.643 Q691.632 461.009 688.46 464.643 Q685.289 468.254 679.734 468.254 Q674.155 468.254 670.984 464.643 Q667.835 461.009 667.835 454.643 Q667.835 448.254 670.984 444.643 Q674.155 441.032 679.734 441.032 Z" fill="#000000" fill-rule="evenodd" fill-opacity="1" /><path clip-path="url(#clip410)" d="M717.303 454.643 Q717.303 449.944 715.358 447.282 Q713.437 444.597 710.057 444.597 Q706.678 444.597 704.733 447.282 Q702.812 449.944 702.812 454.643 Q702.812 459.342 704.733 462.027 Q706.678 464.689 710.057 464.689 Q713.437 464.689 715.358 462.027 Q717.303 459.342 717.303 454.643 M702.812 445.592 Q704.155 443.277 706.192 442.166 Q708.252 441.032 711.099 441.032 Q715.821 441.032 718.761 444.782 Q721.724 448.532 721.724 454.643 Q721.724 460.754 718.761 464.504 Q715.821 468.254 711.099 468.254 Q708.252 468.254 706.192 467.143 Q704.155 466.009 702.812 463.694 L702.812 467.583 L698.53 467.583 L698.53 431.564 L702.812 431.564 L702.812 445.592 Z" fill="#000000" fill-rule="evenodd" fill-opacity="1" /><path clip-path="url(#clip410)" d="M728.784 431.564 L733.043 431.564 L733.043 467.583 L728.784 467.583 L728.784 431.564 Z" fill="#000000" fill-rule="evenodd" fill-opacity="1" /><path clip-path="url(#clip410)" d="M741.955 441.657 L746.215 441.657 L746.215 467.583 L741.955 467.583 L741.955 441.657 M741.955 431.564 L746.215 431.564 L746.215 436.958 L741.955 436.958 L741.955 431.564 Z" fill="#000000" fill-rule="evenodd" fill-opacity="1" /><path clip-path="url(#clip410)" d="M773.784 442.652 L773.784 446.634 Q771.978 445.638 770.15 445.152 Q768.344 444.643 766.492 444.643 Q762.349 444.643 760.057 447.282 Q757.766 449.898 757.766 454.643 Q757.766 459.388 760.057 462.027 Q762.349 464.643 766.492 464.643 Q768.344 464.643 770.15 464.157 Q771.978 463.648 773.784 462.652 L773.784 466.587 Q772.002 467.421 770.08 467.837 Q768.182 468.254 766.029 468.254 Q760.173 468.254 756.724 464.574 Q753.275 460.893 753.275 454.643 Q753.275 448.3 756.747 444.666 Q760.242 441.032 766.307 441.032 Q768.275 441.032 770.15 441.449 Q772.025 441.842 773.784 442.652 Z" fill="#000000" fill-rule="evenodd" fill-opacity="1" /><path clip-path="url(#clip410)" d="M780.752 457.351 L780.752 441.657 L785.011 441.657 L785.011 457.189 Q785.011 460.87 786.446 462.722 Q787.881 464.55 790.751 464.55 Q794.201 464.55 796.191 462.351 Q798.205 460.152 798.205 456.356 L798.205 441.657 L802.464 441.657 L802.464 467.583 L798.205 467.583 L798.205 463.601 Q796.654 465.962 794.594 467.12 Q792.557 468.254 789.849 468.254 Q785.381 468.254 783.066 465.476 Q780.752 462.699 780.752 457.351 M791.469 441.032 L791.469 441.032 Z" fill="#000000" fill-rule="evenodd" fill-opacity="1" /><path clip-path="url(#clip410)" d="M823.02 454.55 Q817.858 454.55 815.867 455.731 Q813.876 456.912 813.876 459.759 Q813.876 462.027 815.358 463.37 Q816.862 464.689 819.432 464.689 Q822.974 464.689 825.103 462.189 Q827.256 459.666 827.256 455.499 L827.256 454.55 L823.02 454.55 M831.515 452.791 L831.515 467.583 L827.256 467.583 L827.256 463.648 Q825.798 466.009 823.622 467.143 Q821.446 468.254 818.298 468.254 Q814.316 468.254 811.955 466.032 Q809.617 463.786 809.617 460.037 Q809.617 455.662 812.534 453.439 Q815.474 451.217 821.284 451.217 L827.256 451.217 L827.256 450.8 Q827.256 447.861 825.311 446.263 Q823.39 444.643 819.895 444.643 Q817.673 444.643 815.566 445.175 Q813.46 445.708 811.515 446.773 L811.515 442.838 Q813.853 441.935 816.052 441.495 Q818.251 441.032 820.335 441.032 Q825.96 441.032 828.737 443.949 Q831.515 446.865 831.515 452.791 Z" fill="#000000" fill-rule="evenodd" fill-opacity="1" /><path clip-path="url(#clip410)" d="M873.024 448.212 Q873.024 448.54 872.813 449.313 L868.223 467.63 Q867.215 471.705 863.936 474.563 Q860.681 477.42 856.98 477.42 Q854.755 477.42 853.326 476.226 Q851.897 475.055 851.897 473.251 Q851.897 471.658 852.74 470.885 Q853.584 470.136 854.591 470.136 Q854.919 470.136 855.27 470.23 Q855.621 470.323 855.996 470.721 Q856.371 471.12 856.371 471.799 Q856.371 472.9 855.411 473.766 Q854.942 474.164 854.497 474.258 Q854.075 474.352 853.349 474.352 Q853.63 475.008 854.146 475.453 Q854.661 475.898 855.247 476.062 Q855.832 476.249 856.207 476.296 Q856.605 476.366 856.98 476.366 Q859.978 476.366 862.273 473.345 Q862.953 472.431 863.444 471.518 Q863.96 470.628 864.335 469.527 Q864.709 468.449 864.873 467.864 Q865.061 467.278 865.389 465.943 Q863.21 468.121 860.54 468.121 Q859.416 468.121 858.409 467.817 Q857.425 467.513 856.558 466.88 Q855.692 466.224 855.176 465.077 Q854.684 463.929 854.684 462.406 Q854.684 460.79 855.317 458.589 Q855.949 456.387 857.472 452.335 Q858.292 450.063 858.292 448.962 Q858.292 448.423 858.174 448.095 Q858.057 447.744 857.823 447.627 Q857.589 447.486 857.448 447.463 Q857.331 447.439 857.097 447.439 Q855.715 447.439 854.427 448.845 Q853.139 450.25 852.249 453.389 Q852.061 453.974 851.944 454.115 Q851.827 454.255 851.476 454.255 Q850.89 454.232 850.89 453.764 Q850.89 453.576 851.101 452.85 Q851.312 452.101 851.804 451 Q852.319 449.875 853.021 448.868 Q853.724 447.838 854.825 447.112 Q855.949 446.385 857.238 446.385 Q858.994 446.385 860.072 447.533 Q861.172 448.657 861.172 450.32 Q861.172 451 860.985 451.609 Q860.821 452.194 860.212 453.764 Q857.753 460.088 857.753 463.179 Q857.753 463.929 857.87 464.561 Q858.01 465.17 858.315 465.779 Q858.619 466.365 859.228 466.716 Q859.861 467.044 860.727 467.044 Q861.828 467.044 862.859 466.529 Q863.913 465.99 864.569 465.264 Q865.248 464.538 865.646 463.929 Q866.068 463.296 866.161 462.969 L868.316 454.349 L869.277 450.508 Q869.722 448.423 869.932 447.908 Q870.214 447.416 870.705 447.158 Q871.197 446.901 871.619 446.901 Q872.204 446.901 872.603 447.252 Q873.024 447.603 873.024 448.212 Z" fill="#000000" fill-rule="evenodd" fill-opacity="1" /><path clip-path="url(#clip410)" d="M887.47 460.298 Q887.517 459.713 888.431 459.713 L917.826 459.713 Q919.208 459.713 919.231 460.252 Q919.231 460.837 917.92 460.814 L888.759 460.814 Q887.47 460.837 887.47 460.298 M887.47 450.929 Q887.47 450.344 888.478 450.367 L917.779 450.367 Q919.208 450.367 919.231 450.929 Q919.231 451.468 918.013 451.468 L888.431 451.468 Q887.47 451.468 887.47 450.929 Z" fill="#000000" fill-rule="evenodd" fill-opacity="1" /><path clip-path="url(#clip410)" d="M947.979 436.666 Q947.979 435.237 948.798 434.558 Q949.618 433.878 950.672 433.878 Q951.773 433.878 952.546 434.604 Q953.342 435.307 953.342 436.549 Q953.342 437.884 952.405 438.633 Q951.492 439.383 950.18 439.195 Q951.328 441.116 953.436 441.983 Q955.567 442.849 957.535 442.849 Q959.596 442.849 961.259 441.069 Q962.946 439.289 962.946 434.932 Q962.946 431.232 961.493 429.1 Q960.065 426.969 957.23 426.969 L955.122 426.969 Q954.396 426.969 954.186 426.899 Q953.975 426.828 953.975 426.43 Q953.975 425.962 954.701 425.868 Q955.427 425.868 956.575 425.727 Q959.362 425.634 960.838 423.221 Q962.173 420.973 962.173 417.764 Q962.173 414.836 960.767 413.618 Q959.385 412.377 957.582 412.377 Q955.895 412.377 954.045 413.079 Q952.195 413.782 951.187 415.351 Q954.162 415.351 954.162 417.764 Q954.162 418.818 953.483 419.52 Q952.827 420.2 951.726 420.2 Q950.672 420.2 949.97 419.544 Q949.267 418.865 949.267 417.717 Q949.267 414.976 951.703 413.079 Q954.162 411.182 957.769 411.182 Q961.329 411.182 963.953 413.056 Q966.599 414.93 966.599 417.811 Q966.599 420.645 964.726 422.964 Q962.852 425.282 959.877 426.243 Q963.531 426.969 965.709 429.452 Q967.888 431.911 967.888 434.932 Q967.888 438.68 964.936 441.444 Q961.985 444.184 957.676 444.184 Q953.694 444.184 950.836 442.029 Q947.979 439.875 947.979 436.666 Z" fill="#000000" fill-rule="evenodd" fill-opacity="1" /><path clip-path="url(#clip410)" d="
M947.979 456.98 L972.804 456.98 L972.804 454.42 L947.979 454.42  Z
  " fill="#000000" fill-rule="evenodd" fill-opacity="1"/>
<path clip-path="url(#clip410)" d="M947.979 498.86 Q947.979 497.994 948.049 497.736 Q948.143 497.478 948.517 497.08 L957.722 486.821 Q962.758 481.153 962.758 476.211 Q962.758 473.002 961.072 470.706 Q959.409 468.411 956.34 468.411 Q954.232 468.411 952.452 469.699 Q950.672 470.988 949.852 473.283 Q949.993 473.236 950.485 473.236 Q951.679 473.236 952.335 473.986 Q953.014 474.735 953.014 475.742 Q953.014 477.031 952.171 477.663 Q951.351 478.272 950.532 478.272 Q950.204 478.272 949.759 478.202 Q949.337 478.131 948.658 477.476 Q947.979 476.796 947.979 475.602 Q947.979 472.252 950.508 469.582 Q953.061 466.912 956.949 466.912 Q961.353 466.912 964.234 469.535 Q967.138 472.135 967.138 476.211 Q967.138 477.64 966.693 478.951 Q966.272 480.239 965.686 481.247 Q965.124 482.254 963.578 483.87 Q962.032 485.486 960.791 486.634 Q959.549 487.781 956.762 490.217 L951.679 495.16 L960.322 495.16 Q964.538 495.16 964.866 494.785 Q965.335 494.106 965.92 490.522 L967.138 490.522 L965.78 498.86 L947.979 498.86 Z" fill="#000000" fill-rule="evenodd" fill-opacity="1" /><path clip-path="url(#clip410)" d="M992.336 456.176 Q991.235 456.176 991.235 455.59 Q991.235 455.005 992.383 455.005 Q992.523 455.005 992.757 455.028 Q993.015 455.052 993.062 455.052 L1006.58 455.052 L1006.58 441.49 Q1006.58 441.443 1006.55 441.233 Q1006.53 440.998 1006.53 440.858 Q1006.53 439.71 1007.09 439.71 Q1007.68 439.71 1007.68 440.858 L1007.68 455.052 L1021.22 455.052 Q1021.26 455.052 1021.5 455.028 Q1021.73 455.005 1021.87 455.005 Q1022.97 455.005 1022.97 455.59 Q1023 456.176 1021.82 456.176 Q1021.68 456.176 1021.47 456.153 Q1021.26 456.129 1021.22 456.129 L1007.68 456.129 L1007.68 470.37 Q1007.68 471.471 1007.09 471.471 Q1006.53 471.471 1006.53 470.323 Q1006.53 470.183 1006.55 469.948 Q1006.58 469.738 1006.58 469.691 L1006.58 456.129 L993.062 456.129 Q993.015 456.129 992.734 456.153 Q992.476 456.176 992.336 456.176 Z" fill="#000000" fill-rule="evenodd" fill-opacity="1" /><path clip-path="url(#clip410)" d="M1052.86 416.799 L1052.86 415.3 Q1058.63 415.3 1061.6 412.232 Q1062.42 412.232 1062.56 412.419 Q1062.7 412.607 1062.7 413.473 L1062.7 440.386 Q1062.7 441.815 1063.4 442.26 Q1064.11 442.705 1067.17 442.705 L1068.7 442.705 L1068.7 444.18 Q1067.01 444.04 1060.92 444.04 Q1054.83 444.04 1053.17 444.18 L1053.17 442.705 L1054.69 442.705 Q1057.71 442.705 1058.44 442.283 Q1059.16 441.838 1059.16 440.386 L1059.16 415.535 Q1056.66 416.799 1052.86 416.799 Z" fill="#000000" fill-rule="evenodd" fill-opacity="1" /><path clip-path="url(#clip410)" d="
M1051.74 456.98 L1075.83 456.98 L1075.83 454.42 L1051.74 454.42  Z
  " fill="#000000" fill-rule="evenodd" fill-opacity="1"/>
<path clip-path="url(#clip410)" d="M1051.74 498.86 Q1051.74 497.994 1051.81 497.736 Q1051.91 497.478 1052.28 497.08 L1061.49 486.821 Q1066.52 481.153 1066.52 476.211 Q1066.52 473.002 1064.84 470.706 Q1063.17 468.411 1060.1 468.411 Q1058 468.411 1056.22 469.699 Q1054.44 470.988 1053.62 473.283 Q1053.76 473.236 1054.25 473.236 Q1055.44 473.236 1056.1 473.986 Q1056.78 474.735 1056.78 475.742 Q1056.78 477.031 1055.94 477.663 Q1055.12 478.272 1054.3 478.272 Q1053.97 478.272 1053.52 478.202 Q1053.1 478.131 1052.42 477.476 Q1051.74 476.796 1051.74 475.602 Q1051.74 472.252 1054.27 469.582 Q1056.83 466.912 1060.71 466.912 Q1065.12 466.912 1068 469.535 Q1070.9 472.135 1070.9 476.211 Q1070.9 477.64 1070.46 478.951 Q1070.04 480.239 1069.45 481.247 Q1068.89 482.254 1067.34 483.87 Q1065.8 485.486 1064.56 486.634 Q1063.31 487.781 1060.53 490.217 L1055.44 495.16 L1064.09 495.16 Q1068.3 495.16 1068.63 494.785 Q1069.1 494.106 1069.68 490.522 L1070.9 490.522 L1069.54 498.86 L1051.74 498.86 Z" fill="#000000" fill-rule="evenodd" fill-opacity="1" /><path clip-path="url(#clip410)" d="M1104.84 449.547 Q1104.84 450.859 1104.02 451.609 Q1103.2 452.335 1102.27 452.335 Q1101.38 452.335 1100.91 451.819 Q1100.44 451.304 1100.44 450.648 Q1100.44 449.758 1101.1 448.985 Q1101.75 448.212 1102.74 448.048 Q1101.78 447.439 1100.35 447.439 Q1099.41 447.439 1098.59 447.931 Q1097.79 448.423 1097.3 449.056 Q1096.83 449.688 1096.41 450.601 Q1096.01 451.492 1095.85 452.03 Q1095.71 452.546 1095.59 453.108 L1093.95 459.666 Q1093.16 462.781 1093.16 463.882 Q1093.16 465.241 1093.81 466.154 Q1094.47 467.044 1095.78 467.044 Q1096.29 467.044 1096.88 466.904 Q1097.47 466.74 1098.22 466.318 Q1098.99 465.873 1099.67 465.217 Q1100.37 464.538 1101.05 463.39 Q1101.73 462.242 1102.17 460.767 Q1102.31 460.252 1102.78 460.252 Q1103.37 460.252 1103.37 460.72 Q1103.37 461.118 1103.04 461.961 Q1102.74 462.781 1102.06 463.859 Q1101.4 464.913 1100.53 465.873 Q1099.67 466.81 1098.38 467.466 Q1097.09 468.121 1095.69 468.121 Q1093.67 468.121 1092.34 467.044 Q1091 465.967 1090.51 464.468 Q1090.39 464.678 1090.23 464.959 Q1090.06 465.241 1089.57 465.873 Q1089.1 466.482 1088.57 466.95 Q1088.03 467.395 1087.18 467.747 Q1086.36 468.121 1085.47 468.121 Q1084.35 468.121 1083.34 467.794 Q1082.36 467.466 1081.66 466.716 Q1080.95 465.967 1080.95 464.936 Q1080.95 463.788 1081.73 462.992 Q1082.52 462.172 1083.6 462.172 Q1084.28 462.172 1084.82 462.57 Q1085.38 462.969 1085.38 463.835 Q1085.38 464.795 1084.72 465.522 Q1084.07 466.248 1083.13 466.435 Q1084.09 467.044 1085.52 467.044 Q1087.07 467.044 1088.28 465.686 Q1089.5 464.327 1090.09 462.055 Q1091.54 456.598 1092.1 454.162 Q1092.66 451.702 1092.66 450.648 Q1092.66 449.665 1092.41 448.985 Q1092.15 448.306 1091.7 448.002 Q1091.28 447.674 1090.88 447.557 Q1090.51 447.439 1090.09 447.439 Q1089.39 447.439 1088.59 447.721 Q1087.82 448.002 1086.88 448.657 Q1085.97 449.29 1085.1 450.601 Q1084.23 451.913 1083.65 453.717 Q1083.53 454.255 1083.01 454.255 Q1082.45 454.232 1082.45 453.764 Q1082.45 453.365 1082.76 452.546 Q1083.08 451.702 1083.74 450.648 Q1084.42 449.594 1085.29 448.657 Q1086.18 447.697 1087.46 447.041 Q1088.78 446.385 1090.18 446.385 Q1090.81 446.385 1091.42 446.526 Q1092.06 446.643 1092.8 446.994 Q1093.58 447.346 1094.26 448.119 Q1094.94 448.892 1095.36 450.016 Q1095.64 449.477 1096.01 448.962 Q1096.41 448.447 1097.02 447.814 Q1097.65 447.158 1098.52 446.784 Q1099.41 446.385 1100.39 446.385 Q1101.35 446.385 1102.29 446.643 Q1103.23 446.877 1104.02 447.65 Q1104.84 448.4 1104.84 449.547 Z" fill="#000000" fill-rule="evenodd" fill-opacity="1" /></svg>
