<?xml version="1.0" encoding="utf-8"?>
<svg xmlns="http://www.w3.org/2000/svg" xmlns:xlink="http://www.w3.org/1999/xlink" width="672" height="480" viewBox="0 0 2688 1920">
<defs>
  <clipPath id="clip370">
    <rect x="0" y="0" width="2688" height="1920"/>
  </clipPath>
</defs>
<path clip-path="url(#clip370)" d="
M0 1920 L2688 1920 L2688 0 L0 0  Z
  " fill="#ffffff" fill-rule="evenodd" fill-opacity="1"/>
<defs>
  <clipPath id="clip371">
    <rect x="537" y="0" width="1883" height="1883"/>
  </clipPath>
</defs>
<defs>
  <clipPath id="clip372">
    <rect x="150" y="47" width="2491" height="1755"/>
  </clipPath>
</defs>
<path clip-path="url(#clip370)" d="
M150.589 1800.78 L2640.76 1800.78 L2640.76 47.2441 L150.589 47.2441  Z
  " fill="#ffffff" fill-rule="evenodd" fill-opacity="1"/>
<polyline clip-path="url(#clip372)" style="stroke:#000000; stroke-linecap:round; stroke-linejoin:round; stroke-width:2; stroke-opacity:0.1; fill:none" points="
  150.589,1800.78 150.589,47.2441 
  "/>
<polyline clip-path="url(#clip372)" style="stroke:#000000; stroke-linecap:round; stroke-linejoin:round; stroke-width:2; stroke-opacity:0.1; fill:none" points="
  316.6,1800.78 316.6,47.2441 
  "/>
<polyline clip-path="url(#clip372)" style="stroke:#000000; stroke-linecap:round; stroke-linejoin:round; stroke-width:2; stroke-opacity:0.1; fill:none" points="
  482.612,1800.78 482.612,47.2441 
  "/>
<polyline clip-path="url(#clip372)" style="stroke:#000000; stroke-linecap:round; stroke-linejoin:round; stroke-width:2; stroke-opacity:0.1; fill:none" points="
  648.623,1800.78 648.623,47.2441 
  "/>
<polyline clip-path="url(#clip372)" style="stroke:#000000; stroke-linecap:round; stroke-linejoin:round; stroke-width:2; stroke-opacity:0.1; fill:none" points="
  814.634,1800.78 814.634,47.2441 
  "/>
<polyline clip-path="url(#clip372)" style="stroke:#000000; stroke-linecap:round; stroke-linejoin:round; stroke-width:2; stroke-opacity:0.1; fill:none" points="
  980.645,1800.78 980.645,47.2441 
  "/>
<polyline clip-path="url(#clip372)" style="stroke:#000000; stroke-linecap:round; stroke-linejoin:round; stroke-width:2; stroke-opacity:0.1; fill:none" points="
  1146.66,1800.78 1146.66,47.2441 
  "/>
<polyline clip-path="url(#clip372)" style="stroke:#000000; stroke-linecap:round; stroke-linejoin:round; stroke-width:2; stroke-opacity:0.1; fill:none" points="
  1312.67,1800.78 1312.67,47.2441 
  "/>
<polyline clip-path="url(#clip372)" style="stroke:#000000; stroke-linecap:round; stroke-linejoin:round; stroke-width:2; stroke-opacity:0.1; fill:none" points="
  1478.68,1800.78 1478.68,47.2441 
  "/>
<polyline clip-path="url(#clip372)" style="stroke:#000000; stroke-linecap:round; stroke-linejoin:round; stroke-width:2; stroke-opacity:0.1; fill:none" points="
  1644.69,1800.78 1644.69,47.2441 
  "/>
<polyline clip-path="url(#clip372)" style="stroke:#000000; stroke-linecap:round; stroke-linejoin:round; stroke-width:2; stroke-opacity:0.1; fill:none" points="
  1810.7,1800.78 1810.7,47.2441 
  "/>
<polyline clip-path="url(#clip372)" style="stroke:#000000; stroke-linecap:round; stroke-linejoin:round; stroke-width:2; stroke-opacity:0.1; fill:none" points="
  1976.71,1800.78 1976.71,47.2441 
  "/>
<polyline clip-path="url(#clip372)" style="stroke:#000000; stroke-linecap:round; stroke-linejoin:round; stroke-width:2; stroke-opacity:0.1; fill:none" points="
  2142.72,1800.78 2142.72,47.2441 
  "/>
<polyline clip-path="url(#clip372)" style="stroke:#000000; stroke-linecap:round; stroke-linejoin:round; stroke-width:2; stroke-opacity:0.1; fill:none" points="
  2308.73,1800.78 2308.73,47.2441 
  "/>
<polyline clip-path="url(#clip372)" style="stroke:#000000; stroke-linecap:round; stroke-linejoin:round; stroke-width:2; stroke-opacity:0.1; fill:none" points="
  2474.74,1800.78 2474.74,47.2441 
  "/>
<polyline clip-path="url(#clip372)" style="stroke:#000000; stroke-linecap:round; stroke-linejoin:round; stroke-width:2; stroke-opacity:0.1; fill:none" points="
  2640.76,1800.78 2640.76,47.2441 
  "/>
<polyline clip-path="url(#clip370)" style="stroke:#000000; stroke-linecap:round; stroke-linejoin:round; stroke-width:4; stroke-opacity:1; fill:none" points="
  150.589,1800.78 2640.76,1800.78 
  "/>
<polyline clip-path="url(#clip370)" style="stroke:#000000; stroke-linecap:round; stroke-linejoin:round; stroke-width:4; stroke-opacity:1; fill:none" points="
  150.589,1800.78 150.589,1781.88 
  "/>
<polyline clip-path="url(#clip370)" style="stroke:#000000; stroke-linecap:round; stroke-linejoin:round; stroke-width:4; stroke-opacity:1; fill:none" points="
  316.6,1800.78 316.6,1781.88 
  "/>
<polyline clip-path="url(#clip370)" style="stroke:#000000; stroke-linecap:round; stroke-linejoin:round; stroke-width:4; stroke-opacity:1; fill:none" points="
  482.612,1800.78 482.612,1781.88 
  "/>
<polyline clip-path="url(#clip370)" style="stroke:#000000; stroke-linecap:round; stroke-linejoin:round; stroke-width:4; stroke-opacity:1; fill:none" points="
  648.623,1800.78 648.623,1781.88 
  "/>
<polyline clip-path="url(#clip370)" style="stroke:#000000; stroke-linecap:round; stroke-linejoin:round; stroke-width:4; stroke-opacity:1; fill:none" points="
  814.634,1800.78 814.634,1781.88 
  "/>
<polyline clip-path="url(#clip370)" style="stroke:#000000; stroke-linecap:round; stroke-linejoin:round; stroke-width:4; stroke-opacity:1; fill:none" points="
  980.645,1800.78 980.645,1781.88 
  "/>
<polyline clip-path="url(#clip370)" style="stroke:#000000; stroke-linecap:round; stroke-linejoin:round; stroke-width:4; stroke-opacity:1; fill:none" points="
  1146.66,1800.78 1146.66,1781.88 
  "/>
<polyline clip-path="url(#clip370)" style="stroke:#000000; stroke-linecap:round; stroke-linejoin:round; stroke-width:4; stroke-opacity:1; fill:none" points="
  1312.67,1800.78 1312.67,1781.88 
  "/>
<polyline clip-path="url(#clip370)" style="stroke:#000000; stroke-linecap:round; stroke-linejoin:round; stroke-width:4; stroke-opacity:1; fill:none" points="
  1478.68,1800.78 1478.68,1781.88 
  "/>
<polyline clip-path="url(#clip370)" style="stroke:#000000; stroke-linecap:round; stroke-linejoin:round; stroke-width:4; stroke-opacity:1; fill:none" points="
  1644.69,1800.78 1644.69,1781.88 
  "/>
<polyline clip-path="url(#clip370)" style="stroke:#000000; stroke-linecap:round; stroke-linejoin:round; stroke-width:4; stroke-opacity:1; fill:none" points="
  1810.7,1800.78 1810.7,1781.88 
  "/>
<polyline clip-path="url(#clip370)" style="stroke:#000000; stroke-linecap:round; stroke-linejoin:round; stroke-width:4; stroke-opacity:1; fill:none" points="
  1976.71,1800.78 1976.71,1781.88 
  "/>
<polyline clip-path="url(#clip370)" style="stroke:#000000; stroke-linecap:round; stroke-linejoin:round; stroke-width:4; stroke-opacity:1; fill:none" points="
  2142.72,1800.78 2142.72,1781.88 
  "/>
<polyline clip-path="url(#clip370)" style="stroke:#000000; stroke-linecap:round; stroke-linejoin:round; stroke-width:4; stroke-opacity:1; fill:none" points="
  2308.73,1800.78 2308.73,1781.88 
  "/>
<polyline clip-path="url(#clip370)" style="stroke:#000000; stroke-linecap:round; stroke-linejoin:round; stroke-width:4; stroke-opacity:1; fill:none" points="
  2474.74,1800.78 2474.74,1781.88 
  "/>
<polyline clip-path="url(#clip370)" style="stroke:#000000; stroke-linecap:round; stroke-linejoin:round; stroke-width:4; stroke-opacity:1; fill:none" points="
  2640.76,1800.78 2640.76,1781.88 
  "/>
<path clip-path="url(#clip370)" d="M120.231 1848.65 L149.907 1848.65 L149.907 1852.59 L120.231 1852.59 L120.231 1848.65 Z" fill="#000000" fill-rule="evenodd" fill-opacity="1" /><path clip-path="url(#clip370)" d="M160.045 1830.92 L178.402 1830.92 L178.402 1834.86 L164.328 1834.86 L164.328 1843.33 Q165.346 1842.98 166.365 1842.82 Q167.383 1842.64 168.402 1842.64 Q174.189 1842.64 177.568 1845.81 Q180.948 1848.98 180.948 1854.4 Q180.948 1859.97 177.476 1863.08 Q174.004 1866.15 167.684 1866.15 Q165.508 1866.15 163.24 1865.78 Q160.994 1865.41 158.587 1864.67 L158.587 1859.97 Q160.67 1861.11 162.893 1861.66 Q165.115 1862.22 167.592 1862.22 Q171.596 1862.22 173.934 1860.11 Q176.272 1858.01 176.272 1854.4 Q176.272 1850.78 173.934 1848.68 Q171.596 1846.57 167.592 1846.57 Q165.717 1846.57 163.842 1846.99 Q161.99 1847.4 160.045 1848.28 L160.045 1830.92 Z" fill="#000000" fill-rule="evenodd" fill-opacity="1" /><path clip-path="url(#clip370)" d="M285.501 1848.65 L315.177 1848.65 L315.177 1852.59 L285.501 1852.59 L285.501 1848.65 Z" fill="#000000" fill-rule="evenodd" fill-opacity="1" /><path clip-path="url(#clip370)" d="M338.117 1835 L326.311 1853.45 L338.117 1853.45 L338.117 1835 M336.89 1830.92 L342.769 1830.92 L342.769 1853.45 L347.7 1853.45 L347.7 1857.34 L342.769 1857.34 L342.769 1865.48 L338.117 1865.48 L338.117 1857.34 L322.515 1857.34 L322.515 1852.82 L336.89 1830.92 Z" fill="#000000" fill-rule="evenodd" fill-opacity="1" /><path clip-path="url(#clip370)" d="M452.079 1848.65 L481.755 1848.65 L481.755 1852.59 L452.079 1852.59 L452.079 1848.65 Z" fill="#000000" fill-rule="evenodd" fill-opacity="1" /><path clip-path="url(#clip370)" d="M506.014 1846.85 Q509.371 1847.57 511.246 1849.84 Q513.144 1852.1 513.144 1855.44 Q513.144 1860.55 509.625 1863.35 Q506.107 1866.15 499.625 1866.15 Q497.449 1866.15 495.135 1865.71 Q492.843 1865.3 490.389 1864.44 L490.389 1859.93 Q492.334 1861.06 494.649 1861.64 Q496.963 1862.22 499.487 1862.22 Q503.885 1862.22 506.176 1860.48 Q508.491 1858.75 508.491 1855.44 Q508.491 1852.38 506.338 1850.67 Q504.209 1848.93 500.389 1848.93 L496.362 1848.93 L496.362 1845.09 L500.574 1845.09 Q504.024 1845.09 505.852 1843.72 Q507.681 1842.34 507.681 1839.74 Q507.681 1837.08 505.783 1835.67 Q503.908 1834.23 500.389 1834.23 Q498.468 1834.23 496.269 1834.65 Q494.07 1835.07 491.431 1835.95 L491.431 1831.78 Q494.093 1831.04 496.408 1830.67 Q498.746 1830.3 500.806 1830.3 Q506.13 1830.3 509.232 1832.73 Q512.334 1835.14 512.334 1839.26 Q512.334 1842.13 510.69 1844.12 Q509.047 1846.09 506.014 1846.85 Z" fill="#000000" fill-rule="evenodd" fill-opacity="1" /><path clip-path="url(#clip370)" d="M618.565 1848.65 L648.241 1848.65 L648.241 1852.59 L618.565 1852.59 L618.565 1848.65 Z" fill="#000000" fill-rule="evenodd" fill-opacity="1" /><path clip-path="url(#clip370)" d="M662.361 1861.55 L678.68 1861.55 L678.68 1865.48 L656.736 1865.48 L656.736 1861.55 Q659.398 1858.79 663.981 1854.16 Q668.588 1849.51 669.768 1848.17 Q672.014 1845.65 672.893 1843.91 Q673.796 1842.15 673.796 1840.46 Q673.796 1837.71 671.852 1835.97 Q669.93 1834.23 666.829 1834.23 Q664.63 1834.23 662.176 1835 Q659.745 1835.76 656.968 1837.31 L656.968 1832.59 Q659.792 1831.46 662.245 1830.88 Q664.699 1830.3 666.736 1830.3 Q672.106 1830.3 675.301 1832.98 Q678.495 1835.67 678.495 1840.16 Q678.495 1842.29 677.685 1844.21 Q676.898 1846.11 674.792 1848.7 Q674.213 1849.37 671.111 1852.59 Q668.009 1855.78 662.361 1861.55 Z" fill="#000000" fill-rule="evenodd" fill-opacity="1" /><path clip-path="url(#clip370)" d="M784.391 1848.65 L814.067 1848.65 L814.067 1852.59 L784.391 1852.59 L784.391 1848.65 Z" fill="#000000" fill-rule="evenodd" fill-opacity="1" /><path clip-path="url(#clip370)" d="M824.969 1861.55 L832.608 1861.55 L832.608 1835.18 L824.298 1836.85 L824.298 1832.59 L832.562 1830.92 L837.238 1830.92 L837.238 1861.55 L844.877 1861.55 L844.877 1865.48 L824.969 1865.48 L824.969 1861.55 Z" fill="#000000" fill-rule="evenodd" fill-opacity="1" /><path clip-path="url(#clip370)" d="M980.645 1834 Q977.034 1834 975.205 1837.57 Q973.4 1841.11 973.4 1848.24 Q973.4 1855.34 975.205 1858.91 Q977.034 1862.45 980.645 1862.45 Q984.279 1862.45 986.085 1858.91 Q987.913 1855.34 987.913 1848.24 Q987.913 1841.11 986.085 1837.57 Q984.279 1834 980.645 1834 M980.645 1830.3 Q986.455 1830.3 989.511 1834.9 Q992.589 1839.49 992.589 1848.24 Q992.589 1856.96 989.511 1861.57 Q986.455 1866.15 980.645 1866.15 Q974.835 1866.15 971.756 1861.57 Q968.701 1856.96 968.701 1848.24 Q968.701 1839.49 971.756 1834.9 Q974.835 1830.3 980.645 1830.3 Z" fill="#000000" fill-rule="evenodd" fill-opacity="1" /><path clip-path="url(#clip370)" d="M1137.04 1861.55 L1144.68 1861.55 L1144.68 1835.18 L1136.37 1836.85 L1136.37 1832.59 L1144.63 1830.92 L1149.31 1830.92 L1149.31 1861.55 L1156.95 1861.55 L1156.95 1865.48 L1137.04 1865.48 L1137.04 1861.55 Z" fill="#000000" fill-rule="evenodd" fill-opacity="1" /><path clip-path="url(#clip370)" d="M1307.32 1861.55 L1323.64 1861.55 L1323.64 1865.48 L1301.69 1865.48 L1301.69 1861.55 Q1304.36 1858.79 1308.94 1854.16 Q1313.55 1849.51 1314.73 1848.17 Q1316.97 1845.65 1317.85 1843.91 Q1318.76 1842.15 1318.76 1840.46 Q1318.76 1837.71 1316.81 1835.97 Q1314.89 1834.23 1311.79 1834.23 Q1309.59 1834.23 1307.13 1835 Q1304.7 1835.76 1301.93 1837.31 L1301.93 1832.59 Q1304.75 1831.46 1307.2 1830.88 Q1309.66 1830.3 1311.69 1830.3 Q1317.07 1830.3 1320.26 1832.98 Q1323.45 1835.67 1323.45 1840.16 Q1323.45 1842.29 1322.64 1844.21 Q1321.86 1846.11 1319.75 1848.7 Q1319.17 1849.37 1316.07 1852.59 Q1312.97 1855.78 1307.32 1861.55 Z" fill="#000000" fill-rule="evenodd" fill-opacity="1" /><path clip-path="url(#clip370)" d="M1482.93 1846.85 Q1486.28 1847.57 1488.16 1849.84 Q1490.06 1852.1 1490.06 1855.44 Q1490.06 1860.55 1486.54 1863.35 Q1483.02 1866.15 1476.54 1866.15 Q1474.36 1866.15 1472.05 1865.71 Q1469.75 1865.3 1467.3 1864.44 L1467.3 1859.93 Q1469.25 1861.06 1471.56 1861.64 Q1473.87 1862.22 1476.4 1862.22 Q1480.8 1862.22 1483.09 1860.48 Q1485.4 1858.75 1485.4 1855.44 Q1485.4 1852.38 1483.25 1850.67 Q1481.12 1848.93 1477.3 1848.93 L1473.27 1848.93 L1473.27 1845.09 L1477.49 1845.09 Q1480.94 1845.09 1482.76 1843.72 Q1484.59 1842.34 1484.59 1839.74 Q1484.59 1837.08 1482.69 1835.67 Q1480.82 1834.23 1477.3 1834.23 Q1475.38 1834.23 1473.18 1834.65 Q1470.98 1835.07 1468.34 1835.95 L1468.34 1831.78 Q1471 1831.04 1473.32 1830.67 Q1475.66 1830.3 1477.72 1830.3 Q1483.04 1830.3 1486.14 1832.73 Q1489.25 1835.14 1489.25 1839.26 Q1489.25 1842.13 1487.6 1844.12 Q1485.96 1846.09 1482.93 1846.85 Z" fill="#000000" fill-rule="evenodd" fill-opacity="1" /><path clip-path="url(#clip370)" d="M1647.7 1835 L1635.89 1853.45 L1647.7 1853.45 L1647.7 1835 M1646.47 1830.92 L1652.35 1830.92 L1652.35 1853.45 L1657.28 1853.45 L1657.28 1857.34 L1652.35 1857.34 L1652.35 1865.48 L1647.7 1865.48 L1647.7 1857.34 L1632.1 1857.34 L1632.1 1852.82 L1646.47 1830.92 Z" fill="#000000" fill-rule="evenodd" fill-opacity="1" /><path clip-path="url(#clip370)" d="M1800.98 1830.92 L1819.33 1830.92 L1819.33 1834.86 L1805.26 1834.86 L1805.26 1843.33 Q1806.28 1842.98 1807.3 1842.82 Q1808.32 1842.64 1809.33 1842.64 Q1815.12 1842.64 1818.5 1845.81 Q1821.88 1848.98 1821.88 1854.4 Q1821.88 1859.97 1818.41 1863.08 Q1814.94 1866.15 1808.62 1866.15 Q1806.44 1866.15 1804.17 1865.78 Q1801.93 1865.41 1799.52 1864.67 L1799.52 1859.97 Q1801.6 1861.11 1803.83 1861.66 Q1806.05 1862.22 1808.52 1862.22 Q1812.53 1862.22 1814.87 1860.11 Q1817.2 1858.01 1817.2 1854.4 Q1817.2 1850.78 1814.87 1848.68 Q1812.53 1846.57 1808.52 1846.57 Q1806.65 1846.57 1804.77 1846.99 Q1802.92 1847.4 1800.98 1848.28 L1800.98 1830.92 Z" fill="#000000" fill-rule="evenodd" fill-opacity="1" /><path clip-path="url(#clip370)" d="M1977.12 1846.34 Q1973.97 1846.34 1972.12 1848.49 Q1970.29 1850.65 1970.29 1854.4 Q1970.29 1858.12 1972.12 1860.3 Q1973.97 1862.45 1977.12 1862.45 Q1980.26 1862.45 1982.09 1860.3 Q1983.95 1858.12 1983.95 1854.4 Q1983.95 1850.65 1982.09 1848.49 Q1980.26 1846.34 1977.12 1846.34 M1986.4 1831.69 L1986.4 1835.95 Q1984.64 1835.11 1982.83 1834.67 Q1981.05 1834.23 1979.29 1834.23 Q1974.66 1834.23 1972.21 1837.36 Q1969.78 1840.48 1969.43 1846.8 Q1970.8 1844.79 1972.86 1843.72 Q1974.92 1842.64 1977.39 1842.64 Q1982.6 1842.64 1985.61 1845.81 Q1988.64 1848.96 1988.64 1854.4 Q1988.64 1859.72 1985.5 1862.94 Q1982.35 1866.15 1977.12 1866.15 Q1971.12 1866.15 1967.95 1861.57 Q1964.78 1856.96 1964.78 1848.24 Q1964.78 1840.04 1968.67 1835.18 Q1972.56 1830.3 1979.11 1830.3 Q1980.87 1830.3 1982.65 1830.65 Q1984.45 1830.99 1986.4 1831.69 Z" fill="#000000" fill-rule="evenodd" fill-opacity="1" /><path clip-path="url(#clip370)" d="M2131.61 1830.92 L2153.83 1830.92 L2153.83 1832.91 L2141.29 1865.48 L2136.4 1865.48 L2148.21 1834.86 L2131.61 1834.86 L2131.61 1830.92 Z" fill="#000000" fill-rule="evenodd" fill-opacity="1" /><path clip-path="url(#clip370)" d="M2308.73 1849.07 Q2305.4 1849.07 2303.48 1850.85 Q2301.58 1852.64 2301.58 1855.76 Q2301.58 1858.89 2303.48 1860.67 Q2305.4 1862.45 2308.73 1862.45 Q2312.07 1862.45 2313.99 1860.67 Q2315.91 1858.86 2315.91 1855.76 Q2315.91 1852.64 2313.99 1850.85 Q2312.09 1849.07 2308.73 1849.07 M2304.06 1847.08 Q2301.05 1846.34 2299.36 1844.28 Q2297.69 1842.22 2297.69 1839.26 Q2297.69 1835.11 2300.63 1832.71 Q2303.59 1830.3 2308.73 1830.3 Q2313.9 1830.3 2316.84 1832.71 Q2319.78 1835.11 2319.78 1839.26 Q2319.78 1842.22 2318.09 1844.28 Q2316.42 1846.34 2313.43 1847.08 Q2316.81 1847.87 2318.69 1850.16 Q2320.59 1852.45 2320.59 1855.76 Q2320.59 1860.78 2317.51 1863.47 Q2314.45 1866.15 2308.73 1866.15 Q2303.02 1866.15 2299.94 1863.47 Q2296.88 1860.78 2296.88 1855.76 Q2296.88 1852.45 2298.78 1850.16 Q2300.68 1847.87 2304.06 1847.08 M2302.34 1839.7 Q2302.34 1842.38 2304.01 1843.89 Q2305.7 1845.39 2308.73 1845.39 Q2311.74 1845.39 2313.43 1843.89 Q2315.15 1842.38 2315.15 1839.7 Q2315.15 1837.01 2313.43 1835.51 Q2311.74 1834 2308.73 1834 Q2305.7 1834 2304.01 1835.51 Q2302.34 1837.01 2302.34 1839.7 Z" fill="#000000" fill-rule="evenodd" fill-opacity="1" /><path clip-path="url(#clip370)" d="M2465.05 1864.77 L2465.05 1860.51 Q2466.81 1861.34 2468.61 1861.78 Q2470.42 1862.22 2472.15 1862.22 Q2476.78 1862.22 2479.21 1859.12 Q2481.67 1855.99 2482.01 1849.65 Q2480.67 1851.64 2478.61 1852.71 Q2476.55 1853.77 2474.05 1853.77 Q2468.87 1853.77 2465.83 1850.65 Q2462.82 1847.5 2462.82 1842.06 Q2462.82 1836.73 2465.97 1833.52 Q2469.12 1830.3 2474.35 1830.3 Q2480.35 1830.3 2483.49 1834.9 Q2486.67 1839.49 2486.67 1848.24 Q2486.67 1856.41 2482.78 1861.29 Q2478.91 1866.15 2472.36 1866.15 Q2470.6 1866.15 2468.8 1865.81 Q2466.99 1865.46 2465.05 1864.77 M2474.35 1850.11 Q2477.5 1850.11 2479.33 1847.96 Q2481.18 1845.81 2481.18 1842.06 Q2481.18 1838.33 2479.33 1836.18 Q2477.5 1834 2474.35 1834 Q2471.2 1834 2469.35 1836.18 Q2467.52 1838.33 2467.52 1842.06 Q2467.52 1845.81 2469.35 1847.96 Q2471.2 1850.11 2474.35 1850.11 Z" fill="#000000" fill-rule="evenodd" fill-opacity="1" /><path clip-path="url(#clip370)" d="M2615.44 1861.55 L2623.08 1861.55 L2623.08 1835.18 L2614.77 1836.85 L2614.77 1832.59 L2623.04 1830.92 L2627.71 1830.92 L2627.71 1861.55 L2635.35 1861.55 L2635.35 1865.48 L2615.44 1865.48 L2615.44 1861.55 Z" fill="#000000" fill-rule="evenodd" fill-opacity="1" /><path clip-path="url(#clip370)" d="M2654.8 1834 Q2651.18 1834 2649.36 1837.57 Q2647.55 1841.11 2647.55 1848.24 Q2647.55 1855.34 2649.36 1858.91 Q2651.18 1862.45 2654.8 1862.45 Q2658.43 1862.45 2660.23 1858.91 Q2662.06 1855.34 2662.06 1848.24 Q2662.06 1841.11 2660.23 1837.57 Q2658.43 1834 2654.8 1834 M2654.8 1830.3 Q2660.61 1830.3 2663.66 1834.9 Q2666.74 1839.49 2666.74 1848.24 Q2666.74 1856.96 2663.66 1861.57 Q2660.61 1866.15 2654.8 1866.15 Q2648.99 1866.15 2645.91 1861.57 Q2642.85 1856.96 2642.85 1848.24 Q2642.85 1839.49 2645.91 1834.9 Q2648.99 1830.3 2654.8 1830.3 Z" fill="#000000" fill-rule="evenodd" fill-opacity="1" /><polyline clip-path="url(#clip372)" style="stroke:#000000; stroke-linecap:round; stroke-linejoin:round; stroke-width:2; stroke-opacity:0.1; fill:none" points="
  150.589,1800.78 2640.76,1800.78 
  "/>
<polyline clip-path="url(#clip372)" style="stroke:#000000; stroke-linecap:round; stroke-linejoin:round; stroke-width:2; stroke-opacity:0.1; fill:none" points="
  150.589,1216.27 2640.76,1216.27 
  "/>
<polyline clip-path="url(#clip372)" style="stroke:#000000; stroke-linecap:round; stroke-linejoin:round; stroke-width:2; stroke-opacity:0.1; fill:none" points="
  150.589,631.756 2640.76,631.756 
  "/>
<polyline clip-path="url(#clip372)" style="stroke:#000000; stroke-linecap:round; stroke-linejoin:round; stroke-width:2; stroke-opacity:0.1; fill:none" points="
  150.589,47.2441 2640.76,47.2441 
  "/>
<polyline clip-path="url(#clip370)" style="stroke:#000000; stroke-linecap:round; stroke-linejoin:round; stroke-width:4; stroke-opacity:1; fill:none" points="
  150.589,1800.78 150.589,47.2441 
  "/>
<polyline clip-path="url(#clip370)" style="stroke:#000000; stroke-linecap:round; stroke-linejoin:round; stroke-width:4; stroke-opacity:1; fill:none" points="
  150.589,1800.78 169.487,1800.78 
  "/>
<polyline clip-path="url(#clip370)" style="stroke:#000000; stroke-linecap:round; stroke-linejoin:round; stroke-width:4; stroke-opacity:1; fill:none" points="
  150.589,1216.27 169.487,1216.27 
  "/>
<polyline clip-path="url(#clip370)" style="stroke:#000000; stroke-linecap:round; stroke-linejoin:round; stroke-width:4; stroke-opacity:1; fill:none" points="
  150.589,631.756 169.487,631.756 
  "/>
<polyline clip-path="url(#clip370)" style="stroke:#000000; stroke-linecap:round; stroke-linejoin:round; stroke-width:4; stroke-opacity:1; fill:none" points="
  150.589,47.2441 169.487,47.2441 
  "/>
<path clip-path="url(#clip370)" d="M49.5521 1801.23 L79.2279 1801.23 L79.2279 1805.17 L49.5521 1805.17 L49.5521 1801.23 Z" fill="#000000" fill-rule="evenodd" fill-opacity="1" /><path clip-path="url(#clip370)" d="M89.3667 1783.5 L107.723 1783.5 L107.723 1787.43 L93.6491 1787.43 L93.6491 1795.91 Q94.6676 1795.56 95.6861 1795.4 Q96.7047 1795.21 97.7232 1795.21 Q103.51 1795.21 106.89 1798.38 Q110.269 1801.55 110.269 1806.97 Q110.269 1812.55 106.797 1815.65 Q103.325 1818.73 97.0056 1818.73 Q94.8297 1818.73 92.5612 1818.36 Q90.3158 1817.99 87.9084 1817.25 L87.9084 1812.55 Q89.9917 1813.68 92.2139 1814.24 Q94.4361 1814.8 96.913 1814.8 Q100.918 1814.8 103.256 1812.69 Q105.593 1810.58 105.593 1806.97 Q105.593 1803.36 103.256 1801.25 Q100.918 1799.15 96.913 1799.15 Q95.038 1799.15 93.163 1799.56 Q91.3112 1799.98 89.3667 1800.86 L89.3667 1783.5 Z" fill="#000000" fill-rule="evenodd" fill-opacity="1" /><path clip-path="url(#clip370)" d="M98.325 1202.07 Q94.7139 1202.07 92.8852 1205.63 Q91.0797 1209.17 91.0797 1216.3 Q91.0797 1223.41 92.8852 1226.97 Q94.7139 1230.52 98.325 1230.52 Q101.959 1230.52 103.765 1226.97 Q105.593 1223.41 105.593 1216.3 Q105.593 1209.17 103.765 1205.63 Q101.959 1202.07 98.325 1202.07 M98.325 1198.36 Q104.135 1198.36 107.191 1202.97 Q110.269 1207.55 110.269 1216.3 Q110.269 1225.03 107.191 1229.64 Q104.135 1234.22 98.325 1234.22 Q92.5149 1234.22 89.4362 1229.64 Q86.3806 1225.03 86.3806 1216.3 Q86.3806 1207.55 89.4362 1202.97 Q92.5149 1198.36 98.325 1198.36 Z" fill="#000000" fill-rule="evenodd" fill-opacity="1" /><path clip-path="url(#clip370)" d="M89.3667 614.476 L107.723 614.476 L107.723 618.411 L93.6491 618.411 L93.6491 626.883 Q94.6676 626.536 95.6861 626.374 Q96.7047 626.189 97.7232 626.189 Q103.51 626.189 106.89 629.36 Q110.269 632.531 110.269 637.948 Q110.269 643.527 106.797 646.628 Q103.325 649.707 97.0056 649.707 Q94.8297 649.707 92.5612 649.337 Q90.3158 648.966 87.9084 648.226 L87.9084 643.527 Q89.9917 644.661 92.2139 645.216 Q94.4361 645.772 96.913 645.772 Q100.918 645.772 103.256 643.665 Q105.593 641.559 105.593 637.948 Q105.593 634.337 103.256 632.23 Q100.918 630.124 96.913 630.124 Q95.038 630.124 93.163 630.541 Q91.3112 630.957 89.3667 631.837 L89.3667 614.476 Z" fill="#000000" fill-rule="evenodd" fill-opacity="1" /><path clip-path="url(#clip370)" d="M58.9734 60.5889 L66.6122 60.5889 L66.6122 34.2233 L58.3021 35.89 L58.3021 31.6308 L66.5659 29.9641 L71.2418 29.9641 L71.2418 60.5889 L78.8807 60.5889 L78.8807 64.5241 L58.9734 64.5241 L58.9734 60.5889 Z" fill="#000000" fill-rule="evenodd" fill-opacity="1" /><path clip-path="url(#clip370)" d="M98.325 33.0428 Q94.7139 33.0428 92.8852 36.6076 Q91.0797 40.1492 91.0797 47.2788 Q91.0797 54.3853 92.8852 57.9501 Q94.7139 61.4917 98.325 61.4917 Q101.959 61.4917 103.765 57.9501 Q105.593 54.3853 105.593 47.2788 Q105.593 40.1492 103.765 36.6076 Q101.959 33.0428 98.325 33.0428 M98.325 29.3391 Q104.135 29.3391 107.191 33.9456 Q110.269 38.5289 110.269 47.2788 Q110.269 56.0056 107.191 60.6121 Q104.135 65.1954 98.325 65.1954 Q92.5149 65.1954 89.4362 60.6121 Q86.3806 56.0056 86.3806 47.2788 Q86.3806 38.5289 89.4362 33.9456 Q92.5149 29.3391 98.325 29.3391 Z" fill="#000000" fill-rule="evenodd" fill-opacity="1" /><polyline clip-path="url(#clip372)" style="stroke:#009af9; stroke-linecap:round; stroke-linejoin:round; stroke-width:4; stroke-opacity:1; fill:none" points="
  150.589,1132.77 166.802,1133.24 316.708,1138.34 406.796,1142.21 482.964,1146.15 565.703,1151.33 641.982,1157.24 723.761,1165.27 818.51,1177.91 860.61,1185.23 
  902.711,1194.04 939.63,1203.41 976.548,1214.84 1016.8,1217.26 1057.05,1221.14 1077.3,1224.46 1097.54,1228.89 1117.79,1234.62 1138.03,1241.87 1160.41,1252.02 
  1182.8,1264.9 1205.18,1281.17 1227.57,1301.76 1248.86,1326.49 1270.16,1357.8 1280.81,1376.59 1291.46,1397.95 1302.11,1422.33 1312.76,1450.32 1323.83,1484.06 
  1334.9,1523.59 1345.97,1570.37 1357.04,1626.38 1362.58,1658.67 1368.12,1694.38 1373.65,1734.07 1379.19,1778.39 1384.73,1828.17 1390.26,1884.42 1393.03,1915.37 
  1395.8,1948.45 1398.57,1983.88 1401.33,2021.92 1405.99,2092.67 1410.65,2173.35 1412.98,2218.06 1415.31,2266.13 1417.64,2317.93 1419.97,2373.9 1422.3,2434.57 
  1424.63,2500.54 1426.96,2572.53 1429.29,2651.4 1431.62,2738.15 1433.96,2834.03 1436.29,2940.54 1438.62,3059.54 1439.78,3124.42 1440.95,3193.33 1442.11,3266.66 
  1443.28,3344.84 1444.44,3428.37 1445.61,3517.82 
  "/>
<polyline clip-path="url(#clip372)" style="stroke:#009af9; stroke-linecap:round; stroke-linejoin:round; stroke-width:4; stroke-opacity:1; fill:none" points="
  1523.55,-1096.6 1524.26,-1066.48 1525.68,-1009 1527.1,-954.923 1529.95,-855.859 1532.79,-767.315 1535.64,-687.716 1538.48,-615.785 1541.33,-550.477 1544.17,-490.93 
  1547.02,-436.424 1549.86,-386.354 1552.71,-340.21 1555.55,-297.555 1558.4,-258.016 1561.24,-221.27 1564.09,-187.04 1566.93,-155.08 1572.14,-101.732 1577.35,-54.2137 
  1582.57,-11.6473 1587.78,26.6767 1592.99,61.3387 1598.2,92.8176 1603.42,121.513 1608.63,147.758 1619.05,193.994 1629.48,233.331 1639.9,267.106 1650.32,296.332 
  1659.95,319.965 1669.58,340.872 1679.21,359.446 1688.83,376.007 1708.09,404.106 1727.34,426.804 1746.85,445.481 1766.35,460.693 1785.86,473.102 1805.36,483.209 
  1827.22,492.278 1849.08,499.369 1870.94,504.811 1892.8,508.867 1932.41,513.331 1972.03,514.838 2017.39,513.772 2062.74,510.392 2104.74,505.635 2146.74,499.617 
  2229.55,484.878 2309.95,467.819 2392.37,448.276 2482.67,425.079 2613.84,388.944 2640.76,381.251 
  "/>
<polyline clip-path="url(#clip372)" style="stroke:#e26f46; stroke-linecap:round; stroke-linejoin:round; stroke-width:4; stroke-opacity:1; fill:none" points="
  1478.68,3554.31 1478.68,-1706.29 
  "/>
<polyline clip-path="url(#clip372)" style="stroke:#3da44d; stroke-linecap:round; stroke-linejoin:round; stroke-width:4; stroke-opacity:1; fill:none" points="
  -2339.58,1099.37 5130.92,1099.37 
  "/>
<path clip-path="url(#clip370)" d="
M233.595 313.055 L1055.02 313.055 L1055.02 105.695 L233.595 105.695  Z
  " fill="#ffffff" fill-rule="evenodd" fill-opacity="1"/>
<polyline clip-path="url(#clip370)" style="stroke:#000000; stroke-linecap:round; stroke-linejoin:round; stroke-width:4; stroke-opacity:1; fill:none" points="
  233.595,313.055 1055.02,313.055 1055.02,105.695 233.595,105.695 233.595,313.055 
  "/>
<polyline clip-path="url(#clip370)" style="stroke:#009af9; stroke-linecap:round; stroke-linejoin:round; stroke-width:4; stroke-opacity:1; fill:none" points="
  261.263,157.535 427.275,157.535 
  "/>
<path clip-path="url(#clip370)" d="M476.96 150.46 Q476.96 150.484 476.82 151.327 L471.479 172.618 Q471.198 173.742 470.402 174.866 Q469.629 176.014 468.388 176.998 Q467.17 178.005 465.296 178.614 Q463.445 179.246 461.314 179.246 Q457.918 179.246 456.419 178.52 Q454.943 177.818 454.943 176.319 Q454.943 175.007 455.763 174.257 Q456.583 173.531 457.52 173.531 Q458.41 173.531 458.878 174.047 Q459.346 174.562 459.346 175.218 Q459.346 175.944 458.855 176.67 Q458.363 177.419 457.379 177.701 Q458.948 178.192 461.22 178.192 Q466.022 178.192 468.083 173.11 Q468.13 173.039 468.13 173.016 L469.723 166.669 L469.652 166.622 Q469.254 167.09 468.622 167.629 Q468.013 168.144 466.701 168.777 Q465.389 169.409 464.101 169.409 Q461.408 169.409 459.557 167.348 Q457.73 165.263 457.73 161.82 Q457.73 159.314 458.738 156.808 Q459.768 154.278 461.361 152.428 Q462.977 150.554 465.038 149.383 Q467.123 148.212 469.137 148.212 Q470.542 148.212 471.737 149.055 Q472.932 149.875 473.587 151.233 Q473.704 150.109 474.337 149.64 Q474.993 149.172 475.555 149.172 Q476.187 149.172 476.562 149.523 Q476.96 149.851 476.96 150.46 M473.025 153.388 Q473.025 153.248 472.932 152.873 Q472.838 152.475 472.557 151.842 Q472.299 151.21 471.901 150.648 Q471.503 150.086 470.777 149.687 Q470.074 149.266 469.184 149.266 Q467.732 149.266 466.28 150.484 Q464.827 151.678 463.82 153.529 Q462.883 155.309 461.993 158.752 Q461.127 162.195 461.127 163.952 Q461.127 165.685 461.876 167.02 Q462.626 168.355 464.242 168.355 Q466.116 168.355 468.13 166.622 Q470.215 164.818 470.566 163.272 L472.885 154.114 Q473.025 153.552 473.025 153.388 Z" fill="#000000" fill-rule="evenodd" fill-opacity="1" /><path clip-path="url(#clip370)" d="M483.538 157.417 Q483.538 149.313 486.559 142.778 Q487.847 140.037 489.651 137.742 Q491.455 135.446 492.649 134.439 Q493.844 133.432 494.172 133.432 Q494.64 133.432 494.663 133.901 Q494.663 134.135 494.031 134.72 Q486.302 142.59 486.325 157.417 Q486.325 172.29 493.844 179.855 Q494.663 180.675 494.663 180.933 Q494.663 181.401 494.172 181.401 Q493.844 181.401 492.696 180.441 Q491.548 179.481 489.768 177.279 Q487.988 175.077 486.7 172.384 Q483.538 165.849 483.538 157.417 Z" fill="#000000" fill-rule="evenodd" fill-opacity="1" /><path clip-path="url(#clip370)" d="M522.201 151.374 Q522.201 152.685 521.381 153.435 Q520.561 154.161 519.625 154.161 Q518.734 154.161 518.266 153.646 Q517.798 153.13 517.798 152.475 Q517.798 151.585 518.453 150.812 Q519.109 150.039 520.093 149.875 Q519.133 149.266 517.704 149.266 Q516.767 149.266 515.947 149.758 Q515.151 150.249 514.659 150.882 Q514.191 151.514 513.769 152.428 Q513.371 153.318 513.207 153.857 Q513.066 154.372 512.949 154.934 L511.31 161.492 Q510.513 164.607 510.513 165.708 Q510.513 167.067 511.169 167.98 Q511.825 168.87 513.137 168.87 Q513.652 168.87 514.237 168.73 Q514.823 168.566 515.572 168.144 Q516.345 167.699 517.025 167.043 Q517.727 166.364 518.407 165.216 Q519.086 164.069 519.531 162.593 Q519.671 162.078 520.14 162.078 Q520.725 162.078 520.725 162.546 Q520.725 162.944 520.397 163.788 Q520.093 164.607 519.414 165.685 Q518.758 166.739 517.891 167.699 Q517.025 168.636 515.736 169.292 Q514.448 169.948 513.043 169.948 Q511.029 169.948 509.693 168.87 Q508.358 167.793 507.866 166.294 Q507.749 166.505 507.585 166.786 Q507.421 167.067 506.93 167.699 Q506.461 168.308 505.922 168.777 Q505.384 169.222 504.54 169.573 Q503.721 169.948 502.831 169.948 Q501.706 169.948 500.699 169.62 Q499.715 169.292 499.013 168.542 Q498.31 167.793 498.31 166.762 Q498.31 165.615 499.083 164.818 Q499.879 163.998 500.957 163.998 Q501.636 163.998 502.175 164.397 Q502.737 164.795 502.737 165.661 Q502.737 166.622 502.081 167.348 Q501.425 168.074 500.488 168.261 Q501.449 168.87 502.878 168.87 Q504.423 168.87 505.641 167.512 Q506.859 166.153 507.445 163.881 Q508.897 158.424 509.459 155.988 Q510.021 153.529 510.021 152.475 Q510.021 151.491 509.764 150.812 Q509.506 150.132 509.061 149.828 Q508.639 149.5 508.241 149.383 Q507.866 149.266 507.445 149.266 Q506.742 149.266 505.946 149.547 Q505.173 149.828 504.236 150.484 Q503.323 151.116 502.456 152.428 Q501.589 153.739 501.004 155.543 Q500.887 156.082 500.371 156.082 Q499.809 156.058 499.809 155.59 Q499.809 155.192 500.114 154.372 Q500.442 153.529 501.097 152.475 Q501.777 151.421 502.643 150.484 Q503.533 149.523 504.822 148.868 Q506.133 148.212 507.539 148.212 Q508.171 148.212 508.78 148.352 Q509.412 148.469 510.162 148.821 Q510.935 149.172 511.614 149.945 Q512.293 150.718 512.715 151.842 Q512.996 151.303 513.371 150.788 Q513.769 150.273 514.378 149.64 Q515.01 148.985 515.877 148.61 Q516.767 148.212 517.751 148.212 Q518.711 148.212 519.648 148.469 Q520.585 148.704 521.381 149.477 Q522.201 150.226 522.201 151.374 Z" fill="#000000" fill-rule="evenodd" fill-opacity="1" /><path clip-path="url(#clip370)" d="M526.821 180.933 Q526.821 180.699 527.43 180.113 Q535.159 172.243 535.159 157.417 Q535.159 142.543 527.734 135.025 Q526.821 134.158 526.821 133.901 Q526.821 133.432 527.289 133.432 Q527.617 133.432 528.765 134.392 Q529.936 135.353 531.693 137.554 Q533.473 139.756 534.784 142.45 Q537.946 148.985 537.946 157.417 Q537.946 165.521 534.925 172.056 Q533.637 174.796 531.833 177.092 Q530.03 179.387 528.835 180.394 Q527.64 181.401 527.289 181.401 Q526.821 181.401 526.821 180.933 Z" fill="#000000" fill-rule="evenodd" fill-opacity="1" /><polyline clip-path="url(#clip370)" style="stroke:#e26f46; stroke-linecap:round; stroke-linejoin:round; stroke-width:4; stroke-opacity:1; fill:none" points="
  261.263,209.375 427.275,209.375 
  "/>
<path clip-path="url(#clip370)" d="M470.776 194.717 L464.434 211.916 L477.142 211.916 L470.776 194.717 M468.137 190.11 L473.438 190.11 L486.61 224.67 L481.748 224.67 L478.6 215.805 L463.022 215.805 L459.874 224.67 L454.943 224.67 L468.137 190.11 Z" fill="#000000" fill-rule="evenodd" fill-opacity="1" /><path clip-path="url(#clip370)" d="M507.998 199.508 L507.998 203.536 Q506.193 202.61 504.248 202.147 Q502.304 201.684 500.221 201.684 Q497.049 201.684 495.452 202.656 Q493.878 203.629 493.878 205.573 Q493.878 207.055 495.012 207.911 Q496.147 208.744 499.572 209.508 L501.031 209.832 Q505.568 210.805 507.466 212.587 Q509.387 214.346 509.387 217.518 Q509.387 221.129 506.517 223.235 Q503.67 225.342 498.67 225.342 Q496.586 225.342 494.318 224.925 Q492.073 224.531 489.573 223.721 L489.573 219.323 Q491.934 220.55 494.225 221.175 Q496.517 221.777 498.762 221.777 Q501.772 221.777 503.392 220.758 Q505.012 219.717 505.012 217.842 Q505.012 216.105 503.832 215.18 Q502.674 214.254 498.716 213.397 L497.235 213.05 Q493.276 212.217 491.517 210.504 Q489.758 208.768 489.758 205.758 Q489.758 202.101 492.35 200.11 Q494.943 198.119 499.711 198.119 Q502.072 198.119 504.156 198.467 Q506.239 198.814 507.998 199.508 Z" fill="#000000" fill-rule="evenodd" fill-opacity="1" /><path clip-path="url(#clip370)" d="M521.517 186.754 L526.123 186.754 L518.577 195.457 L515.035 195.457 L521.517 186.754 M516.17 198.744 L520.429 198.744 L520.429 224.67 L516.17 224.67 L516.17 198.744 M518.299 198.119 L518.299 198.119 Z" fill="#000000" fill-rule="evenodd" fill-opacity="1" /><path clip-path="url(#clip370)" d="M550.892 209.022 L550.892 224.67 L546.632 224.67 L546.632 209.161 Q546.632 205.481 545.197 203.652 Q543.762 201.823 540.892 201.823 Q537.443 201.823 535.452 204.022 Q533.461 206.221 533.461 210.018 L533.461 224.67 L529.179 224.67 L529.179 198.744 L533.461 198.744 L533.461 202.772 Q534.989 200.434 537.049 199.277 Q539.132 198.119 541.841 198.119 Q546.308 198.119 548.6 200.897 Q550.892 203.652 550.892 209.022 Z" fill="#000000" fill-rule="evenodd" fill-opacity="1" /><path clip-path="url(#clip370)" d="M563.6 191.383 L563.6 198.744 L572.373 198.744 L572.373 202.055 L563.6 202.055 L563.6 216.129 Q563.6 219.3 564.456 220.203 Q565.336 221.105 567.998 221.105 L572.373 221.105 L572.373 224.67 L567.998 224.67 Q563.067 224.67 561.193 222.842 Q559.318 220.99 559.318 216.129 L559.318 202.055 L556.193 202.055 L556.193 198.744 L559.318 198.744 L559.318 191.383 L563.6 191.383 Z" fill="#000000" fill-rule="evenodd" fill-opacity="1" /><path clip-path="url(#clip370)" d="M588.021 201.731 Q584.595 201.731 582.604 204.416 Q580.614 207.078 580.614 211.731 Q580.614 216.383 582.581 219.068 Q584.572 221.73 588.021 221.73 Q591.424 221.73 593.415 219.045 Q595.405 216.36 595.405 211.731 Q595.405 207.124 593.415 204.439 Q591.424 201.731 588.021 201.731 M588.021 198.119 Q593.577 198.119 596.748 201.731 Q599.919 205.342 599.919 211.731 Q599.919 218.096 596.748 221.73 Q593.577 225.342 588.021 225.342 Q582.442 225.342 579.271 221.73 Q576.123 218.096 576.123 211.731 Q576.123 205.342 579.271 201.731 Q582.442 198.119 588.021 198.119 Z" fill="#000000" fill-rule="evenodd" fill-opacity="1" /><path clip-path="url(#clip370)" d="M611.192 191.383 L611.192 198.744 L619.965 198.744 L619.965 202.055 L611.192 202.055 L611.192 216.129 Q611.192 219.3 612.049 220.203 Q612.928 221.105 615.59 221.105 L619.965 221.105 L619.965 224.67 L615.59 224.67 Q610.66 224.67 608.785 222.842 Q606.91 220.99 606.91 216.129 L606.91 202.055 L603.785 202.055 L603.785 198.744 L606.91 198.744 L606.91 191.383 L611.192 191.383 Z" fill="#000000" fill-rule="evenodd" fill-opacity="1" /><path clip-path="url(#clip370)" d="M637.35 211.638 Q632.187 211.638 630.197 212.818 Q628.206 213.999 628.206 216.846 Q628.206 219.115 629.688 220.457 Q631.192 221.777 633.762 221.777 Q637.303 221.777 639.433 219.277 Q641.586 216.754 641.586 212.587 L641.586 211.638 L637.35 211.638 M645.845 209.879 L645.845 224.67 L641.586 224.67 L641.586 220.735 Q640.127 223.096 637.951 224.23 Q635.775 225.342 632.627 225.342 Q628.646 225.342 626.285 223.119 Q623.947 220.874 623.947 217.124 Q623.947 212.749 626.863 210.527 Q629.803 208.305 635.613 208.305 L641.586 208.305 L641.586 207.888 Q641.586 204.948 639.641 203.351 Q637.72 201.731 634.225 201.731 Q632.002 201.731 629.896 202.263 Q627.789 202.795 625.845 203.86 L625.845 199.925 Q628.183 199.022 630.382 198.582 Q632.581 198.119 634.664 198.119 Q640.289 198.119 643.067 201.036 Q645.845 203.953 645.845 209.879 Z" fill="#000000" fill-rule="evenodd" fill-opacity="1" /><path clip-path="url(#clip370)" d="M666.632 198.744 L671.146 198.744 L679.247 220.504 L687.349 198.744 L691.863 198.744 L682.141 224.67 L676.354 224.67 L666.632 198.744 Z" fill="#000000" fill-rule="evenodd" fill-opacity="1" /><path clip-path="url(#clip370)" d="M719.919 210.643 L719.919 212.726 L700.335 212.726 Q700.613 217.124 702.974 219.439 Q705.358 221.73 709.594 221.73 Q712.048 221.73 714.34 221.129 Q716.655 220.527 718.923 219.323 L718.923 223.351 Q716.631 224.323 714.224 224.832 Q711.817 225.342 709.34 225.342 Q703.136 225.342 699.502 221.73 Q695.891 218.119 695.891 211.962 Q695.891 205.596 699.317 201.869 Q702.766 198.119 708.599 198.119 Q713.831 198.119 716.863 201.499 Q719.919 204.856 719.919 210.643 M715.659 209.393 Q715.613 205.897 713.692 203.814 Q711.794 201.731 708.645 201.731 Q705.081 201.731 702.928 203.744 Q700.798 205.758 700.474 209.416 L715.659 209.393 Z" fill="#000000" fill-rule="evenodd" fill-opacity="1" /><path clip-path="url(#clip370)" d="M741.932 202.726 Q741.215 202.309 740.358 202.124 Q739.525 201.916 738.506 201.916 Q734.895 201.916 732.951 204.277 Q731.03 206.615 731.03 211.013 L731.03 224.67 L726.747 224.67 L726.747 198.744 L731.03 198.744 L731.03 202.772 Q732.372 200.411 734.525 199.277 Q736.678 198.119 739.756 198.119 Q740.196 198.119 740.729 198.189 Q741.261 198.235 741.909 198.351 L741.932 202.726 Z" fill="#000000" fill-rule="evenodd" fill-opacity="1" /><path clip-path="url(#clip370)" d="M750.613 191.383 L750.613 198.744 L759.386 198.744 L759.386 202.055 L750.613 202.055 L750.613 216.129 Q750.613 219.3 751.469 220.203 Q752.349 221.105 755.011 221.105 L759.386 221.105 L759.386 224.67 L755.011 224.67 Q750.08 224.67 748.205 222.842 Q746.33 220.99 746.33 216.129 L746.33 202.055 L743.205 202.055 L743.205 198.744 L746.33 198.744 L746.33 191.383 L750.613 191.383 Z" fill="#000000" fill-rule="evenodd" fill-opacity="1" /><path clip-path="url(#clip370)" d="M764.988 198.744 L769.247 198.744 L769.247 224.67 L764.988 224.67 L764.988 198.744 M764.988 188.652 L769.247 188.652 L769.247 194.045 L764.988 194.045 L764.988 188.652 Z" fill="#000000" fill-rule="evenodd" fill-opacity="1" /><path clip-path="url(#clip370)" d="M796.816 199.74 L796.816 203.721 Q795.011 202.726 793.182 202.24 Q791.376 201.731 789.525 201.731 Q785.381 201.731 783.089 204.369 Q780.798 206.985 780.798 211.731 Q780.798 216.476 783.089 219.115 Q785.381 221.73 789.525 221.73 Q791.376 221.73 793.182 221.244 Q795.011 220.735 796.816 219.74 L796.816 223.675 Q795.034 224.508 793.113 224.925 Q791.214 225.342 789.062 225.342 Q783.205 225.342 779.756 221.661 Q776.307 217.98 776.307 211.731 Q776.307 205.388 779.779 201.754 Q783.275 198.119 789.339 198.119 Q791.307 198.119 793.182 198.536 Q795.057 198.93 796.816 199.74 Z" fill="#000000" fill-rule="evenodd" fill-opacity="1" /><path clip-path="url(#clip370)" d="M816.006 211.638 Q810.844 211.638 808.853 212.818 Q806.862 213.999 806.862 216.846 Q806.862 219.115 808.344 220.457 Q809.849 221.777 812.418 221.777 Q815.96 221.777 818.089 219.277 Q820.242 216.754 820.242 212.587 L820.242 211.638 L816.006 211.638 M824.501 209.879 L824.501 224.67 L820.242 224.67 L820.242 220.735 Q818.784 223.096 816.608 224.23 Q814.432 225.342 811.284 225.342 Q807.302 225.342 804.941 223.119 Q802.603 220.874 802.603 217.124 Q802.603 212.749 805.52 210.527 Q808.46 208.305 814.27 208.305 L820.242 208.305 L820.242 207.888 Q820.242 204.948 818.298 203.351 Q816.376 201.731 812.881 201.731 Q810.659 201.731 808.552 202.263 Q806.446 202.795 804.501 203.86 L804.501 199.925 Q806.839 199.022 809.038 198.582 Q811.237 198.119 813.321 198.119 Q818.946 198.119 821.724 201.036 Q824.501 203.953 824.501 209.879 Z" fill="#000000" fill-rule="evenodd" fill-opacity="1" /><path clip-path="url(#clip370)" d="M833.274 188.652 L837.534 188.652 L837.534 224.67 L833.274 224.67 L833.274 188.652 Z" fill="#000000" fill-rule="evenodd" fill-opacity="1" /><path clip-path="url(#clip370)" d="M880.938 206.635 Q880.938 207.947 880.119 208.696 Q879.299 209.422 878.362 209.422 Q877.472 209.422 877.003 208.907 Q876.535 208.392 876.535 207.736 Q876.535 206.846 877.191 206.073 Q877.847 205.3 878.83 205.136 Q877.87 204.527 876.441 204.527 Q875.504 204.527 874.685 205.019 Q873.888 205.511 873.396 206.143 Q872.928 206.776 872.506 207.689 Q872.108 208.579 871.944 209.118 Q871.804 209.633 871.686 210.195 L870.047 216.753 Q869.25 219.869 869.25 220.97 Q869.25 222.328 869.906 223.241 Q870.562 224.132 871.874 224.132 Q872.389 224.132 872.975 223.991 Q873.56 223.827 874.31 223.405 Q875.083 222.96 875.762 222.305 Q876.465 221.625 877.144 220.478 Q877.823 219.33 878.268 217.854 Q878.409 217.339 878.877 217.339 Q879.463 217.339 879.463 217.807 Q879.463 218.206 879.135 219.049 Q878.83 219.869 878.151 220.946 Q877.495 222 876.629 222.96 Q875.762 223.897 874.474 224.553 Q873.185 225.209 871.78 225.209 Q869.766 225.209 868.431 224.132 Q867.096 223.054 866.604 221.555 Q866.487 221.766 866.323 222.047 Q866.159 222.328 865.667 222.96 Q865.198 223.569 864.66 224.038 Q864.121 224.483 863.278 224.834 Q862.458 225.209 861.568 225.209 Q860.444 225.209 859.436 224.881 Q858.453 224.553 857.75 223.804 Q857.047 223.054 857.047 222.024 Q857.047 220.876 857.82 220.079 Q858.617 219.26 859.694 219.26 Q860.373 219.26 860.912 219.658 Q861.474 220.056 861.474 220.923 Q861.474 221.883 860.818 222.609 Q860.163 223.335 859.226 223.523 Q860.186 224.132 861.615 224.132 Q863.161 224.132 864.379 222.773 Q865.597 221.415 866.182 219.143 Q867.634 213.685 868.196 211.249 Q868.759 208.79 868.759 207.736 Q868.759 206.752 868.501 206.073 Q868.243 205.394 867.798 205.089 Q867.377 204.761 866.979 204.644 Q866.604 204.527 866.182 204.527 Q865.479 204.527 864.683 204.808 Q863.91 205.089 862.973 205.745 Q862.06 206.377 861.193 207.689 Q860.327 209.001 859.741 210.804 Q859.624 211.343 859.109 211.343 Q858.546 211.319 858.546 210.851 Q858.546 210.453 858.851 209.633 Q859.179 208.79 859.835 207.736 Q860.514 206.682 861.381 205.745 Q862.271 204.785 863.559 204.129 Q864.871 203.473 866.276 203.473 Q866.908 203.473 867.517 203.613 Q868.15 203.731 868.899 204.082 Q869.672 204.433 870.351 205.206 Q871.031 205.979 871.452 207.103 Q871.733 206.565 872.108 206.049 Q872.506 205.534 873.115 204.902 Q873.748 204.246 874.614 203.871 Q875.504 203.473 876.488 203.473 Q877.448 203.473 878.385 203.731 Q879.322 203.965 880.119 204.738 Q880.938 205.487 880.938 206.635 Z" fill="#000000" fill-rule="evenodd" fill-opacity="1" /><path clip-path="url(#clip370)" d="M897.525 217.386 Q897.572 216.8 898.486 216.8 L927.881 216.8 Q929.263 216.8 929.286 217.339 Q929.286 217.925 927.975 217.901 L898.814 217.901 Q897.525 217.925 897.525 217.386 M897.525 208.017 Q897.525 207.431 898.533 207.455 L927.834 207.455 Q929.263 207.455 929.286 208.017 Q929.286 208.556 928.068 208.556 L898.486 208.556 Q897.525 208.556 897.525 208.017 Z" fill="#000000" fill-rule="evenodd" fill-opacity="1" /><path clip-path="url(#clip370)" d="M947.794 218.206 Q947.794 216.777 948.613 216.098 Q949.433 215.418 950.487 215.418 Q951.588 215.418 952.361 216.144 Q953.157 216.847 953.157 218.089 Q953.157 219.424 952.22 220.173 Q951.307 220.923 949.995 220.735 Q951.143 222.656 953.251 223.523 Q955.382 224.389 957.35 224.389 Q959.411 224.389 961.074 222.609 Q962.76 220.829 962.76 216.472 Q962.76 212.772 961.308 210.64 Q959.879 208.509 957.045 208.509 L954.937 208.509 Q954.211 208.509 954 208.439 Q953.79 208.368 953.79 207.97 Q953.79 207.502 954.516 207.408 Q955.242 207.408 956.39 207.267 Q959.177 207.174 960.652 204.761 Q961.988 202.513 961.988 199.304 Q961.988 196.376 960.582 195.158 Q959.2 193.917 957.397 193.917 Q955.71 193.917 953.86 194.619 Q952.01 195.322 951.002 196.891 Q953.977 196.891 953.977 199.304 Q953.977 200.358 953.298 201.06 Q952.642 201.74 951.541 201.74 Q950.487 201.74 949.784 201.084 Q949.082 200.405 949.082 199.257 Q949.082 196.516 951.518 194.619 Q953.977 192.722 957.584 192.722 Q961.144 192.722 963.768 194.596 Q966.414 196.47 966.414 199.351 Q966.414 202.185 964.541 204.504 Q962.667 206.822 959.692 207.783 Q963.346 208.509 965.524 210.992 Q967.703 213.451 967.703 216.472 Q967.703 220.22 964.751 222.984 Q961.8 225.724 957.49 225.724 Q953.509 225.724 950.651 223.569 Q947.794 221.415 947.794 218.206 Z" fill="#000000" fill-rule="evenodd" fill-opacity="1" /><polyline clip-path="url(#clip370)" style="stroke:#3da44d; stroke-linecap:round; stroke-linejoin:round; stroke-width:4; stroke-opacity:1; fill:none" points="
  261.263,261.215 427.275,261.215 
  "/>
<path clip-path="url(#clip370)" d="M470.776 242.208 L464.434 259.407 L477.142 259.407 L470.776 242.208 M468.137 237.602 L473.438 237.602 L486.61 272.162 L481.748 272.162 L478.6 263.296 L463.022 263.296 L459.874 272.162 L454.943 272.162 L468.137 237.602 Z" fill="#000000" fill-rule="evenodd" fill-opacity="1" /><path clip-path="url(#clip370)" d="M507.998 247 L507.998 251.027 Q506.193 250.101 504.248 249.638 Q502.304 249.176 500.221 249.176 Q497.049 249.176 495.452 250.148 Q493.878 251.12 493.878 253.064 Q493.878 254.546 495.012 255.402 Q496.147 256.236 499.572 257 L501.031 257.324 Q505.568 258.296 507.466 260.078 Q509.387 261.837 509.387 265.009 Q509.387 268.62 506.517 270.726 Q503.67 272.833 498.67 272.833 Q496.586 272.833 494.318 272.416 Q492.073 272.023 489.573 271.212 L489.573 266.814 Q491.934 268.041 494.225 268.666 Q496.517 269.268 498.762 269.268 Q501.772 269.268 503.392 268.25 Q505.012 267.208 505.012 265.333 Q505.012 263.597 503.832 262.671 Q502.674 261.745 498.716 260.888 L497.235 260.541 Q493.276 259.708 491.517 257.995 Q489.758 256.259 489.758 253.25 Q489.758 249.592 492.35 247.601 Q494.943 245.611 499.711 245.611 Q502.072 245.611 504.156 245.958 Q506.239 246.305 507.998 247 Z" fill="#000000" fill-rule="evenodd" fill-opacity="1" /><path clip-path="url(#clip370)" d="M521.517 234.245 L526.123 234.245 L518.577 242.949 L515.035 242.949 L521.517 234.245 M516.17 246.236 L520.429 246.236 L520.429 272.162 L516.17 272.162 L516.17 246.236 M518.299 245.611 L518.299 245.611 Z" fill="#000000" fill-rule="evenodd" fill-opacity="1" /><path clip-path="url(#clip370)" d="M550.892 256.513 L550.892 272.162 L546.632 272.162 L546.632 256.652 Q546.632 252.972 545.197 251.143 Q543.762 249.314 540.892 249.314 Q537.443 249.314 535.452 251.513 Q533.461 253.713 533.461 257.509 L533.461 272.162 L529.179 272.162 L529.179 246.236 L533.461 246.236 L533.461 250.263 Q534.989 247.926 537.049 246.768 Q539.132 245.611 541.841 245.611 Q546.308 245.611 548.6 248.388 Q550.892 251.143 550.892 256.513 Z" fill="#000000" fill-rule="evenodd" fill-opacity="1" /><path clip-path="url(#clip370)" d="M563.6 238.875 L563.6 246.236 L572.373 246.236 L572.373 249.546 L563.6 249.546 L563.6 263.62 Q563.6 266.791 564.456 267.694 Q565.336 268.597 567.998 268.597 L572.373 268.597 L572.373 272.162 L567.998 272.162 Q563.067 272.162 561.193 270.333 Q559.318 268.481 559.318 263.62 L559.318 249.546 L556.193 249.546 L556.193 246.236 L559.318 246.236 L559.318 238.875 L563.6 238.875 Z" fill="#000000" fill-rule="evenodd" fill-opacity="1" /><path clip-path="url(#clip370)" d="M588.021 249.222 Q584.595 249.222 582.604 251.907 Q580.614 254.569 580.614 259.222 Q580.614 263.875 582.581 266.56 Q584.572 269.222 588.021 269.222 Q591.424 269.222 593.415 266.537 Q595.405 263.851 595.405 259.222 Q595.405 254.615 593.415 251.93 Q591.424 249.222 588.021 249.222 M588.021 245.611 Q593.577 245.611 596.748 249.222 Q599.919 252.833 599.919 259.222 Q599.919 265.587 596.748 269.222 Q593.577 272.833 588.021 272.833 Q582.442 272.833 579.271 269.222 Q576.123 265.587 576.123 259.222 Q576.123 252.833 579.271 249.222 Q582.442 245.611 588.021 245.611 Z" fill="#000000" fill-rule="evenodd" fill-opacity="1" /><path clip-path="url(#clip370)" d="M611.192 238.875 L611.192 246.236 L619.965 246.236 L619.965 249.546 L611.192 249.546 L611.192 263.62 Q611.192 266.791 612.049 267.694 Q612.928 268.597 615.59 268.597 L619.965 268.597 L619.965 272.162 L615.59 272.162 Q610.66 272.162 608.785 270.333 Q606.91 268.481 606.91 263.62 L606.91 249.546 L603.785 249.546 L603.785 246.236 L606.91 246.236 L606.91 238.875 L611.192 238.875 Z" fill="#000000" fill-rule="evenodd" fill-opacity="1" /><path clip-path="url(#clip370)" d="M637.35 259.129 Q632.187 259.129 630.197 260.31 Q628.206 261.49 628.206 264.337 Q628.206 266.606 629.688 267.949 Q631.192 269.268 633.762 269.268 Q637.303 269.268 639.433 266.768 Q641.586 264.245 641.586 260.078 L641.586 259.129 L637.35 259.129 M645.845 257.37 L645.845 272.162 L641.586 272.162 L641.586 268.226 Q640.127 270.587 637.951 271.722 Q635.775 272.833 632.627 272.833 Q628.646 272.833 626.285 270.611 Q623.947 268.365 623.947 264.615 Q623.947 260.24 626.863 258.018 Q629.803 255.796 635.613 255.796 L641.586 255.796 L641.586 255.379 Q641.586 252.439 639.641 250.842 Q637.72 249.222 634.225 249.222 Q632.002 249.222 629.896 249.754 Q627.789 250.287 625.845 251.351 L625.845 247.416 Q628.183 246.514 630.382 246.074 Q632.581 245.611 634.664 245.611 Q640.289 245.611 643.067 248.527 Q645.845 251.444 645.845 257.37 Z" fill="#000000" fill-rule="evenodd" fill-opacity="1" /><path clip-path="url(#clip370)" d="M691.238 256.513 L691.238 272.162 L686.979 272.162 L686.979 256.652 Q686.979 252.972 685.544 251.143 Q684.109 249.314 681.238 249.314 Q677.789 249.314 675.798 251.513 Q673.808 253.713 673.808 257.509 L673.808 272.162 L669.525 272.162 L669.525 236.143 L673.808 236.143 L673.808 250.263 Q675.335 247.926 677.396 246.768 Q679.479 245.611 682.187 245.611 Q686.655 245.611 688.946 248.388 Q691.238 251.143 691.238 256.513 Z" fill="#000000" fill-rule="evenodd" fill-opacity="1" /><path clip-path="url(#clip370)" d="M709.78 249.222 Q706.354 249.222 704.363 251.907 Q702.372 254.569 702.372 259.222 Q702.372 263.875 704.34 266.56 Q706.331 269.222 709.78 269.222 Q713.182 269.222 715.173 266.537 Q717.164 263.851 717.164 259.222 Q717.164 254.615 715.173 251.93 Q713.182 249.222 709.78 249.222 M709.78 245.611 Q715.335 245.611 718.506 249.222 Q721.678 252.833 721.678 259.222 Q721.678 265.587 718.506 269.222 Q715.335 272.833 709.78 272.833 Q704.201 272.833 701.03 269.222 Q697.882 265.587 697.882 259.222 Q697.882 252.833 701.03 249.222 Q704.201 245.611 709.78 245.611 Z" fill="#000000" fill-rule="evenodd" fill-opacity="1" /><path clip-path="url(#clip370)" d="M743.761 250.217 Q743.043 249.801 742.187 249.615 Q741.354 249.407 740.335 249.407 Q736.724 249.407 734.78 251.768 Q732.858 254.106 732.858 258.504 L732.858 272.162 L728.576 272.162 L728.576 246.236 L732.858 246.236 L732.858 250.263 Q734.201 247.902 736.354 246.768 Q738.506 245.611 741.585 245.611 Q742.025 245.611 742.557 245.68 Q743.09 245.726 743.738 245.842 L743.761 250.217 Z" fill="#000000" fill-rule="evenodd" fill-opacity="1" /><path clip-path="url(#clip370)" d="M748.229 246.236 L752.488 246.236 L752.488 272.162 L748.229 272.162 L748.229 246.236 M748.229 236.143 L752.488 236.143 L752.488 241.537 L748.229 241.537 L748.229 236.143 Z" fill="#000000" fill-rule="evenodd" fill-opacity="1" /><path clip-path="url(#clip370)" d="M759.548 246.236 L779.779 246.236 L779.779 250.125 L763.761 268.759 L779.779 268.759 L779.779 272.162 L758.969 272.162 L758.969 268.273 L774.988 249.638 L759.548 249.638 L759.548 246.236 Z" fill="#000000" fill-rule="evenodd" fill-opacity="1" /><path clip-path="url(#clip370)" d="M796.33 249.222 Q792.904 249.222 790.914 251.907 Q788.923 254.569 788.923 259.222 Q788.923 263.875 790.89 266.56 Q792.881 269.222 796.33 269.222 Q799.733 269.222 801.724 266.537 Q803.714 263.851 803.714 259.222 Q803.714 254.615 801.724 251.93 Q799.733 249.222 796.33 249.222 M796.33 245.611 Q801.886 245.611 805.057 249.222 Q808.228 252.833 808.228 259.222 Q808.228 265.587 805.057 269.222 Q801.886 272.833 796.33 272.833 Q790.751 272.833 787.58 269.222 Q784.432 265.587 784.432 259.222 Q784.432 252.833 787.58 249.222 Q790.751 245.611 796.33 245.611 Z" fill="#000000" fill-rule="evenodd" fill-opacity="1" /><path clip-path="url(#clip370)" d="M836.839 256.513 L836.839 272.162 L832.58 272.162 L832.58 256.652 Q832.58 252.972 831.145 251.143 Q829.71 249.314 826.839 249.314 Q823.39 249.314 821.399 251.513 Q819.409 253.713 819.409 257.509 L819.409 272.162 L815.126 272.162 L815.126 246.236 L819.409 246.236 L819.409 250.263 Q820.936 247.926 822.997 246.768 Q825.08 245.611 827.788 245.611 Q832.256 245.611 834.548 248.388 Q836.839 251.143 836.839 256.513 Z" fill="#000000" fill-rule="evenodd" fill-opacity="1" /><path clip-path="url(#clip370)" d="M849.547 238.875 L849.547 246.236 L858.321 246.236 L858.321 249.546 L849.547 249.546 L849.547 263.62 Q849.547 266.791 850.404 267.694 Q851.284 268.597 853.946 268.597 L858.321 268.597 L858.321 272.162 L853.946 272.162 Q849.015 272.162 847.14 270.333 Q845.265 268.481 845.265 263.62 L845.265 249.546 L842.14 249.546 L842.14 246.236 L845.265 246.236 L845.265 238.875 L849.547 238.875 Z" fill="#000000" fill-rule="evenodd" fill-opacity="1" /><path clip-path="url(#clip370)" d="M875.705 259.129 Q870.543 259.129 868.552 260.31 Q866.561 261.49 866.561 264.337 Q866.561 266.606 868.043 267.949 Q869.547 269.268 872.117 269.268 Q875.658 269.268 877.788 266.768 Q879.941 264.245 879.941 260.078 L879.941 259.129 L875.705 259.129 M884.2 257.37 L884.2 272.162 L879.941 272.162 L879.941 268.226 Q878.482 270.587 876.307 271.722 Q874.131 272.833 870.983 272.833 Q867.001 272.833 864.64 270.611 Q862.302 268.365 862.302 264.615 Q862.302 260.24 865.219 258.018 Q868.158 255.796 873.969 255.796 L879.941 255.796 L879.941 255.379 Q879.941 252.439 877.996 250.842 Q876.075 249.222 872.58 249.222 Q870.358 249.222 868.251 249.754 Q866.145 250.287 864.2 251.351 L864.2 247.416 Q866.538 246.514 868.737 246.074 Q870.936 245.611 873.02 245.611 Q878.645 245.611 881.422 248.527 Q884.2 251.444 884.2 257.37 Z" fill="#000000" fill-rule="evenodd" fill-opacity="1" /><path clip-path="url(#clip370)" d="M892.973 236.143 L897.232 236.143 L897.232 272.162 L892.973 272.162 L892.973 236.143 Z" fill="#000000" fill-rule="evenodd" fill-opacity="1" /><path clip-path="url(#clip370)" d="M938.88 252.791 Q938.88 253.119 938.67 253.892 L934.079 272.208 Q933.072 276.284 929.792 279.141 Q926.537 281.999 922.836 281.999 Q920.611 281.999 919.182 280.804 Q917.753 279.633 917.753 277.83 Q917.753 276.237 918.597 275.464 Q919.44 274.715 920.447 274.715 Q920.775 274.715 921.126 274.808 Q921.477 274.902 921.852 275.3 Q922.227 275.698 922.227 276.378 Q922.227 277.478 921.267 278.345 Q920.798 278.743 920.353 278.837 Q919.932 278.931 919.206 278.931 Q919.487 279.586 920.002 280.031 Q920.517 280.476 921.103 280.64 Q921.688 280.828 922.063 280.875 Q922.461 280.945 922.836 280.945 Q925.834 280.945 928.129 277.923 Q928.809 277.01 929.301 276.096 Q929.816 275.206 930.191 274.106 Q930.565 273.028 930.729 272.443 Q930.917 271.857 931.245 270.522 Q929.066 272.7 926.396 272.7 Q925.272 272.7 924.265 272.396 Q923.281 272.091 922.414 271.459 Q921.548 270.803 921.032 269.655 Q920.541 268.508 920.541 266.985 Q920.541 265.369 921.173 263.167 Q921.805 260.966 923.328 256.914 Q924.148 254.642 924.148 253.541 Q924.148 253.002 924.031 252.674 Q923.913 252.323 923.679 252.206 Q923.445 252.065 923.304 252.042 Q923.187 252.018 922.953 252.018 Q921.571 252.018 920.283 253.424 Q918.995 254.829 918.105 257.968 Q917.917 258.553 917.8 258.694 Q917.683 258.834 917.332 258.834 Q916.746 258.811 916.746 258.342 Q916.746 258.155 916.957 257.429 Q917.168 256.679 917.66 255.578 Q918.175 254.454 918.878 253.447 Q919.58 252.416 920.681 251.69 Q921.805 250.964 923.094 250.964 Q924.85 250.964 925.928 252.112 Q927.029 253.236 927.029 254.899 Q927.029 255.578 926.841 256.187 Q926.677 256.773 926.068 258.342 Q923.609 264.666 923.609 267.758 Q923.609 268.508 923.726 269.14 Q923.867 269.749 924.171 270.358 Q924.476 270.944 925.085 271.295 Q925.717 271.623 926.584 271.623 Q927.684 271.623 928.715 271.108 Q929.769 270.569 930.425 269.843 Q931.104 269.117 931.502 268.508 Q931.924 267.875 932.018 267.547 L934.172 258.928 L935.133 255.087 Q935.578 253.002 935.789 252.487 Q936.07 251.995 936.562 251.737 Q937.053 251.479 937.475 251.479 Q938.061 251.479 938.459 251.831 Q938.88 252.182 938.88 252.791 Z" fill="#000000" fill-rule="evenodd" fill-opacity="1" /><path clip-path="url(#clip370)" d="M953.327 264.877 Q953.373 264.292 954.287 264.292 L983.682 264.292 Q985.064 264.292 985.087 264.83 Q985.087 265.416 983.776 265.392 L954.615 265.392 Q953.327 265.416 953.327 264.877 M953.327 255.508 Q953.327 254.923 954.334 254.946 L983.635 254.946 Q985.064 254.946 985.087 255.508 Q985.087 256.047 983.869 256.047 L954.287 256.047 Q953.327 256.047 953.327 255.508 Z" fill="#000000" fill-rule="evenodd" fill-opacity="1" /><path clip-path="url(#clip370)" d="M1003.59 244.781 L1003.59 243.282 Q1009.36 243.282 1012.33 240.213 Q1013.15 240.213 1013.29 240.401 Q1013.43 240.588 1013.43 241.455 L1013.43 268.367 Q1013.43 269.796 1014.13 270.241 Q1014.84 270.686 1017.91 270.686 L1019.43 270.686 L1019.43 272.162 Q1017.74 272.021 1011.65 272.021 Q1005.56 272.021 1003.9 272.162 L1003.9 270.686 L1005.42 270.686 Q1008.44 270.686 1009.17 270.264 Q1009.9 269.819 1009.9 268.367 L1009.9 243.516 Q1007.39 244.781 1003.59 244.781 Z" fill="#000000" fill-rule="evenodd" fill-opacity="1" /></svg>
