<?xml version="1.0" encoding="utf-8"?>
<svg xmlns="http://www.w3.org/2000/svg" xmlns:xlink="http://www.w3.org/1999/xlink" width="672" height="480" viewBox="0 0 2688 1920">
<defs>
  <clipPath id="clip470">
    <rect x="0" y="0" width="2688" height="1920"/>
  </clipPath>
</defs>
<path clip-path="url(#clip470)" d="
M0 1920 L2688 1920 L2688 0 L0 0  Z
  " fill="#ffffff" fill-rule="evenodd" fill-opacity="1"/>
<defs>
  <clipPath id="clip471">
    <rect x="537" y="0" width="1883" height="1883"/>
  </clipPath>
</defs>
<path clip-path="url(#clip470)" d="
M159.154 1800.78 L2640.76 1800.78 L2640.76 47.2441 L159.154 47.2441  Z
  " fill="#ffffff" fill-rule="evenodd" fill-opacity="1"/>
<defs>
  <clipPath id="clip472">
    <rect x="159" y="47" width="2483" height="1755"/>
  </clipPath>
</defs>
<polyline clip-path="url(#clip472)" style="stroke:#000000; stroke-linecap:round; stroke-linejoin:round; stroke-width:2; stroke-opacity:0.1; fill:none" points="
  463.502,1800.78 463.502,47.2441 
  "/>
<polyline clip-path="url(#clip472)" style="stroke:#000000; stroke-linecap:round; stroke-linejoin:round; stroke-width:2; stroke-opacity:0.1; fill:none" points="
  931.728,1800.78 931.728,47.2441 
  "/>
<polyline clip-path="url(#clip472)" style="stroke:#000000; stroke-linecap:round; stroke-linejoin:round; stroke-width:2; stroke-opacity:0.1; fill:none" points="
  1399.96,1800.78 1399.96,47.2441 
  "/>
<polyline clip-path="url(#clip472)" style="stroke:#000000; stroke-linecap:round; stroke-linejoin:round; stroke-width:2; stroke-opacity:0.1; fill:none" points="
  1868.18,1800.78 1868.18,47.2441 
  "/>
<polyline clip-path="url(#clip472)" style="stroke:#000000; stroke-linecap:round; stroke-linejoin:round; stroke-width:2; stroke-opacity:0.1; fill:none" points="
  2336.41,1800.78 2336.41,47.2441 
  "/>
<polyline clip-path="url(#clip470)" style="stroke:#000000; stroke-linecap:round; stroke-linejoin:round; stroke-width:4; stroke-opacity:1; fill:none" points="
  159.154,1800.78 2640.76,1800.78 
  "/>
<polyline clip-path="url(#clip470)" style="stroke:#000000; stroke-linecap:round; stroke-linejoin:round; stroke-width:4; stroke-opacity:1; fill:none" points="
  463.502,1800.78 463.502,1781.88 
  "/>
<polyline clip-path="url(#clip470)" style="stroke:#000000; stroke-linecap:round; stroke-linejoin:round; stroke-width:4; stroke-opacity:1; fill:none" points="
  931.728,1800.78 931.728,1781.88 
  "/>
<polyline clip-path="url(#clip470)" style="stroke:#000000; stroke-linecap:round; stroke-linejoin:round; stroke-width:4; stroke-opacity:1; fill:none" points="
  1399.96,1800.78 1399.96,1781.88 
  "/>
<polyline clip-path="url(#clip470)" style="stroke:#000000; stroke-linecap:round; stroke-linejoin:round; stroke-width:4; stroke-opacity:1; fill:none" points="
  1868.18,1800.78 1868.18,1781.88 
  "/>
<polyline clip-path="url(#clip470)" style="stroke:#000000; stroke-linecap:round; stroke-linejoin:round; stroke-width:4; stroke-opacity:1; fill:none" points="
  2336.41,1800.78 2336.41,1781.88 
  "/>
<path clip-path="url(#clip470)" d="M432.402 1848.65 L462.078 1848.65 L462.078 1852.59 L432.402 1852.59 L432.402 1848.65 Z" fill="#000000" fill-rule="evenodd" fill-opacity="1" /><path clip-path="url(#clip470)" d="M485.018 1835 L473.212 1853.45 L485.018 1853.45 L485.018 1835 M483.791 1830.92 L489.67 1830.92 L489.67 1853.45 L494.601 1853.45 L494.601 1857.34 L489.67 1857.34 L489.67 1865.48 L485.018 1865.48 L485.018 1857.34 L469.416 1857.34 L469.416 1852.82 L483.791 1830.92 Z" fill="#000000" fill-rule="evenodd" fill-opacity="1" /><path clip-path="url(#clip470)" d="M901.671 1848.65 L931.346 1848.65 L931.346 1852.59 L901.671 1852.59 L901.671 1848.65 Z" fill="#000000" fill-rule="evenodd" fill-opacity="1" /><path clip-path="url(#clip470)" d="M945.467 1861.55 L961.786 1861.55 L961.786 1865.48 L939.842 1865.48 L939.842 1861.55 Q942.504 1858.79 947.087 1854.16 Q951.693 1849.51 952.874 1848.17 Q955.119 1845.65 955.999 1843.91 Q956.902 1842.15 956.902 1840.46 Q956.902 1837.71 954.957 1835.97 Q953.036 1834.23 949.934 1834.23 Q947.735 1834.23 945.281 1835 Q942.851 1835.76 940.073 1837.31 L940.073 1832.59 Q942.897 1831.46 945.351 1830.88 Q947.805 1830.3 949.842 1830.3 Q955.212 1830.3 958.406 1832.98 Q961.601 1835.67 961.601 1840.16 Q961.601 1842.29 960.791 1844.21 Q960.004 1846.11 957.897 1848.7 Q957.318 1849.37 954.217 1852.59 Q951.115 1855.78 945.467 1861.55 Z" fill="#000000" fill-rule="evenodd" fill-opacity="1" /><path clip-path="url(#clip470)" d="M1399.96 1834 Q1396.34 1834 1394.52 1837.57 Q1392.71 1841.11 1392.71 1848.24 Q1392.71 1855.34 1394.52 1858.91 Q1396.34 1862.45 1399.96 1862.45 Q1403.59 1862.45 1405.39 1858.91 Q1407.22 1855.34 1407.22 1848.24 Q1407.22 1841.11 1405.39 1837.57 Q1403.59 1834 1399.96 1834 M1399.96 1830.3 Q1405.77 1830.3 1408.82 1834.9 Q1411.9 1839.49 1411.9 1848.24 Q1411.9 1856.96 1408.82 1861.57 Q1405.77 1866.15 1399.96 1866.15 Q1394.14 1866.15 1391.07 1861.57 Q1388.01 1856.96 1388.01 1848.24 Q1388.01 1839.49 1391.07 1834.9 Q1394.14 1830.3 1399.96 1830.3 Z" fill="#000000" fill-rule="evenodd" fill-opacity="1" /><path clip-path="url(#clip470)" d="M1862.83 1861.55 L1879.15 1861.55 L1879.15 1865.48 L1857.21 1865.48 L1857.21 1861.55 Q1859.87 1858.79 1864.45 1854.16 Q1869.06 1849.51 1870.24 1848.17 Q1872.49 1845.65 1873.37 1843.91 Q1874.27 1842.15 1874.27 1840.46 Q1874.27 1837.71 1872.33 1835.97 Q1870.4 1834.23 1867.3 1834.23 Q1865.1 1834.23 1862.65 1835 Q1860.22 1835.76 1857.44 1837.31 L1857.44 1832.59 Q1860.27 1831.46 1862.72 1830.88 Q1865.17 1830.3 1867.21 1830.3 Q1872.58 1830.3 1875.77 1832.98 Q1878.97 1835.67 1878.97 1840.16 Q1878.97 1842.29 1878.16 1844.21 Q1877.37 1846.11 1875.27 1848.7 Q1874.69 1849.37 1871.58 1852.59 Q1868.48 1855.78 1862.83 1861.55 Z" fill="#000000" fill-rule="evenodd" fill-opacity="1" /><path clip-path="url(#clip470)" d="M2339.42 1835 L2327.61 1853.45 L2339.42 1853.45 L2339.42 1835 M2338.19 1830.92 L2344.07 1830.92 L2344.07 1853.45 L2349 1853.45 L2349 1857.34 L2344.07 1857.34 L2344.07 1865.48 L2339.42 1865.48 L2339.42 1857.34 L2323.82 1857.34 L2323.82 1852.82 L2338.19 1830.92 Z" fill="#000000" fill-rule="evenodd" fill-opacity="1" /><polyline clip-path="url(#clip472)" style="stroke:#000000; stroke-linecap:round; stroke-linejoin:round; stroke-width:2; stroke-opacity:0.1; fill:none" points="
  159.154,1455.9 2640.76,1455.9 
  "/>
<polyline clip-path="url(#clip472)" style="stroke:#000000; stroke-linecap:round; stroke-linejoin:round; stroke-width:2; stroke-opacity:0.1; fill:none" points="
  159.154,1048.16 2640.76,1048.16 
  "/>
<polyline clip-path="url(#clip472)" style="stroke:#000000; stroke-linecap:round; stroke-linejoin:round; stroke-width:2; stroke-opacity:0.1; fill:none" points="
  159.154,640.413 2640.76,640.413 
  "/>
<polyline clip-path="url(#clip472)" style="stroke:#000000; stroke-linecap:round; stroke-linejoin:round; stroke-width:2; stroke-opacity:0.1; fill:none" points="
  159.154,232.67 2640.76,232.67 
  "/>
<polyline clip-path="url(#clip470)" style="stroke:#000000; stroke-linecap:round; stroke-linejoin:round; stroke-width:4; stroke-opacity:1; fill:none" points="
  159.154,1800.78 159.154,47.2441 
  "/>
<polyline clip-path="url(#clip470)" style="stroke:#000000; stroke-linecap:round; stroke-linejoin:round; stroke-width:4; stroke-opacity:1; fill:none" points="
  159.154,1455.9 178.052,1455.9 
  "/>
<polyline clip-path="url(#clip470)" style="stroke:#000000; stroke-linecap:round; stroke-linejoin:round; stroke-width:4; stroke-opacity:1; fill:none" points="
  159.154,1048.16 178.052,1048.16 
  "/>
<polyline clip-path="url(#clip470)" style="stroke:#000000; stroke-linecap:round; stroke-linejoin:round; stroke-width:4; stroke-opacity:1; fill:none" points="
  159.154,640.413 178.052,640.413 
  "/>
<polyline clip-path="url(#clip470)" style="stroke:#000000; stroke-linecap:round; stroke-linejoin:round; stroke-width:4; stroke-opacity:1; fill:none" points="
  159.154,232.67 178.052,232.67 
  "/>
<path clip-path="url(#clip470)" d="M61.6585 1441.7 Q58.0475 1441.7 56.2188 1445.26 Q54.4132 1448.81 54.4132 1455.94 Q54.4132 1463.04 56.2188 1466.61 Q58.0475 1470.15 61.6585 1470.15 Q65.2928 1470.15 67.0983 1466.61 Q68.927 1463.04 68.927 1455.94 Q68.927 1448.81 67.0983 1445.26 Q65.2928 1441.7 61.6585 1441.7 M61.6585 1438 Q67.4687 1438 70.5242 1442.6 Q73.6029 1447.19 73.6029 1455.94 Q73.6029 1464.66 70.5242 1469.27 Q67.4687 1473.85 61.6585 1473.85 Q55.8484 1473.85 52.7697 1469.27 Q49.7142 1464.66 49.7142 1455.94 Q49.7142 1447.19 52.7697 1442.6 Q55.8484 1438 61.6585 1438 Z" fill="#000000" fill-rule="evenodd" fill-opacity="1" /><path clip-path="url(#clip470)" d="M81.8205 1467.3 L86.7047 1467.3 L86.7047 1473.18 L81.8205 1473.18 L81.8205 1467.3 Z" fill="#000000" fill-rule="evenodd" fill-opacity="1" /><path clip-path="url(#clip470)" d="M106.89 1441.7 Q103.279 1441.7 101.45 1445.26 Q99.6445 1448.81 99.6445 1455.94 Q99.6445 1463.04 101.45 1466.61 Q103.279 1470.15 106.89 1470.15 Q110.524 1470.15 112.33 1466.61 Q114.158 1463.04 114.158 1455.94 Q114.158 1448.81 112.33 1445.26 Q110.524 1441.7 106.89 1441.7 M106.89 1438 Q112.7 1438 115.755 1442.6 Q118.834 1447.19 118.834 1455.94 Q118.834 1464.66 115.755 1469.27 Q112.7 1473.85 106.89 1473.85 Q101.08 1473.85 98.0009 1469.27 Q94.9454 1464.66 94.9454 1455.94 Q94.9454 1447.19 98.0009 1442.6 Q101.08 1438 106.89 1438 Z" fill="#000000" fill-rule="evenodd" fill-opacity="1" /><path clip-path="url(#clip470)" d="M62.3067 1033.96 Q58.6956 1033.96 56.8669 1037.52 Q55.0614 1041.06 55.0614 1048.19 Q55.0614 1055.3 56.8669 1058.86 Q58.6956 1062.4 62.3067 1062.4 Q65.9409 1062.4 67.7465 1058.86 Q69.5752 1055.3 69.5752 1048.19 Q69.5752 1041.06 67.7465 1037.52 Q65.9409 1033.96 62.3067 1033.96 M62.3067 1030.25 Q68.1168 1030.25 71.1724 1034.86 Q74.2511 1039.44 74.2511 1048.19 Q74.2511 1056.92 71.1724 1061.53 Q68.1168 1066.11 62.3067 1066.11 Q56.4965 1066.11 53.4178 1061.53 Q50.3623 1056.92 50.3623 1048.19 Q50.3623 1039.44 53.4178 1034.86 Q56.4965 1030.25 62.3067 1030.25 Z" fill="#000000" fill-rule="evenodd" fill-opacity="1" /><path clip-path="url(#clip470)" d="M82.4686 1059.56 L87.3528 1059.56 L87.3528 1065.44 L82.4686 1065.44 L82.4686 1059.56 Z" fill="#000000" fill-rule="evenodd" fill-opacity="1" /><path clip-path="url(#clip470)" d="M111.705 1046.8 Q115.061 1047.52 116.936 1049.79 Q118.834 1052.06 118.834 1055.39 Q118.834 1060.51 115.316 1063.31 Q111.797 1066.11 105.316 1066.11 Q103.14 1066.11 100.825 1065.67 Q98.5333 1065.25 96.0797 1064.4 L96.0797 1059.88 Q98.0241 1061.02 100.339 1061.59 Q102.654 1062.17 105.177 1062.17 Q109.575 1062.17 111.867 1060.44 Q114.181 1058.7 114.181 1055.39 Q114.181 1052.34 112.029 1050.62 Q109.899 1048.89 106.08 1048.89 L102.052 1048.89 L102.052 1045.04 L106.265 1045.04 Q109.714 1045.04 111.543 1043.68 Q113.371 1042.29 113.371 1039.7 Q113.371 1037.03 111.473 1035.62 Q109.598 1034.19 106.08 1034.19 Q104.158 1034.19 101.959 1034.6 Q99.7602 1035.02 97.1213 1035.9 L97.1213 1031.73 Q99.7833 1030.99 102.098 1030.62 Q104.436 1030.25 106.496 1030.25 Q111.82 1030.25 114.922 1032.68 Q118.024 1035.09 118.024 1039.21 Q118.024 1042.08 116.38 1044.07 Q114.737 1046.04 111.705 1046.8 Z" fill="#000000" fill-rule="evenodd" fill-opacity="1" /><path clip-path="url(#clip470)" d="M61.4965 626.212 Q57.8854 626.212 56.0567 629.777 Q54.2512 633.319 54.2512 640.448 Q54.2512 647.555 56.0567 651.119 Q57.8854 654.661 61.4965 654.661 Q65.1307 654.661 66.9363 651.119 Q68.765 647.555 68.765 640.448 Q68.765 633.319 66.9363 629.777 Q65.1307 626.212 61.4965 626.212 M61.4965 622.508 Q67.3067 622.508 70.3622 627.115 Q73.4409 631.698 73.4409 640.448 Q73.4409 649.175 70.3622 653.781 Q67.3067 658.365 61.4965 658.365 Q55.6864 658.365 52.6077 653.781 Q49.5521 649.175 49.5521 640.448 Q49.5521 631.698 52.6077 627.115 Q55.6864 622.508 61.4965 622.508 Z" fill="#000000" fill-rule="evenodd" fill-opacity="1" /><path clip-path="url(#clip470)" d="M81.6584 651.814 L86.5427 651.814 L86.5427 657.693 L81.6584 657.693 L81.6584 651.814 Z" fill="#000000" fill-rule="evenodd" fill-opacity="1" /><path clip-path="url(#clip470)" d="M107.306 638.55 Q104.158 638.55 102.306 640.703 Q100.478 642.856 100.478 646.606 Q100.478 650.332 102.306 652.508 Q104.158 654.661 107.306 654.661 Q110.455 654.661 112.283 652.508 Q114.135 650.332 114.135 646.606 Q114.135 642.856 112.283 640.703 Q110.455 638.55 107.306 638.55 M116.589 623.897 L116.589 628.157 Q114.83 627.323 113.024 626.883 Q111.242 626.444 109.482 626.444 Q104.853 626.444 102.399 629.569 Q99.9685 632.694 99.6213 639.013 Q100.987 636.999 103.047 635.934 Q105.107 634.846 107.584 634.846 Q112.793 634.846 115.802 638.018 Q118.834 641.166 118.834 646.606 Q118.834 651.93 115.686 655.147 Q112.538 658.365 107.306 658.365 Q101.311 658.365 98.1398 653.781 Q94.9685 649.175 94.9685 640.448 Q94.9685 632.254 98.8574 627.393 Q102.746 622.508 109.297 622.508 Q111.056 622.508 112.839 622.856 Q114.644 623.203 116.589 623.897 Z" fill="#000000" fill-rule="evenodd" fill-opacity="1" /><path clip-path="url(#clip470)" d="M61.8437 218.469 Q58.2326 218.469 56.4039 222.033 Q54.5984 225.575 54.5984 232.705 Q54.5984 239.811 56.4039 243.376 Q58.2326 246.918 61.8437 246.918 Q65.478 246.918 67.2835 243.376 Q69.1122 239.811 69.1122 232.705 Q69.1122 225.575 67.2835 222.033 Q65.478 218.469 61.8437 218.469 M61.8437 214.765 Q67.6539 214.765 70.7094 219.371 Q73.7881 223.955 73.7881 232.705 Q73.7881 241.431 70.7094 246.038 Q67.6539 250.621 61.8437 250.621 Q56.0336 250.621 52.9549 246.038 Q49.8993 241.431 49.8993 232.705 Q49.8993 223.955 52.9549 219.371 Q56.0336 214.765 61.8437 214.765 Z" fill="#000000" fill-rule="evenodd" fill-opacity="1" /><path clip-path="url(#clip470)" d="M82.0057 244.07 L86.8899 244.07 L86.8899 249.95 L82.0057 249.95 L82.0057 244.07 Z" fill="#000000" fill-rule="evenodd" fill-opacity="1" /><path clip-path="url(#clip470)" d="M97.2139 249.232 L97.2139 244.973 Q98.9732 245.806 100.779 246.246 Q102.584 246.686 104.32 246.686 Q108.95 246.686 111.38 243.584 Q113.834 240.459 114.181 234.117 Q112.839 236.107 110.779 237.172 Q108.718 238.237 106.218 238.237 Q101.033 238.237 98.0009 235.112 Q94.9917 231.964 94.9917 226.524 Q94.9917 221.2 98.1398 217.982 Q101.288 214.765 106.519 214.765 Q112.515 214.765 115.663 219.371 Q118.834 223.955 118.834 232.705 Q118.834 240.876 114.945 245.76 Q111.08 250.621 104.529 250.621 Q102.769 250.621 100.964 250.274 Q99.1583 249.927 97.2139 249.232 M106.519 234.58 Q109.668 234.58 111.496 232.427 Q113.348 230.274 113.348 226.524 Q113.348 222.797 111.496 220.645 Q109.668 218.469 106.519 218.469 Q103.371 218.469 101.519 220.645 Q99.6907 222.797 99.6907 226.524 Q99.6907 230.274 101.519 232.427 Q103.371 234.58 106.519 234.58 Z" fill="#000000" fill-rule="evenodd" fill-opacity="1" /><polyline clip-path="url(#clip472)" style="stroke:#009af9; stroke-linecap:round; stroke-linejoin:round; stroke-width:4; stroke-opacity:1; fill:none" points="
  229.388,1716.56 233.199,1718.64 237.009,1720.66 240.82,1722.62 244.63,1724.53 279.864,1739.24 315.098,1748.3 332.715,1750.53 350.331,1751.14 367.948,1750.07 
  385.565,1747.26 406.739,1741.54 427.913,1733.18 449.087,1722.13 470.261,1708.36 488.163,1694.56 506.066,1678.79 523.968,1661.04 541.87,1641.33 561.317,1617.71 
  580.764,1591.83 600.211,1563.73 619.658,1533.47 637.587,1503.72 655.515,1472.24 673.443,1439.11 691.372,1404.41 710.593,1365.54 729.814,1325.08 749.035,1283.13 
  768.256,1239.83 790.526,1188.15 812.795,1135.07 835.065,1080.81 857.334,1025.63 936.497,825.92 1005.91,653.473 1024.84,608.074 1043.76,563.681 1062.68,520.458 
  1081.6,478.568 1100.63,437.931 1119.67,398.957 1138.7,361.796 1157.73,326.59 1178.78,290.105 1199.82,256.351 1220.87,225.488 1241.91,197.664 1261.93,174.133 
  1281.95,153.576 1301.98,136.084 1322,121.732 1342.82,110.207 1363.64,102.2 1384.46,97.7477 1405.28,96.8724 1422.8,98.9118 1440.33,103.482 1457.85,110.567 
  1475.38,120.145 1496.77,135.168 1518.17,153.782 1539.57,175.893 1560.96,201.392 1580.56,227.616 1600.16,256.467 1619.76,287.826 1639.37,321.563 1657.47,354.714 
  1675.57,389.659 1693.67,426.275 1711.78,464.436 1730.11,504.531 1748.45,545.933 1766.79,588.496 1785.12,632.073 1826.23,732.646 1867.33,835.809 1904.57,930.069 
  1941.82,1023.74 1963.14,1076.61 1984.46,1128.66 2005.78,1179.66 2027.1,1229.4 2046.85,1274.16 2066.59,1317.53 2086.33,1359.36 2106.07,1399.51 2125.53,1437.34 
  2145,1473.32 2164.46,1507.35 2183.92,1539.35 2202.82,1568.39 2221.72,1595.38 2240.61,1620.27 2259.51,1643.02 2278.88,1664.09 2298.25,1682.86 2317.63,1699.31 
  2337,1713.45 2358.22,1726.3 2379.45,1736.43 2400.67,1743.87 2421.9,1748.68 2437.31,1750.57 2452.73,1751.15 2468.14,1750.45 2483.56,1748.51 2514.39,1741.09 
  2545.22,1729.27 2551.55,1726.34 2557.87,1723.24 2564.2,1719.98 2570.52,1716.56 
  "/>
<path clip-path="url(#clip470)" d="
M2257.45 209.375 L2558.04 209.375 L2558.04 105.695 L2257.45 105.695  Z
  " fill="#ffffff" fill-rule="evenodd" fill-opacity="1"/>
<polyline clip-path="url(#clip470)" style="stroke:#000000; stroke-linecap:round; stroke-linejoin:round; stroke-width:4; stroke-opacity:1; fill:none" points="
  2257.45,209.375 2558.04,209.375 2558.04,105.695 2257.45,105.695 2257.45,209.375 
  "/>
<polyline clip-path="url(#clip470)" style="stroke:#009af9; stroke-linecap:round; stroke-linejoin:round; stroke-width:4; stroke-opacity:1; fill:none" points="
  2285.02,157.535 2450.46,157.535 
  "/>
<path clip-path="url(#clip470)" d="M2491.87 177.223 Q2490.07 181.852 2488.36 183.264 Q2486.64 184.676 2483.77 184.676 L2480.37 184.676 L2480.37 181.112 L2482.87 181.112 Q2484.63 181.112 2485.6 180.278 Q2486.57 179.445 2487.75 176.343 L2488.52 174.399 L2478.03 148.889 L2482.55 148.889 L2490.65 169.167 L2498.75 148.889 L2503.26 148.889 L2491.87 177.223 Z" fill="#000000" fill-rule="evenodd" fill-opacity="1" /><path clip-path="url(#clip470)" d="M2510.56 170.88 L2518.19 170.88 L2518.19 144.515 L2509.88 146.181 L2509.88 141.922 L2518.15 140.255 L2522.82 140.255 L2522.82 170.88 L2530.46 170.88 L2530.46 174.815 L2510.56 174.815 L2510.56 170.88 Z" fill="#000000" fill-rule="evenodd" fill-opacity="1" /></svg>
