<?xml version="1.0" encoding="utf-8"?>
<svg xmlns="http://www.w3.org/2000/svg" xmlns:xlink="http://www.w3.org/1999/xlink" width="528" height="336" viewBox="0 0 2112 1344">
<defs>
  <clipPath id="clip860">
    <rect x="0" y="0" width="2112" height="1344"/>
  </clipPath>
</defs>
<path clip-path="url(#clip860)" d="M0 1344 L2112 1344 L2112 0 L0 0  Z" fill="#ffffff" fill-rule="evenodd" fill-opacity="1"/>
<defs>
  <clipPath id="clip861">
    <rect x="422" y="0" width="1479" height="1344"/>
  </clipPath>
</defs>
<path clip-path="url(#clip860)" d="M191.056 1234.58 L2064.76 1234.58 L2064.76 47.2441 L191.056 47.2441  Z" fill="#ffffff" fill-rule="evenodd" fill-opacity="1"/>
<defs>
  <clipPath id="clip862">
    <rect x="191" y="47" width="1875" height="1188"/>
  </clipPath>
</defs>
<polyline clip-path="url(#clip862)" style="stroke:#000000; stroke-linecap:round; stroke-linejoin:round; stroke-width:2; stroke-opacity:0.1; fill:none" points="287.758,1234.58 287.758,47.2441 "/>
<polyline clip-path="url(#clip862)" style="stroke:#000000; stroke-linecap:round; stroke-linejoin:round; stroke-width:2; stroke-opacity:0.1; fill:none" points="567.808,1234.58 567.808,47.2441 "/>
<polyline clip-path="url(#clip862)" style="stroke:#000000; stroke-linecap:round; stroke-linejoin:round; stroke-width:2; stroke-opacity:0.1; fill:none" points="847.857,1234.58 847.857,47.2441 "/>
<polyline clip-path="url(#clip862)" style="stroke:#000000; stroke-linecap:round; stroke-linejoin:round; stroke-width:2; stroke-opacity:0.1; fill:none" points="1127.91,1234.58 1127.91,47.2441 "/>
<polyline clip-path="url(#clip862)" style="stroke:#000000; stroke-linecap:round; stroke-linejoin:round; stroke-width:2; stroke-opacity:0.1; fill:none" points="1407.96,1234.58 1407.96,47.2441 "/>
<polyline clip-path="url(#clip862)" style="stroke:#000000; stroke-linecap:round; stroke-linejoin:round; stroke-width:2; stroke-opacity:0.1; fill:none" points="1688,1234.58 1688,47.2441 "/>
<polyline clip-path="url(#clip862)" style="stroke:#000000; stroke-linecap:round; stroke-linejoin:round; stroke-width:2; stroke-opacity:0.1; fill:none" points="1968.05,1234.58 1968.05,47.2441 "/>
<polyline clip-path="url(#clip860)" style="stroke:#000000; stroke-linecap:round; stroke-linejoin:round; stroke-width:4; stroke-opacity:1; fill:none" points="191.056,1234.58 2064.76,1234.58 "/>
<polyline clip-path="url(#clip860)" style="stroke:#000000; stroke-linecap:round; stroke-linejoin:round; stroke-width:4; stroke-opacity:1; fill:none" points="287.758,1234.58 287.758,1215.68 "/>
<polyline clip-path="url(#clip860)" style="stroke:#000000; stroke-linecap:round; stroke-linejoin:round; stroke-width:4; stroke-opacity:1; fill:none" points="567.808,1234.58 567.808,1215.68 "/>
<polyline clip-path="url(#clip860)" style="stroke:#000000; stroke-linecap:round; stroke-linejoin:round; stroke-width:4; stroke-opacity:1; fill:none" points="847.857,1234.58 847.857,1215.68 "/>
<polyline clip-path="url(#clip860)" style="stroke:#000000; stroke-linecap:round; stroke-linejoin:round; stroke-width:4; stroke-opacity:1; fill:none" points="1127.91,1234.58 1127.91,1215.68 "/>
<polyline clip-path="url(#clip860)" style="stroke:#000000; stroke-linecap:round; stroke-linejoin:round; stroke-width:4; stroke-opacity:1; fill:none" points="1407.96,1234.58 1407.96,1215.68 "/>
<polyline clip-path="url(#clip860)" style="stroke:#000000; stroke-linecap:round; stroke-linejoin:round; stroke-width:4; stroke-opacity:1; fill:none" points="1688,1234.58 1688,1215.68 "/>
<polyline clip-path="url(#clip860)" style="stroke:#000000; stroke-linecap:round; stroke-linejoin:round; stroke-width:4; stroke-opacity:1; fill:none" points="1968.05,1234.58 1968.05,1215.68 "/>
<path clip-path="url(#clip860)" d="M234.784 1277.85 L264.46 1277.85 L264.46 1281.78 L234.784 1281.78 L234.784 1277.85 Z" fill="#000000" fill-rule="nonzero" fill-opacity="1" /><path clip-path="url(#clip860)" d="M275.363 1290.74 L283.001 1290.74 L283.001 1264.37 L274.691 1266.04 L274.691 1261.78 L282.955 1260.11 L287.631 1260.11 L287.631 1290.74 L295.27 1290.74 L295.27 1294.67 L275.363 1294.67 L275.363 1290.74 Z" fill="#000000" fill-rule="nonzero" fill-opacity="1" /><path clip-path="url(#clip860)" d="M304.714 1288.8 L309.598 1288.8 L309.598 1294.67 L304.714 1294.67 L304.714 1288.8 Z" fill="#000000" fill-rule="nonzero" fill-opacity="1" /><path clip-path="url(#clip860)" d="M319.83 1260.11 L338.186 1260.11 L338.186 1264.05 L324.112 1264.05 L324.112 1272.52 Q325.131 1272.17 326.149 1272.01 Q327.168 1271.83 328.186 1271.83 Q333.973 1271.83 337.353 1275 Q340.733 1278.17 340.733 1283.59 Q340.733 1289.17 337.26 1292.27 Q333.788 1295.35 327.469 1295.35 Q325.293 1295.35 323.024 1294.98 Q320.779 1294.61 318.372 1293.86 L318.372 1289.17 Q320.455 1290.3 322.677 1290.86 Q324.899 1291.41 327.376 1291.41 Q331.381 1291.41 333.719 1289.3 Q336.057 1287.2 336.057 1283.59 Q336.057 1279.98 333.719 1277.87 Q331.381 1275.76 327.376 1275.76 Q325.501 1275.76 323.626 1276.18 Q321.774 1276.6 319.83 1277.48 L319.83 1260.11 Z" fill="#000000" fill-rule="nonzero" fill-opacity="1" /><path clip-path="url(#clip860)" d="M514.336 1277.85 L544.011 1277.85 L544.011 1281.78 L514.336 1281.78 L514.336 1277.85 Z" fill="#000000" fill-rule="nonzero" fill-opacity="1" /><path clip-path="url(#clip860)" d="M554.914 1290.74 L562.553 1290.74 L562.553 1264.37 L554.243 1266.04 L554.243 1261.78 L562.507 1260.11 L567.183 1260.11 L567.183 1290.74 L574.821 1290.74 L574.821 1294.67 L554.914 1294.67 L554.914 1290.74 Z" fill="#000000" fill-rule="nonzero" fill-opacity="1" /><path clip-path="url(#clip860)" d="M584.266 1288.8 L589.15 1288.8 L589.15 1294.67 L584.266 1294.67 L584.266 1288.8 Z" fill="#000000" fill-rule="nonzero" fill-opacity="1" /><path clip-path="url(#clip860)" d="M609.335 1263.19 Q605.724 1263.19 603.895 1266.76 Q602.09 1270.3 602.09 1277.43 Q602.09 1284.54 603.895 1288.1 Q605.724 1291.64 609.335 1291.64 Q612.969 1291.64 614.775 1288.1 Q616.604 1284.54 616.604 1277.43 Q616.604 1270.3 614.775 1266.76 Q612.969 1263.19 609.335 1263.19 M609.335 1259.49 Q615.145 1259.49 618.201 1264.1 Q621.279 1268.68 621.279 1277.43 Q621.279 1286.16 618.201 1290.76 Q615.145 1295.35 609.335 1295.35 Q603.525 1295.35 600.446 1290.76 Q597.391 1286.16 597.391 1277.43 Q597.391 1268.68 600.446 1264.1 Q603.525 1259.49 609.335 1259.49 Z" fill="#000000" fill-rule="nonzero" fill-opacity="1" /><path clip-path="url(#clip860)" d="M794.882 1277.85 L824.558 1277.85 L824.558 1281.78 L794.882 1281.78 L794.882 1277.85 Z" fill="#000000" fill-rule="nonzero" fill-opacity="1" /><path clip-path="url(#clip860)" d="M844.651 1263.19 Q841.04 1263.19 839.211 1266.76 Q837.405 1270.3 837.405 1277.43 Q837.405 1284.54 839.211 1288.1 Q841.04 1291.64 844.651 1291.64 Q848.285 1291.64 850.091 1288.1 Q851.919 1284.54 851.919 1277.43 Q851.919 1270.3 850.091 1266.76 Q848.285 1263.19 844.651 1263.19 M844.651 1259.49 Q850.461 1259.49 853.516 1264.1 Q856.595 1268.68 856.595 1277.43 Q856.595 1286.16 853.516 1290.76 Q850.461 1295.35 844.651 1295.35 Q838.841 1295.35 835.762 1290.76 Q832.706 1286.16 832.706 1277.43 Q832.706 1268.68 835.762 1264.1 Q838.841 1259.49 844.651 1259.49 Z" fill="#000000" fill-rule="nonzero" fill-opacity="1" /><path clip-path="url(#clip860)" d="M864.813 1288.8 L869.697 1288.8 L869.697 1294.67 L864.813 1294.67 L864.813 1288.8 Z" fill="#000000" fill-rule="nonzero" fill-opacity="1" /><path clip-path="url(#clip860)" d="M879.928 1260.11 L898.285 1260.11 L898.285 1264.05 L884.211 1264.05 L884.211 1272.52 Q885.229 1272.17 886.248 1272.01 Q887.266 1271.83 888.285 1271.83 Q894.072 1271.83 897.451 1275 Q900.831 1278.17 900.831 1283.59 Q900.831 1289.17 897.359 1292.27 Q893.887 1295.35 887.567 1295.35 Q885.391 1295.35 883.123 1294.98 Q880.877 1294.61 878.47 1293.86 L878.47 1289.17 Q880.553 1290.3 882.776 1290.86 Q884.998 1291.41 887.475 1291.41 Q891.479 1291.41 893.817 1289.3 Q896.155 1287.2 896.155 1283.59 Q896.155 1279.98 893.817 1277.87 Q891.479 1275.76 887.475 1275.76 Q885.6 1275.76 883.725 1276.18 Q881.873 1276.6 879.928 1277.48 L879.928 1260.11 Z" fill="#000000" fill-rule="nonzero" fill-opacity="1" /><path clip-path="url(#clip860)" d="M1105.29 1263.19 Q1101.68 1263.19 1099.85 1266.76 Q1098.05 1270.3 1098.05 1277.43 Q1098.05 1284.54 1099.85 1288.1 Q1101.68 1291.64 1105.29 1291.64 Q1108.92 1291.64 1110.73 1288.1 Q1112.56 1284.54 1112.56 1277.43 Q1112.56 1270.3 1110.73 1266.76 Q1108.92 1263.19 1105.29 1263.19 M1105.29 1259.49 Q1111.1 1259.49 1114.16 1264.1 Q1117.23 1268.68 1117.23 1277.43 Q1117.23 1286.16 1114.16 1290.76 Q1111.1 1295.35 1105.29 1295.35 Q1099.48 1295.35 1096.4 1290.76 Q1093.35 1286.16 1093.35 1277.43 Q1093.35 1268.68 1096.4 1264.1 Q1099.48 1259.49 1105.29 1259.49 Z" fill="#000000" fill-rule="nonzero" fill-opacity="1" /><path clip-path="url(#clip860)" d="M1125.45 1288.8 L1130.34 1288.8 L1130.34 1294.67 L1125.45 1294.67 L1125.45 1288.8 Z" fill="#000000" fill-rule="nonzero" fill-opacity="1" /><path clip-path="url(#clip860)" d="M1150.52 1263.19 Q1146.91 1263.19 1145.08 1266.76 Q1143.28 1270.3 1143.28 1277.43 Q1143.28 1284.54 1145.08 1288.1 Q1146.91 1291.64 1150.52 1291.64 Q1154.16 1291.64 1155.96 1288.1 Q1157.79 1284.54 1157.79 1277.43 Q1157.79 1270.3 1155.96 1266.76 Q1154.16 1263.19 1150.52 1263.19 M1150.52 1259.49 Q1156.33 1259.49 1159.39 1264.1 Q1162.47 1268.68 1162.47 1277.43 Q1162.47 1286.16 1159.39 1290.76 Q1156.33 1295.35 1150.52 1295.35 Q1144.71 1295.35 1141.63 1290.76 Q1138.58 1286.16 1138.58 1277.43 Q1138.58 1268.68 1141.63 1264.1 Q1144.71 1259.49 1150.52 1259.49 Z" fill="#000000" fill-rule="nonzero" fill-opacity="1" /><path clip-path="url(#clip860)" d="M1385.84 1263.19 Q1382.23 1263.19 1380.4 1266.76 Q1378.59 1270.3 1378.59 1277.43 Q1378.59 1284.54 1380.4 1288.1 Q1382.23 1291.64 1385.84 1291.64 Q1389.47 1291.64 1391.28 1288.1 Q1393.11 1284.54 1393.11 1277.43 Q1393.11 1270.3 1391.28 1266.76 Q1389.47 1263.19 1385.84 1263.19 M1385.84 1259.49 Q1391.65 1259.49 1394.7 1264.1 Q1397.78 1268.68 1397.78 1277.43 Q1397.78 1286.16 1394.7 1290.76 Q1391.65 1295.35 1385.84 1295.35 Q1380.03 1295.35 1376.95 1290.76 Q1373.89 1286.16 1373.89 1277.43 Q1373.89 1268.68 1376.95 1264.1 Q1380.03 1259.49 1385.84 1259.49 Z" fill="#000000" fill-rule="nonzero" fill-opacity="1" /><path clip-path="url(#clip860)" d="M1406 1288.8 L1410.88 1288.8 L1410.88 1294.67 L1406 1294.67 L1406 1288.8 Z" fill="#000000" fill-rule="nonzero" fill-opacity="1" /><path clip-path="url(#clip860)" d="M1421.11 1260.11 L1439.47 1260.11 L1439.47 1264.05 L1425.4 1264.05 L1425.4 1272.52 Q1426.42 1272.17 1427.43 1272.01 Q1428.45 1271.83 1429.47 1271.83 Q1435.26 1271.83 1438.64 1275 Q1442.02 1278.17 1442.02 1283.59 Q1442.02 1289.17 1438.55 1292.27 Q1435.07 1295.35 1428.75 1295.35 Q1426.58 1295.35 1424.31 1294.98 Q1422.06 1294.61 1419.66 1293.86 L1419.66 1289.17 Q1421.74 1290.3 1423.96 1290.86 Q1426.18 1291.41 1428.66 1291.41 Q1432.67 1291.41 1435 1289.3 Q1437.34 1287.2 1437.34 1283.59 Q1437.34 1279.98 1435 1277.87 Q1432.67 1275.76 1428.66 1275.76 Q1426.79 1275.76 1424.91 1276.18 Q1423.06 1276.6 1421.11 1277.48 L1421.11 1260.11 Z" fill="#000000" fill-rule="nonzero" fill-opacity="1" /><path clip-path="url(#clip860)" d="M1655.16 1290.74 L1662.8 1290.74 L1662.8 1264.37 L1654.49 1266.04 L1654.49 1261.78 L1662.75 1260.11 L1667.43 1260.11 L1667.43 1290.74 L1675.06 1290.74 L1675.06 1294.67 L1655.16 1294.67 L1655.16 1290.74 Z" fill="#000000" fill-rule="nonzero" fill-opacity="1" /><path clip-path="url(#clip860)" d="M1684.51 1288.8 L1689.39 1288.8 L1689.39 1294.67 L1684.51 1294.67 L1684.51 1288.8 Z" fill="#000000" fill-rule="nonzero" fill-opacity="1" /><path clip-path="url(#clip860)" d="M1709.58 1263.19 Q1705.97 1263.19 1704.14 1266.76 Q1702.33 1270.3 1702.33 1277.43 Q1702.33 1284.54 1704.14 1288.1 Q1705.97 1291.64 1709.58 1291.64 Q1713.21 1291.64 1715.02 1288.1 Q1716.85 1284.54 1716.85 1277.43 Q1716.85 1270.3 1715.02 1266.76 Q1713.21 1263.19 1709.58 1263.19 M1709.58 1259.49 Q1715.39 1259.49 1718.44 1264.1 Q1721.52 1268.68 1721.52 1277.43 Q1721.52 1286.16 1718.44 1290.76 Q1715.39 1295.35 1709.58 1295.35 Q1703.77 1295.35 1700.69 1290.76 Q1697.63 1286.16 1697.63 1277.43 Q1697.63 1268.68 1700.69 1264.1 Q1703.77 1259.49 1709.58 1259.49 Z" fill="#000000" fill-rule="nonzero" fill-opacity="1" /><path clip-path="url(#clip860)" d="M1935.7 1290.74 L1943.34 1290.74 L1943.34 1264.37 L1935.03 1266.04 L1935.03 1261.78 L1943.3 1260.11 L1947.97 1260.11 L1947.97 1290.74 L1955.61 1290.74 L1955.61 1294.67 L1935.7 1294.67 L1935.7 1290.74 Z" fill="#000000" fill-rule="nonzero" fill-opacity="1" /><path clip-path="url(#clip860)" d="M1965.06 1288.8 L1969.94 1288.8 L1969.94 1294.67 L1965.06 1294.67 L1965.06 1288.8 Z" fill="#000000" fill-rule="nonzero" fill-opacity="1" /><path clip-path="url(#clip860)" d="M1980.17 1260.11 L1998.53 1260.11 L1998.53 1264.05 L1984.45 1264.05 L1984.45 1272.52 Q1985.47 1272.17 1986.49 1272.01 Q1987.51 1271.83 1988.53 1271.83 Q1994.32 1271.83 1997.69 1275 Q2001.07 1278.17 2001.07 1283.59 Q2001.07 1289.17 1997.6 1292.27 Q1994.13 1295.35 1987.81 1295.35 Q1985.63 1295.35 1983.37 1294.98 Q1981.12 1294.61 1978.71 1293.86 L1978.71 1289.17 Q1980.8 1290.3 1983.02 1290.86 Q1985.24 1291.41 1987.72 1291.41 Q1991.72 1291.41 1994.06 1289.3 Q1996.4 1287.2 1996.4 1283.59 Q1996.4 1279.98 1994.06 1277.87 Q1991.72 1275.76 1987.72 1275.76 Q1985.84 1275.76 1983.97 1276.18 Q1982.12 1276.6 1980.17 1277.48 L1980.17 1260.11 Z" fill="#000000" fill-rule="nonzero" fill-opacity="1" /><polyline clip-path="url(#clip862)" style="stroke:#000000; stroke-linecap:round; stroke-linejoin:round; stroke-width:2; stroke-opacity:0.1; fill:none" points="191.056,1201.04 2064.76,1201.04 "/>
<polyline clip-path="url(#clip862)" style="stroke:#000000; stroke-linecap:round; stroke-linejoin:round; stroke-width:2; stroke-opacity:0.1; fill:none" points="191.056,920.996 2064.76,920.996 "/>
<polyline clip-path="url(#clip862)" style="stroke:#000000; stroke-linecap:round; stroke-linejoin:round; stroke-width:2; stroke-opacity:0.1; fill:none" points="191.056,640.946 2064.76,640.946 "/>
<polyline clip-path="url(#clip862)" style="stroke:#000000; stroke-linecap:round; stroke-linejoin:round; stroke-width:2; stroke-opacity:0.1; fill:none" points="191.056,360.897 2064.76,360.897 "/>
<polyline clip-path="url(#clip862)" style="stroke:#000000; stroke-linecap:round; stroke-linejoin:round; stroke-width:2; stroke-opacity:0.1; fill:none" points="191.056,80.8479 2064.76,80.8479 "/>
<polyline clip-path="url(#clip860)" style="stroke:#000000; stroke-linecap:round; stroke-linejoin:round; stroke-width:4; stroke-opacity:1; fill:none" points="191.056,1234.58 191.056,47.2441 "/>
<polyline clip-path="url(#clip860)" style="stroke:#000000; stroke-linecap:round; stroke-linejoin:round; stroke-width:4; stroke-opacity:1; fill:none" points="191.056,1201.04 209.954,1201.04 "/>
<polyline clip-path="url(#clip860)" style="stroke:#000000; stroke-linecap:round; stroke-linejoin:round; stroke-width:4; stroke-opacity:1; fill:none" points="191.056,920.996 209.954,920.996 "/>
<polyline clip-path="url(#clip860)" style="stroke:#000000; stroke-linecap:round; stroke-linejoin:round; stroke-width:4; stroke-opacity:1; fill:none" points="191.056,640.946 209.954,640.946 "/>
<polyline clip-path="url(#clip860)" style="stroke:#000000; stroke-linecap:round; stroke-linejoin:round; stroke-width:4; stroke-opacity:1; fill:none" points="191.056,360.897 209.954,360.897 "/>
<polyline clip-path="url(#clip860)" style="stroke:#000000; stroke-linecap:round; stroke-linejoin:round; stroke-width:4; stroke-opacity:1; fill:none" points="191.056,80.8479 209.954,80.8479 "/>
<path clip-path="url(#clip860)" d="M52.4321 1201.5 L82.1079 1201.5 L82.1079 1205.43 L52.4321 1205.43 L52.4321 1201.5 Z" fill="#000000" fill-rule="nonzero" fill-opacity="1" /><path clip-path="url(#clip860)" d="M93.0106 1214.39 L100.649 1214.39 L100.649 1188.02 L92.3393 1189.69 L92.3393 1185.43 L100.603 1183.76 L105.279 1183.76 L105.279 1214.39 L112.918 1214.39 L112.918 1218.32 L93.0106 1218.32 L93.0106 1214.39 Z" fill="#000000" fill-rule="nonzero" fill-opacity="1" /><path clip-path="url(#clip860)" d="M122.362 1212.45 L127.247 1212.45 L127.247 1218.32 L122.362 1218.32 L122.362 1212.45 Z" fill="#000000" fill-rule="nonzero" fill-opacity="1" /><path clip-path="url(#clip860)" d="M147.432 1186.84 Q143.821 1186.84 141.992 1190.41 Q140.186 1193.95 140.186 1201.08 Q140.186 1208.19 141.992 1211.75 Q143.821 1215.29 147.432 1215.29 Q151.066 1215.29 152.871 1211.75 Q154.7 1208.19 154.7 1201.08 Q154.7 1193.95 152.871 1190.41 Q151.066 1186.84 147.432 1186.84 M147.432 1183.14 Q153.242 1183.14 156.297 1187.75 Q159.376 1192.33 159.376 1201.08 Q159.376 1209.81 156.297 1214.41 Q153.242 1219 147.432 1219 Q141.621 1219 138.543 1214.41 Q135.487 1209.81 135.487 1201.08 Q135.487 1192.33 138.543 1187.75 Q141.621 1183.14 147.432 1183.14 Z" fill="#000000" fill-rule="nonzero" fill-opacity="1" /><path clip-path="url(#clip860)" d="M53.4275 921.447 L83.1033 921.447 L83.1033 925.382 L53.4275 925.382 L53.4275 921.447 Z" fill="#000000" fill-rule="nonzero" fill-opacity="1" /><path clip-path="url(#clip860)" d="M103.196 906.794 Q99.5847 906.794 97.756 910.359 Q95.9504 913.901 95.9504 921.03 Q95.9504 928.137 97.756 931.702 Q99.5847 935.243 103.196 935.243 Q106.83 935.243 108.636 931.702 Q110.464 928.137 110.464 921.03 Q110.464 913.901 108.636 910.359 Q106.83 906.794 103.196 906.794 M103.196 903.091 Q109.006 903.091 112.061 907.697 Q115.14 912.28 115.14 921.03 Q115.14 929.757 112.061 934.364 Q109.006 938.947 103.196 938.947 Q97.3856 938.947 94.3069 934.364 Q91.2514 929.757 91.2514 921.03 Q91.2514 912.28 94.3069 907.697 Q97.3856 903.091 103.196 903.091 Z" fill="#000000" fill-rule="nonzero" fill-opacity="1" /><path clip-path="url(#clip860)" d="M123.358 932.396 L128.242 932.396 L128.242 938.276 L123.358 938.276 L123.358 932.396 Z" fill="#000000" fill-rule="nonzero" fill-opacity="1" /><path clip-path="url(#clip860)" d="M138.473 903.716 L156.83 903.716 L156.83 907.651 L142.756 907.651 L142.756 916.123 Q143.774 915.776 144.793 915.614 Q145.811 915.428 146.83 915.428 Q152.617 915.428 155.996 918.6 Q159.376 921.771 159.376 927.188 Q159.376 932.766 155.904 935.868 Q152.432 938.947 146.112 938.947 Q143.936 938.947 141.668 938.576 Q139.422 938.206 137.015 937.465 L137.015 932.766 Q139.098 933.901 141.321 934.456 Q143.543 935.012 146.02 935.012 Q150.024 935.012 152.362 932.905 Q154.7 930.799 154.7 927.188 Q154.7 923.577 152.362 921.47 Q150.024 919.364 146.02 919.364 Q144.145 919.364 142.27 919.78 Q140.418 920.197 138.473 921.077 L138.473 903.716 Z" fill="#000000" fill-rule="nonzero" fill-opacity="1" /><path clip-path="url(#clip860)" d="M102.2 626.745 Q98.5893 626.745 96.7606 630.31 Q94.955 633.851 94.955 640.981 Q94.955 648.088 96.7606 651.652 Q98.5893 655.194 102.2 655.194 Q105.835 655.194 107.64 651.652 Q109.469 648.088 109.469 640.981 Q109.469 633.851 107.64 630.31 Q105.835 626.745 102.2 626.745 M102.2 623.041 Q108.011 623.041 111.066 627.648 Q114.145 632.231 114.145 640.981 Q114.145 649.708 111.066 654.314 Q108.011 658.898 102.2 658.898 Q96.3902 658.898 93.3115 654.314 Q90.256 649.708 90.256 640.981 Q90.256 632.231 93.3115 627.648 Q96.3902 623.041 102.2 623.041 Z" fill="#000000" fill-rule="nonzero" fill-opacity="1" /><path clip-path="url(#clip860)" d="M122.362 652.347 L127.247 652.347 L127.247 658.226 L122.362 658.226 L122.362 652.347 Z" fill="#000000" fill-rule="nonzero" fill-opacity="1" /><path clip-path="url(#clip860)" d="M147.432 626.745 Q143.821 626.745 141.992 630.31 Q140.186 633.851 140.186 640.981 Q140.186 648.088 141.992 651.652 Q143.821 655.194 147.432 655.194 Q151.066 655.194 152.871 651.652 Q154.7 648.088 154.7 640.981 Q154.7 633.851 152.871 630.31 Q151.066 626.745 147.432 626.745 M147.432 623.041 Q153.242 623.041 156.297 627.648 Q159.376 632.231 159.376 640.981 Q159.376 649.708 156.297 654.314 Q153.242 658.898 147.432 658.898 Q141.621 658.898 138.543 654.314 Q135.487 649.708 135.487 640.981 Q135.487 632.231 138.543 627.648 Q141.621 623.041 147.432 623.041 Z" fill="#000000" fill-rule="nonzero" fill-opacity="1" /><path clip-path="url(#clip860)" d="M103.196 346.696 Q99.5847 346.696 97.756 350.261 Q95.9504 353.802 95.9504 360.932 Q95.9504 368.038 97.756 371.603 Q99.5847 375.145 103.196 375.145 Q106.83 375.145 108.636 371.603 Q110.464 368.038 110.464 360.932 Q110.464 353.802 108.636 350.261 Q106.83 346.696 103.196 346.696 M103.196 342.992 Q109.006 342.992 112.061 347.599 Q115.14 352.182 115.14 360.932 Q115.14 369.659 112.061 374.265 Q109.006 378.848 103.196 378.848 Q97.3856 378.848 94.3069 374.265 Q91.2514 369.659 91.2514 360.932 Q91.2514 352.182 94.3069 347.599 Q97.3856 342.992 103.196 342.992 Z" fill="#000000" fill-rule="nonzero" fill-opacity="1" /><path clip-path="url(#clip860)" d="M123.358 372.298 L128.242 372.298 L128.242 378.177 L123.358 378.177 L123.358 372.298 Z" fill="#000000" fill-rule="nonzero" fill-opacity="1" /><path clip-path="url(#clip860)" d="M138.473 343.617 L156.83 343.617 L156.83 347.552 L142.756 347.552 L142.756 356.024 Q143.774 355.677 144.793 355.515 Q145.811 355.33 146.83 355.33 Q152.617 355.33 155.996 358.501 Q159.376 361.673 159.376 367.089 Q159.376 372.668 155.904 375.77 Q152.432 378.848 146.112 378.848 Q143.936 378.848 141.668 378.478 Q139.422 378.108 137.015 377.367 L137.015 372.668 Q139.098 373.802 141.321 374.358 Q143.543 374.913 146.02 374.913 Q150.024 374.913 152.362 372.807 Q154.7 370.7 154.7 367.089 Q154.7 363.478 152.362 361.372 Q150.024 359.265 146.02 359.265 Q144.145 359.265 142.27 359.682 Q140.418 360.099 138.473 360.978 L138.473 343.617 Z" fill="#000000" fill-rule="nonzero" fill-opacity="1" /><path clip-path="url(#clip860)" d="M93.0106 94.1927 L100.649 94.1927 L100.649 67.8271 L92.3393 69.4938 L92.3393 65.2346 L100.603 63.5679 L105.279 63.5679 L105.279 94.1927 L112.918 94.1927 L112.918 98.1279 L93.0106 98.1279 L93.0106 94.1927 Z" fill="#000000" fill-rule="nonzero" fill-opacity="1" /><path clip-path="url(#clip860)" d="M122.362 92.2483 L127.247 92.2483 L127.247 98.1279 L122.362 98.1279 L122.362 92.2483 Z" fill="#000000" fill-rule="nonzero" fill-opacity="1" /><path clip-path="url(#clip860)" d="M147.432 66.6466 Q143.821 66.6466 141.992 70.2114 Q140.186 73.753 140.186 80.8826 Q140.186 87.9891 141.992 91.5539 Q143.821 95.0955 147.432 95.0955 Q151.066 95.0955 152.871 91.5539 Q154.7 87.9891 154.7 80.8826 Q154.7 73.753 152.871 70.2114 Q151.066 66.6466 147.432 66.6466 M147.432 62.9429 Q153.242 62.9429 156.297 67.5494 Q159.376 72.1327 159.376 80.8826 Q159.376 89.6094 156.297 94.2159 Q153.242 98.7992 147.432 98.7992 Q141.621 98.7992 138.543 94.2159 Q135.487 89.6094 135.487 80.8826 Q135.487 72.1327 138.543 67.5494 Q141.621 62.9429 147.432 62.9429 Z" fill="#000000" fill-rule="nonzero" fill-opacity="1" /><polyline clip-path="url(#clip862)" style="stroke:#009af9; stroke-linecap:round; stroke-linejoin:round; stroke-width:4; stroke-opacity:1; fill:none" points="1127.91,80.8479 1145.59,81.1271 1163.25,81.9643 1180.88,83.3587 1198.46,85.3089 1215.96,87.813 1233.38,90.8684 1250.69,94.4722 1267.88,98.6208 1284.93,103.31 1301.83,108.535 1318.55,114.291 1335.08,120.572 1351.4,127.371 1367.5,134.682 1383.37,142.499 1398.97,150.811 1414.31,159.613 1429.36,168.894 1444.12,178.646 1458.55,188.859 1472.66,199.522 1486.42,210.626 1499.83,222.158 1512.86,234.108 1525.52,246.463 1537.77,259.212 1549.62,272.341 1561.04,285.837 1572.04,299.688 1582.59,313.878 1592.69,328.395 1602.32,343.223 1611.49,358.348 1620.17,373.755 1628.35,389.428 1636.05,405.352 1643.23,421.511 1649.9,437.888 1656.05,454.468 1661.67,471.234 1666.77,488.168 1671.32,505.256 1675.33,522.478 1678.8,539.819 1681.72,557.26 1684.08,574.785 1685.89,592.375 1687.15,610.014 1687.85,627.684 1687.99,645.367 1687.57,663.046 1686.59,680.703 1685.06,698.32 1682.97,715.88 1680.33,733.365 1677.13,750.758 1673.39,768.042 1669.11,785.199 1664.29,802.212 1658.93,819.064 1653.04,835.739 1646.63,852.22 1639.7,868.49 1632.26,884.533 1624.32,900.333 1615.89,915.875 1606.96,931.143 1597.56,946.121 1587.7,960.796 1577.37,975.151 1566.59,989.174 1555.38,1002.85 1543.75,1016.16 1531.69,1029.1 1519.24,1041.66 1506.39,1053.81 1493.17,1065.55 1479.59,1076.87 1465.65,1087.76 1451.37,1098.2 1436.78,1108.18 1421.87,1117.7 1406.68,1126.74 1391.2,1135.3 1375.47,1143.36 1359.48,1150.93 1343.27,1157.99 1326.84,1164.53 1310.21,1170.55 1293.4,1176.04 1276.43,1180.99 1259.3,1185.41 1242.05,1189.29 1224.68,1192.62 1207.22,1195.4 1189.68,1197.63 1172.07,1199.3 1154.42,1200.42 1136.75,1200.97 1119.06,1200.97 1101.39,1200.42 1083.74,1199.3 1066.14,1197.63 1048.59,1195.4 1031.13,1192.62 1013.76,1189.29 996.509,1185.41 979.386,1180.99 962.412,1176.04 945.602,1170.55 928.974,1164.53 912.545,1157.99 896.33,1150.93 880.346,1143.36 864.609,1135.3 849.134,1126.74 833.937,1117.7 819.033,1108.18 804.437,1098.2 790.164,1087.76 776.227,1076.87 762.641,1065.55 749.418,1053.81 736.573,1041.66 724.119,1029.1 712.066,1016.16 700.429,1002.85 689.217,989.174 678.443,975.151 668.116,960.796 658.248,946.121 648.848,931.143 639.926,915.875 631.49,900.333 623.549,884.533 616.111,868.49 609.183,852.22 602.772,835.739 596.884,819.064 591.526,802.212 586.702,785.199 582.418,768.042 578.678,750.758 575.485,733.365 572.843,715.88 570.754,698.32 569.22,680.703 568.244,663.046 567.825,645.367 567.965,627.684 568.662,610.014 569.918,592.375 571.729,574.785 574.095,557.26 577.013,539.819 580.48,522.478 584.492,505.256 589.047,488.168 594.138,471.234 599.762,454.468 605.912,437.888 612.582,421.511 619.767,405.352 627.457,389.428 635.647,373.755 644.327,358.348 653.489,343.223 663.124,328.395 673.223,313.878 683.774,299.688 694.769,285.837 706.195,272.341 718.041,259.212 730.297,246.463 742.948,234.108 755.983,222.158 769.389,210.626 783.152,199.522 797.259,188.859 811.696,178.646 826.448,168.894 841.5,159.613 856.838,150.811 872.446,142.499 888.308,134.682 904.41,127.371 920.734,120.572 937.265,114.291 953.985,108.535 970.879,103.31 987.93,98.6208 1005.12,94.4722 1022.43,90.8684 1039.85,87.813 1057.36,85.3089 1074.93,83.3587 1092.56,81.9643 1110.22,81.1271 1127.91,80.8479 "/>
<path clip-path="url(#clip860)" d="M1762.5 190.502 L2002.3 190.502 L2002.3 86.8219 L1762.5 86.8219  Z" fill="#ffffff" fill-rule="evenodd" fill-opacity="1"/>
<polyline clip-path="url(#clip860)" style="stroke:#000000; stroke-linecap:round; stroke-linejoin:round; stroke-width:4; stroke-opacity:1; fill:none" points="1762.5,190.502 2002.3,190.502 2002.3,86.8219 1762.5,86.8219 1762.5,190.502 "/>
<polyline clip-path="url(#clip860)" style="stroke:#009af9; stroke-linecap:round; stroke-linejoin:round; stroke-width:4; stroke-opacity:1; fill:none" points="1783.32,138.662 1908.23,138.662 "/>
<path clip-path="url(#clip860)" d="M1942.89 158.349 Q1941.09 162.979 1939.37 164.391 Q1937.66 165.803 1934.79 165.803 L1931.39 165.803 L1931.39 162.238 L1933.89 162.238 Q1935.65 162.238 1936.62 161.405 Q1937.59 160.572 1938.77 157.47 L1939.54 155.525 L1929.05 130.016 L1933.56 130.016 L1941.67 150.294 L1949.77 130.016 L1954.28 130.016 L1942.89 158.349 Z" fill="#000000" fill-rule="nonzero" fill-opacity="1" /><path clip-path="url(#clip860)" d="M1961.57 152.007 L1969.21 152.007 L1969.21 125.641 L1960.9 127.308 L1960.9 123.049 L1969.17 121.382 L1973.84 121.382 L1973.84 152.007 L1981.48 152.007 L1981.48 155.942 L1961.57 155.942 L1961.57 152.007 Z" fill="#000000" fill-rule="nonzero" fill-opacity="1" /></svg>
