<?xml version="1.0" encoding="utf-8"?>
<svg xmlns="http://www.w3.org/2000/svg" xmlns:xlink="http://www.w3.org/1999/xlink" width="528" height="336" viewBox="0 0 2112 1344">
<defs>
  <clipPath id="clip980">
    <rect x="0" y="0" width="2112" height="1344"/>
  </clipPath>
</defs>
<path clip-path="url(#clip980)" d="M0 1344 L2112 1344 L2112 0 L0 0  Z" fill="#ffffff" fill-rule="evenodd" fill-opacity="1"/>
<defs>
  <clipPath id="clip981">
    <rect x="422" y="0" width="1479" height="1344"/>
  </clipPath>
</defs>
<path clip-path="url(#clip980)" d="M191.056 1234.58 L2064.76 1234.58 L2064.76 47.2441 L191.056 47.2441  Z" fill="#ffffff" fill-rule="evenodd" fill-opacity="1"/>
<defs>
  <clipPath id="clip982">
    <rect x="191" y="47" width="1875" height="1188"/>
  </clipPath>
</defs>
<polyline clip-path="url(#clip982)" style="stroke:#000000; stroke-linecap:round; stroke-linejoin:round; stroke-width:2; stroke-opacity:0.1; fill:none" points="244.085,1234.58 244.085,47.2441 "/>
<polyline clip-path="url(#clip982)" style="stroke:#000000; stroke-linecap:round; stroke-linejoin:round; stroke-width:2; stroke-opacity:0.1; fill:none" points="685.996,1234.58 685.996,47.2441 "/>
<polyline clip-path="url(#clip982)" style="stroke:#000000; stroke-linecap:round; stroke-linejoin:round; stroke-width:2; stroke-opacity:0.1; fill:none" points="1127.91,1234.58 1127.91,47.2441 "/>
<polyline clip-path="url(#clip982)" style="stroke:#000000; stroke-linecap:round; stroke-linejoin:round; stroke-width:2; stroke-opacity:0.1; fill:none" points="1569.82,1234.58 1569.82,47.2441 "/>
<polyline clip-path="url(#clip982)" style="stroke:#000000; stroke-linecap:round; stroke-linejoin:round; stroke-width:2; stroke-opacity:0.1; fill:none" points="2011.73,1234.58 2011.73,47.2441 "/>
<polyline clip-path="url(#clip980)" style="stroke:#000000; stroke-linecap:round; stroke-linejoin:round; stroke-width:4; stroke-opacity:1; fill:none" points="191.056,1234.58 2064.76,1234.58 "/>
<polyline clip-path="url(#clip980)" style="stroke:#000000; stroke-linecap:round; stroke-linejoin:round; stroke-width:4; stroke-opacity:1; fill:none" points="244.085,1234.58 244.085,1215.68 "/>
<polyline clip-path="url(#clip980)" style="stroke:#000000; stroke-linecap:round; stroke-linejoin:round; stroke-width:4; stroke-opacity:1; fill:none" points="685.996,1234.58 685.996,1215.68 "/>
<polyline clip-path="url(#clip980)" style="stroke:#000000; stroke-linecap:round; stroke-linejoin:round; stroke-width:4; stroke-opacity:1; fill:none" points="1127.91,1234.58 1127.91,1215.68 "/>
<polyline clip-path="url(#clip980)" style="stroke:#000000; stroke-linecap:round; stroke-linejoin:round; stroke-width:4; stroke-opacity:1; fill:none" points="1569.82,1234.58 1569.82,1215.68 "/>
<polyline clip-path="url(#clip980)" style="stroke:#000000; stroke-linecap:round; stroke-linejoin:round; stroke-width:4; stroke-opacity:1; fill:none" points="2011.73,1234.58 2011.73,1215.68 "/>
<path clip-path="url(#clip980)" d="M214.028 1277.85 L243.703 1277.85 L243.703 1281.78 L214.028 1281.78 L214.028 1277.85 Z" fill="#000000" fill-rule="nonzero" fill-opacity="1" /><path clip-path="url(#clip980)" d="M257.824 1290.74 L274.143 1290.74 L274.143 1294.67 L252.199 1294.67 L252.199 1290.74 Q254.861 1287.99 259.444 1283.36 Q264.05 1278.7 265.231 1277.36 Q267.476 1274.84 268.356 1273.1 Q269.259 1271.34 269.259 1269.65 Q269.259 1266.9 267.314 1265.16 Q265.393 1263.42 262.291 1263.42 Q260.092 1263.42 257.638 1264.19 Q255.208 1264.95 252.43 1266.5 L252.43 1261.78 Q255.254 1260.65 257.708 1260.07 Q260.162 1259.49 262.199 1259.49 Q267.569 1259.49 270.763 1262.17 Q273.958 1264.86 273.958 1269.35 Q273.958 1271.48 273.148 1273.4 Q272.361 1275.3 270.254 1277.89 Q269.675 1278.56 266.574 1281.78 Q263.472 1284.98 257.824 1290.74 Z" fill="#000000" fill-rule="nonzero" fill-opacity="1" /><path clip-path="url(#clip980)" d="M655.753 1277.85 L685.428 1277.85 L685.428 1281.78 L655.753 1281.78 L655.753 1277.85 Z" fill="#000000" fill-rule="nonzero" fill-opacity="1" /><path clip-path="url(#clip980)" d="M696.331 1290.74 L703.97 1290.74 L703.97 1264.37 L695.66 1266.04 L695.66 1261.78 L703.924 1260.11 L708.6 1260.11 L708.6 1290.74 L716.238 1290.74 L716.238 1294.67 L696.331 1294.67 L696.331 1290.74 Z" fill="#000000" fill-rule="nonzero" fill-opacity="1" /><path clip-path="url(#clip980)" d="M1127.91 1263.19 Q1124.29 1263.19 1122.47 1266.76 Q1120.66 1270.3 1120.66 1277.43 Q1120.66 1284.54 1122.47 1288.1 Q1124.29 1291.64 1127.91 1291.64 Q1131.54 1291.64 1133.35 1288.1 Q1135.17 1284.54 1135.17 1277.43 Q1135.17 1270.3 1133.35 1266.76 Q1131.54 1263.19 1127.91 1263.19 M1127.91 1259.49 Q1133.72 1259.49 1136.77 1264.1 Q1139.85 1268.68 1139.85 1277.43 Q1139.85 1286.16 1136.77 1290.76 Q1133.72 1295.35 1127.91 1295.35 Q1122.1 1295.35 1119.02 1290.76 Q1115.96 1286.16 1115.96 1277.43 Q1115.96 1268.68 1119.02 1264.1 Q1122.1 1259.49 1127.91 1259.49 Z" fill="#000000" fill-rule="nonzero" fill-opacity="1" /><path clip-path="url(#clip980)" d="M1560.2 1290.74 L1567.84 1290.74 L1567.84 1264.37 L1559.53 1266.04 L1559.53 1261.78 L1567.79 1260.11 L1572.47 1260.11 L1572.47 1290.74 L1580.11 1290.74 L1580.11 1294.67 L1560.2 1294.67 L1560.2 1290.74 Z" fill="#000000" fill-rule="nonzero" fill-opacity="1" /><path clip-path="url(#clip980)" d="M2006.38 1290.74 L2022.7 1290.74 L2022.7 1294.67 L2000.75 1294.67 L2000.75 1290.74 Q2003.42 1287.99 2008 1283.36 Q2012.61 1278.7 2013.79 1277.36 Q2016.03 1274.84 2016.91 1273.1 Q2017.81 1271.34 2017.81 1269.65 Q2017.81 1266.9 2015.87 1265.16 Q2013.95 1263.42 2010.85 1263.42 Q2008.65 1263.42 2006.19 1264.19 Q2003.76 1264.95 2000.99 1266.5 L2000.99 1261.78 Q2003.81 1260.65 2006.26 1260.07 Q2008.72 1259.49 2010.75 1259.49 Q2016.12 1259.49 2019.32 1262.17 Q2022.51 1264.86 2022.51 1269.35 Q2022.51 1271.48 2021.7 1273.4 Q2020.92 1275.3 2018.81 1277.89 Q2018.23 1278.56 2015.13 1281.78 Q2012.03 1284.98 2006.38 1290.74 Z" fill="#000000" fill-rule="nonzero" fill-opacity="1" /><polyline clip-path="url(#clip982)" style="stroke:#000000; stroke-linecap:round; stroke-linejoin:round; stroke-width:2; stroke-opacity:0.1; fill:none" points="191.056,1082.82 2064.76,1082.82 "/>
<polyline clip-path="url(#clip982)" style="stroke:#000000; stroke-linecap:round; stroke-linejoin:round; stroke-width:2; stroke-opacity:0.1; fill:none" points="191.056,861.867 2064.76,861.867 "/>
<polyline clip-path="url(#clip982)" style="stroke:#000000; stroke-linecap:round; stroke-linejoin:round; stroke-width:2; stroke-opacity:0.1; fill:none" points="191.056,640.911 2064.76,640.911 "/>
<polyline clip-path="url(#clip982)" style="stroke:#000000; stroke-linecap:round; stroke-linejoin:round; stroke-width:2; stroke-opacity:0.1; fill:none" points="191.056,419.956 2064.76,419.956 "/>
<polyline clip-path="url(#clip982)" style="stroke:#000000; stroke-linecap:round; stroke-linejoin:round; stroke-width:2; stroke-opacity:0.1; fill:none" points="191.056,199.001 2064.76,199.001 "/>
<polyline clip-path="url(#clip980)" style="stroke:#000000; stroke-linecap:round; stroke-linejoin:round; stroke-width:4; stroke-opacity:1; fill:none" points="191.056,1234.58 191.056,47.2441 "/>
<polyline clip-path="url(#clip980)" style="stroke:#000000; stroke-linecap:round; stroke-linejoin:round; stroke-width:4; stroke-opacity:1; fill:none" points="191.056,1082.82 209.954,1082.82 "/>
<polyline clip-path="url(#clip980)" style="stroke:#000000; stroke-linecap:round; stroke-linejoin:round; stroke-width:4; stroke-opacity:1; fill:none" points="191.056,861.867 209.954,861.867 "/>
<polyline clip-path="url(#clip980)" style="stroke:#000000; stroke-linecap:round; stroke-linejoin:round; stroke-width:4; stroke-opacity:1; fill:none" points="191.056,640.911 209.954,640.911 "/>
<polyline clip-path="url(#clip980)" style="stroke:#000000; stroke-linecap:round; stroke-linejoin:round; stroke-width:4; stroke-opacity:1; fill:none" points="191.056,419.956 209.954,419.956 "/>
<polyline clip-path="url(#clip980)" style="stroke:#000000; stroke-linecap:round; stroke-linejoin:round; stroke-width:4; stroke-opacity:1; fill:none" points="191.056,199.001 209.954,199.001 "/>
<path clip-path="url(#clip980)" d="M52.4321 1083.27 L82.1079 1083.27 L82.1079 1087.21 L52.4321 1087.21 L52.4321 1083.27 Z" fill="#000000" fill-rule="nonzero" fill-opacity="1" /><path clip-path="url(#clip980)" d="M93.0106 1096.17 L100.649 1096.17 L100.649 1069.8 L92.3393 1071.47 L92.3393 1067.21 L100.603 1065.54 L105.279 1065.54 L105.279 1096.17 L112.918 1096.17 L112.918 1100.1 L93.0106 1100.1 L93.0106 1096.17 Z" fill="#000000" fill-rule="nonzero" fill-opacity="1" /><path clip-path="url(#clip980)" d="M122.362 1094.22 L127.247 1094.22 L127.247 1100.1 L122.362 1100.1 L122.362 1094.22 Z" fill="#000000" fill-rule="nonzero" fill-opacity="1" /><path clip-path="url(#clip980)" d="M147.432 1068.62 Q143.821 1068.62 141.992 1072.19 Q140.186 1075.73 140.186 1082.86 Q140.186 1089.96 141.992 1093.53 Q143.821 1097.07 147.432 1097.07 Q151.066 1097.07 152.871 1093.53 Q154.7 1089.96 154.7 1082.86 Q154.7 1075.73 152.871 1072.19 Q151.066 1068.62 147.432 1068.62 M147.432 1064.92 Q153.242 1064.92 156.297 1069.52 Q159.376 1074.11 159.376 1082.86 Q159.376 1091.58 156.297 1096.19 Q153.242 1100.77 147.432 1100.77 Q141.621 1100.77 138.543 1096.19 Q135.487 1091.58 135.487 1082.86 Q135.487 1074.11 138.543 1069.52 Q141.621 1064.92 147.432 1064.92 Z" fill="#000000" fill-rule="nonzero" fill-opacity="1" /><path clip-path="url(#clip980)" d="M53.4275 862.318 L83.1033 862.318 L83.1033 866.253 L53.4275 866.253 L53.4275 862.318 Z" fill="#000000" fill-rule="nonzero" fill-opacity="1" /><path clip-path="url(#clip980)" d="M103.196 847.665 Q99.5847 847.665 97.756 851.23 Q95.9504 854.772 95.9504 861.901 Q95.9504 869.008 97.756 872.573 Q99.5847 876.114 103.196 876.114 Q106.83 876.114 108.636 872.573 Q110.464 869.008 110.464 861.901 Q110.464 854.772 108.636 851.23 Q106.83 847.665 103.196 847.665 M103.196 843.962 Q109.006 843.962 112.061 848.568 Q115.14 853.151 115.14 861.901 Q115.14 870.628 112.061 875.235 Q109.006 879.818 103.196 879.818 Q97.3856 879.818 94.3069 875.235 Q91.2514 870.628 91.2514 861.901 Q91.2514 853.151 94.3069 848.568 Q97.3856 843.962 103.196 843.962 Z" fill="#000000" fill-rule="nonzero" fill-opacity="1" /><path clip-path="url(#clip980)" d="M123.358 873.267 L128.242 873.267 L128.242 879.147 L123.358 879.147 L123.358 873.267 Z" fill="#000000" fill-rule="nonzero" fill-opacity="1" /><path clip-path="url(#clip980)" d="M138.473 844.587 L156.83 844.587 L156.83 848.522 L142.756 848.522 L142.756 856.994 Q143.774 856.647 144.793 856.485 Q145.811 856.3 146.83 856.3 Q152.617 856.3 155.996 859.471 Q159.376 862.642 159.376 868.059 Q159.376 873.637 155.904 876.739 Q152.432 879.818 146.112 879.818 Q143.936 879.818 141.668 879.448 Q139.422 879.077 137.015 878.336 L137.015 873.637 Q139.098 874.772 141.321 875.327 Q143.543 875.883 146.02 875.883 Q150.024 875.883 152.362 873.776 Q154.7 871.67 154.7 868.059 Q154.7 864.448 152.362 862.341 Q150.024 860.235 146.02 860.235 Q144.145 860.235 142.27 860.651 Q140.418 861.068 138.473 861.948 L138.473 844.587 Z" fill="#000000" fill-rule="nonzero" fill-opacity="1" /><path clip-path="url(#clip980)" d="M102.2 626.71 Q98.5893 626.71 96.7606 630.275 Q94.955 633.817 94.955 640.946 Q94.955 648.053 96.7606 651.617 Q98.5893 655.159 102.2 655.159 Q105.835 655.159 107.64 651.617 Q109.469 648.053 109.469 640.946 Q109.469 633.817 107.64 630.275 Q105.835 626.71 102.2 626.71 M102.2 623.006 Q108.011 623.006 111.066 627.613 Q114.145 632.196 114.145 640.946 Q114.145 649.673 111.066 654.279 Q108.011 658.863 102.2 658.863 Q96.3902 658.863 93.3115 654.279 Q90.256 649.673 90.256 640.946 Q90.256 632.196 93.3115 627.613 Q96.3902 623.006 102.2 623.006 Z" fill="#000000" fill-rule="nonzero" fill-opacity="1" /><path clip-path="url(#clip980)" d="M122.362 652.312 L127.247 652.312 L127.247 658.191 L122.362 658.191 L122.362 652.312 Z" fill="#000000" fill-rule="nonzero" fill-opacity="1" /><path clip-path="url(#clip980)" d="M147.432 626.71 Q143.821 626.71 141.992 630.275 Q140.186 633.817 140.186 640.946 Q140.186 648.053 141.992 651.617 Q143.821 655.159 147.432 655.159 Q151.066 655.159 152.871 651.617 Q154.7 648.053 154.7 640.946 Q154.7 633.817 152.871 630.275 Q151.066 626.71 147.432 626.71 M147.432 623.006 Q153.242 623.006 156.297 627.613 Q159.376 632.196 159.376 640.946 Q159.376 649.673 156.297 654.279 Q153.242 658.863 147.432 658.863 Q141.621 658.863 138.543 654.279 Q135.487 649.673 135.487 640.946 Q135.487 632.196 138.543 627.613 Q141.621 623.006 147.432 623.006 Z" fill="#000000" fill-rule="nonzero" fill-opacity="1" /><path clip-path="url(#clip980)" d="M103.196 405.755 Q99.5847 405.755 97.756 409.32 Q95.9504 412.861 95.9504 419.991 Q95.9504 427.097 97.756 430.662 Q99.5847 434.204 103.196 434.204 Q106.83 434.204 108.636 430.662 Q110.464 427.097 110.464 419.991 Q110.464 412.861 108.636 409.32 Q106.83 405.755 103.196 405.755 M103.196 402.051 Q109.006 402.051 112.061 406.658 Q115.14 411.241 115.14 419.991 Q115.14 428.718 112.061 433.324 Q109.006 437.908 103.196 437.908 Q97.3856 437.908 94.3069 433.324 Q91.2514 428.718 91.2514 419.991 Q91.2514 411.241 94.3069 406.658 Q97.3856 402.051 103.196 402.051 Z" fill="#000000" fill-rule="nonzero" fill-opacity="1" /><path clip-path="url(#clip980)" d="M123.358 431.357 L128.242 431.357 L128.242 437.236 L123.358 437.236 L123.358 431.357 Z" fill="#000000" fill-rule="nonzero" fill-opacity="1" /><path clip-path="url(#clip980)" d="M138.473 402.676 L156.83 402.676 L156.83 406.611 L142.756 406.611 L142.756 415.084 Q143.774 414.736 144.793 414.574 Q145.811 414.389 146.83 414.389 Q152.617 414.389 155.996 417.56 Q159.376 420.732 159.376 426.148 Q159.376 431.727 155.904 434.829 Q152.432 437.908 146.112 437.908 Q143.936 437.908 141.668 437.537 Q139.422 437.167 137.015 436.426 L137.015 431.727 Q139.098 432.861 141.321 433.417 Q143.543 433.972 146.02 433.972 Q150.024 433.972 152.362 431.866 Q154.7 429.759 154.7 426.148 Q154.7 422.537 152.362 420.431 Q150.024 418.324 146.02 418.324 Q144.145 418.324 142.27 418.741 Q140.418 419.158 138.473 420.037 L138.473 402.676 Z" fill="#000000" fill-rule="nonzero" fill-opacity="1" /><path clip-path="url(#clip980)" d="M93.0106 212.346 L100.649 212.346 L100.649 185.98 L92.3393 187.647 L92.3393 183.388 L100.603 181.721 L105.279 181.721 L105.279 212.346 L112.918 212.346 L112.918 216.281 L93.0106 216.281 L93.0106 212.346 Z" fill="#000000" fill-rule="nonzero" fill-opacity="1" /><path clip-path="url(#clip980)" d="M122.362 210.401 L127.247 210.401 L127.247 216.281 L122.362 216.281 L122.362 210.401 Z" fill="#000000" fill-rule="nonzero" fill-opacity="1" /><path clip-path="url(#clip980)" d="M147.432 184.8 Q143.821 184.8 141.992 188.365 Q140.186 191.906 140.186 199.036 Q140.186 206.142 141.992 209.707 Q143.821 213.249 147.432 213.249 Q151.066 213.249 152.871 209.707 Q154.7 206.142 154.7 199.036 Q154.7 191.906 152.871 188.365 Q151.066 184.8 147.432 184.8 M147.432 181.096 Q153.242 181.096 156.297 185.703 Q159.376 190.286 159.376 199.036 Q159.376 207.763 156.297 212.369 Q153.242 216.952 147.432 216.952 Q141.621 216.952 138.543 212.369 Q135.487 207.763 135.487 199.036 Q135.487 190.286 138.543 185.703 Q141.621 181.096 147.432 181.096 Z" fill="#000000" fill-rule="nonzero" fill-opacity="1" /><polyline clip-path="url(#clip982)" style="stroke:#009af9; stroke-linecap:round; stroke-linejoin:round; stroke-width:4; stroke-opacity:1; fill:none" points="1127.91,199.001 1155.79,199.221 1183.57,199.882 1211.12,200.982 1238.35,202.521 1265.13,204.496 1291.36,206.907 1316.95,209.751 1341.78,213.024 1365.75,216.723 1388.78,220.846 1410.77,225.387 1431.63,230.343 1451.28,235.707 1469.65,241.476 1486.65,247.643 1502.21,254.201 1516.29,261.146 1528.82,268.469 1539.75,276.163 1549.04,284.22 1556.65,292.634 1562.55,301.394 1566.72,310.493 1569.14,319.921 1569.8,329.669 1568.7,339.728 1565.84,350.086 1561.24,360.735 1554.91,371.663 1546.88,382.859 1537.17,394.313 1525.84,406.012 1512.92,417.945 1498.46,430.101 1482.53,442.467 1465.18,455.031 1446.49,467.78 1426.53,480.701 1405.38,493.782 1383.12,507.01 1359.84,520.372 1335.64,533.853 1310.62,547.441 1284.86,561.123 1258.48,574.884 1231.58,588.711 1204.26,602.589 1176.64,616.506 1148.83,630.448 1120.93,644.4 1093.06,658.348 1065.33,672.279 1037.85,686.178 1010.73,700.033 984.071,713.829 957.989,727.551 932.584,741.188 907.958,754.725 884.209,768.148 861.432,781.444 839.716,794.6 819.15,807.603 799.814,820.44 781.786,833.098 765.138,845.564 749.936,857.827 736.24,869.873 724.106,881.691 713.582,893.268 704.709,904.595 697.523,915.658 692.053,926.448 688.32,936.953 686.34,947.162 686.119,957.067 687.66,966.656 690.956,975.921 695.994,984.852 702.753,993.44 711.207,1001.68 721.322,1009.55 733.058,1017.06 746.368,1024.2 761.199,1030.95 777.492,1037.31 795.181,1043.28 814.197,1048.85 834.464,1054.01 855.9,1058.76 878.42,1063.09 901.935,1067 926.351,1070.49 951.57,1073.55 977.492,1076.18 1004.01,1078.37 1031.03,1080.13 1058.43,1081.45 1086.11,1082.33 1113.96,1082.77 1141.86,1082.77 1169.7,1082.33 1197.38,1081.45 1224.78,1080.13 1251.8,1078.37 1278.32,1076.18 1304.24,1073.55 1329.46,1070.49 1353.88,1067 1377.39,1063.09 1399.91,1058.76 1421.35,1054.01 1441.61,1048.85 1460.63,1043.28 1478.32,1037.31 1494.61,1030.95 1509.44,1024.2 1522.75,1017.06 1534.49,1009.55 1544.6,1001.68 1553.06,993.44 1559.82,984.852 1564.86,975.921 1568.15,966.656 1569.69,957.067 1569.47,947.162 1567.49,936.953 1563.76,926.448 1558.29,915.658 1551.1,904.595 1542.23,893.268 1531.71,881.691 1519.57,869.873 1505.88,857.827 1490.67,845.564 1474.03,833.098 1456,820.44 1436.66,807.603 1416.1,794.6 1394.38,781.444 1371.6,768.148 1347.85,754.725 1323.23,741.188 1297.82,727.551 1271.74,713.829 1245.09,700.033 1217.96,686.178 1190.48,672.279 1162.75,658.348 1134.88,644.4 1106.98,630.448 1079.17,616.506 1051.55,602.589 1024.24,588.711 997.333,574.884 970.952,561.123 945.196,547.441 920.168,533.853 895.968,520.372 872.693,507.01 850.436,493.782 829.284,480.701 809.323,467.78 790.632,455.031 773.285,442.467 757.352,430.101 742.896,417.945 729.975,406.012 718.64,394.313 708.937,382.859 700.903,371.663 694.572,360.735 689.968,350.086 687.11,339.728 686.009,329.669 686.67,319.921 689.09,310.493 693.258,301.394 699.16,292.634 706.77,284.22 716.06,276.163 726.991,268.469 739.52,261.146 753.597,254.201 769.167,247.643 786.166,241.476 804.528,235.707 824.179,230.343 845.041,225.387 867.03,220.846 890.059,216.723 914.037,213.024 938.866,209.751 964.45,206.907 990.685,204.496 1017.47,202.521 1044.69,200.982 1072.24,199.882 1100.02,199.221 1127.91,199.001 "/>
<circle clip-path="url(#clip982)" cx="1127.91" cy="640.911" r="14.4" fill="#e26f46" fill-rule="evenodd" fill-opacity="1" stroke="#000000" stroke-opacity="1" stroke-width="2.688"/>
<polyline clip-path="url(#clip982)" style="stroke:#3da44d; stroke-linecap:round; stroke-linejoin:round; stroke-width:4; stroke-opacity:1; fill:none" points="2011.73,199.001 2002.84,203.442 1993.96,207.884 1985.08,212.325 1976.2,216.766 1967.31,221.208 1958.43,225.649 1949.55,230.09 1940.67,234.532 1931.78,238.973 1922.9,243.414 1914.02,247.855 1905.14,252.297 1896.25,256.738 1887.37,261.179 1878.49,265.621 1869.6,270.062 1860.72,274.503 1851.84,278.945 1842.96,283.386 1834.07,287.827 1825.19,292.269 1816.31,296.71 1807.43,301.151 1798.54,305.593 1789.66,310.034 1780.78,314.475 1771.9,318.916 1763.01,323.358 1754.13,327.799 1745.25,332.24 1736.37,336.682 1727.48,341.123 1718.6,345.564 1709.72,350.006 1700.83,354.447 1691.95,358.888 1683.07,363.33 1674.19,367.771 1665.3,372.212 1656.42,376.653 1647.54,381.095 1638.66,385.536 1629.77,389.977 1620.89,394.419 1612.01,398.86 1603.13,403.301 1594.24,407.743 1585.36,412.184 1576.48,416.625 1567.6,421.067 1558.71,425.508 1549.83,429.949 1540.95,434.391 1532.07,438.832 1523.18,443.273 1514.3,447.714 1505.42,452.156 1496.53,456.597 1487.65,461.038 1478.77,465.48 1469.89,469.921 1461,474.362 1452.12,478.804 1443.24,483.245 1434.36,487.686 1425.47,492.128 1416.59,496.569 1407.71,501.01 1398.83,505.451 1389.94,509.893 1381.06,514.334 1372.18,518.775 1363.3,523.217 1354.41,527.658 1345.53,532.099 1336.65,536.541 1327.76,540.982 1318.88,545.423 1310,549.865 1301.12,554.306 1292.23,558.747 1283.35,563.189 1274.47,567.63 1265.59,572.071 1256.7,576.512 1247.82,580.954 1238.94,585.395 1230.06,589.836 1221.17,594.278 1212.29,598.719 1203.41,603.16 1194.53,607.602 1185.64,612.043 1176.76,616.484 1167.88,620.926 1159,625.367 1150.11,629.808 1141.23,634.249 1132.35,638.691 1123.46,643.132 1114.58,647.573 1105.7,652.015 1096.82,656.456 1087.93,660.897 1079.05,665.339 1070.17,669.78 1061.29,674.221 1052.4,678.663 1043.52,683.104 1034.64,687.545 1025.76,691.987 1016.87,696.428 1007.99,700.869 999.108,705.31 990.225,709.752 981.343,714.193 972.46,718.634 963.577,723.076 954.695,727.517 945.812,731.958 936.93,736.4 928.047,740.841 919.164,745.282 910.282,749.724 901.399,754.165 892.517,758.606 883.634,763.047 874.751,767.489 865.869,771.93 856.986,776.371 848.103,780.813 839.221,785.254 830.338,789.695 821.456,794.137 812.573,798.578 803.69,803.019 794.808,807.461 785.925,811.902 777.042,816.343 768.16,820.784 759.277,825.226 750.395,829.667 741.512,834.108 732.629,838.55 723.747,842.991 714.864,847.432 705.981,851.874 697.099,856.315 688.216,860.756 679.334,865.198 670.451,869.639 661.568,874.08 652.686,878.522 643.803,882.963 634.921,887.404 626.038,891.845 617.155,896.287 608.273,900.728 599.39,905.169 590.507,909.611 581.625,914.052 572.742,918.493 563.86,922.935 554.977,927.376 546.094,931.817 537.212,936.259 528.329,940.7 519.446,945.141 510.564,949.582 501.681,954.024 492.799,958.465 483.916,962.906 475.033,967.348 466.151,971.789 457.268,976.23 448.386,980.672 439.503,985.113 430.62,989.554 421.738,993.996 412.855,998.437 403.972,1002.88 395.09,1007.32 386.207,1011.76 377.325,1016.2 368.442,1020.64 359.559,1025.08 350.677,1029.53 341.794,1033.97 332.911,1038.41 324.029,1042.85 315.146,1047.29 306.264,1051.73 297.381,1056.17 288.498,1060.62 279.616,1065.06 270.733,1069.5 261.85,1073.94 252.968,1078.38 244.085,1082.82 "/>
<polyline clip-path="url(#clip982)" style="stroke:#c271d2; stroke-linecap:round; stroke-linejoin:round; stroke-width:4; stroke-opacity:1; fill:none" points="862.76,110.619 865.425,115.949 868.089,121.278 870.754,126.608 873.419,131.937 876.084,137.267 878.748,142.596 881.413,147.926 884.078,153.256 886.743,158.585 889.408,163.915 892.072,169.244 894.737,174.574 897.402,179.903 900.067,185.233 902.732,190.563 905.396,195.892 908.061,201.222 910.726,206.551 913.391,211.881 916.055,217.21 918.72,222.54 921.385,227.87 924.05,233.199 926.715,238.529 929.379,243.858 932.044,249.188 934.709,254.517 937.374,259.847 940.039,265.177 942.703,270.506 945.368,275.836 948.033,281.165 950.698,286.495 953.362,291.824 956.027,297.154 958.692,302.484 961.357,307.813 964.022,313.143 966.686,318.472 969.351,323.802 972.016,329.131 974.681,334.461 977.346,339.791 980.01,345.12 982.675,350.45 985.34,355.779 988.005,361.109 990.669,366.438 993.334,371.768 995.999,377.098 998.664,382.427 1001.33,387.757 1003.99,393.086 1006.66,398.416 1009.32,403.745 1011.99,409.075 1014.65,414.405 1017.32,419.734 1019.98,425.064 1022.65,430.393 1025.31,435.723 1027.98,441.052 1030.64,446.382 1033.31,451.712 1035.97,457.041 1038.64,462.371 1041.3,467.7 1043.97,473.03 1046.63,478.359 1049.29,483.689 1051.96,489.019 1054.62,494.348 1057.29,499.678 1059.95,505.007 1062.62,510.337 1065.28,515.666 1067.95,520.996 1070.61,526.326 1073.28,531.655 1075.94,536.985 1078.61,542.314 1081.27,547.644 1083.94,552.973 1086.6,558.303 1089.27,563.633 1091.93,568.962 1094.6,574.292 1097.26,579.621 1099.93,584.951 1102.59,590.281 1105.26,595.61 1107.92,600.94 1110.58,606.269 1113.25,611.599 1115.91,616.928 1118.58,622.258 1121.24,627.588 1123.91,632.917 1126.57,638.247 1129.24,643.576 1131.9,648.906 1134.57,654.235 1137.23,659.565 1139.9,664.895 1142.56,670.224 1145.23,675.554 1147.89,680.883 1150.56,686.213 1153.22,691.542 1155.89,696.872 1158.55,702.202 1161.22,707.531 1163.88,712.861 1166.55,718.19 1169.21,723.52 1171.87,728.849 1174.54,734.179 1177.2,739.509 1179.87,744.838 1182.53,750.168 1185.2,755.497 1187.86,760.827 1190.53,766.156 1193.19,771.486 1195.86,776.816 1198.52,782.145 1201.19,787.475 1203.85,792.804 1206.52,798.134 1209.18,803.463 1211.85,808.793 1214.51,814.123 1217.18,819.452 1219.84,824.782 1222.51,830.111 1225.17,835.441 1227.84,840.77 1230.5,846.1 1233.17,851.43 1235.83,856.759 1238.49,862.089 1241.16,867.418 1243.82,872.748 1246.49,878.077 1249.15,883.407 1251.82,888.737 1254.48,894.066 1257.15,899.396 1259.81,904.725 1262.48,910.055 1265.14,915.384 1267.81,920.714 1270.47,926.044 1273.14,931.373 1275.8,936.703 1278.47,942.032 1281.13,947.362 1283.8,952.691 1286.46,958.021 1289.13,963.351 1291.79,968.68 1294.46,974.01 1297.12,979.339 1299.78,984.669 1302.45,989.998 1305.11,995.328 1307.78,1000.66 1310.44,1005.99 1313.11,1011.32 1315.77,1016.65 1318.44,1021.98 1321.1,1027.31 1323.77,1032.63 1326.43,1037.96 1329.1,1043.29 1331.76,1048.62 1334.43,1053.95 1337.09,1059.28 1339.76,1064.61 1342.42,1069.94 1345.09,1075.27 1347.75,1080.6 1350.42,1085.93 1353.08,1091.26 1355.75,1096.59 1358.41,1101.92 1361.07,1107.25 1363.74,1112.58 1366.4,1117.91 1369.07,1123.24 1371.73,1128.57 1374.4,1133.9 1377.06,1139.23 1379.73,1144.56 1382.39,1149.89 1385.06,1155.22 1387.72,1160.54 1390.39,1165.87 1393.05,1171.2 "/>
<path clip-path="url(#clip980)" d="M253.513 294.182 L889.677 294.182 L889.677 86.8219 L253.513 86.8219  Z" fill="#ffffff" fill-rule="evenodd" fill-opacity="1"/>
<polyline clip-path="url(#clip980)" style="stroke:#000000; stroke-linecap:round; stroke-linejoin:round; stroke-width:4; stroke-opacity:1; fill:none" points="253.513,294.182 889.677,294.182 889.677,86.8219 253.513,86.8219 253.513,294.182 "/>
<polyline clip-path="url(#clip980)" style="stroke:#009af9; stroke-linecap:round; stroke-linejoin:round; stroke-width:4; stroke-opacity:1; fill:none" points="274.332,138.662 399.245,138.662 "/>
<path clip-path="url(#clip980)" d="M436.568 119.924 L436.568 123.465 L432.494 123.465 Q430.203 123.465 429.3 124.391 Q428.42 125.317 428.42 127.724 L428.42 130.016 L435.434 130.016 L435.434 133.326 L428.42 133.326 L428.42 155.942 L424.138 155.942 L424.138 133.326 L420.064 133.326 L420.064 130.016 L424.138 130.016 L424.138 128.211 Q424.138 123.882 426.152 121.914 Q428.166 119.924 432.541 119.924 L436.568 119.924 Z" fill="#000000" fill-rule="nonzero" fill-opacity="1" /><path clip-path="url(#clip980)" d="M450.365 119.97 Q447.263 125.294 445.758 130.502 Q444.253 135.711 444.253 141.058 Q444.253 146.405 445.758 151.66 Q447.286 156.891 450.365 162.192 L446.661 162.192 Q443.189 156.752 441.453 151.497 Q439.74 146.243 439.74 141.058 Q439.74 135.896 441.453 130.664 Q443.165 125.433 446.661 119.97 L450.365 119.97 Z" fill="#000000" fill-rule="nonzero" fill-opacity="1" /><path clip-path="url(#clip980)" d="M462.841 122.655 L462.841 130.016 L471.614 130.016 L471.614 133.326 L462.841 133.326 L462.841 147.4 Q462.841 150.572 463.698 151.474 Q464.577 152.377 467.239 152.377 L471.614 152.377 L471.614 155.942 L467.239 155.942 Q462.309 155.942 460.434 154.113 Q458.559 152.261 458.559 147.4 L458.559 133.326 L455.434 133.326 L455.434 130.016 L458.559 130.016 L458.559 122.655 L462.841 122.655 Z" fill="#000000" fill-rule="nonzero" fill-opacity="1" /><path clip-path="url(#clip980)" d="M476.545 119.97 L480.249 119.97 Q483.721 125.433 485.434 130.664 Q487.17 135.896 487.17 141.058 Q487.17 146.243 485.434 151.497 Q483.721 156.752 480.249 162.192 L476.545 162.192 Q479.624 156.891 481.128 151.66 Q482.656 146.405 482.656 141.058 Q482.656 135.711 481.128 130.502 Q479.624 125.294 476.545 119.97 Z" fill="#000000" fill-rule="nonzero" fill-opacity="1" /><path clip-path="url(#clip980)" d="M496.267 134.414 L525.943 134.414 L525.943 138.303 L496.267 138.303 L496.267 134.414 M496.267 143.859 L525.943 143.859 L525.943 147.794 L496.267 147.794 L496.267 143.859 Z" fill="#000000" fill-rule="nonzero" fill-opacity="1" /><path clip-path="url(#clip980)" d="M545.665 119.97 Q542.563 125.294 541.058 130.502 Q539.554 135.711 539.554 141.058 Q539.554 146.405 541.058 151.66 Q542.586 156.891 545.665 162.192 L541.961 162.192 Q538.489 156.752 536.753 151.497 Q535.04 146.243 535.04 141.058 Q535.04 135.896 536.753 130.664 Q538.466 125.433 541.961 119.97 L545.665 119.97 Z" fill="#000000" fill-rule="nonzero" fill-opacity="1" /><path clip-path="url(#clip980)" d="M570.456 130.78 L570.456 134.808 Q568.651 133.882 566.706 133.419 Q564.762 132.956 562.679 132.956 Q559.507 132.956 557.91 133.928 Q556.336 134.9 556.336 136.845 Q556.336 138.326 557.47 139.183 Q558.605 140.016 562.031 140.78 L563.489 141.104 Q568.026 142.076 569.924 143.859 Q571.845 145.618 571.845 148.789 Q571.845 152.4 568.975 154.507 Q566.128 156.613 561.128 156.613 Q559.045 156.613 556.776 156.197 Q554.531 155.803 552.031 154.993 L552.031 150.595 Q554.392 151.822 556.683 152.447 Q558.975 153.048 561.22 153.048 Q564.23 153.048 565.85 152.03 Q567.47 150.988 567.47 149.113 Q567.47 147.377 566.29 146.451 Q565.132 145.525 561.174 144.669 L559.693 144.322 Q555.734 143.488 553.975 141.775 Q552.216 140.039 552.216 137.03 Q552.216 133.373 554.808 131.382 Q557.401 129.391 562.169 129.391 Q564.531 129.391 566.614 129.738 Q568.697 130.086 570.456 130.78 Z" fill="#000000" fill-rule="nonzero" fill-opacity="1" /><path clip-path="url(#clip980)" d="M600.804 141.914 L600.804 143.998 L581.22 143.998 Q581.498 148.396 583.859 150.71 Q586.243 153.002 590.48 153.002 Q592.933 153.002 595.225 152.4 Q597.54 151.798 599.808 150.595 L599.808 154.622 Q597.517 155.595 595.109 156.104 Q592.702 156.613 590.225 156.613 Q584.021 156.613 580.387 153.002 Q576.776 149.391 576.776 143.234 Q576.776 136.868 580.202 133.141 Q583.651 129.391 589.484 129.391 Q594.716 129.391 597.748 132.771 Q600.804 136.127 600.804 141.914 M596.544 140.664 Q596.498 137.169 594.577 135.086 Q592.679 133.002 589.53 133.002 Q585.966 133.002 583.813 135.016 Q581.683 137.03 581.359 140.687 L596.544 140.664 Z" fill="#000000" fill-rule="nonzero" fill-opacity="1" /><path clip-path="url(#clip980)" d="M629.345 140.294 L629.345 155.942 L625.086 155.942 L625.086 140.433 Q625.086 136.752 623.651 134.924 Q622.215 133.095 619.345 133.095 Q615.896 133.095 613.905 135.294 Q611.915 137.493 611.915 141.289 L611.915 155.942 L607.632 155.942 L607.632 130.016 L611.915 130.016 L611.915 134.044 Q613.442 131.706 615.503 130.549 Q617.586 129.391 620.294 129.391 Q624.762 129.391 627.053 132.169 Q629.345 134.924 629.345 140.294 Z" fill="#000000" fill-rule="nonzero" fill-opacity="1" /><path clip-path="url(#clip980)" d="M648.072 119.97 Q644.97 125.294 643.465 130.502 Q641.961 135.711 641.961 141.058 Q641.961 146.405 643.465 151.66 Q644.993 156.891 648.072 162.192 L644.368 162.192 Q640.896 156.752 639.16 151.497 Q637.447 146.243 637.447 141.058 Q637.447 135.896 639.16 130.664 Q640.873 125.433 644.368 119.97 L648.072 119.97 Z" fill="#000000" fill-rule="nonzero" fill-opacity="1" /><path clip-path="url(#clip980)" d="M660.549 122.655 L660.549 130.016 L669.322 130.016 L669.322 133.326 L660.549 133.326 L660.549 147.4 Q660.549 150.572 661.405 151.474 Q662.285 152.377 664.947 152.377 L669.322 152.377 L669.322 155.942 L664.947 155.942 Q660.016 155.942 658.141 154.113 Q656.266 152.261 656.266 147.4 L656.266 133.326 L653.141 133.326 L653.141 130.016 L656.266 130.016 L656.266 122.655 L660.549 122.655 Z" fill="#000000" fill-rule="nonzero" fill-opacity="1" /><path clip-path="url(#clip980)" d="M674.252 119.97 L677.956 119.97 Q681.428 125.433 683.141 130.664 Q684.877 135.896 684.877 141.058 Q684.877 146.243 683.141 151.497 Q681.428 156.752 677.956 162.192 L674.252 162.192 Q677.331 156.891 678.836 151.66 Q680.363 146.405 680.363 141.058 Q680.363 135.711 678.836 130.502 Q677.331 125.294 674.252 119.97 Z" fill="#000000" fill-rule="nonzero" fill-opacity="1" /><path clip-path="url(#clip980)" d="M694.507 150.062 L699.391 150.062 L699.391 154.044 L695.595 161.451 L692.609 161.451 L694.507 154.044 L694.507 150.062 Z" fill="#000000" fill-rule="nonzero" fill-opacity="1" /><path clip-path="url(#clip980)" d="M742.215 131.011 L742.215 134.993 Q740.409 133.998 738.581 133.511 Q736.775 133.002 734.923 133.002 Q730.78 133.002 728.488 135.641 Q726.196 138.257 726.196 143.002 Q726.196 147.748 728.488 150.386 Q730.78 153.002 734.923 153.002 Q736.775 153.002 738.581 152.516 Q740.409 152.007 742.215 151.011 L742.215 154.947 Q740.432 155.78 738.511 156.197 Q736.613 156.613 734.46 156.613 Q728.604 156.613 725.155 152.933 Q721.706 149.252 721.706 143.002 Q721.706 136.66 725.178 133.025 Q728.673 129.391 734.738 129.391 Q736.706 129.391 738.581 129.808 Q740.456 130.201 742.215 131.011 Z" fill="#000000" fill-rule="nonzero" fill-opacity="1" /><path clip-path="url(#clip980)" d="M759.668 133.002 Q756.243 133.002 754.252 135.687 Q752.261 138.349 752.261 143.002 Q752.261 147.655 754.229 150.34 Q756.219 153.002 759.668 153.002 Q763.071 153.002 765.062 150.317 Q767.053 147.632 767.053 143.002 Q767.053 138.396 765.062 135.711 Q763.071 133.002 759.668 133.002 M759.668 129.391 Q765.224 129.391 768.395 133.002 Q771.567 136.613 771.567 143.002 Q771.567 149.368 768.395 153.002 Q765.224 156.613 759.668 156.613 Q754.09 156.613 750.918 153.002 Q747.77 149.368 747.77 143.002 Q747.77 136.613 750.918 133.002 Q754.09 129.391 759.668 129.391 Z" fill="#000000" fill-rule="nonzero" fill-opacity="1" /><path clip-path="url(#clip980)" d="M795.154 130.78 L795.154 134.808 Q793.349 133.882 791.404 133.419 Q789.46 132.956 787.377 132.956 Q784.205 132.956 782.608 133.928 Q781.034 134.9 781.034 136.845 Q781.034 138.326 782.168 139.183 Q783.303 140.016 786.728 140.78 L788.187 141.104 Q792.724 142.076 794.622 143.859 Q796.543 145.618 796.543 148.789 Q796.543 152.4 793.673 154.507 Q790.826 156.613 785.826 156.613 Q783.742 156.613 781.474 156.197 Q779.229 155.803 776.729 154.993 L776.729 150.595 Q779.09 151.822 781.381 152.447 Q783.673 153.048 785.918 153.048 Q788.928 153.048 790.548 152.03 Q792.168 150.988 792.168 149.113 Q792.168 147.377 790.988 146.451 Q789.83 145.525 785.872 144.669 L784.391 144.322 Q780.432 143.488 778.673 141.775 Q776.914 140.039 776.914 137.03 Q776.914 133.373 779.506 131.382 Q782.099 129.391 786.867 129.391 Q789.228 129.391 791.312 129.738 Q793.395 130.086 795.154 130.78 Z" fill="#000000" fill-rule="nonzero" fill-opacity="1" /><path clip-path="url(#clip980)" d="M813.557 119.97 Q810.455 125.294 808.951 130.502 Q807.446 135.711 807.446 141.058 Q807.446 146.405 808.951 151.66 Q810.478 156.891 813.557 162.192 L809.853 162.192 Q806.381 156.752 804.645 151.497 Q802.932 146.243 802.932 141.058 Q802.932 135.896 804.645 130.664 Q806.358 125.433 809.853 119.97 L813.557 119.97 Z" fill="#000000" fill-rule="nonzero" fill-opacity="1" /><path clip-path="url(#clip980)" d="M826.034 122.655 L826.034 130.016 L834.807 130.016 L834.807 133.326 L826.034 133.326 L826.034 147.4 Q826.034 150.572 826.89 151.474 Q827.77 152.377 830.432 152.377 L834.807 152.377 L834.807 155.942 L830.432 155.942 Q825.501 155.942 823.626 154.113 Q821.751 152.261 821.751 147.4 L821.751 133.326 L818.626 133.326 L818.626 130.016 L821.751 130.016 L821.751 122.655 L826.034 122.655 Z" fill="#000000" fill-rule="nonzero" fill-opacity="1" /><path clip-path="url(#clip980)" d="M839.737 119.97 L843.441 119.97 Q846.913 125.433 848.626 130.664 Q850.362 135.896 850.362 141.058 Q850.362 146.243 848.626 151.497 Q846.913 156.752 843.441 162.192 L839.737 162.192 Q842.816 156.891 844.321 151.66 Q845.849 146.405 845.849 141.058 Q845.849 135.711 844.321 130.502 Q842.816 125.294 839.737 119.97 Z" fill="#000000" fill-rule="nonzero" fill-opacity="1" /><path clip-path="url(#clip980)" d="M858.233 119.97 L861.936 119.97 Q865.409 125.433 867.122 130.664 Q868.858 135.896 868.858 141.058 Q868.858 146.243 867.122 151.497 Q865.409 156.752 861.936 162.192 L858.233 162.192 Q861.311 156.891 862.816 151.66 Q864.344 146.405 864.344 141.058 Q864.344 135.711 862.816 130.502 Q861.311 125.294 858.233 119.97 Z" fill="#000000" fill-rule="nonzero" fill-opacity="1" /><polyline clip-path="url(#clip980)" style="stroke:#3da44d; stroke-linecap:round; stroke-linejoin:round; stroke-width:4; stroke-opacity:1; fill:none" points="274.332,190.502 399.245,190.502 "/>
<path clip-path="url(#clip980)" d="M420.064 173.222 L449.3 173.222 L449.3 177.157 L437.031 177.157 L437.031 207.782 L432.332 207.782 L432.332 177.157 L420.064 177.157 L420.064 173.222 Z" fill="#000000" fill-rule="nonzero" fill-opacity="1" /><path clip-path="url(#clip980)" d="M457.564 194.75 Q452.402 194.75 450.411 195.93 Q448.42 197.111 448.42 199.958 Q448.42 202.226 449.902 203.569 Q451.406 204.888 453.976 204.888 Q457.517 204.888 459.647 202.388 Q461.8 199.865 461.8 195.699 L461.8 194.75 L457.564 194.75 M466.059 192.99 L466.059 207.782 L461.8 207.782 L461.8 203.847 Q460.341 206.208 458.165 207.342 Q455.989 208.453 452.841 208.453 Q448.86 208.453 446.499 206.231 Q444.161 203.986 444.161 200.236 Q444.161 195.861 447.078 193.638 Q450.017 191.416 455.827 191.416 L461.8 191.416 L461.8 191 Q461.8 188.06 459.855 186.463 Q457.934 184.842 454.439 184.842 Q452.216 184.842 450.11 185.375 Q448.003 185.907 446.059 186.972 L446.059 183.037 Q448.397 182.134 450.596 181.694 Q452.795 181.231 454.878 181.231 Q460.503 181.231 463.281 184.148 Q466.059 187.064 466.059 192.99 Z" fill="#000000" fill-rule="nonzero" fill-opacity="1" /><path clip-path="url(#clip980)" d="M496.383 192.134 L496.383 207.782 L492.124 207.782 L492.124 192.273 Q492.124 188.592 490.688 186.764 Q489.253 184.935 486.383 184.935 Q482.934 184.935 480.943 187.134 Q478.952 189.333 478.952 193.129 L478.952 207.782 L474.67 207.782 L474.67 181.856 L478.952 181.856 L478.952 185.884 Q480.48 183.546 482.54 182.389 Q484.624 181.231 487.332 181.231 Q491.799 181.231 494.091 184.009 Q496.383 186.764 496.383 192.134 Z" fill="#000000" fill-rule="nonzero" fill-opacity="1" /><path clip-path="url(#clip980)" d="M521.938 194.518 Q521.938 189.888 520.017 187.342 Q518.119 184.796 514.67 184.796 Q511.244 184.796 509.323 187.342 Q507.424 189.888 507.424 194.518 Q507.424 199.125 509.323 201.671 Q511.244 204.217 514.67 204.217 Q518.119 204.217 520.017 201.671 Q521.938 199.125 521.938 194.518 M526.197 204.564 Q526.197 211.185 523.258 214.402 Q520.318 217.643 514.253 217.643 Q512.008 217.643 510.017 217.296 Q508.026 216.972 506.151 216.277 L506.151 212.134 Q508.026 213.152 509.855 213.638 Q511.684 214.124 513.582 214.124 Q517.772 214.124 519.855 211.925 Q521.938 209.749 521.938 205.328 L521.938 203.222 Q520.619 205.513 518.559 206.648 Q516.498 207.782 513.628 207.782 Q508.86 207.782 505.943 204.148 Q503.026 200.513 503.026 194.518 Q503.026 188.5 505.943 184.865 Q508.86 181.231 513.628 181.231 Q516.498 181.231 518.559 182.365 Q520.619 183.5 521.938 185.791 L521.938 181.856 L526.197 181.856 L526.197 204.564 Z" fill="#000000" fill-rule="nonzero" fill-opacity="1" /><path clip-path="url(#clip980)" d="M557.146 193.754 L557.146 195.838 L537.563 195.838 Q537.841 200.236 540.202 202.55 Q542.586 204.842 546.822 204.842 Q549.276 204.842 551.568 204.24 Q553.882 203.638 556.151 202.435 L556.151 206.462 Q553.859 207.435 551.452 207.944 Q549.045 208.453 546.568 208.453 Q540.364 208.453 536.73 204.842 Q533.119 201.231 533.119 195.074 Q533.119 188.708 536.545 184.981 Q539.994 181.231 545.827 181.231 Q551.058 181.231 554.091 184.611 Q557.146 187.967 557.146 193.754 M552.887 192.504 Q552.841 189.009 550.92 186.926 Q549.021 184.842 545.873 184.842 Q542.308 184.842 540.156 186.856 Q538.026 188.87 537.702 192.527 L552.887 192.504 Z" fill="#000000" fill-rule="nonzero" fill-opacity="1" /><path clip-path="url(#clip980)" d="M585.688 192.134 L585.688 207.782 L581.429 207.782 L581.429 192.273 Q581.429 188.592 579.993 186.764 Q578.558 184.935 575.688 184.935 Q572.239 184.935 570.248 187.134 Q568.257 189.333 568.257 193.129 L568.257 207.782 L563.975 207.782 L563.975 181.856 L568.257 181.856 L568.257 185.884 Q569.785 183.546 571.845 182.389 Q573.929 181.231 576.637 181.231 Q581.105 181.231 583.396 184.009 Q585.688 186.764 585.688 192.134 Z" fill="#000000" fill-rule="nonzero" fill-opacity="1" /><path clip-path="url(#clip980)" d="M598.396 174.495 L598.396 181.856 L607.169 181.856 L607.169 185.166 L598.396 185.166 L598.396 199.24 Q598.396 202.412 599.253 203.314 Q600.132 204.217 602.794 204.217 L607.169 204.217 L607.169 207.782 L602.794 207.782 Q597.864 207.782 595.989 205.953 Q594.114 204.101 594.114 199.24 L594.114 185.166 L590.989 185.166 L590.989 181.856 L594.114 181.856 L594.114 174.495 L598.396 174.495 Z" fill="#000000" fill-rule="nonzero" fill-opacity="1" /><path clip-path="url(#clip980)" d="M634.947 193.754 L634.947 195.838 L615.364 195.838 Q615.641 200.236 618.003 202.55 Q620.387 204.842 624.623 204.842 Q627.077 204.842 629.368 204.24 Q631.683 203.638 633.952 202.435 L633.952 206.462 Q631.66 207.435 629.252 207.944 Q626.845 208.453 624.368 208.453 Q618.165 208.453 614.53 204.842 Q610.919 201.231 610.919 195.074 Q610.919 188.708 614.345 184.981 Q617.794 181.231 623.627 181.231 Q628.859 181.231 631.891 184.611 Q634.947 187.967 634.947 193.754 M630.688 192.504 Q630.641 189.009 628.72 186.926 Q626.822 184.842 623.674 184.842 Q620.109 184.842 617.956 186.856 Q615.827 188.87 615.503 192.527 L630.688 192.504 Z" fill="#000000" fill-rule="nonzero" fill-opacity="1" /><polyline clip-path="url(#clip980)" style="stroke:#c271d2; stroke-linecap:round; stroke-linejoin:round; stroke-width:4; stroke-opacity:1; fill:none" points="274.332,242.342 399.245,242.342 "/>
<path clip-path="url(#clip980)" d="M420.064 225.062 L426.36 225.062 L441.684 253.974 L441.684 225.062 L446.221 225.062 L446.221 259.622 L439.925 259.622 L424.601 230.71 L424.601 259.622 L420.064 259.622 L420.064 225.062 Z" fill="#000000" fill-rule="nonzero" fill-opacity="1" /><path clip-path="url(#clip980)" d="M465.388 236.682 Q461.962 236.682 459.971 239.367 Q457.98 242.029 457.98 246.682 Q457.98 251.335 459.948 254.02 Q461.939 256.682 465.388 256.682 Q468.79 256.682 470.781 253.997 Q472.772 251.312 472.772 246.682 Q472.772 242.076 470.781 239.391 Q468.79 236.682 465.388 236.682 M465.388 233.071 Q470.943 233.071 474.114 236.682 Q477.286 240.293 477.286 246.682 Q477.286 253.048 474.114 256.682 Q470.943 260.293 465.388 260.293 Q459.809 260.293 456.638 256.682 Q453.49 253.048 453.49 246.682 Q453.49 240.293 456.638 236.682 Q459.809 233.071 465.388 233.071 Z" fill="#000000" fill-rule="nonzero" fill-opacity="1" /><path clip-path="url(#clip980)" d="M499.369 237.678 Q498.651 237.261 497.795 237.076 Q496.962 236.867 495.943 236.867 Q492.332 236.867 490.387 239.229 Q488.466 241.566 488.466 245.965 L488.466 259.622 L484.184 259.622 L484.184 233.696 L488.466 233.696 L488.466 237.724 Q489.809 235.363 491.962 234.229 Q494.114 233.071 497.193 233.071 Q497.633 233.071 498.165 233.141 Q498.698 233.187 499.346 233.303 L499.369 237.678 Z" fill="#000000" fill-rule="nonzero" fill-opacity="1" /><path clip-path="url(#clip980)" d="M523.188 238.673 Q524.785 235.803 527.008 234.437 Q529.23 233.071 532.239 233.071 Q536.29 233.071 538.489 235.918 Q540.688 238.742 540.688 243.974 L540.688 259.622 L536.406 259.622 L536.406 244.113 Q536.406 240.386 535.086 238.58 Q533.767 236.775 531.059 236.775 Q527.748 236.775 525.827 238.974 Q523.906 241.173 523.906 244.969 L523.906 259.622 L519.623 259.622 L519.623 244.113 Q519.623 240.363 518.304 238.58 Q516.985 236.775 514.23 236.775 Q510.966 236.775 509.045 238.997 Q507.123 241.196 507.123 244.969 L507.123 259.622 L502.841 259.622 L502.841 233.696 L507.123 233.696 L507.123 237.724 Q508.582 235.34 510.619 234.205 Q512.656 233.071 515.457 233.071 Q518.281 233.071 520.248 234.506 Q522.239 235.941 523.188 238.673 Z" fill="#000000" fill-rule="nonzero" fill-opacity="1" /><path clip-path="url(#clip980)" d="M560.966 246.59 Q555.804 246.59 553.813 247.77 Q551.822 248.951 551.822 251.798 Q551.822 254.066 553.304 255.409 Q554.808 256.728 557.378 256.728 Q560.919 256.728 563.049 254.228 Q565.202 251.705 565.202 247.539 L565.202 246.59 L560.966 246.59 M569.461 244.83 L569.461 259.622 L565.202 259.622 L565.202 255.687 Q563.744 258.048 561.568 259.182 Q559.392 260.293 556.244 260.293 Q552.262 260.293 549.901 258.071 Q547.563 255.826 547.563 252.076 Q547.563 247.701 550.48 245.478 Q553.42 243.256 559.23 243.256 L565.202 243.256 L565.202 242.84 Q565.202 239.9 563.257 238.303 Q561.336 236.682 557.841 236.682 Q555.619 236.682 553.512 237.215 Q551.406 237.747 549.461 238.812 L549.461 234.877 Q551.799 233.974 553.998 233.534 Q556.197 233.071 558.281 233.071 Q563.906 233.071 566.683 235.988 Q569.461 238.904 569.461 244.83 Z" fill="#000000" fill-rule="nonzero" fill-opacity="1" /><path clip-path="url(#clip980)" d="M578.234 223.604 L582.493 223.604 L582.493 259.622 L578.234 259.622 L578.234 223.604 Z" fill="#000000" fill-rule="nonzero" fill-opacity="1" /></svg>
