<?xml version="1.0" encoding="utf-8"?>
<svg xmlns="http://www.w3.org/2000/svg" xmlns:xlink="http://www.w3.org/1999/xlink" width="672" height="480" viewBox="0 0 2688 1920">
<defs>
  <clipPath id="clip830">
    <rect x="0" y="0" width="2688" height="1920"/>
  </clipPath>
</defs>
<path clip-path="url(#clip830)" d="
M0 1920 L2688 1920 L2688 0 L0 0  Z
  " fill="#ffffff" fill-rule="evenodd" fill-opacity="1"/>
<defs>
  <clipPath id="clip831">
    <rect x="537" y="0" width="1883" height="1883"/>
  </clipPath>
</defs>
<path clip-path="url(#clip830)" d="
M210.238 1734.12 L2640.76 1734.12 L2640.76 47.2441 L210.238 47.2441  Z
  " fill="#ffffff" fill-rule="evenodd" fill-opacity="1"/>
<defs>
  <clipPath id="clip832">
    <rect x="210" y="47" width="2432" height="1688"/>
  </clipPath>
</defs>
<polyline clip-path="url(#clip832)" style="stroke:#000000; stroke-linecap:round; stroke-linejoin:round; stroke-width:2; stroke-opacity:0.1; fill:none" points="
  279.026,1734.12 279.026,47.2441 
  "/>
<polyline clip-path="url(#clip832)" style="stroke:#000000; stroke-linecap:round; stroke-linejoin:round; stroke-width:2; stroke-opacity:0.1; fill:none" points="
  661.183,1734.12 661.183,47.2441 
  "/>
<polyline clip-path="url(#clip832)" style="stroke:#000000; stroke-linecap:round; stroke-linejoin:round; stroke-width:2; stroke-opacity:0.1; fill:none" points="
  1043.34,1734.12 1043.34,47.2441 
  "/>
<polyline clip-path="url(#clip832)" style="stroke:#000000; stroke-linecap:round; stroke-linejoin:round; stroke-width:2; stroke-opacity:0.1; fill:none" points="
  1425.5,1734.12 1425.5,47.2441 
  "/>
<polyline clip-path="url(#clip832)" style="stroke:#000000; stroke-linecap:round; stroke-linejoin:round; stroke-width:2; stroke-opacity:0.1; fill:none" points="
  1807.65,1734.12 1807.65,47.2441 
  "/>
<polyline clip-path="url(#clip832)" style="stroke:#000000; stroke-linecap:round; stroke-linejoin:round; stroke-width:2; stroke-opacity:0.1; fill:none" points="
  2189.81,1734.12 2189.81,47.2441 
  "/>
<polyline clip-path="url(#clip832)" style="stroke:#000000; stroke-linecap:round; stroke-linejoin:round; stroke-width:2; stroke-opacity:0.1; fill:none" points="
  2571.97,1734.12 2571.97,47.2441 
  "/>
<polyline clip-path="url(#clip830)" style="stroke:#000000; stroke-linecap:round; stroke-linejoin:round; stroke-width:4; stroke-opacity:1; fill:none" points="
  210.238,1734.12 2640.76,1734.12 
  "/>
<polyline clip-path="url(#clip830)" style="stroke:#000000; stroke-linecap:round; stroke-linejoin:round; stroke-width:4; stroke-opacity:1; fill:none" points="
  279.026,1734.12 279.026,1715.22 
  "/>
<polyline clip-path="url(#clip830)" style="stroke:#000000; stroke-linecap:round; stroke-linejoin:round; stroke-width:4; stroke-opacity:1; fill:none" points="
  661.183,1734.12 661.183,1715.22 
  "/>
<polyline clip-path="url(#clip830)" style="stroke:#000000; stroke-linecap:round; stroke-linejoin:round; stroke-width:4; stroke-opacity:1; fill:none" points="
  1043.34,1734.12 1043.34,1715.22 
  "/>
<polyline clip-path="url(#clip830)" style="stroke:#000000; stroke-linecap:round; stroke-linejoin:round; stroke-width:4; stroke-opacity:1; fill:none" points="
  1425.5,1734.12 1425.5,1715.22 
  "/>
<polyline clip-path="url(#clip830)" style="stroke:#000000; stroke-linecap:round; stroke-linejoin:round; stroke-width:4; stroke-opacity:1; fill:none" points="
  1807.65,1734.12 1807.65,1715.22 
  "/>
<polyline clip-path="url(#clip830)" style="stroke:#000000; stroke-linecap:round; stroke-linejoin:round; stroke-width:4; stroke-opacity:1; fill:none" points="
  2189.81,1734.12 2189.81,1715.22 
  "/>
<polyline clip-path="url(#clip830)" style="stroke:#000000; stroke-linecap:round; stroke-linejoin:round; stroke-width:4; stroke-opacity:1; fill:none" points="
  2571.97,1734.12 2571.97,1715.22 
  "/>
<path clip-path="url(#clip830)" d="M279.026 1767.34 Q275.415 1767.34 273.586 1770.9 Q271.781 1774.45 271.781 1781.58 Q271.781 1788.68 273.586 1792.25 Q275.415 1795.79 279.026 1795.79 Q282.66 1795.79 284.466 1792.25 Q286.295 1788.68 286.295 1781.58 Q286.295 1774.45 284.466 1770.9 Q282.66 1767.34 279.026 1767.34 M279.026 1763.64 Q284.836 1763.64 287.892 1768.24 Q290.97 1772.83 290.97 1781.58 Q290.97 1790.3 287.892 1794.91 Q284.836 1799.49 279.026 1799.49 Q273.216 1799.49 270.137 1794.91 Q267.082 1790.3 267.082 1781.58 Q267.082 1772.83 270.137 1768.24 Q273.216 1763.64 279.026 1763.64 Z" fill="#000000" fill-rule="evenodd" fill-opacity="1" /><path clip-path="url(#clip830)" d="M651.565 1794.89 L659.204 1794.89 L659.204 1768.52 L650.894 1770.19 L650.894 1765.93 L659.158 1764.26 L663.833 1764.26 L663.833 1794.89 L671.472 1794.89 L671.472 1798.82 L651.565 1798.82 L651.565 1794.89 Z" fill="#000000" fill-rule="evenodd" fill-opacity="1" /><path clip-path="url(#clip830)" d="M1037.99 1794.89 L1054.31 1794.89 L1054.31 1798.82 L1032.37 1798.82 L1032.37 1794.89 Q1035.03 1792.13 1039.61 1787.5 Q1044.22 1782.85 1045.4 1781.51 Q1047.65 1778.98 1048.53 1777.25 Q1049.43 1775.49 1049.43 1773.8 Q1049.43 1771.04 1047.48 1769.31 Q1045.56 1767.57 1042.46 1767.57 Q1040.26 1767.57 1037.81 1768.34 Q1035.38 1769.1 1032.6 1770.65 L1032.6 1765.93 Q1035.42 1764.79 1037.88 1764.21 Q1040.33 1763.64 1042.37 1763.64 Q1047.74 1763.64 1050.93 1766.32 Q1054.13 1769.01 1054.13 1773.5 Q1054.13 1775.63 1053.32 1777.55 Q1052.53 1779.45 1050.42 1782.04 Q1049.84 1782.71 1046.74 1785.93 Q1043.64 1789.12 1037.99 1794.89 Z" fill="#000000" fill-rule="evenodd" fill-opacity="1" /><path clip-path="url(#clip830)" d="M1429.74 1780.19 Q1433.1 1780.9 1434.98 1783.17 Q1436.87 1785.44 1436.87 1788.77 Q1436.87 1793.89 1433.36 1796.69 Q1429.84 1799.49 1423.36 1799.49 Q1421.18 1799.49 1418.86 1799.05 Q1416.57 1798.64 1414.12 1797.78 L1414.12 1793.27 Q1416.06 1794.4 1418.38 1794.98 Q1420.69 1795.56 1423.22 1795.56 Q1427.61 1795.56 1429.91 1793.82 Q1432.22 1792.08 1432.22 1788.77 Q1432.22 1785.72 1430.07 1784.01 Q1427.94 1782.27 1424.12 1782.27 L1420.09 1782.27 L1420.09 1778.43 L1424.3 1778.43 Q1427.75 1778.43 1429.58 1777.06 Q1431.41 1775.67 1431.41 1773.08 Q1431.41 1770.42 1429.51 1769.01 Q1427.64 1767.57 1424.12 1767.57 Q1422.2 1767.57 1420 1767.99 Q1417.8 1768.4 1415.16 1769.28 L1415.16 1765.12 Q1417.82 1764.38 1420.14 1764.01 Q1422.48 1763.64 1424.54 1763.64 Q1429.86 1763.64 1432.96 1766.07 Q1436.06 1768.47 1436.06 1772.59 Q1436.06 1775.46 1434.42 1777.46 Q1432.78 1779.42 1429.74 1780.19 Z" fill="#000000" fill-rule="evenodd" fill-opacity="1" /><path clip-path="url(#clip830)" d="M1810.66 1768.34 L1798.86 1786.78 L1810.66 1786.78 L1810.66 1768.34 M1809.44 1764.26 L1815.32 1764.26 L1815.32 1786.78 L1820.25 1786.78 L1820.25 1790.67 L1815.32 1790.67 L1815.32 1798.82 L1810.66 1798.82 L1810.66 1790.67 L1795.06 1790.67 L1795.06 1786.16 L1809.44 1764.26 Z" fill="#000000" fill-rule="evenodd" fill-opacity="1" /><path clip-path="url(#clip830)" d="M2180.09 1764.26 L2198.44 1764.26 L2198.44 1768.2 L2184.37 1768.2 L2184.37 1776.67 Q2185.39 1776.32 2186.41 1776.16 Q2187.43 1775.97 2188.44 1775.97 Q2194.23 1775.97 2197.61 1779.15 Q2200.99 1782.32 2200.99 1787.73 Q2200.99 1793.31 2197.52 1796.41 Q2194.05 1799.49 2187.73 1799.49 Q2185.55 1799.49 2183.28 1799.12 Q2181.04 1798.75 2178.63 1798.01 L2178.63 1793.31 Q2180.71 1794.45 2182.94 1795 Q2185.16 1795.56 2187.63 1795.56 Q2191.64 1795.56 2193.98 1793.45 Q2196.32 1791.34 2196.32 1787.73 Q2196.32 1784.12 2193.98 1782.02 Q2191.64 1779.91 2187.63 1779.91 Q2185.76 1779.91 2183.88 1780.33 Q2182.03 1780.74 2180.09 1781.62 L2180.09 1764.26 Z" fill="#000000" fill-rule="evenodd" fill-opacity="1" /><path clip-path="url(#clip830)" d="M2572.37 1779.68 Q2569.22 1779.68 2567.37 1781.83 Q2565.54 1783.98 2565.54 1787.73 Q2565.54 1791.46 2567.37 1793.64 Q2569.22 1795.79 2572.37 1795.79 Q2575.52 1795.79 2577.35 1793.64 Q2579.2 1791.46 2579.2 1787.73 Q2579.2 1783.98 2577.35 1781.83 Q2575.52 1779.68 2572.37 1779.68 M2581.66 1765.02 L2581.66 1769.28 Q2579.9 1768.45 2578.09 1768.01 Q2576.31 1767.57 2574.55 1767.57 Q2569.92 1767.57 2567.47 1770.7 Q2565.03 1773.82 2564.69 1780.14 Q2566.05 1778.13 2568.11 1777.06 Q2570.17 1775.97 2572.65 1775.97 Q2577.86 1775.97 2580.87 1779.15 Q2583.9 1782.29 2583.9 1787.73 Q2583.9 1793.06 2580.75 1796.27 Q2577.6 1799.49 2572.37 1799.49 Q2566.38 1799.49 2563.21 1794.91 Q2560.03 1790.3 2560.03 1781.58 Q2560.03 1773.38 2563.92 1768.52 Q2567.81 1763.64 2574.36 1763.64 Q2576.12 1763.64 2577.91 1763.98 Q2579.71 1764.33 2581.66 1765.02 Z" fill="#000000" fill-rule="evenodd" fill-opacity="1" /><path clip-path="url(#clip830)" d="M1255.04 1835.78 L1295.24 1835.78 L1295.24 1841.19 L1278.37 1841.19 L1278.37 1883.3 L1271.91 1883.3 L1271.91 1841.19 L1255.04 1841.19 L1255.04 1835.78 Z" fill="#000000" fill-rule="evenodd" fill-opacity="1" /><path clip-path="url(#clip830)" d="M1299.19 1847.65 L1305.04 1847.65 L1305.04 1883.3 L1299.19 1883.3 L1299.19 1847.65 M1299.19 1833.78 L1305.04 1833.78 L1305.04 1841.19 L1299.19 1841.19 L1299.19 1833.78 Z" fill="#000000" fill-rule="evenodd" fill-opacity="1" /><path clip-path="url(#clip830)" d="M1347.79 1864.01 L1347.79 1866.88 L1320.86 1866.88 Q1321.24 1872.92 1324.49 1876.11 Q1327.77 1879.26 1333.59 1879.26 Q1336.97 1879.26 1340.12 1878.43 Q1343.3 1877.6 1346.42 1875.95 L1346.42 1881.49 Q1343.27 1882.82 1339.96 1883.52 Q1336.65 1884.22 1333.24 1884.22 Q1324.71 1884.22 1319.71 1879.26 Q1314.75 1874.29 1314.75 1865.83 Q1314.75 1857.07 1319.46 1851.95 Q1324.2 1846.79 1332.22 1846.79 Q1339.42 1846.79 1343.59 1851.44 Q1347.79 1856.06 1347.79 1864.01 M1341.93 1862.29 Q1341.87 1857.49 1339.23 1854.62 Q1336.62 1851.76 1332.29 1851.76 Q1327.39 1851.76 1324.43 1854.53 Q1321.5 1857.3 1321.05 1862.33 L1341.93 1862.29 Z" fill="#000000" fill-rule="evenodd" fill-opacity="1" /><path clip-path="url(#clip830)" d="M1385.15 1854.5 Q1387.35 1850.55 1390.41 1848.67 Q1393.46 1846.79 1397.6 1846.79 Q1403.17 1846.79 1406.19 1850.71 Q1409.22 1854.59 1409.22 1861.78 L1409.22 1883.3 L1403.33 1883.3 L1403.33 1861.98 Q1403.33 1856.85 1401.51 1854.37 Q1399.7 1851.89 1395.98 1851.89 Q1391.42 1851.89 1388.78 1854.91 Q1386.14 1857.93 1386.14 1863.15 L1386.14 1883.3 L1380.25 1883.3 L1380.25 1861.98 Q1380.25 1856.82 1378.44 1854.37 Q1376.62 1851.89 1372.84 1851.89 Q1368.35 1851.89 1365.71 1854.94 Q1363.07 1857.97 1363.07 1863.15 L1363.07 1883.3 L1357.18 1883.3 L1357.18 1847.65 L1363.07 1847.65 L1363.07 1853.19 Q1365.07 1849.91 1367.87 1848.35 Q1370.67 1846.79 1374.52 1846.79 Q1378.41 1846.79 1381.11 1848.77 Q1383.85 1850.74 1385.15 1854.5 Z" fill="#000000" fill-rule="evenodd" fill-opacity="1" /><path clip-path="url(#clip830)" d="M1426.56 1877.95 L1426.56 1896.86 L1420.67 1896.86 L1420.67 1847.65 L1426.56 1847.65 L1426.56 1853.06 Q1428.41 1849.88 1431.21 1848.35 Q1434.04 1846.79 1437.96 1846.79 Q1444.45 1846.79 1448.49 1851.95 Q1452.57 1857.11 1452.57 1865.51 Q1452.57 1873.91 1448.49 1879.07 Q1444.45 1884.22 1437.96 1884.22 Q1434.04 1884.22 1431.21 1882.7 Q1428.41 1881.14 1426.56 1877.95 M1446.49 1865.51 Q1446.49 1859.05 1443.81 1855.39 Q1441.17 1851.7 1436.53 1851.7 Q1431.88 1851.7 1429.2 1855.39 Q1426.56 1859.05 1426.56 1865.51 Q1426.56 1871.97 1429.2 1875.66 Q1431.88 1879.32 1436.53 1879.32 Q1441.17 1879.32 1443.81 1875.66 Q1446.49 1871.97 1446.49 1865.51 Z" fill="#000000" fill-rule="evenodd" fill-opacity="1" /><path clip-path="url(#clip830)" d="M1476.09 1851.76 Q1471.38 1851.76 1468.64 1855.45 Q1465.9 1859.11 1465.9 1865.51 Q1465.9 1871.91 1468.61 1875.6 Q1471.35 1879.26 1476.09 1879.26 Q1480.77 1879.26 1483.5 1875.57 Q1486.24 1871.87 1486.24 1865.51 Q1486.24 1859.17 1483.5 1855.48 Q1480.77 1851.76 1476.09 1851.76 M1476.09 1846.79 Q1483.73 1846.79 1488.09 1851.76 Q1492.45 1856.72 1492.45 1865.51 Q1492.45 1874.26 1488.09 1879.26 Q1483.73 1884.22 1476.09 1884.22 Q1468.42 1884.22 1464.06 1879.26 Q1459.73 1874.26 1459.73 1865.51 Q1459.73 1856.72 1464.06 1851.76 Q1468.42 1846.79 1476.09 1846.79 Z" fill="#000000" fill-rule="evenodd" fill-opacity="1" /><path clip-path="url(#clip830)" d="M1536.94 1833.84 Q1532.68 1841.16 1530.61 1848.32 Q1528.54 1855.48 1528.54 1862.84 Q1528.54 1870.19 1530.61 1877.41 Q1532.71 1884.61 1536.94 1891.89 L1531.85 1891.89 Q1527.08 1884.41 1524.69 1877.19 Q1522.34 1869.96 1522.34 1862.84 Q1522.34 1855.74 1524.69 1848.54 Q1527.05 1841.35 1531.85 1833.84 L1536.94 1833.84 Z" fill="#000000" fill-rule="evenodd" fill-opacity="1" /><path clip-path="url(#clip830)" d="M1571.03 1848.7 L1571.03 1854.24 Q1568.55 1852.97 1565.88 1852.33 Q1563.2 1851.7 1560.34 1851.7 Q1555.98 1851.7 1553.78 1853.03 Q1551.62 1854.37 1551.62 1857.04 Q1551.62 1859.08 1553.18 1860.26 Q1554.74 1861.4 1559.45 1862.45 L1561.45 1862.9 Q1567.69 1864.24 1570.3 1866.69 Q1572.94 1869.11 1572.94 1873.47 Q1572.94 1878.43 1569 1881.33 Q1565.08 1884.22 1558.21 1884.22 Q1555.34 1884.22 1552.22 1883.65 Q1549.13 1883.11 1545.7 1882 L1545.7 1875.95 Q1548.94 1877.64 1552.09 1878.49 Q1555.25 1879.32 1558.33 1879.32 Q1562.47 1879.32 1564.7 1877.92 Q1566.93 1876.49 1566.93 1873.91 Q1566.93 1871.52 1565.3 1870.25 Q1563.71 1868.98 1558.27 1867.8 L1556.23 1867.32 Q1550.79 1866.18 1548.37 1863.82 Q1545.95 1861.43 1545.95 1857.3 Q1545.95 1852.27 1549.52 1849.53 Q1553.08 1846.79 1559.64 1846.79 Q1562.88 1846.79 1565.75 1847.27 Q1568.61 1847.75 1571.03 1848.7 Z" fill="#000000" fill-rule="evenodd" fill-opacity="1" /><path clip-path="url(#clip830)" d="M1581.35 1833.84 L1586.44 1833.84 Q1591.21 1841.35 1593.57 1848.54 Q1595.95 1855.74 1595.95 1862.84 Q1595.95 1869.96 1593.57 1877.19 Q1591.21 1884.41 1586.44 1891.89 L1581.35 1891.89 Q1585.58 1884.61 1587.65 1877.41 Q1589.75 1870.19 1589.75 1862.84 Q1589.75 1855.48 1587.65 1848.32 Q1585.58 1841.16 1581.35 1833.84 Z" fill="#000000" fill-rule="evenodd" fill-opacity="1" /><polyline clip-path="url(#clip832)" style="stroke:#000000; stroke-linecap:round; stroke-linejoin:round; stroke-width:2; stroke-opacity:0.1; fill:none" points="
  210.238,1459.03 2640.76,1459.03 
  "/>
<polyline clip-path="url(#clip832)" style="stroke:#000000; stroke-linecap:round; stroke-linejoin:round; stroke-width:2; stroke-opacity:0.1; fill:none" points="
  210.238,1080.13 2640.76,1080.13 
  "/>
<polyline clip-path="url(#clip832)" style="stroke:#000000; stroke-linecap:round; stroke-linejoin:round; stroke-width:2; stroke-opacity:0.1; fill:none" points="
  210.238,701.229 2640.76,701.229 
  "/>
<polyline clip-path="url(#clip832)" style="stroke:#000000; stroke-linecap:round; stroke-linejoin:round; stroke-width:2; stroke-opacity:0.1; fill:none" points="
  210.238,322.327 2640.76,322.327 
  "/>
<polyline clip-path="url(#clip830)" style="stroke:#000000; stroke-linecap:round; stroke-linejoin:round; stroke-width:4; stroke-opacity:1; fill:none" points="
  210.238,1734.12 210.238,47.2441 
  "/>
<polyline clip-path="url(#clip830)" style="stroke:#000000; stroke-linecap:round; stroke-linejoin:round; stroke-width:4; stroke-opacity:1; fill:none" points="
  210.238,1459.03 229.135,1459.03 
  "/>
<polyline clip-path="url(#clip830)" style="stroke:#000000; stroke-linecap:round; stroke-linejoin:round; stroke-width:4; stroke-opacity:1; fill:none" points="
  210.238,1080.13 229.135,1080.13 
  "/>
<polyline clip-path="url(#clip830)" style="stroke:#000000; stroke-linecap:round; stroke-linejoin:round; stroke-width:4; stroke-opacity:1; fill:none" points="
  210.238,701.229 229.135,701.229 
  "/>
<polyline clip-path="url(#clip830)" style="stroke:#000000; stroke-linecap:round; stroke-linejoin:round; stroke-width:4; stroke-opacity:1; fill:none" points="
  210.238,322.327 229.135,322.327 
  "/>
<path clip-path="url(#clip830)" d="M157.973 1444.83 Q154.362 1444.83 152.534 1448.4 Q150.728 1451.94 150.728 1459.07 Q150.728 1466.18 152.534 1469.74 Q154.362 1473.28 157.973 1473.28 Q161.608 1473.28 163.413 1469.74 Q165.242 1466.18 165.242 1459.07 Q165.242 1451.94 163.413 1448.4 Q161.608 1444.83 157.973 1444.83 M157.973 1441.13 Q163.784 1441.13 166.839 1445.74 Q169.918 1450.32 169.918 1459.07 Q169.918 1467.8 166.839 1472.4 Q163.784 1476.99 157.973 1476.99 Q152.163 1476.99 149.085 1472.4 Q146.029 1467.8 146.029 1459.07 Q146.029 1450.32 149.085 1445.74 Q152.163 1441.13 157.973 1441.13 Z" fill="#000000" fill-rule="evenodd" fill-opacity="1" /><path clip-path="url(#clip830)" d="M118.622 1093.48 L126.261 1093.48 L126.261 1067.11 L117.951 1068.78 L117.951 1064.52 L126.214 1062.85 L130.89 1062.85 L130.89 1093.48 L138.529 1093.48 L138.529 1097.41 L118.622 1097.41 L118.622 1093.48 Z" fill="#000000" fill-rule="evenodd" fill-opacity="1" /><path clip-path="url(#clip830)" d="M157.973 1065.93 Q154.362 1065.93 152.534 1069.5 Q150.728 1073.04 150.728 1080.17 Q150.728 1087.27 152.534 1090.84 Q154.362 1094.38 157.973 1094.38 Q161.608 1094.38 163.413 1090.84 Q165.242 1087.27 165.242 1080.17 Q165.242 1073.04 163.413 1069.5 Q161.608 1065.93 157.973 1065.93 M157.973 1062.23 Q163.784 1062.23 166.839 1066.83 Q169.918 1071.42 169.918 1080.17 Q169.918 1088.89 166.839 1093.5 Q163.784 1098.08 157.973 1098.08 Q152.163 1098.08 149.085 1093.5 Q146.029 1088.89 146.029 1080.17 Q146.029 1071.42 149.085 1066.83 Q152.163 1062.23 157.973 1062.23 Z" fill="#000000" fill-rule="evenodd" fill-opacity="1" /><path clip-path="url(#clip830)" d="M121.839 714.574 L138.159 714.574 L138.159 718.509 L116.214 718.509 L116.214 714.574 Q118.876 711.82 123.46 707.19 Q128.066 702.537 129.247 701.195 Q131.492 698.672 132.372 696.935 Q133.275 695.176 133.275 693.486 Q133.275 690.732 131.33 688.996 Q129.409 687.26 126.307 687.26 Q124.108 687.26 121.654 688.023 Q119.224 688.787 116.446 690.338 L116.446 685.616 Q119.27 684.482 121.724 683.903 Q124.177 683.324 126.214 683.324 Q131.585 683.324 134.779 686.01 Q137.974 688.695 137.974 693.185 Q137.974 695.315 137.163 697.236 Q136.376 699.135 134.27 701.727 Q133.691 702.398 130.589 705.616 Q127.488 708.81 121.839 714.574 Z" fill="#000000" fill-rule="evenodd" fill-opacity="1" /><path clip-path="url(#clip830)" d="M157.973 687.028 Q154.362 687.028 152.534 690.593 Q150.728 694.135 150.728 701.264 Q150.728 708.371 152.534 711.935 Q154.362 715.477 157.973 715.477 Q161.608 715.477 163.413 711.935 Q165.242 708.371 165.242 701.264 Q165.242 694.135 163.413 690.593 Q161.608 687.028 157.973 687.028 M157.973 683.324 Q163.784 683.324 166.839 687.931 Q169.918 692.514 169.918 701.264 Q169.918 709.991 166.839 714.597 Q163.784 719.181 157.973 719.181 Q152.163 719.181 149.085 714.597 Q146.029 709.991 146.029 701.264 Q146.029 692.514 149.085 687.931 Q152.163 683.324 157.973 683.324 Z" fill="#000000" fill-rule="evenodd" fill-opacity="1" /><path clip-path="url(#clip830)" d="M131.978 320.973 Q135.335 321.691 137.21 323.959 Q139.108 326.228 139.108 329.561 Q139.108 334.677 135.589 337.478 Q132.071 340.278 125.589 340.278 Q123.413 340.278 121.099 339.839 Q118.807 339.422 116.353 338.565 L116.353 334.052 Q118.298 335.186 120.613 335.765 Q122.927 336.343 125.451 336.343 Q129.849 336.343 132.14 334.607 Q134.455 332.871 134.455 329.561 Q134.455 326.505 132.302 324.792 Q130.173 323.056 126.353 323.056 L122.326 323.056 L122.326 319.214 L126.538 319.214 Q129.988 319.214 131.816 317.848 Q133.645 316.459 133.645 313.867 Q133.645 311.205 131.747 309.792 Q129.872 308.357 126.353 308.357 Q124.432 308.357 122.233 308.774 Q120.034 309.191 117.395 310.07 L117.395 305.904 Q120.057 305.163 122.372 304.793 Q124.71 304.422 126.77 304.422 Q132.094 304.422 135.196 306.853 Q138.298 309.26 138.298 313.38 Q138.298 316.251 136.654 318.242 Q135.011 320.209 131.978 320.973 Z" fill="#000000" fill-rule="evenodd" fill-opacity="1" /><path clip-path="url(#clip830)" d="M157.973 308.126 Q154.362 308.126 152.534 311.691 Q150.728 315.232 150.728 322.362 Q150.728 329.468 152.534 333.033 Q154.362 336.575 157.973 336.575 Q161.608 336.575 163.413 333.033 Q165.242 329.468 165.242 322.362 Q165.242 315.232 163.413 311.691 Q161.608 308.126 157.973 308.126 M157.973 304.422 Q163.784 304.422 166.839 309.029 Q169.918 313.612 169.918 322.362 Q169.918 331.089 166.839 335.695 Q163.784 340.278 157.973 340.278 Q152.163 340.278 149.085 335.695 Q146.029 331.089 146.029 322.362 Q146.029 313.612 149.085 309.029 Q152.163 304.422 157.973 304.422 Z" fill="#000000" fill-rule="evenodd" fill-opacity="1" /><path clip-path="url(#clip830)" d="M19.402 1272.1 L56.3549 1272.1 L56.3549 1264.33 Q56.3549 1254.5 51.8989 1249.95 Q47.4429 1245.36 37.8307 1245.36 Q28.2821 1245.36 23.858 1249.95 Q19.402 1254.5 19.402 1264.33 L19.402 1272.1 M14.1184 1278.53 L14.1184 1265.32 Q14.1184 1251.5 19.8794 1245.04 Q25.6085 1238.58 37.8307 1238.58 Q50.1165 1238.58 55.8775 1245.08 Q61.6384 1251.57 61.6384 1265.32 L61.6384 1278.53 L14.1184 1278.53 Z" fill="#000000" fill-rule="evenodd" fill-opacity="1" /><path clip-path="url(#clip830)" d="M25.9905 1228.59 L25.9905 1222.73 L61.6384 1222.73 L61.6384 1228.59 L25.9905 1228.59 M12.1132 1228.59 L12.1132 1222.73 L19.5293 1222.73 L19.5293 1228.59 L12.1132 1228.59 Z" fill="#000000" fill-rule="evenodd" fill-opacity="1" /><path clip-path="url(#clip830)" d="M27.0408 1187.75 L32.579 1187.75 Q31.3059 1190.23 30.6693 1192.91 Q30.0327 1195.58 30.0327 1198.45 Q30.0327 1202.81 31.3695 1205 Q32.7063 1207.17 35.3799 1207.17 Q37.4169 1207.17 38.5946 1205.61 Q39.7404 1204.05 40.7908 1199.34 L41.2364 1197.33 Q42.5732 1191.09 45.0239 1188.48 Q47.4429 1185.84 51.8034 1185.84 Q56.7687 1185.84 59.6651 1189.79 Q62.5615 1193.7 62.5615 1200.58 Q62.5615 1203.44 61.9886 1206.56 Q61.4475 1209.65 60.3335 1213.09 L54.2861 1213.09 Q55.973 1209.84 56.8323 1206.69 Q57.6599 1203.54 57.6599 1200.45 Q57.6599 1196.31 56.2594 1194.09 Q54.8271 1191.86 52.249 1191.86 Q49.8619 1191.86 48.5887 1193.48 Q47.3156 1195.07 46.1379 1200.52 L45.6605 1202.55 Q44.5147 1208 42.1594 1210.41 Q39.7722 1212.83 35.6345 1212.83 Q30.6056 1212.83 27.8684 1209.27 Q25.1311 1205.7 25.1311 1199.15 Q25.1311 1195.9 25.6085 1193.04 Q26.086 1190.17 27.0408 1187.75 Z" fill="#000000" fill-rule="evenodd" fill-opacity="1" /><path clip-path="url(#clip830)" d="M15.869 1170.72 L25.9905 1170.72 L25.9905 1158.66 L30.542 1158.66 L30.542 1170.72 L49.8937 1170.72 Q54.2542 1170.72 55.4955 1169.55 Q56.7368 1168.34 56.7368 1164.68 L56.7368 1158.66 L61.6384 1158.66 L61.6384 1164.68 Q61.6384 1171.46 59.124 1174.03 Q56.5777 1176.61 49.8937 1176.61 L30.542 1176.61 L30.542 1180.91 L25.9905 1180.91 L25.9905 1176.61 L15.869 1176.61 L15.869 1170.72 Z" fill="#000000" fill-rule="evenodd" fill-opacity="1" /><path clip-path="url(#clip830)" d="M43.719 1134.76 Q43.719 1141.86 45.3422 1144.59 Q46.9655 1147.33 50.8804 1147.33 Q53.9996 1147.33 55.8457 1145.29 Q57.6599 1143.22 57.6599 1139.69 Q57.6599 1134.82 54.2224 1131.89 Q50.7531 1128.93 45.0239 1128.93 L43.719 1128.93 L43.719 1134.76 M41.3 1123.08 L61.6384 1123.08 L61.6384 1128.93 L56.2276 1128.93 Q59.4741 1130.94 61.0337 1133.93 Q62.5615 1136.92 62.5615 1141.25 Q62.5615 1146.73 59.5059 1149.97 Q56.4186 1153.19 51.2623 1153.19 Q45.2467 1153.19 42.1912 1149.18 Q39.1357 1145.13 39.1357 1137.14 L39.1357 1128.93 L38.5628 1128.93 Q34.5205 1128.93 32.3244 1131.61 Q30.0964 1134.25 30.0964 1139.05 Q30.0964 1142.11 30.8284 1145.01 Q31.5605 1147.9 33.0246 1150.58 L27.6137 1150.58 Q26.3724 1147.36 25.7677 1144.34 Q25.1311 1141.31 25.1311 1138.45 Q25.1311 1130.72 29.1415 1126.9 Q33.1519 1123.08 41.3 1123.08 Z" fill="#000000" fill-rule="evenodd" fill-opacity="1" /><path clip-path="url(#clip830)" d="M40.1224 1081.38 L61.6384 1081.38 L61.6384 1087.24 L40.3133 1087.24 Q35.2526 1087.24 32.7381 1089.21 Q30.2237 1091.18 30.2237 1095.13 Q30.2237 1099.87 33.2474 1102.61 Q36.2711 1105.35 41.491 1105.35 L61.6384 1105.35 L61.6384 1111.24 L25.9905 1111.24 L25.9905 1105.35 L31.5287 1105.35 Q28.314 1103.25 26.7225 1100.41 Q25.1311 1097.55 25.1311 1093.83 Q25.1311 1087.68 28.9505 1084.53 Q32.7381 1081.38 40.1224 1081.38 Z" fill="#000000" fill-rule="evenodd" fill-opacity="1" /><path clip-path="url(#clip830)" d="M27.3591 1044.05 L32.8336 1044.05 Q31.465 1046.53 30.7966 1049.04 Q30.0964 1051.53 30.0964 1054.07 Q30.0964 1059.77 33.7248 1062.92 Q37.3214 1066.07 43.8463 1066.07 Q50.3711 1066.07 53.9996 1062.92 Q57.5962 1059.77 57.5962 1054.07 Q57.5962 1051.53 56.9278 1049.04 Q56.2276 1046.53 54.859 1044.05 L60.2698 1044.05 Q61.4156 1046.5 61.9886 1049.14 Q62.5615 1051.75 62.5615 1054.71 Q62.5615 1062.76 57.5007 1067.5 Q52.44 1072.25 43.8463 1072.25 Q35.1253 1072.25 30.1282 1067.47 Q25.1311 1062.67 25.1311 1054.33 Q25.1311 1051.62 25.704 1049.04 Q26.2451 1046.47 27.3591 1044.05 Z" fill="#000000" fill-rule="evenodd" fill-opacity="1" /><path clip-path="url(#clip830)" d="M25.9905 1033.86 L25.9905 1028 L61.6384 1028 L61.6384 1033.86 L25.9905 1033.86 M12.1132 1033.86 L12.1132 1028 L19.5293 1028 L19.5293 1033.86 L12.1132 1033.86 Z" fill="#000000" fill-rule="evenodd" fill-opacity="1" /><path clip-path="url(#clip830)" d="M43.719 999.55 Q43.719 1006.65 45.3422 1009.39 Q46.9655 1012.12 50.8804 1012.12 Q53.9996 1012.12 55.8457 1010.09 Q57.6599 1008.02 57.6599 1004.48 Q57.6599 999.614 54.2224 996.685 Q50.7531 993.725 45.0239 993.725 L43.719 993.725 L43.719 999.55 M41.3 987.869 L61.6384 987.869 L61.6384 993.725 L56.2276 993.725 Q59.4741 995.731 61.0337 998.722 Q62.5615 1001.71 62.5615 1006.04 Q62.5615 1011.52 59.5059 1014.76 Q56.4186 1017.98 51.2623 1017.98 Q45.2467 1017.98 42.1912 1013.97 Q39.1357 1009.93 39.1357 1001.94 L39.1357 993.725 L38.5628 993.725 Q34.5205 993.725 32.3244 996.399 Q30.0964 999.041 30.0964 1003.85 Q30.0964 1006.9 30.8284 1009.8 Q31.5605 1012.7 33.0246 1015.37 L27.6137 1015.37 Q26.3724 1012.15 25.7677 1009.13 Q25.1311 1006.11 25.1311 1003.24 Q25.1311 995.508 29.1415 991.688 Q33.1519 987.869 41.3 987.869 Z" fill="#000000" fill-rule="evenodd" fill-opacity="1" /><path clip-path="url(#clip830)" d="M31.465 934.429 Q30.8921 935.416 30.6375 936.593 Q30.351 937.739 30.351 939.139 Q30.351 944.105 33.5975 946.778 Q36.8122 949.42 42.8596 949.42 L61.6384 949.42 L61.6384 955.308 L25.9905 955.308 L25.9905 949.42 L31.5287 949.42 Q28.2821 947.574 26.7225 944.614 Q25.1311 941.654 25.1311 937.421 Q25.1311 936.816 25.2266 936.084 Q25.2903 935.352 25.4494 934.461 L31.465 934.429 Z" fill="#000000" fill-rule="evenodd" fill-opacity="1" /><path clip-path="url(#clip830)" d="M42.3504 899.227 L45.2149 899.227 L45.2149 926.153 Q51.2623 925.771 54.4452 922.525 Q57.5962 919.247 57.5962 913.422 Q57.5962 910.048 56.7687 906.897 Q55.9411 903.714 54.2861 900.595 L59.8242 900.595 Q61.161 903.746 61.8612 907.056 Q62.5615 910.366 62.5615 913.772 Q62.5615 922.302 57.5962 927.299 Q52.631 932.265 44.1646 932.265 Q35.4117 932.265 30.2873 927.554 Q25.1311 922.811 25.1311 914.791 Q25.1311 907.597 29.7781 903.428 Q34.3932 899.227 42.3504 899.227 M40.6316 905.083 Q35.8255 905.147 32.9609 907.788 Q30.0964 910.398 30.0964 914.727 Q30.0964 919.629 32.8654 922.589 Q35.6345 925.517 40.6634 925.962 L40.6316 905.083 Z" fill="#000000" fill-rule="evenodd" fill-opacity="1" /><path clip-path="url(#clip830)" d="M27.3591 863.96 L32.8336 863.96 Q31.465 866.443 30.7966 868.958 Q30.0964 871.44 30.0964 873.986 Q30.0964 879.684 33.7248 882.835 Q37.3214 885.986 43.8463 885.986 Q50.3711 885.986 53.9996 882.835 Q57.5962 879.684 57.5962 873.986 Q57.5962 871.44 56.9278 868.958 Q56.2276 866.443 54.859 863.96 L60.2698 863.96 Q61.4156 866.411 61.9886 869.053 Q62.5615 871.663 62.5615 874.623 Q62.5615 882.676 57.5007 887.418 Q52.44 892.161 43.8463 892.161 Q35.1253 892.161 30.1282 887.386 Q25.1311 882.58 25.1311 874.241 Q25.1311 871.536 25.704 868.958 Q26.2451 866.379 27.3591 863.96 Z" fill="#000000" fill-rule="evenodd" fill-opacity="1" /><path clip-path="url(#clip830)" d="M30.0964 839.962 Q30.0964 844.672 33.7885 847.41 Q37.4488 850.147 43.8463 850.147 Q50.2438 850.147 53.9359 847.441 Q57.5962 844.704 57.5962 839.962 Q57.5962 835.283 53.9041 832.546 Q50.212 829.808 43.8463 829.808 Q37.5124 829.808 33.8203 832.546 Q30.0964 835.283 30.0964 839.962 M25.1311 839.962 Q25.1311 832.323 30.0964 827.962 Q35.0616 823.602 43.8463 823.602 Q52.5991 823.602 57.5962 827.962 Q62.5615 832.323 62.5615 839.962 Q62.5615 847.632 57.5962 851.993 Q52.5991 856.322 43.8463 856.322 Q35.0616 856.322 30.0964 851.993 Q25.1311 847.632 25.1311 839.962 Z" fill="#000000" fill-rule="evenodd" fill-opacity="1" /><path clip-path="url(#clip830)" d="M31.465 793.237 Q30.8921 794.224 30.6375 795.402 Q30.351 796.548 30.351 797.948 Q30.351 802.913 33.5975 805.587 Q36.8122 808.229 42.8596 808.229 L61.6384 808.229 L61.6384 814.117 L25.9905 814.117 L25.9905 808.229 L31.5287 808.229 Q28.2821 806.383 26.7225 803.423 Q25.1311 800.463 25.1311 796.229 Q25.1311 795.625 25.2266 794.893 Q25.2903 794.161 25.4494 793.269 L31.465 793.237 Z" fill="#000000" fill-rule="evenodd" fill-opacity="1" /><path clip-path="url(#clip830)" d="M31.465 767.584 Q30.8921 768.57 30.6375 769.748 Q30.351 770.894 30.351 772.294 Q30.351 777.26 33.5975 779.933 Q36.8122 782.575 42.8596 782.575 L61.6384 782.575 L61.6384 788.463 L25.9905 788.463 L25.9905 782.575 L31.5287 782.575 Q28.2821 780.729 26.7225 777.769 Q25.1311 774.809 25.1311 770.576 Q25.1311 769.971 25.2266 769.239 Q25.2903 768.507 25.4494 767.616 L31.465 767.584 Z" fill="#000000" fill-rule="evenodd" fill-opacity="1" /><path clip-path="url(#clip830)" d="M25.9905 761.441 L25.9905 755.584 L61.6384 755.584 L61.6384 761.441 L25.9905 761.441 M12.1132 761.441 L12.1132 755.584 L19.5293 755.584 L19.5293 761.441 L12.1132 761.441 Z" fill="#000000" fill-rule="evenodd" fill-opacity="1" /><path clip-path="url(#clip830)" d="M31.4013 719.873 L12.1132 719.873 L12.1132 714.016 L61.6384 714.016 L61.6384 719.873 L56.2912 719.873 Q59.4741 721.719 61.0337 724.552 Q62.5615 727.352 62.5615 731.299 Q62.5615 737.76 57.4052 741.834 Q52.249 745.877 43.8463 745.877 Q35.4436 745.877 30.2873 741.834 Q25.1311 737.76 25.1311 731.299 Q25.1311 727.352 26.6907 724.552 Q28.2185 721.719 31.4013 719.873 M43.8463 739.829 Q50.3075 739.829 53.9996 737.187 Q57.6599 734.514 57.6599 729.867 Q57.6599 725.22 53.9996 722.546 Q50.3075 719.873 43.8463 719.873 Q37.3851 719.873 33.7248 722.546 Q30.0327 725.22 30.0327 729.867 Q30.0327 734.514 33.7248 737.187 Q37.3851 739.829 43.8463 739.829 Z" fill="#000000" fill-rule="evenodd" fill-opacity="1" /><path clip-path="url(#clip830)" d="M43.719 685.753 Q43.719 692.85 45.3422 695.588 Q46.9655 698.325 50.8804 698.325 Q53.9996 698.325 55.8457 696.288 Q57.6599 694.219 57.6599 690.686 Q57.6599 685.816 54.2224 682.888 Q50.7531 679.928 45.0239 679.928 L43.719 679.928 L43.719 685.753 M41.3 674.071 L61.6384 674.071 L61.6384 679.928 L56.2276 679.928 Q59.4741 681.933 61.0337 684.925 Q62.5615 687.917 62.5615 692.246 Q62.5615 697.72 59.5059 700.967 Q56.4186 704.181 51.2623 704.181 Q45.2467 704.181 42.1912 700.171 Q39.1357 696.129 39.1357 688.14 L39.1357 679.928 L38.5628 679.928 Q34.5205 679.928 32.3244 682.602 Q30.0964 685.243 30.0964 690.049 Q30.0964 693.105 30.8284 696.001 Q31.5605 698.898 33.0246 701.571 L27.6137 701.571 Q26.3724 698.357 25.7677 695.333 Q25.1311 692.309 25.1311 689.445 Q25.1311 681.71 29.1415 677.891 Q33.1519 674.071 41.3 674.071 Z" fill="#000000" fill-rule="evenodd" fill-opacity="1" /><path clip-path="url(#clip830)" d="M12.1769 627.22 Q19.4975 631.485 26.6589 633.554 Q33.8203 635.623 41.1727 635.623 Q48.5251 635.623 55.7502 633.554 Q62.9434 631.453 70.2321 627.22 L70.2321 632.312 Q62.7524 637.087 55.5274 639.474 Q48.3023 641.829 41.1727 641.829 Q34.0749 641.829 26.8817 639.474 Q19.6884 637.119 12.1769 632.312 L12.1769 627.22 Z" fill="#000000" fill-rule="evenodd" fill-opacity="1" /><path clip-path="url(#clip830)" d="M27.3591 590.203 L32.8336 590.203 Q31.465 592.686 30.7966 595.2 Q30.0964 597.683 30.0964 600.229 Q30.0964 605.927 33.7248 609.078 Q37.3214 612.229 43.8463 612.229 Q50.3711 612.229 53.9996 609.078 Q57.5962 605.927 57.5962 600.229 Q57.5962 597.683 56.9278 595.2 Q56.2276 592.686 54.859 590.203 L60.2698 590.203 Q61.4156 592.654 61.9886 595.296 Q62.5615 597.906 62.5615 600.866 Q62.5615 608.918 57.5007 613.661 Q52.44 618.403 43.8463 618.403 Q35.1253 618.403 30.1282 613.629 Q25.1311 608.823 25.1311 600.484 Q25.1311 597.778 25.704 595.2 Q26.2451 592.622 27.3591 590.203 Z" fill="#000000" fill-rule="evenodd" fill-opacity="1" /><path clip-path="url(#clip830)" d="M32.8336 552.264 Q28.8869 550.067 27.009 547.012 Q25.1311 543.956 25.1311 539.819 Q25.1311 534.249 29.046 531.225 Q32.9291 528.201 40.1224 528.201 L61.6384 528.201 L61.6384 534.09 L40.3133 534.09 Q35.1889 534.09 32.7063 535.904 Q30.2237 537.718 30.2237 541.442 Q30.2237 545.993 33.2474 548.635 Q36.2711 551.277 41.491 551.277 L61.6384 551.277 L61.6384 557.165 L40.3133 557.165 Q35.1571 557.165 32.7063 558.979 Q30.2237 560.794 30.2237 564.581 Q30.2237 569.069 33.2792 571.711 Q36.3029 574.353 41.491 574.353 L61.6384 574.353 L61.6384 580.241 L25.9905 580.241 L25.9905 574.353 L31.5287 574.353 Q28.2503 572.347 26.6907 569.547 Q25.1311 566.746 25.1311 562.894 Q25.1311 559.011 27.1045 556.306 Q29.0779 553.569 32.8336 552.264 Z" fill="#000000" fill-rule="evenodd" fill-opacity="1" /><path clip-path="url(#clip830)" d="M12.1769 517.443 L12.1769 512.351 Q19.6884 507.576 26.8817 505.221 Q34.0749 502.834 41.1727 502.834 Q48.3023 502.834 55.5274 505.221 Q62.7524 507.576 70.2321 512.351 L70.2321 517.443 Q62.9434 513.21 55.7502 511.141 Q48.5251 509.041 41.1727 509.041 Q33.8203 509.041 26.6589 511.141 Q19.4975 513.21 12.1769 517.443 Z" fill="#000000" fill-rule="evenodd" fill-opacity="1" /><circle clip-path="url(#clip832)" cx="279.026" cy="1459.03" r="14.4" fill="#009af9" fill-rule="evenodd" fill-opacity="1" stroke="#000000" stroke-opacity="1" stroke-width="3.84"/>
<circle clip-path="url(#clip832)" cx="661.183" cy="1421.14" r="14.4" fill="#009af9" fill-rule="evenodd" fill-opacity="1" stroke="#000000" stroke-opacity="1" stroke-width="3.84"/>
<circle clip-path="url(#clip832)" cx="1043.34" cy="1307.47" r="14.4" fill="#009af9" fill-rule="evenodd" fill-opacity="1" stroke="#000000" stroke-opacity="1" stroke-width="3.84"/>
<circle clip-path="url(#clip832)" cx="1425.5" cy="1118.02" r="14.4" fill="#009af9" fill-rule="evenodd" fill-opacity="1" stroke="#000000" stroke-opacity="1" stroke-width="3.84"/>
<circle clip-path="url(#clip832)" cx="1807.65" cy="852.79" r="14.4" fill="#009af9" fill-rule="evenodd" fill-opacity="1" stroke="#000000" stroke-opacity="1" stroke-width="3.84"/>
<circle clip-path="url(#clip832)" cx="2189.81" cy="511.778" r="14.4" fill="#009af9" fill-rule="evenodd" fill-opacity="1" stroke="#000000" stroke-opacity="1" stroke-width="3.84"/>
<circle clip-path="url(#clip832)" cx="2571.97" cy="94.9858" r="14.4" fill="#009af9" fill-rule="evenodd" fill-opacity="1" stroke="#000000" stroke-opacity="1" stroke-width="3.84"/>
<polyline clip-path="url(#clip832)" style="stroke:#0000ff; stroke-linecap:round; stroke-linejoin:round; stroke-width:4; stroke-opacity:1; fill:none" points="
  279.026,1459.03 661.183,1421.14 1043.34,1307.47 1425.5,1118.02 1807.65,852.79 2189.81,511.778 2571.97,94.9858 
  "/>
<polyline clip-path="url(#clip832)" style="stroke:#3da44d; stroke-linecap:round; stroke-linejoin:round; stroke-width:4; stroke-opacity:1; fill:none" points="
  279.026,1459.03 293.954,1454.59 431.988,1413.54 514.941,1388.86 585.076,1368 661.262,1345.34 731.5,1324.45 806.802,1302.05 894.046,1276.1 971.579,1253.04 
  1039.57,1232.81 1113.69,1210.77 1188.26,1188.59 1270.7,1164.06 1349.15,1140.73 1430.71,1116.47 1499.37,1096.05 1583.19,1071.12 1659.98,1048.28 1730.9,1027.18 
  1802.74,1005.81 1883.25,981.866 1956.21,960.165 2039.74,935.32 2117.08,912.315 2193.33,889.635 2267.36,867.614 2343.25,845.04 2426.4,820.308 2547.19,784.381 
  2571.97,777.01 
  "/>
<polyline clip-path="url(#clip832)" style="stroke:#c271d2; stroke-linecap:round; stroke-linejoin:round; stroke-width:4; stroke-opacity:1; fill:none" points="
  279.026,1572.7 293.954,1566.78 431.988,1512.04 514.941,1479.14 585.076,1451.33 661.262,1421.11 731.5,1393.26 806.802,1363.39 894.046,1328.79 971.579,1298.04 
  1039.57,1271.08 1113.69,1241.68 1188.26,1212.11 1270.7,1179.41 1349.15,1148.3 1430.71,1115.95 1499.37,1088.73 1583.19,1055.48 1659.98,1025.03 1730.9,996.902 
  1802.74,968.411 1883.25,936.48 1956.21,907.546 2039.74,874.419 2117.08,843.746 2193.33,813.506 2267.36,784.145 2343.25,754.047 2426.4,721.07 2547.19,673.167 
  2571.97,663.339 
  "/>
<polyline clip-path="url(#clip832)" style="stroke:#ac8d18; stroke-linecap:round; stroke-linejoin:round; stroke-width:4; stroke-opacity:1; fill:none" points="
  279.026,1686.38 293.954,1678.97 431.988,1610.55 514.941,1569.42 585.076,1534.65 661.262,1496.88 731.5,1462.07 806.802,1424.73 894.046,1381.48 971.579,1343.05 
  1039.57,1309.34 1113.69,1272.6 1188.26,1235.63 1270.7,1194.76 1349.15,1155.87 1430.71,1115.44 1499.37,1081.4 1583.19,1039.85 1659.98,1001.78 1730.9,966.622 
  1802.74,931.008 1883.25,891.095 1956.21,854.927 2039.74,813.518 2117.08,775.177 2193.33,737.376 2267.36,700.676 2343.25,663.053 2426.4,621.832 2547.19,561.953 
  2571.97,549.668 
  "/>
</svg>
