<?xml version="1.0" encoding="utf-8"?>
<svg xmlns="http://www.w3.org/2000/svg" xmlns:xlink="http://www.w3.org/1999/xlink" width="672" height="480" viewBox="0 0 2688 1920">
<defs>
  <clipPath id="clip110">
    <rect x="0" y="0" width="2688" height="1920"/>
  </clipPath>
</defs>
<path clip-path="url(#clip110)" d="
M0 1920 L2688 1920 L2688 0 L0 0  Z
  " fill="#ffffff" fill-rule="evenodd" fill-opacity="1"/>
<defs>
  <clipPath id="clip111">
    <rect x="537" y="0" width="1883" height="1883"/>
  </clipPath>
</defs>
<defs>
  <clipPath id="clip112">
    <rect x="150" y="47" width="2491" height="1755"/>
  </clipPath>
</defs>
<path clip-path="url(#clip110)" d="
M150.937 1800.78 L2640.76 1800.78 L2640.76 47.2441 L150.937 47.2441  Z
  " fill="#ffffff" fill-rule="evenodd" fill-opacity="1"/>
<polyline clip-path="url(#clip112)" style="stroke:#000000; stroke-linecap:round; stroke-linejoin:round; stroke-width:2; stroke-opacity:0.1; fill:none" points="
  221.403,1800.78 221.403,47.2441 
  "/>
<polyline clip-path="url(#clip112)" style="stroke:#000000; stroke-linecap:round; stroke-linejoin:round; stroke-width:2; stroke-opacity:0.1; fill:none" points="
  808.625,1800.78 808.625,47.2441 
  "/>
<polyline clip-path="url(#clip112)" style="stroke:#000000; stroke-linecap:round; stroke-linejoin:round; stroke-width:2; stroke-opacity:0.1; fill:none" points="
  1395.85,1800.78 1395.85,47.2441 
  "/>
<polyline clip-path="url(#clip112)" style="stroke:#000000; stroke-linecap:round; stroke-linejoin:round; stroke-width:2; stroke-opacity:0.1; fill:none" points="
  1983.07,1800.78 1983.07,47.2441 
  "/>
<polyline clip-path="url(#clip112)" style="stroke:#000000; stroke-linecap:round; stroke-linejoin:round; stroke-width:2; stroke-opacity:0.1; fill:none" points="
  2570.29,1800.78 2570.29,47.2441 
  "/>
<polyline clip-path="url(#clip110)" style="stroke:#000000; stroke-linecap:round; stroke-linejoin:round; stroke-width:4; stroke-opacity:1; fill:none" points="
  150.937,1800.78 2640.76,1800.78 
  "/>
<polyline clip-path="url(#clip110)" style="stroke:#000000; stroke-linecap:round; stroke-linejoin:round; stroke-width:4; stroke-opacity:1; fill:none" points="
  221.403,1800.78 221.403,1781.88 
  "/>
<polyline clip-path="url(#clip110)" style="stroke:#000000; stroke-linecap:round; stroke-linejoin:round; stroke-width:4; stroke-opacity:1; fill:none" points="
  808.625,1800.78 808.625,1781.88 
  "/>
<polyline clip-path="url(#clip110)" style="stroke:#000000; stroke-linecap:round; stroke-linejoin:round; stroke-width:4; stroke-opacity:1; fill:none" points="
  1395.85,1800.78 1395.85,1781.88 
  "/>
<polyline clip-path="url(#clip110)" style="stroke:#000000; stroke-linecap:round; stroke-linejoin:round; stroke-width:4; stroke-opacity:1; fill:none" points="
  1983.07,1800.78 1983.07,1781.88 
  "/>
<polyline clip-path="url(#clip110)" style="stroke:#000000; stroke-linecap:round; stroke-linejoin:round; stroke-width:4; stroke-opacity:1; fill:none" points="
  2570.29,1800.78 2570.29,1781.88 
  "/>
<path clip-path="url(#clip110)" d="M191.345 1848.65 L221.021 1848.65 L221.021 1852.59 L191.345 1852.59 L191.345 1848.65 Z" fill="#000000" fill-rule="evenodd" fill-opacity="1" /><path clip-path="url(#clip110)" d="M235.142 1861.55 L251.461 1861.55 L251.461 1865.48 L229.517 1865.48 L229.517 1861.55 Q232.179 1858.79 236.762 1854.16 Q241.368 1849.51 242.549 1848.17 Q244.794 1845.65 245.674 1843.91 Q246.577 1842.15 246.577 1840.46 Q246.577 1837.71 244.632 1835.97 Q242.711 1834.23 239.609 1834.23 Q237.41 1834.23 234.956 1835 Q232.526 1835.76 229.748 1837.31 L229.748 1832.59 Q232.572 1831.46 235.026 1830.88 Q237.48 1830.3 239.517 1830.3 Q244.887 1830.3 248.081 1832.98 Q251.276 1835.67 251.276 1840.16 Q251.276 1842.29 250.466 1844.21 Q249.679 1846.11 247.572 1848.7 Q246.993 1849.37 243.892 1852.59 Q240.79 1855.78 235.142 1861.55 Z" fill="#000000" fill-rule="evenodd" fill-opacity="1" /><path clip-path="url(#clip110)" d="M778.382 1848.65 L808.058 1848.65 L808.058 1852.59 L778.382 1852.59 L778.382 1848.65 Z" fill="#000000" fill-rule="evenodd" fill-opacity="1" /><path clip-path="url(#clip110)" d="M818.96 1861.55 L826.599 1861.55 L826.599 1835.18 L818.289 1836.85 L818.289 1832.59 L826.553 1830.92 L831.229 1830.92 L831.229 1861.55 L838.868 1861.55 L838.868 1865.48 L818.96 1865.48 L818.96 1861.55 Z" fill="#000000" fill-rule="evenodd" fill-opacity="1" /><path clip-path="url(#clip110)" d="M1395.85 1834 Q1392.24 1834 1390.41 1837.57 Q1388.6 1841.11 1388.6 1848.24 Q1388.6 1855.34 1390.41 1858.91 Q1392.24 1862.45 1395.85 1862.45 Q1399.48 1862.45 1401.29 1858.91 Q1403.11 1855.34 1403.11 1848.24 Q1403.11 1841.11 1401.29 1837.57 Q1399.48 1834 1395.85 1834 M1395.85 1830.3 Q1401.66 1830.3 1404.71 1834.9 Q1407.79 1839.49 1407.79 1848.24 Q1407.79 1856.96 1404.71 1861.57 Q1401.66 1866.15 1395.85 1866.15 Q1390.04 1866.15 1386.96 1861.57 Q1383.9 1856.96 1383.9 1848.24 Q1383.9 1839.49 1386.96 1834.9 Q1390.04 1830.3 1395.85 1830.3 Z" fill="#000000" fill-rule="evenodd" fill-opacity="1" /><path clip-path="url(#clip110)" d="M1973.45 1861.55 L1981.09 1861.55 L1981.09 1835.18 L1972.78 1836.85 L1972.78 1832.59 L1981.04 1830.92 L1985.72 1830.92 L1985.72 1861.55 L1993.36 1861.55 L1993.36 1865.48 L1973.45 1865.48 L1973.45 1861.55 Z" fill="#000000" fill-rule="evenodd" fill-opacity="1" /><path clip-path="url(#clip110)" d="M2564.94 1861.55 L2581.26 1861.55 L2581.26 1865.48 L2559.32 1865.48 L2559.32 1861.55 Q2561.98 1858.79 2566.56 1854.16 Q2571.17 1849.51 2572.35 1848.17 Q2574.59 1845.65 2575.47 1843.91 Q2576.38 1842.15 2576.38 1840.46 Q2576.38 1837.71 2574.43 1835.97 Q2572.51 1834.23 2569.41 1834.23 Q2567.21 1834.23 2564.76 1835 Q2562.33 1835.76 2559.55 1837.31 L2559.55 1832.59 Q2562.37 1831.46 2564.83 1830.88 Q2567.28 1830.3 2569.32 1830.3 Q2574.69 1830.3 2577.88 1832.98 Q2581.08 1835.67 2581.08 1840.16 Q2581.08 1842.29 2580.27 1844.21 Q2579.48 1846.11 2577.37 1848.7 Q2576.79 1849.37 2573.69 1852.59 Q2570.59 1855.78 2564.94 1861.55 Z" fill="#000000" fill-rule="evenodd" fill-opacity="1" /><polyline clip-path="url(#clip112)" style="stroke:#000000; stroke-linecap:round; stroke-linejoin:round; stroke-width:2; stroke-opacity:0.1; fill:none" points="
  150.937,1751.48 2640.76,1751.48 
  "/>
<polyline clip-path="url(#clip112)" style="stroke:#000000; stroke-linecap:round; stroke-linejoin:round; stroke-width:2; stroke-opacity:0.1; fill:none" points="
  150.937,1457.33 2640.76,1457.33 
  "/>
<polyline clip-path="url(#clip112)" style="stroke:#000000; stroke-linecap:round; stroke-linejoin:round; stroke-width:2; stroke-opacity:0.1; fill:none" points="
  150.937,1163.18 2640.76,1163.18 
  "/>
<polyline clip-path="url(#clip112)" style="stroke:#000000; stroke-linecap:round; stroke-linejoin:round; stroke-width:2; stroke-opacity:0.1; fill:none" points="
  150.937,869.025 2640.76,869.025 
  "/>
<polyline clip-path="url(#clip112)" style="stroke:#000000; stroke-linecap:round; stroke-linejoin:round; stroke-width:2; stroke-opacity:0.1; fill:none" points="
  150.937,574.871 2640.76,574.871 
  "/>
<polyline clip-path="url(#clip112)" style="stroke:#000000; stroke-linecap:round; stroke-linejoin:round; stroke-width:2; stroke-opacity:0.1; fill:none" points="
  150.937,280.718 2640.76,280.718 
  "/>
<polyline clip-path="url(#clip110)" style="stroke:#000000; stroke-linecap:round; stroke-linejoin:round; stroke-width:4; stroke-opacity:1; fill:none" points="
  150.937,1800.78 150.937,47.2441 
  "/>
<polyline clip-path="url(#clip110)" style="stroke:#000000; stroke-linecap:round; stroke-linejoin:round; stroke-width:4; stroke-opacity:1; fill:none" points="
  150.937,1751.48 169.834,1751.48 
  "/>
<polyline clip-path="url(#clip110)" style="stroke:#000000; stroke-linecap:round; stroke-linejoin:round; stroke-width:4; stroke-opacity:1; fill:none" points="
  150.937,1457.33 169.834,1457.33 
  "/>
<polyline clip-path="url(#clip110)" style="stroke:#000000; stroke-linecap:round; stroke-linejoin:round; stroke-width:4; stroke-opacity:1; fill:none" points="
  150.937,1163.18 169.834,1163.18 
  "/>
<polyline clip-path="url(#clip110)" style="stroke:#000000; stroke-linecap:round; stroke-linejoin:round; stroke-width:4; stroke-opacity:1; fill:none" points="
  150.937,869.025 169.834,869.025 
  "/>
<polyline clip-path="url(#clip110)" style="stroke:#000000; stroke-linecap:round; stroke-linejoin:round; stroke-width:4; stroke-opacity:1; fill:none" points="
  150.937,574.871 169.834,574.871 
  "/>
<polyline clip-path="url(#clip110)" style="stroke:#000000; stroke-linecap:round; stroke-linejoin:round; stroke-width:4; stroke-opacity:1; fill:none" points="
  150.937,280.718 169.834,280.718 
  "/>
<path clip-path="url(#clip110)" d="M49.5521 1751.94 L79.2279 1751.94 L79.2279 1755.87 L49.5521 1755.87 L49.5521 1751.94 Z" fill="#000000" fill-rule="evenodd" fill-opacity="1" /><path clip-path="url(#clip110)" d="M103.487 1750.13 Q106.843 1750.85 108.718 1753.12 Q110.617 1755.38 110.617 1758.72 Q110.617 1763.83 107.098 1766.63 Q103.58 1769.44 97.0982 1769.44 Q94.9223 1769.44 92.6075 1769 Q90.3158 1768.58 87.8621 1767.72 L87.8621 1763.21 Q89.8065 1764.34 92.1213 1764.92 Q94.4361 1765.5 96.9593 1765.5 Q101.357 1765.5 103.649 1763.76 Q105.964 1762.03 105.964 1758.72 Q105.964 1755.66 103.811 1753.95 Q101.681 1752.21 97.8621 1752.21 L93.8343 1752.21 L93.8343 1748.37 L98.0472 1748.37 Q101.496 1748.37 103.325 1747.01 Q105.154 1745.62 105.154 1743.02 Q105.154 1740.36 103.256 1738.95 Q101.381 1737.51 97.8621 1737.51 Q95.9408 1737.51 93.7417 1737.93 Q91.5426 1738.35 88.9038 1739.23 L88.9038 1735.06 Q91.5658 1734.32 93.8806 1733.95 Q96.2185 1733.58 98.2787 1733.58 Q103.603 1733.58 106.705 1736.01 Q109.806 1738.42 109.806 1742.54 Q109.806 1745.41 108.163 1747.4 Q106.519 1749.37 103.487 1750.13 Z" fill="#000000" fill-rule="evenodd" fill-opacity="1" /><path clip-path="url(#clip110)" d="M50.5012 1457.78 L80.177 1457.78 L80.177 1461.72 L50.5012 1461.72 L50.5012 1457.78 Z" fill="#000000" fill-rule="evenodd" fill-opacity="1" /><path clip-path="url(#clip110)" d="M94.2973 1470.68 L110.617 1470.68 L110.617 1474.61 L88.6723 1474.61 L88.6723 1470.68 Q91.3343 1467.92 95.9176 1463.29 Q100.524 1458.64 101.705 1457.3 Q103.95 1454.77 104.83 1453.04 Q105.732 1451.28 105.732 1449.59 Q105.732 1446.83 103.788 1445.1 Q101.867 1443.36 98.7648 1443.36 Q96.5658 1443.36 94.1121 1444.13 Q91.6815 1444.89 88.9038 1446.44 L88.9038 1441.72 Q91.7278 1440.58 94.1815 1440 Q96.6352 1439.43 98.6722 1439.43 Q104.043 1439.43 107.237 1442.11 Q110.431 1444.8 110.431 1449.29 Q110.431 1451.42 109.621 1453.34 Q108.834 1455.24 106.728 1457.83 Q106.149 1458.5 103.047 1461.72 Q99.9454 1464.91 94.2973 1470.68 Z" fill="#000000" fill-rule="evenodd" fill-opacity="1" /><path clip-path="url(#clip110)" d="M50.1308 1163.63 L79.8066 1163.63 L79.8066 1167.56 L50.1308 1167.56 L50.1308 1163.63 Z" fill="#000000" fill-rule="evenodd" fill-opacity="1" /><path clip-path="url(#clip110)" d="M90.7093 1176.52 L98.3482 1176.52 L98.3482 1150.16 L90.038 1151.82 L90.038 1147.56 L98.3019 1145.9 L102.978 1145.9 L102.978 1176.52 L110.617 1176.52 L110.617 1180.46 L90.7093 1180.46 L90.7093 1176.52 Z" fill="#000000" fill-rule="evenodd" fill-opacity="1" /><path clip-path="url(#clip110)" d="M98.6722 854.823 Q95.0611 854.823 93.2324 858.388 Q91.4269 861.93 91.4269 869.059 Q91.4269 876.166 93.2324 879.731 Q95.0611 883.272 98.6722 883.272 Q102.306 883.272 104.112 879.731 Q105.941 876.166 105.941 869.059 Q105.941 861.93 104.112 858.388 Q102.306 854.823 98.6722 854.823 M98.6722 851.12 Q104.482 851.12 107.538 855.726 Q110.617 860.309 110.617 869.059 Q110.617 877.786 107.538 882.393 Q104.482 886.976 98.6722 886.976 Q92.8621 886.976 89.7834 882.393 Q86.7279 877.786 86.7279 869.059 Q86.7279 860.309 89.7834 855.726 Q92.8621 851.12 98.6722 851.12 Z" fill="#000000" fill-rule="evenodd" fill-opacity="1" /><path clip-path="url(#clip110)" d="M90.7093 588.216 L98.3482 588.216 L98.3482 561.851 L90.038 563.517 L90.038 559.258 L98.3019 557.591 L102.978 557.591 L102.978 588.216 L110.617 588.216 L110.617 592.151 L90.7093 592.151 L90.7093 588.216 Z" fill="#000000" fill-rule="evenodd" fill-opacity="1" /><path clip-path="url(#clip110)" d="M94.2973 294.063 L110.617 294.063 L110.617 297.998 L88.6723 297.998 L88.6723 294.063 Q91.3343 291.308 95.9176 286.679 Q100.524 282.026 101.705 280.683 Q103.95 278.16 104.83 276.424 Q105.732 274.665 105.732 272.975 Q105.732 270.22 103.788 268.484 Q101.867 266.748 98.7648 266.748 Q96.5658 266.748 94.1121 267.512 Q91.6815 268.276 88.9038 269.827 L88.9038 265.105 Q91.7278 263.97 94.1815 263.392 Q96.6352 262.813 98.6722 262.813 Q104.043 262.813 107.237 265.498 Q110.431 268.183 110.431 272.674 Q110.431 274.804 109.621 276.725 Q108.834 278.623 106.728 281.216 Q106.149 281.887 103.047 285.105 Q99.9454 288.299 94.2973 294.063 Z" fill="#000000" fill-rule="evenodd" fill-opacity="1" /><polyline clip-path="url(#clip112)" style="stroke:#009af9; stroke-linecap:round; stroke-linejoin:round; stroke-width:4; stroke-opacity:1; fill:none" points="
  221.403,1457.33 236.696,1437.4 378.097,1252 463.074,1140.41 534.92,1046.89 573.943,996.757 612.966,947.363 648.941,902.699 684.917,859.121 723.486,813.933 
  762.056,770.739 784.399,746.819 806.742,723.838 829.085,701.912 851.429,681.166 871.285,663.829 891.141,647.631 910.997,632.676 930.853,619.076 948.265,608.353 
  965.677,598.837 983.089,590.608 1000.5,583.744 1019.48,577.909 1038.47,573.891 1057.45,571.784 1076.44,571.676 1095.53,573.663 1114.63,577.818 1133.73,584.194 
  1152.82,592.822 1173.94,604.998 1195.05,619.921 1216.16,637.531 1237.28,657.723 1257.37,679.193 1277.46,702.692 1297.54,728.011 1317.63,754.904 1359.41,814.619 
  1401.19,877.048 1436.35,929.416 1471.52,979.648 1492.99,1008.52 1514.45,1035.62 1535.92,1060.64 1557.39,1083.32 1577.05,1101.88 1596.72,1118.19 1616.38,1132.16 
  1636.05,1143.76 1654.21,1152.34 1672.37,1158.87 1690.54,1163.39 1708.7,1165.93 1727.1,1166.54 1745.5,1165.25 1763.89,1162.13 1782.29,1157.26 1802.91,1149.84 
  1823.53,1140.47 1844.15,1129.28 1864.77,1116.4 1883.45,1103.38 1902.14,1089.17 1920.82,1073.87 1939.5,1057.57 1960.9,1037.77 1982.29,1016.88 2003.68,995.014 
  2025.07,972.268 2064.69,928.148 2104.3,881.88 2143.36,834.608 2182.41,786.061 2220.33,737.998 2258.25,689.256 2335.99,587.977 2421.17,476.091 2544.9,313.821 
  2570.29,280.718 
  "/>
<polyline clip-path="url(#clip112)" style="stroke:#e26f46; stroke-linecap:round; stroke-linejoin:round; stroke-width:4; stroke-opacity:1; fill:none" points="
  221.403,104.226 229.049,103.622 236.696,103.035 307.396,98.6459 378.097,96.8724 420.585,97.6328 463.074,100.24 498.997,104.246 534.92,110.281 573.943,119.626 
  612.966,132.496 630.953,139.817 648.941,148.125 666.929,157.507 684.917,168.056 704.201,180.774 723.486,195.074 742.771,211.093 762.056,228.971 784.399,252.206 
  806.742,278.372 829.085,307.712 851.429,340.467 871.285,372.633 891.141,407.84 910.997,446.232 930.853,487.935 948.265,527.306 965.677,569.343 983.089,614.066 
  1000.5,661.464 1019.48,716.136 1038.47,773.819 1057.45,834.334 1076.44,897.427 1114.63,1030.72 1152.82,1169.17 1173.94,1246.05 1195.05,1321.82 1216.16,1395.29 
  1237.28,1465.2 1247.32,1496.82 1257.37,1527.2 1267.41,1556.18 1277.46,1583.63 1287.5,1609.41 1297.54,1633.39 1307.59,1655.45 1317.63,1675.47 1328.08,1694 
  1338.52,1710.1 1348.97,1723.66 1359.41,1734.61 1369.85,1742.87 1380.3,1748.39 1390.74,1751.15 1401.19,1751.12 1409.98,1748.93 1418.77,1744.78 1427.56,1738.68 
  1436.35,1730.66 1445.14,1720.75 1453.94,1709 1462.73,1695.46 1471.52,1680.19 1482.25,1659.3 1492.99,1636.05 1503.72,1610.58 1514.45,1583.05 1525.19,1553.63 
  1535.92,1522.47 1546.65,1489.74 1557.39,1455.62 1577.05,1390.09 1596.72,1321.55 1616.38,1251.02 1636.05,1179.47 1672.37,1047.53 1708.7,919.761 1727.1,857.788 
  1745.5,798.128 1763.89,741.039 1782.29,686.713 1802.91,629.271 1823.53,575.565 1844.15,525.624 1864.77,479.418 1883.45,440.709 1902.14,404.917 1920.82,371.935 
  1939.5,341.644 1960.9,310.097 1982.29,281.697 2003.68,256.233 2025.07,233.492 2044.88,214.682 2064.69,197.866 2084.49,182.89 2104.3,169.605 2123.83,158.026 
  2143.36,147.829 2162.88,138.894 2182.41,131.111 2220.33,118.907 2258.25,109.988 2297.12,103.651 2335.99,99.6346 2378.58,97.3777 2421.17,96.8989 2483.04,98.588 
  2544.9,102.29 2557.6,103.233 2570.29,104.226 
  "/>
<path clip-path="url(#clip110)" d="
M233.931 418.532 L1043.4 418.532 L1043.4 105.695 L233.931 105.695  Z
  " fill="#ffffff" fill-rule="evenodd" fill-opacity="1"/>
<polyline clip-path="url(#clip110)" style="stroke:#000000; stroke-linecap:round; stroke-linejoin:round; stroke-width:4; stroke-opacity:1; fill:none" points="
  233.931,418.532 1043.4,418.532 1043.4,105.695 233.931,105.695 233.931,418.532 
  "/>
<polyline clip-path="url(#clip110)" style="stroke:#009af9; stroke-linecap:round; stroke-linejoin:round; stroke-width:4; stroke-opacity:1; fill:none" points="
  261.595,209.974 427.583,209.974 
  "/>
<path clip-path="url(#clip110)" d="M477.265 201.875 Q477.265 201.899 477.124 202.742 L471.784 224.033 Q471.503 225.157 470.707 226.282 Q469.934 227.429 468.692 228.413 Q467.474 229.42 465.601 230.029 Q463.75 230.662 461.619 230.662 Q458.223 230.662 456.723 229.935 Q455.248 229.233 455.248 227.734 Q455.248 226.422 456.068 225.673 Q456.887 224.946 457.824 224.946 Q458.714 224.946 459.183 225.462 Q459.651 225.977 459.651 226.633 Q459.651 227.359 459.159 228.085 Q458.668 228.835 457.684 229.116 Q459.253 229.608 461.525 229.608 Q466.327 229.608 468.388 224.525 Q468.435 224.455 468.435 224.431 L470.027 218.084 L469.957 218.037 Q469.559 218.505 468.927 219.044 Q468.318 219.559 467.006 220.192 Q465.694 220.824 464.406 220.824 Q461.712 220.824 459.862 218.763 Q458.035 216.678 458.035 213.235 Q458.035 210.729 459.042 208.223 Q460.073 205.693 461.666 203.843 Q463.282 201.969 465.343 200.798 Q467.428 199.627 469.442 199.627 Q470.847 199.627 472.042 200.47 Q473.236 201.29 473.892 202.648 Q474.009 201.524 474.642 201.056 Q475.297 200.587 475.86 200.587 Q476.492 200.587 476.867 200.938 Q477.265 201.266 477.265 201.875 M473.33 204.803 Q473.33 204.663 473.236 204.288 Q473.143 203.89 472.862 203.257 Q472.604 202.625 472.206 202.063 Q471.808 201.501 471.081 201.102 Q470.379 200.681 469.489 200.681 Q468.037 200.681 466.584 201.899 Q465.132 203.093 464.125 204.944 Q463.188 206.724 462.298 210.167 Q461.431 213.61 461.431 215.367 Q461.431 217.1 462.181 218.435 Q462.93 219.77 464.547 219.77 Q466.42 219.77 468.435 218.037 Q470.519 216.233 470.871 214.687 L473.189 205.529 Q473.33 204.967 473.33 204.803 Z" fill="#000000" fill-rule="evenodd" fill-opacity="1" /><path clip-path="url(#clip110)" d="M483.843 208.832 Q483.843 200.728 486.864 194.193 Q488.152 191.452 489.956 189.157 Q491.759 186.862 492.954 185.854 Q494.148 184.847 494.476 184.847 Q494.945 184.847 494.968 185.316 Q494.968 185.55 494.336 186.135 Q486.606 194.005 486.63 208.832 Q486.63 223.705 494.148 231.271 Q494.968 232.09 494.968 232.348 Q494.968 232.816 494.476 232.816 Q494.148 232.816 493.001 231.856 Q491.853 230.896 490.073 228.694 Q488.293 226.492 487.005 223.799 Q483.843 217.264 483.843 208.832 Z" fill="#000000" fill-rule="evenodd" fill-opacity="1" /><path clip-path="url(#clip110)" d="M522.506 202.789 Q522.506 204.1 521.686 204.85 Q520.866 205.576 519.929 205.576 Q519.039 205.576 518.571 205.061 Q518.102 204.546 518.102 203.89 Q518.102 203 518.758 202.227 Q519.414 201.454 520.398 201.29 Q519.437 200.681 518.009 200.681 Q517.072 200.681 516.252 201.173 Q515.456 201.665 514.964 202.297 Q514.495 202.929 514.074 203.843 Q513.676 204.733 513.512 205.272 Q513.371 205.787 513.254 206.349 L511.614 212.907 Q510.818 216.023 510.818 217.123 Q510.818 218.482 511.474 219.395 Q512.13 220.285 513.441 220.285 Q513.957 220.285 514.542 220.145 Q515.128 219.981 515.877 219.559 Q516.65 219.114 517.329 218.458 Q518.032 217.779 518.711 216.632 Q519.391 215.484 519.836 214.008 Q519.976 213.493 520.445 213.493 Q521.03 213.493 521.03 213.961 Q521.03 214.36 520.702 215.203 Q520.398 216.023 519.719 217.1 Q519.063 218.154 518.196 219.114 Q517.329 220.051 516.041 220.707 Q514.753 221.363 513.348 221.363 Q511.333 221.363 509.998 220.285 Q508.663 219.208 508.171 217.709 Q508.054 217.92 507.89 218.201 Q507.726 218.482 507.234 219.114 Q506.766 219.723 506.227 220.192 Q505.688 220.637 504.845 220.988 Q504.025 221.363 503.135 221.363 Q502.011 221.363 501.004 221.035 Q500.02 220.707 499.318 219.957 Q498.615 219.208 498.615 218.177 Q498.615 217.03 499.388 216.233 Q500.184 215.414 501.262 215.414 Q501.941 215.414 502.48 215.812 Q503.042 216.21 503.042 217.077 Q503.042 218.037 502.386 218.763 Q501.73 219.489 500.793 219.676 Q501.754 220.285 503.182 220.285 Q504.728 220.285 505.946 218.927 Q507.164 217.568 507.75 215.296 Q509.202 209.839 509.764 207.403 Q510.326 204.944 510.326 203.89 Q510.326 202.906 510.068 202.227 Q509.811 201.547 509.366 201.243 Q508.944 200.915 508.546 200.798 Q508.171 200.681 507.75 200.681 Q507.047 200.681 506.251 200.962 Q505.478 201.243 504.541 201.899 Q503.627 202.531 502.761 203.843 Q501.894 205.155 501.308 206.958 Q501.191 207.497 500.676 207.497 Q500.114 207.473 500.114 207.005 Q500.114 206.607 500.418 205.787 Q500.746 204.944 501.402 203.89 Q502.081 202.836 502.948 201.899 Q503.838 200.938 505.126 200.283 Q506.438 199.627 507.843 199.627 Q508.476 199.627 509.085 199.767 Q509.717 199.884 510.467 200.236 Q511.24 200.587 511.919 201.36 Q512.598 202.133 513.02 203.257 Q513.301 202.719 513.676 202.203 Q514.074 201.688 514.683 201.056 Q515.315 200.4 516.182 200.025 Q517.072 199.627 518.056 199.627 Q519.016 199.627 519.953 199.884 Q520.89 200.119 521.686 200.892 Q522.506 201.641 522.506 202.789 Z" fill="#000000" fill-rule="evenodd" fill-opacity="1" /><path clip-path="url(#clip110)" d="M527.125 232.348 Q527.125 232.114 527.734 231.528 Q535.464 223.658 535.464 208.832 Q535.464 193.959 528.039 186.44 Q527.125 185.573 527.125 185.316 Q527.125 184.847 527.594 184.847 Q527.922 184.847 529.07 185.808 Q530.241 186.768 531.997 188.97 Q533.777 191.171 535.089 193.865 Q538.251 200.4 538.251 208.832 Q538.251 216.936 535.23 223.471 Q533.941 226.211 532.138 228.507 Q530.334 230.802 529.14 231.809 Q527.945 232.816 527.594 232.816 Q527.125 232.816 527.125 232.348 Z" fill="#000000" fill-rule="evenodd" fill-opacity="1" /><path clip-path="url(#clip110)" d="M558.857 213.54 Q558.904 212.954 559.818 212.954 L589.213 212.954 Q590.595 212.954 590.618 213.493 Q590.618 214.078 589.306 214.055 L560.145 214.055 Q558.857 214.078 558.857 213.54 M558.857 204.171 Q558.857 203.585 559.864 203.609 L589.166 203.609 Q590.595 203.609 590.618 204.171 Q590.618 204.709 589.4 204.709 L559.818 204.709 Q558.857 204.709 558.857 204.171 Z" fill="#000000" fill-rule="evenodd" fill-opacity="1" /><path clip-path="url(#clip110)" d="M619.365 196.372 Q619.365 195.505 619.436 195.247 Q619.529 194.99 619.904 194.592 L629.109 184.332 Q634.145 178.664 634.145 173.722 Q634.145 170.513 632.459 168.218 Q630.796 165.922 627.727 165.922 Q625.619 165.922 623.839 167.211 Q622.059 168.499 621.239 170.794 Q621.38 170.747 621.872 170.747 Q623.066 170.747 623.722 171.497 Q624.401 172.247 624.401 173.254 Q624.401 174.542 623.558 175.174 Q622.738 175.783 621.918 175.783 Q621.591 175.783 621.145 175.713 Q620.724 175.643 620.045 174.987 Q619.365 174.308 619.365 173.113 Q619.365 169.764 621.895 167.094 Q624.448 164.423 628.336 164.423 Q632.74 164.423 635.621 167.047 Q638.525 169.647 638.525 173.722 Q638.525 175.151 638.08 176.463 Q637.658 177.751 637.073 178.758 Q636.511 179.765 634.965 181.381 Q633.419 182.997 632.177 184.145 Q630.936 185.293 628.149 187.729 L623.066 192.671 L631.709 192.671 Q635.925 192.671 636.253 192.296 Q636.721 191.617 637.307 188.033 L638.525 188.033 L637.166 196.372 L619.365 196.372 Z" fill="#000000" fill-rule="evenodd" fill-opacity="1" /><path clip-path="url(#clip110)" d="M667.013 178.336 Q667.013 179.648 666.193 180.398 Q665.373 181.124 664.436 181.124 Q663.546 181.124 663.078 180.608 Q662.609 180.093 662.609 179.437 Q662.609 178.547 663.265 177.774 Q663.921 177.001 664.905 176.837 Q663.944 176.228 662.515 176.228 Q661.579 176.228 660.759 176.72 Q659.962 177.212 659.471 177.844 Q659.002 178.477 658.58 179.39 Q658.182 180.28 658.018 180.819 Q657.878 181.334 657.761 181.897 L656.121 188.455 Q655.325 191.57 655.325 192.671 Q655.325 194.029 655.981 194.943 Q656.636 195.833 657.948 195.833 Q658.463 195.833 659.049 195.692 Q659.634 195.528 660.384 195.107 Q661.157 194.662 661.836 194.006 Q662.539 193.327 663.218 192.179 Q663.897 191.031 664.342 189.556 Q664.483 189.04 664.951 189.04 Q665.537 189.04 665.537 189.509 Q665.537 189.907 665.209 190.75 Q664.905 191.57 664.225 192.647 Q663.569 193.701 662.703 194.662 Q661.836 195.599 660.548 196.255 Q659.26 196.91 657.854 196.91 Q655.84 196.91 654.505 195.833 Q653.17 194.755 652.678 193.256 Q652.561 193.467 652.397 193.748 Q652.233 194.029 651.741 194.662 Q651.273 195.271 650.734 195.739 Q650.195 196.184 649.352 196.536 Q648.532 196.91 647.642 196.91 Q646.518 196.91 645.511 196.582 Q644.527 196.255 643.824 195.505 Q643.122 194.755 643.122 193.725 Q643.122 192.577 643.895 191.781 Q644.691 190.961 645.768 190.961 Q646.448 190.961 646.986 191.359 Q647.548 191.757 647.548 192.624 Q647.548 193.584 646.893 194.31 Q646.237 195.037 645.3 195.224 Q646.26 195.833 647.689 195.833 Q649.235 195.833 650.453 194.474 Q651.671 193.116 652.256 190.844 Q653.709 185.386 654.271 182.951 Q654.833 180.491 654.833 179.437 Q654.833 178.453 654.575 177.774 Q654.318 177.095 653.873 176.79 Q653.451 176.463 653.053 176.345 Q652.678 176.228 652.256 176.228 Q651.554 176.228 650.757 176.509 Q649.984 176.79 649.048 177.446 Q648.134 178.079 647.267 179.39 Q646.401 180.702 645.815 182.506 Q645.698 183.044 645.183 183.044 Q644.621 183.021 644.621 182.552 Q644.621 182.154 644.925 181.334 Q645.253 180.491 645.909 179.437 Q646.588 178.383 647.455 177.446 Q648.345 176.486 649.633 175.83 Q650.945 175.174 652.35 175.174 Q652.982 175.174 653.591 175.315 Q654.224 175.432 654.973 175.783 Q655.746 176.135 656.426 176.908 Q657.105 177.681 657.526 178.805 Q657.808 178.266 658.182 177.751 Q658.58 177.235 659.189 176.603 Q659.822 175.947 660.688 175.572 Q661.579 175.174 662.562 175.174 Q663.523 175.174 664.459 175.432 Q665.396 175.666 666.193 176.439 Q667.013 177.189 667.013 178.336 Z" fill="#000000" fill-rule="evenodd" fill-opacity="1" /><path clip-path="url(#clip110)" d="M671.902 176.756 Q671.902 175.756 672.475 175.28 Q673.049 174.805 673.787 174.805 Q674.558 174.805 675.099 175.313 Q675.656 175.805 675.656 176.674 Q675.656 177.608 675 178.133 Q674.361 178.658 673.443 178.527 Q674.246 179.871 675.722 180.478 Q677.214 181.084 678.591 181.084 Q680.034 181.084 681.198 179.838 Q682.378 178.592 682.378 175.543 Q682.378 172.952 681.362 171.46 Q680.362 169.968 678.378 169.968 L676.902 169.968 Q676.394 169.968 676.246 169.919 Q676.099 169.87 676.099 169.591 Q676.099 169.263 676.607 169.197 Q677.115 169.197 677.919 169.099 Q679.87 169.033 680.903 167.345 Q681.837 165.771 681.837 163.524 Q681.837 161.475 680.854 160.622 Q679.886 159.753 678.624 159.753 Q677.443 159.753 676.148 160.245 Q674.853 160.737 674.148 161.836 Q676.23 161.836 676.23 163.524 Q676.23 164.262 675.755 164.754 Q675.296 165.23 674.525 165.23 Q673.787 165.23 673.295 164.771 Q672.803 164.295 672.803 163.492 Q672.803 161.573 674.509 160.245 Q676.23 158.917 678.755 158.917 Q681.247 158.917 683.084 160.229 Q684.936 161.541 684.936 163.557 Q684.936 165.541 683.625 167.164 Q682.313 168.787 680.231 169.46 Q682.788 169.968 684.313 171.706 Q685.838 173.427 685.838 175.543 Q685.838 178.166 683.772 180.101 Q681.706 182.019 678.689 182.019 Q675.902 182.019 673.902 180.51 Q671.902 179.002 671.902 176.756 Z" fill="#000000" fill-rule="evenodd" fill-opacity="1" /><path clip-path="url(#clip110)" d="M735.794 183.7 Q736.075 183.981 736.075 184.379 Q736.075 184.778 735.794 185.059 Q735.513 185.34 735.114 185.34 L705.087 185.34 Q704.689 185.34 704.408 185.059 Q704.127 184.778 704.127 184.379 Q704.127 183.981 704.408 183.7 Q704.689 183.419 705.087 183.419 L735.114 183.419 Q735.513 183.419 735.794 183.7 Z" fill="#000000" fill-rule="evenodd" fill-opacity="1" /><path clip-path="url(#clip110)" d="M754.395 189.907 Q754.395 188.478 755.214 187.799 Q756.034 187.12 757.088 187.12 Q758.189 187.12 758.962 187.846 Q759.758 188.549 759.758 189.79 Q759.758 191.125 758.822 191.875 Q757.908 192.624 756.596 192.437 Q757.744 194.357 759.852 195.224 Q761.984 196.091 763.951 196.091 Q766.012 196.091 767.675 194.31 Q769.362 192.53 769.362 188.174 Q769.362 184.473 767.909 182.342 Q766.481 180.21 763.647 180.21 L761.539 180.21 Q760.812 180.21 760.602 180.14 Q760.391 180.07 760.391 179.671 Q760.391 179.203 761.117 179.109 Q761.843 179.109 762.991 178.969 Q765.778 178.875 767.254 176.463 Q768.589 174.214 768.589 171.005 Q768.589 168.077 767.183 166.859 Q765.801 165.618 763.998 165.618 Q762.311 165.618 760.461 166.321 Q758.611 167.023 757.604 168.593 Q760.578 168.593 760.578 171.005 Q760.578 172.059 759.899 172.762 Q759.243 173.441 758.142 173.441 Q757.088 173.441 756.386 172.785 Q755.683 172.106 755.683 170.958 Q755.683 168.218 758.119 166.321 Q760.578 164.423 764.185 164.423 Q767.745 164.423 770.369 166.297 Q773.016 168.171 773.016 171.052 Q773.016 173.886 771.142 176.205 Q769.268 178.524 766.293 179.484 Q769.947 180.21 772.125 182.693 Q774.304 185.152 774.304 188.174 Q774.304 191.921 771.353 194.685 Q768.401 197.426 764.092 197.426 Q760.11 197.426 757.252 195.271 Q754.395 193.116 754.395 189.907 Z" fill="#000000" fill-rule="evenodd" fill-opacity="1" /><path clip-path="url(#clip110)" d="M801.274 178.336 Q801.274 179.648 800.454 180.398 Q799.634 181.124 798.697 181.124 Q797.807 181.124 797.339 180.608 Q796.87 180.093 796.87 179.437 Q796.87 178.547 797.526 177.774 Q798.182 177.001 799.166 176.837 Q798.205 176.228 796.777 176.228 Q795.84 176.228 795.02 176.72 Q794.224 177.212 793.732 177.844 Q793.263 178.477 792.842 179.39 Q792.444 180.28 792.28 180.819 Q792.139 181.334 792.022 181.897 L790.382 188.455 Q789.586 191.57 789.586 192.671 Q789.586 194.029 790.242 194.943 Q790.898 195.833 792.209 195.833 Q792.725 195.833 793.31 195.692 Q793.896 195.528 794.645 195.107 Q795.418 194.662 796.097 194.006 Q796.8 193.327 797.479 192.179 Q798.159 191.031 798.604 189.556 Q798.744 189.04 799.213 189.04 Q799.798 189.04 799.798 189.509 Q799.798 189.907 799.47 190.75 Q799.166 191.57 798.487 192.647 Q797.831 193.701 796.964 194.662 Q796.097 195.599 794.809 196.255 Q793.521 196.91 792.116 196.91 Q790.101 196.91 788.766 195.833 Q787.431 194.755 786.939 193.256 Q786.822 193.467 786.658 193.748 Q786.494 194.029 786.002 194.662 Q785.534 195.271 784.995 195.739 Q784.457 196.184 783.613 196.536 Q782.794 196.91 781.903 196.91 Q780.779 196.91 779.772 196.582 Q778.788 196.255 778.086 195.505 Q777.383 194.755 777.383 193.725 Q777.383 192.577 778.156 191.781 Q778.952 190.961 780.03 190.961 Q780.709 190.961 781.248 191.359 Q781.81 191.757 781.81 192.624 Q781.81 193.584 781.154 194.31 Q780.498 195.037 779.561 195.224 Q780.522 195.833 781.95 195.833 Q783.496 195.833 784.714 194.474 Q785.932 193.116 786.518 190.844 Q787.97 185.386 788.532 182.951 Q789.094 180.491 789.094 179.437 Q789.094 178.453 788.836 177.774 Q788.579 177.095 788.134 176.79 Q787.712 176.463 787.314 176.345 Q786.939 176.228 786.518 176.228 Q785.815 176.228 785.019 176.509 Q784.246 176.79 783.309 177.446 Q782.395 178.079 781.529 179.39 Q780.662 180.702 780.077 182.506 Q779.959 183.044 779.444 183.044 Q778.882 183.021 778.882 182.552 Q778.882 182.154 779.186 181.334 Q779.514 180.491 780.17 179.437 Q780.849 178.383 781.716 177.446 Q782.606 176.486 783.894 175.83 Q785.206 175.174 786.611 175.174 Q787.244 175.174 787.853 175.315 Q788.485 175.432 789.235 175.783 Q790.008 176.135 790.687 176.908 Q791.366 177.681 791.788 178.805 Q792.069 178.266 792.444 177.751 Q792.842 177.235 793.451 176.603 Q794.083 175.947 794.95 175.572 Q795.84 175.174 796.824 175.174 Q797.784 175.174 798.721 175.432 Q799.658 175.666 800.454 176.439 Q801.274 177.189 801.274 178.336 Z" fill="#000000" fill-rule="evenodd" fill-opacity="1" /><path clip-path="url(#clip110)" d="
M619.365 210.222 L806.163 210.222 L806.163 207.662 L619.365 207.662  Z
  " fill="#000000" fill-rule="evenodd" fill-opacity="1"/>
<path clip-path="url(#clip110)" d="M671.256 238.93 Q671.256 240.242 670.436 240.991 Q669.617 241.717 668.68 241.717 Q667.79 241.717 667.321 241.202 Q666.853 240.687 666.853 240.031 Q666.853 239.141 667.509 238.368 Q668.165 237.595 669.148 237.431 Q668.188 236.822 666.759 236.822 Q665.822 236.822 665.002 237.314 Q664.206 237.806 663.714 238.438 Q663.246 239.07 662.824 239.984 Q662.426 240.874 662.262 241.413 Q662.122 241.928 662.004 242.49 L660.365 249.048 Q659.568 252.164 659.568 253.264 Q659.568 254.623 660.224 255.536 Q660.88 256.427 662.192 256.427 Q662.707 256.427 663.293 256.286 Q663.878 256.122 664.628 255.7 Q665.401 255.255 666.08 254.6 Q666.783 253.92 667.462 252.773 Q668.141 251.625 668.586 250.149 Q668.727 249.634 669.195 249.634 Q669.781 249.634 669.781 250.102 Q669.781 250.501 669.453 251.344 Q669.148 252.164 668.469 253.241 Q667.813 254.295 666.947 255.255 Q666.08 256.192 664.792 256.848 Q663.503 257.504 662.098 257.504 Q660.084 257.504 658.749 256.427 Q657.414 255.349 656.922 253.85 Q656.805 254.061 656.641 254.342 Q656.477 254.623 655.985 255.255 Q655.516 255.864 654.978 256.333 Q654.439 256.778 653.596 257.129 Q652.776 257.504 651.886 257.504 Q650.762 257.504 649.754 257.176 Q648.771 256.848 648.068 256.099 Q647.365 255.349 647.365 254.318 Q647.365 253.171 648.138 252.374 Q648.935 251.555 650.012 251.555 Q650.691 251.555 651.23 251.953 Q651.792 252.351 651.792 253.218 Q651.792 254.178 651.136 254.904 Q650.481 255.63 649.544 255.818 Q650.504 256.427 651.933 256.427 Q653.479 256.427 654.697 255.068 Q655.915 253.709 656.5 251.438 Q657.952 245.98 658.514 243.544 Q659.077 241.085 659.077 240.031 Q659.077 239.047 658.819 238.368 Q658.561 237.689 658.116 237.384 Q657.695 237.056 657.297 236.939 Q656.922 236.822 656.5 236.822 Q655.797 236.822 655.001 237.103 Q654.228 237.384 653.291 238.04 Q652.378 238.672 651.511 239.984 Q650.645 241.296 650.059 243.099 Q649.942 243.638 649.427 243.638 Q648.864 243.614 648.864 243.146 Q648.864 242.748 649.169 241.928 Q649.497 241.085 650.153 240.031 Q650.832 238.977 651.699 238.04 Q652.589 237.08 653.877 236.424 Q655.188 235.768 656.594 235.768 Q657.226 235.768 657.835 235.908 Q658.468 236.026 659.217 236.377 Q659.99 236.728 660.669 237.501 Q661.349 238.274 661.77 239.398 Q662.051 238.86 662.426 238.344 Q662.824 237.829 663.433 237.197 Q664.066 236.541 664.932 236.166 Q665.822 235.768 666.806 235.768 Q667.766 235.768 668.703 236.026 Q669.64 236.26 670.436 237.033 Q671.256 237.782 671.256 238.93 Z" fill="#000000" fill-rule="evenodd" fill-opacity="1" /><path clip-path="url(#clip110)" d="M676.145 242.61 Q676.145 242.003 676.195 241.823 Q676.26 241.642 676.522 241.364 L682.966 234.182 Q686.491 230.214 686.491 226.755 Q686.491 224.509 685.311 222.902 Q684.146 221.295 681.999 221.295 Q680.523 221.295 679.277 222.197 Q678.031 223.099 677.457 224.706 Q677.555 224.673 677.9 224.673 Q678.736 224.673 679.195 225.197 Q679.67 225.722 679.67 226.427 Q679.67 227.329 679.08 227.771 Q678.506 228.198 677.933 228.198 Q677.703 228.198 677.391 228.149 Q677.096 228.099 676.621 227.64 Q676.145 227.165 676.145 226.329 Q676.145 223.984 677.916 222.115 Q679.703 220.246 682.425 220.246 Q685.507 220.246 687.524 222.082 Q689.557 223.902 689.557 226.755 Q689.557 227.755 689.246 228.673 Q688.95 229.575 688.541 230.28 Q688.147 230.985 687.065 232.116 Q685.983 233.248 685.114 234.051 Q684.245 234.854 682.294 236.56 L678.736 240.019 L684.786 240.019 Q687.737 240.019 687.967 239.757 Q688.295 239.281 688.704 236.773 L689.557 236.773 L688.606 242.61 L676.145 242.61 Z" fill="#000000" fill-rule="evenodd" fill-opacity="1" /><path clip-path="url(#clip110)" d="M708.957 245.558 Q707.856 245.558 707.856 244.973 Q707.856 244.387 709.003 244.387 Q709.144 244.387 709.378 244.411 Q709.636 244.434 709.683 244.434 L723.197 244.434 L723.197 230.873 Q723.197 230.826 723.174 230.615 Q723.151 230.381 723.151 230.24 Q723.151 229.093 723.713 229.093 Q724.298 229.093 724.298 230.24 L724.298 244.434 L737.837 244.434 Q737.883 244.434 738.118 244.411 Q738.352 244.387 738.492 244.387 Q739.593 244.387 739.593 244.973 Q739.617 245.558 738.445 245.558 Q738.305 245.558 738.094 245.535 Q737.883 245.512 737.837 245.512 L724.298 245.512 L724.298 259.752 Q724.298 260.853 723.713 260.853 Q723.151 260.853 723.151 259.706 Q723.151 259.565 723.174 259.331 Q723.197 259.12 723.197 259.073 L723.197 245.512 L709.683 245.512 Q709.636 245.512 709.355 245.535 Q709.097 245.558 708.957 245.558 Z" fill="#000000" fill-rule="evenodd" fill-opacity="1" /><path clip-path="url(#clip110)" d="M758.124 229.584 L758.124 228.085 Q763.886 228.085 766.86 225.017 Q767.68 225.017 767.821 225.204 Q767.961 225.392 767.961 226.258 L767.961 253.171 Q767.961 254.6 768.664 255.045 Q769.367 255.49 772.435 255.49 L773.957 255.49 L773.957 256.965 Q772.271 256.825 766.181 256.825 Q760.091 256.825 758.428 256.965 L758.428 255.49 L759.951 255.49 Q762.972 255.49 763.698 255.068 Q764.425 254.623 764.425 253.171 L764.425 228.32 Q761.918 229.584 758.124 229.584 Z" fill="#000000" fill-rule="evenodd" fill-opacity="1" /><polyline clip-path="url(#clip110)" style="stroke:#e26f46; stroke-linecap:round; stroke-linejoin:round; stroke-width:4; stroke-opacity:1; fill:none" points="
  261.595,314.253 427.583,314.253 
  "/>
<path clip-path="url(#clip110)" d="M477.265 307.178 Q477.265 307.201 477.124 308.045 L471.784 329.336 Q471.503 330.46 470.707 331.584 Q469.934 332.732 468.692 333.716 Q467.474 334.723 465.601 335.332 Q463.75 335.964 461.619 335.964 Q458.223 335.964 456.723 335.238 Q455.248 334.535 455.248 333.036 Q455.248 331.725 456.068 330.975 Q456.887 330.249 457.824 330.249 Q458.714 330.249 459.183 330.764 Q459.651 331.28 459.651 331.935 Q459.651 332.662 459.159 333.388 Q458.668 334.137 457.684 334.418 Q459.253 334.91 461.525 334.91 Q466.327 334.91 468.388 329.827 Q468.435 329.757 468.435 329.734 L470.027 323.386 L469.957 323.339 Q469.559 323.808 468.927 324.347 Q468.318 324.862 467.006 325.494 Q465.694 326.127 464.406 326.127 Q461.712 326.127 459.862 324.066 Q458.035 321.981 458.035 318.538 Q458.035 316.032 459.042 313.525 Q460.073 310.996 461.666 309.145 Q463.282 307.272 465.343 306.101 Q467.428 304.929 469.442 304.929 Q470.847 304.929 472.042 305.773 Q473.236 306.592 473.892 307.951 Q474.009 306.827 474.642 306.358 Q475.297 305.89 475.86 305.89 Q476.492 305.89 476.867 306.241 Q477.265 306.569 477.265 307.178 M473.33 310.106 Q473.33 309.965 473.236 309.59 Q473.143 309.192 472.862 308.56 Q472.604 307.927 472.206 307.365 Q471.808 306.803 471.081 306.405 Q470.379 305.983 469.489 305.983 Q468.037 305.983 466.584 307.201 Q465.132 308.396 464.125 310.246 Q463.188 312.026 462.298 315.47 Q461.431 318.913 461.431 320.669 Q461.431 322.403 462.181 323.738 Q462.93 325.073 464.547 325.073 Q466.42 325.073 468.435 323.339 Q470.519 321.536 470.871 319.99 L473.189 310.832 Q473.33 310.27 473.33 310.106 Z" fill="#000000" fill-rule="evenodd" fill-opacity="1" /><path clip-path="url(#clip110)" d="M481.694 294.272 Q481.694 293.078 482.42 292.586 Q483.146 292.07 483.919 292.07 Q484.879 292.07 485.488 292.656 Q486.121 293.218 486.121 294.272 Q486.121 294.741 486.074 294.998 L484.481 309.473 L483.38 309.473 L481.741 294.998 Q481.694 294.741 481.694 294.272 Z" fill="#000000" fill-rule="evenodd" fill-opacity="1" /><path clip-path="url(#clip110)" d="M494.894 314.134 Q494.894 306.03 497.916 299.495 Q499.204 296.755 501.008 294.46 Q502.811 292.164 504.006 291.157 Q505.2 290.15 505.528 290.15 Q505.997 290.15 506.02 290.618 Q506.02 290.853 505.388 291.438 Q497.658 299.308 497.682 314.134 Q497.682 329.008 505.2 336.573 Q506.02 337.393 506.02 337.651 Q506.02 338.119 505.528 338.119 Q505.2 338.119 504.052 337.159 Q502.905 336.198 501.125 333.997 Q499.345 331.795 498.056 329.101 Q494.894 322.567 494.894 314.134 Z" fill="#000000" fill-rule="evenodd" fill-opacity="1" /><path clip-path="url(#clip110)" d="M533.558 308.091 Q533.558 309.403 532.738 310.153 Q531.918 310.879 530.981 310.879 Q530.091 310.879 529.623 310.363 Q529.154 309.848 529.154 309.192 Q529.154 308.302 529.81 307.529 Q530.466 306.756 531.45 306.592 Q530.489 305.983 529.06 305.983 Q528.124 305.983 527.304 306.475 Q526.507 306.967 526.016 307.6 Q525.547 308.232 525.125 309.145 Q524.727 310.035 524.563 310.574 Q524.423 311.09 524.306 311.652 L522.666 318.21 Q521.87 321.325 521.87 322.426 Q521.87 323.784 522.526 324.698 Q523.181 325.588 524.493 325.588 Q525.008 325.588 525.594 325.447 Q526.179 325.284 526.929 324.862 Q527.702 324.417 528.381 323.761 Q529.084 323.082 529.763 321.934 Q530.442 320.786 530.887 319.311 Q531.028 318.795 531.496 318.795 Q532.082 318.795 532.082 319.264 Q532.082 319.662 531.754 320.505 Q531.45 321.325 530.77 322.403 Q530.114 323.457 529.248 324.417 Q528.381 325.354 527.093 326.01 Q525.805 326.665 524.399 326.665 Q522.385 326.665 521.05 325.588 Q519.715 324.511 519.223 323.012 Q519.106 323.222 518.942 323.503 Q518.778 323.784 518.286 324.417 Q517.818 325.026 517.279 325.494 Q516.74 325.939 515.897 326.291 Q515.077 326.665 514.187 326.665 Q513.063 326.665 512.056 326.338 Q511.072 326.01 510.369 325.26 Q509.667 324.511 509.667 323.48 Q509.667 322.332 510.44 321.536 Q511.236 320.716 512.313 320.716 Q512.993 320.716 513.531 321.114 Q514.093 321.512 514.093 322.379 Q514.093 323.339 513.438 324.066 Q512.782 324.792 511.845 324.979 Q512.805 325.588 514.234 325.588 Q515.78 325.588 516.998 324.23 Q518.216 322.871 518.801 320.599 Q520.254 315.142 520.816 312.706 Q521.378 310.246 521.378 309.192 Q521.378 308.209 521.12 307.529 Q520.863 306.85 520.418 306.546 Q519.996 306.218 519.598 306.101 Q519.223 305.983 518.801 305.983 Q518.099 305.983 517.302 306.264 Q516.529 306.546 515.593 307.201 Q514.679 307.834 513.812 309.145 Q512.946 310.457 512.36 312.261 Q512.243 312.799 511.728 312.799 Q511.166 312.776 511.166 312.307 Q511.166 311.909 511.47 311.09 Q511.798 310.246 512.454 309.192 Q513.133 308.138 514 307.201 Q514.89 306.241 516.178 305.585 Q517.49 304.929 518.895 304.929 Q519.528 304.929 520.136 305.07 Q520.769 305.187 521.518 305.538 Q522.291 305.89 522.971 306.663 Q523.65 307.436 524.071 308.56 Q524.353 308.021 524.727 307.506 Q525.125 306.991 525.734 306.358 Q526.367 305.702 527.233 305.328 Q528.124 304.929 529.107 304.929 Q530.068 304.929 531.004 305.187 Q531.941 305.421 532.738 306.194 Q533.558 306.944 533.558 308.091 Z" fill="#000000" fill-rule="evenodd" fill-opacity="1" /><path clip-path="url(#clip110)" d="M538.177 337.651 Q538.177 337.416 538.786 336.831 Q546.516 328.961 546.516 314.134 Q546.516 299.261 539.091 291.743 Q538.177 290.876 538.177 290.618 Q538.177 290.15 538.646 290.15 Q538.974 290.15 540.121 291.11 Q541.292 292.07 543.049 294.272 Q544.829 296.474 546.141 299.167 Q549.303 305.702 549.303 314.134 Q549.303 322.239 546.281 328.773 Q544.993 331.514 543.19 333.809 Q541.386 336.105 540.192 337.112 Q538.997 338.119 538.646 338.119 Q538.177 338.119 538.177 337.651 Z" fill="#000000" fill-rule="evenodd" fill-opacity="1" /><path clip-path="url(#clip110)" d="M569.909 318.842 Q569.956 318.257 570.869 318.257 L600.264 318.257 Q601.646 318.257 601.67 318.795 Q601.67 319.381 600.358 319.358 L571.197 319.358 Q569.909 319.381 569.909 318.842 M569.909 309.473 Q569.909 308.888 570.916 308.911 L600.218 308.911 Q601.646 308.911 601.67 309.473 Q601.67 310.012 600.452 310.012 L570.869 310.012 Q569.909 310.012 569.909 309.473 Z" fill="#000000" fill-rule="evenodd" fill-opacity="1" /><path clip-path="url(#clip110)" d="M630.417 298.883 Q630.417 298.016 630.487 297.759 Q630.581 297.501 630.956 297.103 L640.161 286.844 Q645.197 281.176 645.197 276.233 Q645.197 273.025 643.51 270.729 Q641.847 268.434 638.779 268.434 Q636.671 268.434 634.891 269.722 Q633.111 271.01 632.291 273.306 Q632.431 273.259 632.923 273.259 Q634.118 273.259 634.774 274.008 Q635.453 274.758 635.453 275.765 Q635.453 277.053 634.61 277.686 Q633.79 278.295 632.97 278.295 Q632.642 278.295 632.197 278.224 Q631.776 278.154 631.096 277.498 Q630.417 276.819 630.417 275.624 Q630.417 272.275 632.947 269.605 Q635.5 266.935 639.388 266.935 Q643.791 266.935 646.672 269.558 Q649.577 272.158 649.577 276.233 Q649.577 277.662 649.132 278.974 Q648.71 280.262 648.124 281.269 Q647.562 282.276 646.016 283.893 Q644.471 285.509 643.229 286.656 Q641.988 287.804 639.201 290.24 L634.118 295.182 L642.761 295.182 Q646.977 295.182 647.305 294.807 Q647.773 294.128 648.359 290.545 L649.577 290.545 L648.218 298.883 L630.417 298.883 Z" fill="#000000" fill-rule="evenodd" fill-opacity="1" /><path clip-path="url(#clip110)" d="M671.818 285.111 Q672.567 285.86 672.567 286.891 Q672.567 287.921 671.818 288.694 Q671.068 289.444 670.038 289.444 Q669.007 289.444 668.234 288.694 Q667.485 287.921 667.485 286.891 Q667.485 285.86 668.234 285.111 Q669.007 284.338 670.038 284.338 Q671.068 284.338 671.818 285.111 Z" fill="#000000" fill-rule="evenodd" fill-opacity="1" /><path clip-path="url(#clip110)" d="M717.888 280.848 Q717.888 282.159 717.068 282.909 Q716.248 283.635 715.311 283.635 Q714.421 283.635 713.953 283.12 Q713.484 282.604 713.484 281.949 Q713.484 281.058 714.14 280.286 Q714.796 279.513 715.78 279.349 Q714.819 278.74 713.39 278.74 Q712.454 278.74 711.634 279.232 Q710.837 279.723 710.346 280.356 Q709.877 280.988 709.455 281.902 Q709.057 282.792 708.893 283.33 Q708.753 283.846 708.636 284.408 L706.996 290.966 Q706.2 294.081 706.2 295.182 Q706.2 296.541 706.856 297.454 Q707.511 298.344 708.823 298.344 Q709.338 298.344 709.924 298.204 Q710.509 298.04 711.259 297.618 Q712.032 297.173 712.711 296.517 Q713.414 295.838 714.093 294.69 Q714.772 293.543 715.217 292.067 Q715.358 291.552 715.826 291.552 Q716.412 291.552 716.412 292.02 Q716.412 292.418 716.084 293.262 Q715.78 294.081 715.1 295.159 Q714.444 296.213 713.578 297.173 Q712.711 298.11 711.423 298.766 Q710.135 299.422 708.729 299.422 Q706.715 299.422 705.38 298.344 Q704.045 297.267 703.553 295.768 Q703.436 295.979 703.272 296.26 Q703.108 296.541 702.616 297.173 Q702.148 297.782 701.609 298.251 Q701.07 298.696 700.227 299.047 Q699.407 299.422 698.517 299.422 Q697.393 299.422 696.386 299.094 Q695.402 298.766 694.699 298.016 Q693.997 297.267 693.997 296.236 Q693.997 295.089 694.77 294.292 Q695.566 293.472 696.643 293.472 Q697.323 293.472 697.861 293.871 Q698.424 294.269 698.424 295.135 Q698.424 296.096 697.768 296.822 Q697.112 297.548 696.175 297.735 Q697.135 298.344 698.564 298.344 Q700.11 298.344 701.328 296.986 Q702.546 295.627 703.131 293.355 Q704.584 287.898 705.146 285.462 Q705.708 283.003 705.708 281.949 Q705.708 280.965 705.45 280.286 Q705.193 279.606 704.748 279.302 Q704.326 278.974 703.928 278.857 Q703.553 278.74 703.131 278.74 Q702.429 278.74 701.632 279.021 Q700.859 279.302 699.923 279.958 Q699.009 280.59 698.142 281.902 Q697.276 283.213 696.69 285.017 Q696.573 285.556 696.058 285.556 Q695.496 285.532 695.496 285.064 Q695.496 284.666 695.8 283.846 Q696.128 283.003 696.784 281.949 Q697.463 280.895 698.33 279.958 Q699.22 278.997 700.508 278.341 Q701.82 277.686 703.225 277.686 Q703.858 277.686 704.466 277.826 Q705.099 277.943 705.848 278.295 Q706.621 278.646 707.301 279.419 Q707.98 280.192 708.401 281.316 Q708.683 280.777 709.057 280.262 Q709.455 279.747 710.064 279.114 Q710.697 278.459 711.563 278.084 Q712.454 277.686 713.437 277.686 Q714.398 277.686 715.335 277.943 Q716.271 278.178 717.068 278.95 Q717.888 279.7 717.888 280.848 Z" fill="#000000" fill-rule="evenodd" fill-opacity="1" /><path clip-path="url(#clip110)" d="M722.777 279.1 L722.777 278.067 L733.09 262.31 Q733.352 261.9 733.762 261.917 Q734.139 261.917 734.221 262.064 Q734.303 262.212 734.303 262.786 L734.303 278.067 L737.664 278.067 L737.664 279.1 L734.303 279.1 L734.303 282.018 Q734.303 282.985 734.696 283.297 Q735.106 283.608 736.844 283.608 L737.549 283.608 L737.549 284.641 Q736.172 284.543 732.991 284.543 Q729.827 284.543 728.45 284.641 L728.45 283.608 L729.155 283.608 Q730.893 283.608 731.302 283.313 Q731.712 283.002 731.712 282.018 L731.712 279.1 L722.777 279.1 M723.728 278.067 L731.909 278.067 L731.909 265.54 L723.728 278.067 Z" fill="#000000" fill-rule="evenodd" fill-opacity="1" /><path clip-path="url(#clip110)" d="M758.938 287.476 Q757.837 287.476 757.837 286.891 Q757.837 286.305 758.985 286.305 Q759.126 286.305 759.36 286.329 Q759.618 286.352 759.664 286.352 L773.179 286.352 L773.179 272.79 Q773.179 272.744 773.156 272.533 Q773.132 272.298 773.132 272.158 Q773.132 271.01 773.694 271.01 Q774.28 271.01 774.28 272.158 L774.28 286.352 L787.818 286.352 Q787.865 286.352 788.099 286.329 Q788.333 286.305 788.474 286.305 Q789.575 286.305 789.575 286.891 Q789.598 287.476 788.427 287.476 Q788.287 287.476 788.076 287.453 Q787.865 287.429 787.818 287.429 L774.28 287.429 L774.28 301.67 Q774.28 302.771 773.694 302.771 Q773.132 302.771 773.132 301.623 Q773.132 301.483 773.156 301.249 Q773.179 301.038 773.179 300.991 L773.179 287.429 L759.664 287.429 Q759.618 287.429 759.336 287.453 Q759.079 287.476 758.938 287.476 Z" fill="#000000" fill-rule="evenodd" fill-opacity="1" /><path clip-path="url(#clip110)" d="M808.106 277.733 Q808.106 275.179 808.855 273.446 Q809.605 271.69 811.174 269.956 Q814.055 266.935 818.224 266.935 Q820.004 266.935 821.573 267.684 Q823.166 268.434 824.665 270.144 Q826.188 271.83 827.101 275.179 Q828.015 278.505 828.015 283.096 Q828.015 290.521 824.408 295.229 Q820.824 299.937 815.976 299.937 Q812.907 299.937 811.104 298.555 Q809.3 297.15 809.3 294.761 Q809.3 293.519 810.003 293.004 Q810.705 292.465 811.502 292.465 Q812.368 292.465 813.048 293.051 Q813.727 293.613 813.727 294.667 Q813.727 295.534 813.165 296.213 Q812.626 296.869 811.221 296.869 Q812.603 298.602 815.929 298.602 Q817.123 298.602 818.318 298.063 Q819.512 297.501 820.801 296.166 Q822.112 294.807 822.909 291.973 Q823.705 289.139 823.705 285.157 L823.705 283.635 Q821.784 288.437 817.709 288.437 Q813.68 288.437 810.893 285.345 Q808.106 282.253 808.106 277.733 M812.415 277.779 Q812.415 282.534 813.282 284.291 Q814.758 287.312 817.756 287.312 Q820.683 287.312 822.136 284.712 Q823.611 282.089 823.611 278.693 Q823.611 273.985 822.838 271.924 Q821.41 268.129 818.224 268.129 Q815.062 268.129 813.422 271.151 Q812.415 272.931 812.415 277.779 Z" fill="#000000" fill-rule="evenodd" fill-opacity="1" /><path clip-path="url(#clip110)" d="M849.506 285.111 Q850.256 285.86 850.256 286.891 Q850.256 287.921 849.506 288.694 Q848.757 289.444 847.726 289.444 Q846.696 289.444 845.923 288.694 Q845.173 287.921 845.173 286.891 Q845.173 285.86 845.923 285.111 Q846.696 284.338 847.726 284.338 Q848.757 284.338 849.506 285.111 Z" fill="#000000" fill-rule="evenodd" fill-opacity="1" /><path clip-path="url(#clip110)" d="M895.576 280.848 Q895.576 282.159 894.756 282.909 Q893.936 283.635 893 283.635 Q892.109 283.635 891.641 283.12 Q891.173 282.604 891.173 281.949 Q891.173 281.058 891.828 280.286 Q892.484 279.513 893.468 279.349 Q892.508 278.74 891.079 278.74 Q890.142 278.74 889.322 279.232 Q888.526 279.723 888.034 280.356 Q887.566 280.988 887.144 281.902 Q886.746 282.792 886.582 283.33 Q886.441 283.846 886.324 284.408 L884.685 290.966 Q883.888 294.081 883.888 295.182 Q883.888 296.541 884.544 297.454 Q885.2 298.344 886.512 298.344 Q887.027 298.344 887.612 298.204 Q888.198 298.04 888.947 297.618 Q889.72 297.173 890.4 296.517 Q891.102 295.838 891.782 294.69 Q892.461 293.543 892.906 292.067 Q893.046 291.552 893.515 291.552 Q894.1 291.552 894.1 292.02 Q894.1 292.418 893.772 293.262 Q893.468 294.081 892.789 295.159 Q892.133 296.213 891.266 297.173 Q890.4 298.11 889.111 298.766 Q887.823 299.422 886.418 299.422 Q884.404 299.422 883.068 298.344 Q881.733 297.267 881.241 295.768 Q881.124 295.979 880.96 296.26 Q880.796 296.541 880.305 297.173 Q879.836 297.782 879.297 298.251 Q878.759 298.696 877.915 299.047 Q877.096 299.422 876.206 299.422 Q875.081 299.422 874.074 299.094 Q873.09 298.766 872.388 298.016 Q871.685 297.267 871.685 296.236 Q871.685 295.089 872.458 294.292 Q873.254 293.472 874.332 293.472 Q875.011 293.472 875.55 293.871 Q876.112 294.269 876.112 295.135 Q876.112 296.096 875.456 296.822 Q874.8 297.548 873.863 297.735 Q874.824 298.344 876.252 298.344 Q877.798 298.344 879.016 296.986 Q880.234 295.627 880.82 293.355 Q882.272 287.898 882.834 285.462 Q883.396 283.003 883.396 281.949 Q883.396 280.965 883.139 280.286 Q882.881 279.606 882.436 279.302 Q882.014 278.974 881.616 278.857 Q881.241 278.74 880.82 278.74 Q880.117 278.74 879.321 279.021 Q878.548 279.302 877.611 279.958 Q876.698 280.59 875.831 281.902 Q874.964 283.213 874.379 285.017 Q874.262 285.556 873.746 285.556 Q873.184 285.532 873.184 285.064 Q873.184 284.666 873.489 283.846 Q873.817 283.003 874.472 281.949 Q875.152 280.895 876.018 279.958 Q876.908 278.997 878.197 278.341 Q879.508 277.686 880.914 277.686 Q881.546 277.686 882.155 277.826 Q882.787 277.943 883.537 278.295 Q884.31 278.646 884.989 279.419 Q885.668 280.192 886.09 281.316 Q886.371 280.777 886.746 280.262 Q887.144 279.747 887.753 279.114 Q888.385 278.459 889.252 278.084 Q890.142 277.686 891.126 277.686 Q892.086 277.686 893.023 277.943 Q893.96 278.178 894.756 278.95 Q895.576 279.7 895.576 280.848 Z" fill="#000000" fill-rule="evenodd" fill-opacity="1" /><path clip-path="url(#clip110)" d="M900.465 284.527 Q900.465 283.921 900.514 283.74 Q900.58 283.56 900.842 283.281 L907.286 276.1 Q910.811 272.132 910.811 268.673 Q910.811 266.427 909.63 264.82 Q908.466 263.213 906.318 263.213 Q904.843 263.213 903.597 264.115 Q902.351 265.016 901.777 266.623 Q901.875 266.59 902.219 266.59 Q903.056 266.59 903.515 267.115 Q903.99 267.64 903.99 268.345 Q903.99 269.247 903.4 269.689 Q902.826 270.116 902.252 270.116 Q902.023 270.116 901.711 270.066 Q901.416 270.017 900.941 269.558 Q900.465 269.083 900.465 268.246 Q900.465 265.902 902.236 264.033 Q904.023 262.164 906.745 262.164 Q909.827 262.164 911.844 264 Q913.877 265.82 913.877 268.673 Q913.877 269.673 913.565 270.591 Q913.27 271.493 912.86 272.198 Q912.467 272.903 911.385 274.034 Q910.303 275.165 909.434 275.969 Q908.565 276.772 906.614 278.477 L903.056 281.937 L909.106 281.937 Q912.057 281.937 912.286 281.675 Q912.614 281.199 913.024 278.69 L913.877 278.69 L912.926 284.527 L900.465 284.527 Z" fill="#000000" fill-rule="evenodd" fill-opacity="1" /><path clip-path="url(#clip110)" d="M967.193 286.211 Q967.474 286.492 967.474 286.891 Q967.474 287.289 967.193 287.57 Q966.912 287.851 966.514 287.851 L936.486 287.851 Q936.088 287.851 935.807 287.57 Q935.526 287.289 935.526 286.891 Q935.526 286.492 935.807 286.211 Q936.088 285.93 936.486 285.93 L966.514 285.93 Q966.912 285.93 967.193 286.211 Z" fill="#000000" fill-rule="evenodd" fill-opacity="1" /><path clip-path="url(#clip110)" d="M985.794 292.418 Q985.794 290.99 986.614 290.31 Q987.434 289.631 988.488 289.631 Q989.588 289.631 990.361 290.357 Q991.158 291.06 991.158 292.301 Q991.158 293.636 990.221 294.386 Q989.307 295.135 987.996 294.948 Q989.143 296.869 991.251 297.735 Q993.383 298.602 995.35 298.602 Q997.412 298.602 999.075 296.822 Q1000.76 295.042 1000.76 290.685 Q1000.76 286.984 999.309 284.853 Q997.88 282.721 995.046 282.721 L992.938 282.721 Q992.212 282.721 992.001 282.651 Q991.79 282.581 991.79 282.183 Q991.79 281.714 992.516 281.621 Q993.242 281.621 994.39 281.48 Q997.177 281.386 998.653 278.974 Q999.988 276.725 999.988 273.516 Q999.988 270.589 998.583 269.371 Q997.201 268.129 995.397 268.129 Q993.711 268.129 991.86 268.832 Q990.01 269.535 989.003 271.104 Q991.978 271.104 991.978 273.516 Q991.978 274.57 991.298 275.273 Q990.642 275.952 989.542 275.952 Q988.488 275.952 987.785 275.297 Q987.082 274.617 987.082 273.47 Q987.082 270.729 989.518 268.832 Q991.978 266.935 995.585 266.935 Q999.145 266.935 1001.77 268.809 Q1004.41 270.682 1004.41 273.563 Q1004.41 276.397 1002.54 278.716 Q1000.67 281.035 997.693 281.995 Q1001.35 282.721 1003.52 285.204 Q1005.7 287.664 1005.7 290.685 Q1005.7 294.433 1002.75 297.197 Q999.801 299.937 995.491 299.937 Q991.509 299.937 988.652 297.782 Q985.794 295.627 985.794 292.418 Z" fill="#000000" fill-rule="evenodd" fill-opacity="1" /><path clip-path="url(#clip110)" d="
M630.417 315.533 L1010.62 315.533 L1010.62 312.973 L630.417 312.973  Z
  " fill="#000000" fill-rule="evenodd" fill-opacity="1"/>
<path clip-path="url(#clip110)" d="M687.908 344.507 Q687.908 345.819 687.088 346.568 Q686.268 347.294 685.332 347.294 Q684.441 347.294 683.973 346.779 Q683.505 346.264 683.505 345.608 Q683.505 344.718 684.16 343.945 Q684.816 343.172 685.8 343.008 Q684.84 342.399 683.411 342.399 Q682.474 342.399 681.654 342.891 Q680.858 343.383 680.366 344.015 Q679.898 344.648 679.476 345.561 Q679.078 346.451 678.914 346.99 Q678.773 347.505 678.656 348.067 L677.017 354.626 Q676.22 357.741 676.22 358.842 Q676.22 360.2 676.876 361.114 Q677.532 362.004 678.844 362.004 Q679.359 362.004 679.944 361.863 Q680.53 361.699 681.279 361.278 Q682.052 360.833 682.732 360.177 Q683.434 359.497 684.114 358.35 Q684.793 357.202 685.238 355.726 Q685.378 355.211 685.847 355.211 Q686.432 355.211 686.432 355.68 Q686.432 356.078 686.104 356.921 Q685.8 357.741 685.121 358.818 Q684.465 359.872 683.598 360.833 Q682.732 361.769 681.443 362.425 Q680.155 363.081 678.75 363.081 Q676.736 363.081 675.4 362.004 Q674.065 360.926 673.573 359.427 Q673.456 359.638 673.292 359.919 Q673.128 360.2 672.637 360.833 Q672.168 361.442 671.629 361.91 Q671.091 362.355 670.247 362.706 Q669.428 363.081 668.538 363.081 Q667.413 363.081 666.406 362.753 Q665.422 362.425 664.72 361.676 Q664.017 360.926 664.017 359.896 Q664.017 358.748 664.79 357.952 Q665.586 357.132 666.664 357.132 Q667.343 357.132 667.882 357.53 Q668.444 357.928 668.444 358.795 Q668.444 359.755 667.788 360.481 Q667.132 361.207 666.195 361.395 Q667.156 362.004 668.585 362.004 Q670.13 362.004 671.348 360.645 Q672.566 359.287 673.152 357.015 Q674.604 351.557 675.166 349.121 Q675.728 346.662 675.728 345.608 Q675.728 344.624 675.471 343.945 Q675.213 343.266 674.768 342.961 Q674.346 342.633 673.948 342.516 Q673.573 342.399 673.152 342.399 Q672.449 342.399 671.653 342.68 Q670.88 342.961 669.943 343.617 Q669.03 344.249 668.163 345.561 Q667.296 346.873 666.711 348.676 Q666.594 349.215 666.078 349.215 Q665.516 349.192 665.516 348.723 Q665.516 348.325 665.821 347.505 Q666.149 346.662 666.804 345.608 Q667.484 344.554 668.35 343.617 Q669.24 342.657 670.529 342.001 Q671.84 341.345 673.246 341.345 Q673.878 341.345 674.487 341.486 Q675.119 341.603 675.869 341.954 Q676.642 342.305 677.321 343.078 Q678 343.851 678.422 344.976 Q678.703 344.437 679.078 343.922 Q679.476 343.406 680.085 342.774 Q680.717 342.118 681.584 341.743 Q682.474 341.345 683.458 341.345 Q684.418 341.345 685.355 341.603 Q686.292 341.837 687.088 342.61 Q687.908 343.359 687.908 344.507 Z" fill="#000000" fill-rule="evenodd" fill-opacity="1" /><path clip-path="url(#clip110)" d="M692.797 342.759 L692.797 341.726 L703.11 325.97 Q703.372 325.56 703.782 325.576 Q704.159 325.576 704.241 325.724 Q704.323 325.871 704.323 326.445 L704.323 341.726 L707.684 341.726 L707.684 342.759 L704.323 342.759 L704.323 345.677 Q704.323 346.645 704.717 346.956 Q705.127 347.268 706.865 347.268 L707.57 347.268 L707.57 348.301 Q706.192 348.202 703.012 348.202 Q699.847 348.202 698.47 348.301 L698.47 347.268 L699.175 347.268 Q700.913 347.268 701.323 346.973 Q701.733 346.661 701.733 345.677 L701.733 342.759 L692.797 342.759 M693.748 341.726 L701.93 341.726 L701.93 329.2 L693.748 341.726 Z" fill="#000000" fill-rule="evenodd" fill-opacity="1" /><path clip-path="url(#clip110)" d="M728.959 351.136 Q727.858 351.136 727.858 350.55 Q727.858 349.965 729.006 349.965 Q729.146 349.965 729.38 349.988 Q729.638 350.011 729.685 350.011 L743.2 350.011 L743.2 336.45 Q743.2 336.403 743.176 336.192 Q743.153 335.958 743.153 335.817 Q743.153 334.67 743.715 334.67 Q744.3 334.67 744.3 335.817 L744.3 350.011 L757.839 350.011 Q757.885 350.011 758.12 349.988 Q758.354 349.965 758.494 349.965 Q759.595 349.965 759.595 350.55 Q759.619 351.136 758.448 351.136 Q758.307 351.136 758.096 351.112 Q757.885 351.089 757.839 351.089 L744.3 351.089 L744.3 365.33 Q744.3 366.431 743.715 366.431 Q743.153 366.431 743.153 365.283 Q743.153 365.142 743.176 364.908 Q743.2 364.697 743.2 364.65 L743.2 351.089 L729.685 351.089 Q729.638 351.089 729.357 351.112 Q729.099 351.136 728.959 351.136 Z" fill="#000000" fill-rule="evenodd" fill-opacity="1" /><path clip-path="url(#clip110)" d="M778.126 362.542 Q778.126 361.676 778.196 361.418 Q778.29 361.16 778.665 360.762 L787.87 350.503 Q792.906 344.835 792.906 339.893 Q792.906 336.684 791.219 334.389 Q789.556 332.093 786.488 332.093 Q784.38 332.093 782.6 333.381 Q780.82 334.67 780 336.965 Q780.14 336.918 780.632 336.918 Q781.827 336.918 782.483 337.668 Q783.162 338.417 783.162 339.424 Q783.162 340.713 782.319 341.345 Q781.499 341.954 780.679 341.954 Q780.351 341.954 779.906 341.884 Q779.485 341.814 778.805 341.158 Q778.126 340.478 778.126 339.284 Q778.126 335.934 780.656 333.264 Q783.209 330.594 787.097 330.594 Q791.5 330.594 794.381 333.217 Q797.286 335.817 797.286 339.893 Q797.286 341.322 796.841 342.633 Q796.419 343.922 795.833 344.929 Q795.271 345.936 793.725 347.552 Q792.18 349.168 790.938 350.316 Q789.697 351.464 786.909 353.9 L781.827 358.842 L790.47 358.842 Q794.686 358.842 795.014 358.467 Q795.482 357.788 796.068 354.204 L797.286 354.204 L795.927 362.542 L778.126 362.542 Z" fill="#000000" fill-rule="evenodd" fill-opacity="1" /><path clip-path="url(#clip110)" d="M819.527 348.77 Q820.276 349.52 820.276 350.55 Q820.276 351.581 819.527 352.354 Q818.777 353.103 817.747 353.103 Q816.716 353.103 815.943 352.354 Q815.194 351.581 815.194 350.55 Q815.194 349.52 815.943 348.77 Q816.716 347.997 817.747 347.997 Q818.777 347.997 819.527 348.77 Z" fill="#000000" fill-rule="evenodd" fill-opacity="1" /><path clip-path="url(#clip110)" d="M865.596 344.507 Q865.596 345.819 864.777 346.568 Q863.957 347.294 863.02 347.294 Q862.13 347.294 861.662 346.779 Q861.193 346.264 861.193 345.608 Q861.193 344.718 861.849 343.945 Q862.505 343.172 863.488 343.008 Q862.528 342.399 861.099 342.399 Q860.162 342.399 859.343 342.891 Q858.546 343.383 858.054 344.015 Q857.586 344.648 857.164 345.561 Q856.766 346.451 856.602 346.99 Q856.462 347.505 856.345 348.067 L854.705 354.626 Q853.909 357.741 853.909 358.842 Q853.909 360.2 854.565 361.114 Q855.22 362.004 856.532 362.004 Q857.047 362.004 857.633 361.863 Q858.218 361.699 858.968 361.278 Q859.741 360.833 860.42 360.177 Q861.123 359.497 861.802 358.35 Q862.481 357.202 862.926 355.726 Q863.067 355.211 863.535 355.211 Q864.121 355.211 864.121 355.68 Q864.121 356.078 863.793 356.921 Q863.488 357.741 862.809 358.818 Q862.153 359.872 861.287 360.833 Q860.42 361.769 859.132 362.425 Q857.844 363.081 856.438 363.081 Q854.424 363.081 853.089 362.004 Q851.754 360.926 851.262 359.427 Q851.145 359.638 850.981 359.919 Q850.817 360.2 850.325 360.833 Q849.857 361.442 849.318 361.91 Q848.779 362.355 847.936 362.706 Q847.116 363.081 846.226 363.081 Q845.102 363.081 844.095 362.753 Q843.111 362.425 842.408 361.676 Q841.706 360.926 841.706 359.896 Q841.706 358.748 842.479 357.952 Q843.275 357.132 844.352 357.132 Q845.032 357.132 845.57 357.53 Q846.132 357.928 846.132 358.795 Q846.132 359.755 845.477 360.481 Q844.821 361.207 843.884 361.395 Q844.844 362.004 846.273 362.004 Q847.819 362.004 849.037 360.645 Q850.255 359.287 850.84 357.015 Q852.293 351.557 852.855 349.121 Q853.417 346.662 853.417 345.608 Q853.417 344.624 853.159 343.945 Q852.902 343.266 852.456 342.961 Q852.035 342.633 851.637 342.516 Q851.262 342.399 850.84 342.399 Q850.138 342.399 849.341 342.68 Q848.568 342.961 847.631 343.617 Q846.718 344.249 845.851 345.561 Q844.985 346.873 844.399 348.676 Q844.282 349.215 843.767 349.215 Q843.205 349.192 843.205 348.723 Q843.205 348.325 843.509 347.505 Q843.837 346.662 844.493 345.608 Q845.172 344.554 846.039 343.617 Q846.929 342.657 848.217 342.001 Q849.529 341.345 850.934 341.345 Q851.566 341.345 852.175 341.486 Q852.808 341.603 853.557 341.954 Q854.33 342.305 855.01 343.078 Q855.689 343.851 856.11 344.976 Q856.391 344.437 856.766 343.922 Q857.164 343.406 857.773 342.774 Q858.406 342.118 859.272 341.743 Q860.162 341.345 861.146 341.345 Q862.107 341.345 863.043 341.603 Q863.98 341.837 864.777 342.61 Q865.596 343.359 865.596 344.507 Z" fill="#000000" fill-rule="evenodd" fill-opacity="1" /><path clip-path="url(#clip110)" d="M870.486 348.187 Q870.486 347.58 870.535 347.4 Q870.6 347.219 870.863 346.941 L877.306 339.759 Q880.831 335.792 880.831 332.332 Q880.831 330.086 879.651 328.479 Q878.487 326.872 876.339 326.872 Q874.863 326.872 873.617 327.774 Q872.371 328.676 871.797 330.283 Q871.896 330.25 872.24 330.25 Q873.076 330.25 873.535 330.775 Q874.011 331.299 874.011 332.004 Q874.011 332.906 873.42 333.349 Q872.847 333.775 872.273 333.775 Q872.043 333.775 871.732 333.726 Q871.437 333.677 870.961 333.218 Q870.486 332.742 870.486 331.906 Q870.486 329.561 872.256 327.692 Q874.043 325.823 876.765 325.823 Q879.848 325.823 881.864 327.659 Q883.897 329.479 883.897 332.332 Q883.897 333.332 883.586 334.25 Q883.291 335.152 882.881 335.857 Q882.487 336.562 881.405 337.694 Q880.323 338.825 879.454 339.628 Q878.585 340.432 876.634 342.137 L873.076 345.596 L879.126 345.596 Q882.077 345.596 882.307 345.334 Q882.635 344.858 883.045 342.35 L883.897 342.35 L882.946 348.187 L870.486 348.187 Z" fill="#000000" fill-rule="evenodd" fill-opacity="1" /><path clip-path="url(#clip110)" d="M906.647 351.136 Q905.546 351.136 905.546 350.55 Q905.546 349.965 906.694 349.965 Q906.835 349.965 907.069 349.988 Q907.326 350.011 907.373 350.011 L920.888 350.011 L920.888 336.45 Q920.888 336.403 920.865 336.192 Q920.841 335.958 920.841 335.817 Q920.841 334.67 921.403 334.67 Q921.989 334.67 921.989 335.817 L921.989 350.011 L935.527 350.011 Q935.574 350.011 935.808 349.988 Q936.042 349.965 936.183 349.965 Q937.284 349.965 937.284 350.55 Q937.307 351.136 936.136 351.136 Q935.996 351.136 935.785 351.112 Q935.574 351.089 935.527 351.089 L921.989 351.089 L921.989 365.33 Q921.989 366.431 921.403 366.431 Q920.841 366.431 920.841 365.283 Q920.841 365.142 920.865 364.908 Q920.888 364.697 920.888 364.65 L920.888 351.089 L907.373 351.089 Q907.326 351.089 907.045 351.112 Q906.788 351.136 906.647 351.136 Z" fill="#000000" fill-rule="evenodd" fill-opacity="1" /><path clip-path="url(#clip110)" d="M955.814 335.162 L955.814 333.663 Q961.576 333.663 964.551 330.594 Q965.371 330.594 965.511 330.782 Q965.652 330.969 965.652 331.836 L965.652 358.748 Q965.652 360.177 966.355 360.622 Q967.057 361.067 970.126 361.067 L971.648 361.067 L971.648 362.542 Q969.962 362.402 963.872 362.402 Q957.782 362.402 956.119 362.542 L956.119 361.067 L957.641 361.067 Q960.663 361.067 961.389 360.645 Q962.115 360.2 962.115 358.748 L962.115 333.897 Q959.609 335.162 955.814 335.162 Z" fill="#000000" fill-rule="evenodd" fill-opacity="1" /></svg>
