<?xml version="1.0" encoding="utf-8"?>
<svg xmlns="http://www.w3.org/2000/svg" xmlns:xlink="http://www.w3.org/1999/xlink" width="672" height="480" viewBox="0 0 2688 1920">
<defs>
  <clipPath id="clip430">
    <rect x="0" y="0" width="2688" height="1920"/>
  </clipPath>
</defs>
<path clip-path="url(#clip430)" d="
M0 1920 L2688 1920 L2688 0 L0 0  Z
  " fill="#ffffff" fill-rule="evenodd" fill-opacity="1"/>
<defs>
  <clipPath id="clip431">
    <rect x="537" y="0" width="1883" height="1883"/>
  </clipPath>
</defs>
<defs>
  <clipPath id="clip432">
    <rect x="181" y="47" width="2460" height="1755"/>
  </clipPath>
</defs>
<path clip-path="url(#clip430)" d="
M115.057 1800.78 L2640.76 1800.78 L2640.76 47.2441 L115.057 47.2441  Z
  " fill="#ffffff" fill-rule="evenodd" fill-opacity="1"/>
<defs>
  <clipPath id="clip433">
    <rect x="115" y="47" width="2527" height="1755"/>
  </clipPath>
</defs>
<polyline clip-path="url(#clip433)" style="stroke:#000000; stroke-linecap:round; stroke-linejoin:round; stroke-width:2; stroke-opacity:0.1; fill:none" points="
  424.813,1800.78 424.813,47.2441 
  "/>
<polyline clip-path="url(#clip433)" style="stroke:#000000; stroke-linecap:round; stroke-linejoin:round; stroke-width:2; stroke-opacity:0.1; fill:none" points="
  901.36,1800.78 901.36,47.2441 
  "/>
<polyline clip-path="url(#clip433)" style="stroke:#000000; stroke-linecap:round; stroke-linejoin:round; stroke-width:2; stroke-opacity:0.1; fill:none" points="
  1377.91,1800.78 1377.91,47.2441 
  "/>
<polyline clip-path="url(#clip433)" style="stroke:#000000; stroke-linecap:round; stroke-linejoin:round; stroke-width:2; stroke-opacity:0.1; fill:none" points="
  1854.45,1800.78 1854.45,47.2441 
  "/>
<polyline clip-path="url(#clip433)" style="stroke:#000000; stroke-linecap:round; stroke-linejoin:round; stroke-width:2; stroke-opacity:0.1; fill:none" points="
  2331,1800.78 2331,47.2441 
  "/>
<polyline clip-path="url(#clip430)" style="stroke:#000000; stroke-linecap:round; stroke-linejoin:round; stroke-width:4; stroke-opacity:1; fill:none" points="
  115.057,1800.78 2640.76,1800.78 
  "/>
<polyline clip-path="url(#clip430)" style="stroke:#000000; stroke-linecap:round; stroke-linejoin:round; stroke-width:4; stroke-opacity:1; fill:none" points="
  424.813,1800.78 424.813,1781.88 
  "/>
<polyline clip-path="url(#clip430)" style="stroke:#000000; stroke-linecap:round; stroke-linejoin:round; stroke-width:4; stroke-opacity:1; fill:none" points="
  901.36,1800.78 901.36,1781.88 
  "/>
<polyline clip-path="url(#clip430)" style="stroke:#000000; stroke-linecap:round; stroke-linejoin:round; stroke-width:4; stroke-opacity:1; fill:none" points="
  1377.91,1800.78 1377.91,1781.88 
  "/>
<polyline clip-path="url(#clip430)" style="stroke:#000000; stroke-linecap:round; stroke-linejoin:round; stroke-width:4; stroke-opacity:1; fill:none" points="
  1854.45,1800.78 1854.45,1781.88 
  "/>
<polyline clip-path="url(#clip430)" style="stroke:#000000; stroke-linecap:round; stroke-linejoin:round; stroke-width:4; stroke-opacity:1; fill:none" points="
  2331,1800.78 2331,1781.88 
  "/>
<path clip-path="url(#clip430)" d="M393.713 1848.65 L423.389 1848.65 L423.389 1852.59 L393.713 1852.59 L393.713 1848.65 Z" fill="#000000" fill-rule="evenodd" fill-opacity="1" /><path clip-path="url(#clip430)" d="M446.329 1835 L434.523 1853.45 L446.329 1853.45 L446.329 1835 M445.102 1830.92 L450.982 1830.92 L450.982 1853.45 L455.912 1853.45 L455.912 1857.34 L450.982 1857.34 L450.982 1865.48 L446.329 1865.48 L446.329 1857.34 L430.727 1857.34 L430.727 1852.82 L445.102 1830.92 Z" fill="#000000" fill-rule="evenodd" fill-opacity="1" /><path clip-path="url(#clip430)" d="M871.302 1848.65 L900.978 1848.65 L900.978 1852.59 L871.302 1852.59 L871.302 1848.65 Z" fill="#000000" fill-rule="evenodd" fill-opacity="1" /><path clip-path="url(#clip430)" d="M915.098 1861.55 L931.417 1861.55 L931.417 1865.48 L909.473 1865.48 L909.473 1861.55 Q912.135 1858.79 916.718 1854.16 Q921.325 1849.51 922.505 1848.17 Q924.751 1845.65 925.63 1843.91 Q926.533 1842.15 926.533 1840.46 Q926.533 1837.71 924.589 1835.97 Q922.667 1834.23 919.566 1834.23 Q917.366 1834.23 914.913 1835 Q912.482 1835.76 909.704 1837.31 L909.704 1832.59 Q912.529 1831.46 914.982 1830.88 Q917.436 1830.3 919.473 1830.3 Q924.843 1830.3 928.038 1832.98 Q931.232 1835.67 931.232 1840.16 Q931.232 1842.29 930.422 1844.21 Q929.635 1846.11 927.528 1848.7 Q926.95 1849.37 923.848 1852.59 Q920.746 1855.78 915.098 1861.55 Z" fill="#000000" fill-rule="evenodd" fill-opacity="1" /><path clip-path="url(#clip430)" d="M1377.91 1834 Q1374.3 1834 1372.47 1837.57 Q1370.66 1841.11 1370.66 1848.24 Q1370.66 1855.34 1372.47 1858.91 Q1374.3 1862.45 1377.91 1862.45 Q1381.54 1862.45 1383.35 1858.91 Q1385.18 1855.34 1385.18 1848.24 Q1385.18 1841.11 1383.35 1837.57 Q1381.54 1834 1377.91 1834 M1377.91 1830.3 Q1383.72 1830.3 1386.77 1834.9 Q1389.85 1839.49 1389.85 1848.24 Q1389.85 1856.96 1386.77 1861.57 Q1383.72 1866.15 1377.91 1866.15 Q1372.1 1866.15 1369.02 1861.57 Q1365.96 1856.96 1365.96 1848.24 Q1365.96 1839.49 1369.02 1834.9 Q1372.1 1830.3 1377.91 1830.3 Z" fill="#000000" fill-rule="evenodd" fill-opacity="1" /><path clip-path="url(#clip430)" d="M1849.11 1861.55 L1865.43 1861.55 L1865.43 1865.48 L1843.48 1865.48 L1843.48 1861.55 Q1846.14 1858.79 1850.73 1854.16 Q1855.33 1849.51 1856.51 1848.17 Q1858.76 1845.65 1859.64 1843.91 Q1860.54 1842.15 1860.54 1840.46 Q1860.54 1837.71 1858.6 1835.97 Q1856.68 1834.23 1853.57 1834.23 Q1851.37 1834.23 1848.92 1835 Q1846.49 1835.76 1843.71 1837.31 L1843.71 1832.59 Q1846.54 1831.46 1848.99 1830.88 Q1851.44 1830.3 1853.48 1830.3 Q1858.85 1830.3 1862.05 1832.98 Q1865.24 1835.67 1865.24 1840.16 Q1865.24 1842.29 1864.43 1844.21 Q1863.64 1846.11 1861.54 1848.7 Q1860.96 1849.37 1857.86 1852.59 Q1854.75 1855.78 1849.11 1861.55 Z" fill="#000000" fill-rule="evenodd" fill-opacity="1" /><path clip-path="url(#clip430)" d="M2334.01 1835 L2322.2 1853.45 L2334.01 1853.45 L2334.01 1835 M2332.78 1830.92 L2338.66 1830.92 L2338.66 1853.45 L2343.59 1853.45 L2343.59 1857.34 L2338.66 1857.34 L2338.66 1865.48 L2334.01 1865.48 L2334.01 1857.34 L2318.41 1857.34 L2318.41 1852.82 L2332.78 1830.92 Z" fill="#000000" fill-rule="evenodd" fill-opacity="1" /><polyline clip-path="url(#clip433)" style="stroke:#000000; stroke-linecap:round; stroke-linejoin:round; stroke-width:2; stroke-opacity:0.1; fill:none" points="
  115.057,1751.62 2640.76,1751.62 
  "/>
<polyline clip-path="url(#clip433)" style="stroke:#000000; stroke-linecap:round; stroke-linejoin:round; stroke-width:2; stroke-opacity:0.1; fill:none" points="
  115.057,1475.83 2640.76,1475.83 
  "/>
<polyline clip-path="url(#clip433)" style="stroke:#000000; stroke-linecap:round; stroke-linejoin:round; stroke-width:2; stroke-opacity:0.1; fill:none" points="
  115.057,1200.04 2640.76,1200.04 
  "/>
<polyline clip-path="url(#clip433)" style="stroke:#000000; stroke-linecap:round; stroke-linejoin:round; stroke-width:2; stroke-opacity:0.1; fill:none" points="
  115.057,924.245 2640.76,924.245 
  "/>
<polyline clip-path="url(#clip433)" style="stroke:#000000; stroke-linecap:round; stroke-linejoin:round; stroke-width:2; stroke-opacity:0.1; fill:none" points="
  115.057,648.454 2640.76,648.454 
  "/>
<polyline clip-path="url(#clip433)" style="stroke:#000000; stroke-linecap:round; stroke-linejoin:round; stroke-width:2; stroke-opacity:0.1; fill:none" points="
  115.057,372.663 2640.76,372.663 
  "/>
<polyline clip-path="url(#clip433)" style="stroke:#000000; stroke-linecap:round; stroke-linejoin:round; stroke-width:2; stroke-opacity:0.1; fill:none" points="
  115.057,96.8724 2640.76,96.8724 
  "/>
<polyline clip-path="url(#clip430)" style="stroke:#000000; stroke-linecap:round; stroke-linejoin:round; stroke-width:4; stroke-opacity:1; fill:none" points="
  115.057,1800.78 115.057,47.2441 
  "/>
<polyline clip-path="url(#clip430)" style="stroke:#000000; stroke-linecap:round; stroke-linejoin:round; stroke-width:4; stroke-opacity:1; fill:none" points="
  115.057,1751.62 133.955,1751.62 
  "/>
<polyline clip-path="url(#clip430)" style="stroke:#000000; stroke-linecap:round; stroke-linejoin:round; stroke-width:4; stroke-opacity:1; fill:none" points="
  115.057,1475.83 133.955,1475.83 
  "/>
<polyline clip-path="url(#clip430)" style="stroke:#000000; stroke-linecap:round; stroke-linejoin:round; stroke-width:4; stroke-opacity:1; fill:none" points="
  115.057,1200.04 133.955,1200.04 
  "/>
<polyline clip-path="url(#clip430)" style="stroke:#000000; stroke-linecap:round; stroke-linejoin:round; stroke-width:4; stroke-opacity:1; fill:none" points="
  115.057,924.245 133.955,924.245 
  "/>
<polyline clip-path="url(#clip430)" style="stroke:#000000; stroke-linecap:round; stroke-linejoin:round; stroke-width:4; stroke-opacity:1; fill:none" points="
  115.057,648.454 133.955,648.454 
  "/>
<polyline clip-path="url(#clip430)" style="stroke:#000000; stroke-linecap:round; stroke-linejoin:round; stroke-width:4; stroke-opacity:1; fill:none" points="
  115.057,372.663 133.955,372.663 
  "/>
<polyline clip-path="url(#clip430)" style="stroke:#000000; stroke-linecap:round; stroke-linejoin:round; stroke-width:4; stroke-opacity:1; fill:none" points="
  115.057,96.8724 133.955,96.8724 
  "/>
<path clip-path="url(#clip430)" d="M62.7928 1737.42 Q59.1817 1737.42 57.353 1740.98 Q55.5475 1744.52 55.5475 1751.65 Q55.5475 1758.76 57.353 1762.32 Q59.1817 1765.87 62.7928 1765.87 Q66.427 1765.87 68.2326 1762.32 Q70.0613 1758.76 70.0613 1751.65 Q70.0613 1744.52 68.2326 1740.98 Q66.427 1737.42 62.7928 1737.42 M62.7928 1733.71 Q68.6029 1733.71 71.6585 1738.32 Q74.7372 1742.9 74.7372 1751.65 Q74.7372 1760.38 71.6585 1764.99 Q68.6029 1769.57 62.7928 1769.57 Q56.9826 1769.57 53.904 1764.99 Q50.8484 1760.38 50.8484 1751.65 Q50.8484 1742.9 53.904 1738.32 Q56.9826 1733.71 62.7928 1733.71 Z" fill="#000000" fill-rule="evenodd" fill-opacity="1" /><path clip-path="url(#clip430)" d="M54.8299 1489.17 L62.4687 1489.17 L62.4687 1462.81 L54.1586 1464.47 L54.1586 1460.21 L62.4224 1458.55 L67.0983 1458.55 L67.0983 1489.17 L74.7372 1489.17 L74.7372 1493.11 L54.8299 1493.11 L54.8299 1489.17 Z" fill="#000000" fill-rule="evenodd" fill-opacity="1" /><path clip-path="url(#clip430)" d="M58.4178 1213.38 L74.7372 1213.38 L74.7372 1217.32 L52.7928 1217.32 L52.7928 1213.38 Q55.4549 1210.63 60.0382 1206 Q64.6446 1201.34 65.8252 1200 Q68.0705 1197.48 68.9502 1195.74 Q69.8529 1193.98 69.8529 1192.29 Q69.8529 1189.54 67.9085 1187.8 Q65.9872 1186.07 62.8854 1186.07 Q60.6863 1186.07 58.2326 1186.83 Q55.8021 1187.59 53.0243 1189.15 L53.0243 1184.42 Q55.8484 1183.29 58.3021 1182.71 Q60.7558 1182.13 62.7928 1182.13 Q68.1631 1182.13 71.3576 1184.82 Q74.552 1187.5 74.552 1191.99 Q74.552 1194.12 73.7418 1196.04 Q72.9548 1197.94 70.8483 1200.53 Q70.2696 1201.21 67.1678 1204.42 Q64.0659 1207.62 58.4178 1213.38 Z" fill="#000000" fill-rule="evenodd" fill-opacity="1" /><path clip-path="url(#clip430)" d="M67.6076 922.891 Q70.964 923.609 72.839 925.877 Q74.7372 928.146 74.7372 931.479 Q74.7372 936.595 71.2187 939.396 Q67.7002 942.197 61.2187 942.197 Q59.0428 942.197 56.728 941.757 Q54.4364 941.34 51.9827 940.484 L51.9827 935.97 Q53.9271 937.104 56.2419 937.683 Q58.5567 938.262 61.0798 938.262 Q65.478 938.262 67.7696 936.525 Q70.0844 934.789 70.0844 931.479 Q70.0844 928.424 67.9317 926.711 Q65.802 924.975 61.9826 924.975 L57.9549 924.975 L57.9549 921.132 L62.1678 921.132 Q65.6169 921.132 67.4455 919.766 Q69.2742 918.377 69.2742 915.785 Q69.2742 913.123 67.3761 911.711 Q65.5011 910.276 61.9826 910.276 Q60.0613 910.276 57.8623 910.692 Q55.6632 911.109 53.0243 911.989 L53.0243 907.822 Q55.6864 907.081 58.0012 906.711 Q60.3391 906.34 62.3993 906.34 Q67.7233 906.34 70.8252 908.771 Q73.927 911.178 73.927 915.299 Q73.927 918.169 72.2835 920.16 Q70.64 922.127 67.6076 922.891 Z" fill="#000000" fill-rule="evenodd" fill-opacity="1" /><path clip-path="url(#clip430)" d="M65.1539 635.248 L53.3484 653.697 L65.1539 653.697 L65.1539 635.248 M63.927 631.174 L69.8066 631.174 L69.8066 653.697 L74.7372 653.697 L74.7372 657.586 L69.8066 657.586 L69.8066 665.734 L65.1539 665.734 L65.1539 657.586 L49.5521 657.586 L49.5521 653.072 L63.927 631.174 Z" fill="#000000" fill-rule="evenodd" fill-opacity="1" /><path clip-path="url(#clip430)" d="M53.8345 355.383 L72.1909 355.383 L72.1909 359.319 L58.1169 359.319 L58.1169 367.791 Q59.1354 367.444 60.1539 367.282 Q61.1724 367.096 62.1909 367.096 Q67.978 367.096 71.3576 370.268 Q74.7372 373.439 74.7372 378.856 Q74.7372 384.434 71.265 387.536 Q67.7928 390.615 61.4734 390.615 Q59.2974 390.615 57.0289 390.244 Q54.7836 389.874 52.3762 389.133 L52.3762 384.434 Q54.4595 385.568 56.6817 386.124 Q58.9039 386.68 61.3808 386.68 Q65.3854 386.68 67.7233 384.573 Q70.0613 382.467 70.0613 378.856 Q70.0613 375.244 67.7233 373.138 Q65.3854 371.031 61.3808 371.031 Q59.5058 371.031 57.6308 371.448 Q55.7789 371.865 53.8345 372.744 L53.8345 355.383 Z" fill="#000000" fill-rule="evenodd" fill-opacity="1" /><path clip-path="url(#clip430)" d="M63.2095 95.009 Q60.0613 95.009 58.2095 97.1618 Q56.3808 99.3146 56.3808 103.065 Q56.3808 106.791 58.2095 108.967 Q60.0613 111.12 63.2095 111.12 Q66.3576 111.12 68.1863 108.967 Q70.0381 106.791 70.0381 103.065 Q70.0381 99.3146 68.1863 97.1618 Q66.3576 95.009 63.2095 95.009 M72.4918 80.3563 L72.4918 84.6156 Q70.7326 83.7822 68.927 83.3424 Q67.1446 82.9026 65.3854 82.9026 Q60.7558 82.9026 58.3021 86.0276 Q55.8715 89.1526 55.5243 95.472 Q56.89 93.4581 58.9502 92.3933 Q61.0104 91.3053 63.4872 91.3053 Q68.6955 91.3053 71.7048 94.4766 Q74.7372 97.6248 74.7372 103.065 Q74.7372 108.389 71.589 111.606 Q68.4409 114.824 63.2095 114.824 Q57.2141 114.824 54.0428 110.24 Q50.8716 105.634 50.8716 96.9072 Q50.8716 88.7128 54.7604 83.8517 Q58.6493 78.9675 65.2002 78.9675 Q66.9594 78.9675 68.7418 79.3147 Q70.5474 79.6619 72.4918 80.3563 Z" fill="#000000" fill-rule="evenodd" fill-opacity="1" /><polyline clip-path="url(#clip433)" style="stroke:#009af9; stroke-linecap:round; stroke-linejoin:round; stroke-width:4; stroke-opacity:1; fill:none" points="
  186.539,96.8724 202.052,114.828 345.491,280.852 431.692,380.626 504.574,464.984 583.744,556.62 656.732,641.1 734.983,731.671 825.644,836.608 906.213,929.863 
  976.864,1011.64 1053.89,1100.8 1131.38,1190.48 1217.05,1289.65 1298.57,1384 1383.32,1482.1 1454.67,1564.68 1498.22,1615.09 1541.78,1665.5 1561.72,1688.59 
  1581.67,1711.68 1591.65,1723.22 1601.62,1734.77 1606.61,1740.54 1611.6,1746.31 1614.09,1749.2 1616.58,1751.15 1619.08,1748.26 1621.57,1745.38 1630.78,1734.72 
  1640,1724.05 1649.21,1713.39 1658.42,1702.73 1676.84,1681.4 1695.27,1660.08 1732.59,1616.87 1769.92,1573.67 1853.58,1476.83 1929.4,1389.08 2016.2,1288.61 
  2096.57,1195.59 2175.81,1103.88 2252.74,1014.83 2331.6,923.55 2418.01,823.54 2543.52,678.259 2569.27,648.454 
  "/>
<path clip-path="url(#clip430)" d="
M2003.64 209.375 L2556.57 209.375 L2556.57 105.695 L2003.64 105.695  Z
  " fill="#ffffff" fill-rule="evenodd" fill-opacity="1"/>
<polyline clip-path="url(#clip430)" style="stroke:#000000; stroke-linecap:round; stroke-linejoin:round; stroke-width:4; stroke-opacity:1; fill:none" points="
  2003.64,209.375 2556.57,209.375 2556.57,105.695 2003.64,105.695 2003.64,209.375 
  "/>
<polyline clip-path="url(#clip430)" style="stroke:#009af9; stroke-linecap:round; stroke-linejoin:round; stroke-width:4; stroke-opacity:1; fill:none" points="
  2031.71,157.535 2200.09,157.535 
  "/>
<path clip-path="url(#clip430)" d="M2252.07 138.89 Q2252.07 140.178 2251.25 140.974 Q2250.45 141.771 2249.44 141.771 Q2248.72 141.771 2248.18 141.326 Q2247.66 140.88 2247.66 140.108 Q2247.66 139.311 2248.27 138.468 Q2248.88 137.625 2250.26 137.508 Q2249.35 136.641 2247.9 136.641 Q2247.17 136.641 2246.56 137.109 Q2245.98 137.554 2245.65 138.281 Q2245.3 139.03 2244.5 143.27 Q2244.24 144.651 2244.01 145.987 Q2243.77 147.322 2243.49 148.727 L2247.47 148.727 Q2247.99 148.727 2248.2 148.75 Q2248.41 148.774 2248.58 148.891 Q2248.76 149.008 2248.76 149.266 Q2248.76 149.922 2248.46 150.086 Q2248.18 150.226 2247.33 150.226 L2243.21 150.226 L2240.33 165.427 Q2240.26 165.872 2239.96 167.278 Q2239.67 168.659 2239 170.931 Q2238.32 173.227 2237.64 174.585 Q2237.26 175.358 2236.77 176.084 Q2236.3 176.834 2235.62 177.583 Q2234.94 178.333 2234.05 178.778 Q2233.16 179.246 2232.23 179.246 Q2230.63 179.246 2229.39 178.356 Q2228.15 177.466 2228.15 175.944 Q2228.15 174.656 2228.95 173.859 Q2229.77 173.063 2230.77 173.063 Q2231.5 173.063 2232.02 173.508 Q2232.55 173.953 2232.55 174.726 Q2232.55 175.054 2232.44 175.429 Q2232.32 175.803 2232.06 176.225 Q2231.8 176.67 2231.24 176.974 Q2230.68 177.279 2229.91 177.326 Q2230.82 178.192 2232.23 178.192 Q2232.67 178.192 2233.07 178.005 Q2233.47 177.841 2233.8 177.419 Q2234.15 176.998 2234.4 176.576 Q2234.66 176.178 2234.92 175.405 Q2235.18 174.656 2235.34 174.094 Q2235.51 173.531 2235.72 172.524 Q2235.95 171.517 2236.07 170.908 Q2236.18 170.322 2236.4 169.175 L2239.98 150.226 L2236.82 150.226 Q2236.26 150.226 2236.02 150.203 Q2235.81 150.179 2235.65 150.062 Q2235.48 149.922 2235.48 149.64 Q2235.48 149.195 2235.67 149.008 Q2235.88 148.797 2236.11 148.774 Q2236.35 148.727 2236.91 148.727 L2240.24 148.727 Q2241.36 142.801 2241.81 141.208 Q2242.32 139.522 2243.12 138.351 Q2243.91 137.156 2244.8 136.594 Q2245.69 136.032 2246.42 135.821 Q2247.17 135.587 2247.9 135.587 Q2249.54 135.587 2250.8 136.477 Q2252.07 137.344 2252.07 138.89 Z" fill="#000000" fill-rule="evenodd" fill-opacity="1" /><path clip-path="url(#clip430)" d="M2258.52 157.417 Q2258.52 149.313 2261.55 142.778 Q2262.83 140.037 2264.64 137.742 Q2266.44 135.446 2267.64 134.439 Q2268.83 133.432 2269.16 133.432 Q2269.63 133.432 2269.65 133.901 Q2269.65 134.135 2269.02 134.72 Q2261.29 142.59 2261.31 157.417 Q2261.31 172.29 2268.83 179.855 Q2269.65 180.675 2269.65 180.933 Q2269.65 181.401 2269.16 181.401 Q2268.83 181.401 2267.68 180.441 Q2266.53 179.481 2264.75 177.279 Q2262.97 175.077 2261.69 172.384 Q2258.52 165.849 2258.52 157.417 Z" fill="#000000" fill-rule="evenodd" fill-opacity="1" /><path clip-path="url(#clip430)" d="M2297.19 151.374 Q2297.19 152.685 2296.37 153.435 Q2295.55 154.161 2294.61 154.161 Q2293.72 154.161 2293.25 153.646 Q2292.78 153.13 2292.78 152.475 Q2292.78 151.585 2293.44 150.812 Q2294.1 150.039 2295.08 149.875 Q2294.12 149.266 2292.69 149.266 Q2291.75 149.266 2290.93 149.758 Q2290.14 150.249 2289.65 150.882 Q2289.18 151.514 2288.76 152.428 Q2288.36 153.318 2288.19 153.857 Q2288.05 154.372 2287.94 154.934 L2286.3 161.492 Q2285.5 164.607 2285.5 165.708 Q2285.5 167.067 2286.16 167.98 Q2286.81 168.87 2288.12 168.87 Q2288.64 168.87 2289.22 168.73 Q2289.81 168.566 2290.56 168.144 Q2291.33 167.699 2292.01 167.043 Q2292.71 166.364 2293.39 165.216 Q2294.07 164.069 2294.52 162.593 Q2294.66 162.078 2295.13 162.078 Q2295.71 162.078 2295.71 162.546 Q2295.71 162.944 2295.38 163.788 Q2295.08 164.607 2294.4 165.685 Q2293.74 166.739 2292.88 167.699 Q2292.01 168.636 2290.72 169.292 Q2289.43 169.948 2288.03 169.948 Q2286.01 169.948 2284.68 168.87 Q2283.34 167.793 2282.85 166.294 Q2282.74 166.505 2282.57 166.786 Q2282.41 167.067 2281.92 167.699 Q2281.45 168.308 2280.91 168.777 Q2280.37 169.222 2279.53 169.573 Q2278.71 169.948 2277.82 169.948 Q2276.69 169.948 2275.69 169.62 Q2274.7 169.292 2274 168.542 Q2273.3 167.793 2273.3 166.762 Q2273.3 165.615 2274.07 164.818 Q2274.87 163.998 2275.94 163.998 Q2276.62 163.998 2277.16 164.397 Q2277.72 164.795 2277.72 165.661 Q2277.72 166.622 2277.07 167.348 Q2276.41 168.074 2275.47 168.261 Q2276.43 168.87 2277.86 168.87 Q2279.41 168.87 2280.63 167.512 Q2281.85 166.153 2282.43 163.881 Q2283.88 158.424 2284.45 155.988 Q2285.01 153.529 2285.01 152.475 Q2285.01 151.491 2284.75 150.812 Q2284.49 150.132 2284.05 149.828 Q2283.63 149.5 2283.23 149.383 Q2282.85 149.266 2282.43 149.266 Q2281.73 149.266 2280.93 149.547 Q2280.16 149.828 2279.22 150.484 Q2278.31 151.116 2277.44 152.428 Q2276.58 153.739 2275.99 155.543 Q2275.87 156.082 2275.36 156.082 Q2274.8 156.058 2274.8 155.59 Q2274.8 155.192 2275.1 154.372 Q2275.43 153.529 2276.08 152.475 Q2276.76 151.421 2277.63 150.484 Q2278.52 149.523 2279.81 148.868 Q2281.12 148.212 2282.52 148.212 Q2283.16 148.212 2283.77 148.352 Q2284.4 148.469 2285.15 148.821 Q2285.92 149.172 2286.6 149.945 Q2287.28 150.718 2287.7 151.842 Q2287.98 151.303 2288.36 150.788 Q2288.76 150.273 2289.36 149.64 Q2290 148.985 2290.86 148.61 Q2291.75 148.212 2292.74 148.212 Q2293.7 148.212 2294.63 148.469 Q2295.57 148.704 2296.37 149.477 Q2297.19 150.226 2297.19 151.374 Z" fill="#000000" fill-rule="evenodd" fill-opacity="1" /><path clip-path="url(#clip430)" d="M2301.81 180.933 Q2301.81 180.699 2302.42 180.113 Q2310.15 172.243 2310.15 157.417 Q2310.15 142.543 2302.72 135.025 Q2301.81 134.158 2301.81 133.901 Q2301.81 133.432 2302.28 133.432 Q2302.6 133.432 2303.75 134.392 Q2304.92 135.353 2306.68 137.554 Q2308.46 139.756 2309.77 142.45 Q2312.93 148.985 2312.93 157.417 Q2312.93 165.521 2309.91 172.056 Q2308.62 174.796 2306.82 177.092 Q2305.02 179.387 2303.82 180.394 Q2302.63 181.401 2302.28 181.401 Q2301.81 181.401 2301.81 180.933 Z" fill="#000000" fill-rule="evenodd" fill-opacity="1" /><path clip-path="url(#clip430)" d="M2333.54 162.125 Q2333.59 161.539 2334.5 161.539 L2363.89 161.539 Q2365.28 161.539 2365.3 162.078 Q2365.3 162.663 2363.99 162.64 L2334.83 162.64 Q2333.54 162.663 2333.54 162.125 M2333.54 152.756 Q2333.54 152.17 2334.55 152.194 L2363.85 152.194 Q2365.28 152.194 2365.3 152.756 Q2365.3 153.294 2364.08 153.294 L2334.5 153.294 Q2333.54 153.294 2333.54 152.756 Z" fill="#000000" fill-rule="evenodd" fill-opacity="1" /><path clip-path="url(#clip430)" d="M2383.81 179.926 L2383.81 135.259 Q2383.81 133.479 2384.77 133.479 Q2385.73 133.479 2385.73 134.908 L2385.73 179.574 Q2385.73 181.354 2384.77 181.354 Q2383.81 181.354 2383.81 179.926 Z" fill="#000000" fill-rule="evenodd" fill-opacity="1" /><path clip-path="url(#clip430)" d="M2416.17 151.374 Q2416.17 152.685 2415.35 153.435 Q2414.53 154.161 2413.59 154.161 Q2412.7 154.161 2412.24 153.646 Q2411.77 153.13 2411.77 152.475 Q2411.77 151.585 2412.42 150.812 Q2413.08 150.039 2414.06 149.875 Q2413.1 149.266 2411.67 149.266 Q2410.74 149.266 2409.92 149.758 Q2409.12 150.249 2408.63 150.882 Q2408.16 151.514 2407.74 152.428 Q2407.34 153.318 2407.18 153.857 Q2407.04 154.372 2406.92 154.934 L2405.28 161.492 Q2404.48 164.607 2404.48 165.708 Q2404.48 167.067 2405.14 167.98 Q2405.79 168.87 2407.11 168.87 Q2407.62 168.87 2408.21 168.73 Q2408.79 168.566 2409.54 168.144 Q2410.31 167.699 2410.99 167.043 Q2411.7 166.364 2412.38 165.216 Q2413.06 164.069 2413.5 162.593 Q2413.64 162.078 2414.11 162.078 Q2414.69 162.078 2414.69 162.546 Q2414.69 162.944 2414.37 163.788 Q2414.06 164.607 2413.38 165.685 Q2412.73 166.739 2411.86 167.699 Q2410.99 168.636 2409.71 169.292 Q2408.42 169.948 2407.01 169.948 Q2405 169.948 2403.66 168.87 Q2402.33 167.793 2401.84 166.294 Q2401.72 166.505 2401.55 166.786 Q2401.39 167.067 2400.9 167.699 Q2400.43 168.308 2399.89 168.777 Q2399.35 169.222 2398.51 169.573 Q2397.69 169.948 2396.8 169.948 Q2395.68 169.948 2394.67 169.62 Q2393.68 169.292 2392.98 168.542 Q2392.28 167.793 2392.28 166.762 Q2392.28 165.615 2393.05 164.818 Q2393.85 163.998 2394.93 163.998 Q2395.61 163.998 2396.14 164.397 Q2396.71 164.795 2396.71 165.661 Q2396.71 166.622 2396.05 167.348 Q2395.39 168.074 2394.46 168.261 Q2395.42 168.87 2396.85 168.87 Q2398.39 168.87 2399.61 167.512 Q2400.83 166.153 2401.41 163.881 Q2402.87 158.424 2403.43 155.988 Q2403.99 153.529 2403.99 152.475 Q2403.99 151.491 2403.73 150.812 Q2403.48 150.132 2403.03 149.828 Q2402.61 149.5 2402.21 149.383 Q2401.84 149.266 2401.41 149.266 Q2400.71 149.266 2399.92 149.547 Q2399.14 149.828 2398.21 150.484 Q2397.29 151.116 2396.43 152.428 Q2395.56 153.739 2394.97 155.543 Q2394.86 156.082 2394.34 156.082 Q2393.78 156.058 2393.78 155.59 Q2393.78 155.192 2394.08 154.372 Q2394.41 153.529 2395.07 152.475 Q2395.75 151.421 2396.61 150.484 Q2397.5 149.523 2398.79 148.868 Q2400.1 148.212 2401.51 148.212 Q2402.14 148.212 2402.75 148.352 Q2403.38 148.469 2404.13 148.821 Q2404.9 149.172 2405.58 149.945 Q2406.26 150.718 2406.68 151.842 Q2406.97 151.303 2407.34 150.788 Q2407.74 150.273 2408.35 149.64 Q2408.98 148.985 2409.85 148.61 Q2410.74 148.212 2411.72 148.212 Q2412.68 148.212 2413.62 148.469 Q2414.55 148.704 2415.35 149.477 Q2416.17 150.226 2416.17 151.374 Z" fill="#000000" fill-rule="evenodd" fill-opacity="1" /><path clip-path="url(#clip430)" d="M2464.42 156.737 Q2464.71 157.019 2464.71 157.417 Q2464.71 157.815 2464.42 158.096 Q2464.14 158.377 2463.75 158.377 L2433.72 158.377 Q2433.32 158.377 2433.04 158.096 Q2432.76 157.815 2432.76 157.417 Q2432.76 157.019 2433.04 156.737 Q2433.32 156.456 2433.72 156.456 L2463.75 156.456 Q2464.14 156.456 2464.42 156.737 Z" fill="#000000" fill-rule="evenodd" fill-opacity="1" /><path clip-path="url(#clip430)" d="M2483.03 142.028 L2483.03 140.529 Q2488.79 140.529 2491.76 137.461 Q2492.58 137.461 2492.72 137.648 Q2492.86 137.836 2492.86 138.702 L2492.86 165.615 Q2492.86 167.043 2493.57 167.488 Q2494.27 167.933 2497.34 167.933 L2498.86 167.933 L2498.86 169.409 Q2497.17 169.268 2491.08 169.268 Q2484.99 169.268 2483.33 169.409 L2483.33 167.933 L2484.85 167.933 Q2487.87 167.933 2488.6 167.512 Q2489.33 167.067 2489.33 165.615 L2489.33 140.763 Q2486.82 142.028 2483.03 142.028 Z" fill="#000000" fill-rule="evenodd" fill-opacity="1" /><path clip-path="url(#clip430)" d="M2508.7 179.926 L2508.7 135.259 Q2508.7 133.479 2509.66 133.479 Q2510.62 133.479 2510.62 134.908 L2510.62 179.574 Q2510.62 181.354 2509.66 181.354 Q2508.7 181.354 2508.7 179.926 Z" fill="#000000" fill-rule="evenodd" fill-opacity="1" /></svg>
