<?xml version="1.0" encoding="utf-8"?>
<svg xmlns="http://www.w3.org/2000/svg" xmlns:xlink="http://www.w3.org/1999/xlink" width="672" height="480" viewBox="0 0 2688 1920">
<defs>
  <clipPath id="clip300">
    <rect x="0" y="0" width="2688" height="1920"/>
  </clipPath>
</defs>
<path clip-path="url(#clip300)" d="
M0 1920 L2688 1920 L2688 0 L0 0  Z
  " fill="#ffffff" fill-rule="evenodd" fill-opacity="1"/>
<defs>
  <clipPath id="clip301">
    <rect x="537" y="0" width="1883" height="1883"/>
  </clipPath>
</defs>
<defs>
  <clipPath id="clip302">
    <rect x="158" y="47" width="2483" height="1755"/>
  </clipPath>
</defs>
<path clip-path="url(#clip300)" d="
M226.533 1800.78 L2564.58 1800.78 L2564.58 47.2441 L226.533 47.2441  Z
  " fill="#ffffff" fill-rule="evenodd" fill-opacity="1"/>
<defs>
  <clipPath id="clip303">
    <rect x="226" y="47" width="2339" height="1755"/>
  </clipPath>
</defs>
<polyline clip-path="url(#clip303)" style="stroke:#000000; stroke-linecap:round; stroke-linejoin:round; stroke-width:2; stroke-opacity:0.1; fill:none" points="
  226.533,1800.78 226.533,47.2441 
  "/>
<polyline clip-path="url(#clip303)" style="stroke:#000000; stroke-linecap:round; stroke-linejoin:round; stroke-width:2; stroke-opacity:0.1; fill:none" points="
  811.045,1800.78 811.045,47.2441 
  "/>
<polyline clip-path="url(#clip303)" style="stroke:#000000; stroke-linecap:round; stroke-linejoin:round; stroke-width:2; stroke-opacity:0.1; fill:none" points="
  1395.56,1800.78 1395.56,47.2441 
  "/>
<polyline clip-path="url(#clip303)" style="stroke:#000000; stroke-linecap:round; stroke-linejoin:round; stroke-width:2; stroke-opacity:0.1; fill:none" points="
  1980.07,1800.78 1980.07,47.2441 
  "/>
<polyline clip-path="url(#clip303)" style="stroke:#000000; stroke-linecap:round; stroke-linejoin:round; stroke-width:2; stroke-opacity:0.1; fill:none" points="
  2564.58,1800.78 2564.58,47.2441 
  "/>
<polyline clip-path="url(#clip300)" style="stroke:#000000; stroke-linecap:round; stroke-linejoin:round; stroke-width:4; stroke-opacity:1; fill:none" points="
  226.533,1800.78 2564.58,1800.78 
  "/>
<polyline clip-path="url(#clip300)" style="stroke:#000000; stroke-linecap:round; stroke-linejoin:round; stroke-width:4; stroke-opacity:1; fill:none" points="
  226.533,1800.78 226.533,1781.88 
  "/>
<polyline clip-path="url(#clip300)" style="stroke:#000000; stroke-linecap:round; stroke-linejoin:round; stroke-width:4; stroke-opacity:1; fill:none" points="
  811.045,1800.78 811.045,1781.88 
  "/>
<polyline clip-path="url(#clip300)" style="stroke:#000000; stroke-linecap:round; stroke-linejoin:round; stroke-width:4; stroke-opacity:1; fill:none" points="
  1395.56,1800.78 1395.56,1781.88 
  "/>
<polyline clip-path="url(#clip300)" style="stroke:#000000; stroke-linecap:round; stroke-linejoin:round; stroke-width:4; stroke-opacity:1; fill:none" points="
  1980.07,1800.78 1980.07,1781.88 
  "/>
<polyline clip-path="url(#clip300)" style="stroke:#000000; stroke-linecap:round; stroke-linejoin:round; stroke-width:4; stroke-opacity:1; fill:none" points="
  2564.58,1800.78 2564.58,1781.88 
  "/>
<path clip-path="url(#clip300)" d="M196.291 1848.65 L225.966 1848.65 L225.966 1852.59 L196.291 1852.59 L196.291 1848.65 Z" fill="#000000" fill-rule="evenodd" fill-opacity="1" /><path clip-path="url(#clip300)" d="M236.869 1861.55 L244.508 1861.55 L244.508 1835.18 L236.198 1836.85 L236.198 1832.59 L244.462 1830.92 L249.137 1830.92 L249.137 1861.55 L256.776 1861.55 L256.776 1865.48 L236.869 1865.48 L236.869 1861.55 Z" fill="#000000" fill-rule="evenodd" fill-opacity="1" /><path clip-path="url(#clip300)" d="M811.045 1834 Q807.434 1834 805.605 1837.57 Q803.8 1841.11 803.8 1848.24 Q803.8 1855.34 805.605 1858.91 Q807.434 1862.45 811.045 1862.45 Q814.679 1862.45 816.485 1858.91 Q818.314 1855.34 818.314 1848.24 Q818.314 1841.11 816.485 1837.57 Q814.679 1834 811.045 1834 M811.045 1830.3 Q816.855 1830.3 819.911 1834.9 Q822.99 1839.49 822.99 1848.24 Q822.99 1856.96 819.911 1861.57 Q816.855 1866.15 811.045 1866.15 Q805.235 1866.15 802.156 1861.57 Q799.101 1856.96 799.101 1848.24 Q799.101 1839.49 802.156 1834.9 Q805.235 1830.3 811.045 1830.3 Z" fill="#000000" fill-rule="evenodd" fill-opacity="1" /><path clip-path="url(#clip300)" d="M1385.94 1861.55 L1393.58 1861.55 L1393.58 1835.18 L1385.27 1836.85 L1385.27 1832.59 L1393.53 1830.92 L1398.21 1830.92 L1398.21 1861.55 L1405.85 1861.55 L1405.85 1865.48 L1385.94 1865.48 L1385.94 1861.55 Z" fill="#000000" fill-rule="evenodd" fill-opacity="1" /><path clip-path="url(#clip300)" d="M1974.72 1861.55 L1991.04 1861.55 L1991.04 1865.48 L1969.1 1865.48 L1969.1 1861.55 Q1971.76 1858.79 1976.34 1854.16 Q1980.95 1849.51 1982.13 1848.17 Q1984.37 1845.65 1985.25 1843.91 Q1986.16 1842.15 1986.16 1840.46 Q1986.16 1837.71 1984.21 1835.97 Q1982.29 1834.23 1979.19 1834.23 Q1976.99 1834.23 1974.54 1835 Q1972.11 1835.76 1969.33 1837.31 L1969.33 1832.59 Q1972.15 1831.46 1974.61 1830.88 Q1977.06 1830.3 1979.1 1830.3 Q1984.47 1830.3 1987.66 1832.98 Q1990.86 1835.67 1990.86 1840.16 Q1990.86 1842.29 1990.05 1844.21 Q1989.26 1846.11 1987.15 1848.7 Q1986.57 1849.37 1983.47 1852.59 Q1980.37 1855.78 1974.72 1861.55 Z" fill="#000000" fill-rule="evenodd" fill-opacity="1" /><path clip-path="url(#clip300)" d="M2568.83 1846.85 Q2572.18 1847.57 2574.06 1849.84 Q2575.96 1852.1 2575.96 1855.44 Q2575.96 1860.55 2572.44 1863.35 Q2568.92 1866.15 2562.44 1866.15 Q2560.26 1866.15 2557.95 1865.71 Q2555.66 1865.3 2553.2 1864.44 L2553.2 1859.93 Q2555.15 1861.06 2557.46 1861.64 Q2559.78 1862.22 2562.3 1862.22 Q2566.7 1862.22 2568.99 1860.48 Q2571.3 1858.75 2571.3 1855.44 Q2571.3 1852.38 2569.15 1850.67 Q2567.02 1848.93 2563.2 1848.93 L2559.18 1848.93 L2559.18 1845.09 L2563.39 1845.09 Q2566.84 1845.09 2568.67 1843.72 Q2570.49 1842.34 2570.49 1839.74 Q2570.49 1837.08 2568.6 1835.67 Q2566.72 1834.23 2563.2 1834.23 Q2561.28 1834.23 2559.08 1834.65 Q2556.88 1835.07 2554.24 1835.95 L2554.24 1831.78 Q2556.91 1831.04 2559.22 1830.67 Q2561.56 1830.3 2563.62 1830.3 Q2568.94 1830.3 2572.05 1832.73 Q2575.15 1835.14 2575.15 1839.26 Q2575.15 1842.13 2573.5 1844.12 Q2571.86 1846.09 2568.83 1846.85 Z" fill="#000000" fill-rule="evenodd" fill-opacity="1" /><polyline clip-path="url(#clip303)" style="stroke:#000000; stroke-linecap:round; stroke-linejoin:round; stroke-width:2; stroke-opacity:0.1; fill:none" points="
  226.533,1800.78 2564.58,1800.78 
  "/>
<polyline clip-path="url(#clip303)" style="stroke:#000000; stroke-linecap:round; stroke-linejoin:round; stroke-width:2; stroke-opacity:0.1; fill:none" points="
  226.533,1216.27 2564.58,1216.27 
  "/>
<polyline clip-path="url(#clip303)" style="stroke:#000000; stroke-linecap:round; stroke-linejoin:round; stroke-width:2; stroke-opacity:0.1; fill:none" points="
  226.533,631.756 2564.58,631.756 
  "/>
<polyline clip-path="url(#clip303)" style="stroke:#000000; stroke-linecap:round; stroke-linejoin:round; stroke-width:2; stroke-opacity:0.1; fill:none" points="
  226.533,47.2441 2564.58,47.2441 
  "/>
<polyline clip-path="url(#clip300)" style="stroke:#000000; stroke-linecap:round; stroke-linejoin:round; stroke-width:4; stroke-opacity:1; fill:none" points="
  226.533,1800.78 226.533,47.2441 
  "/>
<polyline clip-path="url(#clip300)" style="stroke:#000000; stroke-linecap:round; stroke-linejoin:round; stroke-width:4; stroke-opacity:1; fill:none" points="
  226.533,1800.78 244.275,1800.78 
  "/>
<polyline clip-path="url(#clip300)" style="stroke:#000000; stroke-linecap:round; stroke-linejoin:round; stroke-width:4; stroke-opacity:1; fill:none" points="
  226.533,1216.27 244.275,1216.27 
  "/>
<polyline clip-path="url(#clip300)" style="stroke:#000000; stroke-linecap:round; stroke-linejoin:round; stroke-width:4; stroke-opacity:1; fill:none" points="
  226.533,631.756 244.275,631.756 
  "/>
<polyline clip-path="url(#clip300)" style="stroke:#000000; stroke-linecap:round; stroke-linejoin:round; stroke-width:4; stroke-opacity:1; fill:none" points="
  226.533,47.2441 244.275,47.2441 
  "/>
<path clip-path="url(#clip300)" d="M125.728 1801.23 L155.403 1801.23 L155.403 1805.17 L125.728 1805.17 L125.728 1801.23 Z" fill="#000000" fill-rule="evenodd" fill-opacity="1" /><path clip-path="url(#clip300)" d="M166.306 1814.12 L173.945 1814.12 L173.945 1787.76 L165.635 1789.43 L165.635 1785.17 L173.899 1783.5 L178.575 1783.5 L178.575 1814.12 L186.213 1814.12 L186.213 1818.06 L166.306 1818.06 L166.306 1814.12 Z" fill="#000000" fill-rule="evenodd" fill-opacity="1" /><path clip-path="url(#clip300)" d="M174.269 1202.07 Q170.658 1202.07 168.829 1205.63 Q167.024 1209.17 167.024 1216.3 Q167.024 1223.41 168.829 1226.97 Q170.658 1230.52 174.269 1230.52 Q177.903 1230.52 179.709 1226.97 Q181.538 1223.41 181.538 1216.3 Q181.538 1209.17 179.709 1205.63 Q177.903 1202.07 174.269 1202.07 M174.269 1198.36 Q180.079 1198.36 183.135 1202.97 Q186.213 1207.55 186.213 1216.3 Q186.213 1225.03 183.135 1229.64 Q180.079 1234.22 174.269 1234.22 Q168.459 1234.22 165.38 1229.64 Q162.325 1225.03 162.325 1216.3 Q162.325 1207.55 165.38 1202.97 Q168.459 1198.36 174.269 1198.36 Z" fill="#000000" fill-rule="evenodd" fill-opacity="1" /><path clip-path="url(#clip300)" d="M166.306 645.101 L173.945 645.101 L173.945 618.735 L165.635 620.402 L165.635 616.142 L173.899 614.476 L178.575 614.476 L178.575 645.101 L186.213 645.101 L186.213 649.036 L166.306 649.036 L166.306 645.101 Z" fill="#000000" fill-rule="evenodd" fill-opacity="1" /><path clip-path="url(#clip300)" d="M169.894 60.5889 L186.213 60.5889 L186.213 64.5241 L164.269 64.5241 L164.269 60.5889 Q166.931 57.8343 171.514 53.2047 Q176.121 48.552 177.301 47.2094 Q179.547 44.6862 180.426 42.9501 Q181.329 41.1909 181.329 39.5011 Q181.329 36.7465 179.385 35.0104 Q177.463 33.2743 174.362 33.2743 Q172.163 33.2743 169.709 34.0381 Q167.278 34.802 164.501 36.3529 L164.501 31.6308 Q167.325 30.4965 169.778 29.9178 Q172.232 29.3391 174.269 29.3391 Q179.639 29.3391 182.834 32.0243 Q186.028 34.7094 186.028 39.2002 Q186.028 41.3298 185.218 43.2511 Q184.431 45.1492 182.325 47.7418 Q181.746 48.4131 178.644 51.6306 Q175.542 54.8251 169.894 60.5889 Z" fill="#000000" fill-rule="evenodd" fill-opacity="1" /><polyline clip-path="url(#clip303)" style="stroke:#009af9; stroke-linecap:round; stroke-linejoin:round; stroke-width:4; stroke-opacity:1; fill:none" points="
  226.652,3700.46 226.771,3497.89 226.89,3379.39 227.009,3295.31 227.128,3230.09 227.247,3176.81 227.366,3131.76 227.485,3092.73 227.604,3058.31 227.723,3027.52 
  227.842,2999.66 227.96,2974.23 228.198,2929.18 228.436,2890.16 228.674,2855.73 228.912,2824.94 229.15,2797.09 229.388,2771.66 229.625,2748.26 229.863,2726.61 
  230.101,2706.44 230.339,2687.58 230.815,2653.16 231.29,2622.37 231.766,2594.51 232.242,2569.08 232.717,2545.69 233.193,2524.03 233.669,2503.87 234.144,2485 
  235.096,2450.58 236.047,2419.79 236.999,2391.93 237.95,2366.5 238.901,2343.11 239.853,2321.45 240.328,2311.2 240.804,2301.29 241.28,2291.71 241.755,2282.43 
  243.955,2242.99 246.154,2208.24 248.353,2177.2 250.552,2149.13 252.751,2123.53 254.951,2099.99 257.15,2078.2 259.349,2057.93 263.747,2021.17 268.146,1988.52 
  272.544,1959.15 276.943,1932.47 281.341,1908.02 285.739,1885.46 290.138,1864.52 294.536,1844.98 303.333,1809.42 312.13,1777.73 320.927,1749.14 329.724,1723.1 
  338.52,1699.19 347.317,1677.09 364.911,1637.35 382.504,1602.37 393.077,1583.2 403.65,1565.21 414.224,1548.27 424.797,1532.25 445.943,1502.63 467.089,1475.74 
  484.967,1454.79 502.846,1435.24 520.725,1416.91 538.604,1399.67 577.446,1365.39 616.289,1334.71 652.098,1309.02 687.908,1285.41 726.299,1262.05 764.691,1240.42 
  809.171,1217.21 853.652,1195.7 932.71,1161.01 1002.04,1133.64 1077.62,1106.46 1153.65,1081.45 1237.72,1056.08 1317.71,1033.83 1400.87,1012.37 1470.88,995.442 
  1556.35,976.027 1634.65,959.307 1706.97,944.67 1780.22,930.556 1862.31,915.508 1936.71,902.51 2021.88,888.305 2100.74,875.741 2178.49,863.862 2253.98,852.773 
  2331.37,841.825 2416.15,830.284 2539.31,814.291 2564.58,811.115 
  "/>
<polyline clip-path="url(#clip303)" style="stroke:#e26f46; stroke-linecap:round; stroke-linejoin:round; stroke-width:4; stroke-opacity:1; fill:none" points="
  226.533,1305.95 241.755,1302.14 382.504,1266.95 467.089,1245.81 538.604,1227.93 616.289,1208.51 687.908,1190.6 764.691,1171.41 853.652,1149.17 932.71,1129.4 
  1002.04,1112.07 1077.62,1093.18 1153.65,1074.17 1237.72,1053.15 1317.71,1033.15 1400.87,1012.36 1470.88,994.86 1556.35,973.492 1634.65,953.918 1706.97,935.839 
  1780.22,917.526 1862.31,897.002 1936.71,878.404 2021.88,857.111 2100.74,837.395 2178.49,817.958 2253.98,799.086 2331.37,779.739 2416.15,758.543 2539.31,727.752 
  2564.58,721.435 
  "/>
<polyline clip-path="url(#clip303)" style="stroke:#3da44d; stroke-linecap:round; stroke-linejoin:round; stroke-width:4; stroke-opacity:1; fill:none" points="
  226.533,-3662.4 241.755,-3601.51 382.504,-3038.52 467.089,-2700.18 538.604,-2414.12 616.289,-2103.38 687.908,-1816.9 764.691,-1509.77 853.652,-1153.93 932.71,-837.698 
  1002.04,-560.392 1077.62,-258.054 1153.65,46.0813 1237.72,382.342 1317.71,702.285 1400.87,1034.95 1470.88,1314.99 1556.35,1656.88 1634.65,1970.07 1706.97,2259.33 
  1780.22,2552.34 1862.31,2880.72 1936.71,3178.29 2021.88,3518.98 2100.74,3834.43 2178.49,4145.43 2253.98,4447.38 2331.37,4756.92 2416.15,5096.06 2539.31,5588.72 
  2564.58,5689.79 
  "/>
<path clip-path="url(#clip300)" d="
M1401.81 412.685 L2481.57 412.685 L2481.57 105.695 L1401.81 105.695  Z
  " fill="#ffffff" fill-rule="evenodd" fill-opacity="1"/>
<polyline clip-path="url(#clip300)" style="stroke:#000000; stroke-linecap:round; stroke-linejoin:round; stroke-width:4; stroke-opacity:1; fill:none" points="
  1401.81,412.685 2481.57,412.685 2481.57,105.695 1401.81,105.695 1401.81,412.685 
  "/>
<polyline clip-path="url(#clip300)" style="stroke:#009af9; stroke-linecap:round; stroke-linejoin:round; stroke-width:4; stroke-opacity:1; fill:none" points="
  1429.48,182.443 1595.5,182.443 
  "/>
<path clip-path="url(#clip300)" d="M1647.09 168.444 Q1647.09 169.732 1646.27 170.528 Q1645.47 171.324 1644.47 171.324 Q1643.74 171.324 1643.2 170.879 Q1642.69 170.434 1642.69 169.661 Q1642.69 168.865 1643.3 168.022 Q1643.9 167.179 1645.29 167.062 Q1644.37 166.195 1642.92 166.195 Q1642.19 166.195 1641.59 166.663 Q1641 167.108 1640.67 167.835 Q1640.32 168.584 1639.52 172.824 Q1639.27 174.205 1639.03 175.541 Q1638.8 176.876 1638.52 178.281 L1642.5 178.281 Q1643.01 178.281 1643.23 178.304 Q1643.44 178.328 1643.6 178.445 Q1643.79 178.562 1643.79 178.82 Q1643.79 179.475 1643.48 179.639 Q1643.2 179.78 1642.36 179.78 L1638.24 179.78 L1635.36 194.981 Q1635.28 195.426 1634.98 196.832 Q1634.7 198.213 1634.02 200.485 Q1633.34 202.781 1632.66 204.139 Q1632.29 204.912 1631.8 205.638 Q1631.33 206.388 1630.65 207.137 Q1629.97 207.887 1629.08 208.332 Q1628.19 208.8 1627.25 208.8 Q1625.66 208.8 1624.42 207.91 Q1623.18 207.02 1623.18 205.498 Q1623.18 204.21 1623.97 203.413 Q1624.79 202.617 1625.8 202.617 Q1626.52 202.617 1627.04 203.062 Q1627.58 203.507 1627.58 204.28 Q1627.58 204.608 1627.46 204.983 Q1627.34 205.357 1627.09 205.779 Q1626.83 206.224 1626.27 206.528 Q1625.71 206.833 1624.93 206.88 Q1625.85 207.746 1627.25 207.746 Q1627.7 207.746 1628.09 207.559 Q1628.49 207.395 1628.82 206.973 Q1629.17 206.552 1629.43 206.13 Q1629.69 205.732 1629.94 204.959 Q1630.2 204.21 1630.37 203.647 Q1630.53 203.085 1630.74 202.078 Q1630.98 201.071 1631.09 200.462 Q1631.21 199.876 1631.42 198.729 L1635 179.78 L1631.84 179.78 Q1631.28 179.78 1631.05 179.757 Q1630.83 179.733 1630.67 179.616 Q1630.51 179.475 1630.51 179.194 Q1630.51 178.749 1630.69 178.562 Q1630.9 178.351 1631.14 178.328 Q1631.37 178.281 1631.94 178.281 L1635.26 178.281 Q1636.39 172.355 1636.83 170.762 Q1637.35 169.076 1638.14 167.905 Q1638.94 166.71 1639.83 166.148 Q1640.72 165.586 1641.45 165.375 Q1642.19 165.141 1642.92 165.141 Q1644.56 165.141 1645.83 166.031 Q1647.09 166.898 1647.09 168.444 Z" fill="#000000" fill-rule="evenodd" fill-opacity="1" /><path clip-path="url(#clip300)" d="M1653.55 186.971 Q1653.55 178.867 1656.57 172.332 Q1657.86 169.591 1659.66 167.296 Q1661.47 165 1662.66 163.993 Q1663.85 162.986 1664.18 162.986 Q1664.65 162.986 1664.67 163.455 Q1664.67 163.689 1664.04 164.274 Q1656.31 172.144 1656.34 186.971 Q1656.34 201.844 1663.85 209.409 Q1664.67 210.229 1664.67 210.487 Q1664.67 210.955 1664.18 210.955 Q1663.85 210.955 1662.71 209.995 Q1661.56 209.035 1659.78 206.833 Q1658 204.631 1656.71 201.938 Q1653.55 195.403 1653.55 186.971 Z" fill="#000000" fill-rule="evenodd" fill-opacity="1" /><path clip-path="url(#clip300)" d="M1692.21 180.928 Q1692.21 182.239 1691.39 182.989 Q1690.57 183.715 1689.64 183.715 Q1688.75 183.715 1688.28 183.2 Q1687.81 182.684 1687.81 182.029 Q1687.81 181.138 1688.46 180.366 Q1689.12 179.593 1690.1 179.429 Q1689.14 178.82 1687.71 178.82 Q1686.78 178.82 1685.96 179.312 Q1685.16 179.803 1684.67 180.436 Q1684.2 181.068 1683.78 181.982 Q1683.38 182.872 1683.22 183.41 Q1683.08 183.926 1682.96 184.488 L1681.32 191.046 Q1680.52 194.161 1680.52 195.262 Q1680.52 196.621 1681.18 197.534 Q1681.84 198.424 1683.15 198.424 Q1683.66 198.424 1684.25 198.284 Q1684.83 198.12 1685.58 197.698 Q1686.36 197.253 1687.04 196.597 Q1687.74 195.918 1688.42 194.77 Q1689.1 193.623 1689.54 192.147 Q1689.68 191.632 1690.15 191.632 Q1690.74 191.632 1690.74 192.1 Q1690.74 192.498 1690.41 193.342 Q1690.1 194.161 1689.42 195.239 Q1688.77 196.293 1687.9 197.253 Q1687.04 198.19 1685.75 198.846 Q1684.46 199.502 1683.05 199.502 Q1681.04 199.502 1679.7 198.424 Q1678.37 197.347 1677.88 195.848 Q1677.76 196.059 1677.6 196.34 Q1677.43 196.621 1676.94 197.253 Q1676.47 197.862 1675.93 198.331 Q1675.39 198.776 1674.55 199.127 Q1673.73 199.502 1672.84 199.502 Q1671.72 199.502 1670.71 199.174 Q1669.73 198.846 1669.02 198.096 Q1668.32 197.347 1668.32 196.316 Q1668.32 195.169 1669.09 194.372 Q1669.89 193.552 1670.97 193.552 Q1671.65 193.552 1672.19 193.951 Q1672.75 194.349 1672.75 195.215 Q1672.75 196.176 1672.09 196.902 Q1671.44 197.628 1670.5 197.815 Q1671.46 198.424 1672.89 198.424 Q1674.43 198.424 1675.65 197.066 Q1676.87 195.707 1677.46 193.435 Q1678.91 187.978 1679.47 185.542 Q1680.03 183.083 1680.03 182.029 Q1680.03 181.045 1679.77 180.366 Q1679.52 179.686 1679.07 179.382 Q1678.65 179.054 1678.25 178.937 Q1677.88 178.82 1677.46 178.82 Q1676.75 178.82 1675.96 179.101 Q1675.18 179.382 1674.25 180.038 Q1673.33 180.67 1672.47 181.982 Q1671.6 183.293 1671.01 185.097 Q1670.9 185.636 1670.38 185.636 Q1669.82 185.612 1669.82 185.144 Q1669.82 184.746 1670.12 183.926 Q1670.45 183.083 1671.11 182.029 Q1671.79 180.975 1672.65 180.038 Q1673.54 179.077 1674.83 178.421 Q1676.14 177.766 1677.55 177.766 Q1678.18 177.766 1678.79 177.906 Q1679.42 178.023 1680.17 178.375 Q1680.95 178.726 1681.62 179.499 Q1682.3 180.272 1682.73 181.396 Q1683.01 180.857 1683.38 180.342 Q1683.78 179.827 1684.39 179.194 Q1685.02 178.539 1685.89 178.164 Q1686.78 177.766 1687.76 177.766 Q1688.72 177.766 1689.66 178.023 Q1690.6 178.258 1691.39 179.03 Q1692.21 179.78 1692.21 180.928 Z" fill="#000000" fill-rule="evenodd" fill-opacity="1" /><path clip-path="url(#clip300)" d="M1696.83 210.487 Q1696.83 210.253 1697.44 209.667 Q1705.17 201.797 1705.17 186.971 Q1705.17 172.097 1697.75 164.579 Q1696.83 163.712 1696.83 163.455 Q1696.83 162.986 1697.3 162.986 Q1697.63 162.986 1698.78 163.946 Q1699.95 164.907 1701.7 167.108 Q1703.48 169.31 1704.8 172.004 Q1707.96 178.539 1707.96 186.971 Q1707.96 195.075 1704.94 201.61 Q1703.65 204.35 1701.84 206.646 Q1700.04 208.941 1698.85 209.948 Q1697.65 210.955 1697.3 210.955 Q1696.83 210.955 1696.83 210.487 Z" fill="#000000" fill-rule="evenodd" fill-opacity="1" /><path clip-path="url(#clip300)" d="M1728.56 191.679 Q1728.61 191.093 1729.52 191.093 L1758.92 191.093 Q1760.3 191.093 1760.32 191.632 Q1760.32 192.217 1759.01 192.194 L1729.85 192.194 Q1728.56 192.217 1728.56 191.679 M1728.56 182.31 Q1728.56 181.724 1729.57 181.747 L1758.87 181.747 Q1760.3 181.747 1760.32 182.31 Q1760.32 182.848 1759.11 182.848 L1729.52 182.848 Q1728.56 182.848 1728.56 182.31 Z" fill="#000000" fill-rule="evenodd" fill-opacity="1" /><path clip-path="url(#clip300)" d="M1778.83 198.963 L1778.83 197.487 Q1781.38 197.487 1781.97 197.183 Q1782.56 196.855 1782.56 195.309 L1782.56 170.364 Q1782.56 168.584 1781.92 168.139 Q1781.31 167.694 1778.83 167.694 L1778.83 166.195 L1785.72 165.68 L1785.72 195.309 Q1785.72 196.855 1786.33 197.183 Q1786.94 197.487 1789.47 197.487 L1789.47 198.963 Q1788.88 198.963 1787.66 198.916 Q1786.44 198.869 1785.55 198.846 Q1784.66 198.822 1784.15 198.822 Q1783.59 198.822 1778.83 198.963 Z" fill="#000000" fill-rule="evenodd" fill-opacity="1" /><path clip-path="url(#clip300)" d="M1792.37 198.963 L1792.37 197.487 Q1794.92 197.487 1795.51 197.183 Q1796.09 196.855 1796.09 195.309 L1796.09 182.45 Q1796.09 180.67 1795.46 180.225 Q1794.85 179.78 1792.37 179.78 L1792.37 178.281 L1799.12 177.766 L1799.12 182.801 Q1801.36 177.766 1806.21 177.766 Q1809.82 177.766 1811.25 179.546 Q1812.3 180.74 1812.51 182.075 Q1812.75 183.41 1812.75 186.877 L1812.75 196.035 Q1812.79 197.042 1813.57 197.277 Q1814.34 197.487 1816.49 197.487 L1816.49 198.963 Q1811.6 198.822 1811.11 198.822 Q1810.73 198.822 1805.7 198.963 L1805.7 197.487 Q1808.25 197.487 1808.84 197.183 Q1809.44 196.855 1809.44 195.309 L1809.44 184.137 Q1809.44 181.701 1808.69 180.272 Q1807.95 178.82 1805.88 178.82 Q1803.4 178.82 1801.41 180.904 Q1799.42 182.989 1799.42 186.502 L1799.42 195.309 Q1799.42 196.855 1800.01 197.183 Q1800.61 197.487 1803.14 197.487 L1803.14 198.963 Q1798.25 198.822 1797.78 198.822 Q1797.41 198.822 1792.37 198.963 Z" fill="#000000" fill-rule="evenodd" fill-opacity="1" /><path clip-path="url(#clip300)" d="M1818.72 186.971 Q1818.72 178.867 1821.75 172.332 Q1823.03 169.591 1824.84 167.296 Q1826.64 165 1827.84 163.993 Q1829.03 162.986 1829.36 162.986 Q1829.83 162.986 1829.85 163.455 Q1829.85 163.689 1829.22 164.274 Q1821.49 172.144 1821.51 186.971 Q1821.51 201.844 1829.03 209.409 Q1829.85 210.229 1829.85 210.487 Q1829.85 210.955 1829.36 210.955 Q1829.03 210.955 1827.88 209.995 Q1826.73 209.035 1824.95 206.833 Q1823.17 204.631 1821.89 201.938 Q1818.72 195.403 1818.72 186.971 Z" fill="#000000" fill-rule="evenodd" fill-opacity="1" /><path clip-path="url(#clip300)" d="M1837.14 188.86 L1843.84 178.532 L1846.56 192.236 L1847.07 194.733 Q1847.19 194.08 1847.53 192.974 Q1847.9 191.839 1847.95 191.555 L1856.95 157.026 Q1857.01 156.799 1857.09 156.43 Q1857.2 156.033 1857.26 155.891 Q1857.32 155.749 1857.4 155.465 Q1857.49 155.181 1857.54 155.096 Q1857.6 154.983 1857.69 154.784 Q1857.77 154.586 1857.88 154.529 Q1858 154.472 1858.14 154.359 Q1858.28 154.245 1858.45 154.217 Q1858.65 154.188 1858.85 154.16 Q1859.05 154.132 1859.33 154.132 L1864.41 154.132 Q1866.2 154.132 1866.2 155.295 Q1866.2 156.458 1864.47 156.458 L1859.5 156.458 L1847.78 201.258 Q1847.61 201.911 1847.47 202.166 Q1847.36 202.422 1846.96 202.649 Q1846.56 202.876 1845.85 202.876 L1845.29 202.876 L1841.57 184.405 L1838.08 189.796 L1837.14 188.86 Z" fill="#000000" fill-rule="evenodd" fill-opacity="1" /><path clip-path="url(#clip300)" d="
M1864.28 156.455 L1980.95 156.455 L1980.95 154.04 L1864.28 154.04  Z
  " fill="#000000" fill-rule="evenodd" fill-opacity="1"/>
<path clip-path="url(#clip300)" d="M1893.3 181.259 Q1893.3 182.571 1892.48 183.32 Q1891.66 184.047 1890.72 184.047 Q1889.83 184.047 1889.36 183.531 Q1888.89 183.016 1888.89 182.36 Q1888.89 181.47 1889.55 180.697 Q1890.2 179.924 1891.19 179.76 Q1890.23 179.151 1888.8 179.151 Q1887.86 179.151 1887.04 179.643 Q1886.25 180.135 1885.75 180.767 Q1885.29 181.4 1884.86 182.313 Q1884.47 183.203 1884.3 183.742 Q1884.16 184.257 1884.04 184.819 L1882.4 191.378 Q1881.61 194.493 1881.61 195.594 Q1881.61 196.952 1882.26 197.866 Q1882.92 198.756 1884.23 198.756 Q1884.75 198.756 1885.33 198.615 Q1885.92 198.451 1886.67 198.03 Q1887.44 197.585 1888.12 196.929 Q1888.82 196.25 1889.5 195.102 Q1890.18 193.954 1890.63 192.479 Q1890.77 191.963 1891.23 191.963 Q1891.82 191.963 1891.82 192.432 Q1891.82 192.83 1891.49 193.673 Q1891.19 194.493 1890.51 195.57 Q1889.85 196.624 1888.99 197.585 Q1888.12 198.522 1886.83 199.177 Q1885.54 199.833 1884.14 199.833 Q1882.12 199.833 1880.79 198.756 Q1879.45 197.678 1878.96 196.179 Q1878.84 196.39 1878.68 196.671 Q1878.52 196.952 1878.02 197.585 Q1877.56 198.194 1877.02 198.662 Q1876.48 199.107 1875.64 199.459 Q1874.82 199.833 1873.93 199.833 Q1872.8 199.833 1871.79 199.505 Q1870.81 199.177 1870.11 198.428 Q1869.4 197.678 1869.4 196.648 Q1869.4 195.5 1870.18 194.704 Q1870.97 193.884 1872.05 193.884 Q1872.73 193.884 1873.27 194.282 Q1873.83 194.68 1873.83 195.547 Q1873.83 196.507 1873.18 197.233 Q1872.52 197.959 1871.58 198.147 Q1872.54 198.756 1873.97 198.756 Q1875.52 198.756 1876.74 197.397 Q1877.95 196.039 1878.54 193.767 Q1879.99 188.309 1880.55 185.874 Q1881.12 183.414 1881.12 182.36 Q1881.12 181.376 1880.86 180.697 Q1880.6 180.018 1880.16 179.713 Q1879.73 179.385 1879.34 179.268 Q1878.96 179.151 1878.54 179.151 Q1877.84 179.151 1877.04 179.432 Q1876.27 179.713 1875.33 180.369 Q1874.42 181.002 1873.55 182.313 Q1872.68 183.625 1872.1 185.428 Q1871.98 185.967 1871.47 185.967 Q1870.9 185.944 1870.9 185.475 Q1870.9 185.077 1871.21 184.257 Q1871.54 183.414 1872.19 182.36 Q1872.87 181.306 1873.74 180.369 Q1874.63 179.409 1875.92 178.753 Q1877.23 178.097 1878.63 178.097 Q1879.27 178.097 1879.87 178.238 Q1880.51 178.355 1881.26 178.706 Q1882.03 179.058 1882.71 179.831 Q1883.39 180.603 1883.81 181.728 Q1884.09 181.189 1884.47 180.674 Q1884.86 180.158 1885.47 179.526 Q1886.11 178.87 1886.97 178.495 Q1887.86 178.097 1888.85 178.097 Q1889.81 178.097 1890.74 178.355 Q1891.68 178.589 1892.48 179.362 Q1893.3 180.112 1893.3 181.259 Z" fill="#000000" fill-rule="evenodd" fill-opacity="1" /><path clip-path="url(#clip300)" d="M1910.98 187.888 Q1909.88 187.888 1909.88 187.302 Q1909.88 186.717 1911.03 186.717 Q1911.17 186.717 1911.41 186.74 Q1911.66 186.764 1911.71 186.764 L1925.22 186.764 L1925.22 173.202 Q1925.22 173.155 1925.2 172.944 Q1925.18 172.71 1925.18 172.57 Q1925.18 171.422 1925.74 171.422 Q1926.33 171.422 1926.33 172.57 L1926.33 186.764 L1939.86 186.764 Q1939.91 186.764 1940.14 186.74 Q1940.38 186.717 1940.52 186.717 Q1941.62 186.717 1941.62 187.302 Q1941.64 187.888 1940.47 187.888 Q1940.33 187.888 1940.12 187.864 Q1939.91 187.841 1939.86 187.841 L1926.33 187.841 L1926.33 202.082 Q1926.33 203.183 1925.74 203.183 Q1925.18 203.183 1925.18 202.035 Q1925.18 201.894 1925.2 201.66 Q1925.22 201.449 1925.22 201.403 L1925.22 187.841 L1911.71 187.841 Q1911.66 187.841 1911.38 187.864 Q1911.12 187.888 1910.98 187.888 Z" fill="#000000" fill-rule="evenodd" fill-opacity="1" /><path clip-path="url(#clip300)" d="M1960.15 171.914 L1960.15 170.415 Q1965.91 170.415 1968.89 167.346 Q1969.71 167.346 1969.85 167.534 Q1969.99 167.721 1969.99 168.588 L1969.99 195.5 Q1969.99 196.929 1970.69 197.374 Q1971.39 197.819 1974.46 197.819 L1975.98 197.819 L1975.98 199.295 Q1974.3 199.154 1968.21 199.154 Q1962.12 199.154 1960.46 199.295 L1960.46 197.819 L1961.98 197.819 Q1965 197.819 1965.73 197.397 Q1966.45 196.952 1966.45 195.5 L1966.45 170.649 Q1963.95 171.914 1960.15 171.914 Z" fill="#000000" fill-rule="evenodd" fill-opacity="1" /><path clip-path="url(#clip300)" d="M1980.95 210.487 Q1980.95 210.253 1981.56 209.667 Q1989.29 201.797 1989.29 186.971 Q1989.29 172.097 1981.86 164.579 Q1980.95 163.712 1980.95 163.455 Q1980.95 162.986 1981.42 162.986 Q1981.75 162.986 1982.9 163.946 Q1984.07 164.907 1985.82 167.108 Q1987.6 169.31 1988.91 172.004 Q1992.08 178.539 1992.08 186.971 Q1992.08 195.075 1989.06 201.61 Q1987.77 204.35 1985.96 206.646 Q1984.16 208.941 1982.97 209.948 Q1981.77 210.955 1981.42 210.955 Q1980.95 210.955 1980.95 210.487 Z" fill="#000000" fill-rule="evenodd" fill-opacity="1" /><polyline clip-path="url(#clip300)" style="stroke:#e26f46; stroke-linecap:round; stroke-linejoin:round; stroke-width:4; stroke-opacity:1; fill:none" points="
  1429.48,259.19 1595.5,259.19 
  "/>
<path clip-path="url(#clip300)" d="M1623.18 230.257 L1652.41 230.257 L1652.41 234.192 L1640.14 234.192 L1640.14 264.817 L1635.44 264.817 L1635.44 234.192 L1623.18 234.192 L1623.18 230.257 Z" fill="#000000" fill-rule="evenodd" fill-opacity="1" /><path clip-path="url(#clip300)" d="M1660.68 251.784 Q1655.51 251.784 1653.52 252.965 Q1651.53 254.145 1651.53 256.992 Q1651.53 259.261 1653.01 260.604 Q1654.52 261.923 1657.09 261.923 Q1660.63 261.923 1662.76 259.423 Q1664.91 256.9 1664.91 252.733 L1664.91 251.784 L1660.68 251.784 M1669.17 250.025 L1669.17 264.817 L1664.91 264.817 L1664.91 260.881 Q1663.45 263.242 1661.28 264.377 Q1659.1 265.488 1655.95 265.488 Q1651.97 265.488 1649.61 263.266 Q1647.27 261.02 1647.27 257.27 Q1647.27 252.895 1650.19 250.673 Q1653.13 248.451 1658.94 248.451 L1664.91 248.451 L1664.91 248.034 Q1664.91 245.094 1662.97 243.497 Q1661.05 241.877 1657.55 241.877 Q1655.33 241.877 1653.22 242.409 Q1651.12 242.942 1649.17 244.006 L1649.17 240.071 Q1651.51 239.169 1653.71 238.729 Q1655.91 238.266 1657.99 238.266 Q1663.62 238.266 1666.39 241.182 Q1669.17 244.099 1669.17 250.025 Z" fill="#000000" fill-rule="evenodd" fill-opacity="1" /><path clip-path="url(#clip300)" d="M1699.49 249.168 L1699.49 264.817 L1695.24 264.817 L1695.24 249.307 Q1695.24 245.627 1693.8 243.798 Q1692.36 241.969 1689.49 241.969 Q1686.05 241.969 1684.05 244.168 Q1682.06 246.368 1682.06 250.164 L1682.06 264.817 L1677.78 264.817 L1677.78 238.891 L1682.06 238.891 L1682.06 242.918 Q1683.59 240.581 1685.65 239.423 Q1687.74 238.266 1690.44 238.266 Q1694.91 238.266 1697.2 241.043 Q1699.49 243.798 1699.49 249.168 Z" fill="#000000" fill-rule="evenodd" fill-opacity="1" /><path clip-path="url(#clip300)" d="M1725.05 251.553 Q1725.05 246.923 1723.13 244.377 Q1721.23 241.831 1717.78 241.831 Q1714.36 241.831 1712.43 244.377 Q1710.54 246.923 1710.54 251.553 Q1710.54 256.159 1712.43 258.705 Q1714.36 261.252 1717.78 261.252 Q1721.23 261.252 1723.13 258.705 Q1725.05 256.159 1725.05 251.553 M1729.31 261.599 Q1729.31 268.219 1726.37 271.437 Q1723.43 274.678 1717.36 274.678 Q1715.12 274.678 1713.13 274.33 Q1711.14 274.006 1709.26 273.312 L1709.26 269.168 Q1711.14 270.187 1712.97 270.673 Q1714.8 271.159 1716.69 271.159 Q1720.88 271.159 1722.97 268.96 Q1725.05 266.784 1725.05 262.363 L1725.05 260.256 Q1723.73 262.548 1721.67 263.682 Q1719.61 264.817 1716.74 264.817 Q1711.97 264.817 1709.05 261.182 Q1706.14 257.548 1706.14 251.553 Q1706.14 245.534 1709.05 241.9 Q1711.97 238.266 1716.74 238.266 Q1719.61 238.266 1721.67 239.4 Q1723.73 240.534 1725.05 242.826 L1725.05 238.891 L1729.31 238.891 L1729.31 261.599 Z" fill="#000000" fill-rule="evenodd" fill-opacity="1" /><path clip-path="url(#clip300)" d="M1760.26 250.789 L1760.26 252.872 L1740.67 252.872 Q1740.95 257.27 1743.31 259.585 Q1745.7 261.877 1749.93 261.877 Q1752.39 261.877 1754.68 261.275 Q1756.99 260.673 1759.26 259.469 L1759.26 263.497 Q1756.97 264.469 1754.56 264.979 Q1752.16 265.488 1749.68 265.488 Q1743.48 265.488 1739.84 261.877 Q1736.23 258.266 1736.23 252.108 Q1736.23 245.743 1739.66 242.016 Q1743.11 238.266 1748.94 238.266 Q1754.17 238.266 1757.2 241.645 Q1760.26 245.002 1760.26 250.789 M1756 249.539 Q1755.95 246.043 1754.03 243.96 Q1752.13 241.877 1748.99 241.877 Q1745.42 241.877 1743.27 243.891 Q1741.14 245.905 1740.81 249.562 L1756 249.539 Z" fill="#000000" fill-rule="evenodd" fill-opacity="1" /><path clip-path="url(#clip300)" d="M1788.8 249.168 L1788.8 264.817 L1784.54 264.817 L1784.54 249.307 Q1784.54 245.627 1783.11 243.798 Q1781.67 241.969 1778.8 241.969 Q1775.35 241.969 1773.36 244.168 Q1771.37 246.368 1771.37 250.164 L1771.37 264.817 L1767.09 264.817 L1767.09 238.891 L1771.37 238.891 L1771.37 242.918 Q1772.9 240.581 1774.96 239.423 Q1777.04 238.266 1779.75 238.266 Q1784.22 238.266 1786.51 241.043 Q1788.8 243.798 1788.8 249.168 Z" fill="#000000" fill-rule="evenodd" fill-opacity="1" /><path clip-path="url(#clip300)" d="M1801.51 231.53 L1801.51 238.891 L1810.28 238.891 L1810.28 242.201 L1801.51 242.201 L1801.51 256.275 Q1801.51 259.446 1802.36 260.349 Q1803.24 261.252 1805.91 261.252 L1810.28 261.252 L1810.28 264.817 L1805.91 264.817 Q1800.98 264.817 1799.1 262.988 Q1797.23 261.136 1797.23 256.275 L1797.23 242.201 L1794.1 242.201 L1794.1 238.891 L1797.23 238.891 L1797.23 231.53 L1801.51 231.53 Z" fill="#000000" fill-rule="evenodd" fill-opacity="1" /><path clip-path="url(#clip300)" d="M1838.06 250.789 L1838.06 252.872 L1818.48 252.872 Q1818.75 257.27 1821.11 259.585 Q1823.5 261.877 1827.73 261.877 Q1830.19 261.877 1832.48 261.275 Q1834.79 260.673 1837.06 259.469 L1837.06 263.497 Q1834.77 264.469 1832.36 264.979 Q1829.96 265.488 1827.48 265.488 Q1821.28 265.488 1817.64 261.877 Q1814.03 258.266 1814.03 252.108 Q1814.03 245.743 1817.46 242.016 Q1820.91 238.266 1826.74 238.266 Q1831.97 238.266 1835 241.645 Q1838.06 245.002 1838.06 250.789 M1833.8 249.539 Q1833.75 246.043 1831.83 243.96 Q1829.93 241.877 1826.79 241.877 Q1823.22 241.877 1821.07 243.891 Q1818.94 245.905 1818.61 249.562 L1833.8 249.539 Z" fill="#000000" fill-rule="evenodd" fill-opacity="1" /><path clip-path="url(#clip300)" d="M1877.79 245.446 Q1877.79 245.774 1877.57 246.547 L1872.98 264.863 Q1871.98 268.939 1868.7 271.796 Q1865.44 274.654 1861.74 274.654 Q1859.52 274.654 1858.09 273.459 Q1856.66 272.288 1856.66 270.485 Q1856.66 268.892 1857.5 268.119 Q1858.34 267.37 1859.35 267.37 Q1859.68 267.37 1860.03 267.463 Q1860.38 267.557 1860.76 267.955 Q1861.13 268.353 1861.13 269.033 Q1861.13 270.133 1860.17 271 Q1859.7 271.398 1859.26 271.492 Q1858.84 271.586 1858.11 271.586 Q1858.39 272.241 1858.91 272.686 Q1859.42 273.131 1860.01 273.295 Q1860.59 273.483 1860.97 273.53 Q1861.37 273.6 1861.74 273.6 Q1864.74 273.6 1867.03 270.578 Q1867.71 269.665 1868.21 268.751 Q1868.72 267.861 1869.1 266.761 Q1869.47 265.683 1869.63 265.098 Q1869.82 264.512 1870.15 263.177 Q1867.97 265.355 1865.3 265.355 Q1864.18 265.355 1863.17 265.051 Q1862.19 264.746 1861.32 264.114 Q1860.45 263.458 1859.94 262.31 Q1859.45 261.163 1859.45 259.64 Q1859.45 258.024 1860.08 255.822 Q1860.71 253.621 1862.23 249.569 Q1863.05 247.297 1863.05 246.196 Q1863.05 245.657 1862.94 245.329 Q1862.82 244.978 1862.58 244.861 Q1862.35 244.72 1862.21 244.697 Q1862.09 244.673 1861.86 244.673 Q1860.48 244.673 1859.19 246.079 Q1857.9 247.484 1857.01 250.623 Q1856.82 251.208 1856.71 251.349 Q1856.59 251.489 1856.24 251.489 Q1855.65 251.466 1855.65 250.997 Q1855.65 250.81 1855.86 250.084 Q1856.07 249.334 1856.56 248.233 Q1857.08 247.109 1857.78 246.102 Q1858.49 245.071 1859.59 244.345 Q1860.71 243.619 1862 243.619 Q1863.76 243.619 1864.83 244.767 Q1865.93 245.891 1865.93 247.554 Q1865.93 248.233 1865.75 248.842 Q1865.58 249.428 1864.97 250.997 Q1862.51 257.321 1862.51 260.413 Q1862.51 261.163 1862.63 261.795 Q1862.77 262.404 1863.08 263.013 Q1863.38 263.599 1863.99 263.95 Q1864.62 264.278 1865.49 264.278 Q1866.59 264.278 1867.62 263.763 Q1868.67 263.224 1869.33 262.498 Q1870.01 261.772 1870.41 261.163 Q1870.83 260.53 1870.92 260.202 L1873.08 251.583 L1874.04 247.742 Q1874.48 245.657 1874.69 245.142 Q1874.97 244.65 1875.47 244.392 Q1875.96 244.134 1876.38 244.134 Q1876.97 244.134 1877.36 244.486 Q1877.79 244.837 1877.79 245.446 Z" fill="#000000" fill-rule="evenodd" fill-opacity="1" /><path clip-path="url(#clip300)" d="M1892.23 257.532 Q1892.28 256.947 1893.19 256.947 L1922.59 256.947 Q1923.97 256.947 1923.99 257.485 Q1923.99 258.071 1922.68 258.047 L1893.52 258.047 Q1892.23 258.071 1892.23 257.532 M1892.23 248.163 Q1892.23 247.578 1893.24 247.601 L1922.54 247.601 Q1923.97 247.601 1923.99 248.163 Q1923.99 248.702 1922.77 248.702 L1893.19 248.702 Q1892.23 248.702 1892.23 248.163 Z" fill="#000000" fill-rule="evenodd" fill-opacity="1" /><path clip-path="url(#clip300)" d="M1976.63 223.781 Q1976.63 225.093 1975.81 225.842 Q1974.99 226.569 1974.05 226.569 Q1973.16 226.569 1972.7 226.053 Q1972.23 225.538 1972.23 224.882 Q1972.23 223.992 1972.88 223.219 Q1973.54 222.446 1974.52 222.282 Q1973.56 221.673 1972.13 221.673 Q1971.2 221.673 1970.38 222.165 Q1969.58 222.657 1969.09 223.289 Q1968.62 223.922 1968.2 224.835 Q1967.8 225.725 1967.64 226.264 Q1967.5 226.779 1967.38 227.341 L1965.74 233.9 Q1964.94 237.015 1964.94 238.116 Q1964.94 239.474 1965.6 240.388 Q1966.25 241.278 1967.57 241.278 Q1968.08 241.278 1968.67 241.137 Q1969.25 240.973 1970 240.552 Q1970.78 240.107 1971.45 239.451 Q1972.16 238.772 1972.84 237.624 Q1973.52 236.476 1973.96 235.001 Q1974.1 234.485 1974.57 234.485 Q1975.16 234.485 1975.16 234.954 Q1975.16 235.352 1974.83 236.195 Q1974.52 237.015 1973.84 238.092 Q1973.19 239.146 1972.32 240.107 Q1971.45 241.044 1970.17 241.699 Q1968.88 242.355 1967.47 242.355 Q1965.46 242.355 1964.12 241.278 Q1962.79 240.2 1962.3 238.701 Q1962.18 238.912 1962.02 239.193 Q1961.85 239.474 1961.36 240.107 Q1960.89 240.716 1960.35 241.184 Q1959.81 241.629 1958.97 241.98 Q1958.15 242.355 1957.26 242.355 Q1956.14 242.355 1955.13 242.027 Q1954.15 241.699 1953.44 240.95 Q1952.74 240.2 1952.74 239.17 Q1952.74 238.022 1953.51 237.226 Q1954.31 236.406 1955.39 236.406 Q1956.07 236.406 1956.6 236.804 Q1957.17 237.202 1957.17 238.069 Q1957.17 239.029 1956.51 239.755 Q1955.85 240.481 1954.92 240.669 Q1955.88 241.278 1957.31 241.278 Q1958.85 241.278 1960.07 239.919 Q1961.29 238.561 1961.87 236.289 Q1963.33 230.831 1963.89 228.395 Q1964.45 225.936 1964.45 224.882 Q1964.45 223.898 1964.19 223.219 Q1963.94 222.54 1963.49 222.235 Q1963.07 221.907 1962.67 221.79 Q1962.3 221.673 1961.87 221.673 Q1961.17 221.673 1960.38 221.954 Q1959.6 222.235 1958.67 222.891 Q1957.75 223.524 1956.89 224.835 Q1956.02 226.147 1955.43 227.95 Q1955.32 228.489 1954.8 228.489 Q1954.24 228.466 1954.24 227.997 Q1954.24 227.599 1954.54 226.779 Q1954.87 225.936 1955.53 224.882 Q1956.21 223.828 1957.07 222.891 Q1957.96 221.931 1959.25 221.275 Q1960.56 220.619 1961.97 220.619 Q1962.6 220.619 1963.21 220.76 Q1963.84 220.877 1964.59 221.228 Q1965.36 221.58 1966.04 222.352 Q1966.72 223.125 1967.14 224.25 Q1967.43 223.711 1967.8 223.196 Q1968.2 222.68 1968.81 222.048 Q1969.44 221.392 1970.31 221.017 Q1971.2 220.619 1972.18 220.619 Q1973.14 220.619 1974.08 220.877 Q1975.01 221.111 1975.81 221.884 Q1976.63 222.634 1976.63 223.781 Z" fill="#000000" fill-rule="evenodd" fill-opacity="1" /><path clip-path="url(#clip300)" d="
M1952.74 255.142 L1981.52 255.142 L1981.52 252.582 L1952.74 252.582  Z
  " fill="#000000" fill-rule="evenodd" fill-opacity="1"/>
<path clip-path="url(#clip300)" d="M1953.86 289.647 L1953.86 288.172 L1968.59 265.663 Q1968.97 265.077 1969.55 265.101 Q1970.09 265.101 1970.21 265.311 Q1970.33 265.522 1970.33 266.342 L1970.33 288.172 L1975.13 288.172 L1975.13 289.647 L1970.33 289.647 L1970.33 293.816 Q1970.33 295.198 1970.89 295.643 Q1971.47 296.088 1973.96 296.088 L1974.96 296.088 L1974.96 297.564 Q1973 297.423 1968.45 297.423 Q1963.93 297.423 1961.96 297.564 L1961.96 296.088 L1962.97 296.088 Q1965.45 296.088 1966.04 295.667 Q1966.62 295.222 1966.62 293.816 L1966.62 289.647 L1953.86 289.647 M1955.22 288.172 L1966.91 288.172 L1966.91 270.277 L1955.22 288.172 Z" fill="#000000" fill-rule="evenodd" fill-opacity="1" /><path clip-path="url(#clip300)" d="M2001.05 254.337 Q1999.95 254.337 1999.95 253.752 Q1999.95 253.166 2001.1 253.166 Q2001.24 253.166 2001.47 253.19 Q2001.73 253.213 2001.78 253.213 L2015.29 253.213 L2015.29 239.651 Q2015.29 239.605 2015.27 239.394 Q2015.25 239.16 2015.25 239.019 Q2015.25 237.871 2015.81 237.871 Q2016.39 237.871 2016.39 239.019 L2016.39 253.213 L2029.93 253.213 Q2029.98 253.213 2030.21 253.19 Q2030.45 253.166 2030.59 253.166 Q2031.69 253.166 2031.69 253.752 Q2031.71 254.337 2030.54 254.337 Q2030.4 254.337 2030.19 254.314 Q2029.98 254.29 2029.93 254.29 L2016.39 254.29 L2016.39 268.531 Q2016.39 269.632 2015.81 269.632 Q2015.25 269.632 2015.25 268.484 Q2015.25 268.344 2015.27 268.11 Q2015.29 267.899 2015.29 267.852 L2015.29 254.29 L2001.78 254.29 Q2001.73 254.29 2001.45 254.314 Q2001.19 254.337 2001.05 254.337 Z" fill="#000000" fill-rule="evenodd" fill-opacity="1" /><path clip-path="url(#clip300)" d="M2050.22 250.402 Q2050.22 243.352 2052 239.511 Q2054.48 233.796 2060.34 233.796 Q2061.58 233.796 2062.87 234.147 Q2064.18 234.475 2065.82 235.763 Q2067.48 237.052 2068.49 239.16 Q2070.41 243.235 2070.41 250.402 Q2070.41 257.406 2068.63 261.223 Q2066.03 266.798 2060.29 266.798 Q2058.14 266.798 2055.93 265.697 Q2053.76 264.596 2052.37 261.95 Q2050.22 257.991 2050.22 250.402 M2054.2 249.817 Q2054.2 257.054 2054.72 259.935 Q2055.3 263.05 2056.89 264.409 Q2058.51 265.744 2060.29 265.744 Q2062.21 265.744 2063.8 264.315 Q2065.42 262.863 2065.91 259.748 Q2066.45 256.68 2066.43 249.817 Q2066.43 243.141 2065.96 240.471 Q2065.33 237.356 2063.64 236.115 Q2061.98 234.85 2060.29 234.85 Q2059.66 234.85 2058.98 235.037 Q2058.32 235.225 2057.36 235.763 Q2056.4 236.302 2055.65 237.637 Q2054.93 238.972 2054.58 240.986 Q2054.2 243.586 2054.2 249.817 Z" fill="#000000" fill-rule="evenodd" fill-opacity="1" /><path clip-path="url(#clip300)" d="M2074.7 264.971 Q2073.98 264.198 2073.98 263.191 Q2073.98 262.184 2074.7 261.458 Q2075.43 260.708 2076.53 260.708 Q2077.58 260.708 2078.29 261.411 Q2079.01 262.09 2079.01 263.214 Q2079.01 264.315 2078.24 265.041 Q2077.49 265.744 2076.53 265.744 Q2075.43 265.744 2074.7 264.971 Z" fill="#000000" fill-rule="evenodd" fill-opacity="1" /><path clip-path="url(#clip300)" d="M2087.18 250.402 Q2087.18 243.352 2088.96 239.511 Q2091.44 233.796 2097.29 233.796 Q2098.54 233.796 2099.82 234.147 Q2101.14 234.475 2102.78 235.763 Q2104.44 237.052 2105.45 239.16 Q2107.37 243.235 2107.37 250.402 Q2107.37 257.406 2105.59 261.223 Q2102.99 266.798 2097.25 266.798 Q2095.09 266.798 2092.89 265.697 Q2090.71 264.596 2089.33 261.95 Q2087.18 257.991 2087.18 250.402 M2091.16 249.817 Q2091.16 257.054 2091.67 259.935 Q2092.26 263.05 2093.85 264.409 Q2095.47 265.744 2097.25 265.744 Q2099.17 265.744 2100.76 264.315 Q2102.38 262.863 2102.87 259.748 Q2103.41 256.68 2103.38 249.817 Q2103.38 243.141 2102.92 240.471 Q2102.28 237.356 2100.6 236.115 Q2098.93 234.85 2097.25 234.85 Q2096.62 234.85 2095.94 235.037 Q2095.28 235.225 2094.32 235.763 Q2093.36 236.302 2092.61 237.637 Q2091.88 238.972 2091.53 240.986 Q2091.16 243.586 2091.16 249.817 Z" fill="#000000" fill-rule="evenodd" fill-opacity="1" /><path clip-path="url(#clip300)" d="M2111.12 244.594 Q2111.12 242.041 2111.87 240.307 Q2112.62 238.551 2114.19 236.817 Q2117.07 233.796 2121.24 233.796 Q2123.02 233.796 2124.59 234.545 Q2126.18 235.295 2127.68 237.005 Q2129.21 238.691 2130.12 242.041 Q2131.03 245.366 2131.03 249.957 Q2131.03 257.382 2127.43 262.09 Q2123.84 266.798 2118.99 266.798 Q2115.93 266.798 2114.12 265.416 Q2112.32 264.011 2112.32 261.622 Q2112.32 260.38 2113.02 259.865 Q2113.72 259.326 2114.52 259.326 Q2115.39 259.326 2116.07 259.912 Q2116.75 260.474 2116.75 261.528 Q2116.75 262.395 2116.18 263.074 Q2115.64 263.73 2114.24 263.73 Q2115.62 265.463 2118.95 265.463 Q2120.14 265.463 2121.34 264.924 Q2122.53 264.362 2123.82 263.027 Q2125.13 261.669 2125.93 258.834 Q2126.72 256 2126.72 252.018 L2126.72 250.496 Q2124.8 255.298 2120.73 255.298 Q2116.7 255.298 2113.91 252.206 Q2111.12 249.114 2111.12 244.594 M2115.43 244.64 Q2115.43 249.395 2116.3 251.152 Q2117.78 254.173 2120.77 254.173 Q2123.7 254.173 2125.15 251.573 Q2126.63 248.95 2126.63 245.554 Q2126.63 240.846 2125.86 238.785 Q2124.43 234.99 2121.24 234.99 Q2118.08 234.99 2116.44 238.012 Q2115.43 239.792 2115.43 244.64 Z" fill="#000000" fill-rule="evenodd" fill-opacity="1" /><path clip-path="url(#clip300)" d="M2135.07 250.59 Q2135.07 243.048 2138.91 238.433 Q2142.76 233.796 2147.7 233.796 Q2150.58 233.796 2152.17 235.271 Q2153.79 236.724 2153.79 238.972 Q2153.79 240.214 2153.06 240.752 Q2152.33 241.291 2151.59 241.291 Q2150.72 241.291 2150.04 240.705 Q2149.36 240.12 2149.36 239.066 Q2149.36 236.911 2152.01 236.911 Q2150.77 234.99 2147.79 234.99 Q2146.88 234.99 2145.94 235.271 Q2145 235.529 2143.79 236.419 Q2142.57 237.309 2141.63 238.715 Q2140.69 240.12 2140.04 242.767 Q2139.38 245.413 2139.38 248.856 L2139.38 250.004 Q2141.35 245.249 2145.38 245.273 Q2149.41 245.273 2152.19 248.341 Q2154.98 251.409 2154.98 255.953 Q2154.98 260.615 2152.08 263.706 Q2149.17 266.798 2145.1 266.798 Q2143.27 266.798 2141.61 266.025 Q2139.97 265.276 2138.42 263.542 Q2136.9 261.809 2135.99 258.483 Q2135.07 255.157 2135.07 250.59 M2139.48 254.899 Q2139.48 259.607 2140.34 261.856 Q2140.48 262.231 2140.79 262.746 Q2141.12 263.261 2141.65 263.94 Q2142.22 264.596 2143.13 265.041 Q2144.04 265.463 2145.1 265.463 Q2148.31 265.463 2149.85 262.348 Q2150.67 260.615 2150.67 255.907 Q2150.67 251.105 2149.81 249.348 Q2148.33 246.374 2145.33 246.374 Q2143.32 246.374 2141.91 247.756 Q2140.53 249.138 2139.99 250.988 Q2139.48 252.838 2139.48 254.899 Z" fill="#000000" fill-rule="evenodd" fill-opacity="1" /><path clip-path="url(#clip300)" d="M2159.02 258.015 Q2159.02 256.586 2159.79 256.047 Q2160.57 255.485 2161.39 255.485 Q2162.49 255.485 2163.12 256.188 Q2163.78 256.867 2163.78 257.827 Q2163.78 258.788 2163.12 259.49 Q2162.49 260.169 2161.39 260.169 Q2160.85 260.169 2160.57 260.076 Q2161.2 262.277 2163.12 263.87 Q2165.06 265.463 2167.62 265.463 Q2170.83 265.463 2172.75 262.348 Q2173.89 260.333 2173.89 255.766 Q2173.89 251.737 2173.03 249.723 Q2171.69 246.655 2168.95 246.655 Q2165.06 246.655 2162.77 250.004 Q2162.49 250.426 2162.16 250.449 Q2161.69 250.449 2161.57 250.192 Q2161.48 249.91 2161.48 249.184 L2161.48 234.99 Q2161.48 233.843 2161.95 233.843 Q2162.14 233.843 2162.53 233.983 Q2165.56 235.318 2168.91 235.342 Q2172.35 235.342 2175.44 233.936 Q2175.67 233.796 2175.81 233.796 Q2176.28 233.796 2176.31 234.335 Q2176.31 234.522 2175.91 235.084 Q2175.53 235.623 2174.71 236.349 Q2173.89 237.052 2172.84 237.731 Q2171.79 238.41 2170.24 238.878 Q2168.72 239.324 2167.03 239.324 Q2165.02 239.324 2162.96 238.691 L2162.96 248.037 Q2165.44 245.601 2169.05 245.601 Q2172.89 245.601 2175.53 248.692 Q2178.18 251.784 2178.18 256.094 Q2178.18 260.615 2175.04 263.706 Q2171.93 266.798 2167.71 266.798 Q2163.87 266.798 2161.43 264.058 Q2159.02 261.317 2159.02 258.015 Z" fill="#000000" fill-rule="evenodd" fill-opacity="1" /><path clip-path="url(#clip300)" d="M2180.8 243.188 L2182.37 233.327 L2183.56 233.327 Q2183.7 233.913 2183.94 234.171 Q2184.19 234.428 2185.55 234.639 Q2186.93 234.85 2189.72 234.85 L2201.36 234.85 Q2201.36 235.951 2200.94 236.536 L2194.45 245.648 Q2192.39 248.529 2191.48 253.845 Q2190.94 257.406 2190.96 261.715 L2190.96 264.151 Q2190.96 266.798 2188.74 266.798 Q2186.54 266.798 2186.54 264.151 Q2186.54 254.993 2192.44 246.116 Q2193.07 245.203 2195.39 241.947 Q2197.73 238.691 2197.83 238.551 L2187.89 238.551 Q2183.54 238.551 2183.19 238.832 Q2182.72 239.253 2181.99 243.188 L2180.8 243.188 Z" fill="#000000" fill-rule="evenodd" fill-opacity="1" /><path clip-path="url(#clip300)" d="M2200.85 259.279 Q2200.85 257.851 2201.67 257.171 Q2202.48 256.492 2203.54 256.492 Q2204.64 256.492 2205.41 257.218 Q2206.21 257.921 2206.21 259.162 Q2206.21 260.497 2205.27 261.247 Q2204.36 261.996 2203.05 261.809 Q2204.19 263.73 2206.3 264.596 Q2208.43 265.463 2210.4 265.463 Q2212.46 265.463 2214.13 263.683 Q2215.81 261.903 2215.81 257.546 Q2215.81 253.845 2214.36 251.714 Q2212.93 249.583 2210.1 249.583 L2207.99 249.583 Q2207.26 249.583 2207.05 249.512 Q2206.84 249.442 2206.84 249.044 Q2206.84 248.575 2207.57 248.482 Q2208.29 248.482 2209.44 248.341 Q2212.23 248.247 2213.7 245.835 Q2215.04 243.586 2215.04 240.378 Q2215.04 237.45 2213.63 236.232 Q2212.25 234.99 2210.45 234.99 Q2208.76 234.99 2206.91 235.693 Q2205.06 236.396 2204.05 237.965 Q2207.03 237.965 2207.03 240.378 Q2207.03 241.432 2206.35 242.134 Q2205.69 242.813 2204.59 242.813 Q2203.54 242.813 2202.84 242.158 Q2202.13 241.478 2202.13 240.331 Q2202.13 237.59 2204.57 235.693 Q2207.03 233.796 2210.64 233.796 Q2214.2 233.796 2216.82 235.67 Q2219.47 237.543 2219.47 240.424 Q2219.47 243.258 2217.59 245.577 Q2215.72 247.896 2212.74 248.856 Q2216.4 249.583 2218.58 252.065 Q2220.75 254.525 2220.75 257.546 Q2220.75 261.294 2217.8 264.058 Q2214.85 266.798 2210.54 266.798 Q2206.56 266.798 2203.7 264.643 Q2200.85 262.488 2200.85 259.279 Z" fill="#000000" fill-rule="evenodd" fill-opacity="1" /><path clip-path="url(#clip300)" d="M2224.79 258.015 Q2224.79 256.586 2225.57 256.047 Q2226.34 255.485 2227.16 255.485 Q2228.26 255.485 2228.89 256.188 Q2229.55 256.867 2229.55 257.827 Q2229.55 258.788 2228.89 259.49 Q2228.26 260.169 2227.16 260.169 Q2226.62 260.169 2226.34 260.076 Q2226.97 262.277 2228.89 263.87 Q2230.84 265.463 2233.39 265.463 Q2236.6 265.463 2238.52 262.348 Q2239.67 260.333 2239.67 255.766 Q2239.67 251.737 2238.8 249.723 Q2237.47 246.655 2234.72 246.655 Q2230.84 246.655 2228.54 250.004 Q2228.26 250.426 2227.93 250.449 Q2227.46 250.449 2227.35 250.192 Q2227.25 249.91 2227.25 249.184 L2227.25 234.99 Q2227.25 233.843 2227.72 233.843 Q2227.91 233.843 2228.31 233.983 Q2231.33 235.318 2234.68 235.342 Q2238.12 235.342 2241.21 233.936 Q2241.45 233.796 2241.59 233.796 Q2242.06 233.796 2242.08 234.335 Q2242.08 234.522 2241.68 235.084 Q2241.31 235.623 2240.49 236.349 Q2239.67 237.052 2238.61 237.731 Q2237.56 238.41 2236.01 238.878 Q2234.49 239.324 2232.8 239.324 Q2230.79 239.324 2228.73 238.691 L2228.73 248.037 Q2231.21 245.601 2234.82 245.601 Q2238.66 245.601 2241.31 248.692 Q2243.95 251.784 2243.95 256.094 Q2243.95 260.615 2240.81 263.706 Q2237.7 266.798 2233.48 266.798 Q2229.64 266.798 2227.21 264.058 Q2224.79 261.317 2224.79 258.015 Z" fill="#000000" fill-rule="evenodd" fill-opacity="1" /><path clip-path="url(#clip300)" d="M2248.74 244.594 Q2248.74 242.041 2249.49 240.307 Q2250.24 238.551 2251.81 236.817 Q2254.69 233.796 2258.86 233.796 Q2260.64 233.796 2262.21 234.545 Q2263.8 235.295 2265.3 237.005 Q2266.82 238.691 2267.74 242.041 Q2268.65 245.366 2268.65 249.957 Q2268.65 257.382 2265.04 262.09 Q2261.46 266.798 2256.61 266.798 Q2253.54 266.798 2251.74 265.416 Q2249.94 264.011 2249.94 261.622 Q2249.94 260.38 2250.64 259.865 Q2251.34 259.326 2252.14 259.326 Q2253 259.326 2253.68 259.912 Q2254.36 260.474 2254.36 261.528 Q2254.36 262.395 2253.8 263.074 Q2253.26 263.73 2251.86 263.73 Q2253.24 265.463 2256.56 265.463 Q2257.76 265.463 2258.95 264.924 Q2260.15 264.362 2261.44 263.027 Q2262.75 261.669 2263.54 258.834 Q2264.34 256 2264.34 252.018 L2264.34 250.496 Q2262.42 255.298 2258.34 255.298 Q2254.32 255.298 2251.53 252.206 Q2248.74 249.114 2248.74 244.594 M2253.05 244.64 Q2253.05 249.395 2253.92 251.152 Q2255.39 254.173 2258.39 254.173 Q2261.32 254.173 2262.77 251.573 Q2264.25 248.95 2264.25 245.554 Q2264.25 240.846 2263.47 238.785 Q2262.05 234.99 2258.86 234.99 Q2255.7 234.99 2254.06 238.012 Q2253.05 239.792 2253.05 244.64 Z" fill="#000000" fill-rule="evenodd" fill-opacity="1" /><path clip-path="url(#clip300)" d="M2272.69 250.402 Q2272.69 243.352 2274.47 239.511 Q2276.95 233.796 2282.81 233.796 Q2284.05 233.796 2285.34 234.147 Q2286.65 234.475 2288.29 235.763 Q2289.95 237.052 2290.96 239.16 Q2292.88 243.235 2292.88 250.402 Q2292.88 257.406 2291.1 261.223 Q2288.5 266.798 2282.76 266.798 Q2280.61 266.798 2278.41 265.697 Q2276.23 264.596 2274.84 261.95 Q2272.69 257.991 2272.69 250.402 M2276.67 249.817 Q2276.67 257.054 2277.19 259.935 Q2277.77 263.05 2279.37 264.409 Q2280.98 265.744 2282.76 265.744 Q2284.68 265.744 2286.28 264.315 Q2287.89 262.863 2288.38 259.748 Q2288.92 256.68 2288.9 249.817 Q2288.9 243.141 2288.43 240.471 Q2287.8 237.356 2286.11 236.115 Q2284.45 234.85 2282.76 234.85 Q2282.13 234.85 2281.45 235.037 Q2280.79 235.225 2279.83 235.763 Q2278.87 236.302 2278.12 237.637 Q2277.4 238.972 2277.05 240.986 Q2276.67 243.586 2276.67 249.817 Z" fill="#000000" fill-rule="evenodd" fill-opacity="1" /><path clip-path="url(#clip300)" d="M2296.64 265.744 Q2296.64 264.877 2296.71 264.62 Q2296.8 264.362 2297.18 263.964 L2306.38 253.705 Q2311.42 248.037 2311.42 243.095 Q2311.42 239.886 2309.73 237.59 Q2308.07 235.295 2305 235.295 Q2302.89 235.295 2301.11 236.583 Q2299.33 237.871 2298.51 240.167 Q2298.65 240.12 2299.14 240.12 Q2300.34 240.12 2300.99 240.869 Q2301.67 241.619 2301.67 242.626 Q2301.67 243.914 2300.83 244.547 Q2300.01 245.156 2299.19 245.156 Q2298.86 245.156 2298.42 245.085 Q2298 245.015 2297.32 244.359 Q2296.64 243.68 2296.64 242.486 Q2296.64 239.136 2299.17 236.466 Q2301.72 233.796 2305.61 233.796 Q2310.01 233.796 2312.89 236.419 Q2315.8 239.019 2315.8 243.095 Q2315.8 244.523 2315.35 245.835 Q2314.93 247.123 2314.35 248.13 Q2313.78 249.138 2312.24 250.754 Q2310.69 252.37 2309.45 253.518 Q2308.21 254.665 2305.42 257.101 L2300.34 262.043 L2308.98 262.043 Q2313.2 262.043 2313.53 261.669 Q2313.99 260.989 2314.58 257.406 L2315.8 257.406 L2314.44 265.744 L2296.64 265.744 Z" fill="#000000" fill-rule="evenodd" fill-opacity="1" /><path clip-path="url(#clip300)" d="M2318.61 243.188 L2320.18 233.327 L2321.37 233.327 Q2321.51 233.913 2321.75 234.171 Q2322 234.428 2323.36 234.639 Q2324.74 234.85 2327.53 234.85 L2339.17 234.85 Q2339.17 235.951 2338.75 236.536 L2332.26 245.648 Q2330.2 248.529 2329.29 253.845 Q2328.75 257.406 2328.77 261.715 L2328.77 264.151 Q2328.77 266.798 2326.55 266.798 Q2324.35 266.798 2324.35 264.151 Q2324.35 254.993 2330.25 246.116 Q2330.88 245.203 2333.2 241.947 Q2335.54 238.691 2335.63 238.551 L2325.7 238.551 Q2321.35 238.551 2321 238.832 Q2320.53 239.253 2319.8 243.188 L2318.61 243.188 Z" fill="#000000" fill-rule="evenodd" fill-opacity="1" /><path clip-path="url(#clip300)" d="M2341.59 244.594 Q2341.59 242.041 2342.34 240.307 Q2343.09 238.551 2344.66 236.817 Q2347.54 233.796 2351.71 233.796 Q2353.49 233.796 2355.06 234.545 Q2356.66 235.295 2358.15 237.005 Q2359.68 238.691 2360.59 242.041 Q2361.5 245.366 2361.5 249.957 Q2361.5 257.382 2357.9 262.09 Q2354.31 266.798 2349.46 266.798 Q2346.4 266.798 2344.59 265.416 Q2342.79 264.011 2342.79 261.622 Q2342.79 260.38 2343.49 259.865 Q2344.19 259.326 2344.99 259.326 Q2345.86 259.326 2346.54 259.912 Q2347.22 260.474 2347.22 261.528 Q2347.22 262.395 2346.65 263.074 Q2346.12 263.73 2344.71 263.73 Q2346.09 265.463 2349.42 265.463 Q2350.61 265.463 2351.81 264.924 Q2353 264.362 2354.29 263.027 Q2355.6 261.669 2356.4 258.834 Q2357.19 256 2357.19 252.018 L2357.19 250.496 Q2355.27 255.298 2351.2 255.298 Q2347.17 255.298 2344.38 252.206 Q2341.59 249.114 2341.59 244.594 M2345.9 244.64 Q2345.9 249.395 2346.77 251.152 Q2348.25 254.173 2351.24 254.173 Q2354.17 254.173 2355.62 251.573 Q2357.1 248.95 2357.1 245.554 Q2357.1 240.846 2356.33 238.785 Q2354.9 234.99 2351.71 234.99 Q2348.55 234.99 2346.91 238.012 Q2345.9 239.792 2345.9 244.64 Z" fill="#000000" fill-rule="evenodd" fill-opacity="1" /><path clip-path="url(#clip300)" d="M2365.54 244.594 Q2365.54 242.041 2366.29 240.307 Q2367.04 238.551 2368.61 236.817 Q2371.49 233.796 2375.66 233.796 Q2377.44 233.796 2379.01 234.545 Q2380.6 235.295 2382.1 237.005 Q2383.63 238.691 2384.54 242.041 Q2385.45 245.366 2385.45 249.957 Q2385.45 257.382 2381.85 262.09 Q2378.26 266.798 2373.41 266.798 Q2370.34 266.798 2368.54 265.416 Q2366.74 264.011 2366.74 261.622 Q2366.74 260.38 2367.44 259.865 Q2368.14 259.326 2368.94 259.326 Q2369.81 259.326 2370.49 259.912 Q2371.16 260.474 2371.16 261.528 Q2371.16 262.395 2370.6 263.074 Q2370.06 263.73 2368.66 263.73 Q2370.04 265.463 2373.37 265.463 Q2374.56 265.463 2375.76 264.924 Q2376.95 264.362 2378.24 263.027 Q2379.55 261.669 2380.35 258.834 Q2381.14 256 2381.14 252.018 L2381.14 250.496 Q2379.22 255.298 2375.15 255.298 Q2371.12 255.298 2368.33 252.206 Q2365.54 249.114 2365.54 244.594 M2369.85 244.64 Q2369.85 249.395 2370.72 251.152 Q2372.2 254.173 2375.19 254.173 Q2378.12 254.173 2379.57 251.573 Q2381.05 248.95 2381.05 245.554 Q2381.05 240.846 2380.28 238.785 Q2378.85 234.99 2375.66 234.99 Q2372.5 234.99 2370.86 238.012 Q2369.85 239.792 2369.85 244.64 Z" fill="#000000" fill-rule="evenodd" fill-opacity="1" /><path clip-path="url(#clip300)" d="M2387.79 243.188 L2389.36 233.327 L2390.56 233.327 Q2390.7 233.913 2390.93 234.171 Q2391.19 234.428 2392.55 234.639 Q2393.93 234.85 2396.72 234.85 L2408.36 234.85 Q2408.36 235.951 2407.93 236.536 L2401.45 245.648 Q2399.39 248.529 2398.47 253.845 Q2397.93 257.406 2397.96 261.715 L2397.96 264.151 Q2397.96 266.798 2395.73 266.798 Q2393.53 266.798 2393.53 264.151 Q2393.53 254.993 2399.43 246.116 Q2400.06 245.203 2402.38 241.947 Q2404.73 238.691 2404.82 238.551 L2394.89 238.551 Q2390.53 238.551 2390.18 238.832 Q2389.71 239.253 2388.99 243.188 L2387.79 243.188 Z" fill="#000000" fill-rule="evenodd" fill-opacity="1" /><path clip-path="url(#clip300)" d="M2408.17 265.744 Q2408.17 264.877 2408.24 264.62 Q2408.34 264.362 2408.71 263.964 L2417.92 253.705 Q2422.95 248.037 2422.95 243.095 Q2422.95 239.886 2421.26 237.59 Q2419.6 235.295 2416.53 235.295 Q2414.43 235.295 2412.65 236.583 Q2410.87 237.871 2410.05 240.167 Q2410.19 240.12 2410.68 240.12 Q2411.87 240.12 2412.53 240.869 Q2413.21 241.619 2413.21 242.626 Q2413.21 243.914 2412.36 244.547 Q2411.54 245.156 2410.72 245.156 Q2410.4 245.156 2409.95 245.085 Q2409.53 245.015 2408.85 244.359 Q2408.17 243.68 2408.17 242.486 Q2408.17 239.136 2410.7 236.466 Q2413.25 233.796 2417.14 233.796 Q2421.55 233.796 2424.43 236.419 Q2427.33 239.019 2427.33 243.095 Q2427.33 244.523 2426.89 245.835 Q2426.46 247.123 2425.88 248.13 Q2425.32 249.138 2423.77 250.754 Q2422.22 252.37 2420.98 253.518 Q2419.74 254.665 2416.95 257.101 L2411.87 262.043 L2420.52 262.043 Q2424.73 262.043 2425.06 261.669 Q2425.53 260.989 2426.11 257.406 L2427.33 257.406 L2425.97 265.744 L2408.17 265.744 Z" fill="#000000" fill-rule="evenodd" fill-opacity="1" /><path clip-path="url(#clip300)" d="M2430.14 243.188 L2431.71 233.327 L2432.9 233.327 Q2433.04 233.913 2433.28 234.171 Q2433.54 234.428 2434.89 234.639 Q2436.28 234.85 2439.06 234.85 L2450.7 234.85 Q2450.7 235.951 2450.28 236.536 L2443.8 245.648 Q2441.73 248.529 2440.82 253.845 Q2440.28 257.406 2440.31 261.715 L2440.31 264.151 Q2440.31 266.798 2438.08 266.798 Q2435.88 266.798 2435.88 264.151 Q2435.88 254.993 2441.78 246.116 Q2442.41 245.203 2444.73 241.947 Q2447.07 238.691 2447.17 238.551 L2437.24 238.551 Q2432.88 238.551 2432.53 238.832 Q2432.06 239.253 2431.33 243.188 L2430.14 243.188 Z" fill="#000000" fill-rule="evenodd" fill-opacity="1" /><polyline clip-path="url(#clip300)" style="stroke:#3da44d; stroke-linecap:round; stroke-linejoin:round; stroke-width:4; stroke-opacity:1; fill:none" points="
  1429.48,335.938 1595.5,335.938 
  "/>
<path clip-path="url(#clip300)" d="M1623.18 307.004 L1629.47 307.004 L1644.8 335.916 L1644.8 307.004 L1649.33 307.004 L1649.33 341.564 L1643.04 341.564 L1627.71 312.652 L1627.71 341.564 L1623.18 341.564 L1623.18 307.004 Z" fill="#000000" fill-rule="evenodd" fill-opacity="1" /><path clip-path="url(#clip300)" d="M1668.5 318.624 Q1665.07 318.624 1663.08 321.309 Q1661.09 323.972 1661.09 328.624 Q1661.09 333.277 1663.06 335.962 Q1665.05 338.624 1668.5 338.624 Q1671.9 338.624 1673.89 335.939 Q1675.88 333.254 1675.88 328.624 Q1675.88 324.018 1673.89 321.333 Q1671.9 318.624 1668.5 318.624 M1668.5 315.013 Q1674.05 315.013 1677.23 318.624 Q1680.4 322.235 1680.4 328.624 Q1680.4 334.99 1677.23 338.624 Q1674.05 342.235 1668.5 342.235 Q1662.92 342.235 1659.75 338.624 Q1656.6 334.99 1656.6 328.624 Q1656.6 322.235 1659.75 318.624 Q1662.92 315.013 1668.5 315.013 Z" fill="#000000" fill-rule="evenodd" fill-opacity="1" /><path clip-path="url(#clip300)" d="M1702.48 319.62 Q1701.76 319.203 1700.91 319.018 Q1700.07 318.81 1699.05 318.81 Q1695.44 318.81 1693.5 321.171 Q1691.58 323.509 1691.58 327.907 L1691.58 341.564 L1687.3 341.564 L1687.3 315.638 L1691.58 315.638 L1691.58 319.666 Q1692.92 317.305 1695.07 316.171 Q1697.23 315.013 1700.3 315.013 Q1700.74 315.013 1701.28 315.083 Q1701.81 315.129 1702.46 315.245 L1702.48 319.62 Z" fill="#000000" fill-rule="evenodd" fill-opacity="1" /><path clip-path="url(#clip300)" d="M1726.3 320.615 Q1727.9 317.745 1730.12 316.379 Q1732.34 315.013 1735.35 315.013 Q1739.4 315.013 1741.6 317.86 Q1743.8 320.685 1743.8 325.916 L1743.8 341.564 L1739.52 341.564 L1739.52 326.055 Q1739.52 322.328 1738.2 320.522 Q1736.88 318.717 1734.17 318.717 Q1730.86 318.717 1728.94 320.916 Q1727.02 323.115 1727.02 326.911 L1727.02 341.564 L1722.74 341.564 L1722.74 326.055 Q1722.74 322.305 1721.42 320.522 Q1720.1 318.717 1717.34 318.717 Q1714.08 318.717 1712.16 320.939 Q1710.24 323.138 1710.24 326.911 L1710.24 341.564 L1705.95 341.564 L1705.95 315.638 L1710.24 315.638 L1710.24 319.666 Q1711.69 317.282 1713.73 316.147 Q1715.77 315.013 1718.57 315.013 Q1721.39 315.013 1723.36 316.448 Q1725.35 317.884 1726.3 320.615 Z" fill="#000000" fill-rule="evenodd" fill-opacity="1" /><path clip-path="url(#clip300)" d="M1764.08 328.532 Q1758.92 328.532 1756.92 329.712 Q1754.93 330.893 1754.93 333.74 Q1754.93 336.008 1756.42 337.351 Q1757.92 338.671 1760.49 338.671 Q1764.03 338.671 1766.16 336.171 Q1768.31 333.647 1768.31 329.481 L1768.31 328.532 L1764.08 328.532 M1772.57 326.772 L1772.57 341.564 L1768.31 341.564 L1768.31 337.629 Q1766.86 339.99 1764.68 341.124 Q1762.5 342.235 1759.36 342.235 Q1755.37 342.235 1753.01 340.013 Q1750.67 337.768 1750.67 334.018 Q1750.67 329.643 1753.59 327.421 Q1756.53 325.198 1762.34 325.198 L1768.31 325.198 L1768.31 324.782 Q1768.31 321.842 1766.37 320.245 Q1764.45 318.624 1760.95 318.624 Q1758.73 318.624 1756.62 319.157 Q1754.52 319.689 1752.57 320.754 L1752.57 316.819 Q1754.91 315.916 1757.11 315.476 Q1759.31 315.013 1761.39 315.013 Q1767.02 315.013 1769.8 317.93 Q1772.57 320.847 1772.57 326.772 Z" fill="#000000" fill-rule="evenodd" fill-opacity="1" /><path clip-path="url(#clip300)" d="M1781.35 305.546 L1785.61 305.546 L1785.61 341.564 L1781.35 341.564 L1781.35 305.546 Z" fill="#000000" fill-rule="evenodd" fill-opacity="1" /><path clip-path="url(#clip300)" d="M1827.25 322.194 Q1827.25 322.522 1827.04 323.295 L1822.45 341.611 Q1821.44 345.686 1818.17 348.544 Q1814.91 351.401 1811.21 351.401 Q1808.98 351.401 1807.55 350.207 Q1806.13 349.036 1806.13 347.232 Q1806.13 345.64 1806.97 344.867 Q1807.81 344.117 1808.82 344.117 Q1809.15 344.117 1809.5 344.211 Q1809.85 344.304 1810.23 344.703 Q1810.6 345.101 1810.6 345.78 Q1810.6 346.881 1809.64 347.748 Q1809.17 348.146 1808.73 348.239 Q1808.3 348.333 1807.58 348.333 Q1807.86 348.989 1808.37 349.434 Q1808.89 349.879 1809.48 350.043 Q1810.06 350.23 1810.44 350.277 Q1810.83 350.347 1811.21 350.347 Q1814.21 350.347 1816.5 347.326 Q1817.18 346.412 1817.67 345.499 Q1818.19 344.609 1818.56 343.508 Q1818.94 342.431 1819.1 341.845 Q1819.29 341.26 1819.62 339.924 Q1817.44 342.103 1814.77 342.103 Q1813.64 342.103 1812.64 341.798 Q1811.65 341.494 1810.79 340.861 Q1809.92 340.206 1809.41 339.058 Q1808.91 337.91 1808.91 336.388 Q1808.91 334.772 1809.55 332.57 Q1810.18 330.368 1811.7 326.316 Q1812.52 324.044 1812.52 322.943 Q1812.52 322.404 1812.4 322.077 Q1812.29 321.725 1812.05 321.608 Q1811.82 321.468 1811.68 321.444 Q1811.56 321.421 1811.33 321.421 Q1809.94 321.421 1808.66 322.826 Q1807.37 324.231 1806.48 327.37 Q1806.29 327.956 1806.17 328.096 Q1806.06 328.237 1805.7 328.237 Q1805.12 328.213 1805.12 327.745 Q1805.12 327.557 1805.33 326.831 Q1805.54 326.082 1806.03 324.981 Q1806.55 323.857 1807.25 322.849 Q1807.95 321.819 1809.05 321.093 Q1810.18 320.367 1811.47 320.367 Q1813.22 320.367 1814.3 321.514 Q1815.4 322.639 1815.4 324.302 Q1815.4 324.981 1815.21 325.59 Q1815.05 326.175 1814.44 327.745 Q1811.98 334.069 1811.98 337.161 Q1811.98 337.91 1812.1 338.543 Q1812.24 339.152 1812.54 339.76 Q1812.85 340.346 1813.46 340.697 Q1814.09 341.025 1814.96 341.025 Q1816.06 341.025 1817.09 340.51 Q1818.14 339.971 1818.8 339.245 Q1819.48 338.519 1819.88 337.91 Q1820.3 337.278 1820.39 336.95 L1822.55 328.33 L1823.51 324.489 Q1823.95 322.404 1824.16 321.889 Q1824.44 321.397 1824.93 321.14 Q1825.43 320.882 1825.85 320.882 Q1826.43 320.882 1826.83 321.233 Q1827.25 321.585 1827.25 322.194 Z" fill="#000000" fill-rule="evenodd" fill-opacity="1" /><path clip-path="url(#clip300)" d="M1841.7 334.28 Q1841.75 333.694 1842.66 333.694 L1872.05 333.694 Q1873.44 333.694 1873.46 334.233 Q1873.46 334.818 1872.15 334.795 L1842.99 334.795 Q1841.7 334.818 1841.7 334.28 M1841.7 324.911 Q1841.7 324.325 1842.71 324.349 L1872.01 324.349 Q1873.44 324.349 1873.46 324.911 Q1873.46 325.449 1872.24 325.449 L1842.66 325.449 Q1841.7 325.449 1841.7 324.911 Z" fill="#000000" fill-rule="evenodd" fill-opacity="1" /><path clip-path="url(#clip300)" d="M1891.97 343.587 L1891.97 342.112 L1906.7 319.603 Q1907.08 319.017 1907.66 319.041 Q1908.2 319.041 1908.32 319.251 Q1908.43 319.462 1908.43 320.282 L1908.43 342.112 L1913.24 342.112 L1913.24 343.587 L1908.43 343.587 L1908.43 347.756 Q1908.43 349.138 1909 349.583 Q1909.58 350.028 1912.06 350.028 L1913.07 350.028 L1913.07 351.504 Q1911.1 351.363 1906.56 351.363 Q1902.04 351.363 1900.07 351.504 L1900.07 350.028 L1901.08 350.028 Q1903.56 350.028 1904.15 349.607 Q1904.73 349.162 1904.73 347.756 L1904.73 343.587 L1891.97 343.587 M1893.33 342.112 L1905.01 342.112 L1905.01 324.217 L1893.33 342.112 Z" fill="#000000" fill-rule="evenodd" fill-opacity="1" /><path clip-path="url(#clip300)" d="M1916.45 350.731 Q1915.72 349.958 1915.72 348.951 Q1915.72 347.944 1916.45 347.218 Q1917.18 346.468 1918.28 346.468 Q1919.33 346.468 1920.03 347.171 Q1920.76 347.85 1920.76 348.974 Q1920.76 350.075 1919.99 350.801 Q1919.24 351.504 1918.28 351.504 Q1917.18 351.504 1916.45 350.731 Z" fill="#000000" fill-rule="evenodd" fill-opacity="1" /><path clip-path="url(#clip300)" d="M1928.92 345.039 Q1928.92 343.611 1929.74 342.931 Q1930.56 342.252 1931.62 342.252 Q1932.72 342.252 1933.49 342.978 Q1934.29 343.681 1934.29 344.922 Q1934.29 346.257 1933.35 347.007 Q1932.44 347.756 1931.13 347.569 Q1932.27 349.49 1934.38 350.356 Q1936.51 351.223 1938.48 351.223 Q1940.54 351.223 1942.2 349.443 Q1943.89 347.663 1943.89 343.306 Q1943.89 339.605 1942.44 337.474 Q1941.01 335.343 1938.18 335.343 L1936.07 335.343 Q1935.34 335.343 1935.13 335.272 Q1934.92 335.202 1934.92 334.804 Q1934.92 334.335 1935.65 334.242 Q1936.37 334.242 1937.52 334.101 Q1940.31 334.007 1941.78 331.595 Q1943.12 329.346 1943.12 326.138 Q1943.12 323.21 1941.71 321.992 Q1940.33 320.75 1938.53 320.75 Q1936.84 320.75 1934.99 321.453 Q1933.14 322.156 1932.13 323.725 Q1935.11 323.725 1935.11 326.138 Q1935.11 327.192 1934.43 327.894 Q1933.77 328.573 1932.67 328.573 Q1931.62 328.573 1930.92 327.918 Q1930.21 327.238 1930.21 326.091 Q1930.21 323.35 1932.65 321.453 Q1935.11 319.556 1938.71 319.556 Q1942.28 319.556 1944.9 321.43 Q1947.55 323.303 1947.55 326.184 Q1947.55 329.018 1945.67 331.337 Q1943.8 333.656 1940.82 334.616 Q1944.48 335.343 1946.66 337.825 Q1948.83 340.285 1948.83 343.306 Q1948.83 347.054 1945.88 349.818 Q1942.93 352.558 1938.62 352.558 Q1934.64 352.558 1931.78 350.403 Q1928.92 348.248 1928.92 345.039 Z" fill="#000000" fill-rule="evenodd" fill-opacity="1" /><path clip-path="url(#clip300)" d="M1949.81 343.587 L1949.81 342.112 L1964.55 319.603 Q1964.92 319.017 1965.51 319.041 Q1966.04 319.041 1966.16 319.251 Q1966.28 319.462 1966.28 320.282 L1966.28 342.112 L1971.08 342.112 L1971.08 343.587 L1966.28 343.587 L1966.28 347.756 Q1966.28 349.138 1966.84 349.583 Q1967.43 350.028 1969.91 350.028 L1970.92 350.028 L1970.92 351.504 Q1968.95 351.363 1964.4 351.363 Q1959.88 351.363 1957.92 351.504 L1957.92 350.028 L1958.92 350.028 Q1961.41 350.028 1961.99 349.607 Q1962.58 349.162 1962.58 347.756 L1962.58 343.587 L1949.81 343.587 M1951.17 342.112 L1962.86 342.112 L1962.86 324.217 L1951.17 342.112 Z" fill="#000000" fill-rule="evenodd" fill-opacity="1" /><path clip-path="url(#clip300)" d="M1974.72 336.35 Q1974.72 328.808 1978.56 324.193 Q1982.4 319.556 1987.35 319.556 Q1990.23 319.556 1991.82 321.031 Q1993.44 322.484 1993.44 324.732 Q1993.44 325.974 1992.71 326.512 Q1991.98 327.051 1991.23 327.051 Q1990.37 327.051 1989.69 326.465 Q1989.01 325.88 1989.01 324.826 Q1989.01 322.671 1991.66 322.671 Q1990.41 320.75 1987.44 320.75 Q1986.53 320.75 1985.59 321.031 Q1984.65 321.289 1983.43 322.179 Q1982.22 323.069 1981.28 324.475 Q1980.34 325.88 1979.69 328.527 Q1979.03 331.173 1979.03 334.616 L1979.03 335.764 Q1981 331.009 1985.03 331.033 Q1989.06 331.033 1991.84 334.101 Q1994.63 337.169 1994.63 341.713 Q1994.63 346.375 1991.73 349.466 Q1988.82 352.558 1984.75 352.558 Q1982.92 352.558 1981.26 351.785 Q1979.62 351.036 1978.07 349.302 Q1976.55 347.569 1975.63 344.243 Q1974.72 340.917 1974.72 336.35 M1979.12 340.659 Q1979.12 345.367 1979.99 347.616 Q1980.13 347.991 1980.44 348.506 Q1980.76 349.021 1981.3 349.7 Q1981.86 350.356 1982.78 350.801 Q1983.69 351.223 1984.75 351.223 Q1987.95 351.223 1989.5 348.108 Q1990.32 346.375 1990.32 341.667 Q1990.32 336.865 1989.45 335.108 Q1987.98 332.134 1984.98 332.134 Q1982.97 332.134 1981.56 333.516 Q1980.18 334.898 1979.64 336.748 Q1979.12 338.598 1979.12 340.659 Z" fill="#000000" fill-rule="evenodd" fill-opacity="1" /><path clip-path="url(#clip300)" d="M1998.67 343.775 Q1998.67 342.346 1999.44 341.807 Q2000.21 341.245 2001.03 341.245 Q2002.14 341.245 2002.77 341.948 Q2003.42 342.627 2003.42 343.587 Q2003.42 344.548 2002.77 345.25 Q2002.14 345.929 2001.03 345.929 Q2000.5 345.929 2000.21 345.836 Q2000.85 348.037 2002.77 349.63 Q2004.71 351.223 2007.27 351.223 Q2010.47 351.223 2012.39 348.108 Q2013.54 346.093 2013.54 341.526 Q2013.54 337.497 2012.68 335.483 Q2011.34 332.415 2008.6 332.415 Q2004.71 332.415 2002.42 335.764 Q2002.14 336.186 2001.81 336.209 Q2001.34 336.209 2001.22 335.952 Q2001.13 335.67 2001.13 334.944 L2001.13 320.75 Q2001.13 319.603 2001.6 319.603 Q2001.78 319.603 2002.18 319.743 Q2005.2 321.078 2008.55 321.102 Q2012 321.102 2015.09 319.696 Q2015.32 319.556 2015.46 319.556 Q2015.93 319.556 2015.95 320.095 Q2015.95 320.282 2015.56 320.844 Q2015.18 321.383 2014.36 322.109 Q2013.54 322.812 2012.49 323.491 Q2011.43 324.17 2009.89 324.638 Q2008.37 325.084 2006.68 325.084 Q2004.67 325.084 2002.6 324.451 L2002.6 333.797 Q2005.09 331.361 2008.69 331.361 Q2012.54 331.361 2015.18 334.452 Q2017.83 337.544 2017.83 341.854 Q2017.83 346.375 2014.69 349.466 Q2011.57 352.558 2007.36 352.558 Q2003.52 352.558 2001.08 349.818 Q1998.67 347.077 1998.67 343.775 Z" fill="#000000" fill-rule="evenodd" fill-opacity="1" /><path clip-path="url(#clip300)" d="M2020.45 328.948 L2022.01 319.087 L2023.21 319.087 Q2023.35 319.673 2023.58 319.931 Q2023.84 320.188 2025.2 320.399 Q2026.58 320.61 2029.37 320.61 L2041.01 320.61 Q2041.01 321.711 2040.59 322.296 L2034.1 331.408 Q2032.04 334.289 2031.13 339.605 Q2030.59 343.166 2030.61 347.475 L2030.61 349.911 Q2030.61 352.558 2028.39 352.558 Q2026.18 352.558 2026.18 349.911 Q2026.18 340.753 2032.09 331.876 Q2032.72 330.963 2035.04 327.707 Q2037.38 324.451 2037.47 324.311 L2027.54 324.311 Q2023.19 324.311 2022.83 324.592 Q2022.37 325.013 2021.64 328.948 L2020.45 328.948 Z" fill="#000000" fill-rule="evenodd" fill-opacity="1" /><path clip-path="url(#clip300)" d="M2040.49 345.039 Q2040.49 343.611 2041.31 342.931 Q2042.13 342.252 2043.19 342.252 Q2044.29 342.252 2045.06 342.978 Q2045.86 343.681 2045.86 344.922 Q2045.86 346.257 2044.92 347.007 Q2044.01 347.756 2042.7 347.569 Q2043.84 349.49 2045.95 350.356 Q2048.08 351.223 2050.05 351.223 Q2052.11 351.223 2053.77 349.443 Q2055.46 347.663 2055.46 343.306 Q2055.46 339.605 2054.01 337.474 Q2052.58 335.343 2049.75 335.343 L2047.64 335.343 Q2046.91 335.343 2046.7 335.272 Q2046.49 335.202 2046.49 334.804 Q2046.49 334.335 2047.22 334.242 Q2047.94 334.242 2049.09 334.101 Q2051.88 334.007 2053.35 331.595 Q2054.69 329.346 2054.69 326.138 Q2054.69 323.21 2053.28 321.992 Q2051.9 320.75 2050.1 320.75 Q2048.41 320.75 2046.56 321.453 Q2044.71 322.156 2043.7 323.725 Q2046.68 323.725 2046.68 326.138 Q2046.68 327.192 2046 327.894 Q2045.34 328.573 2044.24 328.573 Q2043.19 328.573 2042.48 327.918 Q2041.78 327.238 2041.78 326.091 Q2041.78 323.35 2044.22 321.453 Q2046.68 319.556 2050.28 319.556 Q2053.84 319.556 2056.47 321.43 Q2059.11 323.303 2059.11 326.184 Q2059.11 329.018 2057.24 331.337 Q2055.37 333.656 2052.39 334.616 Q2056.05 335.343 2058.22 337.825 Q2060.4 340.285 2060.4 343.306 Q2060.4 347.054 2057.45 349.818 Q2054.5 352.558 2050.19 352.558 Q2046.21 352.558 2043.35 350.403 Q2040.49 348.248 2040.49 345.039 Z" fill="#000000" fill-rule="evenodd" fill-opacity="1" /><path clip-path="url(#clip300)" d="M2064.44 343.775 Q2064.44 342.346 2065.21 341.807 Q2065.99 341.245 2066.81 341.245 Q2067.91 341.245 2068.54 341.948 Q2069.2 342.627 2069.2 343.587 Q2069.2 344.548 2068.54 345.25 Q2067.91 345.929 2066.81 345.929 Q2066.27 345.929 2065.99 345.836 Q2066.62 348.037 2068.54 349.63 Q2070.48 351.223 2073.04 351.223 Q2076.25 351.223 2078.17 348.108 Q2079.32 346.093 2079.32 341.526 Q2079.32 337.497 2078.45 335.483 Q2077.11 332.415 2074.37 332.415 Q2070.48 332.415 2068.19 335.764 Q2067.91 336.186 2067.58 336.209 Q2067.11 336.209 2066.99 335.952 Q2066.9 335.67 2066.9 334.944 L2066.9 320.75 Q2066.9 319.603 2067.37 319.603 Q2067.56 319.603 2067.96 319.743 Q2070.98 321.078 2074.33 321.102 Q2077.77 321.102 2080.86 319.696 Q2081.1 319.556 2081.24 319.556 Q2081.7 319.556 2081.73 320.095 Q2081.73 320.282 2081.33 320.844 Q2080.95 321.383 2080.13 322.109 Q2079.32 322.812 2078.26 323.491 Q2077.21 324.17 2075.66 324.638 Q2074.14 325.084 2072.45 325.084 Q2070.44 325.084 2068.38 324.451 L2068.38 333.797 Q2070.86 331.361 2074.47 331.361 Q2078.31 331.361 2080.95 334.452 Q2083.6 337.544 2083.6 341.854 Q2083.6 346.375 2080.46 349.466 Q2077.35 352.558 2073.13 352.558 Q2069.29 352.558 2066.85 349.818 Q2064.44 347.077 2064.44 343.775 Z" fill="#000000" fill-rule="evenodd" fill-opacity="1" /><path clip-path="url(#clip300)" d="M2088.39 330.354 Q2088.39 327.801 2089.14 326.067 Q2089.89 324.311 2091.46 322.577 Q2094.34 319.556 2098.51 319.556 Q2100.29 319.556 2101.86 320.305 Q2103.45 321.055 2104.95 322.765 Q2106.47 324.451 2107.39 327.801 Q2108.3 331.126 2108.3 335.717 Q2108.3 343.142 2104.69 347.85 Q2101.11 352.558 2096.26 352.558 Q2093.19 352.558 2091.39 351.176 Q2089.58 349.771 2089.58 347.382 Q2089.58 346.14 2090.29 345.625 Q2090.99 345.086 2091.79 345.086 Q2092.65 345.086 2093.33 345.672 Q2094.01 346.234 2094.01 347.288 Q2094.01 348.155 2093.45 348.834 Q2092.91 349.49 2091.51 349.49 Q2092.89 351.223 2096.21 351.223 Q2097.41 351.223 2098.6 350.684 Q2099.8 350.122 2101.09 348.787 Q2102.4 347.429 2103.19 344.594 Q2103.99 341.76 2103.99 337.778 L2103.99 336.256 Q2102.07 341.058 2097.99 341.058 Q2093.96 341.058 2091.18 337.966 Q2088.39 334.874 2088.39 330.354 M2092.7 330.4 Q2092.7 335.155 2093.57 336.912 Q2095.04 339.933 2098.04 339.933 Q2100.97 339.933 2102.42 337.333 Q2103.9 334.71 2103.9 331.314 Q2103.9 326.606 2103.12 324.545 Q2101.69 320.75 2098.51 320.75 Q2095.35 320.75 2093.71 323.772 Q2092.7 325.552 2092.7 330.4 Z" fill="#000000" fill-rule="evenodd" fill-opacity="1" /><path clip-path="url(#clip300)" d="M2112.34 336.162 Q2112.34 329.112 2114.12 325.271 Q2116.6 319.556 2122.46 319.556 Q2123.7 319.556 2124.99 319.907 Q2126.3 320.235 2127.94 321.523 Q2129.6 322.812 2130.61 324.92 Q2132.53 328.995 2132.53 336.162 Q2132.53 343.166 2130.75 346.983 Q2128.15 352.558 2122.41 352.558 Q2120.26 352.558 2118.05 351.457 Q2115.88 350.356 2114.49 347.71 Q2112.34 343.751 2112.34 336.162 M2116.32 335.577 Q2116.32 342.814 2116.84 345.695 Q2117.42 348.81 2119.01 350.169 Q2120.63 351.504 2122.41 351.504 Q2124.33 351.504 2125.92 350.075 Q2127.54 348.623 2128.03 345.508 Q2128.57 342.44 2128.55 335.577 Q2128.55 328.901 2128.08 326.231 Q2127.45 323.116 2125.76 321.875 Q2124.1 320.61 2122.41 320.61 Q2121.78 320.61 2121.1 320.797 Q2120.44 320.985 2119.48 321.523 Q2118.52 322.062 2117.77 323.397 Q2117.05 324.732 2116.69 326.746 Q2116.32 329.346 2116.32 335.577 Z" fill="#000000" fill-rule="evenodd" fill-opacity="1" /><path clip-path="url(#clip300)" d="M2136.29 351.504 Q2136.29 350.637 2136.36 350.38 Q2136.45 350.122 2136.83 349.724 L2146.03 339.465 Q2151.07 333.797 2151.07 328.855 Q2151.07 325.646 2149.38 323.35 Q2147.72 321.055 2144.65 321.055 Q2142.54 321.055 2140.76 322.343 Q2138.98 323.631 2138.16 325.927 Q2138.3 325.88 2138.79 325.88 Q2139.99 325.88 2140.64 326.629 Q2141.32 327.379 2141.32 328.386 Q2141.32 329.674 2140.48 330.307 Q2139.66 330.916 2138.84 330.916 Q2138.51 330.916 2138.07 330.845 Q2137.65 330.775 2136.97 330.119 Q2136.29 329.44 2136.29 328.246 Q2136.29 324.896 2138.82 322.226 Q2141.37 319.556 2145.26 319.556 Q2149.66 319.556 2152.54 322.179 Q2155.45 324.779 2155.45 328.855 Q2155.45 330.283 2155 331.595 Q2154.58 332.883 2153.99 333.89 Q2153.43 334.898 2151.89 336.514 Q2150.34 338.13 2149.1 339.278 Q2147.86 340.425 2145.07 342.861 L2139.99 347.803 L2148.63 347.803 Q2152.85 347.803 2153.17 347.429 Q2153.64 346.749 2154.23 343.166 L2155.45 343.166 L2154.09 351.504 L2136.29 351.504 Z" fill="#000000" fill-rule="evenodd" fill-opacity="1" /><path clip-path="url(#clip300)" d="M2158.25 328.948 L2159.82 319.087 L2161.02 319.087 Q2161.16 319.673 2161.39 319.931 Q2161.65 320.188 2163.01 320.399 Q2164.39 320.61 2167.18 320.61 L2178.82 320.61 Q2178.82 321.711 2178.4 322.296 L2171.91 331.408 Q2169.85 334.289 2168.94 339.605 Q2168.4 343.166 2168.42 347.475 L2168.42 349.911 Q2168.42 352.558 2166.2 352.558 Q2163.99 352.558 2163.99 349.911 Q2163.99 340.753 2169.9 331.876 Q2170.53 330.963 2172.85 327.707 Q2175.19 324.451 2175.28 324.311 L2165.35 324.311 Q2161 324.311 2160.64 324.592 Q2160.18 325.013 2159.45 328.948 L2158.25 328.948 Z" fill="#000000" fill-rule="evenodd" fill-opacity="1" /><path clip-path="url(#clip300)" d="M2181.24 330.354 Q2181.24 327.801 2181.99 326.067 Q2182.74 324.311 2184.31 322.577 Q2187.19 319.556 2191.36 319.556 Q2193.14 319.556 2194.71 320.305 Q2196.3 321.055 2197.8 322.765 Q2199.33 324.451 2200.24 327.801 Q2201.15 331.126 2201.15 335.717 Q2201.15 343.142 2197.55 347.85 Q2193.96 352.558 2189.11 352.558 Q2186.04 352.558 2184.24 351.176 Q2182.44 349.771 2182.44 347.382 Q2182.44 346.14 2183.14 345.625 Q2183.84 345.086 2184.64 345.086 Q2185.51 345.086 2186.19 345.672 Q2186.86 346.234 2186.86 347.288 Q2186.86 348.155 2186.3 348.834 Q2185.76 349.49 2184.36 349.49 Q2185.74 351.223 2189.07 351.223 Q2190.26 351.223 2191.46 350.684 Q2192.65 350.122 2193.94 348.787 Q2195.25 347.429 2196.05 344.594 Q2196.84 341.76 2196.84 337.778 L2196.84 336.256 Q2194.92 341.058 2190.85 341.058 Q2186.82 341.058 2184.03 337.966 Q2181.24 334.874 2181.24 330.354 M2185.55 330.4 Q2185.55 335.155 2186.42 336.912 Q2187.9 339.933 2190.89 339.933 Q2193.82 339.933 2195.27 337.333 Q2196.75 334.71 2196.75 331.314 Q2196.75 326.606 2195.98 324.545 Q2194.55 320.75 2191.36 320.75 Q2188.2 320.75 2186.56 323.772 Q2185.55 325.552 2185.55 330.4 Z" fill="#000000" fill-rule="evenodd" fill-opacity="1" /><path clip-path="url(#clip300)" d="M2205.19 330.354 Q2205.19 327.801 2205.94 326.067 Q2206.69 324.311 2208.26 322.577 Q2211.14 319.556 2215.31 319.556 Q2217.09 319.556 2218.66 320.305 Q2220.25 321.055 2221.75 322.765 Q2223.27 324.451 2224.19 327.801 Q2225.1 331.126 2225.1 335.717 Q2225.1 343.142 2221.49 347.85 Q2217.91 352.558 2213.06 352.558 Q2209.99 352.558 2208.19 351.176 Q2206.39 349.771 2206.39 347.382 Q2206.39 346.14 2207.09 345.625 Q2207.79 345.086 2208.59 345.086 Q2209.45 345.086 2210.13 345.672 Q2210.81 346.234 2210.81 347.288 Q2210.81 348.155 2210.25 348.834 Q2209.71 349.49 2208.31 349.49 Q2209.69 351.223 2213.01 351.223 Q2214.21 351.223 2215.4 350.684 Q2216.6 350.122 2217.89 348.787 Q2219.2 347.429 2219.99 344.594 Q2220.79 341.76 2220.79 337.778 L2220.79 336.256 Q2218.87 341.058 2214.79 341.058 Q2210.77 341.058 2207.98 337.966 Q2205.19 334.874 2205.19 330.354 M2209.5 330.4 Q2209.5 335.155 2210.37 336.912 Q2211.84 339.933 2214.84 339.933 Q2217.77 339.933 2219.22 337.333 Q2220.7 334.71 2220.7 331.314 Q2220.7 326.606 2219.92 324.545 Q2218.5 320.75 2215.31 320.75 Q2212.15 320.75 2210.51 323.772 Q2209.5 325.552 2209.5 330.4 Z" fill="#000000" fill-rule="evenodd" fill-opacity="1" /><path clip-path="url(#clip300)" d="M2227.44 328.948 L2229.01 319.087 L2230.2 319.087 Q2230.34 319.673 2230.58 319.931 Q2230.84 320.188 2232.19 320.399 Q2233.58 320.61 2236.36 320.61 L2248 320.61 Q2248 321.711 2247.58 322.296 L2241.09 331.408 Q2239.03 334.289 2238.12 339.605 Q2237.58 343.166 2237.6 347.475 L2237.6 349.911 Q2237.6 352.558 2235.38 352.558 Q2233.18 352.558 2233.18 349.911 Q2233.18 340.753 2239.08 331.876 Q2239.71 330.963 2242.03 327.707 Q2244.37 324.451 2244.47 324.311 L2234.54 324.311 Q2230.18 324.311 2229.83 324.592 Q2229.36 325.013 2228.63 328.948 L2227.44 328.948 Z" fill="#000000" fill-rule="evenodd" fill-opacity="1" /><path clip-path="url(#clip300)" d="M2296.17 338.832 Q2296.46 339.114 2296.46 339.512 Q2296.46 339.91 2296.17 340.191 Q2295.89 340.472 2295.5 340.472 L2265.47 340.472 Q2265.07 340.472 2264.79 340.191 Q2264.51 339.91 2264.51 339.512 Q2264.51 339.114 2264.79 338.832 Q2265.07 338.551 2265.47 338.551 L2295.5 338.551 Q2295.89 338.551 2296.17 338.832 Z" fill="#000000" fill-rule="evenodd" fill-opacity="1" /><path clip-path="url(#clip300)" d="M2314.78 343.587 L2314.78 342.112 L2329.51 319.603 Q2329.88 319.017 2330.47 319.041 Q2331.01 319.041 2331.12 319.251 Q2331.24 319.462 2331.24 320.282 L2331.24 342.112 L2336.04 342.112 L2336.04 343.587 L2331.24 343.587 L2331.24 347.756 Q2331.24 349.138 2331.8 349.583 Q2332.39 350.028 2334.87 350.028 L2335.88 350.028 L2335.88 351.504 Q2333.91 351.363 2329.37 351.363 Q2324.85 351.363 2322.88 351.504 L2322.88 350.028 L2323.89 350.028 Q2326.37 350.028 2326.96 349.607 Q2327.54 349.162 2327.54 347.756 L2327.54 343.587 L2314.78 343.587 M2316.13 342.112 L2327.82 342.112 L2327.82 324.217 L2316.13 342.112 Z" fill="#000000" fill-rule="evenodd" fill-opacity="1" /><path clip-path="url(#clip300)" d="M2356.18 337.732 Q2356.93 338.481 2356.93 339.512 Q2356.93 340.542 2356.18 341.315 Q2355.43 342.065 2354.4 342.065 Q2353.37 342.065 2352.59 341.315 Q2351.84 340.542 2351.84 339.512 Q2351.84 338.481 2352.59 337.732 Q2353.37 336.959 2354.4 336.959 Q2355.43 336.959 2356.18 337.732 Z" fill="#000000" fill-rule="evenodd" fill-opacity="1" /><path clip-path="url(#clip300)" d="M2402.25 333.469 Q2402.25 334.78 2401.43 335.53 Q2400.61 336.256 2399.67 336.256 Q2398.78 336.256 2398.31 335.741 Q2397.84 335.225 2397.84 334.57 Q2397.84 333.68 2398.5 332.907 Q2399.15 332.134 2400.14 331.97 Q2399.18 331.361 2397.75 331.361 Q2396.81 331.361 2395.99 331.853 Q2395.2 332.344 2394.7 332.977 Q2394.24 333.609 2393.81 334.523 Q2393.42 335.413 2393.25 335.952 Q2393.11 336.467 2392.99 337.029 L2391.35 343.587 Q2390.56 346.702 2390.56 347.803 Q2390.56 349.162 2391.21 350.075 Q2391.87 350.965 2393.18 350.965 Q2393.7 350.965 2394.28 350.825 Q2394.87 350.661 2395.62 350.239 Q2396.39 349.794 2397.07 349.138 Q2397.77 348.459 2398.45 347.311 Q2399.13 346.164 2399.58 344.688 Q2399.72 344.173 2400.18 344.173 Q2400.77 344.173 2400.77 344.641 Q2400.77 345.039 2400.44 345.883 Q2400.14 346.702 2399.46 347.78 Q2398.8 348.834 2397.94 349.794 Q2397.07 350.731 2395.78 351.387 Q2394.49 352.043 2393.09 352.043 Q2391.07 352.043 2389.74 350.965 Q2388.4 349.888 2387.91 348.389 Q2387.79 348.6 2387.63 348.881 Q2387.47 349.162 2386.97 349.794 Q2386.51 350.403 2385.97 350.872 Q2385.43 351.317 2384.59 351.668 Q2383.77 352.043 2382.88 352.043 Q2381.75 352.043 2380.74 351.715 Q2379.76 351.387 2379.06 350.637 Q2378.35 349.888 2378.35 348.857 Q2378.35 347.71 2379.13 346.913 Q2379.92 346.093 2381 346.093 Q2381.68 346.093 2382.22 346.492 Q2382.78 346.89 2382.78 347.756 Q2382.78 348.717 2382.13 349.443 Q2381.47 350.169 2380.53 350.356 Q2381.49 350.965 2382.92 350.965 Q2384.47 350.965 2385.69 349.607 Q2386.9 348.248 2387.49 345.976 Q2388.94 340.519 2389.5 338.083 Q2390.07 335.624 2390.07 334.57 Q2390.07 333.586 2389.81 332.907 Q2389.55 332.227 2389.11 331.923 Q2388.68 331.595 2388.29 331.478 Q2387.91 331.361 2387.49 331.361 Q2386.79 331.361 2385.99 331.642 Q2385.22 331.923 2384.28 332.579 Q2383.37 333.211 2382.5 334.523 Q2381.63 335.834 2381.05 337.638 Q2380.93 338.177 2380.42 338.177 Q2379.85 338.153 2379.85 337.685 Q2379.85 337.287 2380.16 336.467 Q2380.49 335.624 2381.14 334.57 Q2381.82 333.516 2382.69 332.579 Q2383.58 331.618 2384.87 330.963 Q2386.18 330.307 2387.58 330.307 Q2388.22 330.307 2388.82 330.447 Q2389.46 330.564 2390.21 330.916 Q2390.98 331.267 2391.66 332.04 Q2392.34 332.813 2392.76 333.937 Q2393.04 333.398 2393.42 332.883 Q2393.81 332.368 2394.42 331.735 Q2395.06 331.08 2395.92 330.705 Q2396.81 330.307 2397.8 330.307 Q2398.76 330.307 2399.69 330.564 Q2400.63 330.799 2401.43 331.572 Q2402.25 332.321 2402.25 333.469 Z" fill="#000000" fill-rule="evenodd" fill-opacity="1" /></svg>
