<?xml version="1.0" encoding="utf-8"?>
<svg xmlns="http://www.w3.org/2000/svg" xmlns:xlink="http://www.w3.org/1999/xlink" width="672" height="480" viewBox="0 0 2688 1920">
<defs>
  <clipPath id="clip190">
    <rect x="0" y="0" width="2688" height="1920"/>
  </clipPath>
</defs>
<path clip-path="url(#clip190)" d="
M0 1920 L2688 1920 L2688 0 L0 0  Z
  " fill="#ffffff" fill-rule="evenodd" fill-opacity="1"/>
<defs>
  <clipPath id="clip191">
    <rect x="537" y="0" width="1883" height="1883"/>
  </clipPath>
</defs>
<defs>
  <clipPath id="clip192">
    <rect x="152" y="47" width="2490" height="1755"/>
  </clipPath>
</defs>
<path clip-path="url(#clip190)" d="
M196.816 1535 L2640.76 1535 L2640.76 313.027 L196.816 313.027  Z
  " fill="#ffffff" fill-rule="evenodd" fill-opacity="1"/>
<defs>
  <clipPath id="clip193">
    <rect x="196" y="313" width="2445" height="1223"/>
  </clipPath>
</defs>
<polyline clip-path="url(#clip193)" style="stroke:#000000; stroke-linecap:round; stroke-linejoin:round; stroke-width:2; stroke-opacity:0.1; fill:none" points="
  196.816,1535 196.816,313.027 
  "/>
<polyline clip-path="url(#clip193)" style="stroke:#000000; stroke-linecap:round; stroke-linejoin:round; stroke-width:2; stroke-opacity:0.1; fill:none" points="
  604.139,1535 604.139,313.027 
  "/>
<polyline clip-path="url(#clip193)" style="stroke:#000000; stroke-linecap:round; stroke-linejoin:round; stroke-width:2; stroke-opacity:0.1; fill:none" points="
  1011.46,1535 1011.46,313.027 
  "/>
<polyline clip-path="url(#clip193)" style="stroke:#000000; stroke-linecap:round; stroke-linejoin:round; stroke-width:2; stroke-opacity:0.1; fill:none" points="
  1418.79,1535 1418.79,313.027 
  "/>
<polyline clip-path="url(#clip193)" style="stroke:#000000; stroke-linecap:round; stroke-linejoin:round; stroke-width:2; stroke-opacity:0.1; fill:none" points="
  1826.11,1535 1826.11,313.027 
  "/>
<polyline clip-path="url(#clip193)" style="stroke:#000000; stroke-linecap:round; stroke-linejoin:round; stroke-width:2; stroke-opacity:0.1; fill:none" points="
  2233.43,1535 2233.43,313.027 
  "/>
<polyline clip-path="url(#clip193)" style="stroke:#000000; stroke-linecap:round; stroke-linejoin:round; stroke-width:2; stroke-opacity:0.1; fill:none" points="
  2640.76,1535 2640.76,313.027 
  "/>
<polyline clip-path="url(#clip190)" style="stroke:#000000; stroke-linecap:round; stroke-linejoin:round; stroke-width:4; stroke-opacity:1; fill:none" points="
  196.816,1535 2640.76,1535 
  "/>
<polyline clip-path="url(#clip190)" style="stroke:#000000; stroke-linecap:round; stroke-linejoin:round; stroke-width:4; stroke-opacity:1; fill:none" points="
  196.816,1535 196.816,1521.83 
  "/>
<polyline clip-path="url(#clip190)" style="stroke:#000000; stroke-linecap:round; stroke-linejoin:round; stroke-width:4; stroke-opacity:1; fill:none" points="
  604.139,1535 604.139,1521.83 
  "/>
<polyline clip-path="url(#clip190)" style="stroke:#000000; stroke-linecap:round; stroke-linejoin:round; stroke-width:4; stroke-opacity:1; fill:none" points="
  1011.46,1535 1011.46,1521.83 
  "/>
<polyline clip-path="url(#clip190)" style="stroke:#000000; stroke-linecap:round; stroke-linejoin:round; stroke-width:4; stroke-opacity:1; fill:none" points="
  1418.79,1535 1418.79,1521.83 
  "/>
<polyline clip-path="url(#clip190)" style="stroke:#000000; stroke-linecap:round; stroke-linejoin:round; stroke-width:4; stroke-opacity:1; fill:none" points="
  1826.11,1535 1826.11,1521.83 
  "/>
<polyline clip-path="url(#clip190)" style="stroke:#000000; stroke-linecap:round; stroke-linejoin:round; stroke-width:4; stroke-opacity:1; fill:none" points="
  2233.43,1535 2233.43,1521.83 
  "/>
<polyline clip-path="url(#clip190)" style="stroke:#000000; stroke-linecap:round; stroke-linejoin:round; stroke-width:4; stroke-opacity:1; fill:none" points="
  2640.76,1535 2640.76,1521.83 
  "/>
<path clip-path="url(#clip190)" d="M166.284 1582.87 L195.96 1582.87 L195.96 1586.81 L166.284 1586.81 L166.284 1582.87 Z" fill="#000000" fill-rule="evenodd" fill-opacity="1" /><path clip-path="url(#clip190)" d="M220.219 1581.07 Q223.575 1581.78 225.45 1584.05 Q227.348 1586.32 227.348 1589.65 Q227.348 1594.77 223.83 1597.57 Q220.311 1600.37 213.83 1600.37 Q211.654 1600.37 209.339 1599.93 Q207.047 1599.52 204.594 1598.66 L204.594 1594.15 Q206.538 1595.28 208.853 1595.86 Q211.168 1596.44 213.691 1596.44 Q218.089 1596.44 220.381 1594.7 Q222.695 1592.96 222.695 1589.65 Q222.695 1586.6 220.543 1584.89 Q218.413 1583.15 214.594 1583.15 L210.566 1583.15 L210.566 1579.31 L214.779 1579.31 Q218.228 1579.31 220.057 1577.94 Q221.885 1576.55 221.885 1573.96 Q221.885 1571.3 219.987 1569.89 Q218.112 1568.45 214.594 1568.45 Q212.672 1568.45 210.473 1568.87 Q208.274 1569.28 205.635 1570.16 L205.635 1566 Q208.297 1565.26 210.612 1564.89 Q212.95 1564.52 215.01 1564.52 Q220.334 1564.52 223.436 1566.95 Q226.538 1569.35 226.538 1573.47 Q226.538 1576.34 224.895 1578.34 Q223.251 1580.3 220.219 1581.07 Z" fill="#000000" fill-rule="evenodd" fill-opacity="1" /><path clip-path="url(#clip190)" d="M574.082 1582.87 L603.757 1582.87 L603.757 1586.81 L574.082 1586.81 L574.082 1582.87 Z" fill="#000000" fill-rule="evenodd" fill-opacity="1" /><path clip-path="url(#clip190)" d="M617.878 1595.77 L634.197 1595.77 L634.197 1599.7 L612.253 1599.7 L612.253 1595.77 Q614.915 1593.01 619.498 1588.38 Q624.104 1583.73 625.285 1582.39 Q627.53 1579.86 628.41 1578.13 Q629.313 1576.37 629.313 1574.68 Q629.313 1571.92 627.368 1570.19 Q625.447 1568.45 622.345 1568.45 Q620.146 1568.45 617.692 1569.21 Q615.262 1569.98 612.484 1571.53 L612.484 1566.81 Q615.308 1565.67 617.762 1565.09 Q620.216 1564.52 622.253 1564.52 Q627.623 1564.52 630.817 1567.2 Q634.012 1569.89 634.012 1574.38 Q634.012 1576.51 633.202 1578.43 Q632.415 1580.33 630.308 1582.92 Q629.729 1583.59 626.628 1586.81 Q623.526 1590 617.878 1595.77 Z" fill="#000000" fill-rule="evenodd" fill-opacity="1" /><path clip-path="url(#clip190)" d="M981.22 1582.87 L1010.9 1582.87 L1010.9 1586.81 L981.22 1586.81 L981.22 1582.87 Z" fill="#000000" fill-rule="evenodd" fill-opacity="1" /><path clip-path="url(#clip190)" d="M1021.8 1595.77 L1029.44 1595.77 L1029.44 1569.4 L1021.13 1571.07 L1021.13 1566.81 L1029.39 1565.14 L1034.07 1565.14 L1034.07 1595.77 L1041.71 1595.77 L1041.71 1599.7 L1021.8 1599.7 L1021.8 1595.77 Z" fill="#000000" fill-rule="evenodd" fill-opacity="1" /><path clip-path="url(#clip190)" d="M1418.79 1568.22 Q1415.17 1568.22 1413.35 1571.78 Q1411.54 1575.33 1411.54 1582.46 Q1411.54 1589.56 1413.35 1593.13 Q1415.17 1596.67 1418.79 1596.67 Q1422.42 1596.67 1424.23 1593.13 Q1426.05 1589.56 1426.05 1582.46 Q1426.05 1575.33 1424.23 1571.78 Q1422.42 1568.22 1418.79 1568.22 M1418.79 1564.52 Q1424.6 1564.52 1427.65 1569.12 Q1430.73 1573.71 1430.73 1582.46 Q1430.73 1591.18 1427.65 1595.79 Q1424.6 1600.37 1418.79 1600.37 Q1412.98 1600.37 1409.9 1595.79 Q1406.84 1591.18 1406.84 1582.46 Q1406.84 1573.71 1409.9 1569.12 Q1412.98 1564.52 1418.79 1564.52 Z" fill="#000000" fill-rule="evenodd" fill-opacity="1" /><path clip-path="url(#clip190)" d="M1816.49 1595.77 L1824.13 1595.77 L1824.13 1569.4 L1815.82 1571.07 L1815.82 1566.81 L1824.08 1565.14 L1828.76 1565.14 L1828.76 1595.77 L1836.4 1595.77 L1836.4 1599.7 L1816.49 1599.7 L1816.49 1595.77 Z" fill="#000000" fill-rule="evenodd" fill-opacity="1" /><path clip-path="url(#clip190)" d="M2228.09 1595.77 L2244.4 1595.77 L2244.4 1599.7 L2222.46 1599.7 L2222.46 1595.77 Q2225.12 1593.01 2229.71 1588.38 Q2234.31 1583.73 2235.49 1582.39 Q2237.74 1579.86 2238.62 1578.13 Q2239.52 1576.37 2239.52 1574.68 Q2239.52 1571.92 2237.58 1570.19 Q2235.65 1568.45 2232.55 1568.45 Q2230.35 1568.45 2227.9 1569.21 Q2225.47 1569.98 2222.69 1571.53 L2222.69 1566.81 Q2225.52 1565.67 2227.97 1565.09 Q2230.42 1564.52 2232.46 1564.52 Q2237.83 1564.52 2241.03 1567.2 Q2244.22 1569.89 2244.22 1574.38 Q2244.22 1576.51 2243.41 1578.43 Q2242.62 1580.33 2240.52 1582.92 Q2239.94 1583.59 2236.84 1586.81 Q2233.73 1590 2228.09 1595.77 Z" fill="#000000" fill-rule="evenodd" fill-opacity="1" /><path clip-path="url(#clip190)" d="M2645 1581.07 Q2648.36 1581.78 2650.24 1584.05 Q2652.13 1586.32 2652.13 1589.65 Q2652.13 1594.77 2648.61 1597.57 Q2645.1 1600.37 2638.61 1600.37 Q2636.44 1600.37 2634.12 1599.93 Q2631.83 1599.52 2629.38 1598.66 L2629.38 1594.15 Q2631.32 1595.28 2633.64 1595.86 Q2635.95 1596.44 2638.48 1596.44 Q2642.87 1596.44 2645.17 1594.7 Q2647.48 1592.96 2647.48 1589.65 Q2647.48 1586.6 2645.33 1584.89 Q2643.2 1583.15 2639.38 1583.15 L2635.35 1583.15 L2635.35 1579.31 L2639.56 1579.31 Q2643.01 1579.31 2644.84 1577.94 Q2646.67 1576.55 2646.67 1573.96 Q2646.67 1571.3 2644.77 1569.89 Q2642.9 1568.45 2639.38 1568.45 Q2637.46 1568.45 2635.26 1568.87 Q2633.06 1569.28 2630.42 1570.16 L2630.42 1566 Q2633.08 1565.26 2635.4 1564.89 Q2637.74 1564.52 2639.8 1564.52 Q2645.12 1564.52 2648.22 1566.95 Q2651.32 1569.35 2651.32 1573.47 Q2651.32 1576.34 2649.68 1578.34 Q2648.04 1580.3 2645 1581.07 Z" fill="#000000" fill-rule="evenodd" fill-opacity="1" /><polyline clip-path="url(#clip193)" style="stroke:#000000; stroke-linecap:round; stroke-linejoin:round; stroke-width:2; stroke-opacity:0.1; fill:none" points="
  196.816,1535 2640.76,1535 
  "/>
<polyline clip-path="url(#clip193)" style="stroke:#000000; stroke-linecap:round; stroke-linejoin:round; stroke-width:2; stroke-opacity:0.1; fill:none" points="
  196.816,1331.34 2640.76,1331.34 
  "/>
<polyline clip-path="url(#clip193)" style="stroke:#000000; stroke-linecap:round; stroke-linejoin:round; stroke-width:2; stroke-opacity:0.1; fill:none" points="
  196.816,1127.67 2640.76,1127.67 
  "/>
<polyline clip-path="url(#clip193)" style="stroke:#000000; stroke-linecap:round; stroke-linejoin:round; stroke-width:2; stroke-opacity:0.1; fill:none" points="
  196.816,924.012 2640.76,924.012 
  "/>
<polyline clip-path="url(#clip193)" style="stroke:#000000; stroke-linecap:round; stroke-linejoin:round; stroke-width:2; stroke-opacity:0.1; fill:none" points="
  196.816,720.35 2640.76,720.35 
  "/>
<polyline clip-path="url(#clip193)" style="stroke:#000000; stroke-linecap:round; stroke-linejoin:round; stroke-width:2; stroke-opacity:0.1; fill:none" points="
  196.816,516.688 2640.76,516.688 
  "/>
<polyline clip-path="url(#clip193)" style="stroke:#000000; stroke-linecap:round; stroke-linejoin:round; stroke-width:2; stroke-opacity:0.1; fill:none" points="
  196.816,313.027 2640.76,313.027 
  "/>
<polyline clip-path="url(#clip190)" style="stroke:#000000; stroke-linecap:round; stroke-linejoin:round; stroke-width:4; stroke-opacity:1; fill:none" points="
  196.816,1535 196.816,313.027 
  "/>
<polyline clip-path="url(#clip190)" style="stroke:#000000; stroke-linecap:round; stroke-linejoin:round; stroke-width:4; stroke-opacity:1; fill:none" points="
  196.816,1535 215.714,1535 
  "/>
<polyline clip-path="url(#clip190)" style="stroke:#000000; stroke-linecap:round; stroke-linejoin:round; stroke-width:4; stroke-opacity:1; fill:none" points="
  196.816,1331.34 215.714,1331.34 
  "/>
<polyline clip-path="url(#clip190)" style="stroke:#000000; stroke-linecap:round; stroke-linejoin:round; stroke-width:4; stroke-opacity:1; fill:none" points="
  196.816,1127.67 215.714,1127.67 
  "/>
<polyline clip-path="url(#clip190)" style="stroke:#000000; stroke-linecap:round; stroke-linejoin:round; stroke-width:4; stroke-opacity:1; fill:none" points="
  196.816,924.012 215.714,924.012 
  "/>
<polyline clip-path="url(#clip190)" style="stroke:#000000; stroke-linecap:round; stroke-linejoin:round; stroke-width:4; stroke-opacity:1; fill:none" points="
  196.816,720.35 215.714,720.35 
  "/>
<polyline clip-path="url(#clip190)" style="stroke:#000000; stroke-linecap:round; stroke-linejoin:round; stroke-width:4; stroke-opacity:1; fill:none" points="
  196.816,516.688 215.714,516.688 
  "/>
<polyline clip-path="url(#clip190)" style="stroke:#000000; stroke-linecap:round; stroke-linejoin:round; stroke-width:4; stroke-opacity:1; fill:none" points="
  196.816,313.027 215.714,313.027 
  "/>
<path clip-path="url(#clip190)" d="M50.5475 1535.45 L80.2233 1535.45 L80.2233 1539.38 L50.5475 1539.38 L50.5475 1535.45 Z" fill="#000000" fill-rule="evenodd" fill-opacity="1" /><path clip-path="url(#clip190)" d="M91.126 1548.34 L98.7648 1548.34 L98.7648 1521.98 L90.4547 1523.64 L90.4547 1519.38 L98.7185 1517.72 L103.394 1517.72 L103.394 1548.34 L111.033 1548.34 L111.033 1552.28 L91.126 1552.28 L91.126 1548.34 Z" fill="#000000" fill-rule="evenodd" fill-opacity="1" /><path clip-path="url(#clip190)" d="M120.478 1546.4 L125.362 1546.4 L125.362 1552.28 L120.478 1552.28 L120.478 1546.4 Z" fill="#000000" fill-rule="evenodd" fill-opacity="1" /><path clip-path="url(#clip190)" d="M135.593 1517.72 L153.95 1517.72 L153.95 1521.65 L139.876 1521.65 L139.876 1530.12 Q140.894 1529.78 141.913 1529.61 Q142.931 1529.43 143.95 1529.43 Q149.737 1529.43 153.116 1532.6 Q156.496 1535.77 156.496 1541.19 Q156.496 1546.77 153.024 1549.87 Q149.552 1552.95 143.232 1552.95 Q141.056 1552.95 138.788 1552.58 Q136.542 1552.21 134.135 1551.47 L134.135 1546.77 Q136.218 1547.9 138.441 1548.46 Q140.663 1549.01 143.14 1549.01 Q147.144 1549.01 149.482 1546.91 Q151.82 1544.8 151.82 1541.19 Q151.82 1537.58 149.482 1535.47 Q147.144 1533.36 143.14 1533.36 Q141.265 1533.36 139.39 1533.78 Q137.538 1534.2 135.593 1535.08 L135.593 1517.72 Z" fill="#000000" fill-rule="evenodd" fill-opacity="1" /><path clip-path="url(#clip190)" d="M49.5521 1331.79 L79.2279 1331.79 L79.2279 1335.72 L49.5521 1335.72 L49.5521 1331.79 Z" fill="#000000" fill-rule="evenodd" fill-opacity="1" /><path clip-path="url(#clip190)" d="M90.1306 1344.68 L97.7695 1344.68 L97.7695 1318.31 L89.4593 1319.98 L89.4593 1315.72 L97.7232 1314.06 L102.399 1314.06 L102.399 1344.68 L110.038 1344.68 L110.038 1348.62 L90.1306 1348.62 L90.1306 1344.68 Z" fill="#000000" fill-rule="evenodd" fill-opacity="1" /><path clip-path="url(#clip190)" d="M119.482 1342.74 L124.367 1342.74 L124.367 1348.62 L119.482 1348.62 L119.482 1342.74 Z" fill="#000000" fill-rule="evenodd" fill-opacity="1" /><path clip-path="url(#clip190)" d="M144.552 1317.13 Q140.941 1317.13 139.112 1320.7 Q137.306 1324.24 137.306 1331.37 Q137.306 1338.48 139.112 1342.04 Q140.941 1345.58 144.552 1345.58 Q148.186 1345.58 149.991 1342.04 Q151.82 1338.48 151.82 1331.37 Q151.82 1324.24 149.991 1320.7 Q148.186 1317.13 144.552 1317.13 M144.552 1313.43 Q150.362 1313.43 153.417 1318.04 Q156.496 1322.62 156.496 1331.37 Q156.496 1340.1 153.417 1344.7 Q150.362 1349.29 144.552 1349.29 Q138.741 1349.29 135.663 1344.7 Q132.607 1340.1 132.607 1331.37 Q132.607 1322.62 135.663 1318.04 Q138.741 1313.43 144.552 1313.43 Z" fill="#000000" fill-rule="evenodd" fill-opacity="1" /><path clip-path="url(#clip190)" d="M50.5475 1128.12 L80.2233 1128.12 L80.2233 1132.06 L50.5475 1132.06 L50.5475 1128.12 Z" fill="#000000" fill-rule="evenodd" fill-opacity="1" /><path clip-path="url(#clip190)" d="M100.316 1113.47 Q96.7047 1113.47 94.876 1117.04 Q93.0704 1120.58 93.0704 1127.71 Q93.0704 1134.81 94.876 1138.38 Q96.7047 1141.92 100.316 1141.92 Q103.95 1141.92 105.756 1138.38 Q107.584 1134.81 107.584 1127.71 Q107.584 1120.58 105.756 1117.04 Q103.95 1113.47 100.316 1113.47 M100.316 1109.77 Q106.126 1109.77 109.181 1114.37 Q112.26 1118.96 112.26 1127.71 Q112.26 1136.43 109.181 1141.04 Q106.126 1145.62 100.316 1145.62 Q94.5056 1145.62 91.4269 1141.04 Q88.3714 1136.43 88.3714 1127.71 Q88.3714 1118.96 91.4269 1114.37 Q94.5056 1109.77 100.316 1109.77 Z" fill="#000000" fill-rule="evenodd" fill-opacity="1" /><path clip-path="url(#clip190)" d="M120.478 1139.07 L125.362 1139.07 L125.362 1144.95 L120.478 1144.95 L120.478 1139.07 Z" fill="#000000" fill-rule="evenodd" fill-opacity="1" /><path clip-path="url(#clip190)" d="M135.593 1110.39 L153.95 1110.39 L153.95 1114.33 L139.876 1114.33 L139.876 1122.8 Q140.894 1122.45 141.913 1122.29 Q142.931 1122.11 143.95 1122.11 Q149.737 1122.11 153.116 1125.28 Q156.496 1128.45 156.496 1133.87 Q156.496 1139.44 153.024 1142.55 Q149.552 1145.62 143.232 1145.62 Q141.056 1145.62 138.788 1145.25 Q136.542 1144.88 134.135 1144.14 L134.135 1139.44 Q136.218 1140.58 138.441 1141.13 Q140.663 1141.69 143.14 1141.69 Q147.144 1141.69 149.482 1139.58 Q151.82 1137.48 151.82 1133.87 Q151.82 1130.25 149.482 1128.15 Q147.144 1126.04 143.14 1126.04 Q141.265 1126.04 139.39 1126.46 Q137.538 1126.87 135.593 1127.75 L135.593 1110.39 Z" fill="#000000" fill-rule="evenodd" fill-opacity="1" /><path clip-path="url(#clip190)" d="M99.3204 909.81 Q95.7093 909.81 93.8806 913.375 Q92.075 916.917 92.075 924.046 Q92.075 931.153 93.8806 934.718 Q95.7093 938.259 99.3204 938.259 Q102.955 938.259 104.76 934.718 Q106.589 931.153 106.589 924.046 Q106.589 916.917 104.76 913.375 Q102.955 909.81 99.3204 909.81 M99.3204 906.107 Q105.131 906.107 108.186 910.713 Q111.265 915.296 111.265 924.046 Q111.265 932.773 108.186 937.38 Q105.131 941.963 99.3204 941.963 Q93.5102 941.963 90.4315 937.38 Q87.376 932.773 87.376 924.046 Q87.376 915.296 90.4315 910.713 Q93.5102 906.107 99.3204 906.107 Z" fill="#000000" fill-rule="evenodd" fill-opacity="1" /><path clip-path="url(#clip190)" d="M119.482 935.412 L124.367 935.412 L124.367 941.292 L119.482 941.292 L119.482 935.412 Z" fill="#000000" fill-rule="evenodd" fill-opacity="1" /><path clip-path="url(#clip190)" d="M144.552 909.81 Q140.941 909.81 139.112 913.375 Q137.306 916.917 137.306 924.046 Q137.306 931.153 139.112 934.718 Q140.941 938.259 144.552 938.259 Q148.186 938.259 149.991 934.718 Q151.82 931.153 151.82 924.046 Q151.82 916.917 149.991 913.375 Q148.186 909.81 144.552 909.81 M144.552 906.107 Q150.362 906.107 153.417 910.713 Q156.496 915.296 156.496 924.046 Q156.496 932.773 153.417 937.38 Q150.362 941.963 144.552 941.963 Q138.741 941.963 135.663 937.38 Q132.607 932.773 132.607 924.046 Q132.607 915.296 135.663 910.713 Q138.741 906.107 144.552 906.107 Z" fill="#000000" fill-rule="evenodd" fill-opacity="1" /><path clip-path="url(#clip190)" d="M100.316 706.149 Q96.7047 706.149 94.876 709.714 Q93.0704 713.255 93.0704 720.385 Q93.0704 727.491 94.876 731.056 Q96.7047 734.598 100.316 734.598 Q103.95 734.598 105.756 731.056 Q107.584 727.491 107.584 720.385 Q107.584 713.255 105.756 709.714 Q103.95 706.149 100.316 706.149 M100.316 702.445 Q106.126 702.445 109.181 707.051 Q112.26 711.635 112.26 720.385 Q112.26 729.112 109.181 733.718 Q106.126 738.301 100.316 738.301 Q94.5056 738.301 91.4269 733.718 Q88.3714 729.112 88.3714 720.385 Q88.3714 711.635 91.4269 707.051 Q94.5056 702.445 100.316 702.445 Z" fill="#000000" fill-rule="evenodd" fill-opacity="1" /><path clip-path="url(#clip190)" d="M120.478 731.75 L125.362 731.75 L125.362 737.63 L120.478 737.63 L120.478 731.75 Z" fill="#000000" fill-rule="evenodd" fill-opacity="1" /><path clip-path="url(#clip190)" d="M135.593 703.07 L153.95 703.07 L153.95 707.005 L139.876 707.005 L139.876 715.477 Q140.894 715.13 141.913 714.968 Q142.931 714.783 143.95 714.783 Q149.737 714.783 153.116 717.954 Q156.496 721.125 156.496 726.542 Q156.496 732.121 153.024 735.223 Q149.552 738.301 143.232 738.301 Q141.056 738.301 138.788 737.931 Q136.542 737.561 134.135 736.82 L134.135 732.121 Q136.218 733.255 138.441 733.811 Q140.663 734.366 143.14 734.366 Q147.144 734.366 149.482 732.26 Q151.82 730.153 151.82 726.542 Q151.82 722.931 149.482 720.825 Q147.144 718.718 143.14 718.718 Q141.265 718.718 139.39 719.135 Q137.538 719.551 135.593 720.431 L135.593 703.07 Z" fill="#000000" fill-rule="evenodd" fill-opacity="1" /><path clip-path="url(#clip190)" d="M90.1306 530.033 L97.7695 530.033 L97.7695 503.668 L89.4593 505.334 L89.4593 501.075 L97.7232 499.408 L102.399 499.408 L102.399 530.033 L110.038 530.033 L110.038 533.968 L90.1306 533.968 L90.1306 530.033 Z" fill="#000000" fill-rule="evenodd" fill-opacity="1" /><path clip-path="url(#clip190)" d="M119.482 528.089 L124.367 528.089 L124.367 533.968 L119.482 533.968 L119.482 528.089 Z" fill="#000000" fill-rule="evenodd" fill-opacity="1" /><path clip-path="url(#clip190)" d="M144.552 502.487 Q140.941 502.487 139.112 506.052 Q137.306 509.594 137.306 516.723 Q137.306 523.83 139.112 527.394 Q140.941 530.936 144.552 530.936 Q148.186 530.936 149.991 527.394 Q151.82 523.83 151.82 516.723 Q151.82 509.594 149.991 506.052 Q148.186 502.487 144.552 502.487 M144.552 498.783 Q150.362 498.783 153.417 503.39 Q156.496 507.973 156.496 516.723 Q156.496 525.45 153.417 530.056 Q150.362 534.64 144.552 534.64 Q138.741 534.64 135.663 530.056 Q132.607 525.45 132.607 516.723 Q132.607 507.973 135.663 503.39 Q138.741 498.783 144.552 498.783 Z" fill="#000000" fill-rule="evenodd" fill-opacity="1" /><path clip-path="url(#clip190)" d="M91.126 326.372 L98.7648 326.372 L98.7648 300.006 L90.4547 301.673 L90.4547 297.413 L98.7185 295.747 L103.394 295.747 L103.394 326.372 L111.033 326.372 L111.033 330.307 L91.126 330.307 L91.126 326.372 Z" fill="#000000" fill-rule="evenodd" fill-opacity="1" /><path clip-path="url(#clip190)" d="M120.478 324.427 L125.362 324.427 L125.362 330.307 L120.478 330.307 L120.478 324.427 Z" fill="#000000" fill-rule="evenodd" fill-opacity="1" /><path clip-path="url(#clip190)" d="M135.593 295.747 L153.95 295.747 L153.95 299.682 L139.876 299.682 L139.876 308.154 Q140.894 307.807 141.913 307.645 Q142.931 307.46 143.95 307.46 Q149.737 307.46 153.116 310.631 Q156.496 313.802 156.496 319.219 Q156.496 324.797 153.024 327.899 Q149.552 330.978 143.232 330.978 Q141.056 330.978 138.788 330.608 Q136.542 330.237 134.135 329.497 L134.135 324.797 Q136.218 325.932 138.441 326.487 Q140.663 327.043 143.14 327.043 Q147.144 327.043 149.482 324.936 Q151.82 322.83 151.82 319.219 Q151.82 315.608 149.482 313.501 Q147.144 311.395 143.14 311.395 Q141.265 311.395 139.39 311.811 Q137.538 312.228 135.593 313.108 L135.593 295.747 Z" fill="#000000" fill-rule="evenodd" fill-opacity="1" /><polyline clip-path="url(#clip193)" style="stroke:#1e90ff; stroke-linecap:round; stroke-linejoin:round; stroke-width:4; stroke-opacity:1; fill:none" points="
  1375.04,870.417 1377.54,873.479 1378.97,875.351 1380.04,876.542 1382.6,879.604 1385,882.667 1385.1,882.804 1387.64,885.729 1390.1,888.792 1391.22,890.314 
  1392.64,891.855 1395.2,894.917 1397.35,897.779 1397.55,897.98 1400.28,901.042 1402.66,904.105 1403.47,905.322 1405.32,907.168 1407.87,910.23 1409.6,912.815 
  1410.24,913.293 1413.3,916.355 1415.34,919.418 1415.72,920.566 1421.85,920.566 1422.23,919.418 1424.27,916.355 1427.34,913.293 1427.97,912.815 1429.7,910.23 
  1432.25,907.168 1434.1,905.322 1434.91,904.105 1437.3,901.042 1440.02,897.98 1440.22,897.779 1442.38,894.917 1444.93,891.855 1446.35,890.314 1447.47,888.792 
  1449.93,885.729 1452.47,882.804 1452.57,882.667 1454.97,879.604 1457.54,876.542 1458.6,875.351 1460.04,873.479 1462.53,870.417 1464.72,867.88 1465.12,867.354 
  1467.57,864.291 1470.15,861.229 1470.85,860.435 1472.64,858.166 1475.16,855.104 1476.97,853.002 1477.72,852.041 1480.21,848.978 1482.8,845.916 1483.1,845.577 
  1485.29,842.853 1487.84,839.791 1489.23,838.186 1490.38,836.728 1492.91,833.666 1495.35,830.796 1495.5,830.603 1498,827.54 1500.58,824.478 1501.48,823.446 
  1503.12,821.415 1505.68,818.353 1507.6,816.11 1508.26,815.29 1510.8,812.227 1513.4,809.165 1513.73,808.796 1515.94,806.102 1518.53,803.04 1519.85,801.519 
  1521.12,799.977 1523.69,796.915 1525.98,794.259 1526.31,793.852 1528.87,790.789 1531.5,787.727 1532.1,787.037 1534.08,784.664 1536.7,781.602 1538.23,779.847 
  1539.32,778.539 1541.92,775.477 1544.35,772.683 1544.58,772.414 1547.18,769.351 1549.84,766.289 1550.48,765.564 1552.46,763.226 1555.12,760.164 1556.6,758.481 
  1557.78,757.101 1560.43,754.038 1562.73,751.432 1563.12,750.976 1565.77,747.913 1568.47,744.851 1568.85,744.428 1571.14,741.788 1573.85,738.726 1574.98,737.47 
  1576.55,735.663 1579.26,732.6 1581.1,730.553 1581.99,729.538 1584.71,726.475 1587.23,723.681 1587.46,723.413 1590.19,720.35 1592.96,717.287 1593.35,716.862 
  1595.71,714.225 1598.5,711.162 1599.48,710.096 1601.27,708.1 1604.07,705.037 1605.6,703.381 1606.88,701.975 1609.69,698.912 1611.73,696.719 1612.52,695.849 
  1615.35,692.787 1617.85,690.113 1618.21,689.724 1621.06,686.662 1623.95,683.599 1623.98,683.567 1626.82,680.536 1629.73,677.474 1630.1,677.086 1632.63,674.411 
  1635.57,671.349 1636.23,670.667 1638.5,668.286 1641.46,665.224 1642.35,664.313 1644.43,662.161 1647.42,659.098 1648.48,658.027 1650.42,656.036 1653.44,652.973 
  1654.6,651.81 1656.48,649.911 1659.54,646.848 1660.73,645.665 1662.61,643.786 1665.7,640.723 1666.86,639.595 1668.81,637.66 1671.95,634.598 1672.98,633.602 
  1675.1,631.535 1678.28,628.473 1679.11,627.687 1681.48,625.41 1684.71,622.347 1685.23,621.854 1687.95,619.285 1691.23,616.222 1691.36,616.104 1694.53,613.16 
  1697.48,610.444 1697.86,610.097 1701.21,607.035 1703.61,604.873 1704.6,603.972 1708.02,600.909 1709.73,599.393 1711.48,597.847 1714.96,594.784 1715.86,594.006 
  1718.49,591.722 1721.98,588.715 1722.05,588.659 1725.65,585.596 1728.11,583.529 1729.29,582.534 1732.98,579.471 1734.23,578.443 1736.72,576.409 1740.36,573.461 
  1740.5,573.346 1744.34,570.284 1746.48,568.592 1748.23,567.221 1752.18,564.158 1752.61,563.831 1756.2,561.096 1758.73,559.188 1760.28,558.033 1764.43,554.971 
  1764.86,554.66 1768.67,551.908 1770.98,550.258 1772.99,548.845 1777.11,545.976 1777.39,545.783 1781.91,542.72 1783.23,541.827 1786.53,539.658 1789.36,537.809 
  1791.26,536.595 1795.48,533.924 1796.12,533.533 1801.13,530.47 1801.61,530.181 1806.32,527.407 1807.73,526.583 1811.7,524.345 1813.86,523.133 1817.28,521.282 
  1819.98,519.834 1823.12,518.22 1826.11,516.691 1829.25,515.157 1832.23,513.71 1835.74,512.095 1838.36,510.895 1842.66,509.032 1844.48,508.25 1850.14,505.969 
  1850.61,505.78 1856.74,503.494 1858.44,502.907 1862.86,501.396 1867.83,499.844 1868.99,499.487 1875.11,497.781 1879.17,496.782 1881.24,496.278 1887.36,494.989 
  1893.49,493.916 1894.91,493.719 1899.61,493.073 1905.74,492.464 1911.86,492.098 1917.99,491.983 1924.11,492.13 1930.24,492.547 1936.36,493.245 1939.3,493.719 
  1942.49,494.237 1948.61,495.535 1953.35,496.782 1954.74,497.149 1960.86,499.097 1962.87,499.844 1966.99,501.392 1970.49,502.907 1973.11,504.051 1976.99,505.969 
  1979.24,507.091 1982.7,509.032 1985.36,510.533 1987.85,512.095 1991.49,514.397 1992.58,515.157 1996.93,518.22 1997.61,518.708 2000.92,521.282 2003.74,523.493 
  2004.73,524.345 2008.28,527.407 2009.86,528.781 2011.65,530.47 2014.87,533.533 2015.99,534.603 2017.91,536.595 2020.84,539.658 2022.11,540.999 2023.63,542.72 
  2026.31,545.783 2028.24,548.009 2028.92,548.845 2031.37,551.908 2033.8,554.971 2034.36,555.684 2036.09,558.033 2038.33,561.096 2040.49,564.078 2040.54,564.158 
  2042.6,567.221 2044.65,570.284 2046.62,573.261 2046.67,573.346 2048.55,576.409 2050.42,579.471 2052.27,582.534 2052.74,583.313 2054.03,585.596 2055.74,588.659 
  2057.44,591.722 2058.87,594.322 2059.1,594.784 2060.68,597.847 2062.23,600.909 2063.77,603.972 2064.99,606.411 2065.28,607.035 2066.71,610.097 2068.13,613.16 
  2069.53,616.222 2070.92,619.285 2071.12,619.722 2072.23,622.347 2073.52,625.41 2074.79,628.473 2076.06,631.535 2077.24,634.444 2077.3,634.598 2078.47,637.66 
  2079.63,640.723 2080.78,643.786 2081.91,646.848 2083.03,649.911 2083.37,650.829 2084.1,652.973 2085.15,656.036 2086.18,659.098 2087.19,662.161 2088.2,665.224 
  2089.19,668.286 2089.49,669.212 2090.14,671.349 2091.07,674.411 2091.98,677.474 2092.88,680.536 2093.77,683.599 2094.65,686.662 2095.51,689.724 2095.62,690.088 
  2096.33,692.787 2097.14,695.849 2097.93,698.912 2098.72,701.975 2099.49,705.037 2100.25,708.1 2101,711.162 2101.74,714.225 2101.74,714.229 2102.44,717.287 
  2103.12,720.35 2103.8,723.413 2104.46,726.475 2105.12,729.538 2105.76,732.6 2106.39,735.663 2107.02,738.726 2107.63,741.788 2107.87,742.977 2108.22,744.851 
  2108.79,747.913 2109.34,750.976 2109.89,754.038 2110.43,757.101 2110.95,760.164 2111.47,763.226 2111.98,766.289 2112.48,769.351 2112.97,772.414 2113.44,775.477 
  2113.91,778.539 2113.99,779.064 2114.36,781.602 2114.78,784.664 2115.21,787.727 2115.62,790.789 2116.02,793.852 2116.41,796.915 2116.79,799.977 2117.17,803.04 
  2117.53,806.102 2117.88,809.165 2118.23,812.227 2118.57,815.29 2118.89,818.353 2119.21,821.415 2119.52,824.478 2119.82,827.54 2120.11,830.603 2120.12,830.722 
  2120.37,833.666 2120.63,836.728 2120.88,839.791 2121.13,842.853 2121.36,845.916 2121.58,848.978 2121.8,852.041 2122,855.104 2122.2,858.166 2122.38,861.229 
  2122.56,864.291 2122.73,867.354 2122.89,870.417 2123.05,873.479 2123.19,876.542 2123.32,879.604 2123.45,882.667 2123.56,885.729 2123.67,888.792 2123.77,891.855 
  2123.86,894.917 2123.94,897.98 2124.01,901.042 2124.07,904.105 2124.13,907.168 2124.17,910.23 2124.21,913.293 2124.23,916.355 2124.25,919.418 2124.26,922.48 
  2124.26,925.543 2124.25,928.606 2124.23,931.668 2124.21,934.731 2124.17,937.793 2124.13,940.856 2124.07,943.918 2124.01,946.981 2123.94,950.044 2123.86,953.106 
  2123.77,956.169 2123.67,959.231 2123.56,962.294 2123.45,965.357 2123.32,968.419 2123.19,971.482 2123.05,974.544 2122.89,977.607 2122.73,980.669 2122.56,983.732 
  2122.38,986.795 2122.2,989.857 2122,992.92 2121.8,995.982 2121.58,999.045 2121.36,1002.11 2121.13,1005.17 2120.88,1008.23 2120.63,1011.3 2120.37,1014.36 
  2120.12,1017.3 2120.11,1017.42 2119.82,1020.48 2119.52,1023.55 2119.21,1026.61 2118.89,1029.67 2118.57,1032.73 2118.23,1035.8 2117.88,1038.86 2117.53,1041.92 
  2117.17,1044.98 2116.79,1048.05 2116.41,1051.11 2116.02,1054.17 2115.62,1057.23 2115.21,1060.3 2114.78,1063.36 2114.36,1066.42 2113.99,1068.96 2113.91,1069.48 
  2113.44,1072.55 2112.97,1075.61 2112.48,1078.67 2111.98,1081.73 2111.47,1084.8 2110.95,1087.86 2110.43,1090.92 2109.89,1093.98 2109.34,1097.05 2108.79,1100.11 
  2108.22,1103.17 2107.87,1105.05 2107.63,1106.24 2107.02,1109.3 2106.39,1112.36 2105.76,1115.42 2105.12,1118.49 2104.46,1121.55 2103.8,1124.61 2103.12,1127.67 
  2102.44,1130.74 2101.74,1133.79 2101.74,1133.8 2101,1136.86 2100.25,1139.92 2099.49,1142.99 2098.72,1146.05 2097.93,1149.11 2097.14,1152.17 2096.33,1155.24 
  2095.62,1157.94 2095.51,1158.3 2094.65,1161.36 2093.77,1164.42 2092.88,1167.49 2091.98,1170.55 2091.07,1173.61 2090.14,1176.67 2089.49,1178.81 2089.19,1179.74 
  2088.2,1182.8 2087.19,1185.86 2086.18,1188.92 2085.15,1191.99 2084.1,1195.05 2083.37,1197.19 2083.03,1198.11 2081.91,1201.18 2080.78,1204.24 2079.63,1207.3 
  2078.47,1210.36 2077.3,1213.43 2077.24,1213.58 2076.06,1216.49 2074.79,1219.55 2073.52,1222.61 2072.23,1225.68 2071.12,1228.3 2070.92,1228.74 2069.53,1231.8 
  2068.13,1234.86 2066.71,1237.93 2065.28,1240.99 2064.99,1241.61 2063.77,1244.05 2062.23,1247.11 2060.68,1250.18 2059.1,1253.24 2058.87,1253.7 2057.44,1256.3 
  2055.74,1259.36 2054.03,1262.43 2052.74,1264.71 2052.27,1265.49 2050.42,1268.55 2048.55,1271.61 2046.67,1274.68 2046.62,1274.76 2044.65,1277.74 2042.6,1280.8 
  2040.54,1283.87 2040.49,1283.95 2038.33,1286.93 2036.09,1289.99 2034.36,1292.34 2033.8,1293.05 2031.37,1296.12 2028.92,1299.18 2028.24,1300.01 2026.31,1302.24 
  2023.63,1305.3 2022.11,1307.02 2020.84,1308.37 2017.91,1311.43 2015.99,1313.42 2014.87,1314.49 2011.65,1317.55 2009.86,1319.24 2008.28,1320.62 2004.73,1323.68 
  2003.74,1324.53 2000.92,1326.74 1997.61,1329.32 1996.93,1329.8 1992.58,1332.87 1991.49,1333.63 1987.85,1335.93 1985.36,1337.49 1982.7,1338.99 1979.24,1340.93 
  1976.99,1342.05 1973.11,1343.97 1970.49,1345.12 1966.99,1346.63 1962.87,1348.18 1960.86,1348.93 1954.74,1350.87 1953.35,1351.24 1948.61,1352.49 1942.49,1353.79 
  1939.3,1354.3 1936.36,1354.78 1930.24,1355.48 1924.11,1355.89 1917.99,1356.04 1911.86,1355.93 1905.74,1355.56 1899.61,1354.95 1894.91,1354.3 1893.49,1354.11 
  1887.36,1353.03 1881.24,1351.75 1879.17,1351.24 1875.11,1350.24 1868.99,1348.54 1867.83,1348.18 1862.86,1346.63 1858.44,1345.12 1856.74,1344.53 1850.61,1342.24 
  1850.14,1342.05 1844.48,1339.77 1842.66,1338.99 1838.36,1337.13 1835.74,1335.93 1832.23,1334.31 1829.25,1332.87 1826.11,1331.33 1823.12,1329.8 1819.98,1328.19 
  1817.28,1326.74 1813.86,1324.89 1811.7,1323.68 1807.73,1321.44 1806.32,1320.62 1801.61,1317.84 1801.13,1317.55 1796.12,1314.49 1795.48,1314.1 1791.26,1311.43 
  1789.36,1310.21 1786.53,1308.37 1783.23,1306.2 1781.91,1305.3 1777.39,1302.24 1777.11,1302.05 1772.99,1299.18 1770.98,1297.77 1768.67,1296.12 1764.86,1293.36 
  1764.43,1293.05 1760.28,1289.99 1758.73,1288.84 1756.2,1286.93 1752.61,1284.19 1752.18,1283.87 1748.23,1280.8 1746.48,1279.43 1744.34,1277.74 1740.5,1274.68 
  1740.36,1274.56 1736.72,1271.61 1734.23,1269.58 1732.98,1268.55 1729.29,1265.49 1728.11,1264.49 1725.65,1262.43 1722.05,1259.36 1721.98,1259.31 1718.49,1256.3 
  1715.86,1254.02 1714.96,1253.24 1711.48,1250.18 1709.73,1248.63 1708.02,1247.11 1704.6,1244.05 1703.61,1243.15 1701.21,1240.99 1697.86,1237.93 1697.48,1237.58 
  1694.53,1234.86 1691.36,1231.92 1691.23,1231.8 1687.95,1228.74 1685.23,1226.17 1684.71,1225.68 1681.48,1222.61 1679.11,1220.34 1678.28,1219.55 1675.1,1216.49 
  1672.98,1214.42 1671.95,1213.43 1668.81,1210.36 1666.86,1208.43 1665.7,1207.3 1662.61,1204.24 1660.73,1202.36 1659.54,1201.18 1656.48,1198.11 1654.6,1196.21 
  1653.44,1195.05 1650.42,1191.99 1648.48,1190 1647.42,1188.92 1644.43,1185.86 1642.35,1183.71 1641.46,1182.8 1638.5,1179.74 1636.23,1177.36 1635.57,1176.67 
  1632.63,1173.61 1630.1,1170.94 1629.73,1170.55 1626.82,1167.49 1623.98,1164.46 1623.95,1164.42 1621.06,1161.36 1618.21,1158.3 1617.85,1157.91 1615.35,1155.24 
  1612.52,1152.17 1611.73,1151.3 1609.69,1149.11 1606.88,1146.05 1605.6,1144.64 1604.07,1142.99 1601.27,1139.92 1599.48,1137.93 1598.5,1136.86 1595.71,1133.8 
  1593.35,1131.16 1592.96,1130.74 1590.19,1127.67 1587.46,1124.61 1587.23,1124.34 1584.71,1121.55 1581.99,1118.49 1581.1,1117.47 1579.26,1115.42 1576.55,1112.36 
  1574.98,1110.55 1573.85,1109.3 1571.14,1106.24 1568.85,1103.6 1568.47,1103.17 1565.77,1100.11 1563.12,1097.05 1562.73,1096.59 1560.43,1093.98 1557.78,1090.92 
  1556.6,1089.54 1555.12,1087.86 1552.46,1084.8 1550.48,1082.46 1549.84,1081.73 1547.18,1078.67 1544.58,1075.61 1544.35,1075.34 1541.92,1072.55 1539.32,1069.48 
  1538.23,1068.18 1536.7,1066.42 1534.08,1063.36 1532.1,1060.99 1531.5,1060.3 1528.87,1057.23 1526.31,1054.17 1525.98,1053.76 1523.69,1051.11 1521.12,1048.05 
  1519.85,1046.5 1518.53,1044.98 1515.94,1041.92 1513.73,1039.23 1513.4,1038.86 1510.8,1035.8 1508.26,1032.73 1507.6,1031.91 1505.68,1029.67 1503.12,1026.61 
  1501.48,1024.58 1500.58,1023.55 1498,1020.48 1495.5,1017.42 1495.35,1017.23 1492.91,1014.36 1490.38,1011.3 1489.23,1009.84 1487.84,1008.23 1485.29,1005.17 
  1483.1,1002.45 1482.8,1002.11 1480.21,999.045 1477.72,995.982 1476.97,995.021 1475.16,992.92 1472.64,989.857 1470.85,987.589 1470.15,986.795 1467.57,983.732 
  1465.12,980.669 1464.72,980.144 1462.53,977.607 1460.04,974.544 1458.6,972.673 1457.54,971.482 1454.97,968.419 1452.57,965.357 1452.47,965.219 1449.93,962.294 
  1447.47,959.231 1446.35,957.709 1444.93,956.169 1442.38,953.106 1440.22,950.245 1440.02,950.044 1437.3,946.981 1434.91,943.918 1434.1,942.702 1432.25,940.856 
  1429.7,937.793 1427.97,935.208 1427.34,934.731 1424.27,931.668 1422.23,928.606 1421.85,927.457 1415.72,927.457 1415.34,928.606 1413.3,931.668 1410.24,934.731 
  1409.6,935.208 1407.87,937.793 1405.32,940.856 1403.47,942.702 1402.66,943.918 1400.28,946.981 1397.55,950.044 1397.35,950.245 1395.2,953.106 1392.64,956.169 
  1391.22,957.709 1390.1,959.231 1387.64,962.294 1385.1,965.219 1385,965.357 1382.6,968.419 1380.04,971.482 1378.97,972.673 1377.54,974.544 1375.04,977.607 
  1372.85,980.144 1372.45,980.669 1370,983.732 1367.42,986.795 1366.72,987.589 1364.94,989.857 1362.41,992.92 1360.6,995.021 1359.85,995.982 1357.36,999.045 
  1354.77,1002.11 1354.47,1002.45 1352.29,1005.17 1349.73,1008.23 1348.35,1009.84 1347.19,1011.3 1344.67,1014.36 1342.22,1017.23 1342.07,1017.42 1339.57,1020.48 
  1336.99,1023.55 1336.1,1024.58 1334.45,1026.61 1331.9,1029.67 1329.97,1031.91 1329.31,1032.73 1326.77,1035.8 1324.17,1038.86 1323.85,1039.23 1321.63,1041.92 
  1319.04,1044.98 1317.72,1046.5 1316.46,1048.05 1313.88,1051.11 1311.6,1053.76 1311.26,1054.17 1308.7,1057.23 1306.07,1060.3 1305.47,1060.99 1303.49,1063.36 
  1300.88,1066.42 1299.35,1068.18 1298.26,1069.48 1295.65,1072.55 1293.22,1075.34 1293,1075.61 1290.39,1078.67 1287.74,1081.73 1287.09,1082.46 1285.11,1084.8 
  1282.46,1087.86 1280.97,1089.54 1279.8,1090.92 1277.14,1093.98 1274.84,1096.59 1274.46,1097.05 1271.8,1100.11 1269.1,1103.17 1268.72,1103.6 1266.43,1106.24 
  1263.72,1109.3 1262.59,1110.55 1261.02,1112.36 1258.31,1115.42 1256.47,1117.47 1255.58,1118.49 1252.86,1121.55 1250.34,1124.34 1250.11,1124.61 1247.38,1127.67 
  1244.61,1130.74 1244.22,1131.16 1241.86,1133.8 1239.08,1136.86 1238.09,1137.93 1236.3,1139.92 1233.5,1142.99 1231.97,1144.64 1230.7,1146.05 1227.88,1149.11 
  1225.84,1151.3 1225.05,1152.17 1222.22,1155.24 1219.72,1157.91 1219.36,1158.3 1216.51,1161.36 1213.62,1164.42 1213.59,1164.46 1210.75,1167.49 1207.84,1170.55 
  1207.47,1170.94 1204.94,1173.61 1202,1176.67 1201.34,1177.36 1199.07,1179.74 1196.11,1182.8 1195.22,1183.71 1193.14,1185.86 1190.15,1188.92 1189.09,1190 
  1187.15,1191.99 1184.13,1195.05 1182.97,1196.21 1181.09,1198.11 1178.04,1201.18 1176.84,1202.36 1174.96,1204.24 1171.87,1207.3 1170.72,1208.43 1168.76,1210.36 
  1165.62,1213.43 1164.59,1214.42 1162.47,1216.49 1159.29,1219.55 1158.47,1220.34 1156.09,1222.61 1152.87,1225.68 1152.34,1226.17 1149.62,1228.74 1146.34,1231.8 
  1146.22,1231.92 1143.04,1234.86 1140.09,1237.58 1139.71,1237.93 1136.36,1240.99 1133.97,1243.15 1132.97,1244.05 1129.55,1247.11 1127.84,1248.63 1126.1,1250.18 
  1122.61,1253.24 1121.72,1254.02 1119.08,1256.3 1115.59,1259.31 1115.53,1259.36 1111.92,1262.43 1109.47,1264.49 1108.28,1265.49 1104.59,1268.55 1103.34,1269.58 
  1100.85,1271.61 1097.21,1274.56 1097.07,1274.68 1093.23,1277.74 1091.09,1279.43 1089.34,1280.8 1085.39,1283.87 1084.96,1284.19 1081.37,1286.93 1078.84,1288.84 
  1077.29,1289.99 1073.14,1293.05 1072.71,1293.36 1068.9,1296.12 1066.59,1297.77 1064.58,1299.18 1060.46,1302.05 1060.18,1302.24 1055.67,1305.3 1054.34,1306.2 
  1051.04,1308.37 1048.21,1310.21 1046.31,1311.43 1042.09,1314.1 1041.45,1314.49 1036.44,1317.55 1035.96,1317.84 1031.25,1320.62 1029.84,1321.44 1025.88,1323.68 
  1023.71,1324.89 1020.29,1326.74 1017.59,1328.19 1014.45,1329.8 1011.46,1331.33 1008.32,1332.87 1005.34,1334.31 1001.83,1335.93 999.212,1337.13 994.908,1338.99 
  993.087,1339.77 987.435,1342.05 986.962,1342.24 980.837,1344.53 979.131,1345.12 974.712,1346.63 969.739,1348.18 968.586,1348.54 962.461,1350.24 958.4,1351.24 
  956.336,1351.75 950.211,1353.03 944.086,1354.11 942.664,1354.3 937.961,1354.95 931.836,1355.56 925.71,1355.93 919.585,1356.04 913.46,1355.89 907.335,1355.48 
  901.21,1354.78 898.27,1354.3 895.085,1353.79 888.959,1352.49 884.219,1351.24 882.834,1350.87 876.709,1348.93 874.705,1348.18 870.584,1346.63 867.083,1345.12 
  864.459,1343.97 860.583,1342.05 858.334,1340.93 854.868,1338.99 852.208,1337.49 849.722,1335.93 846.083,1333.63 844.996,1332.87 840.646,1329.8 839.958,1329.32 
  836.651,1326.74 833.833,1324.53 832.838,1323.68 829.288,1320.62 827.708,1319.24 825.918,1317.55 822.699,1314.49 821.583,1313.42 819.661,1311.43 816.731,1308.37 
  815.457,1307.02 813.94,1305.3 811.263,1302.24 809.332,1300.01 808.657,1299.18 806.203,1296.12 803.769,1293.05 803.207,1292.34 801.477,1289.99 799.241,1286.93 
  797.082,1283.95 797.027,1283.87 794.968,1280.8 792.925,1277.74 790.957,1274.76 790.904,1274.68 789.019,1271.61 787.15,1268.55 785.298,1265.49 784.832,1264.71 
  783.543,1262.43 781.831,1259.36 780.134,1256.3 778.706,1253.7 778.467,1253.24 776.896,1250.18 775.339,1247.11 773.797,1244.05 772.581,1241.61 772.287,1240.99 
  770.858,1237.93 769.442,1234.86 768.04,1231.8 766.652,1228.74 766.456,1228.3 765.341,1225.68 764.053,1222.61 762.778,1219.55 761.517,1216.49 760.331,1213.58 
  760.272,1213.43 759.1,1210.36 757.941,1207.3 756.794,1204.24 755.66,1201.18 754.538,1198.11 754.206,1197.19 753.468,1195.05 752.426,1191.99 751.396,1188.92 
  750.378,1185.86 749.372,1182.8 748.378,1179.74 748.081,1178.81 747.429,1176.67 746.505,1173.61 745.593,1170.55 744.692,1167.49 743.803,1164.42 742.924,1161.36 
  742.057,1158.3 741.955,1157.94 741.237,1155.24 740.433,1152.17 739.639,1149.11 738.856,1146.05 738.084,1142.99 737.322,1139.92 736.571,1136.86 735.831,1133.8 
  735.83,1133.79 735.136,1130.74 734.45,1127.67 733.775,1124.61 733.11,1121.55 732.456,1118.49 731.811,1115.42 731.177,1112.36 730.553,1109.3 729.939,1106.24 
  729.705,1105.05 729.353,1103.17 728.786,1100.11 728.229,1097.05 727.683,1093.98 727.145,1090.92 726.618,1087.86 726.1,1084.8 725.592,1081.73 725.094,1078.67 
  724.606,1075.61 724.127,1072.55 723.659,1069.48 723.58,1068.96 723.216,1066.42 722.787,1063.36 722.367,1060.3 721.956,1057.23 721.555,1054.17 721.163,1051.11 
  720.78,1048.05 720.406,1044.98 720.042,1041.92 719.688,1038.86 719.342,1035.8 719.006,1032.73 718.679,1029.67 718.362,1026.61 718.054,1023.55 717.755,1020.48 
  717.466,1017.42 717.455,1017.3 717.197,1014.36 716.938,1011.3 716.688,1008.23 716.447,1005.17 716.215,1002.11 715.991,999.045 715.777,995.982 715.571,992.92 
  715.375,989.857 715.187,986.795 715.009,983.732 714.839,980.669 714.678,977.607 714.526,974.544 714.383,971.482 714.249,968.419 714.124,965.357 714.008,962.294 
  713.901,959.231 713.803,956.169 713.713,953.106 713.633,950.044 713.562,946.981 713.499,943.918 713.445,940.856 713.401,937.793 713.365,934.731 713.338,931.668 
  713.32,928.606 713.311,925.543 713.311,922.48 713.32,919.418 713.338,916.355 713.365,913.293 713.401,910.23 713.445,907.168 713.499,904.105 713.562,901.042 
  713.633,897.98 713.713,894.917 713.803,891.855 713.901,888.792 714.008,885.729 714.124,882.667 714.249,879.604 714.383,876.542 714.526,873.479 714.678,870.417 
  714.839,867.354 715.009,864.291 715.187,861.229 715.375,858.166 715.571,855.104 715.777,852.041 715.991,848.978 716.215,845.916 716.447,842.853 716.688,839.791 
  716.938,836.728 717.197,833.666 717.455,830.722 717.466,830.603 717.755,827.54 718.054,824.478 718.362,821.415 718.679,818.353 719.006,815.29 719.342,812.227 
  719.688,809.165 720.042,806.102 720.406,803.04 720.78,799.977 721.163,796.915 721.555,793.852 721.956,790.789 722.367,787.727 722.787,784.664 723.216,781.602 
  723.58,779.064 723.659,778.539 724.127,775.477 724.606,772.414 725.094,769.351 725.592,766.289 726.1,763.226 726.618,760.164 727.145,757.101 727.683,754.038 
  728.229,750.976 728.786,747.913 729.353,744.851 729.705,742.977 729.939,741.788 730.553,738.726 731.177,735.663 731.811,732.6 732.456,729.538 733.11,726.475 
  733.775,723.413 734.45,720.35 735.136,717.287 735.83,714.229 735.831,714.225 736.571,711.162 737.322,708.1 738.084,705.037 738.856,701.975 739.639,698.912 
  740.433,695.849 741.237,692.787 741.955,690.088 742.057,689.724 742.924,686.662 743.803,683.599 744.692,680.536 745.593,677.474 746.505,674.411 747.429,671.349 
  748.081,669.212 748.378,668.286 749.372,665.224 750.378,662.161 751.396,659.098 752.426,656.036 753.468,652.973 754.206,650.829 754.538,649.911 755.66,646.848 
  756.794,643.786 757.941,640.723 759.1,637.66 760.272,634.598 760.331,634.444 761.517,631.535 762.778,628.473 764.053,625.41 765.341,622.347 766.456,619.722 
  766.652,619.285 768.04,616.222 769.442,613.16 770.858,610.097 772.287,607.035 772.581,606.411 773.797,603.972 775.339,600.909 776.896,597.847 778.467,594.784 
  778.706,594.322 780.134,591.722 781.831,588.659 783.543,585.596 784.832,583.313 785.298,582.534 787.15,579.471 789.019,576.409 790.904,573.346 790.957,573.261 
  792.925,570.284 794.968,567.221 797.027,564.158 797.082,564.078 799.241,561.096 801.477,558.033 803.207,555.684 803.769,554.971 806.203,551.908 808.657,548.845 
  809.332,548.009 811.263,545.783 813.94,542.72 815.457,540.999 816.731,539.658 819.661,536.595 821.583,534.603 822.699,533.533 825.918,530.47 827.708,528.781 
  829.288,527.407 832.838,524.345 833.833,523.493 836.651,521.282 839.958,518.708 840.646,518.22 844.996,515.157 846.083,514.397 849.722,512.095 852.208,510.533 
  854.868,509.032 858.334,507.091 860.583,505.969 864.459,504.051 867.083,502.907 870.584,501.392 874.705,499.844 876.709,499.097 882.834,497.149 884.219,496.782 
  888.959,495.535 895.085,494.237 898.27,493.719 901.21,493.245 907.335,492.547 913.46,492.13 919.585,491.983 925.71,492.098 931.836,492.464 937.961,493.073 
  942.664,493.719 944.086,493.916 950.211,494.989 956.336,496.278 958.4,496.782 962.461,497.781 968.586,499.487 969.739,499.844 974.712,501.396 979.131,502.907 
  980.837,503.494 986.962,505.78 987.435,505.969 993.087,508.25 994.908,509.032 999.212,510.895 1001.83,512.095 1005.34,513.71 1008.32,515.157 1011.46,516.691 
  1014.45,518.22 1017.59,519.834 1020.29,521.282 1023.71,523.133 1025.88,524.345 1029.84,526.583 1031.25,527.407 1035.96,530.181 1036.44,530.47 1041.45,533.533 
  1042.09,533.924 1046.31,536.595 1048.21,537.809 1051.04,539.658 1054.34,541.827 1055.67,542.72 1060.18,545.783 1060.46,545.976 1064.58,548.845 1066.59,550.258 
  1068.9,551.908 1072.71,554.66 1073.14,554.971 1077.29,558.033 1078.84,559.188 1081.37,561.096 1084.96,563.831 1085.39,564.158 1089.34,567.221 1091.09,568.592 
  1093.23,570.284 1097.07,573.346 1097.21,573.461 1100.85,576.409 1103.34,578.443 1104.59,579.471 1108.28,582.534 1109.47,583.529 1111.92,585.596 1115.53,588.659 
  1115.59,588.715 1119.08,591.722 1121.72,594.006 1122.61,594.784 1126.1,597.847 1127.84,599.393 1129.55,600.909 1132.97,603.972 1133.97,604.873 1136.36,607.035 
  1139.71,610.097 1140.09,610.444 1143.04,613.16 1146.22,616.104 1146.34,616.222 1149.62,619.285 1152.34,621.854 1152.87,622.347 1156.09,625.41 1158.47,627.687 
  1159.29,628.473 1162.47,631.535 1164.59,633.602 1165.62,634.598 1168.76,637.66 1170.72,639.595 1171.87,640.723 1174.96,643.786 1176.84,645.665 1178.04,646.848 
  1181.09,649.911 1182.97,651.81 1184.13,652.973 1187.15,656.036 1189.09,658.027 1190.15,659.098 1193.14,662.161 1195.22,664.313 1196.11,665.224 1199.07,668.286 
  1201.34,670.667 1202,671.349 1204.94,674.411 1207.47,677.086 1207.84,677.474 1210.75,680.536 1213.59,683.567 1213.62,683.599 1216.51,686.662 1219.36,689.724 
  1219.72,690.113 1222.22,692.787 1225.05,695.849 1225.84,696.719 1227.88,698.912 1230.7,701.975 1231.97,703.381 1233.5,705.037 1236.3,708.1 1238.09,710.096 
  1239.08,711.162 1241.86,714.225 1244.22,716.862 1244.61,717.287 1247.38,720.35 1250.11,723.413 1250.34,723.681 1252.86,726.475 1255.58,729.538 1256.47,730.553 
  1258.31,732.6 1261.02,735.663 1262.59,737.47 1263.72,738.726 1266.43,741.788 1268.72,744.428 1269.1,744.851 1271.8,747.913 1274.46,750.976 1274.84,751.432 
  1277.14,754.038 1279.8,757.101 1280.97,758.481 1282.46,760.164 1285.11,763.226 1287.09,765.564 1287.74,766.289 1290.39,769.351 1293,772.414 1293.22,772.683 
  1295.65,775.477 1298.26,778.539 1299.35,779.847 1300.88,781.602 1303.49,784.664 1305.47,787.037 1306.07,787.727 1308.7,790.789 1311.26,793.852 1311.6,794.259 
  1313.88,796.915 1316.46,799.977 1317.72,801.519 1319.04,803.04 1321.63,806.102 1323.85,808.796 1324.17,809.165 1326.77,812.227 1329.31,815.29 1329.97,816.11 
  1331.9,818.353 1334.45,821.415 1336.1,823.446 1336.99,824.478 1339.57,827.54 1342.07,830.603 1342.22,830.796 1344.67,833.666 1347.19,836.728 1348.35,838.186 
  1349.73,839.791 1352.29,842.853 1354.47,845.577 1354.77,845.916 1357.36,848.978 1359.85,852.041 1360.6,853.002 1362.41,855.104 1364.94,858.166 1366.72,860.435 
  1367.42,861.229 1370,864.291 1372.45,867.354 1372.85,867.88 1375.04,870.417 
  "/>
<path clip-path="url(#clip190)" d="
M278.281 475.158 L925.927 475.158 L925.927 371.478 L278.281 371.478  Z
  " fill="#ffffff" fill-rule="evenodd" fill-opacity="1"/>
<polyline clip-path="url(#clip190)" style="stroke:#000000; stroke-linecap:round; stroke-linejoin:round; stroke-width:4; stroke-opacity:1; fill:none" points="
  278.281,475.158 925.927,475.158 925.927,371.478 278.281,371.478 278.281,475.158 
  "/>
<polyline clip-path="url(#clip190)" style="stroke:#1e90ff; stroke-linecap:round; stroke-linejoin:round; stroke-width:4; stroke-opacity:1; fill:none" points="
  305.436,423.318 468.365,423.318 
  "/>
<path clip-path="url(#clip190)" d="M519.411 418.794 Q519.411 420.105 518.591 420.855 Q517.771 421.581 516.834 421.581 Q515.944 421.581 515.476 421.066 Q515.007 420.55 515.007 419.894 Q515.007 419.004 515.663 418.231 Q516.319 417.458 517.303 417.295 Q516.342 416.686 514.914 416.686 Q513.977 416.686 513.157 417.177 Q512.361 417.669 511.869 418.302 Q511.4 418.934 510.979 419.848 Q510.58 420.738 510.416 421.276 Q510.276 421.792 510.159 422.354 L508.519 428.912 Q507.723 432.027 507.723 433.128 Q507.723 434.487 508.379 435.4 Q509.035 436.29 510.346 436.29 Q510.861 436.29 511.447 436.15 Q512.033 435.986 512.782 435.564 Q513.555 435.119 514.234 434.463 Q514.937 433.784 515.616 432.636 Q516.295 431.489 516.74 430.013 Q516.881 429.498 517.349 429.498 Q517.935 429.498 517.935 429.966 Q517.935 430.364 517.607 431.207 Q517.303 432.027 516.623 433.105 Q515.968 434.159 515.101 435.119 Q514.234 436.056 512.946 436.712 Q511.658 437.368 510.252 437.368 Q508.238 437.368 506.903 436.29 Q505.568 435.213 505.076 433.714 Q504.959 433.924 504.795 434.206 Q504.631 434.487 504.139 435.119 Q503.671 435.728 503.132 436.196 Q502.593 436.641 501.75 436.993 Q500.93 437.368 500.04 437.368 Q498.916 437.368 497.909 437.04 Q496.925 436.712 496.222 435.962 Q495.52 435.213 495.52 434.182 Q495.52 433.034 496.293 432.238 Q497.089 431.418 498.167 431.418 Q498.846 431.418 499.384 431.816 Q499.947 432.215 499.947 433.081 Q499.947 434.042 499.291 434.768 Q498.635 435.494 497.698 435.681 Q498.658 436.29 500.087 436.29 Q501.633 436.29 502.851 434.932 Q504.069 433.573 504.655 431.301 Q506.107 425.844 506.669 423.408 Q507.231 420.948 507.231 419.894 Q507.231 418.911 506.973 418.231 Q506.716 417.552 506.271 417.248 Q505.849 416.92 505.451 416.803 Q505.076 416.686 504.655 416.686 Q503.952 416.686 503.155 416.967 Q502.383 417.248 501.446 417.904 Q500.532 418.536 499.666 419.848 Q498.799 421.159 498.213 422.963 Q498.096 423.501 497.581 423.501 Q497.019 423.478 497.019 423.01 Q497.019 422.611 497.323 421.792 Q497.651 420.948 498.307 419.894 Q498.986 418.84 499.853 417.904 Q500.743 416.943 502.031 416.287 Q503.343 415.632 504.748 415.632 Q505.381 415.632 505.99 415.772 Q506.622 415.889 507.372 416.241 Q508.144 416.592 508.824 417.365 Q509.503 418.138 509.925 419.262 Q510.206 418.723 510.58 418.208 Q510.979 417.693 511.588 417.06 Q512.22 416.404 513.087 416.03 Q513.977 415.632 514.96 415.632 Q515.921 415.632 516.858 415.889 Q517.795 416.123 518.591 416.896 Q519.411 417.646 519.411 418.794 Z" fill="#000000" fill-rule="evenodd" fill-opacity="1" /><path clip-path="url(#clip190)" d="M524.3 417.045 L524.3 416.013 L534.613 400.256 Q534.875 399.846 535.285 399.863 Q535.662 399.863 535.744 400.01 Q535.826 400.158 535.826 400.732 L535.826 416.013 L539.187 416.013 L539.187 417.045 L535.826 417.045 L535.826 419.964 Q535.826 420.931 536.219 421.243 Q536.629 421.554 538.367 421.554 L539.072 421.554 L539.072 422.587 Q537.695 422.489 534.514 422.489 Q531.35 422.489 529.973 422.587 L529.973 421.554 L530.678 421.554 Q532.416 421.554 532.826 421.259 Q533.235 420.948 533.235 419.964 L533.235 417.045 L524.3 417.045 M525.251 416.013 L533.432 416.013 L533.432 403.486 L525.251 416.013 Z" fill="#000000" fill-rule="evenodd" fill-opacity="1" /><path clip-path="url(#clip190)" d="M589.135 424.157 Q589.416 424.438 589.416 424.837 Q589.416 425.235 589.135 425.516 Q588.854 425.797 588.456 425.797 L558.428 425.797 Q558.03 425.797 557.749 425.516 Q557.468 425.235 557.468 424.837 Q557.468 424.438 557.749 424.157 Q558.03 423.876 558.428 423.876 L588.456 423.876 Q588.854 423.876 589.135 424.157 Z" fill="#000000" fill-rule="evenodd" fill-opacity="1" /><path clip-path="url(#clip190)" d="M607.736 430.364 Q607.736 428.935 608.556 428.256 Q609.376 427.577 610.43 427.577 Q611.53 427.577 612.303 428.303 Q613.1 429.006 613.1 430.247 Q613.1 431.582 612.163 432.332 Q611.249 433.081 609.938 432.894 Q611.085 434.815 613.193 435.681 Q615.325 436.548 617.292 436.548 Q619.354 436.548 621.017 434.768 Q622.703 432.988 622.703 428.631 Q622.703 424.93 621.251 422.799 Q619.822 420.667 616.988 420.667 L614.88 420.667 Q614.154 420.667 613.943 420.597 Q613.732 420.527 613.732 420.129 Q613.732 419.66 614.458 419.567 Q615.184 419.567 616.332 419.426 Q619.119 419.332 620.595 416.92 Q621.93 414.671 621.93 411.462 Q621.93 408.535 620.525 407.317 Q619.143 406.075 617.339 406.075 Q615.653 406.075 613.802 406.778 Q611.952 407.481 610.945 409.05 Q613.92 409.05 613.92 411.462 Q613.92 412.516 613.24 413.219 Q612.584 413.898 611.484 413.898 Q610.43 413.898 609.727 413.242 Q609.024 412.563 609.024 411.416 Q609.024 408.675 611.46 406.778 Q613.92 404.881 617.527 404.881 Q621.087 404.881 623.71 406.754 Q626.357 408.628 626.357 411.509 Q626.357 414.343 624.483 416.662 Q622.609 418.981 619.635 419.941 Q623.289 420.667 625.467 423.15 Q627.645 425.61 627.645 428.631 Q627.645 432.379 624.694 435.142 Q621.743 437.883 617.433 437.883 Q613.451 437.883 610.594 435.728 Q607.736 433.573 607.736 430.364 Z" fill="#000000" fill-rule="evenodd" fill-opacity="1" /><path clip-path="url(#clip190)" d="M655.383 418.794 Q655.383 420.105 654.563 420.855 Q653.744 421.581 652.807 421.581 Q651.917 421.581 651.448 421.066 Q650.98 420.55 650.98 419.894 Q650.98 419.004 651.636 418.231 Q652.291 417.458 653.275 417.295 Q652.315 416.686 650.886 416.686 Q649.949 416.686 649.129 417.177 Q648.333 417.669 647.841 418.302 Q647.373 418.934 646.951 419.848 Q646.553 420.738 646.389 421.276 Q646.248 421.792 646.131 422.354 L644.492 428.912 Q643.695 432.027 643.695 433.128 Q643.695 434.487 644.351 435.4 Q645.007 436.29 646.319 436.29 Q646.834 436.29 647.42 436.15 Q648.005 435.986 648.755 435.564 Q649.528 435.119 650.207 434.463 Q650.91 433.784 651.589 432.636 Q652.268 431.489 652.713 430.013 Q652.854 429.498 653.322 429.498 Q653.908 429.498 653.908 429.966 Q653.908 430.364 653.58 431.207 Q653.275 432.027 652.596 433.105 Q651.94 434.159 651.073 435.119 Q650.207 436.056 648.919 436.712 Q647.63 437.368 646.225 437.368 Q644.211 437.368 642.876 436.29 Q641.541 435.213 641.049 433.714 Q640.932 433.924 640.768 434.206 Q640.604 434.487 640.112 435.119 Q639.643 435.728 639.105 436.196 Q638.566 436.641 637.723 436.993 Q636.903 437.368 636.013 437.368 Q634.889 437.368 633.881 437.04 Q632.898 436.712 632.195 435.962 Q631.492 435.213 631.492 434.182 Q631.492 433.034 632.265 432.238 Q633.062 431.418 634.139 431.418 Q634.818 431.418 635.357 431.816 Q635.919 432.215 635.919 433.081 Q635.919 434.042 635.263 434.768 Q634.607 435.494 633.671 435.681 Q634.631 436.29 636.06 436.29 Q637.606 436.29 638.824 434.932 Q640.041 433.573 640.627 431.301 Q642.079 425.844 642.641 423.408 Q643.204 420.948 643.204 419.894 Q643.204 418.911 642.946 418.231 Q642.688 417.552 642.243 417.248 Q641.822 416.92 641.423 416.803 Q641.049 416.686 640.627 416.686 Q639.924 416.686 639.128 416.967 Q638.355 417.248 637.418 417.904 Q636.505 418.536 635.638 419.848 Q634.771 421.159 634.186 422.963 Q634.069 423.501 633.553 423.501 Q632.991 423.478 632.991 423.01 Q632.991 422.611 633.296 421.792 Q633.624 420.948 634.28 419.894 Q634.959 418.84 635.825 417.904 Q636.716 416.943 638.004 416.287 Q639.315 415.632 640.721 415.632 Q641.353 415.632 641.962 415.772 Q642.595 415.889 643.344 416.241 Q644.117 416.592 644.796 417.365 Q645.476 418.138 645.897 419.262 Q646.178 418.723 646.553 418.208 Q646.951 417.693 647.56 417.06 Q648.193 416.404 649.059 416.03 Q649.949 415.632 650.933 415.632 Q651.893 415.632 652.83 415.889 Q653.767 416.123 654.563 416.896 Q655.383 417.646 655.383 418.794 Z" fill="#000000" fill-rule="evenodd" fill-opacity="1" /><path clip-path="url(#clip190)" d="M660.272 422.473 Q660.272 421.867 660.321 421.686 Q660.387 421.506 660.649 421.227 L667.093 414.046 Q670.618 410.078 670.618 406.619 Q670.618 404.372 669.438 402.766 Q668.273 401.159 666.126 401.159 Q664.65 401.159 663.404 402.061 Q662.158 402.962 661.584 404.569 Q661.682 404.536 662.027 404.536 Q662.863 404.536 663.322 405.061 Q663.797 405.586 663.797 406.291 Q663.797 407.192 663.207 407.635 Q662.633 408.061 662.059 408.061 Q661.83 408.061 661.518 408.012 Q661.223 407.963 660.748 407.504 Q660.272 407.028 660.272 406.192 Q660.272 403.848 662.043 401.979 Q663.83 400.11 666.552 400.11 Q669.634 400.11 671.651 401.946 Q673.684 403.766 673.684 406.619 Q673.684 407.619 673.372 408.537 Q673.077 409.439 672.667 410.144 Q672.274 410.849 671.192 411.98 Q670.11 413.111 669.241 413.915 Q668.372 414.718 666.421 416.423 L662.863 419.883 L668.913 419.883 Q671.864 419.883 672.094 419.62 Q672.422 419.145 672.831 416.636 L673.684 416.636 L672.733 422.473 L660.272 422.473 Z" fill="#000000" fill-rule="evenodd" fill-opacity="1" /><path clip-path="url(#clip190)" d="M693.084 425.422 Q691.983 425.422 691.983 424.837 Q691.983 424.251 693.13 424.251 Q693.271 424.251 693.505 424.274 Q693.763 424.298 693.81 424.298 L707.324 424.298 L707.324 410.736 Q707.324 410.689 707.301 410.479 Q707.278 410.244 707.278 410.104 Q707.278 408.956 707.84 408.956 Q708.425 408.956 708.425 410.104 L708.425 424.298 L721.963 424.298 Q722.01 424.298 722.245 424.274 Q722.479 424.251 722.619 424.251 Q723.72 424.251 723.72 424.837 Q723.744 425.422 722.572 425.422 Q722.432 425.422 722.221 425.399 Q722.01 425.375 721.963 425.375 L708.425 425.375 L708.425 439.616 Q708.425 440.717 707.84 440.717 Q707.278 440.717 707.278 439.569 Q707.278 439.429 707.301 439.195 Q707.324 438.984 707.324 438.937 L707.324 425.375 L693.81 425.375 Q693.763 425.375 693.482 425.399 Q693.224 425.422 693.084 425.422 Z" fill="#000000" fill-rule="evenodd" fill-opacity="1" /><path clip-path="url(#clip190)" d="M742.251 436.829 Q742.251 435.962 742.321 435.705 Q742.415 435.447 742.79 435.049 L751.995 424.79 Q757.03 419.121 757.03 414.179 Q757.03 410.97 755.344 408.675 Q753.681 406.38 750.613 406.38 Q748.505 406.38 746.725 407.668 Q744.944 408.956 744.125 411.252 Q744.265 411.205 744.757 411.205 Q745.952 411.205 746.607 411.954 Q747.287 412.704 747.287 413.711 Q747.287 414.999 746.443 415.632 Q745.624 416.241 744.804 416.241 Q744.476 416.241 744.031 416.17 Q743.609 416.1 742.93 415.444 Q742.251 414.765 742.251 413.57 Q742.251 410.221 744.78 407.551 Q747.334 404.881 751.222 404.881 Q755.625 404.881 758.506 407.504 Q761.41 410.104 761.41 414.179 Q761.41 415.608 760.965 416.92 Q760.544 418.208 759.958 419.215 Q759.396 420.222 757.85 421.838 Q756.304 423.455 755.063 424.602 Q753.822 425.75 751.034 428.186 L745.952 433.128 L754.594 433.128 Q758.811 433.128 759.138 432.753 Q759.607 432.074 760.192 428.49 L761.41 428.49 L760.052 436.829 L742.251 436.829 Z" fill="#000000" fill-rule="evenodd" fill-opacity="1" /><path clip-path="url(#clip190)" d="M788.141 417.458 Q788.141 417.786 787.93 418.559 L783.34 436.876 Q782.333 440.951 779.053 443.809 Q775.798 446.666 772.097 446.666 Q769.872 446.666 768.443 445.472 Q767.014 444.301 767.014 442.497 Q767.014 440.904 767.857 440.131 Q768.701 439.382 769.708 439.382 Q770.036 439.382 770.387 439.476 Q770.738 439.569 771.113 439.967 Q771.488 440.366 771.488 441.045 Q771.488 442.146 770.528 443.012 Q770.059 443.411 769.614 443.504 Q769.193 443.598 768.466 443.598 Q768.748 444.254 769.263 444.699 Q769.778 445.144 770.364 445.308 Q770.949 445.495 771.324 445.542 Q771.722 445.612 772.097 445.612 Q775.095 445.612 777.39 442.591 Q778.07 441.677 778.562 440.764 Q779.077 439.874 779.452 438.773 Q779.826 437.695 779.99 437.11 Q780.178 436.524 780.506 435.189 Q778.327 437.368 775.657 437.368 Q774.533 437.368 773.526 437.063 Q772.542 436.759 771.675 436.126 Q770.809 435.47 770.293 434.323 Q769.802 433.175 769.802 431.652 Q769.802 430.036 770.434 427.835 Q771.066 425.633 772.589 421.581 Q773.409 419.309 773.409 418.208 Q773.409 417.669 773.291 417.341 Q773.174 416.99 772.94 416.873 Q772.706 416.732 772.565 416.709 Q772.448 416.686 772.214 416.686 Q770.832 416.686 769.544 418.091 Q768.256 419.496 767.366 422.635 Q767.178 423.22 767.061 423.361 Q766.944 423.501 766.593 423.501 Q766.007 423.478 766.007 423.01 Q766.007 422.822 766.218 422.096 Q766.429 421.347 766.921 420.246 Q767.436 419.121 768.139 418.114 Q768.841 417.084 769.942 416.358 Q771.066 415.632 772.355 415.632 Q774.111 415.632 775.189 416.779 Q776.29 417.904 776.29 419.567 Q776.29 420.246 776.102 420.855 Q775.938 421.44 775.329 423.01 Q772.87 429.334 772.87 432.425 Q772.87 433.175 772.987 433.807 Q773.128 434.416 773.432 435.025 Q773.736 435.611 774.345 435.962 Q774.978 436.29 775.845 436.29 Q776.945 436.29 777.976 435.775 Q779.03 435.236 779.686 434.51 Q780.365 433.784 780.763 433.175 Q781.185 432.543 781.279 432.215 L783.433 423.595 L784.394 419.754 Q784.839 417.669 785.05 417.154 Q785.331 416.662 785.822 416.404 Q786.314 416.147 786.736 416.147 Q787.322 416.147 787.72 416.498 Q788.141 416.85 788.141 417.458 Z" fill="#000000" fill-rule="evenodd" fill-opacity="1" /><path clip-path="url(#clip190)" d="M793.037 422.473 Q793.037 421.867 793.086 421.686 Q793.152 421.506 793.414 421.227 L799.858 414.046 Q803.383 410.078 803.383 406.619 Q803.383 404.372 802.202 402.766 Q801.038 401.159 798.89 401.159 Q797.415 401.159 796.169 402.061 Q794.923 402.962 794.349 404.569 Q794.447 404.536 794.791 404.536 Q795.628 404.536 796.087 405.061 Q796.562 405.586 796.562 406.291 Q796.562 407.192 795.972 407.635 Q795.398 408.061 794.824 408.061 Q794.595 408.061 794.283 408.012 Q793.988 407.963 793.513 407.504 Q793.037 407.028 793.037 406.192 Q793.037 403.848 794.808 401.979 Q796.595 400.11 799.317 400.11 Q802.399 400.11 804.416 401.946 Q806.449 403.766 806.449 406.619 Q806.449 407.619 806.137 408.537 Q805.842 409.439 805.432 410.144 Q805.039 410.849 803.957 411.98 Q802.875 413.111 802.006 413.915 Q801.137 414.718 799.185 416.423 L795.628 419.883 L801.678 419.883 Q804.629 419.883 804.858 419.62 Q805.186 419.145 805.596 416.636 L806.449 416.636 L805.498 422.473 L793.037 422.473 Z" fill="#000000" fill-rule="evenodd" fill-opacity="1" /><path clip-path="url(#clip190)" d="M824.747 429.544 Q824.794 428.959 825.708 428.959 L855.103 428.959 Q856.485 428.959 856.508 429.498 Q856.508 430.083 855.197 430.06 L826.036 430.06 Q824.747 430.083 824.747 429.544 M824.747 420.175 Q824.747 419.59 825.755 419.613 L855.056 419.613 Q856.485 419.613 856.508 420.175 Q856.508 420.714 855.29 420.714 L825.708 420.714 Q824.747 420.714 824.747 420.175 Z" fill="#000000" fill-rule="evenodd" fill-opacity="1" /><path clip-path="url(#clip190)" d="M875.016 421.487 Q875.016 414.437 876.796 410.596 Q879.279 404.881 885.134 404.881 Q886.376 404.881 887.664 405.232 Q888.975 405.56 890.615 406.848 Q892.278 408.136 893.285 410.244 Q895.206 414.32 895.206 421.487 Q895.206 428.49 893.426 432.308 Q890.826 437.883 885.087 437.883 Q882.932 437.883 880.731 436.782 Q878.552 435.681 877.17 433.034 Q875.016 429.076 875.016 421.487 M878.997 420.902 Q878.997 428.139 879.513 431.02 Q880.098 434.135 881.691 435.494 Q883.307 436.829 885.087 436.829 Q887.008 436.829 888.601 435.4 Q890.217 433.948 890.709 430.833 Q891.247 427.764 891.224 420.902 Q891.224 414.226 890.756 411.556 Q890.123 408.441 888.437 407.199 Q886.774 405.935 885.087 405.935 Q884.455 405.935 883.776 406.122 Q883.12 406.309 882.159 406.848 Q881.199 407.387 880.45 408.722 Q879.724 410.057 879.372 412.071 Q878.997 414.671 878.997 420.902 Z" fill="#000000" fill-rule="evenodd" fill-opacity="1" /></svg>
