<?xml version="1.0" encoding="utf-8"?>
<svg xmlns="http://www.w3.org/2000/svg" xmlns:xlink="http://www.w3.org/1999/xlink" width="672" height="480" viewBox="0 0 2688 1920">
<defs>
  <clipPath id="clip390">
    <rect x="0" y="0" width="2688" height="1920"/>
  </clipPath>
</defs>
<path clip-path="url(#clip390)" d="
M0 1920 L2688 1920 L2688 0 L0 0  Z
  " fill="#ffffff" fill-rule="evenodd" fill-opacity="1"/>
<defs>
  <clipPath id="clip391">
    <rect x="537" y="0" width="1883" height="1883"/>
  </clipPath>
</defs>
<path clip-path="url(#clip390)" d="
M181.747 1800.78 L2640.76 1800.78 L2640.76 47.2441 L181.747 47.2441  Z
  " fill="#ffffff" fill-rule="evenodd" fill-opacity="1"/>
<defs>
  <clipPath id="clip392">
    <rect x="181" y="47" width="2460" height="1755"/>
  </clipPath>
</defs>
<polyline clip-path="url(#clip392)" style="stroke:#000000; stroke-linecap:round; stroke-linejoin:round; stroke-width:2; stroke-opacity:0.1; fill:none" points="
  251.341,1800.78 251.341,47.2441 
  "/>
<polyline clip-path="url(#clip392)" style="stroke:#000000; stroke-linecap:round; stroke-linejoin:round; stroke-width:2; stroke-opacity:0.1; fill:none" points="
  637.978,1800.78 637.978,47.2441 
  "/>
<polyline clip-path="url(#clip392)" style="stroke:#000000; stroke-linecap:round; stroke-linejoin:round; stroke-width:2; stroke-opacity:0.1; fill:none" points="
  1024.61,1800.78 1024.61,47.2441 
  "/>
<polyline clip-path="url(#clip392)" style="stroke:#000000; stroke-linecap:round; stroke-linejoin:round; stroke-width:2; stroke-opacity:0.1; fill:none" points="
  1411.25,1800.78 1411.25,47.2441 
  "/>
<polyline clip-path="url(#clip392)" style="stroke:#000000; stroke-linecap:round; stroke-linejoin:round; stroke-width:2; stroke-opacity:0.1; fill:none" points="
  1797.89,1800.78 1797.89,47.2441 
  "/>
<polyline clip-path="url(#clip392)" style="stroke:#000000; stroke-linecap:round; stroke-linejoin:round; stroke-width:2; stroke-opacity:0.1; fill:none" points="
  2184.52,1800.78 2184.52,47.2441 
  "/>
<polyline clip-path="url(#clip392)" style="stroke:#000000; stroke-linecap:round; stroke-linejoin:round; stroke-width:2; stroke-opacity:0.1; fill:none" points="
  2571.16,1800.78 2571.16,47.2441 
  "/>
<polyline clip-path="url(#clip390)" style="stroke:#000000; stroke-linecap:round; stroke-linejoin:round; stroke-width:4; stroke-opacity:1; fill:none" points="
  181.747,1800.78 2640.76,1800.78 
  "/>
<polyline clip-path="url(#clip390)" style="stroke:#000000; stroke-linecap:round; stroke-linejoin:round; stroke-width:4; stroke-opacity:1; fill:none" points="
  251.341,1800.78 251.341,1781.88 
  "/>
<polyline clip-path="url(#clip390)" style="stroke:#000000; stroke-linecap:round; stroke-linejoin:round; stroke-width:4; stroke-opacity:1; fill:none" points="
  637.978,1800.78 637.978,1781.88 
  "/>
<polyline clip-path="url(#clip390)" style="stroke:#000000; stroke-linecap:round; stroke-linejoin:round; stroke-width:4; stroke-opacity:1; fill:none" points="
  1024.61,1800.78 1024.61,1781.88 
  "/>
<polyline clip-path="url(#clip390)" style="stroke:#000000; stroke-linecap:round; stroke-linejoin:round; stroke-width:4; stroke-opacity:1; fill:none" points="
  1411.25,1800.78 1411.25,1781.88 
  "/>
<polyline clip-path="url(#clip390)" style="stroke:#000000; stroke-linecap:round; stroke-linejoin:round; stroke-width:4; stroke-opacity:1; fill:none" points="
  1797.89,1800.78 1797.89,1781.88 
  "/>
<polyline clip-path="url(#clip390)" style="stroke:#000000; stroke-linecap:round; stroke-linejoin:round; stroke-width:4; stroke-opacity:1; fill:none" points="
  2184.52,1800.78 2184.52,1781.88 
  "/>
<polyline clip-path="url(#clip390)" style="stroke:#000000; stroke-linecap:round; stroke-linejoin:round; stroke-width:4; stroke-opacity:1; fill:none" points="
  2571.16,1800.78 2571.16,1781.88 
  "/>
<path clip-path="url(#clip390)" d="M251.341 1834 Q247.73 1834 245.901 1837.57 Q244.096 1841.11 244.096 1848.24 Q244.096 1855.34 245.901 1858.91 Q247.73 1862.45 251.341 1862.45 Q254.975 1862.45 256.781 1858.91 Q258.61 1855.34 258.61 1848.24 Q258.61 1841.11 256.781 1837.57 Q254.975 1834 251.341 1834 M251.341 1830.3 Q257.151 1830.3 260.207 1834.9 Q263.286 1839.49 263.286 1848.24 Q263.286 1856.96 260.207 1861.57 Q257.151 1866.15 251.341 1866.15 Q245.531 1866.15 242.452 1861.57 Q239.397 1856.96 239.397 1848.24 Q239.397 1839.49 242.452 1834.9 Q245.531 1830.3 251.341 1830.3 Z" fill="#000000" fill-rule="evenodd" fill-opacity="1" /><path clip-path="url(#clip390)" d="M628.36 1861.55 L635.999 1861.55 L635.999 1835.18 L627.689 1836.85 L627.689 1832.59 L635.952 1830.92 L640.628 1830.92 L640.628 1861.55 L648.267 1861.55 L648.267 1865.48 L628.36 1865.48 L628.36 1861.55 Z" fill="#000000" fill-rule="evenodd" fill-opacity="1" /><path clip-path="url(#clip390)" d="M1019.27 1861.55 L1035.59 1861.55 L1035.59 1865.48 L1013.64 1865.48 L1013.64 1861.55 Q1016.3 1858.79 1020.89 1854.16 Q1025.49 1849.51 1026.67 1848.17 Q1028.92 1845.65 1029.8 1843.91 Q1030.7 1842.15 1030.7 1840.46 Q1030.7 1837.71 1028.76 1835.97 Q1026.84 1834.23 1023.73 1834.23 Q1021.54 1834.23 1019.08 1835 Q1016.65 1835.76 1013.87 1837.31 L1013.87 1832.59 Q1016.7 1831.46 1019.15 1830.88 Q1021.61 1830.3 1023.64 1830.3 Q1029.01 1830.3 1032.21 1832.98 Q1035.4 1835.67 1035.4 1840.16 Q1035.4 1842.29 1034.59 1844.21 Q1033.8 1846.11 1031.7 1848.7 Q1031.12 1849.37 1028.02 1852.59 Q1024.92 1855.78 1019.27 1861.55 Z" fill="#000000" fill-rule="evenodd" fill-opacity="1" /><path clip-path="url(#clip390)" d="M1415.5 1846.85 Q1418.86 1847.57 1420.73 1849.84 Q1422.63 1852.1 1422.63 1855.44 Q1422.63 1860.55 1419.11 1863.35 Q1415.59 1866.15 1409.11 1866.15 Q1406.93 1866.15 1404.62 1865.71 Q1402.33 1865.3 1399.87 1864.44 L1399.87 1859.93 Q1401.82 1861.06 1404.13 1861.64 Q1406.45 1862.22 1408.97 1862.22 Q1413.37 1862.22 1415.66 1860.48 Q1417.98 1858.75 1417.98 1855.44 Q1417.98 1852.38 1415.82 1850.67 Q1413.69 1848.93 1409.87 1848.93 L1405.85 1848.93 L1405.85 1845.09 L1410.06 1845.09 Q1413.51 1845.09 1415.34 1843.72 Q1417.17 1842.34 1417.17 1839.74 Q1417.17 1837.08 1415.27 1835.67 Q1413.39 1834.23 1409.87 1834.23 Q1407.95 1834.23 1405.75 1834.65 Q1403.55 1835.07 1400.92 1835.95 L1400.92 1831.78 Q1403.58 1831.04 1405.89 1830.67 Q1408.23 1830.3 1410.29 1830.3 Q1415.61 1830.3 1418.72 1832.73 Q1421.82 1835.14 1421.82 1839.26 Q1421.82 1842.13 1420.17 1844.12 Q1418.53 1846.09 1415.5 1846.85 Z" fill="#000000" fill-rule="evenodd" fill-opacity="1" /><path clip-path="url(#clip390)" d="M1800.9 1835 L1789.09 1853.45 L1800.9 1853.45 L1800.9 1835 M1799.67 1830.92 L1805.55 1830.92 L1805.55 1853.45 L1810.48 1853.45 L1810.48 1857.34 L1805.55 1857.34 L1805.55 1865.48 L1800.9 1865.48 L1800.9 1857.34 L1785.3 1857.34 L1785.3 1852.82 L1799.67 1830.92 Z" fill="#000000" fill-rule="evenodd" fill-opacity="1" /><path clip-path="url(#clip390)" d="M2174.8 1830.92 L2193.16 1830.92 L2193.16 1834.86 L2179.08 1834.86 L2179.08 1843.33 Q2180.1 1842.98 2181.12 1842.82 Q2182.14 1842.64 2183.16 1842.64 Q2188.95 1842.64 2192.33 1845.81 Q2195.71 1848.98 2195.71 1854.4 Q2195.71 1859.97 2192.23 1863.08 Q2188.76 1866.15 2182.44 1866.15 Q2180.27 1866.15 2178 1865.78 Q2175.75 1865.41 2173.34 1864.67 L2173.34 1859.97 Q2175.43 1861.11 2177.65 1861.66 Q2179.87 1862.22 2182.35 1862.22 Q2186.35 1862.22 2188.69 1860.11 Q2191.03 1858.01 2191.03 1854.4 Q2191.03 1850.78 2188.69 1848.68 Q2186.35 1846.57 2182.35 1846.57 Q2180.47 1846.57 2178.6 1846.99 Q2176.75 1847.4 2174.8 1848.28 L2174.8 1830.92 Z" fill="#000000" fill-rule="evenodd" fill-opacity="1" /><path clip-path="url(#clip390)" d="M2571.57 1846.34 Q2568.42 1846.34 2566.57 1848.49 Q2564.74 1850.65 2564.74 1854.4 Q2564.74 1858.12 2566.57 1860.3 Q2568.42 1862.45 2571.57 1862.45 Q2574.71 1862.45 2576.54 1860.3 Q2578.4 1858.12 2578.4 1854.4 Q2578.4 1850.65 2576.54 1848.49 Q2574.71 1846.34 2571.57 1846.34 M2580.85 1831.69 L2580.85 1835.95 Q2579.09 1835.11 2577.28 1834.67 Q2575.5 1834.23 2573.74 1834.23 Q2569.11 1834.23 2566.66 1837.36 Q2564.23 1840.48 2563.88 1846.8 Q2565.25 1844.79 2567.31 1843.72 Q2569.37 1842.64 2571.84 1842.64 Q2577.05 1842.64 2580.06 1845.81 Q2583.09 1848.96 2583.09 1854.4 Q2583.09 1859.72 2579.95 1862.94 Q2576.8 1866.15 2571.57 1866.15 Q2565.57 1866.15 2562.4 1861.57 Q2559.23 1856.96 2559.23 1848.24 Q2559.23 1840.04 2563.12 1835.18 Q2567.01 1830.3 2573.56 1830.3 Q2575.32 1830.3 2577.1 1830.65 Q2578.9 1830.99 2580.85 1831.69 Z" fill="#000000" fill-rule="evenodd" fill-opacity="1" /><polyline clip-path="url(#clip392)" style="stroke:#000000; stroke-linecap:round; stroke-linejoin:round; stroke-width:2; stroke-opacity:0.1; fill:none" points="
  181.747,1506.07 2640.76,1506.07 
  "/>
<polyline clip-path="url(#clip392)" style="stroke:#000000; stroke-linecap:round; stroke-linejoin:round; stroke-width:2; stroke-opacity:0.1; fill:none" points="
  181.747,1199.72 2640.76,1199.72 
  "/>
<polyline clip-path="url(#clip392)" style="stroke:#000000; stroke-linecap:round; stroke-linejoin:round; stroke-width:2; stroke-opacity:0.1; fill:none" points="
  181.747,893.377 2640.76,893.377 
  "/>
<polyline clip-path="url(#clip392)" style="stroke:#000000; stroke-linecap:round; stroke-linejoin:round; stroke-width:2; stroke-opacity:0.1; fill:none" points="
  181.747,587.029 2640.76,587.029 
  "/>
<polyline clip-path="url(#clip392)" style="stroke:#000000; stroke-linecap:round; stroke-linejoin:round; stroke-width:2; stroke-opacity:0.1; fill:none" points="
  181.747,280.681 2640.76,280.681 
  "/>
<polyline clip-path="url(#clip390)" style="stroke:#000000; stroke-linecap:round; stroke-linejoin:round; stroke-width:4; stroke-opacity:1; fill:none" points="
  181.747,1800.78 181.747,47.2441 
  "/>
<polyline clip-path="url(#clip390)" style="stroke:#000000; stroke-linecap:round; stroke-linejoin:round; stroke-width:4; stroke-opacity:1; fill:none" points="
  181.747,1506.07 200.644,1506.07 
  "/>
<polyline clip-path="url(#clip390)" style="stroke:#000000; stroke-linecap:round; stroke-linejoin:round; stroke-width:4; stroke-opacity:1; fill:none" points="
  181.747,1199.72 200.644,1199.72 
  "/>
<polyline clip-path="url(#clip390)" style="stroke:#000000; stroke-linecap:round; stroke-linejoin:round; stroke-width:4; stroke-opacity:1; fill:none" points="
  181.747,893.377 200.644,893.377 
  "/>
<polyline clip-path="url(#clip390)" style="stroke:#000000; stroke-linecap:round; stroke-linejoin:round; stroke-width:4; stroke-opacity:1; fill:none" points="
  181.747,587.029 200.644,587.029 
  "/>
<polyline clip-path="url(#clip390)" style="stroke:#000000; stroke-linecap:round; stroke-linejoin:round; stroke-width:4; stroke-opacity:1; fill:none" points="
  181.747,280.681 200.644,280.681 
  "/>
<path clip-path="url(#clip390)" d="M49.5521 1506.52 L79.2279 1506.52 L79.2279 1510.46 L49.5521 1510.46 L49.5521 1506.52 Z" fill="#000000" fill-rule="evenodd" fill-opacity="1" /><path clip-path="url(#clip390)" d="M90.1306 1519.42 L97.7695 1519.42 L97.7695 1493.05 L89.4593 1494.72 L89.4593 1490.46 L97.7232 1488.79 L102.399 1488.79 L102.399 1519.42 L110.038 1519.42 L110.038 1523.35 L90.1306 1523.35 L90.1306 1519.42 Z" fill="#000000" fill-rule="evenodd" fill-opacity="1" /><path clip-path="url(#clip390)" d="M129.482 1491.87 Q125.871 1491.87 124.042 1495.44 Q122.237 1498.98 122.237 1506.11 Q122.237 1513.21 124.042 1516.78 Q125.871 1520.32 129.482 1520.32 Q133.116 1520.32 134.922 1516.78 Q136.751 1513.21 136.751 1506.11 Q136.751 1498.98 134.922 1495.44 Q133.116 1491.87 129.482 1491.87 M129.482 1488.17 Q135.292 1488.17 138.348 1492.77 Q141.427 1497.36 141.427 1506.11 Q141.427 1514.83 138.348 1519.44 Q135.292 1524.02 129.482 1524.02 Q123.672 1524.02 120.593 1519.44 Q117.538 1514.83 117.538 1506.11 Q117.538 1497.36 120.593 1492.77 Q123.672 1488.17 129.482 1488.17 Z" fill="#000000" fill-rule="evenodd" fill-opacity="1" /><path clip-path="url(#clip390)" d="M129.482 1185.52 Q125.871 1185.52 124.042 1189.09 Q122.237 1192.63 122.237 1199.76 Q122.237 1206.87 124.042 1210.43 Q125.871 1213.97 129.482 1213.97 Q133.116 1213.97 134.922 1210.43 Q136.751 1206.87 136.751 1199.76 Q136.751 1192.63 134.922 1189.09 Q133.116 1185.52 129.482 1185.52 M129.482 1181.82 Q135.292 1181.82 138.348 1186.43 Q141.427 1191.01 141.427 1199.76 Q141.427 1208.49 138.348 1213.09 Q135.292 1217.68 129.482 1217.68 Q123.672 1217.68 120.593 1213.09 Q117.538 1208.49 117.538 1199.76 Q117.538 1191.01 120.593 1186.43 Q123.672 1181.82 129.482 1181.82 Z" fill="#000000" fill-rule="evenodd" fill-opacity="1" /><path clip-path="url(#clip390)" d="M90.1306 906.722 L97.7695 906.722 L97.7695 880.356 L89.4593 882.023 L89.4593 877.764 L97.7232 876.097 L102.399 876.097 L102.399 906.722 L110.038 906.722 L110.038 910.657 L90.1306 910.657 L90.1306 906.722 Z" fill="#000000" fill-rule="evenodd" fill-opacity="1" /><path clip-path="url(#clip390)" d="M129.482 879.176 Q125.871 879.176 124.042 882.74 Q122.237 886.282 122.237 893.412 Q122.237 900.518 124.042 904.083 Q125.871 907.625 129.482 907.625 Q133.116 907.625 134.922 904.083 Q136.751 900.518 136.751 893.412 Q136.751 886.282 134.922 882.74 Q133.116 879.176 129.482 879.176 M129.482 875.472 Q135.292 875.472 138.348 880.078 Q141.427 884.662 141.427 893.412 Q141.427 902.138 138.348 906.745 Q135.292 911.328 129.482 911.328 Q123.672 911.328 120.593 906.745 Q117.538 902.138 117.538 893.412 Q117.538 884.662 120.593 880.078 Q123.672 875.472 129.482 875.472 Z" fill="#000000" fill-rule="evenodd" fill-opacity="1" /><path clip-path="url(#clip390)" d="M93.3482 600.374 L109.668 600.374 L109.668 604.309 L87.7232 604.309 L87.7232 600.374 Q90.3852 597.619 94.9685 592.99 Q99.575 588.337 100.756 586.994 Q103.001 584.471 103.881 582.735 Q104.783 580.976 104.783 579.286 Q104.783 576.531 102.839 574.795 Q100.918 573.059 97.8158 573.059 Q95.6167 573.059 93.163 573.823 Q90.7325 574.587 87.9547 576.138 L87.9547 571.416 Q90.7788 570.281 93.2324 569.703 Q95.6861 569.124 97.7232 569.124 Q103.094 569.124 106.288 571.809 Q109.482 574.494 109.482 578.985 Q109.482 581.115 108.672 583.036 Q107.885 584.934 105.779 587.527 Q105.2 588.198 102.098 591.416 Q98.9963 594.61 93.3482 600.374 Z" fill="#000000" fill-rule="evenodd" fill-opacity="1" /><path clip-path="url(#clip390)" d="M129.482 572.828 Q125.871 572.828 124.042 576.393 Q122.237 579.934 122.237 587.064 Q122.237 594.17 124.042 597.735 Q125.871 601.277 129.482 601.277 Q133.116 601.277 134.922 597.735 Q136.751 594.17 136.751 587.064 Q136.751 579.934 134.922 576.393 Q133.116 572.828 129.482 572.828 M129.482 569.124 Q135.292 569.124 138.348 573.731 Q141.427 578.314 141.427 587.064 Q141.427 595.791 138.348 600.397 Q135.292 604.98 129.482 604.98 Q123.672 604.98 120.593 600.397 Q117.538 595.791 117.538 587.064 Q117.538 578.314 120.593 573.731 Q123.672 569.124 129.482 569.124 Z" fill="#000000" fill-rule="evenodd" fill-opacity="1" /><path clip-path="url(#clip390)" d="M103.487 279.327 Q106.843 280.045 108.718 282.313 Q110.617 284.582 110.617 287.915 Q110.617 293.031 107.098 295.832 Q103.58 298.632 97.0982 298.632 Q94.9223 298.632 92.6075 298.193 Q90.3158 297.776 87.8621 296.92 L87.8621 292.406 Q89.8065 293.54 92.1213 294.119 Q94.4361 294.697 96.9593 294.697 Q101.357 294.697 103.649 292.961 Q105.964 291.225 105.964 287.915 Q105.964 284.859 103.811 283.146 Q101.681 281.41 97.8621 281.41 L93.8343 281.41 L93.8343 277.568 L98.0472 277.568 Q101.496 277.568 103.325 276.202 Q105.154 274.813 105.154 272.221 Q105.154 269.559 103.256 268.147 Q101.381 266.711 97.8621 266.711 Q95.9408 266.711 93.7417 267.128 Q91.5426 267.545 88.9038 268.424 L88.9038 264.258 Q91.5658 263.517 93.8806 263.147 Q96.2185 262.776 98.2787 262.776 Q103.603 262.776 106.705 265.207 Q109.806 267.614 109.806 271.734 Q109.806 274.605 108.163 276.596 Q106.519 278.563 103.487 279.327 Z" fill="#000000" fill-rule="evenodd" fill-opacity="1" /><path clip-path="url(#clip390)" d="M129.482 266.48 Q125.871 266.48 124.042 270.045 Q122.237 273.586 122.237 280.716 Q122.237 287.822 124.042 291.387 Q125.871 294.929 129.482 294.929 Q133.116 294.929 134.922 291.387 Q136.751 287.822 136.751 280.716 Q136.751 273.586 134.922 270.045 Q133.116 266.48 129.482 266.48 M129.482 262.776 Q135.292 262.776 138.348 267.383 Q141.427 271.966 141.427 280.716 Q141.427 289.443 138.348 294.049 Q135.292 298.632 129.482 298.632 Q123.672 298.632 120.593 294.049 Q117.538 289.443 117.538 280.716 Q117.538 271.966 120.593 267.383 Q123.672 262.776 129.482 262.776 Z" fill="#000000" fill-rule="evenodd" fill-opacity="1" /><circle clip-path="url(#clip392)" cx="251.341" cy="1199.72" r="14.4" fill="#009af9" fill-rule="evenodd" fill-opacity="1" stroke="#000000" stroke-opacity="1" stroke-width="3.84"/>
<circle clip-path="url(#clip392)" cx="637.978" cy="1169.09" r="14.4" fill="#009af9" fill-rule="evenodd" fill-opacity="1" stroke="#000000" stroke-opacity="1" stroke-width="3.84"/>
<circle clip-path="url(#clip392)" cx="1024.61" cy="1077.19" r="14.4" fill="#009af9" fill-rule="evenodd" fill-opacity="1" stroke="#000000" stroke-opacity="1" stroke-width="3.84"/>
<circle clip-path="url(#clip392)" cx="1411.25" cy="924.012" r="14.4" fill="#009af9" fill-rule="evenodd" fill-opacity="1" stroke="#000000" stroke-opacity="1" stroke-width="3.84"/>
<circle clip-path="url(#clip392)" cx="1797.89" cy="709.568" r="14.4" fill="#009af9" fill-rule="evenodd" fill-opacity="1" stroke="#000000" stroke-opacity="1" stroke-width="3.84"/>
<circle clip-path="url(#clip392)" cx="2184.52" cy="433.855" r="14.4" fill="#009af9" fill-rule="evenodd" fill-opacity="1" stroke="#000000" stroke-opacity="1" stroke-width="3.84"/>
<circle clip-path="url(#clip392)" cx="2571.16" cy="96.8724" r="14.4" fill="#009af9" fill-rule="evenodd" fill-opacity="1" stroke="#000000" stroke-opacity="1" stroke-width="3.84"/>
<polyline clip-path="url(#clip392)" style="stroke:#0000ff; stroke-linecap:round; stroke-linejoin:round; stroke-width:4; stroke-opacity:1; fill:none" points="
  251.341,1199.72 637.978,1169.09 1024.61,1077.19 1411.25,924.012 1797.89,709.568 2184.52,433.855 2571.16,96.8724 
  "/>
<polyline clip-path="url(#clip392)" style="stroke:#3da44d; stroke-linecap:round; stroke-linejoin:round; stroke-width:4; stroke-opacity:1; fill:none" points="
  251.341,1199.72 266.445,1196.13 406.096,1162.94 490.021,1142.99 560.979,1126.12 638.058,1107.8 709.119,1090.91 785.303,1072.8 873.571,1051.82 952.012,1033.17 
  1020.8,1016.82 1095.79,998.997 1171.23,981.064 1254.64,961.238 1334.01,942.373 1416.52,922.758 1485.99,906.247 1570.79,886.088 1648.48,867.621 1720.23,850.566 
  1792.91,833.29 1874.37,813.928 1948.18,796.382 2032.69,776.294 2110.94,757.695 2188.08,739.357 2262.98,721.553 2339.76,703.302 2423.89,683.306 2546.09,654.258 
  2571.16,648.299 
  "/>
<polyline clip-path="url(#clip392)" style="stroke:#c271d2; stroke-linecap:round; stroke-linejoin:round; stroke-width:4; stroke-opacity:1; fill:none" points="
  251.341,1291.63 266.445,1286.84 406.096,1242.58 490.021,1215.98 560.979,1193.49 638.058,1169.06 709.119,1146.54 785.303,1122.4 873.571,1094.42 952.012,1069.56 
  1020.8,1047.76 1095.79,1023.99 1171.23,1000.08 1254.64,973.646 1334.01,948.493 1416.52,922.34 1485.99,900.325 1570.79,873.447 1648.48,848.825 1720.23,826.084 
  1792.91,803.049 1874.37,777.233 1948.18,753.839 2032.69,727.055 2110.94,702.255 2188.08,677.806 2262.98,654.067 2339.76,629.732 2423.89,603.071 2546.09,564.34 
  2571.16,556.394 
  "/>
<polyline clip-path="url(#clip392)" style="stroke:#ac8d18; stroke-linecap:round; stroke-linejoin:round; stroke-width:4; stroke-opacity:1; fill:none" points="
  251.341,1383.53 266.445,1377.55 406.096,1322.22 490.021,1288.98 560.979,1260.86 638.058,1230.33 709.119,1202.18 785.303,1171.99 873.571,1137.02 952.012,1105.95 
  1020.8,1078.7 1095.79,1048.99 1171.23,1019.1 1254.64,986.055 1334.01,954.614 1416.52,921.922 1485.99,894.403 1570.79,860.806 1648.48,830.028 1720.23,801.602 
  1792.91,772.808 1874.37,740.538 1948.18,711.296 2032.69,677.816 2110.94,646.816 2188.08,616.254 2262.98,586.581 2339.76,556.163 2423.89,522.835 2546.09,474.422 
  2571.16,464.49 
  "/>
<polyline clip-path="url(#clip392)" style="stroke:#00a9ad; stroke-linecap:round; stroke-linejoin:round; stroke-width:4; stroke-opacity:1; fill:none" points="
  251.341,1751.15 266.445,1740.38 406.096,1640.79 490.021,1580.95 560.979,1530.35 638.058,1475.38 709.119,1424.71 785.303,1370.38 873.571,1307.44 952.012,1251.5 
  1020.8,1202.45 1095.79,1148.97 1171.23,1095.17 1254.64,1035.69 1334.01,979.095 1416.52,920.251 1485.99,870.717 1570.79,810.241 1648.48,754.841 1720.23,703.675 
  1792.91,651.846 1874.37,593.759 1948.18,541.124 2032.69,480.859 2110.94,425.06 2188.08,370.049 2262.98,316.637 2339.76,261.883 2423.89,201.894 2546.09,114.75 
  2571.16,96.8724 
  "/>
<polyline clip-path="url(#clip392)" style="stroke:#ed5d92; stroke-linecap:round; stroke-linejoin:round; stroke-width:4; stroke-opacity:1; fill:none" points="
  251.341,1659.25 266.445,1649.67 406.096,1561.15 490.021,1507.95 560.979,1462.98 638.058,1414.12 709.119,1369.07 785.303,1320.78 873.571,1264.83 952.012,1215.11 
  1020.8,1171.51 1095.79,1123.97 1171.23,1076.15 1254.64,1023.28 1334.01,972.975 1416.52,920.669 1485.99,876.638 1570.79,822.882 1648.48,773.638 1720.23,728.157 
  1792.91,682.086 1874.37,630.454 1948.18,583.667 2032.69,530.099 2110.94,480.499 2188.08,431.6 2262.98,384.123 2339.76,335.453 2423.89,282.13 2546.09,204.668 
  2571.16,188.777 
  "/>
<polyline clip-path="url(#clip392)" style="stroke:#c68125; stroke-linecap:round; stroke-linejoin:round; stroke-width:4; stroke-opacity:1; fill:none" points="
  251.341,1567.34 266.445,1558.97 406.096,1481.51 490.021,1434.96 560.979,1395.61 638.058,1352.85 709.119,1313.44 785.303,1271.19 873.571,1222.23 952.012,1178.72 
  1020.8,1140.57 1095.79,1098.98 1171.23,1057.13 1254.64,1010.87 1334.01,966.855 1416.52,921.087 1485.99,882.56 1570.79,835.523 1648.48,792.434 1720.23,752.639 
  1792.91,712.327 1874.37,667.149 1948.18,626.21 2032.69,579.338 2110.94,535.938 2188.08,493.152 2262.98,451.609 2339.76,409.023 2423.89,362.365 2546.09,294.586 
  2571.16,280.681 
  "/>
</svg>
