<?xml version="1.0" encoding="utf-8"?>
<svg xmlns="http://www.w3.org/2000/svg" xmlns:xlink="http://www.w3.org/1999/xlink" width="672" height="480" viewBox="0 0 2688 1920">
<defs>
  <clipPath id="clip480">
    <rect x="0" y="0" width="2688" height="1920"/>
  </clipPath>
</defs>
<path clip-path="url(#clip480)" d="
M0 1920 L2688 1920 L2688 0 L0 0  Z
  " fill="#ffffff" fill-rule="evenodd" fill-opacity="1"/>
<defs>
  <clipPath id="clip481">
    <rect x="537" y="0" width="1883" height="1883"/>
  </clipPath>
</defs>
<defs>
  <clipPath id="clip482">
    <rect x="196" y="313" width="2445" height="1223"/>
  </clipPath>
</defs>
<path clip-path="url(#clip480)" d="
M196.816 1535 L2640.76 1535 L2640.76 313.027 L196.816 313.027  Z
  " fill="#ffffff" fill-rule="evenodd" fill-opacity="1"/>
<polyline clip-path="url(#clip482)" style="stroke:#000000; stroke-linecap:round; stroke-linejoin:round; stroke-width:2; stroke-opacity:0.1; fill:none" points="
  196.816,1535 196.816,313.027 
  "/>
<polyline clip-path="url(#clip482)" style="stroke:#000000; stroke-linecap:round; stroke-linejoin:round; stroke-width:2; stroke-opacity:0.1; fill:none" points="
  604.139,1535 604.139,313.027 
  "/>
<polyline clip-path="url(#clip482)" style="stroke:#000000; stroke-linecap:round; stroke-linejoin:round; stroke-width:2; stroke-opacity:0.1; fill:none" points="
  1011.46,1535 1011.46,313.027 
  "/>
<polyline clip-path="url(#clip482)" style="stroke:#000000; stroke-linecap:round; stroke-linejoin:round; stroke-width:2; stroke-opacity:0.1; fill:none" points="
  1418.79,1535 1418.79,313.027 
  "/>
<polyline clip-path="url(#clip482)" style="stroke:#000000; stroke-linecap:round; stroke-linejoin:round; stroke-width:2; stroke-opacity:0.1; fill:none" points="
  1826.11,1535 1826.11,313.027 
  "/>
<polyline clip-path="url(#clip482)" style="stroke:#000000; stroke-linecap:round; stroke-linejoin:round; stroke-width:2; stroke-opacity:0.1; fill:none" points="
  2233.43,1535 2233.43,313.027 
  "/>
<polyline clip-path="url(#clip482)" style="stroke:#000000; stroke-linecap:round; stroke-linejoin:round; stroke-width:2; stroke-opacity:0.1; fill:none" points="
  2640.76,1535 2640.76,313.027 
  "/>
<polyline clip-path="url(#clip480)" style="stroke:#000000; stroke-linecap:round; stroke-linejoin:round; stroke-width:4; stroke-opacity:1; fill:none" points="
  196.816,1535 2640.76,1535 
  "/>
<polyline clip-path="url(#clip480)" style="stroke:#000000; stroke-linecap:round; stroke-linejoin:round; stroke-width:4; stroke-opacity:1; fill:none" points="
  196.816,1535 196.816,1521.83 
  "/>
<polyline clip-path="url(#clip480)" style="stroke:#000000; stroke-linecap:round; stroke-linejoin:round; stroke-width:4; stroke-opacity:1; fill:none" points="
  604.139,1535 604.139,1521.83 
  "/>
<polyline clip-path="url(#clip480)" style="stroke:#000000; stroke-linecap:round; stroke-linejoin:round; stroke-width:4; stroke-opacity:1; fill:none" points="
  1011.46,1535 1011.46,1521.83 
  "/>
<polyline clip-path="url(#clip480)" style="stroke:#000000; stroke-linecap:round; stroke-linejoin:round; stroke-width:4; stroke-opacity:1; fill:none" points="
  1418.79,1535 1418.79,1521.83 
  "/>
<polyline clip-path="url(#clip480)" style="stroke:#000000; stroke-linecap:round; stroke-linejoin:round; stroke-width:4; stroke-opacity:1; fill:none" points="
  1826.11,1535 1826.11,1521.83 
  "/>
<polyline clip-path="url(#clip480)" style="stroke:#000000; stroke-linecap:round; stroke-linejoin:round; stroke-width:4; stroke-opacity:1; fill:none" points="
  2233.43,1535 2233.43,1521.83 
  "/>
<polyline clip-path="url(#clip480)" style="stroke:#000000; stroke-linecap:round; stroke-linejoin:round; stroke-width:4; stroke-opacity:1; fill:none" points="
  2640.76,1535 2640.76,1521.83 
  "/>
<path clip-path="url(#clip480)" d="M166.284 1582.87 L195.96 1582.87 L195.96 1586.81 L166.284 1586.81 L166.284 1582.87 Z" fill="#000000" fill-rule="evenodd" fill-opacity="1" /><path clip-path="url(#clip480)" d="M220.219 1581.07 Q223.575 1581.78 225.45 1584.05 Q227.348 1586.32 227.348 1589.65 Q227.348 1594.77 223.83 1597.57 Q220.311 1600.37 213.83 1600.37 Q211.654 1600.37 209.339 1599.93 Q207.047 1599.52 204.594 1598.66 L204.594 1594.15 Q206.538 1595.28 208.853 1595.86 Q211.168 1596.44 213.691 1596.44 Q218.089 1596.44 220.381 1594.7 Q222.695 1592.96 222.695 1589.65 Q222.695 1586.6 220.543 1584.89 Q218.413 1583.15 214.594 1583.15 L210.566 1583.15 L210.566 1579.31 L214.779 1579.31 Q218.228 1579.31 220.057 1577.94 Q221.885 1576.55 221.885 1573.96 Q221.885 1571.3 219.987 1569.89 Q218.112 1568.45 214.594 1568.45 Q212.672 1568.45 210.473 1568.87 Q208.274 1569.28 205.635 1570.16 L205.635 1566 Q208.297 1565.26 210.612 1564.89 Q212.95 1564.52 215.01 1564.52 Q220.334 1564.52 223.436 1566.95 Q226.538 1569.35 226.538 1573.47 Q226.538 1576.34 224.895 1578.34 Q223.251 1580.3 220.219 1581.07 Z" fill="#000000" fill-rule="evenodd" fill-opacity="1" /><path clip-path="url(#clip480)" d="M574.082 1582.87 L603.757 1582.87 L603.757 1586.81 L574.082 1586.81 L574.082 1582.87 Z" fill="#000000" fill-rule="evenodd" fill-opacity="1" /><path clip-path="url(#clip480)" d="M617.878 1595.77 L634.197 1595.77 L634.197 1599.7 L612.253 1599.7 L612.253 1595.77 Q614.915 1593.01 619.498 1588.38 Q624.104 1583.73 625.285 1582.39 Q627.53 1579.86 628.41 1578.13 Q629.313 1576.37 629.313 1574.68 Q629.313 1571.92 627.368 1570.19 Q625.447 1568.45 622.345 1568.45 Q620.146 1568.45 617.692 1569.21 Q615.262 1569.98 612.484 1571.53 L612.484 1566.81 Q615.308 1565.67 617.762 1565.09 Q620.216 1564.52 622.253 1564.52 Q627.623 1564.52 630.817 1567.2 Q634.012 1569.89 634.012 1574.38 Q634.012 1576.51 633.202 1578.43 Q632.415 1580.33 630.308 1582.92 Q629.729 1583.59 626.628 1586.81 Q623.526 1590 617.878 1595.77 Z" fill="#000000" fill-rule="evenodd" fill-opacity="1" /><path clip-path="url(#clip480)" d="M981.22 1582.87 L1010.9 1582.87 L1010.9 1586.81 L981.22 1586.81 L981.22 1582.87 Z" fill="#000000" fill-rule="evenodd" fill-opacity="1" /><path clip-path="url(#clip480)" d="M1021.8 1595.77 L1029.44 1595.77 L1029.44 1569.4 L1021.13 1571.07 L1021.13 1566.81 L1029.39 1565.14 L1034.07 1565.14 L1034.07 1595.77 L1041.71 1595.77 L1041.71 1599.7 L1021.8 1599.7 L1021.8 1595.77 Z" fill="#000000" fill-rule="evenodd" fill-opacity="1" /><path clip-path="url(#clip480)" d="M1418.79 1568.22 Q1415.17 1568.22 1413.35 1571.78 Q1411.54 1575.33 1411.54 1582.46 Q1411.54 1589.56 1413.35 1593.13 Q1415.17 1596.67 1418.79 1596.67 Q1422.42 1596.67 1424.23 1593.13 Q1426.05 1589.56 1426.05 1582.46 Q1426.05 1575.33 1424.23 1571.78 Q1422.42 1568.22 1418.79 1568.22 M1418.79 1564.52 Q1424.6 1564.52 1427.65 1569.12 Q1430.73 1573.71 1430.73 1582.46 Q1430.73 1591.18 1427.65 1595.79 Q1424.6 1600.37 1418.79 1600.37 Q1412.98 1600.37 1409.9 1595.79 Q1406.84 1591.18 1406.84 1582.46 Q1406.84 1573.71 1409.9 1569.12 Q1412.98 1564.52 1418.79 1564.52 Z" fill="#000000" fill-rule="evenodd" fill-opacity="1" /><path clip-path="url(#clip480)" d="M1816.49 1595.77 L1824.13 1595.77 L1824.13 1569.4 L1815.82 1571.07 L1815.82 1566.81 L1824.08 1565.14 L1828.76 1565.14 L1828.76 1595.77 L1836.4 1595.77 L1836.4 1599.7 L1816.49 1599.7 L1816.49 1595.77 Z" fill="#000000" fill-rule="evenodd" fill-opacity="1" /><path clip-path="url(#clip480)" d="M2228.09 1595.77 L2244.4 1595.77 L2244.4 1599.7 L2222.46 1599.7 L2222.46 1595.77 Q2225.12 1593.01 2229.71 1588.38 Q2234.31 1583.73 2235.49 1582.39 Q2237.74 1579.86 2238.62 1578.13 Q2239.52 1576.37 2239.52 1574.68 Q2239.52 1571.92 2237.58 1570.19 Q2235.65 1568.45 2232.55 1568.45 Q2230.35 1568.45 2227.9 1569.21 Q2225.47 1569.98 2222.69 1571.53 L2222.69 1566.81 Q2225.52 1565.67 2227.97 1565.09 Q2230.42 1564.52 2232.46 1564.52 Q2237.83 1564.52 2241.03 1567.2 Q2244.22 1569.89 2244.22 1574.38 Q2244.22 1576.51 2243.41 1578.43 Q2242.62 1580.33 2240.52 1582.92 Q2239.94 1583.59 2236.84 1586.81 Q2233.73 1590 2228.09 1595.77 Z" fill="#000000" fill-rule="evenodd" fill-opacity="1" /><path clip-path="url(#clip480)" d="M2645 1581.07 Q2648.36 1581.78 2650.24 1584.05 Q2652.13 1586.32 2652.13 1589.65 Q2652.13 1594.77 2648.61 1597.57 Q2645.1 1600.37 2638.61 1600.37 Q2636.44 1600.37 2634.12 1599.93 Q2631.83 1599.52 2629.38 1598.66 L2629.38 1594.15 Q2631.32 1595.28 2633.64 1595.86 Q2635.95 1596.44 2638.48 1596.44 Q2642.87 1596.44 2645.17 1594.7 Q2647.48 1592.96 2647.48 1589.65 Q2647.48 1586.6 2645.33 1584.89 Q2643.2 1583.15 2639.38 1583.15 L2635.35 1583.15 L2635.35 1579.31 L2639.56 1579.31 Q2643.01 1579.31 2644.84 1577.94 Q2646.67 1576.55 2646.67 1573.96 Q2646.67 1571.3 2644.77 1569.89 Q2642.9 1568.45 2639.38 1568.45 Q2637.46 1568.45 2635.26 1568.87 Q2633.06 1569.28 2630.42 1570.16 L2630.42 1566 Q2633.08 1565.26 2635.4 1564.89 Q2637.74 1564.52 2639.8 1564.52 Q2645.12 1564.52 2648.22 1566.95 Q2651.32 1569.35 2651.32 1573.47 Q2651.32 1576.34 2649.68 1578.34 Q2648.04 1580.3 2645 1581.07 Z" fill="#000000" fill-rule="evenodd" fill-opacity="1" /><polyline clip-path="url(#clip482)" style="stroke:#000000; stroke-linecap:round; stroke-linejoin:round; stroke-width:2; stroke-opacity:0.1; fill:none" points="
  196.816,1535 2640.76,1535 
  "/>
<polyline clip-path="url(#clip482)" style="stroke:#000000; stroke-linecap:round; stroke-linejoin:round; stroke-width:2; stroke-opacity:0.1; fill:none" points="
  196.816,1331.34 2640.76,1331.34 
  "/>
<polyline clip-path="url(#clip482)" style="stroke:#000000; stroke-linecap:round; stroke-linejoin:round; stroke-width:2; stroke-opacity:0.1; fill:none" points="
  196.816,1127.67 2640.76,1127.67 
  "/>
<polyline clip-path="url(#clip482)" style="stroke:#000000; stroke-linecap:round; stroke-linejoin:round; stroke-width:2; stroke-opacity:0.1; fill:none" points="
  196.816,924.012 2640.76,924.012 
  "/>
<polyline clip-path="url(#clip482)" style="stroke:#000000; stroke-linecap:round; stroke-linejoin:round; stroke-width:2; stroke-opacity:0.1; fill:none" points="
  196.816,720.35 2640.76,720.35 
  "/>
<polyline clip-path="url(#clip482)" style="stroke:#000000; stroke-linecap:round; stroke-linejoin:round; stroke-width:2; stroke-opacity:0.1; fill:none" points="
  196.816,516.688 2640.76,516.688 
  "/>
<polyline clip-path="url(#clip482)" style="stroke:#000000; stroke-linecap:round; stroke-linejoin:round; stroke-width:2; stroke-opacity:0.1; fill:none" points="
  196.816,313.027 2640.76,313.027 
  "/>
<polyline clip-path="url(#clip480)" style="stroke:#000000; stroke-linecap:round; stroke-linejoin:round; stroke-width:4; stroke-opacity:1; fill:none" points="
  196.816,1535 196.816,313.027 
  "/>
<polyline clip-path="url(#clip480)" style="stroke:#000000; stroke-linecap:round; stroke-linejoin:round; stroke-width:4; stroke-opacity:1; fill:none" points="
  196.816,1535 215.714,1535 
  "/>
<polyline clip-path="url(#clip480)" style="stroke:#000000; stroke-linecap:round; stroke-linejoin:round; stroke-width:4; stroke-opacity:1; fill:none" points="
  196.816,1331.34 215.714,1331.34 
  "/>
<polyline clip-path="url(#clip480)" style="stroke:#000000; stroke-linecap:round; stroke-linejoin:round; stroke-width:4; stroke-opacity:1; fill:none" points="
  196.816,1127.67 215.714,1127.67 
  "/>
<polyline clip-path="url(#clip480)" style="stroke:#000000; stroke-linecap:round; stroke-linejoin:round; stroke-width:4; stroke-opacity:1; fill:none" points="
  196.816,924.012 215.714,924.012 
  "/>
<polyline clip-path="url(#clip480)" style="stroke:#000000; stroke-linecap:round; stroke-linejoin:round; stroke-width:4; stroke-opacity:1; fill:none" points="
  196.816,720.35 215.714,720.35 
  "/>
<polyline clip-path="url(#clip480)" style="stroke:#000000; stroke-linecap:round; stroke-linejoin:round; stroke-width:4; stroke-opacity:1; fill:none" points="
  196.816,516.688 215.714,516.688 
  "/>
<polyline clip-path="url(#clip480)" style="stroke:#000000; stroke-linecap:round; stroke-linejoin:round; stroke-width:4; stroke-opacity:1; fill:none" points="
  196.816,313.027 215.714,313.027 
  "/>
<path clip-path="url(#clip480)" d="M50.5475 1535.45 L80.2233 1535.45 L80.2233 1539.38 L50.5475 1539.38 L50.5475 1535.45 Z" fill="#000000" fill-rule="evenodd" fill-opacity="1" /><path clip-path="url(#clip480)" d="M91.126 1548.34 L98.7648 1548.34 L98.7648 1521.98 L90.4547 1523.64 L90.4547 1519.38 L98.7185 1517.72 L103.394 1517.72 L103.394 1548.34 L111.033 1548.34 L111.033 1552.28 L91.126 1552.28 L91.126 1548.34 Z" fill="#000000" fill-rule="evenodd" fill-opacity="1" /><path clip-path="url(#clip480)" d="M120.478 1546.4 L125.362 1546.4 L125.362 1552.28 L120.478 1552.28 L120.478 1546.4 Z" fill="#000000" fill-rule="evenodd" fill-opacity="1" /><path clip-path="url(#clip480)" d="M135.593 1517.72 L153.95 1517.72 L153.95 1521.65 L139.876 1521.65 L139.876 1530.12 Q140.894 1529.78 141.913 1529.61 Q142.931 1529.43 143.95 1529.43 Q149.737 1529.43 153.116 1532.6 Q156.496 1535.77 156.496 1541.19 Q156.496 1546.77 153.024 1549.87 Q149.552 1552.95 143.232 1552.95 Q141.056 1552.95 138.788 1552.58 Q136.542 1552.21 134.135 1551.47 L134.135 1546.77 Q136.218 1547.9 138.441 1548.46 Q140.663 1549.01 143.14 1549.01 Q147.144 1549.01 149.482 1546.91 Q151.82 1544.8 151.82 1541.19 Q151.82 1537.58 149.482 1535.47 Q147.144 1533.36 143.14 1533.36 Q141.265 1533.36 139.39 1533.78 Q137.538 1534.2 135.593 1535.08 L135.593 1517.72 Z" fill="#000000" fill-rule="evenodd" fill-opacity="1" /><path clip-path="url(#clip480)" d="M49.5521 1331.79 L79.2279 1331.79 L79.2279 1335.72 L49.5521 1335.72 L49.5521 1331.79 Z" fill="#000000" fill-rule="evenodd" fill-opacity="1" /><path clip-path="url(#clip480)" d="M90.1306 1344.68 L97.7695 1344.68 L97.7695 1318.31 L89.4593 1319.98 L89.4593 1315.72 L97.7232 1314.06 L102.399 1314.06 L102.399 1344.68 L110.038 1344.68 L110.038 1348.62 L90.1306 1348.62 L90.1306 1344.68 Z" fill="#000000" fill-rule="evenodd" fill-opacity="1" /><path clip-path="url(#clip480)" d="M119.482 1342.74 L124.367 1342.74 L124.367 1348.62 L119.482 1348.62 L119.482 1342.74 Z" fill="#000000" fill-rule="evenodd" fill-opacity="1" /><path clip-path="url(#clip480)" d="M144.552 1317.13 Q140.941 1317.13 139.112 1320.7 Q137.306 1324.24 137.306 1331.37 Q137.306 1338.48 139.112 1342.04 Q140.941 1345.58 144.552 1345.58 Q148.186 1345.58 149.991 1342.04 Q151.82 1338.48 151.82 1331.37 Q151.82 1324.24 149.991 1320.7 Q148.186 1317.13 144.552 1317.13 M144.552 1313.43 Q150.362 1313.43 153.417 1318.04 Q156.496 1322.62 156.496 1331.37 Q156.496 1340.1 153.417 1344.7 Q150.362 1349.29 144.552 1349.29 Q138.741 1349.29 135.663 1344.7 Q132.607 1340.1 132.607 1331.37 Q132.607 1322.62 135.663 1318.04 Q138.741 1313.43 144.552 1313.43 Z" fill="#000000" fill-rule="evenodd" fill-opacity="1" /><path clip-path="url(#clip480)" d="M50.5475 1128.12 L80.2233 1128.12 L80.2233 1132.06 L50.5475 1132.06 L50.5475 1128.12 Z" fill="#000000" fill-rule="evenodd" fill-opacity="1" /><path clip-path="url(#clip480)" d="M100.316 1113.47 Q96.7047 1113.47 94.876 1117.04 Q93.0704 1120.58 93.0704 1127.71 Q93.0704 1134.81 94.876 1138.38 Q96.7047 1141.92 100.316 1141.92 Q103.95 1141.92 105.756 1138.38 Q107.584 1134.81 107.584 1127.71 Q107.584 1120.58 105.756 1117.04 Q103.95 1113.47 100.316 1113.47 M100.316 1109.77 Q106.126 1109.77 109.181 1114.37 Q112.26 1118.96 112.26 1127.71 Q112.26 1136.43 109.181 1141.04 Q106.126 1145.62 100.316 1145.62 Q94.5056 1145.62 91.4269 1141.04 Q88.3714 1136.43 88.3714 1127.71 Q88.3714 1118.96 91.4269 1114.37 Q94.5056 1109.77 100.316 1109.77 Z" fill="#000000" fill-rule="evenodd" fill-opacity="1" /><path clip-path="url(#clip480)" d="M120.478 1139.07 L125.362 1139.07 L125.362 1144.95 L120.478 1144.95 L120.478 1139.07 Z" fill="#000000" fill-rule="evenodd" fill-opacity="1" /><path clip-path="url(#clip480)" d="M135.593 1110.39 L153.95 1110.39 L153.95 1114.33 L139.876 1114.33 L139.876 1122.8 Q140.894 1122.45 141.913 1122.29 Q142.931 1122.11 143.95 1122.11 Q149.737 1122.11 153.116 1125.28 Q156.496 1128.45 156.496 1133.87 Q156.496 1139.44 153.024 1142.55 Q149.552 1145.62 143.232 1145.62 Q141.056 1145.62 138.788 1145.25 Q136.542 1144.88 134.135 1144.14 L134.135 1139.44 Q136.218 1140.58 138.441 1141.13 Q140.663 1141.69 143.14 1141.69 Q147.144 1141.69 149.482 1139.58 Q151.82 1137.48 151.82 1133.87 Q151.82 1130.25 149.482 1128.15 Q147.144 1126.04 143.14 1126.04 Q141.265 1126.04 139.39 1126.46 Q137.538 1126.87 135.593 1127.75 L135.593 1110.39 Z" fill="#000000" fill-rule="evenodd" fill-opacity="1" /><path clip-path="url(#clip480)" d="M99.3204 909.81 Q95.7093 909.81 93.8806 913.375 Q92.075 916.917 92.075 924.046 Q92.075 931.153 93.8806 934.718 Q95.7093 938.259 99.3204 938.259 Q102.955 938.259 104.76 934.718 Q106.589 931.153 106.589 924.046 Q106.589 916.917 104.76 913.375 Q102.955 909.81 99.3204 909.81 M99.3204 906.107 Q105.131 906.107 108.186 910.713 Q111.265 915.296 111.265 924.046 Q111.265 932.773 108.186 937.38 Q105.131 941.963 99.3204 941.963 Q93.5102 941.963 90.4315 937.38 Q87.376 932.773 87.376 924.046 Q87.376 915.296 90.4315 910.713 Q93.5102 906.107 99.3204 906.107 Z" fill="#000000" fill-rule="evenodd" fill-opacity="1" /><path clip-path="url(#clip480)" d="M119.482 935.412 L124.367 935.412 L124.367 941.292 L119.482 941.292 L119.482 935.412 Z" fill="#000000" fill-rule="evenodd" fill-opacity="1" /><path clip-path="url(#clip480)" d="M144.552 909.81 Q140.941 909.81 139.112 913.375 Q137.306 916.917 137.306 924.046 Q137.306 931.153 139.112 934.718 Q140.941 938.259 144.552 938.259 Q148.186 938.259 149.991 934.718 Q151.82 931.153 151.82 924.046 Q151.82 916.917 149.991 913.375 Q148.186 909.81 144.552 909.81 M144.552 906.107 Q150.362 906.107 153.417 910.713 Q156.496 915.296 156.496 924.046 Q156.496 932.773 153.417 937.38 Q150.362 941.963 144.552 941.963 Q138.741 941.963 135.663 937.38 Q132.607 932.773 132.607 924.046 Q132.607 915.296 135.663 910.713 Q138.741 906.107 144.552 906.107 Z" fill="#000000" fill-rule="evenodd" fill-opacity="1" /><path clip-path="url(#clip480)" d="M100.316 706.149 Q96.7047 706.149 94.876 709.714 Q93.0704 713.255 93.0704 720.385 Q93.0704 727.491 94.876 731.056 Q96.7047 734.598 100.316 734.598 Q103.95 734.598 105.756 731.056 Q107.584 727.491 107.584 720.385 Q107.584 713.255 105.756 709.714 Q103.95 706.149 100.316 706.149 M100.316 702.445 Q106.126 702.445 109.181 707.051 Q112.26 711.635 112.26 720.385 Q112.26 729.112 109.181 733.718 Q106.126 738.301 100.316 738.301 Q94.5056 738.301 91.4269 733.718 Q88.3714 729.112 88.3714 720.385 Q88.3714 711.635 91.4269 707.051 Q94.5056 702.445 100.316 702.445 Z" fill="#000000" fill-rule="evenodd" fill-opacity="1" /><path clip-path="url(#clip480)" d="M120.478 731.75 L125.362 731.75 L125.362 737.63 L120.478 737.63 L120.478 731.75 Z" fill="#000000" fill-rule="evenodd" fill-opacity="1" /><path clip-path="url(#clip480)" d="M135.593 703.07 L153.95 703.07 L153.95 707.005 L139.876 707.005 L139.876 715.477 Q140.894 715.13 141.913 714.968 Q142.931 714.783 143.95 714.783 Q149.737 714.783 153.116 717.954 Q156.496 721.125 156.496 726.542 Q156.496 732.121 153.024 735.223 Q149.552 738.301 143.232 738.301 Q141.056 738.301 138.788 737.931 Q136.542 737.561 134.135 736.82 L134.135 732.121 Q136.218 733.255 138.441 733.811 Q140.663 734.366 143.14 734.366 Q147.144 734.366 149.482 732.26 Q151.82 730.153 151.82 726.542 Q151.82 722.931 149.482 720.825 Q147.144 718.718 143.14 718.718 Q141.265 718.718 139.39 719.135 Q137.538 719.551 135.593 720.431 L135.593 703.07 Z" fill="#000000" fill-rule="evenodd" fill-opacity="1" /><path clip-path="url(#clip480)" d="M90.1306 530.033 L97.7695 530.033 L97.7695 503.668 L89.4593 505.334 L89.4593 501.075 L97.7232 499.408 L102.399 499.408 L102.399 530.033 L110.038 530.033 L110.038 533.968 L90.1306 533.968 L90.1306 530.033 Z" fill="#000000" fill-rule="evenodd" fill-opacity="1" /><path clip-path="url(#clip480)" d="M119.482 528.089 L124.367 528.089 L124.367 533.968 L119.482 533.968 L119.482 528.089 Z" fill="#000000" fill-rule="evenodd" fill-opacity="1" /><path clip-path="url(#clip480)" d="M144.552 502.487 Q140.941 502.487 139.112 506.052 Q137.306 509.594 137.306 516.723 Q137.306 523.83 139.112 527.394 Q140.941 530.936 144.552 530.936 Q148.186 530.936 149.991 527.394 Q151.82 523.83 151.82 516.723 Q151.82 509.594 149.991 506.052 Q148.186 502.487 144.552 502.487 M144.552 498.783 Q150.362 498.783 153.417 503.39 Q156.496 507.973 156.496 516.723 Q156.496 525.45 153.417 530.056 Q150.362 534.64 144.552 534.64 Q138.741 534.64 135.663 530.056 Q132.607 525.45 132.607 516.723 Q132.607 507.973 135.663 503.39 Q138.741 498.783 144.552 498.783 Z" fill="#000000" fill-rule="evenodd" fill-opacity="1" /><path clip-path="url(#clip480)" d="M91.126 326.372 L98.7648 326.372 L98.7648 300.006 L90.4547 301.673 L90.4547 297.413 L98.7185 295.747 L103.394 295.747 L103.394 326.372 L111.033 326.372 L111.033 330.307 L91.126 330.307 L91.126 326.372 Z" fill="#000000" fill-rule="evenodd" fill-opacity="1" /><path clip-path="url(#clip480)" d="M120.478 324.427 L125.362 324.427 L125.362 330.307 L120.478 330.307 L120.478 324.427 Z" fill="#000000" fill-rule="evenodd" fill-opacity="1" /><path clip-path="url(#clip480)" d="M135.593 295.747 L153.95 295.747 L153.95 299.682 L139.876 299.682 L139.876 308.154 Q140.894 307.807 141.913 307.645 Q142.931 307.46 143.95 307.46 Q149.737 307.46 153.116 310.631 Q156.496 313.802 156.496 319.219 Q156.496 324.797 153.024 327.899 Q149.552 330.978 143.232 330.978 Q141.056 330.978 138.788 330.608 Q136.542 330.237 134.135 329.497 L134.135 324.797 Q136.218 325.932 138.441 326.487 Q140.663 327.043 143.14 327.043 Q147.144 327.043 149.482 324.936 Q151.82 322.83 151.82 319.219 Q151.82 315.608 149.482 313.501 Q147.144 311.395 143.14 311.395 Q141.265 311.395 139.39 311.811 Q137.538 312.228 135.593 313.108 L135.593 295.747 Z" fill="#000000" fill-rule="evenodd" fill-opacity="1" /><polyline clip-path="url(#clip482)" style="stroke:#1e90ff; stroke-linecap:round; stroke-linejoin:round; stroke-width:4; stroke-opacity:1; fill:none" points="
  1375.04,870.417 1377.54,873.479 1378.97,875.351 1380.04,876.542 1382.6,879.604 1385,882.667 1385.1,882.804 1387.64,885.729 1390.1,888.792 1391.22,890.314 
  1392.64,891.855 1395.2,894.917 1397.35,897.779 1397.55,897.98 1400.28,901.042 1402.66,904.105 1403.47,905.322 1405.32,907.168 1407.87,910.23 1409.6,912.815 
  1410.24,913.293 1413.3,916.355 1415.34,919.418 1415.72,920.566 1421.85,920.566 1422.23,919.418 1424.27,916.355 1427.34,913.293 1427.97,912.815 1429.7,910.23 
  1432.25,907.168 1434.1,905.322 1434.91,904.105 1437.3,901.042 1440.02,897.98 1440.22,897.779 1442.38,894.917 1444.93,891.855 1446.35,890.314 1447.47,888.792 
  1449.93,885.729 1452.47,882.804 1452.57,882.667 1454.97,879.604 1457.54,876.542 1458.6,875.351 1460.04,873.479 1462.53,870.417 1464.72,867.88 1465.12,867.354 
  1467.57,864.291 1470.15,861.229 1470.85,860.435 1472.64,858.166 1475.16,855.104 1476.97,853.002 1477.72,852.041 1480.21,848.978 1482.8,845.916 1483.1,845.577 
  1485.29,842.853 1487.84,839.791 1489.23,838.186 1490.38,836.728 1492.91,833.666 1495.35,830.796 1495.5,830.603 1498,827.54 1500.58,824.478 1501.48,823.446 
  1503.12,821.415 1505.68,818.353 1507.6,816.11 1508.26,815.29 1510.8,812.227 1513.4,809.165 1513.73,808.796 1515.94,806.102 1518.53,803.04 1519.85,801.519 
  1521.12,799.977 1523.69,796.915 1525.98,794.259 1526.31,793.852 1528.87,790.789 1531.5,787.727 1532.1,787.037 1534.08,784.664 1536.7,781.602 1538.23,779.847 
  1539.32,778.539 1541.92,775.477 1544.35,772.683 1544.58,772.414 1547.18,769.351 1549.84,766.289 1550.48,765.564 1552.46,763.226 1555.12,760.164 1556.6,758.481 
  1557.78,757.101 1560.43,754.038 1562.73,751.432 1563.12,750.976 1565.77,747.913 1568.47,744.851 1568.85,744.428 1571.14,741.788 1573.85,738.726 1574.98,737.47 
  1576.55,735.663 1579.26,732.6 1581.1,730.553 1581.99,729.538 1584.71,726.475 1587.23,723.681 1587.46,723.413 1590.19,720.35 1592.96,717.287 1593.35,716.862 
  1595.71,714.225 1598.5,711.162 1599.48,710.096 1601.27,708.1 1604.07,705.037 1605.6,703.381 1606.88,701.975 1609.69,698.912 1611.73,696.719 1612.52,695.849 
  1615.35,692.787 1617.85,690.113 1618.21,689.724 1621.06,686.662 1623.95,683.599 1623.98,683.567 1626.82,680.536 1629.73,677.474 1630.1,677.086 1632.63,674.411 
  1635.57,671.349 1636.23,670.667 1638.5,668.286 1641.46,665.224 1642.35,664.313 1644.43,662.161 1647.42,659.098 1648.48,658.027 1650.42,656.036 1653.44,652.973 
  1654.6,651.81 1656.48,649.911 1659.54,646.848 1660.73,645.665 1662.61,643.786 1665.7,640.723 1666.86,639.595 1668.81,637.66 1671.95,634.598 1672.98,633.602 
  1675.1,631.535 1678.28,628.473 1679.11,627.687 1681.48,625.41 1684.71,622.347 1685.23,621.854 1687.95,619.285 1691.23,616.222 1691.36,616.104 1694.53,613.16 
  1697.48,610.444 1697.86,610.097 1701.21,607.035 1703.61,604.873 1704.6,603.972 1708.02,600.909 1709.73,599.393 1711.48,597.847 1714.96,594.784 1715.86,594.006 
  1718.49,591.722 1721.98,588.715 1722.05,588.659 1725.65,585.596 1728.11,583.529 1729.29,582.534 1732.98,579.471 1734.23,578.443 1736.72,576.409 1740.36,573.461 
  1740.5,573.346 1744.34,570.284 1746.48,568.592 1748.23,567.221 1752.18,564.158 1752.61,563.831 1756.2,561.096 1758.73,559.188 1760.28,558.033 1764.43,554.971 
  1764.86,554.66 1768.67,551.908 1770.98,550.258 1772.99,548.845 1777.11,545.976 1777.39,545.783 1781.91,542.72 1783.23,541.827 1786.53,539.658 1789.36,537.809 
  1791.26,536.595 1795.48,533.924 1796.12,533.533 1801.13,530.47 1801.61,530.181 1806.32,527.407 1807.73,526.583 1811.7,524.345 1813.86,523.133 1817.28,521.282 
  1819.98,519.834 1823.12,518.22 1826.11,516.691 1829.25,515.157 1832.23,513.71 1835.74,512.095 1838.36,510.895 1842.66,509.032 1844.48,508.25 1850.14,505.969 
  1850.61,505.78 1856.74,503.494 1858.44,502.907 1862.86,501.396 1867.83,499.844 1868.99,499.487 1875.11,497.781 1879.17,496.782 1881.24,496.278 1887.36,494.989 
  1893.49,493.916 1894.91,493.719 1899.61,493.073 1905.74,492.464 1911.86,492.098 1917.99,491.983 1924.11,492.13 1930.24,492.547 1936.36,493.245 1939.3,493.719 
  1942.49,494.237 1948.61,495.535 1953.35,496.782 1954.74,497.149 1960.86,499.097 1962.87,499.844 1966.99,501.392 1970.49,502.907 1973.11,504.051 1976.99,505.969 
  1979.24,507.091 1982.7,509.032 1985.36,510.533 1987.85,512.095 1991.49,514.397 1992.58,515.157 1996.93,518.22 1997.61,518.708 2000.92,521.282 2003.74,523.493 
  2004.73,524.345 2008.28,527.407 2009.86,528.781 2011.65,530.47 2014.87,533.533 2015.99,534.603 2017.91,536.595 2020.84,539.658 2022.11,540.999 2023.63,542.72 
  2026.31,545.783 2028.24,548.009 2028.92,548.845 2031.37,551.908 2033.8,554.971 2034.36,555.684 2036.09,558.033 2038.33,561.096 2040.49,564.078 2040.54,564.158 
  2042.6,567.221 2044.65,570.284 2046.62,573.261 2046.67,573.346 2048.55,576.409 2050.42,579.471 2052.27,582.534 2052.74,583.313 2054.03,585.596 2055.74,588.659 
  2057.44,591.722 2058.87,594.322 2059.1,594.784 2060.68,597.847 2062.23,600.909 2063.77,603.972 2064.99,606.411 2065.28,607.035 2066.71,610.097 2068.13,613.16 
  2069.53,616.222 2070.92,619.285 2071.12,619.722 2072.23,622.347 2073.52,625.41 2074.79,628.473 2076.06,631.535 2077.24,634.444 2077.3,634.598 2078.47,637.66 
  2079.63,640.723 2080.78,643.786 2081.91,646.848 2083.03,649.911 2083.37,650.829 2084.1,652.973 2085.15,656.036 2086.18,659.098 2087.19,662.161 2088.2,665.224 
  2089.19,668.286 2089.49,669.212 2090.14,671.349 2091.07,674.411 2091.98,677.474 2092.88,680.536 2093.77,683.599 2094.65,686.662 2095.51,689.724 2095.62,690.088 
  2096.33,692.787 2097.14,695.849 2097.93,698.912 2098.72,701.975 2099.49,705.037 2100.25,708.1 2101,711.162 2101.74,714.225 2101.74,714.229 2102.44,717.287 
  2103.12,720.35 2103.8,723.413 2104.46,726.475 2105.12,729.538 2105.76,732.6 2106.39,735.663 2107.02,738.726 2107.63,741.788 2107.87,742.977 2108.22,744.851 
  2108.79,747.913 2109.34,750.976 2109.89,754.038 2110.43,757.101 2110.95,760.164 2111.47,763.226 2111.98,766.289 2112.48,769.351 2112.97,772.414 2113.44,775.477 
  2113.91,778.539 2113.99,779.064 2114.36,781.602 2114.78,784.664 2115.21,787.727 2115.62,790.789 2116.02,793.852 2116.41,796.915 2116.79,799.977 2117.17,803.04 
  2117.53,806.102 2117.88,809.165 2118.23,812.227 2118.57,815.29 2118.89,818.353 2119.21,821.415 2119.52,824.478 2119.82,827.54 2120.11,830.603 2120.12,830.722 
  2120.37,833.666 2120.63,836.728 2120.88,839.791 2121.13,842.853 2121.36,845.916 2121.58,848.978 2121.8,852.041 2122,855.104 2122.2,858.166 2122.38,861.229 
  2122.56,864.291 2122.73,867.354 2122.89,870.417 2123.05,873.479 2123.19,876.542 2123.32,879.604 2123.45,882.667 2123.56,885.729 2123.67,888.792 2123.77,891.855 
  2123.86,894.917 2123.94,897.98 2124.01,901.042 2124.07,904.105 2124.13,907.168 2124.17,910.23 2124.21,913.293 2124.23,916.355 2124.25,919.418 2124.26,922.48 
  2124.26,925.543 2124.25,928.606 2124.23,931.668 2124.21,934.731 2124.17,937.793 2124.13,940.856 2124.07,943.918 2124.01,946.981 2123.94,950.044 2123.86,953.106 
  2123.77,956.169 2123.67,959.231 2123.56,962.294 2123.45,965.357 2123.32,968.419 2123.19,971.482 2123.05,974.544 2122.89,977.607 2122.73,980.669 2122.56,983.732 
  2122.38,986.795 2122.2,989.857 2122,992.92 2121.8,995.982 2121.58,999.045 2121.36,1002.11 2121.13,1005.17 2120.88,1008.23 2120.63,1011.3 2120.37,1014.36 
  2120.12,1017.3 2120.11,1017.42 2119.82,1020.48 2119.52,1023.55 2119.21,1026.61 2118.89,1029.67 2118.57,1032.73 2118.23,1035.8 2117.88,1038.86 2117.53,1041.92 
  2117.17,1044.98 2116.79,1048.05 2116.41,1051.11 2116.02,1054.17 2115.62,1057.23 2115.21,1060.3 2114.78,1063.36 2114.36,1066.42 2113.99,1068.96 2113.91,1069.48 
  2113.44,1072.55 2112.97,1075.61 2112.48,1078.67 2111.98,1081.73 2111.47,1084.8 2110.95,1087.86 2110.43,1090.92 2109.89,1093.98 2109.34,1097.05 2108.79,1100.11 
  2108.22,1103.17 2107.87,1105.05 2107.63,1106.24 2107.02,1109.3 2106.39,1112.36 2105.76,1115.42 2105.12,1118.49 2104.46,1121.55 2103.8,1124.61 2103.12,1127.67 
  2102.44,1130.74 2101.74,1133.79 2101.74,1133.8 2101,1136.86 2100.25,1139.92 2099.49,1142.99 2098.72,1146.05 2097.93,1149.11 2097.14,1152.17 2096.33,1155.24 
  2095.62,1157.94 2095.51,1158.3 2094.65,1161.36 2093.77,1164.42 2092.88,1167.49 2091.98,1170.55 2091.07,1173.61 2090.14,1176.67 2089.49,1178.81 2089.19,1179.74 
  2088.2,1182.8 2087.19,1185.86 2086.18,1188.92 2085.15,1191.99 2084.1,1195.05 2083.37,1197.19 2083.03,1198.11 2081.91,1201.18 2080.78,1204.24 2079.63,1207.3 
  2078.47,1210.36 2077.3,1213.43 2077.24,1213.58 2076.06,1216.49 2074.79,1219.55 2073.52,1222.61 2072.23,1225.68 2071.12,1228.3 2070.92,1228.74 2069.53,1231.8 
  2068.13,1234.86 2066.71,1237.93 2065.28,1240.99 2064.99,1241.61 2063.77,1244.05 2062.23,1247.11 2060.68,1250.18 2059.1,1253.24 2058.87,1253.7 2057.44,1256.3 
  2055.74,1259.36 2054.03,1262.43 2052.74,1264.71 2052.27,1265.49 2050.42,1268.55 2048.55,1271.61 2046.67,1274.68 2046.62,1274.76 2044.65,1277.74 2042.6,1280.8 
  2040.54,1283.87 2040.49,1283.95 2038.33,1286.93 2036.09,1289.99 2034.36,1292.34 2033.8,1293.05 2031.37,1296.12 2028.92,1299.18 2028.24,1300.01 2026.31,1302.24 
  2023.63,1305.3 2022.11,1307.02 2020.84,1308.37 2017.91,1311.43 2015.99,1313.42 2014.87,1314.49 2011.65,1317.55 2009.86,1319.24 2008.28,1320.62 2004.73,1323.68 
  2003.74,1324.53 2000.92,1326.74 1997.61,1329.32 1996.93,1329.8 1992.58,1332.87 1991.49,1333.63 1987.85,1335.93 1985.36,1337.49 1982.7,1338.99 1979.24,1340.93 
  1976.99,1342.05 1973.11,1343.97 1970.49,1345.12 1966.99,1346.63 1962.87,1348.18 1960.86,1348.93 1954.74,1350.87 1953.35,1351.24 1948.61,1352.49 1942.49,1353.79 
  1939.3,1354.3 1936.36,1354.78 1930.24,1355.48 1924.11,1355.89 1917.99,1356.04 1911.86,1355.93 1905.74,1355.56 1899.61,1354.95 1894.91,1354.3 1893.49,1354.11 
  1887.36,1353.03 1881.24,1351.75 1879.17,1351.24 1875.11,1350.24 1868.99,1348.54 1867.83,1348.18 1862.86,1346.63 1858.44,1345.12 1856.74,1344.53 1850.61,1342.24 
  1850.14,1342.05 1844.48,1339.77 1842.66,1338.99 1838.36,1337.13 1835.74,1335.93 1832.23,1334.31 1829.25,1332.87 1826.11,1331.33 1823.12,1329.8 1819.98,1328.19 
  1817.28,1326.74 1813.86,1324.89 1811.7,1323.68 1807.73,1321.44 1806.32,1320.62 1801.61,1317.84 1801.13,1317.55 1796.12,1314.49 1795.48,1314.1 1791.26,1311.43 
  1789.36,1310.21 1786.53,1308.37 1783.23,1306.2 1781.91,1305.3 1777.39,1302.24 1777.11,1302.05 1772.99,1299.18 1770.98,1297.77 1768.67,1296.12 1764.86,1293.36 
  1764.43,1293.05 1760.28,1289.99 1758.73,1288.84 1756.2,1286.93 1752.61,1284.19 1752.18,1283.87 1748.23,1280.8 1746.48,1279.43 1744.34,1277.74 1740.5,1274.68 
  1740.36,1274.56 1736.72,1271.61 1734.23,1269.58 1732.98,1268.55 1729.29,1265.49 1728.11,1264.49 1725.65,1262.43 1722.05,1259.36 1721.98,1259.31 1718.49,1256.3 
  1715.86,1254.02 1714.96,1253.24 1711.48,1250.18 1709.73,1248.63 1708.02,1247.11 1704.6,1244.05 1703.61,1243.15 1701.21,1240.99 1697.86,1237.93 1697.48,1237.58 
  1694.53,1234.86 1691.36,1231.92 1691.23,1231.8 1687.95,1228.74 1685.23,1226.17 1684.71,1225.68 1681.48,1222.61 1679.11,1220.34 1678.28,1219.55 1675.1,1216.49 
  1672.98,1214.42 1671.95,1213.43 1668.81,1210.36 1666.86,1208.43 1665.7,1207.3 1662.61,1204.24 1660.73,1202.36 1659.54,1201.18 1656.48,1198.11 1654.6,1196.21 
  1653.44,1195.05 1650.42,1191.99 1648.48,1190 1647.42,1188.92 1644.43,1185.86 1642.35,1183.71 1641.46,1182.8 1638.5,1179.74 1636.23,1177.36 1635.57,1176.67 
  1632.63,1173.61 1630.1,1170.94 1629.73,1170.55 1626.82,1167.49 1623.98,1164.46 1623.95,1164.42 1621.06,1161.36 1618.21,1158.3 1617.85,1157.91 1615.35,1155.24 
  1612.52,1152.17 1611.73,1151.3 1609.69,1149.11 1606.88,1146.05 1605.6,1144.64 1604.07,1142.99 1601.27,1139.92 1599.48,1137.93 1598.5,1136.86 1595.71,1133.8 
  1593.35,1131.16 1592.96,1130.74 1590.19,1127.67 1587.46,1124.61 1587.23,1124.34 1584.71,1121.55 1581.99,1118.49 1581.1,1117.47 1579.26,1115.42 1576.55,1112.36 
  1574.98,1110.55 1573.85,1109.3 1571.14,1106.24 1568.85,1103.6 1568.47,1103.17 1565.77,1100.11 1563.12,1097.05 1562.73,1096.59 1560.43,1093.98 1557.78,1090.92 
  1556.6,1089.54 1555.12,1087.86 1552.46,1084.8 1550.48,1082.46 1549.84,1081.73 1547.18,1078.67 1544.58,1075.61 1544.35,1075.34 1541.92,1072.55 1539.32,1069.48 
  1538.23,1068.18 1536.7,1066.42 1534.08,1063.36 1532.1,1060.99 1531.5,1060.3 1528.87,1057.23 1526.31,1054.17 1525.98,1053.76 1523.69,1051.11 1521.12,1048.05 
  1519.85,1046.5 1518.53,1044.98 1515.94,1041.92 1513.73,1039.23 1513.4,1038.86 1510.8,1035.8 1508.26,1032.73 1507.6,1031.91 1505.68,1029.67 1503.12,1026.61 
  1501.48,1024.58 1500.58,1023.55 1498,1020.48 1495.5,1017.42 1495.35,1017.23 1492.91,1014.36 1490.38,1011.3 1489.23,1009.84 1487.84,1008.23 1485.29,1005.17 
  1483.1,1002.45 1482.8,1002.11 1480.21,999.045 1477.72,995.982 1476.97,995.021 1475.16,992.92 1472.64,989.857 1470.85,987.589 1470.15,986.795 1467.57,983.732 
  1465.12,980.669 1464.72,980.144 1462.53,977.607 1460.04,974.544 1458.6,972.673 1457.54,971.482 1454.97,968.419 1452.57,965.357 1452.47,965.219 1449.93,962.294 
  1447.47,959.231 1446.35,957.709 1444.93,956.169 1442.38,953.106 1440.22,950.245 1440.02,950.044 1437.3,946.981 1434.91,943.918 1434.1,942.702 1432.25,940.856 
  1429.7,937.793 1427.97,935.208 1427.34,934.731 1424.27,931.668 1422.23,928.606 1421.85,927.457 1415.72,927.457 1415.34,928.606 1413.3,931.668 1410.24,934.731 
  1409.6,935.208 1407.87,937.793 1405.32,940.856 1403.47,942.702 1402.66,943.918 1400.28,946.981 1397.55,950.044 1397.35,950.245 1395.2,953.106 1392.64,956.169 
  1391.22,957.709 1390.1,959.231 1387.64,962.294 1385.1,965.219 1385,965.357 1382.6,968.419 1380.04,971.482 1378.97,972.673 1377.54,974.544 1375.04,977.607 
  1372.85,980.144 1372.45,980.669 1370,983.732 1367.42,986.795 1366.72,987.589 1364.94,989.857 1362.41,992.92 1360.6,995.021 1359.85,995.982 1357.36,999.045 
  1354.77,1002.11 1354.47,1002.45 1352.29,1005.17 1349.73,1008.23 1348.35,1009.84 1347.19,1011.3 1344.67,1014.36 1342.22,1017.23 1342.07,1017.42 1339.57,1020.48 
  1336.99,1023.55 1336.1,1024.58 1334.45,1026.61 1331.9,1029.67 1329.97,1031.91 1329.31,1032.73 1326.77,1035.8 1324.17,1038.86 1323.85,1039.23 1321.63,1041.92 
  1319.04,1044.98 1317.72,1046.5 1316.46,1048.05 1313.88,1051.11 1311.6,1053.76 1311.26,1054.17 1308.7,1057.23 1306.07,1060.3 1305.47,1060.99 1303.49,1063.36 
  1300.88,1066.42 1299.35,1068.18 1298.26,1069.48 1295.65,1072.55 1293.22,1075.34 1293,1075.61 1290.39,1078.67 1287.74,1081.73 1287.09,1082.46 1285.11,1084.8 
  1282.46,1087.86 1280.97,1089.54 1279.8,1090.92 1277.14,1093.98 1274.84,1096.59 1274.46,1097.05 1271.8,1100.11 1269.1,1103.17 1268.72,1103.6 1266.43,1106.24 
  1263.72,1109.3 1262.59,1110.55 1261.02,1112.36 1258.31,1115.42 1256.47,1117.47 1255.58,1118.49 1252.86,1121.55 1250.34,1124.34 1250.11,1124.61 1247.38,1127.67 
  1244.61,1130.74 1244.22,1131.16 1241.86,1133.8 1239.08,1136.86 1238.09,1137.93 1236.3,1139.92 1233.5,1142.99 1231.97,1144.64 1230.7,1146.05 1227.88,1149.11 
  1225.84,1151.3 1225.05,1152.17 1222.22,1155.24 1219.72,1157.91 1219.36,1158.3 1216.51,1161.36 1213.62,1164.42 1213.59,1164.46 1210.75,1167.49 1207.84,1170.55 
  1207.47,1170.94 1204.94,1173.61 1202,1176.67 1201.34,1177.36 1199.07,1179.74 1196.11,1182.8 1195.22,1183.71 1193.14,1185.86 1190.15,1188.92 1189.09,1190 
  1187.15,1191.99 1184.13,1195.05 1182.97,1196.21 1181.09,1198.11 1178.04,1201.18 1176.84,1202.36 1174.96,1204.24 1171.87,1207.3 1170.72,1208.43 1168.76,1210.36 
  1165.62,1213.43 1164.59,1214.42 1162.47,1216.49 1159.29,1219.55 1158.47,1220.34 1156.09,1222.61 1152.87,1225.68 1152.34,1226.17 1149.62,1228.74 1146.34,1231.8 
  1146.22,1231.92 1143.04,1234.86 1140.09,1237.58 1139.71,1237.93 1136.36,1240.99 1133.97,1243.15 1132.97,1244.05 1129.55,1247.11 1127.84,1248.63 1126.1,1250.18 
  1122.61,1253.24 1121.72,1254.02 1119.08,1256.3 1115.59,1259.31 1115.53,1259.36 1111.92,1262.43 1109.47,1264.49 1108.28,1265.49 1104.59,1268.55 1103.34,1269.58 
  1100.85,1271.61 1097.21,1274.56 1097.07,1274.68 1093.23,1277.74 1091.09,1279.43 1089.34,1280.8 1085.39,1283.87 1084.96,1284.19 1081.37,1286.93 1078.84,1288.84 
  1077.29,1289.99 1073.14,1293.05 1072.71,1293.36 1068.9,1296.12 1066.59,1297.77 1064.58,1299.18 1060.46,1302.05 1060.18,1302.24 1055.67,1305.3 1054.34,1306.2 
  1051.04,1308.37 1048.21,1310.21 1046.31,1311.43 1042.09,1314.1 1041.45,1314.49 1036.44,1317.55 1035.96,1317.84 1031.25,1320.62 1029.84,1321.44 1025.88,1323.68 
  1023.71,1324.89 1020.29,1326.74 1017.59,1328.19 1014.45,1329.8 1011.46,1331.33 1008.32,1332.87 1005.34,1334.31 1001.83,1335.93 999.212,1337.13 994.908,1338.99 
  993.087,1339.77 987.435,1342.05 986.962,1342.24 980.837,1344.53 979.131,1345.12 974.712,1346.63 969.739,1348.18 968.586,1348.54 962.461,1350.24 958.4,1351.24 
  956.336,1351.75 950.211,1353.03 944.086,1354.11 942.664,1354.3 937.961,1354.95 931.836,1355.56 925.71,1355.93 919.585,1356.04 913.46,1355.89 907.335,1355.48 
  901.21,1354.78 898.27,1354.3 895.085,1353.79 888.959,1352.49 884.219,1351.24 882.834,1350.87 876.709,1348.93 874.705,1348.18 870.584,1346.63 867.083,1345.12 
  864.459,1343.97 860.583,1342.05 858.334,1340.93 854.868,1338.99 852.208,1337.49 849.722,1335.93 846.083,1333.63 844.996,1332.87 840.646,1329.8 839.958,1329.32 
  836.651,1326.74 833.833,1324.53 832.838,1323.68 829.288,1320.62 827.708,1319.24 825.918,1317.55 822.699,1314.49 821.583,1313.42 819.661,1311.43 816.731,1308.37 
  815.457,1307.02 813.94,1305.3 811.263,1302.24 809.332,1300.01 808.657,1299.18 806.203,1296.12 803.769,1293.05 803.207,1292.34 801.477,1289.99 799.241,1286.93 
  797.082,1283.95 797.027,1283.87 794.968,1280.8 792.925,1277.74 790.957,1274.76 790.904,1274.68 789.019,1271.61 787.15,1268.55 785.298,1265.49 784.832,1264.71 
  783.543,1262.43 781.831,1259.36 780.134,1256.3 778.706,1253.7 778.467,1253.24 776.896,1250.18 775.339,1247.11 773.797,1244.05 772.581,1241.61 772.287,1240.99 
  770.858,1237.93 769.442,1234.86 768.04,1231.8 766.652,1228.74 766.456,1228.3 765.341,1225.68 764.053,1222.61 762.778,1219.55 761.517,1216.49 760.331,1213.58 
  760.272,1213.43 759.1,1210.36 757.941,1207.3 756.794,1204.24 755.66,1201.18 754.538,1198.11 754.206,1197.19 753.468,1195.05 752.426,1191.99 751.396,1188.92 
  750.378,1185.86 749.372,1182.8 748.378,1179.74 748.081,1178.81 747.429,1176.67 746.505,1173.61 745.593,1170.55 744.692,1167.49 743.803,1164.42 742.924,1161.36 
  742.057,1158.3 741.955,1157.94 741.237,1155.24 740.433,1152.17 739.639,1149.11 738.856,1146.05 738.084,1142.99 737.322,1139.92 736.571,1136.86 735.831,1133.8 
  735.83,1133.79 735.136,1130.74 734.45,1127.67 733.775,1124.61 733.11,1121.55 732.456,1118.49 731.811,1115.42 731.177,1112.36 730.553,1109.3 729.939,1106.24 
  729.705,1105.05 729.353,1103.17 728.786,1100.11 728.229,1097.05 727.683,1093.98 727.145,1090.92 726.618,1087.86 726.1,1084.8 725.592,1081.73 725.094,1078.67 
  724.606,1075.61 724.127,1072.55 723.659,1069.48 723.58,1068.96 723.216,1066.42 722.787,1063.36 722.367,1060.3 721.956,1057.23 721.555,1054.17 721.163,1051.11 
  720.78,1048.05 720.406,1044.98 720.042,1041.92 719.688,1038.86 719.342,1035.8 719.006,1032.73 718.679,1029.67 718.362,1026.61 718.054,1023.55 717.755,1020.48 
  717.466,1017.42 717.455,1017.3 717.197,1014.36 716.938,1011.3 716.688,1008.23 716.447,1005.17 716.215,1002.11 715.991,999.045 715.777,995.982 715.571,992.92 
  715.375,989.857 715.187,986.795 715.009,983.732 714.839,980.669 714.678,977.607 714.526,974.544 714.383,971.482 714.249,968.419 714.124,965.357 714.008,962.294 
  713.901,959.231 713.803,956.169 713.713,953.106 713.633,950.044 713.562,946.981 713.499,943.918 713.445,940.856 713.401,937.793 713.365,934.731 713.338,931.668 
  713.32,928.606 713.311,925.543 713.311,922.48 713.32,919.418 713.338,916.355 713.365,913.293 713.401,910.23 713.445,907.168 713.499,904.105 713.562,901.042 
  713.633,897.98 713.713,894.917 713.803,891.855 713.901,888.792 714.008,885.729 714.124,882.667 714.249,879.604 714.383,876.542 714.526,873.479 714.678,870.417 
  714.839,867.354 715.009,864.291 715.187,861.229 715.375,858.166 715.571,855.104 715.777,852.041 715.991,848.978 716.215,845.916 716.447,842.853 716.688,839.791 
  716.938,836.728 717.197,833.666 717.455,830.722 717.466,830.603 717.755,827.54 718.054,824.478 718.362,821.415 718.679,818.353 719.006,815.29 719.342,812.227 
  719.688,809.165 720.042,806.102 720.406,803.04 720.78,799.977 721.163,796.915 721.555,793.852 721.956,790.789 722.367,787.727 722.787,784.664 723.216,781.602 
  723.58,779.064 723.659,778.539 724.127,775.477 724.606,772.414 725.094,769.351 725.592,766.289 726.1,763.226 726.618,760.164 727.145,757.101 727.683,754.038 
  728.229,750.976 728.786,747.913 729.353,744.851 729.705,742.977 729.939,741.788 730.553,738.726 731.177,735.663 731.811,732.6 732.456,729.538 733.11,726.475 
  733.775,723.413 734.45,720.35 735.136,717.287 735.83,714.229 735.831,714.225 736.571,711.162 737.322,708.1 738.084,705.037 738.856,701.975 739.639,698.912 
  740.433,695.849 741.237,692.787 741.955,690.088 742.057,689.724 742.924,686.662 743.803,683.599 744.692,680.536 745.593,677.474 746.505,674.411 747.429,671.349 
  748.081,669.212 748.378,668.286 749.372,665.224 750.378,662.161 751.396,659.098 752.426,656.036 753.468,652.973 754.206,650.829 754.538,649.911 755.66,646.848 
  756.794,643.786 757.941,640.723 759.1,637.66 760.272,634.598 760.331,634.444 761.517,631.535 762.778,628.473 764.053,625.41 765.341,622.347 766.456,619.722 
  766.652,619.285 768.04,616.222 769.442,613.16 770.858,610.097 772.287,607.035 772.581,606.411 773.797,603.972 775.339,600.909 776.896,597.847 778.467,594.784 
  778.706,594.322 780.134,591.722 781.831,588.659 783.543,585.596 784.832,583.313 785.298,582.534 787.15,579.471 789.019,576.409 790.904,573.346 790.957,573.261 
  792.925,570.284 794.968,567.221 797.027,564.158 797.082,564.078 799.241,561.096 801.477,558.033 803.207,555.684 803.769,554.971 806.203,551.908 808.657,548.845 
  809.332,548.009 811.263,545.783 813.94,542.72 815.457,540.999 816.731,539.658 819.661,536.595 821.583,534.603 822.699,533.533 825.918,530.47 827.708,528.781 
  829.288,527.407 832.838,524.345 833.833,523.493 836.651,521.282 839.958,518.708 840.646,518.22 844.996,515.157 846.083,514.397 849.722,512.095 852.208,510.533 
  854.868,509.032 858.334,507.091 860.583,505.969 864.459,504.051 867.083,502.907 870.584,501.392 874.705,499.844 876.709,499.097 882.834,497.149 884.219,496.782 
  888.959,495.535 895.085,494.237 898.27,493.719 901.21,493.245 907.335,492.547 913.46,492.13 919.585,491.983 925.71,492.098 931.836,492.464 937.961,493.073 
  942.664,493.719 944.086,493.916 950.211,494.989 956.336,496.278 958.4,496.782 962.461,497.781 968.586,499.487 969.739,499.844 974.712,501.396 979.131,502.907 
  980.837,503.494 986.962,505.78 987.435,505.969 993.087,508.25 994.908,509.032 999.212,510.895 1001.83,512.095 1005.34,513.71 1008.32,515.157 1011.46,516.691 
  1014.45,518.22 1017.59,519.834 1020.29,521.282 1023.71,523.133 1025.88,524.345 1029.84,526.583 1031.25,527.407 1035.96,530.181 1036.44,530.47 1041.45,533.533 
  1042.09,533.924 1046.31,536.595 1048.21,537.809 1051.04,539.658 1054.34,541.827 1055.67,542.72 1060.18,545.783 1060.46,545.976 1064.58,548.845 1066.59,550.258 
  1068.9,551.908 1072.71,554.66 1073.14,554.971 1077.29,558.033 1078.84,559.188 1081.37,561.096 1084.96,563.831 1085.39,564.158 1089.34,567.221 1091.09,568.592 
  1093.23,570.284 1097.07,573.346 1097.21,573.461 1100.85,576.409 1103.34,578.443 1104.59,579.471 1108.28,582.534 1109.47,583.529 1111.92,585.596 1115.53,588.659 
  1115.59,588.715 1119.08,591.722 1121.72,594.006 1122.61,594.784 1126.1,597.847 1127.84,599.393 1129.55,600.909 1132.97,603.972 1133.97,604.873 1136.36,607.035 
  1139.71,610.097 1140.09,610.444 1143.04,613.16 1146.22,616.104 1146.34,616.222 1149.62,619.285 1152.34,621.854 1152.87,622.347 1156.09,625.41 1158.47,627.687 
  1159.29,628.473 1162.47,631.535 1164.59,633.602 1165.62,634.598 1168.76,637.66 1170.72,639.595 1171.87,640.723 1174.96,643.786 1176.84,645.665 1178.04,646.848 
  1181.09,649.911 1182.97,651.81 1184.13,652.973 1187.15,656.036 1189.09,658.027 1190.15,659.098 1193.14,662.161 1195.22,664.313 1196.11,665.224 1199.07,668.286 
  1201.34,670.667 1202,671.349 1204.94,674.411 1207.47,677.086 1207.84,677.474 1210.75,680.536 1213.59,683.567 1213.62,683.599 1216.51,686.662 1219.36,689.724 
  1219.72,690.113 1222.22,692.787 1225.05,695.849 1225.84,696.719 1227.88,698.912 1230.7,701.975 1231.97,703.381 1233.5,705.037 1236.3,708.1 1238.09,710.096 
  1239.08,711.162 1241.86,714.225 1244.22,716.862 1244.61,717.287 1247.38,720.35 1250.11,723.413 1250.34,723.681 1252.86,726.475 1255.58,729.538 1256.47,730.553 
  1258.31,732.6 1261.02,735.663 1262.59,737.47 1263.72,738.726 1266.43,741.788 1268.72,744.428 1269.1,744.851 1271.8,747.913 1274.46,750.976 1274.84,751.432 
  1277.14,754.038 1279.8,757.101 1280.97,758.481 1282.46,760.164 1285.11,763.226 1287.09,765.564 1287.74,766.289 1290.39,769.351 1293,772.414 1293.22,772.683 
  1295.65,775.477 1298.26,778.539 1299.35,779.847 1300.88,781.602 1303.49,784.664 1305.47,787.037 1306.07,787.727 1308.7,790.789 1311.26,793.852 1311.6,794.259 
  1313.88,796.915 1316.46,799.977 1317.72,801.519 1319.04,803.04 1321.63,806.102 1323.85,808.796 1324.17,809.165 1326.77,812.227 1329.31,815.29 1329.97,816.11 
  1331.9,818.353 1334.45,821.415 1336.1,823.446 1336.99,824.478 1339.57,827.54 1342.07,830.603 1342.22,830.796 1344.67,833.666 1347.19,836.728 1348.35,838.186 
  1349.73,839.791 1352.29,842.853 1354.47,845.577 1354.77,845.916 1357.36,848.978 1359.85,852.041 1360.6,853.002 1362.41,855.104 1364.94,858.166 1366.72,860.435 
  1367.42,861.229 1370,864.291 1372.45,867.354 1372.85,867.88 1375.04,870.417 
  "/>
<polyline clip-path="url(#clip482)" style="stroke:#e26f46; stroke-linecap:round; stroke-linejoin:round; stroke-width:4; stroke-opacity:1; fill:none" points="
  196.816,1331.34 212.727,1323.38 359.851,1249.82 448.266,1205.61 523.02,1168.23 604.224,1127.63 679.087,1090.2 759.347,1050.07 852.337,1003.57 934.976,962.255 
  1007.44,926.022 1086.45,886.518 1165.93,846.779 1253.8,802.843 1337.41,761.039 1424.34,717.572 1497.52,680.982 1586.86,636.311 1668.71,595.388 1744.3,557.593 
  1820.87,519.308 1906.68,476.402 1984.44,437.521 2073.47,393.006 2155.91,351.788 2237.18,311.153 2316.09,271.699 2396.98,231.254 2485.6,186.942 2614.34,122.571 
  2640.76,109.365 
  "/>
<circle clip-path="url(#clip482)" cx="1826.11" cy="516.688" r="14.4" fill="#3da44d" fill-rule="evenodd" fill-opacity="1" stroke="#000000" stroke-opacity="1" stroke-width="3.84"/>
<path clip-path="url(#clip480)" d="
M278.281 630.438 L989.168 630.438 L989.168 371.478 L278.281 371.478  Z
  " fill="#ffffff" fill-rule="evenodd" fill-opacity="1"/>
<polyline clip-path="url(#clip480)" style="stroke:#000000; stroke-linecap:round; stroke-linejoin:round; stroke-width:4; stroke-opacity:1; fill:none" points="
  278.281,630.438 989.168,630.438 989.168,371.478 278.281,371.478 278.281,630.438 
  "/>
<polyline clip-path="url(#clip480)" style="stroke:#1e90ff; stroke-linecap:round; stroke-linejoin:round; stroke-width:4; stroke-opacity:1; fill:none" points="
  305.436,457.798 468.365,457.798 
  "/>
<path clip-path="url(#clip480)" d="M519.411 453.274 Q519.411 454.585 518.591 455.335 Q517.771 456.061 516.834 456.061 Q515.944 456.061 515.476 455.546 Q515.007 455.03 515.007 454.374 Q515.007 453.484 515.663 452.711 Q516.319 451.938 517.303 451.775 Q516.342 451.166 514.914 451.166 Q513.977 451.166 513.157 451.657 Q512.361 452.149 511.869 452.782 Q511.4 453.414 510.979 454.328 Q510.58 455.218 510.416 455.756 Q510.276 456.272 510.159 456.834 L508.519 463.392 Q507.723 466.507 507.723 467.608 Q507.723 468.967 508.379 469.88 Q509.035 470.77 510.346 470.77 Q510.861 470.77 511.447 470.63 Q512.033 470.466 512.782 470.044 Q513.555 469.599 514.234 468.943 Q514.937 468.264 515.616 467.116 Q516.295 465.969 516.74 464.493 Q516.881 463.978 517.349 463.978 Q517.935 463.978 517.935 464.446 Q517.935 464.844 517.607 465.687 Q517.303 466.507 516.623 467.585 Q515.968 468.639 515.101 469.599 Q514.234 470.536 512.946 471.192 Q511.658 471.848 510.252 471.848 Q508.238 471.848 506.903 470.77 Q505.568 469.693 505.076 468.194 Q504.959 468.404 504.795 468.686 Q504.631 468.967 504.139 469.599 Q503.671 470.208 503.132 470.676 Q502.593 471.121 501.75 471.473 Q500.93 471.848 500.04 471.848 Q498.916 471.848 497.909 471.52 Q496.925 471.192 496.222 470.442 Q495.52 469.693 495.52 468.662 Q495.52 467.514 496.293 466.718 Q497.089 465.898 498.167 465.898 Q498.846 465.898 499.384 466.296 Q499.947 466.695 499.947 467.561 Q499.947 468.522 499.291 469.248 Q498.635 469.974 497.698 470.161 Q498.658 470.77 500.087 470.77 Q501.633 470.77 502.851 469.412 Q504.069 468.053 504.655 465.781 Q506.107 460.324 506.669 457.888 Q507.231 455.428 507.231 454.374 Q507.231 453.391 506.973 452.711 Q506.716 452.032 506.271 451.728 Q505.849 451.4 505.451 451.283 Q505.076 451.166 504.655 451.166 Q503.952 451.166 503.155 451.447 Q502.383 451.728 501.446 452.384 Q500.532 453.016 499.666 454.328 Q498.799 455.639 498.213 457.443 Q498.096 457.981 497.581 457.981 Q497.019 457.958 497.019 457.49 Q497.019 457.091 497.323 456.272 Q497.651 455.428 498.307 454.374 Q498.986 453.32 499.853 452.384 Q500.743 451.423 502.031 450.767 Q503.343 450.112 504.748 450.112 Q505.381 450.112 505.99 450.252 Q506.622 450.369 507.372 450.721 Q508.144 451.072 508.824 451.845 Q509.503 452.618 509.925 453.742 Q510.206 453.203 510.58 452.688 Q510.979 452.173 511.588 451.54 Q512.22 450.884 513.087 450.51 Q513.977 450.112 514.96 450.112 Q515.921 450.112 516.858 450.369 Q517.795 450.603 518.591 451.376 Q519.411 452.126 519.411 453.274 Z" fill="#000000" fill-rule="evenodd" fill-opacity="1" /><path clip-path="url(#clip480)" d="M524.3 451.525 L524.3 450.493 L534.613 434.736 Q534.875 434.326 535.285 434.343 Q535.662 434.343 535.744 434.49 Q535.826 434.638 535.826 435.212 L535.826 450.493 L539.187 450.493 L539.187 451.525 L535.826 451.525 L535.826 454.444 Q535.826 455.411 536.219 455.723 Q536.629 456.034 538.367 456.034 L539.072 456.034 L539.072 457.067 Q537.695 456.969 534.514 456.969 Q531.35 456.969 529.973 457.067 L529.973 456.034 L530.678 456.034 Q532.416 456.034 532.826 455.739 Q533.235 455.428 533.235 454.444 L533.235 451.525 L524.3 451.525 M525.251 450.493 L533.432 450.493 L533.432 437.966 L525.251 450.493 Z" fill="#000000" fill-rule="evenodd" fill-opacity="1" /><path clip-path="url(#clip480)" d="M589.135 458.637 Q589.416 458.918 589.416 459.317 Q589.416 459.715 589.135 459.996 Q588.854 460.277 588.456 460.277 L558.428 460.277 Q558.03 460.277 557.749 459.996 Q557.468 459.715 557.468 459.317 Q557.468 458.918 557.749 458.637 Q558.03 458.356 558.428 458.356 L588.456 458.356 Q588.854 458.356 589.135 458.637 Z" fill="#000000" fill-rule="evenodd" fill-opacity="1" /><path clip-path="url(#clip480)" d="M607.736 464.844 Q607.736 463.415 608.556 462.736 Q609.376 462.057 610.43 462.057 Q611.53 462.057 612.303 462.783 Q613.1 463.486 613.1 464.727 Q613.1 466.062 612.163 466.812 Q611.249 467.561 609.938 467.374 Q611.085 469.295 613.193 470.161 Q615.325 471.028 617.292 471.028 Q619.354 471.028 621.017 469.248 Q622.703 467.468 622.703 463.111 Q622.703 459.41 621.251 457.279 Q619.822 455.147 616.988 455.147 L614.88 455.147 Q614.154 455.147 613.943 455.077 Q613.732 455.007 613.732 454.609 Q613.732 454.14 614.458 454.047 Q615.184 454.047 616.332 453.906 Q619.119 453.812 620.595 451.4 Q621.93 449.151 621.93 445.942 Q621.93 443.015 620.525 441.797 Q619.143 440.555 617.339 440.555 Q615.653 440.555 613.802 441.258 Q611.952 441.961 610.945 443.53 Q613.92 443.53 613.92 445.942 Q613.92 446.996 613.24 447.699 Q612.584 448.378 611.484 448.378 Q610.43 448.378 609.727 447.722 Q609.024 447.043 609.024 445.896 Q609.024 443.155 611.46 441.258 Q613.92 439.361 617.527 439.361 Q621.087 439.361 623.71 441.234 Q626.357 443.108 626.357 445.989 Q626.357 448.823 624.483 451.142 Q622.609 453.461 619.635 454.421 Q623.289 455.147 625.467 457.63 Q627.645 460.09 627.645 463.111 Q627.645 466.859 624.694 469.622 Q621.743 472.363 617.433 472.363 Q613.451 472.363 610.594 470.208 Q607.736 468.053 607.736 464.844 Z" fill="#000000" fill-rule="evenodd" fill-opacity="1" /><path clip-path="url(#clip480)" d="M655.383 453.274 Q655.383 454.585 654.563 455.335 Q653.744 456.061 652.807 456.061 Q651.917 456.061 651.448 455.546 Q650.98 455.03 650.98 454.374 Q650.98 453.484 651.636 452.711 Q652.291 451.938 653.275 451.775 Q652.315 451.166 650.886 451.166 Q649.949 451.166 649.129 451.657 Q648.333 452.149 647.841 452.782 Q647.373 453.414 646.951 454.328 Q646.553 455.218 646.389 455.756 Q646.248 456.272 646.131 456.834 L644.492 463.392 Q643.695 466.507 643.695 467.608 Q643.695 468.967 644.351 469.88 Q645.007 470.77 646.319 470.77 Q646.834 470.77 647.42 470.63 Q648.005 470.466 648.755 470.044 Q649.528 469.599 650.207 468.943 Q650.91 468.264 651.589 467.116 Q652.268 465.969 652.713 464.493 Q652.854 463.978 653.322 463.978 Q653.908 463.978 653.908 464.446 Q653.908 464.844 653.58 465.687 Q653.275 466.507 652.596 467.585 Q651.94 468.639 651.073 469.599 Q650.207 470.536 648.919 471.192 Q647.63 471.848 646.225 471.848 Q644.211 471.848 642.876 470.77 Q641.541 469.693 641.049 468.194 Q640.932 468.404 640.768 468.686 Q640.604 468.967 640.112 469.599 Q639.643 470.208 639.105 470.676 Q638.566 471.121 637.723 471.473 Q636.903 471.848 636.013 471.848 Q634.889 471.848 633.881 471.52 Q632.898 471.192 632.195 470.442 Q631.492 469.693 631.492 468.662 Q631.492 467.514 632.265 466.718 Q633.062 465.898 634.139 465.898 Q634.818 465.898 635.357 466.296 Q635.919 466.695 635.919 467.561 Q635.919 468.522 635.263 469.248 Q634.607 469.974 633.671 470.161 Q634.631 470.77 636.06 470.77 Q637.606 470.77 638.824 469.412 Q640.041 468.053 640.627 465.781 Q642.079 460.324 642.641 457.888 Q643.204 455.428 643.204 454.374 Q643.204 453.391 642.946 452.711 Q642.688 452.032 642.243 451.728 Q641.822 451.4 641.423 451.283 Q641.049 451.166 640.627 451.166 Q639.924 451.166 639.128 451.447 Q638.355 451.728 637.418 452.384 Q636.505 453.016 635.638 454.328 Q634.771 455.639 634.186 457.443 Q634.069 457.981 633.553 457.981 Q632.991 457.958 632.991 457.49 Q632.991 457.091 633.296 456.272 Q633.624 455.428 634.28 454.374 Q634.959 453.32 635.825 452.384 Q636.716 451.423 638.004 450.767 Q639.315 450.112 640.721 450.112 Q641.353 450.112 641.962 450.252 Q642.595 450.369 643.344 450.721 Q644.117 451.072 644.796 451.845 Q645.476 452.618 645.897 453.742 Q646.178 453.203 646.553 452.688 Q646.951 452.173 647.56 451.54 Q648.193 450.884 649.059 450.51 Q649.949 450.112 650.933 450.112 Q651.893 450.112 652.83 450.369 Q653.767 450.603 654.563 451.376 Q655.383 452.126 655.383 453.274 Z" fill="#000000" fill-rule="evenodd" fill-opacity="1" /><path clip-path="url(#clip480)" d="M660.272 456.953 Q660.272 456.347 660.321 456.166 Q660.387 455.986 660.649 455.707 L667.093 448.526 Q670.618 444.558 670.618 441.099 Q670.618 438.852 669.438 437.246 Q668.273 435.639 666.126 435.639 Q664.65 435.639 663.404 436.541 Q662.158 437.442 661.584 439.049 Q661.682 439.016 662.027 439.016 Q662.863 439.016 663.322 439.541 Q663.797 440.066 663.797 440.771 Q663.797 441.672 663.207 442.115 Q662.633 442.541 662.059 442.541 Q661.83 442.541 661.518 442.492 Q661.223 442.443 660.748 441.984 Q660.272 441.508 660.272 440.672 Q660.272 438.328 662.043 436.459 Q663.83 434.59 666.552 434.59 Q669.634 434.59 671.651 436.426 Q673.684 438.246 673.684 441.099 Q673.684 442.099 673.372 443.017 Q673.077 443.919 672.667 444.624 Q672.274 445.329 671.192 446.46 Q670.11 447.591 669.241 448.395 Q668.372 449.198 666.421 450.903 L662.863 454.363 L668.913 454.363 Q671.864 454.363 672.094 454.1 Q672.422 453.625 672.831 451.116 L673.684 451.116 L672.733 456.953 L660.272 456.953 Z" fill="#000000" fill-rule="evenodd" fill-opacity="1" /><path clip-path="url(#clip480)" d="M693.084 459.902 Q691.983 459.902 691.983 459.317 Q691.983 458.731 693.13 458.731 Q693.271 458.731 693.505 458.754 Q693.763 458.778 693.81 458.778 L707.324 458.778 L707.324 445.216 Q707.324 445.169 707.301 444.959 Q707.278 444.724 707.278 444.584 Q707.278 443.436 707.84 443.436 Q708.425 443.436 708.425 444.584 L708.425 458.778 L721.963 458.778 Q722.01 458.778 722.245 458.754 Q722.479 458.731 722.619 458.731 Q723.72 458.731 723.72 459.317 Q723.744 459.902 722.572 459.902 Q722.432 459.902 722.221 459.879 Q722.01 459.855 721.963 459.855 L708.425 459.855 L708.425 474.096 Q708.425 475.197 707.84 475.197 Q707.278 475.197 707.278 474.049 Q707.278 473.909 707.301 473.675 Q707.324 473.464 707.324 473.417 L707.324 459.855 L693.81 459.855 Q693.763 459.855 693.482 459.879 Q693.224 459.902 693.084 459.902 Z" fill="#000000" fill-rule="evenodd" fill-opacity="1" /><path clip-path="url(#clip480)" d="M742.251 471.309 Q742.251 470.442 742.321 470.185 Q742.415 469.927 742.79 469.529 L751.995 459.27 Q757.03 453.601 757.03 448.659 Q757.03 445.45 755.344 443.155 Q753.681 440.86 750.613 440.86 Q748.505 440.86 746.725 442.148 Q744.944 443.436 744.125 445.732 Q744.265 445.685 744.757 445.685 Q745.952 445.685 746.607 446.434 Q747.287 447.184 747.287 448.191 Q747.287 449.479 746.443 450.112 Q745.624 450.721 744.804 450.721 Q744.476 450.721 744.031 450.65 Q743.609 450.58 742.93 449.924 Q742.251 449.245 742.251 448.05 Q742.251 444.701 744.78 442.031 Q747.334 439.361 751.222 439.361 Q755.625 439.361 758.506 441.984 Q761.41 444.584 761.41 448.659 Q761.41 450.088 760.965 451.4 Q760.544 452.688 759.958 453.695 Q759.396 454.702 757.85 456.318 Q756.304 457.935 755.063 459.082 Q753.822 460.23 751.034 462.666 L745.952 467.608 L754.594 467.608 Q758.811 467.608 759.138 467.233 Q759.607 466.554 760.192 462.97 L761.41 462.97 L760.052 471.309 L742.251 471.309 Z" fill="#000000" fill-rule="evenodd" fill-opacity="1" /><path clip-path="url(#clip480)" d="M788.141 451.938 Q788.141 452.266 787.93 453.039 L783.34 471.356 Q782.333 475.431 779.053 478.289 Q775.798 481.146 772.097 481.146 Q769.872 481.146 768.443 479.952 Q767.014 478.781 767.014 476.977 Q767.014 475.384 767.857 474.611 Q768.701 473.862 769.708 473.862 Q770.036 473.862 770.387 473.956 Q770.738 474.049 771.113 474.447 Q771.488 474.846 771.488 475.525 Q771.488 476.626 770.528 477.492 Q770.059 477.891 769.614 477.984 Q769.193 478.078 768.466 478.078 Q768.748 478.734 769.263 479.179 Q769.778 479.624 770.364 479.788 Q770.949 479.975 771.324 480.022 Q771.722 480.092 772.097 480.092 Q775.095 480.092 777.39 477.071 Q778.07 476.157 778.562 475.244 Q779.077 474.354 779.452 473.253 Q779.826 472.175 779.99 471.59 Q780.178 471.004 780.506 469.669 Q778.327 471.848 775.657 471.848 Q774.533 471.848 773.526 471.543 Q772.542 471.239 771.675 470.606 Q770.809 469.95 770.293 468.803 Q769.802 467.655 769.802 466.132 Q769.802 464.516 770.434 462.315 Q771.066 460.113 772.589 456.061 Q773.409 453.789 773.409 452.688 Q773.409 452.149 773.291 451.821 Q773.174 451.47 772.94 451.353 Q772.706 451.212 772.565 451.189 Q772.448 451.166 772.214 451.166 Q770.832 451.166 769.544 452.571 Q768.256 453.976 767.366 457.115 Q767.178 457.7 767.061 457.841 Q766.944 457.981 766.593 457.981 Q766.007 457.958 766.007 457.49 Q766.007 457.302 766.218 456.576 Q766.429 455.827 766.921 454.726 Q767.436 453.601 768.139 452.594 Q768.841 451.564 769.942 450.838 Q771.066 450.112 772.355 450.112 Q774.111 450.112 775.189 451.259 Q776.29 452.384 776.29 454.047 Q776.29 454.726 776.102 455.335 Q775.938 455.92 775.329 457.49 Q772.87 463.814 772.87 466.905 Q772.87 467.655 772.987 468.287 Q773.128 468.896 773.432 469.505 Q773.736 470.091 774.345 470.442 Q774.978 470.77 775.845 470.77 Q776.945 470.77 777.976 470.255 Q779.03 469.716 779.686 468.99 Q780.365 468.264 780.763 467.655 Q781.185 467.023 781.279 466.695 L783.433 458.075 L784.394 454.234 Q784.839 452.149 785.05 451.634 Q785.331 451.142 785.822 450.884 Q786.314 450.627 786.736 450.627 Q787.322 450.627 787.72 450.978 Q788.141 451.33 788.141 451.938 Z" fill="#000000" fill-rule="evenodd" fill-opacity="1" /><path clip-path="url(#clip480)" d="M793.037 456.953 Q793.037 456.347 793.086 456.166 Q793.152 455.986 793.414 455.707 L799.858 448.526 Q803.383 444.558 803.383 441.099 Q803.383 438.852 802.202 437.246 Q801.038 435.639 798.89 435.639 Q797.415 435.639 796.169 436.541 Q794.923 437.442 794.349 439.049 Q794.447 439.016 794.791 439.016 Q795.628 439.016 796.087 439.541 Q796.562 440.066 796.562 440.771 Q796.562 441.672 795.972 442.115 Q795.398 442.541 794.824 442.541 Q794.595 442.541 794.283 442.492 Q793.988 442.443 793.513 441.984 Q793.037 441.508 793.037 440.672 Q793.037 438.328 794.808 436.459 Q796.595 434.59 799.317 434.59 Q802.399 434.59 804.416 436.426 Q806.449 438.246 806.449 441.099 Q806.449 442.099 806.137 443.017 Q805.842 443.919 805.432 444.624 Q805.039 445.329 803.957 446.46 Q802.875 447.591 802.006 448.395 Q801.137 449.198 799.185 450.903 L795.628 454.363 L801.678 454.363 Q804.629 454.363 804.858 454.1 Q805.186 453.625 805.596 451.116 L806.449 451.116 L805.498 456.953 L793.037 456.953 Z" fill="#000000" fill-rule="evenodd" fill-opacity="1" /><path clip-path="url(#clip480)" d="M824.747 464.024 Q824.794 463.439 825.708 463.439 L855.103 463.439 Q856.485 463.439 856.508 463.978 Q856.508 464.563 855.197 464.54 L826.036 464.54 Q824.747 464.563 824.747 464.024 M824.747 454.655 Q824.747 454.07 825.755 454.093 L855.056 454.093 Q856.485 454.093 856.508 454.655 Q856.508 455.194 855.29 455.194 L825.708 455.194 Q824.747 455.194 824.747 454.655 Z" fill="#000000" fill-rule="evenodd" fill-opacity="1" /><path clip-path="url(#clip480)" d="M875.016 455.967 Q875.016 448.917 876.796 445.076 Q879.279 439.361 885.134 439.361 Q886.376 439.361 887.664 439.712 Q888.975 440.04 890.615 441.328 Q892.278 442.616 893.285 444.724 Q895.206 448.8 895.206 455.967 Q895.206 462.97 893.426 466.788 Q890.826 472.363 885.087 472.363 Q882.932 472.363 880.731 471.262 Q878.552 470.161 877.17 467.514 Q875.016 463.556 875.016 455.967 M878.997 455.382 Q878.997 462.619 879.513 465.5 Q880.098 468.615 881.691 469.974 Q883.307 471.309 885.087 471.309 Q887.008 471.309 888.601 469.88 Q890.217 468.428 890.709 465.313 Q891.247 462.244 891.224 455.382 Q891.224 448.706 890.756 446.036 Q890.123 442.921 888.437 441.679 Q886.774 440.415 885.087 440.415 Q884.455 440.415 883.776 440.602 Q883.12 440.789 882.159 441.328 Q881.199 441.867 880.45 443.202 Q879.724 444.537 879.372 446.551 Q878.997 449.151 878.997 455.382 Z" fill="#000000" fill-rule="evenodd" fill-opacity="1" /><polyline clip-path="url(#clip480)" style="stroke:#e26f46; stroke-linecap:round; stroke-linejoin:round; stroke-width:4; stroke-opacity:1; fill:none" points="
  305.436,544.118 468.365,544.118 
  "/>
<path clip-path="url(#clip480)" d="M495.52 515.184 L524.756 515.184 L524.756 519.119 L512.487 519.119 L512.487 549.744 L507.788 549.744 L507.788 519.119 L495.52 519.119 L495.52 515.184 Z" fill="#000000" fill-rule="evenodd" fill-opacity="1" /><path clip-path="url(#clip480)" d="M533.02 536.712 Q527.858 536.712 525.867 537.892 Q523.876 539.073 523.876 541.92 Q523.876 544.189 525.358 545.531 Q526.862 546.851 529.432 546.851 Q532.973 546.851 535.103 544.351 Q537.256 541.828 537.256 537.661 L537.256 536.712 L533.02 536.712 M541.515 534.953 L541.515 549.744 L537.256 549.744 L537.256 545.809 Q535.797 548.17 533.621 549.304 Q531.445 550.415 528.297 550.415 Q524.316 550.415 521.955 548.193 Q519.617 545.948 519.617 542.198 Q519.617 537.823 522.534 535.601 Q525.473 533.378 531.283 533.378 L537.256 533.378 L537.256 532.962 Q537.256 530.022 535.311 528.425 Q533.39 526.804 529.895 526.804 Q527.672 526.804 525.566 527.337 Q523.459 527.869 521.515 528.934 L521.515 524.999 Q523.853 524.096 526.052 523.656 Q528.251 523.193 530.334 523.193 Q535.959 523.193 538.737 526.11 Q541.515 529.027 541.515 534.953 Z" fill="#000000" fill-rule="evenodd" fill-opacity="1" /><path clip-path="url(#clip480)" d="M571.839 534.096 L571.839 549.744 L567.58 549.744 L567.58 534.235 Q567.58 530.554 566.144 528.726 Q564.709 526.897 561.839 526.897 Q558.39 526.897 556.399 529.096 Q554.408 531.295 554.408 535.091 L554.408 549.744 L550.126 549.744 L550.126 523.818 L554.408 523.818 L554.408 527.846 Q555.936 525.508 557.996 524.351 Q560.08 523.193 562.788 523.193 Q567.255 523.193 569.547 525.971 Q571.839 528.726 571.839 534.096 Z" fill="#000000" fill-rule="evenodd" fill-opacity="1" /><path clip-path="url(#clip480)" d="M597.394 536.48 Q597.394 531.851 595.473 529.304 Q593.575 526.758 590.126 526.758 Q586.7 526.758 584.779 529.304 Q582.88 531.851 582.88 536.48 Q582.88 541.087 584.779 543.633 Q586.7 546.179 590.126 546.179 Q593.575 546.179 595.473 543.633 Q597.394 541.087 597.394 536.48 M601.653 546.527 Q601.653 553.147 598.714 556.364 Q595.774 559.605 589.709 559.605 Q587.464 559.605 585.473 559.258 Q583.482 558.934 581.607 558.239 L581.607 554.096 Q583.482 555.114 585.311 555.601 Q587.14 556.087 589.038 556.087 Q593.228 556.087 595.311 553.888 Q597.394 551.712 597.394 547.29 L597.394 545.184 Q596.075 547.476 594.015 548.61 Q591.954 549.744 589.084 549.744 Q584.316 549.744 581.399 546.11 Q578.482 542.476 578.482 536.48 Q578.482 530.462 581.399 526.828 Q584.316 523.193 589.084 523.193 Q591.954 523.193 594.015 524.328 Q596.075 525.462 597.394 527.754 L597.394 523.818 L601.653 523.818 L601.653 546.527 Z" fill="#000000" fill-rule="evenodd" fill-opacity="1" /><path clip-path="url(#clip480)" d="M632.602 535.716 L632.602 537.8 L613.019 537.8 Q613.297 542.198 615.658 544.513 Q618.042 546.804 622.278 546.804 Q624.732 546.804 627.024 546.202 Q629.338 545.601 631.607 544.397 L631.607 548.425 Q629.315 549.397 626.908 549.906 Q624.501 550.415 622.024 550.415 Q615.82 550.415 612.186 546.804 Q608.575 543.193 608.575 537.036 Q608.575 530.67 612.001 526.943 Q615.45 523.193 621.283 523.193 Q626.514 523.193 629.547 526.573 Q632.602 529.929 632.602 535.716 M628.343 534.466 Q628.297 530.971 626.376 528.888 Q624.477 526.804 621.329 526.804 Q617.764 526.804 615.612 528.818 Q613.482 530.832 613.158 534.49 L628.343 534.466 Z" fill="#000000" fill-rule="evenodd" fill-opacity="1" /><path clip-path="url(#clip480)" d="M661.144 534.096 L661.144 549.744 L656.885 549.744 L656.885 534.235 Q656.885 530.554 655.449 528.726 Q654.014 526.897 651.144 526.897 Q647.695 526.897 645.704 529.096 Q643.713 531.295 643.713 535.091 L643.713 549.744 L639.431 549.744 L639.431 523.818 L643.713 523.818 L643.713 527.846 Q645.241 525.508 647.301 524.351 Q649.385 523.193 652.093 523.193 Q656.561 523.193 658.852 525.971 Q661.144 528.726 661.144 534.096 Z" fill="#000000" fill-rule="evenodd" fill-opacity="1" /><path clip-path="url(#clip480)" d="M673.852 516.457 L673.852 523.818 L682.625 523.818 L682.625 527.129 L673.852 527.129 L673.852 541.203 Q673.852 544.374 674.709 545.277 Q675.588 546.179 678.25 546.179 L682.625 546.179 L682.625 549.744 L678.25 549.744 Q673.32 549.744 671.445 547.915 Q669.57 546.064 669.57 541.203 L669.57 527.129 L666.445 527.129 L666.445 523.818 L669.57 523.818 L669.57 516.457 L673.852 516.457 Z" fill="#000000" fill-rule="evenodd" fill-opacity="1" /><path clip-path="url(#clip480)" d="M710.403 535.716 L710.403 537.8 L690.82 537.8 Q691.097 542.198 693.459 544.513 Q695.843 546.804 700.079 546.804 Q702.533 546.804 704.824 546.202 Q707.139 545.601 709.408 544.397 L709.408 548.425 Q707.116 549.397 704.708 549.906 Q702.301 550.415 699.824 550.415 Q693.621 550.415 689.986 546.804 Q686.375 543.193 686.375 537.036 Q686.375 530.67 689.801 526.943 Q693.25 523.193 699.083 523.193 Q704.315 523.193 707.347 526.573 Q710.403 529.929 710.403 535.716 M706.144 534.466 Q706.097 530.971 704.176 528.888 Q702.278 526.804 699.13 526.804 Q695.565 526.804 693.412 528.818 Q691.283 530.832 690.959 534.49 L706.144 534.466 Z" fill="#000000" fill-rule="evenodd" fill-opacity="1" /><path clip-path="url(#clip480)" d="M750.13 530.374 Q750.13 530.702 749.919 531.475 L745.328 549.791 Q744.321 553.866 741.042 556.724 Q737.786 559.582 734.085 559.582 Q731.86 559.582 730.431 558.387 Q729.003 557.216 729.003 555.412 Q729.003 553.82 729.846 553.047 Q730.689 552.297 731.696 552.297 Q732.024 552.297 732.375 552.391 Q732.727 552.485 733.101 552.883 Q733.476 553.281 733.476 553.96 Q733.476 555.061 732.516 555.928 Q732.047 556.326 731.602 556.42 Q731.181 556.513 730.455 556.513 Q730.736 557.169 731.251 557.614 Q731.766 558.059 732.352 558.223 Q732.938 558.41 733.312 558.457 Q733.71 558.528 734.085 558.528 Q737.083 558.528 739.379 555.506 Q740.058 554.593 740.55 553.679 Q741.065 552.789 741.44 551.688 Q741.815 550.611 741.979 550.025 Q742.166 549.44 742.494 548.105 Q740.316 550.283 737.645 550.283 Q736.521 550.283 735.514 549.978 Q734.53 549.674 733.664 549.041 Q732.797 548.386 732.282 547.238 Q731.79 546.09 731.79 544.568 Q731.79 542.952 732.422 540.75 Q733.055 538.548 734.577 534.496 Q735.397 532.224 735.397 531.123 Q735.397 530.585 735.28 530.257 Q735.163 529.905 734.928 529.788 Q734.694 529.648 734.554 529.624 Q734.437 529.601 734.202 529.601 Q732.82 529.601 731.532 531.006 Q730.244 532.412 729.354 535.55 Q729.166 536.136 729.049 536.276 Q728.932 536.417 728.581 536.417 Q727.995 536.393 727.995 535.925 Q727.995 535.738 728.206 535.011 Q728.417 534.262 728.909 533.161 Q729.424 532.037 730.127 531.03 Q730.829 529.999 731.93 529.273 Q733.055 528.547 734.343 528.547 Q736.1 528.547 737.177 529.695 Q738.278 530.819 738.278 532.482 Q738.278 533.161 738.09 533.77 Q737.926 534.356 737.318 535.925 Q734.858 542.249 734.858 545.341 Q734.858 546.09 734.975 546.723 Q735.116 547.332 735.42 547.941 Q735.725 548.526 736.334 548.878 Q736.966 549.205 737.833 549.205 Q738.934 549.205 739.964 548.69 Q741.018 548.151 741.674 547.425 Q742.353 546.699 742.752 546.09 Q743.173 545.458 743.267 545.13 L745.422 536.51 L746.382 532.669 Q746.827 530.585 747.038 530.069 Q747.319 529.577 747.811 529.32 Q748.303 529.062 748.724 529.062 Q749.31 529.062 749.708 529.413 Q750.13 529.765 750.13 530.374 Z" fill="#000000" fill-rule="evenodd" fill-opacity="1" /><path clip-path="url(#clip480)" d="M764.576 542.46 Q764.623 541.874 765.536 541.874 L794.931 541.874 Q796.313 541.874 796.337 542.413 Q796.337 542.998 795.025 542.975 L765.864 542.975 Q764.576 542.998 764.576 542.46 M764.576 533.091 Q764.576 532.505 765.583 532.529 L794.884 532.529 Q796.313 532.529 796.337 533.091 Q796.337 533.63 795.119 533.63 L765.536 533.63 Q764.576 533.63 764.576 533.091 Z" fill="#000000" fill-rule="evenodd" fill-opacity="1" /><path clip-path="url(#clip480)" d="M848.975 514.038 Q848.975 515.349 848.155 516.099 Q847.335 516.825 846.398 516.825 Q845.508 516.825 845.04 516.31 Q844.571 515.794 844.571 515.138 Q844.571 514.248 845.227 513.475 Q845.883 512.703 846.867 512.539 Q845.907 511.93 844.478 511.93 Q843.541 511.93 842.721 512.421 Q841.925 512.913 841.433 513.546 Q840.964 514.178 840.543 515.092 Q840.145 515.982 839.981 516.52 Q839.84 517.036 839.723 517.598 L838.083 524.156 Q837.287 527.271 837.287 528.372 Q837.287 529.731 837.943 530.644 Q838.599 531.534 839.91 531.534 Q840.426 531.534 841.011 531.394 Q841.597 531.23 842.346 530.808 Q843.119 530.363 843.798 529.707 Q844.501 529.028 845.18 527.88 Q845.86 526.733 846.305 525.257 Q846.445 524.742 846.914 524.742 Q847.499 524.742 847.499 525.21 Q847.499 525.608 847.171 526.452 Q846.867 527.271 846.188 528.349 Q845.532 529.403 844.665 530.363 Q843.798 531.3 842.51 531.956 Q841.222 532.612 839.817 532.612 Q837.802 532.612 836.467 531.534 Q835.132 530.457 834.64 528.958 Q834.523 529.169 834.359 529.45 Q834.195 529.731 833.703 530.363 Q833.235 530.972 832.696 531.44 Q832.158 531.886 831.314 532.237 Q830.495 532.612 829.604 532.612 Q828.48 532.612 827.473 532.284 Q826.489 531.956 825.787 531.206 Q825.084 530.457 825.084 529.426 Q825.084 528.278 825.857 527.482 Q826.653 526.662 827.731 526.662 Q828.41 526.662 828.949 527.06 Q829.511 527.459 829.511 528.325 Q829.511 529.286 828.855 530.012 Q828.199 530.738 827.262 530.925 Q828.223 531.534 829.651 531.534 Q831.197 531.534 832.415 530.176 Q833.633 528.817 834.219 526.545 Q835.671 521.088 836.233 518.652 Q836.795 516.192 836.795 515.138 Q836.795 514.155 836.538 513.475 Q836.28 512.796 835.835 512.492 Q835.413 512.164 835.015 512.047 Q834.64 511.93 834.219 511.93 Q833.516 511.93 832.72 512.211 Q831.947 512.492 831.01 513.148 Q830.096 513.78 829.23 515.092 Q828.363 516.403 827.778 518.207 Q827.66 518.746 827.145 518.746 Q826.583 518.722 826.583 518.254 Q826.583 517.855 826.887 517.036 Q827.215 516.192 827.871 515.138 Q828.55 514.084 829.417 513.148 Q830.307 512.187 831.595 511.531 Q832.907 510.876 834.312 510.876 Q834.945 510.876 835.554 511.016 Q836.186 511.133 836.936 511.485 Q837.709 511.836 838.388 512.609 Q839.067 513.382 839.489 514.506 Q839.77 513.967 840.145 513.452 Q840.543 512.937 841.152 512.304 Q841.784 511.649 842.651 511.274 Q843.541 510.876 844.525 510.876 Q845.485 510.876 846.422 511.133 Q847.359 511.367 848.155 512.14 Q848.975 512.89 848.975 514.038 Z" fill="#000000" fill-rule="evenodd" fill-opacity="1" /><path clip-path="url(#clip480)" d="
M825.084 545.398 L853.864 545.398 L853.864 542.838 L825.084 542.838  Z
  " fill="#000000" fill-rule="evenodd" fill-opacity="1"/>
<path clip-path="url(#clip480)" d="M827.324 587.278 Q827.324 586.411 827.394 586.154 Q827.488 585.896 827.863 585.498 L837.068 575.239 Q842.104 569.571 842.104 564.628 Q842.104 561.42 840.417 559.124 Q838.754 556.829 835.686 556.829 Q833.578 556.829 831.798 558.117 Q830.018 559.405 829.198 561.701 Q829.338 561.654 829.83 561.654 Q831.025 561.654 831.681 562.403 Q832.36 563.153 832.36 564.16 Q832.36 565.448 831.517 566.081 Q830.697 566.69 829.877 566.69 Q829.549 566.69 829.104 566.619 Q828.682 566.549 828.003 565.893 Q827.324 565.214 827.324 564.019 Q827.324 560.67 829.854 558 Q832.407 555.33 836.295 555.33 Q840.698 555.33 843.579 557.953 Q846.484 560.553 846.484 564.628 Q846.484 566.057 846.038 567.369 Q845.617 568.657 845.031 569.664 Q844.469 570.671 842.923 572.288 Q841.377 573.904 840.136 575.051 Q838.895 576.199 836.107 578.635 L831.025 583.577 L839.668 583.577 Q843.884 583.577 844.212 583.202 Q844.68 582.523 845.266 578.94 L846.484 578.94 L845.125 587.278 L827.324 587.278 Z" fill="#000000" fill-rule="evenodd" fill-opacity="1" /><path clip-path="url(#clip480)" d="M873.396 544.594 Q872.295 544.594 872.295 544.008 Q872.295 543.423 873.443 543.423 Q873.584 543.423 873.818 543.446 Q874.075 543.469 874.122 543.469 L887.637 543.469 L887.637 529.908 Q887.637 529.861 887.614 529.65 Q887.59 529.416 887.59 529.275 Q887.59 528.128 888.152 528.128 Q888.738 528.128 888.738 529.275 L888.738 543.469 L902.276 543.469 Q902.323 543.469 902.557 543.446 Q902.791 543.423 902.932 543.423 Q904.033 543.423 904.033 544.008 Q904.056 544.594 902.885 544.594 Q902.745 544.594 902.534 544.57 Q902.323 544.547 902.276 544.547 L888.738 544.547 L888.738 558.788 Q888.738 559.889 888.152 559.889 Q887.59 559.889 887.59 558.741 Q887.59 558.6 887.614 558.366 Q887.637 558.155 887.637 558.108 L887.637 544.547 L874.122 544.547 Q874.075 544.547 873.794 544.57 Q873.537 544.594 873.396 544.594 Z" fill="#000000" fill-rule="evenodd" fill-opacity="1" /><path clip-path="url(#clip480)" d="M933.924 505.217 L933.924 503.718 Q939.685 503.718 942.66 500.65 Q943.48 500.65 943.62 500.837 Q943.761 501.024 943.761 501.891 L943.761 528.803 Q943.761 530.232 944.464 530.677 Q945.166 531.122 948.235 531.122 L949.757 531.122 L949.757 532.598 Q948.071 532.457 941.981 532.457 Q935.891 532.457 934.228 532.598 L934.228 531.122 L935.75 531.122 Q938.772 531.122 939.498 530.701 Q940.224 530.256 940.224 528.803 L940.224 503.952 Q937.718 505.217 933.924 505.217 Z" fill="#000000" fill-rule="evenodd" fill-opacity="1" /><path clip-path="url(#clip480)" d="
M932.804 545.398 L956.894 545.398 L956.894 542.838 L932.804 542.838  Z
  " fill="#000000" fill-rule="evenodd" fill-opacity="1"/>
<path clip-path="url(#clip480)" d="M932.804 587.278 Q932.804 586.411 932.874 586.154 Q932.967 585.896 933.342 585.498 L942.547 575.239 Q947.583 569.571 947.583 564.628 Q947.583 561.42 945.897 559.124 Q944.234 556.829 941.165 556.829 Q939.057 556.829 937.277 558.117 Q935.497 559.405 934.677 561.701 Q934.818 561.654 935.31 561.654 Q936.504 561.654 937.16 562.403 Q937.839 563.153 937.839 564.16 Q937.839 565.448 936.996 566.081 Q936.176 566.69 935.357 566.69 Q935.029 566.69 934.584 566.619 Q934.162 566.549 933.483 565.893 Q932.804 565.214 932.804 564.019 Q932.804 560.67 935.333 558 Q937.886 555.33 941.774 555.33 Q946.178 555.33 949.059 557.953 Q951.963 560.553 951.963 564.628 Q951.963 566.057 951.518 567.369 Q951.096 568.657 950.511 569.664 Q949.949 570.671 948.403 572.288 Q946.857 573.904 945.616 575.051 Q944.374 576.199 941.587 578.635 L936.504 583.577 L945.147 583.577 Q949.363 583.577 949.691 583.202 Q950.16 582.523 950.745 578.94 L951.963 578.94 L950.605 587.278 L932.804 587.278 Z" fill="#000000" fill-rule="evenodd" fill-opacity="1" /></svg>
