<?xml version="1.0" encoding="utf-8"?>
<svg xmlns="http://www.w3.org/2000/svg" xmlns:xlink="http://www.w3.org/1999/xlink" width="672" height="480" viewBox="0 0 2688 1920">
<defs>
  <clipPath id="clip350">
    <rect x="0" y="0" width="2688" height="1920"/>
  </clipPath>
</defs>
<path clip-path="url(#clip350)" d="
M0 1920 L2688 1920 L2688 0 L0 0  Z
  " fill="#ffffff" fill-rule="evenodd" fill-opacity="1"/>
<defs>
  <clipPath id="clip351">
    <rect x="537" y="0" width="1883" height="1883"/>
  </clipPath>
</defs>
<path clip-path="url(#clip350)" d="
M143.576 1800.78 L2640.76 1800.78 L2640.76 47.2441 L143.576 47.2441  Z
  " fill="#ffffff" fill-rule="evenodd" fill-opacity="1"/>
<defs>
  <clipPath id="clip352">
    <rect x="143" y="47" width="2498" height="1755"/>
  </clipPath>
</defs>
<polyline clip-path="url(#clip352)" style="stroke:#000000; stroke-linecap:round; stroke-linejoin:round; stroke-width:2; stroke-opacity:0.1; fill:none" points="
  214.25,1800.78 214.25,47.2441 
  "/>
<polyline clip-path="url(#clip352)" style="stroke:#000000; stroke-linecap:round; stroke-linejoin:round; stroke-width:2; stroke-opacity:0.1; fill:none" points="
  606.889,1800.78 606.889,47.2441 
  "/>
<polyline clip-path="url(#clip352)" style="stroke:#000000; stroke-linecap:round; stroke-linejoin:round; stroke-width:2; stroke-opacity:0.1; fill:none" points="
  999.527,1800.78 999.527,47.2441 
  "/>
<polyline clip-path="url(#clip352)" style="stroke:#000000; stroke-linecap:round; stroke-linejoin:round; stroke-width:2; stroke-opacity:0.1; fill:none" points="
  1392.17,1800.78 1392.17,47.2441 
  "/>
<polyline clip-path="url(#clip352)" style="stroke:#000000; stroke-linecap:round; stroke-linejoin:round; stroke-width:2; stroke-opacity:0.1; fill:none" points="
  1784.8,1800.78 1784.8,47.2441 
  "/>
<polyline clip-path="url(#clip352)" style="stroke:#000000; stroke-linecap:round; stroke-linejoin:round; stroke-width:2; stroke-opacity:0.1; fill:none" points="
  2177.44,1800.78 2177.44,47.2441 
  "/>
<polyline clip-path="url(#clip352)" style="stroke:#000000; stroke-linecap:round; stroke-linejoin:round; stroke-width:2; stroke-opacity:0.1; fill:none" points="
  2570.08,1800.78 2570.08,47.2441 
  "/>
<polyline clip-path="url(#clip350)" style="stroke:#000000; stroke-linecap:round; stroke-linejoin:round; stroke-width:4; stroke-opacity:1; fill:none" points="
  143.576,1800.78 2640.76,1800.78 
  "/>
<polyline clip-path="url(#clip350)" style="stroke:#000000; stroke-linecap:round; stroke-linejoin:round; stroke-width:4; stroke-opacity:1; fill:none" points="
  214.25,1800.78 214.25,1781.88 
  "/>
<polyline clip-path="url(#clip350)" style="stroke:#000000; stroke-linecap:round; stroke-linejoin:round; stroke-width:4; stroke-opacity:1; fill:none" points="
  606.889,1800.78 606.889,1781.88 
  "/>
<polyline clip-path="url(#clip350)" style="stroke:#000000; stroke-linecap:round; stroke-linejoin:round; stroke-width:4; stroke-opacity:1; fill:none" points="
  999.527,1800.78 999.527,1781.88 
  "/>
<polyline clip-path="url(#clip350)" style="stroke:#000000; stroke-linecap:round; stroke-linejoin:round; stroke-width:4; stroke-opacity:1; fill:none" points="
  1392.17,1800.78 1392.17,1781.88 
  "/>
<polyline clip-path="url(#clip350)" style="stroke:#000000; stroke-linecap:round; stroke-linejoin:round; stroke-width:4; stroke-opacity:1; fill:none" points="
  1784.8,1800.78 1784.8,1781.88 
  "/>
<polyline clip-path="url(#clip350)" style="stroke:#000000; stroke-linecap:round; stroke-linejoin:round; stroke-width:4; stroke-opacity:1; fill:none" points="
  2177.44,1800.78 2177.44,1781.88 
  "/>
<polyline clip-path="url(#clip350)" style="stroke:#000000; stroke-linecap:round; stroke-linejoin:round; stroke-width:4; stroke-opacity:1; fill:none" points="
  2570.08,1800.78 2570.08,1781.88 
  "/>
<path clip-path="url(#clip350)" d="M214.25 1834 Q210.639 1834 208.811 1837.57 Q207.005 1841.11 207.005 1848.24 Q207.005 1855.34 208.811 1858.91 Q210.639 1862.45 214.25 1862.45 Q217.885 1862.45 219.69 1858.91 Q221.519 1855.34 221.519 1848.24 Q221.519 1841.11 219.69 1837.57 Q217.885 1834 214.25 1834 M214.25 1830.3 Q220.061 1830.3 223.116 1834.9 Q226.195 1839.49 226.195 1848.24 Q226.195 1856.96 223.116 1861.57 Q220.061 1866.15 214.25 1866.15 Q208.44 1866.15 205.362 1861.57 Q202.306 1856.96 202.306 1848.24 Q202.306 1839.49 205.362 1834.9 Q208.44 1830.3 214.25 1830.3 Z" fill="#000000" fill-rule="evenodd" fill-opacity="1" /><path clip-path="url(#clip350)" d="M597.271 1861.55 L604.91 1861.55 L604.91 1835.18 L596.6 1836.85 L596.6 1832.59 L604.863 1830.92 L609.539 1830.92 L609.539 1861.55 L617.178 1861.55 L617.178 1865.48 L597.271 1865.48 L597.271 1861.55 Z" fill="#000000" fill-rule="evenodd" fill-opacity="1" /><path clip-path="url(#clip350)" d="M994.18 1861.55 L1010.5 1861.55 L1010.5 1865.48 L988.555 1865.48 L988.555 1861.55 Q991.217 1858.79 995.8 1854.16 Q1000.41 1849.51 1001.59 1848.17 Q1003.83 1845.65 1004.71 1843.91 Q1005.62 1842.15 1005.62 1840.46 Q1005.62 1837.71 1003.67 1835.97 Q1001.75 1834.23 998.648 1834.23 Q996.449 1834.23 993.995 1835 Q991.564 1835.76 988.787 1837.31 L988.787 1832.59 Q991.611 1831.46 994.064 1830.88 Q996.518 1830.3 998.555 1830.3 Q1003.93 1830.3 1007.12 1832.98 Q1010.31 1835.67 1010.31 1840.16 Q1010.31 1842.29 1009.5 1844.21 Q1008.72 1846.11 1006.61 1848.7 Q1006.03 1849.37 1002.93 1852.59 Q999.828 1855.78 994.18 1861.55 Z" fill="#000000" fill-rule="evenodd" fill-opacity="1" /><path clip-path="url(#clip350)" d="M1396.41 1846.85 Q1399.77 1847.57 1401.64 1849.84 Q1403.54 1852.1 1403.54 1855.44 Q1403.54 1860.55 1400.02 1863.35 Q1396.51 1866.15 1390.02 1866.15 Q1387.85 1866.15 1385.53 1865.71 Q1383.24 1865.3 1380.79 1864.44 L1380.79 1859.93 Q1382.73 1861.06 1385.05 1861.64 Q1387.36 1862.22 1389.89 1862.22 Q1394.28 1862.22 1396.58 1860.48 Q1398.89 1858.75 1398.89 1855.44 Q1398.89 1852.38 1396.74 1850.67 Q1394.61 1848.93 1390.79 1848.93 L1386.76 1848.93 L1386.76 1845.09 L1390.97 1845.09 Q1394.42 1845.09 1396.25 1843.72 Q1398.08 1842.34 1398.08 1839.74 Q1398.08 1837.08 1396.18 1835.67 Q1394.31 1834.23 1390.79 1834.23 Q1388.87 1834.23 1386.67 1834.65 Q1384.47 1835.07 1381.83 1835.95 L1381.83 1831.78 Q1384.49 1831.04 1386.81 1830.67 Q1389.14 1830.3 1391.21 1830.3 Q1396.53 1830.3 1399.63 1832.73 Q1402.73 1835.14 1402.73 1839.26 Q1402.73 1842.13 1401.09 1844.12 Q1399.45 1846.09 1396.41 1846.85 Z" fill="#000000" fill-rule="evenodd" fill-opacity="1" /><path clip-path="url(#clip350)" d="M1787.81 1835 L1776.01 1853.45 L1787.81 1853.45 L1787.81 1835 M1786.59 1830.92 L1792.47 1830.92 L1792.47 1853.45 L1797.4 1853.45 L1797.4 1857.34 L1792.47 1857.34 L1792.47 1865.48 L1787.81 1865.48 L1787.81 1857.34 L1772.21 1857.34 L1772.21 1852.82 L1786.59 1830.92 Z" fill="#000000" fill-rule="evenodd" fill-opacity="1" /><path clip-path="url(#clip350)" d="M2167.72 1830.92 L2186.08 1830.92 L2186.08 1834.86 L2172 1834.86 L2172 1843.33 Q2173.02 1842.98 2174.04 1842.82 Q2175.06 1842.64 2176.08 1842.64 Q2181.86 1842.64 2185.24 1845.81 Q2188.62 1848.98 2188.62 1854.4 Q2188.62 1859.97 2185.15 1863.08 Q2181.68 1866.15 2175.36 1866.15 Q2173.18 1866.15 2170.91 1865.78 Q2168.67 1865.41 2166.26 1864.67 L2166.26 1859.97 Q2168.35 1861.11 2170.57 1861.66 Q2172.79 1862.22 2175.27 1862.22 Q2179.27 1862.22 2181.61 1860.11 Q2183.95 1858.01 2183.95 1854.4 Q2183.95 1850.78 2181.61 1848.68 Q2179.27 1846.57 2175.27 1846.57 Q2173.39 1846.57 2171.52 1846.99 Q2169.66 1847.4 2167.72 1848.28 L2167.72 1830.92 Z" fill="#000000" fill-rule="evenodd" fill-opacity="1" /><path clip-path="url(#clip350)" d="M2570.49 1846.34 Q2567.34 1846.34 2565.49 1848.49 Q2563.66 1850.65 2563.66 1854.4 Q2563.66 1858.12 2565.49 1860.3 Q2567.34 1862.45 2570.49 1862.45 Q2573.63 1862.45 2575.46 1860.3 Q2577.31 1858.12 2577.31 1854.4 Q2577.31 1850.65 2575.46 1848.49 Q2573.63 1846.34 2570.49 1846.34 M2579.77 1831.69 L2579.77 1835.95 Q2578.01 1835.11 2576.2 1834.67 Q2574.42 1834.23 2572.66 1834.23 Q2568.03 1834.23 2565.58 1837.36 Q2563.15 1840.48 2562.8 1846.8 Q2564.17 1844.79 2566.23 1843.72 Q2568.29 1842.64 2570.76 1842.64 Q2575.97 1842.64 2578.98 1845.81 Q2582.01 1848.96 2582.01 1854.4 Q2582.01 1859.72 2578.87 1862.94 Q2575.72 1866.15 2570.49 1866.15 Q2564.49 1866.15 2561.32 1861.57 Q2558.15 1856.96 2558.15 1848.24 Q2558.15 1840.04 2562.04 1835.18 Q2565.93 1830.3 2572.48 1830.3 Q2574.24 1830.3 2576.02 1830.65 Q2577.82 1830.99 2579.77 1831.69 Z" fill="#000000" fill-rule="evenodd" fill-opacity="1" /><polyline clip-path="url(#clip352)" style="stroke:#000000; stroke-linecap:round; stroke-linejoin:round; stroke-width:2; stroke-opacity:0.1; fill:none" points="
  143.576,1514.83 2640.76,1514.83 
  "/>
<polyline clip-path="url(#clip352)" style="stroke:#000000; stroke-linecap:round; stroke-linejoin:round; stroke-width:2; stroke-opacity:0.1; fill:none" points="
  143.576,1120.95 2640.76,1120.95 
  "/>
<polyline clip-path="url(#clip352)" style="stroke:#000000; stroke-linecap:round; stroke-linejoin:round; stroke-width:2; stroke-opacity:0.1; fill:none" points="
  143.576,727.074 2640.76,727.074 
  "/>
<polyline clip-path="url(#clip352)" style="stroke:#000000; stroke-linecap:round; stroke-linejoin:round; stroke-width:2; stroke-opacity:0.1; fill:none" points="
  143.576,333.198 2640.76,333.198 
  "/>
<polyline clip-path="url(#clip350)" style="stroke:#000000; stroke-linecap:round; stroke-linejoin:round; stroke-width:4; stroke-opacity:1; fill:none" points="
  143.576,1800.78 143.576,47.2441 
  "/>
<polyline clip-path="url(#clip350)" style="stroke:#000000; stroke-linecap:round; stroke-linejoin:round; stroke-width:4; stroke-opacity:1; fill:none" points="
  143.576,1514.83 162.473,1514.83 
  "/>
<polyline clip-path="url(#clip350)" style="stroke:#000000; stroke-linecap:round; stroke-linejoin:round; stroke-width:4; stroke-opacity:1; fill:none" points="
  143.576,1120.95 162.473,1120.95 
  "/>
<polyline clip-path="url(#clip350)" style="stroke:#000000; stroke-linecap:round; stroke-linejoin:round; stroke-width:4; stroke-opacity:1; fill:none" points="
  143.576,727.074 162.473,727.074 
  "/>
<polyline clip-path="url(#clip350)" style="stroke:#000000; stroke-linecap:round; stroke-linejoin:round; stroke-width:4; stroke-opacity:1; fill:none" points="
  143.576,333.198 162.473,333.198 
  "/>
<path clip-path="url(#clip350)" d="M91.3112 1500.62 Q87.7001 1500.62 85.8714 1504.19 Q84.0658 1507.73 84.0658 1514.86 Q84.0658 1521.97 85.8714 1525.53 Q87.7001 1529.07 91.3112 1529.07 Q94.9454 1529.07 96.7509 1525.53 Q98.5796 1521.97 98.5796 1514.86 Q98.5796 1507.73 96.7509 1504.19 Q94.9454 1500.62 91.3112 1500.62 M91.3112 1496.92 Q97.1213 1496.92 100.177 1501.53 Q103.256 1506.11 103.256 1514.86 Q103.256 1523.59 100.177 1528.19 Q97.1213 1532.78 91.3112 1532.78 Q85.501 1532.78 82.4223 1528.19 Q79.3668 1523.59 79.3668 1514.86 Q79.3668 1506.11 82.4223 1501.53 Q85.501 1496.92 91.3112 1496.92 Z" fill="#000000" fill-rule="evenodd" fill-opacity="1" /><path clip-path="url(#clip350)" d="M51.9595 1134.29 L59.5984 1134.29 L59.5984 1107.93 L51.2882 1109.6 L51.2882 1105.34 L59.5521 1103.67 L64.228 1103.67 L64.228 1134.29 L71.8668 1134.29 L71.8668 1138.23 L51.9595 1138.23 L51.9595 1134.29 Z" fill="#000000" fill-rule="evenodd" fill-opacity="1" /><path clip-path="url(#clip350)" d="M91.3112 1106.75 Q87.7001 1106.75 85.8714 1110.31 Q84.0658 1113.85 84.0658 1120.98 Q84.0658 1128.09 85.8714 1131.66 Q87.7001 1135.2 91.3112 1135.2 Q94.9454 1135.2 96.7509 1131.66 Q98.5796 1128.09 98.5796 1120.98 Q98.5796 1113.85 96.7509 1110.31 Q94.9454 1106.75 91.3112 1106.75 M91.3112 1103.04 Q97.1213 1103.04 100.177 1107.65 Q103.256 1112.23 103.256 1120.98 Q103.256 1129.71 100.177 1134.32 Q97.1213 1138.9 91.3112 1138.9 Q85.501 1138.9 82.4223 1134.32 Q79.3668 1129.71 79.3668 1120.98 Q79.3668 1112.23 82.4223 1107.65 Q85.501 1103.04 91.3112 1103.04 Z" fill="#000000" fill-rule="evenodd" fill-opacity="1" /><path clip-path="url(#clip350)" d="M55.1771 740.419 L71.4965 740.419 L71.4965 744.354 L49.5521 744.354 L49.5521 740.419 Q52.2141 737.664 56.7975 733.034 Q61.4039 728.382 62.5845 727.039 Q64.8298 724.516 65.7094 722.78 Q66.6122 721.021 66.6122 719.331 Q66.6122 716.576 64.6678 714.84 Q62.7465 713.104 59.6447 713.104 Q57.4456 713.104 54.9919 713.868 Q52.5614 714.632 49.7836 716.183 L49.7836 711.46 Q52.6077 710.326 55.0614 709.747 Q57.515 709.169 59.5521 709.169 Q64.9224 709.169 68.1168 711.854 Q71.3113 714.539 71.3113 719.03 Q71.3113 721.159 70.5011 723.081 Q69.7141 724.979 67.6076 727.571 Q67.0289 728.243 63.927 731.46 Q60.8252 734.655 55.1771 740.419 Z" fill="#000000" fill-rule="evenodd" fill-opacity="1" /><path clip-path="url(#clip350)" d="M91.3112 712.872 Q87.7001 712.872 85.8714 716.437 Q84.0658 719.979 84.0658 727.109 Q84.0658 734.215 85.8714 737.78 Q87.7001 741.321 91.3112 741.321 Q94.9454 741.321 96.7509 737.78 Q98.5796 734.215 98.5796 727.109 Q98.5796 719.979 96.7509 716.437 Q94.9454 712.872 91.3112 712.872 M91.3112 709.169 Q97.1213 709.169 100.177 713.775 Q103.256 718.359 103.256 727.109 Q103.256 735.835 100.177 740.442 Q97.1213 745.025 91.3112 745.025 Q85.501 745.025 82.4223 740.442 Q79.3668 735.835 79.3668 727.109 Q79.3668 718.359 82.4223 713.775 Q85.501 709.169 91.3112 709.169 Z" fill="#000000" fill-rule="evenodd" fill-opacity="1" /><path clip-path="url(#clip350)" d="M65.3159 331.844 Q68.6724 332.561 70.5474 334.83 Q72.4455 337.098 72.4455 340.432 Q72.4455 345.547 68.927 348.348 Q65.4085 351.149 58.9271 351.149 Q56.7512 351.149 54.4364 350.709 Q52.1447 350.293 49.691 349.436 L49.691 344.922 Q51.6354 346.057 53.9503 346.635 Q56.2651 347.214 58.7882 347.214 Q63.1863 347.214 65.478 345.478 Q67.7928 343.742 67.7928 340.432 Q67.7928 337.376 65.64 335.663 Q63.5104 333.927 59.691 333.927 L55.6632 333.927 L55.6632 330.085 L59.8761 330.085 Q63.3252 330.085 65.1539 328.719 Q66.9826 327.33 66.9826 324.737 Q66.9826 322.075 65.0845 320.663 Q63.2095 319.228 59.691 319.228 Q57.7697 319.228 55.5706 319.645 Q53.3715 320.061 50.7327 320.941 L50.7327 316.774 Q53.3947 316.034 55.7095 315.663 Q58.0475 315.293 60.1076 315.293 Q65.4317 315.293 68.5335 317.723 Q71.6353 320.131 71.6353 324.251 Q71.6353 327.122 69.9918 329.112 Q68.3483 331.08 65.3159 331.844 Z" fill="#000000" fill-rule="evenodd" fill-opacity="1" /><path clip-path="url(#clip350)" d="M91.3112 318.997 Q87.7001 318.997 85.8714 322.561 Q84.0658 326.103 84.0658 333.233 Q84.0658 340.339 85.8714 343.904 Q87.7001 347.446 91.3112 347.446 Q94.9454 347.446 96.7509 343.904 Q98.5796 340.339 98.5796 333.233 Q98.5796 326.103 96.7509 322.561 Q94.9454 318.997 91.3112 318.997 M91.3112 315.293 Q97.1213 315.293 100.177 319.899 Q103.256 324.483 103.256 333.233 Q103.256 341.959 100.177 346.566 Q97.1213 351.149 91.3112 351.149 Q85.501 351.149 82.4223 346.566 Q79.3668 341.959 79.3668 333.233 Q79.3668 324.483 82.4223 319.899 Q85.501 315.293 91.3112 315.293 Z" fill="#000000" fill-rule="evenodd" fill-opacity="1" /><circle clip-path="url(#clip352)" cx="214.25" cy="1514.83" r="14.4" fill="#009af9" fill-rule="evenodd" fill-opacity="1" stroke="#000000" stroke-opacity="1" stroke-width="3.84"/>
<circle clip-path="url(#clip352)" cx="606.889" cy="1475.44" r="14.4" fill="#009af9" fill-rule="evenodd" fill-opacity="1" stroke="#000000" stroke-opacity="1" stroke-width="3.84"/>
<circle clip-path="url(#clip352)" cx="999.527" cy="1357.28" r="14.4" fill="#009af9" fill-rule="evenodd" fill-opacity="1" stroke="#000000" stroke-opacity="1" stroke-width="3.84"/>
<circle clip-path="url(#clip352)" cx="1392.17" cy="1160.34" r="14.4" fill="#009af9" fill-rule="evenodd" fill-opacity="1" stroke="#000000" stroke-opacity="1" stroke-width="3.84"/>
<circle clip-path="url(#clip352)" cx="1784.8" cy="884.624" r="14.4" fill="#009af9" fill-rule="evenodd" fill-opacity="1" stroke="#000000" stroke-opacity="1" stroke-width="3.84"/>
<circle clip-path="url(#clip352)" cx="2177.44" cy="530.136" r="14.4" fill="#009af9" fill-rule="evenodd" fill-opacity="1" stroke="#000000" stroke-opacity="1" stroke-width="3.84"/>
<circle clip-path="url(#clip352)" cx="2570.08" cy="96.8724" r="14.4" fill="#009af9" fill-rule="evenodd" fill-opacity="1" stroke="#000000" stroke-opacity="1" stroke-width="3.84"/>
<polyline clip-path="url(#clip352)" style="stroke:#0000ff; stroke-linecap:round; stroke-linejoin:round; stroke-width:4; stroke-opacity:1; fill:none" points="
  214.25,1514.83 606.889,1475.44 999.527,1357.28 1392.17,1160.34 1784.8,884.624 2177.44,530.136 2570.08,96.8724 
  "/>
<polyline clip-path="url(#clip352)" style="stroke:#3da44d; stroke-linecap:round; stroke-linejoin:round; stroke-width:4; stroke-opacity:1; fill:none" points="
  214.25,1514.83 229.588,1510.21 371.408,1467.53 456.635,1441.88 528.694,1420.19 606.971,1396.64 679.134,1374.92 756.501,1351.64 846.139,1324.66 925.798,1300.69 
  995.652,1279.67 1071.81,1256.75 1148.42,1233.69 1233.13,1208.2 1313.72,1183.94 1397.52,1158.73 1468.06,1137.5 1554.19,1111.58 1633.08,1087.84 1705.94,1065.91 
  1779.75,1043.69 1862.47,1018.8 1937.43,996.242 2023.25,970.415 2102.71,946.501 2181.06,922.924 2257.12,900.034 2335.09,876.568 2420.52,850.858 2544.62,813.511 
  2570.08,805.849 
  "/>
<polyline clip-path="url(#clip352)" style="stroke:#c271d2; stroke-linecap:round; stroke-linejoin:round; stroke-width:4; stroke-opacity:1; fill:none" points="
  214.25,1632.99 229.588,1626.83 371.408,1569.93 456.635,1535.73 528.694,1506.81 606.971,1475.41 679.134,1446.45 756.501,1415.4 846.139,1379.44 925.798,1347.47 
  995.652,1319.44 1071.81,1288.88 1148.42,1258.14 1233.13,1224.15 1313.72,1191.81 1397.52,1158.19 1468.06,1129.88 1554.19,1095.33 1633.08,1063.67 1705.94,1034.43 
  1779.75,1004.81 1862.47,971.621 1937.43,941.544 2023.25,907.107 2102.71,875.222 2181.06,843.787 2257.12,813.266 2335.09,781.978 2420.52,747.699 2544.62,697.902 
  2570.08,687.686 
  "/>
<polyline clip-path="url(#clip352)" style="stroke:#ac8d18; stroke-linecap:round; stroke-linejoin:round; stroke-width:4; stroke-opacity:1; fill:none" points="
  214.25,1751.15 229.588,1743.46 371.408,1672.32 456.635,1629.58 528.694,1593.43 606.971,1554.17 679.134,1517.98 756.501,1479.17 846.139,1434.21 925.798,1394.26 
  995.652,1359.22 1071.81,1321.02 1148.42,1282.59 1233.13,1240.11 1313.72,1199.68 1397.52,1157.65 1468.06,1122.27 1554.19,1079.07 1633.08,1039.5 1705.94,1002.95 
  1779.75,965.933 1862.47,924.443 1937.43,886.846 2023.25,843.8 2102.71,803.943 2181.06,764.649 2257.12,726.498 2335.09,687.388 2420.52,644.539 2544.62,582.293 
  2570.08,569.523 
  "/>
</svg>
