<?xml version="1.0" encoding="utf-8"?>
<svg xmlns="http://www.w3.org/2000/svg" xmlns:xlink="http://www.w3.org/1999/xlink" width="672" height="480" viewBox="0 0 2688 1920">
<defs>
  <clipPath id="clip320">
    <rect x="0" y="0" width="2688" height="1920"/>
  </clipPath>
</defs>
<path clip-path="url(#clip320)" d="
M0 1920 L2688 1920 L2688 0 L0 0  Z
  " fill="#ffffff" fill-rule="evenodd" fill-opacity="1"/>
<defs>
  <clipPath id="clip321">
    <rect x="537" y="0" width="1883" height="1883"/>
  </clipPath>
</defs>
<defs>
  <clipPath id="clip322">
    <rect x="226" y="47" width="2339" height="1755"/>
  </clipPath>
</defs>
<path clip-path="url(#clip320)" d="
M150.358 1800.78 L2640.76 1800.78 L2640.76 47.2441 L150.358 47.2441  Z
  " fill="#ffffff" fill-rule="evenodd" fill-opacity="1"/>
<defs>
  <clipPath id="clip323">
    <rect x="150" y="47" width="2491" height="1755"/>
  </clipPath>
</defs>
<polyline clip-path="url(#clip323)" style="stroke:#000000; stroke-linecap:round; stroke-linejoin:round; stroke-width:2; stroke-opacity:0.1; fill:none" points="
  220.841,1800.78 220.841,47.2441 
  "/>
<polyline clip-path="url(#clip323)" style="stroke:#000000; stroke-linecap:round; stroke-linejoin:round; stroke-width:2; stroke-opacity:0.1; fill:none" points="
  808.199,1800.78 808.199,47.2441 
  "/>
<polyline clip-path="url(#clip323)" style="stroke:#000000; stroke-linecap:round; stroke-linejoin:round; stroke-width:2; stroke-opacity:0.1; fill:none" points="
  1395.56,1800.78 1395.56,47.2441 
  "/>
<polyline clip-path="url(#clip323)" style="stroke:#000000; stroke-linecap:round; stroke-linejoin:round; stroke-width:2; stroke-opacity:0.1; fill:none" points="
  1982.91,1800.78 1982.91,47.2441 
  "/>
<polyline clip-path="url(#clip323)" style="stroke:#000000; stroke-linecap:round; stroke-linejoin:round; stroke-width:2; stroke-opacity:0.1; fill:none" points="
  2570.27,1800.78 2570.27,47.2441 
  "/>
<polyline clip-path="url(#clip320)" style="stroke:#000000; stroke-linecap:round; stroke-linejoin:round; stroke-width:4; stroke-opacity:1; fill:none" points="
  150.358,1800.78 2640.76,1800.78 
  "/>
<polyline clip-path="url(#clip320)" style="stroke:#000000; stroke-linecap:round; stroke-linejoin:round; stroke-width:4; stroke-opacity:1; fill:none" points="
  220.841,1800.78 220.841,1781.88 
  "/>
<polyline clip-path="url(#clip320)" style="stroke:#000000; stroke-linecap:round; stroke-linejoin:round; stroke-width:4; stroke-opacity:1; fill:none" points="
  808.199,1800.78 808.199,1781.88 
  "/>
<polyline clip-path="url(#clip320)" style="stroke:#000000; stroke-linecap:round; stroke-linejoin:round; stroke-width:4; stroke-opacity:1; fill:none" points="
  1395.56,1800.78 1395.56,1781.88 
  "/>
<polyline clip-path="url(#clip320)" style="stroke:#000000; stroke-linecap:round; stroke-linejoin:round; stroke-width:4; stroke-opacity:1; fill:none" points="
  1982.91,1800.78 1982.91,1781.88 
  "/>
<polyline clip-path="url(#clip320)" style="stroke:#000000; stroke-linecap:round; stroke-linejoin:round; stroke-width:4; stroke-opacity:1; fill:none" points="
  2570.27,1800.78 2570.27,1781.88 
  "/>
<path clip-path="url(#clip320)" d="M190.783 1848.65 L220.459 1848.65 L220.459 1852.59 L190.783 1852.59 L190.783 1848.65 Z" fill="#000000" fill-rule="evenodd" fill-opacity="1" /><path clip-path="url(#clip320)" d="M234.579 1861.55 L250.899 1861.55 L250.899 1865.48 L228.954 1865.48 L228.954 1861.55 Q231.616 1858.79 236.2 1854.16 Q240.806 1849.51 241.987 1848.17 Q244.232 1845.65 245.112 1843.91 Q246.014 1842.15 246.014 1840.46 Q246.014 1837.71 244.07 1835.97 Q242.149 1834.23 239.047 1834.23 Q236.848 1834.23 234.394 1835 Q231.964 1835.76 229.186 1837.31 L229.186 1832.59 Q232.01 1831.46 234.463 1830.88 Q236.917 1830.3 238.954 1830.3 Q244.325 1830.3 247.519 1832.98 Q250.713 1835.67 250.713 1840.16 Q250.713 1842.29 249.903 1844.21 Q249.116 1846.11 247.01 1848.7 Q246.431 1849.37 243.329 1852.59 Q240.227 1855.78 234.579 1861.55 Z" fill="#000000" fill-rule="evenodd" fill-opacity="1" /><path clip-path="url(#clip320)" d="M777.956 1848.65 L807.632 1848.65 L807.632 1852.59 L777.956 1852.59 L777.956 1848.65 Z" fill="#000000" fill-rule="evenodd" fill-opacity="1" /><path clip-path="url(#clip320)" d="M818.534 1861.55 L826.173 1861.55 L826.173 1835.18 L817.863 1836.85 L817.863 1832.59 L826.127 1830.92 L830.803 1830.92 L830.803 1861.55 L838.442 1861.55 L838.442 1865.48 L818.534 1865.48 L818.534 1861.55 Z" fill="#000000" fill-rule="evenodd" fill-opacity="1" /><path clip-path="url(#clip320)" d="M1395.56 1834 Q1391.95 1834 1390.12 1837.57 Q1388.31 1841.11 1388.31 1848.24 Q1388.31 1855.34 1390.12 1858.91 Q1391.95 1862.45 1395.56 1862.45 Q1399.19 1862.45 1401 1858.91 Q1402.83 1855.34 1402.83 1848.24 Q1402.83 1841.11 1401 1837.57 Q1399.19 1834 1395.56 1834 M1395.56 1830.3 Q1401.37 1830.3 1404.42 1834.9 Q1407.5 1839.49 1407.5 1848.24 Q1407.5 1856.96 1404.42 1861.57 Q1401.37 1866.15 1395.56 1866.15 Q1389.75 1866.15 1386.67 1861.57 Q1383.61 1856.96 1383.61 1848.24 Q1383.61 1839.49 1386.67 1834.9 Q1389.75 1830.3 1395.56 1830.3 Z" fill="#000000" fill-rule="evenodd" fill-opacity="1" /><path clip-path="url(#clip320)" d="M1973.3 1861.55 L1980.94 1861.55 L1980.94 1835.18 L1972.63 1836.85 L1972.63 1832.59 L1980.89 1830.92 L1985.57 1830.92 L1985.57 1861.55 L1993.2 1861.55 L1993.2 1865.48 L1973.3 1865.48 L1973.3 1861.55 Z" fill="#000000" fill-rule="evenodd" fill-opacity="1" /><path clip-path="url(#clip320)" d="M2564.93 1861.55 L2581.25 1861.55 L2581.25 1865.48 L2559.3 1865.48 L2559.3 1861.55 Q2561.96 1858.79 2566.55 1854.16 Q2571.15 1849.51 2572.33 1848.17 Q2574.58 1845.65 2575.46 1843.91 Q2576.36 1842.15 2576.36 1840.46 Q2576.36 1837.71 2574.42 1835.97 Q2572.5 1834.23 2569.39 1834.23 Q2567.19 1834.23 2564.74 1835 Q2562.31 1835.76 2559.53 1837.31 L2559.53 1832.59 Q2562.36 1831.46 2564.81 1830.88 Q2567.26 1830.3 2569.3 1830.3 Q2574.67 1830.3 2577.87 1832.98 Q2581.06 1835.67 2581.06 1840.16 Q2581.06 1842.29 2580.25 1844.21 Q2579.46 1846.11 2577.36 1848.7 Q2576.78 1849.37 2573.68 1852.59 Q2570.57 1855.78 2564.93 1861.55 Z" fill="#000000" fill-rule="evenodd" fill-opacity="1" /><polyline clip-path="url(#clip323)" style="stroke:#000000; stroke-linecap:round; stroke-linejoin:round; stroke-width:2; stroke-opacity:0.1; fill:none" points="
  150.358,1751.15 2640.76,1751.15 
  "/>
<polyline clip-path="url(#clip323)" style="stroke:#000000; stroke-linecap:round; stroke-linejoin:round; stroke-width:2; stroke-opacity:0.1; fill:none" points="
  150.358,1337.58 2640.76,1337.58 
  "/>
<polyline clip-path="url(#clip323)" style="stroke:#000000; stroke-linecap:round; stroke-linejoin:round; stroke-width:2; stroke-opacity:0.1; fill:none" points="
  150.358,924.012 2640.76,924.012 
  "/>
<polyline clip-path="url(#clip323)" style="stroke:#000000; stroke-linecap:round; stroke-linejoin:round; stroke-width:2; stroke-opacity:0.1; fill:none" points="
  150.358,510.442 2640.76,510.442 
  "/>
<polyline clip-path="url(#clip323)" style="stroke:#000000; stroke-linecap:round; stroke-linejoin:round; stroke-width:2; stroke-opacity:0.1; fill:none" points="
  150.358,96.8724 2640.76,96.8724 
  "/>
<polyline clip-path="url(#clip320)" style="stroke:#000000; stroke-linecap:round; stroke-linejoin:round; stroke-width:4; stroke-opacity:1; fill:none" points="
  150.358,1800.78 150.358,47.2441 
  "/>
<polyline clip-path="url(#clip320)" style="stroke:#000000; stroke-linecap:round; stroke-linejoin:round; stroke-width:4; stroke-opacity:1; fill:none" points="
  150.358,1751.15 169.256,1751.15 
  "/>
<polyline clip-path="url(#clip320)" style="stroke:#000000; stroke-linecap:round; stroke-linejoin:round; stroke-width:4; stroke-opacity:1; fill:none" points="
  150.358,1337.58 169.256,1337.58 
  "/>
<polyline clip-path="url(#clip320)" style="stroke:#000000; stroke-linecap:round; stroke-linejoin:round; stroke-width:4; stroke-opacity:1; fill:none" points="
  150.358,924.012 169.256,924.012 
  "/>
<polyline clip-path="url(#clip320)" style="stroke:#000000; stroke-linecap:round; stroke-linejoin:round; stroke-width:4; stroke-opacity:1; fill:none" points="
  150.358,510.442 169.256,510.442 
  "/>
<polyline clip-path="url(#clip320)" style="stroke:#000000; stroke-linecap:round; stroke-linejoin:round; stroke-width:4; stroke-opacity:1; fill:none" points="
  150.358,96.8724 169.256,96.8724 
  "/>
<path clip-path="url(#clip320)" d="M49.9225 1751.6 L79.5983 1751.6 L79.5983 1755.54 L49.9225 1755.54 L49.9225 1751.6 Z" fill="#000000" fill-rule="evenodd" fill-opacity="1" /><path clip-path="url(#clip320)" d="M93.7186 1764.5 L110.038 1764.5 L110.038 1768.43 L88.0936 1768.43 L88.0936 1764.5 Q90.7556 1761.74 95.3389 1757.11 Q99.9454 1752.46 101.126 1751.12 Q103.371 1748.59 104.251 1746.86 Q105.154 1745.1 105.154 1743.41 Q105.154 1740.65 103.209 1738.92 Q101.288 1737.18 98.1861 1737.18 Q95.9871 1737.18 93.5334 1737.94 Q91.1028 1738.71 88.3251 1740.26 L88.3251 1735.54 Q91.1491 1734.4 93.6028 1733.82 Q96.0565 1733.25 98.0935 1733.25 Q103.464 1733.25 106.658 1735.93 Q109.853 1738.62 109.853 1743.11 Q109.853 1745.24 109.043 1747.16 Q108.256 1749.06 106.149 1751.65 Q105.57 1752.32 102.469 1755.54 Q99.3667 1758.73 93.7186 1764.5 Z" fill="#000000" fill-rule="evenodd" fill-opacity="1" /><path clip-path="url(#clip320)" d="M49.5521 1338.03 L79.2279 1338.03 L79.2279 1341.97 L49.5521 1341.97 L49.5521 1338.03 Z" fill="#000000" fill-rule="evenodd" fill-opacity="1" /><path clip-path="url(#clip320)" d="M90.1306 1350.93 L97.7695 1350.93 L97.7695 1324.56 L89.4593 1326.23 L89.4593 1321.97 L97.7232 1320.3 L102.399 1320.3 L102.399 1350.93 L110.038 1350.93 L110.038 1354.86 L90.1306 1354.86 L90.1306 1350.93 Z" fill="#000000" fill-rule="evenodd" fill-opacity="1" /><path clip-path="url(#clip320)" d="M98.0935 909.81 Q94.4824 909.81 92.6537 913.375 Q90.8482 916.917 90.8482 924.046 Q90.8482 931.153 92.6537 934.718 Q94.4824 938.259 98.0935 938.259 Q101.728 938.259 103.533 934.718 Q105.362 931.153 105.362 924.046 Q105.362 916.917 103.533 913.375 Q101.728 909.81 98.0935 909.81 M98.0935 906.107 Q103.904 906.107 106.959 910.713 Q110.038 915.296 110.038 924.046 Q110.038 932.773 106.959 937.38 Q103.904 941.963 98.0935 941.963 Q92.2834 941.963 89.2047 937.38 Q86.1492 932.773 86.1492 924.046 Q86.1492 915.296 89.2047 910.713 Q92.2834 906.107 98.0935 906.107 Z" fill="#000000" fill-rule="evenodd" fill-opacity="1" /><path clip-path="url(#clip320)" d="M90.1306 523.787 L97.7695 523.787 L97.7695 497.421 L89.4593 499.088 L89.4593 494.829 L97.7232 493.162 L102.399 493.162 L102.399 523.787 L110.038 523.787 L110.038 527.722 L90.1306 527.722 L90.1306 523.787 Z" fill="#000000" fill-rule="evenodd" fill-opacity="1" /><path clip-path="url(#clip320)" d="M93.7186 110.217 L110.038 110.217 L110.038 114.152 L88.0936 114.152 L88.0936 110.217 Q90.7556 107.463 95.3389 102.833 Q99.9454 98.1803 101.126 96.8377 Q103.371 94.3146 104.251 92.5785 Q105.154 90.8192 105.154 89.1294 Q105.154 86.3748 103.209 84.6387 Q101.288 82.9026 98.1861 82.9026 Q95.9871 82.9026 93.5334 83.6665 Q91.1028 84.4304 88.3251 85.9813 L88.3251 81.2591 Q91.1491 80.1249 93.6028 79.5462 Q96.0565 78.9675 98.0935 78.9675 Q103.464 78.9675 106.658 81.6526 Q109.853 84.3378 109.853 88.8285 Q109.853 90.9581 109.043 92.8794 Q108.256 94.7776 106.149 97.3701 Q105.57 98.0414 102.469 101.259 Q99.3667 104.453 93.7186 110.217 Z" fill="#000000" fill-rule="evenodd" fill-opacity="1" /><polyline clip-path="url(#clip323)" style="stroke:#009af9; stroke-linecap:round; stroke-linejoin:round; stroke-width:4; stroke-opacity:1; fill:none" points="
  220.841,1751.15 236.137,1723.13 377.571,1462.46 462.568,1305.58 534.431,1174.08 573.463,1103.6 612.494,1034.15 648.478,971.357 684.462,910.087 723.04,846.555 
  761.619,785.826 783.967,752.195 806.316,719.884 828.664,689.056 851.013,659.889 870.874,635.514 890.734,612.739 910.595,591.714 930.456,572.592 947.872,557.516 
  965.288,544.137 982.704,532.567 1000.12,522.917 1019.11,514.713 1038.1,509.064 1057.08,506.102 1076.07,505.95 1095.17,508.743 1114.27,514.585 1133.38,523.549 
  1152.48,535.681 1173.6,552.799 1194.71,573.781 1215.83,598.54 1236.95,626.929 1257.04,657.115 1277.14,690.154 1297.23,725.751 1317.33,763.561 1359.11,847.519 
  1400.9,935.292 1436.07,1008.92 1471.25,1079.54 1492.72,1120.14 1514.19,1158.24 1535.66,1193.41 1557.14,1225.3 1576.81,1251.39 1596.48,1274.32 1616.15,1293.98 
  1635.82,1310.28 1653.98,1322.34 1672.15,1331.53 1690.32,1337.88 1708.48,1341.45 1726.88,1342.31 1745.29,1340.5 1763.69,1336.11 1782.09,1329.26 1802.72,1318.83 
  1823.34,1305.65 1843.96,1289.92 1864.59,1271.81 1883.28,1253.5 1901.96,1233.53 1920.65,1212.02 1939.34,1189.1 1960.74,1161.26 1982.13,1131.89 2003.53,1101.15 
  2024.93,1069.17 2064.55,1007.14 2104.18,942.086 2143.24,875.624 2182.3,807.368 2220.23,739.793 2258.16,671.263 2335.92,528.868 2421.12,371.56 2544.88,143.415 
  2570.27,96.8724 
  "/>
<path clip-path="url(#clip320)" d="
M233.371 309.06 L838.446 309.06 L838.446 105.695 L233.371 105.695  Z
  " fill="#ffffff" fill-rule="evenodd" fill-opacity="1"/>
<polyline clip-path="url(#clip320)" style="stroke:#000000; stroke-linecap:round; stroke-linejoin:round; stroke-width:4; stroke-opacity:1; fill:none" points="
  233.371,309.06 838.446,309.06 838.446,105.695 233.371,105.695 233.371,309.06 
  "/>
<polyline clip-path="url(#clip320)" style="stroke:#009af9; stroke-linecap:round; stroke-linejoin:round; stroke-width:4; stroke-opacity:1; fill:none" points="
  261.042,207.377 427.069,207.377 
  "/>
<path clip-path="url(#clip320)" d="M476.757 199.279 Q476.757 199.302 476.616 200.145 L471.276 221.436 Q470.995 222.561 470.199 223.685 Q469.426 224.833 468.184 225.816 Q466.966 226.824 465.093 227.432 Q463.242 228.065 461.111 228.065 Q457.715 228.065 456.216 227.339 Q454.74 226.636 454.74 225.137 Q454.74 223.825 455.56 223.076 Q456.379 222.35 457.316 222.35 Q458.206 222.35 458.675 222.865 Q459.143 223.38 459.143 224.036 Q459.143 224.762 458.651 225.488 Q458.16 226.238 457.176 226.519 Q458.745 227.011 461.017 227.011 Q465.819 227.011 467.88 221.928 Q467.927 221.858 467.927 221.835 L469.519 215.487 L469.449 215.44 Q469.051 215.909 468.419 216.447 Q467.81 216.963 466.498 217.595 Q465.186 218.227 463.898 218.227 Q461.204 218.227 459.354 216.166 Q457.527 214.082 457.527 210.639 Q457.527 208.132 458.534 205.626 Q459.565 203.097 461.158 201.246 Q462.774 199.372 464.835 198.201 Q466.92 197.03 468.934 197.03 Q470.339 197.03 471.534 197.873 Q472.728 198.693 473.384 200.052 Q473.501 198.927 474.134 198.459 Q474.79 197.99 475.352 197.99 Q475.984 197.99 476.359 198.342 Q476.757 198.67 476.757 199.279 M472.822 202.207 Q472.822 202.066 472.728 201.691 Q472.635 201.293 472.354 200.661 Q472.096 200.028 471.698 199.466 Q471.3 198.904 470.573 198.506 Q469.871 198.084 468.981 198.084 Q467.529 198.084 466.076 199.302 Q464.624 200.497 463.617 202.347 Q462.68 204.127 461.79 207.57 Q460.923 211.013 460.923 212.77 Q460.923 214.503 461.673 215.838 Q462.422 217.173 464.039 217.173 Q465.912 217.173 467.927 215.44 Q470.011 213.637 470.363 212.091 L472.681 202.933 Q472.822 202.37 472.822 202.207 Z" fill="#000000" fill-rule="evenodd" fill-opacity="1" /><path clip-path="url(#clip320)" d="M483.335 206.235 Q483.335 198.131 486.356 191.596 Q487.644 188.856 489.448 186.56 Q491.251 184.265 492.446 183.258 Q493.64 182.251 493.968 182.251 Q494.437 182.251 494.46 182.719 Q494.46 182.953 493.828 183.539 Q486.098 191.409 486.122 206.235 Q486.122 221.108 493.64 228.674 Q494.46 229.494 494.46 229.751 Q494.46 230.22 493.968 230.22 Q493.64 230.22 492.493 229.259 Q491.345 228.299 489.565 226.097 Q487.785 223.896 486.497 221.202 Q483.335 214.667 483.335 206.235 Z" fill="#000000" fill-rule="evenodd" fill-opacity="1" /><path clip-path="url(#clip320)" d="M521.998 200.192 Q521.998 201.504 521.178 202.253 Q520.358 202.979 519.421 202.979 Q518.531 202.979 518.063 202.464 Q517.594 201.949 517.594 201.293 Q517.594 200.403 518.25 199.63 Q518.906 198.857 519.89 198.693 Q518.929 198.084 517.501 198.084 Q516.564 198.084 515.744 198.576 Q514.948 199.068 514.456 199.7 Q513.987 200.333 513.566 201.246 Q513.168 202.136 513.004 202.675 Q512.863 203.19 512.746 203.752 L511.106 210.311 Q510.31 213.426 510.31 214.527 Q510.31 215.885 510.966 216.799 Q511.622 217.689 512.933 217.689 Q513.449 217.689 514.034 217.548 Q514.62 217.384 515.369 216.963 Q516.142 216.518 516.821 215.862 Q517.524 215.183 518.203 214.035 Q518.883 212.887 519.328 211.412 Q519.468 210.896 519.937 210.896 Q520.522 210.896 520.522 211.365 Q520.522 211.763 520.194 212.606 Q519.89 213.426 519.211 214.503 Q518.555 215.557 517.688 216.518 Q516.821 217.455 515.533 218.11 Q514.245 218.766 512.84 218.766 Q510.825 218.766 509.49 217.689 Q508.155 216.611 507.663 215.112 Q507.546 215.323 507.382 215.604 Q507.218 215.885 506.726 216.518 Q506.258 217.127 505.719 217.595 Q505.181 218.04 504.337 218.391 Q503.518 218.766 502.627 218.766 Q501.503 218.766 500.496 218.438 Q499.512 218.11 498.81 217.361 Q498.107 216.611 498.107 215.581 Q498.107 214.433 498.88 213.637 Q499.676 212.817 500.754 212.817 Q501.433 212.817 501.972 213.215 Q502.534 213.613 502.534 214.48 Q502.534 215.44 501.878 216.166 Q501.222 216.892 500.285 217.08 Q501.246 217.689 502.674 217.689 Q504.22 217.689 505.438 216.33 Q506.656 214.972 507.242 212.7 Q508.694 207.242 509.256 204.806 Q509.818 202.347 509.818 201.293 Q509.818 200.309 509.561 199.63 Q509.303 198.951 508.858 198.646 Q508.436 198.318 508.038 198.201 Q507.663 198.084 507.242 198.084 Q506.539 198.084 505.743 198.365 Q504.97 198.646 504.033 199.302 Q503.119 199.935 502.253 201.246 Q501.386 202.558 500.801 204.361 Q500.683 204.9 500.168 204.9 Q499.606 204.877 499.606 204.408 Q499.606 204.01 499.91 203.19 Q500.238 202.347 500.894 201.293 Q501.573 200.239 502.44 199.302 Q503.33 198.342 504.618 197.686 Q505.93 197.03 507.335 197.03 Q507.968 197.03 508.577 197.171 Q509.209 197.288 509.959 197.639 Q510.732 197.99 511.411 198.763 Q512.09 199.536 512.512 200.661 Q512.793 200.122 513.168 199.607 Q513.566 199.091 514.175 198.459 Q514.807 197.803 515.674 197.428 Q516.564 197.03 517.548 197.03 Q518.508 197.03 519.445 197.288 Q520.382 197.522 521.178 198.295 Q521.998 199.044 521.998 200.192 Z" fill="#000000" fill-rule="evenodd" fill-opacity="1" /><path clip-path="url(#clip320)" d="M526.618 229.751 Q526.618 229.517 527.226 228.932 Q534.956 221.062 534.956 206.235 Q534.956 191.362 527.531 183.843 Q526.618 182.977 526.618 182.719 Q526.618 182.251 527.086 182.251 Q527.414 182.251 528.562 183.211 Q529.733 184.171 531.489 186.373 Q533.269 188.575 534.581 191.268 Q537.743 197.803 537.743 206.235 Q537.743 214.339 534.722 220.874 Q533.433 223.615 531.63 225.91 Q529.826 228.205 528.632 229.213 Q527.437 230.22 527.086 230.22 Q526.618 230.22 526.618 229.751 Z" fill="#000000" fill-rule="evenodd" fill-opacity="1" /><path clip-path="url(#clip320)" d="M558.349 210.943 Q558.396 210.358 559.31 210.358 L588.705 210.358 Q590.087 210.358 590.11 210.896 Q590.11 211.482 588.798 211.458 L559.638 211.458 Q558.349 211.482 558.349 210.943 M558.349 201.574 Q558.349 200.989 559.356 201.012 L588.658 201.012 Q590.087 201.012 590.11 201.574 Q590.11 202.113 588.892 202.113 L559.31 202.113 Q558.349 202.113 558.349 201.574 Z" fill="#000000" fill-rule="evenodd" fill-opacity="1" /><path clip-path="url(#clip320)" d="M618.857 193.775 Q618.857 192.908 618.928 192.651 Q619.021 192.393 619.396 191.995 L628.601 181.736 Q633.637 176.068 633.637 171.125 Q633.637 167.917 631.951 165.621 Q630.288 163.326 627.219 163.326 Q625.111 163.326 623.331 164.614 Q621.551 165.902 620.731 168.198 Q620.872 168.151 621.364 168.151 Q622.558 168.151 623.214 168.9 Q623.893 169.65 623.893 170.657 Q623.893 171.945 623.05 172.578 Q622.23 173.187 621.41 173.187 Q621.083 173.187 620.638 173.116 Q620.216 173.046 619.537 172.39 Q618.857 171.711 618.857 170.516 Q618.857 167.167 621.387 164.497 Q623.94 161.827 627.828 161.827 Q632.232 161.827 635.113 164.45 Q638.017 167.05 638.017 171.125 Q638.017 172.554 637.572 173.866 Q637.15 175.154 636.565 176.161 Q636.003 177.168 634.457 178.785 Q632.911 180.401 631.669 181.548 Q630.428 182.696 627.641 185.132 L622.558 190.074 L631.201 190.074 Q635.417 190.074 635.745 189.699 Q636.213 189.02 636.799 185.437 L638.017 185.437 L636.658 193.775 L618.857 193.775 Z" fill="#000000" fill-rule="evenodd" fill-opacity="1" /><path clip-path="url(#clip320)" d="M666.505 175.74 Q666.505 177.051 665.685 177.801 Q664.865 178.527 663.928 178.527 Q663.038 178.527 662.57 178.012 Q662.101 177.496 662.101 176.841 Q662.101 175.95 662.757 175.178 Q663.413 174.405 664.397 174.241 Q663.436 173.632 662.007 173.632 Q661.071 173.632 660.251 174.124 Q659.454 174.615 658.963 175.248 Q658.494 175.88 658.072 176.794 Q657.674 177.684 657.51 178.222 Q657.37 178.738 657.253 179.3 L655.613 185.858 Q654.817 188.973 654.817 190.074 Q654.817 191.433 655.473 192.346 Q656.128 193.236 657.44 193.236 Q657.955 193.236 658.541 193.096 Q659.126 192.932 659.876 192.51 Q660.649 192.065 661.328 191.409 Q662.031 190.73 662.71 189.582 Q663.389 188.435 663.834 186.959 Q663.975 186.444 664.443 186.444 Q665.029 186.444 665.029 186.912 Q665.029 187.31 664.701 188.154 Q664.397 188.973 663.717 190.051 Q663.061 191.105 662.195 192.065 Q661.328 193.002 660.04 193.658 Q658.752 194.314 657.346 194.314 Q655.332 194.314 653.997 193.236 Q652.662 192.159 652.17 190.66 Q652.053 190.871 651.889 191.152 Q651.725 191.433 651.233 192.065 Q650.765 192.674 650.226 193.143 Q649.687 193.588 648.844 193.939 Q648.024 194.314 647.134 194.314 Q646.01 194.314 645.003 193.986 Q644.019 193.658 643.316 192.908 Q642.614 192.159 642.614 191.128 Q642.614 189.981 643.387 189.184 Q644.183 188.364 645.26 188.364 Q645.94 188.364 646.478 188.763 Q647.041 189.161 647.041 190.027 Q647.041 190.988 646.385 191.714 Q645.729 192.44 644.792 192.627 Q645.752 193.236 647.181 193.236 Q648.727 193.236 649.945 191.878 Q651.163 190.519 651.748 188.247 Q653.201 182.79 653.763 180.354 Q654.325 177.895 654.325 176.841 Q654.325 175.857 654.067 175.178 Q653.81 174.498 653.365 174.194 Q652.943 173.866 652.545 173.749 Q652.17 173.632 651.748 173.632 Q651.046 173.632 650.249 173.913 Q649.476 174.194 648.54 174.85 Q647.626 175.482 646.759 176.794 Q645.893 178.105 645.307 179.909 Q645.19 180.448 644.675 180.448 Q644.113 180.424 644.113 179.956 Q644.113 179.558 644.417 178.738 Q644.745 177.895 645.401 176.841 Q646.08 175.787 646.947 174.85 Q647.837 173.889 649.125 173.233 Q650.437 172.578 651.842 172.578 Q652.475 172.578 653.083 172.718 Q653.716 172.835 654.465 173.187 Q655.238 173.538 655.918 174.311 Q656.597 175.084 657.018 176.208 Q657.3 175.669 657.674 175.154 Q658.072 174.639 658.681 174.006 Q659.314 173.351 660.18 172.976 Q661.071 172.578 662.054 172.578 Q663.015 172.578 663.952 172.835 Q664.888 173.07 665.685 173.842 Q666.505 174.592 666.505 175.74 Z" fill="#000000" fill-rule="evenodd" fill-opacity="1" /><path clip-path="url(#clip320)" d="M671.394 174.159 Q671.394 173.159 671.968 172.684 Q672.541 172.208 673.279 172.208 Q674.05 172.208 674.591 172.716 Q675.148 173.208 675.148 174.077 Q675.148 175.012 674.492 175.536 Q673.853 176.061 672.935 175.93 Q673.738 177.274 675.214 177.881 Q676.706 178.488 678.083 178.488 Q679.526 178.488 680.69 177.242 Q681.871 175.995 681.871 172.946 Q681.871 170.355 680.854 168.863 Q679.854 167.371 677.87 167.371 L676.394 167.371 Q675.886 167.371 675.739 167.322 Q675.591 167.273 675.591 166.994 Q675.591 166.666 676.099 166.601 Q676.608 166.601 677.411 166.502 Q679.362 166.437 680.395 164.748 Q681.329 163.174 681.329 160.928 Q681.329 158.878 680.346 158.026 Q679.378 157.157 678.116 157.157 Q676.935 157.157 675.64 157.649 Q674.345 158.141 673.64 159.239 Q675.722 159.239 675.722 160.928 Q675.722 161.666 675.247 162.157 Q674.788 162.633 674.017 162.633 Q673.279 162.633 672.787 162.174 Q672.295 161.698 672.295 160.895 Q672.295 158.977 674.001 157.649 Q675.722 156.321 678.247 156.321 Q680.739 156.321 682.576 157.632 Q684.428 158.944 684.428 160.961 Q684.428 162.944 683.117 164.568 Q681.805 166.191 679.723 166.863 Q682.28 167.371 683.805 169.109 Q685.33 170.831 685.33 172.946 Q685.33 175.569 683.264 177.504 Q681.198 179.422 678.181 179.422 Q675.394 179.422 673.394 177.914 Q671.394 176.405 671.394 174.159 Z" fill="#000000" fill-rule="evenodd" fill-opacity="1" /><path clip-path="url(#clip320)" d="M735.286 181.103 Q735.567 181.384 735.567 181.783 Q735.567 182.181 735.286 182.462 Q735.005 182.743 734.606 182.743 L704.579 182.743 Q704.181 182.743 703.9 182.462 Q703.619 182.181 703.619 181.783 Q703.619 181.384 703.9 181.103 Q704.181 180.822 704.579 180.822 L734.606 180.822 Q735.005 180.822 735.286 181.103 Z" fill="#000000" fill-rule="evenodd" fill-opacity="1" /><path clip-path="url(#clip320)" d="M753.887 187.31 Q753.887 185.882 754.706 185.202 Q755.526 184.523 756.58 184.523 Q757.681 184.523 758.454 185.249 Q759.25 185.952 759.25 187.193 Q759.25 188.528 758.314 189.278 Q757.4 190.027 756.088 189.84 Q757.236 191.761 759.344 192.627 Q761.476 193.494 763.443 193.494 Q765.504 193.494 767.167 191.714 Q768.854 189.934 768.854 185.577 Q768.854 181.876 767.401 179.745 Q765.973 177.613 763.139 177.613 L761.031 177.613 Q760.304 177.613 760.094 177.543 Q759.883 177.473 759.883 177.075 Q759.883 176.606 760.609 176.513 Q761.335 176.513 762.483 176.372 Q765.27 176.278 766.746 173.866 Q768.081 171.617 768.081 168.408 Q768.081 165.481 766.675 164.263 Q765.293 163.021 763.49 163.021 Q761.803 163.021 759.953 163.724 Q758.103 164.427 757.096 165.996 Q760.07 165.996 760.07 168.408 Q760.07 169.462 759.391 170.165 Q758.735 170.844 757.634 170.844 Q756.58 170.844 755.878 170.189 Q755.175 169.509 755.175 168.362 Q755.175 165.621 757.611 163.724 Q760.07 161.827 763.677 161.827 Q767.237 161.827 769.861 163.701 Q772.508 165.574 772.508 168.455 Q772.508 171.289 770.634 173.608 Q768.76 175.927 765.785 176.887 Q769.439 177.613 771.617 180.096 Q773.796 182.556 773.796 185.577 Q773.796 189.325 770.845 192.089 Q767.893 194.829 763.584 194.829 Q759.602 194.829 756.744 192.674 Q753.887 190.519 753.887 187.31 Z" fill="#000000" fill-rule="evenodd" fill-opacity="1" /><path clip-path="url(#clip320)" d="M800.766 175.74 Q800.766 177.051 799.946 177.801 Q799.126 178.527 798.189 178.527 Q797.299 178.527 796.831 178.012 Q796.362 177.496 796.362 176.841 Q796.362 175.95 797.018 175.178 Q797.674 174.405 798.658 174.241 Q797.698 173.632 796.269 173.632 Q795.332 173.632 794.512 174.124 Q793.716 174.615 793.224 175.248 Q792.755 175.88 792.334 176.794 Q791.936 177.684 791.772 178.222 Q791.631 178.738 791.514 179.3 L789.874 185.858 Q789.078 188.973 789.078 190.074 Q789.078 191.433 789.734 192.346 Q790.39 193.236 791.701 193.236 Q792.217 193.236 792.802 193.096 Q793.388 192.932 794.137 192.51 Q794.91 192.065 795.589 191.409 Q796.292 190.73 796.971 189.582 Q797.651 188.435 798.096 186.959 Q798.236 186.444 798.705 186.444 Q799.29 186.444 799.29 186.912 Q799.29 187.31 798.962 188.154 Q798.658 188.973 797.979 190.051 Q797.323 191.105 796.456 192.065 Q795.589 193.002 794.301 193.658 Q793.013 194.314 791.608 194.314 Q789.593 194.314 788.258 193.236 Q786.923 192.159 786.431 190.66 Q786.314 190.871 786.15 191.152 Q785.986 191.433 785.494 192.065 Q785.026 192.674 784.487 193.143 Q783.949 193.588 783.105 193.939 Q782.286 194.314 781.395 194.314 Q780.271 194.314 779.264 193.986 Q778.28 193.658 777.578 192.908 Q776.875 192.159 776.875 191.128 Q776.875 189.981 777.648 189.184 Q778.444 188.364 779.522 188.364 Q780.201 188.364 780.74 188.763 Q781.302 189.161 781.302 190.027 Q781.302 190.988 780.646 191.714 Q779.99 192.44 779.053 192.627 Q780.014 193.236 781.442 193.236 Q782.988 193.236 784.206 191.878 Q785.424 190.519 786.01 188.247 Q787.462 182.79 788.024 180.354 Q788.586 177.895 788.586 176.841 Q788.586 175.857 788.329 175.178 Q788.071 174.498 787.626 174.194 Q787.204 173.866 786.806 173.749 Q786.431 173.632 786.01 173.632 Q785.307 173.632 784.511 173.913 Q783.738 174.194 782.801 174.85 Q781.887 175.482 781.021 176.794 Q780.154 178.105 779.569 179.909 Q779.451 180.448 778.936 180.448 Q778.374 180.424 778.374 179.956 Q778.374 179.558 778.678 178.738 Q779.006 177.895 779.662 176.841 Q780.341 175.787 781.208 174.85 Q782.098 173.889 783.386 173.233 Q784.698 172.578 786.103 172.578 Q786.736 172.578 787.345 172.718 Q787.977 172.835 788.727 173.187 Q789.5 173.538 790.179 174.311 Q790.858 175.084 791.28 176.208 Q791.561 175.669 791.936 175.154 Q792.334 174.639 792.943 174.006 Q793.575 173.351 794.442 172.976 Q795.332 172.578 796.316 172.578 Q797.276 172.578 798.213 172.835 Q799.15 173.07 799.946 173.842 Q800.766 174.592 800.766 175.74 Z" fill="#000000" fill-rule="evenodd" fill-opacity="1" /><path clip-path="url(#clip320)" d="
M618.857 207.625 L805.655 207.625 L805.655 205.065 L618.857 205.065  Z
  " fill="#000000" fill-rule="evenodd" fill-opacity="1"/>
<path clip-path="url(#clip320)" d="M670.748 236.333 Q670.748 237.645 669.929 238.394 Q669.109 239.121 668.172 239.121 Q667.282 239.121 666.813 238.605 Q666.345 238.09 666.345 237.434 Q666.345 236.544 667.001 235.771 Q667.657 234.998 668.64 234.834 Q667.68 234.225 666.251 234.225 Q665.314 234.225 664.495 234.717 Q663.698 235.209 663.206 235.841 Q662.738 236.474 662.316 237.387 Q661.918 238.277 661.754 238.816 Q661.614 239.331 661.496 239.893 L659.857 246.452 Q659.061 249.567 659.061 250.668 Q659.061 252.026 659.716 252.94 Q660.372 253.83 661.684 253.83 Q662.199 253.83 662.785 253.689 Q663.37 253.525 664.12 253.104 Q664.893 252.659 665.572 252.003 Q666.275 251.324 666.954 250.176 Q667.633 249.028 668.078 247.553 Q668.219 247.037 668.687 247.037 Q669.273 247.037 669.273 247.506 Q669.273 247.904 668.945 248.747 Q668.64 249.567 667.961 250.644 Q667.305 251.698 666.439 252.659 Q665.572 253.596 664.284 254.251 Q662.995 254.907 661.59 254.907 Q659.576 254.907 658.241 253.83 Q656.906 252.752 656.414 251.253 Q656.297 251.464 656.133 251.745 Q655.969 252.026 655.477 252.659 Q655.008 253.268 654.47 253.736 Q653.931 254.181 653.088 254.533 Q652.268 254.907 651.378 254.907 Q650.254 254.907 649.247 254.579 Q648.263 254.251 647.56 253.502 Q646.857 252.752 646.857 251.722 Q646.857 250.574 647.63 249.778 Q648.427 248.958 649.504 248.958 Q650.183 248.958 650.722 249.356 Q651.284 249.754 651.284 250.621 Q651.284 251.581 650.628 252.307 Q649.973 253.033 649.036 253.221 Q649.996 253.83 651.425 253.83 Q652.971 253.83 654.189 252.471 Q655.407 251.113 655.992 248.841 Q657.444 243.383 658.006 240.948 Q658.569 238.488 658.569 237.434 Q658.569 236.45 658.311 235.771 Q658.053 235.092 657.608 234.787 Q657.187 234.459 656.789 234.342 Q656.414 234.225 655.992 234.225 Q655.289 234.225 654.493 234.506 Q653.72 234.787 652.783 235.443 Q651.87 236.076 651.003 237.387 Q650.137 238.699 649.551 240.502 Q649.434 241.041 648.919 241.041 Q648.356 241.018 648.356 240.549 Q648.356 240.151 648.661 239.331 Q648.989 238.488 649.645 237.434 Q650.324 236.38 651.191 235.443 Q652.081 234.483 653.369 233.827 Q654.681 233.171 656.086 233.171 Q656.718 233.171 657.327 233.312 Q657.96 233.429 658.709 233.78 Q659.482 234.132 660.161 234.905 Q660.841 235.677 661.262 236.802 Q661.543 236.263 661.918 235.748 Q662.316 235.232 662.925 234.6 Q663.558 233.944 664.424 233.569 Q665.314 233.171 666.298 233.171 Q667.258 233.171 668.195 233.429 Q669.132 233.663 669.929 234.436 Q670.748 235.186 670.748 236.333 Z" fill="#000000" fill-rule="evenodd" fill-opacity="1" /><path clip-path="url(#clip320)" d="M675.637 240.013 Q675.637 239.406 675.687 239.226 Q675.752 239.046 676.015 238.767 L682.458 231.586 Q685.983 227.618 685.983 224.158 Q685.983 221.912 684.803 220.305 Q683.639 218.699 681.491 218.699 Q680.015 218.699 678.769 219.6 Q677.523 220.502 676.949 222.109 Q677.047 222.076 677.392 222.076 Q678.228 222.076 678.687 222.601 Q679.162 223.125 679.162 223.83 Q679.162 224.732 678.572 225.175 Q677.998 225.601 677.425 225.601 Q677.195 225.601 676.883 225.552 Q676.588 225.503 676.113 225.044 Q675.637 224.568 675.637 223.732 Q675.637 221.387 677.408 219.518 Q679.195 217.649 681.917 217.649 Q684.999 217.649 687.016 219.486 Q689.049 221.305 689.049 224.158 Q689.049 225.158 688.738 226.077 Q688.442 226.978 688.033 227.683 Q687.639 228.388 686.557 229.52 Q685.475 230.651 684.606 231.454 Q683.737 232.258 681.786 233.963 L678.228 237.422 L684.278 237.422 Q687.229 237.422 687.459 237.16 Q687.787 236.685 688.197 234.176 L689.049 234.176 L688.098 240.013 L675.637 240.013 Z" fill="#000000" fill-rule="evenodd" fill-opacity="1" /><path clip-path="url(#clip320)" d="M708.449 242.962 Q707.348 242.962 707.348 242.376 Q707.348 241.791 708.496 241.791 Q708.636 241.791 708.87 241.814 Q709.128 241.838 709.175 241.838 L722.69 241.838 L722.69 228.276 Q722.69 228.229 722.666 228.018 Q722.643 227.784 722.643 227.644 Q722.643 226.496 723.205 226.496 Q723.79 226.496 723.79 227.644 L723.79 241.838 L737.329 241.838 Q737.375 241.838 737.61 241.814 Q737.844 241.791 737.984 241.791 Q739.085 241.791 739.085 242.376 Q739.109 242.962 737.938 242.962 Q737.797 242.962 737.586 242.938 Q737.375 242.915 737.329 242.915 L723.79 242.915 L723.79 257.156 Q723.79 258.257 723.205 258.257 Q722.643 258.257 722.643 257.109 Q722.643 256.968 722.666 256.734 Q722.69 256.523 722.69 256.477 L722.69 242.915 L709.175 242.915 Q709.128 242.915 708.847 242.938 Q708.589 242.962 708.449 242.962 Z" fill="#000000" fill-rule="evenodd" fill-opacity="1" /><path clip-path="url(#clip320)" d="M757.616 226.988 L757.616 225.489 Q763.378 225.489 766.353 222.42 Q767.172 222.42 767.313 222.608 Q767.453 222.795 767.453 223.662 L767.453 250.574 Q767.453 252.003 768.156 252.448 Q768.859 252.893 771.927 252.893 L773.45 252.893 L773.45 254.369 Q771.763 254.228 765.673 254.228 Q759.583 254.228 757.92 254.369 L757.92 252.893 L759.443 252.893 Q762.464 252.893 763.19 252.471 Q763.917 252.026 763.917 250.574 L763.917 225.723 Q761.41 226.988 757.616 226.988 Z" fill="#000000" fill-rule="evenodd" fill-opacity="1" /></svg>
