<?xml version="1.0" encoding="utf-8"?>
<svg xmlns="http://www.w3.org/2000/svg" xmlns:xlink="http://www.w3.org/1999/xlink" width="528" height="336" viewBox="0 0 2112 1344">
<defs>
  <clipPath id="clip500">
    <rect x="0" y="0" width="2112" height="1344"/>
  </clipPath>
</defs>
<path clip-path="url(#clip500)" d="M0 1344 L2112 1344 L2112 0 L0 0  Z" fill="#ffffff" fill-rule="evenodd" fill-opacity="1"/>
<defs>
  <clipPath id="clip501">
    <rect x="422" y="0" width="1479" height="1344"/>
  </clipPath>
</defs>
<defs>
  <clipPath id="clip502">
    <rect x="153" y="47" width="1912" height="1188"/>
  </clipPath>
</defs>
<path clip-path="url(#clip500)" d="M206.149 1234.58 L2064.76 1234.58 L2064.76 47.2441 L206.149 47.2441  Z" fill="#ffffff" fill-rule="evenodd" fill-opacity="1"/>
<defs>
  <clipPath id="clip503">
    <rect x="206" y="47" width="1860" height="1188"/>
  </clipPath>
</defs>
<polyline clip-path="url(#clip503)" style="stroke:#000000; stroke-linecap:round; stroke-linejoin:round; stroke-width:2; stroke-opacity:0.1; fill:none" points="258.751,1234.58 258.751,47.2441 "/>
<polyline clip-path="url(#clip503)" style="stroke:#000000; stroke-linecap:round; stroke-linejoin:round; stroke-width:2; stroke-opacity:0.1; fill:none" points="648.396,1234.58 648.396,47.2441 "/>
<polyline clip-path="url(#clip503)" style="stroke:#000000; stroke-linecap:round; stroke-linejoin:round; stroke-width:2; stroke-opacity:0.1; fill:none" points="1038.04,1234.58 1038.04,47.2441 "/>
<polyline clip-path="url(#clip503)" style="stroke:#000000; stroke-linecap:round; stroke-linejoin:round; stroke-width:2; stroke-opacity:0.1; fill:none" points="1427.69,1234.58 1427.69,47.2441 "/>
<polyline clip-path="url(#clip503)" style="stroke:#000000; stroke-linecap:round; stroke-linejoin:round; stroke-width:2; stroke-opacity:0.1; fill:none" points="1817.33,1234.58 1817.33,47.2441 "/>
<polyline clip-path="url(#clip500)" style="stroke:#000000; stroke-linecap:round; stroke-linejoin:round; stroke-width:4; stroke-opacity:1; fill:none" points="206.149,1234.58 2064.76,1234.58 "/>
<polyline clip-path="url(#clip500)" style="stroke:#000000; stroke-linecap:round; stroke-linejoin:round; stroke-width:4; stroke-opacity:1; fill:none" points="258.751,1234.58 258.751,1215.68 "/>
<polyline clip-path="url(#clip500)" style="stroke:#000000; stroke-linecap:round; stroke-linejoin:round; stroke-width:4; stroke-opacity:1; fill:none" points="648.396,1234.58 648.396,1215.68 "/>
<polyline clip-path="url(#clip500)" style="stroke:#000000; stroke-linecap:round; stroke-linejoin:round; stroke-width:4; stroke-opacity:1; fill:none" points="1038.04,1234.58 1038.04,1215.68 "/>
<polyline clip-path="url(#clip500)" style="stroke:#000000; stroke-linecap:round; stroke-linejoin:round; stroke-width:4; stroke-opacity:1; fill:none" points="1427.69,1234.58 1427.69,1215.68 "/>
<polyline clip-path="url(#clip500)" style="stroke:#000000; stroke-linecap:round; stroke-linejoin:round; stroke-width:4; stroke-opacity:1; fill:none" points="1817.33,1234.58 1817.33,1215.68 "/>
<path clip-path="url(#clip500)" d="M258.751 1263.19 Q255.14 1263.19 253.311 1266.76 Q251.505 1270.3 251.505 1277.43 Q251.505 1284.54 253.311 1288.1 Q255.14 1291.64 258.751 1291.64 Q262.385 1291.64 264.19 1288.1 Q266.019 1284.54 266.019 1277.43 Q266.019 1270.3 264.19 1266.76 Q262.385 1263.19 258.751 1263.19 M258.751 1259.49 Q264.561 1259.49 267.616 1264.1 Q270.695 1268.68 270.695 1277.43 Q270.695 1286.16 267.616 1290.76 Q264.561 1295.35 258.751 1295.35 Q252.94 1295.35 249.862 1290.76 Q246.806 1286.16 246.806 1277.43 Q246.806 1268.68 249.862 1264.1 Q252.94 1259.49 258.751 1259.49 Z" fill="#000000" fill-rule="nonzero" fill-opacity="1" /><path clip-path="url(#clip500)" d="M643.049 1290.74 L659.368 1290.74 L659.368 1294.67 L637.424 1294.67 L637.424 1290.74 Q640.086 1287.99 644.669 1283.36 Q649.275 1278.7 650.456 1277.36 Q652.701 1274.84 653.581 1273.1 Q654.484 1271.34 654.484 1269.65 Q654.484 1266.9 652.539 1265.16 Q650.618 1263.42 647.516 1263.42 Q645.317 1263.42 642.863 1264.19 Q640.433 1264.95 637.655 1266.5 L637.655 1261.78 Q640.479 1260.65 642.933 1260.07 Q645.387 1259.49 647.424 1259.49 Q652.794 1259.49 655.988 1262.17 Q659.183 1264.86 659.183 1269.35 Q659.183 1271.48 658.373 1273.4 Q657.586 1275.3 655.479 1277.89 Q654.9 1278.56 651.799 1281.78 Q648.697 1284.98 643.049 1290.74 Z" fill="#000000" fill-rule="nonzero" fill-opacity="1" /><path clip-path="url(#clip500)" d="M1041.05 1264.19 L1029.24 1282.64 L1041.05 1282.64 L1041.05 1264.19 M1039.82 1260.11 L1045.7 1260.11 L1045.7 1282.64 L1050.63 1282.64 L1050.63 1286.53 L1045.7 1286.53 L1045.7 1294.67 L1041.05 1294.67 L1041.05 1286.53 L1025.45 1286.53 L1025.45 1282.01 L1039.82 1260.11 Z" fill="#000000" fill-rule="nonzero" fill-opacity="1" /><path clip-path="url(#clip500)" d="M1428.09 1275.53 Q1424.94 1275.53 1423.09 1277.68 Q1421.26 1279.84 1421.26 1283.59 Q1421.26 1287.31 1423.09 1289.49 Q1424.94 1291.64 1428.09 1291.64 Q1431.24 1291.64 1433.07 1289.49 Q1434.92 1287.31 1434.92 1283.59 Q1434.92 1279.84 1433.07 1277.68 Q1431.24 1275.53 1428.09 1275.53 M1437.37 1260.88 L1437.37 1265.14 Q1435.61 1264.3 1433.81 1263.86 Q1432.03 1263.42 1430.27 1263.42 Q1425.64 1263.42 1423.18 1266.55 Q1420.75 1269.67 1420.41 1275.99 Q1421.77 1273.98 1423.83 1272.92 Q1425.89 1271.83 1428.37 1271.83 Q1433.58 1271.83 1436.59 1275 Q1439.62 1278.15 1439.62 1283.59 Q1439.62 1288.91 1436.47 1292.13 Q1433.32 1295.35 1428.09 1295.35 Q1422.1 1295.35 1418.92 1290.76 Q1415.75 1286.16 1415.75 1277.43 Q1415.75 1269.24 1419.64 1264.37 Q1423.53 1259.49 1430.08 1259.49 Q1431.84 1259.49 1433.62 1259.84 Q1435.43 1260.18 1437.37 1260.88 Z" fill="#000000" fill-rule="nonzero" fill-opacity="1" /><path clip-path="url(#clip500)" d="M1817.33 1278.26 Q1814 1278.26 1812.08 1280.05 Q1810.18 1281.83 1810.18 1284.95 Q1810.18 1288.08 1812.08 1289.86 Q1814 1291.64 1817.33 1291.64 Q1820.66 1291.64 1822.59 1289.86 Q1824.51 1288.05 1824.51 1284.95 Q1824.51 1281.83 1822.59 1280.05 Q1820.69 1278.26 1817.33 1278.26 M1812.66 1276.27 Q1809.65 1275.53 1807.96 1273.47 Q1806.29 1271.41 1806.29 1268.45 Q1806.29 1264.3 1809.23 1261.9 Q1812.19 1259.49 1817.33 1259.49 Q1822.49 1259.49 1825.43 1261.9 Q1828.37 1264.3 1828.37 1268.45 Q1828.37 1271.41 1826.68 1273.47 Q1825.02 1275.53 1822.03 1276.27 Q1825.41 1277.06 1827.28 1279.35 Q1829.18 1281.64 1829.18 1284.95 Q1829.18 1289.98 1826.1 1292.66 Q1823.05 1295.35 1817.33 1295.35 Q1811.61 1295.35 1808.53 1292.66 Q1805.48 1289.98 1805.48 1284.95 Q1805.48 1281.64 1807.38 1279.35 Q1809.28 1277.06 1812.66 1276.27 M1810.94 1268.89 Q1810.94 1271.57 1812.61 1273.08 Q1814.3 1274.58 1817.33 1274.58 Q1820.34 1274.58 1822.03 1273.08 Q1823.74 1271.57 1823.74 1268.89 Q1823.74 1266.2 1822.03 1264.7 Q1820.34 1263.19 1817.33 1263.19 Q1814.3 1263.19 1812.61 1264.7 Q1810.94 1266.2 1810.94 1268.89 Z" fill="#000000" fill-rule="nonzero" fill-opacity="1" /><polyline clip-path="url(#clip503)" style="stroke:#000000; stroke-linecap:round; stroke-linejoin:round; stroke-width:2; stroke-opacity:0.1; fill:none" points="206.149,1111.28 2064.76,1111.28 "/>
<polyline clip-path="url(#clip503)" style="stroke:#000000; stroke-linecap:round; stroke-linejoin:round; stroke-width:2; stroke-opacity:0.1; fill:none" points="206.149,892.502 2064.76,892.502 "/>
<polyline clip-path="url(#clip503)" style="stroke:#000000; stroke-linecap:round; stroke-linejoin:round; stroke-width:2; stroke-opacity:0.1; fill:none" points="206.149,673.728 2064.76,673.728 "/>
<polyline clip-path="url(#clip503)" style="stroke:#000000; stroke-linecap:round; stroke-linejoin:round; stroke-width:2; stroke-opacity:0.1; fill:none" points="206.149,454.953 2064.76,454.953 "/>
<polyline clip-path="url(#clip503)" style="stroke:#000000; stroke-linecap:round; stroke-linejoin:round; stroke-width:2; stroke-opacity:0.1; fill:none" points="206.149,236.178 2064.76,236.178 "/>
<polyline clip-path="url(#clip500)" style="stroke:#000000; stroke-linecap:round; stroke-linejoin:round; stroke-width:4; stroke-opacity:1; fill:none" points="206.149,1234.58 206.149,47.2441 "/>
<polyline clip-path="url(#clip500)" style="stroke:#000000; stroke-linecap:round; stroke-linejoin:round; stroke-width:4; stroke-opacity:1; fill:none" points="206.149,1111.28 225.046,1111.28 "/>
<polyline clip-path="url(#clip500)" style="stroke:#000000; stroke-linecap:round; stroke-linejoin:round; stroke-width:4; stroke-opacity:1; fill:none" points="206.149,892.502 225.046,892.502 "/>
<polyline clip-path="url(#clip500)" style="stroke:#000000; stroke-linecap:round; stroke-linejoin:round; stroke-width:4; stroke-opacity:1; fill:none" points="206.149,673.728 225.046,673.728 "/>
<polyline clip-path="url(#clip500)" style="stroke:#000000; stroke-linecap:round; stroke-linejoin:round; stroke-width:4; stroke-opacity:1; fill:none" points="206.149,454.953 225.046,454.953 "/>
<polyline clip-path="url(#clip500)" style="stroke:#000000; stroke-linecap:round; stroke-linejoin:round; stroke-width:4; stroke-opacity:1; fill:none" points="206.149,236.178 225.046,236.178 "/>
<path clip-path="url(#clip500)" d="M52.4321 1111.73 L82.1079 1111.73 L82.1079 1115.66 L52.4321 1115.66 L52.4321 1111.73 Z" fill="#000000" fill-rule="nonzero" fill-opacity="1" /><path clip-path="url(#clip500)" d="M106.367 1109.92 Q109.723 1110.64 111.598 1112.91 Q113.497 1115.18 113.497 1118.51 Q113.497 1123.63 109.978 1126.43 Q106.46 1129.23 99.9782 1129.23 Q97.8023 1129.23 95.4875 1128.79 Q93.1958 1128.37 90.7421 1127.52 L90.7421 1123 Q92.6865 1124.14 95.0013 1124.71 Q97.3161 1125.29 99.8393 1125.29 Q104.237 1125.29 106.529 1123.56 Q108.844 1121.82 108.844 1118.51 Q108.844 1115.46 106.691 1113.74 Q104.561 1112.01 100.742 1112.01 L96.7143 1112.01 L96.7143 1108.16 L100.927 1108.16 Q104.376 1108.16 106.205 1106.8 Q108.034 1105.41 108.034 1102.82 Q108.034 1100.15 106.136 1098.74 Q104.261 1097.31 100.742 1097.31 Q98.8208 1097.31 96.6217 1097.72 Q94.4226 1098.14 91.7838 1099.02 L91.7838 1094.85 Q94.4458 1094.11 96.7606 1093.74 Q99.0985 1093.37 101.159 1093.37 Q106.483 1093.37 109.585 1095.8 Q112.686 1098.21 112.686 1102.33 Q112.686 1105.2 111.043 1107.19 Q109.399 1109.16 106.367 1109.92 Z" fill="#000000" fill-rule="nonzero" fill-opacity="1" /><path clip-path="url(#clip500)" d="M132.362 1097.08 Q128.751 1097.08 126.922 1100.64 Q125.117 1104.18 125.117 1111.31 Q125.117 1118.42 126.922 1121.98 Q128.751 1125.52 132.362 1125.52 Q135.996 1125.52 137.802 1121.98 Q139.631 1118.42 139.631 1111.31 Q139.631 1104.18 137.802 1100.64 Q135.996 1097.08 132.362 1097.08 M132.362 1093.37 Q138.172 1093.37 141.228 1097.98 Q144.307 1102.56 144.307 1111.31 Q144.307 1120.04 141.228 1124.65 Q138.172 1129.23 132.362 1129.23 Q126.552 1129.23 123.473 1124.65 Q120.418 1120.04 120.418 1111.31 Q120.418 1102.56 123.473 1097.98 Q126.552 1093.37 132.362 1093.37 Z" fill="#000000" fill-rule="nonzero" fill-opacity="1" /><path clip-path="url(#clip500)" d="M162.524 1097.08 Q158.913 1097.08 157.084 1100.64 Q155.279 1104.18 155.279 1111.31 Q155.279 1118.42 157.084 1121.98 Q158.913 1125.52 162.524 1125.52 Q166.158 1125.52 167.964 1121.98 Q169.793 1118.42 169.793 1111.31 Q169.793 1104.18 167.964 1100.64 Q166.158 1097.08 162.524 1097.08 M162.524 1093.37 Q168.334 1093.37 171.39 1097.98 Q174.469 1102.56 174.469 1111.31 Q174.469 1120.04 171.39 1124.65 Q168.334 1129.23 162.524 1129.23 Q156.714 1129.23 153.635 1124.65 Q150.58 1120.04 150.58 1111.31 Q150.58 1102.56 153.635 1097.98 Q156.714 1093.37 162.524 1093.37 Z" fill="#000000" fill-rule="nonzero" fill-opacity="1" /><path clip-path="url(#clip500)" d="M52.4321 892.954 L82.1079 892.954 L82.1079 896.889 L52.4321 896.889 L52.4321 892.954 Z" fill="#000000" fill-rule="nonzero" fill-opacity="1" /><path clip-path="url(#clip500)" d="M96.2282 905.847 L112.548 905.847 L112.548 909.782 L90.6032 909.782 L90.6032 905.847 Q93.2652 903.093 97.8485 898.463 Q102.455 893.81 103.636 892.468 Q105.881 889.945 106.761 888.209 Q107.663 886.449 107.663 884.759 Q107.663 882.005 105.719 880.269 Q103.798 878.533 100.696 878.533 Q98.4967 878.533 96.043 879.297 Q93.6125 880.06 90.8347 881.611 L90.8347 876.889 Q93.6588 875.755 96.1124 875.176 Q98.5661 874.597 100.603 874.597 Q105.974 874.597 109.168 877.283 Q112.362 879.968 112.362 884.459 Q112.362 886.588 111.552 888.509 Q110.765 890.408 108.659 893 Q108.08 893.671 104.978 896.889 Q101.876 900.083 96.2282 905.847 Z" fill="#000000" fill-rule="nonzero" fill-opacity="1" /><path clip-path="url(#clip500)" d="M132.362 878.301 Q128.751 878.301 126.922 881.866 Q125.117 885.408 125.117 892.537 Q125.117 899.644 126.922 903.208 Q128.751 906.75 132.362 906.75 Q135.996 906.75 137.802 903.208 Q139.631 899.644 139.631 892.537 Q139.631 885.408 137.802 881.866 Q135.996 878.301 132.362 878.301 M132.362 874.597 Q138.172 874.597 141.228 879.204 Q144.307 883.787 144.307 892.537 Q144.307 901.264 141.228 905.87 Q138.172 910.454 132.362 910.454 Q126.552 910.454 123.473 905.87 Q120.418 901.264 120.418 892.537 Q120.418 883.787 123.473 879.204 Q126.552 874.597 132.362 874.597 Z" fill="#000000" fill-rule="nonzero" fill-opacity="1" /><path clip-path="url(#clip500)" d="M162.524 878.301 Q158.913 878.301 157.084 881.866 Q155.279 885.408 155.279 892.537 Q155.279 899.644 157.084 903.208 Q158.913 906.75 162.524 906.75 Q166.158 906.75 167.964 903.208 Q169.793 899.644 169.793 892.537 Q169.793 885.408 167.964 881.866 Q166.158 878.301 162.524 878.301 M162.524 874.597 Q168.334 874.597 171.39 879.204 Q174.469 883.787 174.469 892.537 Q174.469 901.264 171.39 905.87 Q168.334 910.454 162.524 910.454 Q156.714 910.454 153.635 905.87 Q150.58 901.264 150.58 892.537 Q150.58 883.787 153.635 879.204 Q156.714 874.597 162.524 874.597 Z" fill="#000000" fill-rule="nonzero" fill-opacity="1" /><path clip-path="url(#clip500)" d="M52.4321 674.179 L82.1079 674.179 L82.1079 678.114 L52.4321 678.114 L52.4321 674.179 Z" fill="#000000" fill-rule="nonzero" fill-opacity="1" /><path clip-path="url(#clip500)" d="M93.0106 687.072 L100.649 687.072 L100.649 660.707 L92.3393 662.374 L92.3393 658.114 L100.603 656.448 L105.279 656.448 L105.279 687.072 L112.918 687.072 L112.918 691.008 L93.0106 691.008 L93.0106 687.072 Z" fill="#000000" fill-rule="nonzero" fill-opacity="1" /><path clip-path="url(#clip500)" d="M132.362 659.526 Q128.751 659.526 126.922 663.091 Q125.117 666.633 125.117 673.762 Q125.117 680.869 126.922 684.434 Q128.751 687.975 132.362 687.975 Q135.996 687.975 137.802 684.434 Q139.631 680.869 139.631 673.762 Q139.631 666.633 137.802 663.091 Q135.996 659.526 132.362 659.526 M132.362 655.823 Q138.172 655.823 141.228 660.429 Q144.307 665.012 144.307 673.762 Q144.307 682.489 141.228 687.096 Q138.172 691.679 132.362 691.679 Q126.552 691.679 123.473 687.096 Q120.418 682.489 120.418 673.762 Q120.418 665.012 123.473 660.429 Q126.552 655.823 132.362 655.823 Z" fill="#000000" fill-rule="nonzero" fill-opacity="1" /><path clip-path="url(#clip500)" d="M162.524 659.526 Q158.913 659.526 157.084 663.091 Q155.279 666.633 155.279 673.762 Q155.279 680.869 157.084 684.434 Q158.913 687.975 162.524 687.975 Q166.158 687.975 167.964 684.434 Q169.793 680.869 169.793 673.762 Q169.793 666.633 167.964 663.091 Q166.158 659.526 162.524 659.526 M162.524 655.823 Q168.334 655.823 171.39 660.429 Q174.469 665.012 174.469 673.762 Q174.469 682.489 171.39 687.096 Q168.334 691.679 162.524 691.679 Q156.714 691.679 153.635 687.096 Q150.58 682.489 150.58 673.762 Q150.58 665.012 153.635 660.429 Q156.714 655.823 162.524 655.823 Z" fill="#000000" fill-rule="nonzero" fill-opacity="1" /><path clip-path="url(#clip500)" d="M162.524 440.752 Q158.913 440.752 157.084 444.316 Q155.279 447.858 155.279 454.988 Q155.279 462.094 157.084 465.659 Q158.913 469.2 162.524 469.2 Q166.158 469.2 167.964 465.659 Q169.793 462.094 169.793 454.988 Q169.793 447.858 167.964 444.316 Q166.158 440.752 162.524 440.752 M162.524 437.048 Q168.334 437.048 171.39 441.654 Q174.469 446.238 174.469 454.988 Q174.469 463.714 171.39 468.321 Q168.334 472.904 162.524 472.904 Q156.714 472.904 153.635 468.321 Q150.58 463.714 150.58 454.988 Q150.58 446.238 153.635 441.654 Q156.714 437.048 162.524 437.048 Z" fill="#000000" fill-rule="nonzero" fill-opacity="1" /><path clip-path="url(#clip500)" d="M93.0106 249.523 L100.649 249.523 L100.649 223.157 L92.3393 224.824 L92.3393 220.565 L100.603 218.898 L105.279 218.898 L105.279 249.523 L112.918 249.523 L112.918 253.458 L93.0106 253.458 L93.0106 249.523 Z" fill="#000000" fill-rule="nonzero" fill-opacity="1" /><path clip-path="url(#clip500)" d="M132.362 221.977 Q128.751 221.977 126.922 225.542 Q125.117 229.083 125.117 236.213 Q125.117 243.319 126.922 246.884 Q128.751 250.426 132.362 250.426 Q135.996 250.426 137.802 246.884 Q139.631 243.319 139.631 236.213 Q139.631 229.083 137.802 225.542 Q135.996 221.977 132.362 221.977 M132.362 218.273 Q138.172 218.273 141.228 222.879 Q144.307 227.463 144.307 236.213 Q144.307 244.94 141.228 249.546 Q138.172 254.129 132.362 254.129 Q126.552 254.129 123.473 249.546 Q120.418 244.94 120.418 236.213 Q120.418 227.463 123.473 222.879 Q126.552 218.273 132.362 218.273 Z" fill="#000000" fill-rule="nonzero" fill-opacity="1" /><path clip-path="url(#clip500)" d="M162.524 221.977 Q158.913 221.977 157.084 225.542 Q155.279 229.083 155.279 236.213 Q155.279 243.319 157.084 246.884 Q158.913 250.426 162.524 250.426 Q166.158 250.426 167.964 246.884 Q169.793 243.319 169.793 236.213 Q169.793 229.083 167.964 225.542 Q166.158 221.977 162.524 221.977 M162.524 218.273 Q168.334 218.273 171.39 222.879 Q174.469 227.463 174.469 236.213 Q174.469 244.94 171.39 249.546 Q168.334 254.129 162.524 254.129 Q156.714 254.129 153.635 249.546 Q150.58 244.94 150.58 236.213 Q150.58 227.463 153.635 222.879 Q156.714 218.273 162.524 218.273 Z" fill="#000000" fill-rule="nonzero" fill-opacity="1" /><circle clip-path="url(#clip503)" cx="258.751" cy="452.765" r="14.4" fill="#009af9" fill-rule="evenodd" fill-opacity="1" stroke="#000000" stroke-opacity="1" stroke-width="2.688"/>
<circle clip-path="url(#clip503)" cx="453.573" cy="457.141" r="14.4" fill="#009af9" fill-rule="evenodd" fill-opacity="1" stroke="#000000" stroke-opacity="1" stroke-width="2.688"/>
<circle clip-path="url(#clip503)" cx="648.396" cy="448.39" r="14.4" fill="#009af9" fill-rule="evenodd" fill-opacity="1" stroke="#000000" stroke-opacity="1" stroke-width="2.688"/>
<circle clip-path="url(#clip503)" cx="843.218" cy="465.892" r="14.4" fill="#009af9" fill-rule="evenodd" fill-opacity="1" stroke="#000000" stroke-opacity="1" stroke-width="2.688"/>
<circle clip-path="url(#clip503)" cx="1038.04" cy="430.888" r="14.4" fill="#009af9" fill-rule="evenodd" fill-opacity="1" stroke="#000000" stroke-opacity="1" stroke-width="2.688"/>
<circle clip-path="url(#clip503)" cx="1232.86" cy="500.896" r="14.4" fill="#009af9" fill-rule="evenodd" fill-opacity="1" stroke="#000000" stroke-opacity="1" stroke-width="2.688"/>
<circle clip-path="url(#clip503)" cx="1427.69" cy="360.88" r="14.4" fill="#009af9" fill-rule="evenodd" fill-opacity="1" stroke="#000000" stroke-opacity="1" stroke-width="2.688"/>
<circle clip-path="url(#clip503)" cx="1622.51" cy="640.911" r="14.4" fill="#009af9" fill-rule="evenodd" fill-opacity="1" stroke="#000000" stroke-opacity="1" stroke-width="2.688"/>
<circle clip-path="url(#clip503)" cx="1817.33" cy="80.8479" r="14.4" fill="#009af9" fill-rule="evenodd" fill-opacity="1" stroke="#000000" stroke-opacity="1" stroke-width="2.688"/>
<circle clip-path="url(#clip503)" cx="2012.15" cy="1200.97" r="14.4" fill="#009af9" fill-rule="evenodd" fill-opacity="1" stroke="#000000" stroke-opacity="1" stroke-width="2.688"/>
<path clip-path="url(#clip500)" d="M268.102 203.161 L650.54 203.161 L650.54 86.8219 L268.102 86.8219  Z" fill="#ffffff" fill-rule="evenodd" fill-opacity="1"/>
<polyline clip-path="url(#clip500)" style="stroke:#000000; stroke-linecap:round; stroke-linejoin:round; stroke-width:4; stroke-opacity:1; fill:none" points="268.102,203.161 650.54,203.161 650.54,86.8219 268.102,86.8219 268.102,203.161 "/>
<circle clip-path="url(#clip500)" cx="350.707" cy="144.992" r="20.48" fill="#009af9" fill-rule="evenodd" fill-opacity="1" stroke="#000000" stroke-opacity="1" stroke-width="3.82293"/>
<path clip-path="url(#clip500)" d="M478.54 162.243 L474.418 174.189 L434.647 174.189 Q434.108 174.189 433.897 174.165 Q433.686 174.142 433.522 174.025 Q433.358 173.908 433.358 173.65 Q433.358 173.439 433.78 172.901 L450.808 151.844 L433.312 127.766 Q433.312 126.665 433.499 126.454 Q433.686 126.22 434.647 126.22 L474.418 126.22 L478.54 137.439 L477.346 137.439 Q476.807 135.987 475.94 134.769 Q475.097 133.528 474.114 132.637 Q473.153 131.747 471.888 131.045 Q470.647 130.319 469.476 129.874 Q468.328 129.405 466.899 129.077 Q465.471 128.726 464.323 128.562 Q463.199 128.375 461.793 128.281 Q460.388 128.187 459.498 128.164 Q458.608 128.14 457.484 128.14 L438.488 128.14 L454.064 149.525 Q454.415 150.064 454.415 150.204 Q454.415 150.415 453.97 150.977 L437.34 171.542 L457.718 171.542 Q464.276 171.542 468.843 170.16 Q471.935 169.106 474.184 167.022 Q476.456 164.937 477.346 162.243 L478.54 162.243 Z" fill="#000000" fill-rule="nonzero" fill-opacity="1" /><path clip-path="url(#clip500)" d="M511.494 150.204 Q511.494 142.1 514.516 135.565 Q515.804 132.825 517.608 130.529 Q519.411 128.234 520.606 127.227 Q521.8 126.22 522.128 126.22 Q522.597 126.22 522.62 126.688 Q522.62 126.922 521.988 127.508 Q514.258 135.378 514.282 150.204 Q514.282 165.078 521.8 172.643 Q522.62 173.463 522.62 173.72 Q522.62 174.189 522.128 174.189 Q521.8 174.189 520.652 173.229 Q519.505 172.268 517.725 170.067 Q515.945 167.865 514.656 165.171 Q511.494 158.636 511.494 150.204 Z" fill="#000000" fill-rule="nonzero" fill-opacity="1" /><path clip-path="url(#clip500)" d="M561.579 149.525 Q561.86 149.806 561.86 150.204 Q561.86 150.602 561.579 150.884 Q561.298 151.165 560.9 151.165 L530.873 151.165 Q530.474 151.165 530.193 150.884 Q529.912 150.602 529.912 150.204 Q529.912 149.806 530.193 149.525 Q530.474 149.244 530.873 149.244 L560.9 149.244 Q561.298 149.244 561.579 149.525 Z" fill="#000000" fill-rule="nonzero" fill-opacity="1" /><path clip-path="url(#clip500)" d="M566.864 162.197 Q566.864 161.33 566.934 161.072 Q567.028 160.815 567.403 160.416 L576.608 150.157 Q581.644 144.489 581.644 139.547 Q581.644 136.338 579.957 134.043 Q578.294 131.747 575.226 131.747 Q573.118 131.747 571.338 133.036 Q569.558 134.324 568.738 136.619 Q568.878 136.572 569.37 136.572 Q570.565 136.572 571.221 137.322 Q571.9 138.071 571.9 139.079 Q571.9 140.367 571.057 140.999 Q570.237 141.608 569.417 141.608 Q569.089 141.608 568.644 141.538 Q568.223 141.468 567.543 140.812 Q566.864 140.133 566.864 138.938 Q566.864 135.589 569.394 132.919 Q571.947 130.248 575.835 130.248 Q580.238 130.248 583.119 132.872 Q586.024 135.472 586.024 139.547 Q586.024 140.976 585.579 142.288 Q585.157 143.576 584.571 144.583 Q584.009 145.59 582.463 147.206 Q580.918 148.822 579.676 149.97 Q578.435 151.118 575.648 153.554 L570.565 158.496 L579.208 158.496 Q583.424 158.496 583.752 158.121 Q584.22 157.442 584.806 153.858 L586.024 153.858 L584.665 162.197 L566.864 162.197 Z" fill="#000000" fill-rule="nonzero" fill-opacity="1" /><path clip-path="url(#clip500)" d="M590.617 173.72 Q590.617 173.486 591.226 172.901 Q598.956 165.031 598.956 150.204 Q598.956 135.331 591.531 127.812 Q590.617 126.946 590.617 126.688 Q590.617 126.22 591.086 126.22 Q591.414 126.22 592.561 127.18 Q593.732 128.14 595.489 130.342 Q597.269 132.544 598.581 135.237 Q601.743 141.772 601.743 150.204 Q601.743 158.308 598.721 164.843 Q597.433 167.584 595.63 169.879 Q593.826 172.175 592.632 173.182 Q591.437 174.189 591.086 174.189 Q590.617 174.189 590.617 173.72 Z" fill="#000000" fill-rule="nonzero" fill-opacity="1" /><path clip-path="url(#clip500)" d="M624.95 125.8 Q624.95 125.931 624.803 126.44 Q624.655 126.948 624.294 127.735 Q623.95 128.522 623.475 129.243 Q622.999 129.948 622.212 130.473 Q621.442 130.981 620.556 130.981 Q619.376 130.981 618.589 130.194 Q617.802 129.407 617.802 128.227 Q617.802 127.571 618.146 126.669 Q620.327 120.849 620.327 118.848 Q620.327 116.504 618.507 116.504 Q617.605 116.504 616.752 116.848 Q615.916 117.176 615.342 117.635 Q614.768 118.094 614.244 118.734 Q613.736 119.357 613.473 119.783 Q613.227 120.193 613.031 120.603 L612.604 122.275 Q612.506 122.734 612.03 124.521 L611.293 127.555 Q610.768 129.817 610.653 130.03 Q610.489 130.489 610.128 130.735 Q609.768 130.981 609.407 130.981 Q608.997 130.981 608.718 130.735 Q608.44 130.489 608.44 130.063 Q608.44 129.998 608.489 129.752 Q608.538 129.506 608.62 129.161 Q608.702 128.817 608.735 128.62 L610.686 120.865 Q611.047 119.455 611.129 119.012 Q611.227 118.553 611.227 118.045 Q611.227 116.504 610.178 116.504 Q609.325 116.504 608.768 117.52 Q608.21 118.537 607.735 120.504 Q607.587 121.045 607.489 121.16 Q607.407 121.275 607.161 121.275 Q606.751 121.259 606.751 120.931 Q606.751 120.849 606.882 120.308 Q607.013 119.767 607.259 118.996 Q607.522 118.209 607.768 117.684 Q607.981 117.291 608.095 117.111 Q608.227 116.914 608.538 116.537 Q608.866 116.143 609.292 115.963 Q609.735 115.766 610.276 115.766 Q611.489 115.766 612.375 116.553 Q613.26 117.324 613.375 118.685 Q615.555 115.766 618.605 115.766 Q620.409 115.766 621.442 116.717 Q622.474 117.668 622.474 119.357 Q622.474 119.75 622.392 120.258 Q622.327 120.75 622.163 121.373 Q622.015 121.996 621.884 122.472 Q621.753 122.947 621.491 123.718 Q621.228 124.472 621.114 124.8 Q620.999 125.128 620.72 125.899 Q620.458 126.653 620.425 126.735 Q619.818 128.26 619.818 129.129 Q619.818 129.702 619.999 129.965 Q620.195 130.227 620.622 130.227 Q621.769 130.227 622.622 129.096 Q623.491 127.948 624.048 126.079 Q624.18 125.669 624.245 125.571 Q624.327 125.472 624.557 125.472 Q624.95 125.472 624.95 125.8 Z" fill="#000000" fill-rule="nonzero" fill-opacity="1" /></svg>
