<?xml version="1.0" encoding="utf-8"?>
<svg xmlns="http://www.w3.org/2000/svg" xmlns:xlink="http://www.w3.org/1999/xlink" width="528" height="336" viewBox="0 0 2112 1344">
<defs>
  <clipPath id="clip540">
    <rect x="0" y="0" width="2112" height="1344"/>
  </clipPath>
</defs>
<path clip-path="url(#clip540)" d="M0 1344 L2112 1344 L2112 0 L0 0  Z" fill="#ffffff" fill-rule="evenodd" fill-opacity="1"/>
<defs>
  <clipPath id="clip541">
    <rect x="422" y="0" width="1479" height="1344"/>
  </clipPath>
</defs>
<path clip-path="url(#clip540)" d="M181.311 1234.58 L2064.76 1234.58 L2064.76 47.2441 L181.311 47.2441  Z" fill="#ffffff" fill-rule="evenodd" fill-opacity="1"/>
<defs>
  <clipPath id="clip542">
    <rect x="181" y="47" width="1884" height="1188"/>
  </clipPath>
</defs>
<polyline clip-path="url(#clip542)" style="stroke:#000000; stroke-linecap:round; stroke-linejoin:round; stroke-width:2; stroke-opacity:0.1; fill:none" points="412.299,1234.58 412.299,47.2441 "/>
<polyline clip-path="url(#clip542)" style="stroke:#000000; stroke-linecap:round; stroke-linejoin:round; stroke-width:2; stroke-opacity:0.1; fill:none" points="767.666,1234.58 767.666,47.2441 "/>
<polyline clip-path="url(#clip542)" style="stroke:#000000; stroke-linecap:round; stroke-linejoin:round; stroke-width:2; stroke-opacity:0.1; fill:none" points="1123.03,1234.58 1123.03,47.2441 "/>
<polyline clip-path="url(#clip542)" style="stroke:#000000; stroke-linecap:round; stroke-linejoin:round; stroke-width:2; stroke-opacity:0.1; fill:none" points="1478.4,1234.58 1478.4,47.2441 "/>
<polyline clip-path="url(#clip542)" style="stroke:#000000; stroke-linecap:round; stroke-linejoin:round; stroke-width:2; stroke-opacity:0.1; fill:none" points="1833.77,1234.58 1833.77,47.2441 "/>
<polyline clip-path="url(#clip540)" style="stroke:#000000; stroke-linecap:round; stroke-linejoin:round; stroke-width:4; stroke-opacity:1; fill:none" points="181.311,1234.58 2064.76,1234.58 "/>
<polyline clip-path="url(#clip540)" style="stroke:#000000; stroke-linecap:round; stroke-linejoin:round; stroke-width:4; stroke-opacity:1; fill:none" points="412.299,1234.58 412.299,1215.68 "/>
<polyline clip-path="url(#clip540)" style="stroke:#000000; stroke-linecap:round; stroke-linejoin:round; stroke-width:4; stroke-opacity:1; fill:none" points="767.666,1234.58 767.666,1215.68 "/>
<polyline clip-path="url(#clip540)" style="stroke:#000000; stroke-linecap:round; stroke-linejoin:round; stroke-width:4; stroke-opacity:1; fill:none" points="1123.03,1234.58 1123.03,1215.68 "/>
<polyline clip-path="url(#clip540)" style="stroke:#000000; stroke-linecap:round; stroke-linejoin:round; stroke-width:4; stroke-opacity:1; fill:none" points="1478.4,1234.58 1478.4,1215.68 "/>
<polyline clip-path="url(#clip540)" style="stroke:#000000; stroke-linecap:round; stroke-linejoin:round; stroke-width:4; stroke-opacity:1; fill:none" points="1833.77,1234.58 1833.77,1215.68 "/>
<path clip-path="url(#clip540)" d="M381.2 1277.85 L410.876 1277.85 L410.876 1281.78 L381.2 1281.78 L381.2 1277.85 Z" fill="#000000" fill-rule="nonzero" fill-opacity="1" /><path clip-path="url(#clip540)" d="M433.815 1264.19 L422.01 1282.64 L433.815 1282.64 L433.815 1264.19 M432.588 1260.11 L438.468 1260.11 L438.468 1282.64 L443.399 1282.64 L443.399 1286.53 L438.468 1286.53 L438.468 1294.67 L433.815 1294.67 L433.815 1286.53 L418.214 1286.53 L418.214 1282.01 L432.588 1260.11 Z" fill="#000000" fill-rule="nonzero" fill-opacity="1" /><path clip-path="url(#clip540)" d="M737.609 1277.85 L767.284 1277.85 L767.284 1281.78 L737.609 1281.78 L737.609 1277.85 Z" fill="#000000" fill-rule="nonzero" fill-opacity="1" /><path clip-path="url(#clip540)" d="M781.405 1290.74 L797.724 1290.74 L797.724 1294.67 L775.78 1294.67 L775.78 1290.74 Q778.442 1287.99 783.025 1283.36 Q787.631 1278.7 788.812 1277.36 Q791.057 1274.84 791.937 1273.1 Q792.84 1271.34 792.84 1269.65 Q792.84 1266.9 790.895 1265.16 Q788.974 1263.42 785.872 1263.42 Q783.673 1263.42 781.219 1264.19 Q778.789 1264.95 776.011 1266.5 L776.011 1261.78 Q778.835 1260.65 781.289 1260.07 Q783.743 1259.49 785.78 1259.49 Q791.15 1259.49 794.344 1262.17 Q797.539 1264.86 797.539 1269.35 Q797.539 1271.48 796.729 1273.4 Q795.942 1275.3 793.835 1277.89 Q793.256 1278.56 790.155 1281.78 Q787.053 1284.98 781.405 1290.74 Z" fill="#000000" fill-rule="nonzero" fill-opacity="1" /><path clip-path="url(#clip540)" d="M1123.03 1263.19 Q1119.42 1263.19 1117.59 1266.76 Q1115.79 1270.3 1115.79 1277.43 Q1115.79 1284.54 1117.59 1288.1 Q1119.42 1291.64 1123.03 1291.64 Q1126.67 1291.64 1128.47 1288.1 Q1130.3 1284.54 1130.3 1277.43 Q1130.3 1270.3 1128.47 1266.76 Q1126.67 1263.19 1123.03 1263.19 M1123.03 1259.49 Q1128.84 1259.49 1131.9 1264.1 Q1134.98 1268.68 1134.98 1277.43 Q1134.98 1286.16 1131.9 1290.76 Q1128.84 1295.35 1123.03 1295.35 Q1117.22 1295.35 1114.14 1290.76 Q1111.09 1286.16 1111.09 1277.43 Q1111.09 1268.68 1114.14 1264.1 Q1117.22 1259.49 1123.03 1259.49 Z" fill="#000000" fill-rule="nonzero" fill-opacity="1" /><path clip-path="url(#clip540)" d="M1473.05 1290.74 L1489.37 1290.74 L1489.37 1294.67 L1467.43 1294.67 L1467.43 1290.74 Q1470.09 1287.99 1474.67 1283.36 Q1479.28 1278.7 1480.46 1277.36 Q1482.71 1274.84 1483.59 1273.1 Q1484.49 1271.34 1484.49 1269.65 Q1484.49 1266.9 1482.54 1265.16 Q1480.62 1263.42 1477.52 1263.42 Q1475.32 1263.42 1472.87 1264.19 Q1470.44 1264.95 1467.66 1266.5 L1467.66 1261.78 Q1470.48 1260.65 1472.94 1260.07 Q1475.39 1259.49 1477.43 1259.49 Q1482.8 1259.49 1485.99 1262.17 Q1489.19 1264.86 1489.19 1269.35 Q1489.19 1271.48 1488.38 1273.4 Q1487.59 1275.3 1485.48 1277.89 Q1484.9 1278.56 1481.8 1281.78 Q1478.7 1284.98 1473.05 1290.74 Z" fill="#000000" fill-rule="nonzero" fill-opacity="1" /><path clip-path="url(#clip540)" d="M1836.78 1264.19 L1824.97 1282.64 L1836.78 1282.64 L1836.78 1264.19 M1835.55 1260.11 L1841.43 1260.11 L1841.43 1282.64 L1846.36 1282.64 L1846.36 1286.53 L1841.43 1286.53 L1841.43 1294.67 L1836.78 1294.67 L1836.78 1286.53 L1821.17 1286.53 L1821.17 1282.01 L1835.55 1260.11 Z" fill="#000000" fill-rule="nonzero" fill-opacity="1" /><polyline clip-path="url(#clip542)" style="stroke:#000000; stroke-linecap:round; stroke-linejoin:round; stroke-width:2; stroke-opacity:0.1; fill:none" points="181.311,1200.97 2064.76,1200.97 "/>
<polyline clip-path="url(#clip542)" style="stroke:#000000; stroke-linecap:round; stroke-linejoin:round; stroke-width:2; stroke-opacity:0.1; fill:none" points="181.311,920.943 2064.76,920.943 "/>
<polyline clip-path="url(#clip542)" style="stroke:#000000; stroke-linecap:round; stroke-linejoin:round; stroke-width:2; stroke-opacity:0.1; fill:none" points="181.311,640.911 2064.76,640.911 "/>
<polyline clip-path="url(#clip542)" style="stroke:#000000; stroke-linecap:round; stroke-linejoin:round; stroke-width:2; stroke-opacity:0.1; fill:none" points="181.311,360.88 2064.76,360.88 "/>
<polyline clip-path="url(#clip542)" style="stroke:#000000; stroke-linecap:round; stroke-linejoin:round; stroke-width:2; stroke-opacity:0.1; fill:none" points="181.311,80.8479 2064.76,80.8479 "/>
<polyline clip-path="url(#clip540)" style="stroke:#000000; stroke-linecap:round; stroke-linejoin:round; stroke-width:4; stroke-opacity:1; fill:none" points="181.311,1234.58 181.311,47.2441 "/>
<polyline clip-path="url(#clip540)" style="stroke:#000000; stroke-linecap:round; stroke-linejoin:round; stroke-width:4; stroke-opacity:1; fill:none" points="181.311,1200.97 200.208,1200.97 "/>
<polyline clip-path="url(#clip540)" style="stroke:#000000; stroke-linecap:round; stroke-linejoin:round; stroke-width:4; stroke-opacity:1; fill:none" points="181.311,920.943 200.208,920.943 "/>
<polyline clip-path="url(#clip540)" style="stroke:#000000; stroke-linecap:round; stroke-linejoin:round; stroke-width:4; stroke-opacity:1; fill:none" points="181.311,640.911 200.208,640.911 "/>
<polyline clip-path="url(#clip540)" style="stroke:#000000; stroke-linecap:round; stroke-linejoin:round; stroke-width:4; stroke-opacity:1; fill:none" points="181.311,360.88 200.208,360.88 "/>
<polyline clip-path="url(#clip540)" style="stroke:#000000; stroke-linecap:round; stroke-linejoin:round; stroke-width:4; stroke-opacity:1; fill:none" points="181.311,80.8479 200.208,80.8479 "/>
<path clip-path="url(#clip540)" d="M92.4551 1186.77 Q88.844 1186.77 87.0153 1190.34 Q85.2097 1193.88 85.2097 1201.01 Q85.2097 1208.12 87.0153 1211.68 Q88.844 1215.22 92.4551 1215.22 Q96.0893 1215.22 97.8948 1211.68 Q99.7235 1208.12 99.7235 1201.01 Q99.7235 1193.88 97.8948 1190.34 Q96.0893 1186.77 92.4551 1186.77 M92.4551 1183.07 Q98.2652 1183.07 101.321 1187.68 Q104.399 1192.26 104.399 1201.01 Q104.399 1209.74 101.321 1214.34 Q98.2652 1218.93 92.4551 1218.93 Q86.6449 1218.93 83.5662 1214.34 Q80.5107 1209.74 80.5107 1201.01 Q80.5107 1192.26 83.5662 1187.68 Q86.6449 1183.07 92.4551 1183.07 Z" fill="#000000" fill-rule="nonzero" fill-opacity="1" /><path clip-path="url(#clip540)" d="M112.617 1212.38 L117.501 1212.38 L117.501 1218.25 L112.617 1218.25 L112.617 1212.38 Z" fill="#000000" fill-rule="nonzero" fill-opacity="1" /><path clip-path="url(#clip540)" d="M137.686 1186.77 Q134.075 1186.77 132.247 1190.34 Q130.441 1193.88 130.441 1201.01 Q130.441 1208.12 132.247 1211.68 Q134.075 1215.22 137.686 1215.22 Q141.321 1215.22 143.126 1211.68 Q144.955 1208.12 144.955 1201.01 Q144.955 1193.88 143.126 1190.34 Q141.321 1186.77 137.686 1186.77 M137.686 1183.07 Q143.496 1183.07 146.552 1187.68 Q149.631 1192.26 149.631 1201.01 Q149.631 1209.74 146.552 1214.34 Q143.496 1218.93 137.686 1218.93 Q131.876 1218.93 128.797 1214.34 Q125.742 1209.74 125.742 1201.01 Q125.742 1192.26 128.797 1187.68 Q131.876 1183.07 137.686 1183.07 Z" fill="#000000" fill-rule="nonzero" fill-opacity="1" /><path clip-path="url(#clip540)" d="M87.4782 934.288 L103.798 934.288 L103.798 938.223 L81.8533 938.223 L81.8533 934.288 Q84.5153 931.533 89.0986 926.904 Q93.7051 922.251 94.8856 920.909 Q97.131 918.385 98.0106 916.649 Q98.9134 914.89 98.9134 913.2 Q98.9134 910.446 96.9689 908.709 Q95.0476 906.973 91.9458 906.973 Q89.7467 906.973 87.2931 907.737 Q84.8625 908.501 82.0847 910.052 L82.0847 905.33 Q84.9088 904.196 87.3625 903.617 Q89.8162 903.038 91.8532 903.038 Q97.2236 903.038 100.418 905.723 Q103.612 908.409 103.612 912.899 Q103.612 915.029 102.802 916.95 Q102.015 918.848 99.9087 921.441 Q99.33 922.112 96.2282 925.33 Q93.1264 928.524 87.4782 934.288 Z" fill="#000000" fill-rule="nonzero" fill-opacity="1" /><path clip-path="url(#clip540)" d="M113.612 932.344 L118.497 932.344 L118.497 938.223 L113.612 938.223 L113.612 932.344 Z" fill="#000000" fill-rule="nonzero" fill-opacity="1" /><path clip-path="url(#clip540)" d="M128.728 903.663 L147.084 903.663 L147.084 907.598 L133.01 907.598 L133.01 916.071 Q134.029 915.723 135.047 915.561 Q136.066 915.376 137.084 915.376 Q142.871 915.376 146.251 918.547 Q149.631 921.719 149.631 927.135 Q149.631 932.714 146.158 935.816 Q142.686 938.895 136.367 938.895 Q134.191 938.895 131.922 938.524 Q129.677 938.154 127.27 937.413 L127.27 932.714 Q129.353 933.848 131.575 934.404 Q133.797 934.959 136.274 934.959 Q140.279 934.959 142.617 932.853 Q144.955 930.746 144.955 927.135 Q144.955 923.524 142.617 921.418 Q140.279 919.311 136.274 919.311 Q134.399 919.311 132.524 919.728 Q130.672 920.145 128.728 921.024 L128.728 903.663 Z" fill="#000000" fill-rule="nonzero" fill-opacity="1" /><path clip-path="url(#clip540)" d="M82.5014 623.631 L100.858 623.631 L100.858 627.567 L86.7838 627.567 L86.7838 636.039 Q87.8023 635.692 88.8208 635.53 Q89.8393 635.344 90.8578 635.344 Q96.6449 635.344 100.024 638.516 Q103.404 641.687 103.404 647.104 Q103.404 652.682 99.9319 655.784 Q96.4597 658.863 90.1403 658.863 Q87.9643 658.863 85.6958 658.492 Q83.4505 658.122 81.0431 657.381 L81.0431 652.682 Q83.1264 653.816 85.3486 654.372 Q87.5708 654.928 90.0477 654.928 Q94.0523 654.928 96.3902 652.821 Q98.7282 650.715 98.7282 647.104 Q98.7282 643.492 96.3902 641.386 Q94.0523 639.28 90.0477 639.28 Q88.1727 639.28 86.2977 639.696 Q84.4458 640.113 82.5014 640.992 L82.5014 623.631 Z" fill="#000000" fill-rule="nonzero" fill-opacity="1" /><path clip-path="url(#clip540)" d="M112.617 652.312 L117.501 652.312 L117.501 658.191 L112.617 658.191 L112.617 652.312 Z" fill="#000000" fill-rule="nonzero" fill-opacity="1" /><path clip-path="url(#clip540)" d="M137.686 626.71 Q134.075 626.71 132.247 630.275 Q130.441 633.817 130.441 640.946 Q130.441 648.053 132.247 651.617 Q134.075 655.159 137.686 655.159 Q141.321 655.159 143.126 651.617 Q144.955 648.053 144.955 640.946 Q144.955 633.817 143.126 630.275 Q141.321 626.71 137.686 626.71 M137.686 623.006 Q143.496 623.006 146.552 627.613 Q149.631 632.196 149.631 640.946 Q149.631 649.673 146.552 654.279 Q143.496 658.863 137.686 658.863 Q131.876 658.863 128.797 654.279 Q125.742 649.673 125.742 640.946 Q125.742 632.196 128.797 627.613 Q131.876 623.006 137.686 623.006 Z" fill="#000000" fill-rule="nonzero" fill-opacity="1" /><path clip-path="url(#clip540)" d="M82.2699 343.6 L104.492 343.6 L104.492 345.59 L91.9458 378.16 L87.0616 378.16 L98.8671 347.535 L82.2699 347.535 L82.2699 343.6 Z" fill="#000000" fill-rule="nonzero" fill-opacity="1" /><path clip-path="url(#clip540)" d="M113.612 372.28 L118.497 372.28 L118.497 378.16 L113.612 378.16 L113.612 372.28 Z" fill="#000000" fill-rule="nonzero" fill-opacity="1" /><path clip-path="url(#clip540)" d="M128.728 343.6 L147.084 343.6 L147.084 347.535 L133.01 347.535 L133.01 356.007 Q134.029 355.66 135.047 355.498 Q136.066 355.313 137.084 355.313 Q142.871 355.313 146.251 358.484 Q149.631 361.655 149.631 367.072 Q149.631 372.65 146.158 375.752 Q142.686 378.831 136.367 378.831 Q134.191 378.831 131.922 378.461 Q129.677 378.09 127.27 377.349 L127.27 372.65 Q129.353 373.785 131.575 374.34 Q133.797 374.896 136.274 374.896 Q140.279 374.896 142.617 372.789 Q144.955 370.683 144.955 367.072 Q144.955 363.461 142.617 361.354 Q140.279 359.248 136.274 359.248 Q134.399 359.248 132.524 359.664 Q130.672 360.081 128.728 360.961 L128.728 343.6 Z" fill="#000000" fill-rule="nonzero" fill-opacity="1" /><path clip-path="url(#clip540)" d="M53.1034 94.1927 L60.7423 94.1927 L60.7423 67.8271 L52.4321 69.4938 L52.4321 65.2346 L60.696 63.5679 L65.3719 63.5679 L65.3719 94.1927 L73.0107 94.1927 L73.0107 98.1279 L53.1034 98.1279 L53.1034 94.1927 Z" fill="#000000" fill-rule="nonzero" fill-opacity="1" /><path clip-path="url(#clip540)" d="M92.4551 66.6466 Q88.844 66.6466 87.0153 70.2114 Q85.2097 73.753 85.2097 80.8826 Q85.2097 87.9891 87.0153 91.5539 Q88.844 95.0955 92.4551 95.0955 Q96.0893 95.0955 97.8948 91.5539 Q99.7235 87.9891 99.7235 80.8826 Q99.7235 73.753 97.8948 70.2114 Q96.0893 66.6466 92.4551 66.6466 M92.4551 62.9429 Q98.2652 62.9429 101.321 67.5494 Q104.399 72.1327 104.399 80.8826 Q104.399 89.6094 101.321 94.2159 Q98.2652 98.7992 92.4551 98.7992 Q86.6449 98.7992 83.5662 94.2159 Q80.5107 89.6094 80.5107 80.8826 Q80.5107 72.1327 83.5662 67.5494 Q86.6449 62.9429 92.4551 62.9429 Z" fill="#000000" fill-rule="nonzero" fill-opacity="1" /><path clip-path="url(#clip540)" d="M112.617 92.2483 L117.501 92.2483 L117.501 98.1279 L112.617 98.1279 L112.617 92.2483 Z" fill="#000000" fill-rule="nonzero" fill-opacity="1" /><path clip-path="url(#clip540)" d="M137.686 66.6466 Q134.075 66.6466 132.247 70.2114 Q130.441 73.753 130.441 80.8826 Q130.441 87.9891 132.247 91.5539 Q134.075 95.0955 137.686 95.0955 Q141.321 95.0955 143.126 91.5539 Q144.955 87.9891 144.955 80.8826 Q144.955 73.753 143.126 70.2114 Q141.321 66.6466 137.686 66.6466 M137.686 62.9429 Q143.496 62.9429 146.552 67.5494 Q149.631 72.1327 149.631 80.8826 Q149.631 89.6094 146.552 94.2159 Q143.496 98.7992 137.686 98.7992 Q131.876 98.7992 128.797 94.2159 Q125.742 89.6094 125.742 80.8826 Q125.742 72.1327 128.797 67.5494 Q131.876 62.9429 137.686 62.9429 Z" fill="#000000" fill-rule="nonzero" fill-opacity="1" /><polyline clip-path="url(#clip542)" style="stroke:#009af9; stroke-linecap:round; stroke-linejoin:round; stroke-width:4; stroke-opacity:1; fill:none" points="234.616,80.8479 246.184,95.4332 353.148,230.295 417.429,311.342 471.778,379.865 530.816,454.301 585.244,522.925 643.597,596.496 711.204,681.736 771.285,757.487 823.971,823.914 881.413,896.337 939.196,969.191 1003.08,1049.74 1063.87,1126.38 1079.67,1146.3 1095.47,1166.22 1103.37,1176.18 1111.27,1186.15 1115.22,1191.13 1119.17,1196.11 1123.12,1200.97 1127.07,1200.92 1133.72,1200.57 1140.37,1199.91 1147.02,1198.93 1153.67,1197.64 1166.98,1194.12 1180.28,1189.35 1196.52,1181.82 1212.75,1172.41 1228.99,1161.14 1245.23,1147.99 1260.11,1134.31 1274.98,1119.06 1289.86,1102.23 1304.74,1083.84 1318.48,1065.45 1332.22,1045.73 1345.95,1024.67 1359.69,1002.26 1373.61,978.205 1387.53,952.772 1401.45,925.964 1415.36,897.783 1430.96,864.565 1446.56,829.622 1454.36,811.503 1462.16,792.952 1466.05,783.515 1469.95,773.97 1473.85,764.317 1477.75,754.556 1481.29,752.924 1484.82,752.924 1488.35,752.924 1491.89,752.924 1498.95,752.924 1506.02,752.924 1520.15,752.924 1534.29,752.924 1599.02,752.924 1658.95,752.924 1718.04,752.924 1775.41,752.924 1834.22,752.924 1898.65,752.924 1992.25,752.924 2011.45,752.924 "/>
</svg>
