<?xml version="1.0" encoding="utf-8"?>
<svg xmlns="http://www.w3.org/2000/svg" xmlns:xlink="http://www.w3.org/1999/xlink" width="528" height="336" viewBox="0 0 2112 1344">
<defs>
  <clipPath id="clip450">
    <rect x="0" y="0" width="2112" height="1344"/>
  </clipPath>
</defs>
<path clip-path="url(#clip450)" d="M0 1344 L2112 1344 L2112 0 L0 0  Z" fill="#ffffff" fill-rule="evenodd" fill-opacity="1"/>
<defs>
  <clipPath id="clip451">
    <rect x="422" y="0" width="1479" height="1344"/>
  </clipPath>
</defs>
<path clip-path="url(#clip450)" d="M109.297 1234.58 L2064.76 1234.58 L2064.76 47.2441 L109.297 47.2441  Z" fill="#ffffff" fill-rule="evenodd" fill-opacity="1"/>
<defs>
  <clipPath id="clip452">
    <rect x="109" y="47" width="1956" height="1188"/>
  </clipPath>
</defs>
<polyline clip-path="url(#clip452)" style="stroke:#000000; stroke-linecap:round; stroke-linejoin:round; stroke-width:2; stroke-opacity:0.1; fill:none" points="164.64,1234.58 164.64,47.2441 "/>
<polyline clip-path="url(#clip452)" style="stroke:#000000; stroke-linecap:round; stroke-linejoin:round; stroke-width:2; stroke-opacity:0.1; fill:none" points="625.833,1234.58 625.833,47.2441 "/>
<polyline clip-path="url(#clip452)" style="stroke:#000000; stroke-linecap:round; stroke-linejoin:round; stroke-width:2; stroke-opacity:0.1; fill:none" points="1087.03,1234.58 1087.03,47.2441 "/>
<polyline clip-path="url(#clip452)" style="stroke:#000000; stroke-linecap:round; stroke-linejoin:round; stroke-width:2; stroke-opacity:0.1; fill:none" points="1548.22,1234.58 1548.22,47.2441 "/>
<polyline clip-path="url(#clip452)" style="stroke:#000000; stroke-linecap:round; stroke-linejoin:round; stroke-width:2; stroke-opacity:0.1; fill:none" points="2009.41,1234.58 2009.41,47.2441 "/>
<polyline clip-path="url(#clip452)" style="stroke:#000000; stroke-linecap:round; stroke-linejoin:round; stroke-width:2; stroke-opacity:0.1; fill:none" points="109.297,1221.87 2064.76,1221.87 "/>
<polyline clip-path="url(#clip452)" style="stroke:#000000; stroke-linecap:round; stroke-linejoin:round; stroke-width:2; stroke-opacity:0.1; fill:none" points="109.297,913.032 2064.76,913.032 "/>
<polyline clip-path="url(#clip452)" style="stroke:#000000; stroke-linecap:round; stroke-linejoin:round; stroke-width:2; stroke-opacity:0.1; fill:none" points="109.297,604.189 2064.76,604.189 "/>
<polyline clip-path="url(#clip452)" style="stroke:#000000; stroke-linecap:round; stroke-linejoin:round; stroke-width:2; stroke-opacity:0.1; fill:none" points="109.297,295.347 2064.76,295.347 "/>
<polyline clip-path="url(#clip450)" style="stroke:#000000; stroke-linecap:round; stroke-linejoin:round; stroke-width:4; stroke-opacity:1; fill:none" points="109.297,1234.58 2064.76,1234.58 "/>
<polyline clip-path="url(#clip450)" style="stroke:#000000; stroke-linecap:round; stroke-linejoin:round; stroke-width:4; stroke-opacity:1; fill:none" points="164.64,1234.58 164.64,1215.68 "/>
<polyline clip-path="url(#clip450)" style="stroke:#000000; stroke-linecap:round; stroke-linejoin:round; stroke-width:4; stroke-opacity:1; fill:none" points="625.833,1234.58 625.833,1215.68 "/>
<polyline clip-path="url(#clip450)" style="stroke:#000000; stroke-linecap:round; stroke-linejoin:round; stroke-width:4; stroke-opacity:1; fill:none" points="1087.03,1234.58 1087.03,1215.68 "/>
<polyline clip-path="url(#clip450)" style="stroke:#000000; stroke-linecap:round; stroke-linejoin:round; stroke-width:4; stroke-opacity:1; fill:none" points="1548.22,1234.58 1548.22,1215.68 "/>
<polyline clip-path="url(#clip450)" style="stroke:#000000; stroke-linecap:round; stroke-linejoin:round; stroke-width:4; stroke-opacity:1; fill:none" points="2009.41,1234.58 2009.41,1215.68 "/>
<path clip-path="url(#clip450)" d="M134.583 1277.85 L164.258 1277.85 L164.258 1281.78 L134.583 1281.78 L134.583 1277.85 Z" fill="#000000" fill-rule="nonzero" fill-opacity="1" /><path clip-path="url(#clip450)" d="M178.379 1290.74 L194.698 1290.74 L194.698 1294.67 L172.754 1294.67 L172.754 1290.74 Q175.416 1287.99 179.999 1283.36 Q184.606 1278.7 185.786 1277.36 Q188.031 1274.84 188.911 1273.1 Q189.814 1271.34 189.814 1269.65 Q189.814 1266.9 187.869 1265.16 Q185.948 1263.42 182.846 1263.42 Q180.647 1263.42 178.194 1264.19 Q175.763 1264.95 172.985 1266.5 L172.985 1261.78 Q175.809 1260.65 178.263 1260.07 Q180.717 1259.49 182.754 1259.49 Q188.124 1259.49 191.318 1262.17 Q194.513 1264.86 194.513 1269.35 Q194.513 1271.48 193.703 1273.4 Q192.916 1275.3 190.809 1277.89 Q190.23 1278.56 187.129 1281.78 Q184.027 1284.98 178.379 1290.74 Z" fill="#000000" fill-rule="nonzero" fill-opacity="1" /><path clip-path="url(#clip450)" d="M595.591 1277.85 L625.266 1277.85 L625.266 1281.78 L595.591 1281.78 L595.591 1277.85 Z" fill="#000000" fill-rule="nonzero" fill-opacity="1" /><path clip-path="url(#clip450)" d="M636.169 1290.74 L643.808 1290.74 L643.808 1264.37 L635.498 1266.04 L635.498 1261.78 L643.762 1260.11 L648.437 1260.11 L648.437 1290.74 L656.076 1290.74 L656.076 1294.67 L636.169 1294.67 L636.169 1290.74 Z" fill="#000000" fill-rule="nonzero" fill-opacity="1" /><path clip-path="url(#clip450)" d="M1087.03 1263.19 Q1083.42 1263.19 1081.59 1266.76 Q1079.78 1270.3 1079.78 1277.43 Q1079.78 1284.54 1081.59 1288.1 Q1083.42 1291.64 1087.03 1291.64 Q1090.66 1291.64 1092.47 1288.1 Q1094.3 1284.54 1094.3 1277.43 Q1094.3 1270.3 1092.47 1266.76 Q1090.66 1263.19 1087.03 1263.19 M1087.03 1259.49 Q1092.84 1259.49 1095.89 1264.1 Q1098.97 1268.68 1098.97 1277.43 Q1098.97 1286.16 1095.89 1290.76 Q1092.84 1295.35 1087.03 1295.35 Q1081.22 1295.35 1078.14 1290.76 Q1075.08 1286.16 1075.08 1277.43 Q1075.08 1268.68 1078.14 1264.1 Q1081.22 1259.49 1087.03 1259.49 Z" fill="#000000" fill-rule="nonzero" fill-opacity="1" /><path clip-path="url(#clip450)" d="M1538.6 1290.74 L1546.24 1290.74 L1546.24 1264.37 L1537.93 1266.04 L1537.93 1261.78 L1546.19 1260.11 L1550.87 1260.11 L1550.87 1290.74 L1558.51 1290.74 L1558.51 1294.67 L1538.6 1294.67 L1538.6 1290.74 Z" fill="#000000" fill-rule="nonzero" fill-opacity="1" /><path clip-path="url(#clip450)" d="M2004.07 1290.74 L2020.38 1290.74 L2020.38 1294.67 L1998.44 1294.67 L1998.44 1290.74 Q2001.1 1287.99 2005.69 1283.36 Q2010.29 1278.7 2011.47 1277.36 Q2013.72 1274.84 2014.6 1273.1 Q2015.5 1271.34 2015.5 1269.65 Q2015.5 1266.9 2013.56 1265.16 Q2011.63 1263.42 2008.53 1263.42 Q2006.33 1263.42 2003.88 1264.19 Q2001.45 1264.95 1998.67 1266.5 L1998.67 1261.78 Q2001.5 1260.65 2003.95 1260.07 Q2006.4 1259.49 2008.44 1259.49 Q2013.81 1259.49 2017.01 1262.17 Q2020.2 1264.86 2020.2 1269.35 Q2020.2 1271.48 2019.39 1273.4 Q2018.6 1275.3 2016.5 1277.89 Q2015.92 1278.56 2012.82 1281.78 Q2009.71 1284.98 2004.07 1290.74 Z" fill="#000000" fill-rule="nonzero" fill-opacity="1" /><polyline clip-path="url(#clip450)" style="stroke:#000000; stroke-linecap:round; stroke-linejoin:round; stroke-width:4; stroke-opacity:1; fill:none" points="109.297,1234.58 109.297,47.2441 "/>
<polyline clip-path="url(#clip450)" style="stroke:#000000; stroke-linecap:round; stroke-linejoin:round; stroke-width:4; stroke-opacity:1; fill:none" points="109.297,1221.87 128.195,1221.87 "/>
<polyline clip-path="url(#clip450)" style="stroke:#000000; stroke-linecap:round; stroke-linejoin:round; stroke-width:4; stroke-opacity:1; fill:none" points="109.297,913.032 128.195,913.032 "/>
<polyline clip-path="url(#clip450)" style="stroke:#000000; stroke-linecap:round; stroke-linejoin:round; stroke-width:4; stroke-opacity:1; fill:none" points="109.297,604.189 128.195,604.189 "/>
<polyline clip-path="url(#clip450)" style="stroke:#000000; stroke-linecap:round; stroke-linejoin:round; stroke-width:4; stroke-opacity:1; fill:none" points="109.297,295.347 128.195,295.347 "/>
<path clip-path="url(#clip450)" d="M65.6728 1207.67 Q62.0617 1207.67 60.233 1211.24 Q58.4275 1214.78 58.4275 1221.91 Q58.4275 1229.01 60.233 1232.58 Q62.0617 1236.12 65.6728 1236.12 Q69.307 1236.12 71.1126 1232.58 Q72.9413 1229.01 72.9413 1221.91 Q72.9413 1214.78 71.1126 1211.24 Q69.307 1207.67 65.6728 1207.67 M65.6728 1203.97 Q71.4829 1203.97 74.5385 1208.58 Q77.6172 1213.16 77.6172 1221.91 Q77.6172 1230.64 74.5385 1235.24 Q71.4829 1239.82 65.6728 1239.82 Q59.8626 1239.82 56.784 1235.24 Q53.7284 1230.64 53.7284 1221.91 Q53.7284 1213.16 56.784 1208.58 Q59.8626 1203.97 65.6728 1203.97 Z" fill="#000000" fill-rule="nonzero" fill-opacity="1" /><path clip-path="url(#clip450)" d="M61.2978 926.376 L77.6172 926.376 L77.6172 930.312 L55.6728 930.312 L55.6728 926.376 Q58.3349 923.622 62.9182 918.992 Q67.5246 914.339 68.7052 912.997 Q70.9505 910.474 71.8302 908.738 Q72.7329 906.978 72.7329 905.289 Q72.7329 902.534 70.7885 900.798 Q68.8672 899.062 65.7654 899.062 Q63.5663 899.062 61.1126 899.826 Q58.6821 900.589 55.9043 902.14 L55.9043 897.418 Q58.7284 896.284 61.1821 895.705 Q63.6358 895.127 65.6728 895.127 Q71.0431 895.127 74.2376 897.812 Q77.432 900.497 77.432 904.988 Q77.432 907.117 76.6218 909.038 Q75.8348 910.937 73.7283 913.529 Q73.1496 914.2 70.0478 917.418 Q66.9459 920.612 61.2978 926.376 Z" fill="#000000" fill-rule="nonzero" fill-opacity="1" /><path clip-path="url(#clip450)" d="M68.0339 590.984 L56.2284 609.432 L68.0339 609.432 L68.0339 590.984 M66.807 586.909 L72.6866 586.909 L72.6866 609.432 L77.6172 609.432 L77.6172 613.321 L72.6866 613.321 L72.6866 621.469 L68.0339 621.469 L68.0339 613.321 L52.4321 613.321 L52.4321 608.807 L66.807 586.909 Z" fill="#000000" fill-rule="nonzero" fill-opacity="1" /><path clip-path="url(#clip450)" d="M66.0895 293.484 Q62.9413 293.484 61.0895 295.637 Q59.2608 297.79 59.2608 301.539 Q59.2608 305.266 61.0895 307.442 Q62.9413 309.595 66.0895 309.595 Q69.2376 309.595 71.0663 307.442 Q72.9181 305.266 72.9181 301.539 Q72.9181 297.79 71.0663 295.637 Q69.2376 293.484 66.0895 293.484 M75.3718 278.831 L75.3718 283.091 Q73.6126 282.257 71.807 281.817 Q70.0246 281.378 68.2654 281.378 Q63.6358 281.378 61.1821 284.503 Q58.7515 287.628 58.4043 293.947 Q59.77 291.933 61.8302 290.868 Q63.8904 289.78 66.3672 289.78 Q71.5755 289.78 74.5848 292.952 Q77.6172 296.1 77.6172 301.539 Q77.6172 306.864 74.469 310.081 Q71.3209 313.299 66.0895 313.299 Q60.0941 313.299 56.9228 308.715 Q53.7516 304.109 53.7516 295.382 Q53.7516 287.188 57.6404 282.327 Q61.5293 277.442 68.0802 277.442 Q69.8394 277.442 71.6218 277.79 Q73.4274 278.137 75.3718 278.831 Z" fill="#000000" fill-rule="nonzero" fill-opacity="1" /><polyline clip-path="url(#clip452)" style="stroke:#009af9; stroke-linecap:round; stroke-linejoin:round; stroke-width:4; stroke-opacity:1; fill:none" points="164.64,1183.27 184.73,1182.08 293.988,1174.98 353.973,1170.56 414.014,1165.71 474.302,1160.39 530.248,1155 590.82,1148.62 660.923,1140.48 713.959,1133.73 778.057,1124.81 844.867,1114.56 898.267,1105.6 963.682,1093.58 1030.07,1080.12 1089.13,1066.96 1143.23,1053.84 1179.74,1044.36 1216.25,1034.35 1243.88,1026.4 1271.5,1018.11 1300.32,1009.09 1329.15,999.674 1362.99,988.078 1396.84,975.877 1424.53,965.425 1452.21,954.529 1483.83,941.518 1515.45,927.874 1544.51,914.749 1573.57,901.038 1608.8,883.592 1644.03,865.197 1673.03,849.308 1702.03,832.711 1735.18,812.833 1768.32,791.939 1794.15,774.923 1819.98,757.233 1852.95,733.624 1885.93,708.816 1913.89,686.794 1941.86,663.827 1969.82,639.873 1997.78,614.892 2000.69,612.234 2003.6,609.564 2006.51,606.883 2009.41,604.189 "/>
<polyline clip-path="url(#clip452)" style="stroke:#e26f46; stroke-linecap:round; stroke-linejoin:round; stroke-width:4; stroke-opacity:1; fill:none" points="164.64,1200.97 184.73,1200.04 293.988,1194.21 353.973,1190.37 414.014,1185.99 474.302,1180.97 530.248,1175.7 590.82,1169.22 660.923,1160.57 713.959,1153.1 778.057,1142.85 844.867,1130.53 898.267,1119.32 963.682,1103.69 1030.07,1085.39 1089.13,1066.75 1143.23,1047.44 1179.74,1033.07 1216.25,1017.51 1243.88,1004.9 1271.5,991.505 1300.32,976.649 1329.15,960.835 1362.99,940.956 1396.84,919.564 1424.53,900.86 1452.21,880.999 1483.83,856.81 1515.45,830.904 1544.51,805.477 1573.57,778.396 1608.8,743.191 1644.03,705.191 1673.03,671.659 1702.03,635.952 1718.6,614.513 1735.18,592.29 1751.75,569.253 1768.32,545.374 1794.15,506.41 1819.98,465.203 1836.46,437.661 1852.95,409.117 1869.44,379.534 1885.93,348.875 1899.91,322.003 1913.89,294.304 1927.87,265.753 1941.86,236.323 1955.84,205.987 1969.82,174.717 1983.8,142.485 1997.78,109.261 2000.69,102.225 2003.6,95.144 2006.51,88.0185 2009.41,80.8479 "/>
<polyline clip-path="url(#clip452)" style="stroke:#3da44d; stroke-linecap:round; stroke-linejoin:round; stroke-width:4; stroke-opacity:1; fill:none" points="164.64,604.189 169.663,608.834 174.685,613.444 179.707,618.02 184.73,622.561 212.044,646.666 239.359,669.801 266.674,692.006 293.988,713.318 323.981,735.733 353.973,757.16 383.993,777.662 414.014,797.258 444.158,816.066 474.302,834.041 502.275,850.008 530.248,865.318 560.534,881.184 590.82,896.344 625.871,913.049 660.923,928.897 687.441,940.344 713.959,951.344 746.008,964.066 778.057,976.189 811.462,988.22 844.867,999.661 871.567,1008.4 898.267,1016.8 930.975,1026.64 963.682,1036 996.874,1045.05 1030.07,1053.65 1089.13,1067.94 1143.23,1079.96 1216.25,1094.71 1271.5,1104.84 1329.15,1114.56 1396.84,1124.94 1452.21,1132.68 1515.45,1140.77 1573.57,1147.55 1644.03,1155.02 1702.03,1160.6 1768.32,1166.41 1819.98,1170.55 1885.93,1175.4 1997.78,1182.59 2009.41,1183.27 "/>
<polyline clip-path="url(#clip452)" style="stroke:#c271d2; stroke-linecap:round; stroke-linejoin:round; stroke-width:4; stroke-opacity:1; fill:none" points="164.64,906.729 174.685,909.167 184.73,911.587 239.359,924.423 293.988,936.728 323.981,943.266 353.973,949.654 383.993,955.902 414.014,962.006 474.302,973.844 530.248,984.347 590.82,995.217 660.923,1007.18 713.959,1015.81 778.057,1025.77 844.867,1035.65 898.267,1043.18 963.682,1052 1030.07,1060.5 1089.13,1067.7 1143.23,1074.02 1216.25,1082.14 1271.5,1087.98 1329.15,1093.82 1396.84,1100.35 1452.21,1105.45 1515.45,1111 1573.57,1115.88 1644.03,1121.5 1702.03,1125.9 1768.32,1130.7 1819.98,1134.27 1885.93,1138.62 1997.78,1145.52 2009.41,1146.21 "/>
<path clip-path="url(#clip450)" d="M174.479 346.022 L415.781 346.022 L415.781 86.8219 L174.479 86.8219  Z" fill="#ffffff" fill-rule="evenodd" fill-opacity="1"/>
<polyline clip-path="url(#clip450)" style="stroke:#000000; stroke-linecap:round; stroke-linejoin:round; stroke-width:4; stroke-opacity:1; fill:none" points="174.479,346.022 415.781,346.022 415.781,86.8219 174.479,86.8219 174.479,346.022 "/>
<polyline clip-path="url(#clip450)" style="stroke:#009af9; stroke-linecap:round; stroke-linejoin:round; stroke-width:4; stroke-opacity:1; fill:none" points="196.206,138.662 326.57,138.662 "/>
<path clip-path="url(#clip450)" d="M348.298 159.813 Q348.298 158.946 348.368 158.689 Q348.462 158.431 348.836 158.033 L358.041 147.774 Q363.077 142.106 363.077 137.164 Q363.077 133.955 361.391 131.659 Q359.728 129.364 356.66 129.364 Q354.551 129.364 352.771 130.652 Q350.991 131.94 350.171 134.236 Q350.312 134.189 350.804 134.189 Q351.998 134.189 352.654 134.938 Q353.334 135.688 353.334 136.695 Q353.334 137.983 352.49 138.616 Q351.671 139.225 350.851 139.225 Q350.523 139.225 350.078 139.154 Q349.656 139.084 348.977 138.428 Q348.298 137.749 348.298 136.555 Q348.298 133.205 350.827 130.535 Q353.38 127.865 357.268 127.865 Q361.672 127.865 364.553 130.488 Q367.457 133.088 367.457 137.164 Q367.457 138.592 367.012 139.904 Q366.591 141.192 366.005 142.199 Q365.443 143.207 363.897 144.823 Q362.351 146.439 361.11 147.587 Q359.868 148.734 357.081 151.17 L351.998 156.112 L360.641 156.112 Q364.857 156.112 365.185 155.738 Q365.654 155.058 366.239 151.475 L367.457 151.475 L366.099 159.813 L348.298 159.813 Z" fill="#000000" fill-rule="nonzero" fill-opacity="1" /><path clip-path="url(#clip450)" d="M389.103 119.583 Q389.103 120.502 388.529 121.026 Q387.955 121.535 387.299 121.535 Q386.676 121.535 386.348 121.174 Q386.02 120.813 386.02 120.354 Q386.02 119.731 386.479 119.19 Q386.938 118.649 387.627 118.534 Q386.955 118.108 385.955 118.108 Q385.299 118.108 384.725 118.452 Q384.167 118.796 383.823 119.239 Q383.495 119.682 383.2 120.321 Q382.921 120.944 382.807 121.321 Q382.708 121.682 382.626 122.076 L381.479 126.666 Q380.921 128.847 380.921 129.618 Q380.921 130.569 381.38 131.208 Q381.839 131.831 382.757 131.831 Q383.118 131.831 383.528 131.733 Q383.938 131.618 384.463 131.323 Q385.004 131.011 385.479 130.552 Q385.971 130.077 386.446 129.273 Q386.922 128.47 387.233 127.437 Q387.332 127.076 387.66 127.076 Q388.07 127.076 388.07 127.404 Q388.07 127.683 387.84 128.273 Q387.627 128.847 387.151 129.601 Q386.692 130.339 386.086 131.011 Q385.479 131.667 384.577 132.126 Q383.676 132.585 382.692 132.585 Q381.282 132.585 380.347 131.831 Q379.413 131.077 379.068 130.028 Q378.986 130.175 378.872 130.372 Q378.757 130.569 378.413 131.011 Q378.085 131.438 377.708 131.765 Q377.33 132.077 376.74 132.323 Q376.166 132.585 375.543 132.585 Q374.756 132.585 374.051 132.356 Q373.363 132.126 372.871 131.602 Q372.379 131.077 372.379 130.355 Q372.379 129.552 372.92 128.995 Q373.477 128.421 374.232 128.421 Q374.707 128.421 375.084 128.699 Q375.478 128.978 375.478 129.585 Q375.478 130.257 375.019 130.765 Q374.56 131.274 373.904 131.405 Q374.576 131.831 375.576 131.831 Q376.658 131.831 377.511 130.88 Q378.363 129.929 378.773 128.339 Q379.79 124.519 380.183 122.813 Q380.577 121.092 380.577 120.354 Q380.577 119.665 380.396 119.19 Q380.216 118.714 379.905 118.501 Q379.609 118.272 379.331 118.19 Q379.068 118.108 378.773 118.108 Q378.281 118.108 377.724 118.305 Q377.183 118.501 376.527 118.96 Q375.888 119.403 375.281 120.321 Q374.674 121.239 374.264 122.502 Q374.182 122.879 373.822 122.879 Q373.428 122.863 373.428 122.535 Q373.428 122.256 373.641 121.682 Q373.871 121.092 374.33 120.354 Q374.806 119.616 375.412 118.96 Q376.035 118.288 376.937 117.829 Q377.855 117.37 378.839 117.37 Q379.282 117.37 379.708 117.468 Q380.151 117.55 380.675 117.796 Q381.216 118.042 381.692 118.583 Q382.167 119.124 382.462 119.911 Q382.659 119.534 382.921 119.174 Q383.2 118.813 383.626 118.37 Q384.069 117.911 384.676 117.649 Q385.299 117.37 385.987 117.37 Q386.66 117.37 387.315 117.55 Q387.971 117.714 388.529 118.255 Q389.103 118.78 389.103 119.583 Z" fill="#000000" fill-rule="nonzero" fill-opacity="1" /><polyline clip-path="url(#clip450)" style="stroke:#e26f46; stroke-linecap:round; stroke-linejoin:round; stroke-width:4; stroke-opacity:1; fill:none" points="196.206,190.502 326.57,190.502 "/>
<path clip-path="url(#clip450)" d="M366.544 200.513 Q366.731 200.723 366.731 200.934 Q366.731 201.145 366.263 201.754 Q365.818 202.363 364.857 203.183 Q363.897 204.003 362.656 204.775 Q361.414 205.548 359.587 206.064 Q357.76 206.602 355.84 206.602 Q352.397 206.602 350.335 204.143 Q348.298 201.684 348.298 197.913 Q348.298 195.5 349.094 193.369 Q349.89 191.214 351.179 189.691 Q352.49 188.169 354.13 187.068 Q355.793 185.944 357.526 185.405 Q359.259 184.866 360.876 184.866 Q363.241 184.866 364.623 186.061 Q366.005 187.255 366.005 188.942 Q366.005 189.34 365.888 189.832 Q365.794 190.324 365.466 191.097 Q365.162 191.87 364.365 192.643 Q363.569 193.392 362.398 193.884 Q359.798 194.985 355.067 194.985 L352.514 194.985 Q351.764 198.006 351.764 199.974 Q351.764 200.747 351.905 201.543 Q352.045 202.316 352.42 203.3 Q352.818 204.284 353.708 204.916 Q354.622 205.525 355.933 205.525 Q356.355 205.525 356.8 205.502 Q357.268 205.478 358.44 205.22 Q359.634 204.963 360.688 204.518 Q361.742 204.073 363.077 203.112 Q364.436 202.129 365.513 200.794 Q365.888 200.302 366.146 200.302 Q366.356 200.302 366.544 200.513 M364.412 188.942 Q364.412 187.654 363.452 186.787 Q362.515 185.92 360.876 185.92 Q360.36 185.92 359.728 186.037 Q359.095 186.155 358.041 186.646 Q357.011 187.138 356.097 187.958 Q355.184 188.754 354.27 190.324 Q353.357 191.87 352.818 193.931 L354.786 193.931 Q355.465 193.931 355.957 193.931 Q356.449 193.907 357.526 193.814 Q358.627 193.72 359.423 193.556 Q360.22 193.369 361.227 192.994 Q362.234 192.619 362.866 192.127 Q363.522 191.612 363.967 190.792 Q364.412 189.972 364.412 188.942 Z" fill="#000000" fill-rule="nonzero" fill-opacity="1" /><path clip-path="url(#clip450)" d="M388.388 176.477 Q388.388 177.395 387.814 177.919 Q387.24 178.428 386.584 178.428 Q385.961 178.428 385.633 178.067 Q385.305 177.706 385.305 177.247 Q385.305 176.624 385.764 176.083 Q386.223 175.542 386.912 175.427 Q386.24 175.001 385.24 175.001 Q384.584 175.001 384.01 175.345 Q383.452 175.69 383.108 176.132 Q382.78 176.575 382.485 177.214 Q382.206 177.837 382.092 178.215 Q381.993 178.575 381.911 178.969 L380.764 183.56 Q380.206 185.74 380.206 186.511 Q380.206 187.462 380.665 188.101 Q381.124 188.724 382.042 188.724 Q382.403 188.724 382.813 188.626 Q383.223 188.511 383.748 188.216 Q384.289 187.904 384.764 187.445 Q385.256 186.97 385.731 186.166 Q386.207 185.363 386.518 184.33 Q386.617 183.969 386.945 183.969 Q387.355 183.969 387.355 184.297 Q387.355 184.576 387.125 185.166 Q386.912 185.74 386.436 186.494 Q385.977 187.232 385.371 187.904 Q384.764 188.56 383.862 189.019 Q382.961 189.478 381.977 189.478 Q380.567 189.478 379.632 188.724 Q378.698 187.97 378.353 186.921 Q378.271 187.068 378.157 187.265 Q378.042 187.462 377.698 187.904 Q377.37 188.331 376.993 188.659 Q376.615 188.97 376.025 189.216 Q375.451 189.478 374.828 189.478 Q374.041 189.478 373.336 189.249 Q372.648 189.019 372.156 188.495 Q371.664 187.97 371.664 187.249 Q371.664 186.445 372.205 185.888 Q372.762 185.314 373.517 185.314 Q373.992 185.314 374.369 185.593 Q374.763 185.871 374.763 186.478 Q374.763 187.15 374.304 187.658 Q373.845 188.167 373.189 188.298 Q373.861 188.724 374.861 188.724 Q375.943 188.724 376.796 187.773 Q377.648 186.822 378.058 185.232 Q379.075 181.412 379.468 179.707 Q379.862 177.985 379.862 177.247 Q379.862 176.559 379.681 176.083 Q379.501 175.608 379.19 175.394 Q378.894 175.165 378.616 175.083 Q378.353 175.001 378.058 175.001 Q377.566 175.001 377.009 175.198 Q376.468 175.394 375.812 175.854 Q375.173 176.296 374.566 177.214 Q373.959 178.133 373.549 179.395 Q373.467 179.772 373.107 179.772 Q372.713 179.756 372.713 179.428 Q372.713 179.149 372.926 178.575 Q373.156 177.985 373.615 177.247 Q374.091 176.509 374.697 175.854 Q375.32 175.181 376.222 174.722 Q377.14 174.263 378.124 174.263 Q378.567 174.263 378.993 174.362 Q379.436 174.444 379.96 174.689 Q380.501 174.935 380.977 175.476 Q381.452 176.017 381.747 176.804 Q381.944 176.427 382.206 176.067 Q382.485 175.706 382.911 175.263 Q383.354 174.804 383.961 174.542 Q384.584 174.263 385.272 174.263 Q385.945 174.263 386.6 174.444 Q387.256 174.607 387.814 175.149 Q388.388 175.673 388.388 176.477 Z" fill="#000000" fill-rule="nonzero" fill-opacity="1" /><polyline clip-path="url(#clip450)" style="stroke:#3da44d; stroke-linecap:round; stroke-linejoin:round; stroke-width:4; stroke-opacity:1; fill:none" points="196.206,242.342 326.57,242.342 "/>
<path clip-path="url(#clip450)" d="M348.298 263.493 Q348.298 262.626 348.368 262.369 Q348.462 262.111 348.836 261.713 L358.041 251.454 Q363.077 245.786 363.077 240.844 Q363.077 237.635 361.391 235.339 Q359.728 233.044 356.66 233.044 Q354.551 233.044 352.771 234.332 Q350.991 235.62 350.171 237.916 Q350.312 237.869 350.804 237.869 Q351.998 237.869 352.654 238.618 Q353.334 239.368 353.334 240.375 Q353.334 241.663 352.49 242.296 Q351.671 242.905 350.851 242.905 Q350.523 242.905 350.078 242.834 Q349.656 242.764 348.977 242.108 Q348.298 241.429 348.298 240.235 Q348.298 236.885 350.827 234.215 Q353.38 231.545 357.268 231.545 Q361.672 231.545 364.553 234.168 Q367.457 236.768 367.457 240.844 Q367.457 242.272 367.012 243.584 Q366.591 244.872 366.005 245.879 Q365.443 246.887 363.897 248.503 Q362.351 250.119 361.11 251.267 Q359.868 252.414 357.081 254.85 L351.998 259.792 L360.641 259.792 Q364.857 259.792 365.185 259.418 Q365.654 258.738 366.239 255.155 L367.457 255.155 L366.099 263.493 L348.298 263.493 Z" fill="#000000" fill-rule="nonzero" fill-opacity="1" /><path clip-path="url(#clip450)" d="M389.103 223.263 Q389.103 224.182 388.529 224.706 Q387.955 225.215 387.299 225.215 Q386.676 225.215 386.348 224.854 Q386.02 224.493 386.02 224.034 Q386.02 223.411 386.479 222.87 Q386.938 222.329 387.627 222.214 Q386.955 221.788 385.955 221.788 Q385.299 221.788 384.725 222.132 Q384.167 222.476 383.823 222.919 Q383.495 223.362 383.2 224.001 Q382.921 224.624 382.807 225.001 Q382.708 225.362 382.626 225.756 L381.479 230.346 Q380.921 232.527 380.921 233.298 Q380.921 234.249 381.38 234.888 Q381.839 235.511 382.757 235.511 Q383.118 235.511 383.528 235.413 Q383.938 235.298 384.463 235.003 Q385.004 234.691 385.479 234.232 Q385.971 233.757 386.446 232.953 Q386.922 232.15 387.233 231.117 Q387.332 230.756 387.66 230.756 Q388.07 230.756 388.07 231.084 Q388.07 231.363 387.84 231.953 Q387.627 232.527 387.151 233.281 Q386.692 234.019 386.086 234.691 Q385.479 235.347 384.577 235.806 Q383.676 236.265 382.692 236.265 Q381.282 236.265 380.347 235.511 Q379.413 234.757 379.068 233.708 Q378.986 233.855 378.872 234.052 Q378.757 234.249 378.413 234.691 Q378.085 235.118 377.708 235.445 Q377.33 235.757 376.74 236.003 Q376.166 236.265 375.543 236.265 Q374.756 236.265 374.051 236.036 Q373.363 235.806 372.871 235.282 Q372.379 234.757 372.379 234.035 Q372.379 233.232 372.92 232.675 Q373.477 232.101 374.232 232.101 Q374.707 232.101 375.084 232.379 Q375.478 232.658 375.478 233.265 Q375.478 233.937 375.019 234.445 Q374.56 234.954 373.904 235.085 Q374.576 235.511 375.576 235.511 Q376.658 235.511 377.511 234.56 Q378.363 233.609 378.773 232.019 Q379.79 228.199 380.183 226.493 Q380.577 224.772 380.577 224.034 Q380.577 223.345 380.396 222.87 Q380.216 222.394 379.905 222.181 Q379.609 221.952 379.331 221.87 Q379.068 221.788 378.773 221.788 Q378.281 221.788 377.724 221.985 Q377.183 222.181 376.527 222.64 Q375.888 223.083 375.281 224.001 Q374.674 224.919 374.264 226.182 Q374.182 226.559 373.822 226.559 Q373.428 226.543 373.428 226.215 Q373.428 225.936 373.641 225.362 Q373.871 224.772 374.33 224.034 Q374.806 223.296 375.412 222.64 Q376.035 221.968 376.937 221.509 Q377.855 221.05 378.839 221.05 Q379.282 221.05 379.708 221.148 Q380.151 221.23 380.675 221.476 Q381.216 221.722 381.692 222.263 Q382.167 222.804 382.462 223.591 Q382.659 223.214 382.921 222.854 Q383.2 222.493 383.626 222.05 Q384.069 221.591 384.676 221.329 Q385.299 221.05 385.987 221.05 Q386.66 221.05 387.315 221.23 Q387.971 221.394 388.529 221.935 Q389.103 222.46 389.103 223.263 Z" fill="#000000" fill-rule="nonzero" fill-opacity="1" /><polyline clip-path="url(#clip450)" style="stroke:#c271d2; stroke-linecap:round; stroke-linejoin:round; stroke-width:4; stroke-opacity:1; fill:none" points="196.206,294.182 326.57,294.182 "/>
<path clip-path="url(#clip450)" d="M348.298 315.333 Q348.298 314.466 348.368 314.209 Q348.462 313.951 348.836 313.553 L358.041 303.294 Q363.077 297.626 363.077 292.684 Q363.077 289.475 361.391 287.179 Q359.728 284.884 356.66 284.884 Q354.551 284.884 352.771 286.172 Q350.991 287.46 350.171 289.756 Q350.312 289.709 350.804 289.709 Q351.998 289.709 352.654 290.458 Q353.334 291.208 353.334 292.215 Q353.334 293.503 352.49 294.136 Q351.671 294.745 350.851 294.745 Q350.523 294.745 350.078 294.674 Q349.656 294.604 348.977 293.948 Q348.298 293.269 348.298 292.075 Q348.298 288.725 350.827 286.055 Q353.38 283.385 357.268 283.385 Q361.672 283.385 364.553 286.008 Q367.457 288.608 367.457 292.684 Q367.457 294.112 367.012 295.424 Q366.591 296.712 366.005 297.719 Q365.443 298.727 363.897 300.343 Q362.351 301.959 361.11 303.107 Q359.868 304.254 357.081 306.69 L351.998 311.632 L360.641 311.632 Q364.857 311.632 365.185 311.258 Q365.654 310.578 366.239 306.995 L367.457 306.995 L366.099 315.333 L348.298 315.333 Z" fill="#000000" fill-rule="nonzero" fill-opacity="1" /><path clip-path="url(#clip450)" d="M389.103 275.103 Q389.103 276.022 388.529 276.546 Q387.955 277.055 387.299 277.055 Q386.676 277.055 386.348 276.694 Q386.02 276.333 386.02 275.874 Q386.02 275.251 386.479 274.71 Q386.938 274.169 387.627 274.054 Q386.955 273.628 385.955 273.628 Q385.299 273.628 384.725 273.972 Q384.167 274.316 383.823 274.759 Q383.495 275.202 383.2 275.841 Q382.921 276.464 382.807 276.841 Q382.708 277.202 382.626 277.596 L381.479 282.186 Q380.921 284.367 380.921 285.138 Q380.921 286.089 381.38 286.728 Q381.839 287.351 382.757 287.351 Q383.118 287.351 383.528 287.253 Q383.938 287.138 384.463 286.843 Q385.004 286.531 385.479 286.072 Q385.971 285.597 386.446 284.793 Q386.922 283.99 387.233 282.957 Q387.332 282.596 387.66 282.596 Q388.07 282.596 388.07 282.924 Q388.07 283.203 387.84 283.793 Q387.627 284.367 387.151 285.121 Q386.692 285.859 386.086 286.531 Q385.479 287.187 384.577 287.646 Q383.676 288.105 382.692 288.105 Q381.282 288.105 380.347 287.351 Q379.413 286.597 379.068 285.548 Q378.986 285.695 378.872 285.892 Q378.757 286.089 378.413 286.531 Q378.085 286.958 377.708 287.285 Q377.33 287.597 376.74 287.843 Q376.166 288.105 375.543 288.105 Q374.756 288.105 374.051 287.876 Q373.363 287.646 372.871 287.122 Q372.379 286.597 372.379 285.875 Q372.379 285.072 372.92 284.515 Q373.477 283.941 374.232 283.941 Q374.707 283.941 375.084 284.219 Q375.478 284.498 375.478 285.105 Q375.478 285.777 375.019 286.285 Q374.56 286.794 373.904 286.925 Q374.576 287.351 375.576 287.351 Q376.658 287.351 377.511 286.4 Q378.363 285.449 378.773 283.859 Q379.79 280.039 380.183 278.333 Q380.577 276.612 380.577 275.874 Q380.577 275.185 380.396 274.71 Q380.216 274.234 379.905 274.021 Q379.609 273.792 379.331 273.71 Q379.068 273.628 378.773 273.628 Q378.281 273.628 377.724 273.825 Q377.183 274.021 376.527 274.48 Q375.888 274.923 375.281 275.841 Q374.674 276.759 374.264 278.022 Q374.182 278.399 373.822 278.399 Q373.428 278.383 373.428 278.055 Q373.428 277.776 373.641 277.202 Q373.871 276.612 374.33 275.874 Q374.806 275.136 375.412 274.48 Q376.035 273.808 376.937 273.349 Q377.855 272.89 378.839 272.89 Q379.282 272.89 379.708 272.988 Q380.151 273.07 380.675 273.316 Q381.216 273.562 381.692 274.103 Q382.167 274.644 382.462 275.431 Q382.659 275.054 382.921 274.694 Q383.2 274.333 383.626 273.89 Q384.069 273.431 384.676 273.169 Q385.299 272.89 385.987 272.89 Q386.66 272.89 387.315 273.07 Q387.971 273.234 388.529 273.775 Q389.103 274.3 389.103 275.103 Z" fill="#000000" fill-rule="nonzero" fill-opacity="1" /></svg>
