<?xml version="1.0" encoding="utf-8"?>
<svg xmlns="http://www.w3.org/2000/svg" xmlns:xlink="http://www.w3.org/1999/xlink" width="528" height="336" viewBox="0 0 2112 1344">
<defs>
  <clipPath id="clip250">
    <rect x="0" y="0" width="2112" height="1344"/>
  </clipPath>
</defs>
<path clip-path="url(#clip250)" d="M0 1344 L2112 1344 L2112 0 L0 0  Z" fill="#ffffff" fill-rule="evenodd" fill-opacity="1"/>
<defs>
  <clipPath id="clip251">
    <rect x="422" y="0" width="1479" height="1344"/>
  </clipPath>
</defs>
<path clip-path="url(#clip250)" d="M191.056 1234.58 L2064.76 1234.58 L2064.76 47.2441 L191.056 47.2441  Z" fill="#ffffff" fill-rule="evenodd" fill-opacity="1"/>
<defs>
  <clipPath id="clip252">
    <rect x="191" y="47" width="1875" height="1188"/>
  </clipPath>
</defs>
<polyline clip-path="url(#clip252)" style="stroke:#000000; stroke-linecap:round; stroke-linejoin:round; stroke-width:2; stroke-opacity:0.1; fill:none" points="287.784,1234.58 287.784,47.2441 "/>
<polyline clip-path="url(#clip252)" style="stroke:#000000; stroke-linecap:round; stroke-linejoin:round; stroke-width:2; stroke-opacity:0.1; fill:none" points="567.825,1234.58 567.825,47.2441 "/>
<polyline clip-path="url(#clip252)" style="stroke:#000000; stroke-linecap:round; stroke-linejoin:round; stroke-width:2; stroke-opacity:0.1; fill:none" points="847.865,1234.58 847.865,47.2441 "/>
<polyline clip-path="url(#clip252)" style="stroke:#000000; stroke-linecap:round; stroke-linejoin:round; stroke-width:2; stroke-opacity:0.1; fill:none" points="1127.91,1234.58 1127.91,47.2441 "/>
<polyline clip-path="url(#clip252)" style="stroke:#000000; stroke-linecap:round; stroke-linejoin:round; stroke-width:2; stroke-opacity:0.1; fill:none" points="1407.95,1234.58 1407.95,47.2441 "/>
<polyline clip-path="url(#clip252)" style="stroke:#000000; stroke-linecap:round; stroke-linejoin:round; stroke-width:2; stroke-opacity:0.1; fill:none" points="1687.99,1234.58 1687.99,47.2441 "/>
<polyline clip-path="url(#clip252)" style="stroke:#000000; stroke-linecap:round; stroke-linejoin:round; stroke-width:2; stroke-opacity:0.1; fill:none" points="1968.03,1234.58 1968.03,47.2441 "/>
<polyline clip-path="url(#clip252)" style="stroke:#000000; stroke-linecap:round; stroke-linejoin:round; stroke-width:2; stroke-opacity:0.1; fill:none" points="191.056,1200.99 2064.76,1200.99 "/>
<polyline clip-path="url(#clip252)" style="stroke:#000000; stroke-linecap:round; stroke-linejoin:round; stroke-width:2; stroke-opacity:0.1; fill:none" points="191.056,920.952 2064.76,920.952 "/>
<polyline clip-path="url(#clip252)" style="stroke:#000000; stroke-linecap:round; stroke-linejoin:round; stroke-width:2; stroke-opacity:0.1; fill:none" points="191.056,640.911 2064.76,640.911 "/>
<polyline clip-path="url(#clip252)" style="stroke:#000000; stroke-linecap:round; stroke-linejoin:round; stroke-width:2; stroke-opacity:0.1; fill:none" points="191.056,360.871 2064.76,360.871 "/>
<polyline clip-path="url(#clip252)" style="stroke:#000000; stroke-linecap:round; stroke-linejoin:round; stroke-width:2; stroke-opacity:0.1; fill:none" points="191.056,80.8305 2064.76,80.8305 "/>
<polyline clip-path="url(#clip250)" style="stroke:#000000; stroke-linecap:round; stroke-linejoin:round; stroke-width:4; stroke-opacity:1; fill:none" points="191.056,1234.58 2064.76,1234.58 "/>
<polyline clip-path="url(#clip250)" style="stroke:#000000; stroke-linecap:round; stroke-linejoin:round; stroke-width:4; stroke-opacity:1; fill:none" points="287.784,1234.58 287.784,1215.68 "/>
<polyline clip-path="url(#clip250)" style="stroke:#000000; stroke-linecap:round; stroke-linejoin:round; stroke-width:4; stroke-opacity:1; fill:none" points="567.825,1234.58 567.825,1215.68 "/>
<polyline clip-path="url(#clip250)" style="stroke:#000000; stroke-linecap:round; stroke-linejoin:round; stroke-width:4; stroke-opacity:1; fill:none" points="847.865,1234.58 847.865,1215.68 "/>
<polyline clip-path="url(#clip250)" style="stroke:#000000; stroke-linecap:round; stroke-linejoin:round; stroke-width:4; stroke-opacity:1; fill:none" points="1127.91,1234.58 1127.91,1215.68 "/>
<polyline clip-path="url(#clip250)" style="stroke:#000000; stroke-linecap:round; stroke-linejoin:round; stroke-width:4; stroke-opacity:1; fill:none" points="1407.95,1234.58 1407.95,1215.68 "/>
<polyline clip-path="url(#clip250)" style="stroke:#000000; stroke-linecap:round; stroke-linejoin:round; stroke-width:4; stroke-opacity:1; fill:none" points="1687.99,1234.58 1687.99,1215.68 "/>
<polyline clip-path="url(#clip250)" style="stroke:#000000; stroke-linecap:round; stroke-linejoin:round; stroke-width:4; stroke-opacity:1; fill:none" points="1968.03,1234.58 1968.03,1215.68 "/>
<path clip-path="url(#clip250)" d="M234.81 1277.85 L264.486 1277.85 L264.486 1281.78 L234.81 1281.78 L234.81 1277.85 Z" fill="#000000" fill-rule="nonzero" fill-opacity="1" /><path clip-path="url(#clip250)" d="M275.389 1290.74 L283.028 1290.74 L283.028 1264.37 L274.717 1266.04 L274.717 1261.78 L282.981 1260.11 L287.657 1260.11 L287.657 1290.74 L295.296 1290.74 L295.296 1294.67 L275.389 1294.67 L275.389 1290.74 Z" fill="#000000" fill-rule="nonzero" fill-opacity="1" /><path clip-path="url(#clip250)" d="M304.74 1288.8 L309.625 1288.8 L309.625 1294.67 L304.74 1294.67 L304.74 1288.8 Z" fill="#000000" fill-rule="nonzero" fill-opacity="1" /><path clip-path="url(#clip250)" d="M319.856 1260.11 L338.212 1260.11 L338.212 1264.05 L324.138 1264.05 L324.138 1272.52 Q325.157 1272.17 326.175 1272.01 Q327.194 1271.83 328.213 1271.83 Q334 1271.83 337.379 1275 Q340.759 1278.17 340.759 1283.59 Q340.759 1289.17 337.287 1292.27 Q333.814 1295.35 327.495 1295.35 Q325.319 1295.35 323.05 1294.98 Q320.805 1294.61 318.398 1293.86 L318.398 1289.17 Q320.481 1290.3 322.703 1290.86 Q324.925 1291.41 327.402 1291.41 Q331.407 1291.41 333.745 1289.3 Q336.083 1287.2 336.083 1283.59 Q336.083 1279.98 333.745 1277.87 Q331.407 1275.76 327.402 1275.76 Q325.527 1275.76 323.652 1276.18 Q321.801 1276.6 319.856 1277.48 L319.856 1260.11 Z" fill="#000000" fill-rule="nonzero" fill-opacity="1" /><path clip-path="url(#clip250)" d="M514.353 1277.85 L544.029 1277.85 L544.029 1281.78 L514.353 1281.78 L514.353 1277.85 Z" fill="#000000" fill-rule="nonzero" fill-opacity="1" /><path clip-path="url(#clip250)" d="M554.932 1290.74 L562.57 1290.74 L562.57 1264.37 L554.26 1266.04 L554.26 1261.78 L562.524 1260.11 L567.2 1260.11 L567.2 1290.74 L574.839 1290.74 L574.839 1294.67 L554.932 1294.67 L554.932 1290.74 Z" fill="#000000" fill-rule="nonzero" fill-opacity="1" /><path clip-path="url(#clip250)" d="M584.283 1288.8 L589.167 1288.8 L589.167 1294.67 L584.283 1294.67 L584.283 1288.8 Z" fill="#000000" fill-rule="nonzero" fill-opacity="1" /><path clip-path="url(#clip250)" d="M609.353 1263.19 Q605.741 1263.19 603.913 1266.76 Q602.107 1270.3 602.107 1277.43 Q602.107 1284.54 603.913 1288.1 Q605.741 1291.64 609.353 1291.64 Q612.987 1291.64 614.792 1288.1 Q616.621 1284.54 616.621 1277.43 Q616.621 1270.3 614.792 1266.76 Q612.987 1263.19 609.353 1263.19 M609.353 1259.49 Q615.163 1259.49 618.218 1264.1 Q621.297 1268.68 621.297 1277.43 Q621.297 1286.16 618.218 1290.76 Q615.163 1295.35 609.353 1295.35 Q603.542 1295.35 600.464 1290.76 Q597.408 1286.16 597.408 1277.43 Q597.408 1268.68 600.464 1264.1 Q603.542 1259.49 609.353 1259.49 Z" fill="#000000" fill-rule="nonzero" fill-opacity="1" /><path clip-path="url(#clip250)" d="M794.891 1277.85 L824.567 1277.85 L824.567 1281.78 L794.891 1281.78 L794.891 1277.85 Z" fill="#000000" fill-rule="nonzero" fill-opacity="1" /><path clip-path="url(#clip250)" d="M844.659 1263.19 Q841.048 1263.19 839.22 1266.76 Q837.414 1270.3 837.414 1277.43 Q837.414 1284.54 839.22 1288.1 Q841.048 1291.64 844.659 1291.64 Q848.294 1291.64 850.099 1288.1 Q851.928 1284.54 851.928 1277.43 Q851.928 1270.3 850.099 1266.76 Q848.294 1263.19 844.659 1263.19 M844.659 1259.49 Q850.47 1259.49 853.525 1264.1 Q856.604 1268.68 856.604 1277.43 Q856.604 1286.16 853.525 1290.76 Q850.47 1295.35 844.659 1295.35 Q838.849 1295.35 835.771 1290.76 Q832.715 1286.16 832.715 1277.43 Q832.715 1268.68 835.771 1264.1 Q838.849 1259.49 844.659 1259.49 Z" fill="#000000" fill-rule="nonzero" fill-opacity="1" /><path clip-path="url(#clip250)" d="M864.821 1288.8 L869.706 1288.8 L869.706 1294.67 L864.821 1294.67 L864.821 1288.8 Z" fill="#000000" fill-rule="nonzero" fill-opacity="1" /><path clip-path="url(#clip250)" d="M879.937 1260.11 L898.293 1260.11 L898.293 1264.05 L884.219 1264.05 L884.219 1272.52 Q885.238 1272.17 886.256 1272.01 Q887.275 1271.83 888.293 1271.83 Q894.08 1271.83 897.46 1275 Q900.84 1278.17 900.84 1283.59 Q900.84 1289.17 897.368 1292.27 Q893.895 1295.35 887.576 1295.35 Q885.4 1295.35 883.131 1294.98 Q880.886 1294.61 878.479 1293.86 L878.479 1289.17 Q880.562 1290.3 882.784 1290.86 Q885.006 1291.41 887.483 1291.41 Q891.488 1291.41 893.826 1289.3 Q896.164 1287.2 896.164 1283.59 Q896.164 1279.98 893.826 1277.87 Q891.488 1275.76 887.483 1275.76 Q885.608 1275.76 883.733 1276.18 Q881.881 1276.6 879.937 1277.48 L879.937 1260.11 Z" fill="#000000" fill-rule="nonzero" fill-opacity="1" /><path clip-path="url(#clip250)" d="M1105.29 1263.19 Q1101.68 1263.19 1099.85 1266.76 Q1098.05 1270.3 1098.05 1277.43 Q1098.05 1284.54 1099.85 1288.1 Q1101.68 1291.64 1105.29 1291.64 Q1108.92 1291.64 1110.73 1288.1 Q1112.56 1284.54 1112.56 1277.43 Q1112.56 1270.3 1110.73 1266.76 Q1108.92 1263.19 1105.29 1263.19 M1105.29 1259.49 Q1111.1 1259.49 1114.16 1264.1 Q1117.23 1268.68 1117.23 1277.43 Q1117.23 1286.16 1114.16 1290.76 Q1111.1 1295.35 1105.29 1295.35 Q1099.48 1295.35 1096.4 1290.76 Q1093.35 1286.16 1093.35 1277.43 Q1093.35 1268.68 1096.4 1264.1 Q1099.48 1259.49 1105.29 1259.49 Z" fill="#000000" fill-rule="nonzero" fill-opacity="1" /><path clip-path="url(#clip250)" d="M1125.45 1288.8 L1130.34 1288.8 L1130.34 1294.67 L1125.45 1294.67 L1125.45 1288.8 Z" fill="#000000" fill-rule="nonzero" fill-opacity="1" /><path clip-path="url(#clip250)" d="M1150.52 1263.19 Q1146.91 1263.19 1145.08 1266.76 Q1143.28 1270.3 1143.28 1277.43 Q1143.28 1284.54 1145.08 1288.1 Q1146.91 1291.64 1150.52 1291.64 Q1154.16 1291.64 1155.96 1288.1 Q1157.79 1284.54 1157.79 1277.43 Q1157.79 1270.3 1155.96 1266.76 Q1154.16 1263.19 1150.52 1263.19 M1150.52 1259.49 Q1156.33 1259.49 1159.39 1264.1 Q1162.47 1268.68 1162.47 1277.43 Q1162.47 1286.16 1159.39 1290.76 Q1156.33 1295.35 1150.52 1295.35 Q1144.71 1295.35 1141.63 1290.76 Q1138.58 1286.16 1138.58 1277.43 Q1138.58 1268.68 1141.63 1264.1 Q1144.71 1259.49 1150.52 1259.49 Z" fill="#000000" fill-rule="nonzero" fill-opacity="1" /><path clip-path="url(#clip250)" d="M1385.83 1263.19 Q1382.22 1263.19 1380.39 1266.76 Q1378.58 1270.3 1378.58 1277.43 Q1378.58 1284.54 1380.39 1288.1 Q1382.22 1291.64 1385.83 1291.64 Q1389.46 1291.64 1391.27 1288.1 Q1393.1 1284.54 1393.1 1277.43 Q1393.1 1270.3 1391.27 1266.76 Q1389.46 1263.19 1385.83 1263.19 M1385.83 1259.49 Q1391.64 1259.49 1394.69 1264.1 Q1397.77 1268.68 1397.77 1277.43 Q1397.77 1286.16 1394.69 1290.76 Q1391.64 1295.35 1385.83 1295.35 Q1380.02 1295.35 1376.94 1290.76 Q1373.88 1286.16 1373.88 1277.43 Q1373.88 1268.68 1376.94 1264.1 Q1380.02 1259.49 1385.83 1259.49 Z" fill="#000000" fill-rule="nonzero" fill-opacity="1" /><path clip-path="url(#clip250)" d="M1405.99 1288.8 L1410.87 1288.8 L1410.87 1294.67 L1405.99 1294.67 L1405.99 1288.8 Z" fill="#000000" fill-rule="nonzero" fill-opacity="1" /><path clip-path="url(#clip250)" d="M1421.11 1260.11 L1439.46 1260.11 L1439.46 1264.05 L1425.39 1264.05 L1425.39 1272.52 Q1426.41 1272.17 1427.43 1272.01 Q1428.44 1271.83 1429.46 1271.83 Q1435.25 1271.83 1438.63 1275 Q1442.01 1278.17 1442.01 1283.59 Q1442.01 1289.17 1438.54 1292.27 Q1435.06 1295.35 1428.74 1295.35 Q1426.57 1295.35 1424.3 1294.98 Q1422.06 1294.61 1419.65 1293.86 L1419.65 1289.17 Q1421.73 1290.3 1423.95 1290.86 Q1426.18 1291.41 1428.65 1291.41 Q1432.66 1291.41 1434.99 1289.3 Q1437.33 1287.2 1437.33 1283.59 Q1437.33 1279.98 1434.99 1277.87 Q1432.66 1275.76 1428.65 1275.76 Q1426.78 1275.76 1424.9 1276.18 Q1423.05 1276.6 1421.11 1277.48 L1421.11 1260.11 Z" fill="#000000" fill-rule="nonzero" fill-opacity="1" /><path clip-path="url(#clip250)" d="M1655.14 1290.74 L1662.78 1290.74 L1662.78 1264.37 L1654.47 1266.04 L1654.47 1261.78 L1662.73 1260.11 L1667.41 1260.11 L1667.41 1290.74 L1675.05 1290.74 L1675.05 1294.67 L1655.14 1294.67 L1655.14 1290.74 Z" fill="#000000" fill-rule="nonzero" fill-opacity="1" /><path clip-path="url(#clip250)" d="M1684.49 1288.8 L1689.38 1288.8 L1689.38 1294.67 L1684.49 1294.67 L1684.49 1288.8 Z" fill="#000000" fill-rule="nonzero" fill-opacity="1" /><path clip-path="url(#clip250)" d="M1709.56 1263.19 Q1705.95 1263.19 1704.12 1266.76 Q1702.32 1270.3 1702.32 1277.43 Q1702.32 1284.54 1704.12 1288.1 Q1705.95 1291.64 1709.56 1291.64 Q1713.2 1291.64 1715 1288.1 Q1716.83 1284.54 1716.83 1277.43 Q1716.83 1270.3 1715 1266.76 Q1713.2 1263.19 1709.56 1263.19 M1709.56 1259.49 Q1715.37 1259.49 1718.43 1264.1 Q1721.51 1268.68 1721.51 1277.43 Q1721.51 1286.16 1718.43 1290.76 Q1715.37 1295.35 1709.56 1295.35 Q1703.75 1295.35 1700.67 1290.76 Q1697.62 1286.16 1697.62 1277.43 Q1697.62 1268.68 1700.67 1264.1 Q1703.75 1259.49 1709.56 1259.49 Z" fill="#000000" fill-rule="nonzero" fill-opacity="1" /><path clip-path="url(#clip250)" d="M1935.68 1290.74 L1943.32 1290.74 L1943.32 1264.37 L1935.01 1266.04 L1935.01 1261.78 L1943.27 1260.11 L1947.95 1260.11 L1947.95 1290.74 L1955.59 1290.74 L1955.59 1294.67 L1935.68 1294.67 L1935.68 1290.74 Z" fill="#000000" fill-rule="nonzero" fill-opacity="1" /><path clip-path="url(#clip250)" d="M1965.03 1288.8 L1969.91 1288.8 L1969.91 1294.67 L1965.03 1294.67 L1965.03 1288.8 Z" fill="#000000" fill-rule="nonzero" fill-opacity="1" /><path clip-path="url(#clip250)" d="M1980.15 1260.11 L1998.5 1260.11 L1998.5 1264.05 L1984.43 1264.05 L1984.43 1272.52 Q1985.45 1272.17 1986.46 1272.01 Q1987.48 1271.83 1988.5 1271.83 Q1994.29 1271.83 1997.67 1275 Q2001.05 1278.17 2001.05 1283.59 Q2001.05 1289.17 1997.58 1292.27 Q1994.1 1295.35 1987.78 1295.35 Q1985.61 1295.35 1983.34 1294.98 Q1981.09 1294.61 1978.69 1293.86 L1978.69 1289.17 Q1980.77 1290.3 1982.99 1290.86 Q1985.21 1291.41 1987.69 1291.41 Q1991.7 1291.41 1994.03 1289.3 Q1996.37 1287.2 1996.37 1283.59 Q1996.37 1279.98 1994.03 1277.87 Q1991.7 1275.76 1987.69 1275.76 Q1985.82 1275.76 1983.94 1276.18 Q1982.09 1276.6 1980.15 1277.48 L1980.15 1260.11 Z" fill="#000000" fill-rule="nonzero" fill-opacity="1" /><polyline clip-path="url(#clip250)" style="stroke:#000000; stroke-linecap:round; stroke-linejoin:round; stroke-width:4; stroke-opacity:1; fill:none" points="191.056,1234.58 191.056,47.2441 "/>
<polyline clip-path="url(#clip250)" style="stroke:#000000; stroke-linecap:round; stroke-linejoin:round; stroke-width:4; stroke-opacity:1; fill:none" points="191.056,1200.99 209.954,1200.99 "/>
<polyline clip-path="url(#clip250)" style="stroke:#000000; stroke-linecap:round; stroke-linejoin:round; stroke-width:4; stroke-opacity:1; fill:none" points="191.056,920.952 209.954,920.952 "/>
<polyline clip-path="url(#clip250)" style="stroke:#000000; stroke-linecap:round; stroke-linejoin:round; stroke-width:4; stroke-opacity:1; fill:none" points="191.056,640.911 209.954,640.911 "/>
<polyline clip-path="url(#clip250)" style="stroke:#000000; stroke-linecap:round; stroke-linejoin:round; stroke-width:4; stroke-opacity:1; fill:none" points="191.056,360.871 209.954,360.871 "/>
<polyline clip-path="url(#clip250)" style="stroke:#000000; stroke-linecap:round; stroke-linejoin:round; stroke-width:4; stroke-opacity:1; fill:none" points="191.056,80.8305 209.954,80.8305 "/>
<path clip-path="url(#clip250)" d="M52.4321 1201.44 L82.1079 1201.44 L82.1079 1205.38 L52.4321 1205.38 L52.4321 1201.44 Z" fill="#000000" fill-rule="nonzero" fill-opacity="1" /><path clip-path="url(#clip250)" d="M93.0106 1214.34 L100.649 1214.34 L100.649 1187.97 L92.3393 1189.64 L92.3393 1185.38 L100.603 1183.71 L105.279 1183.71 L105.279 1214.34 L112.918 1214.34 L112.918 1218.27 L93.0106 1218.27 L93.0106 1214.34 Z" fill="#000000" fill-rule="nonzero" fill-opacity="1" /><path clip-path="url(#clip250)" d="M122.362 1212.39 L127.247 1212.39 L127.247 1218.27 L122.362 1218.27 L122.362 1212.39 Z" fill="#000000" fill-rule="nonzero" fill-opacity="1" /><path clip-path="url(#clip250)" d="M147.432 1186.79 Q143.821 1186.79 141.992 1190.36 Q140.186 1193.9 140.186 1201.03 Q140.186 1208.13 141.992 1211.7 Q143.821 1215.24 147.432 1215.24 Q151.066 1215.24 152.871 1211.7 Q154.7 1208.13 154.7 1201.03 Q154.7 1193.9 152.871 1190.36 Q151.066 1186.79 147.432 1186.79 M147.432 1183.09 Q153.242 1183.09 156.297 1187.69 Q159.376 1192.28 159.376 1201.03 Q159.376 1209.75 156.297 1214.36 Q153.242 1218.94 147.432 1218.94 Q141.621 1218.94 138.543 1214.36 Q135.487 1209.75 135.487 1201.03 Q135.487 1192.28 138.543 1187.69 Q141.621 1183.09 147.432 1183.09 Z" fill="#000000" fill-rule="nonzero" fill-opacity="1" /><path clip-path="url(#clip250)" d="M53.4275 921.403 L83.1033 921.403 L83.1033 925.338 L53.4275 925.338 L53.4275 921.403 Z" fill="#000000" fill-rule="nonzero" fill-opacity="1" /><path clip-path="url(#clip250)" d="M103.196 906.751 Q99.5847 906.751 97.756 910.315 Q95.9504 913.857 95.9504 920.987 Q95.9504 928.093 97.756 931.658 Q99.5847 935.2 103.196 935.2 Q106.83 935.2 108.636 931.658 Q110.464 928.093 110.464 920.987 Q110.464 913.857 108.636 910.315 Q106.83 906.751 103.196 906.751 M103.196 903.047 Q109.006 903.047 112.061 907.653 Q115.14 912.237 115.14 920.987 Q115.14 929.713 112.061 934.32 Q109.006 938.903 103.196 938.903 Q97.3856 938.903 94.3069 934.32 Q91.2514 929.713 91.2514 920.987 Q91.2514 912.237 94.3069 907.653 Q97.3856 903.047 103.196 903.047 Z" fill="#000000" fill-rule="nonzero" fill-opacity="1" /><path clip-path="url(#clip250)" d="M123.358 932.352 L128.242 932.352 L128.242 938.232 L123.358 938.232 L123.358 932.352 Z" fill="#000000" fill-rule="nonzero" fill-opacity="1" /><path clip-path="url(#clip250)" d="M138.473 903.672 L156.83 903.672 L156.83 907.607 L142.756 907.607 L142.756 916.079 Q143.774 915.732 144.793 915.57 Q145.811 915.385 146.83 915.385 Q152.617 915.385 155.996 918.556 Q159.376 921.727 159.376 927.144 Q159.376 932.723 155.904 935.825 Q152.432 938.903 146.112 938.903 Q143.936 938.903 141.668 938.533 Q139.422 938.162 137.015 937.422 L137.015 932.723 Q139.098 933.857 141.321 934.413 Q143.543 934.968 146.02 934.968 Q150.024 934.968 152.362 932.862 Q154.7 930.755 154.7 927.144 Q154.7 923.533 152.362 921.426 Q150.024 919.32 146.02 919.32 Q144.145 919.32 142.27 919.737 Q140.418 920.153 138.473 921.033 L138.473 903.672 Z" fill="#000000" fill-rule="nonzero" fill-opacity="1" /><path clip-path="url(#clip250)" d="M102.2 626.71 Q98.5893 626.71 96.7606 630.275 Q94.955 633.817 94.955 640.946 Q94.955 648.053 96.7606 651.617 Q98.5893 655.159 102.2 655.159 Q105.835 655.159 107.64 651.617 Q109.469 648.053 109.469 640.946 Q109.469 633.817 107.64 630.275 Q105.835 626.71 102.2 626.71 M102.2 623.006 Q108.011 623.006 111.066 627.613 Q114.145 632.196 114.145 640.946 Q114.145 649.673 111.066 654.279 Q108.011 658.863 102.2 658.863 Q96.3902 658.863 93.3115 654.279 Q90.256 649.673 90.256 640.946 Q90.256 632.196 93.3115 627.613 Q96.3902 623.006 102.2 623.006 Z" fill="#000000" fill-rule="nonzero" fill-opacity="1" /><path clip-path="url(#clip250)" d="M122.362 652.312 L127.247 652.312 L127.247 658.191 L122.362 658.191 L122.362 652.312 Z" fill="#000000" fill-rule="nonzero" fill-opacity="1" /><path clip-path="url(#clip250)" d="M147.432 626.71 Q143.821 626.71 141.992 630.275 Q140.186 633.817 140.186 640.946 Q140.186 648.053 141.992 651.617 Q143.821 655.159 147.432 655.159 Q151.066 655.159 152.871 651.617 Q154.7 648.053 154.7 640.946 Q154.7 633.817 152.871 630.275 Q151.066 626.71 147.432 626.71 M147.432 623.006 Q153.242 623.006 156.297 627.613 Q159.376 632.196 159.376 640.946 Q159.376 649.673 156.297 654.279 Q153.242 658.863 147.432 658.863 Q141.621 658.863 138.543 654.279 Q135.487 649.673 135.487 640.946 Q135.487 632.196 138.543 627.613 Q141.621 623.006 147.432 623.006 Z" fill="#000000" fill-rule="nonzero" fill-opacity="1" /><path clip-path="url(#clip250)" d="M103.196 346.67 Q99.5847 346.67 97.756 350.234 Q95.9504 353.776 95.9504 360.906 Q95.9504 368.012 97.756 371.577 Q99.5847 375.119 103.196 375.119 Q106.83 375.119 108.636 371.577 Q110.464 368.012 110.464 360.906 Q110.464 353.776 108.636 350.234 Q106.83 346.67 103.196 346.67 M103.196 342.966 Q109.006 342.966 112.061 347.572 Q115.14 352.156 115.14 360.906 Q115.14 369.632 112.061 374.239 Q109.006 378.822 103.196 378.822 Q97.3856 378.822 94.3069 374.239 Q91.2514 369.632 91.2514 360.906 Q91.2514 352.156 94.3069 347.572 Q97.3856 342.966 103.196 342.966 Z" fill="#000000" fill-rule="nonzero" fill-opacity="1" /><path clip-path="url(#clip250)" d="M123.358 372.271 L128.242 372.271 L128.242 378.151 L123.358 378.151 L123.358 372.271 Z" fill="#000000" fill-rule="nonzero" fill-opacity="1" /><path clip-path="url(#clip250)" d="M138.473 343.591 L156.83 343.591 L156.83 347.526 L142.756 347.526 L142.756 355.998 Q143.774 355.651 144.793 355.489 Q145.811 355.304 146.83 355.304 Q152.617 355.304 155.996 358.475 Q159.376 361.646 159.376 367.063 Q159.376 372.642 155.904 375.744 Q152.432 378.822 146.112 378.822 Q143.936 378.822 141.668 378.452 Q139.422 378.082 137.015 377.341 L137.015 372.642 Q139.098 373.776 141.321 374.332 Q143.543 374.887 146.02 374.887 Q150.024 374.887 152.362 372.781 Q154.7 370.674 154.7 367.063 Q154.7 363.452 152.362 361.345 Q150.024 359.239 146.02 359.239 Q144.145 359.239 142.27 359.656 Q140.418 360.072 138.473 360.952 L138.473 343.591 Z" fill="#000000" fill-rule="nonzero" fill-opacity="1" /><path clip-path="url(#clip250)" d="M93.0106 94.1753 L100.649 94.1753 L100.649 67.8097 L92.3393 69.4764 L92.3393 65.2171 L100.603 63.5505 L105.279 63.5505 L105.279 94.1753 L112.918 94.1753 L112.918 98.1105 L93.0106 98.1105 L93.0106 94.1753 Z" fill="#000000" fill-rule="nonzero" fill-opacity="1" /><path clip-path="url(#clip250)" d="M122.362 92.2309 L127.247 92.2309 L127.247 98.1105 L122.362 98.1105 L122.362 92.2309 Z" fill="#000000" fill-rule="nonzero" fill-opacity="1" /><path clip-path="url(#clip250)" d="M147.432 66.6291 Q143.821 66.6291 141.992 70.1939 Q140.186 73.7356 140.186 80.8652 Q140.186 87.9716 141.992 91.5364 Q143.821 95.0781 147.432 95.0781 Q151.066 95.0781 152.871 91.5364 Q154.7 87.9716 154.7 80.8652 Q154.7 73.7356 152.871 70.1939 Q151.066 66.6291 147.432 66.6291 M147.432 62.9255 Q153.242 62.9255 156.297 67.5319 Q159.376 72.1152 159.376 80.8652 Q159.376 89.592 156.297 94.1984 Q153.242 98.7818 147.432 98.7818 Q141.621 98.7818 138.543 94.1984 Q135.487 89.592 135.487 80.8652 Q135.487 72.1152 138.543 67.5319 Q141.621 62.9255 147.432 62.9255 Z" fill="#000000" fill-rule="nonzero" fill-opacity="1" /><polyline clip-path="url(#clip252)" style="stroke:#009af9; stroke-linecap:round; stroke-linejoin:round; stroke-width:4; stroke-opacity:1; fill:none" points="1127.91,640.911 1163.25,570.364 1198.45,500.94 1233.38,433.746 1267.88,369.852 1301.82,310.275 1335.07,255.965 1367.5,207.788 1398.97,166.509 1429.35,132.788 1458.54,107.16 1486.41,90.0353 1512.85,81.6852 1537.76,82.2432 1561.03,91.7003 1582.58,109.906 1602.31,136.57 1620.15,171.268 1636.03,213.447 1649.88,262.436 1661.66,317.453 1671.3,377.622 1678.78,441.986 1684.07,509.518 1687.13,579.144 1687.97,649.753 1686.57,720.221 1682.95,789.427 1677.12,856.266 1669.09,919.675 1658.91,978.643 1646.61,1032.23 1632.25,1079.59 1615.87,1119.95 1597.55,1152.69 1577.36,1177.27 1555.37,1193.32 1531.68,1200.56 1506.38,1198.88 1479.57,1188.32 1451.36,1169.04 1421.87,1141.34 1391.19,1105.68 1359.47,1062.61 1326.83,1012.82 1293.4,957.112 1259.3,896.364 1224.68,831.547 1189.67,763.693 1154.42,693.884 1119.06,623.23 1083.74,552.859 1048.6,483.89 1013.77,417.422 979.391,354.514 945.608,296.169 912.552,243.314 880.354,196.794 849.143,157.347 819.043,125.604 790.174,102.069 762.652,87.1175 736.586,80.9875 712.079,83.7766 689.231,95.4406 668.131,115.793 648.863,144.511 631.506,181.136 616.127,225.085 602.788,275.657 591.542,332.048 582.435,393.359 575.502,458.613 570.771,526.771 568.261,596.748 567.982,667.427 569.935,737.685 574.112,806.4 580.497,872.48 589.064,934.871 599.778,992.58 612.599,1044.69 627.473,1090.36 644.342,1128.88 663.139,1159.62 683.788,1182.1 706.208,1195.96 730.309,1200.97 755.995,1197.07 783.163,1184.31 811.706,1162.89 841.509,1133.16 872.453,1095.58 904.417,1050.76 937.27,999.417 970.884,942.36 1005.12,880.502 1039.85,814.827 1074.93,746.381 1110.23,676.256 1145.59,605.567 1180.88,535.442 1215.96,466.996 1250.69,401.321 1284.93,339.462 1318.54,282.406 1351.4,231.06 1383.36,186.242 1414.3,148.668 1444.11,118.934 1472.65,97.5148 1499.82,84.7518 1525.5,80.8479 1549.6,85.8655 1572.02,99.7245 1592.67,122.204 1611.47,152.947 1628.34,191.462 1643.21,237.137 1656.03,289.243 1666.75,346.952 1675.32,409.343 1681.7,475.422 1685.88,544.138 1687.83,614.396 1687.55,685.075 1685.04,755.051 1680.31,823.21 1673.38,888.464 1664.27,949.775 1653.02,1006.17 1639.69,1056.74 1624.31,1100.69 1606.95,1137.31 1587.68,1166.03 1566.58,1186.38 1543.73,1198.05 1519.23,1200.84 1493.16,1194.71 1465.64,1179.75 1436.77,1156.22 1406.67,1124.48 1375.46,1085.03 1343.26,1038.51 1310.2,985.654 1276.42,927.309 1242.05,864.401 1207.22,797.933 1172.07,728.964 1136.75,658.592 1101.39,587.939 1066.14,518.13 1031.13,450.276 996.513,385.459 962.417,324.711 928.981,269 896.337,219.214 864.617,176.144 833.946,140.478 804.447,112.784 776.238,93.5022 749.43,82.9404 724.131,81.2666 700.442,88.5076 678.457,104.548 658.263,129.132 639.941,161.869 623.565,202.236 609.199,249.591 596.901,303.18 586.719,362.148 578.695,425.557 572.86,492.396 569.238,561.601 567.842,632.07 568.68,702.679 571.746,772.304 577.03,839.837 584.509,904.2 594.155,964.37 605.928,1019.39 619.782,1068.38 635.662,1110.55 653.504,1145.25 673.237,1171.92 694.782,1190.12 718.054,1199.58 742.96,1200.14 769.4,1191.79 797.27,1174.66 826.457,1149.03 856.846,1115.31 888.316,1074.04 920.74,1025.86 953.991,971.548 987.934,911.971 1022.44,848.077 1057.36,780.883 1092.56,711.459 1127.91,640.911 "/>
</svg>
