<?xml version="1.0" encoding="utf-8"?>
<svg xmlns="http://www.w3.org/2000/svg" xmlns:xlink="http://www.w3.org/1999/xlink" width="528" height="336" viewBox="0 0 2112 1344">
<defs>
  <clipPath id="clip190">
    <rect x="0" y="0" width="2112" height="1344"/>
  </clipPath>
</defs>
<path clip-path="url(#clip190)" d="M0 1344 L2112 1344 L2112 0 L0 0  Z" fill="#ffffff" fill-rule="evenodd" fill-opacity="1"/>
<defs>
  <clipPath id="clip191">
    <rect x="422" y="0" width="1479" height="1344"/>
  </clipPath>
</defs>
<path clip-path="url(#clip190)" d="M181.311 1234.58 L2064.76 1234.58 L2064.76 47.2441 L181.311 47.2441  Z" fill="#ffffff" fill-rule="evenodd" fill-opacity="1"/>
<defs>
  <clipPath id="clip192">
    <rect x="181" y="47" width="1884" height="1188"/>
  </clipPath>
</defs>
<polyline clip-path="url(#clip192)" style="stroke:#000000; stroke-linecap:round; stroke-linejoin:round; stroke-width:2; stroke-opacity:0.1; fill:none" points="412.299,1234.58 412.299,47.2441 "/>
<polyline clip-path="url(#clip192)" style="stroke:#000000; stroke-linecap:round; stroke-linejoin:round; stroke-width:2; stroke-opacity:0.1; fill:none" points="767.666,1234.58 767.666,47.2441 "/>
<polyline clip-path="url(#clip192)" style="stroke:#000000; stroke-linecap:round; stroke-linejoin:round; stroke-width:2; stroke-opacity:0.1; fill:none" points="1123.03,1234.58 1123.03,47.2441 "/>
<polyline clip-path="url(#clip192)" style="stroke:#000000; stroke-linecap:round; stroke-linejoin:round; stroke-width:2; stroke-opacity:0.1; fill:none" points="1478.4,1234.58 1478.4,47.2441 "/>
<polyline clip-path="url(#clip192)" style="stroke:#000000; stroke-linecap:round; stroke-linejoin:round; stroke-width:2; stroke-opacity:0.1; fill:none" points="1833.77,1234.58 1833.77,47.2441 "/>
<polyline clip-path="url(#clip192)" style="stroke:#000000; stroke-linecap:round; stroke-linejoin:round; stroke-width:2; stroke-opacity:0.1; fill:none" points="181.311,1200.99 2064.76,1200.99 "/>
<polyline clip-path="url(#clip192)" style="stroke:#000000; stroke-linecap:round; stroke-linejoin:round; stroke-width:2; stroke-opacity:0.1; fill:none" points="181.311,920.954 2064.76,920.954 "/>
<polyline clip-path="url(#clip192)" style="stroke:#000000; stroke-linecap:round; stroke-linejoin:round; stroke-width:2; stroke-opacity:0.1; fill:none" points="181.311,640.919 2064.76,640.919 "/>
<polyline clip-path="url(#clip192)" style="stroke:#000000; stroke-linecap:round; stroke-linejoin:round; stroke-width:2; stroke-opacity:0.1; fill:none" points="181.311,360.883 2064.76,360.883 "/>
<polyline clip-path="url(#clip192)" style="stroke:#000000; stroke-linecap:round; stroke-linejoin:round; stroke-width:2; stroke-opacity:0.1; fill:none" points="181.311,80.8479 2064.76,80.8479 "/>
<polyline clip-path="url(#clip190)" style="stroke:#000000; stroke-linecap:round; stroke-linejoin:round; stroke-width:4; stroke-opacity:1; fill:none" points="181.311,1234.58 2064.76,1234.58 "/>
<polyline clip-path="url(#clip190)" style="stroke:#000000; stroke-linecap:round; stroke-linejoin:round; stroke-width:4; stroke-opacity:1; fill:none" points="412.299,1234.58 412.299,1215.68 "/>
<polyline clip-path="url(#clip190)" style="stroke:#000000; stroke-linecap:round; stroke-linejoin:round; stroke-width:4; stroke-opacity:1; fill:none" points="767.666,1234.58 767.666,1215.68 "/>
<polyline clip-path="url(#clip190)" style="stroke:#000000; stroke-linecap:round; stroke-linejoin:round; stroke-width:4; stroke-opacity:1; fill:none" points="1123.03,1234.58 1123.03,1215.68 "/>
<polyline clip-path="url(#clip190)" style="stroke:#000000; stroke-linecap:round; stroke-linejoin:round; stroke-width:4; stroke-opacity:1; fill:none" points="1478.4,1234.58 1478.4,1215.68 "/>
<polyline clip-path="url(#clip190)" style="stroke:#000000; stroke-linecap:round; stroke-linejoin:round; stroke-width:4; stroke-opacity:1; fill:none" points="1833.77,1234.58 1833.77,1215.68 "/>
<path clip-path="url(#clip190)" d="M381.2 1277.85 L410.876 1277.85 L410.876 1281.78 L381.2 1281.78 L381.2 1277.85 Z" fill="#000000" fill-rule="nonzero" fill-opacity="1" /><path clip-path="url(#clip190)" d="M433.815 1264.19 L422.01 1282.64 L433.815 1282.64 L433.815 1264.19 M432.588 1260.11 L438.468 1260.11 L438.468 1282.64 L443.399 1282.64 L443.399 1286.53 L438.468 1286.53 L438.468 1294.67 L433.815 1294.67 L433.815 1286.53 L418.214 1286.53 L418.214 1282.01 L432.588 1260.11 Z" fill="#000000" fill-rule="nonzero" fill-opacity="1" /><path clip-path="url(#clip190)" d="M737.609 1277.85 L767.284 1277.85 L767.284 1281.78 L737.609 1281.78 L737.609 1277.85 Z" fill="#000000" fill-rule="nonzero" fill-opacity="1" /><path clip-path="url(#clip190)" d="M781.405 1290.74 L797.724 1290.74 L797.724 1294.67 L775.78 1294.67 L775.78 1290.74 Q778.442 1287.99 783.025 1283.36 Q787.631 1278.7 788.812 1277.36 Q791.057 1274.84 791.937 1273.1 Q792.84 1271.34 792.84 1269.65 Q792.84 1266.9 790.895 1265.16 Q788.974 1263.42 785.872 1263.42 Q783.673 1263.42 781.219 1264.19 Q778.789 1264.95 776.011 1266.5 L776.011 1261.78 Q778.835 1260.65 781.289 1260.07 Q783.743 1259.49 785.78 1259.49 Q791.15 1259.49 794.344 1262.17 Q797.539 1264.86 797.539 1269.35 Q797.539 1271.48 796.729 1273.4 Q795.942 1275.3 793.835 1277.89 Q793.256 1278.56 790.155 1281.78 Q787.053 1284.98 781.405 1290.74 Z" fill="#000000" fill-rule="nonzero" fill-opacity="1" /><path clip-path="url(#clip190)" d="M1123.03 1263.19 Q1119.42 1263.19 1117.59 1266.76 Q1115.79 1270.3 1115.79 1277.43 Q1115.79 1284.54 1117.59 1288.1 Q1119.42 1291.64 1123.03 1291.64 Q1126.67 1291.64 1128.47 1288.1 Q1130.3 1284.54 1130.3 1277.43 Q1130.3 1270.3 1128.47 1266.76 Q1126.67 1263.19 1123.03 1263.19 M1123.03 1259.49 Q1128.84 1259.49 1131.9 1264.1 Q1134.98 1268.68 1134.98 1277.43 Q1134.98 1286.16 1131.9 1290.76 Q1128.84 1295.35 1123.03 1295.35 Q1117.22 1295.35 1114.14 1290.76 Q1111.09 1286.16 1111.09 1277.43 Q1111.09 1268.68 1114.14 1264.1 Q1117.22 1259.49 1123.03 1259.49 Z" fill="#000000" fill-rule="nonzero" fill-opacity="1" /><path clip-path="url(#clip190)" d="M1473.05 1290.74 L1489.37 1290.74 L1489.37 1294.67 L1467.43 1294.67 L1467.43 1290.74 Q1470.09 1287.99 1474.67 1283.36 Q1479.28 1278.7 1480.46 1277.36 Q1482.71 1274.84 1483.59 1273.1 Q1484.49 1271.34 1484.49 1269.65 Q1484.49 1266.9 1482.54 1265.16 Q1480.62 1263.42 1477.52 1263.42 Q1475.32 1263.42 1472.87 1264.19 Q1470.44 1264.95 1467.66 1266.5 L1467.66 1261.78 Q1470.48 1260.65 1472.94 1260.07 Q1475.39 1259.49 1477.43 1259.49 Q1482.8 1259.49 1485.99 1262.17 Q1489.19 1264.86 1489.19 1269.35 Q1489.19 1271.48 1488.38 1273.4 Q1487.59 1275.3 1485.48 1277.89 Q1484.9 1278.56 1481.8 1281.78 Q1478.7 1284.98 1473.05 1290.74 Z" fill="#000000" fill-rule="nonzero" fill-opacity="1" /><path clip-path="url(#clip190)" d="M1836.78 1264.19 L1824.97 1282.64 L1836.78 1282.64 L1836.78 1264.19 M1835.55 1260.11 L1841.43 1260.11 L1841.43 1282.64 L1846.36 1282.64 L1846.36 1286.53 L1841.43 1286.53 L1841.43 1294.67 L1836.78 1294.67 L1836.78 1286.53 L1821.17 1286.53 L1821.17 1282.01 L1835.55 1260.11 Z" fill="#000000" fill-rule="nonzero" fill-opacity="1" /><polyline clip-path="url(#clip190)" style="stroke:#000000; stroke-linecap:round; stroke-linejoin:round; stroke-width:4; stroke-opacity:1; fill:none" points="181.311,1234.58 181.311,47.2441 "/>
<polyline clip-path="url(#clip190)" style="stroke:#000000; stroke-linecap:round; stroke-linejoin:round; stroke-width:4; stroke-opacity:1; fill:none" points="181.311,1200.99 200.208,1200.99 "/>
<polyline clip-path="url(#clip190)" style="stroke:#000000; stroke-linecap:round; stroke-linejoin:round; stroke-width:4; stroke-opacity:1; fill:none" points="181.311,920.954 200.208,920.954 "/>
<polyline clip-path="url(#clip190)" style="stroke:#000000; stroke-linecap:round; stroke-linejoin:round; stroke-width:4; stroke-opacity:1; fill:none" points="181.311,640.919 200.208,640.919 "/>
<polyline clip-path="url(#clip190)" style="stroke:#000000; stroke-linecap:round; stroke-linejoin:round; stroke-width:4; stroke-opacity:1; fill:none" points="181.311,360.883 200.208,360.883 "/>
<polyline clip-path="url(#clip190)" style="stroke:#000000; stroke-linecap:round; stroke-linejoin:round; stroke-width:4; stroke-opacity:1; fill:none" points="181.311,80.8479 200.208,80.8479 "/>
<path clip-path="url(#clip190)" d="M92.4551 1186.79 Q88.844 1186.79 87.0153 1190.35 Q85.2097 1193.89 85.2097 1201.02 Q85.2097 1208.13 87.0153 1211.7 Q88.844 1215.24 92.4551 1215.24 Q96.0893 1215.24 97.8948 1211.7 Q99.7235 1208.13 99.7235 1201.02 Q99.7235 1193.89 97.8948 1190.35 Q96.0893 1186.79 92.4551 1186.79 M92.4551 1183.08 Q98.2652 1183.08 101.321 1187.69 Q104.399 1192.27 104.399 1201.02 Q104.399 1209.75 101.321 1214.36 Q98.2652 1218.94 92.4551 1218.94 Q86.6449 1218.94 83.5662 1214.36 Q80.5107 1209.75 80.5107 1201.02 Q80.5107 1192.27 83.5662 1187.69 Q86.6449 1183.08 92.4551 1183.08 Z" fill="#000000" fill-rule="nonzero" fill-opacity="1" /><path clip-path="url(#clip190)" d="M112.617 1212.39 L117.501 1212.39 L117.501 1218.27 L112.617 1218.27 L112.617 1212.39 Z" fill="#000000" fill-rule="nonzero" fill-opacity="1" /><path clip-path="url(#clip190)" d="M137.686 1186.79 Q134.075 1186.79 132.247 1190.35 Q130.441 1193.89 130.441 1201.02 Q130.441 1208.13 132.247 1211.7 Q134.075 1215.24 137.686 1215.24 Q141.321 1215.24 143.126 1211.7 Q144.955 1208.13 144.955 1201.02 Q144.955 1193.89 143.126 1190.35 Q141.321 1186.79 137.686 1186.79 M137.686 1183.08 Q143.496 1183.08 146.552 1187.69 Q149.631 1192.27 149.631 1201.02 Q149.631 1209.75 146.552 1214.36 Q143.496 1218.94 137.686 1218.94 Q131.876 1218.94 128.797 1214.36 Q125.742 1209.75 125.742 1201.02 Q125.742 1192.27 128.797 1187.69 Q131.876 1183.08 137.686 1183.08 Z" fill="#000000" fill-rule="nonzero" fill-opacity="1" /><path clip-path="url(#clip190)" d="M87.4782 934.299 L103.798 934.299 L103.798 938.234 L81.8533 938.234 L81.8533 934.299 Q84.5153 931.544 89.0986 926.915 Q93.7051 922.262 94.8856 920.919 Q97.131 918.396 98.0106 916.66 Q98.9134 914.901 98.9134 913.211 Q98.9134 910.456 96.9689 908.72 Q95.0476 906.984 91.9458 906.984 Q89.7467 906.984 87.2931 907.748 Q84.8625 908.512 82.0847 910.063 L82.0847 905.341 Q84.9088 904.206 87.3625 903.628 Q89.8162 903.049 91.8532 903.049 Q97.2236 903.049 100.418 905.734 Q103.612 908.419 103.612 912.91 Q103.612 915.04 102.802 916.961 Q102.015 918.859 99.9087 921.452 Q99.33 922.123 96.2282 925.341 Q93.1264 928.535 87.4782 934.299 Z" fill="#000000" fill-rule="nonzero" fill-opacity="1" /><path clip-path="url(#clip190)" d="M113.612 932.354 L118.497 932.354 L118.497 938.234 L113.612 938.234 L113.612 932.354 Z" fill="#000000" fill-rule="nonzero" fill-opacity="1" /><path clip-path="url(#clip190)" d="M128.728 903.674 L147.084 903.674 L147.084 907.609 L133.01 907.609 L133.01 916.081 Q134.029 915.734 135.047 915.572 Q136.066 915.387 137.084 915.387 Q142.871 915.387 146.251 918.558 Q149.631 921.73 149.631 927.146 Q149.631 932.725 146.158 935.827 Q142.686 938.905 136.367 938.905 Q134.191 938.905 131.922 938.535 Q129.677 938.165 127.27 937.424 L127.27 932.725 Q129.353 933.859 131.575 934.415 Q133.797 934.97 136.274 934.97 Q140.279 934.97 142.617 932.864 Q144.955 930.757 144.955 927.146 Q144.955 923.535 142.617 921.429 Q140.279 919.322 136.274 919.322 Q134.399 919.322 132.524 919.739 Q130.672 920.155 128.728 921.035 L128.728 903.674 Z" fill="#000000" fill-rule="nonzero" fill-opacity="1" /><path clip-path="url(#clip190)" d="M82.5014 623.639 L100.858 623.639 L100.858 627.574 L86.7838 627.574 L86.7838 636.046 Q87.8023 635.699 88.8208 635.537 Q89.8393 635.352 90.8578 635.352 Q96.6449 635.352 100.024 638.523 Q103.404 641.694 103.404 647.111 Q103.404 652.689 99.9319 655.791 Q96.4597 658.87 90.1403 658.87 Q87.9643 658.87 85.6958 658.5 Q83.4505 658.129 81.0431 657.389 L81.0431 652.689 Q83.1264 653.824 85.3486 654.379 Q87.5708 654.935 90.0477 654.935 Q94.0523 654.935 96.3902 652.828 Q98.7282 650.722 98.7282 647.111 Q98.7282 643.5 96.3902 641.393 Q94.0523 639.287 90.0477 639.287 Q88.1727 639.287 86.2977 639.703 Q84.4458 640.12 82.5014 641 L82.5014 623.639 Z" fill="#000000" fill-rule="nonzero" fill-opacity="1" /><path clip-path="url(#clip190)" d="M112.617 652.319 L117.501 652.319 L117.501 658.199 L112.617 658.199 L112.617 652.319 Z" fill="#000000" fill-rule="nonzero" fill-opacity="1" /><path clip-path="url(#clip190)" d="M137.686 626.717 Q134.075 626.717 132.247 630.282 Q130.441 633.824 130.441 640.953 Q130.441 648.06 132.247 651.625 Q134.075 655.166 137.686 655.166 Q141.321 655.166 143.126 651.625 Q144.955 648.06 144.955 640.953 Q144.955 633.824 143.126 630.282 Q141.321 626.717 137.686 626.717 M137.686 623.014 Q143.496 623.014 146.552 627.62 Q149.631 632.203 149.631 640.953 Q149.631 649.68 146.552 654.287 Q143.496 658.87 137.686 658.87 Q131.876 658.87 128.797 654.287 Q125.742 649.68 125.742 640.953 Q125.742 632.203 128.797 627.62 Q131.876 623.014 137.686 623.014 Z" fill="#000000" fill-rule="nonzero" fill-opacity="1" /><path clip-path="url(#clip190)" d="M82.2699 343.603 L104.492 343.603 L104.492 345.594 L91.9458 378.163 L87.0616 378.163 L98.8671 347.538 L82.2699 347.538 L82.2699 343.603 Z" fill="#000000" fill-rule="nonzero" fill-opacity="1" /><path clip-path="url(#clip190)" d="M113.612 372.284 L118.497 372.284 L118.497 378.163 L113.612 378.163 L113.612 372.284 Z" fill="#000000" fill-rule="nonzero" fill-opacity="1" /><path clip-path="url(#clip190)" d="M128.728 343.603 L147.084 343.603 L147.084 347.538 L133.01 347.538 L133.01 356.011 Q134.029 355.663 135.047 355.501 Q136.066 355.316 137.084 355.316 Q142.871 355.316 146.251 358.487 Q149.631 361.659 149.631 367.075 Q149.631 372.654 146.158 375.756 Q142.686 378.835 136.367 378.835 Q134.191 378.835 131.922 378.464 Q129.677 378.094 127.27 377.353 L127.27 372.654 Q129.353 373.788 131.575 374.344 Q133.797 374.899 136.274 374.899 Q140.279 374.899 142.617 372.793 Q144.955 370.686 144.955 367.075 Q144.955 363.464 142.617 361.358 Q140.279 359.251 136.274 359.251 Q134.399 359.251 132.524 359.668 Q130.672 360.085 128.728 360.964 L128.728 343.603 Z" fill="#000000" fill-rule="nonzero" fill-opacity="1" /><path clip-path="url(#clip190)" d="M53.1034 94.1927 L60.7423 94.1927 L60.7423 67.8271 L52.4321 69.4938 L52.4321 65.2346 L60.696 63.5679 L65.3719 63.5679 L65.3719 94.1927 L73.0107 94.1927 L73.0107 98.1279 L53.1034 98.1279 L53.1034 94.1927 Z" fill="#000000" fill-rule="nonzero" fill-opacity="1" /><path clip-path="url(#clip190)" d="M92.4551 66.6466 Q88.844 66.6466 87.0153 70.2114 Q85.2097 73.753 85.2097 80.8826 Q85.2097 87.9891 87.0153 91.5539 Q88.844 95.0955 92.4551 95.0955 Q96.0893 95.0955 97.8948 91.5539 Q99.7235 87.9891 99.7235 80.8826 Q99.7235 73.753 97.8948 70.2114 Q96.0893 66.6466 92.4551 66.6466 M92.4551 62.9429 Q98.2652 62.9429 101.321 67.5494 Q104.399 72.1327 104.399 80.8826 Q104.399 89.6094 101.321 94.2159 Q98.2652 98.7992 92.4551 98.7992 Q86.6449 98.7992 83.5662 94.2159 Q80.5107 89.6094 80.5107 80.8826 Q80.5107 72.1327 83.5662 67.5494 Q86.6449 62.9429 92.4551 62.9429 Z" fill="#000000" fill-rule="nonzero" fill-opacity="1" /><path clip-path="url(#clip190)" d="M112.617 92.2483 L117.501 92.2483 L117.501 98.1279 L112.617 98.1279 L112.617 92.2483 Z" fill="#000000" fill-rule="nonzero" fill-opacity="1" /><path clip-path="url(#clip190)" d="M137.686 66.6466 Q134.075 66.6466 132.247 70.2114 Q130.441 73.753 130.441 80.8826 Q130.441 87.9891 132.247 91.5539 Q134.075 95.0955 137.686 95.0955 Q141.321 95.0955 143.126 91.5539 Q144.955 87.9891 144.955 80.8826 Q144.955 73.753 143.126 70.2114 Q141.321 66.6466 137.686 66.6466 M137.686 62.9429 Q143.496 62.9429 146.552 67.5494 Q149.631 72.1327 149.631 80.8826 Q149.631 89.6094 146.552 94.2159 Q143.496 98.7992 137.686 98.7992 Q131.876 98.7992 128.797 94.2159 Q125.742 89.6094 125.742 80.8826 Q125.742 72.1327 128.797 67.5494 Q131.876 62.9429 137.686 62.9429 Z" fill="#000000" fill-rule="nonzero" fill-opacity="1" /><polyline clip-path="url(#clip192)" style="stroke:#009af9; stroke-linecap:round; stroke-linejoin:round; stroke-width:4; stroke-opacity:1; fill:none" points="234.616,80.8479 253.965,105.244 359.2,237.927 416.976,310.773 474.805,383.686 532.873,456.899 586.759,524.84 645.101,598.399 712.621,683.531 763.705,747.938 825.442,825.778 889.792,906.912 941.225,971.761 1004.23,1051.2 1068.17,1131.82 1082.39,1149.75 1096.61,1167.68 1103.72,1176.64 1110.83,1185.61 1114.39,1190.09 1117.95,1194.57 1121.5,1199.06 1125.06,1200.97 1131.57,1200.73 1138.08,1200.19 1144.6,1199.34 1151.11,1198.19 1164.14,1194.99 1177.17,1190.59 1194.75,1182.74 1212.33,1172.7 1229.92,1160.46 1247.5,1146.02 1260.8,1133.65 1274.11,1120.01 1287.41,1105.12 1300.72,1088.98 1314.6,1070.79 1328.48,1051.24 1342.36,1030.32 1356.24,1008.04 1372.54,980.122 1388.84,950.319 1405.14,918.632 1421.44,885.058 1434.77,856.195 1448.11,826.069 1454.77,810.534 1461.44,794.683 1468.11,778.516 1474.77,762.035 1476.68,757.271 1478.58,752.933 1480.48,752.933 1482.39,752.933 1486.19,752.933 1490,752.933 1497.61,752.933 1505.23,752.933 1520.45,752.933 1535.68,752.933 1591.66,752.933 1659.52,752.933 1715.39,752.933 1779.24,752.933 1828.99,752.933 1892.51,752.933 2000.25,752.933 2011.45,752.933 "/>
</svg>
