<?xml version="1.0" encoding="utf-8"?>
<svg xmlns="http://www.w3.org/2000/svg" xmlns:xlink="http://www.w3.org/1999/xlink" width="528" height="336" viewBox="0 0 2112 1344">
<defs>
  <clipPath id="clip740">
    <rect x="0" y="0" width="2112" height="1344"/>
  </clipPath>
</defs>
<path clip-path="url(#clip740)" d="M0 1344 L2112 1344 L2112 0 L0 0  Z" fill="#ffffff" fill-rule="evenodd" fill-opacity="1"/>
<defs>
  <clipPath id="clip741">
    <rect x="422" y="0" width="1479" height="1344"/>
  </clipPath>
</defs>
<path clip-path="url(#clip740)" d="M146.311 1206.49 L2064.76 1206.49 L2064.76 75.3321 L146.311 75.3321  Z" fill="#ffffff" fill-rule="evenodd" fill-opacity="1"/>
<defs>
  <clipPath id="clip742">
    <rect x="146" y="75" width="1919" height="1132"/>
  </clipPath>
</defs>
<polyline clip-path="url(#clip742)" style="stroke:#000000; stroke-linecap:round; stroke-linejoin:round; stroke-width:2; stroke-opacity:0.1; fill:none" points="200.606,1206.49 200.606,75.3321 "/>
<polyline clip-path="url(#clip742)" style="stroke:#000000; stroke-linecap:round; stroke-linejoin:round; stroke-width:2; stroke-opacity:0.1; fill:none" points="313.722,1206.49 313.722,75.3321 "/>
<polyline clip-path="url(#clip742)" style="stroke:#000000; stroke-linecap:round; stroke-linejoin:round; stroke-width:2; stroke-opacity:0.1; fill:none" points="426.838,1206.49 426.838,75.3321 "/>
<polyline clip-path="url(#clip742)" style="stroke:#000000; stroke-linecap:round; stroke-linejoin:round; stroke-width:2; stroke-opacity:0.1; fill:none" points="539.954,1206.49 539.954,75.3321 "/>
<polyline clip-path="url(#clip742)" style="stroke:#000000; stroke-linecap:round; stroke-linejoin:round; stroke-width:2; stroke-opacity:0.1; fill:none" points="653.07,1206.49 653.07,75.3321 "/>
<polyline clip-path="url(#clip742)" style="stroke:#000000; stroke-linecap:round; stroke-linejoin:round; stroke-width:2; stroke-opacity:0.1; fill:none" points="766.186,1206.49 766.186,75.3321 "/>
<polyline clip-path="url(#clip742)" style="stroke:#000000; stroke-linecap:round; stroke-linejoin:round; stroke-width:2; stroke-opacity:0.1; fill:none" points="879.302,1206.49 879.302,75.3321 "/>
<polyline clip-path="url(#clip742)" style="stroke:#000000; stroke-linecap:round; stroke-linejoin:round; stroke-width:2; stroke-opacity:0.1; fill:none" points="992.418,1206.49 992.418,75.3321 "/>
<polyline clip-path="url(#clip742)" style="stroke:#000000; stroke-linecap:round; stroke-linejoin:round; stroke-width:2; stroke-opacity:0.1; fill:none" points="1105.53,1206.49 1105.53,75.3321 "/>
<polyline clip-path="url(#clip742)" style="stroke:#000000; stroke-linecap:round; stroke-linejoin:round; stroke-width:2; stroke-opacity:0.1; fill:none" points="1218.65,1206.49 1218.65,75.3321 "/>
<polyline clip-path="url(#clip742)" style="stroke:#000000; stroke-linecap:round; stroke-linejoin:round; stroke-width:2; stroke-opacity:0.1; fill:none" points="1331.77,1206.49 1331.77,75.3321 "/>
<polyline clip-path="url(#clip742)" style="stroke:#000000; stroke-linecap:round; stroke-linejoin:round; stroke-width:2; stroke-opacity:0.1; fill:none" points="1444.88,1206.49 1444.88,75.3321 "/>
<polyline clip-path="url(#clip742)" style="stroke:#000000; stroke-linecap:round; stroke-linejoin:round; stroke-width:2; stroke-opacity:0.1; fill:none" points="1558,1206.49 1558,75.3321 "/>
<polyline clip-path="url(#clip742)" style="stroke:#000000; stroke-linecap:round; stroke-linejoin:round; stroke-width:2; stroke-opacity:0.1; fill:none" points="1671.11,1206.49 1671.11,75.3321 "/>
<polyline clip-path="url(#clip742)" style="stroke:#000000; stroke-linecap:round; stroke-linejoin:round; stroke-width:2; stroke-opacity:0.1; fill:none" points="1784.23,1206.49 1784.23,75.3321 "/>
<polyline clip-path="url(#clip742)" style="stroke:#000000; stroke-linecap:round; stroke-linejoin:round; stroke-width:2; stroke-opacity:0.1; fill:none" points="1897.34,1206.49 1897.34,75.3321 "/>
<polyline clip-path="url(#clip742)" style="stroke:#000000; stroke-linecap:round; stroke-linejoin:round; stroke-width:2; stroke-opacity:0.1; fill:none" points="2010.46,1206.49 2010.46,75.3321 "/>
<polyline clip-path="url(#clip740)" style="stroke:#000000; stroke-linecap:round; stroke-linejoin:round; stroke-width:4; stroke-opacity:1; fill:none" points="146.311,1206.49 2064.76,1206.49 "/>
<polyline clip-path="url(#clip740)" style="stroke:#000000; stroke-linecap:round; stroke-linejoin:round; stroke-width:4; stroke-opacity:1; fill:none" points="200.606,1206.49 200.606,1188.49 "/>
<polyline clip-path="url(#clip740)" style="stroke:#000000; stroke-linecap:round; stroke-linejoin:round; stroke-width:4; stroke-opacity:1; fill:none" points="313.722,1206.49 313.722,1188.49 "/>
<polyline clip-path="url(#clip740)" style="stroke:#000000; stroke-linecap:round; stroke-linejoin:round; stroke-width:4; stroke-opacity:1; fill:none" points="426.838,1206.49 426.838,1188.49 "/>
<polyline clip-path="url(#clip740)" style="stroke:#000000; stroke-linecap:round; stroke-linejoin:round; stroke-width:4; stroke-opacity:1; fill:none" points="539.954,1206.49 539.954,1188.49 "/>
<polyline clip-path="url(#clip740)" style="stroke:#000000; stroke-linecap:round; stroke-linejoin:round; stroke-width:4; stroke-opacity:1; fill:none" points="653.07,1206.49 653.07,1188.49 "/>
<polyline clip-path="url(#clip740)" style="stroke:#000000; stroke-linecap:round; stroke-linejoin:round; stroke-width:4; stroke-opacity:1; fill:none" points="766.186,1206.49 766.186,1188.49 "/>
<polyline clip-path="url(#clip740)" style="stroke:#000000; stroke-linecap:round; stroke-linejoin:round; stroke-width:4; stroke-opacity:1; fill:none" points="879.302,1206.49 879.302,1188.49 "/>
<polyline clip-path="url(#clip740)" style="stroke:#000000; stroke-linecap:round; stroke-linejoin:round; stroke-width:4; stroke-opacity:1; fill:none" points="992.418,1206.49 992.418,1188.49 "/>
<polyline clip-path="url(#clip740)" style="stroke:#000000; stroke-linecap:round; stroke-linejoin:round; stroke-width:4; stroke-opacity:1; fill:none" points="1105.53,1206.49 1105.53,1188.49 "/>
<polyline clip-path="url(#clip740)" style="stroke:#000000; stroke-linecap:round; stroke-linejoin:round; stroke-width:4; stroke-opacity:1; fill:none" points="1218.65,1206.49 1218.65,1188.49 "/>
<polyline clip-path="url(#clip740)" style="stroke:#000000; stroke-linecap:round; stroke-linejoin:round; stroke-width:4; stroke-opacity:1; fill:none" points="1331.77,1206.49 1331.77,1188.49 "/>
<polyline clip-path="url(#clip740)" style="stroke:#000000; stroke-linecap:round; stroke-linejoin:round; stroke-width:4; stroke-opacity:1; fill:none" points="1444.88,1206.49 1444.88,1188.49 "/>
<polyline clip-path="url(#clip740)" style="stroke:#000000; stroke-linecap:round; stroke-linejoin:round; stroke-width:4; stroke-opacity:1; fill:none" points="1558,1206.49 1558,1188.49 "/>
<polyline clip-path="url(#clip740)" style="stroke:#000000; stroke-linecap:round; stroke-linejoin:round; stroke-width:4; stroke-opacity:1; fill:none" points="1671.11,1206.49 1671.11,1188.49 "/>
<polyline clip-path="url(#clip740)" style="stroke:#000000; stroke-linecap:round; stroke-linejoin:round; stroke-width:4; stroke-opacity:1; fill:none" points="1784.23,1206.49 1784.23,1188.49 "/>
<polyline clip-path="url(#clip740)" style="stroke:#000000; stroke-linecap:round; stroke-linejoin:round; stroke-width:4; stroke-opacity:1; fill:none" points="1897.34,1206.49 1897.34,1188.49 "/>
<polyline clip-path="url(#clip740)" style="stroke:#000000; stroke-linecap:round; stroke-linejoin:round; stroke-width:4; stroke-opacity:1; fill:none" points="2010.46,1206.49 2010.46,1188.49 "/>
<path clip-path="url(#clip740)" d="M169.796 1249.76 L199.472 1249.76 L199.472 1253.69 L169.796 1253.69 L169.796 1249.76 Z" fill="#000000" fill-rule="nonzero" fill-opacity="1" /><path clip-path="url(#clip740)" d="M219.565 1250.17 Q216.231 1250.17 214.31 1251.96 Q212.412 1253.74 212.412 1256.86 Q212.412 1259.99 214.31 1261.77 Q216.231 1263.55 219.565 1263.55 Q222.898 1263.55 224.819 1261.77 Q226.741 1259.97 226.741 1256.86 Q226.741 1253.74 224.819 1251.96 Q222.921 1250.17 219.565 1250.17 M214.889 1248.18 Q211.88 1247.44 210.19 1245.38 Q208.523 1243.32 208.523 1240.36 Q208.523 1236.22 211.463 1233.81 Q214.426 1231.4 219.565 1231.4 Q224.727 1231.4 227.667 1233.81 Q230.606 1236.22 230.606 1240.36 Q230.606 1243.32 228.917 1245.38 Q227.25 1247.44 224.264 1248.18 Q227.643 1248.97 229.518 1251.26 Q231.417 1253.55 231.417 1256.86 Q231.417 1261.89 228.338 1264.57 Q225.282 1267.26 219.565 1267.26 Q213.847 1267.26 210.768 1264.57 Q207.713 1261.89 207.713 1256.86 Q207.713 1253.55 209.611 1251.26 Q211.509 1248.97 214.889 1248.18 M213.176 1240.8 Q213.176 1243.49 214.843 1244.99 Q216.532 1246.49 219.565 1246.49 Q222.574 1246.49 224.264 1244.99 Q225.977 1243.49 225.977 1240.8 Q225.977 1238.11 224.264 1236.61 Q222.574 1235.11 219.565 1235.11 Q216.532 1235.11 214.843 1236.61 Q213.176 1238.11 213.176 1240.8 Z" fill="#000000" fill-rule="nonzero" fill-opacity="1" /><path clip-path="url(#clip740)" d="M283.317 1249.76 L312.993 1249.76 L312.993 1253.69 L283.317 1253.69 L283.317 1249.76 Z" fill="#000000" fill-rule="nonzero" fill-opacity="1" /><path clip-path="url(#clip740)" d="M321.905 1232.03 L344.127 1232.03 L344.127 1234.02 L331.581 1266.59 L326.697 1266.59 L338.502 1235.96 L321.905 1235.96 L321.905 1232.03 Z" fill="#000000" fill-rule="nonzero" fill-opacity="1" /><path clip-path="url(#clip740)" d="M395.901 1249.76 L425.577 1249.76 L425.577 1253.69 L395.901 1253.69 L395.901 1249.76 Z" fill="#000000" fill-rule="nonzero" fill-opacity="1" /><path clip-path="url(#clip740)" d="M446.248 1247.44 Q443.1 1247.44 441.248 1249.6 Q439.419 1251.75 439.419 1255.5 Q439.419 1259.23 441.248 1261.4 Q443.1 1263.55 446.248 1263.55 Q449.396 1263.55 451.225 1261.4 Q453.076 1259.23 453.076 1255.5 Q453.076 1251.75 451.225 1249.6 Q449.396 1247.44 446.248 1247.44 M455.53 1232.79 L455.53 1237.05 Q453.771 1236.22 451.965 1235.78 Q450.183 1235.34 448.424 1235.34 Q443.794 1235.34 441.34 1238.46 Q438.91 1241.59 438.563 1247.91 Q439.928 1245.89 441.989 1244.83 Q444.049 1243.74 446.526 1243.74 Q451.734 1243.74 454.743 1246.91 Q457.776 1250.06 457.776 1255.5 Q457.776 1260.82 454.627 1264.04 Q451.479 1267.26 446.248 1267.26 Q440.252 1267.26 437.081 1262.67 Q433.91 1258.07 433.91 1249.34 Q433.91 1241.15 437.799 1236.29 Q441.688 1231.4 448.239 1231.4 Q449.998 1231.4 451.78 1231.75 Q453.586 1232.1 455.53 1232.79 Z" fill="#000000" fill-rule="nonzero" fill-opacity="1" /><path clip-path="url(#clip740)" d="M509.595 1249.76 L539.271 1249.76 L539.271 1253.69 L509.595 1253.69 L509.595 1249.76 Z" fill="#000000" fill-rule="nonzero" fill-opacity="1" /><path clip-path="url(#clip740)" d="M549.41 1232.03 L567.766 1232.03 L567.766 1235.96 L553.692 1235.96 L553.692 1244.43 Q554.711 1244.09 555.729 1243.92 Q556.748 1243.74 557.766 1243.74 Q563.553 1243.74 566.933 1246.91 Q570.313 1250.08 570.313 1255.5 Q570.313 1261.08 566.841 1264.18 Q563.368 1267.26 557.049 1267.26 Q554.873 1267.26 552.604 1266.89 Q550.359 1266.52 547.952 1265.78 L547.952 1261.08 Q550.035 1262.21 552.257 1262.77 Q554.479 1263.32 556.956 1263.32 Q560.961 1263.32 563.299 1261.22 Q565.637 1259.11 565.637 1255.5 Q565.637 1251.89 563.299 1249.78 Q560.961 1247.67 556.956 1247.67 Q555.081 1247.67 553.206 1248.09 Q551.354 1248.51 549.41 1249.39 L549.41 1232.03 Z" fill="#000000" fill-rule="nonzero" fill-opacity="1" /><path clip-path="url(#clip740)" d="M621.971 1249.76 L651.646 1249.76 L651.646 1253.69 L621.971 1253.69 L621.971 1249.76 Z" fill="#000000" fill-rule="nonzero" fill-opacity="1" /><path clip-path="url(#clip740)" d="M674.586 1236.1 L662.781 1254.55 L674.586 1254.55 L674.586 1236.1 M673.359 1232.03 L679.239 1232.03 L679.239 1254.55 L684.169 1254.55 L684.169 1258.44 L679.239 1258.44 L679.239 1266.59 L674.586 1266.59 L674.586 1258.44 L658.984 1258.44 L658.984 1253.92 L673.359 1232.03 Z" fill="#000000" fill-rule="nonzero" fill-opacity="1" /><path clip-path="url(#clip740)" d="M735.654 1249.76 L765.329 1249.76 L765.329 1253.69 L735.654 1253.69 L735.654 1249.76 Z" fill="#000000" fill-rule="nonzero" fill-opacity="1" /><path clip-path="url(#clip740)" d="M789.588 1247.95 Q792.945 1248.67 794.82 1250.94 Q796.718 1253.21 796.718 1256.54 Q796.718 1261.66 793.2 1264.46 Q789.681 1267.26 783.2 1267.26 Q781.024 1267.26 778.709 1266.82 Q776.417 1266.4 773.964 1265.55 L773.964 1261.03 Q775.908 1262.17 778.223 1262.74 Q780.538 1263.32 783.061 1263.32 Q787.459 1263.32 789.75 1261.59 Q792.065 1259.85 792.065 1256.54 Q792.065 1253.48 789.913 1251.77 Q787.783 1250.04 783.963 1250.04 L779.936 1250.04 L779.936 1246.19 L784.149 1246.19 Q787.598 1246.19 789.426 1244.83 Q791.255 1243.44 791.255 1240.85 Q791.255 1238.18 789.357 1236.77 Q787.482 1235.34 783.963 1235.34 Q782.042 1235.34 779.843 1235.75 Q777.644 1236.17 775.005 1237.05 L775.005 1232.88 Q777.667 1232.14 779.982 1231.77 Q782.32 1231.4 784.38 1231.4 Q789.704 1231.4 792.806 1233.83 Q795.908 1236.24 795.908 1240.36 Q795.908 1243.23 794.264 1245.22 Q792.621 1247.19 789.588 1247.95 Z" fill="#000000" fill-rule="nonzero" fill-opacity="1" /><path clip-path="url(#clip740)" d="M849.244 1249.76 L878.92 1249.76 L878.92 1253.69 L849.244 1253.69 L849.244 1249.76 Z" fill="#000000" fill-rule="nonzero" fill-opacity="1" /><path clip-path="url(#clip740)" d="M893.04 1262.65 L909.359 1262.65 L909.359 1266.59 L887.415 1266.59 L887.415 1262.65 Q890.077 1259.9 894.66 1255.27 Q899.267 1250.61 900.447 1249.27 Q902.693 1246.75 903.572 1245.01 Q904.475 1243.25 904.475 1241.56 Q904.475 1238.81 902.531 1237.07 Q900.609 1235.34 897.508 1235.34 Q895.309 1235.34 892.855 1236.1 Q890.424 1236.86 887.647 1238.42 L887.647 1233.69 Q890.471 1232.56 892.924 1231.98 Q895.378 1231.4 897.415 1231.4 Q902.785 1231.4 905.98 1234.09 Q909.174 1236.77 909.174 1241.26 Q909.174 1243.39 908.364 1245.31 Q907.577 1247.21 905.471 1249.8 Q904.892 1250.48 901.79 1253.69 Q898.688 1256.89 893.04 1262.65 Z" fill="#000000" fill-rule="nonzero" fill-opacity="1" /><path clip-path="url(#clip740)" d="M962.175 1249.76 L991.85 1249.76 L991.85 1253.69 L962.175 1253.69 L962.175 1249.76 Z" fill="#000000" fill-rule="nonzero" fill-opacity="1" /><path clip-path="url(#clip740)" d="M1002.75 1262.65 L1010.39 1262.65 L1010.39 1236.29 L1002.08 1237.95 L1002.08 1233.69 L1010.35 1232.03 L1015.02 1232.03 L1015.02 1262.65 L1022.66 1262.65 L1022.66 1266.59 L1002.75 1266.59 L1002.75 1262.65 Z" fill="#000000" fill-rule="nonzero" fill-opacity="1" /><path clip-path="url(#clip740)" d="M1105.53 1235.11 Q1101.92 1235.11 1100.09 1238.67 Q1098.29 1242.21 1098.29 1249.34 Q1098.29 1256.45 1100.09 1260.01 Q1101.92 1263.55 1105.53 1263.55 Q1109.17 1263.55 1110.97 1260.01 Q1112.8 1256.45 1112.8 1249.34 Q1112.8 1242.21 1110.97 1238.67 Q1109.17 1235.11 1105.53 1235.11 M1105.53 1231.4 Q1111.34 1231.4 1114.4 1236.01 Q1117.48 1240.59 1117.48 1249.34 Q1117.48 1258.07 1114.4 1262.67 Q1111.34 1267.26 1105.53 1267.26 Q1099.72 1267.26 1096.64 1262.67 Q1093.59 1258.07 1093.59 1249.34 Q1093.59 1240.59 1096.64 1236.01 Q1099.72 1231.4 1105.53 1231.4 Z" fill="#000000" fill-rule="nonzero" fill-opacity="1" /><path clip-path="url(#clip740)" d="M1209.03 1262.65 L1216.67 1262.65 L1216.67 1236.29 L1208.36 1237.95 L1208.36 1233.69 L1216.62 1232.03 L1221.3 1232.03 L1221.3 1262.65 L1228.94 1262.65 L1228.94 1266.59 L1209.03 1266.59 L1209.03 1262.65 Z" fill="#000000" fill-rule="nonzero" fill-opacity="1" /><path clip-path="url(#clip740)" d="M1326.42 1262.65 L1342.74 1262.65 L1342.74 1266.59 L1320.79 1266.59 L1320.79 1262.65 Q1323.45 1259.9 1328.04 1255.27 Q1332.64 1250.61 1333.83 1249.27 Q1336.07 1246.75 1336.95 1245.01 Q1337.85 1243.25 1337.85 1241.56 Q1337.85 1238.81 1335.91 1237.07 Q1333.99 1235.34 1330.89 1235.34 Q1328.69 1235.34 1326.23 1236.1 Q1323.8 1236.86 1321.02 1238.42 L1321.02 1233.69 Q1323.85 1232.56 1326.3 1231.98 Q1328.76 1231.4 1330.79 1231.4 Q1336.16 1231.4 1339.36 1234.09 Q1342.55 1236.77 1342.55 1241.26 Q1342.55 1243.39 1341.74 1245.31 Q1340.95 1247.21 1338.85 1249.8 Q1338.27 1250.48 1335.17 1253.69 Q1332.07 1256.89 1326.42 1262.65 Z" fill="#000000" fill-rule="nonzero" fill-opacity="1" /><path clip-path="url(#clip740)" d="M1449.13 1247.95 Q1452.49 1248.67 1454.36 1250.94 Q1456.26 1253.21 1456.26 1256.54 Q1456.26 1261.66 1452.74 1264.46 Q1449.22 1267.26 1442.74 1267.26 Q1440.56 1267.26 1438.25 1266.82 Q1435.96 1266.4 1433.5 1265.55 L1433.5 1261.03 Q1435.45 1262.17 1437.76 1262.74 Q1440.08 1263.32 1442.6 1263.32 Q1447 1263.32 1449.29 1261.59 Q1451.61 1259.85 1451.61 1256.54 Q1451.61 1253.48 1449.45 1251.77 Q1447.32 1250.04 1443.5 1250.04 L1439.48 1250.04 L1439.48 1246.19 L1443.69 1246.19 Q1447.14 1246.19 1448.97 1244.83 Q1450.8 1243.44 1450.8 1240.85 Q1450.8 1238.18 1448.9 1236.77 Q1447.02 1235.34 1443.5 1235.34 Q1441.58 1235.34 1439.38 1235.75 Q1437.18 1236.17 1434.55 1237.05 L1434.55 1232.88 Q1437.21 1232.14 1439.52 1231.77 Q1441.86 1231.4 1443.92 1231.4 Q1449.24 1231.4 1452.35 1233.83 Q1455.45 1236.24 1455.45 1240.36 Q1455.45 1243.23 1453.8 1245.22 Q1452.16 1247.19 1449.13 1247.95 Z" fill="#000000" fill-rule="nonzero" fill-opacity="1" /><path clip-path="url(#clip740)" d="M1561.01 1236.1 L1549.2 1254.55 L1561.01 1254.55 L1561.01 1236.1 M1559.78 1232.03 L1565.66 1232.03 L1565.66 1254.55 L1570.59 1254.55 L1570.59 1258.44 L1565.66 1258.44 L1565.66 1266.59 L1561.01 1266.59 L1561.01 1258.44 L1545.4 1258.44 L1545.4 1253.92 L1559.78 1232.03 Z" fill="#000000" fill-rule="nonzero" fill-opacity="1" /><path clip-path="url(#clip740)" d="M1661.39 1232.03 L1679.75 1232.03 L1679.75 1235.96 L1665.67 1235.96 L1665.67 1244.43 Q1666.69 1244.09 1667.71 1243.92 Q1668.73 1243.74 1669.75 1243.74 Q1675.53 1243.74 1678.91 1246.91 Q1682.29 1250.08 1682.29 1255.5 Q1682.29 1261.08 1678.82 1264.18 Q1675.35 1267.26 1669.03 1267.26 Q1666.85 1267.26 1664.58 1266.89 Q1662.34 1266.52 1659.93 1265.78 L1659.93 1261.08 Q1662.02 1262.21 1664.24 1262.77 Q1666.46 1263.32 1668.94 1263.32 Q1672.94 1263.32 1675.28 1261.22 Q1677.62 1259.11 1677.62 1255.5 Q1677.62 1251.89 1675.28 1249.78 Q1672.94 1247.67 1668.94 1247.67 Q1667.06 1247.67 1665.19 1248.09 Q1663.33 1248.51 1661.39 1249.39 L1661.39 1232.03 Z" fill="#000000" fill-rule="nonzero" fill-opacity="1" /><path clip-path="url(#clip740)" d="M1784.63 1247.44 Q1781.49 1247.44 1779.63 1249.6 Q1777.8 1251.75 1777.8 1255.5 Q1777.8 1259.23 1779.63 1261.4 Q1781.49 1263.55 1784.63 1263.55 Q1787.78 1263.55 1789.61 1261.4 Q1791.46 1259.23 1791.46 1255.5 Q1791.46 1251.75 1789.61 1249.6 Q1787.78 1247.44 1784.63 1247.44 M1793.92 1232.79 L1793.92 1237.05 Q1792.16 1236.22 1790.35 1235.78 Q1788.57 1235.34 1786.81 1235.34 Q1782.18 1235.34 1779.73 1238.46 Q1777.3 1241.59 1776.95 1247.91 Q1778.31 1245.89 1780.37 1244.83 Q1782.43 1243.74 1784.91 1243.74 Q1790.12 1243.74 1793.13 1246.91 Q1796.16 1250.06 1796.16 1255.5 Q1796.16 1260.82 1793.01 1264.04 Q1789.87 1267.26 1784.63 1267.26 Q1778.64 1267.26 1775.47 1262.67 Q1772.3 1258.07 1772.3 1249.34 Q1772.3 1241.15 1776.18 1236.29 Q1780.07 1231.4 1786.62 1231.4 Q1788.38 1231.4 1790.17 1231.75 Q1791.97 1232.1 1793.92 1232.79 Z" fill="#000000" fill-rule="nonzero" fill-opacity="1" /><path clip-path="url(#clip740)" d="M1886.23 1232.03 L1908.46 1232.03 L1908.46 1234.02 L1895.91 1266.59 L1891.03 1266.59 L1902.83 1235.96 L1886.23 1235.96 L1886.23 1232.03 Z" fill="#000000" fill-rule="nonzero" fill-opacity="1" /><path clip-path="url(#clip740)" d="M2010.46 1250.17 Q2007.13 1250.17 2005.21 1251.96 Q2003.31 1253.74 2003.31 1256.86 Q2003.31 1259.99 2005.21 1261.77 Q2007.13 1263.55 2010.46 1263.55 Q2013.79 1263.55 2015.71 1261.77 Q2017.64 1259.97 2017.64 1256.86 Q2017.64 1253.74 2015.71 1251.96 Q2013.82 1250.17 2010.46 1250.17 M2005.78 1248.18 Q2002.78 1247.44 2001.09 1245.38 Q1999.42 1243.32 1999.42 1240.36 Q1999.42 1236.22 2002.36 1233.81 Q2005.32 1231.4 2010.46 1231.4 Q2015.62 1231.4 2018.56 1233.81 Q2021.5 1236.22 2021.5 1240.36 Q2021.5 1243.32 2019.81 1245.38 Q2018.15 1247.44 2015.16 1248.18 Q2018.54 1248.97 2020.41 1251.26 Q2022.31 1253.55 2022.31 1256.86 Q2022.31 1261.89 2019.23 1264.57 Q2016.18 1267.26 2010.46 1267.26 Q2004.74 1267.26 2001.66 1264.57 Q1998.61 1261.89 1998.61 1256.86 Q1998.61 1253.55 2000.51 1251.26 Q2002.4 1248.97 2005.78 1248.18 M2004.07 1240.8 Q2004.07 1243.49 2005.74 1244.99 Q2007.43 1246.49 2010.46 1246.49 Q2013.47 1246.49 2015.16 1244.99 Q2016.87 1243.49 2016.87 1240.8 Q2016.87 1238.11 2015.16 1236.61 Q2013.47 1235.11 2010.46 1235.11 Q2007.43 1235.11 2005.74 1236.61 Q2004.07 1238.11 2004.07 1240.8 Z" fill="#000000" fill-rule="nonzero" fill-opacity="1" /><polyline clip-path="url(#clip742)" style="stroke:#000000; stroke-linecap:round; stroke-linejoin:round; stroke-width:2; stroke-opacity:0.1; fill:none" points="146.311,1206.49 2064.76,1206.49 "/>
<polyline clip-path="url(#clip742)" style="stroke:#000000; stroke-linecap:round; stroke-linejoin:round; stroke-width:2; stroke-opacity:0.1; fill:none" points="146.311,1093.37 2064.76,1093.37 "/>
<polyline clip-path="url(#clip742)" style="stroke:#000000; stroke-linecap:round; stroke-linejoin:round; stroke-width:2; stroke-opacity:0.1; fill:none" points="146.311,980.259 2064.76,980.259 "/>
<polyline clip-path="url(#clip742)" style="stroke:#000000; stroke-linecap:round; stroke-linejoin:round; stroke-width:2; stroke-opacity:0.1; fill:none" points="146.311,867.143 2064.76,867.143 "/>
<polyline clip-path="url(#clip742)" style="stroke:#000000; stroke-linecap:round; stroke-linejoin:round; stroke-width:2; stroke-opacity:0.1; fill:none" points="146.311,754.027 2064.76,754.027 "/>
<polyline clip-path="url(#clip742)" style="stroke:#000000; stroke-linecap:round; stroke-linejoin:round; stroke-width:2; stroke-opacity:0.1; fill:none" points="146.311,640.911 2064.76,640.911 "/>
<polyline clip-path="url(#clip742)" style="stroke:#000000; stroke-linecap:round; stroke-linejoin:round; stroke-width:2; stroke-opacity:0.1; fill:none" points="146.311,527.796 2064.76,527.796 "/>
<polyline clip-path="url(#clip742)" style="stroke:#000000; stroke-linecap:round; stroke-linejoin:round; stroke-width:2; stroke-opacity:0.1; fill:none" points="146.311,414.68 2064.76,414.68 "/>
<polyline clip-path="url(#clip742)" style="stroke:#000000; stroke-linecap:round; stroke-linejoin:round; stroke-width:2; stroke-opacity:0.1; fill:none" points="146.311,301.564 2064.76,301.564 "/>
<polyline clip-path="url(#clip742)" style="stroke:#000000; stroke-linecap:round; stroke-linejoin:round; stroke-width:2; stroke-opacity:0.1; fill:none" points="146.311,188.448 2064.76,188.448 "/>
<polyline clip-path="url(#clip742)" style="stroke:#000000; stroke-linecap:round; stroke-linejoin:round; stroke-width:2; stroke-opacity:0.1; fill:none" points="146.311,75.3321 2064.76,75.3321 "/>
<polyline clip-path="url(#clip740)" style="stroke:#000000; stroke-linecap:round; stroke-linejoin:round; stroke-width:4; stroke-opacity:1; fill:none" points="146.311,1206.49 146.311,75.3321 "/>
<polyline clip-path="url(#clip740)" style="stroke:#000000; stroke-linecap:round; stroke-linejoin:round; stroke-width:4; stroke-opacity:1; fill:none" points="146.311,1206.49 165.209,1206.49 "/>
<polyline clip-path="url(#clip740)" style="stroke:#000000; stroke-linecap:round; stroke-linejoin:round; stroke-width:4; stroke-opacity:1; fill:none" points="146.311,1093.37 165.209,1093.37 "/>
<polyline clip-path="url(#clip740)" style="stroke:#000000; stroke-linecap:round; stroke-linejoin:round; stroke-width:4; stroke-opacity:1; fill:none" points="146.311,980.259 165.209,980.259 "/>
<polyline clip-path="url(#clip740)" style="stroke:#000000; stroke-linecap:round; stroke-linejoin:round; stroke-width:4; stroke-opacity:1; fill:none" points="146.311,867.143 165.209,867.143 "/>
<polyline clip-path="url(#clip740)" style="stroke:#000000; stroke-linecap:round; stroke-linejoin:round; stroke-width:4; stroke-opacity:1; fill:none" points="146.311,754.027 165.209,754.027 "/>
<polyline clip-path="url(#clip740)" style="stroke:#000000; stroke-linecap:round; stroke-linejoin:round; stroke-width:4; stroke-opacity:1; fill:none" points="146.311,640.911 165.209,640.911 "/>
<polyline clip-path="url(#clip740)" style="stroke:#000000; stroke-linecap:round; stroke-linejoin:round; stroke-width:4; stroke-opacity:1; fill:none" points="146.311,527.796 165.209,527.796 "/>
<polyline clip-path="url(#clip740)" style="stroke:#000000; stroke-linecap:round; stroke-linejoin:round; stroke-width:4; stroke-opacity:1; fill:none" points="146.311,414.68 165.209,414.68 "/>
<polyline clip-path="url(#clip740)" style="stroke:#000000; stroke-linecap:round; stroke-linejoin:round; stroke-width:4; stroke-opacity:1; fill:none" points="146.311,301.564 165.209,301.564 "/>
<polyline clip-path="url(#clip740)" style="stroke:#000000; stroke-linecap:round; stroke-linejoin:round; stroke-width:4; stroke-opacity:1; fill:none" points="146.311,188.448 165.209,188.448 "/>
<polyline clip-path="url(#clip740)" style="stroke:#000000; stroke-linecap:round; stroke-linejoin:round; stroke-width:4; stroke-opacity:1; fill:none" points="146.311,75.3321 165.209,75.3321 "/>
<path clip-path="url(#clip740)" d="M53.9136 1206.94 L83.5894 1206.94 L83.5894 1210.88 L53.9136 1210.88 L53.9136 1206.94 Z" fill="#000000" fill-rule="nonzero" fill-opacity="1" /><path clip-path="url(#clip740)" d="M93.7282 1189.21 L112.085 1189.21 L112.085 1193.15 L98.0106 1193.15 L98.0106 1201.62 Q99.0291 1201.27 100.048 1201.11 Q101.066 1200.92 102.085 1200.92 Q107.872 1200.92 111.251 1204.09 Q114.631 1207.27 114.631 1212.68 Q114.631 1218.26 111.159 1221.36 Q107.686 1224.44 101.367 1224.44 Q99.1911 1224.44 96.9226 1224.07 Q94.6773 1223.7 92.2699 1222.96 L92.2699 1218.26 Q94.3532 1219.4 96.5754 1219.95 Q98.7976 1220.51 101.274 1220.51 Q105.279 1220.51 107.617 1218.4 Q109.955 1216.29 109.955 1212.68 Q109.955 1209.07 107.617 1206.97 Q105.279 1204.86 101.274 1204.86 Q99.3995 1204.86 97.5245 1205.28 Q95.6726 1205.69 93.7282 1206.57 L93.7282 1189.21 Z" fill="#000000" fill-rule="nonzero" fill-opacity="1" /><path clip-path="url(#clip740)" d="M52.4321 1093.83 L82.1079 1093.83 L82.1079 1097.76 L52.4321 1097.76 L52.4321 1093.83 Z" fill="#000000" fill-rule="nonzero" fill-opacity="1" /><path clip-path="url(#clip740)" d="M105.048 1080.17 L93.2421 1098.62 L105.048 1098.62 L105.048 1080.17 M103.821 1076.09 L109.7 1076.09 L109.7 1098.62 L114.631 1098.62 L114.631 1102.51 L109.7 1102.51 L109.7 1110.65 L105.048 1110.65 L105.048 1102.51 L89.4458 1102.51 L89.4458 1097.99 L103.821 1076.09 Z" fill="#000000" fill-rule="nonzero" fill-opacity="1" /><path clip-path="url(#clip740)" d="M53.5664 980.71 L83.2421 980.71 L83.2421 984.646 L53.5664 984.646 L53.5664 980.71 Z" fill="#000000" fill-rule="nonzero" fill-opacity="1" /><path clip-path="url(#clip740)" d="M107.501 978.905 Q110.858 979.622 112.733 981.891 Q114.631 984.159 114.631 987.493 Q114.631 992.608 111.112 995.409 Q107.594 998.21 101.112 998.21 Q98.9365 998.21 96.6217 997.771 Q94.33 997.354 91.8764 996.497 L91.8764 991.984 Q93.8208 993.118 96.1356 993.696 Q98.4504 994.275 100.974 994.275 Q105.372 994.275 107.663 992.539 Q109.978 990.803 109.978 987.493 Q109.978 984.437 107.825 982.724 Q105.696 980.988 101.876 980.988 L97.8485 980.988 L97.8485 977.146 L102.061 977.146 Q105.511 977.146 107.339 975.78 Q109.168 974.391 109.168 971.798 Q109.168 969.136 107.27 967.724 Q105.395 966.289 101.876 966.289 Q99.955 966.289 97.756 966.706 Q95.5569 967.123 92.918 968.002 L92.918 963.836 Q95.58 963.095 97.8948 962.724 Q100.233 962.354 102.293 962.354 Q107.617 962.354 110.719 964.785 Q113.821 967.192 113.821 971.312 Q113.821 974.183 112.177 976.173 Q110.534 978.141 107.501 978.905 Z" fill="#000000" fill-rule="nonzero" fill-opacity="1" /><path clip-path="url(#clip740)" d="M54.5154 867.595 L84.1912 867.595 L84.1912 871.53 L54.5154 871.53 L54.5154 867.595 Z" fill="#000000" fill-rule="nonzero" fill-opacity="1" /><path clip-path="url(#clip740)" d="M98.3115 880.488 L114.631 880.488 L114.631 884.423 L92.6865 884.423 L92.6865 880.488 Q95.3486 877.733 99.9319 873.104 Q104.538 868.451 105.719 867.108 Q107.964 864.585 108.844 862.849 Q109.747 861.09 109.747 859.4 Q109.747 856.646 107.802 854.909 Q105.881 853.173 102.779 853.173 Q100.58 853.173 98.1263 853.937 Q95.6958 854.701 92.918 856.252 L92.918 851.53 Q95.7421 850.396 98.1958 849.817 Q100.649 849.238 102.686 849.238 Q108.057 849.238 111.251 851.923 Q114.446 854.609 114.446 859.099 Q114.446 861.229 113.636 863.15 Q112.848 865.048 110.742 867.641 Q110.163 868.312 107.061 871.53 Q103.96 874.724 98.3115 880.488 Z" fill="#000000" fill-rule="nonzero" fill-opacity="1" /><path clip-path="url(#clip740)" d="M54.1451 754.479 L83.8208 754.479 L83.8208 758.414 L54.1451 758.414 L54.1451 754.479 Z" fill="#000000" fill-rule="nonzero" fill-opacity="1" /><path clip-path="url(#clip740)" d="M94.7236 767.372 L102.362 767.372 L102.362 741.007 L94.0523 742.673 L94.0523 738.414 L102.316 736.747 L106.992 736.747 L106.992 767.372 L114.631 767.372 L114.631 771.307 L94.7236 771.307 L94.7236 767.372 Z" fill="#000000" fill-rule="nonzero" fill-opacity="1" /><path clip-path="url(#clip740)" d="M102.686 626.71 Q99.0754 626.71 97.2467 630.275 Q95.4412 633.817 95.4412 640.946 Q95.4412 648.053 97.2467 651.617 Q99.0754 655.159 102.686 655.159 Q106.321 655.159 108.126 651.617 Q109.955 648.053 109.955 640.946 Q109.955 633.817 108.126 630.275 Q106.321 626.71 102.686 626.71 M102.686 623.006 Q108.497 623.006 111.552 627.613 Q114.631 632.196 114.631 640.946 Q114.631 649.673 111.552 654.279 Q108.497 658.863 102.686 658.863 Q96.8763 658.863 93.7976 654.279 Q90.7421 649.673 90.7421 640.946 Q90.7421 632.196 93.7976 627.613 Q96.8763 623.006 102.686 623.006 Z" fill="#000000" fill-rule="nonzero" fill-opacity="1" /><path clip-path="url(#clip740)" d="M94.7236 541.14 L102.362 541.14 L102.362 514.775 L94.0523 516.441 L94.0523 512.182 L102.316 510.516 L106.992 510.516 L106.992 541.14 L114.631 541.14 L114.631 545.076 L94.7236 545.076 L94.7236 541.14 Z" fill="#000000" fill-rule="nonzero" fill-opacity="1" /><path clip-path="url(#clip740)" d="M98.3115 428.025 L114.631 428.025 L114.631 431.96 L92.6865 431.96 L92.6865 428.025 Q95.3486 425.27 99.9319 420.64 Q104.538 415.988 105.719 414.645 Q107.964 412.122 108.844 410.386 Q109.747 408.627 109.747 406.937 Q109.747 404.182 107.802 402.446 Q105.881 400.71 102.779 400.71 Q100.58 400.71 98.1263 401.474 Q95.6958 402.238 92.918 403.789 L92.918 399.066 Q95.7421 397.932 98.1958 397.353 Q100.649 396.775 102.686 396.775 Q108.057 396.775 111.251 399.46 Q114.446 402.145 114.446 406.636 Q114.446 408.765 113.636 410.687 Q112.848 412.585 110.742 415.177 Q110.163 415.849 107.061 419.066 Q103.96 422.261 98.3115 428.025 Z" fill="#000000" fill-rule="nonzero" fill-opacity="1" /><path clip-path="url(#clip740)" d="M107.501 300.21 Q110.858 300.927 112.733 303.196 Q114.631 305.464 114.631 308.798 Q114.631 313.913 111.112 316.714 Q107.594 319.515 101.112 319.515 Q98.9365 319.515 96.6217 319.075 Q94.33 318.659 91.8764 317.802 L91.8764 313.288 Q93.8208 314.423 96.1356 315.001 Q98.4504 315.58 100.974 315.58 Q105.372 315.58 107.663 313.844 Q109.978 312.108 109.978 308.798 Q109.978 305.742 107.825 304.029 Q105.696 302.293 101.876 302.293 L97.8485 302.293 L97.8485 298.45 L102.061 298.45 Q105.511 298.45 107.339 297.085 Q109.168 295.696 109.168 293.103 Q109.168 290.441 107.27 289.029 Q105.395 287.594 101.876 287.594 Q99.955 287.594 97.756 288.011 Q95.5569 288.427 92.918 289.307 L92.918 285.14 Q95.58 284.4 97.8948 284.029 Q100.233 283.659 102.293 283.659 Q107.617 283.659 110.719 286.089 Q113.821 288.497 113.821 292.617 Q113.821 295.487 112.177 297.478 Q110.534 299.446 107.501 300.21 Z" fill="#000000" fill-rule="nonzero" fill-opacity="1" /><path clip-path="url(#clip740)" d="M105.048 175.242 L93.2421 193.691 L105.048 193.691 L105.048 175.242 M103.821 171.168 L109.7 171.168 L109.7 193.691 L114.631 193.691 L114.631 197.58 L109.7 197.58 L109.7 205.728 L105.048 205.728 L105.048 197.58 L89.4458 197.58 L89.4458 193.066 L103.821 171.168 Z" fill="#000000" fill-rule="nonzero" fill-opacity="1" /><path clip-path="url(#clip740)" d="M93.7282 58.0521 L112.085 58.0521 L112.085 61.9873 L98.0106 61.9873 L98.0106 70.4595 Q99.0291 70.1122 100.048 69.9502 Q101.066 69.765 102.085 69.765 Q107.872 69.765 111.251 72.9363 Q114.631 76.1076 114.631 81.5242 Q114.631 87.1029 111.159 90.2047 Q107.686 93.2834 101.367 93.2834 Q99.1911 93.2834 96.9226 92.913 Q94.6773 92.5427 92.2699 91.8019 L92.2699 87.1029 Q94.3532 88.2371 96.5754 88.7927 Q98.7976 89.3483 101.274 89.3483 Q105.279 89.3483 107.617 87.2418 Q109.955 85.1353 109.955 81.5242 Q109.955 77.9131 107.617 75.8067 Q105.279 73.7002 101.274 73.7002 Q99.3995 73.7002 97.5245 74.1169 Q95.6726 74.5335 93.7282 75.4131 L93.7282 58.0521 Z" fill="#000000" fill-rule="nonzero" fill-opacity="1" /><polyline clip-path="url(#clip742)" style="stroke:#009af9; stroke-linecap:round; stroke-linejoin:round; stroke-width:4; stroke-opacity:1; fill:none" points="200.606,512.146 212.39,511.777 321.342,507.693 386.817,504.483 442.176,501.169 502.311,496.759 557.751,491.721 617.188,484.939 686.051,474.571 716.65,468.766 747.249,461.952 774.081,454.901 800.914,446.499 815.541,441.167 830.168,435.143 844.796,428.239 859.423,420.181 874.137,410.491 888.851,398.546 903.565,383.222 918.28,362.489 926.414,347.368 934.548,328.229 938.615,316.577 942.682,303.08 946.749,287.241 950.816,268.367 954.884,245.467 958.951,217.067 960.984,200.136 963.018,180.877 965.051,158.772 967.085,133.133 969.118,103.034 971.152,67.1936 972.169,46.579 973.186,23.788 974.202,-1.54413 975.219,-29.8684 976.236,-61.7492 977.253,-97.9022 978.269,-139.249 979.286,-186.996 980.303,-242.756 981.32,-308.732 981.828,-346.471 982.337,-388.015 982.845,-433.972 983.353,-485.084 983.837,-539.339 984.321,-600.077 984.805,-668.533 985.288,-746.279 985.772,-835.343 986.256,-938.391 986.739,-1059 987.223,-1202.07 987.707,-1374.52 988.191,-1586.44 "/>
<polyline clip-path="url(#clip742)" style="stroke:#009af9; stroke-linecap:round; stroke-linejoin:round; stroke-width:4; stroke-opacity:1; fill:none" points="996.414,2660.72 996.898,2425.03 997.381,2235.28 997.865,2079.23 998.349,1948.64 998.832,1837.74 999.316,1742.4 999.8,1659.56 1000.28,1586.91 1000.77,1522.69 1001.25,1465.5 1001.73,1414.25 1002.22,1368.06 1002.7,1326.22 1003.19,1288.14 1003.67,1253.34 1004.15,1221.41 1004.64,1192.01 1005.6,1139.69 1006.57,1094.53 1007.54,1055.16 1008.51,1020.54 1009.47,989.854 1010.44,962.472 1012.38,915.699 1014.31,877.232 1015.28,860.454 1016.25,845.049 1017.21,830.855 1018.18,817.738 1020.12,794.28 1022.05,773.923 1025.92,740.375 1029.79,713.921 1033.66,692.584 1037.53,675.063 1041.4,660.472 1045.27,648.183 1053.32,628.162 1061.36,613.571 1069.41,602.856 1077.46,595.077 1085.51,589.651 1093.55,586.213 1101.6,584.552 1109.65,584.571 1123.2,588.446 1136.74,597.802 1143.52,605.047 1150.29,614.494 1157.07,626.739 1163.84,642.697 1167.98,654.847 1172.11,669.383 1176.25,686.976 1180.38,708.587 1184.52,735.651 1188.65,770.391 1190.72,791.695 1192.79,816.456 1193.82,830.401 1194.85,845.57 1195.37,853.665 1195.89,862.129 1196.41,870.991 1196.92,880.277 1198.99,922.335 1201.06,974.333 1202.09,1005.22 1203.13,1040.24 1204.16,1080.26 1205.19,1126.45 1206.23,1180.33 1207.26,1244.02 1207.78,1280.41 1208.29,1320.44 1208.81,1364.67 1209.33,1413.82 1209.84,1468.74 1210.36,1530.51 1210.88,1600.51 1211.4,1680.49 1211.91,1772.74 1212.43,1880.33 1212.95,2007.43 1213.46,2159.87 1213.98,2346.07 1214.5,2578.62 1215.01,2877.32 "/>
<polyline clip-path="url(#clip742)" style="stroke:#009af9; stroke-linecap:round; stroke-linejoin:round; stroke-width:4; stroke-opacity:1; fill:none" points="1223.28,-1404.8 1223.8,-1215.96 1224.32,-1061.55 1224.83,-932.956 1225.35,-824.193 1225.87,-731.006 1226.39,-650.272 1226.9,-579.65 1227.42,-517.354 1227.94,-461.992 1228.45,-412.468 1228.97,-367.904 1229.49,-327.591 1230,-290.948 1230.95,-231.802 1231.9,-181.11 1232.84,-137.18 1233.79,-98.7423 1234.74,-64.8278 1235.69,-34.6816 1236.63,-7.70796 1237.58,16.5693 1239.47,58.5072 1241.37,93.4627 1243.26,123.049 1245.16,148.419 1247.05,170.416 1248.94,189.674 1250.84,206.678 1252.73,221.804 1256.52,247.552 1260.31,268.664 1264.1,286.302 1267.88,301.273 1271.67,314.15 1275.46,325.355 1283.04,343.935 1290.61,358.764 1304.61,379.661 1318.6,395.153 1332.6,407.247 1346.59,417.06 1360.77,425.361 1374.94,432.452 1389.12,438.623 1403.3,444.076 1435.07,454.351 1466.84,462.679 1495.64,469.015 1524.43,474.468 1590.36,484.482 1651.41,491.528 1711.59,496.99 1770.03,501.244 1829.93,504.79 1895.56,507.947 1990.9,511.528 2010.46,512.146 "/>
<path clip-path="url(#clip740)" d="M1377.93 358.418 L2000.81 358.418 L2000.81 114.91 L1377.93 114.91  Z" fill="#ffffff" fill-rule="evenodd" fill-opacity="1"/>
<polyline clip-path="url(#clip740)" style="stroke:#000000; stroke-linecap:round; stroke-linejoin:round; stroke-width:4; stroke-opacity:1; fill:none" points="1377.93,358.418 2000.81,358.418 2000.81,114.91 1377.93,114.91 1377.93,358.418 "/>
<polyline clip-path="url(#clip740)" style="stroke:#009af9; stroke-linecap:round; stroke-linejoin:round; stroke-width:4; stroke-opacity:1; fill:none" points="1399.24,236.664 1527.14,236.664 "/>
<path clip-path="url(#clip740)" d="M1570.47 229.595 Q1570.47 229.619 1570.33 230.462 L1564.99 251.753 Q1564.71 252.877 1563.91 254.001 Q1563.14 255.149 1561.9 256.133 Q1560.68 257.14 1558.81 257.749 Q1556.96 258.381 1554.82 258.381 Q1551.43 258.381 1549.93 257.655 Q1548.45 256.953 1548.45 255.454 Q1548.45 254.142 1549.27 253.392 Q1550.09 252.666 1551.03 252.666 Q1551.92 252.666 1552.39 253.182 Q1552.86 253.697 1552.86 254.353 Q1552.86 255.079 1552.37 255.805 Q1551.87 256.554 1550.89 256.835 Q1552.46 257.327 1554.73 257.327 Q1559.53 257.327 1561.59 252.245 Q1561.64 252.174 1561.64 252.151 L1563.23 245.804 L1563.16 245.757 Q1562.76 246.225 1562.13 246.764 Q1561.52 247.279 1560.21 247.912 Q1558.9 248.544 1557.61 248.544 Q1554.92 248.544 1553.07 246.483 Q1551.24 244.398 1551.24 240.955 Q1551.24 238.449 1552.25 235.943 Q1553.28 233.413 1554.87 231.563 Q1556.49 229.689 1558.55 228.518 Q1560.63 227.347 1562.65 227.347 Q1564.05 227.347 1565.25 228.19 Q1566.44 229.01 1567.1 230.368 Q1567.22 229.244 1567.85 228.775 Q1568.5 228.307 1569.07 228.307 Q1569.7 228.307 1570.07 228.658 Q1570.47 228.986 1570.47 229.595 M1566.54 232.523 Q1566.54 232.382 1566.44 232.008 Q1566.35 231.61 1566.07 230.977 Q1565.81 230.345 1565.41 229.783 Q1565.01 229.22 1564.29 228.822 Q1563.58 228.401 1562.69 228.401 Q1561.24 228.401 1559.79 229.619 Q1558.34 230.813 1557.33 232.664 Q1556.39 234.444 1555.5 237.887 Q1554.64 241.33 1554.64 243.087 Q1554.64 244.82 1555.39 246.155 Q1556.14 247.49 1557.75 247.49 Q1559.63 247.49 1561.64 245.757 Q1563.73 243.953 1564.08 242.407 L1566.4 233.249 Q1566.54 232.687 1566.54 232.523 Z" fill="#000000" fill-rule="nonzero" fill-opacity="1" /><path clip-path="url(#clip740)" d="M1577.05 236.552 Q1577.05 228.447 1580.07 221.913 Q1581.36 219.172 1583.16 216.877 Q1584.96 214.581 1586.16 213.574 Q1587.35 212.567 1587.68 212.567 Q1588.15 212.567 1588.17 213.036 Q1588.17 213.27 1587.54 213.855 Q1579.81 221.725 1579.83 236.552 Q1579.83 251.425 1587.35 258.99 Q1588.17 259.81 1588.17 260.068 Q1588.17 260.536 1587.68 260.536 Q1587.35 260.536 1586.2 259.576 Q1585.06 258.616 1583.28 256.414 Q1581.5 254.212 1580.21 251.519 Q1577.05 244.984 1577.05 236.552 Z" fill="#000000" fill-rule="nonzero" fill-opacity="1" /><path clip-path="url(#clip740)" d="M1606.55 228.401 Q1606.55 229.056 1606.24 229.22 Q1605.94 229.361 1605.1 229.361 L1600.6 229.361 L1597.04 243.508 Q1596.76 244.75 1596.76 245.804 Q1596.76 246.975 1597.11 247.49 Q1597.48 248.005 1598.26 248.005 Q1599.78 248.005 1601.42 246.623 Q1603.08 245.241 1604.49 241.869 Q1604.67 241.424 1604.77 241.33 Q1604.89 241.213 1605.19 241.213 Q1605.78 241.213 1605.78 241.681 Q1605.78 241.845 1605.45 242.595 Q1605.14 243.344 1604.46 244.445 Q1603.81 245.546 1602.94 246.576 Q1602.1 247.607 1600.81 248.357 Q1599.52 249.083 1598.14 249.083 Q1596.2 249.083 1594.95 247.841 Q1593.74 246.6 1593.74 244.656 Q1593.74 244.023 1594.23 242.009 Q1594.72 239.971 1597.39 229.361 L1593.15 229.361 Q1592.56 229.361 1592.33 229.338 Q1592.12 229.314 1591.96 229.197 Q1591.82 229.056 1591.82 228.775 Q1591.82 228.33 1592 228.143 Q1592.19 227.932 1592.42 227.909 Q1592.68 227.862 1593.27 227.862 L1597.76 227.862 L1599.64 220.25 Q1599.83 219.5 1600.29 219.079 Q1600.79 218.633 1601.07 218.587 Q1601.35 218.516 1601.56 218.516 Q1602.19 218.516 1602.57 218.868 Q1602.94 219.196 1602.94 219.805 Q1602.94 220.133 1600.97 227.862 L1605.19 227.862 Q1605.73 227.862 1605.94 227.885 Q1606.17 227.909 1606.36 228.026 Q1606.55 228.143 1606.55 228.401 Z" fill="#000000" fill-rule="nonzero" fill-opacity="1" /><path clip-path="url(#clip740)" d="M1610.3 260.068 Q1610.3 259.834 1610.91 259.248 Q1618.64 251.378 1618.64 236.552 Q1618.64 221.678 1611.21 214.16 Q1610.3 213.293 1610.3 213.036 Q1610.3 212.567 1610.77 212.567 Q1611.1 212.567 1612.25 213.527 Q1613.42 214.488 1615.17 216.689 Q1616.95 218.891 1618.27 221.585 Q1621.43 228.12 1621.43 236.552 Q1621.43 244.656 1618.41 251.191 Q1617.12 253.931 1615.31 256.227 Q1613.51 258.522 1612.32 259.529 Q1611.12 260.536 1610.77 260.536 Q1610.3 260.536 1610.3 260.068 Z" fill="#000000" fill-rule="nonzero" fill-opacity="1" /><path clip-path="url(#clip740)" d="M1642.03 241.26 Q1642.07 240.674 1642.99 240.674 L1672.38 240.674 Q1673.77 240.674 1673.79 241.213 Q1673.79 241.798 1672.48 241.775 L1643.32 241.775 Q1642.03 241.798 1642.03 241.26 M1642.03 231.891 Q1642.03 231.305 1643.03 231.328 L1672.34 231.328 Q1673.77 231.328 1673.79 231.891 Q1673.79 232.429 1672.57 232.429 L1642.99 232.429 Q1642.03 232.429 1642.03 231.891 Z" fill="#000000" fill-rule="nonzero" fill-opacity="1" /><path clip-path="url(#clip740)" d="M1717.26 201.151 Q1717.26 201.806 1716.96 201.97 Q1716.65 202.111 1715.81 202.111 L1711.31 202.111 L1707.75 216.258 Q1707.47 217.5 1707.47 218.554 Q1707.47 219.725 1707.82 220.24 Q1708.2 220.755 1708.97 220.755 Q1710.49 220.755 1712.13 219.373 Q1713.79 217.991 1715.2 214.619 Q1715.39 214.174 1715.48 214.08 Q1715.6 213.963 1715.9 213.963 Q1716.49 213.963 1716.49 214.431 Q1716.49 214.595 1716.16 215.345 Q1715.86 216.094 1715.18 217.195 Q1714.52 218.296 1713.65 219.326 Q1712.81 220.357 1711.52 221.107 Q1710.23 221.833 1708.85 221.833 Q1706.91 221.833 1705.67 220.591 Q1704.45 219.35 1704.45 217.406 Q1704.45 216.773 1704.94 214.759 Q1705.43 212.721 1708.1 202.111 L1703.86 202.111 Q1703.28 202.111 1703.04 202.088 Q1702.83 202.064 1702.67 201.947 Q1702.53 201.806 1702.53 201.525 Q1702.53 201.08 1702.72 200.893 Q1702.9 200.682 1703.14 200.659 Q1703.39 200.612 1703.98 200.612 L1708.48 200.612 L1710.35 193 Q1710.54 192.25 1711.01 191.829 Q1711.5 191.383 1711.78 191.337 Q1712.06 191.266 1712.27 191.266 Q1712.9 191.266 1713.28 191.618 Q1713.65 191.946 1713.65 192.555 Q1713.65 192.883 1711.69 200.612 L1715.9 200.612 Q1716.44 200.612 1716.65 200.635 Q1716.89 200.659 1717.07 200.776 Q1717.26 200.893 1717.26 201.151 Z" fill="#000000" fill-rule="nonzero" fill-opacity="1" /><path clip-path="url(#clip740)" d="M1722.24 192.768 L1722.24 191.735 L1732.55 175.978 Q1732.81 175.569 1733.22 175.585 Q1733.6 175.585 1733.68 175.733 Q1733.76 175.88 1733.76 176.454 L1733.76 191.735 L1737.12 191.735 L1737.12 192.768 L1733.76 192.768 L1733.76 195.686 Q1733.76 196.653 1734.16 196.965 Q1734.57 197.277 1736.3 197.277 L1737.01 197.277 L1737.01 198.309 Q1735.63 198.211 1732.45 198.211 Q1729.29 198.211 1727.91 198.309 L1727.91 197.277 L1728.61 197.277 Q1730.35 197.277 1730.76 196.981 Q1731.17 196.67 1731.17 195.686 L1731.17 192.768 L1722.24 192.768 M1723.19 191.735 L1731.37 191.735 L1731.37 179.208 L1723.19 191.735 Z" fill="#000000" fill-rule="nonzero" fill-opacity="1" /><path clip-path="url(#clip740)" d="M1756.5 209.887 Q1755.4 209.887 1755.4 209.302 Q1755.4 208.716 1756.55 208.716 Q1756.69 208.716 1756.92 208.74 Q1757.18 208.763 1757.23 208.763 L1770.74 208.763 L1770.74 195.201 Q1770.74 195.154 1770.72 194.944 Q1770.7 194.709 1770.7 194.569 Q1770.7 193.421 1771.26 193.421 Q1771.84 193.421 1771.84 194.569 L1771.84 208.763 L1785.38 208.763 Q1785.43 208.763 1785.66 208.74 Q1785.9 208.716 1786.04 208.716 Q1787.14 208.716 1787.14 209.302 Q1787.16 209.887 1785.99 209.887 Q1785.85 209.887 1785.64 209.864 Q1785.43 209.84 1785.38 209.84 L1771.84 209.84 L1771.84 224.081 Q1771.84 225.182 1771.26 225.182 Q1770.7 225.182 1770.7 224.034 Q1770.7 223.894 1770.72 223.66 Q1770.74 223.449 1770.74 223.402 L1770.74 209.84 L1757.23 209.84 Q1757.18 209.84 1756.9 209.864 Q1756.64 209.887 1756.5 209.887 Z" fill="#000000" fill-rule="nonzero" fill-opacity="1" /><path clip-path="url(#clip740)" d="M1805.66 193.913 L1805.66 192.414 Q1811.42 192.414 1814.4 189.346 Q1815.22 189.346 1815.36 189.533 Q1815.5 189.72 1815.5 190.587 L1815.5 217.5 Q1815.5 218.928 1816.2 219.373 Q1816.9 219.818 1819.97 219.818 L1821.49 219.818 L1821.49 221.294 Q1819.81 221.153 1813.72 221.153 Q1807.63 221.153 1805.97 221.294 L1805.97 219.818 L1807.49 219.818 Q1810.51 219.818 1811.24 219.397 Q1811.96 218.952 1811.96 217.5 L1811.96 192.648 Q1809.46 193.913 1805.66 193.913 Z" fill="#000000" fill-rule="nonzero" fill-opacity="1" /><path clip-path="url(#clip740)" d="M1824.61 200.143 Q1824.61 197.59 1825.36 195.857 Q1826.11 194.1 1827.67 192.367 Q1830.56 189.346 1834.72 189.346 Q1836.5 189.346 1838.07 190.095 Q1839.67 190.845 1841.17 192.555 Q1842.69 194.241 1843.6 197.59 Q1844.52 200.916 1844.52 205.507 Q1844.52 212.932 1840.91 217.64 Q1837.32 222.348 1832.48 222.348 Q1829.41 222.348 1827.6 220.966 Q1825.8 219.561 1825.8 217.172 Q1825.8 215.93 1826.5 215.415 Q1827.21 214.876 1828 214.876 Q1828.87 214.876 1829.55 215.462 Q1830.23 216.024 1830.23 217.078 Q1830.23 217.945 1829.67 218.624 Q1829.13 219.28 1827.72 219.28 Q1829.1 221.013 1832.43 221.013 Q1833.62 221.013 1834.82 220.474 Q1836.01 219.912 1837.3 218.577 Q1838.61 217.218 1839.41 214.384 Q1840.21 211.55 1840.21 207.568 L1840.21 206.046 Q1838.28 210.848 1834.21 210.848 Q1830.18 210.848 1827.39 207.756 Q1824.61 204.664 1824.61 200.143 M1828.92 200.19 Q1828.92 204.945 1829.78 206.702 Q1831.26 209.723 1834.26 209.723 Q1837.18 209.723 1838.64 207.123 Q1840.11 204.5 1840.11 201.104 Q1840.11 196.396 1839.34 194.335 Q1837.91 190.54 1834.72 190.54 Q1831.56 190.54 1829.92 193.562 Q1828.92 195.342 1828.92 200.19 Z" fill="#000000" fill-rule="nonzero" fill-opacity="1" /><path clip-path="url(#clip740)" d="M1863.09 201.151 Q1863.09 201.806 1862.79 201.97 Q1862.48 202.111 1861.64 202.111 L1857.14 202.111 L1853.58 216.258 Q1853.3 217.5 1853.3 218.554 Q1853.3 219.725 1853.65 220.24 Q1854.03 220.755 1854.8 220.755 Q1856.32 220.755 1857.96 219.373 Q1859.63 217.991 1861.03 214.619 Q1861.22 214.174 1861.31 214.08 Q1861.43 213.963 1861.73 213.963 Q1862.32 213.963 1862.32 214.431 Q1862.32 214.595 1861.99 215.345 Q1861.69 216.094 1861.01 217.195 Q1860.35 218.296 1859.48 219.326 Q1858.64 220.357 1857.35 221.107 Q1856.07 221.833 1854.68 221.833 Q1852.74 221.833 1851.5 220.591 Q1850.28 219.35 1850.28 217.406 Q1850.28 216.773 1850.77 214.759 Q1851.26 212.721 1853.93 202.111 L1849.69 202.111 Q1849.11 202.111 1848.87 202.088 Q1848.66 202.064 1848.5 201.947 Q1848.36 201.806 1848.36 201.525 Q1848.36 201.08 1848.55 200.893 Q1848.73 200.682 1848.97 200.659 Q1849.23 200.612 1849.81 200.612 L1854.31 200.612 L1856.18 193 Q1856.37 192.25 1856.84 191.829 Q1857.33 191.383 1857.61 191.337 Q1857.89 191.266 1858.1 191.266 Q1858.74 191.266 1859.11 191.618 Q1859.48 191.946 1859.48 192.555 Q1859.48 192.883 1857.52 200.612 L1861.73 200.612 Q1862.27 200.612 1862.48 200.635 Q1862.72 200.659 1862.9 200.776 Q1863.09 200.893 1863.09 201.151 Z" fill="#000000" fill-rule="nonzero" fill-opacity="1" /><path clip-path="url(#clip740)" d="M1868.07 198.197 Q1868.07 197.59 1868.12 197.41 Q1868.18 197.229 1868.44 196.951 L1874.89 189.769 Q1878.41 185.802 1878.41 182.342 Q1878.41 180.096 1877.23 178.489 Q1876.07 176.882 1873.92 176.882 Q1872.45 176.882 1871.2 177.784 Q1869.95 178.686 1869.38 180.293 Q1869.48 180.26 1869.82 180.26 Q1870.66 180.26 1871.12 180.785 Q1871.59 181.309 1871.59 182.014 Q1871.59 182.916 1871 183.359 Q1870.43 183.785 1869.86 183.785 Q1869.63 183.785 1869.31 183.736 Q1869.02 183.687 1868.54 183.228 Q1868.07 182.752 1868.07 181.916 Q1868.07 179.571 1869.84 177.702 Q1871.63 175.833 1874.35 175.833 Q1877.43 175.833 1879.45 177.669 Q1881.48 179.489 1881.48 182.342 Q1881.48 183.342 1881.17 184.26 Q1880.87 185.162 1880.46 185.867 Q1880.07 186.572 1878.99 187.704 Q1877.91 188.835 1877.04 189.638 Q1876.17 190.442 1874.22 192.147 L1870.66 195.606 L1876.71 195.606 Q1879.66 195.606 1879.89 195.344 Q1880.22 194.869 1880.63 192.36 L1881.48 192.36 L1880.53 198.197 L1868.07 198.197 Z" fill="#000000" fill-rule="nonzero" fill-opacity="1" /><path clip-path="url(#clip740)" d="M1931.44 208.622 Q1931.72 208.903 1931.72 209.302 Q1931.72 209.7 1931.44 209.981 Q1931.16 210.262 1930.76 210.262 L1900.73 210.262 Q1900.33 210.262 1900.05 209.981 Q1899.77 209.7 1899.77 209.302 Q1899.77 208.903 1900.05 208.622 Q1900.33 208.341 1900.73 208.341 L1930.76 208.341 Q1931.16 208.341 1931.44 208.622 Z" fill="#000000" fill-rule="nonzero" fill-opacity="1" /><path clip-path="url(#clip740)" d="M1950.03 213.565 Q1950.03 212.136 1950.8 211.597 Q1951.58 211.035 1952.39 211.035 Q1953.5 211.035 1954.13 211.738 Q1954.78 212.417 1954.78 213.377 Q1954.78 214.337 1954.13 215.04 Q1953.5 215.719 1952.39 215.719 Q1951.86 215.719 1951.58 215.626 Q1952.21 217.827 1954.13 219.42 Q1956.07 221.013 1958.63 221.013 Q1961.83 221.013 1963.75 217.898 Q1964.9 215.883 1964.9 211.316 Q1964.9 207.287 1964.04 205.273 Q1962.7 202.205 1959.96 202.205 Q1956.07 202.205 1953.78 205.554 Q1953.5 205.976 1953.17 205.999 Q1952.7 205.999 1952.58 205.741 Q1952.49 205.46 1952.49 204.734 L1952.49 190.54 Q1952.49 189.393 1952.96 189.393 Q1953.14 189.393 1953.54 189.533 Q1956.56 190.868 1959.91 190.892 Q1963.36 190.892 1966.45 189.486 Q1966.68 189.346 1966.82 189.346 Q1967.29 189.346 1967.31 189.884 Q1967.31 190.072 1966.92 190.634 Q1966.54 191.173 1965.72 191.899 Q1964.9 192.601 1963.85 193.281 Q1962.79 193.96 1961.25 194.428 Q1959.73 194.873 1958.04 194.873 Q1956.03 194.873 1953.96 194.241 L1953.96 203.587 Q1956.45 201.151 1960.05 201.151 Q1963.9 201.151 1966.54 204.242 Q1969.19 207.334 1969.19 211.644 Q1969.19 216.164 1966.05 219.256 Q1962.93 222.348 1958.72 222.348 Q1954.88 222.348 1952.44 219.608 Q1950.03 216.867 1950.03 213.565 Z" fill="#000000" fill-rule="nonzero" fill-opacity="1" /><path clip-path="url(#clip740)" d="M1702.53 237.944 L1974.37 237.944 L1974.37 235.384 L1702.53 235.384  Z" fill="#000000" fill-rule="evenodd" fill-opacity="1"/>
<path clip-path="url(#clip740)" d="M1717.26 273.548 Q1717.26 274.203 1716.96 274.367 Q1716.65 274.508 1715.81 274.508 L1711.31 274.508 L1707.75 288.655 Q1707.47 289.897 1707.47 290.951 Q1707.47 292.122 1707.82 292.637 Q1708.2 293.152 1708.97 293.152 Q1710.49 293.152 1712.13 291.77 Q1713.79 290.388 1715.2 287.016 Q1715.39 286.571 1715.48 286.477 Q1715.6 286.36 1715.9 286.36 Q1716.49 286.36 1716.49 286.828 Q1716.49 286.992 1716.16 287.742 Q1715.86 288.491 1715.18 289.592 Q1714.52 290.693 1713.65 291.723 Q1712.81 292.754 1711.52 293.504 Q1710.23 294.23 1708.85 294.23 Q1706.91 294.23 1705.67 292.988 Q1704.45 291.747 1704.45 289.803 Q1704.45 289.17 1704.94 287.156 Q1705.43 285.118 1708.1 274.508 L1703.86 274.508 Q1703.28 274.508 1703.04 274.485 Q1702.83 274.461 1702.67 274.344 Q1702.53 274.203 1702.53 273.922 Q1702.53 273.477 1702.72 273.29 Q1702.9 273.079 1703.14 273.056 Q1703.39 273.009 1703.98 273.009 L1708.48 273.009 L1710.35 265.397 Q1710.54 264.647 1711.01 264.226 Q1711.5 263.78 1711.78 263.734 Q1712.06 263.663 1712.27 263.663 Q1712.9 263.663 1713.28 264.015 Q1713.65 264.343 1713.65 264.952 Q1713.65 265.28 1711.69 273.009 L1715.9 273.009 Q1716.44 273.009 1716.65 273.032 Q1716.89 273.056 1717.07 273.173 Q1717.26 273.29 1717.26 273.548 Z" fill="#000000" fill-rule="nonzero" fill-opacity="1" /><path clip-path="url(#clip740)" d="M1722.24 265.165 L1722.24 264.132 L1732.55 248.375 Q1732.81 247.966 1733.22 247.982 Q1733.6 247.982 1733.68 248.13 Q1733.76 248.277 1733.76 248.851 L1733.76 264.132 L1737.12 264.132 L1737.12 265.165 L1733.76 265.165 L1733.76 268.083 Q1733.76 269.05 1734.16 269.362 Q1734.57 269.674 1736.3 269.674 L1737.01 269.674 L1737.01 270.706 Q1735.63 270.608 1732.45 270.608 Q1729.29 270.608 1727.91 270.706 L1727.91 269.674 L1728.61 269.674 Q1730.35 269.674 1730.76 269.378 Q1731.17 269.067 1731.17 268.083 L1731.17 265.165 L1722.24 265.165 M1723.19 264.132 L1731.37 264.132 L1731.37 251.605 L1723.19 264.132 Z" fill="#000000" fill-rule="nonzero" fill-opacity="1" /><path clip-path="url(#clip740)" d="M1756.5 282.284 Q1755.4 282.284 1755.4 281.699 Q1755.4 281.113 1756.55 281.113 Q1756.69 281.113 1756.92 281.137 Q1757.18 281.16 1757.23 281.16 L1770.74 281.16 L1770.74 267.598 Q1770.74 267.551 1770.72 267.341 Q1770.7 267.106 1770.7 266.966 Q1770.7 265.818 1771.26 265.818 Q1771.84 265.818 1771.84 266.966 L1771.84 281.16 L1785.38 281.16 Q1785.43 281.16 1785.66 281.137 Q1785.9 281.113 1786.04 281.113 Q1787.14 281.113 1787.14 281.699 Q1787.16 282.284 1785.99 282.284 Q1785.85 282.284 1785.64 282.261 Q1785.43 282.237 1785.38 282.237 L1771.84 282.237 L1771.84 296.478 Q1771.84 297.579 1771.26 297.579 Q1770.7 297.579 1770.7 296.431 Q1770.7 296.291 1770.72 296.057 Q1770.74 295.846 1770.74 295.799 L1770.74 282.237 L1757.23 282.237 Q1757.18 282.237 1756.9 282.261 Q1756.64 282.284 1756.5 282.284 Z" fill="#000000" fill-rule="nonzero" fill-opacity="1" /><path clip-path="url(#clip740)" d="M1805.66 272.54 Q1805.66 269.987 1806.41 268.254 Q1807.16 266.497 1808.73 264.764 Q1811.61 261.743 1815.78 261.743 Q1817.56 261.743 1819.13 262.492 Q1820.72 263.242 1822.22 264.952 Q1823.74 266.638 1824.66 269.987 Q1825.57 273.313 1825.57 277.904 Q1825.57 285.329 1821.96 290.037 Q1818.38 294.745 1813.53 294.745 Q1810.46 294.745 1808.66 293.363 Q1806.86 291.958 1806.86 289.569 Q1806.86 288.327 1807.56 287.812 Q1808.26 287.273 1809.06 287.273 Q1809.92 287.273 1810.6 287.859 Q1811.28 288.421 1811.28 289.475 Q1811.28 290.342 1810.72 291.021 Q1810.18 291.677 1808.78 291.677 Q1810.16 293.41 1813.48 293.41 Q1814.68 293.41 1815.87 292.871 Q1817.07 292.309 1818.36 290.974 Q1819.67 289.615 1820.46 286.781 Q1821.26 283.947 1821.26 279.965 L1821.26 278.443 Q1819.34 283.245 1815.26 283.245 Q1811.24 283.245 1808.45 280.153 Q1805.66 277.061 1805.66 272.54 M1809.97 272.587 Q1809.97 277.342 1810.84 279.099 Q1812.31 282.12 1815.31 282.12 Q1818.24 282.12 1819.69 279.52 Q1821.17 276.897 1821.17 273.501 Q1821.17 268.793 1820.39 266.732 Q1818.96 262.937 1815.78 262.937 Q1812.62 262.937 1810.98 265.959 Q1809.97 267.739 1809.97 272.587 Z" fill="#000000" fill-rule="nonzero" fill-opacity="1" /><path clip-path="url(#clip740)" d="M1844.15 273.548 Q1844.15 274.203 1843.84 274.367 Q1843.54 274.508 1842.69 274.508 L1838.2 274.508 L1834.64 288.655 Q1834.36 289.897 1834.36 290.951 Q1834.36 292.122 1834.71 292.637 Q1835.08 293.152 1835.86 293.152 Q1837.38 293.152 1839.02 291.77 Q1840.68 290.388 1842.09 287.016 Q1842.27 286.571 1842.37 286.477 Q1842.48 286.36 1842.79 286.36 Q1843.37 286.36 1843.37 286.828 Q1843.37 286.992 1843.05 287.742 Q1842.74 288.491 1842.06 289.592 Q1841.41 290.693 1840.54 291.723 Q1839.7 292.754 1838.41 293.504 Q1837.12 294.23 1835.74 294.23 Q1833.79 294.23 1832.55 292.988 Q1831.33 291.747 1831.33 289.803 Q1831.33 289.17 1831.83 287.156 Q1832.32 285.118 1834.99 274.508 L1830.75 274.508 Q1830.16 274.508 1829.93 274.485 Q1829.72 274.461 1829.55 274.344 Q1829.41 274.203 1829.41 273.922 Q1829.41 273.477 1829.6 273.29 Q1829.79 273.079 1830.02 273.056 Q1830.28 273.009 1830.87 273.009 L1835.36 273.009 L1837.24 265.397 Q1837.42 264.647 1837.89 264.226 Q1838.38 263.78 1838.67 263.734 Q1838.95 263.663 1839.16 263.663 Q1839.79 263.663 1840.16 264.015 Q1840.54 264.343 1840.54 264.952 Q1840.54 265.28 1838.57 273.009 L1842.79 273.009 Q1843.33 273.009 1843.54 273.032 Q1843.77 273.056 1843.96 273.173 Q1844.15 273.29 1844.15 273.548 Z" fill="#000000" fill-rule="nonzero" fill-opacity="1" /><path clip-path="url(#clip740)" d="M1849.12 270.594 Q1849.12 269.987 1849.17 269.807 Q1849.24 269.626 1849.5 269.348 L1855.94 262.166 Q1859.47 258.199 1859.47 254.739 Q1859.47 252.493 1858.29 250.886 Q1857.12 249.279 1854.98 249.279 Q1853.5 249.279 1852.25 250.181 Q1851.01 251.083 1850.43 252.69 Q1850.53 252.657 1850.88 252.657 Q1851.71 252.657 1852.17 253.182 Q1852.65 253.706 1852.65 254.411 Q1852.65 255.313 1852.06 255.756 Q1851.48 256.182 1850.91 256.182 Q1850.68 256.182 1850.37 256.133 Q1850.07 256.084 1849.6 255.625 Q1849.12 255.149 1849.12 254.313 Q1849.12 251.968 1850.89 250.099 Q1852.68 248.23 1855.4 248.23 Q1858.48 248.23 1860.5 250.066 Q1862.53 251.886 1862.53 254.739 Q1862.53 255.739 1862.22 256.657 Q1861.93 257.559 1861.52 258.264 Q1861.12 258.969 1860.04 260.101 Q1858.96 261.232 1858.09 262.035 Q1857.22 262.839 1855.27 264.544 L1851.71 268.003 L1857.76 268.003 Q1860.71 268.003 1860.94 267.741 Q1861.27 267.266 1861.68 264.757 L1862.53 264.757 L1861.58 270.594 L1849.12 270.594 Z" fill="#000000" fill-rule="nonzero" fill-opacity="1" /><path clip-path="url(#clip740)" d="M1912.49 281.019 Q1912.77 281.3 1912.77 281.699 Q1912.77 282.097 1912.49 282.378 Q1912.21 282.659 1911.81 282.659 L1881.78 282.659 Q1881.39 282.659 1881.1 282.378 Q1880.82 282.097 1880.82 281.699 Q1880.82 281.3 1881.1 281.019 Q1881.39 280.738 1881.78 280.738 L1911.81 280.738 Q1912.21 280.738 1912.49 281.019 Z" fill="#000000" fill-rule="nonzero" fill-opacity="1" /><path clip-path="url(#clip740)" d="M1931.08 266.31 L1931.08 264.811 Q1936.85 264.811 1939.82 261.743 Q1940.64 261.743 1940.78 261.93 Q1940.92 262.117 1940.92 262.984 L1940.92 289.897 Q1940.92 291.325 1941.62 291.77 Q1942.33 292.215 1945.4 292.215 L1946.92 292.215 L1946.92 293.691 Q1945.23 293.55 1939.14 293.55 Q1933.05 293.55 1931.39 293.691 L1931.39 292.215 L1932.91 292.215 Q1935.93 292.215 1936.66 291.794 Q1937.38 291.349 1937.38 289.897 L1937.38 265.045 Q1934.88 266.31 1931.08 266.31 Z" fill="#000000" fill-rule="nonzero" fill-opacity="1" /><path clip-path="url(#clip740)" d="M1949.26 278.349 Q1949.26 271.299 1951.04 267.458 Q1953.52 261.743 1959.38 261.743 Q1960.62 261.743 1961.91 262.094 Q1963.22 262.422 1964.86 263.71 Q1966.52 264.998 1967.53 267.106 Q1969.45 271.182 1969.45 278.349 Q1969.45 285.353 1967.67 289.17 Q1965.07 294.745 1959.33 294.745 Q1957.18 294.745 1954.97 293.644 Q1952.8 292.543 1951.41 289.897 Q1949.26 285.938 1949.26 278.349 M1953.24 277.764 Q1953.24 285.001 1953.76 287.882 Q1954.34 290.997 1955.93 292.356 Q1957.55 293.691 1959.33 293.691 Q1961.25 293.691 1962.84 292.262 Q1964.46 290.81 1964.95 287.695 Q1965.49 284.626 1965.47 277.764 Q1965.47 271.088 1965 268.418 Q1964.37 265.303 1962.68 264.062 Q1961.02 262.797 1959.33 262.797 Q1958.7 262.797 1958.02 262.984 Q1957.36 263.172 1956.4 263.71 Q1955.44 264.249 1954.69 265.584 Q1953.97 266.919 1953.62 268.933 Q1953.24 271.533 1953.24 277.764 Z" fill="#000000" fill-rule="nonzero" fill-opacity="1" /></svg>
