<?xml version="1.0" encoding="utf-8"?>
<svg xmlns="http://www.w3.org/2000/svg" xmlns:xlink="http://www.w3.org/1999/xlink" width="672" height="480" viewBox="0 0 2688 1920">
<defs>
  <clipPath id="clip750">
    <rect x="0" y="0" width="2688" height="1920"/>
  </clipPath>
</defs>
<path clip-path="url(#clip750)" d="
M0 1920 L2688 1920 L2688 0 L0 0  Z
  " fill="#ffffff" fill-rule="evenodd" fill-opacity="1"/>
<defs>
  <clipPath id="clip751">
    <rect x="537" y="0" width="1883" height="1883"/>
  </clipPath>
</defs>
<defs>
  <clipPath id="clip752">
    <rect x="187" y="47" width="2455" height="1755"/>
  </clipPath>
</defs>
<path clip-path="url(#clip750)" d="
M196.816 1800.78 L2640.76 1800.78 L2640.76 47.2441 L196.816 47.2441  Z
  " fill="#ffffff" fill-rule="evenodd" fill-opacity="1"/>
<defs>
  <clipPath id="clip753">
    <rect x="196" y="47" width="2445" height="1755"/>
  </clipPath>
</defs>
<polyline clip-path="url(#clip753)" style="stroke:#000000; stroke-linecap:round; stroke-linejoin:round; stroke-width:2; stroke-opacity:0.1; fill:none" points="
  554.185,1800.78 554.185,47.2441 
  "/>
<polyline clip-path="url(#clip753)" style="stroke:#000000; stroke-linecap:round; stroke-linejoin:round; stroke-width:2; stroke-opacity:0.1; fill:none" points="
  986.485,1800.78 986.485,47.2441 
  "/>
<polyline clip-path="url(#clip753)" style="stroke:#000000; stroke-linecap:round; stroke-linejoin:round; stroke-width:2; stroke-opacity:0.1; fill:none" points="
  1418.79,1800.78 1418.79,47.2441 
  "/>
<polyline clip-path="url(#clip753)" style="stroke:#000000; stroke-linecap:round; stroke-linejoin:round; stroke-width:2; stroke-opacity:0.1; fill:none" points="
  1851.09,1800.78 1851.09,47.2441 
  "/>
<polyline clip-path="url(#clip753)" style="stroke:#000000; stroke-linecap:round; stroke-linejoin:round; stroke-width:2; stroke-opacity:0.1; fill:none" points="
  2283.39,1800.78 2283.39,47.2441 
  "/>
<polyline clip-path="url(#clip750)" style="stroke:#000000; stroke-linecap:round; stroke-linejoin:round; stroke-width:4; stroke-opacity:1; fill:none" points="
  196.816,1800.78 2640.76,1800.78 
  "/>
<polyline clip-path="url(#clip750)" style="stroke:#000000; stroke-linecap:round; stroke-linejoin:round; stroke-width:4; stroke-opacity:1; fill:none" points="
  554.185,1800.78 554.185,1781.88 
  "/>
<polyline clip-path="url(#clip750)" style="stroke:#000000; stroke-linecap:round; stroke-linejoin:round; stroke-width:4; stroke-opacity:1; fill:none" points="
  986.485,1800.78 986.485,1781.88 
  "/>
<polyline clip-path="url(#clip750)" style="stroke:#000000; stroke-linecap:round; stroke-linejoin:round; stroke-width:4; stroke-opacity:1; fill:none" points="
  1418.79,1800.78 1418.79,1781.88 
  "/>
<polyline clip-path="url(#clip750)" style="stroke:#000000; stroke-linecap:round; stroke-linejoin:round; stroke-width:4; stroke-opacity:1; fill:none" points="
  1851.09,1800.78 1851.09,1781.88 
  "/>
<polyline clip-path="url(#clip750)" style="stroke:#000000; stroke-linecap:round; stroke-linejoin:round; stroke-width:4; stroke-opacity:1; fill:none" points="
  2283.39,1800.78 2283.39,1781.88 
  "/>
<path clip-path="url(#clip750)" d="M523.247 1848.65 L552.923 1848.65 L552.923 1852.59 L523.247 1852.59 L523.247 1848.65 Z" fill="#000000" fill-rule="evenodd" fill-opacity="1" /><path clip-path="url(#clip750)" d="M573.594 1846.34 Q570.446 1846.34 568.594 1848.49 Q566.766 1850.65 566.766 1854.4 Q566.766 1858.12 568.594 1860.3 Q570.446 1862.45 573.594 1862.45 Q576.742 1862.45 578.571 1860.3 Q580.423 1858.12 580.423 1854.4 Q580.423 1850.65 578.571 1848.49 Q576.742 1846.34 573.594 1846.34 M582.877 1831.69 L582.877 1835.95 Q581.117 1835.11 579.312 1834.67 Q577.529 1834.23 575.77 1834.23 Q571.14 1834.23 568.687 1837.36 Q566.256 1840.48 565.909 1846.8 Q567.275 1844.79 569.335 1843.72 Q571.395 1842.64 573.872 1842.64 Q579.08 1842.64 582.09 1845.81 Q585.122 1848.96 585.122 1854.4 Q585.122 1859.72 581.974 1862.94 Q578.826 1866.15 573.594 1866.15 Q567.599 1866.15 564.428 1861.57 Q561.256 1856.96 561.256 1848.24 Q561.256 1840.04 565.145 1835.18 Q569.034 1830.3 575.585 1830.3 Q577.344 1830.3 579.127 1830.65 Q580.932 1830.99 582.877 1831.69 Z" fill="#000000" fill-rule="evenodd" fill-opacity="1" /><path clip-path="url(#clip750)" d="M955.953 1848.65 L985.629 1848.65 L985.629 1852.59 L955.953 1852.59 L955.953 1848.65 Z" fill="#000000" fill-rule="evenodd" fill-opacity="1" /><path clip-path="url(#clip750)" d="M1009.89 1846.85 Q1013.24 1847.57 1015.12 1849.84 Q1017.02 1852.1 1017.02 1855.44 Q1017.02 1860.55 1013.5 1863.35 Q1009.98 1866.15 1003.5 1866.15 Q1001.32 1866.15 999.008 1865.71 Q996.717 1865.3 994.263 1864.44 L994.263 1859.93 Q996.207 1861.06 998.522 1861.64 Q1000.84 1862.22 1003.36 1862.22 Q1007.76 1862.22 1010.05 1860.48 Q1012.36 1858.75 1012.36 1855.44 Q1012.36 1852.38 1010.21 1850.67 Q1008.08 1848.93 1004.26 1848.93 L1000.24 1848.93 L1000.24 1845.09 L1004.45 1845.09 Q1007.9 1845.09 1009.73 1843.72 Q1011.55 1842.34 1011.55 1839.74 Q1011.55 1837.08 1009.66 1835.67 Q1007.78 1834.23 1004.26 1834.23 Q1002.34 1834.23 1000.14 1834.65 Q997.944 1835.07 995.305 1835.95 L995.305 1831.78 Q997.967 1831.04 1000.28 1830.67 Q1002.62 1830.3 1004.68 1830.3 Q1010 1830.3 1013.11 1832.73 Q1016.21 1835.14 1016.21 1839.26 Q1016.21 1842.13 1014.56 1844.12 Q1012.92 1846.09 1009.89 1846.85 Z" fill="#000000" fill-rule="evenodd" fill-opacity="1" /><path clip-path="url(#clip750)" d="M1418.79 1834 Q1415.17 1834 1413.35 1837.57 Q1411.54 1841.11 1411.54 1848.24 Q1411.54 1855.34 1413.35 1858.91 Q1415.17 1862.45 1418.79 1862.45 Q1422.42 1862.45 1424.23 1858.91 Q1426.05 1855.34 1426.05 1848.24 Q1426.05 1841.11 1424.23 1837.57 Q1422.42 1834 1418.79 1834 M1418.79 1830.3 Q1424.6 1830.3 1427.65 1834.9 Q1430.73 1839.49 1430.73 1848.24 Q1430.73 1856.96 1427.65 1861.57 Q1424.6 1866.15 1418.79 1866.15 Q1412.98 1866.15 1409.9 1861.57 Q1406.84 1856.96 1406.84 1848.24 Q1406.84 1839.49 1409.9 1834.9 Q1412.98 1830.3 1418.79 1830.3 Z" fill="#000000" fill-rule="evenodd" fill-opacity="1" /><path clip-path="url(#clip750)" d="M1855.33 1846.85 Q1858.69 1847.57 1860.57 1849.84 Q1862.46 1852.1 1862.46 1855.44 Q1862.46 1860.55 1858.95 1863.35 Q1855.43 1866.15 1848.95 1866.15 Q1846.77 1866.15 1844.45 1865.71 Q1842.16 1865.3 1839.71 1864.44 L1839.71 1859.93 Q1841.65 1861.06 1843.97 1861.64 Q1846.28 1862.22 1848.81 1862.22 Q1853.2 1862.22 1855.5 1860.48 Q1857.81 1858.75 1857.81 1855.44 Q1857.81 1852.38 1855.66 1850.67 Q1853.53 1848.93 1849.71 1848.93 L1845.68 1848.93 L1845.68 1845.09 L1849.89 1845.09 Q1853.34 1845.09 1855.17 1843.72 Q1857 1842.34 1857 1839.74 Q1857 1837.08 1855.1 1835.67 Q1853.23 1834.23 1849.71 1834.23 Q1847.79 1834.23 1845.59 1834.65 Q1843.39 1835.07 1840.75 1835.95 L1840.75 1831.78 Q1843.41 1831.04 1845.73 1830.67 Q1848.07 1830.3 1850.13 1830.3 Q1855.45 1830.3 1858.55 1832.73 Q1861.65 1835.14 1861.65 1839.26 Q1861.65 1842.13 1860.01 1844.12 Q1858.37 1846.09 1855.33 1846.85 Z" fill="#000000" fill-rule="evenodd" fill-opacity="1" /><path clip-path="url(#clip750)" d="M2283.79 1846.34 Q2280.64 1846.34 2278.79 1848.49 Q2276.96 1850.65 2276.96 1854.4 Q2276.96 1858.12 2278.79 1860.3 Q2280.64 1862.45 2283.79 1862.45 Q2286.94 1862.45 2288.77 1860.3 Q2290.62 1858.12 2290.62 1854.4 Q2290.62 1850.65 2288.77 1848.49 Q2286.94 1846.34 2283.79 1846.34 M2293.07 1831.69 L2293.07 1835.95 Q2291.32 1835.11 2289.51 1834.67 Q2287.73 1834.23 2285.97 1834.23 Q2281.34 1834.23 2278.89 1837.36 Q2276.45 1840.48 2276.11 1846.8 Q2277.47 1844.79 2279.53 1843.72 Q2281.59 1842.64 2284.07 1842.64 Q2289.28 1842.64 2292.29 1845.81 Q2295.32 1848.96 2295.32 1854.4 Q2295.32 1859.72 2292.17 1862.94 Q2289.02 1866.15 2283.79 1866.15 Q2277.8 1866.15 2274.63 1861.57 Q2271.45 1856.96 2271.45 1848.24 Q2271.45 1840.04 2275.34 1835.18 Q2279.23 1830.3 2285.78 1830.3 Q2287.54 1830.3 2289.32 1830.65 Q2291.13 1830.99 2293.07 1831.69 Z" fill="#000000" fill-rule="evenodd" fill-opacity="1" /><polyline clip-path="url(#clip753)" style="stroke:#000000; stroke-linecap:round; stroke-linejoin:round; stroke-width:2; stroke-opacity:0.1; fill:none" points="
  196.816,1800.78 2640.76,1800.78 
  "/>
<polyline clip-path="url(#clip753)" style="stroke:#000000; stroke-linecap:round; stroke-linejoin:round; stroke-width:2; stroke-opacity:0.1; fill:none" points="
  196.816,1362.4 2640.76,1362.4 
  "/>
<polyline clip-path="url(#clip753)" style="stroke:#000000; stroke-linecap:round; stroke-linejoin:round; stroke-width:2; stroke-opacity:0.1; fill:none" points="
  196.816,924.012 2640.76,924.012 
  "/>
<polyline clip-path="url(#clip753)" style="stroke:#000000; stroke-linecap:round; stroke-linejoin:round; stroke-width:2; stroke-opacity:0.1; fill:none" points="
  196.816,485.628 2640.76,485.628 
  "/>
<polyline clip-path="url(#clip753)" style="stroke:#000000; stroke-linecap:round; stroke-linejoin:round; stroke-width:2; stroke-opacity:0.1; fill:none" points="
  196.816,47.2441 2640.76,47.2441 
  "/>
<polyline clip-path="url(#clip750)" style="stroke:#000000; stroke-linecap:round; stroke-linejoin:round; stroke-width:4; stroke-opacity:1; fill:none" points="
  196.816,1800.78 196.816,47.2441 
  "/>
<polyline clip-path="url(#clip750)" style="stroke:#000000; stroke-linecap:round; stroke-linejoin:round; stroke-width:4; stroke-opacity:1; fill:none" points="
  196.816,1800.78 215.714,1800.78 
  "/>
<polyline clip-path="url(#clip750)" style="stroke:#000000; stroke-linecap:round; stroke-linejoin:round; stroke-width:4; stroke-opacity:1; fill:none" points="
  196.816,1362.4 215.714,1362.4 
  "/>
<polyline clip-path="url(#clip750)" style="stroke:#000000; stroke-linecap:round; stroke-linejoin:round; stroke-width:4; stroke-opacity:1; fill:none" points="
  196.816,924.012 215.714,924.012 
  "/>
<polyline clip-path="url(#clip750)" style="stroke:#000000; stroke-linecap:round; stroke-linejoin:round; stroke-width:4; stroke-opacity:1; fill:none" points="
  196.816,485.628 215.714,485.628 
  "/>
<polyline clip-path="url(#clip750)" style="stroke:#000000; stroke-linecap:round; stroke-linejoin:round; stroke-width:4; stroke-opacity:1; fill:none" points="
  196.816,47.2441 215.714,47.2441 
  "/>
<path clip-path="url(#clip750)" d="M49.5521 1801.23 L79.2279 1801.23 L79.2279 1805.17 L49.5521 1805.17 L49.5521 1801.23 Z" fill="#000000" fill-rule="evenodd" fill-opacity="1" /><path clip-path="url(#clip750)" d="M90.1306 1814.12 L97.7695 1814.12 L97.7695 1787.76 L89.4593 1789.43 L89.4593 1785.17 L97.7232 1783.5 L102.399 1783.5 L102.399 1814.12 L110.038 1814.12 L110.038 1818.06 L90.1306 1818.06 L90.1306 1814.12 Z" fill="#000000" fill-rule="evenodd" fill-opacity="1" /><path clip-path="url(#clip750)" d="M119.482 1812.18 L124.367 1812.18 L124.367 1818.06 L119.482 1818.06 L119.482 1812.18 Z" fill="#000000" fill-rule="evenodd" fill-opacity="1" /><path clip-path="url(#clip750)" d="M144.552 1786.58 Q140.941 1786.58 139.112 1790.14 Q137.306 1793.68 137.306 1800.81 Q137.306 1807.92 139.112 1811.49 Q140.941 1815.03 144.552 1815.03 Q148.186 1815.03 149.991 1811.49 Q151.82 1807.92 151.82 1800.81 Q151.82 1793.68 149.991 1790.14 Q148.186 1786.58 144.552 1786.58 M144.552 1782.87 Q150.362 1782.87 153.417 1787.48 Q156.496 1792.06 156.496 1800.81 Q156.496 1809.54 153.417 1814.15 Q150.362 1818.73 144.552 1818.73 Q138.741 1818.73 135.663 1814.15 Q132.607 1809.54 132.607 1800.81 Q132.607 1792.06 135.663 1787.48 Q138.741 1782.87 144.552 1782.87 Z" fill="#000000" fill-rule="evenodd" fill-opacity="1" /><path clip-path="url(#clip750)" d="M50.5475 1362.85 L80.2233 1362.85 L80.2233 1366.78 L50.5475 1366.78 L50.5475 1362.85 Z" fill="#000000" fill-rule="evenodd" fill-opacity="1" /><path clip-path="url(#clip750)" d="M100.316 1348.19 Q96.7047 1348.19 94.876 1351.76 Q93.0704 1355.3 93.0704 1362.43 Q93.0704 1369.54 94.876 1373.1 Q96.7047 1376.64 100.316 1376.64 Q103.95 1376.64 105.756 1373.1 Q107.584 1369.54 107.584 1362.43 Q107.584 1355.3 105.756 1351.76 Q103.95 1348.19 100.316 1348.19 M100.316 1344.49 Q106.126 1344.49 109.181 1349.1 Q112.26 1353.68 112.26 1362.43 Q112.26 1371.16 109.181 1375.76 Q106.126 1380.35 100.316 1380.35 Q94.5056 1380.35 91.4269 1375.76 Q88.3714 1371.16 88.3714 1362.43 Q88.3714 1353.68 91.4269 1349.1 Q94.5056 1344.49 100.316 1344.49 Z" fill="#000000" fill-rule="evenodd" fill-opacity="1" /><path clip-path="url(#clip750)" d="M120.478 1373.8 L125.362 1373.8 L125.362 1379.68 L120.478 1379.68 L120.478 1373.8 Z" fill="#000000" fill-rule="evenodd" fill-opacity="1" /><path clip-path="url(#clip750)" d="M135.593 1345.12 L153.95 1345.12 L153.95 1349.05 L139.876 1349.05 L139.876 1357.52 Q140.894 1357.18 141.913 1357.01 Q142.931 1356.83 143.95 1356.83 Q149.737 1356.83 153.116 1360 Q156.496 1363.17 156.496 1368.59 Q156.496 1374.17 153.024 1377.27 Q149.552 1380.35 143.232 1380.35 Q141.056 1380.35 138.788 1379.98 Q136.542 1379.61 134.135 1378.87 L134.135 1374.17 Q136.218 1375.3 138.441 1375.86 Q140.663 1376.41 143.14 1376.41 Q147.144 1376.41 149.482 1374.31 Q151.82 1372.2 151.82 1368.59 Q151.82 1364.98 149.482 1362.87 Q147.144 1360.76 143.14 1360.76 Q141.265 1360.76 139.39 1361.18 Q137.538 1361.6 135.593 1362.48 L135.593 1345.12 Z" fill="#000000" fill-rule="evenodd" fill-opacity="1" /><path clip-path="url(#clip750)" d="M99.3204 909.81 Q95.7093 909.81 93.8806 913.375 Q92.075 916.917 92.075 924.046 Q92.075 931.153 93.8806 934.718 Q95.7093 938.259 99.3204 938.259 Q102.955 938.259 104.76 934.718 Q106.589 931.153 106.589 924.046 Q106.589 916.917 104.76 913.375 Q102.955 909.81 99.3204 909.81 M99.3204 906.107 Q105.131 906.107 108.186 910.713 Q111.265 915.296 111.265 924.046 Q111.265 932.773 108.186 937.38 Q105.131 941.963 99.3204 941.963 Q93.5102 941.963 90.4315 937.38 Q87.376 932.773 87.376 924.046 Q87.376 915.296 90.4315 910.713 Q93.5102 906.107 99.3204 906.107 Z" fill="#000000" fill-rule="evenodd" fill-opacity="1" /><path clip-path="url(#clip750)" d="M119.482 935.412 L124.367 935.412 L124.367 941.292 L119.482 941.292 L119.482 935.412 Z" fill="#000000" fill-rule="evenodd" fill-opacity="1" /><path clip-path="url(#clip750)" d="M144.552 909.81 Q140.941 909.81 139.112 913.375 Q137.306 916.917 137.306 924.046 Q137.306 931.153 139.112 934.718 Q140.941 938.259 144.552 938.259 Q148.186 938.259 149.991 934.718 Q151.82 931.153 151.82 924.046 Q151.82 916.917 149.991 913.375 Q148.186 909.81 144.552 909.81 M144.552 906.107 Q150.362 906.107 153.417 910.713 Q156.496 915.296 156.496 924.046 Q156.496 932.773 153.417 937.38 Q150.362 941.963 144.552 941.963 Q138.741 941.963 135.663 937.38 Q132.607 932.773 132.607 924.046 Q132.607 915.296 135.663 910.713 Q138.741 906.107 144.552 906.107 Z" fill="#000000" fill-rule="evenodd" fill-opacity="1" /><path clip-path="url(#clip750)" d="M100.316 471.427 Q96.7047 471.427 94.876 474.991 Q93.0704 478.533 93.0704 485.663 Q93.0704 492.769 94.876 496.334 Q96.7047 499.876 100.316 499.876 Q103.95 499.876 105.756 496.334 Q107.584 492.769 107.584 485.663 Q107.584 478.533 105.756 474.991 Q103.95 471.427 100.316 471.427 M100.316 467.723 Q106.126 467.723 109.181 472.329 Q112.26 476.913 112.26 485.663 Q112.26 494.389 109.181 498.996 Q106.126 503.579 100.316 503.579 Q94.5056 503.579 91.4269 498.996 Q88.3714 494.389 88.3714 485.663 Q88.3714 476.913 91.4269 472.329 Q94.5056 467.723 100.316 467.723 Z" fill="#000000" fill-rule="evenodd" fill-opacity="1" /><path clip-path="url(#clip750)" d="M120.478 497.028 L125.362 497.028 L125.362 502.908 L120.478 502.908 L120.478 497.028 Z" fill="#000000" fill-rule="evenodd" fill-opacity="1" /><path clip-path="url(#clip750)" d="M135.593 468.348 L153.95 468.348 L153.95 472.283 L139.876 472.283 L139.876 480.755 Q140.894 480.408 141.913 480.246 Q142.931 480.061 143.95 480.061 Q149.737 480.061 153.116 483.232 Q156.496 486.403 156.496 491.82 Q156.496 497.399 153.024 500.501 Q149.552 503.579 143.232 503.579 Q141.056 503.579 138.788 503.209 Q136.542 502.838 134.135 502.098 L134.135 497.399 Q136.218 498.533 138.441 499.088 Q140.663 499.644 143.14 499.644 Q147.144 499.644 149.482 497.538 Q151.82 495.431 151.82 491.82 Q151.82 488.209 149.482 486.102 Q147.144 483.996 143.14 483.996 Q141.265 483.996 139.39 484.413 Q137.538 484.829 135.593 485.709 L135.593 468.348 Z" fill="#000000" fill-rule="evenodd" fill-opacity="1" /><path clip-path="url(#clip750)" d="M90.1306 60.5889 L97.7695 60.5889 L97.7695 34.2233 L89.4593 35.89 L89.4593 31.6308 L97.7232 29.9641 L102.399 29.9641 L102.399 60.5889 L110.038 60.5889 L110.038 64.5241 L90.1306 64.5241 L90.1306 60.5889 Z" fill="#000000" fill-rule="evenodd" fill-opacity="1" /><path clip-path="url(#clip750)" d="M119.482 58.6445 L124.367 58.6445 L124.367 64.5241 L119.482 64.5241 L119.482 58.6445 Z" fill="#000000" fill-rule="evenodd" fill-opacity="1" /><path clip-path="url(#clip750)" d="M144.552 33.0428 Q140.941 33.0428 139.112 36.6076 Q137.306 40.1492 137.306 47.2788 Q137.306 54.3853 139.112 57.9501 Q140.941 61.4917 144.552 61.4917 Q148.186 61.4917 149.991 57.9501 Q151.82 54.3853 151.82 47.2788 Q151.82 40.1492 149.991 36.6076 Q148.186 33.0428 144.552 33.0428 M144.552 29.3391 Q150.362 29.3391 153.417 33.9456 Q156.496 38.5289 156.496 47.2788 Q156.496 56.0056 153.417 60.6121 Q150.362 65.1954 144.552 65.1954 Q138.741 65.1954 135.663 60.6121 Q132.607 56.0056 132.607 47.2788 Q132.607 38.5289 135.663 33.9456 Q138.741 29.3391 144.552 29.3391 Z" fill="#000000" fill-rule="evenodd" fill-opacity="1" /><polyline clip-path="url(#clip753)" style="stroke:#009af9; stroke-linecap:round; stroke-linejoin:round; stroke-width:4; stroke-opacity:1; fill:none" points="
  265.984,1055.93 269.737,1032.83 273.489,1010.89 277.242,990.049 280.995,970.25 285.332,948.602 289.67,928.207 294.007,908.998 298.344,890.909 302.682,873.883 
  307.019,857.862 311.356,842.795 315.694,828.633 320.031,815.331 324.369,802.847 328.706,791.141 333.043,780.178 341.718,760.345 350.393,743.102 359.068,728.237 
  367.742,715.567 376.417,704.931 385.092,696.192 393.767,689.23 402.441,683.938 411.116,680.226 419.791,678.011 430.217,677.228 440.643,678.393 451.07,681.404 
  461.496,686.17 471.922,692.607 482.349,700.633 492.775,710.17 503.201,721.141 512.017,731.478 520.832,742.739 529.647,754.873 538.463,767.834 547.278,781.569 
  556.093,796.027 564.909,811.155 573.724,826.896 592.876,862.94 612.028,901.005 631.179,940.452 650.331,980.614 667.988,1017.68 685.644,1054.22 703.3,1089.68 
  720.956,1123.52 730.421,1140.8 739.886,1157.38 749.351,1173.18 758.815,1188.13 768.28,1202.14 777.745,1215.15 787.209,1227.1 796.674,1237.9 807.64,1248.91 
  818.606,1258.23 829.571,1265.77 840.537,1271.45 851.503,1275.21 862.469,1276.99 873.435,1276.74 884.4,1274.43 894.145,1270.61 903.891,1265.12 913.636,1257.96 
  923.381,1249.11 933.126,1238.59 942.871,1226.39 952.616,1212.55 962.361,1197.09 970.907,1182.21 979.452,1166.13 987.998,1148.88 996.543,1130.48 1005.09,1110.97 
  1013.63,1090.39 1022.18,1068.78 1030.73,1046.19 1040.04,1020.48 1049.36,993.734 1058.68,966.006 1067.99,937.373 1086.63,877.705 1105.26,815.388 1142.75,684.857 
  1180.24,552.543 1200.96,480.938 1221.69,411.783 1232.05,378.449 1242.41,346.112 1252.78,314.896 1263.14,284.918 1273,257.649 1282.86,231.698 1292.72,207.155 
  1302.58,184.106 1312.44,162.631 1322.3,142.803 1332.16,124.693 1342.01,108.364 1352.27,93.3342 1362.52,80.348 1372.77,69.4544 1383.02,60.6946 1393.27,54.1018 
  1403.52,49.7011 1413.78,47.5091 1424.03,47.5341 1432.66,49.2739 1441.29,52.5802 1449.92,57.4439 1458.55,63.8521 1467.18,71.7876 1475.81,81.2289 1484.43,92.1508 
  1493.06,104.524 1503.6,121.549 1514.14,140.62 1524.67,161.661 1535.21,184.587 1545.74,209.308 1556.28,235.726 1566.82,263.736 1577.35,293.227 1587,321.445 
  1596.65,350.715 1606.31,380.941 1615.96,412.025 1635.26,476.356 1654.56,542.872 1690.22,668.582 1725.87,793.372 1743.93,854.531 1761.99,913.443 1771.02,941.864 
  1780.05,969.495 1789.08,996.269 1798.11,1022.12 1808.23,1049.91 1818.35,1076.37 1828.47,1101.43 1838.59,1125.02 1848.71,1147.06 1858.83,1167.51 1868.95,1186.3 
  1879.07,1203.4 1888.24,1217.4 1897.41,1229.94 1906.58,1241.03 1915.75,1250.63 1924.92,1258.75 1934.09,1265.39 1943.26,1270.53 1952.43,1274.2 1962.92,1276.59 
  1973.42,1277.09 1983.92,1275.72 1994.42,1272.52 2004.92,1267.56 2015.42,1260.87 2025.92,1252.53 2036.42,1242.6 2046.14,1232.06 2055.86,1220.3 2065.58,1207.37 
  2075.3,1193.36 2085.02,1178.33 2094.74,1162.38 2104.46,1145.58 2114.19,1128.02 2133.35,1091.48 2152.52,1053 2171.69,1013.28 2190.86,973.009 2209.47,934.055 
  2228.08,895.878 2246.69,859.088 2265.3,824.269 2274.84,807.367 2284.37,791.2 2293.91,775.838 2303.45,761.348 2312.99,747.794 2322.53,735.24 2332.07,723.747 
  2341.61,713.376 2352.06,703.37 2362.51,694.859 2372.96,687.921 2383.41,682.637 2393.86,679.091 2404.31,677.371 2414.77,677.578 2425.22,679.819 2432.81,682.793 
  2440.4,686.958 2447.99,692.373 2455.58,699.105 2463.17,707.229 2470.76,716.828 2478.35,727.998 2485.94,740.845 2493.53,755.491 2501.13,772.075 2508.72,790.752 
  2516.31,811.7 2523.9,835.12 2531.49,861.238 2535.28,875.389 2539.08,890.314 2542.88,906.05 2546.67,922.637 2552.9,951.816 2559.13,983.605 2565.36,1018.23 
  2571.59,1055.93 
  "/>
<polyline clip-path="url(#clip753)" style="stroke:#e26f46; stroke-linecap:round; stroke-linejoin:round; stroke-width:4; stroke-opacity:1; fill:none" points="
  265.984,773.514 269.737,768.199 273.489,762.973 277.242,757.84 280.995,752.802 298.344,730.863 315.694,711.399 333.043,694.73 350.393,681.139 359.068,675.576 
  367.742,670.871 376.417,667.048 385.092,664.127 393.767,662.128 402.441,661.064 411.116,660.948 419.791,661.788 430.217,664.07 440.643,667.744 451.07,672.806 
  461.496,679.244 471.922,687.04 482.349,696.17 492.775,706.601 503.201,718.294 512.017,729.132 520.832,740.808 529.647,753.288 538.463,766.534 547.278,780.506 
  556.093,795.159 564.909,810.448 573.724,826.322 592.876,862.576 612.028,900.777 631.179,940.311 650.331,980.527 685.644,1054.18 720.956,1123.5 730.421,1140.79 
  739.886,1157.37 749.351,1173.18 758.815,1188.12 768.28,1202.14 777.745,1215.15 787.209,1227.09 796.674,1237.9 807.64,1248.91 818.606,1258.23 829.571,1265.77 
  840.537,1271.45 851.503,1275.21 862.469,1276.99 873.435,1276.74 884.4,1274.43 894.145,1270.61 903.891,1265.12 913.636,1257.96 923.381,1249.11 933.126,1238.59 
  942.871,1226.39 952.616,1212.55 962.361,1197.09 970.907,1182.21 979.452,1166.13 987.998,1148.88 996.543,1130.48 1005.09,1110.97 1013.63,1090.39 1022.18,1068.78 
  1030.73,1046.19 1040.04,1020.48 1049.36,993.734 1058.68,966.006 1067.99,937.373 1077.31,907.912 1086.63,877.705 1095.94,846.835 1105.26,815.388 1142.75,684.857 
  1180.24,552.543 1200.96,480.938 1221.69,411.783 1232.05,378.449 1242.41,346.112 1252.78,314.896 1263.14,284.918 1273,257.649 1282.86,231.698 1292.72,207.155 
  1302.58,184.106 1312.44,162.631 1322.3,142.803 1332.16,124.693 1342.01,108.364 1352.27,93.3342 1362.52,80.348 1372.77,69.4544 1383.02,60.6946 1393.27,54.1018 
  1403.52,49.7011 1413.78,47.5091 1424.03,47.5341 1432.66,49.2739 1441.29,52.5802 1449.92,57.4439 1458.55,63.8521 1467.18,71.7876 1475.81,81.2289 1484.43,92.1508 
  1493.06,104.524 1503.6,121.549 1514.14,140.62 1524.67,161.661 1535.21,184.587 1545.74,209.308 1556.28,235.726 1566.82,263.736 1577.35,293.227 1587,321.445 
  1596.65,350.715 1606.31,380.941 1615.96,412.025 1635.26,476.356 1654.56,542.872 1690.22,668.582 1725.87,793.372 1743.93,854.531 1761.99,913.443 1780.05,969.495 
  1798.11,1022.12 1808.23,1049.91 1818.35,1076.37 1828.47,1101.43 1838.59,1125.02 1848.71,1147.06 1858.83,1167.51 1868.95,1186.3 1879.07,1203.4 1888.24,1217.4 
  1897.41,1229.94 1906.58,1241.03 1915.75,1250.63 1924.92,1258.75 1934.09,1265.39 1943.26,1270.53 1952.43,1274.2 1962.92,1276.59 1973.42,1277.09 1983.92,1275.72 
  1994.42,1272.52 2004.92,1267.55 2015.42,1260.87 2025.92,1252.53 2036.42,1242.6 2046.14,1232.06 2055.86,1220.29 2065.58,1207.37 2075.3,1193.35 2085.02,1178.33 
  2094.74,1162.38 2104.46,1145.57 2114.19,1128 2133.35,1091.46 2152.52,1052.97 2171.69,1013.22 2190.86,972.914 2209.47,933.903 2228.08,895.636 2246.69,858.707 
  2265.3,823.674 2274.84,806.623 2284.37,790.272 2293.91,774.683 2303.45,759.914 2312.99,746.018 2322.53,733.045 2332.07,721.04 2341.61,710.045 2352.06,699.199 
  2362.51,689.65 2372.96,681.431 2383.41,674.571 2393.86,669.089 2404.31,664.998 2414.77,662.305 2425.22,661.009 2440.4,661.598 2455.58,665.066 2470.76,671.335 
  2485.94,680.296 2501.13,691.814 2516.31,705.728 2531.49,721.856 2546.67,739.992 2552.9,747.962 2559.13,756.218 2565.36,764.74 2571.59,773.514 
  "/>
<path clip-path="url(#clip750)" d="
M1906.47 516.823 L2559.29 516.823 L2559.29 105.695 L1906.47 105.695  Z
  " fill="#ffffff" fill-rule="evenodd" fill-opacity="1"/>
<polyline clip-path="url(#clip750)" style="stroke:#000000; stroke-linecap:round; stroke-linejoin:round; stroke-width:4; stroke-opacity:1; fill:none" points="
  1906.47,516.823 2559.29,516.823 2559.29,105.695 1906.47,105.695 1906.47,516.823 
  "/>
<polyline clip-path="url(#clip750)" style="stroke:#009af9; stroke-linecap:round; stroke-linejoin:round; stroke-width:4; stroke-opacity:1; fill:none" points="
  1933.62,242.738 2096.55,242.738 
  "/>
<path clip-path="url(#clip750)" d="M2204.36 248.652 L2200.23 260.598 L2160.46 260.598 Q2159.92 260.598 2159.71 260.574 Q2159.5 260.551 2159.34 260.434 Q2159.17 260.317 2159.17 260.059 Q2159.17 259.848 2159.59 259.31 L2176.62 238.253 L2159.13 214.175 Q2159.13 213.074 2159.31 212.863 Q2159.5 212.629 2160.46 212.629 L2200.23 212.629 L2204.36 223.848 L2203.16 223.848 Q2202.62 222.396 2201.76 221.178 Q2200.91 219.936 2199.93 219.046 Q2198.97 218.156 2197.7 217.454 Q2196.46 216.728 2195.29 216.283 Q2194.14 215.814 2192.71 215.486 Q2191.29 215.135 2190.14 214.971 Q2189.01 214.784 2187.61 214.69 Q2186.2 214.596 2185.31 214.573 Q2184.42 214.549 2183.3 214.549 L2164.3 214.549 L2179.88 235.934 Q2180.23 236.473 2180.23 236.613 Q2180.23 236.824 2179.78 237.386 L2163.16 257.951 L2183.53 257.951 Q2190.09 257.951 2194.66 256.569 Q2197.75 255.515 2200 253.431 Q2202.27 251.346 2203.16 248.652 L2204.36 248.652 Z" fill="#000000" fill-rule="evenodd" fill-opacity="1" /><path clip-path="url(#clip750)" d="M2156.49 288.906 Q2156.49 289.037 2156.34 289.546 Q2156.2 290.054 2155.83 290.841 Q2155.49 291.628 2155.02 292.349 Q2154.54 293.054 2153.75 293.579 Q2152.98 294.087 2152.1 294.087 Q2150.92 294.087 2150.13 293.3 Q2149.34 292.513 2149.34 291.333 Q2149.34 290.677 2149.69 289.775 Q2151.87 283.955 2151.87 281.954 Q2151.87 279.61 2150.05 279.61 Q2149.15 279.61 2148.29 279.954 Q2147.46 280.282 2146.88 280.741 Q2146.31 281.2 2145.78 281.84 Q2145.28 282.463 2145.01 282.889 Q2144.77 283.299 2144.57 283.709 L2144.14 285.381 Q2144.05 285.84 2143.57 287.627 L2142.83 290.66 Q2142.31 292.923 2142.19 293.136 Q2142.03 293.595 2141.67 293.841 Q2141.31 294.087 2140.95 294.087 Q2140.54 294.087 2140.26 293.841 Q2139.98 293.595 2139.98 293.169 Q2139.98 293.103 2140.03 292.857 Q2140.08 292.612 2140.16 292.267 Q2140.24 291.923 2140.28 291.726 L2142.23 283.971 Q2142.59 282.561 2142.67 282.118 Q2142.77 281.659 2142.77 281.151 Q2142.77 279.61 2141.72 279.61 Q2140.87 279.61 2140.31 280.626 Q2139.75 281.643 2139.28 283.61 Q2139.13 284.151 2139.03 284.266 Q2138.95 284.381 2138.7 284.381 Q2138.29 284.365 2138.29 284.037 Q2138.29 283.955 2138.42 283.414 Q2138.55 282.873 2138.8 282.102 Q2139.06 281.315 2139.31 280.79 Q2139.52 280.397 2139.64 280.216 Q2139.77 280.02 2140.08 279.643 Q2140.41 279.249 2140.83 279.069 Q2141.28 278.872 2141.82 278.872 Q2143.03 278.872 2143.92 279.659 Q2144.8 280.43 2144.92 281.79 Q2147.1 278.872 2150.15 278.872 Q2151.95 278.872 2152.98 279.823 Q2154.02 280.774 2154.02 282.463 Q2154.02 282.856 2153.93 283.364 Q2153.87 283.856 2153.7 284.479 Q2153.56 285.102 2153.42 285.578 Q2153.29 286.053 2153.03 286.824 Q2152.77 287.578 2152.65 287.906 Q2152.54 288.234 2152.26 289.004 Q2152 289.759 2151.97 289.841 Q2151.36 291.365 2151.36 292.234 Q2151.36 292.808 2151.54 293.071 Q2151.74 293.333 2152.16 293.333 Q2153.31 293.333 2154.16 292.202 Q2155.03 291.054 2155.59 289.185 Q2155.72 288.775 2155.79 288.677 Q2155.87 288.578 2156.1 288.578 Q2156.49 288.578 2156.49 288.906 Z" fill="#000000" fill-rule="evenodd" fill-opacity="1" /><path clip-path="url(#clip750)" d="M2167.55 288.611 Q2167.58 288.201 2168.22 288.201 L2188.8 288.201 Q2189.77 288.201 2189.78 288.578 Q2189.78 288.988 2188.87 288.972 L2168.45 288.972 Q2167.55 288.988 2167.55 288.611 M2167.55 282.053 Q2167.55 281.643 2168.26 281.659 L2188.77 281.659 Q2189.77 281.659 2189.78 282.053 Q2189.78 282.43 2188.93 282.43 L2168.22 282.43 Q2167.55 282.43 2167.55 282.053 Z" fill="#000000" fill-rule="evenodd" fill-opacity="1" /><path clip-path="url(#clip750)" d="M2202.74 282.971 Q2202.74 278.036 2203.99 275.347 Q2205.72 271.346 2209.82 271.346 Q2210.69 271.346 2211.59 271.592 Q2212.51 271.822 2213.66 272.724 Q2214.82 273.625 2215.53 275.101 Q2216.87 277.954 2216.87 282.971 Q2216.87 287.873 2215.63 290.546 Q2213.81 294.448 2209.79 294.448 Q2208.28 294.448 2206.74 293.677 Q2205.22 292.907 2204.25 291.054 Q2202.74 288.283 2202.74 282.971 M2205.53 282.561 Q2205.53 287.627 2205.89 289.644 Q2206.3 291.825 2207.41 292.776 Q2208.54 293.71 2209.79 293.71 Q2211.13 293.71 2212.25 292.71 Q2213.38 291.693 2213.72 289.513 Q2214.1 287.365 2214.09 282.561 Q2214.09 277.888 2213.76 276.019 Q2213.31 273.838 2212.13 272.969 Q2210.97 272.084 2209.79 272.084 Q2209.35 272.084 2208.87 272.215 Q2208.41 272.346 2207.74 272.724 Q2207.07 273.101 2206.54 274.035 Q2206.04 274.97 2205.79 276.38 Q2205.53 278.2 2205.53 282.561 Z" fill="#000000" fill-rule="evenodd" fill-opacity="1" /><path clip-path="url(#clip750)" d="M2164.13 177.198 L2164.13 176.149 Q2168.16 176.149 2170.24 174.001 Q2170.82 174.001 2170.92 174.132 Q2171.01 174.263 2171.01 174.87 L2171.01 193.708 Q2171.01 194.709 2171.51 195.02 Q2172 195.332 2174.15 195.332 L2175.21 195.332 L2175.21 196.365 Q2174.03 196.266 2169.77 196.266 Q2165.51 196.266 2164.34 196.365 L2164.34 195.332 L2165.41 195.332 Q2167.52 195.332 2168.03 195.037 Q2168.54 194.725 2168.54 193.708 L2168.54 176.313 Q2166.78 177.198 2164.13 177.198 Z" fill="#000000" fill-rule="evenodd" fill-opacity="1" /><path clip-path="url(#clip750)" d="M2176.9 185.625 Q2176.9 180.69 2178.15 178.001 Q2179.89 174.001 2183.99 174.001 Q2184.85 174.001 2185.76 174.247 Q2186.67 174.476 2187.82 175.378 Q2188.99 176.28 2189.69 177.755 Q2191.04 180.608 2191.04 185.625 Q2191.04 190.528 2189.79 193.2 Q2187.97 197.102 2183.95 197.102 Q2182.44 197.102 2180.9 196.332 Q2179.38 195.561 2178.41 193.708 Q2176.9 190.938 2176.9 185.625 M2179.69 185.215 Q2179.69 190.282 2180.05 192.298 Q2180.46 194.479 2181.58 195.43 Q2182.71 196.365 2183.95 196.365 Q2185.3 196.365 2186.41 195.364 Q2187.54 194.348 2187.89 192.167 Q2188.26 190.019 2188.25 185.215 Q2188.25 180.543 2187.92 178.674 Q2187.48 176.493 2186.3 175.624 Q2185.13 174.739 2183.95 174.739 Q2183.51 174.739 2183.03 174.87 Q2182.58 175.001 2181.9 175.378 Q2181.23 175.755 2180.71 176.69 Q2180.2 177.624 2179.95 179.034 Q2179.69 180.854 2179.69 185.215 Z" fill="#000000" fill-rule="evenodd" fill-opacity="1" /><path clip-path="url(#clip750)" d="M2229.61 236.613 Q2229.61 228.509 2232.63 221.974 Q2233.92 219.234 2235.72 216.938 Q2237.53 214.643 2238.72 213.636 Q2239.91 212.629 2240.24 212.629 Q2240.71 212.629 2240.73 213.097 Q2240.73 213.331 2240.1 213.917 Q2232.37 221.787 2232.4 236.613 Q2232.4 251.487 2239.91 259.052 Q2240.73 259.872 2240.73 260.129 Q2240.73 260.598 2240.24 260.598 Q2239.91 260.598 2238.77 259.638 Q2237.62 258.677 2235.84 256.476 Q2234.06 254.274 2232.77 251.58 Q2229.61 245.045 2229.61 236.613 Z" fill="#000000" fill-rule="evenodd" fill-opacity="1" /><path clip-path="url(#clip750)" d="M2279.7 235.934 Q2279.98 236.215 2279.98 236.613 Q2279.98 237.011 2279.7 237.293 Q2279.42 237.574 2279.02 237.574 L2248.99 237.574 Q2248.59 237.574 2248.31 237.293 Q2248.03 237.011 2248.03 236.613 Q2248.03 236.215 2248.31 235.934 Q2248.59 235.653 2248.99 235.653 L2279.02 235.653 Q2279.42 235.653 2279.7 235.934 Z" fill="#000000" fill-rule="evenodd" fill-opacity="1" /><path clip-path="url(#clip750)" d="M2284.99 221.225 L2284.99 219.726 Q2290.75 219.726 2293.72 216.657 Q2294.54 216.657 2294.68 216.845 Q2294.82 217.032 2294.82 217.899 L2294.82 244.811 Q2294.82 246.24 2295.53 246.685 Q2296.23 247.13 2299.3 247.13 L2300.82 247.13 L2300.82 248.606 Q2299.13 248.465 2293.04 248.465 Q2286.95 248.465 2285.29 248.606 L2285.29 247.13 L2286.81 247.13 Q2289.83 247.13 2290.56 246.708 Q2291.29 246.263 2291.29 244.811 L2291.29 219.96 Q2288.78 221.225 2284.99 221.225 Z" fill="#000000" fill-rule="evenodd" fill-opacity="1" /><path clip-path="url(#clip750)" d="M2308.74 260.129 Q2308.74 259.895 2309.35 259.31 Q2317.08 251.44 2317.08 236.613 Q2317.08 221.74 2309.66 214.221 Q2308.74 213.355 2308.74 213.097 Q2308.74 212.629 2309.21 212.629 Q2309.54 212.629 2310.69 213.589 Q2311.86 214.549 2313.61 216.751 Q2315.39 218.953 2316.71 221.646 Q2319.87 228.181 2319.87 236.613 Q2319.87 244.717 2316.85 251.252 Q2315.56 253.993 2313.75 256.288 Q2311.95 258.584 2310.76 259.591 Q2309.56 260.598 2309.21 260.598 Q2308.74 260.598 2308.74 260.129 Z" fill="#000000" fill-rule="evenodd" fill-opacity="1" /><path clip-path="url(#clip750)" d="M2343.07 212.214 Q2343.07 212.345 2342.92 212.854 Q2342.77 213.362 2342.41 214.149 Q2342.07 214.936 2341.59 215.657 Q2341.12 216.362 2340.33 216.887 Q2339.56 217.395 2338.67 217.395 Q2337.49 217.395 2336.71 216.608 Q2335.92 215.821 2335.92 214.641 Q2335.92 213.985 2336.26 213.083 Q2338.45 207.263 2338.45 205.262 Q2338.45 202.918 2336.63 202.918 Q2335.72 202.918 2334.87 203.262 Q2334.03 203.59 2333.46 204.049 Q2332.89 204.508 2332.36 205.148 Q2331.85 205.771 2331.59 206.197 Q2331.35 206.607 2331.15 207.017 L2330.72 208.689 Q2330.62 209.148 2330.15 210.935 L2329.41 213.968 Q2328.89 216.231 2328.77 216.444 Q2328.61 216.903 2328.25 217.149 Q2327.89 217.395 2327.53 217.395 Q2327.12 217.395 2326.84 217.149 Q2326.56 216.903 2326.56 216.477 Q2326.56 216.411 2326.61 216.165 Q2326.66 215.92 2326.74 215.575 Q2326.82 215.231 2326.85 215.034 L2328.8 207.279 Q2329.17 205.869 2329.25 205.426 Q2329.35 204.967 2329.35 204.459 Q2329.35 202.918 2328.3 202.918 Q2327.44 202.918 2326.89 203.934 Q2326.33 204.951 2325.85 206.918 Q2325.71 207.459 2325.61 207.574 Q2325.53 207.689 2325.28 207.689 Q2324.87 207.673 2324.87 207.345 Q2324.87 207.263 2325 206.722 Q2325.13 206.181 2325.38 205.41 Q2325.64 204.623 2325.89 204.098 Q2326.1 203.705 2326.21 203.524 Q2326.35 203.328 2326.66 202.951 Q2326.98 202.557 2327.41 202.377 Q2327.85 202.18 2328.39 202.18 Q2329.61 202.18 2330.49 202.967 Q2331.38 203.738 2331.49 205.098 Q2333.67 202.18 2336.72 202.18 Q2338.53 202.18 2339.56 203.131 Q2340.59 204.082 2340.59 205.771 Q2340.59 206.164 2340.51 206.672 Q2340.45 207.164 2340.28 207.787 Q2340.13 208.41 2340 208.886 Q2339.87 209.361 2339.61 210.132 Q2339.35 210.886 2339.23 211.214 Q2339.12 211.542 2338.84 212.312 Q2338.58 213.067 2338.54 213.149 Q2337.94 214.673 2337.94 215.542 Q2337.94 216.116 2338.12 216.379 Q2338.31 216.641 2338.74 216.641 Q2339.89 216.641 2340.74 215.51 Q2341.61 214.362 2342.17 212.493 Q2342.3 212.083 2342.36 211.985 Q2342.45 211.886 2342.68 211.886 Q2343.07 211.886 2343.07 212.214 Z" fill="#000000" fill-rule="evenodd" fill-opacity="1" /><path clip-path="url(#clip750)" d="M2429.18 206.643 Q2429.18 207.954 2428.36 208.704 Q2427.54 209.43 2426.6 209.43 Q2425.71 209.43 2425.25 208.915 Q2424.78 208.399 2424.78 207.744 Q2424.78 206.854 2425.43 206.081 Q2426.09 205.308 2427.07 205.144 Q2426.11 204.535 2424.68 204.535 Q2423.75 204.535 2422.93 205.027 Q2422.13 205.519 2421.64 206.151 Q2421.17 206.783 2420.75 207.697 Q2420.35 208.587 2420.19 209.126 Q2420.05 209.641 2419.93 210.203 L2418.29 216.761 Q2417.49 219.876 2417.49 220.977 Q2417.49 222.336 2418.15 223.249 Q2418.8 224.139 2420.12 224.139 Q2420.63 224.139 2421.22 223.999 Q2421.8 223.835 2422.55 223.413 Q2423.32 222.968 2424 222.312 Q2424.71 221.633 2425.39 220.485 Q2426.07 219.338 2426.51 217.862 Q2426.65 217.347 2427.12 217.347 Q2427.7 217.347 2427.7 217.815 Q2427.7 218.213 2427.38 219.057 Q2427.07 219.876 2426.39 220.954 Q2425.74 222.008 2424.87 222.968 Q2424 223.905 2422.72 224.561 Q2421.43 225.217 2420.02 225.217 Q2418.01 225.217 2416.67 224.139 Q2415.34 223.062 2414.85 221.563 Q2414.73 221.774 2414.56 222.055 Q2414.4 222.336 2413.91 222.968 Q2413.44 223.577 2412.9 224.046 Q2412.36 224.491 2411.52 224.842 Q2410.7 225.217 2409.81 225.217 Q2408.69 225.217 2407.68 224.889 Q2406.69 224.561 2405.99 223.811 Q2405.29 223.062 2405.29 222.031 Q2405.29 220.884 2406.06 220.087 Q2406.86 219.267 2407.94 219.267 Q2408.62 219.267 2409.15 219.666 Q2409.72 220.064 2409.72 220.93 Q2409.72 221.891 2409.06 222.617 Q2408.4 223.343 2407.47 223.53 Q2408.43 224.139 2409.86 224.139 Q2411.4 224.139 2412.62 222.781 Q2413.84 221.422 2414.42 219.15 Q2415.88 213.693 2416.44 211.257 Q2417 208.798 2417 207.744 Q2417 206.76 2416.74 206.081 Q2416.49 205.401 2416.04 205.097 Q2415.62 204.769 2415.22 204.652 Q2414.85 204.535 2414.42 204.535 Q2413.72 204.535 2412.93 204.816 Q2412.15 205.097 2411.22 205.753 Q2410.3 206.385 2409.44 207.697 Q2408.57 209.008 2407.98 210.812 Q2407.87 211.351 2407.35 211.351 Q2406.79 211.327 2406.79 210.859 Q2406.79 210.461 2407.09 209.641 Q2407.42 208.798 2408.08 207.744 Q2408.76 206.69 2409.62 205.753 Q2410.51 204.792 2411.8 204.137 Q2413.11 203.481 2414.52 203.481 Q2415.15 203.481 2415.76 203.621 Q2416.39 203.738 2417.14 204.09 Q2417.91 204.441 2418.59 205.214 Q2419.27 205.987 2419.69 207.111 Q2419.98 206.573 2420.35 206.057 Q2420.75 205.542 2421.36 204.91 Q2421.99 204.254 2422.86 203.879 Q2423.75 203.481 2424.73 203.481 Q2425.69 203.481 2426.63 203.738 Q2427.56 203.973 2428.36 204.746 Q2429.18 205.495 2429.18 206.643 Z" fill="#000000" fill-rule="evenodd" fill-opacity="1" /><path clip-path="url(#clip750)" d="M2434.07 209.955 Q2434.07 209.348 2434.12 209.168 Q2434.18 208.988 2434.45 208.709 L2440.89 201.528 Q2444.42 197.56 2444.42 194.1 Q2444.42 191.854 2443.23 190.247 Q2442.07 188.641 2439.92 188.641 Q2438.45 188.641 2437.2 189.542 Q2435.96 190.444 2435.38 192.051 Q2435.48 192.018 2435.82 192.018 Q2436.66 192.018 2437.12 192.543 Q2437.59 193.067 2437.59 193.772 Q2437.59 194.674 2437 195.117 Q2436.43 195.543 2435.86 195.543 Q2435.63 195.543 2435.32 195.494 Q2435.02 195.445 2434.54 194.986 Q2434.07 194.51 2434.07 193.674 Q2434.07 191.329 2435.84 189.46 Q2437.63 187.591 2440.35 187.591 Q2443.43 187.591 2445.45 189.428 Q2447.48 191.247 2447.48 194.1 Q2447.48 195.1 2447.17 196.019 Q2446.87 196.92 2446.46 197.625 Q2446.07 198.33 2444.99 199.462 Q2443.91 200.593 2443.04 201.396 Q2442.17 202.2 2440.22 203.905 L2436.66 207.364 L2442.71 207.364 Q2445.66 207.364 2445.89 207.102 Q2446.22 206.627 2446.63 204.118 L2447.48 204.118 L2446.53 209.955 L2434.07 209.955 Z" fill="#000000" fill-rule="evenodd" fill-opacity="1" /><path clip-path="url(#clip750)" d="M2468.36 205.151 Q2468.36 205.282 2468.21 205.79 Q2468.07 206.299 2467.7 207.086 Q2467.36 207.873 2466.88 208.594 Q2466.41 209.299 2465.62 209.824 Q2464.85 210.332 2463.97 210.332 Q2462.79 210.332 2462 209.545 Q2461.21 208.758 2461.21 207.578 Q2461.21 206.922 2461.56 206.02 Q2463.74 200.2 2463.74 198.199 Q2463.74 195.855 2461.92 195.855 Q2461.02 195.855 2460.16 196.199 Q2459.33 196.527 2458.75 196.986 Q2458.18 197.445 2457.65 198.084 Q2457.15 198.708 2456.88 199.134 Q2456.64 199.544 2456.44 199.954 L2456.01 201.626 Q2455.92 202.085 2455.44 203.872 L2454.7 206.905 Q2454.18 209.168 2454.06 209.381 Q2453.9 209.84 2453.54 210.086 Q2453.18 210.332 2452.82 210.332 Q2452.41 210.332 2452.13 210.086 Q2451.85 209.84 2451.85 209.414 Q2451.85 209.348 2451.9 209.102 Q2451.95 208.856 2452.03 208.512 Q2452.11 208.168 2452.15 207.971 L2454.1 200.216 Q2454.46 198.806 2454.54 198.363 Q2454.64 197.904 2454.64 197.396 Q2454.64 195.855 2453.59 195.855 Q2452.74 195.855 2452.18 196.871 Q2451.62 197.888 2451.15 199.855 Q2451 200.396 2450.9 200.511 Q2450.82 200.626 2450.57 200.626 Q2450.16 200.609 2450.16 200.281 Q2450.16 200.2 2450.29 199.658 Q2450.42 199.117 2450.67 198.347 Q2450.93 197.56 2451.18 197.035 Q2451.39 196.642 2451.51 196.461 Q2451.64 196.265 2451.95 195.887 Q2452.28 195.494 2452.7 195.314 Q2453.15 195.117 2453.69 195.117 Q2454.9 195.117 2455.79 195.904 Q2456.67 196.674 2456.79 198.035 Q2458.97 195.117 2462.02 195.117 Q2463.82 195.117 2464.85 196.068 Q2465.88 197.019 2465.88 198.708 Q2465.88 199.101 2465.8 199.609 Q2465.74 200.101 2465.57 200.724 Q2465.43 201.347 2465.29 201.823 Q2465.16 202.298 2464.9 203.069 Q2464.64 203.823 2464.52 204.151 Q2464.41 204.479 2464.13 205.249 Q2463.87 206.004 2463.84 206.086 Q2463.23 207.61 2463.23 208.479 Q2463.23 209.053 2463.41 209.316 Q2463.61 209.578 2464.03 209.578 Q2465.18 209.578 2466.03 208.447 Q2466.9 207.299 2467.46 205.43 Q2467.59 205.02 2467.66 204.921 Q2467.74 204.823 2467.97 204.823 Q2468.36 204.823 2468.36 205.151 Z" fill="#000000" fill-rule="evenodd" fill-opacity="1" /><path clip-path="url(#clip750)" d="
M2358.25 238.003 L2527.02 238.003 L2527.02 235.443 L2358.25 235.443  Z
  " fill="#000000" fill-rule="evenodd" fill-opacity="1"/>
<path clip-path="url(#clip750)" d="M2358.25 299.377 Q2358.25 298.51 2358.32 298.252 Q2358.41 297.995 2358.79 297.597 L2367.99 287.338 Q2373.03 281.669 2373.03 276.727 Q2373.03 273.518 2371.34 271.223 Q2369.68 268.927 2366.61 268.927 Q2364.5 268.927 2362.72 270.216 Q2360.94 271.504 2360.12 273.799 Q2360.26 273.753 2360.76 273.753 Q2361.95 273.753 2362.61 274.502 Q2363.29 275.252 2363.29 276.259 Q2363.29 277.547 2362.44 278.179 Q2361.62 278.788 2360.8 278.788 Q2360.47 278.788 2360.03 278.718 Q2359.61 278.648 2358.93 277.992 Q2358.25 277.313 2358.25 276.118 Q2358.25 272.769 2360.78 270.099 Q2363.33 267.428 2367.22 267.428 Q2371.62 267.428 2374.5 270.052 Q2377.41 272.652 2377.41 276.727 Q2377.41 278.156 2376.96 279.468 Q2376.54 280.756 2375.96 281.763 Q2375.39 282.77 2373.85 284.386 Q2372.3 286.002 2371.06 287.15 Q2369.82 288.298 2367.03 290.734 L2361.95 295.676 L2370.59 295.676 Q2374.81 295.676 2375.14 295.301 Q2375.61 294.622 2376.19 291.038 L2377.41 291.038 L2376.05 299.377 L2358.25 299.377 Z" fill="#000000" fill-rule="evenodd" fill-opacity="1" /><path clip-path="url(#clip750)" d="M2382.34 274.014 Q2382.34 273.407 2382.39 273.227 Q2382.45 273.046 2382.72 272.767 L2389.16 265.586 Q2392.69 261.618 2392.69 258.159 Q2392.69 255.913 2391.5 254.306 Q2390.34 252.699 2388.19 252.699 Q2386.72 252.699 2385.47 253.601 Q2384.23 254.503 2383.65 256.109 Q2383.75 256.077 2384.09 256.077 Q2384.93 256.077 2385.39 256.601 Q2385.86 257.126 2385.86 257.831 Q2385.86 258.733 2385.27 259.175 Q2384.7 259.602 2384.13 259.602 Q2383.9 259.602 2383.59 259.553 Q2383.29 259.503 2382.81 259.044 Q2382.34 258.569 2382.34 257.733 Q2382.34 255.388 2384.11 253.519 Q2385.9 251.65 2388.62 251.65 Q2391.7 251.65 2393.72 253.486 Q2395.75 255.306 2395.75 258.159 Q2395.75 259.159 2395.44 260.077 Q2395.14 260.979 2394.73 261.684 Q2394.34 262.389 2393.26 263.52 Q2392.18 264.652 2391.31 265.455 Q2390.44 266.258 2388.49 267.964 L2384.93 271.423 L2390.98 271.423 Q2393.93 271.423 2394.16 271.161 Q2394.49 270.685 2394.9 268.177 L2395.75 268.177 L2394.8 274.014 L2382.34 274.014 Z" fill="#000000" fill-rule="evenodd" fill-opacity="1" /><path clip-path="url(#clip750)" d="M2416.63 269.21 Q2416.63 269.341 2416.48 269.849 Q2416.34 270.357 2415.97 271.144 Q2415.63 271.931 2415.15 272.653 Q2414.68 273.358 2413.89 273.882 Q2413.12 274.391 2412.24 274.391 Q2411.06 274.391 2410.27 273.604 Q2409.48 272.817 2409.48 271.636 Q2409.48 270.98 2409.83 270.079 Q2412.01 264.258 2412.01 262.258 Q2412.01 259.913 2410.19 259.913 Q2409.29 259.913 2408.43 260.258 Q2407.6 260.585 2407.02 261.045 Q2406.45 261.504 2405.92 262.143 Q2405.42 262.766 2405.15 263.192 Q2404.91 263.602 2404.71 264.012 L2404.28 265.685 Q2404.19 266.144 2403.71 267.931 L2402.97 270.964 Q2402.45 273.227 2402.33 273.44 Q2402.17 273.899 2401.81 274.145 Q2401.45 274.391 2401.09 274.391 Q2400.68 274.391 2400.4 274.145 Q2400.12 273.899 2400.12 273.473 Q2400.12 273.407 2400.17 273.161 Q2400.22 272.915 2400.3 272.571 Q2400.38 272.226 2400.42 272.03 L2402.37 264.275 Q2402.73 262.864 2402.81 262.422 Q2402.91 261.963 2402.91 261.454 Q2402.91 259.913 2401.86 259.913 Q2401.01 259.913 2400.45 260.93 Q2399.89 261.946 2399.42 263.914 Q2399.27 264.455 2399.17 264.57 Q2399.09 264.684 2398.84 264.684 Q2398.43 264.668 2398.43 264.34 Q2398.43 264.258 2398.56 263.717 Q2398.69 263.176 2398.94 262.405 Q2399.2 261.618 2399.45 261.094 Q2399.66 260.7 2399.78 260.52 Q2399.91 260.323 2400.22 259.946 Q2400.55 259.553 2400.97 259.372 Q2401.42 259.175 2401.96 259.175 Q2403.17 259.175 2404.06 259.962 Q2404.94 260.733 2405.06 262.094 Q2407.24 259.175 2410.29 259.175 Q2412.09 259.175 2413.12 260.126 Q2414.15 261.077 2414.15 262.766 Q2414.15 263.16 2414.07 263.668 Q2414.01 264.16 2413.84 264.783 Q2413.7 265.406 2413.56 265.881 Q2413.43 266.357 2413.17 267.127 Q2412.91 267.882 2412.79 268.209 Q2412.68 268.537 2412.4 269.308 Q2412.14 270.062 2412.11 270.144 Q2411.5 271.669 2411.5 272.538 Q2411.5 273.112 2411.68 273.374 Q2411.88 273.636 2412.3 273.636 Q2413.45 273.636 2414.3 272.505 Q2415.17 271.357 2415.73 269.488 Q2415.86 269.078 2415.93 268.98 Q2416.01 268.882 2416.24 268.882 Q2416.63 268.882 2416.63 269.21 Z" fill="#000000" fill-rule="evenodd" fill-opacity="1" /><path clip-path="url(#clip750)" d="M2423.49 287.384 Q2423.49 279.28 2426.52 272.745 Q2427.8 270.005 2429.61 267.71 Q2431.41 265.414 2432.6 264.407 Q2433.8 263.4 2434.13 263.4 Q2434.6 263.4 2434.62 263.868 Q2434.62 264.102 2433.99 264.688 Q2426.26 272.558 2426.28 287.384 Q2426.28 302.258 2433.8 309.823 Q2434.62 310.643 2434.62 310.901 Q2434.62 311.369 2434.13 311.369 Q2433.8 311.369 2432.65 310.409 Q2431.5 309.448 2429.72 307.247 Q2427.94 305.045 2426.66 302.351 Q2423.49 295.816 2423.49 287.384 Z" fill="#000000" fill-rule="evenodd" fill-opacity="1" /><path clip-path="url(#clip750)" d="M2464.07 292.514 Q2464.07 292.701 2463.86 293.427 Q2463.65 294.153 2463.14 295.278 Q2462.64 296.402 2461.96 297.433 Q2461.29 298.44 2460.16 299.189 Q2459.06 299.915 2457.8 299.915 Q2456.11 299.915 2454.98 298.791 Q2453.86 297.667 2453.86 295.98 Q2453.86 295.044 2454.35 293.755 Q2457.47 285.44 2457.47 282.583 Q2457.47 279.233 2454.87 279.233 Q2453.58 279.233 2452.36 279.725 Q2451.17 280.194 2450.35 280.85 Q2449.53 281.505 2448.78 282.419 Q2448.05 283.309 2447.68 283.918 Q2447.33 284.503 2447.04 285.089 L2446.44 287.478 Q2446.3 288.134 2445.62 290.687 L2444.56 295.02 Q2443.81 298.252 2443.65 298.557 Q2443.41 299.213 2442.9 299.564 Q2442.38 299.915 2441.87 299.915 Q2441.28 299.915 2440.88 299.564 Q2440.49 299.213 2440.49 298.604 Q2440.49 298.51 2440.56 298.159 Q2440.63 297.807 2440.74 297.315 Q2440.86 296.824 2440.91 296.543 L2443.7 285.464 Q2444.21 283.449 2444.33 282.817 Q2444.47 282.161 2444.47 281.435 Q2444.47 279.233 2442.97 279.233 Q2441.75 279.233 2440.95 280.686 Q2440.16 282.138 2439.48 284.948 Q2439.27 285.721 2439.13 285.885 Q2439.01 286.049 2438.66 286.049 Q2438.07 286.026 2438.07 285.557 Q2438.07 285.44 2438.26 284.667 Q2438.45 283.894 2438.8 282.794 Q2439.17 281.669 2439.53 280.92 Q2439.83 280.358 2439.99 280.1 Q2440.18 279.819 2440.63 279.28 Q2441.1 278.718 2441.7 278.46 Q2442.34 278.179 2443.11 278.179 Q2444.84 278.179 2446.11 279.304 Q2447.37 280.404 2447.54 282.349 Q2450.65 278.179 2455.01 278.179 Q2457.58 278.179 2459.06 279.538 Q2460.54 280.896 2460.54 283.309 Q2460.54 283.871 2460.42 284.597 Q2460.33 285.3 2460.09 286.19 Q2459.88 287.08 2459.69 287.759 Q2459.51 288.438 2459.13 289.539 Q2458.76 290.617 2458.59 291.085 Q2458.43 291.554 2458.03 292.654 Q2457.66 293.732 2457.61 293.849 Q2456.74 296.027 2456.74 297.269 Q2456.74 298.088 2457 298.463 Q2457.28 298.838 2457.89 298.838 Q2459.53 298.838 2460.75 297.222 Q2461.99 295.582 2462.78 292.912 Q2462.97 292.327 2463.07 292.186 Q2463.18 292.045 2463.51 292.045 Q2464.07 292.045 2464.07 292.514 Z" fill="#000000" fill-rule="evenodd" fill-opacity="1" /><path clip-path="url(#clip750)" d="M2466.56 296.824 Q2466.56 295.723 2467.34 295.02 Q2468.11 294.294 2469.12 294.294 Q2470.12 294.294 2470.85 295.02 Q2471.6 295.723 2471.6 296.824 Q2471.6 297.878 2470.83 298.604 Q2470.08 299.33 2469.12 299.33 Q2468.02 299.33 2467.29 298.58 Q2466.56 297.831 2466.56 296.824 M2466.56 267.522 Q2466.56 266.374 2467.34 265.719 Q2468.11 265.039 2469.12 265.039 Q2470.12 265.039 2470.87 265.719 Q2471.65 266.374 2471.65 267.522 Q2471.65 267.616 2471.62 267.803 Q2471.6 267.967 2471.6 268.061 L2469.77 289.258 Q2469.68 290.359 2469.07 290.359 Q2468.53 290.359 2468.44 289.071 L2466.61 268.201 Q2466.61 268.108 2466.59 267.873 Q2466.56 267.616 2466.56 267.522 Z" fill="#000000" fill-rule="evenodd" fill-opacity="1" /><path clip-path="url(#clip750)" d="M2487.37 310.901 Q2487.37 310.666 2487.98 310.081 Q2495.71 302.211 2495.71 287.384 Q2495.71 272.511 2488.28 264.993 Q2487.37 264.126 2487.37 263.868 Q2487.37 263.4 2487.84 263.4 Q2488.17 263.4 2489.31 264.36 Q2490.49 265.32 2492.24 267.522 Q2494.02 269.724 2495.33 272.417 Q2498.5 278.952 2498.5 287.384 Q2498.5 295.489 2495.47 302.023 Q2494.19 304.764 2492.38 307.059 Q2490.58 309.355 2489.38 310.362 Q2488.19 311.369 2487.84 311.369 Q2487.37 311.369 2487.37 310.901 Z" fill="#000000" fill-rule="evenodd" fill-opacity="1" /><path clip-path="url(#clip750)" d="M2503.5 270.391 Q2503.5 269.784 2503.55 269.604 Q2503.61 269.424 2503.87 269.145 L2510.32 261.964 Q2513.84 257.996 2513.84 254.536 Q2513.84 252.29 2512.66 250.683 Q2511.5 249.077 2509.35 249.077 Q2507.88 249.077 2506.63 249.978 Q2505.38 250.88 2504.81 252.487 Q2504.91 252.454 2505.25 252.454 Q2506.09 252.454 2506.55 252.979 Q2507.02 253.503 2507.02 254.209 Q2507.02 255.11 2506.43 255.553 Q2505.86 255.979 2505.28 255.979 Q2505.05 255.979 2504.74 255.93 Q2504.45 255.881 2503.97 255.422 Q2503.5 254.946 2503.5 254.11 Q2503.5 251.766 2505.27 249.896 Q2507.06 248.027 2509.78 248.027 Q2512.86 248.027 2514.88 249.864 Q2516.91 251.684 2516.91 254.536 Q2516.91 255.537 2516.6 256.455 Q2516.3 257.356 2515.89 258.061 Q2515.5 258.767 2514.42 259.898 Q2513.33 261.029 2512.47 261.833 Q2511.6 262.636 2509.65 264.341 L2506.09 267.801 L2512.14 267.801 Q2515.09 267.801 2515.32 267.538 Q2515.65 267.063 2516.06 264.554 L2516.91 264.554 L2515.96 270.391 L2503.5 270.391 Z" fill="#000000" fill-rule="evenodd" fill-opacity="1" /><polyline clip-path="url(#clip750)" style="stroke:#e26f46; stroke-linecap:round; stroke-linejoin:round; stroke-width:4; stroke-opacity:1; fill:none" points="
  1933.62,379.78 2096.55,379.78 
  "/>
<path clip-path="url(#clip750)" d="M2150.67 357.876 Q2150.67 358.321 2150.48 358.532 Q2150.29 358.719 2150.08 358.766 Q2149.87 358.79 2149.38 358.79 Q2148.37 358.79 2147.83 358.86 Q2147.29 358.93 2146.97 359.235 Q2146.64 359.516 2146.52 359.797 Q2146.43 360.078 2146.26 360.804 L2140.64 383.196 Q2139.78 386.639 2136.64 388.887 Q2133.5 391.113 2130.06 391.113 Q2127.24 391.113 2125.46 389.637 Q2123.71 388.138 2123.71 385.889 Q2123.71 384.742 2124.08 383.922 Q2124.46 383.102 2125.02 382.727 Q2125.58 382.353 2126.05 382.212 Q2126.54 382.048 2126.94 382.048 Q2127.71 382.048 2128.37 382.54 Q2129.05 383.032 2129.05 384.062 Q2129.05 385.21 2128.16 386.17 Q2127.27 387.131 2125.93 387.131 Q2125.49 387.131 2125.35 387.084 Q2125.7 388.232 2126.61 388.958 Q2127.53 389.66 2128.32 389.871 Q2129.14 390.059 2129.91 390.059 Q2131.93 390.059 2133.97 388.115 Q2136 386.17 2136.82 382.868 L2142.33 360.851 Q2142.52 360.101 2142.52 359.844 Q2142.52 359.352 2142.21 359.188 Q2141.93 359 2141.04 358.883 Q2139.85 358.79 2138.25 358.79 Q2137.69 358.79 2137.46 358.79 Q2137.22 358.766 2136.99 358.719 Q2136.75 358.672 2136.68 358.579 Q2136.61 358.462 2136.61 358.251 Q2136.61 357.806 2136.8 357.595 Q2136.99 357.361 2137.15 357.337 Q2137.32 357.291 2137.62 357.291 L2144.67 357.431 Q2145.28 357.431 2147.34 357.361 Q2149.4 357.291 2150.01 357.291 Q2150.67 357.291 2150.67 357.876 Z" fill="#000000" fill-rule="evenodd" fill-opacity="1" /><path clip-path="url(#clip750)" d="M2155.52 393.658 Q2155.52 388.723 2156.76 386.034 Q2158.5 382.034 2162.6 382.034 Q2163.47 382.034 2164.37 382.28 Q2165.29 382.509 2166.43 383.411 Q2167.6 384.313 2168.3 385.788 Q2169.65 388.641 2169.65 393.658 Q2169.65 398.56 2168.4 401.233 Q2166.58 405.135 2162.57 405.135 Q2161.06 405.135 2159.52 404.365 Q2157.99 403.594 2157.02 401.741 Q2155.52 398.97 2155.52 393.658 M2158.3 393.248 Q2158.3 398.315 2158.66 400.331 Q2159.07 402.512 2160.19 403.463 Q2161.32 404.397 2162.57 404.397 Q2163.91 404.397 2165.02 403.397 Q2166.16 402.381 2166.5 400.2 Q2166.88 398.052 2166.86 393.248 Q2166.86 388.576 2166.53 386.706 Q2166.09 384.526 2164.91 383.657 Q2163.75 382.771 2162.57 382.771 Q2162.12 382.771 2161.65 382.903 Q2161.19 383.034 2160.52 383.411 Q2159.84 383.788 2159.32 384.723 Q2158.81 385.657 2158.56 387.067 Q2158.3 388.887 2158.3 393.248 Z" fill="#000000" fill-rule="evenodd" fill-opacity="1" /><path clip-path="url(#clip750)" d="M2174.62 378.066 Q2174.62 369.962 2177.65 363.427 Q2178.93 360.687 2180.74 358.391 Q2182.54 356.096 2183.74 355.089 Q2184.93 354.082 2185.26 354.082 Q2185.73 354.082 2185.75 354.55 Q2185.75 354.784 2185.12 355.37 Q2177.39 363.24 2177.41 378.066 Q2177.41 392.94 2184.93 400.505 Q2185.75 401.325 2185.75 401.582 Q2185.75 402.051 2185.26 402.051 Q2184.93 402.051 2183.78 401.091 Q2182.64 400.13 2180.86 397.929 Q2179.07 395.727 2177.79 393.033 Q2174.62 386.498 2174.62 378.066 Z" fill="#000000" fill-rule="evenodd" fill-opacity="1" /><path clip-path="url(#clip750)" d="M2213.29 372.023 Q2213.29 373.335 2212.47 374.084 Q2211.65 374.811 2210.71 374.811 Q2209.82 374.811 2209.35 374.295 Q2208.88 373.78 2208.88 373.124 Q2208.88 372.234 2209.54 371.461 Q2210.2 370.688 2211.18 370.524 Q2210.22 369.915 2208.79 369.915 Q2207.85 369.915 2207.03 370.407 Q2206.24 370.899 2205.75 371.531 Q2205.28 372.164 2204.86 373.077 Q2204.46 373.967 2204.29 374.506 Q2204.15 375.021 2204.04 375.583 L2202.4 382.142 Q2201.6 385.257 2201.6 386.358 Q2201.6 387.716 2202.26 388.63 Q2202.91 389.52 2204.22 389.52 Q2204.74 389.52 2205.32 389.379 Q2205.91 389.215 2206.66 388.794 Q2207.43 388.349 2208.11 387.693 Q2208.81 387.014 2209.49 385.866 Q2210.17 384.718 2210.62 383.243 Q2210.76 382.727 2211.23 382.727 Q2211.81 382.727 2211.81 383.196 Q2211.81 383.594 2211.48 384.437 Q2211.18 385.257 2210.5 386.334 Q2209.84 387.388 2208.98 388.349 Q2208.11 389.286 2206.82 389.941 Q2205.54 390.597 2204.13 390.597 Q2202.12 390.597 2200.78 389.52 Q2199.45 388.442 2198.95 386.943 Q2198.84 387.154 2198.67 387.435 Q2198.51 387.716 2198.02 388.349 Q2197.55 388.958 2197.01 389.426 Q2196.47 389.871 2195.63 390.223 Q2194.81 390.597 2193.92 390.597 Q2192.79 390.597 2191.79 390.269 Q2190.8 389.941 2190.1 389.192 Q2189.4 388.442 2189.4 387.412 Q2189.4 386.264 2190.17 385.468 Q2190.97 384.648 2192.04 384.648 Q2192.72 384.648 2193.26 385.046 Q2193.82 385.444 2193.82 386.311 Q2193.82 387.271 2193.17 387.997 Q2192.51 388.723 2191.58 388.911 Q2192.54 389.52 2193.96 389.52 Q2195.51 389.52 2196.73 388.161 Q2197.95 386.803 2198.53 384.531 Q2199.98 379.073 2200.55 376.638 Q2201.11 374.178 2201.11 373.124 Q2201.11 372.14 2200.85 371.461 Q2200.59 370.782 2200.15 370.477 Q2199.73 370.149 2199.33 370.032 Q2198.95 369.915 2198.53 369.915 Q2197.83 369.915 2197.03 370.196 Q2196.26 370.477 2195.32 371.133 Q2194.41 371.766 2193.54 373.077 Q2192.68 374.389 2192.09 376.192 Q2191.97 376.731 2191.46 376.731 Q2190.9 376.708 2190.9 376.239 Q2190.9 375.841 2191.2 375.021 Q2191.53 374.178 2192.18 373.124 Q2192.86 372.07 2193.73 371.133 Q2194.62 370.173 2195.91 369.517 Q2197.22 368.861 2198.63 368.861 Q2199.26 368.861 2199.87 369.002 Q2200.5 369.119 2201.25 369.47 Q2202.02 369.822 2202.7 370.595 Q2203.38 371.367 2203.8 372.492 Q2204.08 371.953 2204.46 371.438 Q2204.86 370.922 2205.46 370.29 Q2206.1 369.634 2206.96 369.259 Q2207.85 368.861 2208.84 368.861 Q2209.8 368.861 2210.73 369.119 Q2211.67 369.353 2212.47 370.126 Q2213.29 370.876 2213.29 372.023 Z" fill="#000000" fill-rule="evenodd" fill-opacity="1" /><path clip-path="url(#clip750)" d="M2217.91 401.582 Q2217.91 401.348 2218.52 400.763 Q2226.25 392.893 2226.25 378.066 Q2226.25 363.193 2218.82 355.674 Q2217.91 354.808 2217.91 354.55 Q2217.91 354.082 2218.38 354.082 Q2218.7 354.082 2219.85 355.042 Q2221.02 356.002 2222.78 358.204 Q2224.56 360.406 2225.87 363.099 Q2229.03 369.634 2229.03 378.066 Q2229.03 386.17 2226.01 392.705 Q2224.72 395.446 2222.92 397.741 Q2221.12 400.037 2219.92 401.044 Q2218.73 402.051 2218.38 402.051 Q2217.91 402.051 2217.91 401.582 Z" fill="#000000" fill-rule="evenodd" fill-opacity="1" /></svg>
