<?xml version="1.0" encoding="utf-8"?>
<svg xmlns="http://www.w3.org/2000/svg" xmlns:xlink="http://www.w3.org/1999/xlink" width="672" height="480" viewBox="0 0 2688 1920">
<defs>
  <clipPath id="clip510">
    <rect x="0" y="0" width="2688" height="1920"/>
  </clipPath>
</defs>
<path clip-path="url(#clip510)" d="
M0 1920 L2688 1920 L2688 0 L0 0  Z
  " fill="#ffffff" fill-rule="evenodd" fill-opacity="1"/>
<defs>
  <clipPath id="clip511">
    <rect x="537" y="0" width="1883" height="1883"/>
  </clipPath>
</defs>
<defs>
  <clipPath id="clip512">
    <rect x="187" y="47" width="2455" height="1755"/>
  </clipPath>
</defs>
<path clip-path="url(#clip510)" d="
M196.816 1800.78 L2640.76 1800.78 L2640.76 47.2441 L196.816 47.2441  Z
  " fill="#ffffff" fill-rule="evenodd" fill-opacity="1"/>
<defs>
  <clipPath id="clip513">
    <rect x="196" y="47" width="2445" height="1755"/>
  </clipPath>
</defs>
<polyline clip-path="url(#clip513)" style="stroke:#000000; stroke-linecap:round; stroke-linejoin:round; stroke-width:2; stroke-opacity:0.1; fill:none" points="
  554.185,1800.78 554.185,47.2441 
  "/>
<polyline clip-path="url(#clip513)" style="stroke:#000000; stroke-linecap:round; stroke-linejoin:round; stroke-width:2; stroke-opacity:0.1; fill:none" points="
  986.485,1800.78 986.485,47.2441 
  "/>
<polyline clip-path="url(#clip513)" style="stroke:#000000; stroke-linecap:round; stroke-linejoin:round; stroke-width:2; stroke-opacity:0.1; fill:none" points="
  1418.79,1800.78 1418.79,47.2441 
  "/>
<polyline clip-path="url(#clip513)" style="stroke:#000000; stroke-linecap:round; stroke-linejoin:round; stroke-width:2; stroke-opacity:0.1; fill:none" points="
  1851.09,1800.78 1851.09,47.2441 
  "/>
<polyline clip-path="url(#clip513)" style="stroke:#000000; stroke-linecap:round; stroke-linejoin:round; stroke-width:2; stroke-opacity:0.1; fill:none" points="
  2283.39,1800.78 2283.39,47.2441 
  "/>
<polyline clip-path="url(#clip510)" style="stroke:#000000; stroke-linecap:round; stroke-linejoin:round; stroke-width:4; stroke-opacity:1; fill:none" points="
  196.816,1800.78 2640.76,1800.78 
  "/>
<polyline clip-path="url(#clip510)" style="stroke:#000000; stroke-linecap:round; stroke-linejoin:round; stroke-width:4; stroke-opacity:1; fill:none" points="
  554.185,1800.78 554.185,1781.88 
  "/>
<polyline clip-path="url(#clip510)" style="stroke:#000000; stroke-linecap:round; stroke-linejoin:round; stroke-width:4; stroke-opacity:1; fill:none" points="
  986.485,1800.78 986.485,1781.88 
  "/>
<polyline clip-path="url(#clip510)" style="stroke:#000000; stroke-linecap:round; stroke-linejoin:round; stroke-width:4; stroke-opacity:1; fill:none" points="
  1418.79,1800.78 1418.79,1781.88 
  "/>
<polyline clip-path="url(#clip510)" style="stroke:#000000; stroke-linecap:round; stroke-linejoin:round; stroke-width:4; stroke-opacity:1; fill:none" points="
  1851.09,1800.78 1851.09,1781.88 
  "/>
<polyline clip-path="url(#clip510)" style="stroke:#000000; stroke-linecap:round; stroke-linejoin:round; stroke-width:4; stroke-opacity:1; fill:none" points="
  2283.39,1800.78 2283.39,1781.88 
  "/>
<path clip-path="url(#clip510)" d="M523.247 1848.65 L552.923 1848.65 L552.923 1852.59 L523.247 1852.59 L523.247 1848.65 Z" fill="#000000" fill-rule="evenodd" fill-opacity="1" /><path clip-path="url(#clip510)" d="M573.594 1846.34 Q570.446 1846.34 568.594 1848.49 Q566.766 1850.65 566.766 1854.4 Q566.766 1858.12 568.594 1860.3 Q570.446 1862.45 573.594 1862.45 Q576.742 1862.45 578.571 1860.3 Q580.423 1858.12 580.423 1854.4 Q580.423 1850.65 578.571 1848.49 Q576.742 1846.34 573.594 1846.34 M582.877 1831.69 L582.877 1835.95 Q581.117 1835.11 579.312 1834.67 Q577.529 1834.23 575.77 1834.23 Q571.14 1834.23 568.687 1837.36 Q566.256 1840.48 565.909 1846.8 Q567.275 1844.79 569.335 1843.72 Q571.395 1842.64 573.872 1842.64 Q579.08 1842.64 582.09 1845.81 Q585.122 1848.96 585.122 1854.4 Q585.122 1859.72 581.974 1862.94 Q578.826 1866.15 573.594 1866.15 Q567.599 1866.15 564.428 1861.57 Q561.256 1856.96 561.256 1848.24 Q561.256 1840.04 565.145 1835.18 Q569.034 1830.3 575.585 1830.3 Q577.344 1830.3 579.127 1830.65 Q580.932 1830.99 582.877 1831.69 Z" fill="#000000" fill-rule="evenodd" fill-opacity="1" /><path clip-path="url(#clip510)" d="M955.953 1848.65 L985.629 1848.65 L985.629 1852.59 L955.953 1852.59 L955.953 1848.65 Z" fill="#000000" fill-rule="evenodd" fill-opacity="1" /><path clip-path="url(#clip510)" d="M1009.89 1846.85 Q1013.24 1847.57 1015.12 1849.84 Q1017.02 1852.1 1017.02 1855.44 Q1017.02 1860.55 1013.5 1863.35 Q1009.98 1866.15 1003.5 1866.15 Q1001.32 1866.15 999.008 1865.71 Q996.717 1865.3 994.263 1864.44 L994.263 1859.93 Q996.207 1861.06 998.522 1861.64 Q1000.84 1862.22 1003.36 1862.22 Q1007.76 1862.22 1010.05 1860.48 Q1012.36 1858.75 1012.36 1855.44 Q1012.36 1852.38 1010.21 1850.67 Q1008.08 1848.93 1004.26 1848.93 L1000.24 1848.93 L1000.24 1845.09 L1004.45 1845.09 Q1007.9 1845.09 1009.73 1843.72 Q1011.55 1842.34 1011.55 1839.74 Q1011.55 1837.08 1009.66 1835.67 Q1007.78 1834.23 1004.26 1834.23 Q1002.34 1834.23 1000.14 1834.65 Q997.944 1835.07 995.305 1835.95 L995.305 1831.78 Q997.967 1831.04 1000.28 1830.67 Q1002.62 1830.3 1004.68 1830.3 Q1010 1830.3 1013.11 1832.73 Q1016.21 1835.14 1016.21 1839.26 Q1016.21 1842.13 1014.56 1844.12 Q1012.92 1846.09 1009.89 1846.85 Z" fill="#000000" fill-rule="evenodd" fill-opacity="1" /><path clip-path="url(#clip510)" d="M1418.79 1834 Q1415.17 1834 1413.35 1837.57 Q1411.54 1841.11 1411.54 1848.24 Q1411.54 1855.34 1413.35 1858.91 Q1415.17 1862.45 1418.79 1862.45 Q1422.42 1862.45 1424.23 1858.91 Q1426.05 1855.34 1426.05 1848.24 Q1426.05 1841.11 1424.23 1837.57 Q1422.42 1834 1418.79 1834 M1418.79 1830.3 Q1424.6 1830.3 1427.65 1834.9 Q1430.73 1839.49 1430.73 1848.24 Q1430.73 1856.96 1427.65 1861.57 Q1424.6 1866.15 1418.79 1866.15 Q1412.98 1866.15 1409.9 1861.57 Q1406.84 1856.96 1406.84 1848.24 Q1406.84 1839.49 1409.9 1834.9 Q1412.98 1830.3 1418.79 1830.3 Z" fill="#000000" fill-rule="evenodd" fill-opacity="1" /><path clip-path="url(#clip510)" d="M1855.33 1846.85 Q1858.69 1847.57 1860.57 1849.84 Q1862.46 1852.1 1862.46 1855.44 Q1862.46 1860.55 1858.95 1863.35 Q1855.43 1866.15 1848.95 1866.15 Q1846.77 1866.15 1844.45 1865.71 Q1842.16 1865.3 1839.71 1864.44 L1839.71 1859.93 Q1841.65 1861.06 1843.97 1861.64 Q1846.28 1862.22 1848.81 1862.22 Q1853.2 1862.22 1855.5 1860.48 Q1857.81 1858.75 1857.81 1855.44 Q1857.81 1852.38 1855.66 1850.67 Q1853.53 1848.93 1849.71 1848.93 L1845.68 1848.93 L1845.68 1845.09 L1849.89 1845.09 Q1853.34 1845.09 1855.17 1843.72 Q1857 1842.34 1857 1839.74 Q1857 1837.08 1855.1 1835.67 Q1853.23 1834.23 1849.71 1834.23 Q1847.79 1834.23 1845.59 1834.65 Q1843.39 1835.07 1840.75 1835.95 L1840.75 1831.78 Q1843.41 1831.04 1845.73 1830.67 Q1848.07 1830.3 1850.13 1830.3 Q1855.45 1830.3 1858.55 1832.73 Q1861.65 1835.14 1861.65 1839.26 Q1861.65 1842.13 1860.01 1844.12 Q1858.37 1846.09 1855.33 1846.85 Z" fill="#000000" fill-rule="evenodd" fill-opacity="1" /><path clip-path="url(#clip510)" d="M2283.79 1846.34 Q2280.64 1846.34 2278.79 1848.49 Q2276.96 1850.65 2276.96 1854.4 Q2276.96 1858.12 2278.79 1860.3 Q2280.64 1862.45 2283.79 1862.45 Q2286.94 1862.45 2288.77 1860.3 Q2290.62 1858.12 2290.62 1854.4 Q2290.62 1850.65 2288.77 1848.49 Q2286.94 1846.34 2283.79 1846.34 M2293.07 1831.69 L2293.07 1835.95 Q2291.32 1835.11 2289.51 1834.67 Q2287.73 1834.23 2285.97 1834.23 Q2281.34 1834.23 2278.89 1837.36 Q2276.45 1840.48 2276.11 1846.8 Q2277.47 1844.79 2279.53 1843.72 Q2281.59 1842.64 2284.07 1842.64 Q2289.28 1842.64 2292.29 1845.81 Q2295.32 1848.96 2295.32 1854.4 Q2295.32 1859.72 2292.17 1862.94 Q2289.02 1866.15 2283.79 1866.15 Q2277.8 1866.15 2274.63 1861.57 Q2271.45 1856.96 2271.45 1848.24 Q2271.45 1840.04 2275.34 1835.18 Q2279.23 1830.3 2285.78 1830.3 Q2287.54 1830.3 2289.32 1830.65 Q2291.13 1830.99 2293.07 1831.69 Z" fill="#000000" fill-rule="evenodd" fill-opacity="1" /><polyline clip-path="url(#clip513)" style="stroke:#000000; stroke-linecap:round; stroke-linejoin:round; stroke-width:2; stroke-opacity:0.1; fill:none" points="
  196.816,1800.78 2640.76,1800.78 
  "/>
<polyline clip-path="url(#clip513)" style="stroke:#000000; stroke-linecap:round; stroke-linejoin:round; stroke-width:2; stroke-opacity:0.1; fill:none" points="
  196.816,1362.4 2640.76,1362.4 
  "/>
<polyline clip-path="url(#clip513)" style="stroke:#000000; stroke-linecap:round; stroke-linejoin:round; stroke-width:2; stroke-opacity:0.1; fill:none" points="
  196.816,924.012 2640.76,924.012 
  "/>
<polyline clip-path="url(#clip513)" style="stroke:#000000; stroke-linecap:round; stroke-linejoin:round; stroke-width:2; stroke-opacity:0.1; fill:none" points="
  196.816,485.628 2640.76,485.628 
  "/>
<polyline clip-path="url(#clip513)" style="stroke:#000000; stroke-linecap:round; stroke-linejoin:round; stroke-width:2; stroke-opacity:0.1; fill:none" points="
  196.816,47.2441 2640.76,47.2441 
  "/>
<polyline clip-path="url(#clip510)" style="stroke:#000000; stroke-linecap:round; stroke-linejoin:round; stroke-width:4; stroke-opacity:1; fill:none" points="
  196.816,1800.78 196.816,47.2441 
  "/>
<polyline clip-path="url(#clip510)" style="stroke:#000000; stroke-linecap:round; stroke-linejoin:round; stroke-width:4; stroke-opacity:1; fill:none" points="
  196.816,1800.78 215.714,1800.78 
  "/>
<polyline clip-path="url(#clip510)" style="stroke:#000000; stroke-linecap:round; stroke-linejoin:round; stroke-width:4; stroke-opacity:1; fill:none" points="
  196.816,1362.4 215.714,1362.4 
  "/>
<polyline clip-path="url(#clip510)" style="stroke:#000000; stroke-linecap:round; stroke-linejoin:round; stroke-width:4; stroke-opacity:1; fill:none" points="
  196.816,924.012 215.714,924.012 
  "/>
<polyline clip-path="url(#clip510)" style="stroke:#000000; stroke-linecap:round; stroke-linejoin:round; stroke-width:4; stroke-opacity:1; fill:none" points="
  196.816,485.628 215.714,485.628 
  "/>
<polyline clip-path="url(#clip510)" style="stroke:#000000; stroke-linecap:round; stroke-linejoin:round; stroke-width:4; stroke-opacity:1; fill:none" points="
  196.816,47.2441 215.714,47.2441 
  "/>
<path clip-path="url(#clip510)" d="M49.5521 1801.23 L79.2279 1801.23 L79.2279 1805.17 L49.5521 1805.17 L49.5521 1801.23 Z" fill="#000000" fill-rule="evenodd" fill-opacity="1" /><path clip-path="url(#clip510)" d="M90.1306 1814.12 L97.7695 1814.12 L97.7695 1787.76 L89.4593 1789.43 L89.4593 1785.17 L97.7232 1783.5 L102.399 1783.5 L102.399 1814.12 L110.038 1814.12 L110.038 1818.06 L90.1306 1818.06 L90.1306 1814.12 Z" fill="#000000" fill-rule="evenodd" fill-opacity="1" /><path clip-path="url(#clip510)" d="M119.482 1812.18 L124.367 1812.18 L124.367 1818.06 L119.482 1818.06 L119.482 1812.18 Z" fill="#000000" fill-rule="evenodd" fill-opacity="1" /><path clip-path="url(#clip510)" d="M144.552 1786.58 Q140.941 1786.58 139.112 1790.14 Q137.306 1793.68 137.306 1800.81 Q137.306 1807.92 139.112 1811.49 Q140.941 1815.03 144.552 1815.03 Q148.186 1815.03 149.991 1811.49 Q151.82 1807.92 151.82 1800.81 Q151.82 1793.68 149.991 1790.14 Q148.186 1786.58 144.552 1786.58 M144.552 1782.87 Q150.362 1782.87 153.417 1787.48 Q156.496 1792.06 156.496 1800.81 Q156.496 1809.54 153.417 1814.15 Q150.362 1818.73 144.552 1818.73 Q138.741 1818.73 135.663 1814.15 Q132.607 1809.54 132.607 1800.81 Q132.607 1792.06 135.663 1787.48 Q138.741 1782.87 144.552 1782.87 Z" fill="#000000" fill-rule="evenodd" fill-opacity="1" /><path clip-path="url(#clip510)" d="M50.5475 1362.85 L80.2233 1362.85 L80.2233 1366.78 L50.5475 1366.78 L50.5475 1362.85 Z" fill="#000000" fill-rule="evenodd" fill-opacity="1" /><path clip-path="url(#clip510)" d="M100.316 1348.19 Q96.7047 1348.19 94.876 1351.76 Q93.0704 1355.3 93.0704 1362.43 Q93.0704 1369.54 94.876 1373.1 Q96.7047 1376.64 100.316 1376.64 Q103.95 1376.64 105.756 1373.1 Q107.584 1369.54 107.584 1362.43 Q107.584 1355.3 105.756 1351.76 Q103.95 1348.19 100.316 1348.19 M100.316 1344.49 Q106.126 1344.49 109.181 1349.1 Q112.26 1353.68 112.26 1362.43 Q112.26 1371.16 109.181 1375.76 Q106.126 1380.35 100.316 1380.35 Q94.5056 1380.35 91.4269 1375.76 Q88.3714 1371.16 88.3714 1362.43 Q88.3714 1353.68 91.4269 1349.1 Q94.5056 1344.49 100.316 1344.49 Z" fill="#000000" fill-rule="evenodd" fill-opacity="1" /><path clip-path="url(#clip510)" d="M120.478 1373.8 L125.362 1373.8 L125.362 1379.68 L120.478 1379.68 L120.478 1373.8 Z" fill="#000000" fill-rule="evenodd" fill-opacity="1" /><path clip-path="url(#clip510)" d="M135.593 1345.12 L153.95 1345.12 L153.95 1349.05 L139.876 1349.05 L139.876 1357.52 Q140.894 1357.18 141.913 1357.01 Q142.931 1356.83 143.95 1356.83 Q149.737 1356.83 153.116 1360 Q156.496 1363.17 156.496 1368.59 Q156.496 1374.17 153.024 1377.27 Q149.552 1380.35 143.232 1380.35 Q141.056 1380.35 138.788 1379.98 Q136.542 1379.61 134.135 1378.87 L134.135 1374.17 Q136.218 1375.3 138.441 1375.86 Q140.663 1376.41 143.14 1376.41 Q147.144 1376.41 149.482 1374.31 Q151.82 1372.2 151.82 1368.59 Q151.82 1364.98 149.482 1362.87 Q147.144 1360.76 143.14 1360.76 Q141.265 1360.76 139.39 1361.18 Q137.538 1361.6 135.593 1362.48 L135.593 1345.12 Z" fill="#000000" fill-rule="evenodd" fill-opacity="1" /><path clip-path="url(#clip510)" d="M99.3204 909.81 Q95.7093 909.81 93.8806 913.375 Q92.075 916.917 92.075 924.046 Q92.075 931.153 93.8806 934.718 Q95.7093 938.259 99.3204 938.259 Q102.955 938.259 104.76 934.718 Q106.589 931.153 106.589 924.046 Q106.589 916.917 104.76 913.375 Q102.955 909.81 99.3204 909.81 M99.3204 906.107 Q105.131 906.107 108.186 910.713 Q111.265 915.296 111.265 924.046 Q111.265 932.773 108.186 937.38 Q105.131 941.963 99.3204 941.963 Q93.5102 941.963 90.4315 937.38 Q87.376 932.773 87.376 924.046 Q87.376 915.296 90.4315 910.713 Q93.5102 906.107 99.3204 906.107 Z" fill="#000000" fill-rule="evenodd" fill-opacity="1" /><path clip-path="url(#clip510)" d="M119.482 935.412 L124.367 935.412 L124.367 941.292 L119.482 941.292 L119.482 935.412 Z" fill="#000000" fill-rule="evenodd" fill-opacity="1" /><path clip-path="url(#clip510)" d="M144.552 909.81 Q140.941 909.81 139.112 913.375 Q137.306 916.917 137.306 924.046 Q137.306 931.153 139.112 934.718 Q140.941 938.259 144.552 938.259 Q148.186 938.259 149.991 934.718 Q151.82 931.153 151.82 924.046 Q151.82 916.917 149.991 913.375 Q148.186 909.81 144.552 909.81 M144.552 906.107 Q150.362 906.107 153.417 910.713 Q156.496 915.296 156.496 924.046 Q156.496 932.773 153.417 937.38 Q150.362 941.963 144.552 941.963 Q138.741 941.963 135.663 937.38 Q132.607 932.773 132.607 924.046 Q132.607 915.296 135.663 910.713 Q138.741 906.107 144.552 906.107 Z" fill="#000000" fill-rule="evenodd" fill-opacity="1" /><path clip-path="url(#clip510)" d="M100.316 471.427 Q96.7047 471.427 94.876 474.991 Q93.0704 478.533 93.0704 485.663 Q93.0704 492.769 94.876 496.334 Q96.7047 499.876 100.316 499.876 Q103.95 499.876 105.756 496.334 Q107.584 492.769 107.584 485.663 Q107.584 478.533 105.756 474.991 Q103.95 471.427 100.316 471.427 M100.316 467.723 Q106.126 467.723 109.181 472.329 Q112.26 476.913 112.26 485.663 Q112.26 494.389 109.181 498.996 Q106.126 503.579 100.316 503.579 Q94.5056 503.579 91.4269 498.996 Q88.3714 494.389 88.3714 485.663 Q88.3714 476.913 91.4269 472.329 Q94.5056 467.723 100.316 467.723 Z" fill="#000000" fill-rule="evenodd" fill-opacity="1" /><path clip-path="url(#clip510)" d="M120.478 497.028 L125.362 497.028 L125.362 502.908 L120.478 502.908 L120.478 497.028 Z" fill="#000000" fill-rule="evenodd" fill-opacity="1" /><path clip-path="url(#clip510)" d="M135.593 468.348 L153.95 468.348 L153.95 472.283 L139.876 472.283 L139.876 480.755 Q140.894 480.408 141.913 480.246 Q142.931 480.061 143.95 480.061 Q149.737 480.061 153.116 483.232 Q156.496 486.403 156.496 491.82 Q156.496 497.399 153.024 500.501 Q149.552 503.579 143.232 503.579 Q141.056 503.579 138.788 503.209 Q136.542 502.838 134.135 502.098 L134.135 497.399 Q136.218 498.533 138.441 499.088 Q140.663 499.644 143.14 499.644 Q147.144 499.644 149.482 497.538 Q151.82 495.431 151.82 491.82 Q151.82 488.209 149.482 486.102 Q147.144 483.996 143.14 483.996 Q141.265 483.996 139.39 484.413 Q137.538 484.829 135.593 485.709 L135.593 468.348 Z" fill="#000000" fill-rule="evenodd" fill-opacity="1" /><path clip-path="url(#clip510)" d="M90.1306 60.5889 L97.7695 60.5889 L97.7695 34.2233 L89.4593 35.89 L89.4593 31.6308 L97.7232 29.9641 L102.399 29.9641 L102.399 60.5889 L110.038 60.5889 L110.038 64.5241 L90.1306 64.5241 L90.1306 60.5889 Z" fill="#000000" fill-rule="evenodd" fill-opacity="1" /><path clip-path="url(#clip510)" d="M119.482 58.6445 L124.367 58.6445 L124.367 64.5241 L119.482 64.5241 L119.482 58.6445 Z" fill="#000000" fill-rule="evenodd" fill-opacity="1" /><path clip-path="url(#clip510)" d="M144.552 33.0428 Q140.941 33.0428 139.112 36.6076 Q137.306 40.1492 137.306 47.2788 Q137.306 54.3853 139.112 57.9501 Q140.941 61.4917 144.552 61.4917 Q148.186 61.4917 149.991 57.9501 Q151.82 54.3853 151.82 47.2788 Q151.82 40.1492 149.991 36.6076 Q148.186 33.0428 144.552 33.0428 M144.552 29.3391 Q150.362 29.3391 153.417 33.9456 Q156.496 38.5289 156.496 47.2788 Q156.496 56.0056 153.417 60.6121 Q150.362 65.1954 144.552 65.1954 Q138.741 65.1954 135.663 60.6121 Q132.607 56.0056 132.607 47.2788 Q132.607 38.5289 135.663 33.9456 Q138.741 29.3391 144.552 29.3391 Z" fill="#000000" fill-rule="evenodd" fill-opacity="1" /><polyline clip-path="url(#clip513)" style="stroke:#009af9; stroke-linecap:round; stroke-linejoin:round; stroke-width:4; stroke-opacity:1; fill:none" points="
  265.984,1055.93 269.737,1032.83 273.489,1010.89 277.242,990.049 280.995,970.25 285.332,948.602 289.67,928.207 294.007,908.998 298.344,890.909 302.682,873.883 
  307.019,857.862 311.356,842.795 315.694,828.633 320.031,815.331 324.369,802.847 328.706,791.141 333.043,780.178 341.718,760.345 350.393,743.102 359.068,728.237 
  367.742,715.567 376.417,704.931 385.092,696.192 393.767,689.23 402.441,683.938 411.116,680.226 419.791,678.011 430.217,677.228 440.643,678.393 451.07,681.404 
  461.496,686.17 471.922,692.607 482.349,700.633 492.775,710.17 503.201,721.141 512.017,731.478 520.832,742.739 529.647,754.873 538.463,767.834 547.278,781.569 
  556.093,796.027 564.909,811.155 573.724,826.896 592.876,862.94 612.028,901.005 631.179,940.452 650.331,980.614 667.988,1017.68 685.644,1054.22 703.3,1089.68 
  720.956,1123.52 730.421,1140.8 739.886,1157.38 749.351,1173.18 758.815,1188.13 768.28,1202.14 777.745,1215.15 787.209,1227.1 796.674,1237.9 807.64,1248.91 
  818.606,1258.23 829.571,1265.77 840.537,1271.45 851.503,1275.21 862.469,1276.99 873.435,1276.74 884.4,1274.43 894.145,1270.61 903.891,1265.12 913.636,1257.96 
  923.381,1249.11 933.126,1238.59 942.871,1226.39 952.616,1212.55 962.361,1197.09 970.907,1182.21 979.452,1166.13 987.998,1148.88 996.543,1130.48 1005.09,1110.97 
  1013.63,1090.39 1022.18,1068.78 1030.73,1046.19 1040.04,1020.48 1049.36,993.734 1058.68,966.006 1067.99,937.373 1086.63,877.705 1105.26,815.388 1142.75,684.857 
  1180.24,552.543 1200.96,480.938 1221.69,411.783 1232.05,378.449 1242.41,346.112 1252.78,314.896 1263.14,284.918 1273,257.649 1282.86,231.698 1292.72,207.155 
  1302.58,184.106 1312.44,162.631 1322.3,142.803 1332.16,124.693 1342.01,108.364 1352.27,93.3342 1362.52,80.348 1372.77,69.4544 1383.02,60.6946 1393.27,54.1018 
  1403.52,49.7011 1413.78,47.5091 1424.03,47.5341 1432.66,49.2739 1441.29,52.5802 1449.92,57.4439 1458.55,63.8521 1467.18,71.7876 1475.81,81.2289 1484.43,92.1508 
  1493.06,104.524 1503.6,121.549 1514.14,140.62 1524.67,161.661 1535.21,184.587 1545.74,209.308 1556.28,235.726 1566.82,263.736 1577.35,293.227 1587,321.445 
  1596.65,350.715 1606.31,380.941 1615.96,412.025 1635.26,476.356 1654.56,542.872 1690.22,668.582 1725.87,793.372 1743.93,854.531 1761.99,913.443 1771.02,941.864 
  1780.05,969.495 1789.08,996.269 1798.11,1022.12 1808.23,1049.91 1818.35,1076.37 1828.47,1101.43 1838.59,1125.02 1848.71,1147.06 1858.83,1167.51 1868.95,1186.3 
  1879.07,1203.4 1888.24,1217.4 1897.41,1229.94 1906.58,1241.03 1915.75,1250.63 1924.92,1258.75 1934.09,1265.39 1943.26,1270.53 1952.43,1274.2 1962.92,1276.59 
  1973.42,1277.09 1983.92,1275.72 1994.42,1272.52 2004.92,1267.56 2015.42,1260.87 2025.92,1252.53 2036.42,1242.6 2046.14,1232.06 2055.86,1220.3 2065.58,1207.37 
  2075.3,1193.36 2085.02,1178.33 2094.74,1162.38 2104.46,1145.58 2114.19,1128.02 2133.35,1091.48 2152.52,1053 2171.69,1013.28 2190.86,973.009 2209.47,934.055 
  2228.08,895.878 2246.69,859.088 2265.3,824.269 2274.84,807.367 2284.37,791.2 2293.91,775.838 2303.45,761.348 2312.99,747.794 2322.53,735.24 2332.07,723.747 
  2341.61,713.376 2352.06,703.37 2362.51,694.859 2372.96,687.921 2383.41,682.637 2393.86,679.091 2404.31,677.371 2414.77,677.578 2425.22,679.819 2432.81,682.793 
  2440.4,686.958 2447.99,692.373 2455.58,699.105 2463.17,707.229 2470.76,716.828 2478.35,727.998 2485.94,740.845 2493.53,755.491 2501.13,772.075 2508.72,790.752 
  2516.31,811.7 2523.9,835.12 2531.49,861.238 2535.28,875.389 2539.08,890.314 2542.88,906.05 2546.67,922.637 2552.9,951.816 2559.13,983.605 2565.36,1018.23 
  2571.59,1055.93 
  "/>
<polyline clip-path="url(#clip513)" style="stroke:#e26f46; stroke-linecap:round; stroke-linejoin:round; stroke-width:4; stroke-opacity:1; fill:none" points="
  265.984,773.514 269.737,768.199 273.489,762.973 277.242,757.84 280.995,752.802 298.344,730.863 315.694,711.399 333.043,694.73 350.393,681.139 359.068,675.576 
  367.742,670.871 376.417,667.048 385.092,664.127 393.767,662.128 402.441,661.064 411.116,660.948 419.791,661.788 430.217,664.07 440.643,667.744 451.07,672.806 
  461.496,679.244 471.922,687.04 482.349,696.17 492.775,706.601 503.201,718.294 512.017,729.132 520.832,740.808 529.647,753.288 538.463,766.534 547.278,780.506 
  556.093,795.159 564.909,810.448 573.724,826.322 592.876,862.576 612.028,900.777 631.179,940.311 650.331,980.527 685.644,1054.18 720.956,1123.5 730.421,1140.79 
  739.886,1157.37 749.351,1173.18 758.815,1188.12 768.28,1202.14 777.745,1215.15 787.209,1227.09 796.674,1237.9 807.64,1248.91 818.606,1258.23 829.571,1265.77 
  840.537,1271.45 851.503,1275.21 862.469,1276.99 873.435,1276.74 884.4,1274.43 894.145,1270.61 903.891,1265.12 913.636,1257.96 923.381,1249.11 933.126,1238.59 
  942.871,1226.39 952.616,1212.55 962.361,1197.09 970.907,1182.21 979.452,1166.13 987.998,1148.88 996.543,1130.48 1005.09,1110.97 1013.63,1090.39 1022.18,1068.78 
  1030.73,1046.19 1040.04,1020.48 1049.36,993.734 1058.68,966.006 1067.99,937.373 1077.31,907.912 1086.63,877.705 1095.94,846.835 1105.26,815.388 1142.75,684.857 
  1180.24,552.543 1200.96,480.938 1221.69,411.783 1232.05,378.449 1242.41,346.112 1252.78,314.896 1263.14,284.918 1273,257.649 1282.86,231.698 1292.72,207.155 
  1302.58,184.106 1312.44,162.631 1322.3,142.803 1332.16,124.693 1342.01,108.364 1352.27,93.3342 1362.52,80.348 1372.77,69.4544 1383.02,60.6946 1393.27,54.1018 
  1403.52,49.7011 1413.78,47.5091 1424.03,47.5341 1432.66,49.2739 1441.29,52.5802 1449.92,57.4439 1458.55,63.8521 1467.18,71.7876 1475.81,81.2289 1484.43,92.1508 
  1493.06,104.524 1503.6,121.549 1514.14,140.62 1524.67,161.661 1535.21,184.587 1545.74,209.308 1556.28,235.726 1566.82,263.736 1577.35,293.227 1587,321.445 
  1596.65,350.715 1606.31,380.941 1615.96,412.025 1635.26,476.356 1654.56,542.872 1690.22,668.582 1725.87,793.372 1743.93,854.531 1761.99,913.443 1780.05,969.495 
  1798.11,1022.12 1808.23,1049.91 1818.35,1076.37 1828.47,1101.43 1838.59,1125.02 1848.71,1147.06 1858.83,1167.51 1868.95,1186.3 1879.07,1203.4 1888.24,1217.4 
  1897.41,1229.94 1906.58,1241.03 1915.75,1250.63 1924.92,1258.75 1934.09,1265.39 1943.26,1270.53 1952.43,1274.2 1962.92,1276.59 1973.42,1277.09 1983.92,1275.72 
  1994.42,1272.52 2004.92,1267.55 2015.42,1260.87 2025.92,1252.53 2036.42,1242.6 2046.14,1232.06 2055.86,1220.29 2065.58,1207.37 2075.3,1193.35 2085.02,1178.33 
  2094.74,1162.38 2104.46,1145.57 2114.19,1128 2133.35,1091.46 2152.52,1052.97 2171.69,1013.22 2190.86,972.914 2209.47,933.903 2228.08,895.636 2246.69,858.707 
  2265.3,823.674 2274.84,806.623 2284.37,790.272 2293.91,774.683 2303.45,759.914 2312.99,746.018 2322.53,733.045 2332.07,721.04 2341.61,710.045 2352.06,699.199 
  2362.51,689.65 2372.96,681.431 2383.41,674.571 2393.86,669.089 2404.31,664.998 2414.77,662.305 2425.22,661.009 2440.4,661.598 2455.58,665.066 2470.76,671.335 
  2485.94,680.296 2501.13,691.814 2516.31,705.728 2531.49,721.856 2546.67,739.992 2552.9,747.962 2559.13,756.218 2565.36,764.74 2571.59,773.514 
  "/>
<path clip-path="url(#clip510)" d="
M1879.31 516.823 L2559.29 516.823 L2559.29 105.695 L1879.31 105.695  Z
  " fill="#ffffff" fill-rule="evenodd" fill-opacity="1"/>
<polyline clip-path="url(#clip510)" style="stroke:#000000; stroke-linecap:round; stroke-linejoin:round; stroke-width:4; stroke-opacity:1; fill:none" points="
  1879.31,516.823 2559.29,516.823 2559.29,105.695 1879.31,105.695 1879.31,516.823 
  "/>
<polyline clip-path="url(#clip510)" style="stroke:#009af9; stroke-linecap:round; stroke-linejoin:round; stroke-width:4; stroke-opacity:1; fill:none" points="
  1906.47,242.738 2069.4,242.738 
  "/>
<path clip-path="url(#clip510)" d="M2177.2 248.652 L2173.08 260.598 L2133.31 260.598 Q2132.77 260.598 2132.56 260.574 Q2132.35 260.551 2132.18 260.434 Q2132.02 260.317 2132.02 260.059 Q2132.02 259.848 2132.44 259.31 L2149.47 238.253 L2131.97 214.175 Q2131.97 213.074 2132.16 212.863 Q2132.35 212.629 2133.31 212.629 L2173.08 212.629 L2177.2 223.848 L2176.01 223.848 Q2175.47 222.396 2174.6 221.178 Q2173.76 219.936 2172.77 219.046 Q2171.81 218.156 2170.55 217.454 Q2169.31 216.728 2168.14 216.283 Q2166.99 215.814 2165.56 215.486 Q2164.13 215.135 2162.98 214.971 Q2161.86 214.784 2160.45 214.69 Q2159.05 214.596 2158.16 214.573 Q2157.27 214.549 2156.14 214.549 L2137.15 214.549 L2152.72 235.934 Q2153.08 236.473 2153.08 236.613 Q2153.08 236.824 2152.63 237.386 L2136 257.951 L2156.38 257.951 Q2162.94 257.951 2167.5 256.569 Q2170.6 255.515 2172.84 253.431 Q2175.12 251.346 2176.01 248.652 L2177.2 248.652 Z" fill="#000000" fill-rule="evenodd" fill-opacity="1" /><path clip-path="url(#clip510)" d="M2129.34 288.906 Q2129.34 289.037 2129.19 289.546 Q2129.04 290.054 2128.68 290.841 Q2128.34 291.628 2127.86 292.349 Q2127.38 293.054 2126.6 293.579 Q2125.83 294.087 2124.94 294.087 Q2123.76 294.087 2122.97 293.3 Q2122.19 292.513 2122.19 291.333 Q2122.19 290.677 2122.53 289.775 Q2124.71 283.955 2124.71 281.954 Q2124.71 279.61 2122.89 279.61 Q2121.99 279.61 2121.14 279.954 Q2120.3 280.282 2119.73 280.741 Q2119.15 281.2 2118.63 281.84 Q2118.12 282.463 2117.86 282.889 Q2117.61 283.299 2117.42 283.709 L2116.99 285.381 Q2116.89 285.84 2116.42 287.627 L2115.68 290.66 Q2115.15 292.923 2115.04 293.136 Q2114.87 293.595 2114.51 293.841 Q2114.15 294.087 2113.79 294.087 Q2113.38 294.087 2113.1 293.841 Q2112.83 293.595 2112.83 293.169 Q2112.83 293.103 2112.87 292.857 Q2112.92 292.612 2113.01 292.267 Q2113.09 291.923 2113.12 291.726 L2115.07 283.971 Q2115.43 282.561 2115.51 282.118 Q2115.61 281.659 2115.61 281.151 Q2115.61 279.61 2114.56 279.61 Q2113.71 279.61 2113.15 280.626 Q2112.6 281.643 2112.12 283.61 Q2111.97 284.151 2111.87 284.266 Q2111.79 284.381 2111.55 284.381 Q2111.14 284.365 2111.14 284.037 Q2111.14 283.955 2111.27 283.414 Q2111.4 282.873 2111.64 282.102 Q2111.91 281.315 2112.15 280.79 Q2112.37 280.397 2112.48 280.216 Q2112.61 280.02 2112.92 279.643 Q2113.25 279.249 2113.68 279.069 Q2114.12 278.872 2114.66 278.872 Q2115.88 278.872 2116.76 279.659 Q2117.65 280.43 2117.76 281.79 Q2119.94 278.872 2122.99 278.872 Q2124.79 278.872 2125.83 279.823 Q2126.86 280.774 2126.86 282.463 Q2126.86 282.856 2126.78 283.364 Q2126.71 283.856 2126.55 284.479 Q2126.4 285.102 2126.27 285.578 Q2126.14 286.053 2125.88 286.824 Q2125.61 287.578 2125.5 287.906 Q2125.38 288.234 2125.11 289.004 Q2124.84 289.759 2124.81 289.841 Q2124.2 291.365 2124.2 292.234 Q2124.2 292.808 2124.38 293.071 Q2124.58 293.333 2125.01 293.333 Q2126.16 293.333 2127.01 292.202 Q2127.88 291.054 2128.43 289.185 Q2128.57 288.775 2128.63 288.677 Q2128.71 288.578 2128.94 288.578 Q2129.34 288.578 2129.34 288.906 Z" fill="#000000" fill-rule="evenodd" fill-opacity="1" /><path clip-path="url(#clip510)" d="M2140.4 288.611 Q2140.43 288.201 2141.07 288.201 L2161.65 288.201 Q2162.61 288.201 2162.63 288.578 Q2162.63 288.988 2161.71 288.972 L2141.3 288.972 Q2140.4 288.988 2140.4 288.611 M2140.4 282.053 Q2140.4 281.643 2141.1 281.659 L2161.61 281.659 Q2162.61 281.659 2162.63 282.053 Q2162.63 282.43 2161.78 282.43 L2141.07 282.43 Q2140.4 282.43 2140.4 282.053 Z" fill="#000000" fill-rule="evenodd" fill-opacity="1" /><path clip-path="url(#clip510)" d="M2175.58 282.971 Q2175.58 278.036 2176.83 275.347 Q2178.57 271.346 2182.67 271.346 Q2183.54 271.346 2184.44 271.592 Q2185.36 271.822 2186.5 272.724 Q2187.67 273.625 2188.37 275.101 Q2189.72 277.954 2189.72 282.971 Q2189.72 287.873 2188.47 290.546 Q2186.65 294.448 2182.63 294.448 Q2181.13 294.448 2179.59 293.677 Q2178.06 292.907 2177.09 291.054 Q2175.58 288.283 2175.58 282.971 M2178.37 282.561 Q2178.37 287.627 2178.73 289.644 Q2179.14 291.825 2180.26 292.776 Q2181.39 293.71 2182.63 293.71 Q2183.98 293.71 2185.09 292.71 Q2186.23 291.693 2186.57 289.513 Q2186.95 287.365 2186.93 282.561 Q2186.93 277.888 2186.6 276.019 Q2186.16 273.838 2184.98 272.969 Q2183.82 272.084 2182.63 272.084 Q2182.19 272.084 2181.72 272.215 Q2181.26 272.346 2180.59 272.724 Q2179.91 273.101 2179.39 274.035 Q2178.88 274.97 2178.63 276.38 Q2178.37 278.2 2178.37 282.561 Z" fill="#000000" fill-rule="evenodd" fill-opacity="1" /><path clip-path="url(#clip510)" d="M2136.97 177.198 L2136.97 176.149 Q2141.01 176.149 2143.09 174.001 Q2143.66 174.001 2143.76 174.132 Q2143.86 174.263 2143.86 174.87 L2143.86 193.708 Q2143.86 194.709 2144.35 195.02 Q2144.84 195.332 2146.99 195.332 L2148.06 195.332 L2148.06 196.365 Q2146.88 196.266 2142.61 196.266 Q2138.35 196.266 2137.19 196.365 L2137.19 195.332 L2138.25 195.332 Q2140.37 195.332 2140.88 195.037 Q2141.38 194.725 2141.38 193.708 L2141.38 176.313 Q2139.63 177.198 2136.97 177.198 Z" fill="#000000" fill-rule="evenodd" fill-opacity="1" /><path clip-path="url(#clip510)" d="M2149.75 185.625 Q2149.75 180.69 2150.99 178.001 Q2152.73 174.001 2156.83 174.001 Q2157.7 174.001 2158.6 174.247 Q2159.52 174.476 2160.67 175.378 Q2161.83 176.28 2162.54 177.755 Q2163.88 180.608 2163.88 185.625 Q2163.88 190.528 2162.63 193.2 Q2160.81 197.102 2156.8 197.102 Q2155.29 197.102 2153.75 196.332 Q2152.22 195.561 2151.26 193.708 Q2149.75 190.938 2149.75 185.625 M2152.53 185.215 Q2152.53 190.282 2152.9 192.298 Q2153.31 194.479 2154.42 195.43 Q2155.55 196.365 2156.8 196.365 Q2158.14 196.365 2159.26 195.364 Q2160.39 194.348 2160.73 192.167 Q2161.11 190.019 2161.09 185.215 Q2161.09 180.543 2160.77 178.674 Q2160.32 176.493 2159.14 175.624 Q2157.98 174.739 2156.8 174.739 Q2156.36 174.739 2155.88 174.87 Q2155.42 175.001 2154.75 175.378 Q2154.08 175.755 2153.55 176.69 Q2153.04 177.624 2152.8 179.034 Q2152.53 180.854 2152.53 185.215 Z" fill="#000000" fill-rule="evenodd" fill-opacity="1" /><path clip-path="url(#clip510)" d="M2202.45 236.613 Q2202.45 228.509 2205.48 221.974 Q2206.76 219.234 2208.57 216.938 Q2210.37 214.643 2211.57 213.636 Q2212.76 212.629 2213.09 212.629 Q2213.56 212.629 2213.58 213.097 Q2213.58 213.331 2212.95 213.917 Q2205.22 221.787 2205.24 236.613 Q2205.24 251.487 2212.76 259.052 Q2213.58 259.872 2213.58 260.129 Q2213.58 260.598 2213.09 260.598 Q2212.76 260.598 2211.61 259.638 Q2210.46 258.677 2208.68 256.476 Q2206.9 254.274 2205.62 251.58 Q2202.45 245.045 2202.45 236.613 Z" fill="#000000" fill-rule="evenodd" fill-opacity="1" /><path clip-path="url(#clip510)" d="M2252.54 235.934 Q2252.82 236.215 2252.82 236.613 Q2252.82 237.011 2252.54 237.293 Q2252.26 237.574 2251.86 237.574 L2221.83 237.574 Q2221.44 237.574 2221.16 237.293 Q2220.87 237.011 2220.87 236.613 Q2220.87 236.215 2221.16 235.934 Q2221.44 235.653 2221.83 235.653 L2251.86 235.653 Q2252.26 235.653 2252.54 235.934 Z" fill="#000000" fill-rule="evenodd" fill-opacity="1" /><path clip-path="url(#clip510)" d="M2257.83 221.225 L2257.83 219.726 Q2263.59 219.726 2266.57 216.657 Q2267.39 216.657 2267.53 216.845 Q2267.67 217.032 2267.67 217.899 L2267.67 244.811 Q2267.67 246.24 2268.37 246.685 Q2269.07 247.13 2272.14 247.13 L2273.66 247.13 L2273.66 248.606 Q2271.98 248.465 2265.89 248.465 Q2259.8 248.465 2258.14 248.606 L2258.14 247.13 L2259.66 247.13 Q2262.68 247.13 2263.41 246.708 Q2264.13 246.263 2264.13 244.811 L2264.13 219.96 Q2261.63 221.225 2257.83 221.225 Z" fill="#000000" fill-rule="evenodd" fill-opacity="1" /><path clip-path="url(#clip510)" d="M2281.59 260.129 Q2281.59 259.895 2282.2 259.31 Q2289.93 251.44 2289.93 236.613 Q2289.93 221.74 2282.5 214.221 Q2281.59 213.355 2281.59 213.097 Q2281.59 212.629 2282.06 212.629 Q2282.38 212.629 2283.53 213.589 Q2284.7 214.549 2286.46 216.751 Q2288.24 218.953 2289.55 221.646 Q2292.71 228.181 2292.71 236.613 Q2292.71 244.717 2289.69 251.252 Q2288.4 253.993 2286.6 256.288 Q2284.8 258.584 2283.6 259.591 Q2282.41 260.598 2282.06 260.598 Q2281.59 260.598 2281.59 260.129 Z" fill="#000000" fill-rule="evenodd" fill-opacity="1" /><path clip-path="url(#clip510)" d="M2315.91 212.214 Q2315.91 212.345 2315.77 212.854 Q2315.62 213.362 2315.26 214.149 Q2314.91 214.936 2314.44 215.657 Q2313.96 216.362 2313.18 216.887 Q2312.41 217.395 2311.52 217.395 Q2310.34 217.395 2309.55 216.608 Q2308.77 215.821 2308.77 214.641 Q2308.77 213.985 2309.11 213.083 Q2311.29 207.263 2311.29 205.262 Q2311.29 202.918 2309.47 202.918 Q2308.57 202.918 2307.72 203.262 Q2306.88 203.59 2306.31 204.049 Q2305.73 204.508 2305.21 205.148 Q2304.7 205.771 2304.44 206.197 Q2304.19 206.607 2303.99 207.017 L2303.57 208.689 Q2303.47 209.148 2302.99 210.935 L2302.26 213.968 Q2301.73 216.231 2301.62 216.444 Q2301.45 216.903 2301.09 217.149 Q2300.73 217.395 2300.37 217.395 Q2299.96 217.395 2299.68 217.149 Q2299.4 216.903 2299.4 216.477 Q2299.4 216.411 2299.45 216.165 Q2299.5 215.92 2299.58 215.575 Q2299.67 215.231 2299.7 215.034 L2301.65 207.279 Q2302.01 205.869 2302.09 205.426 Q2302.19 204.967 2302.19 204.459 Q2302.19 202.918 2301.14 202.918 Q2300.29 202.918 2299.73 203.934 Q2299.17 204.951 2298.7 206.918 Q2298.55 207.459 2298.45 207.574 Q2298.37 207.689 2298.12 207.689 Q2297.71 207.673 2297.71 207.345 Q2297.71 207.263 2297.85 206.722 Q2297.98 206.181 2298.22 205.41 Q2298.49 204.623 2298.73 204.098 Q2298.94 203.705 2299.06 203.524 Q2299.19 203.328 2299.5 202.951 Q2299.83 202.557 2300.26 202.377 Q2300.7 202.18 2301.24 202.18 Q2302.45 202.18 2303.34 202.967 Q2304.22 203.738 2304.34 205.098 Q2306.52 202.18 2309.57 202.18 Q2311.37 202.18 2312.41 203.131 Q2313.44 204.082 2313.44 205.771 Q2313.44 206.164 2313.36 206.672 Q2313.29 207.164 2313.13 207.787 Q2312.98 208.41 2312.85 208.886 Q2312.72 209.361 2312.45 210.132 Q2312.19 210.886 2312.08 211.214 Q2311.96 211.542 2311.68 212.312 Q2311.42 213.067 2311.39 213.149 Q2310.78 214.673 2310.78 215.542 Q2310.78 216.116 2310.96 216.379 Q2311.16 216.641 2311.59 216.641 Q2312.73 216.641 2313.59 215.51 Q2314.45 214.362 2315.01 212.493 Q2315.14 212.083 2315.21 211.985 Q2315.29 211.886 2315.52 211.886 Q2315.91 211.886 2315.91 212.214 Z" fill="#000000" fill-rule="evenodd" fill-opacity="1" /><path clip-path="url(#clip510)" d="M2402.03 206.643 Q2402.03 207.954 2401.21 208.704 Q2400.39 209.43 2399.45 209.43 Q2398.56 209.43 2398.09 208.915 Q2397.62 208.399 2397.62 207.744 Q2397.62 206.854 2398.28 206.081 Q2398.93 205.308 2399.92 205.144 Q2398.96 204.535 2397.53 204.535 Q2396.59 204.535 2395.77 205.027 Q2394.98 205.519 2394.48 206.151 Q2394.02 206.783 2393.59 207.697 Q2393.2 208.587 2393.03 209.126 Q2392.89 209.641 2392.77 210.203 L2391.13 216.761 Q2390.34 219.876 2390.34 220.977 Q2390.34 222.336 2390.99 223.249 Q2391.65 224.139 2392.96 224.139 Q2393.48 224.139 2394.06 223.999 Q2394.65 223.835 2395.4 223.413 Q2396.17 222.968 2396.85 222.312 Q2397.55 221.633 2398.23 220.485 Q2398.91 219.338 2399.36 217.862 Q2399.5 217.347 2399.96 217.347 Q2400.55 217.347 2400.55 217.815 Q2400.55 218.213 2400.22 219.057 Q2399.92 219.876 2399.24 220.954 Q2398.58 222.008 2397.72 222.968 Q2396.85 223.905 2395.56 224.561 Q2394.27 225.217 2392.87 225.217 Q2390.85 225.217 2389.52 224.139 Q2388.18 223.062 2387.69 221.563 Q2387.57 221.774 2387.41 222.055 Q2387.25 222.336 2386.75 222.968 Q2386.29 223.577 2385.75 224.046 Q2385.21 224.491 2384.36 224.842 Q2383.55 225.217 2382.66 225.217 Q2381.53 225.217 2380.52 224.889 Q2379.54 224.561 2378.84 223.811 Q2378.13 223.062 2378.13 222.031 Q2378.13 220.884 2378.91 220.087 Q2379.7 219.267 2380.78 219.267 Q2381.46 219.267 2382 219.666 Q2382.56 220.064 2382.56 220.93 Q2382.56 221.891 2381.91 222.617 Q2381.25 223.343 2380.31 223.53 Q2381.27 224.139 2382.7 224.139 Q2384.25 224.139 2385.47 222.781 Q2386.68 221.422 2387.27 219.15 Q2388.72 213.693 2389.28 211.257 Q2389.85 208.798 2389.85 207.744 Q2389.85 206.76 2389.59 206.081 Q2389.33 205.401 2388.89 205.097 Q2388.46 204.769 2388.07 204.652 Q2387.69 204.535 2387.27 204.535 Q2386.57 204.535 2385.77 204.816 Q2385 205.097 2384.06 205.753 Q2383.15 206.385 2382.28 207.697 Q2381.41 209.008 2380.83 210.812 Q2380.71 211.351 2380.2 211.351 Q2379.63 211.327 2379.63 210.859 Q2379.63 210.461 2379.94 209.641 Q2380.27 208.798 2380.92 207.744 Q2381.6 206.69 2382.47 205.753 Q2383.36 204.792 2384.65 204.137 Q2385.96 203.481 2387.36 203.481 Q2388 203.481 2388.6 203.621 Q2389.24 203.738 2389.99 204.09 Q2390.76 204.441 2391.44 205.214 Q2392.12 205.987 2392.54 207.111 Q2392.82 206.573 2393.2 206.057 Q2393.59 205.542 2394.2 204.91 Q2394.83 204.254 2395.7 203.879 Q2396.59 203.481 2397.58 203.481 Q2398.54 203.481 2399.47 203.738 Q2400.41 203.973 2401.21 204.746 Q2402.03 205.495 2402.03 206.643 Z" fill="#000000" fill-rule="evenodd" fill-opacity="1" /><path clip-path="url(#clip510)" d="M2406.91 209.955 Q2406.91 209.348 2406.96 209.168 Q2407.03 208.988 2407.29 208.709 L2413.74 201.528 Q2417.26 197.56 2417.26 194.1 Q2417.26 191.854 2416.08 190.247 Q2414.92 188.641 2412.77 188.641 Q2411.29 188.641 2410.05 189.542 Q2408.8 190.444 2408.23 192.051 Q2408.32 192.018 2408.67 192.018 Q2409.51 192.018 2409.96 192.543 Q2410.44 193.067 2410.44 193.772 Q2410.44 194.674 2409.85 195.117 Q2409.28 195.543 2408.7 195.543 Q2408.47 195.543 2408.16 195.494 Q2407.87 195.445 2407.39 194.986 Q2406.91 194.51 2406.91 193.674 Q2406.91 191.329 2408.69 189.46 Q2410.47 187.591 2413.19 187.591 Q2416.28 187.591 2418.29 189.428 Q2420.33 191.247 2420.33 194.1 Q2420.33 195.1 2420.01 196.019 Q2419.72 196.92 2419.31 197.625 Q2418.92 198.33 2417.83 199.462 Q2416.75 200.593 2415.88 201.396 Q2415.01 202.2 2413.06 203.905 L2409.51 207.364 L2415.56 207.364 Q2418.51 207.364 2418.74 207.102 Q2419.06 206.627 2419.47 204.118 L2420.33 204.118 L2419.38 209.955 L2406.91 209.955 Z" fill="#000000" fill-rule="evenodd" fill-opacity="1" /><path clip-path="url(#clip510)" d="M2441.21 205.151 Q2441.21 205.282 2441.06 205.79 Q2440.91 206.299 2440.55 207.086 Q2440.21 207.873 2439.73 208.594 Q2439.25 209.299 2438.47 209.824 Q2437.7 210.332 2436.81 210.332 Q2435.63 210.332 2434.84 209.545 Q2434.06 208.758 2434.06 207.578 Q2434.06 206.922 2434.4 206.02 Q2436.58 200.2 2436.58 198.199 Q2436.58 195.855 2434.76 195.855 Q2433.86 195.855 2433.01 196.199 Q2432.17 196.527 2431.6 196.986 Q2431.02 197.445 2430.5 198.084 Q2429.99 198.708 2429.73 199.134 Q2429.48 199.544 2429.29 199.954 L2428.86 201.626 Q2428.76 202.085 2428.29 203.872 L2427.55 206.905 Q2427.02 209.168 2426.91 209.381 Q2426.74 209.84 2426.38 210.086 Q2426.02 210.332 2425.66 210.332 Q2425.25 210.332 2424.97 210.086 Q2424.7 209.84 2424.7 209.414 Q2424.7 209.348 2424.74 209.102 Q2424.79 208.856 2424.88 208.512 Q2424.96 208.168 2424.99 207.971 L2426.94 200.216 Q2427.3 198.806 2427.38 198.363 Q2427.48 197.904 2427.48 197.396 Q2427.48 195.855 2426.43 195.855 Q2425.58 195.855 2425.02 196.871 Q2424.47 197.888 2423.99 199.855 Q2423.84 200.396 2423.74 200.511 Q2423.66 200.626 2423.42 200.626 Q2423.01 200.609 2423.01 200.281 Q2423.01 200.2 2423.14 199.658 Q2423.27 199.117 2423.51 198.347 Q2423.78 197.56 2424.02 197.035 Q2424.24 196.642 2424.35 196.461 Q2424.48 196.265 2424.79 195.887 Q2425.12 195.494 2425.55 195.314 Q2425.99 195.117 2426.53 195.117 Q2427.74 195.117 2428.63 195.904 Q2429.52 196.674 2429.63 198.035 Q2431.81 195.117 2434.86 195.117 Q2436.66 195.117 2437.7 196.068 Q2438.73 197.019 2438.73 198.708 Q2438.73 199.101 2438.65 199.609 Q2438.58 200.101 2438.42 200.724 Q2438.27 201.347 2438.14 201.823 Q2438.01 202.298 2437.75 203.069 Q2437.48 203.823 2437.37 204.151 Q2437.25 204.479 2436.98 205.249 Q2436.71 206.004 2436.68 206.086 Q2436.07 207.61 2436.07 208.479 Q2436.07 209.053 2436.25 209.316 Q2436.45 209.578 2436.88 209.578 Q2438.02 209.578 2438.88 208.447 Q2439.75 207.299 2440.3 205.43 Q2440.44 205.02 2440.5 204.921 Q2440.58 204.823 2440.81 204.823 Q2441.21 204.823 2441.21 205.151 Z" fill="#000000" fill-rule="evenodd" fill-opacity="1" /><path clip-path="url(#clip510)" d="
M2331.09 238.003 L2499.86 238.003 L2499.86 235.443 L2331.09 235.443  Z
  " fill="#000000" fill-rule="evenodd" fill-opacity="1"/>
<path clip-path="url(#clip510)" d="M2331.09 299.377 Q2331.09 298.51 2331.16 298.252 Q2331.26 297.995 2331.63 297.597 L2340.84 287.338 Q2345.87 281.669 2345.87 276.727 Q2345.87 273.518 2344.19 271.223 Q2342.52 268.927 2339.46 268.927 Q2337.35 268.927 2335.57 270.216 Q2333.79 271.504 2332.97 273.799 Q2333.11 273.753 2333.6 273.753 Q2334.8 273.753 2335.45 274.502 Q2336.13 275.252 2336.13 276.259 Q2336.13 277.547 2335.29 278.179 Q2334.47 278.788 2333.65 278.788 Q2333.32 278.788 2332.87 278.718 Q2332.45 278.648 2331.77 277.992 Q2331.09 277.313 2331.09 276.118 Q2331.09 272.769 2333.62 270.099 Q2336.18 267.428 2340.07 267.428 Q2344.47 267.428 2347.35 270.052 Q2350.25 272.652 2350.25 276.727 Q2350.25 278.156 2349.81 279.468 Q2349.39 280.756 2348.8 281.763 Q2348.24 282.77 2346.69 284.386 Q2345.15 286.002 2343.91 287.15 Q2342.67 288.298 2339.88 290.734 L2334.8 295.676 L2343.44 295.676 Q2347.65 295.676 2347.98 295.301 Q2348.45 294.622 2349.04 291.038 L2350.25 291.038 L2348.9 299.377 L2331.09 299.377 Z" fill="#000000" fill-rule="evenodd" fill-opacity="1" /><path clip-path="url(#clip510)" d="M2355.18 274.014 Q2355.18 273.407 2355.23 273.227 Q2355.3 273.046 2355.56 272.767 L2362.01 265.586 Q2365.53 261.618 2365.53 258.159 Q2365.53 255.913 2364.35 254.306 Q2363.19 252.699 2361.04 252.699 Q2359.56 252.699 2358.32 253.601 Q2357.07 254.503 2356.5 256.109 Q2356.59 256.077 2356.94 256.077 Q2357.78 256.077 2358.23 256.601 Q2358.71 257.126 2358.71 257.831 Q2358.71 258.733 2358.12 259.175 Q2357.55 259.602 2356.97 259.602 Q2356.74 259.602 2356.43 259.553 Q2356.14 259.503 2355.66 259.044 Q2355.18 258.569 2355.18 257.733 Q2355.18 255.388 2356.96 253.519 Q2358.74 251.65 2361.46 251.65 Q2364.55 251.65 2366.56 253.486 Q2368.6 255.306 2368.6 258.159 Q2368.6 259.159 2368.28 260.077 Q2367.99 260.979 2367.58 261.684 Q2367.19 262.389 2366.1 263.52 Q2365.02 264.652 2364.15 265.455 Q2363.28 266.258 2361.33 267.964 L2357.78 271.423 L2363.83 271.423 Q2366.78 271.423 2367.01 271.161 Q2367.33 270.685 2367.74 268.177 L2368.6 268.177 L2367.65 274.014 L2355.18 274.014 Z" fill="#000000" fill-rule="evenodd" fill-opacity="1" /><path clip-path="url(#clip510)" d="M2389.48 269.21 Q2389.48 269.341 2389.33 269.849 Q2389.18 270.357 2388.82 271.144 Q2388.48 271.931 2388 272.653 Q2387.52 273.358 2386.74 273.882 Q2385.97 274.391 2385.08 274.391 Q2383.9 274.391 2383.11 273.604 Q2382.33 272.817 2382.33 271.636 Q2382.33 270.98 2382.67 270.079 Q2384.85 264.258 2384.85 262.258 Q2384.85 259.913 2383.03 259.913 Q2382.13 259.913 2381.28 260.258 Q2380.44 260.585 2379.87 261.045 Q2379.29 261.504 2378.77 262.143 Q2378.26 262.766 2378 263.192 Q2377.75 263.602 2377.56 264.012 L2377.13 265.685 Q2377.03 266.144 2376.56 267.931 L2375.82 270.964 Q2375.29 273.227 2375.18 273.44 Q2375.01 273.899 2374.65 274.145 Q2374.29 274.391 2373.93 274.391 Q2373.52 274.391 2373.24 274.145 Q2372.97 273.899 2372.97 273.473 Q2372.97 273.407 2373.01 273.161 Q2373.06 272.915 2373.15 272.571 Q2373.23 272.226 2373.26 272.03 L2375.21 264.275 Q2375.57 262.864 2375.65 262.422 Q2375.75 261.963 2375.75 261.454 Q2375.75 259.913 2374.7 259.913 Q2373.85 259.913 2373.29 260.93 Q2372.74 261.946 2372.26 263.914 Q2372.11 264.455 2372.01 264.57 Q2371.93 264.684 2371.69 264.684 Q2371.28 264.668 2371.28 264.34 Q2371.28 264.258 2371.41 263.717 Q2371.54 263.176 2371.78 262.405 Q2372.05 261.618 2372.29 261.094 Q2372.51 260.7 2372.62 260.52 Q2372.75 260.323 2373.06 259.946 Q2373.39 259.553 2373.82 259.372 Q2374.26 259.175 2374.8 259.175 Q2376.01 259.175 2376.9 259.962 Q2377.79 260.733 2377.9 262.094 Q2380.08 259.175 2383.13 259.175 Q2384.93 259.175 2385.97 260.126 Q2387 261.077 2387 262.766 Q2387 263.16 2386.92 263.668 Q2386.85 264.16 2386.69 264.783 Q2386.54 265.406 2386.41 265.881 Q2386.28 266.357 2386.02 267.127 Q2385.75 267.882 2385.64 268.209 Q2385.52 268.537 2385.25 269.308 Q2384.98 270.062 2384.95 270.144 Q2384.34 271.669 2384.34 272.538 Q2384.34 273.112 2384.52 273.374 Q2384.72 273.636 2385.15 273.636 Q2386.29 273.636 2387.15 272.505 Q2388.02 271.357 2388.57 269.488 Q2388.71 269.078 2388.77 268.98 Q2388.85 268.882 2389.08 268.882 Q2389.48 268.882 2389.48 269.21 Z" fill="#000000" fill-rule="evenodd" fill-opacity="1" /><path clip-path="url(#clip510)" d="M2396.34 287.384 Q2396.34 279.28 2399.36 272.745 Q2400.65 270.005 2402.45 267.71 Q2404.26 265.414 2405.45 264.407 Q2406.64 263.4 2406.97 263.4 Q2407.44 263.4 2407.46 263.868 Q2407.46 264.102 2406.83 264.688 Q2399.1 272.558 2399.13 287.384 Q2399.13 302.258 2406.64 309.823 Q2407.46 310.643 2407.46 310.901 Q2407.46 311.369 2406.97 311.369 Q2406.64 311.369 2405.5 310.409 Q2404.35 309.448 2402.57 307.247 Q2400.79 305.045 2399.5 302.351 Q2396.34 295.816 2396.34 287.384 Z" fill="#000000" fill-rule="evenodd" fill-opacity="1" /><path clip-path="url(#clip510)" d="M2436.92 292.514 Q2436.92 292.701 2436.71 293.427 Q2436.5 294.153 2435.98 295.278 Q2435.49 296.402 2434.81 297.433 Q2434.13 298.44 2433.01 299.189 Q2431.91 299.915 2430.64 299.915 Q2428.95 299.915 2427.83 298.791 Q2426.71 297.667 2426.71 295.98 Q2426.71 295.044 2427.2 293.755 Q2430.31 285.44 2430.31 282.583 Q2430.31 279.233 2427.71 279.233 Q2426.42 279.233 2425.21 279.725 Q2424.01 280.194 2423.19 280.85 Q2422.37 281.505 2421.62 282.419 Q2420.9 283.309 2420.52 283.918 Q2420.17 284.503 2419.89 285.089 L2419.28 287.478 Q2419.14 288.134 2418.46 290.687 L2417.41 295.02 Q2416.66 298.252 2416.49 298.557 Q2416.26 299.213 2415.74 299.564 Q2415.23 299.915 2414.71 299.915 Q2414.13 299.915 2413.73 299.564 Q2413.33 299.213 2413.33 298.604 Q2413.33 298.51 2413.4 298.159 Q2413.47 297.807 2413.59 297.315 Q2413.71 296.824 2413.75 296.543 L2416.54 285.464 Q2417.06 283.449 2417.17 282.817 Q2417.31 282.161 2417.31 281.435 Q2417.31 279.233 2415.81 279.233 Q2414.6 279.233 2413.8 280.686 Q2413 282.138 2412.32 284.948 Q2412.11 285.721 2411.97 285.885 Q2411.86 286.049 2411.5 286.049 Q2410.92 286.026 2410.92 285.557 Q2410.92 285.44 2411.11 284.667 Q2411.29 283.894 2411.65 282.794 Q2412.02 281.669 2412.37 280.92 Q2412.68 280.358 2412.84 280.1 Q2413.03 279.819 2413.47 279.28 Q2413.94 278.718 2414.55 278.46 Q2415.18 278.179 2415.95 278.179 Q2417.69 278.179 2418.95 279.304 Q2420.22 280.404 2420.38 282.349 Q2423.5 278.179 2427.85 278.179 Q2430.43 278.179 2431.91 279.538 Q2433.38 280.896 2433.38 283.309 Q2433.38 283.871 2433.26 284.597 Q2433.17 285.3 2432.94 286.19 Q2432.73 287.08 2432.54 287.759 Q2432.35 288.438 2431.98 289.539 Q2431.6 290.617 2431.44 291.085 Q2431.27 291.554 2430.87 292.654 Q2430.5 293.732 2430.45 293.849 Q2429.59 296.027 2429.59 297.269 Q2429.59 298.088 2429.84 298.463 Q2430.13 298.838 2430.73 298.838 Q2432.37 298.838 2433.59 297.222 Q2434.83 295.582 2435.63 292.912 Q2435.82 292.327 2435.91 292.186 Q2436.03 292.045 2436.36 292.045 Q2436.92 292.045 2436.92 292.514 Z" fill="#000000" fill-rule="evenodd" fill-opacity="1" /><path clip-path="url(#clip510)" d="M2439.41 296.824 Q2439.41 295.723 2440.18 295.02 Q2440.95 294.294 2441.96 294.294 Q2442.97 294.294 2443.69 295.02 Q2444.44 295.723 2444.44 296.824 Q2444.44 297.878 2443.67 298.604 Q2442.92 299.33 2441.96 299.33 Q2440.86 299.33 2440.13 298.58 Q2439.41 297.831 2439.41 296.824 M2439.41 267.522 Q2439.41 266.374 2440.18 265.719 Q2440.95 265.039 2441.96 265.039 Q2442.97 265.039 2443.72 265.719 Q2444.49 266.374 2444.49 267.522 Q2444.49 267.616 2444.47 267.803 Q2444.44 267.967 2444.44 268.061 L2442.62 289.258 Q2442.52 290.359 2441.91 290.359 Q2441.38 290.359 2441.28 289.071 L2439.45 268.201 Q2439.45 268.108 2439.43 267.873 Q2439.41 267.616 2439.41 267.522 Z" fill="#000000" fill-rule="evenodd" fill-opacity="1" /><path clip-path="url(#clip510)" d="M2460.21 310.901 Q2460.21 310.666 2460.82 310.081 Q2468.55 302.211 2468.55 287.384 Q2468.55 272.511 2461.13 264.993 Q2460.21 264.126 2460.21 263.868 Q2460.21 263.4 2460.68 263.4 Q2461.01 263.4 2462.16 264.36 Q2463.33 265.32 2465.09 267.522 Q2466.87 269.724 2468.18 272.417 Q2471.34 278.952 2471.34 287.384 Q2471.34 295.489 2468.32 302.023 Q2467.03 304.764 2465.23 307.059 Q2463.42 309.355 2462.23 310.362 Q2461.03 311.369 2460.68 311.369 Q2460.21 311.369 2460.21 310.901 Z" fill="#000000" fill-rule="evenodd" fill-opacity="1" /><path clip-path="url(#clip510)" d="M2476.34 270.391 Q2476.34 269.784 2476.39 269.604 Q2476.46 269.424 2476.72 269.145 L2483.16 261.964 Q2486.69 257.996 2486.69 254.536 Q2486.69 252.29 2485.51 250.683 Q2484.34 249.077 2482.2 249.077 Q2480.72 249.077 2479.47 249.978 Q2478.23 250.88 2477.65 252.487 Q2477.75 252.454 2478.1 252.454 Q2478.93 252.454 2479.39 252.979 Q2479.87 253.503 2479.87 254.209 Q2479.87 255.11 2479.28 255.553 Q2478.7 255.979 2478.13 255.979 Q2477.9 255.979 2477.59 255.93 Q2477.29 255.881 2476.82 255.422 Q2476.34 254.946 2476.34 254.11 Q2476.34 251.766 2478.11 249.896 Q2479.9 248.027 2482.62 248.027 Q2485.7 248.027 2487.72 249.864 Q2489.75 251.684 2489.75 254.536 Q2489.75 255.537 2489.44 256.455 Q2489.15 257.356 2488.74 258.061 Q2488.34 258.767 2487.26 259.898 Q2486.18 261.029 2485.31 261.833 Q2484.44 262.636 2482.49 264.341 L2478.93 267.801 L2484.98 267.801 Q2487.93 267.801 2488.16 267.538 Q2488.49 267.063 2488.9 264.554 L2489.75 264.554 L2488.8 270.391 L2476.34 270.391 Z" fill="#000000" fill-rule="evenodd" fill-opacity="1" /><polyline clip-path="url(#clip510)" style="stroke:#e26f46; stroke-linecap:round; stroke-linejoin:round; stroke-width:4; stroke-opacity:1; fill:none" points="
  1906.47,379.78 2069.4,379.78 
  "/>
<path clip-path="url(#clip510)" d="M2123.51 357.876 Q2123.51 358.321 2123.32 358.532 Q2123.14 358.719 2122.93 358.766 Q2122.72 358.79 2122.22 358.79 Q2121.22 358.79 2120.68 358.86 Q2120.14 358.93 2119.81 359.235 Q2119.48 359.516 2119.37 359.797 Q2119.27 360.078 2119.11 360.804 L2113.49 383.196 Q2112.62 386.639 2109.48 388.887 Q2106.34 391.113 2102.9 391.113 Q2100.09 391.113 2098.31 389.637 Q2096.55 388.138 2096.55 385.889 Q2096.55 384.742 2096.93 383.922 Q2097.3 383.102 2097.86 382.727 Q2098.43 382.353 2098.9 382.212 Q2099.39 382.048 2099.79 382.048 Q2100.56 382.048 2101.21 382.54 Q2101.89 383.032 2101.89 384.062 Q2101.89 385.21 2101 386.17 Q2100.11 387.131 2098.78 387.131 Q2098.33 387.131 2098.19 387.084 Q2098.54 388.232 2099.46 388.958 Q2100.37 389.66 2101.17 389.871 Q2101.99 390.059 2102.76 390.059 Q2104.77 390.059 2106.81 388.115 Q2108.85 386.17 2109.67 382.868 L2115.17 360.851 Q2115.36 360.101 2115.36 359.844 Q2115.36 359.352 2115.06 359.188 Q2114.78 359 2113.89 358.883 Q2112.69 358.79 2111.1 358.79 Q2110.54 358.79 2110.3 358.79 Q2110.07 358.766 2109.83 358.719 Q2109.6 358.672 2109.53 358.579 Q2109.46 358.462 2109.46 358.251 Q2109.46 357.806 2109.65 357.595 Q2109.83 357.361 2110 357.337 Q2110.16 357.291 2110.47 357.291 L2117.52 357.431 Q2118.12 357.431 2120.19 357.361 Q2122.25 357.291 2122.86 357.291 Q2123.51 357.291 2123.51 357.876 Z" fill="#000000" fill-rule="evenodd" fill-opacity="1" /><path clip-path="url(#clip510)" d="M2128.36 393.658 Q2128.36 388.723 2129.61 386.034 Q2131.34 382.034 2135.44 382.034 Q2136.31 382.034 2137.21 382.28 Q2138.13 382.509 2139.28 383.411 Q2140.44 384.313 2141.15 385.788 Q2142.49 388.641 2142.49 393.658 Q2142.49 398.56 2141.25 401.233 Q2139.43 405.135 2135.41 405.135 Q2133.9 405.135 2132.36 404.365 Q2130.84 403.594 2129.87 401.741 Q2128.36 398.97 2128.36 393.658 M2131.15 393.248 Q2131.15 398.315 2131.51 400.331 Q2131.92 402.512 2133.03 403.463 Q2134.16 404.397 2135.41 404.397 Q2136.75 404.397 2137.87 403.397 Q2139 402.381 2139.35 400.2 Q2139.72 398.052 2139.71 393.248 Q2139.71 388.576 2139.38 386.706 Q2138.94 384.526 2137.76 383.657 Q2136.59 382.771 2135.41 382.771 Q2134.97 382.771 2134.49 382.903 Q2134.03 383.034 2133.36 383.411 Q2132.69 383.788 2132.16 384.723 Q2131.66 385.657 2131.41 387.067 Q2131.15 388.887 2131.15 393.248 Z" fill="#000000" fill-rule="evenodd" fill-opacity="1" /><path clip-path="url(#clip510)" d="M2147.47 378.066 Q2147.47 369.962 2150.49 363.427 Q2151.78 360.687 2153.58 358.391 Q2155.39 356.096 2156.58 355.089 Q2157.78 354.082 2158.1 354.082 Q2158.57 354.082 2158.6 354.55 Q2158.6 354.784 2157.96 355.37 Q2150.23 363.24 2150.26 378.066 Q2150.26 392.94 2157.78 400.505 Q2158.6 401.325 2158.6 401.582 Q2158.6 402.051 2158.1 402.051 Q2157.78 402.051 2156.63 401.091 Q2155.48 400.13 2153.7 397.929 Q2151.92 395.727 2150.63 393.033 Q2147.47 386.498 2147.47 378.066 Z" fill="#000000" fill-rule="evenodd" fill-opacity="1" /><path clip-path="url(#clip510)" d="M2186.13 372.023 Q2186.13 373.335 2185.31 374.084 Q2184.49 374.811 2183.56 374.811 Q2182.67 374.811 2182.2 374.295 Q2181.73 373.78 2181.73 373.124 Q2181.73 372.234 2182.39 371.461 Q2183.04 370.688 2184.03 370.524 Q2183.06 369.915 2181.64 369.915 Q2180.7 369.915 2179.88 370.407 Q2179.08 370.899 2178.59 371.531 Q2178.12 372.164 2177.7 373.077 Q2177.3 373.967 2177.14 374.506 Q2177 375.021 2176.88 375.583 L2175.24 382.142 Q2174.45 385.257 2174.45 386.358 Q2174.45 387.716 2175.1 388.63 Q2175.76 389.52 2177.07 389.52 Q2177.58 389.52 2178.17 389.379 Q2178.76 389.215 2179.5 388.794 Q2180.28 388.349 2180.96 387.693 Q2181.66 387.014 2182.34 385.866 Q2183.02 384.718 2183.46 383.243 Q2183.6 382.727 2184.07 382.727 Q2184.66 382.727 2184.66 383.196 Q2184.66 383.594 2184.33 384.437 Q2184.03 385.257 2183.35 386.334 Q2182.69 387.388 2181.82 388.349 Q2180.96 389.286 2179.67 389.941 Q2178.38 390.597 2176.97 390.597 Q2174.96 390.597 2173.63 389.52 Q2172.29 388.442 2171.8 386.943 Q2171.68 387.154 2171.52 387.435 Q2171.35 387.716 2170.86 388.349 Q2170.39 388.958 2169.85 389.426 Q2169.32 389.871 2168.47 390.223 Q2167.65 390.597 2166.76 390.597 Q2165.64 390.597 2164.63 390.269 Q2163.65 389.941 2162.94 389.192 Q2162.24 388.442 2162.24 387.412 Q2162.24 386.264 2163.02 385.468 Q2163.81 384.648 2164.89 384.648 Q2165.57 384.648 2166.11 385.046 Q2166.67 385.444 2166.67 386.311 Q2166.67 387.271 2166.01 387.997 Q2165.36 388.723 2164.42 388.911 Q2165.38 389.52 2166.81 389.52 Q2168.36 389.52 2169.57 388.161 Q2170.79 386.803 2171.38 384.531 Q2172.83 379.073 2173.39 376.638 Q2173.95 374.178 2173.95 373.124 Q2173.95 372.14 2173.7 371.461 Q2173.44 370.782 2172.99 370.477 Q2172.57 370.149 2172.17 370.032 Q2171.8 369.915 2171.38 369.915 Q2170.67 369.915 2169.88 370.196 Q2169.1 370.477 2168.17 371.133 Q2167.25 371.766 2166.39 373.077 Q2165.52 374.389 2164.94 376.192 Q2164.82 376.731 2164.3 376.731 Q2163.74 376.708 2163.74 376.239 Q2163.74 375.841 2164.05 375.021 Q2164.37 374.178 2165.03 373.124 Q2165.71 372.07 2166.58 371.133 Q2167.47 370.173 2168.75 369.517 Q2170.07 368.861 2171.47 368.861 Q2172.1 368.861 2172.71 369.002 Q2173.34 369.119 2174.09 369.47 Q2174.87 369.822 2175.55 370.595 Q2176.23 371.367 2176.65 372.492 Q2176.93 371.953 2177.3 371.438 Q2177.7 370.922 2178.31 370.29 Q2178.94 369.634 2179.81 369.259 Q2180.7 368.861 2181.68 368.861 Q2182.64 368.861 2183.58 369.119 Q2184.52 369.353 2185.31 370.126 Q2186.13 370.876 2186.13 372.023 Z" fill="#000000" fill-rule="evenodd" fill-opacity="1" /><path clip-path="url(#clip510)" d="M2190.75 401.582 Q2190.75 401.348 2191.36 400.763 Q2199.09 392.893 2199.09 378.066 Q2199.09 363.193 2191.67 355.674 Q2190.75 354.808 2190.75 354.55 Q2190.75 354.082 2191.22 354.082 Q2191.55 354.082 2192.7 355.042 Q2193.87 356.002 2195.62 358.204 Q2197.4 360.406 2198.72 363.099 Q2201.88 369.634 2201.88 378.066 Q2201.88 386.17 2198.86 392.705 Q2197.57 395.446 2195.77 397.741 Q2193.96 400.037 2192.77 401.044 Q2191.57 402.051 2191.22 402.051 Q2190.75 402.051 2190.75 401.582 Z" fill="#000000" fill-rule="evenodd" fill-opacity="1" /></svg>
