<?xml version="1.0" encoding="utf-8"?>
<svg xmlns="http://www.w3.org/2000/svg" xmlns:xlink="http://www.w3.org/1999/xlink" width="672" height="480" viewBox="0 0 2688 1920">
<defs>
  <clipPath id="clip190">
    <rect x="0" y="0" width="2688" height="1920"/>
  </clipPath>
</defs>
<path clip-path="url(#clip190)" d="
M0 1920 L2688 1920 L2688 0 L0 0  Z
  " fill="#ffffff" fill-rule="evenodd" fill-opacity="1"/>
<defs>
  <clipPath id="clip191">
    <rect x="537" y="0" width="1883" height="1883"/>
  </clipPath>
</defs>
<path clip-path="url(#clip190)" d="
M159.154 1800.78 L2640.76 1800.78 L2640.76 47.2441 L159.154 47.2441  Z
  " fill="#ffffff" fill-rule="evenodd" fill-opacity="1"/>
<defs>
  <clipPath id="clip192">
    <rect x="159" y="47" width="2483" height="1755"/>
  </clipPath>
</defs>
<polyline clip-path="url(#clip192)" style="stroke:#000000; stroke-linecap:round; stroke-linejoin:round; stroke-width:2; stroke-opacity:0.1; fill:none" points="
  181.61,1800.78 181.61,47.2441 
  "/>
<polyline clip-path="url(#clip192)" style="stroke:#000000; stroke-linecap:round; stroke-linejoin:round; stroke-width:2; stroke-opacity:0.1; fill:none" points="
  659.392,1800.78 659.392,47.2441 
  "/>
<polyline clip-path="url(#clip192)" style="stroke:#000000; stroke-linecap:round; stroke-linejoin:round; stroke-width:2; stroke-opacity:0.1; fill:none" points="
  1137.17,1800.78 1137.17,47.2441 
  "/>
<polyline clip-path="url(#clip192)" style="stroke:#000000; stroke-linecap:round; stroke-linejoin:round; stroke-width:2; stroke-opacity:0.1; fill:none" points="
  1614.96,1800.78 1614.96,47.2441 
  "/>
<polyline clip-path="url(#clip192)" style="stroke:#000000; stroke-linecap:round; stroke-linejoin:round; stroke-width:2; stroke-opacity:0.1; fill:none" points="
  2092.74,1800.78 2092.74,47.2441 
  "/>
<polyline clip-path="url(#clip192)" style="stroke:#000000; stroke-linecap:round; stroke-linejoin:round; stroke-width:2; stroke-opacity:0.1; fill:none" points="
  2570.52,1800.78 2570.52,47.2441 
  "/>
<polyline clip-path="url(#clip190)" style="stroke:#000000; stroke-linecap:round; stroke-linejoin:round; stroke-width:4; stroke-opacity:1; fill:none" points="
  159.154,1800.78 2640.76,1800.78 
  "/>
<polyline clip-path="url(#clip190)" style="stroke:#000000; stroke-linecap:round; stroke-linejoin:round; stroke-width:4; stroke-opacity:1; fill:none" points="
  181.61,1800.78 181.61,1781.88 
  "/>
<polyline clip-path="url(#clip190)" style="stroke:#000000; stroke-linecap:round; stroke-linejoin:round; stroke-width:4; stroke-opacity:1; fill:none" points="
  659.392,1800.78 659.392,1781.88 
  "/>
<polyline clip-path="url(#clip190)" style="stroke:#000000; stroke-linecap:round; stroke-linejoin:round; stroke-width:4; stroke-opacity:1; fill:none" points="
  1137.17,1800.78 1137.17,1781.88 
  "/>
<polyline clip-path="url(#clip190)" style="stroke:#000000; stroke-linecap:round; stroke-linejoin:round; stroke-width:4; stroke-opacity:1; fill:none" points="
  1614.96,1800.78 1614.96,1781.88 
  "/>
<polyline clip-path="url(#clip190)" style="stroke:#000000; stroke-linecap:round; stroke-linejoin:round; stroke-width:4; stroke-opacity:1; fill:none" points="
  2092.74,1800.78 2092.74,1781.88 
  "/>
<polyline clip-path="url(#clip190)" style="stroke:#000000; stroke-linecap:round; stroke-linejoin:round; stroke-width:4; stroke-opacity:1; fill:none" points="
  2570.52,1800.78 2570.52,1781.88 
  "/>
<path clip-path="url(#clip190)" d="M181.61 1834 Q177.999 1834 176.17 1837.57 Q174.365 1841.11 174.365 1848.24 Q174.365 1855.34 176.17 1858.91 Q177.999 1862.45 181.61 1862.45 Q185.244 1862.45 187.05 1858.91 Q188.878 1855.34 188.878 1848.24 Q188.878 1841.11 187.05 1837.57 Q185.244 1834 181.61 1834 M181.61 1830.3 Q187.42 1830.3 190.476 1834.9 Q193.554 1839.49 193.554 1848.24 Q193.554 1856.96 190.476 1861.57 Q187.42 1866.15 181.61 1866.15 Q175.8 1866.15 172.721 1861.57 Q169.666 1856.96 169.666 1848.24 Q169.666 1839.49 172.721 1834.9 Q175.8 1830.3 181.61 1830.3 Z" fill="#000000" fill-rule="evenodd" fill-opacity="1" /><path clip-path="url(#clip190)" d="M634.08 1861.55 L641.719 1861.55 L641.719 1835.18 L633.409 1836.85 L633.409 1832.59 L641.673 1830.92 L646.348 1830.92 L646.348 1861.55 L653.987 1861.55 L653.987 1865.48 L634.08 1865.48 L634.08 1861.55 Z" fill="#000000" fill-rule="evenodd" fill-opacity="1" /><path clip-path="url(#clip190)" d="M673.432 1834 Q669.821 1834 667.992 1837.57 Q666.186 1841.11 666.186 1848.24 Q666.186 1855.34 667.992 1858.91 Q669.821 1862.45 673.432 1862.45 Q677.066 1862.45 678.871 1858.91 Q680.7 1855.34 680.7 1848.24 Q680.7 1841.11 678.871 1837.57 Q677.066 1834 673.432 1834 M673.432 1830.3 Q679.242 1830.3 682.297 1834.9 Q685.376 1839.49 685.376 1848.24 Q685.376 1856.96 682.297 1861.57 Q679.242 1866.15 673.432 1866.15 Q667.621 1866.15 664.543 1861.57 Q661.487 1856.96 661.487 1848.24 Q661.487 1839.49 664.543 1834.9 Q667.621 1830.3 673.432 1830.3 Z" fill="#000000" fill-rule="evenodd" fill-opacity="1" /><path clip-path="url(#clip190)" d="M1115.95 1861.55 L1132.27 1861.55 L1132.27 1865.48 L1110.32 1865.48 L1110.32 1861.55 Q1112.99 1858.79 1117.57 1854.16 Q1122.17 1849.51 1123.36 1848.17 Q1125.6 1845.65 1126.48 1843.91 Q1127.38 1842.15 1127.38 1840.46 Q1127.38 1837.71 1125.44 1835.97 Q1123.52 1834.23 1120.42 1834.23 Q1118.22 1834.23 1115.76 1835 Q1113.33 1835.76 1110.55 1837.31 L1110.55 1832.59 Q1113.38 1831.46 1115.83 1830.88 Q1118.29 1830.3 1120.32 1830.3 Q1125.69 1830.3 1128.89 1832.98 Q1132.08 1835.67 1132.08 1840.16 Q1132.08 1842.29 1131.27 1844.21 Q1130.48 1846.11 1128.38 1848.7 Q1127.8 1849.37 1124.7 1852.59 Q1121.6 1855.78 1115.95 1861.55 Z" fill="#000000" fill-rule="evenodd" fill-opacity="1" /><path clip-path="url(#clip190)" d="M1152.08 1834 Q1148.47 1834 1146.64 1837.57 Q1144.84 1841.11 1144.84 1848.24 Q1144.84 1855.34 1146.64 1858.91 Q1148.47 1862.45 1152.08 1862.45 Q1155.72 1862.45 1157.52 1858.91 Q1159.35 1855.34 1159.35 1848.24 Q1159.35 1841.11 1157.52 1837.57 Q1155.72 1834 1152.08 1834 M1152.08 1830.3 Q1157.89 1830.3 1160.95 1834.9 Q1164.03 1839.49 1164.03 1848.24 Q1164.03 1856.96 1160.95 1861.57 Q1157.89 1866.15 1152.08 1866.15 Q1146.27 1866.15 1143.19 1861.57 Q1140.14 1856.96 1140.14 1848.24 Q1140.14 1839.49 1143.19 1834.9 Q1146.27 1830.3 1152.08 1830.3 Z" fill="#000000" fill-rule="evenodd" fill-opacity="1" /><path clip-path="url(#clip190)" d="M1603.8 1846.85 Q1607.16 1847.57 1609.03 1849.84 Q1610.93 1852.1 1610.93 1855.44 Q1610.93 1860.55 1607.41 1863.35 Q1603.89 1866.15 1597.41 1866.15 Q1595.23 1866.15 1592.92 1865.71 Q1590.63 1865.3 1588.17 1864.44 L1588.17 1859.93 Q1590.12 1861.06 1592.43 1861.64 Q1594.75 1862.22 1597.27 1862.22 Q1601.67 1862.22 1603.96 1860.48 Q1606.28 1858.75 1606.28 1855.44 Q1606.28 1852.38 1604.12 1850.67 Q1601.99 1848.93 1598.17 1848.93 L1594.15 1848.93 L1594.15 1845.09 L1598.36 1845.09 Q1601.81 1845.09 1603.64 1843.72 Q1605.47 1842.34 1605.47 1839.74 Q1605.47 1837.08 1603.57 1835.67 Q1601.69 1834.23 1598.17 1834.23 Q1596.25 1834.23 1594.05 1834.65 Q1591.86 1835.07 1589.22 1835.95 L1589.22 1831.78 Q1591.88 1831.04 1594.19 1830.67 Q1596.53 1830.3 1598.59 1830.3 Q1603.92 1830.3 1607.02 1832.73 Q1610.12 1835.14 1610.12 1839.26 Q1610.12 1842.13 1608.48 1844.12 Q1606.83 1846.09 1603.8 1846.85 Z" fill="#000000" fill-rule="evenodd" fill-opacity="1" /><path clip-path="url(#clip190)" d="M1629.79 1834 Q1626.18 1834 1624.36 1837.57 Q1622.55 1841.11 1622.55 1848.24 Q1622.55 1855.34 1624.36 1858.91 Q1626.18 1862.45 1629.79 1862.45 Q1633.43 1862.45 1635.23 1858.91 Q1637.06 1855.34 1637.06 1848.24 Q1637.06 1841.11 1635.23 1837.57 Q1633.43 1834 1629.79 1834 M1629.79 1830.3 Q1635.61 1830.3 1638.66 1834.9 Q1641.74 1839.49 1641.74 1848.24 Q1641.74 1856.96 1638.66 1861.57 Q1635.61 1866.15 1629.79 1866.15 Q1623.98 1866.15 1620.91 1861.57 Q1617.85 1856.96 1617.85 1848.24 Q1617.85 1839.49 1620.91 1834.9 Q1623.98 1830.3 1629.79 1830.3 Z" fill="#000000" fill-rule="evenodd" fill-opacity="1" /><path clip-path="url(#clip190)" d="M2080.91 1835 L2069.11 1853.45 L2080.91 1853.45 L2080.91 1835 M2079.68 1830.92 L2085.56 1830.92 L2085.56 1853.45 L2090.49 1853.45 L2090.49 1857.34 L2085.56 1857.34 L2085.56 1865.48 L2080.91 1865.48 L2080.91 1857.34 L2065.31 1857.34 L2065.31 1852.82 L2079.68 1830.92 Z" fill="#000000" fill-rule="evenodd" fill-opacity="1" /><path clip-path="url(#clip190)" d="M2108.23 1834 Q2104.61 1834 2102.79 1837.57 Q2100.98 1841.11 2100.98 1848.24 Q2100.98 1855.34 2102.79 1858.91 Q2104.61 1862.45 2108.23 1862.45 Q2111.86 1862.45 2113.67 1858.91 Q2115.49 1855.34 2115.49 1848.24 Q2115.49 1841.11 2113.67 1837.57 Q2111.86 1834 2108.23 1834 M2108.23 1830.3 Q2114.04 1830.3 2117.09 1834.9 Q2120.17 1839.49 2120.17 1848.24 Q2120.17 1856.96 2117.09 1861.57 Q2114.04 1866.15 2108.23 1866.15 Q2102.42 1866.15 2099.34 1861.57 Q2096.28 1856.96 2096.28 1848.24 Q2096.28 1839.49 2099.34 1834.9 Q2102.42 1830.3 2108.23 1830.3 Z" fill="#000000" fill-rule="evenodd" fill-opacity="1" /><path clip-path="url(#clip190)" d="M2545.22 1830.92 L2563.58 1830.92 L2563.58 1834.86 L2549.5 1834.86 L2549.5 1843.33 Q2550.52 1842.98 2551.54 1842.82 Q2552.56 1842.64 2553.58 1842.64 Q2559.36 1842.64 2562.74 1845.81 Q2566.12 1848.98 2566.12 1854.4 Q2566.12 1859.97 2562.65 1863.08 Q2559.18 1866.15 2552.86 1866.15 Q2550.68 1866.15 2548.42 1865.78 Q2546.17 1865.41 2543.76 1864.67 L2543.76 1859.97 Q2545.85 1861.11 2548.07 1861.66 Q2550.29 1862.22 2552.77 1862.22 Q2556.77 1862.22 2559.11 1860.11 Q2561.45 1858.01 2561.45 1854.4 Q2561.45 1850.78 2559.11 1848.68 Q2556.77 1846.57 2552.77 1846.57 Q2550.89 1846.57 2549.02 1846.99 Q2547.17 1847.4 2545.22 1848.28 L2545.22 1830.92 Z" fill="#000000" fill-rule="evenodd" fill-opacity="1" /><path clip-path="url(#clip190)" d="M2585.34 1834 Q2581.73 1834 2579.9 1837.57 Q2578.09 1841.11 2578.09 1848.24 Q2578.09 1855.34 2579.9 1858.91 Q2581.73 1862.45 2585.34 1862.45 Q2588.97 1862.45 2590.78 1858.91 Q2592.61 1855.34 2592.61 1848.24 Q2592.61 1841.11 2590.78 1837.57 Q2588.97 1834 2585.34 1834 M2585.34 1830.3 Q2591.15 1830.3 2594.2 1834.9 Q2597.28 1839.49 2597.28 1848.24 Q2597.28 1856.96 2594.2 1861.57 Q2591.15 1866.15 2585.34 1866.15 Q2579.53 1866.15 2576.45 1861.57 Q2573.39 1856.96 2573.39 1848.24 Q2573.39 1839.49 2576.45 1834.9 Q2579.53 1830.3 2585.34 1830.3 Z" fill="#000000" fill-rule="evenodd" fill-opacity="1" /><polyline clip-path="url(#clip192)" style="stroke:#000000; stroke-linecap:round; stroke-linejoin:round; stroke-width:2; stroke-opacity:0.1; fill:none" points="
  159.154,1751.15 2640.76,1751.15 
  "/>
<polyline clip-path="url(#clip192)" style="stroke:#000000; stroke-linecap:round; stroke-linejoin:round; stroke-width:2; stroke-opacity:0.1; fill:none" points="
  159.154,1420.3 2640.76,1420.3 
  "/>
<polyline clip-path="url(#clip192)" style="stroke:#000000; stroke-linecap:round; stroke-linejoin:round; stroke-width:2; stroke-opacity:0.1; fill:none" points="
  159.154,1089.44 2640.76,1089.44 
  "/>
<polyline clip-path="url(#clip192)" style="stroke:#000000; stroke-linecap:round; stroke-linejoin:round; stroke-width:2; stroke-opacity:0.1; fill:none" points="
  159.154,758.584 2640.76,758.584 
  "/>
<polyline clip-path="url(#clip192)" style="stroke:#000000; stroke-linecap:round; stroke-linejoin:round; stroke-width:2; stroke-opacity:0.1; fill:none" points="
  159.154,427.728 2640.76,427.728 
  "/>
<polyline clip-path="url(#clip192)" style="stroke:#000000; stroke-linecap:round; stroke-linejoin:round; stroke-width:2; stroke-opacity:0.1; fill:none" points="
  159.154,96.8724 2640.76,96.8724 
  "/>
<polyline clip-path="url(#clip190)" style="stroke:#000000; stroke-linecap:round; stroke-linejoin:round; stroke-width:4; stroke-opacity:1; fill:none" points="
  159.154,1800.78 159.154,47.2441 
  "/>
<polyline clip-path="url(#clip190)" style="stroke:#000000; stroke-linecap:round; stroke-linejoin:round; stroke-width:4; stroke-opacity:1; fill:none" points="
  159.154,1751.15 178.052,1751.15 
  "/>
<polyline clip-path="url(#clip190)" style="stroke:#000000; stroke-linecap:round; stroke-linejoin:round; stroke-width:4; stroke-opacity:1; fill:none" points="
  159.154,1420.3 178.052,1420.3 
  "/>
<polyline clip-path="url(#clip190)" style="stroke:#000000; stroke-linecap:round; stroke-linejoin:round; stroke-width:4; stroke-opacity:1; fill:none" points="
  159.154,1089.44 178.052,1089.44 
  "/>
<polyline clip-path="url(#clip190)" style="stroke:#000000; stroke-linecap:round; stroke-linejoin:round; stroke-width:4; stroke-opacity:1; fill:none" points="
  159.154,758.584 178.052,758.584 
  "/>
<polyline clip-path="url(#clip190)" style="stroke:#000000; stroke-linecap:round; stroke-linejoin:round; stroke-width:4; stroke-opacity:1; fill:none" points="
  159.154,427.728 178.052,427.728 
  "/>
<polyline clip-path="url(#clip190)" style="stroke:#000000; stroke-linecap:round; stroke-linejoin:round; stroke-width:4; stroke-opacity:1; fill:none" points="
  159.154,96.8724 178.052,96.8724 
  "/>
<path clip-path="url(#clip190)" d="M62.6539 1736.95 Q59.0428 1736.95 57.2141 1740.51 Q55.4086 1744.06 55.4086 1751.19 Q55.4086 1758.29 57.2141 1761.86 Q59.0428 1765.4 62.6539 1765.4 Q66.2881 1765.4 68.0937 1761.86 Q69.9224 1758.29 69.9224 1751.19 Q69.9224 1744.06 68.0937 1740.51 Q66.2881 1736.95 62.6539 1736.95 M62.6539 1733.25 Q68.4641 1733.25 71.5196 1737.85 Q74.5983 1742.44 74.5983 1751.19 Q74.5983 1759.91 71.5196 1764.52 Q68.4641 1769.1 62.6539 1769.1 Q56.8438 1769.1 53.7651 1764.52 Q50.7095 1759.91 50.7095 1751.19 Q50.7095 1742.44 53.7651 1737.85 Q56.8438 1733.25 62.6539 1733.25 Z" fill="#000000" fill-rule="evenodd" fill-opacity="1" /><path clip-path="url(#clip190)" d="M82.8158 1762.55 L87.7001 1762.55 L87.7001 1768.43 L82.8158 1768.43 L82.8158 1762.55 Z" fill="#000000" fill-rule="evenodd" fill-opacity="1" /><path clip-path="url(#clip190)" d="M97.9315 1733.87 L116.288 1733.87 L116.288 1737.81 L102.214 1737.81 L102.214 1746.28 Q103.232 1745.93 104.251 1745.77 Q105.269 1745.58 106.288 1745.58 Q112.075 1745.58 115.455 1748.76 Q118.834 1751.93 118.834 1757.34 Q118.834 1762.92 115.362 1766.02 Q111.89 1769.1 105.57 1769.1 Q103.394 1769.1 101.126 1768.73 Q98.8806 1768.36 96.4732 1767.62 L96.4732 1762.92 Q98.5565 1764.06 100.779 1764.61 Q103.001 1765.17 105.478 1765.17 Q109.482 1765.17 111.82 1763.06 Q114.158 1760.95 114.158 1757.34 Q114.158 1753.73 111.82 1751.63 Q109.482 1749.52 105.478 1749.52 Q103.603 1749.52 101.728 1749.94 Q99.8759 1750.35 97.9315 1751.23 L97.9315 1733.87 Z" fill="#000000" fill-rule="evenodd" fill-opacity="1" /><path clip-path="url(#clip190)" d="M61.4965 1406.09 Q57.8854 1406.09 56.0567 1409.66 Q54.2512 1413.2 54.2512 1420.33 Q54.2512 1427.44 56.0567 1431 Q57.8854 1434.54 61.4965 1434.54 Q65.1307 1434.54 66.9363 1431 Q68.765 1427.44 68.765 1420.33 Q68.765 1413.2 66.9363 1409.66 Q65.1307 1406.09 61.4965 1406.09 M61.4965 1402.39 Q67.3067 1402.39 70.3622 1407 Q73.4409 1411.58 73.4409 1420.33 Q73.4409 1429.06 70.3622 1433.66 Q67.3067 1438.25 61.4965 1438.25 Q55.6864 1438.25 52.6077 1433.66 Q49.5521 1429.06 49.5521 1420.33 Q49.5521 1411.58 52.6077 1407 Q55.6864 1402.39 61.4965 1402.39 Z" fill="#000000" fill-rule="evenodd" fill-opacity="1" /><path clip-path="url(#clip190)" d="M81.6584 1431.7 L86.5427 1431.7 L86.5427 1437.58 L81.6584 1437.58 L81.6584 1431.7 Z" fill="#000000" fill-rule="evenodd" fill-opacity="1" /><path clip-path="url(#clip190)" d="M107.306 1418.43 Q104.158 1418.43 102.306 1420.58 Q100.478 1422.74 100.478 1426.49 Q100.478 1430.21 102.306 1432.39 Q104.158 1434.54 107.306 1434.54 Q110.455 1434.54 112.283 1432.39 Q114.135 1430.21 114.135 1426.49 Q114.135 1422.74 112.283 1420.58 Q110.455 1418.43 107.306 1418.43 M116.589 1403.78 L116.589 1408.04 Q114.83 1407.21 113.024 1406.77 Q111.242 1406.33 109.482 1406.33 Q104.853 1406.33 102.399 1409.45 Q99.9685 1412.58 99.6213 1418.89 Q100.987 1416.88 103.047 1415.82 Q105.107 1414.73 107.584 1414.73 Q112.793 1414.73 115.802 1417.9 Q118.834 1421.05 118.834 1426.49 Q118.834 1431.81 115.686 1435.03 Q112.538 1438.25 107.306 1438.25 Q101.311 1438.25 98.1398 1433.66 Q94.9685 1429.06 94.9685 1420.33 Q94.9685 1412.14 98.8574 1407.27 Q102.746 1402.39 109.297 1402.39 Q111.056 1402.39 112.839 1402.74 Q114.644 1403.08 116.589 1403.78 Z" fill="#000000" fill-rule="evenodd" fill-opacity="1" /><path clip-path="url(#clip190)" d="M62.5613 1075.24 Q58.9502 1075.24 57.1215 1078.8 Q55.316 1082.34 55.316 1089.47 Q55.316 1096.58 57.1215 1100.15 Q58.9502 1103.69 62.5613 1103.69 Q66.1956 1103.69 68.0011 1100.15 Q69.8298 1096.58 69.8298 1089.47 Q69.8298 1082.34 68.0011 1078.8 Q66.1956 1075.24 62.5613 1075.24 M62.5613 1071.53 Q68.3715 1071.53 71.427 1076.14 Q74.5057 1080.72 74.5057 1089.47 Q74.5057 1098.2 71.427 1102.81 Q68.3715 1107.39 62.5613 1107.39 Q56.7512 1107.39 53.6725 1102.81 Q50.6169 1098.2 50.6169 1089.47 Q50.6169 1080.72 53.6725 1076.14 Q56.7512 1071.53 62.5613 1071.53 Z" fill="#000000" fill-rule="evenodd" fill-opacity="1" /><path clip-path="url(#clip190)" d="M82.7232 1100.84 L87.6075 1100.84 L87.6075 1106.72 L82.7232 1106.72 L82.7232 1100.84 Z" fill="#000000" fill-rule="evenodd" fill-opacity="1" /><path clip-path="url(#clip190)" d="M96.6121 1072.16 L118.834 1072.16 L118.834 1074.15 L106.288 1106.72 L101.404 1106.72 L113.209 1076.09 L96.6121 1076.09 L96.6121 1072.16 Z" fill="#000000" fill-rule="evenodd" fill-opacity="1" /><path clip-path="url(#clip190)" d="M61.7511 744.383 Q58.14 744.383 56.3113 747.947 Q54.5058 751.489 54.5058 758.619 Q54.5058 765.725 56.3113 769.29 Q58.14 772.831 61.7511 772.831 Q65.3854 772.831 67.1909 769.29 Q69.0196 765.725 69.0196 758.619 Q69.0196 751.489 67.1909 747.947 Q65.3854 744.383 61.7511 744.383 M61.7511 740.679 Q67.5613 740.679 70.6168 745.285 Q73.6955 749.869 73.6955 758.619 Q73.6955 767.345 70.6168 771.952 Q67.5613 776.535 61.7511 776.535 Q55.941 776.535 52.8623 771.952 Q49.8068 767.345 49.8068 758.619 Q49.8068 749.869 52.8623 745.285 Q55.941 740.679 61.7511 740.679 Z" fill="#000000" fill-rule="evenodd" fill-opacity="1" /><path clip-path="url(#clip190)" d="M81.9131 769.984 L86.7973 769.984 L86.7973 775.864 L81.9131 775.864 L81.9131 769.984 Z" fill="#000000" fill-rule="evenodd" fill-opacity="1" /><path clip-path="url(#clip190)" d="M106.982 759.452 Q103.649 759.452 101.728 761.234 Q99.8296 763.017 99.8296 766.142 Q99.8296 769.267 101.728 771.049 Q103.649 772.831 106.982 772.831 Q110.316 772.831 112.237 771.049 Q114.158 769.244 114.158 766.142 Q114.158 763.017 112.237 761.234 Q110.339 759.452 106.982 759.452 M102.306 757.461 Q99.2972 756.72 97.6074 754.66 Q95.9408 752.6 95.9408 749.637 Q95.9408 745.494 98.8806 743.086 Q101.844 740.679 106.982 740.679 Q112.144 740.679 115.084 743.086 Q118.024 745.494 118.024 749.637 Q118.024 752.6 116.334 754.66 Q114.668 756.72 111.681 757.461 Q115.061 758.248 116.936 760.54 Q118.834 762.832 118.834 766.142 Q118.834 771.165 115.755 773.85 Q112.7 776.535 106.982 776.535 Q101.265 776.535 98.1861 773.85 Q95.1306 771.165 95.1306 766.142 Q95.1306 762.832 97.0287 760.54 Q98.9269 758.248 102.306 757.461 M100.594 750.077 Q100.594 752.762 102.26 754.267 Q103.95 755.771 106.982 755.771 Q109.992 755.771 111.681 754.267 Q113.394 752.762 113.394 750.077 Q113.394 747.392 111.681 745.887 Q109.992 744.383 106.982 744.383 Q103.95 744.383 102.26 745.887 Q100.594 747.392 100.594 750.077 Z" fill="#000000" fill-rule="evenodd" fill-opacity="1" /><path clip-path="url(#clip190)" d="M61.8437 413.527 Q58.2326 413.527 56.4039 417.092 Q54.5984 420.633 54.5984 427.763 Q54.5984 434.869 56.4039 438.434 Q58.2326 441.976 61.8437 441.976 Q65.478 441.976 67.2835 438.434 Q69.1122 434.869 69.1122 427.763 Q69.1122 420.633 67.2835 417.092 Q65.478 413.527 61.8437 413.527 M61.8437 409.823 Q67.6539 409.823 70.7094 414.43 Q73.7881 419.013 73.7881 427.763 Q73.7881 436.49 70.7094 441.096 Q67.6539 445.679 61.8437 445.679 Q56.0336 445.679 52.9549 441.096 Q49.8993 436.49 49.8993 427.763 Q49.8993 419.013 52.9549 414.43 Q56.0336 409.823 61.8437 409.823 Z" fill="#000000" fill-rule="evenodd" fill-opacity="1" /><path clip-path="url(#clip190)" d="M82.0057 439.129 L86.8899 439.129 L86.8899 445.008 L82.0057 445.008 L82.0057 439.129 Z" fill="#000000" fill-rule="evenodd" fill-opacity="1" /><path clip-path="url(#clip190)" d="M97.2139 444.291 L97.2139 440.031 Q98.9732 440.865 100.779 441.304 Q102.584 441.744 104.32 441.744 Q108.95 441.744 111.38 438.642 Q113.834 435.517 114.181 429.175 Q112.839 431.166 110.779 432.23 Q108.718 433.295 106.218 433.295 Q101.033 433.295 98.0009 430.17 Q94.9917 427.022 94.9917 421.582 Q94.9917 416.258 98.1398 413.041 Q101.288 409.823 106.519 409.823 Q112.515 409.823 115.663 414.43 Q118.834 419.013 118.834 427.763 Q118.834 435.934 114.945 440.818 Q111.08 445.679 104.529 445.679 Q102.769 445.679 100.964 445.332 Q99.1583 444.985 97.2139 444.291 M106.519 429.638 Q109.668 429.638 111.496 427.485 Q113.348 425.332 113.348 421.582 Q113.348 417.856 111.496 415.703 Q109.668 413.527 106.519 413.527 Q103.371 413.527 101.519 415.703 Q99.6907 417.856 99.6907 421.582 Q99.6907 425.332 101.519 427.485 Q103.371 429.638 106.519 429.638 Z" fill="#000000" fill-rule="evenodd" fill-opacity="1" /><path clip-path="url(#clip190)" d="M52.4688 110.217 L60.1076 110.217 L60.1076 83.8517 L51.7975 85.5183 L51.7975 81.2591 L60.0613 79.5924 L64.7372 79.5924 L64.7372 110.217 L72.3761 110.217 L72.3761 114.152 L52.4688 114.152 L52.4688 110.217 Z" fill="#000000" fill-rule="evenodd" fill-opacity="1" /><path clip-path="url(#clip190)" d="M81.8205 108.273 L86.7047 108.273 L86.7047 114.152 L81.8205 114.152 L81.8205 108.273 Z" fill="#000000" fill-rule="evenodd" fill-opacity="1" /><path clip-path="url(#clip190)" d="M106.89 82.6711 Q103.279 82.6711 101.45 86.2359 Q99.6445 89.7776 99.6445 96.9072 Q99.6445 104.014 101.45 107.578 Q103.279 111.12 106.89 111.12 Q110.524 111.12 112.33 107.578 Q114.158 104.014 114.158 96.9072 Q114.158 89.7776 112.33 86.2359 Q110.524 82.6711 106.89 82.6711 M106.89 78.9675 Q112.7 78.9675 115.755 83.5739 Q118.834 88.1572 118.834 96.9072 Q118.834 105.634 115.755 110.24 Q112.7 114.824 106.89 114.824 Q101.08 114.824 98.0009 110.24 Q94.9454 105.634 94.9454 96.9072 Q94.9454 88.1572 98.0009 83.5739 Q101.08 78.9675 106.89 78.9675 Z" fill="#000000" fill-rule="evenodd" fill-opacity="1" /><circle clip-path="url(#clip192)" cx="229.388" cy="1751.15" r="14.4" fill="#009af9" fill-rule="evenodd" fill-opacity="1" stroke="#000000" stroke-opacity="1" stroke-width="3.84"/>
<circle clip-path="url(#clip192)" cx="277.166" cy="924.012" r="14.4" fill="#009af9" fill-rule="evenodd" fill-opacity="1" stroke="#000000" stroke-opacity="1" stroke-width="3.84"/>
<circle clip-path="url(#clip192)" cx="324.945" cy="510.442" r="14.4" fill="#009af9" fill-rule="evenodd" fill-opacity="1" stroke="#000000" stroke-opacity="1" stroke-width="3.84"/>
<circle clip-path="url(#clip192)" cx="372.723" cy="303.657" r="14.4" fill="#009af9" fill-rule="evenodd" fill-opacity="1" stroke="#000000" stroke-opacity="1" stroke-width="3.84"/>
<circle clip-path="url(#clip192)" cx="420.501" cy="200.265" r="14.4" fill="#009af9" fill-rule="evenodd" fill-opacity="1" stroke="#000000" stroke-opacity="1" stroke-width="3.84"/>
<circle clip-path="url(#clip192)" cx="468.279" cy="148.569" r="14.4" fill="#009af9" fill-rule="evenodd" fill-opacity="1" stroke="#000000" stroke-opacity="1" stroke-width="3.84"/>
<circle clip-path="url(#clip192)" cx="516.058" cy="122.721" r="14.4" fill="#009af9" fill-rule="evenodd" fill-opacity="1" stroke="#000000" stroke-opacity="1" stroke-width="3.84"/>
<circle clip-path="url(#clip192)" cx="563.836" cy="109.797" r="14.4" fill="#009af9" fill-rule="evenodd" fill-opacity="1" stroke="#000000" stroke-opacity="1" stroke-width="3.84"/>
<circle clip-path="url(#clip192)" cx="611.614" cy="103.334" r="14.4" fill="#009af9" fill-rule="evenodd" fill-opacity="1" stroke="#000000" stroke-opacity="1" stroke-width="3.84"/>
<circle clip-path="url(#clip192)" cx="659.392" cy="100.103" r="14.4" fill="#009af9" fill-rule="evenodd" fill-opacity="1" stroke="#000000" stroke-opacity="1" stroke-width="3.84"/>
<circle clip-path="url(#clip192)" cx="707.171" cy="98.488" r="14.4" fill="#009af9" fill-rule="evenodd" fill-opacity="1" stroke="#000000" stroke-opacity="1" stroke-width="3.84"/>
<circle clip-path="url(#clip192)" cx="754.949" cy="97.6802" r="14.4" fill="#009af9" fill-rule="evenodd" fill-opacity="1" stroke="#000000" stroke-opacity="1" stroke-width="3.84"/>
<circle clip-path="url(#clip192)" cx="802.727" cy="97.2763" r="14.4" fill="#009af9" fill-rule="evenodd" fill-opacity="1" stroke="#000000" stroke-opacity="1" stroke-width="3.84"/>
<circle clip-path="url(#clip192)" cx="850.505" cy="97.0744" r="14.4" fill="#009af9" fill-rule="evenodd" fill-opacity="1" stroke="#000000" stroke-opacity="1" stroke-width="3.84"/>
<circle clip-path="url(#clip192)" cx="898.284" cy="96.9734" r="14.4" fill="#009af9" fill-rule="evenodd" fill-opacity="1" stroke="#000000" stroke-opacity="1" stroke-width="3.84"/>
<circle clip-path="url(#clip192)" cx="946.062" cy="96.9229" r="14.4" fill="#009af9" fill-rule="evenodd" fill-opacity="1" stroke="#000000" stroke-opacity="1" stroke-width="3.84"/>
<circle clip-path="url(#clip192)" cx="993.84" cy="96.8977" r="14.4" fill="#009af9" fill-rule="evenodd" fill-opacity="1" stroke="#000000" stroke-opacity="1" stroke-width="3.84"/>
<circle clip-path="url(#clip192)" cx="1041.62" cy="96.8851" r="14.4" fill="#009af9" fill-rule="evenodd" fill-opacity="1" stroke="#000000" stroke-opacity="1" stroke-width="3.84"/>
<circle clip-path="url(#clip192)" cx="1089.4" cy="96.8788" r="14.4" fill="#009af9" fill-rule="evenodd" fill-opacity="1" stroke="#000000" stroke-opacity="1" stroke-width="3.84"/>
<circle clip-path="url(#clip192)" cx="1137.17" cy="96.8756" r="14.4" fill="#009af9" fill-rule="evenodd" fill-opacity="1" stroke="#000000" stroke-opacity="1" stroke-width="3.84"/>
<circle clip-path="url(#clip192)" cx="1184.95" cy="96.874" r="14.4" fill="#009af9" fill-rule="evenodd" fill-opacity="1" stroke="#000000" stroke-opacity="1" stroke-width="3.84"/>
<circle clip-path="url(#clip192)" cx="1232.73" cy="96.8732" r="14.4" fill="#009af9" fill-rule="evenodd" fill-opacity="1" stroke="#000000" stroke-opacity="1" stroke-width="3.84"/>
<circle clip-path="url(#clip192)" cx="1280.51" cy="96.8728" r="14.4" fill="#009af9" fill-rule="evenodd" fill-opacity="1" stroke="#000000" stroke-opacity="1" stroke-width="3.84"/>
<circle clip-path="url(#clip192)" cx="1328.29" cy="96.8726" r="14.4" fill="#009af9" fill-rule="evenodd" fill-opacity="1" stroke="#000000" stroke-opacity="1" stroke-width="3.84"/>
<circle clip-path="url(#clip192)" cx="1376.07" cy="96.8725" r="14.4" fill="#009af9" fill-rule="evenodd" fill-opacity="1" stroke="#000000" stroke-opacity="1" stroke-width="3.84"/>
<circle clip-path="url(#clip192)" cx="1423.84" cy="96.8725" r="14.4" fill="#009af9" fill-rule="evenodd" fill-opacity="1" stroke="#000000" stroke-opacity="1" stroke-width="3.84"/>
<circle clip-path="url(#clip192)" cx="1471.62" cy="96.8725" r="14.4" fill="#009af9" fill-rule="evenodd" fill-opacity="1" stroke="#000000" stroke-opacity="1" stroke-width="3.84"/>
<circle clip-path="url(#clip192)" cx="1519.4" cy="96.8725" r="14.4" fill="#009af9" fill-rule="evenodd" fill-opacity="1" stroke="#000000" stroke-opacity="1" stroke-width="3.84"/>
<circle clip-path="url(#clip192)" cx="1567.18" cy="96.8725" r="14.4" fill="#009af9" fill-rule="evenodd" fill-opacity="1" stroke="#000000" stroke-opacity="1" stroke-width="3.84"/>
<circle clip-path="url(#clip192)" cx="1614.96" cy="96.8725" r="14.4" fill="#009af9" fill-rule="evenodd" fill-opacity="1" stroke="#000000" stroke-opacity="1" stroke-width="3.84"/>
<circle clip-path="url(#clip192)" cx="1662.74" cy="96.8725" r="14.4" fill="#009af9" fill-rule="evenodd" fill-opacity="1" stroke="#000000" stroke-opacity="1" stroke-width="3.84"/>
<circle clip-path="url(#clip192)" cx="1710.51" cy="96.8725" r="14.4" fill="#009af9" fill-rule="evenodd" fill-opacity="1" stroke="#000000" stroke-opacity="1" stroke-width="3.84"/>
<circle clip-path="url(#clip192)" cx="1758.29" cy="96.8724" r="14.4" fill="#009af9" fill-rule="evenodd" fill-opacity="1" stroke="#000000" stroke-opacity="1" stroke-width="3.84"/>
<circle clip-path="url(#clip192)" cx="1806.07" cy="96.8724" r="14.4" fill="#009af9" fill-rule="evenodd" fill-opacity="1" stroke="#000000" stroke-opacity="1" stroke-width="3.84"/>
<circle clip-path="url(#clip192)" cx="1853.85" cy="96.8724" r="14.4" fill="#009af9" fill-rule="evenodd" fill-opacity="1" stroke="#000000" stroke-opacity="1" stroke-width="3.84"/>
<circle clip-path="url(#clip192)" cx="1901.63" cy="96.8724" r="14.4" fill="#009af9" fill-rule="evenodd" fill-opacity="1" stroke="#000000" stroke-opacity="1" stroke-width="3.84"/>
<circle clip-path="url(#clip192)" cx="1949.4" cy="96.8724" r="14.4" fill="#009af9" fill-rule="evenodd" fill-opacity="1" stroke="#000000" stroke-opacity="1" stroke-width="3.84"/>
<circle clip-path="url(#clip192)" cx="1997.18" cy="96.8724" r="14.4" fill="#009af9" fill-rule="evenodd" fill-opacity="1" stroke="#000000" stroke-opacity="1" stroke-width="3.84"/>
<circle clip-path="url(#clip192)" cx="2044.96" cy="96.8724" r="14.4" fill="#009af9" fill-rule="evenodd" fill-opacity="1" stroke="#000000" stroke-opacity="1" stroke-width="3.84"/>
<circle clip-path="url(#clip192)" cx="2092.74" cy="96.8724" r="14.4" fill="#009af9" fill-rule="evenodd" fill-opacity="1" stroke="#000000" stroke-opacity="1" stroke-width="3.84"/>
<circle clip-path="url(#clip192)" cx="2140.52" cy="96.8724" r="14.4" fill="#009af9" fill-rule="evenodd" fill-opacity="1" stroke="#000000" stroke-opacity="1" stroke-width="3.84"/>
<circle clip-path="url(#clip192)" cx="2188.3" cy="96.8724" r="14.4" fill="#009af9" fill-rule="evenodd" fill-opacity="1" stroke="#000000" stroke-opacity="1" stroke-width="3.84"/>
<circle clip-path="url(#clip192)" cx="2236.07" cy="96.8724" r="14.4" fill="#009af9" fill-rule="evenodd" fill-opacity="1" stroke="#000000" stroke-opacity="1" stroke-width="3.84"/>
<circle clip-path="url(#clip192)" cx="2283.85" cy="96.8724" r="14.4" fill="#009af9" fill-rule="evenodd" fill-opacity="1" stroke="#000000" stroke-opacity="1" stroke-width="3.84"/>
<circle clip-path="url(#clip192)" cx="2331.63" cy="96.8724" r="14.4" fill="#009af9" fill-rule="evenodd" fill-opacity="1" stroke="#000000" stroke-opacity="1" stroke-width="3.84"/>
<circle clip-path="url(#clip192)" cx="2379.41" cy="96.8724" r="14.4" fill="#009af9" fill-rule="evenodd" fill-opacity="1" stroke="#000000" stroke-opacity="1" stroke-width="3.84"/>
<circle clip-path="url(#clip192)" cx="2427.19" cy="96.8724" r="14.4" fill="#009af9" fill-rule="evenodd" fill-opacity="1" stroke="#000000" stroke-opacity="1" stroke-width="3.84"/>
<circle clip-path="url(#clip192)" cx="2474.97" cy="96.8724" r="14.4" fill="#009af9" fill-rule="evenodd" fill-opacity="1" stroke="#000000" stroke-opacity="1" stroke-width="3.84"/>
<circle clip-path="url(#clip192)" cx="2522.74" cy="96.8724" r="14.4" fill="#009af9" fill-rule="evenodd" fill-opacity="1" stroke="#000000" stroke-opacity="1" stroke-width="3.84"/>
<circle clip-path="url(#clip192)" cx="2570.52" cy="96.8724" r="14.4" fill="#009af9" fill-rule="evenodd" fill-opacity="1" stroke="#000000" stroke-opacity="1" stroke-width="3.84"/>
</svg>
