<?xml version="1.0" encoding="utf-8"?>
<svg xmlns="http://www.w3.org/2000/svg" xmlns:xlink="http://www.w3.org/1999/xlink" width="528" height="336" viewBox="0 0 2112 1344">
<defs>
  <clipPath id="clip850">
    <rect x="0" y="0" width="2112" height="1344"/>
  </clipPath>
</defs>
<path clip-path="url(#clip850)" d="M0 1344 L2112 1344 L2112 0 L0 0  Z" fill="#ffffff" fill-rule="evenodd" fill-opacity="1"/>
<defs>
  <clipPath id="clip851">
    <rect x="422" y="0" width="1479" height="1344"/>
  </clipPath>
</defs>
<path clip-path="url(#clip850)" d="M191.056 1109.34 L2064.76 1109.34 L2064.76 172.486 L191.056 172.486  Z" fill="#ffffff" fill-rule="evenodd" fill-opacity="1"/>
<defs>
  <clipPath id="clip852">
    <rect x="191" y="172" width="1875" height="938"/>
  </clipPath>
</defs>
<polyline clip-path="url(#clip852)" style="stroke:#000000; stroke-linecap:round; stroke-linejoin:round; stroke-width:2; stroke-opacity:0.1; fill:none" points="191.056,1109.34 191.056,172.486 "/>
<polyline clip-path="url(#clip852)" style="stroke:#000000; stroke-linecap:round; stroke-linejoin:round; stroke-width:2; stroke-opacity:0.1; fill:none" points="503.339,1109.34 503.339,172.486 "/>
<polyline clip-path="url(#clip852)" style="stroke:#000000; stroke-linecap:round; stroke-linejoin:round; stroke-width:2; stroke-opacity:0.1; fill:none" points="815.623,1109.34 815.623,172.486 "/>
<polyline clip-path="url(#clip852)" style="stroke:#000000; stroke-linecap:round; stroke-linejoin:round; stroke-width:2; stroke-opacity:0.1; fill:none" points="1127.91,1109.34 1127.91,172.486 "/>
<polyline clip-path="url(#clip852)" style="stroke:#000000; stroke-linecap:round; stroke-linejoin:round; stroke-width:2; stroke-opacity:0.1; fill:none" points="1440.19,1109.34 1440.19,172.486 "/>
<polyline clip-path="url(#clip852)" style="stroke:#000000; stroke-linecap:round; stroke-linejoin:round; stroke-width:2; stroke-opacity:0.1; fill:none" points="1752.47,1109.34 1752.47,172.486 "/>
<polyline clip-path="url(#clip852)" style="stroke:#000000; stroke-linecap:round; stroke-linejoin:round; stroke-width:2; stroke-opacity:0.1; fill:none" points="2064.76,1109.34 2064.76,172.486 "/>
<polyline clip-path="url(#clip850)" style="stroke:#000000; stroke-linecap:round; stroke-linejoin:round; stroke-width:4; stroke-opacity:1; fill:none" points="191.056,1109.34 2064.76,1109.34 "/>
<polyline clip-path="url(#clip850)" style="stroke:#000000; stroke-linecap:round; stroke-linejoin:round; stroke-width:4; stroke-opacity:1; fill:none" points="191.056,1109.34 191.056,1094.43 "/>
<polyline clip-path="url(#clip850)" style="stroke:#000000; stroke-linecap:round; stroke-linejoin:round; stroke-width:4; stroke-opacity:1; fill:none" points="503.339,1109.34 503.339,1094.43 "/>
<polyline clip-path="url(#clip850)" style="stroke:#000000; stroke-linecap:round; stroke-linejoin:round; stroke-width:4; stroke-opacity:1; fill:none" points="815.623,1109.34 815.623,1094.43 "/>
<polyline clip-path="url(#clip850)" style="stroke:#000000; stroke-linecap:round; stroke-linejoin:round; stroke-width:4; stroke-opacity:1; fill:none" points="1127.91,1109.34 1127.91,1094.43 "/>
<polyline clip-path="url(#clip850)" style="stroke:#000000; stroke-linecap:round; stroke-linejoin:round; stroke-width:4; stroke-opacity:1; fill:none" points="1440.19,1109.34 1440.19,1094.43 "/>
<polyline clip-path="url(#clip850)" style="stroke:#000000; stroke-linecap:round; stroke-linejoin:round; stroke-width:4; stroke-opacity:1; fill:none" points="1752.47,1109.34 1752.47,1094.43 "/>
<polyline clip-path="url(#clip850)" style="stroke:#000000; stroke-linecap:round; stroke-linejoin:round; stroke-width:4; stroke-opacity:1; fill:none" points="2064.76,1109.34 2064.76,1094.43 "/>
<path clip-path="url(#clip850)" d="M160.524 1152.6 L190.2 1152.6 L190.2 1156.54 L160.524 1156.54 L160.524 1152.6 Z" fill="#000000" fill-rule="nonzero" fill-opacity="1" /><path clip-path="url(#clip850)" d="M214.459 1150.8 Q217.815 1151.52 219.69 1153.78 Q221.588 1156.05 221.588 1159.39 Q221.588 1164.5 218.07 1167.3 Q214.551 1170.1 208.07 1170.1 Q205.894 1170.1 203.579 1169.66 Q201.287 1169.25 198.834 1168.39 L198.834 1163.88 Q200.778 1165.01 203.093 1165.59 Q205.408 1166.17 207.931 1166.17 Q212.329 1166.17 214.621 1164.43 Q216.935 1162.7 216.935 1159.39 Q216.935 1156.33 214.783 1154.62 Q212.653 1152.88 208.834 1152.88 L204.806 1152.88 L204.806 1149.04 L209.019 1149.04 Q212.468 1149.04 214.297 1147.67 Q216.125 1146.28 216.125 1143.69 Q216.125 1141.03 214.227 1139.62 Q212.352 1138.18 208.834 1138.18 Q206.912 1138.18 204.713 1138.6 Q202.514 1139.02 199.875 1139.9 L199.875 1135.73 Q202.537 1134.99 204.852 1134.62 Q207.19 1134.25 209.25 1134.25 Q214.574 1134.25 217.676 1136.68 Q220.778 1139.09 220.778 1143.21 Q220.778 1146.08 219.135 1148.07 Q217.491 1150.03 214.459 1150.8 Z" fill="#000000" fill-rule="nonzero" fill-opacity="1" /><path clip-path="url(#clip850)" d="M473.282 1152.6 L502.957 1152.6 L502.957 1156.54 L473.282 1156.54 L473.282 1152.6 Z" fill="#000000" fill-rule="nonzero" fill-opacity="1" /><path clip-path="url(#clip850)" d="M517.078 1165.5 L533.397 1165.5 L533.397 1169.43 L511.453 1169.43 L511.453 1165.5 Q514.115 1162.74 518.698 1158.11 Q523.304 1153.46 524.485 1152.12 Q526.73 1149.59 527.61 1147.86 Q528.513 1146.1 528.513 1144.41 Q528.513 1141.65 526.568 1139.92 Q524.647 1138.18 521.545 1138.18 Q519.346 1138.18 516.892 1138.95 Q514.462 1139.71 511.684 1141.26 L511.684 1136.54 Q514.508 1135.4 516.962 1134.83 Q519.416 1134.25 521.453 1134.25 Q526.823 1134.25 530.017 1136.93 Q533.212 1139.62 533.212 1144.11 Q533.212 1146.24 532.402 1148.16 Q531.615 1150.06 529.508 1152.65 Q528.929 1153.32 525.828 1156.54 Q522.726 1159.73 517.078 1165.5 Z" fill="#000000" fill-rule="nonzero" fill-opacity="1" /><path clip-path="url(#clip850)" d="M785.38 1152.6 L815.056 1152.6 L815.056 1156.54 L785.38 1156.54 L785.38 1152.6 Z" fill="#000000" fill-rule="nonzero" fill-opacity="1" /><path clip-path="url(#clip850)" d="M825.958 1165.5 L833.597 1165.5 L833.597 1139.13 L825.287 1140.8 L825.287 1136.54 L833.551 1134.87 L838.227 1134.87 L838.227 1165.5 L845.866 1165.5 L845.866 1169.43 L825.958 1169.43 L825.958 1165.5 Z" fill="#000000" fill-rule="nonzero" fill-opacity="1" /><path clip-path="url(#clip850)" d="M1127.91 1137.95 Q1124.29 1137.95 1122.47 1141.52 Q1120.66 1145.06 1120.66 1152.19 Q1120.66 1159.29 1122.47 1162.86 Q1124.29 1166.4 1127.91 1166.4 Q1131.54 1166.4 1133.35 1162.86 Q1135.17 1159.29 1135.17 1152.19 Q1135.17 1145.06 1133.35 1141.52 Q1131.54 1137.95 1127.91 1137.95 M1127.91 1134.25 Q1133.72 1134.25 1136.77 1138.85 Q1139.85 1143.44 1139.85 1152.19 Q1139.85 1160.91 1136.77 1165.52 Q1133.72 1170.1 1127.91 1170.1 Q1122.1 1170.1 1119.02 1165.52 Q1115.96 1160.91 1115.96 1152.19 Q1115.96 1143.44 1119.02 1138.85 Q1122.1 1134.25 1127.91 1134.25 Z" fill="#000000" fill-rule="nonzero" fill-opacity="1" /><path clip-path="url(#clip850)" d="M1430.57 1165.5 L1438.21 1165.5 L1438.21 1139.13 L1429.9 1140.8 L1429.9 1136.54 L1438.16 1134.87 L1442.84 1134.87 L1442.84 1165.5 L1450.48 1165.5 L1450.48 1169.43 L1430.57 1169.43 L1430.57 1165.5 Z" fill="#000000" fill-rule="nonzero" fill-opacity="1" /><path clip-path="url(#clip850)" d="M1747.13 1165.5 L1763.44 1165.5 L1763.44 1169.43 L1741.5 1169.43 L1741.5 1165.5 Q1744.16 1162.74 1748.75 1158.11 Q1753.35 1153.46 1754.53 1152.12 Q1756.78 1149.59 1757.66 1147.86 Q1758.56 1146.1 1758.56 1144.41 Q1758.56 1141.65 1756.62 1139.92 Q1754.69 1138.18 1751.59 1138.18 Q1749.39 1138.18 1746.94 1138.95 Q1744.51 1139.71 1741.73 1141.26 L1741.73 1136.54 Q1744.56 1135.4 1747.01 1134.83 Q1749.46 1134.25 1751.5 1134.25 Q1756.87 1134.25 1760.07 1136.93 Q1763.26 1139.62 1763.26 1144.11 Q1763.26 1146.24 1762.45 1148.16 Q1761.66 1150.06 1759.56 1152.65 Q1758.98 1153.32 1755.88 1156.54 Q1752.77 1159.73 1747.13 1165.5 Z" fill="#000000" fill-rule="nonzero" fill-opacity="1" /><path clip-path="url(#clip850)" d="M2069 1150.8 Q2072.36 1151.52 2074.24 1153.78 Q2076.13 1156.05 2076.13 1159.39 Q2076.13 1164.5 2072.61 1167.3 Q2069.1 1170.1 2062.61 1170.1 Q2060.44 1170.1 2058.12 1169.66 Q2055.83 1169.25 2053.38 1168.39 L2053.38 1163.88 Q2055.32 1165.01 2057.64 1165.59 Q2059.95 1166.17 2062.48 1166.17 Q2066.87 1166.17 2069.17 1164.43 Q2071.48 1162.7 2071.48 1159.39 Q2071.48 1156.33 2069.33 1154.62 Q2067.2 1152.88 2063.38 1152.88 L2059.35 1152.88 L2059.35 1149.04 L2063.56 1149.04 Q2067.01 1149.04 2068.84 1147.67 Q2070.67 1146.28 2070.67 1143.69 Q2070.67 1141.03 2068.77 1139.62 Q2066.9 1138.18 2063.38 1138.18 Q2061.46 1138.18 2059.26 1138.6 Q2057.06 1139.02 2054.42 1139.9 L2054.42 1135.73 Q2057.08 1134.99 2059.4 1134.62 Q2061.74 1134.25 2063.8 1134.25 Q2069.12 1134.25 2072.22 1136.68 Q2075.32 1139.09 2075.32 1143.21 Q2075.32 1146.08 2073.68 1148.07 Q2072.04 1150.03 2069 1150.8 Z" fill="#000000" fill-rule="nonzero" fill-opacity="1" /><polyline clip-path="url(#clip852)" style="stroke:#000000; stroke-linecap:round; stroke-linejoin:round; stroke-width:2; stroke-opacity:0.1; fill:none" points="191.056,1109.34 2064.76,1109.34 "/>
<polyline clip-path="url(#clip852)" style="stroke:#000000; stroke-linecap:round; stroke-linejoin:round; stroke-width:2; stroke-opacity:0.1; fill:none" points="191.056,953.195 2064.76,953.195 "/>
<polyline clip-path="url(#clip852)" style="stroke:#000000; stroke-linecap:round; stroke-linejoin:round; stroke-width:2; stroke-opacity:0.1; fill:none" points="191.056,797.053 2064.76,797.053 "/>
<polyline clip-path="url(#clip852)" style="stroke:#000000; stroke-linecap:round; stroke-linejoin:round; stroke-width:2; stroke-opacity:0.1; fill:none" points="191.056,640.911 2064.76,640.911 "/>
<polyline clip-path="url(#clip852)" style="stroke:#000000; stroke-linecap:round; stroke-linejoin:round; stroke-width:2; stroke-opacity:0.1; fill:none" points="191.056,484.77 2064.76,484.77 "/>
<polyline clip-path="url(#clip852)" style="stroke:#000000; stroke-linecap:round; stroke-linejoin:round; stroke-width:2; stroke-opacity:0.1; fill:none" points="191.056,328.628 2064.76,328.628 "/>
<polyline clip-path="url(#clip852)" style="stroke:#000000; stroke-linecap:round; stroke-linejoin:round; stroke-width:2; stroke-opacity:0.1; fill:none" points="191.056,172.486 2064.76,172.486 "/>
<polyline clip-path="url(#clip850)" style="stroke:#000000; stroke-linecap:round; stroke-linejoin:round; stroke-width:4; stroke-opacity:1; fill:none" points="191.056,1109.34 191.056,172.486 "/>
<polyline clip-path="url(#clip850)" style="stroke:#000000; stroke-linecap:round; stroke-linejoin:round; stroke-width:4; stroke-opacity:1; fill:none" points="191.056,1109.34 209.954,1109.34 "/>
<polyline clip-path="url(#clip850)" style="stroke:#000000; stroke-linecap:round; stroke-linejoin:round; stroke-width:4; stroke-opacity:1; fill:none" points="191.056,953.195 209.954,953.195 "/>
<polyline clip-path="url(#clip850)" style="stroke:#000000; stroke-linecap:round; stroke-linejoin:round; stroke-width:4; stroke-opacity:1; fill:none" points="191.056,797.053 209.954,797.053 "/>
<polyline clip-path="url(#clip850)" style="stroke:#000000; stroke-linecap:round; stroke-linejoin:round; stroke-width:4; stroke-opacity:1; fill:none" points="191.056,640.911 209.954,640.911 "/>
<polyline clip-path="url(#clip850)" style="stroke:#000000; stroke-linecap:round; stroke-linejoin:round; stroke-width:4; stroke-opacity:1; fill:none" points="191.056,484.77 209.954,484.77 "/>
<polyline clip-path="url(#clip850)" style="stroke:#000000; stroke-linecap:round; stroke-linejoin:round; stroke-width:4; stroke-opacity:1; fill:none" points="191.056,328.628 209.954,328.628 "/>
<polyline clip-path="url(#clip850)" style="stroke:#000000; stroke-linecap:round; stroke-linejoin:round; stroke-width:4; stroke-opacity:1; fill:none" points="191.056,172.486 209.954,172.486 "/>
<path clip-path="url(#clip850)" d="M53.4275 1109.79 L83.1033 1109.79 L83.1033 1113.72 L53.4275 1113.72 L53.4275 1109.79 Z" fill="#000000" fill-rule="nonzero" fill-opacity="1" /><path clip-path="url(#clip850)" d="M94.006 1122.68 L101.645 1122.68 L101.645 1096.32 L93.3347 1097.98 L93.3347 1093.72 L101.599 1092.06 L106.274 1092.06 L106.274 1122.68 L113.913 1122.68 L113.913 1126.62 L94.006 1126.62 L94.006 1122.68 Z" fill="#000000" fill-rule="nonzero" fill-opacity="1" /><path clip-path="url(#clip850)" d="M123.358 1120.74 L128.242 1120.74 L128.242 1126.62 L123.358 1126.62 L123.358 1120.74 Z" fill="#000000" fill-rule="nonzero" fill-opacity="1" /><path clip-path="url(#clip850)" d="M138.473 1092.06 L156.83 1092.06 L156.83 1095.99 L142.756 1095.99 L142.756 1104.46 Q143.774 1104.12 144.793 1103.95 Q145.811 1103.77 146.83 1103.77 Q152.617 1103.77 155.996 1106.94 Q159.376 1110.11 159.376 1115.53 Q159.376 1121.11 155.904 1124.21 Q152.432 1127.29 146.112 1127.29 Q143.936 1127.29 141.668 1126.92 Q139.422 1126.55 137.015 1125.81 L137.015 1121.11 Q139.098 1122.24 141.321 1122.8 Q143.543 1123.35 146.02 1123.35 Q150.024 1123.35 152.362 1121.25 Q154.7 1119.14 154.7 1115.53 Q154.7 1111.92 152.362 1109.81 Q150.024 1107.7 146.02 1107.7 Q144.145 1107.7 142.27 1108.12 Q140.418 1108.54 138.473 1109.42 L138.473 1092.06 Z" fill="#000000" fill-rule="nonzero" fill-opacity="1" /><path clip-path="url(#clip850)" d="M52.4321 953.646 L82.1079 953.646 L82.1079 957.581 L52.4321 957.581 L52.4321 953.646 Z" fill="#000000" fill-rule="nonzero" fill-opacity="1" /><path clip-path="url(#clip850)" d="M93.0106 966.54 L100.649 966.54 L100.649 940.174 L92.3393 941.841 L92.3393 937.581 L100.603 935.915 L105.279 935.915 L105.279 966.54 L112.918 966.54 L112.918 970.475 L93.0106 970.475 L93.0106 966.54 Z" fill="#000000" fill-rule="nonzero" fill-opacity="1" /><path clip-path="url(#clip850)" d="M122.362 964.595 L127.247 964.595 L127.247 970.475 L122.362 970.475 L122.362 964.595 Z" fill="#000000" fill-rule="nonzero" fill-opacity="1" /><path clip-path="url(#clip850)" d="M147.432 938.993 Q143.821 938.993 141.992 942.558 Q140.186 946.1 140.186 953.229 Q140.186 960.336 141.992 963.901 Q143.821 967.442 147.432 967.442 Q151.066 967.442 152.871 963.901 Q154.7 960.336 154.7 953.229 Q154.7 946.1 152.871 942.558 Q151.066 938.993 147.432 938.993 M147.432 935.29 Q153.242 935.29 156.297 939.896 Q159.376 944.48 159.376 953.229 Q159.376 961.956 156.297 966.563 Q153.242 971.146 147.432 971.146 Q141.621 971.146 138.543 966.563 Q135.487 961.956 135.487 953.229 Q135.487 944.48 138.543 939.896 Q141.621 935.29 147.432 935.29 Z" fill="#000000" fill-rule="nonzero" fill-opacity="1" /><path clip-path="url(#clip850)" d="M53.4275 797.504 L83.1033 797.504 L83.1033 801.44 L53.4275 801.44 L53.4275 797.504 Z" fill="#000000" fill-rule="nonzero" fill-opacity="1" /><path clip-path="url(#clip850)" d="M103.196 782.852 Q99.5847 782.852 97.756 786.417 Q95.9504 789.958 95.9504 797.088 Q95.9504 804.194 97.756 807.759 Q99.5847 811.301 103.196 811.301 Q106.83 811.301 108.636 807.759 Q110.464 804.194 110.464 797.088 Q110.464 789.958 108.636 786.417 Q106.83 782.852 103.196 782.852 M103.196 779.148 Q109.006 779.148 112.061 783.755 Q115.14 788.338 115.14 797.088 Q115.14 805.815 112.061 810.421 Q109.006 815.004 103.196 815.004 Q97.3856 815.004 94.3069 810.421 Q91.2514 805.815 91.2514 797.088 Q91.2514 788.338 94.3069 783.755 Q97.3856 779.148 103.196 779.148 Z" fill="#000000" fill-rule="nonzero" fill-opacity="1" /><path clip-path="url(#clip850)" d="M123.358 808.453 L128.242 808.453 L128.242 814.333 L123.358 814.333 L123.358 808.453 Z" fill="#000000" fill-rule="nonzero" fill-opacity="1" /><path clip-path="url(#clip850)" d="M138.473 779.773 L156.83 779.773 L156.83 783.708 L142.756 783.708 L142.756 792.18 Q143.774 791.833 144.793 791.671 Q145.811 791.486 146.83 791.486 Q152.617 791.486 155.996 794.657 Q159.376 797.829 159.376 803.245 Q159.376 808.824 155.904 811.926 Q152.432 815.004 146.112 815.004 Q143.936 815.004 141.668 814.634 Q139.422 814.264 137.015 813.523 L137.015 808.824 Q139.098 809.958 141.321 810.514 Q143.543 811.069 146.02 811.069 Q150.024 811.069 152.362 808.963 Q154.7 806.856 154.7 803.245 Q154.7 799.634 152.362 797.528 Q150.024 795.421 146.02 795.421 Q144.145 795.421 142.27 795.838 Q140.418 796.254 138.473 797.134 L138.473 779.773 Z" fill="#000000" fill-rule="nonzero" fill-opacity="1" /><path clip-path="url(#clip850)" d="M102.2 626.71 Q98.5893 626.71 96.7606 630.275 Q94.955 633.817 94.955 640.946 Q94.955 648.053 96.7606 651.617 Q98.5893 655.159 102.2 655.159 Q105.835 655.159 107.64 651.617 Q109.469 648.053 109.469 640.946 Q109.469 633.817 107.64 630.275 Q105.835 626.71 102.2 626.71 M102.2 623.006 Q108.011 623.006 111.066 627.613 Q114.145 632.196 114.145 640.946 Q114.145 649.673 111.066 654.279 Q108.011 658.863 102.2 658.863 Q96.3902 658.863 93.3115 654.279 Q90.256 649.673 90.256 640.946 Q90.256 632.196 93.3115 627.613 Q96.3902 623.006 102.2 623.006 Z" fill="#000000" fill-rule="nonzero" fill-opacity="1" /><path clip-path="url(#clip850)" d="M122.362 652.312 L127.247 652.312 L127.247 658.191 L122.362 658.191 L122.362 652.312 Z" fill="#000000" fill-rule="nonzero" fill-opacity="1" /><path clip-path="url(#clip850)" d="M147.432 626.71 Q143.821 626.71 141.992 630.275 Q140.186 633.817 140.186 640.946 Q140.186 648.053 141.992 651.617 Q143.821 655.159 147.432 655.159 Q151.066 655.159 152.871 651.617 Q154.7 648.053 154.7 640.946 Q154.7 633.817 152.871 630.275 Q151.066 626.71 147.432 626.71 M147.432 623.006 Q153.242 623.006 156.297 627.613 Q159.376 632.196 159.376 640.946 Q159.376 649.673 156.297 654.279 Q153.242 658.863 147.432 658.863 Q141.621 658.863 138.543 654.279 Q135.487 649.673 135.487 640.946 Q135.487 632.196 138.543 627.613 Q141.621 623.006 147.432 623.006 Z" fill="#000000" fill-rule="nonzero" fill-opacity="1" /><path clip-path="url(#clip850)" d="M103.196 470.568 Q99.5847 470.568 97.756 474.133 Q95.9504 477.675 95.9504 484.805 Q95.9504 491.911 97.756 495.476 Q99.5847 499.017 103.196 499.017 Q106.83 499.017 108.636 495.476 Q110.464 491.911 110.464 484.805 Q110.464 477.675 108.636 474.133 Q106.83 470.568 103.196 470.568 M103.196 466.865 Q109.006 466.865 112.061 471.471 Q115.14 476.055 115.14 484.805 Q115.14 493.531 112.061 498.138 Q109.006 502.721 103.196 502.721 Q97.3856 502.721 94.3069 498.138 Q91.2514 493.531 91.2514 484.805 Q91.2514 476.055 94.3069 471.471 Q97.3856 466.865 103.196 466.865 Z" fill="#000000" fill-rule="nonzero" fill-opacity="1" /><path clip-path="url(#clip850)" d="M123.358 496.17 L128.242 496.17 L128.242 502.05 L123.358 502.05 L123.358 496.17 Z" fill="#000000" fill-rule="nonzero" fill-opacity="1" /><path clip-path="url(#clip850)" d="M138.473 467.49 L156.83 467.49 L156.83 471.425 L142.756 471.425 L142.756 479.897 Q143.774 479.55 144.793 479.388 Q145.811 479.203 146.83 479.203 Q152.617 479.203 155.996 482.374 Q159.376 485.545 159.376 490.962 Q159.376 496.541 155.904 499.642 Q152.432 502.721 146.112 502.721 Q143.936 502.721 141.668 502.351 Q139.422 501.98 137.015 501.24 L137.015 496.541 Q139.098 497.675 141.321 498.23 Q143.543 498.786 146.02 498.786 Q150.024 498.786 152.362 496.679 Q154.7 494.573 154.7 490.962 Q154.7 487.351 152.362 485.244 Q150.024 483.138 146.02 483.138 Q144.145 483.138 142.27 483.555 Q140.418 483.971 138.473 484.851 L138.473 467.49 Z" fill="#000000" fill-rule="nonzero" fill-opacity="1" /><path clip-path="url(#clip850)" d="M93.0106 341.973 L100.649 341.973 L100.649 315.607 L92.3393 317.274 L92.3393 313.015 L100.603 311.348 L105.279 311.348 L105.279 341.973 L112.918 341.973 L112.918 345.908 L93.0106 345.908 L93.0106 341.973 Z" fill="#000000" fill-rule="nonzero" fill-opacity="1" /><path clip-path="url(#clip850)" d="M122.362 340.029 L127.247 340.029 L127.247 345.908 L122.362 345.908 L122.362 340.029 Z" fill="#000000" fill-rule="nonzero" fill-opacity="1" /><path clip-path="url(#clip850)" d="M147.432 314.427 Q143.821 314.427 141.992 317.992 Q140.186 321.533 140.186 328.663 Q140.186 335.769 141.992 339.334 Q143.821 342.876 147.432 342.876 Q151.066 342.876 152.871 339.334 Q154.7 335.769 154.7 328.663 Q154.7 321.533 152.871 317.992 Q151.066 314.427 147.432 314.427 M147.432 310.723 Q153.242 310.723 156.297 315.33 Q159.376 319.913 159.376 328.663 Q159.376 337.39 156.297 341.996 Q153.242 346.579 147.432 346.579 Q141.621 346.579 138.543 341.996 Q135.487 337.39 135.487 328.663 Q135.487 319.913 138.543 315.33 Q141.621 310.723 147.432 310.723 Z" fill="#000000" fill-rule="nonzero" fill-opacity="1" /><path clip-path="url(#clip850)" d="M94.006 185.831 L101.645 185.831 L101.645 159.466 L93.3347 161.132 L93.3347 156.873 L101.599 155.206 L106.274 155.206 L106.274 185.831 L113.913 185.831 L113.913 189.766 L94.006 189.766 L94.006 185.831 Z" fill="#000000" fill-rule="nonzero" fill-opacity="1" /><path clip-path="url(#clip850)" d="M123.358 183.887 L128.242 183.887 L128.242 189.766 L123.358 189.766 L123.358 183.887 Z" fill="#000000" fill-rule="nonzero" fill-opacity="1" /><path clip-path="url(#clip850)" d="M138.473 155.206 L156.83 155.206 L156.83 159.142 L142.756 159.142 L142.756 167.614 Q143.774 167.267 144.793 167.105 Q145.811 166.919 146.83 166.919 Q152.617 166.919 155.996 170.091 Q159.376 173.262 159.376 178.679 Q159.376 184.257 155.904 187.359 Q152.432 190.438 146.112 190.438 Q143.936 190.438 141.668 190.067 Q139.422 189.697 137.015 188.956 L137.015 184.257 Q139.098 185.391 141.321 185.947 Q143.543 186.503 146.02 186.503 Q150.024 186.503 152.362 184.396 Q154.7 182.29 154.7 178.679 Q154.7 175.067 152.362 172.961 Q150.024 170.855 146.02 170.855 Q144.145 170.855 142.27 171.271 Q140.418 171.688 138.473 172.567 L138.473 155.206 Z" fill="#000000" fill-rule="nonzero" fill-opacity="1" /><polyline clip-path="url(#clip852)" style="stroke:#1e90ff; stroke-linecap:round; stroke-linejoin:round; stroke-width:4; stroke-opacity:1; fill:none" points="1094.37,599.822 1096.28,602.17 1097.38,603.605 1098.2,604.518 1100.17,606.866 1102,609.214 1102.08,609.319 1104.03,611.562 1105.91,613.909 1106.77,615.077 1107.86,616.257 1109.82,618.605 1111.47,620.799 1111.62,620.953 1113.71,623.301 1115.54,625.649 1116.17,626.582 1117.58,627.997 1119.54,630.345 1120.86,632.327 1121.35,632.693 1123.7,635.041 1125.26,637.389 1125.56,638.27 1130.25,638.27 1130.55,637.389 1132.11,635.041 1134.46,632.693 1134.95,632.327 1136.27,630.345 1138.23,627.997 1139.65,626.582 1140.27,625.649 1142.1,623.301 1144.19,620.953 1144.34,620.799 1145.99,618.605 1147.95,616.257 1149.04,615.077 1149.9,613.909 1151.78,611.562 1153.73,609.319 1153.81,609.214 1155.65,606.866 1157.61,604.518 1158.43,603.605 1159.53,602.17 1161.45,599.822 1163.13,597.877 1163.43,597.474 1165.31,595.126 1167.28,592.778 1167.82,592.169 1169.19,590.43 1171.13,588.082 1172.52,586.47 1173.09,585.734 1175,583.386 1176.99,581.038 1177.21,580.778 1178.89,578.69 1180.85,576.342 1181.91,575.111 1182.8,573.994 1184.73,571.646 1186.61,569.446 1186.72,569.298 1188.64,566.95 1190.62,564.602 1191.3,563.811 1192.56,562.254 1194.52,559.906 1196,558.186 1196.5,557.558 1198.45,555.21 1200.45,552.862 1200.69,552.579 1202.39,550.514 1204.38,548.166 1205.39,547 1206.36,545.818 1208.33,543.47 1210.09,541.434 1210.34,541.122 1212.31,538.774 1214.32,536.426 1214.78,535.897 1216.3,534.078 1218.3,531.73 1219.48,530.384 1220.31,529.382 1222.31,527.034 1224.17,524.892 1224.35,524.686 1226.34,522.338 1228.38,519.99 1228.87,519.434 1230.39,517.642 1232.43,515.294 1233.57,514.004 1234.47,512.946 1236.5,510.598 1238.26,508.599 1238.56,508.25 1240.6,505.902 1242.67,503.554 1242.96,503.229 1244.72,501.206 1246.79,498.858 1247.65,497.895 1248.86,496.51 1250.94,494.162 1252.35,492.592 1253.03,491.814 1255.11,489.466 1257.05,487.324 1257.23,487.118 1259.32,484.77 1261.44,482.422 1261.74,482.096 1263.55,480.074 1265.68,477.726 1266.44,476.908 1267.82,475.378 1269.96,473.03 1271.13,471.76 1272.11,470.682 1274.27,468.334 1275.83,466.653 1276.44,465.986 1278.61,463.638 1280.53,461.588 1280.8,461.29 1282.98,458.942 1285.2,456.594 1285.22,456.569 1287.4,454.246 1289.63,451.898 1289.92,451.6 1291.86,449.55 1294.11,447.202 1294.61,446.679 1296.36,444.854 1298.63,442.506 1299.31,441.808 1300.9,440.158 1303.19,437.81 1304.01,436.988 1305.49,435.462 1307.81,433.114 1308.7,432.222 1310.14,430.766 1312.48,428.418 1313.4,427.511 1314.84,426.07 1317.21,423.722 1318.09,422.857 1319.6,421.374 1322,419.026 1322.79,418.262 1324.42,416.678 1326.85,414.33 1327.49,413.728 1329.31,411.982 1331.78,409.634 1332.18,409.256 1334.27,407.286 1336.78,404.938 1336.88,404.848 1339.31,402.59 1341.57,400.508 1341.86,400.242 1344.44,397.894 1346.27,396.237 1347.03,395.546 1349.66,393.198 1350.97,392.036 1352.3,390.85 1354.98,388.502 1355.66,387.906 1357.68,386.154 1360.36,383.849 1360.41,383.806 1363.17,381.458 1365.05,379.873 1365.96,379.11 1368.79,376.762 1369.75,375.974 1371.66,374.414 1374.45,372.154 1374.55,372.066 1377.5,369.718 1379.14,368.421 1380.48,367.37 1383.51,365.022 1383.84,364.771 1386.59,362.674 1388.53,361.211 1389.72,360.326 1392.9,357.978 1393.23,357.74 1396.16,355.63 1397.93,354.365 1399.47,353.282 1402.62,351.082 1402.84,350.934 1406.3,348.586 1407.32,347.901 1409.84,346.238 1412.01,344.82 1413.47,343.89 1416.71,341.842 1417.2,341.542 1421.04,339.194 1421.41,338.973 1425.02,336.846 1426.1,336.214 1429.14,334.498 1430.8,333.569 1433.42,332.15 1435.49,331.04 1437.9,329.802 1440.19,328.63 1442.6,327.454 1444.89,326.345 1447.57,325.106 1449.58,324.186 1452.88,322.758 1454.28,322.158 1458.61,320.41 1458.97,320.265 1463.67,318.513 1464.98,318.062 1468.37,316.904 1472.18,315.714 1473.06,315.44 1477.76,314.132 1480.87,313.366 1482.45,312.98 1487.15,311.992 1491.85,311.169 1492.94,311.018 1496.54,310.523 1501.24,310.056 1505.93,309.775 1510.63,309.687 1515.33,309.8 1520.02,310.119 1524.72,310.654 1526.97,311.018 1529.41,311.415 1534.11,312.41 1537.74,313.366 1538.81,313.647 1543.5,315.141 1545.04,315.714 1548.2,316.901 1550.88,318.062 1552.89,318.939 1555.86,320.41 1557.59,321.27 1560.25,322.758 1562.29,323.909 1564.19,325.106 1566.98,326.871 1567.81,327.454 1571.15,329.802 1571.68,330.176 1574.21,332.15 1576.37,333.845 1577.14,334.498 1579.86,336.846 1581.07,337.899 1582.44,339.194 1584.91,341.542 1585.76,342.363 1587.24,343.89 1589.48,346.238 1590.46,347.266 1591.62,348.586 1593.68,350.934 1595.16,352.641 1595.67,353.282 1597.56,355.63 1599.42,357.978 1599.85,358.525 1601.18,360.326 1602.89,362.674 1604.55,364.961 1604.59,365.022 1606.17,367.37 1607.74,369.718 1609.24,372.001 1609.29,372.066 1610.73,374.414 1612.16,376.762 1613.58,379.11 1613.94,379.707 1614.93,381.458 1616.24,383.806 1617.54,386.154 1618.64,388.148 1618.82,388.502 1620.02,390.85 1621.22,393.198 1622.4,395.546 1623.33,397.416 1623.56,397.894 1624.65,400.242 1625.74,402.59 1626.81,404.938 1627.88,407.286 1628.03,407.621 1628.88,409.634 1629.87,411.982 1630.85,414.33 1631.82,416.678 1632.72,418.908 1632.77,419.026 1633.67,421.374 1634.56,423.722 1635.44,426.07 1636.31,428.418 1637.17,430.766 1637.42,431.47 1637.99,433.114 1638.79,435.462 1639.57,437.81 1640.36,440.158 1641.13,442.506 1641.89,444.854 1642.12,445.564 1642.62,447.202 1643.32,449.55 1644.02,451.898 1644.71,454.246 1645.4,456.594 1646.07,458.942 1646.73,461.29 1646.81,461.569 1647.36,463.638 1647.98,465.986 1648.59,468.334 1649.19,470.682 1649.78,473.03 1650.36,475.378 1650.94,477.726 1651.51,480.074 1651.51,480.077 1652.04,482.422 1652.57,484.77 1653.08,487.118 1653.59,489.466 1654.1,491.814 1654.59,494.162 1655.08,496.51 1655.55,498.858 1656.03,501.206 1656.2,502.117 1656.48,503.554 1656.91,505.902 1657.34,508.25 1657.76,510.598 1658.17,512.946 1658.57,515.294 1658.97,517.642 1659.36,519.99 1659.74,522.338 1660.11,524.686 1660.48,527.034 1660.84,529.382 1660.9,529.784 1661.18,531.73 1661.51,534.078 1661.83,536.426 1662.15,538.774 1662.45,541.122 1662.75,543.47 1663.05,545.818 1663.33,548.166 1663.61,550.514 1663.89,552.862 1664.15,555.21 1664.41,557.558 1664.66,559.906 1664.9,562.254 1665.14,564.602 1665.37,566.95 1665.59,569.298 1665.6,569.389 1665.79,571.646 1665.99,573.994 1666.18,576.342 1666.37,578.69 1666.55,581.038 1666.72,583.386 1666.88,585.734 1667.04,588.082 1667.19,590.43 1667.34,592.778 1667.47,595.126 1667.6,597.474 1667.73,599.822 1667.84,602.17 1667.95,604.518 1668.05,606.866 1668.15,609.214 1668.24,611.562 1668.32,613.909 1668.4,616.257 1668.47,618.605 1668.53,620.953 1668.58,623.301 1668.63,625.649 1668.67,627.997 1668.7,630.345 1668.73,632.693 1668.75,635.041 1668.77,637.389 1668.77,639.737 1668.77,642.085 1668.77,644.433 1668.75,646.781 1668.73,649.129 1668.7,651.477 1668.67,653.825 1668.63,656.173 1668.58,658.521 1668.53,660.869 1668.47,663.217 1668.4,665.565 1668.32,667.913 1668.24,670.261 1668.15,672.609 1668.05,674.957 1667.95,677.305 1667.84,679.653 1667.73,682.001 1667.6,684.349 1667.47,686.697 1667.34,689.045 1667.19,691.393 1667.04,693.741 1666.88,696.089 1666.72,698.437 1666.55,700.785 1666.37,703.133 1666.18,705.481 1665.99,707.829 1665.79,710.177 1665.6,712.434 1665.59,712.525 1665.37,714.873 1665.14,717.221 1664.9,719.569 1664.66,721.917 1664.41,724.265 1664.15,726.613 1663.89,728.961 1663.61,731.309 1663.33,733.657 1663.05,736.005 1662.75,738.353 1662.45,740.701 1662.15,743.049 1661.83,745.397 1661.51,747.745 1661.18,750.093 1660.9,752.039 1660.84,752.441 1660.48,754.789 1660.11,757.137 1659.74,759.485 1659.36,761.833 1658.97,764.181 1658.57,766.529 1658.17,768.877 1657.76,771.225 1657.34,773.573 1656.91,775.921 1656.48,778.269 1656.2,779.706 1656.03,780.617 1655.55,782.965 1655.08,785.313 1654.59,787.661 1654.1,790.009 1653.59,792.357 1653.08,794.705 1652.57,797.053 1652.04,799.401 1651.51,801.746 1651.51,801.749 1650.94,804.097 1650.36,806.445 1649.78,808.793 1649.19,811.141 1648.59,813.489 1647.98,815.837 1647.36,818.185 1646.81,820.254 1646.73,820.533 1646.07,822.881 1645.4,825.229 1644.71,827.577 1644.02,829.925 1643.32,832.273 1642.62,834.621 1642.12,836.259 1641.89,836.969 1641.13,839.317 1640.36,841.665 1639.57,844.013 1638.79,846.361 1637.99,848.709 1637.42,850.353 1637.17,851.057 1636.31,853.405 1635.44,855.753 1634.56,858.101 1633.67,860.449 1632.77,862.797 1632.72,862.915 1631.82,865.145 1630.85,867.493 1629.87,869.841 1628.88,872.189 1628.03,874.202 1627.88,874.537 1626.81,876.885 1625.74,879.233 1624.65,881.581 1623.56,883.929 1623.33,884.407 1622.4,886.277 1621.22,888.625 1620.02,890.973 1618.82,893.321 1618.64,893.675 1617.54,895.669 1616.24,898.017 1614.93,900.365 1613.94,902.116 1613.58,902.713 1612.16,905.061 1610.73,907.409 1609.29,909.757 1609.24,909.822 1607.74,912.105 1606.17,914.453 1604.59,916.801 1604.55,916.862 1602.89,919.149 1601.18,921.497 1599.85,923.298 1599.42,923.845 1597.56,926.193 1595.67,928.541 1595.16,929.182 1593.68,930.889 1591.62,933.237 1590.46,934.556 1589.48,935.585 1587.24,937.933 1585.76,939.46 1584.91,940.281 1582.44,942.629 1581.07,943.924 1579.86,944.977 1577.14,947.325 1576.37,947.978 1574.21,949.673 1571.68,951.647 1571.15,952.021 1567.81,954.369 1566.98,954.952 1564.19,956.717 1562.29,957.914 1560.25,959.065 1557.59,960.553 1555.86,961.413 1552.89,962.884 1550.88,963.761 1548.2,964.922 1545.04,966.109 1543.5,966.682 1538.81,968.175 1537.74,968.457 1534.11,969.413 1529.41,970.408 1526.97,970.805 1524.72,971.168 1520.02,971.703 1515.33,972.023 1510.63,972.136 1505.93,972.048 1501.24,971.767 1496.54,971.3 1492.94,970.805 1491.85,970.654 1487.15,969.831 1482.45,968.843 1480.87,968.457 1477.76,967.691 1473.06,966.382 1472.18,966.109 1468.37,964.919 1464.98,963.761 1463.67,963.31 1458.97,961.558 1458.61,961.413 1454.28,959.664 1452.88,959.065 1449.58,957.637 1447.57,956.717 1444.89,955.478 1442.6,954.369 1440.19,953.193 1437.9,952.021 1435.49,950.783 1433.42,949.673 1430.8,948.254 1429.14,947.325 1426.1,945.609 1425.02,944.977 1421.41,942.85 1421.04,942.629 1417.2,940.281 1416.71,939.98 1413.47,937.933 1412.01,937.002 1409.84,935.585 1407.32,933.922 1406.3,933.237 1402.84,930.889 1402.62,930.741 1399.47,928.541 1397.93,927.458 1396.16,926.193 1393.23,924.083 1392.9,923.845 1389.72,921.497 1388.53,920.611 1386.59,919.149 1383.84,917.052 1383.51,916.801 1380.48,914.453 1379.14,913.402 1377.5,912.105 1374.55,909.757 1374.45,909.669 1371.66,907.409 1369.75,905.849 1368.79,905.061 1365.96,902.713 1365.05,901.95 1363.17,900.365 1360.41,898.017 1360.36,897.974 1357.68,895.669 1355.66,893.917 1354.98,893.321 1352.3,890.973 1350.97,889.787 1349.66,888.625 1347.03,886.277 1346.27,885.586 1344.44,883.929 1341.86,881.581 1341.57,881.315 1339.31,879.233 1336.88,876.975 1336.78,876.885 1334.27,874.537 1332.18,872.567 1331.78,872.189 1329.31,869.841 1327.49,868.095 1326.85,867.493 1324.42,865.145 1322.79,863.56 1322,862.797 1319.6,860.449 1318.09,858.965 1317.21,858.101 1314.84,855.753 1313.4,854.312 1312.48,853.405 1310.14,851.057 1308.7,849.601 1307.81,848.709 1305.49,846.361 1304.01,844.835 1303.19,844.013 1300.9,841.665 1299.31,840.015 1298.63,839.317 1296.36,836.969 1294.61,835.144 1294.11,834.621 1291.86,832.273 1289.92,830.223 1289.63,829.925 1287.4,827.577 1285.22,825.254 1285.2,825.229 1282.98,822.881 1280.8,820.533 1280.53,820.235 1278.61,818.185 1276.44,815.837 1275.83,815.17 1274.27,813.489 1272.11,811.141 1271.13,810.063 1269.96,808.793 1267.82,806.445 1266.44,804.915 1265.68,804.097 1263.55,801.749 1261.74,799.727 1261.44,799.401 1259.32,797.053 1257.23,794.705 1257.05,794.499 1255.11,792.357 1253.03,790.009 1252.35,789.23 1250.94,787.661 1248.86,785.313 1247.65,783.928 1246.79,782.965 1244.72,780.617 1242.96,778.594 1242.67,778.269 1240.6,775.921 1238.56,773.573 1238.26,773.223 1236.5,771.225 1234.47,768.877 1233.57,767.819 1232.43,766.529 1230.39,764.181 1228.87,762.389 1228.38,761.833 1226.34,759.485 1224.35,757.137 1224.17,756.931 1222.31,754.789 1220.31,752.441 1219.48,751.438 1218.3,750.093 1216.3,747.745 1214.78,745.926 1214.32,745.397 1212.31,743.049 1210.34,740.701 1210.09,740.389 1208.33,738.353 1206.36,736.005 1205.39,734.823 1204.38,733.657 1202.39,731.309 1200.69,729.244 1200.45,728.961 1198.45,726.613 1196.5,724.265 1196,723.637 1194.52,721.917 1192.56,719.569 1191.3,718.012 1190.62,717.221 1188.64,714.873 1186.72,712.525 1186.61,712.377 1184.73,710.177 1182.8,707.829 1181.91,706.711 1180.85,705.481 1178.89,703.133 1177.21,701.045 1176.99,700.785 1175,698.437 1173.09,696.089 1172.52,695.353 1171.13,693.741 1169.19,691.393 1167.82,689.654 1167.28,689.045 1165.31,686.697 1163.43,684.349 1163.13,683.946 1161.45,682.001 1159.53,679.653 1158.43,678.218 1157.61,677.305 1155.65,674.957 1153.81,672.609 1153.73,672.504 1151.78,670.261 1149.9,667.913 1149.04,666.746 1147.95,665.565 1145.99,663.217 1144.34,661.024 1144.19,660.869 1142.1,658.521 1140.27,656.173 1139.65,655.241 1138.23,653.825 1136.27,651.477 1134.95,649.496 1134.46,649.129 1132.11,646.781 1130.55,644.433 1130.25,643.553 1125.56,643.553 1125.26,644.433 1123.7,646.781 1121.35,649.129 1120.86,649.496 1119.54,651.477 1117.58,653.825 1116.17,655.241 1115.54,656.173 1113.71,658.521 1111.62,660.869 1111.47,661.024 1109.82,663.217 1107.86,665.565 1106.77,666.746 1105.91,667.913 1104.03,670.261 1102.08,672.504 1102,672.609 1100.17,674.957 1098.2,677.305 1097.38,678.218 1096.28,679.653 1094.37,682.001 1092.69,683.946 1092.38,684.349 1090.5,686.697 1088.53,689.045 1087.99,689.654 1086.62,691.393 1084.68,693.741 1083.29,695.353 1082.72,696.089 1080.81,698.437 1078.83,700.785 1078.6,701.045 1076.92,703.133 1074.97,705.481 1073.9,706.711 1073.01,707.829 1071.08,710.177 1069.21,712.377 1069.09,712.525 1067.17,714.873 1065.2,717.221 1064.51,718.012 1063.25,719.569 1061.29,721.917 1059.81,723.637 1059.31,724.265 1057.36,726.613 1055.37,728.961 1055.12,729.244 1053.42,731.309 1051.43,733.657 1050.42,734.823 1049.45,736.005 1047.48,738.353 1045.73,740.389 1045.47,740.701 1043.51,743.049 1041.49,745.397 1041.03,745.926 1039.51,747.745 1037.51,750.093 1036.33,751.438 1035.5,752.441 1033.5,754.789 1031.64,756.931 1031.47,757.137 1029.47,759.485 1027.43,761.833 1026.94,762.389 1025.42,764.181 1023.38,766.529 1022.25,767.819 1021.35,768.877 1019.31,771.225 1017.55,773.223 1017.25,773.573 1015.22,775.921 1013.15,778.269 1012.85,778.594 1011.1,780.617 1009.02,782.965 1008.16,783.928 1006.95,785.313 1004.87,787.661 1003.46,789.23 1002.78,790.009 1000.7,792.357 998.766,794.499 998.585,794.705 996.493,797.053 994.369,799.401 994.07,799.727 992.26,801.749 990.127,804.097 989.374,804.915 987.997,806.445 985.854,808.793 984.678,810.063 983.702,811.141 981.547,813.489 979.982,815.17 979.374,815.837 977.205,818.185 975.286,820.235 975.012,820.533 972.827,822.881 970.614,825.229 970.59,825.254 968.411,827.577 966.181,829.925 965.894,830.223 963.954,832.273 961.705,834.621 961.198,835.144 959.455,836.969 957.185,839.317 956.502,840.015 954.91,841.665 952.618,844.013 951.806,844.835 950.317,846.361 948,848.709 947.11,849.601 945.673,851.057 943.329,853.405 942.414,854.312 940.974,855.753 938.601,858.101 937.718,858.965 936.216,860.449 933.812,862.797 933.022,863.56 931.395,865.145 928.958,867.493 928.326,868.095 926.506,869.841 924.033,872.189 923.63,872.567 921.544,874.537 919.032,876.885 918.934,876.975 916.503,879.233 914.238,881.315 913.95,881.581 911.376,883.929 909.542,885.586 908.778,886.277 906.157,888.625 904.846,889.787 903.509,890.973 900.836,893.321 900.15,893.917 898.133,895.669 895.454,897.974 895.404,898.017 892.641,900.365 890.758,901.95 889.848,902.713 887.02,905.061 886.062,905.849 884.155,907.409 881.366,909.669 881.257,909.757 878.312,912.105 876.671,913.402 875.327,914.453 872.301,916.801 871.975,917.052 869.218,919.149 867.279,920.611 866.089,921.497 862.908,923.845 862.583,924.083 859.656,926.193 857.887,927.458 856.346,928.541 853.191,930.741 852.974,930.889 849.512,933.237 848.495,933.922 845.969,935.585 843.799,937.002 842.339,937.933 839.103,939.98 838.615,940.281 834.772,942.629 834.407,942.85 830.793,944.977 829.711,945.609 826.673,947.325 825.015,948.254 822.389,949.673 820.319,950.783 817.916,952.021 815.623,953.193 813.215,954.369 810.927,955.478 808.241,956.717 806.231,957.637 802.931,959.065 801.535,959.664 797.201,961.413 796.839,961.558 792.143,963.31 790.835,963.761 787.447,964.919 783.634,966.109 782.751,966.382 778.055,967.691 774.941,968.457 773.359,968.843 768.663,969.831 763.967,970.654 762.876,970.805 759.271,971.3 754.575,971.767 749.879,972.048 745.183,972.136 740.487,972.023 735.791,971.703 731.095,971.168 728.841,970.805 726.399,970.408 721.703,969.413 718.069,968.457 717.007,968.175 712.311,966.682 710.774,966.109 707.615,964.922 704.931,963.761 702.919,962.884 699.947,961.413 698.223,960.553 695.566,959.065 693.527,957.914 691.621,956.717 688.831,954.952 687.997,954.369 684.662,952.021 684.135,951.647 681.6,949.673 679.439,947.978 678.676,947.325 675.954,944.977 674.743,943.924 673.371,942.629 670.903,940.281 670.047,939.46 668.574,937.933 666.327,935.585 665.351,934.556 664.188,933.237 662.135,930.889 660.655,929.182 660.137,928.541 658.256,926.193 656.39,923.845 655.959,923.298 654.633,921.497 652.918,919.149 651.263,916.862 651.221,916.801 649.642,914.453 648.076,912.105 646.567,909.822 646.527,909.757 645.081,907.409 643.649,905.061 642.229,902.713 641.871,902.116 640.883,900.365 639.57,898.017 638.269,895.669 637.175,893.675 636.992,893.321 635.787,890.973 634.594,888.625 633.411,886.277 632.479,884.407 632.254,883.929 631.158,881.581 630.072,879.233 628.998,876.885 627.934,874.537 627.783,874.202 626.928,872.189 625.941,869.841 624.963,867.493 623.996,865.145 623.087,862.915 623.042,862.797 622.143,860.449 621.255,858.101 620.376,855.753 619.506,853.405 618.646,851.057 618.391,850.353 617.826,848.709 617.027,846.361 616.237,844.013 615.457,841.665 614.685,839.317 613.923,836.969 613.695,836.259 613.195,834.621 612.487,832.273 611.788,829.925 611.097,827.577 610.415,825.229 609.742,822.881 609.077,820.533 608.999,820.254 608.448,818.185 607.832,815.837 607.223,813.489 606.623,811.141 606.031,808.793 605.447,806.445 604.871,804.097 604.304,801.749 604.303,801.746 603.771,799.401 603.245,797.053 602.728,794.705 602.218,792.357 601.716,790.009 601.222,787.661 600.736,785.313 600.257,782.965 599.787,780.617 599.607,779.706 599.337,778.269 598.903,775.921 598.476,773.573 598.056,771.225 597.645,768.877 597.24,766.529 596.843,764.181 596.454,761.833 596.072,759.485 595.698,757.137 595.331,754.789 594.971,752.441 594.911,752.039 594.632,750.093 594.303,747.745 593.981,745.397 593.666,743.049 593.358,740.701 593.058,738.353 592.764,736.005 592.478,733.657 592.199,731.309 591.927,728.961 591.662,726.613 591.404,724.265 591.154,721.917 590.911,719.569 590.674,717.221 590.445,714.873 590.223,712.525 590.215,712.434 590.018,710.177 589.819,707.829 589.627,705.481 589.442,703.133 589.264,700.785 589.093,698.437 588.929,696.089 588.771,693.741 588.621,691.393 588.477,689.045 588.34,686.697 588.21,684.349 588.086,682.001 587.97,679.653 587.86,677.305 587.758,674.957 587.662,672.609 587.573,670.261 587.49,667.913 587.415,665.565 587.347,663.217 587.285,660.869 587.23,658.521 587.182,656.173 587.141,653.825 587.107,651.477 587.08,649.129 587.059,646.781 587.045,644.433 587.038,642.085 587.038,639.737 587.045,637.389 587.059,635.041 587.08,632.693 587.107,630.345 587.141,627.997 587.182,625.649 587.23,623.301 587.285,620.953 587.347,618.605 587.415,616.257 587.49,613.909 587.573,611.562 587.662,609.214 587.758,606.866 587.86,604.518 587.97,602.17 588.086,599.822 588.21,597.474 588.34,595.126 588.477,592.778 588.621,590.43 588.771,588.082 588.929,585.734 589.093,583.386 589.264,581.038 589.442,578.69 589.627,576.342 589.819,573.994 590.018,571.646 590.215,569.389 590.223,569.298 590.445,566.95 590.674,564.602 590.911,562.254 591.154,559.906 591.404,557.558 591.662,555.21 591.927,552.862 592.199,550.514 592.478,548.166 592.764,545.818 593.058,543.47 593.358,541.122 593.666,538.774 593.981,536.426 594.303,534.078 594.632,531.73 594.911,529.784 594.971,529.382 595.331,527.034 595.698,524.686 596.072,522.338 596.454,519.99 596.843,517.642 597.24,515.294 597.645,512.946 598.056,510.598 598.476,508.25 598.903,505.902 599.337,503.554 599.607,502.117 599.787,501.206 600.257,498.858 600.736,496.51 601.222,494.162 601.716,491.814 602.218,489.466 602.728,487.118 603.245,484.77 603.771,482.422 604.303,480.077 604.304,480.074 604.871,477.726 605.447,475.378 606.031,473.03 606.623,470.682 607.223,468.334 607.832,465.986 608.448,463.638 608.999,461.569 609.077,461.29 609.742,458.942 610.415,456.594 611.097,454.246 611.788,451.898 612.487,449.55 613.195,447.202 613.695,445.564 613.923,444.854 614.685,442.506 615.457,440.158 616.237,437.81 617.027,435.462 617.826,433.114 618.391,431.47 618.646,430.766 619.506,428.418 620.376,426.07 621.255,423.722 622.143,421.374 623.042,419.026 623.087,418.908 623.996,416.678 624.963,414.33 625.941,411.982 626.928,409.634 627.783,407.621 627.934,407.286 628.998,404.938 630.072,402.59 631.158,400.242 632.254,397.894 632.479,397.416 633.411,395.546 634.594,393.198 635.787,390.85 636.992,388.502 637.175,388.148 638.269,386.154 639.57,383.806 640.883,381.458 641.871,379.707 642.229,379.11 643.649,376.762 645.081,374.414 646.527,372.066 646.567,372.001 648.076,369.718 649.642,367.37 651.221,365.022 651.263,364.961 652.918,362.674 654.633,360.326 655.959,358.525 656.39,357.978 658.256,355.63 660.137,353.282 660.655,352.641 662.135,350.934 664.188,348.586 665.351,347.266 666.327,346.238 668.574,343.89 670.047,342.363 670.903,341.542 673.371,339.194 674.743,337.899 675.954,336.846 678.676,334.498 679.439,333.845 681.6,332.15 684.135,330.176 684.662,329.802 687.997,327.454 688.831,326.871 691.621,325.106 693.527,323.909 695.566,322.758 698.223,321.27 699.947,320.41 702.919,318.939 704.931,318.062 707.615,316.901 710.774,315.714 712.311,315.141 717.007,313.647 718.069,313.366 721.703,312.41 726.399,311.415 728.841,311.018 731.095,310.654 735.791,310.119 740.487,309.8 745.183,309.687 749.879,309.775 754.575,310.056 759.271,310.523 762.876,311.018 763.967,311.169 768.663,311.992 773.359,312.98 774.941,313.366 778.055,314.132 782.751,315.44 783.634,315.714 787.447,316.904 790.835,318.062 792.143,318.513 796.839,320.265 797.201,320.41 801.535,322.158 802.931,322.758 806.231,324.186 808.241,325.106 810.927,326.345 813.215,327.454 815.623,328.63 817.916,329.802 820.319,331.04 822.389,332.15 825.015,333.569 826.673,334.498 829.711,336.214 830.793,336.846 834.407,338.973 834.772,339.194 838.615,341.542 839.103,341.842 842.339,343.89 843.799,344.82 845.969,346.238 848.495,347.901 849.512,348.586 852.974,350.934 853.191,351.082 856.346,353.282 857.887,354.365 859.656,355.63 862.583,357.74 862.908,357.978 866.089,360.326 867.279,361.211 869.218,362.674 871.975,364.771 872.301,365.022 875.327,367.37 876.671,368.421 878.312,369.718 881.257,372.066 881.366,372.154 884.155,374.414 886.062,375.974 887.02,376.762 889.848,379.11 890.758,379.873 892.641,381.458 895.404,383.806 895.454,383.849 898.133,386.154 900.15,387.906 900.836,388.502 903.509,390.85 904.846,392.036 906.157,393.198 908.778,395.546 909.542,396.237 911.376,397.894 913.95,400.242 914.238,400.508 916.503,402.59 918.934,404.848 919.032,404.938 921.544,407.286 923.63,409.256 924.033,409.634 926.506,411.982 928.326,413.728 928.958,414.33 931.395,416.678 933.022,418.262 933.812,419.026 936.216,421.374 937.718,422.857 938.601,423.722 940.974,426.07 942.414,427.511 943.329,428.418 945.673,430.766 947.11,432.222 948,433.114 950.317,435.462 951.806,436.988 952.618,437.81 954.91,440.158 956.502,441.808 957.185,442.506 959.455,444.854 961.198,446.679 961.705,447.202 963.954,449.55 965.894,451.6 966.181,451.898 968.411,454.246 970.59,456.569 970.614,456.594 972.827,458.942 975.012,461.29 975.286,461.588 977.205,463.638 979.374,465.986 979.982,466.653 981.547,468.334 983.702,470.682 984.678,471.76 985.854,473.03 987.997,475.378 989.374,476.908 990.127,477.726 992.26,480.074 994.07,482.096 994.369,482.422 996.493,484.77 998.585,487.118 998.766,487.324 1000.7,489.466 1002.78,491.814 1003.46,492.592 1004.87,494.162 1006.95,496.51 1008.16,497.895 1009.02,498.858 1011.1,501.206 1012.85,503.229 1013.15,503.554 1015.22,505.902 1017.25,508.25 1017.55,508.599 1019.31,510.598 1021.35,512.946 1022.25,514.004 1023.38,515.294 1025.42,517.642 1026.94,519.434 1027.43,519.99 1029.47,522.338 1031.47,524.686 1031.64,524.892 1033.5,527.034 1035.5,529.382 1036.33,530.384 1037.51,531.73 1039.51,534.078 1041.03,535.897 1041.49,536.426 1043.51,538.774 1045.47,541.122 1045.73,541.434 1047.48,543.47 1049.45,545.818 1050.42,547 1051.43,548.166 1053.42,550.514 1055.12,552.579 1055.37,552.862 1057.36,555.21 1059.31,557.558 1059.81,558.186 1061.29,559.906 1063.25,562.254 1064.51,563.811 1065.2,564.602 1067.17,566.95 1069.09,569.298 1069.21,569.446 1071.08,571.646 1073.01,573.994 1073.9,575.111 1074.97,576.342 1076.92,578.69 1078.6,580.778 1078.83,581.038 1080.81,583.386 1082.72,585.734 1083.29,586.47 1084.68,588.082 1086.62,590.43 1087.99,592.169 1088.53,592.778 1090.5,595.126 1092.38,597.474 1092.69,597.877 1094.37,599.822 "/>
<polyline clip-path="url(#clip852)" style="stroke:#e26f46; stroke-linecap:round; stroke-linejoin:round; stroke-width:4; stroke-opacity:1; fill:none" points="191.056,953.195 203.255,947.095 316.05,890.698 383.836,856.805 441.148,828.149 503.404,797.021 560.799,768.323 622.333,737.556 693.626,701.91 756.982,670.232 812.54,642.453 873.113,612.166 934.046,581.7 1001.42,548.015 1065.52,515.965 1132.17,482.64 1188.27,454.588 1256.77,420.339 1319.52,388.965 1377.47,359.989 1436.17,330.637 1501.96,297.741 1561.58,267.933 1629.84,233.804 1693.04,202.204 1755.35,171.05 1815.84,140.802 1877.86,109.794 1945.8,75.8207 2044.51,26.4694 2064.76,16.3448 "/>
<circle clip-path="url(#clip852)" cx="1440.19" cy="328.628" r="14.4" fill="#3da44d" fill-rule="evenodd" fill-opacity="1" stroke="#000000" stroke-opacity="1" stroke-width="2.688"/>
<path clip-path="url(#clip850)" d="M253.513 471.017 L907.332 471.017 L907.332 212.064 L253.513 212.064  Z" fill="#ffffff" fill-rule="evenodd" fill-opacity="1"/>
<polyline clip-path="url(#clip850)" style="stroke:#000000; stroke-linecap:round; stroke-linejoin:round; stroke-width:4; stroke-opacity:1; fill:none" points="253.513,471.017 907.332,471.017 907.332,212.064 253.513,212.064 253.513,471.017 "/>
<polyline clip-path="url(#clip850)" style="stroke:#1e90ff; stroke-linecap:round; stroke-linejoin:round; stroke-width:4; stroke-opacity:1; fill:none" points="274.332,298.382 399.245,298.382 "/>
<path clip-path="url(#clip850)" d="M443.955 293.853 Q443.955 295.165 443.135 295.914 Q442.315 296.64 441.378 296.64 Q440.488 296.64 440.02 296.125 Q439.551 295.61 439.551 294.954 Q439.551 294.064 440.207 293.291 Q440.863 292.518 441.847 292.354 Q440.886 291.745 439.458 291.745 Q438.521 291.745 437.701 292.237 Q436.905 292.729 436.413 293.361 Q435.944 293.994 435.523 294.907 Q435.124 295.797 434.96 296.336 Q434.82 296.851 434.703 297.413 L433.063 303.972 Q432.267 307.087 432.267 308.188 Q432.267 309.546 432.923 310.46 Q433.579 311.35 434.89 311.35 Q435.405 311.35 435.991 311.209 Q436.577 311.045 437.326 310.624 Q438.099 310.179 438.778 309.523 Q439.481 308.843 440.16 307.696 Q440.839 306.548 441.284 305.072 Q441.425 304.557 441.893 304.557 Q442.479 304.557 442.479 305.026 Q442.479 305.424 442.151 306.267 Q441.847 307.087 441.167 308.164 Q440.512 309.218 439.645 310.179 Q438.778 311.115 437.49 311.771 Q436.202 312.427 434.796 312.427 Q432.782 312.427 431.447 311.35 Q430.112 310.272 429.62 308.773 Q429.503 308.984 429.339 309.265 Q429.175 309.546 428.683 310.179 Q428.215 310.788 427.676 311.256 Q427.137 311.701 426.294 312.052 Q425.474 312.427 424.584 312.427 Q423.46 312.427 422.453 312.099 Q421.469 311.771 420.766 311.022 Q420.064 310.272 420.064 309.242 Q420.064 308.094 420.837 307.298 Q421.633 306.478 422.711 306.478 Q423.39 306.478 423.928 306.876 Q424.491 307.274 424.491 308.141 Q424.491 309.101 423.835 309.827 Q423.179 310.553 422.242 310.741 Q423.202 311.35 424.631 311.35 Q426.177 311.35 427.395 309.991 Q428.613 308.633 429.199 306.361 Q430.651 300.903 431.213 298.467 Q431.775 296.008 431.775 294.954 Q431.775 293.97 431.517 293.291 Q431.26 292.612 430.815 292.307 Q430.393 291.979 429.995 291.862 Q429.62 291.745 429.199 291.745 Q428.496 291.745 427.699 292.026 Q426.927 292.307 425.99 292.963 Q425.076 293.595 424.21 294.907 Q423.343 296.219 422.757 298.022 Q422.64 298.561 422.125 298.561 Q421.563 298.538 421.563 298.069 Q421.563 297.671 421.867 296.851 Q422.195 296.008 422.851 294.954 Q423.53 293.9 424.397 292.963 Q425.287 292.003 426.575 291.347 Q427.887 290.691 429.292 290.691 Q429.925 290.691 430.534 290.832 Q431.166 290.949 431.916 291.3 Q432.688 291.651 433.368 292.424 Q434.047 293.197 434.469 294.322 Q434.75 293.783 435.124 293.268 Q435.523 292.752 436.132 292.12 Q436.764 291.464 437.631 291.089 Q438.521 290.691 439.504 290.691 Q440.465 290.691 441.402 290.949 Q442.339 291.183 443.135 291.956 Q443.955 292.705 443.955 293.853 Z" fill="#000000" fill-rule="nonzero" fill-opacity="1" /><path clip-path="url(#clip850)" d="M448.834 292.107 L448.834 291.074 L459.147 275.318 Q459.409 274.908 459.819 274.924 Q460.196 274.924 460.278 275.072 Q460.36 275.22 460.36 275.793 L460.36 291.074 L463.721 291.074 L463.721 292.107 L460.36 292.107 L460.36 295.026 Q460.36 295.993 460.753 296.304 Q461.163 296.616 462.901 296.616 L463.606 296.616 L463.606 297.649 Q462.229 297.551 459.048 297.551 Q455.884 297.551 454.507 297.649 L454.507 296.616 L455.212 296.616 Q456.95 296.616 457.36 296.321 Q457.769 296.009 457.769 295.026 L457.769 292.107 L448.834 292.107 M449.785 291.074 L457.966 291.074 L457.966 278.548 L449.785 291.074 Z" fill="#000000" fill-rule="nonzero" fill-opacity="1" /><path clip-path="url(#clip850)" d="M513.665 299.217 Q513.946 299.498 513.946 299.896 Q513.946 300.294 513.665 300.575 Q513.384 300.856 512.986 300.856 L482.958 300.856 Q482.56 300.856 482.279 300.575 Q481.998 300.294 481.998 299.896 Q481.998 299.498 482.279 299.217 Q482.56 298.936 482.958 298.936 L512.986 298.936 Q513.384 298.936 513.665 299.217 Z" fill="#000000" fill-rule="nonzero" fill-opacity="1" /><path clip-path="url(#clip850)" d="M532.258 305.424 Q532.258 303.995 533.078 303.316 Q533.898 302.637 534.952 302.637 Q536.052 302.637 536.825 303.363 Q537.622 304.065 537.622 305.307 Q537.622 306.642 536.685 307.391 Q535.771 308.141 534.46 307.953 Q535.607 309.874 537.715 310.741 Q539.847 311.607 541.814 311.607 Q543.876 311.607 545.539 309.827 Q547.225 308.047 547.225 303.691 Q547.225 299.99 545.773 297.858 Q544.344 295.727 541.51 295.727 L539.402 295.727 Q538.676 295.727 538.465 295.657 Q538.254 295.586 538.254 295.188 Q538.254 294.72 538.98 294.626 Q539.706 294.626 540.854 294.486 Q543.641 294.392 545.117 291.979 Q546.452 289.731 546.452 286.522 Q546.452 283.594 545.047 282.376 Q543.665 281.135 541.861 281.135 Q540.175 281.135 538.324 281.837 Q536.474 282.54 535.467 284.109 Q538.442 284.109 538.442 286.522 Q538.442 287.576 537.762 288.279 Q537.106 288.958 536.006 288.958 Q534.952 288.958 534.249 288.302 Q533.546 287.623 533.546 286.475 Q533.546 283.735 535.982 281.837 Q538.442 279.94 542.049 279.94 Q545.609 279.94 548.232 281.814 Q550.879 283.688 550.879 286.569 Q550.879 289.403 549.005 291.722 Q547.131 294.041 544.157 295.001 Q547.811 295.727 549.989 298.21 Q552.167 300.669 552.167 303.691 Q552.167 307.438 549.216 310.202 Q546.265 312.942 541.955 312.942 Q537.973 312.942 535.116 310.788 Q532.258 308.633 532.258 305.424 Z" fill="#000000" fill-rule="nonzero" fill-opacity="1" /><path clip-path="url(#clip850)" d="M579.902 293.853 Q579.902 295.165 579.082 295.914 Q578.262 296.64 577.326 296.64 Q576.436 296.64 575.967 296.125 Q575.499 295.61 575.499 294.954 Q575.499 294.064 576.154 293.291 Q576.81 292.518 577.794 292.354 Q576.834 291.745 575.405 291.745 Q574.468 291.745 573.648 292.237 Q572.852 292.729 572.36 293.361 Q571.892 293.994 571.47 294.907 Q571.072 295.797 570.908 296.336 Q570.767 296.851 570.65 297.413 L569.011 303.972 Q568.214 307.087 568.214 308.188 Q568.214 309.546 568.87 310.46 Q569.526 311.35 570.838 311.35 Q571.353 311.35 571.938 311.209 Q572.524 311.045 573.274 310.624 Q574.046 310.179 574.726 309.523 Q575.428 308.843 576.108 307.696 Q576.787 306.548 577.232 305.072 Q577.372 304.557 577.841 304.557 Q578.426 304.557 578.426 305.026 Q578.426 305.424 578.099 306.267 Q577.794 307.087 577.115 308.164 Q576.459 309.218 575.592 310.179 Q574.726 311.115 573.437 311.771 Q572.149 312.427 570.744 312.427 Q568.73 312.427 567.394 311.35 Q566.059 310.272 565.568 308.773 Q565.45 308.984 565.286 309.265 Q565.123 309.546 564.631 310.179 Q564.162 310.788 563.623 311.256 Q563.085 311.701 562.242 312.052 Q561.422 312.427 560.532 312.427 Q559.407 312.427 558.4 312.099 Q557.417 311.771 556.714 311.022 Q556.011 310.272 556.011 309.242 Q556.011 308.094 556.784 307.298 Q557.58 306.478 558.658 306.478 Q559.337 306.478 559.876 306.876 Q560.438 307.274 560.438 308.141 Q560.438 309.101 559.782 309.827 Q559.126 310.553 558.189 310.741 Q559.15 311.35 560.579 311.35 Q562.124 311.35 563.342 309.991 Q564.56 308.633 565.146 306.361 Q566.598 300.903 567.16 298.467 Q567.722 296.008 567.722 294.954 Q567.722 293.97 567.465 293.291 Q567.207 292.612 566.762 292.307 Q566.34 291.979 565.942 291.862 Q565.568 291.745 565.146 291.745 Q564.443 291.745 563.647 292.026 Q562.874 292.307 561.937 292.963 Q561.024 293.595 560.157 294.907 Q559.29 296.219 558.705 298.022 Q558.588 298.561 558.072 298.561 Q557.51 298.538 557.51 298.069 Q557.51 297.671 557.815 296.851 Q558.143 296.008 558.798 294.954 Q559.478 293.9 560.344 292.963 Q561.234 292.003 562.523 291.347 Q563.834 290.691 565.24 290.691 Q565.872 290.691 566.481 290.832 Q567.113 290.949 567.863 291.3 Q568.636 291.651 569.315 292.424 Q569.994 293.197 570.416 294.322 Q570.697 293.783 571.072 293.268 Q571.47 292.752 572.079 292.12 Q572.711 291.464 573.578 291.089 Q574.468 290.691 575.452 290.691 Q576.412 290.691 577.349 290.949 Q578.286 291.183 579.082 291.956 Q579.902 292.705 579.902 293.853 Z" fill="#000000" fill-rule="nonzero" fill-opacity="1" /><path clip-path="url(#clip850)" d="M584.781 297.536 Q584.781 296.93 584.83 296.749 Q584.896 296.569 585.158 296.29 L591.602 289.109 Q595.127 285.141 595.127 281.682 Q595.127 279.435 593.946 277.829 Q592.782 276.222 590.634 276.222 Q589.159 276.222 587.913 277.124 Q586.667 278.025 586.093 279.632 Q586.191 279.599 586.536 279.599 Q587.372 279.599 587.831 280.124 Q588.306 280.649 588.306 281.354 Q588.306 282.255 587.716 282.698 Q587.142 283.124 586.568 283.124 Q586.339 283.124 586.027 283.075 Q585.732 283.026 585.257 282.567 Q584.781 282.092 584.781 281.255 Q584.781 278.911 586.552 277.042 Q588.339 275.173 591.061 275.173 Q594.143 275.173 596.16 277.009 Q598.193 278.829 598.193 281.682 Q598.193 282.682 597.881 283.6 Q597.586 284.502 597.176 285.207 Q596.783 285.912 595.701 287.043 Q594.619 288.174 593.75 288.978 Q592.881 289.781 590.93 291.486 L587.372 294.946 L593.422 294.946 Q596.373 294.946 596.602 294.683 Q596.93 294.208 597.34 291.699 L598.193 291.699 L597.242 297.536 L584.781 297.536 Z" fill="#000000" fill-rule="nonzero" fill-opacity="1" /><path clip-path="url(#clip850)" d="M617.583 300.482 Q616.482 300.482 616.482 299.896 Q616.482 299.311 617.63 299.311 Q617.771 299.311 618.005 299.334 Q618.262 299.357 618.309 299.357 L631.824 299.357 L631.824 285.796 Q631.824 285.749 631.801 285.538 Q631.777 285.304 631.777 285.163 Q631.777 284.016 632.339 284.016 Q632.925 284.016 632.925 285.163 L632.925 299.357 L646.463 299.357 Q646.51 299.357 646.744 299.334 Q646.978 299.311 647.119 299.311 Q648.22 299.311 648.22 299.896 Q648.243 300.482 647.072 300.482 Q646.931 300.482 646.721 300.458 Q646.51 300.435 646.463 300.435 L632.925 300.435 L632.925 314.676 Q632.925 315.777 632.339 315.777 Q631.777 315.777 631.777 314.629 Q631.777 314.488 631.801 314.254 Q631.824 314.043 631.824 313.996 L631.824 300.435 L618.309 300.435 Q618.262 300.435 617.981 300.458 Q617.724 300.482 617.583 300.482 Z" fill="#000000" fill-rule="nonzero" fill-opacity="1" /><path clip-path="url(#clip850)" d="M666.742 311.888 Q666.742 311.022 666.813 310.764 Q666.906 310.506 667.281 310.108 L676.486 299.849 Q681.522 294.181 681.522 289.239 Q681.522 286.03 679.836 283.735 Q678.173 281.439 675.104 281.439 Q672.996 281.439 671.216 282.727 Q669.436 284.016 668.616 286.311 Q668.757 286.264 669.249 286.264 Q670.443 286.264 671.099 287.014 Q671.778 287.763 671.778 288.77 Q671.778 290.059 670.935 290.691 Q670.115 291.3 669.296 291.3 Q668.968 291.3 668.523 291.23 Q668.101 291.16 667.422 290.504 Q666.742 289.824 666.742 288.63 Q666.742 285.281 669.272 282.61 Q671.825 279.94 675.713 279.94 Q680.117 279.94 682.998 282.564 Q685.902 285.163 685.902 289.239 Q685.902 290.668 685.457 291.979 Q685.035 293.268 684.45 294.275 Q683.888 295.282 682.342 296.898 Q680.796 298.514 679.555 299.662 Q678.313 300.81 675.526 303.246 L670.443 308.188 L679.086 308.188 Q683.302 308.188 683.63 307.813 Q684.098 307.134 684.684 303.55 L685.902 303.55 L684.544 311.888 L666.742 311.888 Z" fill="#000000" fill-rule="nonzero" fill-opacity="1" /><path clip-path="url(#clip850)" d="M712.63 292.518 Q712.63 292.846 712.419 293.619 L707.828 311.935 Q706.821 316.011 703.542 318.868 Q700.286 321.726 696.585 321.726 Q694.36 321.726 692.932 320.531 Q691.503 319.36 691.503 317.557 Q691.503 315.964 692.346 315.191 Q693.189 314.441 694.196 314.441 Q694.524 314.441 694.876 314.535 Q695.227 314.629 695.602 315.027 Q695.976 315.425 695.976 316.104 Q695.976 317.205 695.016 318.072 Q694.548 318.47 694.103 318.564 Q693.681 318.657 692.955 318.657 Q693.236 319.313 693.751 319.758 Q694.267 320.203 694.852 320.367 Q695.438 320.555 695.812 320.602 Q696.211 320.672 696.585 320.672 Q699.583 320.672 701.879 317.65 Q702.558 316.737 703.05 315.823 Q703.565 314.933 703.94 313.832 Q704.315 312.755 704.479 312.169 Q704.666 311.584 704.994 310.249 Q702.816 312.427 700.146 312.427 Q699.021 312.427 698.014 312.123 Q697.03 311.818 696.164 311.186 Q695.297 310.53 694.782 309.382 Q694.29 308.235 694.29 306.712 Q694.29 305.096 694.922 302.894 Q695.555 300.692 697.077 296.64 Q697.897 294.368 697.897 293.268 Q697.897 292.729 697.78 292.401 Q697.663 292.05 697.429 291.932 Q697.194 291.792 697.054 291.769 Q696.937 291.745 696.703 291.745 Q695.321 291.745 694.032 293.15 Q692.744 294.556 691.854 297.694 Q691.667 298.28 691.55 298.421 Q691.432 298.561 691.081 298.561 Q690.496 298.538 690.496 298.069 Q690.496 297.882 690.706 297.156 Q690.917 296.406 691.409 295.305 Q691.924 294.181 692.627 293.174 Q693.33 292.143 694.431 291.417 Q695.555 290.691 696.843 290.691 Q698.6 290.691 699.677 291.839 Q700.778 292.963 700.778 294.626 Q700.778 295.305 700.591 295.914 Q700.427 296.5 699.818 298.069 Q697.358 304.393 697.358 307.485 Q697.358 308.235 697.475 308.867 Q697.616 309.476 697.921 310.085 Q698.225 310.67 698.834 311.022 Q699.466 311.35 700.333 311.35 Q701.434 311.35 702.464 310.834 Q703.518 310.296 704.174 309.57 Q704.854 308.843 705.252 308.235 Q705.673 307.602 705.767 307.274 L707.922 298.655 L708.882 294.813 Q709.327 292.729 709.538 292.214 Q709.819 291.722 710.311 291.464 Q710.803 291.206 711.224 291.206 Q711.81 291.206 712.208 291.558 Q712.63 291.909 712.63 292.518 Z" fill="#000000" fill-rule="nonzero" fill-opacity="1" /><path clip-path="url(#clip850)" d="M717.533 297.536 Q717.533 296.93 717.582 296.749 Q717.648 296.569 717.91 296.29 L724.354 289.109 Q727.879 285.141 727.879 281.682 Q727.879 279.435 726.698 277.829 Q725.534 276.222 723.386 276.222 Q721.911 276.222 720.665 277.124 Q719.419 278.025 718.845 279.632 Q718.943 279.599 719.287 279.599 Q720.124 279.599 720.583 280.124 Q721.058 280.649 721.058 281.354 Q721.058 282.255 720.468 282.698 Q719.894 283.124 719.32 283.124 Q719.091 283.124 718.779 283.075 Q718.484 283.026 718.009 282.567 Q717.533 282.092 717.533 281.255 Q717.533 278.911 719.304 277.042 Q721.091 275.173 723.813 275.173 Q726.895 275.173 728.912 277.009 Q730.945 278.829 730.945 281.682 Q730.945 282.682 730.633 283.6 Q730.338 284.502 729.928 285.207 Q729.535 285.912 728.453 287.043 Q727.371 288.174 726.502 288.978 Q725.633 289.781 723.681 291.486 L720.124 294.946 L726.174 294.946 Q729.125 294.946 729.354 294.683 Q729.682 294.208 730.092 291.699 L730.945 291.699 L729.994 297.536 L717.533 297.536 Z" fill="#000000" fill-rule="nonzero" fill-opacity="1" /><path clip-path="url(#clip850)" d="M749.234 304.604 Q749.281 304.018 750.195 304.018 L779.59 304.018 Q780.972 304.018 780.995 304.557 Q780.995 305.143 779.683 305.119 L750.522 305.119 Q749.234 305.143 749.234 304.604 M749.234 295.235 Q749.234 294.649 750.241 294.673 L779.543 294.673 Q780.972 294.673 780.995 295.235 Q780.995 295.774 779.777 295.774 L750.195 295.774 Q749.234 295.774 749.234 295.235 Z" fill="#000000" fill-rule="nonzero" fill-opacity="1" /><path clip-path="url(#clip850)" d="M799.494 296.547 Q799.494 289.497 801.274 285.655 Q803.757 279.94 809.613 279.94 Q810.854 279.94 812.142 280.292 Q813.454 280.619 815.094 281.908 Q816.757 283.196 817.764 285.304 Q819.685 289.379 819.685 296.547 Q819.685 303.55 817.904 307.368 Q815.305 312.942 809.566 312.942 Q807.411 312.942 805.209 311.842 Q803.031 310.741 801.649 308.094 Q799.494 304.136 799.494 296.547 M803.476 295.961 Q803.476 303.199 803.991 306.08 Q804.577 309.195 806.17 310.553 Q807.786 311.888 809.566 311.888 Q811.487 311.888 813.079 310.46 Q814.696 309.007 815.187 305.892 Q815.726 302.824 815.703 295.961 Q815.703 289.286 815.234 286.616 Q814.602 283.5 812.915 282.259 Q811.252 280.994 809.566 280.994 Q808.934 280.994 808.254 281.182 Q807.599 281.369 806.638 281.908 Q805.678 282.446 804.928 283.781 Q804.202 285.117 803.851 287.131 Q803.476 289.731 803.476 295.961 Z" fill="#000000" fill-rule="nonzero" fill-opacity="1" /><polyline clip-path="url(#clip850)" style="stroke:#e26f46; stroke-linecap:round; stroke-linejoin:round; stroke-width:4; stroke-opacity:1; fill:none" points="274.332,384.699 399.245,384.699 "/>
<path clip-path="url(#clip850)" d="M420.064 355.763 L449.3 355.763 L449.3 359.698 L437.031 359.698 L437.031 390.323 L432.332 390.323 L432.332 359.698 L420.064 359.698 L420.064 355.763 Z" fill="#000000" fill-rule="nonzero" fill-opacity="1" /><path clip-path="url(#clip850)" d="M457.564 377.291 Q452.402 377.291 450.411 378.471 Q448.42 379.652 448.42 382.499 Q448.42 384.768 449.902 386.11 Q451.406 387.43 453.976 387.43 Q457.517 387.43 459.647 384.93 Q461.8 382.406 461.8 378.24 L461.8 377.291 L457.564 377.291 M466.059 375.531 L466.059 390.323 L461.8 390.323 L461.8 386.388 Q460.341 388.749 458.165 389.883 Q455.989 390.994 452.841 390.994 Q448.86 390.994 446.499 388.772 Q444.161 386.527 444.161 382.777 Q444.161 378.402 447.078 376.18 Q450.017 373.957 455.827 373.957 L461.8 373.957 L461.8 373.541 Q461.8 370.601 459.855 369.004 Q457.934 367.383 454.439 367.383 Q452.216 367.383 450.11 367.916 Q448.003 368.448 446.059 369.513 L446.059 365.578 Q448.397 364.675 450.596 364.235 Q452.795 363.772 454.878 363.772 Q460.503 363.772 463.281 366.689 Q466.059 369.606 466.059 375.531 Z" fill="#000000" fill-rule="nonzero" fill-opacity="1" /><path clip-path="url(#clip850)" d="M496.383 374.675 L496.383 390.323 L492.124 390.323 L492.124 374.814 Q492.124 371.133 490.688 369.305 Q489.253 367.476 486.383 367.476 Q482.934 367.476 480.943 369.675 Q478.952 371.874 478.952 375.67 L478.952 390.323 L474.67 390.323 L474.67 364.397 L478.952 364.397 L478.952 368.425 Q480.48 366.087 482.54 364.93 Q484.624 363.772 487.332 363.772 Q491.799 363.772 494.091 366.55 Q496.383 369.305 496.383 374.675 Z" fill="#000000" fill-rule="nonzero" fill-opacity="1" /><path clip-path="url(#clip850)" d="M521.938 377.059 Q521.938 372.43 520.017 369.883 Q518.119 367.337 514.67 367.337 Q511.244 367.337 509.323 369.883 Q507.424 372.43 507.424 377.059 Q507.424 381.666 509.323 384.212 Q511.244 386.758 514.67 386.758 Q518.119 386.758 520.017 384.212 Q521.938 381.666 521.938 377.059 M526.197 387.105 Q526.197 393.726 523.258 396.943 Q520.318 400.184 514.253 400.184 Q512.008 400.184 510.017 399.837 Q508.026 399.513 506.151 398.818 L506.151 394.675 Q508.026 395.693 509.855 396.179 Q511.684 396.666 513.582 396.666 Q517.772 396.666 519.855 394.467 Q521.938 392.291 521.938 387.869 L521.938 385.763 Q520.619 388.055 518.559 389.189 Q516.498 390.323 513.628 390.323 Q508.86 390.323 505.943 386.689 Q503.026 383.055 503.026 377.059 Q503.026 371.041 505.943 367.406 Q508.86 363.772 513.628 363.772 Q516.498 363.772 518.559 364.907 Q520.619 366.041 521.938 368.332 L521.938 364.397 L526.197 364.397 L526.197 387.105 Z" fill="#000000" fill-rule="nonzero" fill-opacity="1" /><path clip-path="url(#clip850)" d="M557.146 376.295 L557.146 378.379 L537.563 378.379 Q537.841 382.777 540.202 385.092 Q542.586 387.383 546.822 387.383 Q549.276 387.383 551.568 386.781 Q553.882 386.18 556.151 384.976 L556.151 389.004 Q553.859 389.976 551.452 390.485 Q549.045 390.994 546.568 390.994 Q540.364 390.994 536.73 387.383 Q533.119 383.772 533.119 377.615 Q533.119 371.249 536.545 367.522 Q539.994 363.772 545.827 363.772 Q551.058 363.772 554.091 367.152 Q557.146 370.508 557.146 376.295 M552.887 375.045 Q552.841 371.55 550.92 369.467 Q549.021 367.383 545.873 367.383 Q542.308 367.383 540.156 369.397 Q538.026 371.411 537.702 375.068 L552.887 375.045 Z" fill="#000000" fill-rule="nonzero" fill-opacity="1" /><path clip-path="url(#clip850)" d="M585.688 374.675 L585.688 390.323 L581.429 390.323 L581.429 374.814 Q581.429 371.133 579.993 369.305 Q578.558 367.476 575.688 367.476 Q572.239 367.476 570.248 369.675 Q568.257 371.874 568.257 375.67 L568.257 390.323 L563.975 390.323 L563.975 364.397 L568.257 364.397 L568.257 368.425 Q569.785 366.087 571.845 364.93 Q573.929 363.772 576.637 363.772 Q581.105 363.772 583.396 366.55 Q585.688 369.305 585.688 374.675 Z" fill="#000000" fill-rule="nonzero" fill-opacity="1" /><path clip-path="url(#clip850)" d="M598.396 357.036 L598.396 364.397 L607.169 364.397 L607.169 367.707 L598.396 367.707 L598.396 381.781 Q598.396 384.953 599.253 385.855 Q600.132 386.758 602.794 386.758 L607.169 386.758 L607.169 390.323 L602.794 390.323 Q597.864 390.323 595.989 388.494 Q594.114 386.642 594.114 381.781 L594.114 367.707 L590.989 367.707 L590.989 364.397 L594.114 364.397 L594.114 357.036 L598.396 357.036 Z" fill="#000000" fill-rule="nonzero" fill-opacity="1" /><path clip-path="url(#clip850)" d="M634.947 376.295 L634.947 378.379 L615.364 378.379 Q615.641 382.777 618.003 385.092 Q620.387 387.383 624.623 387.383 Q627.077 387.383 629.368 386.781 Q631.683 386.18 633.952 384.976 L633.952 389.004 Q631.66 389.976 629.252 390.485 Q626.845 390.994 624.368 390.994 Q618.165 390.994 614.53 387.383 Q610.919 383.772 610.919 377.615 Q610.919 371.249 614.345 367.522 Q617.794 363.772 623.627 363.772 Q628.859 363.772 631.891 367.152 Q634.947 370.508 634.947 376.295 M630.688 375.045 Q630.641 371.55 628.72 369.467 Q626.822 367.383 623.674 367.383 Q620.109 367.383 617.956 369.397 Q615.827 371.411 615.503 375.068 L630.688 375.045 Z" fill="#000000" fill-rule="nonzero" fill-opacity="1" /><path clip-path="url(#clip850)" d="M674.674 370.953 Q674.674 371.281 674.463 372.054 L669.872 390.37 Q668.865 394.445 665.586 397.303 Q662.33 400.16 658.629 400.16 Q656.404 400.16 654.975 398.966 Q653.547 397.795 653.547 395.991 Q653.547 394.399 654.39 393.626 Q655.233 392.876 656.24 392.876 Q656.568 392.876 656.919 392.97 Q657.271 393.063 657.645 393.462 Q658.02 393.86 658.02 394.539 Q658.02 395.64 657.06 396.507 Q656.591 396.905 656.146 396.998 Q655.725 397.092 654.999 397.092 Q655.28 397.748 655.795 398.193 Q656.31 398.638 656.896 398.802 Q657.482 398.989 657.856 399.036 Q658.254 399.106 658.629 399.106 Q661.627 399.106 663.923 396.085 Q664.602 395.171 665.094 394.258 Q665.609 393.368 665.984 392.267 Q666.359 391.19 666.523 390.604 Q666.71 390.019 667.038 388.683 Q664.86 390.862 662.189 390.862 Q661.065 390.862 660.058 390.557 Q659.074 390.253 658.208 389.62 Q657.341 388.965 656.826 387.817 Q656.334 386.669 656.334 385.147 Q656.334 383.531 656.966 381.329 Q657.599 379.127 659.121 375.075 Q659.941 372.803 659.941 371.702 Q659.941 371.163 659.824 370.836 Q659.707 370.484 659.472 370.367 Q659.238 370.227 659.098 370.203 Q658.981 370.18 658.746 370.18 Q657.364 370.18 656.076 371.585 Q654.788 372.99 653.898 376.129 Q653.71 376.715 653.593 376.855 Q653.476 376.996 653.125 376.996 Q652.539 376.972 652.539 376.504 Q652.539 376.316 652.75 375.59 Q652.961 374.841 653.453 373.74 Q653.968 372.616 654.671 371.609 Q655.373 370.578 656.474 369.852 Q657.599 369.126 658.887 369.126 Q660.644 369.126 661.721 370.273 Q662.822 371.398 662.822 373.061 Q662.822 373.74 662.634 374.349 Q662.47 374.934 661.862 376.504 Q659.402 382.828 659.402 385.92 Q659.402 386.669 659.519 387.302 Q659.66 387.911 659.964 388.52 Q660.269 389.105 660.878 389.456 Q661.51 389.784 662.377 389.784 Q663.478 389.784 664.508 389.269 Q665.562 388.73 666.218 388.004 Q666.897 387.278 667.296 386.669 Q667.717 386.037 667.811 385.709 L669.966 377.089 L670.926 373.248 Q671.371 371.163 671.582 370.648 Q671.863 370.156 672.355 369.899 Q672.847 369.641 673.268 369.641 Q673.854 369.641 674.252 369.992 Q674.674 370.344 674.674 370.953 Z" fill="#000000" fill-rule="nonzero" fill-opacity="1" /><path clip-path="url(#clip850)" d="M689.114 383.039 Q689.16 382.453 690.074 382.453 L719.469 382.453 Q720.851 382.453 720.874 382.992 Q720.874 383.577 719.563 383.554 L690.402 383.554 Q689.114 383.577 689.114 383.039 M689.114 373.67 Q689.114 373.084 690.121 373.108 L719.422 373.108 Q720.851 373.108 720.874 373.67 Q720.874 374.208 719.657 374.208 L690.074 374.208 Q689.114 374.208 689.114 373.67 Z" fill="#000000" fill-rule="nonzero" fill-opacity="1" /><path clip-path="url(#clip850)" d="M773.505 354.608 Q773.505 355.919 772.685 356.669 Q771.865 357.395 770.928 357.395 Q770.038 357.395 769.57 356.88 Q769.101 356.364 769.101 355.709 Q769.101 354.819 769.757 354.046 Q770.413 353.273 771.397 353.109 Q770.436 352.5 769.008 352.5 Q768.071 352.5 767.251 352.992 Q766.455 353.483 765.963 354.116 Q765.494 354.748 765.073 355.662 Q764.674 356.552 764.51 357.091 Q764.37 357.606 764.253 358.168 L762.613 364.726 Q761.817 367.841 761.817 368.942 Q761.817 370.301 762.473 371.214 Q763.129 372.104 764.44 372.104 Q764.955 372.104 765.541 371.964 Q766.127 371.8 766.876 371.378 Q767.649 370.933 768.328 370.277 Q769.031 369.598 769.71 368.45 Q770.389 367.303 770.835 365.827 Q770.975 365.312 771.443 365.312 Q772.029 365.312 772.029 365.78 Q772.029 366.178 771.701 367.022 Q771.397 367.841 770.717 368.919 Q770.062 369.973 769.195 370.933 Q768.328 371.87 767.04 372.526 Q765.752 373.182 764.346 373.182 Q762.332 373.182 760.997 372.104 Q759.662 371.027 759.17 369.528 Q759.053 369.739 758.889 370.02 Q758.725 370.301 758.233 370.933 Q757.765 371.542 757.226 372.011 Q756.687 372.456 755.844 372.807 Q755.024 373.182 754.134 373.182 Q753.01 373.182 752.003 372.854 Q751.019 372.526 750.316 371.776 Q749.614 371.027 749.614 369.996 Q749.614 368.849 750.387 368.052 Q751.183 367.232 752.261 367.232 Q752.94 367.232 753.478 367.631 Q754.041 368.029 754.041 368.895 Q754.041 369.856 753.385 370.582 Q752.729 371.308 751.792 371.495 Q752.752 372.104 754.181 372.104 Q755.727 372.104 756.945 370.746 Q758.163 369.387 758.749 367.115 Q760.201 361.658 760.763 359.222 Q761.325 356.763 761.325 355.709 Q761.325 354.725 761.067 354.046 Q760.81 353.366 760.365 353.062 Q759.943 352.734 759.545 352.617 Q759.17 352.5 758.749 352.5 Q758.046 352.5 757.249 352.781 Q756.477 353.062 755.54 353.718 Q754.626 354.35 753.76 355.662 Q752.893 356.973 752.307 358.777 Q752.19 359.316 751.675 359.316 Q751.113 359.292 751.113 358.824 Q751.113 358.426 751.417 357.606 Q751.745 356.763 752.401 355.709 Q753.08 354.655 753.947 353.718 Q754.837 352.757 756.125 352.102 Q757.437 351.446 758.842 351.446 Q759.475 351.446 760.084 351.586 Q760.716 351.703 761.466 352.055 Q762.238 352.406 762.918 353.179 Q763.597 353.952 764.019 355.076 Q764.3 354.537 764.674 354.022 Q765.073 353.507 765.682 352.874 Q766.314 352.219 767.181 351.844 Q768.071 351.446 769.054 351.446 Q770.015 351.446 770.952 351.703 Q771.889 351.938 772.685 352.711 Q773.505 353.46 773.505 354.608 Z" fill="#000000" fill-rule="nonzero" fill-opacity="1" /><path clip-path="url(#clip850)" d="M749.614 385.979 L778.384 385.979 L778.384 383.419 L749.614 383.419  Z" fill="#000000" fill-rule="evenodd" fill-opacity="1"/>
<path clip-path="url(#clip850)" d="M752.254 427.858 Q752.254 426.991 752.324 426.734 Q752.418 426.476 752.792 426.078 L761.998 415.819 Q767.033 410.151 767.033 405.209 Q767.033 402 765.347 399.704 Q763.684 397.409 760.616 397.409 Q758.508 397.409 756.727 398.697 Q754.947 399.985 754.128 402.281 Q754.268 402.234 754.76 402.234 Q755.955 402.234 756.61 402.983 Q757.29 403.733 757.29 404.74 Q757.29 406.028 756.446 406.661 Q755.627 407.27 754.807 407.27 Q754.479 407.27 754.034 407.199 Q753.612 407.129 752.933 406.473 Q752.254 405.794 752.254 404.6 Q752.254 401.25 754.783 398.58 Q757.336 395.91 761.225 395.91 Q765.628 395.91 768.509 398.533 Q771.413 401.133 771.413 405.209 Q771.413 406.637 770.968 407.949 Q770.547 409.237 769.961 410.244 Q769.399 411.252 767.853 412.868 Q766.307 414.484 765.066 415.632 Q763.824 416.779 761.037 419.215 L755.955 424.157 L764.597 424.157 Q768.813 424.157 769.141 423.783 Q769.61 423.103 770.195 419.52 L771.413 419.52 L770.055 427.858 L752.254 427.858 Z" fill="#000000" fill-rule="nonzero" fill-opacity="1" /><path clip-path="url(#clip850)" d="M797.913 385.173 Q796.812 385.173 796.812 384.587 Q796.812 384.001 797.96 384.001 Q798.1 384.001 798.335 384.025 Q798.592 384.048 798.639 384.048 L812.154 384.048 L812.154 370.487 Q812.154 370.44 812.13 370.229 Q812.107 369.995 812.107 369.854 Q812.107 368.707 812.669 368.707 Q813.255 368.707 813.255 369.854 L813.255 384.048 L826.793 384.048 Q826.84 384.048 827.074 384.025 Q827.308 384.001 827.449 384.001 Q828.549 384.001 828.549 384.587 Q828.573 385.173 827.402 385.173 Q827.261 385.173 827.05 385.149 Q826.84 385.126 826.793 385.126 L813.255 385.126 L813.255 399.367 Q813.255 400.467 812.669 400.467 Q812.107 400.467 812.107 399.32 Q812.107 399.179 812.13 398.945 Q812.154 398.734 812.154 398.687 L812.154 385.126 L798.639 385.126 Q798.592 385.126 798.311 385.149 Q798.053 385.173 797.913 385.173 Z" fill="#000000" fill-rule="nonzero" fill-opacity="1" /><path clip-path="url(#clip850)" d="M859.072 345.798 L859.072 344.299 Q864.834 344.299 867.809 341.231 Q868.629 341.231 868.769 341.418 Q868.91 341.606 868.91 342.472 L868.91 369.385 Q868.91 370.814 869.612 371.259 Q870.315 371.704 873.383 371.704 L874.906 371.704 L874.906 373.179 Q873.219 373.039 867.13 373.039 Q861.04 373.039 859.377 373.179 L859.377 371.704 L860.899 371.704 Q863.921 371.704 864.647 371.282 Q865.373 370.837 865.373 369.385 L865.373 344.534 Q862.867 345.798 859.072 345.798 Z" fill="#000000" fill-rule="nonzero" fill-opacity="1" /><path clip-path="url(#clip850)" d="M857.312 385.979 L881.393 385.979 L881.393 383.419 L857.312 383.419  Z" fill="#000000" fill-rule="evenodd" fill-opacity="1"/>
<path clip-path="url(#clip850)" d="M857.312 427.858 Q857.312 426.991 857.382 426.734 Q857.476 426.476 857.851 426.078 L867.056 415.819 Q872.092 410.151 872.092 405.209 Q872.092 402 870.405 399.704 Q868.742 397.409 865.674 397.409 Q863.566 397.409 861.786 398.697 Q860.006 399.985 859.186 402.281 Q859.327 402.234 859.818 402.234 Q861.013 402.234 861.669 402.983 Q862.348 403.733 862.348 404.74 Q862.348 406.028 861.505 406.661 Q860.685 407.27 859.865 407.27 Q859.537 407.27 859.092 407.199 Q858.671 407.129 857.991 406.473 Q857.312 405.794 857.312 404.6 Q857.312 401.25 859.842 398.58 Q862.395 395.91 866.283 395.91 Q870.686 395.91 873.567 398.533 Q876.472 401.133 876.472 405.209 Q876.472 406.637 876.027 407.949 Q875.605 409.237 875.02 410.244 Q874.457 411.252 872.912 412.868 Q871.366 414.484 870.124 415.632 Q868.883 416.779 866.096 419.215 L861.013 424.157 L869.656 424.157 Q873.872 424.157 874.2 423.783 Q874.668 423.103 875.254 419.52 L876.472 419.52 L875.113 427.858 L857.312 427.858 Z" fill="#000000" fill-rule="nonzero" fill-opacity="1" /></svg>
