<?xml version="1.0" encoding="utf-8"?>
<svg xmlns="http://www.w3.org/2000/svg" xmlns:xlink="http://www.w3.org/1999/xlink" width="528" height="336" viewBox="0 0 2112 1344">
<defs>
  <clipPath id="clip040">
    <rect x="0" y="0" width="2112" height="1344"/>
  </clipPath>
</defs>
<path clip-path="url(#clip040)" d="M0 1344 L2112 1344 L2112 0 L0 0  Z" fill="#ffffff" fill-rule="evenodd" fill-opacity="1"/>
<defs>
  <clipPath id="clip041">
    <rect x="422" y="0" width="1479" height="1344"/>
  </clipPath>
</defs>
<defs>
  <clipPath id="clip042">
    <rect x="214" y="47" width="1851" height="1127"/>
  </clipPath>
</defs>
<path clip-path="url(#clip042)" d="M884.504 932.119 L884.504 400.863 L1071.19 135.236 L1394.53 288.596 L1394.53 819.851 L1207.84 1085.48 L884.504 932.119  Z" fill="#ffffff" fill-rule="evenodd" fill-opacity="1"/>
<polyline clip-path="url(#clip042)" style="stroke:#000000; stroke-linecap:round; stroke-linejoin:round; stroke-width:2; stroke-opacity:0.1; fill:none" points="734.476,962.684 1059.59,681.128 1059.59,118.014 "/>
<polyline clip-path="url(#clip042)" style="stroke:#000000; stroke-linecap:round; stroke-linejoin:round; stroke-width:2; stroke-opacity:0.1; fill:none" points="815.311,986.019 1140.42,704.463 1140.42,141.349 "/>
<polyline clip-path="url(#clip042)" style="stroke:#000000; stroke-linecap:round; stroke-linejoin:round; stroke-width:2; stroke-opacity:0.1; fill:none" points="896.146,1009.35 1221.26,727.798 1221.26,164.684 "/>
<polyline clip-path="url(#clip042)" style="stroke:#000000; stroke-linecap:round; stroke-linejoin:round; stroke-width:2; stroke-opacity:0.1; fill:none" points="976.981,1032.69 1302.09,751.133 1302.09,188.02 "/>
<polyline clip-path="url(#clip042)" style="stroke:#000000; stroke-linecap:round; stroke-linejoin:round; stroke-width:2; stroke-opacity:0.1; fill:none" points="1057.82,1056.02 1382.93,774.468 1382.93,211.355 "/>
<polyline clip-path="url(#clip042)" style="stroke:#000000; stroke-linecap:round; stroke-linejoin:round; stroke-width:2; stroke-opacity:0.1; fill:none" points="1138.65,1079.36 1463.76,797.803 1463.76,234.69 "/>
<polyline clip-path="url(#clip042)" style="stroke:#000000; stroke-linecap:round; stroke-linejoin:round; stroke-width:2; stroke-opacity:0.1; fill:none" points="1219.49,1102.69 1544.6,821.138 1544.6,258.025 "/>
<polyline clip-path="url(#clip040)" style="stroke:#000000; stroke-linecap:round; stroke-linejoin:round; stroke-width:4; stroke-opacity:1; fill:none" points="695.435,951.414 1258.55,1113.97 "/>
<polyline clip-path="url(#clip040)" style="stroke:#000000; stroke-linecap:round; stroke-linejoin:round; stroke-width:4; stroke-opacity:1; fill:none" points="734.476,962.684 738.377,959.306 "/>
<polyline clip-path="url(#clip040)" style="stroke:#000000; stroke-linecap:round; stroke-linejoin:round; stroke-width:4; stroke-opacity:1; fill:none" points="815.311,986.019 819.212,982.641 "/>
<polyline clip-path="url(#clip040)" style="stroke:#000000; stroke-linecap:round; stroke-linejoin:round; stroke-width:4; stroke-opacity:1; fill:none" points="896.146,1009.35 900.047,1005.98 "/>
<polyline clip-path="url(#clip040)" style="stroke:#000000; stroke-linecap:round; stroke-linejoin:round; stroke-width:4; stroke-opacity:1; fill:none" points="976.981,1032.69 980.883,1029.31 "/>
<polyline clip-path="url(#clip040)" style="stroke:#000000; stroke-linecap:round; stroke-linejoin:round; stroke-width:4; stroke-opacity:1; fill:none" points="1057.82,1056.02 1061.72,1052.65 "/>
<polyline clip-path="url(#clip040)" style="stroke:#000000; stroke-linecap:round; stroke-linejoin:round; stroke-width:4; stroke-opacity:1; fill:none" points="1138.65,1079.36 1142.55,1075.98 "/>
<polyline clip-path="url(#clip040)" style="stroke:#000000; stroke-linecap:round; stroke-linejoin:round; stroke-width:4; stroke-opacity:1; fill:none" points="1219.49,1102.69 1223.39,1099.32 "/>
<path clip-path="url(#clip040)" d="M617.666 986.035 L647.342 986.035 L647.342 989.97 L617.666 989.97 L617.666 986.035 Z" fill="#000000" fill-rule="nonzero" fill-opacity="1" /><path clip-path="url(#clip040)" d="M658.245 998.928 L665.884 998.928 L665.884 972.562 L657.574 974.229 L657.574 969.97 L665.837 968.303 L670.513 968.303 L670.513 998.928 L678.152 998.928 L678.152 1002.86 L658.245 1002.86 L658.245 998.928 Z" fill="#000000" fill-rule="nonzero" fill-opacity="1" /><path clip-path="url(#clip040)" d="M687.597 996.984 L692.481 996.984 L692.481 1002.86 L687.597 1002.86 L687.597 996.984 Z" fill="#000000" fill-rule="nonzero" fill-opacity="1" /><path clip-path="url(#clip040)" d="M702.712 968.303 L721.069 968.303 L721.069 972.238 L706.995 972.238 L706.995 980.71 Q708.013 980.363 709.032 980.201 Q710.05 980.016 711.069 980.016 Q716.856 980.016 720.235 983.187 Q723.615 986.359 723.615 991.775 Q723.615 997.354 720.143 1000.46 Q716.671 1003.53 710.351 1003.53 Q708.175 1003.53 705.907 1003.16 Q703.661 1002.79 701.254 1002.05 L701.254 997.354 Q703.337 998.488 705.559 999.044 Q707.782 999.599 710.259 999.599 Q714.263 999.599 716.601 997.493 Q718.939 995.386 718.939 991.775 Q718.939 988.164 716.601 986.058 Q714.263 983.951 710.259 983.951 Q708.384 983.951 706.509 984.368 Q704.657 984.785 702.712 985.664 L702.712 968.303 Z" fill="#000000" fill-rule="nonzero" fill-opacity="1" /><path clip-path="url(#clip040)" d="M697.506 1009.37 L727.182 1009.37 L727.182 1013.3 L697.506 1013.3 L697.506 1009.37 Z" fill="#000000" fill-rule="nonzero" fill-opacity="1" /><path clip-path="url(#clip040)" d="M738.085 1022.26 L745.723 1022.26 L745.723 995.897 L737.413 997.564 L737.413 993.305 L745.677 991.638 L750.353 991.638 L750.353 1022.26 L757.992 1022.26 L757.992 1026.2 L738.085 1026.2 L738.085 1022.26 Z" fill="#000000" fill-rule="nonzero" fill-opacity="1" /><path clip-path="url(#clip040)" d="M767.436 1020.32 L772.321 1020.32 L772.321 1026.2 L767.436 1026.2 L767.436 1020.32 Z" fill="#000000" fill-rule="nonzero" fill-opacity="1" /><path clip-path="url(#clip040)" d="M792.506 994.717 Q788.895 994.717 787.066 998.282 Q785.26 1001.82 785.26 1008.95 Q785.26 1016.06 787.066 1019.62 Q788.895 1023.17 792.506 1023.17 Q796.14 1023.17 797.945 1019.62 Q799.774 1016.06 799.774 1008.95 Q799.774 1001.82 797.945 998.282 Q796.14 994.717 792.506 994.717 M792.506 991.013 Q798.316 991.013 801.371 995.62 Q804.45 1000.2 804.45 1008.95 Q804.45 1017.68 801.371 1022.29 Q798.316 1026.87 792.506 1026.87 Q786.695 1026.87 783.617 1022.29 Q780.561 1017.68 780.561 1008.95 Q780.561 1000.2 783.617 995.62 Q786.695 991.013 792.506 991.013 Z" fill="#000000" fill-rule="nonzero" fill-opacity="1" /><path clip-path="url(#clip040)" d="M779.337 1032.7 L809.012 1032.7 L809.012 1036.64 L779.337 1036.64 L779.337 1032.7 Z" fill="#000000" fill-rule="nonzero" fill-opacity="1" /><path clip-path="url(#clip040)" d="M829.105 1018.05 Q825.494 1018.05 823.665 1021.62 Q821.86 1025.16 821.86 1032.29 Q821.86 1039.39 823.665 1042.96 Q825.494 1046.5 829.105 1046.5 Q832.739 1046.5 834.545 1042.96 Q836.373 1039.39 836.373 1032.29 Q836.373 1025.16 834.545 1021.62 Q832.739 1018.05 829.105 1018.05 M829.105 1014.35 Q834.915 1014.35 837.971 1018.95 Q841.049 1023.54 841.049 1032.29 Q841.049 1041.01 837.971 1045.62 Q834.915 1050.2 829.105 1050.2 Q823.295 1050.2 820.216 1045.62 Q817.16 1041.01 817.16 1032.29 Q817.16 1023.54 820.216 1018.95 Q823.295 1014.35 829.105 1014.35 Z" fill="#000000" fill-rule="nonzero" fill-opacity="1" /><path clip-path="url(#clip040)" d="M849.267 1043.65 L854.151 1043.65 L854.151 1049.53 L849.267 1049.53 L849.267 1043.65 Z" fill="#000000" fill-rule="nonzero" fill-opacity="1" /><path clip-path="url(#clip040)" d="M864.382 1014.97 L882.739 1014.97 L882.739 1018.91 L868.665 1018.91 L868.665 1027.38 Q869.683 1027.03 870.702 1026.87 Q871.72 1026.69 872.739 1026.69 Q878.526 1026.69 881.906 1029.86 Q885.285 1033.03 885.285 1038.45 Q885.285 1044.02 881.813 1047.13 Q878.341 1050.2 872.021 1050.2 Q869.845 1050.2 867.577 1049.83 Q865.332 1049.46 862.924 1048.72 L862.924 1044.02 Q865.007 1045.16 867.23 1045.71 Q869.452 1046.27 871.929 1046.27 Q875.933 1046.27 878.271 1044.16 Q880.609 1042.06 880.609 1038.45 Q880.609 1034.83 878.271 1032.73 Q875.933 1030.62 871.929 1030.62 Q870.054 1030.62 868.179 1031.04 Q866.327 1031.45 864.382 1032.33 L864.382 1014.97 Z" fill="#000000" fill-rule="nonzero" fill-opacity="1" /><path clip-path="url(#clip040)" d="M908.945 1041.39 Q905.334 1041.39 903.505 1044.95 Q901.699 1048.49 901.699 1055.62 Q901.699 1062.73 903.505 1066.29 Q905.334 1069.84 908.945 1069.84 Q912.579 1069.84 914.384 1066.29 Q916.213 1062.73 916.213 1055.62 Q916.213 1048.49 914.384 1044.95 Q912.579 1041.39 908.945 1041.39 M908.945 1037.68 Q914.755 1037.68 917.81 1042.29 Q920.889 1046.87 920.889 1055.62 Q920.889 1064.35 917.81 1068.96 Q914.755 1073.54 908.945 1073.54 Q903.134 1073.54 900.056 1068.96 Q897 1064.35 897 1055.62 Q897 1046.87 900.056 1042.29 Q903.134 1037.68 908.945 1037.68 Z" fill="#000000" fill-rule="nonzero" fill-opacity="1" /><path clip-path="url(#clip040)" d="M929.107 1066.99 L933.991 1066.99 L933.991 1072.87 L929.107 1072.87 L929.107 1066.99 Z" fill="#000000" fill-rule="nonzero" fill-opacity="1" /><path clip-path="url(#clip040)" d="M954.176 1041.39 Q950.565 1041.39 948.736 1044.95 Q946.93 1048.49 946.93 1055.62 Q946.93 1062.73 948.736 1066.29 Q950.565 1069.84 954.176 1069.84 Q957.81 1069.84 959.616 1066.29 Q961.444 1062.73 961.444 1055.62 Q961.444 1048.49 959.616 1044.95 Q957.81 1041.39 954.176 1041.39 M954.176 1037.68 Q959.986 1037.68 963.042 1042.29 Q966.12 1046.87 966.12 1055.62 Q966.12 1064.35 963.042 1068.96 Q959.986 1073.54 954.176 1073.54 Q948.366 1073.54 945.287 1068.96 Q942.231 1064.35 942.231 1055.62 Q942.231 1046.87 945.287 1042.29 Q948.366 1037.68 954.176 1037.68 Z" fill="#000000" fill-rule="nonzero" fill-opacity="1" /><path clip-path="url(#clip040)" d="M990.775 1064.72 Q987.164 1064.72 985.335 1068.29 Q983.53 1071.83 983.53 1078.96 Q983.53 1086.06 985.335 1089.63 Q987.164 1093.17 990.775 1093.17 Q994.409 1093.17 996.215 1089.63 Q998.044 1086.06 998.044 1078.96 Q998.044 1071.83 996.215 1068.29 Q994.409 1064.72 990.775 1064.72 M990.775 1061.02 Q996.585 1061.02 999.641 1065.62 Q1002.72 1070.21 1002.72 1078.96 Q1002.72 1087.68 999.641 1092.29 Q996.585 1096.87 990.775 1096.87 Q984.965 1096.87 981.886 1092.29 Q978.831 1087.68 978.831 1078.96 Q978.831 1070.21 981.886 1065.62 Q984.965 1061.02 990.775 1061.02 Z" fill="#000000" fill-rule="nonzero" fill-opacity="1" /><path clip-path="url(#clip040)" d="M1010.94 1090.32 L1015.82 1090.32 L1015.82 1096.2 L1010.94 1096.2 L1010.94 1090.32 Z" fill="#000000" fill-rule="nonzero" fill-opacity="1" /><path clip-path="url(#clip040)" d="M1026.05 1061.64 L1044.41 1061.64 L1044.41 1065.58 L1030.34 1065.58 L1030.34 1074.05 Q1031.35 1073.7 1032.37 1073.54 Q1033.39 1073.36 1034.41 1073.36 Q1040.2 1073.36 1043.58 1076.53 Q1046.96 1079.7 1046.96 1085.12 Q1046.96 1090.69 1043.48 1093.8 Q1040.01 1096.87 1033.69 1096.87 Q1031.52 1096.87 1029.25 1096.5 Q1027 1096.13 1024.59 1095.39 L1024.59 1090.69 Q1026.68 1091.83 1028.9 1092.38 Q1031.12 1092.94 1033.6 1092.94 Q1037.6 1092.94 1039.94 1090.83 Q1042.28 1088.73 1042.28 1085.12 Q1042.28 1081.5 1039.94 1079.4 Q1037.6 1077.29 1033.6 1077.29 Q1031.72 1077.29 1029.85 1077.71 Q1028 1078.12 1026.05 1079 L1026.05 1061.64 Z" fill="#000000" fill-rule="nonzero" fill-opacity="1" /><path clip-path="url(#clip040)" d="M1061.43 1115.6 L1069.06 1115.6 L1069.06 1089.24 L1060.75 1090.9 L1060.75 1086.65 L1069.02 1084.98 L1073.69 1084.98 L1073.69 1115.6 L1081.33 1115.6 L1081.33 1119.54 L1061.43 1119.54 L1061.43 1115.6 Z" fill="#000000" fill-rule="nonzero" fill-opacity="1" /><path clip-path="url(#clip040)" d="M1090.78 1113.66 L1095.66 1113.66 L1095.66 1119.54 L1090.78 1119.54 L1090.78 1113.66 Z" fill="#000000" fill-rule="nonzero" fill-opacity="1" /><path clip-path="url(#clip040)" d="M1115.85 1088.06 Q1112.23 1088.06 1110.41 1091.62 Q1108.6 1095.16 1108.6 1102.29 Q1108.6 1109.4 1110.41 1112.96 Q1112.23 1116.51 1115.85 1116.51 Q1119.48 1116.51 1121.29 1112.96 Q1123.11 1109.4 1123.11 1102.29 Q1123.11 1095.16 1121.29 1091.62 Q1119.48 1088.06 1115.85 1088.06 M1115.85 1084.35 Q1121.66 1084.35 1124.71 1088.96 Q1127.79 1093.54 1127.79 1102.29 Q1127.79 1111.02 1124.71 1115.63 Q1121.66 1120.21 1115.85 1120.21 Q1110.04 1120.21 1106.96 1115.63 Q1103.9 1111.02 1103.9 1102.29 Q1103.9 1093.54 1106.96 1088.96 Q1110.04 1084.35 1115.85 1084.35 Z" fill="#000000" fill-rule="nonzero" fill-opacity="1" /><path clip-path="url(#clip040)" d="M1143.26 1138.94 L1150.89 1138.94 L1150.89 1112.57 L1142.58 1114.24 L1142.58 1109.98 L1150.85 1108.31 L1155.52 1108.31 L1155.52 1138.94 L1163.16 1138.94 L1163.16 1142.87 L1143.26 1142.87 L1143.26 1138.94 Z" fill="#000000" fill-rule="nonzero" fill-opacity="1" /><path clip-path="url(#clip040)" d="M1172.61 1136.99 L1177.49 1136.99 L1177.49 1142.87 L1172.61 1142.87 L1172.61 1136.99 Z" fill="#000000" fill-rule="nonzero" fill-opacity="1" /><path clip-path="url(#clip040)" d="M1187.72 1108.31 L1206.08 1108.31 L1206.08 1112.25 L1192.01 1112.25 L1192.01 1120.72 Q1193.02 1120.37 1194.04 1120.21 Q1195.06 1120.03 1196.08 1120.03 Q1201.87 1120.03 1205.25 1123.2 Q1208.63 1126.37 1208.63 1131.79 Q1208.63 1137.36 1205.15 1140.47 Q1201.68 1143.54 1195.36 1143.54 Q1193.19 1143.54 1190.92 1143.17 Q1188.67 1142.8 1186.26 1142.06 L1186.26 1137.36 Q1188.35 1138.5 1190.57 1139.05 Q1192.79 1139.61 1195.27 1139.61 Q1199.27 1139.61 1201.61 1137.5 Q1203.95 1135.4 1203.95 1131.79 Q1203.95 1128.17 1201.61 1126.07 Q1199.27 1123.96 1195.27 1123.96 Q1193.39 1123.96 1191.52 1124.38 Q1189.67 1124.8 1187.72 1125.67 L1187.72 1108.31 Z" fill="#000000" fill-rule="nonzero" fill-opacity="1" /><path clip-path="url(#clip040)" d="M835.697 1165.32 L842.604 1165.32 L854.412 1182.98 L866.284 1165.32 L873.191 1165.32 L857.913 1188.14 L874.21 1212.84 L867.303 1212.84 L853.935 1192.63 L840.471 1212.84 L833.533 1212.84 L850.497 1187.47 L835.697 1165.32 Z" fill="#000000" fill-rule="nonzero" fill-opacity="1" /><polyline clip-path="url(#clip042)" style="stroke:#000000; stroke-linecap:round; stroke-linejoin:round; stroke-width:2; stroke-opacity:0.1; fill:none" points="1267.74,1106.01 704.631,943.45 704.631,380.336 "/>
<polyline clip-path="url(#clip042)" style="stroke:#000000; stroke-linecap:round; stroke-linejoin:round; stroke-width:2; stroke-opacity:0.1; fill:none" points="1344.42,1039.6 781.311,877.043 781.311,313.929 "/>
<polyline clip-path="url(#clip042)" style="stroke:#000000; stroke-linecap:round; stroke-linejoin:round; stroke-width:2; stroke-opacity:0.1; fill:none" points="1421.1,973.192 857.991,810.636 857.991,247.522 "/>
<polyline clip-path="url(#clip042)" style="stroke:#000000; stroke-linecap:round; stroke-linejoin:round; stroke-width:2; stroke-opacity:0.1; fill:none" points="1497.78,906.786 934.671,744.229 934.671,181.115 "/>
<polyline clip-path="url(#clip042)" style="stroke:#000000; stroke-linecap:round; stroke-linejoin:round; stroke-width:2; stroke-opacity:0.1; fill:none" points="1574.46,840.379 1011.35,677.822 1011.35,114.708 "/>
<polyline clip-path="url(#clip040)" style="stroke:#000000; stroke-linecap:round; stroke-linejoin:round; stroke-width:4; stroke-opacity:1; fill:none" points="1258.55,1113.97 1583.66,832.414 "/>
<polyline clip-path="url(#clip040)" style="stroke:#000000; stroke-linecap:round; stroke-linejoin:round; stroke-width:4; stroke-opacity:1; fill:none" points="1267.74,1106.01 1260.99,1104.06 "/>
<polyline clip-path="url(#clip040)" style="stroke:#000000; stroke-linecap:round; stroke-linejoin:round; stroke-width:4; stroke-opacity:1; fill:none" points="1344.42,1039.6 1337.67,1037.65 "/>
<polyline clip-path="url(#clip040)" style="stroke:#000000; stroke-linecap:round; stroke-linejoin:round; stroke-width:4; stroke-opacity:1; fill:none" points="1421.1,973.192 1414.35,971.242 "/>
<polyline clip-path="url(#clip040)" style="stroke:#000000; stroke-linecap:round; stroke-linejoin:round; stroke-width:4; stroke-opacity:1; fill:none" points="1497.78,906.786 1491.03,904.835 "/>
<polyline clip-path="url(#clip040)" style="stroke:#000000; stroke-linecap:round; stroke-linejoin:round; stroke-width:4; stroke-opacity:1; fill:none" points="1574.46,840.379 1567.71,838.428 "/>
<path clip-path="url(#clip040)" d="M1288.48 1121.03 L1318.16 1121.03 L1318.16 1124.97 L1288.48 1124.97 L1288.48 1121.03 Z" fill="#000000" fill-rule="nonzero" fill-opacity="1" /><path clip-path="url(#clip040)" d="M1329.06 1133.92 L1336.7 1133.92 L1336.7 1107.56 L1328.39 1109.22 L1328.39 1104.97 L1336.65 1103.3 L1341.33 1103.3 L1341.33 1133.92 L1348.97 1133.92 L1348.97 1137.86 L1329.06 1137.86 L1329.06 1133.92 Z" fill="#000000" fill-rule="nonzero" fill-opacity="1" /><path clip-path="url(#clip040)" d="M1358.41 1131.98 L1363.29 1131.98 L1363.29 1137.86 L1358.41 1137.86 L1358.41 1131.98 Z" fill="#000000" fill-rule="nonzero" fill-opacity="1" /><path clip-path="url(#clip040)" d="M1383.48 1106.38 Q1379.87 1106.38 1378.04 1109.94 Q1376.23 1113.48 1376.23 1120.61 Q1376.23 1127.72 1378.04 1131.28 Q1379.87 1134.83 1383.48 1134.83 Q1387.11 1134.83 1388.92 1131.28 Q1390.75 1127.72 1390.75 1120.61 Q1390.75 1113.48 1388.92 1109.94 Q1387.11 1106.38 1383.48 1106.38 M1383.48 1102.67 Q1389.29 1102.67 1392.35 1107.28 Q1395.42 1111.86 1395.42 1120.61 Q1395.42 1129.34 1392.35 1133.95 Q1389.29 1138.53 1383.48 1138.53 Q1377.67 1138.53 1374.59 1133.95 Q1371.53 1129.34 1371.53 1120.61 Q1371.53 1111.86 1374.59 1107.28 Q1377.67 1102.67 1383.48 1102.67 Z" fill="#000000" fill-rule="nonzero" fill-opacity="1" /><path clip-path="url(#clip040)" d="M1365.16 1054.62 L1394.84 1054.62 L1394.84 1058.56 L1365.16 1058.56 L1365.16 1054.62 Z" fill="#000000" fill-rule="nonzero" fill-opacity="1" /><path clip-path="url(#clip040)" d="M1414.93 1039.97 Q1411.32 1039.97 1409.49 1043.54 Q1407.68 1047.08 1407.68 1054.21 Q1407.68 1061.31 1409.49 1064.88 Q1411.32 1068.42 1414.93 1068.42 Q1418.56 1068.42 1420.37 1064.88 Q1422.2 1061.31 1422.2 1054.21 Q1422.2 1047.08 1420.37 1043.54 Q1418.56 1039.97 1414.93 1039.97 M1414.93 1036.27 Q1420.74 1036.27 1423.79 1040.87 Q1426.87 1045.46 1426.87 1054.21 Q1426.87 1062.93 1423.79 1067.54 Q1420.74 1072.12 1414.93 1072.12 Q1409.12 1072.12 1406.04 1067.54 Q1402.98 1062.93 1402.98 1054.21 Q1402.98 1045.46 1406.04 1040.87 Q1409.12 1036.27 1414.93 1036.27 Z" fill="#000000" fill-rule="nonzero" fill-opacity="1" /><path clip-path="url(#clip040)" d="M1435.09 1065.57 L1439.97 1065.57 L1439.97 1071.45 L1435.09 1071.45 L1435.09 1065.57 Z" fill="#000000" fill-rule="nonzero" fill-opacity="1" /><path clip-path="url(#clip040)" d="M1450.21 1036.89 L1468.56 1036.89 L1468.56 1040.83 L1454.49 1040.83 L1454.49 1049.3 Q1455.51 1048.95 1456.53 1048.79 Q1457.54 1048.6 1458.56 1048.6 Q1464.35 1048.6 1467.73 1051.78 Q1471.11 1054.95 1471.11 1060.36 Q1471.11 1065.94 1467.64 1069.04 Q1464.16 1072.12 1457.84 1072.12 Q1455.67 1072.12 1453.4 1071.75 Q1451.15 1071.38 1448.75 1070.64 L1448.75 1065.94 Q1450.83 1067.08 1453.05 1067.63 Q1455.28 1068.19 1457.75 1068.19 Q1461.76 1068.19 1464.09 1066.08 Q1466.43 1063.98 1466.43 1060.36 Q1466.43 1056.75 1464.09 1054.65 Q1461.76 1052.54 1457.75 1052.54 Q1455.88 1052.54 1454 1052.96 Q1452.15 1053.37 1450.21 1054.25 L1450.21 1036.89 Z" fill="#000000" fill-rule="nonzero" fill-opacity="1" /><path clip-path="url(#clip040)" d="M1453.78 973.564 Q1450.17 973.564 1448.34 977.129 Q1446.54 980.67 1446.54 987.8 Q1446.54 994.906 1448.34 998.471 Q1450.17 1002.01 1453.78 1002.01 Q1457.42 1002.01 1459.22 998.471 Q1461.05 994.906 1461.05 987.8 Q1461.05 980.67 1459.22 977.129 Q1457.42 973.564 1453.78 973.564 M1453.78 969.86 Q1459.59 969.86 1462.65 974.467 Q1465.73 979.05 1465.73 987.8 Q1465.73 996.527 1462.65 1001.13 Q1459.59 1005.72 1453.78 1005.72 Q1447.97 1005.72 1444.9 1001.13 Q1441.84 996.527 1441.84 987.8 Q1441.84 979.05 1444.9 974.467 Q1447.97 969.86 1453.78 969.86 Z" fill="#000000" fill-rule="nonzero" fill-opacity="1" /><path clip-path="url(#clip040)" d="M1473.95 999.166 L1478.83 999.166 L1478.83 1005.05 L1473.95 1005.05 L1473.95 999.166 Z" fill="#000000" fill-rule="nonzero" fill-opacity="1" /><path clip-path="url(#clip040)" d="M1499.02 973.564 Q1495.4 973.564 1493.58 977.129 Q1491.77 980.67 1491.77 987.8 Q1491.77 994.906 1493.58 998.471 Q1495.4 1002.01 1499.02 1002.01 Q1502.65 1002.01 1504.46 998.471 Q1506.28 994.906 1506.28 987.8 Q1506.28 980.67 1504.46 977.129 Q1502.65 973.564 1499.02 973.564 M1499.02 969.86 Q1504.83 969.86 1507.88 974.467 Q1510.96 979.05 1510.96 987.8 Q1510.96 996.527 1507.88 1001.13 Q1504.83 1005.72 1499.02 1005.72 Q1493.21 1005.72 1490.13 1001.13 Q1487.07 996.527 1487.07 987.8 Q1487.07 979.05 1490.13 974.467 Q1493.21 969.86 1499.02 969.86 Z" fill="#000000" fill-rule="nonzero" fill-opacity="1" /><path clip-path="url(#clip040)" d="M1530.46 907.157 Q1526.85 907.157 1525.02 910.722 Q1523.22 914.263 1523.22 921.393 Q1523.22 928.499 1525.02 932.064 Q1526.85 935.606 1530.46 935.606 Q1534.1 935.606 1535.9 932.064 Q1537.73 928.499 1537.73 921.393 Q1537.73 914.263 1535.9 910.722 Q1534.1 907.157 1530.46 907.157 M1530.46 903.453 Q1536.27 903.453 1539.33 908.06 Q1542.41 912.643 1542.41 921.393 Q1542.41 930.12 1539.33 934.726 Q1536.27 939.309 1530.46 939.309 Q1524.65 939.309 1521.58 934.726 Q1518.52 930.12 1518.52 921.393 Q1518.52 912.643 1521.58 908.06 Q1524.65 903.453 1530.46 903.453 Z" fill="#000000" fill-rule="nonzero" fill-opacity="1" /><path clip-path="url(#clip040)" d="M1550.63 932.759 L1555.51 932.759 L1555.51 938.638 L1550.63 938.638 L1550.63 932.759 Z" fill="#000000" fill-rule="nonzero" fill-opacity="1" /><path clip-path="url(#clip040)" d="M1565.74 904.078 L1584.1 904.078 L1584.1 908.013 L1570.02 908.013 L1570.02 916.486 Q1571.04 916.138 1572.06 915.976 Q1573.08 915.791 1574.1 915.791 Q1579.89 915.791 1583.27 918.962 Q1586.64 922.134 1586.64 927.55 Q1586.64 933.129 1583.17 936.231 Q1579.7 939.309 1573.38 939.309 Q1571.21 939.309 1568.94 938.939 Q1566.69 938.569 1564.28 937.828 L1564.28 933.129 Q1566.37 934.263 1568.59 934.819 Q1570.81 935.374 1573.29 935.374 Q1577.29 935.374 1579.63 933.268 Q1581.97 931.161 1581.97 927.55 Q1581.97 923.939 1579.63 921.833 Q1577.29 919.726 1573.29 919.726 Q1571.41 919.726 1569.54 920.143 Q1567.69 920.56 1565.74 921.439 L1565.74 904.078 Z" fill="#000000" fill-rule="nonzero" fill-opacity="1" /><path clip-path="url(#clip040)" d="M1595.87 868.296 L1603.51 868.296 L1603.51 841.93 L1595.2 843.597 L1595.2 839.338 L1603.46 837.671 L1608.14 837.671 L1608.14 868.296 L1615.78 868.296 L1615.78 872.231 L1595.87 872.231 L1595.87 868.296 Z" fill="#000000" fill-rule="nonzero" fill-opacity="1" /><path clip-path="url(#clip040)" d="M1625.22 866.352 L1630.11 866.352 L1630.11 872.231 L1625.22 872.231 L1625.22 866.352 Z" fill="#000000" fill-rule="nonzero" fill-opacity="1" /><path clip-path="url(#clip040)" d="M1650.29 840.75 Q1646.68 840.75 1644.85 844.315 Q1643.05 847.856 1643.05 854.986 Q1643.05 862.092 1644.85 865.657 Q1646.68 869.199 1650.29 869.199 Q1653.93 869.199 1655.73 865.657 Q1657.56 862.092 1657.56 854.986 Q1657.56 847.856 1655.73 844.315 Q1653.93 840.75 1650.29 840.75 M1650.29 837.046 Q1656.1 837.046 1659.16 841.653 Q1662.24 846.236 1662.24 854.986 Q1662.24 863.713 1659.16 868.319 Q1656.1 872.903 1650.29 872.903 Q1644.48 872.903 1641.4 868.319 Q1638.35 863.713 1638.35 854.986 Q1638.35 846.236 1641.4 841.653 Q1644.48 837.046 1650.29 837.046 Z" fill="#000000" fill-rule="nonzero" fill-opacity="1" /><path clip-path="url(#clip040)" d="M1524.19 1105.82 L1531.1 1105.82 L1544.27 1125.36 L1557.35 1105.82 L1564.26 1105.82 L1547.46 1130.71 L1547.46 1153.34 L1540.99 1153.34 L1540.99 1130.71 L1524.19 1105.82 Z" fill="#000000" fill-rule="nonzero" fill-opacity="1" /><polyline clip-path="url(#clip042)" style="stroke:#000000; stroke-linecap:round; stroke-linejoin:round; stroke-width:2; stroke-opacity:0.1; fill:none" points="695.435,935.477 1020.55,653.92 1583.66,816.477 "/>
<polyline clip-path="url(#clip042)" style="stroke:#000000; stroke-linecap:round; stroke-linejoin:round; stroke-width:2; stroke-opacity:0.1; fill:none" points="695.435,766.378 1020.55,484.822 1583.66,647.378 "/>
<polyline clip-path="url(#clip042)" style="stroke:#000000; stroke-linecap:round; stroke-linejoin:round; stroke-width:2; stroke-opacity:0.1; fill:none" points="695.435,597.28 1020.55,315.723 1583.66,478.28 "/>
<polyline clip-path="url(#clip042)" style="stroke:#000000; stroke-linecap:round; stroke-linejoin:round; stroke-width:2; stroke-opacity:0.1; fill:none" points="695.435,428.181 1020.55,146.624 1583.66,309.181 "/>
<polyline clip-path="url(#clip040)" style="stroke:#000000; stroke-linecap:round; stroke-linejoin:round; stroke-width:4; stroke-opacity:1; fill:none" points="695.435,951.414 695.435,388.301 "/>
<polyline clip-path="url(#clip040)" style="stroke:#000000; stroke-linecap:round; stroke-linejoin:round; stroke-width:4; stroke-opacity:1; fill:none" points="695.435,935.477 699.336,932.098 "/>
<polyline clip-path="url(#clip040)" style="stroke:#000000; stroke-linecap:round; stroke-linejoin:round; stroke-width:4; stroke-opacity:1; fill:none" points="695.435,766.378 699.336,763 "/>
<polyline clip-path="url(#clip040)" style="stroke:#000000; stroke-linecap:round; stroke-linejoin:round; stroke-width:4; stroke-opacity:1; fill:none" points="695.435,597.28 699.336,593.901 "/>
<polyline clip-path="url(#clip040)" style="stroke:#000000; stroke-linecap:round; stroke-linejoin:round; stroke-width:4; stroke-opacity:1; fill:none" points="695.435,428.181 699.336,424.802 "/>
<path clip-path="url(#clip040)" d="M612.915 921.276 Q609.304 921.276 607.475 924.84 Q605.67 928.382 605.67 935.512 Q605.67 942.618 607.475 946.183 Q609.304 949.724 612.915 949.724 Q616.549 949.724 618.355 946.183 Q620.183 942.618 620.183 935.512 Q620.183 928.382 618.355 924.84 Q616.549 921.276 612.915 921.276 M612.915 917.572 Q618.725 917.572 621.781 922.178 Q624.859 926.762 624.859 935.512 Q624.859 944.238 621.781 948.845 Q618.725 953.428 612.915 953.428 Q607.105 953.428 604.026 948.845 Q600.971 944.238 600.971 935.512 Q600.971 926.762 604.026 922.178 Q607.105 917.572 612.915 917.572 Z" fill="#000000" fill-rule="nonzero" fill-opacity="1" /><path clip-path="url(#clip040)" d="M633.077 946.877 L637.961 946.877 L637.961 952.757 L633.077 952.757 L633.077 946.877 Z" fill="#000000" fill-rule="nonzero" fill-opacity="1" /><path clip-path="url(#clip040)" d="M658.146 921.276 Q654.535 921.276 652.706 924.84 Q650.901 928.382 650.901 935.512 Q650.901 942.618 652.706 946.183 Q654.535 949.724 658.146 949.724 Q661.78 949.724 663.586 946.183 Q665.415 942.618 665.415 935.512 Q665.415 928.382 663.586 924.84 Q661.78 921.276 658.146 921.276 M658.146 917.572 Q663.956 917.572 667.012 922.178 Q670.091 926.762 670.091 935.512 Q670.091 944.238 667.012 948.845 Q663.956 953.428 658.146 953.428 Q652.336 953.428 649.257 948.845 Q646.202 944.238 646.202 935.512 Q646.202 926.762 649.257 922.178 Q652.336 917.572 658.146 917.572 Z" fill="#000000" fill-rule="nonzero" fill-opacity="1" /><path clip-path="url(#clip040)" d="M613.91 752.177 Q610.299 752.177 608.471 755.742 Q606.665 759.283 606.665 766.413 Q606.665 773.519 608.471 777.084 Q610.299 780.626 613.91 780.626 Q617.545 780.626 619.35 777.084 Q621.179 773.519 621.179 766.413 Q621.179 759.283 619.35 755.742 Q617.545 752.177 613.91 752.177 M613.91 748.473 Q619.72 748.473 622.776 753.08 Q625.855 757.663 625.855 766.413 Q625.855 775.14 622.776 779.746 Q619.72 784.33 613.91 784.33 Q608.1 784.33 605.021 779.746 Q601.966 775.14 601.966 766.413 Q601.966 757.663 605.021 753.08 Q608.1 748.473 613.91 748.473 Z" fill="#000000" fill-rule="nonzero" fill-opacity="1" /><path clip-path="url(#clip040)" d="M634.072 777.779 L638.956 777.779 L638.956 783.658 L634.072 783.658 L634.072 777.779 Z" fill="#000000" fill-rule="nonzero" fill-opacity="1" /><path clip-path="url(#clip040)" d="M649.188 749.098 L667.544 749.098 L667.544 753.033 L653.47 753.033 L653.47 761.506 Q654.489 761.158 655.507 760.996 Q656.526 760.811 657.544 760.811 Q663.331 760.811 666.711 763.982 Q670.091 767.154 670.091 772.57 Q670.091 778.149 666.618 781.251 Q663.146 784.33 656.827 784.33 Q654.651 784.33 652.382 783.959 Q650.137 783.589 647.73 782.848 L647.73 778.149 Q649.813 779.283 652.035 779.839 Q654.257 780.394 656.734 780.394 Q660.739 780.394 663.077 778.288 Q665.415 776.181 665.415 772.57 Q665.415 768.959 663.077 766.853 Q660.739 764.746 656.734 764.746 Q654.859 764.746 652.984 765.163 Q651.132 765.58 649.188 766.459 L649.188 749.098 Z" fill="#000000" fill-rule="nonzero" fill-opacity="1" /><path clip-path="url(#clip040)" d="M603.725 610.624 L611.364 610.624 L611.364 584.259 L603.054 585.925 L603.054 581.666 L611.318 580 L615.994 580 L615.994 610.624 L623.632 610.624 L623.632 614.56 L603.725 614.56 L603.725 610.624 Z" fill="#000000" fill-rule="nonzero" fill-opacity="1" /><path clip-path="url(#clip040)" d="M633.077 608.68 L637.961 608.68 L637.961 614.56 L633.077 614.56 L633.077 608.68 Z" fill="#000000" fill-rule="nonzero" fill-opacity="1" /><path clip-path="url(#clip040)" d="M658.146 583.078 Q654.535 583.078 652.706 586.643 Q650.901 590.185 650.901 597.314 Q650.901 604.421 652.706 607.986 Q654.535 611.527 658.146 611.527 Q661.78 611.527 663.586 607.986 Q665.415 604.421 665.415 597.314 Q665.415 590.185 663.586 586.643 Q661.78 583.078 658.146 583.078 M658.146 579.375 Q663.956 579.375 667.012 583.981 Q670.091 588.564 670.091 597.314 Q670.091 606.041 667.012 610.648 Q663.956 615.231 658.146 615.231 Q652.336 615.231 649.257 610.648 Q646.202 606.041 646.202 597.314 Q646.202 588.564 649.257 583.981 Q652.336 579.375 658.146 579.375 Z" fill="#000000" fill-rule="nonzero" fill-opacity="1" /><path clip-path="url(#clip040)" d="M604.721 441.526 L612.359 441.526 L612.359 415.16 L604.049 416.827 L604.049 412.568 L612.313 410.901 L616.989 410.901 L616.989 441.526 L624.628 441.526 L624.628 445.461 L604.721 445.461 L604.721 441.526 Z" fill="#000000" fill-rule="nonzero" fill-opacity="1" /><path clip-path="url(#clip040)" d="M634.072 439.581 L638.956 439.581 L638.956 445.461 L634.072 445.461 L634.072 439.581 Z" fill="#000000" fill-rule="nonzero" fill-opacity="1" /><path clip-path="url(#clip040)" d="M649.188 410.901 L667.544 410.901 L667.544 414.836 L653.47 414.836 L653.47 423.308 Q654.489 422.961 655.507 422.799 Q656.526 422.614 657.544 422.614 Q663.331 422.614 666.711 425.785 Q670.091 428.956 670.091 434.373 Q670.091 439.952 666.618 443.054 Q663.146 446.132 656.827 446.132 Q654.651 446.132 652.382 445.762 Q650.137 445.392 647.73 444.651 L647.73 439.952 Q649.813 441.086 652.035 441.642 Q654.257 442.197 656.734 442.197 Q660.739 442.197 663.077 440.091 Q665.415 437.984 665.415 434.373 Q665.415 430.762 663.077 428.656 Q660.739 426.549 656.734 426.549 Q654.859 426.549 652.984 426.966 Q651.132 427.382 649.188 428.262 L649.188 410.901 Z" fill="#000000" fill-rule="nonzero" fill-opacity="1" /><path clip-path="url(#clip040)" d="M501.179 688.525 L501.179 651.19 L506.08 651.19 L543.288 681.236 L543.288 650.458 L548.699 650.458 L548.699 689.257 L543.797 689.257 L506.589 659.211 L506.589 688.525 L501.179 688.525 Z" fill="#000000" fill-rule="nonzero" fill-opacity="1" /><polyline clip-path="url(#clip042)" style="stroke:#009af9; stroke-linecap:round; stroke-linejoin:round; stroke-width:4; stroke-opacity:1; fill:none" points="1301.21,922.644 1305.97,915.759 1310.56,908.831 1314.99,901.865 1319.24,894.865 1323.31,887.836 1327.2,880.782 1330.9,873.706 1334.4,866.615 1337.72,859.512 1340.84,852.401 1343.75,845.287 1346.47,838.174 1348.97,831.067 1351.27,823.97 1353.36,816.888 1355.23,809.824 1356.89,802.785 1358.34,795.772 1359.56,788.792 1360.57,781.848 1361.35,774.945 1361.91,768.087 1362.26,761.277 1362.38,754.521 1362.27,747.822 1361.95,741.184 1361.4,734.612 1360.64,728.108 1359.65,721.677 1358.44,715.323 1357.02,709.05 1355.37,702.86 1353.52,696.757 1351.45,690.746 1349.17,684.828 1346.67,679.008 1343.98,673.289 1341.08,667.673 1337.98,662.163 1334.68,656.763 1331.18,651.475 1327.5,646.302 1323.62,641.246 1319.57,636.309 1315.33,631.495 1310.92,626.804 1306.34,622.239 1301.59,617.802 1296.68,613.495 1291.62,609.319 1286.4,605.275 1281.04,601.366 1275.53,597.592 1269.89,593.955 1264.12,590.455 1258.23,587.093 1252.21,583.871 1246.09,580.787 1239.86,577.844 1233.52,575.041 1227.1,572.378 1220.59,569.855 1213.99,567.473 1207.33,565.23 1200.59,563.127 1193.79,561.163 1186.94,559.337 1180.05,557.648 1173.11,556.096 1166.14,554.679 1159.14,553.396 1152.12,552.245 1145.09,551.226 1138.06,550.336 1131.02,549.574 1124,548.938 1116.99,548.425 1110,548.034 1103.04,547.762 1096.12,547.607 1089.24,547.567 1082.42,547.639 1075.65,547.819 1068.94,548.106 1062.3,548.496 1055.74,548.986 1049.26,549.574 1042.88,550.255 1036.59,551.027 1030.4,551.886 1024.32,552.828 1018.36,553.851 1012.51,554.949 1006.8,556.121 1001.21,557.361 995.767,558.665 990.464,560.031 985.31,561.453 980.309,562.928 975.467,564.452 970.789,566.02 966.278,567.629 961.941,569.273 957.78,570.949 953.801,572.652 950.007,574.378 946.402,576.123 942.989,577.882 939.772,579.65 936.755,581.424 933.939,583.199 931.329,584.971 928.926,586.734 926.733,588.485 924.752,590.219 922.985,591.932 921.434,593.62 920.1,595.277 918.986,596.901 918.091,598.486 917.416,600.028 916.964,601.523 916.733,602.968 916.724,604.357 916.937,605.686 917.372,606.953 918.029,608.153 918.906,609.281 920.004,610.335 921.32,611.31 922.854,612.203 924.603,613.011 926.567,613.729 928.744,614.355 931.13,614.885 933.724,615.316 936.523,615.645 939.525,615.869 942.726,615.985 946.123,615.99 949.713,615.882 953.493,615.658 957.457,615.316 961.604,614.852 965.927,614.266 970.424,613.555 975.089,612.717 979.918,611.751 984.906,610.654 990.049,609.424 995.34,608.062 1000.78,606.564 1006.35,604.931 1012.05,603.161 1017.89,601.252 1023.84,599.206 1029.91,597.02 1036.09,594.694 1042.37,592.228 1048.75,589.622 1055.22,586.876 1061.78,583.989 1068.41,580.962 1075.11,577.796 1081.88,574.491 1088.7,571.047 1095.57,567.465 1102.49,563.746 1109.45,559.891 1116.43,555.902 1123.44,551.78 1130.47,547.525 1137.5,543.141 1144.53,538.627 1151.57,533.987 1158.58,529.223 1165.58,524.335 1172.56,519.327 1179.5,514.201 1186.4,508.959 1193.25,503.604 1200.05,498.139 1206.79,492.566 1213.47,486.888 1220.06,481.108 1226.58,475.23 1233.02,469.256 1239.36,463.19 1245.6,457.035 1251.73,450.794 1257.75,444.473 1263.66,438.072 1269.44,431.598 1275.09,425.053 1280.6,418.441 1285.98,411.766 1291.21,405.033 1296.29,398.244 1301.21,391.405 "/>
</svg>
