<?xml version="1.0" encoding="utf-8"?>
<svg xmlns="http://www.w3.org/2000/svg" xmlns:xlink="http://www.w3.org/1999/xlink" width="528" height="336" viewBox="0 0 2112 1344">
<defs>
  <clipPath id="clip490">
    <rect x="0" y="0" width="2112" height="1344"/>
  </clipPath>
</defs>
<path clip-path="url(#clip490)" d="M0 1344 L2112 1344 L2112 0 L0 0  Z" fill="#ffffff" fill-rule="evenodd" fill-opacity="1"/>
<defs>
  <clipPath id="clip491">
    <rect x="422" y="0" width="1479" height="1344"/>
  </clipPath>
</defs>
<path clip-path="url(#clip490)" d="M153.232 1234.58 L2064.76 1234.58 L2064.76 47.2441 L153.232 47.2441  Z" fill="#ffffff" fill-rule="evenodd" fill-opacity="1"/>
<defs>
  <clipPath id="clip492">
    <rect x="153" y="47" width="1913" height="1188"/>
  </clipPath>
</defs>
<polyline clip-path="url(#clip492)" style="stroke:#000000; stroke-linecap:round; stroke-linejoin:round; stroke-width:2; stroke-opacity:0.1; fill:none" points="207.332,1234.58 207.332,47.2441 "/>
<polyline clip-path="url(#clip492)" style="stroke:#000000; stroke-linecap:round; stroke-linejoin:round; stroke-width:2; stroke-opacity:0.1; fill:none" points="808.44,1234.58 808.44,47.2441 "/>
<polyline clip-path="url(#clip492)" style="stroke:#000000; stroke-linecap:round; stroke-linejoin:round; stroke-width:2; stroke-opacity:0.1; fill:none" points="1409.55,1234.58 1409.55,47.2441 "/>
<polyline clip-path="url(#clip492)" style="stroke:#000000; stroke-linecap:round; stroke-linejoin:round; stroke-width:2; stroke-opacity:0.1; fill:none" points="2010.66,1234.58 2010.66,47.2441 "/>
<polyline clip-path="url(#clip490)" style="stroke:#000000; stroke-linecap:round; stroke-linejoin:round; stroke-width:4; stroke-opacity:1; fill:none" points="153.232,1234.58 2064.76,1234.58 "/>
<polyline clip-path="url(#clip490)" style="stroke:#000000; stroke-linecap:round; stroke-linejoin:round; stroke-width:4; stroke-opacity:1; fill:none" points="207.332,1234.58 207.332,1215.68 "/>
<polyline clip-path="url(#clip490)" style="stroke:#000000; stroke-linecap:round; stroke-linejoin:round; stroke-width:4; stroke-opacity:1; fill:none" points="808.44,1234.58 808.44,1215.68 "/>
<polyline clip-path="url(#clip490)" style="stroke:#000000; stroke-linecap:round; stroke-linejoin:round; stroke-width:4; stroke-opacity:1; fill:none" points="1409.55,1234.58 1409.55,1215.68 "/>
<polyline clip-path="url(#clip490)" style="stroke:#000000; stroke-linecap:round; stroke-linejoin:round; stroke-width:4; stroke-opacity:1; fill:none" points="2010.66,1234.58 2010.66,1215.68 "/>
<path clip-path="url(#clip490)" d="M207.332 1263.19 Q203.721 1263.19 201.892 1266.76 Q200.087 1270.3 200.087 1277.43 Q200.087 1284.54 201.892 1288.1 Q203.721 1291.64 207.332 1291.64 Q210.966 1291.64 212.772 1288.1 Q214.6 1284.54 214.6 1277.43 Q214.6 1270.3 212.772 1266.76 Q210.966 1263.19 207.332 1263.19 M207.332 1259.49 Q213.142 1259.49 216.198 1264.1 Q219.276 1268.68 219.276 1277.43 Q219.276 1286.16 216.198 1290.76 Q213.142 1295.35 207.332 1295.35 Q201.522 1295.35 198.443 1290.76 Q195.387 1286.16 195.387 1277.43 Q195.387 1268.68 198.443 1264.1 Q201.522 1259.49 207.332 1259.49 Z" fill="#000000" fill-rule="nonzero" fill-opacity="1" /><path clip-path="url(#clip490)" d="M798.822 1290.74 L806.461 1290.74 L806.461 1264.37 L798.151 1266.04 L798.151 1261.78 L806.415 1260.11 L811.09 1260.11 L811.09 1290.74 L818.729 1290.74 L818.729 1294.67 L798.822 1294.67 L798.822 1290.74 Z" fill="#000000" fill-rule="nonzero" fill-opacity="1" /><path clip-path="url(#clip490)" d="M1404.2 1290.74 L1420.52 1290.74 L1420.52 1294.67 L1398.58 1294.67 L1398.58 1290.74 Q1401.24 1287.99 1405.82 1283.36 Q1410.43 1278.7 1411.61 1277.36 Q1413.85 1274.84 1414.73 1273.1 Q1415.64 1271.34 1415.64 1269.65 Q1415.64 1266.9 1413.69 1265.16 Q1411.77 1263.42 1408.67 1263.42 Q1406.47 1263.42 1404.02 1264.19 Q1401.59 1264.95 1398.81 1266.5 L1398.81 1261.78 Q1401.63 1260.65 1404.09 1260.07 Q1406.54 1259.49 1408.58 1259.49 Q1413.95 1259.49 1417.14 1262.17 Q1420.34 1264.86 1420.34 1269.35 Q1420.34 1271.48 1419.52 1273.4 Q1418.74 1275.3 1416.63 1277.89 Q1416.05 1278.56 1412.95 1281.78 Q1409.85 1284.98 1404.2 1290.74 Z" fill="#000000" fill-rule="nonzero" fill-opacity="1" /><path clip-path="url(#clip490)" d="M2014.9 1276.04 Q2018.26 1276.76 2020.14 1279.03 Q2022.03 1281.3 2022.03 1284.63 Q2022.03 1289.74 2018.51 1292.55 Q2015 1295.35 2008.51 1295.35 Q2006.34 1295.35 2004.02 1294.91 Q2001.73 1294.49 1999.28 1293.63 L1999.28 1289.12 Q2001.22 1290.25 2003.54 1290.83 Q2005.85 1291.41 2008.38 1291.41 Q2012.77 1291.41 2015.07 1289.67 Q2017.38 1287.94 2017.38 1284.63 Q2017.38 1281.57 2015.23 1279.86 Q2013.1 1278.12 2009.28 1278.12 L2005.25 1278.12 L2005.25 1274.28 L2009.46 1274.28 Q2012.91 1274.28 2014.74 1272.92 Q2016.57 1271.53 2016.57 1268.93 Q2016.57 1266.27 2014.67 1264.86 Q2012.8 1263.42 2009.28 1263.42 Q2007.36 1263.42 2005.16 1263.84 Q2002.96 1264.26 2000.32 1265.14 L2000.32 1260.97 Q2002.98 1260.23 2005.3 1259.86 Q2007.64 1259.49 2009.7 1259.49 Q2015.02 1259.49 2018.12 1261.92 Q2021.22 1264.33 2021.22 1268.45 Q2021.22 1271.32 2019.58 1273.31 Q2017.94 1275.28 2014.9 1276.04 Z" fill="#000000" fill-rule="nonzero" fill-opacity="1" /><polyline clip-path="url(#clip492)" style="stroke:#000000; stroke-linecap:round; stroke-linejoin:round; stroke-width:2; stroke-opacity:0.1; fill:none" points="153.232,1200.97 2064.76,1200.97 "/>
<polyline clip-path="url(#clip492)" style="stroke:#000000; stroke-linecap:round; stroke-linejoin:round; stroke-width:2; stroke-opacity:0.1; fill:none" points="153.232,920.943 2064.76,920.943 "/>
<polyline clip-path="url(#clip492)" style="stroke:#000000; stroke-linecap:round; stroke-linejoin:round; stroke-width:2; stroke-opacity:0.1; fill:none" points="153.232,640.911 2064.76,640.911 "/>
<polyline clip-path="url(#clip492)" style="stroke:#000000; stroke-linecap:round; stroke-linejoin:round; stroke-width:2; stroke-opacity:0.1; fill:none" points="153.232,360.88 2064.76,360.88 "/>
<polyline clip-path="url(#clip492)" style="stroke:#000000; stroke-linecap:round; stroke-linejoin:round; stroke-width:2; stroke-opacity:0.1; fill:none" points="153.232,80.8479 2064.76,80.8479 "/>
<polyline clip-path="url(#clip490)" style="stroke:#000000; stroke-linecap:round; stroke-linejoin:round; stroke-width:4; stroke-opacity:1; fill:none" points="153.232,1234.58 153.232,47.2441 "/>
<polyline clip-path="url(#clip490)" style="stroke:#000000; stroke-linecap:round; stroke-linejoin:round; stroke-width:4; stroke-opacity:1; fill:none" points="153.232,1200.97 172.13,1200.97 "/>
<polyline clip-path="url(#clip490)" style="stroke:#000000; stroke-linecap:round; stroke-linejoin:round; stroke-width:4; stroke-opacity:1; fill:none" points="153.232,920.943 172.13,920.943 "/>
<polyline clip-path="url(#clip490)" style="stroke:#000000; stroke-linecap:round; stroke-linejoin:round; stroke-width:4; stroke-opacity:1; fill:none" points="153.232,640.911 172.13,640.911 "/>
<polyline clip-path="url(#clip490)" style="stroke:#000000; stroke-linecap:round; stroke-linejoin:round; stroke-width:4; stroke-opacity:1; fill:none" points="153.232,360.88 172.13,360.88 "/>
<polyline clip-path="url(#clip490)" style="stroke:#000000; stroke-linecap:round; stroke-linejoin:round; stroke-width:4; stroke-opacity:1; fill:none" points="153.232,80.8479 172.13,80.8479 "/>
<path clip-path="url(#clip490)" d="M64.3765 1186.77 Q60.7654 1186.77 58.9367 1190.34 Q57.1312 1193.88 57.1312 1201.01 Q57.1312 1208.12 58.9367 1211.68 Q60.7654 1215.22 64.3765 1215.22 Q68.0107 1215.22 69.8163 1211.68 Q71.645 1208.12 71.645 1201.01 Q71.645 1193.88 69.8163 1190.34 Q68.0107 1186.77 64.3765 1186.77 M64.3765 1183.07 Q70.1867 1183.07 73.2422 1187.68 Q76.3209 1192.26 76.3209 1201.01 Q76.3209 1209.74 73.2422 1214.34 Q70.1867 1218.93 64.3765 1218.93 Q58.5664 1218.93 55.4877 1214.34 Q52.4321 1209.74 52.4321 1201.01 Q52.4321 1192.26 55.4877 1187.68 Q58.5664 1183.07 64.3765 1183.07 Z" fill="#000000" fill-rule="nonzero" fill-opacity="1" /><path clip-path="url(#clip490)" d="M84.5384 1212.38 L89.4227 1212.38 L89.4227 1218.25 L84.5384 1218.25 L84.5384 1212.38 Z" fill="#000000" fill-rule="nonzero" fill-opacity="1" /><path clip-path="url(#clip490)" d="M109.608 1186.77 Q105.997 1186.77 104.168 1190.34 Q102.362 1193.88 102.362 1201.01 Q102.362 1208.12 104.168 1211.68 Q105.997 1215.22 109.608 1215.22 Q113.242 1215.22 115.048 1211.68 Q116.876 1208.12 116.876 1201.01 Q116.876 1193.88 115.048 1190.34 Q113.242 1186.77 109.608 1186.77 M109.608 1183.07 Q115.418 1183.07 118.473 1187.68 Q121.552 1192.26 121.552 1201.01 Q121.552 1209.74 118.473 1214.34 Q115.418 1218.93 109.608 1218.93 Q103.798 1218.93 100.719 1214.34 Q97.6634 1209.74 97.6634 1201.01 Q97.6634 1192.26 100.719 1187.68 Q103.798 1183.07 109.608 1183.07 Z" fill="#000000" fill-rule="nonzero" fill-opacity="1" /><path clip-path="url(#clip490)" d="M65.3719 906.742 Q61.7608 906.742 59.9321 910.307 Q58.1265 913.848 58.1265 920.978 Q58.1265 928.084 59.9321 931.649 Q61.7608 935.191 65.3719 935.191 Q69.0061 935.191 70.8117 931.649 Q72.6404 928.084 72.6404 920.978 Q72.6404 913.848 70.8117 910.307 Q69.0061 906.742 65.3719 906.742 M65.3719 903.038 Q71.182 903.038 74.2376 907.645 Q77.3163 912.228 77.3163 920.978 Q77.3163 929.705 74.2376 934.311 Q71.182 938.894 65.3719 938.894 Q59.5617 938.894 56.483 934.311 Q53.4275 929.705 53.4275 920.978 Q53.4275 912.228 56.483 907.645 Q59.5617 903.038 65.3719 903.038 Z" fill="#000000" fill-rule="nonzero" fill-opacity="1" /><path clip-path="url(#clip490)" d="M85.5338 932.344 L90.418 932.344 L90.418 938.223 L85.5338 938.223 L85.5338 932.344 Z" fill="#000000" fill-rule="nonzero" fill-opacity="1" /><path clip-path="url(#clip490)" d="M100.649 903.663 L119.006 903.663 L119.006 907.598 L104.932 907.598 L104.932 916.071 Q105.95 915.723 106.969 915.561 Q107.987 915.376 109.006 915.376 Q114.793 915.376 118.173 918.547 Q121.552 921.719 121.552 927.135 Q121.552 932.714 118.08 935.816 Q114.608 938.894 108.288 938.894 Q106.112 938.894 103.844 938.524 Q101.599 938.154 99.1911 937.413 L99.1911 932.714 Q101.274 933.848 103.497 934.404 Q105.719 934.959 108.196 934.959 Q112.2 934.959 114.538 932.853 Q116.876 930.746 116.876 927.135 Q116.876 923.524 114.538 921.418 Q112.2 919.311 108.196 919.311 Q106.321 919.311 104.446 919.728 Q102.594 920.145 100.649 921.024 L100.649 903.663 Z" fill="#000000" fill-rule="nonzero" fill-opacity="1" /><path clip-path="url(#clip490)" d="M55.1867 654.256 L62.8256 654.256 L62.8256 627.891 L54.5154 629.557 L54.5154 625.298 L62.7793 623.631 L67.4552 623.631 L67.4552 654.256 L75.094 654.256 L75.094 658.191 L55.1867 658.191 L55.1867 654.256 Z" fill="#000000" fill-rule="nonzero" fill-opacity="1" /><path clip-path="url(#clip490)" d="M84.5384 652.312 L89.4227 652.312 L89.4227 658.191 L84.5384 658.191 L84.5384 652.312 Z" fill="#000000" fill-rule="nonzero" fill-opacity="1" /><path clip-path="url(#clip490)" d="M109.608 626.71 Q105.997 626.71 104.168 630.275 Q102.362 633.817 102.362 640.946 Q102.362 648.053 104.168 651.617 Q105.997 655.159 109.608 655.159 Q113.242 655.159 115.048 651.617 Q116.876 648.053 116.876 640.946 Q116.876 633.817 115.048 630.275 Q113.242 626.71 109.608 626.71 M109.608 623.006 Q115.418 623.006 118.473 627.613 Q121.552 632.196 121.552 640.946 Q121.552 649.673 118.473 654.279 Q115.418 658.863 109.608 658.863 Q103.798 658.863 100.719 654.279 Q97.6634 649.673 97.6634 640.946 Q97.6634 632.196 100.719 627.613 Q103.798 623.006 109.608 623.006 Z" fill="#000000" fill-rule="nonzero" fill-opacity="1" /><path clip-path="url(#clip490)" d="M56.1821 374.225 L63.821 374.225 L63.821 347.859 L55.5108 349.526 L55.5108 345.266 L63.7747 343.6 L68.4506 343.6 L68.4506 374.225 L76.0894 374.225 L76.0894 378.16 L56.1821 378.16 L56.1821 374.225 Z" fill="#000000" fill-rule="nonzero" fill-opacity="1" /><path clip-path="url(#clip490)" d="M85.5338 372.28 L90.418 372.28 L90.418 378.16 L85.5338 378.16 L85.5338 372.28 Z" fill="#000000" fill-rule="nonzero" fill-opacity="1" /><path clip-path="url(#clip490)" d="M100.649 343.6 L119.006 343.6 L119.006 347.535 L104.932 347.535 L104.932 356.007 Q105.95 355.66 106.969 355.498 Q107.987 355.313 109.006 355.313 Q114.793 355.313 118.173 358.484 Q121.552 361.655 121.552 367.072 Q121.552 372.65 118.08 375.752 Q114.608 378.831 108.288 378.831 Q106.112 378.831 103.844 378.461 Q101.599 378.09 99.1911 377.349 L99.1911 372.65 Q101.274 373.785 103.497 374.34 Q105.719 374.896 108.196 374.896 Q112.2 374.896 114.538 372.789 Q116.876 370.683 116.876 367.072 Q116.876 363.461 114.538 361.354 Q112.2 359.248 108.196 359.248 Q106.321 359.248 104.446 359.664 Q102.594 360.081 100.649 360.961 L100.649 343.6 Z" fill="#000000" fill-rule="nonzero" fill-opacity="1" /><path clip-path="url(#clip490)" d="M58.4043 94.1927 L74.7237 94.1927 L74.7237 98.1279 L52.7793 98.1279 L52.7793 94.1927 Q55.4414 91.4381 60.0247 86.8085 Q64.6311 82.1558 65.8117 80.8132 Q68.057 78.29 68.9367 76.5539 Q69.8394 74.7947 69.8394 73.1049 Q69.8394 70.3503 67.895 68.6142 Q65.9737 66.8781 62.8719 66.8781 Q60.6728 66.8781 58.2191 67.642 Q55.7886 68.4058 53.0108 69.9568 L53.0108 65.2346 Q55.8349 64.1003 58.2886 63.5216 Q60.7423 62.9429 62.7793 62.9429 Q68.1496 62.9429 71.3441 65.6281 Q74.5385 68.3133 74.5385 72.804 Q74.5385 74.9336 73.7283 76.8549 Q72.9413 78.753 70.8348 81.3456 Q70.2561 82.0169 67.1543 85.2345 Q64.0524 88.4289 58.4043 94.1927 Z" fill="#000000" fill-rule="nonzero" fill-opacity="1" /><path clip-path="url(#clip490)" d="M84.5384 92.2483 L89.4227 92.2483 L89.4227 98.1279 L84.5384 98.1279 L84.5384 92.2483 Z" fill="#000000" fill-rule="nonzero" fill-opacity="1" /><path clip-path="url(#clip490)" d="M109.608 66.6466 Q105.997 66.6466 104.168 70.2114 Q102.362 73.753 102.362 80.8826 Q102.362 87.9891 104.168 91.5539 Q105.997 95.0955 109.608 95.0955 Q113.242 95.0955 115.048 91.5539 Q116.876 87.9891 116.876 80.8826 Q116.876 73.753 115.048 70.2114 Q113.242 66.6466 109.608 66.6466 M109.608 62.9429 Q115.418 62.9429 118.473 67.5494 Q121.552 72.1327 121.552 80.8826 Q121.552 89.6094 118.473 94.2159 Q115.418 98.7992 109.608 98.7992 Q103.798 98.7992 100.719 94.2159 Q97.6634 89.6094 97.6634 80.8826 Q97.6634 72.1327 100.719 67.5494 Q103.798 62.9429 109.608 62.9429 Z" fill="#000000" fill-rule="nonzero" fill-opacity="1" /><polyline clip-path="url(#clip492)" style="stroke:#009af9; stroke-linecap:round; stroke-linejoin:round; stroke-width:4; stroke-opacity:1; fill:none" points="207.332,1200.97 2010.66,640.911 "/>
<polyline clip-path="url(#clip492)" style="stroke:#009af9; stroke-linecap:round; stroke-linejoin:round; stroke-width:4; stroke-opacity:1; fill:none" points="1975.7,635.18 2010.66,640.911 1985.1,665.435 "/>
<polyline clip-path="url(#clip492)" style="stroke:#009af9; stroke-linecap:round; stroke-linejoin:round; stroke-width:4; stroke-opacity:1; fill:none" points="2010.66,640.911 207.332,1200.97 "/>
<polyline clip-path="url(#clip492)" style="stroke:#e26f46; stroke-linecap:round; stroke-linejoin:round; stroke-width:4; stroke-opacity:1; fill:none" points="207.332,1200.97 808.44,80.8479 "/>
<polyline clip-path="url(#clip492)" style="stroke:#e26f46; stroke-linecap:round; stroke-linejoin:round; stroke-width:4; stroke-opacity:1; fill:none" points="779.503,101.272 808.44,80.8479 807.417,116.252 "/>
<polyline clip-path="url(#clip492)" style="stroke:#e26f46; stroke-linecap:round; stroke-linejoin:round; stroke-width:4; stroke-opacity:1; fill:none" points="808.44,80.8479 207.332,1200.97 "/>
<polyline clip-path="url(#clip492)" style="stroke:#3da44d; stroke-linecap:round; stroke-linejoin:round; stroke-width:4; stroke-opacity:1; fill:none" points="808.44,80.8479 2010.66,640.911 "/>
<polyline clip-path="url(#clip492)" style="stroke:#3da44d; stroke-linecap:round; stroke-linejoin:round; stroke-width:4; stroke-opacity:1; fill:none" points="1988.63,613.175 2010.66,640.911 1975.25,641.892 "/>
<polyline clip-path="url(#clip492)" style="stroke:#3da44d; stroke-linecap:round; stroke-linejoin:round; stroke-width:4; stroke-opacity:1; fill:none" points="2010.66,640.911 808.44,80.8479 "/>
<path clip-path="url(#clip490)" d="M1130.32 995.423 L1115.44 995.915 L1115.44 989.397 Q1111.63 995.915 1103.35 995.915 Q1099.94 995.915 1097.4 995.464 Q1094.9 995.013 1092.69 993.906 Q1090.52 992.758 1089.37 990.545 Q1088.22 988.332 1088.22 985.093 L1088.22 965.541 Q1088.22 963.164 1087.36 962.713 Q1086.5 962.262 1082.44 962.262 L1082.44 958.327 L1097.81 957.631 L1097.81 986.282 Q1097.81 988.291 1097.94 989.315 Q1098.1 990.299 1098.72 991.283 Q1099.37 992.226 1100.76 992.594 Q1102.16 992.922 1104.54 992.922 Q1109.17 992.922 1112.04 989.807 Q1114.95 986.692 1114.95 981.568 L1114.95 965.541 Q1114.95 963.164 1114.05 962.713 Q1113.18 962.262 1109.13 962.262 L1109.13 958.327 L1124.5 957.631 L1124.5 988.209 Q1124.5 990.586 1125.36 991.037 Q1126.26 991.488 1130.32 991.488 L1130.32 995.423 Z" fill="#000000" fill-rule="nonzero" fill-opacity="1" /><path clip-path="url(#clip490)" d="M469.066 625.875 Q466.483 625.875 465.172 626.121 Q463.86 626.326 463.491 626.653 Q463.122 626.94 462.835 627.637 L448.899 657.518 Q448.325 658.748 447.669 659.158 Q447.014 659.527 445.825 659.527 Q445.087 659.527 444.677 659.445 Q444.308 659.404 443.693 658.912 Q443.12 658.42 442.628 657.436 L427.913 625.875 L422.543 625.875 L422.543 621.94 L432.134 622.186 L442.546 621.94 L442.546 625.875 L437.996 625.875 L448.653 648.788 L458.409 627.801 L458.818 626.776 Q458.818 626.326 457.548 626.121 Q456.277 625.875 454.802 625.875 L454.802 621.94 L462.426 622.186 Q465.951 622.186 469.066 621.94 L469.066 625.875 Z" fill="#000000" fill-rule="nonzero" fill-opacity="1" /><path clip-path="url(#clip490)" d="M1410.12 323.346 L1395.24 323.838 L1395.24 317.321 Q1391.43 323.838 1383.15 323.838 Q1379.75 323.838 1377.21 323.387 Q1374.71 322.937 1372.49 321.83 Q1370.32 320.682 1369.17 318.469 Q1368.02 316.255 1368.02 313.017 L1368.02 293.465 Q1368.02 291.088 1367.16 290.637 Q1366.3 290.186 1362.24 290.186 L1362.24 286.251 L1377.62 285.554 L1377.62 314.206 Q1377.62 316.214 1377.74 317.239 Q1377.9 318.223 1378.52 319.207 Q1379.17 320.149 1380.57 320.518 Q1381.96 320.846 1384.34 320.846 Q1388.97 320.846 1391.84 317.731 Q1394.75 314.616 1394.75 309.492 L1394.75 293.465 Q1394.75 291.088 1393.85 290.637 Q1392.99 290.186 1388.93 290.186 L1388.93 286.251 L1404.3 285.554 L1404.3 316.132 Q1404.3 318.51 1405.16 318.961 Q1406.06 319.411 1410.12 319.411 L1410.12 323.346 Z" fill="#000000" fill-rule="nonzero" fill-opacity="1" /><path clip-path="url(#clip490)" d="M1494.06 301.171 Q1494.55 301.663 1494.55 302.36 Q1494.55 303.057 1494.06 303.549 Q1493.57 304.04 1492.87 304.04 L1440.32 304.04 Q1439.63 304.04 1439.13 303.549 Q1438.64 303.057 1438.64 302.36 Q1438.64 301.663 1439.13 301.171 Q1439.63 300.679 1440.32 300.679 L1492.87 300.679 Q1493.57 300.679 1494.06 301.171 Z" fill="#000000" fill-rule="nonzero" fill-opacity="1" /><path clip-path="url(#clip490)" d="M1573.13 290.022 Q1570.55 290.022 1569.24 290.268 Q1567.93 290.473 1567.56 290.801 Q1567.19 291.088 1566.9 291.785 L1552.97 321.666 Q1552.39 322.896 1551.74 323.305 Q1551.08 323.674 1549.89 323.674 Q1549.15 323.674 1548.74 323.592 Q1548.37 323.551 1547.76 323.06 Q1547.19 322.568 1546.69 321.584 L1531.98 290.022 L1526.61 290.022 L1526.61 286.087 L1536.2 286.333 L1546.61 286.087 L1546.61 290.022 L1542.06 290.022 L1552.72 312.935 L1562.47 291.949 L1562.88 290.924 Q1562.88 290.473 1561.61 290.268 Q1560.34 290.022 1558.87 290.022 L1558.87 286.087 L1566.49 286.333 Q1570.02 286.333 1573.13 286.087 L1573.13 290.022 Z" fill="#000000" fill-rule="nonzero" fill-opacity="1" /></svg>
