<?xml version="1.0" encoding="utf-8"?>
<svg xmlns="http://www.w3.org/2000/svg" xmlns:xlink="http://www.w3.org/1999/xlink" width="672" height="480" viewBox="0 0 2688 1920">
<defs>
  <clipPath id="clip310">
    <rect x="0" y="0" width="2688" height="1920"/>
  </clipPath>
</defs>
<path clip-path="url(#clip310)" d="
M0 1920 L2688 1920 L2688 0 L0 0  Z
  " fill="#ffffff" fill-rule="evenodd" fill-opacity="1"/>
<defs>
  <clipPath id="clip311">
    <rect x="537" y="0" width="1883" height="1883"/>
  </clipPath>
</defs>
<defs>
  <clipPath id="clip312">
    <rect x="226" y="47" width="2415" height="1755"/>
  </clipPath>
</defs>
<path clip-path="url(#clip310)" d="
M188.807 1800.78 L2640.76 1800.78 L2640.76 47.2441 L188.807 47.2441  Z
  " fill="#ffffff" fill-rule="evenodd" fill-opacity="1"/>
<defs>
  <clipPath id="clip313">
    <rect x="188" y="47" width="2453" height="1755"/>
  </clipPath>
</defs>
<polyline clip-path="url(#clip313)" style="stroke:#000000; stroke-linecap:round; stroke-linejoin:round; stroke-width:2; stroke-opacity:0.1; fill:none" points="
  258.202,1800.78 258.202,47.2441 
  "/>
<polyline clip-path="url(#clip313)" style="stroke:#000000; stroke-linecap:round; stroke-linejoin:round; stroke-width:2; stroke-opacity:0.1; fill:none" points="
  772.237,1800.78 772.237,47.2441 
  "/>
<polyline clip-path="url(#clip313)" style="stroke:#000000; stroke-linecap:round; stroke-linejoin:round; stroke-width:2; stroke-opacity:0.1; fill:none" points="
  1286.27,1800.78 1286.27,47.2441 
  "/>
<polyline clip-path="url(#clip313)" style="stroke:#000000; stroke-linecap:round; stroke-linejoin:round; stroke-width:2; stroke-opacity:0.1; fill:none" points="
  1800.31,1800.78 1800.31,47.2441 
  "/>
<polyline clip-path="url(#clip313)" style="stroke:#000000; stroke-linecap:round; stroke-linejoin:round; stroke-width:2; stroke-opacity:0.1; fill:none" points="
  2314.34,1800.78 2314.34,47.2441 
  "/>
<polyline clip-path="url(#clip310)" style="stroke:#000000; stroke-linecap:round; stroke-linejoin:round; stroke-width:4; stroke-opacity:1; fill:none" points="
  188.807,1800.78 2640.76,1800.78 
  "/>
<polyline clip-path="url(#clip310)" style="stroke:#000000; stroke-linecap:round; stroke-linejoin:round; stroke-width:4; stroke-opacity:1; fill:none" points="
  258.202,1800.78 258.202,1781.88 
  "/>
<polyline clip-path="url(#clip310)" style="stroke:#000000; stroke-linecap:round; stroke-linejoin:round; stroke-width:4; stroke-opacity:1; fill:none" points="
  772.237,1800.78 772.237,1781.88 
  "/>
<polyline clip-path="url(#clip310)" style="stroke:#000000; stroke-linecap:round; stroke-linejoin:round; stroke-width:4; stroke-opacity:1; fill:none" points="
  1286.27,1800.78 1286.27,1781.88 
  "/>
<polyline clip-path="url(#clip310)" style="stroke:#000000; stroke-linecap:round; stroke-linejoin:round; stroke-width:4; stroke-opacity:1; fill:none" points="
  1800.31,1800.78 1800.31,1781.88 
  "/>
<polyline clip-path="url(#clip310)" style="stroke:#000000; stroke-linecap:round; stroke-linejoin:round; stroke-width:4; stroke-opacity:1; fill:none" points="
  2314.34,1800.78 2314.34,1781.88 
  "/>
<path clip-path="url(#clip310)" d="M258.202 1834 Q254.59 1834 252.762 1837.57 Q250.956 1841.11 250.956 1848.24 Q250.956 1855.34 252.762 1858.91 Q254.59 1862.45 258.202 1862.45 Q261.836 1862.45 263.641 1858.91 Q265.47 1855.34 265.47 1848.24 Q265.47 1841.11 263.641 1837.57 Q261.836 1834 258.202 1834 M258.202 1830.3 Q264.012 1830.3 267.067 1834.9 Q270.146 1839.49 270.146 1848.24 Q270.146 1856.96 267.067 1861.57 Q264.012 1866.15 258.202 1866.15 Q252.391 1866.15 249.313 1861.57 Q246.257 1856.96 246.257 1848.24 Q246.257 1839.49 249.313 1834.9 Q252.391 1830.3 258.202 1830.3 Z" fill="#000000" fill-rule="evenodd" fill-opacity="1" /><path clip-path="url(#clip310)" d="M766.89 1861.55 L783.209 1861.55 L783.209 1865.48 L761.265 1865.48 L761.265 1861.55 Q763.927 1858.79 768.51 1854.16 Q773.117 1849.51 774.297 1848.17 Q776.543 1845.65 777.422 1843.91 Q778.325 1842.15 778.325 1840.46 Q778.325 1837.71 776.381 1835.97 Q774.459 1834.23 771.357 1834.23 Q769.158 1834.23 766.705 1835 Q764.274 1835.76 761.496 1837.31 L761.496 1832.59 Q764.32 1831.46 766.774 1830.88 Q769.228 1830.3 771.265 1830.3 Q776.635 1830.3 779.83 1832.98 Q783.024 1835.67 783.024 1840.16 Q783.024 1842.29 782.214 1844.21 Q781.427 1846.11 779.32 1848.7 Q778.742 1849.37 775.64 1852.59 Q772.538 1855.78 766.89 1861.55 Z" fill="#000000" fill-rule="evenodd" fill-opacity="1" /><path clip-path="url(#clip310)" d="M1289.28 1835 L1277.48 1853.45 L1289.28 1853.45 L1289.28 1835 M1288.05 1830.92 L1293.93 1830.92 L1293.93 1853.45 L1298.87 1853.45 L1298.87 1857.34 L1293.93 1857.34 L1293.93 1865.48 L1289.28 1865.48 L1289.28 1857.34 L1273.68 1857.34 L1273.68 1852.82 L1288.05 1830.92 Z" fill="#000000" fill-rule="evenodd" fill-opacity="1" /><path clip-path="url(#clip310)" d="M1800.71 1846.34 Q1797.56 1846.34 1795.71 1848.49 Q1793.88 1850.65 1793.88 1854.4 Q1793.88 1858.12 1795.71 1860.3 Q1797.56 1862.45 1800.71 1862.45 Q1803.86 1862.45 1805.69 1860.3 Q1807.54 1858.12 1807.54 1854.4 Q1807.54 1850.65 1805.69 1848.49 Q1803.86 1846.34 1800.71 1846.34 M1810 1831.69 L1810 1835.95 Q1808.24 1835.11 1806.43 1834.67 Q1804.65 1834.23 1802.89 1834.23 Q1798.26 1834.23 1795.81 1837.36 Q1793.38 1840.48 1793.03 1846.8 Q1794.39 1844.79 1796.45 1843.72 Q1798.51 1842.64 1800.99 1842.64 Q1806.2 1842.64 1809.21 1845.81 Q1812.24 1848.96 1812.24 1854.4 Q1812.24 1859.72 1809.09 1862.94 Q1805.94 1866.15 1800.71 1866.15 Q1794.72 1866.15 1791.55 1861.57 Q1788.38 1856.96 1788.38 1848.24 Q1788.38 1840.04 1792.26 1835.18 Q1796.15 1830.3 1802.7 1830.3 Q1804.46 1830.3 1806.25 1830.65 Q1808.05 1830.99 1810 1831.69 Z" fill="#000000" fill-rule="evenodd" fill-opacity="1" /><path clip-path="url(#clip310)" d="M2314.34 1849.07 Q2311.01 1849.07 2309.09 1850.85 Q2307.19 1852.64 2307.19 1855.76 Q2307.19 1858.89 2309.09 1860.67 Q2311.01 1862.45 2314.34 1862.45 Q2317.68 1862.45 2319.6 1860.67 Q2321.52 1858.86 2321.52 1855.76 Q2321.52 1852.64 2319.6 1850.85 Q2317.7 1849.07 2314.34 1849.07 M2309.67 1847.08 Q2306.66 1846.34 2304.97 1844.28 Q2303.3 1842.22 2303.3 1839.26 Q2303.3 1835.11 2306.24 1832.71 Q2309.2 1830.3 2314.34 1830.3 Q2319.51 1830.3 2322.45 1832.71 Q2325.38 1835.11 2325.38 1839.26 Q2325.38 1842.22 2323.7 1844.28 Q2322.03 1846.34 2319.04 1847.08 Q2322.42 1847.87 2324.3 1850.16 Q2326.2 1852.45 2326.2 1855.76 Q2326.2 1860.78 2323.12 1863.47 Q2320.06 1866.15 2314.34 1866.15 Q2308.63 1866.15 2305.55 1863.47 Q2302.49 1860.78 2302.49 1855.76 Q2302.49 1852.45 2304.39 1850.16 Q2306.29 1847.87 2309.67 1847.08 M2307.95 1839.7 Q2307.95 1842.38 2309.62 1843.89 Q2311.31 1845.39 2314.34 1845.39 Q2317.35 1845.39 2319.04 1843.89 Q2320.76 1842.38 2320.76 1839.7 Q2320.76 1837.01 2319.04 1835.51 Q2317.35 1834 2314.34 1834 Q2311.31 1834 2309.62 1835.51 Q2307.95 1837.01 2307.95 1839.7 Z" fill="#000000" fill-rule="evenodd" fill-opacity="1" /><polyline clip-path="url(#clip313)" style="stroke:#000000; stroke-linecap:round; stroke-linejoin:round; stroke-width:2; stroke-opacity:0.1; fill:none" points="
  188.807,1751.15 2640.76,1751.15 
  "/>
<polyline clip-path="url(#clip313)" style="stroke:#000000; stroke-linecap:round; stroke-linejoin:round; stroke-width:2; stroke-opacity:0.1; fill:none" points="
  188.807,1336.77 2640.76,1336.77 
  "/>
<polyline clip-path="url(#clip313)" style="stroke:#000000; stroke-linecap:round; stroke-linejoin:round; stroke-width:2; stroke-opacity:0.1; fill:none" points="
  188.807,922.393 2640.76,922.393 
  "/>
<polyline clip-path="url(#clip313)" style="stroke:#000000; stroke-linecap:round; stroke-linejoin:round; stroke-width:2; stroke-opacity:0.1; fill:none" points="
  188.807,508.014 2640.76,508.014 
  "/>
<polyline clip-path="url(#clip313)" style="stroke:#000000; stroke-linecap:round; stroke-linejoin:round; stroke-width:2; stroke-opacity:0.1; fill:none" points="
  188.807,93.6351 2640.76,93.6351 
  "/>
<polyline clip-path="url(#clip310)" style="stroke:#000000; stroke-linecap:round; stroke-linejoin:round; stroke-width:4; stroke-opacity:1; fill:none" points="
  188.807,1800.78 188.807,47.2441 
  "/>
<polyline clip-path="url(#clip310)" style="stroke:#000000; stroke-linecap:round; stroke-linejoin:round; stroke-width:4; stroke-opacity:1; fill:none" points="
  188.807,1751.15 207.704,1751.15 
  "/>
<polyline clip-path="url(#clip310)" style="stroke:#000000; stroke-linecap:round; stroke-linejoin:round; stroke-width:4; stroke-opacity:1; fill:none" points="
  188.807,1336.77 207.704,1336.77 
  "/>
<polyline clip-path="url(#clip310)" style="stroke:#000000; stroke-linecap:round; stroke-linejoin:round; stroke-width:4; stroke-opacity:1; fill:none" points="
  188.807,922.393 207.704,922.393 
  "/>
<polyline clip-path="url(#clip310)" style="stroke:#000000; stroke-linecap:round; stroke-linejoin:round; stroke-width:4; stroke-opacity:1; fill:none" points="
  188.807,508.014 207.704,508.014 
  "/>
<polyline clip-path="url(#clip310)" style="stroke:#000000; stroke-linecap:round; stroke-linejoin:round; stroke-width:4; stroke-opacity:1; fill:none" points="
  188.807,93.6351 207.704,93.6351 
  "/>
<path clip-path="url(#clip310)" d="M51.9595 1764.5 L59.5984 1764.5 L59.5984 1738.13 L51.2882 1739.8 L51.2882 1735.54 L59.5521 1733.87 L64.228 1733.87 L64.228 1764.5 L71.8668 1764.5 L71.8668 1768.43 L51.9595 1768.43 L51.9595 1764.5 Z" fill="#000000" fill-rule="evenodd" fill-opacity="1" /><path clip-path="url(#clip310)" d="M81.3112 1762.55 L86.1954 1762.55 L86.1954 1768.43 L81.3112 1768.43 L81.3112 1762.55 Z" fill="#000000" fill-rule="evenodd" fill-opacity="1" /><path clip-path="url(#clip310)" d="M106.381 1736.95 Q102.769 1736.95 100.941 1740.51 Q99.1352 1744.06 99.1352 1751.19 Q99.1352 1758.29 100.941 1761.86 Q102.769 1765.4 106.381 1765.4 Q110.015 1765.4 111.82 1761.86 Q113.649 1758.29 113.649 1751.19 Q113.649 1744.06 111.82 1740.51 Q110.015 1736.95 106.381 1736.95 M106.381 1733.25 Q112.191 1733.25 115.246 1737.85 Q118.325 1742.44 118.325 1751.19 Q118.325 1759.91 115.246 1764.52 Q112.191 1769.1 106.381 1769.1 Q100.57 1769.1 97.4917 1764.52 Q94.4361 1759.91 94.4361 1751.19 Q94.4361 1742.44 97.4917 1737.85 Q100.57 1733.25 106.381 1733.25 Z" fill="#000000" fill-rule="evenodd" fill-opacity="1" /><path clip-path="url(#clip310)" d="M136.542 1736.95 Q132.931 1736.95 131.103 1740.51 Q129.297 1744.06 129.297 1751.19 Q129.297 1758.29 131.103 1761.86 Q132.931 1765.4 136.542 1765.4 Q140.177 1765.4 141.982 1761.86 Q143.811 1758.29 143.811 1751.19 Q143.811 1744.06 141.982 1740.51 Q140.177 1736.95 136.542 1736.95 M136.542 1733.25 Q142.353 1733.25 145.408 1737.85 Q148.487 1742.44 148.487 1751.19 Q148.487 1759.91 145.408 1764.52 Q142.353 1769.1 136.542 1769.1 Q130.732 1769.1 127.654 1764.52 Q124.598 1759.91 124.598 1751.19 Q124.598 1742.44 127.654 1737.85 Q130.732 1733.25 136.542 1733.25 Z" fill="#000000" fill-rule="evenodd" fill-opacity="1" /><path clip-path="url(#clip310)" d="M52.9549 1350.12 L60.5937 1350.12 L60.5937 1323.75 L52.2836 1325.42 L52.2836 1321.16 L60.5474 1319.49 L65.2233 1319.49 L65.2233 1350.12 L72.8622 1350.12 L72.8622 1354.05 L52.9549 1354.05 L52.9549 1350.12 Z" fill="#000000" fill-rule="evenodd" fill-opacity="1" /><path clip-path="url(#clip310)" d="M82.3066 1348.17 L87.1908 1348.17 L87.1908 1354.05 L82.3066 1354.05 L82.3066 1348.17 Z" fill="#000000" fill-rule="evenodd" fill-opacity="1" /><path clip-path="url(#clip310)" d="M101.404 1350.12 L117.723 1350.12 L117.723 1354.05 L95.7787 1354.05 L95.7787 1350.12 Q98.4408 1347.36 103.024 1342.73 Q107.631 1338.08 108.811 1336.74 Q111.056 1334.21 111.936 1332.48 Q112.839 1330.72 112.839 1329.03 Q112.839 1326.27 110.894 1324.54 Q108.973 1322.8 105.871 1322.8 Q103.672 1322.8 101.219 1323.57 Q98.788 1324.33 96.0102 1325.88 L96.0102 1321.16 Q98.8343 1320.02 101.288 1319.45 Q103.742 1318.87 105.779 1318.87 Q111.149 1318.87 114.343 1321.55 Q117.538 1324.24 117.538 1328.73 Q117.538 1330.86 116.728 1332.78 Q115.941 1334.68 113.834 1337.27 Q113.255 1337.94 110.154 1341.16 Q107.052 1344.35 101.404 1350.12 Z" fill="#000000" fill-rule="evenodd" fill-opacity="1" /><path clip-path="url(#clip310)" d="M127.584 1319.49 L145.94 1319.49 L145.94 1323.43 L131.866 1323.43 L131.866 1331.9 Q132.885 1331.55 133.904 1331.39 Q134.922 1331.2 135.941 1331.2 Q141.728 1331.2 145.107 1334.38 Q148.487 1337.55 148.487 1342.96 Q148.487 1348.54 145.015 1351.64 Q141.542 1354.72 135.223 1354.72 Q133.047 1354.72 130.779 1354.35 Q128.533 1353.98 126.126 1353.24 L126.126 1348.54 Q128.209 1349.68 130.431 1350.23 Q132.654 1350.79 135.13 1350.79 Q139.135 1350.79 141.473 1348.68 Q143.811 1346.58 143.811 1342.96 Q143.811 1339.35 141.473 1337.25 Q139.135 1335.14 135.13 1335.14 Q133.255 1335.14 131.38 1335.56 Q129.529 1335.97 127.584 1336.85 L127.584 1319.49 Z" fill="#000000" fill-rule="evenodd" fill-opacity="1" /><path clip-path="url(#clip310)" d="M51.9595 935.738 L59.5984 935.738 L59.5984 909.372 L51.2882 911.039 L51.2882 906.78 L59.5521 905.113 L64.228 905.113 L64.228 935.738 L71.8668 935.738 L71.8668 939.673 L51.9595 939.673 L51.9595 935.738 Z" fill="#000000" fill-rule="evenodd" fill-opacity="1" /><path clip-path="url(#clip310)" d="M81.3112 933.793 L86.1954 933.793 L86.1954 939.673 L81.3112 939.673 L81.3112 933.793 Z" fill="#000000" fill-rule="evenodd" fill-opacity="1" /><path clip-path="url(#clip310)" d="M96.4269 905.113 L114.783 905.113 L114.783 909.048 L100.709 909.048 L100.709 917.52 Q101.728 917.173 102.746 917.011 Q103.765 916.826 104.783 916.826 Q110.57 916.826 113.95 919.997 Q117.33 923.168 117.33 928.585 Q117.33 934.164 113.857 937.266 Q110.385 940.344 104.066 940.344 Q101.89 940.344 99.6213 939.974 Q97.3759 939.604 94.9685 938.863 L94.9685 934.164 Q97.0519 935.298 99.2741 935.854 Q101.496 936.409 103.973 936.409 Q107.978 936.409 110.316 934.303 Q112.654 932.196 112.654 928.585 Q112.654 924.974 110.316 922.868 Q107.978 920.761 103.973 920.761 Q102.098 920.761 100.223 921.178 Q98.3713 921.594 96.4269 922.474 L96.4269 905.113 Z" fill="#000000" fill-rule="evenodd" fill-opacity="1" /><path clip-path="url(#clip310)" d="M136.542 908.192 Q132.931 908.192 131.103 911.757 Q129.297 915.298 129.297 922.428 Q129.297 929.534 131.103 933.099 Q132.931 936.641 136.542 936.641 Q140.177 936.641 141.982 933.099 Q143.811 929.534 143.811 922.428 Q143.811 915.298 141.982 911.757 Q140.177 908.192 136.542 908.192 M136.542 904.488 Q142.353 904.488 145.408 909.094 Q148.487 913.678 148.487 922.428 Q148.487 931.155 145.408 935.761 Q142.353 940.344 136.542 940.344 Q130.732 940.344 127.654 935.761 Q124.598 931.155 124.598 922.428 Q124.598 913.678 127.654 909.094 Q130.732 904.488 136.542 904.488 Z" fill="#000000" fill-rule="evenodd" fill-opacity="1" /><path clip-path="url(#clip310)" d="M52.9549 521.359 L60.5937 521.359 L60.5937 494.993 L52.2836 496.66 L52.2836 492.401 L60.5474 490.734 L65.2233 490.734 L65.2233 521.359 L72.8622 521.359 L72.8622 525.294 L52.9549 525.294 L52.9549 521.359 Z" fill="#000000" fill-rule="evenodd" fill-opacity="1" /><path clip-path="url(#clip310)" d="M82.3066 519.414 L87.1908 519.414 L87.1908 525.294 L82.3066 525.294 L82.3066 519.414 Z" fill="#000000" fill-rule="evenodd" fill-opacity="1" /><path clip-path="url(#clip310)" d="M96.1954 490.734 L118.417 490.734 L118.417 492.725 L105.871 525.294 L100.987 525.294 L112.793 494.669 L96.1954 494.669 L96.1954 490.734 Z" fill="#000000" fill-rule="evenodd" fill-opacity="1" /><path clip-path="url(#clip310)" d="M127.584 490.734 L145.94 490.734 L145.94 494.669 L131.866 494.669 L131.866 503.141 Q132.885 502.794 133.904 502.632 Q134.922 502.447 135.941 502.447 Q141.728 502.447 145.107 505.618 Q148.487 508.79 148.487 514.206 Q148.487 519.785 145.015 522.887 Q141.542 525.965 135.223 525.965 Q133.047 525.965 130.779 525.595 Q128.533 525.225 126.126 524.484 L126.126 519.785 Q128.209 520.919 130.431 521.475 Q132.654 522.03 135.13 522.03 Q139.135 522.03 141.473 519.924 Q143.811 517.817 143.811 514.206 Q143.811 510.595 141.473 508.489 Q139.135 506.382 135.13 506.382 Q133.255 506.382 131.38 506.799 Q129.529 507.215 127.584 508.095 L127.584 490.734 Z" fill="#000000" fill-rule="evenodd" fill-opacity="1" /><path clip-path="url(#clip310)" d="M55.1771 106.98 L71.4965 106.98 L71.4965 110.915 L49.5521 110.915 L49.5521 106.98 Q52.2141 104.225 56.7975 99.5957 Q61.4039 94.943 62.5845 93.6004 Q64.8298 91.0773 65.7094 89.3412 Q66.6122 87.5819 66.6122 85.8921 Q66.6122 83.1375 64.6678 81.4014 Q62.7465 79.6653 59.6447 79.6653 Q57.4456 79.6653 54.9919 80.4292 Q52.5614 81.1931 49.7836 82.744 L49.7836 78.0218 Q52.6077 76.8875 55.0614 76.3088 Q57.515 75.7301 59.5521 75.7301 Q64.9224 75.7301 68.1168 78.4153 Q71.3113 81.1005 71.3113 85.5912 Q71.3113 87.7208 70.5011 89.6421 Q69.7141 91.5402 67.6076 94.1328 Q67.0289 94.8041 63.927 98.0217 Q60.8252 101.216 55.1771 106.98 Z" fill="#000000" fill-rule="evenodd" fill-opacity="1" /><path clip-path="url(#clip310)" d="M81.3112 105.036 L86.1954 105.036 L86.1954 110.915 L81.3112 110.915 L81.3112 105.036 Z" fill="#000000" fill-rule="evenodd" fill-opacity="1" /><path clip-path="url(#clip310)" d="M106.381 79.4338 Q102.769 79.4338 100.941 82.9986 Q99.1352 86.5402 99.1352 93.6698 Q99.1352 100.776 100.941 104.341 Q102.769 107.883 106.381 107.883 Q110.015 107.883 111.82 104.341 Q113.649 100.776 113.649 93.6698 Q113.649 86.5402 111.82 82.9986 Q110.015 79.4338 106.381 79.4338 M106.381 75.7301 Q112.191 75.7301 115.246 80.3366 Q118.325 84.9199 118.325 93.6698 Q118.325 102.397 115.246 107.003 Q112.191 111.586 106.381 111.586 Q100.57 111.586 97.4917 107.003 Q94.4361 102.397 94.4361 93.6698 Q94.4361 84.9199 97.4917 80.3366 Q100.57 75.7301 106.381 75.7301 Z" fill="#000000" fill-rule="evenodd" fill-opacity="1" /><path clip-path="url(#clip310)" d="M136.542 79.4338 Q132.931 79.4338 131.103 82.9986 Q129.297 86.5402 129.297 93.6698 Q129.297 100.776 131.103 104.341 Q132.931 107.883 136.542 107.883 Q140.177 107.883 141.982 104.341 Q143.811 100.776 143.811 93.6698 Q143.811 86.5402 141.982 82.9986 Q140.177 79.4338 136.542 79.4338 M136.542 75.7301 Q142.353 75.7301 145.408 80.3366 Q148.487 84.9199 148.487 93.6698 Q148.487 102.397 145.408 107.003 Q142.353 111.586 136.542 111.586 Q130.732 111.586 127.654 107.003 Q124.598 102.397 124.598 93.6698 Q124.598 84.9199 127.654 80.3366 Q130.732 75.7301 136.542 75.7301 Z" fill="#000000" fill-rule="evenodd" fill-opacity="1" /><circle clip-path="url(#clip313)" cx="258.202" cy="1751.15" r="14.4" fill="#009af9" fill-rule="evenodd" fill-opacity="1" stroke="#000000" stroke-opacity="1" stroke-width="3.84"/>
<circle clip-path="url(#clip313)" cx="515.219" cy="922.393" r="14.4" fill="#009af9" fill-rule="evenodd" fill-opacity="1" stroke="#000000" stroke-opacity="1" stroke-width="3.84"/>
<circle clip-path="url(#clip313)" cx="772.237" cy="508.014" r="14.4" fill="#009af9" fill-rule="evenodd" fill-opacity="1" stroke="#000000" stroke-opacity="1" stroke-width="3.84"/>
<circle clip-path="url(#clip313)" cx="1029.25" cy="300.825" r="14.4" fill="#009af9" fill-rule="evenodd" fill-opacity="1" stroke="#000000" stroke-opacity="1" stroke-width="3.84"/>
<circle clip-path="url(#clip313)" cx="1286.27" cy="197.23" r="14.4" fill="#009af9" fill-rule="evenodd" fill-opacity="1" stroke="#000000" stroke-opacity="1" stroke-width="3.84"/>
<circle clip-path="url(#clip313)" cx="1543.29" cy="145.432" r="14.4" fill="#009af9" fill-rule="evenodd" fill-opacity="1" stroke="#000000" stroke-opacity="1" stroke-width="3.84"/>
<circle clip-path="url(#clip313)" cx="1800.31" cy="119.534" r="14.4" fill="#009af9" fill-rule="evenodd" fill-opacity="1" stroke="#000000" stroke-opacity="1" stroke-width="3.84"/>
<circle clip-path="url(#clip313)" cx="2057.33" cy="106.584" r="14.4" fill="#009af9" fill-rule="evenodd" fill-opacity="1" stroke="#000000" stroke-opacity="1" stroke-width="3.84"/>
<circle clip-path="url(#clip313)" cx="2314.34" cy="100.11" r="14.4" fill="#009af9" fill-rule="evenodd" fill-opacity="1" stroke="#000000" stroke-opacity="1" stroke-width="3.84"/>
<circle clip-path="url(#clip313)" cx="2571.36" cy="96.8724" r="14.4" fill="#009af9" fill-rule="evenodd" fill-opacity="1" stroke="#000000" stroke-opacity="1" stroke-width="3.84"/>
<path clip-path="url(#clip310)" d="
M270.538 222.035 L721.919 222.035 L721.919 105.695 L270.538 105.695  Z
  " fill="#ffffff" fill-rule="evenodd" fill-opacity="1"/>
<polyline clip-path="url(#clip310)" style="stroke:#000000; stroke-linecap:round; stroke-linejoin:round; stroke-width:4; stroke-opacity:1; fill:none" points="
  270.538,222.035 721.919,222.035 721.919,105.695 270.538,105.695 270.538,222.035 
  "/>
<circle clip-path="url(#clip310)" cx="379.514" cy="163.865" r="23.04" fill="#009af9" fill-rule="evenodd" fill-opacity="1" stroke="#000000" stroke-opacity="1" stroke-width="6.144"/>
<path clip-path="url(#clip310)" d="M533.718 181.115 L529.596 193.06 L489.825 193.06 Q489.286 193.06 489.075 193.037 Q488.864 193.013 488.7 192.896 Q488.536 192.779 488.536 192.521 Q488.536 192.311 488.958 191.772 L505.986 170.715 L488.489 146.637 Q488.489 145.536 488.677 145.325 Q488.864 145.091 489.825 145.091 L529.596 145.091 L533.718 156.31 L532.524 156.31 Q531.985 154.858 531.118 153.64 Q530.275 152.399 529.291 151.509 Q528.331 150.619 527.066 149.916 Q525.825 149.19 524.654 148.745 Q523.506 148.276 522.077 147.948 Q520.648 147.597 519.501 147.433 Q518.376 147.246 516.971 147.152 Q515.566 147.058 514.676 147.035 Q513.786 147.012 512.661 147.012 L493.666 147.012 L509.242 168.396 Q509.593 168.935 509.593 169.075 Q509.593 169.286 509.148 169.848 L492.518 190.413 L512.896 190.413 Q519.454 190.413 524.021 189.031 Q527.113 187.977 529.362 185.893 Q531.634 183.808 532.524 181.115 L533.718 181.115 Z" fill="#000000" fill-rule="evenodd" fill-opacity="1" /><path clip-path="url(#clip310)" d="M566.679 169.075 Q566.679 160.971 569.7 154.436 Q570.988 151.696 572.792 149.401 Q574.595 147.105 575.79 146.098 Q576.985 145.091 577.312 145.091 Q577.781 145.091 577.804 145.559 Q577.804 145.794 577.172 146.379 Q569.443 154.249 569.466 169.075 Q569.466 183.949 576.985 191.514 Q577.804 192.334 577.804 192.592 Q577.804 193.06 577.312 193.06 Q576.985 193.06 575.837 192.1 Q574.689 191.139 572.909 188.938 Q571.129 186.736 569.841 184.042 Q566.679 177.508 566.679 169.075 Z" fill="#000000" fill-rule="evenodd" fill-opacity="1" /><path clip-path="url(#clip310)" d="M584.139 153.687 L584.139 152.188 Q589.901 152.188 592.876 149.12 Q593.695 149.12 593.836 149.307 Q593.976 149.494 593.976 150.361 L593.976 177.273 Q593.976 178.702 594.679 179.147 Q595.382 179.592 598.45 179.592 L599.973 179.592 L599.973 181.068 Q598.286 180.927 592.196 180.927 Q586.107 180.927 584.444 181.068 L584.444 179.592 L585.966 179.592 Q588.988 179.592 589.714 179.171 Q590.44 178.726 590.44 177.273 L590.44 152.422 Q587.934 153.687 584.139 153.687 Z" fill="#000000" fill-rule="evenodd" fill-opacity="1" /><path clip-path="url(#clip310)" d="M607.895 192.381 Q607.895 192.147 608.083 191.631 L625.017 146.379 Q625.017 146.332 625.134 146.075 Q625.251 145.817 625.322 145.653 Q625.392 145.466 625.532 145.325 Q625.696 145.185 625.884 145.185 Q626.352 145.185 626.352 145.77 Q626.352 145.817 626.212 146.379 L609.23 191.678 Q608.949 192.498 608.762 192.732 Q608.598 192.966 608.317 192.966 Q607.895 192.966 607.895 192.381 Z" fill="#000000" fill-rule="evenodd" fill-opacity="1" /><path clip-path="url(#clip310)" d="M631.652 181.068 Q631.652 180.201 631.722 179.943 Q631.816 179.686 632.19 179.288 L641.395 169.029 Q646.431 163.36 646.431 158.418 Q646.431 155.209 644.745 152.914 Q643.082 150.619 640.013 150.619 Q637.905 150.619 636.125 151.907 Q634.345 153.195 633.525 155.49 Q633.666 155.444 634.158 155.444 Q635.352 155.444 636.008 156.193 Q636.687 156.943 636.687 157.95 Q636.687 159.238 635.844 159.87 Q635.024 160.479 634.205 160.479 Q633.877 160.479 633.432 160.409 Q633.01 160.339 632.331 159.683 Q631.652 159.004 631.652 157.809 Q631.652 154.46 634.181 151.79 Q636.734 149.12 640.622 149.12 Q645.026 149.12 647.907 151.743 Q650.811 154.343 650.811 158.418 Q650.811 159.847 650.366 161.159 Q649.944 162.447 649.359 163.454 Q648.797 164.461 647.251 166.077 Q645.705 167.694 644.464 168.841 Q643.222 169.989 640.435 172.425 L635.352 177.367 L643.995 177.367 Q648.211 177.367 648.539 176.992 Q649.008 176.313 649.593 172.729 L650.811 172.729 L649.453 181.068 L631.652 181.068 Z" fill="#000000" fill-rule="evenodd" fill-opacity="1" /><path clip-path="url(#clip310)" d="M655.408 192.592 Q655.408 192.357 656.017 191.772 Q663.746 183.902 663.746 169.075 Q663.746 154.202 656.321 146.684 Q655.408 145.817 655.408 145.559 Q655.408 145.091 655.876 145.091 Q656.204 145.091 657.352 146.051 Q658.523 147.012 660.28 149.213 Q662.06 151.415 663.371 154.109 Q666.533 160.643 666.533 169.075 Q666.533 177.18 663.512 183.715 Q662.224 186.455 660.42 188.75 Q658.617 191.046 657.422 192.053 Q656.228 193.06 655.876 193.06 Q655.408 193.06 655.408 192.592 Z" fill="#000000" fill-rule="evenodd" fill-opacity="1" /><path clip-path="url(#clip310)" d="M689.735 144.676 Q689.735 144.807 689.587 145.316 Q689.439 145.824 689.079 146.611 Q688.734 147.398 688.259 148.119 Q687.783 148.824 686.996 149.349 Q686.226 149.857 685.341 149.857 Q684.16 149.857 683.373 149.07 Q682.586 148.283 682.586 147.103 Q682.586 146.447 682.93 145.545 Q685.111 139.725 685.111 137.725 Q685.111 135.38 683.291 135.38 Q682.389 135.38 681.537 135.724 Q680.701 136.052 680.127 136.511 Q679.553 136.97 679.028 137.61 Q678.52 138.233 678.258 138.659 Q678.012 139.069 677.815 139.479 L677.389 141.151 Q677.29 141.61 676.815 143.397 L676.077 146.431 Q675.552 148.693 675.437 148.906 Q675.274 149.365 674.913 149.611 Q674.552 149.857 674.191 149.857 Q673.782 149.857 673.503 149.611 Q673.224 149.365 673.224 148.939 Q673.224 148.874 673.273 148.628 Q673.322 148.382 673.404 148.037 Q673.486 147.693 673.519 147.496 L675.47 139.741 Q675.831 138.331 675.913 137.889 Q676.011 137.429 676.011 136.921 Q676.011 135.38 674.962 135.38 Q674.109 135.38 673.552 136.396 Q672.995 137.413 672.519 139.381 Q672.371 139.922 672.273 140.036 Q672.191 140.151 671.945 140.151 Q671.535 140.135 671.535 139.807 Q671.535 139.725 671.666 139.184 Q671.798 138.643 672.044 137.872 Q672.306 137.085 672.552 136.56 Q672.765 136.167 672.88 135.987 Q673.011 135.79 673.322 135.413 Q673.65 135.019 674.077 134.839 Q674.519 134.642 675.06 134.642 Q676.274 134.642 677.159 135.429 Q678.044 136.2 678.159 137.561 Q680.34 134.642 683.389 134.642 Q685.193 134.642 686.226 135.593 Q687.259 136.544 687.259 138.233 Q687.259 138.626 687.177 139.135 Q687.111 139.626 686.947 140.249 Q686.8 140.873 686.669 141.348 Q686.537 141.823 686.275 142.594 Q686.013 143.348 685.898 143.676 Q685.783 144.004 685.504 144.775 Q685.242 145.529 685.209 145.611 Q684.603 147.136 684.603 148.005 Q684.603 148.579 684.783 148.841 Q684.98 149.103 685.406 149.103 Q686.554 149.103 687.406 147.972 Q688.275 146.824 688.833 144.955 Q688.964 144.545 689.03 144.447 Q689.112 144.348 689.341 144.348 Q689.735 144.348 689.735 144.676 Z" fill="#000000" fill-rule="evenodd" fill-opacity="1" /></svg>
