<?xml version="1.0" encoding="utf-8"?>
<svg xmlns="http://www.w3.org/2000/svg" xmlns:xlink="http://www.w3.org/1999/xlink" width="672" height="480" viewBox="0 0 2688 1920">
<defs>
  <clipPath id="clip550">
    <rect x="0" y="0" width="2688" height="1920"/>
  </clipPath>
</defs>
<path clip-path="url(#clip550)" d="
M0 1920 L2688 1920 L2688 0 L0 0  Z
  " fill="#ffffff" fill-rule="evenodd" fill-opacity="1"/>
<defs>
  <clipPath id="clip551">
    <rect x="537" y="0" width="1883" height="1883"/>
  </clipPath>
</defs>
<defs>
  <clipPath id="clip552">
    <rect x="159" y="47" width="2483" height="1755"/>
  </clipPath>
</defs>
<path clip-path="url(#clip550)" d="
M211.909 1800.78 L2640.76 1800.78 L2640.76 47.2441 L211.909 47.2441  Z
  " fill="#ffffff" fill-rule="evenodd" fill-opacity="1"/>
<defs>
  <clipPath id="clip553">
    <rect x="211" y="47" width="2430" height="1755"/>
  </clipPath>
</defs>
<polyline clip-path="url(#clip553)" style="stroke:#000000; stroke-linecap:round; stroke-linejoin:round; stroke-width:2; stroke-opacity:0.1; fill:none" points="
  280.649,1800.78 280.649,47.2441 
  "/>
<polyline clip-path="url(#clip553)" style="stroke:#000000; stroke-linecap:round; stroke-linejoin:round; stroke-width:2; stroke-opacity:0.1; fill:none" points="
  789.842,1800.78 789.842,47.2441 
  "/>
<polyline clip-path="url(#clip553)" style="stroke:#000000; stroke-linecap:round; stroke-linejoin:round; stroke-width:2; stroke-opacity:0.1; fill:none" points="
  1299.03,1800.78 1299.03,47.2441 
  "/>
<polyline clip-path="url(#clip553)" style="stroke:#000000; stroke-linecap:round; stroke-linejoin:round; stroke-width:2; stroke-opacity:0.1; fill:none" points="
  1808.23,1800.78 1808.23,47.2441 
  "/>
<polyline clip-path="url(#clip553)" style="stroke:#000000; stroke-linecap:round; stroke-linejoin:round; stroke-width:2; stroke-opacity:0.1; fill:none" points="
  2317.42,1800.78 2317.42,47.2441 
  "/>
<polyline clip-path="url(#clip550)" style="stroke:#000000; stroke-linecap:round; stroke-linejoin:round; stroke-width:4; stroke-opacity:1; fill:none" points="
  211.909,1800.78 2640.76,1800.78 
  "/>
<polyline clip-path="url(#clip550)" style="stroke:#000000; stroke-linecap:round; stroke-linejoin:round; stroke-width:4; stroke-opacity:1; fill:none" points="
  280.649,1800.78 280.649,1781.88 
  "/>
<polyline clip-path="url(#clip550)" style="stroke:#000000; stroke-linecap:round; stroke-linejoin:round; stroke-width:4; stroke-opacity:1; fill:none" points="
  789.842,1800.78 789.842,1781.88 
  "/>
<polyline clip-path="url(#clip550)" style="stroke:#000000; stroke-linecap:round; stroke-linejoin:round; stroke-width:4; stroke-opacity:1; fill:none" points="
  1299.03,1800.78 1299.03,1781.88 
  "/>
<polyline clip-path="url(#clip550)" style="stroke:#000000; stroke-linecap:round; stroke-linejoin:round; stroke-width:4; stroke-opacity:1; fill:none" points="
  1808.23,1800.78 1808.23,1781.88 
  "/>
<polyline clip-path="url(#clip550)" style="stroke:#000000; stroke-linecap:round; stroke-linejoin:round; stroke-width:4; stroke-opacity:1; fill:none" points="
  2317.42,1800.78 2317.42,1781.88 
  "/>
<path clip-path="url(#clip550)" d="M280.649 1834 Q277.038 1834 275.21 1837.57 Q273.404 1841.11 273.404 1848.24 Q273.404 1855.34 275.21 1858.91 Q277.038 1862.45 280.649 1862.45 Q284.284 1862.45 286.089 1858.91 Q287.918 1855.34 287.918 1848.24 Q287.918 1841.11 286.089 1837.57 Q284.284 1834 280.649 1834 M280.649 1830.3 Q286.46 1830.3 289.515 1834.9 Q292.594 1839.49 292.594 1848.24 Q292.594 1856.96 289.515 1861.57 Q286.46 1866.15 280.649 1866.15 Q274.839 1866.15 271.761 1861.57 Q268.705 1856.96 268.705 1848.24 Q268.705 1839.49 271.761 1834.9 Q274.839 1830.3 280.649 1830.3 Z" fill="#000000" fill-rule="evenodd" fill-opacity="1" /><path clip-path="url(#clip550)" d="M784.495 1861.55 L800.814 1861.55 L800.814 1865.48 L778.87 1865.48 L778.87 1861.55 Q781.532 1858.79 786.115 1854.16 Q790.721 1849.51 791.902 1848.17 Q794.147 1845.65 795.027 1843.91 Q795.93 1842.15 795.93 1840.46 Q795.93 1837.71 793.985 1835.97 Q792.064 1834.23 788.962 1834.23 Q786.763 1834.23 784.309 1835 Q781.879 1835.76 779.101 1837.31 L779.101 1832.59 Q781.925 1831.46 784.379 1830.88 Q786.833 1830.3 788.87 1830.3 Q794.24 1830.3 797.434 1832.98 Q800.629 1835.67 800.629 1840.16 Q800.629 1842.29 799.819 1844.21 Q799.032 1846.11 796.925 1848.7 Q796.346 1849.37 793.245 1852.59 Q790.143 1855.78 784.495 1861.55 Z" fill="#000000" fill-rule="evenodd" fill-opacity="1" /><path clip-path="url(#clip550)" d="M1302.04 1835 L1290.24 1853.45 L1302.04 1853.45 L1302.04 1835 M1300.82 1830.92 L1306.7 1830.92 L1306.7 1853.45 L1311.63 1853.45 L1311.63 1857.34 L1306.7 1857.34 L1306.7 1865.48 L1302.04 1865.48 L1302.04 1857.34 L1286.44 1857.34 L1286.44 1852.82 L1300.82 1830.92 Z" fill="#000000" fill-rule="evenodd" fill-opacity="1" /><path clip-path="url(#clip550)" d="M1808.63 1846.34 Q1805.48 1846.34 1803.63 1848.49 Q1801.8 1850.65 1801.8 1854.4 Q1801.8 1858.12 1803.63 1860.3 Q1805.48 1862.45 1808.63 1862.45 Q1811.78 1862.45 1813.61 1860.3 Q1815.46 1858.12 1815.46 1854.4 Q1815.46 1850.65 1813.61 1848.49 Q1811.78 1846.34 1808.63 1846.34 M1817.91 1831.69 L1817.91 1835.95 Q1816.15 1835.11 1814.35 1834.67 Q1812.57 1834.23 1810.81 1834.23 Q1806.18 1834.23 1803.72 1837.36 Q1801.29 1840.48 1800.95 1846.8 Q1802.31 1844.79 1804.37 1843.72 Q1806.43 1842.64 1808.91 1842.64 Q1814.12 1842.64 1817.13 1845.81 Q1820.16 1848.96 1820.16 1854.4 Q1820.16 1859.72 1817.01 1862.94 Q1813.86 1866.15 1808.63 1866.15 Q1802.64 1866.15 1799.46 1861.57 Q1796.29 1856.96 1796.29 1848.24 Q1796.29 1840.04 1800.18 1835.18 Q1804.07 1830.3 1810.62 1830.3 Q1812.38 1830.3 1814.16 1830.65 Q1815.97 1830.99 1817.91 1831.69 Z" fill="#000000" fill-rule="evenodd" fill-opacity="1" /><path clip-path="url(#clip550)" d="M2317.42 1849.07 Q2314.09 1849.07 2312.16 1850.85 Q2310.27 1852.64 2310.27 1855.76 Q2310.27 1858.89 2312.16 1860.67 Q2314.09 1862.45 2317.42 1862.45 Q2320.75 1862.45 2322.67 1860.67 Q2324.59 1858.86 2324.59 1855.76 Q2324.59 1852.64 2322.67 1850.85 Q2320.78 1849.07 2317.42 1849.07 M2312.74 1847.08 Q2309.73 1846.34 2308.04 1844.28 Q2306.38 1842.22 2306.38 1839.26 Q2306.38 1835.11 2309.32 1832.71 Q2312.28 1830.3 2317.42 1830.3 Q2322.58 1830.3 2325.52 1832.71 Q2328.46 1835.11 2328.46 1839.26 Q2328.46 1842.22 2326.77 1844.28 Q2325.1 1846.34 2322.12 1847.08 Q2325.5 1847.87 2327.37 1850.16 Q2329.27 1852.45 2329.27 1855.76 Q2329.27 1860.78 2326.19 1863.47 Q2323.14 1866.15 2317.42 1866.15 Q2311.7 1866.15 2308.62 1863.47 Q2305.57 1860.78 2305.57 1855.76 Q2305.57 1852.45 2307.47 1850.16 Q2309.36 1847.87 2312.74 1847.08 M2311.03 1839.7 Q2311.03 1842.38 2312.7 1843.89 Q2314.39 1845.39 2317.42 1845.39 Q2320.43 1845.39 2322.12 1843.89 Q2323.83 1842.38 2323.83 1839.7 Q2323.83 1837.01 2322.12 1835.51 Q2320.43 1834 2317.42 1834 Q2314.39 1834 2312.7 1835.51 Q2311.03 1837.01 2311.03 1839.7 Z" fill="#000000" fill-rule="evenodd" fill-opacity="1" /><polyline clip-path="url(#clip553)" style="stroke:#000000; stroke-linecap:round; stroke-linejoin:round; stroke-width:2; stroke-opacity:0.1; fill:none" points="
  211.909,1618.68 2640.76,1618.68 
  "/>
<polyline clip-path="url(#clip553)" style="stroke:#000000; stroke-linecap:round; stroke-linejoin:round; stroke-width:2; stroke-opacity:0.1; fill:none" points="
  211.909,1295.58 2640.76,1295.58 
  "/>
<polyline clip-path="url(#clip553)" style="stroke:#000000; stroke-linecap:round; stroke-linejoin:round; stroke-width:2; stroke-opacity:0.1; fill:none" points="
  211.909,972.477 2640.76,972.477 
  "/>
<polyline clip-path="url(#clip553)" style="stroke:#000000; stroke-linecap:round; stroke-linejoin:round; stroke-width:2; stroke-opacity:0.1; fill:none" points="
  211.909,649.376 2640.76,649.376 
  "/>
<polyline clip-path="url(#clip553)" style="stroke:#000000; stroke-linecap:round; stroke-linejoin:round; stroke-width:2; stroke-opacity:0.1; fill:none" points="
  211.909,326.274 2640.76,326.274 
  "/>
<polyline clip-path="url(#clip550)" style="stroke:#000000; stroke-linecap:round; stroke-linejoin:round; stroke-width:4; stroke-opacity:1; fill:none" points="
  211.909,1800.78 211.909,47.2441 
  "/>
<polyline clip-path="url(#clip550)" style="stroke:#000000; stroke-linecap:round; stroke-linejoin:round; stroke-width:4; stroke-opacity:1; fill:none" points="
  211.909,1618.68 230.806,1618.68 
  "/>
<polyline clip-path="url(#clip550)" style="stroke:#000000; stroke-linecap:round; stroke-linejoin:round; stroke-width:4; stroke-opacity:1; fill:none" points="
  211.909,1295.58 230.806,1295.58 
  "/>
<polyline clip-path="url(#clip550)" style="stroke:#000000; stroke-linecap:round; stroke-linejoin:round; stroke-width:4; stroke-opacity:1; fill:none" points="
  211.909,972.477 230.806,972.477 
  "/>
<polyline clip-path="url(#clip550)" style="stroke:#000000; stroke-linecap:round; stroke-linejoin:round; stroke-width:4; stroke-opacity:1; fill:none" points="
  211.909,649.376 230.806,649.376 
  "/>
<polyline clip-path="url(#clip550)" style="stroke:#000000; stroke-linecap:round; stroke-linejoin:round; stroke-width:4; stroke-opacity:1; fill:none" points="
  211.909,326.274 230.806,326.274 
  "/>
<path clip-path="url(#clip550)" d="M49.5521 1619.13 L79.2279 1619.13 L79.2279 1623.07 L49.5521 1623.07 L49.5521 1619.13 Z" fill="#000000" fill-rule="evenodd" fill-opacity="1" /><path clip-path="url(#clip550)" d="M103.487 1617.33 Q106.843 1618.04 108.718 1620.31 Q110.617 1622.58 110.617 1625.91 Q110.617 1631.03 107.098 1633.83 Q103.58 1636.63 97.0982 1636.63 Q94.9223 1636.63 92.6075 1636.19 Q90.3158 1635.77 87.8621 1634.92 L87.8621 1630.4 Q89.8065 1631.54 92.1213 1632.12 Q94.4361 1632.7 96.9593 1632.7 Q101.357 1632.7 103.649 1630.96 Q105.964 1629.22 105.964 1625.91 Q105.964 1622.86 103.811 1621.14 Q101.681 1619.41 97.8621 1619.41 L93.8343 1619.41 L93.8343 1615.57 L98.0472 1615.57 Q101.496 1615.57 103.325 1614.2 Q105.154 1612.81 105.154 1610.22 Q105.154 1607.56 103.256 1606.14 Q101.381 1604.71 97.8621 1604.71 Q95.9408 1604.71 93.7417 1605.13 Q91.5426 1605.54 88.9038 1606.42 L88.9038 1602.26 Q91.5658 1601.52 93.8806 1601.14 Q96.2185 1600.77 98.2787 1600.77 Q103.603 1600.77 106.705 1603.2 Q109.806 1605.61 109.806 1609.73 Q109.806 1612.6 108.163 1614.59 Q106.519 1616.56 103.487 1617.33 Z" fill="#000000" fill-rule="evenodd" fill-opacity="1" /><path clip-path="url(#clip550)" d="M129.482 1604.48 Q125.871 1604.48 124.042 1608.04 Q122.237 1611.58 122.237 1618.71 Q122.237 1625.82 124.042 1629.39 Q125.871 1632.93 129.482 1632.93 Q133.116 1632.93 134.922 1629.39 Q136.751 1625.82 136.751 1618.71 Q136.751 1611.58 134.922 1608.04 Q133.116 1604.48 129.482 1604.48 M129.482 1600.77 Q135.292 1600.77 138.348 1605.38 Q141.427 1609.96 141.427 1618.71 Q141.427 1627.44 138.348 1632.05 Q135.292 1636.63 129.482 1636.63 Q123.672 1636.63 120.593 1632.05 Q117.538 1627.44 117.538 1618.71 Q117.538 1609.96 120.593 1605.38 Q123.672 1600.77 129.482 1600.77 Z" fill="#000000" fill-rule="evenodd" fill-opacity="1" /><path clip-path="url(#clip550)" d="M159.644 1604.48 Q156.033 1604.48 154.204 1608.04 Q152.399 1611.58 152.399 1618.71 Q152.399 1625.82 154.204 1629.39 Q156.033 1632.93 159.644 1632.93 Q163.278 1632.93 165.084 1629.39 Q166.913 1625.82 166.913 1618.71 Q166.913 1611.58 165.084 1608.04 Q163.278 1604.48 159.644 1604.48 M159.644 1600.77 Q165.454 1600.77 168.51 1605.38 Q171.589 1609.96 171.589 1618.71 Q171.589 1627.44 168.51 1632.05 Q165.454 1636.63 159.644 1636.63 Q153.834 1636.63 150.755 1632.05 Q147.7 1627.44 147.7 1618.71 Q147.7 1609.96 150.755 1605.38 Q153.834 1600.77 159.644 1600.77 Z" fill="#000000" fill-rule="evenodd" fill-opacity="1" /><path clip-path="url(#clip550)" d="M49.5521 1296.03 L79.2279 1296.03 L79.2279 1299.96 L49.5521 1299.96 L49.5521 1296.03 Z" fill="#000000" fill-rule="evenodd" fill-opacity="1" /><path clip-path="url(#clip550)" d="M93.3482 1308.92 L109.668 1308.92 L109.668 1312.86 L87.7232 1312.86 L87.7232 1308.92 Q90.3852 1306.17 94.9685 1301.54 Q99.575 1296.89 100.756 1295.54 Q103.001 1293.02 103.881 1291.28 Q104.783 1289.52 104.783 1287.84 Q104.783 1285.08 102.839 1283.34 Q100.918 1281.61 97.8158 1281.61 Q95.6167 1281.61 93.163 1282.37 Q90.7325 1283.14 87.9547 1284.69 L87.9547 1279.96 Q90.7788 1278.83 93.2324 1278.25 Q95.6861 1277.67 97.7232 1277.67 Q103.094 1277.67 106.288 1280.36 Q109.482 1283.04 109.482 1287.53 Q109.482 1289.66 108.672 1291.59 Q107.885 1293.48 105.779 1296.08 Q105.2 1296.75 102.098 1299.96 Q98.9963 1303.16 93.3482 1308.92 Z" fill="#000000" fill-rule="evenodd" fill-opacity="1" /><path clip-path="url(#clip550)" d="M129.482 1281.38 Q125.871 1281.38 124.042 1284.94 Q122.237 1288.48 122.237 1295.61 Q122.237 1302.72 124.042 1306.28 Q125.871 1309.83 129.482 1309.83 Q133.116 1309.83 134.922 1306.28 Q136.751 1302.72 136.751 1295.61 Q136.751 1288.48 134.922 1284.94 Q133.116 1281.38 129.482 1281.38 M129.482 1277.67 Q135.292 1277.67 138.348 1282.28 Q141.427 1286.86 141.427 1295.61 Q141.427 1304.34 138.348 1308.95 Q135.292 1313.53 129.482 1313.53 Q123.672 1313.53 120.593 1308.95 Q117.538 1304.34 117.538 1295.61 Q117.538 1286.86 120.593 1282.28 Q123.672 1277.67 129.482 1277.67 Z" fill="#000000" fill-rule="evenodd" fill-opacity="1" /><path clip-path="url(#clip550)" d="M159.644 1281.38 Q156.033 1281.38 154.204 1284.94 Q152.399 1288.48 152.399 1295.61 Q152.399 1302.72 154.204 1306.28 Q156.033 1309.83 159.644 1309.83 Q163.278 1309.83 165.084 1306.28 Q166.913 1302.72 166.913 1295.61 Q166.913 1288.48 165.084 1284.94 Q163.278 1281.38 159.644 1281.38 M159.644 1277.67 Q165.454 1277.67 168.51 1282.28 Q171.589 1286.86 171.589 1295.61 Q171.589 1304.34 168.51 1308.95 Q165.454 1313.53 159.644 1313.53 Q153.834 1313.53 150.755 1308.95 Q147.7 1304.34 147.7 1295.61 Q147.7 1286.86 150.755 1282.28 Q153.834 1277.67 159.644 1277.67 Z" fill="#000000" fill-rule="evenodd" fill-opacity="1" /><path clip-path="url(#clip550)" d="M49.5521 972.928 L79.2279 972.928 L79.2279 976.863 L49.5521 976.863 L49.5521 972.928 Z" fill="#000000" fill-rule="evenodd" fill-opacity="1" /><path clip-path="url(#clip550)" d="M90.1306 985.822 L97.7695 985.822 L97.7695 959.456 L89.4593 961.123 L89.4593 956.864 L97.7232 955.197 L102.399 955.197 L102.399 985.822 L110.038 985.822 L110.038 989.757 L90.1306 989.757 L90.1306 985.822 Z" fill="#000000" fill-rule="evenodd" fill-opacity="1" /><path clip-path="url(#clip550)" d="M129.482 958.276 Q125.871 958.276 124.042 961.84 Q122.237 965.382 122.237 972.512 Q122.237 979.618 124.042 983.183 Q125.871 986.724 129.482 986.724 Q133.116 986.724 134.922 983.183 Q136.751 979.618 136.751 972.512 Q136.751 965.382 134.922 961.84 Q133.116 958.276 129.482 958.276 M129.482 954.572 Q135.292 954.572 138.348 959.178 Q141.427 963.762 141.427 972.512 Q141.427 981.238 138.348 985.845 Q135.292 990.428 129.482 990.428 Q123.672 990.428 120.593 985.845 Q117.538 981.238 117.538 972.512 Q117.538 963.762 120.593 959.178 Q123.672 954.572 129.482 954.572 Z" fill="#000000" fill-rule="evenodd" fill-opacity="1" /><path clip-path="url(#clip550)" d="M159.644 958.276 Q156.033 958.276 154.204 961.84 Q152.399 965.382 152.399 972.512 Q152.399 979.618 154.204 983.183 Q156.033 986.724 159.644 986.724 Q163.278 986.724 165.084 983.183 Q166.913 979.618 166.913 972.512 Q166.913 965.382 165.084 961.84 Q163.278 958.276 159.644 958.276 M159.644 954.572 Q165.454 954.572 168.51 959.178 Q171.589 963.762 171.589 972.512 Q171.589 981.238 168.51 985.845 Q165.454 990.428 159.644 990.428 Q153.834 990.428 150.755 985.845 Q147.7 981.238 147.7 972.512 Q147.7 963.762 150.755 959.178 Q153.834 954.572 159.644 954.572 Z" fill="#000000" fill-rule="evenodd" fill-opacity="1" /><path clip-path="url(#clip550)" d="M159.644 635.174 Q156.033 635.174 154.204 638.739 Q152.399 642.281 152.399 649.41 Q152.399 656.517 154.204 660.082 Q156.033 663.623 159.644 663.623 Q163.278 663.623 165.084 660.082 Q166.913 656.517 166.913 649.41 Q166.913 642.281 165.084 638.739 Q163.278 635.174 159.644 635.174 M159.644 631.471 Q165.454 631.471 168.51 636.077 Q171.589 640.66 171.589 649.41 Q171.589 658.137 168.51 662.744 Q165.454 667.327 159.644 667.327 Q153.834 667.327 150.755 662.744 Q147.7 658.137 147.7 649.41 Q147.7 640.66 150.755 636.077 Q153.834 631.471 159.644 631.471 Z" fill="#000000" fill-rule="evenodd" fill-opacity="1" /><path clip-path="url(#clip550)" d="M90.1306 339.619 L97.7695 339.619 L97.7695 313.254 L89.4593 314.92 L89.4593 310.661 L97.7232 308.994 L102.399 308.994 L102.399 339.619 L110.038 339.619 L110.038 343.554 L90.1306 343.554 L90.1306 339.619 Z" fill="#000000" fill-rule="evenodd" fill-opacity="1" /><path clip-path="url(#clip550)" d="M129.482 312.073 Q125.871 312.073 124.042 315.638 Q122.237 319.179 122.237 326.309 Q122.237 333.416 124.042 336.98 Q125.871 340.522 129.482 340.522 Q133.116 340.522 134.922 336.98 Q136.751 333.416 136.751 326.309 Q136.751 319.179 134.922 315.638 Q133.116 312.073 129.482 312.073 M129.482 308.369 Q135.292 308.369 138.348 312.976 Q141.427 317.559 141.427 326.309 Q141.427 335.036 138.348 339.642 Q135.292 344.226 129.482 344.226 Q123.672 344.226 120.593 339.642 Q117.538 335.036 117.538 326.309 Q117.538 317.559 120.593 312.976 Q123.672 308.369 129.482 308.369 Z" fill="#000000" fill-rule="evenodd" fill-opacity="1" /><path clip-path="url(#clip550)" d="M159.644 312.073 Q156.033 312.073 154.204 315.638 Q152.399 319.179 152.399 326.309 Q152.399 333.416 154.204 336.98 Q156.033 340.522 159.644 340.522 Q163.278 340.522 165.084 336.98 Q166.913 333.416 166.913 326.309 Q166.913 319.179 165.084 315.638 Q163.278 312.073 159.644 312.073 M159.644 308.369 Q165.454 308.369 168.51 312.976 Q171.589 317.559 171.589 326.309 Q171.589 335.036 168.51 339.642 Q165.454 344.226 159.644 344.226 Q153.834 344.226 150.755 339.642 Q147.7 335.036 147.7 326.309 Q147.7 317.559 150.755 312.976 Q153.834 308.369 159.644 308.369 Z" fill="#000000" fill-rule="evenodd" fill-opacity="1" /><circle clip-path="url(#clip553)" cx="280.649" cy="646.145" r="14.4" fill="#009af9" fill-rule="evenodd" fill-opacity="1" stroke="#000000" stroke-opacity="1" stroke-width="3.84"/>
<circle clip-path="url(#clip553)" cx="535.246" cy="652.607" r="14.4" fill="#009af9" fill-rule="evenodd" fill-opacity="1" stroke="#000000" stroke-opacity="1" stroke-width="3.84"/>
<circle clip-path="url(#clip553)" cx="789.842" cy="639.683" r="14.4" fill="#009af9" fill-rule="evenodd" fill-opacity="1" stroke="#000000" stroke-opacity="1" stroke-width="3.84"/>
<circle clip-path="url(#clip553)" cx="1044.44" cy="665.531" r="14.4" fill="#009af9" fill-rule="evenodd" fill-opacity="1" stroke="#000000" stroke-opacity="1" stroke-width="3.84"/>
<circle clip-path="url(#clip553)" cx="1299.03" cy="613.834" r="14.4" fill="#009af9" fill-rule="evenodd" fill-opacity="1" stroke="#000000" stroke-opacity="1" stroke-width="3.84"/>
<circle clip-path="url(#clip553)" cx="1553.63" cy="717.227" r="14.4" fill="#009af9" fill-rule="evenodd" fill-opacity="1" stroke="#000000" stroke-opacity="1" stroke-width="3.84"/>
<circle clip-path="url(#clip553)" cx="1808.23" cy="510.442" r="14.4" fill="#009af9" fill-rule="evenodd" fill-opacity="1" stroke="#000000" stroke-opacity="1" stroke-width="3.84"/>
<circle clip-path="url(#clip553)" cx="2062.82" cy="924.012" r="14.4" fill="#009af9" fill-rule="evenodd" fill-opacity="1" stroke="#000000" stroke-opacity="1" stroke-width="3.84"/>
<circle clip-path="url(#clip553)" cx="2317.42" cy="96.8724" r="14.4" fill="#009af9" fill-rule="evenodd" fill-opacity="1" stroke="#000000" stroke-opacity="1" stroke-width="3.84"/>
<circle clip-path="url(#clip553)" cx="2572.01" cy="1751.15" r="14.4" fill="#009af9" fill-rule="evenodd" fill-opacity="1" stroke="#000000" stroke-opacity="1" stroke-width="3.84"/>
<path clip-path="url(#clip550)" d="
M292.87 222.035 L732.345 222.035 L732.345 105.695 L292.87 105.695  Z
  " fill="#ffffff" fill-rule="evenodd" fill-opacity="1"/>
<polyline clip-path="url(#clip550)" style="stroke:#000000; stroke-linecap:round; stroke-linejoin:round; stroke-width:4; stroke-opacity:1; fill:none" points="
  292.87,222.035 732.345,222.035 732.345,105.695 292.87,105.695 292.87,222.035 
  "/>
<circle clip-path="url(#clip550)" cx="400.819" cy="163.865" r="23.04" fill="#009af9" fill-rule="evenodd" fill-opacity="1" stroke="#000000" stroke-opacity="1" stroke-width="6.144"/>
<path clip-path="url(#clip550)" d="M553.996 181.115 L549.874 193.06 L510.103 193.06 Q509.564 193.06 509.353 193.037 Q509.142 193.013 508.978 192.896 Q508.814 192.779 508.814 192.521 Q508.814 192.311 509.236 191.772 L526.264 170.715 L508.768 146.637 Q508.768 145.536 508.955 145.325 Q509.142 145.091 510.103 145.091 L549.874 145.091 L553.996 156.31 L552.802 156.31 Q552.263 154.858 551.396 153.64 Q550.553 152.399 549.57 151.509 Q548.609 150.619 547.344 149.916 Q546.103 149.19 544.932 148.745 Q543.784 148.276 542.355 147.948 Q540.927 147.597 539.779 147.433 Q538.655 147.246 537.249 147.152 Q535.844 147.058 534.954 147.035 Q534.064 147.012 532.94 147.012 L513.944 147.012 L529.52 168.396 Q529.871 168.935 529.871 169.075 Q529.871 169.286 529.426 169.848 L512.796 190.413 L533.174 190.413 Q539.732 190.413 544.299 189.031 Q547.391 187.977 549.64 185.893 Q551.912 183.808 552.802 181.115 L553.996 181.115 Z" fill="#000000" fill-rule="evenodd" fill-opacity="1" /><path clip-path="url(#clip550)" d="M586.957 169.075 Q586.957 160.971 589.978 154.436 Q591.267 151.696 593.07 149.401 Q594.874 147.105 596.068 146.098 Q597.263 145.091 597.591 145.091 Q598.059 145.091 598.083 145.559 Q598.083 145.794 597.45 146.379 Q589.721 154.249 589.744 169.075 Q589.744 183.949 597.263 191.514 Q598.083 192.334 598.083 192.592 Q598.083 193.06 597.591 193.06 Q597.263 193.06 596.115 192.1 Q594.967 191.139 593.187 188.938 Q591.407 186.736 590.119 184.042 Q586.957 177.508 586.957 169.075 Z" fill="#000000" fill-rule="evenodd" fill-opacity="1" /><path clip-path="url(#clip550)" d="M637.044 168.396 Q637.325 168.677 637.325 169.075 Q637.325 169.474 637.044 169.755 Q636.763 170.036 636.365 170.036 L606.338 170.036 Q605.939 170.036 605.658 169.755 Q605.377 169.474 605.377 169.075 Q605.377 168.677 605.658 168.396 Q605.939 168.115 606.338 168.115 L636.365 168.115 Q636.763 168.115 637.044 168.396 Z" fill="#000000" fill-rule="evenodd" fill-opacity="1" /><path clip-path="url(#clip550)" d="M642.334 181.068 Q642.334 180.201 642.404 179.943 Q642.498 179.686 642.873 179.288 L652.078 169.029 Q657.114 163.36 657.114 158.418 Q657.114 155.209 655.427 152.914 Q653.764 150.619 650.696 150.619 Q648.588 150.619 646.808 151.907 Q645.028 153.195 644.208 155.49 Q644.348 155.444 644.84 155.444 Q646.035 155.444 646.691 156.193 Q647.37 156.943 647.37 157.95 Q647.37 159.238 646.527 159.87 Q645.707 160.479 644.887 160.479 Q644.559 160.479 644.114 160.409 Q643.692 160.339 643.013 159.683 Q642.334 159.004 642.334 157.809 Q642.334 154.46 644.864 151.79 Q647.417 149.12 651.305 149.12 Q655.708 149.12 658.589 151.743 Q661.494 154.343 661.494 158.418 Q661.494 159.847 661.049 161.159 Q660.627 162.447 660.041 163.454 Q659.479 164.461 657.933 166.077 Q656.387 167.694 655.146 168.841 Q653.905 169.989 651.117 172.425 L646.035 177.367 L654.678 177.367 Q658.894 177.367 659.222 176.992 Q659.69 176.313 660.276 172.729 L661.494 172.729 L660.135 181.068 L642.334 181.068 Z" fill="#000000" fill-rule="evenodd" fill-opacity="1" /><path clip-path="url(#clip550)" d="M666.09 192.592 Q666.09 192.357 666.699 191.772 Q674.429 183.902 674.429 169.075 Q674.429 154.202 667.004 146.684 Q666.09 145.817 666.09 145.559 Q666.09 145.091 666.559 145.091 Q666.887 145.091 668.034 146.051 Q669.205 147.012 670.962 149.213 Q672.742 151.415 674.054 154.109 Q677.216 160.643 677.216 169.075 Q677.216 177.18 674.194 183.715 Q672.906 186.455 671.103 188.75 Q669.299 191.046 668.105 192.053 Q666.91 193.06 666.559 193.06 Q666.09 193.06 666.09 192.592 Z" fill="#000000" fill-rule="evenodd" fill-opacity="1" /><path clip-path="url(#clip550)" d="M700.417 144.676 Q700.417 144.807 700.269 145.316 Q700.122 145.824 699.761 146.611 Q699.417 147.398 698.941 148.119 Q698.466 148.824 697.679 149.349 Q696.908 149.857 696.023 149.857 Q694.842 149.857 694.055 149.07 Q693.268 148.283 693.268 147.103 Q693.268 146.447 693.613 145.545 Q695.793 139.725 695.793 137.725 Q695.793 135.38 693.973 135.38 Q693.072 135.38 692.219 135.724 Q691.383 136.052 690.809 136.511 Q690.235 136.97 689.711 137.61 Q689.202 138.233 688.94 138.659 Q688.694 139.069 688.497 139.479 L688.071 141.151 Q687.973 141.61 687.497 143.397 L686.759 146.431 Q686.235 148.693 686.12 148.906 Q685.956 149.365 685.595 149.611 Q685.235 149.857 684.874 149.857 Q684.464 149.857 684.185 149.611 Q683.906 149.365 683.906 148.939 Q683.906 148.874 683.956 148.628 Q684.005 148.382 684.087 148.037 Q684.169 147.693 684.202 147.496 L686.153 139.741 Q686.513 138.331 686.595 137.889 Q686.694 137.429 686.694 136.921 Q686.694 135.38 685.644 135.38 Q684.792 135.38 684.234 136.396 Q683.677 137.413 683.201 139.381 Q683.054 139.922 682.956 140.036 Q682.874 140.151 682.628 140.151 Q682.218 140.135 682.218 139.807 Q682.218 139.725 682.349 139.184 Q682.48 138.643 682.726 137.872 Q682.988 137.085 683.234 136.56 Q683.447 136.167 683.562 135.987 Q683.693 135.79 684.005 135.413 Q684.333 135.019 684.759 134.839 Q685.202 134.642 685.743 134.642 Q686.956 134.642 687.841 135.429 Q688.727 136.2 688.842 137.561 Q691.022 134.642 694.072 134.642 Q695.875 134.642 696.908 135.593 Q697.941 136.544 697.941 138.233 Q697.941 138.626 697.859 139.135 Q697.794 139.626 697.63 140.249 Q697.482 140.873 697.351 141.348 Q697.22 141.823 696.957 142.594 Q696.695 143.348 696.58 143.676 Q696.466 144.004 696.187 144.775 Q695.925 145.529 695.892 145.611 Q695.285 147.136 695.285 148.005 Q695.285 148.579 695.465 148.841 Q695.662 149.103 696.089 149.103 Q697.236 149.103 698.089 147.972 Q698.958 146.824 699.515 144.955 Q699.646 144.545 699.712 144.447 Q699.794 144.348 700.023 144.348 Q700.417 144.348 700.417 144.676 Z" fill="#000000" fill-rule="evenodd" fill-opacity="1" /></svg>
