<?xml version="1.0" encoding="utf-8"?>
<svg xmlns="http://www.w3.org/2000/svg" xmlns:xlink="http://www.w3.org/1999/xlink" width="672" height="480" viewBox="0 0 2688 1920">
<defs>
  <clipPath id="clip590">
    <rect x="0" y="0" width="2688" height="1920"/>
  </clipPath>
</defs>
<path clip-path="url(#clip590)" d="
M0 1920 L2688 1920 L2688 0 L0 0  Z
  " fill="#ffffff" fill-rule="evenodd" fill-opacity="1"/>
<defs>
  <clipPath id="clip591">
    <rect x="537" y="0" width="1883" height="1883"/>
  </clipPath>
</defs>
<defs>
  <clipPath id="clip592">
    <rect x="211" y="47" width="2430" height="1755"/>
  </clipPath>
</defs>
<path clip-path="url(#clip590)" d="
M226.978 1800.78 L2640.76 1800.78 L2640.76 47.2441 L226.978 47.2441  Z
  " fill="#ffffff" fill-rule="evenodd" fill-opacity="1"/>
<defs>
  <clipPath id="clip593">
    <rect x="226" y="47" width="2415" height="1755"/>
  </clipPath>
</defs>
<polyline clip-path="url(#clip593)" style="stroke:#000000; stroke-linecap:round; stroke-linejoin:round; stroke-width:2; stroke-opacity:0.1; fill:none" points="
  295.292,1800.78 295.292,47.2441 
  "/>
<polyline clip-path="url(#clip593)" style="stroke:#000000; stroke-linecap:round; stroke-linejoin:round; stroke-width:2; stroke-opacity:0.1; fill:none" points="
  801.325,1800.78 801.325,47.2441 
  "/>
<polyline clip-path="url(#clip593)" style="stroke:#000000; stroke-linecap:round; stroke-linejoin:round; stroke-width:2; stroke-opacity:0.1; fill:none" points="
  1307.36,1800.78 1307.36,47.2441 
  "/>
<polyline clip-path="url(#clip593)" style="stroke:#000000; stroke-linecap:round; stroke-linejoin:round; stroke-width:2; stroke-opacity:0.1; fill:none" points="
  1813.39,1800.78 1813.39,47.2441 
  "/>
<polyline clip-path="url(#clip593)" style="stroke:#000000; stroke-linecap:round; stroke-linejoin:round; stroke-width:2; stroke-opacity:0.1; fill:none" points="
  2319.42,1800.78 2319.42,47.2441 
  "/>
<polyline clip-path="url(#clip590)" style="stroke:#000000; stroke-linecap:round; stroke-linejoin:round; stroke-width:4; stroke-opacity:1; fill:none" points="
  226.978,1800.78 2640.76,1800.78 
  "/>
<polyline clip-path="url(#clip590)" style="stroke:#000000; stroke-linecap:round; stroke-linejoin:round; stroke-width:4; stroke-opacity:1; fill:none" points="
  295.292,1800.78 295.292,1781.88 
  "/>
<polyline clip-path="url(#clip590)" style="stroke:#000000; stroke-linecap:round; stroke-linejoin:round; stroke-width:4; stroke-opacity:1; fill:none" points="
  801.325,1800.78 801.325,1781.88 
  "/>
<polyline clip-path="url(#clip590)" style="stroke:#000000; stroke-linecap:round; stroke-linejoin:round; stroke-width:4; stroke-opacity:1; fill:none" points="
  1307.36,1800.78 1307.36,1781.88 
  "/>
<polyline clip-path="url(#clip590)" style="stroke:#000000; stroke-linecap:round; stroke-linejoin:round; stroke-width:4; stroke-opacity:1; fill:none" points="
  1813.39,1800.78 1813.39,1781.88 
  "/>
<polyline clip-path="url(#clip590)" style="stroke:#000000; stroke-linecap:round; stroke-linejoin:round; stroke-width:4; stroke-opacity:1; fill:none" points="
  2319.42,1800.78 2319.42,1781.88 
  "/>
<path clip-path="url(#clip590)" d="M295.292 1834 Q291.681 1834 289.853 1837.57 Q288.047 1841.11 288.047 1848.24 Q288.047 1855.34 289.853 1858.91 Q291.681 1862.45 295.292 1862.45 Q298.927 1862.45 300.732 1858.91 Q302.561 1855.34 302.561 1848.24 Q302.561 1841.11 300.732 1837.57 Q298.927 1834 295.292 1834 M295.292 1830.3 Q301.102 1830.3 304.158 1834.9 Q307.237 1839.49 307.237 1848.24 Q307.237 1856.96 304.158 1861.57 Q301.102 1866.15 295.292 1866.15 Q289.482 1866.15 286.404 1861.57 Q283.348 1856.96 283.348 1848.24 Q283.348 1839.49 286.404 1834.9 Q289.482 1830.3 295.292 1830.3 Z" fill="#000000" fill-rule="evenodd" fill-opacity="1" /><path clip-path="url(#clip590)" d="M795.978 1861.55 L812.298 1861.55 L812.298 1865.48 L790.353 1865.48 L790.353 1861.55 Q793.015 1858.79 797.599 1854.16 Q802.205 1849.51 803.386 1848.17 Q805.631 1845.65 806.511 1843.91 Q807.413 1842.15 807.413 1840.46 Q807.413 1837.71 805.469 1835.97 Q803.548 1834.23 800.446 1834.23 Q798.247 1834.23 795.793 1835 Q793.363 1835.76 790.585 1837.31 L790.585 1832.59 Q793.409 1831.46 795.863 1830.88 Q798.316 1830.3 800.353 1830.3 Q805.724 1830.3 808.918 1832.98 Q812.112 1835.67 812.112 1840.16 Q812.112 1842.29 811.302 1844.21 Q810.515 1846.11 808.409 1848.7 Q807.83 1849.37 804.728 1852.59 Q801.626 1855.78 795.978 1861.55 Z" fill="#000000" fill-rule="evenodd" fill-opacity="1" /><path clip-path="url(#clip590)" d="M1310.37 1835 L1298.56 1853.45 L1310.37 1853.45 L1310.37 1835 M1309.14 1830.92 L1315.02 1830.92 L1315.02 1853.45 L1319.95 1853.45 L1319.95 1857.34 L1315.02 1857.34 L1315.02 1865.48 L1310.37 1865.48 L1310.37 1857.34 L1294.77 1857.34 L1294.77 1852.82 L1309.14 1830.92 Z" fill="#000000" fill-rule="evenodd" fill-opacity="1" /><path clip-path="url(#clip590)" d="M1813.8 1846.34 Q1810.65 1846.34 1808.8 1848.49 Q1806.97 1850.65 1806.97 1854.4 Q1806.97 1858.12 1808.8 1860.3 Q1810.65 1862.45 1813.8 1862.45 Q1816.94 1862.45 1818.77 1860.3 Q1820.63 1858.12 1820.63 1854.4 Q1820.63 1850.65 1818.77 1848.49 Q1816.94 1846.34 1813.8 1846.34 M1823.08 1831.69 L1823.08 1835.95 Q1821.32 1835.11 1819.51 1834.67 Q1817.73 1834.23 1815.97 1834.23 Q1811.34 1834.23 1808.89 1837.36 Q1806.46 1840.48 1806.11 1846.8 Q1807.48 1844.79 1809.54 1843.72 Q1811.6 1842.64 1814.07 1842.64 Q1819.28 1842.64 1822.29 1845.81 Q1825.32 1848.96 1825.32 1854.4 Q1825.32 1859.72 1822.18 1862.94 Q1819.03 1866.15 1813.8 1866.15 Q1807.8 1866.15 1804.63 1861.57 Q1801.46 1856.96 1801.46 1848.24 Q1801.46 1840.04 1805.35 1835.18 Q1809.24 1830.3 1815.79 1830.3 Q1817.55 1830.3 1819.33 1830.65 Q1821.13 1830.99 1823.08 1831.69 Z" fill="#000000" fill-rule="evenodd" fill-opacity="1" /><path clip-path="url(#clip590)" d="M2319.42 1849.07 Q2316.09 1849.07 2314.17 1850.85 Q2312.27 1852.64 2312.27 1855.76 Q2312.27 1858.89 2314.17 1860.67 Q2316.09 1862.45 2319.42 1862.45 Q2322.76 1862.45 2324.68 1860.67 Q2326.6 1858.86 2326.6 1855.76 Q2326.6 1852.64 2324.68 1850.85 Q2322.78 1849.07 2319.42 1849.07 M2314.75 1847.08 Q2311.74 1846.34 2310.05 1844.28 Q2308.38 1842.22 2308.38 1839.26 Q2308.38 1835.11 2311.32 1832.71 Q2314.29 1830.3 2319.42 1830.3 Q2324.59 1830.3 2327.53 1832.71 Q2330.47 1835.11 2330.47 1839.26 Q2330.47 1842.22 2328.78 1844.28 Q2327.11 1846.34 2324.12 1847.08 Q2327.5 1847.87 2329.38 1850.16 Q2331.28 1852.45 2331.28 1855.76 Q2331.28 1860.78 2328.2 1863.47 Q2325.14 1866.15 2319.42 1866.15 Q2313.71 1866.15 2310.63 1863.47 Q2307.57 1860.78 2307.57 1855.76 Q2307.57 1852.45 2309.47 1850.16 Q2311.37 1847.87 2314.75 1847.08 M2313.04 1839.7 Q2313.04 1842.38 2314.7 1843.89 Q2316.39 1845.39 2319.42 1845.39 Q2322.43 1845.39 2324.12 1843.89 Q2325.84 1842.38 2325.84 1839.7 Q2325.84 1837.01 2324.12 1835.51 Q2322.43 1834 2319.42 1834 Q2316.39 1834 2314.7 1835.51 Q2313.04 1837.01 2313.04 1839.7 Z" fill="#000000" fill-rule="evenodd" fill-opacity="1" /><polyline clip-path="url(#clip593)" style="stroke:#000000; stroke-linecap:round; stroke-linejoin:round; stroke-width:2; stroke-opacity:0.1; fill:none" points="
  226.978,1751.15 2640.76,1751.15 
  "/>
<polyline clip-path="url(#clip593)" style="stroke:#000000; stroke-linecap:round; stroke-linejoin:round; stroke-width:2; stroke-opacity:0.1; fill:none" points="
  226.978,1420.3 2640.76,1420.3 
  "/>
<polyline clip-path="url(#clip593)" style="stroke:#000000; stroke-linecap:round; stroke-linejoin:round; stroke-width:2; stroke-opacity:0.1; fill:none" points="
  226.978,1089.44 2640.76,1089.44 
  "/>
<polyline clip-path="url(#clip593)" style="stroke:#000000; stroke-linecap:round; stroke-linejoin:round; stroke-width:2; stroke-opacity:0.1; fill:none" points="
  226.978,758.584 2640.76,758.584 
  "/>
<polyline clip-path="url(#clip593)" style="stroke:#000000; stroke-linecap:round; stroke-linejoin:round; stroke-width:2; stroke-opacity:0.1; fill:none" points="
  226.978,427.728 2640.76,427.728 
  "/>
<polyline clip-path="url(#clip593)" style="stroke:#000000; stroke-linecap:round; stroke-linejoin:round; stroke-width:2; stroke-opacity:0.1; fill:none" points="
  226.978,96.8724 2640.76,96.8724 
  "/>
<polyline clip-path="url(#clip590)" style="stroke:#000000; stroke-linecap:round; stroke-linejoin:round; stroke-width:4; stroke-opacity:1; fill:none" points="
  226.978,1800.78 226.978,47.2441 
  "/>
<polyline clip-path="url(#clip590)" style="stroke:#000000; stroke-linecap:round; stroke-linejoin:round; stroke-width:4; stroke-opacity:1; fill:none" points="
  226.978,1751.15 245.876,1751.15 
  "/>
<polyline clip-path="url(#clip590)" style="stroke:#000000; stroke-linecap:round; stroke-linejoin:round; stroke-width:4; stroke-opacity:1; fill:none" points="
  226.978,1420.3 245.876,1420.3 
  "/>
<polyline clip-path="url(#clip590)" style="stroke:#000000; stroke-linecap:round; stroke-linejoin:round; stroke-width:4; stroke-opacity:1; fill:none" points="
  226.978,1089.44 245.876,1089.44 
  "/>
<polyline clip-path="url(#clip590)" style="stroke:#000000; stroke-linecap:round; stroke-linejoin:round; stroke-width:4; stroke-opacity:1; fill:none" points="
  226.978,758.584 245.876,758.584 
  "/>
<polyline clip-path="url(#clip590)" style="stroke:#000000; stroke-linecap:round; stroke-linejoin:round; stroke-width:4; stroke-opacity:1; fill:none" points="
  226.978,427.728 245.876,427.728 
  "/>
<polyline clip-path="url(#clip590)" style="stroke:#000000; stroke-linecap:round; stroke-linejoin:round; stroke-width:4; stroke-opacity:1; fill:none" points="
  226.978,96.8724 245.876,96.8724 
  "/>
<path clip-path="url(#clip590)" d="M49.5521 1751.6 L79.2279 1751.6 L79.2279 1755.54 L49.5521 1755.54 L49.5521 1751.6 Z" fill="#000000" fill-rule="evenodd" fill-opacity="1" /><path clip-path="url(#clip590)" d="M99.3204 1736.95 Q95.7093 1736.95 93.8806 1740.51 Q92.075 1744.06 92.075 1751.19 Q92.075 1758.29 93.8806 1761.86 Q95.7093 1765.4 99.3204 1765.4 Q102.955 1765.4 104.76 1761.86 Q106.589 1758.29 106.589 1751.19 Q106.589 1744.06 104.76 1740.51 Q102.955 1736.95 99.3204 1736.95 M99.3204 1733.25 Q105.131 1733.25 108.186 1737.85 Q111.265 1742.44 111.265 1751.19 Q111.265 1759.91 108.186 1764.52 Q105.131 1769.1 99.3204 1769.1 Q93.5102 1769.1 90.4315 1764.52 Q87.376 1759.91 87.376 1751.19 Q87.376 1742.44 90.4315 1737.85 Q93.5102 1733.25 99.3204 1733.25 Z" fill="#000000" fill-rule="evenodd" fill-opacity="1" /><path clip-path="url(#clip590)" d="M119.482 1762.55 L124.367 1762.55 L124.367 1768.43 L119.482 1768.43 L119.482 1762.55 Z" fill="#000000" fill-rule="evenodd" fill-opacity="1" /><path clip-path="url(#clip590)" d="M134.598 1733.87 L152.954 1733.87 L152.954 1737.81 L138.88 1737.81 L138.88 1746.28 Q139.899 1745.93 140.917 1745.77 Q141.936 1745.58 142.954 1745.58 Q148.741 1745.58 152.121 1748.76 Q155.501 1751.93 155.501 1757.34 Q155.501 1762.92 152.028 1766.02 Q148.556 1769.1 142.237 1769.1 Q140.061 1769.1 137.792 1768.73 Q135.547 1768.36 133.14 1767.62 L133.14 1762.92 Q135.223 1764.06 137.445 1764.61 Q139.667 1765.17 142.144 1765.17 Q146.149 1765.17 148.487 1763.06 Q150.825 1760.95 150.825 1757.34 Q150.825 1753.73 148.487 1751.63 Q146.149 1749.52 142.144 1749.52 Q140.269 1749.52 138.394 1749.94 Q136.542 1750.35 134.598 1751.23 L134.598 1733.87 Z" fill="#000000" fill-rule="evenodd" fill-opacity="1" /><path clip-path="url(#clip590)" d="M174.713 1736.95 Q171.102 1736.95 169.274 1740.51 Q167.468 1744.06 167.468 1751.19 Q167.468 1758.29 169.274 1761.86 Q171.102 1765.4 174.713 1765.4 Q178.348 1765.4 180.153 1761.86 Q181.982 1758.29 181.982 1751.19 Q181.982 1744.06 180.153 1740.51 Q178.348 1736.95 174.713 1736.95 M174.713 1733.25 Q180.524 1733.25 183.579 1737.85 Q186.658 1742.44 186.658 1751.19 Q186.658 1759.91 183.579 1764.52 Q180.524 1769.1 174.713 1769.1 Q168.903 1769.1 165.825 1764.52 Q162.769 1759.91 162.769 1751.19 Q162.769 1742.44 165.825 1737.85 Q168.903 1733.25 174.713 1733.25 Z" fill="#000000" fill-rule="evenodd" fill-opacity="1" /><path clip-path="url(#clip590)" d="M50.5475 1420.75 L80.2233 1420.75 L80.2233 1424.68 L50.5475 1424.68 L50.5475 1420.75 Z" fill="#000000" fill-rule="evenodd" fill-opacity="1" /><path clip-path="url(#clip590)" d="M100.316 1406.09 Q96.7047 1406.09 94.876 1409.66 Q93.0704 1413.2 93.0704 1420.33 Q93.0704 1427.44 94.876 1431 Q96.7047 1434.54 100.316 1434.54 Q103.95 1434.54 105.756 1431 Q107.584 1427.44 107.584 1420.33 Q107.584 1413.2 105.756 1409.66 Q103.95 1406.09 100.316 1406.09 M100.316 1402.39 Q106.126 1402.39 109.181 1407 Q112.26 1411.58 112.26 1420.33 Q112.26 1429.06 109.181 1433.66 Q106.126 1438.25 100.316 1438.25 Q94.5056 1438.25 91.4269 1433.66 Q88.3714 1429.06 88.3714 1420.33 Q88.3714 1411.58 91.4269 1407 Q94.5056 1402.39 100.316 1402.39 Z" fill="#000000" fill-rule="evenodd" fill-opacity="1" /><path clip-path="url(#clip590)" d="M120.478 1431.7 L125.362 1431.7 L125.362 1437.58 L120.478 1437.58 L120.478 1431.7 Z" fill="#000000" fill-rule="evenodd" fill-opacity="1" /><path clip-path="url(#clip590)" d="M148.394 1407.09 L136.589 1425.54 L148.394 1425.54 L148.394 1407.09 M147.167 1403.02 L153.047 1403.02 L153.047 1425.54 L157.977 1425.54 L157.977 1429.43 L153.047 1429.43 L153.047 1437.58 L148.394 1437.58 L148.394 1429.43 L132.792 1429.43 L132.792 1424.91 L147.167 1403.02 Z" fill="#000000" fill-rule="evenodd" fill-opacity="1" /><path clip-path="url(#clip590)" d="M165.755 1403.02 L184.112 1403.02 L184.112 1406.95 L170.038 1406.95 L170.038 1415.42 Q171.056 1415.08 172.075 1414.91 Q173.093 1414.73 174.112 1414.73 Q179.899 1414.73 183.278 1417.9 Q186.658 1421.07 186.658 1426.49 Q186.658 1432.07 183.186 1435.17 Q179.713 1438.25 173.394 1438.25 Q171.218 1438.25 168.95 1437.88 Q166.704 1437.51 164.297 1436.77 L164.297 1432.07 Q166.38 1433.2 168.602 1433.76 Q170.825 1434.31 173.301 1434.31 Q177.306 1434.31 179.644 1432.2 Q181.982 1430.1 181.982 1426.49 Q181.982 1422.88 179.644 1420.77 Q177.306 1418.66 173.301 1418.66 Q171.426 1418.66 169.551 1419.08 Q167.7 1419.5 165.755 1420.38 L165.755 1403.02 Z" fill="#000000" fill-rule="evenodd" fill-opacity="1" /><path clip-path="url(#clip590)" d="M49.5521 1089.89 L79.2279 1089.89 L79.2279 1093.83 L49.5521 1093.83 L49.5521 1089.89 Z" fill="#000000" fill-rule="evenodd" fill-opacity="1" /><path clip-path="url(#clip590)" d="M99.3204 1075.24 Q95.7093 1075.24 93.8806 1078.8 Q92.075 1082.34 92.075 1089.47 Q92.075 1096.58 93.8806 1100.15 Q95.7093 1103.69 99.3204 1103.69 Q102.955 1103.69 104.76 1100.15 Q106.589 1096.58 106.589 1089.47 Q106.589 1082.34 104.76 1078.8 Q102.955 1075.24 99.3204 1075.24 M99.3204 1071.53 Q105.131 1071.53 108.186 1076.14 Q111.265 1080.72 111.265 1089.47 Q111.265 1098.2 108.186 1102.81 Q105.131 1107.39 99.3204 1107.39 Q93.5102 1107.39 90.4315 1102.81 Q87.376 1098.2 87.376 1089.47 Q87.376 1080.72 90.4315 1076.14 Q93.5102 1071.53 99.3204 1071.53 Z" fill="#000000" fill-rule="evenodd" fill-opacity="1" /><path clip-path="url(#clip590)" d="M119.482 1100.84 L124.367 1100.84 L124.367 1106.72 L119.482 1106.72 L119.482 1100.84 Z" fill="#000000" fill-rule="evenodd" fill-opacity="1" /><path clip-path="url(#clip590)" d="M147.399 1076.23 L135.593 1094.68 L147.399 1094.68 L147.399 1076.23 M146.172 1072.16 L152.052 1072.16 L152.052 1094.68 L156.982 1094.68 L156.982 1098.57 L152.052 1098.57 L152.052 1106.72 L147.399 1106.72 L147.399 1098.57 L131.797 1098.57 L131.797 1094.06 L146.172 1072.16 Z" fill="#000000" fill-rule="evenodd" fill-opacity="1" /><path clip-path="url(#clip590)" d="M174.713 1075.24 Q171.102 1075.24 169.274 1078.8 Q167.468 1082.34 167.468 1089.47 Q167.468 1096.58 169.274 1100.15 Q171.102 1103.69 174.713 1103.69 Q178.348 1103.69 180.153 1100.15 Q181.982 1096.58 181.982 1089.47 Q181.982 1082.34 180.153 1078.8 Q178.348 1075.24 174.713 1075.24 M174.713 1071.53 Q180.524 1071.53 183.579 1076.14 Q186.658 1080.72 186.658 1089.47 Q186.658 1098.2 183.579 1102.81 Q180.524 1107.39 174.713 1107.39 Q168.903 1107.39 165.825 1102.81 Q162.769 1098.2 162.769 1089.47 Q162.769 1080.72 165.825 1076.14 Q168.903 1071.53 174.713 1071.53 Z" fill="#000000" fill-rule="evenodd" fill-opacity="1" /><path clip-path="url(#clip590)" d="M50.5475 759.035 L80.2233 759.035 L80.2233 762.97 L50.5475 762.97 L50.5475 759.035 Z" fill="#000000" fill-rule="evenodd" fill-opacity="1" /><path clip-path="url(#clip590)" d="M100.316 744.383 Q96.7047 744.383 94.876 747.947 Q93.0704 751.489 93.0704 758.619 Q93.0704 765.725 94.876 769.29 Q96.7047 772.831 100.316 772.831 Q103.95 772.831 105.756 769.29 Q107.584 765.725 107.584 758.619 Q107.584 751.489 105.756 747.947 Q103.95 744.383 100.316 744.383 M100.316 740.679 Q106.126 740.679 109.181 745.285 Q112.26 749.869 112.26 758.619 Q112.26 767.345 109.181 771.952 Q106.126 776.535 100.316 776.535 Q94.5056 776.535 91.4269 771.952 Q88.3714 767.345 88.3714 758.619 Q88.3714 749.869 91.4269 745.285 Q94.5056 740.679 100.316 740.679 Z" fill="#000000" fill-rule="evenodd" fill-opacity="1" /><path clip-path="url(#clip590)" d="M120.478 769.984 L125.362 769.984 L125.362 775.864 L120.478 775.864 L120.478 769.984 Z" fill="#000000" fill-rule="evenodd" fill-opacity="1" /><path clip-path="url(#clip590)" d="M149.714 757.23 Q153.07 757.947 154.945 760.216 Q156.843 762.484 156.843 765.818 Q156.843 770.933 153.325 773.734 Q149.806 776.535 143.325 776.535 Q141.149 776.535 138.834 776.095 Q136.542 775.679 134.089 774.822 L134.089 770.308 Q136.033 771.443 138.348 772.021 Q140.663 772.6 143.186 772.6 Q147.584 772.6 149.876 770.864 Q152.19 769.128 152.19 765.818 Q152.19 762.762 150.038 761.049 Q147.908 759.313 144.089 759.313 L140.061 759.313 L140.061 755.47 L144.274 755.47 Q147.723 755.47 149.552 754.105 Q151.38 752.716 151.38 750.123 Q151.38 747.461 149.482 746.049 Q147.607 744.614 144.089 744.614 Q142.167 744.614 139.968 745.031 Q137.769 745.447 135.13 746.327 L135.13 742.16 Q137.792 741.42 140.107 741.049 Q142.445 740.679 144.505 740.679 Q149.829 740.679 152.931 743.109 Q156.033 745.517 156.033 749.637 Q156.033 752.507 154.39 754.498 Q152.746 756.466 149.714 757.23 Z" fill="#000000" fill-rule="evenodd" fill-opacity="1" /><path clip-path="url(#clip590)" d="M165.755 741.304 L184.112 741.304 L184.112 745.239 L170.038 745.239 L170.038 753.711 Q171.056 753.364 172.075 753.202 Q173.093 753.017 174.112 753.017 Q179.899 753.017 183.278 756.188 Q186.658 759.359 186.658 764.776 Q186.658 770.355 183.186 773.456 Q179.713 776.535 173.394 776.535 Q171.218 776.535 168.95 776.165 Q166.704 775.794 164.297 775.054 L164.297 770.355 Q166.38 771.489 168.602 772.044 Q170.825 772.6 173.301 772.6 Q177.306 772.6 179.644 770.494 Q181.982 768.387 181.982 764.776 Q181.982 761.165 179.644 759.058 Q177.306 756.952 173.301 756.952 Q171.426 756.952 169.551 757.369 Q167.7 757.785 165.755 758.665 L165.755 741.304 Z" fill="#000000" fill-rule="evenodd" fill-opacity="1" /><path clip-path="url(#clip590)" d="M49.5521 428.18 L79.2279 428.18 L79.2279 432.115 L49.5521 432.115 L49.5521 428.18 Z" fill="#000000" fill-rule="evenodd" fill-opacity="1" /><path clip-path="url(#clip590)" d="M99.3204 413.527 Q95.7093 413.527 93.8806 417.092 Q92.075 420.633 92.075 427.763 Q92.075 434.869 93.8806 438.434 Q95.7093 441.976 99.3204 441.976 Q102.955 441.976 104.76 438.434 Q106.589 434.869 106.589 427.763 Q106.589 420.633 104.76 417.092 Q102.955 413.527 99.3204 413.527 M99.3204 409.823 Q105.131 409.823 108.186 414.43 Q111.265 419.013 111.265 427.763 Q111.265 436.49 108.186 441.096 Q105.131 445.679 99.3204 445.679 Q93.5102 445.679 90.4315 441.096 Q87.376 436.49 87.376 427.763 Q87.376 419.013 90.4315 414.43 Q93.5102 409.823 99.3204 409.823 Z" fill="#000000" fill-rule="evenodd" fill-opacity="1" /><path clip-path="url(#clip590)" d="M119.482 439.129 L124.367 439.129 L124.367 445.008 L119.482 445.008 L119.482 439.129 Z" fill="#000000" fill-rule="evenodd" fill-opacity="1" /><path clip-path="url(#clip590)" d="M148.718 426.374 Q152.075 427.092 153.95 429.36 Q155.848 431.629 155.848 434.962 Q155.848 440.078 152.329 442.879 Q148.811 445.679 142.329 445.679 Q140.153 445.679 137.839 445.24 Q135.547 444.823 133.093 443.966 L133.093 439.453 Q135.038 440.587 137.353 441.166 Q139.667 441.744 142.191 441.744 Q146.589 441.744 148.88 440.008 Q151.195 438.272 151.195 434.962 Q151.195 431.906 149.042 430.193 Q146.913 428.457 143.093 428.457 L139.066 428.457 L139.066 424.615 L143.278 424.615 Q146.728 424.615 148.556 423.249 Q150.385 421.86 150.385 419.268 Q150.385 416.606 148.487 415.193 Q146.612 413.758 143.093 413.758 Q141.172 413.758 138.973 414.175 Q136.774 414.592 134.135 415.471 L134.135 411.305 Q136.797 410.564 139.112 410.194 Q141.45 409.823 143.51 409.823 Q148.834 409.823 151.936 412.254 Q155.038 414.661 155.038 418.781 Q155.038 421.652 153.394 423.643 Q151.751 425.61 148.718 426.374 Z" fill="#000000" fill-rule="evenodd" fill-opacity="1" /><path clip-path="url(#clip590)" d="M174.713 413.527 Q171.102 413.527 169.274 417.092 Q167.468 420.633 167.468 427.763 Q167.468 434.869 169.274 438.434 Q171.102 441.976 174.713 441.976 Q178.348 441.976 180.153 438.434 Q181.982 434.869 181.982 427.763 Q181.982 420.633 180.153 417.092 Q178.348 413.527 174.713 413.527 M174.713 409.823 Q180.524 409.823 183.579 414.43 Q186.658 419.013 186.658 427.763 Q186.658 436.49 183.579 441.096 Q180.524 445.679 174.713 445.679 Q168.903 445.679 165.825 441.096 Q162.769 436.49 162.769 427.763 Q162.769 419.013 165.825 414.43 Q168.903 409.823 174.713 409.823 Z" fill="#000000" fill-rule="evenodd" fill-opacity="1" /><path clip-path="url(#clip590)" d="M50.5475 97.3238 L80.2233 97.3238 L80.2233 101.259 L50.5475 101.259 L50.5475 97.3238 Z" fill="#000000" fill-rule="evenodd" fill-opacity="1" /><path clip-path="url(#clip590)" d="M100.316 82.6711 Q96.7047 82.6711 94.876 86.2359 Q93.0704 89.7776 93.0704 96.9072 Q93.0704 104.014 94.876 107.578 Q96.7047 111.12 100.316 111.12 Q103.95 111.12 105.756 107.578 Q107.584 104.014 107.584 96.9072 Q107.584 89.7776 105.756 86.2359 Q103.95 82.6711 100.316 82.6711 M100.316 78.9675 Q106.126 78.9675 109.181 83.5739 Q112.26 88.1572 112.26 96.9072 Q112.26 105.634 109.181 110.24 Q106.126 114.824 100.316 114.824 Q94.5056 114.824 91.4269 110.24 Q88.3714 105.634 88.3714 96.9072 Q88.3714 88.1572 91.4269 83.5739 Q94.5056 78.9675 100.316 78.9675 Z" fill="#000000" fill-rule="evenodd" fill-opacity="1" /><path clip-path="url(#clip590)" d="M120.478 108.273 L125.362 108.273 L125.362 114.152 L120.478 114.152 L120.478 108.273 Z" fill="#000000" fill-rule="evenodd" fill-opacity="1" /><path clip-path="url(#clip590)" d="M139.575 110.217 L155.894 110.217 L155.894 114.152 L133.95 114.152 L133.95 110.217 Q136.612 107.463 141.195 102.833 Q145.802 98.1803 146.982 96.8377 Q149.228 94.3146 150.107 92.5785 Q151.01 90.8192 151.01 89.1294 Q151.01 86.3748 149.065 84.6387 Q147.144 82.9026 144.042 82.9026 Q141.843 82.9026 139.39 83.6665 Q136.959 84.4304 134.181 85.9813 L134.181 81.2591 Q137.005 80.1249 139.459 79.5462 Q141.913 78.9675 143.95 78.9675 Q149.32 78.9675 152.515 81.6526 Q155.709 84.3378 155.709 88.8285 Q155.709 90.9581 154.899 92.8794 Q154.112 94.7776 152.005 97.3701 Q151.427 98.0414 148.325 101.259 Q145.223 104.453 139.575 110.217 Z" fill="#000000" fill-rule="evenodd" fill-opacity="1" /><path clip-path="url(#clip590)" d="M165.755 79.5924 L184.112 79.5924 L184.112 83.5276 L170.038 83.5276 L170.038 91.9998 Q171.056 91.6526 172.075 91.4905 Q173.093 91.3053 174.112 91.3053 Q179.899 91.3053 183.278 94.4766 Q186.658 97.6479 186.658 103.065 Q186.658 108.643 183.186 111.745 Q179.713 114.824 173.394 114.824 Q171.218 114.824 168.95 114.453 Q166.704 114.083 164.297 113.342 L164.297 108.643 Q166.38 109.777 168.602 110.333 Q170.825 110.889 173.301 110.889 Q177.306 110.889 179.644 108.782 Q181.982 106.676 181.982 103.065 Q181.982 99.4535 179.644 97.347 Q177.306 95.2405 173.301 95.2405 Q171.426 95.2405 169.551 95.6572 Q167.7 96.0738 165.755 96.9535 L165.755 79.5924 Z" fill="#000000" fill-rule="evenodd" fill-opacity="1" /><circle clip-path="url(#clip593)" cx="295.292" cy="1751.15" r="14.4" fill="#009af9" fill-rule="evenodd" fill-opacity="1" stroke="#000000" stroke-opacity="1" stroke-width="3.84"/>
<circle clip-path="url(#clip593)" cx="548.309" cy="96.8724" r="14.4" fill="#009af9" fill-rule="evenodd" fill-opacity="1" stroke="#000000" stroke-opacity="1" stroke-width="3.84"/>
<circle clip-path="url(#clip593)" cx="801.325" cy="924.012" r="14.4" fill="#009af9" fill-rule="evenodd" fill-opacity="1" stroke="#000000" stroke-opacity="1" stroke-width="3.84"/>
<circle clip-path="url(#clip593)" cx="1054.34" cy="510.442" r="14.4" fill="#009af9" fill-rule="evenodd" fill-opacity="1" stroke="#000000" stroke-opacity="1" stroke-width="3.84"/>
<circle clip-path="url(#clip593)" cx="1307.36" cy="717.227" r="14.4" fill="#009af9" fill-rule="evenodd" fill-opacity="1" stroke="#000000" stroke-opacity="1" stroke-width="3.84"/>
<circle clip-path="url(#clip593)" cx="1560.38" cy="613.834" r="14.4" fill="#009af9" fill-rule="evenodd" fill-opacity="1" stroke="#000000" stroke-opacity="1" stroke-width="3.84"/>
<circle clip-path="url(#clip593)" cx="1813.39" cy="665.531" r="14.4" fill="#009af9" fill-rule="evenodd" fill-opacity="1" stroke="#000000" stroke-opacity="1" stroke-width="3.84"/>
<circle clip-path="url(#clip593)" cx="2066.41" cy="639.683" r="14.4" fill="#009af9" fill-rule="evenodd" fill-opacity="1" stroke="#000000" stroke-opacity="1" stroke-width="3.84"/>
<circle clip-path="url(#clip593)" cx="2319.42" cy="652.607" r="14.4" fill="#009af9" fill-rule="evenodd" fill-opacity="1" stroke="#000000" stroke-opacity="1" stroke-width="3.84"/>
<circle clip-path="url(#clip593)" cx="2572.44" cy="1751.15" r="14.4" fill="#009af9" fill-rule="evenodd" fill-opacity="1" stroke="#000000" stroke-opacity="1" stroke-width="3.84"/>
<path clip-path="url(#clip590)" d="
M2074.82 222.035 L2560.3 222.035 L2560.3 105.695 L2074.82 105.695  Z
  " fill="#ffffff" fill-rule="evenodd" fill-opacity="1"/>
<polyline clip-path="url(#clip590)" style="stroke:#000000; stroke-linecap:round; stroke-linejoin:round; stroke-width:4; stroke-opacity:1; fill:none" points="
  2074.82,222.035 2560.3,222.035 2560.3,105.695 2074.82,105.695 2074.82,222.035 
  "/>
<circle clip-path="url(#clip590)" cx="2182.1" cy="163.865" r="23.04" fill="#009af9" fill-rule="evenodd" fill-opacity="1" stroke="#000000" stroke-opacity="1" stroke-width="6.144"/>
<path clip-path="url(#clip590)" d="M2334.6 181.115 L2330.48 193.06 L2290.71 193.06 Q2290.17 193.06 2289.96 193.037 Q2289.75 193.013 2289.59 192.896 Q2289.42 192.779 2289.42 192.521 Q2289.42 192.311 2289.84 191.772 L2306.87 170.715 L2289.37 146.637 Q2289.37 145.536 2289.56 145.325 Q2289.75 145.091 2290.71 145.091 L2330.48 145.091 L2334.6 156.31 L2333.41 156.31 Q2332.87 154.858 2332 153.64 Q2331.16 152.399 2330.18 151.509 Q2329.22 150.619 2327.95 149.916 Q2326.71 149.19 2325.54 148.745 Q2324.39 148.276 2322.96 147.948 Q2321.53 147.597 2320.39 147.433 Q2319.26 147.246 2317.86 147.152 Q2316.45 147.058 2315.56 147.035 Q2314.67 147.012 2313.55 147.012 L2294.55 147.012 L2310.13 168.396 Q2310.48 168.935 2310.48 169.075 Q2310.48 169.286 2310.03 169.848 L2293.4 190.413 L2313.78 190.413 Q2320.34 190.413 2324.91 189.031 Q2328 187.977 2330.25 185.893 Q2332.52 183.808 2333.41 181.115 L2334.6 181.115 Z" fill="#000000" fill-rule="evenodd" fill-opacity="1" /><path clip-path="url(#clip590)" d="M2367.56 169.075 Q2367.56 160.971 2370.59 154.436 Q2371.87 151.696 2373.68 149.401 Q2375.48 147.105 2376.68 146.098 Q2377.87 145.091 2378.2 145.091 Q2378.67 145.091 2378.69 145.559 Q2378.69 145.794 2378.06 146.379 Q2370.33 154.249 2370.35 169.075 Q2370.35 183.949 2377.87 191.514 Q2378.69 192.334 2378.69 192.592 Q2378.69 193.06 2378.2 193.06 Q2377.87 193.06 2376.72 192.1 Q2375.57 191.139 2373.79 188.938 Q2372.01 186.736 2370.73 184.042 Q2367.56 177.508 2367.56 169.075 Z" fill="#000000" fill-rule="evenodd" fill-opacity="1" /><path clip-path="url(#clip590)" d="M2417.65 168.396 Q2417.93 168.677 2417.93 169.075 Q2417.93 169.474 2417.65 169.755 Q2417.37 170.036 2416.97 170.036 L2386.94 170.036 Q2386.55 170.036 2386.27 169.755 Q2385.98 169.474 2385.98 169.075 Q2385.98 168.677 2386.27 168.396 Q2386.55 168.115 2386.94 168.115 L2416.97 168.115 Q2417.37 168.115 2417.65 168.396 Z" fill="#000000" fill-rule="evenodd" fill-opacity="1" /><path clip-path="url(#clip590)" d="M2422.94 153.687 L2422.94 152.188 Q2428.7 152.188 2431.68 149.12 Q2432.5 149.12 2432.64 149.307 Q2432.78 149.494 2432.78 150.361 L2432.78 177.273 Q2432.78 178.702 2433.48 179.147 Q2434.18 179.592 2437.25 179.592 L2438.77 179.592 L2438.77 181.068 Q2437.09 180.927 2431 180.927 Q2424.91 180.927 2423.25 181.068 L2423.25 179.592 L2424.77 179.592 Q2427.79 179.592 2428.52 179.171 Q2429.24 178.726 2429.24 177.273 L2429.24 152.422 Q2426.74 153.687 2422.94 153.687 Z" fill="#000000" fill-rule="evenodd" fill-opacity="1" /><path clip-path="url(#clip590)" d="M2446.7 192.381 Q2446.7 192.147 2446.88 191.631 L2463.82 146.379 Q2463.82 146.332 2463.94 146.075 Q2464.05 145.817 2464.12 145.653 Q2464.19 145.466 2464.33 145.325 Q2464.5 145.185 2464.69 145.185 Q2465.15 145.185 2465.15 145.77 Q2465.15 145.817 2465.01 146.379 L2448.03 191.678 Q2447.75 192.498 2447.56 192.732 Q2447.4 192.966 2447.12 192.966 Q2446.7 192.966 2446.7 192.381 Z" fill="#000000" fill-rule="evenodd" fill-opacity="1" /><path clip-path="url(#clip590)" d="M2470.45 181.068 Q2470.45 180.201 2470.52 179.943 Q2470.62 179.686 2470.99 179.288 L2480.2 169.029 Q2485.23 163.36 2485.23 158.418 Q2485.23 155.209 2483.55 152.914 Q2481.88 150.619 2478.82 150.619 Q2476.71 150.619 2474.93 151.907 Q2473.15 153.195 2472.33 155.49 Q2472.47 155.444 2472.96 155.444 Q2474.15 155.444 2474.81 156.193 Q2475.49 156.943 2475.49 157.95 Q2475.49 159.238 2474.65 159.87 Q2473.83 160.479 2473.01 160.479 Q2472.68 160.479 2472.23 160.409 Q2471.81 160.339 2471.13 159.683 Q2470.45 159.004 2470.45 157.809 Q2470.45 154.46 2472.98 151.79 Q2475.54 149.12 2479.42 149.12 Q2483.83 149.12 2486.71 151.743 Q2489.61 154.343 2489.61 158.418 Q2489.61 159.847 2489.17 161.159 Q2488.75 162.447 2488.16 163.454 Q2487.6 164.461 2486.05 166.077 Q2484.51 167.694 2483.27 168.841 Q2482.02 169.989 2479.24 172.425 L2474.15 177.367 L2482.8 177.367 Q2487.01 177.367 2487.34 176.992 Q2487.81 176.313 2488.39 172.729 L2489.61 172.729 L2488.25 181.068 L2470.45 181.068 Z" fill="#000000" fill-rule="evenodd" fill-opacity="1" /><path clip-path="url(#clip590)" d="M2494.21 192.592 Q2494.21 192.357 2494.82 191.772 Q2502.55 183.902 2502.55 169.075 Q2502.55 154.202 2495.12 146.684 Q2494.21 145.817 2494.21 145.559 Q2494.21 145.091 2494.68 145.091 Q2495.01 145.091 2496.15 146.051 Q2497.32 147.012 2499.08 149.213 Q2500.86 151.415 2502.17 154.109 Q2505.34 160.643 2505.34 169.075 Q2505.34 177.18 2502.31 183.715 Q2501.03 186.455 2499.22 188.75 Q2497.42 191.046 2496.22 192.053 Q2495.03 193.06 2494.68 193.06 Q2494.21 193.06 2494.21 192.592 Z" fill="#000000" fill-rule="evenodd" fill-opacity="1" /><path clip-path="url(#clip590)" d="M2528.54 144.676 Q2528.54 144.807 2528.39 145.316 Q2528.24 145.824 2527.88 146.611 Q2527.54 147.398 2527.06 148.119 Q2526.59 148.824 2525.8 149.349 Q2525.03 149.857 2524.14 149.857 Q2522.96 149.857 2522.17 149.07 Q2521.39 148.283 2521.39 147.103 Q2521.39 146.447 2521.73 145.545 Q2523.91 139.725 2523.91 137.725 Q2523.91 135.38 2522.09 135.38 Q2521.19 135.38 2520.34 135.724 Q2519.5 136.052 2518.93 136.511 Q2518.35 136.97 2517.83 137.61 Q2517.32 138.233 2517.06 138.659 Q2516.81 139.069 2516.62 139.479 L2516.19 141.151 Q2516.09 141.61 2515.62 143.397 L2514.88 146.431 Q2514.35 148.693 2514.24 148.906 Q2514.08 149.365 2513.71 149.611 Q2513.35 149.857 2512.99 149.857 Q2512.58 149.857 2512.3 149.611 Q2512.03 149.365 2512.03 148.939 Q2512.03 148.874 2512.08 148.628 Q2512.12 148.382 2512.21 148.037 Q2512.29 147.693 2512.32 147.496 L2514.27 139.741 Q2514.63 138.331 2514.71 137.889 Q2514.81 137.429 2514.81 136.921 Q2514.81 135.38 2513.76 135.38 Q2512.91 135.38 2512.35 136.396 Q2511.8 137.413 2511.32 139.381 Q2511.17 139.922 2511.07 140.036 Q2510.99 140.151 2510.75 140.151 Q2510.34 140.135 2510.34 139.807 Q2510.34 139.725 2510.47 139.184 Q2510.6 138.643 2510.85 137.872 Q2511.11 137.085 2511.35 136.56 Q2511.57 136.167 2511.68 135.987 Q2511.81 135.79 2512.12 135.413 Q2512.45 135.019 2512.88 134.839 Q2513.32 134.642 2513.86 134.642 Q2515.08 134.642 2515.96 135.429 Q2516.85 136.2 2516.96 137.561 Q2519.14 134.642 2522.19 134.642 Q2523.99 134.642 2525.03 135.593 Q2526.06 136.544 2526.06 138.233 Q2526.06 138.626 2525.98 139.135 Q2525.91 139.626 2525.75 140.249 Q2525.6 140.873 2525.47 141.348 Q2525.34 141.823 2525.08 142.594 Q2524.81 143.348 2524.7 143.676 Q2524.59 144.004 2524.31 144.775 Q2524.04 145.529 2524.01 145.611 Q2523.4 147.136 2523.4 148.005 Q2523.4 148.579 2523.58 148.841 Q2523.78 149.103 2524.21 149.103 Q2525.36 149.103 2526.21 147.972 Q2527.08 146.824 2527.63 144.955 Q2527.77 144.545 2527.83 144.447 Q2527.91 144.348 2528.14 144.348 Q2528.54 144.348 2528.54 144.676 Z" fill="#000000" fill-rule="evenodd" fill-opacity="1" /></svg>
