<?xml version="1.0" encoding="utf-8"?>
<svg xmlns="http://www.w3.org/2000/svg" xmlns:xlink="http://www.w3.org/1999/xlink" width="672" height="480" viewBox="0 0 2688 1920">
<defs>
  <clipPath id="clip310">
    <rect x="0" y="0" width="2688" height="1920"/>
  </clipPath>
</defs>
<path clip-path="url(#clip310)" d="
M0 1920 L2688 1920 L2688 0 L0 0  Z
  " fill="#ffffff" fill-rule="evenodd" fill-opacity="1"/>
<defs>
  <clipPath id="clip311">
    <rect x="537" y="0" width="1883" height="1883"/>
  </clipPath>
</defs>
<defs>
  <clipPath id="clip312">
    <rect x="159" y="47" width="2483" height="1755"/>
  </clipPath>
</defs>
<path clip-path="url(#clip310)" d="
M211.909 1800.78 L2640.76 1800.78 L2640.76 47.2441 L211.909 47.2441  Z
  " fill="#ffffff" fill-rule="evenodd" fill-opacity="1"/>
<defs>
  <clipPath id="clip313">
    <rect x="211" y="47" width="2430" height="1755"/>
  </clipPath>
</defs>
<polyline clip-path="url(#clip313)" style="stroke:#000000; stroke-linecap:round; stroke-linejoin:round; stroke-width:2; stroke-opacity:0.1; fill:none" points="
  280.649,1800.78 280.649,47.2441 
  "/>
<polyline clip-path="url(#clip313)" style="stroke:#000000; stroke-linecap:round; stroke-linejoin:round; stroke-width:2; stroke-opacity:0.1; fill:none" points="
  789.842,1800.78 789.842,47.2441 
  "/>
<polyline clip-path="url(#clip313)" style="stroke:#000000; stroke-linecap:round; stroke-linejoin:round; stroke-width:2; stroke-opacity:0.1; fill:none" points="
  1299.03,1800.78 1299.03,47.2441 
  "/>
<polyline clip-path="url(#clip313)" style="stroke:#000000; stroke-linecap:round; stroke-linejoin:round; stroke-width:2; stroke-opacity:0.1; fill:none" points="
  1808.23,1800.78 1808.23,47.2441 
  "/>
<polyline clip-path="url(#clip313)" style="stroke:#000000; stroke-linecap:round; stroke-linejoin:round; stroke-width:2; stroke-opacity:0.1; fill:none" points="
  2317.42,1800.78 2317.42,47.2441 
  "/>
<polyline clip-path="url(#clip310)" style="stroke:#000000; stroke-linecap:round; stroke-linejoin:round; stroke-width:4; stroke-opacity:1; fill:none" points="
  211.909,1800.78 2640.76,1800.78 
  "/>
<polyline clip-path="url(#clip310)" style="stroke:#000000; stroke-linecap:round; stroke-linejoin:round; stroke-width:4; stroke-opacity:1; fill:none" points="
  280.649,1800.78 280.649,1781.88 
  "/>
<polyline clip-path="url(#clip310)" style="stroke:#000000; stroke-linecap:round; stroke-linejoin:round; stroke-width:4; stroke-opacity:1; fill:none" points="
  789.842,1800.78 789.842,1781.88 
  "/>
<polyline clip-path="url(#clip310)" style="stroke:#000000; stroke-linecap:round; stroke-linejoin:round; stroke-width:4; stroke-opacity:1; fill:none" points="
  1299.03,1800.78 1299.03,1781.88 
  "/>
<polyline clip-path="url(#clip310)" style="stroke:#000000; stroke-linecap:round; stroke-linejoin:round; stroke-width:4; stroke-opacity:1; fill:none" points="
  1808.23,1800.78 1808.23,1781.88 
  "/>
<polyline clip-path="url(#clip310)" style="stroke:#000000; stroke-linecap:round; stroke-linejoin:round; stroke-width:4; stroke-opacity:1; fill:none" points="
  2317.42,1800.78 2317.42,1781.88 
  "/>
<path clip-path="url(#clip310)" d="M280.649 1834 Q277.038 1834 275.21 1837.57 Q273.404 1841.11 273.404 1848.24 Q273.404 1855.34 275.21 1858.91 Q277.038 1862.45 280.649 1862.45 Q284.284 1862.45 286.089 1858.91 Q287.918 1855.34 287.918 1848.24 Q287.918 1841.11 286.089 1837.57 Q284.284 1834 280.649 1834 M280.649 1830.3 Q286.46 1830.3 289.515 1834.9 Q292.594 1839.49 292.594 1848.24 Q292.594 1856.96 289.515 1861.57 Q286.46 1866.15 280.649 1866.15 Q274.839 1866.15 271.761 1861.57 Q268.705 1856.96 268.705 1848.24 Q268.705 1839.49 271.761 1834.9 Q274.839 1830.3 280.649 1830.3 Z" fill="#000000" fill-rule="evenodd" fill-opacity="1" /><path clip-path="url(#clip310)" d="M784.495 1861.55 L800.814 1861.55 L800.814 1865.48 L778.87 1865.48 L778.87 1861.55 Q781.532 1858.79 786.115 1854.16 Q790.721 1849.51 791.902 1848.17 Q794.147 1845.65 795.027 1843.91 Q795.93 1842.15 795.93 1840.46 Q795.93 1837.71 793.985 1835.97 Q792.064 1834.23 788.962 1834.23 Q786.763 1834.23 784.309 1835 Q781.879 1835.76 779.101 1837.31 L779.101 1832.59 Q781.925 1831.46 784.379 1830.88 Q786.833 1830.3 788.87 1830.3 Q794.24 1830.3 797.434 1832.98 Q800.629 1835.67 800.629 1840.16 Q800.629 1842.29 799.819 1844.21 Q799.032 1846.11 796.925 1848.7 Q796.346 1849.37 793.245 1852.59 Q790.143 1855.78 784.495 1861.55 Z" fill="#000000" fill-rule="evenodd" fill-opacity="1" /><path clip-path="url(#clip310)" d="M1302.04 1835 L1290.24 1853.45 L1302.04 1853.45 L1302.04 1835 M1300.82 1830.92 L1306.7 1830.92 L1306.7 1853.45 L1311.63 1853.45 L1311.63 1857.34 L1306.7 1857.34 L1306.7 1865.48 L1302.04 1865.48 L1302.04 1857.34 L1286.44 1857.34 L1286.44 1852.82 L1300.82 1830.92 Z" fill="#000000" fill-rule="evenodd" fill-opacity="1" /><path clip-path="url(#clip310)" d="M1808.63 1846.34 Q1805.48 1846.34 1803.63 1848.49 Q1801.8 1850.65 1801.8 1854.4 Q1801.8 1858.12 1803.63 1860.3 Q1805.48 1862.45 1808.63 1862.45 Q1811.78 1862.45 1813.61 1860.3 Q1815.46 1858.12 1815.46 1854.4 Q1815.46 1850.65 1813.61 1848.49 Q1811.78 1846.34 1808.63 1846.34 M1817.91 1831.69 L1817.91 1835.95 Q1816.15 1835.11 1814.35 1834.67 Q1812.57 1834.23 1810.81 1834.23 Q1806.18 1834.23 1803.72 1837.36 Q1801.29 1840.48 1800.95 1846.8 Q1802.31 1844.79 1804.37 1843.72 Q1806.43 1842.64 1808.91 1842.64 Q1814.12 1842.64 1817.13 1845.81 Q1820.16 1848.96 1820.16 1854.4 Q1820.16 1859.72 1817.01 1862.94 Q1813.86 1866.15 1808.63 1866.15 Q1802.64 1866.15 1799.46 1861.57 Q1796.29 1856.96 1796.29 1848.24 Q1796.29 1840.04 1800.18 1835.18 Q1804.07 1830.3 1810.62 1830.3 Q1812.38 1830.3 1814.16 1830.65 Q1815.97 1830.99 1817.91 1831.69 Z" fill="#000000" fill-rule="evenodd" fill-opacity="1" /><path clip-path="url(#clip310)" d="M2317.42 1849.07 Q2314.09 1849.07 2312.16 1850.85 Q2310.27 1852.64 2310.27 1855.76 Q2310.27 1858.89 2312.16 1860.67 Q2314.09 1862.45 2317.42 1862.45 Q2320.75 1862.45 2322.67 1860.67 Q2324.59 1858.86 2324.59 1855.76 Q2324.59 1852.64 2322.67 1850.85 Q2320.78 1849.07 2317.42 1849.07 M2312.74 1847.08 Q2309.73 1846.34 2308.04 1844.28 Q2306.38 1842.22 2306.38 1839.26 Q2306.38 1835.11 2309.32 1832.71 Q2312.28 1830.3 2317.42 1830.3 Q2322.58 1830.3 2325.52 1832.71 Q2328.46 1835.11 2328.46 1839.26 Q2328.46 1842.22 2326.77 1844.28 Q2325.1 1846.34 2322.12 1847.08 Q2325.5 1847.87 2327.37 1850.16 Q2329.27 1852.45 2329.27 1855.76 Q2329.27 1860.78 2326.19 1863.47 Q2323.14 1866.15 2317.42 1866.15 Q2311.7 1866.15 2308.62 1863.47 Q2305.57 1860.78 2305.57 1855.76 Q2305.57 1852.45 2307.47 1850.16 Q2309.36 1847.87 2312.74 1847.08 M2311.03 1839.7 Q2311.03 1842.38 2312.7 1843.89 Q2314.39 1845.39 2317.42 1845.39 Q2320.43 1845.39 2322.12 1843.89 Q2323.83 1842.38 2323.83 1839.7 Q2323.83 1837.01 2322.12 1835.51 Q2320.43 1834 2317.42 1834 Q2314.39 1834 2312.7 1835.51 Q2311.03 1837.01 2311.03 1839.7 Z" fill="#000000" fill-rule="evenodd" fill-opacity="1" /><polyline clip-path="url(#clip313)" style="stroke:#000000; stroke-linecap:round; stroke-linejoin:round; stroke-width:2; stroke-opacity:0.1; fill:none" points="
  211.909,1618.68 2640.76,1618.68 
  "/>
<polyline clip-path="url(#clip313)" style="stroke:#000000; stroke-linecap:round; stroke-linejoin:round; stroke-width:2; stroke-opacity:0.1; fill:none" points="
  211.909,1295.58 2640.76,1295.58 
  "/>
<polyline clip-path="url(#clip313)" style="stroke:#000000; stroke-linecap:round; stroke-linejoin:round; stroke-width:2; stroke-opacity:0.1; fill:none" points="
  211.909,972.477 2640.76,972.477 
  "/>
<polyline clip-path="url(#clip313)" style="stroke:#000000; stroke-linecap:round; stroke-linejoin:round; stroke-width:2; stroke-opacity:0.1; fill:none" points="
  211.909,649.376 2640.76,649.376 
  "/>
<polyline clip-path="url(#clip313)" style="stroke:#000000; stroke-linecap:round; stroke-linejoin:round; stroke-width:2; stroke-opacity:0.1; fill:none" points="
  211.909,326.274 2640.76,326.274 
  "/>
<polyline clip-path="url(#clip310)" style="stroke:#000000; stroke-linecap:round; stroke-linejoin:round; stroke-width:4; stroke-opacity:1; fill:none" points="
  211.909,1800.78 211.909,47.2441 
  "/>
<polyline clip-path="url(#clip310)" style="stroke:#000000; stroke-linecap:round; stroke-linejoin:round; stroke-width:4; stroke-opacity:1; fill:none" points="
  211.909,1618.68 230.806,1618.68 
  "/>
<polyline clip-path="url(#clip310)" style="stroke:#000000; stroke-linecap:round; stroke-linejoin:round; stroke-width:4; stroke-opacity:1; fill:none" points="
  211.909,1295.58 230.806,1295.58 
  "/>
<polyline clip-path="url(#clip310)" style="stroke:#000000; stroke-linecap:round; stroke-linejoin:round; stroke-width:4; stroke-opacity:1; fill:none" points="
  211.909,972.477 230.806,972.477 
  "/>
<polyline clip-path="url(#clip310)" style="stroke:#000000; stroke-linecap:round; stroke-linejoin:round; stroke-width:4; stroke-opacity:1; fill:none" points="
  211.909,649.376 230.806,649.376 
  "/>
<polyline clip-path="url(#clip310)" style="stroke:#000000; stroke-linecap:round; stroke-linejoin:round; stroke-width:4; stroke-opacity:1; fill:none" points="
  211.909,326.274 230.806,326.274 
  "/>
<path clip-path="url(#clip310)" d="M49.5521 1619.13 L79.2279 1619.13 L79.2279 1623.07 L49.5521 1623.07 L49.5521 1619.13 Z" fill="#000000" fill-rule="evenodd" fill-opacity="1" /><path clip-path="url(#clip310)" d="M103.487 1617.33 Q106.843 1618.04 108.718 1620.31 Q110.617 1622.58 110.617 1625.91 Q110.617 1631.03 107.098 1633.83 Q103.58 1636.63 97.0982 1636.63 Q94.9223 1636.63 92.6075 1636.19 Q90.3158 1635.77 87.8621 1634.92 L87.8621 1630.4 Q89.8065 1631.54 92.1213 1632.12 Q94.4361 1632.7 96.9593 1632.7 Q101.357 1632.7 103.649 1630.96 Q105.964 1629.22 105.964 1625.91 Q105.964 1622.86 103.811 1621.14 Q101.681 1619.41 97.8621 1619.41 L93.8343 1619.41 L93.8343 1615.57 L98.0472 1615.57 Q101.496 1615.57 103.325 1614.2 Q105.154 1612.81 105.154 1610.22 Q105.154 1607.56 103.256 1606.14 Q101.381 1604.71 97.8621 1604.71 Q95.9408 1604.71 93.7417 1605.13 Q91.5426 1605.54 88.9038 1606.42 L88.9038 1602.26 Q91.5658 1601.52 93.8806 1601.14 Q96.2185 1600.77 98.2787 1600.77 Q103.603 1600.77 106.705 1603.2 Q109.806 1605.61 109.806 1609.73 Q109.806 1612.6 108.163 1614.59 Q106.519 1616.56 103.487 1617.33 Z" fill="#000000" fill-rule="evenodd" fill-opacity="1" /><path clip-path="url(#clip310)" d="M129.482 1604.48 Q125.871 1604.48 124.042 1608.04 Q122.237 1611.58 122.237 1618.71 Q122.237 1625.82 124.042 1629.39 Q125.871 1632.93 129.482 1632.93 Q133.116 1632.93 134.922 1629.39 Q136.751 1625.82 136.751 1618.71 Q136.751 1611.58 134.922 1608.04 Q133.116 1604.48 129.482 1604.48 M129.482 1600.77 Q135.292 1600.77 138.348 1605.38 Q141.427 1609.96 141.427 1618.71 Q141.427 1627.44 138.348 1632.05 Q135.292 1636.63 129.482 1636.63 Q123.672 1636.63 120.593 1632.05 Q117.538 1627.44 117.538 1618.71 Q117.538 1609.96 120.593 1605.38 Q123.672 1600.77 129.482 1600.77 Z" fill="#000000" fill-rule="evenodd" fill-opacity="1" /><path clip-path="url(#clip310)" d="M159.644 1604.48 Q156.033 1604.48 154.204 1608.04 Q152.399 1611.58 152.399 1618.71 Q152.399 1625.82 154.204 1629.39 Q156.033 1632.93 159.644 1632.93 Q163.278 1632.93 165.084 1629.39 Q166.913 1625.82 166.913 1618.71 Q166.913 1611.58 165.084 1608.04 Q163.278 1604.48 159.644 1604.48 M159.644 1600.77 Q165.454 1600.77 168.51 1605.38 Q171.589 1609.96 171.589 1618.71 Q171.589 1627.44 168.51 1632.05 Q165.454 1636.63 159.644 1636.63 Q153.834 1636.63 150.755 1632.05 Q147.7 1627.44 147.7 1618.71 Q147.7 1609.96 150.755 1605.38 Q153.834 1600.77 159.644 1600.77 Z" fill="#000000" fill-rule="evenodd" fill-opacity="1" /><path clip-path="url(#clip310)" d="M49.5521 1296.03 L79.2279 1296.03 L79.2279 1299.96 L49.5521 1299.96 L49.5521 1296.03 Z" fill="#000000" fill-rule="evenodd" fill-opacity="1" /><path clip-path="url(#clip310)" d="M93.3482 1308.92 L109.668 1308.92 L109.668 1312.86 L87.7232 1312.86 L87.7232 1308.92 Q90.3852 1306.17 94.9685 1301.54 Q99.575 1296.89 100.756 1295.54 Q103.001 1293.02 103.881 1291.28 Q104.783 1289.52 104.783 1287.84 Q104.783 1285.08 102.839 1283.34 Q100.918 1281.61 97.8158 1281.61 Q95.6167 1281.61 93.163 1282.37 Q90.7325 1283.14 87.9547 1284.69 L87.9547 1279.96 Q90.7788 1278.83 93.2324 1278.25 Q95.6861 1277.67 97.7232 1277.67 Q103.094 1277.67 106.288 1280.36 Q109.482 1283.04 109.482 1287.53 Q109.482 1289.66 108.672 1291.59 Q107.885 1293.48 105.779 1296.08 Q105.2 1296.75 102.098 1299.96 Q98.9963 1303.16 93.3482 1308.92 Z" fill="#000000" fill-rule="evenodd" fill-opacity="1" /><path clip-path="url(#clip310)" d="M129.482 1281.38 Q125.871 1281.38 124.042 1284.94 Q122.237 1288.48 122.237 1295.61 Q122.237 1302.72 124.042 1306.28 Q125.871 1309.83 129.482 1309.83 Q133.116 1309.83 134.922 1306.28 Q136.751 1302.72 136.751 1295.61 Q136.751 1288.48 134.922 1284.94 Q133.116 1281.38 129.482 1281.38 M129.482 1277.67 Q135.292 1277.67 138.348 1282.28 Q141.427 1286.86 141.427 1295.61 Q141.427 1304.34 138.348 1308.95 Q135.292 1313.53 129.482 1313.53 Q123.672 1313.53 120.593 1308.95 Q117.538 1304.34 117.538 1295.61 Q117.538 1286.86 120.593 1282.28 Q123.672 1277.67 129.482 1277.67 Z" fill="#000000" fill-rule="evenodd" fill-opacity="1" /><path clip-path="url(#clip310)" d="M159.644 1281.38 Q156.033 1281.38 154.204 1284.94 Q152.399 1288.48 152.399 1295.61 Q152.399 1302.72 154.204 1306.28 Q156.033 1309.83 159.644 1309.83 Q163.278 1309.83 165.084 1306.28 Q166.913 1302.72 166.913 1295.61 Q166.913 1288.48 165.084 1284.94 Q163.278 1281.38 159.644 1281.38 M159.644 1277.67 Q165.454 1277.67 168.51 1282.28 Q171.589 1286.86 171.589 1295.61 Q171.589 1304.34 168.51 1308.95 Q165.454 1313.53 159.644 1313.53 Q153.834 1313.53 150.755 1308.95 Q147.7 1304.34 147.7 1295.61 Q147.7 1286.86 150.755 1282.28 Q153.834 1277.67 159.644 1277.67 Z" fill="#000000" fill-rule="evenodd" fill-opacity="1" /><path clip-path="url(#clip310)" d="M49.5521 972.928 L79.2279 972.928 L79.2279 976.863 L49.5521 976.863 L49.5521 972.928 Z" fill="#000000" fill-rule="evenodd" fill-opacity="1" /><path clip-path="url(#clip310)" d="M90.1306 985.822 L97.7695 985.822 L97.7695 959.456 L89.4593 961.123 L89.4593 956.864 L97.7232 955.197 L102.399 955.197 L102.399 985.822 L110.038 985.822 L110.038 989.757 L90.1306 989.757 L90.1306 985.822 Z" fill="#000000" fill-rule="evenodd" fill-opacity="1" /><path clip-path="url(#clip310)" d="M129.482 958.276 Q125.871 958.276 124.042 961.84 Q122.237 965.382 122.237 972.512 Q122.237 979.618 124.042 983.183 Q125.871 986.724 129.482 986.724 Q133.116 986.724 134.922 983.183 Q136.751 979.618 136.751 972.512 Q136.751 965.382 134.922 961.84 Q133.116 958.276 129.482 958.276 M129.482 954.572 Q135.292 954.572 138.348 959.178 Q141.427 963.762 141.427 972.512 Q141.427 981.238 138.348 985.845 Q135.292 990.428 129.482 990.428 Q123.672 990.428 120.593 985.845 Q117.538 981.238 117.538 972.512 Q117.538 963.762 120.593 959.178 Q123.672 954.572 129.482 954.572 Z" fill="#000000" fill-rule="evenodd" fill-opacity="1" /><path clip-path="url(#clip310)" d="M159.644 958.276 Q156.033 958.276 154.204 961.84 Q152.399 965.382 152.399 972.512 Q152.399 979.618 154.204 983.183 Q156.033 986.724 159.644 986.724 Q163.278 986.724 165.084 983.183 Q166.913 979.618 166.913 972.512 Q166.913 965.382 165.084 961.84 Q163.278 958.276 159.644 958.276 M159.644 954.572 Q165.454 954.572 168.51 959.178 Q171.589 963.762 171.589 972.512 Q171.589 981.238 168.51 985.845 Q165.454 990.428 159.644 990.428 Q153.834 990.428 150.755 985.845 Q147.7 981.238 147.7 972.512 Q147.7 963.762 150.755 959.178 Q153.834 954.572 159.644 954.572 Z" fill="#000000" fill-rule="evenodd" fill-opacity="1" /><path clip-path="url(#clip310)" d="M159.644 635.174 Q156.033 635.174 154.204 638.739 Q152.399 642.281 152.399 649.41 Q152.399 656.517 154.204 660.082 Q156.033 663.623 159.644 663.623 Q163.278 663.623 165.084 660.082 Q166.913 656.517 166.913 649.41 Q166.913 642.281 165.084 638.739 Q163.278 635.174 159.644 635.174 M159.644 631.471 Q165.454 631.471 168.51 636.077 Q171.589 640.66 171.589 649.41 Q171.589 658.137 168.51 662.744 Q165.454 667.327 159.644 667.327 Q153.834 667.327 150.755 662.744 Q147.7 658.137 147.7 649.41 Q147.7 640.66 150.755 636.077 Q153.834 631.471 159.644 631.471 Z" fill="#000000" fill-rule="evenodd" fill-opacity="1" /><path clip-path="url(#clip310)" d="M90.1306 339.619 L97.7695 339.619 L97.7695 313.254 L89.4593 314.92 L89.4593 310.661 L97.7232 308.994 L102.399 308.994 L102.399 339.619 L110.038 339.619 L110.038 343.554 L90.1306 343.554 L90.1306 339.619 Z" fill="#000000" fill-rule="evenodd" fill-opacity="1" /><path clip-path="url(#clip310)" d="M129.482 312.073 Q125.871 312.073 124.042 315.638 Q122.237 319.179 122.237 326.309 Q122.237 333.416 124.042 336.98 Q125.871 340.522 129.482 340.522 Q133.116 340.522 134.922 336.98 Q136.751 333.416 136.751 326.309 Q136.751 319.179 134.922 315.638 Q133.116 312.073 129.482 312.073 M129.482 308.369 Q135.292 308.369 138.348 312.976 Q141.427 317.559 141.427 326.309 Q141.427 335.036 138.348 339.642 Q135.292 344.226 129.482 344.226 Q123.672 344.226 120.593 339.642 Q117.538 335.036 117.538 326.309 Q117.538 317.559 120.593 312.976 Q123.672 308.369 129.482 308.369 Z" fill="#000000" fill-rule="evenodd" fill-opacity="1" /><path clip-path="url(#clip310)" d="M159.644 312.073 Q156.033 312.073 154.204 315.638 Q152.399 319.179 152.399 326.309 Q152.399 333.416 154.204 336.98 Q156.033 340.522 159.644 340.522 Q163.278 340.522 165.084 336.98 Q166.913 333.416 166.913 326.309 Q166.913 319.179 165.084 315.638 Q163.278 312.073 159.644 312.073 M159.644 308.369 Q165.454 308.369 168.51 312.976 Q171.589 317.559 171.589 326.309 Q171.589 335.036 168.51 339.642 Q165.454 344.226 159.644 344.226 Q153.834 344.226 150.755 339.642 Q147.7 335.036 147.7 326.309 Q147.7 317.559 150.755 312.976 Q153.834 308.369 159.644 308.369 Z" fill="#000000" fill-rule="evenodd" fill-opacity="1" /><circle clip-path="url(#clip313)" cx="280.649" cy="646.145" r="14.4" fill="#009af9" fill-rule="evenodd" fill-opacity="1" stroke="#000000" stroke-opacity="1" stroke-width="3.84"/>
<circle clip-path="url(#clip313)" cx="535.246" cy="652.607" r="14.4" fill="#009af9" fill-rule="evenodd" fill-opacity="1" stroke="#000000" stroke-opacity="1" stroke-width="3.84"/>
<circle clip-path="url(#clip313)" cx="789.842" cy="639.683" r="14.4" fill="#009af9" fill-rule="evenodd" fill-opacity="1" stroke="#000000" stroke-opacity="1" stroke-width="3.84"/>
<circle clip-path="url(#clip313)" cx="1044.44" cy="665.531" r="14.4" fill="#009af9" fill-rule="evenodd" fill-opacity="1" stroke="#000000" stroke-opacity="1" stroke-width="3.84"/>
<circle clip-path="url(#clip313)" cx="1299.03" cy="613.834" r="14.4" fill="#009af9" fill-rule="evenodd" fill-opacity="1" stroke="#000000" stroke-opacity="1" stroke-width="3.84"/>
<circle clip-path="url(#clip313)" cx="1553.63" cy="717.227" r="14.4" fill="#009af9" fill-rule="evenodd" fill-opacity="1" stroke="#000000" stroke-opacity="1" stroke-width="3.84"/>
<circle clip-path="url(#clip313)" cx="1808.23" cy="510.442" r="14.4" fill="#009af9" fill-rule="evenodd" fill-opacity="1" stroke="#000000" stroke-opacity="1" stroke-width="3.84"/>
<circle clip-path="url(#clip313)" cx="2062.82" cy="924.012" r="14.4" fill="#009af9" fill-rule="evenodd" fill-opacity="1" stroke="#000000" stroke-opacity="1" stroke-width="3.84"/>
<circle clip-path="url(#clip313)" cx="2317.42" cy="96.8724" r="14.4" fill="#009af9" fill-rule="evenodd" fill-opacity="1" stroke="#000000" stroke-opacity="1" stroke-width="3.84"/>
<circle clip-path="url(#clip313)" cx="2572.01" cy="1751.15" r="14.4" fill="#009af9" fill-rule="evenodd" fill-opacity="1" stroke="#000000" stroke-opacity="1" stroke-width="3.84"/>
<path clip-path="url(#clip310)" d="
M2093.33 222.035 L2559.79 222.035 L2559.79 105.695 L2093.33 105.695  Z
  " fill="#ffffff" fill-rule="evenodd" fill-opacity="1"/>
<polyline clip-path="url(#clip310)" style="stroke:#000000; stroke-linecap:round; stroke-linejoin:round; stroke-width:4; stroke-opacity:1; fill:none" points="
  2093.33,222.035 2559.79,222.035 2559.79,105.695 2093.33,105.695 2093.33,222.035 
  "/>
<circle clip-path="url(#clip310)" cx="2201.28" cy="163.865" r="23.04" fill="#009af9" fill-rule="evenodd" fill-opacity="1" stroke="#000000" stroke-opacity="1" stroke-width="6.144"/>
<path clip-path="url(#clip310)" d="M2354.46 181.115 L2350.34 193.06 L2310.57 193.06 Q2310.03 193.06 2309.82 193.037 Q2309.6 193.013 2309.44 192.896 Q2309.28 192.779 2309.28 192.521 Q2309.28 192.311 2309.7 191.772 L2326.73 170.715 L2309.23 146.637 Q2309.23 145.536 2309.42 145.325 Q2309.6 145.091 2310.57 145.091 L2350.34 145.091 L2354.46 156.31 L2353.26 156.31 Q2352.73 154.858 2351.86 153.64 Q2351.02 152.399 2350.03 151.509 Q2349.07 150.619 2347.81 149.916 Q2346.57 149.19 2345.39 148.745 Q2344.25 148.276 2342.82 147.948 Q2341.39 147.597 2340.24 147.433 Q2339.12 147.246 2337.71 147.152 Q2336.31 147.058 2335.42 147.035 Q2334.53 147.012 2333.4 147.012 L2314.41 147.012 L2329.98 168.396 Q2330.33 168.935 2330.33 169.075 Q2330.33 169.286 2329.89 169.848 L2313.26 190.413 L2333.64 190.413 Q2340.19 190.413 2344.76 189.031 Q2347.85 187.977 2350.1 185.893 Q2352.37 183.808 2353.26 181.115 L2354.46 181.115 Z" fill="#000000" fill-rule="evenodd" fill-opacity="1" /><path clip-path="url(#clip310)" d="M2387.42 169.075 Q2387.42 160.971 2390.44 154.436 Q2391.73 151.696 2393.53 149.401 Q2395.34 147.105 2396.53 146.098 Q2397.73 145.091 2398.05 145.091 Q2398.52 145.091 2398.54 145.559 Q2398.54 145.794 2397.91 146.379 Q2390.18 154.249 2390.21 169.075 Q2390.21 183.949 2397.73 191.514 Q2398.54 192.334 2398.54 192.592 Q2398.54 193.06 2398.05 193.06 Q2397.73 193.06 2396.58 192.1 Q2395.43 191.139 2393.65 188.938 Q2391.87 186.736 2390.58 184.042 Q2387.42 177.508 2387.42 169.075 Z" fill="#000000" fill-rule="evenodd" fill-opacity="1" /><path clip-path="url(#clip310)" d="M2437.51 168.396 Q2437.79 168.677 2437.79 169.075 Q2437.79 169.474 2437.51 169.755 Q2437.23 170.036 2436.83 170.036 L2406.8 170.036 Q2406.4 170.036 2406.12 169.755 Q2405.84 169.474 2405.84 169.075 Q2405.84 168.677 2406.12 168.396 Q2406.4 168.115 2406.8 168.115 L2436.83 168.115 Q2437.23 168.115 2437.51 168.396 Z" fill="#000000" fill-rule="evenodd" fill-opacity="1" /><path clip-path="url(#clip310)" d="M2442.8 181.068 Q2442.8 180.201 2442.87 179.943 Q2442.96 179.686 2443.34 179.288 L2452.54 169.029 Q2457.58 163.36 2457.58 158.418 Q2457.58 155.209 2455.89 152.914 Q2454.23 150.619 2451.16 150.619 Q2449.05 150.619 2447.27 151.907 Q2445.49 153.195 2444.67 155.49 Q2444.81 155.444 2445.3 155.444 Q2446.5 155.444 2447.15 156.193 Q2447.83 156.943 2447.83 157.95 Q2447.83 159.238 2446.99 159.87 Q2446.17 160.479 2445.35 160.479 Q2445.02 160.479 2444.58 160.409 Q2444.15 160.339 2443.48 159.683 Q2442.8 159.004 2442.8 157.809 Q2442.8 154.46 2445.33 151.79 Q2447.88 149.12 2451.77 149.12 Q2456.17 149.12 2459.05 151.743 Q2461.96 154.343 2461.96 158.418 Q2461.96 159.847 2461.51 161.159 Q2461.09 162.447 2460.5 163.454 Q2459.94 164.461 2458.4 166.077 Q2456.85 167.694 2455.61 168.841 Q2454.37 169.989 2451.58 172.425 L2446.5 177.367 L2455.14 177.367 Q2459.36 177.367 2459.68 176.992 Q2460.15 176.313 2460.74 172.729 L2461.96 172.729 L2460.6 181.068 L2442.8 181.068 Z" fill="#000000" fill-rule="evenodd" fill-opacity="1" /><path clip-path="url(#clip310)" d="M2466.55 192.592 Q2466.55 192.357 2467.16 191.772 Q2474.89 183.902 2474.89 169.075 Q2474.89 154.202 2467.47 146.684 Q2466.55 145.817 2466.55 145.559 Q2466.55 145.091 2467.02 145.091 Q2467.35 145.091 2468.5 146.051 Q2469.67 147.012 2471.42 149.213 Q2473.2 151.415 2474.52 154.109 Q2477.68 160.643 2477.68 169.075 Q2477.68 177.18 2474.66 183.715 Q2473.37 186.455 2471.57 188.75 Q2469.76 191.046 2468.57 192.053 Q2467.37 193.06 2467.02 193.06 Q2466.55 193.06 2466.55 192.592 Z" fill="#000000" fill-rule="evenodd" fill-opacity="1" /><path clip-path="url(#clip310)" d="M2500.88 144.676 Q2500.88 144.807 2500.73 145.316 Q2500.58 145.824 2500.22 146.611 Q2499.88 147.398 2499.4 148.119 Q2498.93 148.824 2498.14 149.349 Q2497.37 149.857 2496.49 149.857 Q2495.3 149.857 2494.52 149.07 Q2493.73 148.283 2493.73 147.103 Q2493.73 146.447 2494.08 145.545 Q2496.26 139.725 2496.26 137.725 Q2496.26 135.38 2494.44 135.38 Q2493.53 135.38 2492.68 135.724 Q2491.85 136.052 2491.27 136.511 Q2490.7 136.97 2490.17 137.61 Q2489.66 138.233 2489.4 138.659 Q2489.16 139.069 2488.96 139.479 L2488.53 141.151 Q2488.44 141.61 2487.96 143.397 L2487.22 146.431 Q2486.7 148.693 2486.58 148.906 Q2486.42 149.365 2486.06 149.611 Q2485.7 149.857 2485.34 149.857 Q2484.93 149.857 2484.65 149.611 Q2484.37 149.365 2484.37 148.939 Q2484.37 148.874 2484.42 148.628 Q2484.47 148.382 2484.55 148.037 Q2484.63 147.693 2484.66 147.496 L2486.62 139.741 Q2486.98 138.331 2487.06 137.889 Q2487.16 137.429 2487.16 136.921 Q2487.16 135.38 2486.11 135.38 Q2485.25 135.38 2484.7 136.396 Q2484.14 137.413 2483.66 139.381 Q2483.52 139.922 2483.42 140.036 Q2483.34 140.151 2483.09 140.151 Q2482.68 140.135 2482.68 139.807 Q2482.68 139.725 2482.81 139.184 Q2482.94 138.643 2483.19 137.872 Q2483.45 137.085 2483.7 136.56 Q2483.91 136.167 2484.02 135.987 Q2484.16 135.79 2484.47 135.413 Q2484.8 135.019 2485.22 134.839 Q2485.66 134.642 2486.21 134.642 Q2487.42 134.642 2488.3 135.429 Q2489.19 136.2 2489.3 137.561 Q2491.48 134.642 2494.53 134.642 Q2496.34 134.642 2497.37 135.593 Q2498.4 136.544 2498.4 138.233 Q2498.4 138.626 2498.32 139.135 Q2498.26 139.626 2498.09 140.249 Q2497.94 140.873 2497.81 141.348 Q2497.68 141.823 2497.42 142.594 Q2497.16 143.348 2497.04 143.676 Q2496.93 144.004 2496.65 144.775 Q2496.39 145.529 2496.35 145.611 Q2495.75 147.136 2495.75 148.005 Q2495.75 148.579 2495.93 148.841 Q2496.12 149.103 2496.55 149.103 Q2497.7 149.103 2498.55 147.972 Q2499.42 146.824 2499.98 144.955 Q2500.11 144.545 2500.17 144.447 Q2500.26 144.348 2500.49 144.348 Q2500.88 144.348 2500.88 144.676 Z" fill="#000000" fill-rule="evenodd" fill-opacity="1" /></svg>
