<?xml version="1.0" encoding="utf-8"?>
<svg xmlns="http://www.w3.org/2000/svg" xmlns:xlink="http://www.w3.org/1999/xlink" width="672" height="480" viewBox="0 0 2688 1920">
<defs>
  <clipPath id="clip670">
    <rect x="0" y="0" width="2688" height="1920"/>
  </clipPath>
</defs>
<path clip-path="url(#clip670)" d="
M0 1920 L2688 1920 L2688 0 L0 0  Z
  " fill="#ffffff" fill-rule="evenodd" fill-opacity="1"/>
<defs>
  <clipPath id="clip671">
    <rect x="537" y="0" width="1883" height="1883"/>
  </clipPath>
</defs>
<defs>
  <clipPath id="clip672">
    <rect x="188" y="47" width="2453" height="1755"/>
  </clipPath>
</defs>
<path clip-path="url(#clip670)" d="
M202.163 1800.78 L2640.76 1800.78 L2640.76 47.2441 L202.163 47.2441  Z
  " fill="#ffffff" fill-rule="evenodd" fill-opacity="1"/>
<defs>
  <clipPath id="clip673">
    <rect x="202" y="47" width="2440" height="1755"/>
  </clipPath>
</defs>
<polyline clip-path="url(#clip673)" style="stroke:#000000; stroke-linecap:round; stroke-linejoin:round; stroke-width:2; stroke-opacity:0.1; fill:none" points="
  271.18,1800.78 271.18,47.2441 
  "/>
<polyline clip-path="url(#clip673)" style="stroke:#000000; stroke-linecap:round; stroke-linejoin:round; stroke-width:2; stroke-opacity:0.1; fill:none" points="
  782.415,1800.78 782.415,47.2441 
  "/>
<polyline clip-path="url(#clip673)" style="stroke:#000000; stroke-linecap:round; stroke-linejoin:round; stroke-width:2; stroke-opacity:0.1; fill:none" points="
  1293.65,1800.78 1293.65,47.2441 
  "/>
<polyline clip-path="url(#clip673)" style="stroke:#000000; stroke-linecap:round; stroke-linejoin:round; stroke-width:2; stroke-opacity:0.1; fill:none" points="
  1804.89,1800.78 1804.89,47.2441 
  "/>
<polyline clip-path="url(#clip673)" style="stroke:#000000; stroke-linecap:round; stroke-linejoin:round; stroke-width:2; stroke-opacity:0.1; fill:none" points="
  2316.12,1800.78 2316.12,47.2441 
  "/>
<polyline clip-path="url(#clip670)" style="stroke:#000000; stroke-linecap:round; stroke-linejoin:round; stroke-width:4; stroke-opacity:1; fill:none" points="
  202.163,1800.78 2640.76,1800.78 
  "/>
<polyline clip-path="url(#clip670)" style="stroke:#000000; stroke-linecap:round; stroke-linejoin:round; stroke-width:4; stroke-opacity:1; fill:none" points="
  271.18,1800.78 271.18,1781.88 
  "/>
<polyline clip-path="url(#clip670)" style="stroke:#000000; stroke-linecap:round; stroke-linejoin:round; stroke-width:4; stroke-opacity:1; fill:none" points="
  782.415,1800.78 782.415,1781.88 
  "/>
<polyline clip-path="url(#clip670)" style="stroke:#000000; stroke-linecap:round; stroke-linejoin:round; stroke-width:4; stroke-opacity:1; fill:none" points="
  1293.65,1800.78 1293.65,1781.88 
  "/>
<polyline clip-path="url(#clip670)" style="stroke:#000000; stroke-linecap:round; stroke-linejoin:round; stroke-width:4; stroke-opacity:1; fill:none" points="
  1804.89,1800.78 1804.89,1781.88 
  "/>
<polyline clip-path="url(#clip670)" style="stroke:#000000; stroke-linecap:round; stroke-linejoin:round; stroke-width:4; stroke-opacity:1; fill:none" points="
  2316.12,1800.78 2316.12,1781.88 
  "/>
<path clip-path="url(#clip670)" d="M271.18 1834 Q267.569 1834 265.74 1837.57 Q263.935 1841.11 263.935 1848.24 Q263.935 1855.34 265.74 1858.91 Q267.569 1862.45 271.18 1862.45 Q274.814 1862.45 276.62 1858.91 Q278.448 1855.34 278.448 1848.24 Q278.448 1841.11 276.62 1837.57 Q274.814 1834 271.18 1834 M271.18 1830.3 Q276.99 1830.3 280.046 1834.9 Q283.124 1839.49 283.124 1848.24 Q283.124 1856.96 280.046 1861.57 Q276.99 1866.15 271.18 1866.15 Q265.37 1866.15 262.291 1861.57 Q259.236 1856.96 259.236 1848.24 Q259.236 1839.49 262.291 1834.9 Q265.37 1830.3 271.18 1830.3 Z" fill="#000000" fill-rule="evenodd" fill-opacity="1" /><path clip-path="url(#clip670)" d="M777.068 1861.55 L793.387 1861.55 L793.387 1865.48 L771.443 1865.48 L771.443 1861.55 Q774.105 1858.79 778.689 1854.16 Q783.295 1849.51 784.476 1848.17 Q786.721 1845.65 787.6 1843.91 Q788.503 1842.15 788.503 1840.46 Q788.503 1837.71 786.559 1835.97 Q784.638 1834.23 781.536 1834.23 Q779.337 1834.23 776.883 1835 Q774.452 1835.76 771.675 1837.31 L771.675 1832.59 Q774.499 1831.46 776.952 1830.88 Q779.406 1830.3 781.443 1830.3 Q786.813 1830.3 790.008 1832.98 Q793.202 1835.67 793.202 1840.16 Q793.202 1842.29 792.392 1844.21 Q791.605 1846.11 789.499 1848.7 Q788.92 1849.37 785.818 1852.59 Q782.716 1855.78 777.068 1861.55 Z" fill="#000000" fill-rule="evenodd" fill-opacity="1" /><path clip-path="url(#clip670)" d="M1296.66 1835 L1284.85 1853.45 L1296.66 1853.45 L1296.66 1835 M1295.43 1830.92 L1301.31 1830.92 L1301.31 1853.45 L1306.24 1853.45 L1306.24 1857.34 L1301.31 1857.34 L1301.31 1865.48 L1296.66 1865.48 L1296.66 1857.34 L1281.06 1857.34 L1281.06 1852.82 L1295.43 1830.92 Z" fill="#000000" fill-rule="evenodd" fill-opacity="1" /><path clip-path="url(#clip670)" d="M1805.29 1846.34 Q1802.14 1846.34 1800.29 1848.49 Q1798.46 1850.65 1798.46 1854.4 Q1798.46 1858.12 1800.29 1860.3 Q1802.14 1862.45 1805.29 1862.45 Q1808.44 1862.45 1810.27 1860.3 Q1812.12 1858.12 1812.12 1854.4 Q1812.12 1850.65 1810.27 1848.49 Q1808.44 1846.34 1805.29 1846.34 M1814.57 1831.69 L1814.57 1835.95 Q1812.81 1835.11 1811.01 1834.67 Q1809.23 1834.23 1807.47 1834.23 Q1802.84 1834.23 1800.38 1837.36 Q1797.95 1840.48 1797.61 1846.8 Q1798.97 1844.79 1801.03 1843.72 Q1803.09 1842.64 1805.57 1842.64 Q1810.78 1842.64 1813.79 1845.81 Q1816.82 1848.96 1816.82 1854.4 Q1816.82 1859.72 1813.67 1862.94 Q1810.52 1866.15 1805.29 1866.15 Q1799.3 1866.15 1796.12 1861.57 Q1792.95 1856.96 1792.95 1848.24 Q1792.95 1840.04 1796.84 1835.18 Q1800.73 1830.3 1807.28 1830.3 Q1809.04 1830.3 1810.82 1830.65 Q1812.63 1830.99 1814.57 1831.69 Z" fill="#000000" fill-rule="evenodd" fill-opacity="1" /><path clip-path="url(#clip670)" d="M2316.12 1849.07 Q2312.79 1849.07 2310.87 1850.85 Q2308.97 1852.64 2308.97 1855.76 Q2308.97 1858.89 2310.87 1860.67 Q2312.79 1862.45 2316.12 1862.45 Q2319.45 1862.45 2321.38 1860.67 Q2323.3 1858.86 2323.3 1855.76 Q2323.3 1852.64 2321.38 1850.85 Q2319.48 1849.07 2316.12 1849.07 M2311.45 1847.08 Q2308.44 1846.34 2306.75 1844.28 Q2305.08 1842.22 2305.08 1839.26 Q2305.08 1835.11 2308.02 1832.71 Q2310.98 1830.3 2316.12 1830.3 Q2321.28 1830.3 2324.22 1832.71 Q2327.16 1835.11 2327.16 1839.26 Q2327.16 1842.22 2325.47 1844.28 Q2323.81 1846.34 2320.82 1847.08 Q2324.2 1847.87 2326.08 1850.16 Q2327.97 1852.45 2327.97 1855.76 Q2327.97 1860.78 2324.89 1863.47 Q2321.84 1866.15 2316.12 1866.15 Q2310.4 1866.15 2307.33 1863.47 Q2304.27 1860.78 2304.27 1855.76 Q2304.27 1852.45 2306.17 1850.16 Q2308.07 1847.87 2311.45 1847.08 M2309.73 1839.7 Q2309.73 1842.38 2311.4 1843.89 Q2313.09 1845.39 2316.12 1845.39 Q2319.13 1845.39 2320.82 1843.89 Q2322.53 1842.38 2322.53 1839.7 Q2322.53 1837.01 2320.82 1835.51 Q2319.13 1834 2316.12 1834 Q2313.09 1834 2311.4 1835.51 Q2309.73 1837.01 2309.73 1839.7 Z" fill="#000000" fill-rule="evenodd" fill-opacity="1" /><polyline clip-path="url(#clip673)" style="stroke:#000000; stroke-linecap:round; stroke-linejoin:round; stroke-width:2; stroke-opacity:0.1; fill:none" points="
  202.163,1752.77 2640.76,1752.77 
  "/>
<polyline clip-path="url(#clip673)" style="stroke:#000000; stroke-linecap:round; stroke-linejoin:round; stroke-width:2; stroke-opacity:0.1; fill:none" points="
  202.163,1348.1 2640.76,1348.1 
  "/>
<polyline clip-path="url(#clip673)" style="stroke:#000000; stroke-linecap:round; stroke-linejoin:round; stroke-width:2; stroke-opacity:0.1; fill:none" points="
  202.163,943.436 2640.76,943.436 
  "/>
<polyline clip-path="url(#clip673)" style="stroke:#000000; stroke-linecap:round; stroke-linejoin:round; stroke-width:2; stroke-opacity:0.1; fill:none" points="
  202.163,538.769 2640.76,538.769 
  "/>
<polyline clip-path="url(#clip673)" style="stroke:#000000; stroke-linecap:round; stroke-linejoin:round; stroke-width:2; stroke-opacity:0.1; fill:none" points="
  202.163,134.102 2640.76,134.102 
  "/>
<polyline clip-path="url(#clip670)" style="stroke:#000000; stroke-linecap:round; stroke-linejoin:round; stroke-width:4; stroke-opacity:1; fill:none" points="
  202.163,1800.78 202.163,47.2441 
  "/>
<polyline clip-path="url(#clip670)" style="stroke:#000000; stroke-linecap:round; stroke-linejoin:round; stroke-width:4; stroke-opacity:1; fill:none" points="
  202.163,1752.77 221.061,1752.77 
  "/>
<polyline clip-path="url(#clip670)" style="stroke:#000000; stroke-linecap:round; stroke-linejoin:round; stroke-width:4; stroke-opacity:1; fill:none" points="
  202.163,1348.1 221.061,1348.1 
  "/>
<polyline clip-path="url(#clip670)" style="stroke:#000000; stroke-linecap:round; stroke-linejoin:round; stroke-width:4; stroke-opacity:1; fill:none" points="
  202.163,943.436 221.061,943.436 
  "/>
<polyline clip-path="url(#clip670)" style="stroke:#000000; stroke-linecap:round; stroke-linejoin:round; stroke-width:4; stroke-opacity:1; fill:none" points="
  202.163,538.769 221.061,538.769 
  "/>
<polyline clip-path="url(#clip670)" style="stroke:#000000; stroke-linecap:round; stroke-linejoin:round; stroke-width:4; stroke-opacity:1; fill:none" points="
  202.163,134.102 221.061,134.102 
  "/>
<path clip-path="url(#clip670)" d="M149.899 1738.57 Q146.288 1738.57 144.459 1742.13 Q142.653 1745.67 142.653 1752.8 Q142.653 1759.91 144.459 1763.48 Q146.288 1767.02 149.899 1767.02 Q153.533 1767.02 155.339 1763.48 Q157.167 1759.91 157.167 1752.8 Q157.167 1745.67 155.339 1742.13 Q153.533 1738.57 149.899 1738.57 M149.899 1734.86 Q155.709 1734.86 158.765 1739.47 Q161.843 1744.05 161.843 1752.8 Q161.843 1761.53 158.765 1766.14 Q155.709 1770.72 149.899 1770.72 Q144.089 1770.72 141.01 1766.14 Q137.954 1761.53 137.954 1752.8 Q137.954 1744.05 141.01 1739.47 Q144.089 1734.86 149.899 1734.86 Z" fill="#000000" fill-rule="evenodd" fill-opacity="1" /><path clip-path="url(#clip670)" d="M83.6029 1361.45 L99.9222 1361.45 L99.9222 1365.38 L77.9779 1365.38 L77.9779 1361.45 Q80.6399 1358.69 85.2232 1354.06 Q89.8297 1349.41 91.0102 1348.07 Q93.2556 1345.54 94.1352 1343.81 Q95.038 1342.05 95.038 1340.36 Q95.038 1337.61 93.0936 1335.87 Q91.1723 1334.13 88.0704 1334.13 Q85.8714 1334.13 83.4177 1334.9 Q80.9871 1335.66 78.2094 1337.21 L78.2094 1332.49 Q81.0334 1331.36 83.4871 1330.78 Q85.9408 1330.2 87.9778 1330.2 Q93.3482 1330.2 96.5426 1332.88 Q99.737 1335.57 99.737 1340.06 Q99.737 1342.19 98.9269 1344.11 Q98.1398 1346.01 96.0334 1348.6 Q95.4547 1349.27 92.3528 1352.49 Q89.251 1355.68 83.6029 1361.45 Z" fill="#000000" fill-rule="evenodd" fill-opacity="1" /><path clip-path="url(#clip670)" d="M109.783 1330.82 L128.14 1330.82 L128.14 1334.76 L114.066 1334.76 L114.066 1343.23 Q115.084 1342.88 116.103 1342.72 Q117.121 1342.54 118.14 1342.54 Q123.927 1342.54 127.306 1345.71 Q130.686 1348.88 130.686 1354.29 Q130.686 1359.87 127.214 1362.98 Q123.742 1366.05 117.422 1366.05 Q115.246 1366.05 112.978 1365.68 Q110.732 1365.31 108.325 1364.57 L108.325 1359.87 Q110.408 1361.01 112.63 1361.56 Q114.853 1362.12 117.33 1362.12 Q121.334 1362.12 123.672 1360.01 Q126.01 1357.91 126.01 1354.29 Q126.01 1350.68 123.672 1348.58 Q121.334 1346.47 117.33 1346.47 Q115.455 1346.47 113.58 1346.89 Q111.728 1347.3 109.783 1348.18 L109.783 1330.82 Z" fill="#000000" fill-rule="evenodd" fill-opacity="1" /><path clip-path="url(#clip670)" d="M149.899 1333.9 Q146.288 1333.9 144.459 1337.47 Q142.653 1341.01 142.653 1348.14 Q142.653 1355.24 144.459 1358.81 Q146.288 1362.35 149.899 1362.35 Q153.533 1362.35 155.339 1358.81 Q157.167 1355.24 157.167 1348.14 Q157.167 1341.01 155.339 1337.47 Q153.533 1333.9 149.899 1333.9 M149.899 1330.2 Q155.709 1330.2 158.765 1334.8 Q161.843 1339.39 161.843 1348.14 Q161.843 1356.86 158.765 1361.47 Q155.709 1366.05 149.899 1366.05 Q144.089 1366.05 141.01 1361.47 Q137.954 1356.86 137.954 1348.14 Q137.954 1339.39 141.01 1334.8 Q144.089 1330.2 149.899 1330.2 Z" fill="#000000" fill-rule="evenodd" fill-opacity="1" /><path clip-path="url(#clip670)" d="M79.6214 926.156 L97.9778 926.156 L97.9778 930.091 L83.9038 930.091 L83.9038 938.563 Q84.9223 938.216 85.9408 938.054 Q86.9593 937.869 87.9778 937.869 Q93.7649 937.869 97.1445 941.04 Q100.524 944.211 100.524 949.628 Q100.524 955.206 97.0519 958.308 Q93.5797 961.387 87.2603 961.387 Q85.0843 961.387 82.8158 961.017 Q80.5705 960.646 78.1631 959.906 L78.1631 955.206 Q80.2464 956.341 82.4686 956.896 Q84.6908 957.452 87.1677 957.452 Q91.1723 957.452 93.5102 955.345 Q95.8482 953.239 95.8482 949.628 Q95.8482 946.017 93.5102 943.91 Q91.1723 941.804 87.1677 941.804 Q85.2927 941.804 83.4177 942.22 Q81.5658 942.637 79.6214 943.517 L79.6214 926.156 Z" fill="#000000" fill-rule="evenodd" fill-opacity="1" /><path clip-path="url(#clip670)" d="M119.737 929.234 Q116.126 929.234 114.297 932.799 Q112.492 936.341 112.492 943.47 Q112.492 950.577 114.297 954.142 Q116.126 957.683 119.737 957.683 Q123.371 957.683 125.177 954.142 Q127.005 950.577 127.005 943.47 Q127.005 936.341 125.177 932.799 Q123.371 929.234 119.737 929.234 M119.737 925.531 Q125.547 925.531 128.603 930.137 Q131.681 934.72 131.681 943.47 Q131.681 952.197 128.603 956.804 Q125.547 961.387 119.737 961.387 Q113.927 961.387 110.848 956.804 Q107.793 952.197 107.793 943.47 Q107.793 934.72 110.848 930.137 Q113.927 925.531 119.737 925.531 Z" fill="#000000" fill-rule="evenodd" fill-opacity="1" /><path clip-path="url(#clip670)" d="M149.899 929.234 Q146.288 929.234 144.459 932.799 Q142.653 936.341 142.653 943.47 Q142.653 950.577 144.459 954.142 Q146.288 957.683 149.899 957.683 Q153.533 957.683 155.339 954.142 Q157.167 950.577 157.167 943.47 Q157.167 936.341 155.339 932.799 Q153.533 929.234 149.899 929.234 M149.899 925.531 Q155.709 925.531 158.765 930.137 Q161.843 934.72 161.843 943.47 Q161.843 952.197 158.765 956.804 Q155.709 961.387 149.899 961.387 Q144.089 961.387 141.01 956.804 Q137.954 952.197 137.954 943.47 Q137.954 934.72 141.01 930.137 Q144.089 925.531 149.899 925.531 Z" fill="#000000" fill-rule="evenodd" fill-opacity="1" /><path clip-path="url(#clip670)" d="M78.3946 521.489 L100.617 521.489 L100.617 523.479 L88.0704 556.049 L83.1862 556.049 L94.9917 525.424 L78.3946 525.424 L78.3946 521.489 Z" fill="#000000" fill-rule="evenodd" fill-opacity="1" /><path clip-path="url(#clip670)" d="M109.783 521.489 L128.14 521.489 L128.14 525.424 L114.066 525.424 L114.066 533.896 Q115.084 533.549 116.103 533.387 Q117.121 533.202 118.14 533.202 Q123.927 533.202 127.306 536.373 Q130.686 539.544 130.686 544.961 Q130.686 550.54 127.214 553.641 Q123.742 556.72 117.422 556.72 Q115.246 556.72 112.978 556.35 Q110.732 555.979 108.325 555.239 L108.325 550.54 Q110.408 551.674 112.63 552.229 Q114.853 552.785 117.33 552.785 Q121.334 552.785 123.672 550.678 Q126.01 548.572 126.01 544.961 Q126.01 541.35 123.672 539.243 Q121.334 537.137 117.33 537.137 Q115.455 537.137 113.58 537.553 Q111.728 537.97 109.783 538.85 L109.783 521.489 Z" fill="#000000" fill-rule="evenodd" fill-opacity="1" /><path clip-path="url(#clip670)" d="M149.899 524.567 Q146.288 524.567 144.459 528.132 Q142.653 531.674 142.653 538.803 Q142.653 545.91 144.459 549.475 Q146.288 553.016 149.899 553.016 Q153.533 553.016 155.339 549.475 Q157.167 545.91 157.167 538.803 Q157.167 531.674 155.339 528.132 Q153.533 524.567 149.899 524.567 M149.899 520.864 Q155.709 520.864 158.765 525.47 Q161.843 530.054 161.843 538.803 Q161.843 547.53 158.765 552.137 Q155.709 556.72 149.899 556.72 Q144.089 556.72 141.01 552.137 Q137.954 547.53 137.954 538.803 Q137.954 530.054 141.01 525.47 Q144.089 520.864 149.899 520.864 Z" fill="#000000" fill-rule="evenodd" fill-opacity="1" /><path clip-path="url(#clip670)" d="M50.2234 147.447 L57.8623 147.447 L57.8623 121.081 L49.5521 122.748 L49.5521 118.488 L57.816 116.822 L62.4919 116.822 L62.4919 147.447 L70.1307 147.447 L70.1307 151.382 L50.2234 151.382 L50.2234 147.447 Z" fill="#000000" fill-rule="evenodd" fill-opacity="1" /><path clip-path="url(#clip670)" d="M89.5751 119.9 Q85.964 119.9 84.1353 123.465 Q82.3297 127.007 82.3297 134.137 Q82.3297 141.243 84.1353 144.808 Q85.964 148.349 89.5751 148.349 Q93.2093 148.349 95.0148 144.808 Q96.8435 141.243 96.8435 134.137 Q96.8435 127.007 95.0148 123.465 Q93.2093 119.9 89.5751 119.9 M89.5751 116.197 Q95.3852 116.197 98.4408 120.803 Q101.519 125.387 101.519 134.137 Q101.519 142.863 98.4408 147.47 Q95.3852 152.053 89.5751 152.053 Q83.7649 152.053 80.6862 147.47 Q77.6307 142.863 77.6307 134.137 Q77.6307 125.387 80.6862 120.803 Q83.7649 116.197 89.5751 116.197 Z" fill="#000000" fill-rule="evenodd" fill-opacity="1" /><path clip-path="url(#clip670)" d="M119.737 119.9 Q116.126 119.9 114.297 123.465 Q112.492 127.007 112.492 134.137 Q112.492 141.243 114.297 144.808 Q116.126 148.349 119.737 148.349 Q123.371 148.349 125.177 144.808 Q127.005 141.243 127.005 134.137 Q127.005 127.007 125.177 123.465 Q123.371 119.9 119.737 119.9 M119.737 116.197 Q125.547 116.197 128.603 120.803 Q131.681 125.387 131.681 134.137 Q131.681 142.863 128.603 147.47 Q125.547 152.053 119.737 152.053 Q113.927 152.053 110.848 147.47 Q107.793 142.863 107.793 134.137 Q107.793 125.387 110.848 120.803 Q113.927 116.197 119.737 116.197 Z" fill="#000000" fill-rule="evenodd" fill-opacity="1" /><path clip-path="url(#clip670)" d="M149.899 119.9 Q146.288 119.9 144.459 123.465 Q142.653 127.007 142.653 134.137 Q142.653 141.243 144.459 144.808 Q146.288 148.349 149.899 148.349 Q153.533 148.349 155.339 144.808 Q157.167 141.243 157.167 134.137 Q157.167 127.007 155.339 123.465 Q153.533 119.9 149.899 119.9 M149.899 116.197 Q155.709 116.197 158.765 120.803 Q161.843 125.387 161.843 134.137 Q161.843 142.863 158.765 147.47 Q155.709 152.053 149.899 152.053 Q144.089 152.053 141.01 147.47 Q137.954 142.863 137.954 134.137 Q137.954 125.387 141.01 120.803 Q144.089 116.197 149.899 116.197 Z" fill="#000000" fill-rule="evenodd" fill-opacity="1" /><circle clip-path="url(#clip673)" cx="271.18" cy="1751.15" r="14.4" fill="#009af9" fill-rule="evenodd" fill-opacity="1" stroke="#000000" stroke-opacity="1" stroke-width="3.84"/>
<circle clip-path="url(#clip673)" cx="526.798" cy="1747.91" r="14.4" fill="#009af9" fill-rule="evenodd" fill-opacity="1" stroke="#000000" stroke-opacity="1" stroke-width="3.84"/>
<circle clip-path="url(#clip673)" cx="782.415" cy="1741.44" r="14.4" fill="#009af9" fill-rule="evenodd" fill-opacity="1" stroke="#000000" stroke-opacity="1" stroke-width="3.84"/>
<circle clip-path="url(#clip673)" cx="1038.03" cy="1728.49" r="14.4" fill="#009af9" fill-rule="evenodd" fill-opacity="1" stroke="#000000" stroke-opacity="1" stroke-width="3.84"/>
<circle clip-path="url(#clip673)" cx="1293.65" cy="1702.59" r="14.4" fill="#009af9" fill-rule="evenodd" fill-opacity="1" stroke="#000000" stroke-opacity="1" stroke-width="3.84"/>
<circle clip-path="url(#clip673)" cx="1549.27" cy="1650.79" r="14.4" fill="#009af9" fill-rule="evenodd" fill-opacity="1" stroke="#000000" stroke-opacity="1" stroke-width="3.84"/>
<circle clip-path="url(#clip673)" cx="1804.89" cy="1547.2" r="14.4" fill="#009af9" fill-rule="evenodd" fill-opacity="1" stroke="#000000" stroke-opacity="1" stroke-width="3.84"/>
<circle clip-path="url(#clip673)" cx="2060.5" cy="1340.01" r="14.4" fill="#009af9" fill-rule="evenodd" fill-opacity="1" stroke="#000000" stroke-opacity="1" stroke-width="3.84"/>
<circle clip-path="url(#clip673)" cx="2316.12" cy="925.63" r="14.4" fill="#009af9" fill-rule="evenodd" fill-opacity="1" stroke="#000000" stroke-opacity="1" stroke-width="3.84"/>
<circle clip-path="url(#clip673)" cx="2571.74" cy="96.8724" r="14.4" fill="#009af9" fill-rule="evenodd" fill-opacity="1" stroke="#000000" stroke-opacity="1" stroke-width="3.84"/>
<path clip-path="url(#clip670)" d="
M283.45 214.055 L624.696 214.055 L624.696 105.695 L283.45 105.695  Z
  " fill="#ffffff" fill-rule="evenodd" fill-opacity="1"/>
<polyline clip-path="url(#clip670)" style="stroke:#000000; stroke-linecap:round; stroke-linejoin:round; stroke-width:4; stroke-opacity:1; fill:none" points="
  283.45,214.055 624.696,214.055 624.696,105.695 283.45,105.695 283.45,214.055 
  "/>
<circle clip-path="url(#clip670)" cx="391.832" cy="159.875" r="23.04" fill="#009af9" fill-rule="evenodd" fill-opacity="1" stroke="#000000" stroke-opacity="1" stroke-width="6.144"/>
<path clip-path="url(#clip670)" d="M545.442 175.13 L541.32 187.075 L501.548 187.075 Q501.01 187.075 500.799 187.052 Q500.588 187.028 500.424 186.911 Q500.26 186.794 500.26 186.536 Q500.26 186.326 500.682 185.787 L517.71 164.73 L500.213 140.652 Q500.213 139.551 500.401 139.34 Q500.588 139.106 501.548 139.106 L541.32 139.106 L545.442 150.325 L544.248 150.325 Q543.709 148.873 542.842 147.655 Q541.999 146.414 541.015 145.524 Q540.055 144.634 538.79 143.931 Q537.549 143.205 536.378 142.76 Q535.23 142.291 533.801 141.963 Q532.372 141.612 531.225 141.448 Q530.1 141.261 528.695 141.167 Q527.29 141.073 526.4 141.05 Q525.51 141.027 524.385 141.027 L505.39 141.027 L520.966 162.411 Q521.317 162.95 521.317 163.09 Q521.317 163.301 520.872 163.863 L504.242 184.428 L524.62 184.428 Q531.178 184.428 535.745 183.046 Q538.837 181.992 541.086 179.908 Q543.358 177.823 544.248 175.13 L545.442 175.13 Z" fill="#000000" fill-rule="evenodd" fill-opacity="1" /><path clip-path="url(#clip670)" d="M550.371 175.083 Q550.371 174.216 550.441 173.958 Q550.535 173.701 550.909 173.303 L560.114 163.044 Q565.15 157.375 565.15 152.433 Q565.15 149.224 563.464 146.929 Q561.801 144.634 558.732 144.634 Q556.624 144.634 554.844 145.922 Q553.064 147.21 552.244 149.505 Q552.385 149.459 552.877 149.459 Q554.071 149.459 554.727 150.208 Q555.406 150.958 555.406 151.965 Q555.406 153.253 554.563 153.885 Q553.743 154.494 552.924 154.494 Q552.596 154.494 552.151 154.424 Q551.729 154.354 551.05 153.698 Q550.371 153.019 550.371 151.824 Q550.371 148.475 552.9 145.805 Q555.453 143.135 559.341 143.135 Q563.745 143.135 566.626 145.758 Q569.53 148.358 569.53 152.433 Q569.53 153.862 569.085 155.174 Q568.664 156.462 568.078 157.469 Q567.516 158.476 565.97 160.092 Q564.424 161.709 563.183 162.856 Q561.941 164.004 559.154 166.44 L554.071 171.382 L562.714 171.382 Q566.93 171.382 567.258 171.007 Q567.727 170.328 568.312 166.744 L569.53 166.744 L568.172 175.083 L550.371 175.083 Z" fill="#000000" fill-rule="evenodd" fill-opacity="1" /><path clip-path="url(#clip670)" d="M592.66 142.681 Q592.66 142.812 592.512 143.321 Q592.365 143.829 592.004 144.616 Q591.66 145.403 591.184 146.124 Q590.709 146.829 589.922 147.354 Q589.151 147.862 588.266 147.862 Q587.085 147.862 586.298 147.075 Q585.511 146.288 585.511 145.108 Q585.511 144.452 585.856 143.55 Q588.036 137.73 588.036 135.73 Q588.036 133.385 586.216 133.385 Q585.315 133.385 584.462 133.729 Q583.626 134.057 583.052 134.516 Q582.478 134.975 581.953 135.615 Q581.445 136.238 581.183 136.664 Q580.937 137.074 580.74 137.484 L580.314 139.156 Q580.216 139.615 579.74 141.402 L579.002 144.436 Q578.478 146.698 578.363 146.911 Q578.199 147.37 577.838 147.616 Q577.477 147.862 577.117 147.862 Q576.707 147.862 576.428 147.616 Q576.149 147.37 576.149 146.944 Q576.149 146.879 576.199 146.633 Q576.248 146.387 576.33 146.042 Q576.412 145.698 576.445 145.501 L578.396 137.746 Q578.756 136.336 578.838 135.894 Q578.937 135.434 578.937 134.926 Q578.937 133.385 577.887 133.385 Q577.035 133.385 576.477 134.401 Q575.92 135.418 575.444 137.386 Q575.297 137.927 575.198 138.041 Q575.116 138.156 574.871 138.156 Q574.461 138.14 574.461 137.812 Q574.461 137.73 574.592 137.189 Q574.723 136.648 574.969 135.877 Q575.231 135.09 575.477 134.565 Q575.69 134.172 575.805 133.992 Q575.936 133.795 576.248 133.418 Q576.576 133.024 577.002 132.844 Q577.445 132.647 577.986 132.647 Q579.199 132.647 580.084 133.434 Q580.97 134.205 581.085 135.566 Q583.265 132.647 586.315 132.647 Q588.118 132.647 589.151 133.598 Q590.184 134.549 590.184 136.238 Q590.184 136.631 590.102 137.14 Q590.037 137.631 589.873 138.254 Q589.725 138.878 589.594 139.353 Q589.463 139.828 589.2 140.599 Q588.938 141.353 588.823 141.681 Q588.709 142.009 588.43 142.78 Q588.167 143.534 588.135 143.616 Q587.528 145.141 587.528 146.01 Q587.528 146.584 587.708 146.846 Q587.905 147.108 588.331 147.108 Q589.479 147.108 590.332 145.977 Q591.201 144.829 591.758 142.96 Q591.889 142.55 591.955 142.452 Q592.037 142.353 592.266 142.353 Q592.66 142.353 592.66 142.681 Z" fill="#000000" fill-rule="evenodd" fill-opacity="1" /></svg>
