<?xml version="1.0" encoding="utf-8"?>
<svg xmlns="http://www.w3.org/2000/svg" xmlns:xlink="http://www.w3.org/1999/xlink" width="528" height="336" viewBox="0 0 2112 1344">
<defs>
  <clipPath id="clip500">
    <rect x="0" y="0" width="2112" height="1344"/>
  </clipPath>
</defs>
<path clip-path="url(#clip500)" d="M0 1344 L2112 1344 L2112 0 L0 0  Z" fill="#ffffff" fill-rule="evenodd" fill-opacity="1"/>
<defs>
  <clipPath id="clip501">
    <rect x="422" y="0" width="1479" height="1344"/>
  </clipPath>
</defs>
<path clip-path="url(#clip500)" d="M197.187 1173.47 L2064.76 1173.47 L2064.76 47.2441 L197.187 47.2441  Z" fill="#ffffff" fill-rule="evenodd" fill-opacity="1"/>
<defs>
  <clipPath id="clip502">
    <rect x="197" y="47" width="1869" height="1127"/>
  </clipPath>
</defs>
<polyline clip-path="url(#clip502)" style="stroke:#000000; stroke-linecap:round; stroke-linejoin:round; stroke-width:2; stroke-opacity:0.1; fill:none" points="197.187,1173.47 197.187,47.2441 "/>
<polyline clip-path="url(#clip502)" style="stroke:#000000; stroke-linecap:round; stroke-linejoin:round; stroke-width:2; stroke-opacity:0.1; fill:none" points="819.71,1173.47 819.71,47.2441 "/>
<polyline clip-path="url(#clip502)" style="stroke:#000000; stroke-linecap:round; stroke-linejoin:round; stroke-width:2; stroke-opacity:0.1; fill:none" points="1442.23,1173.47 1442.23,47.2441 "/>
<polyline clip-path="url(#clip502)" style="stroke:#000000; stroke-linecap:round; stroke-linejoin:round; stroke-width:2; stroke-opacity:0.1; fill:none" points="2064.76,1173.47 2064.76,47.2441 "/>
<polyline clip-path="url(#clip500)" style="stroke:#000000; stroke-linecap:round; stroke-linejoin:round; stroke-width:4; stroke-opacity:1; fill:none" points="197.187,1173.47 2064.76,1173.47 "/>
<polyline clip-path="url(#clip500)" style="stroke:#000000; stroke-linecap:round; stroke-linejoin:round; stroke-width:4; stroke-opacity:1; fill:none" points="197.187,1173.47 197.187,1154.57 "/>
<polyline clip-path="url(#clip500)" style="stroke:#000000; stroke-linecap:round; stroke-linejoin:round; stroke-width:4; stroke-opacity:1; fill:none" points="819.71,1173.47 819.71,1154.57 "/>
<polyline clip-path="url(#clip500)" style="stroke:#000000; stroke-linecap:round; stroke-linejoin:round; stroke-width:4; stroke-opacity:1; fill:none" points="1442.23,1173.47 1442.23,1154.57 "/>
<polyline clip-path="url(#clip500)" style="stroke:#000000; stroke-linecap:round; stroke-linejoin:round; stroke-width:4; stroke-opacity:1; fill:none" points="2064.76,1173.47 2064.76,1154.57 "/>
<path clip-path="url(#clip500)" d="M197.187 1202.09 Q193.576 1202.09 191.748 1205.65 Q189.942 1209.19 189.942 1216.32 Q189.942 1223.43 191.748 1226.99 Q193.576 1230.53 197.187 1230.53 Q200.822 1230.53 202.627 1226.99 Q204.456 1223.43 204.456 1216.32 Q204.456 1209.19 202.627 1205.65 Q200.822 1202.09 197.187 1202.09 M197.187 1198.38 Q202.998 1198.38 206.053 1202.99 Q209.132 1207.57 209.132 1216.32 Q209.132 1225.05 206.053 1229.65 Q202.998 1234.24 197.187 1234.24 Q191.377 1234.24 188.299 1229.65 Q185.243 1225.05 185.243 1216.32 Q185.243 1207.57 188.299 1202.99 Q191.377 1198.38 197.187 1198.38 Z" fill="#000000" fill-rule="nonzero" fill-opacity="1" /><path clip-path="url(#clip500)" d="M810.092 1229.63 L817.731 1229.63 L817.731 1203.27 L809.421 1204.93 L809.421 1200.67 L817.685 1199.01 L822.361 1199.01 L822.361 1229.63 L830 1229.63 L830 1233.57 L810.092 1233.57 L810.092 1229.63 Z" fill="#000000" fill-rule="nonzero" fill-opacity="1" /><path clip-path="url(#clip500)" d="M1436.89 1229.63 L1453.21 1229.63 L1453.21 1233.57 L1431.26 1233.57 L1431.26 1229.63 Q1433.92 1226.88 1438.51 1222.25 Q1443.11 1217.59 1444.29 1216.25 Q1446.54 1213.73 1447.42 1211.99 Q1448.32 1210.23 1448.32 1208.54 Q1448.32 1205.79 1446.38 1204.05 Q1444.46 1202.32 1441.35 1202.32 Q1439.15 1202.32 1436.7 1203.08 Q1434.27 1203.84 1431.49 1205.4 L1431.49 1200.67 Q1434.32 1199.54 1436.77 1198.96 Q1439.22 1198.38 1441.26 1198.38 Q1446.63 1198.38 1449.83 1201.07 Q1453.02 1203.75 1453.02 1208.24 Q1453.02 1210.37 1452.21 1212.29 Q1451.42 1214.19 1449.32 1216.78 Q1448.74 1217.46 1445.64 1220.67 Q1442.53 1223.87 1436.89 1229.63 Z" fill="#000000" fill-rule="nonzero" fill-opacity="1" /><path clip-path="url(#clip500)" d="M2069 1214.93 Q2072.36 1215.65 2074.24 1217.92 Q2076.13 1220.19 2076.13 1223.52 Q2076.13 1228.64 2072.61 1231.44 Q2069.1 1234.24 2062.61 1234.24 Q2060.44 1234.24 2058.12 1233.8 Q2055.83 1233.38 2053.38 1232.53 L2053.38 1228.01 Q2055.32 1229.15 2057.64 1229.72 Q2059.95 1230.3 2062.48 1230.3 Q2066.87 1230.3 2069.17 1228.57 Q2071.48 1226.83 2071.48 1223.52 Q2071.48 1220.46 2069.33 1218.75 Q2067.2 1217.02 2063.38 1217.02 L2059.35 1217.02 L2059.35 1213.17 L2063.56 1213.17 Q2067.01 1213.17 2068.84 1211.81 Q2070.67 1210.42 2070.67 1207.83 Q2070.67 1205.16 2068.77 1203.75 Q2066.9 1202.32 2063.38 1202.32 Q2061.46 1202.32 2059.26 1202.73 Q2057.06 1203.15 2054.42 1204.03 L2054.42 1199.86 Q2057.08 1199.12 2059.4 1198.75 Q2061.74 1198.38 2063.8 1198.38 Q2069.12 1198.38 2072.22 1200.81 Q2075.32 1203.22 2075.32 1207.34 Q2075.32 1210.21 2073.68 1212.2 Q2072.04 1214.17 2069 1214.93 Z" fill="#000000" fill-rule="nonzero" fill-opacity="1" /><path clip-path="url(#clip500)" d="M960.514 1266.49 L1000.71 1266.49 L1000.71 1271.91 L983.844 1271.91 L983.844 1314.01 L977.383 1314.01 L977.383 1271.91 L960.514 1271.91 L960.514 1266.49 Z" fill="#000000" fill-rule="nonzero" fill-opacity="1" /><path clip-path="url(#clip500)" d="M1004.66 1278.37 L1010.52 1278.37 L1010.52 1314.01 L1004.66 1314.01 L1004.66 1278.37 M1004.66 1264.49 L1010.52 1264.49 L1010.52 1271.91 L1004.66 1271.91 L1004.66 1264.49 Z" fill="#000000" fill-rule="nonzero" fill-opacity="1" /><path clip-path="url(#clip500)" d="M1053.26 1294.73 L1053.26 1297.59 L1026.34 1297.59 Q1026.72 1303.64 1029.96 1306.82 Q1033.24 1309.97 1039.07 1309.97 Q1042.44 1309.97 1045.59 1309.14 Q1048.77 1308.32 1051.89 1306.66 L1051.89 1312.2 Q1048.74 1313.54 1045.43 1314.24 Q1042.12 1314.94 1038.72 1314.94 Q1030.19 1314.94 1025.19 1309.97 Q1020.22 1305.01 1020.22 1296.54 Q1020.22 1287.79 1024.93 1282.66 Q1029.68 1277.51 1037.7 1277.51 Q1044.89 1277.51 1049.06 1282.15 Q1053.26 1286.77 1053.26 1294.73 M1047.41 1293.01 Q1047.34 1288.2 1044.7 1285.34 Q1042.09 1282.47 1037.76 1282.47 Q1032.86 1282.47 1029.9 1285.24 Q1026.97 1288.01 1026.53 1293.04 L1047.41 1293.01 Z" fill="#000000" fill-rule="nonzero" fill-opacity="1" /><path clip-path="url(#clip500)" d="M1090.63 1285.21 Q1092.83 1281.26 1095.88 1279.39 Q1098.94 1277.51 1103.07 1277.51 Q1108.64 1277.51 1111.67 1281.42 Q1114.69 1285.31 1114.69 1292.5 L1114.69 1314.01 L1108.8 1314.01 L1108.8 1292.69 Q1108.8 1287.57 1106.99 1285.08 Q1105.17 1282.6 1101.45 1282.6 Q1096.9 1282.6 1094.26 1285.62 Q1091.62 1288.65 1091.62 1293.87 L1091.62 1314.01 L1085.73 1314.01 L1085.73 1292.69 Q1085.73 1287.53 1083.91 1285.08 Q1082.1 1282.6 1078.31 1282.6 Q1073.82 1282.6 1071.18 1285.66 Q1068.54 1288.68 1068.54 1293.87 L1068.54 1314.01 L1062.65 1314.01 L1062.65 1278.37 L1068.54 1278.37 L1068.54 1283.9 Q1070.55 1280.63 1073.35 1279.07 Q1076.15 1277.51 1080 1277.51 Q1083.88 1277.51 1086.59 1279.48 Q1089.32 1281.45 1090.63 1285.21 Z" fill="#000000" fill-rule="nonzero" fill-opacity="1" /><path clip-path="url(#clip500)" d="M1132.04 1308.67 L1132.04 1327.57 L1126.15 1327.57 L1126.15 1278.37 L1132.04 1278.37 L1132.04 1283.78 Q1133.88 1280.59 1136.68 1279.07 Q1139.52 1277.51 1143.43 1277.51 Q1149.93 1277.51 1153.97 1282.66 Q1158.04 1287.82 1158.04 1296.22 Q1158.04 1304.63 1153.97 1309.78 Q1149.93 1314.94 1143.43 1314.94 Q1139.52 1314.94 1136.68 1313.41 Q1133.88 1311.85 1132.04 1308.67 M1151.96 1296.22 Q1151.96 1289.76 1149.29 1286.1 Q1146.65 1282.41 1142 1282.41 Q1137.35 1282.41 1134.68 1286.1 Q1132.04 1289.76 1132.04 1296.22 Q1132.04 1302.68 1134.68 1306.38 Q1137.35 1310.04 1142 1310.04 Q1146.65 1310.04 1149.29 1306.38 Q1151.96 1302.68 1151.96 1296.22 Z" fill="#000000" fill-rule="nonzero" fill-opacity="1" /><path clip-path="url(#clip500)" d="M1181.56 1282.47 Q1176.85 1282.47 1174.12 1286.16 Q1171.38 1289.83 1171.38 1296.22 Q1171.38 1302.62 1174.08 1306.31 Q1176.82 1309.97 1181.56 1309.97 Q1186.24 1309.97 1188.98 1306.28 Q1191.72 1302.59 1191.72 1296.22 Q1191.72 1289.89 1188.98 1286.2 Q1186.24 1282.47 1181.56 1282.47 M1181.56 1277.51 Q1189.2 1277.51 1193.56 1282.47 Q1197.92 1287.44 1197.92 1296.22 Q1197.92 1304.98 1193.56 1309.97 Q1189.2 1314.94 1181.56 1314.94 Q1173.89 1314.94 1169.53 1309.97 Q1165.2 1304.98 1165.2 1296.22 Q1165.2 1287.44 1169.53 1282.47 Q1173.89 1277.51 1181.56 1277.51 Z" fill="#000000" fill-rule="nonzero" fill-opacity="1" /><path clip-path="url(#clip500)" d="M1242.42 1264.55 Q1238.15 1271.87 1236.09 1279.04 Q1234.02 1286.2 1234.02 1293.55 Q1234.02 1300.9 1236.09 1308.13 Q1238.19 1315.32 1242.42 1322.61 L1237.33 1322.61 Q1232.55 1315.13 1230.17 1307.9 Q1227.81 1300.68 1227.81 1293.55 Q1227.81 1286.45 1230.17 1279.26 Q1232.52 1272.06 1237.33 1264.55 L1242.42 1264.55 Z" fill="#000000" fill-rule="nonzero" fill-opacity="1" /><path clip-path="url(#clip500)" d="M1276.51 1279.42 L1276.51 1284.96 Q1274.03 1283.68 1271.35 1283.05 Q1268.68 1282.41 1265.81 1282.41 Q1261.45 1282.41 1259.26 1283.75 Q1257.09 1285.08 1257.09 1287.76 Q1257.09 1289.79 1258.65 1290.97 Q1260.21 1292.12 1264.92 1293.17 L1266.93 1293.61 Q1273.17 1294.95 1275.78 1297.4 Q1278.42 1299.82 1278.42 1304.18 Q1278.42 1309.14 1274.47 1312.04 Q1270.56 1314.94 1263.68 1314.94 Q1260.82 1314.94 1257.7 1314.36 Q1254.61 1313.82 1251.17 1312.71 L1251.17 1306.66 Q1254.42 1308.35 1257.57 1309.21 Q1260.72 1310.04 1263.81 1310.04 Q1267.95 1310.04 1270.17 1308.64 Q1272.4 1307.2 1272.4 1304.63 Q1272.4 1302.24 1270.78 1300.97 Q1269.19 1299.69 1263.74 1298.51 L1261.71 1298.04 Q1256.26 1296.89 1253.85 1294.54 Q1251.43 1292.15 1251.43 1288.01 Q1251.43 1282.98 1254.99 1280.24 Q1258.56 1277.51 1265.11 1277.51 Q1268.36 1277.51 1271.22 1277.98 Q1274.09 1278.46 1276.51 1279.42 Z" fill="#000000" fill-rule="nonzero" fill-opacity="1" /><path clip-path="url(#clip500)" d="M1286.82 1264.55 L1291.91 1264.55 Q1296.69 1272.06 1299.04 1279.26 Q1301.43 1286.45 1301.43 1293.55 Q1301.43 1300.68 1299.04 1307.9 Q1296.69 1315.13 1291.91 1322.61 L1286.82 1322.61 Q1291.05 1315.32 1293.12 1308.13 Q1295.22 1300.9 1295.22 1293.55 Q1295.22 1286.2 1293.12 1279.04 Q1291.05 1271.87 1286.82 1264.55 Z" fill="#000000" fill-rule="nonzero" fill-opacity="1" /><polyline clip-path="url(#clip502)" style="stroke:#000000; stroke-linecap:round; stroke-linejoin:round; stroke-width:2; stroke-opacity:0.1; fill:none" points="197.187,1173.47 2064.76,1173.47 "/>
<polyline clip-path="url(#clip502)" style="stroke:#000000; stroke-linecap:round; stroke-linejoin:round; stroke-width:2; stroke-opacity:0.1; fill:none" points="197.187,798.062 2064.76,798.062 "/>
<polyline clip-path="url(#clip502)" style="stroke:#000000; stroke-linecap:round; stroke-linejoin:round; stroke-width:2; stroke-opacity:0.1; fill:none" points="197.187,422.653 2064.76,422.653 "/>
<polyline clip-path="url(#clip502)" style="stroke:#000000; stroke-linecap:round; stroke-linejoin:round; stroke-width:2; stroke-opacity:0.1; fill:none" points="197.187,47.2441 2064.76,47.2441 "/>
<polyline clip-path="url(#clip500)" style="stroke:#000000; stroke-linecap:round; stroke-linejoin:round; stroke-width:4; stroke-opacity:1; fill:none" points="197.187,1173.47 197.187,47.2441 "/>
<polyline clip-path="url(#clip500)" style="stroke:#000000; stroke-linecap:round; stroke-linejoin:round; stroke-width:4; stroke-opacity:1; fill:none" points="197.187,1173.47 216.085,1173.47 "/>
<polyline clip-path="url(#clip500)" style="stroke:#000000; stroke-linecap:round; stroke-linejoin:round; stroke-width:4; stroke-opacity:1; fill:none" points="197.187,798.062 216.085,798.062 "/>
<polyline clip-path="url(#clip500)" style="stroke:#000000; stroke-linecap:round; stroke-linejoin:round; stroke-width:4; stroke-opacity:1; fill:none" points="197.187,422.653 216.085,422.653 "/>
<polyline clip-path="url(#clip500)" style="stroke:#000000; stroke-linecap:round; stroke-linejoin:round; stroke-width:4; stroke-opacity:1; fill:none" points="197.187,47.2441 216.085,47.2441 "/>
<path clip-path="url(#clip500)" d="M153.563 1159.27 Q149.952 1159.27 148.123 1162.83 Q146.318 1166.38 146.318 1173.51 Q146.318 1180.61 148.123 1184.18 Q149.952 1187.72 153.563 1187.72 Q157.197 1187.72 159.003 1184.18 Q160.832 1180.61 160.832 1173.51 Q160.832 1166.38 159.003 1162.83 Q157.197 1159.27 153.563 1159.27 M153.563 1155.57 Q159.373 1155.57 162.429 1160.17 Q165.507 1164.76 165.507 1173.51 Q165.507 1182.23 162.429 1186.84 Q159.373 1191.42 153.563 1191.42 Q147.753 1191.42 144.674 1186.84 Q141.619 1182.23 141.619 1173.51 Q141.619 1164.76 144.674 1160.17 Q147.753 1155.57 153.563 1155.57 Z" fill="#000000" fill-rule="nonzero" fill-opacity="1" /><path clip-path="url(#clip500)" d="M144.605 780.782 L162.961 780.782 L162.961 784.717 L148.887 784.717 L148.887 793.189 Q149.906 792.842 150.924 792.68 Q151.943 792.495 152.961 792.495 Q158.748 792.495 162.128 795.666 Q165.507 798.837 165.507 804.254 Q165.507 809.833 162.035 812.934 Q158.563 816.013 152.244 816.013 Q150.068 816.013 147.799 815.643 Q145.554 815.272 143.146 814.532 L143.146 809.833 Q145.23 810.967 147.452 811.522 Q149.674 812.078 152.151 812.078 Q156.156 812.078 158.494 809.972 Q160.832 807.865 160.832 804.254 Q160.832 800.643 158.494 798.536 Q156.156 796.43 152.151 796.43 Q150.276 796.43 148.401 796.847 Q146.549 797.263 144.605 798.143 L144.605 780.782 Z" fill="#000000" fill-rule="nonzero" fill-opacity="1" /><path clip-path="url(#clip500)" d="M114.211 435.998 L121.85 435.998 L121.85 409.632 L113.54 411.299 L113.54 407.04 L121.804 405.373 L126.48 405.373 L126.48 435.998 L134.119 435.998 L134.119 439.933 L114.211 439.933 L114.211 435.998 Z" fill="#000000" fill-rule="nonzero" fill-opacity="1" /><path clip-path="url(#clip500)" d="M153.563 408.452 Q149.952 408.452 148.123 412.016 Q146.318 415.558 146.318 422.688 Q146.318 429.794 148.123 433.359 Q149.952 436.901 153.563 436.901 Q157.197 436.901 159.003 433.359 Q160.832 429.794 160.832 422.688 Q160.832 415.558 159.003 412.016 Q157.197 408.452 153.563 408.452 M153.563 404.748 Q159.373 404.748 162.429 409.354 Q165.507 413.938 165.507 422.688 Q165.507 431.415 162.429 436.021 Q159.373 440.604 153.563 440.604 Q147.753 440.604 144.674 436.021 Q141.619 431.415 141.619 422.688 Q141.619 413.938 144.674 409.354 Q147.753 404.748 153.563 404.748 Z" fill="#000000" fill-rule="nonzero" fill-opacity="1" /><path clip-path="url(#clip500)" d="M115.207 60.5889 L122.846 60.5889 L122.846 34.2233 L114.536 35.89 L114.536 31.6308 L122.799 29.9641 L127.475 29.9641 L127.475 60.5889 L135.114 60.5889 L135.114 64.5241 L115.207 64.5241 L115.207 60.5889 Z" fill="#000000" fill-rule="nonzero" fill-opacity="1" /><path clip-path="url(#clip500)" d="M144.605 29.9641 L162.961 29.9641 L162.961 33.8993 L148.887 33.8993 L148.887 42.3714 Q149.906 42.0242 150.924 41.8622 Q151.943 41.677 152.961 41.677 Q158.748 41.677 162.128 44.8483 Q165.507 48.0196 165.507 53.4362 Q165.507 59.0149 162.035 62.1167 Q158.563 65.1954 152.244 65.1954 Q150.068 65.1954 147.799 64.825 Q145.554 64.4547 143.146 63.7139 L143.146 59.0149 Q145.23 60.1491 147.452 60.7047 Q149.674 61.2602 152.151 61.2602 Q156.156 61.2602 158.494 59.1538 Q160.832 57.0473 160.832 53.4362 Q160.832 49.8251 158.494 47.7186 Q156.156 45.6122 152.151 45.6122 Q150.276 45.6122 148.401 46.0288 Q146.549 46.4455 144.605 47.3251 L144.605 29.9641 Z" fill="#000000" fill-rule="nonzero" fill-opacity="1" /><path clip-path="url(#clip500)" d="M26.418 751.231 L50.0666 759.952 L50.0666 742.478 L26.418 751.231 M20.0842 754.859 L20.0842 747.57 L67.6042 729.46 L67.6042 736.144 L55.4138 740.472 L55.4138 761.893 L67.6042 766.222 L67.6042 773.001 L20.0842 754.859 Z" fill="#000000" fill-rule="nonzero" fill-opacity="1" /><path clip-path="url(#clip500)" d="M18.079 722.776 L18.079 716.919 L67.6042 716.919 L67.6042 722.776 L18.079 722.776 Z" fill="#000000" fill-rule="nonzero" fill-opacity="1" /><path clip-path="url(#clip500)" d="M21.8347 698.873 L31.9562 698.873 L31.9562 686.81 L36.5077 686.81 L36.5077 698.873 L55.8594 698.873 Q60.2199 698.873 61.4613 697.695 Q62.7026 696.485 62.7026 692.825 L62.7026 686.81 L67.6042 686.81 L67.6042 692.825 Q67.6042 699.605 65.0897 702.183 Q62.5434 704.761 55.8594 704.761 L36.5077 704.761 L36.5077 709.058 L31.9562 709.058 L31.9562 704.761 L21.8347 704.761 L21.8347 698.873 Z" fill="#000000" fill-rule="nonzero" fill-opacity="1" /><path clip-path="url(#clip500)" d="M53.5359 679.712 L31.9562 679.712 L31.9562 673.855 L53.3131 673.855 Q58.3739 673.855 60.9202 671.882 Q63.4346 669.909 63.4346 665.962 Q63.4346 661.219 60.4109 658.482 Q57.3872 655.713 52.1673 655.713 L31.9562 655.713 L31.9562 649.857 L67.6042 649.857 L67.6042 655.713 L62.1296 655.713 Q65.3762 657.846 66.9676 660.678 Q68.5272 663.479 68.5272 667.203 Q68.5272 673.346 64.7078 676.529 Q60.8883 679.712 53.5359 679.712 M31.0968 664.975 L31.0968 664.975 Z" fill="#000000" fill-rule="nonzero" fill-opacity="1" /><path clip-path="url(#clip500)" d="M37.4307 617.137 Q36.8578 618.124 36.6032 619.301 Q36.3167 620.447 36.3167 621.848 Q36.3167 626.813 39.5632 629.486 Q42.7779 632.128 48.8253 632.128 L67.6042 632.128 L67.6042 638.016 L31.9562 638.016 L31.9562 632.128 L37.4944 632.128 Q34.2479 630.282 32.6883 627.322 Q31.0968 624.362 31.0968 620.129 Q31.0968 619.524 31.1923 618.792 Q31.256 618.06 31.4151 617.169 L37.4307 617.137 Z" fill="#000000" fill-rule="nonzero" fill-opacity="1" /><path clip-path="url(#clip500)" d="M49.6847 594.793 Q49.6847 601.891 51.3079 604.628 Q52.9312 607.366 56.8461 607.366 Q59.9653 607.366 61.8114 605.329 Q63.6256 603.26 63.6256 599.727 Q63.6256 594.857 60.1881 591.929 Q56.7188 588.969 50.9897 588.969 L49.6847 588.969 L49.6847 594.793 M47.2657 583.112 L67.6042 583.112 L67.6042 588.969 L62.1933 588.969 Q65.4398 590.974 66.9994 593.966 Q68.5272 596.958 68.5272 601.286 Q68.5272 606.761 65.4716 610.007 Q62.3843 613.222 57.2281 613.222 Q51.2125 613.222 48.1569 609.212 Q45.1014 605.169 45.1014 597.18 L45.1014 588.969 L44.5285 588.969 Q40.4862 588.969 38.2901 591.642 Q36.0621 594.284 36.0621 599.09 Q36.0621 602.146 36.7941 605.042 Q37.5262 607.938 38.9903 610.612 L33.5795 610.612 Q32.3381 607.397 31.7334 604.374 Q31.0968 601.35 31.0968 598.485 Q31.0968 590.751 35.1072 586.932 Q39.1176 583.112 47.2657 583.112 Z" fill="#000000" fill-rule="nonzero" fill-opacity="1" /><path clip-path="url(#clip500)" d="M18.1426 536.261 Q25.4632 540.526 32.6246 542.594 Q39.786 544.663 47.1384 544.663 Q54.4908 544.663 61.7159 542.594 Q68.9091 540.494 76.1979 536.261 L76.1979 541.353 Q68.7182 546.127 61.4931 548.515 Q54.268 550.87 47.1384 550.87 Q40.0406 550.87 32.8474 548.515 Q25.6542 546.159 18.1426 541.353 L18.1426 536.261 Z" fill="#000000" fill-rule="nonzero" fill-opacity="1" /><path clip-path="url(#clip500)" d="M38.7993 497.143 Q34.8526 494.947 32.9747 491.892 Q31.0968 488.836 31.0968 484.698 Q31.0968 479.128 35.0117 476.105 Q38.8948 473.081 46.0881 473.081 L67.6042 473.081 L67.6042 478.969 L46.279 478.969 Q41.1546 478.969 38.672 480.783 Q36.1894 482.598 36.1894 486.322 Q36.1894 490.873 39.2131 493.515 Q42.2368 496.157 47.4567 496.157 L67.6042 496.157 L67.6042 502.045 L46.279 502.045 Q41.1228 502.045 38.672 503.859 Q36.1894 505.673 36.1894 509.461 Q36.1894 513.949 39.2449 516.591 Q42.2686 519.232 47.4567 519.232 L67.6042 519.232 L67.6042 525.121 L31.9562 525.121 L31.9562 519.232 L37.4944 519.232 Q34.216 517.227 32.6564 514.426 Q31.0968 511.625 31.0968 507.774 Q31.0968 503.891 33.0702 501.186 Q35.0436 498.448 38.7993 497.143 Z" fill="#000000" fill-rule="nonzero" fill-opacity="1" /><path clip-path="url(#clip500)" d="M18.1426 462.323 L18.1426 457.23 Q25.6542 452.456 32.8474 450.101 Q40.0406 447.714 47.1384 447.714 Q54.268 447.714 61.4931 450.101 Q68.7182 452.456 76.1979 457.23 L76.1979 462.323 Q68.9091 458.09 61.7159 456.021 Q54.4908 453.92 47.1384 453.92 Q39.786 453.92 32.6246 456.021 Q25.4632 458.09 18.1426 462.323 Z" fill="#000000" fill-rule="nonzero" fill-opacity="1" /><polyline clip-path="url(#clip502)" style="stroke:#009af9; stroke-linecap:round; stroke-linejoin:round; stroke-width:4; stroke-opacity:1; fill:none" points="197.187,798.062 200.227,794.404 203.267,790.765 206.307,787.142 209.346,783.538 237.453,751.037 265.56,720.037 293.666,690.536 321.773,662.536 355.555,630.866 389.336,601.364 417.899,578.11 446.461,556.405 477.487,534.583 508.514,514.588 537.117,497.774 565.721,482.514 596.387,467.878 627.053,455.028 662.583,442.373 698.113,432.115 729.687,425.01 761.262,419.798 788.95,416.785 816.638,415.228 846.825,415.189 877.013,416.88 907.38,420.327 937.747,425.524 971.321,433.309 1004.9,443.234 1036.84,454.664 1068.79,468.032 1102,483.987 1135.22,502.036 1163.18,518.853 1191.14,537.155 1225.27,561.511 1259.41,588.08 1290.68,614.361 1321.95,642.499 1350.84,670.135 1379.72,699.355 1408.97,730.569 1438.23,763.408 1471.02,802.143 1503.8,842.918 1533.52,881.63 1563.23,922.018 1597.24,970.318 1631.26,1020.81 1662.76,1069.53 1694.25,1120.13 1725.31,1171.85 1756.36,1225.41 1786.51,1279.17 1816.66,1334.64 1847.56,1393.31 1878.47,1453.78 1912.33,1522.13 1946.19,1592.65 1995.38,1698.96 2044.57,1809.88 2054.66,1833.2 2064.76,1856.71 "/>
<polyline clip-path="url(#clip502)" style="stroke:#e26f46; stroke-linecap:round; stroke-linejoin:round; stroke-width:4; stroke-opacity:1; fill:none" points="197.187,572.817 209.346,575.749 321.773,602.869 389.336,619.166 446.461,632.946 508.514,647.914 565.721,661.713 627.053,676.508 698.113,693.649 761.262,708.881 816.638,722.239 877.013,736.802 937.747,751.453 1004.9,767.65 1068.79,783.062 1135.22,799.086 1191.14,812.575 1259.41,829.044 1321.95,844.13 1379.72,858.064 1438.23,872.178 1503.8,887.996 1563.23,902.329 1631.26,918.74 1694.25,933.936 1756.36,948.916 1816.66,963.461 1878.47,978.372 1946.19,994.708 2044.57,1018.44 2064.76,1023.31 "/>
<circle clip-path="url(#clip502)" cx="373.121" cy="615.255" r="14.4" fill="#3da44d" fill-rule="evenodd" fill-opacity="1" stroke="#000000" stroke-opacity="1" stroke-width="2.688"/>
<circle clip-path="url(#clip502)" cx="1545.8" cy="898.126" r="14.4" fill="#3da44d" fill-rule="evenodd" fill-opacity="1" stroke="#000000" stroke-opacity="1" stroke-width="2.688"/>
<path clip-path="url(#clip500)" d="M1534.94 292.145 L2002.5 292.145 L2002.5 84.785 L1534.94 84.785  Z" fill="#ffffff" fill-rule="evenodd" fill-opacity="1"/>
<polyline clip-path="url(#clip500)" style="stroke:#000000; stroke-linecap:round; stroke-linejoin:round; stroke-width:4; stroke-opacity:1; fill:none" points="1534.94,292.145 2002.5,292.145 2002.5,84.785 1534.94,84.785 1534.94,292.145 "/>
<polyline clip-path="url(#clip500)" style="stroke:#009af9; stroke-linecap:round; stroke-linejoin:round; stroke-width:4; stroke-opacity:1; fill:none" points="1555.69,136.625 1680.19,136.625 "/>
<path clip-path="url(#clip500)" d="M1705.62 123.188 L1705.62 136.174 L1711.5 136.174 Q1714.76 136.174 1716.55 134.484 Q1718.33 132.794 1718.33 129.669 Q1718.33 126.567 1716.55 124.877 Q1714.76 123.188 1711.5 123.188 L1705.62 123.188 M1700.94 119.345 L1711.5 119.345 Q1717.31 119.345 1720.27 121.984 Q1723.26 124.6 1723.26 129.669 Q1723.26 134.785 1720.27 137.4 Q1717.31 140.016 1711.5 140.016 L1705.62 140.016 L1705.62 153.905 L1700.94 153.905 L1700.94 119.345 Z" fill="#000000" fill-rule="nonzero" fill-opacity="1" /><path clip-path="url(#clip500)" d="M1749.83 139.877 L1749.83 141.961 L1730.25 141.961 Q1730.53 146.359 1732.89 148.674 Q1735.27 150.965 1739.51 150.965 Q1741.96 150.965 1744.25 150.363 Q1746.57 149.761 1748.84 148.558 L1748.84 152.586 Q1746.55 153.558 1744.14 154.067 Q1741.73 154.576 1739.25 154.576 Q1733.05 154.576 1729.42 150.965 Q1725.81 147.354 1725.81 141.197 Q1725.81 134.831 1729.23 131.104 Q1732.68 127.354 1738.51 127.354 Q1743.74 127.354 1746.78 130.734 Q1749.83 134.09 1749.83 139.877 M1745.57 138.627 Q1745.53 135.132 1743.61 133.049 Q1741.71 130.965 1738.56 130.965 Q1734.99 130.965 1732.84 132.979 Q1730.71 134.993 1730.39 138.65 L1745.57 138.627 Z" fill="#000000" fill-rule="nonzero" fill-opacity="1" /><path clip-path="url(#clip500)" d="M1756.82 117.887 L1761.08 117.887 L1761.08 153.905 L1756.82 153.905 L1756.82 117.887 Z" fill="#000000" fill-rule="nonzero" fill-opacity="1" /><path clip-path="url(#clip500)" d="M1780.04 130.965 Q1776.62 130.965 1774.62 133.65 Q1772.63 136.312 1772.63 140.965 Q1772.63 145.618 1774.6 148.303 Q1776.59 150.965 1780.04 150.965 Q1783.44 150.965 1785.43 148.28 Q1787.43 145.595 1787.43 140.965 Q1787.43 136.359 1785.43 133.674 Q1783.44 130.965 1780.04 130.965 M1780.04 127.354 Q1785.6 127.354 1788.77 130.965 Q1791.94 134.576 1791.94 140.965 Q1791.94 147.331 1788.77 150.965 Q1785.6 154.576 1780.04 154.576 Q1774.46 154.576 1771.29 150.965 Q1768.14 147.331 1768.14 140.965 Q1768.14 134.576 1771.29 130.965 Q1774.46 127.354 1780.04 127.354 Z" fill="#000000" fill-rule="nonzero" fill-opacity="1" /><path clip-path="url(#clip500)" d="M1803.21 120.618 L1803.21 127.979 L1811.99 127.979 L1811.99 131.289 L1803.21 131.289 L1803.21 145.363 Q1803.21 148.535 1804.07 149.437 Q1804.95 150.34 1807.61 150.34 L1811.99 150.34 L1811.99 153.905 L1807.61 153.905 Q1802.68 153.905 1800.8 152.076 Q1798.93 150.224 1798.93 145.363 L1798.93 131.289 L1795.8 131.289 L1795.8 127.979 L1798.93 127.979 L1798.93 120.618 L1803.21 120.618 Z" fill="#000000" fill-rule="nonzero" fill-opacity="1" /><path clip-path="url(#clip500)" d="M1829.37 140.873 Q1824.21 140.873 1822.22 142.053 Q1820.23 143.234 1820.23 146.081 Q1820.23 148.349 1821.71 149.692 Q1823.21 151.011 1825.78 151.011 Q1829.32 151.011 1831.45 148.511 Q1833.61 145.988 1833.61 141.822 L1833.61 140.873 L1829.37 140.873 M1837.86 139.113 L1837.86 153.905 L1833.61 153.905 L1833.61 149.97 Q1832.15 152.331 1829.97 153.465 Q1827.8 154.576 1824.65 154.576 Q1820.67 154.576 1818.3 152.354 Q1815.97 150.109 1815.97 146.359 Q1815.97 141.984 1818.88 139.762 Q1821.82 137.539 1827.63 137.539 L1833.61 137.539 L1833.61 137.123 Q1833.61 134.183 1831.66 132.586 Q1829.74 130.965 1826.24 130.965 Q1824.02 130.965 1821.92 131.498 Q1819.81 132.03 1817.86 133.095 L1817.86 129.16 Q1820.2 128.257 1822.4 127.817 Q1824.6 127.354 1826.68 127.354 Q1832.31 127.354 1835.09 130.271 Q1837.86 133.188 1837.86 139.113 Z" fill="#000000" fill-rule="nonzero" fill-opacity="1" /><polyline clip-path="url(#clip500)" style="stroke:#e26f46; stroke-linecap:round; stroke-linejoin:round; stroke-width:4; stroke-opacity:1; fill:none" points="1555.69,188.465 1680.19,188.465 "/>
<path clip-path="url(#clip500)" d="M1716.78 175.791 L1710.43 192.99 L1723.14 192.99 L1716.78 175.791 M1714.14 171.185 L1719.44 171.185 L1732.61 205.745 L1727.75 205.745 L1724.6 196.879 L1709.02 196.879 L1705.87 205.745 L1700.94 205.745 L1714.14 171.185 Z" fill="#000000" fill-rule="nonzero" fill-opacity="1" /><path clip-path="url(#clip500)" d="M1754 180.583 L1754 184.611 Q1752.19 183.685 1750.25 183.222 Q1748.31 182.759 1746.22 182.759 Q1743.05 182.759 1741.45 183.731 Q1739.88 184.703 1739.88 186.648 Q1739.88 188.129 1741.01 188.986 Q1742.15 189.819 1745.57 190.583 L1747.03 190.907 Q1751.57 191.879 1753.47 193.662 Q1755.39 195.421 1755.39 198.592 Q1755.39 202.203 1752.52 204.31 Q1749.67 206.416 1744.67 206.416 Q1742.59 206.416 1740.32 206 Q1738.07 205.606 1735.57 204.796 L1735.57 200.398 Q1737.93 201.625 1740.23 202.25 Q1742.52 202.851 1744.76 202.851 Q1747.77 202.851 1749.39 201.833 Q1751.01 200.791 1751.01 198.916 Q1751.01 197.18 1749.83 196.254 Q1748.68 195.328 1744.72 194.472 L1743.24 194.125 Q1739.28 193.291 1737.52 191.578 Q1735.76 189.842 1735.76 186.833 Q1735.76 183.176 1738.35 181.185 Q1740.94 179.194 1745.71 179.194 Q1748.07 179.194 1750.16 179.541 Q1752.24 179.889 1754 180.583 Z" fill="#000000" fill-rule="nonzero" fill-opacity="1" /><path clip-path="url(#clip500)" d="M1780.83 180.815 L1780.83 184.796 Q1779.02 183.801 1777.19 183.315 Q1775.39 182.805 1773.54 182.805 Q1769.39 182.805 1767.1 185.444 Q1764.81 188.06 1764.81 192.805 Q1764.81 197.551 1767.1 200.189 Q1769.39 202.805 1773.54 202.805 Q1775.39 202.805 1777.19 202.319 Q1779.02 201.81 1780.83 200.814 L1780.83 204.75 Q1779.05 205.583 1777.12 206 Q1775.23 206.416 1773.07 206.416 Q1767.22 206.416 1763.77 202.736 Q1760.32 199.055 1760.32 192.805 Q1760.32 186.463 1763.79 182.828 Q1767.29 179.194 1773.35 179.194 Q1775.32 179.194 1777.19 179.611 Q1779.07 180.004 1780.83 180.815 Z" fill="#000000" fill-rule="nonzero" fill-opacity="1" /><path clip-path="url(#clip500)" d="M1810.41 191.717 L1810.41 193.801 L1790.83 193.801 Q1791.11 198.199 1793.47 200.514 Q1795.85 202.805 1800.09 202.805 Q1802.54 202.805 1804.83 202.203 Q1807.15 201.601 1809.42 200.398 L1809.42 204.426 Q1807.12 205.398 1804.72 205.907 Q1802.31 206.416 1799.83 206.416 Q1793.63 206.416 1789.99 202.805 Q1786.38 199.194 1786.38 193.037 Q1786.38 186.671 1789.81 182.944 Q1793.26 179.194 1799.09 179.194 Q1804.32 179.194 1807.36 182.574 Q1810.41 185.93 1810.41 191.717 M1806.15 190.467 Q1806.11 186.972 1804.18 184.889 Q1802.29 182.805 1799.14 182.805 Q1795.57 182.805 1793.42 184.819 Q1791.29 186.833 1790.97 190.49 L1806.15 190.467 Z" fill="#000000" fill-rule="nonzero" fill-opacity="1" /><path clip-path="url(#clip500)" d="M1838.95 190.097 L1838.95 205.745 L1834.69 205.745 L1834.69 190.236 Q1834.69 186.555 1833.26 184.727 Q1831.82 182.898 1828.95 182.898 Q1825.5 182.898 1823.51 185.097 Q1821.52 187.296 1821.52 191.092 L1821.52 205.745 L1817.24 205.745 L1817.24 179.819 L1821.52 179.819 L1821.52 183.847 Q1823.05 181.509 1825.11 180.352 Q1827.19 179.194 1829.9 179.194 Q1834.37 179.194 1836.66 181.972 Q1838.95 184.727 1838.95 190.097 Z" fill="#000000" fill-rule="nonzero" fill-opacity="1" /><path clip-path="url(#clip500)" d="M1863.98 180.583 L1863.98 184.611 Q1862.17 183.685 1860.23 183.222 Q1858.28 182.759 1856.2 182.759 Q1853.03 182.759 1851.43 183.731 Q1849.86 184.703 1849.86 186.648 Q1849.86 188.129 1850.99 188.986 Q1852.12 189.819 1855.55 190.583 L1857.01 190.907 Q1861.55 191.879 1863.44 193.662 Q1865.36 195.421 1865.36 198.592 Q1865.36 202.203 1862.49 204.31 Q1859.65 206.416 1854.65 206.416 Q1852.56 206.416 1850.3 206 Q1848.05 205.606 1845.55 204.796 L1845.55 200.398 Q1847.91 201.625 1850.2 202.25 Q1852.49 202.851 1854.74 202.851 Q1857.75 202.851 1859.37 201.833 Q1860.99 200.791 1860.99 198.916 Q1860.99 197.18 1859.81 196.254 Q1858.65 195.328 1854.69 194.472 L1853.21 194.125 Q1849.25 193.291 1847.49 191.578 Q1845.74 189.842 1845.74 186.833 Q1845.74 183.176 1848.33 181.185 Q1850.92 179.194 1855.69 179.194 Q1858.05 179.194 1860.13 179.541 Q1862.22 179.889 1863.98 180.583 Z" fill="#000000" fill-rule="nonzero" fill-opacity="1" /><path clip-path="url(#clip500)" d="M1882.19 182.805 Q1878.77 182.805 1876.78 185.49 Q1874.79 188.152 1874.79 192.805 Q1874.79 197.458 1876.75 200.143 Q1878.74 202.805 1882.19 202.805 Q1885.6 202.805 1887.59 200.12 Q1889.58 197.435 1889.58 192.805 Q1889.58 188.199 1887.59 185.514 Q1885.6 182.805 1882.19 182.805 M1882.19 179.194 Q1887.75 179.194 1890.92 182.805 Q1894.09 186.416 1894.09 192.805 Q1894.09 199.171 1890.92 202.805 Q1887.75 206.416 1882.19 206.416 Q1876.61 206.416 1873.44 202.805 Q1870.3 199.171 1870.3 192.805 Q1870.3 186.416 1873.44 182.805 Q1876.61 179.194 1882.19 179.194 Z" fill="#000000" fill-rule="nonzero" fill-opacity="1" /><path clip-path="url(#clip500)" d="M1916.17 183.801 Q1915.46 183.384 1914.6 183.199 Q1913.77 182.99 1912.75 182.99 Q1909.14 182.99 1907.19 185.352 Q1905.27 187.69 1905.27 192.088 L1905.27 205.745 L1900.99 205.745 L1900.99 179.819 L1905.27 179.819 L1905.27 183.847 Q1906.61 181.486 1908.77 180.352 Q1910.92 179.194 1914 179.194 Q1914.44 179.194 1914.97 179.264 Q1915.5 179.31 1916.15 179.426 L1916.17 183.801 Z" fill="#000000" fill-rule="nonzero" fill-opacity="1" /><circle clip-path="url(#clip500)" cx="1617.94" cy="240.305" r="20.48" fill="#3da44d" fill-rule="evenodd" fill-opacity="1" stroke="#000000" stroke-opacity="1" stroke-width="3.82293"/>
<path clip-path="url(#clip500)" d="M1700.94 223.025 L1705.62 223.025 L1705.62 257.585 L1700.94 257.585 L1700.94 223.025 Z" fill="#000000" fill-rule="nonzero" fill-opacity="1" /><path clip-path="url(#clip500)" d="M1736.29 241.937 L1736.29 257.585 L1732.03 257.585 L1732.03 242.076 Q1732.03 238.395 1730.6 236.567 Q1729.16 234.738 1726.29 234.738 Q1722.84 234.738 1720.85 236.937 Q1718.86 239.136 1718.86 242.932 L1718.86 257.585 L1714.58 257.585 L1714.58 231.659 L1718.86 231.659 L1718.86 235.687 Q1720.39 233.349 1722.45 232.192 Q1724.53 231.034 1727.24 231.034 Q1731.71 231.034 1734 233.812 Q1736.29 236.567 1736.29 241.937 Z" fill="#000000" fill-rule="nonzero" fill-opacity="1" /><path clip-path="url(#clip500)" d="M1749 224.298 L1749 231.659 L1757.77 231.659 L1757.77 234.969 L1749 234.969 L1749 249.043 Q1749 252.215 1749.86 253.117 Q1750.74 254.02 1753.4 254.02 L1757.77 254.02 L1757.77 257.585 L1753.4 257.585 Q1748.47 257.585 1746.59 255.756 Q1744.72 253.904 1744.72 249.043 L1744.72 234.969 L1741.59 234.969 L1741.59 231.659 L1744.72 231.659 L1744.72 224.298 L1749 224.298 Z" fill="#000000" fill-rule="nonzero" fill-opacity="1" /><path clip-path="url(#clip500)" d="M1785.55 243.557 L1785.55 245.641 L1765.97 245.641 Q1766.24 250.039 1768.61 252.354 Q1770.99 254.645 1775.23 254.645 Q1777.68 254.645 1779.97 254.043 Q1782.29 253.441 1784.55 252.238 L1784.55 256.266 Q1782.26 257.238 1779.86 257.747 Q1777.45 258.256 1774.97 258.256 Q1768.77 258.256 1765.13 254.645 Q1761.52 251.034 1761.52 244.877 Q1761.52 238.511 1764.95 234.784 Q1768.4 231.034 1774.23 231.034 Q1779.46 231.034 1782.49 234.414 Q1785.55 237.77 1785.55 243.557 M1781.29 242.307 Q1781.24 238.812 1779.32 236.729 Q1777.43 234.645 1774.28 234.645 Q1770.71 234.645 1768.56 236.659 Q1766.43 238.673 1766.11 242.33 L1781.29 242.307 Z" fill="#000000" fill-rule="nonzero" fill-opacity="1" /><path clip-path="url(#clip500)" d="M1807.56 235.641 Q1806.85 235.224 1805.99 235.039 Q1805.16 234.83 1804.14 234.83 Q1800.53 234.83 1798.58 237.192 Q1796.66 239.53 1796.66 243.928 L1796.66 257.585 L1792.38 257.585 L1792.38 231.659 L1796.66 231.659 L1796.66 235.687 Q1798 233.326 1800.16 232.192 Q1802.31 231.034 1805.39 231.034 Q1805.83 231.034 1806.36 231.104 Q1806.89 231.15 1807.54 231.266 L1807.56 235.641 Z" fill="#000000" fill-rule="nonzero" fill-opacity="1" /><path clip-path="url(#clip500)" d="M1828.56 232.423 L1828.56 236.451 Q1826.75 235.525 1824.81 235.062 Q1822.86 234.599 1820.78 234.599 Q1817.61 234.599 1816.01 235.571 Q1814.44 236.543 1814.44 238.488 Q1814.44 239.969 1815.57 240.826 Q1816.71 241.659 1820.13 242.423 L1821.59 242.747 Q1826.13 243.719 1828.03 245.502 Q1829.95 247.261 1829.95 250.432 Q1829.95 254.043 1827.08 256.15 Q1824.23 258.256 1819.23 258.256 Q1817.15 258.256 1814.88 257.84 Q1812.63 257.446 1810.13 256.636 L1810.13 252.238 Q1812.49 253.465 1814.79 254.09 Q1817.08 254.691 1819.32 254.691 Q1822.33 254.691 1823.95 253.673 Q1825.57 252.631 1825.57 250.756 Q1825.57 249.02 1824.39 248.094 Q1823.24 247.168 1819.28 246.312 L1817.8 245.965 Q1813.84 245.131 1812.08 243.418 Q1810.32 241.682 1810.32 238.673 Q1810.32 235.016 1812.91 233.025 Q1815.5 231.034 1820.27 231.034 Q1822.63 231.034 1824.72 231.381 Q1826.8 231.729 1828.56 232.423 Z" fill="#000000" fill-rule="nonzero" fill-opacity="1" /><path clip-path="url(#clip500)" d="M1858.91 243.557 L1858.91 245.641 L1839.32 245.641 Q1839.6 250.039 1841.96 252.354 Q1844.35 254.645 1848.58 254.645 Q1851.04 254.645 1853.33 254.043 Q1855.64 253.441 1857.91 252.238 L1857.91 256.266 Q1855.62 257.238 1853.21 257.747 Q1850.8 258.256 1848.33 258.256 Q1842.12 258.256 1838.49 254.645 Q1834.88 251.034 1834.88 244.877 Q1834.88 238.511 1838.3 234.784 Q1841.75 231.034 1847.59 231.034 Q1852.82 231.034 1855.85 234.414 Q1858.91 237.77 1858.91 243.557 M1854.65 242.307 Q1854.6 238.812 1852.68 236.729 Q1850.78 234.645 1847.63 234.645 Q1844.07 234.645 1841.92 236.659 Q1839.79 238.673 1839.46 242.33 L1854.65 242.307 Z" fill="#000000" fill-rule="nonzero" fill-opacity="1" /><path clip-path="url(#clip500)" d="M1884.55 232.655 L1884.55 236.636 Q1882.75 235.641 1880.92 235.155 Q1879.11 234.645 1877.26 234.645 Q1873.12 234.645 1870.83 237.284 Q1868.54 239.9 1868.54 244.645 Q1868.54 249.391 1870.83 252.029 Q1873.12 254.645 1877.26 254.645 Q1879.11 254.645 1880.92 254.159 Q1882.75 253.65 1884.55 252.654 L1884.55 256.59 Q1882.77 257.423 1880.85 257.84 Q1878.95 258.256 1876.8 258.256 Q1870.94 258.256 1867.49 254.576 Q1864.05 250.895 1864.05 244.645 Q1864.05 238.303 1867.52 234.668 Q1871.01 231.034 1877.08 231.034 Q1879.05 231.034 1880.92 231.451 Q1882.8 231.844 1884.55 232.655 Z" fill="#000000" fill-rule="nonzero" fill-opacity="1" /><path clip-path="url(#clip500)" d="M1910.62 232.655 L1910.62 236.636 Q1908.81 235.641 1906.98 235.155 Q1905.18 234.645 1903.33 234.645 Q1899.18 234.645 1896.89 237.284 Q1894.6 239.9 1894.6 244.645 Q1894.6 249.391 1896.89 252.029 Q1899.18 254.645 1903.33 254.645 Q1905.18 254.645 1906.98 254.159 Q1908.81 253.65 1910.62 252.654 L1910.62 256.59 Q1908.84 257.423 1906.92 257.84 Q1905.02 258.256 1902.86 258.256 Q1897.01 258.256 1893.56 254.576 Q1890.11 250.895 1890.11 244.645 Q1890.11 238.303 1893.58 234.668 Q1897.08 231.034 1903.14 231.034 Q1905.11 231.034 1906.98 231.451 Q1908.86 231.844 1910.62 232.655 Z" fill="#000000" fill-rule="nonzero" fill-opacity="1" /><path clip-path="url(#clip500)" d="M1918.03 231.659 L1922.29 231.659 L1922.29 257.585 L1918.03 257.585 L1918.03 231.659 M1918.03 221.567 L1922.29 221.567 L1922.29 226.96 L1918.03 226.96 L1918.03 221.567 Z" fill="#000000" fill-rule="nonzero" fill-opacity="1" /><path clip-path="url(#clip500)" d="M1941.24 234.645 Q1937.82 234.645 1935.83 237.33 Q1933.84 239.992 1933.84 244.645 Q1933.84 249.298 1935.8 251.983 Q1937.79 254.645 1941.24 254.645 Q1944.65 254.645 1946.64 251.96 Q1948.63 249.275 1948.63 244.645 Q1948.63 240.039 1946.64 237.354 Q1944.65 234.645 1941.24 234.645 M1941.24 231.034 Q1946.8 231.034 1949.97 234.645 Q1953.14 238.256 1953.14 244.645 Q1953.14 251.011 1949.97 254.645 Q1946.8 258.256 1941.24 258.256 Q1935.67 258.256 1932.49 254.645 Q1929.35 251.011 1929.35 244.645 Q1929.35 238.256 1932.49 234.645 Q1935.67 231.034 1941.24 231.034 M1944.46 219.669 L1949.07 219.669 L1941.52 228.372 L1937.98 228.372 L1944.46 219.669 Z" fill="#000000" fill-rule="nonzero" fill-opacity="1" /><path clip-path="url(#clip500)" d="M1981.75 241.937 L1981.75 257.585 L1977.49 257.585 L1977.49 242.076 Q1977.49 238.395 1976.06 236.567 Q1974.62 234.738 1971.75 234.738 Q1968.3 234.738 1966.31 236.937 Q1964.32 239.136 1964.32 242.932 L1964.32 257.585 L1960.04 257.585 L1960.04 231.659 L1964.32 231.659 L1964.32 235.687 Q1965.85 233.349 1967.91 232.192 Q1969.99 231.034 1972.7 231.034 Q1977.17 231.034 1979.46 233.812 Q1981.75 236.567 1981.75 241.937 Z" fill="#000000" fill-rule="nonzero" fill-opacity="1" /></svg>
