<?xml version="1.0" encoding="utf-8"?>
<svg xmlns="http://www.w3.org/2000/svg" xmlns:xlink="http://www.w3.org/1999/xlink" width="528" height="336" viewBox="0 0 2112 1344">
<defs>
  <clipPath id="clip890">
    <rect x="0" y="0" width="2112" height="1344"/>
  </clipPath>
</defs>
<path clip-path="url(#clip890)" d="M0 1344 L2112 1344 L2112 0 L0 0  Z" fill="#ffffff" fill-rule="evenodd" fill-opacity="1"/>
<defs>
  <clipPath id="clip891">
    <rect x="422" y="0" width="1479" height="1344"/>
  </clipPath>
</defs>
<path clip-path="url(#clip890)" d="M175.987 1234.58 L2064.76 1234.58 L2064.76 47.2441 L175.987 47.2441  Z" fill="#ffffff" fill-rule="evenodd" fill-opacity="1"/>
<defs>
  <clipPath id="clip892">
    <rect x="175" y="47" width="1890" height="1188"/>
  </clipPath>
</defs>
<polyline clip-path="url(#clip892)" style="stroke:#000000; stroke-linecap:round; stroke-linejoin:round; stroke-width:2; stroke-opacity:0.1; fill:none" points="483.993,1234.58 483.993,47.2441 "/>
<polyline clip-path="url(#clip892)" style="stroke:#000000; stroke-linecap:round; stroke-linejoin:round; stroke-width:2; stroke-opacity:0.1; fill:none" points="993.096,1234.58 993.096,47.2441 "/>
<polyline clip-path="url(#clip892)" style="stroke:#000000; stroke-linecap:round; stroke-linejoin:round; stroke-width:2; stroke-opacity:0.1; fill:none" points="1502.2,1234.58 1502.2,47.2441 "/>
<polyline clip-path="url(#clip892)" style="stroke:#000000; stroke-linecap:round; stroke-linejoin:round; stroke-width:2; stroke-opacity:0.1; fill:none" points="2011.3,1234.58 2011.3,47.2441 "/>
<polyline clip-path="url(#clip892)" style="stroke:#000000; stroke-linecap:round; stroke-linejoin:round; stroke-width:2; stroke-opacity:0.1; fill:none" points="175.987,1186.43 2064.76,1186.43 "/>
<polyline clip-path="url(#clip892)" style="stroke:#000000; stroke-linecap:round; stroke-linejoin:round; stroke-width:2; stroke-opacity:0.1; fill:none" points="175.987,895.486 2064.76,895.486 "/>
<polyline clip-path="url(#clip892)" style="stroke:#000000; stroke-linecap:round; stroke-linejoin:round; stroke-width:2; stroke-opacity:0.1; fill:none" points="175.987,604.544 2064.76,604.544 "/>
<polyline clip-path="url(#clip892)" style="stroke:#000000; stroke-linecap:round; stroke-linejoin:round; stroke-width:2; stroke-opacity:0.1; fill:none" points="175.987,313.602 2064.76,313.602 "/>
<polyline clip-path="url(#clip890)" style="stroke:#000000; stroke-linecap:round; stroke-linejoin:round; stroke-width:4; stroke-opacity:1; fill:none" points="175.987,1234.58 2064.76,1234.58 "/>
<polyline clip-path="url(#clip890)" style="stroke:#000000; stroke-linecap:round; stroke-linejoin:round; stroke-width:4; stroke-opacity:1; fill:none" points="483.993,1234.58 483.993,1215.68 "/>
<polyline clip-path="url(#clip890)" style="stroke:#000000; stroke-linecap:round; stroke-linejoin:round; stroke-width:4; stroke-opacity:1; fill:none" points="993.096,1234.58 993.096,1215.68 "/>
<polyline clip-path="url(#clip890)" style="stroke:#000000; stroke-linecap:round; stroke-linejoin:round; stroke-width:4; stroke-opacity:1; fill:none" points="1502.2,1234.58 1502.2,1215.68 "/>
<polyline clip-path="url(#clip890)" style="stroke:#000000; stroke-linecap:round; stroke-linejoin:round; stroke-width:4; stroke-opacity:1; fill:none" points="2011.3,1234.58 2011.3,1215.68 "/>
<path clip-path="url(#clip890)" d="M453.936 1277.85 L483.612 1277.85 L483.612 1281.78 L453.936 1281.78 L453.936 1277.85 Z" fill="#000000" fill-rule="nonzero" fill-opacity="1" /><path clip-path="url(#clip890)" d="M497.732 1290.74 L514.051 1290.74 L514.051 1294.67 L492.107 1294.67 L492.107 1290.74 Q494.769 1287.99 499.352 1283.36 Q503.959 1278.7 505.139 1277.36 Q507.385 1274.84 508.264 1273.1 Q509.167 1271.34 509.167 1269.65 Q509.167 1266.9 507.223 1265.16 Q505.301 1263.42 502.199 1263.42 Q500 1263.42 497.547 1264.19 Q495.116 1264.95 492.338 1266.5 L492.338 1261.78 Q495.162 1260.65 497.616 1260.07 Q500.07 1259.49 502.107 1259.49 Q507.477 1259.49 510.672 1262.17 Q513.866 1264.86 513.866 1269.35 Q513.866 1271.48 513.056 1273.4 Q512.269 1275.3 510.162 1277.89 Q509.584 1278.56 506.482 1281.78 Q503.38 1284.98 497.732 1290.74 Z" fill="#000000" fill-rule="nonzero" fill-opacity="1" /><path clip-path="url(#clip890)" d="M993.096 1263.19 Q989.485 1263.19 987.656 1266.76 Q985.85 1270.3 985.85 1277.43 Q985.85 1284.54 987.656 1288.1 Q989.485 1291.64 993.096 1291.64 Q996.73 1291.64 998.535 1288.1 Q1000.36 1284.54 1000.36 1277.43 Q1000.36 1270.3 998.535 1266.76 Q996.73 1263.19 993.096 1263.19 M993.096 1259.49 Q998.906 1259.49 1001.96 1264.1 Q1005.04 1268.68 1005.04 1277.43 Q1005.04 1286.16 1001.96 1290.76 Q998.906 1295.35 993.096 1295.35 Q987.286 1295.35 984.207 1290.76 Q981.151 1286.16 981.151 1277.43 Q981.151 1268.68 984.207 1264.1 Q987.286 1259.49 993.096 1259.49 Z" fill="#000000" fill-rule="nonzero" fill-opacity="1" /><path clip-path="url(#clip890)" d="M1496.85 1290.74 L1513.17 1290.74 L1513.17 1294.67 L1491.23 1294.67 L1491.23 1290.74 Q1493.89 1287.99 1498.47 1283.36 Q1503.08 1278.7 1504.26 1277.36 Q1506.5 1274.84 1507.38 1273.1 Q1508.29 1271.34 1508.29 1269.65 Q1508.29 1266.9 1506.34 1265.16 Q1504.42 1263.42 1501.32 1263.42 Q1499.12 1263.42 1496.67 1264.19 Q1494.24 1264.95 1491.46 1266.5 L1491.46 1261.78 Q1494.28 1260.65 1496.74 1260.07 Q1499.19 1259.49 1501.23 1259.49 Q1506.6 1259.49 1509.79 1262.17 Q1512.98 1264.86 1512.98 1269.35 Q1512.98 1271.48 1512.17 1273.4 Q1511.39 1275.3 1509.28 1277.89 Q1508.7 1278.56 1505.6 1281.78 Q1502.5 1284.98 1496.85 1290.74 Z" fill="#000000" fill-rule="nonzero" fill-opacity="1" /><path clip-path="url(#clip890)" d="M2014.31 1264.19 L2002.5 1282.64 L2014.31 1282.64 L2014.31 1264.19 M2013.08 1260.11 L2018.96 1260.11 L2018.96 1282.64 L2023.89 1282.64 L2023.89 1286.53 L2018.96 1286.53 L2018.96 1294.67 L2014.31 1294.67 L2014.31 1286.53 L1998.71 1286.53 L1998.71 1282.01 L2013.08 1260.11 Z" fill="#000000" fill-rule="nonzero" fill-opacity="1" /><polyline clip-path="url(#clip890)" style="stroke:#000000; stroke-linecap:round; stroke-linejoin:round; stroke-width:4; stroke-opacity:1; fill:none" points="175.987,1234.58 175.987,47.2441 "/>
<polyline clip-path="url(#clip890)" style="stroke:#000000; stroke-linecap:round; stroke-linejoin:round; stroke-width:4; stroke-opacity:1; fill:none" points="175.987,1186.43 194.884,1186.43 "/>
<polyline clip-path="url(#clip890)" style="stroke:#000000; stroke-linecap:round; stroke-linejoin:round; stroke-width:4; stroke-opacity:1; fill:none" points="175.987,895.486 194.884,895.486 "/>
<polyline clip-path="url(#clip890)" style="stroke:#000000; stroke-linecap:round; stroke-linejoin:round; stroke-width:4; stroke-opacity:1; fill:none" points="175.987,604.544 194.884,604.544 "/>
<polyline clip-path="url(#clip890)" style="stroke:#000000; stroke-linecap:round; stroke-linejoin:round; stroke-width:4; stroke-opacity:1; fill:none" points="175.987,313.602 194.884,313.602 "/>
<path clip-path="url(#clip890)" d="M52.4321 1186.88 L82.1079 1186.88 L82.1079 1190.81 L52.4321 1190.81 L52.4321 1186.88 Z" fill="#000000" fill-rule="nonzero" fill-opacity="1" /><path clip-path="url(#clip890)" d="M105.048 1173.22 L93.2421 1191.67 L105.048 1191.67 L105.048 1173.22 M103.821 1169.15 L109.7 1169.15 L109.7 1191.67 L114.631 1191.67 L114.631 1195.56 L109.7 1195.56 L109.7 1203.71 L105.048 1203.71 L105.048 1195.56 L89.4458 1195.56 L89.4458 1191.05 L103.821 1169.15 Z" fill="#000000" fill-rule="nonzero" fill-opacity="1" /><path clip-path="url(#clip890)" d="M132.362 1172.23 Q128.751 1172.23 126.922 1175.79 Q125.117 1179.33 125.117 1186.46 Q125.117 1193.57 126.922 1197.13 Q128.751 1200.68 132.362 1200.68 Q135.996 1200.68 137.802 1197.13 Q139.631 1193.57 139.631 1186.46 Q139.631 1179.33 137.802 1175.79 Q135.996 1172.23 132.362 1172.23 M132.362 1168.52 Q138.172 1168.52 141.228 1173.13 Q144.307 1177.71 144.307 1186.46 Q144.307 1195.19 141.228 1199.8 Q138.172 1204.38 132.362 1204.38 Q126.552 1204.38 123.473 1199.8 Q120.418 1195.19 120.418 1186.46 Q120.418 1177.71 123.473 1173.13 Q126.552 1168.52 132.362 1168.52 Z" fill="#000000" fill-rule="nonzero" fill-opacity="1" /><path clip-path="url(#clip890)" d="M52.4321 895.937 L82.1079 895.937 L82.1079 899.872 L52.4321 899.872 L52.4321 895.937 Z" fill="#000000" fill-rule="nonzero" fill-opacity="1" /><path clip-path="url(#clip890)" d="M96.2282 908.831 L112.548 908.831 L112.548 912.766 L90.6032 912.766 L90.6032 908.831 Q93.2652 906.076 97.8485 901.446 Q102.455 896.794 103.636 895.451 Q105.881 892.928 106.761 891.192 Q107.663 889.433 107.663 887.743 Q107.663 884.988 105.719 883.252 Q103.798 881.516 100.696 881.516 Q98.4967 881.516 96.043 882.28 Q93.6125 883.044 90.8347 884.595 L90.8347 879.872 Q93.6588 878.738 96.1124 878.159 Q98.5661 877.581 100.603 877.581 Q105.974 877.581 109.168 880.266 Q112.362 882.951 112.362 887.442 Q112.362 889.571 111.552 891.493 Q110.765 893.391 108.659 895.983 Q108.08 896.655 104.978 899.872 Q101.876 903.067 96.2282 908.831 Z" fill="#000000" fill-rule="nonzero" fill-opacity="1" /><path clip-path="url(#clip890)" d="M132.362 881.284 Q128.751 881.284 126.922 884.849 Q125.117 888.391 125.117 895.52 Q125.117 902.627 126.922 906.192 Q128.751 909.733 132.362 909.733 Q135.996 909.733 137.802 906.192 Q139.631 902.627 139.631 895.52 Q139.631 888.391 137.802 884.849 Q135.996 881.284 132.362 881.284 M132.362 877.581 Q138.172 877.581 141.228 882.187 Q144.307 886.771 144.307 895.52 Q144.307 904.247 141.228 908.854 Q138.172 913.437 132.362 913.437 Q126.552 913.437 123.473 908.854 Q120.418 904.247 120.418 895.52 Q120.418 886.771 123.473 882.187 Q126.552 877.581 132.362 877.581 Z" fill="#000000" fill-rule="nonzero" fill-opacity="1" /><path clip-path="url(#clip890)" d="M132.362 590.342 Q128.751 590.342 126.922 593.907 Q125.117 597.449 125.117 604.578 Q125.117 611.685 126.922 615.25 Q128.751 618.791 132.362 618.791 Q135.996 618.791 137.802 615.25 Q139.631 611.685 139.631 604.578 Q139.631 597.449 137.802 593.907 Q135.996 590.342 132.362 590.342 M132.362 586.639 Q138.172 586.639 141.228 591.245 Q144.307 595.828 144.307 604.578 Q144.307 613.305 141.228 617.912 Q138.172 622.495 132.362 622.495 Q126.552 622.495 123.473 617.912 Q120.418 613.305 120.418 604.578 Q120.418 595.828 123.473 591.245 Q126.552 586.639 132.362 586.639 Z" fill="#000000" fill-rule="nonzero" fill-opacity="1" /><path clip-path="url(#clip890)" d="M96.2282 326.946 L112.548 326.946 L112.548 330.882 L90.6032 330.882 L90.6032 326.946 Q93.2652 324.192 97.8485 319.562 Q102.455 314.909 103.636 313.567 Q105.881 311.044 106.761 309.308 Q107.663 307.548 107.663 305.859 Q107.663 303.104 105.719 301.368 Q103.798 299.632 100.696 299.632 Q98.4967 299.632 96.043 300.396 Q93.6125 301.16 90.8347 302.71 L90.8347 297.988 Q93.6588 296.854 96.1124 296.275 Q98.5661 295.697 100.603 295.697 Q105.974 295.697 109.168 298.382 Q112.362 301.067 112.362 305.558 Q112.362 307.687 111.552 309.609 Q110.765 311.507 108.659 314.099 Q108.08 314.771 104.978 317.988 Q101.876 321.183 96.2282 326.946 Z" fill="#000000" fill-rule="nonzero" fill-opacity="1" /><path clip-path="url(#clip890)" d="M132.362 299.4 Q128.751 299.4 126.922 302.965 Q125.117 306.507 125.117 313.636 Q125.117 320.743 126.922 324.308 Q128.751 327.849 132.362 327.849 Q135.996 327.849 137.802 324.308 Q139.631 320.743 139.631 313.636 Q139.631 306.507 137.802 302.965 Q135.996 299.4 132.362 299.4 M132.362 295.697 Q138.172 295.697 141.228 300.303 Q144.307 304.886 144.307 313.636 Q144.307 322.363 141.228 326.97 Q138.172 331.553 132.362 331.553 Q126.552 331.553 123.473 326.97 Q120.418 322.363 120.418 313.636 Q120.418 304.886 123.473 300.303 Q126.552 295.697 132.362 295.697 Z" fill="#000000" fill-rule="nonzero" fill-opacity="1" /><polyline clip-path="url(#clip892)" style="stroke:#009af9; stroke-linecap:round; stroke-linejoin:round; stroke-width:4; stroke-opacity:1; fill:none" points="229.442,1200.97 234.293,1184.45 239.145,1168.15 243.996,1152.07 248.847,1136.2 262.038,1094.16 275.23,1053.69 288.421,1014.78 301.613,977.404 314.804,941.535 327.996,907.15 341.187,874.224 354.379,842.733 368.864,809.779 383.349,778.494 397.833,748.845 412.318,720.8 426.816,694.304 441.315,669.351 455.813,645.909 470.311,623.945 484.869,603.345 499.427,584.171 513.985,566.39 528.543,549.969 542.053,535.919 555.562,522.986 569.072,511.144 582.581,500.366 597.208,489.868 611.834,480.555 626.461,472.393 641.088,465.349 658.016,458.55 674.943,453.153 691.871,449.106 708.799,446.36 734.413,444.56 760.027,445.441 775.505,447.197 790.983,449.827 806.461,453.293 821.939,457.555 854.205,468.826 886.471,483.03 912.26,496.253 938.049,510.941 969.641,530.664 1001.23,551.98 1033.29,574.896 1065.35,598.759 1122.4,642.476 1174.66,682.513 1209.93,708.735 1245.19,733.779 1271.87,751.661 1298.56,768.402 1326.39,784.433 1354.23,798.775 1386.93,813.151 1419.62,824.512 1446.36,831.305 1473.1,835.631 1488.37,836.916 1503.64,837.293 1518.91,836.725 1534.18,835.172 1548.22,832.846 1562.25,829.628 1576.29,825.489 1590.32,820.4 1607.34,812.913 1624.35,803.934 1641.36,793.41 1658.38,781.291 1672.38,770.081 1686.39,757.724 1700.39,744.193 1714.4,729.458 1730.41,711.103 1746.42,691.093 1762.42,669.386 1778.43,645.937 1790.91,626.432 1803.38,605.824 1815.85,584.09 1828.32,561.212 1844.25,530.302 1860.18,497.449 1876.1,462.61 1892.03,425.743 1905.53,392.858 1919.04,358.458 1932.54,322.517 1946.05,285.008 1959.55,245.905 1973.06,205.182 1986.56,162.813 2000.07,118.772 2002.88,109.402 2005.68,99.958 2008.49,90.44 2011.3,80.8479 "/>
<path clip-path="url(#clip890)" d="M238.946 190.502 L1010.76 190.502 L1010.76 86.8219 L238.946 86.8219  Z" fill="#ffffff" fill-rule="evenodd" fill-opacity="1"/>
<polyline clip-path="url(#clip890)" style="stroke:#000000; stroke-linecap:round; stroke-linejoin:round; stroke-width:4; stroke-opacity:1; fill:none" points="238.946,190.502 1010.76,190.502 1010.76,86.8219 238.946,86.8219 238.946,190.502 "/>
<polyline clip-path="url(#clip890)" style="stroke:#009af9; stroke-linecap:round; stroke-linejoin:round; stroke-width:4; stroke-opacity:1; fill:none" points="259.932,138.662 385.85,138.662 "/>
<path clip-path="url(#clip890)" d="M430.751 120.818 Q430.751 122.106 429.931 122.902 Q429.134 123.699 428.127 123.699 Q427.401 123.699 426.862 123.254 Q426.347 122.809 426.347 122.036 Q426.347 121.239 426.956 120.396 Q427.565 119.553 428.947 119.436 Q428.034 118.569 426.581 118.569 Q425.855 118.569 425.246 119.038 Q424.661 119.483 424.333 120.209 Q423.981 120.958 423.185 125.198 Q422.927 126.58 422.693 127.915 Q422.459 129.25 422.178 130.655 L426.16 130.655 Q426.675 130.655 426.886 130.679 Q427.097 130.702 427.261 130.819 Q427.448 130.936 427.448 131.194 Q427.448 131.85 427.143 132.014 Q426.862 132.154 426.019 132.154 L421.897 132.154 L419.016 147.355 Q418.946 147.8 418.641 149.206 Q418.36 150.588 417.681 152.86 Q417.002 155.155 416.322 156.514 Q415.948 157.287 415.456 158.013 Q414.987 158.762 414.308 159.512 Q413.629 160.261 412.739 160.706 Q411.849 161.175 410.912 161.175 Q409.319 161.175 408.078 160.285 Q406.836 159.395 406.836 157.872 Q406.836 156.584 407.633 155.788 Q408.452 154.991 409.46 154.991 Q410.186 154.991 410.701 155.436 Q411.24 155.881 411.24 156.654 Q411.24 156.982 411.123 157.357 Q411.005 157.732 410.748 158.153 Q410.49 158.598 409.928 158.903 Q409.366 159.207 408.593 159.254 Q409.506 160.121 410.912 160.121 Q411.357 160.121 411.755 159.933 Q412.153 159.769 412.481 159.348 Q412.832 158.926 413.09 158.505 Q413.348 158.106 413.605 157.333 Q413.863 156.584 414.027 156.022 Q414.191 155.46 414.402 154.452 Q414.636 153.445 414.753 152.836 Q414.87 152.251 415.081 151.103 L418.665 132.154 L415.503 132.154 Q414.94 132.154 414.706 132.131 Q414.495 132.107 414.331 131.99 Q414.167 131.85 414.167 131.569 Q414.167 131.124 414.355 130.936 Q414.566 130.726 414.8 130.702 Q415.034 130.655 415.596 130.655 L418.922 130.655 Q420.046 124.729 420.491 123.137 Q421.007 121.45 421.803 120.279 Q422.6 119.085 423.49 118.522 Q424.38 117.96 425.106 117.75 Q425.855 117.515 426.581 117.515 Q428.221 117.515 429.486 118.405 Q430.751 119.272 430.751 120.818 Z" fill="#000000" fill-rule="nonzero" fill-opacity="1" /><path clip-path="url(#clip890)" d="M437.206 139.345 Q437.206 131.241 440.228 124.706 Q441.516 121.966 443.319 119.67 Q445.123 117.375 446.318 116.368 Q447.512 115.36 447.84 115.36 Q448.308 115.36 448.332 115.829 Q448.332 116.063 447.699 116.649 Q439.97 124.519 439.993 139.345 Q439.993 154.218 447.512 161.784 Q448.332 162.603 448.332 162.861 Q448.332 163.33 447.84 163.33 Q447.512 163.33 446.364 162.369 Q445.217 161.409 443.437 159.207 Q441.656 157.006 440.368 154.312 Q437.206 147.777 437.206 139.345 Z" fill="#000000" fill-rule="nonzero" fill-opacity="1" /><path clip-path="url(#clip890)" d="M475.867 133.302 Q475.867 134.614 475.047 135.363 Q474.227 136.089 473.291 136.089 Q472.401 136.089 471.932 135.574 Q471.464 135.059 471.464 134.403 Q471.464 133.513 472.119 132.74 Q472.775 131.967 473.759 131.803 Q472.799 131.194 471.37 131.194 Q470.433 131.194 469.613 131.686 Q468.817 132.178 468.325 132.81 Q467.857 133.443 467.435 134.356 Q467.037 135.246 466.873 135.785 Q466.732 136.3 466.615 136.862 L464.976 143.42 Q464.179 146.536 464.179 147.637 Q464.179 148.995 464.835 149.909 Q465.491 150.799 466.803 150.799 Q467.318 150.799 467.903 150.658 Q468.489 150.494 469.238 150.072 Q470.011 149.627 470.691 148.972 Q471.393 148.292 472.073 147.145 Q472.752 145.997 473.197 144.521 Q473.337 144.006 473.806 144.006 Q474.391 144.006 474.391 144.475 Q474.391 144.873 474.064 145.716 Q473.759 146.536 473.08 147.613 Q472.424 148.667 471.557 149.627 Q470.691 150.564 469.402 151.22 Q468.114 151.876 466.709 151.876 Q464.695 151.876 463.359 150.799 Q462.024 149.721 461.533 148.222 Q461.415 148.433 461.251 148.714 Q461.087 148.995 460.596 149.627 Q460.127 150.236 459.588 150.705 Q459.05 151.15 458.207 151.501 Q457.387 151.876 456.497 151.876 Q455.372 151.876 454.365 151.548 Q453.382 151.22 452.679 150.471 Q451.976 149.721 451.976 148.691 Q451.976 147.543 452.749 146.746 Q453.545 145.927 454.623 145.927 Q455.302 145.927 455.841 146.325 Q456.403 146.723 456.403 147.59 Q456.403 148.55 455.747 149.276 Q455.091 150.002 454.154 150.19 Q455.115 150.799 456.544 150.799 Q458.089 150.799 459.307 149.44 Q460.525 148.082 461.111 145.81 Q462.563 140.352 463.125 137.916 Q463.687 135.457 463.687 134.403 Q463.687 133.419 463.43 132.74 Q463.172 132.061 462.727 131.756 Q462.305 131.428 461.907 131.311 Q461.533 131.194 461.111 131.194 Q460.408 131.194 459.612 131.475 Q458.839 131.756 457.902 132.412 Q456.989 133.044 456.122 134.356 Q455.255 135.668 454.67 137.471 Q454.553 138.01 454.037 138.01 Q453.475 137.986 453.475 137.518 Q453.475 137.12 453.78 136.3 Q454.108 135.457 454.763 134.403 Q455.443 133.349 456.309 132.412 Q457.199 131.452 458.488 130.796 Q459.799 130.14 461.205 130.14 Q461.837 130.14 462.446 130.281 Q463.078 130.398 463.828 130.749 Q464.601 131.1 465.28 131.873 Q465.959 132.646 466.381 133.77 Q466.662 133.232 467.037 132.716 Q467.435 132.201 468.044 131.569 Q468.676 130.913 469.543 130.538 Q470.433 130.14 471.417 130.14 Q472.377 130.14 473.314 130.398 Q474.251 130.632 475.047 131.405 Q475.867 132.154 475.867 133.302 Z" fill="#000000" fill-rule="nonzero" fill-opacity="1" /><path clip-path="url(#clip890)" d="M480.483 162.861 Q480.483 162.627 481.092 162.041 Q488.822 154.171 488.822 139.345 Q488.822 124.472 481.397 116.953 Q480.483 116.087 480.483 115.829 Q480.483 115.36 480.952 115.36 Q481.28 115.36 482.427 116.321 Q483.598 117.281 485.355 119.483 Q487.135 121.684 488.447 124.378 Q491.609 130.913 491.609 139.345 Q491.609 147.449 488.587 153.984 Q487.299 156.724 485.496 159.02 Q483.692 161.315 482.497 162.322 Q481.303 163.33 480.952 163.33 Q480.483 163.33 480.483 162.861 Z" fill="#000000" fill-rule="nonzero" fill-opacity="1" /><path clip-path="url(#clip890)" d="M512.209 144.053 Q512.256 143.467 513.17 143.467 L542.565 143.467 Q543.947 143.467 543.97 144.006 Q543.97 144.592 542.659 144.568 L513.498 144.568 Q512.209 144.592 512.209 144.053 M512.209 134.684 Q512.209 134.098 513.217 134.122 L542.518 134.122 Q543.947 134.122 543.97 134.684 Q543.97 135.223 542.752 135.223 L513.17 135.223 Q512.209 135.223 512.209 134.684 Z" fill="#000000" fill-rule="nonzero" fill-opacity="1" /><path clip-path="url(#clip890)" d="M562.47 151.337 Q562.47 150.471 562.54 150.213 Q562.633 149.955 563.008 149.557 L572.213 139.298 Q577.249 133.63 577.249 128.688 Q577.249 125.479 575.563 123.184 Q573.9 120.888 570.831 120.888 Q568.723 120.888 566.943 122.176 Q565.163 123.465 564.343 125.76 Q564.484 125.713 564.976 125.713 Q566.17 125.713 566.826 126.463 Q567.505 127.212 567.505 128.219 Q567.505 129.508 566.662 130.14 Q565.842 130.749 565.023 130.749 Q564.695 130.749 564.25 130.679 Q563.828 130.608 563.149 129.953 Q562.47 129.273 562.47 128.079 Q562.47 124.729 564.999 122.059 Q567.552 119.389 571.44 119.389 Q575.844 119.389 578.725 122.012 Q581.629 124.612 581.629 128.688 Q581.629 130.117 581.184 131.428 Q580.762 132.716 580.177 133.724 Q579.615 134.731 578.069 136.347 Q576.523 137.963 575.282 139.111 Q574.04 140.258 571.253 142.694 L566.17 147.637 L574.813 147.637 Q579.029 147.637 579.357 147.262 Q579.826 146.583 580.411 142.999 L581.629 142.999 L580.271 151.337 L562.47 151.337 Z" fill="#000000" fill-rule="nonzero" fill-opacity="1" /><path clip-path="url(#clip890)" d="M610.114 133.302 Q610.114 134.614 609.294 135.363 Q608.474 136.089 607.537 136.089 Q606.647 136.089 606.179 135.574 Q605.71 135.059 605.71 134.403 Q605.71 133.513 606.366 132.74 Q607.022 131.967 608.006 131.803 Q607.045 131.194 605.616 131.194 Q604.68 131.194 603.86 131.686 Q603.063 132.178 602.572 132.81 Q602.103 133.443 601.681 134.356 Q601.283 135.246 601.119 135.785 Q600.979 136.3 600.862 136.862 L599.222 143.42 Q598.426 146.536 598.426 147.637 Q598.426 148.995 599.082 149.909 Q599.737 150.799 601.049 150.799 Q601.564 150.799 602.15 150.658 Q602.735 150.494 603.485 150.072 Q604.258 149.627 604.937 148.972 Q605.64 148.292 606.319 147.145 Q606.998 145.997 607.443 144.521 Q607.584 144.006 608.052 144.006 Q608.638 144.006 608.638 144.475 Q608.638 144.873 608.31 145.716 Q608.006 146.536 607.326 147.613 Q606.67 148.667 605.804 149.627 Q604.937 150.564 603.649 151.22 Q602.361 151.876 600.955 151.876 Q598.941 151.876 597.606 150.799 Q596.271 149.721 595.779 148.222 Q595.662 148.433 595.498 148.714 Q595.334 148.995 594.842 149.627 Q594.374 150.236 593.835 150.705 Q593.296 151.15 592.453 151.501 Q591.633 151.876 590.743 151.876 Q589.619 151.876 588.612 151.548 Q587.628 151.22 586.925 150.471 Q586.223 149.721 586.223 148.691 Q586.223 147.543 586.996 146.746 Q587.792 145.927 588.869 145.927 Q589.549 145.927 590.087 146.325 Q590.649 146.723 590.649 147.59 Q590.649 148.55 589.994 149.276 Q589.338 150.002 588.401 150.19 Q589.361 150.799 590.79 150.799 Q592.336 150.799 593.554 149.44 Q594.772 148.082 595.357 145.81 Q596.81 140.352 597.372 137.916 Q597.934 135.457 597.934 134.403 Q597.934 133.419 597.676 132.74 Q597.419 132.061 596.974 131.756 Q596.552 131.428 596.154 131.311 Q595.779 131.194 595.357 131.194 Q594.655 131.194 593.858 131.475 Q593.085 131.756 592.149 132.412 Q591.235 133.044 590.368 134.356 Q589.502 135.668 588.916 137.471 Q588.799 138.01 588.284 138.01 Q587.722 137.986 587.722 137.518 Q587.722 137.12 588.026 136.3 Q588.354 135.457 589.01 134.403 Q589.689 133.349 590.556 132.412 Q591.446 131.452 592.734 130.796 Q594.046 130.14 595.451 130.14 Q596.083 130.14 596.692 130.281 Q597.325 130.398 598.074 130.749 Q598.847 131.1 599.527 131.873 Q600.206 132.646 600.627 133.77 Q600.909 133.232 601.283 132.716 Q601.681 132.201 602.29 131.569 Q602.923 130.913 603.789 130.538 Q604.68 130.14 605.663 130.14 Q606.624 130.14 607.56 130.398 Q608.497 130.632 609.294 131.405 Q610.114 132.154 610.114 133.302 Z" fill="#000000" fill-rule="nonzero" fill-opacity="1" /><path clip-path="url(#clip890)" d="M614.993 131.728 Q614.993 130.728 615.566 130.253 Q616.14 129.777 616.878 129.777 Q617.649 129.777 618.19 130.286 Q618.747 130.778 618.747 131.646 Q618.747 132.581 618.091 133.106 Q617.452 133.63 616.534 133.499 Q617.337 134.844 618.813 135.45 Q620.305 136.057 621.682 136.057 Q623.125 136.057 624.289 134.811 Q625.469 133.565 625.469 130.515 Q625.469 127.925 624.453 126.433 Q623.453 124.941 621.469 124.941 L619.993 124.941 Q619.485 124.941 619.337 124.891 Q619.19 124.842 619.19 124.564 Q619.19 124.236 619.698 124.17 Q620.206 124.17 621.01 124.072 Q622.961 124.006 623.994 122.317 Q624.928 120.743 624.928 118.497 Q624.928 116.448 623.945 115.595 Q622.977 114.726 621.715 114.726 Q620.534 114.726 619.239 115.218 Q617.944 115.71 617.239 116.808 Q619.321 116.808 619.321 118.497 Q619.321 119.235 618.846 119.727 Q618.387 120.202 617.616 120.202 Q616.878 120.202 616.386 119.743 Q615.894 119.268 615.894 118.464 Q615.894 116.546 617.6 115.218 Q619.321 113.89 621.846 113.89 Q624.338 113.89 626.175 115.202 Q628.027 116.513 628.027 118.53 Q628.027 120.514 626.716 122.137 Q625.404 123.76 623.322 124.432 Q625.879 124.941 627.404 126.679 Q628.929 128.4 628.929 130.515 Q628.929 133.138 626.863 135.073 Q624.797 136.991 621.78 136.991 Q618.993 136.991 616.993 135.483 Q614.993 133.975 614.993 131.728 Z" fill="#000000" fill-rule="nonzero" fill-opacity="1" /><path clip-path="url(#clip890)" d="M678.881 138.666 Q679.162 138.947 679.162 139.345 Q679.162 139.743 678.881 140.024 Q678.6 140.305 678.201 140.305 L648.174 140.305 Q647.776 140.305 647.495 140.024 Q647.214 139.743 647.214 139.345 Q647.214 138.947 647.495 138.666 Q647.776 138.385 648.174 138.385 L678.201 138.385 Q678.6 138.385 678.881 138.666 Z" fill="#000000" fill-rule="nonzero" fill-opacity="1" /><path clip-path="url(#clip890)" d="M697.474 144.873 Q697.474 143.444 698.293 142.765 Q699.113 142.085 700.167 142.085 Q701.268 142.085 702.041 142.812 Q702.837 143.514 702.837 144.756 Q702.837 146.091 701.901 146.84 Q700.987 147.59 699.675 147.402 Q700.823 149.323 702.931 150.19 Q705.063 151.056 707.03 151.056 Q709.091 151.056 710.754 149.276 Q712.441 147.496 712.441 143.139 Q712.441 139.439 710.988 137.307 Q709.56 135.176 706.726 135.176 L704.618 135.176 Q703.891 135.176 703.681 135.106 Q703.47 135.035 703.47 134.637 Q703.47 134.169 704.196 134.075 Q704.922 134.075 706.07 133.934 Q708.857 133.841 710.333 131.428 Q711.668 129.18 711.668 125.971 Q711.668 123.043 710.262 121.825 Q708.88 120.584 707.077 120.584 Q705.39 120.584 703.54 121.286 Q701.69 121.989 700.683 123.558 Q703.657 123.558 703.657 125.971 Q703.657 127.025 702.978 127.727 Q702.322 128.407 701.221 128.407 Q700.167 128.407 699.465 127.751 Q698.762 127.072 698.762 125.924 Q698.762 123.184 701.198 121.286 Q703.657 119.389 707.264 119.389 Q710.824 119.389 713.448 121.263 Q716.095 123.137 716.095 126.018 Q716.095 128.852 714.221 131.171 Q712.347 133.489 709.372 134.45 Q713.026 135.176 715.204 137.659 Q717.383 140.118 717.383 143.139 Q717.383 146.887 714.432 149.651 Q711.48 152.391 707.171 152.391 Q703.189 152.391 700.331 150.236 Q697.474 148.082 697.474 144.873 Z" fill="#000000" fill-rule="nonzero" fill-opacity="1" /><path clip-path="url(#clip890)" d="M745.118 133.302 Q745.118 134.614 744.298 135.363 Q743.478 136.089 742.541 136.089 Q741.651 136.089 741.183 135.574 Q740.714 135.059 740.714 134.403 Q740.714 133.513 741.37 132.74 Q742.026 131.967 743.01 131.803 Q742.049 131.194 740.621 131.194 Q739.684 131.194 738.864 131.686 Q738.068 132.178 737.576 132.81 Q737.107 133.443 736.686 134.356 Q736.287 135.246 736.123 135.785 Q735.983 136.3 735.866 136.862 L734.226 143.42 Q733.43 146.536 733.43 147.637 Q733.43 148.995 734.086 149.909 Q734.742 150.799 736.053 150.799 Q736.568 150.799 737.154 150.658 Q737.74 150.494 738.489 150.072 Q739.262 149.627 739.941 148.972 Q740.644 148.292 741.323 147.145 Q742.003 145.997 742.448 144.521 Q742.588 144.006 743.057 144.006 Q743.642 144.006 743.642 144.475 Q743.642 144.873 743.314 145.716 Q743.01 146.536 742.33 147.613 Q741.675 148.667 740.808 149.627 Q739.941 150.564 738.653 151.22 Q737.365 151.876 735.96 151.876 Q733.945 151.876 732.61 150.799 Q731.275 149.721 730.783 148.222 Q730.666 148.433 730.502 148.714 Q730.338 148.995 729.846 149.627 Q729.378 150.236 728.839 150.705 Q728.3 151.15 727.457 151.501 Q726.637 151.876 725.747 151.876 Q724.623 151.876 723.616 151.548 Q722.632 151.22 721.929 150.471 Q721.227 149.721 721.227 148.691 Q721.227 147.543 722 146.746 Q722.796 145.927 723.874 145.927 Q724.553 145.927 725.092 146.325 Q725.654 146.723 725.654 147.59 Q725.654 148.55 724.998 149.276 Q724.342 150.002 723.405 150.19 Q724.365 150.799 725.794 150.799 Q727.34 150.799 728.558 149.44 Q729.776 148.082 730.362 145.81 Q731.814 140.352 732.376 137.916 Q732.938 135.457 732.938 134.403 Q732.938 133.419 732.68 132.74 Q732.423 132.061 731.978 131.756 Q731.556 131.428 731.158 131.311 Q730.783 131.194 730.362 131.194 Q729.659 131.194 728.863 131.475 Q728.09 131.756 727.153 132.412 Q726.239 133.044 725.373 134.356 Q724.506 135.668 723.92 137.471 Q723.803 138.01 723.288 138.01 Q722.726 137.986 722.726 137.518 Q722.726 137.12 723.03 136.3 Q723.358 135.457 724.014 134.403 Q724.693 133.349 725.56 132.412 Q726.45 131.452 727.738 130.796 Q729.05 130.14 730.455 130.14 Q731.088 130.14 731.697 130.281 Q732.329 130.398 733.079 130.749 Q733.851 131.1 734.531 131.873 Q735.21 132.646 735.632 133.77 Q735.913 133.232 736.287 132.716 Q736.686 132.201 737.295 131.569 Q737.927 130.913 738.794 130.538 Q739.684 130.14 740.667 130.14 Q741.628 130.14 742.565 130.398 Q743.502 130.632 744.298 131.405 Q745.118 132.154 745.118 133.302 Z" fill="#000000" fill-rule="nonzero" fill-opacity="1" /><path clip-path="url(#clip890)" d="M749.997 136.985 Q749.997 136.379 750.046 136.198 Q750.112 136.018 750.374 135.739 L756.817 128.558 Q760.342 124.59 760.342 121.131 Q760.342 118.884 759.162 117.278 Q757.998 115.671 755.85 115.671 Q754.374 115.671 753.128 116.573 Q751.882 117.474 751.308 119.081 Q751.407 119.048 751.751 119.048 Q752.587 119.048 753.046 119.573 Q753.522 120.098 753.522 120.803 Q753.522 121.704 752.932 122.147 Q752.358 122.573 751.784 122.573 Q751.554 122.573 751.243 122.524 Q750.948 122.475 750.472 122.016 Q749.997 121.54 749.997 120.704 Q749.997 118.36 751.768 116.491 Q753.555 114.621 756.276 114.621 Q759.359 114.621 761.375 116.458 Q763.408 118.278 763.408 121.131 Q763.408 122.131 763.097 123.049 Q762.802 123.951 762.392 124.656 Q761.998 125.361 760.916 126.492 Q759.834 127.623 758.965 128.427 Q758.096 129.23 756.145 130.935 L752.587 134.395 L758.637 134.395 Q761.589 134.395 761.818 134.132 Q762.146 133.657 762.556 131.148 L763.408 131.148 L762.458 136.985 L749.997 136.985 Z" fill="#000000" fill-rule="nonzero" fill-opacity="1" /><path clip-path="url(#clip890)" d="M813.365 138.666 Q813.646 138.947 813.646 139.345 Q813.646 139.743 813.365 140.024 Q813.084 140.305 812.686 140.305 L782.658 140.305 Q782.26 140.305 781.979 140.024 Q781.698 139.743 781.698 139.345 Q781.698 138.947 781.979 138.666 Q782.26 138.385 782.658 138.385 L812.686 138.385 Q813.084 138.385 813.365 138.666 Z" fill="#000000" fill-rule="nonzero" fill-opacity="1" /><path clip-path="url(#clip890)" d="M831.958 123.956 L831.958 122.457 Q837.72 122.457 840.695 119.389 Q841.514 119.389 841.655 119.576 Q841.796 119.764 841.796 120.63 L841.796 147.543 Q841.796 148.972 842.498 149.417 Q843.201 149.862 846.269 149.862 L847.792 149.862 L847.792 151.337 Q846.105 151.197 840.015 151.197 Q833.926 151.197 832.263 151.337 L832.263 149.862 L833.785 149.862 Q836.807 149.862 837.533 149.44 Q838.259 148.995 838.259 147.543 L838.259 122.692 Q835.753 123.956 831.958 123.956 Z" fill="#000000" fill-rule="nonzero" fill-opacity="1" /><path clip-path="url(#clip890)" d="M852.305 151.337 Q852.305 150.471 852.375 150.213 Q852.469 149.955 852.844 149.557 L862.049 139.298 Q867.085 133.63 867.085 128.688 Q867.085 125.479 865.398 123.184 Q863.735 120.888 860.667 120.888 Q858.559 120.888 856.779 122.176 Q854.999 123.465 854.179 125.76 Q854.32 125.713 854.811 125.713 Q856.006 125.713 856.662 126.463 Q857.341 127.212 857.341 128.219 Q857.341 129.508 856.498 130.14 Q855.678 130.749 854.858 130.749 Q854.53 130.749 854.085 130.679 Q853.664 130.608 852.984 129.953 Q852.305 129.273 852.305 128.079 Q852.305 124.729 854.835 122.059 Q857.388 119.389 861.276 119.389 Q865.679 119.389 868.56 122.012 Q871.465 124.612 871.465 128.688 Q871.465 130.117 871.02 131.428 Q870.598 132.716 870.013 133.724 Q869.45 134.731 867.905 136.347 Q866.359 137.963 865.117 139.111 Q863.876 140.258 861.089 142.694 L856.006 147.637 L864.649 147.637 Q868.865 147.637 869.193 147.262 Q869.661 146.583 870.247 142.999 L871.465 142.999 L870.106 151.337 L852.305 151.337 Z" fill="#000000" fill-rule="nonzero" fill-opacity="1" /><path clip-path="url(#clip890)" d="M899.181 133.302 Q899.181 134.614 898.361 135.363 Q897.542 136.089 896.605 136.089 Q895.715 136.089 895.246 135.574 Q894.778 135.059 894.778 134.403 Q894.778 133.513 895.434 132.74 Q896.089 131.967 897.073 131.803 Q896.113 131.194 894.684 131.194 Q893.747 131.194 892.927 131.686 Q892.131 132.178 891.639 132.81 Q891.171 133.443 890.749 134.356 Q890.351 135.246 890.187 135.785 Q890.046 136.3 889.929 136.862 L888.29 143.42 Q887.493 146.536 887.493 147.637 Q887.493 148.995 888.149 149.909 Q888.805 150.799 890.117 150.799 Q890.632 150.799 891.218 150.658 Q891.803 150.494 892.553 150.072 Q893.326 149.627 894.005 148.972 Q894.708 148.292 895.387 147.145 Q896.066 145.997 896.511 144.521 Q896.652 144.006 897.12 144.006 Q897.706 144.006 897.706 144.475 Q897.706 144.873 897.378 145.716 Q897.073 146.536 896.394 147.613 Q895.738 148.667 894.872 149.627 Q894.005 150.564 892.717 151.22 Q891.428 151.876 890.023 151.876 Q888.009 151.876 886.674 150.799 Q885.339 149.721 884.847 148.222 Q884.73 148.433 884.566 148.714 Q884.402 148.995 883.91 149.627 Q883.441 150.236 882.903 150.705 Q882.364 151.15 881.521 151.501 Q880.701 151.876 879.811 151.876 Q878.687 151.876 877.679 151.548 Q876.696 151.22 875.993 150.471 Q875.29 149.721 875.29 148.691 Q875.29 147.543 876.063 146.746 Q876.86 145.927 877.937 145.927 Q878.616 145.927 879.155 146.325 Q879.717 146.723 879.717 147.59 Q879.717 148.55 879.061 149.276 Q878.406 150.002 877.469 150.19 Q878.429 150.799 879.858 150.799 Q881.404 150.799 882.622 149.44 Q883.84 148.082 884.425 145.81 Q885.877 140.352 886.439 137.916 Q887.002 135.457 887.002 134.403 Q887.002 133.419 886.744 132.74 Q886.486 132.061 886.041 131.756 Q885.62 131.428 885.221 131.311 Q884.847 131.194 884.425 131.194 Q883.722 131.194 882.926 131.475 Q882.153 131.756 881.216 132.412 Q880.303 133.044 879.436 134.356 Q878.569 135.668 877.984 137.471 Q877.867 138.01 877.352 138.01 Q876.789 137.986 876.789 137.518 Q876.789 137.12 877.094 136.3 Q877.422 135.457 878.078 134.403 Q878.757 133.349 879.623 132.412 Q880.514 131.452 881.802 130.796 Q883.113 130.14 884.519 130.14 Q885.151 130.14 885.76 130.281 Q886.393 130.398 887.142 130.749 Q887.915 131.1 888.594 131.873 Q889.274 132.646 889.695 133.77 Q889.976 133.232 890.351 132.716 Q890.749 132.201 891.358 131.569 Q891.991 130.913 892.857 130.538 Q893.747 130.14 894.731 130.14 Q895.691 130.14 896.628 130.398 Q897.565 130.632 898.361 131.405 Q899.181 132.154 899.181 133.302 Z" fill="#000000" fill-rule="nonzero" fill-opacity="1" /><path clip-path="url(#clip890)" d="M916.862 139.931 Q915.762 139.931 915.762 139.345 Q915.762 138.759 916.909 138.759 Q917.05 138.759 917.284 138.783 Q917.542 138.806 917.589 138.806 L931.103 138.806 L931.103 125.245 Q931.103 125.198 931.08 124.987 Q931.056 124.753 931.056 124.612 Q931.056 123.465 931.619 123.465 Q932.204 123.465 932.204 124.612 L932.204 138.806 L945.742 138.806 Q945.789 138.806 946.023 138.783 Q946.258 138.759 946.398 138.759 Q947.499 138.759 947.499 139.345 Q947.522 139.931 946.351 139.931 Q946.211 139.931 946 139.907 Q945.789 139.884 945.742 139.884 L932.204 139.884 L932.204 154.125 Q932.204 155.225 931.619 155.225 Q931.056 155.225 931.056 154.078 Q931.056 153.937 931.08 153.703 Q931.103 153.492 931.103 153.445 L931.103 139.884 L917.589 139.884 Q917.542 139.884 917.261 139.907 Q917.003 139.931 916.862 139.931 Z" fill="#000000" fill-rule="nonzero" fill-opacity="1" /><path clip-path="url(#clip890)" d="M966.022 143.42 L966.022 141.945 L980.754 119.436 Q981.129 118.85 981.715 118.874 Q982.253 118.874 982.371 119.085 Q982.488 119.295 982.488 120.115 L982.488 141.945 L987.289 141.945 L987.289 143.42 L982.488 143.42 L982.488 147.59 Q982.488 148.972 983.05 149.417 Q983.635 149.862 986.118 149.862 L987.125 149.862 L987.125 151.337 Q985.158 151.197 980.614 151.197 Q976.093 151.197 974.126 151.337 L974.126 149.862 L975.133 149.862 Q977.616 149.862 978.201 149.44 Q978.787 148.995 978.787 147.59 L978.787 143.42 L966.022 143.42 M967.38 141.945 L979.068 141.945 L979.068 124.05 L967.38 141.945 Z" fill="#000000" fill-rule="nonzero" fill-opacity="1" /></svg>
