<?xml version="1.0" encoding="utf-8"?>
<svg xmlns="http://www.w3.org/2000/svg" xmlns:xlink="http://www.w3.org/1999/xlink" width="528" height="336" viewBox="0 0 2112 1344">
<defs>
  <clipPath id="clip770">
    <rect x="0" y="0" width="2112" height="1344"/>
  </clipPath>
</defs>
<path clip-path="url(#clip770)" d="M0 1344 L2112 1344 L2112 0 L0 0  Z" fill="#ffffff" fill-rule="evenodd" fill-opacity="1"/>
<defs>
  <clipPath id="clip771">
    <rect x="422" y="0" width="1479" height="1344"/>
  </clipPath>
</defs>
<path clip-path="url(#clip770)" d="M214.826 1173.47 L2064.76 1173.47 L2064.76 47.2441 L214.826 47.2441  Z" fill="#ffffff" fill-rule="evenodd" fill-opacity="1"/>
<defs>
  <clipPath id="clip772">
    <rect x="214" y="47" width="1851" height="1127"/>
  </clipPath>
</defs>
<polyline clip-path="url(#clip772)" style="stroke:#000000; stroke-linecap:round; stroke-linejoin:round; stroke-width:2; stroke-opacity:0.1; fill:none" points="214.826,1173.47 214.826,47.2441 "/>
<polyline clip-path="url(#clip772)" style="stroke:#000000; stroke-linecap:round; stroke-linejoin:round; stroke-width:2; stroke-opacity:0.1; fill:none" points="584.812,1173.47 584.812,47.2441 "/>
<polyline clip-path="url(#clip772)" style="stroke:#000000; stroke-linecap:round; stroke-linejoin:round; stroke-width:2; stroke-opacity:0.1; fill:none" points="954.798,1173.47 954.798,47.2441 "/>
<polyline clip-path="url(#clip772)" style="stroke:#000000; stroke-linecap:round; stroke-linejoin:round; stroke-width:2; stroke-opacity:0.1; fill:none" points="1324.78,1173.47 1324.78,47.2441 "/>
<polyline clip-path="url(#clip772)" style="stroke:#000000; stroke-linecap:round; stroke-linejoin:round; stroke-width:2; stroke-opacity:0.1; fill:none" points="1694.77,1173.47 1694.77,47.2441 "/>
<polyline clip-path="url(#clip772)" style="stroke:#000000; stroke-linecap:round; stroke-linejoin:round; stroke-width:2; stroke-opacity:0.1; fill:none" points="2064.76,1173.47 2064.76,47.2441 "/>
<polyline clip-path="url(#clip772)" style="stroke:#000000; stroke-linecap:round; stroke-linejoin:round; stroke-width:2; stroke-opacity:0.1; fill:none" points="214.826,1141.6 2064.76,1141.6 "/>
<polyline clip-path="url(#clip772)" style="stroke:#000000; stroke-linecap:round; stroke-linejoin:round; stroke-width:2; stroke-opacity:0.1; fill:none" points="214.826,982.603 2064.76,982.603 "/>
<polyline clip-path="url(#clip772)" style="stroke:#000000; stroke-linecap:round; stroke-linejoin:round; stroke-width:2; stroke-opacity:0.1; fill:none" points="214.826,823.609 2064.76,823.609 "/>
<polyline clip-path="url(#clip772)" style="stroke:#000000; stroke-linecap:round; stroke-linejoin:round; stroke-width:2; stroke-opacity:0.1; fill:none" points="214.826,664.616 2064.76,664.616 "/>
<polyline clip-path="url(#clip772)" style="stroke:#000000; stroke-linecap:round; stroke-linejoin:round; stroke-width:2; stroke-opacity:0.1; fill:none" points="214.826,505.622 2064.76,505.622 "/>
<polyline clip-path="url(#clip772)" style="stroke:#000000; stroke-linecap:round; stroke-linejoin:round; stroke-width:2; stroke-opacity:0.1; fill:none" points="214.826,346.629 2064.76,346.629 "/>
<polyline clip-path="url(#clip772)" style="stroke:#000000; stroke-linecap:round; stroke-linejoin:round; stroke-width:2; stroke-opacity:0.1; fill:none" points="214.826,187.635 2064.76,187.635 "/>
<polyline clip-path="url(#clip770)" style="stroke:#000000; stroke-linecap:round; stroke-linejoin:round; stroke-width:4; stroke-opacity:1; fill:none" points="214.826,1173.47 2064.76,1173.47 "/>
<polyline clip-path="url(#clip770)" style="stroke:#000000; stroke-linecap:round; stroke-linejoin:round; stroke-width:4; stroke-opacity:1; fill:none" points="214.826,1173.47 214.826,1154.57 "/>
<polyline clip-path="url(#clip770)" style="stroke:#000000; stroke-linecap:round; stroke-linejoin:round; stroke-width:4; stroke-opacity:1; fill:none" points="584.812,1173.47 584.812,1154.57 "/>
<polyline clip-path="url(#clip770)" style="stroke:#000000; stroke-linecap:round; stroke-linejoin:round; stroke-width:4; stroke-opacity:1; fill:none" points="954.798,1173.47 954.798,1154.57 "/>
<polyline clip-path="url(#clip770)" style="stroke:#000000; stroke-linecap:round; stroke-linejoin:round; stroke-width:4; stroke-opacity:1; fill:none" points="1324.78,1173.47 1324.78,1154.57 "/>
<polyline clip-path="url(#clip770)" style="stroke:#000000; stroke-linecap:round; stroke-linejoin:round; stroke-width:4; stroke-opacity:1; fill:none" points="1694.77,1173.47 1694.77,1154.57 "/>
<polyline clip-path="url(#clip770)" style="stroke:#000000; stroke-linecap:round; stroke-linejoin:round; stroke-width:4; stroke-opacity:1; fill:none" points="2064.76,1173.47 2064.76,1154.57 "/>
<path clip-path="url(#clip770)" d="M214.826 1202.09 Q211.215 1202.09 209.386 1205.65 Q207.581 1209.19 207.581 1216.32 Q207.581 1223.43 209.386 1226.99 Q211.215 1230.53 214.826 1230.53 Q218.461 1230.53 220.266 1226.99 Q222.095 1223.43 222.095 1216.32 Q222.095 1209.19 220.266 1205.65 Q218.461 1202.09 214.826 1202.09 M214.826 1198.38 Q220.636 1198.38 223.692 1202.99 Q226.771 1207.57 226.771 1216.32 Q226.771 1225.05 223.692 1229.65 Q220.636 1234.24 214.826 1234.24 Q209.016 1234.24 205.937 1229.65 Q202.882 1225.05 202.882 1216.32 Q202.882 1207.57 205.937 1202.99 Q209.016 1198.38 214.826 1198.38 Z" fill="#000000" fill-rule="nonzero" fill-opacity="1" /><path clip-path="url(#clip770)" d="M579.465 1229.63 L595.784 1229.63 L595.784 1233.57 L573.84 1233.57 L573.84 1229.63 Q576.502 1226.88 581.085 1222.25 Q585.692 1217.59 586.872 1216.25 Q589.118 1213.73 589.997 1211.99 Q590.9 1210.23 590.9 1208.54 Q590.9 1205.79 588.956 1204.05 Q587.034 1202.32 583.933 1202.32 Q581.734 1202.32 579.28 1203.08 Q576.849 1203.84 574.072 1205.4 L574.072 1200.67 Q576.896 1199.54 579.349 1198.96 Q581.803 1198.38 583.84 1198.38 Q589.21 1198.38 592.405 1201.07 Q595.599 1203.75 595.599 1208.24 Q595.599 1210.37 594.789 1212.29 Q594.002 1214.19 591.895 1216.78 Q591.317 1217.46 588.215 1220.67 Q585.113 1223.87 579.465 1229.63 Z" fill="#000000" fill-rule="nonzero" fill-opacity="1" /><path clip-path="url(#clip770)" d="M957.807 1203.08 L946.002 1221.53 L957.807 1221.53 L957.807 1203.08 M956.581 1199.01 L962.46 1199.01 L962.46 1221.53 L967.391 1221.53 L967.391 1225.42 L962.46 1225.42 L962.46 1233.57 L957.807 1233.57 L957.807 1225.42 L942.206 1225.42 L942.206 1220.9 L956.581 1199.01 Z" fill="#000000" fill-rule="nonzero" fill-opacity="1" /><path clip-path="url(#clip770)" d="M1325.19 1214.42 Q1322.04 1214.42 1320.19 1216.58 Q1318.36 1218.73 1318.36 1222.48 Q1318.36 1226.21 1320.19 1228.38 Q1322.04 1230.53 1325.19 1230.53 Q1328.34 1230.53 1330.17 1228.38 Q1332.02 1226.21 1332.02 1222.48 Q1332.02 1218.73 1330.17 1216.58 Q1328.34 1214.42 1325.19 1214.42 M1334.47 1199.77 L1334.47 1204.03 Q1332.71 1203.2 1330.91 1202.76 Q1329.12 1202.32 1327.37 1202.32 Q1322.74 1202.32 1320.28 1205.44 Q1317.85 1208.57 1317.5 1214.89 Q1318.87 1212.87 1320.93 1211.81 Q1322.99 1210.72 1325.47 1210.72 Q1330.68 1210.72 1333.68 1213.89 Q1336.72 1217.04 1336.72 1222.48 Q1336.72 1227.8 1333.57 1231.02 Q1330.42 1234.24 1325.19 1234.24 Q1319.19 1234.24 1316.02 1229.65 Q1312.85 1225.05 1312.85 1216.32 Q1312.85 1208.13 1316.74 1203.27 Q1320.63 1198.38 1327.18 1198.38 Q1328.94 1198.38 1330.72 1198.73 Q1332.53 1199.08 1334.47 1199.77 Z" fill="#000000" fill-rule="nonzero" fill-opacity="1" /><path clip-path="url(#clip770)" d="M1694.77 1217.15 Q1691.44 1217.15 1689.52 1218.94 Q1687.62 1220.72 1687.62 1223.84 Q1687.62 1226.97 1689.52 1228.75 Q1691.44 1230.53 1694.77 1230.53 Q1698.1 1230.53 1700.02 1228.75 Q1701.95 1226.95 1701.95 1223.84 Q1701.95 1220.72 1700.02 1218.94 Q1698.13 1217.15 1694.77 1217.15 M1690.09 1215.16 Q1687.08 1214.42 1685.4 1212.36 Q1683.73 1210.3 1683.73 1207.34 Q1683.73 1203.2 1686.67 1200.79 Q1689.63 1198.38 1694.77 1198.38 Q1699.93 1198.38 1702.87 1200.79 Q1705.81 1203.2 1705.81 1207.34 Q1705.81 1210.3 1704.12 1212.36 Q1702.46 1214.42 1699.47 1215.16 Q1702.85 1215.95 1704.72 1218.24 Q1706.62 1220.53 1706.62 1223.84 Q1706.62 1228.87 1703.54 1231.55 Q1700.49 1234.24 1694.77 1234.24 Q1689.05 1234.24 1685.97 1231.55 Q1682.92 1228.87 1682.92 1223.84 Q1682.92 1220.53 1684.82 1218.24 Q1686.71 1215.95 1690.09 1215.16 M1688.38 1207.78 Q1688.38 1210.47 1690.05 1211.97 Q1691.74 1213.47 1694.77 1213.47 Q1697.78 1213.47 1699.47 1211.97 Q1701.18 1210.47 1701.18 1207.78 Q1701.18 1205.09 1699.47 1203.59 Q1697.78 1202.09 1694.77 1202.09 Q1691.74 1202.09 1690.05 1203.59 Q1688.38 1205.09 1688.38 1207.78 Z" fill="#000000" fill-rule="nonzero" fill-opacity="1" /><path clip-path="url(#clip770)" d="M2039.44 1229.63 L2047.08 1229.63 L2047.08 1203.27 L2038.77 1204.93 L2038.77 1200.67 L2047.04 1199.01 L2051.71 1199.01 L2051.71 1229.63 L2059.35 1229.63 L2059.35 1233.57 L2039.44 1233.57 L2039.44 1229.63 Z" fill="#000000" fill-rule="nonzero" fill-opacity="1" /><path clip-path="url(#clip770)" d="M2078.8 1202.09 Q2075.18 1202.09 2073.36 1205.65 Q2071.55 1209.19 2071.55 1216.32 Q2071.55 1223.43 2073.36 1226.99 Q2075.18 1230.53 2078.8 1230.53 Q2082.43 1230.53 2084.23 1226.99 Q2086.06 1223.43 2086.06 1216.32 Q2086.06 1209.19 2084.23 1205.65 Q2082.43 1202.09 2078.8 1202.09 M2078.8 1198.38 Q2084.61 1198.38 2087.66 1202.99 Q2090.74 1207.57 2090.74 1216.32 Q2090.74 1225.05 2087.66 1229.65 Q2084.61 1234.24 2078.8 1234.24 Q2072.99 1234.24 2069.91 1229.65 Q2066.85 1225.05 2066.85 1216.32 Q2066.85 1207.57 2069.91 1202.99 Q2072.99 1198.38 2078.8 1198.38 Z" fill="#000000" fill-rule="nonzero" fill-opacity="1" /><path clip-path="url(#clip770)" d="M938.507 1314.01 L920.365 1266.49 L927.081 1266.49 L942.136 1306.5 L957.223 1266.49 L963.907 1266.49 L945.796 1314.01 L938.507 1314.01 Z" fill="#000000" fill-rule="nonzero" fill-opacity="1" /><path clip-path="url(#clip770)" d="M979.343 1282.47 Q974.633 1282.47 971.896 1286.16 Q969.158 1289.83 969.158 1296.22 Q969.158 1302.62 971.864 1306.31 Q974.601 1309.97 979.343 1309.97 Q984.022 1309.97 986.759 1306.28 Q989.497 1302.59 989.497 1296.22 Q989.497 1289.89 986.759 1286.2 Q984.022 1282.47 979.343 1282.47 M979.343 1277.51 Q986.982 1277.51 991.343 1282.47 Q995.703 1287.44 995.703 1296.22 Q995.703 1304.98 991.343 1309.97 Q986.982 1314.94 979.343 1314.94 Q971.673 1314.94 967.312 1309.97 Q962.984 1304.98 962.984 1296.22 Q962.984 1287.44 967.312 1282.47 Q971.673 1277.51 979.343 1277.51 Z" fill="#000000" fill-rule="nonzero" fill-opacity="1" /><path clip-path="url(#clip770)" d="M1005.41 1264.49 L1011.27 1264.49 L1011.27 1314.01 L1005.41 1314.01 L1005.41 1264.49 Z" fill="#000000" fill-rule="nonzero" fill-opacity="1" /><path clip-path="url(#clip770)" d="M1022.92 1299.95 L1022.92 1278.37 L1028.77 1278.37 L1028.77 1299.72 Q1028.77 1304.78 1030.75 1307.33 Q1032.72 1309.85 1036.67 1309.85 Q1041.41 1309.85 1044.15 1306.82 Q1046.92 1303.8 1046.92 1298.58 L1046.92 1278.37 L1052.77 1278.37 L1052.77 1314.01 L1046.92 1314.01 L1046.92 1308.54 Q1044.78 1311.79 1041.95 1313.38 Q1039.15 1314.94 1035.43 1314.94 Q1029.28 1314.94 1026.1 1311.12 Q1022.92 1307.3 1022.92 1299.95 M1037.65 1277.51 L1037.65 1277.51 Z" fill="#000000" fill-rule="nonzero" fill-opacity="1" /><path clip-path="url(#clip770)" d="M1092.59 1285.21 Q1094.79 1281.26 1097.84 1279.39 Q1100.9 1277.51 1105.03 1277.51 Q1110.6 1277.51 1113.63 1281.42 Q1116.65 1285.31 1116.65 1292.5 L1116.65 1314.01 L1110.76 1314.01 L1110.76 1292.69 Q1110.76 1287.57 1108.95 1285.08 Q1107.14 1282.6 1103.41 1282.6 Q1098.86 1282.6 1096.22 1285.62 Q1093.58 1288.65 1093.58 1293.87 L1093.58 1314.01 L1087.69 1314.01 L1087.69 1292.69 Q1087.69 1287.53 1085.87 1285.08 Q1084.06 1282.6 1080.27 1282.6 Q1075.78 1282.6 1073.14 1285.66 Q1070.5 1288.68 1070.5 1293.87 L1070.5 1314.01 L1064.61 1314.01 L1064.61 1278.37 L1070.5 1278.37 L1070.5 1283.9 Q1072.51 1280.63 1075.31 1279.07 Q1078.11 1277.51 1081.96 1277.51 Q1085.84 1277.51 1088.55 1279.48 Q1091.28 1281.45 1092.59 1285.21 Z" fill="#000000" fill-rule="nonzero" fill-opacity="1" /><path clip-path="url(#clip770)" d="M1158.82 1294.73 L1158.82 1297.59 L1131.9 1297.59 Q1132.28 1303.64 1135.53 1306.82 Q1138.8 1309.97 1144.63 1309.97 Q1148 1309.97 1151.15 1309.14 Q1154.34 1308.32 1157.46 1306.66 L1157.46 1312.2 Q1154.3 1313.54 1150.99 1314.24 Q1147.68 1314.94 1144.28 1314.94 Q1135.75 1314.94 1130.75 1309.97 Q1125.79 1305.01 1125.79 1296.54 Q1125.79 1287.79 1130.5 1282.66 Q1135.24 1277.51 1143.26 1277.51 Q1150.45 1277.51 1154.62 1282.15 Q1158.82 1286.77 1158.82 1294.73 M1152.97 1293.01 Q1152.9 1288.2 1150.26 1285.34 Q1147.65 1282.47 1143.32 1282.47 Q1138.42 1282.47 1135.46 1285.24 Q1132.53 1288.01 1132.09 1293.04 L1152.97 1293.01 Z" fill="#000000" fill-rule="nonzero" fill-opacity="1" /><path clip-path="url(#clip770)" d="M1198.07 1292.5 L1198.07 1314.01 L1192.21 1314.01 L1192.21 1292.69 Q1192.21 1287.63 1190.24 1285.11 Q1188.27 1282.6 1184.32 1282.6 Q1179.58 1282.6 1176.84 1285.62 Q1174.1 1288.65 1174.1 1293.87 L1174.1 1314.01 L1168.21 1314.01 L1168.21 1278.37 L1174.1 1278.37 L1174.1 1283.9 Q1176.2 1280.69 1179.04 1279.1 Q1181.9 1277.51 1185.62 1277.51 Q1191.77 1277.51 1194.92 1281.33 Q1198.07 1285.11 1198.07 1292.5 Z" fill="#000000" fill-rule="nonzero" fill-opacity="1" /><path clip-path="url(#clip770)" d="M1244.54 1264.55 Q1240.27 1271.87 1238.2 1279.04 Q1236.14 1286.2 1236.14 1293.55 Q1236.14 1300.9 1238.2 1308.13 Q1240.31 1315.32 1244.54 1322.61 L1239.45 1322.61 Q1234.67 1315.13 1232.28 1307.9 Q1229.93 1300.68 1229.93 1293.55 Q1229.93 1286.45 1232.28 1279.26 Q1234.64 1272.06 1239.45 1264.55 L1244.54 1264.55 Z" fill="#000000" fill-rule="nonzero" fill-opacity="1" /><path clip-path="url(#clip770)" d="M1283.66 1285.21 Q1285.85 1281.26 1288.91 1279.39 Q1291.96 1277.51 1296.1 1277.51 Q1301.67 1277.51 1304.69 1281.42 Q1307.72 1285.31 1307.72 1292.5 L1307.72 1314.01 L1301.83 1314.01 L1301.83 1292.69 Q1301.83 1287.57 1300.02 1285.08 Q1298.2 1282.6 1294.48 1282.6 Q1289.93 1282.6 1287.28 1285.62 Q1284.64 1288.65 1284.64 1293.87 L1284.64 1314.01 L1278.75 1314.01 L1278.75 1292.69 Q1278.75 1287.53 1276.94 1285.08 Q1275.13 1282.6 1271.34 1282.6 Q1266.85 1282.6 1264.21 1285.66 Q1261.57 1288.68 1261.57 1293.87 L1261.57 1314.01 L1255.68 1314.01 L1255.68 1278.37 L1261.57 1278.37 L1261.57 1283.9 Q1263.57 1280.63 1266.37 1279.07 Q1269.17 1277.51 1273.03 1277.51 Q1276.91 1277.51 1279.61 1279.48 Q1282.35 1281.45 1283.66 1285.21 Z" fill="#000000" fill-rule="nonzero" fill-opacity="1" /><path clip-path="url(#clip770)" d="M1329.93 1278.37 Q1332.86 1278.94 1334.45 1280.69 Q1336.08 1282.41 1336.08 1285.02 Q1336.08 1288.97 1333.05 1291.1 Q1330.03 1293.23 1324.4 1293.23 Q1322.58 1293.23 1320.58 1292.91 Q1318.6 1292.56 1316.38 1291.93 L1316.38 1288.07 Q1318.03 1288.93 1319.91 1289.35 Q1321.82 1289.76 1323.95 1289.76 Q1327.42 1289.76 1329.33 1288.52 Q1331.24 1287.25 1331.24 1285.02 Q1331.24 1282.66 1329.46 1281.45 Q1327.71 1280.24 1324.27 1280.24 L1321.53 1280.24 L1321.53 1276.81 L1324.52 1276.81 Q1327.52 1276.81 1329.04 1275.82 Q1330.6 1274.8 1330.6 1272.89 Q1330.6 1271.05 1329.01 1270.09 Q1327.42 1269.1 1324.4 1269.1 Q1323.12 1269.1 1321.5 1269.39 Q1319.88 1269.68 1317.3 1270.41 L1317.3 1266.75 Q1319.62 1266.21 1321.66 1265.92 Q1323.7 1265.64 1325.45 1265.64 Q1330.03 1265.64 1332.7 1267.51 Q1335.41 1269.39 1335.41 1272.54 Q1335.41 1274.74 1333.98 1276.27 Q1332.54 1277.79 1329.93 1278.37 Z" fill="#000000" fill-rule="nonzero" fill-opacity="1" /><path clip-path="url(#clip770)" d="M1344.61 1264.55 L1349.7 1264.55 Q1354.47 1272.06 1356.83 1279.26 Q1359.22 1286.45 1359.22 1293.55 Q1359.22 1300.68 1356.83 1307.9 Q1354.47 1315.13 1349.7 1322.61 L1344.61 1322.61 Q1348.84 1315.32 1350.91 1308.13 Q1353.01 1300.9 1353.01 1293.55 Q1353.01 1286.2 1350.91 1279.04 Q1348.84 1271.87 1344.61 1264.55 Z" fill="#000000" fill-rule="nonzero" fill-opacity="1" /><polyline clip-path="url(#clip770)" style="stroke:#000000; stroke-linecap:round; stroke-linejoin:round; stroke-width:4; stroke-opacity:1; fill:none" points="214.826,1173.47 214.826,47.2441 "/>
<polyline clip-path="url(#clip770)" style="stroke:#000000; stroke-linecap:round; stroke-linejoin:round; stroke-width:4; stroke-opacity:1; fill:none" points="214.826,1141.6 233.724,1141.6 "/>
<polyline clip-path="url(#clip770)" style="stroke:#000000; stroke-linecap:round; stroke-linejoin:round; stroke-width:4; stroke-opacity:1; fill:none" points="214.826,982.603 233.724,982.603 "/>
<polyline clip-path="url(#clip770)" style="stroke:#000000; stroke-linecap:round; stroke-linejoin:round; stroke-width:4; stroke-opacity:1; fill:none" points="214.826,823.609 233.724,823.609 "/>
<polyline clip-path="url(#clip770)" style="stroke:#000000; stroke-linecap:round; stroke-linejoin:round; stroke-width:4; stroke-opacity:1; fill:none" points="214.826,664.616 233.724,664.616 "/>
<polyline clip-path="url(#clip770)" style="stroke:#000000; stroke-linecap:round; stroke-linejoin:round; stroke-width:4; stroke-opacity:1; fill:none" points="214.826,505.622 233.724,505.622 "/>
<polyline clip-path="url(#clip770)" style="stroke:#000000; stroke-linecap:round; stroke-linejoin:round; stroke-width:4; stroke-opacity:1; fill:none" points="214.826,346.629 233.724,346.629 "/>
<polyline clip-path="url(#clip770)" style="stroke:#000000; stroke-linecap:round; stroke-linejoin:round; stroke-width:4; stroke-opacity:1; fill:none" points="214.826,187.635 233.724,187.635 "/>
<path clip-path="url(#clip770)" d="M125.971 1127.4 Q122.36 1127.4 120.531 1130.96 Q118.725 1134.5 118.725 1141.63 Q118.725 1148.74 120.531 1152.3 Q122.36 1155.84 125.971 1155.84 Q129.605 1155.84 131.41 1152.3 Q133.239 1148.74 133.239 1141.63 Q133.239 1134.5 131.41 1130.96 Q129.605 1127.4 125.971 1127.4 M125.971 1123.69 Q131.781 1123.69 134.836 1128.3 Q137.915 1132.88 137.915 1141.63 Q137.915 1150.36 134.836 1154.96 Q131.781 1159.55 125.971 1159.55 Q120.16 1159.55 117.082 1154.96 Q114.026 1150.36 114.026 1141.63 Q114.026 1132.88 117.082 1128.3 Q120.16 1123.69 125.971 1123.69 Z" fill="#000000" fill-rule="nonzero" fill-opacity="1" /><path clip-path="url(#clip770)" d="M146.133 1153 L151.017 1153 L151.017 1158.88 L146.133 1158.88 L146.133 1153 Z" fill="#000000" fill-rule="nonzero" fill-opacity="1" /><path clip-path="url(#clip770)" d="M171.202 1127.4 Q167.591 1127.4 165.762 1130.96 Q163.957 1134.5 163.957 1141.63 Q163.957 1148.74 165.762 1152.3 Q167.591 1155.84 171.202 1155.84 Q174.836 1155.84 176.642 1152.3 Q178.47 1148.74 178.47 1141.63 Q178.47 1134.5 176.642 1130.96 Q174.836 1127.4 171.202 1127.4 M171.202 1123.69 Q177.012 1123.69 180.068 1128.3 Q183.146 1132.88 183.146 1141.63 Q183.146 1150.36 180.068 1154.96 Q177.012 1159.55 171.202 1159.55 Q165.392 1159.55 162.313 1154.96 Q159.258 1150.36 159.258 1141.63 Q159.258 1132.88 162.313 1128.3 Q165.392 1123.69 171.202 1123.69 Z" fill="#000000" fill-rule="nonzero" fill-opacity="1" /><path clip-path="url(#clip770)" d="M127.568 968.402 Q123.957 968.402 122.128 971.966 Q120.323 975.508 120.323 982.638 Q120.323 989.744 122.128 993.309 Q123.957 996.85 127.568 996.85 Q131.202 996.85 133.008 993.309 Q134.836 989.744 134.836 982.638 Q134.836 975.508 133.008 971.966 Q131.202 968.402 127.568 968.402 M127.568 964.698 Q133.378 964.698 136.434 969.304 Q139.512 973.888 139.512 982.638 Q139.512 991.364 136.434 995.971 Q133.378 1000.55 127.568 1000.55 Q121.758 1000.55 118.679 995.971 Q115.623 991.364 115.623 982.638 Q115.623 973.888 118.679 969.304 Q121.758 964.698 127.568 964.698 Z" fill="#000000" fill-rule="nonzero" fill-opacity="1" /><path clip-path="url(#clip770)" d="M147.73 994.003 L152.614 994.003 L152.614 999.883 L147.73 999.883 L147.73 994.003 Z" fill="#000000" fill-rule="nonzero" fill-opacity="1" /><path clip-path="url(#clip770)" d="M166.827 995.948 L183.146 995.948 L183.146 999.883 L161.202 999.883 L161.202 995.948 Q163.864 993.193 168.447 988.563 Q173.054 983.911 174.234 982.568 Q176.48 980.045 177.359 978.309 Q178.262 976.55 178.262 974.86 Q178.262 972.105 176.318 970.369 Q174.396 968.633 171.294 968.633 Q169.095 968.633 166.642 969.397 Q164.211 970.161 161.433 971.712 L161.433 966.99 Q164.257 965.855 166.711 965.277 Q169.165 964.698 171.202 964.698 Q176.572 964.698 179.767 967.383 Q182.961 970.068 182.961 974.559 Q182.961 976.689 182.151 978.61 Q181.364 980.508 179.257 983.101 Q178.679 983.772 175.577 986.989 Q172.475 990.184 166.827 995.948 Z" fill="#000000" fill-rule="nonzero" fill-opacity="1" /><path clip-path="url(#clip770)" d="M125.485 809.408 Q121.873 809.408 120.045 812.973 Q118.239 816.514 118.239 823.644 Q118.239 830.751 120.045 834.315 Q121.873 837.857 125.485 837.857 Q129.119 837.857 130.924 834.315 Q132.753 830.751 132.753 823.644 Q132.753 816.514 130.924 812.973 Q129.119 809.408 125.485 809.408 M125.485 805.704 Q131.295 805.704 134.35 810.311 Q137.429 814.894 137.429 823.644 Q137.429 832.371 134.35 836.977 Q131.295 841.561 125.485 841.561 Q119.674 841.561 116.596 836.977 Q113.54 832.371 113.54 823.644 Q113.54 814.894 116.596 810.311 Q119.674 805.704 125.485 805.704 Z" fill="#000000" fill-rule="nonzero" fill-opacity="1" /><path clip-path="url(#clip770)" d="M145.646 835.01 L150.531 835.01 L150.531 840.889 L145.646 840.889 L145.646 835.01 Z" fill="#000000" fill-rule="nonzero" fill-opacity="1" /><path clip-path="url(#clip770)" d="M173.563 810.403 L161.757 828.852 L173.563 828.852 L173.563 810.403 M172.336 806.329 L178.216 806.329 L178.216 828.852 L183.146 828.852 L183.146 832.741 L178.216 832.741 L178.216 840.889 L173.563 840.889 L173.563 832.741 L157.961 832.741 L157.961 828.227 L172.336 806.329 Z" fill="#000000" fill-rule="nonzero" fill-opacity="1" /><path clip-path="url(#clip770)" d="M125.809 650.414 Q122.198 650.414 120.369 653.979 Q118.563 657.521 118.563 664.651 Q118.563 671.757 120.369 675.322 Q122.198 678.863 125.809 678.863 Q129.443 678.863 131.248 675.322 Q133.077 671.757 133.077 664.651 Q133.077 657.521 131.248 653.979 Q129.443 650.414 125.809 650.414 M125.809 646.711 Q131.619 646.711 134.674 651.317 Q137.753 655.901 137.753 664.651 Q137.753 673.377 134.674 677.984 Q131.619 682.567 125.809 682.567 Q119.998 682.567 116.92 677.984 Q113.864 673.377 113.864 664.651 Q113.864 655.901 116.92 651.317 Q119.998 646.711 125.809 646.711 Z" fill="#000000" fill-rule="nonzero" fill-opacity="1" /><path clip-path="url(#clip770)" d="M145.971 676.016 L150.855 676.016 L150.855 681.896 L145.971 681.896 L145.971 676.016 Z" fill="#000000" fill-rule="nonzero" fill-opacity="1" /><path clip-path="url(#clip770)" d="M171.619 662.752 Q168.47 662.752 166.619 664.905 Q164.79 667.058 164.79 670.808 Q164.79 674.535 166.619 676.711 Q168.47 678.863 171.619 678.863 Q174.767 678.863 176.595 676.711 Q178.447 674.535 178.447 670.808 Q178.447 667.058 176.595 664.905 Q174.767 662.752 171.619 662.752 M180.901 648.1 L180.901 652.359 Q179.142 651.526 177.336 651.086 Q175.554 650.646 173.794 650.646 Q169.165 650.646 166.711 653.771 Q164.281 656.896 163.933 663.215 Q165.299 661.201 167.359 660.137 Q169.419 659.049 171.896 659.049 Q177.105 659.049 180.114 662.22 Q183.146 665.368 183.146 670.808 Q183.146 676.132 179.998 679.35 Q176.85 682.567 171.619 682.567 Q165.623 682.567 162.452 677.984 Q159.281 673.377 159.281 664.651 Q159.281 656.456 163.17 651.595 Q167.058 646.711 173.609 646.711 Q175.369 646.711 177.151 647.058 Q178.956 647.405 180.901 648.1 Z" fill="#000000" fill-rule="nonzero" fill-opacity="1" /><path clip-path="url(#clip770)" d="M126.063 491.421 Q122.452 491.421 120.623 494.986 Q118.818 498.527 118.818 505.657 Q118.818 512.763 120.623 516.328 Q122.452 519.87 126.063 519.87 Q129.697 519.87 131.503 516.328 Q133.332 512.763 133.332 505.657 Q133.332 498.527 131.503 494.986 Q129.697 491.421 126.063 491.421 M126.063 487.717 Q131.873 487.717 134.929 492.324 Q138.008 496.907 138.008 505.657 Q138.008 514.384 134.929 518.99 Q131.873 523.574 126.063 523.574 Q120.253 523.574 117.174 518.99 Q114.119 514.384 114.119 505.657 Q114.119 496.907 117.174 492.324 Q120.253 487.717 126.063 487.717 Z" fill="#000000" fill-rule="nonzero" fill-opacity="1" /><path clip-path="url(#clip770)" d="M146.225 517.023 L151.109 517.023 L151.109 522.902 L146.225 522.902 L146.225 517.023 Z" fill="#000000" fill-rule="nonzero" fill-opacity="1" /><path clip-path="url(#clip770)" d="M171.294 506.49 Q167.961 506.49 166.04 508.273 Q164.142 510.055 164.142 513.18 Q164.142 516.305 166.04 518.087 Q167.961 519.87 171.294 519.87 Q174.628 519.87 176.549 518.087 Q178.47 516.282 178.47 513.18 Q178.47 510.055 176.549 508.273 Q174.651 506.49 171.294 506.49 M166.619 504.5 Q163.609 503.759 161.92 501.699 Q160.253 499.639 160.253 496.676 Q160.253 492.532 163.193 490.125 Q166.156 487.717 171.294 487.717 Q176.456 487.717 179.396 490.125 Q182.336 492.532 182.336 496.676 Q182.336 499.639 180.646 501.699 Q178.98 503.759 175.994 504.5 Q179.373 505.287 181.248 507.578 Q183.146 509.87 183.146 513.18 Q183.146 518.203 180.068 520.888 Q177.012 523.574 171.294 523.574 Q165.577 523.574 162.498 520.888 Q159.443 518.203 159.443 513.18 Q159.443 509.87 161.341 507.578 Q163.239 505.287 166.619 504.5 M164.906 497.115 Q164.906 499.801 166.572 501.305 Q168.262 502.81 171.294 502.81 Q174.304 502.81 175.994 501.305 Q177.706 499.801 177.706 497.115 Q177.706 494.43 175.994 492.926 Q174.304 491.421 171.294 491.421 Q168.262 491.421 166.572 492.926 Q164.906 494.43 164.906 497.115 Z" fill="#000000" fill-rule="nonzero" fill-opacity="1" /><path clip-path="url(#clip770)" d="M116.781 359.974 L124.42 359.974 L124.42 333.608 L116.11 335.275 L116.11 331.015 L124.373 329.349 L129.049 329.349 L129.049 359.974 L136.688 359.974 L136.688 363.909 L116.781 363.909 L116.781 359.974 Z" fill="#000000" fill-rule="nonzero" fill-opacity="1" /><path clip-path="url(#clip770)" d="M146.133 358.029 L151.017 358.029 L151.017 363.909 L146.133 363.909 L146.133 358.029 Z" fill="#000000" fill-rule="nonzero" fill-opacity="1" /><path clip-path="url(#clip770)" d="M171.202 332.427 Q167.591 332.427 165.762 335.992 Q163.957 339.534 163.957 346.663 Q163.957 353.77 165.762 357.335 Q167.591 360.876 171.202 360.876 Q174.836 360.876 176.642 357.335 Q178.47 353.77 178.47 346.663 Q178.47 339.534 176.642 335.992 Q174.836 332.427 171.202 332.427 M171.202 328.724 Q177.012 328.724 180.068 333.33 Q183.146 337.913 183.146 346.663 Q183.146 355.39 180.068 359.997 Q177.012 364.58 171.202 364.58 Q165.392 364.58 162.313 359.997 Q159.258 355.39 159.258 346.663 Q159.258 337.913 162.313 333.33 Q165.392 328.724 171.202 328.724 Z" fill="#000000" fill-rule="nonzero" fill-opacity="1" /><path clip-path="url(#clip770)" d="M118.378 200.98 L126.017 200.98 L126.017 174.614 L117.707 176.281 L117.707 172.022 L125.971 170.355 L130.647 170.355 L130.647 200.98 L138.285 200.98 L138.285 204.915 L118.378 204.915 L118.378 200.98 Z" fill="#000000" fill-rule="nonzero" fill-opacity="1" /><path clip-path="url(#clip770)" d="M147.73 199.036 L152.614 199.036 L152.614 204.915 L147.73 204.915 L147.73 199.036 Z" fill="#000000" fill-rule="nonzero" fill-opacity="1" /><path clip-path="url(#clip770)" d="M166.827 200.98 L183.146 200.98 L183.146 204.915 L161.202 204.915 L161.202 200.98 Q163.864 198.225 168.447 193.596 Q173.054 188.943 174.234 187.6 Q176.48 185.077 177.359 183.341 Q178.262 181.582 178.262 179.892 Q178.262 177.138 176.318 175.401 Q174.396 173.665 171.294 173.665 Q169.095 173.665 166.642 174.429 Q164.211 175.193 161.433 176.744 L161.433 172.022 Q164.257 170.888 166.711 170.309 Q169.165 169.73 171.202 169.73 Q176.572 169.73 179.767 172.415 Q182.961 175.101 182.961 179.591 Q182.961 181.721 182.151 183.642 Q181.364 185.54 179.257 188.133 Q178.679 188.804 175.577 192.022 Q172.475 195.216 166.827 200.98 Z" fill="#000000" fill-rule="nonzero" fill-opacity="1" /><path clip-path="url(#clip770)" d="M45.3242 740.95 Q46.0244 738.881 48.3161 736.939 Q50.6077 734.966 54.6181 732.993 L67.6042 726.468 L67.6042 733.375 L55.4138 739.454 Q50.6395 741.809 49.08 744.037 Q47.5204 746.233 47.5204 750.053 L47.5204 757.055 L67.6042 757.055 L67.6042 763.484 L20.0842 763.484 L20.0842 748.971 Q20.0842 740.823 23.4898 736.812 Q26.8955 732.802 33.7704 732.802 Q38.2582 732.802 41.2183 734.902 Q44.1784 736.971 45.3242 740.95 M25.3677 757.055 L42.2368 757.055 L42.2368 748.971 Q42.2368 744.324 40.1043 741.968 Q37.94 739.581 33.7704 739.581 Q29.6009 739.581 27.5002 741.968 Q25.3677 744.324 25.3677 748.971 L25.3677 757.055 Z" fill="#000000" fill-rule="nonzero" fill-opacity="1" /><path clip-path="url(#clip770)" d="M49.6847 703.679 Q49.6847 710.776 51.3079 713.514 Q52.9312 716.251 56.8461 716.251 Q59.9653 716.251 61.8114 714.214 Q63.6256 712.145 63.6256 708.612 Q63.6256 703.742 60.1881 700.814 Q56.7188 697.854 50.9897 697.854 L49.6847 697.854 L49.6847 703.679 M47.2657 691.998 L67.6042 691.998 L67.6042 697.854 L62.1933 697.854 Q65.4398 699.859 66.9994 702.851 Q68.5272 705.843 68.5272 710.172 Q68.5272 715.646 65.4716 718.893 Q62.3843 722.107 57.2281 722.107 Q51.2125 722.107 48.1569 718.097 Q45.1014 714.055 45.1014 706.066 L45.1014 697.854 L44.5285 697.854 Q40.4862 697.854 38.2901 700.528 Q36.0621 703.169 36.0621 707.976 Q36.0621 711.031 36.7941 713.927 Q37.5262 716.824 38.9903 719.497 L33.5795 719.497 Q32.3381 716.283 31.7334 713.259 Q31.0968 710.235 31.0968 707.371 Q31.0968 699.636 35.1072 695.817 Q39.1176 691.998 47.2657 691.998 Z" fill="#000000" fill-rule="nonzero" fill-opacity="1" /><path clip-path="url(#clip770)" d="M37.3671 656.477 L18.079 656.477 L18.079 650.621 L67.6042 650.621 L67.6042 656.477 L62.257 656.477 Q65.4398 658.323 66.9994 661.156 Q68.5272 663.957 68.5272 667.903 Q68.5272 674.365 63.371 678.439 Q58.2147 682.481 49.812 682.481 Q41.4093 682.481 36.2531 678.439 Q31.0968 674.365 31.0968 667.903 Q31.0968 663.957 32.6564 661.156 Q34.1842 658.323 37.3671 656.477 M49.812 676.433 Q56.2732 676.433 59.9653 673.792 Q63.6256 671.118 63.6256 666.471 Q63.6256 661.824 59.9653 659.151 Q56.2732 656.477 49.812 656.477 Q43.3508 656.477 39.6905 659.151 Q35.9984 661.824 35.9984 666.471 Q35.9984 671.118 39.6905 673.792 Q43.3508 676.433 49.812 676.433 Z" fill="#000000" fill-rule="nonzero" fill-opacity="1" /><path clip-path="url(#clip770)" d="M31.9562 638.558 L31.9562 632.701 L67.6042 632.701 L67.6042 638.558 L31.9562 638.558 M18.079 638.558 L18.079 632.701 L25.495 632.701 L25.495 638.558 L18.079 638.558 Z" fill="#000000" fill-rule="nonzero" fill-opacity="1" /><path clip-path="url(#clip770)" d="M36.0621 606.633 Q36.0621 611.344 39.7542 614.081 Q43.4145 616.819 49.812 616.819 Q56.2095 616.819 59.9017 614.113 Q63.5619 611.376 63.5619 606.633 Q63.5619 601.955 59.8698 599.217 Q56.1777 596.48 49.812 596.48 Q43.4781 596.48 39.786 599.217 Q36.0621 601.955 36.0621 606.633 M31.0968 606.633 Q31.0968 598.995 36.0621 594.634 Q41.0273 590.274 49.812 590.274 Q58.5649 590.274 63.5619 594.634 Q68.5272 598.995 68.5272 606.633 Q68.5272 614.304 63.5619 618.665 Q58.5649 622.993 49.812 622.993 Q41.0273 622.993 36.0621 618.665 Q31.0968 614.304 31.0968 606.633 Z" fill="#000000" fill-rule="nonzero" fill-opacity="1" /><path clip-path="url(#clip770)" d="M18.1426 545.777 Q25.4632 550.042 32.6246 552.111 Q39.786 554.18 47.1384 554.18 Q54.4908 554.18 61.7159 552.111 Q68.9091 550.011 76.1979 545.777 L76.1979 550.87 Q68.7182 555.644 61.4931 558.031 Q54.268 560.387 47.1384 560.387 Q40.0406 560.387 32.8474 558.031 Q25.6542 555.676 18.1426 550.87 L18.1426 545.777 Z" fill="#000000" fill-rule="nonzero" fill-opacity="1" /><path clip-path="url(#clip770)" d="M38.7993 506.66 Q34.8526 504.464 32.9747 501.408 Q31.0968 498.353 31.0968 494.215 Q31.0968 488.645 35.0117 485.621 Q38.8948 482.598 46.0881 482.598 L67.6042 482.598 L67.6042 488.486 L46.279 488.486 Q41.1546 488.486 38.672 490.3 Q36.1894 492.114 36.1894 495.838 Q36.1894 500.39 39.2131 503.032 Q42.2368 505.673 47.4567 505.673 L67.6042 505.673 L67.6042 511.562 L46.279 511.562 Q41.1228 511.562 38.672 513.376 Q36.1894 515.19 36.1894 518.978 Q36.1894 523.466 39.2449 526.107 Q42.2686 528.749 47.4567 528.749 L67.6042 528.749 L67.6042 534.637 L31.9562 534.637 L31.9562 528.749 L37.4944 528.749 Q34.216 526.744 32.6564 523.943 Q31.0968 521.142 31.0968 517.291 Q31.0968 513.408 33.0702 510.702 Q35.0436 507.965 38.7993 506.66 Z" fill="#000000" fill-rule="nonzero" fill-opacity="1" /><path clip-path="url(#clip770)" d="M18.1426 471.84 L18.1426 466.747 Q25.6542 461.973 32.8474 459.617 Q40.0406 457.23 47.1384 457.23 Q54.268 457.23 61.4931 459.617 Q68.7182 461.973 76.1979 466.747 L76.1979 471.84 Q68.9091 467.606 61.7159 465.538 Q54.4908 463.437 47.1384 463.437 Q39.786 463.437 32.6246 465.538 Q25.4632 467.606 18.1426 471.84 Z" fill="#000000" fill-rule="nonzero" fill-opacity="1" /><polyline clip-path="url(#clip772)" style="stroke:#009af9; stroke-linecap:round; stroke-linejoin:round; stroke-width:4; stroke-opacity:1; fill:none" points="214.826,1141.6 215.141,1082.72 215.456,1067.42 215.771,1056.68 216.085,1048.14 216.4,1040.92 216.715,1034.61 217.03,1028.97 217.344,1023.85 217.974,1014.75 218.604,1006.8 219.233,999.698 219.863,993.239 221.122,981.783 222.381,971.77 223.64,962.815 224.899,954.678 227.417,940.245 229.936,927.628 232.454,916.346 234.972,906.094 238.396,893.444 241.82,881.967 245.244,871.424 248.667,861.645 255.515,843.909 262.363,828.067 269.211,813.683 276.058,800.46 282.906,788.19 289.754,776.717 303.449,755.718 317.145,736.785 330.84,719.474 344.536,703.477 359.574,687.161 374.612,671.939 389.65,657.645 404.688,644.149 434.793,619.136 464.897,596.313 495.125,575.172 525.353,555.501 553.405,538.359 581.456,522.14 611.827,505.487 642.197,489.663 677.347,472.259 712.496,455.716 765.681,432.105 829.958,405.518 896.955,379.71 950.504,360.273 1016.1,337.709 1082.67,316.036 1141.9,297.668 1196.15,281.515 1269.38,260.634 1324.78,245.468 1382.59,230.174 1450.47,212.845 1506,199.136 1569.41,183.953 1627.69,170.411 1698.35,154.484 1756.51,141.749 1822.99,127.579 1874.79,116.808 1940.93,103.374 2053.09,81.3558 2064.76,79.1184 "/>
</svg>
