<?xml version="1.0" encoding="utf-8"?>
<svg xmlns="http://www.w3.org/2000/svg" xmlns:xlink="http://www.w3.org/1999/xlink" width="528" height="336" viewBox="0 0 2112 1344">
<defs>
  <clipPath id="clip220">
    <rect x="0" y="0" width="2112" height="1344"/>
  </clipPath>
</defs>
<path clip-path="url(#clip220)" d="M0 1344 L2112 1344 L2112 0 L0 0  Z" fill="#ffffff" fill-rule="evenodd" fill-opacity="1"/>
<defs>
  <clipPath id="clip221">
    <rect x="422" y="0" width="1479" height="1344"/>
  </clipPath>
</defs>
<path clip-path="url(#clip220)" d="M191.218 1234.58 L2064.76 1234.58 L2064.76 47.2441 L191.218 47.2441  Z" fill="#ffffff" fill-rule="evenodd" fill-opacity="1"/>
<defs>
  <clipPath id="clip222">
    <rect x="191" y="47" width="1875" height="1188"/>
  </clipPath>
</defs>
<polyline clip-path="url(#clip222)" style="stroke:#000000; stroke-linecap:round; stroke-linejoin:round; stroke-width:2; stroke-opacity:0.1; fill:none" points="420.992,1234.58 420.992,47.2441 "/>
<polyline clip-path="url(#clip222)" style="stroke:#000000; stroke-linecap:round; stroke-linejoin:round; stroke-width:2; stroke-opacity:0.1; fill:none" points="774.489,1234.58 774.489,47.2441 "/>
<polyline clip-path="url(#clip222)" style="stroke:#000000; stroke-linecap:round; stroke-linejoin:round; stroke-width:2; stroke-opacity:0.1; fill:none" points="1127.99,1234.58 1127.99,47.2441 "/>
<polyline clip-path="url(#clip222)" style="stroke:#000000; stroke-linecap:round; stroke-linejoin:round; stroke-width:2; stroke-opacity:0.1; fill:none" points="1481.48,1234.58 1481.48,47.2441 "/>
<polyline clip-path="url(#clip222)" style="stroke:#000000; stroke-linecap:round; stroke-linejoin:round; stroke-width:2; stroke-opacity:0.1; fill:none" points="1834.98,1234.58 1834.98,47.2441 "/>
<polyline clip-path="url(#clip222)" style="stroke:#000000; stroke-linecap:round; stroke-linejoin:round; stroke-width:2; stroke-opacity:0.1; fill:none" points="191.218,1108.99 2064.76,1108.99 "/>
<polyline clip-path="url(#clip222)" style="stroke:#000000; stroke-linecap:round; stroke-linejoin:round; stroke-width:2; stroke-opacity:0.1; fill:none" points="191.218,832.909 2064.76,832.909 "/>
<polyline clip-path="url(#clip222)" style="stroke:#000000; stroke-linecap:round; stroke-linejoin:round; stroke-width:2; stroke-opacity:0.1; fill:none" points="191.218,556.827 2064.76,556.827 "/>
<polyline clip-path="url(#clip222)" style="stroke:#000000; stroke-linecap:round; stroke-linejoin:round; stroke-width:2; stroke-opacity:0.1; fill:none" points="191.218,280.744 2064.76,280.744 "/>
<polyline clip-path="url(#clip220)" style="stroke:#000000; stroke-linecap:round; stroke-linejoin:round; stroke-width:4; stroke-opacity:1; fill:none" points="191.218,1234.58 2064.76,1234.58 "/>
<polyline clip-path="url(#clip220)" style="stroke:#000000; stroke-linecap:round; stroke-linejoin:round; stroke-width:4; stroke-opacity:1; fill:none" points="420.992,1234.58 420.992,1215.68 "/>
<polyline clip-path="url(#clip220)" style="stroke:#000000; stroke-linecap:round; stroke-linejoin:round; stroke-width:4; stroke-opacity:1; fill:none" points="774.489,1234.58 774.489,1215.68 "/>
<polyline clip-path="url(#clip220)" style="stroke:#000000; stroke-linecap:round; stroke-linejoin:round; stroke-width:4; stroke-opacity:1; fill:none" points="1127.99,1234.58 1127.99,1215.68 "/>
<polyline clip-path="url(#clip220)" style="stroke:#000000; stroke-linecap:round; stroke-linejoin:round; stroke-width:4; stroke-opacity:1; fill:none" points="1481.48,1234.58 1481.48,1215.68 "/>
<polyline clip-path="url(#clip220)" style="stroke:#000000; stroke-linecap:round; stroke-linejoin:round; stroke-width:4; stroke-opacity:1; fill:none" points="1834.98,1234.58 1834.98,1215.68 "/>
<path clip-path="url(#clip220)" d="M389.892 1277.85 L419.568 1277.85 L419.568 1281.78 L389.892 1281.78 L389.892 1277.85 Z" fill="#000000" fill-rule="nonzero" fill-opacity="1" /><path clip-path="url(#clip220)" d="M442.508 1264.19 L430.702 1282.64 L442.508 1282.64 L442.508 1264.19 M441.281 1260.11 L447.16 1260.11 L447.16 1282.64 L452.091 1282.64 L452.091 1286.53 L447.16 1286.53 L447.16 1294.67 L442.508 1294.67 L442.508 1286.53 L426.906 1286.53 L426.906 1282.01 L441.281 1260.11 Z" fill="#000000" fill-rule="nonzero" fill-opacity="1" /><path clip-path="url(#clip220)" d="M744.432 1277.85 L774.107 1277.85 L774.107 1281.78 L744.432 1281.78 L744.432 1277.85 Z" fill="#000000" fill-rule="nonzero" fill-opacity="1" /><path clip-path="url(#clip220)" d="M788.228 1290.74 L804.547 1290.74 L804.547 1294.67 L782.603 1294.67 L782.603 1290.74 Q785.265 1287.99 789.848 1283.36 Q794.454 1278.7 795.635 1277.36 Q797.88 1274.84 798.76 1273.1 Q799.663 1271.34 799.663 1269.65 Q799.663 1266.9 797.718 1265.16 Q795.797 1263.42 792.695 1263.42 Q790.496 1263.42 788.042 1264.19 Q785.612 1264.95 782.834 1266.5 L782.834 1261.78 Q785.658 1260.65 788.112 1260.07 Q790.566 1259.49 792.603 1259.49 Q797.973 1259.49 801.167 1262.17 Q804.362 1264.86 804.362 1269.35 Q804.362 1271.48 803.552 1273.4 Q802.765 1275.3 800.658 1277.89 Q800.079 1278.56 796.978 1281.78 Q793.876 1284.98 788.228 1290.74 Z" fill="#000000" fill-rule="nonzero" fill-opacity="1" /><path clip-path="url(#clip220)" d="M1127.99 1263.19 Q1124.38 1263.19 1122.55 1266.76 Q1120.74 1270.3 1120.74 1277.43 Q1120.74 1284.54 1122.55 1288.1 Q1124.38 1291.64 1127.99 1291.64 Q1131.62 1291.64 1133.43 1288.1 Q1135.26 1284.54 1135.26 1277.43 Q1135.26 1270.3 1133.43 1266.76 Q1131.62 1263.19 1127.99 1263.19 M1127.99 1259.49 Q1133.8 1259.49 1136.85 1264.1 Q1139.93 1268.68 1139.93 1277.43 Q1139.93 1286.16 1136.85 1290.76 Q1133.8 1295.35 1127.99 1295.35 Q1122.18 1295.35 1119.1 1290.76 Q1116.04 1286.16 1116.04 1277.43 Q1116.04 1268.68 1119.1 1264.1 Q1122.18 1259.49 1127.99 1259.49 Z" fill="#000000" fill-rule="nonzero" fill-opacity="1" /><path clip-path="url(#clip220)" d="M1476.14 1290.74 L1492.46 1290.74 L1492.46 1294.67 L1470.51 1294.67 L1470.51 1290.74 Q1473.17 1287.99 1477.76 1283.36 Q1482.36 1278.7 1483.54 1277.36 Q1485.79 1274.84 1486.67 1273.1 Q1487.57 1271.34 1487.57 1269.65 Q1487.57 1266.9 1485.63 1265.16 Q1483.71 1263.42 1480.61 1263.42 Q1478.41 1263.42 1475.95 1264.19 Q1473.52 1264.95 1470.74 1266.5 L1470.74 1261.78 Q1473.57 1260.65 1476.02 1260.07 Q1478.48 1259.49 1480.51 1259.49 Q1485.88 1259.49 1489.08 1262.17 Q1492.27 1264.86 1492.27 1269.35 Q1492.27 1271.48 1491.46 1273.4 Q1490.67 1275.3 1488.57 1277.89 Q1487.99 1278.56 1484.89 1281.78 Q1481.79 1284.98 1476.14 1290.74 Z" fill="#000000" fill-rule="nonzero" fill-opacity="1" /><path clip-path="url(#clip220)" d="M1837.99 1264.19 L1826.19 1282.64 L1837.99 1282.64 L1837.99 1264.19 M1836.76 1260.11 L1842.64 1260.11 L1842.64 1282.64 L1847.57 1282.64 L1847.57 1286.53 L1842.64 1286.53 L1842.64 1294.67 L1837.99 1294.67 L1837.99 1286.53 L1822.39 1286.53 L1822.39 1282.01 L1836.76 1260.11 Z" fill="#000000" fill-rule="nonzero" fill-opacity="1" /><polyline clip-path="url(#clip220)" style="stroke:#000000; stroke-linecap:round; stroke-linejoin:round; stroke-width:4; stroke-opacity:1; fill:none" points="191.218,1234.58 191.218,47.2441 "/>
<polyline clip-path="url(#clip220)" style="stroke:#000000; stroke-linecap:round; stroke-linejoin:round; stroke-width:4; stroke-opacity:1; fill:none" points="191.218,1108.99 210.116,1108.99 "/>
<polyline clip-path="url(#clip220)" style="stroke:#000000; stroke-linecap:round; stroke-linejoin:round; stroke-width:4; stroke-opacity:1; fill:none" points="191.218,832.909 210.116,832.909 "/>
<polyline clip-path="url(#clip220)" style="stroke:#000000; stroke-linecap:round; stroke-linejoin:round; stroke-width:4; stroke-opacity:1; fill:none" points="191.218,556.827 210.116,556.827 "/>
<polyline clip-path="url(#clip220)" style="stroke:#000000; stroke-linecap:round; stroke-linejoin:round; stroke-width:4; stroke-opacity:1; fill:none" points="191.218,280.744 210.116,280.744 "/>
<path clip-path="url(#clip220)" d="M52.7793 1109.44 L82.4551 1109.44 L82.4551 1113.38 L52.7793 1113.38 L52.7793 1109.44 Z" fill="#000000" fill-rule="nonzero" fill-opacity="1" /><path clip-path="url(#clip220)" d="M102.548 1094.79 Q98.9365 1094.79 97.1078 1098.35 Q95.3023 1101.9 95.3023 1109.03 Q95.3023 1116.13 97.1078 1119.7 Q98.9365 1123.24 102.548 1123.24 Q106.182 1123.24 107.987 1119.7 Q109.816 1116.13 109.816 1109.03 Q109.816 1101.9 107.987 1098.35 Q106.182 1094.79 102.548 1094.79 M102.548 1091.09 Q108.358 1091.09 111.413 1095.69 Q114.492 1100.28 114.492 1109.03 Q114.492 1117.75 111.413 1122.36 Q108.358 1126.94 102.548 1126.94 Q96.7374 1126.94 93.6588 1122.36 Q90.6032 1117.75 90.6032 1109.03 Q90.6032 1100.28 93.6588 1095.69 Q96.7374 1091.09 102.548 1091.09 Z" fill="#000000" fill-rule="nonzero" fill-opacity="1" /><path clip-path="url(#clip220)" d="M122.71 1120.39 L127.594 1120.39 L127.594 1126.27 L122.71 1126.27 L122.71 1120.39 Z" fill="#000000" fill-rule="nonzero" fill-opacity="1" /><path clip-path="url(#clip220)" d="M137.918 1125.55 L137.918 1121.29 Q139.677 1122.13 141.483 1122.57 Q143.288 1123.01 145.024 1123.01 Q149.654 1123.01 152.084 1119.91 Q154.538 1116.78 154.885 1110.44 Q153.543 1112.43 151.483 1113.49 Q149.422 1114.56 146.922 1114.56 Q141.737 1114.56 138.705 1111.43 Q135.696 1108.29 135.696 1102.85 Q135.696 1097.52 138.844 1094.3 Q141.992 1091.09 147.223 1091.09 Q153.219 1091.09 156.367 1095.69 Q159.538 1100.28 159.538 1109.03 Q159.538 1117.2 155.649 1122.08 Q151.783 1126.94 145.233 1126.94 Q143.473 1126.94 141.668 1126.6 Q139.862 1126.25 137.918 1125.55 M147.223 1110.9 Q150.371 1110.9 152.2 1108.75 Q154.052 1106.6 154.052 1102.85 Q154.052 1099.12 152.2 1096.97 Q150.371 1094.79 147.223 1094.79 Q144.075 1094.79 142.223 1096.97 Q140.395 1099.12 140.395 1102.85 Q140.395 1106.6 142.223 1108.75 Q144.075 1110.9 147.223 1110.9 Z" fill="#000000" fill-rule="nonzero" fill-opacity="1" /><path clip-path="url(#clip220)" d="M52.4321 833.36 L82.1079 833.36 L82.1079 837.296 L52.4321 837.296 L52.4321 833.36 Z" fill="#000000" fill-rule="nonzero" fill-opacity="1" /><path clip-path="url(#clip220)" d="M102.2 818.708 Q98.5893 818.708 96.7606 822.272 Q94.955 825.814 94.955 832.944 Q94.955 840.05 96.7606 843.615 Q98.5893 847.157 102.2 847.157 Q105.835 847.157 107.64 843.615 Q109.469 840.05 109.469 832.944 Q109.469 825.814 107.64 822.272 Q105.835 818.708 102.2 818.708 M102.2 815.004 Q108.011 815.004 111.066 819.61 Q114.145 824.194 114.145 832.944 Q114.145 841.671 111.066 846.277 Q108.011 850.86 102.2 850.86 Q96.3902 850.86 93.3115 846.277 Q90.256 841.671 90.256 832.944 Q90.256 824.194 93.3115 819.61 Q96.3902 815.004 102.2 815.004 Z" fill="#000000" fill-rule="nonzero" fill-opacity="1" /><path clip-path="url(#clip220)" d="M122.362 844.309 L127.247 844.309 L127.247 850.189 L122.362 850.189 L122.362 844.309 Z" fill="#000000" fill-rule="nonzero" fill-opacity="1" /><path clip-path="url(#clip220)" d="M148.01 831.046 Q144.862 831.046 143.01 833.198 Q141.182 835.351 141.182 839.101 Q141.182 842.828 143.01 845.004 Q144.862 847.157 148.01 847.157 Q151.158 847.157 152.987 845.004 Q154.839 842.828 154.839 839.101 Q154.839 835.351 152.987 833.198 Q151.158 831.046 148.01 831.046 M157.293 816.393 L157.293 820.652 Q155.533 819.819 153.728 819.379 Q151.945 818.939 150.186 818.939 Q145.557 818.939 143.103 822.064 Q140.672 825.189 140.325 831.509 Q141.691 829.495 143.751 828.43 Q145.811 827.342 148.288 827.342 Q153.496 827.342 156.506 830.513 Q159.538 833.661 159.538 839.101 Q159.538 844.425 156.39 847.643 Q153.242 850.86 148.01 850.86 Q142.015 850.86 138.844 846.277 Q135.672 841.671 135.672 832.944 Q135.672 824.749 139.561 819.888 Q143.45 815.004 150.001 815.004 Q151.76 815.004 153.543 815.351 Q155.348 815.698 157.293 816.393 Z" fill="#000000" fill-rule="nonzero" fill-opacity="1" /><path clip-path="url(#clip220)" d="M53.2423 557.278 L82.9181 557.278 L82.9181 561.213 L53.2423 561.213 L53.2423 557.278 Z" fill="#000000" fill-rule="nonzero" fill-opacity="1" /><path clip-path="url(#clip220)" d="M103.011 542.625 Q99.3995 542.625 97.5708 546.19 Q95.7652 549.732 95.7652 556.861 Q95.7652 563.968 97.5708 567.533 Q99.3995 571.074 103.011 571.074 Q106.645 571.074 108.45 567.533 Q110.279 563.968 110.279 556.861 Q110.279 549.732 108.45 546.19 Q106.645 542.625 103.011 542.625 M103.011 538.922 Q108.821 538.922 111.876 543.528 Q114.955 548.111 114.955 556.861 Q114.955 565.588 111.876 570.195 Q108.821 574.778 103.011 574.778 Q97.2004 574.778 94.1217 570.195 Q91.0662 565.588 91.0662 556.861 Q91.0662 548.111 94.1217 543.528 Q97.2004 538.922 103.011 538.922 Z" fill="#000000" fill-rule="nonzero" fill-opacity="1" /><path clip-path="url(#clip220)" d="M123.172 568.227 L128.057 568.227 L128.057 574.107 L123.172 574.107 L123.172 568.227 Z" fill="#000000" fill-rule="nonzero" fill-opacity="1" /><path clip-path="url(#clip220)" d="M152.408 555.473 Q155.765 556.19 157.64 558.459 Q159.538 560.727 159.538 564.06 Q159.538 569.176 156.02 571.977 Q152.501 574.778 146.02 574.778 Q143.844 574.778 141.529 574.338 Q139.237 573.922 136.784 573.065 L136.784 568.551 Q138.728 569.685 141.043 570.264 Q143.358 570.843 145.881 570.843 Q150.279 570.843 152.57 569.107 Q154.885 567.371 154.885 564.06 Q154.885 561.005 152.733 559.292 Q150.603 557.556 146.783 557.556 L142.756 557.556 L142.756 553.713 L146.969 553.713 Q150.418 553.713 152.246 552.348 Q154.075 550.959 154.075 548.366 Q154.075 545.704 152.177 544.292 Q150.302 542.857 146.783 542.857 Q144.862 542.857 142.663 543.274 Q140.464 543.69 137.825 544.57 L137.825 540.403 Q140.487 539.662 142.802 539.292 Q145.14 538.922 147.2 538.922 Q152.524 538.922 155.626 541.352 Q158.728 543.76 158.728 547.88 Q158.728 550.75 157.084 552.741 Q155.441 554.709 152.408 555.473 Z" fill="#000000" fill-rule="nonzero" fill-opacity="1" /><path clip-path="url(#clip220)" d="M102.362 266.543 Q98.7513 266.543 96.9226 270.108 Q95.1171 273.65 95.1171 280.779 Q95.1171 287.886 96.9226 291.45 Q98.7513 294.992 102.362 294.992 Q105.997 294.992 107.802 291.45 Q109.631 287.886 109.631 280.779 Q109.631 273.65 107.802 270.108 Q105.997 266.543 102.362 266.543 M102.362 262.839 Q108.173 262.839 111.228 267.446 Q114.307 272.029 114.307 280.779 Q114.307 289.506 111.228 294.112 Q108.173 298.696 102.362 298.696 Q96.5523 298.696 93.4736 294.112 Q90.418 289.506 90.418 280.779 Q90.418 272.029 93.4736 267.446 Q96.5523 262.839 102.362 262.839 Z" fill="#000000" fill-rule="nonzero" fill-opacity="1" /><path clip-path="url(#clip220)" d="M122.524 292.145 L127.409 292.145 L127.409 298.024 L122.524 298.024 L122.524 292.145 Z" fill="#000000" fill-rule="nonzero" fill-opacity="1" /><path clip-path="url(#clip220)" d="M147.594 266.543 Q143.983 266.543 142.154 270.108 Q140.348 273.65 140.348 280.779 Q140.348 287.886 142.154 291.45 Q143.983 294.992 147.594 294.992 Q151.228 294.992 153.033 291.45 Q154.862 287.886 154.862 280.779 Q154.862 273.65 153.033 270.108 Q151.228 266.543 147.594 266.543 M147.594 262.839 Q153.404 262.839 156.459 267.446 Q159.538 272.029 159.538 280.779 Q159.538 289.506 156.459 294.112 Q153.404 298.696 147.594 298.696 Q141.783 298.696 138.705 294.112 Q135.649 289.506 135.649 280.779 Q135.649 272.029 138.705 267.446 Q141.783 262.839 147.594 262.839 Z" fill="#000000" fill-rule="nonzero" fill-opacity="1" /><polyline clip-path="url(#clip222)" style="stroke:#009af9; stroke-linecap:round; stroke-linejoin:round; stroke-width:4; stroke-opacity:1; fill:none" points="244.243,320.473 253.867,313.375 263.491,306.06 315.831,263.259 368.172,217.738 396.908,192.897 425.644,168.984 454.406,146.643 483.169,126.563 497.61,117.539 512.05,109.331 526.491,102.015 540.931,95.6672 554.332,90.7055 567.732,86.6943 581.133,83.6858 594.534,81.7287 609.042,80.8479 623.551,81.3055 638.06,83.149 652.568,86.4197 669.36,92.0334 686.151,99.6506 702.943,109.304 719.734,121.014 732.438,131.246 745.141,142.657 757.845,155.243 770.549,168.994 785.902,187.146 801.255,206.944 816.608,228.345 831.961,251.297 847.964,276.806 863.967,303.856 879.97,332.357 895.973,362.212 908.763,386.977 921.554,412.479 934.345,438.657 947.135,465.446 978.472,533.23 1009.81,603.204 1041.61,675.287 1073.41,747.213 1101.71,810.042 1130,870.847 1142.96,897.782 1155.92,924.026 1168.88,949.496 1181.84,974.115 1199.33,1005.85 1216.82,1035.72 1234.31,1063.55 1251.8,1089.17 1265.03,1107 1278.27,1123.43 1291.5,1138.4 1304.74,1151.85 1318.54,1164.24 1332.35,1174.88 1346.16,1183.75 1359.96,1190.82 1376.18,1196.77 1392.39,1200.16 1408.61,1200.97 1424.82,1199.21 1438.09,1195.85 1451.35,1190.79 1464.61,1184.03 1477.88,1175.6 1493.02,1163.97 1508.17,1150.25 1523.32,1134.5 1538.46,1116.8 1552.38,1098.86 1566.3,1079.39 1580.23,1058.48 1594.15,1036.19 1611.02,1007.43 1627.9,976.919 1644.78,944.821 1661.66,911.303 1689.44,853.5 1717.23,793.14 1748.98,722.091 1780.74,650.065 1805.49,594.079 1830.23,538.844 1846.03,504.231 1861.83,470.294 1877.62,437.165 1893.42,404.974 1906.82,378.502 1920.21,352.861 1933.61,328.118 1947,304.334 1960.4,281.567 1973.8,259.868 1987.19,239.286 2000.59,219.864 2003.37,215.975 2006.16,212.137 2008.95,208.352 2011.73,204.62 "/>
<path clip-path="url(#clip220)" d="M253.669 1195 L493.453 1195 L493.453 1091.32 L253.669 1091.32  Z" fill="#ffffff" fill-rule="evenodd" fill-opacity="1"/>
<polyline clip-path="url(#clip220)" style="stroke:#000000; stroke-linecap:round; stroke-linejoin:round; stroke-width:4; stroke-opacity:1; fill:none" points="253.669,1195 493.453,1195 493.453,1091.32 253.669,1091.32 253.669,1195 "/>
<polyline clip-path="url(#clip220)" style="stroke:#009af9; stroke-linecap:round; stroke-linejoin:round; stroke-width:4; stroke-opacity:1; fill:none" points="274.486,1143.16 399.389,1143.16 "/>
<path clip-path="url(#clip220)" d="M434.049 1162.85 Q432.243 1167.48 430.53 1168.89 Q428.817 1170.3 425.947 1170.3 L422.544 1170.3 L422.544 1166.74 L425.044 1166.74 Q426.803 1166.74 427.775 1165.9 Q428.748 1165.07 429.928 1161.97 L430.692 1160.02 L420.206 1134.52 L424.72 1134.52 L432.822 1154.79 L440.923 1134.52 L445.437 1134.52 L434.049 1162.85 Z" fill="#000000" fill-rule="nonzero" fill-opacity="1" /><path clip-path="url(#clip220)" d="M452.729 1156.51 L460.368 1156.51 L460.368 1130.14 L452.058 1131.81 L452.058 1127.55 L460.322 1125.88 L464.997 1125.88 L464.997 1156.51 L472.636 1156.51 L472.636 1160.44 L452.729 1160.44 L452.729 1156.51 Z" fill="#000000" fill-rule="nonzero" fill-opacity="1" /></svg>
