<?xml version="1.0" encoding="utf-8"?>
<svg xmlns="http://www.w3.org/2000/svg" xmlns:xlink="http://www.w3.org/1999/xlink" width="528" height="336" viewBox="0 0 2112 1344">
<defs>
  <clipPath id="clip160">
    <rect x="0" y="0" width="2112" height="1344"/>
  </clipPath>
</defs>
<path clip-path="url(#clip160)" d="M0 1344 L2112 1344 L2112 0 L0 0  Z" fill="#ffffff" fill-rule="evenodd" fill-opacity="1"/>
<defs>
  <clipPath id="clip161">
    <rect x="422" y="0" width="1479" height="1344"/>
  </clipPath>
</defs>
<path clip-path="url(#clip160)" d="M153.394 1234.58 L2064.76 1234.58 L2064.76 47.2441 L153.394 47.2441  Z" fill="#ffffff" fill-rule="evenodd" fill-opacity="1"/>
<defs>
  <clipPath id="clip162">
    <rect x="153" y="47" width="1912" height="1188"/>
  </clipPath>
</defs>
<polyline clip-path="url(#clip162)" style="stroke:#000000; stroke-linecap:round; stroke-linejoin:round; stroke-width:2; stroke-opacity:0.1; fill:none" points="387.806,1234.58 387.806,47.2441 "/>
<polyline clip-path="url(#clip162)" style="stroke:#000000; stroke-linecap:round; stroke-linejoin:round; stroke-width:2; stroke-opacity:0.1; fill:none" points="748.441,1234.58 748.441,47.2441 "/>
<polyline clip-path="url(#clip162)" style="stroke:#000000; stroke-linecap:round; stroke-linejoin:round; stroke-width:2; stroke-opacity:0.1; fill:none" points="1109.08,1234.58 1109.08,47.2441 "/>
<polyline clip-path="url(#clip162)" style="stroke:#000000; stroke-linecap:round; stroke-linejoin:round; stroke-width:2; stroke-opacity:0.1; fill:none" points="1469.71,1234.58 1469.71,47.2441 "/>
<polyline clip-path="url(#clip162)" style="stroke:#000000; stroke-linecap:round; stroke-linejoin:round; stroke-width:2; stroke-opacity:0.1; fill:none" points="1830.34,1234.58 1830.34,47.2441 "/>
<polyline clip-path="url(#clip162)" style="stroke:#000000; stroke-linecap:round; stroke-linejoin:round; stroke-width:2; stroke-opacity:0.1; fill:none" points="153.394,1001.08 2064.76,1001.08 "/>
<polyline clip-path="url(#clip162)" style="stroke:#000000; stroke-linecap:round; stroke-linejoin:round; stroke-width:2; stroke-opacity:0.1; fill:none" points="153.394,725.003 2064.76,725.003 "/>
<polyline clip-path="url(#clip162)" style="stroke:#000000; stroke-linecap:round; stroke-linejoin:round; stroke-width:2; stroke-opacity:0.1; fill:none" points="153.394,448.928 2064.76,448.928 "/>
<polyline clip-path="url(#clip162)" style="stroke:#000000; stroke-linecap:round; stroke-linejoin:round; stroke-width:2; stroke-opacity:0.1; fill:none" points="153.394,172.853 2064.76,172.853 "/>
<polyline clip-path="url(#clip160)" style="stroke:#000000; stroke-linecap:round; stroke-linejoin:round; stroke-width:4; stroke-opacity:1; fill:none" points="153.394,1234.58 2064.76,1234.58 "/>
<polyline clip-path="url(#clip160)" style="stroke:#000000; stroke-linecap:round; stroke-linejoin:round; stroke-width:4; stroke-opacity:1; fill:none" points="387.806,1234.58 387.806,1215.68 "/>
<polyline clip-path="url(#clip160)" style="stroke:#000000; stroke-linecap:round; stroke-linejoin:round; stroke-width:4; stroke-opacity:1; fill:none" points="748.441,1234.58 748.441,1215.68 "/>
<polyline clip-path="url(#clip160)" style="stroke:#000000; stroke-linecap:round; stroke-linejoin:round; stroke-width:4; stroke-opacity:1; fill:none" points="1109.08,1234.58 1109.08,1215.68 "/>
<polyline clip-path="url(#clip160)" style="stroke:#000000; stroke-linecap:round; stroke-linejoin:round; stroke-width:4; stroke-opacity:1; fill:none" points="1469.71,1234.58 1469.71,1215.68 "/>
<polyline clip-path="url(#clip160)" style="stroke:#000000; stroke-linecap:round; stroke-linejoin:round; stroke-width:4; stroke-opacity:1; fill:none" points="1830.34,1234.58 1830.34,1215.68 "/>
<path clip-path="url(#clip160)" d="M356.707 1277.85 L386.383 1277.85 L386.383 1281.78 L356.707 1281.78 L356.707 1277.85 Z" fill="#000000" fill-rule="nonzero" fill-opacity="1" /><path clip-path="url(#clip160)" d="M409.323 1264.19 L397.517 1282.64 L409.323 1282.64 L409.323 1264.19 M408.096 1260.11 L413.975 1260.11 L413.975 1282.64 L418.906 1282.64 L418.906 1286.53 L413.975 1286.53 L413.975 1294.67 L409.323 1294.67 L409.323 1286.53 L393.721 1286.53 L393.721 1282.01 L408.096 1260.11 Z" fill="#000000" fill-rule="nonzero" fill-opacity="1" /><path clip-path="url(#clip160)" d="M718.383 1277.85 L748.059 1277.85 L748.059 1281.78 L718.383 1281.78 L718.383 1277.85 Z" fill="#000000" fill-rule="nonzero" fill-opacity="1" /><path clip-path="url(#clip160)" d="M762.179 1290.74 L778.498 1290.74 L778.498 1294.67 L756.554 1294.67 L756.554 1290.74 Q759.216 1287.99 763.799 1283.36 Q768.406 1278.7 769.586 1277.36 Q771.832 1274.84 772.711 1273.1 Q773.614 1271.34 773.614 1269.65 Q773.614 1266.9 771.67 1265.16 Q769.748 1263.42 766.647 1263.42 Q764.448 1263.42 761.994 1264.19 Q759.563 1264.95 756.786 1266.5 L756.786 1261.78 Q759.61 1260.65 762.063 1260.07 Q764.517 1259.49 766.554 1259.49 Q771.924 1259.49 775.119 1262.17 Q778.313 1264.86 778.313 1269.35 Q778.313 1271.48 777.503 1273.4 Q776.716 1275.3 774.61 1277.89 Q774.031 1278.56 770.929 1281.78 Q767.827 1284.98 762.179 1290.74 Z" fill="#000000" fill-rule="nonzero" fill-opacity="1" /><path clip-path="url(#clip160)" d="M1109.08 1263.19 Q1105.46 1263.19 1103.64 1266.76 Q1101.83 1270.3 1101.83 1277.43 Q1101.83 1284.54 1103.64 1288.1 Q1105.46 1291.64 1109.08 1291.64 Q1112.71 1291.64 1114.51 1288.1 Q1116.34 1284.54 1116.34 1277.43 Q1116.34 1270.3 1114.51 1266.76 Q1112.71 1263.19 1109.08 1263.19 M1109.08 1259.49 Q1114.89 1259.49 1117.94 1264.1 Q1121.02 1268.68 1121.02 1277.43 Q1121.02 1286.16 1117.94 1290.76 Q1114.89 1295.35 1109.08 1295.35 Q1103.26 1295.35 1100.19 1290.76 Q1097.13 1286.16 1097.13 1277.43 Q1097.13 1268.68 1100.19 1264.1 Q1103.26 1259.49 1109.08 1259.49 Z" fill="#000000" fill-rule="nonzero" fill-opacity="1" /><path clip-path="url(#clip160)" d="M1464.36 1290.74 L1480.68 1290.74 L1480.68 1294.67 L1458.74 1294.67 L1458.74 1290.74 Q1461.4 1287.99 1465.98 1283.36 Q1470.59 1278.7 1471.77 1277.36 Q1474.01 1274.84 1474.89 1273.1 Q1475.8 1271.34 1475.8 1269.65 Q1475.8 1266.9 1473.85 1265.16 Q1471.93 1263.42 1468.83 1263.42 Q1466.63 1263.42 1464.18 1264.19 Q1461.75 1264.95 1458.97 1266.5 L1458.97 1261.78 Q1461.79 1260.65 1464.25 1260.07 Q1466.7 1259.49 1468.74 1259.49 Q1474.11 1259.49 1477.3 1262.17 Q1480.5 1264.86 1480.5 1269.35 Q1480.5 1271.48 1479.69 1273.4 Q1478.9 1275.3 1476.79 1277.89 Q1476.21 1278.56 1473.11 1281.78 Q1470.01 1284.98 1464.36 1290.74 Z" fill="#000000" fill-rule="nonzero" fill-opacity="1" /><path clip-path="url(#clip160)" d="M1833.35 1264.19 L1821.55 1282.64 L1833.35 1282.64 L1833.35 1264.19 M1832.13 1260.11 L1838.01 1260.11 L1838.01 1282.64 L1842.94 1282.64 L1842.94 1286.53 L1838.01 1286.53 L1838.01 1294.67 L1833.35 1294.67 L1833.35 1286.53 L1817.75 1286.53 L1817.75 1282.01 L1832.13 1260.11 Z" fill="#000000" fill-rule="nonzero" fill-opacity="1" /><polyline clip-path="url(#clip160)" style="stroke:#000000; stroke-linecap:round; stroke-linejoin:round; stroke-width:4; stroke-opacity:1; fill:none" points="153.394,1234.58 153.394,47.2441 "/>
<polyline clip-path="url(#clip160)" style="stroke:#000000; stroke-linecap:round; stroke-linejoin:round; stroke-width:4; stroke-opacity:1; fill:none" points="153.394,1001.08 172.292,1001.08 "/>
<polyline clip-path="url(#clip160)" style="stroke:#000000; stroke-linecap:round; stroke-linejoin:round; stroke-width:4; stroke-opacity:1; fill:none" points="153.394,725.003 172.292,725.003 "/>
<polyline clip-path="url(#clip160)" style="stroke:#000000; stroke-linecap:round; stroke-linejoin:round; stroke-width:4; stroke-opacity:1; fill:none" points="153.394,448.928 172.292,448.928 "/>
<polyline clip-path="url(#clip160)" style="stroke:#000000; stroke-linecap:round; stroke-linejoin:round; stroke-width:4; stroke-opacity:1; fill:none" points="153.394,172.853 172.292,172.853 "/>
<path clip-path="url(#clip160)" d="M64.5385 986.877 Q60.9275 986.877 59.0988 990.442 Q57.2932 993.983 57.2932 1001.11 Q57.2932 1008.22 59.0988 1011.78 Q60.9275 1015.33 64.5385 1015.33 Q68.1728 1015.33 69.9783 1011.78 Q71.807 1008.22 71.807 1001.11 Q71.807 993.983 69.9783 990.442 Q68.1728 986.877 64.5385 986.877 M64.5385 983.173 Q70.3487 983.173 73.4042 987.78 Q76.4829 992.363 76.4829 1001.11 Q76.4829 1009.84 73.4042 1014.45 Q70.3487 1019.03 64.5385 1019.03 Q58.7284 1019.03 55.6497 1014.45 Q52.5942 1009.84 52.5942 1001.11 Q52.5942 992.363 55.6497 987.78 Q58.7284 983.173 64.5385 983.173 Z" fill="#000000" fill-rule="nonzero" fill-opacity="1" /><path clip-path="url(#clip160)" d="M84.7005 1012.48 L89.5847 1012.48 L89.5847 1018.36 L84.7005 1018.36 L84.7005 1012.48 Z" fill="#000000" fill-rule="nonzero" fill-opacity="1" /><path clip-path="url(#clip160)" d="M109.77 986.877 Q106.159 986.877 104.33 990.442 Q102.524 993.983 102.524 1001.11 Q102.524 1008.22 104.33 1011.78 Q106.159 1015.33 109.77 1015.33 Q113.404 1015.33 115.21 1011.78 Q117.038 1008.22 117.038 1001.11 Q117.038 993.983 115.21 990.442 Q113.404 986.877 109.77 986.877 M109.77 983.173 Q115.58 983.173 118.635 987.78 Q121.714 992.363 121.714 1001.11 Q121.714 1009.84 118.635 1014.45 Q115.58 1019.03 109.77 1019.03 Q103.96 1019.03 100.881 1014.45 Q97.8254 1009.84 97.8254 1001.11 Q97.8254 992.363 100.881 987.78 Q103.96 983.173 109.77 983.173 Z" fill="#000000" fill-rule="nonzero" fill-opacity="1" /><path clip-path="url(#clip160)" d="M65.1867 710.802 Q61.5756 710.802 59.7469 714.367 Q57.9414 717.908 57.9414 725.038 Q57.9414 732.144 59.7469 735.709 Q61.5756 739.251 65.1867 739.251 Q68.8209 739.251 70.6265 735.709 Q72.4552 732.144 72.4552 725.038 Q72.4552 717.908 70.6265 714.367 Q68.8209 710.802 65.1867 710.802 M65.1867 707.098 Q70.9968 707.098 74.0524 711.705 Q77.1311 716.288 77.1311 725.038 Q77.1311 733.765 74.0524 738.371 Q70.9968 742.954 65.1867 742.954 Q59.3765 742.954 56.2978 738.371 Q53.2423 733.765 53.2423 725.038 Q53.2423 716.288 56.2978 711.705 Q59.3765 707.098 65.1867 707.098 Z" fill="#000000" fill-rule="nonzero" fill-opacity="1" /><path clip-path="url(#clip160)" d="M85.3486 736.404 L90.2328 736.404 L90.2328 742.283 L85.3486 742.283 L85.3486 736.404 Z" fill="#000000" fill-rule="nonzero" fill-opacity="1" /><path clip-path="url(#clip160)" d="M114.585 723.649 Q117.941 724.367 119.816 726.635 Q121.714 728.904 121.714 732.237 Q121.714 737.353 118.196 740.154 Q114.677 742.954 108.196 742.954 Q106.02 742.954 103.705 742.515 Q101.413 742.098 98.9597 741.242 L98.9597 736.728 Q100.904 737.862 103.219 738.441 Q105.534 739.019 108.057 739.019 Q112.455 739.019 114.747 737.283 Q117.061 735.547 117.061 732.237 Q117.061 729.181 114.909 727.468 Q112.779 725.732 108.96 725.732 L104.932 725.732 L104.932 721.89 L109.145 721.89 Q112.594 721.89 114.423 720.524 Q116.251 719.135 116.251 716.543 Q116.251 713.881 114.353 712.469 Q112.478 711.033 108.96 711.033 Q107.038 711.033 104.839 711.45 Q102.64 711.867 100.001 712.746 L100.001 708.58 Q102.663 707.839 104.978 707.469 Q107.316 707.098 109.376 707.098 Q114.7 707.098 117.802 709.529 Q120.904 711.936 120.904 716.056 Q120.904 718.927 119.26 720.918 Q117.617 722.885 114.585 723.649 Z" fill="#000000" fill-rule="nonzero" fill-opacity="1" /><path clip-path="url(#clip160)" d="M64.3765 434.727 Q60.7654 434.727 58.9367 438.292 Q57.1312 441.833 57.1312 448.963 Q57.1312 456.069 58.9367 459.634 Q60.7654 463.176 64.3765 463.176 Q68.0107 463.176 69.8163 459.634 Q71.645 456.069 71.645 448.963 Q71.645 441.833 69.8163 438.292 Q68.0107 434.727 64.3765 434.727 M64.3765 431.023 Q70.1867 431.023 73.2422 435.63 Q76.3209 440.213 76.3209 448.963 Q76.3209 457.69 73.2422 462.296 Q70.1867 466.879 64.3765 466.879 Q58.5664 466.879 55.4877 462.296 Q52.4321 457.69 52.4321 448.963 Q52.4321 440.213 55.4877 435.63 Q58.5664 431.023 64.3765 431.023 Z" fill="#000000" fill-rule="nonzero" fill-opacity="1" /><path clip-path="url(#clip160)" d="M84.5384 460.329 L89.4227 460.329 L89.4227 466.208 L84.5384 466.208 L84.5384 460.329 Z" fill="#000000" fill-rule="nonzero" fill-opacity="1" /><path clip-path="url(#clip160)" d="M110.186 447.065 Q107.038 447.065 105.186 449.217 Q103.358 451.37 103.358 455.12 Q103.358 458.847 105.186 461.023 Q107.038 463.176 110.186 463.176 Q113.335 463.176 115.163 461.023 Q117.015 458.847 117.015 455.12 Q117.015 451.37 115.163 449.217 Q113.335 447.065 110.186 447.065 M119.469 432.412 L119.469 436.671 Q117.71 435.838 115.904 435.398 Q114.122 434.958 112.362 434.958 Q107.733 434.958 105.279 438.083 Q102.849 441.208 102.501 447.528 Q103.867 445.514 105.927 444.449 Q107.987 443.361 110.464 443.361 Q115.673 443.361 118.682 446.532 Q121.714 449.68 121.714 455.12 Q121.714 460.444 118.566 463.662 Q115.418 466.879 110.186 466.879 Q104.191 466.879 101.02 462.296 Q97.8485 457.69 97.8485 448.963 Q97.8485 440.768 101.737 435.907 Q105.626 431.023 112.177 431.023 Q113.936 431.023 115.719 431.37 Q117.524 431.718 119.469 432.412 Z" fill="#000000" fill-rule="nonzero" fill-opacity="1" /><path clip-path="url(#clip160)" d="M64.7237 158.652 Q61.1126 158.652 59.2839 162.217 Q57.4784 165.758 57.4784 172.888 Q57.4784 179.994 59.2839 183.559 Q61.1126 187.101 64.7237 187.101 Q68.358 187.101 70.1635 183.559 Q71.9922 179.994 71.9922 172.888 Q71.9922 165.758 70.1635 162.217 Q68.358 158.652 64.7237 158.652 M64.7237 154.948 Q70.5339 154.948 73.5894 159.555 Q76.6681 164.138 76.6681 172.888 Q76.6681 181.615 73.5894 186.221 Q70.5339 190.804 64.7237 190.804 Q58.9136 190.804 55.8349 186.221 Q52.7793 181.615 52.7793 172.888 Q52.7793 164.138 55.8349 159.555 Q58.9136 154.948 64.7237 154.948 Z" fill="#000000" fill-rule="nonzero" fill-opacity="1" /><path clip-path="url(#clip160)" d="M84.8857 184.253 L89.7699 184.253 L89.7699 190.133 L84.8857 190.133 L84.8857 184.253 Z" fill="#000000" fill-rule="nonzero" fill-opacity="1" /><path clip-path="url(#clip160)" d="M100.094 189.415 L100.094 185.156 Q101.853 185.99 103.659 186.429 Q105.464 186.869 107.2 186.869 Q111.83 186.869 114.26 183.767 Q116.714 180.642 117.061 174.3 Q115.719 176.291 113.659 177.355 Q111.598 178.42 109.098 178.42 Q103.913 178.42 100.881 175.295 Q97.8717 172.147 97.8717 166.707 Q97.8717 161.383 101.02 158.166 Q104.168 154.948 109.399 154.948 Q115.395 154.948 118.543 159.555 Q121.714 164.138 121.714 172.888 Q121.714 181.059 117.825 185.943 Q113.96 190.804 107.409 190.804 Q105.649 190.804 103.844 190.457 Q102.038 190.11 100.094 189.415 M109.399 174.763 Q112.548 174.763 114.376 172.61 Q116.228 170.457 116.228 166.707 Q116.228 162.98 114.376 160.828 Q112.548 158.652 109.399 158.652 Q106.251 158.652 104.399 160.828 Q102.571 162.98 102.571 166.707 Q102.571 170.457 104.399 172.61 Q106.251 174.763 109.399 174.763 Z" fill="#000000" fill-rule="nonzero" fill-opacity="1" /><polyline clip-path="url(#clip162)" style="stroke:#009af9; stroke-linecap:round; stroke-linejoin:round; stroke-width:4; stroke-opacity:1; fill:none" points="207.489,1177.57 212.398,1179.9 217.308,1182.12 222.217,1184.23 227.126,1186.23 253.824,1195.01 280.523,1199.97 293.872,1200.91 307.222,1200.77 320.571,1199.51 333.92,1197.1 348.578,1193.1 363.236,1187.65 377.894,1180.72 392.552,1172.3 407.224,1162.36 421.896,1150.91 436.567,1137.94 451.239,1123.48 465.971,1107.45 480.703,1089.95 495.436,1070.99 510.168,1050.63 523.839,1030.51 537.51,1009.26 551.181,986.916 564.852,963.533 579.654,937.11 594.455,909.609 609.257,881.114 624.058,851.712 641.189,816.676 658.319,780.702 675.45,743.952 692.58,706.593 744.421,591.625 807.073,454.594 823.399,420.275 839.725,386.842 856.051,354.451 872.377,323.255 885.426,299.278 898.474,276.232 911.523,254.185 924.572,233.207 940.557,209.057 956.542,186.718 972.527,166.293 988.512,147.878 1004.73,131.331 1020.96,117.022 1037.18,105.019 1053.4,95.3805 1067.83,88.831 1082.26,84.2153 1096.7,81.5508 1111.13,80.8479 1124.35,81.9281 1137.57,84.6535 1150.79,89.0153 1164.01,94.9995 1181.86,105.613 1199.7,119.083 1217.54,135.332 1235.39,154.264 1248.89,170.305 1262.39,187.767 1275.89,206.59 1289.39,226.713 1303.48,249.022 1317.56,272.593 1331.65,297.342 1345.73,323.182 1362.28,354.797 1378.82,387.637 1395.36,421.542 1411.9,456.351 1466.03,574.511 1527.84,711.567 1556.24,773.06 1584.65,832.517 1601.86,867.258 1619.08,900.832 1636.3,933.096 1653.52,963.919 1667.69,988.123 1681.86,1011.21 1696.04,1033.12 1710.21,1053.8 1726.41,1075.88 1742.61,1096.24 1758.81,1114.85 1775.01,1131.65 1787.63,1143.47 1800.25,1154.18 1812.87,1163.77 1825.5,1172.24 1841.61,1181.42 1857.73,1188.81 1873.85,1194.42 1889.96,1198.28 1903.63,1200.22 1917.29,1200.97 1930.96,1200.57 1944.63,1199.06 1958.29,1196.48 1971.96,1192.87 1985.63,1188.29 1999.29,1182.8 2002.14,1181.55 2004.98,1180.26 2007.82,1178.93 2010.66,1177.57 "/>
<path clip-path="url(#clip160)" d="M1757.48 190.502 L2001.04 190.502 L2001.04 86.8219 L1757.48 86.8219  Z" fill="#ffffff" fill-rule="evenodd" fill-opacity="1"/>
<polyline clip-path="url(#clip160)" style="stroke:#000000; stroke-linecap:round; stroke-linejoin:round; stroke-width:4; stroke-opacity:1; fill:none" points="1757.48,190.502 2001.04,190.502 2001.04,86.8219 1757.48,86.8219 1757.48,190.502 "/>
<polyline clip-path="url(#clip160)" style="stroke:#009af9; stroke-linecap:round; stroke-linejoin:round; stroke-width:4; stroke-opacity:1; fill:none" points="1778.71,138.662 1906.14,138.662 "/>
<path clip-path="url(#clip160)" d="M1941.22 158.349 Q1939.41 162.979 1937.7 164.391 Q1935.99 165.803 1933.12 165.803 L1929.71 165.803 L1929.71 162.238 L1932.21 162.238 Q1933.97 162.238 1934.95 161.405 Q1935.92 160.572 1937.1 157.47 L1937.86 155.525 L1927.38 130.016 L1931.89 130.016 L1939.99 150.294 L1948.09 130.016 L1952.61 130.016 L1941.22 158.349 Z" fill="#000000" fill-rule="nonzero" fill-opacity="1" /><path clip-path="url(#clip160)" d="M1959.9 152.007 L1967.54 152.007 L1967.54 125.641 L1959.23 127.308 L1959.23 123.049 L1967.49 121.382 L1972.17 121.382 L1972.17 152.007 L1979.81 152.007 L1979.81 155.942 L1959.9 155.942 L1959.9 152.007 Z" fill="#000000" fill-rule="nonzero" fill-opacity="1" /></svg>
