<?xml version="1.0" encoding="utf-8"?>
<svg xmlns="http://www.w3.org/2000/svg" xmlns:xlink="http://www.w3.org/1999/xlink" width="528" height="336" viewBox="0 0 2112 1344">
<defs>
  <clipPath id="clip890">
    <rect x="0" y="0" width="2112" height="1344"/>
  </clipPath>
</defs>
<path clip-path="url(#clip890)" d="M0 1344 L2112 1344 L2112 0 L0 0  Z" fill="#ffffff" fill-rule="evenodd" fill-opacity="1"/>
<defs>
  <clipPath id="clip891">
    <rect x="422" y="0" width="1479" height="1344"/>
  </clipPath>
</defs>
<path clip-path="url(#clip890)" d="M144.829 1234.58 L2064.76 1234.58 L2064.76 47.2441 L144.829 47.2441  Z" fill="#ffffff" fill-rule="evenodd" fill-opacity="1"/>
<defs>
  <clipPath id="clip892">
    <rect x="144" y="47" width="1921" height="1188"/>
  </clipPath>
</defs>
<polyline clip-path="url(#clip892)" style="stroke:#000000; stroke-linecap:round; stroke-linejoin:round; stroke-width:2; stroke-opacity:0.1; fill:none" points="144.829,1234.58 144.829,47.2441 "/>
<polyline clip-path="url(#clip892)" style="stroke:#000000; stroke-linecap:round; stroke-linejoin:round; stroke-width:2; stroke-opacity:0.1; fill:none" points="272.824,1234.58 272.824,47.2441 "/>
<polyline clip-path="url(#clip892)" style="stroke:#000000; stroke-linecap:round; stroke-linejoin:round; stroke-width:2; stroke-opacity:0.1; fill:none" points="400.82,1234.58 400.82,47.2441 "/>
<polyline clip-path="url(#clip892)" style="stroke:#000000; stroke-linecap:round; stroke-linejoin:round; stroke-width:2; stroke-opacity:0.1; fill:none" points="528.815,1234.58 528.815,47.2441 "/>
<polyline clip-path="url(#clip892)" style="stroke:#000000; stroke-linecap:round; stroke-linejoin:round; stroke-width:2; stroke-opacity:0.1; fill:none" points="656.81,1234.58 656.81,47.2441 "/>
<polyline clip-path="url(#clip892)" style="stroke:#000000; stroke-linecap:round; stroke-linejoin:round; stroke-width:2; stroke-opacity:0.1; fill:none" points="784.805,1234.58 784.805,47.2441 "/>
<polyline clip-path="url(#clip892)" style="stroke:#000000; stroke-linecap:round; stroke-linejoin:round; stroke-width:2; stroke-opacity:0.1; fill:none" points="912.8,1234.58 912.8,47.2441 "/>
<polyline clip-path="url(#clip892)" style="stroke:#000000; stroke-linecap:round; stroke-linejoin:round; stroke-width:2; stroke-opacity:0.1; fill:none" points="1040.8,1234.58 1040.8,47.2441 "/>
<polyline clip-path="url(#clip892)" style="stroke:#000000; stroke-linecap:round; stroke-linejoin:round; stroke-width:2; stroke-opacity:0.1; fill:none" points="1168.79,1234.58 1168.79,47.2441 "/>
<polyline clip-path="url(#clip892)" style="stroke:#000000; stroke-linecap:round; stroke-linejoin:round; stroke-width:2; stroke-opacity:0.1; fill:none" points="1296.79,1234.58 1296.79,47.2441 "/>
<polyline clip-path="url(#clip892)" style="stroke:#000000; stroke-linecap:round; stroke-linejoin:round; stroke-width:2; stroke-opacity:0.1; fill:none" points="1424.78,1234.58 1424.78,47.2441 "/>
<polyline clip-path="url(#clip892)" style="stroke:#000000; stroke-linecap:round; stroke-linejoin:round; stroke-width:2; stroke-opacity:0.1; fill:none" points="1552.78,1234.58 1552.78,47.2441 "/>
<polyline clip-path="url(#clip892)" style="stroke:#000000; stroke-linecap:round; stroke-linejoin:round; stroke-width:2; stroke-opacity:0.1; fill:none" points="1680.77,1234.58 1680.77,47.2441 "/>
<polyline clip-path="url(#clip892)" style="stroke:#000000; stroke-linecap:round; stroke-linejoin:round; stroke-width:2; stroke-opacity:0.1; fill:none" points="1808.77,1234.58 1808.77,47.2441 "/>
<polyline clip-path="url(#clip892)" style="stroke:#000000; stroke-linecap:round; stroke-linejoin:round; stroke-width:2; stroke-opacity:0.1; fill:none" points="1936.76,1234.58 1936.76,47.2441 "/>
<polyline clip-path="url(#clip892)" style="stroke:#000000; stroke-linecap:round; stroke-linejoin:round; stroke-width:2; stroke-opacity:0.1; fill:none" points="2064.76,1234.58 2064.76,47.2441 "/>
<polyline clip-path="url(#clip890)" style="stroke:#000000; stroke-linecap:round; stroke-linejoin:round; stroke-width:4; stroke-opacity:1; fill:none" points="144.829,1234.58 2064.76,1234.58 "/>
<polyline clip-path="url(#clip890)" style="stroke:#000000; stroke-linecap:round; stroke-linejoin:round; stroke-width:4; stroke-opacity:1; fill:none" points="144.829,1234.58 144.829,1215.68 "/>
<polyline clip-path="url(#clip890)" style="stroke:#000000; stroke-linecap:round; stroke-linejoin:round; stroke-width:4; stroke-opacity:1; fill:none" points="272.824,1234.58 272.824,1215.68 "/>
<polyline clip-path="url(#clip890)" style="stroke:#000000; stroke-linecap:round; stroke-linejoin:round; stroke-width:4; stroke-opacity:1; fill:none" points="400.82,1234.58 400.82,1215.68 "/>
<polyline clip-path="url(#clip890)" style="stroke:#000000; stroke-linecap:round; stroke-linejoin:round; stroke-width:4; stroke-opacity:1; fill:none" points="528.815,1234.58 528.815,1215.68 "/>
<polyline clip-path="url(#clip890)" style="stroke:#000000; stroke-linecap:round; stroke-linejoin:round; stroke-width:4; stroke-opacity:1; fill:none" points="656.81,1234.58 656.81,1215.68 "/>
<polyline clip-path="url(#clip890)" style="stroke:#000000; stroke-linecap:round; stroke-linejoin:round; stroke-width:4; stroke-opacity:1; fill:none" points="784.805,1234.58 784.805,1215.68 "/>
<polyline clip-path="url(#clip890)" style="stroke:#000000; stroke-linecap:round; stroke-linejoin:round; stroke-width:4; stroke-opacity:1; fill:none" points="912.8,1234.58 912.8,1215.68 "/>
<polyline clip-path="url(#clip890)" style="stroke:#000000; stroke-linecap:round; stroke-linejoin:round; stroke-width:4; stroke-opacity:1; fill:none" points="1040.8,1234.58 1040.8,1215.68 "/>
<polyline clip-path="url(#clip890)" style="stroke:#000000; stroke-linecap:round; stroke-linejoin:round; stroke-width:4; stroke-opacity:1; fill:none" points="1168.79,1234.58 1168.79,1215.68 "/>
<polyline clip-path="url(#clip890)" style="stroke:#000000; stroke-linecap:round; stroke-linejoin:round; stroke-width:4; stroke-opacity:1; fill:none" points="1296.79,1234.58 1296.79,1215.68 "/>
<polyline clip-path="url(#clip890)" style="stroke:#000000; stroke-linecap:round; stroke-linejoin:round; stroke-width:4; stroke-opacity:1; fill:none" points="1424.78,1234.58 1424.78,1215.68 "/>
<polyline clip-path="url(#clip890)" style="stroke:#000000; stroke-linecap:round; stroke-linejoin:round; stroke-width:4; stroke-opacity:1; fill:none" points="1552.78,1234.58 1552.78,1215.68 "/>
<polyline clip-path="url(#clip890)" style="stroke:#000000; stroke-linecap:round; stroke-linejoin:round; stroke-width:4; stroke-opacity:1; fill:none" points="1680.77,1234.58 1680.77,1215.68 "/>
<polyline clip-path="url(#clip890)" style="stroke:#000000; stroke-linecap:round; stroke-linejoin:round; stroke-width:4; stroke-opacity:1; fill:none" points="1808.77,1234.58 1808.77,1215.68 "/>
<polyline clip-path="url(#clip890)" style="stroke:#000000; stroke-linecap:round; stroke-linejoin:round; stroke-width:4; stroke-opacity:1; fill:none" points="1936.76,1234.58 1936.76,1215.68 "/>
<polyline clip-path="url(#clip890)" style="stroke:#000000; stroke-linecap:round; stroke-linejoin:round; stroke-width:4; stroke-opacity:1; fill:none" points="2064.76,1234.58 2064.76,1215.68 "/>
<path clip-path="url(#clip890)" d="M114.471 1277.85 L144.147 1277.85 L144.147 1281.78 L114.471 1281.78 L114.471 1277.85 Z" fill="#000000" fill-rule="nonzero" fill-opacity="1" /><path clip-path="url(#clip890)" d="M154.285 1260.11 L172.642 1260.11 L172.642 1264.05 L158.568 1264.05 L158.568 1272.52 Q159.586 1272.17 160.605 1272.01 Q161.623 1271.83 162.642 1271.83 Q168.429 1271.83 171.808 1275 Q175.188 1278.17 175.188 1283.59 Q175.188 1289.17 171.716 1292.27 Q168.244 1295.35 161.924 1295.35 Q159.748 1295.35 157.48 1294.98 Q155.234 1294.61 152.827 1293.86 L152.827 1289.17 Q154.91 1290.3 157.133 1290.86 Q159.355 1291.41 161.832 1291.41 Q165.836 1291.41 168.174 1289.3 Q170.512 1287.2 170.512 1283.59 Q170.512 1279.98 168.174 1277.87 Q165.836 1275.76 161.832 1275.76 Q159.957 1275.76 158.082 1276.18 Q156.23 1276.6 154.285 1277.48 L154.285 1260.11 Z" fill="#000000" fill-rule="nonzero" fill-opacity="1" /><path clip-path="url(#clip890)" d="M241.725 1277.85 L271.401 1277.85 L271.401 1281.78 L241.725 1281.78 L241.725 1277.85 Z" fill="#000000" fill-rule="nonzero" fill-opacity="1" /><path clip-path="url(#clip890)" d="M294.341 1264.19 L282.535 1282.64 L294.341 1282.64 L294.341 1264.19 M293.114 1260.11 L298.993 1260.11 L298.993 1282.64 L303.924 1282.64 L303.924 1286.53 L298.993 1286.53 L298.993 1294.67 L294.341 1294.67 L294.341 1286.53 L278.739 1286.53 L278.739 1282.01 L293.114 1260.11 Z" fill="#000000" fill-rule="nonzero" fill-opacity="1" /><path clip-path="url(#clip890)" d="M370.287 1277.85 L399.963 1277.85 L399.963 1281.78 L370.287 1281.78 L370.287 1277.85 Z" fill="#000000" fill-rule="nonzero" fill-opacity="1" /><path clip-path="url(#clip890)" d="M424.222 1276.04 Q427.579 1276.76 429.454 1279.03 Q431.352 1281.3 431.352 1284.63 Q431.352 1289.74 427.833 1292.55 Q424.315 1295.35 417.833 1295.35 Q415.657 1295.35 413.343 1294.91 Q411.051 1294.49 408.597 1293.63 L408.597 1289.12 Q410.542 1290.25 412.857 1290.83 Q415.171 1291.41 417.695 1291.41 Q422.093 1291.41 424.384 1289.67 Q426.699 1287.94 426.699 1284.63 Q426.699 1281.57 424.546 1279.86 Q422.417 1278.12 418.597 1278.12 L414.57 1278.12 L414.57 1274.28 L418.782 1274.28 Q422.232 1274.28 424.06 1272.92 Q425.889 1271.53 425.889 1268.93 Q425.889 1266.27 423.991 1264.86 Q422.116 1263.42 418.597 1263.42 Q416.676 1263.42 414.477 1263.84 Q412.278 1264.26 409.639 1265.14 L409.639 1260.97 Q412.301 1260.23 414.616 1259.86 Q416.954 1259.49 419.014 1259.49 Q424.338 1259.49 427.44 1261.92 Q430.542 1264.33 430.542 1268.45 Q430.542 1271.32 428.898 1273.31 Q427.255 1275.28 424.222 1276.04 Z" fill="#000000" fill-rule="nonzero" fill-opacity="1" /><path clip-path="url(#clip890)" d="M498.757 1277.85 L528.433 1277.85 L528.433 1281.78 L498.757 1281.78 L498.757 1277.85 Z" fill="#000000" fill-rule="nonzero" fill-opacity="1" /><path clip-path="url(#clip890)" d="M542.553 1290.74 L558.872 1290.74 L558.872 1294.67 L536.928 1294.67 L536.928 1290.74 Q539.59 1287.99 544.173 1283.36 Q548.78 1278.7 549.96 1277.36 Q552.206 1274.84 553.085 1273.1 Q553.988 1271.34 553.988 1269.65 Q553.988 1266.9 552.044 1265.16 Q550.122 1263.42 547.021 1263.42 Q544.822 1263.42 542.368 1264.19 Q539.937 1264.95 537.16 1266.5 L537.16 1261.78 Q539.984 1260.65 542.437 1260.07 Q544.891 1259.49 546.928 1259.49 Q552.298 1259.49 555.493 1262.17 Q558.687 1264.86 558.687 1269.35 Q558.687 1271.48 557.877 1273.4 Q557.09 1275.3 554.984 1277.89 Q554.405 1278.56 551.303 1281.78 Q548.201 1284.98 542.553 1290.74 Z" fill="#000000" fill-rule="nonzero" fill-opacity="1" /><path clip-path="url(#clip890)" d="M626.567 1277.85 L656.243 1277.85 L656.243 1281.78 L626.567 1281.78 L626.567 1277.85 Z" fill="#000000" fill-rule="nonzero" fill-opacity="1" /><path clip-path="url(#clip890)" d="M667.145 1290.74 L674.784 1290.74 L674.784 1264.37 L666.474 1266.04 L666.474 1261.78 L674.738 1260.11 L679.414 1260.11 L679.414 1290.74 L687.053 1290.74 L687.053 1294.67 L667.145 1294.67 L667.145 1290.74 Z" fill="#000000" fill-rule="nonzero" fill-opacity="1" /><path clip-path="url(#clip890)" d="M784.805 1263.19 Q781.194 1263.19 779.365 1266.76 Q777.56 1270.3 777.56 1277.43 Q777.56 1284.54 779.365 1288.1 Q781.194 1291.64 784.805 1291.64 Q788.439 1291.64 790.245 1288.1 Q792.073 1284.54 792.073 1277.43 Q792.073 1270.3 790.245 1266.76 Q788.439 1263.19 784.805 1263.19 M784.805 1259.49 Q790.615 1259.49 793.671 1264.1 Q796.749 1268.68 796.749 1277.43 Q796.749 1286.16 793.671 1290.76 Q790.615 1295.35 784.805 1295.35 Q778.995 1295.35 775.916 1290.76 Q772.861 1286.16 772.861 1277.43 Q772.861 1268.68 775.916 1264.1 Q778.995 1259.49 784.805 1259.49 Z" fill="#000000" fill-rule="nonzero" fill-opacity="1" /><path clip-path="url(#clip890)" d="M903.182 1290.74 L910.821 1290.74 L910.821 1264.37 L902.511 1266.04 L902.511 1261.78 L910.775 1260.11 L915.45 1260.11 L915.45 1290.74 L923.089 1290.74 L923.089 1294.67 L903.182 1294.67 L903.182 1290.74 Z" fill="#000000" fill-rule="nonzero" fill-opacity="1" /><path clip-path="url(#clip890)" d="M1035.45 1290.74 L1051.77 1290.74 L1051.77 1294.67 L1029.82 1294.67 L1029.82 1290.74 Q1032.48 1287.99 1037.07 1283.36 Q1041.67 1278.7 1042.86 1277.36 Q1045.1 1274.84 1045.98 1273.1 Q1046.88 1271.34 1046.88 1269.65 Q1046.88 1266.9 1044.94 1265.16 Q1043.02 1263.42 1039.92 1263.42 Q1037.72 1263.42 1035.26 1264.19 Q1032.83 1264.95 1030.05 1266.5 L1030.05 1261.78 Q1032.88 1260.65 1035.33 1260.07 Q1037.79 1259.49 1039.82 1259.49 Q1045.19 1259.49 1048.39 1262.17 Q1051.58 1264.86 1051.58 1269.35 Q1051.58 1271.48 1050.77 1273.4 Q1049.98 1275.3 1047.88 1277.89 Q1047.3 1278.56 1044.2 1281.78 Q1041.1 1284.98 1035.45 1290.74 Z" fill="#000000" fill-rule="nonzero" fill-opacity="1" /><path clip-path="url(#clip890)" d="M1173.04 1276.04 Q1176.39 1276.76 1178.27 1279.03 Q1180.17 1281.3 1180.17 1284.63 Q1180.17 1289.74 1176.65 1292.55 Q1173.13 1295.35 1166.65 1295.35 Q1164.47 1295.35 1162.16 1294.91 Q1159.87 1294.49 1157.41 1293.63 L1157.41 1289.12 Q1159.36 1290.25 1161.67 1290.83 Q1163.99 1291.41 1166.51 1291.41 Q1170.91 1291.41 1173.2 1289.67 Q1175.51 1287.94 1175.51 1284.63 Q1175.51 1281.57 1173.36 1279.86 Q1171.23 1278.12 1167.41 1278.12 L1163.39 1278.12 L1163.39 1274.28 L1167.6 1274.28 Q1171.05 1274.28 1172.88 1272.92 Q1174.7 1271.53 1174.7 1268.93 Q1174.7 1266.27 1172.81 1264.86 Q1170.93 1263.42 1167.41 1263.42 Q1165.49 1263.42 1163.29 1263.84 Q1161.09 1264.26 1158.45 1265.14 L1158.45 1260.97 Q1161.12 1260.23 1163.43 1259.86 Q1165.77 1259.49 1167.83 1259.49 Q1173.15 1259.49 1176.26 1261.92 Q1179.36 1264.33 1179.36 1268.45 Q1179.36 1271.32 1177.71 1273.31 Q1176.07 1275.28 1173.04 1276.04 Z" fill="#000000" fill-rule="nonzero" fill-opacity="1" /><path clip-path="url(#clip890)" d="M1299.79 1264.19 L1287.99 1282.64 L1299.79 1282.64 L1299.79 1264.19 M1298.57 1260.11 L1304.45 1260.11 L1304.45 1282.64 L1309.38 1282.64 L1309.38 1286.53 L1304.45 1286.53 L1304.45 1294.67 L1299.79 1294.67 L1299.79 1286.53 L1284.19 1286.53 L1284.19 1282.01 L1298.57 1260.11 Z" fill="#000000" fill-rule="nonzero" fill-opacity="1" /><path clip-path="url(#clip890)" d="M1415.06 1260.11 L1433.41 1260.11 L1433.41 1264.05 L1419.34 1264.05 L1419.34 1272.52 Q1420.36 1272.17 1421.38 1272.01 Q1422.4 1271.83 1423.41 1271.83 Q1429.2 1271.83 1432.58 1275 Q1435.96 1278.17 1435.96 1283.59 Q1435.96 1289.17 1432.49 1292.27 Q1429.02 1295.35 1422.7 1295.35 Q1420.52 1295.35 1418.25 1294.98 Q1416.01 1294.61 1413.6 1293.86 L1413.6 1289.17 Q1415.68 1290.3 1417.91 1290.86 Q1420.13 1291.41 1422.6 1291.41 Q1426.61 1291.41 1428.95 1289.3 Q1431.28 1287.2 1431.28 1283.59 Q1431.28 1279.98 1428.95 1277.87 Q1426.61 1275.76 1422.6 1275.76 Q1420.73 1275.76 1418.85 1276.18 Q1417 1276.6 1415.06 1277.48 L1415.06 1260.11 Z" fill="#000000" fill-rule="nonzero" fill-opacity="1" /><path clip-path="url(#clip890)" d="M1553.18 1275.53 Q1550.03 1275.53 1548.18 1277.68 Q1546.35 1279.84 1546.35 1283.59 Q1546.35 1287.31 1548.18 1289.49 Q1550.03 1291.64 1553.18 1291.64 Q1556.33 1291.64 1558.16 1289.49 Q1560.01 1287.31 1560.01 1283.59 Q1560.01 1279.84 1558.16 1277.68 Q1556.33 1275.53 1553.18 1275.53 M1562.46 1260.88 L1562.46 1265.14 Q1560.7 1264.3 1558.9 1263.86 Q1557.12 1263.42 1555.36 1263.42 Q1550.73 1263.42 1548.27 1266.55 Q1545.84 1269.67 1545.5 1275.99 Q1546.86 1273.98 1548.92 1272.92 Q1550.98 1271.83 1553.46 1271.83 Q1558.67 1271.83 1561.68 1275 Q1564.71 1278.15 1564.71 1283.59 Q1564.71 1288.91 1561.56 1292.13 Q1558.41 1295.35 1553.18 1295.35 Q1547.19 1295.35 1544.01 1290.76 Q1540.84 1286.16 1540.84 1277.43 Q1540.84 1269.24 1544.73 1264.37 Q1548.62 1259.49 1555.17 1259.49 Q1556.93 1259.49 1558.71 1259.84 Q1560.52 1260.18 1562.46 1260.88 Z" fill="#000000" fill-rule="nonzero" fill-opacity="1" /><path clip-path="url(#clip890)" d="M1669.66 1260.11 L1691.88 1260.11 L1691.88 1262.11 L1679.34 1294.67 L1674.45 1294.67 L1686.26 1264.05 L1669.66 1264.05 L1669.66 1260.11 Z" fill="#000000" fill-rule="nonzero" fill-opacity="1" /><path clip-path="url(#clip890)" d="M1808.77 1278.26 Q1805.43 1278.26 1803.51 1280.05 Q1801.61 1281.83 1801.61 1284.95 Q1801.61 1288.08 1803.51 1289.86 Q1805.43 1291.64 1808.77 1291.64 Q1812.1 1291.64 1814.02 1289.86 Q1815.94 1288.05 1815.94 1284.95 Q1815.94 1281.83 1814.02 1280.05 Q1812.12 1278.26 1808.77 1278.26 M1804.09 1276.27 Q1801.08 1275.53 1799.39 1273.47 Q1797.72 1271.41 1797.72 1268.45 Q1797.72 1264.3 1800.66 1261.9 Q1803.63 1259.49 1808.77 1259.49 Q1813.93 1259.49 1816.87 1261.9 Q1819.81 1264.3 1819.81 1268.45 Q1819.81 1271.41 1818.12 1273.47 Q1816.45 1275.53 1813.46 1276.27 Q1816.84 1277.06 1818.72 1279.35 Q1820.62 1281.64 1820.62 1284.95 Q1820.62 1289.98 1817.54 1292.66 Q1814.48 1295.35 1808.77 1295.35 Q1803.05 1295.35 1799.97 1292.66 Q1796.91 1289.98 1796.91 1284.95 Q1796.91 1281.64 1798.81 1279.35 Q1800.71 1277.06 1804.09 1276.27 M1802.38 1268.89 Q1802.38 1271.57 1804.04 1273.08 Q1805.73 1274.58 1808.77 1274.58 Q1811.77 1274.58 1813.46 1273.08 Q1815.18 1271.57 1815.18 1268.89 Q1815.18 1266.2 1813.46 1264.7 Q1811.77 1263.19 1808.77 1263.19 Q1805.73 1263.19 1804.04 1264.7 Q1802.38 1266.2 1802.38 1268.89 Z" fill="#000000" fill-rule="nonzero" fill-opacity="1" /><path clip-path="url(#clip890)" d="M1927.06 1293.96 L1927.06 1289.7 Q1928.82 1290.53 1930.63 1290.97 Q1932.43 1291.41 1934.17 1291.41 Q1938.8 1291.41 1941.23 1288.31 Q1943.68 1285.18 1944.03 1278.84 Q1942.69 1280.83 1940.63 1281.9 Q1938.57 1282.96 1936.07 1282.96 Q1930.88 1282.96 1927.85 1279.84 Q1924.84 1276.69 1924.84 1271.25 Q1924.84 1265.92 1927.99 1262.71 Q1931.14 1259.49 1936.37 1259.49 Q1942.36 1259.49 1945.51 1264.1 Q1948.68 1268.68 1948.68 1277.43 Q1948.68 1285.6 1944.79 1290.48 Q1940.93 1295.35 1934.38 1295.35 Q1932.62 1295.35 1930.81 1295 Q1929.01 1294.65 1927.06 1293.96 M1936.37 1279.3 Q1939.52 1279.3 1941.34 1277.15 Q1943.2 1275 1943.2 1271.25 Q1943.2 1267.52 1941.34 1265.37 Q1939.52 1263.19 1936.37 1263.19 Q1933.22 1263.19 1931.37 1265.37 Q1929.54 1267.52 1929.54 1271.25 Q1929.54 1275 1931.37 1277.15 Q1933.22 1279.3 1936.37 1279.3 Z" fill="#000000" fill-rule="nonzero" fill-opacity="1" /><path clip-path="url(#clip890)" d="M2039.44 1290.74 L2047.08 1290.74 L2047.08 1264.37 L2038.77 1266.04 L2038.77 1261.78 L2047.04 1260.11 L2051.71 1260.11 L2051.71 1290.74 L2059.35 1290.74 L2059.35 1294.67 L2039.44 1294.67 L2039.44 1290.74 Z" fill="#000000" fill-rule="nonzero" fill-opacity="1" /><path clip-path="url(#clip890)" d="M2078.8 1263.19 Q2075.18 1263.19 2073.36 1266.76 Q2071.55 1270.3 2071.55 1277.43 Q2071.55 1284.54 2073.36 1288.1 Q2075.18 1291.64 2078.8 1291.64 Q2082.43 1291.64 2084.23 1288.1 Q2086.06 1284.54 2086.06 1277.43 Q2086.06 1270.3 2084.23 1266.76 Q2082.43 1263.19 2078.8 1263.19 M2078.8 1259.49 Q2084.61 1259.49 2087.66 1264.1 Q2090.74 1268.68 2090.74 1277.43 Q2090.74 1286.16 2087.66 1290.76 Q2084.61 1295.35 2078.8 1295.35 Q2072.99 1295.35 2069.91 1290.76 Q2066.85 1286.16 2066.85 1277.43 Q2066.85 1268.68 2069.91 1264.1 Q2072.99 1259.49 2078.8 1259.49 Z" fill="#000000" fill-rule="nonzero" fill-opacity="1" /><polyline clip-path="url(#clip892)" style="stroke:#000000; stroke-linecap:round; stroke-linejoin:round; stroke-width:2; stroke-opacity:0.1; fill:none" points="144.829,1234.58 2064.76,1234.58 "/>
<polyline clip-path="url(#clip892)" style="stroke:#000000; stroke-linecap:round; stroke-linejoin:round; stroke-width:2; stroke-opacity:0.1; fill:none" points="144.829,838.801 2064.76,838.801 "/>
<polyline clip-path="url(#clip892)" style="stroke:#000000; stroke-linecap:round; stroke-linejoin:round; stroke-width:2; stroke-opacity:0.1; fill:none" points="144.829,443.022 2064.76,443.022 "/>
<polyline clip-path="url(#clip892)" style="stroke:#000000; stroke-linecap:round; stroke-linejoin:round; stroke-width:2; stroke-opacity:0.1; fill:none" points="144.829,47.2441 2064.76,47.2441 "/>
<polyline clip-path="url(#clip890)" style="stroke:#000000; stroke-linecap:round; stroke-linejoin:round; stroke-width:4; stroke-opacity:1; fill:none" points="144.829,1234.58 144.829,47.2441 "/>
<polyline clip-path="url(#clip890)" style="stroke:#000000; stroke-linecap:round; stroke-linejoin:round; stroke-width:4; stroke-opacity:1; fill:none" points="144.829,1234.58 163.727,1234.58 "/>
<polyline clip-path="url(#clip890)" style="stroke:#000000; stroke-linecap:round; stroke-linejoin:round; stroke-width:4; stroke-opacity:1; fill:none" points="144.829,838.801 163.727,838.801 "/>
<polyline clip-path="url(#clip890)" style="stroke:#000000; stroke-linecap:round; stroke-linejoin:round; stroke-width:4; stroke-opacity:1; fill:none" points="144.829,443.022 163.727,443.022 "/>
<polyline clip-path="url(#clip890)" style="stroke:#000000; stroke-linecap:round; stroke-linejoin:round; stroke-width:4; stroke-opacity:1; fill:none" points="144.829,47.2441 163.727,47.2441 "/>
<path clip-path="url(#clip890)" d="M52.4321 1235.03 L82.1079 1235.03 L82.1079 1238.97 L52.4321 1238.97 L52.4321 1235.03 Z" fill="#000000" fill-rule="nonzero" fill-opacity="1" /><path clip-path="url(#clip890)" d="M92.2467 1217.3 L110.603 1217.3 L110.603 1221.23 L96.5291 1221.23 L96.5291 1229.71 Q97.5476 1229.36 98.5661 1229.2 Q99.5847 1229.01 100.603 1229.01 Q106.39 1229.01 109.77 1232.18 Q113.149 1235.35 113.149 1240.77 Q113.149 1246.35 109.677 1249.45 Q106.205 1252.53 99.8856 1252.53 Q97.7097 1252.53 95.4412 1252.16 Q93.1958 1251.79 90.7884 1251.05 L90.7884 1246.35 Q92.8717 1247.48 95.0939 1248.04 Q97.3161 1248.59 99.793 1248.59 Q103.798 1248.59 106.136 1246.49 Q108.473 1244.38 108.473 1240.77 Q108.473 1237.16 106.136 1235.05 Q103.798 1232.95 99.793 1232.95 Q97.918 1232.95 96.043 1233.36 Q94.1912 1233.78 92.2467 1234.66 L92.2467 1217.3 Z" fill="#000000" fill-rule="nonzero" fill-opacity="1" /><path clip-path="url(#clip890)" d="M101.205 824.599 Q97.5939 824.599 95.7652 828.164 Q93.9597 831.706 93.9597 838.835 Q93.9597 845.942 95.7652 849.507 Q97.5939 853.048 101.205 853.048 Q104.839 853.048 106.645 849.507 Q108.473 845.942 108.473 838.835 Q108.473 831.706 106.645 828.164 Q104.839 824.599 101.205 824.599 M101.205 820.896 Q107.015 820.896 110.071 825.502 Q113.149 830.085 113.149 838.835 Q113.149 847.562 110.071 852.169 Q107.015 856.752 101.205 856.752 Q95.3949 856.752 92.3162 852.169 Q89.2606 847.562 89.2606 838.835 Q89.2606 830.085 92.3162 825.502 Q95.3949 820.896 101.205 820.896 Z" fill="#000000" fill-rule="nonzero" fill-opacity="1" /><path clip-path="url(#clip890)" d="M92.2467 425.742 L110.603 425.742 L110.603 429.677 L96.5291 429.677 L96.5291 438.15 Q97.5476 437.802 98.5661 437.64 Q99.5847 437.455 100.603 437.455 Q106.39 437.455 109.77 440.627 Q113.149 443.798 113.149 449.214 Q113.149 454.793 109.677 457.895 Q106.205 460.974 99.8856 460.974 Q97.7097 460.974 95.4412 460.603 Q93.1958 460.233 90.7884 459.492 L90.7884 454.793 Q92.8717 455.927 95.0939 456.483 Q97.3161 457.038 99.793 457.038 Q103.798 457.038 106.136 454.932 Q108.473 452.826 108.473 449.214 Q108.473 445.603 106.136 443.497 Q103.798 441.39 99.793 441.39 Q97.918 441.39 96.043 441.807 Q94.1912 442.224 92.2467 443.103 L92.2467 425.742 Z" fill="#000000" fill-rule="nonzero" fill-opacity="1" /><path clip-path="url(#clip890)" d="M61.8534 60.5889 L69.4922 60.5889 L69.4922 34.2233 L61.1821 35.89 L61.1821 31.6308 L69.4459 29.9641 L74.1218 29.9641 L74.1218 60.5889 L81.7607 60.5889 L81.7607 64.5241 L61.8534 64.5241 L61.8534 60.5889 Z" fill="#000000" fill-rule="nonzero" fill-opacity="1" /><path clip-path="url(#clip890)" d="M101.205 33.0428 Q97.5939 33.0428 95.7652 36.6076 Q93.9597 40.1492 93.9597 47.2788 Q93.9597 54.3853 95.7652 57.9501 Q97.5939 61.4917 101.205 61.4917 Q104.839 61.4917 106.645 57.9501 Q108.473 54.3853 108.473 47.2788 Q108.473 40.1492 106.645 36.6076 Q104.839 33.0428 101.205 33.0428 M101.205 29.3391 Q107.015 29.3391 110.071 33.9456 Q113.149 38.5289 113.149 47.2788 Q113.149 56.0056 110.071 60.6121 Q107.015 65.1954 101.205 65.1954 Q95.3949 65.1954 92.3162 60.6121 Q89.2606 56.0056 89.2606 47.2788 Q89.2606 38.5289 92.3162 33.9456 Q95.3949 29.3391 101.205 29.3391 Z" fill="#000000" fill-rule="nonzero" fill-opacity="1" /><polyline clip-path="url(#clip892)" style="stroke:#009af9; stroke-linecap:round; stroke-linejoin:round; stroke-width:4; stroke-opacity:1; fill:none" points="144.829,782.261 157.329,782.581 272.908,786.033 342.365,788.657 401.091,791.321 464.884,794.829 523.695,798.831 586.746,804.272 659.798,812.829 692.258,817.782 724.718,823.753 753.182,830.097 781.646,837.836 812.68,839.475 843.714,842.101 859.323,844.349 874.932,847.348 890.541,851.225 906.15,856.136 923.408,863.009 940.666,871.728 957.924,882.749 975.182,896.685 991.602,913.431 1008.02,934.634 1016.23,947.357 1024.44,961.817 1032.65,978.326 1040.86,997.281 1049.4,1020.12 1057.94,1046.89 1066.47,1078.57 1075.01,1116.49 1079.28,1138.35 1083.55,1162.54 1087.82,1189.41 1092.08,1219.42 1096.35,1253.12 1100.62,1291.21 1102.75,1312.17 1104.89,1334.57 1107.02,1358.56 1109.16,1384.31 1112.75,1432.22 1116.34,1486.85 1118.14,1517.13 1119.94,1549.67 1121.73,1584.74 1123.53,1622.64 1125.33,1663.72 1127.12,1708.4 1128.92,1757.14 1130.72,1810.54 1132.51,1869.28 1134.31,1934.2 1136.11,2006.32 1137.9,2086.9 1138.8,2130.83 1139.7,2177.49 1140.6,2227.14 1141.49,2280.08 1142.39,2336.64 1143.29,2397.2 "/>
<polyline clip-path="url(#clip892)" style="stroke:#009af9; stroke-linecap:round; stroke-linejoin:round; stroke-width:4; stroke-opacity:1; fill:none" points="1203.38,-727.262 1203.93,-706.868 1205.03,-667.947 1206.13,-631.333 1208.32,-564.255 1210.51,-504.301 1212.71,-450.404 1214.9,-401.699 1217.09,-357.478 1219.29,-317.158 1221.48,-280.252 1223.67,-246.349 1225.87,-215.104 1228.06,-186.222 1230.25,-159.45 1232.45,-134.569 1234.64,-111.391 1236.83,-89.7515 1240.85,-53.6291 1244.87,-21.4539 1248.89,7.36817 1252.91,33.3177 1256.93,56.7877 1260.94,78.1023 1264.96,97.5319 1268.98,115.303 1277.02,146.61 1285.06,173.245 1293.09,196.114 1301.13,215.904 1308.55,231.906 1315.97,246.062 1323.4,258.639 1330.82,269.853 1345.67,288.879 1360.51,304.248 1375.55,316.894 1390.59,327.194 1405.63,335.596 1420.66,342.44 1437.52,348.581 1454.37,353.382 1471.22,357.067 1488.08,359.813 1518.62,362.836 1549.17,363.856 1584.14,363.134 1619.11,360.845 1651.49,357.625 1683.87,353.55 1747.71,343.57 1809.7,332.019 1873.25,318.787 1942.87,303.08 2044.01,278.613 2064.76,273.403 "/>
<polyline clip-path="url(#clip892)" style="stroke:#e26f46; stroke-linecap:round; stroke-linejoin:round; stroke-width:4; stroke-opacity:1; fill:none" points="1168.79,2421.91 1168.79,-1140.09 "/>
<polyline clip-path="url(#clip892)" style="stroke:#3da44d; stroke-linecap:round; stroke-linejoin:round; stroke-width:4; stroke-opacity:1; fill:none" points="-1775.1,759.645 3984.68,759.645 "/>
<polyline clip-path="url(#clip892)" style="stroke:#c271d2; stroke-linecap:round; stroke-linejoin:round; stroke-width:4; stroke-opacity:1; fill:none" points="144.829,917.956 157.329,914.091 272.908,878.353 342.365,856.875 401.091,838.717 464.884,818.991 523.695,800.806 586.746,781.309 659.798,758.721 724.718,738.647 781.646,721.044 843.714,701.852 906.15,682.545 975.182,661.2 1040.86,640.89 1109.16,619.773 1166.65,601.997 1236.83,580.294 1301.13,560.413 1360.51,542.051 1420.66,523.451 1488.08,502.606 1549.17,483.716 1619.11,462.089 1683.87,442.065 1747.71,422.323 1809.7,403.155 1873.25,383.506 1942.87,361.978 2044.01,330.705 2064.76,324.289 "/>
<path clip-path="url(#clip890)" d="M208.827 523.634 L1053.96 523.634 L1053.96 86.8219 L208.827 86.8219  Z" fill="#ffffff" fill-rule="evenodd" fill-opacity="1"/>
<polyline clip-path="url(#clip890)" style="stroke:#000000; stroke-linecap:round; stroke-linejoin:round; stroke-width:4; stroke-opacity:1; fill:none" points="208.827,523.634 1053.96,523.634 1053.96,86.8219 208.827,86.8219 208.827,523.634 "/>
<polyline clip-path="url(#clip890)" style="stroke:#009af9; stroke-linecap:round; stroke-linejoin:round; stroke-width:4; stroke-opacity:1; fill:none" points="230.159,174.184 358.155,174.184 "/>
<path clip-path="url(#clip890)" d="M401.504 167.109 Q401.504 167.132 401.364 167.975 L396.023 189.266 Q395.742 190.391 394.946 191.515 Q394.173 192.663 392.932 193.646 Q391.714 194.654 389.84 195.263 Q387.989 195.895 385.858 195.895 Q382.462 195.895 380.963 195.169 Q379.487 194.466 379.487 192.967 Q379.487 191.656 380.307 190.906 Q381.127 190.18 382.064 190.18 Q382.954 190.18 383.422 190.695 Q383.89 191.21 383.89 191.866 Q383.89 192.592 383.399 193.319 Q382.907 194.068 381.923 194.349 Q383.492 194.841 385.764 194.841 Q390.566 194.841 392.627 189.758 Q392.674 189.688 392.674 189.665 L394.267 183.317 L394.196 183.27 Q393.798 183.739 393.166 184.277 Q392.557 184.793 391.245 185.425 Q389.933 186.058 388.645 186.058 Q385.952 186.058 384.101 183.996 Q382.274 181.912 382.274 178.469 Q382.274 175.962 383.282 173.456 Q384.312 170.927 385.905 169.076 Q387.521 167.202 389.582 166.031 Q391.667 164.86 393.681 164.86 Q395.086 164.86 396.281 165.703 Q397.476 166.523 398.131 167.882 Q398.248 166.757 398.881 166.289 Q399.537 165.821 400.099 165.821 Q400.731 165.821 401.106 166.172 Q401.504 166.5 401.504 167.109 M397.569 170.037 Q397.569 169.896 397.476 169.521 Q397.382 169.123 397.101 168.491 Q396.843 167.858 396.445 167.296 Q396.047 166.734 395.321 166.336 Q394.618 165.914 393.728 165.914 Q392.276 165.914 390.824 167.132 Q389.371 168.327 388.364 170.177 Q387.427 171.957 386.537 175.4 Q385.671 178.843 385.671 180.6 Q385.671 182.333 386.42 183.668 Q387.17 185.004 388.786 185.004 Q390.66 185.004 392.674 183.27 Q394.759 181.467 395.11 179.921 L397.429 170.763 Q397.569 170.201 397.569 170.037 Z" fill="#000000" fill-rule="nonzero" fill-opacity="1" /><path clip-path="url(#clip890)" d="M408.079 174.065 Q408.079 165.961 411.1 159.426 Q412.389 156.686 414.192 154.39 Q415.996 152.095 417.19 151.088 Q418.385 150.081 418.713 150.081 Q419.181 150.081 419.204 150.549 Q419.204 150.783 418.572 151.369 Q410.843 159.239 410.866 174.065 Q410.866 188.939 418.385 196.504 Q419.204 197.324 419.204 197.581 Q419.204 198.05 418.713 198.05 Q418.385 198.05 417.237 197.09 Q416.089 196.129 414.309 193.927 Q412.529 191.726 411.241 189.032 Q408.079 182.497 408.079 174.065 Z" fill="#000000" fill-rule="nonzero" fill-opacity="1" /><path clip-path="url(#clip890)" d="M446.74 168.022 Q446.74 169.334 445.92 170.083 Q445.1 170.81 444.163 170.81 Q443.273 170.81 442.805 170.294 Q442.336 169.779 442.336 169.123 Q442.336 168.233 442.992 167.46 Q443.648 166.687 444.632 166.523 Q443.671 165.914 442.243 165.914 Q441.306 165.914 440.486 166.406 Q439.689 166.898 439.198 167.53 Q438.729 168.163 438.308 169.076 Q437.909 169.966 437.745 170.505 Q437.605 171.02 437.488 171.582 L435.848 178.141 Q435.052 181.256 435.052 182.357 Q435.052 183.715 435.708 184.629 Q436.363 185.519 437.675 185.519 Q438.19 185.519 438.776 185.378 Q439.362 185.214 440.111 184.793 Q440.884 184.348 441.563 183.692 Q442.266 183.013 442.945 181.865 Q443.624 180.717 444.069 179.242 Q444.21 178.726 444.678 178.726 Q445.264 178.726 445.264 179.195 Q445.264 179.593 444.936 180.436 Q444.632 181.256 443.952 182.333 Q443.297 183.387 442.43 184.348 Q441.563 185.285 440.275 185.94 Q438.987 186.596 437.581 186.596 Q435.567 186.596 434.232 185.519 Q432.897 184.441 432.405 182.942 Q432.288 183.153 432.124 183.434 Q431.96 183.715 431.468 184.348 Q431 184.957 430.461 185.425 Q429.922 185.87 429.079 186.221 Q428.259 186.596 427.369 186.596 Q426.245 186.596 425.238 186.268 Q424.254 185.94 423.551 185.191 Q422.849 184.441 422.849 183.411 Q422.849 182.263 423.622 181.467 Q424.418 180.647 425.495 180.647 Q426.175 180.647 426.713 181.045 Q427.276 181.443 427.276 182.31 Q427.276 183.27 426.62 183.996 Q425.964 184.722 425.027 184.91 Q425.987 185.519 427.416 185.519 Q428.962 185.519 430.18 184.16 Q431.398 182.802 431.983 180.53 Q433.436 175.072 433.998 172.636 Q434.56 170.177 434.56 169.123 Q434.56 168.139 434.302 167.46 Q434.045 166.781 433.6 166.476 Q433.178 166.148 432.78 166.031 Q432.405 165.914 431.983 165.914 Q431.281 165.914 430.484 166.195 Q429.712 166.476 428.775 167.132 Q427.861 167.765 426.994 169.076 Q426.128 170.388 425.542 172.191 Q425.425 172.73 424.91 172.73 Q424.348 172.707 424.348 172.238 Q424.348 171.84 424.652 171.02 Q424.98 170.177 425.636 169.123 Q426.315 168.069 427.182 167.132 Q428.072 166.172 429.36 165.516 Q430.672 164.86 432.077 164.86 Q432.71 164.86 433.319 165.001 Q433.951 165.118 434.7 165.469 Q435.473 165.821 436.153 166.593 Q436.832 167.366 437.254 168.491 Q437.535 167.952 437.909 167.437 Q438.308 166.921 438.917 166.289 Q439.549 165.633 440.416 165.258 Q441.306 164.86 442.289 164.86 Q443.25 164.86 444.187 165.118 Q445.123 165.352 445.92 166.125 Q446.74 166.875 446.74 168.022 Z" fill="#000000" fill-rule="nonzero" fill-opacity="1" /><path clip-path="url(#clip890)" d="M451.356 197.581 Q451.356 197.347 451.965 196.762 Q459.694 188.892 459.694 174.065 Q459.694 159.192 452.269 151.673 Q451.356 150.807 451.356 150.549 Q451.356 150.081 451.824 150.081 Q452.152 150.081 453.3 151.041 Q454.471 152.001 456.228 154.203 Q458.008 156.405 459.319 159.098 Q462.481 165.633 462.481 174.065 Q462.481 182.169 459.46 188.704 Q458.172 191.445 456.368 193.74 Q454.565 196.036 453.37 197.043 Q452.176 198.05 451.824 198.05 Q451.356 198.05 451.356 197.581 Z" fill="#000000" fill-rule="nonzero" fill-opacity="1" /><polyline clip-path="url(#clip890)" style="stroke:#e26f46; stroke-linecap:round; stroke-linejoin:round; stroke-width:4; stroke-opacity:1; fill:none" points="230.159,261.547 358.155,261.547 "/>
<path clip-path="url(#clip890)" d="M395.32 246.89 L388.978 264.089 L401.686 264.089 L395.32 246.89 M392.681 242.284 L397.982 242.284 L411.154 276.844 L406.292 276.844 L403.144 267.978 L387.566 267.978 L384.418 276.844 L379.487 276.844 L392.681 242.284 Z" fill="#000000" fill-rule="nonzero" fill-opacity="1" /><path clip-path="url(#clip890)" d="M432.542 251.682 L432.542 255.71 Q430.737 254.784 428.792 254.321 Q426.848 253.858 424.765 253.858 Q421.593 253.858 419.996 254.83 Q418.422 255.802 418.422 257.747 Q418.422 259.228 419.556 260.085 Q420.691 260.918 424.116 261.682 L425.575 262.006 Q430.112 262.978 432.01 264.761 Q433.931 266.52 433.931 269.691 Q433.931 273.302 431.061 275.409 Q428.214 277.515 423.214 277.515 Q421.13 277.515 418.862 277.098 Q416.617 276.705 414.117 275.895 L414.117 271.497 Q416.478 272.723 418.769 273.348 Q421.061 273.95 423.306 273.95 Q426.316 273.95 427.936 272.932 Q429.556 271.89 429.556 270.015 Q429.556 268.279 428.376 267.353 Q427.218 266.427 423.26 265.571 L421.779 265.223 Q417.82 264.39 416.061 262.677 Q414.302 260.941 414.302 257.932 Q414.302 254.274 416.894 252.284 Q419.487 250.293 424.255 250.293 Q426.616 250.293 428.7 250.64 Q430.783 250.987 432.542 251.682 Z" fill="#000000" fill-rule="nonzero" fill-opacity="1" /><path clip-path="url(#clip890)" d="M446.061 238.927 L450.667 238.927 L443.121 247.631 L439.579 247.631 L446.061 238.927 M440.714 250.918 L444.973 250.918 L444.973 276.844 L440.714 276.844 L440.714 250.918 M442.843 250.293 L442.843 250.293 Z" fill="#000000" fill-rule="nonzero" fill-opacity="1" /><path clip-path="url(#clip890)" d="M475.436 261.196 L475.436 276.844 L471.176 276.844 L471.176 261.335 Q471.176 257.654 469.741 255.825 Q468.306 253.997 465.436 253.997 Q461.987 253.997 459.996 256.196 Q458.005 258.395 458.005 262.191 L458.005 276.844 L453.723 276.844 L453.723 250.918 L458.005 250.918 L458.005 254.946 Q459.533 252.608 461.593 251.45 Q463.676 250.293 466.385 250.293 Q470.852 250.293 473.144 253.071 Q475.436 255.825 475.436 261.196 Z" fill="#000000" fill-rule="nonzero" fill-opacity="1" /><path clip-path="url(#clip890)" d="M488.144 243.557 L488.144 250.918 L496.917 250.918 L496.917 254.228 L488.144 254.228 L488.144 268.302 Q488.144 271.473 489 272.376 Q489.88 273.279 492.542 273.279 L496.917 273.279 L496.917 276.844 L492.542 276.844 Q487.611 276.844 485.737 275.015 Q483.862 273.163 483.862 268.302 L483.862 254.228 L480.737 254.228 L480.737 250.918 L483.862 250.918 L483.862 243.557 L488.144 243.557 Z" fill="#000000" fill-rule="nonzero" fill-opacity="1" /><path clip-path="url(#clip890)" d="M512.565 253.904 Q509.139 253.904 507.148 256.589 Q505.158 259.251 505.158 263.904 Q505.158 268.557 507.125 271.242 Q509.116 273.904 512.565 273.904 Q515.968 273.904 517.959 271.219 Q519.949 268.534 519.949 263.904 Q519.949 259.298 517.959 256.612 Q515.968 253.904 512.565 253.904 M512.565 250.293 Q518.121 250.293 521.292 253.904 Q524.463 257.515 524.463 263.904 Q524.463 270.27 521.292 273.904 Q518.121 277.515 512.565 277.515 Q506.986 277.515 503.815 273.904 Q500.667 270.27 500.667 263.904 Q500.667 257.515 503.815 253.904 Q506.986 250.293 512.565 250.293 Z" fill="#000000" fill-rule="nonzero" fill-opacity="1" /><path clip-path="url(#clip890)" d="M535.736 243.557 L535.736 250.918 L544.509 250.918 L544.509 254.228 L535.736 254.228 L535.736 268.302 Q535.736 271.473 536.593 272.376 Q537.472 273.279 540.134 273.279 L544.509 273.279 L544.509 276.844 L540.134 276.844 Q535.204 276.844 533.329 275.015 Q531.454 273.163 531.454 268.302 L531.454 254.228 L528.329 254.228 L528.329 250.918 L531.454 250.918 L531.454 243.557 L535.736 243.557 Z" fill="#000000" fill-rule="nonzero" fill-opacity="1" /><path clip-path="url(#clip890)" d="M561.894 263.811 Q556.731 263.811 554.741 264.992 Q552.75 266.173 552.75 269.02 Q552.75 271.288 554.232 272.631 Q555.736 273.95 558.306 273.95 Q561.847 273.95 563.977 271.45 Q566.13 268.927 566.13 264.761 L566.13 263.811 L561.894 263.811 M570.389 262.052 L570.389 276.844 L566.13 276.844 L566.13 272.909 Q564.671 275.27 562.495 276.404 Q560.319 277.515 557.171 277.515 Q553.19 277.515 550.829 275.293 Q548.491 273.048 548.491 269.298 Q548.491 264.923 551.407 262.7 Q554.347 260.478 560.157 260.478 L566.13 260.478 L566.13 260.061 Q566.13 257.122 564.185 255.524 Q562.264 253.904 558.769 253.904 Q556.546 253.904 554.44 254.437 Q552.333 254.969 550.389 256.034 L550.389 252.099 Q552.727 251.196 554.926 250.756 Q557.125 250.293 559.208 250.293 Q564.833 250.293 567.611 253.21 Q570.389 256.126 570.389 262.052 Z" fill="#000000" fill-rule="nonzero" fill-opacity="1" /><path clip-path="url(#clip890)" d="M591.176 250.918 L595.69 250.918 L603.791 272.677 L611.893 250.918 L616.407 250.918 L606.685 276.844 L600.898 276.844 L591.176 250.918 Z" fill="#000000" fill-rule="nonzero" fill-opacity="1" /><path clip-path="url(#clip890)" d="M644.463 262.816 L644.463 264.899 L624.879 264.899 Q625.157 269.298 627.518 271.612 Q629.902 273.904 634.138 273.904 Q636.592 273.904 638.884 273.302 Q641.199 272.7 643.467 271.497 L643.467 275.524 Q641.175 276.497 638.768 277.006 Q636.361 277.515 633.884 277.515 Q627.68 277.515 624.046 273.904 Q620.435 270.293 620.435 264.136 Q620.435 257.77 623.861 254.043 Q627.31 250.293 633.143 250.293 Q638.375 250.293 641.407 253.673 Q644.463 257.029 644.463 262.816 M640.203 261.566 Q640.157 258.071 638.236 255.987 Q636.338 253.904 633.189 253.904 Q629.625 253.904 627.472 255.918 Q625.342 257.932 625.018 261.589 L640.203 261.566 Z" fill="#000000" fill-rule="nonzero" fill-opacity="1" /><path clip-path="url(#clip890)" d="M666.476 254.899 Q665.759 254.483 664.902 254.298 Q664.069 254.089 663.05 254.089 Q659.439 254.089 657.495 256.45 Q655.574 258.788 655.574 263.186 L655.574 276.844 L651.291 276.844 L651.291 250.918 L655.574 250.918 L655.574 254.946 Q656.916 252.585 659.069 251.45 Q661.222 250.293 664.3 250.293 Q664.74 250.293 665.273 250.362 Q665.805 250.409 666.453 250.524 L666.476 254.899 Z" fill="#000000" fill-rule="nonzero" fill-opacity="1" /><path clip-path="url(#clip890)" d="M675.157 243.557 L675.157 250.918 L683.93 250.918 L683.93 254.228 L675.157 254.228 L675.157 268.302 Q675.157 271.473 676.013 272.376 Q676.893 273.279 679.555 273.279 L683.93 273.279 L683.93 276.844 L679.555 276.844 Q674.624 276.844 672.749 275.015 Q670.874 273.163 670.874 268.302 L670.874 254.228 L667.749 254.228 L667.749 250.918 L670.874 250.918 L670.874 243.557 L675.157 243.557 Z" fill="#000000" fill-rule="nonzero" fill-opacity="1" /><path clip-path="url(#clip890)" d="M689.532 250.918 L693.791 250.918 L693.791 276.844 L689.532 276.844 L689.532 250.918 M689.532 240.825 L693.791 240.825 L693.791 246.219 L689.532 246.219 L689.532 240.825 Z" fill="#000000" fill-rule="nonzero" fill-opacity="1" /><path clip-path="url(#clip890)" d="M721.36 251.913 L721.36 255.895 Q719.555 254.899 717.726 254.413 Q715.92 253.904 714.069 253.904 Q709.925 253.904 707.633 256.543 Q705.342 259.159 705.342 263.904 Q705.342 268.649 707.633 271.288 Q709.925 273.904 714.069 273.904 Q715.92 273.904 717.726 273.418 Q719.555 272.909 721.36 271.913 L721.36 275.848 Q719.578 276.682 717.657 277.098 Q715.758 277.515 713.606 277.515 Q707.749 277.515 704.3 273.835 Q700.851 270.154 700.851 263.904 Q700.851 257.561 704.323 253.927 Q707.819 250.293 713.883 250.293 Q715.851 250.293 717.726 250.71 Q719.601 251.103 721.36 251.913 Z" fill="#000000" fill-rule="nonzero" fill-opacity="1" /><path clip-path="url(#clip890)" d="M740.55 263.811 Q735.388 263.811 733.397 264.992 Q731.406 266.173 731.406 269.02 Q731.406 271.288 732.888 272.631 Q734.393 273.95 736.962 273.95 Q740.504 273.95 742.633 271.45 Q744.786 268.927 744.786 264.761 L744.786 263.811 L740.55 263.811 M749.045 262.052 L749.045 276.844 L744.786 276.844 L744.786 272.909 Q743.328 275.27 741.152 276.404 Q738.976 277.515 735.828 277.515 Q731.846 277.515 729.485 275.293 Q727.147 273.048 727.147 269.298 Q727.147 264.923 730.064 262.7 Q733.004 260.478 738.814 260.478 L744.786 260.478 L744.786 260.061 Q744.786 257.122 742.842 255.524 Q740.92 253.904 737.425 253.904 Q735.203 253.904 733.096 254.437 Q730.99 254.969 729.045 256.034 L729.045 252.099 Q731.383 251.196 733.582 250.756 Q735.781 250.293 737.865 250.293 Q743.49 250.293 746.268 253.21 Q749.045 256.126 749.045 262.052 Z" fill="#000000" fill-rule="nonzero" fill-opacity="1" /><path clip-path="url(#clip890)" d="M757.818 240.825 L762.078 240.825 L762.078 276.844 L757.818 276.844 L757.818 240.825 Z" fill="#000000" fill-rule="nonzero" fill-opacity="1" /><path clip-path="url(#clip890)" d="M805.482 258.809 Q805.482 260.12 804.663 260.87 Q803.843 261.596 802.906 261.596 Q802.016 261.596 801.547 261.08 Q801.079 260.565 801.079 259.909 Q801.079 259.019 801.735 258.246 Q802.391 257.473 803.374 257.309 Q802.414 256.7 800.985 256.7 Q800.048 256.7 799.229 257.192 Q798.432 257.684 797.94 258.317 Q797.472 258.949 797.05 259.863 Q796.652 260.753 796.488 261.291 Q796.348 261.807 796.23 262.369 L794.591 268.927 Q793.794 272.042 793.794 273.143 Q793.794 274.502 794.45 275.415 Q795.106 276.305 796.418 276.305 Q796.933 276.305 797.519 276.165 Q798.104 276.001 798.854 275.579 Q799.627 275.134 800.306 274.478 Q801.009 273.799 801.688 272.651 Q802.367 271.503 802.812 270.028 Q802.953 269.513 803.421 269.513 Q804.007 269.513 804.007 269.981 Q804.007 270.379 803.679 271.222 Q803.374 272.042 802.695 273.12 Q802.039 274.174 801.173 275.134 Q800.306 276.071 799.018 276.727 Q797.729 277.383 796.324 277.383 Q794.31 277.383 792.975 276.305 Q791.64 275.228 791.148 273.729 Q791.031 273.939 790.867 274.22 Q790.703 274.502 790.211 275.134 Q789.742 275.743 789.204 276.211 Q788.665 276.656 787.822 277.008 Q787.002 277.383 786.112 277.383 Q784.988 277.383 783.98 277.055 Q782.997 276.727 782.294 275.977 Q781.591 275.228 781.591 274.197 Q781.591 273.049 782.364 272.253 Q783.161 271.433 784.238 271.433 Q784.917 271.433 785.456 271.831 Q786.018 272.23 786.018 273.096 Q786.018 274.057 785.362 274.783 Q784.707 275.509 783.77 275.696 Q784.73 276.305 786.159 276.305 Q787.705 276.305 788.923 274.947 Q790.141 273.588 790.726 271.316 Q792.178 265.859 792.74 263.423 Q793.303 260.963 793.303 259.909 Q793.303 258.926 793.045 258.246 Q792.787 257.567 792.342 257.263 Q791.921 256.935 791.523 256.818 Q791.148 256.7 790.726 256.7 Q790.023 256.7 789.227 256.982 Q788.454 257.263 787.517 257.918 Q786.604 258.551 785.737 259.863 Q784.871 261.174 784.285 262.978 Q784.168 263.516 783.653 263.516 Q783.09 263.493 783.09 263.025 Q783.09 262.626 783.395 261.807 Q783.723 260.963 784.379 259.909 Q785.058 258.855 785.925 257.918 Q786.815 256.958 788.103 256.302 Q789.415 255.646 790.82 255.646 Q791.452 255.646 792.061 255.787 Q792.694 255.904 793.443 256.255 Q794.216 256.607 794.895 257.38 Q795.575 258.153 795.996 259.277 Q796.277 258.738 796.652 258.223 Q797.05 257.708 797.659 257.075 Q798.292 256.419 799.158 256.045 Q800.048 255.646 801.032 255.646 Q801.992 255.646 802.929 255.904 Q803.866 256.138 804.663 256.911 Q805.482 257.661 805.482 258.809 Z" fill="#000000" fill-rule="nonzero" fill-opacity="1" /><path clip-path="url(#clip890)" d="M822.063 269.559 Q822.11 268.974 823.023 268.974 L852.418 268.974 Q853.8 268.974 853.823 269.513 Q853.823 270.098 852.512 270.075 L823.351 270.075 Q822.063 270.098 822.063 269.559 M822.063 260.19 Q822.063 259.605 823.07 259.628 L852.371 259.628 Q853.8 259.628 853.823 260.19 Q853.823 260.729 852.606 260.729 L823.023 260.729 Q822.063 260.729 822.063 260.19 Z" fill="#000000" fill-rule="nonzero" fill-opacity="1" /><path clip-path="url(#clip890)" d="M872.323 270.379 Q872.323 268.95 873.143 268.271 Q873.962 267.592 875.016 267.592 Q876.117 267.592 876.89 268.318 Q877.687 269.021 877.687 270.262 Q877.687 271.597 876.75 272.347 Q875.836 273.096 874.525 272.909 Q875.672 274.829 877.78 275.696 Q879.912 276.563 881.879 276.563 Q883.94 276.563 885.603 274.783 Q887.29 273.003 887.29 268.646 Q887.29 264.945 885.838 262.814 Q884.409 260.682 881.575 260.682 L879.467 260.682 Q878.741 260.682 878.53 260.612 Q878.319 260.542 878.319 260.144 Q878.319 259.675 879.045 259.581 Q879.771 259.581 880.919 259.441 Q883.706 259.347 885.182 256.935 Q886.517 254.686 886.517 251.477 Q886.517 248.549 885.111 247.332 Q883.73 246.09 881.926 246.09 Q880.24 246.09 878.389 246.793 Q876.539 247.495 875.532 249.065 Q878.506 249.065 878.506 251.477 Q878.506 252.531 877.827 253.234 Q877.171 253.913 876.07 253.913 Q875.016 253.913 874.314 253.257 Q873.611 252.578 873.611 251.43 Q873.611 248.69 876.047 246.793 Q878.506 244.896 882.113 244.896 Q885.674 244.896 888.297 246.769 Q890.944 248.643 890.944 251.524 Q890.944 254.358 889.07 256.677 Q887.196 258.996 884.221 259.956 Q887.875 260.682 890.054 263.165 Q892.232 265.624 892.232 268.646 Q892.232 272.394 889.281 275.157 Q886.329 277.898 882.02 277.898 Q878.038 277.898 875.18 275.743 Q872.323 273.588 872.323 270.379 Z" fill="#000000" fill-rule="nonzero" fill-opacity="1" /><polyline clip-path="url(#clip890)" style="stroke:#3da44d; stroke-linecap:round; stroke-linejoin:round; stroke-width:4; stroke-opacity:1; fill:none" points="230.159,348.909 358.155,348.909 "/>
<path clip-path="url(#clip890)" d="M395.32 329.901 L388.978 347.1 L401.686 347.1 L395.32 329.901 M392.681 325.294 L397.982 325.294 L411.154 359.854 L406.292 359.854 L403.144 350.989 L387.566 350.989 L384.418 359.854 L379.487 359.854 L392.681 325.294 Z" fill="#000000" fill-rule="nonzero" fill-opacity="1" /><path clip-path="url(#clip890)" d="M432.542 334.693 L432.542 338.72 Q430.737 337.794 428.792 337.331 Q426.848 336.868 424.765 336.868 Q421.593 336.868 419.996 337.841 Q418.422 338.813 418.422 340.757 Q418.422 342.239 419.556 343.095 Q420.691 343.929 424.116 344.692 L425.575 345.017 Q430.112 345.989 432.01 347.771 Q433.931 349.53 433.931 352.702 Q433.931 356.313 431.061 358.419 Q428.214 360.526 423.214 360.526 Q421.13 360.526 418.862 360.109 Q416.617 359.716 414.117 358.905 L414.117 354.507 Q416.478 355.734 418.769 356.359 Q421.061 356.961 423.306 356.961 Q426.316 356.961 427.936 355.942 Q429.556 354.901 429.556 353.026 Q429.556 351.29 428.376 350.364 Q427.218 349.438 423.26 348.581 L421.779 348.234 Q417.82 347.401 416.061 345.688 Q414.302 343.952 414.302 340.942 Q414.302 337.285 416.894 335.294 Q419.487 333.304 424.255 333.304 Q426.616 333.304 428.7 333.651 Q430.783 333.998 432.542 334.693 Z" fill="#000000" fill-rule="nonzero" fill-opacity="1" /><path clip-path="url(#clip890)" d="M446.061 321.938 L450.667 321.938 L443.121 330.642 L439.579 330.642 L446.061 321.938 M440.714 333.929 L444.973 333.929 L444.973 359.854 L440.714 359.854 L440.714 333.929 M442.843 333.304 L442.843 333.304 Z" fill="#000000" fill-rule="nonzero" fill-opacity="1" /><path clip-path="url(#clip890)" d="M475.436 344.206 L475.436 359.854 L471.176 359.854 L471.176 344.345 Q471.176 340.665 469.741 338.836 Q468.306 337.007 465.436 337.007 Q461.987 337.007 459.996 339.206 Q458.005 341.405 458.005 345.202 L458.005 359.854 L453.723 359.854 L453.723 333.929 L458.005 333.929 L458.005 337.956 Q459.533 335.618 461.593 334.461 Q463.676 333.304 466.385 333.304 Q470.852 333.304 473.144 336.081 Q475.436 338.836 475.436 344.206 Z" fill="#000000" fill-rule="nonzero" fill-opacity="1" /><path clip-path="url(#clip890)" d="M488.144 326.568 L488.144 333.929 L496.917 333.929 L496.917 337.239 L488.144 337.239 L488.144 351.313 Q488.144 354.484 489 355.387 Q489.88 356.29 492.542 356.29 L496.917 356.29 L496.917 359.854 L492.542 359.854 Q487.611 359.854 485.737 358.026 Q483.862 356.174 483.862 351.313 L483.862 337.239 L480.737 337.239 L480.737 333.929 L483.862 333.929 L483.862 326.568 L488.144 326.568 Z" fill="#000000" fill-rule="nonzero" fill-opacity="1" /><path clip-path="url(#clip890)" d="M512.565 336.915 Q509.139 336.915 507.148 339.6 Q505.158 342.262 505.158 346.915 Q505.158 351.567 507.125 354.253 Q509.116 356.915 512.565 356.915 Q515.968 356.915 517.959 354.229 Q519.949 351.544 519.949 346.915 Q519.949 342.308 517.959 339.623 Q515.968 336.915 512.565 336.915 M512.565 333.304 Q518.121 333.304 521.292 336.915 Q524.463 340.526 524.463 346.915 Q524.463 353.28 521.292 356.915 Q518.121 360.526 512.565 360.526 Q506.986 360.526 503.815 356.915 Q500.667 353.28 500.667 346.915 Q500.667 340.526 503.815 336.915 Q506.986 333.304 512.565 333.304 Z" fill="#000000" fill-rule="nonzero" fill-opacity="1" /><path clip-path="url(#clip890)" d="M535.736 326.568 L535.736 333.929 L544.509 333.929 L544.509 337.239 L535.736 337.239 L535.736 351.313 Q535.736 354.484 536.593 355.387 Q537.472 356.29 540.134 356.29 L544.509 356.29 L544.509 359.854 L540.134 359.854 Q535.204 359.854 533.329 358.026 Q531.454 356.174 531.454 351.313 L531.454 337.239 L528.329 337.239 L528.329 333.929 L531.454 333.929 L531.454 326.568 L535.736 326.568 Z" fill="#000000" fill-rule="nonzero" fill-opacity="1" /><path clip-path="url(#clip890)" d="M561.894 346.822 Q556.731 346.822 554.741 348.003 Q552.75 349.183 552.75 352.03 Q552.75 354.299 554.232 355.641 Q555.736 356.961 558.306 356.961 Q561.847 356.961 563.977 354.461 Q566.13 351.938 566.13 347.771 L566.13 346.822 L561.894 346.822 M570.389 345.063 L570.389 359.854 L566.13 359.854 L566.13 355.919 Q564.671 358.28 562.495 359.415 Q560.319 360.526 557.171 360.526 Q553.19 360.526 550.829 358.303 Q548.491 356.058 548.491 352.308 Q548.491 347.933 551.407 345.711 Q554.347 343.489 560.157 343.489 L566.13 343.489 L566.13 343.072 Q566.13 340.132 564.185 338.535 Q562.264 336.915 558.769 336.915 Q556.546 336.915 554.44 337.447 Q552.333 337.98 550.389 339.044 L550.389 335.109 Q552.727 334.206 554.926 333.767 Q557.125 333.304 559.208 333.304 Q564.833 333.304 567.611 336.22 Q570.389 339.137 570.389 345.063 Z" fill="#000000" fill-rule="nonzero" fill-opacity="1" /><path clip-path="url(#clip890)" d="M615.782 344.206 L615.782 359.854 L611.523 359.854 L611.523 344.345 Q611.523 340.665 610.088 338.836 Q608.653 337.007 605.782 337.007 Q602.333 337.007 600.342 339.206 Q598.352 341.405 598.352 345.202 L598.352 359.854 L594.069 359.854 L594.069 323.836 L598.352 323.836 L598.352 337.956 Q599.879 335.618 601.94 334.461 Q604.023 333.304 606.731 333.304 Q611.199 333.304 613.49 336.081 Q615.782 338.836 615.782 344.206 Z" fill="#000000" fill-rule="nonzero" fill-opacity="1" /><path clip-path="url(#clip890)" d="M634.324 336.915 Q630.898 336.915 628.907 339.6 Q626.916 342.262 626.916 346.915 Q626.916 351.567 628.884 354.253 Q630.875 356.915 634.324 356.915 Q637.726 356.915 639.717 354.229 Q641.708 351.544 641.708 346.915 Q641.708 342.308 639.717 339.623 Q637.726 336.915 634.324 336.915 M634.324 333.304 Q639.879 333.304 643.05 336.915 Q646.222 340.526 646.222 346.915 Q646.222 353.28 643.05 356.915 Q639.879 360.526 634.324 360.526 Q628.745 360.526 625.574 356.915 Q622.426 353.28 622.426 346.915 Q622.426 340.526 625.574 336.915 Q628.745 333.304 634.324 333.304 Z" fill="#000000" fill-rule="nonzero" fill-opacity="1" /><path clip-path="url(#clip890)" d="M668.305 337.91 Q667.587 337.493 666.731 337.308 Q665.898 337.1 664.879 337.1 Q661.268 337.1 659.324 339.461 Q657.402 341.799 657.402 346.197 L657.402 359.854 L653.12 359.854 L653.12 333.929 L657.402 333.929 L657.402 337.956 Q658.745 335.595 660.898 334.461 Q663.05 333.304 666.129 333.304 Q666.569 333.304 667.101 333.373 Q667.634 333.419 668.282 333.535 L668.305 337.91 Z" fill="#000000" fill-rule="nonzero" fill-opacity="1" /><path clip-path="url(#clip890)" d="M672.773 333.929 L677.032 333.929 L677.032 359.854 L672.773 359.854 L672.773 333.929 M672.773 323.836 L677.032 323.836 L677.032 329.23 L672.773 329.23 L672.773 323.836 Z" fill="#000000" fill-rule="nonzero" fill-opacity="1" /><path clip-path="url(#clip890)" d="M684.092 333.929 L704.323 333.929 L704.323 337.817 L688.305 356.452 L704.323 356.452 L704.323 359.854 L683.513 359.854 L683.513 355.966 L699.532 337.331 L684.092 337.331 L684.092 333.929 Z" fill="#000000" fill-rule="nonzero" fill-opacity="1" /><path clip-path="url(#clip890)" d="M720.874 336.915 Q717.448 336.915 715.458 339.6 Q713.467 342.262 713.467 346.915 Q713.467 351.567 715.434 354.253 Q717.425 356.915 720.874 356.915 Q724.277 356.915 726.268 354.229 Q728.258 351.544 728.258 346.915 Q728.258 342.308 726.268 339.623 Q724.277 336.915 720.874 336.915 M720.874 333.304 Q726.43 333.304 729.601 336.915 Q732.772 340.526 732.772 346.915 Q732.772 353.28 729.601 356.915 Q726.43 360.526 720.874 360.526 Q715.295 360.526 712.124 356.915 Q708.976 353.28 708.976 346.915 Q708.976 340.526 712.124 336.915 Q715.295 333.304 720.874 333.304 Z" fill="#000000" fill-rule="nonzero" fill-opacity="1" /><path clip-path="url(#clip890)" d="M761.383 344.206 L761.383 359.854 L757.124 359.854 L757.124 344.345 Q757.124 340.665 755.689 338.836 Q754.254 337.007 751.383 337.007 Q747.934 337.007 745.943 339.206 Q743.953 341.405 743.953 345.202 L743.953 359.854 L739.67 359.854 L739.67 333.929 L743.953 333.929 L743.953 337.956 Q745.48 335.618 747.541 334.461 Q749.624 333.304 752.332 333.304 Q756.8 333.304 759.092 336.081 Q761.383 338.836 761.383 344.206 Z" fill="#000000" fill-rule="nonzero" fill-opacity="1" /><path clip-path="url(#clip890)" d="M774.091 326.568 L774.091 333.929 L782.865 333.929 L782.865 337.239 L774.091 337.239 L774.091 351.313 Q774.091 354.484 774.948 355.387 Q775.828 356.29 778.49 356.29 L782.865 356.29 L782.865 359.854 L778.49 359.854 Q773.559 359.854 771.684 358.026 Q769.809 356.174 769.809 351.313 L769.809 337.239 L766.684 337.239 L766.684 333.929 L769.809 333.929 L769.809 326.568 L774.091 326.568 Z" fill="#000000" fill-rule="nonzero" fill-opacity="1" /><path clip-path="url(#clip890)" d="M800.249 346.822 Q795.087 346.822 793.096 348.003 Q791.105 349.183 791.105 352.03 Q791.105 354.299 792.587 355.641 Q794.091 356.961 796.661 356.961 Q800.202 356.961 802.332 354.461 Q804.485 351.938 804.485 347.771 L804.485 346.822 L800.249 346.822 M808.744 345.063 L808.744 359.854 L804.485 359.854 L804.485 355.919 Q803.026 358.28 800.851 359.415 Q798.675 360.526 795.527 360.526 Q791.545 360.526 789.184 358.303 Q786.846 356.058 786.846 352.308 Q786.846 347.933 789.763 345.711 Q792.702 343.489 798.513 343.489 L804.485 343.489 L804.485 343.072 Q804.485 340.132 802.54 338.535 Q800.619 336.915 797.124 336.915 Q794.902 336.915 792.795 337.447 Q790.689 337.98 788.744 339.044 L788.744 335.109 Q791.082 334.206 793.281 333.767 Q795.48 333.304 797.564 333.304 Q803.189 333.304 805.966 336.22 Q808.744 339.137 808.744 345.063 Z" fill="#000000" fill-rule="nonzero" fill-opacity="1" /><path clip-path="url(#clip890)" d="M817.517 323.836 L821.776 323.836 L821.776 359.854 L817.517 359.854 L817.517 323.836 Z" fill="#000000" fill-rule="nonzero" fill-opacity="1" /><path clip-path="url(#clip890)" d="M863.424 340.484 Q863.424 340.812 863.214 341.585 L858.623 359.901 Q857.616 363.977 854.336 366.834 Q851.081 369.692 847.38 369.692 Q845.155 369.692 843.726 368.497 Q842.297 367.326 842.297 365.523 Q842.297 363.93 843.141 363.157 Q843.984 362.407 844.991 362.407 Q845.319 362.407 845.67 362.501 Q846.021 362.595 846.396 362.993 Q846.771 363.391 846.771 364.07 Q846.771 365.171 845.811 366.038 Q845.342 366.436 844.897 366.53 Q844.476 366.624 843.75 366.624 Q844.031 367.279 844.546 367.724 Q845.061 368.169 845.647 368.333 Q846.232 368.521 846.607 368.568 Q847.005 368.638 847.38 368.638 Q850.378 368.638 852.673 365.616 Q853.353 364.703 853.845 363.789 Q854.36 362.899 854.735 361.798 Q855.109 360.721 855.273 360.135 Q855.461 359.55 855.789 358.215 Q853.61 360.393 850.94 360.393 Q849.816 360.393 848.809 360.089 Q847.825 359.784 846.958 359.152 Q846.092 358.496 845.576 357.348 Q845.085 356.201 845.085 354.678 Q845.085 353.062 845.717 350.86 Q846.349 348.658 847.872 344.606 Q848.692 342.334 848.692 341.234 Q848.692 340.695 848.575 340.367 Q848.457 340.016 848.223 339.898 Q847.989 339.758 847.848 339.735 Q847.731 339.711 847.497 339.711 Q846.115 339.711 844.827 341.116 Q843.539 342.522 842.649 345.66 Q842.461 346.246 842.344 346.387 Q842.227 346.527 841.876 346.527 Q841.29 346.504 841.29 346.035 Q841.29 345.848 841.501 345.122 Q841.712 344.372 842.204 343.271 Q842.719 342.147 843.422 341.14 Q844.124 340.109 845.225 339.383 Q846.349 338.657 847.638 338.657 Q849.394 338.657 850.472 339.805 Q851.573 340.929 851.573 342.592 Q851.573 343.271 851.385 343.88 Q851.221 344.466 850.612 346.035 Q848.153 352.359 848.153 355.451 Q848.153 356.201 848.27 356.833 Q848.411 357.442 848.715 358.051 Q849.02 358.636 849.629 358.988 Q850.261 359.316 851.128 359.316 Q852.228 359.316 853.259 358.8 Q854.313 358.262 854.969 357.536 Q855.648 356.809 856.046 356.201 Q856.468 355.568 856.562 355.24 L858.716 346.621 L859.677 342.779 Q860.122 340.695 860.333 340.18 Q860.614 339.688 861.106 339.43 Q861.597 339.172 862.019 339.172 Q862.605 339.172 863.003 339.524 Q863.424 339.875 863.424 340.484 Z" fill="#000000" fill-rule="nonzero" fill-opacity="1" /><path clip-path="url(#clip890)" d="M877.864 352.57 Q877.911 351.984 878.825 351.984 L908.22 351.984 Q909.602 351.984 909.625 352.523 Q909.625 353.109 908.314 353.085 L879.153 353.085 Q877.864 353.109 877.864 352.57 M877.864 343.201 Q877.864 342.615 878.872 342.639 L908.173 342.639 Q909.602 342.639 909.625 343.201 Q909.625 343.74 908.407 343.74 L878.825 343.74 Q877.864 343.74 877.864 343.201 Z" fill="#000000" fill-rule="nonzero" fill-opacity="1" /><path clip-path="url(#clip890)" d="M928.125 332.474 L928.125 330.975 Q933.886 330.975 936.861 327.906 Q937.681 327.906 937.821 328.094 Q937.962 328.281 937.962 329.148 L937.962 356.06 Q937.962 357.489 938.665 357.934 Q939.367 358.379 942.436 358.379 L943.958 358.379 L943.958 359.854 Q942.272 359.714 936.182 359.714 Q930.092 359.714 928.429 359.854 L928.429 358.379 L929.952 358.379 Q932.973 358.379 933.699 357.957 Q934.425 357.512 934.425 356.06 L934.425 331.209 Q931.919 332.474 928.125 332.474 Z" fill="#000000" fill-rule="nonzero" fill-opacity="1" /><polyline clip-path="url(#clip890)" style="stroke:#c271d2; stroke-linecap:round; stroke-linejoin:round; stroke-width:4; stroke-opacity:1; fill:none" points="230.159,436.272 358.155,436.272 "/>
<path clip-path="url(#clip890)" d="M395.32 418.721 L388.978 435.92 L401.686 435.92 L395.32 418.721 M392.681 414.114 L397.982 414.114 L411.154 448.674 L406.292 448.674 L403.144 439.809 L387.566 439.809 L384.418 448.674 L379.487 448.674 L392.681 414.114 Z" fill="#000000" fill-rule="nonzero" fill-opacity="1" /><path clip-path="url(#clip890)" d="M432.542 423.513 L432.542 427.54 Q430.737 426.614 428.792 426.151 Q426.848 425.688 424.765 425.688 Q421.593 425.688 419.996 426.661 Q418.422 427.633 418.422 429.577 Q418.422 431.059 419.556 431.915 Q420.691 432.749 424.116 433.512 L425.575 433.837 Q430.112 434.809 432.01 436.591 Q433.931 438.35 433.931 441.522 Q433.931 445.133 431.061 447.239 Q428.214 449.346 423.214 449.346 Q421.13 449.346 418.862 448.929 Q416.617 448.536 414.117 447.725 L414.117 443.327 Q416.478 444.554 418.769 445.179 Q421.061 445.781 423.306 445.781 Q426.316 445.781 427.936 444.762 Q429.556 443.721 429.556 441.846 Q429.556 440.11 428.376 439.184 Q427.218 438.258 423.26 437.401 L421.779 437.054 Q417.82 436.221 416.061 434.508 Q414.302 432.772 414.302 429.762 Q414.302 426.105 416.894 424.114 Q419.487 422.124 424.255 422.124 Q426.616 422.124 428.7 422.471 Q430.783 422.818 432.542 423.513 Z" fill="#000000" fill-rule="nonzero" fill-opacity="1" /><path clip-path="url(#clip890)" d="M446.061 410.758 L450.667 410.758 L443.121 419.462 L439.579 419.462 L446.061 410.758 M440.714 422.749 L444.973 422.749 L444.973 448.674 L440.714 448.674 L440.714 422.749 M442.843 422.124 L442.843 422.124 Z" fill="#000000" fill-rule="nonzero" fill-opacity="1" /><path clip-path="url(#clip890)" d="M475.436 433.026 L475.436 448.674 L471.176 448.674 L471.176 433.165 Q471.176 429.485 469.741 427.656 Q468.306 425.827 465.436 425.827 Q461.987 425.827 459.996 428.026 Q458.005 430.225 458.005 434.022 L458.005 448.674 L453.723 448.674 L453.723 422.749 L458.005 422.749 L458.005 426.776 Q459.533 424.438 461.593 423.281 Q463.676 422.124 466.385 422.124 Q470.852 422.124 473.144 424.901 Q475.436 427.656 475.436 433.026 Z" fill="#000000" fill-rule="nonzero" fill-opacity="1" /><path clip-path="url(#clip890)" d="M488.144 415.388 L488.144 422.749 L496.917 422.749 L496.917 426.059 L488.144 426.059 L488.144 440.133 Q488.144 443.304 489 444.207 Q489.88 445.11 492.542 445.11 L496.917 445.11 L496.917 448.674 L492.542 448.674 Q487.611 448.674 485.737 446.846 Q483.862 444.994 483.862 440.133 L483.862 426.059 L480.737 426.059 L480.737 422.749 L483.862 422.749 L483.862 415.388 L488.144 415.388 Z" fill="#000000" fill-rule="nonzero" fill-opacity="1" /><path clip-path="url(#clip890)" d="M512.565 425.735 Q509.139 425.735 507.148 428.42 Q505.158 431.082 505.158 435.735 Q505.158 440.387 507.125 443.073 Q509.116 445.735 512.565 445.735 Q515.968 445.735 517.959 443.049 Q519.949 440.364 519.949 435.735 Q519.949 431.128 517.959 428.443 Q515.968 425.735 512.565 425.735 M512.565 422.124 Q518.121 422.124 521.292 425.735 Q524.463 429.346 524.463 435.735 Q524.463 442.1 521.292 445.735 Q518.121 449.346 512.565 449.346 Q506.986 449.346 503.815 445.735 Q500.667 442.1 500.667 435.735 Q500.667 429.346 503.815 425.735 Q506.986 422.124 512.565 422.124 Z" fill="#000000" fill-rule="nonzero" fill-opacity="1" /><path clip-path="url(#clip890)" d="M535.736 415.388 L535.736 422.749 L544.509 422.749 L544.509 426.059 L535.736 426.059 L535.736 440.133 Q535.736 443.304 536.593 444.207 Q537.472 445.11 540.134 445.11 L544.509 445.11 L544.509 448.674 L540.134 448.674 Q535.204 448.674 533.329 446.846 Q531.454 444.994 531.454 440.133 L531.454 426.059 L528.329 426.059 L528.329 422.749 L531.454 422.749 L531.454 415.388 L535.736 415.388 Z" fill="#000000" fill-rule="nonzero" fill-opacity="1" /><path clip-path="url(#clip890)" d="M561.894 435.642 Q556.731 435.642 554.741 436.823 Q552.75 438.003 552.75 440.85 Q552.75 443.119 554.232 444.461 Q555.736 445.781 558.306 445.781 Q561.847 445.781 563.977 443.281 Q566.13 440.758 566.13 436.591 L566.13 435.642 L561.894 435.642 M570.389 433.883 L570.389 448.674 L566.13 448.674 L566.13 444.739 Q564.671 447.1 562.495 448.235 Q560.319 449.346 557.171 449.346 Q553.19 449.346 550.829 447.123 Q548.491 444.878 548.491 441.128 Q548.491 436.753 551.407 434.531 Q554.347 432.309 560.157 432.309 L566.13 432.309 L566.13 431.892 Q566.13 428.952 564.185 427.355 Q562.264 425.735 558.769 425.735 Q556.546 425.735 554.44 426.267 Q552.333 426.8 550.389 427.864 L550.389 423.929 Q552.727 423.026 554.926 422.587 Q557.125 422.124 559.208 422.124 Q564.833 422.124 567.611 425.04 Q570.389 427.957 570.389 433.883 Z" fill="#000000" fill-rule="nonzero" fill-opacity="1" /><path clip-path="url(#clip890)" d="M604.278 425.735 Q600.852 425.735 598.861 428.42 Q596.87 431.082 596.87 435.735 Q596.87 440.387 598.838 443.073 Q600.828 445.735 604.278 445.735 Q607.68 445.735 609.671 443.049 Q611.662 440.364 611.662 435.735 Q611.662 431.128 609.671 428.443 Q607.68 425.735 604.278 425.735 M604.278 422.124 Q609.833 422.124 613.004 425.735 Q616.176 429.346 616.176 435.735 Q616.176 442.1 613.004 445.735 Q609.833 449.346 604.278 449.346 Q598.699 449.346 595.528 445.735 Q592.379 442.1 592.379 435.735 Q592.379 429.346 595.528 425.735 Q598.699 422.124 604.278 422.124 Z" fill="#000000" fill-rule="nonzero" fill-opacity="1" /><path clip-path="url(#clip890)" d="M641.847 435.735 Q641.847 431.036 639.902 428.374 Q637.981 425.688 634.601 425.688 Q631.222 425.688 629.277 428.374 Q627.356 431.036 627.356 435.735 Q627.356 440.434 629.277 443.119 Q631.222 445.781 634.601 445.781 Q637.981 445.781 639.902 443.119 Q641.847 440.434 641.847 435.735 M627.356 426.684 Q628.699 424.369 630.736 423.258 Q632.796 422.124 635.643 422.124 Q640.365 422.124 643.305 425.874 Q646.268 429.624 646.268 435.735 Q646.268 441.846 643.305 445.596 Q640.365 449.346 635.643 449.346 Q632.796 449.346 630.736 448.235 Q628.699 447.1 627.356 444.786 L627.356 448.674 L623.074 448.674 L623.074 412.656 L627.356 412.656 L627.356 426.684 Z" fill="#000000" fill-rule="nonzero" fill-opacity="1" /><path clip-path="url(#clip890)" d="M653.328 412.656 L657.587 412.656 L657.587 448.674 L653.328 448.674 L653.328 412.656 Z" fill="#000000" fill-rule="nonzero" fill-opacity="1" /><path clip-path="url(#clip890)" d="M666.499 422.749 L670.759 422.749 L670.759 448.674 L666.499 448.674 L666.499 422.749 M666.499 412.656 L670.759 412.656 L670.759 418.05 L666.499 418.05 L666.499 412.656 Z" fill="#000000" fill-rule="nonzero" fill-opacity="1" /><path clip-path="url(#clip890)" d="M698.328 423.744 L698.328 427.725 Q696.522 426.73 694.694 426.244 Q692.888 425.735 691.036 425.735 Q686.893 425.735 684.601 428.374 Q682.31 430.989 682.31 435.735 Q682.31 440.48 684.601 443.119 Q686.893 445.735 691.036 445.735 Q692.888 445.735 694.694 445.249 Q696.522 444.739 698.328 443.744 L698.328 447.679 Q696.546 448.512 694.624 448.929 Q692.726 449.346 690.573 449.346 Q684.717 449.346 681.268 445.665 Q677.819 441.985 677.819 435.735 Q677.819 429.392 681.291 425.758 Q684.786 422.124 690.851 422.124 Q692.819 422.124 694.694 422.54 Q696.569 422.934 698.328 423.744 Z" fill="#000000" fill-rule="nonzero" fill-opacity="1" /><path clip-path="url(#clip890)" d="M705.296 438.443 L705.296 422.749 L709.555 422.749 L709.555 438.281 Q709.555 441.961 710.99 443.813 Q712.425 445.642 715.295 445.642 Q718.745 445.642 720.735 443.443 Q722.749 441.244 722.749 437.448 L722.749 422.749 L727.008 422.749 L727.008 448.674 L722.749 448.674 L722.749 444.693 Q721.198 447.054 719.138 448.211 Q717.101 449.346 714.393 449.346 Q709.925 449.346 707.61 446.568 Q705.296 443.79 705.296 438.443 M716.013 422.124 L716.013 422.124 Z" fill="#000000" fill-rule="nonzero" fill-opacity="1" /><path clip-path="url(#clip890)" d="M747.564 435.642 Q742.402 435.642 740.411 436.823 Q738.42 438.003 738.42 440.85 Q738.42 443.119 739.902 444.461 Q741.406 445.781 743.976 445.781 Q747.518 445.781 749.647 443.281 Q751.8 440.758 751.8 436.591 L751.8 435.642 L747.564 435.642 M756.059 433.883 L756.059 448.674 L751.8 448.674 L751.8 444.739 Q750.342 447.1 748.166 448.235 Q745.99 449.346 742.842 449.346 Q738.86 449.346 736.499 447.123 Q734.161 444.878 734.161 441.128 Q734.161 436.753 737.078 434.531 Q740.018 432.309 745.828 432.309 L751.8 432.309 L751.8 431.892 Q751.8 428.952 749.855 427.355 Q747.934 425.735 744.439 425.735 Q742.217 425.735 740.11 426.267 Q738.004 426.8 736.059 427.864 L736.059 423.929 Q738.397 423.026 740.596 422.587 Q742.795 422.124 744.879 422.124 Q750.504 422.124 753.281 425.04 Q756.059 427.957 756.059 433.883 Z" fill="#000000" fill-rule="nonzero" fill-opacity="1" /><path clip-path="url(#clip890)" d="M797.568 429.304 Q797.568 429.632 797.357 430.405 L792.767 448.721 Q791.759 452.797 788.48 455.654 Q785.225 458.512 781.524 458.512 Q779.299 458.512 777.87 457.317 Q776.441 456.146 776.441 454.343 Q776.441 452.75 777.284 451.977 Q778.128 451.227 779.135 451.227 Q779.463 451.227 779.814 451.321 Q780.165 451.415 780.54 451.813 Q780.915 452.211 780.915 452.89 Q780.915 453.991 779.955 454.858 Q779.486 455.256 779.041 455.35 Q778.619 455.444 777.893 455.444 Q778.174 456.099 778.69 456.544 Q779.205 456.989 779.791 457.153 Q780.376 457.341 780.751 457.388 Q781.149 457.458 781.524 457.458 Q784.522 457.458 786.817 454.436 Q787.497 453.523 787.988 452.609 Q788.504 451.719 788.879 450.618 Q789.253 449.541 789.417 448.955 Q789.605 448.37 789.933 447.035 Q787.754 449.213 785.084 449.213 Q783.96 449.213 782.953 448.909 Q781.969 448.604 781.102 447.972 Q780.236 447.316 779.72 446.168 Q779.228 445.021 779.228 443.498 Q779.228 441.882 779.861 439.68 Q780.493 437.478 782.016 433.426 Q782.836 431.154 782.836 430.054 Q782.836 429.515 782.718 429.187 Q782.601 428.836 782.367 428.718 Q782.133 428.578 781.992 428.555 Q781.875 428.531 781.641 428.531 Q780.259 428.531 778.971 429.936 Q777.683 431.342 776.793 434.48 Q776.605 435.066 776.488 435.207 Q776.371 435.347 776.02 435.347 Q775.434 435.324 775.434 434.855 Q775.434 434.668 775.645 433.942 Q775.856 433.192 776.348 432.091 Q776.863 430.967 777.565 429.96 Q778.268 428.929 779.369 428.203 Q780.493 427.477 781.782 427.477 Q783.538 427.477 784.616 428.625 Q785.716 429.749 785.716 431.412 Q785.716 432.091 785.529 432.7 Q785.365 433.286 784.756 434.855 Q782.297 441.179 782.297 444.271 Q782.297 445.021 782.414 445.653 Q782.554 446.262 782.859 446.871 Q783.163 447.456 783.772 447.808 Q784.405 448.136 785.271 448.136 Q786.372 448.136 787.403 447.62 Q788.457 447.082 789.113 446.356 Q789.792 445.629 790.19 445.021 Q790.612 444.388 790.705 444.06 L792.86 435.441 L793.821 431.599 Q794.266 429.515 794.476 429 Q794.758 428.508 795.249 428.25 Q795.741 427.992 796.163 427.992 Q796.748 427.992 797.147 428.344 Q797.568 428.695 797.568 429.304 Z" fill="#000000" fill-rule="nonzero" fill-opacity="1" /><path clip-path="url(#clip890)" d="M812.008 441.39 Q812.055 440.804 812.969 440.804 L842.364 440.804 Q843.746 440.804 843.769 441.343 Q843.769 441.929 842.457 441.905 L813.297 441.905 Q812.008 441.929 812.008 441.39 M812.008 432.021 Q812.008 431.435 813.015 431.459 L842.317 431.459 Q843.746 431.459 843.769 432.021 Q843.769 432.56 842.551 432.56 L812.969 432.56 Q812.008 432.56 812.008 432.021 Z" fill="#000000" fill-rule="nonzero" fill-opacity="1" /><path clip-path="url(#clip890)" d="M872.508 417.765 Q872.508 416.336 873.328 415.657 Q874.148 414.978 875.202 414.978 Q876.303 414.978 877.076 415.704 Q877.872 416.406 877.872 417.648 Q877.872 418.983 876.935 419.732 Q876.022 420.482 874.71 420.294 Q875.858 422.215 877.966 423.082 Q880.097 423.948 882.065 423.948 Q884.126 423.948 885.789 422.168 Q887.475 420.388 887.475 416.032 Q887.475 412.331 886.023 410.199 Q884.594 408.068 881.76 408.068 L879.652 408.068 Q878.926 408.068 878.715 407.998 Q878.505 407.927 878.505 407.529 Q878.505 407.061 879.231 406.967 Q879.957 406.967 881.104 406.827 Q883.892 406.733 885.367 404.32 Q886.702 402.072 886.702 398.863 Q886.702 395.935 885.297 394.717 Q883.915 393.476 882.112 393.476 Q880.425 393.476 878.575 394.178 Q876.724 394.881 875.717 396.45 Q878.692 396.45 878.692 398.863 Q878.692 399.917 878.013 400.62 Q877.357 401.299 876.256 401.299 Q875.202 401.299 874.499 400.643 Q873.797 399.964 873.797 398.816 Q873.797 396.076 876.233 394.178 Q878.692 392.281 882.299 392.281 Q885.859 392.281 888.483 394.155 Q891.129 396.029 891.129 398.91 Q891.129 401.744 889.255 404.063 Q887.382 406.382 884.407 407.342 Q888.061 408.068 890.239 410.551 Q892.418 413.01 892.418 416.032 Q892.418 419.779 889.466 422.543 Q886.515 425.283 882.205 425.283 Q878.224 425.283 875.366 423.129 Q872.508 420.974 872.508 417.765 Z" fill="#000000" fill-rule="nonzero" fill-opacity="1" /><path clip-path="url(#clip890)" d="M872.508 438.074 L897.332 438.074 L897.332 435.514 L872.508 435.514  Z" fill="#000000" fill-rule="evenodd" fill-opacity="1"/>
<path clip-path="url(#clip890)" d="M872.508 479.953 Q872.508 479.087 872.579 478.829 Q872.672 478.571 873.047 478.173 L882.252 467.914 Q887.288 462.246 887.288 457.304 Q887.288 454.095 885.602 451.799 Q883.939 449.504 880.87 449.504 Q878.762 449.504 876.982 450.792 Q875.202 452.08 874.382 454.376 Q874.523 454.329 875.015 454.329 Q876.209 454.329 876.865 455.079 Q877.544 455.828 877.544 456.835 Q877.544 458.123 876.701 458.756 Q875.881 459.365 875.061 459.365 Q874.734 459.365 874.289 459.295 Q873.867 459.224 873.188 458.568 Q872.508 457.889 872.508 456.695 Q872.508 453.345 875.038 450.675 Q877.591 448.005 881.479 448.005 Q885.883 448.005 888.764 450.628 Q891.668 453.228 891.668 457.304 Q891.668 458.732 891.223 460.044 Q890.801 461.332 890.216 462.339 Q889.654 463.347 888.108 464.963 Q886.562 466.579 885.321 467.727 Q884.079 468.874 881.292 471.31 L876.209 476.252 L884.852 476.252 Q889.068 476.252 889.396 475.878 Q889.864 475.198 890.45 471.615 L891.668 471.615 L890.309 479.953 L872.508 479.953 Z" fill="#000000" fill-rule="nonzero" fill-opacity="1" /><path clip-path="url(#clip890)" d="M916.861 437.268 Q915.76 437.268 915.76 436.682 Q915.76 436.097 916.908 436.097 Q917.049 436.097 917.283 436.12 Q917.541 436.143 917.587 436.143 L931.102 436.143 L931.102 422.582 Q931.102 422.535 931.079 422.324 Q931.055 422.09 931.055 421.949 Q931.055 420.802 931.617 420.802 Q932.203 420.802 932.203 421.949 L932.203 436.143 L945.741 436.143 Q945.788 436.143 946.022 436.12 Q946.256 436.097 946.397 436.097 Q947.498 436.097 947.498 436.682 Q947.521 437.268 946.35 437.268 Q946.21 437.268 945.999 437.244 Q945.788 437.221 945.741 437.221 L932.203 437.221 L932.203 451.462 Q932.203 452.563 931.617 452.563 Q931.055 452.563 931.055 451.415 Q931.055 451.274 931.079 451.04 Q931.102 450.829 931.102 450.782 L931.102 437.221 L917.587 437.221 Q917.541 437.221 917.259 437.244 Q917.002 437.268 916.861 437.268 Z" fill="#000000" fill-rule="nonzero" fill-opacity="1" /><path clip-path="url(#clip890)" d="M978.021 397.894 L978.021 396.395 Q983.783 396.395 986.757 393.326 Q987.577 393.326 987.717 393.514 Q987.858 393.701 987.858 394.568 L987.858 421.48 Q987.858 422.909 988.561 423.354 Q989.263 423.799 992.332 423.799 L993.854 423.799 L993.854 425.274 Q992.168 425.134 986.078 425.134 Q979.988 425.134 978.325 425.274 L978.325 423.799 L979.848 423.799 Q982.869 423.799 983.595 423.377 Q984.321 422.932 984.321 421.48 L984.321 396.629 Q981.815 397.894 978.021 397.894 Z" fill="#000000" fill-rule="nonzero" fill-opacity="1" /><path clip-path="url(#clip890)" d="M976.261 438.074 L1000.34 438.074 L1000.34 435.514 L976.261 435.514  Z" fill="#000000" fill-rule="evenodd" fill-opacity="1"/>
<path clip-path="url(#clip890)" d="M976.261 479.953 Q976.261 479.087 976.331 478.829 Q976.425 478.571 976.799 478.173 L986.004 467.914 Q991.04 462.246 991.04 457.304 Q991.04 454.095 989.354 451.799 Q987.691 449.504 984.622 449.504 Q982.514 449.504 980.734 450.792 Q978.954 452.08 978.134 454.376 Q978.275 454.329 978.767 454.329 Q979.961 454.329 980.617 455.079 Q981.296 455.828 981.296 456.835 Q981.296 458.123 980.453 458.756 Q979.633 459.365 978.814 459.365 Q978.486 459.365 978.041 459.295 Q977.619 459.224 976.94 458.568 Q976.261 457.889 976.261 456.695 Q976.261 453.345 978.79 450.675 Q981.343 448.005 985.231 448.005 Q989.635 448.005 992.516 450.628 Q995.42 453.228 995.42 457.304 Q995.42 458.732 994.975 460.044 Q994.554 461.332 993.968 462.339 Q993.406 463.347 991.86 464.963 Q990.314 466.579 989.073 467.727 Q987.831 468.874 985.044 471.31 L979.961 476.252 L988.604 476.252 Q992.82 476.252 993.148 475.878 Q993.617 475.198 994.202 471.615 L995.42 471.615 L994.062 479.953 L976.261 479.953 Z" fill="#000000" fill-rule="nonzero" fill-opacity="1" /><path clip-path="url(#clip890)" d="M1029.35 430.639 Q1029.35 431.951 1028.53 432.7 Q1027.71 433.426 1026.78 433.426 Q1025.89 433.426 1025.42 432.911 Q1024.95 432.396 1024.95 431.74 Q1024.95 430.85 1025.61 430.077 Q1026.26 429.304 1027.24 429.14 Q1026.28 428.531 1024.86 428.531 Q1023.92 428.531 1023.1 429.023 Q1022.3 429.515 1021.81 430.147 Q1021.34 430.78 1020.92 431.693 Q1020.52 432.583 1020.36 433.122 Q1020.22 433.637 1020.1 434.199 L1018.46 440.758 Q1017.66 443.873 1017.66 444.974 Q1017.66 446.332 1018.32 447.246 Q1018.98 448.136 1020.29 448.136 Q1020.8 448.136 1021.39 447.995 Q1021.97 447.831 1022.72 447.41 Q1023.5 446.965 1024.18 446.309 Q1024.88 445.629 1025.56 444.482 Q1026.24 443.334 1026.68 441.858 Q1026.82 441.343 1027.29 441.343 Q1027.88 441.343 1027.88 441.812 Q1027.88 442.21 1027.55 443.053 Q1027.24 443.873 1026.57 444.95 Q1025.91 446.004 1025.04 446.965 Q1024.18 447.901 1022.89 448.557 Q1021.6 449.213 1020.19 449.213 Q1018.18 449.213 1016.85 448.136 Q1015.51 447.058 1015.02 445.559 Q1014.9 445.77 1014.74 446.051 Q1014.57 446.332 1014.08 446.965 Q1013.61 447.574 1013.07 448.042 Q1012.54 448.487 1011.69 448.838 Q1010.87 449.213 1009.98 449.213 Q1008.86 449.213 1007.85 448.885 Q1006.87 448.557 1006.16 447.808 Q1005.46 447.058 1005.46 446.028 Q1005.46 444.88 1006.23 444.084 Q1007.03 443.264 1008.11 443.264 Q1008.79 443.264 1009.33 443.662 Q1009.89 444.06 1009.89 444.927 Q1009.89 445.887 1009.23 446.613 Q1008.58 447.339 1007.64 447.527 Q1008.6 448.136 1010.03 448.136 Q1011.58 448.136 1012.79 446.777 Q1014.01 445.419 1014.6 443.147 Q1016.05 437.689 1016.61 435.253 Q1017.17 432.794 1017.17 431.74 Q1017.17 430.756 1016.92 430.077 Q1016.66 429.398 1016.21 429.093 Q1015.79 428.765 1015.39 428.648 Q1015.02 428.531 1014.6 428.531 Q1013.89 428.531 1013.1 428.812 Q1012.32 429.093 1011.39 429.749 Q1010.47 430.381 1009.61 431.693 Q1008.74 433.005 1008.16 434.808 Q1008.04 435.347 1007.52 435.347 Q1006.96 435.324 1006.96 434.855 Q1006.96 434.457 1007.27 433.637 Q1007.59 432.794 1008.25 431.74 Q1008.93 430.686 1009.8 429.749 Q1010.69 428.789 1011.97 428.133 Q1013.28 427.477 1014.69 427.477 Q1015.32 427.477 1015.93 427.618 Q1016.56 427.735 1017.31 428.086 Q1018.09 428.437 1018.77 429.21 Q1019.45 429.983 1019.87 431.108 Q1020.15 430.569 1020.52 430.054 Q1020.92 429.538 1021.53 428.906 Q1022.16 428.25 1023.03 427.875 Q1023.92 427.477 1024.9 427.477 Q1025.86 427.477 1026.8 427.735 Q1027.74 427.969 1028.53 428.742 Q1029.35 429.491 1029.35 430.639 Z" fill="#000000" fill-rule="nonzero" fill-opacity="1" /></svg>
