<?xml version="1.0" encoding="utf-8"?>
<svg xmlns="http://www.w3.org/2000/svg" xmlns:xlink="http://www.w3.org/1999/xlink" width="528" height="336" viewBox="0 0 2112 1344">
<defs>
  <clipPath id="clip470">
    <rect x="0" y="0" width="2112" height="1344"/>
  </clipPath>
</defs>
<path clip-path="url(#clip470)" d="M0 1344 L2112 1344 L2112 0 L0 0  Z" fill="#ffffff" fill-rule="evenodd" fill-opacity="1"/>
<defs>
  <clipPath id="clip471">
    <rect x="422" y="0" width="1479" height="1344"/>
  </clipPath>
</defs>
<path clip-path="url(#clip470)" d="M153.394 1234.58 L2064.76 1234.58 L2064.76 47.2441 L153.394 47.2441  Z" fill="#ffffff" fill-rule="evenodd" fill-opacity="1"/>
<defs>
  <clipPath id="clip472">
    <rect x="153" y="47" width="1912" height="1188"/>
  </clipPath>
</defs>
<polyline clip-path="url(#clip472)" style="stroke:#000000; stroke-linecap:round; stroke-linejoin:round; stroke-width:2; stroke-opacity:0.1; fill:none" points="387.806,1234.58 387.806,47.2441 "/>
<polyline clip-path="url(#clip472)" style="stroke:#000000; stroke-linecap:round; stroke-linejoin:round; stroke-width:2; stroke-opacity:0.1; fill:none" points="748.441,1234.58 748.441,47.2441 "/>
<polyline clip-path="url(#clip472)" style="stroke:#000000; stroke-linecap:round; stroke-linejoin:round; stroke-width:2; stroke-opacity:0.1; fill:none" points="1109.08,1234.58 1109.08,47.2441 "/>
<polyline clip-path="url(#clip472)" style="stroke:#000000; stroke-linecap:round; stroke-linejoin:round; stroke-width:2; stroke-opacity:0.1; fill:none" points="1469.71,1234.58 1469.71,47.2441 "/>
<polyline clip-path="url(#clip472)" style="stroke:#000000; stroke-linecap:round; stroke-linejoin:round; stroke-width:2; stroke-opacity:0.1; fill:none" points="1830.34,1234.58 1830.34,47.2441 "/>
<polyline clip-path="url(#clip470)" style="stroke:#000000; stroke-linecap:round; stroke-linejoin:round; stroke-width:4; stroke-opacity:1; fill:none" points="153.394,1234.58 2064.76,1234.58 "/>
<polyline clip-path="url(#clip470)" style="stroke:#000000; stroke-linecap:round; stroke-linejoin:round; stroke-width:4; stroke-opacity:1; fill:none" points="387.806,1234.58 387.806,1215.68 "/>
<polyline clip-path="url(#clip470)" style="stroke:#000000; stroke-linecap:round; stroke-linejoin:round; stroke-width:4; stroke-opacity:1; fill:none" points="748.441,1234.58 748.441,1215.68 "/>
<polyline clip-path="url(#clip470)" style="stroke:#000000; stroke-linecap:round; stroke-linejoin:round; stroke-width:4; stroke-opacity:1; fill:none" points="1109.08,1234.58 1109.08,1215.68 "/>
<polyline clip-path="url(#clip470)" style="stroke:#000000; stroke-linecap:round; stroke-linejoin:round; stroke-width:4; stroke-opacity:1; fill:none" points="1469.71,1234.58 1469.71,1215.68 "/>
<polyline clip-path="url(#clip470)" style="stroke:#000000; stroke-linecap:round; stroke-linejoin:round; stroke-width:4; stroke-opacity:1; fill:none" points="1830.34,1234.58 1830.34,1215.68 "/>
<path clip-path="url(#clip470)" d="M356.707 1277.85 L386.383 1277.85 L386.383 1281.78 L356.707 1281.78 L356.707 1277.85 Z" fill="#000000" fill-rule="nonzero" fill-opacity="1" /><path clip-path="url(#clip470)" d="M409.323 1264.19 L397.517 1282.64 L409.323 1282.64 L409.323 1264.19 M408.096 1260.11 L413.975 1260.11 L413.975 1282.64 L418.906 1282.64 L418.906 1286.53 L413.975 1286.53 L413.975 1294.67 L409.323 1294.67 L409.323 1286.53 L393.721 1286.53 L393.721 1282.01 L408.096 1260.11 Z" fill="#000000" fill-rule="nonzero" fill-opacity="1" /><path clip-path="url(#clip470)" d="M718.383 1277.85 L748.059 1277.85 L748.059 1281.78 L718.383 1281.78 L718.383 1277.85 Z" fill="#000000" fill-rule="nonzero" fill-opacity="1" /><path clip-path="url(#clip470)" d="M762.179 1290.74 L778.498 1290.74 L778.498 1294.67 L756.554 1294.67 L756.554 1290.74 Q759.216 1287.99 763.799 1283.36 Q768.406 1278.7 769.586 1277.36 Q771.832 1274.84 772.711 1273.1 Q773.614 1271.34 773.614 1269.65 Q773.614 1266.9 771.67 1265.16 Q769.748 1263.42 766.647 1263.42 Q764.448 1263.42 761.994 1264.19 Q759.563 1264.95 756.786 1266.5 L756.786 1261.78 Q759.61 1260.65 762.063 1260.07 Q764.517 1259.49 766.554 1259.49 Q771.924 1259.49 775.119 1262.17 Q778.313 1264.86 778.313 1269.35 Q778.313 1271.48 777.503 1273.4 Q776.716 1275.3 774.61 1277.89 Q774.031 1278.56 770.929 1281.78 Q767.827 1284.98 762.179 1290.74 Z" fill="#000000" fill-rule="nonzero" fill-opacity="1" /><path clip-path="url(#clip470)" d="M1109.08 1263.19 Q1105.46 1263.19 1103.64 1266.76 Q1101.83 1270.3 1101.83 1277.43 Q1101.83 1284.54 1103.64 1288.1 Q1105.46 1291.64 1109.08 1291.64 Q1112.71 1291.64 1114.51 1288.1 Q1116.34 1284.54 1116.34 1277.43 Q1116.34 1270.3 1114.51 1266.76 Q1112.71 1263.19 1109.08 1263.19 M1109.08 1259.49 Q1114.89 1259.49 1117.94 1264.1 Q1121.02 1268.68 1121.02 1277.43 Q1121.02 1286.16 1117.94 1290.76 Q1114.89 1295.35 1109.08 1295.35 Q1103.26 1295.35 1100.19 1290.76 Q1097.13 1286.16 1097.13 1277.43 Q1097.13 1268.68 1100.19 1264.1 Q1103.26 1259.49 1109.08 1259.49 Z" fill="#000000" fill-rule="nonzero" fill-opacity="1" /><path clip-path="url(#clip470)" d="M1464.36 1290.74 L1480.68 1290.74 L1480.68 1294.67 L1458.74 1294.67 L1458.74 1290.74 Q1461.4 1287.99 1465.98 1283.36 Q1470.59 1278.7 1471.77 1277.36 Q1474.01 1274.84 1474.89 1273.1 Q1475.8 1271.34 1475.8 1269.65 Q1475.8 1266.9 1473.85 1265.16 Q1471.93 1263.42 1468.83 1263.42 Q1466.63 1263.42 1464.18 1264.19 Q1461.75 1264.95 1458.97 1266.5 L1458.97 1261.78 Q1461.79 1260.65 1464.25 1260.07 Q1466.7 1259.49 1468.74 1259.49 Q1474.11 1259.49 1477.3 1262.17 Q1480.5 1264.86 1480.5 1269.35 Q1480.5 1271.48 1479.69 1273.4 Q1478.9 1275.3 1476.79 1277.89 Q1476.21 1278.56 1473.11 1281.78 Q1470.01 1284.98 1464.36 1290.74 Z" fill="#000000" fill-rule="nonzero" fill-opacity="1" /><path clip-path="url(#clip470)" d="M1833.35 1264.19 L1821.55 1282.64 L1833.35 1282.64 L1833.35 1264.19 M1832.13 1260.11 L1838.01 1260.11 L1838.01 1282.64 L1842.94 1282.64 L1842.94 1286.53 L1838.01 1286.53 L1838.01 1294.67 L1833.35 1294.67 L1833.35 1286.53 L1817.75 1286.53 L1817.75 1282.01 L1832.13 1260.11 Z" fill="#000000" fill-rule="nonzero" fill-opacity="1" /><polyline clip-path="url(#clip472)" style="stroke:#000000; stroke-linecap:round; stroke-linejoin:round; stroke-width:2; stroke-opacity:0.1; fill:none" points="153.394,1001.06 2064.76,1001.06 "/>
<polyline clip-path="url(#clip472)" style="stroke:#000000; stroke-linecap:round; stroke-linejoin:round; stroke-width:2; stroke-opacity:0.1; fill:none" points="153.394,724.971 2064.76,724.971 "/>
<polyline clip-path="url(#clip472)" style="stroke:#000000; stroke-linecap:round; stroke-linejoin:round; stroke-width:2; stroke-opacity:0.1; fill:none" points="153.394,448.885 2064.76,448.885 "/>
<polyline clip-path="url(#clip472)" style="stroke:#000000; stroke-linecap:round; stroke-linejoin:round; stroke-width:2; stroke-opacity:0.1; fill:none" points="153.394,172.798 2064.76,172.798 "/>
<polyline clip-path="url(#clip470)" style="stroke:#000000; stroke-linecap:round; stroke-linejoin:round; stroke-width:4; stroke-opacity:1; fill:none" points="153.394,1234.58 153.394,47.2441 "/>
<polyline clip-path="url(#clip470)" style="stroke:#000000; stroke-linecap:round; stroke-linejoin:round; stroke-width:4; stroke-opacity:1; fill:none" points="153.394,1001.06 172.292,1001.06 "/>
<polyline clip-path="url(#clip470)" style="stroke:#000000; stroke-linecap:round; stroke-linejoin:round; stroke-width:4; stroke-opacity:1; fill:none" points="153.394,724.971 172.292,724.971 "/>
<polyline clip-path="url(#clip470)" style="stroke:#000000; stroke-linecap:round; stroke-linejoin:round; stroke-width:4; stroke-opacity:1; fill:none" points="153.394,448.885 172.292,448.885 "/>
<polyline clip-path="url(#clip470)" style="stroke:#000000; stroke-linecap:round; stroke-linejoin:round; stroke-width:4; stroke-opacity:1; fill:none" points="153.394,172.798 172.292,172.798 "/>
<path clip-path="url(#clip470)" d="M64.5385 986.857 Q60.9275 986.857 59.0988 990.422 Q57.2932 993.963 57.2932 1001.09 Q57.2932 1008.2 59.0988 1011.76 Q60.9275 1015.31 64.5385 1015.31 Q68.1728 1015.31 69.9783 1011.76 Q71.807 1008.2 71.807 1001.09 Q71.807 993.963 69.9783 990.422 Q68.1728 986.857 64.5385 986.857 M64.5385 983.153 Q70.3487 983.153 73.4042 987.76 Q76.4829 992.343 76.4829 1001.09 Q76.4829 1009.82 73.4042 1014.43 Q70.3487 1019.01 64.5385 1019.01 Q58.7284 1019.01 55.6497 1014.43 Q52.5942 1009.82 52.5942 1001.09 Q52.5942 992.343 55.6497 987.76 Q58.7284 983.153 64.5385 983.153 Z" fill="#000000" fill-rule="nonzero" fill-opacity="1" /><path clip-path="url(#clip470)" d="M84.7005 1012.46 L89.5847 1012.46 L89.5847 1018.34 L84.7005 1018.34 L84.7005 1012.46 Z" fill="#000000" fill-rule="nonzero" fill-opacity="1" /><path clip-path="url(#clip470)" d="M109.77 986.857 Q106.159 986.857 104.33 990.422 Q102.524 993.963 102.524 1001.09 Q102.524 1008.2 104.33 1011.76 Q106.159 1015.31 109.77 1015.31 Q113.404 1015.31 115.21 1011.76 Q117.038 1008.2 117.038 1001.09 Q117.038 993.963 115.21 990.422 Q113.404 986.857 109.77 986.857 M109.77 983.153 Q115.58 983.153 118.635 987.76 Q121.714 992.343 121.714 1001.09 Q121.714 1009.82 118.635 1014.43 Q115.58 1019.01 109.77 1019.01 Q103.96 1019.01 100.881 1014.43 Q97.8254 1009.82 97.8254 1001.09 Q97.8254 992.343 100.881 987.76 Q103.96 983.153 109.77 983.153 Z" fill="#000000" fill-rule="nonzero" fill-opacity="1" /><path clip-path="url(#clip470)" d="M65.1867 710.77 Q61.5756 710.77 59.7469 714.335 Q57.9414 717.877 57.9414 725.006 Q57.9414 732.113 59.7469 735.677 Q61.5756 739.219 65.1867 739.219 Q68.8209 739.219 70.6265 735.677 Q72.4552 732.113 72.4552 725.006 Q72.4552 717.877 70.6265 714.335 Q68.8209 710.77 65.1867 710.77 M65.1867 707.066 Q70.9968 707.066 74.0524 711.673 Q77.1311 716.256 77.1311 725.006 Q77.1311 733.733 74.0524 738.339 Q70.9968 742.923 65.1867 742.923 Q59.3765 742.923 56.2978 738.339 Q53.2423 733.733 53.2423 725.006 Q53.2423 716.256 56.2978 711.673 Q59.3765 707.066 65.1867 707.066 Z" fill="#000000" fill-rule="nonzero" fill-opacity="1" /><path clip-path="url(#clip470)" d="M85.3486 736.372 L90.2328 736.372 L90.2328 742.251 L85.3486 742.251 L85.3486 736.372 Z" fill="#000000" fill-rule="nonzero" fill-opacity="1" /><path clip-path="url(#clip470)" d="M114.585 723.617 Q117.941 724.335 119.816 726.603 Q121.714 728.872 121.714 732.205 Q121.714 737.321 118.196 740.122 Q114.677 742.923 108.196 742.923 Q106.02 742.923 103.705 742.483 Q101.413 742.066 98.9597 741.21 L98.9597 736.696 Q100.904 737.83 103.219 738.409 Q105.534 738.988 108.057 738.988 Q112.455 738.988 114.747 737.251 Q117.061 735.515 117.061 732.205 Q117.061 729.15 114.909 727.437 Q112.779 725.701 108.96 725.701 L104.932 725.701 L104.932 721.858 L109.145 721.858 Q112.594 721.858 114.423 720.492 Q116.251 719.103 116.251 716.511 Q116.251 713.849 114.353 712.437 Q112.478 711.002 108.96 711.002 Q107.038 711.002 104.839 711.418 Q102.64 711.835 100.001 712.715 L100.001 708.548 Q102.663 707.807 104.978 707.437 Q107.316 707.066 109.376 707.066 Q114.7 707.066 117.802 709.497 Q120.904 711.904 120.904 716.025 Q120.904 718.895 119.26 720.886 Q117.617 722.853 114.585 723.617 Z" fill="#000000" fill-rule="nonzero" fill-opacity="1" /><path clip-path="url(#clip470)" d="M64.3765 434.683 Q60.7654 434.683 58.9367 438.248 Q57.1312 441.79 57.1312 448.919 Q57.1312 456.026 58.9367 459.59 Q60.7654 463.132 64.3765 463.132 Q68.0107 463.132 69.8163 459.59 Q71.645 456.026 71.645 448.919 Q71.645 441.79 69.8163 438.248 Q68.0107 434.683 64.3765 434.683 M64.3765 430.98 Q70.1867 430.98 73.2422 435.586 Q76.3209 440.169 76.3209 448.919 Q76.3209 457.646 73.2422 462.252 Q70.1867 466.836 64.3765 466.836 Q58.5664 466.836 55.4877 462.252 Q52.4321 457.646 52.4321 448.919 Q52.4321 440.169 55.4877 435.586 Q58.5664 430.98 64.3765 430.98 Z" fill="#000000" fill-rule="nonzero" fill-opacity="1" /><path clip-path="url(#clip470)" d="M84.5384 460.285 L89.4227 460.285 L89.4227 466.165 L84.5384 466.165 L84.5384 460.285 Z" fill="#000000" fill-rule="nonzero" fill-opacity="1" /><path clip-path="url(#clip470)" d="M110.186 447.021 Q107.038 447.021 105.186 449.174 Q103.358 451.327 103.358 455.077 Q103.358 458.803 105.186 460.979 Q107.038 463.132 110.186 463.132 Q113.335 463.132 115.163 460.979 Q117.015 458.803 117.015 455.077 Q117.015 451.327 115.163 449.174 Q113.335 447.021 110.186 447.021 M119.469 432.368 L119.469 436.628 Q117.71 435.794 115.904 435.354 Q114.122 434.915 112.362 434.915 Q107.733 434.915 105.279 438.04 Q102.849 441.165 102.501 447.484 Q103.867 445.47 105.927 444.405 Q107.987 443.317 110.464 443.317 Q115.673 443.317 118.682 446.489 Q121.714 449.637 121.714 455.077 Q121.714 460.401 118.566 463.618 Q115.418 466.836 110.186 466.836 Q104.191 466.836 101.02 462.252 Q97.8485 457.646 97.8485 448.919 Q97.8485 440.725 101.737 435.864 Q105.626 430.98 112.177 430.98 Q113.936 430.98 115.719 431.327 Q117.524 431.674 119.469 432.368 Z" fill="#000000" fill-rule="nonzero" fill-opacity="1" /><path clip-path="url(#clip470)" d="M64.7237 158.596 Q61.1126 158.596 59.2839 162.161 Q57.4784 165.703 57.4784 172.832 Q57.4784 179.939 59.2839 183.504 Q61.1126 187.045 64.7237 187.045 Q68.358 187.045 70.1635 183.504 Q71.9922 179.939 71.9922 172.832 Q71.9922 165.703 70.1635 162.161 Q68.358 158.596 64.7237 158.596 M64.7237 154.893 Q70.5339 154.893 73.5894 159.499 Q76.6681 164.082 76.6681 172.832 Q76.6681 181.559 73.5894 186.166 Q70.5339 190.749 64.7237 190.749 Q58.9136 190.749 55.8349 186.166 Q52.7793 181.559 52.7793 172.832 Q52.7793 164.082 55.8349 159.499 Q58.9136 154.893 64.7237 154.893 Z" fill="#000000" fill-rule="nonzero" fill-opacity="1" /><path clip-path="url(#clip470)" d="M84.8857 184.198 L89.7699 184.198 L89.7699 190.078 L84.8857 190.078 L84.8857 184.198 Z" fill="#000000" fill-rule="nonzero" fill-opacity="1" /><path clip-path="url(#clip470)" d="M100.094 189.36 L100.094 185.101 Q101.853 185.934 103.659 186.374 Q105.464 186.814 107.2 186.814 Q111.83 186.814 114.26 183.712 Q116.714 180.587 117.061 174.244 Q115.719 176.235 113.659 177.3 Q111.598 178.365 109.098 178.365 Q103.913 178.365 100.881 175.24 Q97.8717 172.092 97.8717 166.652 Q97.8717 161.328 101.02 158.11 Q104.168 154.893 109.399 154.893 Q115.395 154.893 118.543 159.499 Q121.714 164.082 121.714 172.832 Q121.714 181.004 117.825 185.888 Q113.96 190.749 107.409 190.749 Q105.649 190.749 103.844 190.402 Q102.038 190.054 100.094 189.36 M109.399 174.707 Q112.548 174.707 114.376 172.555 Q116.228 170.402 116.228 166.652 Q116.228 162.925 114.376 160.772 Q112.548 158.596 109.399 158.596 Q106.251 158.596 104.399 160.772 Q102.571 162.925 102.571 166.652 Q102.571 170.402 104.399 172.555 Q106.251 174.707 109.399 174.707 Z" fill="#000000" fill-rule="nonzero" fill-opacity="1" /><polyline clip-path="url(#clip472)" style="stroke:#009af9; stroke-linecap:round; stroke-linejoin:round; stroke-width:4; stroke-opacity:1; fill:none" points="207.489,1177.56 210.424,1178.96 213.359,1180.33 216.294,1181.66 219.229,1182.95 246.366,1192.91 273.504,1199.05 287.073,1200.55 300.641,1200.97 314.21,1200.24 327.779,1198.34 344.087,1194.47 360.396,1188.81 376.704,1181.33 393.013,1172 406.801,1162.66 420.59,1151.98 434.379,1139.96 448.167,1126.61 463.145,1110.62 478.124,1093.1 493.102,1074.07 508.08,1053.58 521.889,1033.43 535.698,1012.12 549.506,989.689 563.315,966.191 578.119,939.877 592.924,912.478 607.728,884.076 622.532,854.757 639.685,819.764 656.837,783.818 673.989,747.08 691.142,709.717 752.113,574.493 805.58,457.727 820.153,426.987 834.727,396.928 849.3,367.662 863.873,339.297 878.533,311.782 893.193,285.392 907.853,260.23 922.513,236.392 938.721,211.688 954.929,188.832 971.138,167.935 987.346,149.095 1002.77,133.162 1018.19,119.243 1033.61,107.398 1049.03,97.6806 1065.07,89.8769 1081.1,84.455 1097.14,81.4406 1113.17,80.8479 1126.67,82.2288 1140.17,85.3232 1153.67,90.1209 1167.17,96.6058 1183.65,106.778 1200.13,119.382 1216.61,134.354 1233.09,151.619 1248.18,169.375 1263.28,188.911 1278.38,210.144 1293.47,232.988 1307.41,255.435 1321.36,279.096 1335.3,303.89 1349.24,329.728 1363.37,356.877 1377.49,384.911 1391.61,413.731 1405.74,443.237 1437.39,511.336 1469.05,581.189 1497.74,645.013 1526.42,708.437 1542.85,744.238 1559.27,779.479 1575.69,814.01 1592.11,847.692 1607.32,878.002 1622.52,907.366 1637.73,935.687 1652.93,962.876 1667.93,988.493 1682.92,1012.86 1697.91,1035.9 1712.9,1057.56 1727.45,1077.23 1742.01,1095.5 1756.56,1112.36 1771.12,1127.76 1786.04,1142.03 1800.96,1154.73 1815.88,1165.87 1830.8,1175.45 1847.15,1184.15 1863.49,1191 1879.84,1196.04 1896.19,1199.3 1908.06,1200.58 1919.93,1200.97 1931.81,1200.5 1943.68,1199.19 1967.43,1194.17 1991.17,1186.16 1996.05,1184.17 2000.92,1182.07 2005.79,1179.87 2010.66,1177.56 "/>
<path clip-path="url(#clip470)" d="M1757.48 190.502 L2001.04 190.502 L2001.04 86.8219 L1757.48 86.8219  Z" fill="#ffffff" fill-rule="evenodd" fill-opacity="1"/>
<polyline clip-path="url(#clip470)" style="stroke:#000000; stroke-linecap:round; stroke-linejoin:round; stroke-width:4; stroke-opacity:1; fill:none" points="1757.48,190.502 2001.04,190.502 2001.04,86.8219 1757.48,86.8219 1757.48,190.502 "/>
<polyline clip-path="url(#clip470)" style="stroke:#009af9; stroke-linecap:round; stroke-linejoin:round; stroke-width:4; stroke-opacity:1; fill:none" points="1778.71,138.662 1906.14,138.662 "/>
<path clip-path="url(#clip470)" d="M1941.22 158.349 Q1939.41 162.979 1937.7 164.391 Q1935.99 165.803 1933.12 165.803 L1929.71 165.803 L1929.71 162.238 L1932.21 162.238 Q1933.97 162.238 1934.95 161.405 Q1935.92 160.572 1937.1 157.47 L1937.86 155.525 L1927.38 130.016 L1931.89 130.016 L1939.99 150.294 L1948.09 130.016 L1952.61 130.016 L1941.22 158.349 Z" fill="#000000" fill-rule="nonzero" fill-opacity="1" /><path clip-path="url(#clip470)" d="M1959.9 152.007 L1967.54 152.007 L1967.54 125.641 L1959.23 127.308 L1959.23 123.049 L1967.49 121.382 L1972.17 121.382 L1972.17 152.007 L1979.81 152.007 L1979.81 155.942 L1959.9 155.942 L1959.9 152.007 Z" fill="#000000" fill-rule="nonzero" fill-opacity="1" /></svg>
