<?xml version="1.0" encoding="utf-8"?>
<svg xmlns="http://www.w3.org/2000/svg" xmlns:xlink="http://www.w3.org/1999/xlink" width="672" height="480" viewBox="0 0 2688 1920">
<defs>
  <clipPath id="clip620">
    <rect x="0" y="0" width="2688" height="1920"/>
  </clipPath>
</defs>
<path clip-path="url(#clip620)" d="
M0 1920 L2688 1920 L2688 0 L0 0  Z
  " fill="#ffffff" fill-rule="evenodd" fill-opacity="1"/>
<defs>
  <clipPath id="clip621">
    <rect x="537" y="0" width="1883" height="1883"/>
  </clipPath>
</defs>
<defs>
  <clipPath id="clip622">
    <rect x="196" y="47" width="2445" height="1755"/>
  </clipPath>
</defs>
<path clip-path="url(#clip620)" d="
M150.589 1800.78 L2640.76 1800.78 L2640.76 47.2441 L150.589 47.2441  Z
  " fill="#ffffff" fill-rule="evenodd" fill-opacity="1"/>
<defs>
  <clipPath id="clip623">
    <rect x="150" y="47" width="2491" height="1755"/>
  </clipPath>
</defs>
<polyline clip-path="url(#clip623)" style="stroke:#000000; stroke-linecap:round; stroke-linejoin:round; stroke-width:2; stroke-opacity:0.1; fill:none" points="
  221.066,1800.78 221.066,47.2441 
  "/>
<polyline clip-path="url(#clip623)" style="stroke:#000000; stroke-linecap:round; stroke-linejoin:round; stroke-width:2; stroke-opacity:0.1; fill:none" points="
  612.601,1800.78 612.601,47.2441 
  "/>
<polyline clip-path="url(#clip623)" style="stroke:#000000; stroke-linecap:round; stroke-linejoin:round; stroke-width:2; stroke-opacity:0.1; fill:none" points="
  1004.14,1800.78 1004.14,47.2441 
  "/>
<polyline clip-path="url(#clip623)" style="stroke:#000000; stroke-linecap:round; stroke-linejoin:round; stroke-width:2; stroke-opacity:0.1; fill:none" points="
  1395.67,1800.78 1395.67,47.2441 
  "/>
<polyline clip-path="url(#clip623)" style="stroke:#000000; stroke-linecap:round; stroke-linejoin:round; stroke-width:2; stroke-opacity:0.1; fill:none" points="
  1787.21,1800.78 1787.21,47.2441 
  "/>
<polyline clip-path="url(#clip623)" style="stroke:#000000; stroke-linecap:round; stroke-linejoin:round; stroke-width:2; stroke-opacity:0.1; fill:none" points="
  2178.74,1800.78 2178.74,47.2441 
  "/>
<polyline clip-path="url(#clip623)" style="stroke:#000000; stroke-linecap:round; stroke-linejoin:round; stroke-width:2; stroke-opacity:0.1; fill:none" points="
  2570.28,1800.78 2570.28,47.2441 
  "/>
<polyline clip-path="url(#clip620)" style="stroke:#000000; stroke-linecap:round; stroke-linejoin:round; stroke-width:4; stroke-opacity:1; fill:none" points="
  150.589,1800.78 2640.76,1800.78 
  "/>
<polyline clip-path="url(#clip620)" style="stroke:#000000; stroke-linecap:round; stroke-linejoin:round; stroke-width:4; stroke-opacity:1; fill:none" points="
  221.066,1800.78 221.066,1781.88 
  "/>
<polyline clip-path="url(#clip620)" style="stroke:#000000; stroke-linecap:round; stroke-linejoin:round; stroke-width:4; stroke-opacity:1; fill:none" points="
  612.601,1800.78 612.601,1781.88 
  "/>
<polyline clip-path="url(#clip620)" style="stroke:#000000; stroke-linecap:round; stroke-linejoin:round; stroke-width:4; stroke-opacity:1; fill:none" points="
  1004.14,1800.78 1004.14,1781.88 
  "/>
<polyline clip-path="url(#clip620)" style="stroke:#000000; stroke-linecap:round; stroke-linejoin:round; stroke-width:4; stroke-opacity:1; fill:none" points="
  1395.67,1800.78 1395.67,1781.88 
  "/>
<polyline clip-path="url(#clip620)" style="stroke:#000000; stroke-linecap:round; stroke-linejoin:round; stroke-width:4; stroke-opacity:1; fill:none" points="
  1787.21,1800.78 1787.21,1781.88 
  "/>
<polyline clip-path="url(#clip620)" style="stroke:#000000; stroke-linecap:round; stroke-linejoin:round; stroke-width:4; stroke-opacity:1; fill:none" points="
  2178.74,1800.78 2178.74,1781.88 
  "/>
<polyline clip-path="url(#clip620)" style="stroke:#000000; stroke-linecap:round; stroke-linejoin:round; stroke-width:4; stroke-opacity:1; fill:none" points="
  2570.28,1800.78 2570.28,1781.88 
  "/>
<path clip-path="url(#clip620)" d="M190.823 1848.65 L220.499 1848.65 L220.499 1852.59 L190.823 1852.59 L190.823 1848.65 Z" fill="#000000" fill-rule="evenodd" fill-opacity="1" /><path clip-path="url(#clip620)" d="M231.401 1861.55 L239.04 1861.55 L239.04 1835.18 L230.73 1836.85 L230.73 1832.59 L238.994 1830.92 L243.67 1830.92 L243.67 1861.55 L251.309 1861.55 L251.309 1865.48 L231.401 1865.48 L231.401 1861.55 Z" fill="#000000" fill-rule="evenodd" fill-opacity="1" /><path clip-path="url(#clip620)" d="M612.601 1834 Q608.99 1834 607.162 1837.57 Q605.356 1841.11 605.356 1848.24 Q605.356 1855.34 607.162 1858.91 Q608.99 1862.45 612.601 1862.45 Q616.236 1862.45 618.041 1858.91 Q619.87 1855.34 619.87 1848.24 Q619.87 1841.11 618.041 1837.57 Q616.236 1834 612.601 1834 M612.601 1830.3 Q618.412 1830.3 621.467 1834.9 Q624.546 1839.49 624.546 1848.24 Q624.546 1856.96 621.467 1861.57 Q618.412 1866.15 612.601 1866.15 Q606.791 1866.15 603.713 1861.57 Q600.657 1856.96 600.657 1848.24 Q600.657 1839.49 603.713 1834.9 Q606.791 1830.3 612.601 1830.3 Z" fill="#000000" fill-rule="evenodd" fill-opacity="1" /><path clip-path="url(#clip620)" d="M994.519 1861.55 L1002.16 1861.55 L1002.16 1835.18 L993.848 1836.85 L993.848 1832.59 L1002.11 1830.92 L1006.79 1830.92 L1006.79 1861.55 L1014.43 1861.55 L1014.43 1865.48 L994.519 1865.48 L994.519 1861.55 Z" fill="#000000" fill-rule="evenodd" fill-opacity="1" /><path clip-path="url(#clip620)" d="M1390.33 1861.55 L1406.64 1861.55 L1406.64 1865.48 L1384.7 1865.48 L1384.7 1861.55 Q1387.36 1858.79 1391.95 1854.16 Q1396.55 1849.51 1397.73 1848.17 Q1399.98 1845.65 1400.86 1843.91 Q1401.76 1842.15 1401.76 1840.46 Q1401.76 1837.71 1399.82 1835.97 Q1397.89 1834.23 1394.79 1834.23 Q1392.59 1834.23 1390.14 1835 Q1387.71 1835.76 1384.93 1837.31 L1384.93 1832.59 Q1387.76 1831.46 1390.21 1830.88 Q1392.66 1830.3 1394.7 1830.3 Q1400.07 1830.3 1403.27 1832.98 Q1406.46 1835.67 1406.46 1840.16 Q1406.46 1842.29 1405.65 1844.21 Q1404.86 1846.11 1402.76 1848.7 Q1402.18 1849.37 1399.08 1852.59 Q1395.97 1855.78 1390.33 1861.55 Z" fill="#000000" fill-rule="evenodd" fill-opacity="1" /><path clip-path="url(#clip620)" d="M1791.46 1846.85 Q1794.81 1847.57 1796.69 1849.84 Q1798.59 1852.1 1798.59 1855.44 Q1798.59 1860.55 1795.07 1863.35 Q1791.55 1866.15 1785.07 1866.15 Q1782.89 1866.15 1780.58 1865.71 Q1778.28 1865.3 1775.83 1864.44 L1775.83 1859.93 Q1777.78 1861.06 1780.09 1861.64 Q1782.41 1862.22 1784.93 1862.22 Q1789.33 1862.22 1791.62 1860.48 Q1793.93 1858.75 1793.93 1855.44 Q1793.93 1852.38 1791.78 1850.67 Q1789.65 1848.93 1785.83 1848.93 L1781.8 1848.93 L1781.8 1845.09 L1786.02 1845.09 Q1789.47 1845.09 1791.29 1843.72 Q1793.12 1842.34 1793.12 1839.74 Q1793.12 1837.08 1791.22 1835.67 Q1789.35 1834.23 1785.83 1834.23 Q1783.91 1834.23 1781.71 1834.65 Q1779.51 1835.07 1776.87 1835.95 L1776.87 1831.78 Q1779.53 1831.04 1781.85 1830.67 Q1784.19 1830.3 1786.25 1830.3 Q1791.57 1830.3 1794.67 1832.73 Q1797.78 1835.14 1797.78 1839.26 Q1797.78 1842.13 1796.13 1844.12 Q1794.49 1846.09 1791.46 1846.85 Z" fill="#000000" fill-rule="evenodd" fill-opacity="1" /><path clip-path="url(#clip620)" d="M2181.75 1835 L2169.95 1853.45 L2181.75 1853.45 L2181.75 1835 M2180.53 1830.92 L2186.41 1830.92 L2186.41 1853.45 L2191.34 1853.45 L2191.34 1857.34 L2186.41 1857.34 L2186.41 1865.48 L2181.75 1865.48 L2181.75 1857.34 L2166.15 1857.34 L2166.15 1852.82 L2180.53 1830.92 Z" fill="#000000" fill-rule="evenodd" fill-opacity="1" /><path clip-path="url(#clip620)" d="M2560.56 1830.92 L2578.91 1830.92 L2578.91 1834.86 L2564.84 1834.86 L2564.84 1843.33 Q2565.86 1842.98 2566.88 1842.82 Q2567.9 1842.64 2568.91 1842.64 Q2574.7 1842.64 2578.08 1845.81 Q2581.46 1848.98 2581.46 1854.4 Q2581.46 1859.97 2577.99 1863.08 Q2574.52 1866.15 2568.2 1866.15 Q2566.02 1866.15 2563.75 1865.78 Q2561.51 1865.41 2559.1 1864.67 L2559.1 1859.97 Q2561.18 1861.11 2563.4 1861.66 Q2565.63 1862.22 2568.1 1862.22 Q2572.11 1862.22 2574.45 1860.11 Q2576.78 1858.01 2576.78 1854.4 Q2576.78 1850.78 2574.45 1848.68 Q2572.11 1846.57 2568.1 1846.57 Q2566.23 1846.57 2564.35 1846.99 Q2562.5 1847.4 2560.56 1848.28 L2560.56 1830.92 Z" fill="#000000" fill-rule="evenodd" fill-opacity="1" /><polyline clip-path="url(#clip623)" style="stroke:#000000; stroke-linecap:round; stroke-linejoin:round; stroke-width:2; stroke-opacity:0.1; fill:none" points="
  150.589,1600.76 2640.76,1600.76 
  "/>
<polyline clip-path="url(#clip623)" style="stroke:#000000; stroke-linecap:round; stroke-linejoin:round; stroke-width:2; stroke-opacity:0.1; fill:none" points="
  150.589,1224.79 2640.76,1224.79 
  "/>
<polyline clip-path="url(#clip623)" style="stroke:#000000; stroke-linecap:round; stroke-linejoin:round; stroke-width:2; stroke-opacity:0.1; fill:none" points="
  150.589,848.817 2640.76,848.817 
  "/>
<polyline clip-path="url(#clip623)" style="stroke:#000000; stroke-linecap:round; stroke-linejoin:round; stroke-width:2; stroke-opacity:0.1; fill:none" points="
  150.589,472.845 2640.76,472.845 
  "/>
<polyline clip-path="url(#clip623)" style="stroke:#000000; stroke-linecap:round; stroke-linejoin:round; stroke-width:2; stroke-opacity:0.1; fill:none" points="
  150.589,96.8724 2640.76,96.8724 
  "/>
<polyline clip-path="url(#clip620)" style="stroke:#000000; stroke-linecap:round; stroke-linejoin:round; stroke-width:4; stroke-opacity:1; fill:none" points="
  150.589,1800.78 150.589,47.2441 
  "/>
<polyline clip-path="url(#clip620)" style="stroke:#000000; stroke-linecap:round; stroke-linejoin:round; stroke-width:4; stroke-opacity:1; fill:none" points="
  150.589,1600.76 169.487,1600.76 
  "/>
<polyline clip-path="url(#clip620)" style="stroke:#000000; stroke-linecap:round; stroke-linejoin:round; stroke-width:4; stroke-opacity:1; fill:none" points="
  150.589,1224.79 169.487,1224.79 
  "/>
<polyline clip-path="url(#clip620)" style="stroke:#000000; stroke-linecap:round; stroke-linejoin:round; stroke-width:4; stroke-opacity:1; fill:none" points="
  150.589,848.817 169.487,848.817 
  "/>
<polyline clip-path="url(#clip620)" style="stroke:#000000; stroke-linecap:round; stroke-linejoin:round; stroke-width:4; stroke-opacity:1; fill:none" points="
  150.589,472.845 169.487,472.845 
  "/>
<polyline clip-path="url(#clip620)" style="stroke:#000000; stroke-linecap:round; stroke-linejoin:round; stroke-width:4; stroke-opacity:1; fill:none" points="
  150.589,96.8724 169.487,96.8724 
  "/>
<path clip-path="url(#clip620)" d="M49.5521 1601.21 L79.2279 1601.21 L79.2279 1605.15 L49.5521 1605.15 L49.5521 1601.21 Z" fill="#000000" fill-rule="evenodd" fill-opacity="1" /><path clip-path="url(#clip620)" d="M89.3667 1583.48 L107.723 1583.48 L107.723 1587.42 L93.6491 1587.42 L93.6491 1595.89 Q94.6676 1595.54 95.6861 1595.38 Q96.7047 1595.19 97.7232 1595.19 Q103.51 1595.19 106.89 1598.37 Q110.269 1601.54 110.269 1606.95 Q110.269 1612.53 106.797 1615.63 Q103.325 1618.71 97.0056 1618.71 Q94.8297 1618.71 92.5612 1618.34 Q90.3158 1617.97 87.9084 1617.23 L87.9084 1612.53 Q89.9917 1613.67 92.2139 1614.22 Q94.4361 1614.78 96.913 1614.78 Q100.918 1614.78 103.256 1612.67 Q105.593 1610.57 105.593 1606.95 Q105.593 1603.34 103.256 1601.24 Q100.918 1599.13 96.913 1599.13 Q95.038 1599.13 93.163 1599.55 Q91.3112 1599.96 89.3667 1600.84 L89.3667 1583.48 Z" fill="#000000" fill-rule="evenodd" fill-opacity="1" /><path clip-path="url(#clip620)" d="M98.325 1210.59 Q94.7139 1210.59 92.8852 1214.15 Q91.0797 1217.69 91.0797 1224.82 Q91.0797 1231.93 92.8852 1235.5 Q94.7139 1239.04 98.325 1239.04 Q101.959 1239.04 103.765 1235.5 Q105.593 1231.93 105.593 1224.82 Q105.593 1217.69 103.765 1214.15 Q101.959 1210.59 98.325 1210.59 M98.325 1206.88 Q104.135 1206.88 107.191 1211.49 Q110.269 1216.07 110.269 1224.82 Q110.269 1233.55 107.191 1238.16 Q104.135 1242.74 98.325 1242.74 Q92.5149 1242.74 89.4362 1238.16 Q86.3806 1233.55 86.3806 1224.82 Q86.3806 1216.07 89.4362 1211.49 Q92.5149 1206.88 98.325 1206.88 Z" fill="#000000" fill-rule="evenodd" fill-opacity="1" /><path clip-path="url(#clip620)" d="M89.3667 831.537 L107.723 831.537 L107.723 835.472 L93.6491 835.472 L93.6491 843.945 Q94.6676 843.597 95.6861 843.435 Q96.7047 843.25 97.7232 843.25 Q103.51 843.25 106.89 846.421 Q110.269 849.593 110.269 855.009 Q110.269 860.588 106.797 863.69 Q103.325 866.769 97.0056 866.769 Q94.8297 866.769 92.5612 866.398 Q90.3158 866.028 87.9084 865.287 L87.9084 860.588 Q89.9917 861.722 92.2139 862.278 Q94.4361 862.833 96.913 862.833 Q100.918 862.833 103.256 860.727 Q105.593 858.62 105.593 855.009 Q105.593 851.398 103.256 849.292 Q100.918 847.185 96.913 847.185 Q95.038 847.185 93.163 847.602 Q91.3112 848.019 89.3667 848.898 L89.3667 831.537 Z" fill="#000000" fill-rule="evenodd" fill-opacity="1" /><path clip-path="url(#clip620)" d="M58.9734 486.19 L66.6122 486.19 L66.6122 459.824 L58.3021 461.491 L58.3021 457.231 L66.5659 455.565 L71.2418 455.565 L71.2418 486.19 L78.8807 486.19 L78.8807 490.125 L58.9734 490.125 L58.9734 486.19 Z" fill="#000000" fill-rule="evenodd" fill-opacity="1" /><path clip-path="url(#clip620)" d="M98.325 458.644 Q94.7139 458.644 92.8852 462.208 Q91.0797 465.75 91.0797 472.88 Q91.0797 479.986 92.8852 483.551 Q94.7139 487.092 98.325 487.092 Q101.959 487.092 103.765 483.551 Q105.593 479.986 105.593 472.88 Q105.593 465.75 103.765 462.208 Q101.959 458.644 98.325 458.644 M98.325 454.94 Q104.135 454.94 107.191 459.546 Q110.269 464.13 110.269 472.88 Q110.269 481.606 107.191 486.213 Q104.135 490.796 98.325 490.796 Q92.5149 490.796 89.4362 486.213 Q86.3806 481.606 86.3806 472.88 Q86.3806 464.13 89.4362 459.546 Q92.5149 454.94 98.325 454.94 Z" fill="#000000" fill-rule="evenodd" fill-opacity="1" /><path clip-path="url(#clip620)" d="M59.9687 110.217 L67.6076 110.217 L67.6076 83.8517 L59.2974 85.5183 L59.2974 81.2591 L67.5613 79.5924 L72.2372 79.5924 L72.2372 110.217 L79.876 110.217 L79.876 114.152 L59.9687 114.152 L59.9687 110.217 Z" fill="#000000" fill-rule="evenodd" fill-opacity="1" /><path clip-path="url(#clip620)" d="M89.3667 79.5924 L107.723 79.5924 L107.723 83.5276 L93.6491 83.5276 L93.6491 91.9998 Q94.6676 91.6526 95.6861 91.4905 Q96.7047 91.3053 97.7232 91.3053 Q103.51 91.3053 106.89 94.4766 Q110.269 97.6479 110.269 103.065 Q110.269 108.643 106.797 111.745 Q103.325 114.824 97.0056 114.824 Q94.8297 114.824 92.5612 114.453 Q90.3158 114.083 87.9084 113.342 L87.9084 108.643 Q89.9917 109.777 92.2139 110.333 Q94.4361 110.889 96.913 110.889 Q100.918 110.889 103.256 108.782 Q105.593 106.676 105.593 103.065 Q105.593 99.4535 103.256 97.347 Q100.918 95.2405 96.913 95.2405 Q95.038 95.2405 93.163 95.6572 Q91.3112 96.0738 89.3667 96.9535 L89.3667 79.5924 Z" fill="#000000" fill-rule="evenodd" fill-opacity="1" /><polyline clip-path="url(#clip623)" style="stroke:#009af9; stroke-linecap:round; stroke-linejoin:round; stroke-width:4; stroke-opacity:1; fill:none" points="
  221.066,1751.15 224.889,1745.28 228.713,1739.43 232.537,1733.59 236.36,1727.77 271.716,1674.59 307.071,1622.64 342.426,1571.92 377.782,1522.42 420.276,1464.55 
  462.77,1408.45 498.698,1362.4 534.627,1317.62 573.655,1270.41 612.683,1224.7 648.663,1183.87 684.644,1144.32 723.219,1103.33 761.794,1063.79 806.486,1019.81 
  851.179,977.795 890.897,942.098 930.615,907.949 965.443,879.276 1000.27,851.793 1038.25,823.186 1076.22,795.993 1114.42,770.066 1152.61,745.57 1194.85,720.153 
  1237.08,696.486 1277.27,675.591 1317.45,656.281 1359.23,637.882 1401.01,621.197 1436.18,608.478 1471.36,596.973 1514.3,584.573 1557.24,573.981 1596.57,565.865 
  1635.91,559.268 1672.24,554.523 1708.57,551.073 1745.37,548.898 1782.17,548.052 1823.42,548.682 1864.66,550.982 1902.03,554.506 1939.41,559.401 1982.2,566.688 
  2024.99,575.772 2064.61,585.783 2104.23,597.335 2143.29,610.231 2182.35,624.624 2220.27,640.03 2258.2,656.847 2297.07,675.552 2335.95,695.739 2378.55,719.559 
  2421.14,745.158 2483.02,785.516 2544.89,829.63 2557.59,839.145 2570.28,848.817 
  "/>
<path clip-path="url(#clip623)" d="
M612.601 1224.79 L617.7 1226.74 L622.798 1228.66 L669.938 1245.2 L717.079 1259.57 L745.408 1267.15 L773.738 1273.95 L797.69 1279.08 L821.642 1283.65 L847.661 1287.97 
  L873.679 1291.64 L897.666 1294.42 L921.653 1296.65 L947.37 1298.4 L973.087 1299.51 L1002.88 1299.98 L1032.68 1299.58 L1059.16 1298.5 L1085.63 1296.73 L1108.85 1294.61 
  L1132.07 1291.96 L1157.39 1288.46 L1182.7 1284.34 L1208.17 1279.56 L1233.63 1274.15 L1261.79 1267.42 L1289.95 1259.92 L1316.73 1252.05 L1343.52 1243.49 L1371.38 1233.83 
  L1399.23 1223.42 L1422.68 1214.06 L1446.13 1204.16 L1474.76 1191.35 L1503.38 1177.73 L1529.61 1164.55 L1555.83 1150.69 L1580.05 1137.3 L1604.27 1123.32 L1628.8 1108.58 
  L1653.34 1093.25 L1680.83 1075.37 L1708.33 1056.75 L1733.25 1039.23 L1758.16 1021.11 L1786.69 999.606 L1815.21 977.307 L1841.63 955.948 L1868.04 933.905 L1894.08 911.504 
  L1920.12 888.437 L1945.4 865.404 L1970.69 841.744 L1996.61 816.839 L2022.52 791.275 L2050.92 762.51 L2079.32 732.954 L2120.57 688.61 L2161.82 642.596 L2170.28 632.95 
  L2178.74 623.234 L2178.74 623.234 L2170.28 620.018 L2161.82 616.873 L2120.57 602.548 L2079.32 589.893 L2050.92 582.151 L2022.52 575.2 L1996.61 569.547 L1970.69 564.552 
  L1945.4 560.315 L1920.12 556.705 L1894.08 553.642 L1868.04 551.244 L1841.63 549.492 L1815.21 548.424 L1786.69 548.039 L1758.16 548.453 L1733.25 549.468 L1708.33 551.091 
  L1680.83 553.59 L1653.34 556.83 L1628.8 560.347 L1604.27 564.455 L1580.05 569.089 L1555.83 574.299 L1529.61 580.589 L1503.38 587.553 L1474.76 595.926 L1446.13 605.102 
  L1422.68 613.218 L1399.23 621.872 L1371.38 632.855 L1343.52 644.598 L1316.73 656.61 L1289.95 669.327 L1261.79 683.45 L1233.63 698.352 L1208.17 712.499 L1182.7 727.283 
  L1157.39 742.61 L1132.07 758.565 L1108.85 773.753 L1085.63 789.469 L1059.16 808.037 L1032.68 827.292 L1002.88 849.782 L973.087 873.143 L947.37 894.006 L921.653 915.518 
  L897.666 936.168 L873.679 957.383 L847.661 981.032 L821.642 1005.35 L797.69 1028.32 L773.738 1051.85 L745.408 1080.41 L717.079 1109.75 L669.938 1160.33 L622.798 1213.09 
  L617.7 1218.93 L612.601 1224.79  Z
  " fill="#e26f46" fill-rule="evenodd" fill-opacity="0.3"/>
<polyline clip-path="url(#clip623)" style="stroke:#e26f46; stroke-linecap:round; stroke-linejoin:round; stroke-width:4; stroke-opacity:1; fill:none" points="
  612.601,1224.79 617.7,1226.74 622.798,1228.66 669.938,1245.2 717.079,1259.57 745.408,1267.15 773.738,1273.95 797.69,1279.08 821.642,1283.65 847.661,1287.97 
  873.679,1291.64 897.666,1294.42 921.653,1296.65 947.37,1298.4 973.087,1299.51 1002.88,1299.98 1032.68,1299.58 1059.16,1298.5 1085.63,1296.73 1108.85,1294.61 
  1132.07,1291.96 1157.39,1288.46 1182.7,1284.34 1208.17,1279.56 1233.63,1274.15 1261.79,1267.42 1289.95,1259.92 1316.73,1252.05 1343.52,1243.49 1371.38,1233.83 
  1399.23,1223.42 1422.68,1214.06 1446.13,1204.16 1474.76,1191.35 1503.38,1177.73 1529.61,1164.55 1555.83,1150.69 1580.05,1137.3 1604.27,1123.32 1628.8,1108.58 
  1653.34,1093.25 1680.83,1075.37 1708.33,1056.75 1733.25,1039.23 1758.16,1021.11 1786.69,999.606 1815.21,977.307 1841.63,955.948 1868.04,933.905 1894.08,911.504 
  1920.12,888.437 1945.4,865.404 1970.69,841.744 1996.61,816.839 2022.52,791.275 2050.92,762.51 2079.32,732.954 2120.57,688.61 2161.82,642.596 2170.28,632.95 
  2178.74,623.234 
  "/>
<polyline clip-path="url(#clip623)" style="stroke:#3da44d; stroke-linecap:round; stroke-linejoin:round; stroke-width:4; stroke-opacity:1; fill:none" points="
  221.066,999.206 224.889,1002.14 228.713,1005.05 232.537,1007.95 236.36,1010.84 271.716,1036.86 307.071,1061.65 342.426,1085.21 377.782,1107.55 420.276,1132.77 
  462.77,1156.23 498.698,1174.68 534.627,1191.86 573.655,1209.09 612.683,1224.82 648.663,1238 684.644,1249.92 723.219,1261.28 761.794,1271.18 806.486,1280.82 
  851.179,1288.51 890.897,1293.69 930.615,1297.33 965.443,1299.25 1000.27,1299.98 1038.25,1299.41 1076.22,1297.44 1114.42,1294.02 1152.61,1289.17 1194.85,1282.14 
  1237.08,1273.37 1277.27,1263.39 1317.45,1251.83 1359.23,1238.14 1401.01,1222.72 1436.18,1208.42 1471.36,1192.91 1514.3,1172.32 1557.24,1149.93 1596.57,1127.83 
  1635.91,1104.21 1672.24,1081.04 1708.57,1056.58 1745.37,1030.49 1782.17,1003.06 1823.42,970.749 1864.66,936.766 1902.03,904.531 1939.41,870.926 1982.2,830.768 
  2024.99,788.813 2064.61,748.365 2104.23,706.378 2143.29,663.475 2182.35,619.076 2220.27,574.536 2258.2,528.585 2297.07,480.015 2335.95,429.962 2378.55,373.422 
  2421.14,315.101 2483.02,227.21 2544.89,135.562 2557.59,116.296 2570.28,96.8724 
  "/>
<path clip-path="url(#clip620)" d="
M233.595 261.215 L862.76 261.215 L862.76 105.695 L233.595 105.695  Z
  " fill="#ffffff" fill-rule="evenodd" fill-opacity="1"/>
<polyline clip-path="url(#clip620)" style="stroke:#000000; stroke-linecap:round; stroke-linejoin:round; stroke-width:4; stroke-opacity:1; fill:none" points="
  233.595,261.215 862.76,261.215 862.76,105.695 233.595,105.695 233.595,261.215 
  "/>
<polyline clip-path="url(#clip620)" style="stroke:#009af9; stroke-linecap:round; stroke-linejoin:round; stroke-width:4; stroke-opacity:1; fill:none" points="
  261.263,157.535 427.275,157.535 
  "/>
<path clip-path="url(#clip620)" d="M478.857 139.326 Q478.857 140.615 478.038 141.411 Q477.241 142.207 476.234 142.207 Q475.508 142.207 474.969 141.762 Q474.454 141.317 474.454 140.544 Q474.454 139.748 475.063 138.905 Q475.672 138.062 477.054 137.944 Q476.14 137.078 474.688 137.078 Q473.962 137.078 473.353 137.546 Q472.768 137.991 472.44 138.717 Q472.088 139.467 471.292 143.706 Q471.034 145.088 470.8 146.423 Q470.566 147.758 470.285 149.164 L474.267 149.164 Q474.782 149.164 474.993 149.187 Q475.203 149.211 475.367 149.328 Q475.555 149.445 475.555 149.703 Q475.555 150.358 475.25 150.522 Q474.969 150.663 474.126 150.663 L470.004 150.663 L467.123 165.864 Q467.052 166.309 466.748 167.714 Q466.467 169.096 465.788 171.368 Q465.108 173.664 464.429 175.022 Q464.054 175.795 463.563 176.521 Q463.094 177.271 462.415 178.02 Q461.736 178.77 460.846 179.215 Q459.955 179.683 459.019 179.683 Q457.426 179.683 456.184 178.793 Q454.943 177.903 454.943 176.381 Q454.943 175.092 455.739 174.296 Q456.559 173.5 457.566 173.5 Q458.292 173.5 458.808 173.945 Q459.346 174.39 459.346 175.163 Q459.346 175.491 459.229 175.865 Q459.112 176.24 458.855 176.662 Q458.597 177.107 458.035 177.411 Q457.473 177.716 456.7 177.763 Q457.613 178.629 459.019 178.629 Q459.464 178.629 459.862 178.442 Q460.26 178.278 460.588 177.856 Q460.939 177.435 461.197 177.013 Q461.455 176.615 461.712 175.842 Q461.97 175.092 462.134 174.53 Q462.298 173.968 462.509 172.961 Q462.743 171.954 462.86 171.345 Q462.977 170.759 463.188 169.612 L466.771 150.663 L463.609 150.663 Q463.047 150.663 462.813 150.639 Q462.602 150.616 462.438 150.499 Q462.274 150.358 462.274 150.077 Q462.274 149.632 462.462 149.445 Q462.672 149.234 462.907 149.211 Q463.141 149.164 463.703 149.164 L467.029 149.164 Q468.153 143.238 468.598 141.645 Q469.114 139.959 469.91 138.788 Q470.706 137.593 471.596 137.031 Q472.486 136.469 473.213 136.258 Q473.962 136.024 474.688 136.024 Q476.328 136.024 477.593 136.914 Q478.857 137.78 478.857 139.326 Z" fill="#000000" fill-rule="evenodd" fill-opacity="1" /><path clip-path="url(#clip620)" d="M485.316 157.854 Q485.316 149.749 488.338 143.214 Q489.626 140.474 491.429 138.179 Q493.233 135.883 494.427 134.876 Q495.622 133.869 495.95 133.869 Q496.418 133.869 496.442 134.337 Q496.442 134.572 495.809 135.157 Q488.08 143.027 488.103 157.854 Q488.103 172.727 495.622 180.292 Q496.442 181.112 496.442 181.37 Q496.442 181.838 495.95 181.838 Q495.622 181.838 494.474 180.878 Q493.327 179.917 491.547 177.716 Q489.766 175.514 488.478 172.82 Q485.316 166.286 485.316 157.854 Z" fill="#000000" fill-rule="evenodd" fill-opacity="1" /><path clip-path="url(#clip620)" d="M523.979 151.811 Q523.979 153.122 523.16 153.872 Q522.34 154.598 521.403 154.598 Q520.513 154.598 520.044 154.083 Q519.576 153.567 519.576 152.911 Q519.576 152.021 520.232 151.248 Q520.888 150.475 521.871 150.311 Q520.911 149.703 519.482 149.703 Q518.545 149.703 517.726 150.194 Q516.929 150.686 516.437 151.319 Q515.969 151.951 515.547 152.865 Q515.149 153.755 514.985 154.293 Q514.845 154.809 514.728 155.371 L513.088 161.929 Q512.292 165.044 512.292 166.145 Q512.292 167.504 512.947 168.417 Q513.603 169.307 514.915 169.307 Q515.43 169.307 516.016 169.167 Q516.601 169.003 517.351 168.581 Q518.124 168.136 518.803 167.48 Q519.506 166.801 520.185 165.653 Q520.864 164.506 521.309 163.03 Q521.45 162.515 521.918 162.515 Q522.504 162.515 522.504 162.983 Q522.504 163.381 522.176 164.224 Q521.871 165.044 521.192 166.122 Q520.536 167.176 519.67 168.136 Q518.803 169.073 517.515 169.729 Q516.227 170.385 514.821 170.385 Q512.807 170.385 511.472 169.307 Q510.137 168.23 509.645 166.731 Q509.528 166.941 509.364 167.223 Q509.2 167.504 508.708 168.136 Q508.24 168.745 507.701 169.213 Q507.162 169.658 506.319 170.01 Q505.499 170.385 504.609 170.385 Q503.485 170.385 502.478 170.057 Q501.494 169.729 500.791 168.979 Q500.089 168.23 500.089 167.199 Q500.089 166.051 500.861 165.255 Q501.658 164.435 502.735 164.435 Q503.414 164.435 503.953 164.833 Q504.515 165.232 504.515 166.098 Q504.515 167.059 503.86 167.785 Q503.204 168.511 502.267 168.698 Q503.227 169.307 504.656 169.307 Q506.202 169.307 507.42 167.949 Q508.638 166.59 509.223 164.318 Q510.675 158.861 511.238 156.425 Q511.8 153.965 511.8 152.911 Q511.8 151.928 511.542 151.248 Q511.284 150.569 510.839 150.265 Q510.418 149.937 510.02 149.82 Q509.645 149.703 509.223 149.703 Q508.521 149.703 507.724 149.984 Q506.951 150.265 506.014 150.92 Q505.101 151.553 504.234 152.865 Q503.368 154.176 502.782 155.98 Q502.665 156.518 502.15 156.518 Q501.588 156.495 501.588 156.027 Q501.588 155.628 501.892 154.809 Q502.22 153.965 502.876 152.911 Q503.555 151.857 504.422 150.92 Q505.312 149.96 506.6 149.304 Q507.912 148.649 509.317 148.649 Q509.949 148.649 510.558 148.789 Q511.191 148.906 511.94 149.257 Q512.713 149.609 513.392 150.382 Q514.072 151.155 514.493 152.279 Q514.774 151.74 515.149 151.225 Q515.547 150.71 516.156 150.077 Q516.789 149.421 517.655 149.047 Q518.545 148.649 519.529 148.649 Q520.489 148.649 521.426 148.906 Q522.363 149.14 523.16 149.913 Q523.979 150.663 523.979 151.811 Z" fill="#000000" fill-rule="evenodd" fill-opacity="1" /><path clip-path="url(#clip620)" d="M528.599 181.37 Q528.599 181.135 529.208 180.55 Q536.937 172.68 536.937 157.854 Q536.937 142.98 529.513 135.462 Q528.599 134.595 528.599 134.337 Q528.599 133.869 529.068 133.869 Q529.395 133.869 530.543 134.829 Q531.714 135.79 533.471 137.991 Q535.251 140.193 536.563 142.887 Q539.725 149.421 539.725 157.854 Q539.725 165.958 536.703 172.493 Q535.415 175.233 533.611 177.528 Q531.808 179.824 530.613 180.831 Q529.419 181.838 529.068 181.838 Q528.599 181.838 528.599 181.37 Z" fill="#000000" fill-rule="evenodd" fill-opacity="1" /><path clip-path="url(#clip620)" d="M560.331 162.561 Q560.378 161.976 561.291 161.976 L590.686 161.976 Q592.068 161.976 592.092 162.515 Q592.092 163.1 590.78 163.077 L561.619 163.077 Q560.331 163.1 560.331 162.561 M560.331 153.192 Q560.331 152.607 561.338 152.63 L590.639 152.63 Q592.068 152.63 592.092 153.192 Q592.092 153.731 590.874 153.731 L561.291 153.731 Q560.331 153.731 560.331 153.192 Z" fill="#000000" fill-rule="evenodd" fill-opacity="1" /><path clip-path="url(#clip620)" d="M655.578 157.174 Q655.859 157.455 655.859 157.854 Q655.859 158.252 655.578 158.533 Q655.296 158.814 654.898 158.814 L624.871 158.814 Q624.473 158.814 624.191 158.533 Q623.91 158.252 623.91 157.854 Q623.91 157.455 624.191 157.174 Q624.473 156.893 624.871 156.893 L654.898 156.893 Q655.296 156.893 655.578 157.174 Z" fill="#000000" fill-rule="evenodd" fill-opacity="1" /><path clip-path="url(#clip620)" d="M698.069 151.811 Q698.069 153.122 697.25 153.872 Q696.43 154.598 695.493 154.598 Q694.603 154.598 694.134 154.083 Q693.666 153.567 693.666 152.911 Q693.666 152.021 694.322 151.248 Q694.978 150.475 695.961 150.311 Q695.001 149.703 693.572 149.703 Q692.635 149.703 691.816 150.194 Q691.019 150.686 690.527 151.319 Q690.059 151.951 689.637 152.865 Q689.239 153.755 689.075 154.293 Q688.935 154.809 688.818 155.371 L687.178 161.929 Q686.382 165.044 686.382 166.145 Q686.382 167.504 687.037 168.417 Q687.693 169.307 689.005 169.307 Q689.52 169.307 690.106 169.167 Q690.691 169.003 691.441 168.581 Q692.214 168.136 692.893 167.48 Q693.596 166.801 694.275 165.653 Q694.954 164.506 695.399 163.03 Q695.54 162.515 696.008 162.515 Q696.594 162.515 696.594 162.983 Q696.594 163.381 696.266 164.224 Q695.961 165.044 695.282 166.122 Q694.626 167.176 693.76 168.136 Q692.893 169.073 691.605 169.729 Q690.317 170.385 688.911 170.385 Q686.897 170.385 685.562 169.307 Q684.227 168.23 683.735 166.731 Q683.618 166.941 683.454 167.223 Q683.29 167.504 682.798 168.136 Q682.33 168.745 681.791 169.213 Q681.252 169.658 680.409 170.01 Q679.589 170.385 678.699 170.385 Q677.575 170.385 676.568 170.057 Q675.584 169.729 674.881 168.979 Q674.179 168.23 674.179 167.199 Q674.179 166.051 674.951 165.255 Q675.748 164.435 676.825 164.435 Q677.505 164.435 678.043 164.833 Q678.605 165.232 678.605 166.098 Q678.605 167.059 677.95 167.785 Q677.294 168.511 676.357 168.698 Q677.317 169.307 678.746 169.307 Q680.292 169.307 681.51 167.949 Q682.728 166.59 683.313 164.318 Q684.765 158.861 685.328 156.425 Q685.89 153.965 685.89 152.911 Q685.89 151.928 685.632 151.248 Q685.374 150.569 684.929 150.265 Q684.508 149.937 684.11 149.82 Q683.735 149.703 683.313 149.703 Q682.611 149.703 681.814 149.984 Q681.041 150.265 680.104 150.92 Q679.191 151.553 678.324 152.865 Q677.458 154.176 676.872 155.98 Q676.755 156.518 676.24 156.518 Q675.678 156.495 675.678 156.027 Q675.678 155.628 675.982 154.809 Q676.31 153.965 676.966 152.911 Q677.645 151.857 678.512 150.92 Q679.402 149.96 680.69 149.304 Q682.002 148.649 683.407 148.649 Q684.039 148.649 684.648 148.789 Q685.281 148.906 686.03 149.257 Q686.803 149.609 687.482 150.382 Q688.162 151.155 688.583 152.279 Q688.864 151.74 689.239 151.225 Q689.637 150.71 690.246 150.077 Q690.879 149.421 691.745 149.047 Q692.635 148.649 693.619 148.649 Q694.579 148.649 695.516 148.906 Q696.453 149.14 697.25 149.913 Q698.069 150.663 698.069 151.811 Z" fill="#000000" fill-rule="evenodd" fill-opacity="1" /><path clip-path="url(#clip620)" d="M702.959 155.49 Q702.959 154.884 703.008 154.703 Q703.073 154.523 703.336 154.244 L709.779 147.063 Q713.304 143.095 713.304 139.636 Q713.304 137.389 712.124 135.783 Q710.96 134.176 708.812 134.176 Q707.336 134.176 706.09 135.078 Q704.844 135.979 704.27 137.586 Q704.369 137.553 704.713 137.553 Q705.549 137.553 706.008 138.078 Q706.484 138.603 706.484 139.308 Q706.484 140.209 705.893 140.652 Q705.32 141.078 704.746 141.078 Q704.516 141.078 704.205 141.029 Q703.909 140.98 703.434 140.521 Q702.959 140.045 702.959 139.209 Q702.959 136.865 704.729 134.996 Q706.516 133.126 709.238 133.126 Q712.32 133.126 714.337 134.963 Q716.37 136.783 716.37 139.636 Q716.37 140.636 716.059 141.554 Q715.764 142.456 715.354 143.161 Q714.96 143.866 713.878 144.997 Q712.796 146.128 711.927 146.932 Q711.058 147.735 709.107 149.44 L705.549 152.9 L711.599 152.9 Q714.55 152.9 714.78 152.637 Q715.108 152.162 715.518 149.653 L716.37 149.653 L715.419 155.49 L702.959 155.49 Z" fill="#000000" fill-rule="evenodd" fill-opacity="1" /><path clip-path="url(#clip620)" d="M735.77 158.439 Q734.669 158.439 734.669 157.854 Q734.669 157.268 735.817 157.268 Q735.957 157.268 736.191 157.291 Q736.449 157.315 736.496 157.315 L750.011 157.315 L750.011 143.753 Q750.011 143.706 749.987 143.496 Q749.964 143.261 749.964 143.121 Q749.964 141.973 750.526 141.973 Q751.111 141.973 751.111 143.121 L751.111 157.315 L764.65 157.315 Q764.696 157.315 764.931 157.291 Q765.165 157.268 765.305 157.268 Q766.406 157.268 766.406 157.854 Q766.43 158.439 765.259 158.439 Q765.118 158.439 764.907 158.416 Q764.696 158.392 764.65 158.392 L751.111 158.392 L751.111 172.633 Q751.111 173.734 750.526 173.734 Q749.964 173.734 749.964 172.586 Q749.964 172.446 749.987 172.211 Q750.011 172.001 750.011 171.954 L750.011 158.392 L736.496 158.392 Q736.449 158.392 736.168 158.416 Q735.91 158.439 735.77 158.439 Z" fill="#000000" fill-rule="evenodd" fill-opacity="1" /><path clip-path="url(#clip620)" d="M784.937 154.691 Q784.937 147.149 788.778 142.535 Q792.62 137.898 797.562 137.898 Q800.443 137.898 802.035 139.373 Q803.652 140.825 803.652 143.074 Q803.652 144.315 802.925 144.854 Q802.199 145.393 801.45 145.393 Q800.583 145.393 799.904 144.807 Q799.225 144.222 799.225 143.168 Q799.225 141.013 801.871 141.013 Q800.63 139.092 797.655 139.092 Q796.742 139.092 795.805 139.373 Q794.868 139.631 793.65 140.521 Q792.432 141.411 791.495 142.816 Q790.558 144.222 789.903 146.868 Q789.247 149.515 789.247 152.958 L789.247 154.106 Q791.214 149.351 795.243 149.375 Q799.272 149.375 802.059 152.443 Q804.846 155.511 804.846 160.055 Q804.846 164.716 801.942 167.808 Q799.037 170.9 794.962 170.9 Q793.135 170.9 791.472 170.127 Q789.832 169.377 788.286 167.644 Q786.764 165.911 785.851 162.585 Q784.937 159.259 784.937 154.691 M789.34 159.001 Q789.34 163.709 790.207 165.958 Q790.348 166.332 790.652 166.848 Q790.98 167.363 791.519 168.042 Q792.081 168.698 792.994 169.143 Q793.908 169.565 794.962 169.565 Q798.171 169.565 799.717 166.45 Q800.536 164.716 800.536 160.008 Q800.536 155.207 799.67 153.45 Q798.194 150.475 795.196 150.475 Q793.182 150.475 791.776 151.857 Q790.394 153.239 789.856 155.09 Q789.34 156.94 789.34 159.001 Z" fill="#000000" fill-rule="evenodd" fill-opacity="1" /><path clip-path="url(#clip620)" d="M831.816 151.811 Q831.816 153.122 830.996 153.872 Q830.177 154.598 829.24 154.598 Q828.35 154.598 827.881 154.083 Q827.413 153.567 827.413 152.911 Q827.413 152.021 828.069 151.248 Q828.724 150.475 829.708 150.311 Q828.748 149.703 827.319 149.703 Q826.382 149.703 825.562 150.194 Q824.766 150.686 824.274 151.319 Q823.806 151.951 823.384 152.865 Q822.986 153.755 822.822 154.293 Q822.681 154.809 822.564 155.371 L820.925 161.929 Q820.128 165.044 820.128 166.145 Q820.128 167.504 820.784 168.417 Q821.44 169.307 822.752 169.307 Q823.267 169.307 823.853 169.167 Q824.438 169.003 825.188 168.581 Q825.961 168.136 826.64 167.48 Q827.343 166.801 828.022 165.653 Q828.701 164.506 829.146 163.03 Q829.287 162.515 829.755 162.515 Q830.341 162.515 830.341 162.983 Q830.341 163.381 830.013 164.224 Q829.708 165.044 829.029 166.122 Q828.373 167.176 827.506 168.136 Q826.64 169.073 825.352 169.729 Q824.063 170.385 822.658 170.385 Q820.644 170.385 819.309 169.307 Q817.974 168.23 817.482 166.731 Q817.365 166.941 817.201 167.223 Q817.037 167.504 816.545 168.136 Q816.076 168.745 815.538 169.213 Q814.999 169.658 814.156 170.01 Q813.336 170.385 812.446 170.385 Q811.322 170.385 810.314 170.057 Q809.331 169.729 808.628 168.979 Q807.925 168.23 807.925 167.199 Q807.925 166.051 808.698 165.255 Q809.495 164.435 810.572 164.435 Q811.251 164.435 811.79 164.833 Q812.352 165.232 812.352 166.098 Q812.352 167.059 811.696 167.785 Q811.04 168.511 810.104 168.698 Q811.064 169.307 812.493 169.307 Q814.039 169.307 815.257 167.949 Q816.474 166.59 817.06 164.318 Q818.512 158.861 819.074 156.425 Q819.637 153.965 819.637 152.911 Q819.637 151.928 819.379 151.248 Q819.121 150.569 818.676 150.265 Q818.255 149.937 817.856 149.82 Q817.482 149.703 817.06 149.703 Q816.357 149.703 815.561 149.984 Q814.788 150.265 813.851 150.92 Q812.938 151.553 812.071 152.865 Q811.204 154.176 810.619 155.98 Q810.502 156.518 809.986 156.518 Q809.424 156.495 809.424 156.027 Q809.424 155.628 809.729 154.809 Q810.057 153.965 810.713 152.911 Q811.392 151.857 812.258 150.92 Q813.149 149.96 814.437 149.304 Q815.748 148.649 817.154 148.649 Q817.786 148.649 818.395 148.789 Q819.028 148.906 819.777 149.257 Q820.55 149.609 821.229 150.382 Q821.909 151.155 822.33 152.279 Q822.611 151.74 822.986 151.225 Q823.384 150.71 823.993 150.077 Q824.626 149.421 825.492 149.047 Q826.382 148.649 827.366 148.649 Q828.326 148.649 829.263 148.906 Q830.2 149.14 830.996 149.913 Q831.816 150.663 831.816 151.811 Z" fill="#000000" fill-rule="evenodd" fill-opacity="1" /><polyline clip-path="url(#clip620)" style="stroke:#3da44d; stroke-linecap:round; stroke-linejoin:round; stroke-width:4; stroke-opacity:1; fill:none" points="
  261.263,209.375 427.275,209.375 
  "/>
<path clip-path="url(#clip620)" d="M476.96 202.737 Q476.96 202.76 476.82 203.604 L471.479 224.895 Q471.198 226.019 470.402 227.143 Q469.629 228.291 468.388 229.275 Q467.17 230.282 465.296 230.891 Q463.445 231.523 461.314 231.523 Q457.918 231.523 456.419 230.797 Q454.943 230.094 454.943 228.595 Q454.943 227.284 455.763 226.534 Q456.583 225.808 457.52 225.808 Q458.41 225.808 458.878 226.323 Q459.346 226.839 459.346 227.495 Q459.346 228.221 458.855 228.947 Q458.363 229.696 457.379 229.977 Q458.948 230.469 461.22 230.469 Q466.022 230.469 468.083 225.387 Q468.13 225.316 468.13 225.293 L469.723 218.945 L469.652 218.899 Q469.254 219.367 468.622 219.906 Q468.013 220.421 466.701 221.053 Q465.389 221.686 464.101 221.686 Q461.408 221.686 459.557 219.625 Q457.73 217.54 457.73 214.097 Q457.73 211.591 458.738 209.085 Q459.768 206.555 461.361 204.705 Q462.977 202.831 465.038 201.66 Q467.123 200.489 469.137 200.489 Q470.542 200.489 471.737 201.332 Q472.932 202.151 473.587 203.51 Q473.704 202.386 474.337 201.917 Q474.993 201.449 475.555 201.449 Q476.187 201.449 476.562 201.8 Q476.96 202.128 476.96 202.737 M473.025 205.665 Q473.025 205.524 472.932 205.15 Q472.838 204.751 472.557 204.119 Q472.299 203.487 471.901 202.924 Q471.503 202.362 470.777 201.964 Q470.074 201.543 469.184 201.543 Q467.732 201.543 466.28 202.76 Q464.827 203.955 463.82 205.805 Q462.883 207.586 461.993 211.029 Q461.127 214.472 461.127 216.228 Q461.127 217.962 461.876 219.297 Q462.626 220.632 464.242 220.632 Q466.116 220.632 468.13 218.899 Q470.215 217.095 470.566 215.549 L472.885 206.391 Q473.025 205.829 473.025 205.665 Z" fill="#000000" fill-rule="evenodd" fill-opacity="1" /><path clip-path="url(#clip620)" d="M483.538 209.694 Q483.538 201.589 486.559 195.054 Q487.847 192.314 489.651 190.019 Q491.455 187.723 492.649 186.716 Q493.844 185.709 494.172 185.709 Q494.64 185.709 494.663 186.177 Q494.663 186.412 494.031 186.997 Q486.302 194.867 486.325 209.694 Q486.325 224.567 493.844 232.132 Q494.663 232.952 494.663 233.21 Q494.663 233.678 494.172 233.678 Q493.844 233.678 492.696 232.718 Q491.548 231.757 489.768 229.556 Q487.988 227.354 486.7 224.66 Q483.538 218.126 483.538 209.694 Z" fill="#000000" fill-rule="evenodd" fill-opacity="1" /><path clip-path="url(#clip620)" d="M522.201 203.651 Q522.201 204.962 521.381 205.712 Q520.561 206.438 519.625 206.438 Q518.734 206.438 518.266 205.923 Q517.798 205.407 517.798 204.751 Q517.798 203.861 518.453 203.088 Q519.109 202.315 520.093 202.151 Q519.133 201.543 517.704 201.543 Q516.767 201.543 515.947 202.034 Q515.151 202.526 514.659 203.159 Q514.191 203.791 513.769 204.705 Q513.371 205.595 513.207 206.133 Q513.066 206.649 512.949 207.211 L511.31 213.769 Q510.513 216.884 510.513 217.985 Q510.513 219.344 511.169 220.257 Q511.825 221.147 513.137 221.147 Q513.652 221.147 514.237 221.007 Q514.823 220.843 515.572 220.421 Q516.345 219.976 517.025 219.32 Q517.727 218.641 518.407 217.493 Q519.086 216.346 519.531 214.87 Q519.671 214.355 520.14 214.355 Q520.725 214.355 520.725 214.823 Q520.725 215.221 520.397 216.064 Q520.093 216.884 519.414 217.962 Q518.758 219.016 517.891 219.976 Q517.025 220.913 515.736 221.569 Q514.448 222.225 513.043 222.225 Q511.029 222.225 509.693 221.147 Q508.358 220.07 507.866 218.571 Q507.749 218.781 507.585 219.063 Q507.421 219.344 506.93 219.976 Q506.461 220.585 505.922 221.053 Q505.384 221.498 504.54 221.85 Q503.721 222.225 502.831 222.225 Q501.706 222.225 500.699 221.897 Q499.715 221.569 499.013 220.819 Q498.31 220.07 498.31 219.039 Q498.31 217.891 499.083 217.095 Q499.879 216.275 500.957 216.275 Q501.636 216.275 502.175 216.673 Q502.737 217.072 502.737 217.938 Q502.737 218.899 502.081 219.625 Q501.425 220.351 500.488 220.538 Q501.449 221.147 502.878 221.147 Q504.423 221.147 505.641 219.789 Q506.859 218.43 507.445 216.158 Q508.897 210.701 509.459 208.265 Q510.021 205.805 510.021 204.751 Q510.021 203.768 509.764 203.088 Q509.506 202.409 509.061 202.105 Q508.639 201.777 508.241 201.66 Q507.866 201.543 507.445 201.543 Q506.742 201.543 505.946 201.824 Q505.173 202.105 504.236 202.76 Q503.323 203.393 502.456 204.705 Q501.589 206.016 501.004 207.82 Q500.887 208.358 500.371 208.358 Q499.809 208.335 499.809 207.867 Q499.809 207.468 500.114 206.649 Q500.442 205.805 501.097 204.751 Q501.777 203.697 502.643 202.76 Q503.533 201.8 504.822 201.144 Q506.133 200.489 507.539 200.489 Q508.171 200.489 508.78 200.629 Q509.412 200.746 510.162 201.097 Q510.935 201.449 511.614 202.222 Q512.293 202.995 512.715 204.119 Q512.996 203.58 513.371 203.065 Q513.769 202.55 514.378 201.917 Q515.01 201.261 515.877 200.887 Q516.767 200.489 517.751 200.489 Q518.711 200.489 519.648 200.746 Q520.585 200.98 521.381 201.753 Q522.201 202.503 522.201 203.651 Z" fill="#000000" fill-rule="evenodd" fill-opacity="1" /><path clip-path="url(#clip620)" d="M526.821 233.21 Q526.821 232.975 527.43 232.39 Q535.159 224.52 535.159 209.694 Q535.159 194.82 527.734 187.302 Q526.821 186.435 526.821 186.177 Q526.821 185.709 527.289 185.709 Q527.617 185.709 528.765 186.669 Q529.936 187.63 531.693 189.831 Q533.473 192.033 534.784 194.727 Q537.946 201.261 537.946 209.694 Q537.946 217.798 534.925 224.333 Q533.637 227.073 531.833 229.368 Q530.03 231.664 528.835 232.671 Q527.64 233.678 527.289 233.678 Q526.821 233.678 526.821 233.21 Z" fill="#000000" fill-rule="evenodd" fill-opacity="1" /><path clip-path="url(#clip620)" d="M558.552 214.401 Q558.599 213.816 559.513 213.816 L588.908 213.816 Q590.29 213.816 590.313 214.355 Q590.313 214.94 589.002 214.917 L559.841 214.917 Q558.552 214.94 558.552 214.401 M558.552 205.032 Q558.552 204.447 559.56 204.47 L588.861 204.47 Q590.29 204.47 590.313 205.032 Q590.313 205.571 589.095 205.571 L559.513 205.571 Q558.552 205.571 558.552 205.032 Z" fill="#000000" fill-rule="evenodd" fill-opacity="1" /><path clip-path="url(#clip620)" d="M632.711 203.651 Q632.711 204.962 631.892 205.712 Q631.072 206.438 630.135 206.438 Q629.245 206.438 628.777 205.923 Q628.308 205.407 628.308 204.751 Q628.308 203.861 628.964 203.088 Q629.62 202.315 630.603 202.151 Q629.643 201.543 628.214 201.543 Q627.277 201.543 626.458 202.034 Q625.661 202.526 625.169 203.159 Q624.701 203.791 624.279 204.705 Q623.881 205.595 623.717 206.133 Q623.577 206.649 623.46 207.211 L621.82 213.769 Q621.024 216.884 621.024 217.985 Q621.024 219.344 621.68 220.257 Q622.335 221.147 623.647 221.147 Q624.162 221.147 624.748 221.007 Q625.333 220.843 626.083 220.421 Q626.856 219.976 627.535 219.32 Q628.238 218.641 628.917 217.493 Q629.596 216.346 630.041 214.87 Q630.182 214.355 630.65 214.355 Q631.236 214.355 631.236 214.823 Q631.236 215.221 630.908 216.064 Q630.603 216.884 629.924 217.962 Q629.268 219.016 628.402 219.976 Q627.535 220.913 626.247 221.569 Q624.959 222.225 623.553 222.225 Q621.539 222.225 620.204 221.147 Q618.869 220.07 618.377 218.571 Q618.26 218.781 618.096 219.063 Q617.932 219.344 617.44 219.976 Q616.972 220.585 616.433 221.053 Q615.894 221.498 615.051 221.85 Q614.231 222.225 613.341 222.225 Q612.217 222.225 611.21 221.897 Q610.226 221.569 609.523 220.819 Q608.821 220.07 608.821 219.039 Q608.821 217.891 609.594 217.095 Q610.39 216.275 611.467 216.275 Q612.147 216.275 612.685 216.673 Q613.247 217.072 613.247 217.938 Q613.247 218.899 612.592 219.625 Q611.936 220.351 610.999 220.538 Q611.959 221.147 613.388 221.147 Q614.934 221.147 616.152 219.789 Q617.37 218.43 617.955 216.158 Q619.408 210.701 619.97 208.265 Q620.532 205.805 620.532 204.751 Q620.532 203.768 620.274 203.088 Q620.017 202.409 619.572 202.105 Q619.15 201.777 618.752 201.66 Q618.377 201.543 617.955 201.543 Q617.253 201.543 616.456 201.824 Q615.683 202.105 614.746 202.76 Q613.833 203.393 612.966 204.705 Q612.1 206.016 611.514 207.82 Q611.397 208.358 610.882 208.358 Q610.32 208.335 610.32 207.867 Q610.32 207.468 610.624 206.649 Q610.952 205.805 611.608 204.751 Q612.287 203.697 613.154 202.76 Q614.044 201.8 615.332 201.144 Q616.644 200.489 618.049 200.489 Q618.681 200.489 619.29 200.629 Q619.923 200.746 620.672 201.097 Q621.445 201.449 622.125 202.222 Q622.804 202.995 623.225 204.119 Q623.506 203.58 623.881 203.065 Q624.279 202.55 624.888 201.917 Q625.521 201.261 626.387 200.887 Q627.277 200.489 628.261 200.489 Q629.222 200.489 630.158 200.746 Q631.095 200.98 631.892 201.753 Q632.711 202.503 632.711 203.651 Z" fill="#000000" fill-rule="evenodd" fill-opacity="1" /><path clip-path="url(#clip620)" d="M637.601 207.33 Q637.601 206.724 637.65 206.543 Q637.715 206.363 637.978 206.084 L644.421 198.903 Q647.946 194.935 647.946 191.476 Q647.946 189.229 646.766 187.623 Q645.602 186.016 643.454 186.016 Q641.978 186.016 640.732 186.918 Q639.486 187.819 638.912 189.426 Q639.011 189.393 639.355 189.393 Q640.191 189.393 640.65 189.918 Q641.126 190.443 641.126 191.148 Q641.126 192.049 640.535 192.492 Q639.962 192.918 639.388 192.918 Q639.158 192.918 638.847 192.869 Q638.552 192.82 638.076 192.361 Q637.601 191.885 637.601 191.049 Q637.601 188.705 639.371 186.836 Q641.158 184.966 643.88 184.966 Q646.963 184.966 648.979 186.803 Q651.012 188.623 651.012 191.476 Q651.012 192.476 650.701 193.394 Q650.406 194.296 649.996 195.001 Q649.602 195.706 648.52 196.837 Q647.438 197.968 646.569 198.772 Q645.7 199.575 643.749 201.28 L640.191 204.74 L646.241 204.74 Q649.192 204.74 649.422 204.477 Q649.75 204.002 650.16 201.493 L651.012 201.493 L650.061 207.33 L637.601 207.33 Z" fill="#000000" fill-rule="evenodd" fill-opacity="1" /><path clip-path="url(#clip620)" d="M700.978 209.014 Q701.259 209.295 701.259 209.694 Q701.259 210.092 700.978 210.373 Q700.697 210.654 700.299 210.654 L670.271 210.654 Q669.873 210.654 669.592 210.373 Q669.311 210.092 669.311 209.694 Q669.311 209.295 669.592 209.014 Q669.873 208.733 670.271 208.733 L700.299 208.733 Q700.697 208.733 700.978 209.014 Z" fill="#000000" fill-rule="evenodd" fill-opacity="1" /><path clip-path="url(#clip620)" d="M719.579 221.686 Q719.579 220.819 719.649 220.562 Q719.743 220.304 720.118 219.906 L729.323 209.647 Q734.359 203.978 734.359 199.036 Q734.359 195.827 732.672 193.532 Q731.009 191.237 727.941 191.237 Q725.833 191.237 724.053 192.525 Q722.273 193.813 721.453 196.109 Q721.593 196.062 722.085 196.062 Q723.28 196.062 723.936 196.811 Q724.615 197.561 724.615 198.568 Q724.615 199.856 723.772 200.489 Q722.952 201.097 722.132 201.097 Q721.804 201.097 721.359 201.027 Q720.938 200.957 720.258 200.301 Q719.579 199.622 719.579 198.427 Q719.579 195.078 722.109 192.408 Q724.662 189.738 728.55 189.738 Q732.953 189.738 735.834 192.361 Q738.739 194.961 738.739 199.036 Q738.739 200.465 738.294 201.777 Q737.872 203.065 737.287 204.072 Q736.724 205.079 735.178 206.695 Q733.633 208.312 732.391 209.459 Q731.15 210.607 728.363 213.043 L723.28 217.985 L731.923 217.985 Q736.139 217.985 736.467 217.61 Q736.935 216.931 737.521 213.347 L738.739 213.347 L737.38 221.686 L719.579 221.686 Z" fill="#000000" fill-rule="evenodd" fill-opacity="1" /><path clip-path="url(#clip620)" d="M766.458 203.651 Q766.458 204.962 765.638 205.712 Q764.819 206.438 763.882 206.438 Q762.992 206.438 762.523 205.923 Q762.055 205.407 762.055 204.751 Q762.055 203.861 762.711 203.088 Q763.367 202.315 764.35 202.151 Q763.39 201.543 761.961 201.543 Q761.024 201.543 760.204 202.034 Q759.408 202.526 758.916 203.159 Q758.448 203.791 758.026 204.705 Q757.628 205.595 757.464 206.133 Q757.324 206.649 757.206 207.211 L755.567 213.769 Q754.77 216.884 754.77 217.985 Q754.77 219.344 755.426 220.257 Q756.082 221.147 757.394 221.147 Q757.909 221.147 758.495 221.007 Q759.08 220.843 759.83 220.421 Q760.603 219.976 761.282 219.32 Q761.985 218.641 762.664 217.493 Q763.343 216.346 763.788 214.87 Q763.929 214.355 764.397 214.355 Q764.983 214.355 764.983 214.823 Q764.983 215.221 764.655 216.064 Q764.35 216.884 763.671 217.962 Q763.015 219.016 762.149 219.976 Q761.282 220.913 759.994 221.569 Q758.705 222.225 757.3 222.225 Q755.286 222.225 753.951 221.147 Q752.616 220.07 752.124 218.571 Q752.007 218.781 751.843 219.063 Q751.679 219.344 751.187 219.976 Q750.718 220.585 750.18 221.053 Q749.641 221.498 748.798 221.85 Q747.978 222.225 747.088 222.225 Q745.964 222.225 744.956 221.897 Q743.973 221.569 743.27 220.819 Q742.567 220.07 742.567 219.039 Q742.567 217.891 743.34 217.095 Q744.137 216.275 745.214 216.275 Q745.893 216.275 746.432 216.673 Q746.994 217.072 746.994 217.938 Q746.994 218.899 746.338 219.625 Q745.683 220.351 744.746 220.538 Q745.706 221.147 747.135 221.147 Q748.681 221.147 749.899 219.789 Q751.117 218.43 751.702 216.158 Q753.154 210.701 753.716 208.265 Q754.279 205.805 754.279 204.751 Q754.279 203.768 754.021 203.088 Q753.763 202.409 753.318 202.105 Q752.897 201.777 752.499 201.66 Q752.124 201.543 751.702 201.543 Q750.999 201.543 750.203 201.824 Q749.43 202.105 748.493 202.76 Q747.58 203.393 746.713 204.705 Q745.847 206.016 745.261 207.82 Q745.144 208.358 744.629 208.358 Q744.066 208.335 744.066 207.867 Q744.066 207.468 744.371 206.649 Q744.699 205.805 745.355 204.751 Q746.034 203.697 746.901 202.76 Q747.791 201.8 749.079 201.144 Q750.39 200.489 751.796 200.489 Q752.428 200.489 753.037 200.629 Q753.67 200.746 754.419 201.097 Q755.192 201.449 755.871 202.222 Q756.551 202.995 756.972 204.119 Q757.253 203.58 757.628 203.065 Q758.026 202.55 758.635 201.917 Q759.268 201.261 760.134 200.887 Q761.024 200.489 762.008 200.489 Q762.968 200.489 763.905 200.746 Q764.842 200.98 765.638 201.753 Q766.458 202.503 766.458 203.651 Z" fill="#000000" fill-rule="evenodd" fill-opacity="1" /><path clip-path="url(#clip620)" d="M1330.33 920.751 Q1324.82 920.751 1321.58 924.518 Q1318.38 928.285 1318.38 934.848 Q1318.38 941.37 1321.58 945.178 Q1324.82 948.945 1330.33 948.945 Q1335.84 948.945 1339.04 945.178 Q1342.28 941.37 1342.28 934.848 Q1342.28 928.285 1339.04 924.518 Q1335.84 920.751 1330.33 920.751 M1346.58 895.108 L1346.58 902.562 Q1343.5 901.104 1340.34 900.334 Q1337.22 899.564 1334.14 899.564 Q1326.04 899.564 1321.74 905.033 Q1317.49 910.502 1316.88 921.561 Q1319.27 918.037 1322.88 916.173 Q1326.48 914.269 1330.82 914.269 Q1339.93 914.269 1345.2 919.819 Q1350.51 925.328 1350.51 934.848 Q1350.51 944.165 1345 949.796 Q1339.49 955.426 1330.33 955.426 Q1319.84 955.426 1314.29 947.406 Q1308.74 939.344 1308.74 924.072 Q1308.74 909.732 1315.55 901.225 Q1322.35 892.678 1333.82 892.678 Q1336.89 892.678 1340.01 893.286 Q1343.17 893.893 1346.58 895.108 Z" fill="#000000" fill-rule="evenodd" fill-opacity="1" /><path clip-path="url(#clip620)" d="M1387.08 900.901 L1366.43 933.187 L1387.08 933.187 L1387.08 900.901 M1384.94 893.772 L1395.23 893.772 L1395.23 933.187 L1403.86 933.187 L1403.86 939.993 L1395.23 939.993 L1395.23 954.252 L1387.08 954.252 L1387.08 939.993 L1359.78 939.993 L1359.78 932.093 L1384.94 893.772 Z" fill="#000000" fill-rule="evenodd" fill-opacity="1" /><path clip-path="url(#clip620)" d="M1429.58 893.772 L1436.47 893.772 L1415.4 961.948 L1408.51 961.948 L1429.58 893.772 Z" fill="#000000" fill-rule="evenodd" fill-opacity="1" /><path clip-path="url(#clip620)" d="M1470.13 921.642 Q1476 922.898 1479.28 926.868 Q1482.61 930.837 1482.61 936.671 Q1482.61 945.623 1476.45 950.525 Q1470.29 955.426 1458.95 955.426 Q1455.14 955.426 1451.09 954.657 Q1447.08 953.928 1442.78 952.429 L1442.78 944.53 Q1446.19 946.514 1450.24 947.527 Q1454.29 948.54 1458.7 948.54 Q1466.4 948.54 1470.41 945.502 Q1474.46 942.464 1474.46 936.671 Q1474.46 931.324 1470.7 928.326 Q1466.97 925.288 1460.28 925.288 L1453.24 925.288 L1453.24 918.563 L1460.61 918.563 Q1466.64 918.563 1469.84 916.173 Q1473.04 913.743 1473.04 909.206 Q1473.04 904.547 1469.72 902.076 Q1466.44 899.564 1460.28 899.564 Q1456.92 899.564 1453.07 900.294 Q1449.23 901.023 1444.61 902.562 L1444.61 895.271 Q1449.27 893.974 1453.32 893.326 Q1457.41 892.678 1461.01 892.678 Q1470.33 892.678 1475.76 896.931 Q1481.19 901.144 1481.19 908.355 Q1481.19 913.378 1478.31 916.862 Q1475.43 920.305 1470.13 921.642 Z" fill="#000000" fill-rule="evenodd" fill-opacity="1" /></svg>
