<?xml version="1.0" encoding="utf-8"?>
<svg xmlns="http://www.w3.org/2000/svg" xmlns:xlink="http://www.w3.org/1999/xlink" width="672" height="480" viewBox="0 0 2688 1920">
<defs>
  <clipPath id="clip940">
    <rect x="0" y="0" width="2688" height="1920"/>
  </clipPath>
</defs>
<path clip-path="url(#clip940)" d="
M0 1920 L2688 1920 L2688 0 L0 0  Z
  " fill="#ffffff" fill-rule="evenodd" fill-opacity="1"/>
<defs>
  <clipPath id="clip941">
    <rect x="537" y="0" width="1883" height="1883"/>
  </clipPath>
</defs>
<defs>
  <clipPath id="clip942">
    <rect x="150" y="47" width="2491" height="1755"/>
  </clipPath>
</defs>
<path clip-path="url(#clip940)" d="
M189.154 1800.78 L2640.76 1800.78 L2640.76 47.2441 L189.154 47.2441  Z
  " fill="#ffffff" fill-rule="evenodd" fill-opacity="1"/>
<defs>
  <clipPath id="clip943">
    <rect x="189" y="47" width="2453" height="1755"/>
  </clipPath>
</defs>
<polyline clip-path="url(#clip943)" style="stroke:#000000; stroke-linecap:round; stroke-linejoin:round; stroke-width:2; stroke-opacity:0.1; fill:none" points="
  258.539,1800.78 258.539,47.2441 
  "/>
<polyline clip-path="url(#clip943)" style="stroke:#000000; stroke-linecap:round; stroke-linejoin:round; stroke-width:2; stroke-opacity:0.1; fill:none" points="
  836.747,1800.78 836.747,47.2441 
  "/>
<polyline clip-path="url(#clip943)" style="stroke:#000000; stroke-linecap:round; stroke-linejoin:round; stroke-width:2; stroke-opacity:0.1; fill:none" points="
  1414.95,1800.78 1414.95,47.2441 
  "/>
<polyline clip-path="url(#clip943)" style="stroke:#000000; stroke-linecap:round; stroke-linejoin:round; stroke-width:2; stroke-opacity:0.1; fill:none" points="
  1993.16,1800.78 1993.16,47.2441 
  "/>
<polyline clip-path="url(#clip943)" style="stroke:#000000; stroke-linecap:round; stroke-linejoin:round; stroke-width:2; stroke-opacity:0.1; fill:none" points="
  2571.37,1800.78 2571.37,47.2441 
  "/>
<polyline clip-path="url(#clip940)" style="stroke:#000000; stroke-linecap:round; stroke-linejoin:round; stroke-width:4; stroke-opacity:1; fill:none" points="
  189.154,1800.78 2640.76,1800.78 
  "/>
<polyline clip-path="url(#clip940)" style="stroke:#000000; stroke-linecap:round; stroke-linejoin:round; stroke-width:4; stroke-opacity:1; fill:none" points="
  258.539,1800.78 258.539,1781.88 
  "/>
<polyline clip-path="url(#clip940)" style="stroke:#000000; stroke-linecap:round; stroke-linejoin:round; stroke-width:4; stroke-opacity:1; fill:none" points="
  836.747,1800.78 836.747,1781.88 
  "/>
<polyline clip-path="url(#clip940)" style="stroke:#000000; stroke-linecap:round; stroke-linejoin:round; stroke-width:4; stroke-opacity:1; fill:none" points="
  1414.95,1800.78 1414.95,1781.88 
  "/>
<polyline clip-path="url(#clip940)" style="stroke:#000000; stroke-linecap:round; stroke-linejoin:round; stroke-width:4; stroke-opacity:1; fill:none" points="
  1993.16,1800.78 1993.16,1781.88 
  "/>
<polyline clip-path="url(#clip940)" style="stroke:#000000; stroke-linecap:round; stroke-linejoin:round; stroke-width:4; stroke-opacity:1; fill:none" points="
  2571.37,1800.78 2571.37,1781.88 
  "/>
<path clip-path="url(#clip940)" d="M235.923 1834 Q232.312 1834 230.484 1837.57 Q228.678 1841.11 228.678 1848.24 Q228.678 1855.34 230.484 1858.91 Q232.312 1862.45 235.923 1862.45 Q239.558 1862.45 241.363 1858.91 Q243.192 1855.34 243.192 1848.24 Q243.192 1841.11 241.363 1837.57 Q239.558 1834 235.923 1834 M235.923 1830.3 Q241.733 1830.3 244.789 1834.9 Q247.868 1839.49 247.868 1848.24 Q247.868 1856.96 244.789 1861.57 Q241.733 1866.15 235.923 1866.15 Q230.113 1866.15 227.035 1861.57 Q223.979 1856.96 223.979 1848.24 Q223.979 1839.49 227.035 1834.9 Q230.113 1830.3 235.923 1830.3 Z" fill="#000000" fill-rule="evenodd" fill-opacity="1" /><path clip-path="url(#clip940)" d="M256.085 1859.6 L260.97 1859.6 L260.97 1865.48 L256.085 1865.48 L256.085 1859.6 Z" fill="#000000" fill-rule="evenodd" fill-opacity="1" /><path clip-path="url(#clip940)" d="M281.155 1834 Q277.543 1834 275.715 1837.57 Q273.909 1841.11 273.909 1848.24 Q273.909 1855.34 275.715 1858.91 Q277.543 1862.45 281.155 1862.45 Q284.789 1862.45 286.594 1858.91 Q288.423 1855.34 288.423 1848.24 Q288.423 1841.11 286.594 1837.57 Q284.789 1834 281.155 1834 M281.155 1830.3 Q286.965 1830.3 290.02 1834.9 Q293.099 1839.49 293.099 1848.24 Q293.099 1856.96 290.02 1861.57 Q286.965 1866.15 281.155 1866.15 Q275.344 1866.15 272.266 1861.57 Q269.21 1856.96 269.21 1848.24 Q269.21 1839.49 272.266 1834.9 Q275.344 1830.3 281.155 1830.3 Z" fill="#000000" fill-rule="evenodd" fill-opacity="1" /><path clip-path="url(#clip940)" d="M808.483 1861.55 L824.803 1861.55 L824.803 1865.48 L802.858 1865.48 L802.858 1861.55 Q805.52 1858.79 810.104 1854.16 Q814.71 1849.51 815.891 1848.17 Q818.136 1845.65 819.016 1843.91 Q819.918 1842.15 819.918 1840.46 Q819.918 1837.71 817.974 1835.97 Q816.053 1834.23 812.951 1834.23 Q810.752 1834.23 808.298 1835 Q805.867 1835.76 803.09 1837.31 L803.09 1832.59 Q805.914 1831.46 808.367 1830.88 Q810.821 1830.3 812.858 1830.3 Q818.229 1830.3 821.423 1832.98 Q824.617 1835.67 824.617 1840.16 Q824.617 1842.29 823.807 1844.21 Q823.02 1846.11 820.914 1848.7 Q820.335 1849.37 817.233 1852.59 Q814.131 1855.78 808.483 1861.55 Z" fill="#000000" fill-rule="evenodd" fill-opacity="1" /><path clip-path="url(#clip940)" d="M834.617 1859.6 L839.502 1859.6 L839.502 1865.48 L834.617 1865.48 L834.617 1859.6 Z" fill="#000000" fill-rule="evenodd" fill-opacity="1" /><path clip-path="url(#clip940)" d="M849.733 1830.92 L868.089 1830.92 L868.089 1834.86 L854.015 1834.86 L854.015 1843.33 Q855.034 1842.98 856.052 1842.82 Q857.071 1842.64 858.089 1842.64 Q863.876 1842.64 867.256 1845.81 Q870.636 1848.98 870.636 1854.4 Q870.636 1859.97 867.163 1863.08 Q863.691 1866.15 857.372 1866.15 Q855.196 1866.15 852.927 1865.78 Q850.682 1865.41 848.275 1864.67 L848.275 1859.97 Q850.358 1861.11 852.58 1861.66 Q854.802 1862.22 857.279 1862.22 Q861.284 1862.22 863.622 1860.11 Q865.96 1858.01 865.96 1854.4 Q865.96 1850.78 863.622 1848.68 Q861.284 1846.57 857.279 1846.57 Q855.404 1846.57 853.529 1846.99 Q851.677 1847.4 849.733 1848.28 L849.733 1830.92 Z" fill="#000000" fill-rule="evenodd" fill-opacity="1" /><path clip-path="url(#clip940)" d="M1382.12 1830.92 L1400.48 1830.92 L1400.48 1834.86 L1386.4 1834.86 L1386.4 1843.33 Q1387.42 1842.98 1388.44 1842.82 Q1389.46 1842.64 1390.48 1842.64 Q1396.26 1842.64 1399.64 1845.81 Q1403.02 1848.98 1403.02 1854.4 Q1403.02 1859.97 1399.55 1863.08 Q1396.08 1866.15 1389.76 1866.15 Q1387.58 1866.15 1385.31 1865.78 Q1383.07 1865.41 1380.66 1864.67 L1380.66 1859.97 Q1382.74 1861.11 1384.97 1861.66 Q1387.19 1862.22 1389.67 1862.22 Q1393.67 1862.22 1396.01 1860.11 Q1398.35 1858.01 1398.35 1854.4 Q1398.35 1850.78 1396.01 1848.68 Q1393.67 1846.57 1389.67 1846.57 Q1387.79 1846.57 1385.92 1846.99 Q1384.06 1847.4 1382.12 1848.28 L1382.12 1830.92 Z" fill="#000000" fill-rule="evenodd" fill-opacity="1" /><path clip-path="url(#clip940)" d="M1412.24 1859.6 L1417.12 1859.6 L1417.12 1865.48 L1412.24 1865.48 L1412.24 1859.6 Z" fill="#000000" fill-rule="evenodd" fill-opacity="1" /><path clip-path="url(#clip940)" d="M1437.3 1834 Q1433.69 1834 1431.86 1837.57 Q1430.06 1841.11 1430.06 1848.24 Q1430.06 1855.34 1431.86 1858.91 Q1433.69 1862.45 1437.3 1862.45 Q1440.94 1862.45 1442.74 1858.91 Q1444.57 1855.34 1444.57 1848.24 Q1444.57 1841.11 1442.74 1837.57 Q1440.94 1834 1437.3 1834 M1437.3 1830.3 Q1443.11 1830.3 1446.17 1834.9 Q1449.25 1839.49 1449.25 1848.24 Q1449.25 1856.96 1446.17 1861.57 Q1443.11 1866.15 1437.3 1866.15 Q1431.49 1866.15 1428.42 1861.57 Q1425.36 1856.96 1425.36 1848.24 Q1425.36 1839.49 1428.42 1834.9 Q1431.49 1830.3 1437.3 1830.3 Z" fill="#000000" fill-rule="evenodd" fill-opacity="1" /><path clip-path="url(#clip940)" d="M1959.48 1830.92 L1981.7 1830.92 L1981.7 1832.91 L1969.16 1865.48 L1964.27 1865.48 L1976.08 1834.86 L1959.48 1834.86 L1959.48 1830.92 Z" fill="#000000" fill-rule="evenodd" fill-opacity="1" /><path clip-path="url(#clip940)" d="M1990.82 1859.6 L1995.71 1859.6 L1995.71 1865.48 L1990.82 1865.48 L1990.82 1859.6 Z" fill="#000000" fill-rule="evenodd" fill-opacity="1" /><path clip-path="url(#clip940)" d="M2005.94 1830.92 L2024.3 1830.92 L2024.3 1834.86 L2010.22 1834.86 L2010.22 1843.33 Q2011.24 1842.98 2012.26 1842.82 Q2013.28 1842.64 2014.3 1842.64 Q2020.08 1842.64 2023.46 1845.81 Q2026.84 1848.98 2026.84 1854.4 Q2026.84 1859.97 2023.37 1863.08 Q2019.9 1866.15 2013.58 1866.15 Q2011.4 1866.15 2009.14 1865.78 Q2006.89 1865.41 2004.48 1864.67 L2004.48 1859.97 Q2006.57 1861.11 2008.79 1861.66 Q2011.01 1862.22 2013.49 1862.22 Q2017.49 1862.22 2019.83 1860.11 Q2022.17 1858.01 2022.17 1854.4 Q2022.17 1850.78 2019.83 1848.68 Q2017.49 1846.57 2013.49 1846.57 Q2011.61 1846.57 2009.74 1846.99 Q2007.89 1847.4 2005.94 1848.28 L2005.94 1830.92 Z" fill="#000000" fill-rule="evenodd" fill-opacity="1" /><path clip-path="url(#clip940)" d="M2523.44 1861.55 L2531.08 1861.55 L2531.08 1835.18 L2522.77 1836.85 L2522.77 1832.59 L2531.04 1830.92 L2535.71 1830.92 L2535.71 1861.55 L2543.35 1861.55 L2543.35 1865.48 L2523.44 1865.48 L2523.44 1861.55 Z" fill="#000000" fill-rule="evenodd" fill-opacity="1" /><path clip-path="url(#clip940)" d="M2562.79 1834 Q2559.18 1834 2557.35 1837.57 Q2555.55 1841.11 2555.55 1848.24 Q2555.55 1855.34 2557.35 1858.91 Q2559.18 1862.45 2562.79 1862.45 Q2566.43 1862.45 2568.23 1858.91 Q2570.06 1855.34 2570.06 1848.24 Q2570.06 1841.11 2568.23 1837.57 Q2566.43 1834 2562.79 1834 M2562.79 1830.3 Q2568.6 1830.3 2571.66 1834.9 Q2574.74 1839.49 2574.74 1848.24 Q2574.74 1856.96 2571.66 1861.57 Q2568.6 1866.15 2562.79 1866.15 Q2556.98 1866.15 2553.91 1861.57 Q2550.85 1856.96 2550.85 1848.24 Q2550.85 1839.49 2553.91 1834.9 Q2556.98 1830.3 2562.79 1830.3 Z" fill="#000000" fill-rule="evenodd" fill-opacity="1" /><path clip-path="url(#clip940)" d="M2582.96 1859.6 L2587.84 1859.6 L2587.84 1865.48 L2582.96 1865.48 L2582.96 1859.6 Z" fill="#000000" fill-rule="evenodd" fill-opacity="1" /><path clip-path="url(#clip940)" d="M2608.03 1834 Q2604.41 1834 2602.59 1837.57 Q2600.78 1841.11 2600.78 1848.24 Q2600.78 1855.34 2602.59 1858.91 Q2604.41 1862.45 2608.03 1862.45 Q2611.66 1862.45 2613.47 1858.91 Q2615.29 1855.34 2615.29 1848.24 Q2615.29 1841.11 2613.47 1837.57 Q2611.66 1834 2608.03 1834 M2608.03 1830.3 Q2613.84 1830.3 2616.89 1834.9 Q2619.97 1839.49 2619.97 1848.24 Q2619.97 1856.96 2616.89 1861.57 Q2613.84 1866.15 2608.03 1866.15 Q2602.22 1866.15 2599.14 1861.57 Q2596.08 1856.96 2596.08 1848.24 Q2596.08 1839.49 2599.14 1834.9 Q2602.22 1830.3 2608.03 1830.3 Z" fill="#000000" fill-rule="evenodd" fill-opacity="1" /><polyline clip-path="url(#clip943)" style="stroke:#000000; stroke-linecap:round; stroke-linejoin:round; stroke-width:2; stroke-opacity:0.1; fill:none" points="
  189.154,1751.23 2640.76,1751.23 
  "/>
<polyline clip-path="url(#clip943)" style="stroke:#000000; stroke-linecap:round; stroke-linejoin:round; stroke-width:2; stroke-opacity:0.1; fill:none" points="
  189.154,1337.64 2640.76,1337.64 
  "/>
<polyline clip-path="url(#clip943)" style="stroke:#000000; stroke-linecap:round; stroke-linejoin:round; stroke-width:2; stroke-opacity:0.1; fill:none" points="
  189.154,924.049 2640.76,924.049 
  "/>
<polyline clip-path="url(#clip943)" style="stroke:#000000; stroke-linecap:round; stroke-linejoin:round; stroke-width:2; stroke-opacity:0.1; fill:none" points="
  189.154,510.461 2640.76,510.461 
  "/>
<polyline clip-path="url(#clip943)" style="stroke:#000000; stroke-linecap:round; stroke-linejoin:round; stroke-width:2; stroke-opacity:0.1; fill:none" points="
  189.154,96.8724 2640.76,96.8724 
  "/>
<polyline clip-path="url(#clip940)" style="stroke:#000000; stroke-linecap:round; stroke-linejoin:round; stroke-width:4; stroke-opacity:1; fill:none" points="
  189.154,1800.78 189.154,47.2441 
  "/>
<polyline clip-path="url(#clip940)" style="stroke:#000000; stroke-linecap:round; stroke-linejoin:round; stroke-width:4; stroke-opacity:1; fill:none" points="
  189.154,1751.23 208.052,1751.23 
  "/>
<polyline clip-path="url(#clip940)" style="stroke:#000000; stroke-linecap:round; stroke-linejoin:round; stroke-width:4; stroke-opacity:1; fill:none" points="
  189.154,1337.64 208.052,1337.64 
  "/>
<polyline clip-path="url(#clip940)" style="stroke:#000000; stroke-linecap:round; stroke-linejoin:round; stroke-width:4; stroke-opacity:1; fill:none" points="
  189.154,924.049 208.052,924.049 
  "/>
<polyline clip-path="url(#clip940)" style="stroke:#000000; stroke-linecap:round; stroke-linejoin:round; stroke-width:4; stroke-opacity:1; fill:none" points="
  189.154,510.461 208.052,510.461 
  "/>
<polyline clip-path="url(#clip940)" style="stroke:#000000; stroke-linecap:round; stroke-linejoin:round; stroke-width:4; stroke-opacity:1; fill:none" points="
  189.154,96.8724 208.052,96.8724 
  "/>
<path clip-path="url(#clip940)" d="M61.4965 1737.02 Q57.8854 1737.02 56.0567 1740.59 Q54.2512 1744.13 54.2512 1751.26 Q54.2512 1758.37 56.0567 1761.93 Q57.8854 1765.47 61.4965 1765.47 Q65.1307 1765.47 66.9363 1761.93 Q68.765 1758.37 68.765 1751.26 Q68.765 1744.13 66.9363 1740.59 Q65.1307 1737.02 61.4965 1737.02 M61.4965 1733.32 Q67.3067 1733.32 70.3622 1737.93 Q73.4409 1742.51 73.4409 1751.26 Q73.4409 1759.99 70.3622 1764.59 Q67.3067 1769.18 61.4965 1769.18 Q55.6864 1769.18 52.6077 1764.59 Q49.5521 1759.99 49.5521 1751.26 Q49.5521 1742.51 52.6077 1737.93 Q55.6864 1733.32 61.4965 1733.32 Z" fill="#000000" fill-rule="evenodd" fill-opacity="1" /><path clip-path="url(#clip940)" d="M81.6584 1762.63 L86.5427 1762.63 L86.5427 1768.51 L81.6584 1768.51 L81.6584 1762.63 Z" fill="#000000" fill-rule="evenodd" fill-opacity="1" /><path clip-path="url(#clip940)" d="M106.728 1737.02 Q103.117 1737.02 101.288 1740.59 Q99.4824 1744.13 99.4824 1751.26 Q99.4824 1758.37 101.288 1761.93 Q103.117 1765.47 106.728 1765.47 Q110.362 1765.47 112.168 1761.93 Q113.996 1758.37 113.996 1751.26 Q113.996 1744.13 112.168 1740.59 Q110.362 1737.02 106.728 1737.02 M106.728 1733.32 Q112.538 1733.32 115.593 1737.93 Q118.672 1742.51 118.672 1751.26 Q118.672 1759.99 115.593 1764.59 Q112.538 1769.18 106.728 1769.18 Q100.918 1769.18 97.8389 1764.59 Q94.7834 1759.99 94.7834 1751.26 Q94.7834 1742.51 97.8389 1737.93 Q100.918 1733.32 106.728 1733.32 Z" fill="#000000" fill-rule="evenodd" fill-opacity="1" /><path clip-path="url(#clip940)" d="M136.89 1737.02 Q133.279 1737.02 131.45 1740.59 Q129.644 1744.13 129.644 1751.26 Q129.644 1758.37 131.45 1761.93 Q133.279 1765.47 136.89 1765.47 Q140.524 1765.47 142.329 1761.93 Q144.158 1758.37 144.158 1751.26 Q144.158 1744.13 142.329 1740.59 Q140.524 1737.02 136.89 1737.02 M136.89 1733.32 Q142.7 1733.32 145.755 1737.93 Q148.834 1742.51 148.834 1751.26 Q148.834 1759.99 145.755 1764.59 Q142.7 1769.18 136.89 1769.18 Q131.079 1769.18 128.001 1764.59 Q124.945 1759.99 124.945 1751.26 Q124.945 1742.51 128.001 1737.93 Q131.079 1733.32 136.89 1733.32 Z" fill="#000000" fill-rule="evenodd" fill-opacity="1" /><path clip-path="url(#clip940)" d="M62.4919 1323.44 Q58.8808 1323.44 57.0521 1327 Q55.2465 1330.54 55.2465 1337.67 Q55.2465 1344.78 57.0521 1348.34 Q58.8808 1351.89 62.4919 1351.89 Q66.1261 1351.89 67.9317 1348.34 Q69.7604 1344.78 69.7604 1337.67 Q69.7604 1330.54 67.9317 1327 Q66.1261 1323.44 62.4919 1323.44 M62.4919 1319.73 Q68.302 1319.73 71.3576 1324.34 Q74.4363 1328.92 74.4363 1337.67 Q74.4363 1346.4 71.3576 1351.01 Q68.302 1355.59 62.4919 1355.59 Q56.6817 1355.59 53.603 1351.01 Q50.5475 1346.4 50.5475 1337.67 Q50.5475 1328.92 53.603 1324.34 Q56.6817 1319.73 62.4919 1319.73 Z" fill="#000000" fill-rule="evenodd" fill-opacity="1" /><path clip-path="url(#clip940)" d="M82.6538 1349.04 L87.538 1349.04 L87.538 1354.92 L82.6538 1354.92 L82.6538 1349.04 Z" fill="#000000" fill-rule="evenodd" fill-opacity="1" /><path clip-path="url(#clip940)" d="M101.751 1350.98 L118.07 1350.98 L118.07 1354.92 L96.126 1354.92 L96.126 1350.98 Q98.788 1348.23 103.371 1343.6 Q107.978 1338.95 109.158 1337.6 Q111.404 1335.08 112.283 1333.34 Q113.186 1331.58 113.186 1329.89 Q113.186 1327.14 111.242 1325.4 Q109.32 1323.67 106.218 1323.67 Q104.019 1323.67 101.566 1324.43 Q99.1352 1325.2 96.3574 1326.75 L96.3574 1322.02 Q99.1815 1320.89 101.635 1320.31 Q104.089 1319.73 106.126 1319.73 Q111.496 1319.73 114.691 1322.42 Q117.885 1325.1 117.885 1329.59 Q117.885 1331.72 117.075 1333.64 Q116.288 1335.54 114.181 1338.14 Q113.603 1338.81 110.501 1342.02 Q107.399 1345.22 101.751 1350.98 Z" fill="#000000" fill-rule="evenodd" fill-opacity="1" /><path clip-path="url(#clip940)" d="M127.931 1320.36 L146.288 1320.36 L146.288 1324.29 L132.214 1324.29 L132.214 1332.76 Q133.232 1332.42 134.251 1332.26 Q135.269 1332.07 136.288 1332.07 Q142.075 1332.07 145.454 1335.24 Q148.834 1338.41 148.834 1343.83 Q148.834 1349.41 145.362 1352.51 Q141.89 1355.59 135.57 1355.59 Q133.394 1355.59 131.126 1355.22 Q128.88 1354.85 126.473 1354.11 L126.473 1349.41 Q128.556 1350.54 130.779 1351.1 Q133.001 1351.65 135.478 1351.65 Q139.482 1351.65 141.82 1349.55 Q144.158 1347.44 144.158 1343.83 Q144.158 1340.22 141.82 1338.11 Q139.482 1336.01 135.478 1336.01 Q133.603 1336.01 131.728 1336.42 Q129.876 1336.84 127.931 1337.72 L127.931 1320.36 Z" fill="#000000" fill-rule="evenodd" fill-opacity="1" /><path clip-path="url(#clip940)" d="M61.4965 909.848 Q57.8854 909.848 56.0567 913.413 Q54.2512 916.954 54.2512 924.084 Q54.2512 931.19 56.0567 934.755 Q57.8854 938.297 61.4965 938.297 Q65.1307 938.297 66.9363 934.755 Q68.765 931.19 68.765 924.084 Q68.765 916.954 66.9363 913.413 Q65.1307 909.848 61.4965 909.848 M61.4965 906.144 Q67.3067 906.144 70.3622 910.751 Q73.4409 915.334 73.4409 924.084 Q73.4409 932.811 70.3622 937.417 Q67.3067 942.001 61.4965 942.001 Q55.6864 942.001 52.6077 937.417 Q49.5521 932.811 49.5521 924.084 Q49.5521 915.334 52.6077 910.751 Q55.6864 906.144 61.4965 906.144 Z" fill="#000000" fill-rule="evenodd" fill-opacity="1" /><path clip-path="url(#clip940)" d="M81.6584 935.45 L86.5427 935.45 L86.5427 941.329 L81.6584 941.329 L81.6584 935.45 Z" fill="#000000" fill-rule="evenodd" fill-opacity="1" /><path clip-path="url(#clip940)" d="M96.7741 906.769 L115.13 906.769 L115.13 910.704 L101.056 910.704 L101.056 919.177 Q102.075 918.829 103.094 918.667 Q104.112 918.482 105.131 918.482 Q110.918 918.482 114.297 921.653 Q117.677 924.825 117.677 930.241 Q117.677 935.82 114.205 938.922 Q110.732 942.001 104.413 942.001 Q102.237 942.001 99.9685 941.63 Q97.7232 941.26 95.3158 940.519 L95.3158 935.82 Q97.3991 936.954 99.6213 937.51 Q101.844 938.065 104.32 938.065 Q108.325 938.065 110.663 935.959 Q113.001 933.852 113.001 930.241 Q113.001 926.63 110.663 924.524 Q108.325 922.417 104.32 922.417 Q102.445 922.417 100.57 922.834 Q98.7185 923.251 96.7741 924.13 L96.7741 906.769 Z" fill="#000000" fill-rule="evenodd" fill-opacity="1" /><path clip-path="url(#clip940)" d="M136.89 909.848 Q133.279 909.848 131.45 913.413 Q129.644 916.954 129.644 924.084 Q129.644 931.19 131.45 934.755 Q133.279 938.297 136.89 938.297 Q140.524 938.297 142.329 934.755 Q144.158 931.19 144.158 924.084 Q144.158 916.954 142.329 913.413 Q140.524 909.848 136.89 909.848 M136.89 906.144 Q142.7 906.144 145.755 910.751 Q148.834 915.334 148.834 924.084 Q148.834 932.811 145.755 937.417 Q142.7 942.001 136.89 942.001 Q131.079 942.001 128.001 937.417 Q124.945 932.811 124.945 924.084 Q124.945 915.334 128.001 910.751 Q131.079 906.144 136.89 906.144 Z" fill="#000000" fill-rule="evenodd" fill-opacity="1" /><path clip-path="url(#clip940)" d="M62.4919 496.26 Q58.8808 496.26 57.0521 499.824 Q55.2465 503.366 55.2465 510.496 Q55.2465 517.602 57.0521 521.167 Q58.8808 524.708 62.4919 524.708 Q66.1261 524.708 67.9317 521.167 Q69.7604 517.602 69.7604 510.496 Q69.7604 503.366 67.9317 499.824 Q66.1261 496.26 62.4919 496.26 M62.4919 492.556 Q68.302 492.556 71.3576 497.162 Q74.4363 501.746 74.4363 510.496 Q74.4363 519.222 71.3576 523.829 Q68.302 528.412 62.4919 528.412 Q56.6817 528.412 53.603 523.829 Q50.5475 519.222 50.5475 510.496 Q50.5475 501.746 53.603 497.162 Q56.6817 492.556 62.4919 492.556 Z" fill="#000000" fill-rule="evenodd" fill-opacity="1" /><path clip-path="url(#clip940)" d="M82.6538 521.861 L87.538 521.861 L87.538 527.741 L82.6538 527.741 L82.6538 521.861 Z" fill="#000000" fill-rule="evenodd" fill-opacity="1" /><path clip-path="url(#clip940)" d="M96.5426 493.181 L118.765 493.181 L118.765 495.172 L106.218 527.741 L101.334 527.741 L113.14 497.116 L96.5426 497.116 L96.5426 493.181 Z" fill="#000000" fill-rule="evenodd" fill-opacity="1" /><path clip-path="url(#clip940)" d="M127.931 493.181 L146.288 493.181 L146.288 497.116 L132.214 497.116 L132.214 505.588 Q133.232 505.241 134.251 505.079 Q135.269 504.894 136.288 504.894 Q142.075 504.894 145.454 508.065 Q148.834 511.236 148.834 516.653 Q148.834 522.232 145.362 525.333 Q141.89 528.412 135.57 528.412 Q133.394 528.412 131.126 528.042 Q128.88 527.671 126.473 526.931 L126.473 522.232 Q128.556 523.366 130.779 523.921 Q133.001 524.477 135.478 524.477 Q139.482 524.477 141.82 522.371 Q144.158 520.264 144.158 516.653 Q144.158 513.042 141.82 510.935 Q139.482 508.829 135.478 508.829 Q133.603 508.829 131.728 509.246 Q129.876 509.662 127.931 510.542 L127.931 493.181 Z" fill="#000000" fill-rule="evenodd" fill-opacity="1" /><path clip-path="url(#clip940)" d="M52.3067 110.217 L59.9456 110.217 L59.9456 83.8517 L51.6354 85.5183 L51.6354 81.2591 L59.8993 79.5924 L64.5752 79.5924 L64.5752 110.217 L72.214 110.217 L72.214 114.152 L52.3067 114.152 L52.3067 110.217 Z" fill="#000000" fill-rule="evenodd" fill-opacity="1" /><path clip-path="url(#clip940)" d="M81.6584 108.273 L86.5427 108.273 L86.5427 114.152 L81.6584 114.152 L81.6584 108.273 Z" fill="#000000" fill-rule="evenodd" fill-opacity="1" /><path clip-path="url(#clip940)" d="M106.728 82.6711 Q103.117 82.6711 101.288 86.2359 Q99.4824 89.7776 99.4824 96.9072 Q99.4824 104.014 101.288 107.578 Q103.117 111.12 106.728 111.12 Q110.362 111.12 112.168 107.578 Q113.996 104.014 113.996 96.9072 Q113.996 89.7776 112.168 86.2359 Q110.362 82.6711 106.728 82.6711 M106.728 78.9675 Q112.538 78.9675 115.593 83.5739 Q118.672 88.1572 118.672 96.9072 Q118.672 105.634 115.593 110.24 Q112.538 114.824 106.728 114.824 Q100.918 114.824 97.8389 110.24 Q94.7834 105.634 94.7834 96.9072 Q94.7834 88.1572 97.8389 83.5739 Q100.918 78.9675 106.728 78.9675 Z" fill="#000000" fill-rule="evenodd" fill-opacity="1" /><path clip-path="url(#clip940)" d="M136.89 82.6711 Q133.279 82.6711 131.45 86.2359 Q129.644 89.7776 129.644 96.9072 Q129.644 104.014 131.45 107.578 Q133.279 111.12 136.89 111.12 Q140.524 111.12 142.329 107.578 Q144.158 104.014 144.158 96.9072 Q144.158 89.7776 142.329 86.2359 Q140.524 82.6711 136.89 82.6711 M136.89 78.9675 Q142.7 78.9675 145.755 83.5739 Q148.834 88.1572 148.834 96.9072 Q148.834 105.634 145.755 110.24 Q142.7 114.824 136.89 114.824 Q131.079 114.824 128.001 110.24 Q124.945 105.634 124.945 96.9072 Q124.945 88.1572 128.001 83.5739 Q131.079 78.9675 136.89 78.9675 Z" fill="#000000" fill-rule="evenodd" fill-opacity="1" /><polyline clip-path="url(#clip943)" style="stroke:#009af9; stroke-linecap:round; stroke-linejoin:round; stroke-width:4; stroke-opacity:1; fill:none" points="
  258.539,96.8724 262.303,123.581 266.068,149.859 269.832,175.713 273.597,201.149 282.299,258.386 291.001,313.51 299.703,366.599 308.405,417.727 317.106,466.967 
  325.808,514.389 334.51,560.06 343.212,604.045 351.914,646.405 360.616,687.201 369.318,726.491 378.02,764.33 386.722,800.772 395.424,835.868 404.126,869.668 
  412.828,902.22 423.287,939.758 433.746,975.637 444.205,1009.93 454.664,1042.71 465.123,1074.03 475.582,1103.97 486.041,1132.59 496.5,1159.94 514.186,1203.47 
  531.872,1243.8 549.558,1281.15 567.244,1315.76 586.455,1350.47 605.667,1382.41 624.879,1411.81 644.091,1438.87 661.803,1461.89 679.514,1483.22 697.226,1502.98 
  714.938,1521.28 733.926,1539.41 752.915,1556.1 771.904,1571.48 790.893,1585.65 812.893,1600.67 834.893,1614.34 856.894,1626.76 878.894,1638.05 917.997,1655.66 
  957.099,1670.52 991.389,1681.64 1025.68,1691.23 1063.06,1700.18 1100.45,1707.8 1138.05,1714.32 1175.66,1719.86 1258.82,1729.33 1337.94,1735.67 1420.21,1740.33 
  1489.47,1743.15 1574.02,1745.62 1651.47,1747.22 1723.01,1748.28 1795.47,1749.08 1876.68,1749.71 1950.27,1750.12 2034.52,1750.46 2112.53,1750.68 2189.45,1750.83 
  2264.12,1750.94 2340.67,1751.02 2424.54,1751.08 2546.38,1751.14 2571.37,1751.15 
  "/>
<path clip-path="url(#clip940)" d="
M2084.84 209.375 L2559.04 209.375 L2559.04 105.695 L2084.84 105.695  Z
  " fill="#ffffff" fill-rule="evenodd" fill-opacity="1"/>
<polyline clip-path="url(#clip940)" style="stroke:#000000; stroke-linecap:round; stroke-linejoin:round; stroke-width:4; stroke-opacity:1; fill:none" points="
  2084.84,209.375 2559.04,209.375 2559.04,105.695 2084.84,105.695 2084.84,209.375 
  "/>
<polyline clip-path="url(#clip940)" style="stroke:#009af9; stroke-linecap:round; stroke-linejoin:round; stroke-width:4; stroke-opacity:1; fill:none" points="
  2112.08,157.535 2275.52,157.535 
  "/>
<path clip-path="url(#clip940)" d="M2326.68 138.89 Q2326.68 140.178 2325.86 140.974 Q2325.06 141.771 2324.05 141.771 Q2323.33 141.771 2322.79 141.326 Q2322.27 140.88 2322.27 140.108 Q2322.27 139.311 2322.88 138.468 Q2323.49 137.625 2324.87 137.508 Q2323.96 136.641 2322.51 136.641 Q2321.78 136.641 2321.17 137.109 Q2320.59 137.554 2320.26 138.281 Q2319.91 139.03 2319.11 143.27 Q2318.85 144.651 2318.62 145.987 Q2318.38 147.322 2318.1 148.727 L2322.08 148.727 Q2322.6 148.727 2322.81 148.75 Q2323.02 148.774 2323.19 148.891 Q2323.37 149.008 2323.37 149.266 Q2323.37 149.922 2323.07 150.086 Q2322.79 150.226 2321.94 150.226 L2317.82 150.226 L2314.94 165.427 Q2314.87 165.872 2314.57 167.278 Q2314.28 168.659 2313.61 170.931 Q2312.93 173.227 2312.25 174.585 Q2311.87 175.358 2311.38 176.084 Q2310.91 176.834 2310.23 177.583 Q2309.55 178.333 2308.66 178.778 Q2307.77 179.246 2306.84 179.246 Q2305.24 179.246 2304 178.356 Q2302.76 177.466 2302.76 175.944 Q2302.76 174.656 2303.56 173.859 Q2304.38 173.063 2305.38 173.063 Q2306.11 173.063 2306.63 173.508 Q2307.16 173.953 2307.16 174.726 Q2307.16 175.054 2307.05 175.429 Q2306.93 175.803 2306.67 176.225 Q2306.42 176.67 2305.85 176.974 Q2305.29 177.279 2304.52 177.326 Q2305.43 178.192 2306.84 178.192 Q2307.28 178.192 2307.68 178.005 Q2308.08 177.841 2308.41 177.419 Q2308.76 176.998 2309.01 176.576 Q2309.27 176.178 2309.53 175.405 Q2309.79 174.656 2309.95 174.094 Q2310.12 173.531 2310.33 172.524 Q2310.56 171.517 2310.68 170.908 Q2310.8 170.322 2311.01 169.175 L2314.59 150.226 L2311.43 150.226 Q2310.87 150.226 2310.63 150.203 Q2310.42 150.179 2310.26 150.062 Q2310.09 149.922 2310.09 149.64 Q2310.09 149.195 2310.28 149.008 Q2310.49 148.797 2310.72 148.774 Q2310.96 148.727 2311.52 148.727 L2314.85 148.727 Q2315.97 142.801 2316.42 141.208 Q2316.93 139.522 2317.73 138.351 Q2318.52 137.156 2319.41 136.594 Q2320.3 136.032 2321.03 135.821 Q2321.78 135.587 2322.51 135.587 Q2324.15 135.587 2325.41 136.477 Q2326.68 137.344 2326.68 138.89 Z" fill="#000000" fill-rule="evenodd" fill-opacity="1" /><path clip-path="url(#clip940)" d="M2333.13 157.417 Q2333.13 149.313 2336.16 142.778 Q2337.44 140.037 2339.25 137.742 Q2341.05 135.446 2342.25 134.439 Q2343.44 133.432 2343.77 133.432 Q2344.24 133.432 2344.26 133.901 Q2344.26 134.135 2343.63 134.72 Q2335.9 142.59 2335.92 157.417 Q2335.92 172.29 2343.44 179.855 Q2344.26 180.675 2344.26 180.933 Q2344.26 181.401 2343.77 181.401 Q2343.44 181.401 2342.29 180.441 Q2341.14 179.481 2339.36 177.279 Q2337.58 175.077 2336.3 172.384 Q2333.13 165.849 2333.13 157.417 Z" fill="#000000" fill-rule="evenodd" fill-opacity="1" /><path clip-path="url(#clip940)" d="M2371.8 151.374 Q2371.8 152.685 2370.98 153.435 Q2370.16 154.161 2369.22 154.161 Q2368.33 154.161 2367.86 153.646 Q2367.39 153.13 2367.39 152.475 Q2367.39 151.585 2368.05 150.812 Q2368.71 150.039 2369.69 149.875 Q2368.73 149.266 2367.3 149.266 Q2366.36 149.266 2365.54 149.758 Q2364.75 150.249 2364.26 150.882 Q2363.79 151.514 2363.37 152.428 Q2362.97 153.318 2362.8 153.857 Q2362.66 154.372 2362.55 154.934 L2360.91 161.492 Q2360.11 164.607 2360.11 165.708 Q2360.11 167.067 2360.77 167.98 Q2361.42 168.87 2362.73 168.87 Q2363.25 168.87 2363.83 168.73 Q2364.42 168.566 2365.17 168.144 Q2365.94 167.699 2366.62 167.043 Q2367.32 166.364 2368 165.216 Q2368.68 164.069 2369.13 162.593 Q2369.27 162.078 2369.74 162.078 Q2370.32 162.078 2370.32 162.546 Q2370.32 162.944 2369.99 163.788 Q2369.69 164.607 2369.01 165.685 Q2368.35 166.739 2367.49 167.699 Q2366.62 168.636 2365.33 169.292 Q2364.04 169.948 2362.64 169.948 Q2360.62 169.948 2359.29 168.87 Q2357.95 167.793 2357.46 166.294 Q2357.35 166.505 2357.18 166.786 Q2357.02 167.067 2356.53 167.699 Q2356.06 168.308 2355.52 168.777 Q2354.98 169.222 2354.14 169.573 Q2353.32 169.948 2352.43 169.948 Q2351.3 169.948 2350.3 169.62 Q2349.31 169.292 2348.61 168.542 Q2347.91 167.793 2347.91 166.762 Q2347.91 165.615 2348.68 164.818 Q2349.48 163.998 2350.55 163.998 Q2351.23 163.998 2351.77 164.397 Q2352.33 164.795 2352.33 165.661 Q2352.33 166.622 2351.68 167.348 Q2351.02 168.074 2350.08 168.261 Q2351.05 168.87 2352.47 168.87 Q2354.02 168.87 2355.24 167.512 Q2356.46 166.153 2357.04 163.881 Q2358.49 158.424 2359.06 155.988 Q2359.62 153.529 2359.62 152.475 Q2359.62 151.491 2359.36 150.812 Q2359.1 150.132 2358.66 149.828 Q2358.24 149.5 2357.84 149.383 Q2357.46 149.266 2357.04 149.266 Q2356.34 149.266 2355.54 149.547 Q2354.77 149.828 2353.83 150.484 Q2352.92 151.116 2352.05 152.428 Q2351.19 153.739 2350.6 155.543 Q2350.48 156.082 2349.97 156.082 Q2349.41 156.058 2349.41 155.59 Q2349.41 155.192 2349.71 154.372 Q2350.04 153.529 2350.69 152.475 Q2351.37 151.421 2352.24 150.484 Q2353.13 149.523 2354.42 148.868 Q2355.73 148.212 2357.13 148.212 Q2357.77 148.212 2358.38 148.352 Q2359.01 148.469 2359.76 148.821 Q2360.53 149.172 2361.21 149.945 Q2361.89 150.718 2362.31 151.842 Q2362.59 151.303 2362.97 150.788 Q2363.37 150.273 2363.97 149.64 Q2364.61 148.985 2365.47 148.61 Q2366.36 148.212 2367.35 148.212 Q2368.31 148.212 2369.24 148.469 Q2370.18 148.704 2370.98 149.477 Q2371.8 150.226 2371.8 151.374 Z" fill="#000000" fill-rule="evenodd" fill-opacity="1" /><path clip-path="url(#clip940)" d="M2376.42 180.933 Q2376.42 180.699 2377.03 180.113 Q2384.76 172.243 2384.76 157.417 Q2384.76 142.543 2377.33 135.025 Q2376.42 134.158 2376.42 133.901 Q2376.42 133.432 2376.89 133.432 Q2377.21 133.432 2378.36 134.392 Q2379.53 135.353 2381.29 137.554 Q2383.07 139.756 2384.38 142.45 Q2387.54 148.985 2387.54 157.417 Q2387.54 165.521 2384.52 172.056 Q2383.23 174.796 2381.43 177.092 Q2379.63 179.387 2378.43 180.394 Q2377.24 181.401 2376.89 181.401 Q2376.42 181.401 2376.42 180.933 Z" fill="#000000" fill-rule="evenodd" fill-opacity="1" /><path clip-path="url(#clip940)" d="M2408.15 162.125 Q2408.2 161.539 2409.11 161.539 L2438.5 161.539 Q2439.89 161.539 2439.91 162.078 Q2439.91 162.663 2438.6 162.64 L2409.44 162.64 Q2408.15 162.663 2408.15 162.125 M2408.15 152.756 Q2408.15 152.17 2409.16 152.194 L2438.46 152.194 Q2439.89 152.194 2439.91 152.756 Q2439.91 153.294 2438.69 153.294 L2409.11 153.294 Q2408.15 153.294 2408.15 152.756 Z" fill="#000000" fill-rule="evenodd" fill-opacity="1" /><path clip-path="url(#clip940)" d="M2476.66 163.858 Q2476.85 164.069 2476.85 164.28 Q2476.85 164.49 2476.38 165.099 Q2475.94 165.708 2474.98 166.528 Q2474.02 167.348 2472.77 168.121 Q2471.53 168.894 2469.71 169.409 Q2467.88 169.948 2465.96 169.948 Q2462.52 169.948 2460.45 167.488 Q2458.42 165.029 2458.42 161.258 Q2458.42 158.845 2459.21 156.714 Q2460.01 154.559 2461.3 153.037 Q2462.61 151.514 2464.25 150.413 Q2465.91 149.289 2467.65 148.75 Q2469.38 148.212 2470.99 148.212 Q2473.36 148.212 2474.74 149.406 Q2476.12 150.601 2476.12 152.287 Q2476.12 152.685 2476.01 153.177 Q2475.91 153.669 2475.59 154.442 Q2475.28 155.215 2474.48 155.988 Q2473.69 156.737 2472.52 157.229 Q2469.92 158.33 2465.19 158.33 L2462.63 158.33 Q2461.88 161.352 2461.88 163.319 Q2461.88 164.092 2462.02 164.888 Q2462.16 165.661 2462.54 166.645 Q2462.94 167.629 2463.83 168.261 Q2464.74 168.87 2466.05 168.87 Q2466.47 168.87 2466.92 168.847 Q2467.39 168.823 2468.56 168.566 Q2469.75 168.308 2470.81 167.863 Q2471.86 167.418 2473.2 166.458 Q2474.56 165.474 2475.63 164.139 Q2476.01 163.647 2476.26 163.647 Q2476.48 163.647 2476.66 163.858 M2474.53 152.287 Q2474.53 150.999 2473.57 150.132 Q2472.63 149.266 2470.99 149.266 Q2470.48 149.266 2469.85 149.383 Q2469.21 149.5 2468.16 149.992 Q2467.13 150.484 2466.22 151.303 Q2465.3 152.1 2464.39 153.669 Q2463.48 155.215 2462.94 157.276 L2464.91 157.276 Q2465.58 157.276 2466.08 157.276 Q2466.57 157.253 2467.65 157.159 Q2468.75 157.065 2469.54 156.901 Q2470.34 156.714 2471.35 156.339 Q2472.35 155.965 2472.99 155.473 Q2473.64 154.957 2474.09 154.138 Q2474.53 153.318 2474.53 152.287 Z" fill="#000000" fill-rule="evenodd" fill-opacity="1" /><path clip-path="url(#clip940)" d="M2503.96 143.581 Q2504.15 143.778 2504.15 144.057 Q2504.15 144.336 2503.96 144.532 Q2503.76 144.729 2503.48 144.729 L2482.46 144.729 Q2482.18 144.729 2481.99 144.532 Q2481.79 144.336 2481.79 144.057 Q2481.79 143.778 2481.99 143.581 Q2482.18 143.385 2482.46 143.385 L2503.48 143.385 Q2503.76 143.385 2503.96 143.581 Z" fill="#000000" fill-rule="evenodd" fill-opacity="1" /><path clip-path="url(#clip940)" d="M2524.38 139.827 Q2524.38 140.745 2523.81 141.27 Q2523.24 141.778 2522.58 141.778 Q2521.96 141.778 2521.63 141.417 Q2521.3 141.056 2521.3 140.597 Q2521.3 139.974 2521.76 139.433 Q2522.22 138.892 2522.91 138.777 Q2522.24 138.351 2521.23 138.351 Q2520.58 138.351 2520.01 138.696 Q2519.45 139.04 2519.1 139.483 Q2518.78 139.925 2518.48 140.565 Q2518.2 141.188 2518.09 141.565 Q2517.99 141.925 2517.91 142.319 L2516.76 146.91 Q2516.2 149.09 2516.2 149.861 Q2516.2 150.812 2516.66 151.451 Q2517.12 152.074 2518.04 152.074 Q2518.4 152.074 2518.81 151.976 Q2519.22 151.861 2519.74 151.566 Q2520.28 151.255 2520.76 150.796 Q2521.25 150.32 2521.73 149.517 Q2522.2 148.713 2522.51 147.68 Q2522.61 147.32 2522.94 147.32 Q2523.35 147.32 2523.35 147.648 Q2523.35 147.926 2523.12 148.517 Q2522.91 149.09 2522.43 149.845 Q2521.97 150.582 2521.37 151.255 Q2520.76 151.91 2519.86 152.37 Q2518.96 152.829 2517.97 152.829 Q2516.56 152.829 2515.63 152.074 Q2514.69 151.32 2514.35 150.271 Q2514.27 150.418 2514.15 150.615 Q2514.04 150.812 2513.69 151.255 Q2513.36 151.681 2512.99 152.009 Q2512.61 152.32 2512.02 152.566 Q2511.45 152.829 2510.82 152.829 Q2510.04 152.829 2509.33 152.599 Q2508.64 152.37 2508.15 151.845 Q2507.66 151.32 2507.66 150.599 Q2507.66 149.795 2508.2 149.238 Q2508.76 148.664 2509.51 148.664 Q2509.99 148.664 2510.36 148.943 Q2510.76 149.222 2510.76 149.828 Q2510.76 150.5 2510.3 151.009 Q2509.84 151.517 2509.18 151.648 Q2509.86 152.074 2510.86 152.074 Q2511.94 152.074 2512.79 151.123 Q2513.64 150.173 2514.05 148.582 Q2515.07 144.762 2515.46 143.057 Q2515.86 141.335 2515.86 140.597 Q2515.86 139.909 2515.68 139.433 Q2515.5 138.958 2515.18 138.745 Q2514.89 138.515 2514.61 138.433 Q2514.35 138.351 2514.05 138.351 Q2513.56 138.351 2513 138.548 Q2512.46 138.745 2511.81 139.204 Q2511.17 139.646 2510.56 140.565 Q2509.95 141.483 2509.54 142.745 Q2509.46 143.122 2509.1 143.122 Q2508.71 143.106 2508.71 142.778 Q2508.71 142.499 2508.92 141.925 Q2509.15 141.335 2509.61 140.597 Q2510.09 139.86 2510.69 139.204 Q2511.32 138.532 2512.22 138.072 Q2513.14 137.613 2514.12 137.613 Q2514.56 137.613 2514.99 137.712 Q2515.43 137.794 2515.96 138.04 Q2516.5 138.286 2516.97 138.827 Q2517.45 139.368 2517.74 140.155 Q2517.94 139.778 2518.2 139.417 Q2518.48 139.056 2518.91 138.614 Q2519.35 138.154 2519.96 137.892 Q2520.58 137.613 2521.27 137.613 Q2521.94 137.613 2522.6 137.794 Q2523.25 137.958 2523.81 138.499 Q2524.38 139.023 2524.38 139.827 Z" fill="#000000" fill-rule="evenodd" fill-opacity="1" /></svg>
