<?xml version="1.0" encoding="utf-8"?>
<svg xmlns="http://www.w3.org/2000/svg" xmlns:xlink="http://www.w3.org/1999/xlink" width="672" height="480" viewBox="0 0 2688 1920">
<defs>
  <clipPath id="clip780">
    <rect x="0" y="0" width="2688" height="1920"/>
  </clipPath>
</defs>
<path clip-path="url(#clip780)" d="
M0 1920 L2688 1920 L2688 0 L0 0  Z
  " fill="#ffffff" fill-rule="evenodd" fill-opacity="1"/>
<defs>
  <clipPath id="clip781">
    <rect x="537" y="0" width="1883" height="1883"/>
  </clipPath>
</defs>
<path clip-path="url(#clip780)" d="
M196.816 1800.78 L2640.76 1800.78 L2640.76 47.2441 L196.816 47.2441  Z
  " fill="#ffffff" fill-rule="evenodd" fill-opacity="1"/>
<defs>
  <clipPath id="clip782">
    <rect x="196" y="47" width="2445" height="1755"/>
  </clipPath>
</defs>
<polyline clip-path="url(#clip782)" style="stroke:#000000; stroke-linecap:round; stroke-linejoin:round; stroke-width:2; stroke-opacity:0.1; fill:none" points="
  265.984,1800.78 265.984,47.2441 
  "/>
<polyline clip-path="url(#clip782)" style="stroke:#000000; stroke-linecap:round; stroke-linejoin:round; stroke-width:2; stroke-opacity:0.1; fill:none" points="
  842.385,1800.78 842.385,47.2441 
  "/>
<polyline clip-path="url(#clip782)" style="stroke:#000000; stroke-linecap:round; stroke-linejoin:round; stroke-width:2; stroke-opacity:0.1; fill:none" points="
  1418.79,1800.78 1418.79,47.2441 
  "/>
<polyline clip-path="url(#clip782)" style="stroke:#000000; stroke-linecap:round; stroke-linejoin:round; stroke-width:2; stroke-opacity:0.1; fill:none" points="
  1995.19,1800.78 1995.19,47.2441 
  "/>
<polyline clip-path="url(#clip782)" style="stroke:#000000; stroke-linecap:round; stroke-linejoin:round; stroke-width:2; stroke-opacity:0.1; fill:none" points="
  2571.59,1800.78 2571.59,47.2441 
  "/>
<polyline clip-path="url(#clip780)" style="stroke:#000000; stroke-linecap:round; stroke-linejoin:round; stroke-width:4; stroke-opacity:1; fill:none" points="
  196.816,1800.78 2640.76,1800.78 
  "/>
<polyline clip-path="url(#clip780)" style="stroke:#000000; stroke-linecap:round; stroke-linejoin:round; stroke-width:4; stroke-opacity:1; fill:none" points="
  265.984,1800.78 265.984,1781.88 
  "/>
<polyline clip-path="url(#clip780)" style="stroke:#000000; stroke-linecap:round; stroke-linejoin:round; stroke-width:4; stroke-opacity:1; fill:none" points="
  842.385,1800.78 842.385,1781.88 
  "/>
<polyline clip-path="url(#clip780)" style="stroke:#000000; stroke-linecap:round; stroke-linejoin:round; stroke-width:4; stroke-opacity:1; fill:none" points="
  1418.79,1800.78 1418.79,1781.88 
  "/>
<polyline clip-path="url(#clip780)" style="stroke:#000000; stroke-linecap:round; stroke-linejoin:round; stroke-width:4; stroke-opacity:1; fill:none" points="
  1995.19,1800.78 1995.19,1781.88 
  "/>
<polyline clip-path="url(#clip780)" style="stroke:#000000; stroke-linecap:round; stroke-linejoin:round; stroke-width:4; stroke-opacity:1; fill:none" points="
  2571.59,1800.78 2571.59,1781.88 
  "/>
<path clip-path="url(#clip780)" d="M265.984 1834 Q262.373 1834 260.544 1837.57 Q258.739 1841.11 258.739 1848.24 Q258.739 1855.34 260.544 1858.91 Q262.373 1862.45 265.984 1862.45 Q269.618 1862.45 271.424 1858.91 Q273.253 1855.34 273.253 1848.24 Q273.253 1841.11 271.424 1837.57 Q269.618 1834 265.984 1834 M265.984 1830.3 Q271.794 1830.3 274.85 1834.9 Q277.928 1839.49 277.928 1848.24 Q277.928 1856.96 274.85 1861.57 Q271.794 1866.15 265.984 1866.15 Q260.174 1866.15 257.095 1861.57 Q254.04 1856.96 254.04 1848.24 Q254.04 1839.49 257.095 1834.9 Q260.174 1830.3 265.984 1830.3 Z" fill="#000000" fill-rule="evenodd" fill-opacity="1" /><path clip-path="url(#clip780)" d="M821.656 1861.55 L837.975 1861.55 L837.975 1865.48 L816.031 1865.48 L816.031 1861.55 Q818.693 1858.79 823.276 1854.16 Q827.883 1849.51 829.063 1848.17 Q831.309 1845.65 832.188 1843.91 Q833.091 1842.15 833.091 1840.46 Q833.091 1837.71 831.147 1835.97 Q829.225 1834.23 826.124 1834.23 Q823.924 1834.23 821.471 1835 Q819.04 1835.76 816.262 1837.31 L816.262 1832.59 Q819.087 1831.46 821.54 1830.88 Q823.994 1830.3 826.031 1830.3 Q831.401 1830.3 834.596 1832.98 Q837.79 1835.67 837.79 1840.16 Q837.79 1842.29 836.98 1844.21 Q836.193 1846.11 834.086 1848.7 Q833.508 1849.37 830.406 1852.59 Q827.304 1855.78 821.656 1861.55 Z" fill="#000000" fill-rule="evenodd" fill-opacity="1" /><path clip-path="url(#clip780)" d="M847.836 1830.92 L866.193 1830.92 L866.193 1834.86 L852.119 1834.86 L852.119 1843.33 Q853.137 1842.98 854.156 1842.82 Q855.174 1842.64 856.193 1842.64 Q861.98 1842.64 865.359 1845.81 Q868.739 1848.98 868.739 1854.4 Q868.739 1859.97 865.267 1863.08 Q861.795 1866.15 855.475 1866.15 Q853.299 1866.15 851.031 1865.78 Q848.785 1865.41 846.378 1864.67 L846.378 1859.97 Q848.461 1861.11 850.684 1861.66 Q852.906 1862.22 855.383 1862.22 Q859.387 1862.22 861.725 1860.11 Q864.063 1858.01 864.063 1854.4 Q864.063 1850.78 861.725 1848.68 Q859.387 1846.57 855.383 1846.57 Q853.508 1846.57 851.633 1846.99 Q849.781 1847.4 847.836 1848.28 L847.836 1830.92 Z" fill="#000000" fill-rule="evenodd" fill-opacity="1" /><path clip-path="url(#clip780)" d="M1393.49 1830.92 L1411.84 1830.92 L1411.84 1834.86 L1397.77 1834.86 L1397.77 1843.33 Q1398.79 1842.98 1399.8 1842.82 Q1400.82 1842.64 1401.84 1842.64 Q1407.63 1842.64 1411.01 1845.81 Q1414.39 1848.98 1414.39 1854.4 Q1414.39 1859.97 1410.92 1863.08 Q1407.44 1866.15 1401.12 1866.15 Q1398.95 1866.15 1396.68 1865.78 Q1394.43 1865.41 1392.03 1864.67 L1392.03 1859.97 Q1394.11 1861.11 1396.33 1861.66 Q1398.55 1862.22 1401.03 1862.22 Q1405.04 1862.22 1407.37 1860.11 Q1409.71 1858.01 1409.71 1854.4 Q1409.71 1850.78 1407.37 1848.68 Q1405.04 1846.57 1401.03 1846.57 Q1399.16 1846.57 1397.28 1846.99 Q1395.43 1847.4 1393.49 1848.28 L1393.49 1830.92 Z" fill="#000000" fill-rule="evenodd" fill-opacity="1" /><path clip-path="url(#clip780)" d="M1433.6 1834 Q1429.99 1834 1428.16 1837.57 Q1426.36 1841.11 1426.36 1848.24 Q1426.36 1855.34 1428.16 1858.91 Q1429.99 1862.45 1433.6 1862.45 Q1437.23 1862.45 1439.04 1858.91 Q1440.87 1855.34 1440.87 1848.24 Q1440.87 1841.11 1439.04 1837.57 Q1437.23 1834 1433.6 1834 M1433.6 1830.3 Q1439.41 1830.3 1442.47 1834.9 Q1445.55 1839.49 1445.55 1848.24 Q1445.55 1856.96 1442.47 1861.57 Q1439.41 1866.15 1433.6 1866.15 Q1427.79 1866.15 1424.71 1861.57 Q1421.66 1856.96 1421.66 1848.24 Q1421.66 1839.49 1424.71 1834.9 Q1427.79 1830.3 1433.6 1830.3 Z" fill="#000000" fill-rule="evenodd" fill-opacity="1" /><path clip-path="url(#clip780)" d="M1969.04 1830.92 L1991.26 1830.92 L1991.26 1832.91 L1978.72 1865.48 L1973.83 1865.48 L1985.64 1834.86 L1969.04 1834.86 L1969.04 1830.92 Z" fill="#000000" fill-rule="evenodd" fill-opacity="1" /><path clip-path="url(#clip780)" d="M2000.43 1830.92 L2018.79 1830.92 L2018.79 1834.86 L2004.71 1834.86 L2004.71 1843.33 Q2005.73 1842.98 2006.75 1842.82 Q2007.77 1842.64 2008.79 1842.64 Q2014.57 1842.64 2017.95 1845.81 Q2021.33 1848.98 2021.33 1854.4 Q2021.33 1859.97 2017.86 1863.08 Q2014.39 1866.15 2008.07 1866.15 Q2005.89 1866.15 2003.62 1865.78 Q2001.38 1865.41 1998.97 1864.67 L1998.97 1859.97 Q2001.05 1861.11 2003.28 1861.66 Q2005.5 1862.22 2007.98 1862.22 Q2011.98 1862.22 2014.32 1860.11 Q2016.66 1858.01 2016.66 1854.4 Q2016.66 1850.78 2014.32 1848.68 Q2011.98 1846.57 2007.98 1846.57 Q2006.1 1846.57 2004.23 1846.99 Q2002.37 1847.4 2000.43 1848.28 L2000.43 1830.92 Z" fill="#000000" fill-rule="evenodd" fill-opacity="1" /><path clip-path="url(#clip780)" d="M2531.19 1861.55 L2538.83 1861.55 L2538.83 1835.18 L2530.52 1836.85 L2530.52 1832.59 L2538.79 1830.92 L2543.46 1830.92 L2543.46 1861.55 L2551.1 1861.55 L2551.1 1865.48 L2531.19 1865.48 L2531.19 1861.55 Z" fill="#000000" fill-rule="evenodd" fill-opacity="1" /><path clip-path="url(#clip780)" d="M2570.55 1834 Q2566.94 1834 2565.11 1837.57 Q2563.3 1841.11 2563.3 1848.24 Q2563.3 1855.34 2565.11 1858.91 Q2566.94 1862.45 2570.55 1862.45 Q2574.18 1862.45 2575.99 1858.91 Q2577.81 1855.34 2577.81 1848.24 Q2577.81 1841.11 2575.99 1837.57 Q2574.18 1834 2570.55 1834 M2570.55 1830.3 Q2576.36 1830.3 2579.41 1834.9 Q2582.49 1839.49 2582.49 1848.24 Q2582.49 1856.96 2579.41 1861.57 Q2576.36 1866.15 2570.55 1866.15 Q2564.74 1866.15 2561.66 1861.57 Q2558.6 1856.96 2558.6 1848.24 Q2558.6 1839.49 2561.66 1834.9 Q2564.74 1830.3 2570.55 1830.3 Z" fill="#000000" fill-rule="evenodd" fill-opacity="1" /><path clip-path="url(#clip780)" d="M2600.71 1834 Q2597.1 1834 2595.27 1837.57 Q2593.46 1841.11 2593.46 1848.24 Q2593.46 1855.34 2595.27 1858.91 Q2597.1 1862.45 2600.71 1862.45 Q2604.34 1862.45 2606.15 1858.91 Q2607.98 1855.34 2607.98 1848.24 Q2607.98 1841.11 2606.15 1837.57 Q2604.34 1834 2600.71 1834 M2600.71 1830.3 Q2606.52 1830.3 2609.57 1834.9 Q2612.65 1839.49 2612.65 1848.24 Q2612.65 1856.96 2609.57 1861.57 Q2606.52 1866.15 2600.71 1866.15 Q2594.9 1866.15 2591.82 1861.57 Q2588.76 1856.96 2588.76 1848.24 Q2588.76 1839.49 2591.82 1834.9 Q2594.9 1830.3 2600.71 1830.3 Z" fill="#000000" fill-rule="evenodd" fill-opacity="1" /><polyline clip-path="url(#clip782)" style="stroke:#000000; stroke-linecap:round; stroke-linejoin:round; stroke-width:2; stroke-opacity:0.1; fill:none" points="
  196.816,1615.69 2640.76,1615.69 
  "/>
<polyline clip-path="url(#clip782)" style="stroke:#000000; stroke-linecap:round; stroke-linejoin:round; stroke-width:2; stroke-opacity:0.1; fill:none" points="
  196.816,1385.13 2640.76,1385.13 
  "/>
<polyline clip-path="url(#clip782)" style="stroke:#000000; stroke-linecap:round; stroke-linejoin:round; stroke-width:2; stroke-opacity:0.1; fill:none" points="
  196.816,1154.57 2640.76,1154.57 
  "/>
<polyline clip-path="url(#clip782)" style="stroke:#000000; stroke-linecap:round; stroke-linejoin:round; stroke-width:2; stroke-opacity:0.1; fill:none" points="
  196.816,924.012 2640.76,924.012 
  "/>
<polyline clip-path="url(#clip782)" style="stroke:#000000; stroke-linecap:round; stroke-linejoin:round; stroke-width:2; stroke-opacity:0.1; fill:none" points="
  196.816,693.451 2640.76,693.451 
  "/>
<polyline clip-path="url(#clip782)" style="stroke:#000000; stroke-linecap:round; stroke-linejoin:round; stroke-width:2; stroke-opacity:0.1; fill:none" points="
  196.816,462.891 2640.76,462.891 
  "/>
<polyline clip-path="url(#clip782)" style="stroke:#000000; stroke-linecap:round; stroke-linejoin:round; stroke-width:2; stroke-opacity:0.1; fill:none" points="
  196.816,232.33 2640.76,232.33 
  "/>
<polyline clip-path="url(#clip780)" style="stroke:#000000; stroke-linecap:round; stroke-linejoin:round; stroke-width:4; stroke-opacity:1; fill:none" points="
  196.816,1800.78 196.816,47.2441 
  "/>
<polyline clip-path="url(#clip780)" style="stroke:#000000; stroke-linecap:round; stroke-linejoin:round; stroke-width:4; stroke-opacity:1; fill:none" points="
  196.816,1615.69 215.714,1615.69 
  "/>
<polyline clip-path="url(#clip780)" style="stroke:#000000; stroke-linecap:round; stroke-linejoin:round; stroke-width:4; stroke-opacity:1; fill:none" points="
  196.816,1385.13 215.714,1385.13 
  "/>
<polyline clip-path="url(#clip780)" style="stroke:#000000; stroke-linecap:round; stroke-linejoin:round; stroke-width:4; stroke-opacity:1; fill:none" points="
  196.816,1154.57 215.714,1154.57 
  "/>
<polyline clip-path="url(#clip780)" style="stroke:#000000; stroke-linecap:round; stroke-linejoin:round; stroke-width:4; stroke-opacity:1; fill:none" points="
  196.816,924.012 215.714,924.012 
  "/>
<polyline clip-path="url(#clip780)" style="stroke:#000000; stroke-linecap:round; stroke-linejoin:round; stroke-width:4; stroke-opacity:1; fill:none" points="
  196.816,693.451 215.714,693.451 
  "/>
<polyline clip-path="url(#clip780)" style="stroke:#000000; stroke-linecap:round; stroke-linejoin:round; stroke-width:4; stroke-opacity:1; fill:none" points="
  196.816,462.891 215.714,462.891 
  "/>
<polyline clip-path="url(#clip780)" style="stroke:#000000; stroke-linecap:round; stroke-linejoin:round; stroke-width:4; stroke-opacity:1; fill:none" points="
  196.816,232.33 215.714,232.33 
  "/>
<path clip-path="url(#clip780)" d="M64.6215 1616.14 L94.2973 1616.14 L94.2973 1620.08 L64.6215 1620.08 L64.6215 1616.14 Z" fill="#000000" fill-rule="evenodd" fill-opacity="1" /><path clip-path="url(#clip780)" d="M118.556 1614.34 Q121.913 1615.06 123.788 1617.32 Q125.686 1619.59 125.686 1622.93 Q125.686 1628.04 122.167 1630.84 Q118.649 1633.64 112.168 1633.64 Q109.992 1633.64 107.677 1633.2 Q105.385 1632.79 102.931 1631.93 L102.931 1627.42 Q104.876 1628.55 107.191 1629.13 Q109.506 1629.71 112.029 1629.71 Q116.427 1629.71 118.718 1627.97 Q121.033 1626.24 121.033 1622.93 Q121.033 1619.87 118.88 1618.16 Q116.751 1616.42 112.931 1616.42 L108.904 1616.42 L108.904 1612.58 L113.117 1612.58 Q116.566 1612.58 118.394 1611.21 Q120.223 1609.82 120.223 1607.23 Q120.223 1604.57 118.325 1603.16 Q116.45 1601.72 112.931 1601.72 Q111.01 1601.72 108.811 1602.14 Q106.612 1602.56 103.973 1603.44 L103.973 1599.27 Q106.635 1598.53 108.95 1598.16 Q111.288 1597.79 113.348 1597.79 Q118.672 1597.79 121.774 1600.22 Q124.876 1602.63 124.876 1606.75 Q124.876 1609.62 123.232 1611.61 Q121.589 1613.57 118.556 1614.34 Z" fill="#000000" fill-rule="evenodd" fill-opacity="1" /><path clip-path="url(#clip780)" d="M144.552 1601.49 Q140.941 1601.49 139.112 1605.06 Q137.306 1608.6 137.306 1615.73 Q137.306 1622.83 139.112 1626.4 Q140.941 1629.94 144.552 1629.94 Q148.186 1629.94 149.991 1626.4 Q151.82 1622.83 151.82 1615.73 Q151.82 1608.6 149.991 1605.06 Q148.186 1601.49 144.552 1601.49 M144.552 1597.79 Q150.362 1597.79 153.417 1602.39 Q156.496 1606.98 156.496 1615.73 Q156.496 1624.45 153.417 1629.06 Q150.362 1633.64 144.552 1633.64 Q138.741 1633.64 135.663 1629.06 Q132.607 1624.45 132.607 1615.73 Q132.607 1606.98 135.663 1602.39 Q138.741 1597.79 144.552 1597.79 Z" fill="#000000" fill-rule="evenodd" fill-opacity="1" /><path clip-path="url(#clip780)" d="M64.6215 1385.58 L94.2973 1385.58 L94.2973 1389.52 L64.6215 1389.52 L64.6215 1385.58 Z" fill="#000000" fill-rule="evenodd" fill-opacity="1" /><path clip-path="url(#clip780)" d="M108.418 1398.48 L124.737 1398.48 L124.737 1402.41 L102.793 1402.41 L102.793 1398.48 Q105.455 1395.72 110.038 1391.09 Q114.644 1386.44 115.825 1385.1 Q118.07 1382.57 118.95 1380.84 Q119.853 1379.08 119.853 1377.39 Q119.853 1374.63 117.908 1372.9 Q115.987 1371.16 112.885 1371.16 Q110.686 1371.16 108.232 1371.93 Q105.802 1372.69 103.024 1374.24 L103.024 1369.52 Q105.848 1368.38 108.302 1367.81 Q110.756 1367.23 112.793 1367.23 Q118.163 1367.23 121.357 1369.91 Q124.552 1372.6 124.552 1377.09 Q124.552 1379.22 123.742 1381.14 Q122.955 1383.04 120.848 1385.63 Q120.269 1386.3 117.168 1389.52 Q114.066 1392.71 108.418 1398.48 Z" fill="#000000" fill-rule="evenodd" fill-opacity="1" /><path clip-path="url(#clip780)" d="M144.552 1370.93 Q140.941 1370.93 139.112 1374.5 Q137.306 1378.04 137.306 1385.17 Q137.306 1392.27 139.112 1395.84 Q140.941 1399.38 144.552 1399.38 Q148.186 1399.38 149.991 1395.84 Q151.82 1392.27 151.82 1385.17 Q151.82 1378.04 149.991 1374.5 Q148.186 1370.93 144.552 1370.93 M144.552 1367.23 Q150.362 1367.23 153.417 1371.83 Q156.496 1376.42 156.496 1385.17 Q156.496 1393.89 153.417 1398.5 Q150.362 1403.08 144.552 1403.08 Q138.741 1403.08 135.663 1398.5 Q132.607 1393.89 132.607 1385.17 Q132.607 1376.42 135.663 1371.83 Q138.741 1367.23 144.552 1367.23 Z" fill="#000000" fill-rule="evenodd" fill-opacity="1" /><path clip-path="url(#clip780)" d="M64.6215 1155.02 L94.2973 1155.02 L94.2973 1158.96 L64.6215 1158.96 L64.6215 1155.02 Z" fill="#000000" fill-rule="evenodd" fill-opacity="1" /><path clip-path="url(#clip780)" d="M105.2 1167.92 L112.839 1167.92 L112.839 1141.55 L104.529 1143.22 L104.529 1138.96 L112.793 1137.29 L117.468 1137.29 L117.468 1167.92 L125.107 1167.92 L125.107 1171.85 L105.2 1171.85 L105.2 1167.92 Z" fill="#000000" fill-rule="evenodd" fill-opacity="1" /><path clip-path="url(#clip780)" d="M144.552 1140.37 Q140.941 1140.37 139.112 1143.94 Q137.306 1147.48 137.306 1154.61 Q137.306 1161.71 139.112 1165.28 Q140.941 1168.82 144.552 1168.82 Q148.186 1168.82 149.991 1165.28 Q151.82 1161.71 151.82 1154.61 Q151.82 1147.48 149.991 1143.94 Q148.186 1140.37 144.552 1140.37 M144.552 1136.67 Q150.362 1136.67 153.417 1141.27 Q156.496 1145.86 156.496 1154.61 Q156.496 1163.33 153.417 1167.94 Q150.362 1172.52 144.552 1172.52 Q138.741 1172.52 135.663 1167.94 Q132.607 1163.33 132.607 1154.61 Q132.607 1145.86 135.663 1141.27 Q138.741 1136.67 144.552 1136.67 Z" fill="#000000" fill-rule="evenodd" fill-opacity="1" /><path clip-path="url(#clip780)" d="M144.552 909.81 Q140.941 909.81 139.112 913.375 Q137.306 916.917 137.306 924.046 Q137.306 931.153 139.112 934.717 Q140.941 938.259 144.552 938.259 Q148.186 938.259 149.991 934.717 Q151.82 931.153 151.82 924.046 Q151.82 916.917 149.991 913.375 Q148.186 909.81 144.552 909.81 M144.552 906.107 Q150.362 906.107 153.417 910.713 Q156.496 915.296 156.496 924.046 Q156.496 932.773 153.417 937.38 Q150.362 941.963 144.552 941.963 Q138.741 941.963 135.663 937.38 Q132.607 932.773 132.607 924.046 Q132.607 915.296 135.663 910.713 Q138.741 906.107 144.552 906.107 Z" fill="#000000" fill-rule="evenodd" fill-opacity="1" /><path clip-path="url(#clip780)" d="M105.2 706.796 L112.839 706.796 L112.839 680.43 L104.529 682.097 L104.529 677.838 L112.793 676.171 L117.468 676.171 L117.468 706.796 L125.107 706.796 L125.107 710.731 L105.2 710.731 L105.2 706.796 Z" fill="#000000" fill-rule="evenodd" fill-opacity="1" /><path clip-path="url(#clip780)" d="M144.552 679.25 Q140.941 679.25 139.112 682.815 Q137.306 686.356 137.306 693.486 Q137.306 700.592 139.112 704.157 Q140.941 707.699 144.552 707.699 Q148.186 707.699 149.991 704.157 Q151.82 700.592 151.82 693.486 Q151.82 686.356 149.991 682.815 Q148.186 679.25 144.552 679.25 M144.552 675.546 Q150.362 675.546 153.417 680.153 Q156.496 684.736 156.496 693.486 Q156.496 702.213 153.417 706.819 Q150.362 711.402 144.552 711.402 Q138.741 711.402 135.663 706.819 Q132.607 702.213 132.607 693.486 Q132.607 684.736 135.663 680.153 Q138.741 675.546 144.552 675.546 Z" fill="#000000" fill-rule="evenodd" fill-opacity="1" /><path clip-path="url(#clip780)" d="M108.418 476.236 L124.737 476.236 L124.737 480.171 L102.793 480.171 L102.793 476.236 Q105.455 473.481 110.038 468.851 Q114.644 464.199 115.825 462.856 Q118.07 460.333 118.95 458.597 Q119.853 456.838 119.853 455.148 Q119.853 452.393 117.908 450.657 Q115.987 448.921 112.885 448.921 Q110.686 448.921 108.232 449.685 Q105.802 450.449 103.024 452 L103.024 447.277 Q105.848 446.143 108.302 445.564 Q110.756 444.986 112.793 444.986 Q118.163 444.986 121.357 447.671 Q124.552 450.356 124.552 454.847 Q124.552 456.976 123.742 458.898 Q122.955 460.796 120.848 463.388 Q120.269 464.06 117.168 467.277 Q114.066 470.472 108.418 476.236 Z" fill="#000000" fill-rule="evenodd" fill-opacity="1" /><path clip-path="url(#clip780)" d="M144.552 448.689 Q140.941 448.689 139.112 452.254 Q137.306 455.796 137.306 462.926 Q137.306 470.032 139.112 473.597 Q140.941 477.138 144.552 477.138 Q148.186 477.138 149.991 473.597 Q151.82 470.032 151.82 462.926 Q151.82 455.796 149.991 452.254 Q148.186 448.689 144.552 448.689 M144.552 444.986 Q150.362 444.986 153.417 449.592 Q156.496 454.176 156.496 462.926 Q156.496 471.652 153.417 476.259 Q150.362 480.842 144.552 480.842 Q138.741 480.842 135.663 476.259 Q132.607 471.652 132.607 462.926 Q132.607 454.176 135.663 449.592 Q138.741 444.986 144.552 444.986 Z" fill="#000000" fill-rule="evenodd" fill-opacity="1" /><path clip-path="url(#clip780)" d="M118.556 230.976 Q121.913 231.694 123.788 233.962 Q125.686 236.231 125.686 239.564 Q125.686 244.68 122.167 247.481 Q118.649 250.282 112.168 250.282 Q109.992 250.282 107.677 249.842 Q105.385 249.425 102.931 248.569 L102.931 244.055 Q104.876 245.189 107.191 245.768 Q109.506 246.347 112.029 246.347 Q116.427 246.347 118.718 244.61 Q121.033 242.874 121.033 239.564 Q121.033 236.509 118.88 234.796 Q116.751 233.06 112.931 233.06 L108.904 233.06 L108.904 229.217 L113.117 229.217 Q116.566 229.217 118.394 227.851 Q120.223 226.462 120.223 223.87 Q120.223 221.208 118.325 219.796 Q116.45 218.361 112.931 218.361 Q111.01 218.361 108.811 218.777 Q106.612 219.194 103.973 220.074 L103.973 215.907 Q106.635 215.166 108.95 214.796 Q111.288 214.425 113.348 214.425 Q118.672 214.425 121.774 216.856 Q124.876 219.263 124.876 223.384 Q124.876 226.254 123.232 228.245 Q121.589 230.212 118.556 230.976 Z" fill="#000000" fill-rule="evenodd" fill-opacity="1" /><path clip-path="url(#clip780)" d="M144.552 218.129 Q140.941 218.129 139.112 221.694 Q137.306 225.236 137.306 232.365 Q137.306 239.472 139.112 243.036 Q140.941 246.578 144.552 246.578 Q148.186 246.578 149.991 243.036 Q151.82 239.472 151.82 232.365 Q151.82 225.236 149.991 221.694 Q148.186 218.129 144.552 218.129 M144.552 214.425 Q150.362 214.425 153.417 219.032 Q156.496 223.615 156.496 232.365 Q156.496 241.092 153.417 245.698 Q150.362 250.282 144.552 250.282 Q138.741 250.282 135.663 245.698 Q132.607 241.092 132.607 232.365 Q132.607 223.615 135.663 219.032 Q138.741 214.425 144.552 214.425 Z" fill="#000000" fill-rule="evenodd" fill-opacity="1" /><polyline clip-path="url(#clip782)" style="stroke:#009af9; stroke-linecap:round; stroke-linejoin:round; stroke-width:4; stroke-opacity:1; fill:none" points="
  265.984,924.012 269.737,922.137 273.489,920.275 277.242,918.438 280.995,916.638 285.332,914.619 289.67,912.683 291.838,911.751 294.007,910.847 296.176,909.971 
  298.344,909.127 300.513,908.316 302.682,907.539 304.85,906.799 307.019,906.097 309.188,905.434 311.356,904.813 313.525,904.234 315.694,903.699 317.863,903.208 
  320.031,902.764 322.2,902.367 324.369,902.017 326.537,901.716 328.706,901.465 330.875,901.263 333.043,901.112 335.212,901.011 337.381,900.961 339.549,900.962 
  341.718,901.015 343.887,901.118 346.055,901.271 348.224,901.475 350.393,901.729 352.562,902.032 354.73,902.383 356.899,902.783 359.068,903.229 361.236,903.722 
  363.405,904.259 365.574,904.84 367.742,905.463 369.911,906.127 372.08,906.831 374.248,907.573 376.417,908.351 378.586,909.164 380.754,910.01 382.923,910.886 
  385.092,911.792 389.429,913.682 393.767,915.664 398.104,917.72 402.441,919.831 411.116,924.145 419.791,928.454 425.004,930.978 430.217,933.413 432.824,934.588 
  435.43,935.728 438.037,936.831 440.643,937.893 443.25,938.911 445.857,939.882 448.463,940.801 451.07,941.667 453.676,942.477 456.283,943.227 458.89,943.916 
  461.496,944.542 464.103,945.102 466.709,945.594 469.316,946.018 471.922,946.371 474.529,946.653 477.136,946.863 479.742,947 482.349,947.063 484.955,947.052 
  487.562,946.968 490.168,946.811 492.775,946.581 495.382,946.278 497.988,945.905 500.595,945.462 503.201,944.95 505.405,944.465 507.609,943.933 509.813,943.356 
  512.017,942.734 514.221,942.07 516.424,941.364 518.628,940.619 520.832,939.836 525.24,938.164 529.647,936.362 531.851,935.418 534.055,934.448 536.259,933.453 
  538.463,932.438 542.87,930.351 547.278,928.206 551.686,926.024 556.093,923.822 560.501,921.623 564.909,919.445 569.316,917.309 573.724,915.234 576.118,914.14 
  578.512,913.072 580.906,912.033 583.3,911.027 585.694,910.056 588.088,909.122 590.482,908.229 592.876,907.378 595.27,906.572 597.664,905.813 600.058,905.103 
  602.452,904.444 604.846,903.837 607.24,903.285 609.634,902.789 612.028,902.35 614.422,901.969 616.816,901.648 619.21,901.387 621.604,901.187 623.998,901.049 
  626.391,900.972 628.785,900.958 631.179,901.005 633.573,901.115 635.967,901.286 638.361,901.519 640.755,901.812 643.149,902.165 645.543,902.577 647.937,903.046 
  650.331,903.572 652.538,904.106 654.745,904.686 656.952,905.31 659.159,905.976 661.366,906.684 663.573,907.431 665.781,908.217 667.988,909.039 670.195,909.895 
  672.402,910.783 674.609,911.702 676.816,912.648 681.23,914.618 685.644,916.673 694.472,920.966 703.3,925.371 707.714,927.564 712.128,929.725 716.542,931.834 
  720.956,933.871 725.689,935.955 730.421,937.912 732.787,938.837 735.153,939.723 737.52,940.568 739.886,941.369 742.252,942.125 744.618,942.833 746.984,943.491 
  749.351,944.098 751.717,944.652 754.083,945.152 756.449,945.596 758.815,945.983 761.181,946.313 763.548,946.584 765.914,946.795 768.28,946.946 770.646,947.037 
  773.012,947.068 775.378,947.037 777.745,946.946 780.111,946.795 782.477,946.584 784.843,946.313 787.209,945.984 789.576,945.596 791.942,945.152 794.308,944.652 
  796.674,944.098 799.415,943.39 802.157,942.614 804.898,941.772 807.64,940.867 810.381,939.902 813.123,938.882 815.864,937.808 818.606,936.686 821.347,935.52 
  824.089,934.312 826.83,933.069 829.571,931.793 835.054,929.163 840.537,926.461 846.02,923.724 851.503,920.992 856.986,918.301 862.469,915.692 865.21,914.429 
  867.952,913.2 870.693,912.009 873.435,910.861 876.176,909.759 878.917,908.707 881.659,907.709 884.4,906.77 886.837,905.985 889.273,905.251 891.709,904.57 
  894.145,903.942 896.582,903.371 899.018,902.857 901.454,902.403 903.891,902.008 906.327,901.675 908.763,901.404 911.199,901.197 913.636,901.053 916.072,900.973 
  918.508,900.958 920.944,901.006 923.381,901.119 925.817,901.296 928.253,901.537 930.69,901.84 933.126,902.205 935.562,902.63 937.998,903.116 940.435,903.659 
  942.871,904.26 945.307,904.916 947.743,905.624 950.18,906.385 952.616,907.194 955.052,908.051 957.489,908.951 959.925,909.894 962.361,910.877 966.634,912.686 
  970.907,914.593 975.179,916.581 979.452,918.632 987.998,922.856 996.543,927.118 1000.82,929.219 1005.09,931.275 1009.36,933.268 1013.63,935.182 1017.91,937.001 
  1022.18,938.708 1024.32,939.515 1026.45,940.288 1028.59,941.027 1030.73,941.729 1033.05,942.452 1035.38,943.127 1037.71,943.754 1040.04,944.33 1042.37,944.854 
  1044.7,945.325 1047.03,945.742 1049.36,946.103 1051.69,946.408 1054.02,946.656 1056.35,946.846 1058.68,946.978 1061.01,947.051 1063.34,947.066 1065.66,947.021 
  1067.99,946.918 1070.32,946.757 1072.65,946.537 1074.98,946.26 1077.31,945.927 1079.64,945.537 1081.97,945.093 1084.3,944.594 1086.63,944.043 1088.96,943.441 
  1091.29,942.79 1093.62,942.091 1095.94,941.345 1098.27,940.555 1100.6,939.723 1102.93,938.851 1105.26,937.942 1109.95,936.006 1114.63,933.946 1119.32,931.784 
  1124.01,929.542 1133.38,924.91 1142.75,920.241 1147.44,917.953 1152.12,915.728 1156.81,913.587 1161.5,911.555 1163.84,910.586 1166.18,909.651 1168.52,908.753 
  1170.87,907.895 1173.21,907.078 1175.55,906.306 1177.9,905.578 1180.24,904.899 1182.83,904.205 1185.42,903.573 1188.01,903.006 1190.6,902.506 1193.19,902.073 
  1195.78,901.709 1198.37,901.416 1200.96,901.194 1203.56,901.045 1206.15,900.967 1208.74,900.962 1211.33,901.03 1213.92,901.171 1216.51,901.384 1219.1,901.668 
  1221.69,902.022 1224.28,902.446 1226.87,902.938 1229.46,903.496 1232.05,904.12 1234.64,904.805 1237.23,905.552 1239.82,906.357 1242.41,907.217 1245,908.131 
  1247.6,909.094 1250.19,910.105 1252.78,911.16 1255.37,912.255 1257.96,913.387 1260.55,914.553 1263.14,915.748 1268.07,918.092 1273,920.504 1277.93,922.955 
  1282.86,925.419 1287.79,927.866 1292.72,930.27 1297.65,932.602 1302.58,934.836 1305.04,935.908 1307.51,936.946 1309.97,937.948 1312.44,938.909 1314.9,939.828 
  1317.37,940.702 1319.83,941.528 1322.3,942.304 1324.76,943.027 1327.23,943.697 1329.69,944.31 1332.16,944.865 1334.62,945.361 1337.08,945.795 1339.55,946.168 
  1342.01,946.477 1344.58,946.73 1347.14,946.913 1349.7,947.026 1352.27,947.067 1354.83,947.038 1357.39,946.937 1359.95,946.765 1362.52,946.523 1365.08,946.211 
  1367.64,945.831 1370.21,945.384 1372.77,944.87 1375.33,944.292 1377.9,943.652 1380.46,942.951 1383.02,942.191 1385.58,941.375 1388.15,940.506 1390.71,939.585 
  1393.27,938.617 1395.84,937.603 1398.4,936.548 1400.96,935.453 1403.52,934.324 1408.65,931.973 1413.78,929.523 1418.9,927.006 1424.03,924.451 1432.66,920.155 
  1441.29,915.993 1445.6,914.008 1449.92,912.111 1452.07,911.2 1454.23,910.318 1456.39,909.465 1458.55,908.645 1460.7,907.858 1462.86,907.106 1465.02,906.391 
  1467.18,905.715 1469.33,905.079 1471.49,904.484 1473.65,903.932 1475.81,903.424 1477.96,902.961 1480.12,902.544 1482.28,902.175 1484.43,901.852 1486.59,901.579 
  1488.75,901.354 1490.91,901.179 1493.06,901.055 1495.7,900.97 1498.33,900.961 1500.97,901.027 1503.6,901.168 1506.23,901.383 1508.87,901.672 1511.5,902.034 
  1514.14,902.468 1516.77,902.972 1519.4,903.545 1522.04,904.184 1524.67,904.889 1527.31,905.655 1529.94,906.481 1532.57,907.365 1535.21,908.303 1537.84,909.292 
  1540.48,910.329 1543.11,911.411 1545.74,912.534 1548.38,913.694 1551.01,914.888 1553.65,916.111 1556.28,917.361 1566.82,922.534 1577.35,927.784 1582.18,930.139 
  1587,932.428 1591.83,934.624 1596.65,936.704 1599.07,937.693 1601.48,938.645 1603.89,939.557 1606.31,940.426 1608.72,941.251 1611.13,942.028 1613.54,942.756 
  1615.96,943.432 1618.37,944.055 1620.78,944.624 1623.2,945.136 1625.61,945.59 1628.02,945.985 1630.43,946.32 1632.85,946.594 1635.26,946.807 1637.67,946.956 
  1640.09,947.043 1642.5,947.067 1644.91,947.028 1647.32,946.926 1649.74,946.761 1652.15,946.533 1654.56,946.245 1656.79,945.924 1659.02,945.552 1661.25,945.129 
  1663.48,944.658 1665.71,944.138 1667.93,943.571 1670.16,942.958 1672.39,942.301 1674.62,941.602 1676.85,940.861 1679.08,940.082 1681.3,939.264 1683.53,938.411 
  1685.76,937.524 1687.99,936.606 1690.22,935.658 1694.68,933.684 1699.13,931.619 1703.59,929.483 1708.05,927.296 1716.96,922.851 1725.87,918.449 1730.39,916.288 
  1734.9,914.202 1739.42,912.209 1743.93,910.33 1746.19,909.438 1748.45,908.581 1750.7,907.761 1752.96,906.98 1755.22,906.24 1757.48,905.543 1759.73,904.889 
  1761.99,904.282 1764.25,903.722 1766.51,903.21 1768.76,902.749 1771.02,902.338 1773.28,901.979 1775.54,901.673 1777.79,901.421 1780.05,901.222 1782.31,901.078 
  1784.57,900.99 1786.82,900.956 1789.08,900.977 1791.34,901.054 1793.6,901.186 1795.85,901.372 1798.11,901.613 1800.64,901.947 1803.17,902.346 1805.7,902.812 
  1808.23,903.34 1810.76,903.932 1813.29,904.583 1815.82,905.293 1818.35,906.059 1820.88,906.88 1823.41,907.752 1825.94,908.672 1828.47,909.639 1831,910.65 
  1833.53,911.7 1836.06,912.788 1838.59,913.909 1843.65,916.239 1848.71,918.663 1853.77,921.151 1858.83,923.674 1863.89,926.2 1868.95,928.7 1874.01,931.144 
  1879.07,933.502 1881.36,934.535 1883.65,935.541 1885.94,936.519 1888.24,937.466 1890.53,938.38 1892.82,939.258 1895.11,940.099 1897.41,940.9 1899.7,941.659 
  1901.99,942.375 1904.28,943.045 1906.58,943.668 1908.87,944.242 1911.16,944.767 1913.45,945.24 1915.75,945.661 1918.04,946.028 1920.33,946.341 1922.62,946.599 
  1924.92,946.801 1927.21,946.947 1929.5,947.035 1931.79,947.067 1934.09,947.043 1936.38,946.961 1938.67,946.822 1940.96,946.627 1943.26,946.376 1945.55,946.07 
  1947.84,945.71 1950.13,945.295 1952.43,944.829 1955.05,944.231 1957.67,943.568 1960.3,942.842 1962.92,942.054 1965.55,941.208 1968.17,940.307 1970.8,939.353 
  1973.42,938.349 1976.05,937.298 1978.67,936.205 1981.3,935.072 1983.92,933.903 1989.17,931.473 1994.42,928.947 2004.92,923.736 2015.42,918.539 2020.67,916.03 
  2025.92,913.625 2028.54,912.47 2031.17,911.354 2033.79,910.278 2036.42,909.247 2038.85,908.334 2041.28,907.465 2043.71,906.643 2046.14,905.868 2048.57,905.144 
  2051,904.472 2053.43,903.854 2055.86,903.293 2058.29,902.789 2060.72,902.343 2063.15,901.958 2065.58,901.635 2068.01,901.373 2070.44,901.174 2072.87,901.039 
  2075.3,900.968 2077.73,900.96 2080.16,901.017 2082.59,901.137 2085.02,901.321 2087.45,901.568 2089.88,901.877 2092.31,902.248 2094.74,902.679 2097.17,903.169 
  2099.6,903.718 2102.03,904.322 2104.46,904.981 2106.89,905.694 2109.32,906.457 2111.76,907.268 2114.19,908.127 2116.58,909.016 2118.98,909.946 2121.37,910.914 
  2123.77,911.917 2126.17,912.952 2128.56,914.018 2130.96,915.111 2133.35,916.227 2142.94,920.873 2152.52,925.654 2157.31,928.03 2162.1,930.364 2166.9,932.629 
  2171.69,934.8 2174.08,935.844 2176.48,936.856 2178.88,937.833 2181.27,938.773 2183.67,939.673 2186.06,940.53 2188.46,941.343 2190.86,942.11 2193.18,942.807 
  2195.51,943.456 2197.83,944.056 2200.16,944.605 2202.49,945.102 2204.81,945.545 2207.14,945.933 2209.47,946.265 2211.79,946.541 2214.12,946.759 2216.45,946.92 
  2218.77,947.022 2221.1,947.066 2223.42,947.051 2225.75,946.977 2228.08,946.845 2230.4,946.655 2232.73,946.407 2235.06,946.102 2237.38,945.741 2239.71,945.325 
  2242.03,944.855 2244.36,944.331 2246.69,943.756 2249.01,943.131 2251.34,942.456 2253.67,941.735 2255.99,940.969 2258.32,940.16 2260.64,939.31 2262.97,938.42 
  2265.3,937.494 2270.07,935.491 2274.84,933.365 2279.61,931.14 2284.37,928.838 2293.91,924.104 2303.45,919.367 2308.22,917.06 2312.99,914.827 2317.76,912.693 
  2322.53,910.679 2324.92,909.725 2327.3,908.809 2329.68,907.933 2332.07,907.1 2334.45,906.313 2336.84,905.573 2339.22,904.882 2341.61,904.242 2344.22,903.602 
  2346.83,903.027 2349.45,902.52 2352.06,902.082 2354.67,901.714 2357.29,901.417 2359.9,901.194 2362.51,901.043 2365.12,900.966 2367.74,900.963 2370.35,901.034 
  2372.96,901.179 2375.57,901.397 2378.19,901.688 2380.8,902.05 2383.41,902.483 2386.03,902.985 2388.64,903.555 2391.25,904.19 2393.86,904.888 2396.48,905.648 
  2399.09,906.467 2401.7,907.343 2404.31,908.272 2406.93,909.251 2409.54,910.278 2412.15,911.348 2414.77,912.46 2417.38,913.608 2419.99,914.79 2422.6,916.002 
  2425.22,917.239 2432.81,920.942 2440.4,924.728 2447.99,928.495 2455.58,932.141 2459.38,933.887 2463.17,935.567 2466.97,937.168 2470.76,938.68 2474.56,940.093 
  2478.35,941.397 2480.25,942.005 2482.15,942.583 2484.05,943.129 2485.94,943.643 2487.84,944.124 2489.74,944.571 2491.64,944.983 2493.53,945.359 2495.43,945.7 
  2497.33,946.003 2499.23,946.269 2501.13,946.498 2503.02,946.688 2504.92,946.841 2506.82,946.954 2508.72,947.029 2510.61,947.064 2512.51,947.061 2514.41,947.018 
  2516.31,946.937 2518.21,946.817 2520.1,946.658 2522,946.461 2523.9,946.225 2525.8,945.953 2527.69,945.643 2529.59,945.296 2531.49,944.913 2533.39,944.495 
  2535.28,944.042 2537.18,943.556 2539.08,943.036 2540.98,942.484 2542.88,941.901 2544.77,941.287 2546.67,940.644 2549.79,939.529 2552.9,938.342 2556.01,937.091 
  2559.13,935.779 2562.24,934.415 2565.36,933.002 2568.47,931.549 2571.59,930.061 
  "/>
</svg>
