<?xml version="1.0" encoding="utf-8"?>
<svg xmlns="http://www.w3.org/2000/svg" xmlns:xlink="http://www.w3.org/1999/xlink" width="672" height="480" viewBox="0 0 2688 1920">
<defs>
  <clipPath id="clip740">
    <rect x="0" y="0" width="2688" height="1920"/>
  </clipPath>
</defs>
<path clip-path="url(#clip740)" d="
M0 1920 L2688 1920 L2688 0 L0 0  Z
  " fill="#ffffff" fill-rule="evenodd" fill-opacity="1"/>
<defs>
  <clipPath id="clip741">
    <rect x="537" y="0" width="1883" height="1883"/>
  </clipPath>
</defs>
<path clip-path="url(#clip740)" d="
M196.816 1800.78 L2640.76 1800.78 L2640.76 47.2441 L196.816 47.2441  Z
  " fill="#ffffff" fill-rule="evenodd" fill-opacity="1"/>
<defs>
  <clipPath id="clip742">
    <rect x="196" y="47" width="2445" height="1755"/>
  </clipPath>
</defs>
<polyline clip-path="url(#clip742)" style="stroke:#000000; stroke-linecap:round; stroke-linejoin:round; stroke-width:2; stroke-opacity:0.1; fill:none" points="
  265.984,1800.78 265.984,47.2441 
  "/>
<polyline clip-path="url(#clip742)" style="stroke:#000000; stroke-linecap:round; stroke-linejoin:round; stroke-width:2; stroke-opacity:0.1; fill:none" points="
  842.385,1800.78 842.385,47.2441 
  "/>
<polyline clip-path="url(#clip742)" style="stroke:#000000; stroke-linecap:round; stroke-linejoin:round; stroke-width:2; stroke-opacity:0.1; fill:none" points="
  1418.79,1800.78 1418.79,47.2441 
  "/>
<polyline clip-path="url(#clip742)" style="stroke:#000000; stroke-linecap:round; stroke-linejoin:round; stroke-width:2; stroke-opacity:0.1; fill:none" points="
  1995.19,1800.78 1995.19,47.2441 
  "/>
<polyline clip-path="url(#clip742)" style="stroke:#000000; stroke-linecap:round; stroke-linejoin:round; stroke-width:2; stroke-opacity:0.1; fill:none" points="
  2571.59,1800.78 2571.59,47.2441 
  "/>
<polyline clip-path="url(#clip740)" style="stroke:#000000; stroke-linecap:round; stroke-linejoin:round; stroke-width:4; stroke-opacity:1; fill:none" points="
  196.816,1800.78 2640.76,1800.78 
  "/>
<polyline clip-path="url(#clip740)" style="stroke:#000000; stroke-linecap:round; stroke-linejoin:round; stroke-width:4; stroke-opacity:1; fill:none" points="
  265.984,1800.78 265.984,1781.88 
  "/>
<polyline clip-path="url(#clip740)" style="stroke:#000000; stroke-linecap:round; stroke-linejoin:round; stroke-width:4; stroke-opacity:1; fill:none" points="
  842.385,1800.78 842.385,1781.88 
  "/>
<polyline clip-path="url(#clip740)" style="stroke:#000000; stroke-linecap:round; stroke-linejoin:round; stroke-width:4; stroke-opacity:1; fill:none" points="
  1418.79,1800.78 1418.79,1781.88 
  "/>
<polyline clip-path="url(#clip740)" style="stroke:#000000; stroke-linecap:round; stroke-linejoin:round; stroke-width:4; stroke-opacity:1; fill:none" points="
  1995.19,1800.78 1995.19,1781.88 
  "/>
<polyline clip-path="url(#clip740)" style="stroke:#000000; stroke-linecap:round; stroke-linejoin:round; stroke-width:4; stroke-opacity:1; fill:none" points="
  2571.59,1800.78 2571.59,1781.88 
  "/>
<path clip-path="url(#clip740)" d="M265.984 1834 Q262.373 1834 260.544 1837.57 Q258.739 1841.11 258.739 1848.24 Q258.739 1855.34 260.544 1858.91 Q262.373 1862.45 265.984 1862.45 Q269.618 1862.45 271.424 1858.91 Q273.253 1855.34 273.253 1848.24 Q273.253 1841.11 271.424 1837.57 Q269.618 1834 265.984 1834 M265.984 1830.3 Q271.794 1830.3 274.85 1834.9 Q277.928 1839.49 277.928 1848.24 Q277.928 1856.96 274.85 1861.57 Q271.794 1866.15 265.984 1866.15 Q260.174 1866.15 257.095 1861.57 Q254.04 1856.96 254.04 1848.24 Q254.04 1839.49 257.095 1834.9 Q260.174 1830.3 265.984 1830.3 Z" fill="#000000" fill-rule="evenodd" fill-opacity="1" /><path clip-path="url(#clip740)" d="M832.767 1861.55 L840.406 1861.55 L840.406 1835.18 L832.096 1836.85 L832.096 1832.59 L840.36 1830.92 L845.035 1830.92 L845.035 1861.55 L852.674 1861.55 L852.674 1865.48 L832.767 1865.48 L832.767 1861.55 Z" fill="#000000" fill-rule="evenodd" fill-opacity="1" /><path clip-path="url(#clip740)" d="M1413.44 1861.55 L1429.76 1861.55 L1429.76 1865.48 L1407.81 1865.48 L1407.81 1861.55 Q1410.48 1858.79 1415.06 1854.16 Q1419.67 1849.51 1420.85 1848.17 Q1423.09 1845.65 1423.97 1843.91 Q1424.87 1842.15 1424.87 1840.46 Q1424.87 1837.71 1422.93 1835.97 Q1421.01 1834.23 1417.91 1834.23 Q1415.71 1834.23 1413.25 1835 Q1410.82 1835.76 1408.05 1837.31 L1408.05 1832.59 Q1410.87 1831.46 1413.32 1830.88 Q1415.78 1830.3 1417.81 1830.3 Q1423.18 1830.3 1426.38 1832.98 Q1429.57 1835.67 1429.57 1840.16 Q1429.57 1842.29 1428.76 1844.21 Q1427.98 1846.11 1425.87 1848.7 Q1425.29 1849.37 1422.19 1852.59 Q1419.09 1855.78 1413.44 1861.55 Z" fill="#000000" fill-rule="evenodd" fill-opacity="1" /><path clip-path="url(#clip740)" d="M1999.43 1846.85 Q2002.79 1847.57 2004.67 1849.84 Q2006.56 1852.1 2006.56 1855.44 Q2006.56 1860.55 2003.05 1863.35 Q1999.53 1866.15 1993.05 1866.15 Q1990.87 1866.15 1988.55 1865.71 Q1986.26 1865.3 1983.81 1864.44 L1983.81 1859.93 Q1985.75 1861.06 1988.07 1861.64 Q1990.38 1862.22 1992.91 1862.22 Q1997.3 1862.22 1999.6 1860.48 Q2001.91 1858.75 2001.91 1855.44 Q2001.91 1852.38 1999.76 1850.67 Q1997.63 1848.93 1993.81 1848.93 L1989.78 1848.93 L1989.78 1845.09 L1993.99 1845.09 Q1997.44 1845.09 1999.27 1843.72 Q2001.1 1842.34 2001.1 1839.74 Q2001.1 1837.08 1999.2 1835.67 Q1997.33 1834.23 1993.81 1834.23 Q1991.89 1834.23 1989.69 1834.65 Q1987.49 1835.07 1984.85 1835.95 L1984.85 1831.78 Q1987.51 1831.04 1989.83 1830.67 Q1992.17 1830.3 1994.23 1830.3 Q1999.55 1830.3 2002.65 1832.73 Q2005.75 1835.14 2005.75 1839.26 Q2005.75 1842.13 2004.11 1844.12 Q2002.47 1846.09 1999.43 1846.85 Z" fill="#000000" fill-rule="evenodd" fill-opacity="1" /><path clip-path="url(#clip740)" d="M2574.6 1835 L2562.79 1853.45 L2574.6 1853.45 L2574.6 1835 M2573.37 1830.92 L2579.25 1830.92 L2579.25 1853.45 L2584.18 1853.45 L2584.18 1857.34 L2579.25 1857.34 L2579.25 1865.48 L2574.6 1865.48 L2574.6 1857.34 L2559 1857.34 L2559 1852.82 L2573.37 1830.92 Z" fill="#000000" fill-rule="evenodd" fill-opacity="1" /><polyline clip-path="url(#clip742)" style="stroke:#000000; stroke-linecap:round; stroke-linejoin:round; stroke-width:2; stroke-opacity:0.1; fill:none" points="
  196.816,1788.61 2640.76,1788.61 
  "/>
<polyline clip-path="url(#clip742)" style="stroke:#000000; stroke-linecap:round; stroke-linejoin:round; stroke-width:2; stroke-opacity:0.1; fill:none" points="
  196.816,1500.41 2640.76,1500.41 
  "/>
<polyline clip-path="url(#clip742)" style="stroke:#000000; stroke-linecap:round; stroke-linejoin:round; stroke-width:2; stroke-opacity:0.1; fill:none" points="
  196.816,1212.21 2640.76,1212.21 
  "/>
<polyline clip-path="url(#clip742)" style="stroke:#000000; stroke-linecap:round; stroke-linejoin:round; stroke-width:2; stroke-opacity:0.1; fill:none" points="
  196.816,924.012 2640.76,924.012 
  "/>
<polyline clip-path="url(#clip742)" style="stroke:#000000; stroke-linecap:round; stroke-linejoin:round; stroke-width:2; stroke-opacity:0.1; fill:none" points="
  196.816,635.811 2640.76,635.811 
  "/>
<polyline clip-path="url(#clip742)" style="stroke:#000000; stroke-linecap:round; stroke-linejoin:round; stroke-width:2; stroke-opacity:0.1; fill:none" points="
  196.816,347.611 2640.76,347.611 
  "/>
<polyline clip-path="url(#clip742)" style="stroke:#000000; stroke-linecap:round; stroke-linejoin:round; stroke-width:2; stroke-opacity:0.1; fill:none" points="
  196.816,59.4103 2640.76,59.4103 
  "/>
<polyline clip-path="url(#clip740)" style="stroke:#000000; stroke-linecap:round; stroke-linejoin:round; stroke-width:4; stroke-opacity:1; fill:none" points="
  196.816,1800.78 196.816,47.2441 
  "/>
<polyline clip-path="url(#clip740)" style="stroke:#000000; stroke-linecap:round; stroke-linejoin:round; stroke-width:4; stroke-opacity:1; fill:none" points="
  196.816,1788.61 215.714,1788.61 
  "/>
<polyline clip-path="url(#clip740)" style="stroke:#000000; stroke-linecap:round; stroke-linejoin:round; stroke-width:4; stroke-opacity:1; fill:none" points="
  196.816,1500.41 215.714,1500.41 
  "/>
<polyline clip-path="url(#clip740)" style="stroke:#000000; stroke-linecap:round; stroke-linejoin:round; stroke-width:4; stroke-opacity:1; fill:none" points="
  196.816,1212.21 215.714,1212.21 
  "/>
<polyline clip-path="url(#clip740)" style="stroke:#000000; stroke-linecap:round; stroke-linejoin:round; stroke-width:4; stroke-opacity:1; fill:none" points="
  196.816,924.012 215.714,924.012 
  "/>
<polyline clip-path="url(#clip740)" style="stroke:#000000; stroke-linecap:round; stroke-linejoin:round; stroke-width:4; stroke-opacity:1; fill:none" points="
  196.816,635.811 215.714,635.811 
  "/>
<polyline clip-path="url(#clip740)" style="stroke:#000000; stroke-linecap:round; stroke-linejoin:round; stroke-width:4; stroke-opacity:1; fill:none" points="
  196.816,347.611 215.714,347.611 
  "/>
<polyline clip-path="url(#clip740)" style="stroke:#000000; stroke-linecap:round; stroke-linejoin:round; stroke-width:4; stroke-opacity:1; fill:none" points="
  196.816,59.4103 215.714,59.4103 
  "/>
<path clip-path="url(#clip740)" d="M50.5475 1789.06 L80.2233 1789.06 L80.2233 1793 L50.5475 1793 L50.5475 1789.06 Z" fill="#000000" fill-rule="evenodd" fill-opacity="1" /><path clip-path="url(#clip740)" d="M91.126 1801.96 L98.7648 1801.96 L98.7648 1775.59 L90.4547 1777.26 L90.4547 1773 L98.7185 1771.33 L103.394 1771.33 L103.394 1801.96 L111.033 1801.96 L111.033 1805.89 L91.126 1805.89 L91.126 1801.96 Z" fill="#000000" fill-rule="evenodd" fill-opacity="1" /><path clip-path="url(#clip740)" d="M120.478 1800.01 L125.362 1800.01 L125.362 1805.89 L120.478 1805.89 L120.478 1800.01 Z" fill="#000000" fill-rule="evenodd" fill-opacity="1" /><path clip-path="url(#clip740)" d="M135.593 1771.33 L153.95 1771.33 L153.95 1775.27 L139.876 1775.27 L139.876 1783.74 Q140.894 1783.39 141.913 1783.23 Q142.931 1783.05 143.95 1783.05 Q149.737 1783.05 153.116 1786.22 Q156.496 1789.39 156.496 1794.81 Q156.496 1800.38 153.024 1803.49 Q149.552 1806.56 143.232 1806.56 Q141.056 1806.56 138.788 1806.19 Q136.542 1805.82 134.135 1805.08 L134.135 1800.38 Q136.218 1801.52 138.441 1802.07 Q140.663 1802.63 143.14 1802.63 Q147.144 1802.63 149.482 1800.52 Q151.82 1798.42 151.82 1794.81 Q151.82 1791.19 149.482 1789.09 Q147.144 1786.98 143.14 1786.98 Q141.265 1786.98 139.39 1787.4 Q137.538 1787.81 135.593 1788.69 L135.593 1771.33 Z" fill="#000000" fill-rule="evenodd" fill-opacity="1" /><path clip-path="url(#clip740)" d="M49.5521 1500.86 L79.2279 1500.86 L79.2279 1504.8 L49.5521 1504.8 L49.5521 1500.86 Z" fill="#000000" fill-rule="evenodd" fill-opacity="1" /><path clip-path="url(#clip740)" d="M90.1306 1513.76 L97.7695 1513.76 L97.7695 1487.39 L89.4593 1489.06 L89.4593 1484.8 L97.7232 1483.13 L102.399 1483.13 L102.399 1513.76 L110.038 1513.76 L110.038 1517.69 L90.1306 1517.69 L90.1306 1513.76 Z" fill="#000000" fill-rule="evenodd" fill-opacity="1" /><path clip-path="url(#clip740)" d="M119.482 1511.81 L124.367 1511.81 L124.367 1517.69 L119.482 1517.69 L119.482 1511.81 Z" fill="#000000" fill-rule="evenodd" fill-opacity="1" /><path clip-path="url(#clip740)" d="M144.552 1486.21 Q140.941 1486.21 139.112 1489.78 Q137.306 1493.32 137.306 1500.45 Q137.306 1507.55 139.112 1511.12 Q140.941 1514.66 144.552 1514.66 Q148.186 1514.66 149.991 1511.12 Q151.82 1507.55 151.82 1500.45 Q151.82 1493.32 149.991 1489.78 Q148.186 1486.21 144.552 1486.21 M144.552 1482.51 Q150.362 1482.51 153.417 1487.11 Q156.496 1491.7 156.496 1500.45 Q156.496 1509.17 153.417 1513.78 Q150.362 1518.36 144.552 1518.36 Q138.741 1518.36 135.663 1513.78 Q132.607 1509.17 132.607 1500.45 Q132.607 1491.7 135.663 1487.11 Q138.741 1482.51 144.552 1482.51 Z" fill="#000000" fill-rule="evenodd" fill-opacity="1" /><path clip-path="url(#clip740)" d="M50.5475 1212.66 L80.2233 1212.66 L80.2233 1216.6 L50.5475 1216.6 L50.5475 1212.66 Z" fill="#000000" fill-rule="evenodd" fill-opacity="1" /><path clip-path="url(#clip740)" d="M100.316 1198.01 Q96.7047 1198.01 94.876 1201.58 Q93.0704 1205.12 93.0704 1212.25 Q93.0704 1219.35 94.876 1222.92 Q96.7047 1226.46 100.316 1226.46 Q103.95 1226.46 105.756 1222.92 Q107.584 1219.35 107.584 1212.25 Q107.584 1205.12 105.756 1201.58 Q103.95 1198.01 100.316 1198.01 M100.316 1194.31 Q106.126 1194.31 109.181 1198.91 Q112.26 1203.5 112.26 1212.25 Q112.26 1220.97 109.181 1225.58 Q106.126 1230.16 100.316 1230.16 Q94.5056 1230.16 91.4269 1225.58 Q88.3714 1220.97 88.3714 1212.25 Q88.3714 1203.5 91.4269 1198.91 Q94.5056 1194.31 100.316 1194.31 Z" fill="#000000" fill-rule="evenodd" fill-opacity="1" /><path clip-path="url(#clip740)" d="M120.478 1223.61 L125.362 1223.61 L125.362 1229.49 L120.478 1229.49 L120.478 1223.61 Z" fill="#000000" fill-rule="evenodd" fill-opacity="1" /><path clip-path="url(#clip740)" d="M135.593 1194.93 L153.95 1194.93 L153.95 1198.87 L139.876 1198.87 L139.876 1207.34 Q140.894 1206.99 141.913 1206.83 Q142.931 1206.65 143.95 1206.65 Q149.737 1206.65 153.116 1209.82 Q156.496 1212.99 156.496 1218.4 Q156.496 1223.98 153.024 1227.08 Q149.552 1230.16 143.232 1230.16 Q141.056 1230.16 138.788 1229.79 Q136.542 1229.42 134.135 1228.68 L134.135 1223.98 Q136.218 1225.12 138.441 1225.67 Q140.663 1226.23 143.14 1226.23 Q147.144 1226.23 149.482 1224.12 Q151.82 1222.02 151.82 1218.4 Q151.82 1214.79 149.482 1212.69 Q147.144 1210.58 143.14 1210.58 Q141.265 1210.58 139.39 1211 Q137.538 1211.41 135.593 1212.29 L135.593 1194.93 Z" fill="#000000" fill-rule="evenodd" fill-opacity="1" /><path clip-path="url(#clip740)" d="M99.3204 909.81 Q95.7093 909.81 93.8806 913.375 Q92.075 916.917 92.075 924.046 Q92.075 931.153 93.8806 934.718 Q95.7093 938.259 99.3204 938.259 Q102.955 938.259 104.76 934.718 Q106.589 931.153 106.589 924.046 Q106.589 916.917 104.76 913.375 Q102.955 909.81 99.3204 909.81 M99.3204 906.107 Q105.131 906.107 108.186 910.713 Q111.265 915.296 111.265 924.046 Q111.265 932.773 108.186 937.38 Q105.131 941.963 99.3204 941.963 Q93.5102 941.963 90.4315 937.38 Q87.376 932.773 87.376 924.046 Q87.376 915.296 90.4315 910.713 Q93.5102 906.107 99.3204 906.107 Z" fill="#000000" fill-rule="evenodd" fill-opacity="1" /><path clip-path="url(#clip740)" d="M119.482 935.412 L124.367 935.412 L124.367 941.292 L119.482 941.292 L119.482 935.412 Z" fill="#000000" fill-rule="evenodd" fill-opacity="1" /><path clip-path="url(#clip740)" d="M144.552 909.81 Q140.941 909.81 139.112 913.375 Q137.306 916.917 137.306 924.046 Q137.306 931.153 139.112 934.718 Q140.941 938.259 144.552 938.259 Q148.186 938.259 149.991 934.718 Q151.82 931.153 151.82 924.046 Q151.82 916.917 149.991 913.375 Q148.186 909.81 144.552 909.81 M144.552 906.107 Q150.362 906.107 153.417 910.713 Q156.496 915.296 156.496 924.046 Q156.496 932.773 153.417 937.38 Q150.362 941.963 144.552 941.963 Q138.741 941.963 135.663 937.38 Q132.607 932.773 132.607 924.046 Q132.607 915.296 135.663 910.713 Q138.741 906.107 144.552 906.107 Z" fill="#000000" fill-rule="evenodd" fill-opacity="1" /><path clip-path="url(#clip740)" d="M100.316 621.61 Q96.7047 621.61 94.876 625.175 Q93.0704 628.716 93.0704 635.846 Q93.0704 642.952 94.876 646.517 Q96.7047 650.059 100.316 650.059 Q103.95 650.059 105.756 646.517 Q107.584 642.952 107.584 635.846 Q107.584 628.716 105.756 625.175 Q103.95 621.61 100.316 621.61 M100.316 617.906 Q106.126 617.906 109.181 622.513 Q112.26 627.096 112.26 635.846 Q112.26 644.573 109.181 649.179 Q106.126 653.763 100.316 653.763 Q94.5056 653.763 91.4269 649.179 Q88.3714 644.573 88.3714 635.846 Q88.3714 627.096 91.4269 622.513 Q94.5056 617.906 100.316 617.906 Z" fill="#000000" fill-rule="evenodd" fill-opacity="1" /><path clip-path="url(#clip740)" d="M120.478 647.212 L125.362 647.212 L125.362 653.091 L120.478 653.091 L120.478 647.212 Z" fill="#000000" fill-rule="evenodd" fill-opacity="1" /><path clip-path="url(#clip740)" d="M135.593 618.531 L153.95 618.531 L153.95 622.466 L139.876 622.466 L139.876 630.939 Q140.894 630.591 141.913 630.429 Q142.931 630.244 143.95 630.244 Q149.737 630.244 153.116 633.415 Q156.496 636.587 156.496 642.003 Q156.496 647.582 153.024 650.684 Q149.552 653.763 143.232 653.763 Q141.056 653.763 138.788 653.392 Q136.542 653.022 134.135 652.281 L134.135 647.582 Q136.218 648.716 138.441 649.272 Q140.663 649.827 143.14 649.827 Q147.144 649.827 149.482 647.721 Q151.82 645.614 151.82 642.003 Q151.82 638.392 149.482 636.286 Q147.144 634.179 143.14 634.179 Q141.265 634.179 139.39 634.596 Q137.538 635.013 135.593 635.892 L135.593 618.531 Z" fill="#000000" fill-rule="evenodd" fill-opacity="1" /><path clip-path="url(#clip740)" d="M90.1306 360.956 L97.7695 360.956 L97.7695 334.59 L89.4593 336.257 L89.4593 331.997 L97.7232 330.331 L102.399 330.331 L102.399 360.956 L110.038 360.956 L110.038 364.891 L90.1306 364.891 L90.1306 360.956 Z" fill="#000000" fill-rule="evenodd" fill-opacity="1" /><path clip-path="url(#clip740)" d="M119.482 359.011 L124.367 359.011 L124.367 364.891 L119.482 364.891 L119.482 359.011 Z" fill="#000000" fill-rule="evenodd" fill-opacity="1" /><path clip-path="url(#clip740)" d="M144.552 333.409 Q140.941 333.409 139.112 336.974 Q137.306 340.516 137.306 347.645 Q137.306 354.752 139.112 358.317 Q140.941 361.858 144.552 361.858 Q148.186 361.858 149.991 358.317 Q151.82 354.752 151.82 347.645 Q151.82 340.516 149.991 336.974 Q148.186 333.409 144.552 333.409 M144.552 329.706 Q150.362 329.706 153.417 334.312 Q156.496 338.896 156.496 347.645 Q156.496 356.372 153.417 360.979 Q150.362 365.562 144.552 365.562 Q138.741 365.562 135.663 360.979 Q132.607 356.372 132.607 347.645 Q132.607 338.896 135.663 334.312 Q138.741 329.706 144.552 329.706 Z" fill="#000000" fill-rule="evenodd" fill-opacity="1" /><path clip-path="url(#clip740)" d="M91.126 72.7552 L98.7648 72.7552 L98.7648 46.3896 L90.4547 48.0562 L90.4547 43.797 L98.7185 42.1303 L103.394 42.1303 L103.394 72.7552 L111.033 72.7552 L111.033 76.6903 L91.126 76.6903 L91.126 72.7552 Z" fill="#000000" fill-rule="evenodd" fill-opacity="1" /><path clip-path="url(#clip740)" d="M120.478 70.8107 L125.362 70.8107 L125.362 76.6903 L120.478 76.6903 L120.478 70.8107 Z" fill="#000000" fill-rule="evenodd" fill-opacity="1" /><path clip-path="url(#clip740)" d="M135.593 42.1303 L153.95 42.1303 L153.95 46.0655 L139.876 46.0655 L139.876 54.5377 Q140.894 54.1904 141.913 54.0284 Q142.931 53.8432 143.95 53.8432 Q149.737 53.8432 153.116 57.0145 Q156.496 60.1858 156.496 65.6024 Q156.496 71.1811 153.024 74.2829 Q149.552 77.3616 143.232 77.3616 Q141.056 77.3616 138.788 76.9912 Q136.542 76.6209 134.135 75.8801 L134.135 71.1811 Q136.218 72.3153 138.441 72.8709 Q140.663 73.4264 143.14 73.4264 Q147.144 73.4264 149.482 71.32 Q151.82 69.2135 151.82 65.6024 Q151.82 61.9913 149.482 59.8849 Q147.144 57.7784 143.14 57.7784 Q141.265 57.7784 139.39 58.195 Q137.538 58.6117 135.593 59.4913 L135.593 42.1303 Z" fill="#000000" fill-rule="evenodd" fill-opacity="1" /><path clip-path="url(#clip742)" d="
M842.593 908.519 L843.279 891.928 L843.964 881.377 L844.649 872.97 L845.335 865.773 L846.02 859.38 L846.705 853.571 L847.391 848.212 L848.076 843.213 L848.762 838.512 
  L850.132 829.826 L851.503 821.894 L852.874 814.552 L854.244 807.689 L855.615 801.225 L856.986 795.098 L859.727 783.685 L862.469 773.183 L863.839 768.216 L865.21 763.413 
  L866.581 758.761 L867.952 754.248 L870.693 745.596 L873.435 737.384 L876.176 729.557 L878.917 722.071 L881.659 714.888 L884.4 707.979 L889.273 696.297 L894.145 685.285 
  L899.018 674.855 L903.891 664.935 L908.763 655.47 L913.636 646.413 L918.508 637.725 L923.381 629.373 L933.126 613.573 L942.871 598.83 L952.616 585.008 L962.361 571.997 
  L970.907 561.186 L979.452 550.884 L987.998 541.05 L996.543 531.648 L1013.63 514.023 L1030.73 497.811 L1033.05 495.702 L1035.38 493.615 L1037.71 491.552 L1040.04 489.51 
  L1044.7 485.493 L1049.36 481.561 L1058.68 473.946 L1067.99 466.647 L1077.31 459.649 L1086.63 452.94 L1095.94 446.506 L1105.26 440.338 L1114.63 434.39 L1124.01 428.691 
  L1133.38 423.232 L1142.75 418.005 L1161.5 408.221 L1180.24 399.289 L1190.6 394.701 L1200.96 390.353 L1211.33 386.24 L1221.69 382.356 L1242.41 375.258 L1263.14 369.023 
  L1282.86 363.867 L1302.58 359.447 L1322.3 355.744 L1342.01 352.746 L1362.52 350.364 L1383.02 348.721 L1403.52 347.813 L1424.03 347.635 L1441.29 348.05 L1458.55 348.984 
  L1475.81 350.438 L1493.06 352.417 L1514.14 355.552 L1535.21 359.491 L1556.28 364.25 L1577.35 369.85 L1596.65 375.741 L1615.96 382.383 L1635.26 389.805 L1654.56 398.039 
  L1672.39 406.399 L1690.22 415.521 L1708.05 425.447 L1725.87 436.226 L1734.9 442.029 L1743.93 448.073 L1752.96 454.369 L1761.99 460.927 L1771.02 467.757 L1780.05 474.873 
  L1784.57 478.542 L1789.08 482.288 L1793.6 486.112 L1798.11 490.017 L1808.23 499.074 L1818.35 508.575 L1828.47 518.551 L1838.59 529.038 L1848.71 540.077 L1858.83 551.719 
  L1868.95 564.021 L1879.07 577.053 L1888.24 589.565 L1897.41 602.825 L1906.58 616.93 L1915.75 632.003 L1924.92 648.202 L1934.09 665.74 L1938.67 675.098 L1943.26 684.91 
  L1945.55 690.004 L1947.84 695.234 L1948.99 697.903 L1950.13 700.61 L1951.28 703.356 L1952.43 706.143 L1957.67 719.471 L1962.92 733.876 L1965.55 741.561 L1968.17 749.624 
  L1970.8 758.12 L1973.42 767.118 L1976.05 776.712 L1978.67 787.027 L1981.3 798.239 L1983.92 810.614 L1985.23 817.363 L1986.55 824.586 L1987.86 832.395 L1989.17 840.956 
  L1989.83 845.595 L1990.48 850.531 L1991.14 855.831 L1991.8 861.585 L1992.45 867.934 L1993.11 875.11 L1993.76 883.549 L1994.42 894.31 L1995.08 912.772 L1995.08 924.012 
  L1994.42 924.012 L1993.76 924.012 L1993.11 924.012 L1992.45 924.012 L1991.8 924.012 L1991.14 924.012 L1990.48 924.012 L1989.83 924.012 L1989.17 924.012 L1987.86 924.012 
  L1986.55 924.012 L1985.23 924.012 L1983.92 924.012 L1981.3 924.012 L1978.67 924.012 L1976.05 924.012 L1973.42 924.012 L1970.8 924.012 L1968.17 924.012 L1965.55 924.012 
  L1962.92 924.012 L1957.67 924.012 L1952.43 924.012 L1951.28 924.012 L1950.13 924.012 L1948.99 924.012 L1947.84 924.012 L1945.55 924.012 L1943.26 924.012 L1938.67 924.012 
  L1934.09 924.012 L1924.92 924.012 L1915.75 924.012 L1906.58 924.012 L1897.41 924.012 L1888.24 924.012 L1879.07 924.012 L1868.95 924.012 L1858.83 924.012 L1848.71 924.012 
  L1838.59 924.012 L1828.47 924.012 L1818.35 924.012 L1808.23 924.012 L1798.11 924.012 L1793.6 924.012 L1789.08 924.012 L1784.57 924.012 L1780.05 924.012 L1771.02 924.012 
  L1761.99 924.012 L1752.96 924.012 L1743.93 924.012 L1734.9 924.012 L1725.87 924.012 L1708.05 924.012 L1690.22 924.012 L1672.39 924.012 L1654.56 924.012 L1635.26 924.012 
  L1615.96 924.012 L1596.65 924.012 L1577.35 924.012 L1556.28 924.012 L1535.21 924.012 L1514.14 924.012 L1493.06 924.012 L1475.81 924.012 L1458.55 924.012 L1441.29 924.012 
  L1424.03 924.012 L1403.52 924.012 L1383.02 924.012 L1362.52 924.012 L1342.01 924.012 L1322.3 924.012 L1302.58 924.012 L1282.86 924.012 L1263.14 924.012 L1242.41 924.012 
  L1221.69 924.012 L1211.33 924.012 L1200.96 924.012 L1190.6 924.012 L1180.24 924.012 L1161.5 924.012 L1142.75 924.012 L1133.38 924.012 L1124.01 924.012 L1114.63 924.012 
  L1105.26 924.012 L1095.94 924.012 L1086.63 924.012 L1077.31 924.012 L1067.99 924.012 L1058.68 924.012 L1049.36 924.012 L1044.7 924.012 L1040.04 924.012 L1037.71 924.012 
  L1035.38 924.012 L1033.05 924.012 L1030.73 924.012 L1013.63 924.012 L996.543 924.012 L987.998 924.012 L979.452 924.012 L970.907 924.012 L962.361 924.012 L952.616 924.012 
  L942.871 924.012 L933.126 924.012 L923.381 924.012 L918.508 924.012 L913.636 924.012 L908.763 924.012 L903.891 924.012 L899.018 924.012 L894.145 924.012 L889.273 924.012 
  L884.4 924.012 L881.659 924.012 L878.917 924.012 L876.176 924.012 L873.435 924.012 L870.693 924.012 L867.952 924.012 L866.581 924.012 L865.21 924.012 L863.839 924.012 
  L862.469 924.012 L859.727 924.012 L856.986 924.012 L855.615 924.012 L854.244 924.012 L852.874 924.012 L851.503 924.012 L850.132 924.012 L848.762 924.012 L848.076 924.012 
  L847.391 924.012 L846.705 924.012 L846.02 924.012 L845.335 924.012 L844.649 924.012 L843.964 924.012 L843.279 924.012 L842.593 924.012  Z
  " fill="#009af9" fill-rule="evenodd" fill-opacity="0.3"/>
<polyline clip-path="url(#clip742)" style="stroke:#009af9; stroke-linecap:round; stroke-linejoin:round; stroke-width:4; stroke-opacity:1; fill:none" points="
  842.593,908.519 843.279,891.928 843.964,881.377 844.649,872.97 845.335,865.773 846.02,859.38 846.705,853.571 847.391,848.212 848.076,843.213 848.762,838.512 
  850.132,829.826 851.503,821.894 852.874,814.552 854.244,807.689 855.615,801.225 856.986,795.098 859.727,783.685 862.469,773.183 863.839,768.216 865.21,763.413 
  866.581,758.761 867.952,754.248 870.693,745.596 873.435,737.384 876.176,729.557 878.917,722.071 881.659,714.888 884.4,707.979 889.273,696.297 894.145,685.285 
  899.018,674.855 903.891,664.935 908.763,655.47 913.636,646.413 918.508,637.725 923.381,629.373 933.126,613.573 942.871,598.83 952.616,585.008 962.361,571.997 
  970.907,561.186 979.452,550.884 987.998,541.05 996.543,531.648 1013.63,514.023 1030.73,497.811 1033.05,495.702 1035.38,493.615 1037.71,491.552 1040.04,489.51 
  1044.7,485.493 1049.36,481.561 1058.68,473.946 1067.99,466.647 1077.31,459.649 1086.63,452.94 1095.94,446.506 1105.26,440.338 1114.63,434.39 1124.01,428.691 
  1133.38,423.232 1142.75,418.005 1161.5,408.221 1180.24,399.289 1190.6,394.701 1200.96,390.353 1211.33,386.24 1221.69,382.356 1242.41,375.258 1263.14,369.023 
  1282.86,363.867 1302.58,359.447 1322.3,355.744 1342.01,352.746 1362.52,350.364 1383.02,348.721 1403.52,347.813 1424.03,347.635 1441.29,348.05 1458.55,348.984 
  1475.81,350.438 1493.06,352.417 1514.14,355.552 1535.21,359.491 1556.28,364.25 1577.35,369.85 1596.65,375.741 1615.96,382.383 1635.26,389.805 1654.56,398.039 
  1672.39,406.399 1690.22,415.521 1708.05,425.447 1725.87,436.226 1734.9,442.029 1743.93,448.073 1752.96,454.369 1761.99,460.927 1771.02,467.757 1780.05,474.873 
  1784.57,478.542 1789.08,482.288 1793.6,486.112 1798.11,490.017 1808.23,499.074 1818.35,508.575 1828.47,518.551 1838.59,529.038 1848.71,540.077 1858.83,551.719 
  1868.95,564.021 1879.07,577.053 1888.24,589.565 1897.41,602.825 1906.58,616.93 1915.75,632.003 1924.92,648.202 1934.09,665.74 1938.67,675.098 1943.26,684.91 
  1945.55,690.004 1947.84,695.234 1948.99,697.903 1950.13,700.61 1951.28,703.356 1952.43,706.143 1957.67,719.471 1962.92,733.876 1965.55,741.561 1968.17,749.624 
  1970.8,758.12 1973.42,767.118 1976.05,776.712 1978.67,787.027 1981.3,798.239 1983.92,810.614 1985.23,817.363 1986.55,824.586 1987.86,832.395 1989.17,840.956 
  1989.83,845.595 1990.48,850.531 1991.14,855.831 1991.8,861.585 1992.45,867.934 1993.11,875.11 1993.76,883.549 1994.42,894.31 1995.08,912.772 
  "/>
<path clip-path="url(#clip742)" d="
M842.593 939.505 L843.279 956.095 L843.964 966.647 L844.649 975.053 L845.335 982.25 L846.02 988.644 L846.705 994.453 L847.391 999.812 L848.076 1004.81 L848.762 1009.51 
  L850.132 1018.2 L851.503 1026.13 L852.874 1033.47 L854.244 1040.33 L855.615 1046.8 L856.986 1052.93 L859.727 1064.34 L862.469 1074.84 L863.839 1079.81 L865.21 1084.61 
  L866.581 1089.26 L867.952 1093.78 L870.693 1102.43 L873.435 1110.64 L876.176 1118.47 L878.917 1125.95 L881.659 1133.13 L884.4 1140.04 L889.273 1151.73 L894.145 1162.74 
  L899.018 1173.17 L903.891 1183.09 L908.763 1192.55 L913.636 1201.61 L918.508 1210.3 L923.381 1218.65 L933.126 1234.45 L942.871 1249.19 L952.616 1263.02 L962.361 1276.03 
  L970.907 1286.84 L979.452 1297.14 L987.998 1306.97 L996.543 1316.38 L1013.63 1334 L1030.73 1350.21 L1033.05 1352.32 L1035.38 1354.41 L1037.71 1356.47 L1040.04 1358.51 
  L1044.7 1362.53 L1049.36 1366.46 L1058.68 1374.08 L1067.99 1381.38 L1077.31 1388.37 L1086.63 1395.08 L1095.94 1401.52 L1105.26 1407.69 L1114.63 1413.63 L1124.01 1419.33 
  L1133.38 1424.79 L1142.75 1430.02 L1161.5 1439.8 L1180.24 1448.73 L1190.6 1453.32 L1200.96 1457.67 L1211.33 1461.78 L1221.69 1465.67 L1242.41 1472.77 L1263.14 1479 
  L1282.86 1484.16 L1302.58 1488.58 L1322.3 1492.28 L1342.01 1495.28 L1362.52 1497.66 L1383.02 1499.3 L1403.52 1500.21 L1424.03 1500.39 L1441.29 1499.97 L1458.55 1499.04 
  L1475.81 1497.59 L1493.06 1495.61 L1514.14 1492.47 L1535.21 1488.53 L1556.28 1483.77 L1577.35 1478.17 L1596.65 1472.28 L1615.96 1465.64 L1635.26 1458.22 L1654.56 1449.98 
  L1672.39 1441.62 L1690.22 1432.5 L1708.05 1422.58 L1725.87 1411.8 L1734.9 1405.99 L1743.93 1399.95 L1752.96 1393.65 L1761.99 1387.1 L1771.02 1380.27 L1780.05 1373.15 
  L1784.57 1369.48 L1789.08 1365.74 L1793.6 1361.91 L1798.11 1358.01 L1808.23 1348.95 L1818.35 1339.45 L1828.47 1329.47 L1838.59 1318.99 L1848.71 1307.95 L1858.83 1296.3 
  L1868.95 1284 L1879.07 1270.97 L1888.24 1258.46 L1897.41 1245.2 L1906.58 1231.09 L1915.75 1216.02 L1924.92 1199.82 L1934.09 1182.28 L1938.67 1172.93 L1943.26 1163.11 
  L1945.55 1158.02 L1947.84 1152.79 L1948.99 1150.12 L1950.13 1147.41 L1951.28 1144.67 L1952.43 1141.88 L1957.67 1128.55 L1962.92 1114.15 L1965.55 1106.46 L1968.17 1098.4 
  L1970.8 1089.9 L1973.42 1080.9 L1976.05 1071.31 L1978.67 1061 L1981.3 1049.78 L1983.92 1037.41 L1985.23 1030.66 L1986.55 1023.44 L1987.86 1015.63 L1989.17 1007.07 
  L1989.83 1002.43 L1990.48 997.492 L1991.14 992.193 L1991.8 986.438 L1992.45 980.089 L1993.11 972.913 L1993.76 964.474 L1994.42 953.713 L1995.08 935.251 L1995.08 924.012 
  L1994.42 924.012 L1993.76 924.012 L1993.11 924.012 L1992.45 924.012 L1991.8 924.012 L1991.14 924.012 L1990.48 924.012 L1989.83 924.012 L1989.17 924.012 L1987.86 924.012 
  L1986.55 924.012 L1985.23 924.012 L1983.92 924.012 L1981.3 924.012 L1978.67 924.012 L1976.05 924.012 L1973.42 924.012 L1970.8 924.012 L1968.17 924.012 L1965.55 924.012 
  L1962.92 924.012 L1957.67 924.012 L1952.43 924.012 L1951.28 924.012 L1950.13 924.012 L1948.99 924.012 L1947.84 924.012 L1945.55 924.012 L1943.26 924.012 L1938.67 924.012 
  L1934.09 924.012 L1924.92 924.012 L1915.75 924.012 L1906.58 924.012 L1897.41 924.012 L1888.24 924.012 L1879.07 924.012 L1868.95 924.012 L1858.83 924.012 L1848.71 924.012 
  L1838.59 924.012 L1828.47 924.012 L1818.35 924.012 L1808.23 924.012 L1798.11 924.012 L1793.6 924.012 L1789.08 924.012 L1784.57 924.012 L1780.05 924.012 L1771.02 924.012 
  L1761.99 924.012 L1752.96 924.012 L1743.93 924.012 L1734.9 924.012 L1725.87 924.012 L1708.05 924.012 L1690.22 924.012 L1672.39 924.012 L1654.56 924.012 L1635.26 924.012 
  L1615.96 924.012 L1596.65 924.012 L1577.35 924.012 L1556.28 924.012 L1535.21 924.012 L1514.14 924.012 L1493.06 924.012 L1475.81 924.012 L1458.55 924.012 L1441.29 924.012 
  L1424.03 924.012 L1403.52 924.012 L1383.02 924.012 L1362.52 924.012 L1342.01 924.012 L1322.3 924.012 L1302.58 924.012 L1282.86 924.012 L1263.14 924.012 L1242.41 924.012 
  L1221.69 924.012 L1211.33 924.012 L1200.96 924.012 L1190.6 924.012 L1180.24 924.012 L1161.5 924.012 L1142.75 924.012 L1133.38 924.012 L1124.01 924.012 L1114.63 924.012 
  L1105.26 924.012 L1095.94 924.012 L1086.63 924.012 L1077.31 924.012 L1067.99 924.012 L1058.68 924.012 L1049.36 924.012 L1044.7 924.012 L1040.04 924.012 L1037.71 924.012 
  L1035.38 924.012 L1033.05 924.012 L1030.73 924.012 L1013.63 924.012 L996.543 924.012 L987.998 924.012 L979.452 924.012 L970.907 924.012 L962.361 924.012 L952.616 924.012 
  L942.871 924.012 L933.126 924.012 L923.381 924.012 L918.508 924.012 L913.636 924.012 L908.763 924.012 L903.891 924.012 L899.018 924.012 L894.145 924.012 L889.273 924.012 
  L884.4 924.012 L881.659 924.012 L878.917 924.012 L876.176 924.012 L873.435 924.012 L870.693 924.012 L867.952 924.012 L866.581 924.012 L865.21 924.012 L863.839 924.012 
  L862.469 924.012 L859.727 924.012 L856.986 924.012 L855.615 924.012 L854.244 924.012 L852.874 924.012 L851.503 924.012 L850.132 924.012 L848.762 924.012 L848.076 924.012 
  L847.391 924.012 L846.705 924.012 L846.02 924.012 L845.335 924.012 L844.649 924.012 L843.964 924.012 L843.279 924.012 L842.593 924.012  Z
  " fill="#e26f46" fill-rule="evenodd" fill-opacity="0.3"/>
<polyline clip-path="url(#clip742)" style="stroke:#e26f46; stroke-linecap:round; stroke-linejoin:round; stroke-width:4; stroke-opacity:1; fill:none" points="
  842.593,939.505 843.279,956.095 843.964,966.647 844.649,975.053 845.335,982.25 846.02,988.644 846.705,994.453 847.391,999.812 848.076,1004.81 848.762,1009.51 
  850.132,1018.2 851.503,1026.13 852.874,1033.47 854.244,1040.33 855.615,1046.8 856.986,1052.93 859.727,1064.34 862.469,1074.84 863.839,1079.81 865.21,1084.61 
  866.581,1089.26 867.952,1093.78 870.693,1102.43 873.435,1110.64 876.176,1118.47 878.917,1125.95 881.659,1133.13 884.4,1140.04 889.273,1151.73 894.145,1162.74 
  899.018,1173.17 903.891,1183.09 908.763,1192.55 913.636,1201.61 918.508,1210.3 923.381,1218.65 933.126,1234.45 942.871,1249.19 952.616,1263.02 962.361,1276.03 
  970.907,1286.84 979.452,1297.14 987.998,1306.97 996.543,1316.38 1013.63,1334 1030.73,1350.21 1033.05,1352.32 1035.38,1354.41 1037.71,1356.47 1040.04,1358.51 
  1044.7,1362.53 1049.36,1366.46 1058.68,1374.08 1067.99,1381.38 1077.31,1388.37 1086.63,1395.08 1095.94,1401.52 1105.26,1407.69 1114.63,1413.63 1124.01,1419.33 
  1133.38,1424.79 1142.75,1430.02 1161.5,1439.8 1180.24,1448.73 1190.6,1453.32 1200.96,1457.67 1211.33,1461.78 1221.69,1465.67 1242.41,1472.77 1263.14,1479 
  1282.86,1484.16 1302.58,1488.58 1322.3,1492.28 1342.01,1495.28 1362.52,1497.66 1383.02,1499.3 1403.52,1500.21 1424.03,1500.39 1441.29,1499.97 1458.55,1499.04 
  1475.81,1497.59 1493.06,1495.61 1514.14,1492.47 1535.21,1488.53 1556.28,1483.77 1577.35,1478.17 1596.65,1472.28 1615.96,1465.64 1635.26,1458.22 1654.56,1449.98 
  1672.39,1441.62 1690.22,1432.5 1708.05,1422.58 1725.87,1411.8 1734.9,1405.99 1743.93,1399.95 1752.96,1393.65 1761.99,1387.1 1771.02,1380.27 1780.05,1373.15 
  1784.57,1369.48 1789.08,1365.74 1793.6,1361.91 1798.11,1358.01 1808.23,1348.95 1818.35,1339.45 1828.47,1329.47 1838.59,1318.99 1848.71,1307.95 1858.83,1296.3 
  1868.95,1284 1879.07,1270.97 1888.24,1258.46 1897.41,1245.2 1906.58,1231.09 1915.75,1216.02 1924.92,1199.82 1934.09,1182.28 1938.67,1172.93 1943.26,1163.11 
  1945.55,1158.02 1947.84,1152.79 1948.99,1150.12 1950.13,1147.41 1951.28,1144.67 1952.43,1141.88 1957.67,1128.55 1962.92,1114.15 1965.55,1106.46 1968.17,1098.4 
  1970.8,1089.9 1973.42,1080.9 1976.05,1071.31 1978.67,1061 1981.3,1049.78 1983.92,1037.41 1985.23,1030.66 1986.55,1023.44 1987.86,1015.63 1989.17,1007.07 
  1989.83,1002.43 1990.48,997.492 1991.14,992.193 1991.8,986.438 1992.45,980.089 1993.11,972.913 1993.76,964.474 1994.42,953.713 1995.08,935.251 
  "/>
</svg>
