<?xml version="1.0" encoding="utf-8"?>
<svg xmlns="http://www.w3.org/2000/svg" xmlns:xlink="http://www.w3.org/1999/xlink" width="528" height="336" viewBox="0 0 2112 1344">
<defs>
  <clipPath id="clip090">
    <rect x="0" y="0" width="2112" height="1344"/>
  </clipPath>
</defs>
<path clip-path="url(#clip090)" d="M0 1344 L2112 1344 L2112 0 L0 0  Z" fill="#ffffff" fill-rule="evenodd" fill-opacity="1"/>
<defs>
  <clipPath id="clip091">
    <rect x="422" y="0" width="1479" height="1344"/>
  </clipPath>
</defs>
<path clip-path="url(#clip090)" d="M169.109 1173.47 L2064.76 1173.47 L2064.76 47.2441 L169.109 47.2441  Z" fill="#ffffff" fill-rule="evenodd" fill-opacity="1"/>
<defs>
  <clipPath id="clip092">
    <rect x="169" y="47" width="1897" height="1127"/>
  </clipPath>
</defs>
<polyline clip-path="url(#clip092)" style="stroke:#000000; stroke-linecap:round; stroke-linejoin:round; stroke-width:2; stroke-opacity:0.1; fill:none" points="169.109,1173.47 169.109,47.2441 "/>
<polyline clip-path="url(#clip092)" style="stroke:#000000; stroke-linecap:round; stroke-linejoin:round; stroke-width:2; stroke-opacity:0.1; fill:none" points="548.238,1173.47 548.238,47.2441 "/>
<polyline clip-path="url(#clip092)" style="stroke:#000000; stroke-linecap:round; stroke-linejoin:round; stroke-width:2; stroke-opacity:0.1; fill:none" points="927.368,1173.47 927.368,47.2441 "/>
<polyline clip-path="url(#clip092)" style="stroke:#000000; stroke-linecap:round; stroke-linejoin:round; stroke-width:2; stroke-opacity:0.1; fill:none" points="1306.5,1173.47 1306.5,47.2441 "/>
<polyline clip-path="url(#clip092)" style="stroke:#000000; stroke-linecap:round; stroke-linejoin:round; stroke-width:2; stroke-opacity:0.1; fill:none" points="1685.63,1173.47 1685.63,47.2441 "/>
<polyline clip-path="url(#clip092)" style="stroke:#000000; stroke-linecap:round; stroke-linejoin:round; stroke-width:2; stroke-opacity:0.1; fill:none" points="2064.76,1173.47 2064.76,47.2441 "/>
<polyline clip-path="url(#clip090)" style="stroke:#000000; stroke-linecap:round; stroke-linejoin:round; stroke-width:4; stroke-opacity:1; fill:none" points="169.109,1173.47 2064.76,1173.47 "/>
<polyline clip-path="url(#clip090)" style="stroke:#000000; stroke-linecap:round; stroke-linejoin:round; stroke-width:4; stroke-opacity:1; fill:none" points="169.109,1173.47 169.109,1154.57 "/>
<polyline clip-path="url(#clip090)" style="stroke:#000000; stroke-linecap:round; stroke-linejoin:round; stroke-width:4; stroke-opacity:1; fill:none" points="548.238,1173.47 548.238,1154.57 "/>
<polyline clip-path="url(#clip090)" style="stroke:#000000; stroke-linecap:round; stroke-linejoin:round; stroke-width:4; stroke-opacity:1; fill:none" points="927.368,1173.47 927.368,1154.57 "/>
<polyline clip-path="url(#clip090)" style="stroke:#000000; stroke-linecap:round; stroke-linejoin:round; stroke-width:4; stroke-opacity:1; fill:none" points="1306.5,1173.47 1306.5,1154.57 "/>
<polyline clip-path="url(#clip090)" style="stroke:#000000; stroke-linecap:round; stroke-linejoin:round; stroke-width:4; stroke-opacity:1; fill:none" points="1685.63,1173.47 1685.63,1154.57 "/>
<polyline clip-path="url(#clip090)" style="stroke:#000000; stroke-linecap:round; stroke-linejoin:round; stroke-width:4; stroke-opacity:1; fill:none" points="2064.76,1173.47 2064.76,1154.57 "/>
<path clip-path="url(#clip090)" d="M169.109 1202.09 Q165.498 1202.09 163.669 1205.65 Q161.864 1209.19 161.864 1216.32 Q161.864 1223.43 163.669 1226.99 Q165.498 1230.53 169.109 1230.53 Q172.743 1230.53 174.549 1226.99 Q176.377 1223.43 176.377 1216.32 Q176.377 1209.19 174.549 1205.65 Q172.743 1202.09 169.109 1202.09 M169.109 1198.38 Q174.919 1198.38 177.975 1202.99 Q181.053 1207.57 181.053 1216.32 Q181.053 1225.05 177.975 1229.65 Q174.919 1234.24 169.109 1234.24 Q163.299 1234.24 160.22 1229.65 Q157.165 1225.05 157.165 1216.32 Q157.165 1207.57 160.22 1202.99 Q163.299 1198.38 169.109 1198.38 Z" fill="#000000" fill-rule="nonzero" fill-opacity="1" /><path clip-path="url(#clip090)" d="M542.891 1229.63 L559.21 1229.63 L559.21 1233.57 L537.266 1233.57 L537.266 1229.63 Q539.928 1226.88 544.511 1222.25 Q549.118 1217.59 550.298 1216.25 Q552.544 1213.73 553.423 1211.99 Q554.326 1210.23 554.326 1208.54 Q554.326 1205.79 552.382 1204.05 Q550.461 1202.32 547.359 1202.32 Q545.16 1202.32 542.706 1203.08 Q540.275 1203.84 537.498 1205.4 L537.498 1200.67 Q540.322 1199.54 542.775 1198.96 Q545.229 1198.38 547.266 1198.38 Q552.636 1198.38 555.831 1201.07 Q559.025 1203.75 559.025 1208.24 Q559.025 1210.37 558.215 1212.29 Q557.428 1214.19 555.322 1216.78 Q554.743 1217.46 551.641 1220.67 Q548.539 1223.87 542.891 1229.63 Z" fill="#000000" fill-rule="nonzero" fill-opacity="1" /><path clip-path="url(#clip090)" d="M930.377 1203.08 L918.571 1221.53 L930.377 1221.53 L930.377 1203.08 M929.15 1199.01 L935.03 1199.01 L935.03 1221.53 L939.96 1221.53 L939.96 1225.42 L935.03 1225.42 L935.03 1233.57 L930.377 1233.57 L930.377 1225.42 L914.775 1225.42 L914.775 1220.9 L929.15 1199.01 Z" fill="#000000" fill-rule="nonzero" fill-opacity="1" /><path clip-path="url(#clip090)" d="M1306.9 1214.42 Q1303.75 1214.42 1301.9 1216.58 Q1300.07 1218.73 1300.07 1222.48 Q1300.07 1226.21 1301.9 1228.38 Q1303.75 1230.53 1306.9 1230.53 Q1310.05 1230.53 1311.88 1228.38 Q1313.73 1226.21 1313.73 1222.48 Q1313.73 1218.73 1311.88 1216.58 Q1310.05 1214.42 1306.9 1214.42 M1316.18 1199.77 L1316.18 1204.03 Q1314.43 1203.2 1312.62 1202.76 Q1310.84 1202.32 1309.08 1202.32 Q1304.45 1202.32 1301.99 1205.44 Q1299.56 1208.57 1299.22 1214.89 Q1300.58 1212.87 1302.64 1211.81 Q1304.7 1210.72 1307.18 1210.72 Q1312.39 1210.72 1315.4 1213.89 Q1318.43 1217.04 1318.43 1222.48 Q1318.43 1227.8 1315.28 1231.02 Q1312.13 1234.24 1306.9 1234.24 Q1300.91 1234.24 1297.74 1229.65 Q1294.56 1225.05 1294.56 1216.32 Q1294.56 1208.13 1298.45 1203.27 Q1302.34 1198.38 1308.89 1198.38 Q1310.65 1198.38 1312.43 1198.73 Q1314.24 1199.08 1316.18 1199.77 Z" fill="#000000" fill-rule="nonzero" fill-opacity="1" /><path clip-path="url(#clip090)" d="M1685.63 1217.15 Q1682.29 1217.15 1680.37 1218.94 Q1678.47 1220.72 1678.47 1223.84 Q1678.47 1226.97 1680.37 1228.75 Q1682.29 1230.53 1685.63 1230.53 Q1688.96 1230.53 1690.88 1228.75 Q1692.8 1226.95 1692.8 1223.84 Q1692.8 1220.72 1690.88 1218.94 Q1688.98 1217.15 1685.63 1217.15 M1680.95 1215.16 Q1677.94 1214.42 1676.25 1212.36 Q1674.58 1210.3 1674.58 1207.34 Q1674.58 1203.2 1677.52 1200.79 Q1680.49 1198.38 1685.63 1198.38 Q1690.79 1198.38 1693.73 1200.79 Q1696.67 1203.2 1696.67 1207.34 Q1696.67 1210.3 1694.98 1212.36 Q1693.31 1214.42 1690.33 1215.16 Q1693.71 1215.95 1695.58 1218.24 Q1697.48 1220.53 1697.48 1223.84 Q1697.48 1228.87 1694.4 1231.55 Q1691.34 1234.24 1685.63 1234.24 Q1679.91 1234.24 1676.83 1231.55 Q1673.77 1228.87 1673.77 1223.84 Q1673.77 1220.53 1675.67 1218.24 Q1677.57 1215.95 1680.95 1215.16 M1679.24 1207.78 Q1679.24 1210.47 1680.9 1211.97 Q1682.59 1213.47 1685.63 1213.47 Q1688.64 1213.47 1690.33 1211.97 Q1692.04 1210.47 1692.04 1207.78 Q1692.04 1205.09 1690.33 1203.59 Q1688.64 1202.09 1685.63 1202.09 Q1682.59 1202.09 1680.9 1203.59 Q1679.24 1205.09 1679.24 1207.78 Z" fill="#000000" fill-rule="nonzero" fill-opacity="1" /><path clip-path="url(#clip090)" d="M2039.44 1229.63 L2047.08 1229.63 L2047.08 1203.27 L2038.77 1204.93 L2038.77 1200.67 L2047.04 1199.01 L2051.71 1199.01 L2051.71 1229.63 L2059.35 1229.63 L2059.35 1233.57 L2039.44 1233.57 L2039.44 1229.63 Z" fill="#000000" fill-rule="nonzero" fill-opacity="1" /><path clip-path="url(#clip090)" d="M2078.8 1202.09 Q2075.18 1202.09 2073.36 1205.65 Q2071.55 1209.19 2071.55 1216.32 Q2071.55 1223.43 2073.36 1226.99 Q2075.18 1230.53 2078.8 1230.53 Q2082.43 1230.53 2084.23 1226.99 Q2086.06 1223.43 2086.06 1216.32 Q2086.06 1209.19 2084.23 1205.65 Q2082.43 1202.09 2078.8 1202.09 M2078.8 1198.38 Q2084.61 1198.38 2087.66 1202.99 Q2090.74 1207.57 2090.74 1216.32 Q2090.74 1225.05 2087.66 1229.65 Q2084.61 1234.24 2078.8 1234.24 Q2072.99 1234.24 2069.91 1229.65 Q2066.85 1225.05 2066.85 1216.32 Q2066.85 1207.57 2069.91 1202.99 Q2072.99 1198.38 2078.8 1198.38 Z" fill="#000000" fill-rule="nonzero" fill-opacity="1" /><path clip-path="url(#clip090)" d="M901.994 1266.49 L942.194 1266.49 L942.194 1271.91 L925.325 1271.91 L925.325 1314.01 L918.863 1314.01 L918.863 1271.91 L901.994 1271.91 L901.994 1266.49 Z" fill="#000000" fill-rule="nonzero" fill-opacity="1" /><path clip-path="url(#clip090)" d="M946.141 1278.37 L951.997 1278.37 L951.997 1314.01 L946.141 1314.01 L946.141 1278.37 M946.141 1264.49 L951.997 1264.49 L951.997 1271.91 L946.141 1271.91 L946.141 1264.49 Z" fill="#000000" fill-rule="nonzero" fill-opacity="1" /><path clip-path="url(#clip090)" d="M994.743 1294.73 L994.743 1297.59 L967.816 1297.59 Q968.198 1303.64 971.444 1306.82 Q974.723 1309.97 980.547 1309.97 Q983.921 1309.97 987.072 1309.14 Q990.255 1308.32 993.374 1306.66 L993.374 1312.2 Q990.223 1313.54 986.913 1314.24 Q983.603 1314.94 980.197 1314.94 Q971.667 1314.94 966.67 1309.97 Q961.705 1305.01 961.705 1296.54 Q961.705 1287.79 966.415 1282.66 Q971.158 1277.51 979.179 1277.51 Q986.372 1277.51 990.541 1282.15 Q994.743 1286.77 994.743 1294.73 M988.886 1293.01 Q988.823 1288.2 986.181 1285.34 Q983.571 1282.47 979.242 1282.47 Q974.341 1282.47 971.381 1285.24 Q968.452 1288.01 968.007 1293.04 L988.886 1293.01 Z" fill="#000000" fill-rule="nonzero" fill-opacity="1" /><path clip-path="url(#clip090)" d="M1032.11 1285.21 Q1034.31 1281.26 1037.36 1279.39 Q1040.42 1277.51 1044.55 1277.51 Q1050.12 1277.51 1053.15 1281.42 Q1056.17 1285.31 1056.17 1292.5 L1056.17 1314.01 L1050.28 1314.01 L1050.28 1292.69 Q1050.28 1287.57 1048.47 1285.08 Q1046.66 1282.6 1042.93 1282.6 Q1038.38 1282.6 1035.74 1285.62 Q1033.1 1288.65 1033.1 1293.87 L1033.1 1314.01 L1027.21 1314.01 L1027.21 1292.69 Q1027.21 1287.53 1025.39 1285.08 Q1023.58 1282.6 1019.79 1282.6 Q1015.3 1282.6 1012.66 1285.66 Q1010.02 1288.68 1010.02 1293.87 L1010.02 1314.01 L1004.13 1314.01 L1004.13 1278.37 L1010.02 1278.37 L1010.02 1283.9 Q1012.03 1280.63 1014.83 1279.07 Q1017.63 1277.51 1021.48 1277.51 Q1025.36 1277.51 1028.07 1279.48 Q1030.8 1281.45 1032.11 1285.21 Z" fill="#000000" fill-rule="nonzero" fill-opacity="1" /><path clip-path="url(#clip090)" d="M1073.52 1308.67 L1073.52 1327.57 L1067.63 1327.57 L1067.63 1278.37 L1073.52 1278.37 L1073.52 1283.78 Q1075.36 1280.59 1078.17 1279.07 Q1081 1277.51 1084.91 1277.51 Q1091.41 1277.51 1095.45 1282.66 Q1099.52 1287.82 1099.52 1296.22 Q1099.52 1304.63 1095.45 1309.78 Q1091.41 1314.94 1084.91 1314.94 Q1081 1314.94 1078.17 1313.41 Q1075.36 1311.85 1073.52 1308.67 M1093.44 1296.22 Q1093.44 1289.76 1090.77 1286.1 Q1088.13 1282.41 1083.48 1282.41 Q1078.83 1282.41 1076.16 1286.1 Q1073.52 1289.76 1073.52 1296.22 Q1073.52 1302.68 1076.16 1306.38 Q1078.83 1310.04 1083.48 1310.04 Q1088.13 1310.04 1090.77 1306.38 Q1093.44 1302.68 1093.44 1296.22 Z" fill="#000000" fill-rule="nonzero" fill-opacity="1" /><path clip-path="url(#clip090)" d="M1123.04 1282.47 Q1118.33 1282.47 1115.6 1286.16 Q1112.86 1289.83 1112.86 1296.22 Q1112.86 1302.62 1115.56 1306.31 Q1118.3 1309.97 1123.04 1309.97 Q1127.72 1309.97 1130.46 1306.28 Q1133.2 1302.59 1133.2 1296.22 Q1133.2 1289.89 1130.46 1286.2 Q1127.72 1282.47 1123.04 1282.47 M1123.04 1277.51 Q1130.68 1277.51 1135.04 1282.47 Q1139.4 1287.44 1139.4 1296.22 Q1139.4 1304.98 1135.04 1309.97 Q1130.68 1314.94 1123.04 1314.94 Q1115.37 1314.94 1111.01 1309.97 Q1106.68 1304.98 1106.68 1296.22 Q1106.68 1287.44 1111.01 1282.47 Q1115.37 1277.51 1123.04 1277.51 Z" fill="#000000" fill-rule="nonzero" fill-opacity="1" /><path clip-path="url(#clip090)" d="M1183.9 1264.55 Q1179.63 1271.87 1177.57 1279.04 Q1175.5 1286.2 1175.5 1293.55 Q1175.5 1300.9 1177.57 1308.13 Q1179.67 1315.32 1183.9 1322.61 L1178.81 1322.61 Q1174.03 1315.13 1171.65 1307.9 Q1169.29 1300.68 1169.29 1293.55 Q1169.29 1286.45 1171.65 1279.26 Q1174 1272.06 1178.81 1264.55 L1183.9 1264.55 Z" fill="#000000" fill-rule="nonzero" fill-opacity="1" /><path clip-path="url(#clip090)" d="M1223.02 1285.21 Q1225.21 1281.26 1228.27 1279.39 Q1231.32 1277.51 1235.46 1277.51 Q1241.03 1277.51 1244.06 1281.42 Q1247.08 1285.31 1247.08 1292.5 L1247.08 1314.01 L1241.19 1314.01 L1241.19 1292.69 Q1241.19 1287.57 1239.38 1285.08 Q1237.56 1282.6 1233.84 1282.6 Q1229.29 1282.6 1226.65 1285.62 Q1224 1288.65 1224 1293.87 L1224 1314.01 L1218.12 1314.01 L1218.12 1292.69 Q1218.12 1287.53 1216.3 1285.08 Q1214.49 1282.6 1210.7 1282.6 Q1206.21 1282.6 1203.57 1285.66 Q1200.93 1288.68 1200.93 1293.87 L1200.93 1314.01 L1195.04 1314.01 L1195.04 1278.37 L1200.93 1278.37 L1200.93 1283.9 Q1202.93 1280.63 1205.73 1279.07 Q1208.53 1277.51 1212.39 1277.51 Q1216.27 1277.51 1218.97 1279.48 Q1221.71 1281.45 1223.02 1285.21 Z" fill="#000000" fill-rule="nonzero" fill-opacity="1" /><path clip-path="url(#clip090)" d="M1258.76 1278.37 L1264.62 1278.37 L1264.62 1314.01 L1258.76 1314.01 L1258.76 1278.37 M1258.76 1264.49 L1264.62 1264.49 L1264.62 1271.91 L1258.76 1271.91 L1258.76 1264.49 Z" fill="#000000" fill-rule="nonzero" fill-opacity="1" /><path clip-path="url(#clip090)" d="M1306.5 1292.5 L1306.5 1314.01 L1300.65 1314.01 L1300.65 1292.69 Q1300.65 1287.63 1298.67 1285.11 Q1296.7 1282.6 1292.75 1282.6 Q1288.01 1282.6 1285.27 1285.62 Q1282.54 1288.65 1282.54 1293.87 L1282.54 1314.01 L1276.65 1314.01 L1276.65 1278.37 L1282.54 1278.37 L1282.54 1283.9 Q1284.64 1280.69 1287.47 1279.1 Q1290.33 1277.51 1294.06 1277.51 Q1300.2 1277.51 1303.35 1281.33 Q1306.5 1285.11 1306.5 1292.5 Z" fill="#000000" fill-rule="nonzero" fill-opacity="1" /><path clip-path="url(#clip090)" d="M1317.26 1264.55 L1322.35 1264.55 Q1327.13 1272.06 1329.48 1279.26 Q1331.87 1286.45 1331.87 1293.55 Q1331.87 1300.68 1329.48 1307.9 Q1327.13 1315.13 1322.35 1322.61 L1317.26 1322.61 Q1321.49 1315.32 1323.56 1308.13 Q1325.66 1300.9 1325.66 1293.55 Q1325.66 1286.2 1323.56 1279.04 Q1321.49 1271.87 1317.26 1264.55 Z" fill="#000000" fill-rule="nonzero" fill-opacity="1" /><polyline clip-path="url(#clip092)" style="stroke:#000000; stroke-linecap:round; stroke-linejoin:round; stroke-width:2; stroke-opacity:0.1; fill:none" points="169.109,1141.6 2064.76,1141.6 "/>
<polyline clip-path="url(#clip092)" style="stroke:#000000; stroke-linecap:round; stroke-linejoin:round; stroke-width:2; stroke-opacity:0.1; fill:none" points="169.109,794.362 2064.76,794.362 "/>
<polyline clip-path="url(#clip092)" style="stroke:#000000; stroke-linecap:round; stroke-linejoin:round; stroke-width:2; stroke-opacity:0.1; fill:none" points="169.109,447.128 2064.76,447.128 "/>
<polyline clip-path="url(#clip092)" style="stroke:#000000; stroke-linecap:round; stroke-linejoin:round; stroke-width:2; stroke-opacity:0.1; fill:none" points="169.109,99.8941 2064.76,99.8941 "/>
<polyline clip-path="url(#clip090)" style="stroke:#000000; stroke-linecap:round; stroke-linejoin:round; stroke-width:4; stroke-opacity:1; fill:none" points="169.109,1173.47 169.109,47.2441 "/>
<polyline clip-path="url(#clip090)" style="stroke:#000000; stroke-linecap:round; stroke-linejoin:round; stroke-width:4; stroke-opacity:1; fill:none" points="169.109,1141.6 188.007,1141.6 "/>
<polyline clip-path="url(#clip090)" style="stroke:#000000; stroke-linecap:round; stroke-linejoin:round; stroke-width:4; stroke-opacity:1; fill:none" points="169.109,794.362 188.007,794.362 "/>
<polyline clip-path="url(#clip090)" style="stroke:#000000; stroke-linecap:round; stroke-linejoin:round; stroke-width:4; stroke-opacity:1; fill:none" points="169.109,447.128 188.007,447.128 "/>
<polyline clip-path="url(#clip090)" style="stroke:#000000; stroke-linecap:round; stroke-linejoin:round; stroke-width:4; stroke-opacity:1; fill:none" points="169.109,99.8941 188.007,99.8941 "/>
<path clip-path="url(#clip090)" d="M125.485 1127.4 Q121.873 1127.4 120.045 1130.96 Q118.239 1134.5 118.239 1141.63 Q118.239 1148.74 120.045 1152.3 Q121.873 1155.84 125.485 1155.84 Q129.119 1155.84 130.924 1152.3 Q132.753 1148.74 132.753 1141.63 Q132.753 1134.5 130.924 1130.96 Q129.119 1127.4 125.485 1127.4 M125.485 1123.69 Q131.295 1123.69 134.35 1128.3 Q137.429 1132.88 137.429 1141.63 Q137.429 1150.36 134.35 1154.96 Q131.295 1159.55 125.485 1159.55 Q119.674 1159.55 116.596 1154.96 Q113.54 1150.36 113.54 1141.63 Q113.54 1132.88 116.596 1128.3 Q119.674 1123.69 125.485 1123.69 Z" fill="#000000" fill-rule="nonzero" fill-opacity="1" /><path clip-path="url(#clip090)" d="M117.522 807.707 L125.16 807.707 L125.16 781.342 L116.85 783.008 L116.85 778.749 L125.114 777.082 L129.79 777.082 L129.79 807.707 L137.429 807.707 L137.429 811.642 L117.522 811.642 L117.522 807.707 Z" fill="#000000" fill-rule="nonzero" fill-opacity="1" /><path clip-path="url(#clip090)" d="M121.11 460.473 L137.429 460.473 L137.429 464.408 L115.485 464.408 L115.485 460.473 Q118.147 457.718 122.73 453.089 Q127.336 448.436 128.517 447.093 Q130.762 444.57 131.642 442.834 Q132.545 441.075 132.545 439.385 Q132.545 436.631 130.6 434.894 Q128.679 433.158 125.577 433.158 Q123.378 433.158 120.924 433.922 Q118.494 434.686 115.716 436.237 L115.716 431.515 Q118.54 430.381 120.994 429.802 Q123.448 429.223 125.485 429.223 Q130.855 429.223 134.049 431.908 Q137.244 434.594 137.244 439.084 Q137.244 441.214 136.434 443.135 Q135.647 445.033 133.54 447.626 Q132.961 448.297 129.86 451.515 Q126.758 454.709 121.11 460.473 Z" fill="#000000" fill-rule="nonzero" fill-opacity="1" /><path clip-path="url(#clip090)" d="M130.299 98.5399 Q133.656 99.2575 135.531 101.526 Q137.429 103.794 137.429 107.128 Q137.429 112.244 133.91 115.044 Q130.392 117.845 123.91 117.845 Q121.735 117.845 119.42 117.406 Q117.128 116.989 114.674 116.132 L114.674 111.619 Q116.619 112.753 118.934 113.331 Q121.248 113.91 123.772 113.91 Q128.17 113.91 130.461 112.174 Q132.776 110.438 132.776 107.128 Q132.776 104.072 130.623 102.359 Q128.494 100.623 124.674 100.623 L120.647 100.623 L120.647 96.7806 L124.86 96.7806 Q128.309 96.7806 130.137 95.4149 Q131.966 94.026 131.966 91.4335 Q131.966 88.7714 130.068 87.3594 Q128.193 85.9242 124.674 85.9242 Q122.753 85.9242 120.554 86.3409 Q118.355 86.7576 115.716 87.6372 L115.716 83.4705 Q118.378 82.7298 120.693 82.3594 Q123.031 81.9891 125.091 81.9891 Q130.415 81.9891 133.517 84.4196 Q136.619 86.827 136.619 90.9473 Q136.619 93.8177 134.975 95.8084 Q133.332 97.776 130.299 98.5399 Z" fill="#000000" fill-rule="nonzero" fill-opacity="1" /><path clip-path="url(#clip090)" d="M45.3242 740.95 Q46.0244 738.881 48.3161 736.939 Q50.6077 734.966 54.6181 732.993 L67.6042 726.468 L67.6042 733.375 L55.4138 739.454 Q50.6395 741.809 49.08 744.037 Q47.5204 746.233 47.5204 750.053 L47.5204 757.055 L67.6042 757.055 L67.6042 763.484 L20.0842 763.484 L20.0842 748.971 Q20.0842 740.823 23.4898 736.812 Q26.8955 732.802 33.7704 732.802 Q38.2582 732.802 41.2183 734.902 Q44.1784 736.971 45.3242 740.95 M25.3677 757.055 L42.2368 757.055 L42.2368 748.971 Q42.2368 744.324 40.1043 741.968 Q37.94 739.581 33.7704 739.581 Q29.6009 739.581 27.5002 741.968 Q25.3677 744.324 25.3677 748.971 L25.3677 757.055 Z" fill="#000000" fill-rule="nonzero" fill-opacity="1" /><path clip-path="url(#clip090)" d="M49.6847 703.679 Q49.6847 710.776 51.3079 713.514 Q52.9312 716.251 56.8461 716.251 Q59.9653 716.251 61.8114 714.214 Q63.6256 712.145 63.6256 708.612 Q63.6256 703.742 60.1881 700.814 Q56.7188 697.854 50.9897 697.854 L49.6847 697.854 L49.6847 703.679 M47.2657 691.998 L67.6042 691.998 L67.6042 697.854 L62.1933 697.854 Q65.4398 699.859 66.9994 702.851 Q68.5272 705.843 68.5272 710.172 Q68.5272 715.646 65.4716 718.893 Q62.3843 722.107 57.2281 722.107 Q51.2125 722.107 48.1569 718.097 Q45.1014 714.055 45.1014 706.066 L45.1014 697.854 L44.5285 697.854 Q40.4862 697.854 38.2901 700.528 Q36.0621 703.169 36.0621 707.976 Q36.0621 711.031 36.7941 713.927 Q37.5262 716.824 38.9903 719.497 L33.5795 719.497 Q32.3381 716.283 31.7334 713.259 Q31.0968 710.235 31.0968 707.371 Q31.0968 699.636 35.1072 695.817 Q39.1176 691.998 47.2657 691.998 Z" fill="#000000" fill-rule="nonzero" fill-opacity="1" /><path clip-path="url(#clip090)" d="M37.3671 656.477 L18.079 656.477 L18.079 650.621 L67.6042 650.621 L67.6042 656.477 L62.257 656.477 Q65.4398 658.323 66.9994 661.156 Q68.5272 663.957 68.5272 667.903 Q68.5272 674.365 63.371 678.439 Q58.2147 682.481 49.812 682.481 Q41.4093 682.481 36.2531 678.439 Q31.0968 674.365 31.0968 667.903 Q31.0968 663.957 32.6564 661.156 Q34.1842 658.323 37.3671 656.477 M49.812 676.433 Q56.2732 676.433 59.9653 673.792 Q63.6256 671.118 63.6256 666.471 Q63.6256 661.824 59.9653 659.151 Q56.2732 656.477 49.812 656.477 Q43.3508 656.477 39.6905 659.151 Q35.9984 661.824 35.9984 666.471 Q35.9984 671.118 39.6905 673.792 Q43.3508 676.433 49.812 676.433 Z" fill="#000000" fill-rule="nonzero" fill-opacity="1" /><path clip-path="url(#clip090)" d="M31.9562 638.558 L31.9562 632.701 L67.6042 632.701 L67.6042 638.558 L31.9562 638.558 M18.079 638.558 L18.079 632.701 L25.495 632.701 L25.495 638.558 L18.079 638.558 Z" fill="#000000" fill-rule="nonzero" fill-opacity="1" /><path clip-path="url(#clip090)" d="M36.0621 606.633 Q36.0621 611.344 39.7542 614.081 Q43.4145 616.819 49.812 616.819 Q56.2095 616.819 59.9017 614.113 Q63.5619 611.376 63.5619 606.633 Q63.5619 601.955 59.8698 599.217 Q56.1777 596.48 49.812 596.48 Q43.4781 596.48 39.786 599.217 Q36.0621 601.955 36.0621 606.633 M31.0968 606.633 Q31.0968 598.995 36.0621 594.634 Q41.0273 590.274 49.812 590.274 Q58.5649 590.274 63.5619 594.634 Q68.5272 598.995 68.5272 606.633 Q68.5272 614.304 63.5619 618.665 Q58.5649 622.993 49.812 622.993 Q41.0273 622.993 36.0621 618.665 Q31.0968 614.304 31.0968 606.633 Z" fill="#000000" fill-rule="nonzero" fill-opacity="1" /><path clip-path="url(#clip090)" d="M18.1426 545.777 Q25.4632 550.042 32.6246 552.111 Q39.786 554.18 47.1384 554.18 Q54.4908 554.18 61.7159 552.111 Q68.9091 550.011 76.1979 545.777 L76.1979 550.87 Q68.7182 555.644 61.4931 558.031 Q54.268 560.387 47.1384 560.387 Q40.0406 560.387 32.8474 558.031 Q25.6542 555.676 18.1426 550.87 L18.1426 545.777 Z" fill="#000000" fill-rule="nonzero" fill-opacity="1" /><path clip-path="url(#clip090)" d="M38.7993 506.66 Q34.8526 504.464 32.9747 501.408 Q31.0968 498.353 31.0968 494.215 Q31.0968 488.645 35.0117 485.621 Q38.8948 482.598 46.0881 482.598 L67.6042 482.598 L67.6042 488.486 L46.279 488.486 Q41.1546 488.486 38.672 490.3 Q36.1894 492.114 36.1894 495.838 Q36.1894 500.39 39.2131 503.032 Q42.2368 505.673 47.4567 505.673 L67.6042 505.673 L67.6042 511.562 L46.279 511.562 Q41.1228 511.562 38.672 513.376 Q36.1894 515.19 36.1894 518.978 Q36.1894 523.466 39.2449 526.107 Q42.2686 528.749 47.4567 528.749 L67.6042 528.749 L67.6042 534.637 L31.9562 534.637 L31.9562 528.749 L37.4944 528.749 Q34.216 526.744 32.6564 523.943 Q31.0968 521.142 31.0968 517.291 Q31.0968 513.408 33.0702 510.702 Q35.0436 507.965 38.7993 506.66 Z" fill="#000000" fill-rule="nonzero" fill-opacity="1" /><path clip-path="url(#clip090)" d="M18.1426 471.84 L18.1426 466.747 Q25.6542 461.973 32.8474 459.617 Q40.0406 457.23 47.1384 457.23 Q54.268 457.23 61.4931 459.617 Q68.7182 461.973 76.1979 466.747 L76.1979 471.84 Q68.9091 467.606 61.7159 465.538 Q54.4908 463.437 47.1384 463.437 Q39.786 463.437 32.6246 465.538 Q25.4632 467.606 18.1426 471.84 Z" fill="#000000" fill-rule="nonzero" fill-opacity="1" /><polyline clip-path="url(#clip092)" style="stroke:#009af9; stroke-linecap:round; stroke-linejoin:round; stroke-width:4; stroke-opacity:1; fill:none" points="169.109,1141.6 170.652,1086.93 172.194,1072.63 173.737,1062.55 175.28,1054.47 176.822,1047.62 178.365,1041.6 179.908,1036.19 181.451,1031.24 185.017,1021.14 188.583,1012.35 192.149,1004.49 195.715,997.33 202.848,984.536 209.98,973.209 217.112,962.934 224.244,953.456 231.377,944.603 238.509,936.257 252.774,920.763 267.038,906.498 281.303,893.169 295.567,880.579 312.712,866.235 329.857,852.594 347.002,839.533 364.147,826.961 393.138,806.631 422.13,787.262 485.116,747.735 543.183,713.661 605.438,679.045 677.565,640.898 741.664,608.436 797.873,580.908 859.155,551.762 920.802,523.248 988.961,492.558 1053.81,464.085 1121.24,435.157 1178,411.295 1247.3,382.718 1310.79,357.035 1369.42,333.705 1428.81,310.43 1495.37,284.745 1555.69,261.814 1624.74,235.936 1688.68,212.314 1751.72,189.326 1812.93,167.279 1875.67,144.941 1944.41,120.76 2044.27,86.1473 2064.76,79.1184 "/>
<path clip-path="url(#clip090)" d="M232.297 188.465 L474.292 188.465 L474.292 84.785 L232.297 84.785  Z" fill="#ffffff" fill-rule="evenodd" fill-opacity="1"/>
<polyline clip-path="url(#clip090)" style="stroke:#000000; stroke-linecap:round; stroke-linejoin:round; stroke-width:4; stroke-opacity:1; fill:none" points="232.297,188.465 474.292,188.465 474.292,84.785 232.297,84.785 232.297,188.465 "/>
<polyline clip-path="url(#clip090)" style="stroke:#009af9; stroke-linecap:round; stroke-linejoin:round; stroke-width:4; stroke-opacity:1; fill:none" points="253.36,136.625 379.736,136.625 "/>
<path clip-path="url(#clip090)" d="M414.642 156.312 Q412.836 160.942 411.123 162.354 Q409.41 163.766 406.54 163.766 L403.137 163.766 L403.137 160.201 L405.637 160.201 Q407.396 160.201 408.369 159.368 Q409.341 158.535 410.521 155.433 L411.285 153.488 L400.799 127.979 L405.313 127.979 L413.415 148.257 L421.517 127.979 L426.03 127.979 L414.642 156.312 Z" fill="#000000" fill-rule="nonzero" fill-opacity="1" /><path clip-path="url(#clip090)" d="M433.322 149.97 L440.961 149.97 L440.961 123.604 L432.651 125.271 L432.651 121.012 L440.915 119.345 L445.591 119.345 L445.591 149.97 L453.229 149.97 L453.229 153.905 L433.322 153.905 L433.322 149.97 Z" fill="#000000" fill-rule="nonzero" fill-opacity="1" /></svg>
