<?xml version="1.0" encoding="utf-8"?>
<svg xmlns="http://www.w3.org/2000/svg" xmlns:xlink="http://www.w3.org/1999/xlink" width="528" height="336" viewBox="0 0 2112 1344">
<defs>
  <clipPath id="clip270">
    <rect x="0" y="0" width="2112" height="1344"/>
  </clipPath>
</defs>
<path clip-path="url(#clip270)" d="M0 1344 L2112 1344 L2112 0 L0 0  Z" fill="#ffffff" fill-rule="evenodd" fill-opacity="1"/>
<defs>
  <clipPath id="clip271">
    <rect x="422" y="0" width="1479" height="1344"/>
  </clipPath>
</defs>
<defs>
  <clipPath id="clip272">
    <rect x="146" y="75" width="1919" height="1132"/>
  </clipPath>
</defs>
<path clip-path="url(#clip270)" d="M146.311 1206.49 L2064.76 1206.49 L2064.76 75.3321 L146.311 75.3321  Z" fill="#ffffff" fill-rule="evenodd" fill-opacity="1"/>
<polyline clip-path="url(#clip272)" style="stroke:#000000; stroke-linecap:round; stroke-linejoin:round; stroke-width:2; stroke-opacity:0.1; fill:none" points="200.606,1206.49 200.606,75.3321 "/>
<polyline clip-path="url(#clip272)" style="stroke:#000000; stroke-linecap:round; stroke-linejoin:round; stroke-width:2; stroke-opacity:0.1; fill:none" points="313.722,1206.49 313.722,75.3321 "/>
<polyline clip-path="url(#clip272)" style="stroke:#000000; stroke-linecap:round; stroke-linejoin:round; stroke-width:2; stroke-opacity:0.1; fill:none" points="426.838,1206.49 426.838,75.3321 "/>
<polyline clip-path="url(#clip272)" style="stroke:#000000; stroke-linecap:round; stroke-linejoin:round; stroke-width:2; stroke-opacity:0.1; fill:none" points="539.954,1206.49 539.954,75.3321 "/>
<polyline clip-path="url(#clip272)" style="stroke:#000000; stroke-linecap:round; stroke-linejoin:round; stroke-width:2; stroke-opacity:0.1; fill:none" points="653.07,1206.49 653.07,75.3321 "/>
<polyline clip-path="url(#clip272)" style="stroke:#000000; stroke-linecap:round; stroke-linejoin:round; stroke-width:2; stroke-opacity:0.1; fill:none" points="766.186,1206.49 766.186,75.3321 "/>
<polyline clip-path="url(#clip272)" style="stroke:#000000; stroke-linecap:round; stroke-linejoin:round; stroke-width:2; stroke-opacity:0.1; fill:none" points="879.302,1206.49 879.302,75.3321 "/>
<polyline clip-path="url(#clip272)" style="stroke:#000000; stroke-linecap:round; stroke-linejoin:round; stroke-width:2; stroke-opacity:0.1; fill:none" points="992.418,1206.49 992.418,75.3321 "/>
<polyline clip-path="url(#clip272)" style="stroke:#000000; stroke-linecap:round; stroke-linejoin:round; stroke-width:2; stroke-opacity:0.1; fill:none" points="1105.53,1206.49 1105.53,75.3321 "/>
<polyline clip-path="url(#clip272)" style="stroke:#000000; stroke-linecap:round; stroke-linejoin:round; stroke-width:2; stroke-opacity:0.1; fill:none" points="1218.65,1206.49 1218.65,75.3321 "/>
<polyline clip-path="url(#clip272)" style="stroke:#000000; stroke-linecap:round; stroke-linejoin:round; stroke-width:2; stroke-opacity:0.1; fill:none" points="1331.77,1206.49 1331.77,75.3321 "/>
<polyline clip-path="url(#clip272)" style="stroke:#000000; stroke-linecap:round; stroke-linejoin:round; stroke-width:2; stroke-opacity:0.1; fill:none" points="1444.88,1206.49 1444.88,75.3321 "/>
<polyline clip-path="url(#clip272)" style="stroke:#000000; stroke-linecap:round; stroke-linejoin:round; stroke-width:2; stroke-opacity:0.1; fill:none" points="1558,1206.49 1558,75.3321 "/>
<polyline clip-path="url(#clip272)" style="stroke:#000000; stroke-linecap:round; stroke-linejoin:round; stroke-width:2; stroke-opacity:0.1; fill:none" points="1671.11,1206.49 1671.11,75.3321 "/>
<polyline clip-path="url(#clip272)" style="stroke:#000000; stroke-linecap:round; stroke-linejoin:round; stroke-width:2; stroke-opacity:0.1; fill:none" points="1784.23,1206.49 1784.23,75.3321 "/>
<polyline clip-path="url(#clip272)" style="stroke:#000000; stroke-linecap:round; stroke-linejoin:round; stroke-width:2; stroke-opacity:0.1; fill:none" points="1897.34,1206.49 1897.34,75.3321 "/>
<polyline clip-path="url(#clip272)" style="stroke:#000000; stroke-linecap:round; stroke-linejoin:round; stroke-width:2; stroke-opacity:0.1; fill:none" points="2010.46,1206.49 2010.46,75.3321 "/>
<polyline clip-path="url(#clip270)" style="stroke:#000000; stroke-linecap:round; stroke-linejoin:round; stroke-width:4; stroke-opacity:1; fill:none" points="146.311,1206.49 2064.76,1206.49 "/>
<polyline clip-path="url(#clip270)" style="stroke:#000000; stroke-linecap:round; stroke-linejoin:round; stroke-width:4; stroke-opacity:1; fill:none" points="200.606,1206.49 200.606,1188.49 "/>
<polyline clip-path="url(#clip270)" style="stroke:#000000; stroke-linecap:round; stroke-linejoin:round; stroke-width:4; stroke-opacity:1; fill:none" points="313.722,1206.49 313.722,1188.49 "/>
<polyline clip-path="url(#clip270)" style="stroke:#000000; stroke-linecap:round; stroke-linejoin:round; stroke-width:4; stroke-opacity:1; fill:none" points="426.838,1206.49 426.838,1188.49 "/>
<polyline clip-path="url(#clip270)" style="stroke:#000000; stroke-linecap:round; stroke-linejoin:round; stroke-width:4; stroke-opacity:1; fill:none" points="539.954,1206.49 539.954,1188.49 "/>
<polyline clip-path="url(#clip270)" style="stroke:#000000; stroke-linecap:round; stroke-linejoin:round; stroke-width:4; stroke-opacity:1; fill:none" points="653.07,1206.49 653.07,1188.49 "/>
<polyline clip-path="url(#clip270)" style="stroke:#000000; stroke-linecap:round; stroke-linejoin:round; stroke-width:4; stroke-opacity:1; fill:none" points="766.186,1206.49 766.186,1188.49 "/>
<polyline clip-path="url(#clip270)" style="stroke:#000000; stroke-linecap:round; stroke-linejoin:round; stroke-width:4; stroke-opacity:1; fill:none" points="879.302,1206.49 879.302,1188.49 "/>
<polyline clip-path="url(#clip270)" style="stroke:#000000; stroke-linecap:round; stroke-linejoin:round; stroke-width:4; stroke-opacity:1; fill:none" points="992.418,1206.49 992.418,1188.49 "/>
<polyline clip-path="url(#clip270)" style="stroke:#000000; stroke-linecap:round; stroke-linejoin:round; stroke-width:4; stroke-opacity:1; fill:none" points="1105.53,1206.49 1105.53,1188.49 "/>
<polyline clip-path="url(#clip270)" style="stroke:#000000; stroke-linecap:round; stroke-linejoin:round; stroke-width:4; stroke-opacity:1; fill:none" points="1218.65,1206.49 1218.65,1188.49 "/>
<polyline clip-path="url(#clip270)" style="stroke:#000000; stroke-linecap:round; stroke-linejoin:round; stroke-width:4; stroke-opacity:1; fill:none" points="1331.77,1206.49 1331.77,1188.49 "/>
<polyline clip-path="url(#clip270)" style="stroke:#000000; stroke-linecap:round; stroke-linejoin:round; stroke-width:4; stroke-opacity:1; fill:none" points="1444.88,1206.49 1444.88,1188.49 "/>
<polyline clip-path="url(#clip270)" style="stroke:#000000; stroke-linecap:round; stroke-linejoin:round; stroke-width:4; stroke-opacity:1; fill:none" points="1558,1206.49 1558,1188.49 "/>
<polyline clip-path="url(#clip270)" style="stroke:#000000; stroke-linecap:round; stroke-linejoin:round; stroke-width:4; stroke-opacity:1; fill:none" points="1671.11,1206.49 1671.11,1188.49 "/>
<polyline clip-path="url(#clip270)" style="stroke:#000000; stroke-linecap:round; stroke-linejoin:round; stroke-width:4; stroke-opacity:1; fill:none" points="1784.23,1206.49 1784.23,1188.49 "/>
<polyline clip-path="url(#clip270)" style="stroke:#000000; stroke-linecap:round; stroke-linejoin:round; stroke-width:4; stroke-opacity:1; fill:none" points="1897.34,1206.49 1897.34,1188.49 "/>
<polyline clip-path="url(#clip270)" style="stroke:#000000; stroke-linecap:round; stroke-linejoin:round; stroke-width:4; stroke-opacity:1; fill:none" points="2010.46,1206.49 2010.46,1188.49 "/>
<path clip-path="url(#clip270)" d="M169.796 1249.76 L199.472 1249.76 L199.472 1253.69 L169.796 1253.69 L169.796 1249.76 Z" fill="#000000" fill-rule="nonzero" fill-opacity="1" /><path clip-path="url(#clip270)" d="M219.565 1250.17 Q216.231 1250.17 214.31 1251.96 Q212.412 1253.74 212.412 1256.86 Q212.412 1259.99 214.31 1261.77 Q216.231 1263.55 219.565 1263.55 Q222.898 1263.55 224.819 1261.77 Q226.741 1259.97 226.741 1256.86 Q226.741 1253.74 224.819 1251.96 Q222.921 1250.17 219.565 1250.17 M214.889 1248.18 Q211.88 1247.44 210.19 1245.38 Q208.523 1243.32 208.523 1240.36 Q208.523 1236.22 211.463 1233.81 Q214.426 1231.4 219.565 1231.4 Q224.727 1231.4 227.667 1233.81 Q230.606 1236.22 230.606 1240.36 Q230.606 1243.32 228.917 1245.38 Q227.25 1247.44 224.264 1248.18 Q227.643 1248.97 229.518 1251.26 Q231.417 1253.55 231.417 1256.86 Q231.417 1261.89 228.338 1264.57 Q225.282 1267.26 219.565 1267.26 Q213.847 1267.26 210.768 1264.57 Q207.713 1261.89 207.713 1256.86 Q207.713 1253.55 209.611 1251.26 Q211.509 1248.97 214.889 1248.18 M213.176 1240.8 Q213.176 1243.49 214.843 1244.99 Q216.532 1246.49 219.565 1246.49 Q222.574 1246.49 224.264 1244.99 Q225.977 1243.49 225.977 1240.8 Q225.977 1238.11 224.264 1236.61 Q222.574 1235.11 219.565 1235.11 Q216.532 1235.11 214.843 1236.61 Q213.176 1238.11 213.176 1240.8 Z" fill="#000000" fill-rule="nonzero" fill-opacity="1" /><path clip-path="url(#clip270)" d="M283.317 1249.76 L312.993 1249.76 L312.993 1253.69 L283.317 1253.69 L283.317 1249.76 Z" fill="#000000" fill-rule="nonzero" fill-opacity="1" /><path clip-path="url(#clip270)" d="M321.905 1232.03 L344.127 1232.03 L344.127 1234.02 L331.581 1266.59 L326.697 1266.59 L338.502 1235.96 L321.905 1235.96 L321.905 1232.03 Z" fill="#000000" fill-rule="nonzero" fill-opacity="1" /><path clip-path="url(#clip270)" d="M395.901 1249.76 L425.577 1249.76 L425.577 1253.69 L395.901 1253.69 L395.901 1249.76 Z" fill="#000000" fill-rule="nonzero" fill-opacity="1" /><path clip-path="url(#clip270)" d="M446.248 1247.44 Q443.1 1247.44 441.248 1249.6 Q439.419 1251.75 439.419 1255.5 Q439.419 1259.23 441.248 1261.4 Q443.1 1263.55 446.248 1263.55 Q449.396 1263.55 451.225 1261.4 Q453.076 1259.23 453.076 1255.5 Q453.076 1251.75 451.225 1249.6 Q449.396 1247.44 446.248 1247.44 M455.53 1232.79 L455.53 1237.05 Q453.771 1236.22 451.965 1235.78 Q450.183 1235.34 448.424 1235.34 Q443.794 1235.34 441.34 1238.46 Q438.91 1241.59 438.563 1247.91 Q439.928 1245.89 441.989 1244.83 Q444.049 1243.74 446.526 1243.74 Q451.734 1243.74 454.743 1246.91 Q457.776 1250.06 457.776 1255.5 Q457.776 1260.82 454.627 1264.04 Q451.479 1267.26 446.248 1267.26 Q440.252 1267.26 437.081 1262.67 Q433.91 1258.07 433.91 1249.34 Q433.91 1241.15 437.799 1236.29 Q441.688 1231.4 448.239 1231.4 Q449.998 1231.4 451.78 1231.75 Q453.586 1232.1 455.53 1232.79 Z" fill="#000000" fill-rule="nonzero" fill-opacity="1" /><path clip-path="url(#clip270)" d="M509.595 1249.76 L539.271 1249.76 L539.271 1253.69 L509.595 1253.69 L509.595 1249.76 Z" fill="#000000" fill-rule="nonzero" fill-opacity="1" /><path clip-path="url(#clip270)" d="M549.41 1232.03 L567.766 1232.03 L567.766 1235.96 L553.692 1235.96 L553.692 1244.43 Q554.711 1244.09 555.729 1243.92 Q556.748 1243.74 557.766 1243.74 Q563.553 1243.74 566.933 1246.91 Q570.313 1250.08 570.313 1255.5 Q570.313 1261.08 566.841 1264.18 Q563.368 1267.26 557.049 1267.26 Q554.873 1267.26 552.604 1266.89 Q550.359 1266.52 547.952 1265.78 L547.952 1261.08 Q550.035 1262.21 552.257 1262.77 Q554.479 1263.32 556.956 1263.32 Q560.961 1263.32 563.299 1261.22 Q565.637 1259.11 565.637 1255.5 Q565.637 1251.89 563.299 1249.78 Q560.961 1247.67 556.956 1247.67 Q555.081 1247.67 553.206 1248.09 Q551.354 1248.51 549.41 1249.39 L549.41 1232.03 Z" fill="#000000" fill-rule="nonzero" fill-opacity="1" /><path clip-path="url(#clip270)" d="M621.971 1249.76 L651.646 1249.76 L651.646 1253.69 L621.971 1253.69 L621.971 1249.76 Z" fill="#000000" fill-rule="nonzero" fill-opacity="1" /><path clip-path="url(#clip270)" d="M674.586 1236.1 L662.781 1254.55 L674.586 1254.55 L674.586 1236.1 M673.359 1232.03 L679.239 1232.03 L679.239 1254.55 L684.169 1254.55 L684.169 1258.44 L679.239 1258.44 L679.239 1266.59 L674.586 1266.59 L674.586 1258.44 L658.984 1258.44 L658.984 1253.92 L673.359 1232.03 Z" fill="#000000" fill-rule="nonzero" fill-opacity="1" /><path clip-path="url(#clip270)" d="M735.654 1249.76 L765.329 1249.76 L765.329 1253.69 L735.654 1253.69 L735.654 1249.76 Z" fill="#000000" fill-rule="nonzero" fill-opacity="1" /><path clip-path="url(#clip270)" d="M789.588 1247.95 Q792.945 1248.67 794.82 1250.94 Q796.718 1253.21 796.718 1256.54 Q796.718 1261.66 793.2 1264.46 Q789.681 1267.26 783.2 1267.26 Q781.024 1267.26 778.709 1266.82 Q776.417 1266.4 773.964 1265.55 L773.964 1261.03 Q775.908 1262.17 778.223 1262.74 Q780.538 1263.32 783.061 1263.32 Q787.459 1263.32 789.75 1261.59 Q792.065 1259.85 792.065 1256.54 Q792.065 1253.48 789.913 1251.77 Q787.783 1250.04 783.963 1250.04 L779.936 1250.04 L779.936 1246.19 L784.149 1246.19 Q787.598 1246.19 789.426 1244.83 Q791.255 1243.44 791.255 1240.85 Q791.255 1238.18 789.357 1236.77 Q787.482 1235.34 783.963 1235.34 Q782.042 1235.34 779.843 1235.75 Q777.644 1236.17 775.005 1237.05 L775.005 1232.88 Q777.667 1232.14 779.982 1231.77 Q782.32 1231.4 784.38 1231.4 Q789.704 1231.4 792.806 1233.83 Q795.908 1236.24 795.908 1240.36 Q795.908 1243.23 794.264 1245.22 Q792.621 1247.19 789.588 1247.95 Z" fill="#000000" fill-rule="nonzero" fill-opacity="1" /><path clip-path="url(#clip270)" d="M849.244 1249.76 L878.92 1249.76 L878.92 1253.69 L849.244 1253.69 L849.244 1249.76 Z" fill="#000000" fill-rule="nonzero" fill-opacity="1" /><path clip-path="url(#clip270)" d="M893.04 1262.65 L909.359 1262.65 L909.359 1266.59 L887.415 1266.59 L887.415 1262.65 Q890.077 1259.9 894.66 1255.27 Q899.267 1250.61 900.447 1249.27 Q902.693 1246.75 903.572 1245.01 Q904.475 1243.25 904.475 1241.56 Q904.475 1238.81 902.531 1237.07 Q900.609 1235.34 897.508 1235.34 Q895.309 1235.34 892.855 1236.1 Q890.424 1236.86 887.647 1238.42 L887.647 1233.69 Q890.471 1232.56 892.924 1231.98 Q895.378 1231.4 897.415 1231.4 Q902.785 1231.4 905.98 1234.09 Q909.174 1236.77 909.174 1241.26 Q909.174 1243.39 908.364 1245.31 Q907.577 1247.21 905.471 1249.8 Q904.892 1250.48 901.79 1253.69 Q898.688 1256.89 893.04 1262.65 Z" fill="#000000" fill-rule="nonzero" fill-opacity="1" /><path clip-path="url(#clip270)" d="M962.175 1249.76 L991.85 1249.76 L991.85 1253.69 L962.175 1253.69 L962.175 1249.76 Z" fill="#000000" fill-rule="nonzero" fill-opacity="1" /><path clip-path="url(#clip270)" d="M1002.75 1262.65 L1010.39 1262.65 L1010.39 1236.29 L1002.08 1237.95 L1002.08 1233.69 L1010.35 1232.03 L1015.02 1232.03 L1015.02 1262.65 L1022.66 1262.65 L1022.66 1266.59 L1002.75 1266.59 L1002.75 1262.65 Z" fill="#000000" fill-rule="nonzero" fill-opacity="1" /><path clip-path="url(#clip270)" d="M1105.53 1235.11 Q1101.92 1235.11 1100.09 1238.67 Q1098.29 1242.21 1098.29 1249.34 Q1098.29 1256.45 1100.09 1260.01 Q1101.92 1263.55 1105.53 1263.55 Q1109.17 1263.55 1110.97 1260.01 Q1112.8 1256.45 1112.8 1249.34 Q1112.8 1242.21 1110.97 1238.67 Q1109.17 1235.11 1105.53 1235.11 M1105.53 1231.4 Q1111.34 1231.4 1114.4 1236.01 Q1117.48 1240.59 1117.48 1249.34 Q1117.48 1258.07 1114.4 1262.67 Q1111.34 1267.26 1105.53 1267.26 Q1099.72 1267.26 1096.64 1262.67 Q1093.59 1258.07 1093.59 1249.34 Q1093.59 1240.59 1096.64 1236.01 Q1099.72 1231.4 1105.53 1231.4 Z" fill="#000000" fill-rule="nonzero" fill-opacity="1" /><path clip-path="url(#clip270)" d="M1209.03 1262.65 L1216.67 1262.65 L1216.67 1236.29 L1208.36 1237.95 L1208.36 1233.69 L1216.62 1232.03 L1221.3 1232.03 L1221.3 1262.65 L1228.94 1262.65 L1228.94 1266.59 L1209.03 1266.59 L1209.03 1262.65 Z" fill="#000000" fill-rule="nonzero" fill-opacity="1" /><path clip-path="url(#clip270)" d="M1326.42 1262.65 L1342.74 1262.65 L1342.74 1266.59 L1320.79 1266.59 L1320.79 1262.65 Q1323.45 1259.9 1328.04 1255.27 Q1332.64 1250.61 1333.83 1249.27 Q1336.07 1246.75 1336.95 1245.01 Q1337.85 1243.25 1337.85 1241.56 Q1337.85 1238.81 1335.91 1237.07 Q1333.99 1235.34 1330.89 1235.34 Q1328.69 1235.34 1326.23 1236.1 Q1323.8 1236.86 1321.02 1238.42 L1321.02 1233.69 Q1323.85 1232.56 1326.3 1231.98 Q1328.76 1231.4 1330.79 1231.4 Q1336.16 1231.4 1339.36 1234.09 Q1342.55 1236.77 1342.55 1241.26 Q1342.55 1243.39 1341.74 1245.31 Q1340.95 1247.21 1338.85 1249.8 Q1338.27 1250.48 1335.17 1253.69 Q1332.07 1256.89 1326.42 1262.65 Z" fill="#000000" fill-rule="nonzero" fill-opacity="1" /><path clip-path="url(#clip270)" d="M1449.13 1247.95 Q1452.49 1248.67 1454.36 1250.94 Q1456.26 1253.21 1456.26 1256.54 Q1456.26 1261.66 1452.74 1264.46 Q1449.22 1267.26 1442.74 1267.26 Q1440.56 1267.26 1438.25 1266.82 Q1435.96 1266.4 1433.5 1265.55 L1433.5 1261.03 Q1435.45 1262.17 1437.76 1262.74 Q1440.08 1263.32 1442.6 1263.32 Q1447 1263.32 1449.29 1261.59 Q1451.61 1259.85 1451.61 1256.54 Q1451.61 1253.48 1449.45 1251.77 Q1447.32 1250.04 1443.5 1250.04 L1439.48 1250.04 L1439.48 1246.19 L1443.69 1246.19 Q1447.14 1246.19 1448.97 1244.83 Q1450.8 1243.44 1450.8 1240.85 Q1450.8 1238.18 1448.9 1236.77 Q1447.02 1235.34 1443.5 1235.34 Q1441.58 1235.34 1439.38 1235.75 Q1437.18 1236.17 1434.55 1237.05 L1434.55 1232.88 Q1437.21 1232.14 1439.52 1231.77 Q1441.86 1231.4 1443.92 1231.4 Q1449.24 1231.4 1452.35 1233.83 Q1455.45 1236.24 1455.45 1240.36 Q1455.45 1243.23 1453.8 1245.22 Q1452.16 1247.19 1449.13 1247.95 Z" fill="#000000" fill-rule="nonzero" fill-opacity="1" /><path clip-path="url(#clip270)" d="M1561.01 1236.1 L1549.2 1254.55 L1561.01 1254.55 L1561.01 1236.1 M1559.78 1232.03 L1565.66 1232.03 L1565.66 1254.55 L1570.59 1254.55 L1570.59 1258.44 L1565.66 1258.44 L1565.66 1266.59 L1561.01 1266.59 L1561.01 1258.44 L1545.4 1258.44 L1545.4 1253.92 L1559.78 1232.03 Z" fill="#000000" fill-rule="nonzero" fill-opacity="1" /><path clip-path="url(#clip270)" d="M1661.39 1232.03 L1679.75 1232.03 L1679.75 1235.96 L1665.67 1235.96 L1665.67 1244.43 Q1666.69 1244.09 1667.71 1243.92 Q1668.73 1243.74 1669.75 1243.74 Q1675.53 1243.74 1678.91 1246.91 Q1682.29 1250.08 1682.29 1255.5 Q1682.29 1261.08 1678.82 1264.18 Q1675.35 1267.26 1669.03 1267.26 Q1666.85 1267.26 1664.58 1266.89 Q1662.34 1266.52 1659.93 1265.78 L1659.93 1261.08 Q1662.02 1262.21 1664.24 1262.77 Q1666.46 1263.32 1668.94 1263.32 Q1672.94 1263.32 1675.28 1261.22 Q1677.62 1259.11 1677.62 1255.5 Q1677.62 1251.89 1675.28 1249.78 Q1672.94 1247.67 1668.94 1247.67 Q1667.06 1247.67 1665.19 1248.09 Q1663.33 1248.51 1661.39 1249.39 L1661.39 1232.03 Z" fill="#000000" fill-rule="nonzero" fill-opacity="1" /><path clip-path="url(#clip270)" d="M1784.63 1247.44 Q1781.49 1247.44 1779.63 1249.6 Q1777.8 1251.75 1777.8 1255.5 Q1777.8 1259.23 1779.63 1261.4 Q1781.49 1263.55 1784.63 1263.55 Q1787.78 1263.55 1789.61 1261.4 Q1791.46 1259.23 1791.46 1255.5 Q1791.46 1251.75 1789.61 1249.6 Q1787.78 1247.44 1784.63 1247.44 M1793.92 1232.79 L1793.92 1237.05 Q1792.16 1236.22 1790.35 1235.78 Q1788.57 1235.34 1786.81 1235.34 Q1782.18 1235.34 1779.73 1238.46 Q1777.3 1241.59 1776.95 1247.91 Q1778.31 1245.89 1780.37 1244.83 Q1782.43 1243.74 1784.91 1243.74 Q1790.12 1243.74 1793.13 1246.91 Q1796.16 1250.06 1796.16 1255.5 Q1796.16 1260.82 1793.01 1264.04 Q1789.87 1267.26 1784.63 1267.26 Q1778.64 1267.26 1775.47 1262.67 Q1772.3 1258.07 1772.3 1249.34 Q1772.3 1241.15 1776.18 1236.29 Q1780.07 1231.4 1786.62 1231.4 Q1788.38 1231.4 1790.17 1231.75 Q1791.97 1232.1 1793.92 1232.79 Z" fill="#000000" fill-rule="nonzero" fill-opacity="1" /><path clip-path="url(#clip270)" d="M1886.23 1232.03 L1908.46 1232.03 L1908.46 1234.02 L1895.91 1266.59 L1891.03 1266.59 L1902.83 1235.96 L1886.23 1235.96 L1886.23 1232.03 Z" fill="#000000" fill-rule="nonzero" fill-opacity="1" /><path clip-path="url(#clip270)" d="M2010.46 1250.17 Q2007.13 1250.17 2005.21 1251.96 Q2003.31 1253.74 2003.31 1256.86 Q2003.31 1259.99 2005.21 1261.77 Q2007.13 1263.55 2010.46 1263.55 Q2013.79 1263.55 2015.71 1261.77 Q2017.64 1259.97 2017.64 1256.86 Q2017.64 1253.74 2015.71 1251.96 Q2013.82 1250.17 2010.46 1250.17 M2005.78 1248.18 Q2002.78 1247.44 2001.09 1245.38 Q1999.42 1243.32 1999.42 1240.36 Q1999.42 1236.22 2002.36 1233.81 Q2005.32 1231.4 2010.46 1231.4 Q2015.62 1231.4 2018.56 1233.81 Q2021.5 1236.22 2021.5 1240.36 Q2021.5 1243.32 2019.81 1245.38 Q2018.15 1247.44 2015.16 1248.18 Q2018.54 1248.97 2020.41 1251.26 Q2022.31 1253.55 2022.31 1256.86 Q2022.31 1261.89 2019.23 1264.57 Q2016.18 1267.26 2010.46 1267.26 Q2004.74 1267.26 2001.66 1264.57 Q1998.61 1261.89 1998.61 1256.86 Q1998.61 1253.55 2000.51 1251.26 Q2002.4 1248.97 2005.78 1248.18 M2004.07 1240.8 Q2004.07 1243.49 2005.74 1244.99 Q2007.43 1246.49 2010.46 1246.49 Q2013.47 1246.49 2015.16 1244.99 Q2016.87 1243.49 2016.87 1240.8 Q2016.87 1238.11 2015.16 1236.61 Q2013.47 1235.11 2010.46 1235.11 Q2007.43 1235.11 2005.74 1236.61 Q2004.07 1238.11 2004.07 1240.8 Z" fill="#000000" fill-rule="nonzero" fill-opacity="1" /><polyline clip-path="url(#clip272)" style="stroke:#000000; stroke-linecap:round; stroke-linejoin:round; stroke-width:2; stroke-opacity:0.1; fill:none" points="146.311,1206.49 2064.76,1206.49 "/>
<polyline clip-path="url(#clip272)" style="stroke:#000000; stroke-linecap:round; stroke-linejoin:round; stroke-width:2; stroke-opacity:0.1; fill:none" points="146.311,1093.37 2064.76,1093.37 "/>
<polyline clip-path="url(#clip272)" style="stroke:#000000; stroke-linecap:round; stroke-linejoin:round; stroke-width:2; stroke-opacity:0.1; fill:none" points="146.311,980.259 2064.76,980.259 "/>
<polyline clip-path="url(#clip272)" style="stroke:#000000; stroke-linecap:round; stroke-linejoin:round; stroke-width:2; stroke-opacity:0.1; fill:none" points="146.311,867.143 2064.76,867.143 "/>
<polyline clip-path="url(#clip272)" style="stroke:#000000; stroke-linecap:round; stroke-linejoin:round; stroke-width:2; stroke-opacity:0.1; fill:none" points="146.311,754.027 2064.76,754.027 "/>
<polyline clip-path="url(#clip272)" style="stroke:#000000; stroke-linecap:round; stroke-linejoin:round; stroke-width:2; stroke-opacity:0.1; fill:none" points="146.311,640.911 2064.76,640.911 "/>
<polyline clip-path="url(#clip272)" style="stroke:#000000; stroke-linecap:round; stroke-linejoin:round; stroke-width:2; stroke-opacity:0.1; fill:none" points="146.311,527.796 2064.76,527.796 "/>
<polyline clip-path="url(#clip272)" style="stroke:#000000; stroke-linecap:round; stroke-linejoin:round; stroke-width:2; stroke-opacity:0.1; fill:none" points="146.311,414.68 2064.76,414.68 "/>
<polyline clip-path="url(#clip272)" style="stroke:#000000; stroke-linecap:round; stroke-linejoin:round; stroke-width:2; stroke-opacity:0.1; fill:none" points="146.311,301.564 2064.76,301.564 "/>
<polyline clip-path="url(#clip272)" style="stroke:#000000; stroke-linecap:round; stroke-linejoin:round; stroke-width:2; stroke-opacity:0.1; fill:none" points="146.311,188.448 2064.76,188.448 "/>
<polyline clip-path="url(#clip272)" style="stroke:#000000; stroke-linecap:round; stroke-linejoin:round; stroke-width:2; stroke-opacity:0.1; fill:none" points="146.311,75.3321 2064.76,75.3321 "/>
<polyline clip-path="url(#clip270)" style="stroke:#000000; stroke-linecap:round; stroke-linejoin:round; stroke-width:4; stroke-opacity:1; fill:none" points="146.311,1206.49 146.311,75.3321 "/>
<polyline clip-path="url(#clip270)" style="stroke:#000000; stroke-linecap:round; stroke-linejoin:round; stroke-width:4; stroke-opacity:1; fill:none" points="146.311,1206.49 165.209,1206.49 "/>
<polyline clip-path="url(#clip270)" style="stroke:#000000; stroke-linecap:round; stroke-linejoin:round; stroke-width:4; stroke-opacity:1; fill:none" points="146.311,1093.37 165.209,1093.37 "/>
<polyline clip-path="url(#clip270)" style="stroke:#000000; stroke-linecap:round; stroke-linejoin:round; stroke-width:4; stroke-opacity:1; fill:none" points="146.311,980.259 165.209,980.259 "/>
<polyline clip-path="url(#clip270)" style="stroke:#000000; stroke-linecap:round; stroke-linejoin:round; stroke-width:4; stroke-opacity:1; fill:none" points="146.311,867.143 165.209,867.143 "/>
<polyline clip-path="url(#clip270)" style="stroke:#000000; stroke-linecap:round; stroke-linejoin:round; stroke-width:4; stroke-opacity:1; fill:none" points="146.311,754.027 165.209,754.027 "/>
<polyline clip-path="url(#clip270)" style="stroke:#000000; stroke-linecap:round; stroke-linejoin:round; stroke-width:4; stroke-opacity:1; fill:none" points="146.311,640.911 165.209,640.911 "/>
<polyline clip-path="url(#clip270)" style="stroke:#000000; stroke-linecap:round; stroke-linejoin:round; stroke-width:4; stroke-opacity:1; fill:none" points="146.311,527.796 165.209,527.796 "/>
<polyline clip-path="url(#clip270)" style="stroke:#000000; stroke-linecap:round; stroke-linejoin:round; stroke-width:4; stroke-opacity:1; fill:none" points="146.311,414.68 165.209,414.68 "/>
<polyline clip-path="url(#clip270)" style="stroke:#000000; stroke-linecap:round; stroke-linejoin:round; stroke-width:4; stroke-opacity:1; fill:none" points="146.311,301.564 165.209,301.564 "/>
<polyline clip-path="url(#clip270)" style="stroke:#000000; stroke-linecap:round; stroke-linejoin:round; stroke-width:4; stroke-opacity:1; fill:none" points="146.311,188.448 165.209,188.448 "/>
<polyline clip-path="url(#clip270)" style="stroke:#000000; stroke-linecap:round; stroke-linejoin:round; stroke-width:4; stroke-opacity:1; fill:none" points="146.311,75.3321 165.209,75.3321 "/>
<path clip-path="url(#clip270)" d="M53.9136 1206.94 L83.5894 1206.94 L83.5894 1210.88 L53.9136 1210.88 L53.9136 1206.94 Z" fill="#000000" fill-rule="nonzero" fill-opacity="1" /><path clip-path="url(#clip270)" d="M93.7282 1189.21 L112.085 1189.21 L112.085 1193.15 L98.0106 1193.15 L98.0106 1201.62 Q99.0291 1201.27 100.048 1201.11 Q101.066 1200.92 102.085 1200.92 Q107.872 1200.92 111.251 1204.09 Q114.631 1207.27 114.631 1212.68 Q114.631 1218.26 111.159 1221.36 Q107.686 1224.44 101.367 1224.44 Q99.1911 1224.44 96.9226 1224.07 Q94.6773 1223.7 92.2699 1222.96 L92.2699 1218.26 Q94.3532 1219.4 96.5754 1219.95 Q98.7976 1220.51 101.274 1220.51 Q105.279 1220.51 107.617 1218.4 Q109.955 1216.29 109.955 1212.68 Q109.955 1209.07 107.617 1206.97 Q105.279 1204.86 101.274 1204.86 Q99.3995 1204.86 97.5245 1205.28 Q95.6726 1205.69 93.7282 1206.57 L93.7282 1189.21 Z" fill="#000000" fill-rule="nonzero" fill-opacity="1" /><path clip-path="url(#clip270)" d="M52.4321 1093.83 L82.1079 1093.83 L82.1079 1097.76 L52.4321 1097.76 L52.4321 1093.83 Z" fill="#000000" fill-rule="nonzero" fill-opacity="1" /><path clip-path="url(#clip270)" d="M105.048 1080.17 L93.2421 1098.62 L105.048 1098.62 L105.048 1080.17 M103.821 1076.09 L109.7 1076.09 L109.7 1098.62 L114.631 1098.62 L114.631 1102.51 L109.7 1102.51 L109.7 1110.65 L105.048 1110.65 L105.048 1102.51 L89.4458 1102.51 L89.4458 1097.99 L103.821 1076.09 Z" fill="#000000" fill-rule="nonzero" fill-opacity="1" /><path clip-path="url(#clip270)" d="M53.5664 980.71 L83.2421 980.71 L83.2421 984.646 L53.5664 984.646 L53.5664 980.71 Z" fill="#000000" fill-rule="nonzero" fill-opacity="1" /><path clip-path="url(#clip270)" d="M107.501 978.905 Q110.858 979.622 112.733 981.891 Q114.631 984.159 114.631 987.493 Q114.631 992.608 111.112 995.409 Q107.594 998.21 101.112 998.21 Q98.9365 998.21 96.6217 997.771 Q94.33 997.354 91.8764 996.497 L91.8764 991.984 Q93.8208 993.118 96.1356 993.696 Q98.4504 994.275 100.974 994.275 Q105.372 994.275 107.663 992.539 Q109.978 990.803 109.978 987.493 Q109.978 984.437 107.825 982.724 Q105.696 980.988 101.876 980.988 L97.8485 980.988 L97.8485 977.146 L102.061 977.146 Q105.511 977.146 107.339 975.78 Q109.168 974.391 109.168 971.798 Q109.168 969.136 107.27 967.724 Q105.395 966.289 101.876 966.289 Q99.955 966.289 97.756 966.706 Q95.5569 967.123 92.918 968.002 L92.918 963.836 Q95.58 963.095 97.8948 962.724 Q100.233 962.354 102.293 962.354 Q107.617 962.354 110.719 964.785 Q113.821 967.192 113.821 971.312 Q113.821 974.183 112.177 976.173 Q110.534 978.141 107.501 978.905 Z" fill="#000000" fill-rule="nonzero" fill-opacity="1" /><path clip-path="url(#clip270)" d="M54.5154 867.595 L84.1912 867.595 L84.1912 871.53 L54.5154 871.53 L54.5154 867.595 Z" fill="#000000" fill-rule="nonzero" fill-opacity="1" /><path clip-path="url(#clip270)" d="M98.3115 880.488 L114.631 880.488 L114.631 884.423 L92.6865 884.423 L92.6865 880.488 Q95.3486 877.733 99.9319 873.104 Q104.538 868.451 105.719 867.108 Q107.964 864.585 108.844 862.849 Q109.747 861.09 109.747 859.4 Q109.747 856.646 107.802 854.909 Q105.881 853.173 102.779 853.173 Q100.58 853.173 98.1263 853.937 Q95.6958 854.701 92.918 856.252 L92.918 851.53 Q95.7421 850.396 98.1958 849.817 Q100.649 849.238 102.686 849.238 Q108.057 849.238 111.251 851.923 Q114.446 854.609 114.446 859.099 Q114.446 861.229 113.636 863.15 Q112.848 865.048 110.742 867.641 Q110.163 868.312 107.061 871.53 Q103.96 874.724 98.3115 880.488 Z" fill="#000000" fill-rule="nonzero" fill-opacity="1" /><path clip-path="url(#clip270)" d="M54.1451 754.479 L83.8208 754.479 L83.8208 758.414 L54.1451 758.414 L54.1451 754.479 Z" fill="#000000" fill-rule="nonzero" fill-opacity="1" /><path clip-path="url(#clip270)" d="M94.7236 767.372 L102.362 767.372 L102.362 741.007 L94.0523 742.673 L94.0523 738.414 L102.316 736.747 L106.992 736.747 L106.992 767.372 L114.631 767.372 L114.631 771.307 L94.7236 771.307 L94.7236 767.372 Z" fill="#000000" fill-rule="nonzero" fill-opacity="1" /><path clip-path="url(#clip270)" d="M102.686 626.71 Q99.0754 626.71 97.2467 630.275 Q95.4412 633.817 95.4412 640.946 Q95.4412 648.053 97.2467 651.617 Q99.0754 655.159 102.686 655.159 Q106.321 655.159 108.126 651.617 Q109.955 648.053 109.955 640.946 Q109.955 633.817 108.126 630.275 Q106.321 626.71 102.686 626.71 M102.686 623.006 Q108.497 623.006 111.552 627.613 Q114.631 632.196 114.631 640.946 Q114.631 649.673 111.552 654.279 Q108.497 658.863 102.686 658.863 Q96.8763 658.863 93.7976 654.279 Q90.7421 649.673 90.7421 640.946 Q90.7421 632.196 93.7976 627.613 Q96.8763 623.006 102.686 623.006 Z" fill="#000000" fill-rule="nonzero" fill-opacity="1" /><path clip-path="url(#clip270)" d="M94.7236 541.14 L102.362 541.14 L102.362 514.775 L94.0523 516.441 L94.0523 512.182 L102.316 510.516 L106.992 510.516 L106.992 541.14 L114.631 541.14 L114.631 545.076 L94.7236 545.076 L94.7236 541.14 Z" fill="#000000" fill-rule="nonzero" fill-opacity="1" /><path clip-path="url(#clip270)" d="M98.3115 428.025 L114.631 428.025 L114.631 431.96 L92.6865 431.96 L92.6865 428.025 Q95.3486 425.27 99.9319 420.64 Q104.538 415.988 105.719 414.645 Q107.964 412.122 108.844 410.386 Q109.747 408.627 109.747 406.937 Q109.747 404.182 107.802 402.446 Q105.881 400.71 102.779 400.71 Q100.58 400.71 98.1263 401.474 Q95.6958 402.238 92.918 403.789 L92.918 399.066 Q95.7421 397.932 98.1958 397.353 Q100.649 396.775 102.686 396.775 Q108.057 396.775 111.251 399.46 Q114.446 402.145 114.446 406.636 Q114.446 408.765 113.636 410.687 Q112.848 412.585 110.742 415.177 Q110.163 415.849 107.061 419.066 Q103.96 422.261 98.3115 428.025 Z" fill="#000000" fill-rule="nonzero" fill-opacity="1" /><path clip-path="url(#clip270)" d="M107.501 300.21 Q110.858 300.927 112.733 303.196 Q114.631 305.464 114.631 308.798 Q114.631 313.913 111.112 316.714 Q107.594 319.515 101.112 319.515 Q98.9365 319.515 96.6217 319.075 Q94.33 318.659 91.8764 317.802 L91.8764 313.288 Q93.8208 314.423 96.1356 315.001 Q98.4504 315.58 100.974 315.58 Q105.372 315.58 107.663 313.844 Q109.978 312.108 109.978 308.798 Q109.978 305.742 107.825 304.029 Q105.696 302.293 101.876 302.293 L97.8485 302.293 L97.8485 298.45 L102.061 298.45 Q105.511 298.45 107.339 297.085 Q109.168 295.696 109.168 293.103 Q109.168 290.441 107.27 289.029 Q105.395 287.594 101.876 287.594 Q99.955 287.594 97.756 288.011 Q95.5569 288.427 92.918 289.307 L92.918 285.14 Q95.58 284.4 97.8948 284.029 Q100.233 283.659 102.293 283.659 Q107.617 283.659 110.719 286.089 Q113.821 288.497 113.821 292.617 Q113.821 295.487 112.177 297.478 Q110.534 299.446 107.501 300.21 Z" fill="#000000" fill-rule="nonzero" fill-opacity="1" /><path clip-path="url(#clip270)" d="M105.048 175.242 L93.2421 193.691 L105.048 193.691 L105.048 175.242 M103.821 171.168 L109.7 171.168 L109.7 193.691 L114.631 193.691 L114.631 197.58 L109.7 197.58 L109.7 205.728 L105.048 205.728 L105.048 197.58 L89.4458 197.58 L89.4458 193.066 L103.821 171.168 Z" fill="#000000" fill-rule="nonzero" fill-opacity="1" /><path clip-path="url(#clip270)" d="M93.7282 58.0521 L112.085 58.0521 L112.085 61.9873 L98.0106 61.9873 L98.0106 70.4595 Q99.0291 70.1122 100.048 69.9502 Q101.066 69.765 102.085 69.765 Q107.872 69.765 111.251 72.9363 Q114.631 76.1076 114.631 81.5242 Q114.631 87.1029 111.159 90.2047 Q107.686 93.2834 101.367 93.2834 Q99.1911 93.2834 96.9226 92.913 Q94.6773 92.5427 92.2699 91.8019 L92.2699 87.1029 Q94.3532 88.2371 96.5754 88.7927 Q98.7976 89.3483 101.274 89.3483 Q105.279 89.3483 107.617 87.2418 Q109.955 85.1353 109.955 81.5242 Q109.955 77.9131 107.617 75.8067 Q105.279 73.7002 101.274 73.7002 Q99.3995 73.7002 97.5245 74.1169 Q95.6726 74.5335 93.7282 75.4131 L93.7282 58.0521 Z" fill="#000000" fill-rule="nonzero" fill-opacity="1" /><polyline clip-path="url(#clip272)" style="stroke:#009af9; stroke-linecap:round; stroke-linejoin:round; stroke-width:4; stroke-opacity:1; fill:none" points="200.606,512.146 212.39,511.777 321.342,507.693 386.817,504.483 442.176,501.169 502.311,496.759 557.751,491.721 617.188,484.939 686.051,474.571 716.65,468.766 747.249,461.952 774.081,454.901 800.914,446.499 815.541,441.167 830.168,435.143 844.796,428.239 859.423,420.181 874.137,410.491 888.851,398.546 903.565,383.222 918.28,362.489 926.414,347.368 934.548,328.229 938.615,316.577 942.682,303.08 946.749,287.241 950.816,268.367 954.884,245.467 958.951,217.067 960.984,200.136 963.018,180.877 965.051,158.772 967.085,133.133 969.118,103.034 971.152,67.1936 972.169,46.579 973.186,23.788 974.202,-1.54413 975.219,-29.8684 976.236,-61.7492 977.253,-97.9022 978.269,-139.249 979.286,-186.996 980.303,-242.756 981.32,-308.732 981.828,-346.471 982.337,-388.015 982.845,-433.972 983.353,-485.084 983.837,-539.339 984.321,-600.077 984.805,-668.533 985.288,-746.279 985.772,-835.343 986.256,-938.391 986.739,-1059 987.223,-1202.07 987.707,-1374.52 988.191,-1586.44 "/>
<polyline clip-path="url(#clip272)" style="stroke:#009af9; stroke-linecap:round; stroke-linejoin:round; stroke-width:4; stroke-opacity:1; fill:none" points="996.414,2660.72 996.898,2425.03 997.381,2235.28 997.865,2079.23 998.349,1948.64 998.832,1837.74 999.316,1742.4 999.8,1659.56 1000.28,1586.91 1000.77,1522.69 1001.25,1465.5 1001.73,1414.25 1002.22,1368.06 1002.7,1326.22 1003.19,1288.14 1003.67,1253.34 1004.15,1221.41 1004.64,1192.01 1005.6,1139.69 1006.57,1094.53 1007.54,1055.16 1008.51,1020.54 1009.47,989.854 1010.44,962.472 1012.38,915.699 1014.31,877.232 1015.28,860.454 1016.25,845.049 1017.21,830.855 1018.18,817.738 1020.12,794.28 1022.05,773.923 1025.92,740.375 1029.79,713.921 1033.66,692.584 1037.53,675.063 1041.4,660.472 1045.27,648.183 1053.32,628.162 1061.36,613.571 1069.41,602.856 1077.46,595.077 1085.51,589.651 1093.55,586.213 1101.6,584.552 1109.65,584.571 1123.2,588.446 1136.74,597.802 1143.52,605.047 1150.29,614.494 1157.07,626.739 1163.84,642.697 1167.98,654.847 1172.11,669.383 1176.25,686.976 1180.38,708.587 1184.52,735.651 1188.65,770.391 1190.72,791.695 1192.79,816.456 1193.82,830.401 1194.85,845.57 1195.37,853.665 1195.89,862.129 1196.41,870.991 1196.92,880.277 1198.99,922.335 1201.06,974.333 1202.09,1005.22 1203.13,1040.24 1204.16,1080.26 1205.19,1126.45 1206.23,1180.33 1207.26,1244.02 1207.78,1280.41 1208.29,1320.44 1208.81,1364.67 1209.33,1413.82 1209.84,1468.74 1210.36,1530.51 1210.88,1600.51 1211.4,1680.49 1211.91,1772.74 1212.43,1880.33 1212.95,2007.43 1213.46,2159.87 1213.98,2346.07 1214.5,2578.62 1215.01,2877.32 "/>
<polyline clip-path="url(#clip272)" style="stroke:#009af9; stroke-linecap:round; stroke-linejoin:round; stroke-width:4; stroke-opacity:1; fill:none" points="1223.28,-1404.8 1223.8,-1215.96 1224.32,-1061.55 1224.83,-932.956 1225.35,-824.193 1225.87,-731.006 1226.39,-650.272 1226.9,-579.65 1227.42,-517.354 1227.94,-461.992 1228.45,-412.468 1228.97,-367.904 1229.49,-327.591 1230,-290.948 1230.95,-231.802 1231.9,-181.11 1232.84,-137.18 1233.79,-98.7423 1234.74,-64.8278 1235.69,-34.6816 1236.63,-7.70796 1237.58,16.5693 1239.47,58.5072 1241.37,93.4627 1243.26,123.049 1245.16,148.419 1247.05,170.416 1248.94,189.674 1250.84,206.678 1252.73,221.804 1256.52,247.552 1260.31,268.664 1264.1,286.302 1267.88,301.273 1271.67,314.15 1275.46,325.355 1283.04,343.935 1290.61,358.764 1304.61,379.661 1318.6,395.153 1332.6,407.247 1346.59,417.06 1360.77,425.361 1374.94,432.452 1389.12,438.623 1403.3,444.076 1435.07,454.351 1466.84,462.679 1495.64,469.015 1524.43,474.468 1590.36,484.482 1651.41,491.528 1711.59,496.99 1770.03,501.244 1829.93,504.79 1895.56,507.947 1990.9,511.528 2010.46,512.146 "/>
<polyline clip-path="url(#clip272)" style="stroke:#e26f46; stroke-linecap:round; stroke-linejoin:round; stroke-width:4; stroke-opacity:1; fill:none" points="992.418,2337.65 992.418,-1055.83 "/>
<polyline clip-path="url(#clip272)" style="stroke:#e26f46; stroke-linecap:round; stroke-linejoin:round; stroke-width:4; stroke-opacity:1; fill:none" points="1218.65,2337.65 1218.65,-1055.83 "/>
<polyline clip-path="url(#clip272)" style="stroke:#3da44d; stroke-linecap:round; stroke-linejoin:round; stroke-width:4; stroke-opacity:1; fill:none" points="-1772.13,527.796 3983.2,527.796 "/>
<path clip-path="url(#clip270)" d="M1285.98 1166.91 L2000.81 1166.91 L2000.81 679.897 L1285.98 679.897  Z" fill="#ffffff" fill-rule="evenodd" fill-opacity="1"/>
<polyline clip-path="url(#clip270)" style="stroke:#000000; stroke-linecap:round; stroke-linejoin:round; stroke-width:4; stroke-opacity:1; fill:none" points="1285.98,1166.91 2000.81,1166.91 2000.81,679.897 1285.98,679.897 1285.98,1166.91 "/>
<polyline clip-path="url(#clip270)" style="stroke:#009af9; stroke-linecap:round; stroke-linejoin:round; stroke-width:4; stroke-opacity:1; fill:none" points="1307.3,801.651 1435.19,801.651 "/>
<path clip-path="url(#clip270)" d="M1478.53 794.582 Q1478.53 794.606 1478.38 795.449 L1473.04 816.74 Q1472.76 817.864 1471.97 818.988 Q1471.19 820.136 1469.95 821.12 Q1468.73 822.127 1466.86 822.736 Q1465.01 823.368 1462.88 823.368 Q1459.48 823.368 1457.98 822.642 Q1456.51 821.94 1456.51 820.441 Q1456.51 819.129 1457.33 818.379 Q1458.15 817.653 1459.08 817.653 Q1459.97 817.653 1460.44 818.169 Q1460.91 818.684 1460.91 819.34 Q1460.91 820.066 1460.42 820.792 Q1459.93 821.541 1458.94 821.822 Q1460.51 822.314 1462.79 822.314 Q1467.59 822.314 1469.65 817.232 Q1469.7 817.161 1469.7 817.138 L1471.29 810.791 L1471.22 810.744 Q1470.82 811.212 1470.19 811.751 Q1469.58 812.266 1468.27 812.899 Q1466.95 813.531 1465.67 813.531 Q1462.97 813.531 1461.12 811.47 Q1459.3 809.385 1459.3 805.942 Q1459.3 803.436 1460.3 800.93 Q1461.33 798.4 1462.93 796.55 Q1464.54 794.676 1466.6 793.505 Q1468.69 792.334 1470.7 792.334 Q1472.11 792.334 1473.3 793.177 Q1474.5 793.997 1475.15 795.355 Q1475.27 794.231 1475.9 793.762 Q1476.56 793.294 1477.12 793.294 Q1477.75 793.294 1478.13 793.645 Q1478.53 793.973 1478.53 794.582 M1474.59 797.51 Q1474.59 797.369 1474.5 796.995 Q1474.4 796.597 1474.12 795.964 Q1473.86 795.332 1473.47 794.77 Q1473.07 794.207 1472.34 793.809 Q1471.64 793.388 1470.75 793.388 Q1469.3 793.388 1467.84 794.606 Q1466.39 795.8 1465.39 797.651 Q1464.45 799.431 1463.56 802.874 Q1462.69 806.317 1462.69 808.074 Q1462.69 809.807 1463.44 811.142 Q1464.19 812.477 1465.81 812.477 Q1467.68 812.477 1469.7 810.744 Q1471.78 808.94 1472.13 807.394 L1474.45 798.236 Q1474.59 797.674 1474.59 797.51 Z" fill="#000000" fill-rule="nonzero" fill-opacity="1" /><path clip-path="url(#clip270)" d="M1485.1 801.539 Q1485.1 793.434 1488.12 786.9 Q1489.41 784.159 1491.21 781.864 Q1493.02 779.568 1494.21 778.561 Q1495.41 777.554 1495.73 777.554 Q1496.2 777.554 1496.23 778.023 Q1496.23 778.257 1495.59 778.842 Q1487.86 786.712 1487.89 801.539 Q1487.89 816.412 1495.41 823.977 Q1496.23 824.797 1496.23 825.055 Q1496.23 825.523 1495.73 825.523 Q1495.41 825.523 1494.26 824.563 Q1493.11 823.603 1491.33 821.401 Q1489.55 819.199 1488.26 816.506 Q1485.1 809.971 1485.1 801.539 Z" fill="#000000" fill-rule="nonzero" fill-opacity="1" /><path clip-path="url(#clip270)" d="M1514.6 793.388 Q1514.6 794.043 1514.3 794.207 Q1513.99 794.348 1513.15 794.348 L1508.65 794.348 L1505.09 808.495 Q1504.81 809.736 1504.81 810.791 Q1504.81 811.962 1505.16 812.477 Q1505.54 812.992 1506.31 812.992 Q1507.83 812.992 1509.47 811.61 Q1511.14 810.228 1512.54 806.856 Q1512.73 806.411 1512.82 806.317 Q1512.94 806.2 1513.24 806.2 Q1513.83 806.2 1513.83 806.668 Q1513.83 806.832 1513.5 807.582 Q1513.2 808.331 1512.52 809.432 Q1511.86 810.533 1511 811.563 Q1510.15 812.594 1508.86 813.344 Q1507.58 814.07 1506.19 814.07 Q1504.25 814.07 1503.01 812.828 Q1501.79 811.587 1501.79 809.643 Q1501.79 809.01 1502.28 806.996 Q1502.77 804.958 1505.44 794.348 L1501.21 794.348 Q1500.62 794.348 1500.39 794.325 Q1500.17 794.301 1500.01 794.184 Q1499.87 794.043 1499.87 793.762 Q1499.87 793.317 1500.06 793.13 Q1500.24 792.919 1500.48 792.896 Q1500.74 792.849 1501.32 792.849 L1505.82 792.849 L1507.69 785.237 Q1507.88 784.487 1508.35 784.065 Q1508.84 783.62 1509.12 783.574 Q1509.4 783.503 1509.61 783.503 Q1510.25 783.503 1510.62 783.855 Q1511 784.183 1511 784.792 Q1511 785.12 1509.03 792.849 L1513.24 792.849 Q1513.78 792.849 1513.99 792.872 Q1514.23 792.896 1514.42 793.013 Q1514.6 793.13 1514.6 793.388 Z" fill="#000000" fill-rule="nonzero" fill-opacity="1" /><path clip-path="url(#clip270)" d="M1518.36 825.055 Q1518.36 824.821 1518.97 824.235 Q1526.69 816.365 1526.69 801.539 Q1526.69 786.665 1519.27 779.147 Q1518.36 778.28 1518.36 778.023 Q1518.36 777.554 1518.82 777.554 Q1519.15 777.554 1520.3 778.514 Q1521.47 779.475 1523.23 781.676 Q1525.01 783.878 1526.32 786.572 Q1529.48 793.107 1529.48 801.539 Q1529.48 809.643 1526.46 816.178 Q1525.17 818.918 1523.37 821.213 Q1521.57 823.509 1520.37 824.516 Q1519.18 825.523 1518.82 825.523 Q1518.36 825.523 1518.36 825.055 Z" fill="#000000" fill-rule="nonzero" fill-opacity="1" /><path clip-path="url(#clip270)" d="M1550.08 806.247 Q1550.13 805.661 1551.04 805.661 L1580.44 805.661 Q1581.82 805.661 1581.84 806.2 Q1581.84 806.785 1580.53 806.762 L1551.37 806.762 Q1550.08 806.785 1550.08 806.247 M1550.08 796.878 Q1550.08 796.292 1551.09 796.315 L1580.39 796.315 Q1581.82 796.315 1581.84 796.878 Q1581.84 797.416 1580.63 797.416 L1551.04 797.416 Q1550.08 797.416 1550.08 796.878 Z" fill="#000000" fill-rule="nonzero" fill-opacity="1" /><path clip-path="url(#clip270)" d="M1625.32 766.138 Q1625.32 766.793 1625.01 766.957 Q1624.71 767.098 1623.86 767.098 L1619.37 767.098 L1615.81 781.245 Q1615.52 782.486 1615.52 783.541 Q1615.52 784.712 1615.88 785.227 Q1616.25 785.742 1617.02 785.742 Q1618.55 785.742 1620.19 784.36 Q1621.85 782.978 1623.25 779.606 Q1623.44 779.161 1623.54 779.067 Q1623.65 778.95 1623.96 778.95 Q1624.54 778.95 1624.54 779.418 Q1624.54 779.582 1624.21 780.332 Q1623.91 781.081 1623.23 782.182 Q1622.57 783.283 1621.71 784.313 Q1620.86 785.344 1619.58 786.094 Q1618.29 786.82 1616.91 786.82 Q1614.96 786.82 1613.72 785.578 Q1612.5 784.337 1612.5 782.393 Q1612.5 781.76 1613 779.746 Q1613.49 777.708 1616.16 767.098 L1611.92 767.098 Q1611.33 767.098 1611.1 767.075 Q1610.89 767.051 1610.72 766.934 Q1610.58 766.793 1610.58 766.512 Q1610.58 766.067 1610.77 765.88 Q1610.96 765.669 1611.19 765.646 Q1611.45 765.599 1612.03 765.599 L1616.53 765.599 L1618.41 757.987 Q1618.59 757.237 1619.06 756.815 Q1619.55 756.37 1619.83 756.324 Q1620.12 756.253 1620.33 756.253 Q1620.96 756.253 1621.33 756.605 Q1621.71 756.933 1621.71 757.542 Q1621.71 757.87 1619.74 765.599 L1623.96 765.599 Q1624.5 765.599 1624.71 765.622 Q1624.94 765.646 1625.13 765.763 Q1625.32 765.88 1625.32 766.138 Z" fill="#000000" fill-rule="nonzero" fill-opacity="1" /><path clip-path="url(#clip270)" d="M1630.29 757.755 L1630.29 756.722 L1640.6 740.965 Q1640.87 740.556 1641.28 740.572 Q1641.65 740.572 1641.74 740.72 Q1641.82 740.867 1641.82 741.441 L1641.82 756.722 L1645.18 756.722 L1645.18 757.755 L1641.82 757.755 L1641.82 760.673 Q1641.82 761.64 1642.21 761.952 Q1642.62 762.264 1644.36 762.264 L1645.06 762.264 L1645.06 763.296 Q1643.69 763.198 1640.51 763.198 Q1637.34 763.198 1635.96 763.296 L1635.96 762.264 L1636.67 762.264 Q1638.41 762.264 1638.82 761.968 Q1639.23 761.657 1639.23 760.673 L1639.23 757.755 L1630.29 757.755 M1631.24 756.722 L1639.42 756.722 L1639.42 744.195 L1631.24 756.722 Z" fill="#000000" fill-rule="nonzero" fill-opacity="1" /><path clip-path="url(#clip270)" d="M1664.56 774.874 Q1663.46 774.874 1663.46 774.289 Q1663.46 773.703 1664.6 773.703 Q1664.74 773.703 1664.98 773.727 Q1665.24 773.75 1665.28 773.75 L1678.8 773.75 L1678.8 760.188 Q1678.8 760.141 1678.77 759.931 Q1678.75 759.696 1678.75 759.556 Q1678.75 758.408 1679.31 758.408 Q1679.9 758.408 1679.9 759.556 L1679.9 773.75 L1693.44 773.75 Q1693.48 773.75 1693.72 773.727 Q1693.95 773.703 1694.09 773.703 Q1695.19 773.703 1695.19 774.289 Q1695.22 774.874 1694.05 774.874 Q1693.9 774.874 1693.69 774.851 Q1693.48 774.827 1693.44 774.827 L1679.9 774.827 L1679.9 789.068 Q1679.9 790.169 1679.31 790.169 Q1678.75 790.169 1678.75 789.021 Q1678.75 788.881 1678.77 788.647 Q1678.8 788.436 1678.8 788.389 L1678.8 774.827 L1665.28 774.827 Q1665.24 774.827 1664.95 774.851 Q1664.7 774.874 1664.56 774.874 Z" fill="#000000" fill-rule="nonzero" fill-opacity="1" /><path clip-path="url(#clip270)" d="M1713.72 758.9 L1713.72 757.401 Q1719.48 757.401 1722.45 754.333 Q1723.27 754.333 1723.41 754.52 Q1723.55 754.707 1723.55 755.574 L1723.55 782.486 Q1723.55 783.915 1724.26 784.36 Q1724.96 784.805 1728.03 784.805 L1729.55 784.805 L1729.55 786.281 Q1727.86 786.14 1721.77 786.14 Q1715.68 786.14 1714.02 786.281 L1714.02 784.805 L1715.54 784.805 Q1718.56 784.805 1719.29 784.384 Q1720.02 783.939 1720.02 782.486 L1720.02 757.635 Q1717.51 758.9 1713.72 758.9 Z" fill="#000000" fill-rule="nonzero" fill-opacity="1" /><path clip-path="url(#clip270)" d="M1732.66 765.13 Q1732.66 762.577 1733.41 760.844 Q1734.16 759.087 1735.73 757.354 Q1738.61 754.333 1742.78 754.333 Q1744.56 754.333 1746.13 755.082 Q1747.72 755.832 1749.22 757.542 Q1750.74 759.228 1751.66 762.577 Q1752.57 765.903 1752.57 770.494 Q1752.57 777.919 1748.96 782.627 Q1745.38 787.335 1740.53 787.335 Q1737.46 787.335 1735.66 785.953 Q1733.86 784.548 1733.86 782.159 Q1733.86 780.917 1734.56 780.402 Q1735.26 779.863 1736.06 779.863 Q1736.92 779.863 1737.6 780.449 Q1738.28 781.011 1738.28 782.065 Q1738.28 782.932 1737.72 783.611 Q1737.18 784.267 1735.78 784.267 Q1737.16 786 1740.48 786 Q1741.68 786 1742.87 785.461 Q1744.07 784.899 1745.36 783.564 Q1746.67 782.205 1747.46 779.371 Q1748.26 776.537 1748.26 772.555 L1748.26 771.033 Q1746.34 775.835 1742.26 775.835 Q1738.24 775.835 1735.45 772.743 Q1732.66 769.651 1732.66 765.13 M1736.97 765.177 Q1736.97 769.932 1737.84 771.689 Q1739.31 774.71 1742.31 774.71 Q1745.24 774.71 1746.69 772.11 Q1748.17 769.487 1748.17 766.091 Q1748.17 761.383 1747.39 759.322 Q1745.96 755.527 1742.78 755.527 Q1739.62 755.527 1737.98 758.549 Q1736.97 760.329 1736.97 765.177 Z" fill="#000000" fill-rule="nonzero" fill-opacity="1" /><path clip-path="url(#clip270)" d="M1771.15 766.138 Q1771.15 766.793 1770.84 766.957 Q1770.54 767.098 1769.69 767.098 L1765.2 767.098 L1761.64 781.245 Q1761.36 782.486 1761.36 783.541 Q1761.36 784.712 1761.71 785.227 Q1762.08 785.742 1762.85 785.742 Q1764.38 785.742 1766.02 784.36 Q1767.68 782.978 1769.09 779.606 Q1769.27 779.161 1769.37 779.067 Q1769.48 778.95 1769.79 778.95 Q1770.37 778.95 1770.37 779.418 Q1770.37 779.582 1770.05 780.332 Q1769.74 781.081 1769.06 782.182 Q1768.41 783.283 1767.54 784.313 Q1766.7 785.344 1765.41 786.094 Q1764.12 786.82 1762.74 786.82 Q1760.79 786.82 1759.55 785.578 Q1758.33 784.337 1758.33 782.393 Q1758.33 781.76 1758.83 779.746 Q1759.32 777.708 1761.99 767.098 L1757.75 767.098 Q1757.16 767.098 1756.93 767.075 Q1756.72 767.051 1756.55 766.934 Q1756.41 766.793 1756.41 766.512 Q1756.41 766.067 1756.6 765.88 Q1756.79 765.669 1757.02 765.646 Q1757.28 765.599 1757.87 765.599 L1762.36 765.599 L1764.24 757.987 Q1764.42 757.237 1764.89 756.815 Q1765.38 756.37 1765.67 756.324 Q1765.95 756.253 1766.16 756.253 Q1766.79 756.253 1767.16 756.605 Q1767.54 756.933 1767.54 757.542 Q1767.54 757.87 1765.57 765.599 L1769.79 765.599 Q1770.33 765.599 1770.54 765.622 Q1770.77 765.646 1770.96 765.763 Q1771.15 765.88 1771.15 766.138 Z" fill="#000000" fill-rule="nonzero" fill-opacity="1" /><path clip-path="url(#clip270)" d="M1776.12 763.184 Q1776.12 762.577 1776.17 762.397 Q1776.24 762.216 1776.5 761.938 L1782.94 754.756 Q1786.47 750.789 1786.47 747.329 Q1786.47 745.083 1785.29 743.476 Q1784.12 741.869 1781.98 741.869 Q1780.5 741.869 1779.25 742.771 Q1778.01 743.673 1777.43 745.28 Q1777.53 745.247 1777.88 745.247 Q1778.71 745.247 1779.17 745.772 Q1779.65 746.296 1779.65 747.001 Q1779.65 747.903 1779.06 748.346 Q1778.48 748.772 1777.91 748.772 Q1777.68 748.772 1777.37 748.723 Q1777.07 748.674 1776.6 748.215 Q1776.12 747.739 1776.12 746.903 Q1776.12 744.558 1777.89 742.689 Q1779.68 740.82 1782.4 740.82 Q1785.48 740.82 1787.5 742.656 Q1789.53 744.476 1789.53 747.329 Q1789.53 748.329 1789.22 749.247 Q1788.93 750.149 1788.52 750.854 Q1788.12 751.559 1787.04 752.691 Q1785.96 753.822 1785.09 754.625 Q1784.22 755.429 1782.27 757.134 L1778.71 760.593 L1784.76 760.593 Q1787.71 760.593 1787.94 760.331 Q1788.27 759.855 1788.68 757.347 L1789.53 757.347 L1788.58 763.184 L1776.12 763.184 Z" fill="#000000" fill-rule="nonzero" fill-opacity="1" /><path clip-path="url(#clip270)" d="M1839.49 773.609 Q1839.77 773.89 1839.77 774.289 Q1839.77 774.687 1839.49 774.968 Q1839.21 775.249 1838.81 775.249 L1808.78 775.249 Q1808.39 775.249 1808.1 774.968 Q1807.82 774.687 1807.82 774.289 Q1807.82 773.89 1808.1 773.609 Q1808.39 773.328 1808.78 773.328 L1838.81 773.328 Q1839.21 773.328 1839.49 773.609 Z" fill="#000000" fill-rule="nonzero" fill-opacity="1" /><path clip-path="url(#clip270)" d="M1858.08 778.552 Q1858.08 777.123 1858.86 776.584 Q1859.63 776.022 1860.45 776.022 Q1861.55 776.022 1862.18 776.725 Q1862.84 777.404 1862.84 778.364 Q1862.84 779.324 1862.18 780.027 Q1861.55 780.706 1860.45 780.706 Q1859.91 780.706 1859.63 780.613 Q1860.26 782.814 1862.18 784.407 Q1864.13 786 1866.68 786 Q1869.89 786 1871.81 782.885 Q1872.96 780.87 1872.96 776.303 Q1872.96 772.274 1872.09 770.26 Q1870.76 767.192 1868.01 767.192 Q1864.13 767.192 1861.83 770.541 Q1861.55 770.963 1861.22 770.986 Q1860.75 770.986 1860.64 770.728 Q1860.54 770.447 1860.54 769.721 L1860.54 755.527 Q1860.54 754.38 1861.01 754.38 Q1861.2 754.38 1861.6 754.52 Q1864.62 755.855 1867.97 755.879 Q1871.41 755.879 1874.5 754.473 Q1874.74 754.333 1874.88 754.333 Q1875.35 754.333 1875.37 754.871 Q1875.37 755.059 1874.97 755.621 Q1874.6 756.16 1873.78 756.886 Q1872.96 757.588 1871.9 758.268 Q1870.85 758.947 1869.3 759.415 Q1867.78 759.86 1866.09 759.86 Q1864.08 759.86 1862.02 759.228 L1862.02 768.574 Q1864.5 766.138 1868.11 766.138 Q1871.95 766.138 1874.6 769.229 Q1877.24 772.321 1877.24 776.631 Q1877.24 781.151 1874.1 784.243 Q1870.99 787.335 1866.77 787.335 Q1862.93 787.335 1860.5 784.595 Q1858.08 781.854 1858.08 778.552 Z" fill="#000000" fill-rule="nonzero" fill-opacity="1" /><path clip-path="url(#clip270)" d="M1610.58 802.931 L1882.43 802.931 L1882.43 800.371 L1610.58 800.371  Z" fill="#000000" fill-rule="evenodd" fill-opacity="1"/>
<path clip-path="url(#clip270)" d="M1625.32 838.535 Q1625.32 839.19 1625.01 839.354 Q1624.71 839.495 1623.86 839.495 L1619.37 839.495 L1615.81 853.642 Q1615.52 854.883 1615.52 855.938 Q1615.52 857.109 1615.88 857.624 Q1616.25 858.139 1617.02 858.139 Q1618.55 858.139 1620.19 856.757 Q1621.85 855.375 1623.25 852.003 Q1623.44 851.558 1623.54 851.464 Q1623.65 851.347 1623.96 851.347 Q1624.54 851.347 1624.54 851.815 Q1624.54 851.979 1624.21 852.729 Q1623.91 853.478 1623.23 854.579 Q1622.57 855.68 1621.71 856.71 Q1620.86 857.741 1619.58 858.491 Q1618.29 859.217 1616.91 859.217 Q1614.96 859.217 1613.72 857.975 Q1612.5 856.734 1612.5 854.79 Q1612.5 854.157 1613 852.143 Q1613.49 850.105 1616.16 839.495 L1611.92 839.495 Q1611.33 839.495 1611.1 839.472 Q1610.89 839.448 1610.72 839.331 Q1610.58 839.19 1610.58 838.909 Q1610.58 838.464 1610.77 838.277 Q1610.96 838.066 1611.19 838.043 Q1611.45 837.996 1612.03 837.996 L1616.53 837.996 L1618.41 830.384 Q1618.59 829.634 1619.06 829.212 Q1619.55 828.767 1619.83 828.721 Q1620.12 828.65 1620.33 828.65 Q1620.96 828.65 1621.33 829.002 Q1621.71 829.33 1621.71 829.939 Q1621.71 830.267 1619.74 837.996 L1623.96 837.996 Q1624.5 837.996 1624.71 838.019 Q1624.94 838.043 1625.13 838.16 Q1625.32 838.277 1625.32 838.535 Z" fill="#000000" fill-rule="nonzero" fill-opacity="1" /><path clip-path="url(#clip270)" d="M1630.29 830.152 L1630.29 829.119 L1640.6 813.362 Q1640.87 812.953 1641.28 812.969 Q1641.65 812.969 1641.74 813.117 Q1641.82 813.264 1641.82 813.838 L1641.82 829.119 L1645.18 829.119 L1645.18 830.152 L1641.82 830.152 L1641.82 833.07 Q1641.82 834.037 1642.21 834.349 Q1642.62 834.661 1644.36 834.661 L1645.06 834.661 L1645.06 835.693 Q1643.69 835.595 1640.51 835.595 Q1637.34 835.595 1635.96 835.693 L1635.96 834.661 L1636.67 834.661 Q1638.41 834.661 1638.82 834.365 Q1639.23 834.054 1639.23 833.07 L1639.23 830.152 L1630.29 830.152 M1631.24 829.119 L1639.42 829.119 L1639.42 816.592 L1631.24 829.119 Z" fill="#000000" fill-rule="nonzero" fill-opacity="1" /><path clip-path="url(#clip270)" d="M1664.56 847.271 Q1663.46 847.271 1663.46 846.686 Q1663.46 846.1 1664.6 846.1 Q1664.74 846.1 1664.98 846.124 Q1665.24 846.147 1665.28 846.147 L1678.8 846.147 L1678.8 832.585 Q1678.8 832.538 1678.77 832.328 Q1678.75 832.093 1678.75 831.953 Q1678.75 830.805 1679.31 830.805 Q1679.9 830.805 1679.9 831.953 L1679.9 846.147 L1693.44 846.147 Q1693.48 846.147 1693.72 846.124 Q1693.95 846.1 1694.09 846.1 Q1695.19 846.1 1695.19 846.686 Q1695.22 847.271 1694.05 847.271 Q1693.9 847.271 1693.69 847.248 Q1693.48 847.224 1693.44 847.224 L1679.9 847.224 L1679.9 861.465 Q1679.9 862.566 1679.31 862.566 Q1678.75 862.566 1678.75 861.418 Q1678.75 861.278 1678.77 861.044 Q1678.8 860.833 1678.8 860.786 L1678.8 847.224 L1665.28 847.224 Q1665.24 847.224 1664.95 847.248 Q1664.7 847.271 1664.56 847.271 Z" fill="#000000" fill-rule="nonzero" fill-opacity="1" /><path clip-path="url(#clip270)" d="M1713.72 837.527 Q1713.72 834.974 1714.47 833.241 Q1715.21 831.484 1716.78 829.751 Q1719.66 826.73 1723.83 826.73 Q1725.61 826.73 1727.18 827.479 Q1728.78 828.229 1730.28 829.939 Q1731.8 831.625 1732.71 834.974 Q1733.62 838.3 1733.62 842.891 Q1733.62 850.316 1730.02 855.024 Q1726.43 859.732 1721.59 859.732 Q1718.52 859.732 1716.71 858.35 Q1714.91 856.945 1714.91 854.556 Q1714.91 853.314 1715.61 852.799 Q1716.32 852.26 1717.11 852.26 Q1717.98 852.26 1718.66 852.846 Q1719.34 853.408 1719.34 854.462 Q1719.34 855.329 1718.77 856.008 Q1718.24 856.664 1716.83 856.664 Q1718.21 858.397 1721.54 858.397 Q1722.73 858.397 1723.93 857.858 Q1725.12 857.296 1726.41 855.961 Q1727.72 854.602 1728.52 851.768 Q1729.31 848.934 1729.31 844.952 L1729.31 843.43 Q1727.39 848.232 1723.32 848.232 Q1719.29 848.232 1716.5 845.14 Q1713.72 842.048 1713.72 837.527 M1718.03 837.574 Q1718.03 842.329 1718.89 844.086 Q1720.37 847.107 1723.37 847.107 Q1726.29 847.107 1727.75 844.507 Q1729.22 841.884 1729.22 838.488 Q1729.22 833.78 1728.45 831.719 Q1727.02 827.924 1723.83 827.924 Q1720.67 827.924 1719.03 830.946 Q1718.03 832.726 1718.03 837.574 Z" fill="#000000" fill-rule="nonzero" fill-opacity="1" /><path clip-path="url(#clip270)" d="M1752.2 838.535 Q1752.2 839.19 1751.9 839.354 Q1751.59 839.495 1750.75 839.495 L1746.25 839.495 L1742.69 853.642 Q1742.41 854.883 1742.41 855.938 Q1742.41 857.109 1742.76 857.624 Q1743.14 858.139 1743.91 858.139 Q1745.43 858.139 1747.07 856.757 Q1748.73 855.375 1750.14 852.003 Q1750.33 851.558 1750.42 851.464 Q1750.54 851.347 1750.84 851.347 Q1751.43 851.347 1751.43 851.815 Q1751.43 851.979 1751.1 852.729 Q1750.8 853.478 1750.12 854.579 Q1749.46 855.68 1748.59 856.71 Q1747.75 857.741 1746.46 858.491 Q1745.17 859.217 1743.79 859.217 Q1741.85 859.217 1740.61 857.975 Q1739.39 856.734 1739.39 854.79 Q1739.39 854.157 1739.88 852.143 Q1740.37 850.105 1743.04 839.495 L1738.8 839.495 Q1738.22 839.495 1737.98 839.472 Q1737.77 839.448 1737.61 839.331 Q1737.47 839.19 1737.47 838.909 Q1737.47 838.464 1737.66 838.277 Q1737.84 838.066 1738.08 838.043 Q1738.34 837.996 1738.92 837.996 L1743.42 837.996 L1745.29 830.384 Q1745.48 829.634 1745.95 829.212 Q1746.44 828.767 1746.72 828.721 Q1747 828.65 1747.21 828.65 Q1747.84 828.65 1748.22 829.002 Q1748.59 829.33 1748.59 829.939 Q1748.59 830.267 1746.63 837.996 L1750.84 837.996 Q1751.38 837.996 1751.59 838.019 Q1751.83 838.043 1752.01 838.16 Q1752.2 838.277 1752.2 838.535 Z" fill="#000000" fill-rule="nonzero" fill-opacity="1" /><path clip-path="url(#clip270)" d="M1757.18 835.581 Q1757.18 834.974 1757.23 834.794 Q1757.29 834.613 1757.55 834.335 L1764 827.153 Q1767.52 823.186 1767.52 819.726 Q1767.52 817.48 1766.34 815.873 Q1765.18 814.266 1763.03 814.266 Q1761.56 814.266 1760.31 815.168 Q1759.06 816.07 1758.49 817.677 Q1758.59 817.644 1758.93 817.644 Q1759.77 817.644 1760.23 818.169 Q1760.7 818.693 1760.7 819.398 Q1760.7 820.3 1760.11 820.743 Q1759.54 821.169 1758.96 821.169 Q1758.74 821.169 1758.42 821.12 Q1758.13 821.071 1757.65 820.612 Q1757.18 820.136 1757.18 819.3 Q1757.18 816.955 1758.95 815.086 Q1760.74 813.217 1763.46 813.217 Q1766.54 813.217 1768.56 815.053 Q1770.59 816.873 1770.59 819.726 Q1770.59 820.726 1770.28 821.644 Q1769.98 822.546 1769.57 823.251 Q1769.18 823.956 1768.1 825.088 Q1767.01 826.219 1766.15 827.022 Q1765.28 827.826 1763.33 829.531 L1759.77 832.99 L1765.82 832.99 Q1768.77 832.99 1769 832.728 Q1769.33 832.252 1769.74 829.744 L1770.59 829.744 L1769.64 835.581 L1757.18 835.581 Z" fill="#000000" fill-rule="nonzero" fill-opacity="1" /><path clip-path="url(#clip270)" d="M1820.55 846.006 Q1820.83 846.287 1820.83 846.686 Q1820.83 847.084 1820.55 847.365 Q1820.26 847.646 1819.87 847.646 L1789.84 847.646 Q1789.44 847.646 1789.16 847.365 Q1788.88 847.084 1788.88 846.686 Q1788.88 846.287 1789.16 846.006 Q1789.44 845.725 1789.84 845.725 L1819.87 845.725 Q1820.26 845.725 1820.55 846.006 Z" fill="#000000" fill-rule="nonzero" fill-opacity="1" /><path clip-path="url(#clip270)" d="M1839.14 831.297 L1839.14 829.798 Q1844.9 829.798 1847.88 826.73 Q1848.7 826.73 1848.84 826.917 Q1848.98 827.104 1848.98 827.971 L1848.98 854.883 Q1848.98 856.312 1849.68 856.757 Q1850.38 857.202 1853.45 857.202 L1854.97 857.202 L1854.97 858.678 Q1853.29 858.537 1847.2 858.537 Q1841.11 858.537 1839.44 858.678 L1839.44 857.202 L1840.97 857.202 Q1843.99 857.202 1844.71 856.781 Q1845.44 856.336 1845.44 854.883 L1845.44 830.032 Q1842.93 831.297 1839.14 831.297 Z" fill="#000000" fill-rule="nonzero" fill-opacity="1" /><path clip-path="url(#clip270)" d="M1857.31 843.336 Q1857.31 836.286 1859.09 832.445 Q1861.58 826.73 1867.43 826.73 Q1868.67 826.73 1869.96 827.081 Q1871.27 827.409 1872.91 828.697 Q1874.58 829.985 1875.58 832.093 Q1877.5 836.169 1877.5 843.336 Q1877.5 850.34 1875.72 854.157 Q1873.12 859.732 1867.39 859.732 Q1865.23 859.732 1863.03 858.631 Q1860.85 857.53 1859.47 854.883 Q1857.31 850.925 1857.31 843.336 M1861.3 842.751 Q1861.3 849.988 1861.81 852.869 Q1862.4 855.984 1863.99 857.343 Q1865.61 858.678 1867.39 858.678 Q1869.31 858.678 1870.9 857.249 Q1872.52 855.797 1873.01 852.682 Q1873.55 849.613 1873.52 842.751 Q1873.52 836.075 1873.05 833.405 Q1872.42 830.29 1870.73 829.049 Q1869.07 827.784 1867.39 827.784 Q1866.75 827.784 1866.07 827.971 Q1865.42 828.158 1864.46 828.697 Q1863.5 829.236 1862.75 830.571 Q1862.02 831.906 1861.67 833.92 Q1861.3 836.52 1861.3 842.751 Z" fill="#000000" fill-rule="nonzero" fill-opacity="1" /><polyline clip-path="url(#clip270)" style="stroke:#e26f46; stroke-linecap:round; stroke-linejoin:round; stroke-width:4; stroke-opacity:1; fill:none" points="1307.3,923.405 1435.19,923.405 "/>
<path clip-path="url(#clip270)" d="M1472.34 910.731 L1466 927.93 L1478.71 927.93 L1472.34 910.731 M1469.7 906.125 L1475 906.125 L1488.17 940.685 L1483.31 940.685 L1480.17 931.819 L1464.59 931.819 L1461.44 940.685 L1456.51 940.685 L1469.7 906.125 Z" fill="#000000" fill-rule="nonzero" fill-opacity="1" /><path clip-path="url(#clip270)" d="M1509.56 915.523 L1509.56 919.551 Q1507.76 918.625 1505.81 918.162 Q1503.87 917.699 1501.79 917.699 Q1498.61 917.699 1497.02 918.671 Q1495.44 919.643 1495.44 921.588 Q1495.44 923.069 1496.58 923.926 Q1497.71 924.759 1501.14 925.523 L1502.6 925.847 Q1507.13 926.819 1509.03 928.602 Q1510.95 930.361 1510.95 933.532 Q1510.95 937.143 1508.08 939.25 Q1505.23 941.356 1500.23 941.356 Q1498.15 941.356 1495.88 940.94 Q1493.64 940.546 1491.14 939.736 L1491.14 935.338 Q1493.5 936.565 1495.79 937.19 Q1498.08 937.791 1500.33 937.791 Q1503.34 937.791 1504.96 936.773 Q1506.58 935.731 1506.58 933.856 Q1506.58 932.12 1505.4 931.194 Q1504.24 930.268 1500.28 929.412 L1498.8 929.065 Q1494.84 928.231 1493.08 926.518 Q1491.32 924.782 1491.32 921.773 Q1491.32 918.116 1493.92 916.125 Q1496.51 914.134 1501.28 914.134 Q1503.64 914.134 1505.72 914.481 Q1507.8 914.829 1509.56 915.523 Z" fill="#000000" fill-rule="nonzero" fill-opacity="1" /><path clip-path="url(#clip270)" d="M1523.08 902.768 L1527.69 902.768 L1520.14 911.472 L1516.6 911.472 L1523.08 902.768 M1517.73 914.759 L1521.99 914.759 L1521.99 940.685 L1517.73 940.685 L1517.73 914.759 M1519.86 914.134 L1519.86 914.134 Z" fill="#000000" fill-rule="nonzero" fill-opacity="1" /><path clip-path="url(#clip270)" d="M1552.46 925.037 L1552.46 940.685 L1548.2 940.685 L1548.2 925.176 Q1548.2 921.495 1546.76 919.667 Q1545.33 917.838 1542.46 917.838 Q1539.01 917.838 1537.02 920.037 Q1535.03 922.236 1535.03 926.032 L1535.03 940.685 L1530.74 940.685 L1530.74 914.759 L1535.03 914.759 L1535.03 918.787 Q1536.55 916.449 1538.61 915.292 Q1540.7 914.134 1543.41 914.134 Q1547.87 914.134 1550.17 916.912 Q1552.46 919.667 1552.46 925.037 Z" fill="#000000" fill-rule="nonzero" fill-opacity="1" /><path clip-path="url(#clip270)" d="M1565.17 907.398 L1565.17 914.759 L1573.94 914.759 L1573.94 918.069 L1565.17 918.069 L1565.17 932.143 Q1565.17 935.315 1566.02 936.217 Q1566.9 937.12 1569.56 937.12 L1573.94 937.12 L1573.94 940.685 L1569.56 940.685 Q1564.63 940.685 1562.76 938.856 Q1560.88 937.004 1560.88 932.143 L1560.88 918.069 L1557.76 918.069 L1557.76 914.759 L1560.88 914.759 L1560.88 907.398 L1565.17 907.398 Z" fill="#000000" fill-rule="nonzero" fill-opacity="1" /><path clip-path="url(#clip270)" d="M1589.59 917.745 Q1586.16 917.745 1584.17 920.43 Q1582.18 923.092 1582.18 927.745 Q1582.18 932.398 1584.15 935.083 Q1586.14 937.745 1589.59 937.745 Q1592.99 937.745 1594.98 935.06 Q1596.97 932.375 1596.97 927.745 Q1596.97 923.139 1594.98 920.454 Q1592.99 917.745 1589.59 917.745 M1589.59 914.134 Q1595.14 914.134 1598.31 917.745 Q1601.48 921.356 1601.48 927.745 Q1601.48 934.111 1598.31 937.745 Q1595.14 941.356 1589.59 941.356 Q1584.01 941.356 1580.84 937.745 Q1577.69 934.111 1577.69 927.745 Q1577.69 921.356 1580.84 917.745 Q1584.01 914.134 1589.59 914.134 Z" fill="#000000" fill-rule="nonzero" fill-opacity="1" /><path clip-path="url(#clip270)" d="M1612.76 907.398 L1612.76 914.759 L1621.53 914.759 L1621.53 918.069 L1612.76 918.069 L1612.76 932.143 Q1612.76 935.315 1613.61 936.217 Q1614.49 937.12 1617.16 937.12 L1621.53 937.12 L1621.53 940.685 L1617.16 940.685 Q1612.23 940.685 1610.35 938.856 Q1608.48 937.004 1608.48 932.143 L1608.48 918.069 L1605.35 918.069 L1605.35 914.759 L1608.48 914.759 L1608.48 907.398 L1612.76 907.398 Z" fill="#000000" fill-rule="nonzero" fill-opacity="1" /><path clip-path="url(#clip270)" d="M1638.91 927.653 Q1633.75 927.653 1631.76 928.833 Q1629.77 930.014 1629.77 932.861 Q1629.77 935.129 1631.25 936.472 Q1632.76 937.791 1635.33 937.791 Q1638.87 937.791 1641 935.291 Q1643.15 932.768 1643.15 928.602 L1643.15 927.653 L1638.91 927.653 M1647.41 925.893 L1647.41 940.685 L1643.15 940.685 L1643.15 936.75 Q1641.69 939.111 1639.52 940.245 Q1637.34 941.356 1634.19 941.356 Q1630.21 941.356 1627.85 939.134 Q1625.51 936.889 1625.51 933.139 Q1625.51 928.764 1628.43 926.541 Q1631.37 924.319 1637.18 924.319 L1643.15 924.319 L1643.15 923.903 Q1643.15 920.963 1641.21 919.366 Q1639.29 917.745 1635.79 917.745 Q1633.57 917.745 1631.46 918.278 Q1629.35 918.81 1627.41 919.875 L1627.41 915.94 Q1629.75 915.037 1631.95 914.597 Q1634.15 914.134 1636.23 914.134 Q1641.85 914.134 1644.63 917.051 Q1647.41 919.967 1647.41 925.893 Z" fill="#000000" fill-rule="nonzero" fill-opacity="1" /><path clip-path="url(#clip270)" d="M1672.71 915.523 L1672.71 919.551 Q1670.91 918.625 1668.96 918.162 Q1667.02 917.699 1664.93 917.699 Q1661.76 917.699 1660.16 918.671 Q1658.59 919.643 1658.59 921.588 Q1658.59 923.069 1659.72 923.926 Q1660.86 924.759 1664.29 925.523 L1665.74 925.847 Q1670.28 926.819 1672.18 928.602 Q1674.1 930.361 1674.1 933.532 Q1674.1 937.143 1671.23 939.25 Q1668.38 941.356 1663.38 941.356 Q1661.3 941.356 1659.03 940.94 Q1656.79 940.546 1654.29 939.736 L1654.29 935.338 Q1656.65 936.565 1658.94 937.19 Q1661.23 937.791 1663.47 937.791 Q1666.48 937.791 1668.1 936.773 Q1669.72 935.731 1669.72 933.856 Q1669.72 932.12 1668.54 931.194 Q1667.39 930.268 1663.43 929.412 L1661.95 929.065 Q1657.99 928.231 1656.23 926.518 Q1654.47 924.782 1654.47 921.773 Q1654.47 918.116 1657.06 916.125 Q1659.66 914.134 1664.42 914.134 Q1666.79 914.134 1668.87 914.481 Q1670.95 914.829 1672.71 915.523 Z" fill="#000000" fill-rule="nonzero" fill-opacity="1" /><path clip-path="url(#clip270)" d="M1692.9 914.759 L1697.41 914.759 L1705.51 936.518 L1713.61 914.759 L1718.13 914.759 L1708.41 940.685 L1702.62 940.685 L1692.9 914.759 Z" fill="#000000" fill-rule="nonzero" fill-opacity="1" /><path clip-path="url(#clip270)" d="M1746.18 926.657 L1746.18 928.741 L1726.6 928.741 Q1726.88 933.139 1729.24 935.453 Q1731.62 937.745 1735.86 937.745 Q1738.31 937.745 1740.6 937.143 Q1742.92 936.541 1745.19 935.338 L1745.19 939.365 Q1742.9 940.338 1740.49 940.847 Q1738.08 941.356 1735.6 941.356 Q1729.4 941.356 1725.77 937.745 Q1722.16 934.134 1722.16 927.977 Q1722.16 921.611 1725.58 917.884 Q1729.03 914.134 1734.86 914.134 Q1740.09 914.134 1743.13 917.514 Q1746.18 920.87 1746.18 926.657 M1741.92 925.407 Q1741.88 921.912 1739.96 919.829 Q1738.06 917.745 1734.91 917.745 Q1731.34 917.745 1729.19 919.759 Q1727.06 921.773 1726.74 925.43 L1741.92 925.407 Z" fill="#000000" fill-rule="nonzero" fill-opacity="1" /><path clip-path="url(#clip270)" d="M1768.2 918.741 Q1767.48 918.324 1766.62 918.139 Q1765.79 917.93 1764.77 917.93 Q1761.16 917.93 1759.22 920.292 Q1757.29 922.629 1757.29 927.028 L1757.29 940.685 L1753.01 940.685 L1753.01 914.759 L1757.29 914.759 L1757.29 918.787 Q1758.64 916.426 1760.79 915.292 Q1762.94 914.134 1766.02 914.134 Q1766.46 914.134 1766.99 914.204 Q1767.53 914.25 1768.17 914.366 L1768.2 918.741 Z" fill="#000000" fill-rule="nonzero" fill-opacity="1" /><path clip-path="url(#clip270)" d="M1776.88 907.398 L1776.88 914.759 L1785.65 914.759 L1785.65 918.069 L1776.88 918.069 L1776.88 932.143 Q1776.88 935.315 1777.73 936.217 Q1778.61 937.12 1781.28 937.12 L1785.65 937.12 L1785.65 940.685 L1781.28 940.685 Q1776.34 940.685 1774.47 938.856 Q1772.59 937.004 1772.59 932.143 L1772.59 918.069 L1769.47 918.069 L1769.47 914.759 L1772.59 914.759 L1772.59 907.398 L1776.88 907.398 Z" fill="#000000" fill-rule="nonzero" fill-opacity="1" /><path clip-path="url(#clip270)" d="M1791.25 914.759 L1795.51 914.759 L1795.51 940.685 L1791.25 940.685 L1791.25 914.759 M1791.25 904.667 L1795.51 904.667 L1795.51 910.06 L1791.25 910.06 L1791.25 904.667 Z" fill="#000000" fill-rule="nonzero" fill-opacity="1" /><path clip-path="url(#clip270)" d="M1823.08 915.755 L1823.08 919.736 Q1821.27 918.741 1819.45 918.254 Q1817.64 917.745 1815.79 917.745 Q1811.65 917.745 1809.35 920.384 Q1807.06 923 1807.06 927.745 Q1807.06 932.491 1809.35 935.129 Q1811.65 937.745 1815.79 937.745 Q1817.64 937.745 1819.45 937.259 Q1821.27 936.75 1823.08 935.754 L1823.08 939.69 Q1821.3 940.523 1819.38 940.94 Q1817.48 941.356 1815.33 941.356 Q1809.47 941.356 1806.02 937.676 Q1802.57 933.995 1802.57 927.745 Q1802.57 921.403 1806.04 917.768 Q1809.54 914.134 1815.6 914.134 Q1817.57 914.134 1819.45 914.551 Q1821.32 914.944 1823.08 915.755 Z" fill="#000000" fill-rule="nonzero" fill-opacity="1" /><path clip-path="url(#clip270)" d="M1842.27 927.653 Q1837.11 927.653 1835.12 928.833 Q1833.13 930.014 1833.13 932.861 Q1833.13 935.129 1834.61 936.472 Q1836.11 937.791 1838.68 937.791 Q1842.22 937.791 1844.35 935.291 Q1846.51 932.768 1846.51 928.602 L1846.51 927.653 L1842.27 927.653 M1850.77 925.893 L1850.77 940.685 L1846.51 940.685 L1846.51 936.75 Q1845.05 939.111 1842.87 940.245 Q1840.7 941.356 1837.55 941.356 Q1833.57 941.356 1831.21 939.134 Q1828.87 936.889 1828.87 933.139 Q1828.87 928.764 1831.78 926.541 Q1834.72 924.319 1840.53 924.319 L1846.51 924.319 L1846.51 923.903 Q1846.51 920.963 1844.56 919.366 Q1842.64 917.745 1839.15 917.745 Q1836.92 917.745 1834.82 918.278 Q1832.71 918.81 1830.77 919.875 L1830.77 915.94 Q1833.1 915.037 1835.3 914.597 Q1837.5 914.134 1839.59 914.134 Q1845.21 914.134 1847.99 917.051 Q1850.77 919.967 1850.77 925.893 Z" fill="#000000" fill-rule="nonzero" fill-opacity="1" /><path clip-path="url(#clip270)" d="M1859.54 904.667 L1863.8 904.667 L1863.8 940.685 L1859.54 940.685 L1859.54 904.667 Z" fill="#000000" fill-rule="nonzero" fill-opacity="1" /><path clip-path="url(#clip270)" d="M1894.89 926.657 L1894.89 928.741 L1875.3 928.741 Q1875.58 933.139 1877.94 935.453 Q1880.33 937.745 1884.56 937.745 Q1887.02 937.745 1889.31 937.143 Q1891.62 936.541 1893.89 935.338 L1893.89 939.365 Q1891.6 940.338 1889.19 940.847 Q1886.78 941.356 1884.31 941.356 Q1878.1 941.356 1874.47 937.745 Q1870.86 934.134 1870.86 927.977 Q1870.86 921.611 1874.28 917.884 Q1877.73 914.134 1883.57 914.134 Q1888.8 914.134 1891.83 917.514 Q1894.89 920.87 1894.89 926.657 M1890.63 925.407 Q1890.58 921.912 1888.66 919.829 Q1886.76 917.745 1883.61 917.745 Q1880.05 917.745 1877.9 919.759 Q1875.77 921.773 1875.44 925.43 L1890.63 925.407 Z" fill="#000000" fill-rule="nonzero" fill-opacity="1" /><path clip-path="url(#clip270)" d="M1918.4 915.523 L1918.4 919.551 Q1916.6 918.625 1914.65 918.162 Q1912.71 917.699 1910.63 917.699 Q1907.46 917.699 1905.86 918.671 Q1904.28 919.643 1904.28 921.588 Q1904.28 923.069 1905.42 923.926 Q1906.55 924.759 1909.98 925.523 L1911.44 925.847 Q1915.97 926.819 1917.87 928.602 Q1919.79 930.361 1919.79 933.532 Q1919.79 937.143 1916.92 939.25 Q1914.08 941.356 1909.08 941.356 Q1906.99 941.356 1904.72 940.94 Q1902.48 940.546 1899.98 939.736 L1899.98 935.338 Q1902.34 936.565 1904.63 937.19 Q1906.92 937.791 1909.17 937.791 Q1912.18 937.791 1913.8 936.773 Q1915.42 935.731 1915.42 933.856 Q1915.42 932.12 1914.24 931.194 Q1913.08 930.268 1909.12 929.412 L1907.64 929.065 Q1903.68 928.231 1901.92 926.518 Q1900.16 924.782 1900.16 921.773 Q1900.16 918.116 1902.76 916.125 Q1905.35 914.134 1910.12 914.134 Q1912.48 914.134 1914.56 914.481 Q1916.64 914.829 1918.4 915.523 Z" fill="#000000" fill-rule="nonzero" fill-opacity="1" /><polyline clip-path="url(#clip270)" style="stroke:#3da44d; stroke-linecap:round; stroke-linejoin:round; stroke-width:4; stroke-opacity:1; fill:none" points="1307.3,1045.16 1435.19,1045.16 "/>
<path clip-path="url(#clip270)" d="M1472.34 1032.49 L1466 1049.68 L1478.71 1049.68 L1472.34 1032.49 M1469.7 1027.88 L1475 1027.88 L1488.17 1062.44 L1483.31 1062.44 L1480.17 1053.57 L1464.59 1053.57 L1461.44 1062.44 L1456.51 1062.44 L1469.7 1027.88 Z" fill="#000000" fill-rule="nonzero" fill-opacity="1" /><path clip-path="url(#clip270)" d="M1509.56 1037.28 L1509.56 1041.3 Q1507.76 1040.38 1505.81 1039.92 Q1503.87 1039.45 1501.79 1039.45 Q1498.61 1039.45 1497.02 1040.43 Q1495.44 1041.4 1495.44 1043.34 Q1495.44 1044.82 1496.58 1045.68 Q1497.71 1046.51 1501.14 1047.28 L1502.6 1047.6 Q1507.13 1048.57 1509.03 1050.36 Q1510.95 1052.11 1510.95 1055.29 Q1510.95 1058.9 1508.08 1061 Q1505.23 1063.11 1500.23 1063.11 Q1498.15 1063.11 1495.88 1062.69 Q1493.64 1062.3 1491.14 1061.49 L1491.14 1057.09 Q1493.5 1058.32 1495.79 1058.94 Q1498.08 1059.55 1500.33 1059.55 Q1503.34 1059.55 1504.96 1058.53 Q1506.58 1057.49 1506.58 1055.61 Q1506.58 1053.87 1505.4 1052.95 Q1504.24 1052.02 1500.28 1051.17 L1498.8 1050.82 Q1494.84 1049.99 1493.08 1048.27 Q1491.32 1046.54 1491.32 1043.53 Q1491.32 1039.87 1493.92 1037.88 Q1496.51 1035.89 1501.28 1035.89 Q1503.64 1035.89 1505.72 1036.24 Q1507.8 1036.58 1509.56 1037.28 Z" fill="#000000" fill-rule="nonzero" fill-opacity="1" /><path clip-path="url(#clip270)" d="M1523.08 1024.52 L1527.69 1024.52 L1520.14 1033.23 L1516.6 1033.23 L1523.08 1024.52 M1517.73 1036.51 L1521.99 1036.51 L1521.99 1062.44 L1517.73 1062.44 L1517.73 1036.51 M1519.86 1035.89 L1519.86 1035.89 Z" fill="#000000" fill-rule="nonzero" fill-opacity="1" /><path clip-path="url(#clip270)" d="M1552.46 1046.79 L1552.46 1062.44 L1548.2 1062.44 L1548.2 1046.93 Q1548.2 1043.25 1546.76 1041.42 Q1545.33 1039.59 1542.46 1039.59 Q1539.01 1039.59 1537.02 1041.79 Q1535.03 1043.99 1535.03 1047.79 L1535.03 1062.44 L1530.74 1062.44 L1530.74 1036.51 L1535.03 1036.51 L1535.03 1040.54 Q1536.55 1038.2 1538.61 1037.05 Q1540.7 1035.89 1543.41 1035.89 Q1547.87 1035.89 1550.17 1038.67 Q1552.46 1041.42 1552.46 1046.79 Z" fill="#000000" fill-rule="nonzero" fill-opacity="1" /><path clip-path="url(#clip270)" d="M1565.17 1029.15 L1565.17 1036.51 L1573.94 1036.51 L1573.94 1039.82 L1565.17 1039.82 L1565.17 1053.9 Q1565.17 1057.07 1566.02 1057.97 Q1566.9 1058.87 1569.56 1058.87 L1573.94 1058.87 L1573.94 1062.44 L1569.56 1062.44 Q1564.63 1062.44 1562.76 1060.61 Q1560.88 1058.76 1560.88 1053.9 L1560.88 1039.82 L1557.76 1039.82 L1557.76 1036.51 L1560.88 1036.51 L1560.88 1029.15 L1565.17 1029.15 Z" fill="#000000" fill-rule="nonzero" fill-opacity="1" /><path clip-path="url(#clip270)" d="M1589.59 1039.5 Q1586.16 1039.5 1584.17 1042.18 Q1582.18 1044.85 1582.18 1049.5 Q1582.18 1054.15 1584.15 1056.84 Q1586.14 1059.5 1589.59 1059.5 Q1592.99 1059.5 1594.98 1056.81 Q1596.97 1054.13 1596.97 1049.5 Q1596.97 1044.89 1594.98 1042.21 Q1592.99 1039.5 1589.59 1039.5 M1589.59 1035.89 Q1595.14 1035.89 1598.31 1039.5 Q1601.48 1043.11 1601.48 1049.5 Q1601.48 1055.86 1598.31 1059.5 Q1595.14 1063.11 1589.59 1063.11 Q1584.01 1063.11 1580.84 1059.5 Q1577.69 1055.86 1577.69 1049.5 Q1577.69 1043.11 1580.84 1039.5 Q1584.01 1035.89 1589.59 1035.89 Z" fill="#000000" fill-rule="nonzero" fill-opacity="1" /><path clip-path="url(#clip270)" d="M1612.76 1029.15 L1612.76 1036.51 L1621.53 1036.51 L1621.53 1039.82 L1612.76 1039.82 L1612.76 1053.9 Q1612.76 1057.07 1613.61 1057.97 Q1614.49 1058.87 1617.16 1058.87 L1621.53 1058.87 L1621.53 1062.44 L1617.16 1062.44 Q1612.23 1062.44 1610.35 1060.61 Q1608.48 1058.76 1608.48 1053.9 L1608.48 1039.82 L1605.35 1039.82 L1605.35 1036.51 L1608.48 1036.51 L1608.48 1029.15 L1612.76 1029.15 Z" fill="#000000" fill-rule="nonzero" fill-opacity="1" /><path clip-path="url(#clip270)" d="M1638.91 1049.41 Q1633.75 1049.41 1631.76 1050.59 Q1629.77 1051.77 1629.77 1054.61 Q1629.77 1056.88 1631.25 1058.23 Q1632.76 1059.55 1635.33 1059.55 Q1638.87 1059.55 1641 1057.05 Q1643.15 1054.52 1643.15 1050.36 L1643.15 1049.41 L1638.91 1049.41 M1647.41 1047.65 L1647.41 1062.44 L1643.15 1062.44 L1643.15 1058.5 Q1641.69 1060.86 1639.52 1062 Q1637.34 1063.11 1634.19 1063.11 Q1630.21 1063.11 1627.85 1060.89 Q1625.51 1058.64 1625.51 1054.89 Q1625.51 1050.52 1628.43 1048.3 Q1631.37 1046.07 1637.18 1046.07 L1643.15 1046.07 L1643.15 1045.66 Q1643.15 1042.72 1641.21 1041.12 Q1639.29 1039.5 1635.79 1039.5 Q1633.57 1039.5 1631.46 1040.03 Q1629.35 1040.56 1627.41 1041.63 L1627.41 1037.69 Q1629.75 1036.79 1631.95 1036.35 Q1634.15 1035.89 1636.23 1035.89 Q1641.85 1035.89 1644.63 1038.8 Q1647.41 1041.72 1647.41 1047.65 Z" fill="#000000" fill-rule="nonzero" fill-opacity="1" /><path clip-path="url(#clip270)" d="M1672.71 1037.28 L1672.71 1041.3 Q1670.91 1040.38 1668.96 1039.92 Q1667.02 1039.45 1664.93 1039.45 Q1661.76 1039.45 1660.16 1040.43 Q1658.59 1041.4 1658.59 1043.34 Q1658.59 1044.82 1659.72 1045.68 Q1660.86 1046.51 1664.29 1047.28 L1665.74 1047.6 Q1670.28 1048.57 1672.18 1050.36 Q1674.1 1052.11 1674.1 1055.29 Q1674.1 1058.9 1671.23 1061 Q1668.38 1063.11 1663.38 1063.11 Q1661.3 1063.11 1659.03 1062.69 Q1656.79 1062.3 1654.29 1061.49 L1654.29 1057.09 Q1656.65 1058.32 1658.94 1058.94 Q1661.23 1059.55 1663.47 1059.55 Q1666.48 1059.55 1668.1 1058.53 Q1669.72 1057.49 1669.72 1055.61 Q1669.72 1053.87 1668.54 1052.95 Q1667.39 1052.02 1663.43 1051.17 L1661.95 1050.82 Q1657.99 1049.99 1656.23 1048.27 Q1654.47 1046.54 1654.47 1043.53 Q1654.47 1039.87 1657.06 1037.88 Q1659.66 1035.89 1664.42 1035.89 Q1666.79 1035.89 1668.87 1036.24 Q1670.95 1036.58 1672.71 1037.28 Z" fill="#000000" fill-rule="nonzero" fill-opacity="1" /><path clip-path="url(#clip270)" d="M1717.5 1046.79 L1717.5 1062.44 L1713.24 1062.44 L1713.24 1046.93 Q1713.24 1043.25 1711.81 1041.42 Q1710.37 1039.59 1707.5 1039.59 Q1704.05 1039.59 1702.06 1041.79 Q1700.07 1043.99 1700.07 1047.79 L1700.07 1062.44 L1695.79 1062.44 L1695.79 1026.42 L1700.07 1026.42 L1700.07 1040.54 Q1701.6 1038.2 1703.66 1037.05 Q1705.74 1035.89 1708.45 1035.89 Q1712.92 1035.89 1715.21 1038.67 Q1717.5 1041.42 1717.5 1046.79 Z" fill="#000000" fill-rule="nonzero" fill-opacity="1" /><path clip-path="url(#clip270)" d="M1736.04 1039.5 Q1732.62 1039.5 1730.63 1042.18 Q1728.64 1044.85 1728.64 1049.5 Q1728.64 1054.15 1730.6 1056.84 Q1732.59 1059.5 1736.04 1059.5 Q1739.45 1059.5 1741.44 1056.81 Q1743.43 1054.13 1743.43 1049.5 Q1743.43 1044.89 1741.44 1042.21 Q1739.45 1039.5 1736.04 1039.5 M1736.04 1035.89 Q1741.6 1035.89 1744.77 1039.5 Q1747.94 1043.11 1747.94 1049.5 Q1747.94 1055.86 1744.77 1059.5 Q1741.6 1063.11 1736.04 1063.11 Q1730.47 1063.11 1727.29 1059.5 Q1724.15 1055.86 1724.15 1049.5 Q1724.15 1043.11 1727.29 1039.5 Q1730.47 1035.89 1736.04 1035.89 Z" fill="#000000" fill-rule="nonzero" fill-opacity="1" /><path clip-path="url(#clip270)" d="M1770.03 1040.49 Q1769.31 1040.08 1768.45 1039.89 Q1767.62 1039.68 1766.6 1039.68 Q1762.99 1039.68 1761.04 1042.05 Q1759.12 1044.38 1759.12 1048.78 L1759.12 1062.44 L1754.84 1062.44 L1754.84 1036.51 L1759.12 1036.51 L1759.12 1040.54 Q1760.47 1038.18 1762.62 1037.05 Q1764.77 1035.89 1767.85 1035.89 Q1768.29 1035.89 1768.82 1035.96 Q1769.35 1036 1770 1036.12 L1770.03 1040.49 Z" fill="#000000" fill-rule="nonzero" fill-opacity="1" /><path clip-path="url(#clip270)" d="M1774.49 1036.51 L1778.75 1036.51 L1778.75 1062.44 L1774.49 1062.44 L1774.49 1036.51 M1774.49 1026.42 L1778.75 1026.42 L1778.75 1031.81 L1774.49 1031.81 L1774.49 1026.42 Z" fill="#000000" fill-rule="nonzero" fill-opacity="1" /><path clip-path="url(#clip270)" d="M1785.81 1036.51 L1806.04 1036.51 L1806.04 1040.4 L1790.03 1059.04 L1806.04 1059.04 L1806.04 1062.44 L1785.23 1062.44 L1785.23 1058.55 L1801.25 1039.92 L1785.81 1039.92 L1785.81 1036.51 Z" fill="#000000" fill-rule="nonzero" fill-opacity="1" /><path clip-path="url(#clip270)" d="M1822.59 1039.5 Q1819.17 1039.5 1817.18 1042.18 Q1815.19 1044.85 1815.19 1049.5 Q1815.19 1054.15 1817.15 1056.84 Q1819.15 1059.5 1822.59 1059.5 Q1826 1059.5 1827.99 1056.81 Q1829.98 1054.13 1829.98 1049.5 Q1829.98 1044.89 1827.99 1042.21 Q1826 1039.5 1822.59 1039.5 M1822.59 1035.89 Q1828.15 1035.89 1831.32 1039.5 Q1834.49 1043.11 1834.49 1049.5 Q1834.49 1055.86 1831.32 1059.5 Q1828.15 1063.11 1822.59 1063.11 Q1817.02 1063.11 1813.84 1059.5 Q1810.7 1055.86 1810.7 1049.5 Q1810.7 1043.11 1813.84 1039.5 Q1817.02 1035.89 1822.59 1035.89 Z" fill="#000000" fill-rule="nonzero" fill-opacity="1" /><path clip-path="url(#clip270)" d="M1863.1 1046.79 L1863.1 1062.44 L1858.84 1062.44 L1858.84 1046.93 Q1858.84 1043.25 1857.41 1041.42 Q1855.97 1039.59 1853.1 1039.59 Q1849.65 1039.59 1847.66 1041.79 Q1845.67 1043.99 1845.67 1047.79 L1845.67 1062.44 L1841.39 1062.44 L1841.39 1036.51 L1845.67 1036.51 L1845.67 1040.54 Q1847.2 1038.2 1849.26 1037.05 Q1851.34 1035.89 1854.05 1035.89 Q1858.52 1035.89 1860.81 1038.67 Q1863.1 1041.42 1863.1 1046.79 Z" fill="#000000" fill-rule="nonzero" fill-opacity="1" /><path clip-path="url(#clip270)" d="M1875.81 1029.15 L1875.81 1036.51 L1884.58 1036.51 L1884.58 1039.82 L1875.81 1039.82 L1875.81 1053.9 Q1875.81 1057.07 1876.67 1057.97 Q1877.55 1058.87 1880.21 1058.87 L1884.58 1058.87 L1884.58 1062.44 L1880.21 1062.44 Q1875.28 1062.44 1873.4 1060.61 Q1871.53 1058.76 1871.53 1053.9 L1871.53 1039.82 L1868.4 1039.82 L1868.4 1036.51 L1871.53 1036.51 L1871.53 1029.15 L1875.81 1029.15 Z" fill="#000000" fill-rule="nonzero" fill-opacity="1" /><path clip-path="url(#clip270)" d="M1901.97 1049.41 Q1896.81 1049.41 1894.82 1050.59 Q1892.83 1051.77 1892.83 1054.61 Q1892.83 1056.88 1894.31 1058.23 Q1895.81 1059.55 1898.38 1059.55 Q1901.92 1059.55 1904.05 1057.05 Q1906.21 1054.52 1906.21 1050.36 L1906.21 1049.41 L1901.97 1049.41 M1910.46 1047.65 L1910.46 1062.44 L1906.21 1062.44 L1906.21 1058.5 Q1904.75 1060.86 1902.57 1062 Q1900.39 1063.11 1897.25 1063.11 Q1893.27 1063.11 1890.9 1060.89 Q1888.57 1058.64 1888.57 1054.89 Q1888.57 1050.52 1891.48 1048.3 Q1894.42 1046.07 1900.23 1046.07 L1906.21 1046.07 L1906.21 1045.66 Q1906.21 1042.72 1904.26 1041.12 Q1902.34 1039.5 1898.84 1039.5 Q1896.62 1039.5 1894.52 1040.03 Q1892.41 1040.56 1890.46 1041.63 L1890.46 1037.69 Q1892.8 1036.79 1895 1036.35 Q1897.2 1035.89 1899.28 1035.89 Q1904.91 1035.89 1907.69 1038.8 Q1910.46 1041.72 1910.46 1047.65 Z" fill="#000000" fill-rule="nonzero" fill-opacity="1" /><path clip-path="url(#clip270)" d="M1919.24 1026.42 L1923.5 1026.42 L1923.5 1062.44 L1919.24 1062.44 L1919.24 1026.42 Z" fill="#000000" fill-rule="nonzero" fill-opacity="1" /><path clip-path="url(#clip270)" d="M1954.58 1048.41 L1954.58 1050.49 L1935 1050.49 Q1935.28 1054.89 1937.64 1057.21 Q1940.02 1059.5 1944.26 1059.5 Q1946.71 1059.5 1949.01 1058.9 Q1951.32 1058.3 1953.59 1057.09 L1953.59 1061.12 Q1951.3 1062.09 1948.89 1062.6 Q1946.48 1063.11 1944.01 1063.11 Q1937.8 1063.11 1934.17 1059.5 Q1930.56 1055.89 1930.56 1049.73 Q1930.56 1043.36 1933.98 1039.64 Q1937.43 1035.89 1943.27 1035.89 Q1948.5 1035.89 1951.53 1039.27 Q1954.58 1042.62 1954.58 1048.41 M1950.33 1047.16 Q1950.28 1043.67 1948.36 1041.58 Q1946.46 1039.5 1943.31 1039.5 Q1939.75 1039.5 1937.59 1041.51 Q1935.46 1043.53 1935.14 1047.18 L1950.33 1047.16 Z" fill="#000000" fill-rule="nonzero" fill-opacity="1" /><path clip-path="url(#clip270)" d="M1978.1 1037.28 L1978.1 1041.3 Q1976.3 1040.38 1974.35 1039.92 Q1972.41 1039.45 1970.33 1039.45 Q1967.15 1039.45 1965.56 1040.43 Q1963.98 1041.4 1963.98 1043.34 Q1963.98 1044.82 1965.12 1045.68 Q1966.25 1046.51 1969.68 1047.28 L1971.14 1047.6 Q1975.67 1048.57 1977.57 1050.36 Q1979.49 1052.11 1979.49 1055.29 Q1979.49 1058.9 1976.62 1061 Q1973.77 1063.11 1968.77 1063.11 Q1966.69 1063.11 1964.42 1062.69 Q1962.18 1062.3 1959.68 1061.49 L1959.68 1057.09 Q1962.04 1058.32 1964.33 1058.94 Q1966.62 1059.55 1968.87 1059.55 Q1971.88 1059.55 1973.5 1058.53 Q1975.12 1057.49 1975.12 1055.61 Q1975.12 1053.87 1973.94 1052.95 Q1972.78 1052.02 1968.82 1051.17 L1967.34 1050.82 Q1963.38 1049.99 1961.62 1048.27 Q1959.86 1046.54 1959.86 1043.53 Q1959.86 1039.87 1962.45 1037.88 Q1965.05 1035.89 1969.82 1035.89 Q1972.18 1035.89 1974.26 1036.24 Q1976.34 1036.58 1978.1 1037.28 Z" fill="#000000" fill-rule="nonzero" fill-opacity="1" /></svg>
