<?xml version="1.0" encoding="utf-8"?>
<svg xmlns="http://www.w3.org/2000/svg" xmlns:xlink="http://www.w3.org/1999/xlink" width="528" height="336" viewBox="0 0 2112 1344">
<defs>
  <clipPath id="clip550">
    <rect x="0" y="0" width="2112" height="1344"/>
  </clipPath>
</defs>
<path clip-path="url(#clip550)" d="M0 1344 L2112 1344 L2112 0 L0 0  Z" fill="#ffffff" fill-rule="evenodd" fill-opacity="1"/>
<defs>
  <clipPath id="clip551">
    <rect x="422" y="0" width="1479" height="1344"/>
  </clipPath>
</defs>
<path clip-path="url(#clip550)" d="M183.047 1234.58 L2064.76 1234.58 L2064.76 47.2441 L183.047 47.2441  Z" fill="#ffffff" fill-rule="evenodd" fill-opacity="1"/>
<defs>
  <clipPath id="clip552">
    <rect x="183" y="47" width="1883" height="1188"/>
  </clipPath>
</defs>
<polyline clip-path="url(#clip552)" style="stroke:#000000; stroke-linecap:round; stroke-linejoin:round; stroke-width:2; stroke-opacity:0.1; fill:none" points="433.547,1234.58 433.547,47.2441 "/>
<polyline clip-path="url(#clip552)" style="stroke:#000000; stroke-linecap:round; stroke-linejoin:round; stroke-width:2; stroke-opacity:0.1; fill:none" points="828.035,1234.58 828.035,47.2441 "/>
<polyline clip-path="url(#clip552)" style="stroke:#000000; stroke-linecap:round; stroke-linejoin:round; stroke-width:2; stroke-opacity:0.1; fill:none" points="1222.52,1234.58 1222.52,47.2441 "/>
<polyline clip-path="url(#clip552)" style="stroke:#000000; stroke-linecap:round; stroke-linejoin:round; stroke-width:2; stroke-opacity:0.1; fill:none" points="1617.01,1234.58 1617.01,47.2441 "/>
<polyline clip-path="url(#clip552)" style="stroke:#000000; stroke-linecap:round; stroke-linejoin:round; stroke-width:2; stroke-opacity:0.1; fill:none" points="2011.5,1234.58 2011.5,47.2441 "/>
<polyline clip-path="url(#clip550)" style="stroke:#000000; stroke-linecap:round; stroke-linejoin:round; stroke-width:4; stroke-opacity:1; fill:none" points="183.047,1234.58 2064.76,1234.58 "/>
<polyline clip-path="url(#clip550)" style="stroke:#000000; stroke-linecap:round; stroke-linejoin:round; stroke-width:4; stroke-opacity:1; fill:none" points="433.547,1234.58 433.547,1215.68 "/>
<polyline clip-path="url(#clip550)" style="stroke:#000000; stroke-linecap:round; stroke-linejoin:round; stroke-width:4; stroke-opacity:1; fill:none" points="828.035,1234.58 828.035,1215.68 "/>
<polyline clip-path="url(#clip550)" style="stroke:#000000; stroke-linecap:round; stroke-linejoin:round; stroke-width:4; stroke-opacity:1; fill:none" points="1222.52,1234.58 1222.52,1215.68 "/>
<polyline clip-path="url(#clip550)" style="stroke:#000000; stroke-linecap:round; stroke-linejoin:round; stroke-width:4; stroke-opacity:1; fill:none" points="1617.01,1234.58 1617.01,1215.68 "/>
<polyline clip-path="url(#clip550)" style="stroke:#000000; stroke-linecap:round; stroke-linejoin:round; stroke-width:4; stroke-opacity:1; fill:none" points="2011.5,1234.58 2011.5,1215.68 "/>
<path clip-path="url(#clip550)" d="M428.2 1290.74 L444.519 1290.74 L444.519 1294.67 L422.575 1294.67 L422.575 1290.74 Q425.237 1287.99 429.82 1283.36 Q434.426 1278.7 435.607 1277.36 Q437.852 1274.84 438.732 1273.1 Q439.635 1271.34 439.635 1269.65 Q439.635 1266.9 437.69 1265.16 Q435.769 1263.42 432.667 1263.42 Q430.468 1263.42 428.014 1264.19 Q425.584 1264.95 422.806 1266.5 L422.806 1261.78 Q425.63 1260.65 428.084 1260.07 Q430.538 1259.49 432.575 1259.49 Q437.945 1259.49 441.139 1262.17 Q444.334 1264.86 444.334 1269.35 Q444.334 1271.48 443.524 1273.4 Q442.737 1275.3 440.63 1277.89 Q440.051 1278.56 436.95 1281.78 Q433.848 1284.98 428.2 1290.74 Z" fill="#000000" fill-rule="nonzero" fill-opacity="1" /><path clip-path="url(#clip550)" d="M831.044 1264.19 L819.239 1282.64 L831.044 1282.64 L831.044 1264.19 M829.818 1260.11 L835.697 1260.11 L835.697 1282.64 L840.628 1282.64 L840.628 1286.53 L835.697 1286.53 L835.697 1294.67 L831.044 1294.67 L831.044 1286.53 L815.443 1286.53 L815.443 1282.01 L829.818 1260.11 Z" fill="#000000" fill-rule="nonzero" fill-opacity="1" /><path clip-path="url(#clip550)" d="M1222.93 1275.53 Q1219.78 1275.53 1217.93 1277.68 Q1216.1 1279.84 1216.1 1283.59 Q1216.1 1287.31 1217.93 1289.49 Q1219.78 1291.64 1222.93 1291.64 Q1226.08 1291.64 1227.91 1289.49 Q1229.76 1287.31 1229.76 1283.59 Q1229.76 1279.84 1227.91 1277.68 Q1226.08 1275.53 1222.93 1275.53 M1232.21 1260.88 L1232.21 1265.14 Q1230.45 1264.3 1228.65 1263.86 Q1226.86 1263.42 1225.1 1263.42 Q1220.47 1263.42 1218.02 1266.55 Q1215.59 1269.67 1215.24 1275.99 Q1216.61 1273.98 1218.67 1272.92 Q1220.73 1271.83 1223.21 1271.83 Q1228.41 1271.83 1231.42 1275 Q1234.46 1278.15 1234.46 1283.59 Q1234.46 1288.91 1231.31 1292.13 Q1228.16 1295.35 1222.93 1295.35 Q1216.93 1295.35 1213.76 1290.76 Q1210.59 1286.16 1210.59 1277.43 Q1210.59 1269.24 1214.48 1264.37 Q1218.37 1259.49 1224.92 1259.49 Q1226.68 1259.49 1228.46 1259.84 Q1230.27 1260.18 1232.21 1260.88 Z" fill="#000000" fill-rule="nonzero" fill-opacity="1" /><path clip-path="url(#clip550)" d="M1617.01 1278.26 Q1613.68 1278.26 1611.76 1280.05 Q1609.86 1281.83 1609.86 1284.95 Q1609.86 1288.08 1611.76 1289.86 Q1613.68 1291.64 1617.01 1291.64 Q1620.35 1291.64 1622.27 1289.86 Q1624.19 1288.05 1624.19 1284.95 Q1624.19 1281.83 1622.27 1280.05 Q1620.37 1278.26 1617.01 1278.26 M1612.34 1276.27 Q1609.33 1275.53 1607.64 1273.47 Q1605.97 1271.41 1605.97 1268.45 Q1605.97 1264.3 1608.91 1261.9 Q1611.87 1259.49 1617.01 1259.49 Q1622.17 1259.49 1625.11 1261.9 Q1628.05 1264.3 1628.05 1268.45 Q1628.05 1271.41 1626.36 1273.47 Q1624.7 1275.53 1621.71 1276.27 Q1625.09 1277.06 1626.97 1279.35 Q1628.86 1281.64 1628.86 1284.95 Q1628.86 1289.98 1625.78 1292.66 Q1622.73 1295.35 1617.01 1295.35 Q1611.29 1295.35 1608.22 1292.66 Q1605.16 1289.98 1605.16 1284.95 Q1605.16 1281.64 1607.06 1279.35 Q1608.96 1277.06 1612.34 1276.27 M1610.62 1268.89 Q1610.62 1271.57 1612.29 1273.08 Q1613.98 1274.58 1617.01 1274.58 Q1620.02 1274.58 1621.71 1273.08 Q1623.42 1271.57 1623.42 1268.89 Q1623.42 1266.2 1621.71 1264.7 Q1620.02 1263.19 1617.01 1263.19 Q1613.98 1263.19 1612.29 1264.7 Q1610.62 1266.2 1610.62 1268.89 Z" fill="#000000" fill-rule="nonzero" fill-opacity="1" /><path clip-path="url(#clip550)" d="M1986.19 1290.74 L1993.83 1290.74 L1993.83 1264.37 L1985.52 1266.04 L1985.52 1261.78 L1993.78 1260.11 L1998.46 1260.11 L1998.46 1290.74 L2006.09 1290.74 L2006.09 1294.67 L1986.19 1294.67 L1986.19 1290.74 Z" fill="#000000" fill-rule="nonzero" fill-opacity="1" /><path clip-path="url(#clip550)" d="M2025.54 1263.19 Q2021.93 1263.19 2020.1 1266.76 Q2018.29 1270.3 2018.29 1277.43 Q2018.29 1284.54 2020.1 1288.1 Q2021.93 1291.64 2025.54 1291.64 Q2029.17 1291.64 2030.98 1288.1 Q2032.81 1284.54 2032.81 1277.43 Q2032.81 1270.3 2030.98 1266.76 Q2029.17 1263.19 2025.54 1263.19 M2025.54 1259.49 Q2031.35 1259.49 2034.4 1264.1 Q2037.48 1268.68 2037.48 1277.43 Q2037.48 1286.16 2034.4 1290.76 Q2031.35 1295.35 2025.54 1295.35 Q2019.73 1295.35 2016.65 1290.76 Q2013.59 1286.16 2013.59 1277.43 Q2013.59 1268.68 2016.65 1264.1 Q2019.73 1259.49 2025.54 1259.49 Z" fill="#000000" fill-rule="nonzero" fill-opacity="1" /><polyline clip-path="url(#clip552)" style="stroke:#000000; stroke-linecap:round; stroke-linejoin:round; stroke-width:2; stroke-opacity:0.1; fill:none" points="183.047,1200.97 2064.76,1200.97 "/>
<polyline clip-path="url(#clip552)" style="stroke:#000000; stroke-linecap:round; stroke-linejoin:round; stroke-width:2; stroke-opacity:0.1; fill:none" points="183.047,920.943 2064.76,920.943 "/>
<polyline clip-path="url(#clip552)" style="stroke:#000000; stroke-linecap:round; stroke-linejoin:round; stroke-width:2; stroke-opacity:0.1; fill:none" points="183.047,640.911 2064.76,640.911 "/>
<polyline clip-path="url(#clip552)" style="stroke:#000000; stroke-linecap:round; stroke-linejoin:round; stroke-width:2; stroke-opacity:0.1; fill:none" points="183.047,360.88 2064.76,360.88 "/>
<polyline clip-path="url(#clip552)" style="stroke:#000000; stroke-linecap:round; stroke-linejoin:round; stroke-width:2; stroke-opacity:0.1; fill:none" points="183.047,80.8479 2064.76,80.8479 "/>
<polyline clip-path="url(#clip550)" style="stroke:#000000; stroke-linecap:round; stroke-linejoin:round; stroke-width:4; stroke-opacity:1; fill:none" points="183.047,1234.58 183.047,47.2441 "/>
<polyline clip-path="url(#clip550)" style="stroke:#000000; stroke-linecap:round; stroke-linejoin:round; stroke-width:4; stroke-opacity:1; fill:none" points="183.047,1200.97 201.944,1200.97 "/>
<polyline clip-path="url(#clip550)" style="stroke:#000000; stroke-linecap:round; stroke-linejoin:round; stroke-width:4; stroke-opacity:1; fill:none" points="183.047,920.943 201.944,920.943 "/>
<polyline clip-path="url(#clip550)" style="stroke:#000000; stroke-linecap:round; stroke-linejoin:round; stroke-width:4; stroke-opacity:1; fill:none" points="183.047,640.911 201.944,640.911 "/>
<polyline clip-path="url(#clip550)" style="stroke:#000000; stroke-linecap:round; stroke-linejoin:round; stroke-width:4; stroke-opacity:1; fill:none" points="183.047,360.88 201.944,360.88 "/>
<polyline clip-path="url(#clip550)" style="stroke:#000000; stroke-linecap:round; stroke-linejoin:round; stroke-width:4; stroke-opacity:1; fill:none" points="183.047,80.8479 201.944,80.8479 "/>
<path clip-path="url(#clip550)" d="M54.8395 1214.32 L62.4784 1214.32 L62.4784 1187.95 L54.1682 1189.62 L54.1682 1185.36 L62.4321 1183.69 L67.108 1183.69 L67.108 1214.32 L74.7468 1214.32 L74.7468 1218.25 L54.8395 1218.25 L54.8395 1214.32 Z" fill="#000000" fill-rule="nonzero" fill-opacity="1" /><path clip-path="url(#clip550)" d="M84.1912 1212.38 L89.0754 1212.38 L89.0754 1218.25 L84.1912 1218.25 L84.1912 1212.38 Z" fill="#000000" fill-rule="nonzero" fill-opacity="1" /><path clip-path="url(#clip550)" d="M109.261 1186.77 Q105.649 1186.77 103.821 1190.34 Q102.015 1193.88 102.015 1201.01 Q102.015 1208.12 103.821 1211.68 Q105.649 1215.22 109.261 1215.22 Q112.895 1215.22 114.7 1211.68 Q116.529 1208.12 116.529 1201.01 Q116.529 1193.88 114.7 1190.34 Q112.895 1186.77 109.261 1186.77 M109.261 1183.07 Q115.071 1183.07 118.126 1187.68 Q121.205 1192.26 121.205 1201.01 Q121.205 1209.74 118.126 1214.34 Q115.071 1218.93 109.261 1218.93 Q103.45 1218.93 100.372 1214.34 Q97.3161 1209.74 97.3161 1201.01 Q97.3161 1192.26 100.372 1187.68 Q103.45 1183.07 109.261 1183.07 Z" fill="#000000" fill-rule="nonzero" fill-opacity="1" /><path clip-path="url(#clip550)" d="M139.422 1186.77 Q135.811 1186.77 133.983 1190.34 Q132.177 1193.88 132.177 1201.01 Q132.177 1208.12 133.983 1211.68 Q135.811 1215.22 139.422 1215.22 Q143.057 1215.22 144.862 1211.68 Q146.691 1208.12 146.691 1201.01 Q146.691 1193.88 144.862 1190.34 Q143.057 1186.77 139.422 1186.77 M139.422 1183.07 Q145.233 1183.07 148.288 1187.68 Q151.367 1192.26 151.367 1201.01 Q151.367 1209.74 148.288 1214.34 Q145.233 1218.93 139.422 1218.93 Q133.612 1218.93 130.534 1214.34 Q127.478 1209.74 127.478 1201.01 Q127.478 1192.26 130.534 1187.68 Q133.612 1183.07 139.422 1183.07 Z" fill="#000000" fill-rule="nonzero" fill-opacity="1" /><path clip-path="url(#clip550)" d="M55.8349 934.288 L63.4737 934.288 L63.4737 907.922 L55.1636 909.589 L55.1636 905.33 L63.4274 903.663 L68.1033 903.663 L68.1033 934.288 L75.7422 934.288 L75.7422 938.223 L55.8349 938.223 L55.8349 934.288 Z" fill="#000000" fill-rule="nonzero" fill-opacity="1" /><path clip-path="url(#clip550)" d="M85.1866 932.344 L90.0708 932.344 L90.0708 938.223 L85.1866 938.223 L85.1866 932.344 Z" fill="#000000" fill-rule="nonzero" fill-opacity="1" /><path clip-path="url(#clip550)" d="M104.284 934.288 L120.603 934.288 L120.603 938.223 L98.6587 938.223 L98.6587 934.288 Q101.321 931.533 105.904 926.904 Q110.511 922.251 111.691 920.908 Q113.936 918.385 114.816 916.649 Q115.719 914.89 115.719 913.2 Q115.719 910.446 113.774 908.709 Q111.853 906.973 108.751 906.973 Q106.552 906.973 104.099 907.737 Q101.668 908.501 98.8902 910.052 L98.8902 905.33 Q101.714 904.196 104.168 903.617 Q106.622 903.038 108.659 903.038 Q114.029 903.038 117.223 905.723 Q120.418 908.409 120.418 912.899 Q120.418 915.029 119.608 916.95 Q118.821 918.848 116.714 921.441 Q116.135 922.112 113.034 925.33 Q109.932 928.524 104.284 934.288 Z" fill="#000000" fill-rule="nonzero" fill-opacity="1" /><path clip-path="url(#clip550)" d="M130.464 903.663 L148.82 903.663 L148.82 907.598 L134.746 907.598 L134.746 916.071 Q135.765 915.723 136.784 915.561 Q137.802 915.376 138.821 915.376 Q144.608 915.376 147.987 918.547 Q151.367 921.719 151.367 927.135 Q151.367 932.714 147.895 935.816 Q144.422 938.894 138.103 938.894 Q135.927 938.894 133.659 938.524 Q131.413 938.154 129.006 937.413 L129.006 932.714 Q131.089 933.848 133.311 934.404 Q135.534 934.959 138.01 934.959 Q142.015 934.959 144.353 932.853 Q146.691 930.746 146.691 927.135 Q146.691 923.524 144.353 921.418 Q142.015 919.311 138.01 919.311 Q136.135 919.311 134.26 919.728 Q132.409 920.145 130.464 921.024 L130.464 903.663 Z" fill="#000000" fill-rule="nonzero" fill-opacity="1" /><path clip-path="url(#clip550)" d="M54.8395 654.256 L62.4784 654.256 L62.4784 627.891 L54.1682 629.557 L54.1682 625.298 L62.4321 623.631 L67.108 623.631 L67.108 654.256 L74.7468 654.256 L74.7468 658.191 L54.8395 658.191 L54.8395 654.256 Z" fill="#000000" fill-rule="nonzero" fill-opacity="1" /><path clip-path="url(#clip550)" d="M84.1912 652.312 L89.0754 652.312 L89.0754 658.191 L84.1912 658.191 L84.1912 652.312 Z" fill="#000000" fill-rule="nonzero" fill-opacity="1" /><path clip-path="url(#clip550)" d="M99.3069 623.631 L117.663 623.631 L117.663 627.567 L103.589 627.567 L103.589 636.039 Q104.608 635.692 105.626 635.53 Q106.645 635.344 107.663 635.344 Q113.45 635.344 116.83 638.516 Q120.21 641.687 120.21 647.104 Q120.21 652.682 116.737 655.784 Q113.265 658.863 106.946 658.863 Q104.77 658.863 102.501 658.492 Q100.256 658.122 97.8485 657.381 L97.8485 652.682 Q99.9319 653.816 102.154 654.372 Q104.376 654.928 106.853 654.928 Q110.858 654.928 113.196 652.821 Q115.534 650.715 115.534 647.104 Q115.534 643.492 113.196 641.386 Q110.858 639.28 106.853 639.28 Q104.978 639.28 103.103 639.696 Q101.251 640.113 99.3069 640.992 L99.3069 623.631 Z" fill="#000000" fill-rule="nonzero" fill-opacity="1" /><path clip-path="url(#clip550)" d="M139.422 626.71 Q135.811 626.71 133.983 630.275 Q132.177 633.817 132.177 640.946 Q132.177 648.053 133.983 651.617 Q135.811 655.159 139.422 655.159 Q143.057 655.159 144.862 651.617 Q146.691 648.053 146.691 640.946 Q146.691 633.817 144.862 630.275 Q143.057 626.71 139.422 626.71 M139.422 623.006 Q145.233 623.006 148.288 627.613 Q151.367 632.196 151.367 640.946 Q151.367 649.673 148.288 654.279 Q145.233 658.863 139.422 658.863 Q133.612 658.863 130.534 654.279 Q127.478 649.673 127.478 640.946 Q127.478 632.196 130.534 627.613 Q133.612 623.006 139.422 623.006 Z" fill="#000000" fill-rule="nonzero" fill-opacity="1" /><path clip-path="url(#clip550)" d="M55.8349 374.225 L63.4737 374.225 L63.4737 347.859 L55.1636 349.526 L55.1636 345.266 L63.4274 343.6 L68.1033 343.6 L68.1033 374.225 L75.7422 374.225 L75.7422 378.16 L55.8349 378.16 L55.8349 374.225 Z" fill="#000000" fill-rule="nonzero" fill-opacity="1" /><path clip-path="url(#clip550)" d="M85.1866 372.28 L90.0708 372.28 L90.0708 378.16 L85.1866 378.16 L85.1866 372.28 Z" fill="#000000" fill-rule="nonzero" fill-opacity="1" /><path clip-path="url(#clip550)" d="M99.0754 343.6 L121.297 343.6 L121.297 345.59 L108.751 378.16 L103.867 378.16 L115.673 347.535 L99.0754 347.535 L99.0754 343.6 Z" fill="#000000" fill-rule="nonzero" fill-opacity="1" /><path clip-path="url(#clip550)" d="M130.464 343.6 L148.82 343.6 L148.82 347.535 L134.746 347.535 L134.746 356.007 Q135.765 355.66 136.784 355.498 Q137.802 355.313 138.821 355.313 Q144.608 355.313 147.987 358.484 Q151.367 361.655 151.367 367.072 Q151.367 372.65 147.895 375.752 Q144.422 378.831 138.103 378.831 Q135.927 378.831 133.659 378.461 Q131.413 378.09 129.006 377.349 L129.006 372.65 Q131.089 373.785 133.311 374.34 Q135.534 374.896 138.01 374.896 Q142.015 374.896 144.353 372.789 Q146.691 370.683 146.691 367.072 Q146.691 363.461 144.353 361.354 Q142.015 359.248 138.01 359.248 Q136.135 359.248 134.26 359.664 Q132.409 360.081 130.464 360.961 L130.464 343.6 Z" fill="#000000" fill-rule="nonzero" fill-opacity="1" /><path clip-path="url(#clip550)" d="M58.0571 94.1927 L74.3765 94.1927 L74.3765 98.1279 L52.4321 98.1279 L52.4321 94.1927 Q55.0941 91.4381 59.6775 86.8085 Q64.2839 82.1558 65.4645 80.8132 Q67.7098 78.29 68.5894 76.5539 Q69.4922 74.7947 69.4922 73.1049 Q69.4922 70.3503 67.5478 68.6142 Q65.6265 66.8781 62.5247 66.8781 Q60.3256 66.8781 57.8719 67.642 Q55.4414 68.4058 52.6636 69.9568 L52.6636 65.2346 Q55.4877 64.1003 57.9414 63.5216 Q60.395 62.9429 62.4321 62.9429 Q67.8024 62.9429 70.9968 65.6281 Q74.1913 68.3133 74.1913 72.804 Q74.1913 74.9336 73.3811 76.8549 Q72.5941 78.753 70.4876 81.3456 Q69.9089 82.0169 66.807 85.2345 Q63.7052 88.4289 58.0571 94.1927 Z" fill="#000000" fill-rule="nonzero" fill-opacity="1" /><path clip-path="url(#clip550)" d="M84.1912 92.2483 L89.0754 92.2483 L89.0754 98.1279 L84.1912 98.1279 L84.1912 92.2483 Z" fill="#000000" fill-rule="nonzero" fill-opacity="1" /><path clip-path="url(#clip550)" d="M109.261 66.6466 Q105.649 66.6466 103.821 70.2114 Q102.015 73.753 102.015 80.8826 Q102.015 87.9891 103.821 91.5539 Q105.649 95.0955 109.261 95.0955 Q112.895 95.0955 114.7 91.5539 Q116.529 87.9891 116.529 80.8826 Q116.529 73.753 114.7 70.2114 Q112.895 66.6466 109.261 66.6466 M109.261 62.9429 Q115.071 62.9429 118.126 67.5494 Q121.205 72.1327 121.205 80.8826 Q121.205 89.6094 118.126 94.2159 Q115.071 98.7992 109.261 98.7992 Q103.45 98.7992 100.372 94.2159 Q97.3161 89.6094 97.3161 80.8826 Q97.3161 72.1327 100.372 67.5494 Q103.45 62.9429 109.261 62.9429 Z" fill="#000000" fill-rule="nonzero" fill-opacity="1" /><path clip-path="url(#clip550)" d="M139.422 66.6466 Q135.811 66.6466 133.983 70.2114 Q132.177 73.753 132.177 80.8826 Q132.177 87.9891 133.983 91.5539 Q135.811 95.0955 139.422 95.0955 Q143.057 95.0955 144.862 91.5539 Q146.691 87.9891 146.691 80.8826 Q146.691 73.753 144.862 70.2114 Q143.057 66.6466 139.422 66.6466 M139.422 62.9429 Q145.233 62.9429 148.288 67.5494 Q151.367 72.1327 151.367 80.8826 Q151.367 89.6094 148.288 94.2159 Q145.233 98.7992 139.422 98.7992 Q133.612 98.7992 130.534 94.2159 Q127.478 89.6094 127.478 80.8826 Q127.478 72.1327 130.534 67.5494 Q133.612 62.9429 139.422 62.9429 Z" fill="#000000" fill-rule="nonzero" fill-opacity="1" /><circle clip-path="url(#clip552)" cx="236.303" cy="1200.97" r="14.4" fill="#009af9" fill-rule="evenodd" fill-opacity="1" stroke="#000000" stroke-opacity="1" stroke-width="2.688"/>
<circle clip-path="url(#clip552)" cx="630.791" cy="640.911" r="14.4" fill="#009af9" fill-rule="evenodd" fill-opacity="1" stroke="#000000" stroke-opacity="1" stroke-width="2.688"/>
<circle clip-path="url(#clip552)" cx="1025.28" cy="528.899" r="14.4" fill="#009af9" fill-rule="evenodd" fill-opacity="1" stroke="#000000" stroke-opacity="1" stroke-width="2.688"/>
<circle clip-path="url(#clip552)" cx="1419.77" cy="511.666" r="14.4" fill="#009af9" fill-rule="evenodd" fill-opacity="1" stroke="#000000" stroke-opacity="1" stroke-width="2.688"/>
<circle clip-path="url(#clip552)" cx="1814.26" cy="509.132" r="14.4" fill="#009af9" fill-rule="evenodd" fill-opacity="1" stroke="#000000" stroke-opacity="1" stroke-width="2.688"/>
<circle clip-path="url(#clip552)" cx="433.547" cy="80.8479" r="14.4" fill="#e26f46" fill-rule="evenodd" fill-opacity="1" stroke="#000000" stroke-opacity="1" stroke-width="2.688"/>
<circle clip-path="url(#clip552)" cx="828.035" cy="454.224" r="14.4" fill="#e26f46" fill-rule="evenodd" fill-opacity="1" stroke="#000000" stroke-opacity="1" stroke-width="2.688"/>
<circle clip-path="url(#clip552)" cx="1222.52" cy="500.896" r="14.4" fill="#e26f46" fill-rule="evenodd" fill-opacity="1" stroke="#000000" stroke-opacity="1" stroke-width="2.688"/>
<circle clip-path="url(#clip552)" cx="1617.01" cy="507.563" r="14.4" fill="#e26f46" fill-rule="evenodd" fill-opacity="1" stroke="#000000" stroke-opacity="1" stroke-width="2.688"/>
<circle clip-path="url(#clip552)" cx="2011.5" cy="508.533" r="14.4" fill="#e26f46" fill-rule="evenodd" fill-opacity="1" stroke="#000000" stroke-opacity="1" stroke-width="2.688"/>
<path clip-path="url(#clip550)" d="M1682.82 242.342 L2002.03 242.342 L2002.03 86.8219 L1682.82 86.8219  Z" fill="#ffffff" fill-rule="evenodd" fill-opacity="1"/>
<polyline clip-path="url(#clip550)" style="stroke:#000000; stroke-linecap:round; stroke-linejoin:round; stroke-width:4; stroke-opacity:1; fill:none" points="1682.82,242.342 2002.03,242.342 2002.03,86.8219 1682.82,86.8219 1682.82,242.342 "/>
<circle clip-path="url(#clip550)" cx="1766.45" cy="138.662" r="20.48" fill="#009af9" fill-rule="evenodd" fill-opacity="1" stroke="#000000" stroke-opacity="1" stroke-width="3.82293"/>
<path clip-path="url(#clip550)" d="M1873.97 124.025 Q1873.97 125.336 1873.15 126.086 Q1872.33 126.812 1871.39 126.812 Q1870.5 126.812 1870.04 126.297 Q1869.57 125.781 1869.57 125.126 Q1869.57 124.236 1870.22 123.463 Q1870.88 122.69 1871.86 122.526 Q1870.9 121.917 1869.47 121.917 Q1868.54 121.917 1867.72 122.409 Q1866.92 122.901 1866.43 123.533 Q1865.96 124.165 1865.54 125.079 Q1865.14 125.969 1864.98 126.508 Q1864.84 127.023 1864.72 127.585 L1863.08 134.143 Q1862.28 137.258 1862.28 138.359 Q1862.28 139.718 1862.94 140.631 Q1863.59 141.521 1864.91 141.521 Q1865.42 141.521 1866.01 141.381 Q1866.59 141.217 1867.34 140.795 Q1868.12 140.35 1868.79 139.694 Q1869.5 139.015 1870.18 137.867 Q1870.86 136.72 1871.3 135.244 Q1871.44 134.729 1871.91 134.729 Q1872.5 134.729 1872.5 135.197 Q1872.5 135.595 1872.17 136.439 Q1871.86 137.258 1871.18 138.336 Q1870.53 139.39 1869.66 140.35 Q1868.79 141.287 1867.51 141.943 Q1866.22 142.599 1864.81 142.599 Q1862.8 142.599 1861.46 141.521 Q1860.13 140.444 1859.64 138.945 Q1859.52 139.156 1859.36 139.437 Q1859.19 139.718 1858.7 140.35 Q1858.23 140.959 1857.69 141.428 Q1857.15 141.873 1856.31 142.224 Q1855.49 142.599 1854.6 142.599 Q1853.48 142.599 1852.47 142.271 Q1851.49 141.943 1850.78 141.193 Q1850.08 140.444 1850.08 139.413 Q1850.08 138.266 1850.85 137.469 Q1851.65 136.65 1852.73 136.65 Q1853.41 136.65 1853.94 137.048 Q1854.51 137.446 1854.51 138.313 Q1854.51 139.273 1853.85 139.999 Q1853.2 140.725 1852.26 140.912 Q1853.22 141.521 1854.65 141.521 Q1856.19 141.521 1857.41 140.163 Q1858.63 138.804 1859.21 136.532 Q1860.67 131.075 1861.23 128.639 Q1861.79 126.18 1861.79 125.126 Q1861.79 124.142 1861.53 123.463 Q1861.28 122.783 1860.83 122.479 Q1860.41 122.151 1860.01 122.034 Q1859.64 121.917 1859.21 121.917 Q1858.51 121.917 1857.72 122.198 Q1856.94 122.479 1856.01 123.135 Q1855.09 123.767 1854.23 125.079 Q1853.36 126.39 1852.77 128.194 Q1852.66 128.733 1852.14 128.733 Q1851.58 128.709 1851.58 128.241 Q1851.58 127.843 1851.88 127.023 Q1852.21 126.18 1852.87 125.126 Q1853.55 124.072 1854.41 123.135 Q1855.3 122.174 1856.59 121.519 Q1857.9 120.863 1859.31 120.863 Q1859.94 120.863 1860.55 121.003 Q1861.18 121.12 1861.93 121.472 Q1862.7 121.823 1863.38 122.596 Q1864.06 123.369 1864.48 124.493 Q1864.77 123.955 1865.14 123.439 Q1865.54 122.924 1866.15 122.292 Q1866.78 121.636 1867.65 121.261 Q1868.54 120.863 1869.52 120.863 Q1870.48 120.863 1871.42 121.12 Q1872.35 121.355 1873.15 122.128 Q1873.97 122.877 1873.97 124.025 Z" fill="#000000" fill-rule="nonzero" fill-opacity="1" /><path clip-path="url(#clip550)" d="M1878.85 155.885 Q1878.85 155.278 1878.9 155.098 Q1878.96 154.917 1879.23 154.639 L1885.67 147.457 Q1889.2 143.489 1889.2 140.03 Q1889.2 137.784 1888.02 136.177 Q1886.85 134.57 1884.7 134.57 Q1883.23 134.57 1881.98 135.472 Q1880.74 136.374 1880.16 137.981 Q1880.26 137.948 1880.6 137.948 Q1881.44 137.948 1881.9 138.472 Q1882.38 138.997 1882.38 139.702 Q1882.38 140.604 1881.78 141.046 Q1881.21 141.473 1880.64 141.473 Q1880.41 141.473 1880.1 141.424 Q1879.8 141.374 1879.33 140.915 Q1878.85 140.44 1878.85 139.604 Q1878.85 137.259 1880.62 135.39 Q1882.41 133.521 1885.13 133.521 Q1888.21 133.521 1890.23 135.357 Q1892.26 137.177 1892.26 140.03 Q1892.26 141.03 1891.95 141.948 Q1891.66 142.85 1891.25 143.555 Q1890.85 144.26 1889.77 145.391 Q1888.69 146.523 1887.82 147.326 Q1886.95 148.129 1885 149.835 L1881.44 153.294 L1887.49 153.294 Q1890.44 153.294 1890.67 153.032 Q1891 152.556 1891.41 150.048 L1892.26 150.048 L1891.31 155.885 L1878.85 155.885 Z" fill="#000000" fill-rule="nonzero" fill-opacity="1" /><path clip-path="url(#clip550)" d="M1913.14 151.081 Q1913.14 151.212 1912.99 151.72 Q1912.84 152.228 1912.48 153.015 Q1912.14 153.802 1911.66 154.524 Q1911.19 155.229 1910.4 155.753 Q1909.63 156.262 1908.74 156.262 Q1907.56 156.262 1906.78 155.475 Q1905.99 154.688 1905.99 153.507 Q1905.99 152.851 1906.33 151.95 Q1908.52 146.129 1908.52 144.129 Q1908.52 141.784 1906.7 141.784 Q1905.79 141.784 1904.94 142.129 Q1904.1 142.457 1903.53 142.916 Q1902.96 143.375 1902.43 144.014 Q1901.92 144.637 1901.66 145.063 Q1901.42 145.473 1901.22 145.883 L1900.79 147.556 Q1900.69 148.015 1900.22 149.802 L1899.48 152.835 Q1898.96 155.098 1898.84 155.311 Q1898.68 155.77 1898.32 156.016 Q1897.96 156.262 1897.6 156.262 Q1897.19 156.262 1896.91 156.016 Q1896.63 155.77 1896.63 155.344 Q1896.63 155.278 1896.68 155.032 Q1896.73 154.786 1896.81 154.442 Q1896.89 154.097 1896.92 153.901 L1898.87 146.146 Q1899.24 144.736 1899.32 144.293 Q1899.42 143.834 1899.42 143.326 Q1899.42 141.784 1898.37 141.784 Q1897.51 141.784 1896.96 142.801 Q1896.4 143.817 1895.92 145.785 Q1895.78 146.326 1895.68 146.441 Q1895.6 146.555 1895.35 146.555 Q1894.94 146.539 1894.94 146.211 Q1894.94 146.129 1895.07 145.588 Q1895.2 145.047 1895.45 144.276 Q1895.71 143.489 1895.96 142.965 Q1896.17 142.571 1896.28 142.391 Q1896.42 142.194 1896.73 141.817 Q1897.05 141.424 1897.48 141.243 Q1897.92 141.046 1898.46 141.046 Q1899.68 141.046 1900.56 141.833 Q1901.45 142.604 1901.56 143.965 Q1903.74 141.046 1906.79 141.046 Q1908.6 141.046 1909.63 141.997 Q1910.66 142.948 1910.66 144.637 Q1910.66 145.031 1910.58 145.539 Q1910.52 146.031 1910.35 146.654 Q1910.2 147.277 1910.07 147.752 Q1909.94 148.228 1909.68 148.998 Q1909.42 149.753 1909.3 150.081 Q1909.19 150.408 1908.91 151.179 Q1908.65 151.933 1908.61 152.015 Q1908.01 153.54 1908.01 154.409 Q1908.01 154.983 1908.19 155.245 Q1908.38 155.508 1908.81 155.508 Q1909.96 155.508 1910.81 154.376 Q1911.68 153.229 1912.24 151.359 Q1912.37 150.95 1912.43 150.851 Q1912.52 150.753 1912.75 150.753 Q1913.14 150.753 1913.14 151.081 Z" fill="#000000" fill-rule="nonzero" fill-opacity="1" /><path clip-path="url(#clip550)" d="M1946.36 147.015 Q1946.56 147.211 1946.56 147.49 Q1946.56 147.769 1946.36 147.965 Q1946.17 148.162 1945.89 148.162 L1924.87 148.162 Q1924.59 148.162 1924.39 147.965 Q1924.2 147.769 1924.2 147.49 Q1924.2 147.211 1924.39 147.015 Q1924.59 146.818 1924.87 146.818 L1945.89 146.818 Q1946.17 146.818 1946.36 147.015 Z" fill="#000000" fill-rule="nonzero" fill-opacity="1" /><path clip-path="url(#clip550)" d="M1959.38 136.718 L1959.38 135.669 Q1963.41 135.669 1965.49 133.521 Q1966.07 133.521 1966.17 133.652 Q1966.26 133.783 1966.26 134.39 L1966.26 153.229 Q1966.26 154.229 1966.76 154.54 Q1967.25 154.852 1969.39 154.852 L1970.46 154.852 L1970.46 155.885 Q1969.28 155.786 1965.02 155.786 Q1960.75 155.786 1959.59 155.885 L1959.59 154.852 L1960.66 154.852 Q1962.77 154.852 1963.28 154.557 Q1963.79 154.245 1963.79 153.229 L1963.79 135.833 Q1962.03 136.718 1959.38 136.718 Z" fill="#000000" fill-rule="nonzero" fill-opacity="1" /><circle clip-path="url(#clip550)" cx="1766.45" cy="190.502" r="20.48" fill="#e26f46" fill-rule="evenodd" fill-opacity="1" stroke="#000000" stroke-opacity="1" stroke-width="3.82293"/>
<path clip-path="url(#clip550)" d="M1873.97 175.865 Q1873.97 177.176 1873.15 177.926 Q1872.33 178.652 1871.39 178.652 Q1870.5 178.652 1870.04 178.137 Q1869.57 177.621 1869.57 176.966 Q1869.57 176.076 1870.22 175.303 Q1870.88 174.53 1871.86 174.366 Q1870.9 173.757 1869.47 173.757 Q1868.54 173.757 1867.72 174.249 Q1866.92 174.741 1866.43 175.373 Q1865.96 176.005 1865.54 176.919 Q1865.14 177.809 1864.98 178.348 Q1864.84 178.863 1864.72 179.425 L1863.08 185.983 Q1862.28 189.098 1862.28 190.199 Q1862.28 191.558 1862.94 192.471 Q1863.59 193.361 1864.91 193.361 Q1865.42 193.361 1866.01 193.221 Q1866.59 193.057 1867.34 192.635 Q1868.12 192.19 1868.79 191.534 Q1869.5 190.855 1870.18 189.707 Q1870.86 188.56 1871.3 187.084 Q1871.44 186.569 1871.91 186.569 Q1872.5 186.569 1872.5 187.037 Q1872.5 187.435 1872.17 188.279 Q1871.86 189.098 1871.18 190.176 Q1870.53 191.23 1869.66 192.19 Q1868.79 193.127 1867.51 193.783 Q1866.22 194.439 1864.81 194.439 Q1862.8 194.439 1861.46 193.361 Q1860.13 192.284 1859.64 190.785 Q1859.52 190.996 1859.36 191.277 Q1859.19 191.558 1858.7 192.19 Q1858.23 192.799 1857.69 193.268 Q1857.15 193.713 1856.31 194.064 Q1855.49 194.439 1854.6 194.439 Q1853.48 194.439 1852.47 194.111 Q1851.49 193.783 1850.78 193.033 Q1850.08 192.284 1850.08 191.253 Q1850.08 190.106 1850.85 189.309 Q1851.65 188.49 1852.73 188.49 Q1853.41 188.49 1853.94 188.888 Q1854.51 189.286 1854.51 190.153 Q1854.51 191.113 1853.85 191.839 Q1853.2 192.565 1852.26 192.752 Q1853.22 193.361 1854.65 193.361 Q1856.19 193.361 1857.41 192.003 Q1858.63 190.644 1859.21 188.372 Q1860.67 182.915 1861.23 180.479 Q1861.79 178.02 1861.79 176.966 Q1861.79 175.982 1861.53 175.303 Q1861.28 174.623 1860.83 174.319 Q1860.41 173.991 1860.01 173.874 Q1859.64 173.757 1859.21 173.757 Q1858.51 173.757 1857.72 174.038 Q1856.94 174.319 1856.01 174.975 Q1855.09 175.607 1854.23 176.919 Q1853.36 178.23 1852.77 180.034 Q1852.66 180.573 1852.14 180.573 Q1851.58 180.549 1851.58 180.081 Q1851.58 179.683 1851.88 178.863 Q1852.21 178.02 1852.87 176.966 Q1853.55 175.912 1854.41 174.975 Q1855.3 174.014 1856.59 173.359 Q1857.9 172.703 1859.31 172.703 Q1859.94 172.703 1860.55 172.843 Q1861.18 172.96 1861.93 173.312 Q1862.7 173.663 1863.38 174.436 Q1864.06 175.209 1864.48 176.333 Q1864.77 175.795 1865.14 175.279 Q1865.54 174.764 1866.15 174.132 Q1866.78 173.476 1867.65 173.101 Q1868.54 172.703 1869.52 172.703 Q1870.48 172.703 1871.42 172.96 Q1872.35 173.195 1873.15 173.968 Q1873.97 174.717 1873.97 175.865 Z" fill="#000000" fill-rule="nonzero" fill-opacity="1" /><path clip-path="url(#clip550)" d="M1878.85 207.725 Q1878.85 207.118 1878.9 206.938 Q1878.96 206.757 1879.23 206.479 L1885.67 199.297 Q1889.2 195.329 1889.2 191.87 Q1889.2 189.624 1888.02 188.017 Q1886.85 186.41 1884.7 186.41 Q1883.23 186.41 1881.98 187.312 Q1880.74 188.214 1880.16 189.821 Q1880.26 189.788 1880.6 189.788 Q1881.44 189.788 1881.9 190.312 Q1882.38 190.837 1882.38 191.542 Q1882.38 192.444 1881.78 192.886 Q1881.21 193.313 1880.64 193.313 Q1880.41 193.313 1880.1 193.264 Q1879.8 193.214 1879.33 192.755 Q1878.85 192.28 1878.85 191.444 Q1878.85 189.099 1880.62 187.23 Q1882.41 185.361 1885.13 185.361 Q1888.21 185.361 1890.23 187.197 Q1892.26 189.017 1892.26 191.87 Q1892.26 192.87 1891.95 193.788 Q1891.66 194.69 1891.25 195.395 Q1890.85 196.1 1889.77 197.231 Q1888.69 198.363 1887.82 199.166 Q1886.95 199.969 1885 201.675 L1881.44 205.134 L1887.49 205.134 Q1890.44 205.134 1890.67 204.872 Q1891 204.396 1891.41 201.888 L1892.26 201.888 L1891.31 207.725 L1878.85 207.725 Z" fill="#000000" fill-rule="nonzero" fill-opacity="1" /><path clip-path="url(#clip550)" d="M1913.14 202.921 Q1913.14 203.052 1912.99 203.56 Q1912.84 204.068 1912.48 204.855 Q1912.14 205.642 1911.66 206.364 Q1911.19 207.069 1910.4 207.593 Q1909.63 208.102 1908.74 208.102 Q1907.56 208.102 1906.78 207.315 Q1905.99 206.528 1905.99 205.347 Q1905.99 204.691 1906.33 203.79 Q1908.52 197.969 1908.52 195.969 Q1908.52 193.624 1906.7 193.624 Q1905.79 193.624 1904.94 193.969 Q1904.1 194.297 1903.53 194.756 Q1902.96 195.215 1902.43 195.854 Q1901.92 196.477 1901.66 196.903 Q1901.42 197.313 1901.22 197.723 L1900.79 199.396 Q1900.69 199.855 1900.22 201.642 L1899.48 204.675 Q1898.96 206.938 1898.84 207.151 Q1898.68 207.61 1898.32 207.856 Q1897.96 208.102 1897.6 208.102 Q1897.19 208.102 1896.91 207.856 Q1896.63 207.61 1896.63 207.184 Q1896.63 207.118 1896.68 206.872 Q1896.73 206.626 1896.81 206.282 Q1896.89 205.937 1896.92 205.741 L1898.87 197.986 Q1899.24 196.576 1899.32 196.133 Q1899.42 195.674 1899.42 195.166 Q1899.42 193.624 1898.37 193.624 Q1897.51 193.624 1896.96 194.641 Q1896.4 195.657 1895.92 197.625 Q1895.78 198.166 1895.68 198.281 Q1895.6 198.395 1895.35 198.395 Q1894.94 198.379 1894.94 198.051 Q1894.94 197.969 1895.07 197.428 Q1895.2 196.887 1895.45 196.116 Q1895.71 195.329 1895.96 194.805 Q1896.17 194.411 1896.28 194.231 Q1896.42 194.034 1896.73 193.657 Q1897.05 193.264 1897.48 193.083 Q1897.92 192.886 1898.46 192.886 Q1899.68 192.886 1900.56 193.673 Q1901.45 194.444 1901.56 195.805 Q1903.74 192.886 1906.79 192.886 Q1908.6 192.886 1909.63 193.837 Q1910.66 194.788 1910.66 196.477 Q1910.66 196.871 1910.58 197.379 Q1910.52 197.871 1910.35 198.494 Q1910.2 199.117 1910.07 199.592 Q1909.94 200.068 1909.68 200.838 Q1909.42 201.593 1909.3 201.921 Q1909.19 202.248 1908.91 203.019 Q1908.65 203.773 1908.61 203.855 Q1908.01 205.38 1908.01 206.249 Q1908.01 206.823 1908.19 207.085 Q1908.38 207.348 1908.81 207.348 Q1909.96 207.348 1910.81 206.216 Q1911.68 205.069 1912.24 203.199 Q1912.37 202.79 1912.43 202.691 Q1912.52 202.593 1912.75 202.593 Q1913.14 202.593 1913.14 202.921 Z" fill="#000000" fill-rule="nonzero" fill-opacity="1" /></svg>
