<?xml version="1.0" encoding="utf-8"?>
<svg xmlns="http://www.w3.org/2000/svg" xmlns:xlink="http://www.w3.org/1999/xlink" width="528" height="336" viewBox="0 0 2112 1344">
<defs>
  <clipPath id="clip940">
    <rect x="0" y="0" width="2112" height="1344"/>
  </clipPath>
</defs>
<path clip-path="url(#clip940)" d="M0 1344 L2112 1344 L2112 0 L0 0  Z" fill="#ffffff" fill-rule="evenodd" fill-opacity="1"/>
<defs>
  <clipPath id="clip941">
    <rect x="422" y="0" width="1479" height="1344"/>
  </clipPath>
</defs>
<path clip-path="url(#clip940)" d="M191.218 1234.58 L2064.76 1234.58 L2064.76 47.2441 L191.218 47.2441  Z" fill="#ffffff" fill-rule="evenodd" fill-opacity="1"/>
<defs>
  <clipPath id="clip942">
    <rect x="191" y="47" width="1875" height="1188"/>
  </clipPath>
</defs>
<polyline clip-path="url(#clip942)" style="stroke:#000000; stroke-linecap:round; stroke-linejoin:round; stroke-width:2; stroke-opacity:0.1; fill:none" points="208.171,1234.58 208.171,47.2441 "/>
<polyline clip-path="url(#clip942)" style="stroke:#000000; stroke-linecap:round; stroke-linejoin:round; stroke-width:2; stroke-opacity:0.1; fill:none" points="568.883,1234.58 568.883,47.2441 "/>
<polyline clip-path="url(#clip942)" style="stroke:#000000; stroke-linecap:round; stroke-linejoin:round; stroke-width:2; stroke-opacity:0.1; fill:none" points="929.595,1234.58 929.595,47.2441 "/>
<polyline clip-path="url(#clip942)" style="stroke:#000000; stroke-linecap:round; stroke-linejoin:round; stroke-width:2; stroke-opacity:0.1; fill:none" points="1290.31,1234.58 1290.31,47.2441 "/>
<polyline clip-path="url(#clip942)" style="stroke:#000000; stroke-linecap:round; stroke-linejoin:round; stroke-width:2; stroke-opacity:0.1; fill:none" points="1651.02,1234.58 1651.02,47.2441 "/>
<polyline clip-path="url(#clip942)" style="stroke:#000000; stroke-linecap:round; stroke-linejoin:round; stroke-width:2; stroke-opacity:0.1; fill:none" points="2011.73,1234.58 2011.73,47.2441 "/>
<polyline clip-path="url(#clip940)" style="stroke:#000000; stroke-linecap:round; stroke-linejoin:round; stroke-width:4; stroke-opacity:1; fill:none" points="191.218,1234.58 2064.76,1234.58 "/>
<polyline clip-path="url(#clip940)" style="stroke:#000000; stroke-linecap:round; stroke-linejoin:round; stroke-width:4; stroke-opacity:1; fill:none" points="208.171,1234.58 208.171,1215.68 "/>
<polyline clip-path="url(#clip940)" style="stroke:#000000; stroke-linecap:round; stroke-linejoin:round; stroke-width:4; stroke-opacity:1; fill:none" points="568.883,1234.58 568.883,1215.68 "/>
<polyline clip-path="url(#clip940)" style="stroke:#000000; stroke-linecap:round; stroke-linejoin:round; stroke-width:4; stroke-opacity:1; fill:none" points="929.595,1234.58 929.595,1215.68 "/>
<polyline clip-path="url(#clip940)" style="stroke:#000000; stroke-linecap:round; stroke-linejoin:round; stroke-width:4; stroke-opacity:1; fill:none" points="1290.31,1234.58 1290.31,1215.68 "/>
<polyline clip-path="url(#clip940)" style="stroke:#000000; stroke-linecap:round; stroke-linejoin:round; stroke-width:4; stroke-opacity:1; fill:none" points="1651.02,1234.58 1651.02,1215.68 "/>
<polyline clip-path="url(#clip940)" style="stroke:#000000; stroke-linecap:round; stroke-linejoin:round; stroke-width:4; stroke-opacity:1; fill:none" points="2011.73,1234.58 2011.73,1215.68 "/>
<path clip-path="url(#clip940)" d="M208.171 1263.19 Q204.56 1263.19 202.732 1266.76 Q200.926 1270.3 200.926 1277.43 Q200.926 1284.54 202.732 1288.1 Q204.56 1291.64 208.171 1291.64 Q211.806 1291.64 213.611 1288.1 Q215.44 1284.54 215.44 1277.43 Q215.44 1270.3 213.611 1266.76 Q211.806 1263.19 208.171 1263.19 M208.171 1259.49 Q213.982 1259.49 217.037 1264.1 Q220.116 1268.68 220.116 1277.43 Q220.116 1286.16 217.037 1290.76 Q213.982 1295.35 208.171 1295.35 Q202.361 1295.35 199.283 1290.76 Q196.227 1286.16 196.227 1277.43 Q196.227 1268.68 199.283 1264.1 Q202.361 1259.49 208.171 1259.49 Z" fill="#000000" fill-rule="nonzero" fill-opacity="1" /><path clip-path="url(#clip940)" d="M543.571 1290.74 L551.21 1290.74 L551.21 1264.37 L542.9 1266.04 L542.9 1261.78 L551.164 1260.11 L555.84 1260.11 L555.84 1290.74 L563.478 1290.74 L563.478 1294.67 L543.571 1294.67 L543.571 1290.74 Z" fill="#000000" fill-rule="nonzero" fill-opacity="1" /><path clip-path="url(#clip940)" d="M582.923 1263.19 Q579.312 1263.19 577.483 1266.76 Q575.677 1270.3 575.677 1277.43 Q575.677 1284.54 577.483 1288.1 Q579.312 1291.64 582.923 1291.64 Q586.557 1291.64 588.363 1288.1 Q590.191 1284.54 590.191 1277.43 Q590.191 1270.3 588.363 1266.76 Q586.557 1263.19 582.923 1263.19 M582.923 1259.49 Q588.733 1259.49 591.788 1264.1 Q594.867 1268.68 594.867 1277.43 Q594.867 1286.16 591.788 1290.76 Q588.733 1295.35 582.923 1295.35 Q577.113 1295.35 574.034 1290.76 Q570.978 1286.16 570.978 1277.43 Q570.978 1268.68 574.034 1264.1 Q577.113 1259.49 582.923 1259.49 Z" fill="#000000" fill-rule="nonzero" fill-opacity="1" /><path clip-path="url(#clip940)" d="M908.369 1290.74 L924.688 1290.74 L924.688 1294.67 L902.744 1294.67 L902.744 1290.74 Q905.406 1287.99 909.989 1283.36 Q914.595 1278.7 915.776 1277.36 Q918.021 1274.84 918.901 1273.1 Q919.804 1271.34 919.804 1269.65 Q919.804 1266.9 917.859 1265.16 Q915.938 1263.42 912.836 1263.42 Q910.637 1263.42 908.183 1264.19 Q905.753 1264.95 902.975 1266.5 L902.975 1261.78 Q905.799 1260.65 908.253 1260.07 Q910.707 1259.49 912.744 1259.49 Q918.114 1259.49 921.308 1262.17 Q924.503 1264.86 924.503 1269.35 Q924.503 1271.48 923.693 1273.4 Q922.906 1275.3 920.799 1277.89 Q920.22 1278.56 917.119 1281.78 Q914.017 1284.98 908.369 1290.74 Z" fill="#000000" fill-rule="nonzero" fill-opacity="1" /><path clip-path="url(#clip940)" d="M944.503 1263.19 Q940.892 1263.19 939.063 1266.76 Q937.257 1270.3 937.257 1277.43 Q937.257 1284.54 939.063 1288.1 Q940.892 1291.64 944.503 1291.64 Q948.137 1291.64 949.943 1288.1 Q951.771 1284.54 951.771 1277.43 Q951.771 1270.3 949.943 1266.76 Q948.137 1263.19 944.503 1263.19 M944.503 1259.49 Q950.313 1259.49 953.368 1264.1 Q956.447 1268.68 956.447 1277.43 Q956.447 1286.16 953.368 1290.76 Q950.313 1295.35 944.503 1295.35 Q938.693 1295.35 935.614 1290.76 Q932.558 1286.16 932.558 1277.43 Q932.558 1268.68 935.614 1264.1 Q938.693 1259.49 944.503 1259.49 Z" fill="#000000" fill-rule="nonzero" fill-opacity="1" /><path clip-path="url(#clip940)" d="M1279.15 1276.04 Q1282.51 1276.76 1284.38 1279.03 Q1286.28 1281.3 1286.28 1284.63 Q1286.28 1289.74 1282.76 1292.55 Q1279.24 1295.35 1272.76 1295.35 Q1270.59 1295.35 1268.27 1294.91 Q1265.98 1294.49 1263.53 1293.63 L1263.53 1289.12 Q1265.47 1290.25 1267.78 1290.83 Q1270.1 1291.41 1272.62 1291.41 Q1277.02 1291.41 1279.31 1289.67 Q1281.63 1287.94 1281.63 1284.63 Q1281.63 1281.57 1279.47 1279.86 Q1277.34 1278.12 1273.53 1278.12 L1269.5 1278.12 L1269.5 1274.28 L1273.71 1274.28 Q1277.16 1274.28 1278.99 1272.92 Q1280.82 1271.53 1280.82 1268.93 Q1280.82 1266.27 1278.92 1264.86 Q1277.04 1263.42 1273.53 1263.42 Q1271.6 1263.42 1269.4 1263.84 Q1267.21 1264.26 1264.57 1265.14 L1264.57 1260.97 Q1267.23 1260.23 1269.54 1259.86 Q1271.88 1259.49 1273.94 1259.49 Q1279.27 1259.49 1282.37 1261.92 Q1285.47 1264.33 1285.47 1268.45 Q1285.47 1271.32 1283.83 1273.31 Q1282.18 1275.28 1279.15 1276.04 Z" fill="#000000" fill-rule="nonzero" fill-opacity="1" /><path clip-path="url(#clip940)" d="M1305.15 1263.19 Q1301.53 1263.19 1299.71 1266.76 Q1297.9 1270.3 1297.9 1277.43 Q1297.9 1284.54 1299.71 1288.1 Q1301.53 1291.64 1305.15 1291.64 Q1308.78 1291.64 1310.59 1288.1 Q1312.41 1284.54 1312.41 1277.43 Q1312.41 1270.3 1310.59 1266.76 Q1308.78 1263.19 1305.15 1263.19 M1305.15 1259.49 Q1310.96 1259.49 1314.01 1264.1 Q1317.09 1268.68 1317.09 1277.43 Q1317.09 1286.16 1314.01 1290.76 Q1310.96 1295.35 1305.15 1295.35 Q1299.34 1295.35 1296.26 1290.76 Q1293.2 1286.16 1293.2 1277.43 Q1293.2 1268.68 1296.26 1264.1 Q1299.34 1259.49 1305.15 1259.49 Z" fill="#000000" fill-rule="nonzero" fill-opacity="1" /><path clip-path="url(#clip940)" d="M1639.19 1264.19 L1627.39 1282.64 L1639.19 1282.64 L1639.19 1264.19 M1637.96 1260.11 L1643.84 1260.11 L1643.84 1282.64 L1648.77 1282.64 L1648.77 1286.53 L1643.84 1286.53 L1643.84 1294.67 L1639.19 1294.67 L1639.19 1286.53 L1623.59 1286.53 L1623.59 1282.01 L1637.96 1260.11 Z" fill="#000000" fill-rule="nonzero" fill-opacity="1" /><path clip-path="url(#clip940)" d="M1666.51 1263.19 Q1662.89 1263.19 1661.07 1266.76 Q1659.26 1270.3 1659.26 1277.43 Q1659.26 1284.54 1661.07 1288.1 Q1662.89 1291.64 1666.51 1291.64 Q1670.14 1291.64 1671.95 1288.1 Q1673.77 1284.54 1673.77 1277.43 Q1673.77 1270.3 1671.95 1266.76 Q1670.14 1263.19 1666.51 1263.19 M1666.51 1259.49 Q1672.32 1259.49 1675.37 1264.1 Q1678.45 1268.68 1678.45 1277.43 Q1678.45 1286.16 1675.37 1290.76 Q1672.32 1295.35 1666.51 1295.35 Q1660.7 1295.35 1657.62 1290.76 Q1654.56 1286.16 1654.56 1277.43 Q1654.56 1268.68 1657.62 1264.1 Q1660.7 1259.49 1666.51 1259.49 Z" fill="#000000" fill-rule="nonzero" fill-opacity="1" /><path clip-path="url(#clip940)" d="M1986.43 1260.11 L2004.79 1260.11 L2004.79 1264.05 L1990.71 1264.05 L1990.71 1272.52 Q1991.73 1272.17 1992.75 1272.01 Q1993.77 1271.83 1994.79 1271.83 Q2000.57 1271.83 2003.95 1275 Q2007.33 1278.17 2007.33 1283.59 Q2007.33 1289.17 2003.86 1292.27 Q2000.39 1295.35 1994.07 1295.35 Q1991.89 1295.35 1989.62 1294.98 Q1987.38 1294.61 1984.97 1293.86 L1984.97 1289.17 Q1987.06 1290.3 1989.28 1290.86 Q1991.5 1291.41 1993.98 1291.41 Q1997.98 1291.41 2000.32 1289.3 Q2002.66 1287.2 2002.66 1283.59 Q2002.66 1279.98 2000.32 1277.87 Q1997.98 1275.76 1993.98 1275.76 Q1992.1 1275.76 1990.23 1276.18 Q1988.37 1276.6 1986.43 1277.48 L1986.43 1260.11 Z" fill="#000000" fill-rule="nonzero" fill-opacity="1" /><path clip-path="url(#clip940)" d="M2026.55 1263.19 Q2022.93 1263.19 2021.11 1266.76 Q2019.3 1270.3 2019.3 1277.43 Q2019.3 1284.54 2021.11 1288.1 Q2022.93 1291.64 2026.55 1291.64 Q2030.18 1291.64 2031.99 1288.1 Q2033.81 1284.54 2033.81 1277.43 Q2033.81 1270.3 2031.99 1266.76 Q2030.18 1263.19 2026.55 1263.19 M2026.55 1259.49 Q2032.36 1259.49 2035.41 1264.1 Q2038.49 1268.68 2038.49 1277.43 Q2038.49 1286.16 2035.41 1290.76 Q2032.36 1295.35 2026.55 1295.35 Q2020.74 1295.35 2017.66 1290.76 Q2014.6 1286.16 2014.6 1277.43 Q2014.6 1268.68 2017.66 1264.1 Q2020.74 1259.49 2026.55 1259.49 Z" fill="#000000" fill-rule="nonzero" fill-opacity="1" /><polyline clip-path="url(#clip942)" style="stroke:#000000; stroke-linecap:round; stroke-linejoin:round; stroke-width:2; stroke-opacity:0.1; fill:none" points="191.218,1126.3 2064.76,1126.3 "/>
<polyline clip-path="url(#clip942)" style="stroke:#000000; stroke-linecap:round; stroke-linejoin:round; stroke-width:2; stroke-opacity:0.1; fill:none" points="191.218,902.274 2064.76,902.274 "/>
<polyline clip-path="url(#clip942)" style="stroke:#000000; stroke-linecap:round; stroke-linejoin:round; stroke-width:2; stroke-opacity:0.1; fill:none" points="191.218,678.249 2064.76,678.249 "/>
<polyline clip-path="url(#clip942)" style="stroke:#000000; stroke-linecap:round; stroke-linejoin:round; stroke-width:2; stroke-opacity:0.1; fill:none" points="191.218,454.224 2064.76,454.224 "/>
<polyline clip-path="url(#clip942)" style="stroke:#000000; stroke-linecap:round; stroke-linejoin:round; stroke-width:2; stroke-opacity:0.1; fill:none" points="191.218,230.198 2064.76,230.198 "/>
<polyline clip-path="url(#clip940)" style="stroke:#000000; stroke-linecap:round; stroke-linejoin:round; stroke-width:4; stroke-opacity:1; fill:none" points="191.218,1234.58 191.218,47.2441 "/>
<polyline clip-path="url(#clip940)" style="stroke:#000000; stroke-linecap:round; stroke-linejoin:round; stroke-width:4; stroke-opacity:1; fill:none" points="191.218,1126.3 210.116,1126.3 "/>
<polyline clip-path="url(#clip940)" style="stroke:#000000; stroke-linecap:round; stroke-linejoin:round; stroke-width:4; stroke-opacity:1; fill:none" points="191.218,902.274 210.116,902.274 "/>
<polyline clip-path="url(#clip940)" style="stroke:#000000; stroke-linecap:round; stroke-linejoin:round; stroke-width:4; stroke-opacity:1; fill:none" points="191.218,678.249 210.116,678.249 "/>
<polyline clip-path="url(#clip940)" style="stroke:#000000; stroke-linecap:round; stroke-linejoin:round; stroke-width:4; stroke-opacity:1; fill:none" points="191.218,454.224 210.116,454.224 "/>
<polyline clip-path="url(#clip940)" style="stroke:#000000; stroke-linecap:round; stroke-linejoin:round; stroke-width:4; stroke-opacity:1; fill:none" points="191.218,230.198 210.116,230.198 "/>
<path clip-path="url(#clip940)" d="M52.7793 1126.75 L82.4551 1126.75 L82.4551 1130.69 L52.7793 1130.69 L52.7793 1126.75 Z" fill="#000000" fill-rule="nonzero" fill-opacity="1" /><path clip-path="url(#clip940)" d="M102.548 1112.1 Q98.9365 1112.1 97.1078 1115.66 Q95.3023 1119.2 95.3023 1126.33 Q95.3023 1133.44 97.1078 1137.01 Q98.9365 1140.55 102.548 1140.55 Q106.182 1140.55 107.987 1137.01 Q109.816 1133.44 109.816 1126.33 Q109.816 1119.2 107.987 1115.66 Q106.182 1112.1 102.548 1112.1 M102.548 1108.39 Q108.358 1108.39 111.413 1113 Q114.492 1117.58 114.492 1126.33 Q114.492 1135.06 111.413 1139.67 Q108.358 1144.25 102.548 1144.25 Q96.7374 1144.25 93.6588 1139.67 Q90.6032 1135.06 90.6032 1126.33 Q90.6032 1117.58 93.6588 1113 Q96.7374 1108.39 102.548 1108.39 Z" fill="#000000" fill-rule="nonzero" fill-opacity="1" /><path clip-path="url(#clip940)" d="M122.71 1137.7 L127.594 1137.7 L127.594 1143.58 L122.71 1143.58 L122.71 1137.7 Z" fill="#000000" fill-rule="nonzero" fill-opacity="1" /><path clip-path="url(#clip940)" d="M137.918 1142.86 L137.918 1138.6 Q139.677 1139.44 141.483 1139.88 Q143.288 1140.32 145.024 1140.32 Q149.654 1140.32 152.084 1137.21 Q154.538 1134.09 154.885 1127.75 Q153.543 1129.74 151.483 1130.8 Q149.422 1131.87 146.922 1131.87 Q141.737 1131.87 138.705 1128.74 Q135.696 1125.59 135.696 1120.15 Q135.696 1114.83 138.844 1111.61 Q141.992 1108.39 147.223 1108.39 Q153.219 1108.39 156.367 1113 Q159.538 1117.58 159.538 1126.33 Q159.538 1134.51 155.649 1139.39 Q151.783 1144.25 145.233 1144.25 Q143.473 1144.25 141.668 1143.9 Q139.862 1143.56 137.918 1142.86 M147.223 1128.21 Q150.371 1128.21 152.2 1126.06 Q154.052 1123.9 154.052 1120.15 Q154.052 1116.43 152.2 1114.27 Q150.371 1112.1 147.223 1112.1 Q144.075 1112.1 142.223 1114.27 Q140.395 1116.43 140.395 1120.15 Q140.395 1123.9 142.223 1126.06 Q144.075 1128.21 147.223 1128.21 Z" fill="#000000" fill-rule="nonzero" fill-opacity="1" /><path clip-path="url(#clip940)" d="M52.4321 902.726 L82.1079 902.726 L82.1079 906.661 L52.4321 906.661 L52.4321 902.726 Z" fill="#000000" fill-rule="nonzero" fill-opacity="1" /><path clip-path="url(#clip940)" d="M102.2 888.073 Q98.5893 888.073 96.7606 891.638 Q94.955 895.18 94.955 902.309 Q94.955 909.416 96.7606 912.98 Q98.5893 916.522 102.2 916.522 Q105.835 916.522 107.64 912.98 Q109.469 909.416 109.469 902.309 Q109.469 895.18 107.64 891.638 Q105.835 888.073 102.2 888.073 M102.2 884.369 Q108.011 884.369 111.066 888.976 Q114.145 893.559 114.145 902.309 Q114.145 911.036 111.066 915.642 Q108.011 920.226 102.2 920.226 Q96.3902 920.226 93.3115 915.642 Q90.256 911.036 90.256 902.309 Q90.256 893.559 93.3115 888.976 Q96.3902 884.369 102.2 884.369 Z" fill="#000000" fill-rule="nonzero" fill-opacity="1" /><path clip-path="url(#clip940)" d="M122.362 913.675 L127.247 913.675 L127.247 919.554 L122.362 919.554 L122.362 913.675 Z" fill="#000000" fill-rule="nonzero" fill-opacity="1" /><path clip-path="url(#clip940)" d="M148.01 900.411 Q144.862 900.411 143.01 902.564 Q141.182 904.717 141.182 908.467 Q141.182 912.193 143.01 914.369 Q144.862 916.522 148.01 916.522 Q151.158 916.522 152.987 914.369 Q154.839 912.193 154.839 908.467 Q154.839 904.717 152.987 902.564 Q151.158 900.411 148.01 900.411 M157.293 885.758 L157.293 890.018 Q155.533 889.184 153.728 888.744 Q151.945 888.305 150.186 888.305 Q145.557 888.305 143.103 891.43 Q140.672 894.555 140.325 900.874 Q141.691 898.86 143.751 897.795 Q145.811 896.707 148.288 896.707 Q153.496 896.707 156.506 899.879 Q159.538 903.027 159.538 908.467 Q159.538 913.791 156.39 917.008 Q153.242 920.226 148.01 920.226 Q142.015 920.226 138.844 915.642 Q135.672 911.036 135.672 902.309 Q135.672 894.115 139.561 889.254 Q143.45 884.369 150.001 884.369 Q151.76 884.369 153.543 884.717 Q155.348 885.064 157.293 885.758 Z" fill="#000000" fill-rule="nonzero" fill-opacity="1" /><path clip-path="url(#clip940)" d="M53.2423 678.7 L82.9181 678.7 L82.9181 682.636 L53.2423 682.636 L53.2423 678.7 Z" fill="#000000" fill-rule="nonzero" fill-opacity="1" /><path clip-path="url(#clip940)" d="M103.011 664.048 Q99.3995 664.048 97.5708 667.612 Q95.7652 671.154 95.7652 678.284 Q95.7652 685.39 97.5708 688.955 Q99.3995 692.497 103.011 692.497 Q106.645 692.497 108.45 688.955 Q110.279 685.39 110.279 678.284 Q110.279 671.154 108.45 667.612 Q106.645 664.048 103.011 664.048 M103.011 660.344 Q108.821 660.344 111.876 664.95 Q114.955 669.534 114.955 678.284 Q114.955 687.011 111.876 691.617 Q108.821 696.2 103.011 696.2 Q97.2004 696.2 94.1217 691.617 Q91.0662 687.011 91.0662 678.284 Q91.0662 669.534 94.1217 664.95 Q97.2004 660.344 103.011 660.344 Z" fill="#000000" fill-rule="nonzero" fill-opacity="1" /><path clip-path="url(#clip940)" d="M123.172 689.649 L128.057 689.649 L128.057 695.529 L123.172 695.529 L123.172 689.649 Z" fill="#000000" fill-rule="nonzero" fill-opacity="1" /><path clip-path="url(#clip940)" d="M152.408 676.895 Q155.765 677.612 157.64 679.881 Q159.538 682.149 159.538 685.483 Q159.538 690.598 156.02 693.399 Q152.501 696.2 146.02 696.2 Q143.844 696.2 141.529 695.76 Q139.237 695.344 136.784 694.487 L136.784 689.973 Q138.728 691.108 141.043 691.686 Q143.358 692.265 145.881 692.265 Q150.279 692.265 152.57 690.529 Q154.885 688.793 154.885 685.483 Q154.885 682.427 152.733 680.714 Q150.603 678.978 146.783 678.978 L142.756 678.978 L142.756 675.136 L146.969 675.136 Q150.418 675.136 152.246 673.77 Q154.075 672.381 154.075 669.788 Q154.075 667.126 152.177 665.714 Q150.302 664.279 146.783 664.279 Q144.862 664.279 142.663 664.696 Q140.464 665.113 137.825 665.992 L137.825 661.825 Q140.487 661.085 142.802 660.714 Q145.14 660.344 147.2 660.344 Q152.524 660.344 155.626 662.775 Q158.728 665.182 158.728 669.302 Q158.728 672.173 157.084 674.163 Q155.441 676.131 152.408 676.895 Z" fill="#000000" fill-rule="nonzero" fill-opacity="1" /><path clip-path="url(#clip940)" d="M102.362 440.022 Q98.7513 440.022 96.9226 443.587 Q95.1171 447.129 95.1171 454.258 Q95.1171 461.365 96.9226 464.93 Q98.7513 468.471 102.362 468.471 Q105.997 468.471 107.802 464.93 Q109.631 461.365 109.631 454.258 Q109.631 447.129 107.802 443.587 Q105.997 440.022 102.362 440.022 M102.362 436.319 Q108.173 436.319 111.228 440.925 Q114.307 445.508 114.307 454.258 Q114.307 462.985 111.228 467.592 Q108.173 472.175 102.362 472.175 Q96.5523 472.175 93.4736 467.592 Q90.418 462.985 90.418 454.258 Q90.418 445.508 93.4736 440.925 Q96.5523 436.319 102.362 436.319 Z" fill="#000000" fill-rule="nonzero" fill-opacity="1" /><path clip-path="url(#clip940)" d="M122.524 465.624 L127.409 465.624 L127.409 471.504 L122.524 471.504 L122.524 465.624 Z" fill="#000000" fill-rule="nonzero" fill-opacity="1" /><path clip-path="url(#clip940)" d="M147.594 440.022 Q143.983 440.022 142.154 443.587 Q140.348 447.129 140.348 454.258 Q140.348 461.365 142.154 464.93 Q143.983 468.471 147.594 468.471 Q151.228 468.471 153.033 464.93 Q154.862 461.365 154.862 454.258 Q154.862 447.129 153.033 443.587 Q151.228 440.022 147.594 440.022 M147.594 436.319 Q153.404 436.319 156.459 440.925 Q159.538 445.508 159.538 454.258 Q159.538 462.985 156.459 467.592 Q153.404 472.175 147.594 472.175 Q141.783 472.175 138.705 467.592 Q135.649 462.985 135.649 454.258 Q135.649 445.508 138.705 440.925 Q141.783 436.319 147.594 436.319 Z" fill="#000000" fill-rule="nonzero" fill-opacity="1" /><path clip-path="url(#clip940)" d="M103.011 215.997 Q99.3995 215.997 97.5708 219.562 Q95.7652 223.103 95.7652 230.233 Q95.7652 237.339 97.5708 240.904 Q99.3995 244.446 103.011 244.446 Q106.645 244.446 108.45 240.904 Q110.279 237.339 110.279 230.233 Q110.279 223.103 108.45 219.562 Q106.645 215.997 103.011 215.997 M103.011 212.293 Q108.821 212.293 111.876 216.9 Q114.955 221.483 114.955 230.233 Q114.955 238.96 111.876 243.566 Q108.821 248.149 103.011 248.149 Q97.2004 248.149 94.1217 243.566 Q91.0662 238.96 91.0662 230.233 Q91.0662 221.483 94.1217 216.9 Q97.2004 212.293 103.011 212.293 Z" fill="#000000" fill-rule="nonzero" fill-opacity="1" /><path clip-path="url(#clip940)" d="M123.172 241.599 L128.057 241.599 L128.057 247.478 L123.172 247.478 L123.172 241.599 Z" fill="#000000" fill-rule="nonzero" fill-opacity="1" /><path clip-path="url(#clip940)" d="M152.408 228.844 Q155.765 229.562 157.64 231.83 Q159.538 234.099 159.538 237.432 Q159.538 242.548 156.02 245.349 Q152.501 248.149 146.02 248.149 Q143.844 248.149 141.529 247.71 Q139.237 247.293 136.784 246.437 L136.784 241.923 Q138.728 243.057 141.043 243.636 Q143.358 244.214 145.881 244.214 Q150.279 244.214 152.57 242.478 Q154.885 240.742 154.885 237.432 Q154.885 234.376 152.733 232.663 Q150.603 230.927 146.783 230.927 L142.756 230.927 L142.756 227.085 L146.969 227.085 Q150.418 227.085 152.246 225.719 Q154.075 224.33 154.075 221.738 Q154.075 219.076 152.177 217.664 Q150.302 216.228 146.783 216.228 Q144.862 216.228 142.663 216.645 Q140.464 217.062 137.825 217.941 L137.825 213.775 Q140.487 213.034 142.802 212.664 Q145.14 212.293 147.2 212.293 Q152.524 212.293 155.626 214.724 Q158.728 217.131 158.728 221.251 Q158.728 224.122 157.084 226.113 Q155.441 228.08 152.408 228.844 Z" fill="#000000" fill-rule="nonzero" fill-opacity="1" /><circle clip-path="url(#clip942)" cx="244.243" cy="1200.97" r="14.4" fill="#009af9" fill-rule="evenodd" fill-opacity="1" stroke="#000000" stroke-opacity="1" stroke-width="2.688"/>
<circle clip-path="url(#clip942)" cx="280.314" cy="80.8479" r="14.4" fill="#009af9" fill-rule="evenodd" fill-opacity="1" stroke="#000000" stroke-opacity="1" stroke-width="2.688"/>
<circle clip-path="url(#clip942)" cx="316.385" cy="703.141" r="14.4" fill="#009af9" fill-rule="evenodd" fill-opacity="1" stroke="#000000" stroke-opacity="1" stroke-width="2.688"/>
<circle clip-path="url(#clip942)" cx="352.456" cy="267.536" r="14.4" fill="#009af9" fill-rule="evenodd" fill-opacity="1" stroke="#000000" stroke-opacity="1" stroke-width="2.688"/>
<circle clip-path="url(#clip942)" cx="388.527" cy="603.574" r="14.4" fill="#009af9" fill-rule="evenodd" fill-opacity="1" stroke="#000000" stroke-opacity="1" stroke-width="2.688"/>
<circle clip-path="url(#clip942)" cx="424.599" cy="329.765" r="14.4" fill="#009af9" fill-rule="evenodd" fill-opacity="1" stroke="#000000" stroke-opacity="1" stroke-width="2.688"/>
<circle clip-path="url(#clip942)" cx="460.67" cy="560.902" r="14.4" fill="#009af9" fill-rule="evenodd" fill-opacity="1" stroke="#000000" stroke-opacity="1" stroke-width="2.688"/>
<circle clip-path="url(#clip942)" cx="496.741" cy="360.88" r="14.4" fill="#009af9" fill-rule="evenodd" fill-opacity="1" stroke="#000000" stroke-opacity="1" stroke-width="2.688"/>
<circle clip-path="url(#clip942)" cx="532.812" cy="537.196" r="14.4" fill="#009af9" fill-rule="evenodd" fill-opacity="1" stroke="#000000" stroke-opacity="1" stroke-width="2.688"/>
<circle clip-path="url(#clip942)" cx="568.883" cy="379.548" r="14.4" fill="#009af9" fill-rule="evenodd" fill-opacity="1" stroke="#000000" stroke-opacity="1" stroke-width="2.688"/>
<circle clip-path="url(#clip942)" cx="604.955" cy="522.11" r="14.4" fill="#009af9" fill-rule="evenodd" fill-opacity="1" stroke="#000000" stroke-opacity="1" stroke-width="2.688"/>
<circle clip-path="url(#clip942)" cx="641.026" cy="391.994" r="14.4" fill="#009af9" fill-rule="evenodd" fill-opacity="1" stroke="#000000" stroke-opacity="1" stroke-width="2.688"/>
<circle clip-path="url(#clip942)" cx="677.097" cy="511.666" r="14.4" fill="#009af9" fill-rule="evenodd" fill-opacity="1" stroke="#000000" stroke-opacity="1" stroke-width="2.688"/>
<circle clip-path="url(#clip942)" cx="713.168" cy="400.884" r="14.4" fill="#009af9" fill-rule="evenodd" fill-opacity="1" stroke="#000000" stroke-opacity="1" stroke-width="2.688"/>
<circle clip-path="url(#clip942)" cx="749.239" cy="504.007" r="14.4" fill="#009af9" fill-rule="evenodd" fill-opacity="1" stroke="#000000" stroke-opacity="1" stroke-width="2.688"/>
<circle clip-path="url(#clip942)" cx="785.311" cy="407.552" r="14.4" fill="#009af9" fill-rule="evenodd" fill-opacity="1" stroke="#000000" stroke-opacity="1" stroke-width="2.688"/>
<circle clip-path="url(#clip942)" cx="821.382" cy="498.15" r="14.4" fill="#009af9" fill-rule="evenodd" fill-opacity="1" stroke="#000000" stroke-opacity="1" stroke-width="2.688"/>
<circle clip-path="url(#clip942)" cx="857.453" cy="412.737" r="14.4" fill="#009af9" fill-rule="evenodd" fill-opacity="1" stroke="#000000" stroke-opacity="1" stroke-width="2.688"/>
<circle clip-path="url(#clip942)" cx="893.524" cy="493.526" r="14.4" fill="#009af9" fill-rule="evenodd" fill-opacity="1" stroke="#000000" stroke-opacity="1" stroke-width="2.688"/>
<circle clip-path="url(#clip942)" cx="929.595" cy="416.886" r="14.4" fill="#009af9" fill-rule="evenodd" fill-opacity="1" stroke="#000000" stroke-opacity="1" stroke-width="2.688"/>
<circle clip-path="url(#clip942)" cx="965.667" cy="489.783" r="14.4" fill="#009af9" fill-rule="evenodd" fill-opacity="1" stroke="#000000" stroke-opacity="1" stroke-width="2.688"/>
<circle clip-path="url(#clip942)" cx="1001.74" cy="420.28" r="14.4" fill="#009af9" fill-rule="evenodd" fill-opacity="1" stroke="#000000" stroke-opacity="1" stroke-width="2.688"/>
<circle clip-path="url(#clip942)" cx="1037.81" cy="486.691" r="14.4" fill="#009af9" fill-rule="evenodd" fill-opacity="1" stroke="#000000" stroke-opacity="1" stroke-width="2.688"/>
<circle clip-path="url(#clip942)" cx="1073.88" cy="423.109" r="14.4" fill="#009af9" fill-rule="evenodd" fill-opacity="1" stroke="#000000" stroke-opacity="1" stroke-width="2.688"/>
<circle clip-path="url(#clip942)" cx="1109.95" cy="484.094" r="14.4" fill="#009af9" fill-rule="evenodd" fill-opacity="1" stroke="#000000" stroke-opacity="1" stroke-width="2.688"/>
<circle clip-path="url(#clip942)" cx="1146.02" cy="425.502" r="14.4" fill="#009af9" fill-rule="evenodd" fill-opacity="1" stroke="#000000" stroke-opacity="1" stroke-width="2.688"/>
<circle clip-path="url(#clip942)" cx="1182.09" cy="481.881" r="14.4" fill="#009af9" fill-rule="evenodd" fill-opacity="1" stroke="#000000" stroke-opacity="1" stroke-width="2.688"/>
<circle clip-path="url(#clip942)" cx="1218.16" cy="427.554" r="14.4" fill="#009af9" fill-rule="evenodd" fill-opacity="1" stroke="#000000" stroke-opacity="1" stroke-width="2.688"/>
<circle clip-path="url(#clip942)" cx="1254.24" cy="479.974" r="14.4" fill="#009af9" fill-rule="evenodd" fill-opacity="1" stroke="#000000" stroke-opacity="1" stroke-width="2.688"/>
<circle clip-path="url(#clip942)" cx="1290.31" cy="429.332" r="14.4" fill="#009af9" fill-rule="evenodd" fill-opacity="1" stroke="#000000" stroke-opacity="1" stroke-width="2.688"/>
<circle clip-path="url(#clip942)" cx="1326.38" cy="478.312" r="14.4" fill="#009af9" fill-rule="evenodd" fill-opacity="1" stroke="#000000" stroke-opacity="1" stroke-width="2.688"/>
<circle clip-path="url(#clip942)" cx="1362.45" cy="430.888" r="14.4" fill="#009af9" fill-rule="evenodd" fill-opacity="1" stroke="#000000" stroke-opacity="1" stroke-width="2.688"/>
<circle clip-path="url(#clip942)" cx="1398.52" cy="476.852" r="14.4" fill="#009af9" fill-rule="evenodd" fill-opacity="1" stroke="#000000" stroke-opacity="1" stroke-width="2.688"/>
<circle clip-path="url(#clip942)" cx="1434.59" cy="432.26" r="14.4" fill="#009af9" fill-rule="evenodd" fill-opacity="1" stroke="#000000" stroke-opacity="1" stroke-width="2.688"/>
<circle clip-path="url(#clip942)" cx="1470.66" cy="475.559" r="14.4" fill="#009af9" fill-rule="evenodd" fill-opacity="1" stroke="#000000" stroke-opacity="1" stroke-width="2.688"/>
<circle clip-path="url(#clip942)" cx="1506.73" cy="433.481" r="14.4" fill="#009af9" fill-rule="evenodd" fill-opacity="1" stroke="#000000" stroke-opacity="1" stroke-width="2.688"/>
<circle clip-path="url(#clip942)" cx="1542.81" cy="474.406" r="14.4" fill="#009af9" fill-rule="evenodd" fill-opacity="1" stroke="#000000" stroke-opacity="1" stroke-width="2.688"/>
<circle clip-path="url(#clip942)" cx="1578.88" cy="434.572" r="14.4" fill="#009af9" fill-rule="evenodd" fill-opacity="1" stroke="#000000" stroke-opacity="1" stroke-width="2.688"/>
<circle clip-path="url(#clip942)" cx="1614.95" cy="473.371" r="14.4" fill="#009af9" fill-rule="evenodd" fill-opacity="1" stroke="#000000" stroke-opacity="1" stroke-width="2.688"/>
<circle clip-path="url(#clip942)" cx="1651.02" cy="435.555" r="14.4" fill="#009af9" fill-rule="evenodd" fill-opacity="1" stroke="#000000" stroke-opacity="1" stroke-width="2.688"/>
<circle clip-path="url(#clip942)" cx="1687.09" cy="472.437" r="14.4" fill="#009af9" fill-rule="evenodd" fill-opacity="1" stroke="#000000" stroke-opacity="1" stroke-width="2.688"/>
<circle clip-path="url(#clip942)" cx="1723.16" cy="436.444" r="14.4" fill="#009af9" fill-rule="evenodd" fill-opacity="1" stroke="#000000" stroke-opacity="1" stroke-width="2.688"/>
<circle clip-path="url(#clip942)" cx="1759.23" cy="471.59" r="14.4" fill="#009af9" fill-rule="evenodd" fill-opacity="1" stroke="#000000" stroke-opacity="1" stroke-width="2.688"/>
<circle clip-path="url(#clip942)" cx="1795.3" cy="437.252" r="14.4" fill="#009af9" fill-rule="evenodd" fill-opacity="1" stroke="#000000" stroke-opacity="1" stroke-width="2.688"/>
<circle clip-path="url(#clip942)" cx="1831.38" cy="470.818" r="14.4" fill="#009af9" fill-rule="evenodd" fill-opacity="1" stroke="#000000" stroke-opacity="1" stroke-width="2.688"/>
<circle clip-path="url(#clip942)" cx="1867.45" cy="437.99" r="14.4" fill="#009af9" fill-rule="evenodd" fill-opacity="1" stroke="#000000" stroke-opacity="1" stroke-width="2.688"/>
<circle clip-path="url(#clip942)" cx="1903.52" cy="470.112" r="14.4" fill="#009af9" fill-rule="evenodd" fill-opacity="1" stroke="#000000" stroke-opacity="1" stroke-width="2.688"/>
<circle clip-path="url(#clip942)" cx="1939.59" cy="438.666" r="14.4" fill="#009af9" fill-rule="evenodd" fill-opacity="1" stroke="#000000" stroke-opacity="1" stroke-width="2.688"/>
<circle clip-path="url(#clip942)" cx="1975.66" cy="469.463" r="14.4" fill="#009af9" fill-rule="evenodd" fill-opacity="1" stroke="#000000" stroke-opacity="1" stroke-width="2.688"/>
<circle clip-path="url(#clip942)" cx="2011.73" cy="439.289" r="14.4" fill="#009af9" fill-rule="evenodd" fill-opacity="1" stroke="#000000" stroke-opacity="1" stroke-width="2.688"/>
</svg>
