<?xml version="1.0" encoding="utf-8"?>
<svg xmlns="http://www.w3.org/2000/svg" xmlns:xlink="http://www.w3.org/1999/xlink" width="528" height="336" viewBox="0 0 2112 1344">
<defs>
  <clipPath id="clip450">
    <rect x="0" y="0" width="2112" height="1344"/>
  </clipPath>
</defs>
<path clip-path="url(#clip450)" d="M0 1344 L2112 1344 L2112 0 L0 0  Z" fill="#ffffff" fill-rule="evenodd" fill-opacity="1"/>
<defs>
  <clipPath id="clip451">
    <rect x="422" y="0" width="1479" height="1344"/>
  </clipPath>
</defs>
<path clip-path="url(#clip450)" d="M153.371 1234.58 L2064.76 1234.58 L2064.76 47.2441 L153.371 47.2441  Z" fill="#ffffff" fill-rule="evenodd" fill-opacity="1"/>
<defs>
  <clipPath id="clip452">
    <rect x="153" y="47" width="1912" height="1188"/>
  </clipPath>
</defs>
<polyline clip-path="url(#clip452)" style="stroke:#000000; stroke-linecap:round; stroke-linejoin:round; stroke-width:2; stroke-opacity:0.1; fill:none" points="170.667,1234.58 170.667,47.2441 "/>
<polyline clip-path="url(#clip452)" style="stroke:#000000; stroke-linecap:round; stroke-linejoin:round; stroke-width:2; stroke-opacity:0.1; fill:none" points="538.666,1234.58 538.666,47.2441 "/>
<polyline clip-path="url(#clip452)" style="stroke:#000000; stroke-linecap:round; stroke-linejoin:round; stroke-width:2; stroke-opacity:0.1; fill:none" points="906.664,1234.58 906.664,47.2441 "/>
<polyline clip-path="url(#clip452)" style="stroke:#000000; stroke-linecap:round; stroke-linejoin:round; stroke-width:2; stroke-opacity:0.1; fill:none" points="1274.66,1234.58 1274.66,47.2441 "/>
<polyline clip-path="url(#clip452)" style="stroke:#000000; stroke-linecap:round; stroke-linejoin:round; stroke-width:2; stroke-opacity:0.1; fill:none" points="1642.66,1234.58 1642.66,47.2441 "/>
<polyline clip-path="url(#clip452)" style="stroke:#000000; stroke-linecap:round; stroke-linejoin:round; stroke-width:2; stroke-opacity:0.1; fill:none" points="2010.66,1234.58 2010.66,47.2441 "/>
<polyline clip-path="url(#clip452)" style="stroke:#000000; stroke-linecap:round; stroke-linejoin:round; stroke-width:2; stroke-opacity:0.1; fill:none" points="153.371,1200.97 2064.76,1200.97 "/>
<polyline clip-path="url(#clip452)" style="stroke:#000000; stroke-linecap:round; stroke-linejoin:round; stroke-width:2; stroke-opacity:0.1; fill:none" points="153.371,877.046 2064.76,877.046 "/>
<polyline clip-path="url(#clip452)" style="stroke:#000000; stroke-linecap:round; stroke-linejoin:round; stroke-width:2; stroke-opacity:0.1; fill:none" points="153.371,553.117 2064.76,553.117 "/>
<polyline clip-path="url(#clip452)" style="stroke:#000000; stroke-linecap:round; stroke-linejoin:round; stroke-width:2; stroke-opacity:0.1; fill:none" points="153.371,229.188 2064.76,229.188 "/>
<polyline clip-path="url(#clip450)" style="stroke:#000000; stroke-linecap:round; stroke-linejoin:round; stroke-width:4; stroke-opacity:1; fill:none" points="153.371,1234.58 2064.76,1234.58 "/>
<polyline clip-path="url(#clip450)" style="stroke:#000000; stroke-linecap:round; stroke-linejoin:round; stroke-width:4; stroke-opacity:1; fill:none" points="170.667,1234.58 170.667,1215.68 "/>
<polyline clip-path="url(#clip450)" style="stroke:#000000; stroke-linecap:round; stroke-linejoin:round; stroke-width:4; stroke-opacity:1; fill:none" points="538.666,1234.58 538.666,1215.68 "/>
<polyline clip-path="url(#clip450)" style="stroke:#000000; stroke-linecap:round; stroke-linejoin:round; stroke-width:4; stroke-opacity:1; fill:none" points="906.664,1234.58 906.664,1215.68 "/>
<polyline clip-path="url(#clip450)" style="stroke:#000000; stroke-linecap:round; stroke-linejoin:round; stroke-width:4; stroke-opacity:1; fill:none" points="1274.66,1234.58 1274.66,1215.68 "/>
<polyline clip-path="url(#clip450)" style="stroke:#000000; stroke-linecap:round; stroke-linejoin:round; stroke-width:4; stroke-opacity:1; fill:none" points="1642.66,1234.58 1642.66,1215.68 "/>
<polyline clip-path="url(#clip450)" style="stroke:#000000; stroke-linecap:round; stroke-linejoin:round; stroke-width:4; stroke-opacity:1; fill:none" points="2010.66,1234.58 2010.66,1215.68 "/>
<path clip-path="url(#clip450)" d="M170.667 1263.19 Q167.056 1263.19 165.227 1266.76 Q163.422 1270.3 163.422 1277.43 Q163.422 1284.54 165.227 1288.1 Q167.056 1291.64 170.667 1291.64 Q174.301 1291.64 176.107 1288.1 Q177.935 1284.54 177.935 1277.43 Q177.935 1270.3 176.107 1266.76 Q174.301 1263.19 170.667 1263.19 M170.667 1259.49 Q176.477 1259.49 179.533 1264.1 Q182.611 1268.68 182.611 1277.43 Q182.611 1286.16 179.533 1290.76 Q176.477 1295.35 170.667 1295.35 Q164.857 1295.35 161.778 1290.76 Q158.723 1286.16 158.723 1277.43 Q158.723 1268.68 161.778 1264.1 Q164.857 1259.49 170.667 1259.49 Z" fill="#000000" fill-rule="nonzero" fill-opacity="1" /><path clip-path="url(#clip450)" d="M513.353 1290.74 L520.992 1290.74 L520.992 1264.37 L512.682 1266.04 L512.682 1261.78 L520.946 1260.11 L525.622 1260.11 L525.622 1290.74 L533.261 1290.74 L533.261 1294.67 L513.353 1294.67 L513.353 1290.74 Z" fill="#000000" fill-rule="nonzero" fill-opacity="1" /><path clip-path="url(#clip450)" d="M552.705 1263.19 Q549.094 1263.19 547.265 1266.76 Q545.46 1270.3 545.46 1277.43 Q545.46 1284.54 547.265 1288.1 Q549.094 1291.64 552.705 1291.64 Q556.339 1291.64 558.145 1288.1 Q559.973 1284.54 559.973 1277.43 Q559.973 1270.3 558.145 1266.76 Q556.339 1263.19 552.705 1263.19 M552.705 1259.49 Q558.515 1259.49 561.571 1264.1 Q564.649 1268.68 564.649 1277.43 Q564.649 1286.16 561.571 1290.76 Q558.515 1295.35 552.705 1295.35 Q546.895 1295.35 543.816 1290.76 Q540.76 1286.16 540.76 1277.43 Q540.76 1268.68 543.816 1264.1 Q546.895 1259.49 552.705 1259.49 Z" fill="#000000" fill-rule="nonzero" fill-opacity="1" /><path clip-path="url(#clip450)" d="M885.437 1290.74 L901.757 1290.74 L901.757 1294.67 L879.813 1294.67 L879.813 1290.74 Q882.475 1287.99 887.058 1283.36 Q891.664 1278.7 892.845 1277.36 Q895.09 1274.84 895.97 1273.1 Q896.873 1271.34 896.873 1269.65 Q896.873 1266.9 894.928 1265.16 Q893.007 1263.42 889.905 1263.42 Q887.706 1263.42 885.252 1264.19 Q882.822 1264.95 880.044 1266.5 L880.044 1261.78 Q882.868 1260.65 885.322 1260.07 Q887.775 1259.49 889.812 1259.49 Q895.183 1259.49 898.377 1262.17 Q901.572 1264.86 901.572 1269.35 Q901.572 1271.48 900.761 1273.4 Q899.974 1275.3 897.868 1277.89 Q897.289 1278.56 894.187 1281.78 Q891.086 1284.98 885.437 1290.74 Z" fill="#000000" fill-rule="nonzero" fill-opacity="1" /><path clip-path="url(#clip450)" d="M921.572 1263.19 Q917.96 1263.19 916.132 1266.76 Q914.326 1270.3 914.326 1277.43 Q914.326 1284.54 916.132 1288.1 Q917.96 1291.64 921.572 1291.64 Q925.206 1291.64 927.011 1288.1 Q928.84 1284.54 928.84 1277.43 Q928.84 1270.3 927.011 1266.76 Q925.206 1263.19 921.572 1263.19 M921.572 1259.49 Q927.382 1259.49 930.437 1264.1 Q933.516 1268.68 933.516 1277.43 Q933.516 1286.16 930.437 1290.76 Q927.382 1295.35 921.572 1295.35 Q915.761 1295.35 912.683 1290.76 Q909.627 1286.16 909.627 1277.43 Q909.627 1268.68 912.683 1264.1 Q915.761 1259.49 921.572 1259.49 Z" fill="#000000" fill-rule="nonzero" fill-opacity="1" /><path clip-path="url(#clip450)" d="M1263.51 1276.04 Q1266.86 1276.76 1268.74 1279.03 Q1270.64 1281.3 1270.64 1284.63 Q1270.64 1289.74 1267.12 1292.55 Q1263.6 1295.35 1257.12 1295.35 Q1254.94 1295.35 1252.63 1294.91 Q1250.33 1294.49 1247.88 1293.63 L1247.88 1289.12 Q1249.83 1290.25 1252.14 1290.83 Q1254.45 1291.41 1256.98 1291.41 Q1261.38 1291.41 1263.67 1289.67 Q1265.98 1287.94 1265.98 1284.63 Q1265.98 1281.57 1263.83 1279.86 Q1261.7 1278.12 1257.88 1278.12 L1253.85 1278.12 L1253.85 1274.28 L1258.07 1274.28 Q1261.51 1274.28 1263.34 1272.92 Q1265.17 1271.53 1265.17 1268.93 Q1265.17 1266.27 1263.27 1264.86 Q1261.4 1263.42 1257.88 1263.42 Q1255.96 1263.42 1253.76 1263.84 Q1251.56 1264.26 1248.92 1265.14 L1248.92 1260.97 Q1251.58 1260.23 1253.9 1259.86 Q1256.24 1259.49 1258.3 1259.49 Q1263.62 1259.49 1266.72 1261.92 Q1269.82 1264.33 1269.82 1268.45 Q1269.82 1271.32 1268.18 1273.31 Q1266.54 1275.28 1263.51 1276.04 Z" fill="#000000" fill-rule="nonzero" fill-opacity="1" /><path clip-path="url(#clip450)" d="M1289.5 1263.19 Q1285.89 1263.19 1284.06 1266.76 Q1282.26 1270.3 1282.26 1277.43 Q1282.26 1284.54 1284.06 1288.1 Q1285.89 1291.64 1289.5 1291.64 Q1293.13 1291.64 1294.94 1288.1 Q1296.77 1284.54 1296.77 1277.43 Q1296.77 1270.3 1294.94 1266.76 Q1293.13 1263.19 1289.5 1263.19 M1289.5 1259.49 Q1295.31 1259.49 1298.37 1264.1 Q1301.45 1268.68 1301.45 1277.43 Q1301.45 1286.16 1298.37 1290.76 Q1295.31 1295.35 1289.5 1295.35 Q1283.69 1295.35 1280.61 1290.76 Q1277.56 1286.16 1277.56 1277.43 Q1277.56 1268.68 1280.61 1264.1 Q1283.69 1259.49 1289.5 1259.49 Z" fill="#000000" fill-rule="nonzero" fill-opacity="1" /><path clip-path="url(#clip450)" d="M1630.83 1264.19 L1619.03 1282.64 L1630.83 1282.64 L1630.83 1264.19 M1629.61 1260.11 L1635.49 1260.11 L1635.49 1282.64 L1640.42 1282.64 L1640.42 1286.53 L1635.49 1286.53 L1635.49 1294.67 L1630.83 1294.67 L1630.83 1286.53 L1615.23 1286.53 L1615.23 1282.01 L1629.61 1260.11 Z" fill="#000000" fill-rule="nonzero" fill-opacity="1" /><path clip-path="url(#clip450)" d="M1658.15 1263.19 Q1654.54 1263.19 1652.71 1266.76 Q1650.9 1270.3 1650.9 1277.43 Q1650.9 1284.54 1652.71 1288.1 Q1654.54 1291.64 1658.15 1291.64 Q1661.78 1291.64 1663.59 1288.1 Q1665.42 1284.54 1665.42 1277.43 Q1665.42 1270.3 1663.59 1266.76 Q1661.78 1263.19 1658.15 1263.19 M1658.15 1259.49 Q1663.96 1259.49 1667.01 1264.1 Q1670.09 1268.68 1670.09 1277.43 Q1670.09 1286.16 1667.01 1290.76 Q1663.96 1295.35 1658.15 1295.35 Q1652.34 1295.35 1649.26 1290.76 Q1646.2 1286.16 1646.2 1277.43 Q1646.2 1268.68 1649.26 1264.1 Q1652.34 1259.49 1658.15 1259.49 Z" fill="#000000" fill-rule="nonzero" fill-opacity="1" /><path clip-path="url(#clip450)" d="M1985.36 1260.11 L2003.72 1260.11 L2003.72 1264.05 L1989.64 1264.05 L1989.64 1272.52 Q1990.66 1272.17 1991.68 1272.01 Q1992.7 1271.83 1993.72 1271.83 Q1999.5 1271.83 2002.88 1275 Q2006.26 1278.17 2006.26 1283.59 Q2006.26 1289.17 2002.79 1292.27 Q1999.32 1295.35 1993 1295.35 Q1990.82 1295.35 1988.55 1294.98 Q1986.31 1294.61 1983.9 1293.86 L1983.9 1289.17 Q1985.98 1290.3 1988.21 1290.86 Q1990.43 1291.41 1992.91 1291.41 Q1996.91 1291.41 1999.25 1289.3 Q2001.59 1287.2 2001.59 1283.59 Q2001.59 1279.98 1999.25 1277.87 Q1996.91 1275.76 1992.91 1275.76 Q1991.03 1275.76 1989.16 1276.18 Q1987.3 1276.6 1985.36 1277.48 L1985.36 1260.11 Z" fill="#000000" fill-rule="nonzero" fill-opacity="1" /><path clip-path="url(#clip450)" d="M2025.47 1263.19 Q2021.86 1263.19 2020.04 1266.76 Q2018.23 1270.3 2018.23 1277.43 Q2018.23 1284.54 2020.04 1288.1 Q2021.86 1291.64 2025.47 1291.64 Q2029.11 1291.64 2030.91 1288.1 Q2032.74 1284.54 2032.74 1277.43 Q2032.74 1270.3 2030.91 1266.76 Q2029.11 1263.19 2025.47 1263.19 M2025.47 1259.49 Q2031.28 1259.49 2034.34 1264.1 Q2037.42 1268.68 2037.42 1277.43 Q2037.42 1286.16 2034.34 1290.76 Q2031.28 1295.35 2025.47 1295.35 Q2019.66 1295.35 2016.59 1290.76 Q2013.53 1286.16 2013.53 1277.43 Q2013.53 1268.68 2016.59 1264.1 Q2019.66 1259.49 2025.47 1259.49 Z" fill="#000000" fill-rule="nonzero" fill-opacity="1" /><polyline clip-path="url(#clip450)" style="stroke:#000000; stroke-linecap:round; stroke-linejoin:round; stroke-width:4; stroke-opacity:1; fill:none" points="153.371,1234.58 153.371,47.2441 "/>
<polyline clip-path="url(#clip450)" style="stroke:#000000; stroke-linecap:round; stroke-linejoin:round; stroke-width:4; stroke-opacity:1; fill:none" points="153.371,1200.97 172.269,1200.97 "/>
<polyline clip-path="url(#clip450)" style="stroke:#000000; stroke-linecap:round; stroke-linejoin:round; stroke-width:4; stroke-opacity:1; fill:none" points="153.371,877.046 172.269,877.046 "/>
<polyline clip-path="url(#clip450)" style="stroke:#000000; stroke-linecap:round; stroke-linejoin:round; stroke-width:4; stroke-opacity:1; fill:none" points="153.371,553.117 172.269,553.117 "/>
<polyline clip-path="url(#clip450)" style="stroke:#000000; stroke-linecap:round; stroke-linejoin:round; stroke-width:4; stroke-opacity:1; fill:none" points="153.371,229.188 172.269,229.188 "/>
<path clip-path="url(#clip450)" d="M58.5432 1214.32 L74.8626 1214.32 L74.8626 1218.25 L52.9182 1218.25 L52.9182 1214.32 Q55.5803 1211.57 60.1636 1206.94 Q64.77 1202.28 65.9506 1200.94 Q68.1959 1198.42 69.0756 1196.68 Q69.9783 1194.92 69.9783 1193.23 Q69.9783 1190.48 68.0339 1188.74 Q66.1126 1187.01 63.0108 1187.01 Q60.8117 1187.01 58.358 1187.77 Q55.9275 1188.53 53.1497 1190.08 L53.1497 1185.36 Q55.9738 1184.23 58.4275 1183.65 Q60.8812 1183.07 62.9182 1183.07 Q68.2885 1183.07 71.4829 1185.76 Q74.6774 1188.44 74.6774 1192.93 Q74.6774 1195.06 73.8672 1196.98 Q73.0802 1198.88 70.9737 1201.47 Q70.395 1202.14 67.2932 1205.36 Q64.1913 1208.56 58.5432 1214.32 Z" fill="#000000" fill-rule="nonzero" fill-opacity="1" /><path clip-path="url(#clip450)" d="M84.6773 1212.38 L89.5616 1212.38 L89.5616 1218.25 L84.6773 1218.25 L84.6773 1212.38 Z" fill="#000000" fill-rule="nonzero" fill-opacity="1" /><path clip-path="url(#clip450)" d="M109.747 1186.77 Q106.136 1186.77 104.307 1190.34 Q102.501 1193.88 102.501 1201.01 Q102.501 1208.12 104.307 1211.68 Q106.136 1215.22 109.747 1215.22 Q113.381 1215.22 115.186 1211.68 Q117.015 1208.12 117.015 1201.01 Q117.015 1193.88 115.186 1190.34 Q113.381 1186.77 109.747 1186.77 M109.747 1183.07 Q115.557 1183.07 118.612 1187.68 Q121.691 1192.26 121.691 1201.01 Q121.691 1209.74 118.612 1214.34 Q115.557 1218.93 109.747 1218.93 Q103.936 1218.93 100.858 1214.34 Q97.8023 1209.74 97.8023 1201.01 Q97.8023 1192.26 100.858 1187.68 Q103.936 1183.07 109.747 1183.07 Z" fill="#000000" fill-rule="nonzero" fill-opacity="1" /><path clip-path="url(#clip450)" d="M60.1404 890.391 L76.4598 890.391 L76.4598 894.326 L54.5154 894.326 L54.5154 890.391 Q57.1775 887.636 61.7608 883.007 Q66.3672 878.354 67.5478 877.011 Q69.7931 874.488 70.6728 872.752 Q71.5755 870.993 71.5755 869.303 Q71.5755 866.548 69.6311 864.812 Q67.7098 863.076 64.608 863.076 Q62.4089 863.076 59.9552 863.84 Q57.5247 864.604 54.7469 866.155 L54.7469 861.433 Q57.571 860.298 60.0247 859.72 Q62.4784 859.141 64.5154 859.141 Q69.8857 859.141 73.0802 861.826 Q76.2746 864.511 76.2746 869.002 Q76.2746 871.132 75.4644 873.053 Q74.6774 874.951 72.5709 877.544 Q71.9922 878.215 68.8904 881.433 Q65.7885 884.627 60.1404 890.391 Z" fill="#000000" fill-rule="nonzero" fill-opacity="1" /><path clip-path="url(#clip450)" d="M86.2745 888.446 L91.1588 888.446 L91.1588 894.326 L86.2745 894.326 L86.2745 888.446 Z" fill="#000000" fill-rule="nonzero" fill-opacity="1" /><path clip-path="url(#clip450)" d="M105.372 890.391 L121.691 890.391 L121.691 894.326 L99.7467 894.326 L99.7467 890.391 Q102.409 887.636 106.992 883.007 Q111.598 878.354 112.779 877.011 Q115.024 874.488 115.904 872.752 Q116.807 870.993 116.807 869.303 Q116.807 866.548 114.862 864.812 Q112.941 863.076 109.839 863.076 Q107.64 863.076 105.186 863.84 Q102.756 864.604 99.9782 866.155 L99.9782 861.433 Q102.802 860.298 105.256 859.72 Q107.71 859.141 109.747 859.141 Q115.117 859.141 118.311 861.826 Q121.506 864.511 121.506 869.002 Q121.506 871.132 120.696 873.053 Q119.909 874.951 117.802 877.544 Q117.223 878.215 114.122 881.433 Q111.02 884.627 105.372 890.391 Z" fill="#000000" fill-rule="nonzero" fill-opacity="1" /><path clip-path="url(#clip450)" d="M58.0571 566.462 L74.3765 566.462 L74.3765 570.397 L52.4321 570.397 L52.4321 566.462 Q55.0941 563.707 59.6775 559.078 Q64.2839 554.425 65.4645 553.082 Q67.7098 550.559 68.5894 548.823 Q69.4922 547.064 69.4922 545.374 Q69.4922 542.619 67.5478 540.883 Q65.6265 539.147 62.5247 539.147 Q60.3256 539.147 57.8719 539.911 Q55.4414 540.675 52.6636 542.226 L52.6636 537.504 Q55.4877 536.369 57.9414 535.791 Q60.395 535.212 62.4321 535.212 Q67.8024 535.212 70.9968 537.897 Q74.1913 540.582 74.1913 545.073 Q74.1913 547.203 73.3811 549.124 Q72.5941 551.022 70.4876 553.615 Q69.9089 554.286 66.807 557.504 Q63.7052 560.698 58.0571 566.462 Z" fill="#000000" fill-rule="nonzero" fill-opacity="1" /><path clip-path="url(#clip450)" d="M84.1912 564.517 L89.0754 564.517 L89.0754 570.397 L84.1912 570.397 L84.1912 564.517 Z" fill="#000000" fill-rule="nonzero" fill-opacity="1" /><path clip-path="url(#clip450)" d="M112.108 539.911 L100.302 558.36 L112.108 558.36 L112.108 539.911 M110.881 535.837 L116.76 535.837 L116.76 558.36 L121.691 558.36 L121.691 562.249 L116.76 562.249 L116.76 570.397 L112.108 570.397 L112.108 562.249 L96.506 562.249 L96.506 557.735 L110.881 535.837 Z" fill="#000000" fill-rule="nonzero" fill-opacity="1" /><path clip-path="url(#clip450)" d="M58.3812 242.533 L74.7005 242.533 L74.7005 246.468 L52.7562 246.468 L52.7562 242.533 Q55.4182 239.778 60.0015 235.149 Q64.608 230.496 65.7885 229.153 Q68.0339 226.63 68.9135 224.894 Q69.8163 223.135 69.8163 221.445 Q69.8163 218.69 67.8719 216.954 Q65.9506 215.218 62.8487 215.218 Q60.6497 215.218 58.196 215.982 Q55.7654 216.746 52.9877 218.297 L52.9877 213.575 Q55.8117 212.44 58.2654 211.862 Q60.7191 211.283 62.7561 211.283 Q68.1265 211.283 71.3209 213.968 Q74.5153 216.653 74.5153 221.144 Q74.5153 223.274 73.7052 225.195 Q72.9181 227.093 70.8117 229.686 Q70.233 230.357 67.1311 233.575 Q64.0293 236.769 58.3812 242.533 Z" fill="#000000" fill-rule="nonzero" fill-opacity="1" /><path clip-path="url(#clip450)" d="M84.5153 240.588 L89.3995 240.588 L89.3995 246.468 L84.5153 246.468 L84.5153 240.588 Z" fill="#000000" fill-rule="nonzero" fill-opacity="1" /><path clip-path="url(#clip450)" d="M110.163 227.325 Q107.015 227.325 105.163 229.477 Q103.335 231.63 103.335 235.38 Q103.335 239.107 105.163 241.283 Q107.015 243.436 110.163 243.436 Q113.311 243.436 115.14 241.283 Q116.992 239.107 116.992 235.38 Q116.992 231.63 115.14 229.477 Q113.311 227.325 110.163 227.325 M119.446 212.672 L119.446 216.931 Q117.686 216.098 115.881 215.658 Q114.098 215.218 112.339 215.218 Q107.71 215.218 105.256 218.343 Q102.825 221.468 102.478 227.788 Q103.844 225.774 105.904 224.709 Q107.964 223.621 110.441 223.621 Q115.649 223.621 118.659 226.792 Q121.691 229.94 121.691 235.38 Q121.691 240.704 118.543 243.922 Q115.395 247.139 110.163 247.139 Q104.168 247.139 100.997 242.556 Q97.8254 237.95 97.8254 229.223 Q97.8254 221.028 101.714 216.167 Q105.603 211.283 112.154 211.283 Q113.913 211.283 115.696 211.63 Q117.501 211.977 119.446 212.672 Z" fill="#000000" fill-rule="nonzero" fill-opacity="1" /><circle clip-path="url(#clip452)" cx="207.467" cy="1200.97" r="14.4" fill="#009af9" fill-rule="evenodd" fill-opacity="1" stroke="#000000" stroke-opacity="1" stroke-width="2.688"/>
<circle clip-path="url(#clip452)" cx="244.267" cy="796.064" r="14.4" fill="#009af9" fill-rule="evenodd" fill-opacity="1" stroke="#000000" stroke-opacity="1" stroke-width="2.688"/>
<circle clip-path="url(#clip452)" cx="281.067" cy="601.106" r="14.4" fill="#009af9" fill-rule="evenodd" fill-opacity="1" stroke="#000000" stroke-opacity="1" stroke-width="2.688"/>
<circle clip-path="url(#clip452)" cx="317.866" cy="486.054" r="14.4" fill="#009af9" fill-rule="evenodd" fill-opacity="1" stroke="#000000" stroke-opacity="1" stroke-width="2.688"/>
<circle clip-path="url(#clip452)" cx="354.666" cy="410.07" r="14.4" fill="#009af9" fill-rule="evenodd" fill-opacity="1" stroke="#000000" stroke-opacity="1" stroke-width="2.688"/>
<circle clip-path="url(#clip452)" cx="391.466" cy="356.125" r="14.4" fill="#009af9" fill-rule="evenodd" fill-opacity="1" stroke="#000000" stroke-opacity="1" stroke-width="2.688"/>
<circle clip-path="url(#clip452)" cx="428.266" cy="315.839" r="14.4" fill="#009af9" fill-rule="evenodd" fill-opacity="1" stroke="#000000" stroke-opacity="1" stroke-width="2.688"/>
<circle clip-path="url(#clip452)" cx="465.066" cy="284.605" r="14.4" fill="#009af9" fill-rule="evenodd" fill-opacity="1" stroke="#000000" stroke-opacity="1" stroke-width="2.688"/>
<circle clip-path="url(#clip452)" cx="501.866" cy="259.678" r="14.4" fill="#009af9" fill-rule="evenodd" fill-opacity="1" stroke="#000000" stroke-opacity="1" stroke-width="2.688"/>
<circle clip-path="url(#clip452)" cx="538.666" cy="239.323" r="14.4" fill="#009af9" fill-rule="evenodd" fill-opacity="1" stroke="#000000" stroke-opacity="1" stroke-width="2.688"/>
<circle clip-path="url(#clip452)" cx="575.465" cy="222.387" r="14.4" fill="#009af9" fill-rule="evenodd" fill-opacity="1" stroke="#000000" stroke-opacity="1" stroke-width="2.688"/>
<circle clip-path="url(#clip452)" cx="612.265" cy="208.075" r="14.4" fill="#009af9" fill-rule="evenodd" fill-opacity="1" stroke="#000000" stroke-opacity="1" stroke-width="2.688"/>
<circle clip-path="url(#clip452)" cx="649.065" cy="195.822" r="14.4" fill="#009af9" fill-rule="evenodd" fill-opacity="1" stroke="#000000" stroke-opacity="1" stroke-width="2.688"/>
<circle clip-path="url(#clip452)" cx="685.865" cy="185.212" r="14.4" fill="#009af9" fill-rule="evenodd" fill-opacity="1" stroke="#000000" stroke-opacity="1" stroke-width="2.688"/>
<circle clip-path="url(#clip452)" cx="722.665" cy="175.936" r="14.4" fill="#009af9" fill-rule="evenodd" fill-opacity="1" stroke="#000000" stroke-opacity="1" stroke-width="2.688"/>
<circle clip-path="url(#clip452)" cx="759.465" cy="167.757" r="14.4" fill="#009af9" fill-rule="evenodd" fill-opacity="1" stroke="#000000" stroke-opacity="1" stroke-width="2.688"/>
<circle clip-path="url(#clip452)" cx="796.265" cy="160.492" r="14.4" fill="#009af9" fill-rule="evenodd" fill-opacity="1" stroke="#000000" stroke-opacity="1" stroke-width="2.688"/>
<circle clip-path="url(#clip452)" cx="833.064" cy="153.995" r="14.4" fill="#009af9" fill-rule="evenodd" fill-opacity="1" stroke="#000000" stroke-opacity="1" stroke-width="2.688"/>
<circle clip-path="url(#clip452)" cx="869.864" cy="148.15" r="14.4" fill="#009af9" fill-rule="evenodd" fill-opacity="1" stroke="#000000" stroke-opacity="1" stroke-width="2.688"/>
<circle clip-path="url(#clip452)" cx="906.664" cy="142.865" r="14.4" fill="#009af9" fill-rule="evenodd" fill-opacity="1" stroke="#000000" stroke-opacity="1" stroke-width="2.688"/>
<circle clip-path="url(#clip452)" cx="943.464" cy="138.062" r="14.4" fill="#009af9" fill-rule="evenodd" fill-opacity="1" stroke="#000000" stroke-opacity="1" stroke-width="2.688"/>
<circle clip-path="url(#clip452)" cx="980.264" cy="133.678" r="14.4" fill="#009af9" fill-rule="evenodd" fill-opacity="1" stroke="#000000" stroke-opacity="1" stroke-width="2.688"/>
<circle clip-path="url(#clip452)" cx="1017.06" cy="129.661" r="14.4" fill="#009af9" fill-rule="evenodd" fill-opacity="1" stroke="#000000" stroke-opacity="1" stroke-width="2.688"/>
<circle clip-path="url(#clip452)" cx="1053.86" cy="125.966" r="14.4" fill="#009af9" fill-rule="evenodd" fill-opacity="1" stroke="#000000" stroke-opacity="1" stroke-width="2.688"/>
<circle clip-path="url(#clip452)" cx="1090.66" cy="122.557" r="14.4" fill="#009af9" fill-rule="evenodd" fill-opacity="1" stroke="#000000" stroke-opacity="1" stroke-width="2.688"/>
<circle clip-path="url(#clip452)" cx="1127.46" cy="119.4" r="14.4" fill="#009af9" fill-rule="evenodd" fill-opacity="1" stroke="#000000" stroke-opacity="1" stroke-width="2.688"/>
<circle clip-path="url(#clip452)" cx="1164.26" cy="116.47" r="14.4" fill="#009af9" fill-rule="evenodd" fill-opacity="1" stroke="#000000" stroke-opacity="1" stroke-width="2.688"/>
<circle clip-path="url(#clip452)" cx="1201.06" cy="113.743" r="14.4" fill="#009af9" fill-rule="evenodd" fill-opacity="1" stroke="#000000" stroke-opacity="1" stroke-width="2.688"/>
<circle clip-path="url(#clip452)" cx="1237.86" cy="111.198" r="14.4" fill="#009af9" fill-rule="evenodd" fill-opacity="1" stroke="#000000" stroke-opacity="1" stroke-width="2.688"/>
<circle clip-path="url(#clip452)" cx="1274.66" cy="108.818" r="14.4" fill="#009af9" fill-rule="evenodd" fill-opacity="1" stroke="#000000" stroke-opacity="1" stroke-width="2.688"/>
<circle clip-path="url(#clip452)" cx="1311.46" cy="106.587" r="14.4" fill="#009af9" fill-rule="evenodd" fill-opacity="1" stroke="#000000" stroke-opacity="1" stroke-width="2.688"/>
<circle clip-path="url(#clip452)" cx="1348.26" cy="104.491" r="14.4" fill="#009af9" fill-rule="evenodd" fill-opacity="1" stroke="#000000" stroke-opacity="1" stroke-width="2.688"/>
<circle clip-path="url(#clip452)" cx="1385.06" cy="102.519" r="14.4" fill="#009af9" fill-rule="evenodd" fill-opacity="1" stroke="#000000" stroke-opacity="1" stroke-width="2.688"/>
<circle clip-path="url(#clip452)" cx="1421.86" cy="100.66" r="14.4" fill="#009af9" fill-rule="evenodd" fill-opacity="1" stroke="#000000" stroke-opacity="1" stroke-width="2.688"/>
<circle clip-path="url(#clip452)" cx="1458.66" cy="98.9049" r="14.4" fill="#009af9" fill-rule="evenodd" fill-opacity="1" stroke="#000000" stroke-opacity="1" stroke-width="2.688"/>
<circle clip-path="url(#clip452)" cx="1495.46" cy="97.2446" r="14.4" fill="#009af9" fill-rule="evenodd" fill-opacity="1" stroke="#000000" stroke-opacity="1" stroke-width="2.688"/>
<circle clip-path="url(#clip452)" cx="1532.26" cy="95.6718" r="14.4" fill="#009af9" fill-rule="evenodd" fill-opacity="1" stroke="#000000" stroke-opacity="1" stroke-width="2.688"/>
<circle clip-path="url(#clip452)" cx="1569.06" cy="94.1799" r="14.4" fill="#009af9" fill-rule="evenodd" fill-opacity="1" stroke="#000000" stroke-opacity="1" stroke-width="2.688"/>
<circle clip-path="url(#clip452)" cx="1605.86" cy="92.7627" r="14.4" fill="#009af9" fill-rule="evenodd" fill-opacity="1" stroke="#000000" stroke-opacity="1" stroke-width="2.688"/>
<circle clip-path="url(#clip452)" cx="1642.66" cy="91.4148" r="14.4" fill="#009af9" fill-rule="evenodd" fill-opacity="1" stroke="#000000" stroke-opacity="1" stroke-width="2.688"/>
<circle clip-path="url(#clip452)" cx="1679.46" cy="90.1312" r="14.4" fill="#009af9" fill-rule="evenodd" fill-opacity="1" stroke="#000000" stroke-opacity="1" stroke-width="2.688"/>
<circle clip-path="url(#clip452)" cx="1716.26" cy="88.9074" r="14.4" fill="#009af9" fill-rule="evenodd" fill-opacity="1" stroke="#000000" stroke-opacity="1" stroke-width="2.688"/>
<circle clip-path="url(#clip452)" cx="1753.06" cy="87.7394" r="14.4" fill="#009af9" fill-rule="evenodd" fill-opacity="1" stroke="#000000" stroke-opacity="1" stroke-width="2.688"/>
<circle clip-path="url(#clip452)" cx="1789.86" cy="86.6234" r="14.4" fill="#009af9" fill-rule="evenodd" fill-opacity="1" stroke="#000000" stroke-opacity="1" stroke-width="2.688"/>
<circle clip-path="url(#clip452)" cx="1826.66" cy="85.556" r="14.4" fill="#009af9" fill-rule="evenodd" fill-opacity="1" stroke="#000000" stroke-opacity="1" stroke-width="2.688"/>
<circle clip-path="url(#clip452)" cx="1863.46" cy="84.5341" r="14.4" fill="#009af9" fill-rule="evenodd" fill-opacity="1" stroke="#000000" stroke-opacity="1" stroke-width="2.688"/>
<circle clip-path="url(#clip452)" cx="1900.26" cy="83.5548" r="14.4" fill="#009af9" fill-rule="evenodd" fill-opacity="1" stroke="#000000" stroke-opacity="1" stroke-width="2.688"/>
<circle clip-path="url(#clip452)" cx="1937.06" cy="82.6156" r="14.4" fill="#009af9" fill-rule="evenodd" fill-opacity="1" stroke="#000000" stroke-opacity="1" stroke-width="2.688"/>
<circle clip-path="url(#clip452)" cx="1973.86" cy="81.7141" r="14.4" fill="#009af9" fill-rule="evenodd" fill-opacity="1" stroke="#000000" stroke-opacity="1" stroke-width="2.688"/>
<circle clip-path="url(#clip452)" cx="2010.66" cy="80.8479" r="14.4" fill="#009af9" fill-rule="evenodd" fill-opacity="1" stroke="#000000" stroke-opacity="1" stroke-width="2.688"/>
</svg>
