<?xml version="1.0" encoding="utf-8"?>
<svg xmlns="http://www.w3.org/2000/svg" xmlns:xlink="http://www.w3.org/1999/xlink" width="528" height="336" viewBox="0 0 2112 1344">
<defs>
  <clipPath id="clip940">
    <rect x="0" y="0" width="2112" height="1344"/>
  </clipPath>
</defs>
<path clip-path="url(#clip940)" d="M0 1344 L2112 1344 L2112 0 L0 0  Z" fill="#ffffff" fill-rule="evenodd" fill-opacity="1"/>
<defs>
  <clipPath id="clip941">
    <rect x="422" y="0" width="1479" height="1344"/>
  </clipPath>
</defs>
<path clip-path="url(#clip940)" d="M183.047 1234.58 L2064.76 1234.58 L2064.76 47.2441 L183.047 47.2441  Z" fill="#ffffff" fill-rule="evenodd" fill-opacity="1"/>
<defs>
  <clipPath id="clip942">
    <rect x="183" y="47" width="1883" height="1188"/>
  </clipPath>
</defs>
<polyline clip-path="url(#clip942)" style="stroke:#000000; stroke-linecap:round; stroke-linejoin:round; stroke-width:2; stroke-opacity:0.1; fill:none" points="433.547,1234.58 433.547,47.2441 "/>
<polyline clip-path="url(#clip942)" style="stroke:#000000; stroke-linecap:round; stroke-linejoin:round; stroke-width:2; stroke-opacity:0.1; fill:none" points="828.035,1234.58 828.035,47.2441 "/>
<polyline clip-path="url(#clip942)" style="stroke:#000000; stroke-linecap:round; stroke-linejoin:round; stroke-width:2; stroke-opacity:0.1; fill:none" points="1222.52,1234.58 1222.52,47.2441 "/>
<polyline clip-path="url(#clip942)" style="stroke:#000000; stroke-linecap:round; stroke-linejoin:round; stroke-width:2; stroke-opacity:0.1; fill:none" points="1617.01,1234.58 1617.01,47.2441 "/>
<polyline clip-path="url(#clip942)" style="stroke:#000000; stroke-linecap:round; stroke-linejoin:round; stroke-width:2; stroke-opacity:0.1; fill:none" points="2011.5,1234.58 2011.5,47.2441 "/>
<polyline clip-path="url(#clip940)" style="stroke:#000000; stroke-linecap:round; stroke-linejoin:round; stroke-width:4; stroke-opacity:1; fill:none" points="183.047,1234.58 2064.76,1234.58 "/>
<polyline clip-path="url(#clip940)" style="stroke:#000000; stroke-linecap:round; stroke-linejoin:round; stroke-width:4; stroke-opacity:1; fill:none" points="433.547,1234.58 433.547,1215.68 "/>
<polyline clip-path="url(#clip940)" style="stroke:#000000; stroke-linecap:round; stroke-linejoin:round; stroke-width:4; stroke-opacity:1; fill:none" points="828.035,1234.58 828.035,1215.68 "/>
<polyline clip-path="url(#clip940)" style="stroke:#000000; stroke-linecap:round; stroke-linejoin:round; stroke-width:4; stroke-opacity:1; fill:none" points="1222.52,1234.58 1222.52,1215.68 "/>
<polyline clip-path="url(#clip940)" style="stroke:#000000; stroke-linecap:round; stroke-linejoin:round; stroke-width:4; stroke-opacity:1; fill:none" points="1617.01,1234.58 1617.01,1215.68 "/>
<polyline clip-path="url(#clip940)" style="stroke:#000000; stroke-linecap:round; stroke-linejoin:round; stroke-width:4; stroke-opacity:1; fill:none" points="2011.5,1234.58 2011.5,1215.68 "/>
<path clip-path="url(#clip940)" d="M428.2 1290.74 L444.519 1290.74 L444.519 1294.67 L422.575 1294.67 L422.575 1290.74 Q425.237 1287.99 429.82 1283.36 Q434.426 1278.7 435.607 1277.36 Q437.852 1274.84 438.732 1273.1 Q439.635 1271.34 439.635 1269.65 Q439.635 1266.9 437.69 1265.16 Q435.769 1263.42 432.667 1263.42 Q430.468 1263.42 428.014 1264.19 Q425.584 1264.95 422.806 1266.5 L422.806 1261.78 Q425.63 1260.65 428.084 1260.07 Q430.538 1259.49 432.575 1259.49 Q437.945 1259.49 441.139 1262.17 Q444.334 1264.86 444.334 1269.35 Q444.334 1271.48 443.524 1273.4 Q442.737 1275.3 440.63 1277.89 Q440.051 1278.56 436.95 1281.78 Q433.848 1284.98 428.2 1290.74 Z" fill="#000000" fill-rule="nonzero" fill-opacity="1" /><path clip-path="url(#clip940)" d="M831.044 1264.19 L819.239 1282.64 L831.044 1282.64 L831.044 1264.19 M829.818 1260.11 L835.697 1260.11 L835.697 1282.64 L840.628 1282.64 L840.628 1286.53 L835.697 1286.53 L835.697 1294.67 L831.044 1294.67 L831.044 1286.53 L815.443 1286.53 L815.443 1282.01 L829.818 1260.11 Z" fill="#000000" fill-rule="nonzero" fill-opacity="1" /><path clip-path="url(#clip940)" d="M1222.93 1275.53 Q1219.78 1275.53 1217.93 1277.68 Q1216.1 1279.84 1216.1 1283.59 Q1216.1 1287.31 1217.93 1289.49 Q1219.78 1291.64 1222.93 1291.64 Q1226.08 1291.64 1227.91 1289.49 Q1229.76 1287.31 1229.76 1283.59 Q1229.76 1279.84 1227.91 1277.68 Q1226.08 1275.53 1222.93 1275.53 M1232.21 1260.88 L1232.21 1265.14 Q1230.45 1264.3 1228.65 1263.86 Q1226.86 1263.42 1225.1 1263.42 Q1220.47 1263.42 1218.02 1266.55 Q1215.59 1269.67 1215.24 1275.99 Q1216.61 1273.98 1218.67 1272.92 Q1220.73 1271.83 1223.21 1271.83 Q1228.41 1271.83 1231.42 1275 Q1234.46 1278.15 1234.46 1283.59 Q1234.46 1288.91 1231.31 1292.13 Q1228.16 1295.35 1222.93 1295.35 Q1216.93 1295.35 1213.76 1290.76 Q1210.59 1286.16 1210.59 1277.43 Q1210.59 1269.24 1214.48 1264.37 Q1218.37 1259.49 1224.92 1259.49 Q1226.68 1259.49 1228.46 1259.84 Q1230.27 1260.18 1232.21 1260.88 Z" fill="#000000" fill-rule="nonzero" fill-opacity="1" /><path clip-path="url(#clip940)" d="M1617.01 1278.26 Q1613.68 1278.26 1611.76 1280.05 Q1609.86 1281.83 1609.86 1284.95 Q1609.86 1288.08 1611.76 1289.86 Q1613.68 1291.64 1617.01 1291.64 Q1620.35 1291.64 1622.27 1289.86 Q1624.19 1288.05 1624.19 1284.95 Q1624.19 1281.83 1622.27 1280.05 Q1620.37 1278.26 1617.01 1278.26 M1612.34 1276.27 Q1609.33 1275.53 1607.64 1273.47 Q1605.97 1271.41 1605.97 1268.45 Q1605.97 1264.3 1608.91 1261.9 Q1611.87 1259.49 1617.01 1259.49 Q1622.17 1259.49 1625.11 1261.9 Q1628.05 1264.3 1628.05 1268.45 Q1628.05 1271.41 1626.36 1273.47 Q1624.7 1275.53 1621.71 1276.27 Q1625.09 1277.06 1626.97 1279.35 Q1628.86 1281.64 1628.86 1284.95 Q1628.86 1289.98 1625.78 1292.66 Q1622.73 1295.35 1617.01 1295.35 Q1611.29 1295.35 1608.22 1292.66 Q1605.16 1289.98 1605.16 1284.95 Q1605.16 1281.64 1607.06 1279.35 Q1608.96 1277.06 1612.34 1276.27 M1610.62 1268.89 Q1610.62 1271.57 1612.29 1273.08 Q1613.98 1274.58 1617.01 1274.58 Q1620.02 1274.58 1621.71 1273.08 Q1623.42 1271.57 1623.42 1268.89 Q1623.42 1266.2 1621.71 1264.7 Q1620.02 1263.19 1617.01 1263.19 Q1613.98 1263.19 1612.29 1264.7 Q1610.62 1266.2 1610.62 1268.89 Z" fill="#000000" fill-rule="nonzero" fill-opacity="1" /><path clip-path="url(#clip940)" d="M1986.19 1290.74 L1993.83 1290.74 L1993.83 1264.37 L1985.52 1266.04 L1985.52 1261.78 L1993.78 1260.11 L1998.46 1260.11 L1998.46 1290.74 L2006.09 1290.74 L2006.09 1294.67 L1986.19 1294.67 L1986.19 1290.74 Z" fill="#000000" fill-rule="nonzero" fill-opacity="1" /><path clip-path="url(#clip940)" d="M2025.54 1263.19 Q2021.93 1263.19 2020.1 1266.76 Q2018.29 1270.3 2018.29 1277.43 Q2018.29 1284.54 2020.1 1288.1 Q2021.93 1291.64 2025.54 1291.64 Q2029.17 1291.64 2030.98 1288.1 Q2032.81 1284.54 2032.81 1277.43 Q2032.81 1270.3 2030.98 1266.76 Q2029.17 1263.19 2025.54 1263.19 M2025.54 1259.49 Q2031.35 1259.49 2034.4 1264.1 Q2037.48 1268.68 2037.48 1277.43 Q2037.48 1286.16 2034.4 1290.76 Q2031.35 1295.35 2025.54 1295.35 Q2019.73 1295.35 2016.65 1290.76 Q2013.59 1286.16 2013.59 1277.43 Q2013.59 1268.68 2016.65 1264.1 Q2019.73 1259.49 2025.54 1259.49 Z" fill="#000000" fill-rule="nonzero" fill-opacity="1" /><polyline clip-path="url(#clip942)" style="stroke:#000000; stroke-linecap:round; stroke-linejoin:round; stroke-width:2; stroke-opacity:0.1; fill:none" points="183.047,1200.97 2064.76,1200.97 "/>
<polyline clip-path="url(#clip942)" style="stroke:#000000; stroke-linecap:round; stroke-linejoin:round; stroke-width:2; stroke-opacity:0.1; fill:none" points="183.047,920.943 2064.76,920.943 "/>
<polyline clip-path="url(#clip942)" style="stroke:#000000; stroke-linecap:round; stroke-linejoin:round; stroke-width:2; stroke-opacity:0.1; fill:none" points="183.047,640.911 2064.76,640.911 "/>
<polyline clip-path="url(#clip942)" style="stroke:#000000; stroke-linecap:round; stroke-linejoin:round; stroke-width:2; stroke-opacity:0.1; fill:none" points="183.047,360.88 2064.76,360.88 "/>
<polyline clip-path="url(#clip942)" style="stroke:#000000; stroke-linecap:round; stroke-linejoin:round; stroke-width:2; stroke-opacity:0.1; fill:none" points="183.047,80.8479 2064.76,80.8479 "/>
<polyline clip-path="url(#clip940)" style="stroke:#000000; stroke-linecap:round; stroke-linejoin:round; stroke-width:4; stroke-opacity:1; fill:none" points="183.047,1234.58 183.047,47.2441 "/>
<polyline clip-path="url(#clip940)" style="stroke:#000000; stroke-linecap:round; stroke-linejoin:round; stroke-width:4; stroke-opacity:1; fill:none" points="183.047,1200.97 201.944,1200.97 "/>
<polyline clip-path="url(#clip940)" style="stroke:#000000; stroke-linecap:round; stroke-linejoin:round; stroke-width:4; stroke-opacity:1; fill:none" points="183.047,920.943 201.944,920.943 "/>
<polyline clip-path="url(#clip940)" style="stroke:#000000; stroke-linecap:round; stroke-linejoin:round; stroke-width:4; stroke-opacity:1; fill:none" points="183.047,640.911 201.944,640.911 "/>
<polyline clip-path="url(#clip940)" style="stroke:#000000; stroke-linecap:round; stroke-linejoin:round; stroke-width:4; stroke-opacity:1; fill:none" points="183.047,360.88 201.944,360.88 "/>
<polyline clip-path="url(#clip940)" style="stroke:#000000; stroke-linecap:round; stroke-linejoin:round; stroke-width:4; stroke-opacity:1; fill:none" points="183.047,80.8479 201.944,80.8479 "/>
<path clip-path="url(#clip940)" d="M54.8395 1214.32 L62.4784 1214.32 L62.4784 1187.95 L54.1682 1189.62 L54.1682 1185.36 L62.4321 1183.69 L67.108 1183.69 L67.108 1214.32 L74.7468 1214.32 L74.7468 1218.25 L54.8395 1218.25 L54.8395 1214.32 Z" fill="#000000" fill-rule="nonzero" fill-opacity="1" /><path clip-path="url(#clip940)" d="M84.1912 1212.38 L89.0754 1212.38 L89.0754 1218.25 L84.1912 1218.25 L84.1912 1212.38 Z" fill="#000000" fill-rule="nonzero" fill-opacity="1" /><path clip-path="url(#clip940)" d="M109.261 1186.77 Q105.649 1186.77 103.821 1190.34 Q102.015 1193.88 102.015 1201.01 Q102.015 1208.12 103.821 1211.68 Q105.649 1215.22 109.261 1215.22 Q112.895 1215.22 114.7 1211.68 Q116.529 1208.12 116.529 1201.01 Q116.529 1193.88 114.7 1190.34 Q112.895 1186.77 109.261 1186.77 M109.261 1183.07 Q115.071 1183.07 118.126 1187.68 Q121.205 1192.26 121.205 1201.01 Q121.205 1209.74 118.126 1214.34 Q115.071 1218.93 109.261 1218.93 Q103.45 1218.93 100.372 1214.34 Q97.3161 1209.74 97.3161 1201.01 Q97.3161 1192.26 100.372 1187.68 Q103.45 1183.07 109.261 1183.07 Z" fill="#000000" fill-rule="nonzero" fill-opacity="1" /><path clip-path="url(#clip940)" d="M139.422 1186.77 Q135.811 1186.77 133.983 1190.34 Q132.177 1193.88 132.177 1201.01 Q132.177 1208.12 133.983 1211.68 Q135.811 1215.22 139.422 1215.22 Q143.057 1215.22 144.862 1211.68 Q146.691 1208.12 146.691 1201.01 Q146.691 1193.88 144.862 1190.34 Q143.057 1186.77 139.422 1186.77 M139.422 1183.07 Q145.233 1183.07 148.288 1187.68 Q151.367 1192.26 151.367 1201.01 Q151.367 1209.74 148.288 1214.34 Q145.233 1218.93 139.422 1218.93 Q133.612 1218.93 130.534 1214.34 Q127.478 1209.74 127.478 1201.01 Q127.478 1192.26 130.534 1187.68 Q133.612 1183.07 139.422 1183.07 Z" fill="#000000" fill-rule="nonzero" fill-opacity="1" /><path clip-path="url(#clip940)" d="M55.8349 934.288 L63.4737 934.288 L63.4737 907.922 L55.1636 909.589 L55.1636 905.33 L63.4274 903.663 L68.1033 903.663 L68.1033 934.288 L75.7422 934.288 L75.7422 938.223 L55.8349 938.223 L55.8349 934.288 Z" fill="#000000" fill-rule="nonzero" fill-opacity="1" /><path clip-path="url(#clip940)" d="M85.1866 932.344 L90.0708 932.344 L90.0708 938.223 L85.1866 938.223 L85.1866 932.344 Z" fill="#000000" fill-rule="nonzero" fill-opacity="1" /><path clip-path="url(#clip940)" d="M104.284 934.288 L120.603 934.288 L120.603 938.223 L98.6587 938.223 L98.6587 934.288 Q101.321 931.533 105.904 926.904 Q110.511 922.251 111.691 920.908 Q113.936 918.385 114.816 916.649 Q115.719 914.89 115.719 913.2 Q115.719 910.446 113.774 908.709 Q111.853 906.973 108.751 906.973 Q106.552 906.973 104.099 907.737 Q101.668 908.501 98.8902 910.052 L98.8902 905.33 Q101.714 904.196 104.168 903.617 Q106.622 903.038 108.659 903.038 Q114.029 903.038 117.223 905.723 Q120.418 908.409 120.418 912.899 Q120.418 915.029 119.608 916.95 Q118.821 918.848 116.714 921.441 Q116.135 922.112 113.034 925.33 Q109.932 928.524 104.284 934.288 Z" fill="#000000" fill-rule="nonzero" fill-opacity="1" /><path clip-path="url(#clip940)" d="M130.464 903.663 L148.82 903.663 L148.82 907.598 L134.746 907.598 L134.746 916.071 Q135.765 915.723 136.784 915.561 Q137.802 915.376 138.821 915.376 Q144.608 915.376 147.987 918.547 Q151.367 921.719 151.367 927.135 Q151.367 932.714 147.895 935.816 Q144.422 938.894 138.103 938.894 Q135.927 938.894 133.659 938.524 Q131.413 938.154 129.006 937.413 L129.006 932.714 Q131.089 933.848 133.311 934.404 Q135.534 934.959 138.01 934.959 Q142.015 934.959 144.353 932.853 Q146.691 930.746 146.691 927.135 Q146.691 923.524 144.353 921.418 Q142.015 919.311 138.01 919.311 Q136.135 919.311 134.26 919.728 Q132.409 920.145 130.464 921.024 L130.464 903.663 Z" fill="#000000" fill-rule="nonzero" fill-opacity="1" /><path clip-path="url(#clip940)" d="M54.8395 654.256 L62.4784 654.256 L62.4784 627.891 L54.1682 629.557 L54.1682 625.298 L62.4321 623.631 L67.108 623.631 L67.108 654.256 L74.7468 654.256 L74.7468 658.191 L54.8395 658.191 L54.8395 654.256 Z" fill="#000000" fill-rule="nonzero" fill-opacity="1" /><path clip-path="url(#clip940)" d="M84.1912 652.312 L89.0754 652.312 L89.0754 658.191 L84.1912 658.191 L84.1912 652.312 Z" fill="#000000" fill-rule="nonzero" fill-opacity="1" /><path clip-path="url(#clip940)" d="M99.3069 623.631 L117.663 623.631 L117.663 627.567 L103.589 627.567 L103.589 636.039 Q104.608 635.692 105.626 635.53 Q106.645 635.344 107.663 635.344 Q113.45 635.344 116.83 638.516 Q120.21 641.687 120.21 647.104 Q120.21 652.682 116.737 655.784 Q113.265 658.863 106.946 658.863 Q104.77 658.863 102.501 658.492 Q100.256 658.122 97.8485 657.381 L97.8485 652.682 Q99.9319 653.816 102.154 654.372 Q104.376 654.928 106.853 654.928 Q110.858 654.928 113.196 652.821 Q115.534 650.715 115.534 647.104 Q115.534 643.492 113.196 641.386 Q110.858 639.28 106.853 639.28 Q104.978 639.28 103.103 639.696 Q101.251 640.113 99.3069 640.992 L99.3069 623.631 Z" fill="#000000" fill-rule="nonzero" fill-opacity="1" /><path clip-path="url(#clip940)" d="M139.422 626.71 Q135.811 626.71 133.983 630.275 Q132.177 633.817 132.177 640.946 Q132.177 648.053 133.983 651.617 Q135.811 655.159 139.422 655.159 Q143.057 655.159 144.862 651.617 Q146.691 648.053 146.691 640.946 Q146.691 633.817 144.862 630.275 Q143.057 626.71 139.422 626.71 M139.422 623.006 Q145.233 623.006 148.288 627.613 Q151.367 632.196 151.367 640.946 Q151.367 649.673 148.288 654.279 Q145.233 658.863 139.422 658.863 Q133.612 658.863 130.534 654.279 Q127.478 649.673 127.478 640.946 Q127.478 632.196 130.534 627.613 Q133.612 623.006 139.422 623.006 Z" fill="#000000" fill-rule="nonzero" fill-opacity="1" /><path clip-path="url(#clip940)" d="M55.8349 374.225 L63.4737 374.225 L63.4737 347.859 L55.1636 349.526 L55.1636 345.266 L63.4274 343.6 L68.1033 343.6 L68.1033 374.225 L75.7422 374.225 L75.7422 378.16 L55.8349 378.16 L55.8349 374.225 Z" fill="#000000" fill-rule="nonzero" fill-opacity="1" /><path clip-path="url(#clip940)" d="M85.1866 372.28 L90.0708 372.28 L90.0708 378.16 L85.1866 378.16 L85.1866 372.28 Z" fill="#000000" fill-rule="nonzero" fill-opacity="1" /><path clip-path="url(#clip940)" d="M99.0754 343.6 L121.297 343.6 L121.297 345.59 L108.751 378.16 L103.867 378.16 L115.673 347.535 L99.0754 347.535 L99.0754 343.6 Z" fill="#000000" fill-rule="nonzero" fill-opacity="1" /><path clip-path="url(#clip940)" d="M130.464 343.6 L148.82 343.6 L148.82 347.535 L134.746 347.535 L134.746 356.007 Q135.765 355.66 136.784 355.498 Q137.802 355.313 138.821 355.313 Q144.608 355.313 147.987 358.484 Q151.367 361.655 151.367 367.072 Q151.367 372.65 147.895 375.752 Q144.422 378.831 138.103 378.831 Q135.927 378.831 133.659 378.461 Q131.413 378.09 129.006 377.349 L129.006 372.65 Q131.089 373.785 133.311 374.34 Q135.534 374.896 138.01 374.896 Q142.015 374.896 144.353 372.789 Q146.691 370.683 146.691 367.072 Q146.691 363.461 144.353 361.354 Q142.015 359.248 138.01 359.248 Q136.135 359.248 134.26 359.664 Q132.409 360.081 130.464 360.961 L130.464 343.6 Z" fill="#000000" fill-rule="nonzero" fill-opacity="1" /><path clip-path="url(#clip940)" d="M58.0571 94.1927 L74.3765 94.1927 L74.3765 98.1279 L52.4321 98.1279 L52.4321 94.1927 Q55.0941 91.4381 59.6775 86.8085 Q64.2839 82.1558 65.4645 80.8132 Q67.7098 78.29 68.5894 76.5539 Q69.4922 74.7947 69.4922 73.1049 Q69.4922 70.3503 67.5478 68.6142 Q65.6265 66.8781 62.5247 66.8781 Q60.3256 66.8781 57.8719 67.642 Q55.4414 68.4058 52.6636 69.9568 L52.6636 65.2346 Q55.4877 64.1003 57.9414 63.5216 Q60.395 62.9429 62.4321 62.9429 Q67.8024 62.9429 70.9968 65.6281 Q74.1913 68.3133 74.1913 72.804 Q74.1913 74.9336 73.3811 76.8549 Q72.5941 78.753 70.4876 81.3456 Q69.9089 82.0169 66.807 85.2345 Q63.7052 88.4289 58.0571 94.1927 Z" fill="#000000" fill-rule="nonzero" fill-opacity="1" /><path clip-path="url(#clip940)" d="M84.1912 92.2483 L89.0754 92.2483 L89.0754 98.1279 L84.1912 98.1279 L84.1912 92.2483 Z" fill="#000000" fill-rule="nonzero" fill-opacity="1" /><path clip-path="url(#clip940)" d="M109.261 66.6466 Q105.649 66.6466 103.821 70.2114 Q102.015 73.753 102.015 80.8826 Q102.015 87.9891 103.821 91.5539 Q105.649 95.0955 109.261 95.0955 Q112.895 95.0955 114.7 91.5539 Q116.529 87.9891 116.529 80.8826 Q116.529 73.753 114.7 70.2114 Q112.895 66.6466 109.261 66.6466 M109.261 62.9429 Q115.071 62.9429 118.126 67.5494 Q121.205 72.1327 121.205 80.8826 Q121.205 89.6094 118.126 94.2159 Q115.071 98.7992 109.261 98.7992 Q103.45 98.7992 100.372 94.2159 Q97.3161 89.6094 97.3161 80.8826 Q97.3161 72.1327 100.372 67.5494 Q103.45 62.9429 109.261 62.9429 Z" fill="#000000" fill-rule="nonzero" fill-opacity="1" /><path clip-path="url(#clip940)" d="M139.422 66.6466 Q135.811 66.6466 133.983 70.2114 Q132.177 73.753 132.177 80.8826 Q132.177 87.9891 133.983 91.5539 Q135.811 95.0955 139.422 95.0955 Q143.057 95.0955 144.862 91.5539 Q146.691 87.9891 146.691 80.8826 Q146.691 73.753 144.862 70.2114 Q143.057 66.6466 139.422 66.6466 M139.422 62.9429 Q145.233 62.9429 148.288 67.5494 Q151.367 72.1327 151.367 80.8826 Q151.367 89.6094 148.288 94.2159 Q145.233 98.7992 139.422 98.7992 Q133.612 98.7992 130.534 94.2159 Q127.478 89.6094 127.478 80.8826 Q127.478 72.1327 130.534 67.5494 Q133.612 62.9429 139.422 62.9429 Z" fill="#000000" fill-rule="nonzero" fill-opacity="1" /><circle clip-path="url(#clip942)" cx="236.303" cy="1200.97" r="14.4" fill="#009af9" fill-rule="evenodd" fill-opacity="1" stroke="#000000" stroke-opacity="1" stroke-width="2.688"/>
<circle clip-path="url(#clip942)" cx="433.547" cy="80.8479" r="14.4" fill="#009af9" fill-rule="evenodd" fill-opacity="1" stroke="#000000" stroke-opacity="1" stroke-width="2.688"/>
<circle clip-path="url(#clip942)" cx="630.791" cy="640.911" r="14.4" fill="#009af9" fill-rule="evenodd" fill-opacity="1" stroke="#000000" stroke-opacity="1" stroke-width="2.688"/>
<circle clip-path="url(#clip942)" cx="828.035" cy="454.224" r="14.4" fill="#009af9" fill-rule="evenodd" fill-opacity="1" stroke="#000000" stroke-opacity="1" stroke-width="2.688"/>
<circle clip-path="url(#clip942)" cx="1025.28" cy="528.899" r="14.4" fill="#009af9" fill-rule="evenodd" fill-opacity="1" stroke="#000000" stroke-opacity="1" stroke-width="2.688"/>
<circle clip-path="url(#clip942)" cx="1222.52" cy="500.896" r="14.4" fill="#009af9" fill-rule="evenodd" fill-opacity="1" stroke="#000000" stroke-opacity="1" stroke-width="2.688"/>
<circle clip-path="url(#clip942)" cx="1419.77" cy="511.666" r="14.4" fill="#009af9" fill-rule="evenodd" fill-opacity="1" stroke="#000000" stroke-opacity="1" stroke-width="2.688"/>
<circle clip-path="url(#clip942)" cx="1617.01" cy="507.563" r="14.4" fill="#009af9" fill-rule="evenodd" fill-opacity="1" stroke="#000000" stroke-opacity="1" stroke-width="2.688"/>
<circle clip-path="url(#clip942)" cx="1814.26" cy="509.132" r="14.4" fill="#009af9" fill-rule="evenodd" fill-opacity="1" stroke="#000000" stroke-opacity="1" stroke-width="2.688"/>
<circle clip-path="url(#clip942)" cx="2011.5" cy="508.533" r="14.4" fill="#009af9" fill-rule="evenodd" fill-opacity="1" stroke="#000000" stroke-opacity="1" stroke-width="2.688"/>
</svg>
