<?xml version="1.0" encoding="utf-8"?>
<svg xmlns="http://www.w3.org/2000/svg" xmlns:xlink="http://www.w3.org/1999/xlink" width="528" height="336" viewBox="0 0 2112 1344">
<defs>
  <clipPath id="clip680">
    <rect x="0" y="0" width="2112" height="1344"/>
  </clipPath>
</defs>
<path clip-path="url(#clip680)" d="M0 1344 L2112 1344 L2112 0 L0 0  Z" fill="#ffffff" fill-rule="evenodd" fill-opacity="1"/>
<defs>
  <clipPath id="clip681">
    <rect x="422" y="0" width="1479" height="1344"/>
  </clipPath>
</defs>
<defs>
  <clipPath id="clip682">
    <rect x="205" y="47" width="1860" height="1127"/>
  </clipPath>
</defs>
<path clip-path="url(#clip682)" d="M925.743 1356.1 L925.743 1001.94 L1079.1 824.858 L1344.72 927.095 L1344.72 1281.25 L1191.36 1458.33 L925.743 1356.1  Z" fill="#ffffff" fill-rule="evenodd" fill-opacity="1"/>
<polyline clip-path="url(#clip682)" style="stroke:#000000; stroke-linecap:round; stroke-linejoin:round; stroke-width:2; stroke-opacity:0.1; fill:none" points="707.055,956.015 1032.17,674.458 1032.17,111.345 "/>
<polyline clip-path="url(#clip682)" style="stroke:#000000; stroke-linecap:round; stroke-linejoin:round; stroke-width:2; stroke-opacity:0.1; fill:none" points="839.864,994.354 1164.98,712.797 1164.98,149.684 "/>
<polyline clip-path="url(#clip682)" style="stroke:#000000; stroke-linecap:round; stroke-linejoin:round; stroke-width:2; stroke-opacity:0.1; fill:none" points="972.674,1032.69 1297.79,751.136 1297.79,188.022 "/>
<polyline clip-path="url(#clip682)" style="stroke:#000000; stroke-linecap:round; stroke-linejoin:round; stroke-width:2; stroke-opacity:0.1; fill:none" points="1105.48,1071.03 1430.6,789.475 1430.6,226.361 "/>
<polyline clip-path="url(#clip682)" style="stroke:#000000; stroke-linecap:round; stroke-linejoin:round; stroke-width:2; stroke-opacity:0.1; fill:none" points="1238.29,1109.37 1563.41,827.813 1563.41,264.7 "/>
<polyline clip-path="url(#clip680)" style="stroke:#000000; stroke-linecap:round; stroke-linejoin:round; stroke-width:4; stroke-opacity:1; fill:none" points="691.117,951.414 1254.23,1113.97 "/>
<polyline clip-path="url(#clip680)" style="stroke:#000000; stroke-linecap:round; stroke-linejoin:round; stroke-width:4; stroke-opacity:1; fill:none" points="707.055,956.015 710.956,952.636 "/>
<polyline clip-path="url(#clip680)" style="stroke:#000000; stroke-linecap:round; stroke-linejoin:round; stroke-width:4; stroke-opacity:1; fill:none" points="839.864,994.354 843.766,990.975 "/>
<polyline clip-path="url(#clip680)" style="stroke:#000000; stroke-linecap:round; stroke-linejoin:round; stroke-width:4; stroke-opacity:1; fill:none" points="972.674,1032.69 976.575,1029.31 "/>
<polyline clip-path="url(#clip680)" style="stroke:#000000; stroke-linecap:round; stroke-linejoin:round; stroke-width:4; stroke-opacity:1; fill:none" points="1105.48,1071.03 1109.39,1067.65 "/>
<polyline clip-path="url(#clip680)" style="stroke:#000000; stroke-linecap:round; stroke-linejoin:round; stroke-width:4; stroke-opacity:1; fill:none" points="1238.29,1109.37 1242.19,1105.99 "/>
<path clip-path="url(#clip680)" d="M637.835 980.119 L667.511 980.119 L667.511 984.054 L637.835 984.054 L637.835 980.119 Z" fill="#000000" fill-rule="nonzero" fill-opacity="1" /><path clip-path="url(#clip680)" d="M681.631 993.012 L697.951 993.012 L697.951 996.947 L676.006 996.947 L676.006 993.012 Q678.668 990.257 683.252 985.628 Q687.858 980.975 689.039 979.632 Q691.284 977.109 692.164 975.373 Q693.067 973.614 693.067 971.924 Q693.067 969.17 691.122 967.433 Q689.201 965.697 686.099 965.697 Q683.9 965.697 681.446 966.461 Q679.016 967.225 676.238 968.776 L676.238 964.054 Q679.062 962.92 681.516 962.341 Q683.969 961.762 686.006 961.762 Q691.377 961.762 694.571 964.447 Q697.766 967.132 697.766 971.623 Q697.766 973.753 696.955 975.674 Q696.168 977.572 694.062 980.165 Q693.483 980.836 690.381 984.054 Q687.28 987.248 681.631 993.012 Z" fill="#000000" fill-rule="nonzero" fill-opacity="1" /><path clip-path="url(#clip680)" d="M770.275 1018.46 L799.951 1018.46 L799.951 1022.39 L770.275 1022.39 L770.275 1018.46 Z" fill="#000000" fill-rule="nonzero" fill-opacity="1" /><path clip-path="url(#clip680)" d="M810.853 1031.35 L818.492 1031.35 L818.492 1004.99 L810.182 1006.65 L810.182 1002.39 L818.446 1000.73 L823.122 1000.73 L823.122 1031.35 L830.761 1031.35 L830.761 1035.29 L810.853 1035.29 L810.853 1031.35 Z" fill="#000000" fill-rule="nonzero" fill-opacity="1" /><path clip-path="url(#clip680)" d="M951.626 1042.14 Q948.015 1042.14 946.186 1045.71 Q944.381 1049.25 944.381 1056.38 Q944.381 1063.49 946.186 1067.05 Q948.015 1070.59 951.626 1070.59 Q955.26 1070.59 957.066 1067.05 Q958.894 1063.49 958.894 1056.38 Q958.894 1049.25 957.066 1045.71 Q955.26 1042.14 951.626 1042.14 M951.626 1038.44 Q957.436 1038.44 960.492 1043.05 Q963.57 1047.63 963.57 1056.38 Q963.57 1065.11 960.492 1069.71 Q957.436 1074.3 951.626 1074.3 Q945.816 1074.3 942.737 1069.71 Q939.682 1065.11 939.682 1056.38 Q939.682 1047.63 942.737 1043.05 Q945.816 1038.44 951.626 1038.44 Z" fill="#000000" fill-rule="nonzero" fill-opacity="1" /><path clip-path="url(#clip680)" d="M1076.47 1108.03 L1084.11 1108.03 L1084.11 1081.66 L1075.8 1083.33 L1075.8 1079.07 L1084.07 1077.4 L1088.74 1077.4 L1088.74 1108.03 L1096.38 1108.03 L1096.38 1111.96 L1076.47 1111.96 L1076.47 1108.03 Z" fill="#000000" fill-rule="nonzero" fill-opacity="1" /><path clip-path="url(#clip680)" d="M1212.87 1146.37 L1229.19 1146.37 L1229.19 1150.3 L1207.25 1150.3 L1207.25 1146.37 Q1209.91 1143.61 1214.49 1138.98 Q1219.1 1134.33 1220.28 1132.99 Q1222.52 1130.46 1223.4 1128.73 Q1224.31 1126.97 1224.31 1125.28 Q1224.31 1122.52 1222.36 1120.79 Q1220.44 1119.05 1217.34 1119.05 Q1215.14 1119.05 1212.69 1119.82 Q1210.25 1120.58 1207.48 1122.13 L1207.48 1117.41 Q1210.3 1116.28 1212.75 1115.7 Q1215.21 1115.12 1217.25 1115.12 Q1222.62 1115.12 1225.81 1117.8 Q1229 1120.49 1229 1124.98 Q1229 1127.11 1228.19 1129.03 Q1227.41 1130.93 1225.3 1133.52 Q1224.72 1134.19 1221.62 1137.41 Q1218.52 1140.6 1212.87 1146.37 Z" fill="#000000" fill-rule="nonzero" fill-opacity="1" /><path clip-path="url(#clip680)" d="M831.38 1165.32 L838.287 1165.32 L850.095 1182.98 L861.967 1165.32 L868.874 1165.32 L853.596 1188.14 L869.893 1212.84 L862.986 1212.84 L849.618 1192.63 L836.154 1212.84 L829.216 1212.84 L846.18 1187.47 L831.38 1165.32 Z" fill="#000000" fill-rule="nonzero" fill-opacity="1" /><polyline clip-path="url(#clip682)" style="stroke:#000000; stroke-linecap:round; stroke-linejoin:round; stroke-width:2; stroke-opacity:0.1; fill:none" points="1263.43,1106 700.319,943.445 700.319,380.332 "/>
<polyline clip-path="url(#clip682)" style="stroke:#000000; stroke-linecap:round; stroke-linejoin:round; stroke-width:2; stroke-opacity:0.1; fill:none" points="1365.67,1017.46 802.556,854.906 802.556,291.792 "/>
<polyline clip-path="url(#clip682)" style="stroke:#000000; stroke-linecap:round; stroke-linejoin:round; stroke-width:2; stroke-opacity:0.1; fill:none" points="1467.91,928.923 904.793,766.366 904.793,203.252 "/>
<polyline clip-path="url(#clip682)" style="stroke:#000000; stroke-linecap:round; stroke-linejoin:round; stroke-width:2; stroke-opacity:0.1; fill:none" points="1570.14,840.383 1007.03,677.826 1007.03,114.713 "/>
<polyline clip-path="url(#clip680)" style="stroke:#000000; stroke-linecap:round; stroke-linejoin:round; stroke-width:4; stroke-opacity:1; fill:none" points="1254.23,1113.97 1579.34,832.414 "/>
<polyline clip-path="url(#clip680)" style="stroke:#000000; stroke-linecap:round; stroke-linejoin:round; stroke-width:4; stroke-opacity:1; fill:none" points="1263.43,1106 1256.67,1104.05 "/>
<polyline clip-path="url(#clip680)" style="stroke:#000000; stroke-linecap:round; stroke-linejoin:round; stroke-width:4; stroke-opacity:1; fill:none" points="1365.67,1017.46 1358.91,1015.51 "/>
<polyline clip-path="url(#clip680)" style="stroke:#000000; stroke-linecap:round; stroke-linejoin:round; stroke-width:4; stroke-opacity:1; fill:none" points="1467.91,928.923 1461.15,926.972 "/>
<polyline clip-path="url(#clip680)" style="stroke:#000000; stroke-linecap:round; stroke-linejoin:round; stroke-width:4; stroke-opacity:1; fill:none" points="1570.14,840.383 1563.39,838.432 "/>
<path clip-path="url(#clip680)" d="M1294.53 1108.39 Q1290.92 1108.39 1289.09 1111.96 Q1287.29 1115.5 1287.29 1122.63 Q1287.29 1129.73 1289.09 1133.3 Q1290.92 1136.84 1294.53 1136.84 Q1298.17 1136.84 1299.97 1133.3 Q1301.8 1129.73 1301.8 1122.63 Q1301.8 1115.5 1299.97 1111.96 Q1298.17 1108.39 1294.53 1108.39 M1294.53 1104.69 Q1300.34 1104.69 1303.4 1109.3 Q1306.48 1113.88 1306.48 1122.63 Q1306.48 1131.36 1303.4 1135.96 Q1300.34 1140.55 1294.53 1140.55 Q1288.72 1140.55 1285.65 1135.96 Q1282.59 1131.36 1282.59 1122.63 Q1282.59 1113.88 1285.65 1109.3 Q1288.72 1104.69 1294.53 1104.69 Z" fill="#000000" fill-rule="nonzero" fill-opacity="1" /><path clip-path="url(#clip680)" d="M1385.5 1047.4 L1393.14 1047.4 L1393.14 1021.03 L1384.83 1022.7 L1384.83 1018.44 L1393.09 1016.77 L1397.77 1016.77 L1397.77 1047.4 L1405.41 1047.4 L1405.41 1051.33 L1385.5 1051.33 L1385.5 1047.4 Z" fill="#000000" fill-rule="nonzero" fill-opacity="1" /><path clip-path="url(#clip680)" d="M1492.69 958.859 L1509.01 958.859 L1509.01 962.794 L1487.06 962.794 L1487.06 958.859 Q1489.73 956.104 1494.31 951.475 Q1498.92 946.822 1500.1 945.479 Q1502.34 942.956 1503.22 941.22 Q1504.12 939.461 1504.12 937.771 Q1504.12 935.016 1502.18 933.28 Q1500.26 931.544 1497.16 931.544 Q1494.96 931.544 1492.5 932.308 Q1490.07 933.072 1487.3 934.623 L1487.3 929.901 Q1490.12 928.767 1492.57 928.188 Q1495.03 927.609 1497.06 927.609 Q1502.43 927.609 1505.63 930.294 Q1508.82 932.979 1508.82 937.47 Q1508.82 939.6 1508.01 941.521 Q1507.23 943.419 1505.12 946.012 Q1504.54 946.683 1501.44 949.901 Q1498.34 953.095 1492.69 958.859 Z" fill="#000000" fill-rule="nonzero" fill-opacity="1" /><path clip-path="url(#clip680)" d="M1604.93 855.62 Q1608.28 856.338 1610.16 858.606 Q1612.06 860.875 1612.06 864.208 Q1612.06 869.324 1608.54 872.125 Q1605.02 874.926 1598.54 874.926 Q1596.36 874.926 1594.05 874.486 Q1591.76 874.069 1589.3 873.213 L1589.3 868.699 Q1591.25 869.833 1593.56 870.412 Q1595.88 870.99 1598.4 870.99 Q1602.8 870.99 1605.09 869.254 Q1607.4 867.518 1607.4 864.208 Q1607.4 861.153 1605.25 859.44 Q1603.12 857.703 1599.3 857.703 L1595.27 857.703 L1595.27 853.861 L1599.49 853.861 Q1602.94 853.861 1604.76 852.495 Q1606.59 851.106 1606.59 848.514 Q1606.59 845.852 1604.69 844.44 Q1602.82 843.004 1599.3 843.004 Q1597.38 843.004 1595.18 843.421 Q1592.98 843.838 1590.34 844.717 L1590.34 840.551 Q1593.01 839.81 1595.32 839.44 Q1597.66 839.069 1599.72 839.069 Q1605.04 839.069 1608.14 841.5 Q1611.25 843.907 1611.25 848.028 Q1611.25 850.898 1609.6 852.889 Q1607.96 854.856 1604.93 855.62 Z" fill="#000000" fill-rule="nonzero" fill-opacity="1" /><path clip-path="url(#clip680)" d="M1519.87 1105.82 L1526.78 1105.82 L1539.96 1125.36 L1553.04 1105.82 L1559.94 1105.82 L1543.14 1130.71 L1543.14 1153.34 L1536.68 1153.34 L1536.68 1130.71 L1519.87 1105.82 Z" fill="#000000" fill-rule="nonzero" fill-opacity="1" /><polyline clip-path="url(#clip682)" style="stroke:#000000; stroke-linecap:round; stroke-linejoin:round; stroke-width:2; stroke-opacity:0.1; fill:none" points="691.117,935.477 1016.23,653.92 1579.34,816.477 "/>
<polyline clip-path="url(#clip682)" style="stroke:#000000; stroke-linecap:round; stroke-linejoin:round; stroke-width:2; stroke-opacity:0.1; fill:none" points="691.117,829.229 1016.23,547.672 1579.34,710.229 "/>
<polyline clip-path="url(#clip682)" style="stroke:#000000; stroke-linecap:round; stroke-linejoin:round; stroke-width:2; stroke-opacity:0.1; fill:none" points="691.117,722.981 1016.23,441.425 1579.34,603.981 "/>
<polyline clip-path="url(#clip682)" style="stroke:#000000; stroke-linecap:round; stroke-linejoin:round; stroke-width:2; stroke-opacity:0.1; fill:none" points="691.117,616.733 1016.23,335.177 1579.34,497.734 "/>
<polyline clip-path="url(#clip682)" style="stroke:#000000; stroke-linecap:round; stroke-linejoin:round; stroke-width:2; stroke-opacity:0.1; fill:none" points="691.117,510.486 1016.23,228.929 1579.34,391.486 "/>
<polyline clip-path="url(#clip682)" style="stroke:#000000; stroke-linecap:round; stroke-linejoin:round; stroke-width:2; stroke-opacity:0.1; fill:none" points="691.117,404.238 1016.23,122.681 1579.34,285.238 "/>
<polyline clip-path="url(#clip680)" style="stroke:#000000; stroke-linecap:round; stroke-linejoin:round; stroke-width:4; stroke-opacity:1; fill:none" points="691.117,951.414 691.117,388.301 "/>
<polyline clip-path="url(#clip680)" style="stroke:#000000; stroke-linecap:round; stroke-linejoin:round; stroke-width:4; stroke-opacity:1; fill:none" points="691.117,935.477 695.019,932.098 "/>
<polyline clip-path="url(#clip680)" style="stroke:#000000; stroke-linecap:round; stroke-linejoin:round; stroke-width:4; stroke-opacity:1; fill:none" points="691.117,829.229 695.019,825.85 "/>
<polyline clip-path="url(#clip680)" style="stroke:#000000; stroke-linecap:round; stroke-linejoin:round; stroke-width:4; stroke-opacity:1; fill:none" points="691.117,722.981 695.019,719.603 "/>
<polyline clip-path="url(#clip680)" style="stroke:#000000; stroke-linecap:round; stroke-linejoin:round; stroke-width:4; stroke-opacity:1; fill:none" points="691.117,616.733 695.019,613.355 "/>
<polyline clip-path="url(#clip680)" style="stroke:#000000; stroke-linecap:round; stroke-linejoin:round; stroke-width:4; stroke-opacity:1; fill:none" points="691.117,510.486 695.019,507.107 "/>
<polyline clip-path="url(#clip680)" style="stroke:#000000; stroke-linecap:round; stroke-linejoin:round; stroke-width:4; stroke-opacity:1; fill:none" points="691.117,404.238 695.019,400.859 "/>
<path clip-path="url(#clip680)" d="M605.288 935.928 L634.963 935.928 L634.963 939.863 L605.288 939.863 L605.288 935.928 Z" fill="#000000" fill-rule="nonzero" fill-opacity="1" /><path clip-path="url(#clip680)" d="M645.866 948.822 L653.505 948.822 L653.505 922.456 L645.195 924.123 L645.195 919.863 L653.459 918.197 L658.135 918.197 L658.135 948.822 L665.773 948.822 L665.773 952.757 L645.866 952.757 L645.866 948.822 Z" fill="#000000" fill-rule="nonzero" fill-opacity="1" /><path clip-path="url(#clip680)" d="M653.829 815.028 Q650.218 815.028 648.389 818.593 Q646.584 822.134 646.584 829.264 Q646.584 836.37 648.389 839.935 Q650.218 843.477 653.829 843.477 Q657.463 843.477 659.269 839.935 Q661.098 836.37 661.098 829.264 Q661.098 822.134 659.269 818.593 Q657.463 815.028 653.829 815.028 M653.829 811.324 Q659.639 811.324 662.695 815.931 Q665.773 820.514 665.773 829.264 Q665.773 837.991 662.695 842.597 Q659.639 847.18 653.829 847.18 Q648.019 847.18 644.94 842.597 Q641.885 837.991 641.885 829.264 Q641.885 820.514 644.94 815.931 Q648.019 811.324 653.829 811.324 Z" fill="#000000" fill-rule="nonzero" fill-opacity="1" /><path clip-path="url(#clip680)" d="M645.866 736.326 L653.505 736.326 L653.505 709.96 L645.195 711.627 L645.195 707.368 L653.459 705.701 L658.135 705.701 L658.135 736.326 L665.773 736.326 L665.773 740.261 L645.866 740.261 L645.866 736.326 Z" fill="#000000" fill-rule="nonzero" fill-opacity="1" /><path clip-path="url(#clip680)" d="M649.454 630.078 L665.773 630.078 L665.773 634.013 L643.829 634.013 L643.829 630.078 Q646.491 627.324 651.074 622.694 Q655.681 618.041 656.861 616.699 Q659.107 614.176 659.986 612.439 Q660.889 610.68 660.889 608.99 Q660.889 606.236 658.945 604.5 Q657.023 602.764 653.922 602.764 Q651.723 602.764 649.269 603.528 Q646.838 604.291 644.061 605.842 L644.061 601.12 Q646.885 599.986 649.338 599.407 Q651.792 598.828 653.829 598.828 Q659.199 598.828 662.394 601.514 Q665.588 604.199 665.588 608.69 Q665.588 610.819 664.778 612.74 Q663.991 614.639 661.885 617.231 Q661.306 617.902 658.204 621.12 Q655.102 624.314 649.454 630.078 Z" fill="#000000" fill-rule="nonzero" fill-opacity="1" /><path clip-path="url(#clip680)" d="M658.644 509.131 Q662 509.849 663.875 512.118 Q665.773 514.386 665.773 517.719 Q665.773 522.835 662.255 525.636 Q658.736 528.437 652.255 528.437 Q650.079 528.437 647.764 527.997 Q645.473 527.58 643.019 526.724 L643.019 522.21 Q644.963 523.344 647.278 523.923 Q649.593 524.502 652.116 524.502 Q656.514 524.502 658.806 522.766 Q661.121 521.03 661.121 517.719 Q661.121 514.664 658.968 512.951 Q656.838 511.215 653.019 511.215 L648.991 511.215 L648.991 507.372 L653.204 507.372 Q656.653 507.372 658.482 506.007 Q660.311 504.618 660.311 502.025 Q660.311 499.363 658.412 497.951 Q656.537 496.516 653.019 496.516 Q651.098 496.516 648.899 496.932 Q646.699 497.349 644.061 498.229 L644.061 494.062 Q646.723 493.321 649.037 492.951 Q651.375 492.581 653.436 492.581 Q658.76 492.581 661.861 495.011 Q664.963 497.419 664.963 501.539 Q664.963 504.409 663.32 506.4 Q661.676 508.368 658.644 509.131 Z" fill="#000000" fill-rule="nonzero" fill-opacity="1" /><path clip-path="url(#clip680)" d="M656.19 391.032 L644.385 409.481 L656.19 409.481 L656.19 391.032 M654.963 386.958 L660.843 386.958 L660.843 409.481 L665.773 409.481 L665.773 413.37 L660.843 413.37 L660.843 421.518 L656.19 421.518 L656.19 413.37 L640.588 413.37 L640.588 408.856 L654.963 386.958 Z" fill="#000000" fill-rule="nonzero" fill-opacity="1" /><path clip-path="url(#clip680)" d="M505.496 688.525 L505.496 651.19 L510.397 651.19 L547.605 681.236 L547.605 650.458 L553.016 650.458 L553.016 689.257 L548.114 689.257 L510.907 659.211 L510.907 688.525 L505.496 688.525 Z" fill="#000000" fill-rule="nonzero" fill-opacity="1" /><polyline clip-path="url(#clip682)" style="stroke:#009af9; stroke-linecap:round; stroke-linejoin:round; stroke-width:8; stroke-opacity:1; fill:none" points="981.875,902.539 1053.54,793.368 "/>
<polyline clip-path="url(#clip682)" style="stroke:#e26f46; stroke-linecap:round; stroke-linejoin:round; stroke-width:8; stroke-opacity:1; fill:none" points="981.875,902.539 716.256,719.613 "/>
<polyline clip-path="url(#clip682)" style="stroke:#3da44d; stroke-linecap:round; stroke-linejoin:round; stroke-width:8; stroke-opacity:1; fill:none" points="981.875,902.539 1554.21,288.606 "/>
</svg>
