<?xml version="1.0" encoding="utf-8"?>
<svg xmlns="http://www.w3.org/2000/svg" xmlns:xlink="http://www.w3.org/1999/xlink" width="528" height="336" viewBox="0 0 2112 1344">
<defs>
  <clipPath id="clip330">
    <rect x="0" y="0" width="2112" height="1344"/>
  </clipPath>
</defs>
<path clip-path="url(#clip330)" d="M0 1344 L2112 1344 L2112 0 L0 0  Z" fill="#ffffff" fill-rule="evenodd" fill-opacity="1"/>
<defs>
  <clipPath id="clip331">
    <rect x="422" y="0" width="1479" height="1344"/>
  </clipPath>
</defs>
<path clip-path="url(#clip330)" d="M108.001 1234.58 L2064.76 1234.58 L2064.76 47.2441 L108.001 47.2441  Z" fill="#ffffff" fill-rule="evenodd" fill-opacity="1"/>
<defs>
  <clipPath id="clip332">
    <rect x="108" y="47" width="1958" height="1188"/>
  </clipPath>
</defs>
<polyline clip-path="url(#clip332)" style="stroke:#000000; stroke-linecap:round; stroke-linejoin:round; stroke-width:2; stroke-opacity:0.1; fill:none" points="163.381,1234.58 163.381,47.2441 "/>
<polyline clip-path="url(#clip332)" style="stroke:#000000; stroke-linecap:round; stroke-linejoin:round; stroke-width:2; stroke-opacity:0.1; fill:none" points="457.18,1234.58 457.18,47.2441 "/>
<polyline clip-path="url(#clip332)" style="stroke:#000000; stroke-linecap:round; stroke-linejoin:round; stroke-width:2; stroke-opacity:0.1; fill:none" points="750.979,1234.58 750.979,47.2441 "/>
<polyline clip-path="url(#clip332)" style="stroke:#000000; stroke-linecap:round; stroke-linejoin:round; stroke-width:2; stroke-opacity:0.1; fill:none" points="1044.78,1234.58 1044.78,47.2441 "/>
<polyline clip-path="url(#clip332)" style="stroke:#000000; stroke-linecap:round; stroke-linejoin:round; stroke-width:2; stroke-opacity:0.1; fill:none" points="1338.58,1234.58 1338.58,47.2441 "/>
<polyline clip-path="url(#clip332)" style="stroke:#000000; stroke-linecap:round; stroke-linejoin:round; stroke-width:2; stroke-opacity:0.1; fill:none" points="1632.38,1234.58 1632.38,47.2441 "/>
<polyline clip-path="url(#clip332)" style="stroke:#000000; stroke-linecap:round; stroke-linejoin:round; stroke-width:2; stroke-opacity:0.1; fill:none" points="1926.18,1234.58 1926.18,47.2441 "/>
<polyline clip-path="url(#clip332)" style="stroke:#000000; stroke-linecap:round; stroke-linejoin:round; stroke-width:2; stroke-opacity:0.1; fill:none" points="108.001,1234.58 2064.76,1234.58 "/>
<polyline clip-path="url(#clip332)" style="stroke:#000000; stroke-linecap:round; stroke-linejoin:round; stroke-width:2; stroke-opacity:0.1; fill:none" points="108.001,838.801 2064.76,838.801 "/>
<polyline clip-path="url(#clip332)" style="stroke:#000000; stroke-linecap:round; stroke-linejoin:round; stroke-width:2; stroke-opacity:0.1; fill:none" points="108.001,443.022 2064.76,443.022 "/>
<polyline clip-path="url(#clip332)" style="stroke:#000000; stroke-linecap:round; stroke-linejoin:round; stroke-width:2; stroke-opacity:0.1; fill:none" points="108.001,47.2441 2064.76,47.2441 "/>
<polyline clip-path="url(#clip330)" style="stroke:#000000; stroke-linecap:round; stroke-linejoin:round; stroke-width:4; stroke-opacity:1; fill:none" points="108.001,1234.58 2064.76,1234.58 "/>
<polyline clip-path="url(#clip330)" style="stroke:#000000; stroke-linecap:round; stroke-linejoin:round; stroke-width:4; stroke-opacity:1; fill:none" points="163.381,1234.58 163.381,1215.68 "/>
<polyline clip-path="url(#clip330)" style="stroke:#000000; stroke-linecap:round; stroke-linejoin:round; stroke-width:4; stroke-opacity:1; fill:none" points="457.18,1234.58 457.18,1215.68 "/>
<polyline clip-path="url(#clip330)" style="stroke:#000000; stroke-linecap:round; stroke-linejoin:round; stroke-width:4; stroke-opacity:1; fill:none" points="750.979,1234.58 750.979,1215.68 "/>
<polyline clip-path="url(#clip330)" style="stroke:#000000; stroke-linecap:round; stroke-linejoin:round; stroke-width:4; stroke-opacity:1; fill:none" points="1044.78,1234.58 1044.78,1215.68 "/>
<polyline clip-path="url(#clip330)" style="stroke:#000000; stroke-linecap:round; stroke-linejoin:round; stroke-width:4; stroke-opacity:1; fill:none" points="1338.58,1234.58 1338.58,1215.68 "/>
<polyline clip-path="url(#clip330)" style="stroke:#000000; stroke-linecap:round; stroke-linejoin:round; stroke-width:4; stroke-opacity:1; fill:none" points="1632.38,1234.58 1632.38,1215.68 "/>
<polyline clip-path="url(#clip330)" style="stroke:#000000; stroke-linecap:round; stroke-linejoin:round; stroke-width:4; stroke-opacity:1; fill:none" points="1926.18,1234.58 1926.18,1215.68 "/>
<path clip-path="url(#clip330)" d="M163.381 1263.19 Q159.77 1263.19 157.941 1266.76 Q156.135 1270.3 156.135 1277.43 Q156.135 1284.54 157.941 1288.1 Q159.77 1291.64 163.381 1291.64 Q167.015 1291.64 168.821 1288.1 Q170.649 1284.54 170.649 1277.43 Q170.649 1270.3 168.821 1266.76 Q167.015 1263.19 163.381 1263.19 M163.381 1259.49 Q169.191 1259.49 172.246 1264.1 Q175.325 1268.68 175.325 1277.43 Q175.325 1286.16 172.246 1290.76 Q169.191 1295.35 163.381 1295.35 Q157.571 1295.35 154.492 1290.76 Q151.436 1286.16 151.436 1277.43 Q151.436 1268.68 154.492 1264.1 Q157.571 1259.49 163.381 1259.49 Z" fill="#000000" fill-rule="nonzero" fill-opacity="1" /><path clip-path="url(#clip330)" d="M447.562 1290.74 L455.201 1290.74 L455.201 1264.37 L446.891 1266.04 L446.891 1261.78 L455.155 1260.11 L459.83 1260.11 L459.83 1290.74 L467.469 1290.74 L467.469 1294.67 L447.562 1294.67 L447.562 1290.74 Z" fill="#000000" fill-rule="nonzero" fill-opacity="1" /><path clip-path="url(#clip330)" d="M745.632 1290.74 L761.951 1290.74 L761.951 1294.67 L740.007 1294.67 L740.007 1290.74 Q742.669 1287.99 747.252 1283.36 Q751.859 1278.7 753.039 1277.36 Q755.285 1274.84 756.164 1273.1 Q757.067 1271.34 757.067 1269.65 Q757.067 1266.9 755.123 1265.16 Q753.202 1263.42 750.1 1263.42 Q747.901 1263.42 745.447 1264.19 Q743.016 1264.95 740.239 1266.5 L740.239 1261.78 Q743.063 1260.65 745.516 1260.07 Q747.97 1259.49 750.007 1259.49 Q755.377 1259.49 758.572 1262.17 Q761.766 1264.86 761.766 1269.35 Q761.766 1271.48 760.956 1273.4 Q760.169 1275.3 758.063 1277.89 Q757.484 1278.56 754.382 1281.78 Q751.28 1284.98 745.632 1290.74 Z" fill="#000000" fill-rule="nonzero" fill-opacity="1" /><path clip-path="url(#clip330)" d="M1049.03 1276.04 Q1052.38 1276.76 1054.26 1279.03 Q1056.16 1281.3 1056.16 1284.63 Q1056.16 1289.74 1052.64 1292.55 Q1049.12 1295.35 1042.64 1295.35 Q1040.46 1295.35 1038.15 1294.91 Q1035.86 1294.49 1033.4 1293.63 L1033.4 1289.12 Q1035.35 1290.25 1037.66 1290.83 Q1039.98 1291.41 1042.5 1291.41 Q1046.9 1291.41 1049.19 1289.67 Q1051.5 1287.94 1051.5 1284.63 Q1051.5 1281.57 1049.35 1279.86 Q1047.22 1278.12 1043.4 1278.12 L1039.37 1278.12 L1039.37 1274.28 L1043.59 1274.28 Q1047.04 1274.28 1048.86 1272.92 Q1050.69 1271.53 1050.69 1268.93 Q1050.69 1266.27 1048.79 1264.86 Q1046.92 1263.42 1043.4 1263.42 Q1041.48 1263.42 1039.28 1263.84 Q1037.08 1264.26 1034.44 1265.14 L1034.44 1260.97 Q1037.11 1260.23 1039.42 1259.86 Q1041.76 1259.49 1043.82 1259.49 Q1049.14 1259.49 1052.24 1261.92 Q1055.35 1264.33 1055.35 1268.45 Q1055.35 1271.32 1053.7 1273.31 Q1052.06 1275.28 1049.03 1276.04 Z" fill="#000000" fill-rule="nonzero" fill-opacity="1" /><path clip-path="url(#clip330)" d="M1341.59 1264.19 L1329.78 1282.64 L1341.59 1282.64 L1341.59 1264.19 M1340.36 1260.11 L1346.24 1260.11 L1346.24 1282.64 L1351.17 1282.64 L1351.17 1286.53 L1346.24 1286.53 L1346.24 1294.67 L1341.59 1294.67 L1341.59 1286.53 L1325.99 1286.53 L1325.99 1282.01 L1340.36 1260.11 Z" fill="#000000" fill-rule="nonzero" fill-opacity="1" /><path clip-path="url(#clip330)" d="M1622.65 1260.11 L1641.01 1260.11 L1641.01 1264.05 L1626.94 1264.05 L1626.94 1272.52 Q1627.96 1272.17 1628.97 1272.01 Q1629.99 1271.83 1631.01 1271.83 Q1636.8 1271.83 1640.18 1275 Q1643.56 1278.17 1643.56 1283.59 Q1643.56 1289.17 1640.09 1292.27 Q1636.61 1295.35 1630.29 1295.35 Q1628.12 1295.35 1625.85 1294.98 Q1623.6 1294.61 1621.2 1293.86 L1621.2 1289.17 Q1623.28 1290.3 1625.5 1290.86 Q1627.72 1291.41 1630.2 1291.41 Q1634.21 1291.41 1636.54 1289.3 Q1638.88 1287.2 1638.88 1283.59 Q1638.88 1279.98 1636.54 1277.87 Q1634.21 1275.76 1630.2 1275.76 Q1628.33 1275.76 1626.45 1276.18 Q1624.6 1276.6 1622.65 1277.48 L1622.65 1260.11 Z" fill="#000000" fill-rule="nonzero" fill-opacity="1" /><path clip-path="url(#clip330)" d="M1926.58 1275.53 Q1923.43 1275.53 1921.58 1277.68 Q1919.75 1279.84 1919.75 1283.59 Q1919.75 1287.31 1921.58 1289.49 Q1923.43 1291.64 1926.58 1291.64 Q1929.73 1291.64 1931.56 1289.49 Q1933.41 1287.31 1933.41 1283.59 Q1933.41 1279.84 1931.56 1277.68 Q1929.73 1275.53 1926.58 1275.53 M1935.86 1260.88 L1935.86 1265.14 Q1934.1 1264.3 1932.3 1263.86 Q1930.52 1263.42 1928.76 1263.42 Q1924.13 1263.42 1921.67 1266.55 Q1919.24 1269.67 1918.9 1275.99 Q1920.26 1273.98 1922.32 1272.92 Q1924.38 1271.83 1926.86 1271.83 Q1932.07 1271.83 1935.08 1275 Q1938.11 1278.15 1938.11 1283.59 Q1938.11 1288.91 1934.96 1292.13 Q1931.81 1295.35 1926.58 1295.35 Q1920.59 1295.35 1917.41 1290.76 Q1914.24 1286.16 1914.24 1277.43 Q1914.24 1269.24 1918.13 1264.37 Q1922.02 1259.49 1928.57 1259.49 Q1930.33 1259.49 1932.11 1259.84 Q1933.92 1260.18 1935.86 1260.88 Z" fill="#000000" fill-rule="nonzero" fill-opacity="1" /><polyline clip-path="url(#clip330)" style="stroke:#000000; stroke-linecap:round; stroke-linejoin:round; stroke-width:4; stroke-opacity:1; fill:none" points="108.001,1234.58 108.001,47.2441 "/>
<polyline clip-path="url(#clip330)" style="stroke:#000000; stroke-linecap:round; stroke-linejoin:round; stroke-width:4; stroke-opacity:1; fill:none" points="108.001,1234.58 126.899,1234.58 "/>
<polyline clip-path="url(#clip330)" style="stroke:#000000; stroke-linecap:round; stroke-linejoin:round; stroke-width:4; stroke-opacity:1; fill:none" points="108.001,838.801 126.899,838.801 "/>
<polyline clip-path="url(#clip330)" style="stroke:#000000; stroke-linecap:round; stroke-linejoin:round; stroke-width:4; stroke-opacity:1; fill:none" points="108.001,443.022 126.899,443.022 "/>
<polyline clip-path="url(#clip330)" style="stroke:#000000; stroke-linecap:round; stroke-linejoin:round; stroke-width:4; stroke-opacity:1; fill:none" points="108.001,47.2441 126.899,47.2441 "/>
<path clip-path="url(#clip330)" d="M64.3765 1220.38 Q60.7654 1220.38 58.9367 1223.94 Q57.1312 1227.48 57.1312 1234.61 Q57.1312 1241.72 58.9367 1245.28 Q60.7654 1248.83 64.3765 1248.83 Q68.0107 1248.83 69.8163 1245.28 Q71.645 1241.72 71.645 1234.61 Q71.645 1227.48 69.8163 1223.94 Q68.0107 1220.38 64.3765 1220.38 M64.3765 1216.67 Q70.1867 1216.67 73.2422 1221.28 Q76.3209 1225.86 76.3209 1234.61 Q76.3209 1243.34 73.2422 1247.95 Q70.1867 1252.53 64.3765 1252.53 Q58.5664 1252.53 55.4877 1247.95 Q52.4321 1243.34 52.4321 1234.61 Q52.4321 1225.86 55.4877 1221.28 Q58.5664 1216.67 64.3765 1216.67 Z" fill="#000000" fill-rule="nonzero" fill-opacity="1" /><path clip-path="url(#clip330)" d="M56.4136 852.145 L64.0524 852.145 L64.0524 825.78 L55.7423 827.446 L55.7423 823.187 L64.0061 821.521 L68.682 821.521 L68.682 852.145 L76.3209 852.145 L76.3209 856.081 L56.4136 856.081 L56.4136 852.145 Z" fill="#000000" fill-rule="nonzero" fill-opacity="1" /><path clip-path="url(#clip330)" d="M60.0015 456.367 L76.3209 456.367 L76.3209 460.302 L54.3766 460.302 L54.3766 456.367 Q57.0386 453.613 61.6219 448.983 Q66.2283 444.33 67.4089 442.988 Q69.6543 440.464 70.5339 438.728 Q71.4367 436.969 71.4367 435.279 Q71.4367 432.525 69.4922 430.789 Q67.5709 429.052 64.4691 429.052 Q62.27 429.052 59.8163 429.816 Q57.3858 430.58 54.608 432.131 L54.608 427.409 Q57.4321 426.275 59.8858 425.696 Q62.3395 425.117 64.3765 425.117 Q69.7468 425.117 72.9413 427.802 Q76.1357 430.488 76.1357 434.978 Q76.1357 437.108 75.3255 439.029 Q74.5385 440.927 72.432 443.52 Q71.8533 444.191 68.7515 447.409 Q65.6496 450.603 60.0015 456.367 Z" fill="#000000" fill-rule="nonzero" fill-opacity="1" /><path clip-path="url(#clip330)" d="M69.1913 45.8899 Q72.5478 46.6075 74.4227 48.876 Q76.3209 51.1445 76.3209 54.4779 Q76.3209 59.5936 72.8024 62.3945 Q69.2839 65.1954 62.8024 65.1954 Q60.6265 65.1954 58.3117 64.7556 Q56.0201 64.3389 53.5664 63.4824 L53.5664 58.9686 Q55.5108 60.1028 57.8256 60.6815 Q60.1404 61.2602 62.6636 61.2602 Q67.0617 61.2602 69.3533 59.5241 Q71.6681 57.788 71.6681 54.4779 Q71.6681 51.4223 69.5154 49.7094 Q67.3857 47.9733 63.5663 47.9733 L59.5386 47.9733 L59.5386 44.1307 L63.7515 44.1307 Q67.2006 44.1307 69.0293 42.765 Q70.858 41.3761 70.858 38.7835 Q70.858 36.1215 68.9598 34.7094 Q67.0848 33.2743 63.5663 33.2743 Q61.645 33.2743 59.446 33.6909 Q57.2469 34.1076 54.608 34.9872 L54.608 30.8206 Q57.2701 30.0798 59.5849 29.7095 Q61.9228 29.3391 63.983 29.3391 Q69.307 29.3391 72.4089 31.7696 Q75.5107 34.177 75.5107 38.2974 Q75.5107 41.1677 73.8672 43.1585 Q72.2237 45.1261 69.1913 45.8899 Z" fill="#000000" fill-rule="nonzero" fill-opacity="1" /><path clip-path="url(#clip332)" d="M163.381 443.022 L168.406 436.253 L173.432 429.485 L178.458 422.721 L183.484 415.963 L210.816 379.399 L238.149 343.385 L265.482 308.233 L292.814 274.247 L322.827 238.621 L352.839 205.127 L367.859 189.274 L382.879 174.084 L397.899 159.598 L412.919 145.852 L428.001 132.83 L443.083 120.626 L458.165 109.271 L473.247 98.7956 L487.243 89.8853 L501.239 81.7762 L515.235 74.4868 L529.231 68.0335 L544.384 62.0062 L559.537 56.9923 L574.69 53.005 L589.843 50.055 L607.38 47.9459 L624.918 47.2441 L642.455 47.952 L659.992 50.0672 L673.26 52.5981 L686.528 55.9251 L699.796 60.0414 L713.064 64.9386 L729.099 71.885 L745.134 79.9367 L761.169 89.0697 L777.204 99.2567 L793.918 110.964 L810.631 123.746 L827.345 137.56 L844.059 152.363 L857.417 164.874 L870.776 177.959 L884.135 191.592 L897.494 205.745 L913.858 223.747 L930.223 242.43 L946.588 261.735 L962.952 281.602 L996.166 323.398 L1029.38 366.721 L1088.48 445.853 L1142.62 518.326 L1179.16 565.936 L1215.69 611.649 L1243.33 644.543 L1270.98 675.654 L1285.4 691.083 L1299.82 705.915 L1314.24 720.114 L1328.66 733.645 L1345.59 748.64 L1362.53 762.62 L1379.46 775.538 L1396.4 787.351 L1410.25 796.166 L1424.1 804.195 L1437.96 811.422 L1451.81 817.83 L1467.63 824.128 L1483.45 829.322 L1499.27 833.396 L1515.09 836.338 L1529.63 838.037 L1544.16 838.769 L1558.7 838.532 L1573.24 837.326 L1590.87 834.57 L1608.5 830.406 L1626.12 824.847 L1643.75 817.914 L1658.26 811.194 L1672.77 803.576 L1687.28 795.079 L1701.79 785.723 L1718.37 774.008 L1734.96 761.238 L1751.54 747.454 L1768.13 732.7 L1793.97 707.889 L1819.81 681.031 L1836.31 662.906 L1852.81 644.089 L1869.31 624.638 L1885.81 604.614 L1913.79 569.524 L1941.77 533.287 L1969.76 496.232 L1997.74 458.695 L2000.65 454.778 L2003.56 450.86 L2006.47 446.941 L2009.38 443.022 L2009.38 1234.58 L2006.47 1234.58 L2003.56 1234.58 L2000.65 1234.58 L1997.74 1234.58 L1969.76 1234.58 L1941.77 1234.58 L1913.79 1234.58 L1885.81 1234.58 L1869.31 1234.58 L1852.81 1234.58 L1836.31 1234.58 L1819.81 1234.58 L1793.97 1234.58 L1768.13 1234.58 L1751.54 1234.58 L1734.96 1234.58 L1718.37 1234.58 L1701.79 1234.58 L1687.28 1234.58 L1672.77 1234.58 L1658.26 1234.58 L1643.75 1234.58 L1626.12 1234.58 L1608.5 1234.58 L1590.87 1234.58 L1573.24 1234.58 L1558.7 1234.58 L1544.16 1234.58 L1529.63 1234.58 L1515.09 1234.58 L1499.27 1234.58 L1483.45 1234.58 L1467.63 1234.58 L1451.81 1234.58 L1437.96 1234.58 L1424.1 1234.58 L1410.25 1234.58 L1396.4 1234.58 L1379.46 1234.58 L1362.53 1234.58 L1345.59 1234.58 L1328.66 1234.58 L1314.24 1234.58 L1299.82 1234.58 L1285.4 1234.58 L1270.98 1234.58 L1243.33 1234.58 L1215.69 1234.58 L1179.16 1234.58 L1142.62 1234.58 L1088.48 1234.58 L1029.38 1234.58 L996.166 1234.58 L962.952 1234.58 L946.588 1234.58 L930.223 1234.58 L913.858 1234.58 L897.494 1234.58 L884.135 1234.58 L870.776 1234.58 L857.417 1234.58 L844.059 1234.58 L827.345 1234.58 L810.631 1234.58 L793.918 1234.58 L777.204 1234.58 L761.169 1234.58 L745.134 1234.58 L729.099 1234.58 L713.064 1234.58 L699.796 1234.58 L686.528 1234.58 L673.26 1234.58 L659.992 1234.58 L642.455 1234.58 L624.918 1234.58 L607.38 1234.58 L589.843 1234.58 L574.69 1234.58 L559.537 1234.58 L544.384 1234.58 L529.231 1234.58 L515.235 1234.58 L501.239 1234.58 L487.243 1234.58 L473.247 1234.58 L458.165 1234.58 L443.083 1234.58 L428.001 1234.58 L412.919 1234.58 L397.899 1234.58 L382.879 1234.58 L367.859 1234.58 L352.839 1234.58 L322.827 1234.58 L292.814 1234.58 L265.482 1234.58 L238.149 1234.58 L210.816 1234.58 L183.484 1234.58 L178.458 1234.58 L173.432 1234.58 L168.406 1234.58 L163.381 1234.58  Z" fill="#009af9" fill-rule="evenodd" fill-opacity="0.3"/>
<polyline clip-path="url(#clip332)" style="stroke:#009af9; stroke-linecap:round; stroke-linejoin:round; stroke-width:4; stroke-opacity:1; fill:none" points="163.381,443.022 168.406,436.253 173.432,429.485 178.458,422.721 183.484,415.963 210.816,379.399 238.149,343.385 265.482,308.233 292.814,274.247 322.827,238.621 352.839,205.127 367.859,189.274 382.879,174.084 397.899,159.598 412.919,145.852 428.001,132.83 443.083,120.626 458.165,109.271 473.247,98.7956 487.243,89.8853 501.239,81.7762 515.235,74.4868 529.231,68.0335 544.384,62.0062 559.537,56.9923 574.69,53.005 589.843,50.055 607.38,47.9459 624.918,47.2441 642.455,47.952 659.992,50.0672 673.26,52.5981 686.528,55.9251 699.796,60.0414 713.064,64.9386 729.099,71.885 745.134,79.9367 761.169,89.0697 777.204,99.2567 793.918,110.964 810.631,123.746 827.345,137.56 844.059,152.363 857.417,164.874 870.776,177.959 884.135,191.592 897.494,205.745 913.858,223.747 930.223,242.43 946.588,261.735 962.952,281.602 996.166,323.398 1029.38,366.721 1088.48,445.853 1142.62,518.326 1179.16,565.936 1215.69,611.649 1243.33,644.543 1270.98,675.654 1285.4,691.083 1299.82,705.915 1314.24,720.114 1328.66,733.645 1345.59,748.64 1362.53,762.62 1379.46,775.538 1396.4,787.351 1410.25,796.166 1424.1,804.195 1437.96,811.422 1451.81,817.83 1467.63,824.128 1483.45,829.322 1499.27,833.396 1515.09,836.338 1529.63,838.037 1544.16,838.769 1558.7,838.532 1573.24,837.326 1590.87,834.57 1608.5,830.406 1626.12,824.847 1643.75,817.914 1658.26,811.194 1672.77,803.576 1687.28,795.079 1701.79,785.723 1718.37,774.008 1734.96,761.238 1751.54,747.454 1768.13,732.7 1793.97,707.889 1819.81,681.031 1836.31,662.906 1852.81,644.089 1869.31,624.638 1885.81,604.614 1913.79,569.524 1941.77,533.287 1969.76,496.232 1997.74,458.695 2000.65,454.778 2003.56,450.86 2006.47,446.941 2009.38,443.022 "/>
</svg>
