<?xml version="1.0" encoding="utf-8"?>
<svg xmlns="http://www.w3.org/2000/svg" xmlns:xlink="http://www.w3.org/1999/xlink" width="528" height="336" viewBox="0 0 2112 1344">
<defs>
  <clipPath id="clip140">
    <rect x="0" y="0" width="2112" height="1344"/>
  </clipPath>
</defs>
<path clip-path="url(#clip140)" d="M0 1344 L2112 1344 L2112 0 L0 0  Z" fill="#ffffff" fill-rule="evenodd" fill-opacity="1"/>
<defs>
  <clipPath id="clip141">
    <rect x="422" y="0" width="1479" height="1344"/>
  </clipPath>
</defs>
<path clip-path="url(#clip140)" d="M183.394 1234.58 L2064.76 1234.58 L2064.76 47.2441 L183.394 47.2441  Z" fill="#ffffff" fill-rule="evenodd" fill-opacity="1"/>
<defs>
  <clipPath id="clip142">
    <rect x="183" y="47" width="1882" height="1188"/>
  </clipPath>
</defs>
<polyline clip-path="url(#clip142)" style="stroke:#000000; stroke-linecap:round; stroke-linejoin:round; stroke-width:2; stroke-opacity:0.1; fill:none" points="236.64,1234.58 236.64,47.2441 "/>
<polyline clip-path="url(#clip142)" style="stroke:#000000; stroke-linecap:round; stroke-linejoin:round; stroke-width:2; stroke-opacity:0.1; fill:none" points="680.358,1234.58 680.358,47.2441 "/>
<polyline clip-path="url(#clip142)" style="stroke:#000000; stroke-linecap:round; stroke-linejoin:round; stroke-width:2; stroke-opacity:0.1; fill:none" points="1124.07,1234.58 1124.07,47.2441 "/>
<polyline clip-path="url(#clip142)" style="stroke:#000000; stroke-linecap:round; stroke-linejoin:round; stroke-width:2; stroke-opacity:0.1; fill:none" points="1567.79,1234.58 1567.79,47.2441 "/>
<polyline clip-path="url(#clip142)" style="stroke:#000000; stroke-linecap:round; stroke-linejoin:round; stroke-width:2; stroke-opacity:0.1; fill:none" points="2011.51,1234.58 2011.51,47.2441 "/>
<polyline clip-path="url(#clip140)" style="stroke:#000000; stroke-linecap:round; stroke-linejoin:round; stroke-width:4; stroke-opacity:1; fill:none" points="183.394,1234.58 2064.76,1234.58 "/>
<polyline clip-path="url(#clip140)" style="stroke:#000000; stroke-linecap:round; stroke-linejoin:round; stroke-width:4; stroke-opacity:1; fill:none" points="236.64,1234.58 236.64,1215.68 "/>
<polyline clip-path="url(#clip140)" style="stroke:#000000; stroke-linecap:round; stroke-linejoin:round; stroke-width:4; stroke-opacity:1; fill:none" points="680.358,1234.58 680.358,1215.68 "/>
<polyline clip-path="url(#clip140)" style="stroke:#000000; stroke-linecap:round; stroke-linejoin:round; stroke-width:4; stroke-opacity:1; fill:none" points="1124.07,1234.58 1124.07,1215.68 "/>
<polyline clip-path="url(#clip140)" style="stroke:#000000; stroke-linecap:round; stroke-linejoin:round; stroke-width:4; stroke-opacity:1; fill:none" points="1567.79,1234.58 1567.79,1215.68 "/>
<polyline clip-path="url(#clip140)" style="stroke:#000000; stroke-linecap:round; stroke-linejoin:round; stroke-width:4; stroke-opacity:1; fill:none" points="2011.51,1234.58 2011.51,1215.68 "/>
<path clip-path="url(#clip140)" d="M214.024 1263.19 Q210.413 1263.19 208.585 1266.76 Q206.779 1270.3 206.779 1277.43 Q206.779 1284.54 208.585 1288.1 Q210.413 1291.64 214.024 1291.64 Q217.659 1291.64 219.464 1288.1 Q221.293 1284.54 221.293 1277.43 Q221.293 1270.3 219.464 1266.76 Q217.659 1263.19 214.024 1263.19 M214.024 1259.49 Q219.835 1259.49 222.89 1264.1 Q225.969 1268.68 225.969 1277.43 Q225.969 1286.16 222.89 1290.76 Q219.835 1295.35 214.024 1295.35 Q208.214 1295.35 205.136 1290.76 Q202.08 1286.16 202.08 1277.43 Q202.08 1268.68 205.136 1264.1 Q208.214 1259.49 214.024 1259.49 Z" fill="#000000" fill-rule="nonzero" fill-opacity="1" /><path clip-path="url(#clip140)" d="M234.186 1288.8 L239.071 1288.8 L239.071 1294.67 L234.186 1294.67 L234.186 1288.8 Z" fill="#000000" fill-rule="nonzero" fill-opacity="1" /><path clip-path="url(#clip140)" d="M259.256 1263.19 Q255.645 1263.19 253.816 1266.76 Q252.01 1270.3 252.01 1277.43 Q252.01 1284.54 253.816 1288.1 Q255.645 1291.64 259.256 1291.64 Q262.89 1291.64 264.695 1288.1 Q266.524 1284.54 266.524 1277.43 Q266.524 1270.3 264.695 1266.76 Q262.89 1263.19 259.256 1263.19 M259.256 1259.49 Q265.066 1259.49 268.121 1264.1 Q271.2 1268.68 271.2 1277.43 Q271.2 1286.16 268.121 1290.76 Q265.066 1295.35 259.256 1295.35 Q253.446 1295.35 250.367 1290.76 Q247.311 1286.16 247.311 1277.43 Q247.311 1268.68 250.367 1264.1 Q253.446 1259.49 259.256 1259.49 Z" fill="#000000" fill-rule="nonzero" fill-opacity="1" /><path clip-path="url(#clip140)" d="M652.094 1290.74 L668.413 1290.74 L668.413 1294.67 L646.469 1294.67 L646.469 1290.74 Q649.131 1287.99 653.714 1283.36 Q658.321 1278.7 659.501 1277.36 Q661.747 1274.84 662.626 1273.1 Q663.529 1271.34 663.529 1269.65 Q663.529 1266.9 661.584 1265.16 Q659.663 1263.42 656.561 1263.42 Q654.362 1263.42 651.909 1264.19 Q649.478 1264.95 646.7 1266.5 L646.7 1261.78 Q649.524 1260.65 651.978 1260.07 Q654.432 1259.49 656.469 1259.49 Q661.839 1259.49 665.034 1262.17 Q668.228 1264.86 668.228 1269.35 Q668.228 1271.48 667.418 1273.4 Q666.631 1275.3 664.524 1277.89 Q663.946 1278.56 660.844 1281.78 Q657.742 1284.98 652.094 1290.74 Z" fill="#000000" fill-rule="nonzero" fill-opacity="1" /><path clip-path="url(#clip140)" d="M678.228 1288.8 L683.112 1288.8 L683.112 1294.67 L678.228 1294.67 L678.228 1288.8 Z" fill="#000000" fill-rule="nonzero" fill-opacity="1" /><path clip-path="url(#clip140)" d="M693.344 1260.11 L711.7 1260.11 L711.7 1264.05 L697.626 1264.05 L697.626 1272.52 Q698.644 1272.17 699.663 1272.01 Q700.681 1271.83 701.7 1271.83 Q707.487 1271.83 710.867 1275 Q714.246 1278.17 714.246 1283.59 Q714.246 1289.17 710.774 1292.27 Q707.302 1295.35 700.982 1295.35 Q698.806 1295.35 696.538 1294.98 Q694.293 1294.61 691.885 1293.86 L691.885 1289.17 Q693.969 1290.3 696.191 1290.86 Q698.413 1291.41 700.89 1291.41 Q704.894 1291.41 707.232 1289.3 Q709.57 1287.2 709.57 1283.59 Q709.57 1279.98 707.232 1277.87 Q704.894 1275.76 700.89 1275.76 Q699.015 1275.76 697.14 1276.18 Q695.288 1276.6 693.344 1277.48 L693.344 1260.11 Z" fill="#000000" fill-rule="nonzero" fill-opacity="1" /><path clip-path="url(#clip140)" d="M1091.24 1260.11 L1109.6 1260.11 L1109.6 1264.05 L1095.52 1264.05 L1095.52 1272.52 Q1096.54 1272.17 1097.56 1272.01 Q1098.58 1271.83 1099.6 1271.83 Q1105.38 1271.83 1108.76 1275 Q1112.14 1278.17 1112.14 1283.59 Q1112.14 1289.17 1108.67 1292.27 Q1105.2 1295.35 1098.88 1295.35 Q1096.7 1295.35 1094.43 1294.98 Q1092.19 1294.61 1089.78 1293.86 L1089.78 1289.17 Q1091.86 1290.3 1094.09 1290.86 Q1096.31 1291.41 1098.79 1291.41 Q1102.79 1291.41 1105.13 1289.3 Q1107.47 1287.2 1107.47 1283.59 Q1107.47 1279.98 1105.13 1277.87 Q1102.79 1275.76 1098.79 1275.76 Q1096.91 1275.76 1095.04 1276.18 Q1093.18 1276.6 1091.24 1277.48 L1091.24 1260.11 Z" fill="#000000" fill-rule="nonzero" fill-opacity="1" /><path clip-path="url(#clip140)" d="M1121.36 1288.8 L1126.24 1288.8 L1126.24 1294.67 L1121.36 1294.67 L1121.36 1288.8 Z" fill="#000000" fill-rule="nonzero" fill-opacity="1" /><path clip-path="url(#clip140)" d="M1146.42 1263.19 Q1142.81 1263.19 1140.98 1266.76 Q1139.18 1270.3 1139.18 1277.43 Q1139.18 1284.54 1140.98 1288.1 Q1142.81 1291.64 1146.42 1291.64 Q1150.06 1291.64 1151.86 1288.1 Q1153.69 1284.54 1153.69 1277.43 Q1153.69 1270.3 1151.86 1266.76 Q1150.06 1263.19 1146.42 1263.19 M1146.42 1259.49 Q1152.23 1259.49 1155.29 1264.1 Q1158.37 1268.68 1158.37 1277.43 Q1158.37 1286.16 1155.29 1290.76 Q1152.23 1295.35 1146.42 1295.35 Q1140.61 1295.35 1137.54 1290.76 Q1134.48 1286.16 1134.48 1277.43 Q1134.48 1268.68 1137.54 1264.1 Q1140.61 1259.49 1146.42 1259.49 Z" fill="#000000" fill-rule="nonzero" fill-opacity="1" /><path clip-path="url(#clip140)" d="M1534.11 1260.11 L1556.33 1260.11 L1556.33 1262.11 L1543.79 1294.67 L1538.9 1294.67 L1550.71 1264.05 L1534.11 1264.05 L1534.11 1260.11 Z" fill="#000000" fill-rule="nonzero" fill-opacity="1" /><path clip-path="url(#clip140)" d="M1565.45 1288.8 L1570.34 1288.8 L1570.34 1294.67 L1565.45 1294.67 L1565.45 1288.8 Z" fill="#000000" fill-rule="nonzero" fill-opacity="1" /><path clip-path="url(#clip140)" d="M1580.57 1260.11 L1598.93 1260.11 L1598.93 1264.05 L1584.85 1264.05 L1584.85 1272.52 Q1585.87 1272.17 1586.89 1272.01 Q1587.91 1271.83 1588.93 1271.83 Q1594.71 1271.83 1598.09 1275 Q1601.47 1278.17 1601.47 1283.59 Q1601.47 1289.17 1598 1292.27 Q1594.53 1295.35 1588.21 1295.35 Q1586.03 1295.35 1583.76 1294.98 Q1581.52 1294.61 1579.11 1293.86 L1579.11 1289.17 Q1581.2 1290.3 1583.42 1290.86 Q1585.64 1291.41 1588.12 1291.41 Q1592.12 1291.41 1594.46 1289.3 Q1596.8 1287.2 1596.8 1283.59 Q1596.8 1279.98 1594.46 1277.87 Q1592.12 1275.76 1588.12 1275.76 Q1586.24 1275.76 1584.37 1276.18 Q1582.51 1276.6 1580.57 1277.48 L1580.57 1260.11 Z" fill="#000000" fill-rule="nonzero" fill-opacity="1" /><path clip-path="url(#clip140)" d="M1963.58 1290.74 L1971.22 1290.74 L1971.22 1264.37 L1962.91 1266.04 L1962.91 1261.78 L1971.17 1260.11 L1975.85 1260.11 L1975.85 1290.74 L1983.49 1290.74 L1983.49 1294.67 L1963.58 1294.67 L1963.58 1290.74 Z" fill="#000000" fill-rule="nonzero" fill-opacity="1" /><path clip-path="url(#clip140)" d="M2002.93 1263.19 Q1999.32 1263.19 1997.49 1266.76 Q1995.69 1270.3 1995.69 1277.43 Q1995.69 1284.54 1997.49 1288.1 Q1999.32 1291.64 2002.93 1291.64 Q2006.57 1291.64 2008.37 1288.1 Q2010.2 1284.54 2010.2 1277.43 Q2010.2 1270.3 2008.37 1266.76 Q2006.57 1263.19 2002.93 1263.19 M2002.93 1259.49 Q2008.74 1259.49 2011.8 1264.1 Q2014.88 1268.68 2014.88 1277.43 Q2014.88 1286.16 2011.8 1290.76 Q2008.74 1295.35 2002.93 1295.35 Q1997.12 1295.35 1994.04 1290.76 Q1990.99 1286.16 1990.99 1277.43 Q1990.99 1268.68 1994.04 1264.1 Q1997.12 1259.49 2002.93 1259.49 Z" fill="#000000" fill-rule="nonzero" fill-opacity="1" /><path clip-path="url(#clip140)" d="M2023.1 1288.8 L2027.98 1288.8 L2027.98 1294.67 L2023.1 1294.67 L2023.1 1288.8 Z" fill="#000000" fill-rule="nonzero" fill-opacity="1" /><path clip-path="url(#clip140)" d="M2048.16 1263.19 Q2044.55 1263.19 2042.72 1266.76 Q2040.92 1270.3 2040.92 1277.43 Q2040.92 1284.54 2042.72 1288.1 Q2044.55 1291.64 2048.16 1291.64 Q2051.8 1291.64 2053.6 1288.1 Q2055.43 1284.54 2055.43 1277.43 Q2055.43 1270.3 2053.6 1266.76 Q2051.8 1263.19 2048.16 1263.19 M2048.16 1259.49 Q2053.97 1259.49 2057.03 1264.1 Q2060.11 1268.68 2060.11 1277.43 Q2060.11 1286.16 2057.03 1290.76 Q2053.97 1295.35 2048.16 1295.35 Q2042.35 1295.35 2039.28 1290.76 Q2036.22 1286.16 2036.22 1277.43 Q2036.22 1268.68 2039.28 1264.1 Q2042.35 1259.49 2048.16 1259.49 Z" fill="#000000" fill-rule="nonzero" fill-opacity="1" /><polyline clip-path="url(#clip142)" style="stroke:#000000; stroke-linecap:round; stroke-linejoin:round; stroke-width:2; stroke-opacity:0.1; fill:none" points="183.394,1200.97 2064.76,1200.97 "/>
<polyline clip-path="url(#clip142)" style="stroke:#000000; stroke-linecap:round; stroke-linejoin:round; stroke-width:2; stroke-opacity:0.1; fill:none" points="183.394,920.943 2064.76,920.943 "/>
<polyline clip-path="url(#clip142)" style="stroke:#000000; stroke-linecap:round; stroke-linejoin:round; stroke-width:2; stroke-opacity:0.1; fill:none" points="183.394,640.911 2064.76,640.911 "/>
<polyline clip-path="url(#clip142)" style="stroke:#000000; stroke-linecap:round; stroke-linejoin:round; stroke-width:2; stroke-opacity:0.1; fill:none" points="183.394,360.88 2064.76,360.88 "/>
<polyline clip-path="url(#clip142)" style="stroke:#000000; stroke-linecap:round; stroke-linejoin:round; stroke-width:2; stroke-opacity:0.1; fill:none" points="183.394,80.8479 2064.76,80.8479 "/>
<polyline clip-path="url(#clip140)" style="stroke:#000000; stroke-linecap:round; stroke-linejoin:round; stroke-width:4; stroke-opacity:1; fill:none" points="183.394,1234.58 183.394,47.2441 "/>
<polyline clip-path="url(#clip140)" style="stroke:#000000; stroke-linecap:round; stroke-linejoin:round; stroke-width:4; stroke-opacity:1; fill:none" points="183.394,1200.97 202.292,1200.97 "/>
<polyline clip-path="url(#clip140)" style="stroke:#000000; stroke-linecap:round; stroke-linejoin:round; stroke-width:4; stroke-opacity:1; fill:none" points="183.394,920.943 202.292,920.943 "/>
<polyline clip-path="url(#clip140)" style="stroke:#000000; stroke-linecap:round; stroke-linejoin:round; stroke-width:4; stroke-opacity:1; fill:none" points="183.394,640.911 202.292,640.911 "/>
<polyline clip-path="url(#clip140)" style="stroke:#000000; stroke-linecap:round; stroke-linejoin:round; stroke-width:4; stroke-opacity:1; fill:none" points="183.394,360.88 202.292,360.88 "/>
<polyline clip-path="url(#clip140)" style="stroke:#000000; stroke-linecap:round; stroke-linejoin:round; stroke-width:4; stroke-opacity:1; fill:none" points="183.394,80.8479 202.292,80.8479 "/>
<path clip-path="url(#clip140)" d="M64.3765 1186.77 Q60.7654 1186.77 58.9367 1190.34 Q57.1312 1193.88 57.1312 1201.01 Q57.1312 1208.12 58.9367 1211.68 Q60.7654 1215.22 64.3765 1215.22 Q68.0107 1215.22 69.8163 1211.68 Q71.645 1208.12 71.645 1201.01 Q71.645 1193.88 69.8163 1190.34 Q68.0107 1186.77 64.3765 1186.77 M64.3765 1183.07 Q70.1867 1183.07 73.2422 1187.68 Q76.3209 1192.26 76.3209 1201.01 Q76.3209 1209.74 73.2422 1214.34 Q70.1867 1218.93 64.3765 1218.93 Q58.5664 1218.93 55.4877 1214.34 Q52.4321 1209.74 52.4321 1201.01 Q52.4321 1192.26 55.4877 1187.68 Q58.5664 1183.07 64.3765 1183.07 Z" fill="#000000" fill-rule="nonzero" fill-opacity="1" /><path clip-path="url(#clip140)" d="M84.5384 1212.38 L89.4227 1212.38 L89.4227 1218.25 L84.5384 1218.25 L84.5384 1212.38 Z" fill="#000000" fill-rule="nonzero" fill-opacity="1" /><path clip-path="url(#clip140)" d="M109.608 1186.77 Q105.997 1186.77 104.168 1190.34 Q102.362 1193.88 102.362 1201.01 Q102.362 1208.12 104.168 1211.68 Q105.997 1215.22 109.608 1215.22 Q113.242 1215.22 115.048 1211.68 Q116.876 1208.12 116.876 1201.01 Q116.876 1193.88 115.048 1190.34 Q113.242 1186.77 109.608 1186.77 M109.608 1183.07 Q115.418 1183.07 118.473 1187.68 Q121.552 1192.26 121.552 1201.01 Q121.552 1209.74 118.473 1214.34 Q115.418 1218.93 109.608 1218.93 Q103.798 1218.93 100.719 1214.34 Q97.6634 1209.74 97.6634 1201.01 Q97.6634 1192.26 100.719 1187.68 Q103.798 1183.07 109.608 1183.07 Z" fill="#000000" fill-rule="nonzero" fill-opacity="1" /><path clip-path="url(#clip140)" d="M139.77 1186.77 Q136.159 1186.77 134.33 1190.34 Q132.524 1193.88 132.524 1201.01 Q132.524 1208.12 134.33 1211.68 Q136.159 1215.22 139.77 1215.22 Q143.404 1215.22 145.209 1211.68 Q147.038 1208.12 147.038 1201.01 Q147.038 1193.88 145.209 1190.34 Q143.404 1186.77 139.77 1186.77 M139.77 1183.07 Q145.58 1183.07 148.635 1187.68 Q151.714 1192.26 151.714 1201.01 Q151.714 1209.74 148.635 1214.34 Q145.58 1218.93 139.77 1218.93 Q133.959 1218.93 130.881 1214.34 Q127.825 1209.74 127.825 1201.01 Q127.825 1192.26 130.881 1187.68 Q133.959 1183.07 139.77 1183.07 Z" fill="#000000" fill-rule="nonzero" fill-opacity="1" /><path clip-path="url(#clip140)" d="M65.3719 906.742 Q61.7608 906.742 59.9321 910.307 Q58.1265 913.848 58.1265 920.978 Q58.1265 928.084 59.9321 931.649 Q61.7608 935.191 65.3719 935.191 Q69.0061 935.191 70.8117 931.649 Q72.6404 928.084 72.6404 920.978 Q72.6404 913.848 70.8117 910.307 Q69.0061 906.742 65.3719 906.742 M65.3719 903.038 Q71.182 903.038 74.2376 907.645 Q77.3163 912.228 77.3163 920.978 Q77.3163 929.705 74.2376 934.311 Q71.182 938.894 65.3719 938.894 Q59.5617 938.894 56.483 934.311 Q53.4275 929.705 53.4275 920.978 Q53.4275 912.228 56.483 907.645 Q59.5617 903.038 65.3719 903.038 Z" fill="#000000" fill-rule="nonzero" fill-opacity="1" /><path clip-path="url(#clip140)" d="M85.5338 932.344 L90.418 932.344 L90.418 938.223 L85.5338 938.223 L85.5338 932.344 Z" fill="#000000" fill-rule="nonzero" fill-opacity="1" /><path clip-path="url(#clip140)" d="M104.631 934.288 L120.95 934.288 L120.95 938.223 L99.006 938.223 L99.006 934.288 Q101.668 931.533 106.251 926.904 Q110.858 922.251 112.038 920.908 Q114.284 918.385 115.163 916.649 Q116.066 914.89 116.066 913.2 Q116.066 910.446 114.122 908.709 Q112.2 906.973 109.098 906.973 Q106.899 906.973 104.446 907.737 Q102.015 908.501 99.2374 910.052 L99.2374 905.33 Q102.061 904.196 104.515 903.617 Q106.969 903.038 109.006 903.038 Q114.376 903.038 117.571 905.723 Q120.765 908.409 120.765 912.899 Q120.765 915.029 119.955 916.95 Q119.168 918.848 117.061 921.441 Q116.483 922.112 113.381 925.33 Q110.279 928.524 104.631 934.288 Z" fill="#000000" fill-rule="nonzero" fill-opacity="1" /><path clip-path="url(#clip140)" d="M130.811 903.663 L149.168 903.663 L149.168 907.598 L135.094 907.598 L135.094 916.071 Q136.112 915.723 137.131 915.561 Q138.149 915.376 139.168 915.376 Q144.955 915.376 148.334 918.547 Q151.714 921.719 151.714 927.135 Q151.714 932.714 148.242 935.816 Q144.77 938.894 138.45 938.894 Q136.274 938.894 134.006 938.524 Q131.76 938.154 129.353 937.413 L129.353 932.714 Q131.436 933.848 133.659 934.404 Q135.881 934.959 138.358 934.959 Q142.362 934.959 144.7 932.853 Q147.038 930.746 147.038 927.135 Q147.038 923.524 144.7 921.418 Q142.362 919.311 138.358 919.311 Q136.483 919.311 134.608 919.728 Q132.756 920.145 130.811 921.024 L130.811 903.663 Z" fill="#000000" fill-rule="nonzero" fill-opacity="1" /><path clip-path="url(#clip140)" d="M64.3765 626.71 Q60.7654 626.71 58.9367 630.275 Q57.1312 633.817 57.1312 640.946 Q57.1312 648.053 58.9367 651.617 Q60.7654 655.159 64.3765 655.159 Q68.0107 655.159 69.8163 651.617 Q71.645 648.053 71.645 640.946 Q71.645 633.817 69.8163 630.275 Q68.0107 626.71 64.3765 626.71 M64.3765 623.006 Q70.1867 623.006 73.2422 627.613 Q76.3209 632.196 76.3209 640.946 Q76.3209 649.673 73.2422 654.279 Q70.1867 658.863 64.3765 658.863 Q58.5664 658.863 55.4877 654.279 Q52.4321 649.673 52.4321 640.946 Q52.4321 632.196 55.4877 627.613 Q58.5664 623.006 64.3765 623.006 Z" fill="#000000" fill-rule="nonzero" fill-opacity="1" /><path clip-path="url(#clip140)" d="M84.5384 652.312 L89.4227 652.312 L89.4227 658.191 L84.5384 658.191 L84.5384 652.312 Z" fill="#000000" fill-rule="nonzero" fill-opacity="1" /><path clip-path="url(#clip140)" d="M99.6541 623.631 L118.01 623.631 L118.01 627.567 L103.936 627.567 L103.936 636.039 Q104.955 635.692 105.974 635.53 Q106.992 635.344 108.011 635.344 Q113.798 635.344 117.177 638.516 Q120.557 641.687 120.557 647.104 Q120.557 652.682 117.085 655.784 Q113.612 658.863 107.293 658.863 Q105.117 658.863 102.849 658.492 Q100.603 658.122 98.1958 657.381 L98.1958 652.682 Q100.279 653.816 102.501 654.372 Q104.724 654.928 107.2 654.928 Q111.205 654.928 113.543 652.821 Q115.881 650.715 115.881 647.104 Q115.881 643.492 113.543 641.386 Q111.205 639.28 107.2 639.28 Q105.325 639.28 103.45 639.696 Q101.599 640.113 99.6541 640.992 L99.6541 623.631 Z" fill="#000000" fill-rule="nonzero" fill-opacity="1" /><path clip-path="url(#clip140)" d="M139.77 626.71 Q136.159 626.71 134.33 630.275 Q132.524 633.817 132.524 640.946 Q132.524 648.053 134.33 651.617 Q136.159 655.159 139.77 655.159 Q143.404 655.159 145.209 651.617 Q147.038 648.053 147.038 640.946 Q147.038 633.817 145.209 630.275 Q143.404 626.71 139.77 626.71 M139.77 623.006 Q145.58 623.006 148.635 627.613 Q151.714 632.196 151.714 640.946 Q151.714 649.673 148.635 654.279 Q145.58 658.863 139.77 658.863 Q133.959 658.863 130.881 654.279 Q127.825 649.673 127.825 640.946 Q127.825 632.196 130.881 627.613 Q133.959 623.006 139.77 623.006 Z" fill="#000000" fill-rule="nonzero" fill-opacity="1" /><path clip-path="url(#clip140)" d="M65.3719 346.678 Q61.7608 346.678 59.9321 350.243 Q58.1265 353.785 58.1265 360.914 Q58.1265 368.021 59.9321 371.586 Q61.7608 375.127 65.3719 375.127 Q69.0061 375.127 70.8117 371.586 Q72.6404 368.021 72.6404 360.914 Q72.6404 353.785 70.8117 350.243 Q69.0061 346.678 65.3719 346.678 M65.3719 342.975 Q71.182 342.975 74.2376 347.581 Q77.3163 352.164 77.3163 360.914 Q77.3163 369.641 74.2376 374.248 Q71.182 378.831 65.3719 378.831 Q59.5617 378.831 56.483 374.248 Q53.4275 369.641 53.4275 360.914 Q53.4275 352.164 56.483 347.581 Q59.5617 342.975 65.3719 342.975 Z" fill="#000000" fill-rule="nonzero" fill-opacity="1" /><path clip-path="url(#clip140)" d="M85.5338 372.28 L90.418 372.28 L90.418 378.16 L85.5338 378.16 L85.5338 372.28 Z" fill="#000000" fill-rule="nonzero" fill-opacity="1" /><path clip-path="url(#clip140)" d="M99.4226 343.6 L121.645 343.6 L121.645 345.59 L109.098 378.16 L104.214 378.16 L116.02 347.535 L99.4226 347.535 L99.4226 343.6 Z" fill="#000000" fill-rule="nonzero" fill-opacity="1" /><path clip-path="url(#clip140)" d="M130.811 343.6 L149.168 343.6 L149.168 347.535 L135.094 347.535 L135.094 356.007 Q136.112 355.66 137.131 355.498 Q138.149 355.313 139.168 355.313 Q144.955 355.313 148.334 358.484 Q151.714 361.655 151.714 367.072 Q151.714 372.65 148.242 375.752 Q144.77 378.831 138.45 378.831 Q136.274 378.831 134.006 378.461 Q131.76 378.09 129.353 377.349 L129.353 372.65 Q131.436 373.785 133.659 374.34 Q135.881 374.896 138.358 374.896 Q142.362 374.896 144.7 372.789 Q147.038 370.683 147.038 367.072 Q147.038 363.461 144.7 361.354 Q142.362 359.248 138.358 359.248 Q136.483 359.248 134.608 359.664 Q132.756 360.081 130.811 360.961 L130.811 343.6 Z" fill="#000000" fill-rule="nonzero" fill-opacity="1" /><path clip-path="url(#clip140)" d="M55.1867 94.1927 L62.8256 94.1927 L62.8256 67.8271 L54.5154 69.4938 L54.5154 65.2346 L62.7793 63.5679 L67.4552 63.5679 L67.4552 94.1927 L75.094 94.1927 L75.094 98.1279 L55.1867 98.1279 L55.1867 94.1927 Z" fill="#000000" fill-rule="nonzero" fill-opacity="1" /><path clip-path="url(#clip140)" d="M84.5384 92.2483 L89.4227 92.2483 L89.4227 98.1279 L84.5384 98.1279 L84.5384 92.2483 Z" fill="#000000" fill-rule="nonzero" fill-opacity="1" /><path clip-path="url(#clip140)" d="M109.608 66.6466 Q105.997 66.6466 104.168 70.2114 Q102.362 73.753 102.362 80.8826 Q102.362 87.9891 104.168 91.5539 Q105.997 95.0955 109.608 95.0955 Q113.242 95.0955 115.048 91.5539 Q116.876 87.9891 116.876 80.8826 Q116.876 73.753 115.048 70.2114 Q113.242 66.6466 109.608 66.6466 M109.608 62.9429 Q115.418 62.9429 118.473 67.5494 Q121.552 72.1327 121.552 80.8826 Q121.552 89.6094 118.473 94.2159 Q115.418 98.7992 109.608 98.7992 Q103.798 98.7992 100.719 94.2159 Q97.6634 89.6094 97.6634 80.8826 Q97.6634 72.1327 100.719 67.5494 Q103.798 62.9429 109.608 62.9429 Z" fill="#000000" fill-rule="nonzero" fill-opacity="1" /><path clip-path="url(#clip140)" d="M139.77 66.6466 Q136.159 66.6466 134.33 70.2114 Q132.524 73.753 132.524 80.8826 Q132.524 87.9891 134.33 91.5539 Q136.159 95.0955 139.77 95.0955 Q143.404 95.0955 145.209 91.5539 Q147.038 87.9891 147.038 80.8826 Q147.038 73.753 145.209 70.2114 Q143.404 66.6466 139.77 66.6466 M139.77 62.9429 Q145.58 62.9429 148.635 67.5494 Q151.714 72.1327 151.714 80.8826 Q151.714 89.6094 148.635 94.2159 Q145.58 98.7992 139.77 98.7992 Q133.959 98.7992 130.881 94.2159 Q127.825 89.6094 127.825 80.8826 Q127.825 72.1327 130.881 67.5494 Q133.959 62.9429 139.77 62.9429 Z" fill="#000000" fill-rule="nonzero" fill-opacity="1" /><path clip-path="url(#clip142)" d="M236.64 80.8479 L239.529 98.9319 L242.418 116.724 L245.307 134.229 L248.195 151.451 L254.873 190.205 L261.551 227.529 L268.229 263.474 L274.907 298.092 L281.585 331.431 L288.263 363.54 L294.941 394.462 L301.619 424.243 L308.296 452.925 L314.974 480.547 L321.652 507.149 L328.33 532.769 L335.008 557.443 L341.686 581.206 L348.364 604.091 L355.042 626.131 L363.068 651.548 L371.094 675.84 L379.12 699.059 L387.147 721.251 L395.173 742.462 L403.199 762.734 L411.225 782.111 L419.252 800.631 L432.824 830.103 L446.396 857.406 L459.968 882.699 L473.54 906.13 L488.284 929.632 L503.027 951.261 L517.77 971.165 L532.513 989.484 L546.105 1005.07 L559.697 1019.52 L573.289 1032.89 L586.881 1045.29 L601.453 1057.56 L616.025 1068.86 L630.597 1079.27 L645.169 1088.87 L662.052 1099.04 L678.935 1108.29 L695.818 1116.7 L712.701 1124.35 L742.709 1136.27 L772.716 1146.33 L799.03 1153.86 L825.343 1160.35 L854.033 1166.42 L882.722 1171.57 L911.581 1175.99 L940.441 1179.74 L1004.26 1186.15 L1064.98 1190.45 L1128.11 1193.6 L1181.26 1195.51 L1246.14 1197.18 L1305.58 1198.26 L1360.47 1198.98 L1416.08 1199.52 L1478.4 1199.95 L1534.87 1200.23 L1599.53 1200.46 L1659.4 1200.61 L1718.42 1200.71 L1775.73 1200.78 L1834.47 1200.84 L1898.83 1200.88 L1992.33 1200.92 L2011.51 1200.92 L2011.51 1200.97 L1992.33 1200.97 L1898.83 1200.97 L1834.47 1200.97 L1775.73 1200.97 L1718.42 1200.97 L1659.4 1200.97 L1599.53 1200.97 L1534.87 1200.97 L1478.4 1200.97 L1416.08 1200.97 L1360.47 1200.97 L1305.58 1200.97 L1246.14 1200.97 L1181.26 1200.97 L1128.11 1200.97 L1064.98 1200.97 L1004.26 1200.97 L940.441 1200.97 L911.581 1200.97 L882.722 1200.97 L854.033 1200.97 L825.343 1200.97 L799.03 1200.97 L772.716 1200.97 L742.709 1200.97 L712.701 1200.97 L695.818 1200.97 L678.935 1200.97 L662.052 1200.97 L645.169 1200.97 L630.597 1200.97 L616.025 1200.97 L601.453 1200.97 L586.881 1200.97 L573.289 1200.97 L559.697 1200.97 L546.105 1200.97 L532.513 1200.97 L517.77 1200.97 L503.027 1200.97 L488.284 1200.97 L473.54 1200.97 L459.968 1200.97 L446.396 1200.97 L432.824 1200.97 L419.252 1200.97 L411.225 1200.97 L403.199 1200.97 L395.173 1200.97 L387.147 1200.97 L379.12 1200.97 L371.094 1200.97 L363.068 1200.97 L355.042 1200.97 L348.364 1200.97 L341.686 1200.97 L335.008 1200.97 L328.33 1200.97 L321.652 1200.97 L314.974 1200.97 L308.296 1200.97 L301.619 1200.97 L294.941 1200.97 L288.263 1200.97 L281.585 1200.97 L274.907 1200.97 L268.229 1200.97 L261.551 1200.97 L254.873 1200.97 L248.195 1200.97 L245.307 1200.97 L242.418 1200.97 L239.529 1200.97 L236.64 1200.97  Z" fill="#009af9" fill-rule="evenodd" fill-opacity="0.3"/>
<polyline clip-path="url(#clip142)" style="stroke:#009af9; stroke-linecap:round; stroke-linejoin:round; stroke-width:4; stroke-opacity:1; fill:none" points="236.64,80.8479 239.529,98.9319 242.418,116.724 245.307,134.229 248.195,151.451 254.873,190.205 261.551,227.529 268.229,263.474 274.907,298.092 281.585,331.431 288.263,363.54 294.941,394.462 301.619,424.243 308.296,452.925 314.974,480.547 321.652,507.149 328.33,532.769 335.008,557.443 341.686,581.206 348.364,604.091 355.042,626.131 363.068,651.548 371.094,675.84 379.12,699.059 387.147,721.251 395.173,742.462 403.199,762.734 411.225,782.111 419.252,800.631 432.824,830.103 446.396,857.406 459.968,882.699 473.54,906.13 488.284,929.632 503.027,951.261 517.77,971.165 532.513,989.484 546.105,1005.07 559.697,1019.52 573.289,1032.89 586.881,1045.29 601.453,1057.56 616.025,1068.86 630.597,1079.27 645.169,1088.87 662.052,1099.04 678.935,1108.29 695.818,1116.7 712.701,1124.35 742.709,1136.27 772.716,1146.33 799.03,1153.86 825.343,1160.35 854.033,1166.42 882.722,1171.57 911.581,1175.99 940.441,1179.74 1004.26,1186.15 1064.98,1190.45 1128.11,1193.6 1181.26,1195.51 1246.14,1197.18 1305.58,1198.26 1360.47,1198.98 1416.08,1199.52 1478.4,1199.95 1534.87,1200.23 1599.53,1200.46 1659.4,1200.61 1718.42,1200.71 1775.73,1200.78 1834.47,1200.84 1898.83,1200.88 1992.33,1200.92 2011.51,1200.92 "/>
<path clip-path="url(#clip140)" d="M1584.91 190.502 L2002.04 190.502 L2002.04 86.8219 L1584.91 86.8219  Z" fill="#ffffff" fill-rule="evenodd" fill-opacity="1"/>
<polyline clip-path="url(#clip140)" style="stroke:#000000; stroke-linecap:round; stroke-linejoin:round; stroke-width:4; stroke-opacity:1; fill:none" points="1584.91,190.502 2002.04,190.502 2002.04,86.8219 1584.91,86.8219 1584.91,190.502 "/>
<path clip-path="url(#clip140)" d="M1605.81 159.398 L1731.24 159.398 L1731.24 117.926 L1605.81 117.926 L1605.81 159.398  Z" fill="#009af9" fill-rule="evenodd" fill-opacity="0.3"/>
<polyline clip-path="url(#clip140)" style="stroke:#009af9; stroke-linecap:round; stroke-linejoin:round; stroke-width:4; stroke-opacity:1; fill:none" points="1605.81,117.926 1731.24,117.926 "/>
<path clip-path="url(#clip140)" d="M1776.05 120.016 Q1776.05 121.304 1775.23 122.1 Q1774.44 122.897 1773.43 122.897 Q1772.7 122.897 1772.17 122.452 Q1771.65 122.007 1771.65 121.234 Q1771.65 120.437 1772.26 119.594 Q1772.87 118.751 1774.25 118.634 Q1773.34 117.767 1771.88 117.767 Q1771.16 117.767 1770.55 118.235 Q1769.96 118.681 1769.64 119.407 Q1769.29 120.156 1768.49 124.396 Q1768.23 125.778 1768 127.113 Q1767.76 128.448 1767.48 129.853 L1771.46 129.853 Q1771.98 129.853 1772.19 129.876 Q1772.4 129.9 1772.56 130.017 Q1772.75 130.134 1772.75 130.392 Q1772.75 131.048 1772.45 131.212 Q1772.17 131.352 1771.32 131.352 L1767.2 131.352 L1764.32 146.553 Q1764.25 146.998 1763.94 148.404 Q1763.66 149.786 1762.98 152.058 Q1762.31 154.353 1761.63 155.711 Q1761.25 156.484 1760.76 157.21 Q1760.29 157.96 1759.61 158.709 Q1758.93 159.459 1758.04 159.904 Q1757.15 160.372 1756.22 160.372 Q1754.62 160.372 1753.38 159.482 Q1752.14 158.592 1752.14 157.07 Q1752.14 155.782 1752.94 154.985 Q1753.76 154.189 1754.76 154.189 Q1755.49 154.189 1756 154.634 Q1756.54 155.079 1756.54 155.852 Q1756.54 156.18 1756.43 156.555 Q1756.31 156.929 1756.05 157.351 Q1755.79 157.796 1755.23 158.1 Q1754.67 158.405 1753.9 158.452 Q1754.81 159.318 1756.22 159.318 Q1756.66 159.318 1757.06 159.131 Q1757.46 158.967 1757.78 158.546 Q1758.14 158.124 1758.39 157.702 Q1758.65 157.304 1758.91 156.531 Q1759.17 155.782 1759.33 155.22 Q1759.49 154.657 1759.71 153.65 Q1759.94 152.643 1760.06 152.034 Q1760.17 151.449 1760.38 150.301 L1763.97 131.352 L1760.81 131.352 Q1760.24 131.352 1760.01 131.329 Q1759.8 131.305 1759.64 131.188 Q1759.47 131.048 1759.47 130.766 Q1759.47 130.321 1759.66 130.134 Q1759.87 129.923 1760.1 129.9 Q1760.34 129.853 1760.9 129.853 L1764.23 129.853 Q1765.35 123.927 1765.8 122.334 Q1766.31 120.648 1767.11 119.477 Q1767.9 118.282 1768.79 117.72 Q1769.68 117.158 1770.41 116.947 Q1771.16 116.713 1771.88 116.713 Q1773.52 116.713 1774.79 117.603 Q1776.05 118.47 1776.05 120.016 Z" fill="#000000" fill-rule="nonzero" fill-opacity="1" /><path clip-path="url(#clip140)" d="M1782.51 138.543 Q1782.51 130.439 1785.53 123.904 Q1786.82 121.163 1788.62 118.868 Q1790.43 116.572 1791.62 115.565 Q1792.82 114.558 1793.14 114.558 Q1793.61 114.558 1793.64 115.027 Q1793.64 115.261 1793 115.846 Q1785.27 123.716 1785.3 138.543 Q1785.3 153.416 1792.82 160.981 Q1793.64 161.801 1793.64 162.059 Q1793.64 162.527 1793.14 162.527 Q1792.82 162.527 1791.67 161.567 Q1790.52 160.607 1788.74 158.405 Q1786.96 156.203 1785.67 153.51 Q1782.51 146.975 1782.51 138.543 Z" fill="#000000" fill-rule="nonzero" fill-opacity="1" /><path clip-path="url(#clip140)" d="M1821.17 132.5 Q1821.17 133.811 1820.35 134.561 Q1819.53 135.287 1818.59 135.287 Q1817.7 135.287 1817.24 134.772 Q1816.77 134.256 1816.77 133.601 Q1816.77 132.711 1817.42 131.938 Q1818.08 131.165 1819.06 131.001 Q1818.1 130.392 1816.67 130.392 Q1815.74 130.392 1814.92 130.884 Q1814.12 131.375 1813.63 132.008 Q1813.16 132.64 1812.74 133.554 Q1812.34 134.444 1812.18 134.983 Q1812.04 135.498 1811.92 136.06 L1810.28 142.618 Q1809.48 145.733 1809.48 146.834 Q1809.48 148.193 1810.14 149.106 Q1810.79 149.996 1812.11 149.996 Q1812.62 149.996 1813.21 149.856 Q1813.79 149.692 1814.54 149.27 Q1815.32 148.825 1815.99 148.169 Q1816.7 147.49 1817.38 146.342 Q1818.06 145.195 1818.5 143.719 Q1818.64 143.204 1819.11 143.204 Q1819.7 143.204 1819.7 143.672 Q1819.7 144.07 1819.37 144.914 Q1819.06 145.733 1818.38 146.811 Q1817.73 147.865 1816.86 148.825 Q1815.99 149.762 1814.71 150.418 Q1813.42 151.074 1812.01 151.074 Q1810 151.074 1808.66 149.996 Q1807.33 148.919 1806.84 147.42 Q1806.72 147.631 1806.56 147.912 Q1806.39 148.193 1805.9 148.825 Q1805.43 149.434 1804.89 149.903 Q1804.35 150.348 1803.51 150.699 Q1802.69 151.074 1801.8 151.074 Q1800.68 151.074 1799.67 150.746 Q1798.69 150.418 1797.98 149.668 Q1797.28 148.919 1797.28 147.888 Q1797.28 146.741 1798.05 145.944 Q1798.85 145.124 1799.93 145.124 Q1800.61 145.124 1801.14 145.523 Q1801.71 145.921 1801.71 146.787 Q1801.71 147.748 1801.05 148.474 Q1800.39 149.2 1799.46 149.387 Q1800.42 149.996 1801.85 149.996 Q1803.39 149.996 1804.61 148.638 Q1805.83 147.279 1806.41 145.007 Q1807.87 139.55 1808.43 137.114 Q1808.99 134.655 1808.99 133.601 Q1808.99 132.617 1808.73 131.938 Q1808.48 131.258 1808.03 130.954 Q1807.61 130.626 1807.21 130.509 Q1806.84 130.392 1806.41 130.392 Q1805.71 130.392 1804.92 130.673 Q1804.14 130.954 1803.21 131.61 Q1802.29 132.242 1801.43 133.554 Q1800.56 134.865 1799.97 136.669 Q1799.86 137.208 1799.34 137.208 Q1798.78 137.184 1798.78 136.716 Q1798.78 136.318 1799.08 135.498 Q1799.41 134.655 1800.07 133.601 Q1800.75 132.547 1801.61 131.61 Q1802.5 130.649 1803.79 129.994 Q1805.1 129.338 1806.51 129.338 Q1807.14 129.338 1807.75 129.478 Q1808.38 129.595 1809.13 129.947 Q1809.9 130.298 1810.58 131.071 Q1811.26 131.844 1811.68 132.968 Q1811.97 132.429 1812.34 131.914 Q1812.74 131.399 1813.35 130.766 Q1813.98 130.111 1814.85 129.736 Q1815.74 129.338 1816.72 129.338 Q1817.68 129.338 1818.62 129.595 Q1819.55 129.83 1820.35 130.603 Q1821.17 131.352 1821.17 132.5 Z" fill="#000000" fill-rule="nonzero" fill-opacity="1" /><path clip-path="url(#clip140)" d="M1825.79 162.059 Q1825.79 161.825 1826.4 161.239 Q1834.13 153.369 1834.13 138.543 Q1834.13 123.669 1826.7 116.151 Q1825.79 115.284 1825.79 115.027 Q1825.79 114.558 1826.26 114.558 Q1826.58 114.558 1827.73 115.518 Q1828.9 116.479 1830.66 118.681 Q1832.44 120.882 1833.75 123.576 Q1836.91 130.111 1836.91 138.543 Q1836.91 146.647 1833.89 153.182 Q1832.6 155.922 1830.8 158.218 Q1829 160.513 1827.8 161.52 Q1826.61 162.527 1826.26 162.527 Q1825.79 162.527 1825.79 162.059 Z" fill="#000000" fill-rule="nonzero" fill-opacity="1" /><path clip-path="url(#clip140)" d="M1857.51 143.251 Q1857.56 142.665 1858.47 142.665 L1887.87 142.665 Q1889.25 142.665 1889.27 143.204 Q1889.27 143.789 1887.96 143.766 L1858.8 143.766 Q1857.51 143.789 1857.51 143.251 M1857.51 133.882 Q1857.51 133.296 1858.52 133.32 L1887.82 133.32 Q1889.25 133.32 1889.27 133.882 Q1889.27 134.42 1888.06 134.42 L1858.47 134.42 Q1857.51 134.42 1857.51 133.882 Z" fill="#000000" fill-rule="nonzero" fill-opacity="1" /><path clip-path="url(#clip140)" d="M1926.02 144.984 Q1926.21 145.195 1926.21 145.406 Q1926.21 145.616 1925.74 146.225 Q1925.29 146.834 1924.33 147.654 Q1923.37 148.474 1922.13 149.247 Q1920.89 150.02 1919.06 150.535 Q1917.24 151.074 1915.32 151.074 Q1911.87 151.074 1909.81 148.614 Q1907.77 146.155 1907.77 142.384 Q1907.77 139.972 1908.57 137.84 Q1909.37 135.685 1910.65 134.163 Q1911.97 132.64 1913.61 131.539 Q1915.27 130.415 1917 129.876 Q1918.73 129.338 1920.35 129.338 Q1922.72 129.338 1924.1 130.532 Q1925.48 131.727 1925.48 133.413 Q1925.48 133.811 1925.36 134.303 Q1925.27 134.795 1924.94 135.568 Q1924.64 136.341 1923.84 137.114 Q1923.04 137.863 1921.87 138.355 Q1919.27 139.456 1914.54 139.456 L1911.99 139.456 Q1911.24 142.478 1911.24 144.445 Q1911.24 145.218 1911.38 146.015 Q1911.52 146.787 1911.9 147.771 Q1912.29 148.755 1913.18 149.387 Q1914.1 149.996 1915.41 149.996 Q1915.83 149.996 1916.28 149.973 Q1916.74 149.949 1917.92 149.692 Q1919.11 149.434 1920.16 148.989 Q1921.22 148.544 1922.55 147.584 Q1923.91 146.6 1924.99 145.265 Q1925.36 144.773 1925.62 144.773 Q1925.83 144.773 1926.02 144.984 M1923.89 133.413 Q1923.89 132.125 1922.93 131.258 Q1921.99 130.392 1920.35 130.392 Q1919.84 130.392 1919.2 130.509 Q1918.57 130.626 1917.52 131.118 Q1916.49 131.61 1915.57 132.429 Q1914.66 133.226 1913.75 134.795 Q1912.83 136.341 1912.29 138.402 L1914.26 138.402 Q1914.94 138.402 1915.43 138.402 Q1915.92 138.379 1917 138.285 Q1918.1 138.191 1918.9 138.027 Q1919.7 137.84 1920.7 137.465 Q1921.71 137.091 1922.34 136.599 Q1923 136.083 1923.44 135.264 Q1923.89 134.444 1923.89 133.413 Z" fill="#000000" fill-rule="nonzero" fill-opacity="1" /><path clip-path="url(#clip140)" d="M1953.31 124.703 Q1953.5 124.899 1953.5 125.178 Q1953.5 125.457 1953.31 125.654 Q1953.11 125.85 1952.83 125.85 L1931.81 125.85 Q1931.53 125.85 1931.34 125.654 Q1931.14 125.457 1931.14 125.178 Q1931.14 124.899 1931.34 124.703 Q1931.53 124.506 1931.81 124.506 L1952.83 124.506 Q1953.11 124.506 1953.31 124.703 Z" fill="#000000" fill-rule="nonzero" fill-opacity="1" /><path clip-path="url(#clip140)" d="M1973.73 120.948 Q1973.73 121.866 1973.16 122.391 Q1972.58 122.899 1971.93 122.899 Q1971.3 122.899 1970.97 122.538 Q1970.65 122.178 1970.65 121.719 Q1970.65 121.095 1971.11 120.554 Q1971.57 120.013 1972.25 119.899 Q1971.58 119.472 1970.58 119.472 Q1969.93 119.472 1969.35 119.817 Q1968.79 120.161 1968.45 120.604 Q1968.12 121.046 1967.83 121.686 Q1967.55 122.309 1967.43 122.686 Q1967.34 123.047 1967.25 123.44 L1966.11 128.031 Q1965.55 130.212 1965.55 130.982 Q1965.55 131.933 1966.01 132.572 Q1966.47 133.196 1967.38 133.196 Q1967.74 133.196 1968.15 133.097 Q1968.56 132.982 1969.09 132.687 Q1969.63 132.376 1970.11 131.917 Q1970.6 131.441 1971.07 130.638 Q1971.55 129.834 1971.86 128.801 Q1971.96 128.441 1972.29 128.441 Q1972.7 128.441 1972.7 128.769 Q1972.7 129.047 1972.47 129.638 Q1972.25 130.212 1971.78 130.966 Q1971.32 131.704 1970.71 132.376 Q1970.11 133.032 1969.2 133.491 Q1968.3 133.95 1967.32 133.95 Q1965.91 133.95 1964.97 133.196 Q1964.04 132.441 1963.7 131.392 Q1963.61 131.54 1963.5 131.736 Q1963.38 131.933 1963.04 132.376 Q1962.71 132.802 1962.33 133.13 Q1961.96 133.441 1961.37 133.687 Q1960.79 133.95 1960.17 133.95 Q1959.38 133.95 1958.68 133.72 Q1957.99 133.491 1957.5 132.966 Q1957.01 132.441 1957.01 131.72 Q1957.01 130.917 1957.55 130.359 Q1958.1 129.785 1958.86 129.785 Q1959.33 129.785 1959.71 130.064 Q1960.1 130.343 1960.1 130.949 Q1960.1 131.622 1959.65 132.13 Q1959.19 132.638 1958.53 132.769 Q1959.2 133.196 1960.2 133.196 Q1961.29 133.196 1962.14 132.245 Q1962.99 131.294 1963.4 129.703 Q1964.42 125.883 1964.81 124.178 Q1965.2 122.456 1965.2 121.719 Q1965.2 121.03 1965.02 120.554 Q1964.84 120.079 1964.53 119.866 Q1964.24 119.636 1963.96 119.554 Q1963.7 119.472 1963.4 119.472 Q1962.91 119.472 1962.35 119.669 Q1961.81 119.866 1961.15 120.325 Q1960.51 120.768 1959.91 121.686 Q1959.3 122.604 1958.89 123.866 Q1958.81 124.243 1958.45 124.243 Q1958.06 124.227 1958.06 123.899 Q1958.06 123.62 1958.27 123.047 Q1958.5 122.456 1958.96 121.719 Q1959.43 120.981 1960.04 120.325 Q1960.66 119.653 1961.56 119.194 Q1962.48 118.735 1963.47 118.735 Q1963.91 118.735 1964.33 118.833 Q1964.78 118.915 1965.3 119.161 Q1965.84 119.407 1966.32 119.948 Q1966.79 120.489 1967.09 121.276 Q1967.29 120.899 1967.55 120.538 Q1967.83 120.177 1968.25 119.735 Q1968.7 119.276 1969.3 119.013 Q1969.93 118.735 1970.61 118.735 Q1971.29 118.735 1971.94 118.915 Q1972.6 119.079 1973.16 119.62 Q1973.73 120.145 1973.73 120.948 Z" fill="#000000" fill-rule="nonzero" fill-opacity="1" /></svg>
