<?xml version="1.0" encoding="utf-8"?>
<svg xmlns="http://www.w3.org/2000/svg" xmlns:xlink="http://www.w3.org/1999/xlink" width="528" height="336" viewBox="0 0 2112 1344">
<defs>
  <clipPath id="clip380">
    <rect x="0" y="0" width="2112" height="1344"/>
  </clipPath>
</defs>
<path clip-path="url(#clip380)" d="M0 1344 L2112 1344 L2112 0 L0 0  Z" fill="#ffffff" fill-rule="evenodd" fill-opacity="1"/>
<defs>
  <clipPath id="clip381">
    <rect x="422" y="0" width="1479" height="1344"/>
  </clipPath>
</defs>
<path clip-path="url(#clip380)" d="M191.056 1234.58 L2064.76 1234.58 L2064.76 47.2441 L191.056 47.2441  Z" fill="#ffffff" fill-rule="evenodd" fill-opacity="1"/>
<defs>
  <clipPath id="clip382">
    <rect x="191" y="47" width="1875" height="1188"/>
  </clipPath>
</defs>
<polyline clip-path="url(#clip382)" style="stroke:#000000; stroke-linecap:round; stroke-linejoin:round; stroke-width:2; stroke-opacity:0.1; fill:none" points="244.085,1234.58 244.085,47.2441 "/>
<polyline clip-path="url(#clip382)" style="stroke:#000000; stroke-linecap:round; stroke-linejoin:round; stroke-width:2; stroke-opacity:0.1; fill:none" points="685.996,1234.58 685.996,47.2441 "/>
<polyline clip-path="url(#clip382)" style="stroke:#000000; stroke-linecap:round; stroke-linejoin:round; stroke-width:2; stroke-opacity:0.1; fill:none" points="1127.91,1234.58 1127.91,47.2441 "/>
<polyline clip-path="url(#clip382)" style="stroke:#000000; stroke-linecap:round; stroke-linejoin:round; stroke-width:2; stroke-opacity:0.1; fill:none" points="1569.82,1234.58 1569.82,47.2441 "/>
<polyline clip-path="url(#clip382)" style="stroke:#000000; stroke-linecap:round; stroke-linejoin:round; stroke-width:2; stroke-opacity:0.1; fill:none" points="2011.73,1234.58 2011.73,47.2441 "/>
<polyline clip-path="url(#clip380)" style="stroke:#000000; stroke-linecap:round; stroke-linejoin:round; stroke-width:4; stroke-opacity:1; fill:none" points="191.056,1234.58 2064.76,1234.58 "/>
<polyline clip-path="url(#clip380)" style="stroke:#000000; stroke-linecap:round; stroke-linejoin:round; stroke-width:4; stroke-opacity:1; fill:none" points="244.085,1234.58 244.085,1215.68 "/>
<polyline clip-path="url(#clip380)" style="stroke:#000000; stroke-linecap:round; stroke-linejoin:round; stroke-width:4; stroke-opacity:1; fill:none" points="685.996,1234.58 685.996,1215.68 "/>
<polyline clip-path="url(#clip380)" style="stroke:#000000; stroke-linecap:round; stroke-linejoin:round; stroke-width:4; stroke-opacity:1; fill:none" points="1127.91,1234.58 1127.91,1215.68 "/>
<polyline clip-path="url(#clip380)" style="stroke:#000000; stroke-linecap:round; stroke-linejoin:round; stroke-width:4; stroke-opacity:1; fill:none" points="1569.82,1234.58 1569.82,1215.68 "/>
<polyline clip-path="url(#clip380)" style="stroke:#000000; stroke-linecap:round; stroke-linejoin:round; stroke-width:4; stroke-opacity:1; fill:none" points="2011.73,1234.58 2011.73,1215.68 "/>
<path clip-path="url(#clip380)" d="M244.085 1263.19 Q240.474 1263.19 238.645 1266.76 Q236.84 1270.3 236.84 1277.43 Q236.84 1284.54 238.645 1288.1 Q240.474 1291.64 244.085 1291.64 Q247.719 1291.64 249.525 1288.1 Q251.354 1284.54 251.354 1277.43 Q251.354 1270.3 249.525 1266.76 Q247.719 1263.19 244.085 1263.19 M244.085 1259.49 Q249.895 1259.49 252.951 1264.1 Q256.03 1268.68 256.03 1277.43 Q256.03 1286.16 252.951 1290.76 Q249.895 1295.35 244.085 1295.35 Q238.275 1295.35 235.196 1290.76 Q232.141 1286.16 232.141 1277.43 Q232.141 1268.68 235.196 1264.1 Q238.275 1259.49 244.085 1259.49 Z" fill="#000000" fill-rule="nonzero" fill-opacity="1" /><path clip-path="url(#clip380)" d="M676.378 1290.74 L684.016 1290.74 L684.016 1264.37 L675.706 1266.04 L675.706 1261.78 L683.97 1260.11 L688.646 1260.11 L688.646 1290.74 L696.285 1290.74 L696.285 1294.67 L676.378 1294.67 L676.378 1290.74 Z" fill="#000000" fill-rule="nonzero" fill-opacity="1" /><path clip-path="url(#clip380)" d="M1122.56 1290.74 L1138.88 1290.74 L1138.88 1294.67 L1116.93 1294.67 L1116.93 1290.74 Q1119.6 1287.99 1124.18 1283.36 Q1128.79 1278.7 1129.97 1277.36 Q1132.21 1274.84 1133.09 1273.1 Q1133.99 1271.34 1133.99 1269.65 Q1133.99 1266.9 1132.05 1265.16 Q1130.13 1263.42 1127.03 1263.42 Q1124.83 1263.42 1122.37 1264.19 Q1119.94 1264.95 1117.17 1266.5 L1117.17 1261.78 Q1119.99 1260.65 1122.44 1260.07 Q1124.9 1259.49 1126.93 1259.49 Q1132.3 1259.49 1135.5 1262.17 Q1138.69 1264.86 1138.69 1269.35 Q1138.69 1271.48 1137.88 1273.4 Q1137.1 1275.3 1134.99 1277.89 Q1134.41 1278.56 1131.31 1281.78 Q1128.21 1284.98 1122.56 1290.74 Z" fill="#000000" fill-rule="nonzero" fill-opacity="1" /><path clip-path="url(#clip380)" d="M1574.06 1276.04 Q1577.42 1276.76 1579.3 1279.03 Q1581.19 1281.3 1581.19 1284.63 Q1581.19 1289.74 1577.68 1292.55 Q1574.16 1295.35 1567.68 1295.35 Q1565.5 1295.35 1563.18 1294.91 Q1560.89 1294.49 1558.44 1293.63 L1558.44 1289.12 Q1560.38 1290.25 1562.7 1290.83 Q1565.01 1291.41 1567.54 1291.41 Q1571.93 1291.41 1574.23 1289.67 Q1576.54 1287.94 1576.54 1284.63 Q1576.54 1281.57 1574.39 1279.86 Q1572.26 1278.12 1568.44 1278.12 L1564.41 1278.12 L1564.41 1274.28 L1568.62 1274.28 Q1572.07 1274.28 1573.9 1272.92 Q1575.73 1271.53 1575.73 1268.93 Q1575.73 1266.27 1573.83 1264.86 Q1571.96 1263.42 1568.44 1263.42 Q1566.52 1263.42 1564.32 1263.84 Q1562.12 1264.26 1559.48 1265.14 L1559.48 1260.97 Q1562.14 1260.23 1564.46 1259.86 Q1566.8 1259.49 1568.86 1259.49 Q1574.18 1259.49 1577.28 1261.92 Q1580.38 1264.33 1580.38 1268.45 Q1580.38 1271.32 1578.74 1273.31 Q1577.1 1275.28 1574.06 1276.04 Z" fill="#000000" fill-rule="nonzero" fill-opacity="1" /><path clip-path="url(#clip380)" d="M2014.74 1264.19 L2002.93 1282.64 L2014.74 1282.64 L2014.74 1264.19 M2013.51 1260.11 L2019.39 1260.11 L2019.39 1282.64 L2024.32 1282.64 L2024.32 1286.53 L2019.39 1286.53 L2019.39 1294.67 L2014.74 1294.67 L2014.74 1286.53 L1999.13 1286.53 L1999.13 1282.01 L2013.51 1260.11 Z" fill="#000000" fill-rule="nonzero" fill-opacity="1" /><polyline clip-path="url(#clip382)" style="stroke:#000000; stroke-linecap:round; stroke-linejoin:round; stroke-width:2; stroke-opacity:0.1; fill:none" points="191.056,1082.82 2064.76,1082.82 "/>
<polyline clip-path="url(#clip382)" style="stroke:#000000; stroke-linecap:round; stroke-linejoin:round; stroke-width:2; stroke-opacity:0.1; fill:none" points="191.056,861.867 2064.76,861.867 "/>
<polyline clip-path="url(#clip382)" style="stroke:#000000; stroke-linecap:round; stroke-linejoin:round; stroke-width:2; stroke-opacity:0.1; fill:none" points="191.056,640.911 2064.76,640.911 "/>
<polyline clip-path="url(#clip382)" style="stroke:#000000; stroke-linecap:round; stroke-linejoin:round; stroke-width:2; stroke-opacity:0.1; fill:none" points="191.056,419.956 2064.76,419.956 "/>
<polyline clip-path="url(#clip382)" style="stroke:#000000; stroke-linecap:round; stroke-linejoin:round; stroke-width:2; stroke-opacity:0.1; fill:none" points="191.056,199.001 2064.76,199.001 "/>
<polyline clip-path="url(#clip380)" style="stroke:#000000; stroke-linecap:round; stroke-linejoin:round; stroke-width:4; stroke-opacity:1; fill:none" points="191.056,1234.58 191.056,47.2441 "/>
<polyline clip-path="url(#clip380)" style="stroke:#000000; stroke-linecap:round; stroke-linejoin:round; stroke-width:4; stroke-opacity:1; fill:none" points="191.056,1082.82 209.954,1082.82 "/>
<polyline clip-path="url(#clip380)" style="stroke:#000000; stroke-linecap:round; stroke-linejoin:round; stroke-width:4; stroke-opacity:1; fill:none" points="191.056,861.867 209.954,861.867 "/>
<polyline clip-path="url(#clip380)" style="stroke:#000000; stroke-linecap:round; stroke-linejoin:round; stroke-width:4; stroke-opacity:1; fill:none" points="191.056,640.911 209.954,640.911 "/>
<polyline clip-path="url(#clip380)" style="stroke:#000000; stroke-linecap:round; stroke-linejoin:round; stroke-width:4; stroke-opacity:1; fill:none" points="191.056,419.956 209.954,419.956 "/>
<polyline clip-path="url(#clip380)" style="stroke:#000000; stroke-linecap:round; stroke-linejoin:round; stroke-width:4; stroke-opacity:1; fill:none" points="191.056,199.001 209.954,199.001 "/>
<path clip-path="url(#clip380)" d="M52.4321 1083.27 L82.1079 1083.27 L82.1079 1087.21 L52.4321 1087.21 L52.4321 1083.27 Z" fill="#000000" fill-rule="nonzero" fill-opacity="1" /><path clip-path="url(#clip380)" d="M93.0106 1096.17 L100.649 1096.17 L100.649 1069.8 L92.3393 1071.47 L92.3393 1067.21 L100.603 1065.54 L105.279 1065.54 L105.279 1096.17 L112.918 1096.17 L112.918 1100.1 L93.0106 1100.1 L93.0106 1096.17 Z" fill="#000000" fill-rule="nonzero" fill-opacity="1" /><path clip-path="url(#clip380)" d="M122.362 1094.22 L127.247 1094.22 L127.247 1100.1 L122.362 1100.1 L122.362 1094.22 Z" fill="#000000" fill-rule="nonzero" fill-opacity="1" /><path clip-path="url(#clip380)" d="M147.432 1068.62 Q143.821 1068.62 141.992 1072.19 Q140.186 1075.73 140.186 1082.86 Q140.186 1089.96 141.992 1093.53 Q143.821 1097.07 147.432 1097.07 Q151.066 1097.07 152.871 1093.53 Q154.7 1089.96 154.7 1082.86 Q154.7 1075.73 152.871 1072.19 Q151.066 1068.62 147.432 1068.62 M147.432 1064.92 Q153.242 1064.92 156.297 1069.52 Q159.376 1074.11 159.376 1082.86 Q159.376 1091.58 156.297 1096.19 Q153.242 1100.77 147.432 1100.77 Q141.621 1100.77 138.543 1096.19 Q135.487 1091.58 135.487 1082.86 Q135.487 1074.11 138.543 1069.52 Q141.621 1064.92 147.432 1064.92 Z" fill="#000000" fill-rule="nonzero" fill-opacity="1" /><path clip-path="url(#clip380)" d="M53.4275 862.318 L83.1033 862.318 L83.1033 866.253 L53.4275 866.253 L53.4275 862.318 Z" fill="#000000" fill-rule="nonzero" fill-opacity="1" /><path clip-path="url(#clip380)" d="M103.196 847.665 Q99.5847 847.665 97.756 851.23 Q95.9504 854.772 95.9504 861.901 Q95.9504 869.008 97.756 872.573 Q99.5847 876.114 103.196 876.114 Q106.83 876.114 108.636 872.573 Q110.464 869.008 110.464 861.901 Q110.464 854.772 108.636 851.23 Q106.83 847.665 103.196 847.665 M103.196 843.962 Q109.006 843.962 112.061 848.568 Q115.14 853.151 115.14 861.901 Q115.14 870.628 112.061 875.235 Q109.006 879.818 103.196 879.818 Q97.3856 879.818 94.3069 875.235 Q91.2514 870.628 91.2514 861.901 Q91.2514 853.151 94.3069 848.568 Q97.3856 843.962 103.196 843.962 Z" fill="#000000" fill-rule="nonzero" fill-opacity="1" /><path clip-path="url(#clip380)" d="M123.358 873.267 L128.242 873.267 L128.242 879.147 L123.358 879.147 L123.358 873.267 Z" fill="#000000" fill-rule="nonzero" fill-opacity="1" /><path clip-path="url(#clip380)" d="M138.473 844.587 L156.83 844.587 L156.83 848.522 L142.756 848.522 L142.756 856.994 Q143.774 856.647 144.793 856.485 Q145.811 856.3 146.83 856.3 Q152.617 856.3 155.996 859.471 Q159.376 862.642 159.376 868.059 Q159.376 873.637 155.904 876.739 Q152.432 879.818 146.112 879.818 Q143.936 879.818 141.668 879.448 Q139.422 879.077 137.015 878.336 L137.015 873.637 Q139.098 874.772 141.321 875.327 Q143.543 875.883 146.02 875.883 Q150.024 875.883 152.362 873.776 Q154.7 871.67 154.7 868.059 Q154.7 864.448 152.362 862.341 Q150.024 860.235 146.02 860.235 Q144.145 860.235 142.27 860.651 Q140.418 861.068 138.473 861.948 L138.473 844.587 Z" fill="#000000" fill-rule="nonzero" fill-opacity="1" /><path clip-path="url(#clip380)" d="M102.2 626.71 Q98.5893 626.71 96.7606 630.275 Q94.955 633.817 94.955 640.946 Q94.955 648.053 96.7606 651.617 Q98.5893 655.159 102.2 655.159 Q105.835 655.159 107.64 651.617 Q109.469 648.053 109.469 640.946 Q109.469 633.817 107.64 630.275 Q105.835 626.71 102.2 626.71 M102.2 623.006 Q108.011 623.006 111.066 627.613 Q114.145 632.196 114.145 640.946 Q114.145 649.673 111.066 654.279 Q108.011 658.863 102.2 658.863 Q96.3902 658.863 93.3115 654.279 Q90.256 649.673 90.256 640.946 Q90.256 632.196 93.3115 627.613 Q96.3902 623.006 102.2 623.006 Z" fill="#000000" fill-rule="nonzero" fill-opacity="1" /><path clip-path="url(#clip380)" d="M122.362 652.312 L127.247 652.312 L127.247 658.191 L122.362 658.191 L122.362 652.312 Z" fill="#000000" fill-rule="nonzero" fill-opacity="1" /><path clip-path="url(#clip380)" d="M147.432 626.71 Q143.821 626.71 141.992 630.275 Q140.186 633.817 140.186 640.946 Q140.186 648.053 141.992 651.617 Q143.821 655.159 147.432 655.159 Q151.066 655.159 152.871 651.617 Q154.7 648.053 154.7 640.946 Q154.7 633.817 152.871 630.275 Q151.066 626.71 147.432 626.71 M147.432 623.006 Q153.242 623.006 156.297 627.613 Q159.376 632.196 159.376 640.946 Q159.376 649.673 156.297 654.279 Q153.242 658.863 147.432 658.863 Q141.621 658.863 138.543 654.279 Q135.487 649.673 135.487 640.946 Q135.487 632.196 138.543 627.613 Q141.621 623.006 147.432 623.006 Z" fill="#000000" fill-rule="nonzero" fill-opacity="1" /><path clip-path="url(#clip380)" d="M103.196 405.755 Q99.5847 405.755 97.756 409.32 Q95.9504 412.861 95.9504 419.991 Q95.9504 427.097 97.756 430.662 Q99.5847 434.204 103.196 434.204 Q106.83 434.204 108.636 430.662 Q110.464 427.097 110.464 419.991 Q110.464 412.861 108.636 409.32 Q106.83 405.755 103.196 405.755 M103.196 402.051 Q109.006 402.051 112.061 406.658 Q115.14 411.241 115.14 419.991 Q115.14 428.718 112.061 433.324 Q109.006 437.908 103.196 437.908 Q97.3856 437.908 94.3069 433.324 Q91.2514 428.718 91.2514 419.991 Q91.2514 411.241 94.3069 406.658 Q97.3856 402.051 103.196 402.051 Z" fill="#000000" fill-rule="nonzero" fill-opacity="1" /><path clip-path="url(#clip380)" d="M123.358 431.357 L128.242 431.357 L128.242 437.236 L123.358 437.236 L123.358 431.357 Z" fill="#000000" fill-rule="nonzero" fill-opacity="1" /><path clip-path="url(#clip380)" d="M138.473 402.676 L156.83 402.676 L156.83 406.611 L142.756 406.611 L142.756 415.084 Q143.774 414.736 144.793 414.574 Q145.811 414.389 146.83 414.389 Q152.617 414.389 155.996 417.56 Q159.376 420.732 159.376 426.148 Q159.376 431.727 155.904 434.829 Q152.432 437.908 146.112 437.908 Q143.936 437.908 141.668 437.537 Q139.422 437.167 137.015 436.426 L137.015 431.727 Q139.098 432.861 141.321 433.417 Q143.543 433.972 146.02 433.972 Q150.024 433.972 152.362 431.866 Q154.7 429.759 154.7 426.148 Q154.7 422.537 152.362 420.431 Q150.024 418.324 146.02 418.324 Q144.145 418.324 142.27 418.741 Q140.418 419.158 138.473 420.037 L138.473 402.676 Z" fill="#000000" fill-rule="nonzero" fill-opacity="1" /><path clip-path="url(#clip380)" d="M93.0106 212.346 L100.649 212.346 L100.649 185.98 L92.3393 187.647 L92.3393 183.388 L100.603 181.721 L105.279 181.721 L105.279 212.346 L112.918 212.346 L112.918 216.281 L93.0106 216.281 L93.0106 212.346 Z" fill="#000000" fill-rule="nonzero" fill-opacity="1" /><path clip-path="url(#clip380)" d="M122.362 210.401 L127.247 210.401 L127.247 216.281 L122.362 216.281 L122.362 210.401 Z" fill="#000000" fill-rule="nonzero" fill-opacity="1" /><path clip-path="url(#clip380)" d="M147.432 184.8 Q143.821 184.8 141.992 188.365 Q140.186 191.906 140.186 199.036 Q140.186 206.142 141.992 209.707 Q143.821 213.249 147.432 213.249 Q151.066 213.249 152.871 209.707 Q154.7 206.142 154.7 199.036 Q154.7 191.906 152.871 188.365 Q151.066 184.8 147.432 184.8 M147.432 181.096 Q153.242 181.096 156.297 185.703 Q159.376 190.286 159.376 199.036 Q159.376 207.763 156.297 212.369 Q153.242 216.952 147.432 216.952 Q141.621 216.952 138.543 212.369 Q135.487 207.763 135.487 199.036 Q135.487 190.286 138.543 185.703 Q141.621 181.096 147.432 181.096 Z" fill="#000000" fill-rule="nonzero" fill-opacity="1" /><path clip-path="url(#clip382)" d="M686.155 629.033 L686.681 616.314 L687.206 608.224 L687.732 601.78 L688.257 596.262 L688.782 591.36 L689.308 586.906 L689.833 582.798 L690.359 578.966 L690.884 575.361 L691.935 568.702 L692.986 562.621 L694.037 556.992 L695.088 551.73 L696.139 546.774 L697.19 542.077 L699.291 533.327 L701.393 525.276 L702.444 521.467 L703.495 517.785 L704.546 514.219 L705.597 510.759 L707.699 504.125 L709.8 497.829 L711.902 491.829 L714.004 486.089 L716.106 480.583 L718.208 475.285 L721.943 466.329 L725.679 457.887 L729.414 449.89 L733.15 442.285 L736.886 435.028 L740.621 428.084 L744.357 421.423 L748.093 415.021 L755.564 402.907 L763.035 391.604 L770.507 381.007 L777.978 371.032 L784.53 362.744 L791.081 354.845 L797.633 347.306 L804.184 340.097 L817.288 326.585 L830.391 314.155 L832.177 312.538 L833.963 310.939 L835.748 309.356 L837.534 307.791 L841.106 304.712 L844.677 301.697 L851.82 295.859 L858.963 290.263 L866.106 284.898 L873.249 279.754 L880.392 274.821 L887.536 270.092 L894.721 265.532 L901.907 261.163 L909.092 256.978 L916.278 252.97 L930.649 245.47 L945.02 238.621 L952.964 235.103 L960.909 231.77 L968.853 228.617 L976.798 225.639 L992.687 220.197 L1008.58 215.418 L1023.69 211.465 L1038.81 208.075 L1053.93 205.237 L1069.05 202.938 L1084.77 201.112 L1100.49 199.853 L1116.21 199.156 L1131.92 199.019 L1145.16 199.338 L1158.39 200.054 L1171.62 201.169 L1184.85 202.686 L1201.01 205.089 L1217.16 208.109 L1233.32 211.758 L1249.47 216.051 L1264.27 220.568 L1279.07 225.66 L1293.87 231.35 L1308.67 237.663 L1322.34 244.073 L1336.01 251.066 L1349.67 258.676 L1363.34 266.94 L1370.26 271.388 L1377.19 276.023 L1384.11 280.85 L1391.03 285.877 L1397.95 291.114 L1404.88 296.569 L1408.34 299.382 L1411.8 302.254 L1415.26 305.186 L1418.72 308.18 L1426.48 315.124 L1434.24 322.408 L1442 330.056 L1449.76 338.096 L1457.51 346.56 L1465.27 355.485 L1473.03 364.916 L1480.79 374.908 L1487.82 384.5 L1494.85 394.666 L1501.88 405.481 L1508.91 417.037 L1515.94 429.456 L1522.97 442.902 L1526.49 450.076 L1530 457.599 L1531.76 461.504 L1533.52 465.514 L1534.4 467.56 L1535.27 469.635 L1536.15 471.741 L1537.03 473.877 L1541.06 484.096 L1545.08 495.14 L1547.09 501.032 L1549.11 507.213 L1551.12 513.727 L1553.13 520.626 L1555.14 527.981 L1557.16 535.889 L1559.17 544.485 L1561.18 553.972 L1562.19 559.147 L1563.19 564.684 L1564.2 570.672 L1565.2 577.235 L1565.71 580.791 L1566.21 584.576 L1566.71 588.639 L1567.22 593.051 L1567.72 597.919 L1568.22 603.42 L1568.73 609.89 L1569.23 618.14 L1569.73 632.295 L1569.73 640.911 L1569.23 640.911 L1568.73 640.911 L1568.22 640.911 L1567.72 640.911 L1567.22 640.911 L1566.71 640.911 L1566.21 640.911 L1565.71 640.911 L1565.2 640.911 L1564.2 640.911 L1563.19 640.911 L1562.19 640.911 L1561.18 640.911 L1559.17 640.911 L1557.16 640.911 L1555.14 640.911 L1553.13 640.911 L1551.12 640.911 L1549.11 640.911 L1547.09 640.911 L1545.08 640.911 L1541.06 640.911 L1537.03 640.911 L1536.15 640.911 L1535.27 640.911 L1534.4 640.911 L1533.52 640.911 L1531.76 640.911 L1530 640.911 L1526.49 640.911 L1522.97 640.911 L1515.94 640.911 L1508.91 640.911 L1501.88 640.911 L1494.85 640.911 L1487.82 640.911 L1480.79 640.911 L1473.03 640.911 L1465.27 640.911 L1457.51 640.911 L1449.76 640.911 L1442 640.911 L1434.24 640.911 L1426.48 640.911 L1418.72 640.911 L1415.26 640.911 L1411.8 640.911 L1408.34 640.911 L1404.88 640.911 L1397.95 640.911 L1391.03 640.911 L1384.11 640.911 L1377.19 640.911 L1370.26 640.911 L1363.34 640.911 L1349.67 640.911 L1336.01 640.911 L1322.34 640.911 L1308.67 640.911 L1293.87 640.911 L1279.07 640.911 L1264.27 640.911 L1249.47 640.911 L1233.32 640.911 L1217.16 640.911 L1201.01 640.911 L1184.85 640.911 L1171.62 640.911 L1158.39 640.911 L1145.16 640.911 L1131.92 640.911 L1116.21 640.911 L1100.49 640.911 L1084.77 640.911 L1069.05 640.911 L1053.93 640.911 L1038.81 640.911 L1023.69 640.911 L1008.58 640.911 L992.687 640.911 L976.798 640.911 L968.853 640.911 L960.909 640.911 L952.964 640.911 L945.02 640.911 L930.649 640.911 L916.278 640.911 L909.092 640.911 L901.907 640.911 L894.721 640.911 L887.536 640.911 L880.392 640.911 L873.249 640.911 L866.106 640.911 L858.963 640.911 L851.82 640.911 L844.677 640.911 L841.106 640.911 L837.534 640.911 L835.748 640.911 L833.963 640.911 L832.177 640.911 L830.391 640.911 L817.288 640.911 L804.184 640.911 L797.633 640.911 L791.081 640.911 L784.53 640.911 L777.978 640.911 L770.507 640.911 L763.035 640.911 L755.564 640.911 L748.093 640.911 L744.357 640.911 L740.621 640.911 L736.886 640.911 L733.15 640.911 L729.414 640.911 L725.679 640.911 L721.943 640.911 L718.208 640.911 L716.106 640.911 L714.004 640.911 L711.902 640.911 L709.8 640.911 L707.699 640.911 L705.597 640.911 L704.546 640.911 L703.495 640.911 L702.444 640.911 L701.393 640.911 L699.291 640.911 L697.19 640.911 L696.139 640.911 L695.088 640.911 L694.037 640.911 L692.986 640.911 L691.935 640.911 L690.884 640.911 L690.359 640.911 L689.833 640.911 L689.308 640.911 L688.782 640.911 L688.257 640.911 L687.732 640.911 L687.206 640.911 L686.681 640.911 L686.155 640.911  Z" fill="#009af9" fill-rule="evenodd" fill-opacity="0.3"/>
<polyline clip-path="url(#clip382)" style="stroke:#009af9; stroke-linecap:round; stroke-linejoin:round; stroke-width:4; stroke-opacity:1; fill:none" points="686.155,629.033 686.681,616.314 687.206,608.224 687.732,601.78 688.257,596.262 688.782,591.36 689.308,586.906 689.833,582.798 690.359,578.966 690.884,575.361 691.935,568.702 692.986,562.621 694.037,556.992 695.088,551.73 696.139,546.774 697.19,542.077 699.291,533.327 701.393,525.276 702.444,521.467 703.495,517.785 704.546,514.219 705.597,510.759 707.699,504.125 709.8,497.829 711.902,491.829 714.004,486.089 716.106,480.583 718.208,475.285 721.943,466.329 725.679,457.887 729.414,449.89 733.15,442.285 736.886,435.028 740.621,428.084 744.357,421.423 748.093,415.021 755.564,402.907 763.035,391.604 770.507,381.007 777.978,371.032 784.53,362.744 791.081,354.845 797.633,347.306 804.184,340.097 817.288,326.585 830.391,314.155 832.177,312.538 833.963,310.939 835.748,309.356 837.534,307.791 841.106,304.712 844.677,301.697 851.82,295.859 858.963,290.263 866.106,284.898 873.249,279.754 880.392,274.821 887.536,270.092 894.721,265.532 901.907,261.163 909.092,256.978 916.278,252.97 930.649,245.47 945.02,238.621 952.964,235.103 960.909,231.77 968.853,228.617 976.798,225.639 992.687,220.197 1008.58,215.418 1023.69,211.465 1038.81,208.075 1053.93,205.237 1069.05,202.938 1084.77,201.112 1100.49,199.853 1116.21,199.156 1131.92,199.019 1145.16,199.338 1158.39,200.054 1171.62,201.169 1184.85,202.686 1201.01,205.089 1217.16,208.109 1233.32,211.758 1249.47,216.051 1264.27,220.568 1279.07,225.66 1293.87,231.35 1308.67,237.663 1322.34,244.073 1336.01,251.066 1349.67,258.676 1363.34,266.94 1370.26,271.388 1377.19,276.023 1384.11,280.85 1391.03,285.877 1397.95,291.114 1404.88,296.569 1408.34,299.382 1411.8,302.254 1415.26,305.186 1418.72,308.18 1426.48,315.124 1434.24,322.408 1442,330.056 1449.76,338.096 1457.51,346.56 1465.27,355.485 1473.03,364.916 1480.79,374.908 1487.82,384.5 1494.85,394.666 1501.88,405.481 1508.91,417.037 1515.94,429.456 1522.97,442.902 1526.49,450.076 1530,457.599 1531.76,461.504 1533.52,465.514 1534.4,467.56 1535.27,469.635 1536.15,471.741 1537.03,473.877 1541.06,484.096 1545.08,495.14 1547.09,501.032 1549.11,507.213 1551.12,513.727 1553.13,520.626 1555.14,527.981 1557.16,535.889 1559.17,544.485 1561.18,553.972 1562.19,559.147 1563.19,564.684 1564.2,570.672 1565.2,577.235 1565.71,580.791 1566.21,584.576 1566.71,588.639 1567.22,593.051 1567.72,597.919 1568.22,603.42 1568.73,609.89 1569.23,618.14 1569.73,632.295 "/>
<path clip-path="url(#clip382)" d="M686.155 652.789 L686.681 665.509 L687.206 673.599 L687.732 680.043 L688.257 685.561 L688.782 690.463 L689.308 694.917 L689.833 699.025 L690.359 702.857 L690.884 706.462 L691.935 713.121 L692.986 719.202 L694.037 724.831 L695.088 730.093 L696.139 735.049 L697.19 739.746 L699.291 748.496 L701.393 756.547 L702.444 760.356 L703.495 764.038 L704.546 767.604 L705.597 771.064 L707.699 777.698 L709.8 783.994 L711.902 789.994 L714.004 795.734 L716.106 801.24 L718.208 806.537 L721.943 815.494 L725.679 823.936 L729.414 831.933 L733.15 839.538 L736.886 846.795 L740.621 853.739 L744.357 860.4 L748.093 866.802 L755.564 878.916 L763.035 890.219 L770.507 900.816 L777.978 910.791 L784.53 919.079 L791.081 926.978 L797.633 934.517 L804.184 941.726 L817.288 955.238 L830.391 967.668 L832.177 969.285 L833.963 970.884 L835.748 972.466 L837.534 974.031 L841.106 977.111 L844.677 980.126 L851.82 985.964 L858.963 991.56 L866.106 996.925 L873.249 1002.07 L880.392 1007 L887.536 1011.73 L894.721 1016.29 L901.907 1020.66 L909.092 1024.85 L916.278 1028.85 L930.649 1036.35 L945.02 1043.2 L952.964 1046.72 L960.909 1050.05 L968.853 1053.21 L976.798 1056.18 L992.687 1061.63 L1008.58 1066.41 L1023.69 1070.36 L1038.81 1073.75 L1053.93 1076.59 L1069.05 1078.88 L1084.77 1080.71 L1100.49 1081.97 L1116.21 1082.67 L1131.92 1082.8 L1145.16 1082.48 L1158.39 1081.77 L1171.62 1080.65 L1184.85 1079.14 L1201.01 1076.73 L1217.16 1073.71 L1233.32 1070.07 L1249.47 1065.77 L1264.27 1061.26 L1279.07 1056.16 L1293.87 1050.47 L1308.67 1044.16 L1322.34 1037.75 L1336.01 1030.76 L1349.67 1023.15 L1363.34 1014.88 L1370.26 1010.43 L1377.19 1005.8 L1384.11 1000.97 L1391.03 995.946 L1397.95 990.709 L1404.88 985.254 L1408.34 982.441 L1411.8 979.569 L1415.26 976.637 L1418.72 973.643 L1426.48 966.699 L1434.24 959.415 L1442 951.767 L1449.76 943.727 L1457.51 935.263 L1465.27 926.338 L1473.03 916.906 L1480.79 906.915 L1487.82 897.322 L1494.85 887.156 L1501.88 876.342 L1508.91 864.786 L1515.94 852.367 L1522.97 838.921 L1526.49 831.747 L1530 824.224 L1531.76 820.319 L1533.52 816.309 L1534.4 814.263 L1535.27 812.187 L1536.15 810.082 L1537.03 807.946 L1541.06 797.727 L1545.08 786.683 L1547.09 780.791 L1549.11 774.61 L1551.12 768.096 L1553.13 761.197 L1555.14 753.842 L1557.16 745.934 L1559.17 737.338 L1561.18 727.85 L1562.19 722.676 L1563.19 717.139 L1564.2 711.151 L1565.2 704.588 L1565.71 701.031 L1566.21 697.247 L1566.71 693.184 L1567.22 688.772 L1567.72 683.904 L1568.22 678.403 L1568.73 671.933 L1569.23 663.683 L1569.73 649.528 L1569.73 640.911 L1569.23 640.911 L1568.73 640.911 L1568.22 640.911 L1567.72 640.911 L1567.22 640.911 L1566.71 640.911 L1566.21 640.911 L1565.71 640.911 L1565.2 640.911 L1564.2 640.911 L1563.19 640.911 L1562.19 640.911 L1561.18 640.911 L1559.17 640.911 L1557.16 640.911 L1555.14 640.911 L1553.13 640.911 L1551.12 640.911 L1549.11 640.911 L1547.09 640.911 L1545.08 640.911 L1541.06 640.911 L1537.03 640.911 L1536.15 640.911 L1535.27 640.911 L1534.4 640.911 L1533.52 640.911 L1531.76 640.911 L1530 640.911 L1526.49 640.911 L1522.97 640.911 L1515.94 640.911 L1508.91 640.911 L1501.88 640.911 L1494.85 640.911 L1487.82 640.911 L1480.79 640.911 L1473.03 640.911 L1465.27 640.911 L1457.51 640.911 L1449.76 640.911 L1442 640.911 L1434.24 640.911 L1426.48 640.911 L1418.72 640.911 L1415.26 640.911 L1411.8 640.911 L1408.34 640.911 L1404.88 640.911 L1397.95 640.911 L1391.03 640.911 L1384.11 640.911 L1377.19 640.911 L1370.26 640.911 L1363.34 640.911 L1349.67 640.911 L1336.01 640.911 L1322.34 640.911 L1308.67 640.911 L1293.87 640.911 L1279.07 640.911 L1264.27 640.911 L1249.47 640.911 L1233.32 640.911 L1217.16 640.911 L1201.01 640.911 L1184.85 640.911 L1171.62 640.911 L1158.39 640.911 L1145.16 640.911 L1131.92 640.911 L1116.21 640.911 L1100.49 640.911 L1084.77 640.911 L1069.05 640.911 L1053.93 640.911 L1038.81 640.911 L1023.69 640.911 L1008.58 640.911 L992.687 640.911 L976.798 640.911 L968.853 640.911 L960.909 640.911 L952.964 640.911 L945.02 640.911 L930.649 640.911 L916.278 640.911 L909.092 640.911 L901.907 640.911 L894.721 640.911 L887.536 640.911 L880.392 640.911 L873.249 640.911 L866.106 640.911 L858.963 640.911 L851.82 640.911 L844.677 640.911 L841.106 640.911 L837.534 640.911 L835.748 640.911 L833.963 640.911 L832.177 640.911 L830.391 640.911 L817.288 640.911 L804.184 640.911 L797.633 640.911 L791.081 640.911 L784.53 640.911 L777.978 640.911 L770.507 640.911 L763.035 640.911 L755.564 640.911 L748.093 640.911 L744.357 640.911 L740.621 640.911 L736.886 640.911 L733.15 640.911 L729.414 640.911 L725.679 640.911 L721.943 640.911 L718.208 640.911 L716.106 640.911 L714.004 640.911 L711.902 640.911 L709.8 640.911 L707.699 640.911 L705.597 640.911 L704.546 640.911 L703.495 640.911 L702.444 640.911 L701.393 640.911 L699.291 640.911 L697.19 640.911 L696.139 640.911 L695.088 640.911 L694.037 640.911 L692.986 640.911 L691.935 640.911 L690.884 640.911 L690.359 640.911 L689.833 640.911 L689.308 640.911 L688.782 640.911 L688.257 640.911 L687.732 640.911 L687.206 640.911 L686.681 640.911 L686.155 640.911  Z" fill="#e26f46" fill-rule="evenodd" fill-opacity="0.3"/>
<polyline clip-path="url(#clip382)" style="stroke:#e26f46; stroke-linecap:round; stroke-linejoin:round; stroke-width:4; stroke-opacity:1; fill:none" points="686.155,652.789 686.681,665.509 687.206,673.599 687.732,680.043 688.257,685.561 688.782,690.463 689.308,694.917 689.833,699.025 690.359,702.857 690.884,706.462 691.935,713.121 692.986,719.202 694.037,724.831 695.088,730.093 696.139,735.049 697.19,739.746 699.291,748.496 701.393,756.547 702.444,760.356 703.495,764.038 704.546,767.604 705.597,771.064 707.699,777.698 709.8,783.994 711.902,789.994 714.004,795.734 716.106,801.24 718.208,806.537 721.943,815.494 725.679,823.936 729.414,831.933 733.15,839.538 736.886,846.795 740.621,853.739 744.357,860.4 748.093,866.802 755.564,878.916 763.035,890.219 770.507,900.816 777.978,910.791 784.53,919.079 791.081,926.978 797.633,934.517 804.184,941.726 817.288,955.238 830.391,967.668 832.177,969.285 833.963,970.884 835.748,972.466 837.534,974.031 841.106,977.111 844.677,980.126 851.82,985.964 858.963,991.56 866.106,996.925 873.249,1002.07 880.392,1007 887.536,1011.73 894.721,1016.29 901.907,1020.66 909.092,1024.85 916.278,1028.85 930.649,1036.35 945.02,1043.2 952.964,1046.72 960.909,1050.05 968.853,1053.21 976.798,1056.18 992.687,1061.63 1008.58,1066.41 1023.69,1070.36 1038.81,1073.75 1053.93,1076.59 1069.05,1078.88 1084.77,1080.71 1100.49,1081.97 1116.21,1082.67 1131.92,1082.8 1145.16,1082.48 1158.39,1081.77 1171.62,1080.65 1184.85,1079.14 1201.01,1076.73 1217.16,1073.71 1233.32,1070.07 1249.47,1065.77 1264.27,1061.26 1279.07,1056.16 1293.87,1050.47 1308.67,1044.16 1322.34,1037.75 1336.01,1030.76 1349.67,1023.15 1363.34,1014.88 1370.26,1010.43 1377.19,1005.8 1384.11,1000.97 1391.03,995.946 1397.95,990.709 1404.88,985.254 1408.34,982.441 1411.8,979.569 1415.26,976.637 1418.72,973.643 1426.48,966.699 1434.24,959.415 1442,951.767 1449.76,943.727 1457.51,935.263 1465.27,926.338 1473.03,916.906 1480.79,906.915 1487.82,897.322 1494.85,887.156 1501.88,876.342 1508.91,864.786 1515.94,852.367 1522.97,838.921 1526.49,831.747 1530,824.224 1531.76,820.319 1533.52,816.309 1534.4,814.263 1535.27,812.187 1536.15,810.082 1537.03,807.946 1541.06,797.727 1545.08,786.683 1547.09,780.791 1549.11,774.61 1551.12,768.096 1553.13,761.197 1555.14,753.842 1557.16,745.934 1559.17,737.338 1561.18,727.85 1562.19,722.676 1563.19,717.139 1564.2,711.151 1565.2,704.588 1565.71,701.031 1566.21,697.247 1566.71,693.184 1567.22,688.772 1567.72,683.904 1568.22,678.403 1568.73,671.933 1569.23,663.683 1569.73,649.528 "/>
</svg>
