<?xml version="1.0" encoding="utf-8"?>
<svg xmlns="http://www.w3.org/2000/svg" xmlns:xlink="http://www.w3.org/1999/xlink" width="528" height="336" viewBox="0 0 2112 1344">
<defs>
  <clipPath id="clip510">
    <rect x="0" y="0" width="2112" height="1344"/>
  </clipPath>
</defs>
<path clip-path="url(#clip510)" d="M0 1344 L2112 1344 L2112 0 L0 0  Z" fill="#ffffff" fill-rule="evenodd" fill-opacity="1"/>
<defs>
  <clipPath id="clip511">
    <rect x="422" y="0" width="1479" height="1344"/>
  </clipPath>
</defs>
<path clip-path="url(#clip510)" d="M191.056 1234.58 L2064.76 1234.58 L2064.76 47.2441 L191.056 47.2441  Z" fill="#ffffff" fill-rule="evenodd" fill-opacity="1"/>
<defs>
  <clipPath id="clip512">
    <rect x="191" y="47" width="1875" height="1188"/>
  </clipPath>
</defs>
<polyline clip-path="url(#clip512)" style="stroke:#000000; stroke-linecap:round; stroke-linejoin:round; stroke-width:2; stroke-opacity:0.1; fill:none" points="244.085,1234.58 244.085,47.2441 "/>
<polyline clip-path="url(#clip512)" style="stroke:#000000; stroke-linecap:round; stroke-linejoin:round; stroke-width:2; stroke-opacity:0.1; fill:none" points="685.996,1234.58 685.996,47.2441 "/>
<polyline clip-path="url(#clip512)" style="stroke:#000000; stroke-linecap:round; stroke-linejoin:round; stroke-width:2; stroke-opacity:0.1; fill:none" points="1127.91,1234.58 1127.91,47.2441 "/>
<polyline clip-path="url(#clip512)" style="stroke:#000000; stroke-linecap:round; stroke-linejoin:round; stroke-width:2; stroke-opacity:0.1; fill:none" points="1569.82,1234.58 1569.82,47.2441 "/>
<polyline clip-path="url(#clip512)" style="stroke:#000000; stroke-linecap:round; stroke-linejoin:round; stroke-width:2; stroke-opacity:0.1; fill:none" points="2011.73,1234.58 2011.73,47.2441 "/>
<polyline clip-path="url(#clip512)" style="stroke:#000000; stroke-linecap:round; stroke-linejoin:round; stroke-width:2; stroke-opacity:0.1; fill:none" points="191.056,1171.2 2064.76,1171.2 "/>
<polyline clip-path="url(#clip512)" style="stroke:#000000; stroke-linecap:round; stroke-linejoin:round; stroke-width:2; stroke-opacity:0.1; fill:none" points="191.056,994.44 2064.76,994.44 "/>
<polyline clip-path="url(#clip512)" style="stroke:#000000; stroke-linecap:round; stroke-linejoin:round; stroke-width:2; stroke-opacity:0.1; fill:none" points="191.056,817.675 2064.76,817.675 "/>
<polyline clip-path="url(#clip512)" style="stroke:#000000; stroke-linecap:round; stroke-linejoin:round; stroke-width:2; stroke-opacity:0.1; fill:none" points="191.056,640.911 2064.76,640.911 "/>
<polyline clip-path="url(#clip512)" style="stroke:#000000; stroke-linecap:round; stroke-linejoin:round; stroke-width:2; stroke-opacity:0.1; fill:none" points="191.056,464.147 2064.76,464.147 "/>
<polyline clip-path="url(#clip512)" style="stroke:#000000; stroke-linecap:round; stroke-linejoin:round; stroke-width:2; stroke-opacity:0.1; fill:none" points="191.056,287.383 2064.76,287.383 "/>
<polyline clip-path="url(#clip512)" style="stroke:#000000; stroke-linecap:round; stroke-linejoin:round; stroke-width:2; stroke-opacity:0.1; fill:none" points="191.056,110.619 2064.76,110.619 "/>
<polyline clip-path="url(#clip510)" style="stroke:#000000; stroke-linecap:round; stroke-linejoin:round; stroke-width:4; stroke-opacity:1; fill:none" points="191.056,1234.58 2064.76,1234.58 "/>
<polyline clip-path="url(#clip510)" style="stroke:#000000; stroke-linecap:round; stroke-linejoin:round; stroke-width:4; stroke-opacity:1; fill:none" points="244.085,1234.58 244.085,1215.68 "/>
<polyline clip-path="url(#clip510)" style="stroke:#000000; stroke-linecap:round; stroke-linejoin:round; stroke-width:4; stroke-opacity:1; fill:none" points="685.996,1234.58 685.996,1215.68 "/>
<polyline clip-path="url(#clip510)" style="stroke:#000000; stroke-linecap:round; stroke-linejoin:round; stroke-width:4; stroke-opacity:1; fill:none" points="1127.91,1234.58 1127.91,1215.68 "/>
<polyline clip-path="url(#clip510)" style="stroke:#000000; stroke-linecap:round; stroke-linejoin:round; stroke-width:4; stroke-opacity:1; fill:none" points="1569.82,1234.58 1569.82,1215.68 "/>
<polyline clip-path="url(#clip510)" style="stroke:#000000; stroke-linecap:round; stroke-linejoin:round; stroke-width:4; stroke-opacity:1; fill:none" points="2011.73,1234.58 2011.73,1215.68 "/>
<path clip-path="url(#clip510)" d="M244.085 1263.19 Q240.474 1263.19 238.645 1266.76 Q236.84 1270.3 236.84 1277.43 Q236.84 1284.54 238.645 1288.1 Q240.474 1291.64 244.085 1291.64 Q247.719 1291.64 249.525 1288.1 Q251.354 1284.54 251.354 1277.43 Q251.354 1270.3 249.525 1266.76 Q247.719 1263.19 244.085 1263.19 M244.085 1259.49 Q249.895 1259.49 252.951 1264.1 Q256.03 1268.68 256.03 1277.43 Q256.03 1286.16 252.951 1290.76 Q249.895 1295.35 244.085 1295.35 Q238.275 1295.35 235.196 1290.76 Q232.141 1286.16 232.141 1277.43 Q232.141 1268.68 235.196 1264.1 Q238.275 1259.49 244.085 1259.49 Z" fill="#000000" fill-rule="nonzero" fill-opacity="1" /><path clip-path="url(#clip510)" d="M665.267 1290.74 L681.586 1290.74 L681.586 1294.67 L659.642 1294.67 L659.642 1290.74 Q662.304 1287.99 666.887 1283.36 Q671.493 1278.7 672.674 1277.36 Q674.919 1274.84 675.799 1273.1 Q676.702 1271.34 676.702 1269.65 Q676.702 1266.9 674.757 1265.16 Q672.836 1263.42 669.734 1263.42 Q667.535 1263.42 665.081 1264.19 Q662.651 1264.95 659.873 1266.5 L659.873 1261.78 Q662.697 1260.65 665.151 1260.07 Q667.604 1259.49 669.642 1259.49 Q675.012 1259.49 678.206 1262.17 Q681.401 1264.86 681.401 1269.35 Q681.401 1271.48 680.591 1273.4 Q679.803 1275.3 677.697 1277.89 Q677.118 1278.56 674.016 1281.78 Q670.915 1284.98 665.267 1290.74 Z" fill="#000000" fill-rule="nonzero" fill-opacity="1" /><path clip-path="url(#clip510)" d="M691.447 1260.11 L709.803 1260.11 L709.803 1264.05 L695.729 1264.05 L695.729 1272.52 Q696.748 1272.17 697.766 1272.01 Q698.785 1271.83 699.803 1271.83 Q705.59 1271.83 708.97 1275 Q712.35 1278.17 712.35 1283.59 Q712.35 1289.17 708.877 1292.27 Q705.405 1295.35 699.086 1295.35 Q696.91 1295.35 694.641 1294.98 Q692.396 1294.61 689.989 1293.86 L689.989 1289.17 Q692.072 1290.3 694.294 1290.86 Q696.516 1291.41 698.993 1291.41 Q702.998 1291.41 705.336 1289.3 Q707.674 1287.2 707.674 1283.59 Q707.674 1279.98 705.336 1277.87 Q702.998 1275.76 698.993 1275.76 Q697.118 1275.76 695.243 1276.18 Q693.391 1276.6 691.447 1277.48 L691.447 1260.11 Z" fill="#000000" fill-rule="nonzero" fill-opacity="1" /><path clip-path="url(#clip510)" d="M1102.61 1260.11 L1120.96 1260.11 L1120.96 1264.05 L1106.89 1264.05 L1106.89 1272.52 Q1107.91 1272.17 1108.92 1272.01 Q1109.94 1271.83 1110.96 1271.83 Q1116.75 1271.83 1120.13 1275 Q1123.51 1278.17 1123.51 1283.59 Q1123.51 1289.17 1120.04 1292.27 Q1116.56 1295.35 1110.24 1295.35 Q1108.07 1295.35 1105.8 1294.98 Q1103.55 1294.61 1101.15 1293.86 L1101.15 1289.17 Q1103.23 1290.3 1105.45 1290.86 Q1107.67 1291.41 1110.15 1291.41 Q1114.16 1291.41 1116.49 1289.3 Q1118.83 1287.2 1118.83 1283.59 Q1118.83 1279.98 1116.49 1277.87 Q1114.16 1275.76 1110.15 1275.76 Q1108.28 1275.76 1106.4 1276.18 Q1104.55 1276.6 1102.61 1277.48 L1102.61 1260.11 Z" fill="#000000" fill-rule="nonzero" fill-opacity="1" /><path clip-path="url(#clip510)" d="M1142.72 1263.19 Q1139.11 1263.19 1137.28 1266.76 Q1135.48 1270.3 1135.48 1277.43 Q1135.48 1284.54 1137.28 1288.1 Q1139.11 1291.64 1142.72 1291.64 Q1146.35 1291.64 1148.16 1288.1 Q1149.99 1284.54 1149.99 1277.43 Q1149.99 1270.3 1148.16 1266.76 Q1146.35 1263.19 1142.72 1263.19 M1142.72 1259.49 Q1148.53 1259.49 1151.59 1264.1 Q1154.67 1268.68 1154.67 1277.43 Q1154.67 1286.16 1151.59 1290.76 Q1148.53 1295.35 1142.72 1295.35 Q1136.91 1295.35 1133.83 1290.76 Q1130.78 1286.16 1130.78 1277.43 Q1130.78 1268.68 1133.83 1264.1 Q1136.91 1259.49 1142.72 1259.49 Z" fill="#000000" fill-rule="nonzero" fill-opacity="1" /><path clip-path="url(#clip510)" d="M1543.67 1260.11 L1565.89 1260.11 L1565.89 1262.11 L1553.35 1294.67 L1548.46 1294.67 L1560.27 1264.05 L1543.67 1264.05 L1543.67 1260.11 Z" fill="#000000" fill-rule="nonzero" fill-opacity="1" /><path clip-path="url(#clip510)" d="M1575.06 1260.11 L1593.42 1260.11 L1593.42 1264.05 L1579.34 1264.05 L1579.34 1272.52 Q1580.36 1272.17 1581.38 1272.01 Q1582.4 1271.83 1583.42 1271.83 Q1589.2 1271.83 1592.58 1275 Q1595.96 1278.17 1595.96 1283.59 Q1595.96 1289.17 1592.49 1292.27 Q1589.02 1295.35 1582.7 1295.35 Q1580.52 1295.35 1578.25 1294.98 Q1576.01 1294.61 1573.6 1293.86 L1573.6 1289.17 Q1575.68 1290.3 1577.91 1290.86 Q1580.13 1291.41 1582.61 1291.41 Q1586.61 1291.41 1588.95 1289.3 Q1591.29 1287.2 1591.29 1283.59 Q1591.29 1279.98 1588.95 1277.87 Q1586.61 1275.76 1582.61 1275.76 Q1580.73 1275.76 1578.86 1276.18 Q1577 1276.6 1575.06 1277.48 L1575.06 1260.11 Z" fill="#000000" fill-rule="nonzero" fill-opacity="1" /><path clip-path="url(#clip510)" d="M1971.33 1290.74 L1978.97 1290.74 L1978.97 1264.37 L1970.66 1266.04 L1970.66 1261.78 L1978.93 1260.11 L1983.6 1260.11 L1983.6 1290.74 L1991.24 1290.74 L1991.24 1294.67 L1971.33 1294.67 L1971.33 1290.74 Z" fill="#000000" fill-rule="nonzero" fill-opacity="1" /><path clip-path="url(#clip510)" d="M2010.69 1263.19 Q2007.07 1263.19 2005.25 1266.76 Q2003.44 1270.3 2003.44 1277.43 Q2003.44 1284.54 2005.25 1288.1 Q2007.07 1291.64 2010.69 1291.64 Q2014.32 1291.64 2016.12 1288.1 Q2017.95 1284.54 2017.95 1277.43 Q2017.95 1270.3 2016.12 1266.76 Q2014.32 1263.19 2010.69 1263.19 M2010.69 1259.49 Q2016.5 1259.49 2019.55 1264.1 Q2022.63 1268.68 2022.63 1277.43 Q2022.63 1286.16 2019.55 1290.76 Q2016.5 1295.35 2010.69 1295.35 Q2004.87 1295.35 2001.8 1290.76 Q1998.74 1286.16 1998.74 1277.43 Q1998.74 1268.68 2001.8 1264.1 Q2004.87 1259.49 2010.69 1259.49 Z" fill="#000000" fill-rule="nonzero" fill-opacity="1" /><path clip-path="url(#clip510)" d="M2040.85 1263.19 Q2037.24 1263.19 2035.41 1266.76 Q2033.6 1270.3 2033.6 1277.43 Q2033.6 1284.54 2035.41 1288.1 Q2037.24 1291.64 2040.85 1291.64 Q2044.48 1291.64 2046.29 1288.1 Q2048.12 1284.54 2048.12 1277.43 Q2048.12 1270.3 2046.29 1266.76 Q2044.48 1263.19 2040.85 1263.19 M2040.85 1259.49 Q2046.66 1259.49 2049.71 1264.1 Q2052.79 1268.68 2052.79 1277.43 Q2052.79 1286.16 2049.71 1290.76 Q2046.66 1295.35 2040.85 1295.35 Q2035.04 1295.35 2031.96 1290.76 Q2028.9 1286.16 2028.9 1277.43 Q2028.9 1268.68 2031.96 1264.1 Q2035.04 1259.49 2040.85 1259.49 Z" fill="#000000" fill-rule="nonzero" fill-opacity="1" /><polyline clip-path="url(#clip510)" style="stroke:#000000; stroke-linecap:round; stroke-linejoin:round; stroke-width:4; stroke-opacity:1; fill:none" points="191.056,1234.58 191.056,47.2441 "/>
<polyline clip-path="url(#clip510)" style="stroke:#000000; stroke-linecap:round; stroke-linejoin:round; stroke-width:4; stroke-opacity:1; fill:none" points="191.056,1171.2 209.954,1171.2 "/>
<polyline clip-path="url(#clip510)" style="stroke:#000000; stroke-linecap:round; stroke-linejoin:round; stroke-width:4; stroke-opacity:1; fill:none" points="191.056,994.44 209.954,994.44 "/>
<polyline clip-path="url(#clip510)" style="stroke:#000000; stroke-linecap:round; stroke-linejoin:round; stroke-width:4; stroke-opacity:1; fill:none" points="191.056,817.675 209.954,817.675 "/>
<polyline clip-path="url(#clip510)" style="stroke:#000000; stroke-linecap:round; stroke-linejoin:round; stroke-width:4; stroke-opacity:1; fill:none" points="191.056,640.911 209.954,640.911 "/>
<polyline clip-path="url(#clip510)" style="stroke:#000000; stroke-linecap:round; stroke-linejoin:round; stroke-width:4; stroke-opacity:1; fill:none" points="191.056,464.147 209.954,464.147 "/>
<polyline clip-path="url(#clip510)" style="stroke:#000000; stroke-linecap:round; stroke-linejoin:round; stroke-width:4; stroke-opacity:1; fill:none" points="191.056,287.383 209.954,287.383 "/>
<polyline clip-path="url(#clip510)" style="stroke:#000000; stroke-linecap:round; stroke-linejoin:round; stroke-width:4; stroke-opacity:1; fill:none" points="191.056,110.619 209.954,110.619 "/>
<path clip-path="url(#clip510)" d="M67.5015 1171.66 L97.1773 1171.66 L97.1773 1175.59 L67.5015 1175.59 L67.5015 1171.66 Z" fill="#000000" fill-rule="nonzero" fill-opacity="1" /><path clip-path="url(#clip510)" d="M121.436 1169.85 Q124.793 1170.57 126.668 1172.84 Q128.566 1175.1 128.566 1178.44 Q128.566 1183.55 125.047 1186.35 Q121.529 1189.16 115.048 1189.16 Q112.872 1189.16 110.557 1188.72 Q108.265 1188.3 105.811 1187.44 L105.811 1182.93 Q107.756 1184.06 110.071 1184.64 Q112.386 1185.22 114.909 1185.22 Q119.307 1185.22 121.598 1183.48 Q123.913 1181.75 123.913 1178.44 Q123.913 1175.38 121.76 1173.67 Q119.631 1171.93 115.811 1171.93 L111.784 1171.93 L111.784 1168.09 L115.997 1168.09 Q119.446 1168.09 121.274 1166.72 Q123.103 1165.34 123.103 1162.74 Q123.103 1160.08 121.205 1158.67 Q119.33 1157.23 115.811 1157.23 Q113.89 1157.23 111.691 1157.65 Q109.492 1158.07 106.853 1158.95 L106.853 1154.78 Q109.515 1154.04 111.83 1153.67 Q114.168 1153.3 116.228 1153.3 Q121.552 1153.3 124.654 1155.73 Q127.756 1158.14 127.756 1162.26 Q127.756 1165.13 126.112 1167.12 Q124.469 1169.09 121.436 1169.85 Z" fill="#000000" fill-rule="nonzero" fill-opacity="1" /><path clip-path="url(#clip510)" d="M147.432 1157 Q143.821 1157 141.992 1160.57 Q140.186 1164.11 140.186 1171.24 Q140.186 1178.34 141.992 1181.91 Q143.821 1185.45 147.432 1185.45 Q151.066 1185.45 152.871 1181.91 Q154.7 1178.34 154.7 1171.24 Q154.7 1164.11 152.871 1160.57 Q151.066 1157 147.432 1157 M147.432 1153.3 Q153.242 1153.3 156.297 1157.91 Q159.376 1162.49 159.376 1171.24 Q159.376 1179.97 156.297 1184.57 Q153.242 1189.16 147.432 1189.16 Q141.621 1189.16 138.543 1184.57 Q135.487 1179.97 135.487 1171.24 Q135.487 1162.49 138.543 1157.91 Q141.621 1153.3 147.432 1153.3 Z" fill="#000000" fill-rule="nonzero" fill-opacity="1" /><path clip-path="url(#clip510)" d="M67.5015 994.891 L97.1773 994.891 L97.1773 998.826 L67.5015 998.826 L67.5015 994.891 Z" fill="#000000" fill-rule="nonzero" fill-opacity="1" /><path clip-path="url(#clip510)" d="M111.298 1007.78 L127.617 1007.78 L127.617 1011.72 L105.673 1011.72 L105.673 1007.78 Q108.335 1005.03 112.918 1000.4 Q117.524 995.747 118.705 994.405 Q120.95 991.882 121.83 990.146 Q122.733 988.386 122.733 986.697 Q122.733 983.942 120.788 982.206 Q118.867 980.47 115.765 980.47 Q113.566 980.47 111.112 981.234 Q108.682 981.998 105.904 983.548 L105.904 978.826 Q108.728 977.692 111.182 977.113 Q113.636 976.535 115.673 976.535 Q121.043 976.535 124.237 979.22 Q127.432 981.905 127.432 986.396 Q127.432 988.525 126.622 990.447 Q125.835 992.345 123.728 994.937 Q123.149 995.609 120.048 998.826 Q116.946 1002.02 111.298 1007.78 Z" fill="#000000" fill-rule="nonzero" fill-opacity="1" /><path clip-path="url(#clip510)" d="M147.432 980.238 Q143.821 980.238 141.992 983.803 Q140.186 987.345 140.186 994.474 Q140.186 1001.58 141.992 1005.15 Q143.821 1008.69 147.432 1008.69 Q151.066 1008.69 152.871 1005.15 Q154.7 1001.58 154.7 994.474 Q154.7 987.345 152.871 983.803 Q151.066 980.238 147.432 980.238 M147.432 976.535 Q153.242 976.535 156.297 981.141 Q159.376 985.724 159.376 994.474 Q159.376 1003.2 156.297 1007.81 Q153.242 1012.39 147.432 1012.39 Q141.621 1012.39 138.543 1007.81 Q135.487 1003.2 135.487 994.474 Q135.487 985.724 138.543 981.141 Q141.621 976.535 147.432 976.535 Z" fill="#000000" fill-rule="nonzero" fill-opacity="1" /><path clip-path="url(#clip510)" d="M67.5015 818.127 L97.1773 818.127 L97.1773 822.062 L67.5015 822.062 L67.5015 818.127 Z" fill="#000000" fill-rule="nonzero" fill-opacity="1" /><path clip-path="url(#clip510)" d="M108.08 831.02 L115.719 831.02 L115.719 804.655 L107.409 806.321 L107.409 802.062 L115.673 800.395 L120.348 800.395 L120.348 831.02 L127.987 831.02 L127.987 834.955 L108.08 834.955 L108.08 831.02 Z" fill="#000000" fill-rule="nonzero" fill-opacity="1" /><path clip-path="url(#clip510)" d="M147.432 803.474 Q143.821 803.474 141.992 807.039 Q140.186 810.581 140.186 817.71 Q140.186 824.817 141.992 828.381 Q143.821 831.923 147.432 831.923 Q151.066 831.923 152.871 828.381 Q154.7 824.817 154.7 817.71 Q154.7 810.581 152.871 807.039 Q151.066 803.474 147.432 803.474 M147.432 799.77 Q153.242 799.77 156.297 804.377 Q159.376 808.96 159.376 817.71 Q159.376 826.437 156.297 831.043 Q153.242 835.627 147.432 835.627 Q141.621 835.627 138.543 831.043 Q135.487 826.437 135.487 817.71 Q135.487 808.96 138.543 804.377 Q141.621 799.77 147.432 799.77 Z" fill="#000000" fill-rule="nonzero" fill-opacity="1" /><path clip-path="url(#clip510)" d="M147.432 626.71 Q143.821 626.71 141.992 630.275 Q140.186 633.816 140.186 640.946 Q140.186 648.052 141.992 651.617 Q143.821 655.159 147.432 655.159 Q151.066 655.159 152.871 651.617 Q154.7 648.052 154.7 640.946 Q154.7 633.816 152.871 630.275 Q151.066 626.71 147.432 626.71 M147.432 623.006 Q153.242 623.006 156.297 627.613 Q159.376 632.196 159.376 640.946 Q159.376 649.673 156.297 654.279 Q153.242 658.863 147.432 658.863 Q141.621 658.863 138.543 654.279 Q135.487 649.673 135.487 640.946 Q135.487 632.196 138.543 627.613 Q141.621 623.006 147.432 623.006 Z" fill="#000000" fill-rule="nonzero" fill-opacity="1" /><path clip-path="url(#clip510)" d="M108.08 477.492 L115.719 477.492 L115.719 451.126 L107.409 452.793 L107.409 448.534 L115.673 446.867 L120.348 446.867 L120.348 477.492 L127.987 477.492 L127.987 481.427 L108.08 481.427 L108.08 477.492 Z" fill="#000000" fill-rule="nonzero" fill-opacity="1" /><path clip-path="url(#clip510)" d="M147.432 449.946 Q143.821 449.946 141.992 453.511 Q140.186 457.052 140.186 464.182 Q140.186 471.288 141.992 474.853 Q143.821 478.395 147.432 478.395 Q151.066 478.395 152.871 474.853 Q154.7 471.288 154.7 464.182 Q154.7 457.052 152.871 453.511 Q151.066 449.946 147.432 449.946 M147.432 446.242 Q153.242 446.242 156.297 450.849 Q159.376 455.432 159.376 464.182 Q159.376 472.909 156.297 477.515 Q153.242 482.098 147.432 482.098 Q141.621 482.098 138.543 477.515 Q135.487 472.909 135.487 464.182 Q135.487 455.432 138.543 450.849 Q141.621 446.242 147.432 446.242 Z" fill="#000000" fill-rule="nonzero" fill-opacity="1" /><path clip-path="url(#clip510)" d="M111.298 300.728 L127.617 300.728 L127.617 304.663 L105.673 304.663 L105.673 300.728 Q108.335 297.973 112.918 293.344 Q117.524 288.691 118.705 287.348 Q120.95 284.825 121.83 283.089 Q122.733 281.33 122.733 279.64 Q122.733 276.885 120.788 275.149 Q118.867 273.413 115.765 273.413 Q113.566 273.413 111.112 274.177 Q108.682 274.941 105.904 276.492 L105.904 271.77 Q108.728 270.635 111.182 270.057 Q113.636 269.478 115.673 269.478 Q121.043 269.478 124.237 272.163 Q127.432 274.848 127.432 279.339 Q127.432 281.469 126.622 283.39 Q125.835 285.288 123.728 287.881 Q123.149 288.552 120.048 291.77 Q116.946 294.964 111.298 300.728 Z" fill="#000000" fill-rule="nonzero" fill-opacity="1" /><path clip-path="url(#clip510)" d="M147.432 273.182 Q143.821 273.182 141.992 276.747 Q140.186 280.288 140.186 287.418 Q140.186 294.524 141.992 298.089 Q143.821 301.631 147.432 301.631 Q151.066 301.631 152.871 298.089 Q154.7 294.524 154.7 287.418 Q154.7 280.288 152.871 276.747 Q151.066 273.182 147.432 273.182 M147.432 269.478 Q153.242 269.478 156.297 274.084 Q159.376 278.668 159.376 287.418 Q159.376 296.145 156.297 300.751 Q153.242 305.334 147.432 305.334 Q141.621 305.334 138.543 300.751 Q135.487 296.145 135.487 287.418 Q135.487 278.668 138.543 274.084 Q141.621 269.478 147.432 269.478 Z" fill="#000000" fill-rule="nonzero" fill-opacity="1" /><path clip-path="url(#clip510)" d="M121.436 109.265 Q124.793 109.982 126.668 112.251 Q128.566 114.519 128.566 117.853 Q128.566 122.968 125.047 125.769 Q121.529 128.57 115.048 128.57 Q112.872 128.57 110.557 128.13 Q108.265 127.714 105.811 126.857 L105.811 122.343 Q107.756 123.478 110.071 124.056 Q112.386 124.635 114.909 124.635 Q119.307 124.635 121.598 122.899 Q123.913 121.163 123.913 117.853 Q123.913 114.797 121.76 113.084 Q119.631 111.348 115.811 111.348 L111.784 111.348 L111.784 107.505 L115.997 107.505 Q119.446 107.505 121.274 106.14 Q123.103 104.751 123.103 102.158 Q123.103 99.4963 121.205 98.0842 Q119.33 96.6491 115.811 96.6491 Q113.89 96.6491 111.691 97.0657 Q109.492 97.4824 106.853 98.362 L106.853 94.1954 Q109.515 93.4546 111.83 93.0843 Q114.168 92.7139 116.228 92.7139 Q121.552 92.7139 124.654 95.1444 Q127.756 97.5518 127.756 101.672 Q127.756 104.543 126.112 106.533 Q124.469 108.501 121.436 109.265 Z" fill="#000000" fill-rule="nonzero" fill-opacity="1" /><path clip-path="url(#clip510)" d="M147.432 96.4176 Q143.821 96.4176 141.992 99.9824 Q140.186 103.524 140.186 110.654 Q140.186 117.76 141.992 121.325 Q143.821 124.867 147.432 124.867 Q151.066 124.867 152.871 121.325 Q154.7 117.76 154.7 110.654 Q154.7 103.524 152.871 99.9824 Q151.066 96.4176 147.432 96.4176 M147.432 92.7139 Q153.242 92.7139 156.297 97.3204 Q159.376 101.904 159.376 110.654 Q159.376 119.38 156.297 123.987 Q153.242 128.57 147.432 128.57 Q141.621 128.57 138.543 123.987 Q135.487 119.38 135.487 110.654 Q135.487 101.904 138.543 97.3204 Q141.621 92.7139 147.432 92.7139 Z" fill="#000000" fill-rule="nonzero" fill-opacity="1" /><polyline clip-path="url(#clip512)" style="stroke:#009af9; stroke-linecap:round; stroke-linejoin:round; stroke-width:4; stroke-opacity:1; fill:none" points="244.085,640.911 246.491,639.709 248.898,638.513 251.304,637.327 253.71,636.158 256.116,635.011 258.522,633.892 260.929,632.805 263.335,631.755 264.971,631.066 266.606,630.397 268.242,629.751 269.878,629.129 271.514,628.532 273.149,627.962 274.785,627.419 276.421,626.905 278.057,626.422 279.693,625.969 281.328,625.548 282.964,625.16 284.6,624.806 286.236,624.486 287.872,624.202 289.507,623.953 291.143,623.74 292.779,623.565 294.415,623.426 296.05,623.325 297.686,623.261 299.322,623.236 300.958,623.248 302.594,623.298 304.229,623.385 305.865,623.51 307.501,623.673 309.137,623.872 310.773,624.108 312.408,624.379 314.044,624.686 315.68,625.028 317.316,625.404 318.952,625.813 320.587,626.254 322.223,626.727 323.859,627.23 325.495,627.763 327.13,628.323 328.766,628.911 330.402,629.524 332.038,630.161 333.674,630.822 335.309,631.504 338.581,632.927 341.853,634.419 348.396,637.555 354.939,640.806 361.482,644.061 368.025,647.208 369.821,648.038 371.617,648.851 373.414,649.643 375.21,650.412 377.006,651.157 378.802,651.875 380.598,652.565 382.394,653.225 384.19,653.853 385.987,654.448 387.783,655.008 389.579,655.531 391.375,656.017 393.171,656.463 394.967,656.87 396.763,657.235 398.56,657.559 400.356,657.839 402.152,658.076 403.948,658.268 405.744,658.416 407.54,658.518 409.336,658.575 411.133,658.586 412.929,658.552 414.725,658.472 416.521,658.347 418.317,658.177 420.113,657.962 421.91,657.704 423.706,657.402 425.502,657.057 427.3,656.671 429.097,656.243 430.895,655.776 432.693,655.271 434.491,654.728 436.289,654.15 438.087,653.537 439.884,652.892 441.682,652.216 443.48,651.511 445.278,650.778 447.076,650.02 448.874,649.238 450.671,648.435 452.469,647.612 454.267,646.772 461.458,643.282 468.65,639.694 472.245,637.91 475.841,636.157 479.437,634.453 483.032,632.816 484.837,632.024 486.643,631.256 488.448,630.513 490.253,629.797 492.058,629.11 493.864,628.453 495.669,627.83 497.474,627.24 499.279,626.686 501.084,626.169 502.89,625.69 504.695,625.251 506.5,624.853 508.305,624.497 510.111,624.184 511.916,623.914 513.721,623.688 515.526,623.508 517.332,623.373 519.137,623.283 520.942,623.239 522.747,623.242 524.552,623.291 526.358,623.385 528.163,623.525 529.968,623.711 531.773,623.941 533.579,624.216 535.384,624.534 537.189,624.895 538.994,625.297 540.8,625.741 542.475,626.187 544.15,626.667 545.825,627.179 547.5,627.722 549.176,628.294 550.851,628.894 552.526,629.522 554.201,630.175 557.552,631.552 560.902,633.013 564.253,634.545 567.603,636.134 574.304,639.426 581.005,642.771 584.355,644.426 587.706,646.05 591.056,647.627 594.406,649.144 596.22,649.936 598.034,650.703 599.848,651.445 601.661,652.159 603.475,652.844 605.289,653.497 607.103,654.117 608.916,654.702 610.73,655.251 612.544,655.762 614.358,656.234 616.171,656.666 617.985,657.056 619.799,657.404 621.613,657.708 623.426,657.969 625.24,658.184 627.054,658.354 628.868,658.478 630.681,658.556 632.495,658.587 634.309,658.572 636.123,658.51 637.936,658.402 639.75,658.248 641.564,658.049 643.377,657.804 645.191,657.515 647.005,657.182 648.819,656.806 650.632,656.389 652.446,655.93 654.545,655.351 656.644,654.72 658.744,654.041 660.843,653.316 662.942,652.547 665.041,651.736 667.14,650.888 669.239,650.005 673.437,648.145 677.635,646.183 681.834,644.147 686.032,642.066 690.23,639.968 694.428,637.883 698.627,635.841 702.825,633.871 704.924,632.921 707.023,631.999 709.122,631.109 711.221,630.254 713.32,629.436 715.419,628.658 717.519,627.924 719.618,627.235 721.206,626.746 722.794,626.285 724.382,625.854 725.97,625.454 727.558,625.084 729.146,624.747 730.734,624.442 732.322,624.17 733.911,623.932 735.499,623.729 737.087,623.56 738.675,623.426 740.263,623.327 741.851,623.264 743.439,623.236 745.027,623.244 746.615,623.288 748.203,623.367 749.792,623.482 751.38,623.632 752.968,623.816 754.556,624.036 756.144,624.289 757.732,624.576 759.32,624.895 760.908,625.247 762.496,625.631 764.084,626.046 765.672,626.49 767.261,626.964 768.849,627.465 770.437,627.994 772.356,628.668 774.275,629.378 776.195,630.122 778.114,630.897 780.033,631.702 781.953,632.535 783.872,633.392 785.791,634.271 789.63,636.085 793.468,637.956 797.307,639.862 801.146,641.781 804.984,643.689 808.823,645.564 812.661,647.385 816.5,649.129 818.419,649.966 820.339,650.777 822.258,651.558 824.177,652.308 826.097,653.024 828.016,653.705 829.935,654.348 831.854,654.952 833.855,655.536 835.856,656.075 837.856,656.564 839.857,657.004 841.857,657.391 843.858,657.727 845.858,658.008 847.859,658.234 849.859,658.406 851.86,658.521 853.86,658.58 855.861,658.582 857.861,658.527 859.862,658.417 861.862,658.25 863.863,658.027 865.864,657.75 867.864,657.419 869.865,657.035 871.865,656.6 873.866,656.114 875.866,655.58 877.867,654.999 879.867,654.372 881.868,653.703 883.868,652.992 885.869,652.243 887.869,651.458 889.87,650.638 891.87,649.788 893.871,648.909 895.872,648.005 899.069,646.513 902.267,644.976 905.465,643.405 908.663,641.814 915.059,638.623 921.455,635.507 924.653,634.009 927.851,632.567 931.049,631.193 934.247,629.899 935.846,629.285 937.445,628.695 939.044,628.13 940.643,627.591 942.242,627.079 943.841,626.596 945.44,626.142 947.039,625.718 948.997,625.241 950.956,624.812 952.915,624.432 954.874,624.104 956.832,623.826 958.791,623.601 960.75,623.43 962.709,623.312 964.667,623.248 966.626,623.238 968.585,623.282 970.544,623.381 972.502,623.533 974.461,623.738 976.42,623.997 978.379,624.307 980.337,624.668 982.296,625.079 984.255,625.539 986.214,626.046 988.172,626.598 990.131,627.195 992.09,627.833 994.049,628.512 996.007,629.228 997.966,629.981 999.925,630.767 1001.88,631.584 1003.84,632.43 1005.8,633.302 1007.76,634.197 1009.72,635.113 1013.69,637.023 1017.67,638.983 1021.65,640.967 1025.62,642.95 1029.6,644.907 1033.57,646.814 1037.55,648.647 1041.52,650.382 1043.51,651.205 1045.5,651.997 1047.49,652.753 1049.47,653.472 1051.46,654.151 1053.45,654.788 1055.44,655.381 1057.43,655.929 1059.41,656.429 1061.4,656.88 1063.39,657.281 1065.38,657.63 1067.36,657.926 1069.35,658.169 1071.34,658.356 1073.33,658.489 1075.1,658.56 1076.86,658.587 1078.63,658.57 1080.4,658.509 1082.17,658.404 1083.94,658.255 1085.71,658.062 1087.48,657.827 1089.24,657.549 1091.01,657.23 1092.78,656.87 1094.55,656.47 1096.32,656.031 1098.09,655.554 1099.85,655.041 1101.62,654.492 1103.39,653.91 1105.16,653.294 1106.93,652.648 1108.7,651.973 1110.46,651.269 1112.23,650.54 1114,649.787 1115.77,649.011 1119.31,647.402 1122.84,645.727 1126.38,644.004 1129.92,642.251 1136.4,639.015 1142.88,635.843 1146.12,634.315 1149.36,632.841 1152.6,631.436 1155.84,630.11 1157.46,629.48 1159.08,628.875 1160.7,628.294 1162.32,627.74 1163.94,627.214 1165.56,626.717 1167.18,626.249 1168.8,625.812 1170.42,625.407 1172.04,625.034 1173.66,624.695 1175.28,624.39 1176.9,624.119 1178.52,623.884 1180.14,623.684 1181.76,623.521 1183.95,623.358 1186.13,623.263 1188.32,623.235 1190.51,623.275 1192.69,623.382 1194.88,623.556 1197.07,623.797 1199.25,624.103 1201.44,624.473 1203.63,624.906 1205.81,625.4 1208,625.954 1210.19,626.565 1212.37,627.23 1214.56,627.948 1216.75,628.716 1218.93,629.53 1221.12,630.388 1223.3,631.286 1225.49,632.22 1227.68,633.188 1229.86,634.186 1232.05,635.209 1234.24,636.254 1242.98,640.571 1251.73,644.91 1255.04,646.501 1258.35,648.044 1261.66,649.524 1264.96,650.929 1268.27,652.246 1271.58,653.464 1273.24,654.033 1274.89,654.572 1276.54,655.082 1278.2,655.561 1279.85,656.008 1281.51,656.421 1283.16,656.801 1284.82,657.146 1286.47,657.455 1288.13,657.728 1289.78,657.965 1291.43,658.164 1293.09,658.325 1294.74,658.448 1296.4,658.532 1298.05,658.578 1299.71,658.586 1301.36,658.555 1303.02,658.485 1304.67,658.376 1306.4,658.222 1308.12,658.027 1309.85,657.791 1311.57,657.515 1313.3,657.199 1315.03,656.845 1316.75,656.452 1318.48,656.023 1320.2,655.557 1321.93,655.057 1323.66,654.523 1325.38,653.956 1327.11,653.358 1328.83,652.731 1330.56,652.076 1332.29,651.393 1335.74,649.956 1339.19,648.432 1342.64,646.837 1346.09,645.185 1353,641.775 1359.9,638.333 1363.96,636.349 1368.01,634.425 1370.04,633.493 1372.06,632.586 1374.09,631.706 1376.12,630.856 1378.15,630.04 1380.17,629.259 1382.2,628.516 1384.23,627.815 1386.25,627.156 1388.28,626.542 1390.31,625.976 1392.33,625.459 1394.36,624.992 1396.39,624.578 1398.42,624.218 1400.44,623.912 1402.47,623.662 1404.5,623.469 1406.52,623.333 1408.55,623.256 1410.58,623.236 1412.61,623.274 1414.63,623.37 1416.66,623.524 1418.69,623.735 1420.71,624.002 1422.74,624.325 1424.77,624.703 1426.43,625.051 1428.08,625.434 1429.74,625.852 1431.4,626.302 1433.06,626.785 1434.72,627.299 1436.37,627.842 1438.03,628.415 1441.35,629.64 1444.66,630.965 1446.32,631.661 1447.98,632.378 1449.64,633.113 1451.3,633.865 1454.61,635.415 1457.93,637.012 1461.24,638.644 1464.56,640.296 1471.19,643.602 1477.83,646.813 1481.61,648.56 1485.4,650.22 1487.29,651.011 1489.19,651.773 1491.08,652.504 1492.97,653.202 1494.87,653.865 1496.76,654.49 1498.65,655.076 1500.55,655.622 1502.44,656.126 1504.33,656.586 1506.23,657.001 1508.12,657.369 1510.01,657.691 1511.91,657.965 1513.8,658.189 1515.7,658.364 1517.59,658.489 1519.48,658.564 1521.38,658.588 1523.27,658.561 1525.16,658.484 1527.06,658.356 1528.95,658.178 1530.84,657.951 1532.74,657.675 1534.63,657.35 1536.52,656.979 1538.42,656.561 1540.16,656.138 1541.9,655.678 1543.64,655.182 1545.38,654.651 1547.12,654.088 1548.86,653.492 1550.6,652.866 1552.34,652.21 1555.82,650.819 1559.3,649.333 1562.78,647.764 1566.26,646.129 1573.22,642.725 1580.18,639.25 1583.66,637.528 1587.14,635.839 1590.63,634.199 1594.11,632.624 1596.22,631.708 1598.33,630.824 1600.44,629.976 1602.55,629.167 1604.66,628.4 1606.76,627.678 1608.87,627.002 1610.98,626.377 1613.09,625.802 1615.2,625.282 1617.31,624.817 1619.42,624.41 1621.53,624.061 1623.64,623.773 1625.75,623.545 1627.86,623.379 1629.97,623.276 1632.08,623.236 1634.19,623.258 1636.3,623.343 1638.41,623.491 1640.52,623.701 1642.63,623.972 1644.74,624.303 1646.85,624.694 1648.96,625.142 1651.07,625.647 1653.18,626.206 1655.29,626.817 1657.4,627.478 1659.51,628.187 1661.62,628.942 1663.36,629.595 1665.1,630.275 1666.83,630.982 1668.57,631.712 1670.31,632.464 1672.04,633.237 1673.78,634.028 1675.52,634.835 1682.46,638.193 1689.41,641.655 1692.88,643.384 1696.36,645.089 1699.83,646.754 1703.3,648.362 1706.78,649.898 1710.25,651.348 1711.99,652.036 1713.72,652.697 1715.46,653.33 1717.2,653.933 1719.18,654.583 1721.17,655.19 1723.15,655.752 1725.14,656.268 1727.12,656.735 1729.11,657.152 1731.09,657.518 1733.08,657.832 1735.06,658.092 1737.05,658.298 1739.03,658.45 1741.02,658.546 1743,658.586 1744.99,658.571 1746.97,658.5 1748.96,658.374 1750.94,658.193 1752.93,657.957 1754.91,657.667 1756.9,657.325 1758.88,656.931 1760.87,656.486 1762.85,655.992 1764.84,655.451 1766.82,654.864 1768.81,654.233 1770.79,653.56 1772.78,652.847 1774.76,652.097 1776.75,651.311 1778.73,650.492 1780.72,649.643 1783.81,648.267 1786.9,646.834 1790,645.356 1793.09,643.844 1799.28,640.765 1805.46,637.689 1808.56,636.183 1811.65,634.713 1814.74,633.29 1817.84,631.925 1820.93,630.629 1824.02,629.412 1827.12,628.283 1830.21,627.251 1832.18,626.646 1834.16,626.085 1836.13,625.571 1838.11,625.104 1840.08,624.687 1842.06,624.321 1844.03,624.006 1846.01,623.744 1847.98,623.536 1849.96,623.382 1851.93,623.282 1853.91,623.238 1855.88,623.248 1857.86,623.314 1859.83,623.434 1861.81,623.61 1863.78,623.839 1865.76,624.121 1867.73,624.456 1869.71,624.842 1871.68,625.278 1873.66,625.763 1875.63,626.295 1877.61,626.873 1879.58,627.495 1881.56,628.158 1883.53,628.862 1885.51,629.603 1887.48,630.379 1889.46,631.188 1891.43,632.027 1893.41,632.894 1896.76,634.42 1900.1,636.005 1903.45,637.633 1906.8,639.291 1913.5,642.635 1920.2,645.918 1923.55,647.499 1926.9,649.021 1930.25,650.471 1933.6,651.834 1935.27,652.48 1936.95,653.1 1938.62,653.693 1940.3,654.256 1941.97,654.79 1943.65,655.293 1945.32,655.764 1946.99,656.201 1948.67,656.604 1950.34,656.971 1952.02,657.303 1953.69,657.598 1955.37,657.855 1957.04,658.075 1958.72,658.256 1960.39,658.398 1962.07,658.5 1963.74,658.564 1965.42,658.588 1967.09,658.572 1968.76,658.516 1970.44,658.421 1972.11,658.287 1973.79,658.113 1975.46,657.901 1977.14,657.651 1978.81,657.364 1980.49,657.039 1982.16,656.679 1983.84,656.283 1985.51,655.852 1987.19,655.388 1988.86,654.892 1990.54,654.364 1992.21,653.806 1993.88,653.219 1997.23,651.963 2000.58,650.609 2003.37,649.415 2006.15,648.169 2008.94,646.878 2011.73,645.549 "/>
</svg>
