<?xml version="1.0" encoding="UTF-8" standalone="no"?>
<!-- Created with Inkscape (http://www.inkscape.org/) -->

<svg
   width="145.74864mm"
   height="65.646454mm"
   viewBox="0 0 145.749 65.646615"
   version="1.1"
   id="svg866"
   inkscape:export-filename="infinito.png"
   inkscape:export-xdpi="76.331413"
   inkscape:export-ydpi="76.331413"
   inkscape:version="1.2.1 (9c6d41e410, 2022-07-14, custom)"
   sodipodi:docname="infinito.svg"
   xmlns:inkscape="http://www.inkscape.org/namespaces/inkscape"
   xmlns:sodipodi="http://sodipodi.sourceforge.net/DTD/sodipodi-0.dtd"
   xmlns:xlink="http://www.w3.org/1999/xlink"
   xmlns="http://www.w3.org/2000/svg"
   xmlns:svg="http://www.w3.org/2000/svg">
  <sodipodi:namedview
     id="namedview868"
     pagecolor="#505050"
     bordercolor="#ffffff"
     borderopacity="1"
     inkscape:showpageshadow="0"
     inkscape:pageopacity="0"
     inkscape:pagecheckerboard="1"
     inkscape:deskcolor="#505050"
     inkscape:document-units="mm"
     showgrid="false"
     inkscape:zoom="0.914906"
     inkscape:cx="217.50868"
     inkscape:cy="-40.441313"
     inkscape:window-width="1920"
     inkscape:window-height="1051"
     inkscape:window-x="1920"
     inkscape:window-y="0"
     inkscape:window-maximized="1"
     inkscape:current-layer="layer1" />
  <defs
     id="defs863">
    <linearGradient
       x1="0"
       y1="0"
       x2="1"
       y2="0"
       gradientUnits="userSpaceOnUse"
       gradientTransform="matrix(156.70082,0,0,-156.70082,59.899967,230.02904)"
       spreadMethod="pad"
       id="linearGradient58">
      <stop
         style="stop-opacity:1;stop-color:#ffd000"
         offset="0"
         id="stop48" />
      <stop
         style="stop-opacity:1;stop-color:#ffd000"
         offset="0.08496236"
         id="stop50" />
      <stop
         style="stop-opacity:1;stop-color:#b1d007"
         offset="0.5"
         id="stop52" />
      <stop
         style="stop-opacity:1;stop-color:#1ba0de"
         offset="0.79275547"
         id="stop54" />
      <stop
         style="stop-opacity:1;stop-color:#1ba0de"
         offset="1"
         id="stop56" />
    </linearGradient>
    <linearGradient
       x1="0"
       y1="0"
       x2="1"
       y2="0"
       gradientUnits="userSpaceOnUse"
       gradientTransform="matrix(155.23532,0,0,-155.23532,60.535454,230.30037)"
       spreadMethod="pad"
       id="linearGradient88">
      <stop
         style="stop-opacity:1;stop-color:#ffd000"
         offset="0"
         id="stop74" />
      <stop
         style="stop-opacity:1;stop-color:#ffd000"
         offset="0.0486486"
         id="stop76" />
      <stop
         style="stop-opacity:1;stop-color:#ffd000"
         offset="0.1767819"
         id="stop78" />
      <stop
         style="stop-opacity:1;stop-color:#a2248f"
         offset="0.513514"
         id="stop80" />
      <stop
         style="stop-opacity:1;stop-color:#1ba0de"
         offset="0.81691443"
         id="stop82" />
      <stop
         style="stop-opacity:1;stop-color:#1ba0de"
         offset="0.940541"
         id="stop84" />
      <stop
         style="stop-opacity:1;stop-color:#1ba0de"
         offset="1"
         id="stop86" />
    </linearGradient>
    <linearGradient
       inkscape:collect="always"
       xlink:href="#linearGradient58"
       id="linearGradient1066"
       gradientUnits="userSpaceOnUse"
       gradientTransform="matrix(156.70082,0,0,-156.70082,59.899967,230.02904)"
       x1="0"
       y1="0"
       x2="1"
       y2="0"
       spreadMethod="pad" />
    <linearGradient
       inkscape:collect="always"
       xlink:href="#linearGradient88"
       id="linearGradient1068"
       gradientUnits="userSpaceOnUse"
       gradientTransform="matrix(155.23532,0,0,-155.23532,60.535454,230.30037)"
       x1="0"
       y1="0"
       x2="1"
       y2="0"
       spreadMethod="pad" />
    <linearGradient
       inkscape:collect="always"
       xlink:href="#linearGradient58"
       id="linearGradient1070"
       gradientUnits="userSpaceOnUse"
       gradientTransform="matrix(156.70082,0,0,-156.70082,59.899967,230.02904)"
       x1="0"
       y1="0"
       x2="1"
       y2="0"
       spreadMethod="pad" />
    <linearGradient
       inkscape:collect="always"
       xlink:href="#linearGradient88"
       id="linearGradient1072"
       gradientUnits="userSpaceOnUse"
       gradientTransform="matrix(155.23532,0,0,-155.23532,60.535454,230.30037)"
       x1="0"
       y1="0"
       x2="1"
       y2="0"
       spreadMethod="pad" />
  </defs>
  <g
     inkscape:label="Layer 1"
     inkscape:groupmode="layer"
     id="layer1"
     transform="translate(-47.429471,-159.48933)">
    <g
       id="g821"
       transform="matrix(0.35277777,0,0,-0.35277777,168.43457,269.50803)">
      <g
         id="g799"
         transform="matrix(2.6365288,0,0,2.6365288,-500.93496,-388.37165)">
        <g
           id="g36">
          <g
             id="g38">
            <g
               id="g44">
              <g
                 id="g46">
                <path
                   d="m 71.13,256.146 c -4.435,-3.547 -9.224,-8.868 -10.643,-17.737 v 0 c -1.419,-8.869 -0.408,-17.619 4.612,-26.873 v 0 c 2.128,-3.925 4.611,8.87 4.611,8.87 v 0 l 3.038,4.633 c 0,0 -5.454,10.975 1.53,21.086 v 0 c 5.062,7.328 11.219,10.465 21.506,10.465 v 0 c 13.23,0 22.751,-10.074 30.333,-20.044 v 0 c 16.839,-22.143 33.332,-37.66 52.874,-39.643 v 0 c 19.148,-1.942 30.848,7.893 35.992,22.792 v 0 c 4.622,13.389 -2.129,26.43 -2.129,26.43 v 0 l -9.401,-9.402 c 0,0 7.982,-14.366 -2.838,-24.654 v 0 c -7.462,-7.097 -20.93,-11.176 -37.071,-2.661 v 0 c -16.142,8.513 -21.108,16.496 -29.446,26.783 v 0 c -8.336,10.288 -13.835,20.133 -28.202,25.1 v 0 c -3.965,1.37 -8.351,2.107 -12.801,2.108 v 0 c -7.749,0 -15.693,-2.235 -21.965,-7.253"
                   style="fill:url(#linearGradient1066);stroke:none"
                   id="path60" />
              </g>
            </g>
          </g>
        </g>
        <g
           id="g62">
          <g
             id="g64">
            <g
               id="g70">
              <g
                 id="g72">
                <path
                   d="m 144.387,249.85 c -6.918,-6.563 -21.109,-23.414 -28.735,-28.735 v 0 c -7.628,-5.322 -17.384,-10.821 -30.332,-7.096 v 0 c -10.647,3.063 -13.856,13.674 -14.662,17.352 v 0 c -3.159,-2.149 -6.472,-4.192 -9.863,-6.086 v 0 c 0.979,-9.216 4.99,-19.092 15.301,-25.102 v 0 c 22.527,-13.125 44.699,1.597 57.826,12.418 v 0 c 13.125,10.819 22.88,30.331 41.15,34.588 v 0 c 18.27,4.258 27.972,-7.257 30.101,-14.886 v 0 c 0.383,-1.375 0.923,-3.327 1.151,-4.731 v 0 c 3.209,0.241 6.118,0.902 9.349,0.985 v 0 c 0.118,1.577 0.134,3.346 0.019,5.329 v 0 c -1.064,18.447 -13.303,29.089 -31.041,31.395 v 0 c -1.615,0.21 -3.214,0.308 -4.789,0.309 v 0 c -15.72,0 -29.188,-9.775 -35.475,-15.74"
                   style="fill:url(#linearGradient1068);stroke:none"
                   id="path90" />
              </g>
            </g>
          </g>
        </g>
      </g>
    </g>
    <g
       id="g1064"
       transform="matrix(0.35277777,0,0,-0.35277777,168.43457,269.50803)">
      <g
         id="g1062"
         transform="matrix(2.6365288,0,0,2.6365288,-500.93496,-388.37165)">
        <g
           id="g1050">
          <g
             id="g1048">
            <g
               id="g1046">
              <g
                 id="g1044">
                <path
                   d="m 71.13,256.146 c -4.435,-3.547 -9.224,-8.868 -10.643,-17.737 v 0 c -1.419,-8.869 -0.408,-17.619 4.612,-26.873 v 0 c 2.128,-3.925 4.611,8.87 4.611,8.87 v 0 l 3.038,4.633 c 0,0 -5.454,10.975 1.53,21.086 v 0 c 5.062,7.328 11.219,10.465 21.506,10.465 v 0 c 13.23,0 22.751,-10.074 30.333,-20.044 v 0 c 16.839,-22.143 33.332,-37.66 52.874,-39.643 v 0 c 19.148,-1.942 30.848,7.893 35.992,22.792 v 0 c 4.622,13.389 -2.129,26.43 -2.129,26.43 v 0 l -9.401,-9.402 c 0,0 7.982,-14.366 -2.838,-24.654 v 0 c -7.462,-7.097 -20.93,-11.176 -37.071,-2.661 v 0 c -16.142,8.513 -21.108,16.496 -29.446,26.783 v 0 c -8.336,10.288 -13.835,20.133 -28.202,25.1 v 0 c -3.965,1.37 -8.351,2.107 -12.801,2.108 v 0 c -7.749,0 -15.693,-2.235 -21.965,-7.253"
                   style="fill:url(#linearGradient1070);stroke:none"
                   id="path1042" />
              </g>
            </g>
          </g>
        </g>
        <g
           id="g1060">
          <g
             id="g1058">
            <g
               id="g1056">
              <g
                 id="g1054">
                <path
                   d="m 144.387,249.85 c -6.918,-6.563 -21.109,-23.414 -28.735,-28.735 v 0 c -7.628,-5.322 -17.384,-10.821 -30.332,-7.096 v 0 c -10.647,3.063 -13.856,13.674 -14.662,17.352 v 0 c -3.159,-2.149 -6.472,-4.192 -9.863,-6.086 v 0 c 0.979,-9.216 4.99,-19.092 15.301,-25.102 v 0 c 22.527,-13.125 44.699,1.597 57.826,12.418 v 0 c 13.125,10.819 22.88,30.331 41.15,34.588 v 0 c 18.27,4.258 27.972,-7.257 30.101,-14.886 v 0 c 0.383,-1.375 0.923,-3.327 1.151,-4.731 v 0 c 3.209,0.241 6.118,0.902 9.349,0.985 v 0 c 0.118,1.577 0.134,3.346 0.019,5.329 v 0 c -1.064,18.447 -13.303,29.089 -31.041,31.395 v 0 c -1.615,0.21 -3.214,0.308 -4.789,0.309 v 0 c -15.72,0 -29.188,-9.775 -35.475,-15.74"
                   style="fill:url(#linearGradient1072);stroke:none"
                   id="path1052" />
              </g>
            </g>
          </g>
        </g>
      </g>
    </g>
    <g
       id="surface61"
       transform="matrix(0.12409246,0,0,0.13251365,139.53844,180.37303)">
      <path
         fill="#000000"
         fill-opacity="1"
         fill-rule="nonzero"
         stroke="#eeeeee"
         stroke-width="2"
         d="m 67.871094,164.3125 c 0,7.53516 -0.847656,13.62109 -2.542969,18.25391 -1.695313,4.63671 -4.105469,8.23437 -7.234375,10.79687 -3.125,2.5625 -6.875,4.27734 -11.246094,5.14453 -4.371094,0.86328 -9.234375,1.29688 -14.582031,1.29688 -7.238281,0 -12.777344,-1.12891 -16.617187,-3.39063 -3.84375,-2.26172 -5.765626,-4.97265 -5.765626,-8.14062 0,-2.63672 1.070313,-4.85938 3.21875,-6.66797 2.148438,-1.8086 5.03125,-2.71094 8.648438,-2.71094 2.714844,0 4.882812,0.73438 6.5,2.20313 1.621094,1.46875 2.960938,2.92187 4.015625,4.35156 1.203125,1.58203 2.222656,2.63672 3.050781,3.16406 0.828125,0.52734 1.582032,0.79297 2.261719,0.79297 1.429687,0 2.523437,-0.84766 3.277344,-2.54297 0.753906,-1.69531 1.128906,-4.99219 1.128906,-9.89062 V 84.050781 L 67.871094,76.929688 V 164.3125 M 104.73828,79.414062 v 59.800778 c 0,1.66016 0.32031,3.22266 0.96094,4.69141 0.64062,1.46875 1.52734,2.73437 2.65625,3.78906 1.13281,1.05469 2.44922,1.90235 3.95703,2.54297 1.50781,0.64063 3.12891,0.96094 4.86328,0.96094 1.95703,0 4.1836,-1.09766 6.89453,-2.9961 4.29297,-3.00781 6.89453,-5.07421 6.89453,-7.51953 0,-0.58593 0,-61.269528 0,-61.269528 h 25.77344 V 164.3125 h -25.77344 v -7.91406 c -3.39062,2.86328 -7.00781,5.16015 -10.85156,6.89453 -3.84375,1.73437 -7.57422,2.60156 -11.1914,2.60156 -4.21875,0 -8.14063,-0.69922 -11.757818,-2.09375 -3.617187,-1.39453 -6.78125,-3.29687 -9.492187,-5.70703 -2.714844,-2.41016 -4.84375,-5.23828 -6.390625,-8.48047 -1.542969,-3.23828 -2.316406,-6.70703 -2.316406,-10.39844 V 79.414062 H 104.73828 M 192.88281,164.3125 H 167.22266 V 45.277344 L 192.88281,38.15625 V 164.3125 M 203.60156,84.050781 229.375,76.929688 V 164.3125 H 203.60156 V 84.050781 m 79.625,36.398439 c -2.48828,1.05859 -4.99609,2.28125 -7.51953,3.67578 -2.52344,1.39453 -4.82422,2.92188 -6.89453,4.57812 -2.07422,1.65625 -3.75,3.42969 -5.03125,5.3125 -1.28125,1.88282 -1.92188,3.84375 -1.92188,5.87891 0,1.58203 0.20704,3.10938 0.6211,4.57813 0.41406,1.46875 1,2.73046 1.7539,3.78515 0.75391,1.05469 1.58204,1.90235 2.48829,2.54297 0.90234,0.64063 1.88281,0.96094 2.9375,0.96094 2.10937,0 4.23828,-0.64063 6.38671,-1.92188 2.14844,-1.28125 4.53907,-2.89843 7.17969,-4.85937 v -24.53125 m 25.88281,43.86328 h -25.88281 v -6.78516 c -1.43359,1.20703 -2.82812,2.32032 -4.18359,3.33594 -1.35547,1.01563 -2.88281,1.90234 -4.57813,2.65625 -1.69531,0.75391 -3.59765,1.33594 -5.71093,1.75391 -2.10938,0.41406 -4.59766,0.62109 -7.45704,0.62109 -3.92187,0 -7.44531,-0.56641 -10.57031,-1.69531 -3.1289,-1.13281 -5.78515,-2.67578 -7.96875,-4.63672 -2.1875,-1.95703 -3.86328,-4.27734 -5.03125,-6.95313 -1.16797,-2.67187 -1.7539,-5.59375 -1.7539,-8.75781 0,-3.24219 0.62109,-6.17969 1.86718,-8.82031 1.24219,-2.63672 2.9375,-5.00781 5.08594,-7.12109 2.14844,-2.10938 4.65234,-3.99219 7.51563,-5.65235 2.86328,-1.65625 5.9375,-3.18359 9.21484,-4.57812 3.27734,-1.39453 6.6875,-2.67188 10.23047,-3.83985 3.53906,-1.16796 7.04687,-2.28125 10.51172,-3.33593 l 2.82812,-0.67969 v -8.36328 c 0,-5.425784 -1.03906,-9.269534 -3.10937,-11.531252 -2.07422,-2.261719 -4.84375,-3.390626 -8.3086,-3.390626 -4.07031,0 -6.89843,0.980469 -8.48047,2.9375 -1.58203,1.960938 -2.375,4.332032 -2.375,7.121094 0,1.582032 -0.16796,3.128906 -0.50781,4.636724 -0.33594,1.50781 -0.92187,2.82421 -1.75,3.95703 -0.82812,1.1289 -2.01562,2.03515 -3.5625,2.71093 -1.54297,0.67969 -3.48437,1.01954 -5.82031,1.01954 -3.61719,0 -6.55469,-1.03907 -8.81641,-3.10938 -2.26172,-2.07422 -3.39062,-4.69141 -3.39062,-7.859375 0,-2.9375 0.99609,-5.667969 2.99219,-8.191406 2,-2.527344 4.6914,-4.695313 8.08593,-6.5 3.39063,-1.8125 7.3086,-3.242188 11.75391,-4.296875 4.44531,-1.054688 9.15625,-1.582032 14.12891,-1.582032 6.10546,0 11.36328,0.546876 15.77343,1.636719 4.40625,1.09375 8.04297,2.65625 10.90625,4.691407 2.86328,2.035156 4.97266,4.484374 6.32813,7.347656 1.35937,2.863281 2.03515,6.070312 2.03515,9.609376 v 63.64453"
         id="path2" />
      <path
         fill="#cb3c33"
         fill-opacity="1"
         fill-rule="nonzero"
         stroke="#eeeeee"
         stroke-width="2"
         d="m 235.27344,55.089844 c 0,9.667968 -7.83594,17.5 -17.5,17.5 -9.66797,0 -17.5,-7.832032 -17.5,-17.5 0,-9.664063 7.83203,-17.5 17.5,-17.5 9.66406,0 17.5,7.835937 17.5,17.5"
         id="path4" />
      <path
         fill="#4063d8"
         fill-opacity="1"
         fill-rule="nonzero"
         stroke="#eeeeee"
         stroke-width="2"
         d="m 72.953125,55.089844 c 0,9.667968 -7.835937,17.5 -17.5,17.5 -9.664063,0 -17.5,-7.832032 -17.5,-17.5 0,-9.664063 7.835937,-17.5 17.5,-17.5 9.664063,0 17.5,7.835937 17.5,17.5"
         id="path6" />
      <path
         fill="#9558b2"
         fill-opacity="1"
         fill-rule="nonzero"
         stroke="#eeeeee"
         stroke-width="2"
         d="m 277.32031,55.089844 c 0,9.667968 -7.83594,17.5 -17.5,17.5 -9.66406,0 -17.5,-7.832032 -17.5,-17.5 0,-9.664063 7.83594,-17.5 17.5,-17.5 9.66406,0 17.5,7.835937 17.5,17.5"
         id="path8" />
      <path
         fill="#389826"
         fill-opacity="1"
         fill-rule="nonzero"
         stroke="#eeeeee"
         stroke-width="2"
         d="m 256.30078,18.671875 c 0,9.664063 -7.83594,17.5 -17.5,17.5 -9.66797,0 -17.5,-7.835937 -17.5,-17.5 0,-9.664063 7.83203,-17.5 17.5,-17.5 9.66406,0 17.5,7.835937 17.5,17.5"
         id="path10" />
    </g>
  </g>
</svg>
