<?xml version="1.0" encoding="utf-8"?>
<svg xmlns="http://www.w3.org/2000/svg" xmlns:xlink="http://www.w3.org/1999/xlink" width="528" height="336" viewBox="0 0 2112 1344">
<defs>
  <clipPath id="clip990">
    <rect x="0" y="0" width="2112" height="1344"/>
  </clipPath>
</defs>
<path clip-path="url(#clip990)" d="M0 1344 L2112 1344 L2112 0 L0 0  Z" fill="#ffffff" fill-rule="evenodd" fill-opacity="1"/>
<defs>
  <clipPath id="clip991">
    <rect x="422" y="0" width="1479" height="1344"/>
  </clipPath>
</defs>
<path clip-path="url(#clip990)" d="M153.394 1234.58 L2064.76 1234.58 L2064.76 47.2441 L153.394 47.2441  Z" fill="#ffffff" fill-rule="evenodd" fill-opacity="1"/>
<defs>
  <clipPath id="clip992">
    <rect x="153" y="47" width="1912" height="1188"/>
  </clipPath>
</defs>
<polyline clip-path="url(#clip992)" style="stroke:#000000; stroke-linecap:round; stroke-linejoin:round; stroke-width:2; stroke-opacity:0.1; fill:none" points="207.489,1234.58 207.489,47.2441 "/>
<polyline clip-path="url(#clip992)" style="stroke:#000000; stroke-linecap:round; stroke-linejoin:round; stroke-width:2; stroke-opacity:0.1; fill:none" points="608.194,1234.58 608.194,47.2441 "/>
<polyline clip-path="url(#clip992)" style="stroke:#000000; stroke-linecap:round; stroke-linejoin:round; stroke-width:2; stroke-opacity:0.1; fill:none" points="1008.9,1234.58 1008.9,47.2441 "/>
<polyline clip-path="url(#clip992)" style="stroke:#000000; stroke-linecap:round; stroke-linejoin:round; stroke-width:2; stroke-opacity:0.1; fill:none" points="1409.6,1234.58 1409.6,47.2441 "/>
<polyline clip-path="url(#clip992)" style="stroke:#000000; stroke-linecap:round; stroke-linejoin:round; stroke-width:2; stroke-opacity:0.1; fill:none" points="1810.31,1234.58 1810.31,47.2441 "/>
<polyline clip-path="url(#clip992)" style="stroke:#000000; stroke-linecap:round; stroke-linejoin:round; stroke-width:2; stroke-opacity:0.1; fill:none" points="153.394,1200.97 2064.76,1200.97 "/>
<polyline clip-path="url(#clip992)" style="stroke:#000000; stroke-linecap:round; stroke-linejoin:round; stroke-width:2; stroke-opacity:0.1; fill:none" points="153.394,976.95 2064.76,976.95 "/>
<polyline clip-path="url(#clip992)" style="stroke:#000000; stroke-linecap:round; stroke-linejoin:round; stroke-width:2; stroke-opacity:0.1; fill:none" points="153.394,752.924 2064.76,752.924 "/>
<polyline clip-path="url(#clip992)" style="stroke:#000000; stroke-linecap:round; stroke-linejoin:round; stroke-width:2; stroke-opacity:0.1; fill:none" points="153.394,528.899 2064.76,528.899 "/>
<polyline clip-path="url(#clip992)" style="stroke:#000000; stroke-linecap:round; stroke-linejoin:round; stroke-width:2; stroke-opacity:0.1; fill:none" points="153.394,304.873 2064.76,304.873 "/>
<polyline clip-path="url(#clip992)" style="stroke:#000000; stroke-linecap:round; stroke-linejoin:round; stroke-width:2; stroke-opacity:0.1; fill:none" points="153.394,80.8479 2064.76,80.8479 "/>
<polyline clip-path="url(#clip990)" style="stroke:#000000; stroke-linecap:round; stroke-linejoin:round; stroke-width:4; stroke-opacity:1; fill:none" points="153.394,1234.58 2064.76,1234.58 "/>
<polyline clip-path="url(#clip990)" style="stroke:#000000; stroke-linecap:round; stroke-linejoin:round; stroke-width:4; stroke-opacity:1; fill:none" points="207.489,1234.58 207.489,1215.68 "/>
<polyline clip-path="url(#clip990)" style="stroke:#000000; stroke-linecap:round; stroke-linejoin:round; stroke-width:4; stroke-opacity:1; fill:none" points="608.194,1234.58 608.194,1215.68 "/>
<polyline clip-path="url(#clip990)" style="stroke:#000000; stroke-linecap:round; stroke-linejoin:round; stroke-width:4; stroke-opacity:1; fill:none" points="1008.9,1234.58 1008.9,1215.68 "/>
<polyline clip-path="url(#clip990)" style="stroke:#000000; stroke-linecap:round; stroke-linejoin:round; stroke-width:4; stroke-opacity:1; fill:none" points="1409.6,1234.58 1409.6,1215.68 "/>
<polyline clip-path="url(#clip990)" style="stroke:#000000; stroke-linecap:round; stroke-linejoin:round; stroke-width:4; stroke-opacity:1; fill:none" points="1810.31,1234.58 1810.31,1215.68 "/>
<path clip-path="url(#clip990)" d="M207.489 1263.19 Q203.878 1263.19 202.05 1266.76 Q200.244 1270.3 200.244 1277.43 Q200.244 1284.54 202.05 1288.1 Q203.878 1291.64 207.489 1291.64 Q211.124 1291.64 212.929 1288.1 Q214.758 1284.54 214.758 1277.43 Q214.758 1270.3 212.929 1266.76 Q211.124 1263.19 207.489 1263.19 M207.489 1259.49 Q213.299 1259.49 216.355 1264.1 Q219.434 1268.68 219.434 1277.43 Q219.434 1286.16 216.355 1290.76 Q213.299 1295.35 207.489 1295.35 Q201.679 1295.35 198.6 1290.76 Q195.545 1286.16 195.545 1277.43 Q195.545 1268.68 198.6 1264.1 Q201.679 1259.49 207.489 1259.49 Z" fill="#000000" fill-rule="nonzero" fill-opacity="1" /><path clip-path="url(#clip990)" d="M602.847 1290.74 L619.166 1290.74 L619.166 1294.67 L597.222 1294.67 L597.222 1290.74 Q599.884 1287.99 604.467 1283.36 Q609.074 1278.7 610.254 1277.36 Q612.5 1274.84 613.379 1273.1 Q614.282 1271.34 614.282 1269.65 Q614.282 1266.9 612.338 1265.16 Q610.416 1263.42 607.314 1263.42 Q605.115 1263.42 602.662 1264.19 Q600.231 1264.95 597.453 1266.5 L597.453 1261.78 Q600.277 1260.65 602.731 1260.07 Q605.185 1259.49 607.222 1259.49 Q612.592 1259.49 615.787 1262.17 Q618.981 1264.86 618.981 1269.35 Q618.981 1271.48 618.171 1273.4 Q617.384 1275.3 615.277 1277.89 Q614.699 1278.56 611.597 1281.78 Q608.495 1284.98 602.847 1290.74 Z" fill="#000000" fill-rule="nonzero" fill-opacity="1" /><path clip-path="url(#clip990)" d="M1011.91 1264.19 L1000.1 1282.64 L1011.91 1282.64 L1011.91 1264.19 M1010.68 1260.11 L1016.56 1260.11 L1016.56 1282.64 L1021.49 1282.64 L1021.49 1286.53 L1016.56 1286.53 L1016.56 1294.67 L1011.91 1294.67 L1011.91 1286.53 L996.306 1286.53 L996.306 1282.01 L1010.68 1260.11 Z" fill="#000000" fill-rule="nonzero" fill-opacity="1" /><path clip-path="url(#clip990)" d="M1410.01 1275.53 Q1406.86 1275.53 1405.01 1277.68 Q1403.18 1279.84 1403.18 1283.59 Q1403.18 1287.31 1405.01 1289.49 Q1406.86 1291.64 1410.01 1291.64 Q1413.16 1291.64 1414.99 1289.49 Q1416.84 1287.31 1416.84 1283.59 Q1416.84 1279.84 1414.99 1277.68 Q1413.16 1275.53 1410.01 1275.53 M1419.29 1260.88 L1419.29 1265.14 Q1417.53 1264.3 1415.73 1263.86 Q1413.94 1263.42 1412.18 1263.42 Q1407.56 1263.42 1405.1 1266.55 Q1402.67 1269.67 1402.32 1275.99 Q1403.69 1273.98 1405.75 1272.92 Q1407.81 1271.83 1410.29 1271.83 Q1415.49 1271.83 1418.5 1275 Q1421.54 1278.15 1421.54 1283.59 Q1421.54 1288.91 1418.39 1292.13 Q1415.24 1295.35 1410.01 1295.35 Q1404.01 1295.35 1400.84 1290.76 Q1397.67 1286.16 1397.67 1277.43 Q1397.67 1269.24 1401.56 1264.37 Q1405.45 1259.49 1412 1259.49 Q1413.76 1259.49 1415.54 1259.84 Q1417.35 1260.18 1419.29 1260.88 Z" fill="#000000" fill-rule="nonzero" fill-opacity="1" /><path clip-path="url(#clip990)" d="M1810.31 1278.26 Q1806.98 1278.26 1805.05 1280.05 Q1803.16 1281.83 1803.16 1284.95 Q1803.16 1288.08 1805.05 1289.86 Q1806.98 1291.64 1810.31 1291.64 Q1813.64 1291.64 1815.56 1289.86 Q1817.48 1288.05 1817.48 1284.95 Q1817.48 1281.83 1815.56 1280.05 Q1813.66 1278.26 1810.31 1278.26 M1805.63 1276.27 Q1802.62 1275.53 1800.93 1273.47 Q1799.27 1271.41 1799.27 1268.45 Q1799.27 1264.3 1802.21 1261.9 Q1805.17 1259.49 1810.31 1259.49 Q1815.47 1259.49 1818.41 1261.9 Q1821.35 1264.3 1821.35 1268.45 Q1821.35 1271.41 1819.66 1273.47 Q1817.99 1275.53 1815.01 1276.27 Q1818.39 1277.06 1820.26 1279.35 Q1822.16 1281.64 1822.16 1284.95 Q1822.16 1289.98 1819.08 1292.66 Q1816.03 1295.35 1810.31 1295.35 Q1804.59 1295.35 1801.51 1292.66 Q1798.46 1289.98 1798.46 1284.95 Q1798.46 1281.64 1800.35 1279.35 Q1802.25 1277.06 1805.63 1276.27 M1803.92 1268.89 Q1803.92 1271.57 1805.59 1273.08 Q1807.28 1274.58 1810.31 1274.58 Q1813.32 1274.58 1815.01 1273.08 Q1816.72 1271.57 1816.72 1268.89 Q1816.72 1266.2 1815.01 1264.7 Q1813.32 1263.19 1810.31 1263.19 Q1807.28 1263.19 1805.59 1264.7 Q1803.92 1266.2 1803.92 1268.89 Z" fill="#000000" fill-rule="nonzero" fill-opacity="1" /><polyline clip-path="url(#clip990)" style="stroke:#000000; stroke-linecap:round; stroke-linejoin:round; stroke-width:4; stroke-opacity:1; fill:none" points="153.394,1234.58 153.394,47.2441 "/>
<polyline clip-path="url(#clip990)" style="stroke:#000000; stroke-linecap:round; stroke-linejoin:round; stroke-width:4; stroke-opacity:1; fill:none" points="153.394,1200.97 172.292,1200.97 "/>
<polyline clip-path="url(#clip990)" style="stroke:#000000; stroke-linecap:round; stroke-linejoin:round; stroke-width:4; stroke-opacity:1; fill:none" points="153.394,976.95 172.292,976.95 "/>
<polyline clip-path="url(#clip990)" style="stroke:#000000; stroke-linecap:round; stroke-linejoin:round; stroke-width:4; stroke-opacity:1; fill:none" points="153.394,752.924 172.292,752.924 "/>
<polyline clip-path="url(#clip990)" style="stroke:#000000; stroke-linecap:round; stroke-linejoin:round; stroke-width:4; stroke-opacity:1; fill:none" points="153.394,528.899 172.292,528.899 "/>
<polyline clip-path="url(#clip990)" style="stroke:#000000; stroke-linecap:round; stroke-linejoin:round; stroke-width:4; stroke-opacity:1; fill:none" points="153.394,304.873 172.292,304.873 "/>
<polyline clip-path="url(#clip990)" style="stroke:#000000; stroke-linecap:round; stroke-linejoin:round; stroke-width:4; stroke-opacity:1; fill:none" points="153.394,80.8479 172.292,80.8479 "/>
<path clip-path="url(#clip990)" d="M65.5339 1186.77 Q61.9228 1186.77 60.0941 1190.34 Q58.2886 1193.88 58.2886 1201.01 Q58.2886 1208.12 60.0941 1211.68 Q61.9228 1215.22 65.5339 1215.22 Q69.1681 1215.22 70.9737 1211.68 Q72.8024 1208.12 72.8024 1201.01 Q72.8024 1193.88 70.9737 1190.34 Q69.1681 1186.77 65.5339 1186.77 M65.5339 1183.07 Q71.3441 1183.07 74.3996 1187.68 Q77.4783 1192.26 77.4783 1201.01 Q77.4783 1209.74 74.3996 1214.34 Q71.3441 1218.93 65.5339 1218.93 Q59.7238 1218.93 56.6451 1214.34 Q53.5895 1209.74 53.5895 1201.01 Q53.5895 1192.26 56.6451 1187.68 Q59.7238 1183.07 65.5339 1183.07 Z" fill="#000000" fill-rule="nonzero" fill-opacity="1" /><path clip-path="url(#clip990)" d="M85.6958 1212.38 L90.5801 1212.38 L90.5801 1218.25 L85.6958 1218.25 L85.6958 1212.38 Z" fill="#000000" fill-rule="nonzero" fill-opacity="1" /><path clip-path="url(#clip990)" d="M100.811 1183.69 L119.168 1183.69 L119.168 1187.63 L105.094 1187.63 L105.094 1196.1 Q106.112 1195.76 107.131 1195.59 Q108.149 1195.41 109.168 1195.41 Q114.955 1195.41 118.335 1198.58 Q121.714 1201.75 121.714 1207.17 Q121.714 1212.75 118.242 1215.85 Q114.77 1218.93 108.45 1218.93 Q106.274 1218.93 104.006 1218.56 Q101.761 1218.19 99.3532 1217.44 L99.3532 1212.75 Q101.436 1213.88 103.659 1214.44 Q105.881 1214.99 108.358 1214.99 Q112.362 1214.99 114.7 1212.88 Q117.038 1210.78 117.038 1207.17 Q117.038 1203.56 114.7 1201.45 Q112.362 1199.34 108.358 1199.34 Q106.483 1199.34 104.608 1199.76 Q102.756 1200.18 100.811 1201.06 L100.811 1183.69 Z" fill="#000000" fill-rule="nonzero" fill-opacity="1" /><path clip-path="url(#clip990)" d="M64.3765 962.748 Q60.7654 962.748 58.9367 966.313 Q57.1312 969.855 57.1312 976.984 Q57.1312 984.091 58.9367 987.656 Q60.7654 991.197 64.3765 991.197 Q68.0107 991.197 69.8163 987.656 Q71.645 984.091 71.645 976.984 Q71.645 969.855 69.8163 966.313 Q68.0107 962.748 64.3765 962.748 M64.3765 959.045 Q70.1867 959.045 73.2422 963.651 Q76.3209 968.234 76.3209 976.984 Q76.3209 985.711 73.2422 990.318 Q70.1867 994.901 64.3765 994.901 Q58.5664 994.901 55.4877 990.318 Q52.4321 985.711 52.4321 976.984 Q52.4321 968.234 55.4877 963.651 Q58.5664 959.045 64.3765 959.045 Z" fill="#000000" fill-rule="nonzero" fill-opacity="1" /><path clip-path="url(#clip990)" d="M84.5384 988.35 L89.4227 988.35 L89.4227 994.23 L84.5384 994.23 L84.5384 988.35 Z" fill="#000000" fill-rule="nonzero" fill-opacity="1" /><path clip-path="url(#clip990)" d="M110.186 975.086 Q107.038 975.086 105.186 977.239 Q103.358 979.392 103.358 983.142 Q103.358 986.868 105.186 989.044 Q107.038 991.197 110.186 991.197 Q113.335 991.197 115.163 989.044 Q117.015 986.868 117.015 983.142 Q117.015 979.392 115.163 977.239 Q113.335 975.086 110.186 975.086 M119.469 960.433 L119.469 964.693 Q117.71 963.859 115.904 963.42 Q114.122 962.98 112.362 962.98 Q107.733 962.98 105.279 966.105 Q102.849 969.23 102.501 975.549 Q103.867 973.535 105.927 972.47 Q107.987 971.382 110.464 971.382 Q115.673 971.382 118.682 974.554 Q121.714 977.702 121.714 983.142 Q121.714 988.466 118.566 991.683 Q115.418 994.901 110.186 994.901 Q104.191 994.901 101.02 990.318 Q97.8485 985.711 97.8485 976.984 Q97.8485 968.79 101.737 963.929 Q105.626 959.045 112.177 959.045 Q113.936 959.045 115.719 959.392 Q117.524 959.739 119.469 960.433 Z" fill="#000000" fill-rule="nonzero" fill-opacity="1" /><path clip-path="url(#clip990)" d="M65.4413 738.723 Q61.8302 738.723 60.0015 742.288 Q58.196 745.829 58.196 752.959 Q58.196 760.065 60.0015 763.63 Q61.8302 767.172 65.4413 767.172 Q69.0756 767.172 70.8811 763.63 Q72.7098 760.065 72.7098 752.959 Q72.7098 745.829 70.8811 742.288 Q69.0756 738.723 65.4413 738.723 M65.4413 735.019 Q71.2515 735.019 74.307 739.626 Q77.3857 744.209 77.3857 752.959 Q77.3857 761.686 74.307 766.292 Q71.2515 770.875 65.4413 770.875 Q59.6312 770.875 56.5525 766.292 Q53.4969 761.686 53.4969 752.959 Q53.4969 744.209 56.5525 739.626 Q59.6312 735.019 65.4413 735.019 Z" fill="#000000" fill-rule="nonzero" fill-opacity="1" /><path clip-path="url(#clip990)" d="M85.6032 764.325 L90.4875 764.325 L90.4875 770.204 L85.6032 770.204 L85.6032 764.325 Z" fill="#000000" fill-rule="nonzero" fill-opacity="1" /><path clip-path="url(#clip990)" d="M99.4921 735.644 L121.714 735.644 L121.714 737.635 L109.168 770.204 L104.284 770.204 L116.089 739.579 L99.4921 739.579 L99.4921 735.644 Z" fill="#000000" fill-rule="nonzero" fill-opacity="1" /><path clip-path="url(#clip990)" d="M64.6311 514.697 Q61.02 514.697 59.1913 518.262 Q57.3858 521.804 57.3858 528.933 Q57.3858 536.04 59.1913 539.605 Q61.02 543.146 64.6311 543.146 Q68.2654 543.146 70.0709 539.605 Q71.8996 536.04 71.8996 528.933 Q71.8996 521.804 70.0709 518.262 Q68.2654 514.697 64.6311 514.697 M64.6311 510.994 Q70.4413 510.994 73.4968 515.6 Q76.5755 520.184 76.5755 528.933 Q76.5755 537.66 73.4968 542.267 Q70.4413 546.85 64.6311 546.85 Q58.821 546.85 55.7423 542.267 Q52.6868 537.66 52.6868 528.933 Q52.6868 520.184 55.7423 515.6 Q58.821 510.994 64.6311 510.994 Z" fill="#000000" fill-rule="nonzero" fill-opacity="1" /><path clip-path="url(#clip990)" d="M84.7931 540.299 L89.6773 540.299 L89.6773 546.179 L84.7931 546.179 L84.7931 540.299 Z" fill="#000000" fill-rule="nonzero" fill-opacity="1" /><path clip-path="url(#clip990)" d="M109.862 529.767 Q106.529 529.767 104.608 531.549 Q102.71 533.332 102.71 536.457 Q102.71 539.582 104.608 541.364 Q106.529 543.146 109.862 543.146 Q113.196 543.146 115.117 541.364 Q117.038 539.558 117.038 536.457 Q117.038 533.332 115.117 531.549 Q113.219 529.767 109.862 529.767 M105.186 527.776 Q102.177 527.035 100.487 524.975 Q98.8208 522.915 98.8208 519.952 Q98.8208 515.809 101.761 513.401 Q104.724 510.994 109.862 510.994 Q115.024 510.994 117.964 513.401 Q120.904 515.809 120.904 519.952 Q120.904 522.915 119.214 524.975 Q117.548 527.035 114.561 527.776 Q117.941 528.563 119.816 530.855 Q121.714 533.146 121.714 536.457 Q121.714 541.48 118.635 544.165 Q115.58 546.85 109.862 546.85 Q104.145 546.85 101.066 544.165 Q98.0106 541.48 98.0106 536.457 Q98.0106 533.146 99.9087 530.855 Q101.807 528.563 105.186 527.776 M103.474 520.392 Q103.474 523.077 105.14 524.582 Q106.83 526.086 109.862 526.086 Q112.872 526.086 114.561 524.582 Q116.274 523.077 116.274 520.392 Q116.274 517.707 114.561 516.202 Q112.872 514.697 109.862 514.697 Q106.83 514.697 105.14 516.202 Q103.474 517.707 103.474 520.392 Z" fill="#000000" fill-rule="nonzero" fill-opacity="1" /><path clip-path="url(#clip990)" d="M64.7237 290.672 Q61.1126 290.672 59.2839 294.237 Q57.4784 297.778 57.4784 304.908 Q57.4784 312.014 59.2839 315.579 Q61.1126 319.121 64.7237 319.121 Q68.358 319.121 70.1635 315.579 Q71.9922 312.014 71.9922 304.908 Q71.9922 297.778 70.1635 294.237 Q68.358 290.672 64.7237 290.672 M64.7237 286.968 Q70.5339 286.968 73.5894 291.575 Q76.6681 296.158 76.6681 304.908 Q76.6681 313.635 73.5894 318.241 Q70.5339 322.825 64.7237 322.825 Q58.9136 322.825 55.8349 318.241 Q52.7793 313.635 52.7793 304.908 Q52.7793 296.158 55.8349 291.575 Q58.9136 286.968 64.7237 286.968 Z" fill="#000000" fill-rule="nonzero" fill-opacity="1" /><path clip-path="url(#clip990)" d="M84.8857 316.274 L89.7699 316.274 L89.7699 322.153 L84.8857 322.153 L84.8857 316.274 Z" fill="#000000" fill-rule="nonzero" fill-opacity="1" /><path clip-path="url(#clip990)" d="M100.094 321.436 L100.094 317.176 Q101.853 318.01 103.659 318.45 Q105.464 318.889 107.2 318.889 Q111.83 318.889 114.26 315.788 Q116.714 312.663 117.061 306.32 Q115.719 308.311 113.659 309.376 Q111.598 310.44 109.098 310.44 Q103.913 310.44 100.881 307.315 Q97.8717 304.167 97.8717 298.728 Q97.8717 293.403 101.02 290.186 Q104.168 286.968 109.399 286.968 Q115.395 286.968 118.543 291.575 Q121.714 296.158 121.714 304.908 Q121.714 313.079 117.825 317.964 Q113.96 322.825 107.409 322.825 Q105.649 322.825 103.844 322.477 Q102.038 322.13 100.094 321.436 M109.399 306.783 Q112.548 306.783 114.376 304.63 Q116.228 302.477 116.228 298.728 Q116.228 295.001 114.376 292.848 Q112.548 290.672 109.399 290.672 Q106.251 290.672 104.399 292.848 Q102.571 295.001 102.571 298.728 Q102.571 302.477 104.399 304.63 Q106.251 306.783 109.399 306.783 Z" fill="#000000" fill-rule="nonzero" fill-opacity="1" /><path clip-path="url(#clip990)" d="M55.3488 94.1927 L62.9876 94.1927 L62.9876 67.8271 L54.6775 69.4938 L54.6775 65.2346 L62.9413 63.5679 L67.6172 63.5679 L67.6172 94.1927 L75.2561 94.1927 L75.2561 98.1279 L55.3488 98.1279 L55.3488 94.1927 Z" fill="#000000" fill-rule="nonzero" fill-opacity="1" /><path clip-path="url(#clip990)" d="M84.7005 92.2483 L89.5847 92.2483 L89.5847 98.1279 L84.7005 98.1279 L84.7005 92.2483 Z" fill="#000000" fill-rule="nonzero" fill-opacity="1" /><path clip-path="url(#clip990)" d="M109.77 66.6466 Q106.159 66.6466 104.33 70.2114 Q102.524 73.753 102.524 80.8826 Q102.524 87.9891 104.33 91.5539 Q106.159 95.0955 109.77 95.0955 Q113.404 95.0955 115.21 91.5539 Q117.038 87.9891 117.038 80.8826 Q117.038 73.753 115.21 70.2114 Q113.404 66.6466 109.77 66.6466 M109.77 62.9429 Q115.58 62.9429 118.635 67.5494 Q121.714 72.1327 121.714 80.8826 Q121.714 89.6094 118.635 94.2159 Q115.58 98.7992 109.77 98.7992 Q103.96 98.7992 100.881 94.2159 Q97.8254 89.6094 97.8254 80.8826 Q97.8254 72.1327 100.881 67.5494 Q103.96 62.9429 109.77 62.9429 Z" fill="#000000" fill-rule="nonzero" fill-opacity="1" /><circle clip-path="url(#clip992)" cx="207.489" cy="80.8479" r="14.4" fill="#009af9" fill-rule="evenodd" fill-opacity="1" stroke="#000000" stroke-opacity="1" stroke-width="2.688"/>
<circle clip-path="url(#clip992)" cx="407.842" cy="1200.97" r="14.4" fill="#009af9" fill-rule="evenodd" fill-opacity="1" stroke="#000000" stroke-opacity="1" stroke-width="2.688"/>
<circle clip-path="url(#clip992)" cx="608.194" cy="640.911" r="14.4" fill="#009af9" fill-rule="evenodd" fill-opacity="1" stroke="#000000" stroke-opacity="1" stroke-width="2.688"/>
<circle clip-path="url(#clip992)" cx="808.546" cy="920.943" r="14.4" fill="#009af9" fill-rule="evenodd" fill-opacity="1" stroke="#000000" stroke-opacity="1" stroke-width="2.688"/>
<circle clip-path="url(#clip992)" cx="1008.9" cy="780.927" r="14.4" fill="#009af9" fill-rule="evenodd" fill-opacity="1" stroke="#000000" stroke-opacity="1" stroke-width="2.688"/>
<circle clip-path="url(#clip992)" cx="1209.25" cy="850.935" r="14.4" fill="#009af9" fill-rule="evenodd" fill-opacity="1" stroke="#000000" stroke-opacity="1" stroke-width="2.688"/>
<circle clip-path="url(#clip992)" cx="1409.6" cy="815.931" r="14.4" fill="#009af9" fill-rule="evenodd" fill-opacity="1" stroke="#000000" stroke-opacity="1" stroke-width="2.688"/>
<circle clip-path="url(#clip992)" cx="1609.96" cy="833.433" r="14.4" fill="#009af9" fill-rule="evenodd" fill-opacity="1" stroke="#000000" stroke-opacity="1" stroke-width="2.688"/>
<circle clip-path="url(#clip992)" cx="1810.31" cy="824.682" r="14.4" fill="#009af9" fill-rule="evenodd" fill-opacity="1" stroke="#000000" stroke-opacity="1" stroke-width="2.688"/>
<circle clip-path="url(#clip992)" cx="2010.66" cy="829.058" r="14.4" fill="#009af9" fill-rule="evenodd" fill-opacity="1" stroke="#000000" stroke-opacity="1" stroke-width="2.688"/>
<path clip-path="url(#clip990)" d="M1565.82 203.161 L2001.04 203.161 L2001.04 86.8219 L1565.82 86.8219  Z" fill="#ffffff" fill-rule="evenodd" fill-opacity="1"/>
<polyline clip-path="url(#clip990)" style="stroke:#000000; stroke-linecap:round; stroke-linejoin:round; stroke-width:4; stroke-opacity:1; fill:none" points="1565.82,203.161 2001.04,203.161 2001.04,86.8219 1565.82,86.8219 1565.82,203.161 "/>
<circle clip-path="url(#clip990)" cx="1650.77" cy="144.992" r="20.48" fill="#009af9" fill-rule="evenodd" fill-opacity="1" stroke="#000000" stroke-opacity="1" stroke-width="3.82293"/>
<path clip-path="url(#clip990)" d="M1780.95 162.243 L1776.83 174.189 L1737.06 174.189 Q1736.52 174.189 1736.31 174.165 Q1736.1 174.142 1735.93 174.025 Q1735.77 173.908 1735.77 173.65 Q1735.77 173.439 1736.19 172.901 L1753.22 151.844 L1735.72 127.766 Q1735.72 126.665 1735.91 126.454 Q1736.1 126.22 1737.06 126.22 L1776.83 126.22 L1780.95 137.439 L1779.76 137.439 Q1779.22 135.987 1778.35 134.769 Q1777.51 133.528 1776.52 132.637 Q1775.56 131.747 1774.3 131.045 Q1773.06 130.319 1771.89 129.874 Q1770.74 129.405 1769.31 129.077 Q1767.88 128.726 1766.73 128.562 Q1765.61 128.375 1764.2 128.281 Q1762.8 128.187 1761.91 128.164 Q1761.02 128.14 1759.89 128.14 L1740.9 128.14 L1756.48 149.525 Q1756.83 150.064 1756.83 150.204 Q1756.83 150.415 1756.38 150.977 L1739.75 171.542 L1760.13 171.542 Q1766.69 171.542 1771.25 170.16 Q1774.35 169.106 1776.6 167.022 Q1778.87 164.937 1779.76 162.243 L1780.95 162.243 Z" fill="#000000" fill-rule="nonzero" fill-opacity="1" /><path clip-path="url(#clip990)" d="M1813.91 150.204 Q1813.91 142.1 1816.93 135.565 Q1818.22 132.825 1820.02 130.529 Q1821.82 128.234 1823.02 127.227 Q1824.21 126.22 1824.54 126.22 Q1825.01 126.22 1825.03 126.688 Q1825.03 126.922 1824.4 127.508 Q1816.67 135.378 1816.69 150.204 Q1816.69 165.078 1824.21 172.643 Q1825.03 173.463 1825.03 173.72 Q1825.03 174.189 1824.54 174.189 Q1824.21 174.189 1823.06 173.229 Q1821.92 172.268 1820.14 170.067 Q1818.36 167.865 1817.07 165.171 Q1813.91 158.636 1813.91 150.204 Z" fill="#000000" fill-rule="nonzero" fill-opacity="1" /><path clip-path="url(#clip990)" d="M1863.99 149.525 Q1864.27 149.806 1864.27 150.204 Q1864.27 150.602 1863.99 150.884 Q1863.71 151.165 1863.31 151.165 L1833.28 151.165 Q1832.89 151.165 1832.6 150.884 Q1832.32 150.602 1832.32 150.204 Q1832.32 149.806 1832.6 149.525 Q1832.89 149.244 1833.28 149.244 L1863.31 149.244 Q1863.71 149.244 1863.99 149.525 Z" fill="#000000" fill-rule="nonzero" fill-opacity="1" /><path clip-path="url(#clip990)" d="M1869.28 134.816 L1869.28 133.317 Q1875.04 133.317 1878.01 130.248 Q1878.83 130.248 1878.97 130.436 Q1879.11 130.623 1879.11 131.49 L1879.11 158.402 Q1879.11 159.831 1879.82 160.276 Q1880.52 160.721 1883.59 160.721 L1885.11 160.721 L1885.11 162.197 Q1883.42 162.056 1877.33 162.056 Q1871.24 162.056 1869.58 162.197 L1869.58 160.721 L1871.1 160.721 Q1874.12 160.721 1874.85 160.299 Q1875.58 159.854 1875.58 158.402 L1875.58 133.551 Q1873.07 134.816 1869.28 134.816 Z" fill="#000000" fill-rule="nonzero" fill-opacity="1" /><path clip-path="url(#clip990)" d="M1893.03 173.51 Q1893.03 173.275 1893.22 172.76 L1910.15 127.508 Q1910.15 127.461 1910.27 127.203 Q1910.38 126.946 1910.45 126.782 Q1910.53 126.594 1910.67 126.454 Q1910.83 126.313 1911.02 126.313 Q1911.49 126.313 1911.49 126.899 Q1911.49 126.946 1911.34 127.508 L1894.36 172.807 Q1894.08 173.627 1893.9 173.861 Q1893.73 174.095 1893.45 174.095 Q1893.03 174.095 1893.03 173.51 Z" fill="#000000" fill-rule="nonzero" fill-opacity="1" /><path clip-path="url(#clip990)" d="M1916.78 162.197 Q1916.78 161.33 1916.85 161.072 Q1916.95 160.815 1917.32 160.416 L1926.53 150.157 Q1931.56 144.489 1931.56 139.547 Q1931.56 136.338 1929.87 134.043 Q1928.21 131.747 1925.14 131.747 Q1923.04 131.747 1921.26 133.036 Q1919.48 134.324 1918.66 136.619 Q1918.8 136.572 1919.29 136.572 Q1920.48 136.572 1921.14 137.322 Q1921.82 138.071 1921.82 139.079 Q1921.82 140.367 1920.97 140.999 Q1920.15 141.608 1919.33 141.608 Q1919.01 141.608 1918.56 141.538 Q1918.14 141.468 1917.46 140.812 Q1916.78 140.133 1916.78 138.938 Q1916.78 135.589 1919.31 132.919 Q1921.86 130.248 1925.75 130.248 Q1930.16 130.248 1933.04 132.872 Q1935.94 135.472 1935.94 139.547 Q1935.94 140.976 1935.5 142.288 Q1935.07 143.576 1934.49 144.583 Q1933.93 145.59 1932.38 147.206 Q1930.84 148.822 1929.59 149.97 Q1928.35 151.118 1925.57 153.554 L1920.48 158.496 L1929.13 158.496 Q1933.34 158.496 1933.67 158.121 Q1934.14 157.442 1934.72 153.858 L1935.94 153.858 L1934.58 162.197 L1916.78 162.197 Z" fill="#000000" fill-rule="nonzero" fill-opacity="1" /><path clip-path="url(#clip990)" d="M1940.53 173.72 Q1940.53 173.486 1941.14 172.901 Q1948.87 165.031 1948.87 150.204 Q1948.87 135.331 1941.45 127.812 Q1940.53 126.946 1940.53 126.688 Q1940.53 126.22 1941 126.22 Q1941.33 126.22 1942.48 127.18 Q1943.65 128.14 1945.41 130.342 Q1947.19 132.544 1948.5 135.237 Q1951.66 141.772 1951.66 150.204 Q1951.66 158.308 1948.64 164.843 Q1947.35 167.584 1945.55 169.879 Q1943.74 172.175 1942.55 173.182 Q1941.35 174.189 1941 174.189 Q1940.53 174.189 1940.53 173.72 Z" fill="#000000" fill-rule="nonzero" fill-opacity="1" /><path clip-path="url(#clip990)" d="M1974.87 125.8 Q1974.87 125.931 1974.72 126.44 Q1974.57 126.948 1974.21 127.735 Q1973.87 128.522 1973.39 129.243 Q1972.92 129.948 1972.13 130.473 Q1971.36 130.981 1970.47 130.981 Q1969.29 130.981 1968.51 130.194 Q1967.72 129.407 1967.72 128.227 Q1967.72 127.571 1968.06 126.669 Q1970.24 120.849 1970.24 118.848 Q1970.24 116.504 1968.42 116.504 Q1967.52 116.504 1966.67 116.848 Q1965.83 117.176 1965.26 117.635 Q1964.69 118.094 1964.16 118.734 Q1963.65 119.357 1963.39 119.783 Q1963.14 120.193 1962.95 120.603 L1962.52 122.275 Q1962.42 122.734 1961.95 124.521 L1961.21 127.555 Q1960.69 129.817 1960.57 130.03 Q1960.41 130.489 1960.05 130.735 Q1959.69 130.981 1959.32 130.981 Q1958.91 130.981 1958.64 130.735 Q1958.36 130.489 1958.36 130.063 Q1958.36 129.998 1958.41 129.752 Q1958.46 129.506 1958.54 129.161 Q1958.62 128.817 1958.65 128.62 L1960.6 120.865 Q1960.96 119.455 1961.05 119.012 Q1961.14 118.553 1961.14 118.045 Q1961.14 116.504 1960.1 116.504 Q1959.24 116.504 1958.69 117.52 Q1958.13 118.537 1957.65 120.504 Q1957.5 121.045 1957.41 121.16 Q1957.32 121.275 1957.08 121.275 Q1956.67 121.259 1956.67 120.931 Q1956.67 120.849 1956.8 120.308 Q1956.93 119.767 1957.18 118.996 Q1957.44 118.209 1957.69 117.684 Q1957.9 117.291 1958.01 117.111 Q1958.14 116.914 1958.46 116.537 Q1958.78 116.143 1959.21 115.963 Q1959.65 115.766 1960.19 115.766 Q1961.41 115.766 1962.29 116.553 Q1963.18 117.324 1963.29 118.685 Q1965.47 115.766 1968.52 115.766 Q1970.33 115.766 1971.36 116.717 Q1972.39 117.668 1972.39 119.357 Q1972.39 119.75 1972.31 120.258 Q1972.24 120.75 1972.08 121.373 Q1971.93 121.996 1971.8 122.472 Q1971.67 122.947 1971.41 123.718 Q1971.15 124.472 1971.03 124.8 Q1970.92 125.128 1970.64 125.899 Q1970.38 126.653 1970.34 126.735 Q1969.74 128.26 1969.74 129.129 Q1969.74 129.702 1969.92 129.965 Q1970.11 130.227 1970.54 130.227 Q1971.69 130.227 1972.54 129.096 Q1973.41 127.948 1973.97 126.079 Q1974.1 125.669 1974.16 125.571 Q1974.24 125.472 1974.47 125.472 Q1974.87 125.472 1974.87 125.8 Z" fill="#000000" fill-rule="nonzero" fill-opacity="1" /></svg>
