<?xml version="1.0" encoding="utf-8"?>
<svg xmlns="http://www.w3.org/2000/svg" xmlns:xlink="http://www.w3.org/1999/xlink" width="528" height="336" viewBox="0 0 2112 1344">
<defs>
  <clipPath id="clip920">
    <rect x="0" y="0" width="2112" height="1344"/>
  </clipPath>
</defs>
<path clip-path="url(#clip920)" d="M0 1344 L2112 1344 L2112 0 L0 0  Z" fill="#ffffff" fill-rule="evenodd" fill-opacity="1"/>
<defs>
  <clipPath id="clip921">
    <rect x="422" y="0" width="1479" height="1344"/>
  </clipPath>
</defs>
<path clip-path="url(#clip920)" d="M144.829 1234.58 L2064.76 1234.58 L2064.76 47.2441 L144.829 47.2441  Z" fill="#ffffff" fill-rule="evenodd" fill-opacity="1"/>
<defs>
  <clipPath id="clip922">
    <rect x="144" y="47" width="1921" height="1188"/>
  </clipPath>
</defs>
<polyline clip-path="url(#clip922)" style="stroke:#000000; stroke-linecap:round; stroke-linejoin:round; stroke-width:2; stroke-opacity:0.1; fill:none" points="144.829,1234.58 144.829,47.2441 "/>
<polyline clip-path="url(#clip922)" style="stroke:#000000; stroke-linecap:round; stroke-linejoin:round; stroke-width:2; stroke-opacity:0.1; fill:none" points="272.824,1234.58 272.824,47.2441 "/>
<polyline clip-path="url(#clip922)" style="stroke:#000000; stroke-linecap:round; stroke-linejoin:round; stroke-width:2; stroke-opacity:0.1; fill:none" points="400.82,1234.58 400.82,47.2441 "/>
<polyline clip-path="url(#clip922)" style="stroke:#000000; stroke-linecap:round; stroke-linejoin:round; stroke-width:2; stroke-opacity:0.1; fill:none" points="528.815,1234.58 528.815,47.2441 "/>
<polyline clip-path="url(#clip922)" style="stroke:#000000; stroke-linecap:round; stroke-linejoin:round; stroke-width:2; stroke-opacity:0.1; fill:none" points="656.81,1234.58 656.81,47.2441 "/>
<polyline clip-path="url(#clip922)" style="stroke:#000000; stroke-linecap:round; stroke-linejoin:round; stroke-width:2; stroke-opacity:0.1; fill:none" points="784.805,1234.58 784.805,47.2441 "/>
<polyline clip-path="url(#clip922)" style="stroke:#000000; stroke-linecap:round; stroke-linejoin:round; stroke-width:2; stroke-opacity:0.1; fill:none" points="912.8,1234.58 912.8,47.2441 "/>
<polyline clip-path="url(#clip922)" style="stroke:#000000; stroke-linecap:round; stroke-linejoin:round; stroke-width:2; stroke-opacity:0.1; fill:none" points="1040.8,1234.58 1040.8,47.2441 "/>
<polyline clip-path="url(#clip922)" style="stroke:#000000; stroke-linecap:round; stroke-linejoin:round; stroke-width:2; stroke-opacity:0.1; fill:none" points="1168.79,1234.58 1168.79,47.2441 "/>
<polyline clip-path="url(#clip922)" style="stroke:#000000; stroke-linecap:round; stroke-linejoin:round; stroke-width:2; stroke-opacity:0.1; fill:none" points="1296.79,1234.58 1296.79,47.2441 "/>
<polyline clip-path="url(#clip922)" style="stroke:#000000; stroke-linecap:round; stroke-linejoin:round; stroke-width:2; stroke-opacity:0.1; fill:none" points="1424.78,1234.58 1424.78,47.2441 "/>
<polyline clip-path="url(#clip922)" style="stroke:#000000; stroke-linecap:round; stroke-linejoin:round; stroke-width:2; stroke-opacity:0.1; fill:none" points="1552.78,1234.58 1552.78,47.2441 "/>
<polyline clip-path="url(#clip922)" style="stroke:#000000; stroke-linecap:round; stroke-linejoin:round; stroke-width:2; stroke-opacity:0.1; fill:none" points="1680.77,1234.58 1680.77,47.2441 "/>
<polyline clip-path="url(#clip922)" style="stroke:#000000; stroke-linecap:round; stroke-linejoin:round; stroke-width:2; stroke-opacity:0.1; fill:none" points="1808.77,1234.58 1808.77,47.2441 "/>
<polyline clip-path="url(#clip922)" style="stroke:#000000; stroke-linecap:round; stroke-linejoin:round; stroke-width:2; stroke-opacity:0.1; fill:none" points="1936.76,1234.58 1936.76,47.2441 "/>
<polyline clip-path="url(#clip922)" style="stroke:#000000; stroke-linecap:round; stroke-linejoin:round; stroke-width:2; stroke-opacity:0.1; fill:none" points="2064.76,1234.58 2064.76,47.2441 "/>
<polyline clip-path="url(#clip920)" style="stroke:#000000; stroke-linecap:round; stroke-linejoin:round; stroke-width:4; stroke-opacity:1; fill:none" points="144.829,1234.58 2064.76,1234.58 "/>
<polyline clip-path="url(#clip920)" style="stroke:#000000; stroke-linecap:round; stroke-linejoin:round; stroke-width:4; stroke-opacity:1; fill:none" points="144.829,1234.58 144.829,1215.68 "/>
<polyline clip-path="url(#clip920)" style="stroke:#000000; stroke-linecap:round; stroke-linejoin:round; stroke-width:4; stroke-opacity:1; fill:none" points="272.824,1234.58 272.824,1215.68 "/>
<polyline clip-path="url(#clip920)" style="stroke:#000000; stroke-linecap:round; stroke-linejoin:round; stroke-width:4; stroke-opacity:1; fill:none" points="400.82,1234.58 400.82,1215.68 "/>
<polyline clip-path="url(#clip920)" style="stroke:#000000; stroke-linecap:round; stroke-linejoin:round; stroke-width:4; stroke-opacity:1; fill:none" points="528.815,1234.58 528.815,1215.68 "/>
<polyline clip-path="url(#clip920)" style="stroke:#000000; stroke-linecap:round; stroke-linejoin:round; stroke-width:4; stroke-opacity:1; fill:none" points="656.81,1234.58 656.81,1215.68 "/>
<polyline clip-path="url(#clip920)" style="stroke:#000000; stroke-linecap:round; stroke-linejoin:round; stroke-width:4; stroke-opacity:1; fill:none" points="784.805,1234.58 784.805,1215.68 "/>
<polyline clip-path="url(#clip920)" style="stroke:#000000; stroke-linecap:round; stroke-linejoin:round; stroke-width:4; stroke-opacity:1; fill:none" points="912.8,1234.58 912.8,1215.68 "/>
<polyline clip-path="url(#clip920)" style="stroke:#000000; stroke-linecap:round; stroke-linejoin:round; stroke-width:4; stroke-opacity:1; fill:none" points="1040.8,1234.58 1040.8,1215.68 "/>
<polyline clip-path="url(#clip920)" style="stroke:#000000; stroke-linecap:round; stroke-linejoin:round; stroke-width:4; stroke-opacity:1; fill:none" points="1168.79,1234.58 1168.79,1215.68 "/>
<polyline clip-path="url(#clip920)" style="stroke:#000000; stroke-linecap:round; stroke-linejoin:round; stroke-width:4; stroke-opacity:1; fill:none" points="1296.79,1234.58 1296.79,1215.68 "/>
<polyline clip-path="url(#clip920)" style="stroke:#000000; stroke-linecap:round; stroke-linejoin:round; stroke-width:4; stroke-opacity:1; fill:none" points="1424.78,1234.58 1424.78,1215.68 "/>
<polyline clip-path="url(#clip920)" style="stroke:#000000; stroke-linecap:round; stroke-linejoin:round; stroke-width:4; stroke-opacity:1; fill:none" points="1552.78,1234.58 1552.78,1215.68 "/>
<polyline clip-path="url(#clip920)" style="stroke:#000000; stroke-linecap:round; stroke-linejoin:round; stroke-width:4; stroke-opacity:1; fill:none" points="1680.77,1234.58 1680.77,1215.68 "/>
<polyline clip-path="url(#clip920)" style="stroke:#000000; stroke-linecap:round; stroke-linejoin:round; stroke-width:4; stroke-opacity:1; fill:none" points="1808.77,1234.58 1808.77,1215.68 "/>
<polyline clip-path="url(#clip920)" style="stroke:#000000; stroke-linecap:round; stroke-linejoin:round; stroke-width:4; stroke-opacity:1; fill:none" points="1936.76,1234.58 1936.76,1215.68 "/>
<polyline clip-path="url(#clip920)" style="stroke:#000000; stroke-linecap:round; stroke-linejoin:round; stroke-width:4; stroke-opacity:1; fill:none" points="2064.76,1234.58 2064.76,1215.68 "/>
<path clip-path="url(#clip920)" d="M114.471 1277.85 L144.147 1277.85 L144.147 1281.78 L114.471 1281.78 L114.471 1277.85 Z" fill="#000000" fill-rule="nonzero" fill-opacity="1" /><path clip-path="url(#clip920)" d="M154.285 1260.11 L172.642 1260.11 L172.642 1264.05 L158.568 1264.05 L158.568 1272.52 Q159.586 1272.17 160.605 1272.01 Q161.623 1271.83 162.642 1271.83 Q168.429 1271.83 171.808 1275 Q175.188 1278.17 175.188 1283.59 Q175.188 1289.17 171.716 1292.27 Q168.244 1295.35 161.924 1295.35 Q159.748 1295.35 157.48 1294.98 Q155.234 1294.61 152.827 1293.86 L152.827 1289.17 Q154.91 1290.3 157.133 1290.86 Q159.355 1291.41 161.832 1291.41 Q165.836 1291.41 168.174 1289.3 Q170.512 1287.2 170.512 1283.59 Q170.512 1279.98 168.174 1277.87 Q165.836 1275.76 161.832 1275.76 Q159.957 1275.76 158.082 1276.18 Q156.23 1276.6 154.285 1277.48 L154.285 1260.11 Z" fill="#000000" fill-rule="nonzero" fill-opacity="1" /><path clip-path="url(#clip920)" d="M241.725 1277.85 L271.401 1277.85 L271.401 1281.78 L241.725 1281.78 L241.725 1277.85 Z" fill="#000000" fill-rule="nonzero" fill-opacity="1" /><path clip-path="url(#clip920)" d="M294.341 1264.19 L282.535 1282.64 L294.341 1282.64 L294.341 1264.19 M293.114 1260.11 L298.993 1260.11 L298.993 1282.64 L303.924 1282.64 L303.924 1286.53 L298.993 1286.53 L298.993 1294.67 L294.341 1294.67 L294.341 1286.53 L278.739 1286.53 L278.739 1282.01 L293.114 1260.11 Z" fill="#000000" fill-rule="nonzero" fill-opacity="1" /><path clip-path="url(#clip920)" d="M370.287 1277.85 L399.963 1277.85 L399.963 1281.78 L370.287 1281.78 L370.287 1277.85 Z" fill="#000000" fill-rule="nonzero" fill-opacity="1" /><path clip-path="url(#clip920)" d="M424.222 1276.04 Q427.579 1276.76 429.454 1279.03 Q431.352 1281.3 431.352 1284.63 Q431.352 1289.74 427.833 1292.55 Q424.315 1295.35 417.833 1295.35 Q415.657 1295.35 413.343 1294.91 Q411.051 1294.49 408.597 1293.63 L408.597 1289.12 Q410.542 1290.25 412.857 1290.83 Q415.171 1291.41 417.695 1291.41 Q422.093 1291.41 424.384 1289.67 Q426.699 1287.94 426.699 1284.63 Q426.699 1281.57 424.546 1279.86 Q422.417 1278.12 418.597 1278.12 L414.57 1278.12 L414.57 1274.28 L418.782 1274.28 Q422.232 1274.28 424.06 1272.92 Q425.889 1271.53 425.889 1268.93 Q425.889 1266.27 423.991 1264.86 Q422.116 1263.42 418.597 1263.42 Q416.676 1263.42 414.477 1263.84 Q412.278 1264.26 409.639 1265.14 L409.639 1260.97 Q412.301 1260.23 414.616 1259.86 Q416.954 1259.49 419.014 1259.49 Q424.338 1259.49 427.44 1261.92 Q430.542 1264.33 430.542 1268.45 Q430.542 1271.32 428.898 1273.31 Q427.255 1275.28 424.222 1276.04 Z" fill="#000000" fill-rule="nonzero" fill-opacity="1" /><path clip-path="url(#clip920)" d="M498.757 1277.85 L528.433 1277.85 L528.433 1281.78 L498.757 1281.78 L498.757 1277.85 Z" fill="#000000" fill-rule="nonzero" fill-opacity="1" /><path clip-path="url(#clip920)" d="M542.553 1290.74 L558.872 1290.74 L558.872 1294.67 L536.928 1294.67 L536.928 1290.74 Q539.59 1287.99 544.173 1283.36 Q548.78 1278.7 549.96 1277.36 Q552.206 1274.84 553.085 1273.1 Q553.988 1271.34 553.988 1269.65 Q553.988 1266.9 552.044 1265.16 Q550.122 1263.42 547.021 1263.42 Q544.822 1263.42 542.368 1264.19 Q539.937 1264.95 537.16 1266.5 L537.16 1261.78 Q539.984 1260.65 542.437 1260.07 Q544.891 1259.49 546.928 1259.49 Q552.298 1259.49 555.493 1262.17 Q558.687 1264.86 558.687 1269.35 Q558.687 1271.48 557.877 1273.4 Q557.09 1275.3 554.984 1277.89 Q554.405 1278.56 551.303 1281.78 Q548.201 1284.98 542.553 1290.74 Z" fill="#000000" fill-rule="nonzero" fill-opacity="1" /><path clip-path="url(#clip920)" d="M626.567 1277.85 L656.243 1277.85 L656.243 1281.78 L626.567 1281.78 L626.567 1277.85 Z" fill="#000000" fill-rule="nonzero" fill-opacity="1" /><path clip-path="url(#clip920)" d="M667.145 1290.74 L674.784 1290.74 L674.784 1264.37 L666.474 1266.04 L666.474 1261.78 L674.738 1260.11 L679.414 1260.11 L679.414 1290.74 L687.053 1290.74 L687.053 1294.67 L667.145 1294.67 L667.145 1290.74 Z" fill="#000000" fill-rule="nonzero" fill-opacity="1" /><path clip-path="url(#clip920)" d="M784.805 1263.19 Q781.194 1263.19 779.365 1266.76 Q777.56 1270.3 777.56 1277.43 Q777.56 1284.54 779.365 1288.1 Q781.194 1291.64 784.805 1291.64 Q788.439 1291.64 790.245 1288.1 Q792.073 1284.54 792.073 1277.43 Q792.073 1270.3 790.245 1266.76 Q788.439 1263.19 784.805 1263.19 M784.805 1259.49 Q790.615 1259.49 793.671 1264.1 Q796.749 1268.68 796.749 1277.43 Q796.749 1286.16 793.671 1290.76 Q790.615 1295.35 784.805 1295.35 Q778.995 1295.35 775.916 1290.76 Q772.861 1286.16 772.861 1277.43 Q772.861 1268.68 775.916 1264.1 Q778.995 1259.49 784.805 1259.49 Z" fill="#000000" fill-rule="nonzero" fill-opacity="1" /><path clip-path="url(#clip920)" d="M903.182 1290.74 L910.821 1290.74 L910.821 1264.37 L902.511 1266.04 L902.511 1261.78 L910.775 1260.11 L915.45 1260.11 L915.45 1290.74 L923.089 1290.74 L923.089 1294.67 L903.182 1294.67 L903.182 1290.74 Z" fill="#000000" fill-rule="nonzero" fill-opacity="1" /><path clip-path="url(#clip920)" d="M1035.45 1290.74 L1051.77 1290.74 L1051.77 1294.67 L1029.82 1294.67 L1029.82 1290.74 Q1032.48 1287.99 1037.07 1283.36 Q1041.67 1278.7 1042.86 1277.36 Q1045.1 1274.84 1045.98 1273.1 Q1046.88 1271.34 1046.88 1269.65 Q1046.88 1266.9 1044.94 1265.16 Q1043.02 1263.42 1039.92 1263.42 Q1037.72 1263.42 1035.26 1264.19 Q1032.83 1264.95 1030.05 1266.5 L1030.05 1261.78 Q1032.88 1260.65 1035.33 1260.07 Q1037.79 1259.49 1039.82 1259.49 Q1045.19 1259.49 1048.39 1262.17 Q1051.58 1264.86 1051.58 1269.35 Q1051.58 1271.48 1050.77 1273.4 Q1049.98 1275.3 1047.88 1277.89 Q1047.3 1278.56 1044.2 1281.78 Q1041.1 1284.98 1035.45 1290.74 Z" fill="#000000" fill-rule="nonzero" fill-opacity="1" /><path clip-path="url(#clip920)" d="M1173.04 1276.04 Q1176.39 1276.76 1178.27 1279.03 Q1180.17 1281.3 1180.17 1284.63 Q1180.17 1289.74 1176.65 1292.55 Q1173.13 1295.35 1166.65 1295.35 Q1164.47 1295.35 1162.16 1294.91 Q1159.87 1294.49 1157.41 1293.63 L1157.41 1289.12 Q1159.36 1290.25 1161.67 1290.83 Q1163.99 1291.41 1166.51 1291.41 Q1170.91 1291.41 1173.2 1289.67 Q1175.51 1287.94 1175.51 1284.63 Q1175.51 1281.57 1173.36 1279.86 Q1171.23 1278.12 1167.41 1278.12 L1163.39 1278.12 L1163.39 1274.28 L1167.6 1274.28 Q1171.05 1274.28 1172.88 1272.92 Q1174.7 1271.53 1174.7 1268.93 Q1174.7 1266.27 1172.81 1264.86 Q1170.93 1263.42 1167.41 1263.42 Q1165.49 1263.42 1163.29 1263.84 Q1161.09 1264.26 1158.45 1265.14 L1158.45 1260.97 Q1161.12 1260.23 1163.43 1259.86 Q1165.77 1259.49 1167.83 1259.49 Q1173.15 1259.49 1176.26 1261.92 Q1179.36 1264.33 1179.36 1268.45 Q1179.36 1271.32 1177.71 1273.31 Q1176.07 1275.28 1173.04 1276.04 Z" fill="#000000" fill-rule="nonzero" fill-opacity="1" /><path clip-path="url(#clip920)" d="M1299.79 1264.19 L1287.99 1282.64 L1299.79 1282.64 L1299.79 1264.19 M1298.57 1260.11 L1304.45 1260.11 L1304.45 1282.64 L1309.38 1282.64 L1309.38 1286.53 L1304.45 1286.53 L1304.45 1294.67 L1299.79 1294.67 L1299.79 1286.53 L1284.19 1286.53 L1284.19 1282.01 L1298.57 1260.11 Z" fill="#000000" fill-rule="nonzero" fill-opacity="1" /><path clip-path="url(#clip920)" d="M1415.06 1260.11 L1433.41 1260.11 L1433.41 1264.05 L1419.34 1264.05 L1419.34 1272.52 Q1420.36 1272.17 1421.38 1272.01 Q1422.4 1271.83 1423.41 1271.83 Q1429.2 1271.83 1432.58 1275 Q1435.96 1278.17 1435.96 1283.59 Q1435.96 1289.17 1432.49 1292.27 Q1429.02 1295.35 1422.7 1295.35 Q1420.52 1295.35 1418.25 1294.98 Q1416.01 1294.61 1413.6 1293.86 L1413.6 1289.17 Q1415.68 1290.3 1417.91 1290.86 Q1420.13 1291.41 1422.6 1291.41 Q1426.61 1291.41 1428.95 1289.3 Q1431.28 1287.2 1431.28 1283.59 Q1431.28 1279.98 1428.95 1277.87 Q1426.61 1275.76 1422.6 1275.76 Q1420.73 1275.76 1418.85 1276.18 Q1417 1276.6 1415.06 1277.48 L1415.06 1260.11 Z" fill="#000000" fill-rule="nonzero" fill-opacity="1" /><path clip-path="url(#clip920)" d="M1553.18 1275.53 Q1550.03 1275.53 1548.18 1277.68 Q1546.35 1279.84 1546.35 1283.59 Q1546.35 1287.31 1548.18 1289.49 Q1550.03 1291.64 1553.18 1291.64 Q1556.33 1291.64 1558.16 1289.49 Q1560.01 1287.31 1560.01 1283.59 Q1560.01 1279.84 1558.16 1277.68 Q1556.33 1275.53 1553.18 1275.53 M1562.46 1260.88 L1562.46 1265.14 Q1560.7 1264.3 1558.9 1263.86 Q1557.12 1263.42 1555.36 1263.42 Q1550.73 1263.42 1548.27 1266.55 Q1545.84 1269.67 1545.5 1275.99 Q1546.86 1273.98 1548.92 1272.92 Q1550.98 1271.83 1553.46 1271.83 Q1558.67 1271.83 1561.68 1275 Q1564.71 1278.15 1564.71 1283.59 Q1564.71 1288.91 1561.56 1292.13 Q1558.41 1295.35 1553.18 1295.35 Q1547.19 1295.35 1544.01 1290.76 Q1540.84 1286.16 1540.84 1277.43 Q1540.84 1269.24 1544.73 1264.37 Q1548.62 1259.49 1555.17 1259.49 Q1556.93 1259.49 1558.71 1259.84 Q1560.52 1260.18 1562.46 1260.88 Z" fill="#000000" fill-rule="nonzero" fill-opacity="1" /><path clip-path="url(#clip920)" d="M1669.66 1260.11 L1691.88 1260.11 L1691.88 1262.11 L1679.34 1294.67 L1674.45 1294.67 L1686.26 1264.05 L1669.66 1264.05 L1669.66 1260.11 Z" fill="#000000" fill-rule="nonzero" fill-opacity="1" /><path clip-path="url(#clip920)" d="M1808.77 1278.26 Q1805.43 1278.26 1803.51 1280.05 Q1801.61 1281.83 1801.61 1284.95 Q1801.61 1288.08 1803.51 1289.86 Q1805.43 1291.64 1808.77 1291.64 Q1812.1 1291.64 1814.02 1289.86 Q1815.94 1288.05 1815.94 1284.95 Q1815.94 1281.83 1814.02 1280.05 Q1812.12 1278.26 1808.77 1278.26 M1804.09 1276.27 Q1801.08 1275.53 1799.39 1273.47 Q1797.72 1271.41 1797.72 1268.45 Q1797.72 1264.3 1800.66 1261.9 Q1803.63 1259.49 1808.77 1259.49 Q1813.93 1259.49 1816.87 1261.9 Q1819.81 1264.3 1819.81 1268.45 Q1819.81 1271.41 1818.12 1273.47 Q1816.45 1275.53 1813.46 1276.27 Q1816.84 1277.06 1818.72 1279.35 Q1820.62 1281.64 1820.62 1284.95 Q1820.62 1289.98 1817.54 1292.66 Q1814.48 1295.35 1808.77 1295.35 Q1803.05 1295.35 1799.97 1292.66 Q1796.91 1289.98 1796.91 1284.95 Q1796.91 1281.64 1798.81 1279.35 Q1800.71 1277.06 1804.09 1276.27 M1802.38 1268.89 Q1802.38 1271.57 1804.04 1273.08 Q1805.73 1274.58 1808.77 1274.58 Q1811.77 1274.58 1813.46 1273.08 Q1815.18 1271.57 1815.18 1268.89 Q1815.18 1266.2 1813.46 1264.7 Q1811.77 1263.19 1808.77 1263.19 Q1805.73 1263.19 1804.04 1264.7 Q1802.38 1266.2 1802.38 1268.89 Z" fill="#000000" fill-rule="nonzero" fill-opacity="1" /><path clip-path="url(#clip920)" d="M1927.06 1293.96 L1927.06 1289.7 Q1928.82 1290.53 1930.63 1290.97 Q1932.43 1291.41 1934.17 1291.41 Q1938.8 1291.41 1941.23 1288.31 Q1943.68 1285.18 1944.03 1278.84 Q1942.69 1280.83 1940.63 1281.9 Q1938.57 1282.96 1936.07 1282.96 Q1930.88 1282.96 1927.85 1279.84 Q1924.84 1276.69 1924.84 1271.25 Q1924.84 1265.92 1927.99 1262.71 Q1931.14 1259.49 1936.37 1259.49 Q1942.36 1259.49 1945.51 1264.1 Q1948.68 1268.68 1948.68 1277.43 Q1948.68 1285.6 1944.79 1290.48 Q1940.93 1295.35 1934.38 1295.35 Q1932.62 1295.35 1930.81 1295 Q1929.01 1294.65 1927.06 1293.96 M1936.37 1279.3 Q1939.52 1279.3 1941.34 1277.15 Q1943.2 1275 1943.2 1271.25 Q1943.2 1267.52 1941.34 1265.37 Q1939.52 1263.19 1936.37 1263.19 Q1933.22 1263.19 1931.37 1265.37 Q1929.54 1267.52 1929.54 1271.25 Q1929.54 1275 1931.37 1277.15 Q1933.22 1279.3 1936.37 1279.3 Z" fill="#000000" fill-rule="nonzero" fill-opacity="1" /><path clip-path="url(#clip920)" d="M2039.44 1290.74 L2047.08 1290.74 L2047.08 1264.37 L2038.77 1266.04 L2038.77 1261.78 L2047.04 1260.11 L2051.71 1260.11 L2051.71 1290.74 L2059.35 1290.74 L2059.35 1294.67 L2039.44 1294.67 L2039.44 1290.74 Z" fill="#000000" fill-rule="nonzero" fill-opacity="1" /><path clip-path="url(#clip920)" d="M2078.8 1263.19 Q2075.18 1263.19 2073.36 1266.76 Q2071.55 1270.3 2071.55 1277.43 Q2071.55 1284.54 2073.36 1288.1 Q2075.18 1291.64 2078.8 1291.64 Q2082.43 1291.64 2084.23 1288.1 Q2086.06 1284.54 2086.06 1277.43 Q2086.06 1270.3 2084.23 1266.76 Q2082.43 1263.19 2078.8 1263.19 M2078.8 1259.49 Q2084.61 1259.49 2087.66 1264.1 Q2090.74 1268.68 2090.74 1277.43 Q2090.74 1286.16 2087.66 1290.76 Q2084.61 1295.35 2078.8 1295.35 Q2072.99 1295.35 2069.91 1290.76 Q2066.85 1286.16 2066.85 1277.43 Q2066.85 1268.68 2069.91 1264.1 Q2072.99 1259.49 2078.8 1259.49 Z" fill="#000000" fill-rule="nonzero" fill-opacity="1" /><polyline clip-path="url(#clip922)" style="stroke:#000000; stroke-linecap:round; stroke-linejoin:round; stroke-width:2; stroke-opacity:0.1; fill:none" points="144.829,1234.58 2064.76,1234.58 "/>
<polyline clip-path="url(#clip922)" style="stroke:#000000; stroke-linecap:round; stroke-linejoin:round; stroke-width:2; stroke-opacity:0.1; fill:none" points="144.829,838.801 2064.76,838.801 "/>
<polyline clip-path="url(#clip922)" style="stroke:#000000; stroke-linecap:round; stroke-linejoin:round; stroke-width:2; stroke-opacity:0.1; fill:none" points="144.829,443.022 2064.76,443.022 "/>
<polyline clip-path="url(#clip922)" style="stroke:#000000; stroke-linecap:round; stroke-linejoin:round; stroke-width:2; stroke-opacity:0.1; fill:none" points="144.829,47.2441 2064.76,47.2441 "/>
<polyline clip-path="url(#clip920)" style="stroke:#000000; stroke-linecap:round; stroke-linejoin:round; stroke-width:4; stroke-opacity:1; fill:none" points="144.829,1234.58 144.829,47.2441 "/>
<polyline clip-path="url(#clip920)" style="stroke:#000000; stroke-linecap:round; stroke-linejoin:round; stroke-width:4; stroke-opacity:1; fill:none" points="144.829,1234.58 163.727,1234.58 "/>
<polyline clip-path="url(#clip920)" style="stroke:#000000; stroke-linecap:round; stroke-linejoin:round; stroke-width:4; stroke-opacity:1; fill:none" points="144.829,838.801 163.727,838.801 "/>
<polyline clip-path="url(#clip920)" style="stroke:#000000; stroke-linecap:round; stroke-linejoin:round; stroke-width:4; stroke-opacity:1; fill:none" points="144.829,443.022 163.727,443.022 "/>
<polyline clip-path="url(#clip920)" style="stroke:#000000; stroke-linecap:round; stroke-linejoin:round; stroke-width:4; stroke-opacity:1; fill:none" points="144.829,47.2441 163.727,47.2441 "/>
<path clip-path="url(#clip920)" d="M52.4321 1235.03 L82.1079 1235.03 L82.1079 1238.97 L52.4321 1238.97 L52.4321 1235.03 Z" fill="#000000" fill-rule="nonzero" fill-opacity="1" /><path clip-path="url(#clip920)" d="M92.2467 1217.3 L110.603 1217.3 L110.603 1221.23 L96.5291 1221.23 L96.5291 1229.71 Q97.5476 1229.36 98.5661 1229.2 Q99.5847 1229.01 100.603 1229.01 Q106.39 1229.01 109.77 1232.18 Q113.149 1235.35 113.149 1240.77 Q113.149 1246.35 109.677 1249.45 Q106.205 1252.53 99.8856 1252.53 Q97.7097 1252.53 95.4412 1252.16 Q93.1958 1251.79 90.7884 1251.05 L90.7884 1246.35 Q92.8717 1247.48 95.0939 1248.04 Q97.3161 1248.59 99.793 1248.59 Q103.798 1248.59 106.136 1246.49 Q108.473 1244.38 108.473 1240.77 Q108.473 1237.16 106.136 1235.05 Q103.798 1232.95 99.793 1232.95 Q97.918 1232.95 96.043 1233.36 Q94.1912 1233.78 92.2467 1234.66 L92.2467 1217.3 Z" fill="#000000" fill-rule="nonzero" fill-opacity="1" /><path clip-path="url(#clip920)" d="M101.205 824.599 Q97.5939 824.599 95.7652 828.164 Q93.9597 831.706 93.9597 838.835 Q93.9597 845.942 95.7652 849.507 Q97.5939 853.048 101.205 853.048 Q104.839 853.048 106.645 849.507 Q108.473 845.942 108.473 838.835 Q108.473 831.706 106.645 828.164 Q104.839 824.599 101.205 824.599 M101.205 820.896 Q107.015 820.896 110.071 825.502 Q113.149 830.085 113.149 838.835 Q113.149 847.562 110.071 852.169 Q107.015 856.752 101.205 856.752 Q95.3949 856.752 92.3162 852.169 Q89.2606 847.562 89.2606 838.835 Q89.2606 830.085 92.3162 825.502 Q95.3949 820.896 101.205 820.896 Z" fill="#000000" fill-rule="nonzero" fill-opacity="1" /><path clip-path="url(#clip920)" d="M92.2467 425.742 L110.603 425.742 L110.603 429.677 L96.5291 429.677 L96.5291 438.15 Q97.5476 437.802 98.5661 437.64 Q99.5847 437.455 100.603 437.455 Q106.39 437.455 109.77 440.627 Q113.149 443.798 113.149 449.214 Q113.149 454.793 109.677 457.895 Q106.205 460.974 99.8856 460.974 Q97.7097 460.974 95.4412 460.603 Q93.1958 460.233 90.7884 459.492 L90.7884 454.793 Q92.8717 455.927 95.0939 456.483 Q97.3161 457.038 99.793 457.038 Q103.798 457.038 106.136 454.932 Q108.473 452.826 108.473 449.214 Q108.473 445.603 106.136 443.497 Q103.798 441.39 99.793 441.39 Q97.918 441.39 96.043 441.807 Q94.1912 442.224 92.2467 443.103 L92.2467 425.742 Z" fill="#000000" fill-rule="nonzero" fill-opacity="1" /><path clip-path="url(#clip920)" d="M61.8534 60.5889 L69.4922 60.5889 L69.4922 34.2233 L61.1821 35.89 L61.1821 31.6308 L69.4459 29.9641 L74.1218 29.9641 L74.1218 60.5889 L81.7607 60.5889 L81.7607 64.5241 L61.8534 64.5241 L61.8534 60.5889 Z" fill="#000000" fill-rule="nonzero" fill-opacity="1" /><path clip-path="url(#clip920)" d="M101.205 33.0428 Q97.5939 33.0428 95.7652 36.6076 Q93.9597 40.1492 93.9597 47.2788 Q93.9597 54.3853 95.7652 57.9501 Q97.5939 61.4917 101.205 61.4917 Q104.839 61.4917 106.645 57.9501 Q108.473 54.3853 108.473 47.2788 Q108.473 40.1492 106.645 36.6076 Q104.839 33.0428 101.205 33.0428 M101.205 29.3391 Q107.015 29.3391 110.071 33.9456 Q113.149 38.5289 113.149 47.2788 Q113.149 56.0056 110.071 60.6121 Q107.015 65.1954 101.205 65.1954 Q95.3949 65.1954 92.3162 60.6121 Q89.2606 56.0056 89.2606 47.2788 Q89.2606 38.5289 92.3162 33.9456 Q95.3949 29.3391 101.205 29.3391 Z" fill="#000000" fill-rule="nonzero" fill-opacity="1" /><polyline clip-path="url(#clip922)" style="stroke:#009af9; stroke-linecap:round; stroke-linejoin:round; stroke-width:4; stroke-opacity:1; fill:none" points="144.829,782.261 157.329,782.581 272.908,786.033 342.365,788.657 401.091,791.321 464.884,794.829 523.695,798.831 586.746,804.272 659.798,812.829 692.258,817.782 724.718,823.753 753.182,830.097 781.646,837.836 812.68,839.475 843.714,842.101 859.323,844.349 874.932,847.348 890.541,851.225 906.15,856.136 923.408,863.009 940.666,871.728 957.924,882.749 975.182,896.685 991.602,913.431 1008.02,934.634 1016.23,947.357 1024.44,961.817 1032.65,978.326 1040.86,997.281 1049.4,1020.12 1057.94,1046.89 1066.47,1078.57 1075.01,1116.49 1079.28,1138.35 1083.55,1162.54 1087.82,1189.41 1092.08,1219.42 1096.35,1253.12 1100.62,1291.21 1102.75,1312.17 1104.89,1334.57 1107.02,1358.56 1109.16,1384.31 1112.75,1432.22 1116.34,1486.85 1118.14,1517.13 1119.94,1549.67 1121.73,1584.74 1123.53,1622.64 1125.33,1663.72 1127.12,1708.4 1128.92,1757.14 1130.72,1810.54 1132.51,1869.28 1134.31,1934.2 1136.11,2006.32 1137.9,2086.9 1138.8,2130.83 1139.7,2177.49 1140.6,2227.14 1141.49,2280.08 1142.39,2336.64 1143.29,2397.2 "/>
<polyline clip-path="url(#clip922)" style="stroke:#009af9; stroke-linecap:round; stroke-linejoin:round; stroke-width:4; stroke-opacity:1; fill:none" points="1203.38,-727.262 1203.93,-706.868 1205.03,-667.947 1206.13,-631.333 1208.32,-564.255 1210.51,-504.301 1212.71,-450.404 1214.9,-401.699 1217.09,-357.478 1219.29,-317.158 1221.48,-280.252 1223.67,-246.349 1225.87,-215.104 1228.06,-186.222 1230.25,-159.45 1232.45,-134.569 1234.64,-111.391 1236.83,-89.7515 1240.85,-53.6291 1244.87,-21.4539 1248.89,7.36817 1252.91,33.3177 1256.93,56.7877 1260.94,78.1023 1264.96,97.5319 1268.98,115.303 1277.02,146.61 1285.06,173.245 1293.09,196.114 1301.13,215.904 1308.55,231.906 1315.97,246.062 1323.4,258.639 1330.82,269.853 1345.67,288.879 1360.51,304.248 1375.55,316.894 1390.59,327.194 1405.63,335.596 1420.66,342.44 1437.52,348.581 1454.37,353.382 1471.22,357.067 1488.08,359.813 1518.62,362.836 1549.17,363.856 1584.14,363.134 1619.11,360.845 1651.49,357.625 1683.87,353.55 1747.71,343.57 1809.7,332.019 1873.25,318.787 1942.87,303.08 2044.01,278.613 2064.76,273.403 "/>
<polyline clip-path="url(#clip922)" style="stroke:#e26f46; stroke-linecap:round; stroke-linejoin:round; stroke-width:4; stroke-opacity:1; fill:none" points="1168.79,2421.91 1168.79,-1140.09 "/>
<path clip-path="url(#clip920)" d="M208.827 242.342 L917.408 242.342 L917.408 86.8219 L208.827 86.8219  Z" fill="#ffffff" fill-rule="evenodd" fill-opacity="1"/>
<polyline clip-path="url(#clip920)" style="stroke:#000000; stroke-linecap:round; stroke-linejoin:round; stroke-width:4; stroke-opacity:1; fill:none" points="208.827,242.342 917.408,242.342 917.408,86.8219 208.827,86.8219 208.827,242.342 "/>
<polyline clip-path="url(#clip920)" style="stroke:#009af9; stroke-linecap:round; stroke-linejoin:round; stroke-width:4; stroke-opacity:1; fill:none" points="230.159,138.662 358.155,138.662 "/>
<path clip-path="url(#clip920)" d="M401.504 131.586 Q401.504 131.61 401.364 132.453 L396.023 153.744 Q395.742 154.868 394.946 155.992 Q394.173 157.14 392.932 158.124 Q391.714 159.131 389.84 159.74 Q387.989 160.372 385.858 160.372 Q382.462 160.372 380.963 159.646 Q379.487 158.944 379.487 157.445 Q379.487 156.133 380.307 155.383 Q381.127 154.657 382.064 154.657 Q382.954 154.657 383.422 155.173 Q383.89 155.688 383.89 156.344 Q383.89 157.07 383.399 157.796 Q382.907 158.546 381.923 158.827 Q383.492 159.318 385.764 159.318 Q390.566 159.318 392.627 154.236 Q392.674 154.166 392.674 154.142 L394.267 147.795 L394.196 147.748 Q393.798 148.216 393.166 148.755 Q392.557 149.27 391.245 149.903 Q389.933 150.535 388.645 150.535 Q385.952 150.535 384.101 148.474 Q382.274 146.389 382.274 142.946 Q382.274 140.44 383.282 137.934 Q384.312 135.404 385.905 133.554 Q387.521 131.68 389.582 130.509 Q391.667 129.338 393.681 129.338 Q395.086 129.338 396.281 130.181 Q397.476 131.001 398.131 132.359 Q398.248 131.235 398.881 130.766 Q399.537 130.298 400.099 130.298 Q400.731 130.298 401.106 130.649 Q401.504 130.977 401.504 131.586 M397.569 134.514 Q397.569 134.374 397.476 133.999 Q397.382 133.601 397.101 132.968 Q396.843 132.336 396.445 131.774 Q396.047 131.212 395.321 130.813 Q394.618 130.392 393.728 130.392 Q392.276 130.392 390.824 131.61 Q389.371 132.804 388.364 134.655 Q387.427 136.435 386.537 139.878 Q385.671 143.321 385.671 145.078 Q385.671 146.811 386.42 148.146 Q387.17 149.481 388.786 149.481 Q390.66 149.481 392.674 147.748 Q394.759 145.944 395.11 144.398 L397.429 135.24 Q397.569 134.678 397.569 134.514 Z" fill="#000000" fill-rule="nonzero" fill-opacity="1" /><path clip-path="url(#clip920)" d="M408.079 138.543 Q408.079 130.439 411.1 123.904 Q412.389 121.163 414.192 118.868 Q415.996 116.572 417.19 115.565 Q418.385 114.558 418.713 114.558 Q419.181 114.558 419.204 115.027 Q419.204 115.261 418.572 115.846 Q410.843 123.716 410.866 138.543 Q410.866 153.416 418.385 160.981 Q419.204 161.801 419.204 162.059 Q419.204 162.527 418.713 162.527 Q418.385 162.527 417.237 161.567 Q416.089 160.607 414.309 158.405 Q412.529 156.203 411.241 153.51 Q408.079 146.975 408.079 138.543 Z" fill="#000000" fill-rule="nonzero" fill-opacity="1" /><path clip-path="url(#clip920)" d="M446.74 132.5 Q446.74 133.811 445.92 134.561 Q445.1 135.287 444.163 135.287 Q443.273 135.287 442.805 134.772 Q442.336 134.256 442.336 133.601 Q442.336 132.711 442.992 131.938 Q443.648 131.165 444.632 131.001 Q443.671 130.392 442.243 130.392 Q441.306 130.392 440.486 130.884 Q439.689 131.375 439.198 132.008 Q438.729 132.64 438.308 133.554 Q437.909 134.444 437.745 134.983 Q437.605 135.498 437.488 136.06 L435.848 142.618 Q435.052 145.733 435.052 146.834 Q435.052 148.193 435.708 149.106 Q436.363 149.996 437.675 149.996 Q438.19 149.996 438.776 149.856 Q439.362 149.692 440.111 149.27 Q440.884 148.825 441.563 148.169 Q442.266 147.49 442.945 146.342 Q443.624 145.195 444.069 143.719 Q444.21 143.204 444.678 143.204 Q445.264 143.204 445.264 143.672 Q445.264 144.07 444.936 144.914 Q444.632 145.733 443.952 146.811 Q443.297 147.865 442.43 148.825 Q441.563 149.762 440.275 150.418 Q438.987 151.074 437.581 151.074 Q435.567 151.074 434.232 149.996 Q432.897 148.919 432.405 147.42 Q432.288 147.631 432.124 147.912 Q431.96 148.193 431.468 148.825 Q431 149.434 430.461 149.903 Q429.922 150.348 429.079 150.699 Q428.259 151.074 427.369 151.074 Q426.245 151.074 425.238 150.746 Q424.254 150.418 423.551 149.668 Q422.849 148.919 422.849 147.888 Q422.849 146.741 423.622 145.944 Q424.418 145.124 425.495 145.124 Q426.175 145.124 426.713 145.523 Q427.276 145.921 427.276 146.787 Q427.276 147.748 426.62 148.474 Q425.964 149.2 425.027 149.387 Q425.987 149.996 427.416 149.996 Q428.962 149.996 430.18 148.638 Q431.398 147.279 431.983 145.007 Q433.436 139.55 433.998 137.114 Q434.56 134.655 434.56 133.601 Q434.56 132.617 434.302 131.938 Q434.045 131.258 433.6 130.954 Q433.178 130.626 432.78 130.509 Q432.405 130.392 431.983 130.392 Q431.281 130.392 430.484 130.673 Q429.712 130.954 428.775 131.61 Q427.861 132.242 426.994 133.554 Q426.128 134.865 425.542 136.669 Q425.425 137.208 424.91 137.208 Q424.348 137.184 424.348 136.716 Q424.348 136.318 424.652 135.498 Q424.98 134.655 425.636 133.601 Q426.315 132.547 427.182 131.61 Q428.072 130.649 429.36 129.994 Q430.672 129.338 432.077 129.338 Q432.71 129.338 433.319 129.478 Q433.951 129.595 434.7 129.947 Q435.473 130.298 436.153 131.071 Q436.832 131.844 437.254 132.968 Q437.535 132.429 437.909 131.914 Q438.308 131.399 438.917 130.766 Q439.549 130.111 440.416 129.736 Q441.306 129.338 442.289 129.338 Q443.25 129.338 444.187 129.595 Q445.123 129.83 445.92 130.603 Q446.74 131.352 446.74 132.5 Z" fill="#000000" fill-rule="nonzero" fill-opacity="1" /><path clip-path="url(#clip920)" d="M451.356 162.059 Q451.356 161.825 451.965 161.239 Q459.694 153.369 459.694 138.543 Q459.694 123.669 452.269 116.151 Q451.356 115.284 451.356 115.027 Q451.356 114.558 451.824 114.558 Q452.152 114.558 453.3 115.518 Q454.471 116.479 456.228 118.681 Q458.008 120.882 459.319 123.576 Q462.481 130.111 462.481 138.543 Q462.481 146.647 459.46 153.182 Q458.172 155.922 456.368 158.218 Q454.565 160.513 453.37 161.52 Q452.176 162.527 451.824 162.527 Q451.356 162.527 451.356 162.059 Z" fill="#000000" fill-rule="nonzero" fill-opacity="1" /><polyline clip-path="url(#clip920)" style="stroke:#e26f46; stroke-linecap:round; stroke-linejoin:round; stroke-width:4; stroke-opacity:1; fill:none" points="230.159,190.502 358.155,190.502 "/>
<path clip-path="url(#clip920)" d="M395.32 175.845 L388.978 193.044 L401.686 193.044 L395.32 175.845 M392.681 171.239 L397.982 171.239 L411.154 205.799 L406.292 205.799 L403.144 196.933 L387.566 196.933 L384.418 205.799 L379.487 205.799 L392.681 171.239 Z" fill="#000000" fill-rule="nonzero" fill-opacity="1" /><path clip-path="url(#clip920)" d="M432.542 180.637 L432.542 184.665 Q430.737 183.739 428.792 183.276 Q426.848 182.813 424.765 182.813 Q421.593 182.813 419.996 183.785 Q418.422 184.757 418.422 186.702 Q418.422 188.183 419.556 189.04 Q420.691 189.873 424.116 190.637 L425.575 190.961 Q430.112 191.933 432.01 193.716 Q433.931 195.475 433.931 198.646 Q433.931 202.257 431.061 204.364 Q428.214 206.47 423.214 206.47 Q421.13 206.47 418.862 206.053 Q416.617 205.66 414.117 204.85 L414.117 200.452 Q416.478 201.678 418.769 202.303 Q421.061 202.905 423.306 202.905 Q426.316 202.905 427.936 201.887 Q429.556 200.845 429.556 198.97 Q429.556 197.234 428.376 196.308 Q427.218 195.382 423.26 194.526 L421.779 194.178 Q417.82 193.345 416.061 191.632 Q414.302 189.896 414.302 186.887 Q414.302 183.229 416.894 181.239 Q419.487 179.248 424.255 179.248 Q426.616 179.248 428.7 179.595 Q430.783 179.942 432.542 180.637 Z" fill="#000000" fill-rule="nonzero" fill-opacity="1" /><path clip-path="url(#clip920)" d="M446.061 167.882 L450.667 167.882 L443.121 176.586 L439.579 176.586 L446.061 167.882 M440.714 179.873 L444.973 179.873 L444.973 205.799 L440.714 205.799 L440.714 179.873 M442.843 179.248 L442.843 179.248 Z" fill="#000000" fill-rule="nonzero" fill-opacity="1" /><path clip-path="url(#clip920)" d="M475.436 190.151 L475.436 205.799 L471.176 205.799 L471.176 190.29 Q471.176 186.609 469.741 184.78 Q468.306 182.952 465.436 182.952 Q461.987 182.952 459.996 185.151 Q458.005 187.35 458.005 191.146 L458.005 205.799 L453.723 205.799 L453.723 179.873 L458.005 179.873 L458.005 183.901 Q459.533 181.563 461.593 180.405 Q463.676 179.248 466.385 179.248 Q470.852 179.248 473.144 182.026 Q475.436 184.78 475.436 190.151 Z" fill="#000000" fill-rule="nonzero" fill-opacity="1" /><path clip-path="url(#clip920)" d="M488.144 172.512 L488.144 179.873 L496.917 179.873 L496.917 183.183 L488.144 183.183 L488.144 197.257 Q488.144 200.428 489 201.331 Q489.88 202.234 492.542 202.234 L496.917 202.234 L496.917 205.799 L492.542 205.799 Q487.611 205.799 485.737 203.97 Q483.862 202.118 483.862 197.257 L483.862 183.183 L480.737 183.183 L480.737 179.873 L483.862 179.873 L483.862 172.512 L488.144 172.512 Z" fill="#000000" fill-rule="nonzero" fill-opacity="1" /><path clip-path="url(#clip920)" d="M512.565 182.859 Q509.139 182.859 507.148 185.544 Q505.158 188.206 505.158 192.859 Q505.158 197.512 507.125 200.197 Q509.116 202.859 512.565 202.859 Q515.968 202.859 517.959 200.174 Q519.949 197.489 519.949 192.859 Q519.949 188.253 517.959 185.567 Q515.968 182.859 512.565 182.859 M512.565 179.248 Q518.121 179.248 521.292 182.859 Q524.463 186.47 524.463 192.859 Q524.463 199.225 521.292 202.859 Q518.121 206.47 512.565 206.47 Q506.986 206.47 503.815 202.859 Q500.667 199.225 500.667 192.859 Q500.667 186.47 503.815 182.859 Q506.986 179.248 512.565 179.248 Z" fill="#000000" fill-rule="nonzero" fill-opacity="1" /><path clip-path="url(#clip920)" d="M535.736 172.512 L535.736 179.873 L544.509 179.873 L544.509 183.183 L535.736 183.183 L535.736 197.257 Q535.736 200.428 536.593 201.331 Q537.472 202.234 540.134 202.234 L544.509 202.234 L544.509 205.799 L540.134 205.799 Q535.204 205.799 533.329 203.97 Q531.454 202.118 531.454 197.257 L531.454 183.183 L528.329 183.183 L528.329 179.873 L531.454 179.873 L531.454 172.512 L535.736 172.512 Z" fill="#000000" fill-rule="nonzero" fill-opacity="1" /><path clip-path="url(#clip920)" d="M561.894 192.766 Q556.731 192.766 554.741 193.947 Q552.75 195.128 552.75 197.975 Q552.75 200.243 554.232 201.586 Q555.736 202.905 558.306 202.905 Q561.847 202.905 563.977 200.405 Q566.13 197.882 566.13 193.716 L566.13 192.766 L561.894 192.766 M570.389 191.007 L570.389 205.799 L566.13 205.799 L566.13 201.864 Q564.671 204.225 562.495 205.359 Q560.319 206.47 557.171 206.47 Q553.19 206.47 550.829 204.248 Q548.491 202.003 548.491 198.253 Q548.491 193.878 551.407 191.655 Q554.347 189.433 560.157 189.433 L566.13 189.433 L566.13 189.016 Q566.13 186.077 564.185 184.479 Q562.264 182.859 558.769 182.859 Q556.546 182.859 554.44 183.392 Q552.333 183.924 550.389 184.989 L550.389 181.054 Q552.727 180.151 554.926 179.711 Q557.125 179.248 559.208 179.248 Q564.833 179.248 567.611 182.165 Q570.389 185.081 570.389 191.007 Z" fill="#000000" fill-rule="nonzero" fill-opacity="1" /><path clip-path="url(#clip920)" d="M591.176 179.873 L595.69 179.873 L603.791 201.632 L611.893 179.873 L616.407 179.873 L606.685 205.799 L600.898 205.799 L591.176 179.873 Z" fill="#000000" fill-rule="nonzero" fill-opacity="1" /><path clip-path="url(#clip920)" d="M644.463 191.771 L644.463 193.854 L624.879 193.854 Q625.157 198.253 627.518 200.567 Q629.902 202.859 634.138 202.859 Q636.592 202.859 638.884 202.257 Q641.199 201.655 643.467 200.452 L643.467 204.479 Q641.175 205.452 638.768 205.961 Q636.361 206.47 633.884 206.47 Q627.68 206.47 624.046 202.859 Q620.435 199.248 620.435 193.091 Q620.435 186.725 623.861 182.998 Q627.31 179.248 633.143 179.248 Q638.375 179.248 641.407 182.628 Q644.463 185.984 644.463 191.771 M640.203 190.521 Q640.157 187.026 638.236 184.942 Q636.338 182.859 633.189 182.859 Q629.625 182.859 627.472 184.873 Q625.342 186.887 625.018 190.544 L640.203 190.521 Z" fill="#000000" fill-rule="nonzero" fill-opacity="1" /><path clip-path="url(#clip920)" d="M666.476 183.854 Q665.759 183.438 664.902 183.253 Q664.069 183.044 663.05 183.044 Q659.439 183.044 657.495 185.405 Q655.574 187.743 655.574 192.141 L655.574 205.799 L651.291 205.799 L651.291 179.873 L655.574 179.873 L655.574 183.901 Q656.916 181.54 659.069 180.405 Q661.222 179.248 664.3 179.248 Q664.74 179.248 665.273 179.317 Q665.805 179.364 666.453 179.479 L666.476 183.854 Z" fill="#000000" fill-rule="nonzero" fill-opacity="1" /><path clip-path="url(#clip920)" d="M675.157 172.512 L675.157 179.873 L683.93 179.873 L683.93 183.183 L675.157 183.183 L675.157 197.257 Q675.157 200.428 676.013 201.331 Q676.893 202.234 679.555 202.234 L683.93 202.234 L683.93 205.799 L679.555 205.799 Q674.624 205.799 672.749 203.97 Q670.874 202.118 670.874 197.257 L670.874 183.183 L667.749 183.183 L667.749 179.873 L670.874 179.873 L670.874 172.512 L675.157 172.512 Z" fill="#000000" fill-rule="nonzero" fill-opacity="1" /><path clip-path="url(#clip920)" d="M689.532 179.873 L693.791 179.873 L693.791 205.799 L689.532 205.799 L689.532 179.873 M689.532 169.78 L693.791 169.78 L693.791 175.174 L689.532 175.174 L689.532 169.78 Z" fill="#000000" fill-rule="nonzero" fill-opacity="1" /><path clip-path="url(#clip920)" d="M721.36 180.868 L721.36 184.85 Q719.555 183.854 717.726 183.368 Q715.92 182.859 714.069 182.859 Q709.925 182.859 707.633 185.498 Q705.342 188.114 705.342 192.859 Q705.342 197.604 707.633 200.243 Q709.925 202.859 714.069 202.859 Q715.92 202.859 717.726 202.373 Q719.555 201.864 721.36 200.868 L721.36 204.803 Q719.578 205.637 717.657 206.053 Q715.758 206.47 713.606 206.47 Q707.749 206.47 704.3 202.79 Q700.851 199.109 700.851 192.859 Q700.851 186.516 704.323 182.882 Q707.819 179.248 713.883 179.248 Q715.851 179.248 717.726 179.665 Q719.601 180.058 721.36 180.868 Z" fill="#000000" fill-rule="nonzero" fill-opacity="1" /><path clip-path="url(#clip920)" d="M740.55 192.766 Q735.388 192.766 733.397 193.947 Q731.406 195.128 731.406 197.975 Q731.406 200.243 732.888 201.586 Q734.393 202.905 736.962 202.905 Q740.504 202.905 742.633 200.405 Q744.786 197.882 744.786 193.716 L744.786 192.766 L740.55 192.766 M749.045 191.007 L749.045 205.799 L744.786 205.799 L744.786 201.864 Q743.328 204.225 741.152 205.359 Q738.976 206.47 735.828 206.47 Q731.846 206.47 729.485 204.248 Q727.147 202.003 727.147 198.253 Q727.147 193.878 730.064 191.655 Q733.004 189.433 738.814 189.433 L744.786 189.433 L744.786 189.016 Q744.786 186.077 742.842 184.479 Q740.92 182.859 737.425 182.859 Q735.203 182.859 733.096 183.392 Q730.99 183.924 729.045 184.989 L729.045 181.054 Q731.383 180.151 733.582 179.711 Q735.781 179.248 737.865 179.248 Q743.49 179.248 746.268 182.165 Q749.045 185.081 749.045 191.007 Z" fill="#000000" fill-rule="nonzero" fill-opacity="1" /><path clip-path="url(#clip920)" d="M757.818 169.78 L762.078 169.78 L762.078 205.799 L757.818 205.799 L757.818 169.78 Z" fill="#000000" fill-rule="nonzero" fill-opacity="1" /><path clip-path="url(#clip920)" d="M805.482 187.764 Q805.482 189.075 804.663 189.825 Q803.843 190.551 802.906 190.551 Q802.016 190.551 801.547 190.035 Q801.079 189.52 801.079 188.864 Q801.079 187.974 801.735 187.201 Q802.391 186.428 803.374 186.264 Q802.414 185.655 800.985 185.655 Q800.048 185.655 799.229 186.147 Q798.432 186.639 797.94 187.272 Q797.472 187.904 797.05 188.818 Q796.652 189.708 796.488 190.246 Q796.348 190.762 796.23 191.324 L794.591 197.882 Q793.794 200.997 793.794 202.098 Q793.794 203.457 794.45 204.37 Q795.106 205.26 796.418 205.26 Q796.933 205.26 797.519 205.12 Q798.104 204.956 798.854 204.534 Q799.627 204.089 800.306 203.433 Q801.009 202.754 801.688 201.606 Q802.367 200.458 802.812 198.983 Q802.953 198.468 803.421 198.468 Q804.007 198.468 804.007 198.936 Q804.007 199.334 803.679 200.177 Q803.374 200.997 802.695 202.075 Q802.039 203.129 801.173 204.089 Q800.306 205.026 799.018 205.682 Q797.729 206.338 796.324 206.338 Q794.31 206.338 792.975 205.26 Q791.64 204.183 791.148 202.684 Q791.031 202.894 790.867 203.175 Q790.703 203.457 790.211 204.089 Q789.742 204.698 789.204 205.166 Q788.665 205.611 787.822 205.963 Q787.002 206.338 786.112 206.338 Q784.988 206.338 783.98 206.01 Q782.997 205.682 782.294 204.932 Q781.591 204.183 781.591 203.152 Q781.591 202.004 782.364 201.208 Q783.161 200.388 784.238 200.388 Q784.917 200.388 785.456 200.786 Q786.018 201.185 786.018 202.051 Q786.018 203.012 785.362 203.738 Q784.707 204.464 783.77 204.651 Q784.73 205.26 786.159 205.26 Q787.705 205.26 788.923 203.902 Q790.141 202.543 790.726 200.271 Q792.178 194.814 792.74 192.378 Q793.303 189.918 793.303 188.864 Q793.303 187.881 793.045 187.201 Q792.787 186.522 792.342 186.218 Q791.921 185.89 791.523 185.773 Q791.148 185.655 790.726 185.655 Q790.023 185.655 789.227 185.937 Q788.454 186.218 787.517 186.873 Q786.604 187.506 785.737 188.818 Q784.871 190.129 784.285 191.933 Q784.168 192.471 783.653 192.471 Q783.09 192.448 783.09 191.98 Q783.09 191.581 783.395 190.762 Q783.723 189.918 784.379 188.864 Q785.058 187.81 785.925 186.873 Q786.815 185.913 788.103 185.257 Q789.415 184.601 790.82 184.601 Q791.452 184.601 792.061 184.742 Q792.694 184.859 793.443 185.21 Q794.216 185.562 794.895 186.335 Q795.575 187.108 795.996 188.232 Q796.277 187.693 796.652 187.178 Q797.05 186.663 797.659 186.03 Q798.292 185.374 799.158 185 Q800.048 184.601 801.032 184.601 Q801.992 184.601 802.929 184.859 Q803.866 185.093 804.663 185.866 Q805.482 186.616 805.482 187.764 Z" fill="#000000" fill-rule="nonzero" fill-opacity="1" /><path clip-path="url(#clip920)" d="M822.063 198.514 Q822.11 197.929 823.023 197.929 L852.418 197.929 Q853.8 197.929 853.823 198.468 Q853.823 199.053 852.512 199.03 L823.351 199.03 Q822.063 199.053 822.063 198.514 M822.063 189.145 Q822.063 188.56 823.07 188.583 L852.371 188.583 Q853.8 188.583 853.823 189.145 Q853.823 189.684 852.606 189.684 L823.023 189.684 Q822.063 189.684 822.063 189.145 Z" fill="#000000" fill-rule="nonzero" fill-opacity="1" /><path clip-path="url(#clip920)" d="M872.323 199.334 Q872.323 197.905 873.143 197.226 Q873.962 196.547 875.016 196.547 Q876.117 196.547 876.89 197.273 Q877.687 197.976 877.687 199.217 Q877.687 200.552 876.75 201.302 Q875.836 202.051 874.525 201.864 Q875.672 203.784 877.78 204.651 Q879.912 205.518 881.879 205.518 Q883.94 205.518 885.603 203.738 Q887.29 201.958 887.29 197.601 Q887.29 193.9 885.838 191.769 Q884.409 189.637 881.575 189.637 L879.467 189.637 Q878.741 189.637 878.53 189.567 Q878.319 189.497 878.319 189.099 Q878.319 188.63 879.045 188.536 Q879.771 188.536 880.919 188.396 Q883.706 188.302 885.182 185.89 Q886.517 183.641 886.517 180.432 Q886.517 177.504 885.111 176.287 Q883.73 175.045 881.926 175.045 Q880.24 175.045 878.389 175.748 Q876.539 176.45 875.532 178.02 Q878.506 178.02 878.506 180.432 Q878.506 181.486 877.827 182.189 Q877.171 182.868 876.07 182.868 Q875.016 182.868 874.314 182.212 Q873.611 181.533 873.611 180.385 Q873.611 177.645 876.047 175.748 Q878.506 173.851 882.113 173.851 Q885.674 173.851 888.297 175.724 Q890.944 177.598 890.944 180.479 Q890.944 183.313 889.07 185.632 Q887.196 187.951 884.221 188.911 Q887.875 189.637 890.054 192.12 Q892.232 194.579 892.232 197.601 Q892.232 201.349 889.281 204.112 Q886.329 206.853 882.02 206.853 Q878.038 206.853 875.18 204.698 Q872.323 202.543 872.323 199.334 Z" fill="#000000" fill-rule="nonzero" fill-opacity="1" /></svg>
