<?xml version="1.0" encoding="utf-8"?>
<svg xmlns="http://www.w3.org/2000/svg" xmlns:xlink="http://www.w3.org/1999/xlink" width="528" height="336" viewBox="0 0 2112 1344">
<defs>
  <clipPath id="clip940">
    <rect x="0" y="0" width="2112" height="1344"/>
  </clipPath>
</defs>
<path clip-path="url(#clip940)" d="M0 1344 L2112 1344 L2112 0 L0 0  Z" fill="#ffffff" fill-rule="evenodd" fill-opacity="1"/>
<defs>
  <clipPath id="clip941">
    <rect x="422" y="0" width="1479" height="1344"/>
  </clipPath>
</defs>
<path clip-path="url(#clip940)" d="M191.218 1234.58 L2064.76 1234.58 L2064.76 47.2441 L191.218 47.2441  Z" fill="#ffffff" fill-rule="evenodd" fill-opacity="1"/>
<defs>
  <clipPath id="clip942">
    <rect x="191" y="47" width="1875" height="1188"/>
  </clipPath>
</defs>
<polyline clip-path="url(#clip942)" style="stroke:#000000; stroke-linecap:round; stroke-linejoin:round; stroke-width:2; stroke-opacity:0.1; fill:none" points="420.992,1234.58 420.992,47.2441 "/>
<polyline clip-path="url(#clip942)" style="stroke:#000000; stroke-linecap:round; stroke-linejoin:round; stroke-width:2; stroke-opacity:0.1; fill:none" points="774.489,1234.58 774.489,47.2441 "/>
<polyline clip-path="url(#clip942)" style="stroke:#000000; stroke-linecap:round; stroke-linejoin:round; stroke-width:2; stroke-opacity:0.1; fill:none" points="1127.99,1234.58 1127.99,47.2441 "/>
<polyline clip-path="url(#clip942)" style="stroke:#000000; stroke-linecap:round; stroke-linejoin:round; stroke-width:2; stroke-opacity:0.1; fill:none" points="1481.48,1234.58 1481.48,47.2441 "/>
<polyline clip-path="url(#clip942)" style="stroke:#000000; stroke-linecap:round; stroke-linejoin:round; stroke-width:2; stroke-opacity:0.1; fill:none" points="1834.98,1234.58 1834.98,47.2441 "/>
<polyline clip-path="url(#clip940)" style="stroke:#000000; stroke-linecap:round; stroke-linejoin:round; stroke-width:4; stroke-opacity:1; fill:none" points="191.218,1234.58 2064.76,1234.58 "/>
<polyline clip-path="url(#clip940)" style="stroke:#000000; stroke-linecap:round; stroke-linejoin:round; stroke-width:4; stroke-opacity:1; fill:none" points="420.992,1234.58 420.992,1215.68 "/>
<polyline clip-path="url(#clip940)" style="stroke:#000000; stroke-linecap:round; stroke-linejoin:round; stroke-width:4; stroke-opacity:1; fill:none" points="774.489,1234.58 774.489,1215.68 "/>
<polyline clip-path="url(#clip940)" style="stroke:#000000; stroke-linecap:round; stroke-linejoin:round; stroke-width:4; stroke-opacity:1; fill:none" points="1127.99,1234.58 1127.99,1215.68 "/>
<polyline clip-path="url(#clip940)" style="stroke:#000000; stroke-linecap:round; stroke-linejoin:round; stroke-width:4; stroke-opacity:1; fill:none" points="1481.48,1234.58 1481.48,1215.68 "/>
<polyline clip-path="url(#clip940)" style="stroke:#000000; stroke-linecap:round; stroke-linejoin:round; stroke-width:4; stroke-opacity:1; fill:none" points="1834.98,1234.58 1834.98,1215.68 "/>
<path clip-path="url(#clip940)" d="M389.892 1277.85 L419.568 1277.85 L419.568 1281.78 L389.892 1281.78 L389.892 1277.85 Z" fill="#000000" fill-rule="nonzero" fill-opacity="1" /><path clip-path="url(#clip940)" d="M442.508 1264.19 L430.702 1282.64 L442.508 1282.64 L442.508 1264.19 M441.281 1260.11 L447.16 1260.11 L447.16 1282.64 L452.091 1282.64 L452.091 1286.53 L447.16 1286.53 L447.16 1294.67 L442.508 1294.67 L442.508 1286.53 L426.906 1286.53 L426.906 1282.01 L441.281 1260.11 Z" fill="#000000" fill-rule="nonzero" fill-opacity="1" /><path clip-path="url(#clip940)" d="M744.432 1277.85 L774.107 1277.85 L774.107 1281.78 L744.432 1281.78 L744.432 1277.85 Z" fill="#000000" fill-rule="nonzero" fill-opacity="1" /><path clip-path="url(#clip940)" d="M788.228 1290.74 L804.547 1290.74 L804.547 1294.67 L782.603 1294.67 L782.603 1290.74 Q785.265 1287.99 789.848 1283.36 Q794.454 1278.7 795.635 1277.36 Q797.88 1274.84 798.76 1273.1 Q799.663 1271.34 799.663 1269.65 Q799.663 1266.9 797.718 1265.16 Q795.797 1263.42 792.695 1263.42 Q790.496 1263.42 788.042 1264.19 Q785.612 1264.95 782.834 1266.5 L782.834 1261.78 Q785.658 1260.65 788.112 1260.07 Q790.566 1259.49 792.603 1259.49 Q797.973 1259.49 801.167 1262.17 Q804.362 1264.86 804.362 1269.35 Q804.362 1271.48 803.552 1273.4 Q802.765 1275.3 800.658 1277.89 Q800.079 1278.56 796.978 1281.78 Q793.876 1284.98 788.228 1290.74 Z" fill="#000000" fill-rule="nonzero" fill-opacity="1" /><path clip-path="url(#clip940)" d="M1127.99 1263.19 Q1124.38 1263.19 1122.55 1266.76 Q1120.74 1270.3 1120.74 1277.43 Q1120.74 1284.54 1122.55 1288.1 Q1124.38 1291.64 1127.99 1291.64 Q1131.62 1291.64 1133.43 1288.1 Q1135.26 1284.54 1135.26 1277.43 Q1135.26 1270.3 1133.43 1266.76 Q1131.62 1263.19 1127.99 1263.19 M1127.99 1259.49 Q1133.8 1259.49 1136.85 1264.1 Q1139.93 1268.68 1139.93 1277.43 Q1139.93 1286.16 1136.85 1290.76 Q1133.8 1295.35 1127.99 1295.35 Q1122.18 1295.35 1119.1 1290.76 Q1116.04 1286.16 1116.04 1277.43 Q1116.04 1268.68 1119.1 1264.1 Q1122.18 1259.49 1127.99 1259.49 Z" fill="#000000" fill-rule="nonzero" fill-opacity="1" /><path clip-path="url(#clip940)" d="M1476.14 1290.74 L1492.46 1290.74 L1492.46 1294.67 L1470.51 1294.67 L1470.51 1290.74 Q1473.17 1287.99 1477.76 1283.36 Q1482.36 1278.7 1483.54 1277.36 Q1485.79 1274.84 1486.67 1273.1 Q1487.57 1271.34 1487.57 1269.65 Q1487.57 1266.9 1485.63 1265.16 Q1483.71 1263.42 1480.61 1263.42 Q1478.41 1263.42 1475.95 1264.19 Q1473.52 1264.95 1470.74 1266.5 L1470.74 1261.78 Q1473.57 1260.65 1476.02 1260.07 Q1478.48 1259.49 1480.51 1259.49 Q1485.88 1259.49 1489.08 1262.17 Q1492.27 1264.86 1492.27 1269.35 Q1492.27 1271.48 1491.46 1273.4 Q1490.67 1275.3 1488.57 1277.89 Q1487.99 1278.56 1484.89 1281.78 Q1481.79 1284.98 1476.14 1290.74 Z" fill="#000000" fill-rule="nonzero" fill-opacity="1" /><path clip-path="url(#clip940)" d="M1837.99 1264.19 L1826.19 1282.64 L1837.99 1282.64 L1837.99 1264.19 M1836.76 1260.11 L1842.64 1260.11 L1842.64 1282.64 L1847.57 1282.64 L1847.57 1286.53 L1842.64 1286.53 L1842.64 1294.67 L1837.99 1294.67 L1837.99 1286.53 L1822.39 1286.53 L1822.39 1282.01 L1836.76 1260.11 Z" fill="#000000" fill-rule="nonzero" fill-opacity="1" /><polyline clip-path="url(#clip942)" style="stroke:#000000; stroke-linecap:round; stroke-linejoin:round; stroke-width:2; stroke-opacity:0.1; fill:none" points="191.218,1108.95 2064.76,1108.95 "/>
<polyline clip-path="url(#clip942)" style="stroke:#000000; stroke-linecap:round; stroke-linejoin:round; stroke-width:2; stroke-opacity:0.1; fill:none" points="191.218,832.871 2064.76,832.871 "/>
<polyline clip-path="url(#clip942)" style="stroke:#000000; stroke-linecap:round; stroke-linejoin:round; stroke-width:2; stroke-opacity:0.1; fill:none" points="191.218,556.792 2064.76,556.792 "/>
<polyline clip-path="url(#clip942)" style="stroke:#000000; stroke-linecap:round; stroke-linejoin:round; stroke-width:2; stroke-opacity:0.1; fill:none" points="191.218,280.712 2064.76,280.712 "/>
<polyline clip-path="url(#clip940)" style="stroke:#000000; stroke-linecap:round; stroke-linejoin:round; stroke-width:4; stroke-opacity:1; fill:none" points="191.218,1234.58 191.218,47.2441 "/>
<polyline clip-path="url(#clip940)" style="stroke:#000000; stroke-linecap:round; stroke-linejoin:round; stroke-width:4; stroke-opacity:1; fill:none" points="191.218,1108.95 210.116,1108.95 "/>
<polyline clip-path="url(#clip940)" style="stroke:#000000; stroke-linecap:round; stroke-linejoin:round; stroke-width:4; stroke-opacity:1; fill:none" points="191.218,832.871 210.116,832.871 "/>
<polyline clip-path="url(#clip940)" style="stroke:#000000; stroke-linecap:round; stroke-linejoin:round; stroke-width:4; stroke-opacity:1; fill:none" points="191.218,556.792 210.116,556.792 "/>
<polyline clip-path="url(#clip940)" style="stroke:#000000; stroke-linecap:round; stroke-linejoin:round; stroke-width:4; stroke-opacity:1; fill:none" points="191.218,280.712 210.116,280.712 "/>
<path clip-path="url(#clip940)" d="M52.7793 1109.4 L82.4551 1109.4 L82.4551 1113.34 L52.7793 1113.34 L52.7793 1109.4 Z" fill="#000000" fill-rule="nonzero" fill-opacity="1" /><path clip-path="url(#clip940)" d="M102.548 1094.75 Q98.9365 1094.75 97.1078 1098.31 Q95.3023 1101.86 95.3023 1108.99 Q95.3023 1116.09 97.1078 1119.66 Q98.9365 1123.2 102.548 1123.2 Q106.182 1123.2 107.987 1119.66 Q109.816 1116.09 109.816 1108.99 Q109.816 1101.86 107.987 1098.31 Q106.182 1094.75 102.548 1094.75 M102.548 1091.05 Q108.358 1091.05 111.413 1095.65 Q114.492 1100.24 114.492 1108.99 Q114.492 1117.71 111.413 1122.32 Q108.358 1126.9 102.548 1126.9 Q96.7374 1126.9 93.6588 1122.32 Q90.6032 1117.71 90.6032 1108.99 Q90.6032 1100.24 93.6588 1095.65 Q96.7374 1091.05 102.548 1091.05 Z" fill="#000000" fill-rule="nonzero" fill-opacity="1" /><path clip-path="url(#clip940)" d="M122.71 1120.35 L127.594 1120.35 L127.594 1126.23 L122.71 1126.23 L122.71 1120.35 Z" fill="#000000" fill-rule="nonzero" fill-opacity="1" /><path clip-path="url(#clip940)" d="M137.918 1125.51 L137.918 1121.25 Q139.677 1122.09 141.483 1122.53 Q143.288 1122.97 145.024 1122.97 Q149.654 1122.97 152.084 1119.87 Q154.538 1116.74 154.885 1110.4 Q153.543 1112.39 151.483 1113.45 Q149.422 1114.52 146.922 1114.52 Q141.737 1114.52 138.705 1111.39 Q135.696 1108.24 135.696 1102.81 Q135.696 1097.48 138.844 1094.26 Q141.992 1091.05 147.223 1091.05 Q153.219 1091.05 156.367 1095.65 Q159.538 1100.24 159.538 1108.99 Q159.538 1117.16 155.649 1122.04 Q151.783 1126.9 145.233 1126.9 Q143.473 1126.9 141.668 1126.55 Q139.862 1126.21 137.918 1125.51 M147.223 1110.86 Q150.371 1110.86 152.2 1108.71 Q154.052 1106.55 154.052 1102.81 Q154.052 1099.08 152.2 1096.93 Q150.371 1094.75 147.223 1094.75 Q144.075 1094.75 142.223 1096.93 Q140.395 1099.08 140.395 1102.81 Q140.395 1106.55 142.223 1108.71 Q144.075 1110.86 147.223 1110.86 Z" fill="#000000" fill-rule="nonzero" fill-opacity="1" /><path clip-path="url(#clip940)" d="M52.4321 833.323 L82.1079 833.323 L82.1079 837.258 L52.4321 837.258 L52.4321 833.323 Z" fill="#000000" fill-rule="nonzero" fill-opacity="1" /><path clip-path="url(#clip940)" d="M102.2 818.67 Q98.5893 818.67 96.7606 822.235 Q94.955 825.776 94.955 832.906 Q94.955 840.012 96.7606 843.577 Q98.5893 847.119 102.2 847.119 Q105.835 847.119 107.64 843.577 Q109.469 840.012 109.469 832.906 Q109.469 825.776 107.64 822.235 Q105.835 818.67 102.2 818.67 M102.2 814.966 Q108.011 814.966 111.066 819.573 Q114.145 824.156 114.145 832.906 Q114.145 841.633 111.066 846.239 Q108.011 850.823 102.2 850.823 Q96.3902 850.823 93.3115 846.239 Q90.256 841.633 90.256 832.906 Q90.256 824.156 93.3115 819.573 Q96.3902 814.966 102.2 814.966 Z" fill="#000000" fill-rule="nonzero" fill-opacity="1" /><path clip-path="url(#clip940)" d="M122.362 844.272 L127.247 844.272 L127.247 850.151 L122.362 850.151 L122.362 844.272 Z" fill="#000000" fill-rule="nonzero" fill-opacity="1" /><path clip-path="url(#clip940)" d="M148.01 831.008 Q144.862 831.008 143.01 833.161 Q141.182 835.313 141.182 839.063 Q141.182 842.79 143.01 844.966 Q144.862 847.119 148.01 847.119 Q151.158 847.119 152.987 844.966 Q154.839 842.79 154.839 839.063 Q154.839 835.313 152.987 833.161 Q151.158 831.008 148.01 831.008 M157.293 816.355 L157.293 820.614 Q155.533 819.781 153.728 819.341 Q151.945 818.902 150.186 818.902 Q145.557 818.902 143.103 822.026 Q140.672 825.151 140.325 831.471 Q141.691 829.457 143.751 828.392 Q145.811 827.304 148.288 827.304 Q153.496 827.304 156.506 830.476 Q159.538 833.624 159.538 839.063 Q159.538 844.387 156.39 847.605 Q153.242 850.823 148.01 850.823 Q142.015 850.823 138.844 846.239 Q135.672 841.633 135.672 832.906 Q135.672 824.712 139.561 819.851 Q143.45 814.966 150.001 814.966 Q151.76 814.966 153.543 815.314 Q155.348 815.661 157.293 816.355 Z" fill="#000000" fill-rule="nonzero" fill-opacity="1" /><path clip-path="url(#clip940)" d="M53.2423 557.243 L82.9181 557.243 L82.9181 561.178 L53.2423 561.178 L53.2423 557.243 Z" fill="#000000" fill-rule="nonzero" fill-opacity="1" /><path clip-path="url(#clip940)" d="M103.011 542.591 Q99.3995 542.591 97.5708 546.155 Q95.7652 549.697 95.7652 556.827 Q95.7652 563.933 97.5708 567.498 Q99.3995 571.039 103.011 571.039 Q106.645 571.039 108.45 567.498 Q110.279 563.933 110.279 556.827 Q110.279 549.697 108.45 546.155 Q106.645 542.591 103.011 542.591 M103.011 538.887 Q108.821 538.887 111.876 543.493 Q114.955 548.077 114.955 556.827 Q114.955 565.553 111.876 570.16 Q108.821 574.743 103.011 574.743 Q97.2004 574.743 94.1217 570.16 Q91.0662 565.553 91.0662 556.827 Q91.0662 548.077 94.1217 543.493 Q97.2004 538.887 103.011 538.887 Z" fill="#000000" fill-rule="nonzero" fill-opacity="1" /><path clip-path="url(#clip940)" d="M123.172 568.192 L128.057 568.192 L128.057 574.072 L123.172 574.072 L123.172 568.192 Z" fill="#000000" fill-rule="nonzero" fill-opacity="1" /><path clip-path="url(#clip940)" d="M152.408 555.438 Q155.765 556.155 157.64 558.424 Q159.538 560.692 159.538 564.026 Q159.538 569.141 156.02 571.942 Q152.501 574.743 146.02 574.743 Q143.844 574.743 141.529 574.303 Q139.237 573.887 136.784 573.03 L136.784 568.516 Q138.728 569.651 141.043 570.229 Q143.358 570.808 145.881 570.808 Q150.279 570.808 152.57 569.072 Q154.885 567.336 154.885 564.026 Q154.885 560.97 152.733 559.257 Q150.603 557.521 146.783 557.521 L142.756 557.521 L142.756 553.678 L146.969 553.678 Q150.418 553.678 152.246 552.313 Q154.075 550.924 154.075 548.331 Q154.075 545.669 152.177 544.257 Q150.302 542.822 146.783 542.822 Q144.862 542.822 142.663 543.239 Q140.464 543.655 137.825 544.535 L137.825 540.368 Q140.487 539.628 142.802 539.257 Q145.14 538.887 147.2 538.887 Q152.524 538.887 155.626 541.317 Q158.728 543.725 158.728 547.845 Q158.728 550.716 157.084 552.706 Q155.441 554.674 152.408 555.438 Z" fill="#000000" fill-rule="nonzero" fill-opacity="1" /><path clip-path="url(#clip940)" d="M102.362 266.511 Q98.7513 266.511 96.9226 270.076 Q95.1171 273.618 95.1171 280.747 Q95.1171 287.854 96.9226 291.418 Q98.7513 294.96 102.362 294.96 Q105.997 294.96 107.802 291.418 Q109.631 287.854 109.631 280.747 Q109.631 273.618 107.802 270.076 Q105.997 266.511 102.362 266.511 M102.362 262.807 Q108.173 262.807 111.228 267.414 Q114.307 271.997 114.307 280.747 Q114.307 289.474 111.228 294.08 Q108.173 298.664 102.362 298.664 Q96.5523 298.664 93.4736 294.08 Q90.418 289.474 90.418 280.747 Q90.418 271.997 93.4736 267.414 Q96.5523 262.807 102.362 262.807 Z" fill="#000000" fill-rule="nonzero" fill-opacity="1" /><path clip-path="url(#clip940)" d="M122.524 292.113 L127.409 292.113 L127.409 297.992 L122.524 297.992 L122.524 292.113 Z" fill="#000000" fill-rule="nonzero" fill-opacity="1" /><path clip-path="url(#clip940)" d="M147.594 266.511 Q143.983 266.511 142.154 270.076 Q140.348 273.618 140.348 280.747 Q140.348 287.854 142.154 291.418 Q143.983 294.96 147.594 294.96 Q151.228 294.96 153.033 291.418 Q154.862 287.854 154.862 280.747 Q154.862 273.618 153.033 270.076 Q151.228 266.511 147.594 266.511 M147.594 262.807 Q153.404 262.807 156.459 267.414 Q159.538 271.997 159.538 280.747 Q159.538 289.474 156.459 294.08 Q153.404 298.664 147.594 298.664 Q141.783 298.664 138.705 294.08 Q135.649 289.474 135.649 280.747 Q135.649 271.997 138.705 267.414 Q141.783 262.807 147.594 262.807 Z" fill="#000000" fill-rule="nonzero" fill-opacity="1" /><polyline clip-path="url(#clip942)" style="stroke:#009af9; stroke-linecap:round; stroke-linejoin:round; stroke-width:4; stroke-opacity:1; fill:none" points="244.243,320.44 249.996,316.224 255.75,311.928 308.951,269.083 362.152,222.968 394.123,195.243 426.095,168.589 453.126,147.563 480.158,128.509 494.84,119.179 509.522,110.676 524.203,103.081 538.885,96.4749 552.421,91.3261 565.956,87.1394 579.492,83.9687 593.027,81.8649 607.538,80.8479 622.05,81.1647 636.561,82.8631 651.073,85.9854 667.885,91.4307 684.698,98.8813 701.511,108.371 718.324,119.921 733.265,131.923 748.207,145.556 763.148,160.812 778.089,177.67 791.191,193.752 804.293,211.022 817.396,229.454 830.498,249.013 844.783,271.578 859.068,295.384 873.352,320.369 887.637,346.467 902.007,373.767 916.377,402.039 930.747,431.195 945.116,461.146 976.892,529.714 1008.67,600.592 1038.9,669.094 1069.13,737.551 1100.57,807.513 1132,875.021 1145.24,902.409 1158.47,929.06 1171.7,954.889 1184.93,979.813 1201.08,1008.9 1217.24,1036.37 1233.39,1062.1 1249.54,1085.95 1264.34,1106.06 1279.14,1124.42 1293.94,1140.95 1308.73,1155.58 1322.4,1167.35 1336.07,1177.41 1349.74,1185.72 1363.4,1192.25 1377.25,1197.03 1391.09,1199.94 1404.93,1200.97 1418.78,1200.13 1434.29,1196.95 1449.81,1191.42 1465.32,1183.58 1480.84,1173.45 1494.9,1162.34 1508.96,1149.44 1523.02,1134.79 1537.08,1118.45 1553.17,1097.75 1569.27,1075.02 1585.37,1050.36 1601.47,1023.9 1616.37,997.905 1631.28,970.586 1646.18,942.053 1661.08,912.423 1690.47,851.262 1719.86,787.276 1748.39,723.388 1776.93,658.692 1806.18,592.488 1835.43,527.355 1851.45,492.463 1867.48,458.312 1883.5,425.042 1899.52,392.784 1922.8,347.979 1946.08,305.918 1969.35,266.912 1992.63,231.23 1997.41,224.341 2002.18,217.604 2006.96,211.019 2011.73,204.588 "/>
<path clip-path="url(#clip940)" d="M253.669 1195 L493.453 1195 L493.453 1091.32 L253.669 1091.32  Z" fill="#ffffff" fill-rule="evenodd" fill-opacity="1"/>
<polyline clip-path="url(#clip940)" style="stroke:#000000; stroke-linecap:round; stroke-linejoin:round; stroke-width:4; stroke-opacity:1; fill:none" points="253.669,1195 493.453,1195 493.453,1091.32 253.669,1091.32 253.669,1195 "/>
<polyline clip-path="url(#clip940)" style="stroke:#009af9; stroke-linecap:round; stroke-linejoin:round; stroke-width:4; stroke-opacity:1; fill:none" points="274.486,1143.16 399.389,1143.16 "/>
<path clip-path="url(#clip940)" d="M434.049 1162.85 Q432.243 1167.48 430.53 1168.89 Q428.817 1170.3 425.947 1170.3 L422.544 1170.3 L422.544 1166.74 L425.044 1166.74 Q426.803 1166.74 427.775 1165.9 Q428.748 1165.07 429.928 1161.97 L430.692 1160.02 L420.206 1134.52 L424.72 1134.52 L432.822 1154.79 L440.923 1134.52 L445.437 1134.52 L434.049 1162.85 Z" fill="#000000" fill-rule="nonzero" fill-opacity="1" /><path clip-path="url(#clip940)" d="M452.729 1156.51 L460.368 1156.51 L460.368 1130.14 L452.058 1131.81 L452.058 1127.55 L460.322 1125.88 L464.997 1125.88 L464.997 1156.51 L472.636 1156.51 L472.636 1160.44 L452.729 1160.44 L452.729 1156.51 Z" fill="#000000" fill-rule="nonzero" fill-opacity="1" /></svg>
