<?xml version="1.0" encoding="utf-8"?>
<svg xmlns="http://www.w3.org/2000/svg" xmlns:xlink="http://www.w3.org/1999/xlink" width="672" height="480" viewBox="0 0 2688 1920">
<defs>
  <clipPath id="clip820">
    <rect x="0" y="0" width="2688" height="1920"/>
  </clipPath>
</defs>
<path clip-path="url(#clip820)" d="
M0 1920 L2688 1920 L2688 0 L0 0  Z
  " fill="#ffffff" fill-rule="evenodd" fill-opacity="1"/>
<defs>
  <clipPath id="clip821">
    <rect x="537" y="0" width="1883" height="1883"/>
  </clipPath>
</defs>
<path clip-path="url(#clip820)" d="
M189.154 1800.78 L2640.76 1800.78 L2640.76 47.2441 L189.154 47.2441  Z
  " fill="#ffffff" fill-rule="evenodd" fill-opacity="1"/>
<defs>
  <clipPath id="clip822">
    <rect x="189" y="47" width="2453" height="1755"/>
  </clipPath>
</defs>
<polyline clip-path="url(#clip822)" style="stroke:#000000; stroke-linecap:round; stroke-linejoin:round; stroke-width:2; stroke-opacity:0.1; fill:none" points="
  587.816,1800.78 587.816,47.2441 
  "/>
<polyline clip-path="url(#clip822)" style="stroke:#000000; stroke-linecap:round; stroke-linejoin:round; stroke-width:2; stroke-opacity:0.1; fill:none" points="
  1001.39,1800.78 1001.39,47.2441 
  "/>
<polyline clip-path="url(#clip822)" style="stroke:#000000; stroke-linecap:round; stroke-linejoin:round; stroke-width:2; stroke-opacity:0.1; fill:none" points="
  1414.95,1800.78 1414.95,47.2441 
  "/>
<polyline clip-path="url(#clip822)" style="stroke:#000000; stroke-linecap:round; stroke-linejoin:round; stroke-width:2; stroke-opacity:0.1; fill:none" points="
  1828.52,1800.78 1828.52,47.2441 
  "/>
<polyline clip-path="url(#clip822)" style="stroke:#000000; stroke-linecap:round; stroke-linejoin:round; stroke-width:2; stroke-opacity:0.1; fill:none" points="
  2242.09,1800.78 2242.09,47.2441 
  "/>
<polyline clip-path="url(#clip820)" style="stroke:#000000; stroke-linecap:round; stroke-linejoin:round; stroke-width:4; stroke-opacity:1; fill:none" points="
  189.154,1800.78 2640.76,1800.78 
  "/>
<polyline clip-path="url(#clip820)" style="stroke:#000000; stroke-linecap:round; stroke-linejoin:round; stroke-width:4; stroke-opacity:1; fill:none" points="
  587.816,1800.78 587.816,1781.88 
  "/>
<polyline clip-path="url(#clip820)" style="stroke:#000000; stroke-linecap:round; stroke-linejoin:round; stroke-width:4; stroke-opacity:1; fill:none" points="
  1001.39,1800.78 1001.39,1781.88 
  "/>
<polyline clip-path="url(#clip820)" style="stroke:#000000; stroke-linecap:round; stroke-linejoin:round; stroke-width:4; stroke-opacity:1; fill:none" points="
  1414.95,1800.78 1414.95,1781.88 
  "/>
<polyline clip-path="url(#clip820)" style="stroke:#000000; stroke-linecap:round; stroke-linejoin:round; stroke-width:4; stroke-opacity:1; fill:none" points="
  1828.52,1800.78 1828.52,1781.88 
  "/>
<polyline clip-path="url(#clip820)" style="stroke:#000000; stroke-linecap:round; stroke-linejoin:round; stroke-width:4; stroke-opacity:1; fill:none" points="
  2242.09,1800.78 2242.09,1781.88 
  "/>
<path clip-path="url(#clip820)" d="M539.888 1861.55 L547.527 1861.55 L547.527 1835.18 L539.216 1836.85 L539.216 1832.59 L547.48 1830.92 L552.156 1830.92 L552.156 1861.55 L559.795 1861.55 L559.795 1865.48 L539.888 1865.48 L539.888 1861.55 Z" fill="#000000" fill-rule="evenodd" fill-opacity="1" /><path clip-path="url(#clip820)" d="M569.239 1859.6 L574.124 1859.6 L574.124 1865.48 L569.239 1865.48 L569.239 1859.6 Z" fill="#000000" fill-rule="evenodd" fill-opacity="1" /><path clip-path="url(#clip820)" d="M594.309 1834 Q590.698 1834 588.869 1837.57 Q587.063 1841.11 587.063 1848.24 Q587.063 1855.34 588.869 1858.91 Q590.698 1862.45 594.309 1862.45 Q597.943 1862.45 599.749 1858.91 Q601.577 1855.34 601.577 1848.24 Q601.577 1841.11 599.749 1837.57 Q597.943 1834 594.309 1834 M594.309 1830.3 Q600.119 1830.3 603.174 1834.9 Q606.253 1839.49 606.253 1848.24 Q606.253 1856.96 603.174 1861.57 Q600.119 1866.15 594.309 1866.15 Q588.499 1866.15 585.42 1861.57 Q582.364 1856.96 582.364 1848.24 Q582.364 1839.49 585.42 1834.9 Q588.499 1830.3 594.309 1830.3 Z" fill="#000000" fill-rule="evenodd" fill-opacity="1" /><path clip-path="url(#clip820)" d="M624.471 1834 Q620.86 1834 619.031 1837.57 Q617.225 1841.11 617.225 1848.24 Q617.225 1855.34 619.031 1858.91 Q620.86 1862.45 624.471 1862.45 Q628.105 1862.45 629.91 1858.91 Q631.739 1855.34 631.739 1848.24 Q631.739 1841.11 629.91 1837.57 Q628.105 1834 624.471 1834 M624.471 1830.3 Q630.281 1830.3 633.336 1834.9 Q636.415 1839.49 636.415 1848.24 Q636.415 1856.96 633.336 1861.57 Q630.281 1866.15 624.471 1866.15 Q618.66 1866.15 615.582 1861.57 Q612.526 1856.96 612.526 1848.24 Q612.526 1839.49 615.582 1834.9 Q618.66 1830.3 624.471 1830.3 Z" fill="#000000" fill-rule="evenodd" fill-opacity="1" /><path clip-path="url(#clip820)" d="M953.955 1861.55 L961.594 1861.55 L961.594 1835.18 L953.284 1836.85 L953.284 1832.59 L961.548 1830.92 L966.223 1830.92 L966.223 1861.55 L973.862 1861.55 L973.862 1865.48 L953.955 1865.48 L953.955 1861.55 Z" fill="#000000" fill-rule="evenodd" fill-opacity="1" /><path clip-path="url(#clip820)" d="M983.307 1859.6 L988.191 1859.6 L988.191 1865.48 L983.307 1865.48 L983.307 1859.6 Z" fill="#000000" fill-rule="evenodd" fill-opacity="1" /><path clip-path="url(#clip820)" d="M1002.4 1861.55 L1018.72 1861.55 L1018.72 1865.48 L996.779 1865.48 L996.779 1861.55 Q999.441 1858.79 1004.02 1854.16 Q1008.63 1849.51 1009.81 1848.17 Q1012.06 1845.65 1012.94 1843.91 Q1013.84 1842.15 1013.84 1840.46 Q1013.84 1837.71 1011.89 1835.97 Q1009.97 1834.23 1006.87 1834.23 Q1004.67 1834.23 1002.22 1835 Q999.788 1835.76 997.01 1837.31 L997.01 1832.59 Q999.834 1831.46 1002.29 1830.88 Q1004.74 1830.3 1006.78 1830.3 Q1012.15 1830.3 1015.34 1832.98 Q1018.54 1835.67 1018.54 1840.16 Q1018.54 1842.29 1017.73 1844.21 Q1016.94 1846.11 1014.83 1848.7 Q1014.26 1849.37 1011.15 1852.59 Q1008.05 1855.78 1002.4 1861.55 Z" fill="#000000" fill-rule="evenodd" fill-opacity="1" /><path clip-path="url(#clip820)" d="M1028.58 1830.92 L1046.94 1830.92 L1046.94 1834.86 L1032.87 1834.86 L1032.87 1843.33 Q1033.89 1842.98 1034.9 1842.82 Q1035.92 1842.64 1036.94 1842.64 Q1042.73 1842.64 1046.11 1845.81 Q1049.49 1848.98 1049.49 1854.4 Q1049.49 1859.97 1046.01 1863.08 Q1042.54 1866.15 1036.22 1866.15 Q1034.05 1866.15 1031.78 1865.78 Q1029.53 1865.41 1027.13 1864.67 L1027.13 1859.97 Q1029.21 1861.11 1031.43 1861.66 Q1033.65 1862.22 1036.13 1862.22 Q1040.14 1862.22 1042.47 1860.11 Q1044.81 1858.01 1044.81 1854.4 Q1044.81 1850.78 1042.47 1848.68 Q1040.14 1846.57 1036.13 1846.57 Q1034.26 1846.57 1032.38 1846.99 Q1030.53 1847.4 1028.58 1848.28 L1028.58 1830.92 Z" fill="#000000" fill-rule="evenodd" fill-opacity="1" /><path clip-path="url(#clip820)" d="M1367.03 1861.55 L1374.67 1861.55 L1374.67 1835.18 L1366.36 1836.85 L1366.36 1832.59 L1374.62 1830.92 L1379.3 1830.92 L1379.3 1861.55 L1386.93 1861.55 L1386.93 1865.48 L1367.03 1865.48 L1367.03 1861.55 Z" fill="#000000" fill-rule="evenodd" fill-opacity="1" /><path clip-path="url(#clip820)" d="M1396.38 1859.6 L1401.26 1859.6 L1401.26 1865.48 L1396.38 1865.48 L1396.38 1859.6 Z" fill="#000000" fill-rule="evenodd" fill-opacity="1" /><path clip-path="url(#clip820)" d="M1411.49 1830.92 L1429.85 1830.92 L1429.85 1834.86 L1415.78 1834.86 L1415.78 1843.33 Q1416.8 1842.98 1417.81 1842.82 Q1418.83 1842.64 1419.85 1842.64 Q1425.64 1842.64 1429.02 1845.81 Q1432.4 1848.98 1432.4 1854.4 Q1432.4 1859.97 1428.92 1863.08 Q1425.45 1866.15 1419.13 1866.15 Q1416.96 1866.15 1414.69 1865.78 Q1412.44 1865.41 1410.04 1864.67 L1410.04 1859.97 Q1412.12 1861.11 1414.34 1861.66 Q1416.56 1862.22 1419.04 1862.22 Q1423.05 1862.22 1425.38 1860.11 Q1427.72 1858.01 1427.72 1854.4 Q1427.72 1850.78 1425.38 1848.68 Q1423.05 1846.57 1419.04 1846.57 Q1417.17 1846.57 1415.29 1846.99 Q1413.44 1847.4 1411.49 1848.28 L1411.49 1830.92 Z" fill="#000000" fill-rule="evenodd" fill-opacity="1" /><path clip-path="url(#clip820)" d="M1451.61 1834 Q1448 1834 1446.17 1837.57 Q1444.36 1841.11 1444.36 1848.24 Q1444.36 1855.34 1446.17 1858.91 Q1448 1862.45 1451.61 1862.45 Q1455.24 1862.45 1457.05 1858.91 Q1458.88 1855.34 1458.88 1848.24 Q1458.88 1841.11 1457.05 1837.57 Q1455.24 1834 1451.61 1834 M1451.61 1830.3 Q1457.42 1830.3 1460.48 1834.9 Q1463.55 1839.49 1463.55 1848.24 Q1463.55 1856.96 1460.48 1861.57 Q1457.42 1866.15 1451.61 1866.15 Q1445.8 1866.15 1442.72 1861.57 Q1439.67 1856.96 1439.67 1848.24 Q1439.67 1839.49 1442.72 1834.9 Q1445.8 1830.3 1451.61 1830.3 Z" fill="#000000" fill-rule="evenodd" fill-opacity="1" /><path clip-path="url(#clip820)" d="M1781.09 1861.55 L1788.73 1861.55 L1788.73 1835.18 L1780.42 1836.85 L1780.42 1832.59 L1788.69 1830.92 L1793.36 1830.92 L1793.36 1861.55 L1801 1861.55 L1801 1865.48 L1781.09 1865.48 L1781.09 1861.55 Z" fill="#000000" fill-rule="evenodd" fill-opacity="1" /><path clip-path="url(#clip820)" d="M1810.45 1859.6 L1815.33 1859.6 L1815.33 1865.48 L1810.45 1865.48 L1810.45 1859.6 Z" fill="#000000" fill-rule="evenodd" fill-opacity="1" /><path clip-path="url(#clip820)" d="M1824.33 1830.92 L1846.56 1830.92 L1846.56 1832.91 L1834.01 1865.48 L1829.13 1865.48 L1840.93 1834.86 L1824.33 1834.86 L1824.33 1830.92 Z" fill="#000000" fill-rule="evenodd" fill-opacity="1" /><path clip-path="url(#clip820)" d="M1855.72 1830.92 L1874.08 1830.92 L1874.08 1834.86 L1860.01 1834.86 L1860.01 1843.33 Q1861.02 1842.98 1862.04 1842.82 Q1863.06 1842.64 1864.08 1842.64 Q1869.87 1842.64 1873.25 1845.81 Q1876.63 1848.98 1876.63 1854.4 Q1876.63 1859.97 1873.15 1863.08 Q1869.68 1866.15 1863.36 1866.15 Q1861.19 1866.15 1858.92 1865.78 Q1856.67 1865.41 1854.27 1864.67 L1854.27 1859.97 Q1856.35 1861.11 1858.57 1861.66 Q1860.79 1862.22 1863.27 1862.22 Q1867.27 1862.22 1869.61 1860.11 Q1871.95 1858.01 1871.95 1854.4 Q1871.95 1850.78 1869.61 1848.68 Q1867.27 1846.57 1863.27 1846.57 Q1861.39 1846.57 1859.52 1846.99 Q1857.67 1847.4 1855.72 1848.28 L1855.72 1830.92 Z" fill="#000000" fill-rule="evenodd" fill-opacity="1" /><path clip-path="url(#clip820)" d="M2198.25 1861.55 L2214.57 1861.55 L2214.57 1865.48 L2192.63 1865.48 L2192.63 1861.55 Q2195.29 1858.79 2199.87 1854.16 Q2204.48 1849.51 2205.66 1848.17 Q2207.9 1845.65 2208.78 1843.91 Q2209.69 1842.15 2209.69 1840.46 Q2209.69 1837.71 2207.74 1835.97 Q2205.82 1834.23 2202.72 1834.23 Q2200.52 1834.23 2198.07 1835 Q2195.64 1835.76 2192.86 1837.31 L2192.86 1832.59 Q2195.68 1831.46 2198.14 1830.88 Q2200.59 1830.3 2202.63 1830.3 Q2208 1830.3 2211.19 1832.98 Q2214.39 1835.67 2214.39 1840.16 Q2214.39 1842.29 2213.58 1844.21 Q2212.79 1846.11 2210.68 1848.7 Q2210.1 1849.37 2207 1852.59 Q2203.9 1855.78 2198.25 1861.55 Z" fill="#000000" fill-rule="evenodd" fill-opacity="1" /><path clip-path="url(#clip820)" d="M2224.39 1859.6 L2229.27 1859.6 L2229.27 1865.48 L2224.39 1865.48 L2224.39 1859.6 Z" fill="#000000" fill-rule="evenodd" fill-opacity="1" /><path clip-path="url(#clip820)" d="M2249.46 1834 Q2245.84 1834 2244.02 1837.57 Q2242.21 1841.11 2242.21 1848.24 Q2242.21 1855.34 2244.02 1858.91 Q2245.84 1862.45 2249.46 1862.45 Q2253.09 1862.45 2254.9 1858.91 Q2256.72 1855.34 2256.72 1848.24 Q2256.72 1841.11 2254.9 1837.57 Q2253.09 1834 2249.46 1834 M2249.46 1830.3 Q2255.27 1830.3 2258.32 1834.9 Q2261.4 1839.49 2261.4 1848.24 Q2261.4 1856.96 2258.32 1861.57 Q2255.27 1866.15 2249.46 1866.15 Q2243.65 1866.15 2240.57 1861.57 Q2237.51 1856.96 2237.51 1848.24 Q2237.51 1839.49 2240.57 1834.9 Q2243.65 1830.3 2249.46 1830.3 Z" fill="#000000" fill-rule="evenodd" fill-opacity="1" /><path clip-path="url(#clip820)" d="M2279.62 1834 Q2276.01 1834 2274.18 1837.57 Q2272.37 1841.11 2272.37 1848.24 Q2272.37 1855.34 2274.18 1858.91 Q2276.01 1862.45 2279.62 1862.45 Q2283.25 1862.45 2285.06 1858.91 Q2286.89 1855.34 2286.89 1848.24 Q2286.89 1841.11 2285.06 1837.57 Q2283.25 1834 2279.62 1834 M2279.62 1830.3 Q2285.43 1830.3 2288.48 1834.9 Q2291.56 1839.49 2291.56 1848.24 Q2291.56 1856.96 2288.48 1861.57 Q2285.43 1866.15 2279.62 1866.15 Q2273.81 1866.15 2270.73 1861.57 Q2267.67 1856.96 2267.67 1848.24 Q2267.67 1839.49 2270.73 1834.9 Q2273.81 1830.3 2279.62 1830.3 Z" fill="#000000" fill-rule="evenodd" fill-opacity="1" /><polyline clip-path="url(#clip822)" style="stroke:#000000; stroke-linecap:round; stroke-linejoin:round; stroke-width:2; stroke-opacity:0.1; fill:none" points="
  189.154,1751.15 2640.76,1751.15 
  "/>
<polyline clip-path="url(#clip822)" style="stroke:#000000; stroke-linecap:round; stroke-linejoin:round; stroke-width:2; stroke-opacity:0.1; fill:none" points="
  189.154,1337.58 2640.76,1337.58 
  "/>
<polyline clip-path="url(#clip822)" style="stroke:#000000; stroke-linecap:round; stroke-linejoin:round; stroke-width:2; stroke-opacity:0.1; fill:none" points="
  189.154,924.012 2640.76,924.012 
  "/>
<polyline clip-path="url(#clip822)" style="stroke:#000000; stroke-linecap:round; stroke-linejoin:round; stroke-width:2; stroke-opacity:0.1; fill:none" points="
  189.154,510.442 2640.76,510.442 
  "/>
<polyline clip-path="url(#clip822)" style="stroke:#000000; stroke-linecap:round; stroke-linejoin:round; stroke-width:2; stroke-opacity:0.1; fill:none" points="
  189.154,96.8724 2640.76,96.8724 
  "/>
<polyline clip-path="url(#clip820)" style="stroke:#000000; stroke-linecap:round; stroke-linejoin:round; stroke-width:4; stroke-opacity:1; fill:none" points="
  189.154,1800.78 189.154,47.2441 
  "/>
<polyline clip-path="url(#clip820)" style="stroke:#000000; stroke-linecap:round; stroke-linejoin:round; stroke-width:4; stroke-opacity:1; fill:none" points="
  189.154,1751.15 208.052,1751.15 
  "/>
<polyline clip-path="url(#clip820)" style="stroke:#000000; stroke-linecap:round; stroke-linejoin:round; stroke-width:4; stroke-opacity:1; fill:none" points="
  189.154,1337.58 208.052,1337.58 
  "/>
<polyline clip-path="url(#clip820)" style="stroke:#000000; stroke-linecap:round; stroke-linejoin:round; stroke-width:4; stroke-opacity:1; fill:none" points="
  189.154,924.012 208.052,924.012 
  "/>
<polyline clip-path="url(#clip820)" style="stroke:#000000; stroke-linecap:round; stroke-linejoin:round; stroke-width:4; stroke-opacity:1; fill:none" points="
  189.154,510.442 208.052,510.442 
  "/>
<polyline clip-path="url(#clip820)" style="stroke:#000000; stroke-linecap:round; stroke-linejoin:round; stroke-width:4; stroke-opacity:1; fill:none" points="
  189.154,96.8724 208.052,96.8724 
  "/>
<path clip-path="url(#clip820)" d="M61.4965 1736.95 Q57.8854 1736.95 56.0567 1740.51 Q54.2512 1744.06 54.2512 1751.19 Q54.2512 1758.29 56.0567 1761.86 Q57.8854 1765.4 61.4965 1765.4 Q65.1307 1765.4 66.9363 1761.86 Q68.765 1758.29 68.765 1751.19 Q68.765 1744.06 66.9363 1740.51 Q65.1307 1736.95 61.4965 1736.95 M61.4965 1733.25 Q67.3067 1733.25 70.3622 1737.85 Q73.4409 1742.44 73.4409 1751.19 Q73.4409 1759.91 70.3622 1764.52 Q67.3067 1769.1 61.4965 1769.1 Q55.6864 1769.1 52.6077 1764.52 Q49.5521 1759.91 49.5521 1751.19 Q49.5521 1742.44 52.6077 1737.85 Q55.6864 1733.25 61.4965 1733.25 Z" fill="#000000" fill-rule="evenodd" fill-opacity="1" /><path clip-path="url(#clip820)" d="M81.6584 1762.55 L86.5427 1762.55 L86.5427 1768.43 L81.6584 1768.43 L81.6584 1762.55 Z" fill="#000000" fill-rule="evenodd" fill-opacity="1" /><path clip-path="url(#clip820)" d="M106.728 1736.95 Q103.117 1736.95 101.288 1740.51 Q99.4824 1744.06 99.4824 1751.19 Q99.4824 1758.29 101.288 1761.86 Q103.117 1765.4 106.728 1765.4 Q110.362 1765.4 112.168 1761.86 Q113.996 1758.29 113.996 1751.19 Q113.996 1744.06 112.168 1740.51 Q110.362 1736.95 106.728 1736.95 M106.728 1733.25 Q112.538 1733.25 115.593 1737.85 Q118.672 1742.44 118.672 1751.19 Q118.672 1759.91 115.593 1764.52 Q112.538 1769.1 106.728 1769.1 Q100.918 1769.1 97.8389 1764.52 Q94.7834 1759.91 94.7834 1751.19 Q94.7834 1742.44 97.8389 1737.85 Q100.918 1733.25 106.728 1733.25 Z" fill="#000000" fill-rule="evenodd" fill-opacity="1" /><path clip-path="url(#clip820)" d="M136.89 1736.95 Q133.279 1736.95 131.45 1740.51 Q129.644 1744.06 129.644 1751.19 Q129.644 1758.29 131.45 1761.86 Q133.279 1765.4 136.89 1765.4 Q140.524 1765.4 142.329 1761.86 Q144.158 1758.29 144.158 1751.19 Q144.158 1744.06 142.329 1740.51 Q140.524 1736.95 136.89 1736.95 M136.89 1733.25 Q142.7 1733.25 145.755 1737.85 Q148.834 1742.44 148.834 1751.19 Q148.834 1759.91 145.755 1764.52 Q142.7 1769.1 136.89 1769.1 Q131.079 1769.1 128.001 1764.52 Q124.945 1759.91 124.945 1751.19 Q124.945 1742.44 128.001 1737.85 Q131.079 1733.25 136.89 1733.25 Z" fill="#000000" fill-rule="evenodd" fill-opacity="1" /><path clip-path="url(#clip820)" d="M62.4919 1323.38 Q58.8808 1323.38 57.0521 1326.94 Q55.2465 1330.49 55.2465 1337.62 Q55.2465 1344.72 57.0521 1348.29 Q58.8808 1351.83 62.4919 1351.83 Q66.1261 1351.83 67.9317 1348.29 Q69.7604 1344.72 69.7604 1337.62 Q69.7604 1330.49 67.9317 1326.94 Q66.1261 1323.38 62.4919 1323.38 M62.4919 1319.68 Q68.302 1319.68 71.3576 1324.28 Q74.4363 1328.87 74.4363 1337.62 Q74.4363 1346.34 71.3576 1350.95 Q68.302 1355.53 62.4919 1355.53 Q56.6817 1355.53 53.603 1350.95 Q50.5475 1346.34 50.5475 1337.62 Q50.5475 1328.87 53.603 1324.28 Q56.6817 1319.68 62.4919 1319.68 Z" fill="#000000" fill-rule="evenodd" fill-opacity="1" /><path clip-path="url(#clip820)" d="M82.6538 1348.98 L87.538 1348.98 L87.538 1354.86 L82.6538 1354.86 L82.6538 1348.98 Z" fill="#000000" fill-rule="evenodd" fill-opacity="1" /><path clip-path="url(#clip820)" d="M101.751 1350.93 L118.07 1350.93 L118.07 1354.86 L96.126 1354.86 L96.126 1350.93 Q98.788 1348.17 103.371 1343.54 Q107.978 1338.89 109.158 1337.55 Q111.404 1335.02 112.283 1333.29 Q113.186 1331.53 113.186 1329.84 Q113.186 1327.08 111.242 1325.35 Q109.32 1323.61 106.218 1323.61 Q104.019 1323.61 101.566 1324.38 Q99.1352 1325.14 96.3574 1326.69 L96.3574 1321.97 Q99.1815 1320.83 101.635 1320.26 Q104.089 1319.68 106.126 1319.68 Q111.496 1319.68 114.691 1322.36 Q117.885 1325.05 117.885 1329.54 Q117.885 1331.67 117.075 1333.59 Q116.288 1335.49 114.181 1338.08 Q113.603 1338.75 110.501 1341.97 Q107.399 1345.16 101.751 1350.93 Z" fill="#000000" fill-rule="evenodd" fill-opacity="1" /><path clip-path="url(#clip820)" d="M127.931 1320.3 L146.288 1320.3 L146.288 1324.24 L132.214 1324.24 L132.214 1332.71 Q133.232 1332.36 134.251 1332.2 Q135.269 1332.01 136.288 1332.01 Q142.075 1332.01 145.454 1335.19 Q148.834 1338.36 148.834 1343.77 Q148.834 1349.35 145.362 1352.45 Q141.89 1355.53 135.57 1355.53 Q133.394 1355.53 131.126 1355.16 Q128.88 1354.79 126.473 1354.05 L126.473 1349.35 Q128.556 1350.49 130.779 1351.04 Q133.001 1351.6 135.478 1351.6 Q139.482 1351.6 141.82 1349.49 Q144.158 1347.38 144.158 1343.77 Q144.158 1340.16 141.82 1338.06 Q139.482 1335.95 135.478 1335.95 Q133.603 1335.95 131.728 1336.37 Q129.876 1336.78 127.931 1337.66 L127.931 1320.3 Z" fill="#000000" fill-rule="evenodd" fill-opacity="1" /><path clip-path="url(#clip820)" d="M61.4965 909.81 Q57.8854 909.81 56.0567 913.375 Q54.2512 916.917 54.2512 924.046 Q54.2512 931.153 56.0567 934.718 Q57.8854 938.259 61.4965 938.259 Q65.1307 938.259 66.9363 934.718 Q68.765 931.153 68.765 924.046 Q68.765 916.917 66.9363 913.375 Q65.1307 909.81 61.4965 909.81 M61.4965 906.107 Q67.3067 906.107 70.3622 910.713 Q73.4409 915.296 73.4409 924.046 Q73.4409 932.773 70.3622 937.38 Q67.3067 941.963 61.4965 941.963 Q55.6864 941.963 52.6077 937.38 Q49.5521 932.773 49.5521 924.046 Q49.5521 915.296 52.6077 910.713 Q55.6864 906.107 61.4965 906.107 Z" fill="#000000" fill-rule="evenodd" fill-opacity="1" /><path clip-path="url(#clip820)" d="M81.6584 935.412 L86.5427 935.412 L86.5427 941.292 L81.6584 941.292 L81.6584 935.412 Z" fill="#000000" fill-rule="evenodd" fill-opacity="1" /><path clip-path="url(#clip820)" d="M96.7741 906.732 L115.13 906.732 L115.13 910.667 L101.056 910.667 L101.056 919.139 Q102.075 918.792 103.094 918.63 Q104.112 918.445 105.131 918.445 Q110.918 918.445 114.297 921.616 Q117.677 924.787 117.677 930.204 Q117.677 935.782 114.205 938.884 Q110.732 941.963 104.413 941.963 Q102.237 941.963 99.9685 941.593 Q97.7232 941.222 95.3158 940.482 L95.3158 935.782 Q97.3991 936.917 99.6213 937.472 Q101.844 938.028 104.32 938.028 Q108.325 938.028 110.663 935.921 Q113.001 933.815 113.001 930.204 Q113.001 926.593 110.663 924.486 Q108.325 922.38 104.32 922.38 Q102.445 922.38 100.57 922.796 Q98.7185 923.213 96.7741 924.093 L96.7741 906.732 Z" fill="#000000" fill-rule="evenodd" fill-opacity="1" /><path clip-path="url(#clip820)" d="M136.89 909.81 Q133.279 909.81 131.45 913.375 Q129.644 916.917 129.644 924.046 Q129.644 931.153 131.45 934.718 Q133.279 938.259 136.89 938.259 Q140.524 938.259 142.329 934.718 Q144.158 931.153 144.158 924.046 Q144.158 916.917 142.329 913.375 Q140.524 909.81 136.89 909.81 M136.89 906.107 Q142.7 906.107 145.755 910.713 Q148.834 915.296 148.834 924.046 Q148.834 932.773 145.755 937.38 Q142.7 941.963 136.89 941.963 Q131.079 941.963 128.001 937.38 Q124.945 932.773 124.945 924.046 Q124.945 915.296 128.001 910.713 Q131.079 906.107 136.89 906.107 Z" fill="#000000" fill-rule="evenodd" fill-opacity="1" /><path clip-path="url(#clip820)" d="M62.4919 496.241 Q58.8808 496.241 57.0521 499.806 Q55.2465 503.347 55.2465 510.477 Q55.2465 517.583 57.0521 521.148 Q58.8808 524.69 62.4919 524.69 Q66.1261 524.69 67.9317 521.148 Q69.7604 517.583 69.7604 510.477 Q69.7604 503.347 67.9317 499.806 Q66.1261 496.241 62.4919 496.241 M62.4919 492.537 Q68.302 492.537 71.3576 497.144 Q74.4363 501.727 74.4363 510.477 Q74.4363 519.204 71.3576 523.81 Q68.302 528.393 62.4919 528.393 Q56.6817 528.393 53.603 523.81 Q50.5475 519.204 50.5475 510.477 Q50.5475 501.727 53.603 497.144 Q56.6817 492.537 62.4919 492.537 Z" fill="#000000" fill-rule="evenodd" fill-opacity="1" /><path clip-path="url(#clip820)" d="M82.6538 521.842 L87.538 521.842 L87.538 527.722 L82.6538 527.722 L82.6538 521.842 Z" fill="#000000" fill-rule="evenodd" fill-opacity="1" /><path clip-path="url(#clip820)" d="M96.5426 493.162 L118.765 493.162 L118.765 495.153 L106.218 527.722 L101.334 527.722 L113.14 497.097 L96.5426 497.097 L96.5426 493.162 Z" fill="#000000" fill-rule="evenodd" fill-opacity="1" /><path clip-path="url(#clip820)" d="M127.931 493.162 L146.288 493.162 L146.288 497.097 L132.214 497.097 L132.214 505.569 Q133.232 505.222 134.251 505.06 Q135.269 504.875 136.288 504.875 Q142.075 504.875 145.454 508.046 Q148.834 511.218 148.834 516.634 Q148.834 522.213 145.362 525.315 Q141.89 528.393 135.57 528.393 Q133.394 528.393 131.126 528.023 Q128.88 527.653 126.473 526.912 L126.473 522.213 Q128.556 523.347 130.779 523.903 Q133.001 524.458 135.478 524.458 Q139.482 524.458 141.82 522.352 Q144.158 520.245 144.158 516.634 Q144.158 513.023 141.82 510.917 Q139.482 508.81 135.478 508.81 Q133.603 508.81 131.728 509.227 Q129.876 509.643 127.931 510.523 L127.931 493.162 Z" fill="#000000" fill-rule="evenodd" fill-opacity="1" /><path clip-path="url(#clip820)" d="M52.3067 110.217 L59.9456 110.217 L59.9456 83.8517 L51.6354 85.5183 L51.6354 81.2591 L59.8993 79.5924 L64.5752 79.5924 L64.5752 110.217 L72.214 110.217 L72.214 114.152 L52.3067 114.152 L52.3067 110.217 Z" fill="#000000" fill-rule="evenodd" fill-opacity="1" /><path clip-path="url(#clip820)" d="M81.6584 108.273 L86.5427 108.273 L86.5427 114.152 L81.6584 114.152 L81.6584 108.273 Z" fill="#000000" fill-rule="evenodd" fill-opacity="1" /><path clip-path="url(#clip820)" d="M106.728 82.6711 Q103.117 82.6711 101.288 86.2359 Q99.4824 89.7776 99.4824 96.9072 Q99.4824 104.014 101.288 107.578 Q103.117 111.12 106.728 111.12 Q110.362 111.12 112.168 107.578 Q113.996 104.014 113.996 96.9072 Q113.996 89.7776 112.168 86.2359 Q110.362 82.6711 106.728 82.6711 M106.728 78.9675 Q112.538 78.9675 115.593 83.5739 Q118.672 88.1572 118.672 96.9072 Q118.672 105.634 115.593 110.24 Q112.538 114.824 106.728 114.824 Q100.918 114.824 97.8389 110.24 Q94.7834 105.634 94.7834 96.9072 Q94.7834 88.1572 97.8389 83.5739 Q100.918 78.9675 106.728 78.9675 Z" fill="#000000" fill-rule="evenodd" fill-opacity="1" /><path clip-path="url(#clip820)" d="M136.89 82.6711 Q133.279 82.6711 131.45 86.2359 Q129.644 89.7776 129.644 96.9072 Q129.644 104.014 131.45 107.578 Q133.279 111.12 136.89 111.12 Q140.524 111.12 142.329 107.578 Q144.158 104.014 144.158 96.9072 Q144.158 89.7776 142.329 86.2359 Q140.524 82.6711 136.89 82.6711 M136.89 78.9675 Q142.7 78.9675 145.755 83.5739 Q148.834 88.1572 148.834 96.9072 Q148.834 105.634 145.755 110.24 Q142.7 114.824 136.89 114.824 Q131.079 114.824 128.001 110.24 Q124.945 105.634 124.945 96.9072 Q124.945 88.1572 128.001 83.5739 Q131.079 78.9675 136.89 78.9675 Z" fill="#000000" fill-rule="evenodd" fill-opacity="1" /><polyline clip-path="url(#clip822)" style="stroke:#009af9; stroke-linecap:round; stroke-linejoin:round; stroke-width:4; stroke-opacity:1; fill:none" points="
  587.816,1751.15 598.586,1740.38 698.173,1640.79 758.02,1580.95 808.62,1530.35 863.586,1475.38 914.26,1424.71 968.588,1370.38 1031.53,1307.44 1087.47,1251.5 
  1136.52,1202.45 1190,1148.97 1243.8,1095.17 1303.28,1035.69 1359.87,979.095 1418.72,920.251 1468.25,870.717 1528.73,810.241 1584.13,754.841 1635.29,703.675 
  1687.12,651.846 1745.21,593.759 1797.84,541.124 1858.11,480.859 1913.91,425.06 1968.92,370.049 2022.33,316.637 2077.08,261.883 2137.07,201.894 2224.22,114.75 
  2242.09,96.8724 
  "/>
<path clip-path="url(#clip822)" d="
M587.816 1751.15 L593.201 1751.13 L598.586 1751.08 L648.379 1748.93 L698.173 1743.79 L728.096 1739.26 L758.02 1733.64 L783.32 1728.05 L808.62 1721.68 L863.586 1705.18 
  L914.26 1686.73 L968.588 1663.51 L1031.53 1632.14 L1087.47 1600.24 L1136.52 1569.15 L1190 1531.95 L1243.8 1491.03 L1303.28 1441.72 L1359.87 1390.83 L1418.72 1333.81 
  L1468.25 1282.57 L1528.73 1215.99 L1584.13 1151.11 L1635.29 1087.9 L1687.12 1020.64 L1745.21 941.399 L1797.84 866.073 L1858.11 775.716 L1913.91 688.14 L1968.92 598.114 
  L2022.33 507.207 L2049.71 459.274 L2077.08 410.435 L2107.08 355.886 L2137.07 300.249 L2180.64 217.489 L2224.22 132.435 L2233.16 114.702 L2242.09 96.8724 L2242.09 96.8724 
  L2233.16 105.811 L2224.22 114.75 L2180.64 158.322 L2137.07 201.894 L2107.08 231.889 L2077.08 261.883 L2049.71 289.26 L2022.33 316.637 L1968.92 370.049 L1913.91 425.06 
  L1858.11 480.859 L1797.84 541.124 L1745.21 593.759 L1687.12 651.846 L1635.29 703.675 L1584.13 754.841 L1528.73 810.241 L1468.25 870.717 L1418.72 920.251 L1359.87 979.095 
  L1303.28 1035.69 L1243.8 1095.17 L1190 1148.97 L1136.52 1202.45 L1087.47 1251.5 L1031.53 1307.44 L968.588 1370.38 L914.26 1424.71 L863.586 1475.38 L808.62 1530.35 
  L783.32 1555.65 L758.02 1580.95 L728.096 1610.87 L698.173 1640.79 L648.379 1690.59 L598.586 1740.38 L593.201 1745.77 L587.816 1751.15  Z
  " fill="#009af9" fill-rule="evenodd" fill-opacity="0.3"/>
<polyline clip-path="url(#clip822)" style="stroke:#009af9; stroke-linecap:round; stroke-linejoin:round; stroke-width:4; stroke-opacity:1; fill:none" points="
  587.816,1751.15 593.201,1751.13 598.586,1751.08 648.379,1748.93 698.173,1743.79 728.096,1739.26 758.02,1733.64 783.32,1728.05 808.62,1721.68 863.586,1705.18 
  914.26,1686.73 968.588,1663.51 1031.53,1632.14 1087.47,1600.24 1136.52,1569.15 1190,1531.95 1243.8,1491.03 1303.28,1441.72 1359.87,1390.83 1418.72,1333.81 
  1468.25,1282.57 1528.73,1215.99 1584.13,1151.11 1635.29,1087.9 1687.12,1020.64 1745.21,941.399 1797.84,866.073 1858.11,775.716 1913.91,688.14 1968.92,598.114 
  2022.33,507.207 2049.71,459.274 2077.08,410.435 2107.08,355.886 2137.07,300.249 2180.64,217.489 2224.22,132.435 2233.16,114.702 2242.09,96.8724 
  "/>
</svg>
