<?xml version="1.0" encoding="utf-8"?>
<svg xmlns="http://www.w3.org/2000/svg" xmlns:xlink="http://www.w3.org/1999/xlink" width="672" height="480" viewBox="0 0 2688 1920">
<defs>
  <clipPath id="clip980">
    <rect x="0" y="0" width="2688" height="1920"/>
  </clipPath>
</defs>
<path clip-path="url(#clip980)" d="
M0 1920 L2688 1920 L2688 0 L0 0  Z
  " fill="#ffffff" fill-rule="evenodd" fill-opacity="1"/>
<defs>
  <clipPath id="clip981">
    <rect x="537" y="0" width="1883" height="1883"/>
  </clipPath>
</defs>
<path clip-path="url(#clip980)" d="
M113.761 1800.78 L2640.76 1800.78 L2640.76 47.2441 L113.761 47.2441  Z
  " fill="#ffffff" fill-rule="evenodd" fill-opacity="1"/>
<defs>
  <clipPath id="clip982">
    <rect x="113" y="47" width="2528" height="1755"/>
  </clipPath>
</defs>
<polyline clip-path="url(#clip982)" style="stroke:#000000; stroke-linecap:round; stroke-linejoin:round; stroke-width:2; stroke-opacity:0.1; fill:none" points="
  185.28,1800.78 185.28,47.2441 
  "/>
<polyline clip-path="url(#clip982)" style="stroke:#000000; stroke-linecap:round; stroke-linejoin:round; stroke-width:2; stroke-opacity:0.1; fill:none" points="
  564.698,1800.78 564.698,47.2441 
  "/>
<polyline clip-path="url(#clip982)" style="stroke:#000000; stroke-linecap:round; stroke-linejoin:round; stroke-width:2; stroke-opacity:0.1; fill:none" points="
  944.117,1800.78 944.117,47.2441 
  "/>
<polyline clip-path="url(#clip982)" style="stroke:#000000; stroke-linecap:round; stroke-linejoin:round; stroke-width:2; stroke-opacity:0.1; fill:none" points="
  1323.54,1800.78 1323.54,47.2441 
  "/>
<polyline clip-path="url(#clip982)" style="stroke:#000000; stroke-linecap:round; stroke-linejoin:round; stroke-width:2; stroke-opacity:0.1; fill:none" points="
  1702.95,1800.78 1702.95,47.2441 
  "/>
<polyline clip-path="url(#clip982)" style="stroke:#000000; stroke-linecap:round; stroke-linejoin:round; stroke-width:2; stroke-opacity:0.1; fill:none" points="
  2082.37,1800.78 2082.37,47.2441 
  "/>
<polyline clip-path="url(#clip982)" style="stroke:#000000; stroke-linecap:round; stroke-linejoin:round; stroke-width:2; stroke-opacity:0.1; fill:none" points="
  2461.79,1800.78 2461.79,47.2441 
  "/>
<polyline clip-path="url(#clip980)" style="stroke:#000000; stroke-linecap:round; stroke-linejoin:round; stroke-width:4; stroke-opacity:1; fill:none" points="
  113.761,1800.78 2640.76,1800.78 
  "/>
<polyline clip-path="url(#clip980)" style="stroke:#000000; stroke-linecap:round; stroke-linejoin:round; stroke-width:4; stroke-opacity:1; fill:none" points="
  185.28,1800.78 185.28,1781.88 
  "/>
<polyline clip-path="url(#clip980)" style="stroke:#000000; stroke-linecap:round; stroke-linejoin:round; stroke-width:4; stroke-opacity:1; fill:none" points="
  564.698,1800.78 564.698,1781.88 
  "/>
<polyline clip-path="url(#clip980)" style="stroke:#000000; stroke-linecap:round; stroke-linejoin:round; stroke-width:4; stroke-opacity:1; fill:none" points="
  944.117,1800.78 944.117,1781.88 
  "/>
<polyline clip-path="url(#clip980)" style="stroke:#000000; stroke-linecap:round; stroke-linejoin:round; stroke-width:4; stroke-opacity:1; fill:none" points="
  1323.54,1800.78 1323.54,1781.88 
  "/>
<polyline clip-path="url(#clip980)" style="stroke:#000000; stroke-linecap:round; stroke-linejoin:round; stroke-width:4; stroke-opacity:1; fill:none" points="
  1702.95,1800.78 1702.95,1781.88 
  "/>
<polyline clip-path="url(#clip980)" style="stroke:#000000; stroke-linecap:round; stroke-linejoin:round; stroke-width:4; stroke-opacity:1; fill:none" points="
  2082.37,1800.78 2082.37,1781.88 
  "/>
<polyline clip-path="url(#clip980)" style="stroke:#000000; stroke-linecap:round; stroke-linejoin:round; stroke-width:4; stroke-opacity:1; fill:none" points="
  2461.79,1800.78 2461.79,1781.88 
  "/>
<path clip-path="url(#clip980)" d="M185.28 1834 Q181.669 1834 179.84 1837.57 Q178.034 1841.11 178.034 1848.24 Q178.034 1855.34 179.84 1858.91 Q181.669 1862.45 185.28 1862.45 Q188.914 1862.45 190.719 1858.91 Q192.548 1855.34 192.548 1848.24 Q192.548 1841.11 190.719 1837.57 Q188.914 1834 185.28 1834 M185.28 1830.3 Q191.09 1830.3 194.145 1834.9 Q197.224 1839.49 197.224 1848.24 Q197.224 1856.96 194.145 1861.57 Q191.09 1866.15 185.28 1866.15 Q179.469 1866.15 176.391 1861.57 Q173.335 1856.96 173.335 1848.24 Q173.335 1839.49 176.391 1834.9 Q179.469 1830.3 185.28 1830.3 Z" fill="#000000" fill-rule="evenodd" fill-opacity="1" /><path clip-path="url(#clip980)" d="M555.08 1861.55 L562.719 1861.55 L562.719 1835.18 L554.409 1836.85 L554.409 1832.59 L562.673 1830.92 L567.349 1830.92 L567.349 1861.55 L574.988 1861.55 L574.988 1865.48 L555.08 1865.48 L555.08 1861.55 Z" fill="#000000" fill-rule="evenodd" fill-opacity="1" /><path clip-path="url(#clip980)" d="M938.77 1861.55 L955.089 1861.55 L955.089 1865.48 L933.145 1865.48 L933.145 1861.55 Q935.807 1858.79 940.39 1854.16 Q944.996 1849.51 946.177 1848.17 Q948.422 1845.65 949.302 1843.91 Q950.205 1842.15 950.205 1840.46 Q950.205 1837.71 948.26 1835.97 Q946.339 1834.23 943.237 1834.23 Q941.038 1834.23 938.584 1835 Q936.154 1835.76 933.376 1837.31 L933.376 1832.59 Q936.2 1831.46 938.654 1830.88 Q941.108 1830.3 943.145 1830.3 Q948.515 1830.3 951.709 1832.98 Q954.904 1835.67 954.904 1840.16 Q954.904 1842.29 954.094 1844.21 Q953.307 1846.11 951.2 1848.7 Q950.621 1849.37 947.52 1852.59 Q944.418 1855.78 938.77 1861.55 Z" fill="#000000" fill-rule="evenodd" fill-opacity="1" /><path clip-path="url(#clip980)" d="M1327.78 1846.85 Q1331.14 1847.57 1333.01 1849.84 Q1334.91 1852.1 1334.91 1855.44 Q1334.91 1860.55 1331.39 1863.35 Q1327.88 1866.15 1321.39 1866.15 Q1319.22 1866.15 1316.9 1865.71 Q1314.61 1865.3 1312.16 1864.44 L1312.16 1859.93 Q1314.1 1861.06 1316.42 1861.64 Q1318.73 1862.22 1321.26 1862.22 Q1325.65 1862.22 1327.95 1860.48 Q1330.26 1858.75 1330.26 1855.44 Q1330.26 1852.38 1328.11 1850.67 Q1325.98 1848.93 1322.16 1848.93 L1318.13 1848.93 L1318.13 1845.09 L1322.34 1845.09 Q1325.79 1845.09 1327.62 1843.72 Q1329.45 1842.34 1329.45 1839.74 Q1329.45 1837.08 1327.55 1835.67 Q1325.68 1834.23 1322.16 1834.23 Q1320.24 1834.23 1318.04 1834.65 Q1315.84 1835.07 1313.2 1835.95 L1313.2 1831.78 Q1315.86 1831.04 1318.18 1830.67 Q1320.51 1830.3 1322.57 1830.3 Q1327.9 1830.3 1331 1832.73 Q1334.1 1835.14 1334.1 1839.26 Q1334.1 1842.13 1332.46 1844.12 Q1330.82 1846.09 1327.78 1846.85 Z" fill="#000000" fill-rule="evenodd" fill-opacity="1" /><path clip-path="url(#clip980)" d="M1705.96 1835 L1694.16 1853.45 L1705.96 1853.45 L1705.96 1835 M1704.74 1830.92 L1710.62 1830.92 L1710.62 1853.45 L1715.55 1853.45 L1715.55 1857.34 L1710.62 1857.34 L1710.62 1865.48 L1705.96 1865.48 L1705.96 1857.34 L1690.36 1857.34 L1690.36 1852.82 L1704.74 1830.92 Z" fill="#000000" fill-rule="evenodd" fill-opacity="1" /><path clip-path="url(#clip980)" d="M2072.65 1830.92 L2091.01 1830.92 L2091.01 1834.86 L2076.93 1834.86 L2076.93 1843.33 Q2077.95 1842.98 2078.97 1842.82 Q2079.99 1842.64 2081.01 1842.64 Q2086.79 1842.64 2090.17 1845.81 Q2093.55 1848.98 2093.55 1854.4 Q2093.55 1859.97 2090.08 1863.08 Q2086.61 1866.15 2080.29 1866.15 Q2078.11 1866.15 2075.85 1865.78 Q2073.6 1865.41 2071.19 1864.67 L2071.19 1859.97 Q2073.28 1861.11 2075.5 1861.66 Q2077.72 1862.22 2080.2 1862.22 Q2084.2 1862.22 2086.54 1860.11 Q2088.88 1858.01 2088.88 1854.4 Q2088.88 1850.78 2086.54 1848.68 Q2084.2 1846.57 2080.2 1846.57 Q2078.32 1846.57 2076.45 1846.99 Q2074.6 1847.4 2072.65 1848.28 L2072.65 1830.92 Z" fill="#000000" fill-rule="evenodd" fill-opacity="1" /><path clip-path="url(#clip980)" d="M2462.2 1846.34 Q2459.05 1846.34 2457.2 1848.49 Q2455.37 1850.65 2455.37 1854.4 Q2455.37 1858.12 2457.2 1860.3 Q2459.05 1862.45 2462.2 1862.45 Q2465.34 1862.45 2467.17 1860.3 Q2469.03 1858.12 2469.03 1854.4 Q2469.03 1850.65 2467.17 1848.49 Q2465.34 1846.34 2462.2 1846.34 M2471.48 1831.69 L2471.48 1835.95 Q2469.72 1835.11 2467.91 1834.67 Q2466.13 1834.23 2464.37 1834.23 Q2459.74 1834.23 2457.29 1837.36 Q2454.86 1840.48 2454.51 1846.8 Q2455.88 1844.79 2457.94 1843.72 Q2460 1842.64 2462.47 1842.64 Q2467.68 1842.64 2470.69 1845.81 Q2473.72 1848.96 2473.72 1854.4 Q2473.72 1859.72 2470.58 1862.94 Q2467.43 1866.15 2462.2 1866.15 Q2456.2 1866.15 2453.03 1861.57 Q2449.86 1856.96 2449.86 1848.24 Q2449.86 1840.04 2453.75 1835.18 Q2457.64 1830.3 2464.19 1830.3 Q2465.95 1830.3 2467.73 1830.65 Q2469.53 1830.99 2471.48 1831.69 Z" fill="#000000" fill-rule="evenodd" fill-opacity="1" /><polyline clip-path="url(#clip982)" style="stroke:#000000; stroke-linecap:round; stroke-linejoin:round; stroke-width:2; stroke-opacity:0.1; fill:none" points="
  113.761,1800.78 2640.76,1800.78 
  "/>
<polyline clip-path="url(#clip982)" style="stroke:#000000; stroke-linecap:round; stroke-linejoin:round; stroke-width:2; stroke-opacity:0.1; fill:none" points="
  113.761,1216.27 2640.76,1216.27 
  "/>
<polyline clip-path="url(#clip982)" style="stroke:#000000; stroke-linecap:round; stroke-linejoin:round; stroke-width:2; stroke-opacity:0.1; fill:none" points="
  113.761,631.756 2640.76,631.756 
  "/>
<polyline clip-path="url(#clip982)" style="stroke:#000000; stroke-linecap:round; stroke-linejoin:round; stroke-width:2; stroke-opacity:0.1; fill:none" points="
  113.761,47.2441 2640.76,47.2441 
  "/>
<polyline clip-path="url(#clip980)" style="stroke:#000000; stroke-linecap:round; stroke-linejoin:round; stroke-width:4; stroke-opacity:1; fill:none" points="
  113.761,1800.78 113.761,47.2441 
  "/>
<polyline clip-path="url(#clip980)" style="stroke:#000000; stroke-linecap:round; stroke-linejoin:round; stroke-width:4; stroke-opacity:1; fill:none" points="
  113.761,1800.78 132.659,1800.78 
  "/>
<polyline clip-path="url(#clip980)" style="stroke:#000000; stroke-linecap:round; stroke-linejoin:round; stroke-width:4; stroke-opacity:1; fill:none" points="
  113.761,1216.27 132.659,1216.27 
  "/>
<polyline clip-path="url(#clip980)" style="stroke:#000000; stroke-linecap:round; stroke-linejoin:round; stroke-width:4; stroke-opacity:1; fill:none" points="
  113.761,631.756 132.659,631.756 
  "/>
<polyline clip-path="url(#clip980)" style="stroke:#000000; stroke-linecap:round; stroke-linejoin:round; stroke-width:4; stroke-opacity:1; fill:none" points="
  113.761,47.2441 132.659,47.2441 
  "/>
<path clip-path="url(#clip980)" d="M61.4965 1786.58 Q57.8854 1786.58 56.0567 1790.14 Q54.2512 1793.68 54.2512 1800.81 Q54.2512 1807.92 56.0567 1811.49 Q57.8854 1815.03 61.4965 1815.03 Q65.1307 1815.03 66.9363 1811.49 Q68.765 1807.92 68.765 1800.81 Q68.765 1793.68 66.9363 1790.14 Q65.1307 1786.58 61.4965 1786.58 M61.4965 1782.87 Q67.3067 1782.87 70.3622 1787.48 Q73.4409 1792.06 73.4409 1800.81 Q73.4409 1809.54 70.3622 1814.15 Q67.3067 1818.73 61.4965 1818.73 Q55.6864 1818.73 52.6077 1814.15 Q49.5521 1809.54 49.5521 1800.81 Q49.5521 1792.06 52.6077 1787.48 Q55.6864 1782.87 61.4965 1782.87 Z" fill="#000000" fill-rule="evenodd" fill-opacity="1" /><path clip-path="url(#clip980)" d="M53.5336 1229.61 L61.1724 1229.61 L61.1724 1203.25 L52.8623 1204.91 L52.8623 1200.65 L61.1261 1198.99 L65.802 1198.99 L65.802 1229.61 L73.4409 1229.61 L73.4409 1233.55 L53.5336 1233.55 L53.5336 1229.61 Z" fill="#000000" fill-rule="evenodd" fill-opacity="1" /><path clip-path="url(#clip980)" d="M57.1215 645.101 L73.4409 645.101 L73.4409 649.036 L51.4966 649.036 L51.4966 645.101 Q54.1586 642.346 58.7419 637.716 Q63.3483 633.064 64.5289 631.721 Q66.7743 629.198 67.6539 627.462 Q68.5567 625.703 68.5567 624.013 Q68.5567 621.258 66.6122 619.522 Q64.6909 617.786 61.5891 617.786 Q59.39 617.786 56.9363 618.55 Q54.5058 619.314 51.728 620.865 L51.728 616.142 Q54.5521 615.008 57.0058 614.43 Q59.4595 613.851 61.4965 613.851 Q66.8668 613.851 70.0613 616.536 Q73.2557 619.221 73.2557 623.712 Q73.2557 625.842 72.4455 627.763 Q71.6585 629.661 69.552 632.254 Q68.9733 632.925 65.8715 636.142 Q62.7696 639.337 57.1215 645.101 Z" fill="#000000" fill-rule="evenodd" fill-opacity="1" /><path clip-path="url(#clip980)" d="M66.3113 45.8899 Q69.6678 46.6075 71.5427 48.876 Q73.4409 51.1445 73.4409 54.4779 Q73.4409 59.5936 69.9224 62.3945 Q66.4039 65.1954 59.9224 65.1954 Q57.7465 65.1954 55.4317 64.7556 Q53.1401 64.3389 50.6864 63.4824 L50.6864 58.9686 Q52.6308 60.1028 54.9456 60.6815 Q57.2604 61.2602 59.7836 61.2602 Q64.1817 61.2602 66.4733 59.5241 Q68.7881 57.788 68.7881 54.4779 Q68.7881 51.4223 66.6354 49.7094 Q64.5057 47.9733 60.6863 47.9733 L56.6586 47.9733 L56.6586 44.1307 L60.8715 44.1307 Q64.3206 44.1307 66.1493 42.765 Q67.978 41.3761 67.978 38.7835 Q67.978 36.1215 66.0798 34.7094 Q64.2048 33.2743 60.6863 33.2743 Q58.765 33.2743 56.566 33.6909 Q54.3669 34.1076 51.728 34.9872 L51.728 30.8206 Q54.3901 30.0798 56.7049 29.7095 Q59.0428 29.3391 61.103 29.3391 Q66.427 29.3391 69.5289 31.7696 Q72.6307 34.177 72.6307 38.2974 Q72.6307 41.1677 70.9872 43.1585 Q69.3437 45.1261 66.3113 45.8899 Z" fill="#000000" fill-rule="evenodd" fill-opacity="1" /><path clip-path="url(#clip982)" d="
M185.28 631.756 L193.04 619.801 L200.8 607.852 L236.679 552.815 L272.557 498.484 L308.435 445.343 L344.313 393.868 L365.875 363.928 L387.436 334.852 L408.997 306.735 
  L430.559 279.667 L448.788 257.665 L467.018 236.526 L485.248 216.299 L503.478 197.032 L523.28 177.24 L543.083 158.686 L562.886 141.42 L582.688 125.49 L600.945 112.025 
  L619.201 99.7619 L637.457 88.7307 L655.714 78.9565 L675.286 69.8994 L694.859 62.3371 L714.432 56.2897 L734.005 51.7734 L756.681 48.471 L779.358 47.2515 L802.035 48.1193 
  L824.712 51.0714 L844.865 55.4356 L865.017 61.4253 L885.17 69.0236 L905.322 78.2091 L922.994 87.5497 L940.666 98.0707 L958.338 109.749 L976.01 122.56 L995.277 137.785 
  L1014.54 154.283 L1033.81 172.012 L1053.08 190.926 L1072.46 211.1 L1091.84 232.371 L1111.22 254.683 L1130.61 277.98 L1152.03 304.809 L1173.46 332.681 L1194.89 361.506 
  L1216.32 391.193 L1257.1 449.725 L1297.88 510.357 L1382.68 640.104 L1454.06 749.268 L1497.64 814.108 L1541.21 876.547 L1561.17 904.116 L1581.13 930.933 L1601.09 956.922 
  L1621.05 982.011 L1639.48 1004.32 L1657.92 1025.76 L1676.35 1046.26 L1694.78 1065.79 L1713.46 1084.52 L1732.13 1102.16 L1750.8 1118.66 L1769.47 1133.97 L1790.4 1149.7 
  L1811.33 1163.84 L1832.25 1176.37 L1853.18 1187.24 L1872.14 1195.64 L1891.11 1202.62 L1910.07 1208.18 L1929.03 1212.3 L1950.74 1215.24 L1972.46 1216.27 L1994.17 1215.38 
  L2015.88 1212.58 L2035.98 1208.3 L2056.08 1202.39 L2076.19 1194.89 L2096.29 1185.8 L2116.11 1175.32 L2135.93 1163.36 L2155.75 1149.94 L2175.57 1135.12 L2194.81 1119.41 
  L2214.05 1102.45 L2233.29 1084.27 L2252.54 1064.93 L2272.26 1043.95 L2291.99 1021.86 L2311.72 998.713 L2331.44 974.574 L2353.05 947.065 L2374.67 918.534 L2396.28 889.073 
  L2417.89 858.776 L2480.68 766.943 L2543.47 671.415 L2556.36 651.597 L2569.24 631.756 L2569.24 1800.78 L2556.36 1800.78 L2543.47 1800.78 L2480.68 1800.78 L2417.89 1800.78 
  L2396.28 1800.78 L2374.67 1800.78 L2353.05 1800.78 L2331.44 1800.78 L2311.72 1800.78 L2291.99 1800.78 L2272.26 1800.78 L2252.54 1800.78 L2233.29 1800.78 L2214.05 1800.78 
  L2194.81 1800.78 L2175.57 1800.78 L2155.75 1800.78 L2135.93 1800.78 L2116.11 1800.78 L2096.29 1800.78 L2076.19 1800.78 L2056.08 1800.78 L2035.98 1800.78 L2015.88 1800.78 
  L1994.17 1800.78 L1972.46 1800.78 L1950.74 1800.78 L1929.03 1800.78 L1910.07 1800.78 L1891.11 1800.78 L1872.14 1800.78 L1853.18 1800.78 L1832.25 1800.78 L1811.33 1800.78 
  L1790.4 1800.78 L1769.47 1800.78 L1750.8 1800.78 L1732.13 1800.78 L1713.46 1800.78 L1694.78 1800.78 L1676.35 1800.78 L1657.92 1800.78 L1639.48 1800.78 L1621.05 1800.78 
  L1601.09 1800.78 L1581.13 1800.78 L1561.17 1800.78 L1541.21 1800.78 L1497.64 1800.78 L1454.06 1800.78 L1382.68 1800.78 L1297.88 1800.78 L1257.1 1800.78 L1216.32 1800.78 
  L1194.89 1800.78 L1173.46 1800.78 L1152.03 1800.78 L1130.61 1800.78 L1111.22 1800.78 L1091.84 1800.78 L1072.46 1800.78 L1053.08 1800.78 L1033.81 1800.78 L1014.54 1800.78 
  L995.277 1800.78 L976.01 1800.78 L958.338 1800.78 L940.666 1800.78 L922.994 1800.78 L905.322 1800.78 L885.17 1800.78 L865.017 1800.78 L844.865 1800.78 L824.712 1800.78 
  L802.035 1800.78 L779.358 1800.78 L756.681 1800.78 L734.005 1800.78 L714.432 1800.78 L694.859 1800.78 L675.286 1800.78 L655.714 1800.78 L637.457 1800.78 L619.201 1800.78 
  L600.945 1800.78 L582.688 1800.78 L562.886 1800.78 L543.083 1800.78 L523.28 1800.78 L503.478 1800.78 L485.248 1800.78 L467.018 1800.78 L448.788 1800.78 L430.559 1800.78 
  L408.997 1800.78 L387.436 1800.78 L365.875 1800.78 L344.313 1800.78 L308.435 1800.78 L272.557 1800.78 L236.679 1800.78 L200.8 1800.78 L193.04 1800.78 L185.28 1800.78 
   Z
  " fill="#009af9" fill-rule="evenodd" fill-opacity="0.3"/>
<polyline clip-path="url(#clip982)" style="stroke:#009af9; stroke-linecap:round; stroke-linejoin:round; stroke-width:4; stroke-opacity:1; fill:none" points="
  185.28,631.756 193.04,619.801 200.8,607.852 236.679,552.815 272.557,498.484 308.435,445.343 344.313,393.868 365.875,363.928 387.436,334.852 408.997,306.735 
  430.559,279.667 448.788,257.665 467.018,236.526 485.248,216.299 503.478,197.032 523.28,177.24 543.083,158.686 562.886,141.42 582.688,125.49 600.945,112.025 
  619.201,99.7619 637.457,88.7307 655.714,78.9565 675.286,69.8994 694.859,62.3371 714.432,56.2897 734.005,51.7734 756.681,48.471 779.358,47.2515 802.035,48.1193 
  824.712,51.0714 844.865,55.4356 865.017,61.4253 885.17,69.0236 905.322,78.2091 922.994,87.5497 940.666,98.0707 958.338,109.749 976.01,122.56 995.277,137.785 
  1014.54,154.283 1033.81,172.012 1053.08,190.926 1072.46,211.1 1091.84,232.371 1111.22,254.683 1130.61,277.98 1152.03,304.809 1173.46,332.681 1194.89,361.506 
  1216.32,391.193 1257.1,449.725 1297.88,510.357 1382.68,640.104 1454.06,749.268 1497.64,814.108 1541.21,876.547 1561.17,904.116 1581.13,930.933 1601.09,956.922 
  1621.05,982.011 1639.48,1004.32 1657.92,1025.76 1676.35,1046.26 1694.78,1065.79 1713.46,1084.52 1732.13,1102.16 1750.8,1118.66 1769.47,1133.97 1790.4,1149.7 
  1811.33,1163.84 1832.25,1176.37 1853.18,1187.24 1872.14,1195.64 1891.11,1202.62 1910.07,1208.18 1929.03,1212.3 1950.74,1215.24 1972.46,1216.27 1994.17,1215.38 
  2015.88,1212.58 2035.98,1208.3 2056.08,1202.39 2076.19,1194.89 2096.29,1185.8 2116.11,1175.32 2135.93,1163.36 2155.75,1149.94 2175.57,1135.12 2194.81,1119.41 
  2214.05,1102.45 2233.29,1084.27 2252.54,1064.93 2272.26,1043.95 2291.99,1021.86 2311.72,998.713 2331.44,974.574 2353.05,947.065 2374.67,918.534 2396.28,889.073 
  2417.89,858.776 2480.68,766.943 2543.47,671.415 2556.36,651.597 2569.24,631.756 
  "/>
</svg>
