<?xml version="1.0" encoding="utf-8"?>
<svg xmlns="http://www.w3.org/2000/svg" xmlns:xlink="http://www.w3.org/1999/xlink" width="672" height="480" viewBox="0 0 2688 1920">
<defs>
  <clipPath id="clip130">
    <rect x="0" y="0" width="2688" height="1920"/>
  </clipPath>
</defs>
<path clip-path="url(#clip130)" d="
M0 1920 L2688 1920 L2688 0 L0 0  Z
  " fill="#ffffff" fill-rule="evenodd" fill-opacity="1"/>
<defs>
  <clipPath id="clip131">
    <rect x="537" y="0" width="1883" height="1883"/>
  </clipPath>
</defs>
<path clip-path="url(#clip130)" d="
M300.774 1800.78 L2640.76 1800.78 L2640.76 47.2441 L300.774 47.2441  Z
  " fill="#ffffff" fill-rule="evenodd" fill-opacity="1"/>
<defs>
  <clipPath id="clip132">
    <rect x="300" y="47" width="2341" height="1755"/>
  </clipPath>
</defs>
<polyline clip-path="url(#clip132)" style="stroke:#000000; stroke-linecap:round; stroke-linejoin:round; stroke-width:2; stroke-opacity:0.1; fill:none" points="
  321.948,1800.78 321.948,47.2441 
  "/>
<polyline clip-path="url(#clip132)" style="stroke:#000000; stroke-linecap:round; stroke-linejoin:round; stroke-width:2; stroke-opacity:0.1; fill:none" points="
  772.464,1800.78 772.464,47.2441 
  "/>
<polyline clip-path="url(#clip132)" style="stroke:#000000; stroke-linecap:round; stroke-linejoin:round; stroke-width:2; stroke-opacity:0.1; fill:none" points="
  1222.98,1800.78 1222.98,47.2441 
  "/>
<polyline clip-path="url(#clip132)" style="stroke:#000000; stroke-linecap:round; stroke-linejoin:round; stroke-width:2; stroke-opacity:0.1; fill:none" points="
  1673.5,1800.78 1673.5,47.2441 
  "/>
<polyline clip-path="url(#clip132)" style="stroke:#000000; stroke-linecap:round; stroke-linejoin:round; stroke-width:2; stroke-opacity:0.1; fill:none" points="
  2124.01,1800.78 2124.01,47.2441 
  "/>
<polyline clip-path="url(#clip132)" style="stroke:#000000; stroke-linecap:round; stroke-linejoin:round; stroke-width:2; stroke-opacity:0.1; fill:none" points="
  2574.53,1800.78 2574.53,47.2441 
  "/>
<polyline clip-path="url(#clip130)" style="stroke:#000000; stroke-linecap:round; stroke-linejoin:round; stroke-width:4; stroke-opacity:1; fill:none" points="
  300.774,1800.78 2640.76,1800.78 
  "/>
<polyline clip-path="url(#clip130)" style="stroke:#000000; stroke-linecap:round; stroke-linejoin:round; stroke-width:4; stroke-opacity:1; fill:none" points="
  321.948,1800.78 321.948,1781.88 
  "/>
<polyline clip-path="url(#clip130)" style="stroke:#000000; stroke-linecap:round; stroke-linejoin:round; stroke-width:4; stroke-opacity:1; fill:none" points="
  772.464,1800.78 772.464,1781.88 
  "/>
<polyline clip-path="url(#clip130)" style="stroke:#000000; stroke-linecap:round; stroke-linejoin:round; stroke-width:4; stroke-opacity:1; fill:none" points="
  1222.98,1800.78 1222.98,1781.88 
  "/>
<polyline clip-path="url(#clip130)" style="stroke:#000000; stroke-linecap:round; stroke-linejoin:round; stroke-width:4; stroke-opacity:1; fill:none" points="
  1673.5,1800.78 1673.5,1781.88 
  "/>
<polyline clip-path="url(#clip130)" style="stroke:#000000; stroke-linecap:round; stroke-linejoin:round; stroke-width:4; stroke-opacity:1; fill:none" points="
  2124.01,1800.78 2124.01,1781.88 
  "/>
<polyline clip-path="url(#clip130)" style="stroke:#000000; stroke-linecap:round; stroke-linejoin:round; stroke-width:4; stroke-opacity:1; fill:none" points="
  2574.53,1800.78 2574.53,1781.88 
  "/>
<path clip-path="url(#clip130)" d="M321.948 1834 Q318.337 1834 316.508 1837.57 Q314.703 1841.11 314.703 1848.24 Q314.703 1855.34 316.508 1858.91 Q318.337 1862.45 321.948 1862.45 Q325.582 1862.45 327.388 1858.91 Q329.217 1855.34 329.217 1848.24 Q329.217 1841.11 327.388 1837.57 Q325.582 1834 321.948 1834 M321.948 1830.3 Q327.758 1830.3 330.814 1834.9 Q333.892 1839.49 333.892 1848.24 Q333.892 1856.96 330.814 1861.57 Q327.758 1866.15 321.948 1866.15 Q316.138 1866.15 313.059 1861.57 Q310.004 1856.96 310.004 1848.24 Q310.004 1839.49 313.059 1834.9 Q316.138 1830.3 321.948 1830.3 Z" fill="#000000" fill-rule="evenodd" fill-opacity="1" /><path clip-path="url(#clip130)" d="M747.152 1861.55 L754.791 1861.55 L754.791 1835.18 L746.481 1836.85 L746.481 1832.59 L754.745 1830.92 L759.421 1830.92 L759.421 1861.55 L767.059 1861.55 L767.059 1865.48 L747.152 1865.48 L747.152 1861.55 Z" fill="#000000" fill-rule="evenodd" fill-opacity="1" /><path clip-path="url(#clip130)" d="M786.504 1834 Q782.893 1834 781.064 1837.57 Q779.258 1841.11 779.258 1848.24 Q779.258 1855.34 781.064 1858.91 Q782.893 1862.45 786.504 1862.45 Q790.138 1862.45 791.943 1858.91 Q793.772 1855.34 793.772 1848.24 Q793.772 1841.11 791.943 1837.57 Q790.138 1834 786.504 1834 M786.504 1830.3 Q792.314 1830.3 795.369 1834.9 Q798.448 1839.49 798.448 1848.24 Q798.448 1856.96 795.369 1861.57 Q792.314 1866.15 786.504 1866.15 Q780.694 1866.15 777.615 1861.57 Q774.559 1856.96 774.559 1848.24 Q774.559 1839.49 777.615 1834.9 Q780.694 1830.3 786.504 1830.3 Z" fill="#000000" fill-rule="evenodd" fill-opacity="1" /><path clip-path="url(#clip130)" d="M1201.75 1861.55 L1218.07 1861.55 L1218.07 1865.48 L1196.13 1865.48 L1196.13 1861.55 Q1198.79 1858.79 1203.37 1854.16 Q1207.98 1849.51 1209.16 1848.17 Q1211.41 1845.65 1212.29 1843.91 Q1213.19 1842.15 1213.19 1840.46 Q1213.19 1837.71 1211.24 1835.97 Q1209.32 1834.23 1206.22 1834.23 Q1204.02 1834.23 1201.57 1835 Q1199.14 1835.76 1196.36 1837.31 L1196.36 1832.59 Q1199.18 1831.46 1201.64 1830.88 Q1204.09 1830.3 1206.13 1830.3 Q1211.5 1830.3 1214.69 1832.98 Q1217.89 1835.67 1217.89 1840.16 Q1217.89 1842.29 1217.08 1844.21 Q1216.29 1846.11 1214.18 1848.7 Q1213.61 1849.37 1210.5 1852.59 Q1207.4 1855.78 1201.75 1861.55 Z" fill="#000000" fill-rule="evenodd" fill-opacity="1" /><path clip-path="url(#clip130)" d="M1237.89 1834 Q1234.28 1834 1232.45 1837.57 Q1230.64 1841.11 1230.64 1848.24 Q1230.64 1855.34 1232.45 1858.91 Q1234.28 1862.45 1237.89 1862.45 Q1241.52 1862.45 1243.33 1858.91 Q1245.16 1855.34 1245.16 1848.24 Q1245.16 1841.11 1243.33 1837.57 Q1241.52 1834 1237.89 1834 M1237.89 1830.3 Q1243.7 1830.3 1246.75 1834.9 Q1249.83 1839.49 1249.83 1848.24 Q1249.83 1856.96 1246.75 1861.57 Q1243.7 1866.15 1237.89 1866.15 Q1232.08 1866.15 1229 1861.57 Q1225.94 1856.96 1225.94 1848.24 Q1225.94 1839.49 1229 1834.9 Q1232.08 1830.3 1237.89 1830.3 Z" fill="#000000" fill-rule="evenodd" fill-opacity="1" /><path clip-path="url(#clip130)" d="M1662.34 1846.85 Q1665.7 1847.57 1667.57 1849.84 Q1669.47 1852.1 1669.47 1855.44 Q1669.47 1860.55 1665.95 1863.35 Q1662.43 1866.15 1655.95 1866.15 Q1653.78 1866.15 1651.46 1865.71 Q1649.17 1865.3 1646.71 1864.44 L1646.71 1859.93 Q1648.66 1861.06 1650.97 1861.64 Q1653.29 1862.22 1655.81 1862.22 Q1660.21 1862.22 1662.5 1860.48 Q1664.82 1858.75 1664.82 1855.44 Q1664.82 1852.38 1662.66 1850.67 Q1660.53 1848.93 1656.71 1848.93 L1652.69 1848.93 L1652.69 1845.09 L1656.9 1845.09 Q1660.35 1845.09 1662.18 1843.72 Q1664.01 1842.34 1664.01 1839.74 Q1664.01 1837.08 1662.11 1835.67 Q1660.23 1834.23 1656.71 1834.23 Q1654.79 1834.23 1652.59 1834.65 Q1650.4 1835.07 1647.76 1835.95 L1647.76 1831.78 Q1650.42 1831.04 1652.73 1830.67 Q1655.07 1830.3 1657.13 1830.3 Q1662.46 1830.3 1665.56 1832.73 Q1668.66 1835.14 1668.66 1839.26 Q1668.66 1842.13 1667.02 1844.12 Q1665.37 1846.09 1662.34 1846.85 Z" fill="#000000" fill-rule="evenodd" fill-opacity="1" /><path clip-path="url(#clip130)" d="M1688.34 1834 Q1684.72 1834 1682.9 1837.57 Q1681.09 1841.11 1681.09 1848.24 Q1681.09 1855.34 1682.9 1858.91 Q1684.72 1862.45 1688.34 1862.45 Q1691.97 1862.45 1693.77 1858.91 Q1695.6 1855.34 1695.6 1848.24 Q1695.6 1841.11 1693.77 1837.57 Q1691.97 1834 1688.34 1834 M1688.34 1830.3 Q1694.15 1830.3 1697.2 1834.9 Q1700.28 1839.49 1700.28 1848.24 Q1700.28 1856.96 1697.2 1861.57 Q1694.15 1866.15 1688.34 1866.15 Q1682.52 1866.15 1679.45 1861.57 Q1676.39 1856.96 1676.39 1848.24 Q1676.39 1839.49 1679.45 1834.9 Q1682.52 1830.3 1688.34 1830.3 Z" fill="#000000" fill-rule="evenodd" fill-opacity="1" /><path clip-path="url(#clip130)" d="M2112.18 1835 L2100.38 1853.45 L2112.18 1853.45 L2112.18 1835 M2110.96 1830.92 L2116.84 1830.92 L2116.84 1853.45 L2121.77 1853.45 L2121.77 1857.34 L2116.84 1857.34 L2116.84 1865.48 L2112.18 1865.48 L2112.18 1857.34 L2096.58 1857.34 L2096.58 1852.82 L2110.96 1830.92 Z" fill="#000000" fill-rule="evenodd" fill-opacity="1" /><path clip-path="url(#clip130)" d="M2139.5 1834 Q2135.89 1834 2134.06 1837.57 Q2132.25 1841.11 2132.25 1848.24 Q2132.25 1855.34 2134.06 1858.91 Q2135.89 1862.45 2139.5 1862.45 Q2143.13 1862.45 2144.94 1858.91 Q2146.77 1855.34 2146.77 1848.24 Q2146.77 1841.11 2144.94 1837.57 Q2143.13 1834 2139.5 1834 M2139.5 1830.3 Q2145.31 1830.3 2148.37 1834.9 Q2151.44 1839.49 2151.44 1848.24 Q2151.44 1856.96 2148.37 1861.57 Q2145.31 1866.15 2139.5 1866.15 Q2133.69 1866.15 2130.61 1861.57 Q2127.56 1856.96 2127.56 1848.24 Q2127.56 1839.49 2130.61 1834.9 Q2133.69 1830.3 2139.5 1830.3 Z" fill="#000000" fill-rule="evenodd" fill-opacity="1" /><path clip-path="url(#clip130)" d="M2549.23 1830.92 L2567.59 1830.92 L2567.59 1834.86 L2553.51 1834.86 L2553.51 1843.33 Q2554.53 1842.98 2555.55 1842.82 Q2556.57 1842.64 2557.59 1842.64 Q2563.37 1842.64 2566.75 1845.81 Q2570.13 1848.98 2570.13 1854.4 Q2570.13 1859.97 2566.66 1863.08 Q2563.19 1866.15 2556.87 1866.15 Q2554.69 1866.15 2552.42 1865.78 Q2550.18 1865.41 2547.77 1864.67 L2547.77 1859.97 Q2549.85 1861.11 2552.08 1861.66 Q2554.3 1862.22 2556.78 1862.22 Q2560.78 1862.22 2563.12 1860.11 Q2565.46 1858.01 2565.46 1854.4 Q2565.46 1850.78 2563.12 1848.68 Q2560.78 1846.57 2556.78 1846.57 Q2554.9 1846.57 2553.03 1846.99 Q2551.17 1847.4 2549.23 1848.28 L2549.23 1830.92 Z" fill="#000000" fill-rule="evenodd" fill-opacity="1" /><path clip-path="url(#clip130)" d="M2589.34 1834 Q2585.73 1834 2583.9 1837.57 Q2582.1 1841.11 2582.1 1848.24 Q2582.1 1855.34 2583.9 1858.91 Q2585.73 1862.45 2589.34 1862.45 Q2592.98 1862.45 2594.78 1858.91 Q2596.61 1855.34 2596.61 1848.24 Q2596.61 1841.11 2594.78 1837.57 Q2592.98 1834 2589.34 1834 M2589.34 1830.3 Q2595.15 1830.3 2598.21 1834.9 Q2601.29 1839.49 2601.29 1848.24 Q2601.29 1856.96 2598.21 1861.57 Q2595.15 1866.15 2589.34 1866.15 Q2583.53 1866.15 2580.46 1861.57 Q2577.4 1856.96 2577.4 1848.24 Q2577.4 1839.49 2580.46 1834.9 Q2583.53 1830.3 2589.34 1830.3 Z" fill="#000000" fill-rule="evenodd" fill-opacity="1" /><polyline clip-path="url(#clip132)" style="stroke:#000000; stroke-linecap:round; stroke-linejoin:round; stroke-width:2; stroke-opacity:0.1; fill:none" points="
  300.774,1751.15 2640.76,1751.15 
  "/>
<polyline clip-path="url(#clip132)" style="stroke:#000000; stroke-linecap:round; stroke-linejoin:round; stroke-width:2; stroke-opacity:0.1; fill:none" points="
  300.774,1454.35 2640.76,1454.35 
  "/>
<polyline clip-path="url(#clip132)" style="stroke:#000000; stroke-linecap:round; stroke-linejoin:round; stroke-width:2; stroke-opacity:0.1; fill:none" points="
  300.774,1157.56 2640.76,1157.56 
  "/>
<polyline clip-path="url(#clip132)" style="stroke:#000000; stroke-linecap:round; stroke-linejoin:round; stroke-width:2; stroke-opacity:0.1; fill:none" points="
  300.774,860.759 2640.76,860.759 
  "/>
<polyline clip-path="url(#clip132)" style="stroke:#000000; stroke-linecap:round; stroke-linejoin:round; stroke-width:2; stroke-opacity:0.1; fill:none" points="
  300.774,563.961 2640.76,563.961 
  "/>
<polyline clip-path="url(#clip132)" style="stroke:#000000; stroke-linecap:round; stroke-linejoin:round; stroke-width:2; stroke-opacity:0.1; fill:none" points="
  300.774,267.164 2640.76,267.164 
  "/>
<polyline clip-path="url(#clip130)" style="stroke:#000000; stroke-linecap:round; stroke-linejoin:round; stroke-width:4; stroke-opacity:1; fill:none" points="
  300.774,1800.78 300.774,47.2441 
  "/>
<polyline clip-path="url(#clip130)" style="stroke:#000000; stroke-linecap:round; stroke-linejoin:round; stroke-width:4; stroke-opacity:1; fill:none" points="
  300.774,1751.15 319.671,1751.15 
  "/>
<polyline clip-path="url(#clip130)" style="stroke:#000000; stroke-linecap:round; stroke-linejoin:round; stroke-width:4; stroke-opacity:1; fill:none" points="
  300.774,1454.35 319.671,1454.35 
  "/>
<polyline clip-path="url(#clip130)" style="stroke:#000000; stroke-linecap:round; stroke-linejoin:round; stroke-width:4; stroke-opacity:1; fill:none" points="
  300.774,1157.56 319.671,1157.56 
  "/>
<polyline clip-path="url(#clip130)" style="stroke:#000000; stroke-linecap:round; stroke-linejoin:round; stroke-width:4; stroke-opacity:1; fill:none" points="
  300.774,860.759 319.671,860.759 
  "/>
<polyline clip-path="url(#clip130)" style="stroke:#000000; stroke-linecap:round; stroke-linejoin:round; stroke-width:4; stroke-opacity:1; fill:none" points="
  300.774,563.961 319.671,563.961 
  "/>
<polyline clip-path="url(#clip130)" style="stroke:#000000; stroke-linecap:round; stroke-linejoin:round; stroke-width:4; stroke-opacity:1; fill:none" points="
  300.774,267.164 319.671,267.164 
  "/>
<path clip-path="url(#clip130)" d="M248.509 1736.95 Q244.898 1736.95 243.07 1740.51 Q241.264 1744.06 241.264 1751.19 Q241.264 1758.29 243.07 1761.86 Q244.898 1765.4 248.509 1765.4 Q252.144 1765.4 253.949 1761.86 Q255.778 1758.29 255.778 1751.19 Q255.778 1744.06 253.949 1740.51 Q252.144 1736.95 248.509 1736.95 M248.509 1733.25 Q254.32 1733.25 257.375 1737.85 Q260.454 1742.44 260.454 1751.19 Q260.454 1759.91 257.375 1764.52 Q254.32 1769.1 248.509 1769.1 Q242.699 1769.1 239.621 1764.52 Q236.565 1759.91 236.565 1751.19 Q236.565 1742.44 239.621 1737.85 Q242.699 1733.25 248.509 1733.25 Z" fill="#000000" fill-rule="evenodd" fill-opacity="1" /><path clip-path="url(#clip130)" d="M53.1169 1474.15 L60.7558 1474.15 L60.7558 1447.78 L52.4456 1449.45 L52.4456 1445.19 L60.7095 1443.52 L65.3854 1443.52 L65.3854 1474.15 L73.0242 1474.15 L73.0242 1478.08 L53.1169 1478.08 L53.1169 1474.15 Z" fill="#000000" fill-rule="evenodd" fill-opacity="1" /><path clip-path="url(#clip130)" d="M82.4686 1472.2 L87.3528 1472.2 L87.3528 1478.08 L82.4686 1478.08 L82.4686 1472.2 Z" fill="#000000" fill-rule="evenodd" fill-opacity="1" /><path clip-path="url(#clip130)" d="M107.538 1446.6 Q103.927 1446.6 102.098 1450.16 Q100.293 1453.71 100.293 1460.84 Q100.293 1467.94 102.098 1471.51 Q103.927 1475.05 107.538 1475.05 Q111.172 1475.05 112.978 1471.51 Q114.806 1467.94 114.806 1460.84 Q114.806 1453.71 112.978 1450.16 Q111.172 1446.6 107.538 1446.6 M107.538 1442.9 Q113.348 1442.9 116.404 1447.5 Q119.482 1452.09 119.482 1460.84 Q119.482 1469.56 116.404 1474.17 Q113.348 1478.75 107.538 1478.75 Q101.728 1478.75 98.6491 1474.17 Q95.5935 1469.56 95.5935 1460.84 Q95.5935 1452.09 98.6491 1447.5 Q101.728 1442.9 107.538 1442.9 Z" fill="#000000" fill-rule="evenodd" fill-opacity="1" /><path clip-path="url(#clip130)" d="M155.871 1452.62 L145.292 1463.24 L155.871 1473.82 L153.116 1476.62 L142.491 1466 L131.866 1476.62 L129.135 1473.82 L139.691 1463.24 L129.135 1452.62 L131.866 1449.82 L142.491 1460.44 L153.116 1449.82 L155.871 1452.62 Z" fill="#000000" fill-rule="evenodd" fill-opacity="1" /><path clip-path="url(#clip130)" d="M168.232 1474.15 L175.871 1474.15 L175.871 1447.78 L167.561 1449.45 L167.561 1445.19 L175.825 1443.52 L180.5 1443.52 L180.5 1474.15 L188.139 1474.15 L188.139 1478.08 L168.232 1478.08 L168.232 1474.15 Z" fill="#000000" fill-rule="evenodd" fill-opacity="1" /><path clip-path="url(#clip130)" d="M207.584 1446.6 Q203.973 1446.6 202.144 1450.16 Q200.338 1453.71 200.338 1460.84 Q200.338 1467.94 202.144 1471.51 Q203.973 1475.05 207.584 1475.05 Q211.218 1475.05 213.023 1471.51 Q214.852 1467.94 214.852 1460.84 Q214.852 1453.71 213.023 1450.16 Q211.218 1446.6 207.584 1446.6 M207.584 1442.9 Q213.394 1442.9 216.449 1447.5 Q219.528 1452.09 219.528 1460.84 Q219.528 1469.56 216.449 1474.17 Q213.394 1478.75 207.584 1478.75 Q201.774 1478.75 198.695 1474.17 Q195.639 1469.56 195.639 1460.84 Q195.639 1452.09 198.695 1447.5 Q201.774 1442.9 207.584 1442.9 Z" fill="#000000" fill-rule="evenodd" fill-opacity="1" /><path clip-path="url(#clip130)" d="M220.073 1447.47 L226.28 1447.47 L226.28 1426.05 L219.528 1427.41 L219.528 1423.94 L226.242 1422.59 L230.042 1422.59 L230.042 1447.47 L236.248 1447.47 L236.248 1450.67 L220.073 1450.67 L220.073 1447.47 Z" fill="#000000" fill-rule="evenodd" fill-opacity="1" /><path clip-path="url(#clip130)" d="M247.194 1447.47 L260.454 1447.47 L260.454 1450.67 L242.624 1450.67 L242.624 1447.47 Q244.787 1445.24 248.511 1441.47 Q252.254 1437.69 253.213 1436.6 Q255.037 1434.55 255.752 1433.14 Q256.485 1431.71 256.485 1430.34 Q256.485 1428.1 254.905 1426.69 Q253.344 1425.28 250.824 1425.28 Q249.037 1425.28 247.044 1425.9 Q245.069 1426.52 242.812 1427.78 L242.812 1423.94 Q245.107 1423.02 247.1 1422.55 Q249.094 1422.08 250.749 1422.08 Q255.112 1422.08 257.708 1424.26 Q260.303 1426.45 260.303 1430.09 Q260.303 1431.83 259.645 1433.39 Q259.006 1434.93 257.294 1437.04 Q256.824 1437.58 254.304 1440.19 Q251.783 1442.79 247.194 1447.47 Z" fill="#000000" fill-rule="evenodd" fill-opacity="1" /><path clip-path="url(#clip130)" d="M56.3345 1177.35 L72.6539 1177.35 L72.6539 1181.28 L50.7095 1181.28 L50.7095 1177.35 Q53.3715 1174.59 57.9549 1169.96 Q62.5613 1165.31 63.7419 1163.97 Q65.9872 1161.45 66.8668 1159.71 Q67.7696 1157.95 67.7696 1156.26 Q67.7696 1153.51 65.8252 1151.77 Q63.9039 1150.03 60.8021 1150.03 Q58.603 1150.03 56.1493 1150.8 Q53.7188 1151.56 50.941 1153.11 L50.941 1148.39 Q53.7651 1147.26 56.2188 1146.68 Q58.6724 1146.1 60.7095 1146.1 Q66.0798 1146.1 69.2742 1148.78 Q72.4687 1151.47 72.4687 1155.96 Q72.4687 1158.09 71.6585 1160.01 Q70.8715 1161.91 68.765 1164.5 Q68.1863 1165.17 65.0845 1168.39 Q61.9826 1171.58 56.3345 1177.35 Z" fill="#000000" fill-rule="evenodd" fill-opacity="1" /><path clip-path="url(#clip130)" d="M82.4686 1175.4 L87.3528 1175.4 L87.3528 1181.28 L82.4686 1181.28 L82.4686 1175.4 Z" fill="#000000" fill-rule="evenodd" fill-opacity="1" /><path clip-path="url(#clip130)" d="M107.538 1149.8 Q103.927 1149.8 102.098 1153.37 Q100.293 1156.91 100.293 1164.04 Q100.293 1171.14 102.098 1174.71 Q103.927 1178.25 107.538 1178.25 Q111.172 1178.25 112.978 1174.71 Q114.806 1171.14 114.806 1164.04 Q114.806 1156.91 112.978 1153.37 Q111.172 1149.8 107.538 1149.8 M107.538 1146.1 Q113.348 1146.1 116.404 1150.71 Q119.482 1155.29 119.482 1164.04 Q119.482 1172.77 116.404 1177.37 Q113.348 1181.95 107.538 1181.95 Q101.728 1181.95 98.6491 1177.37 Q95.5935 1172.77 95.5935 1164.04 Q95.5935 1155.29 98.6491 1150.71 Q101.728 1146.1 107.538 1146.1 Z" fill="#000000" fill-rule="evenodd" fill-opacity="1" /><path clip-path="url(#clip130)" d="M155.871 1155.82 L145.292 1166.45 L155.871 1177.02 L153.116 1179.83 L142.491 1169.2 L131.866 1179.83 L129.135 1177.02 L139.691 1166.45 L129.135 1155.82 L131.866 1153.02 L142.491 1163.64 L153.116 1153.02 L155.871 1155.82 Z" fill="#000000" fill-rule="evenodd" fill-opacity="1" /><path clip-path="url(#clip130)" d="M168.232 1177.35 L175.871 1177.35 L175.871 1150.98 L167.561 1152.65 L167.561 1148.39 L175.825 1146.72 L180.5 1146.72 L180.5 1177.35 L188.139 1177.35 L188.139 1181.28 L168.232 1181.28 L168.232 1177.35 Z" fill="#000000" fill-rule="evenodd" fill-opacity="1" /><path clip-path="url(#clip130)" d="M207.584 1149.8 Q203.973 1149.8 202.144 1153.37 Q200.338 1156.91 200.338 1164.04 Q200.338 1171.14 202.144 1174.71 Q203.973 1178.25 207.584 1178.25 Q211.218 1178.25 213.023 1174.71 Q214.852 1171.14 214.852 1164.04 Q214.852 1156.91 213.023 1153.37 Q211.218 1149.8 207.584 1149.8 M207.584 1146.1 Q213.394 1146.1 216.449 1150.71 Q219.528 1155.29 219.528 1164.04 Q219.528 1172.77 216.449 1177.37 Q213.394 1181.95 207.584 1181.95 Q201.774 1181.95 198.695 1177.37 Q195.639 1172.77 195.639 1164.04 Q195.639 1155.29 198.695 1150.71 Q201.774 1146.1 207.584 1146.1 Z" fill="#000000" fill-rule="evenodd" fill-opacity="1" /><path clip-path="url(#clip130)" d="M220.073 1150.68 L226.28 1150.68 L226.28 1129.25 L219.528 1130.61 L219.528 1127.15 L226.242 1125.79 L230.042 1125.79 L230.042 1150.68 L236.248 1150.68 L236.248 1153.87 L220.073 1153.87 L220.073 1150.68 Z" fill="#000000" fill-rule="evenodd" fill-opacity="1" /><path clip-path="url(#clip130)" d="M247.194 1150.68 L260.454 1150.68 L260.454 1153.87 L242.624 1153.87 L242.624 1150.68 Q244.787 1148.44 248.511 1144.68 Q252.254 1140.9 253.213 1139.8 Q255.037 1137.75 255.752 1136.34 Q256.485 1134.91 256.485 1133.54 Q256.485 1131.3 254.905 1129.89 Q253.344 1128.48 250.824 1128.48 Q249.037 1128.48 247.044 1129.1 Q245.069 1129.72 242.812 1130.98 L242.812 1127.15 Q245.107 1126.23 247.1 1125.76 Q249.094 1125.29 250.749 1125.29 Q255.112 1125.29 257.708 1127.47 Q260.303 1129.65 260.303 1133.3 Q260.303 1135.03 259.645 1136.59 Q259.006 1138.13 257.294 1140.24 Q256.824 1140.78 254.304 1143.4 Q251.783 1145.99 247.194 1150.68 Z" fill="#000000" fill-rule="evenodd" fill-opacity="1" /><path clip-path="url(#clip130)" d="M66.4733 865.852 Q69.8298 866.57 71.7048 868.838 Q73.6029 871.107 73.6029 874.44 Q73.6029 879.556 70.0844 882.356 Q66.5659 885.157 60.0845 885.157 Q57.9086 885.157 55.5938 884.718 Q53.3021 884.301 50.8484 883.444 L50.8484 878.931 Q52.7928 880.065 55.1077 880.644 Q57.4225 881.222 59.9456 881.222 Q64.3437 881.222 66.6354 879.486 Q68.9502 877.75 68.9502 874.44 Q68.9502 871.384 66.7974 869.671 Q64.6678 867.935 60.8484 867.935 L56.8206 867.935 L56.8206 864.093 L61.0335 864.093 Q64.4826 864.093 66.3113 862.727 Q68.14 861.338 68.14 858.746 Q68.14 856.083 66.2419 854.671 Q64.3669 853.236 60.8484 853.236 Q58.9271 853.236 56.728 853.653 Q54.529 854.07 51.8901 854.949 L51.8901 850.783 Q54.5521 850.042 56.8669 849.671 Q59.2049 849.301 61.265 849.301 Q66.5891 849.301 69.6909 851.732 Q72.7927 854.139 72.7927 858.259 Q72.7927 861.13 71.1492 863.12 Q69.5057 865.088 66.4733 865.852 Z" fill="#000000" fill-rule="evenodd" fill-opacity="1" /><path clip-path="url(#clip130)" d="M82.4686 878.607 L87.3528 878.607 L87.3528 884.486 L82.4686 884.486 L82.4686 878.607 Z" fill="#000000" fill-rule="evenodd" fill-opacity="1" /><path clip-path="url(#clip130)" d="M107.538 853.005 Q103.927 853.005 102.098 856.57 Q100.293 860.111 100.293 867.241 Q100.293 874.347 102.098 877.912 Q103.927 881.454 107.538 881.454 Q111.172 881.454 112.978 877.912 Q114.806 874.347 114.806 867.241 Q114.806 860.111 112.978 856.57 Q111.172 853.005 107.538 853.005 M107.538 849.301 Q113.348 849.301 116.404 853.908 Q119.482 858.491 119.482 867.241 Q119.482 875.968 116.404 880.574 Q113.348 885.157 107.538 885.157 Q101.728 885.157 98.6491 880.574 Q95.5935 875.968 95.5935 867.241 Q95.5935 858.491 98.6491 853.908 Q101.728 849.301 107.538 849.301 Z" fill="#000000" fill-rule="evenodd" fill-opacity="1" /><path clip-path="url(#clip130)" d="M155.871 859.023 L145.292 869.648 L155.871 880.227 L153.116 883.028 L142.491 872.403 L131.866 883.028 L129.135 880.227 L139.691 869.648 L129.135 859.023 L131.866 856.222 L142.491 866.847 L153.116 856.222 L155.871 859.023 Z" fill="#000000" fill-rule="evenodd" fill-opacity="1" /><path clip-path="url(#clip130)" d="M168.232 880.551 L175.871 880.551 L175.871 854.185 L167.561 855.852 L167.561 851.593 L175.825 849.926 L180.5 849.926 L180.5 880.551 L188.139 880.551 L188.139 884.486 L168.232 884.486 L168.232 880.551 Z" fill="#000000" fill-rule="evenodd" fill-opacity="1" /><path clip-path="url(#clip130)" d="M207.584 853.005 Q203.973 853.005 202.144 856.57 Q200.338 860.111 200.338 867.241 Q200.338 874.347 202.144 877.912 Q203.973 881.454 207.584 881.454 Q211.218 881.454 213.023 877.912 Q214.852 874.347 214.852 867.241 Q214.852 860.111 213.023 856.57 Q211.218 853.005 207.584 853.005 M207.584 849.301 Q213.394 849.301 216.449 853.908 Q219.528 858.491 219.528 867.241 Q219.528 875.968 216.449 880.574 Q213.394 885.157 207.584 885.157 Q201.774 885.157 198.695 880.574 Q195.639 875.968 195.639 867.241 Q195.639 858.491 198.695 853.908 Q201.774 849.301 207.584 849.301 Z" fill="#000000" fill-rule="evenodd" fill-opacity="1" /><path clip-path="url(#clip130)" d="M220.073 853.878 L226.28 853.878 L226.28 832.456 L219.528 833.81 L219.528 830.35 L226.242 828.996 L230.042 828.996 L230.042 853.878 L236.248 853.878 L236.248 857.076 L220.073 857.076 L220.073 853.878 Z" fill="#000000" fill-rule="evenodd" fill-opacity="1" /><path clip-path="url(#clip130)" d="M247.194 853.878 L260.454 853.878 L260.454 857.076 L242.624 857.076 L242.624 853.878 Q244.787 851.64 248.511 847.879 Q252.254 844.098 253.213 843.007 Q255.037 840.957 255.752 839.547 Q256.485 838.117 256.485 836.745 Q256.485 834.506 254.905 833.096 Q253.344 831.685 250.824 831.685 Q249.037 831.685 247.044 832.306 Q245.069 832.927 242.812 834.187 L242.812 830.35 Q245.107 829.428 247.1 828.958 Q249.094 828.488 250.749 828.488 Q255.112 828.488 257.708 830.67 Q260.303 832.851 260.303 836.5 Q260.303 838.23 259.645 839.791 Q259.006 841.334 257.294 843.44 Q256.824 843.985 254.304 846.6 Q251.783 849.195 247.194 853.878 Z" fill="#000000" fill-rule="evenodd" fill-opacity="1" /><path clip-path="url(#clip130)" d="M65.1539 557.203 L53.3484 575.652 L65.1539 575.652 L65.1539 557.203 M63.927 553.129 L69.8066 553.129 L69.8066 575.652 L74.7372 575.652 L74.7372 579.541 L69.8066 579.541 L69.8066 587.689 L65.1539 587.689 L65.1539 579.541 L49.5521 579.541 L49.5521 575.027 L63.927 553.129 Z" fill="#000000" fill-rule="evenodd" fill-opacity="1" /><path clip-path="url(#clip130)" d="M82.4686 581.809 L87.3528 581.809 L87.3528 587.689 L82.4686 587.689 L82.4686 581.809 Z" fill="#000000" fill-rule="evenodd" fill-opacity="1" /><path clip-path="url(#clip130)" d="M107.538 556.207 Q103.927 556.207 102.098 559.772 Q100.293 563.314 100.293 570.443 Q100.293 577.55 102.098 581.115 Q103.927 584.656 107.538 584.656 Q111.172 584.656 112.978 581.115 Q114.806 577.55 114.806 570.443 Q114.806 563.314 112.978 559.772 Q111.172 556.207 107.538 556.207 M107.538 552.504 Q113.348 552.504 116.404 557.11 Q119.482 561.693 119.482 570.443 Q119.482 579.17 116.404 583.777 Q113.348 588.36 107.538 588.36 Q101.728 588.36 98.6491 583.777 Q95.5935 579.17 95.5935 570.443 Q95.5935 561.693 98.6491 557.11 Q101.728 552.504 107.538 552.504 Z" fill="#000000" fill-rule="evenodd" fill-opacity="1" /><path clip-path="url(#clip130)" d="M155.871 562.226 L145.292 572.851 L155.871 583.429 L153.116 586.23 L142.491 575.605 L131.866 586.23 L129.135 583.429 L139.691 572.851 L129.135 562.226 L131.866 559.425 L142.491 570.05 L153.116 559.425 L155.871 562.226 Z" fill="#000000" fill-rule="evenodd" fill-opacity="1" /><path clip-path="url(#clip130)" d="M168.232 583.753 L175.871 583.753 L175.871 557.388 L167.561 559.055 L167.561 554.795 L175.825 553.129 L180.5 553.129 L180.5 583.753 L188.139 583.753 L188.139 587.689 L168.232 587.689 L168.232 583.753 Z" fill="#000000" fill-rule="evenodd" fill-opacity="1" /><path clip-path="url(#clip130)" d="M207.584 556.207 Q203.973 556.207 202.144 559.772 Q200.338 563.314 200.338 570.443 Q200.338 577.55 202.144 581.115 Q203.973 584.656 207.584 584.656 Q211.218 584.656 213.023 581.115 Q214.852 577.55 214.852 570.443 Q214.852 563.314 213.023 559.772 Q211.218 556.207 207.584 556.207 M207.584 552.504 Q213.394 552.504 216.449 557.11 Q219.528 561.693 219.528 570.443 Q219.528 579.17 216.449 583.777 Q213.394 588.36 207.584 588.36 Q201.774 588.36 198.695 583.777 Q195.639 579.17 195.639 570.443 Q195.639 561.693 198.695 557.11 Q201.774 552.504 207.584 552.504 Z" fill="#000000" fill-rule="evenodd" fill-opacity="1" /><path clip-path="url(#clip130)" d="M220.073 557.081 L226.28 557.081 L226.28 535.659 L219.528 537.013 L219.528 533.552 L226.242 532.198 L230.042 532.198 L230.042 557.081 L236.248 557.081 L236.248 560.278 L220.073 560.278 L220.073 557.081 Z" fill="#000000" fill-rule="evenodd" fill-opacity="1" /><path clip-path="url(#clip130)" d="M247.194 557.081 L260.454 557.081 L260.454 560.278 L242.624 560.278 L242.624 557.081 Q244.787 554.843 248.511 551.081 Q252.254 547.301 253.213 546.21 Q255.037 544.16 255.752 542.749 Q256.485 541.32 256.485 539.947 Q256.485 537.709 254.905 536.298 Q253.344 534.888 250.824 534.888 Q249.037 534.888 247.044 535.508 Q245.069 536.129 242.812 537.389 L242.812 533.552 Q245.107 532.631 247.1 532.161 Q249.094 531.69 250.749 531.69 Q255.112 531.69 257.708 533.872 Q260.303 536.054 260.303 539.703 Q260.303 541.433 259.645 542.994 Q259.006 544.536 257.294 546.643 Q256.824 547.188 254.304 549.802 Q251.783 552.398 247.194 557.081 Z" fill="#000000" fill-rule="evenodd" fill-opacity="1" /><path clip-path="url(#clip130)" d="M52.353 256.331 L70.7094 256.331 L70.7094 260.266 L56.6354 260.266 L56.6354 268.738 Q57.6539 268.391 58.6724 268.229 Q59.691 268.044 60.7095 268.044 Q66.4965 268.044 69.8761 271.215 Q73.2557 274.387 73.2557 279.803 Q73.2557 285.382 69.7835 288.484 Q66.3113 291.562 59.9919 291.562 Q57.816 291.562 55.5475 291.192 Q53.3021 290.822 50.8947 290.081 L50.8947 285.382 Q52.978 286.516 55.2002 287.072 Q57.4225 287.627 59.8993 287.627 Q63.9039 287.627 66.2419 285.521 Q68.5798 283.414 68.5798 279.803 Q68.5798 276.192 66.2419 274.086 Q63.9039 271.979 59.8993 271.979 Q58.0243 271.979 56.1493 272.396 Q54.2975 272.813 52.353 273.692 L52.353 256.331 Z" fill="#000000" fill-rule="evenodd" fill-opacity="1" /><path clip-path="url(#clip130)" d="M82.4686 285.012 L87.3528 285.012 L87.3528 290.891 L82.4686 290.891 L82.4686 285.012 Z" fill="#000000" fill-rule="evenodd" fill-opacity="1" /><path clip-path="url(#clip130)" d="M107.538 259.41 Q103.927 259.41 102.098 262.975 Q100.293 266.516 100.293 273.646 Q100.293 280.752 102.098 284.317 Q103.927 287.859 107.538 287.859 Q111.172 287.859 112.978 284.317 Q114.806 280.752 114.806 273.646 Q114.806 266.516 112.978 262.975 Q111.172 259.41 107.538 259.41 M107.538 255.706 Q113.348 255.706 116.404 260.313 Q119.482 264.896 119.482 273.646 Q119.482 282.373 116.404 286.979 Q113.348 291.562 107.538 291.562 Q101.728 291.562 98.6491 286.979 Q95.5935 282.373 95.5935 273.646 Q95.5935 264.896 98.6491 260.313 Q101.728 255.706 107.538 255.706 Z" fill="#000000" fill-rule="evenodd" fill-opacity="1" /><path clip-path="url(#clip130)" d="M155.871 265.428 L145.292 276.053 L155.871 286.632 L153.116 289.433 L142.491 278.808 L131.866 289.433 L129.135 286.632 L139.691 276.053 L129.135 265.428 L131.866 262.627 L142.491 273.252 L153.116 262.627 L155.871 265.428 Z" fill="#000000" fill-rule="evenodd" fill-opacity="1" /><path clip-path="url(#clip130)" d="M168.232 286.956 L175.871 286.956 L175.871 260.59 L167.561 262.257 L167.561 257.998 L175.825 256.331 L180.5 256.331 L180.5 286.956 L188.139 286.956 L188.139 290.891 L168.232 290.891 L168.232 286.956 Z" fill="#000000" fill-rule="evenodd" fill-opacity="1" /><path clip-path="url(#clip130)" d="M207.584 259.41 Q203.973 259.41 202.144 262.975 Q200.338 266.516 200.338 273.646 Q200.338 280.752 202.144 284.317 Q203.973 287.859 207.584 287.859 Q211.218 287.859 213.023 284.317 Q214.852 280.752 214.852 273.646 Q214.852 266.516 213.023 262.975 Q211.218 259.41 207.584 259.41 M207.584 255.706 Q213.394 255.706 216.449 260.313 Q219.528 264.896 219.528 273.646 Q219.528 282.373 216.449 286.979 Q213.394 291.562 207.584 291.562 Q201.774 291.562 198.695 286.979 Q195.639 282.373 195.639 273.646 Q195.639 264.896 198.695 260.313 Q201.774 255.706 207.584 255.706 Z" fill="#000000" fill-rule="evenodd" fill-opacity="1" /><path clip-path="url(#clip130)" d="M220.073 260.283 L226.28 260.283 L226.28 238.861 L219.528 240.216 L219.528 236.755 L226.242 235.401 L230.042 235.401 L230.042 260.283 L236.248 260.283 L236.248 263.481 L220.073 263.481 L220.073 260.283 Z" fill="#000000" fill-rule="evenodd" fill-opacity="1" /><path clip-path="url(#clip130)" d="M247.194 260.283 L260.454 260.283 L260.454 263.481 L242.624 263.481 L242.624 260.283 Q244.787 258.045 248.511 254.284 Q252.254 250.503 253.213 249.413 Q255.037 247.362 255.752 245.952 Q256.485 244.523 256.485 243.15 Q256.485 240.911 254.905 239.501 Q253.344 238.09 250.824 238.09 Q249.037 238.09 247.044 238.711 Q245.069 239.332 242.812 240.592 L242.812 236.755 Q245.107 235.833 247.1 235.363 Q249.094 234.893 250.749 234.893 Q255.112 234.893 257.708 237.075 Q260.303 239.256 260.303 242.905 Q260.303 244.635 259.645 246.196 Q259.006 247.739 257.294 249.845 Q256.824 250.391 254.304 253.005 Q251.783 255.6 247.194 260.283 Z" fill="#000000" fill-rule="evenodd" fill-opacity="1" /><circle clip-path="url(#clip132)" cx="367" cy="1751.15" r="14.4" fill="#009af9" fill-rule="evenodd" fill-opacity="1" stroke="#000000" stroke-opacity="1" stroke-width="3.84"/>
<circle clip-path="url(#clip132)" cx="412.051" cy="1751.15" r="14.4" fill="#009af9" fill-rule="evenodd" fill-opacity="1" stroke="#000000" stroke-opacity="1" stroke-width="3.84"/>
<circle clip-path="url(#clip132)" cx="457.103" cy="1751.15" r="14.4" fill="#009af9" fill-rule="evenodd" fill-opacity="1" stroke="#000000" stroke-opacity="1" stroke-width="3.84"/>
<circle clip-path="url(#clip132)" cx="502.155" cy="1751.15" r="14.4" fill="#009af9" fill-rule="evenodd" fill-opacity="1" stroke="#000000" stroke-opacity="1" stroke-width="3.84"/>
<circle clip-path="url(#clip132)" cx="547.206" cy="1751.15" r="14.4" fill="#009af9" fill-rule="evenodd" fill-opacity="1" stroke="#000000" stroke-opacity="1" stroke-width="3.84"/>
<circle clip-path="url(#clip132)" cx="592.258" cy="1751.15" r="14.4" fill="#009af9" fill-rule="evenodd" fill-opacity="1" stroke="#000000" stroke-opacity="1" stroke-width="3.84"/>
<circle clip-path="url(#clip132)" cx="637.31" cy="1751.15" r="14.4" fill="#009af9" fill-rule="evenodd" fill-opacity="1" stroke="#000000" stroke-opacity="1" stroke-width="3.84"/>
<circle clip-path="url(#clip132)" cx="682.361" cy="1751.15" r="14.4" fill="#009af9" fill-rule="evenodd" fill-opacity="1" stroke="#000000" stroke-opacity="1" stroke-width="3.84"/>
<circle clip-path="url(#clip132)" cx="727.413" cy="1751.15" r="14.4" fill="#009af9" fill-rule="evenodd" fill-opacity="1" stroke="#000000" stroke-opacity="1" stroke-width="3.84"/>
<circle clip-path="url(#clip132)" cx="772.464" cy="1751.15" r="14.4" fill="#009af9" fill-rule="evenodd" fill-opacity="1" stroke="#000000" stroke-opacity="1" stroke-width="3.84"/>
<circle clip-path="url(#clip132)" cx="817.516" cy="1751.15" r="14.4" fill="#009af9" fill-rule="evenodd" fill-opacity="1" stroke="#000000" stroke-opacity="1" stroke-width="3.84"/>
<circle clip-path="url(#clip132)" cx="862.568" cy="1751.15" r="14.4" fill="#009af9" fill-rule="evenodd" fill-opacity="1" stroke="#000000" stroke-opacity="1" stroke-width="3.84"/>
<circle clip-path="url(#clip132)" cx="907.619" cy="1751.15" r="14.4" fill="#009af9" fill-rule="evenodd" fill-opacity="1" stroke="#000000" stroke-opacity="1" stroke-width="3.84"/>
<circle clip-path="url(#clip132)" cx="952.671" cy="1751.15" r="14.4" fill="#009af9" fill-rule="evenodd" fill-opacity="1" stroke="#000000" stroke-opacity="1" stroke-width="3.84"/>
<circle clip-path="url(#clip132)" cx="997.723" cy="1751.15" r="14.4" fill="#009af9" fill-rule="evenodd" fill-opacity="1" stroke="#000000" stroke-opacity="1" stroke-width="3.84"/>
<circle clip-path="url(#clip132)" cx="1042.77" cy="1751.15" r="14.4" fill="#009af9" fill-rule="evenodd" fill-opacity="1" stroke="#000000" stroke-opacity="1" stroke-width="3.84"/>
<circle clip-path="url(#clip132)" cx="1087.83" cy="1751.15" r="14.4" fill="#009af9" fill-rule="evenodd" fill-opacity="1" stroke="#000000" stroke-opacity="1" stroke-width="3.84"/>
<circle clip-path="url(#clip132)" cx="1132.88" cy="1751.15" r="14.4" fill="#009af9" fill-rule="evenodd" fill-opacity="1" stroke="#000000" stroke-opacity="1" stroke-width="3.84"/>
<circle clip-path="url(#clip132)" cx="1177.93" cy="1751.15" r="14.4" fill="#009af9" fill-rule="evenodd" fill-opacity="1" stroke="#000000" stroke-opacity="1" stroke-width="3.84"/>
<circle clip-path="url(#clip132)" cx="1222.98" cy="1751.15" r="14.4" fill="#009af9" fill-rule="evenodd" fill-opacity="1" stroke="#000000" stroke-opacity="1" stroke-width="3.84"/>
<circle clip-path="url(#clip132)" cx="1268.03" cy="1751.15" r="14.4" fill="#009af9" fill-rule="evenodd" fill-opacity="1" stroke="#000000" stroke-opacity="1" stroke-width="3.84"/>
<circle clip-path="url(#clip132)" cx="1313.08" cy="1751.15" r="14.4" fill="#009af9" fill-rule="evenodd" fill-opacity="1" stroke="#000000" stroke-opacity="1" stroke-width="3.84"/>
<circle clip-path="url(#clip132)" cx="1358.14" cy="1751.15" r="14.4" fill="#009af9" fill-rule="evenodd" fill-opacity="1" stroke="#000000" stroke-opacity="1" stroke-width="3.84"/>
<circle clip-path="url(#clip132)" cx="1403.19" cy="1751.15" r="14.4" fill="#009af9" fill-rule="evenodd" fill-opacity="1" stroke="#000000" stroke-opacity="1" stroke-width="3.84"/>
<circle clip-path="url(#clip132)" cx="1448.24" cy="1751.15" r="14.4" fill="#009af9" fill-rule="evenodd" fill-opacity="1" stroke="#000000" stroke-opacity="1" stroke-width="3.84"/>
<circle clip-path="url(#clip132)" cx="1493.29" cy="1751.15" r="14.4" fill="#009af9" fill-rule="evenodd" fill-opacity="1" stroke="#000000" stroke-opacity="1" stroke-width="3.84"/>
<circle clip-path="url(#clip132)" cx="1538.34" cy="1751.15" r="14.4" fill="#009af9" fill-rule="evenodd" fill-opacity="1" stroke="#000000" stroke-opacity="1" stroke-width="3.84"/>
<circle clip-path="url(#clip132)" cx="1583.39" cy="1751.15" r="14.4" fill="#009af9" fill-rule="evenodd" fill-opacity="1" stroke="#000000" stroke-opacity="1" stroke-width="3.84"/>
<circle clip-path="url(#clip132)" cx="1628.45" cy="1751.15" r="14.4" fill="#009af9" fill-rule="evenodd" fill-opacity="1" stroke="#000000" stroke-opacity="1" stroke-width="3.84"/>
<circle clip-path="url(#clip132)" cx="1673.5" cy="1751.15" r="14.4" fill="#009af9" fill-rule="evenodd" fill-opacity="1" stroke="#000000" stroke-opacity="1" stroke-width="3.84"/>
<circle clip-path="url(#clip132)" cx="1718.55" cy="1751.15" r="14.4" fill="#009af9" fill-rule="evenodd" fill-opacity="1" stroke="#000000" stroke-opacity="1" stroke-width="3.84"/>
<circle clip-path="url(#clip132)" cx="1763.6" cy="1751.14" r="14.4" fill="#009af9" fill-rule="evenodd" fill-opacity="1" stroke="#000000" stroke-opacity="1" stroke-width="3.84"/>
<circle clip-path="url(#clip132)" cx="1808.65" cy="1751.13" r="14.4" fill="#009af9" fill-rule="evenodd" fill-opacity="1" stroke="#000000" stroke-opacity="1" stroke-width="3.84"/>
<circle clip-path="url(#clip132)" cx="1853.7" cy="1751.11" r="14.4" fill="#009af9" fill-rule="evenodd" fill-opacity="1" stroke="#000000" stroke-opacity="1" stroke-width="3.84"/>
<circle clip-path="url(#clip132)" cx="1898.76" cy="1751.08" r="14.4" fill="#009af9" fill-rule="evenodd" fill-opacity="1" stroke="#000000" stroke-opacity="1" stroke-width="3.84"/>
<circle clip-path="url(#clip132)" cx="1943.81" cy="1751.01" r="14.4" fill="#009af9" fill-rule="evenodd" fill-opacity="1" stroke="#000000" stroke-opacity="1" stroke-width="3.84"/>
<circle clip-path="url(#clip132)" cx="1988.86" cy="1750.88" r="14.4" fill="#009af9" fill-rule="evenodd" fill-opacity="1" stroke="#000000" stroke-opacity="1" stroke-width="3.84"/>
<circle clip-path="url(#clip132)" cx="2033.91" cy="1750.62" r="14.4" fill="#009af9" fill-rule="evenodd" fill-opacity="1" stroke="#000000" stroke-opacity="1" stroke-width="3.84"/>
<circle clip-path="url(#clip132)" cx="2078.96" cy="1750.12" r="14.4" fill="#009af9" fill-rule="evenodd" fill-opacity="1" stroke="#000000" stroke-opacity="1" stroke-width="3.84"/>
<circle clip-path="url(#clip132)" cx="2124.01" cy="1749.14" r="14.4" fill="#009af9" fill-rule="evenodd" fill-opacity="1" stroke="#000000" stroke-opacity="1" stroke-width="3.84"/>
<circle clip-path="url(#clip132)" cx="2169.07" cy="1747.22" r="14.4" fill="#009af9" fill-rule="evenodd" fill-opacity="1" stroke="#000000" stroke-opacity="1" stroke-width="3.84"/>
<circle clip-path="url(#clip132)" cx="2214.12" cy="1743.47" r="14.4" fill="#009af9" fill-rule="evenodd" fill-opacity="1" stroke="#000000" stroke-opacity="1" stroke-width="3.84"/>
<circle clip-path="url(#clip132)" cx="2259.17" cy="1736.15" r="14.4" fill="#009af9" fill-rule="evenodd" fill-opacity="1" stroke="#000000" stroke-opacity="1" stroke-width="3.84"/>
<circle clip-path="url(#clip132)" cx="2304.22" cy="1721.82" r="14.4" fill="#009af9" fill-rule="evenodd" fill-opacity="1" stroke="#000000" stroke-opacity="1" stroke-width="3.84"/>
<circle clip-path="url(#clip132)" cx="2349.27" cy="1693.77" r="14.4" fill="#009af9" fill-rule="evenodd" fill-opacity="1" stroke="#000000" stroke-opacity="1" stroke-width="3.84"/>
<circle clip-path="url(#clip132)" cx="2394.32" cy="1638.86" r="14.4" fill="#009af9" fill-rule="evenodd" fill-opacity="1" stroke="#000000" stroke-opacity="1" stroke-width="3.84"/>
<circle clip-path="url(#clip132)" cx="2439.38" cy="1531.31" r="14.4" fill="#009af9" fill-rule="evenodd" fill-opacity="1" stroke="#000000" stroke-opacity="1" stroke-width="3.84"/>
<circle clip-path="url(#clip132)" cx="2484.43" cy="1320.53" r="14.4" fill="#009af9" fill-rule="evenodd" fill-opacity="1" stroke="#000000" stroke-opacity="1" stroke-width="3.84"/>
<circle clip-path="url(#clip132)" cx="2529.48" cy="907.302" r="14.4" fill="#009af9" fill-rule="evenodd" fill-opacity="1" stroke="#000000" stroke-opacity="1" stroke-width="3.84"/>
<circle clip-path="url(#clip132)" cx="2574.53" cy="96.8724" r="14.4" fill="#009af9" fill-rule="evenodd" fill-opacity="1" stroke="#000000" stroke-opacity="1" stroke-width="3.84"/>
</svg>
