<?xml version="1.0" encoding="utf-8"?>
<svg xmlns="http://www.w3.org/2000/svg" xmlns:xlink="http://www.w3.org/1999/xlink" width="672" height="480" viewBox="0 0 2688 1920">
<defs>
  <clipPath id="clip480">
    <rect x="0" y="0" width="2688" height="1920"/>
  </clipPath>
</defs>
<path clip-path="url(#clip480)" d="
M0 1920 L2688 1920 L2688 0 L0 0  Z
  " fill="#ffffff" fill-rule="evenodd" fill-opacity="1"/>
<defs>
  <clipPath id="clip481">
    <rect x="537" y="0" width="1883" height="1883"/>
  </clipPath>
</defs>
<path clip-path="url(#clip480)" d="
M189.64 1800.78 L2640.76 1800.78 L2640.76 47.2441 L189.64 47.2441  Z
  " fill="#ffffff" fill-rule="evenodd" fill-opacity="1"/>
<defs>
  <clipPath id="clip482">
    <rect x="189" y="47" width="2452" height="1755"/>
  </clipPath>
</defs>
<polyline clip-path="url(#clip482)" style="stroke:#000000; stroke-linecap:round; stroke-linejoin:round; stroke-width:2; stroke-opacity:0.1; fill:none" points="
  211.82,1800.78 211.82,47.2441 
  "/>
<polyline clip-path="url(#clip482)" style="stroke:#000000; stroke-linecap:round; stroke-linejoin:round; stroke-width:2; stroke-opacity:0.1; fill:none" points="
  683.733,1800.78 683.733,47.2441 
  "/>
<polyline clip-path="url(#clip482)" style="stroke:#000000; stroke-linecap:round; stroke-linejoin:round; stroke-width:2; stroke-opacity:0.1; fill:none" points="
  1155.65,1800.78 1155.65,47.2441 
  "/>
<polyline clip-path="url(#clip482)" style="stroke:#000000; stroke-linecap:round; stroke-linejoin:round; stroke-width:2; stroke-opacity:0.1; fill:none" points="
  1627.56,1800.78 1627.56,47.2441 
  "/>
<polyline clip-path="url(#clip482)" style="stroke:#000000; stroke-linecap:round; stroke-linejoin:round; stroke-width:2; stroke-opacity:0.1; fill:none" points="
  2099.47,1800.78 2099.47,47.2441 
  "/>
<polyline clip-path="url(#clip482)" style="stroke:#000000; stroke-linecap:round; stroke-linejoin:round; stroke-width:2; stroke-opacity:0.1; fill:none" points="
  2571.38,1800.78 2571.38,47.2441 
  "/>
<polyline clip-path="url(#clip480)" style="stroke:#000000; stroke-linecap:round; stroke-linejoin:round; stroke-width:4; stroke-opacity:1; fill:none" points="
  189.64,1800.78 2640.76,1800.78 
  "/>
<polyline clip-path="url(#clip480)" style="stroke:#000000; stroke-linecap:round; stroke-linejoin:round; stroke-width:4; stroke-opacity:1; fill:none" points="
  211.82,1800.78 211.82,1781.88 
  "/>
<polyline clip-path="url(#clip480)" style="stroke:#000000; stroke-linecap:round; stroke-linejoin:round; stroke-width:4; stroke-opacity:1; fill:none" points="
  683.733,1800.78 683.733,1781.88 
  "/>
<polyline clip-path="url(#clip480)" style="stroke:#000000; stroke-linecap:round; stroke-linejoin:round; stroke-width:4; stroke-opacity:1; fill:none" points="
  1155.65,1800.78 1155.65,1781.88 
  "/>
<polyline clip-path="url(#clip480)" style="stroke:#000000; stroke-linecap:round; stroke-linejoin:round; stroke-width:4; stroke-opacity:1; fill:none" points="
  1627.56,1800.78 1627.56,1781.88 
  "/>
<polyline clip-path="url(#clip480)" style="stroke:#000000; stroke-linecap:round; stroke-linejoin:round; stroke-width:4; stroke-opacity:1; fill:none" points="
  2099.47,1800.78 2099.47,1781.88 
  "/>
<polyline clip-path="url(#clip480)" style="stroke:#000000; stroke-linecap:round; stroke-linejoin:round; stroke-width:4; stroke-opacity:1; fill:none" points="
  2571.38,1800.78 2571.38,1781.88 
  "/>
<path clip-path="url(#clip480)" d="M211.82 1834 Q208.209 1834 206.38 1837.57 Q204.575 1841.11 204.575 1848.24 Q204.575 1855.34 206.38 1858.91 Q208.209 1862.45 211.82 1862.45 Q215.454 1862.45 217.26 1858.91 Q219.088 1855.34 219.088 1848.24 Q219.088 1841.11 217.26 1837.57 Q215.454 1834 211.82 1834 M211.82 1830.3 Q217.63 1830.3 220.686 1834.9 Q223.764 1839.49 223.764 1848.24 Q223.764 1856.96 220.686 1861.57 Q217.63 1866.15 211.82 1866.15 Q206.01 1866.15 202.931 1861.57 Q199.876 1856.96 199.876 1848.24 Q199.876 1839.49 202.931 1834.9 Q206.01 1830.3 211.82 1830.3 Z" fill="#000000" fill-rule="evenodd" fill-opacity="1" /><path clip-path="url(#clip480)" d="M658.421 1861.55 L666.059 1861.55 L666.059 1835.18 L657.749 1836.85 L657.749 1832.59 L666.013 1830.92 L670.689 1830.92 L670.689 1861.55 L678.328 1861.55 L678.328 1865.48 L658.421 1865.48 L658.421 1861.55 Z" fill="#000000" fill-rule="evenodd" fill-opacity="1" /><path clip-path="url(#clip480)" d="M697.772 1834 Q694.161 1834 692.332 1837.57 Q690.527 1841.11 690.527 1848.24 Q690.527 1855.34 692.332 1858.91 Q694.161 1862.45 697.772 1862.45 Q701.406 1862.45 703.212 1858.91 Q705.041 1855.34 705.041 1848.24 Q705.041 1841.11 703.212 1837.57 Q701.406 1834 697.772 1834 M697.772 1830.3 Q703.582 1830.3 706.638 1834.9 Q709.717 1839.49 709.717 1848.24 Q709.717 1856.96 706.638 1861.57 Q703.582 1866.15 697.772 1866.15 Q691.962 1866.15 688.883 1861.57 Q685.828 1856.96 685.828 1848.24 Q685.828 1839.49 688.883 1834.9 Q691.962 1830.3 697.772 1830.3 Z" fill="#000000" fill-rule="evenodd" fill-opacity="1" /><path clip-path="url(#clip480)" d="M1134.42 1861.55 L1150.74 1861.55 L1150.74 1865.48 L1128.79 1865.48 L1128.79 1861.55 Q1131.46 1858.79 1136.04 1854.16 Q1140.65 1849.51 1141.83 1848.17 Q1144.07 1845.65 1144.95 1843.91 Q1145.85 1842.15 1145.85 1840.46 Q1145.85 1837.71 1143.91 1835.97 Q1141.99 1834.23 1138.89 1834.23 Q1136.69 1834.23 1134.23 1835 Q1131.8 1835.76 1129.03 1837.31 L1129.03 1832.59 Q1131.85 1831.46 1134.3 1830.88 Q1136.76 1830.3 1138.79 1830.3 Q1144.16 1830.3 1147.36 1832.98 Q1150.55 1835.67 1150.55 1840.16 Q1150.55 1842.29 1149.74 1844.21 Q1148.96 1846.11 1146.85 1848.7 Q1146.27 1849.37 1143.17 1852.59 Q1140.07 1855.78 1134.42 1861.55 Z" fill="#000000" fill-rule="evenodd" fill-opacity="1" /><path clip-path="url(#clip480)" d="M1170.55 1834 Q1166.94 1834 1165.11 1837.57 Q1163.31 1841.11 1163.31 1848.24 Q1163.31 1855.34 1165.11 1858.91 Q1166.94 1862.45 1170.55 1862.45 Q1174.19 1862.45 1175.99 1858.91 Q1177.82 1855.34 1177.82 1848.24 Q1177.82 1841.11 1175.99 1837.57 Q1174.19 1834 1170.55 1834 M1170.55 1830.3 Q1176.36 1830.3 1179.42 1834.9 Q1182.5 1839.49 1182.5 1848.24 Q1182.5 1856.96 1179.42 1861.57 Q1176.36 1866.15 1170.55 1866.15 Q1164.74 1866.15 1161.66 1861.57 Q1158.61 1856.96 1158.61 1848.24 Q1158.61 1839.49 1161.66 1834.9 Q1164.74 1830.3 1170.55 1830.3 Z" fill="#000000" fill-rule="evenodd" fill-opacity="1" /><path clip-path="url(#clip480)" d="M1616.4 1846.85 Q1619.76 1847.57 1621.63 1849.84 Q1623.53 1852.1 1623.53 1855.44 Q1623.53 1860.55 1620.01 1863.35 Q1616.49 1866.15 1610.01 1866.15 Q1607.84 1866.15 1605.52 1865.71 Q1603.23 1865.3 1600.78 1864.44 L1600.78 1859.93 Q1602.72 1861.06 1605.04 1861.64 Q1607.35 1862.22 1609.87 1862.22 Q1614.27 1862.22 1616.56 1860.48 Q1618.88 1858.75 1618.88 1855.44 Q1618.88 1852.38 1616.73 1850.67 Q1614.6 1848.93 1610.78 1848.93 L1606.75 1848.93 L1606.75 1845.09 L1610.96 1845.09 Q1614.41 1845.09 1616.24 1843.72 Q1618.07 1842.34 1618.07 1839.74 Q1618.07 1837.08 1616.17 1835.67 Q1614.3 1834.23 1610.78 1834.23 Q1608.86 1834.23 1606.66 1834.65 Q1604.46 1835.07 1601.82 1835.95 L1601.82 1831.78 Q1604.48 1831.04 1606.8 1830.67 Q1609.13 1830.3 1611.19 1830.3 Q1616.52 1830.3 1619.62 1832.73 Q1622.72 1835.14 1622.72 1839.26 Q1622.72 1842.13 1621.08 1844.12 Q1619.43 1846.09 1616.4 1846.85 Z" fill="#000000" fill-rule="evenodd" fill-opacity="1" /><path clip-path="url(#clip480)" d="M1642.4 1834 Q1638.79 1834 1636.96 1837.57 Q1635.15 1841.11 1635.15 1848.24 Q1635.15 1855.34 1636.96 1858.91 Q1638.79 1862.45 1642.4 1862.45 Q1646.03 1862.45 1647.84 1858.91 Q1649.67 1855.34 1649.67 1848.24 Q1649.67 1841.11 1647.84 1837.57 Q1646.03 1834 1642.4 1834 M1642.4 1830.3 Q1648.21 1830.3 1651.26 1834.9 Q1654.34 1839.49 1654.34 1848.24 Q1654.34 1856.96 1651.26 1861.57 Q1648.21 1866.15 1642.4 1866.15 Q1636.59 1866.15 1633.51 1861.57 Q1630.45 1856.96 1630.45 1848.24 Q1630.45 1839.49 1633.51 1834.9 Q1636.59 1830.3 1642.4 1830.3 Z" fill="#000000" fill-rule="evenodd" fill-opacity="1" /><path clip-path="url(#clip480)" d="M2087.64 1835 L2075.84 1853.45 L2087.64 1853.45 L2087.64 1835 M2086.42 1830.92 L2092.3 1830.92 L2092.3 1853.45 L2097.23 1853.45 L2097.23 1857.34 L2092.3 1857.34 L2092.3 1865.48 L2087.64 1865.48 L2087.64 1857.34 L2072.04 1857.34 L2072.04 1852.82 L2086.42 1830.92 Z" fill="#000000" fill-rule="evenodd" fill-opacity="1" /><path clip-path="url(#clip480)" d="M2114.96 1834 Q2111.35 1834 2109.52 1837.57 Q2107.71 1841.11 2107.71 1848.24 Q2107.71 1855.34 2109.52 1858.91 Q2111.35 1862.45 2114.96 1862.45 Q2118.59 1862.45 2120.4 1858.91 Q2122.23 1855.34 2122.23 1848.24 Q2122.23 1841.11 2120.4 1837.57 Q2118.59 1834 2114.96 1834 M2114.96 1830.3 Q2120.77 1830.3 2123.82 1834.9 Q2126.9 1839.49 2126.9 1848.24 Q2126.9 1856.96 2123.82 1861.57 Q2120.77 1866.15 2114.96 1866.15 Q2109.15 1866.15 2106.07 1861.57 Q2103.01 1856.96 2103.01 1848.24 Q2103.01 1839.49 2106.07 1834.9 Q2109.15 1830.3 2114.96 1830.3 Z" fill="#000000" fill-rule="evenodd" fill-opacity="1" /><path clip-path="url(#clip480)" d="M2546.08 1830.92 L2564.44 1830.92 L2564.44 1834.86 L2550.37 1834.86 L2550.37 1843.33 Q2551.38 1842.98 2552.4 1842.82 Q2553.42 1842.64 2554.44 1842.64 Q2560.23 1842.64 2563.61 1845.81 Q2566.99 1848.98 2566.99 1854.4 Q2566.99 1859.97 2563.51 1863.08 Q2560.04 1866.15 2553.72 1866.15 Q2551.55 1866.15 2549.28 1865.78 Q2547.03 1865.41 2544.63 1864.67 L2544.63 1859.97 Q2546.71 1861.11 2548.93 1861.66 Q2551.15 1862.22 2553.63 1862.22 Q2557.63 1862.22 2559.97 1860.11 Q2562.31 1858.01 2562.31 1854.4 Q2562.31 1850.78 2559.97 1848.68 Q2557.63 1846.57 2553.63 1846.57 Q2551.76 1846.57 2549.88 1846.99 Q2548.03 1847.4 2546.08 1848.28 L2546.08 1830.92 Z" fill="#000000" fill-rule="evenodd" fill-opacity="1" /><path clip-path="url(#clip480)" d="M2586.2 1834 Q2582.59 1834 2580.76 1837.57 Q2578.95 1841.11 2578.95 1848.24 Q2578.95 1855.34 2580.76 1858.91 Q2582.59 1862.45 2586.2 1862.45 Q2589.83 1862.45 2591.64 1858.91 Q2593.47 1855.34 2593.47 1848.24 Q2593.47 1841.11 2591.64 1837.57 Q2589.83 1834 2586.2 1834 M2586.2 1830.3 Q2592.01 1830.3 2595.07 1834.9 Q2598.14 1839.49 2598.14 1848.24 Q2598.14 1856.96 2595.07 1861.57 Q2592.01 1866.15 2586.2 1866.15 Q2580.39 1866.15 2577.31 1861.57 Q2574.26 1856.96 2574.26 1848.24 Q2574.26 1839.49 2577.31 1834.9 Q2580.39 1830.3 2586.2 1830.3 Z" fill="#000000" fill-rule="evenodd" fill-opacity="1" /><polyline clip-path="url(#clip482)" style="stroke:#000000; stroke-linecap:round; stroke-linejoin:round; stroke-width:2; stroke-opacity:0.1; fill:none" points="
  189.64,1478.36 2640.76,1478.36 
  "/>
<polyline clip-path="url(#clip482)" style="stroke:#000000; stroke-linecap:round; stroke-linejoin:round; stroke-width:2; stroke-opacity:0.1; fill:none" points="
  189.64,1069.18 2640.76,1069.18 
  "/>
<polyline clip-path="url(#clip482)" style="stroke:#000000; stroke-linecap:round; stroke-linejoin:round; stroke-width:2; stroke-opacity:0.1; fill:none" points="
  189.64,660.002 2640.76,660.002 
  "/>
<polyline clip-path="url(#clip482)" style="stroke:#000000; stroke-linecap:round; stroke-linejoin:round; stroke-width:2; stroke-opacity:0.1; fill:none" points="
  189.64,250.822 2640.76,250.822 
  "/>
<polyline clip-path="url(#clip480)" style="stroke:#000000; stroke-linecap:round; stroke-linejoin:round; stroke-width:4; stroke-opacity:1; fill:none" points="
  189.64,1800.78 189.64,47.2441 
  "/>
<polyline clip-path="url(#clip480)" style="stroke:#000000; stroke-linecap:round; stroke-linejoin:round; stroke-width:4; stroke-opacity:1; fill:none" points="
  189.64,1478.36 208.538,1478.36 
  "/>
<polyline clip-path="url(#clip480)" style="stroke:#000000; stroke-linecap:round; stroke-linejoin:round; stroke-width:4; stroke-opacity:1; fill:none" points="
  189.64,1069.18 208.538,1069.18 
  "/>
<polyline clip-path="url(#clip480)" style="stroke:#000000; stroke-linecap:round; stroke-linejoin:round; stroke-width:4; stroke-opacity:1; fill:none" points="
  189.64,660.002 208.538,660.002 
  "/>
<polyline clip-path="url(#clip480)" style="stroke:#000000; stroke-linecap:round; stroke-linejoin:round; stroke-width:4; stroke-opacity:1; fill:none" points="
  189.64,250.822 208.538,250.822 
  "/>
<path clip-path="url(#clip480)" d="M62.0752 1464.16 Q58.4641 1464.16 56.6354 1467.73 Q54.8299 1471.27 54.8299 1478.4 Q54.8299 1485.5 56.6354 1489.07 Q58.4641 1492.61 62.0752 1492.61 Q65.7094 1492.61 67.515 1489.07 Q69.3437 1485.5 69.3437 1478.4 Q69.3437 1471.27 67.515 1467.73 Q65.7094 1464.16 62.0752 1464.16 M62.0752 1460.46 Q67.8854 1460.46 70.9409 1465.07 Q74.0196 1469.65 74.0196 1478.4 Q74.0196 1487.13 70.9409 1491.73 Q67.8854 1496.32 62.0752 1496.32 Q56.2651 1496.32 53.1864 1491.73 Q50.1308 1487.13 50.1308 1478.4 Q50.1308 1469.65 53.1864 1465.07 Q56.2651 1460.46 62.0752 1460.46 Z" fill="#000000" fill-rule="evenodd" fill-opacity="1" /><path clip-path="url(#clip480)" d="M82.2371 1489.76 L87.1214 1489.76 L87.1214 1495.64 L82.2371 1495.64 L82.2371 1489.76 Z" fill="#000000" fill-rule="evenodd" fill-opacity="1" /><path clip-path="url(#clip480)" d="M98.1167 1491.71 L105.756 1491.71 L105.756 1465.34 L97.4454 1467.01 L97.4454 1462.75 L105.709 1461.08 L110.385 1461.08 L110.385 1491.71 L118.024 1491.71 L118.024 1495.64 L98.1167 1495.64 L98.1167 1491.71 Z" fill="#000000" fill-rule="evenodd" fill-opacity="1" /><path clip-path="url(#clip480)" d="M137.468 1479.23 Q134.135 1479.23 132.214 1481.01 Q130.316 1482.8 130.316 1485.92 Q130.316 1489.05 132.214 1490.83 Q134.135 1492.61 137.468 1492.61 Q140.802 1492.61 142.723 1490.83 Q144.644 1489.02 144.644 1485.92 Q144.644 1482.8 142.723 1481.01 Q140.825 1479.23 137.468 1479.23 M132.792 1477.24 Q129.783 1476.5 128.093 1474.44 Q126.427 1472.38 126.427 1469.42 Q126.427 1465.27 129.367 1462.87 Q132.329 1460.46 137.468 1460.46 Q142.63 1460.46 145.57 1462.87 Q148.51 1465.27 148.51 1469.42 Q148.51 1472.38 146.82 1474.44 Q145.153 1476.5 142.167 1477.24 Q145.547 1478.03 147.422 1480.32 Q149.32 1482.61 149.32 1485.92 Q149.32 1490.94 146.241 1493.63 Q143.186 1496.32 137.468 1496.32 Q131.751 1496.32 128.672 1493.63 Q125.617 1490.94 125.617 1485.92 Q125.617 1482.61 127.515 1480.32 Q129.413 1478.03 132.792 1477.24 M131.079 1469.86 Q131.079 1472.54 132.746 1474.05 Q134.436 1475.55 137.468 1475.55 Q140.478 1475.55 142.167 1474.05 Q143.88 1472.54 143.88 1469.86 Q143.88 1467.17 142.167 1465.67 Q140.478 1464.16 137.468 1464.16 Q134.436 1464.16 132.746 1465.67 Q131.079 1467.17 131.079 1469.86 Z" fill="#000000" fill-rule="evenodd" fill-opacity="1" /><path clip-path="url(#clip480)" d="M61.9826 1054.98 Q58.3715 1054.98 56.5428 1058.55 Q54.7373 1062.09 54.7373 1069.22 Q54.7373 1076.32 56.5428 1079.89 Q58.3715 1083.43 61.9826 1083.43 Q65.6169 1083.43 67.4224 1079.89 Q69.2511 1076.32 69.2511 1069.22 Q69.2511 1062.09 67.4224 1058.55 Q65.6169 1054.98 61.9826 1054.98 M61.9826 1051.28 Q67.7928 1051.28 70.8483 1055.88 Q73.927 1060.47 73.927 1069.22 Q73.927 1077.94 70.8483 1082.55 Q67.7928 1087.13 61.9826 1087.13 Q56.1725 1087.13 53.0938 1082.55 Q50.0382 1077.94 50.0382 1069.22 Q50.0382 1060.47 53.0938 1055.88 Q56.1725 1051.28 61.9826 1051.28 Z" fill="#000000" fill-rule="evenodd" fill-opacity="1" /><path clip-path="url(#clip480)" d="M82.1445 1080.58 L87.0288 1080.58 L87.0288 1086.46 L82.1445 1086.46 L82.1445 1080.58 Z" fill="#000000" fill-rule="evenodd" fill-opacity="1" /><path clip-path="url(#clip480)" d="M101.242 1082.53 L117.561 1082.53 L117.561 1086.46 L95.6167 1086.46 L95.6167 1082.53 Q98.2787 1079.77 102.862 1075.14 Q107.468 1070.49 108.649 1069.15 Q110.894 1066.63 111.774 1064.89 Q112.677 1063.13 112.677 1061.44 Q112.677 1058.69 110.732 1056.95 Q108.811 1055.21 105.709 1055.21 Q103.51 1055.21 101.056 1055.98 Q98.6259 1056.74 95.8482 1058.29 L95.8482 1053.57 Q98.6722 1052.44 101.126 1051.86 Q103.58 1051.28 105.617 1051.28 Q110.987 1051.28 114.181 1053.96 Q117.376 1056.65 117.376 1061.14 Q117.376 1063.27 116.566 1065.19 Q115.779 1067.09 113.672 1069.68 Q113.093 1070.35 109.992 1073.57 Q106.89 1076.76 101.242 1082.53 Z" fill="#000000" fill-rule="evenodd" fill-opacity="1" /><path clip-path="url(#clip480)" d="M137.376 1054.98 Q133.765 1054.98 131.936 1058.55 Q130.13 1062.09 130.13 1069.22 Q130.13 1076.32 131.936 1079.89 Q133.765 1083.43 137.376 1083.43 Q141.01 1083.43 142.816 1079.89 Q144.644 1076.32 144.644 1069.22 Q144.644 1062.09 142.816 1058.55 Q141.01 1054.98 137.376 1054.98 M137.376 1051.28 Q143.186 1051.28 146.241 1055.88 Q149.32 1060.47 149.32 1069.22 Q149.32 1077.94 146.241 1082.55 Q143.186 1087.13 137.376 1087.13 Q131.566 1087.13 128.487 1082.55 Q125.431 1077.94 125.431 1069.22 Q125.431 1060.47 128.487 1055.88 Q131.566 1051.28 137.376 1051.28 Z" fill="#000000" fill-rule="evenodd" fill-opacity="1" /><path clip-path="url(#clip480)" d="M63.5798 645.801 Q59.9687 645.801 58.14 649.366 Q56.3345 652.907 56.3345 660.037 Q56.3345 667.144 58.14 670.708 Q59.9687 674.25 63.5798 674.25 Q67.2141 674.25 69.0196 670.708 Q70.8483 667.144 70.8483 660.037 Q70.8483 652.907 69.0196 649.366 Q67.2141 645.801 63.5798 645.801 M63.5798 642.097 Q69.39 642.097 72.4455 646.704 Q75.5242 651.287 75.5242 660.037 Q75.5242 668.764 72.4455 673.37 Q69.39 677.954 63.5798 677.954 Q57.7697 677.954 54.691 673.37 Q51.6354 668.764 51.6354 660.037 Q51.6354 651.287 54.691 646.704 Q57.7697 642.097 63.5798 642.097 Z" fill="#000000" fill-rule="evenodd" fill-opacity="1" /><path clip-path="url(#clip480)" d="M83.7418 671.403 L88.626 671.403 L88.626 677.282 L83.7418 677.282 L83.7418 671.403 Z" fill="#000000" fill-rule="evenodd" fill-opacity="1" /><path clip-path="url(#clip480)" d="M102.839 673.347 L119.158 673.347 L119.158 677.282 L97.2139 677.282 L97.2139 673.347 Q99.8759 670.593 104.459 665.963 Q109.066 661.31 110.246 659.968 Q112.492 657.444 113.371 655.708 Q114.274 653.949 114.274 652.259 Q114.274 649.505 112.33 647.769 Q110.408 646.033 107.306 646.033 Q105.107 646.033 102.654 646.796 Q100.223 647.56 97.4454 649.111 L97.4454 644.389 Q100.269 643.255 102.723 642.676 Q105.177 642.097 107.214 642.097 Q112.584 642.097 115.779 644.783 Q118.973 647.468 118.973 651.958 Q118.973 654.088 118.163 656.009 Q117.376 657.907 115.269 660.5 Q114.691 661.171 111.589 664.389 Q108.487 667.583 102.839 673.347 Z" fill="#000000" fill-rule="evenodd" fill-opacity="1" /><path clip-path="url(#clip480)" d="M133.001 673.347 L149.32 673.347 L149.32 677.282 L127.376 677.282 L127.376 673.347 Q130.038 670.593 134.621 665.963 Q139.228 661.31 140.408 659.968 Q142.653 657.444 143.533 655.708 Q144.436 653.949 144.436 652.259 Q144.436 649.505 142.491 647.769 Q140.57 646.033 137.468 646.033 Q135.269 646.033 132.816 646.796 Q130.385 647.56 127.607 649.111 L127.607 644.389 Q130.431 643.255 132.885 642.676 Q135.339 642.097 137.376 642.097 Q142.746 642.097 145.94 644.783 Q149.135 647.468 149.135 651.958 Q149.135 654.088 148.325 656.009 Q147.538 657.907 145.431 660.5 Q144.853 661.171 141.751 664.389 Q138.649 667.583 133.001 673.347 Z" fill="#000000" fill-rule="evenodd" fill-opacity="1" /><path clip-path="url(#clip480)" d="M61.4965 236.62 Q57.8854 236.62 56.0567 240.185 Q54.2512 243.727 54.2512 250.856 Q54.2512 257.963 56.0567 261.528 Q57.8854 265.069 61.4965 265.069 Q65.1307 265.069 66.9363 261.528 Q68.765 257.963 68.765 250.856 Q68.765 243.727 66.9363 240.185 Q65.1307 236.62 61.4965 236.62 M61.4965 232.917 Q67.3067 232.917 70.3622 237.523 Q73.4409 242.106 73.4409 250.856 Q73.4409 259.583 70.3622 264.19 Q67.3067 268.773 61.4965 268.773 Q55.6864 268.773 52.6077 264.19 Q49.5521 259.583 49.5521 250.856 Q49.5521 242.106 52.6077 237.523 Q55.6864 232.917 61.4965 232.917 Z" fill="#000000" fill-rule="evenodd" fill-opacity="1" /><path clip-path="url(#clip480)" d="M81.6584 262.222 L86.5427 262.222 L86.5427 268.102 L81.6584 268.102 L81.6584 262.222 Z" fill="#000000" fill-rule="evenodd" fill-opacity="1" /><path clip-path="url(#clip480)" d="M100.756 264.166 L117.075 264.166 L117.075 268.102 L95.1306 268.102 L95.1306 264.166 Q97.7926 261.412 102.376 256.782 Q106.982 252.129 108.163 250.787 Q110.408 248.264 111.288 246.528 Q112.191 244.768 112.191 243.079 Q112.191 240.324 110.246 238.588 Q108.325 236.852 105.223 236.852 Q103.024 236.852 100.57 237.616 Q98.1398 238.38 95.3621 239.93 L95.3621 235.208 Q98.1861 234.074 100.64 233.495 Q103.094 232.917 105.131 232.917 Q110.501 232.917 113.695 235.602 Q116.89 238.287 116.89 242.778 Q116.89 244.907 116.08 246.829 Q115.293 248.727 113.186 251.319 Q112.607 251.991 109.506 255.208 Q106.404 258.403 100.756 264.166 Z" fill="#000000" fill-rule="evenodd" fill-opacity="1" /><path clip-path="url(#clip480)" d="M139.737 237.616 L127.931 256.065 L139.737 256.065 L139.737 237.616 M138.51 233.542 L144.39 233.542 L144.39 256.065 L149.32 256.065 L149.32 259.954 L144.39 259.954 L144.39 268.102 L139.737 268.102 L139.737 259.954 L124.135 259.954 L124.135 255.44 L138.51 233.542 Z" fill="#000000" fill-rule="evenodd" fill-opacity="1" /><circle clip-path="url(#clip482)" cx="259.011" cy="1751.15" r="14.4" fill="#009af9" fill-rule="evenodd" fill-opacity="1" stroke="#000000" stroke-opacity="1" stroke-width="3.84"/>
<circle clip-path="url(#clip482)" cx="306.203" cy="1069.18" r="14.4" fill="#009af9" fill-rule="evenodd" fill-opacity="1" stroke="#000000" stroke-opacity="1" stroke-width="3.84"/>
<circle clip-path="url(#clip482)" cx="353.394" cy="776.911" r="14.4" fill="#009af9" fill-rule="evenodd" fill-opacity="1" stroke="#000000" stroke-opacity="1" stroke-width="3.84"/>
<circle clip-path="url(#clip482)" cx="400.585" cy="614.538" r="14.4" fill="#009af9" fill-rule="evenodd" fill-opacity="1" stroke="#000000" stroke-opacity="1" stroke-width="3.84"/>
<circle clip-path="url(#clip482)" cx="447.776" cy="511.209" r="14.4" fill="#009af9" fill-rule="evenodd" fill-opacity="1" stroke="#000000" stroke-opacity="1" stroke-width="3.84"/>
<circle clip-path="url(#clip482)" cx="494.968" cy="439.674" r="14.4" fill="#009af9" fill-rule="evenodd" fill-opacity="1" stroke="#000000" stroke-opacity="1" stroke-width="3.84"/>
<circle clip-path="url(#clip482)" cx="542.159" cy="387.215" r="14.4" fill="#009af9" fill-rule="evenodd" fill-opacity="1" stroke="#000000" stroke-opacity="1" stroke-width="3.84"/>
<circle clip-path="url(#clip482)" cx="589.35" cy="347.099" r="14.4" fill="#009af9" fill-rule="evenodd" fill-opacity="1" stroke="#000000" stroke-opacity="1" stroke-width="3.84"/>
<circle clip-path="url(#clip482)" cx="636.542" cy="315.429" r="14.4" fill="#009af9" fill-rule="evenodd" fill-opacity="1" stroke="#000000" stroke-opacity="1" stroke-width="3.84"/>
<circle clip-path="url(#clip482)" cx="683.733" cy="289.791" r="14.4" fill="#009af9" fill-rule="evenodd" fill-opacity="1" stroke="#000000" stroke-opacity="1" stroke-width="3.84"/>
<circle clip-path="url(#clip482)" cx="730.924" cy="268.612" r="14.4" fill="#009af9" fill-rule="evenodd" fill-opacity="1" stroke="#000000" stroke-opacity="1" stroke-width="3.84"/>
<circle clip-path="url(#clip482)" cx="778.116" cy="250.822" r="14.4" fill="#009af9" fill-rule="evenodd" fill-opacity="1" stroke="#000000" stroke-opacity="1" stroke-width="3.84"/>
<circle clip-path="url(#clip482)" cx="825.307" cy="235.667" r="14.4" fill="#009af9" fill-rule="evenodd" fill-opacity="1" stroke="#000000" stroke-opacity="1" stroke-width="3.84"/>
<circle clip-path="url(#clip482)" cx="872.498" cy="222.602" r="14.4" fill="#009af9" fill-rule="evenodd" fill-opacity="1" stroke="#000000" stroke-opacity="1" stroke-width="3.84"/>
<circle clip-path="url(#clip482)" cx="919.689" cy="211.223" r="14.4" fill="#009af9" fill-rule="evenodd" fill-opacity="1" stroke="#000000" stroke-opacity="1" stroke-width="3.84"/>
<circle clip-path="url(#clip482)" cx="966.881" cy="201.224" r="14.4" fill="#009af9" fill-rule="evenodd" fill-opacity="1" stroke="#000000" stroke-opacity="1" stroke-width="3.84"/>
<circle clip-path="url(#clip482)" cx="1014.07" cy="192.367" r="14.4" fill="#009af9" fill-rule="evenodd" fill-opacity="1" stroke="#000000" stroke-opacity="1" stroke-width="3.84"/>
<circle clip-path="url(#clip482)" cx="1061.26" cy="184.468" r="14.4" fill="#009af9" fill-rule="evenodd" fill-opacity="1" stroke="#000000" stroke-opacity="1" stroke-width="3.84"/>
<circle clip-path="url(#clip482)" cx="1108.45" cy="177.379" r="14.4" fill="#009af9" fill-rule="evenodd" fill-opacity="1" stroke="#000000" stroke-opacity="1" stroke-width="3.84"/>
<circle clip-path="url(#clip482)" cx="1155.65" cy="170.981" r="14.4" fill="#009af9" fill-rule="evenodd" fill-opacity="1" stroke="#000000" stroke-opacity="1" stroke-width="3.84"/>
<circle clip-path="url(#clip482)" cx="1202.84" cy="165.179" r="14.4" fill="#009af9" fill-rule="evenodd" fill-opacity="1" stroke="#000000" stroke-opacity="1" stroke-width="3.84"/>
<circle clip-path="url(#clip482)" cx="1250.03" cy="159.893" r="14.4" fill="#009af9" fill-rule="evenodd" fill-opacity="1" stroke="#000000" stroke-opacity="1" stroke-width="3.84"/>
<circle clip-path="url(#clip482)" cx="1297.22" cy="155.056" r="14.4" fill="#009af9" fill-rule="evenodd" fill-opacity="1" stroke="#000000" stroke-opacity="1" stroke-width="3.84"/>
<circle clip-path="url(#clip482)" cx="1344.41" cy="150.614" r="14.4" fill="#009af9" fill-rule="evenodd" fill-opacity="1" stroke="#000000" stroke-opacity="1" stroke-width="3.84"/>
<circle clip-path="url(#clip482)" cx="1391.6" cy="146.521" r="14.4" fill="#009af9" fill-rule="evenodd" fill-opacity="1" stroke="#000000" stroke-opacity="1" stroke-width="3.84"/>
<circle clip-path="url(#clip482)" cx="1438.79" cy="142.736" r="14.4" fill="#009af9" fill-rule="evenodd" fill-opacity="1" stroke="#000000" stroke-opacity="1" stroke-width="3.84"/>
<circle clip-path="url(#clip482)" cx="1485.98" cy="139.227" r="14.4" fill="#009af9" fill-rule="evenodd" fill-opacity="1" stroke="#000000" stroke-opacity="1" stroke-width="3.84"/>
<circle clip-path="url(#clip482)" cx="1533.18" cy="135.964" r="14.4" fill="#009af9" fill-rule="evenodd" fill-opacity="1" stroke="#000000" stroke-opacity="1" stroke-width="3.84"/>
<circle clip-path="url(#clip482)" cx="1580.37" cy="132.922" r="14.4" fill="#009af9" fill-rule="evenodd" fill-opacity="1" stroke="#000000" stroke-opacity="1" stroke-width="3.84"/>
<circle clip-path="url(#clip482)" cx="1627.56" cy="130.08" r="14.4" fill="#009af9" fill-rule="evenodd" fill-opacity="1" stroke="#000000" stroke-opacity="1" stroke-width="3.84"/>
<circle clip-path="url(#clip482)" cx="1674.75" cy="127.418" r="14.4" fill="#009af9" fill-rule="evenodd" fill-opacity="1" stroke="#000000" stroke-opacity="1" stroke-width="3.84"/>
<circle clip-path="url(#clip482)" cx="1721.94" cy="124.92" r="14.4" fill="#009af9" fill-rule="evenodd" fill-opacity="1" stroke="#000000" stroke-opacity="1" stroke-width="3.84"/>
<circle clip-path="url(#clip482)" cx="1769.13" cy="122.571" r="14.4" fill="#009af9" fill-rule="evenodd" fill-opacity="1" stroke="#000000" stroke-opacity="1" stroke-width="3.84"/>
<circle clip-path="url(#clip482)" cx="1816.32" cy="120.358" r="14.4" fill="#009af9" fill-rule="evenodd" fill-opacity="1" stroke="#000000" stroke-opacity="1" stroke-width="3.84"/>
<circle clip-path="url(#clip482)" cx="1863.52" cy="118.27" r="14.4" fill="#009af9" fill-rule="evenodd" fill-opacity="1" stroke="#000000" stroke-opacity="1" stroke-width="3.84"/>
<circle clip-path="url(#clip482)" cx="1910.71" cy="116.296" r="14.4" fill="#009af9" fill-rule="evenodd" fill-opacity="1" stroke="#000000" stroke-opacity="1" stroke-width="3.84"/>
<circle clip-path="url(#clip482)" cx="1957.9" cy="114.428" r="14.4" fill="#009af9" fill-rule="evenodd" fill-opacity="1" stroke="#000000" stroke-opacity="1" stroke-width="3.84"/>
<circle clip-path="url(#clip482)" cx="2005.09" cy="112.657" r="14.4" fill="#009af9" fill-rule="evenodd" fill-opacity="1" stroke="#000000" stroke-opacity="1" stroke-width="3.84"/>
<circle clip-path="url(#clip482)" cx="2052.28" cy="110.975" r="14.4" fill="#009af9" fill-rule="evenodd" fill-opacity="1" stroke="#000000" stroke-opacity="1" stroke-width="3.84"/>
<circle clip-path="url(#clip482)" cx="2099.47" cy="109.376" r="14.4" fill="#009af9" fill-rule="evenodd" fill-opacity="1" stroke="#000000" stroke-opacity="1" stroke-width="3.84"/>
<circle clip-path="url(#clip482)" cx="2146.66" cy="107.855" r="14.4" fill="#009af9" fill-rule="evenodd" fill-opacity="1" stroke="#000000" stroke-opacity="1" stroke-width="3.84"/>
<circle clip-path="url(#clip482)" cx="2193.85" cy="106.405" r="14.4" fill="#009af9" fill-rule="evenodd" fill-opacity="1" stroke="#000000" stroke-opacity="1" stroke-width="3.84"/>
<circle clip-path="url(#clip482)" cx="2241.05" cy="105.022" r="14.4" fill="#009af9" fill-rule="evenodd" fill-opacity="1" stroke="#000000" stroke-opacity="1" stroke-width="3.84"/>
<circle clip-path="url(#clip482)" cx="2288.24" cy="103.7" r="14.4" fill="#009af9" fill-rule="evenodd" fill-opacity="1" stroke="#000000" stroke-opacity="1" stroke-width="3.84"/>
<circle clip-path="url(#clip482)" cx="2335.43" cy="102.437" r="14.4" fill="#009af9" fill-rule="evenodd" fill-opacity="1" stroke="#000000" stroke-opacity="1" stroke-width="3.84"/>
<circle clip-path="url(#clip482)" cx="2382.62" cy="101.229" r="14.4" fill="#009af9" fill-rule="evenodd" fill-opacity="1" stroke="#000000" stroke-opacity="1" stroke-width="3.84"/>
<circle clip-path="url(#clip482)" cx="2429.81" cy="100.071" r="14.4" fill="#009af9" fill-rule="evenodd" fill-opacity="1" stroke="#000000" stroke-opacity="1" stroke-width="3.84"/>
<circle clip-path="url(#clip482)" cx="2477" cy="98.9607" r="14.4" fill="#009af9" fill-rule="evenodd" fill-opacity="1" stroke="#000000" stroke-opacity="1" stroke-width="3.84"/>
<circle clip-path="url(#clip482)" cx="2524.19" cy="97.8955" r="14.4" fill="#009af9" fill-rule="evenodd" fill-opacity="1" stroke="#000000" stroke-opacity="1" stroke-width="3.84"/>
<circle clip-path="url(#clip482)" cx="2571.38" cy="96.8724" r="14.4" fill="#009af9" fill-rule="evenodd" fill-opacity="1" stroke="#000000" stroke-opacity="1" stroke-width="3.84"/>
</svg>
