<?xml version="1.0" encoding="utf-8"?>
<svg xmlns="http://www.w3.org/2000/svg" xmlns:xlink="http://www.w3.org/1999/xlink" width="672" height="480" viewBox="0 0 2688 1920">
<defs>
  <clipPath id="clip880">
    <rect x="0" y="0" width="2688" height="1920"/>
  </clipPath>
</defs>
<path clip-path="url(#clip880)" d="
M0 1920 L2688 1920 L2688 0 L0 0  Z
  " fill="#ffffff" fill-rule="evenodd" fill-opacity="1"/>
<defs>
  <clipPath id="clip881">
    <rect x="537" y="0" width="1883" height="1883"/>
  </clipPath>
</defs>
<defs>
  <clipPath id="clip882">
    <rect x="188" y="47" width="2453" height="1755"/>
  </clipPath>
</defs>
<path clip-path="url(#clip880)" d="
M188.807 1800.78 L2640.76 1800.78 L2640.76 47.2441 L188.807 47.2441  Z
  " fill="#ffffff" fill-rule="evenodd" fill-opacity="1"/>
<polyline clip-path="url(#clip882)" style="stroke:#000000; stroke-linecap:round; stroke-linejoin:round; stroke-width:2; stroke-opacity:0.1; fill:none" points="
  515.219,1800.78 515.219,47.2441 
  "/>
<polyline clip-path="url(#clip882)" style="stroke:#000000; stroke-linecap:round; stroke-linejoin:round; stroke-width:2; stroke-opacity:0.1; fill:none" points="
  1029.25,1800.78 1029.25,47.2441 
  "/>
<polyline clip-path="url(#clip882)" style="stroke:#000000; stroke-linecap:round; stroke-linejoin:round; stroke-width:2; stroke-opacity:0.1; fill:none" points="
  1543.29,1800.78 1543.29,47.2441 
  "/>
<polyline clip-path="url(#clip882)" style="stroke:#000000; stroke-linecap:round; stroke-linejoin:round; stroke-width:2; stroke-opacity:0.1; fill:none" points="
  2057.33,1800.78 2057.33,47.2441 
  "/>
<polyline clip-path="url(#clip882)" style="stroke:#000000; stroke-linecap:round; stroke-linejoin:round; stroke-width:2; stroke-opacity:0.1; fill:none" points="
  2571.36,1800.78 2571.36,47.2441 
  "/>
<polyline clip-path="url(#clip880)" style="stroke:#000000; stroke-linecap:round; stroke-linejoin:round; stroke-width:4; stroke-opacity:1; fill:none" points="
  188.807,1800.78 2640.76,1800.78 
  "/>
<polyline clip-path="url(#clip880)" style="stroke:#000000; stroke-linecap:round; stroke-linejoin:round; stroke-width:4; stroke-opacity:1; fill:none" points="
  515.219,1800.78 515.219,1781.88 
  "/>
<polyline clip-path="url(#clip880)" style="stroke:#000000; stroke-linecap:round; stroke-linejoin:round; stroke-width:4; stroke-opacity:1; fill:none" points="
  1029.25,1800.78 1029.25,1781.88 
  "/>
<polyline clip-path="url(#clip880)" style="stroke:#000000; stroke-linecap:round; stroke-linejoin:round; stroke-width:4; stroke-opacity:1; fill:none" points="
  1543.29,1800.78 1543.29,1781.88 
  "/>
<polyline clip-path="url(#clip880)" style="stroke:#000000; stroke-linecap:round; stroke-linejoin:round; stroke-width:4; stroke-opacity:1; fill:none" points="
  2057.33,1800.78 2057.33,1781.88 
  "/>
<polyline clip-path="url(#clip880)" style="stroke:#000000; stroke-linecap:round; stroke-linejoin:round; stroke-width:4; stroke-opacity:1; fill:none" points="
  2571.36,1800.78 2571.36,1781.88 
  "/>
<path clip-path="url(#clip880)" d="M509.872 1861.55 L526.191 1861.55 L526.191 1865.48 L504.247 1865.48 L504.247 1861.55 Q506.909 1858.79 511.492 1854.16 Q516.099 1849.51 517.279 1848.17 Q519.525 1845.65 520.404 1843.91 Q521.307 1842.15 521.307 1840.46 Q521.307 1837.71 519.363 1835.97 Q517.442 1834.23 514.34 1834.23 Q512.141 1834.23 509.687 1835 Q507.256 1835.76 504.479 1837.31 L504.479 1832.59 Q507.303 1831.46 509.756 1830.88 Q512.21 1830.3 514.247 1830.3 Q519.617 1830.3 522.812 1832.98 Q526.006 1835.67 526.006 1840.16 Q526.006 1842.29 525.196 1844.21 Q524.409 1846.11 522.303 1848.7 Q521.724 1849.37 518.622 1852.59 Q515.52 1855.78 509.872 1861.55 Z" fill="#000000" fill-rule="evenodd" fill-opacity="1" /><path clip-path="url(#clip880)" d="M1032.26 1835 L1020.46 1853.45 L1032.26 1853.45 L1032.26 1835 M1031.04 1830.92 L1036.92 1830.92 L1036.92 1853.45 L1041.85 1853.45 L1041.85 1857.34 L1036.92 1857.34 L1036.92 1865.48 L1032.26 1865.48 L1032.26 1857.34 L1016.66 1857.34 L1016.66 1852.82 L1031.04 1830.92 Z" fill="#000000" fill-rule="evenodd" fill-opacity="1" /><path clip-path="url(#clip880)" d="M1543.7 1846.34 Q1540.55 1846.34 1538.7 1848.49 Q1536.87 1850.65 1536.87 1854.4 Q1536.87 1858.12 1538.7 1860.3 Q1540.55 1862.45 1543.7 1862.45 Q1546.84 1862.45 1548.67 1860.3 Q1550.52 1858.12 1550.52 1854.4 Q1550.52 1850.65 1548.67 1848.49 Q1546.84 1846.34 1543.7 1846.34 M1552.98 1831.69 L1552.98 1835.95 Q1551.22 1835.11 1549.41 1834.67 Q1547.63 1834.23 1545.87 1834.23 Q1541.24 1834.23 1538.79 1837.36 Q1536.36 1840.48 1536.01 1846.8 Q1537.38 1844.79 1539.44 1843.72 Q1541.5 1842.64 1543.97 1842.64 Q1549.18 1842.64 1552.19 1845.81 Q1555.22 1848.96 1555.22 1854.4 Q1555.22 1859.72 1552.07 1862.94 Q1548.93 1866.15 1543.7 1866.15 Q1537.7 1866.15 1534.53 1861.57 Q1531.36 1856.96 1531.36 1848.24 Q1531.36 1840.04 1535.25 1835.18 Q1539.14 1830.3 1545.69 1830.3 Q1547.45 1830.3 1549.23 1830.65 Q1551.03 1830.99 1552.98 1831.69 Z" fill="#000000" fill-rule="evenodd" fill-opacity="1" /><path clip-path="url(#clip880)" d="M2057.33 1849.07 Q2053.99 1849.07 2052.07 1850.85 Q2050.17 1852.64 2050.17 1855.76 Q2050.17 1858.89 2052.07 1860.67 Q2053.99 1862.45 2057.33 1862.45 Q2060.66 1862.45 2062.58 1860.67 Q2064.5 1858.86 2064.5 1855.76 Q2064.5 1852.64 2062.58 1850.85 Q2060.68 1849.07 2057.33 1849.07 M2052.65 1847.08 Q2049.64 1846.34 2047.95 1844.28 Q2046.28 1842.22 2046.28 1839.26 Q2046.28 1835.11 2049.22 1832.71 Q2052.19 1830.3 2057.33 1830.3 Q2062.49 1830.3 2065.43 1832.71 Q2068.37 1835.11 2068.37 1839.26 Q2068.37 1842.22 2066.68 1844.28 Q2065.01 1846.34 2062.02 1847.08 Q2065.4 1847.87 2067.28 1850.16 Q2069.18 1852.45 2069.18 1855.76 Q2069.18 1860.78 2066.1 1863.47 Q2063.04 1866.15 2057.33 1866.15 Q2051.61 1866.15 2048.53 1863.47 Q2045.47 1860.78 2045.47 1855.76 Q2045.47 1852.45 2047.37 1850.16 Q2049.27 1847.87 2052.65 1847.08 M2050.94 1839.7 Q2050.94 1842.38 2052.6 1843.89 Q2054.29 1845.39 2057.33 1845.39 Q2060.33 1845.39 2062.02 1843.89 Q2063.74 1842.38 2063.74 1839.7 Q2063.74 1837.01 2062.02 1835.51 Q2060.33 1834 2057.33 1834 Q2054.29 1834 2052.6 1835.51 Q2050.94 1837.01 2050.94 1839.7 Z" fill="#000000" fill-rule="evenodd" fill-opacity="1" /><path clip-path="url(#clip880)" d="M2546.05 1861.55 L2553.69 1861.55 L2553.69 1835.18 L2545.38 1836.85 L2545.38 1832.59 L2553.64 1830.92 L2558.32 1830.92 L2558.32 1861.55 L2565.96 1861.55 L2565.96 1865.48 L2546.05 1865.48 L2546.05 1861.55 Z" fill="#000000" fill-rule="evenodd" fill-opacity="1" /><path clip-path="url(#clip880)" d="M2585.4 1834 Q2581.79 1834 2579.96 1837.57 Q2578.16 1841.11 2578.16 1848.24 Q2578.16 1855.34 2579.96 1858.91 Q2581.79 1862.45 2585.4 1862.45 Q2589.03 1862.45 2590.84 1858.91 Q2592.67 1855.34 2592.67 1848.24 Q2592.67 1841.11 2590.84 1837.57 Q2589.03 1834 2585.4 1834 M2585.4 1830.3 Q2591.21 1830.3 2594.27 1834.9 Q2597.34 1839.49 2597.34 1848.24 Q2597.34 1856.96 2594.27 1861.57 Q2591.21 1866.15 2585.4 1866.15 Q2579.59 1866.15 2576.51 1861.57 Q2573.46 1856.96 2573.46 1848.24 Q2573.46 1839.49 2576.51 1834.9 Q2579.59 1830.3 2585.4 1830.3 Z" fill="#000000" fill-rule="evenodd" fill-opacity="1" /><polyline clip-path="url(#clip882)" style="stroke:#000000; stroke-linecap:round; stroke-linejoin:round; stroke-width:2; stroke-opacity:0.1; fill:none" points="
  188.807,1751.15 2640.76,1751.15 
  "/>
<polyline clip-path="url(#clip882)" style="stroke:#000000; stroke-linecap:round; stroke-linejoin:round; stroke-width:2; stroke-opacity:0.1; fill:none" points="
  188.807,1337.58 2640.76,1337.58 
  "/>
<polyline clip-path="url(#clip882)" style="stroke:#000000; stroke-linecap:round; stroke-linejoin:round; stroke-width:2; stroke-opacity:0.1; fill:none" points="
  188.807,924.012 2640.76,924.012 
  "/>
<polyline clip-path="url(#clip882)" style="stroke:#000000; stroke-linecap:round; stroke-linejoin:round; stroke-width:2; stroke-opacity:0.1; fill:none" points="
  188.807,510.442 2640.76,510.442 
  "/>
<polyline clip-path="url(#clip882)" style="stroke:#000000; stroke-linecap:round; stroke-linejoin:round; stroke-width:2; stroke-opacity:0.1; fill:none" points="
  188.807,96.8724 2640.76,96.8724 
  "/>
<polyline clip-path="url(#clip880)" style="stroke:#000000; stroke-linecap:round; stroke-linejoin:round; stroke-width:4; stroke-opacity:1; fill:none" points="
  188.807,1800.78 188.807,47.2441 
  "/>
<polyline clip-path="url(#clip880)" style="stroke:#000000; stroke-linecap:round; stroke-linejoin:round; stroke-width:4; stroke-opacity:1; fill:none" points="
  188.807,1751.15 207.704,1751.15 
  "/>
<polyline clip-path="url(#clip880)" style="stroke:#000000; stroke-linecap:round; stroke-linejoin:round; stroke-width:4; stroke-opacity:1; fill:none" points="
  188.807,1337.58 207.704,1337.58 
  "/>
<polyline clip-path="url(#clip880)" style="stroke:#000000; stroke-linecap:round; stroke-linejoin:round; stroke-width:4; stroke-opacity:1; fill:none" points="
  188.807,924.012 207.704,924.012 
  "/>
<polyline clip-path="url(#clip880)" style="stroke:#000000; stroke-linecap:round; stroke-linejoin:round; stroke-width:4; stroke-opacity:1; fill:none" points="
  188.807,510.442 207.704,510.442 
  "/>
<polyline clip-path="url(#clip880)" style="stroke:#000000; stroke-linecap:round; stroke-linejoin:round; stroke-width:4; stroke-opacity:1; fill:none" points="
  188.807,96.8724 207.704,96.8724 
  "/>
<path clip-path="url(#clip880)" d="M51.9595 1764.5 L59.5984 1764.5 L59.5984 1738.13 L51.2882 1739.8 L51.2882 1735.54 L59.5521 1733.87 L64.228 1733.87 L64.228 1764.5 L71.8668 1764.5 L71.8668 1768.43 L51.9595 1768.43 L51.9595 1764.5 Z" fill="#000000" fill-rule="evenodd" fill-opacity="1" /><path clip-path="url(#clip880)" d="M81.3112 1762.55 L86.1954 1762.55 L86.1954 1768.43 L81.3112 1768.43 L81.3112 1762.55 Z" fill="#000000" fill-rule="evenodd" fill-opacity="1" /><path clip-path="url(#clip880)" d="M106.381 1736.95 Q102.769 1736.95 100.941 1740.51 Q99.1352 1744.06 99.1352 1751.19 Q99.1352 1758.29 100.941 1761.86 Q102.769 1765.4 106.381 1765.4 Q110.015 1765.4 111.82 1761.86 Q113.649 1758.29 113.649 1751.19 Q113.649 1744.06 111.82 1740.51 Q110.015 1736.95 106.381 1736.95 M106.381 1733.25 Q112.191 1733.25 115.246 1737.85 Q118.325 1742.44 118.325 1751.19 Q118.325 1759.91 115.246 1764.52 Q112.191 1769.1 106.381 1769.1 Q100.57 1769.1 97.4917 1764.52 Q94.4361 1759.91 94.4361 1751.19 Q94.4361 1742.44 97.4917 1737.85 Q100.57 1733.25 106.381 1733.25 Z" fill="#000000" fill-rule="evenodd" fill-opacity="1" /><path clip-path="url(#clip880)" d="M136.542 1736.95 Q132.931 1736.95 131.103 1740.51 Q129.297 1744.06 129.297 1751.19 Q129.297 1758.29 131.103 1761.86 Q132.931 1765.4 136.542 1765.4 Q140.177 1765.4 141.982 1761.86 Q143.811 1758.29 143.811 1751.19 Q143.811 1744.06 141.982 1740.51 Q140.177 1736.95 136.542 1736.95 M136.542 1733.25 Q142.353 1733.25 145.408 1737.85 Q148.487 1742.44 148.487 1751.19 Q148.487 1759.91 145.408 1764.52 Q142.353 1769.1 136.542 1769.1 Q130.732 1769.1 127.654 1764.52 Q124.598 1759.91 124.598 1751.19 Q124.598 1742.44 127.654 1737.85 Q130.732 1733.25 136.542 1733.25 Z" fill="#000000" fill-rule="evenodd" fill-opacity="1" /><path clip-path="url(#clip880)" d="M52.9549 1350.93 L60.5937 1350.93 L60.5937 1324.56 L52.2836 1326.23 L52.2836 1321.97 L60.5474 1320.3 L65.2233 1320.3 L65.2233 1350.93 L72.8622 1350.93 L72.8622 1354.86 L52.9549 1354.86 L52.9549 1350.93 Z" fill="#000000" fill-rule="evenodd" fill-opacity="1" /><path clip-path="url(#clip880)" d="M82.3066 1348.98 L87.1908 1348.98 L87.1908 1354.86 L82.3066 1354.86 L82.3066 1348.98 Z" fill="#000000" fill-rule="evenodd" fill-opacity="1" /><path clip-path="url(#clip880)" d="M101.404 1350.93 L117.723 1350.93 L117.723 1354.86 L95.7787 1354.86 L95.7787 1350.93 Q98.4408 1348.17 103.024 1343.54 Q107.631 1338.89 108.811 1337.55 Q111.056 1335.02 111.936 1333.29 Q112.839 1331.53 112.839 1329.84 Q112.839 1327.08 110.894 1325.35 Q108.973 1323.61 105.871 1323.61 Q103.672 1323.61 101.219 1324.38 Q98.788 1325.14 96.0102 1326.69 L96.0102 1321.97 Q98.8343 1320.83 101.288 1320.26 Q103.742 1319.68 105.779 1319.68 Q111.149 1319.68 114.343 1322.36 Q117.538 1325.05 117.538 1329.54 Q117.538 1331.67 116.728 1333.59 Q115.941 1335.49 113.834 1338.08 Q113.255 1338.75 110.154 1341.97 Q107.052 1345.16 101.404 1350.93 Z" fill="#000000" fill-rule="evenodd" fill-opacity="1" /><path clip-path="url(#clip880)" d="M127.584 1320.3 L145.94 1320.3 L145.94 1324.24 L131.866 1324.24 L131.866 1332.71 Q132.885 1332.36 133.904 1332.2 Q134.922 1332.01 135.941 1332.01 Q141.728 1332.01 145.107 1335.19 Q148.487 1338.36 148.487 1343.77 Q148.487 1349.35 145.015 1352.45 Q141.542 1355.53 135.223 1355.53 Q133.047 1355.53 130.779 1355.16 Q128.533 1354.79 126.126 1354.05 L126.126 1349.35 Q128.209 1350.49 130.431 1351.04 Q132.654 1351.6 135.13 1351.6 Q139.135 1351.6 141.473 1349.49 Q143.811 1347.38 143.811 1343.77 Q143.811 1340.16 141.473 1338.06 Q139.135 1335.95 135.13 1335.95 Q133.255 1335.95 131.38 1336.37 Q129.529 1336.78 127.584 1337.66 L127.584 1320.3 Z" fill="#000000" fill-rule="evenodd" fill-opacity="1" /><path clip-path="url(#clip880)" d="M51.9595 937.357 L59.5984 937.357 L59.5984 910.991 L51.2882 912.658 L51.2882 908.398 L59.5521 906.732 L64.228 906.732 L64.228 937.357 L71.8668 937.357 L71.8668 941.292 L51.9595 941.292 L51.9595 937.357 Z" fill="#000000" fill-rule="evenodd" fill-opacity="1" /><path clip-path="url(#clip880)" d="M81.3112 935.412 L86.1954 935.412 L86.1954 941.292 L81.3112 941.292 L81.3112 935.412 Z" fill="#000000" fill-rule="evenodd" fill-opacity="1" /><path clip-path="url(#clip880)" d="M96.4269 906.732 L114.783 906.732 L114.783 910.667 L100.709 910.667 L100.709 919.139 Q101.728 918.792 102.746 918.63 Q103.765 918.445 104.783 918.445 Q110.57 918.445 113.95 921.616 Q117.33 924.787 117.33 930.204 Q117.33 935.782 113.857 938.884 Q110.385 941.963 104.066 941.963 Q101.89 941.963 99.6213 941.593 Q97.3759 941.222 94.9685 940.482 L94.9685 935.782 Q97.0519 936.917 99.2741 937.472 Q101.496 938.028 103.973 938.028 Q107.978 938.028 110.316 935.921 Q112.654 933.815 112.654 930.204 Q112.654 926.593 110.316 924.486 Q107.978 922.38 103.973 922.38 Q102.098 922.38 100.223 922.796 Q98.3713 923.213 96.4269 924.093 L96.4269 906.732 Z" fill="#000000" fill-rule="evenodd" fill-opacity="1" /><path clip-path="url(#clip880)" d="M136.542 909.81 Q132.931 909.81 131.103 913.375 Q129.297 916.917 129.297 924.046 Q129.297 931.153 131.103 934.718 Q132.931 938.259 136.542 938.259 Q140.177 938.259 141.982 934.718 Q143.811 931.153 143.811 924.046 Q143.811 916.917 141.982 913.375 Q140.177 909.81 136.542 909.81 M136.542 906.107 Q142.353 906.107 145.408 910.713 Q148.487 915.296 148.487 924.046 Q148.487 932.773 145.408 937.38 Q142.353 941.963 136.542 941.963 Q130.732 941.963 127.654 937.38 Q124.598 932.773 124.598 924.046 Q124.598 915.296 127.654 910.713 Q130.732 906.107 136.542 906.107 Z" fill="#000000" fill-rule="evenodd" fill-opacity="1" /><path clip-path="url(#clip880)" d="M52.9549 523.787 L60.5937 523.787 L60.5937 497.421 L52.2836 499.088 L52.2836 494.829 L60.5474 493.162 L65.2233 493.162 L65.2233 523.787 L72.8622 523.787 L72.8622 527.722 L52.9549 527.722 L52.9549 523.787 Z" fill="#000000" fill-rule="evenodd" fill-opacity="1" /><path clip-path="url(#clip880)" d="M82.3066 521.842 L87.1908 521.842 L87.1908 527.722 L82.3066 527.722 L82.3066 521.842 Z" fill="#000000" fill-rule="evenodd" fill-opacity="1" /><path clip-path="url(#clip880)" d="M96.1954 493.162 L118.417 493.162 L118.417 495.153 L105.871 527.722 L100.987 527.722 L112.793 497.097 L96.1954 497.097 L96.1954 493.162 Z" fill="#000000" fill-rule="evenodd" fill-opacity="1" /><path clip-path="url(#clip880)" d="M127.584 493.162 L145.94 493.162 L145.94 497.097 L131.866 497.097 L131.866 505.569 Q132.885 505.222 133.904 505.06 Q134.922 504.875 135.941 504.875 Q141.728 504.875 145.107 508.046 Q148.487 511.218 148.487 516.634 Q148.487 522.213 145.015 525.315 Q141.542 528.393 135.223 528.393 Q133.047 528.393 130.779 528.023 Q128.533 527.653 126.126 526.912 L126.126 522.213 Q128.209 523.347 130.431 523.903 Q132.654 524.458 135.13 524.458 Q139.135 524.458 141.473 522.352 Q143.811 520.245 143.811 516.634 Q143.811 513.023 141.473 510.917 Q139.135 508.81 135.13 508.81 Q133.255 508.81 131.38 509.227 Q129.529 509.643 127.584 510.523 L127.584 493.162 Z" fill="#000000" fill-rule="evenodd" fill-opacity="1" /><path clip-path="url(#clip880)" d="M55.1771 110.217 L71.4965 110.217 L71.4965 114.152 L49.5521 114.152 L49.5521 110.217 Q52.2141 107.463 56.7975 102.833 Q61.4039 98.1803 62.5845 96.8377 Q64.8298 94.3146 65.7094 92.5785 Q66.6122 90.8192 66.6122 89.1294 Q66.6122 86.3748 64.6678 84.6387 Q62.7465 82.9026 59.6447 82.9026 Q57.4456 82.9026 54.9919 83.6665 Q52.5614 84.4304 49.7836 85.9813 L49.7836 81.2591 Q52.6077 80.1249 55.0614 79.5462 Q57.515 78.9675 59.5521 78.9675 Q64.9224 78.9675 68.1168 81.6526 Q71.3113 84.3378 71.3113 88.8285 Q71.3113 90.9581 70.5011 92.8794 Q69.7141 94.7776 67.6076 97.3701 Q67.0289 98.0414 63.927 101.259 Q60.8252 104.453 55.1771 110.217 Z" fill="#000000" fill-rule="evenodd" fill-opacity="1" /><path clip-path="url(#clip880)" d="M81.3112 108.273 L86.1954 108.273 L86.1954 114.152 L81.3112 114.152 L81.3112 108.273 Z" fill="#000000" fill-rule="evenodd" fill-opacity="1" /><path clip-path="url(#clip880)" d="M106.381 82.6711 Q102.769 82.6711 100.941 86.2359 Q99.1352 89.7776 99.1352 96.9072 Q99.1352 104.014 100.941 107.578 Q102.769 111.12 106.381 111.12 Q110.015 111.12 111.82 107.578 Q113.649 104.014 113.649 96.9072 Q113.649 89.7776 111.82 86.2359 Q110.015 82.6711 106.381 82.6711 M106.381 78.9675 Q112.191 78.9675 115.246 83.5739 Q118.325 88.1572 118.325 96.9072 Q118.325 105.634 115.246 110.24 Q112.191 114.824 106.381 114.824 Q100.57 114.824 97.4917 110.24 Q94.4361 105.634 94.4361 96.9072 Q94.4361 88.1572 97.4917 83.5739 Q100.57 78.9675 106.381 78.9675 Z" fill="#000000" fill-rule="evenodd" fill-opacity="1" /><path clip-path="url(#clip880)" d="M136.542 82.6711 Q132.931 82.6711 131.103 86.2359 Q129.297 89.7776 129.297 96.9072 Q129.297 104.014 131.103 107.578 Q132.931 111.12 136.542 111.12 Q140.177 111.12 141.982 107.578 Q143.811 104.014 143.811 96.9072 Q143.811 89.7776 141.982 86.2359 Q140.177 82.6711 136.542 82.6711 M136.542 78.9675 Q142.353 78.9675 145.408 83.5739 Q148.487 88.1572 148.487 96.9072 Q148.487 105.634 145.408 110.24 Q142.353 114.824 136.542 114.824 Q130.732 114.824 127.654 110.24 Q124.598 105.634 124.598 96.9072 Q124.598 88.1572 127.654 83.5739 Q130.732 78.9675 136.542 78.9675 Z" fill="#000000" fill-rule="evenodd" fill-opacity="1" /><circle clip-path="url(#clip882)" cx="258.202" cy="1751.15" r="14.4" fill="#009af9" fill-rule="evenodd" fill-opacity="1" stroke="#000000" stroke-opacity="1" stroke-width="3.84"/>
<circle clip-path="url(#clip882)" cx="772.237" cy="924.012" r="14.4" fill="#009af9" fill-rule="evenodd" fill-opacity="1" stroke="#000000" stroke-opacity="1" stroke-width="3.84"/>
<circle clip-path="url(#clip882)" cx="1286.27" cy="758.584" r="14.4" fill="#009af9" fill-rule="evenodd" fill-opacity="1" stroke="#000000" stroke-opacity="1" stroke-width="3.84"/>
<circle clip-path="url(#clip882)" cx="1800.31" cy="733.133" r="14.4" fill="#009af9" fill-rule="evenodd" fill-opacity="1" stroke="#000000" stroke-opacity="1" stroke-width="3.84"/>
<circle clip-path="url(#clip882)" cx="2314.34" cy="729.391" r="14.4" fill="#009af9" fill-rule="evenodd" fill-opacity="1" stroke="#000000" stroke-opacity="1" stroke-width="3.84"/>
<circle clip-path="url(#clip882)" cx="515.219" cy="96.8724" r="14.4" fill="#e26f46" fill-rule="evenodd" fill-opacity="1" stroke="#000000" stroke-opacity="1" stroke-width="3.84"/>
<circle clip-path="url(#clip882)" cx="1029.25" cy="648.299" r="14.4" fill="#e26f46" fill-rule="evenodd" fill-opacity="1" stroke="#000000" stroke-opacity="1" stroke-width="3.84"/>
<circle clip-path="url(#clip882)" cx="1543.29" cy="717.227" r="14.4" fill="#e26f46" fill-rule="evenodd" fill-opacity="1" stroke="#000000" stroke-opacity="1" stroke-width="3.84"/>
<circle clip-path="url(#clip882)" cx="2057.33" cy="727.074" r="14.4" fill="#e26f46" fill-rule="evenodd" fill-opacity="1" stroke="#000000" stroke-opacity="1" stroke-width="3.84"/>
<circle clip-path="url(#clip882)" cx="2571.36" cy="728.506" r="14.4" fill="#e26f46" fill-rule="evenodd" fill-opacity="1" stroke="#000000" stroke-opacity="1" stroke-width="3.84"/>
<path clip-path="url(#clip880)" d="
M2155.52 261.215 L2559.02 261.215 L2559.02 105.695 L2155.52 105.695  Z
  " fill="#ffffff" fill-rule="evenodd" fill-opacity="1"/>
<polyline clip-path="url(#clip880)" style="stroke:#000000; stroke-linecap:round; stroke-linejoin:round; stroke-width:4; stroke-opacity:1; fill:none" points="
  2155.52,261.215 2559.02,261.215 2559.02,105.695 2155.52,105.695 2155.52,261.215 
  "/>
<circle clip-path="url(#clip880)" cx="2264.49" cy="157.535" r="23.04" fill="#009af9" fill-rule="evenodd" fill-opacity="1" stroke="#000000" stroke-opacity="1" stroke-width="6.144"/>
<path clip-path="url(#clip880)" d="M2397.36 142.909 Q2397.36 144.221 2396.54 144.971 Q2395.72 145.697 2394.78 145.697 Q2393.89 145.697 2393.42 145.181 Q2392.95 144.666 2392.95 144.01 Q2392.95 143.12 2393.61 142.347 Q2394.27 141.574 2395.25 141.41 Q2394.29 140.801 2392.86 140.801 Q2391.92 140.801 2391.1 141.293 Q2390.31 141.785 2389.82 142.417 Q2389.35 143.05 2388.93 143.963 Q2388.53 144.853 2388.36 145.392 Q2388.22 145.907 2388.11 146.47 L2386.47 153.028 Q2385.67 156.143 2385.67 157.244 Q2385.67 158.602 2386.33 159.516 Q2386.98 160.406 2388.29 160.406 Q2388.81 160.406 2389.39 160.265 Q2389.98 160.101 2390.73 159.68 Q2391.5 159.235 2392.18 158.579 Q2392.88 157.9 2393.56 156.752 Q2394.24 155.604 2394.69 154.129 Q2394.83 153.613 2395.3 153.613 Q2395.88 153.613 2395.88 154.082 Q2395.88 154.48 2395.55 155.323 Q2395.25 156.143 2394.57 157.22 Q2393.92 158.274 2393.05 159.235 Q2392.18 160.172 2390.89 160.828 Q2389.61 161.483 2388.2 161.483 Q2386.19 161.483 2384.85 160.406 Q2383.52 159.328 2383.02 157.829 Q2382.91 158.04 2382.74 158.321 Q2382.58 158.602 2382.09 159.235 Q2381.62 159.844 2381.08 160.312 Q2380.54 160.757 2379.7 161.109 Q2378.88 161.483 2377.99 161.483 Q2376.86 161.483 2375.86 161.155 Q2374.87 160.828 2374.17 160.078 Q2373.47 159.328 2373.47 158.298 Q2373.47 157.15 2374.24 156.354 Q2375.04 155.534 2376.11 155.534 Q2376.79 155.534 2377.33 155.932 Q2377.89 156.33 2377.89 157.197 Q2377.89 158.157 2377.24 158.883 Q2376.58 159.61 2375.65 159.797 Q2376.61 160.406 2378.03 160.406 Q2379.58 160.406 2380.8 159.047 Q2382.02 157.689 2382.6 155.417 Q2384.05 149.959 2384.62 147.524 Q2385.18 145.064 2385.18 144.01 Q2385.18 143.026 2384.92 142.347 Q2384.66 141.668 2384.22 141.363 Q2383.8 141.036 2383.4 140.918 Q2383.02 140.801 2382.6 140.801 Q2381.9 140.801 2381.1 141.082 Q2380.33 141.363 2379.39 142.019 Q2378.48 142.652 2377.61 143.963 Q2376.75 145.275 2376.16 147.079 Q2376.04 147.617 2375.53 147.617 Q2374.97 147.594 2374.97 147.125 Q2374.97 146.727 2375.27 145.907 Q2375.6 145.064 2376.25 144.01 Q2376.93 142.956 2377.8 142.019 Q2378.69 141.059 2379.98 140.403 Q2381.29 139.747 2382.7 139.747 Q2383.33 139.747 2383.94 139.888 Q2384.57 140.005 2385.32 140.356 Q2386.09 140.708 2386.77 141.481 Q2387.45 142.254 2387.87 143.378 Q2388.15 142.839 2388.53 142.324 Q2388.93 141.808 2389.54 141.176 Q2390.17 140.52 2391.03 140.145 Q2391.92 139.747 2392.91 139.747 Q2393.87 139.747 2394.81 140.005 Q2395.74 140.239 2396.54 141.012 Q2397.36 141.762 2397.36 142.909 Z" fill="#000000" fill-rule="evenodd" fill-opacity="1" /><path clip-path="url(#clip880)" d="M2402.25 174.758 Q2402.25 174.152 2402.3 173.971 Q2402.36 173.791 2402.62 173.512 L2409.07 166.331 Q2412.59 162.363 2412.59 158.904 Q2412.59 156.658 2411.41 155.051 Q2410.25 153.444 2408.1 153.444 Q2406.63 153.444 2405.38 154.346 Q2404.13 155.248 2403.56 156.854 Q2403.66 156.822 2404 156.822 Q2404.84 156.822 2405.3 157.346 Q2405.77 157.871 2405.77 158.576 Q2405.77 159.478 2405.18 159.92 Q2404.61 160.347 2404.03 160.347 Q2403.81 160.347 2403.49 160.297 Q2403.2 160.248 2402.72 159.789 Q2402.25 159.314 2402.25 158.477 Q2402.25 156.133 2404.02 154.264 Q2405.81 152.395 2408.53 152.395 Q2411.61 152.395 2413.63 154.231 Q2415.66 156.051 2415.66 158.904 Q2415.66 159.904 2415.35 160.822 Q2415.05 161.724 2414.64 162.429 Q2414.25 163.134 2413.17 164.265 Q2412.08 165.396 2411.22 166.2 Q2410.35 167.003 2408.4 168.708 L2404.84 172.168 L2410.89 172.168 Q2413.84 172.168 2414.07 171.906 Q2414.4 171.43 2414.81 168.922 L2415.66 168.922 L2414.71 174.758 L2402.25 174.758 Z" fill="#000000" fill-rule="evenodd" fill-opacity="1" /><path clip-path="url(#clip880)" d="M2436.54 169.954 Q2436.54 170.086 2436.39 170.594 Q2436.24 171.102 2435.88 171.889 Q2435.54 172.676 2435.06 173.398 Q2434.59 174.103 2433.8 174.627 Q2433.03 175.136 2432.14 175.136 Q2430.96 175.136 2430.18 174.349 Q2429.39 173.562 2429.39 172.381 Q2429.39 171.725 2429.73 170.823 Q2431.91 165.003 2431.91 163.003 Q2431.91 160.658 2430.09 160.658 Q2429.19 160.658 2428.34 161.002 Q2427.5 161.33 2426.93 161.789 Q2426.36 162.248 2425.83 162.888 Q2425.32 163.511 2425.06 163.937 Q2424.82 164.347 2424.62 164.757 L2424.19 166.429 Q2424.09 166.888 2423.62 168.676 L2422.88 171.709 Q2422.36 173.971 2422.24 174.185 Q2422.08 174.644 2421.72 174.89 Q2421.36 175.136 2421 175.136 Q2420.59 175.136 2420.31 174.89 Q2420.03 174.644 2420.03 174.217 Q2420.03 174.152 2420.08 173.906 Q2420.13 173.66 2420.21 173.316 Q2420.29 172.971 2420.32 172.775 L2422.27 165.019 Q2422.63 163.609 2422.72 163.167 Q2422.82 162.708 2422.82 162.199 Q2422.82 160.658 2421.77 160.658 Q2420.91 160.658 2420.36 161.675 Q2419.8 162.691 2419.32 164.659 Q2419.18 165.2 2419.08 165.314 Q2419 165.429 2418.75 165.429 Q2418.34 165.413 2418.34 165.085 Q2418.34 165.003 2418.47 164.462 Q2418.6 163.921 2418.85 163.15 Q2419.11 162.363 2419.36 161.839 Q2419.57 161.445 2419.68 161.265 Q2419.81 161.068 2420.13 160.691 Q2420.45 160.297 2420.88 160.117 Q2421.32 159.92 2421.86 159.92 Q2423.08 159.92 2423.96 160.707 Q2424.85 161.478 2424.96 162.839 Q2427.14 159.92 2430.19 159.92 Q2432 159.92 2433.03 160.871 Q2434.06 161.822 2434.06 163.511 Q2434.06 163.904 2433.98 164.413 Q2433.92 164.905 2433.75 165.528 Q2433.6 166.151 2433.47 166.626 Q2433.34 167.102 2433.08 167.872 Q2432.82 168.626 2432.7 168.954 Q2432.59 169.282 2432.31 170.053 Q2432.05 170.807 2432.01 170.889 Q2431.41 172.414 2431.41 173.283 Q2431.41 173.857 2431.59 174.119 Q2431.78 174.381 2432.21 174.381 Q2433.36 174.381 2434.21 173.25 Q2435.08 172.102 2435.64 170.233 Q2435.77 169.823 2435.83 169.725 Q2435.92 169.627 2436.14 169.627 Q2436.54 169.627 2436.54 169.954 Z" fill="#000000" fill-rule="evenodd" fill-opacity="1" /><path clip-path="url(#clip880)" d="M2469.77 165.888 Q2469.96 166.085 2469.96 166.364 Q2469.96 166.643 2469.77 166.839 Q2469.57 167.036 2469.29 167.036 L2448.27 167.036 Q2447.99 167.036 2447.8 166.839 Q2447.6 166.643 2447.6 166.364 Q2447.6 166.085 2447.8 165.888 Q2447.99 165.692 2448.27 165.692 L2469.29 165.692 Q2469.57 165.692 2469.77 165.888 Z" fill="#000000" fill-rule="evenodd" fill-opacity="1" /><path clip-path="url(#clip880)" d="M2482.79 155.592 L2482.79 154.543 Q2486.82 154.543 2488.9 152.395 Q2489.48 152.395 2489.57 152.526 Q2489.67 152.657 2489.67 153.264 L2489.67 172.102 Q2489.67 173.102 2490.17 173.414 Q2490.66 173.725 2492.8 173.725 L2493.87 173.725 L2493.87 174.758 Q2492.69 174.66 2488.43 174.66 Q2484.16 174.66 2483 174.758 L2483 173.725 L2484.07 173.725 Q2486.18 173.725 2486.69 173.43 Q2487.2 173.119 2487.2 172.102 L2487.2 154.706 Q2485.44 155.592 2482.79 155.592 Z" fill="#000000" fill-rule="evenodd" fill-opacity="1" /><circle clip-path="url(#clip880)" cx="2264.49" cy="209.375" r="23.04" fill="#e26f46" fill-rule="evenodd" fill-opacity="1" stroke="#000000" stroke-opacity="1" stroke-width="6.144"/>
<path clip-path="url(#clip880)" d="M2397.36 194.749 Q2397.36 196.061 2396.54 196.811 Q2395.72 197.537 2394.78 197.537 Q2393.89 197.537 2393.42 197.021 Q2392.95 196.506 2392.95 195.85 Q2392.95 194.96 2393.61 194.187 Q2394.27 193.414 2395.25 193.25 Q2394.29 192.641 2392.86 192.641 Q2391.92 192.641 2391.1 193.133 Q2390.31 193.625 2389.82 194.257 Q2389.35 194.89 2388.93 195.803 Q2388.53 196.693 2388.36 197.232 Q2388.22 197.747 2388.11 198.31 L2386.47 204.868 Q2385.67 207.983 2385.67 209.084 Q2385.67 210.442 2386.33 211.356 Q2386.98 212.246 2388.29 212.246 Q2388.81 212.246 2389.39 212.105 Q2389.98 211.941 2390.73 211.52 Q2391.5 211.075 2392.18 210.419 Q2392.88 209.74 2393.56 208.592 Q2394.24 207.444 2394.69 205.969 Q2394.83 205.453 2395.3 205.453 Q2395.88 205.453 2395.88 205.922 Q2395.88 206.32 2395.55 207.163 Q2395.25 207.983 2394.57 209.06 Q2393.92 210.114 2393.05 211.075 Q2392.18 212.012 2390.89 212.668 Q2389.61 213.323 2388.2 213.323 Q2386.19 213.323 2384.85 212.246 Q2383.52 211.168 2383.02 209.669 Q2382.91 209.88 2382.74 210.161 Q2382.58 210.442 2382.09 211.075 Q2381.62 211.684 2381.08 212.152 Q2380.54 212.597 2379.7 212.949 Q2378.88 213.323 2377.99 213.323 Q2376.86 213.323 2375.86 212.995 Q2374.87 212.668 2374.17 211.918 Q2373.47 211.168 2373.47 210.138 Q2373.47 208.99 2374.24 208.194 Q2375.04 207.374 2376.11 207.374 Q2376.79 207.374 2377.33 207.772 Q2377.89 208.17 2377.89 209.037 Q2377.89 209.997 2377.24 210.723 Q2376.58 211.45 2375.65 211.637 Q2376.61 212.246 2378.03 212.246 Q2379.58 212.246 2380.8 210.887 Q2382.02 209.529 2382.6 207.257 Q2384.05 201.799 2384.62 199.364 Q2385.18 196.904 2385.18 195.85 Q2385.18 194.866 2384.92 194.187 Q2384.66 193.508 2384.22 193.203 Q2383.8 192.876 2383.4 192.758 Q2383.02 192.641 2382.6 192.641 Q2381.9 192.641 2381.1 192.922 Q2380.33 193.203 2379.39 193.859 Q2378.48 194.492 2377.61 195.803 Q2376.75 197.115 2376.16 198.919 Q2376.04 199.457 2375.53 199.457 Q2374.97 199.434 2374.97 198.965 Q2374.97 198.567 2375.27 197.747 Q2375.6 196.904 2376.25 195.85 Q2376.93 194.796 2377.8 193.859 Q2378.69 192.899 2379.98 192.243 Q2381.29 191.587 2382.7 191.587 Q2383.33 191.587 2383.94 191.728 Q2384.57 191.845 2385.32 192.196 Q2386.09 192.548 2386.77 193.321 Q2387.45 194.094 2387.87 195.218 Q2388.15 194.679 2388.53 194.164 Q2388.93 193.648 2389.54 193.016 Q2390.17 192.36 2391.03 191.985 Q2391.92 191.587 2392.91 191.587 Q2393.87 191.587 2394.81 191.845 Q2395.74 192.079 2396.54 192.852 Q2397.36 193.602 2397.36 194.749 Z" fill="#000000" fill-rule="evenodd" fill-opacity="1" /><path clip-path="url(#clip880)" d="M2402.25 226.598 Q2402.25 225.992 2402.3 225.811 Q2402.36 225.631 2402.62 225.352 L2409.07 218.171 Q2412.59 214.203 2412.59 210.744 Q2412.59 208.498 2411.41 206.891 Q2410.25 205.284 2408.1 205.284 Q2406.63 205.284 2405.38 206.186 Q2404.13 207.088 2403.56 208.694 Q2403.66 208.662 2404 208.662 Q2404.84 208.662 2405.3 209.186 Q2405.77 209.711 2405.77 210.416 Q2405.77 211.318 2405.18 211.76 Q2404.61 212.187 2404.03 212.187 Q2403.81 212.187 2403.49 212.137 Q2403.2 212.088 2402.72 211.629 Q2402.25 211.154 2402.25 210.317 Q2402.25 207.973 2404.02 206.104 Q2405.81 204.235 2408.53 204.235 Q2411.61 204.235 2413.63 206.071 Q2415.66 207.891 2415.66 210.744 Q2415.66 211.744 2415.35 212.662 Q2415.05 213.564 2414.64 214.269 Q2414.25 214.974 2413.17 216.105 Q2412.08 217.236 2411.22 218.04 Q2410.35 218.843 2408.4 220.548 L2404.84 224.008 L2410.89 224.008 Q2413.84 224.008 2414.07 223.746 Q2414.4 223.27 2414.81 220.762 L2415.66 220.762 L2414.71 226.598 L2402.25 226.598 Z" fill="#000000" fill-rule="evenodd" fill-opacity="1" /><path clip-path="url(#clip880)" d="M2436.54 221.794 Q2436.54 221.926 2436.39 222.434 Q2436.24 222.942 2435.88 223.729 Q2435.54 224.516 2435.06 225.238 Q2434.59 225.943 2433.8 226.467 Q2433.03 226.976 2432.14 226.976 Q2430.96 226.976 2430.18 226.189 Q2429.39 225.402 2429.39 224.221 Q2429.39 223.565 2429.73 222.663 Q2431.91 216.843 2431.91 214.843 Q2431.91 212.498 2430.09 212.498 Q2429.19 212.498 2428.34 212.842 Q2427.5 213.17 2426.93 213.629 Q2426.36 214.088 2425.83 214.728 Q2425.32 215.351 2425.06 215.777 Q2424.82 216.187 2424.62 216.597 L2424.19 218.269 Q2424.09 218.728 2423.62 220.516 L2422.88 223.549 Q2422.36 225.811 2422.24 226.025 Q2422.08 226.484 2421.72 226.73 Q2421.36 226.976 2421 226.976 Q2420.59 226.976 2420.31 226.73 Q2420.03 226.484 2420.03 226.057 Q2420.03 225.992 2420.08 225.746 Q2420.13 225.5 2420.21 225.156 Q2420.29 224.811 2420.32 224.615 L2422.27 216.859 Q2422.63 215.449 2422.72 215.007 Q2422.82 214.548 2422.82 214.039 Q2422.82 212.498 2421.77 212.498 Q2420.91 212.498 2420.36 213.515 Q2419.8 214.531 2419.32 216.499 Q2419.18 217.04 2419.08 217.154 Q2419 217.269 2418.75 217.269 Q2418.34 217.253 2418.34 216.925 Q2418.34 216.843 2418.47 216.302 Q2418.6 215.761 2418.85 214.99 Q2419.11 214.203 2419.36 213.679 Q2419.57 213.285 2419.68 213.105 Q2419.81 212.908 2420.13 212.531 Q2420.45 212.137 2420.88 211.957 Q2421.32 211.76 2421.86 211.76 Q2423.08 211.76 2423.96 212.547 Q2424.85 213.318 2424.96 214.679 Q2427.14 211.76 2430.19 211.76 Q2432 211.76 2433.03 212.711 Q2434.06 213.662 2434.06 215.351 Q2434.06 215.744 2433.98 216.253 Q2433.92 216.745 2433.75 217.368 Q2433.6 217.991 2433.47 218.466 Q2433.34 218.942 2433.08 219.712 Q2432.82 220.466 2432.7 220.794 Q2432.59 221.122 2432.31 221.893 Q2432.05 222.647 2432.01 222.729 Q2431.41 224.254 2431.41 225.123 Q2431.41 225.697 2431.59 225.959 Q2431.78 226.221 2432.21 226.221 Q2433.36 226.221 2434.21 225.09 Q2435.08 223.942 2435.64 222.073 Q2435.77 221.663 2435.83 221.565 Q2435.92 221.467 2436.14 221.467 Q2436.54 221.467 2436.54 221.794 Z" fill="#000000" fill-rule="evenodd" fill-opacity="1" /></svg>
