<?xml version="1.0" encoding="utf-8"?>
<svg xmlns="http://www.w3.org/2000/svg" xmlns:xlink="http://www.w3.org/1999/xlink" width="672" height="480" viewBox="0 0 2688 1920">
<defs>
  <clipPath id="clip770">
    <rect x="0" y="0" width="2688" height="1920"/>
  </clipPath>
</defs>
<path clip-path="url(#clip770)" d="
M0 1920 L2688 1920 L2688 0 L0 0  Z
  " fill="#ffffff" fill-rule="evenodd" fill-opacity="1"/>
<defs>
  <clipPath id="clip771">
    <rect x="537" y="0" width="1883" height="1883"/>
  </clipPath>
</defs>
<path clip-path="url(#clip770)" d="
M196.978 1800.78 L2640.76 1800.78 L2640.76 47.2441 L196.978 47.2441  Z
  " fill="#ffffff" fill-rule="evenodd" fill-opacity="1"/>
<defs>
  <clipPath id="clip772">
    <rect x="196" y="47" width="2445" height="1755"/>
  </clipPath>
</defs>
<polyline clip-path="url(#clip772)" style="stroke:#000000; stroke-linecap:round; stroke-linejoin:round; stroke-width:2; stroke-opacity:0.1; fill:none" points="
  219.092,1800.78 219.092,47.2441 
  "/>
<polyline clip-path="url(#clip772)" style="stroke:#000000; stroke-linecap:round; stroke-linejoin:round; stroke-width:2; stroke-opacity:0.1; fill:none" points="
  689.592,1800.78 689.592,47.2441 
  "/>
<polyline clip-path="url(#clip772)" style="stroke:#000000; stroke-linecap:round; stroke-linejoin:round; stroke-width:2; stroke-opacity:0.1; fill:none" points="
  1160.09,1800.78 1160.09,47.2441 
  "/>
<polyline clip-path="url(#clip772)" style="stroke:#000000; stroke-linecap:round; stroke-linejoin:round; stroke-width:2; stroke-opacity:0.1; fill:none" points="
  1630.59,1800.78 1630.59,47.2441 
  "/>
<polyline clip-path="url(#clip772)" style="stroke:#000000; stroke-linecap:round; stroke-linejoin:round; stroke-width:2; stroke-opacity:0.1; fill:none" points="
  2101.09,1800.78 2101.09,47.2441 
  "/>
<polyline clip-path="url(#clip772)" style="stroke:#000000; stroke-linecap:round; stroke-linejoin:round; stroke-width:2; stroke-opacity:0.1; fill:none" points="
  2571.59,1800.78 2571.59,47.2441 
  "/>
<polyline clip-path="url(#clip770)" style="stroke:#000000; stroke-linecap:round; stroke-linejoin:round; stroke-width:4; stroke-opacity:1; fill:none" points="
  196.978,1800.78 2640.76,1800.78 
  "/>
<polyline clip-path="url(#clip770)" style="stroke:#000000; stroke-linecap:round; stroke-linejoin:round; stroke-width:4; stroke-opacity:1; fill:none" points="
  219.092,1800.78 219.092,1781.88 
  "/>
<polyline clip-path="url(#clip770)" style="stroke:#000000; stroke-linecap:round; stroke-linejoin:round; stroke-width:4; stroke-opacity:1; fill:none" points="
  689.592,1800.78 689.592,1781.88 
  "/>
<polyline clip-path="url(#clip770)" style="stroke:#000000; stroke-linecap:round; stroke-linejoin:round; stroke-width:4; stroke-opacity:1; fill:none" points="
  1160.09,1800.78 1160.09,1781.88 
  "/>
<polyline clip-path="url(#clip770)" style="stroke:#000000; stroke-linecap:round; stroke-linejoin:round; stroke-width:4; stroke-opacity:1; fill:none" points="
  1630.59,1800.78 1630.59,1781.88 
  "/>
<polyline clip-path="url(#clip770)" style="stroke:#000000; stroke-linecap:round; stroke-linejoin:round; stroke-width:4; stroke-opacity:1; fill:none" points="
  2101.09,1800.78 2101.09,1781.88 
  "/>
<polyline clip-path="url(#clip770)" style="stroke:#000000; stroke-linecap:round; stroke-linejoin:round; stroke-width:4; stroke-opacity:1; fill:none" points="
  2571.59,1800.78 2571.59,1781.88 
  "/>
<path clip-path="url(#clip770)" d="M219.092 1834 Q215.48 1834 213.652 1837.57 Q211.846 1841.11 211.846 1848.24 Q211.846 1855.34 213.652 1858.91 Q215.48 1862.45 219.092 1862.45 Q222.726 1862.45 224.531 1858.91 Q226.36 1855.34 226.36 1848.24 Q226.36 1841.11 224.531 1837.57 Q222.726 1834 219.092 1834 M219.092 1830.3 Q224.902 1830.3 227.957 1834.9 Q231.036 1839.49 231.036 1848.24 Q231.036 1856.96 227.957 1861.57 Q224.902 1866.15 219.092 1866.15 Q213.281 1866.15 210.203 1861.57 Q207.147 1856.96 207.147 1848.24 Q207.147 1839.49 210.203 1834.9 Q213.281 1830.3 219.092 1830.3 Z" fill="#000000" fill-rule="evenodd" fill-opacity="1" /><path clip-path="url(#clip770)" d="M664.279 1861.55 L671.918 1861.55 L671.918 1835.18 L663.608 1836.85 L663.608 1832.59 L671.872 1830.92 L676.548 1830.92 L676.548 1861.55 L684.187 1861.55 L684.187 1865.48 L664.279 1865.48 L664.279 1861.55 Z" fill="#000000" fill-rule="evenodd" fill-opacity="1" /><path clip-path="url(#clip770)" d="M703.631 1834 Q700.02 1834 698.191 1837.57 Q696.386 1841.11 696.386 1848.24 Q696.386 1855.34 698.191 1858.91 Q700.02 1862.45 703.631 1862.45 Q707.265 1862.45 709.071 1858.91 Q710.899 1855.34 710.899 1848.24 Q710.899 1841.11 709.071 1837.57 Q707.265 1834 703.631 1834 M703.631 1830.3 Q709.441 1830.3 712.497 1834.9 Q715.575 1839.49 715.575 1848.24 Q715.575 1856.96 712.497 1861.57 Q709.441 1866.15 703.631 1866.15 Q697.821 1866.15 694.742 1861.57 Q691.687 1856.96 691.687 1848.24 Q691.687 1839.49 694.742 1834.9 Q697.821 1830.3 703.631 1830.3 Z" fill="#000000" fill-rule="evenodd" fill-opacity="1" /><path clip-path="url(#clip770)" d="M1138.87 1861.55 L1155.18 1861.55 L1155.18 1865.48 L1133.24 1865.48 L1133.24 1861.55 Q1135.9 1858.79 1140.49 1854.16 Q1145.09 1849.51 1146.27 1848.17 Q1148.52 1845.65 1149.4 1843.91 Q1150.3 1842.15 1150.3 1840.46 Q1150.3 1837.71 1148.36 1835.97 Q1146.43 1834.23 1143.33 1834.23 Q1141.13 1834.23 1138.68 1835 Q1136.25 1835.76 1133.47 1837.31 L1133.47 1832.59 Q1136.3 1831.46 1138.75 1830.88 Q1141.2 1830.3 1143.24 1830.3 Q1148.61 1830.3 1151.8 1832.98 Q1155 1835.67 1155 1840.16 Q1155 1842.29 1154.19 1844.21 Q1153.4 1846.11 1151.3 1848.7 Q1150.72 1849.37 1147.62 1852.59 Q1144.51 1855.78 1138.87 1861.55 Z" fill="#000000" fill-rule="evenodd" fill-opacity="1" /><path clip-path="url(#clip770)" d="M1175 1834 Q1171.39 1834 1169.56 1837.57 Q1167.75 1841.11 1167.75 1848.24 Q1167.75 1855.34 1169.56 1858.91 Q1171.39 1862.45 1175 1862.45 Q1178.63 1862.45 1180.44 1858.91 Q1182.27 1855.34 1182.27 1848.24 Q1182.27 1841.11 1180.44 1837.57 Q1178.63 1834 1175 1834 M1175 1830.3 Q1180.81 1830.3 1183.86 1834.9 Q1186.94 1839.49 1186.94 1848.24 Q1186.94 1856.96 1183.86 1861.57 Q1180.81 1866.15 1175 1866.15 Q1169.19 1866.15 1166.11 1861.57 Q1163.05 1856.96 1163.05 1848.24 Q1163.05 1839.49 1166.11 1834.9 Q1169.19 1830.3 1175 1830.3 Z" fill="#000000" fill-rule="evenodd" fill-opacity="1" /><path clip-path="url(#clip770)" d="M1619.43 1846.85 Q1622.79 1847.57 1624.67 1849.84 Q1626.56 1852.1 1626.56 1855.44 Q1626.56 1860.55 1623.05 1863.35 Q1619.53 1866.15 1613.05 1866.15 Q1610.87 1866.15 1608.56 1865.71 Q1606.26 1865.3 1603.81 1864.44 L1603.81 1859.93 Q1605.75 1861.06 1608.07 1861.64 Q1610.38 1862.22 1612.91 1862.22 Q1617.31 1862.22 1619.6 1860.48 Q1621.91 1858.75 1621.91 1855.44 Q1621.91 1852.38 1619.76 1850.67 Q1617.63 1848.93 1613.81 1848.93 L1609.78 1848.93 L1609.78 1845.09 L1613.99 1845.09 Q1617.44 1845.09 1619.27 1843.72 Q1621.1 1842.34 1621.1 1839.74 Q1621.1 1837.08 1619.2 1835.67 Q1617.33 1834.23 1613.81 1834.23 Q1611.89 1834.23 1609.69 1834.65 Q1607.49 1835.07 1604.85 1835.95 L1604.85 1831.78 Q1607.51 1831.04 1609.83 1830.67 Q1612.17 1830.3 1614.23 1830.3 Q1619.55 1830.3 1622.65 1832.73 Q1625.75 1835.14 1625.75 1839.26 Q1625.75 1842.13 1624.11 1844.12 Q1622.47 1846.09 1619.43 1846.85 Z" fill="#000000" fill-rule="evenodd" fill-opacity="1" /><path clip-path="url(#clip770)" d="M1645.43 1834 Q1641.82 1834 1639.99 1837.57 Q1638.18 1841.11 1638.18 1848.24 Q1638.18 1855.34 1639.99 1858.91 Q1641.82 1862.45 1645.43 1862.45 Q1649.06 1862.45 1650.87 1858.91 Q1652.7 1855.34 1652.7 1848.24 Q1652.7 1841.11 1650.87 1837.57 Q1649.06 1834 1645.43 1834 M1645.43 1830.3 Q1651.24 1830.3 1654.3 1834.9 Q1657.37 1839.49 1657.37 1848.24 Q1657.37 1856.96 1654.3 1861.57 Q1651.24 1866.15 1645.43 1866.15 Q1639.62 1866.15 1636.54 1861.57 Q1633.49 1856.96 1633.49 1848.24 Q1633.49 1839.49 1636.54 1834.9 Q1639.62 1830.3 1645.43 1830.3 Z" fill="#000000" fill-rule="evenodd" fill-opacity="1" /><path clip-path="url(#clip770)" d="M2089.26 1835 L2077.46 1853.45 L2089.26 1853.45 L2089.26 1835 M2088.04 1830.92 L2093.92 1830.92 L2093.92 1853.45 L2098.85 1853.45 L2098.85 1857.34 L2093.92 1857.34 L2093.92 1865.48 L2089.26 1865.48 L2089.26 1857.34 L2073.66 1857.34 L2073.66 1852.82 L2088.04 1830.92 Z" fill="#000000" fill-rule="evenodd" fill-opacity="1" /><path clip-path="url(#clip770)" d="M2116.58 1834 Q2112.97 1834 2111.14 1837.57 Q2109.33 1841.11 2109.33 1848.24 Q2109.33 1855.34 2111.14 1858.91 Q2112.97 1862.45 2116.58 1862.45 Q2120.21 1862.45 2122.02 1858.91 Q2123.85 1855.34 2123.85 1848.24 Q2123.85 1841.11 2122.02 1837.57 Q2120.21 1834 2116.58 1834 M2116.58 1830.3 Q2122.39 1830.3 2125.44 1834.9 Q2128.52 1839.49 2128.52 1848.24 Q2128.52 1856.96 2125.44 1861.57 Q2122.39 1866.15 2116.58 1866.15 Q2110.77 1866.15 2107.69 1861.57 Q2104.63 1856.96 2104.63 1848.24 Q2104.63 1839.49 2107.69 1834.9 Q2110.77 1830.3 2116.58 1830.3 Z" fill="#000000" fill-rule="evenodd" fill-opacity="1" /><path clip-path="url(#clip770)" d="M2546.29 1830.92 L2564.65 1830.92 L2564.65 1834.86 L2550.57 1834.86 L2550.57 1843.33 Q2551.59 1842.98 2552.61 1842.82 Q2553.63 1842.64 2554.65 1842.64 Q2560.44 1842.64 2563.81 1845.81 Q2567.19 1848.98 2567.19 1854.4 Q2567.19 1859.97 2563.72 1863.08 Q2560.25 1866.15 2553.93 1866.15 Q2551.75 1866.15 2549.49 1865.78 Q2547.24 1865.41 2544.83 1864.67 L2544.83 1859.97 Q2546.92 1861.11 2549.14 1861.66 Q2551.36 1862.22 2553.84 1862.22 Q2557.84 1862.22 2560.18 1860.11 Q2562.52 1858.01 2562.52 1854.4 Q2562.52 1850.78 2560.18 1848.68 Q2557.84 1846.57 2553.84 1846.57 Q2551.96 1846.57 2550.09 1846.99 Q2548.24 1847.4 2546.29 1848.28 L2546.29 1830.92 Z" fill="#000000" fill-rule="evenodd" fill-opacity="1" /><path clip-path="url(#clip770)" d="M2586.41 1834 Q2582.8 1834 2580.97 1837.57 Q2579.16 1841.11 2579.16 1848.24 Q2579.16 1855.34 2580.97 1858.91 Q2582.8 1862.45 2586.41 1862.45 Q2590.04 1862.45 2591.85 1858.91 Q2593.68 1855.34 2593.68 1848.24 Q2593.68 1841.11 2591.85 1837.57 Q2590.04 1834 2586.41 1834 M2586.41 1830.3 Q2592.22 1830.3 2595.27 1834.9 Q2598.35 1839.49 2598.35 1848.24 Q2598.35 1856.96 2595.27 1861.57 Q2592.22 1866.15 2586.41 1866.15 Q2580.6 1866.15 2577.52 1861.57 Q2574.46 1856.96 2574.46 1848.24 Q2574.46 1839.49 2577.52 1834.9 Q2580.6 1830.3 2586.41 1830.3 Z" fill="#000000" fill-rule="evenodd" fill-opacity="1" /><polyline clip-path="url(#clip772)" style="stroke:#000000; stroke-linecap:round; stroke-linejoin:round; stroke-width:2; stroke-opacity:0.1; fill:none" points="
  196.978,1640.87 2640.76,1640.87 
  "/>
<polyline clip-path="url(#clip772)" style="stroke:#000000; stroke-linecap:round; stroke-linejoin:round; stroke-width:2; stroke-opacity:0.1; fill:none" points="
  196.978,1310.01 2640.76,1310.01 
  "/>
<polyline clip-path="url(#clip772)" style="stroke:#000000; stroke-linecap:round; stroke-linejoin:round; stroke-width:2; stroke-opacity:0.1; fill:none" points="
  196.978,979.154 2640.76,979.154 
  "/>
<polyline clip-path="url(#clip772)" style="stroke:#000000; stroke-linecap:round; stroke-linejoin:round; stroke-width:2; stroke-opacity:0.1; fill:none" points="
  196.978,648.299 2640.76,648.299 
  "/>
<polyline clip-path="url(#clip772)" style="stroke:#000000; stroke-linecap:round; stroke-linejoin:round; stroke-width:2; stroke-opacity:0.1; fill:none" points="
  196.978,317.443 2640.76,317.443 
  "/>
<polyline clip-path="url(#clip770)" style="stroke:#000000; stroke-linecap:round; stroke-linejoin:round; stroke-width:4; stroke-opacity:1; fill:none" points="
  196.978,1800.78 196.978,47.2441 
  "/>
<polyline clip-path="url(#clip770)" style="stroke:#000000; stroke-linecap:round; stroke-linejoin:round; stroke-width:4; stroke-opacity:1; fill:none" points="
  196.978,1640.87 215.876,1640.87 
  "/>
<polyline clip-path="url(#clip770)" style="stroke:#000000; stroke-linecap:round; stroke-linejoin:round; stroke-width:4; stroke-opacity:1; fill:none" points="
  196.978,1310.01 215.876,1310.01 
  "/>
<polyline clip-path="url(#clip770)" style="stroke:#000000; stroke-linecap:round; stroke-linejoin:round; stroke-width:4; stroke-opacity:1; fill:none" points="
  196.978,979.154 215.876,979.154 
  "/>
<polyline clip-path="url(#clip770)" style="stroke:#000000; stroke-linecap:round; stroke-linejoin:round; stroke-width:4; stroke-opacity:1; fill:none" points="
  196.978,648.299 215.876,648.299 
  "/>
<polyline clip-path="url(#clip770)" style="stroke:#000000; stroke-linecap:round; stroke-linejoin:round; stroke-width:4; stroke-opacity:1; fill:none" points="
  196.978,317.443 215.876,317.443 
  "/>
<path clip-path="url(#clip770)" d="M49.8993 1641.32 L79.5751 1641.32 L79.5751 1645.25 L49.8993 1645.25 L49.8993 1641.32 Z" fill="#000000" fill-rule="evenodd" fill-opacity="1" /><path clip-path="url(#clip770)" d="M99.6676 1626.66 Q96.0565 1626.66 94.2278 1630.23 Q92.4223 1633.77 92.4223 1640.9 Q92.4223 1648.01 94.2278 1651.57 Q96.0565 1655.11 99.6676 1655.11 Q103.302 1655.11 105.107 1651.57 Q106.936 1648.01 106.936 1640.9 Q106.936 1633.77 105.107 1630.23 Q103.302 1626.66 99.6676 1626.66 M99.6676 1622.96 Q105.478 1622.96 108.533 1627.57 Q111.612 1632.15 111.612 1640.9 Q111.612 1649.63 108.533 1654.23 Q105.478 1658.82 99.6676 1658.82 Q93.8574 1658.82 90.7788 1654.23 Q87.7232 1649.63 87.7232 1640.9 Q87.7232 1632.15 90.7788 1627.57 Q93.8574 1622.96 99.6676 1622.96 Z" fill="#000000" fill-rule="evenodd" fill-opacity="1" /><path clip-path="url(#clip770)" d="M119.83 1652.27 L124.714 1652.27 L124.714 1658.15 L119.83 1658.15 L119.83 1652.27 Z" fill="#000000" fill-rule="evenodd" fill-opacity="1" /><path clip-path="url(#clip770)" d="M135.038 1657.43 L135.038 1653.17 Q136.797 1654 138.603 1654.44 Q140.408 1654.88 142.144 1654.88 Q146.774 1654.88 149.204 1651.78 Q151.658 1648.66 152.005 1642.31 Q150.663 1644.3 148.603 1645.37 Q146.542 1646.43 144.042 1646.43 Q138.857 1646.43 135.825 1643.31 Q132.816 1640.16 132.816 1634.72 Q132.816 1629.4 135.964 1626.18 Q139.112 1622.96 144.343 1622.96 Q150.339 1622.96 153.487 1627.57 Q156.658 1632.15 156.658 1640.9 Q156.658 1649.07 152.769 1653.96 Q148.903 1658.82 142.353 1658.82 Q140.593 1658.82 138.788 1658.47 Q136.982 1658.12 135.038 1657.43 M144.343 1642.78 Q147.491 1642.78 149.32 1640.62 Q151.172 1638.47 151.172 1634.72 Q151.172 1630.99 149.32 1628.84 Q147.491 1626.66 144.343 1626.66 Q141.195 1626.66 139.343 1628.84 Q137.515 1630.99 137.515 1634.72 Q137.515 1638.47 139.343 1640.62 Q141.195 1642.78 144.343 1642.78 Z" fill="#000000" fill-rule="evenodd" fill-opacity="1" /><path clip-path="url(#clip770)" d="M49.5521 1310.46 L79.2279 1310.46 L79.2279 1314.4 L49.5521 1314.4 L49.5521 1310.46 Z" fill="#000000" fill-rule="evenodd" fill-opacity="1" /><path clip-path="url(#clip770)" d="M99.3204 1295.81 Q95.7093 1295.81 93.8806 1299.37 Q92.075 1302.92 92.075 1310.04 Q92.075 1317.15 93.8806 1320.72 Q95.7093 1324.26 99.3204 1324.26 Q102.955 1324.26 104.76 1320.72 Q106.589 1317.15 106.589 1310.04 Q106.589 1302.92 104.76 1299.37 Q102.955 1295.81 99.3204 1295.81 M99.3204 1292.11 Q105.131 1292.11 108.186 1296.71 Q111.265 1301.29 111.265 1310.04 Q111.265 1318.77 108.186 1323.38 Q105.131 1327.96 99.3204 1327.96 Q93.5102 1327.96 90.4315 1323.38 Q87.376 1318.77 87.376 1310.04 Q87.376 1301.29 90.4315 1296.71 Q93.5102 1292.11 99.3204 1292.11 Z" fill="#000000" fill-rule="evenodd" fill-opacity="1" /><path clip-path="url(#clip770)" d="M119.482 1321.41 L124.367 1321.41 L124.367 1327.29 L119.482 1327.29 L119.482 1321.41 Z" fill="#000000" fill-rule="evenodd" fill-opacity="1" /><path clip-path="url(#clip770)" d="M145.13 1308.15 Q141.982 1308.15 140.13 1310.3 Q138.302 1312.45 138.302 1316.2 Q138.302 1319.93 140.13 1322.1 Q141.982 1324.26 145.13 1324.26 Q148.278 1324.26 150.107 1322.1 Q151.959 1319.93 151.959 1316.2 Q151.959 1312.45 150.107 1310.3 Q148.278 1308.15 145.13 1308.15 M154.413 1293.49 L154.413 1297.75 Q152.653 1296.92 150.848 1296.48 Q149.065 1296.04 147.306 1296.04 Q142.677 1296.04 140.223 1299.17 Q137.792 1302.29 137.445 1308.61 Q138.811 1306.6 140.871 1305.53 Q142.931 1304.44 145.408 1304.44 Q150.616 1304.44 153.626 1307.61 Q156.658 1310.76 156.658 1316.2 Q156.658 1321.53 153.51 1324.74 Q150.362 1327.96 145.13 1327.96 Q139.135 1327.96 135.964 1323.38 Q132.792 1318.77 132.792 1310.04 Q132.792 1301.85 136.681 1296.99 Q140.57 1292.11 147.121 1292.11 Q148.88 1292.11 150.663 1292.45 Q152.468 1292.8 154.413 1293.49 Z" fill="#000000" fill-rule="evenodd" fill-opacity="1" /><path clip-path="url(#clip770)" d="M50.3623 979.606 L80.0381 979.606 L80.0381 983.541 L50.3623 983.541 L50.3623 979.606 Z" fill="#000000" fill-rule="evenodd" fill-opacity="1" /><path clip-path="url(#clip770)" d="M100.131 964.953 Q96.5195 964.953 94.6908 968.518 Q92.8852 972.059 92.8852 979.189 Q92.8852 986.295 94.6908 989.86 Q96.5195 993.402 100.131 993.402 Q103.765 993.402 105.57 989.86 Q107.399 986.295 107.399 979.189 Q107.399 972.059 105.57 968.518 Q103.765 964.953 100.131 964.953 M100.131 961.249 Q105.941 961.249 108.996 965.856 Q112.075 970.439 112.075 979.189 Q112.075 987.916 108.996 992.522 Q105.941 997.106 100.131 997.106 Q94.3204 997.106 91.2417 992.522 Q88.1862 987.916 88.1862 979.189 Q88.1862 970.439 91.2417 965.856 Q94.3204 961.249 100.131 961.249 Z" fill="#000000" fill-rule="evenodd" fill-opacity="1" /><path clip-path="url(#clip770)" d="M120.292 990.555 L125.177 990.555 L125.177 996.434 L120.292 996.434 L120.292 990.555 Z" fill="#000000" fill-rule="evenodd" fill-opacity="1" /><path clip-path="url(#clip770)" d="M149.528 977.8 Q152.885 978.518 154.76 980.786 Q156.658 983.055 156.658 986.388 Q156.658 991.504 153.14 994.305 Q149.621 997.106 143.14 997.106 Q140.964 997.106 138.649 996.666 Q136.357 996.249 133.904 995.393 L133.904 990.879 Q135.848 992.013 138.163 992.592 Q140.478 993.17 143.001 993.17 Q147.399 993.17 149.69 991.434 Q152.005 989.698 152.005 986.388 Q152.005 983.333 149.853 981.62 Q147.723 979.883 143.903 979.883 L139.876 979.883 L139.876 976.041 L144.089 976.041 Q147.538 976.041 149.366 974.675 Q151.195 973.286 151.195 970.694 Q151.195 968.032 149.297 966.62 Q147.422 965.184 143.903 965.184 Q141.982 965.184 139.783 965.601 Q137.584 966.018 134.945 966.897 L134.945 962.731 Q137.607 961.99 139.922 961.62 Q142.26 961.249 144.32 961.249 Q149.644 961.249 152.746 963.68 Q155.848 966.087 155.848 970.208 Q155.848 973.078 154.204 975.069 Q152.561 977.036 149.528 977.8 Z" fill="#000000" fill-rule="evenodd" fill-opacity="1" /><path clip-path="url(#clip770)" d="M99.4824 634.097 Q95.8713 634.097 94.0426 637.662 Q92.2371 641.204 92.2371 648.333 Q92.2371 655.44 94.0426 659.005 Q95.8713 662.546 99.4824 662.546 Q103.117 662.546 104.922 659.005 Q106.751 655.44 106.751 648.333 Q106.751 641.204 104.922 637.662 Q103.117 634.097 99.4824 634.097 M99.4824 630.394 Q105.293 630.394 108.348 635 Q111.427 639.583 111.427 648.333 Q111.427 657.06 108.348 661.667 Q105.293 666.25 99.4824 666.25 Q93.6723 666.25 90.5936 661.667 Q87.538 657.06 87.538 648.333 Q87.538 639.583 90.5936 635 Q93.6723 630.394 99.4824 630.394 Z" fill="#000000" fill-rule="evenodd" fill-opacity="1" /><path clip-path="url(#clip770)" d="M119.644 659.699 L124.529 659.699 L124.529 665.579 L119.644 665.579 L119.644 659.699 Z" fill="#000000" fill-rule="evenodd" fill-opacity="1" /><path clip-path="url(#clip770)" d="M144.714 634.097 Q141.103 634.097 139.274 637.662 Q137.468 641.204 137.468 648.333 Q137.468 655.44 139.274 659.005 Q141.103 662.546 144.714 662.546 Q148.348 662.546 150.153 659.005 Q151.982 655.44 151.982 648.333 Q151.982 641.204 150.153 637.662 Q148.348 634.097 144.714 634.097 M144.714 630.394 Q150.524 630.394 153.579 635 Q156.658 639.583 156.658 648.333 Q156.658 657.06 153.579 661.667 Q150.524 666.25 144.714 666.25 Q138.903 666.25 135.825 661.667 Q132.769 657.06 132.769 648.333 Q132.769 639.583 135.825 635 Q138.903 630.394 144.714 630.394 Z" fill="#000000" fill-rule="evenodd" fill-opacity="1" /><path clip-path="url(#clip770)" d="M100.131 303.242 Q96.5195 303.242 94.6908 306.806 Q92.8852 310.348 92.8852 317.478 Q92.8852 324.584 94.6908 328.149 Q96.5195 331.691 100.131 331.691 Q103.765 331.691 105.57 328.149 Q107.399 324.584 107.399 317.478 Q107.399 310.348 105.57 306.806 Q103.765 303.242 100.131 303.242 M100.131 299.538 Q105.941 299.538 108.996 304.144 Q112.075 308.728 112.075 317.478 Q112.075 326.204 108.996 330.811 Q105.941 335.394 100.131 335.394 Q94.3204 335.394 91.2417 330.811 Q88.1862 326.204 88.1862 317.478 Q88.1862 308.728 91.2417 304.144 Q94.3204 299.538 100.131 299.538 Z" fill="#000000" fill-rule="evenodd" fill-opacity="1" /><path clip-path="url(#clip770)" d="M120.292 328.843 L125.177 328.843 L125.177 334.723 L120.292 334.723 L120.292 328.843 Z" fill="#000000" fill-rule="evenodd" fill-opacity="1" /><path clip-path="url(#clip770)" d="M149.528 316.089 Q152.885 316.806 154.76 319.075 Q156.658 321.343 156.658 324.677 Q156.658 329.792 153.14 332.593 Q149.621 335.394 143.14 335.394 Q140.964 335.394 138.649 334.954 Q136.357 334.538 133.904 333.681 L133.904 329.167 Q135.848 330.302 138.163 330.88 Q140.478 331.459 143.001 331.459 Q147.399 331.459 149.69 329.723 Q152.005 327.987 152.005 324.677 Q152.005 321.621 149.853 319.908 Q147.723 318.172 143.903 318.172 L139.876 318.172 L139.876 314.33 L144.089 314.33 Q147.538 314.33 149.366 312.964 Q151.195 311.575 151.195 308.982 Q151.195 306.32 149.297 304.908 Q147.422 303.473 143.903 303.473 Q141.982 303.473 139.783 303.89 Q137.584 304.306 134.945 305.186 L134.945 301.019 Q137.607 300.279 139.922 299.908 Q142.26 299.538 144.32 299.538 Q149.644 299.538 152.746 301.968 Q155.848 304.376 155.848 308.496 Q155.848 311.367 154.204 313.357 Q152.561 315.325 149.528 316.089 Z" fill="#000000" fill-rule="evenodd" fill-opacity="1" /><circle clip-path="url(#clip772)" cx="266.142" cy="1751.15" r="14.4" fill="#009af9" fill-rule="evenodd" fill-opacity="1" stroke="#000000" stroke-opacity="1" stroke-width="3.84"/>
<circle clip-path="url(#clip772)" cx="313.192" cy="96.8724" r="14.4" fill="#009af9" fill-rule="evenodd" fill-opacity="1" stroke="#000000" stroke-opacity="1" stroke-width="3.84"/>
<circle clip-path="url(#clip772)" cx="360.242" cy="1015.92" r="14.4" fill="#009af9" fill-rule="evenodd" fill-opacity="1" stroke="#000000" stroke-opacity="1" stroke-width="3.84"/>
<circle clip-path="url(#clip772)" cx="407.292" cy="372.586" r="14.4" fill="#009af9" fill-rule="evenodd" fill-opacity="1" stroke="#000000" stroke-opacity="1" stroke-width="3.84"/>
<circle clip-path="url(#clip772)" cx="454.342" cy="868.869" r="14.4" fill="#009af9" fill-rule="evenodd" fill-opacity="1" stroke="#000000" stroke-opacity="1" stroke-width="3.84"/>
<circle clip-path="url(#clip772)" cx="501.392" cy="464.49" r="14.4" fill="#009af9" fill-rule="evenodd" fill-opacity="1" stroke="#000000" stroke-opacity="1" stroke-width="3.84"/>
<circle clip-path="url(#clip772)" cx="548.442" cy="805.849" r="14.4" fill="#009af9" fill-rule="evenodd" fill-opacity="1" stroke="#000000" stroke-opacity="1" stroke-width="3.84"/>
<circle clip-path="url(#clip772)" cx="595.492" cy="510.442" r="14.4" fill="#009af9" fill-rule="evenodd" fill-opacity="1" stroke="#000000" stroke-opacity="1" stroke-width="3.84"/>
<circle clip-path="url(#clip772)" cx="642.542" cy="770.838" r="14.4" fill="#009af9" fill-rule="evenodd" fill-opacity="1" stroke="#000000" stroke-opacity="1" stroke-width="3.84"/>
<circle clip-path="url(#clip772)" cx="689.592" cy="538.013" r="14.4" fill="#009af9" fill-rule="evenodd" fill-opacity="1" stroke="#000000" stroke-opacity="1" stroke-width="3.84"/>
<circle clip-path="url(#clip772)" cx="736.642" cy="748.558" r="14.4" fill="#009af9" fill-rule="evenodd" fill-opacity="1" stroke="#000000" stroke-opacity="1" stroke-width="3.84"/>
<circle clip-path="url(#clip772)" cx="783.692" cy="556.394" r="14.4" fill="#009af9" fill-rule="evenodd" fill-opacity="1" stroke="#000000" stroke-opacity="1" stroke-width="3.84"/>
<circle clip-path="url(#clip772)" cx="830.742" cy="733.133" r="14.4" fill="#009af9" fill-rule="evenodd" fill-opacity="1" stroke="#000000" stroke-opacity="1" stroke-width="3.84"/>
<circle clip-path="url(#clip772)" cx="877.792" cy="569.523" r="14.4" fill="#009af9" fill-rule="evenodd" fill-opacity="1" stroke="#000000" stroke-opacity="1" stroke-width="3.84"/>
<circle clip-path="url(#clip772)" cx="924.842" cy="721.822" r="14.4" fill="#009af9" fill-rule="evenodd" fill-opacity="1" stroke="#000000" stroke-opacity="1" stroke-width="3.84"/>
<circle clip-path="url(#clip772)" cx="971.892" cy="579.37" r="14.4" fill="#009af9" fill-rule="evenodd" fill-opacity="1" stroke="#000000" stroke-opacity="1" stroke-width="3.84"/>
<circle clip-path="url(#clip772)" cx="1018.94" cy="713.172" r="14.4" fill="#009af9" fill-rule="evenodd" fill-opacity="1" stroke="#000000" stroke-opacity="1" stroke-width="3.84"/>
<circle clip-path="url(#clip772)" cx="1065.99" cy="587.029" r="14.4" fill="#009af9" fill-rule="evenodd" fill-opacity="1" stroke="#000000" stroke-opacity="1" stroke-width="3.84"/>
<circle clip-path="url(#clip772)" cx="1113.04" cy="706.343" r="14.4" fill="#009af9" fill-rule="evenodd" fill-opacity="1" stroke="#000000" stroke-opacity="1" stroke-width="3.84"/>
<circle clip-path="url(#clip772)" cx="1160.09" cy="593.156" r="14.4" fill="#009af9" fill-rule="evenodd" fill-opacity="1" stroke="#000000" stroke-opacity="1" stroke-width="3.84"/>
<circle clip-path="url(#clip772)" cx="1207.14" cy="700.815" r="14.4" fill="#009af9" fill-rule="evenodd" fill-opacity="1" stroke="#000000" stroke-opacity="1" stroke-width="3.84"/>
<circle clip-path="url(#clip772)" cx="1254.19" cy="598.169" r="14.4" fill="#009af9" fill-rule="evenodd" fill-opacity="1" stroke="#000000" stroke-opacity="1" stroke-width="3.84"/>
<circle clip-path="url(#clip772)" cx="1301.24" cy="696.249" r="14.4" fill="#009af9" fill-rule="evenodd" fill-opacity="1" stroke="#000000" stroke-opacity="1" stroke-width="3.84"/>
<circle clip-path="url(#clip772)" cx="1348.29" cy="602.346" r="14.4" fill="#009af9" fill-rule="evenodd" fill-opacity="1" stroke="#000000" stroke-opacity="1" stroke-width="3.84"/>
<circle clip-path="url(#clip772)" cx="1395.34" cy="692.413" r="14.4" fill="#009af9" fill-rule="evenodd" fill-opacity="1" stroke="#000000" stroke-opacity="1" stroke-width="3.84"/>
<circle clip-path="url(#clip772)" cx="1442.39" cy="605.881" r="14.4" fill="#009af9" fill-rule="evenodd" fill-opacity="1" stroke="#000000" stroke-opacity="1" stroke-width="3.84"/>
<circle clip-path="url(#clip772)" cx="1489.44" cy="689.145" r="14.4" fill="#009af9" fill-rule="evenodd" fill-opacity="1" stroke="#000000" stroke-opacity="1" stroke-width="3.84"/>
<circle clip-path="url(#clip772)" cx="1536.49" cy="608.911" r="14.4" fill="#009af9" fill-rule="evenodd" fill-opacity="1" stroke="#000000" stroke-opacity="1" stroke-width="3.84"/>
<circle clip-path="url(#clip772)" cx="1583.54" cy="686.328" r="14.4" fill="#009af9" fill-rule="evenodd" fill-opacity="1" stroke="#000000" stroke-opacity="1" stroke-width="3.84"/>
<circle clip-path="url(#clip772)" cx="1630.59" cy="611.537" r="14.4" fill="#009af9" fill-rule="evenodd" fill-opacity="1" stroke="#000000" stroke-opacity="1" stroke-width="3.84"/>
<circle clip-path="url(#clip772)" cx="1677.64" cy="683.874" r="14.4" fill="#009af9" fill-rule="evenodd" fill-opacity="1" stroke="#000000" stroke-opacity="1" stroke-width="3.84"/>
<circle clip-path="url(#clip772)" cx="1724.69" cy="613.834" r="14.4" fill="#009af9" fill-rule="evenodd" fill-opacity="1" stroke="#000000" stroke-opacity="1" stroke-width="3.84"/>
<circle clip-path="url(#clip772)" cx="1771.74" cy="681.718" r="14.4" fill="#009af9" fill-rule="evenodd" fill-opacity="1" stroke="#000000" stroke-opacity="1" stroke-width="3.84"/>
<circle clip-path="url(#clip772)" cx="1818.79" cy="615.862" r="14.4" fill="#009af9" fill-rule="evenodd" fill-opacity="1" stroke="#000000" stroke-opacity="1" stroke-width="3.84"/>
<circle clip-path="url(#clip772)" cx="1865.84" cy="679.809" r="14.4" fill="#009af9" fill-rule="evenodd" fill-opacity="1" stroke="#000000" stroke-opacity="1" stroke-width="3.84"/>
<circle clip-path="url(#clip772)" cx="1912.89" cy="617.664" r="14.4" fill="#009af9" fill-rule="evenodd" fill-opacity="1" stroke="#000000" stroke-opacity="1" stroke-width="3.84"/>
<circle clip-path="url(#clip772)" cx="1959.94" cy="678.105" r="14.4" fill="#009af9" fill-rule="evenodd" fill-opacity="1" stroke="#000000" stroke-opacity="1" stroke-width="3.84"/>
<circle clip-path="url(#clip772)" cx="2006.99" cy="619.276" r="14.4" fill="#009af9" fill-rule="evenodd" fill-opacity="1" stroke="#000000" stroke-opacity="1" stroke-width="3.84"/>
<circle clip-path="url(#clip772)" cx="2054.04" cy="676.577" r="14.4" fill="#009af9" fill-rule="evenodd" fill-opacity="1" stroke="#000000" stroke-opacity="1" stroke-width="3.84"/>
<circle clip-path="url(#clip772)" cx="2101.09" cy="620.727" r="14.4" fill="#009af9" fill-rule="evenodd" fill-opacity="1" stroke="#000000" stroke-opacity="1" stroke-width="3.84"/>
<circle clip-path="url(#clip772)" cx="2148.14" cy="675.197" r="14.4" fill="#009af9" fill-rule="evenodd" fill-opacity="1" stroke="#000000" stroke-opacity="1" stroke-width="3.84"/>
<circle clip-path="url(#clip772)" cx="2195.19" cy="622.04" r="14.4" fill="#009af9" fill-rule="evenodd" fill-opacity="1" stroke="#000000" stroke-opacity="1" stroke-width="3.84"/>
<circle clip-path="url(#clip772)" cx="2242.24" cy="673.946" r="14.4" fill="#009af9" fill-rule="evenodd" fill-opacity="1" stroke="#000000" stroke-opacity="1" stroke-width="3.84"/>
<circle clip-path="url(#clip772)" cx="2289.29" cy="623.234" r="14.4" fill="#009af9" fill-rule="evenodd" fill-opacity="1" stroke="#000000" stroke-opacity="1" stroke-width="3.84"/>
<circle clip-path="url(#clip772)" cx="2336.34" cy="672.806" r="14.4" fill="#009af9" fill-rule="evenodd" fill-opacity="1" stroke="#000000" stroke-opacity="1" stroke-width="3.84"/>
<circle clip-path="url(#clip772)" cx="2383.39" cy="624.324" r="14.4" fill="#009af9" fill-rule="evenodd" fill-opacity="1" stroke="#000000" stroke-opacity="1" stroke-width="3.84"/>
<circle clip-path="url(#clip772)" cx="2430.44" cy="671.764" r="14.4" fill="#009af9" fill-rule="evenodd" fill-opacity="1" stroke="#000000" stroke-opacity="1" stroke-width="3.84"/>
<circle clip-path="url(#clip772)" cx="2477.49" cy="625.323" r="14.4" fill="#009af9" fill-rule="evenodd" fill-opacity="1" stroke="#000000" stroke-opacity="1" stroke-width="3.84"/>
<circle clip-path="url(#clip772)" cx="2524.54" cy="670.806" r="14.4" fill="#009af9" fill-rule="evenodd" fill-opacity="1" stroke="#000000" stroke-opacity="1" stroke-width="3.84"/>
<circle clip-path="url(#clip772)" cx="2571.59" cy="626.242" r="14.4" fill="#009af9" fill-rule="evenodd" fill-opacity="1" stroke="#000000" stroke-opacity="1" stroke-width="3.84"/>
</svg>
