<?xml version="1.0" encoding="utf-8"?>
<svg xmlns="http://www.w3.org/2000/svg" xmlns:xlink="http://www.w3.org/1999/xlink" width="672" height="480" viewBox="0 0 2688 1920">
<defs>
  <clipPath id="clip410">
    <rect x="0" y="0" width="2688" height="1920"/>
  </clipPath>
</defs>
<path clip-path="url(#clip410)" d="
M0 1920 L2688 1920 L2688 0 L0 0  Z
  " fill="#ffffff" fill-rule="evenodd" fill-opacity="1"/>
<defs>
  <clipPath id="clip411">
    <rect x="537" y="0" width="1883" height="1883"/>
  </clipPath>
</defs>
<path clip-path="url(#clip410)" d="
M113.761 1800.78 L2640.76 1800.78 L2640.76 47.2441 L113.761 47.2441  Z
  " fill="#ffffff" fill-rule="evenodd" fill-opacity="1"/>
<defs>
  <clipPath id="clip412">
    <rect x="113" y="47" width="2528" height="1755"/>
  </clipPath>
</defs>
<polyline clip-path="url(#clip412)" style="stroke:#000000; stroke-linecap:round; stroke-linejoin:round; stroke-width:2; stroke-opacity:0.1; fill:none" points="
  136.627,1800.78 136.627,47.2441 
  "/>
<polyline clip-path="url(#clip412)" style="stroke:#000000; stroke-linecap:round; stroke-linejoin:round; stroke-width:2; stroke-opacity:0.1; fill:none" points="
  623.149,1800.78 623.149,47.2441 
  "/>
<polyline clip-path="url(#clip412)" style="stroke:#000000; stroke-linecap:round; stroke-linejoin:round; stroke-width:2; stroke-opacity:0.1; fill:none" points="
  1109.67,1800.78 1109.67,47.2441 
  "/>
<polyline clip-path="url(#clip412)" style="stroke:#000000; stroke-linecap:round; stroke-linejoin:round; stroke-width:2; stroke-opacity:0.1; fill:none" points="
  1596.19,1800.78 1596.19,47.2441 
  "/>
<polyline clip-path="url(#clip412)" style="stroke:#000000; stroke-linecap:round; stroke-linejoin:round; stroke-width:2; stroke-opacity:0.1; fill:none" points="
  2082.72,1800.78 2082.72,47.2441 
  "/>
<polyline clip-path="url(#clip412)" style="stroke:#000000; stroke-linecap:round; stroke-linejoin:round; stroke-width:2; stroke-opacity:0.1; fill:none" points="
  2569.24,1800.78 2569.24,47.2441 
  "/>
<polyline clip-path="url(#clip410)" style="stroke:#000000; stroke-linecap:round; stroke-linejoin:round; stroke-width:4; stroke-opacity:1; fill:none" points="
  113.761,1800.78 2640.76,1800.78 
  "/>
<polyline clip-path="url(#clip410)" style="stroke:#000000; stroke-linecap:round; stroke-linejoin:round; stroke-width:4; stroke-opacity:1; fill:none" points="
  136.627,1800.78 136.627,1781.88 
  "/>
<polyline clip-path="url(#clip410)" style="stroke:#000000; stroke-linecap:round; stroke-linejoin:round; stroke-width:4; stroke-opacity:1; fill:none" points="
  623.149,1800.78 623.149,1781.88 
  "/>
<polyline clip-path="url(#clip410)" style="stroke:#000000; stroke-linecap:round; stroke-linejoin:round; stroke-width:4; stroke-opacity:1; fill:none" points="
  1109.67,1800.78 1109.67,1781.88 
  "/>
<polyline clip-path="url(#clip410)" style="stroke:#000000; stroke-linecap:round; stroke-linejoin:round; stroke-width:4; stroke-opacity:1; fill:none" points="
  1596.19,1800.78 1596.19,1781.88 
  "/>
<polyline clip-path="url(#clip410)" style="stroke:#000000; stroke-linecap:round; stroke-linejoin:round; stroke-width:4; stroke-opacity:1; fill:none" points="
  2082.72,1800.78 2082.72,1781.88 
  "/>
<polyline clip-path="url(#clip410)" style="stroke:#000000; stroke-linecap:round; stroke-linejoin:round; stroke-width:4; stroke-opacity:1; fill:none" points="
  2569.24,1800.78 2569.24,1781.88 
  "/>
<path clip-path="url(#clip410)" d="M136.627 1834 Q133.016 1834 131.188 1837.57 Q129.382 1841.11 129.382 1848.24 Q129.382 1855.34 131.188 1858.91 Q133.016 1862.45 136.627 1862.45 Q140.262 1862.45 142.067 1858.91 Q143.896 1855.34 143.896 1848.24 Q143.896 1841.11 142.067 1837.57 Q140.262 1834 136.627 1834 M136.627 1830.3 Q142.438 1830.3 145.493 1834.9 Q148.572 1839.49 148.572 1848.24 Q148.572 1856.96 145.493 1861.57 Q142.438 1866.15 136.627 1866.15 Q130.817 1866.15 127.739 1861.57 Q124.683 1856.96 124.683 1848.24 Q124.683 1839.49 127.739 1834.9 Q130.817 1830.3 136.627 1830.3 Z" fill="#000000" fill-rule="evenodd" fill-opacity="1" /><path clip-path="url(#clip410)" d="M597.837 1861.55 L605.476 1861.55 L605.476 1835.18 L597.166 1836.85 L597.166 1832.59 L605.43 1830.92 L610.105 1830.92 L610.105 1861.55 L617.744 1861.55 L617.744 1865.48 L597.837 1865.48 L597.837 1861.55 Z" fill="#000000" fill-rule="evenodd" fill-opacity="1" /><path clip-path="url(#clip410)" d="M637.189 1834 Q633.578 1834 631.749 1837.57 Q629.943 1841.11 629.943 1848.24 Q629.943 1855.34 631.749 1858.91 Q633.578 1862.45 637.189 1862.45 Q640.823 1862.45 642.628 1858.91 Q644.457 1855.34 644.457 1848.24 Q644.457 1841.11 642.628 1837.57 Q640.823 1834 637.189 1834 M637.189 1830.3 Q642.999 1830.3 646.054 1834.9 Q649.133 1839.49 649.133 1848.24 Q649.133 1856.96 646.054 1861.57 Q642.999 1866.15 637.189 1866.15 Q631.378 1866.15 628.3 1861.57 Q625.244 1856.96 625.244 1848.24 Q625.244 1839.49 628.3 1834.9 Q631.378 1830.3 637.189 1830.3 Z" fill="#000000" fill-rule="evenodd" fill-opacity="1" /><path clip-path="url(#clip410)" d="M1088.44 1861.55 L1104.76 1861.55 L1104.76 1865.48 L1082.82 1865.48 L1082.82 1861.55 Q1085.48 1858.79 1090.06 1854.16 Q1094.67 1849.51 1095.85 1848.17 Q1098.1 1845.65 1098.98 1843.91 Q1099.88 1842.15 1099.88 1840.46 Q1099.88 1837.71 1097.94 1835.97 Q1096.01 1834.23 1092.91 1834.23 Q1090.71 1834.23 1088.26 1835 Q1085.83 1835.76 1083.05 1837.31 L1083.05 1832.59 Q1085.88 1831.46 1088.33 1830.88 Q1090.78 1830.3 1092.82 1830.3 Q1098.19 1830.3 1101.38 1832.98 Q1104.58 1835.67 1104.58 1840.16 Q1104.58 1842.29 1103.77 1844.21 Q1102.98 1846.11 1100.88 1848.7 Q1100.3 1849.37 1097.19 1852.59 Q1094.09 1855.78 1088.44 1861.55 Z" fill="#000000" fill-rule="evenodd" fill-opacity="1" /><path clip-path="url(#clip410)" d="M1124.58 1834 Q1120.97 1834 1119.14 1837.57 Q1117.33 1841.11 1117.33 1848.24 Q1117.33 1855.34 1119.14 1858.91 Q1120.97 1862.45 1124.58 1862.45 Q1128.21 1862.45 1130.02 1858.91 Q1131.85 1855.34 1131.85 1848.24 Q1131.85 1841.11 1130.02 1837.57 Q1128.21 1834 1124.58 1834 M1124.58 1830.3 Q1130.39 1830.3 1133.44 1834.9 Q1136.52 1839.49 1136.52 1848.24 Q1136.52 1856.96 1133.44 1861.57 Q1130.39 1866.15 1124.58 1866.15 Q1118.77 1866.15 1115.69 1861.57 Q1112.63 1856.96 1112.63 1848.24 Q1112.63 1839.49 1115.69 1834.9 Q1118.77 1830.3 1124.58 1830.3 Z" fill="#000000" fill-rule="evenodd" fill-opacity="1" /><path clip-path="url(#clip410)" d="M1585.04 1846.85 Q1588.39 1847.57 1590.27 1849.84 Q1592.17 1852.1 1592.17 1855.44 Q1592.17 1860.55 1588.65 1863.35 Q1585.13 1866.15 1578.65 1866.15 Q1576.47 1866.15 1574.16 1865.71 Q1571.86 1865.3 1569.41 1864.44 L1569.41 1859.93 Q1571.36 1861.06 1573.67 1861.64 Q1575.99 1862.22 1578.51 1862.22 Q1582.91 1862.22 1585.2 1860.48 Q1587.51 1858.75 1587.51 1855.44 Q1587.51 1852.38 1585.36 1850.67 Q1583.23 1848.93 1579.41 1848.93 L1575.38 1848.93 L1575.38 1845.09 L1579.6 1845.09 Q1583.05 1845.09 1584.87 1843.72 Q1586.7 1842.34 1586.7 1839.74 Q1586.7 1837.08 1584.8 1835.67 Q1582.93 1834.23 1579.41 1834.23 Q1577.49 1834.23 1575.29 1834.65 Q1573.09 1835.07 1570.45 1835.95 L1570.45 1831.78 Q1573.11 1831.04 1575.43 1830.67 Q1577.77 1830.3 1579.83 1830.3 Q1585.15 1830.3 1588.25 1832.73 Q1591.36 1835.14 1591.36 1839.26 Q1591.36 1842.13 1589.71 1844.12 Q1588.07 1846.09 1585.04 1846.85 Z" fill="#000000" fill-rule="evenodd" fill-opacity="1" /><path clip-path="url(#clip410)" d="M1611.03 1834 Q1607.42 1834 1605.59 1837.57 Q1603.79 1841.11 1603.79 1848.24 Q1603.79 1855.34 1605.59 1858.91 Q1607.42 1862.45 1611.03 1862.45 Q1614.67 1862.45 1616.47 1858.91 Q1618.3 1855.34 1618.3 1848.24 Q1618.3 1841.11 1616.47 1837.57 Q1614.67 1834 1611.03 1834 M1611.03 1830.3 Q1616.84 1830.3 1619.9 1834.9 Q1622.98 1839.49 1622.98 1848.24 Q1622.98 1856.96 1619.9 1861.57 Q1616.84 1866.15 1611.03 1866.15 Q1605.22 1866.15 1602.14 1861.57 Q1599.09 1856.96 1599.09 1848.24 Q1599.09 1839.49 1602.14 1834.9 Q1605.22 1830.3 1611.03 1830.3 Z" fill="#000000" fill-rule="evenodd" fill-opacity="1" /><path clip-path="url(#clip410)" d="M2070.89 1835 L2059.08 1853.45 L2070.89 1853.45 L2070.89 1835 M2069.66 1830.92 L2075.54 1830.92 L2075.54 1853.45 L2080.47 1853.45 L2080.47 1857.34 L2075.54 1857.34 L2075.54 1865.48 L2070.89 1865.48 L2070.89 1857.34 L2055.28 1857.34 L2055.28 1852.82 L2069.66 1830.92 Z" fill="#000000" fill-rule="evenodd" fill-opacity="1" /><path clip-path="url(#clip410)" d="M2098.2 1834 Q2094.59 1834 2092.76 1837.57 Q2090.96 1841.11 2090.96 1848.24 Q2090.96 1855.34 2092.76 1858.91 Q2094.59 1862.45 2098.2 1862.45 Q2101.84 1862.45 2103.64 1858.91 Q2105.47 1855.34 2105.47 1848.24 Q2105.47 1841.11 2103.64 1837.57 Q2101.84 1834 2098.2 1834 M2098.2 1830.3 Q2104.01 1830.3 2107.07 1834.9 Q2110.15 1839.49 2110.15 1848.24 Q2110.15 1856.96 2107.07 1861.57 Q2104.01 1866.15 2098.2 1866.15 Q2092.39 1866.15 2089.31 1861.57 Q2086.26 1856.96 2086.26 1848.24 Q2086.26 1839.49 2089.31 1834.9 Q2092.39 1830.3 2098.2 1830.3 Z" fill="#000000" fill-rule="evenodd" fill-opacity="1" /><path clip-path="url(#clip410)" d="M2543.94 1830.92 L2562.29 1830.92 L2562.29 1834.86 L2548.22 1834.86 L2548.22 1843.33 Q2549.24 1842.98 2550.26 1842.82 Q2551.27 1842.64 2552.29 1842.64 Q2558.08 1842.64 2561.46 1845.81 Q2564.84 1848.98 2564.84 1854.4 Q2564.84 1859.97 2561.37 1863.08 Q2557.89 1866.15 2551.58 1866.15 Q2549.4 1866.15 2547.13 1865.78 Q2544.89 1865.41 2542.48 1864.67 L2542.48 1859.97 Q2544.56 1861.11 2546.78 1861.66 Q2549.01 1862.22 2551.48 1862.22 Q2555.49 1862.22 2557.83 1860.11 Q2560.16 1858.01 2560.16 1854.4 Q2560.16 1850.78 2557.83 1848.68 Q2555.49 1846.57 2551.48 1846.57 Q2549.61 1846.57 2547.73 1846.99 Q2545.88 1847.4 2543.94 1848.28 L2543.94 1830.92 Z" fill="#000000" fill-rule="evenodd" fill-opacity="1" /><path clip-path="url(#clip410)" d="M2584.05 1834 Q2580.44 1834 2578.61 1837.57 Q2576.81 1841.11 2576.81 1848.24 Q2576.81 1855.34 2578.61 1858.91 Q2580.44 1862.45 2584.05 1862.45 Q2587.69 1862.45 2589.49 1858.91 Q2591.32 1855.34 2591.32 1848.24 Q2591.32 1841.11 2589.49 1837.57 Q2587.69 1834 2584.05 1834 M2584.05 1830.3 Q2589.86 1830.3 2592.92 1834.9 Q2596 1839.49 2596 1848.24 Q2596 1856.96 2592.92 1861.57 Q2589.86 1866.15 2584.05 1866.15 Q2578.24 1866.15 2575.16 1861.57 Q2572.11 1856.96 2572.11 1848.24 Q2572.11 1839.49 2575.16 1834.9 Q2578.24 1830.3 2584.05 1830.3 Z" fill="#000000" fill-rule="evenodd" fill-opacity="1" /><polyline clip-path="url(#clip412)" style="stroke:#000000; stroke-linecap:round; stroke-linejoin:round; stroke-width:2; stroke-opacity:0.1; fill:none" points="
  113.761,1751.15 2640.76,1751.15 
  "/>
<polyline clip-path="url(#clip412)" style="stroke:#000000; stroke-linecap:round; stroke-linejoin:round; stroke-width:2; stroke-opacity:0.1; fill:none" points="
  113.761,1223.19 2640.76,1223.19 
  "/>
<polyline clip-path="url(#clip412)" style="stroke:#000000; stroke-linecap:round; stroke-linejoin:round; stroke-width:2; stroke-opacity:0.1; fill:none" points="
  113.761,695.228 2640.76,695.228 
  "/>
<polyline clip-path="url(#clip412)" style="stroke:#000000; stroke-linecap:round; stroke-linejoin:round; stroke-width:2; stroke-opacity:0.1; fill:none" points="
  113.761,167.266 2640.76,167.266 
  "/>
<polyline clip-path="url(#clip410)" style="stroke:#000000; stroke-linecap:round; stroke-linejoin:round; stroke-width:4; stroke-opacity:1; fill:none" points="
  113.761,1800.78 113.761,47.2441 
  "/>
<polyline clip-path="url(#clip410)" style="stroke:#000000; stroke-linecap:round; stroke-linejoin:round; stroke-width:4; stroke-opacity:1; fill:none" points="
  113.761,1751.15 132.659,1751.15 
  "/>
<polyline clip-path="url(#clip410)" style="stroke:#000000; stroke-linecap:round; stroke-linejoin:round; stroke-width:4; stroke-opacity:1; fill:none" points="
  113.761,1223.19 132.659,1223.19 
  "/>
<polyline clip-path="url(#clip410)" style="stroke:#000000; stroke-linecap:round; stroke-linejoin:round; stroke-width:4; stroke-opacity:1; fill:none" points="
  113.761,695.228 132.659,695.228 
  "/>
<polyline clip-path="url(#clip410)" style="stroke:#000000; stroke-linecap:round; stroke-linejoin:round; stroke-width:4; stroke-opacity:1; fill:none" points="
  113.761,167.266 132.659,167.266 
  "/>
<path clip-path="url(#clip410)" d="M61.4965 1736.95 Q57.8854 1736.95 56.0567 1740.51 Q54.2512 1744.06 54.2512 1751.19 Q54.2512 1758.29 56.0567 1761.86 Q57.8854 1765.4 61.4965 1765.4 Q65.1307 1765.4 66.9363 1761.86 Q68.765 1758.29 68.765 1751.19 Q68.765 1744.06 66.9363 1740.51 Q65.1307 1736.95 61.4965 1736.95 M61.4965 1733.25 Q67.3067 1733.25 70.3622 1737.85 Q73.4409 1742.44 73.4409 1751.19 Q73.4409 1759.91 70.3622 1764.52 Q67.3067 1769.1 61.4965 1769.1 Q55.6864 1769.1 52.6077 1764.52 Q49.5521 1759.91 49.5521 1751.19 Q49.5521 1742.44 52.6077 1737.85 Q55.6864 1733.25 61.4965 1733.25 Z" fill="#000000" fill-rule="evenodd" fill-opacity="1" /><path clip-path="url(#clip410)" d="M53.5336 1236.53 L61.1724 1236.53 L61.1724 1210.17 L52.8623 1211.84 L52.8623 1207.58 L61.1261 1205.91 L65.802 1205.91 L65.802 1236.53 L73.4409 1236.53 L73.4409 1240.47 L53.5336 1240.47 L53.5336 1236.53 Z" fill="#000000" fill-rule="evenodd" fill-opacity="1" /><path clip-path="url(#clip410)" d="M57.1215 708.572 L73.4409 708.572 L73.4409 712.508 L51.4966 712.508 L51.4966 708.572 Q54.1586 705.818 58.7419 701.188 Q63.3483 696.536 64.5289 695.193 Q66.7743 692.67 67.6539 690.934 Q68.5567 689.174 68.5567 687.485 Q68.5567 684.73 66.6122 682.994 Q64.6909 681.258 61.5891 681.258 Q59.39 681.258 56.9363 682.022 Q54.5058 682.786 51.728 684.337 L51.728 679.614 Q54.5521 678.48 57.0058 677.901 Q59.4595 677.323 61.4965 677.323 Q66.8668 677.323 70.0613 680.008 Q73.2557 682.693 73.2557 687.184 Q73.2557 689.313 72.4455 691.235 Q71.6585 693.133 69.552 695.725 Q68.9733 696.397 65.8715 699.614 Q62.7696 702.809 57.1215 708.572 Z" fill="#000000" fill-rule="evenodd" fill-opacity="1" /><path clip-path="url(#clip410)" d="M66.3113 165.912 Q69.6678 166.629 71.5427 168.898 Q73.4409 171.166 73.4409 174.5 Q73.4409 179.615 69.9224 182.416 Q66.4039 185.217 59.9224 185.217 Q57.7465 185.217 55.4317 184.777 Q53.1401 184.361 50.6864 183.504 L50.6864 178.99 Q52.6308 180.125 54.9456 180.703 Q57.2604 181.282 59.7836 181.282 Q64.1817 181.282 66.4733 179.546 Q68.7881 177.81 68.7881 174.5 Q68.7881 171.444 66.6354 169.731 Q64.5057 167.995 60.6863 167.995 L56.6586 167.995 L56.6586 164.153 L60.8715 164.153 Q64.3206 164.153 66.1493 162.787 Q67.978 161.398 67.978 158.805 Q67.978 156.143 66.0798 154.731 Q64.2048 153.296 60.6863 153.296 Q58.765 153.296 56.566 153.713 Q54.3669 154.13 51.728 155.009 L51.728 150.842 Q54.3901 150.102 56.7049 149.731 Q59.0428 149.361 61.103 149.361 Q66.427 149.361 69.5289 151.792 Q72.6307 154.199 72.6307 158.319 Q72.6307 161.19 70.9872 163.18 Q69.3437 165.148 66.3113 165.912 Z" fill="#000000" fill-rule="evenodd" fill-opacity="1" /><circle clip-path="url(#clip412)" cx="185.28" cy="1751.15" r="14.4" fill="#009af9" fill-rule="evenodd" fill-opacity="1" stroke="#000000" stroke-opacity="1" stroke-width="3.84"/>
<circle clip-path="url(#clip412)" cx="233.932" cy="1751.15" r="14.4" fill="#009af9" fill-rule="evenodd" fill-opacity="1" stroke="#000000" stroke-opacity="1" stroke-width="3.84"/>
<circle clip-path="url(#clip412)" cx="282.584" cy="1065.31" r="14.4" fill="#009af9" fill-rule="evenodd" fill-opacity="1" stroke="#000000" stroke-opacity="1" stroke-width="3.84"/>
<circle clip-path="url(#clip412)" cx="331.236" cy="695.228" r="14.4" fill="#009af9" fill-rule="evenodd" fill-opacity="1" stroke="#000000" stroke-opacity="1" stroke-width="3.84"/>
<circle clip-path="url(#clip412)" cx="379.888" cy="495.848" r="14.4" fill="#009af9" fill-rule="evenodd" fill-opacity="1" stroke="#000000" stroke-opacity="1" stroke-width="3.84"/>
<circle clip-path="url(#clip412)" cx="428.541" cy="379.466" r="14.4" fill="#009af9" fill-rule="evenodd" fill-opacity="1" stroke="#000000" stroke-opacity="1" stroke-width="3.84"/>
<circle clip-path="url(#clip412)" cx="477.193" cy="306.431" r="14.4" fill="#009af9" fill-rule="evenodd" fill-opacity="1" stroke="#000000" stroke-opacity="1" stroke-width="3.84"/>
<circle clip-path="url(#clip412)" cx="525.845" cy="257.85" r="14.4" fill="#009af9" fill-rule="evenodd" fill-opacity="1" stroke="#000000" stroke-opacity="1" stroke-width="3.84"/>
<circle clip-path="url(#clip412)" cx="574.497" cy="223.999" r="14.4" fill="#009af9" fill-rule="evenodd" fill-opacity="1" stroke="#000000" stroke-opacity="1" stroke-width="3.84"/>
<circle clip-path="url(#clip412)" cx="623.149" cy="199.511" r="14.4" fill="#009af9" fill-rule="evenodd" fill-opacity="1" stroke="#000000" stroke-opacity="1" stroke-width="3.84"/>
<circle clip-path="url(#clip412)" cx="671.802" cy="181.244" r="14.4" fill="#009af9" fill-rule="evenodd" fill-opacity="1" stroke="#000000" stroke-opacity="1" stroke-width="3.84"/>
<circle clip-path="url(#clip412)" cx="720.454" cy="167.266" r="14.4" fill="#009af9" fill-rule="evenodd" fill-opacity="1" stroke="#000000" stroke-opacity="1" stroke-width="3.84"/>
<circle clip-path="url(#clip412)" cx="769.106" cy="156.337" r="14.4" fill="#009af9" fill-rule="evenodd" fill-opacity="1" stroke="#000000" stroke-opacity="1" stroke-width="3.84"/>
<circle clip-path="url(#clip412)" cx="817.758" cy="147.633" r="14.4" fill="#009af9" fill-rule="evenodd" fill-opacity="1" stroke="#000000" stroke-opacity="1" stroke-width="3.84"/>
<circle clip-path="url(#clip412)" cx="866.41" cy="140.591" r="14.4" fill="#009af9" fill-rule="evenodd" fill-opacity="1" stroke="#000000" stroke-opacity="1" stroke-width="3.84"/>
<circle clip-path="url(#clip412)" cx="915.063" cy="134.814" r="14.4" fill="#009af9" fill-rule="evenodd" fill-opacity="1" stroke="#000000" stroke-opacity="1" stroke-width="3.84"/>
<circle clip-path="url(#clip412)" cx="963.715" cy="130.016" r="14.4" fill="#009af9" fill-rule="evenodd" fill-opacity="1" stroke="#000000" stroke-opacity="1" stroke-width="3.84"/>
<circle clip-path="url(#clip412)" cx="1012.37" cy="125.989" r="14.4" fill="#009af9" fill-rule="evenodd" fill-opacity="1" stroke="#000000" stroke-opacity="1" stroke-width="3.84"/>
<circle clip-path="url(#clip412)" cx="1061.02" cy="122.577" r="14.4" fill="#009af9" fill-rule="evenodd" fill-opacity="1" stroke="#000000" stroke-opacity="1" stroke-width="3.84"/>
<circle clip-path="url(#clip412)" cx="1109.67" cy="119.66" r="14.4" fill="#009af9" fill-rule="evenodd" fill-opacity="1" stroke="#000000" stroke-opacity="1" stroke-width="3.84"/>
<circle clip-path="url(#clip412)" cx="1158.32" cy="117.147" r="14.4" fill="#009af9" fill-rule="evenodd" fill-opacity="1" stroke="#000000" stroke-opacity="1" stroke-width="3.84"/>
<circle clip-path="url(#clip412)" cx="1206.98" cy="114.967" r="14.4" fill="#009af9" fill-rule="evenodd" fill-opacity="1" stroke="#000000" stroke-opacity="1" stroke-width="3.84"/>
<circle clip-path="url(#clip412)" cx="1255.63" cy="113.064" r="14.4" fill="#009af9" fill-rule="evenodd" fill-opacity="1" stroke="#000000" stroke-opacity="1" stroke-width="3.84"/>
<circle clip-path="url(#clip412)" cx="1304.28" cy="111.393" r="14.4" fill="#009af9" fill-rule="evenodd" fill-opacity="1" stroke="#000000" stroke-opacity="1" stroke-width="3.84"/>
<circle clip-path="url(#clip412)" cx="1352.93" cy="109.917" r="14.4" fill="#009af9" fill-rule="evenodd" fill-opacity="1" stroke="#000000" stroke-opacity="1" stroke-width="3.84"/>
<circle clip-path="url(#clip412)" cx="1401.58" cy="108.608" r="14.4" fill="#009af9" fill-rule="evenodd" fill-opacity="1" stroke="#000000" stroke-opacity="1" stroke-width="3.84"/>
<circle clip-path="url(#clip412)" cx="1450.24" cy="107.44" r="14.4" fill="#009af9" fill-rule="evenodd" fill-opacity="1" stroke="#000000" stroke-opacity="1" stroke-width="3.84"/>
<circle clip-path="url(#clip412)" cx="1498.89" cy="106.396" r="14.4" fill="#009af9" fill-rule="evenodd" fill-opacity="1" stroke="#000000" stroke-opacity="1" stroke-width="3.84"/>
<circle clip-path="url(#clip412)" cx="1547.54" cy="105.457" r="14.4" fill="#009af9" fill-rule="evenodd" fill-opacity="1" stroke="#000000" stroke-opacity="1" stroke-width="3.84"/>
<circle clip-path="url(#clip412)" cx="1596.19" cy="104.61" r="14.4" fill="#009af9" fill-rule="evenodd" fill-opacity="1" stroke="#000000" stroke-opacity="1" stroke-width="3.84"/>
<circle clip-path="url(#clip412)" cx="1644.85" cy="103.844" r="14.4" fill="#009af9" fill-rule="evenodd" fill-opacity="1" stroke="#000000" stroke-opacity="1" stroke-width="3.84"/>
<circle clip-path="url(#clip412)" cx="1693.5" cy="103.148" r="14.4" fill="#009af9" fill-rule="evenodd" fill-opacity="1" stroke="#000000" stroke-opacity="1" stroke-width="3.84"/>
<circle clip-path="url(#clip412)" cx="1742.15" cy="102.514" r="14.4" fill="#009af9" fill-rule="evenodd" fill-opacity="1" stroke="#000000" stroke-opacity="1" stroke-width="3.84"/>
<circle clip-path="url(#clip412)" cx="1790.8" cy="101.935" r="14.4" fill="#009af9" fill-rule="evenodd" fill-opacity="1" stroke="#000000" stroke-opacity="1" stroke-width="3.84"/>
<circle clip-path="url(#clip412)" cx="1839.45" cy="101.405" r="14.4" fill="#009af9" fill-rule="evenodd" fill-opacity="1" stroke="#000000" stroke-opacity="1" stroke-width="3.84"/>
<circle clip-path="url(#clip412)" cx="1888.11" cy="100.919" r="14.4" fill="#009af9" fill-rule="evenodd" fill-opacity="1" stroke="#000000" stroke-opacity="1" stroke-width="3.84"/>
<circle clip-path="url(#clip412)" cx="1936.76" cy="100.471" r="14.4" fill="#009af9" fill-rule="evenodd" fill-opacity="1" stroke="#000000" stroke-opacity="1" stroke-width="3.84"/>
<circle clip-path="url(#clip412)" cx="1985.41" cy="100.058" r="14.4" fill="#009af9" fill-rule="evenodd" fill-opacity="1" stroke="#000000" stroke-opacity="1" stroke-width="3.84"/>
<circle clip-path="url(#clip412)" cx="2034.06" cy="99.6764" r="14.4" fill="#009af9" fill-rule="evenodd" fill-opacity="1" stroke="#000000" stroke-opacity="1" stroke-width="3.84"/>
<circle clip-path="url(#clip412)" cx="2082.72" cy="99.323" r="14.4" fill="#009af9" fill-rule="evenodd" fill-opacity="1" stroke="#000000" stroke-opacity="1" stroke-width="3.84"/>
<circle clip-path="url(#clip412)" cx="2131.37" cy="98.9951" r="14.4" fill="#009af9" fill-rule="evenodd" fill-opacity="1" stroke="#000000" stroke-opacity="1" stroke-width="3.84"/>
<circle clip-path="url(#clip412)" cx="2180.02" cy="98.6904" r="14.4" fill="#009af9" fill-rule="evenodd" fill-opacity="1" stroke="#000000" stroke-opacity="1" stroke-width="3.84"/>
<circle clip-path="url(#clip412)" cx="2228.67" cy="98.4066" r="14.4" fill="#009af9" fill-rule="evenodd" fill-opacity="1" stroke="#000000" stroke-opacity="1" stroke-width="3.84"/>
<circle clip-path="url(#clip412)" cx="2277.32" cy="98.1419" r="14.4" fill="#009af9" fill-rule="evenodd" fill-opacity="1" stroke="#000000" stroke-opacity="1" stroke-width="3.84"/>
<circle clip-path="url(#clip412)" cx="2325.98" cy="97.8946" r="14.4" fill="#009af9" fill-rule="evenodd" fill-opacity="1" stroke="#000000" stroke-opacity="1" stroke-width="3.84"/>
<circle clip-path="url(#clip412)" cx="2374.63" cy="97.6633" r="14.4" fill="#009af9" fill-rule="evenodd" fill-opacity="1" stroke="#000000" stroke-opacity="1" stroke-width="3.84"/>
<circle clip-path="url(#clip412)" cx="2423.28" cy="97.4465" r="14.4" fill="#009af9" fill-rule="evenodd" fill-opacity="1" stroke="#000000" stroke-opacity="1" stroke-width="3.84"/>
<circle clip-path="url(#clip412)" cx="2471.93" cy="97.2432" r="14.4" fill="#009af9" fill-rule="evenodd" fill-opacity="1" stroke="#000000" stroke-opacity="1" stroke-width="3.84"/>
<circle clip-path="url(#clip412)" cx="2520.58" cy="97.0522" r="14.4" fill="#009af9" fill-rule="evenodd" fill-opacity="1" stroke="#000000" stroke-opacity="1" stroke-width="3.84"/>
<circle clip-path="url(#clip412)" cx="2569.24" cy="96.8724" r="14.4" fill="#009af9" fill-rule="evenodd" fill-opacity="1" stroke="#000000" stroke-opacity="1" stroke-width="3.84"/>
</svg>
