<?xml version="1.0" encoding="utf-8"?>
<svg xmlns="http://www.w3.org/2000/svg" xmlns:xlink="http://www.w3.org/1999/xlink" width="672" height="480" viewBox="0 0 2688 1920">
<defs>
  <clipPath id="clip170">
    <rect x="0" y="0" width="2688" height="1920"/>
  </clipPath>
</defs>
<path clip-path="url(#clip170)" d="
M0 1920 L2688 1920 L2688 0 L0 0  Z
  " fill="#ffffff" fill-rule="evenodd" fill-opacity="1"/>
<defs>
  <clipPath id="clip171">
    <rect x="537" y="0" width="1883" height="1883"/>
  </clipPath>
</defs>
<path clip-path="url(#clip170)" d="
M158.645 1800.78 L2640.76 1800.78 L2640.76 47.2441 L158.645 47.2441  Z
  " fill="#ffffff" fill-rule="evenodd" fill-opacity="1"/>
<defs>
  <clipPath id="clip172">
    <rect x="158" y="47" width="2483" height="1755"/>
  </clipPath>
</defs>
<polyline clip-path="url(#clip172)" style="stroke:#000000; stroke-linecap:round; stroke-linejoin:round; stroke-width:2; stroke-opacity:0.1; fill:none" points="
  181.105,1800.78 181.105,47.2441 
  "/>
<polyline clip-path="url(#clip172)" style="stroke:#000000; stroke-linecap:round; stroke-linejoin:round; stroke-width:2; stroke-opacity:0.1; fill:none" points="
  658.986,1800.78 658.986,47.2441 
  "/>
<polyline clip-path="url(#clip172)" style="stroke:#000000; stroke-linecap:round; stroke-linejoin:round; stroke-width:2; stroke-opacity:0.1; fill:none" points="
  1136.87,1800.78 1136.87,47.2441 
  "/>
<polyline clip-path="url(#clip172)" style="stroke:#000000; stroke-linecap:round; stroke-linejoin:round; stroke-width:2; stroke-opacity:0.1; fill:none" points="
  1614.75,1800.78 1614.75,47.2441 
  "/>
<polyline clip-path="url(#clip172)" style="stroke:#000000; stroke-linecap:round; stroke-linejoin:round; stroke-width:2; stroke-opacity:0.1; fill:none" points="
  2092.63,1800.78 2092.63,47.2441 
  "/>
<polyline clip-path="url(#clip172)" style="stroke:#000000; stroke-linecap:round; stroke-linejoin:round; stroke-width:2; stroke-opacity:0.1; fill:none" points="
  2570.51,1800.78 2570.51,47.2441 
  "/>
<polyline clip-path="url(#clip170)" style="stroke:#000000; stroke-linecap:round; stroke-linejoin:round; stroke-width:4; stroke-opacity:1; fill:none" points="
  158.645,1800.78 2640.76,1800.78 
  "/>
<polyline clip-path="url(#clip170)" style="stroke:#000000; stroke-linecap:round; stroke-linejoin:round; stroke-width:4; stroke-opacity:1; fill:none" points="
  181.105,1800.78 181.105,1781.88 
  "/>
<polyline clip-path="url(#clip170)" style="stroke:#000000; stroke-linecap:round; stroke-linejoin:round; stroke-width:4; stroke-opacity:1; fill:none" points="
  658.986,1800.78 658.986,1781.88 
  "/>
<polyline clip-path="url(#clip170)" style="stroke:#000000; stroke-linecap:round; stroke-linejoin:round; stroke-width:4; stroke-opacity:1; fill:none" points="
  1136.87,1800.78 1136.87,1781.88 
  "/>
<polyline clip-path="url(#clip170)" style="stroke:#000000; stroke-linecap:round; stroke-linejoin:round; stroke-width:4; stroke-opacity:1; fill:none" points="
  1614.75,1800.78 1614.75,1781.88 
  "/>
<polyline clip-path="url(#clip170)" style="stroke:#000000; stroke-linecap:round; stroke-linejoin:round; stroke-width:4; stroke-opacity:1; fill:none" points="
  2092.63,1800.78 2092.63,1781.88 
  "/>
<polyline clip-path="url(#clip170)" style="stroke:#000000; stroke-linecap:round; stroke-linejoin:round; stroke-width:4; stroke-opacity:1; fill:none" points="
  2570.51,1800.78 2570.51,1781.88 
  "/>
<path clip-path="url(#clip170)" d="M181.105 1834 Q177.494 1834 175.666 1837.57 Q173.86 1841.11 173.86 1848.24 Q173.86 1855.34 175.666 1858.91 Q177.494 1862.45 181.105 1862.45 Q184.74 1862.45 186.545 1858.91 Q188.374 1855.34 188.374 1848.24 Q188.374 1841.11 186.545 1837.57 Q184.74 1834 181.105 1834 M181.105 1830.3 Q186.915 1830.3 189.971 1834.9 Q193.05 1839.49 193.05 1848.24 Q193.05 1856.96 189.971 1861.57 Q186.915 1866.15 181.105 1866.15 Q175.295 1866.15 172.216 1861.57 Q169.161 1856.96 169.161 1848.24 Q169.161 1839.49 172.216 1834.9 Q175.295 1830.3 181.105 1830.3 Z" fill="#000000" fill-rule="evenodd" fill-opacity="1" /><path clip-path="url(#clip170)" d="M633.673 1861.55 L641.312 1861.55 L641.312 1835.18 L633.002 1836.85 L633.002 1832.59 L641.266 1830.92 L645.942 1830.92 L645.942 1861.55 L653.581 1861.55 L653.581 1865.48 L633.673 1865.48 L633.673 1861.55 Z" fill="#000000" fill-rule="evenodd" fill-opacity="1" /><path clip-path="url(#clip170)" d="M673.025 1834 Q669.414 1834 667.585 1837.57 Q665.78 1841.11 665.78 1848.24 Q665.78 1855.34 667.585 1858.91 Q669.414 1862.45 673.025 1862.45 Q676.659 1862.45 678.465 1858.91 Q680.293 1855.34 680.293 1848.24 Q680.293 1841.11 678.465 1837.57 Q676.659 1834 673.025 1834 M673.025 1830.3 Q678.835 1830.3 681.891 1834.9 Q684.969 1839.49 684.969 1848.24 Q684.969 1856.96 681.891 1861.57 Q678.835 1866.15 673.025 1866.15 Q667.215 1866.15 664.136 1861.57 Q661.081 1856.96 661.081 1848.24 Q661.081 1839.49 664.136 1834.9 Q667.215 1830.3 673.025 1830.3 Z" fill="#000000" fill-rule="evenodd" fill-opacity="1" /><path clip-path="url(#clip170)" d="M1115.64 1861.55 L1131.96 1861.55 L1131.96 1865.48 L1110.01 1865.48 L1110.01 1861.55 Q1112.68 1858.79 1117.26 1854.16 Q1121.87 1849.51 1123.05 1848.17 Q1125.29 1845.65 1126.17 1843.91 Q1127.07 1842.15 1127.07 1840.46 Q1127.07 1837.71 1125.13 1835.97 Q1123.21 1834.23 1120.11 1834.23 Q1117.91 1834.23 1115.45 1835 Q1113.02 1835.76 1110.25 1837.31 L1110.25 1832.59 Q1113.07 1831.46 1115.52 1830.88 Q1117.98 1830.3 1120.01 1830.3 Q1125.38 1830.3 1128.58 1832.98 Q1131.77 1835.67 1131.77 1840.16 Q1131.77 1842.29 1130.96 1844.21 Q1130.18 1846.11 1128.07 1848.7 Q1127.49 1849.37 1124.39 1852.59 Q1121.29 1855.78 1115.64 1861.55 Z" fill="#000000" fill-rule="evenodd" fill-opacity="1" /><path clip-path="url(#clip170)" d="M1151.77 1834 Q1148.16 1834 1146.33 1837.57 Q1144.53 1841.11 1144.53 1848.24 Q1144.53 1855.34 1146.33 1858.91 Q1148.16 1862.45 1151.77 1862.45 Q1155.41 1862.45 1157.21 1858.91 Q1159.04 1855.34 1159.04 1848.24 Q1159.04 1841.11 1157.21 1837.57 Q1155.41 1834 1151.77 1834 M1151.77 1830.3 Q1157.58 1830.3 1160.64 1834.9 Q1163.72 1839.49 1163.72 1848.24 Q1163.72 1856.96 1160.64 1861.57 Q1157.58 1866.15 1151.77 1866.15 Q1145.96 1866.15 1142.88 1861.57 Q1139.83 1856.96 1139.83 1848.24 Q1139.83 1839.49 1142.88 1834.9 Q1145.96 1830.3 1151.77 1830.3 Z" fill="#000000" fill-rule="evenodd" fill-opacity="1" /><path clip-path="url(#clip170)" d="M1603.59 1846.85 Q1606.95 1847.57 1608.82 1849.84 Q1610.72 1852.1 1610.72 1855.44 Q1610.72 1860.55 1607.2 1863.35 Q1603.68 1866.15 1597.2 1866.15 Q1595.02 1866.15 1592.71 1865.71 Q1590.42 1865.3 1587.96 1864.44 L1587.96 1859.93 Q1589.91 1861.06 1592.22 1861.64 Q1594.54 1862.22 1597.06 1862.22 Q1601.46 1862.22 1603.75 1860.48 Q1606.07 1858.75 1606.07 1855.44 Q1606.07 1852.38 1603.91 1850.67 Q1601.78 1848.93 1597.96 1848.93 L1593.94 1848.93 L1593.94 1845.09 L1598.15 1845.09 Q1601.6 1845.09 1603.43 1843.72 Q1605.26 1842.34 1605.26 1839.74 Q1605.26 1837.08 1603.36 1835.67 Q1601.48 1834.23 1597.96 1834.23 Q1596.04 1834.23 1593.84 1834.65 Q1591.64 1835.07 1589.01 1835.95 L1589.01 1831.78 Q1591.67 1831.04 1593.98 1830.67 Q1596.32 1830.3 1598.38 1830.3 Q1603.7 1830.3 1606.81 1832.73 Q1609.91 1835.14 1609.91 1839.26 Q1609.91 1842.13 1608.27 1844.12 Q1606.62 1846.09 1603.59 1846.85 Z" fill="#000000" fill-rule="evenodd" fill-opacity="1" /><path clip-path="url(#clip170)" d="M1629.58 1834 Q1625.97 1834 1624.14 1837.57 Q1622.34 1841.11 1622.34 1848.24 Q1622.34 1855.34 1624.14 1858.91 Q1625.97 1862.45 1629.58 1862.45 Q1633.22 1862.45 1635.02 1858.91 Q1636.85 1855.34 1636.85 1848.24 Q1636.85 1841.11 1635.02 1837.57 Q1633.22 1834 1629.58 1834 M1629.58 1830.3 Q1635.39 1830.3 1638.45 1834.9 Q1641.53 1839.49 1641.53 1848.24 Q1641.53 1856.96 1638.45 1861.57 Q1635.39 1866.15 1629.58 1866.15 Q1623.77 1866.15 1620.7 1861.57 Q1617.64 1856.96 1617.64 1848.24 Q1617.64 1839.49 1620.7 1834.9 Q1623.77 1830.3 1629.58 1830.3 Z" fill="#000000" fill-rule="evenodd" fill-opacity="1" /><path clip-path="url(#clip170)" d="M2080.8 1835 L2068.99 1853.45 L2080.8 1853.45 L2080.8 1835 M2079.57 1830.92 L2085.45 1830.92 L2085.45 1853.45 L2090.38 1853.45 L2090.38 1857.34 L2085.45 1857.34 L2085.45 1865.48 L2080.8 1865.48 L2080.8 1857.34 L2065.2 1857.34 L2065.2 1852.82 L2079.57 1830.92 Z" fill="#000000" fill-rule="evenodd" fill-opacity="1" /><path clip-path="url(#clip170)" d="M2108.11 1834 Q2104.5 1834 2102.67 1837.57 Q2100.87 1841.11 2100.87 1848.24 Q2100.87 1855.34 2102.67 1858.91 Q2104.5 1862.45 2108.11 1862.45 Q2111.75 1862.45 2113.55 1858.91 Q2115.38 1855.34 2115.38 1848.24 Q2115.38 1841.11 2113.55 1837.57 Q2111.75 1834 2108.11 1834 M2108.11 1830.3 Q2113.92 1830.3 2116.98 1834.9 Q2120.06 1839.49 2120.06 1848.24 Q2120.06 1856.96 2116.98 1861.57 Q2113.92 1866.15 2108.11 1866.15 Q2102.3 1866.15 2099.22 1861.57 Q2096.17 1856.96 2096.17 1848.24 Q2096.17 1839.49 2099.22 1834.9 Q2102.3 1830.3 2108.11 1830.3 Z" fill="#000000" fill-rule="evenodd" fill-opacity="1" /><path clip-path="url(#clip170)" d="M2545.21 1830.92 L2563.56 1830.92 L2563.56 1834.86 L2549.49 1834.86 L2549.49 1843.33 Q2550.51 1842.98 2551.53 1842.82 Q2552.54 1842.64 2553.56 1842.64 Q2559.35 1842.64 2562.73 1845.81 Q2566.11 1848.98 2566.11 1854.4 Q2566.11 1859.97 2562.64 1863.08 Q2559.16 1866.15 2552.85 1866.15 Q2550.67 1866.15 2548.4 1865.78 Q2546.16 1865.41 2543.75 1864.67 L2543.75 1859.97 Q2545.83 1861.11 2548.05 1861.66 Q2550.28 1862.22 2552.75 1862.22 Q2556.76 1862.22 2559.1 1860.11 Q2561.43 1858.01 2561.43 1854.4 Q2561.43 1850.78 2559.1 1848.68 Q2556.76 1846.57 2552.75 1846.57 Q2550.88 1846.57 2549 1846.99 Q2547.15 1847.4 2545.21 1848.28 L2545.21 1830.92 Z" fill="#000000" fill-rule="evenodd" fill-opacity="1" /><path clip-path="url(#clip170)" d="M2585.32 1834 Q2581.71 1834 2579.88 1837.57 Q2578.08 1841.11 2578.08 1848.24 Q2578.08 1855.34 2579.88 1858.91 Q2581.71 1862.45 2585.32 1862.45 Q2588.96 1862.45 2590.76 1858.91 Q2592.59 1855.34 2592.59 1848.24 Q2592.59 1841.11 2590.76 1837.57 Q2588.96 1834 2585.32 1834 M2585.32 1830.3 Q2591.13 1830.3 2594.19 1834.9 Q2597.27 1839.49 2597.27 1848.24 Q2597.27 1856.96 2594.19 1861.57 Q2591.13 1866.15 2585.32 1866.15 Q2579.51 1866.15 2576.43 1861.57 Q2573.38 1856.96 2573.38 1848.24 Q2573.38 1839.49 2576.43 1834.9 Q2579.51 1830.3 2585.32 1830.3 Z" fill="#000000" fill-rule="evenodd" fill-opacity="1" /><polyline clip-path="url(#clip172)" style="stroke:#000000; stroke-linecap:round; stroke-linejoin:round; stroke-width:2; stroke-opacity:0.1; fill:none" points="
  158.645,1751.15 2640.76,1751.15 
  "/>
<polyline clip-path="url(#clip172)" style="stroke:#000000; stroke-linecap:round; stroke-linejoin:round; stroke-width:2; stroke-opacity:0.1; fill:none" points="
  158.645,1420.3 2640.76,1420.3 
  "/>
<polyline clip-path="url(#clip172)" style="stroke:#000000; stroke-linecap:round; stroke-linejoin:round; stroke-width:2; stroke-opacity:0.1; fill:none" points="
  158.645,1089.44 2640.76,1089.44 
  "/>
<polyline clip-path="url(#clip172)" style="stroke:#000000; stroke-linecap:round; stroke-linejoin:round; stroke-width:2; stroke-opacity:0.1; fill:none" points="
  158.645,758.584 2640.76,758.584 
  "/>
<polyline clip-path="url(#clip172)" style="stroke:#000000; stroke-linecap:round; stroke-linejoin:round; stroke-width:2; stroke-opacity:0.1; fill:none" points="
  158.645,427.728 2640.76,427.728 
  "/>
<polyline clip-path="url(#clip172)" style="stroke:#000000; stroke-linecap:round; stroke-linejoin:round; stroke-width:2; stroke-opacity:0.1; fill:none" points="
  158.645,96.8724 2640.76,96.8724 
  "/>
<polyline clip-path="url(#clip170)" style="stroke:#000000; stroke-linecap:round; stroke-linejoin:round; stroke-width:4; stroke-opacity:1; fill:none" points="
  158.645,1800.78 158.645,47.2441 
  "/>
<polyline clip-path="url(#clip170)" style="stroke:#000000; stroke-linecap:round; stroke-linejoin:round; stroke-width:4; stroke-opacity:1; fill:none" points="
  158.645,1751.15 177.543,1751.15 
  "/>
<polyline clip-path="url(#clip170)" style="stroke:#000000; stroke-linecap:round; stroke-linejoin:round; stroke-width:4; stroke-opacity:1; fill:none" points="
  158.645,1420.3 177.543,1420.3 
  "/>
<polyline clip-path="url(#clip170)" style="stroke:#000000; stroke-linecap:round; stroke-linejoin:round; stroke-width:4; stroke-opacity:1; fill:none" points="
  158.645,1089.44 177.543,1089.44 
  "/>
<polyline clip-path="url(#clip170)" style="stroke:#000000; stroke-linecap:round; stroke-linejoin:round; stroke-width:4; stroke-opacity:1; fill:none" points="
  158.645,758.584 177.543,758.584 
  "/>
<polyline clip-path="url(#clip170)" style="stroke:#000000; stroke-linecap:round; stroke-linejoin:round; stroke-width:4; stroke-opacity:1; fill:none" points="
  158.645,427.728 177.543,427.728 
  "/>
<polyline clip-path="url(#clip170)" style="stroke:#000000; stroke-linecap:round; stroke-linejoin:round; stroke-width:4; stroke-opacity:1; fill:none" points="
  158.645,96.8724 177.543,96.8724 
  "/>
<path clip-path="url(#clip170)" d="M52.9549 1764.5 L60.5937 1764.5 L60.5937 1738.13 L52.2836 1739.8 L52.2836 1735.54 L60.5474 1733.87 L65.2233 1733.87 L65.2233 1764.5 L72.8622 1764.5 L72.8622 1768.43 L52.9549 1768.43 L52.9549 1764.5 Z" fill="#000000" fill-rule="evenodd" fill-opacity="1" /><path clip-path="url(#clip170)" d="M82.3066 1762.55 L87.1908 1762.55 L87.1908 1768.43 L82.3066 1768.43 L82.3066 1762.55 Z" fill="#000000" fill-rule="evenodd" fill-opacity="1" /><path clip-path="url(#clip170)" d="M97.4222 1733.87 L115.779 1733.87 L115.779 1737.81 L101.705 1737.81 L101.705 1746.28 Q102.723 1745.93 103.742 1745.77 Q104.76 1745.58 105.779 1745.58 Q111.566 1745.58 114.945 1748.76 Q118.325 1751.93 118.325 1757.34 Q118.325 1762.92 114.853 1766.02 Q111.38 1769.1 105.061 1769.1 Q102.885 1769.1 100.617 1768.73 Q98.3713 1768.36 95.9639 1767.62 L95.9639 1762.92 Q98.0472 1764.06 100.269 1764.61 Q102.492 1765.17 104.968 1765.17 Q108.973 1765.17 111.311 1763.06 Q113.649 1760.95 113.649 1757.34 Q113.649 1753.73 111.311 1751.63 Q108.973 1749.52 104.968 1749.52 Q103.094 1749.52 101.219 1749.94 Q99.3667 1750.35 97.4222 1751.23 L97.4222 1733.87 Z" fill="#000000" fill-rule="evenodd" fill-opacity="1" /><path clip-path="url(#clip170)" d="M51.7975 1433.64 L59.4363 1433.64 L59.4363 1407.27 L51.1262 1408.94 L51.1262 1404.68 L59.39 1403.02 L64.0659 1403.02 L64.0659 1433.64 L71.7048 1433.64 L71.7048 1437.58 L51.7975 1437.58 L51.7975 1433.64 Z" fill="#000000" fill-rule="evenodd" fill-opacity="1" /><path clip-path="url(#clip170)" d="M81.1492 1431.7 L86.0334 1431.7 L86.0334 1437.58 L81.1492 1437.58 L81.1492 1431.7 Z" fill="#000000" fill-rule="evenodd" fill-opacity="1" /><path clip-path="url(#clip170)" d="M106.797 1418.43 Q103.649 1418.43 101.797 1420.58 Q99.9685 1422.74 99.9685 1426.49 Q99.9685 1430.21 101.797 1432.39 Q103.649 1434.54 106.797 1434.54 Q109.945 1434.54 111.774 1432.39 Q113.626 1430.21 113.626 1426.49 Q113.626 1422.74 111.774 1420.58 Q109.945 1418.43 106.797 1418.43 M116.08 1403.78 L116.08 1408.04 Q114.32 1407.21 112.515 1406.77 Q110.732 1406.33 108.973 1406.33 Q104.343 1406.33 101.89 1409.45 Q99.4593 1412.58 99.112 1418.89 Q100.478 1416.88 102.538 1415.82 Q104.598 1414.73 107.075 1414.73 Q112.283 1414.73 115.293 1417.9 Q118.325 1421.05 118.325 1426.49 Q118.325 1431.81 115.177 1435.03 Q112.029 1438.25 106.797 1438.25 Q100.802 1438.25 97.6306 1433.66 Q94.4593 1429.06 94.4593 1420.33 Q94.4593 1412.14 98.3482 1407.27 Q102.237 1402.39 108.788 1402.39 Q110.547 1402.39 112.33 1402.74 Q114.135 1403.08 116.08 1403.78 Z" fill="#000000" fill-rule="evenodd" fill-opacity="1" /><path clip-path="url(#clip170)" d="M52.8623 1102.78 L60.5011 1102.78 L60.5011 1076.42 L52.191 1078.09 L52.191 1073.83 L60.4548 1072.16 L65.1307 1072.16 L65.1307 1102.78 L72.7696 1102.78 L72.7696 1106.72 L52.8623 1106.72 L52.8623 1102.78 Z" fill="#000000" fill-rule="evenodd" fill-opacity="1" /><path clip-path="url(#clip170)" d="M82.214 1100.84 L87.0982 1100.84 L87.0982 1106.72 L82.214 1106.72 L82.214 1100.84 Z" fill="#000000" fill-rule="evenodd" fill-opacity="1" /><path clip-path="url(#clip170)" d="M96.1028 1072.16 L118.325 1072.16 L118.325 1074.15 L105.779 1106.72 L100.894 1106.72 L112.7 1076.09 L96.1028 1076.09 L96.1028 1072.16 Z" fill="#000000" fill-rule="evenodd" fill-opacity="1" /><path clip-path="url(#clip170)" d="M52.0521 771.929 L59.691 771.929 L59.691 745.563 L51.3808 747.23 L51.3808 742.971 L59.6447 741.304 L64.3206 741.304 L64.3206 771.929 L71.9594 771.929 L71.9594 775.864 L52.0521 775.864 L52.0521 771.929 Z" fill="#000000" fill-rule="evenodd" fill-opacity="1" /><path clip-path="url(#clip170)" d="M81.4038 769.984 L86.288 769.984 L86.288 775.864 L81.4038 775.864 L81.4038 769.984 Z" fill="#000000" fill-rule="evenodd" fill-opacity="1" /><path clip-path="url(#clip170)" d="M106.473 759.452 Q103.14 759.452 101.219 761.234 Q99.3204 763.017 99.3204 766.142 Q99.3204 769.267 101.219 771.049 Q103.14 772.831 106.473 772.831 Q109.806 772.831 111.728 771.049 Q113.649 769.244 113.649 766.142 Q113.649 763.017 111.728 761.234 Q109.83 759.452 106.473 759.452 M101.797 757.461 Q98.788 756.72 97.0982 754.66 Q95.4315 752.6 95.4315 749.637 Q95.4315 745.494 98.3713 743.086 Q101.334 740.679 106.473 740.679 Q111.635 740.679 114.575 743.086 Q117.515 745.494 117.515 749.637 Q117.515 752.6 115.825 754.66 Q114.158 756.72 111.172 757.461 Q114.552 758.248 116.427 760.54 Q118.325 762.832 118.325 766.142 Q118.325 771.165 115.246 773.85 Q112.191 776.535 106.473 776.535 Q100.756 776.535 97.6769 773.85 Q94.6213 771.165 94.6213 766.142 Q94.6213 762.832 96.5195 760.54 Q98.4176 758.248 101.797 757.461 M100.084 750.077 Q100.084 752.762 101.751 754.267 Q103.441 755.771 106.473 755.771 Q109.482 755.771 111.172 754.267 Q112.885 752.762 112.885 750.077 Q112.885 747.392 111.172 745.887 Q109.482 744.383 106.473 744.383 Q103.441 744.383 101.751 745.887 Q100.084 747.392 100.084 750.077 Z" fill="#000000" fill-rule="evenodd" fill-opacity="1" /><path clip-path="url(#clip170)" d="M52.1447 441.073 L59.7836 441.073 L59.7836 414.707 L51.4734 416.374 L51.4734 412.115 L59.7373 410.448 L64.4132 410.448 L64.4132 441.073 L72.052 441.073 L72.052 445.008 L52.1447 445.008 L52.1447 441.073 Z" fill="#000000" fill-rule="evenodd" fill-opacity="1" /><path clip-path="url(#clip170)" d="M81.4964 439.129 L86.3806 439.129 L86.3806 445.008 L81.4964 445.008 L81.4964 439.129 Z" fill="#000000" fill-rule="evenodd" fill-opacity="1" /><path clip-path="url(#clip170)" d="M96.7047 444.291 L96.7047 440.031 Q98.4639 440.865 100.269 441.304 Q102.075 441.744 103.811 441.744 Q108.441 441.744 110.871 438.642 Q113.325 435.517 113.672 429.175 Q112.33 431.166 110.269 432.23 Q108.209 433.295 105.709 433.295 Q100.524 433.295 97.4917 430.17 Q94.4824 427.022 94.4824 421.582 Q94.4824 416.258 97.6306 413.041 Q100.779 409.823 106.01 409.823 Q112.005 409.823 115.154 414.43 Q118.325 419.013 118.325 427.763 Q118.325 435.934 114.436 440.818 Q110.57 445.679 104.019 445.679 Q102.26 445.679 100.455 445.332 Q98.6491 444.985 96.7047 444.291 M106.01 429.638 Q109.158 429.638 110.987 427.485 Q112.839 425.332 112.839 421.582 Q112.839 417.856 110.987 415.703 Q109.158 413.527 106.01 413.527 Q102.862 413.527 101.01 415.703 Q99.1815 417.856 99.1815 421.582 Q99.1815 425.332 101.01 427.485 Q102.862 429.638 106.01 429.638 Z" fill="#000000" fill-rule="evenodd" fill-opacity="1" /><path clip-path="url(#clip170)" d="M55.1771 110.217 L71.4965 110.217 L71.4965 114.152 L49.5521 114.152 L49.5521 110.217 Q52.2141 107.463 56.7975 102.833 Q61.4039 98.1803 62.5845 96.8377 Q64.8298 94.3146 65.7094 92.5785 Q66.6122 90.8192 66.6122 89.1294 Q66.6122 86.3748 64.6678 84.6387 Q62.7465 82.9026 59.6447 82.9026 Q57.4456 82.9026 54.9919 83.6665 Q52.5614 84.4304 49.7836 85.9813 L49.7836 81.2591 Q52.6077 80.1249 55.0614 79.5462 Q57.515 78.9675 59.5521 78.9675 Q64.9224 78.9675 68.1168 81.6526 Q71.3113 84.3378 71.3113 88.8285 Q71.3113 90.9581 70.5011 92.8794 Q69.7141 94.7776 67.6076 97.3701 Q67.0289 98.0414 63.927 101.259 Q60.8252 104.453 55.1771 110.217 Z" fill="#000000" fill-rule="evenodd" fill-opacity="1" /><path clip-path="url(#clip170)" d="M81.3112 108.273 L86.1954 108.273 L86.1954 114.152 L81.3112 114.152 L81.3112 108.273 Z" fill="#000000" fill-rule="evenodd" fill-opacity="1" /><path clip-path="url(#clip170)" d="M106.381 82.6711 Q102.769 82.6711 100.941 86.2359 Q99.1352 89.7776 99.1352 96.9072 Q99.1352 104.014 100.941 107.578 Q102.769 111.12 106.381 111.12 Q110.015 111.12 111.82 107.578 Q113.649 104.014 113.649 96.9072 Q113.649 89.7776 111.82 86.2359 Q110.015 82.6711 106.381 82.6711 M106.381 78.9675 Q112.191 78.9675 115.246 83.5739 Q118.325 88.1572 118.325 96.9072 Q118.325 105.634 115.246 110.24 Q112.191 114.824 106.381 114.824 Q100.57 114.824 97.4917 110.24 Q94.4361 105.634 94.4361 96.9072 Q94.4361 88.1572 97.4917 83.5739 Q100.57 78.9675 106.381 78.9675 Z" fill="#000000" fill-rule="evenodd" fill-opacity="1" /><circle clip-path="url(#clip172)" cx="228.893" cy="96.8724" r="14.4" fill="#009af9" fill-rule="evenodd" fill-opacity="1" stroke="#000000" stroke-opacity="1" stroke-width="3.84"/>
<circle clip-path="url(#clip172)" cx="276.681" cy="1751.15" r="14.4" fill="#009af9" fill-rule="evenodd" fill-opacity="1" stroke="#000000" stroke-opacity="1" stroke-width="3.84"/>
<circle clip-path="url(#clip172)" cx="324.469" cy="1199.72" r="14.4" fill="#009af9" fill-rule="evenodd" fill-opacity="1" stroke="#000000" stroke-opacity="1" stroke-width="3.84"/>
<circle clip-path="url(#clip172)" cx="372.257" cy="1420.3" r="14.4" fill="#009af9" fill-rule="evenodd" fill-opacity="1" stroke="#000000" stroke-opacity="1" stroke-width="3.84"/>
<circle clip-path="url(#clip172)" cx="420.046" cy="1337.58" r="14.4" fill="#009af9" fill-rule="evenodd" fill-opacity="1" stroke="#000000" stroke-opacity="1" stroke-width="3.84"/>
<circle clip-path="url(#clip172)" cx="467.834" cy="1369.39" r="14.4" fill="#009af9" fill-rule="evenodd" fill-opacity="1" stroke="#000000" stroke-opacity="1" stroke-width="3.84"/>
<circle clip-path="url(#clip172)" cx="515.622" cy="1357.28" r="14.4" fill="#009af9" fill-rule="evenodd" fill-opacity="1" stroke="#000000" stroke-opacity="1" stroke-width="3.84"/>
<circle clip-path="url(#clip172)" cx="563.41" cy="1361.91" r="14.4" fill="#009af9" fill-rule="evenodd" fill-opacity="1" stroke="#000000" stroke-opacity="1" stroke-width="3.84"/>
<circle clip-path="url(#clip172)" cx="611.198" cy="1360.14" r="14.4" fill="#009af9" fill-rule="evenodd" fill-opacity="1" stroke="#000000" stroke-opacity="1" stroke-width="3.84"/>
<circle clip-path="url(#clip172)" cx="658.986" cy="1360.82" r="14.4" fill="#009af9" fill-rule="evenodd" fill-opacity="1" stroke="#000000" stroke-opacity="1" stroke-width="3.84"/>
<circle clip-path="url(#clip172)" cx="706.774" cy="1360.56" r="14.4" fill="#009af9" fill-rule="evenodd" fill-opacity="1" stroke="#000000" stroke-opacity="1" stroke-width="3.84"/>
<circle clip-path="url(#clip172)" cx="754.562" cy="1360.66" r="14.4" fill="#009af9" fill-rule="evenodd" fill-opacity="1" stroke="#000000" stroke-opacity="1" stroke-width="3.84"/>
<circle clip-path="url(#clip172)" cx="802.35" cy="1360.62" r="14.4" fill="#009af9" fill-rule="evenodd" fill-opacity="1" stroke="#000000" stroke-opacity="1" stroke-width="3.84"/>
<circle clip-path="url(#clip172)" cx="850.138" cy="1360.63" r="14.4" fill="#009af9" fill-rule="evenodd" fill-opacity="1" stroke="#000000" stroke-opacity="1" stroke-width="3.84"/>
<circle clip-path="url(#clip172)" cx="897.926" cy="1360.63" r="14.4" fill="#009af9" fill-rule="evenodd" fill-opacity="1" stroke="#000000" stroke-opacity="1" stroke-width="3.84"/>
<circle clip-path="url(#clip172)" cx="945.714" cy="1360.63" r="14.4" fill="#009af9" fill-rule="evenodd" fill-opacity="1" stroke="#000000" stroke-opacity="1" stroke-width="3.84"/>
<circle clip-path="url(#clip172)" cx="993.502" cy="1360.63" r="14.4" fill="#009af9" fill-rule="evenodd" fill-opacity="1" stroke="#000000" stroke-opacity="1" stroke-width="3.84"/>
<circle clip-path="url(#clip172)" cx="1041.29" cy="1360.63" r="14.4" fill="#009af9" fill-rule="evenodd" fill-opacity="1" stroke="#000000" stroke-opacity="1" stroke-width="3.84"/>
<circle clip-path="url(#clip172)" cx="1089.08" cy="1360.63" r="14.4" fill="#009af9" fill-rule="evenodd" fill-opacity="1" stroke="#000000" stroke-opacity="1" stroke-width="3.84"/>
<circle clip-path="url(#clip172)" cx="1136.87" cy="1360.63" r="14.4" fill="#009af9" fill-rule="evenodd" fill-opacity="1" stroke="#000000" stroke-opacity="1" stroke-width="3.84"/>
<circle clip-path="url(#clip172)" cx="1184.65" cy="1360.63" r="14.4" fill="#009af9" fill-rule="evenodd" fill-opacity="1" stroke="#000000" stroke-opacity="1" stroke-width="3.84"/>
<circle clip-path="url(#clip172)" cx="1232.44" cy="1360.63" r="14.4" fill="#009af9" fill-rule="evenodd" fill-opacity="1" stroke="#000000" stroke-opacity="1" stroke-width="3.84"/>
<circle clip-path="url(#clip172)" cx="1280.23" cy="1360.63" r="14.4" fill="#009af9" fill-rule="evenodd" fill-opacity="1" stroke="#000000" stroke-opacity="1" stroke-width="3.84"/>
<circle clip-path="url(#clip172)" cx="1328.02" cy="1360.63" r="14.4" fill="#009af9" fill-rule="evenodd" fill-opacity="1" stroke="#000000" stroke-opacity="1" stroke-width="3.84"/>
<circle clip-path="url(#clip172)" cx="1375.81" cy="1360.63" r="14.4" fill="#009af9" fill-rule="evenodd" fill-opacity="1" stroke="#000000" stroke-opacity="1" stroke-width="3.84"/>
<circle clip-path="url(#clip172)" cx="1423.59" cy="1360.63" r="14.4" fill="#009af9" fill-rule="evenodd" fill-opacity="1" stroke="#000000" stroke-opacity="1" stroke-width="3.84"/>
<circle clip-path="url(#clip172)" cx="1471.38" cy="1360.63" r="14.4" fill="#009af9" fill-rule="evenodd" fill-opacity="1" stroke="#000000" stroke-opacity="1" stroke-width="3.84"/>
<circle clip-path="url(#clip172)" cx="1519.17" cy="1360.63" r="14.4" fill="#009af9" fill-rule="evenodd" fill-opacity="1" stroke="#000000" stroke-opacity="1" stroke-width="3.84"/>
<circle clip-path="url(#clip172)" cx="1566.96" cy="1360.63" r="14.4" fill="#009af9" fill-rule="evenodd" fill-opacity="1" stroke="#000000" stroke-opacity="1" stroke-width="3.84"/>
<circle clip-path="url(#clip172)" cx="1614.75" cy="1360.63" r="14.4" fill="#009af9" fill-rule="evenodd" fill-opacity="1" stroke="#000000" stroke-opacity="1" stroke-width="3.84"/>
<circle clip-path="url(#clip172)" cx="1662.53" cy="1360.63" r="14.4" fill="#009af9" fill-rule="evenodd" fill-opacity="1" stroke="#000000" stroke-opacity="1" stroke-width="3.84"/>
<circle clip-path="url(#clip172)" cx="1710.32" cy="1360.63" r="14.4" fill="#009af9" fill-rule="evenodd" fill-opacity="1" stroke="#000000" stroke-opacity="1" stroke-width="3.84"/>
<circle clip-path="url(#clip172)" cx="1758.11" cy="1360.63" r="14.4" fill="#009af9" fill-rule="evenodd" fill-opacity="1" stroke="#000000" stroke-opacity="1" stroke-width="3.84"/>
<circle clip-path="url(#clip172)" cx="1805.9" cy="1360.63" r="14.4" fill="#009af9" fill-rule="evenodd" fill-opacity="1" stroke="#000000" stroke-opacity="1" stroke-width="3.84"/>
<circle clip-path="url(#clip172)" cx="1853.69" cy="1360.63" r="14.4" fill="#009af9" fill-rule="evenodd" fill-opacity="1" stroke="#000000" stroke-opacity="1" stroke-width="3.84"/>
<circle clip-path="url(#clip172)" cx="1901.47" cy="1360.63" r="14.4" fill="#009af9" fill-rule="evenodd" fill-opacity="1" stroke="#000000" stroke-opacity="1" stroke-width="3.84"/>
<circle clip-path="url(#clip172)" cx="1949.26" cy="1360.63" r="14.4" fill="#009af9" fill-rule="evenodd" fill-opacity="1" stroke="#000000" stroke-opacity="1" stroke-width="3.84"/>
<circle clip-path="url(#clip172)" cx="1997.05" cy="1360.63" r="14.4" fill="#009af9" fill-rule="evenodd" fill-opacity="1" stroke="#000000" stroke-opacity="1" stroke-width="3.84"/>
<circle clip-path="url(#clip172)" cx="2044.84" cy="1360.63" r="14.4" fill="#009af9" fill-rule="evenodd" fill-opacity="1" stroke="#000000" stroke-opacity="1" stroke-width="3.84"/>
<circle clip-path="url(#clip172)" cx="2092.63" cy="1360.63" r="14.4" fill="#009af9" fill-rule="evenodd" fill-opacity="1" stroke="#000000" stroke-opacity="1" stroke-width="3.84"/>
<circle clip-path="url(#clip172)" cx="2140.42" cy="1360.63" r="14.4" fill="#009af9" fill-rule="evenodd" fill-opacity="1" stroke="#000000" stroke-opacity="1" stroke-width="3.84"/>
<circle clip-path="url(#clip172)" cx="2188.2" cy="1360.63" r="14.4" fill="#009af9" fill-rule="evenodd" fill-opacity="1" stroke="#000000" stroke-opacity="1" stroke-width="3.84"/>
<circle clip-path="url(#clip172)" cx="2235.99" cy="1360.63" r="14.4" fill="#009af9" fill-rule="evenodd" fill-opacity="1" stroke="#000000" stroke-opacity="1" stroke-width="3.84"/>
<circle clip-path="url(#clip172)" cx="2283.78" cy="1360.63" r="14.4" fill="#009af9" fill-rule="evenodd" fill-opacity="1" stroke="#000000" stroke-opacity="1" stroke-width="3.84"/>
<circle clip-path="url(#clip172)" cx="2331.57" cy="1360.63" r="14.4" fill="#009af9" fill-rule="evenodd" fill-opacity="1" stroke="#000000" stroke-opacity="1" stroke-width="3.84"/>
<circle clip-path="url(#clip172)" cx="2379.36" cy="1360.63" r="14.4" fill="#009af9" fill-rule="evenodd" fill-opacity="1" stroke="#000000" stroke-opacity="1" stroke-width="3.84"/>
<circle clip-path="url(#clip172)" cx="2427.14" cy="1360.63" r="14.4" fill="#009af9" fill-rule="evenodd" fill-opacity="1" stroke="#000000" stroke-opacity="1" stroke-width="3.84"/>
<circle clip-path="url(#clip172)" cx="2474.93" cy="1360.63" r="14.4" fill="#009af9" fill-rule="evenodd" fill-opacity="1" stroke="#000000" stroke-opacity="1" stroke-width="3.84"/>
<circle clip-path="url(#clip172)" cx="2522.72" cy="1360.63" r="14.4" fill="#009af9" fill-rule="evenodd" fill-opacity="1" stroke="#000000" stroke-opacity="1" stroke-width="3.84"/>
<circle clip-path="url(#clip172)" cx="2570.51" cy="1360.63" r="14.4" fill="#009af9" fill-rule="evenodd" fill-opacity="1" stroke="#000000" stroke-opacity="1" stroke-width="3.84"/>
</svg>
