<?xml version="1.0" encoding="utf-8"?>
<svg xmlns="http://www.w3.org/2000/svg" xmlns:xlink="http://www.w3.org/1999/xlink" width="672" height="480" viewBox="0 0 2688 1920">
<defs>
  <clipPath id="clip810">
    <rect x="0" y="0" width="2688" height="1920"/>
  </clipPath>
</defs>
<path clip-path="url(#clip810)" d="
M0 1920 L2688 1920 L2688 0 L0 0  Z
  " fill="#ffffff" fill-rule="evenodd" fill-opacity="1"/>
<defs>
  <clipPath id="clip811">
    <rect x="537" y="0" width="1883" height="1883"/>
  </clipPath>
</defs>
<path clip-path="url(#clip810)" d="
M159.131 1800.78 L2640.76 1800.78 L2640.76 47.2441 L159.131 47.2441  Z
  " fill="#ffffff" fill-rule="evenodd" fill-opacity="1"/>
<defs>
  <clipPath id="clip812">
    <rect x="159" y="47" width="2483" height="1755"/>
  </clipPath>
</defs>
<polyline clip-path="url(#clip812)" style="stroke:#000000; stroke-linecap:round; stroke-linejoin:round; stroke-width:2; stroke-opacity:0.1; fill:none" points="
  181.587,1800.78 181.587,47.2441 
  "/>
<polyline clip-path="url(#clip812)" style="stroke:#000000; stroke-linecap:round; stroke-linejoin:round; stroke-width:2; stroke-opacity:0.1; fill:none" points="
  659.374,1800.78 659.374,47.2441 
  "/>
<polyline clip-path="url(#clip812)" style="stroke:#000000; stroke-linecap:round; stroke-linejoin:round; stroke-width:2; stroke-opacity:0.1; fill:none" points="
  1137.16,1800.78 1137.16,47.2441 
  "/>
<polyline clip-path="url(#clip812)" style="stroke:#000000; stroke-linecap:round; stroke-linejoin:round; stroke-width:2; stroke-opacity:0.1; fill:none" points="
  1614.95,1800.78 1614.95,47.2441 
  "/>
<polyline clip-path="url(#clip812)" style="stroke:#000000; stroke-linecap:round; stroke-linejoin:round; stroke-width:2; stroke-opacity:0.1; fill:none" points="
  2092.73,1800.78 2092.73,47.2441 
  "/>
<polyline clip-path="url(#clip812)" style="stroke:#000000; stroke-linecap:round; stroke-linejoin:round; stroke-width:2; stroke-opacity:0.1; fill:none" points="
  2570.52,1800.78 2570.52,47.2441 
  "/>
<polyline clip-path="url(#clip810)" style="stroke:#000000; stroke-linecap:round; stroke-linejoin:round; stroke-width:4; stroke-opacity:1; fill:none" points="
  159.131,1800.78 2640.76,1800.78 
  "/>
<polyline clip-path="url(#clip810)" style="stroke:#000000; stroke-linecap:round; stroke-linejoin:round; stroke-width:4; stroke-opacity:1; fill:none" points="
  181.587,1800.78 181.587,1781.88 
  "/>
<polyline clip-path="url(#clip810)" style="stroke:#000000; stroke-linecap:round; stroke-linejoin:round; stroke-width:4; stroke-opacity:1; fill:none" points="
  659.374,1800.78 659.374,1781.88 
  "/>
<polyline clip-path="url(#clip810)" style="stroke:#000000; stroke-linecap:round; stroke-linejoin:round; stroke-width:4; stroke-opacity:1; fill:none" points="
  1137.16,1800.78 1137.16,1781.88 
  "/>
<polyline clip-path="url(#clip810)" style="stroke:#000000; stroke-linecap:round; stroke-linejoin:round; stroke-width:4; stroke-opacity:1; fill:none" points="
  1614.95,1800.78 1614.95,1781.88 
  "/>
<polyline clip-path="url(#clip810)" style="stroke:#000000; stroke-linecap:round; stroke-linejoin:round; stroke-width:4; stroke-opacity:1; fill:none" points="
  2092.73,1800.78 2092.73,1781.88 
  "/>
<polyline clip-path="url(#clip810)" style="stroke:#000000; stroke-linecap:round; stroke-linejoin:round; stroke-width:4; stroke-opacity:1; fill:none" points="
  2570.52,1800.78 2570.52,1781.88 
  "/>
<path clip-path="url(#clip810)" d="M181.587 1834 Q177.976 1834 176.147 1837.57 Q174.342 1841.11 174.342 1848.24 Q174.342 1855.34 176.147 1858.91 Q177.976 1862.45 181.587 1862.45 Q185.221 1862.45 187.027 1858.91 Q188.855 1855.34 188.855 1848.24 Q188.855 1841.11 187.027 1837.57 Q185.221 1834 181.587 1834 M181.587 1830.3 Q187.397 1830.3 190.453 1834.9 Q193.531 1839.49 193.531 1848.24 Q193.531 1856.96 190.453 1861.57 Q187.397 1866.15 181.587 1866.15 Q175.777 1866.15 172.698 1861.57 Q169.643 1856.96 169.643 1848.24 Q169.643 1839.49 172.698 1834.9 Q175.777 1830.3 181.587 1830.3 Z" fill="#000000" fill-rule="evenodd" fill-opacity="1" /><path clip-path="url(#clip810)" d="M634.061 1861.55 L641.7 1861.55 L641.7 1835.18 L633.39 1836.85 L633.39 1832.59 L641.654 1830.92 L646.33 1830.92 L646.33 1861.55 L653.969 1861.55 L653.969 1865.48 L634.061 1865.48 L634.061 1861.55 Z" fill="#000000" fill-rule="evenodd" fill-opacity="1" /><path clip-path="url(#clip810)" d="M673.413 1834 Q669.802 1834 667.973 1837.57 Q666.168 1841.11 666.168 1848.24 Q666.168 1855.34 667.973 1858.91 Q669.802 1862.45 673.413 1862.45 Q677.047 1862.45 678.853 1858.91 Q680.682 1855.34 680.682 1848.24 Q680.682 1841.11 678.853 1837.57 Q677.047 1834 673.413 1834 M673.413 1830.3 Q679.223 1830.3 682.279 1834.9 Q685.358 1839.49 685.358 1848.24 Q685.358 1856.96 682.279 1861.57 Q679.223 1866.15 673.413 1866.15 Q667.603 1866.15 664.524 1861.57 Q661.469 1856.96 661.469 1848.24 Q661.469 1839.49 664.524 1834.9 Q667.603 1830.3 673.413 1830.3 Z" fill="#000000" fill-rule="evenodd" fill-opacity="1" /><path clip-path="url(#clip810)" d="M1115.93 1861.55 L1132.25 1861.55 L1132.25 1865.48 L1110.31 1865.48 L1110.31 1861.55 Q1112.97 1858.79 1117.55 1854.16 Q1122.16 1849.51 1123.34 1848.17 Q1125.59 1845.65 1126.47 1843.91 Q1127.37 1842.15 1127.37 1840.46 Q1127.37 1837.71 1125.42 1835.97 Q1123.5 1834.23 1120.4 1834.23 Q1118.2 1834.23 1115.75 1835 Q1113.32 1835.76 1110.54 1837.31 L1110.54 1832.59 Q1113.36 1831.46 1115.82 1830.88 Q1118.27 1830.3 1120.31 1830.3 Q1125.68 1830.3 1128.87 1832.98 Q1132.07 1835.67 1132.07 1840.16 Q1132.07 1842.29 1131.26 1844.21 Q1130.47 1846.11 1128.36 1848.7 Q1127.79 1849.37 1124.68 1852.59 Q1121.58 1855.78 1115.93 1861.55 Z" fill="#000000" fill-rule="evenodd" fill-opacity="1" /><path clip-path="url(#clip810)" d="M1152.07 1834 Q1148.46 1834 1146.63 1837.57 Q1144.82 1841.11 1144.82 1848.24 Q1144.82 1855.34 1146.63 1858.91 Q1148.46 1862.45 1152.07 1862.45 Q1155.7 1862.45 1157.51 1858.91 Q1159.34 1855.34 1159.34 1848.24 Q1159.34 1841.11 1157.51 1837.57 Q1155.7 1834 1152.07 1834 M1152.07 1830.3 Q1157.88 1830.3 1160.93 1834.9 Q1164.01 1839.49 1164.01 1848.24 Q1164.01 1856.96 1160.93 1861.57 Q1157.88 1866.15 1152.07 1866.15 Q1146.26 1866.15 1143.18 1861.57 Q1140.12 1856.96 1140.12 1848.24 Q1140.12 1839.49 1143.18 1834.9 Q1146.26 1830.3 1152.07 1830.3 Z" fill="#000000" fill-rule="evenodd" fill-opacity="1" /><path clip-path="url(#clip810)" d="M1603.79 1846.85 Q1607.15 1847.57 1609.02 1849.84 Q1610.92 1852.1 1610.92 1855.44 Q1610.92 1860.55 1607.4 1863.35 Q1603.88 1866.15 1597.4 1866.15 Q1595.23 1866.15 1592.91 1865.71 Q1590.62 1865.3 1588.17 1864.44 L1588.17 1859.93 Q1590.11 1861.06 1592.42 1861.64 Q1594.74 1862.22 1597.26 1862.22 Q1601.66 1862.22 1603.95 1860.48 Q1606.27 1858.75 1606.27 1855.44 Q1606.27 1852.38 1604.11 1850.67 Q1601.98 1848.93 1598.17 1848.93 L1594.14 1848.93 L1594.14 1845.09 L1598.35 1845.09 Q1601.8 1845.09 1603.63 1843.72 Q1605.46 1842.34 1605.46 1839.74 Q1605.46 1837.08 1603.56 1835.67 Q1601.68 1834.23 1598.17 1834.23 Q1596.24 1834.23 1594.04 1834.65 Q1591.85 1835.07 1589.21 1835.95 L1589.21 1831.78 Q1591.87 1831.04 1594.18 1830.67 Q1596.52 1830.3 1598.58 1830.3 Q1603.91 1830.3 1607.01 1832.73 Q1610.11 1835.14 1610.11 1839.26 Q1610.11 1842.13 1608.47 1844.12 Q1606.82 1846.09 1603.79 1846.85 Z" fill="#000000" fill-rule="evenodd" fill-opacity="1" /><path clip-path="url(#clip810)" d="M1629.79 1834 Q1626.17 1834 1624.35 1837.57 Q1622.54 1841.11 1622.54 1848.24 Q1622.54 1855.34 1624.35 1858.91 Q1626.17 1862.45 1629.79 1862.45 Q1633.42 1862.45 1635.23 1858.91 Q1637.05 1855.34 1637.05 1848.24 Q1637.05 1841.11 1635.23 1837.57 Q1633.42 1834 1629.79 1834 M1629.79 1830.3 Q1635.6 1830.3 1638.65 1834.9 Q1641.73 1839.49 1641.73 1848.24 Q1641.73 1856.96 1638.65 1861.57 Q1635.6 1866.15 1629.79 1866.15 Q1623.98 1866.15 1620.9 1861.57 Q1617.84 1856.96 1617.84 1848.24 Q1617.84 1839.49 1620.9 1834.9 Q1623.98 1830.3 1629.79 1830.3 Z" fill="#000000" fill-rule="evenodd" fill-opacity="1" /><path clip-path="url(#clip810)" d="M2080.91 1835 L2069.1 1853.45 L2080.91 1853.45 L2080.91 1835 M2079.68 1830.92 L2085.56 1830.92 L2085.56 1853.45 L2090.49 1853.45 L2090.49 1857.34 L2085.56 1857.34 L2085.56 1865.48 L2080.91 1865.48 L2080.91 1857.34 L2065.3 1857.34 L2065.3 1852.82 L2079.68 1830.92 Z" fill="#000000" fill-rule="evenodd" fill-opacity="1" /><path clip-path="url(#clip810)" d="M2108.22 1834 Q2104.61 1834 2102.78 1837.57 Q2100.98 1841.11 2100.98 1848.24 Q2100.98 1855.34 2102.78 1858.91 Q2104.61 1862.45 2108.22 1862.45 Q2111.85 1862.45 2113.66 1858.91 Q2115.49 1855.34 2115.49 1848.24 Q2115.49 1841.11 2113.66 1837.57 Q2111.85 1834 2108.22 1834 M2108.22 1830.3 Q2114.03 1830.3 2117.09 1834.9 Q2120.16 1839.49 2120.16 1848.24 Q2120.16 1856.96 2117.09 1861.57 Q2114.03 1866.15 2108.22 1866.15 Q2102.41 1866.15 2099.33 1861.57 Q2096.28 1856.96 2096.28 1848.24 Q2096.28 1839.49 2099.33 1834.9 Q2102.41 1830.3 2108.22 1830.3 Z" fill="#000000" fill-rule="evenodd" fill-opacity="1" /><path clip-path="url(#clip810)" d="M2545.22 1830.92 L2563.58 1830.92 L2563.58 1834.86 L2549.5 1834.86 L2549.5 1843.33 Q2550.52 1842.98 2551.54 1842.82 Q2552.56 1842.64 2553.58 1842.64 Q2559.36 1842.64 2562.74 1845.81 Q2566.12 1848.98 2566.12 1854.4 Q2566.12 1859.97 2562.65 1863.08 Q2559.18 1866.15 2552.86 1866.15 Q2550.68 1866.15 2548.41 1865.78 Q2546.17 1865.41 2543.76 1864.67 L2543.76 1859.97 Q2545.85 1861.11 2548.07 1861.66 Q2550.29 1862.22 2552.77 1862.22 Q2556.77 1862.22 2559.11 1860.11 Q2561.45 1858.01 2561.45 1854.4 Q2561.45 1850.78 2559.11 1848.68 Q2556.77 1846.57 2552.77 1846.57 Q2550.89 1846.57 2549.02 1846.99 Q2547.16 1847.4 2545.22 1848.28 L2545.22 1830.92 Z" fill="#000000" fill-rule="evenodd" fill-opacity="1" /><path clip-path="url(#clip810)" d="M2585.34 1834 Q2581.72 1834 2579.9 1837.57 Q2578.09 1841.11 2578.09 1848.24 Q2578.09 1855.34 2579.9 1858.91 Q2581.72 1862.45 2585.34 1862.45 Q2588.97 1862.45 2590.78 1858.91 Q2592.6 1855.34 2592.6 1848.24 Q2592.6 1841.11 2590.78 1837.57 Q2588.97 1834 2585.34 1834 M2585.34 1830.3 Q2591.15 1830.3 2594.2 1834.9 Q2597.28 1839.49 2597.28 1848.24 Q2597.28 1856.96 2594.2 1861.57 Q2591.15 1866.15 2585.34 1866.15 Q2579.53 1866.15 2576.45 1861.57 Q2573.39 1856.96 2573.39 1848.24 Q2573.39 1839.49 2576.45 1834.9 Q2579.53 1830.3 2585.34 1830.3 Z" fill="#000000" fill-rule="evenodd" fill-opacity="1" /><polyline clip-path="url(#clip812)" style="stroke:#000000; stroke-linecap:round; stroke-linejoin:round; stroke-width:2; stroke-opacity:0.1; fill:none" points="
  159.131,1751.15 2640.76,1751.15 
  "/>
<polyline clip-path="url(#clip812)" style="stroke:#000000; stroke-linecap:round; stroke-linejoin:round; stroke-width:2; stroke-opacity:0.1; fill:none" points="
  159.131,1272.75 2640.76,1272.75 
  "/>
<polyline clip-path="url(#clip812)" style="stroke:#000000; stroke-linecap:round; stroke-linejoin:round; stroke-width:2; stroke-opacity:0.1; fill:none" points="
  159.131,794.351 2640.76,794.351 
  "/>
<polyline clip-path="url(#clip812)" style="stroke:#000000; stroke-linecap:round; stroke-linejoin:round; stroke-width:2; stroke-opacity:0.1; fill:none" points="
  159.131,315.951 2640.76,315.951 
  "/>
<polyline clip-path="url(#clip810)" style="stroke:#000000; stroke-linecap:round; stroke-linejoin:round; stroke-width:4; stroke-opacity:1; fill:none" points="
  159.131,1800.78 159.131,47.2441 
  "/>
<polyline clip-path="url(#clip810)" style="stroke:#000000; stroke-linecap:round; stroke-linejoin:round; stroke-width:4; stroke-opacity:1; fill:none" points="
  159.131,1751.15 178.029,1751.15 
  "/>
<polyline clip-path="url(#clip810)" style="stroke:#000000; stroke-linecap:round; stroke-linejoin:round; stroke-width:4; stroke-opacity:1; fill:none" points="
  159.131,1272.75 178.029,1272.75 
  "/>
<polyline clip-path="url(#clip810)" style="stroke:#000000; stroke-linecap:round; stroke-linejoin:round; stroke-width:4; stroke-opacity:1; fill:none" points="
  159.131,794.351 178.029,794.351 
  "/>
<polyline clip-path="url(#clip810)" style="stroke:#000000; stroke-linecap:round; stroke-linejoin:round; stroke-width:4; stroke-opacity:1; fill:none" points="
  159.131,315.951 178.029,315.951 
  "/>
<path clip-path="url(#clip810)" d="M55.6632 1764.5 L71.9826 1764.5 L71.9826 1768.43 L50.0382 1768.43 L50.0382 1764.5 Q52.7003 1761.74 57.2836 1757.11 Q61.89 1752.46 63.0706 1751.12 Q65.3159 1748.59 66.1956 1746.86 Q67.0983 1745.1 67.0983 1743.41 Q67.0983 1740.65 65.1539 1738.92 Q63.2326 1737.18 60.1308 1737.18 Q57.9317 1737.18 55.478 1737.94 Q53.0475 1738.71 50.2697 1740.26 L50.2697 1735.54 Q53.0938 1734.4 55.5475 1733.82 Q58.0012 1733.25 60.0382 1733.25 Q65.4085 1733.25 68.6029 1735.93 Q71.7974 1738.62 71.7974 1743.11 Q71.7974 1745.24 70.9872 1747.16 Q70.2002 1749.06 68.0937 1751.65 Q67.515 1752.32 64.4132 1755.54 Q61.3113 1758.73 55.6632 1764.5 Z" fill="#000000" fill-rule="evenodd" fill-opacity="1" /><path clip-path="url(#clip810)" d="M81.7973 1762.55 L86.6816 1762.55 L86.6816 1768.43 L81.7973 1768.43 L81.7973 1762.55 Z" fill="#000000" fill-rule="evenodd" fill-opacity="1" /><path clip-path="url(#clip810)" d="M106.867 1736.95 Q103.256 1736.95 101.427 1740.51 Q99.6213 1744.06 99.6213 1751.19 Q99.6213 1758.29 101.427 1761.86 Q103.256 1765.4 106.867 1765.4 Q110.501 1765.4 112.306 1761.86 Q114.135 1758.29 114.135 1751.19 Q114.135 1744.06 112.306 1740.51 Q110.501 1736.95 106.867 1736.95 M106.867 1733.25 Q112.677 1733.25 115.732 1737.85 Q118.811 1742.44 118.811 1751.19 Q118.811 1759.91 115.732 1764.52 Q112.677 1769.1 106.867 1769.1 Q101.056 1769.1 97.9778 1764.52 Q94.9223 1759.91 94.9223 1751.19 Q94.9223 1742.44 97.9778 1737.85 Q101.056 1733.25 106.867 1733.25 Z" fill="#000000" fill-rule="evenodd" fill-opacity="1" /><path clip-path="url(#clip810)" d="M57.2604 1286.1 L73.5798 1286.1 L73.5798 1290.03 L51.6354 1290.03 L51.6354 1286.1 Q54.2975 1283.34 58.8808 1278.71 Q63.4872 1274.06 64.6678 1272.72 Q66.9131 1270.19 67.7928 1268.46 Q68.6955 1266.7 68.6955 1265.01 Q68.6955 1262.25 66.7511 1260.52 Q64.8298 1258.78 61.728 1258.78 Q59.5289 1258.78 57.0752 1259.55 Q54.6447 1260.31 51.8669 1261.86 L51.8669 1257.14 Q54.691 1256 57.1447 1255.42 Q59.5984 1254.85 61.6354 1254.85 Q67.0057 1254.85 70.2002 1257.53 Q73.3946 1260.22 73.3946 1264.71 Q73.3946 1266.84 72.5844 1268.76 Q71.7974 1270.66 69.6909 1273.25 Q69.1122 1273.92 66.0104 1277.14 Q62.9085 1280.33 57.2604 1286.1 Z" fill="#000000" fill-rule="evenodd" fill-opacity="1" /><path clip-path="url(#clip810)" d="M83.3945 1284.15 L88.2788 1284.15 L88.2788 1290.03 L83.3945 1290.03 L83.3945 1284.15 Z" fill="#000000" fill-rule="evenodd" fill-opacity="1" /><path clip-path="url(#clip810)" d="M102.492 1286.1 L118.811 1286.1 L118.811 1290.03 L96.8667 1290.03 L96.8667 1286.1 Q99.5287 1283.34 104.112 1278.71 Q108.718 1274.06 109.899 1272.72 Q112.144 1270.19 113.024 1268.46 Q113.927 1266.7 113.927 1265.01 Q113.927 1262.25 111.982 1260.52 Q110.061 1258.78 106.959 1258.78 Q104.76 1258.78 102.306 1259.55 Q99.8759 1260.31 97.0982 1261.86 L97.0982 1257.14 Q99.9222 1256 102.376 1255.42 Q104.83 1254.85 106.867 1254.85 Q112.237 1254.85 115.431 1257.53 Q118.626 1260.22 118.626 1264.71 Q118.626 1266.84 117.816 1268.76 Q117.029 1270.66 114.922 1273.25 Q114.343 1273.92 111.242 1277.14 Q108.14 1280.33 102.492 1286.1 Z" fill="#000000" fill-rule="evenodd" fill-opacity="1" /><path clip-path="url(#clip810)" d="M55.1771 807.696 L71.4965 807.696 L71.4965 811.631 L49.5521 811.631 L49.5521 807.696 Q52.2141 804.941 56.7975 800.312 Q61.4039 795.659 62.5845 794.316 Q64.8298 791.793 65.7094 790.057 Q66.6122 788.298 66.6122 786.608 Q66.6122 783.853 64.6678 782.117 Q62.7465 780.381 59.6447 780.381 Q57.4456 780.381 54.9919 781.145 Q52.5614 781.909 49.7836 783.46 L49.7836 778.738 Q52.6077 777.603 55.0614 777.025 Q57.515 776.446 59.5521 776.446 Q64.9224 776.446 68.1168 779.131 Q71.3113 781.816 71.3113 786.307 Q71.3113 788.437 70.5011 790.358 Q69.7141 792.256 67.6076 794.849 Q67.0289 795.52 63.927 798.738 Q60.8252 801.932 55.1771 807.696 Z" fill="#000000" fill-rule="evenodd" fill-opacity="1" /><path clip-path="url(#clip810)" d="M81.3112 805.751 L86.1954 805.751 L86.1954 811.631 L81.3112 811.631 L81.3112 805.751 Z" fill="#000000" fill-rule="evenodd" fill-opacity="1" /><path clip-path="url(#clip810)" d="M109.228 781.145 L97.4222 799.594 L109.228 799.594 L109.228 781.145 M108.001 777.071 L113.88 777.071 L113.88 799.594 L118.811 799.594 L118.811 803.483 L113.88 803.483 L113.88 811.631 L109.228 811.631 L109.228 803.483 L93.626 803.483 L93.626 798.969 L108.001 777.071 Z" fill="#000000" fill-rule="evenodd" fill-opacity="1" /><path clip-path="url(#clip810)" d="M55.5012 329.296 L71.8205 329.296 L71.8205 333.231 L49.8762 333.231 L49.8762 329.296 Q52.5382 326.541 57.1215 321.912 Q61.728 317.259 62.9085 315.916 Q65.1539 313.393 66.0335 311.657 Q66.9363 309.898 66.9363 308.208 Q66.9363 305.453 64.9919 303.717 Q63.0706 301.981 59.9687 301.981 Q57.7697 301.981 55.316 302.745 Q52.8854 303.509 50.1077 305.06 L50.1077 300.338 Q52.9317 299.203 55.3854 298.625 Q57.8391 298.046 59.8761 298.046 Q65.2465 298.046 68.4409 300.731 Q71.6353 303.416 71.6353 307.907 Q71.6353 310.037 70.8252 311.958 Q70.0381 313.856 67.9317 316.449 Q67.353 317.12 64.2511 320.338 Q61.1493 323.532 55.5012 329.296 Z" fill="#000000" fill-rule="evenodd" fill-opacity="1" /><path clip-path="url(#clip810)" d="M81.6353 327.351 L86.5195 327.351 L86.5195 333.231 L81.6353 333.231 L81.6353 327.351 Z" fill="#000000" fill-rule="evenodd" fill-opacity="1" /><path clip-path="url(#clip810)" d="M107.283 314.088 Q104.135 314.088 102.283 316.24 Q100.455 318.393 100.455 322.143 Q100.455 325.87 102.283 328.046 Q104.135 330.199 107.283 330.199 Q110.431 330.199 112.26 328.046 Q114.112 325.87 114.112 322.143 Q114.112 318.393 112.26 316.24 Q110.431 314.088 107.283 314.088 M116.566 299.435 L116.566 303.694 Q114.806 302.861 113.001 302.421 Q111.218 301.981 109.459 301.981 Q104.83 301.981 102.376 305.106 Q99.9454 308.231 99.5982 314.551 Q100.964 312.537 103.024 311.472 Q105.084 310.384 107.561 310.384 Q112.769 310.384 115.779 313.555 Q118.811 316.703 118.811 322.143 Q118.811 327.467 115.663 330.685 Q112.515 333.902 107.283 333.902 Q101.288 333.902 98.1167 329.319 Q94.9454 324.713 94.9454 315.986 Q94.9454 307.791 98.8343 302.93 Q102.723 298.046 109.274 298.046 Q111.033 298.046 112.816 298.393 Q114.621 298.74 116.566 299.435 Z" fill="#000000" fill-rule="evenodd" fill-opacity="1" /><circle clip-path="url(#clip812)" cx="229.366" cy="1751.15" r="14.4" fill="#009af9" fill-rule="evenodd" fill-opacity="1" stroke="#000000" stroke-opacity="1" stroke-width="3.84"/>
<circle clip-path="url(#clip812)" cx="277.144" cy="1153.15" r="14.4" fill="#009af9" fill-rule="evenodd" fill-opacity="1" stroke="#000000" stroke-opacity="1" stroke-width="3.84"/>
<circle clip-path="url(#clip812)" cx="324.923" cy="865.225" r="14.4" fill="#009af9" fill-rule="evenodd" fill-opacity="1" stroke="#000000" stroke-opacity="1" stroke-width="3.84"/>
<circle clip-path="url(#clip812)" cx="372.702" cy="695.307" r="14.4" fill="#009af9" fill-rule="evenodd" fill-opacity="1" stroke="#000000" stroke-opacity="1" stroke-width="3.84"/>
<circle clip-path="url(#clip812)" cx="420.48" cy="583.09" r="14.4" fill="#009af9" fill-rule="evenodd" fill-opacity="1" stroke="#000000" stroke-opacity="1" stroke-width="3.84"/>
<circle clip-path="url(#clip812)" cx="468.259" cy="503.421" r="14.4" fill="#009af9" fill-rule="evenodd" fill-opacity="1" stroke="#000000" stroke-opacity="1" stroke-width="3.84"/>
<circle clip-path="url(#clip812)" cx="516.038" cy="443.924" r="14.4" fill="#009af9" fill-rule="evenodd" fill-opacity="1" stroke="#000000" stroke-opacity="1" stroke-width="3.84"/>
<circle clip-path="url(#clip812)" cx="563.816" cy="397.794" r="14.4" fill="#009af9" fill-rule="evenodd" fill-opacity="1" stroke="#000000" stroke-opacity="1" stroke-width="3.84"/>
<circle clip-path="url(#clip812)" cx="611.595" cy="360.981" r="14.4" fill="#009af9" fill-rule="evenodd" fill-opacity="1" stroke="#000000" stroke-opacity="1" stroke-width="3.84"/>
<circle clip-path="url(#clip812)" cx="659.374" cy="330.919" r="14.4" fill="#009af9" fill-rule="evenodd" fill-opacity="1" stroke="#000000" stroke-opacity="1" stroke-width="3.84"/>
<circle clip-path="url(#clip812)" cx="707.153" cy="305.907" r="14.4" fill="#009af9" fill-rule="evenodd" fill-opacity="1" stroke="#000000" stroke-opacity="1" stroke-width="3.84"/>
<circle clip-path="url(#clip812)" cx="754.931" cy="284.771" r="14.4" fill="#009af9" fill-rule="evenodd" fill-opacity="1" stroke="#000000" stroke-opacity="1" stroke-width="3.84"/>
<circle clip-path="url(#clip812)" cx="802.71" cy="266.674" r="14.4" fill="#009af9" fill-rule="evenodd" fill-opacity="1" stroke="#000000" stroke-opacity="1" stroke-width="3.84"/>
<circle clip-path="url(#clip812)" cx="850.489" cy="251.004" r="14.4" fill="#009af9" fill-rule="evenodd" fill-opacity="1" stroke="#000000" stroke-opacity="1" stroke-width="3.84"/>
<circle clip-path="url(#clip812)" cx="898.267" cy="237.305" r="14.4" fill="#009af9" fill-rule="evenodd" fill-opacity="1" stroke="#000000" stroke-opacity="1" stroke-width="3.84"/>
<circle clip-path="url(#clip812)" cx="946.046" cy="225.226" r="14.4" fill="#009af9" fill-rule="evenodd" fill-opacity="1" stroke="#000000" stroke-opacity="1" stroke-width="3.84"/>
<circle clip-path="url(#clip812)" cx="993.825" cy="214.496" r="14.4" fill="#009af9" fill-rule="evenodd" fill-opacity="1" stroke="#000000" stroke-opacity="1" stroke-width="3.84"/>
<circle clip-path="url(#clip812)" cx="1041.6" cy="204.9" r="14.4" fill="#009af9" fill-rule="evenodd" fill-opacity="1" stroke="#000000" stroke-opacity="1" stroke-width="3.84"/>
<circle clip-path="url(#clip812)" cx="1089.38" cy="196.269" r="14.4" fill="#009af9" fill-rule="evenodd" fill-opacity="1" stroke="#000000" stroke-opacity="1" stroke-width="3.84"/>
<circle clip-path="url(#clip812)" cx="1137.16" cy="188.463" r="14.4" fill="#009af9" fill-rule="evenodd" fill-opacity="1" stroke="#000000" stroke-opacity="1" stroke-width="3.84"/>
<circle clip-path="url(#clip812)" cx="1184.94" cy="181.369" r="14.4" fill="#009af9" fill-rule="evenodd" fill-opacity="1" stroke="#000000" stroke-opacity="1" stroke-width="3.84"/>
<circle clip-path="url(#clip812)" cx="1232.72" cy="174.895" r="14.4" fill="#009af9" fill-rule="evenodd" fill-opacity="1" stroke="#000000" stroke-opacity="1" stroke-width="3.84"/>
<circle clip-path="url(#clip812)" cx="1280.5" cy="168.962" r="14.4" fill="#009af9" fill-rule="evenodd" fill-opacity="1" stroke="#000000" stroke-opacity="1" stroke-width="3.84"/>
<circle clip-path="url(#clip812)" cx="1328.28" cy="163.506" r="14.4" fill="#009af9" fill-rule="evenodd" fill-opacity="1" stroke="#000000" stroke-opacity="1" stroke-width="3.84"/>
<circle clip-path="url(#clip812)" cx="1376.05" cy="158.471" r="14.4" fill="#009af9" fill-rule="evenodd" fill-opacity="1" stroke="#000000" stroke-opacity="1" stroke-width="3.84"/>
<circle clip-path="url(#clip812)" cx="1423.83" cy="153.809" r="14.4" fill="#009af9" fill-rule="evenodd" fill-opacity="1" stroke="#000000" stroke-opacity="1" stroke-width="3.84"/>
<circle clip-path="url(#clip812)" cx="1471.61" cy="149.482" r="14.4" fill="#009af9" fill-rule="evenodd" fill-opacity="1" stroke="#000000" stroke-opacity="1" stroke-width="3.84"/>
<circle clip-path="url(#clip812)" cx="1519.39" cy="145.454" r="14.4" fill="#009af9" fill-rule="evenodd" fill-opacity="1" stroke="#000000" stroke-opacity="1" stroke-width="3.84"/>
<circle clip-path="url(#clip812)" cx="1567.17" cy="141.696" r="14.4" fill="#009af9" fill-rule="evenodd" fill-opacity="1" stroke="#000000" stroke-opacity="1" stroke-width="3.84"/>
<circle clip-path="url(#clip812)" cx="1614.95" cy="138.181" r="14.4" fill="#009af9" fill-rule="evenodd" fill-opacity="1" stroke="#000000" stroke-opacity="1" stroke-width="3.84"/>
<circle clip-path="url(#clip812)" cx="1662.73" cy="134.885" r="14.4" fill="#009af9" fill-rule="evenodd" fill-opacity="1" stroke="#000000" stroke-opacity="1" stroke-width="3.84"/>
<circle clip-path="url(#clip812)" cx="1710.5" cy="131.791" r="14.4" fill="#009af9" fill-rule="evenodd" fill-opacity="1" stroke="#000000" stroke-opacity="1" stroke-width="3.84"/>
<circle clip-path="url(#clip812)" cx="1758.28" cy="128.878" r="14.4" fill="#009af9" fill-rule="evenodd" fill-opacity="1" stroke="#000000" stroke-opacity="1" stroke-width="3.84"/>
<circle clip-path="url(#clip812)" cx="1806.06" cy="126.133" r="14.4" fill="#009af9" fill-rule="evenodd" fill-opacity="1" stroke="#000000" stroke-opacity="1" stroke-width="3.84"/>
<circle clip-path="url(#clip812)" cx="1853.84" cy="123.54" r="14.4" fill="#009af9" fill-rule="evenodd" fill-opacity="1" stroke="#000000" stroke-opacity="1" stroke-width="3.84"/>
<circle clip-path="url(#clip812)" cx="1901.62" cy="121.088" r="14.4" fill="#009af9" fill-rule="evenodd" fill-opacity="1" stroke="#000000" stroke-opacity="1" stroke-width="3.84"/>
<circle clip-path="url(#clip812)" cx="1949.4" cy="118.765" r="14.4" fill="#009af9" fill-rule="evenodd" fill-opacity="1" stroke="#000000" stroke-opacity="1" stroke-width="3.84"/>
<circle clip-path="url(#clip812)" cx="1997.18" cy="116.562" r="14.4" fill="#009af9" fill-rule="evenodd" fill-opacity="1" stroke="#000000" stroke-opacity="1" stroke-width="3.84"/>
<circle clip-path="url(#clip812)" cx="2044.96" cy="114.469" r="14.4" fill="#009af9" fill-rule="evenodd" fill-opacity="1" stroke="#000000" stroke-opacity="1" stroke-width="3.84"/>
<circle clip-path="url(#clip812)" cx="2092.73" cy="112.478" r="14.4" fill="#009af9" fill-rule="evenodd" fill-opacity="1" stroke="#000000" stroke-opacity="1" stroke-width="3.84"/>
<circle clip-path="url(#clip812)" cx="2140.51" cy="110.583" r="14.4" fill="#009af9" fill-rule="evenodd" fill-opacity="1" stroke="#000000" stroke-opacity="1" stroke-width="3.84"/>
<circle clip-path="url(#clip812)" cx="2188.29" cy="108.775" r="14.4" fill="#009af9" fill-rule="evenodd" fill-opacity="1" stroke="#000000" stroke-opacity="1" stroke-width="3.84"/>
<circle clip-path="url(#clip812)" cx="2236.07" cy="107.05" r="14.4" fill="#009af9" fill-rule="evenodd" fill-opacity="1" stroke="#000000" stroke-opacity="1" stroke-width="3.84"/>
<circle clip-path="url(#clip812)" cx="2283.85" cy="105.402" r="14.4" fill="#009af9" fill-rule="evenodd" fill-opacity="1" stroke="#000000" stroke-opacity="1" stroke-width="3.84"/>
<circle clip-path="url(#clip812)" cx="2331.63" cy="103.826" r="14.4" fill="#009af9" fill-rule="evenodd" fill-opacity="1" stroke="#000000" stroke-opacity="1" stroke-width="3.84"/>
<circle clip-path="url(#clip812)" cx="2379.41" cy="102.316" r="14.4" fill="#009af9" fill-rule="evenodd" fill-opacity="1" stroke="#000000" stroke-opacity="1" stroke-width="3.84"/>
<circle clip-path="url(#clip812)" cx="2427.19" cy="100.87" r="14.4" fill="#009af9" fill-rule="evenodd" fill-opacity="1" stroke="#000000" stroke-opacity="1" stroke-width="3.84"/>
<circle clip-path="url(#clip812)" cx="2474.96" cy="99.4832" r="14.4" fill="#009af9" fill-rule="evenodd" fill-opacity="1" stroke="#000000" stroke-opacity="1" stroke-width="3.84"/>
<circle clip-path="url(#clip812)" cx="2522.74" cy="98.1516" r="14.4" fill="#009af9" fill-rule="evenodd" fill-opacity="1" stroke="#000000" stroke-opacity="1" stroke-width="3.84"/>
<circle clip-path="url(#clip812)" cx="2570.52" cy="96.8724" r="14.4" fill="#009af9" fill-rule="evenodd" fill-opacity="1" stroke="#000000" stroke-opacity="1" stroke-width="3.84"/>
</svg>
