<?xml version="1.0" encoding="utf-8"?>
<svg xmlns="http://www.w3.org/2000/svg" xmlns:xlink="http://www.w3.org/1999/xlink" width="528" height="336" viewBox="0 0 2112 1344">
<defs>
  <clipPath id="clip140">
    <rect x="0" y="0" width="2112" height="1344"/>
  </clipPath>
</defs>
<path clip-path="url(#clip140)" d="M0 1344 L2112 1344 L2112 0 L0 0  Z" fill="#ffffff" fill-rule="evenodd" fill-opacity="1"/>
<defs>
  <clipPath id="clip141">
    <rect x="422" y="0" width="1479" height="1344"/>
  </clipPath>
</defs>
<path clip-path="url(#clip140)" d="M191.056 1234.58 L2064.76 1234.58 L2064.76 47.2441 L191.056 47.2441  Z" fill="#ffffff" fill-rule="evenodd" fill-opacity="1"/>
<defs>
  <clipPath id="clip142">
    <rect x="191" y="47" width="1875" height="1188"/>
  </clipPath>
</defs>
<polyline clip-path="url(#clip142)" style="stroke:#000000; stroke-linecap:round; stroke-linejoin:round; stroke-width:2; stroke-opacity:0.1; fill:none" points="465.04,1234.58 465.04,47.2441 "/>
<polyline clip-path="url(#clip142)" style="stroke:#000000; stroke-linecap:round; stroke-linejoin:round; stroke-width:2; stroke-opacity:0.1; fill:none" points="796.473,1234.58 796.473,47.2441 "/>
<polyline clip-path="url(#clip142)" style="stroke:#000000; stroke-linecap:round; stroke-linejoin:round; stroke-width:2; stroke-opacity:0.1; fill:none" points="1127.91,1234.58 1127.91,47.2441 "/>
<polyline clip-path="url(#clip142)" style="stroke:#000000; stroke-linecap:round; stroke-linejoin:round; stroke-width:2; stroke-opacity:0.1; fill:none" points="1459.34,1234.58 1459.34,47.2441 "/>
<polyline clip-path="url(#clip142)" style="stroke:#000000; stroke-linecap:round; stroke-linejoin:round; stroke-width:2; stroke-opacity:0.1; fill:none" points="1790.77,1234.58 1790.77,47.2441 "/>
<polyline clip-path="url(#clip140)" style="stroke:#000000; stroke-linecap:round; stroke-linejoin:round; stroke-width:4; stroke-opacity:1; fill:none" points="191.056,1234.58 2064.76,1234.58 "/>
<polyline clip-path="url(#clip140)" style="stroke:#000000; stroke-linecap:round; stroke-linejoin:round; stroke-width:4; stroke-opacity:1; fill:none" points="465.04,1234.58 465.04,1215.68 "/>
<polyline clip-path="url(#clip140)" style="stroke:#000000; stroke-linecap:round; stroke-linejoin:round; stroke-width:4; stroke-opacity:1; fill:none" points="796.473,1234.58 796.473,1215.68 "/>
<polyline clip-path="url(#clip140)" style="stroke:#000000; stroke-linecap:round; stroke-linejoin:round; stroke-width:4; stroke-opacity:1; fill:none" points="1127.91,1234.58 1127.91,1215.68 "/>
<polyline clip-path="url(#clip140)" style="stroke:#000000; stroke-linecap:round; stroke-linejoin:round; stroke-width:4; stroke-opacity:1; fill:none" points="1459.34,1234.58 1459.34,1215.68 "/>
<polyline clip-path="url(#clip140)" style="stroke:#000000; stroke-linecap:round; stroke-linejoin:round; stroke-width:4; stroke-opacity:1; fill:none" points="1790.77,1234.58 1790.77,1215.68 "/>
<path clip-path="url(#clip140)" d="M434.103 1277.85 L463.779 1277.85 L463.779 1281.78 L434.103 1281.78 L434.103 1277.85 Z" fill="#000000" fill-rule="nonzero" fill-opacity="1" /><path clip-path="url(#clip140)" d="M484.45 1275.53 Q481.302 1275.53 479.45 1277.68 Q477.621 1279.84 477.621 1283.59 Q477.621 1287.31 479.45 1289.49 Q481.302 1291.64 484.45 1291.64 Q487.598 1291.64 489.427 1289.49 Q491.279 1287.31 491.279 1283.59 Q491.279 1279.84 489.427 1277.68 Q487.598 1275.53 484.45 1275.53 M493.732 1260.88 L493.732 1265.14 Q491.973 1264.3 490.168 1263.86 Q488.385 1263.42 486.626 1263.42 Q481.996 1263.42 479.543 1266.55 Q477.112 1269.67 476.765 1275.99 Q478.131 1273.98 480.191 1272.92 Q482.251 1271.83 484.728 1271.83 Q489.936 1271.83 492.945 1275 Q495.978 1278.15 495.978 1283.59 Q495.978 1288.91 492.83 1292.13 Q489.681 1295.35 484.45 1295.35 Q478.455 1295.35 475.283 1290.76 Q472.112 1286.16 472.112 1277.43 Q472.112 1269.24 476.001 1264.37 Q479.89 1259.49 486.441 1259.49 Q488.2 1259.49 489.982 1259.84 Q491.788 1260.18 493.732 1260.88 Z" fill="#000000" fill-rule="nonzero" fill-opacity="1" /><path clip-path="url(#clip140)" d="M765.941 1277.85 L795.617 1277.85 L795.617 1281.78 L765.941 1281.78 L765.941 1277.85 Z" fill="#000000" fill-rule="nonzero" fill-opacity="1" /><path clip-path="url(#clip140)" d="M819.876 1276.04 Q823.232 1276.76 825.107 1279.03 Q827.005 1281.3 827.005 1284.63 Q827.005 1289.74 823.487 1292.55 Q819.968 1295.35 813.487 1295.35 Q811.311 1295.35 808.996 1294.91 Q806.705 1294.49 804.251 1293.63 L804.251 1289.12 Q806.195 1290.25 808.51 1290.83 Q810.825 1291.41 813.348 1291.41 Q817.746 1291.41 820.038 1289.67 Q822.353 1287.94 822.353 1284.63 Q822.353 1281.57 820.2 1279.86 Q818.07 1278.12 814.251 1278.12 L810.223 1278.12 L810.223 1274.28 L814.436 1274.28 Q817.885 1274.28 819.714 1272.92 Q821.542 1271.53 821.542 1268.93 Q821.542 1266.27 819.644 1264.86 Q817.769 1263.42 814.251 1263.42 Q812.33 1263.42 810.131 1263.84 Q807.931 1264.26 805.293 1265.14 L805.293 1260.97 Q807.955 1260.23 810.269 1259.86 Q812.607 1259.49 814.668 1259.49 Q819.992 1259.49 823.093 1261.92 Q826.195 1264.33 826.195 1268.45 Q826.195 1271.32 824.552 1273.31 Q822.908 1275.28 819.876 1276.04 Z" fill="#000000" fill-rule="nonzero" fill-opacity="1" /><path clip-path="url(#clip140)" d="M1127.91 1263.19 Q1124.29 1263.19 1122.47 1266.76 Q1120.66 1270.3 1120.66 1277.43 Q1120.66 1284.54 1122.47 1288.1 Q1124.29 1291.64 1127.91 1291.64 Q1131.54 1291.64 1133.35 1288.1 Q1135.17 1284.54 1135.17 1277.43 Q1135.17 1270.3 1133.35 1266.76 Q1131.54 1263.19 1127.91 1263.19 M1127.91 1259.49 Q1133.72 1259.49 1136.77 1264.1 Q1139.85 1268.68 1139.85 1277.43 Q1139.85 1286.16 1136.77 1290.76 Q1133.72 1295.35 1127.91 1295.35 Q1122.1 1295.35 1119.02 1290.76 Q1115.96 1286.16 1115.96 1277.43 Q1115.96 1268.68 1119.02 1264.1 Q1122.1 1259.49 1127.91 1259.49 Z" fill="#000000" fill-rule="nonzero" fill-opacity="1" /><path clip-path="url(#clip140)" d="M1463.59 1276.04 Q1466.94 1276.76 1468.82 1279.03 Q1470.72 1281.3 1470.72 1284.63 Q1470.72 1289.74 1467.2 1292.55 Q1463.68 1295.35 1457.2 1295.35 Q1455.02 1295.35 1452.71 1294.91 Q1450.42 1294.49 1447.96 1293.63 L1447.96 1289.12 Q1449.91 1290.25 1452.22 1290.83 Q1454.54 1291.41 1457.06 1291.41 Q1461.46 1291.41 1463.75 1289.67 Q1466.06 1287.94 1466.06 1284.63 Q1466.06 1281.57 1463.91 1279.86 Q1461.78 1278.12 1457.96 1278.12 L1453.93 1278.12 L1453.93 1274.28 L1458.15 1274.28 Q1461.6 1274.28 1463.42 1272.92 Q1465.25 1271.53 1465.25 1268.93 Q1465.25 1266.27 1463.35 1264.86 Q1461.48 1263.42 1457.96 1263.42 Q1456.04 1263.42 1453.84 1263.84 Q1451.64 1264.26 1449 1265.14 L1449 1260.97 Q1451.67 1260.23 1453.98 1259.86 Q1456.32 1259.49 1458.38 1259.49 Q1463.7 1259.49 1466.8 1261.92 Q1469.91 1264.33 1469.91 1268.45 Q1469.91 1271.32 1468.26 1273.31 Q1466.62 1275.28 1463.59 1276.04 Z" fill="#000000" fill-rule="nonzero" fill-opacity="1" /><path clip-path="url(#clip140)" d="M1791.18 1275.53 Q1788.03 1275.53 1786.18 1277.68 Q1784.35 1279.84 1784.35 1283.59 Q1784.35 1287.31 1786.18 1289.49 Q1788.03 1291.64 1791.18 1291.64 Q1794.32 1291.64 1796.15 1289.49 Q1798.01 1287.31 1798.01 1283.59 Q1798.01 1279.84 1796.15 1277.68 Q1794.32 1275.53 1791.18 1275.53 M1800.46 1260.88 L1800.46 1265.14 Q1798.7 1264.3 1796.89 1263.86 Q1795.11 1263.42 1793.35 1263.42 Q1788.72 1263.42 1786.27 1266.55 Q1783.84 1269.67 1783.49 1275.99 Q1784.86 1273.98 1786.92 1272.92 Q1788.98 1271.83 1791.45 1271.83 Q1796.66 1271.83 1799.67 1275 Q1802.7 1278.15 1802.7 1283.59 Q1802.7 1288.91 1799.56 1292.13 Q1796.41 1295.35 1791.18 1295.35 Q1785.18 1295.35 1782.01 1290.76 Q1778.84 1286.16 1778.84 1277.43 Q1778.84 1269.24 1782.73 1264.37 Q1786.62 1259.49 1793.17 1259.49 Q1794.93 1259.49 1796.71 1259.84 Q1798.51 1260.18 1800.46 1260.88 Z" fill="#000000" fill-rule="nonzero" fill-opacity="1" /><polyline clip-path="url(#clip142)" style="stroke:#000000; stroke-linecap:round; stroke-linejoin:round; stroke-width:2; stroke-opacity:0.1; fill:none" points="191.056,1234.58 2064.76,1234.58 "/>
<polyline clip-path="url(#clip142)" style="stroke:#000000; stroke-linecap:round; stroke-linejoin:round; stroke-width:2; stroke-opacity:0.1; fill:none" points="191.056,937.745 2064.76,937.745 "/>
<polyline clip-path="url(#clip142)" style="stroke:#000000; stroke-linecap:round; stroke-linejoin:round; stroke-width:2; stroke-opacity:0.1; fill:none" points="191.056,640.911 2064.76,640.911 "/>
<polyline clip-path="url(#clip142)" style="stroke:#000000; stroke-linecap:round; stroke-linejoin:round; stroke-width:2; stroke-opacity:0.1; fill:none" points="191.056,344.078 2064.76,344.078 "/>
<polyline clip-path="url(#clip142)" style="stroke:#000000; stroke-linecap:round; stroke-linejoin:round; stroke-width:2; stroke-opacity:0.1; fill:none" points="191.056,47.2441 2064.76,47.2441 "/>
<polyline clip-path="url(#clip140)" style="stroke:#000000; stroke-linecap:round; stroke-linejoin:round; stroke-width:4; stroke-opacity:1; fill:none" points="191.056,1234.58 191.056,47.2441 "/>
<polyline clip-path="url(#clip140)" style="stroke:#000000; stroke-linecap:round; stroke-linejoin:round; stroke-width:4; stroke-opacity:1; fill:none" points="191.056,1234.58 209.954,1234.58 "/>
<polyline clip-path="url(#clip140)" style="stroke:#000000; stroke-linecap:round; stroke-linejoin:round; stroke-width:4; stroke-opacity:1; fill:none" points="191.056,937.745 209.954,937.745 "/>
<polyline clip-path="url(#clip140)" style="stroke:#000000; stroke-linecap:round; stroke-linejoin:round; stroke-width:4; stroke-opacity:1; fill:none" points="191.056,640.911 209.954,640.911 "/>
<polyline clip-path="url(#clip140)" style="stroke:#000000; stroke-linecap:round; stroke-linejoin:round; stroke-width:4; stroke-opacity:1; fill:none" points="191.056,344.078 209.954,344.078 "/>
<polyline clip-path="url(#clip140)" style="stroke:#000000; stroke-linecap:round; stroke-linejoin:round; stroke-width:4; stroke-opacity:1; fill:none" points="191.056,47.2441 209.954,47.2441 "/>
<path clip-path="url(#clip140)" d="M52.4321 1235.03 L82.1079 1235.03 L82.1079 1238.97 L52.4321 1238.97 L52.4321 1235.03 Z" fill="#000000" fill-rule="nonzero" fill-opacity="1" /><path clip-path="url(#clip140)" d="M93.0106 1247.92 L100.649 1247.92 L100.649 1221.56 L92.3393 1223.22 L92.3393 1218.97 L100.603 1217.3 L105.279 1217.3 L105.279 1247.92 L112.918 1247.92 L112.918 1251.86 L93.0106 1251.86 L93.0106 1247.92 Z" fill="#000000" fill-rule="nonzero" fill-opacity="1" /><path clip-path="url(#clip140)" d="M122.362 1245.98 L127.247 1245.98 L127.247 1251.86 L122.362 1251.86 L122.362 1245.98 Z" fill="#000000" fill-rule="nonzero" fill-opacity="1" /><path clip-path="url(#clip140)" d="M147.432 1220.38 Q143.821 1220.38 141.992 1223.94 Q140.186 1227.48 140.186 1234.61 Q140.186 1241.72 141.992 1245.28 Q143.821 1248.83 147.432 1248.83 Q151.066 1248.83 152.871 1245.28 Q154.7 1241.72 154.7 1234.61 Q154.7 1227.48 152.871 1223.94 Q151.066 1220.38 147.432 1220.38 M147.432 1216.67 Q153.242 1216.67 156.297 1221.28 Q159.376 1225.86 159.376 1234.61 Q159.376 1243.34 156.297 1247.95 Q153.242 1252.53 147.432 1252.53 Q141.621 1252.53 138.543 1247.95 Q135.487 1243.34 135.487 1234.61 Q135.487 1225.86 138.543 1221.28 Q141.621 1216.67 147.432 1216.67 Z" fill="#000000" fill-rule="nonzero" fill-opacity="1" /><path clip-path="url(#clip140)" d="M53.4275 938.196 L83.1033 938.196 L83.1033 942.132 L53.4275 942.132 L53.4275 938.196 Z" fill="#000000" fill-rule="nonzero" fill-opacity="1" /><path clip-path="url(#clip140)" d="M103.196 923.544 Q99.5847 923.544 97.756 927.109 Q95.9504 930.65 95.9504 937.78 Q95.9504 944.886 97.756 948.451 Q99.5847 951.993 103.196 951.993 Q106.83 951.993 108.636 948.451 Q110.464 944.886 110.464 937.78 Q110.464 930.65 108.636 927.109 Q106.83 923.544 103.196 923.544 M103.196 919.84 Q109.006 919.84 112.061 924.447 Q115.14 929.03 115.14 937.78 Q115.14 946.507 112.061 951.113 Q109.006 955.696 103.196 955.696 Q97.3856 955.696 94.3069 951.113 Q91.2514 946.507 91.2514 937.78 Q91.2514 929.03 94.3069 924.447 Q97.3856 919.84 103.196 919.84 Z" fill="#000000" fill-rule="nonzero" fill-opacity="1" /><path clip-path="url(#clip140)" d="M123.358 949.146 L128.242 949.146 L128.242 955.025 L123.358 955.025 L123.358 949.146 Z" fill="#000000" fill-rule="nonzero" fill-opacity="1" /><path clip-path="url(#clip140)" d="M138.473 920.465 L156.83 920.465 L156.83 924.4 L142.756 924.4 L142.756 932.872 Q143.774 932.525 144.793 932.363 Q145.811 932.178 146.83 932.178 Q152.617 932.178 155.996 935.349 Q159.376 938.521 159.376 943.937 Q159.376 949.516 155.904 952.618 Q152.432 955.696 146.112 955.696 Q143.936 955.696 141.668 955.326 Q139.422 954.956 137.015 954.215 L137.015 949.516 Q139.098 950.65 141.321 951.206 Q143.543 951.761 146.02 951.761 Q150.024 951.761 152.362 949.655 Q154.7 947.548 154.7 943.937 Q154.7 940.326 152.362 938.22 Q150.024 936.113 146.02 936.113 Q144.145 936.113 142.27 936.53 Q140.418 936.947 138.473 937.826 L138.473 920.465 Z" fill="#000000" fill-rule="nonzero" fill-opacity="1" /><path clip-path="url(#clip140)" d="M102.2 626.71 Q98.5893 626.71 96.7606 630.275 Q94.955 633.817 94.955 640.946 Q94.955 648.053 96.7606 651.617 Q98.5893 655.159 102.2 655.159 Q105.835 655.159 107.64 651.617 Q109.469 648.053 109.469 640.946 Q109.469 633.817 107.64 630.275 Q105.835 626.71 102.2 626.71 M102.2 623.006 Q108.011 623.006 111.066 627.613 Q114.145 632.196 114.145 640.946 Q114.145 649.673 111.066 654.279 Q108.011 658.863 102.2 658.863 Q96.3902 658.863 93.3115 654.279 Q90.256 649.673 90.256 640.946 Q90.256 632.196 93.3115 627.613 Q96.3902 623.006 102.2 623.006 Z" fill="#000000" fill-rule="nonzero" fill-opacity="1" /><path clip-path="url(#clip140)" d="M122.362 652.312 L127.247 652.312 L127.247 658.191 L122.362 658.191 L122.362 652.312 Z" fill="#000000" fill-rule="nonzero" fill-opacity="1" /><path clip-path="url(#clip140)" d="M147.432 626.71 Q143.821 626.71 141.992 630.275 Q140.186 633.817 140.186 640.946 Q140.186 648.053 141.992 651.617 Q143.821 655.159 147.432 655.159 Q151.066 655.159 152.871 651.617 Q154.7 648.053 154.7 640.946 Q154.7 633.817 152.871 630.275 Q151.066 626.71 147.432 626.71 M147.432 623.006 Q153.242 623.006 156.297 627.613 Q159.376 632.196 159.376 640.946 Q159.376 649.673 156.297 654.279 Q153.242 658.863 147.432 658.863 Q141.621 658.863 138.543 654.279 Q135.487 649.673 135.487 640.946 Q135.487 632.196 138.543 627.613 Q141.621 623.006 147.432 623.006 Z" fill="#000000" fill-rule="nonzero" fill-opacity="1" /><path clip-path="url(#clip140)" d="M103.196 329.876 Q99.5847 329.876 97.756 333.441 Q95.9504 336.983 95.9504 344.112 Q95.9504 351.219 97.756 354.784 Q99.5847 358.325 103.196 358.325 Q106.83 358.325 108.636 354.784 Q110.464 351.219 110.464 344.112 Q110.464 336.983 108.636 333.441 Q106.83 329.876 103.196 329.876 M103.196 326.173 Q109.006 326.173 112.061 330.779 Q115.14 335.363 115.14 344.112 Q115.14 352.839 112.061 357.446 Q109.006 362.029 103.196 362.029 Q97.3856 362.029 94.3069 357.446 Q91.2514 352.839 91.2514 344.112 Q91.2514 335.363 94.3069 330.779 Q97.3856 326.173 103.196 326.173 Z" fill="#000000" fill-rule="nonzero" fill-opacity="1" /><path clip-path="url(#clip140)" d="M123.358 355.478 L128.242 355.478 L128.242 361.358 L123.358 361.358 L123.358 355.478 Z" fill="#000000" fill-rule="nonzero" fill-opacity="1" /><path clip-path="url(#clip140)" d="M138.473 326.798 L156.83 326.798 L156.83 330.733 L142.756 330.733 L142.756 339.205 Q143.774 338.858 144.793 338.696 Q145.811 338.511 146.83 338.511 Q152.617 338.511 155.996 341.682 Q159.376 344.853 159.376 350.27 Q159.376 355.849 155.904 358.95 Q152.432 362.029 146.112 362.029 Q143.936 362.029 141.668 361.659 Q139.422 361.288 137.015 360.548 L137.015 355.849 Q139.098 356.983 141.321 357.538 Q143.543 358.094 146.02 358.094 Q150.024 358.094 152.362 355.987 Q154.7 353.881 154.7 350.27 Q154.7 346.659 152.362 344.552 Q150.024 342.446 146.02 342.446 Q144.145 342.446 142.27 342.862 Q140.418 343.279 138.473 344.159 L138.473 326.798 Z" fill="#000000" fill-rule="nonzero" fill-opacity="1" /><path clip-path="url(#clip140)" d="M93.0106 60.5889 L100.649 60.5889 L100.649 34.2233 L92.3393 35.89 L92.3393 31.6308 L100.603 29.9641 L105.279 29.9641 L105.279 60.5889 L112.918 60.5889 L112.918 64.5241 L93.0106 64.5241 L93.0106 60.5889 Z" fill="#000000" fill-rule="nonzero" fill-opacity="1" /><path clip-path="url(#clip140)" d="M122.362 58.6445 L127.247 58.6445 L127.247 64.5241 L122.362 64.5241 L122.362 58.6445 Z" fill="#000000" fill-rule="nonzero" fill-opacity="1" /><path clip-path="url(#clip140)" d="M147.432 33.0428 Q143.821 33.0428 141.992 36.6076 Q140.186 40.1492 140.186 47.2788 Q140.186 54.3853 141.992 57.9501 Q143.821 61.4917 147.432 61.4917 Q151.066 61.4917 152.871 57.9501 Q154.7 54.3853 154.7 47.2788 Q154.7 40.1492 152.871 36.6076 Q151.066 33.0428 147.432 33.0428 M147.432 29.3391 Q153.242 29.3391 156.297 33.9456 Q159.376 38.5289 159.376 47.2788 Q159.376 56.0056 156.297 60.6121 Q153.242 65.1954 147.432 65.1954 Q141.621 65.1954 138.543 60.6121 Q135.487 56.0056 135.487 47.2788 Q135.487 38.5289 138.543 33.9456 Q141.621 29.3391 147.432 29.3391 Z" fill="#000000" fill-rule="nonzero" fill-opacity="1" /><polyline clip-path="url(#clip142)" style="stroke:#009af9; stroke-linecap:round; stroke-linejoin:round; stroke-width:4; stroke-opacity:1; fill:none" points="244.085,730.234 246.962,714.595 249.839,699.739 252.716,685.626 255.594,672.22 258.919,657.562 262.244,643.752 265.57,630.745 268.895,618.498 272.22,606.969 275.546,596.121 278.871,585.919 282.196,576.329 285.522,567.323 288.847,558.87 292.172,550.944 295.498,543.521 302.148,530.091 308.799,518.416 315.45,508.351 322.1,499.771 328.751,492.57 335.402,486.653 342.052,481.938 348.703,478.355 355.354,475.842 362.005,474.342 369.998,473.812 377.992,474.601 385.985,476.639 393.979,479.867 401.972,484.225 409.966,489.659 417.959,496.117 425.953,503.546 432.712,510.545 439.47,518.17 446.228,526.386 452.987,535.162 459.745,544.462 466.504,554.252 473.262,564.495 480.021,575.154 494.704,599.559 509.387,625.333 524.07,652.043 538.753,679.237 552.29,704.334 565.827,729.074 579.363,753.086 592.9,775.998 600.156,787.7 607.412,798.928 614.669,809.628 621.925,819.748 629.181,829.237 636.438,838.047 643.694,846.132 650.95,853.448 659.357,860.906 667.765,867.215 676.172,872.318 684.579,876.165 692.986,878.711 701.393,879.917 709.8,879.749 718.208,878.182 725.679,875.598 733.15,871.882 740.621,867.03 748.093,861.038 755.564,853.912 763.035,845.657 770.507,836.286 777.978,825.814 784.53,815.742 791.081,804.854 797.633,793.171 804.184,780.713 810.736,767.503 817.288,753.568 823.839,738.936 830.391,723.636 837.534,706.234 844.677,688.121 851.82,669.346 858.963,649.958 873.249,609.557 887.536,567.361 916.278,478.978 945.02,389.386 960.909,340.902 976.798,294.076 984.742,271.506 992.687,249.611 1000.63,228.474 1008.58,208.175 1016.13,189.711 1023.69,172.14 1031.25,155.522 1038.81,139.915 1046.37,125.373 1053.93,111.948 1061.49,99.6857 1069.05,88.6288 1076.91,78.4521 1084.77,69.6591 1092.63,62.2829 1100.49,56.3516 1108.35,51.8875 1116.21,48.9077 1124.06,47.4235 1131.92,47.4404 1138.54,48.6185 1145.16,50.8572 1151.77,54.1505 1158.39,58.4896 1165,63.8627 1171.62,70.2555 1178.24,77.6509 1184.85,86.0289 1192.93,97.5568 1201.01,110.47 1209.09,124.717 1217.16,140.24 1225.24,156.979 1233.32,174.867 1241.4,193.833 1249.47,213.802 1256.87,232.908 1264.27,252.727 1271.67,273.194 1279.07,294.241 1293.87,337.8 1308.67,382.838 1336.01,467.957 1363.34,552.454 1377.19,593.865 1391.03,633.755 1397.95,652.999 1404.88,671.709 1411.8,689.837 1418.72,707.339 1426.48,726.157 1434.24,744.076 1442,761.045 1449.76,777.016 1457.51,791.942 1465.27,805.786 1473.03,818.511 1480.79,830.087 1487.82,839.564 1494.85,848.061 1501.88,855.566 1508.91,862.07 1515.94,867.569 1522.97,872.059 1530,875.542 1537.03,878.024 1545.08,879.645 1553.13,879.981 1561.18,879.054 1569.23,876.892 1577.28,873.528 1585.33,869 1593.38,863.352 1601.43,856.631 1608.88,849.495 1616.33,841.528 1623.78,832.776 1631.24,823.288 1638.69,813.116 1646.14,802.314 1653.6,790.938 1661.05,779.045 1675.74,754.308 1690.44,728.254 1705.14,701.354 1719.83,674.088 1734.1,647.712 1748.37,621.862 1762.63,596.951 1776.9,573.375 1784.22,561.93 1791.53,550.983 1798.84,540.582 1806.16,530.77 1813.47,521.593 1820.78,513.092 1828.09,505.311 1835.41,498.288 1843.42,491.513 1851.43,485.75 1859.45,481.053 1867.46,477.475 1875.47,475.073 1883.48,473.909 1891.5,474.049 1899.51,475.567 1905.33,477.58 1911.15,480.4 1916.97,484.067 1922.79,488.625 1928.61,494.126 1934.43,500.626 1940.25,508.189 1946.07,516.887 1951.89,526.805 1957.71,538.033 1963.53,550.68 1969.34,564.864 1975.16,580.722 1980.98,598.407 1983.89,607.989 1986.8,618.094 1989.71,628.749 1992.62,639.98 1997.4,659.738 2002.18,681.263 2006.95,704.706 2011.73,730.234 "/>
<polyline clip-path="url(#clip142)" style="stroke:#e26f46; stroke-linecap:round; stroke-linejoin:round; stroke-width:4; stroke-opacity:1; fill:none" points="244.085,539.008 246.962,535.409 249.839,531.871 252.716,528.395 255.594,524.984 268.895,510.128 282.196,496.95 295.498,485.663 308.799,476.46 315.45,472.693 322.1,469.507 328.751,466.919 335.402,464.941 342.052,463.587 348.703,462.867 355.354,462.789 362.005,463.358 369.998,464.903 377.992,467.391 385.985,470.818 393.979,475.177 401.972,480.456 409.966,486.638 417.959,493.701 425.953,501.618 432.712,508.956 439.47,516.862 446.228,525.313 452.987,534.282 459.745,543.742 466.504,553.664 473.262,564.016 480.021,574.765 494.704,599.313 509.387,625.179 524.07,651.948 538.753,679.179 565.827,729.052 592.9,775.989 600.156,787.694 607.412,798.923 614.669,809.624 621.925,819.745 629.181,829.235 636.438,838.046 643.694,846.131 650.95,853.447 659.357,860.906 667.765,867.215 676.172,872.318 684.579,876.165 692.986,878.711 701.393,879.917 709.8,879.749 718.208,878.182 725.679,875.598 733.15,871.882 740.621,867.03 748.093,861.038 755.564,853.912 763.035,845.657 770.507,836.286 777.978,825.814 784.53,815.742 791.081,804.854 797.633,793.171 804.184,780.713 810.736,767.503 817.288,753.568 823.839,738.936 830.391,723.636 837.534,706.234 844.677,688.121 851.82,669.346 858.963,649.958 866.106,630.01 873.249,609.557 880.392,588.654 887.536,567.361 916.278,478.978 945.02,389.386 960.909,340.902 976.798,294.076 984.742,271.506 992.687,249.611 1000.63,228.474 1008.58,208.175 1016.13,189.711 1023.69,172.14 1031.25,155.522 1038.81,139.915 1046.37,125.373 1053.93,111.948 1061.49,99.6857 1069.05,88.6288 1076.91,78.4521 1084.77,69.6591 1092.63,62.2829 1100.49,56.3516 1108.35,51.8875 1116.21,48.9077 1124.06,47.4235 1131.92,47.4404 1138.54,48.6185 1145.16,50.8572 1151.77,54.1505 1158.39,58.4896 1165,63.8627 1171.62,70.2555 1178.24,77.6509 1184.85,86.0289 1192.93,97.5568 1201.01,110.47 1209.09,124.717 1217.16,140.24 1225.24,156.979 1233.32,174.867 1241.4,193.833 1249.47,213.802 1256.87,232.908 1264.27,252.727 1271.67,273.194 1279.07,294.241 1293.87,337.8 1308.67,382.838 1336.01,467.957 1363.34,552.454 1377.19,593.865 1391.03,633.755 1404.88,671.709 1418.72,707.339 1426.48,726.157 1434.24,744.076 1442,761.045 1449.76,777.016 1457.51,791.942 1465.27,805.786 1473.03,818.511 1480.79,830.087 1487.82,839.564 1494.85,848.061 1501.88,855.566 1508.91,862.07 1515.94,867.569 1522.97,872.059 1530,875.542 1537.03,878.024 1545.08,879.645 1553.13,879.981 1561.18,879.054 1569.23,876.891 1577.28,873.528 1585.33,869 1593.38,863.352 1601.43,856.63 1608.88,849.494 1616.33,841.527 1623.78,832.774 1631.24,823.285 1638.69,813.113 1646.14,802.31 1653.6,790.932 1661.05,779.037 1675.74,754.294 1690.44,728.23 1705.14,701.316 1719.83,674.024 1734.1,647.609 1748.37,621.698 1762.63,596.693 1776.9,572.972 1784.22,561.427 1791.53,550.355 1798.84,539.8 1806.16,529.799 1813.47,520.39 1820.78,511.606 1828.09,503.477 1835.41,496.032 1843.42,488.689 1851.43,482.223 1859.45,476.658 1867.46,472.013 1875.47,468.301 1883.48,465.531 1891.5,463.708 1899.51,462.83 1911.15,463.229 1922.79,465.577 1934.43,469.822 1946.07,475.889 1957.71,483.688 1969.34,493.11 1980.98,504.03 1992.62,516.31 1997.4,521.707 2002.18,527.296 2006.95,533.067 2011.73,539.008 "/>
<path clip-path="url(#clip140)" d="M1406.54 497.921 L2002.3 497.921 L2002.3 86.8219 L1406.54 86.8219  Z" fill="#ffffff" fill-rule="evenodd" fill-opacity="1"/>
<polyline clip-path="url(#clip140)" style="stroke:#000000; stroke-linecap:round; stroke-linejoin:round; stroke-width:4; stroke-opacity:1; fill:none" points="1406.54,497.921 2002.3,497.921 2002.3,86.8219 1406.54,86.8219 1406.54,497.921 "/>
<polyline clip-path="url(#clip140)" style="stroke:#009af9; stroke-linecap:round; stroke-linejoin:round; stroke-width:4; stroke-opacity:1; fill:none" points="1427.36,223.855 1552.27,223.855 "/>
<path clip-path="url(#clip140)" d="M1653.73 229.769 L1649.61 241.714 L1609.84 241.714 Q1609.3 241.714 1609.09 241.691 Q1608.88 241.668 1608.71 241.55 Q1608.55 241.433 1608.55 241.176 Q1608.55 240.965 1608.97 240.426 L1626 219.369 L1608.5 195.291 Q1608.5 194.19 1608.69 193.979 Q1608.88 193.745 1609.84 193.745 L1649.61 193.745 L1653.73 204.965 L1652.54 204.965 Q1652 203.512 1651.13 202.294 Q1650.29 201.053 1649.3 200.163 Q1648.34 199.273 1647.08 198.57 Q1645.84 197.844 1644.67 197.399 Q1643.52 196.931 1642.09 196.603 Q1640.66 196.251 1639.51 196.087 Q1638.39 195.9 1636.98 195.806 Q1635.58 195.713 1634.69 195.689 Q1633.8 195.666 1632.67 195.666 L1613.68 195.666 L1629.25 217.051 Q1629.6 217.589 1629.6 217.73 Q1629.6 217.941 1629.16 218.503 L1612.53 239.068 L1632.91 239.068 Q1639.47 239.068 1644.03 237.686 Q1647.12 236.632 1649.37 234.547 Q1651.65 232.463 1652.54 229.769 L1653.73 229.769 Z" fill="#000000" fill-rule="nonzero" fill-opacity="1" /><path clip-path="url(#clip140)" d="M1605.88 270.019 Q1605.88 270.15 1605.73 270.658 Q1605.58 271.167 1605.22 271.954 Q1604.88 272.741 1604.4 273.462 Q1603.93 274.167 1603.14 274.692 Q1602.37 275.2 1601.48 275.2 Q1600.3 275.2 1599.51 274.413 Q1598.73 273.626 1598.73 272.445 Q1598.73 271.79 1599.07 270.888 Q1601.25 265.067 1601.25 263.067 Q1601.25 260.722 1599.43 260.722 Q1598.53 260.722 1597.68 261.067 Q1596.84 261.395 1596.27 261.854 Q1595.69 262.313 1595.17 262.952 Q1594.66 263.575 1594.4 264.002 Q1594.15 264.412 1593.96 264.821 L1593.53 266.494 Q1593.43 266.953 1592.96 268.74 L1592.22 271.773 Q1591.69 274.036 1591.58 274.249 Q1591.42 274.708 1591.05 274.954 Q1590.69 275.2 1590.33 275.2 Q1589.92 275.2 1589.64 274.954 Q1589.37 274.708 1589.37 274.282 Q1589.37 274.216 1589.42 273.97 Q1589.46 273.724 1589.55 273.38 Q1589.63 273.036 1589.66 272.839 L1591.61 265.084 Q1591.97 263.674 1592.05 263.231 Q1592.15 262.772 1592.15 262.264 Q1592.15 260.722 1591.1 260.722 Q1590.25 260.722 1589.69 261.739 Q1589.14 262.756 1588.66 264.723 Q1588.51 265.264 1588.42 265.379 Q1588.33 265.494 1588.09 265.494 Q1587.68 265.477 1587.68 265.149 Q1587.68 265.067 1587.81 264.526 Q1587.94 263.985 1588.19 263.215 Q1588.45 262.428 1588.69 261.903 Q1588.91 261.509 1589.02 261.329 Q1589.15 261.132 1589.46 260.755 Q1589.79 260.362 1590.22 260.181 Q1590.66 259.985 1591.2 259.985 Q1592.42 259.985 1593.3 260.772 Q1594.19 261.542 1594.3 262.903 Q1596.48 259.985 1599.53 259.985 Q1601.33 259.985 1602.37 260.936 Q1603.4 261.887 1603.4 263.575 Q1603.4 263.969 1603.32 264.477 Q1603.25 264.969 1603.09 265.592 Q1602.94 266.215 1602.81 266.691 Q1602.68 267.166 1602.42 267.937 Q1602.15 268.691 1602.04 269.019 Q1601.93 269.347 1601.65 270.117 Q1601.38 270.871 1601.35 270.953 Q1600.74 272.478 1600.74 273.347 Q1600.74 273.921 1600.92 274.183 Q1601.12 274.446 1601.55 274.446 Q1602.7 274.446 1603.55 273.314 Q1604.42 272.167 1604.97 270.298 Q1605.11 269.888 1605.17 269.789 Q1605.25 269.691 1605.48 269.691 Q1605.88 269.691 1605.88 270.019 Z" fill="#000000" fill-rule="nonzero" fill-opacity="1" /><path clip-path="url(#clip140)" d="M1616.93 269.724 Q1616.97 269.314 1617.6 269.314 L1638.18 269.314 Q1639.15 269.314 1639.17 269.691 Q1639.17 270.101 1638.25 270.084 L1617.83 270.084 Q1616.93 270.101 1616.93 269.724 M1616.93 263.165 Q1616.93 262.756 1617.64 262.772 L1638.15 262.772 Q1639.15 262.772 1639.17 263.165 Q1639.17 263.543 1638.31 263.543 L1617.6 263.543 Q1616.93 263.543 1616.93 263.165 Z" fill="#000000" fill-rule="nonzero" fill-opacity="1" /><path clip-path="url(#clip140)" d="M1652.11 264.084 Q1652.11 259.149 1653.36 256.46 Q1655.1 252.459 1659.2 252.459 Q1660.07 252.459 1660.97 252.705 Q1661.89 252.935 1663.03 253.836 Q1664.2 254.738 1664.9 256.214 Q1666.25 259.067 1666.25 264.084 Q1666.25 268.986 1665 271.658 Q1663.18 275.561 1659.16 275.561 Q1657.66 275.561 1656.12 274.79 Q1654.59 274.019 1653.62 272.167 Q1652.11 269.396 1652.11 264.084 M1654.9 263.674 Q1654.9 268.74 1655.26 270.757 Q1655.67 272.937 1656.79 273.888 Q1657.92 274.823 1659.16 274.823 Q1660.51 274.823 1661.62 273.823 Q1662.76 272.806 1663.1 270.625 Q1663.48 268.478 1663.46 263.674 Q1663.46 259.001 1663.13 257.132 Q1662.69 254.951 1661.51 254.082 Q1660.35 253.197 1659.16 253.197 Q1658.72 253.197 1658.25 253.328 Q1657.79 253.459 1657.12 253.836 Q1656.44 254.213 1655.92 255.148 Q1655.41 256.083 1655.16 257.493 Q1654.9 259.312 1654.9 263.674 Z" fill="#000000" fill-rule="nonzero" fill-opacity="1" /><path clip-path="url(#clip140)" d="M1613.53 158.319 L1613.53 157.27 Q1617.57 157.27 1619.65 155.122 Q1620.22 155.122 1620.32 155.253 Q1620.42 155.384 1620.42 155.991 L1620.42 174.829 Q1620.42 175.83 1620.91 176.141 Q1621.4 176.453 1623.55 176.453 L1624.62 176.453 L1624.62 177.486 Q1623.44 177.387 1619.17 177.387 Q1614.91 177.387 1613.75 177.486 L1613.75 176.453 L1614.81 176.453 Q1616.93 176.453 1617.44 176.157 Q1617.95 175.846 1617.95 174.829 L1617.95 157.434 Q1616.19 158.319 1613.53 158.319 Z" fill="#000000" fill-rule="nonzero" fill-opacity="1" /><path clip-path="url(#clip140)" d="M1626.26 166.746 Q1626.26 161.811 1627.5 159.122 Q1629.24 155.122 1633.34 155.122 Q1634.21 155.122 1635.11 155.368 Q1636.03 155.597 1637.18 156.499 Q1638.34 157.401 1639.05 158.876 Q1640.39 161.729 1640.39 166.746 Q1640.39 171.649 1639.14 174.321 Q1637.32 178.223 1633.31 178.223 Q1631.8 178.223 1630.26 177.453 Q1628.73 176.682 1627.77 174.829 Q1626.26 172.059 1626.26 166.746 M1629.04 166.336 Q1629.04 171.403 1629.41 173.419 Q1629.82 175.6 1630.93 176.551 Q1632.06 177.486 1633.31 177.486 Q1634.65 177.486 1635.77 176.485 Q1636.9 175.469 1637.24 173.288 Q1637.62 171.14 1637.6 166.336 Q1637.6 161.664 1637.28 159.795 Q1636.83 157.614 1635.65 156.745 Q1634.49 155.86 1633.31 155.86 Q1632.86 155.86 1632.39 155.991 Q1631.93 156.122 1631.26 156.499 Q1630.59 156.876 1630.06 157.811 Q1629.55 158.745 1629.31 160.155 Q1629.04 161.975 1629.04 166.336 Z" fill="#000000" fill-rule="nonzero" fill-opacity="1" /><path clip-path="url(#clip140)" d="M1678.98 217.73 Q1678.98 209.626 1682 203.091 Q1683.29 200.35 1685.1 198.055 Q1686.9 195.76 1688.09 194.752 Q1689.29 193.745 1689.62 193.745 Q1690.08 193.745 1690.11 194.214 Q1690.11 194.448 1689.48 195.033 Q1681.75 202.903 1681.77 217.73 Q1681.77 232.603 1689.29 240.169 Q1690.11 240.988 1690.11 241.246 Q1690.11 241.714 1689.62 241.714 Q1689.29 241.714 1688.14 240.754 Q1686.99 239.794 1685.21 237.592 Q1683.43 235.39 1682.14 232.697 Q1678.98 226.162 1678.98 217.73 Z" fill="#000000" fill-rule="nonzero" fill-opacity="1" /><path clip-path="url(#clip140)" d="M1729.07 217.051 Q1729.35 217.332 1729.35 217.73 Q1729.35 218.128 1729.07 218.409 Q1728.79 218.69 1728.39 218.69 L1698.36 218.69 Q1697.96 218.69 1697.68 218.409 Q1697.4 218.128 1697.4 217.73 Q1697.4 217.332 1697.68 217.051 Q1697.96 216.77 1698.36 216.77 L1728.39 216.77 Q1728.79 216.77 1729.07 217.051 Z" fill="#000000" fill-rule="nonzero" fill-opacity="1" /><path clip-path="url(#clip140)" d="M1734.35 202.341 L1734.35 200.842 Q1740.11 200.842 1743.09 197.774 Q1743.91 197.774 1744.05 197.961 Q1744.19 198.149 1744.19 199.015 L1744.19 225.928 Q1744.19 227.356 1744.89 227.801 Q1745.59 228.247 1748.66 228.247 L1750.19 228.247 L1750.19 229.722 Q1748.5 229.582 1742.41 229.582 Q1736.32 229.582 1734.66 229.722 L1734.66 228.247 L1736.18 228.247 Q1739.2 228.247 1739.93 227.825 Q1740.65 227.38 1740.65 225.928 L1740.65 201.076 Q1738.15 202.341 1734.35 202.341 Z" fill="#000000" fill-rule="nonzero" fill-opacity="1" /><path clip-path="url(#clip140)" d="M1758.1 241.246 Q1758.1 241.012 1758.71 240.426 Q1766.44 232.556 1766.44 217.73 Q1766.44 202.857 1759.02 195.338 Q1758.1 194.471 1758.1 194.214 Q1758.1 193.745 1758.57 193.745 Q1758.9 193.745 1760.05 194.706 Q1761.22 195.666 1762.98 197.868 Q1764.76 200.069 1766.07 202.763 Q1769.23 209.298 1769.23 217.73 Q1769.23 225.834 1766.21 232.369 Q1764.92 235.109 1763.12 237.405 Q1761.31 239.7 1760.12 240.707 Q1758.92 241.714 1758.57 241.714 Q1758.1 241.714 1758.1 241.246 Z" fill="#000000" fill-rule="nonzero" fill-opacity="1" /><path clip-path="url(#clip140)" d="M1792.44 193.326 Q1792.44 193.457 1792.29 193.965 Q1792.14 194.473 1791.78 195.26 Q1791.44 196.047 1790.96 196.769 Q1790.49 197.474 1789.7 197.999 Q1788.93 198.507 1788.04 198.507 Q1786.86 198.507 1786.08 197.72 Q1785.29 196.933 1785.29 195.752 Q1785.29 195.096 1785.63 194.195 Q1787.81 188.374 1787.81 186.374 Q1787.81 184.029 1785.99 184.029 Q1785.09 184.029 1784.24 184.374 Q1783.4 184.702 1782.83 185.161 Q1782.26 185.62 1781.73 186.259 Q1781.22 186.882 1780.96 187.309 Q1780.71 187.718 1780.52 188.128 L1780.09 189.801 Q1779.99 190.26 1779.52 192.047 L1778.78 195.08 Q1778.26 197.343 1778.14 197.556 Q1777.98 198.015 1777.62 198.261 Q1777.26 198.507 1776.89 198.507 Q1776.48 198.507 1776.21 198.261 Q1775.93 198.015 1775.93 197.589 Q1775.93 197.523 1775.98 197.277 Q1776.03 197.031 1776.11 196.687 Q1776.19 196.343 1776.22 196.146 L1778.17 188.391 Q1778.53 186.981 1778.62 186.538 Q1778.71 186.079 1778.71 185.571 Q1778.71 184.029 1777.67 184.029 Q1776.81 184.029 1776.26 185.046 Q1775.7 186.062 1775.22 188.03 Q1775.07 188.571 1774.98 188.686 Q1774.89 188.801 1774.65 188.801 Q1774.24 188.784 1774.24 188.456 Q1774.24 188.374 1774.37 187.833 Q1774.5 187.292 1774.75 186.522 Q1775.01 185.735 1775.26 185.21 Q1775.47 184.816 1775.58 184.636 Q1775.71 184.439 1776.03 184.062 Q1776.35 183.669 1776.78 183.488 Q1777.22 183.292 1777.76 183.292 Q1778.98 183.292 1779.86 184.079 Q1780.75 184.849 1780.86 186.21 Q1783.04 183.292 1786.09 183.292 Q1787.9 183.292 1788.93 184.243 Q1789.96 185.193 1789.96 186.882 Q1789.96 187.276 1789.88 187.784 Q1789.81 188.276 1789.65 188.899 Q1789.5 189.522 1789.37 189.997 Q1789.24 190.473 1788.98 191.244 Q1788.72 191.998 1788.6 192.326 Q1788.49 192.654 1788.21 193.424 Q1787.95 194.178 1787.91 194.26 Q1787.31 195.785 1787.31 196.654 Q1787.31 197.228 1787.49 197.49 Q1787.68 197.753 1788.11 197.753 Q1789.26 197.753 1790.11 196.621 Q1790.98 195.474 1791.54 193.604 Q1791.67 193.195 1791.73 193.096 Q1791.81 192.998 1792.04 192.998 Q1792.44 192.998 1792.44 193.326 Z" fill="#000000" fill-rule="nonzero" fill-opacity="1" /><path clip-path="url(#clip140)" d="M1878.15 187.751 Q1878.15 189.062 1877.33 189.812 Q1876.51 190.538 1875.57 190.538 Q1874.68 190.538 1874.21 190.023 Q1873.74 189.507 1873.74 188.851 Q1873.74 187.961 1874.4 187.188 Q1875.06 186.416 1876.04 186.252 Q1875.08 185.643 1873.65 185.643 Q1872.71 185.643 1871.89 186.134 Q1871.1 186.626 1870.61 187.259 Q1870.14 187.891 1869.72 188.805 Q1869.32 189.695 1869.15 190.233 Q1869.01 190.749 1868.9 191.311 L1867.26 197.869 Q1866.46 200.984 1866.46 202.085 Q1866.46 203.444 1867.12 204.357 Q1867.77 205.247 1869.08 205.247 Q1869.6 205.247 1870.18 205.107 Q1870.77 204.943 1871.52 204.521 Q1872.29 204.076 1872.97 203.42 Q1873.67 202.741 1874.35 201.593 Q1875.03 200.446 1875.48 198.97 Q1875.62 198.455 1876.09 198.455 Q1876.67 198.455 1876.67 198.923 Q1876.67 199.321 1876.34 200.164 Q1876.04 200.984 1875.36 202.062 Q1874.7 203.116 1873.84 204.076 Q1872.97 205.013 1871.68 205.669 Q1870.39 206.325 1868.99 206.325 Q1866.98 206.325 1865.64 205.247 Q1864.3 204.17 1863.81 202.671 Q1863.7 202.881 1863.53 203.163 Q1863.37 203.444 1862.88 204.076 Q1862.41 204.685 1861.87 205.153 Q1861.33 205.598 1860.49 205.95 Q1859.67 206.325 1858.78 206.325 Q1857.65 206.325 1856.65 205.997 Q1855.66 205.669 1854.96 204.919 Q1854.26 204.17 1854.26 203.139 Q1854.26 201.991 1855.03 201.195 Q1855.83 200.375 1856.9 200.375 Q1857.58 200.375 1858.12 200.773 Q1858.68 201.172 1858.68 202.038 Q1858.68 202.999 1858.03 203.725 Q1857.37 204.451 1856.43 204.638 Q1857.4 205.247 1858.82 205.247 Q1860.37 205.247 1861.59 203.889 Q1862.81 202.53 1863.39 200.258 Q1864.84 194.801 1865.41 192.365 Q1865.97 189.905 1865.97 188.851 Q1865.97 187.868 1865.71 187.188 Q1865.45 186.509 1865.01 186.205 Q1864.59 185.877 1864.19 185.76 Q1863.81 185.643 1863.39 185.643 Q1862.69 185.643 1861.89 185.924 Q1861.12 186.205 1860.18 186.861 Q1859.27 187.493 1858.4 188.805 Q1857.54 190.116 1856.95 191.92 Q1856.83 192.458 1856.32 192.458 Q1855.76 192.435 1855.76 191.967 Q1855.76 191.568 1856.06 190.749 Q1856.39 189.905 1857.04 188.851 Q1857.72 187.797 1858.59 186.861 Q1859.48 185.9 1860.77 185.244 Q1862.08 184.589 1863.49 184.589 Q1864.12 184.589 1864.73 184.729 Q1865.36 184.846 1866.11 185.198 Q1866.88 185.549 1867.56 186.322 Q1868.24 187.095 1868.66 188.219 Q1868.94 187.68 1869.32 187.165 Q1869.72 186.65 1870.32 186.017 Q1870.96 185.361 1871.82 184.987 Q1872.71 184.589 1873.7 184.589 Q1874.66 184.589 1875.59 184.846 Q1876.53 185.08 1877.33 185.853 Q1878.15 186.603 1878.15 187.751 Z" fill="#000000" fill-rule="nonzero" fill-opacity="1" /><path clip-path="url(#clip140)" d="M1883.03 191.058 Q1883.03 190.452 1883.08 190.271 Q1883.14 190.091 1883.4 189.812 L1889.85 182.631 Q1893.37 178.663 1893.37 175.204 Q1893.37 172.958 1892.19 171.351 Q1891.03 169.744 1888.88 169.744 Q1887.4 169.744 1886.16 170.646 Q1884.91 171.547 1884.34 173.154 Q1884.44 173.121 1884.78 173.121 Q1885.62 173.121 1886.08 173.646 Q1886.55 174.171 1886.55 174.876 Q1886.55 175.778 1885.96 176.22 Q1885.39 176.647 1884.81 176.647 Q1884.58 176.647 1884.27 176.597 Q1883.98 176.548 1883.5 176.089 Q1883.03 175.614 1883.03 174.777 Q1883.03 172.433 1884.8 170.564 Q1886.58 168.695 1889.31 168.695 Q1892.39 168.695 1894.41 170.531 Q1896.44 172.351 1896.44 175.204 Q1896.44 176.204 1896.13 177.122 Q1895.83 178.024 1895.42 178.729 Q1895.03 179.434 1893.95 180.565 Q1892.86 181.696 1892 182.5 Q1891.13 183.303 1889.18 185.008 L1885.62 188.468 L1891.67 188.468 Q1894.62 188.468 1894.85 188.206 Q1895.18 187.73 1895.59 185.222 L1896.44 185.222 L1895.49 191.058 L1883.03 191.058 Z" fill="#000000" fill-rule="nonzero" fill-opacity="1" /><path clip-path="url(#clip140)" d="M1917.32 186.254 Q1917.32 186.386 1917.17 186.894 Q1917.02 187.402 1916.66 188.189 Q1916.32 188.976 1915.84 189.698 Q1915.36 190.403 1914.58 190.927 Q1913.81 191.435 1912.92 191.435 Q1911.74 191.435 1910.95 190.648 Q1910.17 189.861 1910.17 188.681 Q1910.17 188.025 1910.51 187.123 Q1912.69 181.303 1912.69 179.303 Q1912.69 176.958 1910.87 176.958 Q1909.97 176.958 1909.12 177.302 Q1908.28 177.63 1907.71 178.089 Q1907.13 178.548 1906.61 179.188 Q1906.1 179.811 1905.84 180.237 Q1905.59 180.647 1905.4 181.057 L1904.97 182.729 Q1904.87 183.188 1904.4 184.976 L1903.66 188.009 Q1903.13 190.271 1903.02 190.485 Q1902.85 190.944 1902.49 191.19 Q1902.13 191.435 1901.77 191.435 Q1901.36 191.435 1901.08 191.19 Q1900.8 190.944 1900.8 190.517 Q1900.8 190.452 1900.85 190.206 Q1900.9 189.96 1900.99 189.616 Q1901.07 189.271 1901.1 189.074 L1903.05 181.319 Q1903.41 179.909 1903.49 179.467 Q1903.59 179.008 1903.59 178.499 Q1903.59 176.958 1902.54 176.958 Q1901.69 176.958 1901.13 177.975 Q1900.58 178.991 1900.1 180.959 Q1899.95 181.5 1899.85 181.614 Q1899.77 181.729 1899.53 181.729 Q1899.12 181.713 1899.12 181.385 Q1899.12 181.303 1899.25 180.762 Q1899.38 180.221 1899.62 179.45 Q1899.89 178.663 1900.13 178.139 Q1900.35 177.745 1900.46 177.565 Q1900.59 177.368 1900.9 176.991 Q1901.23 176.597 1901.66 176.417 Q1902.1 176.22 1902.64 176.22 Q1903.85 176.22 1904.74 177.007 Q1905.63 177.778 1905.74 179.139 Q1907.92 176.22 1910.97 176.22 Q1912.77 176.22 1913.81 177.171 Q1914.84 178.122 1914.84 179.811 Q1914.84 180.204 1914.76 180.713 Q1914.69 181.205 1914.53 181.828 Q1914.38 182.451 1914.25 182.926 Q1914.12 183.402 1913.86 184.172 Q1913.59 184.926 1913.48 185.254 Q1913.36 185.582 1913.09 186.353 Q1912.82 187.107 1912.79 187.189 Q1912.18 188.714 1912.18 189.583 Q1912.18 190.157 1912.36 190.419 Q1912.56 190.681 1912.99 190.681 Q1914.13 190.681 1914.99 189.55 Q1915.86 188.402 1916.41 186.533 Q1916.54 186.123 1916.61 186.025 Q1916.69 185.927 1916.92 185.927 Q1917.32 185.927 1917.32 186.254 Z" fill="#000000" fill-rule="nonzero" fill-opacity="1" /><path clip-path="url(#clip140)" d="M1807.62 219.122 L1976.36 219.122 L1976.36 216.562 L1807.62 216.562  Z" fill="#000000" fill-rule="evenodd" fill-opacity="1"/>
<path clip-path="url(#clip140)" d="M1807.62 280.491 Q1807.62 279.625 1807.69 279.367 Q1807.78 279.109 1808.16 278.711 L1817.36 268.452 Q1822.4 262.784 1822.4 257.842 Q1822.4 254.633 1820.71 252.338 Q1819.05 250.042 1815.98 250.042 Q1813.87 250.042 1812.09 251.33 Q1810.31 252.619 1809.49 254.914 Q1809.63 254.867 1810.12 254.867 Q1811.32 254.867 1811.97 255.617 Q1812.65 256.366 1812.65 257.373 Q1812.65 258.662 1811.81 259.294 Q1810.99 259.903 1810.17 259.903 Q1809.84 259.903 1809.4 259.833 Q1808.98 259.762 1808.3 259.107 Q1807.62 258.427 1807.62 257.233 Q1807.62 253.883 1810.15 251.213 Q1812.7 248.543 1816.59 248.543 Q1820.99 248.543 1823.87 251.166 Q1826.78 253.766 1826.78 257.842 Q1826.78 259.271 1826.33 260.582 Q1825.91 261.871 1825.32 262.878 Q1824.76 263.885 1823.22 265.501 Q1821.67 267.117 1820.43 268.265 Q1819.19 269.413 1816.4 271.848 L1811.32 276.791 L1819.96 276.791 Q1824.18 276.791 1824.5 276.416 Q1824.97 275.737 1825.56 272.153 L1826.78 272.153 L1825.42 280.491 L1807.62 280.491 Z" fill="#000000" fill-rule="nonzero" fill-opacity="1" /><path clip-path="url(#clip140)" d="M1831.7 255.121 Q1831.7 254.515 1831.75 254.334 Q1831.81 254.154 1832.07 253.875 L1838.52 246.694 Q1842.04 242.726 1842.04 239.267 Q1842.04 237.02 1840.86 235.414 Q1839.7 233.807 1837.55 233.807 Q1836.08 233.807 1834.83 234.709 Q1833.58 235.61 1833.01 237.217 Q1833.11 237.184 1833.45 237.184 Q1834.29 237.184 1834.75 237.709 Q1835.22 238.234 1835.22 238.939 Q1835.22 239.841 1834.63 240.283 Q1834.06 240.71 1833.49 240.71 Q1833.26 240.71 1832.94 240.66 Q1832.65 240.611 1832.17 240.152 Q1831.7 239.677 1831.7 238.84 Q1831.7 236.496 1833.47 234.627 Q1835.26 232.758 1837.98 232.758 Q1841.06 232.758 1843.08 234.594 Q1845.11 236.414 1845.11 239.267 Q1845.11 240.267 1844.8 241.185 Q1844.5 242.087 1844.09 242.792 Q1843.7 243.497 1842.62 244.628 Q1841.54 245.759 1840.67 246.563 Q1839.8 247.366 1837.85 249.071 L1834.29 252.531 L1840.34 252.531 Q1843.29 252.531 1843.52 252.269 Q1843.85 251.793 1844.26 249.284 L1845.11 249.284 L1844.16 255.121 L1831.7 255.121 Z" fill="#000000" fill-rule="nonzero" fill-opacity="1" /><path clip-path="url(#clip140)" d="M1865.99 250.317 Q1865.99 250.449 1865.84 250.957 Q1865.69 251.465 1865.33 252.252 Q1864.99 253.039 1864.51 253.761 Q1864.04 254.466 1863.25 254.99 Q1862.48 255.498 1861.59 255.498 Q1860.41 255.498 1859.63 254.711 Q1858.84 253.924 1858.84 252.744 Q1858.84 252.088 1859.18 251.186 Q1861.36 245.366 1861.36 243.366 Q1861.36 241.021 1859.54 241.021 Q1858.64 241.021 1857.79 241.365 Q1856.95 241.693 1856.38 242.152 Q1855.8 242.611 1855.28 243.251 Q1854.77 243.874 1854.51 244.3 Q1854.26 244.71 1854.07 245.12 L1853.64 246.792 Q1853.54 247.251 1853.07 249.039 L1852.33 252.072 Q1851.8 254.334 1851.69 254.548 Q1851.53 255.007 1851.16 255.253 Q1850.8 255.498 1850.44 255.498 Q1850.03 255.498 1849.75 255.253 Q1849.48 255.007 1849.48 254.58 Q1849.48 254.515 1849.53 254.269 Q1849.57 254.023 1849.66 253.679 Q1849.74 253.334 1849.77 253.137 L1851.72 245.382 Q1852.08 243.972 1852.17 243.53 Q1852.26 243.071 1852.26 242.562 Q1852.26 241.021 1851.21 241.021 Q1850.36 241.021 1849.8 242.038 Q1849.25 243.054 1848.77 245.022 Q1848.62 245.563 1848.53 245.677 Q1848.44 245.792 1848.2 245.792 Q1847.79 245.776 1847.79 245.448 Q1847.79 245.366 1847.92 244.825 Q1848.05 244.284 1848.3 243.513 Q1848.56 242.726 1848.8 242.202 Q1849.02 241.808 1849.13 241.628 Q1849.26 241.431 1849.57 241.054 Q1849.9 240.66 1850.33 240.48 Q1850.77 240.283 1851.31 240.283 Q1852.53 240.283 1853.41 241.07 Q1854.3 241.841 1854.41 243.202 Q1856.59 240.283 1859.64 240.283 Q1861.45 240.283 1862.48 241.234 Q1863.51 242.185 1863.51 243.874 Q1863.51 244.267 1863.43 244.776 Q1863.36 245.268 1863.2 245.891 Q1863.05 246.514 1862.92 246.989 Q1862.79 247.465 1862.53 248.235 Q1862.26 248.989 1862.15 249.317 Q1862.04 249.645 1861.76 250.416 Q1861.49 251.17 1861.46 251.252 Q1860.85 252.777 1860.85 253.646 Q1860.85 254.22 1861.04 254.482 Q1861.23 254.744 1861.66 254.744 Q1862.81 254.744 1863.66 253.613 Q1864.53 252.465 1865.08 250.596 Q1865.22 250.186 1865.28 250.088 Q1865.36 249.99 1865.59 249.99 Q1865.99 249.99 1865.99 250.317 Z" fill="#000000" fill-rule="nonzero" fill-opacity="1" /><path clip-path="url(#clip140)" d="M1872.85 268.499 Q1872.85 260.395 1875.87 253.86 Q1877.16 251.12 1878.96 248.824 Q1880.76 246.529 1881.96 245.522 Q1883.15 244.514 1883.48 244.514 Q1883.95 244.514 1883.97 244.983 Q1883.97 245.217 1883.34 245.803 Q1875.61 253.673 1875.63 268.499 Q1875.63 283.372 1883.15 290.938 Q1883.97 291.758 1883.97 292.015 Q1883.97 292.484 1883.48 292.484 Q1883.15 292.484 1882.01 291.523 Q1880.86 290.563 1879.08 288.361 Q1877.3 286.16 1876.01 283.466 Q1872.85 276.931 1872.85 268.499 Z" fill="#000000" fill-rule="nonzero" fill-opacity="1" /><path clip-path="url(#clip140)" d="M1913.42 273.629 Q1913.42 273.816 1913.21 274.542 Q1913 275.268 1912.49 276.392 Q1912 277.517 1911.32 278.547 Q1910.64 279.554 1909.51 280.304 Q1908.41 281.03 1907.15 281.03 Q1905.46 281.03 1904.34 279.906 Q1903.21 278.782 1903.21 277.095 Q1903.21 276.158 1903.7 274.87 Q1906.82 266.555 1906.82 263.697 Q1906.82 260.348 1904.22 260.348 Q1902.93 260.348 1901.71 260.84 Q1900.52 261.308 1899.7 261.964 Q1898.88 262.62 1898.13 263.534 Q1897.4 264.424 1897.03 265.033 Q1896.68 265.618 1896.4 266.204 L1895.79 268.593 Q1895.65 269.249 1894.97 271.802 L1893.91 276.135 Q1893.16 279.367 1893 279.672 Q1892.77 280.327 1892.25 280.679 Q1891.73 281.03 1891.22 281.03 Q1890.63 281.03 1890.24 280.679 Q1889.84 280.327 1889.84 279.718 Q1889.84 279.625 1889.91 279.273 Q1889.98 278.922 1890.1 278.43 Q1890.21 277.938 1890.26 277.657 L1893.05 266.578 Q1893.56 264.564 1893.68 263.932 Q1893.82 263.276 1893.82 262.55 Q1893.82 260.348 1892.32 260.348 Q1891.1 260.348 1890.31 261.8 Q1889.51 263.252 1888.83 266.063 Q1888.62 266.836 1888.48 267 Q1888.36 267.164 1888.01 267.164 Q1887.43 267.141 1887.43 266.672 Q1887.43 266.555 1887.61 265.782 Q1887.8 265.009 1888.15 263.908 Q1888.53 262.784 1888.88 262.034 Q1889.18 261.472 1889.35 261.215 Q1889.53 260.934 1889.98 260.395 Q1890.45 259.833 1891.06 259.575 Q1891.69 259.294 1892.46 259.294 Q1894.19 259.294 1895.46 260.418 Q1896.72 261.519 1896.89 263.463 Q1900 259.294 1904.36 259.294 Q1906.94 259.294 1908.41 260.653 Q1909.89 262.011 1909.89 264.424 Q1909.89 264.986 1909.77 265.712 Q1909.68 266.414 1909.44 267.305 Q1909.23 268.195 1909.04 268.874 Q1908.86 269.553 1908.48 270.654 Q1908.11 271.731 1907.94 272.2 Q1907.78 272.668 1907.38 273.769 Q1907.01 274.847 1906.96 274.964 Q1906.09 277.142 1906.09 278.383 Q1906.09 279.203 1906.35 279.578 Q1906.63 279.953 1907.24 279.953 Q1908.88 279.953 1910.1 278.336 Q1911.34 276.697 1912.14 274.027 Q1912.32 273.441 1912.42 273.301 Q1912.53 273.16 1912.86 273.16 Q1913.42 273.16 1913.42 273.629 Z" fill="#000000" fill-rule="nonzero" fill-opacity="1" /><path clip-path="url(#clip140)" d="M1915.91 277.938 Q1915.91 276.837 1916.68 276.135 Q1917.46 275.409 1918.46 275.409 Q1919.47 275.409 1920.2 276.135 Q1920.95 276.837 1920.95 277.938 Q1920.95 278.992 1920.17 279.718 Q1919.42 280.445 1918.46 280.445 Q1917.36 280.445 1916.64 279.695 Q1915.91 278.945 1915.91 277.938 M1915.91 248.637 Q1915.91 247.489 1916.68 246.833 Q1917.46 246.154 1918.46 246.154 Q1919.47 246.154 1920.22 246.833 Q1920.99 247.489 1920.99 248.637 Q1920.99 248.731 1920.97 248.918 Q1920.95 249.082 1920.95 249.176 L1919.12 270.373 Q1919.03 271.474 1918.42 271.474 Q1917.88 271.474 1917.78 270.185 L1915.96 249.316 Q1915.96 249.222 1915.93 248.988 Q1915.91 248.731 1915.91 248.637 Z" fill="#000000" fill-rule="nonzero" fill-opacity="1" /><path clip-path="url(#clip140)" d="M1936.71 292.015 Q1936.71 291.781 1937.32 291.195 Q1945.05 283.325 1945.05 268.499 Q1945.05 253.626 1937.63 246.107 Q1936.71 245.241 1936.71 244.983 Q1936.71 244.514 1937.18 244.514 Q1937.51 244.514 1938.66 245.475 Q1939.83 246.435 1941.59 248.637 Q1943.37 250.839 1944.68 253.532 Q1947.84 260.067 1947.84 268.499 Q1947.84 276.603 1944.82 283.138 Q1943.53 285.879 1941.73 288.174 Q1939.92 290.469 1938.73 291.476 Q1937.53 292.484 1937.18 292.484 Q1936.71 292.484 1936.71 292.015 Z" fill="#000000" fill-rule="nonzero" fill-opacity="1" /><path clip-path="url(#clip140)" d="M1952.85 251.509 Q1952.85 250.903 1952.9 250.722 Q1952.96 250.542 1953.22 250.263 L1959.67 243.082 Q1963.19 239.114 1963.19 235.655 Q1963.19 233.408 1962.01 231.802 Q1960.85 230.195 1958.7 230.195 Q1957.23 230.195 1955.98 231.097 Q1954.73 231.998 1954.16 233.605 Q1954.26 233.572 1954.6 233.572 Q1955.44 233.572 1955.9 234.097 Q1956.37 234.622 1956.37 235.327 Q1956.37 236.228 1955.78 236.671 Q1955.21 237.097 1954.63 237.097 Q1954.41 237.097 1954.09 237.048 Q1953.8 236.999 1953.32 236.54 Q1952.85 236.064 1952.85 235.228 Q1952.85 232.884 1954.62 231.015 Q1956.41 229.145 1959.13 229.145 Q1962.21 229.145 1964.23 230.982 Q1966.26 232.802 1966.26 235.655 Q1966.26 236.655 1965.95 237.573 Q1965.65 238.475 1965.24 239.18 Q1964.85 239.885 1963.77 241.016 Q1962.68 242.147 1961.82 242.951 Q1960.95 243.754 1959 245.459 L1955.44 248.919 L1961.49 248.919 Q1964.44 248.919 1964.67 248.656 Q1965 248.181 1965.41 245.672 L1966.26 245.672 L1965.31 251.509 L1952.85 251.509 Z" fill="#000000" fill-rule="nonzero" fill-opacity="1" /><polyline clip-path="url(#clip140)" style="stroke:#e26f46; stroke-linecap:round; stroke-linejoin:round; stroke-width:4; stroke-opacity:1; fill:none" points="1427.36,360.888 1552.27,360.888 "/>
<path clip-path="url(#clip140)" d="M1600.05 338.986 Q1600.05 339.431 1599.86 339.642 Q1599.67 339.829 1599.46 339.876 Q1599.25 339.9 1598.76 339.9 Q1597.75 339.9 1597.21 339.97 Q1596.68 340.04 1596.35 340.345 Q1596.02 340.626 1595.9 340.907 Q1595.81 341.188 1595.64 341.914 L1590.02 364.306 Q1589.16 367.749 1586.02 369.997 Q1582.88 372.223 1579.44 372.223 Q1576.63 372.223 1574.85 370.747 Q1573.09 369.248 1573.09 366.999 Q1573.09 365.852 1573.46 365.032 Q1573.84 364.212 1574.4 363.837 Q1574.96 363.463 1575.43 363.322 Q1575.92 363.158 1576.32 363.158 Q1577.09 363.158 1577.75 363.65 Q1578.43 364.142 1578.43 365.172 Q1578.43 366.32 1577.54 367.28 Q1576.65 368.241 1575.31 368.241 Q1574.87 368.241 1574.73 368.194 Q1575.08 369.342 1575.99 370.068 Q1576.91 370.77 1577.7 370.981 Q1578.52 371.169 1579.3 371.169 Q1581.31 371.169 1583.35 369.225 Q1585.39 367.28 1586.21 363.978 L1591.71 341.961 Q1591.9 341.211 1591.9 340.954 Q1591.9 340.462 1591.59 340.298 Q1591.31 340.11 1590.42 339.993 Q1589.23 339.9 1587.63 339.9 Q1587.07 339.9 1586.84 339.9 Q1586.6 339.876 1586.37 339.829 Q1586.14 339.782 1586.06 339.689 Q1585.99 339.572 1585.99 339.361 Q1585.99 338.916 1586.18 338.705 Q1586.37 338.471 1586.53 338.447 Q1586.7 338.401 1587 338.401 L1594.05 338.541 Q1594.66 338.541 1596.72 338.471 Q1598.78 338.401 1599.39 338.401 Q1600.05 338.401 1600.05 338.986 Z" fill="#000000" fill-rule="nonzero" fill-opacity="1" /><path clip-path="url(#clip140)" d="M1604.9 374.763 Q1604.9 369.828 1606.14 367.139 Q1607.88 363.138 1611.98 363.138 Q1612.85 363.138 1613.75 363.384 Q1614.67 363.614 1615.82 364.515 Q1616.98 365.417 1617.69 366.893 Q1619.03 369.746 1619.03 374.763 Q1619.03 379.665 1617.78 382.337 Q1615.96 386.24 1611.95 386.24 Q1610.44 386.24 1608.9 385.469 Q1607.37 384.698 1606.41 382.846 Q1604.9 380.075 1604.9 374.763 M1607.68 374.353 Q1607.68 379.419 1608.05 381.436 Q1608.46 383.616 1609.57 384.567 Q1610.7 385.502 1611.95 385.502 Q1613.29 385.502 1614.41 384.502 Q1615.54 383.485 1615.88 381.305 Q1616.26 379.157 1616.24 374.353 Q1616.24 369.68 1615.92 367.811 Q1615.47 365.63 1614.29 364.761 Q1613.13 363.876 1611.95 363.876 Q1611.51 363.876 1611.03 364.007 Q1610.57 364.138 1609.9 364.515 Q1609.23 364.892 1608.7 365.827 Q1608.19 366.762 1607.95 368.172 Q1607.68 369.991 1607.68 374.353 Z" fill="#000000" fill-rule="nonzero" fill-opacity="1" /><path clip-path="url(#clip140)" d="M1624.01 359.176 Q1624.01 351.072 1627.03 344.537 Q1628.32 341.797 1630.13 339.501 Q1631.93 337.206 1633.12 336.199 Q1634.32 335.192 1634.65 335.192 Q1635.11 335.192 1635.14 335.66 Q1635.14 335.894 1634.51 336.48 Q1626.78 344.35 1626.8 359.176 Q1626.8 374.05 1634.32 381.615 Q1635.14 382.435 1635.14 382.692 Q1635.14 383.161 1634.65 383.161 Q1634.32 383.161 1633.17 382.201 Q1632.02 381.24 1630.24 379.039 Q1628.46 376.837 1627.17 374.143 Q1624.01 367.608 1624.01 359.176 Z" fill="#000000" fill-rule="nonzero" fill-opacity="1" /><path clip-path="url(#clip140)" d="M1662.67 353.133 Q1662.67 354.445 1661.85 355.194 Q1661.03 355.921 1660.1 355.921 Q1659.21 355.921 1658.74 355.405 Q1658.27 354.89 1658.27 354.234 Q1658.27 353.344 1658.93 352.571 Q1659.58 351.798 1660.57 351.634 Q1659.6 351.025 1658.18 351.025 Q1657.24 351.025 1656.42 351.517 Q1655.62 352.009 1655.13 352.641 Q1654.66 353.274 1654.24 354.187 Q1653.84 355.077 1653.68 355.616 Q1653.54 356.131 1653.42 356.693 L1651.78 363.252 Q1650.99 366.367 1650.99 367.468 Q1650.99 368.826 1651.64 369.74 Q1652.3 370.63 1653.61 370.63 Q1654.12 370.63 1654.71 370.489 Q1655.3 370.325 1656.04 369.904 Q1656.82 369.459 1657.5 368.803 Q1658.2 368.124 1658.88 366.976 Q1659.56 365.828 1660 364.353 Q1660.14 363.837 1660.61 363.837 Q1661.2 363.837 1661.2 364.306 Q1661.2 364.704 1660.87 365.547 Q1660.57 366.367 1659.89 367.444 Q1659.23 368.498 1658.36 369.459 Q1657.5 370.396 1656.21 371.051 Q1654.92 371.707 1653.51 371.707 Q1651.5 371.707 1650.17 370.63 Q1648.83 369.552 1648.34 368.053 Q1648.22 368.264 1648.06 368.545 Q1647.89 368.826 1647.4 369.459 Q1646.93 370.068 1646.39 370.536 Q1645.86 370.981 1645.01 371.333 Q1644.19 371.707 1643.3 371.707 Q1642.18 371.707 1641.17 371.379 Q1640.19 371.051 1639.48 370.302 Q1638.78 369.552 1638.78 368.522 Q1638.78 367.374 1639.56 366.578 Q1640.35 365.758 1641.43 365.758 Q1642.11 365.758 1642.65 366.156 Q1643.21 366.554 1643.21 367.421 Q1643.21 368.381 1642.55 369.107 Q1641.9 369.833 1640.96 370.021 Q1641.92 370.63 1643.35 370.63 Q1644.9 370.63 1646.11 369.271 Q1647.33 367.913 1647.92 365.641 Q1649.37 360.183 1649.93 357.748 Q1650.49 355.288 1650.49 354.234 Q1650.49 353.25 1650.24 352.571 Q1649.98 351.892 1649.53 351.587 Q1649.11 351.259 1648.71 351.142 Q1648.34 351.025 1647.92 351.025 Q1647.21 351.025 1646.42 351.306 Q1645.65 351.587 1644.71 352.243 Q1643.79 352.876 1642.93 354.187 Q1642.06 355.499 1641.48 357.302 Q1641.36 357.841 1640.84 357.841 Q1640.28 357.818 1640.28 357.349 Q1640.28 356.951 1640.59 356.131 Q1640.91 355.288 1641.57 354.234 Q1642.25 353.18 1643.12 352.243 Q1644.01 351.283 1645.29 350.627 Q1646.61 349.971 1648.01 349.971 Q1648.64 349.971 1649.25 350.112 Q1649.88 350.229 1650.63 350.58 Q1651.41 350.932 1652.09 351.705 Q1652.77 352.477 1653.19 353.602 Q1653.47 353.063 1653.84 352.548 Q1654.24 352.032 1654.85 351.4 Q1655.48 350.744 1656.35 350.369 Q1657.24 349.971 1658.22 349.971 Q1659.18 349.971 1660.12 350.229 Q1661.06 350.463 1661.85 351.236 Q1662.67 351.986 1662.67 353.133 Z" fill="#000000" fill-rule="nonzero" fill-opacity="1" /><path clip-path="url(#clip140)" d="M1667.29 382.692 Q1667.29 382.458 1667.9 381.873 Q1675.63 374.003 1675.63 359.176 Q1675.63 344.303 1668.2 336.784 Q1667.29 335.918 1667.29 335.66 Q1667.29 335.192 1667.76 335.192 Q1668.09 335.192 1669.23 336.152 Q1670.4 337.112 1672.16 339.314 Q1673.94 341.516 1675.25 344.209 Q1678.41 350.744 1678.41 359.176 Q1678.41 367.28 1675.39 373.815 Q1674.11 376.556 1672.3 378.851 Q1670.5 381.147 1669.3 382.154 Q1668.11 383.161 1667.76 383.161 Q1667.29 383.161 1667.29 382.692 Z" fill="#000000" fill-rule="nonzero" fill-opacity="1" /></svg>
