<?xml version="1.0" encoding="utf-8"?>
<svg xmlns="http://www.w3.org/2000/svg" xmlns:xlink="http://www.w3.org/1999/xlink" width="672" height="480" viewBox="0 0 2688 1920">
<defs>
  <clipPath id="clip200">
    <rect x="0" y="0" width="2688" height="1920"/>
  </clipPath>
</defs>
<path clip-path="url(#clip200)" d="
M0 1920 L2688 1920 L2688 0 L0 0  Z
  " fill="#ffffff" fill-rule="evenodd" fill-opacity="1"/>
<defs>
  <clipPath id="clip201">
    <rect x="537" y="0" width="1883" height="1883"/>
  </clipPath>
</defs>
<path clip-path="url(#clip200)" d="
M115.057 1800.78 L2640.76 1800.78 L2640.76 47.2441 L115.057 47.2441  Z
  " fill="#ffffff" fill-rule="evenodd" fill-opacity="1"/>
<defs>
  <clipPath id="clip202">
    <rect x="115" y="47" width="2527" height="1755"/>
  </clipPath>
</defs>
<polyline clip-path="url(#clip202)" style="stroke:#000000; stroke-linecap:butt; stroke-linejoin:round; stroke-width:2; stroke-opacity:0.1; fill:none" points="
  186.539,1800.78 186.539,47.2441 
  "/>
<polyline clip-path="url(#clip202)" style="stroke:#000000; stroke-linecap:butt; stroke-linejoin:round; stroke-width:2; stroke-opacity:0.1; fill:none" points="
  782.223,1800.78 782.223,47.2441 
  "/>
<polyline clip-path="url(#clip202)" style="stroke:#000000; stroke-linecap:butt; stroke-linejoin:round; stroke-width:2; stroke-opacity:0.1; fill:none" points="
  1377.91,1800.78 1377.91,47.2441 
  "/>
<polyline clip-path="url(#clip202)" style="stroke:#000000; stroke-linecap:butt; stroke-linejoin:round; stroke-width:2; stroke-opacity:0.1; fill:none" points="
  1973.59,1800.78 1973.59,47.2441 
  "/>
<polyline clip-path="url(#clip202)" style="stroke:#000000; stroke-linecap:butt; stroke-linejoin:round; stroke-width:2; stroke-opacity:0.1; fill:none" points="
  2569.27,1800.78 2569.27,47.2441 
  "/>
<polyline clip-path="url(#clip200)" style="stroke:#000000; stroke-linecap:butt; stroke-linejoin:round; stroke-width:4; stroke-opacity:1; fill:none" points="
  115.057,1800.78 2640.76,1800.78 
  "/>
<polyline clip-path="url(#clip200)" style="stroke:#000000; stroke-linecap:butt; stroke-linejoin:round; stroke-width:4; stroke-opacity:1; fill:none" points="
  186.539,1800.78 186.539,1781.88 
  "/>
<polyline clip-path="url(#clip200)" style="stroke:#000000; stroke-linecap:butt; stroke-linejoin:round; stroke-width:4; stroke-opacity:1; fill:none" points="
  782.223,1800.78 782.223,1781.88 
  "/>
<polyline clip-path="url(#clip200)" style="stroke:#000000; stroke-linecap:butt; stroke-linejoin:round; stroke-width:4; stroke-opacity:1; fill:none" points="
  1377.91,1800.78 1377.91,1781.88 
  "/>
<polyline clip-path="url(#clip200)" style="stroke:#000000; stroke-linecap:butt; stroke-linejoin:round; stroke-width:4; stroke-opacity:1; fill:none" points="
  1973.59,1800.78 1973.59,1781.88 
  "/>
<polyline clip-path="url(#clip200)" style="stroke:#000000; stroke-linecap:butt; stroke-linejoin:round; stroke-width:4; stroke-opacity:1; fill:none" points="
  2569.27,1800.78 2569.27,1781.88 
  "/>
<path clip-path="url(#clip200)" d="M164.421 1834 Q160.81 1834 158.981 1837.57 Q157.176 1841.11 157.176 1848.24 Q157.176 1855.34 158.981 1858.91 Q160.81 1862.45 164.421 1862.45 Q168.056 1862.45 169.861 1858.91 Q171.69 1855.34 171.69 1848.24 Q171.69 1841.11 169.861 1837.57 Q168.056 1834 164.421 1834 M164.421 1830.3 Q170.231 1830.3 173.287 1834.9 Q176.366 1839.49 176.366 1848.24 Q176.366 1856.96 173.287 1861.57 Q170.231 1866.15 164.421 1866.15 Q158.611 1866.15 155.532 1861.57 Q152.477 1856.96 152.477 1848.24 Q152.477 1839.49 155.532 1834.9 Q158.611 1830.3 164.421 1830.3 Z" fill="#000000" fill-rule="evenodd" fill-opacity="1" /><path clip-path="url(#clip200)" d="M184.583 1859.6 L189.467 1859.6 L189.467 1865.48 L184.583 1865.48 L184.583 1859.6 Z" fill="#000000" fill-rule="evenodd" fill-opacity="1" /><path clip-path="url(#clip200)" d="M199.699 1830.92 L218.055 1830.92 L218.055 1834.86 L203.981 1834.86 L203.981 1843.33 Q205 1842.98 206.018 1842.82 Q207.037 1842.64 208.055 1842.64 Q213.842 1842.64 217.222 1845.81 Q220.602 1848.98 220.602 1854.4 Q220.602 1859.97 217.129 1863.08 Q213.657 1866.15 207.338 1866.15 Q205.162 1866.15 202.893 1865.78 Q200.648 1865.41 198.241 1864.67 L198.241 1859.97 Q200.324 1861.11 202.546 1861.66 Q204.768 1862.22 207.245 1862.22 Q211.25 1862.22 213.588 1860.11 Q215.926 1858.01 215.926 1854.4 Q215.926 1850.78 213.588 1848.68 Q211.25 1846.57 207.245 1846.57 Q205.37 1846.57 203.495 1846.99 Q201.643 1847.4 199.699 1848.28 L199.699 1830.92 Z" fill="#000000" fill-rule="evenodd" fill-opacity="1" /><path clip-path="url(#clip200)" d="M749.376 1861.55 L757.015 1861.55 L757.015 1835.18 L748.705 1836.85 L748.705 1832.59 L756.968 1830.92 L761.644 1830.92 L761.644 1861.55 L769.283 1861.55 L769.283 1865.48 L749.376 1865.48 L749.376 1861.55 Z" fill="#000000" fill-rule="evenodd" fill-opacity="1" /><path clip-path="url(#clip200)" d="M778.728 1859.6 L783.612 1859.6 L783.612 1865.48 L778.728 1865.48 L778.728 1859.6 Z" fill="#000000" fill-rule="evenodd" fill-opacity="1" /><path clip-path="url(#clip200)" d="M803.797 1834 Q800.186 1834 798.357 1837.57 Q796.552 1841.11 796.552 1848.24 Q796.552 1855.34 798.357 1858.91 Q800.186 1862.45 803.797 1862.45 Q807.431 1862.45 809.237 1858.91 Q811.065 1855.34 811.065 1848.24 Q811.065 1841.11 809.237 1837.57 Q807.431 1834 803.797 1834 M803.797 1830.3 Q809.607 1830.3 812.663 1834.9 Q815.741 1839.49 815.741 1848.24 Q815.741 1856.96 812.663 1861.57 Q809.607 1866.15 803.797 1866.15 Q797.987 1866.15 794.908 1861.57 Q791.852 1856.96 791.852 1848.24 Q791.852 1839.49 794.908 1834.9 Q797.987 1830.3 803.797 1830.3 Z" fill="#000000" fill-rule="evenodd" fill-opacity="1" /><path clip-path="url(#clip200)" d="M1345.56 1861.55 L1353.2 1861.55 L1353.2 1835.18 L1344.89 1836.85 L1344.89 1832.59 L1353.15 1830.92 L1357.83 1830.92 L1357.83 1861.55 L1365.46 1861.55 L1365.46 1865.48 L1345.56 1865.48 L1345.56 1861.55 Z" fill="#000000" fill-rule="evenodd" fill-opacity="1" /><path clip-path="url(#clip200)" d="M1374.91 1859.6 L1379.79 1859.6 L1379.79 1865.48 L1374.91 1865.48 L1374.91 1859.6 Z" fill="#000000" fill-rule="evenodd" fill-opacity="1" /><path clip-path="url(#clip200)" d="M1390.02 1830.92 L1408.38 1830.92 L1408.38 1834.86 L1394.31 1834.86 L1394.31 1843.33 Q1395.33 1842.98 1396.34 1842.82 Q1397.36 1842.64 1398.38 1842.64 Q1404.17 1842.64 1407.55 1845.81 Q1410.93 1848.98 1410.93 1854.4 Q1410.93 1859.97 1407.45 1863.08 Q1403.98 1866.15 1397.66 1866.15 Q1395.49 1866.15 1393.22 1865.78 Q1390.97 1865.41 1388.57 1864.67 L1388.57 1859.97 Q1390.65 1861.11 1392.87 1861.66 Q1395.09 1862.22 1397.57 1862.22 Q1401.58 1862.22 1403.91 1860.11 Q1406.25 1858.01 1406.25 1854.4 Q1406.25 1850.78 1403.91 1848.68 Q1401.58 1846.57 1397.57 1846.57 Q1395.7 1846.57 1393.82 1846.99 Q1391.97 1847.4 1390.02 1848.28 L1390.02 1830.92 Z" fill="#000000" fill-rule="evenodd" fill-opacity="1" /><path clip-path="url(#clip200)" d="M1944.83 1861.55 L1961.15 1861.55 L1961.15 1865.48 L1939.2 1865.48 L1939.2 1861.55 Q1941.87 1858.79 1946.45 1854.16 Q1951.06 1849.51 1952.24 1848.17 Q1954.48 1845.65 1955.36 1843.91 Q1956.26 1842.15 1956.26 1840.46 Q1956.26 1837.71 1954.32 1835.97 Q1952.4 1834.23 1949.3 1834.23 Q1947.1 1834.23 1944.64 1835 Q1942.21 1835.76 1939.44 1837.31 L1939.44 1832.59 Q1942.26 1831.46 1944.71 1830.88 Q1947.17 1830.3 1949.2 1830.3 Q1954.57 1830.3 1957.77 1832.98 Q1960.96 1835.67 1960.96 1840.16 Q1960.96 1842.29 1960.15 1844.21 Q1959.37 1846.11 1957.26 1848.7 Q1956.68 1849.37 1953.58 1852.59 Q1950.48 1855.78 1944.83 1861.55 Z" fill="#000000" fill-rule="evenodd" fill-opacity="1" /><path clip-path="url(#clip200)" d="M1970.96 1859.6 L1975.85 1859.6 L1975.85 1865.48 L1970.96 1865.48 L1970.96 1859.6 Z" fill="#000000" fill-rule="evenodd" fill-opacity="1" /><path clip-path="url(#clip200)" d="M1996.03 1834 Q1992.42 1834 1990.59 1837.57 Q1988.79 1841.11 1988.79 1848.24 Q1988.79 1855.34 1990.59 1858.91 Q1992.42 1862.45 1996.03 1862.45 Q1999.67 1862.45 2001.47 1858.91 Q2003.3 1855.34 2003.3 1848.24 Q2003.3 1841.11 2001.47 1837.57 Q1999.67 1834 1996.03 1834 M1996.03 1830.3 Q2001.84 1830.3 2004.9 1834.9 Q2007.98 1839.49 2007.98 1848.24 Q2007.98 1856.96 2004.9 1861.57 Q2001.84 1866.15 1996.03 1866.15 Q1990.22 1866.15 1987.14 1861.57 Q1984.09 1856.96 1984.09 1848.24 Q1984.09 1839.49 1987.14 1834.9 Q1990.22 1830.3 1996.03 1830.3 Z" fill="#000000" fill-rule="evenodd" fill-opacity="1" /><path clip-path="url(#clip200)" d="M2541.01 1861.55 L2557.33 1861.55 L2557.33 1865.48 L2535.39 1865.48 L2535.39 1861.55 Q2538.05 1858.79 2542.63 1854.16 Q2547.24 1849.51 2548.42 1848.17 Q2550.66 1845.65 2551.54 1843.91 Q2552.45 1842.15 2552.45 1840.46 Q2552.45 1837.71 2550.5 1835.97 Q2548.58 1834.23 2545.48 1834.23 Q2543.28 1834.23 2540.82 1835 Q2538.39 1835.76 2535.62 1837.31 L2535.62 1832.59 Q2538.44 1831.46 2540.89 1830.88 Q2543.35 1830.3 2545.39 1830.3 Q2550.76 1830.3 2553.95 1832.98 Q2557.14 1835.67 2557.14 1840.16 Q2557.14 1842.29 2556.33 1844.21 Q2555.55 1846.11 2553.44 1848.7 Q2552.86 1849.37 2549.76 1852.59 Q2546.66 1855.78 2541.01 1861.55 Z" fill="#000000" fill-rule="evenodd" fill-opacity="1" /><path clip-path="url(#clip200)" d="M2567.14 1859.6 L2572.03 1859.6 L2572.03 1865.48 L2567.14 1865.48 L2567.14 1859.6 Z" fill="#000000" fill-rule="evenodd" fill-opacity="1" /><path clip-path="url(#clip200)" d="M2582.26 1830.92 L2600.62 1830.92 L2600.62 1834.86 L2586.54 1834.86 L2586.54 1843.33 Q2587.56 1842.98 2588.58 1842.82 Q2589.6 1842.64 2590.62 1842.64 Q2596.4 1842.64 2599.78 1845.81 Q2603.16 1848.98 2603.16 1854.4 Q2603.16 1859.97 2599.69 1863.08 Q2596.22 1866.15 2589.9 1866.15 Q2587.72 1866.15 2585.45 1865.78 Q2583.21 1865.41 2580.8 1864.67 L2580.8 1859.97 Q2582.88 1861.11 2585.11 1861.66 Q2587.33 1862.22 2589.81 1862.22 Q2593.81 1862.22 2596.15 1860.11 Q2598.49 1858.01 2598.49 1854.4 Q2598.49 1850.78 2596.15 1848.68 Q2593.81 1846.57 2589.81 1846.57 Q2587.93 1846.57 2586.06 1846.99 Q2584.2 1847.4 2582.26 1848.28 L2582.26 1830.92 Z" fill="#000000" fill-rule="evenodd" fill-opacity="1" /><polyline clip-path="url(#clip202)" style="stroke:#000000; stroke-linecap:butt; stroke-linejoin:round; stroke-width:2; stroke-opacity:0.1; fill:none" points="
  115.057,1613.29 2640.76,1613.29 
  "/>
<polyline clip-path="url(#clip202)" style="stroke:#000000; stroke-linecap:butt; stroke-linejoin:round; stroke-width:2; stroke-opacity:0.1; fill:none" points="
  115.057,1337.58 2640.76,1337.58 
  "/>
<polyline clip-path="url(#clip202)" style="stroke:#000000; stroke-linecap:butt; stroke-linejoin:round; stroke-width:2; stroke-opacity:0.1; fill:none" points="
  115.057,1061.87 2640.76,1061.87 
  "/>
<polyline clip-path="url(#clip202)" style="stroke:#000000; stroke-linecap:butt; stroke-linejoin:round; stroke-width:2; stroke-opacity:0.1; fill:none" points="
  115.057,786.155 2640.76,786.155 
  "/>
<polyline clip-path="url(#clip202)" style="stroke:#000000; stroke-linecap:butt; stroke-linejoin:round; stroke-width:2; stroke-opacity:0.1; fill:none" points="
  115.057,510.442 2640.76,510.442 
  "/>
<polyline clip-path="url(#clip202)" style="stroke:#000000; stroke-linecap:butt; stroke-linejoin:round; stroke-width:2; stroke-opacity:0.1; fill:none" points="
  115.057,234.729 2640.76,234.729 
  "/>
<polyline clip-path="url(#clip200)" style="stroke:#000000; stroke-linecap:butt; stroke-linejoin:round; stroke-width:4; stroke-opacity:1; fill:none" points="
  115.057,1800.78 115.057,47.2441 
  "/>
<polyline clip-path="url(#clip200)" style="stroke:#000000; stroke-linecap:butt; stroke-linejoin:round; stroke-width:4; stroke-opacity:1; fill:none" points="
  115.057,1613.29 133.955,1613.29 
  "/>
<polyline clip-path="url(#clip200)" style="stroke:#000000; stroke-linecap:butt; stroke-linejoin:round; stroke-width:4; stroke-opacity:1; fill:none" points="
  115.057,1337.58 133.955,1337.58 
  "/>
<polyline clip-path="url(#clip200)" style="stroke:#000000; stroke-linecap:butt; stroke-linejoin:round; stroke-width:4; stroke-opacity:1; fill:none" points="
  115.057,1061.87 133.955,1061.87 
  "/>
<polyline clip-path="url(#clip200)" style="stroke:#000000; stroke-linecap:butt; stroke-linejoin:round; stroke-width:4; stroke-opacity:1; fill:none" points="
  115.057,786.155 133.955,786.155 
  "/>
<polyline clip-path="url(#clip200)" style="stroke:#000000; stroke-linecap:butt; stroke-linejoin:round; stroke-width:4; stroke-opacity:1; fill:none" points="
  115.057,510.442 133.955,510.442 
  "/>
<polyline clip-path="url(#clip200)" style="stroke:#000000; stroke-linecap:butt; stroke-linejoin:round; stroke-width:4; stroke-opacity:1; fill:none" points="
  115.057,234.729 133.955,234.729 
  "/>
<path clip-path="url(#clip200)" d="M58.4178 1626.64 L74.7372 1626.64 L74.7372 1630.57 L52.7928 1630.57 L52.7928 1626.64 Q55.4549 1623.88 60.0382 1619.26 Q64.6446 1614.6 65.8252 1613.26 Q68.0705 1610.74 68.9502 1609 Q69.8529 1607.24 69.8529 1605.55 Q69.8529 1602.8 67.9085 1601.06 Q65.9872 1599.32 62.8854 1599.32 Q60.6863 1599.32 58.2326 1600.09 Q55.8021 1600.85 53.0243 1602.4 L53.0243 1597.68 Q55.8484 1596.55 58.3021 1595.97 Q60.7558 1595.39 62.7928 1595.39 Q68.1631 1595.39 71.3576 1598.07 Q74.552 1600.76 74.552 1605.25 Q74.552 1607.38 73.7418 1609.3 Q72.9548 1611.2 70.8483 1613.79 Q70.2696 1614.46 67.1678 1617.68 Q64.0659 1620.88 58.4178 1626.64 Z" fill="#000000" fill-rule="evenodd" fill-opacity="1" /><path clip-path="url(#clip200)" d="M67.6076 1336.23 Q70.964 1336.94 72.839 1339.21 Q74.7372 1341.48 74.7372 1344.82 Q74.7372 1349.93 71.2187 1352.73 Q67.7002 1355.53 61.2187 1355.53 Q59.0428 1355.53 56.728 1355.09 Q54.4364 1354.68 51.9827 1353.82 L51.9827 1349.31 Q53.9271 1350.44 56.2419 1351.02 Q58.5567 1351.6 61.0798 1351.6 Q65.478 1351.6 67.7696 1349.86 Q70.0844 1348.13 70.0844 1344.82 Q70.0844 1341.76 67.9317 1340.05 Q65.802 1338.31 61.9826 1338.31 L57.9549 1338.31 L57.9549 1334.47 L62.1678 1334.47 Q65.6169 1334.47 67.4455 1333.1 Q69.2742 1331.71 69.2742 1329.12 Q69.2742 1326.46 67.3761 1325.05 Q65.5011 1323.61 61.9826 1323.61 Q60.0613 1323.61 57.8623 1324.03 Q55.6632 1324.44 53.0243 1325.32 L53.0243 1321.16 Q55.6864 1320.42 58.0012 1320.05 Q60.3391 1319.68 62.3993 1319.68 Q67.7233 1319.68 70.8252 1322.11 Q73.927 1324.51 73.927 1328.63 Q73.927 1331.5 72.2835 1333.5 Q70.64 1335.46 67.6076 1336.23 Z" fill="#000000" fill-rule="evenodd" fill-opacity="1" /><path clip-path="url(#clip200)" d="M65.1539 1048.66 L53.3484 1067.11 L65.1539 1067.11 L65.1539 1048.66 M63.927 1044.59 L69.8066 1044.59 L69.8066 1067.11 L74.7372 1067.11 L74.7372 1071 L69.8066 1071 L69.8066 1079.15 L65.1539 1079.15 L65.1539 1071 L49.5521 1071 L49.5521 1066.49 L63.927 1044.59 Z" fill="#000000" fill-rule="evenodd" fill-opacity="1" /><path clip-path="url(#clip200)" d="M53.8345 768.875 L72.1909 768.875 L72.1909 772.81 L58.1169 772.81 L58.1169 781.282 Q59.1354 780.935 60.1539 780.773 Q61.1724 780.588 62.1909 780.588 Q67.978 780.588 71.3576 783.759 Q74.7372 786.931 74.7372 792.347 Q74.7372 797.926 71.265 801.028 Q67.7928 804.106 61.4734 804.106 Q59.2974 804.106 57.0289 803.736 Q54.7836 803.366 52.3762 802.625 L52.3762 797.926 Q54.4595 799.06 56.6817 799.616 Q58.9039 800.171 61.3808 800.171 Q65.3854 800.171 67.7233 798.065 Q70.0613 795.958 70.0613 792.347 Q70.0613 788.736 67.7233 786.63 Q65.3854 784.523 61.3808 784.523 Q59.5058 784.523 57.6308 784.94 Q55.7789 785.357 53.8345 786.236 L53.8345 768.875 Z" fill="#000000" fill-rule="evenodd" fill-opacity="1" /><path clip-path="url(#clip200)" d="M63.2095 508.579 Q60.0613 508.579 58.2095 510.731 Q56.3808 512.884 56.3808 516.634 Q56.3808 520.361 58.2095 522.537 Q60.0613 524.69 63.2095 524.69 Q66.3576 524.69 68.1863 522.537 Q70.0381 520.361 70.0381 516.634 Q70.0381 512.884 68.1863 510.731 Q66.3576 508.579 63.2095 508.579 M72.4918 493.926 L72.4918 498.185 Q70.7326 497.352 68.927 496.912 Q67.1446 496.472 65.3854 496.472 Q60.7558 496.472 58.3021 499.597 Q55.8715 502.722 55.5243 509.042 Q56.89 507.028 58.9502 505.963 Q61.0104 504.875 63.4872 504.875 Q68.6955 504.875 71.7048 508.046 Q74.7372 511.194 74.7372 516.634 Q74.7372 521.958 71.589 525.176 Q68.4409 528.393 63.2095 528.393 Q57.2141 528.393 54.0428 523.81 Q50.8716 519.204 50.8716 510.477 Q50.8716 502.282 54.7604 497.421 Q58.6493 492.537 65.2002 492.537 Q66.9594 492.537 68.7418 492.884 Q70.5474 493.232 72.4918 493.926 Z" fill="#000000" fill-rule="evenodd" fill-opacity="1" /><path clip-path="url(#clip200)" d="M52.5151 217.449 L74.7372 217.449 L74.7372 219.44 L62.1909 252.009 L57.3067 252.009 L69.1122 221.384 L52.5151 221.384 L52.5151 217.449 Z" fill="#000000" fill-rule="evenodd" fill-opacity="1" /><polyline clip-path="url(#clip202)" style="stroke:#009af9; stroke-linecap:butt; stroke-linejoin:round; stroke-width:4; stroke-opacity:1; fill:none" points="
  186.539,1751.15 202.052,1740.38 345.491,1640.79 431.692,1580.95 504.574,1530.35 583.744,1475.38 656.732,1424.71 734.983,1370.38 825.644,1307.44 906.213,1251.5 
  976.864,1202.45 1053.89,1148.97 1131.38,1095.17 1217.05,1035.69 1298.57,979.095 1383.32,920.251 1454.67,870.717 1541.78,810.241 1621.57,754.841 1695.27,703.675 
  1769.92,651.846 1853.58,593.759 1929.4,541.124 2016.2,480.859 2096.57,425.06 2175.81,370.049 2252.74,316.637 2331.6,261.883 2418.01,201.894 2543.52,114.75 
  2569.27,96.8724 
  "/>
<polyline clip-path="url(#clip202)" style="stroke:#e26f46; stroke-linecap:butt; stroke-linejoin:round; stroke-width:4; stroke-opacity:1; fill:none" points="
  186.539,1751.15 202.052,1740.38 345.491,1640.79 431.692,1580.95 504.574,1530.35 583.744,1475.38 656.732,1424.71 734.983,1370.38 825.644,1307.44 906.213,1251.5 
  976.864,1202.45 1053.89,1148.97 1131.38,1095.17 1217.05,1035.69 1298.57,979.095 1383.32,920.251 1454.67,870.717 1541.78,810.241 1621.57,754.841 1695.27,703.675 
  1769.92,651.846 1853.58,593.759 1929.4,541.124 2016.2,480.859 2096.57,425.06 2175.81,370.049 2252.74,316.637 2331.6,261.883 2418.01,201.894 2543.52,114.75 
  2569.27,96.8724 
  "/>
<polyline clip-path="url(#clip202)" style="stroke:#3da44d; stroke-linecap:butt; stroke-linejoin:round; stroke-width:4; stroke-opacity:1; fill:none" points="
  186.539,1751.15 202.052,1740.38 345.491,1640.79 431.692,1580.95 504.574,1530.35 583.744,1475.38 656.732,1424.71 734.983,1370.38 825.644,1307.44 906.213,1251.5 
  976.864,1202.45 1053.89,1148.97 1131.38,1095.17 1217.05,1035.69 1298.57,979.095 1383.32,920.251 1454.67,870.717 1541.78,810.241 1621.57,754.841 1695.27,703.675 
  1769.92,651.846 1853.58,593.759 1929.4,541.124 2016.2,480.859 2096.57,425.06 2175.81,370.049 2252.74,316.637 2331.6,261.883 2418.01,201.894 2543.52,114.75 
  2569.27,96.8724 
  "/>
<polyline clip-path="url(#clip202)" style="stroke:#c271d2; stroke-linecap:butt; stroke-linejoin:round; stroke-width:4; stroke-opacity:1; fill:none" points="
  186.539,1751.15 202.052,1740.38 345.491,1640.79 431.692,1580.95 504.574,1530.35 583.744,1475.38 656.732,1424.71 734.983,1370.38 825.644,1307.44 906.213,1251.5 
  976.864,1202.45 1053.89,1148.97 1131.38,1095.17 1217.05,1035.69 1298.57,979.095 1383.32,920.251 1454.67,870.717 1541.78,810.241 1621.57,754.841 1695.27,703.675 
  1769.92,651.846 1853.58,593.759 1929.4,541.124 2016.2,480.859 2096.57,425.06 2175.81,370.049 2252.74,316.637 2331.6,261.883 2418.01,201.894 2543.52,114.75 
  2569.27,96.8724 
  "/>
<path clip-path="url(#clip200)" d="
M1854.71 364.895 L2556.57 364.895 L2556.57 105.695 L1854.71 105.695  Z
  " fill="#ffffff" fill-rule="evenodd" fill-opacity="1"/>
<polyline clip-path="url(#clip200)" style="stroke:#000000; stroke-linecap:butt; stroke-linejoin:round; stroke-width:4; stroke-opacity:1; fill:none" points="
  1854.71,364.895 2556.57,364.895 2556.57,105.695 1854.71,105.695 1854.71,364.895 
  "/>
<polyline clip-path="url(#clip200)" style="stroke:#009af9; stroke-linecap:butt; stroke-linejoin:round; stroke-width:4; stroke-opacity:1; fill:none" points="
  1881.59,157.535 2042.87,157.535 
  "/>
<path clip-path="url(#clip200)" d="M2092 141.39 L2092 145.95 Q2089.34 144.677 2086.97 144.052 Q2084.61 143.427 2082.41 143.427 Q2078.6 143.427 2076.51 144.908 Q2074.45 146.389 2074.45 149.121 Q2074.45 151.413 2075.82 152.593 Q2077.21 153.751 2081.05 154.468 L2083.87 155.047 Q2089.1 156.042 2091.58 158.565 Q2094.08 161.065 2094.08 165.278 Q2094.08 170.301 2090.7 172.894 Q2087.35 175.487 2080.84 175.487 Q2078.39 175.487 2075.61 174.931 Q2072.85 174.375 2069.89 173.287 L2069.89 168.473 Q2072.74 170.07 2075.47 170.88 Q2078.2 171.69 2080.84 171.69 Q2084.85 171.69 2087.02 170.116 Q2089.2 168.542 2089.2 165.626 Q2089.2 163.079 2087.62 161.644 Q2086.07 160.209 2082.51 159.491 L2079.66 158.936 Q2074.43 157.894 2072.09 155.672 Q2069.75 153.45 2069.75 149.491 Q2069.75 144.908 2072.97 142.269 Q2076.21 139.63 2081.88 139.63 Q2084.31 139.63 2086.84 140.07 Q2089.36 140.51 2092 141.39 Z" fill="#000000" fill-rule="evenodd" fill-opacity="1" /><path clip-path="url(#clip200)" d="M2123.36 160.788 L2123.36 162.871 L2103.78 162.871 Q2104.06 167.269 2106.42 169.584 Q2108.8 171.875 2113.04 171.875 Q2115.49 171.875 2117.78 171.274 Q2120.1 170.672 2122.37 169.468 L2122.37 173.496 Q2120.08 174.468 2117.67 174.977 Q2115.26 175.487 2112.78 175.487 Q2106.58 175.487 2102.95 171.875 Q2099.34 168.264 2099.34 162.107 Q2099.34 155.741 2102.76 152.014 Q2106.21 148.264 2112.04 148.264 Q2117.28 148.264 2120.31 151.644 Q2123.36 155.001 2123.36 160.788 M2119.1 159.538 Q2119.06 156.042 2117.14 153.959 Q2115.24 151.876 2112.09 151.876 Q2108.53 151.876 2106.37 153.889 Q2104.24 155.903 2103.92 159.561 L2119.1 159.538 Z" fill="#000000" fill-rule="evenodd" fill-opacity="1" /><path clip-path="url(#clip200)" d="M2149.01 149.885 L2149.01 153.866 Q2147.21 152.871 2145.38 152.385 Q2143.57 151.876 2141.72 151.876 Q2137.58 151.876 2135.28 154.514 Q2132.99 157.13 2132.99 161.876 Q2132.99 166.621 2135.28 169.26 Q2137.58 171.875 2141.72 171.875 Q2143.57 171.875 2145.38 171.389 Q2147.21 170.88 2149.01 169.885 L2149.01 173.82 Q2147.23 174.653 2145.31 175.07 Q2143.41 175.487 2141.26 175.487 Q2135.4 175.487 2131.95 171.806 Q2128.5 168.125 2128.5 161.876 Q2128.5 155.533 2131.97 151.899 Q2135.47 148.264 2141.53 148.264 Q2143.5 148.264 2145.38 148.681 Q2147.25 149.075 2149.01 149.885 Z" fill="#000000" fill-rule="evenodd" fill-opacity="1" /><path clip-path="url(#clip200)" d="M2168.2 161.783 Q2163.04 161.783 2161.05 162.963 Q2159.06 164.144 2159.06 166.991 Q2159.06 169.26 2160.54 170.602 Q2162.04 171.922 2164.61 171.922 Q2168.15 171.922 2170.28 169.422 Q2172.44 166.899 2172.44 162.732 L2172.44 161.783 L2168.2 161.783 M2176.7 160.024 L2176.7 174.815 L2172.44 174.815 L2172.44 170.88 Q2170.98 173.241 2168.8 174.375 Q2166.63 175.487 2163.48 175.487 Q2159.5 175.487 2157.14 173.264 Q2154.8 171.019 2154.8 167.269 Q2154.8 162.894 2157.72 160.672 Q2160.66 158.45 2166.47 158.45 L2172.44 158.45 L2172.44 158.033 Q2172.44 155.093 2170.49 153.496 Q2168.57 151.876 2165.08 151.876 Q2162.85 151.876 2160.75 152.408 Q2158.64 152.94 2156.7 154.005 L2156.7 150.07 Q2159.03 149.167 2161.23 148.727 Q2163.43 148.264 2165.52 148.264 Q2171.14 148.264 2173.92 151.181 Q2176.7 154.098 2176.7 160.024 Z" fill="#000000" fill-rule="evenodd" fill-opacity="1" /><path clip-path="url(#clip200)" d="M2207.02 159.167 L2207.02 174.815 L2202.76 174.815 L2202.76 159.306 Q2202.76 155.626 2201.33 153.797 Q2199.89 151.968 2197.02 151.968 Q2193.57 151.968 2191.58 154.167 Q2189.59 156.366 2189.59 160.163 L2189.59 174.815 L2185.31 174.815 L2185.31 148.889 L2189.59 148.889 L2189.59 152.917 Q2191.12 150.579 2193.18 149.422 Q2195.26 148.264 2197.97 148.264 Q2202.44 148.264 2204.73 151.042 Q2207.02 153.797 2207.02 159.167 Z" fill="#000000" fill-rule="evenodd" fill-opacity="1" /><path clip-path="url(#clip200)" d="M2219.73 141.528 L2219.73 148.889 L2228.5 148.889 L2228.5 152.2 L2219.73 152.2 L2219.73 166.274 Q2219.73 169.445 2220.59 170.348 Q2221.46 171.25 2224.13 171.25 L2228.5 171.25 L2228.5 174.815 L2224.13 174.815 Q2219.2 174.815 2217.32 172.987 Q2215.45 171.135 2215.45 166.274 L2215.45 152.2 L2212.32 152.2 L2212.32 148.889 L2215.45 148.889 L2215.45 141.528 L2219.73 141.528 Z" fill="#000000" fill-rule="evenodd" fill-opacity="1" /><path clip-path="url(#clip200)" d="M2256.28 160.788 L2256.28 162.871 L2236.7 162.871 Q2236.97 167.269 2239.34 169.584 Q2241.72 171.875 2245.96 171.875 Q2248.41 171.875 2250.7 171.274 Q2253.02 170.672 2255.28 169.468 L2255.28 173.496 Q2252.99 174.468 2250.59 174.977 Q2248.18 175.487 2245.7 175.487 Q2239.5 175.487 2235.86 171.875 Q2232.25 168.264 2232.25 162.107 Q2232.25 155.741 2235.68 152.014 Q2239.13 148.264 2244.96 148.264 Q2250.19 148.264 2253.22 151.644 Q2256.28 155.001 2256.28 160.788 M2252.02 159.538 Q2251.97 156.042 2250.05 153.959 Q2248.15 151.876 2245.01 151.876 Q2241.44 151.876 2239.29 153.889 Q2237.16 155.903 2236.84 159.561 L2252.02 159.538 Z" fill="#000000" fill-rule="evenodd" fill-opacity="1" /><path clip-path="url(#clip200)" d="M2277.95 138.797 L2287.76 138.797 L2287.76 142.107 L2282.21 142.107 L2282.21 177.755 L2287.76 177.755 L2287.76 181.065 L2277.95 181.065 L2277.95 138.797 Z" fill="#000000" fill-rule="evenodd" fill-opacity="1" /><path clip-path="url(#clip200)" d="M2298.25 170.88 L2305.89 170.88 L2305.89 144.515 L2297.58 146.181 L2297.58 141.922 L2305.84 140.255 L2310.52 140.255 L2310.52 170.88 L2318.15 170.88 L2318.15 174.815 L2298.25 174.815 L2298.25 170.88 Z" fill="#000000" fill-rule="evenodd" fill-opacity="1" /><path clip-path="url(#clip200)" d="M2328.08 168.936 L2332.97 168.936 L2332.97 172.917 L2329.17 180.324 L2326.19 180.324 L2328.08 172.917 L2328.08 168.936 Z" fill="#000000" fill-rule="evenodd" fill-opacity="1" /><path clip-path="url(#clip200)" d="M2361.77 170.88 L2378.08 170.88 L2378.08 174.815 L2356.14 174.815 L2356.14 170.88 Q2358.8 168.125 2363.39 163.496 Q2367.99 158.843 2369.17 157.501 Q2371.42 154.977 2372.3 153.241 Q2373.2 151.482 2373.2 149.792 Q2373.2 147.038 2371.26 145.302 Q2369.33 143.565 2366.23 143.565 Q2364.03 143.565 2361.58 144.329 Q2359.15 145.093 2356.37 146.644 L2356.37 141.922 Q2359.2 140.788 2361.65 140.209 Q2364.1 139.63 2366.14 139.63 Q2371.51 139.63 2374.7 142.315 Q2377.9 145.001 2377.9 149.491 Q2377.9 151.621 2377.09 153.542 Q2376.3 155.44 2374.2 158.033 Q2373.62 158.704 2370.51 161.922 Q2367.41 165.116 2361.77 170.88 Z" fill="#000000" fill-rule="evenodd" fill-opacity="1" /><path clip-path="url(#clip200)" d="M2397.25 138.797 L2397.25 181.065 L2387.44 181.065 L2387.44 177.755 L2392.97 177.755 L2392.97 142.107 L2387.44 142.107 L2387.44 138.797 L2397.25 138.797 Z" fill="#000000" fill-rule="evenodd" fill-opacity="1" /><polyline clip-path="url(#clip200)" style="stroke:#e26f46; stroke-linecap:butt; stroke-linejoin:round; stroke-width:4; stroke-opacity:1; fill:none" points="
  1881.59,209.375 2042.87,209.375 
  "/>
<path clip-path="url(#clip200)" d="M2092 193.23 L2092 197.79 Q2089.34 196.517 2086.97 195.892 Q2084.61 195.267 2082.41 195.267 Q2078.6 195.267 2076.51 196.748 Q2074.45 198.229 2074.45 200.961 Q2074.45 203.253 2075.82 204.433 Q2077.21 205.591 2081.05 206.308 L2083.87 206.887 Q2089.1 207.882 2091.58 210.405 Q2094.08 212.905 2094.08 217.118 Q2094.08 222.141 2090.7 224.734 Q2087.35 227.327 2080.84 227.327 Q2078.39 227.327 2075.61 226.771 Q2072.85 226.215 2069.89 225.127 L2069.89 220.313 Q2072.74 221.91 2075.47 222.72 Q2078.2 223.53 2080.84 223.53 Q2084.85 223.53 2087.02 221.956 Q2089.2 220.382 2089.2 217.466 Q2089.2 214.919 2087.62 213.484 Q2086.07 212.049 2082.51 211.331 L2079.66 210.776 Q2074.43 209.734 2072.09 207.512 Q2069.75 205.29 2069.75 201.331 Q2069.75 196.748 2072.97 194.109 Q2076.21 191.47 2081.88 191.47 Q2084.31 191.47 2086.84 191.91 Q2089.36 192.35 2092 193.23 Z" fill="#000000" fill-rule="evenodd" fill-opacity="1" /><path clip-path="url(#clip200)" d="M2123.36 212.628 L2123.36 214.711 L2103.78 214.711 Q2104.06 219.109 2106.42 221.424 Q2108.8 223.715 2113.04 223.715 Q2115.49 223.715 2117.78 223.114 Q2120.1 222.512 2122.37 221.308 L2122.37 225.336 Q2120.08 226.308 2117.67 226.817 Q2115.26 227.327 2112.78 227.327 Q2106.58 227.327 2102.95 223.715 Q2099.34 220.104 2099.34 213.947 Q2099.34 207.581 2102.76 203.854 Q2106.21 200.104 2112.04 200.104 Q2117.28 200.104 2120.31 203.484 Q2123.36 206.841 2123.36 212.628 M2119.1 211.378 Q2119.06 207.882 2117.14 205.799 Q2115.24 203.716 2112.09 203.716 Q2108.53 203.716 2106.37 205.729 Q2104.24 207.743 2103.92 211.401 L2119.1 211.378 Z" fill="#000000" fill-rule="evenodd" fill-opacity="1" /><path clip-path="url(#clip200)" d="M2149.01 201.725 L2149.01 205.706 Q2147.21 204.711 2145.38 204.225 Q2143.57 203.716 2141.72 203.716 Q2137.58 203.716 2135.28 206.354 Q2132.99 208.97 2132.99 213.716 Q2132.99 218.461 2135.28 221.1 Q2137.58 223.715 2141.72 223.715 Q2143.57 223.715 2145.38 223.229 Q2147.21 222.72 2149.01 221.725 L2149.01 225.66 Q2147.23 226.493 2145.31 226.91 Q2143.41 227.327 2141.26 227.327 Q2135.4 227.327 2131.95 223.646 Q2128.5 219.965 2128.5 213.716 Q2128.5 207.373 2131.97 203.739 Q2135.47 200.104 2141.53 200.104 Q2143.5 200.104 2145.38 200.521 Q2147.25 200.915 2149.01 201.725 Z" fill="#000000" fill-rule="evenodd" fill-opacity="1" /><path clip-path="url(#clip200)" d="M2168.2 213.623 Q2163.04 213.623 2161.05 214.803 Q2159.06 215.984 2159.06 218.831 Q2159.06 221.1 2160.54 222.442 Q2162.04 223.762 2164.61 223.762 Q2168.15 223.762 2170.28 221.262 Q2172.44 218.739 2172.44 214.572 L2172.44 213.623 L2168.2 213.623 M2176.7 211.864 L2176.7 226.655 L2172.44 226.655 L2172.44 222.72 Q2170.98 225.081 2168.8 226.215 Q2166.63 227.327 2163.48 227.327 Q2159.5 227.327 2157.14 225.104 Q2154.8 222.859 2154.8 219.109 Q2154.8 214.734 2157.72 212.512 Q2160.66 210.29 2166.47 210.29 L2172.44 210.29 L2172.44 209.873 Q2172.44 206.933 2170.49 205.336 Q2168.57 203.716 2165.08 203.716 Q2162.85 203.716 2160.75 204.248 Q2158.64 204.78 2156.7 205.845 L2156.7 201.91 Q2159.03 201.007 2161.23 200.567 Q2163.43 200.104 2165.52 200.104 Q2171.14 200.104 2173.92 203.021 Q2176.7 205.938 2176.7 211.864 Z" fill="#000000" fill-rule="evenodd" fill-opacity="1" /><path clip-path="url(#clip200)" d="M2207.02 211.007 L2207.02 226.655 L2202.76 226.655 L2202.76 211.146 Q2202.76 207.466 2201.33 205.637 Q2199.89 203.808 2197.02 203.808 Q2193.57 203.808 2191.58 206.007 Q2189.59 208.206 2189.59 212.003 L2189.59 226.655 L2185.31 226.655 L2185.31 200.729 L2189.59 200.729 L2189.59 204.757 Q2191.12 202.419 2193.18 201.262 Q2195.26 200.104 2197.97 200.104 Q2202.44 200.104 2204.73 202.882 Q2207.02 205.637 2207.02 211.007 Z" fill="#000000" fill-rule="evenodd" fill-opacity="1" /><path clip-path="url(#clip200)" d="M2219.73 193.368 L2219.73 200.729 L2228.5 200.729 L2228.5 204.04 L2219.73 204.04 L2219.73 218.114 Q2219.73 221.285 2220.59 222.188 Q2221.46 223.09 2224.13 223.09 L2228.5 223.09 L2228.5 226.655 L2224.13 226.655 Q2219.2 226.655 2217.32 224.827 Q2215.45 222.975 2215.45 218.114 L2215.45 204.04 L2212.32 204.04 L2212.32 200.729 L2215.45 200.729 L2215.45 193.368 L2219.73 193.368 Z" fill="#000000" fill-rule="evenodd" fill-opacity="1" /><path clip-path="url(#clip200)" d="M2256.28 212.628 L2256.28 214.711 L2236.7 214.711 Q2236.97 219.109 2239.34 221.424 Q2241.72 223.715 2245.96 223.715 Q2248.41 223.715 2250.7 223.114 Q2253.02 222.512 2255.28 221.308 L2255.28 225.336 Q2252.99 226.308 2250.59 226.817 Q2248.18 227.327 2245.7 227.327 Q2239.5 227.327 2235.86 223.715 Q2232.25 220.104 2232.25 213.947 Q2232.25 207.581 2235.68 203.854 Q2239.13 200.104 2244.96 200.104 Q2250.19 200.104 2253.22 203.484 Q2256.28 206.841 2256.28 212.628 M2252.02 211.378 Q2251.97 207.882 2250.05 205.799 Q2248.15 203.716 2245.01 203.716 Q2241.44 203.716 2239.29 205.729 Q2237.16 207.743 2236.84 211.401 L2252.02 211.378 Z" fill="#000000" fill-rule="evenodd" fill-opacity="1" /><path clip-path="url(#clip200)" d="M2277.95 190.637 L2287.76 190.637 L2287.76 193.947 L2282.21 193.947 L2282.21 229.595 L2287.76 229.595 L2287.76 232.905 L2277.95 232.905 L2277.95 190.637 Z" fill="#000000" fill-rule="evenodd" fill-opacity="1" /><path clip-path="url(#clip200)" d="M2298.25 222.72 L2305.89 222.72 L2305.89 196.355 L2297.58 198.021 L2297.58 193.762 L2305.84 192.095 L2310.52 192.095 L2310.52 222.72 L2318.15 222.72 L2318.15 226.655 L2298.25 226.655 L2298.25 222.72 Z" fill="#000000" fill-rule="evenodd" fill-opacity="1" /><path clip-path="url(#clip200)" d="M2328.08 220.776 L2332.97 220.776 L2332.97 224.757 L2329.17 232.164 L2326.19 232.164 L2328.08 224.757 L2328.08 220.776 Z" fill="#000000" fill-rule="evenodd" fill-opacity="1" /><path clip-path="url(#clip200)" d="M2358.55 222.72 L2366.19 222.72 L2366.19 196.355 L2357.88 198.021 L2357.88 193.762 L2366.14 192.095 L2370.82 192.095 L2370.82 222.72 L2378.45 222.72 L2378.45 226.655 L2358.55 226.655 L2358.55 222.72 Z" fill="#000000" fill-rule="evenodd" fill-opacity="1" /><path clip-path="url(#clip200)" d="M2387.9 220.776 L2392.78 220.776 L2392.78 226.655 L2387.9 226.655 L2387.9 220.776 Z" fill="#000000" fill-rule="evenodd" fill-opacity="1" /><path clip-path="url(#clip200)" d="M2403.01 192.095 L2421.37 192.095 L2421.37 196.03 L2407.3 196.03 L2407.3 204.503 Q2408.32 204.155 2409.33 203.993 Q2410.35 203.808 2411.37 203.808 Q2417.16 203.808 2420.54 206.979 Q2423.92 210.151 2423.92 215.567 Q2423.92 221.146 2420.45 224.248 Q2416.97 227.327 2410.65 227.327 Q2408.48 227.327 2406.21 226.956 Q2403.96 226.586 2401.56 225.845 L2401.56 221.146 Q2403.64 222.28 2405.86 222.836 Q2408.08 223.391 2410.56 223.391 Q2414.57 223.391 2416.9 221.285 Q2419.24 219.178 2419.24 215.567 Q2419.24 211.956 2416.9 209.85 Q2414.57 207.743 2410.56 207.743 Q2408.69 207.743 2406.81 208.16 Q2404.96 208.577 2403.01 209.456 L2403.01 192.095 Z" fill="#000000" fill-rule="evenodd" fill-opacity="1" /><path clip-path="url(#clip200)" d="M2442.48 190.637 L2442.48 232.905 L2432.67 232.905 L2432.67 229.595 L2438.2 229.595 L2438.2 193.947 L2432.67 193.947 L2432.67 190.637 L2442.48 190.637 Z" fill="#000000" fill-rule="evenodd" fill-opacity="1" /><polyline clip-path="url(#clip200)" style="stroke:#3da44d; stroke-linecap:butt; stroke-linejoin:round; stroke-width:4; stroke-opacity:1; fill:none" points="
  1881.59,261.215 2042.87,261.215 
  "/>
<path clip-path="url(#clip200)" d="M2092 245.07 L2092 249.63 Q2089.34 248.357 2086.97 247.732 Q2084.61 247.107 2082.41 247.107 Q2078.6 247.107 2076.51 248.588 Q2074.45 250.069 2074.45 252.801 Q2074.45 255.093 2075.82 256.273 Q2077.21 257.431 2081.05 258.148 L2083.87 258.727 Q2089.1 259.722 2091.58 262.245 Q2094.08 264.745 2094.08 268.958 Q2094.08 273.981 2090.7 276.574 Q2087.35 279.167 2080.84 279.167 Q2078.39 279.167 2075.61 278.611 Q2072.85 278.055 2069.89 276.967 L2069.89 272.153 Q2072.74 273.75 2075.47 274.56 Q2078.2 275.37 2080.84 275.37 Q2084.85 275.37 2087.02 273.796 Q2089.2 272.222 2089.2 269.306 Q2089.2 266.759 2087.62 265.324 Q2086.07 263.889 2082.51 263.171 L2079.66 262.616 Q2074.43 261.574 2072.09 259.352 Q2069.75 257.13 2069.75 253.171 Q2069.75 248.588 2072.97 245.949 Q2076.21 243.31 2081.88 243.31 Q2084.31 243.31 2086.84 243.75 Q2089.36 244.19 2092 245.07 Z" fill="#000000" fill-rule="evenodd" fill-opacity="1" /><path clip-path="url(#clip200)" d="M2123.36 264.468 L2123.36 266.551 L2103.78 266.551 Q2104.06 270.949 2106.42 273.264 Q2108.8 275.555 2113.04 275.555 Q2115.49 275.555 2117.78 274.954 Q2120.1 274.352 2122.37 273.148 L2122.37 277.176 Q2120.08 278.148 2117.67 278.657 Q2115.26 279.167 2112.78 279.167 Q2106.58 279.167 2102.95 275.555 Q2099.34 271.944 2099.34 265.787 Q2099.34 259.421 2102.76 255.694 Q2106.21 251.944 2112.04 251.944 Q2117.28 251.944 2120.31 255.324 Q2123.36 258.681 2123.36 264.468 M2119.1 263.218 Q2119.06 259.722 2117.14 257.639 Q2115.24 255.556 2112.09 255.556 Q2108.53 255.556 2106.37 257.569 Q2104.24 259.583 2103.92 263.241 L2119.1 263.218 Z" fill="#000000" fill-rule="evenodd" fill-opacity="1" /><path clip-path="url(#clip200)" d="M2149.01 253.565 L2149.01 257.546 Q2147.21 256.551 2145.38 256.065 Q2143.57 255.556 2141.72 255.556 Q2137.58 255.556 2135.28 258.194 Q2132.99 260.81 2132.99 265.556 Q2132.99 270.301 2135.28 272.94 Q2137.58 275.555 2141.72 275.555 Q2143.57 275.555 2145.38 275.069 Q2147.21 274.56 2149.01 273.565 L2149.01 277.5 Q2147.23 278.333 2145.31 278.75 Q2143.41 279.167 2141.26 279.167 Q2135.4 279.167 2131.95 275.486 Q2128.5 271.805 2128.5 265.556 Q2128.5 259.213 2131.97 255.579 Q2135.47 251.944 2141.53 251.944 Q2143.5 251.944 2145.38 252.361 Q2147.25 252.755 2149.01 253.565 Z" fill="#000000" fill-rule="evenodd" fill-opacity="1" /><path clip-path="url(#clip200)" d="M2168.2 265.463 Q2163.04 265.463 2161.05 266.643 Q2159.06 267.824 2159.06 270.671 Q2159.06 272.94 2160.54 274.282 Q2162.04 275.602 2164.61 275.602 Q2168.15 275.602 2170.28 273.102 Q2172.44 270.579 2172.44 266.412 L2172.44 265.463 L2168.2 265.463 M2176.7 263.704 L2176.7 278.495 L2172.44 278.495 L2172.44 274.56 Q2170.98 276.921 2168.8 278.055 Q2166.63 279.167 2163.48 279.167 Q2159.5 279.167 2157.14 276.944 Q2154.8 274.699 2154.8 270.949 Q2154.8 266.574 2157.72 264.352 Q2160.66 262.13 2166.47 262.13 L2172.44 262.13 L2172.44 261.713 Q2172.44 258.773 2170.49 257.176 Q2168.57 255.556 2165.08 255.556 Q2162.85 255.556 2160.75 256.088 Q2158.64 256.62 2156.7 257.685 L2156.7 253.75 Q2159.03 252.847 2161.23 252.407 Q2163.43 251.944 2165.52 251.944 Q2171.14 251.944 2173.92 254.861 Q2176.7 257.778 2176.7 263.704 Z" fill="#000000" fill-rule="evenodd" fill-opacity="1" /><path clip-path="url(#clip200)" d="M2207.02 262.847 L2207.02 278.495 L2202.76 278.495 L2202.76 262.986 Q2202.76 259.306 2201.33 257.477 Q2199.89 255.648 2197.02 255.648 Q2193.57 255.648 2191.58 257.847 Q2189.59 260.046 2189.59 263.843 L2189.59 278.495 L2185.31 278.495 L2185.31 252.569 L2189.59 252.569 L2189.59 256.597 Q2191.12 254.259 2193.18 253.102 Q2195.26 251.944 2197.97 251.944 Q2202.44 251.944 2204.73 254.722 Q2207.02 257.477 2207.02 262.847 Z" fill="#000000" fill-rule="evenodd" fill-opacity="1" /><path clip-path="url(#clip200)" d="M2219.73 245.208 L2219.73 252.569 L2228.5 252.569 L2228.5 255.88 L2219.73 255.88 L2219.73 269.954 Q2219.73 273.125 2220.59 274.028 Q2221.46 274.93 2224.13 274.93 L2228.5 274.93 L2228.5 278.495 L2224.13 278.495 Q2219.2 278.495 2217.32 276.667 Q2215.45 274.815 2215.45 269.954 L2215.45 255.88 L2212.32 255.88 L2212.32 252.569 L2215.45 252.569 L2215.45 245.208 L2219.73 245.208 Z" fill="#000000" fill-rule="evenodd" fill-opacity="1" /><path clip-path="url(#clip200)" d="M2256.28 264.468 L2256.28 266.551 L2236.7 266.551 Q2236.97 270.949 2239.34 273.264 Q2241.72 275.555 2245.96 275.555 Q2248.41 275.555 2250.7 274.954 Q2253.02 274.352 2255.28 273.148 L2255.28 277.176 Q2252.99 278.148 2250.59 278.657 Q2248.18 279.167 2245.7 279.167 Q2239.5 279.167 2235.86 275.555 Q2232.25 271.944 2232.25 265.787 Q2232.25 259.421 2235.68 255.694 Q2239.13 251.944 2244.96 251.944 Q2250.19 251.944 2253.22 255.324 Q2256.28 258.681 2256.28 264.468 M2252.02 263.218 Q2251.97 259.722 2250.05 257.639 Q2248.15 255.556 2245.01 255.556 Q2241.44 255.556 2239.29 257.569 Q2237.16 259.583 2236.84 263.241 L2252.02 263.218 Z" fill="#000000" fill-rule="evenodd" fill-opacity="1" /><path clip-path="url(#clip200)" d="M2277.95 242.477 L2287.76 242.477 L2287.76 245.787 L2282.21 245.787 L2282.21 281.435 L2287.76 281.435 L2287.76 284.745 L2277.95 284.745 L2277.95 242.477 Z" fill="#000000" fill-rule="evenodd" fill-opacity="1" /><path clip-path="url(#clip200)" d="M2298.25 274.56 L2305.89 274.56 L2305.89 248.195 L2297.58 249.861 L2297.58 245.602 L2305.84 243.935 L2310.52 243.935 L2310.52 274.56 L2318.15 274.56 L2318.15 278.495 L2298.25 278.495 L2298.25 274.56 Z" fill="#000000" fill-rule="evenodd" fill-opacity="1" /><path clip-path="url(#clip200)" d="M2328.08 272.616 L2332.97 272.616 L2332.97 276.597 L2329.17 284.004 L2326.19 284.004 L2328.08 276.597 L2328.08 272.616 Z" fill="#000000" fill-rule="evenodd" fill-opacity="1" /><path clip-path="url(#clip200)" d="M2358.55 274.56 L2366.19 274.56 L2366.19 248.195 L2357.88 249.861 L2357.88 245.602 L2366.14 243.935 L2370.82 243.935 L2370.82 274.56 L2378.45 274.56 L2378.45 278.495 L2358.55 278.495 L2358.55 274.56 Z" fill="#000000" fill-rule="evenodd" fill-opacity="1" /><path clip-path="url(#clip200)" d="M2387.9 272.616 L2392.78 272.616 L2392.78 278.495 L2387.9 278.495 L2387.9 272.616 Z" fill="#000000" fill-rule="evenodd" fill-opacity="1" /><path clip-path="url(#clip200)" d="M2403.78 274.56 L2411.42 274.56 L2411.42 248.195 L2403.11 249.861 L2403.11 245.602 L2411.37 243.935 L2416.05 243.935 L2416.05 274.56 L2423.69 274.56 L2423.69 278.495 L2403.78 278.495 L2403.78 274.56 Z" fill="#000000" fill-rule="evenodd" fill-opacity="1" /><path clip-path="url(#clip200)" d="M2442.48 242.477 L2442.48 284.745 L2432.67 284.745 L2432.67 281.435 L2438.2 281.435 L2438.2 245.787 L2432.67 245.787 L2432.67 242.477 L2442.48 242.477 Z" fill="#000000" fill-rule="evenodd" fill-opacity="1" /><polyline clip-path="url(#clip200)" style="stroke:#c271d2; stroke-linecap:butt; stroke-linejoin:round; stroke-width:4; stroke-opacity:1; fill:none" points="
  1881.59,313.055 2042.87,313.055 
  "/>
<path clip-path="url(#clip200)" d="M2092 296.91 L2092 301.47 Q2089.34 300.197 2086.97 299.572 Q2084.61 298.947 2082.41 298.947 Q2078.6 298.947 2076.51 300.428 Q2074.45 301.909 2074.45 304.641 Q2074.45 306.933 2075.82 308.113 Q2077.21 309.271 2081.05 309.988 L2083.87 310.567 Q2089.1 311.562 2091.58 314.085 Q2094.08 316.585 2094.08 320.798 Q2094.08 325.821 2090.7 328.414 Q2087.35 331.007 2080.84 331.007 Q2078.39 331.007 2075.61 330.451 Q2072.85 329.895 2069.89 328.807 L2069.89 323.993 Q2072.74 325.59 2075.47 326.4 Q2078.2 327.21 2080.84 327.21 Q2084.85 327.21 2087.02 325.636 Q2089.2 324.062 2089.2 321.146 Q2089.2 318.599 2087.62 317.164 Q2086.07 315.729 2082.51 315.011 L2079.66 314.456 Q2074.43 313.414 2072.09 311.192 Q2069.75 308.97 2069.75 305.011 Q2069.75 300.428 2072.97 297.789 Q2076.21 295.15 2081.88 295.15 Q2084.31 295.15 2086.84 295.59 Q2089.36 296.03 2092 296.91 Z" fill="#000000" fill-rule="evenodd" fill-opacity="1" /><path clip-path="url(#clip200)" d="M2123.36 316.308 L2123.36 318.391 L2103.78 318.391 Q2104.06 322.789 2106.42 325.104 Q2108.8 327.395 2113.04 327.395 Q2115.49 327.395 2117.78 326.794 Q2120.1 326.192 2122.37 324.988 L2122.37 329.016 Q2120.08 329.988 2117.67 330.497 Q2115.26 331.007 2112.78 331.007 Q2106.58 331.007 2102.95 327.395 Q2099.34 323.784 2099.34 317.627 Q2099.34 311.261 2102.76 307.534 Q2106.21 303.784 2112.04 303.784 Q2117.28 303.784 2120.31 307.164 Q2123.36 310.521 2123.36 316.308 M2119.1 315.058 Q2119.06 311.562 2117.14 309.479 Q2115.24 307.396 2112.09 307.396 Q2108.53 307.396 2106.37 309.409 Q2104.24 311.423 2103.92 315.081 L2119.1 315.058 Z" fill="#000000" fill-rule="evenodd" fill-opacity="1" /><path clip-path="url(#clip200)" d="M2149.01 305.405 L2149.01 309.386 Q2147.21 308.391 2145.38 307.905 Q2143.57 307.396 2141.72 307.396 Q2137.58 307.396 2135.28 310.034 Q2132.99 312.65 2132.99 317.396 Q2132.99 322.141 2135.28 324.78 Q2137.58 327.395 2141.72 327.395 Q2143.57 327.395 2145.38 326.909 Q2147.21 326.4 2149.01 325.405 L2149.01 329.34 Q2147.23 330.173 2145.31 330.59 Q2143.41 331.007 2141.26 331.007 Q2135.4 331.007 2131.95 327.326 Q2128.5 323.645 2128.5 317.396 Q2128.5 311.053 2131.97 307.419 Q2135.47 303.784 2141.53 303.784 Q2143.5 303.784 2145.38 304.201 Q2147.25 304.595 2149.01 305.405 Z" fill="#000000" fill-rule="evenodd" fill-opacity="1" /><path clip-path="url(#clip200)" d="M2168.2 317.303 Q2163.04 317.303 2161.05 318.483 Q2159.06 319.664 2159.06 322.511 Q2159.06 324.78 2160.54 326.122 Q2162.04 327.442 2164.61 327.442 Q2168.15 327.442 2170.28 324.942 Q2172.44 322.419 2172.44 318.252 L2172.44 317.303 L2168.2 317.303 M2176.7 315.544 L2176.7 330.335 L2172.44 330.335 L2172.44 326.4 Q2170.98 328.761 2168.8 329.895 Q2166.63 331.007 2163.48 331.007 Q2159.5 331.007 2157.14 328.784 Q2154.8 326.539 2154.8 322.789 Q2154.8 318.414 2157.72 316.192 Q2160.66 313.97 2166.47 313.97 L2172.44 313.97 L2172.44 313.553 Q2172.44 310.613 2170.49 309.016 Q2168.57 307.396 2165.08 307.396 Q2162.85 307.396 2160.75 307.928 Q2158.64 308.46 2156.7 309.525 L2156.7 305.59 Q2159.03 304.687 2161.23 304.247 Q2163.43 303.784 2165.52 303.784 Q2171.14 303.784 2173.92 306.701 Q2176.7 309.618 2176.7 315.544 Z" fill="#000000" fill-rule="evenodd" fill-opacity="1" /><path clip-path="url(#clip200)" d="M2207.02 314.687 L2207.02 330.335 L2202.76 330.335 L2202.76 314.826 Q2202.76 311.146 2201.33 309.317 Q2199.89 307.488 2197.02 307.488 Q2193.57 307.488 2191.58 309.687 Q2189.59 311.886 2189.59 315.683 L2189.59 330.335 L2185.31 330.335 L2185.31 304.409 L2189.59 304.409 L2189.59 308.437 Q2191.12 306.099 2193.18 304.942 Q2195.26 303.784 2197.97 303.784 Q2202.44 303.784 2204.73 306.562 Q2207.02 309.317 2207.02 314.687 Z" fill="#000000" fill-rule="evenodd" fill-opacity="1" /><path clip-path="url(#clip200)" d="M2219.73 297.048 L2219.73 304.409 L2228.5 304.409 L2228.5 307.72 L2219.73 307.72 L2219.73 321.794 Q2219.73 324.965 2220.59 325.868 Q2221.46 326.77 2224.13 326.77 L2228.5 326.77 L2228.5 330.335 L2224.13 330.335 Q2219.2 330.335 2217.32 328.507 Q2215.45 326.655 2215.45 321.794 L2215.45 307.72 L2212.32 307.72 L2212.32 304.409 L2215.45 304.409 L2215.45 297.048 L2219.73 297.048 Z" fill="#000000" fill-rule="evenodd" fill-opacity="1" /><path clip-path="url(#clip200)" d="M2256.28 316.308 L2256.28 318.391 L2236.7 318.391 Q2236.97 322.789 2239.34 325.104 Q2241.72 327.395 2245.96 327.395 Q2248.41 327.395 2250.7 326.794 Q2253.02 326.192 2255.28 324.988 L2255.28 329.016 Q2252.99 329.988 2250.59 330.497 Q2248.18 331.007 2245.7 331.007 Q2239.5 331.007 2235.86 327.395 Q2232.25 323.784 2232.25 317.627 Q2232.25 311.261 2235.68 307.534 Q2239.13 303.784 2244.96 303.784 Q2250.19 303.784 2253.22 307.164 Q2256.28 310.521 2256.28 316.308 M2252.02 315.058 Q2251.97 311.562 2250.05 309.479 Q2248.15 307.396 2245.01 307.396 Q2241.44 307.396 2239.29 309.409 Q2237.16 311.423 2236.84 315.081 L2252.02 315.058 Z" fill="#000000" fill-rule="evenodd" fill-opacity="1" /><path clip-path="url(#clip200)" d="M2277.95 294.317 L2287.76 294.317 L2287.76 297.627 L2282.21 297.627 L2282.21 333.275 L2287.76 333.275 L2287.76 336.585 L2277.95 336.585 L2277.95 294.317 Z" fill="#000000" fill-rule="evenodd" fill-opacity="1" /><path clip-path="url(#clip200)" d="M2298.25 326.4 L2305.89 326.4 L2305.89 300.035 L2297.58 301.701 L2297.58 297.442 L2305.84 295.775 L2310.52 295.775 L2310.52 326.4 L2318.15 326.4 L2318.15 330.335 L2298.25 330.335 L2298.25 326.4 Z" fill="#000000" fill-rule="evenodd" fill-opacity="1" /><path clip-path="url(#clip200)" d="M2328.08 324.456 L2332.97 324.456 L2332.97 328.437 L2329.17 335.844 L2326.19 335.844 L2328.08 328.437 L2328.08 324.456 Z" fill="#000000" fill-rule="evenodd" fill-opacity="1" /><path clip-path="url(#clip200)" d="M2358.55 326.4 L2366.19 326.4 L2366.19 300.035 L2357.88 301.701 L2357.88 297.442 L2366.14 295.775 L2370.82 295.775 L2370.82 326.4 L2378.45 326.4 L2378.45 330.335 L2358.55 330.335 L2358.55 326.4 Z" fill="#000000" fill-rule="evenodd" fill-opacity="1" /><path clip-path="url(#clip200)" d="M2387.9 324.456 L2392.78 324.456 L2392.78 330.335 L2387.9 330.335 L2387.9 324.456 Z" fill="#000000" fill-rule="evenodd" fill-opacity="1" /><path clip-path="url(#clip200)" d="M2412.97 298.854 Q2409.36 298.854 2407.53 302.419 Q2405.72 305.96 2405.72 313.09 Q2405.72 320.196 2407.53 323.761 Q2409.36 327.303 2412.97 327.303 Q2416.6 327.303 2418.41 323.761 Q2420.24 320.196 2420.24 313.09 Q2420.24 305.96 2418.41 302.419 Q2416.6 298.854 2412.97 298.854 M2412.97 295.15 Q2418.78 295.15 2421.83 299.757 Q2424.91 304.34 2424.91 313.09 Q2424.91 321.817 2421.83 326.423 Q2418.78 331.007 2412.97 331.007 Q2407.16 331.007 2404.08 326.423 Q2401.02 321.817 2401.02 313.09 Q2401.02 304.34 2404.08 299.757 Q2407.16 295.15 2412.97 295.15 Z" fill="#000000" fill-rule="evenodd" fill-opacity="1" /><path clip-path="url(#clip200)" d="M2443.13 298.854 Q2439.52 298.854 2437.69 302.419 Q2435.89 305.96 2435.89 313.09 Q2435.89 320.196 2437.69 323.761 Q2439.52 327.303 2443.13 327.303 Q2446.76 327.303 2448.57 323.761 Q2450.4 320.196 2450.4 313.09 Q2450.4 305.96 2448.57 302.419 Q2446.76 298.854 2443.13 298.854 M2443.13 295.15 Q2448.94 295.15 2452 299.757 Q2455.07 304.34 2455.07 313.09 Q2455.07 321.817 2452 326.423 Q2448.94 331.007 2443.13 331.007 Q2437.32 331.007 2434.24 326.423 Q2431.19 321.817 2431.19 313.09 Q2431.19 304.34 2434.24 299.757 Q2437.32 295.15 2443.13 295.15 Z" fill="#000000" fill-rule="evenodd" fill-opacity="1" /><path clip-path="url(#clip200)" d="M2464.1 326.4 L2471.74 326.4 L2471.74 300.035 L2463.43 301.701 L2463.43 297.442 L2471.7 295.775 L2476.37 295.775 L2476.37 326.4 L2484.01 326.4 L2484.01 330.335 L2464.1 330.335 L2464.1 326.4 Z" fill="#000000" fill-rule="evenodd" fill-opacity="1" /><path clip-path="url(#clip200)" d="M2502.81 294.317 L2502.81 336.585 L2492.99 336.585 L2492.99 333.275 L2498.52 333.275 L2498.52 297.627 L2492.99 297.627 L2492.99 294.317 L2502.81 294.317 Z" fill="#000000" fill-rule="evenodd" fill-opacity="1" /></svg>
