<?xml version="1.0" encoding="utf-8"?>
<svg xmlns="http://www.w3.org/2000/svg" xmlns:xlink="http://www.w3.org/1999/xlink" width="672" height="480" viewBox="0 0 2688 1920">
<defs>
  <clipPath id="clip850">
    <rect x="0" y="0" width="2688" height="1920"/>
  </clipPath>
</defs>
<path clip-path="url(#clip850)" d="
M0 1920 L2688 1920 L2688 0 L0 0  Z
  " fill="#ffffff" fill-rule="evenodd" fill-opacity="1"/>
<defs>
  <clipPath id="clip851">
    <rect x="537" y="0" width="1883" height="1883"/>
  </clipPath>
</defs>
<defs>
  <clipPath id="clip852">
    <rect x="115" y="47" width="2527" height="1755"/>
  </clipPath>
</defs>
<path clip-path="url(#clip850)" d="
M195.821 1800.78 L2640.76 1800.78 L2640.76 47.2441 L195.821 47.2441  Z
  " fill="#ffffff" fill-rule="evenodd" fill-opacity="1"/>
<defs>
  <clipPath id="clip853">
    <rect x="195" y="47" width="2446" height="1755"/>
  </clipPath>
</defs>
<polyline clip-path="url(#clip853)" style="stroke:#000000; stroke-linecap:round; stroke-linejoin:round; stroke-width:2; stroke-opacity:0.1; fill:none" points="
  594.523,1800.78 594.523,47.2441 
  "/>
<polyline clip-path="url(#clip853)" style="stroke:#000000; stroke-linecap:round; stroke-linejoin:round; stroke-width:2; stroke-opacity:0.1; fill:none" points="
  1253.54,1800.78 1253.54,47.2441 
  "/>
<polyline clip-path="url(#clip853)" style="stroke:#000000; stroke-linecap:round; stroke-linejoin:round; stroke-width:2; stroke-opacity:0.1; fill:none" points="
  1912.55,1800.78 1912.55,47.2441 
  "/>
<polyline clip-path="url(#clip853)" style="stroke:#000000; stroke-linecap:round; stroke-linejoin:round; stroke-width:2; stroke-opacity:0.1; fill:none" points="
  2571.56,1800.78 2571.56,47.2441 
  "/>
<polyline clip-path="url(#clip850)" style="stroke:#000000; stroke-linecap:round; stroke-linejoin:round; stroke-width:4; stroke-opacity:1; fill:none" points="
  195.821,1800.78 2640.76,1800.78 
  "/>
<polyline clip-path="url(#clip850)" style="stroke:#000000; stroke-linecap:round; stroke-linejoin:round; stroke-width:4; stroke-opacity:1; fill:none" points="
  594.523,1800.78 594.523,1781.88 
  "/>
<polyline clip-path="url(#clip850)" style="stroke:#000000; stroke-linecap:round; stroke-linejoin:round; stroke-width:4; stroke-opacity:1; fill:none" points="
  1253.54,1800.78 1253.54,1781.88 
  "/>
<polyline clip-path="url(#clip850)" style="stroke:#000000; stroke-linecap:round; stroke-linejoin:round; stroke-width:4; stroke-opacity:1; fill:none" points="
  1912.55,1800.78 1912.55,1781.88 
  "/>
<polyline clip-path="url(#clip850)" style="stroke:#000000; stroke-linecap:round; stroke-linejoin:round; stroke-width:4; stroke-opacity:1; fill:none" points="
  2571.56,1800.78 2571.56,1781.88 
  "/>
<path clip-path="url(#clip850)" d="M594.523 1834 Q590.912 1834 589.083 1837.57 Q587.278 1841.11 587.278 1848.24 Q587.278 1855.34 589.083 1858.91 Q590.912 1862.45 594.523 1862.45 Q598.157 1862.45 599.963 1858.91 Q601.791 1855.34 601.791 1848.24 Q601.791 1841.11 599.963 1837.57 Q598.157 1834 594.523 1834 M594.523 1830.3 Q600.333 1830.3 603.389 1834.9 Q606.467 1839.49 606.467 1848.24 Q606.467 1856.96 603.389 1861.57 Q600.333 1866.15 594.523 1866.15 Q588.713 1866.15 585.634 1861.57 Q582.579 1856.96 582.579 1848.24 Q582.579 1839.49 585.634 1834.9 Q588.713 1830.3 594.523 1830.3 Z" fill="#000000" fill-rule="evenodd" fill-opacity="1" /><path clip-path="url(#clip850)" d="M1243.92 1861.55 L1251.56 1861.55 L1251.56 1835.18 L1243.25 1836.85 L1243.25 1832.59 L1251.51 1830.92 L1256.19 1830.92 L1256.19 1861.55 L1263.82 1861.55 L1263.82 1865.48 L1243.92 1865.48 L1243.92 1861.55 Z" fill="#000000" fill-rule="evenodd" fill-opacity="1" /><path clip-path="url(#clip850)" d="M1907.2 1861.55 L1923.52 1861.55 L1923.52 1865.48 L1901.58 1865.48 L1901.58 1861.55 Q1904.24 1858.79 1908.82 1854.16 Q1913.43 1849.51 1914.61 1848.17 Q1916.85 1845.65 1917.73 1843.91 Q1918.64 1842.15 1918.64 1840.46 Q1918.64 1837.71 1916.69 1835.97 Q1914.77 1834.23 1911.67 1834.23 Q1909.47 1834.23 1907.02 1835 Q1904.58 1835.76 1901.81 1837.31 L1901.81 1832.59 Q1904.63 1831.46 1907.08 1830.88 Q1909.54 1830.3 1911.58 1830.3 Q1916.95 1830.3 1920.14 1832.98 Q1923.33 1835.67 1923.33 1840.16 Q1923.33 1842.29 1922.52 1844.21 Q1921.74 1846.11 1919.63 1848.7 Q1919.05 1849.37 1915.95 1852.59 Q1912.85 1855.78 1907.2 1861.55 Z" fill="#000000" fill-rule="evenodd" fill-opacity="1" /><path clip-path="url(#clip850)" d="M2575.81 1846.85 Q2579.16 1847.57 2581.04 1849.84 Q2582.94 1852.1 2582.94 1855.44 Q2582.94 1860.55 2579.42 1863.35 Q2575.9 1866.15 2569.42 1866.15 Q2567.24 1866.15 2564.93 1865.71 Q2562.64 1865.3 2560.18 1864.44 L2560.18 1859.93 Q2562.13 1861.06 2564.44 1861.64 Q2566.76 1862.22 2569.28 1862.22 Q2573.68 1862.22 2575.97 1860.48 Q2578.28 1858.75 2578.28 1855.44 Q2578.28 1852.38 2576.13 1850.67 Q2574 1848.93 2570.18 1848.93 L2566.15 1848.93 L2566.15 1845.09 L2570.37 1845.09 Q2573.82 1845.09 2575.65 1843.72 Q2577.47 1842.34 2577.47 1839.74 Q2577.47 1837.08 2575.58 1835.67 Q2573.7 1834.23 2570.18 1834.23 Q2568.26 1834.23 2566.06 1834.65 Q2563.86 1835.07 2561.22 1835.95 L2561.22 1831.78 Q2563.89 1831.04 2566.2 1830.67 Q2568.54 1830.3 2570.6 1830.3 Q2575.92 1830.3 2579.02 1832.73 Q2582.13 1835.14 2582.13 1839.26 Q2582.13 1842.13 2580.48 1844.12 Q2578.84 1846.09 2575.81 1846.85 Z" fill="#000000" fill-rule="evenodd" fill-opacity="1" /><polyline clip-path="url(#clip853)" style="stroke:#000000; stroke-linecap:round; stroke-linejoin:round; stroke-width:2; stroke-opacity:0.1; fill:none" points="
  195.821,1481.91 2640.76,1481.91 
  "/>
<polyline clip-path="url(#clip853)" style="stroke:#000000; stroke-linecap:round; stroke-linejoin:round; stroke-width:2; stroke-opacity:0.1; fill:none" points="
  195.821,1152.41 2640.76,1152.41 
  "/>
<polyline clip-path="url(#clip853)" style="stroke:#000000; stroke-linecap:round; stroke-linejoin:round; stroke-width:2; stroke-opacity:0.1; fill:none" points="
  195.821,822.902 2640.76,822.902 
  "/>
<polyline clip-path="url(#clip853)" style="stroke:#000000; stroke-linecap:round; stroke-linejoin:round; stroke-width:2; stroke-opacity:0.1; fill:none" points="
  195.821,493.396 2640.76,493.396 
  "/>
<polyline clip-path="url(#clip853)" style="stroke:#000000; stroke-linecap:round; stroke-linejoin:round; stroke-width:2; stroke-opacity:0.1; fill:none" points="
  195.821,163.89 2640.76,163.89 
  "/>
<polyline clip-path="url(#clip850)" style="stroke:#000000; stroke-linecap:round; stroke-linejoin:round; stroke-width:4; stroke-opacity:1; fill:none" points="
  195.821,1800.78 195.821,47.2441 
  "/>
<polyline clip-path="url(#clip850)" style="stroke:#000000; stroke-linecap:round; stroke-linejoin:round; stroke-width:4; stroke-opacity:1; fill:none" points="
  195.821,1481.91 214.718,1481.91 
  "/>
<polyline clip-path="url(#clip850)" style="stroke:#000000; stroke-linecap:round; stroke-linejoin:round; stroke-width:4; stroke-opacity:1; fill:none" points="
  195.821,1152.41 214.718,1152.41 
  "/>
<polyline clip-path="url(#clip850)" style="stroke:#000000; stroke-linecap:round; stroke-linejoin:round; stroke-width:4; stroke-opacity:1; fill:none" points="
  195.821,822.902 214.718,822.902 
  "/>
<polyline clip-path="url(#clip850)" style="stroke:#000000; stroke-linecap:round; stroke-linejoin:round; stroke-width:4; stroke-opacity:1; fill:none" points="
  195.821,493.396 214.718,493.396 
  "/>
<polyline clip-path="url(#clip850)" style="stroke:#000000; stroke-linecap:round; stroke-linejoin:round; stroke-width:4; stroke-opacity:1; fill:none" points="
  195.821,163.89 214.718,163.89 
  "/>
<path clip-path="url(#clip850)" d="M49.5521 1482.37 L79.2279 1482.37 L79.2279 1486.3 L49.5521 1486.3 L49.5521 1482.37 Z" fill="#000000" fill-rule="evenodd" fill-opacity="1" /><path clip-path="url(#clip850)" d="M99.3204 1467.71 Q95.7093 1467.71 93.8806 1471.28 Q92.075 1474.82 92.075 1481.95 Q92.075 1489.06 93.8806 1492.62 Q95.7093 1496.16 99.3204 1496.16 Q102.955 1496.16 104.76 1492.62 Q106.589 1489.06 106.589 1481.95 Q106.589 1474.82 104.76 1471.28 Q102.955 1467.71 99.3204 1467.71 M99.3204 1464.01 Q105.131 1464.01 108.186 1468.62 Q111.265 1473.2 111.265 1481.95 Q111.265 1490.68 108.186 1495.28 Q105.131 1499.87 99.3204 1499.87 Q93.5102 1499.87 90.4315 1495.28 Q87.376 1490.68 87.376 1481.95 Q87.376 1473.2 90.4315 1468.62 Q93.5102 1464.01 99.3204 1464.01 Z" fill="#000000" fill-rule="evenodd" fill-opacity="1" /><path clip-path="url(#clip850)" d="M119.482 1493.31 L124.367 1493.31 L124.367 1499.19 L119.482 1499.19 L119.482 1493.31 Z" fill="#000000" fill-rule="evenodd" fill-opacity="1" /><path clip-path="url(#clip850)" d="M134.598 1464.63 L152.954 1464.63 L152.954 1468.57 L138.88 1468.57 L138.88 1477.04 Q139.899 1476.69 140.917 1476.53 Q141.936 1476.35 142.954 1476.35 Q148.741 1476.35 152.121 1479.52 Q155.501 1482.69 155.501 1488.11 Q155.501 1493.68 152.028 1496.79 Q148.556 1499.87 142.237 1499.87 Q140.061 1499.87 137.792 1499.49 Q135.547 1499.12 133.14 1498.38 L133.14 1493.68 Q135.223 1494.82 137.445 1495.37 Q139.667 1495.93 142.144 1495.93 Q146.149 1495.93 148.487 1493.82 Q150.825 1491.72 150.825 1488.11 Q150.825 1484.5 148.487 1482.39 Q146.149 1480.28 142.144 1480.28 Q140.269 1480.28 138.394 1480.7 Q136.542 1481.12 134.598 1482 L134.598 1464.63 Z" fill="#000000" fill-rule="evenodd" fill-opacity="1" /><path clip-path="url(#clip850)" d="M98.325 1138.21 Q94.7139 1138.21 92.8852 1141.77 Q91.0797 1145.31 91.0797 1152.44 Q91.0797 1159.55 92.8852 1163.11 Q94.7139 1166.66 98.325 1166.66 Q101.959 1166.66 103.765 1163.11 Q105.593 1159.55 105.593 1152.44 Q105.593 1145.31 103.765 1141.77 Q101.959 1138.21 98.325 1138.21 M98.325 1134.5 Q104.135 1134.5 107.191 1139.11 Q110.269 1143.69 110.269 1152.44 Q110.269 1161.17 107.191 1165.78 Q104.135 1170.36 98.325 1170.36 Q92.5149 1170.36 89.4362 1165.78 Q86.3806 1161.17 86.3806 1152.44 Q86.3806 1143.69 89.4362 1139.11 Q92.5149 1134.5 98.325 1134.5 Z" fill="#000000" fill-rule="evenodd" fill-opacity="1" /><path clip-path="url(#clip850)" d="M118.487 1163.81 L123.371 1163.81 L123.371 1169.69 L118.487 1169.69 L118.487 1163.81 Z" fill="#000000" fill-rule="evenodd" fill-opacity="1" /><path clip-path="url(#clip850)" d="M143.556 1138.21 Q139.945 1138.21 138.116 1141.77 Q136.311 1145.31 136.311 1152.44 Q136.311 1159.55 138.116 1163.11 Q139.945 1166.66 143.556 1166.66 Q147.19 1166.66 148.996 1163.11 Q150.825 1159.55 150.825 1152.44 Q150.825 1145.31 148.996 1141.77 Q147.19 1138.21 143.556 1138.21 M143.556 1134.5 Q149.366 1134.5 152.422 1139.11 Q155.501 1143.69 155.501 1152.44 Q155.501 1161.17 152.422 1165.78 Q149.366 1170.36 143.556 1170.36 Q137.746 1170.36 134.667 1165.78 Q131.612 1161.17 131.612 1152.44 Q131.612 1143.69 134.667 1139.11 Q137.746 1134.5 143.556 1134.5 Z" fill="#000000" fill-rule="evenodd" fill-opacity="1" /><path clip-path="url(#clip850)" d="M99.3204 808.701 Q95.7093 808.701 93.8806 812.265 Q92.075 815.807 92.075 822.937 Q92.075 830.043 93.8806 833.608 Q95.7093 837.149 99.3204 837.149 Q102.955 837.149 104.76 833.608 Q106.589 830.043 106.589 822.937 Q106.589 815.807 104.76 812.265 Q102.955 808.701 99.3204 808.701 M99.3204 804.997 Q105.131 804.997 108.186 809.603 Q111.265 814.187 111.265 822.937 Q111.265 831.663 108.186 836.27 Q105.131 840.853 99.3204 840.853 Q93.5102 840.853 90.4315 836.27 Q87.376 831.663 87.376 822.937 Q87.376 814.187 90.4315 809.603 Q93.5102 804.997 99.3204 804.997 Z" fill="#000000" fill-rule="evenodd" fill-opacity="1" /><path clip-path="url(#clip850)" d="M119.482 834.302 L124.367 834.302 L124.367 840.182 L119.482 840.182 L119.482 834.302 Z" fill="#000000" fill-rule="evenodd" fill-opacity="1" /><path clip-path="url(#clip850)" d="M134.598 805.622 L152.954 805.622 L152.954 809.557 L138.88 809.557 L138.88 818.029 Q139.899 817.682 140.917 817.52 Q141.936 817.335 142.954 817.335 Q148.741 817.335 152.121 820.506 Q155.501 823.677 155.501 829.094 Q155.501 834.673 152.028 837.774 Q148.556 840.853 142.237 840.853 Q140.061 840.853 137.792 840.483 Q135.547 840.112 133.14 839.372 L133.14 834.673 Q135.223 835.807 137.445 836.362 Q139.667 836.918 142.144 836.918 Q146.149 836.918 148.487 834.811 Q150.825 832.705 150.825 829.094 Q150.825 825.483 148.487 823.376 Q146.149 821.27 142.144 821.27 Q140.269 821.27 138.394 821.687 Q136.542 822.103 134.598 822.983 L134.598 805.622 Z" fill="#000000" fill-rule="evenodd" fill-opacity="1" /><path clip-path="url(#clip850)" d="M89.1352 506.741 L96.7741 506.741 L96.7741 480.375 L88.464 482.042 L88.464 477.782 L96.7278 476.116 L101.404 476.116 L101.404 506.741 L109.043 506.741 L109.043 510.676 L89.1352 510.676 L89.1352 506.741 Z" fill="#000000" fill-rule="evenodd" fill-opacity="1" /><path clip-path="url(#clip850)" d="M118.487 504.796 L123.371 504.796 L123.371 510.676 L118.487 510.676 L118.487 504.796 Z" fill="#000000" fill-rule="evenodd" fill-opacity="1" /><path clip-path="url(#clip850)" d="M143.556 479.194 Q139.945 479.194 138.116 482.759 Q136.311 486.301 136.311 493.43 Q136.311 500.537 138.116 504.102 Q139.945 507.643 143.556 507.643 Q147.19 507.643 148.996 504.102 Q150.825 500.537 150.825 493.43 Q150.825 486.301 148.996 482.759 Q147.19 479.194 143.556 479.194 M143.556 475.491 Q149.366 475.491 152.422 480.097 Q155.501 484.68 155.501 493.43 Q155.501 502.157 152.422 506.764 Q149.366 511.347 143.556 511.347 Q137.746 511.347 134.667 506.764 Q131.612 502.157 131.612 493.43 Q131.612 484.68 134.667 480.097 Q137.746 475.491 143.556 475.491 Z" fill="#000000" fill-rule="evenodd" fill-opacity="1" /><path clip-path="url(#clip850)" d="M90.1306 177.234 L97.7695 177.234 L97.7695 150.869 L89.4593 152.536 L89.4593 148.276 L97.7232 146.61 L102.399 146.61 L102.399 177.234 L110.038 177.234 L110.038 181.17 L90.1306 181.17 L90.1306 177.234 Z" fill="#000000" fill-rule="evenodd" fill-opacity="1" /><path clip-path="url(#clip850)" d="M119.482 175.29 L124.367 175.29 L124.367 181.17 L119.482 181.17 L119.482 175.29 Z" fill="#000000" fill-rule="evenodd" fill-opacity="1" /><path clip-path="url(#clip850)" d="M134.598 146.61 L152.954 146.61 L152.954 150.545 L138.88 150.545 L138.88 159.017 Q139.899 158.67 140.917 158.508 Q141.936 158.323 142.954 158.323 Q148.741 158.323 152.121 161.494 Q155.501 164.665 155.501 170.082 Q155.501 175.66 152.028 178.762 Q148.556 181.841 142.237 181.841 Q140.061 181.841 137.792 181.471 Q135.547 181.1 133.14 180.359 L133.14 175.66 Q135.223 176.795 137.445 177.35 Q139.667 177.906 142.144 177.906 Q146.149 177.906 148.487 175.799 Q150.825 173.693 150.825 170.082 Q150.825 166.471 148.487 164.364 Q146.149 162.258 142.144 162.258 Q140.269 162.258 138.394 162.674 Q136.542 163.091 134.598 163.971 L134.598 146.61 Z" fill="#000000" fill-rule="evenodd" fill-opacity="1" /><polyline clip-path="url(#clip853)" style="stroke:#009af9; stroke-linecap:round; stroke-linejoin:round; stroke-width:8; stroke-opacity:1; fill:none" points="
  265.017,1380.8 268.771,1377.07 272.525,1373.38 276.28,1369.73 280.034,1366.12 297.39,1349.92 314.747,1334.49 332.103,1319.74 349.46,1305.63 366.817,1292.09 
  384.173,1279.09 401.53,1266.59 418.886,1254.54 439.747,1240.62 460.609,1227.26 481.47,1214.42 502.331,1202.06 537.606,1182.17 572.882,1163.41 611.201,1144.17 
  649.521,1126 684.848,1110.08 720.175,1094.9 758.049,1079.37 795.923,1064.54 839.804,1048.15 883.685,1032.53 922.681,1019.25 961.678,1006.49 995.874,995.687 
  1030.07,985.228 1104.64,963.512 1179.65,943.022 1262.58,921.759 1341.49,902.727 1423.53,884.038 1492.6,869.089 1576.92,851.712 1654.16,836.559 1725.5,823.158 
  1797.77,810.116 1878.76,796.089 1952.15,783.874 2036.17,770.423 2113.97,758.44 2190.67,747.038 2265.14,736.333 2341.49,725.708 2425.13,714.447 2546.63,698.746 
  2571.56,695.615 
  "/>
<circle clip-path="url(#clip853)" cx="1253.54" cy="924.012" r="14.4" fill="#e26f46" fill-rule="evenodd" fill-opacity="1" stroke="#000000" stroke-opacity="1" stroke-width="3.84"/>
<polyline clip-path="url(#clip853)" style="stroke:#3da44d; stroke-linecap:round; stroke-linejoin:round; stroke-width:4; stroke-opacity:1; fill:none" points="
  265.017,1171.14 280.034,1167.39 418.886,1132.67 502.331,1111.81 572.882,1094.17 649.521,1075.02 720.175,1057.35 795.923,1038.41 883.685,1016.47 961.678,996.976 
  1030.07,979.878 1104.64,961.236 1179.65,942.484 1262.58,921.751 1341.49,902.024 1423.53,881.513 1492.6,864.246 1576.92,843.166 1654.16,823.855 1725.5,806.02 
  1797.77,787.954 1878.76,767.707 1952.15,749.359 2036.17,728.353 2113.97,708.903 2190.67,689.727 2265.14,671.109 2341.49,652.024 2425.13,631.113 2546.63,600.737 
  2571.56,594.506 
  "/>
<polyline clip-path="url(#clip853)" style="stroke:#c271d2; stroke-linecap:round; stroke-linejoin:round; stroke-width:4; stroke-opacity:1; fill:none" points="
  1055.83,133.197 1058.41,143.494 1082.21,238.707 1096.51,295.927 1108.61,344.305 1121.75,396.857 1133.86,445.305 1146.84,497.247 1161.89,557.427 1175.26,610.907 
  1186.98,657.805 1199.77,708.936 1212.63,760.371 1226.84,817.239 1240.37,871.347 1254.43,927.607 1266.27,974.966 1280.73,1032.79 1293.97,1085.75 1306.2,1134.67 
  1318.59,1184.23 1332.47,1239.76 1345.05,1290.08 1359.46,1347.7 1372.8,1401.05 1385.94,1453.65 1398.71,1504.71 1411.8,1557.06 1426.14,1614.42 1446.97,1697.73 
  1451.24,1714.83 
  "/>
<path clip-path="url(#clip850)" d="
M2072.72 313.055 L2559.26 313.055 L2559.26 105.695 L2072.72 105.695  Z
  " fill="#ffffff" fill-rule="evenodd" fill-opacity="1"/>
<polyline clip-path="url(#clip850)" style="stroke:#000000; stroke-linecap:round; stroke-linejoin:round; stroke-width:4; stroke-opacity:1; fill:none" points="
  2072.72,313.055 2559.26,313.055 2559.26,105.695 2072.72,105.695 2072.72,313.055 
  "/>
<polyline clip-path="url(#clip850)" style="stroke:#009af9; stroke-linecap:round; stroke-linejoin:round; stroke-width:4; stroke-opacity:1; fill:none" points="
  2099.88,157.535 2262.88,157.535 
  "/>
<path clip-path="url(#clip850)" d="M2313.96 138.89 Q2313.96 140.178 2313.14 140.974 Q2312.34 141.771 2311.33 141.771 Q2310.61 141.771 2310.07 141.326 Q2309.55 140.88 2309.55 140.108 Q2309.55 139.311 2310.16 138.468 Q2310.77 137.625 2312.15 137.508 Q2311.24 136.641 2309.79 136.641 Q2309.06 136.641 2308.45 137.109 Q2307.87 137.554 2307.54 138.281 Q2307.19 139.03 2306.39 143.27 Q2306.13 144.651 2305.9 145.987 Q2305.67 147.322 2305.38 148.727 L2309.37 148.727 Q2309.88 148.727 2310.09 148.75 Q2310.3 148.774 2310.47 148.891 Q2310.65 149.008 2310.65 149.266 Q2310.65 149.922 2310.35 150.086 Q2310.07 150.226 2309.23 150.226 L2305.1 150.226 L2302.22 165.427 Q2302.15 165.872 2301.85 167.278 Q2301.57 168.659 2300.89 170.931 Q2300.21 173.227 2299.53 174.585 Q2299.15 175.358 2298.66 176.084 Q2298.19 176.834 2297.51 177.583 Q2296.84 178.333 2295.95 178.778 Q2295.06 179.246 2294.12 179.246 Q2292.53 179.246 2291.28 178.356 Q2290.04 177.466 2290.04 175.944 Q2290.04 174.656 2290.84 173.859 Q2291.66 173.063 2292.67 173.063 Q2293.39 173.063 2293.91 173.508 Q2294.45 173.953 2294.45 174.726 Q2294.45 175.054 2294.33 175.429 Q2294.21 175.803 2293.95 176.225 Q2293.7 176.67 2293.13 176.974 Q2292.57 177.279 2291.8 177.326 Q2292.71 178.192 2294.12 178.192 Q2294.56 178.192 2294.96 178.005 Q2295.36 177.841 2295.69 177.419 Q2296.04 176.998 2296.3 176.576 Q2296.55 176.178 2296.81 175.405 Q2297.07 174.656 2297.23 174.094 Q2297.4 173.531 2297.61 172.524 Q2297.84 171.517 2297.96 170.908 Q2298.08 170.322 2298.29 169.175 L2301.87 150.226 L2298.71 150.226 Q2298.15 150.226 2297.91 150.203 Q2297.7 150.179 2297.54 150.062 Q2297.37 149.922 2297.37 149.64 Q2297.37 149.195 2297.56 149.008 Q2297.77 148.797 2298.01 148.774 Q2298.24 148.727 2298.8 148.727 L2302.13 148.727 Q2303.25 142.801 2303.7 141.208 Q2304.21 139.522 2305.01 138.351 Q2305.81 137.156 2306.7 136.594 Q2307.59 136.032 2308.31 135.821 Q2309.06 135.587 2309.79 135.587 Q2311.43 135.587 2312.69 136.477 Q2313.96 137.344 2313.96 138.89 Z" fill="#000000" fill-rule="evenodd" fill-opacity="1" /><path clip-path="url(#clip850)" d="M2320.42 157.417 Q2320.42 149.313 2323.44 142.778 Q2324.73 140.037 2326.53 137.742 Q2328.33 135.446 2329.53 134.439 Q2330.72 133.432 2331.05 133.432 Q2331.52 133.432 2331.54 133.901 Q2331.54 134.135 2330.91 134.72 Q2323.18 142.59 2323.2 157.417 Q2323.2 172.29 2330.72 179.855 Q2331.54 180.675 2331.54 180.933 Q2331.54 181.401 2331.05 181.401 Q2330.72 181.401 2329.57 180.441 Q2328.43 179.481 2326.65 177.279 Q2324.87 175.077 2323.58 172.384 Q2320.42 165.849 2320.42 157.417 Z" fill="#000000" fill-rule="evenodd" fill-opacity="1" /><path clip-path="url(#clip850)" d="M2359.08 151.374 Q2359.08 152.685 2358.26 153.435 Q2357.44 154.161 2356.5 154.161 Q2355.61 154.161 2355.14 153.646 Q2354.68 153.13 2354.68 152.475 Q2354.68 151.585 2355.33 150.812 Q2355.99 150.039 2356.97 149.875 Q2356.01 149.266 2354.58 149.266 Q2353.65 149.266 2352.83 149.758 Q2352.03 150.249 2351.54 150.882 Q2351.07 151.514 2350.65 152.428 Q2350.25 153.318 2350.09 153.857 Q2349.94 154.372 2349.83 154.934 L2348.19 161.492 Q2347.39 164.607 2347.39 165.708 Q2347.39 167.067 2348.05 167.98 Q2348.7 168.87 2350.01 168.87 Q2350.53 168.87 2351.12 168.73 Q2351.7 168.566 2352.45 168.144 Q2353.22 167.699 2353.9 167.043 Q2354.61 166.364 2355.28 165.216 Q2355.96 164.069 2356.41 162.593 Q2356.55 162.078 2357.02 162.078 Q2357.6 162.078 2357.6 162.546 Q2357.6 162.944 2357.28 163.788 Q2356.97 164.607 2356.29 165.685 Q2355.64 166.739 2354.77 167.699 Q2353.9 168.636 2352.61 169.292 Q2351.33 169.948 2349.92 169.948 Q2347.91 169.948 2346.57 168.87 Q2345.24 167.793 2344.74 166.294 Q2344.63 166.505 2344.46 166.786 Q2344.3 167.067 2343.81 167.699 Q2343.34 168.308 2342.8 168.777 Q2342.26 169.222 2341.42 169.573 Q2340.6 169.948 2339.71 169.948 Q2338.58 169.948 2337.58 169.62 Q2336.59 169.292 2335.89 168.542 Q2335.19 167.793 2335.19 166.762 Q2335.19 165.615 2335.96 164.818 Q2336.76 163.998 2337.84 163.998 Q2338.51 163.998 2339.05 164.397 Q2339.62 164.795 2339.62 165.661 Q2339.62 166.622 2338.96 167.348 Q2338.3 168.074 2337.37 168.261 Q2338.33 168.87 2339.76 168.87 Q2341.3 168.87 2342.52 167.512 Q2343.74 166.153 2344.32 163.881 Q2345.78 158.424 2346.34 155.988 Q2346.9 153.529 2346.9 152.475 Q2346.9 151.491 2346.64 150.812 Q2346.38 150.132 2345.94 149.828 Q2345.52 149.5 2345.12 149.383 Q2344.74 149.266 2344.32 149.266 Q2343.62 149.266 2342.82 149.547 Q2342.05 149.828 2341.11 150.484 Q2340.2 151.116 2339.33 152.428 Q2338.47 153.739 2337.88 155.543 Q2337.76 156.082 2337.25 156.082 Q2336.69 156.058 2336.69 155.59 Q2336.69 155.192 2336.99 154.372 Q2337.32 153.529 2337.98 152.475 Q2338.66 151.421 2339.52 150.484 Q2340.41 149.523 2341.7 148.868 Q2343.01 148.212 2344.42 148.212 Q2345.05 148.212 2345.66 148.352 Q2346.29 148.469 2347.04 148.821 Q2347.81 149.172 2348.49 149.945 Q2349.17 150.718 2349.59 151.842 Q2349.87 151.303 2350.25 150.788 Q2350.65 150.273 2351.26 149.64 Q2351.89 148.985 2352.76 148.61 Q2353.65 148.212 2354.63 148.212 Q2355.59 148.212 2356.53 148.469 Q2357.46 148.704 2358.26 149.477 Q2359.08 150.226 2359.08 151.374 Z" fill="#000000" fill-rule="evenodd" fill-opacity="1" /><path clip-path="url(#clip850)" d="M2363.7 180.933 Q2363.7 180.699 2364.31 180.113 Q2372.04 172.243 2372.04 157.417 Q2372.04 142.543 2364.61 135.025 Q2363.7 134.158 2363.7 133.901 Q2363.7 133.432 2364.17 133.432 Q2364.5 133.432 2365.64 134.392 Q2366.81 135.353 2368.57 137.554 Q2370.35 139.756 2371.66 142.45 Q2374.82 148.985 2374.82 157.417 Q2374.82 165.521 2371.8 172.056 Q2370.51 174.796 2368.71 177.092 Q2366.91 179.387 2365.71 180.394 Q2364.52 181.401 2364.17 181.401 Q2363.7 181.401 2363.7 180.933 Z" fill="#000000" fill-rule="evenodd" fill-opacity="1" /><polyline clip-path="url(#clip850)" style="stroke:#3da44d; stroke-linecap:round; stroke-linejoin:round; stroke-width:4; stroke-opacity:1; fill:none" points="
  2099.88,209.375 2262.88,209.375 
  "/>
<path clip-path="url(#clip850)" d="M2290.04 192.095 L2319.28 192.095 L2319.28 196.03 L2307.01 196.03 L2307.01 226.655 L2302.31 226.655 L2302.31 196.03 L2290.04 196.03 L2290.04 192.095 Z" fill="#000000" fill-rule="evenodd" fill-opacity="1" /><path clip-path="url(#clip850)" d="M2327.54 213.623 Q2322.38 213.623 2320.39 214.803 Q2318.4 215.984 2318.4 218.831 Q2318.4 221.1 2319.88 222.442 Q2321.39 223.762 2323.95 223.762 Q2327.5 223.762 2329.63 221.262 Q2331.78 218.739 2331.78 214.572 L2331.78 213.623 L2327.54 213.623 M2336.04 211.864 L2336.04 226.655 L2331.78 226.655 L2331.78 222.72 Q2330.32 225.081 2328.14 226.215 Q2325.97 227.327 2322.82 227.327 Q2318.84 227.327 2316.48 225.104 Q2314.14 222.859 2314.14 219.109 Q2314.14 214.734 2317.06 212.512 Q2320 210.29 2325.81 210.29 L2331.78 210.29 L2331.78 209.873 Q2331.78 206.933 2329.83 205.336 Q2327.91 203.716 2324.42 203.716 Q2322.2 203.716 2320.09 204.248 Q2317.98 204.78 2316.04 205.845 L2316.04 201.91 Q2318.38 201.007 2320.58 200.567 Q2322.77 200.104 2324.86 200.104 Q2330.48 200.104 2333.26 203.021 Q2336.04 205.938 2336.04 211.864 Z" fill="#000000" fill-rule="evenodd" fill-opacity="1" /><path clip-path="url(#clip850)" d="M2366.36 211.007 L2366.36 226.655 L2362.1 226.655 L2362.1 211.146 Q2362.1 207.466 2360.67 205.637 Q2359.23 203.808 2356.36 203.808 Q2352.91 203.808 2350.92 206.007 Q2348.93 208.206 2348.93 212.003 L2348.93 226.655 L2344.65 226.655 L2344.65 200.729 L2348.93 200.729 L2348.93 204.757 Q2350.46 202.419 2352.52 201.262 Q2354.6 200.104 2357.31 200.104 Q2361.78 200.104 2364.07 202.882 Q2366.36 205.637 2366.36 211.007 Z" fill="#000000" fill-rule="evenodd" fill-opacity="1" /><path clip-path="url(#clip850)" d="M2391.92 213.391 Q2391.92 208.762 2390 206.216 Q2388.1 203.669 2384.65 203.669 Q2381.22 203.669 2379.3 206.216 Q2377.4 208.762 2377.4 213.391 Q2377.4 217.998 2379.3 220.544 Q2381.22 223.09 2384.65 223.09 Q2388.1 223.09 2390 220.544 Q2391.92 217.998 2391.92 213.391 M2396.18 223.438 Q2396.18 230.058 2393.24 233.276 Q2390.3 236.516 2384.23 236.516 Q2381.99 236.516 2380 236.169 Q2378.01 235.845 2376.13 235.151 L2376.13 231.007 Q2378.01 232.026 2379.83 232.512 Q2381.66 232.998 2383.56 232.998 Q2387.75 232.998 2389.83 230.799 Q2391.92 228.623 2391.92 224.202 L2391.92 222.095 Q2390.6 224.387 2388.54 225.521 Q2386.48 226.655 2383.61 226.655 Q2378.84 226.655 2375.92 223.021 Q2373.01 219.387 2373.01 213.391 Q2373.01 207.373 2375.92 203.739 Q2378.84 200.104 2383.61 200.104 Q2386.48 200.104 2388.54 201.239 Q2390.6 202.373 2391.92 204.665 L2391.92 200.729 L2396.18 200.729 L2396.18 223.438 Z" fill="#000000" fill-rule="evenodd" fill-opacity="1" /><path clip-path="url(#clip850)" d="M2427.13 212.628 L2427.13 214.711 L2407.54 214.711 Q2407.82 219.109 2410.18 221.424 Q2412.57 223.715 2416.8 223.715 Q2419.26 223.715 2421.55 223.114 Q2423.86 222.512 2426.13 221.308 L2426.13 225.336 Q2423.84 226.308 2421.43 226.817 Q2419.02 227.327 2416.55 227.327 Q2410.34 227.327 2406.71 223.715 Q2403.1 220.104 2403.1 213.947 Q2403.1 207.581 2406.52 203.854 Q2409.97 200.104 2415.81 200.104 Q2421.04 200.104 2424.07 203.484 Q2427.13 206.841 2427.13 212.628 M2422.87 211.378 Q2422.82 207.882 2420.9 205.799 Q2419 203.716 2415.85 203.716 Q2412.29 203.716 2410.14 205.729 Q2408.01 207.743 2407.68 211.401 L2422.87 211.378 Z" fill="#000000" fill-rule="evenodd" fill-opacity="1" /><path clip-path="url(#clip850)" d="M2455.67 211.007 L2455.67 226.655 L2451.41 226.655 L2451.41 211.146 Q2451.41 207.466 2449.97 205.637 Q2448.54 203.808 2445.67 203.808 Q2442.22 203.808 2440.23 206.007 Q2438.24 208.206 2438.24 212.003 L2438.24 226.655 L2433.95 226.655 L2433.95 200.729 L2438.24 200.729 L2438.24 204.757 Q2439.76 202.419 2441.82 201.262 Q2443.91 200.104 2446.62 200.104 Q2451.08 200.104 2453.38 202.882 Q2455.67 205.637 2455.67 211.007 Z" fill="#000000" fill-rule="evenodd" fill-opacity="1" /><path clip-path="url(#clip850)" d="M2468.38 193.368 L2468.38 200.729 L2477.15 200.729 L2477.15 204.04 L2468.38 204.04 L2468.38 218.114 Q2468.38 221.285 2469.23 222.188 Q2470.11 223.09 2472.77 223.09 L2477.15 223.09 L2477.15 226.655 L2472.77 226.655 Q2467.84 226.655 2465.97 224.827 Q2464.09 222.975 2464.09 218.114 L2464.09 204.04 L2460.97 204.04 L2460.97 200.729 L2464.09 200.729 L2464.09 193.368 L2468.38 193.368 Z" fill="#000000" fill-rule="evenodd" fill-opacity="1" /><path clip-path="url(#clip850)" d="M2504.93 212.628 L2504.93 214.711 L2485.34 214.711 Q2485.62 219.109 2487.98 221.424 Q2490.37 223.715 2494.6 223.715 Q2497.06 223.715 2499.35 223.114 Q2501.66 222.512 2503.93 221.308 L2503.93 225.336 Q2501.64 226.308 2499.23 226.817 Q2496.82 227.327 2494.35 227.327 Q2488.14 227.327 2484.51 223.715 Q2480.9 220.104 2480.9 213.947 Q2480.9 207.581 2484.32 203.854 Q2487.77 200.104 2493.61 200.104 Q2498.84 200.104 2501.87 203.484 Q2504.93 206.841 2504.93 212.628 M2500.67 211.378 Q2500.62 207.882 2498.7 205.799 Q2496.8 203.716 2493.65 203.716 Q2490.09 203.716 2487.94 205.729 Q2485.81 207.743 2485.48 211.401 L2500.67 211.378 Z" fill="#000000" fill-rule="evenodd" fill-opacity="1" /><polyline clip-path="url(#clip850)" style="stroke:#c271d2; stroke-linecap:round; stroke-linejoin:round; stroke-width:4; stroke-opacity:1; fill:none" points="
  2099.88,261.215 2262.88,261.215 
  "/>
<path clip-path="url(#clip850)" d="M2290.04 243.935 L2296.34 243.935 L2311.66 272.847 L2311.66 243.935 L2316.2 243.935 L2316.2 278.495 L2309.9 278.495 L2294.58 249.583 L2294.58 278.495 L2290.04 278.495 L2290.04 243.935 Z" fill="#000000" fill-rule="evenodd" fill-opacity="1" /><path clip-path="url(#clip850)" d="M2335.37 255.556 Q2331.94 255.556 2329.95 258.241 Q2327.96 260.903 2327.96 265.556 Q2327.96 270.208 2329.93 272.893 Q2331.92 275.555 2335.37 275.555 Q2338.77 275.555 2340.76 272.87 Q2342.75 270.185 2342.75 265.556 Q2342.75 260.949 2340.76 258.264 Q2338.77 255.556 2335.37 255.556 M2335.37 251.944 Q2340.92 251.944 2344.09 255.556 Q2347.26 259.167 2347.26 265.556 Q2347.26 271.921 2344.09 275.555 Q2340.92 279.167 2335.37 279.167 Q2329.79 279.167 2326.62 275.555 Q2323.47 271.921 2323.47 265.556 Q2323.47 259.167 2326.62 255.556 Q2329.79 251.944 2335.37 251.944 Z" fill="#000000" fill-rule="evenodd" fill-opacity="1" /><path clip-path="url(#clip850)" d="M2369.35 256.551 Q2368.63 256.134 2367.77 255.949 Q2366.94 255.741 2365.92 255.741 Q2362.31 255.741 2360.37 258.102 Q2358.45 260.44 2358.45 264.838 L2358.45 278.495 L2354.16 278.495 L2354.16 252.569 L2358.45 252.569 L2358.45 256.597 Q2359.79 254.236 2361.94 253.102 Q2364.09 251.944 2367.17 251.944 Q2367.61 251.944 2368.14 252.014 Q2368.68 252.06 2369.33 252.176 L2369.35 256.551 Z" fill="#000000" fill-rule="evenodd" fill-opacity="1" /><path clip-path="url(#clip850)" d="M2393.17 257.546 Q2394.76 254.676 2396.99 253.31 Q2399.21 251.944 2402.22 251.944 Q2406.27 251.944 2408.47 254.792 Q2410.67 257.616 2410.67 262.847 L2410.67 278.495 L2406.39 278.495 L2406.39 262.986 Q2406.39 259.259 2405.07 257.454 Q2403.75 255.648 2401.04 255.648 Q2397.73 255.648 2395.81 257.847 Q2393.89 260.046 2393.89 263.843 L2393.89 278.495 L2389.6 278.495 L2389.6 262.986 Q2389.6 259.236 2388.28 257.454 Q2386.96 255.648 2384.21 255.648 Q2380.95 255.648 2379.02 257.87 Q2377.1 260.069 2377.1 263.843 L2377.1 278.495 L2372.82 278.495 L2372.82 252.569 L2377.1 252.569 L2377.1 256.597 Q2378.56 254.213 2380.6 253.079 Q2382.64 251.944 2385.44 251.944 Q2388.26 251.944 2390.23 253.38 Q2392.22 254.815 2393.17 257.546 Z" fill="#000000" fill-rule="evenodd" fill-opacity="1" /><path clip-path="url(#clip850)" d="M2430.95 265.463 Q2425.78 265.463 2423.79 266.643 Q2421.8 267.824 2421.8 270.671 Q2421.8 272.94 2423.28 274.282 Q2424.79 275.602 2427.36 275.602 Q2430.9 275.602 2433.03 273.102 Q2435.18 270.579 2435.18 266.412 L2435.18 265.463 L2430.95 265.463 M2439.44 263.704 L2439.44 278.495 L2435.18 278.495 L2435.18 274.56 Q2433.72 276.921 2431.55 278.055 Q2429.37 279.167 2426.22 279.167 Q2422.24 279.167 2419.88 276.944 Q2417.54 274.699 2417.54 270.949 Q2417.54 266.574 2420.46 264.352 Q2423.4 262.13 2429.21 262.13 L2435.18 262.13 L2435.18 261.713 Q2435.18 258.773 2433.24 257.176 Q2431.32 255.556 2427.82 255.556 Q2425.6 255.556 2423.49 256.088 Q2421.38 256.62 2419.44 257.685 L2419.44 253.75 Q2421.78 252.847 2423.98 252.407 Q2426.18 251.944 2428.26 251.944 Q2433.88 251.944 2436.66 254.861 Q2439.44 257.778 2439.44 263.704 Z" fill="#000000" fill-rule="evenodd" fill-opacity="1" /><path clip-path="url(#clip850)" d="M2448.21 242.477 L2452.47 242.477 L2452.47 278.495 L2448.21 278.495 L2448.21 242.477 Z" fill="#000000" fill-rule="evenodd" fill-opacity="1" /></svg>
