<?xml version="1.0" encoding="utf-8"?>
<svg xmlns="http://www.w3.org/2000/svg" xmlns:xlink="http://www.w3.org/1999/xlink" width="672" height="480" viewBox="0 0 2688 1920">
<defs>
  <clipPath id="clip770">
    <rect x="0" y="0" width="2688" height="1920"/>
  </clipPath>
</defs>
<path clip-path="url(#clip770)" d="
M0 1920 L2688 1920 L2688 0 L0 0  Z
  " fill="#ffffff" fill-rule="evenodd" fill-opacity="1"/>
<defs>
  <clipPath id="clip771">
    <rect x="537" y="0" width="1883" height="1883"/>
  </clipPath>
</defs>
<path clip-path="url(#clip770)" d="
M115.057 1800.78 L2640.76 1800.78 L2640.76 47.2441 L115.057 47.2441  Z
  " fill="#ffffff" fill-rule="evenodd" fill-opacity="1"/>
<defs>
  <clipPath id="clip772">
    <rect x="115" y="47" width="2527" height="1755"/>
  </clipPath>
</defs>
<polyline clip-path="url(#clip772)" style="stroke:#000000; stroke-linecap:round; stroke-linejoin:round; stroke-width:2; stroke-opacity:0.1; fill:none" points="
  186.539,1800.78 186.539,47.2441 
  "/>
<polyline clip-path="url(#clip772)" style="stroke:#000000; stroke-linecap:round; stroke-linejoin:round; stroke-width:2; stroke-opacity:0.1; fill:none" points="
  782.223,1800.78 782.223,47.2441 
  "/>
<polyline clip-path="url(#clip772)" style="stroke:#000000; stroke-linecap:round; stroke-linejoin:round; stroke-width:2; stroke-opacity:0.1; fill:none" points="
  1377.91,1800.78 1377.91,47.2441 
  "/>
<polyline clip-path="url(#clip772)" style="stroke:#000000; stroke-linecap:round; stroke-linejoin:round; stroke-width:2; stroke-opacity:0.1; fill:none" points="
  1973.59,1800.78 1973.59,47.2441 
  "/>
<polyline clip-path="url(#clip772)" style="stroke:#000000; stroke-linecap:round; stroke-linejoin:round; stroke-width:2; stroke-opacity:0.1; fill:none" points="
  2569.27,1800.78 2569.27,47.2441 
  "/>
<polyline clip-path="url(#clip770)" style="stroke:#000000; stroke-linecap:round; stroke-linejoin:round; stroke-width:4; stroke-opacity:1; fill:none" points="
  115.057,1800.78 2640.76,1800.78 
  "/>
<polyline clip-path="url(#clip770)" style="stroke:#000000; stroke-linecap:round; stroke-linejoin:round; stroke-width:4; stroke-opacity:1; fill:none" points="
  186.539,1800.78 186.539,1781.88 
  "/>
<polyline clip-path="url(#clip770)" style="stroke:#000000; stroke-linecap:round; stroke-linejoin:round; stroke-width:4; stroke-opacity:1; fill:none" points="
  782.223,1800.78 782.223,1781.88 
  "/>
<polyline clip-path="url(#clip770)" style="stroke:#000000; stroke-linecap:round; stroke-linejoin:round; stroke-width:4; stroke-opacity:1; fill:none" points="
  1377.91,1800.78 1377.91,1781.88 
  "/>
<polyline clip-path="url(#clip770)" style="stroke:#000000; stroke-linecap:round; stroke-linejoin:round; stroke-width:4; stroke-opacity:1; fill:none" points="
  1973.59,1800.78 1973.59,1781.88 
  "/>
<polyline clip-path="url(#clip770)" style="stroke:#000000; stroke-linecap:round; stroke-linejoin:round; stroke-width:4; stroke-opacity:1; fill:none" points="
  2569.27,1800.78 2569.27,1781.88 
  "/>
<path clip-path="url(#clip770)" d="M164.421 1834 Q160.81 1834 158.981 1837.57 Q157.176 1841.11 157.176 1848.24 Q157.176 1855.34 158.981 1858.91 Q160.81 1862.45 164.421 1862.45 Q168.056 1862.45 169.861 1858.91 Q171.69 1855.34 171.69 1848.24 Q171.69 1841.11 169.861 1837.57 Q168.056 1834 164.421 1834 M164.421 1830.3 Q170.231 1830.3 173.287 1834.9 Q176.366 1839.49 176.366 1848.24 Q176.366 1856.96 173.287 1861.57 Q170.231 1866.15 164.421 1866.15 Q158.611 1866.15 155.532 1861.57 Q152.477 1856.96 152.477 1848.24 Q152.477 1839.49 155.532 1834.9 Q158.611 1830.3 164.421 1830.3 Z" fill="#000000" fill-rule="evenodd" fill-opacity="1" /><path clip-path="url(#clip770)" d="M184.583 1859.6 L189.467 1859.6 L189.467 1865.48 L184.583 1865.48 L184.583 1859.6 Z" fill="#000000" fill-rule="evenodd" fill-opacity="1" /><path clip-path="url(#clip770)" d="M199.699 1830.92 L218.055 1830.92 L218.055 1834.86 L203.981 1834.86 L203.981 1843.33 Q205 1842.98 206.018 1842.82 Q207.037 1842.64 208.055 1842.64 Q213.842 1842.64 217.222 1845.81 Q220.602 1848.98 220.602 1854.4 Q220.602 1859.97 217.129 1863.08 Q213.657 1866.15 207.338 1866.15 Q205.162 1866.15 202.893 1865.78 Q200.648 1865.41 198.241 1864.67 L198.241 1859.97 Q200.324 1861.11 202.546 1861.66 Q204.768 1862.22 207.245 1862.22 Q211.25 1862.22 213.588 1860.11 Q215.926 1858.01 215.926 1854.4 Q215.926 1850.78 213.588 1848.68 Q211.25 1846.57 207.245 1846.57 Q205.37 1846.57 203.495 1846.99 Q201.643 1847.4 199.699 1848.28 L199.699 1830.92 Z" fill="#000000" fill-rule="evenodd" fill-opacity="1" /><path clip-path="url(#clip770)" d="M749.376 1861.55 L757.015 1861.55 L757.015 1835.18 L748.705 1836.85 L748.705 1832.59 L756.968 1830.92 L761.644 1830.92 L761.644 1861.55 L769.283 1861.55 L769.283 1865.48 L749.376 1865.48 L749.376 1861.55 Z" fill="#000000" fill-rule="evenodd" fill-opacity="1" /><path clip-path="url(#clip770)" d="M778.728 1859.6 L783.612 1859.6 L783.612 1865.48 L778.728 1865.48 L778.728 1859.6 Z" fill="#000000" fill-rule="evenodd" fill-opacity="1" /><path clip-path="url(#clip770)" d="M803.797 1834 Q800.186 1834 798.357 1837.57 Q796.552 1841.11 796.552 1848.24 Q796.552 1855.34 798.357 1858.91 Q800.186 1862.45 803.797 1862.45 Q807.431 1862.45 809.237 1858.91 Q811.065 1855.34 811.065 1848.24 Q811.065 1841.11 809.237 1837.57 Q807.431 1834 803.797 1834 M803.797 1830.3 Q809.607 1830.3 812.663 1834.9 Q815.741 1839.49 815.741 1848.24 Q815.741 1856.96 812.663 1861.57 Q809.607 1866.15 803.797 1866.15 Q797.987 1866.15 794.908 1861.57 Q791.852 1856.96 791.852 1848.24 Q791.852 1839.49 794.908 1834.9 Q797.987 1830.3 803.797 1830.3 Z" fill="#000000" fill-rule="evenodd" fill-opacity="1" /><path clip-path="url(#clip770)" d="M1345.56 1861.55 L1353.2 1861.55 L1353.2 1835.18 L1344.89 1836.85 L1344.89 1832.59 L1353.15 1830.92 L1357.83 1830.92 L1357.83 1861.55 L1365.46 1861.55 L1365.46 1865.48 L1345.56 1865.48 L1345.56 1861.55 Z" fill="#000000" fill-rule="evenodd" fill-opacity="1" /><path clip-path="url(#clip770)" d="M1374.91 1859.6 L1379.79 1859.6 L1379.79 1865.48 L1374.91 1865.48 L1374.91 1859.6 Z" fill="#000000" fill-rule="evenodd" fill-opacity="1" /><path clip-path="url(#clip770)" d="M1390.02 1830.92 L1408.38 1830.92 L1408.38 1834.86 L1394.31 1834.86 L1394.31 1843.33 Q1395.33 1842.98 1396.34 1842.82 Q1397.36 1842.64 1398.38 1842.64 Q1404.17 1842.64 1407.55 1845.81 Q1410.93 1848.98 1410.93 1854.4 Q1410.93 1859.97 1407.45 1863.08 Q1403.98 1866.15 1397.66 1866.15 Q1395.49 1866.15 1393.22 1865.78 Q1390.97 1865.41 1388.57 1864.67 L1388.57 1859.97 Q1390.65 1861.11 1392.87 1861.66 Q1395.09 1862.22 1397.57 1862.22 Q1401.58 1862.22 1403.91 1860.11 Q1406.25 1858.01 1406.25 1854.4 Q1406.25 1850.78 1403.91 1848.68 Q1401.58 1846.57 1397.57 1846.57 Q1395.7 1846.57 1393.82 1846.99 Q1391.97 1847.4 1390.02 1848.28 L1390.02 1830.92 Z" fill="#000000" fill-rule="evenodd" fill-opacity="1" /><path clip-path="url(#clip770)" d="M1944.83 1861.55 L1961.15 1861.55 L1961.15 1865.48 L1939.2 1865.48 L1939.2 1861.55 Q1941.87 1858.79 1946.45 1854.16 Q1951.06 1849.51 1952.24 1848.17 Q1954.48 1845.65 1955.36 1843.91 Q1956.26 1842.15 1956.26 1840.46 Q1956.26 1837.71 1954.32 1835.97 Q1952.4 1834.23 1949.3 1834.23 Q1947.1 1834.23 1944.64 1835 Q1942.21 1835.76 1939.44 1837.31 L1939.44 1832.59 Q1942.26 1831.46 1944.71 1830.88 Q1947.17 1830.3 1949.2 1830.3 Q1954.57 1830.3 1957.77 1832.98 Q1960.96 1835.67 1960.96 1840.16 Q1960.96 1842.29 1960.15 1844.21 Q1959.37 1846.11 1957.26 1848.7 Q1956.68 1849.37 1953.58 1852.59 Q1950.48 1855.78 1944.83 1861.55 Z" fill="#000000" fill-rule="evenodd" fill-opacity="1" /><path clip-path="url(#clip770)" d="M1970.96 1859.6 L1975.85 1859.6 L1975.85 1865.48 L1970.96 1865.48 L1970.96 1859.6 Z" fill="#000000" fill-rule="evenodd" fill-opacity="1" /><path clip-path="url(#clip770)" d="M1996.03 1834 Q1992.42 1834 1990.59 1837.57 Q1988.79 1841.11 1988.79 1848.24 Q1988.79 1855.34 1990.59 1858.91 Q1992.42 1862.45 1996.03 1862.45 Q1999.67 1862.45 2001.47 1858.91 Q2003.3 1855.34 2003.3 1848.24 Q2003.3 1841.11 2001.47 1837.57 Q1999.67 1834 1996.03 1834 M1996.03 1830.3 Q2001.84 1830.3 2004.9 1834.9 Q2007.98 1839.49 2007.98 1848.24 Q2007.98 1856.96 2004.9 1861.57 Q2001.84 1866.15 1996.03 1866.15 Q1990.22 1866.15 1987.14 1861.57 Q1984.09 1856.96 1984.09 1848.24 Q1984.09 1839.49 1987.14 1834.9 Q1990.22 1830.3 1996.03 1830.3 Z" fill="#000000" fill-rule="evenodd" fill-opacity="1" /><path clip-path="url(#clip770)" d="M2541.01 1861.55 L2557.33 1861.55 L2557.33 1865.48 L2535.39 1865.48 L2535.39 1861.55 Q2538.05 1858.79 2542.63 1854.16 Q2547.24 1849.51 2548.42 1848.17 Q2550.66 1845.65 2551.54 1843.91 Q2552.45 1842.15 2552.45 1840.46 Q2552.45 1837.71 2550.5 1835.97 Q2548.58 1834.23 2545.48 1834.23 Q2543.28 1834.23 2540.82 1835 Q2538.39 1835.76 2535.62 1837.31 L2535.62 1832.59 Q2538.44 1831.46 2540.89 1830.88 Q2543.35 1830.3 2545.39 1830.3 Q2550.76 1830.3 2553.95 1832.98 Q2557.14 1835.67 2557.14 1840.16 Q2557.14 1842.29 2556.33 1844.21 Q2555.55 1846.11 2553.44 1848.7 Q2552.86 1849.37 2549.76 1852.59 Q2546.66 1855.78 2541.01 1861.55 Z" fill="#000000" fill-rule="evenodd" fill-opacity="1" /><path clip-path="url(#clip770)" d="M2567.14 1859.6 L2572.03 1859.6 L2572.03 1865.48 L2567.14 1865.48 L2567.14 1859.6 Z" fill="#000000" fill-rule="evenodd" fill-opacity="1" /><path clip-path="url(#clip770)" d="M2582.26 1830.92 L2600.62 1830.92 L2600.62 1834.86 L2586.54 1834.86 L2586.54 1843.33 Q2587.56 1842.98 2588.58 1842.82 Q2589.6 1842.64 2590.62 1842.64 Q2596.4 1842.64 2599.78 1845.81 Q2603.16 1848.98 2603.16 1854.4 Q2603.16 1859.97 2599.69 1863.08 Q2596.22 1866.15 2589.9 1866.15 Q2587.72 1866.15 2585.45 1865.78 Q2583.21 1865.41 2580.8 1864.67 L2580.8 1859.97 Q2582.88 1861.11 2585.11 1861.66 Q2587.33 1862.22 2589.81 1862.22 Q2593.81 1862.22 2596.15 1860.11 Q2598.49 1858.01 2598.49 1854.4 Q2598.49 1850.78 2596.15 1848.68 Q2593.81 1846.57 2589.81 1846.57 Q2587.93 1846.57 2586.06 1846.99 Q2584.2 1847.4 2582.26 1848.28 L2582.26 1830.92 Z" fill="#000000" fill-rule="evenodd" fill-opacity="1" /><polyline clip-path="url(#clip772)" style="stroke:#000000; stroke-linecap:round; stroke-linejoin:round; stroke-width:2; stroke-opacity:0.1; fill:none" points="
  115.057,1613.29 2640.76,1613.29 
  "/>
<polyline clip-path="url(#clip772)" style="stroke:#000000; stroke-linecap:round; stroke-linejoin:round; stroke-width:2; stroke-opacity:0.1; fill:none" points="
  115.057,1337.58 2640.76,1337.58 
  "/>
<polyline clip-path="url(#clip772)" style="stroke:#000000; stroke-linecap:round; stroke-linejoin:round; stroke-width:2; stroke-opacity:0.1; fill:none" points="
  115.057,1061.87 2640.76,1061.87 
  "/>
<polyline clip-path="url(#clip772)" style="stroke:#000000; stroke-linecap:round; stroke-linejoin:round; stroke-width:2; stroke-opacity:0.1; fill:none" points="
  115.057,786.155 2640.76,786.155 
  "/>
<polyline clip-path="url(#clip772)" style="stroke:#000000; stroke-linecap:round; stroke-linejoin:round; stroke-width:2; stroke-opacity:0.1; fill:none" points="
  115.057,510.442 2640.76,510.442 
  "/>
<polyline clip-path="url(#clip772)" style="stroke:#000000; stroke-linecap:round; stroke-linejoin:round; stroke-width:2; stroke-opacity:0.1; fill:none" points="
  115.057,234.729 2640.76,234.729 
  "/>
<polyline clip-path="url(#clip770)" style="stroke:#000000; stroke-linecap:round; stroke-linejoin:round; stroke-width:4; stroke-opacity:1; fill:none" points="
  115.057,1800.78 115.057,47.2441 
  "/>
<polyline clip-path="url(#clip770)" style="stroke:#000000; stroke-linecap:round; stroke-linejoin:round; stroke-width:4; stroke-opacity:1; fill:none" points="
  115.057,1613.29 133.955,1613.29 
  "/>
<polyline clip-path="url(#clip770)" style="stroke:#000000; stroke-linecap:round; stroke-linejoin:round; stroke-width:4; stroke-opacity:1; fill:none" points="
  115.057,1337.58 133.955,1337.58 
  "/>
<polyline clip-path="url(#clip770)" style="stroke:#000000; stroke-linecap:round; stroke-linejoin:round; stroke-width:4; stroke-opacity:1; fill:none" points="
  115.057,1061.87 133.955,1061.87 
  "/>
<polyline clip-path="url(#clip770)" style="stroke:#000000; stroke-linecap:round; stroke-linejoin:round; stroke-width:4; stroke-opacity:1; fill:none" points="
  115.057,786.155 133.955,786.155 
  "/>
<polyline clip-path="url(#clip770)" style="stroke:#000000; stroke-linecap:round; stroke-linejoin:round; stroke-width:4; stroke-opacity:1; fill:none" points="
  115.057,510.442 133.955,510.442 
  "/>
<polyline clip-path="url(#clip770)" style="stroke:#000000; stroke-linecap:round; stroke-linejoin:round; stroke-width:4; stroke-opacity:1; fill:none" points="
  115.057,234.729 133.955,234.729 
  "/>
<path clip-path="url(#clip770)" d="M58.4178 1626.64 L74.7372 1626.64 L74.7372 1630.57 L52.7928 1630.57 L52.7928 1626.64 Q55.4549 1623.88 60.0382 1619.26 Q64.6446 1614.6 65.8252 1613.26 Q68.0705 1610.74 68.9502 1609 Q69.8529 1607.24 69.8529 1605.55 Q69.8529 1602.8 67.9085 1601.06 Q65.9872 1599.32 62.8854 1599.32 Q60.6863 1599.32 58.2326 1600.09 Q55.8021 1600.85 53.0243 1602.4 L53.0243 1597.68 Q55.8484 1596.55 58.3021 1595.97 Q60.7558 1595.39 62.7928 1595.39 Q68.1631 1595.39 71.3576 1598.07 Q74.552 1600.76 74.552 1605.25 Q74.552 1607.38 73.7418 1609.3 Q72.9548 1611.2 70.8483 1613.79 Q70.2696 1614.46 67.1678 1617.68 Q64.0659 1620.88 58.4178 1626.64 Z" fill="#000000" fill-rule="evenodd" fill-opacity="1" /><path clip-path="url(#clip770)" d="M67.6076 1336.23 Q70.964 1336.94 72.839 1339.21 Q74.7372 1341.48 74.7372 1344.82 Q74.7372 1349.93 71.2187 1352.73 Q67.7002 1355.53 61.2187 1355.53 Q59.0428 1355.53 56.728 1355.09 Q54.4364 1354.68 51.9827 1353.82 L51.9827 1349.31 Q53.9271 1350.44 56.2419 1351.02 Q58.5567 1351.6 61.0798 1351.6 Q65.478 1351.6 67.7696 1349.86 Q70.0844 1348.13 70.0844 1344.82 Q70.0844 1341.76 67.9317 1340.05 Q65.802 1338.31 61.9826 1338.31 L57.9549 1338.31 L57.9549 1334.47 L62.1678 1334.47 Q65.6169 1334.47 67.4455 1333.1 Q69.2742 1331.71 69.2742 1329.12 Q69.2742 1326.46 67.3761 1325.05 Q65.5011 1323.61 61.9826 1323.61 Q60.0613 1323.61 57.8623 1324.03 Q55.6632 1324.44 53.0243 1325.32 L53.0243 1321.16 Q55.6864 1320.42 58.0012 1320.05 Q60.3391 1319.68 62.3993 1319.68 Q67.7233 1319.68 70.8252 1322.11 Q73.927 1324.51 73.927 1328.63 Q73.927 1331.5 72.2835 1333.5 Q70.64 1335.46 67.6076 1336.23 Z" fill="#000000" fill-rule="evenodd" fill-opacity="1" /><path clip-path="url(#clip770)" d="M65.1539 1048.66 L53.3484 1067.11 L65.1539 1067.11 L65.1539 1048.66 M63.927 1044.59 L69.8066 1044.59 L69.8066 1067.11 L74.7372 1067.11 L74.7372 1071 L69.8066 1071 L69.8066 1079.15 L65.1539 1079.15 L65.1539 1071 L49.5521 1071 L49.5521 1066.49 L63.927 1044.59 Z" fill="#000000" fill-rule="evenodd" fill-opacity="1" /><path clip-path="url(#clip770)" d="M53.8345 768.875 L72.1909 768.875 L72.1909 772.81 L58.1169 772.81 L58.1169 781.282 Q59.1354 780.935 60.1539 780.773 Q61.1724 780.588 62.1909 780.588 Q67.978 780.588 71.3576 783.759 Q74.7372 786.931 74.7372 792.347 Q74.7372 797.926 71.265 801.028 Q67.7928 804.106 61.4734 804.106 Q59.2974 804.106 57.0289 803.736 Q54.7836 803.366 52.3762 802.625 L52.3762 797.926 Q54.4595 799.06 56.6817 799.616 Q58.9039 800.171 61.3808 800.171 Q65.3854 800.171 67.7233 798.065 Q70.0613 795.958 70.0613 792.347 Q70.0613 788.736 67.7233 786.63 Q65.3854 784.523 61.3808 784.523 Q59.5058 784.523 57.6308 784.94 Q55.7789 785.357 53.8345 786.236 L53.8345 768.875 Z" fill="#000000" fill-rule="evenodd" fill-opacity="1" /><path clip-path="url(#clip770)" d="M63.2095 508.579 Q60.0613 508.579 58.2095 510.731 Q56.3808 512.884 56.3808 516.634 Q56.3808 520.361 58.2095 522.537 Q60.0613 524.69 63.2095 524.69 Q66.3576 524.69 68.1863 522.537 Q70.0381 520.361 70.0381 516.634 Q70.0381 512.884 68.1863 510.731 Q66.3576 508.579 63.2095 508.579 M72.4918 493.926 L72.4918 498.185 Q70.7326 497.352 68.927 496.912 Q67.1446 496.472 65.3854 496.472 Q60.7558 496.472 58.3021 499.597 Q55.8715 502.722 55.5243 509.042 Q56.89 507.028 58.9502 505.963 Q61.0104 504.875 63.4872 504.875 Q68.6955 504.875 71.7048 508.046 Q74.7372 511.194 74.7372 516.634 Q74.7372 521.958 71.589 525.176 Q68.4409 528.393 63.2095 528.393 Q57.2141 528.393 54.0428 523.81 Q50.8716 519.204 50.8716 510.477 Q50.8716 502.282 54.7604 497.421 Q58.6493 492.537 65.2002 492.537 Q66.9594 492.537 68.7418 492.884 Q70.5474 493.232 72.4918 493.926 Z" fill="#000000" fill-rule="evenodd" fill-opacity="1" /><path clip-path="url(#clip770)" d="M52.5151 217.449 L74.7372 217.449 L74.7372 219.44 L62.1909 252.009 L57.3067 252.009 L69.1122 221.384 L52.5151 221.384 L52.5151 217.449 Z" fill="#000000" fill-rule="evenodd" fill-opacity="1" /><polyline clip-path="url(#clip772)" style="stroke:#009af9; stroke-linecap:round; stroke-linejoin:round; stroke-width:4; stroke-opacity:1; fill:none" points="
  186.539,1751.15 202.052,1740.38 345.491,1640.79 431.692,1580.95 504.574,1530.35 583.744,1475.38 656.732,1424.71 734.983,1370.38 825.644,1307.44 906.213,1251.5 
  976.864,1202.45 1053.89,1148.97 1131.38,1095.17 1217.05,1035.69 1298.57,979.095 1383.32,920.251 1454.67,870.717 1541.78,810.241 1621.57,754.841 1695.27,703.675 
  1769.92,651.846 1853.58,593.759 1929.4,541.124 2016.2,480.859 2096.57,425.06 2175.81,370.049 2252.74,316.637 2331.6,261.883 2418.01,201.894 2543.52,114.75 
  2569.27,96.8724 
  "/>
<polyline clip-path="url(#clip772)" style="stroke:#e26f46; stroke-linecap:round; stroke-linejoin:round; stroke-width:4; stroke-opacity:1; fill:none" points="
  186.539,1751.15 202.052,1740.38 345.491,1640.79 431.692,1580.95 504.574,1530.35 583.744,1475.38 656.732,1424.71 734.983,1370.38 825.644,1307.44 906.213,1251.5 
  976.864,1202.45 1053.89,1148.97 1131.38,1095.17 1217.05,1035.69 1298.57,979.095 1383.32,920.251 1454.67,870.717 1541.78,810.241 1621.57,754.841 1695.27,703.675 
  1769.92,651.846 1853.58,593.759 1929.4,541.124 2016.2,480.859 2096.57,425.06 2175.81,370.049 2252.74,316.637 2331.6,261.883 2418.01,201.894 2543.52,114.75 
  2569.27,96.8724 
  "/>
<polyline clip-path="url(#clip772)" style="stroke:#3da44d; stroke-linecap:round; stroke-linejoin:round; stroke-width:4; stroke-opacity:1; fill:none" points="
  186.539,1751.15 202.052,1740.38 345.491,1640.79 431.692,1580.95 504.574,1530.35 583.744,1475.38 656.732,1424.71 734.983,1370.38 825.644,1307.44 906.213,1251.5 
  976.864,1202.45 1053.89,1148.97 1131.38,1095.17 1217.05,1035.69 1298.57,979.095 1383.32,920.251 1454.67,870.717 1541.78,810.241 1621.57,754.841 1695.27,703.675 
  1769.92,651.846 1853.58,593.759 1929.4,541.124 2016.2,480.859 2096.57,425.06 2175.81,370.049 2252.74,316.637 2331.6,261.883 2418.01,201.894 2543.52,114.75 
  2569.27,96.8724 
  "/>
<polyline clip-path="url(#clip772)" style="stroke:#c271d2; stroke-linecap:round; stroke-linejoin:round; stroke-width:4; stroke-opacity:1; fill:none" points="
  186.539,1751.15 202.052,1740.38 345.491,1640.79 431.692,1580.95 504.574,1530.35 583.744,1475.38 656.732,1424.71 734.983,1370.38 825.644,1307.44 906.213,1251.5 
  976.864,1202.45 1053.89,1148.97 1131.38,1095.17 1217.05,1035.69 1298.57,979.095 1383.32,920.251 1454.67,870.717 1541.78,810.241 1621.57,754.841 1695.27,703.675 
  1769.92,651.846 1853.58,593.759 1929.4,541.124 2016.2,480.859 2096.57,425.06 2175.81,370.049 2252.74,316.637 2331.6,261.883 2418.01,201.894 2543.52,114.75 
  2569.27,96.8724 
  "/>
<path clip-path="url(#clip770)" d="
M1842.88 364.895 L2556.57 364.895 L2556.57 105.695 L1842.88 105.695  Z
  " fill="#ffffff" fill-rule="evenodd" fill-opacity="1"/>
<polyline clip-path="url(#clip770)" style="stroke:#000000; stroke-linecap:round; stroke-linejoin:round; stroke-width:4; stroke-opacity:1; fill:none" points="
  1842.88,364.895 2556.57,364.895 2556.57,105.695 1842.88,105.695 1842.88,364.895 
  "/>
<polyline clip-path="url(#clip770)" style="stroke:#009af9; stroke-linecap:round; stroke-linejoin:round; stroke-width:4; stroke-opacity:1; fill:none" points="
  1870.94,157.535 2039.32,157.535 
  "/>
<path clip-path="url(#clip770)" d="M2089.63 141.39 L2089.63 145.95 Q2086.97 144.677 2084.61 144.052 Q2082.25 143.427 2080.05 143.427 Q2076.23 143.427 2074.15 144.908 Q2072.09 146.389 2072.09 149.121 Q2072.09 151.413 2073.45 152.593 Q2074.84 153.751 2078.68 154.468 L2081.51 155.047 Q2086.74 156.042 2089.21 158.565 Q2091.71 161.065 2091.71 165.278 Q2091.71 170.301 2088.34 172.894 Q2084.98 175.487 2078.47 175.487 Q2076.02 175.487 2073.24 174.931 Q2070.49 174.375 2067.52 173.287 L2067.52 168.473 Q2070.37 170.07 2073.1 170.88 Q2075.84 171.69 2078.47 171.69 Q2082.48 171.69 2084.65 170.116 Q2086.83 168.542 2086.83 165.626 Q2086.83 163.079 2085.26 161.644 Q2083.71 160.209 2080.14 159.491 L2077.29 158.936 Q2072.06 157.894 2069.72 155.672 Q2067.39 153.45 2067.39 149.491 Q2067.39 144.908 2070.6 142.269 Q2073.84 139.63 2079.52 139.63 Q2081.95 139.63 2084.47 140.07 Q2086.99 140.51 2089.63 141.39 Z" fill="#000000" fill-rule="evenodd" fill-opacity="1" /><path clip-path="url(#clip770)" d="M2121 160.788 L2121 162.871 L2101.41 162.871 Q2101.69 167.269 2104.05 169.584 Q2106.44 171.875 2110.67 171.875 Q2113.13 171.875 2115.42 171.274 Q2117.73 170.672 2120 169.468 L2120 173.496 Q2117.71 174.468 2115.3 174.977 Q2112.9 175.487 2110.42 175.487 Q2104.21 175.487 2100.58 171.875 Q2096.97 168.264 2096.97 162.107 Q2096.97 155.741 2100.4 152.014 Q2103.84 148.264 2109.68 148.264 Q2114.91 148.264 2117.94 151.644 Q2121 155.001 2121 160.788 M2116.74 159.538 Q2116.69 156.042 2114.77 153.959 Q2112.87 151.876 2109.72 151.876 Q2106.16 151.876 2104.01 153.889 Q2101.88 155.903 2101.55 159.561 L2116.74 159.538 Z" fill="#000000" fill-rule="evenodd" fill-opacity="1" /><path clip-path="url(#clip770)" d="M2146.64 149.885 L2146.64 153.866 Q2144.84 152.871 2143.01 152.385 Q2141.21 151.876 2139.35 151.876 Q2135.21 151.876 2132.92 154.514 Q2130.63 157.13 2130.63 161.876 Q2130.63 166.621 2132.92 169.26 Q2135.21 171.875 2139.35 171.875 Q2141.21 171.875 2143.01 171.389 Q2144.84 170.88 2146.64 169.885 L2146.64 173.82 Q2144.86 174.653 2142.94 175.07 Q2141.04 175.487 2138.89 175.487 Q2133.03 175.487 2129.58 171.806 Q2126.14 168.125 2126.14 161.876 Q2126.14 155.533 2129.61 151.899 Q2133.1 148.264 2139.17 148.264 Q2141.14 148.264 2143.01 148.681 Q2144.89 149.075 2146.64 149.885 Z" fill="#000000" fill-rule="evenodd" fill-opacity="1" /><path clip-path="url(#clip770)" d="M2165.83 161.783 Q2160.67 161.783 2158.68 162.963 Q2156.69 164.144 2156.69 166.991 Q2156.69 169.26 2158.17 170.602 Q2159.68 171.922 2162.25 171.922 Q2165.79 171.922 2167.92 169.422 Q2170.07 166.899 2170.07 162.732 L2170.07 161.783 L2165.83 161.783 M2174.33 160.024 L2174.33 174.815 L2170.07 174.815 L2170.07 170.88 Q2168.61 173.241 2166.44 174.375 Q2164.26 175.487 2161.11 175.487 Q2157.13 175.487 2154.77 173.264 Q2152.43 171.019 2152.43 167.269 Q2152.43 162.894 2155.35 160.672 Q2158.29 158.45 2164.1 158.45 L2170.07 158.45 L2170.07 158.033 Q2170.07 155.093 2168.13 153.496 Q2166.2 151.876 2162.71 151.876 Q2160.49 151.876 2158.38 152.408 Q2156.27 152.94 2154.33 154.005 L2154.33 150.07 Q2156.67 149.167 2158.87 148.727 Q2161.07 148.264 2163.15 148.264 Q2168.77 148.264 2171.55 151.181 Q2174.33 154.098 2174.33 160.024 Z" fill="#000000" fill-rule="evenodd" fill-opacity="1" /><path clip-path="url(#clip770)" d="M2204.65 159.167 L2204.65 174.815 L2200.39 174.815 L2200.39 159.306 Q2200.39 155.626 2198.96 153.797 Q2197.52 151.968 2194.65 151.968 Q2191.2 151.968 2189.21 154.167 Q2187.22 156.366 2187.22 160.163 L2187.22 174.815 L2182.94 174.815 L2182.94 148.889 L2187.22 148.889 L2187.22 152.917 Q2188.75 150.579 2190.81 149.422 Q2192.89 148.264 2195.6 148.264 Q2200.07 148.264 2202.36 151.042 Q2204.65 153.797 2204.65 159.167 Z" fill="#000000" fill-rule="evenodd" fill-opacity="1" /><path clip-path="url(#clip770)" d="M2217.36 141.528 L2217.36 148.889 L2226.14 148.889 L2226.14 152.2 L2217.36 152.2 L2217.36 166.274 Q2217.36 169.445 2218.22 170.348 Q2219.1 171.25 2221.76 171.25 L2226.14 171.25 L2226.14 174.815 L2221.76 174.815 Q2216.83 174.815 2214.95 172.987 Q2213.08 171.135 2213.08 166.274 L2213.08 152.2 L2209.95 152.2 L2209.95 148.889 L2213.08 148.889 L2213.08 141.528 L2217.36 141.528 Z" fill="#000000" fill-rule="evenodd" fill-opacity="1" /><path clip-path="url(#clip770)" d="M2253.91 160.788 L2253.91 162.871 L2234.33 162.871 Q2234.61 167.269 2236.97 169.584 Q2239.35 171.875 2243.59 171.875 Q2246.04 171.875 2248.33 171.274 Q2250.65 170.672 2252.92 169.468 L2252.92 173.496 Q2250.63 174.468 2248.22 174.977 Q2245.81 175.487 2243.33 175.487 Q2237.13 175.487 2233.5 171.875 Q2229.89 168.264 2229.89 162.107 Q2229.89 155.741 2233.31 152.014 Q2236.76 148.264 2242.59 148.264 Q2247.82 148.264 2250.86 151.644 Q2253.91 155.001 2253.91 160.788 M2249.65 159.538 Q2249.61 156.042 2247.69 153.959 Q2245.79 151.876 2242.64 151.876 Q2239.07 151.876 2236.92 153.889 Q2234.79 155.903 2234.47 159.561 L2249.65 159.538 Z" fill="#000000" fill-rule="evenodd" fill-opacity="1" /><path clip-path="url(#clip770)" d="M2275.58 138.797 L2285.39 138.797 L2285.39 142.107 L2279.84 142.107 L2279.84 177.755 L2285.39 177.755 L2285.39 181.065 L2275.58 181.065 L2275.58 138.797 Z" fill="#000000" fill-rule="evenodd" fill-opacity="1" /><path clip-path="url(#clip770)" d="M2295.88 170.88 L2303.52 170.88 L2303.52 144.515 L2295.21 146.181 L2295.21 141.922 L2303.47 140.255 L2308.15 140.255 L2308.15 170.88 L2315.79 170.88 L2315.79 174.815 L2295.88 174.815 L2295.88 170.88 Z" fill="#000000" fill-rule="evenodd" fill-opacity="1" /><path clip-path="url(#clip770)" d="M2325.72 168.936 L2330.6 168.936 L2330.6 172.917 L2326.81 180.324 L2323.82 180.324 L2325.72 172.917 L2325.72 168.936 Z" fill="#000000" fill-rule="evenodd" fill-opacity="1" /><path clip-path="url(#clip770)" d="M2359.4 170.88 L2375.72 170.88 L2375.72 174.815 L2353.77 174.815 L2353.77 170.88 Q2356.44 168.125 2361.02 163.496 Q2365.63 158.843 2366.81 157.501 Q2369.05 154.977 2369.93 153.241 Q2370.83 151.482 2370.83 149.792 Q2370.83 147.038 2368.89 145.302 Q2366.97 143.565 2363.87 143.565 Q2361.67 143.565 2359.21 144.329 Q2356.78 145.093 2354 146.644 L2354 141.922 Q2356.83 140.788 2359.28 140.209 Q2361.74 139.63 2363.77 139.63 Q2369.14 139.63 2372.34 142.315 Q2375.53 145.001 2375.53 149.491 Q2375.53 151.621 2374.72 153.542 Q2373.94 155.44 2371.83 158.033 Q2371.25 158.704 2368.15 161.922 Q2365.05 165.116 2359.4 170.88 Z" fill="#000000" fill-rule="evenodd" fill-opacity="1" /><path clip-path="url(#clip770)" d="M2394.88 138.797 L2394.88 181.065 L2385.07 181.065 L2385.07 177.755 L2390.6 177.755 L2390.6 142.107 L2385.07 142.107 L2385.07 138.797 L2394.88 138.797 Z" fill="#000000" fill-rule="evenodd" fill-opacity="1" /><polyline clip-path="url(#clip770)" style="stroke:#e26f46; stroke-linecap:round; stroke-linejoin:round; stroke-width:4; stroke-opacity:1; fill:none" points="
  1870.94,209.375 2039.32,209.375 
  "/>
<path clip-path="url(#clip770)" d="M2089.63 193.23 L2089.63 197.79 Q2086.97 196.517 2084.61 195.892 Q2082.25 195.267 2080.05 195.267 Q2076.23 195.267 2074.15 196.748 Q2072.09 198.229 2072.09 200.961 Q2072.09 203.253 2073.45 204.433 Q2074.84 205.591 2078.68 206.308 L2081.51 206.887 Q2086.74 207.882 2089.21 210.405 Q2091.71 212.905 2091.71 217.118 Q2091.71 222.141 2088.34 224.734 Q2084.98 227.327 2078.47 227.327 Q2076.02 227.327 2073.24 226.771 Q2070.49 226.215 2067.52 225.127 L2067.52 220.313 Q2070.37 221.91 2073.1 222.72 Q2075.84 223.53 2078.47 223.53 Q2082.48 223.53 2084.65 221.956 Q2086.83 220.382 2086.83 217.466 Q2086.83 214.919 2085.26 213.484 Q2083.71 212.049 2080.14 211.331 L2077.29 210.776 Q2072.06 209.734 2069.72 207.512 Q2067.39 205.29 2067.39 201.331 Q2067.39 196.748 2070.6 194.109 Q2073.84 191.47 2079.52 191.47 Q2081.95 191.47 2084.47 191.91 Q2086.99 192.35 2089.63 193.23 Z" fill="#000000" fill-rule="evenodd" fill-opacity="1" /><path clip-path="url(#clip770)" d="M2121 212.628 L2121 214.711 L2101.41 214.711 Q2101.69 219.109 2104.05 221.424 Q2106.44 223.715 2110.67 223.715 Q2113.13 223.715 2115.42 223.114 Q2117.73 222.512 2120 221.308 L2120 225.336 Q2117.71 226.308 2115.3 226.817 Q2112.9 227.327 2110.42 227.327 Q2104.21 227.327 2100.58 223.715 Q2096.97 220.104 2096.97 213.947 Q2096.97 207.581 2100.4 203.854 Q2103.84 200.104 2109.68 200.104 Q2114.91 200.104 2117.94 203.484 Q2121 206.841 2121 212.628 M2116.74 211.378 Q2116.69 207.882 2114.77 205.799 Q2112.87 203.716 2109.72 203.716 Q2106.16 203.716 2104.01 205.729 Q2101.88 207.743 2101.55 211.401 L2116.74 211.378 Z" fill="#000000" fill-rule="evenodd" fill-opacity="1" /><path clip-path="url(#clip770)" d="M2146.64 201.725 L2146.64 205.706 Q2144.84 204.711 2143.01 204.225 Q2141.21 203.716 2139.35 203.716 Q2135.21 203.716 2132.92 206.354 Q2130.63 208.97 2130.63 213.716 Q2130.63 218.461 2132.92 221.1 Q2135.21 223.715 2139.35 223.715 Q2141.21 223.715 2143.01 223.229 Q2144.84 222.72 2146.64 221.725 L2146.64 225.66 Q2144.86 226.493 2142.94 226.91 Q2141.04 227.327 2138.89 227.327 Q2133.03 227.327 2129.58 223.646 Q2126.14 219.965 2126.14 213.716 Q2126.14 207.373 2129.61 203.739 Q2133.1 200.104 2139.17 200.104 Q2141.14 200.104 2143.01 200.521 Q2144.89 200.915 2146.64 201.725 Z" fill="#000000" fill-rule="evenodd" fill-opacity="1" /><path clip-path="url(#clip770)" d="M2165.83 213.623 Q2160.67 213.623 2158.68 214.803 Q2156.69 215.984 2156.69 218.831 Q2156.69 221.1 2158.17 222.442 Q2159.68 223.762 2162.25 223.762 Q2165.79 223.762 2167.92 221.262 Q2170.07 218.739 2170.07 214.572 L2170.07 213.623 L2165.83 213.623 M2174.33 211.864 L2174.33 226.655 L2170.07 226.655 L2170.07 222.72 Q2168.61 225.081 2166.44 226.215 Q2164.26 227.327 2161.11 227.327 Q2157.13 227.327 2154.77 225.104 Q2152.43 222.859 2152.43 219.109 Q2152.43 214.734 2155.35 212.512 Q2158.29 210.29 2164.1 210.29 L2170.07 210.29 L2170.07 209.873 Q2170.07 206.933 2168.13 205.336 Q2166.2 203.716 2162.71 203.716 Q2160.49 203.716 2158.38 204.248 Q2156.27 204.78 2154.33 205.845 L2154.33 201.91 Q2156.67 201.007 2158.87 200.567 Q2161.07 200.104 2163.15 200.104 Q2168.77 200.104 2171.55 203.021 Q2174.33 205.938 2174.33 211.864 Z" fill="#000000" fill-rule="evenodd" fill-opacity="1" /><path clip-path="url(#clip770)" d="M2204.65 211.007 L2204.65 226.655 L2200.39 226.655 L2200.39 211.146 Q2200.39 207.466 2198.96 205.637 Q2197.52 203.808 2194.65 203.808 Q2191.2 203.808 2189.21 206.007 Q2187.22 208.206 2187.22 212.003 L2187.22 226.655 L2182.94 226.655 L2182.94 200.729 L2187.22 200.729 L2187.22 204.757 Q2188.75 202.419 2190.81 201.262 Q2192.89 200.104 2195.6 200.104 Q2200.07 200.104 2202.36 202.882 Q2204.65 205.637 2204.65 211.007 Z" fill="#000000" fill-rule="evenodd" fill-opacity="1" /><path clip-path="url(#clip770)" d="M2217.36 193.368 L2217.36 200.729 L2226.14 200.729 L2226.14 204.04 L2217.36 204.04 L2217.36 218.114 Q2217.36 221.285 2218.22 222.188 Q2219.1 223.09 2221.76 223.09 L2226.14 223.09 L2226.14 226.655 L2221.76 226.655 Q2216.83 226.655 2214.95 224.827 Q2213.08 222.975 2213.08 218.114 L2213.08 204.04 L2209.95 204.04 L2209.95 200.729 L2213.08 200.729 L2213.08 193.368 L2217.36 193.368 Z" fill="#000000" fill-rule="evenodd" fill-opacity="1" /><path clip-path="url(#clip770)" d="M2253.91 212.628 L2253.91 214.711 L2234.33 214.711 Q2234.61 219.109 2236.97 221.424 Q2239.35 223.715 2243.59 223.715 Q2246.04 223.715 2248.33 223.114 Q2250.65 222.512 2252.92 221.308 L2252.92 225.336 Q2250.63 226.308 2248.22 226.817 Q2245.81 227.327 2243.33 227.327 Q2237.13 227.327 2233.5 223.715 Q2229.89 220.104 2229.89 213.947 Q2229.89 207.581 2233.31 203.854 Q2236.76 200.104 2242.59 200.104 Q2247.82 200.104 2250.86 203.484 Q2253.91 206.841 2253.91 212.628 M2249.65 211.378 Q2249.61 207.882 2247.69 205.799 Q2245.79 203.716 2242.64 203.716 Q2239.07 203.716 2236.92 205.729 Q2234.79 207.743 2234.47 211.401 L2249.65 211.378 Z" fill="#000000" fill-rule="evenodd" fill-opacity="1" /><path clip-path="url(#clip770)" d="M2275.58 190.637 L2285.39 190.637 L2285.39 193.947 L2279.84 193.947 L2279.84 229.595 L2285.39 229.595 L2285.39 232.905 L2275.58 232.905 L2275.58 190.637 Z" fill="#000000" fill-rule="evenodd" fill-opacity="1" /><path clip-path="url(#clip770)" d="M2295.88 222.72 L2303.52 222.72 L2303.52 196.355 L2295.21 198.021 L2295.21 193.762 L2303.47 192.095 L2308.15 192.095 L2308.15 222.72 L2315.79 222.72 L2315.79 226.655 L2295.88 226.655 L2295.88 222.72 Z" fill="#000000" fill-rule="evenodd" fill-opacity="1" /><path clip-path="url(#clip770)" d="M2325.72 220.776 L2330.6 220.776 L2330.6 224.757 L2326.81 232.164 L2323.82 232.164 L2325.72 224.757 L2325.72 220.776 Z" fill="#000000" fill-rule="evenodd" fill-opacity="1" /><path clip-path="url(#clip770)" d="M2356.18 222.72 L2363.82 222.72 L2363.82 196.355 L2355.51 198.021 L2355.51 193.762 L2363.77 192.095 L2368.45 192.095 L2368.45 222.72 L2376.09 222.72 L2376.09 226.655 L2356.18 226.655 L2356.18 222.72 Z" fill="#000000" fill-rule="evenodd" fill-opacity="1" /><path clip-path="url(#clip770)" d="M2385.53 220.776 L2390.42 220.776 L2390.42 226.655 L2385.53 226.655 L2385.53 220.776 Z" fill="#000000" fill-rule="evenodd" fill-opacity="1" /><path clip-path="url(#clip770)" d="M2400.65 192.095 L2419 192.095 L2419 196.03 L2404.93 196.03 L2404.93 204.503 Q2405.95 204.155 2406.97 203.993 Q2407.99 203.808 2409 203.808 Q2414.79 203.808 2418.17 206.979 Q2421.55 210.151 2421.55 215.567 Q2421.55 221.146 2418.08 224.248 Q2414.61 227.327 2408.29 227.327 Q2406.11 227.327 2403.84 226.956 Q2401.6 226.586 2399.19 225.845 L2399.19 221.146 Q2401.27 222.28 2403.5 222.836 Q2405.72 223.391 2408.19 223.391 Q2412.2 223.391 2414.54 221.285 Q2416.87 219.178 2416.87 215.567 Q2416.87 211.956 2414.54 209.85 Q2412.2 207.743 2408.19 207.743 Q2406.32 207.743 2404.44 208.16 Q2402.59 208.577 2400.65 209.456 L2400.65 192.095 Z" fill="#000000" fill-rule="evenodd" fill-opacity="1" /><path clip-path="url(#clip770)" d="M2440.12 190.637 L2440.12 232.905 L2430.3 232.905 L2430.3 229.595 L2435.83 229.595 L2435.83 193.947 L2430.3 193.947 L2430.3 190.637 L2440.12 190.637 Z" fill="#000000" fill-rule="evenodd" fill-opacity="1" /><polyline clip-path="url(#clip770)" style="stroke:#3da44d; stroke-linecap:round; stroke-linejoin:round; stroke-width:4; stroke-opacity:1; fill:none" points="
  1870.94,261.215 2039.32,261.215 
  "/>
<path clip-path="url(#clip770)" d="M2089.63 245.07 L2089.63 249.63 Q2086.97 248.357 2084.61 247.732 Q2082.25 247.107 2080.05 247.107 Q2076.23 247.107 2074.15 248.588 Q2072.09 250.069 2072.09 252.801 Q2072.09 255.093 2073.45 256.273 Q2074.84 257.431 2078.68 258.148 L2081.51 258.727 Q2086.74 259.722 2089.21 262.245 Q2091.71 264.745 2091.71 268.958 Q2091.71 273.981 2088.34 276.574 Q2084.98 279.167 2078.47 279.167 Q2076.02 279.167 2073.24 278.611 Q2070.49 278.055 2067.52 276.967 L2067.52 272.153 Q2070.37 273.75 2073.1 274.56 Q2075.84 275.37 2078.47 275.37 Q2082.48 275.37 2084.65 273.796 Q2086.83 272.222 2086.83 269.306 Q2086.83 266.759 2085.26 265.324 Q2083.71 263.889 2080.14 263.171 L2077.29 262.616 Q2072.06 261.574 2069.72 259.352 Q2067.39 257.13 2067.39 253.171 Q2067.39 248.588 2070.6 245.949 Q2073.84 243.31 2079.52 243.31 Q2081.95 243.31 2084.47 243.75 Q2086.99 244.19 2089.63 245.07 Z" fill="#000000" fill-rule="evenodd" fill-opacity="1" /><path clip-path="url(#clip770)" d="M2121 264.468 L2121 266.551 L2101.41 266.551 Q2101.69 270.949 2104.05 273.264 Q2106.44 275.555 2110.67 275.555 Q2113.13 275.555 2115.42 274.954 Q2117.73 274.352 2120 273.148 L2120 277.176 Q2117.71 278.148 2115.3 278.657 Q2112.9 279.167 2110.42 279.167 Q2104.21 279.167 2100.58 275.555 Q2096.97 271.944 2096.97 265.787 Q2096.97 259.421 2100.4 255.694 Q2103.84 251.944 2109.68 251.944 Q2114.91 251.944 2117.94 255.324 Q2121 258.681 2121 264.468 M2116.74 263.218 Q2116.69 259.722 2114.77 257.639 Q2112.87 255.556 2109.72 255.556 Q2106.16 255.556 2104.01 257.569 Q2101.88 259.583 2101.55 263.241 L2116.74 263.218 Z" fill="#000000" fill-rule="evenodd" fill-opacity="1" /><path clip-path="url(#clip770)" d="M2146.64 253.565 L2146.64 257.546 Q2144.84 256.551 2143.01 256.065 Q2141.21 255.556 2139.35 255.556 Q2135.21 255.556 2132.92 258.194 Q2130.63 260.81 2130.63 265.556 Q2130.63 270.301 2132.92 272.94 Q2135.21 275.555 2139.35 275.555 Q2141.21 275.555 2143.01 275.069 Q2144.84 274.56 2146.64 273.565 L2146.64 277.5 Q2144.86 278.333 2142.94 278.75 Q2141.04 279.167 2138.89 279.167 Q2133.03 279.167 2129.58 275.486 Q2126.14 271.805 2126.14 265.556 Q2126.14 259.213 2129.61 255.579 Q2133.1 251.944 2139.17 251.944 Q2141.14 251.944 2143.01 252.361 Q2144.89 252.755 2146.64 253.565 Z" fill="#000000" fill-rule="evenodd" fill-opacity="1" /><path clip-path="url(#clip770)" d="M2165.83 265.463 Q2160.67 265.463 2158.68 266.643 Q2156.69 267.824 2156.69 270.671 Q2156.69 272.94 2158.17 274.282 Q2159.68 275.602 2162.25 275.602 Q2165.79 275.602 2167.92 273.102 Q2170.07 270.579 2170.07 266.412 L2170.07 265.463 L2165.83 265.463 M2174.33 263.704 L2174.33 278.495 L2170.07 278.495 L2170.07 274.56 Q2168.61 276.921 2166.44 278.055 Q2164.26 279.167 2161.11 279.167 Q2157.13 279.167 2154.77 276.944 Q2152.43 274.699 2152.43 270.949 Q2152.43 266.574 2155.35 264.352 Q2158.29 262.13 2164.1 262.13 L2170.07 262.13 L2170.07 261.713 Q2170.07 258.773 2168.13 257.176 Q2166.2 255.556 2162.71 255.556 Q2160.49 255.556 2158.38 256.088 Q2156.27 256.62 2154.33 257.685 L2154.33 253.75 Q2156.67 252.847 2158.87 252.407 Q2161.07 251.944 2163.15 251.944 Q2168.77 251.944 2171.55 254.861 Q2174.33 257.778 2174.33 263.704 Z" fill="#000000" fill-rule="evenodd" fill-opacity="1" /><path clip-path="url(#clip770)" d="M2204.65 262.847 L2204.65 278.495 L2200.39 278.495 L2200.39 262.986 Q2200.39 259.306 2198.96 257.477 Q2197.52 255.648 2194.65 255.648 Q2191.2 255.648 2189.21 257.847 Q2187.22 260.046 2187.22 263.843 L2187.22 278.495 L2182.94 278.495 L2182.94 252.569 L2187.22 252.569 L2187.22 256.597 Q2188.75 254.259 2190.81 253.102 Q2192.89 251.944 2195.6 251.944 Q2200.07 251.944 2202.36 254.722 Q2204.65 257.477 2204.65 262.847 Z" fill="#000000" fill-rule="evenodd" fill-opacity="1" /><path clip-path="url(#clip770)" d="M2217.36 245.208 L2217.36 252.569 L2226.14 252.569 L2226.14 255.88 L2217.36 255.88 L2217.36 269.954 Q2217.36 273.125 2218.22 274.028 Q2219.1 274.93 2221.76 274.93 L2226.14 274.93 L2226.14 278.495 L2221.76 278.495 Q2216.83 278.495 2214.95 276.667 Q2213.08 274.815 2213.08 269.954 L2213.08 255.88 L2209.95 255.88 L2209.95 252.569 L2213.08 252.569 L2213.08 245.208 L2217.36 245.208 Z" fill="#000000" fill-rule="evenodd" fill-opacity="1" /><path clip-path="url(#clip770)" d="M2253.91 264.468 L2253.91 266.551 L2234.33 266.551 Q2234.61 270.949 2236.97 273.264 Q2239.35 275.555 2243.59 275.555 Q2246.04 275.555 2248.33 274.954 Q2250.65 274.352 2252.92 273.148 L2252.92 277.176 Q2250.63 278.148 2248.22 278.657 Q2245.81 279.167 2243.33 279.167 Q2237.13 279.167 2233.5 275.555 Q2229.89 271.944 2229.89 265.787 Q2229.89 259.421 2233.31 255.694 Q2236.76 251.944 2242.59 251.944 Q2247.82 251.944 2250.86 255.324 Q2253.91 258.681 2253.91 264.468 M2249.65 263.218 Q2249.61 259.722 2247.69 257.639 Q2245.79 255.556 2242.64 255.556 Q2239.07 255.556 2236.92 257.569 Q2234.79 259.583 2234.47 263.241 L2249.65 263.218 Z" fill="#000000" fill-rule="evenodd" fill-opacity="1" /><path clip-path="url(#clip770)" d="M2275.58 242.477 L2285.39 242.477 L2285.39 245.787 L2279.84 245.787 L2279.84 281.435 L2285.39 281.435 L2285.39 284.745 L2275.58 284.745 L2275.58 242.477 Z" fill="#000000" fill-rule="evenodd" fill-opacity="1" /><path clip-path="url(#clip770)" d="M2295.88 274.56 L2303.52 274.56 L2303.52 248.195 L2295.21 249.861 L2295.21 245.602 L2303.47 243.935 L2308.15 243.935 L2308.15 274.56 L2315.79 274.56 L2315.79 278.495 L2295.88 278.495 L2295.88 274.56 Z" fill="#000000" fill-rule="evenodd" fill-opacity="1" /><path clip-path="url(#clip770)" d="M2325.72 272.616 L2330.6 272.616 L2330.6 276.597 L2326.81 284.004 L2323.82 284.004 L2325.72 276.597 L2325.72 272.616 Z" fill="#000000" fill-rule="evenodd" fill-opacity="1" /><path clip-path="url(#clip770)" d="M2356.18 274.56 L2363.82 274.56 L2363.82 248.195 L2355.51 249.861 L2355.51 245.602 L2363.77 243.935 L2368.45 243.935 L2368.45 274.56 L2376.09 274.56 L2376.09 278.495 L2356.18 278.495 L2356.18 274.56 Z" fill="#000000" fill-rule="evenodd" fill-opacity="1" /><path clip-path="url(#clip770)" d="M2385.53 272.616 L2390.42 272.616 L2390.42 278.495 L2385.53 278.495 L2385.53 272.616 Z" fill="#000000" fill-rule="evenodd" fill-opacity="1" /><path clip-path="url(#clip770)" d="M2401.41 274.56 L2409.05 274.56 L2409.05 248.195 L2400.74 249.861 L2400.74 245.602 L2409 243.935 L2413.68 243.935 L2413.68 274.56 L2421.32 274.56 L2421.32 278.495 L2401.41 278.495 L2401.41 274.56 Z" fill="#000000" fill-rule="evenodd" fill-opacity="1" /><path clip-path="url(#clip770)" d="M2440.12 242.477 L2440.12 284.745 L2430.3 284.745 L2430.3 281.435 L2435.83 281.435 L2435.83 245.787 L2430.3 245.787 L2430.3 242.477 L2440.12 242.477 Z" fill="#000000" fill-rule="evenodd" fill-opacity="1" /><polyline clip-path="url(#clip770)" style="stroke:#c271d2; stroke-linecap:round; stroke-linejoin:round; stroke-width:4; stroke-opacity:1; fill:none" points="
  1870.94,313.055 2039.32,313.055 
  "/>
<path clip-path="url(#clip770)" d="M2089.63 296.91 L2089.63 301.47 Q2086.97 300.197 2084.61 299.572 Q2082.25 298.947 2080.05 298.947 Q2076.23 298.947 2074.15 300.428 Q2072.09 301.909 2072.09 304.641 Q2072.09 306.933 2073.45 308.113 Q2074.84 309.271 2078.68 309.988 L2081.51 310.567 Q2086.74 311.562 2089.21 314.085 Q2091.71 316.585 2091.71 320.798 Q2091.71 325.821 2088.34 328.414 Q2084.98 331.007 2078.47 331.007 Q2076.02 331.007 2073.24 330.451 Q2070.49 329.895 2067.52 328.807 L2067.52 323.993 Q2070.37 325.59 2073.1 326.4 Q2075.84 327.21 2078.47 327.21 Q2082.48 327.21 2084.65 325.636 Q2086.83 324.062 2086.83 321.146 Q2086.83 318.599 2085.26 317.164 Q2083.71 315.729 2080.14 315.011 L2077.29 314.456 Q2072.06 313.414 2069.72 311.192 Q2067.39 308.97 2067.39 305.011 Q2067.39 300.428 2070.6 297.789 Q2073.84 295.15 2079.52 295.15 Q2081.95 295.15 2084.47 295.59 Q2086.99 296.03 2089.63 296.91 Z" fill="#000000" fill-rule="evenodd" fill-opacity="1" /><path clip-path="url(#clip770)" d="M2121 316.308 L2121 318.391 L2101.41 318.391 Q2101.69 322.789 2104.05 325.104 Q2106.44 327.395 2110.67 327.395 Q2113.13 327.395 2115.42 326.794 Q2117.73 326.192 2120 324.988 L2120 329.016 Q2117.71 329.988 2115.3 330.497 Q2112.9 331.007 2110.42 331.007 Q2104.21 331.007 2100.58 327.395 Q2096.97 323.784 2096.97 317.627 Q2096.97 311.261 2100.4 307.534 Q2103.84 303.784 2109.68 303.784 Q2114.91 303.784 2117.94 307.164 Q2121 310.521 2121 316.308 M2116.74 315.058 Q2116.69 311.562 2114.77 309.479 Q2112.87 307.396 2109.72 307.396 Q2106.16 307.396 2104.01 309.409 Q2101.88 311.423 2101.55 315.081 L2116.74 315.058 Z" fill="#000000" fill-rule="evenodd" fill-opacity="1" /><path clip-path="url(#clip770)" d="M2146.64 305.405 L2146.64 309.386 Q2144.84 308.391 2143.01 307.905 Q2141.21 307.396 2139.35 307.396 Q2135.21 307.396 2132.92 310.034 Q2130.63 312.65 2130.63 317.396 Q2130.63 322.141 2132.92 324.78 Q2135.21 327.395 2139.35 327.395 Q2141.21 327.395 2143.01 326.909 Q2144.84 326.4 2146.64 325.405 L2146.64 329.34 Q2144.86 330.173 2142.94 330.59 Q2141.04 331.007 2138.89 331.007 Q2133.03 331.007 2129.58 327.326 Q2126.14 323.645 2126.14 317.396 Q2126.14 311.053 2129.61 307.419 Q2133.1 303.784 2139.17 303.784 Q2141.14 303.784 2143.01 304.201 Q2144.89 304.595 2146.64 305.405 Z" fill="#000000" fill-rule="evenodd" fill-opacity="1" /><path clip-path="url(#clip770)" d="M2165.83 317.303 Q2160.67 317.303 2158.68 318.483 Q2156.69 319.664 2156.69 322.511 Q2156.69 324.78 2158.17 326.122 Q2159.68 327.442 2162.25 327.442 Q2165.79 327.442 2167.92 324.942 Q2170.07 322.419 2170.07 318.252 L2170.07 317.303 L2165.83 317.303 M2174.33 315.544 L2174.33 330.335 L2170.07 330.335 L2170.07 326.4 Q2168.61 328.761 2166.44 329.895 Q2164.26 331.007 2161.11 331.007 Q2157.13 331.007 2154.77 328.784 Q2152.43 326.539 2152.43 322.789 Q2152.43 318.414 2155.35 316.192 Q2158.29 313.97 2164.1 313.97 L2170.07 313.97 L2170.07 313.553 Q2170.07 310.613 2168.13 309.016 Q2166.2 307.396 2162.71 307.396 Q2160.49 307.396 2158.38 307.928 Q2156.27 308.46 2154.33 309.525 L2154.33 305.59 Q2156.67 304.687 2158.87 304.247 Q2161.07 303.784 2163.15 303.784 Q2168.77 303.784 2171.55 306.701 Q2174.33 309.618 2174.33 315.544 Z" fill="#000000" fill-rule="evenodd" fill-opacity="1" /><path clip-path="url(#clip770)" d="M2204.65 314.687 L2204.65 330.335 L2200.39 330.335 L2200.39 314.826 Q2200.39 311.146 2198.96 309.317 Q2197.52 307.488 2194.65 307.488 Q2191.2 307.488 2189.21 309.687 Q2187.22 311.886 2187.22 315.683 L2187.22 330.335 L2182.94 330.335 L2182.94 304.409 L2187.22 304.409 L2187.22 308.437 Q2188.75 306.099 2190.81 304.942 Q2192.89 303.784 2195.6 303.784 Q2200.07 303.784 2202.36 306.562 Q2204.65 309.317 2204.65 314.687 Z" fill="#000000" fill-rule="evenodd" fill-opacity="1" /><path clip-path="url(#clip770)" d="M2217.36 297.048 L2217.36 304.409 L2226.14 304.409 L2226.14 307.72 L2217.36 307.72 L2217.36 321.794 Q2217.36 324.965 2218.22 325.868 Q2219.1 326.77 2221.76 326.77 L2226.14 326.77 L2226.14 330.335 L2221.76 330.335 Q2216.83 330.335 2214.95 328.507 Q2213.08 326.655 2213.08 321.794 L2213.08 307.72 L2209.95 307.72 L2209.95 304.409 L2213.08 304.409 L2213.08 297.048 L2217.36 297.048 Z" fill="#000000" fill-rule="evenodd" fill-opacity="1" /><path clip-path="url(#clip770)" d="M2253.91 316.308 L2253.91 318.391 L2234.33 318.391 Q2234.61 322.789 2236.97 325.104 Q2239.35 327.395 2243.59 327.395 Q2246.04 327.395 2248.33 326.794 Q2250.65 326.192 2252.92 324.988 L2252.92 329.016 Q2250.63 329.988 2248.22 330.497 Q2245.81 331.007 2243.33 331.007 Q2237.13 331.007 2233.5 327.395 Q2229.89 323.784 2229.89 317.627 Q2229.89 311.261 2233.31 307.534 Q2236.76 303.784 2242.59 303.784 Q2247.82 303.784 2250.86 307.164 Q2253.91 310.521 2253.91 316.308 M2249.65 315.058 Q2249.61 311.562 2247.69 309.479 Q2245.79 307.396 2242.64 307.396 Q2239.07 307.396 2236.92 309.409 Q2234.79 311.423 2234.47 315.081 L2249.65 315.058 Z" fill="#000000" fill-rule="evenodd" fill-opacity="1" /><path clip-path="url(#clip770)" d="M2275.58 294.317 L2285.39 294.317 L2285.39 297.627 L2279.84 297.627 L2279.84 333.275 L2285.39 333.275 L2285.39 336.585 L2275.58 336.585 L2275.58 294.317 Z" fill="#000000" fill-rule="evenodd" fill-opacity="1" /><path clip-path="url(#clip770)" d="M2295.88 326.4 L2303.52 326.4 L2303.52 300.035 L2295.21 301.701 L2295.21 297.442 L2303.47 295.775 L2308.15 295.775 L2308.15 326.4 L2315.79 326.4 L2315.79 330.335 L2295.88 330.335 L2295.88 326.4 Z" fill="#000000" fill-rule="evenodd" fill-opacity="1" /><path clip-path="url(#clip770)" d="M2325.72 324.456 L2330.6 324.456 L2330.6 328.437 L2326.81 335.844 L2323.82 335.844 L2325.72 328.437 L2325.72 324.456 Z" fill="#000000" fill-rule="evenodd" fill-opacity="1" /><path clip-path="url(#clip770)" d="M2356.18 326.4 L2363.82 326.4 L2363.82 300.035 L2355.51 301.701 L2355.51 297.442 L2363.77 295.775 L2368.45 295.775 L2368.45 326.4 L2376.09 326.4 L2376.09 330.335 L2356.18 330.335 L2356.18 326.4 Z" fill="#000000" fill-rule="evenodd" fill-opacity="1" /><path clip-path="url(#clip770)" d="M2385.53 324.456 L2390.42 324.456 L2390.42 330.335 L2385.53 330.335 L2385.53 324.456 Z" fill="#000000" fill-rule="evenodd" fill-opacity="1" /><path clip-path="url(#clip770)" d="M2410.6 298.854 Q2406.99 298.854 2405.16 302.419 Q2403.36 305.96 2403.36 313.09 Q2403.36 320.196 2405.16 323.761 Q2406.99 327.303 2410.6 327.303 Q2414.24 327.303 2416.04 323.761 Q2417.87 320.196 2417.87 313.09 Q2417.87 305.96 2416.04 302.419 Q2414.24 298.854 2410.6 298.854 M2410.6 295.15 Q2416.41 295.15 2419.47 299.757 Q2422.55 304.34 2422.55 313.09 Q2422.55 321.817 2419.47 326.423 Q2416.41 331.007 2410.6 331.007 Q2404.79 331.007 2401.71 326.423 Q2398.66 321.817 2398.66 313.09 Q2398.66 304.34 2401.71 299.757 Q2404.79 295.15 2410.6 295.15 Z" fill="#000000" fill-rule="evenodd" fill-opacity="1" /><path clip-path="url(#clip770)" d="M2440.76 298.854 Q2437.15 298.854 2435.32 302.419 Q2433.52 305.96 2433.52 313.09 Q2433.52 320.196 2435.32 323.761 Q2437.15 327.303 2440.76 327.303 Q2444.4 327.303 2446.2 323.761 Q2448.03 320.196 2448.03 313.09 Q2448.03 305.96 2446.2 302.419 Q2444.4 298.854 2440.76 298.854 M2440.76 295.15 Q2446.57 295.15 2449.63 299.757 Q2452.71 304.34 2452.71 313.09 Q2452.71 321.817 2449.63 326.423 Q2446.57 331.007 2440.76 331.007 Q2434.95 331.007 2431.87 326.423 Q2428.82 321.817 2428.82 313.09 Q2428.82 304.34 2431.87 299.757 Q2434.95 295.15 2440.76 295.15 Z" fill="#000000" fill-rule="evenodd" fill-opacity="1" /><path clip-path="url(#clip770)" d="M2461.74 326.4 L2469.37 326.4 L2469.37 300.035 L2461.06 301.701 L2461.06 297.442 L2469.33 295.775 L2474 295.775 L2474 326.4 L2481.64 326.4 L2481.64 330.335 L2461.74 330.335 L2461.74 326.4 Z" fill="#000000" fill-rule="evenodd" fill-opacity="1" /><path clip-path="url(#clip770)" d="M2500.44 294.317 L2500.44 336.585 L2490.62 336.585 L2490.62 333.275 L2496.16 333.275 L2496.16 297.627 L2490.62 297.627 L2490.62 294.317 L2500.44 294.317 Z" fill="#000000" fill-rule="evenodd" fill-opacity="1" /></svg>
