<?xml version="1.0" encoding="utf-8"?>
<svg xmlns="http://www.w3.org/2000/svg" xmlns:xlink="http://www.w3.org/1999/xlink" width="672" height="480" viewBox="0 0 2688 1920">
<defs>
  <clipPath id="clip810">
    <rect x="0" y="0" width="2688" height="1920"/>
  </clipPath>
</defs>
<path clip-path="url(#clip810)" d="
M0 1920 L2688 1920 L2688 0 L0 0  Z
  " fill="#ffffff" fill-rule="evenodd" fill-opacity="1"/>
<defs>
  <clipPath id="clip811">
    <rect x="537" y="0" width="1883" height="1883"/>
  </clipPath>
</defs>
<defs>
  <clipPath id="clip812">
    <rect x="115" y="47" width="2527" height="1755"/>
  </clipPath>
</defs>
<path clip-path="url(#clip810)" d="
M115.057 1800.78 L2640.76 1800.78 L2640.76 47.2441 L115.057 47.2441  Z
  " fill="#ffffff" fill-rule="evenodd" fill-opacity="1"/>
<polyline clip-path="url(#clip812)" style="stroke:#000000; stroke-linecap:round; stroke-linejoin:round; stroke-width:2; stroke-opacity:0.1; fill:none" points="
  186.539,1800.78 186.539,47.2441 
  "/>
<polyline clip-path="url(#clip812)" style="stroke:#000000; stroke-linecap:round; stroke-linejoin:round; stroke-width:2; stroke-opacity:0.1; fill:none" points="
  782.223,1800.78 782.223,47.2441 
  "/>
<polyline clip-path="url(#clip812)" style="stroke:#000000; stroke-linecap:round; stroke-linejoin:round; stroke-width:2; stroke-opacity:0.1; fill:none" points="
  1377.91,1800.78 1377.91,47.2441 
  "/>
<polyline clip-path="url(#clip812)" style="stroke:#000000; stroke-linecap:round; stroke-linejoin:round; stroke-width:2; stroke-opacity:0.1; fill:none" points="
  1973.59,1800.78 1973.59,47.2441 
  "/>
<polyline clip-path="url(#clip812)" style="stroke:#000000; stroke-linecap:round; stroke-linejoin:round; stroke-width:2; stroke-opacity:0.1; fill:none" points="
  2569.27,1800.78 2569.27,47.2441 
  "/>
<polyline clip-path="url(#clip810)" style="stroke:#000000; stroke-linecap:round; stroke-linejoin:round; stroke-width:4; stroke-opacity:1; fill:none" points="
  115.057,1800.78 2640.76,1800.78 
  "/>
<polyline clip-path="url(#clip810)" style="stroke:#000000; stroke-linecap:round; stroke-linejoin:round; stroke-width:4; stroke-opacity:1; fill:none" points="
  186.539,1800.78 186.539,1781.88 
  "/>
<polyline clip-path="url(#clip810)" style="stroke:#000000; stroke-linecap:round; stroke-linejoin:round; stroke-width:4; stroke-opacity:1; fill:none" points="
  782.223,1800.78 782.223,1781.88 
  "/>
<polyline clip-path="url(#clip810)" style="stroke:#000000; stroke-linecap:round; stroke-linejoin:round; stroke-width:4; stroke-opacity:1; fill:none" points="
  1377.91,1800.78 1377.91,1781.88 
  "/>
<polyline clip-path="url(#clip810)" style="stroke:#000000; stroke-linecap:round; stroke-linejoin:round; stroke-width:4; stroke-opacity:1; fill:none" points="
  1973.59,1800.78 1973.59,1781.88 
  "/>
<polyline clip-path="url(#clip810)" style="stroke:#000000; stroke-linecap:round; stroke-linejoin:round; stroke-width:4; stroke-opacity:1; fill:none" points="
  2569.27,1800.78 2569.27,1781.88 
  "/>
<path clip-path="url(#clip810)" d="M164.421 1834 Q160.81 1834 158.981 1837.57 Q157.176 1841.11 157.176 1848.24 Q157.176 1855.34 158.981 1858.91 Q160.81 1862.45 164.421 1862.45 Q168.056 1862.45 169.861 1858.91 Q171.69 1855.34 171.69 1848.24 Q171.69 1841.11 169.861 1837.57 Q168.056 1834 164.421 1834 M164.421 1830.3 Q170.231 1830.3 173.287 1834.9 Q176.366 1839.49 176.366 1848.24 Q176.366 1856.96 173.287 1861.57 Q170.231 1866.15 164.421 1866.15 Q158.611 1866.15 155.532 1861.57 Q152.477 1856.96 152.477 1848.24 Q152.477 1839.49 155.532 1834.9 Q158.611 1830.3 164.421 1830.3 Z" fill="#000000" fill-rule="evenodd" fill-opacity="1" /><path clip-path="url(#clip810)" d="M184.583 1859.6 L189.467 1859.6 L189.467 1865.48 L184.583 1865.48 L184.583 1859.6 Z" fill="#000000" fill-rule="evenodd" fill-opacity="1" /><path clip-path="url(#clip810)" d="M199.699 1830.92 L218.055 1830.92 L218.055 1834.86 L203.981 1834.86 L203.981 1843.33 Q205 1842.98 206.018 1842.82 Q207.037 1842.64 208.055 1842.64 Q213.842 1842.64 217.222 1845.81 Q220.602 1848.98 220.602 1854.4 Q220.602 1859.97 217.129 1863.08 Q213.657 1866.15 207.338 1866.15 Q205.162 1866.15 202.893 1865.78 Q200.648 1865.41 198.241 1864.67 L198.241 1859.97 Q200.324 1861.11 202.546 1861.66 Q204.768 1862.22 207.245 1862.22 Q211.25 1862.22 213.588 1860.11 Q215.926 1858.01 215.926 1854.4 Q215.926 1850.78 213.588 1848.68 Q211.25 1846.57 207.245 1846.57 Q205.37 1846.57 203.495 1846.99 Q201.643 1847.4 199.699 1848.28 L199.699 1830.92 Z" fill="#000000" fill-rule="evenodd" fill-opacity="1" /><path clip-path="url(#clip810)" d="M749.376 1861.55 L757.015 1861.55 L757.015 1835.18 L748.705 1836.85 L748.705 1832.59 L756.968 1830.92 L761.644 1830.92 L761.644 1861.55 L769.283 1861.55 L769.283 1865.48 L749.376 1865.48 L749.376 1861.55 Z" fill="#000000" fill-rule="evenodd" fill-opacity="1" /><path clip-path="url(#clip810)" d="M778.728 1859.6 L783.612 1859.6 L783.612 1865.48 L778.728 1865.48 L778.728 1859.6 Z" fill="#000000" fill-rule="evenodd" fill-opacity="1" /><path clip-path="url(#clip810)" d="M803.797 1834 Q800.186 1834 798.357 1837.57 Q796.552 1841.11 796.552 1848.24 Q796.552 1855.34 798.357 1858.91 Q800.186 1862.45 803.797 1862.45 Q807.431 1862.45 809.237 1858.91 Q811.065 1855.34 811.065 1848.24 Q811.065 1841.11 809.237 1837.57 Q807.431 1834 803.797 1834 M803.797 1830.3 Q809.607 1830.3 812.663 1834.9 Q815.741 1839.49 815.741 1848.24 Q815.741 1856.96 812.663 1861.57 Q809.607 1866.15 803.797 1866.15 Q797.987 1866.15 794.908 1861.57 Q791.852 1856.96 791.852 1848.24 Q791.852 1839.49 794.908 1834.9 Q797.987 1830.3 803.797 1830.3 Z" fill="#000000" fill-rule="evenodd" fill-opacity="1" /><path clip-path="url(#clip810)" d="M1345.56 1861.55 L1353.2 1861.55 L1353.2 1835.18 L1344.89 1836.85 L1344.89 1832.59 L1353.15 1830.92 L1357.83 1830.92 L1357.83 1861.55 L1365.46 1861.55 L1365.46 1865.48 L1345.56 1865.48 L1345.56 1861.55 Z" fill="#000000" fill-rule="evenodd" fill-opacity="1" /><path clip-path="url(#clip810)" d="M1374.91 1859.6 L1379.79 1859.6 L1379.79 1865.48 L1374.91 1865.48 L1374.91 1859.6 Z" fill="#000000" fill-rule="evenodd" fill-opacity="1" /><path clip-path="url(#clip810)" d="M1390.02 1830.92 L1408.38 1830.92 L1408.38 1834.86 L1394.31 1834.86 L1394.31 1843.33 Q1395.33 1842.98 1396.34 1842.82 Q1397.36 1842.64 1398.38 1842.64 Q1404.17 1842.64 1407.55 1845.81 Q1410.93 1848.98 1410.93 1854.4 Q1410.93 1859.97 1407.45 1863.08 Q1403.98 1866.15 1397.66 1866.15 Q1395.49 1866.15 1393.22 1865.78 Q1390.97 1865.41 1388.57 1864.67 L1388.57 1859.97 Q1390.65 1861.11 1392.87 1861.66 Q1395.09 1862.22 1397.57 1862.22 Q1401.58 1862.22 1403.91 1860.11 Q1406.25 1858.01 1406.25 1854.4 Q1406.25 1850.78 1403.91 1848.68 Q1401.58 1846.57 1397.57 1846.57 Q1395.7 1846.57 1393.82 1846.99 Q1391.97 1847.4 1390.02 1848.28 L1390.02 1830.92 Z" fill="#000000" fill-rule="evenodd" fill-opacity="1" /><path clip-path="url(#clip810)" d="M1944.83 1861.55 L1961.15 1861.55 L1961.15 1865.48 L1939.2 1865.48 L1939.2 1861.55 Q1941.87 1858.79 1946.45 1854.16 Q1951.06 1849.51 1952.24 1848.17 Q1954.48 1845.65 1955.36 1843.91 Q1956.26 1842.15 1956.26 1840.46 Q1956.26 1837.71 1954.32 1835.97 Q1952.4 1834.23 1949.3 1834.23 Q1947.1 1834.23 1944.64 1835 Q1942.21 1835.76 1939.44 1837.31 L1939.44 1832.59 Q1942.26 1831.46 1944.71 1830.88 Q1947.17 1830.3 1949.2 1830.3 Q1954.57 1830.3 1957.77 1832.98 Q1960.96 1835.67 1960.96 1840.16 Q1960.96 1842.29 1960.15 1844.21 Q1959.37 1846.11 1957.26 1848.7 Q1956.68 1849.37 1953.58 1852.59 Q1950.48 1855.78 1944.83 1861.55 Z" fill="#000000" fill-rule="evenodd" fill-opacity="1" /><path clip-path="url(#clip810)" d="M1970.96 1859.6 L1975.85 1859.6 L1975.85 1865.48 L1970.96 1865.48 L1970.96 1859.6 Z" fill="#000000" fill-rule="evenodd" fill-opacity="1" /><path clip-path="url(#clip810)" d="M1996.03 1834 Q1992.42 1834 1990.59 1837.57 Q1988.79 1841.11 1988.79 1848.24 Q1988.79 1855.34 1990.59 1858.91 Q1992.42 1862.45 1996.03 1862.45 Q1999.67 1862.45 2001.47 1858.91 Q2003.3 1855.34 2003.3 1848.24 Q2003.3 1841.11 2001.47 1837.57 Q1999.67 1834 1996.03 1834 M1996.03 1830.3 Q2001.84 1830.3 2004.9 1834.9 Q2007.98 1839.49 2007.98 1848.24 Q2007.98 1856.96 2004.9 1861.57 Q2001.84 1866.15 1996.03 1866.15 Q1990.22 1866.15 1987.14 1861.57 Q1984.09 1856.96 1984.09 1848.24 Q1984.09 1839.49 1987.14 1834.9 Q1990.22 1830.3 1996.03 1830.3 Z" fill="#000000" fill-rule="evenodd" fill-opacity="1" /><path clip-path="url(#clip810)" d="M2541.01 1861.55 L2557.33 1861.55 L2557.33 1865.48 L2535.39 1865.48 L2535.39 1861.55 Q2538.05 1858.79 2542.63 1854.16 Q2547.24 1849.51 2548.42 1848.17 Q2550.66 1845.65 2551.54 1843.91 Q2552.45 1842.15 2552.45 1840.46 Q2552.45 1837.71 2550.5 1835.97 Q2548.58 1834.23 2545.48 1834.23 Q2543.28 1834.23 2540.82 1835 Q2538.39 1835.76 2535.62 1837.31 L2535.62 1832.59 Q2538.44 1831.46 2540.89 1830.88 Q2543.35 1830.3 2545.39 1830.3 Q2550.76 1830.3 2553.95 1832.98 Q2557.14 1835.67 2557.14 1840.16 Q2557.14 1842.29 2556.33 1844.21 Q2555.55 1846.11 2553.44 1848.7 Q2552.86 1849.37 2549.76 1852.59 Q2546.66 1855.78 2541.01 1861.55 Z" fill="#000000" fill-rule="evenodd" fill-opacity="1" /><path clip-path="url(#clip810)" d="M2567.14 1859.6 L2572.03 1859.6 L2572.03 1865.48 L2567.14 1865.48 L2567.14 1859.6 Z" fill="#000000" fill-rule="evenodd" fill-opacity="1" /><path clip-path="url(#clip810)" d="M2582.26 1830.92 L2600.62 1830.92 L2600.62 1834.86 L2586.54 1834.86 L2586.54 1843.33 Q2587.56 1842.98 2588.58 1842.82 Q2589.6 1842.64 2590.62 1842.64 Q2596.4 1842.64 2599.78 1845.81 Q2603.16 1848.98 2603.16 1854.4 Q2603.16 1859.97 2599.69 1863.08 Q2596.22 1866.15 2589.9 1866.15 Q2587.72 1866.15 2585.45 1865.78 Q2583.21 1865.41 2580.8 1864.67 L2580.8 1859.97 Q2582.88 1861.11 2585.11 1861.66 Q2587.33 1862.22 2589.81 1862.22 Q2593.81 1862.22 2596.15 1860.11 Q2598.49 1858.01 2598.49 1854.4 Q2598.49 1850.78 2596.15 1848.68 Q2593.81 1846.57 2589.81 1846.57 Q2587.93 1846.57 2586.06 1846.99 Q2584.2 1847.4 2582.26 1848.28 L2582.26 1830.92 Z" fill="#000000" fill-rule="evenodd" fill-opacity="1" /><polyline clip-path="url(#clip812)" style="stroke:#000000; stroke-linecap:round; stroke-linejoin:round; stroke-width:2; stroke-opacity:0.1; fill:none" points="
  115.057,1628.61 2640.76,1628.61 
  "/>
<polyline clip-path="url(#clip812)" style="stroke:#000000; stroke-linecap:round; stroke-linejoin:round; stroke-width:2; stroke-opacity:0.1; fill:none" points="
  115.057,1383.53 2640.76,1383.53 
  "/>
<polyline clip-path="url(#clip812)" style="stroke:#000000; stroke-linecap:round; stroke-linejoin:round; stroke-width:2; stroke-opacity:0.1; fill:none" points="
  115.057,1138.46 2640.76,1138.46 
  "/>
<polyline clip-path="url(#clip812)" style="stroke:#000000; stroke-linecap:round; stroke-linejoin:round; stroke-width:2; stroke-opacity:0.1; fill:none" points="
  115.057,893.377 2640.76,893.377 
  "/>
<polyline clip-path="url(#clip812)" style="stroke:#000000; stroke-linecap:round; stroke-linejoin:round; stroke-width:2; stroke-opacity:0.1; fill:none" points="
  115.057,648.299 2640.76,648.299 
  "/>
<polyline clip-path="url(#clip812)" style="stroke:#000000; stroke-linecap:round; stroke-linejoin:round; stroke-width:2; stroke-opacity:0.1; fill:none" points="
  115.057,403.22 2640.76,403.22 
  "/>
<polyline clip-path="url(#clip812)" style="stroke:#000000; stroke-linecap:round; stroke-linejoin:round; stroke-width:2; stroke-opacity:0.1; fill:none" points="
  115.057,158.142 2640.76,158.142 
  "/>
<polyline clip-path="url(#clip810)" style="stroke:#000000; stroke-linecap:round; stroke-linejoin:round; stroke-width:4; stroke-opacity:1; fill:none" points="
  115.057,1800.78 115.057,47.2441 
  "/>
<polyline clip-path="url(#clip810)" style="stroke:#000000; stroke-linecap:round; stroke-linejoin:round; stroke-width:4; stroke-opacity:1; fill:none" points="
  115.057,1628.61 133.955,1628.61 
  "/>
<polyline clip-path="url(#clip810)" style="stroke:#000000; stroke-linecap:round; stroke-linejoin:round; stroke-width:4; stroke-opacity:1; fill:none" points="
  115.057,1383.53 133.955,1383.53 
  "/>
<polyline clip-path="url(#clip810)" style="stroke:#000000; stroke-linecap:round; stroke-linejoin:round; stroke-width:4; stroke-opacity:1; fill:none" points="
  115.057,1138.46 133.955,1138.46 
  "/>
<polyline clip-path="url(#clip810)" style="stroke:#000000; stroke-linecap:round; stroke-linejoin:round; stroke-width:4; stroke-opacity:1; fill:none" points="
  115.057,893.377 133.955,893.377 
  "/>
<polyline clip-path="url(#clip810)" style="stroke:#000000; stroke-linecap:round; stroke-linejoin:round; stroke-width:4; stroke-opacity:1; fill:none" points="
  115.057,648.299 133.955,648.299 
  "/>
<polyline clip-path="url(#clip810)" style="stroke:#000000; stroke-linecap:round; stroke-linejoin:round; stroke-width:4; stroke-opacity:1; fill:none" points="
  115.057,403.22 133.955,403.22 
  "/>
<polyline clip-path="url(#clip810)" style="stroke:#000000; stroke-linecap:round; stroke-linejoin:round; stroke-width:4; stroke-opacity:1; fill:none" points="
  115.057,158.142 133.955,158.142 
  "/>
<path clip-path="url(#clip810)" d="M62.7928 1614.41 Q59.1817 1614.41 57.353 1617.98 Q55.5475 1621.52 55.5475 1628.65 Q55.5475 1635.75 57.353 1639.32 Q59.1817 1642.86 62.7928 1642.86 Q66.427 1642.86 68.2326 1639.32 Q70.0613 1635.75 70.0613 1628.65 Q70.0613 1621.52 68.2326 1617.98 Q66.427 1614.41 62.7928 1614.41 M62.7928 1610.71 Q68.6029 1610.71 71.6585 1615.31 Q74.7372 1619.9 74.7372 1628.65 Q74.7372 1637.37 71.6585 1641.98 Q68.6029 1646.56 62.7928 1646.56 Q56.9826 1646.56 53.904 1641.98 Q50.8484 1637.37 50.8484 1628.65 Q50.8484 1619.9 53.904 1615.31 Q56.9826 1610.71 62.7928 1610.71 Z" fill="#000000" fill-rule="evenodd" fill-opacity="1" /><path clip-path="url(#clip810)" d="M54.8299 1396.88 L62.4687 1396.88 L62.4687 1370.51 L54.1586 1372.18 L54.1586 1367.92 L62.4224 1366.25 L67.0983 1366.25 L67.0983 1396.88 L74.7372 1396.88 L74.7372 1400.81 L54.8299 1400.81 L54.8299 1396.88 Z" fill="#000000" fill-rule="evenodd" fill-opacity="1" /><path clip-path="url(#clip810)" d="M58.4178 1151.8 L74.7372 1151.8 L74.7372 1155.74 L52.7928 1155.74 L52.7928 1151.8 Q55.4549 1149.05 60.0382 1144.42 Q64.6446 1139.76 65.8252 1138.42 Q68.0705 1135.9 68.9502 1134.16 Q69.8529 1132.4 69.8529 1130.71 Q69.8529 1127.96 67.9085 1126.22 Q65.9872 1124.49 62.8854 1124.49 Q60.6863 1124.49 58.2326 1125.25 Q55.8021 1126.01 53.0243 1127.56 L53.0243 1122.84 Q55.8484 1121.71 58.3021 1121.13 Q60.7558 1120.55 62.7928 1120.55 Q68.1631 1120.55 71.3576 1123.24 Q74.552 1125.92 74.552 1130.41 Q74.552 1132.54 73.7418 1134.46 Q72.9548 1136.36 70.8483 1138.95 Q70.2696 1139.62 67.1678 1142.84 Q64.0659 1146.04 58.4178 1151.8 Z" fill="#000000" fill-rule="evenodd" fill-opacity="1" /><path clip-path="url(#clip810)" d="M67.6076 892.023 Q70.964 892.74 72.839 895.009 Q74.7372 897.277 74.7372 900.611 Q74.7372 905.726 71.2187 908.527 Q67.7002 911.328 61.2187 911.328 Q59.0428 911.328 56.728 910.888 Q54.4364 910.472 51.9827 909.615 L51.9827 905.101 Q53.9271 906.236 56.2419 906.814 Q58.5567 907.393 61.0798 907.393 Q65.478 907.393 67.7696 905.657 Q70.0844 903.921 70.0844 900.611 Q70.0844 897.555 67.9317 895.842 Q65.802 894.106 61.9826 894.106 L57.9549 894.106 L57.9549 890.264 L62.1678 890.264 Q65.6169 890.264 67.4455 888.898 Q69.2742 887.509 69.2742 884.916 Q69.2742 882.254 67.3761 880.842 Q65.5011 879.407 61.9826 879.407 Q60.0613 879.407 57.8623 879.824 Q55.6632 880.24 53.0243 881.12 L53.0243 876.953 Q55.6864 876.213 58.0012 875.842 Q60.3391 875.472 62.3993 875.472 Q67.7233 875.472 70.8252 877.902 Q73.927 880.31 73.927 884.43 Q73.927 887.301 72.2835 889.291 Q70.64 891.259 67.6076 892.023 Z" fill="#000000" fill-rule="evenodd" fill-opacity="1" /><path clip-path="url(#clip810)" d="M65.1539 635.093 L53.3484 653.542 L65.1539 653.542 L65.1539 635.093 M63.927 631.019 L69.8066 631.019 L69.8066 653.542 L74.7372 653.542 L74.7372 657.431 L69.8066 657.431 L69.8066 665.579 L65.1539 665.579 L65.1539 657.431 L49.5521 657.431 L49.5521 652.917 L63.927 631.019 Z" fill="#000000" fill-rule="evenodd" fill-opacity="1" /><path clip-path="url(#clip810)" d="M53.8345 385.94 L72.1909 385.94 L72.1909 389.875 L58.1169 389.875 L58.1169 398.348 Q59.1354 398 60.1539 397.838 Q61.1724 397.653 62.1909 397.653 Q67.978 397.653 71.3576 400.824 Q74.7372 403.996 74.7372 409.412 Q74.7372 414.991 71.265 418.093 Q67.7928 421.172 61.4734 421.172 Q59.2974 421.172 57.0289 420.801 Q54.7836 420.431 52.3762 419.69 L52.3762 414.991 Q54.4595 416.125 56.6817 416.681 Q58.9039 417.236 61.3808 417.236 Q65.3854 417.236 67.7233 415.13 Q70.0613 413.024 70.0613 409.412 Q70.0613 405.801 67.7233 403.695 Q65.3854 401.588 61.3808 401.588 Q59.5058 401.588 57.6308 402.005 Q55.7789 402.422 53.8345 403.301 L53.8345 385.94 Z" fill="#000000" fill-rule="evenodd" fill-opacity="1" /><path clip-path="url(#clip810)" d="M63.2095 156.279 Q60.0613 156.279 58.2095 158.431 Q56.3808 160.584 56.3808 164.334 Q56.3808 168.061 58.2095 170.237 Q60.0613 172.39 63.2095 172.39 Q66.3576 172.39 68.1863 170.237 Q70.0381 168.061 70.0381 164.334 Q70.0381 160.584 68.1863 158.431 Q66.3576 156.279 63.2095 156.279 M72.4918 141.626 L72.4918 145.885 Q70.7326 145.052 68.927 144.612 Q67.1446 144.172 65.3854 144.172 Q60.7558 144.172 58.3021 147.297 Q55.8715 150.422 55.5243 156.742 Q56.89 154.728 58.9502 153.663 Q61.0104 152.575 63.4872 152.575 Q68.6955 152.575 71.7048 155.746 Q74.7372 158.894 74.7372 164.334 Q74.7372 169.658 71.589 172.876 Q68.4409 176.093 63.2095 176.093 Q57.2141 176.093 54.0428 171.51 Q50.8716 166.904 50.8716 158.177 Q50.8716 149.982 54.7604 145.121 Q58.6493 140.237 65.2002 140.237 Q66.9594 140.237 68.7418 140.584 Q70.5474 140.931 72.4918 141.626 Z" fill="#000000" fill-rule="evenodd" fill-opacity="1" /><polyline clip-path="url(#clip812)" style="stroke:#009af9; stroke-linecap:round; stroke-linejoin:round; stroke-width:8; stroke-opacity:1; fill:none" points="
  186.539,1567.34 202.052,1564.11 345.491,1530.28 431.692,1506.53 504.574,1484.45 583.744,1458.39 656.732,1432.44 734.983,1402.58 825.644,1365.34 906.213,1329.87 
  976.864,1296.91 1053.89,1259.02 1131.38,1218.83 1217.05,1171.99 1298.57,1125.06 1383.32,1073.84 1454.67,1028.79 1541.78,971.419 1621.57,916.56 1695.27,863.94 
  1769.92,808.725 1853.58,744.558 1929.4,684.325 2016.2,612.924 2096.57,544.494 2175.81,474.846 2252.74,405.149 2331.6,331.579 2418.01,248.509 2543.52,123.244 
  2569.27,96.8724 
  "/>
<polyline clip-path="url(#clip812)" style="stroke:#e26f46; stroke-linecap:round; stroke-linejoin:round; stroke-width:4; stroke-opacity:1; fill:none" points="
  186.539,1751.15 202.052,1741.58 345.491,1653.06 431.692,1599.86 504.574,1554.88 583.744,1506.02 656.732,1460.98 734.983,1412.69 825.644,1356.74 906.213,1307.02 
  976.864,1263.41 1053.89,1215.88 1131.38,1168.06 1217.05,1115.18 1298.57,1064.88 1383.32,1012.57 1454.67,968.543 1541.78,914.786 1621.57,865.542 1695.27,820.061 
  1769.92,773.991 1853.58,722.358 1929.4,675.571 2016.2,622.003 2096.57,572.404 2175.81,523.505 2252.74,476.028 2331.6,427.358 2418.01,374.034 2543.52,296.573 
  2569.27,280.681 
  "/>
<polyline clip-path="url(#clip812)" style="stroke:#3da44d; stroke-linecap:round; stroke-linejoin:round; stroke-width:4; stroke-opacity:1; fill:none" points="
  186.539,1689.88 202.052,1681.9 345.491,1608.14 431.692,1563.8 504.574,1526.32 583.744,1485.61 656.732,1448.07 734.983,1407.83 825.644,1361.2 906.213,1319.77 
  976.864,1283.43 1053.89,1243.82 1131.38,1203.97 1217.05,1159.91 1298.57,1117.99 1383.32,1074.4 1454.67,1037.71 1541.78,992.911 1621.57,951.874 1695.27,913.973 
  1769.92,875.581 1853.58,832.554 1929.4,793.565 2016.2,748.925 2096.57,707.592 2175.81,666.843 2252.74,627.279 2331.6,586.72 2418.01,542.284 2543.52,477.733 
  2569.27,464.49 
  "/>
<polyline clip-path="url(#clip812)" style="stroke:#c271d2; stroke-linecap:round; stroke-linejoin:round; stroke-width:4; stroke-opacity:1; fill:none" points="
  186.539,1640.87 202.052,1634.16 345.491,1572.2 431.692,1534.96 504.574,1503.48 583.744,1469.28 656.732,1437.74 734.983,1403.94 825.644,1364.78 906.213,1329.97 
  976.864,1299.45 1053.89,1266.17 1131.38,1232.7 1217.05,1195.69 1298.57,1160.48 1383.32,1123.86 1454.67,1093.04 1541.78,1055.41 1621.57,1020.94 1695.27,989.103 
  1769.92,956.853 1853.58,920.711 1929.4,887.96 2016.2,850.462 2096.57,815.743 2175.81,781.513 2252.74,748.279 2331.6,714.21 2418.01,676.884 2543.52,622.661 
  2569.27,611.537 
  "/>
<polyline clip-path="url(#clip812)" style="stroke:#ac8d18; stroke-linecap:round; stroke-linejoin:round; stroke-width:4; stroke-opacity:1; fill:none" points="
  186.539,1628.73 202.052,1622.35 345.491,1563.31 431.692,1527.82 504.574,1497.82 583.744,1465.23 656.732,1435.19 734.983,1402.98 825.644,1365.66 906.213,1332.5 
  976.864,1303.41 1053.89,1271.71 1131.38,1239.81 1217.05,1204.54 1298.57,1170.99 1383.32,1136.1 1454.67,1106.73 1541.78,1070.88 1621.57,1038.03 1695.27,1007.7 
  1769.92,976.968 1853.58,942.53 1929.4,911.323 2016.2,875.593 2096.57,842.51 2175.81,809.894 2252.74,778.227 2331.6,745.764 2418.01,710.197 2543.52,658.531 
  2569.27,647.931 
  "/>
<path clip-path="url(#clip810)" d="
M1842.88 416.735 L2556.57 416.735 L2556.57 105.695 L1842.88 105.695  Z
  " fill="#ffffff" fill-rule="evenodd" fill-opacity="1"/>
<polyline clip-path="url(#clip810)" style="stroke:#000000; stroke-linecap:round; stroke-linejoin:round; stroke-width:4; stroke-opacity:1; fill:none" points="
  1842.88,416.735 2556.57,416.735 2556.57,105.695 1842.88,105.695 1842.88,416.735 
  "/>
<polyline clip-path="url(#clip810)" style="stroke:#009af9; stroke-linecap:round; stroke-linejoin:round; stroke-width:4; stroke-opacity:1; fill:none" points="
  1870.94,157.535 2039.32,157.535 
  "/>
<path clip-path="url(#clip810)" d="M2089.4 150.46 Q2089.4 150.484 2089.26 151.327 L2083.92 172.618 Q2083.64 173.742 2082.84 174.866 Q2082.07 176.014 2080.83 176.998 Q2079.61 178.005 2077.74 178.614 Q2075.89 179.246 2073.76 179.246 Q2070.36 179.246 2068.86 178.52 Q2067.39 177.818 2067.39 176.319 Q2067.39 175.007 2068.21 174.257 Q2069.03 173.531 2069.96 173.531 Q2070.85 173.531 2071.32 174.047 Q2071.79 174.562 2071.79 175.218 Q2071.79 175.944 2071.3 176.67 Q2070.81 177.419 2069.82 177.701 Q2071.39 178.192 2073.66 178.192 Q2078.46 178.192 2080.53 173.11 Q2080.57 173.039 2080.57 173.016 L2082.17 166.669 L2082.1 166.622 Q2081.7 167.09 2081.06 167.629 Q2080.46 168.144 2079.14 168.777 Q2077.83 169.409 2076.54 169.409 Q2073.85 169.409 2072 167.348 Q2070.17 165.263 2070.17 161.82 Q2070.17 159.314 2071.18 156.808 Q2072.21 154.278 2073.8 152.428 Q2075.42 150.554 2077.48 149.383 Q2079.57 148.212 2081.58 148.212 Q2082.99 148.212 2084.18 149.055 Q2085.37 149.875 2086.03 151.233 Q2086.15 150.109 2086.78 149.64 Q2087.44 149.172 2088 149.172 Q2088.63 149.172 2089 149.523 Q2089.4 149.851 2089.4 150.46 M2085.47 153.388 Q2085.47 153.248 2085.37 152.873 Q2085.28 152.475 2085 151.842 Q2084.74 151.21 2084.34 150.648 Q2083.95 150.086 2083.22 149.687 Q2082.52 149.266 2081.63 149.266 Q2080.17 149.266 2078.72 150.484 Q2077.27 151.678 2076.26 153.529 Q2075.33 155.309 2074.44 158.752 Q2073.57 162.195 2073.57 163.952 Q2073.57 165.685 2074.32 167.02 Q2075.07 168.355 2076.68 168.355 Q2078.56 168.355 2080.57 166.622 Q2082.66 164.818 2083.01 163.272 L2085.33 154.114 Q2085.47 153.552 2085.47 153.388 Z" fill="#000000" fill-rule="evenodd" fill-opacity="1" /><path clip-path="url(#clip810)" d="M2095.98 157.417 Q2095.98 149.313 2099 142.778 Q2100.29 140.037 2102.09 137.742 Q2103.9 135.446 2105.09 134.439 Q2106.29 133.432 2106.61 133.432 Q2107.08 133.432 2107.11 133.901 Q2107.11 134.135 2106.47 134.72 Q2098.74 142.59 2098.77 157.417 Q2098.77 172.29 2106.29 179.855 Q2107.11 180.675 2107.11 180.933 Q2107.11 181.401 2106.61 181.401 Q2106.29 181.401 2105.14 180.441 Q2103.99 179.481 2102.21 177.279 Q2100.43 175.077 2099.14 172.384 Q2095.98 165.849 2095.98 157.417 Z" fill="#000000" fill-rule="evenodd" fill-opacity="1" /><path clip-path="url(#clip810)" d="M2134.64 151.374 Q2134.64 152.685 2133.82 153.435 Q2133 154.161 2132.07 154.161 Q2131.18 154.161 2130.71 153.646 Q2130.24 153.13 2130.24 152.475 Q2130.24 151.585 2130.9 150.812 Q2131.55 150.039 2132.54 149.875 Q2131.58 149.266 2130.15 149.266 Q2129.21 149.266 2128.39 149.758 Q2127.59 150.249 2127.1 150.882 Q2126.63 151.514 2126.21 152.428 Q2125.81 153.318 2125.65 153.857 Q2125.51 154.372 2125.39 154.934 L2123.75 161.492 Q2122.96 164.607 2122.96 165.708 Q2122.96 167.067 2123.61 167.98 Q2124.27 168.87 2125.58 168.87 Q2126.09 168.87 2126.68 168.73 Q2127.27 168.566 2128.02 168.144 Q2128.79 167.699 2129.47 167.043 Q2130.17 166.364 2130.85 165.216 Q2131.53 164.069 2131.97 162.593 Q2132.11 162.078 2132.58 162.078 Q2133.17 162.078 2133.17 162.546 Q2133.17 162.944 2132.84 163.788 Q2132.54 164.607 2131.86 165.685 Q2131.2 166.739 2130.33 167.699 Q2129.47 168.636 2128.18 169.292 Q2126.89 169.948 2125.49 169.948 Q2123.47 169.948 2122.14 168.87 Q2120.8 167.793 2120.31 166.294 Q2120.19 166.505 2120.03 166.786 Q2119.86 167.067 2119.37 167.699 Q2118.9 168.308 2118.37 168.777 Q2117.83 169.222 2116.98 169.573 Q2116.16 169.948 2115.27 169.948 Q2114.15 169.948 2113.14 169.62 Q2112.16 169.292 2111.46 168.542 Q2110.75 167.793 2110.75 166.762 Q2110.75 165.615 2111.53 164.818 Q2112.32 163.998 2113.4 163.998 Q2114.08 163.998 2114.62 164.397 Q2115.18 164.795 2115.18 165.661 Q2115.18 166.622 2114.52 167.348 Q2113.87 168.074 2112.93 168.261 Q2113.89 168.87 2115.32 168.87 Q2116.87 168.87 2118.08 167.512 Q2119.3 166.153 2119.89 163.881 Q2121.34 158.424 2121.9 155.988 Q2122.46 153.529 2122.46 152.475 Q2122.46 151.491 2122.21 150.812 Q2121.95 150.132 2121.5 149.828 Q2121.08 149.5 2120.68 149.383 Q2120.31 149.266 2119.89 149.266 Q2119.19 149.266 2118.39 149.547 Q2117.62 149.828 2116.68 150.484 Q2115.77 151.116 2114.9 152.428 Q2114.03 153.739 2113.45 155.543 Q2113.33 156.082 2112.81 156.082 Q2112.25 156.058 2112.25 155.59 Q2112.25 155.192 2112.56 154.372 Q2112.88 153.529 2113.54 152.475 Q2114.22 151.421 2115.09 150.484 Q2115.98 149.523 2117.26 148.868 Q2118.58 148.212 2119.98 148.212 Q2120.61 148.212 2121.22 148.352 Q2121.86 148.469 2122.6 148.821 Q2123.38 149.172 2124.06 149.945 Q2124.74 150.718 2125.16 151.842 Q2125.44 151.303 2125.81 150.788 Q2126.21 150.273 2126.82 149.64 Q2127.45 148.985 2128.32 148.61 Q2129.21 148.212 2130.19 148.212 Q2131.15 148.212 2132.09 148.469 Q2133.03 148.704 2133.82 149.477 Q2134.64 150.226 2134.64 151.374 Z" fill="#000000" fill-rule="evenodd" fill-opacity="1" /><path clip-path="url(#clip810)" d="M2139.26 180.933 Q2139.26 180.699 2139.87 180.113 Q2147.6 172.243 2147.6 157.417 Q2147.6 142.543 2140.18 135.025 Q2139.26 134.158 2139.26 133.901 Q2139.26 133.432 2139.73 133.432 Q2140.06 133.432 2141.21 134.392 Q2142.38 135.353 2144.14 137.554 Q2145.92 139.756 2147.23 142.45 Q2150.39 148.985 2150.39 157.417 Q2150.39 165.521 2147.37 172.056 Q2146.08 174.796 2144.28 177.092 Q2142.47 179.387 2141.28 180.394 Q2140.08 181.401 2139.73 181.401 Q2139.26 181.401 2139.26 180.933 Z" fill="#000000" fill-rule="evenodd" fill-opacity="1" /><polyline clip-path="url(#clip810)" style="stroke:#e26f46; stroke-linecap:round; stroke-linejoin:round; stroke-width:4; stroke-opacity:1; fill:none" points="
  1870.94,209.375 2039.32,209.375 
  "/>
<path clip-path="url(#clip810)" d="M2089.63 193.23 L2089.63 197.79 Q2086.97 196.517 2084.61 195.892 Q2082.25 195.267 2080.05 195.267 Q2076.23 195.267 2074.15 196.748 Q2072.09 198.229 2072.09 200.961 Q2072.09 203.253 2073.45 204.433 Q2074.84 205.591 2078.68 206.308 L2081.51 206.887 Q2086.74 207.882 2089.21 210.405 Q2091.71 212.905 2091.71 217.118 Q2091.71 222.141 2088.34 224.734 Q2084.98 227.327 2078.47 227.327 Q2076.02 227.327 2073.24 226.771 Q2070.49 226.215 2067.52 225.127 L2067.52 220.313 Q2070.37 221.91 2073.1 222.72 Q2075.84 223.53 2078.47 223.53 Q2082.48 223.53 2084.65 221.956 Q2086.83 220.382 2086.83 217.466 Q2086.83 214.919 2085.26 213.484 Q2083.71 212.049 2080.14 211.331 L2077.29 210.776 Q2072.06 209.734 2069.72 207.512 Q2067.39 205.29 2067.39 201.331 Q2067.39 196.748 2070.6 194.109 Q2073.84 191.47 2079.52 191.47 Q2081.95 191.47 2084.47 191.91 Q2086.99 192.35 2089.63 193.23 Z" fill="#000000" fill-rule="evenodd" fill-opacity="1" /><path clip-path="url(#clip810)" d="M2121 212.628 L2121 214.711 L2101.41 214.711 Q2101.69 219.109 2104.05 221.424 Q2106.44 223.715 2110.67 223.715 Q2113.13 223.715 2115.42 223.114 Q2117.73 222.512 2120 221.308 L2120 225.336 Q2117.71 226.308 2115.3 226.817 Q2112.9 227.327 2110.42 227.327 Q2104.21 227.327 2100.58 223.715 Q2096.97 220.104 2096.97 213.947 Q2096.97 207.581 2100.4 203.854 Q2103.84 200.104 2109.68 200.104 Q2114.91 200.104 2117.94 203.484 Q2121 206.841 2121 212.628 M2116.74 211.378 Q2116.69 207.882 2114.77 205.799 Q2112.87 203.716 2109.72 203.716 Q2106.16 203.716 2104.01 205.729 Q2101.88 207.743 2101.55 211.401 L2116.74 211.378 Z" fill="#000000" fill-rule="evenodd" fill-opacity="1" /><path clip-path="url(#clip810)" d="M2146.64 201.725 L2146.64 205.706 Q2144.84 204.711 2143.01 204.225 Q2141.21 203.716 2139.35 203.716 Q2135.21 203.716 2132.92 206.354 Q2130.63 208.97 2130.63 213.716 Q2130.63 218.461 2132.92 221.1 Q2135.21 223.715 2139.35 223.715 Q2141.21 223.715 2143.01 223.229 Q2144.84 222.72 2146.64 221.725 L2146.64 225.66 Q2144.86 226.493 2142.94 226.91 Q2141.04 227.327 2138.89 227.327 Q2133.03 227.327 2129.58 223.646 Q2126.14 219.965 2126.14 213.716 Q2126.14 207.373 2129.61 203.739 Q2133.1 200.104 2139.17 200.104 Q2141.14 200.104 2143.01 200.521 Q2144.89 200.915 2146.64 201.725 Z" fill="#000000" fill-rule="evenodd" fill-opacity="1" /><path clip-path="url(#clip810)" d="M2165.83 213.623 Q2160.67 213.623 2158.68 214.803 Q2156.69 215.984 2156.69 218.831 Q2156.69 221.1 2158.17 222.442 Q2159.68 223.762 2162.25 223.762 Q2165.79 223.762 2167.92 221.262 Q2170.07 218.739 2170.07 214.572 L2170.07 213.623 L2165.83 213.623 M2174.33 211.864 L2174.33 226.655 L2170.07 226.655 L2170.07 222.72 Q2168.61 225.081 2166.44 226.215 Q2164.26 227.327 2161.11 227.327 Q2157.13 227.327 2154.77 225.104 Q2152.43 222.859 2152.43 219.109 Q2152.43 214.734 2155.35 212.512 Q2158.29 210.29 2164.1 210.29 L2170.07 210.29 L2170.07 209.873 Q2170.07 206.933 2168.13 205.336 Q2166.2 203.716 2162.71 203.716 Q2160.49 203.716 2158.38 204.248 Q2156.27 204.78 2154.33 205.845 L2154.33 201.91 Q2156.67 201.007 2158.87 200.567 Q2161.07 200.104 2163.15 200.104 Q2168.77 200.104 2171.55 203.021 Q2174.33 205.938 2174.33 211.864 Z" fill="#000000" fill-rule="evenodd" fill-opacity="1" /><path clip-path="url(#clip810)" d="M2204.65 211.007 L2204.65 226.655 L2200.39 226.655 L2200.39 211.146 Q2200.39 207.466 2198.96 205.637 Q2197.52 203.808 2194.65 203.808 Q2191.2 203.808 2189.21 206.007 Q2187.22 208.206 2187.22 212.003 L2187.22 226.655 L2182.94 226.655 L2182.94 200.729 L2187.22 200.729 L2187.22 204.757 Q2188.75 202.419 2190.81 201.262 Q2192.89 200.104 2195.6 200.104 Q2200.07 200.104 2202.36 202.882 Q2204.65 205.637 2204.65 211.007 Z" fill="#000000" fill-rule="evenodd" fill-opacity="1" /><path clip-path="url(#clip810)" d="M2217.36 193.368 L2217.36 200.729 L2226.14 200.729 L2226.14 204.04 L2217.36 204.04 L2217.36 218.114 Q2217.36 221.285 2218.22 222.188 Q2219.1 223.09 2221.76 223.09 L2226.14 223.09 L2226.14 226.655 L2221.76 226.655 Q2216.83 226.655 2214.95 224.827 Q2213.08 222.975 2213.08 218.114 L2213.08 204.04 L2209.95 204.04 L2209.95 200.729 L2213.08 200.729 L2213.08 193.368 L2217.36 193.368 Z" fill="#000000" fill-rule="evenodd" fill-opacity="1" /><path clip-path="url(#clip810)" d="M2253.91 212.628 L2253.91 214.711 L2234.33 214.711 Q2234.61 219.109 2236.97 221.424 Q2239.35 223.715 2243.59 223.715 Q2246.04 223.715 2248.33 223.114 Q2250.65 222.512 2252.92 221.308 L2252.92 225.336 Q2250.63 226.308 2248.22 226.817 Q2245.81 227.327 2243.33 227.327 Q2237.13 227.327 2233.5 223.715 Q2229.89 220.104 2229.89 213.947 Q2229.89 207.581 2233.31 203.854 Q2236.76 200.104 2242.59 200.104 Q2247.82 200.104 2250.86 203.484 Q2253.91 206.841 2253.91 212.628 M2249.65 211.378 Q2249.61 207.882 2247.69 205.799 Q2245.79 203.716 2242.64 203.716 Q2239.07 203.716 2236.92 205.729 Q2234.79 207.743 2234.47 211.401 L2249.65 211.378 Z" fill="#000000" fill-rule="evenodd" fill-opacity="1" /><path clip-path="url(#clip810)" d="M2275.58 190.637 L2285.39 190.637 L2285.39 193.947 L2279.84 193.947 L2279.84 229.595 L2285.39 229.595 L2285.39 232.905 L2275.58 232.905 L2275.58 190.637 Z" fill="#000000" fill-rule="evenodd" fill-opacity="1" /><path clip-path="url(#clip810)" d="M2295.88 222.72 L2303.52 222.72 L2303.52 196.355 L2295.21 198.021 L2295.21 193.762 L2303.47 192.095 L2308.15 192.095 L2308.15 222.72 L2315.79 222.72 L2315.79 226.655 L2295.88 226.655 L2295.88 222.72 Z" fill="#000000" fill-rule="evenodd" fill-opacity="1" /><path clip-path="url(#clip810)" d="M2325.72 220.776 L2330.6 220.776 L2330.6 224.757 L2326.81 232.164 L2323.82 232.164 L2325.72 224.757 L2325.72 220.776 Z" fill="#000000" fill-rule="evenodd" fill-opacity="1" /><path clip-path="url(#clip810)" d="M2359.4 222.72 L2375.72 222.72 L2375.72 226.655 L2353.77 226.655 L2353.77 222.72 Q2356.44 219.965 2361.02 215.336 Q2365.63 210.683 2366.81 209.341 Q2369.05 206.817 2369.93 205.081 Q2370.83 203.322 2370.83 201.632 Q2370.83 198.878 2368.89 197.142 Q2366.97 195.405 2363.87 195.405 Q2361.67 195.405 2359.21 196.169 Q2356.78 196.933 2354 198.484 L2354 193.762 Q2356.83 192.628 2359.28 192.049 Q2361.74 191.47 2363.77 191.47 Q2369.14 191.47 2372.34 194.155 Q2375.53 196.841 2375.53 201.331 Q2375.53 203.461 2374.72 205.382 Q2373.94 207.28 2371.83 209.873 Q2371.25 210.544 2368.15 213.762 Q2365.05 216.956 2359.4 222.72 Z" fill="#000000" fill-rule="evenodd" fill-opacity="1" /><path clip-path="url(#clip810)" d="M2394.88 190.637 L2394.88 232.905 L2385.07 232.905 L2385.07 229.595 L2390.6 229.595 L2390.6 193.947 L2385.07 193.947 L2385.07 190.637 L2394.88 190.637 Z" fill="#000000" fill-rule="evenodd" fill-opacity="1" /><polyline clip-path="url(#clip810)" style="stroke:#3da44d; stroke-linecap:round; stroke-linejoin:round; stroke-width:4; stroke-opacity:1; fill:none" points="
  1870.94,261.215 2039.32,261.215 
  "/>
<path clip-path="url(#clip810)" d="M2089.63 245.07 L2089.63 249.63 Q2086.97 248.357 2084.61 247.732 Q2082.25 247.107 2080.05 247.107 Q2076.23 247.107 2074.15 248.588 Q2072.09 250.069 2072.09 252.801 Q2072.09 255.093 2073.45 256.273 Q2074.84 257.431 2078.68 258.148 L2081.51 258.727 Q2086.74 259.722 2089.21 262.245 Q2091.71 264.745 2091.71 268.958 Q2091.71 273.981 2088.34 276.574 Q2084.98 279.167 2078.47 279.167 Q2076.02 279.167 2073.24 278.611 Q2070.49 278.055 2067.52 276.967 L2067.52 272.153 Q2070.37 273.75 2073.1 274.56 Q2075.84 275.37 2078.47 275.37 Q2082.48 275.37 2084.65 273.796 Q2086.83 272.222 2086.83 269.306 Q2086.83 266.759 2085.26 265.324 Q2083.71 263.889 2080.14 263.171 L2077.29 262.616 Q2072.06 261.574 2069.72 259.352 Q2067.39 257.13 2067.39 253.171 Q2067.39 248.588 2070.6 245.949 Q2073.84 243.31 2079.52 243.31 Q2081.95 243.31 2084.47 243.75 Q2086.99 244.19 2089.63 245.07 Z" fill="#000000" fill-rule="evenodd" fill-opacity="1" /><path clip-path="url(#clip810)" d="M2121 264.468 L2121 266.551 L2101.41 266.551 Q2101.69 270.949 2104.05 273.264 Q2106.44 275.555 2110.67 275.555 Q2113.13 275.555 2115.42 274.954 Q2117.73 274.352 2120 273.148 L2120 277.176 Q2117.71 278.148 2115.3 278.657 Q2112.9 279.167 2110.42 279.167 Q2104.21 279.167 2100.58 275.555 Q2096.97 271.944 2096.97 265.787 Q2096.97 259.421 2100.4 255.694 Q2103.84 251.944 2109.68 251.944 Q2114.91 251.944 2117.94 255.324 Q2121 258.681 2121 264.468 M2116.74 263.218 Q2116.69 259.722 2114.77 257.639 Q2112.87 255.556 2109.72 255.556 Q2106.16 255.556 2104.01 257.569 Q2101.88 259.583 2101.55 263.241 L2116.74 263.218 Z" fill="#000000" fill-rule="evenodd" fill-opacity="1" /><path clip-path="url(#clip810)" d="M2146.64 253.565 L2146.64 257.546 Q2144.84 256.551 2143.01 256.065 Q2141.21 255.556 2139.35 255.556 Q2135.21 255.556 2132.92 258.194 Q2130.63 260.81 2130.63 265.556 Q2130.63 270.301 2132.92 272.94 Q2135.21 275.555 2139.35 275.555 Q2141.21 275.555 2143.01 275.069 Q2144.84 274.56 2146.64 273.565 L2146.64 277.5 Q2144.86 278.333 2142.94 278.75 Q2141.04 279.167 2138.89 279.167 Q2133.03 279.167 2129.58 275.486 Q2126.14 271.805 2126.14 265.556 Q2126.14 259.213 2129.61 255.579 Q2133.1 251.944 2139.17 251.944 Q2141.14 251.944 2143.01 252.361 Q2144.89 252.755 2146.64 253.565 Z" fill="#000000" fill-rule="evenodd" fill-opacity="1" /><path clip-path="url(#clip810)" d="M2165.83 265.463 Q2160.67 265.463 2158.68 266.643 Q2156.69 267.824 2156.69 270.671 Q2156.69 272.94 2158.17 274.282 Q2159.68 275.602 2162.25 275.602 Q2165.79 275.602 2167.92 273.102 Q2170.07 270.579 2170.07 266.412 L2170.07 265.463 L2165.83 265.463 M2174.33 263.704 L2174.33 278.495 L2170.07 278.495 L2170.07 274.56 Q2168.61 276.921 2166.44 278.055 Q2164.26 279.167 2161.11 279.167 Q2157.13 279.167 2154.77 276.944 Q2152.43 274.699 2152.43 270.949 Q2152.43 266.574 2155.35 264.352 Q2158.29 262.13 2164.1 262.13 L2170.07 262.13 L2170.07 261.713 Q2170.07 258.773 2168.13 257.176 Q2166.2 255.556 2162.71 255.556 Q2160.49 255.556 2158.38 256.088 Q2156.27 256.62 2154.33 257.685 L2154.33 253.75 Q2156.67 252.847 2158.87 252.407 Q2161.07 251.944 2163.15 251.944 Q2168.77 251.944 2171.55 254.861 Q2174.33 257.778 2174.33 263.704 Z" fill="#000000" fill-rule="evenodd" fill-opacity="1" /><path clip-path="url(#clip810)" d="M2204.65 262.847 L2204.65 278.495 L2200.39 278.495 L2200.39 262.986 Q2200.39 259.306 2198.96 257.477 Q2197.52 255.648 2194.65 255.648 Q2191.2 255.648 2189.21 257.847 Q2187.22 260.046 2187.22 263.843 L2187.22 278.495 L2182.94 278.495 L2182.94 252.569 L2187.22 252.569 L2187.22 256.597 Q2188.75 254.259 2190.81 253.102 Q2192.89 251.944 2195.6 251.944 Q2200.07 251.944 2202.36 254.722 Q2204.65 257.477 2204.65 262.847 Z" fill="#000000" fill-rule="evenodd" fill-opacity="1" /><path clip-path="url(#clip810)" d="M2217.36 245.208 L2217.36 252.569 L2226.14 252.569 L2226.14 255.88 L2217.36 255.88 L2217.36 269.954 Q2217.36 273.125 2218.22 274.028 Q2219.1 274.93 2221.76 274.93 L2226.14 274.93 L2226.14 278.495 L2221.76 278.495 Q2216.83 278.495 2214.95 276.667 Q2213.08 274.815 2213.08 269.954 L2213.08 255.88 L2209.95 255.88 L2209.95 252.569 L2213.08 252.569 L2213.08 245.208 L2217.36 245.208 Z" fill="#000000" fill-rule="evenodd" fill-opacity="1" /><path clip-path="url(#clip810)" d="M2253.91 264.468 L2253.91 266.551 L2234.33 266.551 Q2234.61 270.949 2236.97 273.264 Q2239.35 275.555 2243.59 275.555 Q2246.04 275.555 2248.33 274.954 Q2250.65 274.352 2252.92 273.148 L2252.92 277.176 Q2250.63 278.148 2248.22 278.657 Q2245.81 279.167 2243.33 279.167 Q2237.13 279.167 2233.5 275.555 Q2229.89 271.944 2229.89 265.787 Q2229.89 259.421 2233.31 255.694 Q2236.76 251.944 2242.59 251.944 Q2247.82 251.944 2250.86 255.324 Q2253.91 258.681 2253.91 264.468 M2249.65 263.218 Q2249.61 259.722 2247.69 257.639 Q2245.79 255.556 2242.64 255.556 Q2239.07 255.556 2236.92 257.569 Q2234.79 259.583 2234.47 263.241 L2249.65 263.218 Z" fill="#000000" fill-rule="evenodd" fill-opacity="1" /><path clip-path="url(#clip810)" d="M2275.58 242.477 L2285.39 242.477 L2285.39 245.787 L2279.84 245.787 L2279.84 281.435 L2285.39 281.435 L2285.39 284.745 L2275.58 284.745 L2275.58 242.477 Z" fill="#000000" fill-rule="evenodd" fill-opacity="1" /><path clip-path="url(#clip810)" d="M2295.88 274.56 L2303.52 274.56 L2303.52 248.195 L2295.21 249.861 L2295.21 245.602 L2303.47 243.935 L2308.15 243.935 L2308.15 274.56 L2315.79 274.56 L2315.79 278.495 L2295.88 278.495 L2295.88 274.56 Z" fill="#000000" fill-rule="evenodd" fill-opacity="1" /><path clip-path="url(#clip810)" d="M2325.72 272.616 L2330.6 272.616 L2330.6 276.597 L2326.81 284.004 L2323.82 284.004 L2325.72 276.597 L2325.72 272.616 Z" fill="#000000" fill-rule="evenodd" fill-opacity="1" /><path clip-path="url(#clip810)" d="M2356.18 274.56 L2363.82 274.56 L2363.82 248.195 L2355.51 249.861 L2355.51 245.602 L2363.77 243.935 L2368.45 243.935 L2368.45 274.56 L2376.09 274.56 L2376.09 278.495 L2356.18 278.495 L2356.18 274.56 Z" fill="#000000" fill-rule="evenodd" fill-opacity="1" /><path clip-path="url(#clip810)" d="M2385.53 272.616 L2390.42 272.616 L2390.42 278.495 L2385.53 278.495 L2385.53 272.616 Z" fill="#000000" fill-rule="evenodd" fill-opacity="1" /><path clip-path="url(#clip810)" d="M2400.65 243.935 L2419 243.935 L2419 247.87 L2404.93 247.87 L2404.93 256.343 Q2405.95 255.995 2406.97 255.833 Q2407.99 255.648 2409 255.648 Q2414.79 255.648 2418.17 258.819 Q2421.55 261.991 2421.55 267.407 Q2421.55 272.986 2418.08 276.088 Q2414.61 279.167 2408.29 279.167 Q2406.11 279.167 2403.84 278.796 Q2401.6 278.426 2399.19 277.685 L2399.19 272.986 Q2401.27 274.12 2403.5 274.676 Q2405.72 275.231 2408.19 275.231 Q2412.2 275.231 2414.54 273.125 Q2416.87 271.018 2416.87 267.407 Q2416.87 263.796 2414.54 261.69 Q2412.2 259.583 2408.19 259.583 Q2406.32 259.583 2404.44 260 Q2402.59 260.417 2400.65 261.296 L2400.65 243.935 Z" fill="#000000" fill-rule="evenodd" fill-opacity="1" /><path clip-path="url(#clip810)" d="M2440.12 242.477 L2440.12 284.745 L2430.3 284.745 L2430.3 281.435 L2435.83 281.435 L2435.83 245.787 L2430.3 245.787 L2430.3 242.477 L2440.12 242.477 Z" fill="#000000" fill-rule="evenodd" fill-opacity="1" /><polyline clip-path="url(#clip810)" style="stroke:#c271d2; stroke-linecap:round; stroke-linejoin:round; stroke-width:4; stroke-opacity:1; fill:none" points="
  1870.94,313.055 2039.32,313.055 
  "/>
<path clip-path="url(#clip810)" d="M2089.63 296.91 L2089.63 301.47 Q2086.97 300.197 2084.61 299.572 Q2082.25 298.947 2080.05 298.947 Q2076.23 298.947 2074.15 300.428 Q2072.09 301.909 2072.09 304.641 Q2072.09 306.933 2073.45 308.113 Q2074.84 309.271 2078.68 309.988 L2081.51 310.567 Q2086.74 311.562 2089.21 314.085 Q2091.71 316.585 2091.71 320.798 Q2091.71 325.821 2088.34 328.414 Q2084.98 331.007 2078.47 331.007 Q2076.02 331.007 2073.24 330.451 Q2070.49 329.895 2067.52 328.807 L2067.52 323.993 Q2070.37 325.59 2073.1 326.4 Q2075.84 327.21 2078.47 327.21 Q2082.48 327.21 2084.65 325.636 Q2086.83 324.062 2086.83 321.146 Q2086.83 318.599 2085.26 317.164 Q2083.71 315.729 2080.14 315.011 L2077.29 314.456 Q2072.06 313.414 2069.72 311.192 Q2067.39 308.97 2067.39 305.011 Q2067.39 300.428 2070.6 297.789 Q2073.84 295.15 2079.52 295.15 Q2081.95 295.15 2084.47 295.59 Q2086.99 296.03 2089.63 296.91 Z" fill="#000000" fill-rule="evenodd" fill-opacity="1" /><path clip-path="url(#clip810)" d="M2121 316.308 L2121 318.391 L2101.41 318.391 Q2101.69 322.789 2104.05 325.104 Q2106.44 327.395 2110.67 327.395 Q2113.13 327.395 2115.42 326.794 Q2117.73 326.192 2120 324.988 L2120 329.016 Q2117.71 329.988 2115.3 330.497 Q2112.9 331.007 2110.42 331.007 Q2104.21 331.007 2100.58 327.395 Q2096.97 323.784 2096.97 317.627 Q2096.97 311.261 2100.4 307.534 Q2103.84 303.784 2109.68 303.784 Q2114.91 303.784 2117.94 307.164 Q2121 310.521 2121 316.308 M2116.74 315.058 Q2116.69 311.562 2114.77 309.479 Q2112.87 307.396 2109.72 307.396 Q2106.16 307.396 2104.01 309.409 Q2101.88 311.423 2101.55 315.081 L2116.74 315.058 Z" fill="#000000" fill-rule="evenodd" fill-opacity="1" /><path clip-path="url(#clip810)" d="M2146.64 305.405 L2146.64 309.386 Q2144.84 308.391 2143.01 307.905 Q2141.21 307.396 2139.35 307.396 Q2135.21 307.396 2132.92 310.034 Q2130.63 312.65 2130.63 317.396 Q2130.63 322.141 2132.92 324.78 Q2135.21 327.395 2139.35 327.395 Q2141.21 327.395 2143.01 326.909 Q2144.84 326.4 2146.64 325.405 L2146.64 329.34 Q2144.86 330.173 2142.94 330.59 Q2141.04 331.007 2138.89 331.007 Q2133.03 331.007 2129.58 327.326 Q2126.14 323.645 2126.14 317.396 Q2126.14 311.053 2129.61 307.419 Q2133.1 303.784 2139.17 303.784 Q2141.14 303.784 2143.01 304.201 Q2144.89 304.595 2146.64 305.405 Z" fill="#000000" fill-rule="evenodd" fill-opacity="1" /><path clip-path="url(#clip810)" d="M2165.83 317.303 Q2160.67 317.303 2158.68 318.483 Q2156.69 319.664 2156.69 322.511 Q2156.69 324.78 2158.17 326.122 Q2159.68 327.442 2162.25 327.442 Q2165.79 327.442 2167.92 324.942 Q2170.07 322.419 2170.07 318.252 L2170.07 317.303 L2165.83 317.303 M2174.33 315.544 L2174.33 330.335 L2170.07 330.335 L2170.07 326.4 Q2168.61 328.761 2166.44 329.895 Q2164.26 331.007 2161.11 331.007 Q2157.13 331.007 2154.77 328.784 Q2152.43 326.539 2152.43 322.789 Q2152.43 318.414 2155.35 316.192 Q2158.29 313.97 2164.1 313.97 L2170.07 313.97 L2170.07 313.553 Q2170.07 310.613 2168.13 309.016 Q2166.2 307.396 2162.71 307.396 Q2160.49 307.396 2158.38 307.928 Q2156.27 308.46 2154.33 309.525 L2154.33 305.59 Q2156.67 304.687 2158.87 304.247 Q2161.07 303.784 2163.15 303.784 Q2168.77 303.784 2171.55 306.701 Q2174.33 309.618 2174.33 315.544 Z" fill="#000000" fill-rule="evenodd" fill-opacity="1" /><path clip-path="url(#clip810)" d="M2204.65 314.687 L2204.65 330.335 L2200.39 330.335 L2200.39 314.826 Q2200.39 311.146 2198.96 309.317 Q2197.52 307.488 2194.65 307.488 Q2191.2 307.488 2189.21 309.687 Q2187.22 311.886 2187.22 315.683 L2187.22 330.335 L2182.94 330.335 L2182.94 304.409 L2187.22 304.409 L2187.22 308.437 Q2188.75 306.099 2190.81 304.942 Q2192.89 303.784 2195.6 303.784 Q2200.07 303.784 2202.36 306.562 Q2204.65 309.317 2204.65 314.687 Z" fill="#000000" fill-rule="evenodd" fill-opacity="1" /><path clip-path="url(#clip810)" d="M2217.36 297.048 L2217.36 304.409 L2226.14 304.409 L2226.14 307.72 L2217.36 307.72 L2217.36 321.794 Q2217.36 324.965 2218.22 325.868 Q2219.1 326.77 2221.76 326.77 L2226.14 326.77 L2226.14 330.335 L2221.76 330.335 Q2216.83 330.335 2214.95 328.507 Q2213.08 326.655 2213.08 321.794 L2213.08 307.72 L2209.95 307.72 L2209.95 304.409 L2213.08 304.409 L2213.08 297.048 L2217.36 297.048 Z" fill="#000000" fill-rule="evenodd" fill-opacity="1" /><path clip-path="url(#clip810)" d="M2253.91 316.308 L2253.91 318.391 L2234.33 318.391 Q2234.61 322.789 2236.97 325.104 Q2239.35 327.395 2243.59 327.395 Q2246.04 327.395 2248.33 326.794 Q2250.65 326.192 2252.92 324.988 L2252.92 329.016 Q2250.63 329.988 2248.22 330.497 Q2245.81 331.007 2243.33 331.007 Q2237.13 331.007 2233.5 327.395 Q2229.89 323.784 2229.89 317.627 Q2229.89 311.261 2233.31 307.534 Q2236.76 303.784 2242.59 303.784 Q2247.82 303.784 2250.86 307.164 Q2253.91 310.521 2253.91 316.308 M2249.65 315.058 Q2249.61 311.562 2247.69 309.479 Q2245.79 307.396 2242.64 307.396 Q2239.07 307.396 2236.92 309.409 Q2234.79 311.423 2234.47 315.081 L2249.65 315.058 Z" fill="#000000" fill-rule="evenodd" fill-opacity="1" /><path clip-path="url(#clip810)" d="M2275.58 294.317 L2285.39 294.317 L2285.39 297.627 L2279.84 297.627 L2279.84 333.275 L2285.39 333.275 L2285.39 336.585 L2275.58 336.585 L2275.58 294.317 Z" fill="#000000" fill-rule="evenodd" fill-opacity="1" /><path clip-path="url(#clip810)" d="M2295.88 326.4 L2303.52 326.4 L2303.52 300.035 L2295.21 301.701 L2295.21 297.442 L2303.47 295.775 L2308.15 295.775 L2308.15 326.4 L2315.79 326.4 L2315.79 330.335 L2295.88 330.335 L2295.88 326.4 Z" fill="#000000" fill-rule="evenodd" fill-opacity="1" /><path clip-path="url(#clip810)" d="M2325.72 324.456 L2330.6 324.456 L2330.6 328.437 L2326.81 335.844 L2323.82 335.844 L2325.72 328.437 L2325.72 324.456 Z" fill="#000000" fill-rule="evenodd" fill-opacity="1" /><path clip-path="url(#clip810)" d="M2356.18 326.4 L2363.82 326.4 L2363.82 300.035 L2355.51 301.701 L2355.51 297.442 L2363.77 295.775 L2368.45 295.775 L2368.45 326.4 L2376.09 326.4 L2376.09 330.335 L2356.18 330.335 L2356.18 326.4 Z" fill="#000000" fill-rule="evenodd" fill-opacity="1" /><path clip-path="url(#clip810)" d="M2385.53 324.456 L2390.42 324.456 L2390.42 330.335 L2385.53 330.335 L2385.53 324.456 Z" fill="#000000" fill-rule="evenodd" fill-opacity="1" /><path clip-path="url(#clip810)" d="M2401.41 326.4 L2409.05 326.4 L2409.05 300.035 L2400.74 301.701 L2400.74 297.442 L2409 295.775 L2413.68 295.775 L2413.68 326.4 L2421.32 326.4 L2421.32 330.335 L2401.41 330.335 L2401.41 326.4 Z" fill="#000000" fill-rule="evenodd" fill-opacity="1" /><path clip-path="url(#clip810)" d="M2440.12 294.317 L2440.12 336.585 L2430.3 336.585 L2430.3 333.275 L2435.83 333.275 L2435.83 297.627 L2430.3 297.627 L2430.3 294.317 L2440.12 294.317 Z" fill="#000000" fill-rule="evenodd" fill-opacity="1" /><polyline clip-path="url(#clip810)" style="stroke:#ac8d18; stroke-linecap:round; stroke-linejoin:round; stroke-width:4; stroke-opacity:1; fill:none" points="
  1870.94,364.895 2039.32,364.895 
  "/>
<path clip-path="url(#clip810)" d="M2089.63 348.75 L2089.63 353.31 Q2086.97 352.037 2084.61 351.412 Q2082.25 350.787 2080.05 350.787 Q2076.23 350.787 2074.15 352.268 Q2072.09 353.749 2072.09 356.481 Q2072.09 358.773 2073.45 359.953 Q2074.84 361.111 2078.68 361.828 L2081.51 362.407 Q2086.74 363.402 2089.21 365.925 Q2091.71 368.425 2091.71 372.638 Q2091.71 377.661 2088.34 380.254 Q2084.98 382.847 2078.47 382.847 Q2076.02 382.847 2073.24 382.291 Q2070.49 381.735 2067.52 380.647 L2067.52 375.833 Q2070.37 377.43 2073.1 378.24 Q2075.84 379.05 2078.47 379.05 Q2082.48 379.05 2084.65 377.476 Q2086.83 375.902 2086.83 372.986 Q2086.83 370.439 2085.26 369.004 Q2083.71 367.569 2080.14 366.851 L2077.29 366.296 Q2072.06 365.254 2069.72 363.032 Q2067.39 360.81 2067.39 356.851 Q2067.39 352.268 2070.6 349.629 Q2073.84 346.99 2079.52 346.99 Q2081.95 346.99 2084.47 347.43 Q2086.99 347.87 2089.63 348.75 Z" fill="#000000" fill-rule="evenodd" fill-opacity="1" /><path clip-path="url(#clip810)" d="M2121 368.148 L2121 370.231 L2101.41 370.231 Q2101.69 374.629 2104.05 376.944 Q2106.44 379.235 2110.67 379.235 Q2113.13 379.235 2115.42 378.634 Q2117.73 378.032 2120 376.828 L2120 380.856 Q2117.71 381.828 2115.3 382.337 Q2112.9 382.847 2110.42 382.847 Q2104.21 382.847 2100.58 379.235 Q2096.97 375.624 2096.97 369.467 Q2096.97 363.101 2100.4 359.374 Q2103.84 355.624 2109.68 355.624 Q2114.91 355.624 2117.94 359.004 Q2121 362.361 2121 368.148 M2116.74 366.898 Q2116.69 363.402 2114.77 361.319 Q2112.87 359.236 2109.72 359.236 Q2106.16 359.236 2104.01 361.249 Q2101.88 363.263 2101.55 366.921 L2116.74 366.898 Z" fill="#000000" fill-rule="evenodd" fill-opacity="1" /><path clip-path="url(#clip810)" d="M2146.64 357.245 L2146.64 361.226 Q2144.84 360.231 2143.01 359.745 Q2141.21 359.236 2139.35 359.236 Q2135.21 359.236 2132.92 361.874 Q2130.63 364.49 2130.63 369.236 Q2130.63 373.981 2132.92 376.62 Q2135.21 379.235 2139.35 379.235 Q2141.21 379.235 2143.01 378.749 Q2144.84 378.24 2146.64 377.245 L2146.64 381.18 Q2144.86 382.013 2142.94 382.43 Q2141.04 382.847 2138.89 382.847 Q2133.03 382.847 2129.58 379.166 Q2126.14 375.485 2126.14 369.236 Q2126.14 362.893 2129.61 359.259 Q2133.1 355.624 2139.17 355.624 Q2141.14 355.624 2143.01 356.041 Q2144.89 356.435 2146.64 357.245 Z" fill="#000000" fill-rule="evenodd" fill-opacity="1" /><path clip-path="url(#clip810)" d="M2165.83 369.143 Q2160.67 369.143 2158.68 370.323 Q2156.69 371.504 2156.69 374.351 Q2156.69 376.62 2158.17 377.962 Q2159.68 379.282 2162.25 379.282 Q2165.79 379.282 2167.92 376.782 Q2170.07 374.259 2170.07 370.092 L2170.07 369.143 L2165.83 369.143 M2174.33 367.384 L2174.33 382.175 L2170.07 382.175 L2170.07 378.24 Q2168.61 380.601 2166.44 381.735 Q2164.26 382.847 2161.11 382.847 Q2157.13 382.847 2154.77 380.624 Q2152.43 378.379 2152.43 374.629 Q2152.43 370.254 2155.35 368.032 Q2158.29 365.81 2164.1 365.81 L2170.07 365.81 L2170.07 365.393 Q2170.07 362.453 2168.13 360.856 Q2166.2 359.236 2162.71 359.236 Q2160.49 359.236 2158.38 359.768 Q2156.27 360.3 2154.33 361.365 L2154.33 357.43 Q2156.67 356.527 2158.87 356.087 Q2161.07 355.624 2163.15 355.624 Q2168.77 355.624 2171.55 358.541 Q2174.33 361.458 2174.33 367.384 Z" fill="#000000" fill-rule="evenodd" fill-opacity="1" /><path clip-path="url(#clip810)" d="M2204.65 366.527 L2204.65 382.175 L2200.39 382.175 L2200.39 366.666 Q2200.39 362.986 2198.96 361.157 Q2197.52 359.328 2194.65 359.328 Q2191.2 359.328 2189.21 361.527 Q2187.22 363.726 2187.22 367.523 L2187.22 382.175 L2182.94 382.175 L2182.94 356.249 L2187.22 356.249 L2187.22 360.277 Q2188.75 357.939 2190.81 356.782 Q2192.89 355.624 2195.6 355.624 Q2200.07 355.624 2202.36 358.402 Q2204.65 361.157 2204.65 366.527 Z" fill="#000000" fill-rule="evenodd" fill-opacity="1" /><path clip-path="url(#clip810)" d="M2217.36 348.888 L2217.36 356.249 L2226.14 356.249 L2226.14 359.56 L2217.36 359.56 L2217.36 373.634 Q2217.36 376.805 2218.22 377.708 Q2219.1 378.61 2221.76 378.61 L2226.14 378.61 L2226.14 382.175 L2221.76 382.175 Q2216.83 382.175 2214.95 380.347 Q2213.08 378.495 2213.08 373.634 L2213.08 359.56 L2209.95 359.56 L2209.95 356.249 L2213.08 356.249 L2213.08 348.888 L2217.36 348.888 Z" fill="#000000" fill-rule="evenodd" fill-opacity="1" /><path clip-path="url(#clip810)" d="M2253.91 368.148 L2253.91 370.231 L2234.33 370.231 Q2234.61 374.629 2236.97 376.944 Q2239.35 379.235 2243.59 379.235 Q2246.04 379.235 2248.33 378.634 Q2250.65 378.032 2252.92 376.828 L2252.92 380.856 Q2250.63 381.828 2248.22 382.337 Q2245.81 382.847 2243.33 382.847 Q2237.13 382.847 2233.5 379.235 Q2229.89 375.624 2229.89 369.467 Q2229.89 363.101 2233.31 359.374 Q2236.76 355.624 2242.59 355.624 Q2247.82 355.624 2250.86 359.004 Q2253.91 362.361 2253.91 368.148 M2249.65 366.898 Q2249.61 363.402 2247.69 361.319 Q2245.79 359.236 2242.64 359.236 Q2239.07 359.236 2236.92 361.249 Q2234.79 363.263 2234.47 366.921 L2249.65 366.898 Z" fill="#000000" fill-rule="evenodd" fill-opacity="1" /><path clip-path="url(#clip810)" d="M2275.58 346.157 L2285.39 346.157 L2285.39 349.467 L2279.84 349.467 L2279.84 385.115 L2285.39 385.115 L2285.39 388.425 L2275.58 388.425 L2275.58 346.157 Z" fill="#000000" fill-rule="evenodd" fill-opacity="1" /><path clip-path="url(#clip810)" d="M2295.88 378.24 L2303.52 378.24 L2303.52 351.875 L2295.21 353.541 L2295.21 349.282 L2303.47 347.615 L2308.15 347.615 L2308.15 378.24 L2315.79 378.24 L2315.79 382.175 L2295.88 382.175 L2295.88 378.24 Z" fill="#000000" fill-rule="evenodd" fill-opacity="1" /><path clip-path="url(#clip810)" d="M2325.72 376.296 L2330.6 376.296 L2330.6 380.277 L2326.81 387.684 L2323.82 387.684 L2325.72 380.277 L2325.72 376.296 Z" fill="#000000" fill-rule="evenodd" fill-opacity="1" /><path clip-path="url(#clip810)" d="M2356.18 378.24 L2363.82 378.24 L2363.82 351.875 L2355.51 353.541 L2355.51 349.282 L2363.77 347.615 L2368.45 347.615 L2368.45 378.24 L2376.09 378.24 L2376.09 382.175 L2356.18 382.175 L2356.18 378.24 Z" fill="#000000" fill-rule="evenodd" fill-opacity="1" /><path clip-path="url(#clip810)" d="M2385.53 376.296 L2390.42 376.296 L2390.42 382.175 L2385.53 382.175 L2385.53 376.296 Z" fill="#000000" fill-rule="evenodd" fill-opacity="1" /><path clip-path="url(#clip810)" d="M2410.6 350.694 Q2406.99 350.694 2405.16 354.259 Q2403.36 357.8 2403.36 364.93 Q2403.36 372.036 2405.16 375.601 Q2406.99 379.143 2410.6 379.143 Q2414.24 379.143 2416.04 375.601 Q2417.87 372.036 2417.87 364.93 Q2417.87 357.8 2416.04 354.259 Q2414.24 350.694 2410.6 350.694 M2410.6 346.99 Q2416.41 346.99 2419.47 351.597 Q2422.55 356.18 2422.55 364.93 Q2422.55 373.657 2419.47 378.263 Q2416.41 382.847 2410.6 382.847 Q2404.79 382.847 2401.71 378.263 Q2398.66 373.657 2398.66 364.93 Q2398.66 356.18 2401.71 351.597 Q2404.79 346.99 2410.6 346.99 Z" fill="#000000" fill-rule="evenodd" fill-opacity="1" /><path clip-path="url(#clip810)" d="M2440.76 350.694 Q2437.15 350.694 2435.32 354.259 Q2433.52 357.8 2433.52 364.93 Q2433.52 372.036 2435.32 375.601 Q2437.15 379.143 2440.76 379.143 Q2444.4 379.143 2446.2 375.601 Q2448.03 372.036 2448.03 364.93 Q2448.03 357.8 2446.2 354.259 Q2444.4 350.694 2440.76 350.694 M2440.76 346.99 Q2446.57 346.99 2449.63 351.597 Q2452.71 356.18 2452.71 364.93 Q2452.71 373.657 2449.63 378.263 Q2446.57 382.847 2440.76 382.847 Q2434.95 382.847 2431.87 378.263 Q2428.82 373.657 2428.82 364.93 Q2428.82 356.18 2431.87 351.597 Q2434.95 346.99 2440.76 346.99 Z" fill="#000000" fill-rule="evenodd" fill-opacity="1" /><path clip-path="url(#clip810)" d="M2461.74 378.24 L2469.37 378.24 L2469.37 351.875 L2461.06 353.541 L2461.06 349.282 L2469.33 347.615 L2474 347.615 L2474 378.24 L2481.64 378.24 L2481.64 382.175 L2461.74 382.175 L2461.74 378.24 Z" fill="#000000" fill-rule="evenodd" fill-opacity="1" /><path clip-path="url(#clip810)" d="M2500.44 346.157 L2500.44 388.425 L2490.62 388.425 L2490.62 385.115 L2496.16 385.115 L2496.16 349.467 L2490.62 349.467 L2490.62 346.157 L2500.44 346.157 Z" fill="#000000" fill-rule="evenodd" fill-opacity="1" /></svg>
