<?xml version="1.0" encoding="utf-8"?>
<svg xmlns="http://www.w3.org/2000/svg" xmlns:xlink="http://www.w3.org/1999/xlink" width="528" height="336" viewBox="0 0 2112 1344">
<defs>
  <clipPath id="clip140">
    <rect x="0" y="0" width="2112" height="1344"/>
  </clipPath>
</defs>
<path clip-path="url(#clip140)" d="M0 1344 L2112 1344 L2112 0 L0 0  Z" fill="#ffffff" fill-rule="evenodd" fill-opacity="1"/>
<defs>
  <clipPath id="clip141">
    <rect x="422" y="0" width="1479" height="1344"/>
  </clipPath>
</defs>
<defs>
  <clipPath id="clip142">
    <rect x="191" y="47" width="1875" height="1188"/>
  </clipPath>
</defs>
<path clip-path="url(#clip140)" d="M144.829 1234.58 L2064.76 1234.58 L2064.76 47.2441 L144.829 47.2441  Z" fill="#ffffff" fill-rule="evenodd" fill-opacity="1"/>
<defs>
  <clipPath id="clip143">
    <rect x="144" y="47" width="1921" height="1188"/>
  </clipPath>
</defs>
<polyline clip-path="url(#clip143)" style="stroke:#000000; stroke-linecap:round; stroke-linejoin:round; stroke-width:2; stroke-opacity:0.1; fill:none" points="199.167,1234.58 199.167,47.2441 "/>
<polyline clip-path="url(#clip143)" style="stroke:#000000; stroke-linecap:round; stroke-linejoin:round; stroke-width:2; stroke-opacity:0.1; fill:none" points="501.042,1234.58 501.042,47.2441 "/>
<polyline clip-path="url(#clip143)" style="stroke:#000000; stroke-linecap:round; stroke-linejoin:round; stroke-width:2; stroke-opacity:0.1; fill:none" points="802.917,1234.58 802.917,47.2441 "/>
<polyline clip-path="url(#clip143)" style="stroke:#000000; stroke-linecap:round; stroke-linejoin:round; stroke-width:2; stroke-opacity:0.1; fill:none" points="1104.79,1234.58 1104.79,47.2441 "/>
<polyline clip-path="url(#clip143)" style="stroke:#000000; stroke-linecap:round; stroke-linejoin:round; stroke-width:2; stroke-opacity:0.1; fill:none" points="1406.67,1234.58 1406.67,47.2441 "/>
<polyline clip-path="url(#clip143)" style="stroke:#000000; stroke-linecap:round; stroke-linejoin:round; stroke-width:2; stroke-opacity:0.1; fill:none" points="1708.54,1234.58 1708.54,47.2441 "/>
<polyline clip-path="url(#clip143)" style="stroke:#000000; stroke-linecap:round; stroke-linejoin:round; stroke-width:2; stroke-opacity:0.1; fill:none" points="2010.42,1234.58 2010.42,47.2441 "/>
<polyline clip-path="url(#clip140)" style="stroke:#000000; stroke-linecap:round; stroke-linejoin:round; stroke-width:4; stroke-opacity:1; fill:none" points="144.829,1234.58 2064.76,1234.58 "/>
<polyline clip-path="url(#clip140)" style="stroke:#000000; stroke-linecap:round; stroke-linejoin:round; stroke-width:4; stroke-opacity:1; fill:none" points="199.167,1234.58 199.167,1215.68 "/>
<polyline clip-path="url(#clip140)" style="stroke:#000000; stroke-linecap:round; stroke-linejoin:round; stroke-width:4; stroke-opacity:1; fill:none" points="501.042,1234.58 501.042,1215.68 "/>
<polyline clip-path="url(#clip140)" style="stroke:#000000; stroke-linecap:round; stroke-linejoin:round; stroke-width:4; stroke-opacity:1; fill:none" points="802.917,1234.58 802.917,1215.68 "/>
<polyline clip-path="url(#clip140)" style="stroke:#000000; stroke-linecap:round; stroke-linejoin:round; stroke-width:4; stroke-opacity:1; fill:none" points="1104.79,1234.58 1104.79,1215.68 "/>
<polyline clip-path="url(#clip140)" style="stroke:#000000; stroke-linecap:round; stroke-linejoin:round; stroke-width:4; stroke-opacity:1; fill:none" points="1406.67,1234.58 1406.67,1215.68 "/>
<polyline clip-path="url(#clip140)" style="stroke:#000000; stroke-linecap:round; stroke-linejoin:round; stroke-width:4; stroke-opacity:1; fill:none" points="1708.54,1234.58 1708.54,1215.68 "/>
<polyline clip-path="url(#clip140)" style="stroke:#000000; stroke-linecap:round; stroke-linejoin:round; stroke-width:4; stroke-opacity:1; fill:none" points="2010.42,1234.58 2010.42,1215.68 "/>
<path clip-path="url(#clip140)" d="M168.924 1277.85 L198.6 1277.85 L198.6 1281.78 L168.924 1281.78 L168.924 1277.85 Z" fill="#000000" fill-rule="nonzero" fill-opacity="1" /><path clip-path="url(#clip140)" d="M209.503 1290.74 L217.141 1290.74 L217.141 1264.37 L208.831 1266.04 L208.831 1261.78 L217.095 1260.11 L221.771 1260.11 L221.771 1290.74 L229.41 1290.74 L229.41 1294.67 L209.503 1294.67 L209.503 1290.74 Z" fill="#000000" fill-rule="nonzero" fill-opacity="1" /><path clip-path="url(#clip140)" d="M501.042 1263.19 Q497.431 1263.19 495.602 1266.76 Q493.797 1270.3 493.797 1277.43 Q493.797 1284.54 495.602 1288.1 Q497.431 1291.64 501.042 1291.64 Q504.676 1291.64 506.482 1288.1 Q508.311 1284.54 508.311 1277.43 Q508.311 1270.3 506.482 1266.76 Q504.676 1263.19 501.042 1263.19 M501.042 1259.49 Q506.852 1259.49 509.908 1264.1 Q512.987 1268.68 512.987 1277.43 Q512.987 1286.16 509.908 1290.76 Q506.852 1295.35 501.042 1295.35 Q495.232 1295.35 492.153 1290.76 Q489.098 1286.16 489.098 1277.43 Q489.098 1268.68 492.153 1264.1 Q495.232 1259.49 501.042 1259.49 Z" fill="#000000" fill-rule="nonzero" fill-opacity="1" /><path clip-path="url(#clip140)" d="M793.299 1290.74 L800.938 1290.74 L800.938 1264.37 L792.628 1266.04 L792.628 1261.78 L800.892 1260.11 L805.568 1260.11 L805.568 1290.74 L813.207 1290.74 L813.207 1294.67 L793.299 1294.67 L793.299 1290.74 Z" fill="#000000" fill-rule="nonzero" fill-opacity="1" /><path clip-path="url(#clip140)" d="M1099.45 1290.74 L1115.76 1290.74 L1115.76 1294.67 L1093.82 1294.67 L1093.82 1290.74 Q1096.48 1287.99 1101.07 1283.36 Q1105.67 1278.7 1106.85 1277.36 Q1109.1 1274.84 1109.98 1273.1 Q1110.88 1271.34 1110.88 1269.65 Q1110.88 1266.9 1108.94 1265.16 Q1107.01 1263.42 1103.91 1263.42 Q1101.71 1263.42 1099.26 1264.19 Q1096.83 1264.95 1094.05 1266.5 L1094.05 1261.78 Q1096.88 1260.65 1099.33 1260.07 Q1101.78 1259.49 1103.82 1259.49 Q1109.19 1259.49 1112.39 1262.17 Q1115.58 1264.86 1115.58 1269.35 Q1115.58 1271.48 1114.77 1273.4 Q1113.98 1275.3 1111.88 1277.89 Q1111.3 1278.56 1108.2 1281.78 Q1105.09 1284.98 1099.45 1290.74 Z" fill="#000000" fill-rule="nonzero" fill-opacity="1" /><path clip-path="url(#clip140)" d="M1410.92 1276.04 Q1414.27 1276.76 1416.15 1279.03 Q1418.05 1281.3 1418.05 1284.63 Q1418.05 1289.74 1414.53 1292.55 Q1411.01 1295.35 1404.53 1295.35 Q1402.35 1295.35 1400.04 1294.91 Q1397.74 1294.49 1395.29 1293.63 L1395.29 1289.12 Q1397.24 1290.25 1399.55 1290.83 Q1401.86 1291.41 1404.39 1291.41 Q1408.79 1291.41 1411.08 1289.67 Q1413.39 1287.94 1413.39 1284.63 Q1413.39 1281.57 1411.24 1279.86 Q1409.11 1278.12 1405.29 1278.12 L1401.26 1278.12 L1401.26 1274.28 L1405.48 1274.28 Q1408.92 1274.28 1410.75 1272.92 Q1412.58 1271.53 1412.58 1268.93 Q1412.58 1266.27 1410.68 1264.86 Q1408.81 1263.42 1405.29 1263.42 Q1403.37 1263.42 1401.17 1263.84 Q1398.97 1264.26 1396.33 1265.14 L1396.33 1260.97 Q1398.99 1260.23 1401.31 1259.86 Q1403.65 1259.49 1405.71 1259.49 Q1411.03 1259.49 1414.13 1261.92 Q1417.23 1264.33 1417.23 1268.45 Q1417.23 1271.32 1415.59 1273.31 Q1413.95 1275.28 1410.92 1276.04 Z" fill="#000000" fill-rule="nonzero" fill-opacity="1" /><path clip-path="url(#clip140)" d="M1711.55 1264.19 L1699.75 1282.64 L1711.55 1282.64 L1711.55 1264.19 M1710.33 1260.11 L1716.21 1260.11 L1716.21 1282.64 L1721.14 1282.64 L1721.14 1286.53 L1716.21 1286.53 L1716.21 1294.67 L1711.55 1294.67 L1711.55 1286.53 L1695.95 1286.53 L1695.95 1282.01 L1710.33 1260.11 Z" fill="#000000" fill-rule="nonzero" fill-opacity="1" /><path clip-path="url(#clip140)" d="M2000.7 1260.11 L2019.05 1260.11 L2019.05 1264.05 L2004.98 1264.05 L2004.98 1272.52 Q2006 1272.17 2007.02 1272.01 Q2008.03 1271.83 2009.05 1271.83 Q2014.84 1271.83 2018.22 1275 Q2021.6 1278.17 2021.6 1283.59 Q2021.6 1289.17 2018.13 1292.27 Q2014.65 1295.35 2008.34 1295.35 Q2006.16 1295.35 2003.89 1294.98 Q2001.65 1294.61 1999.24 1293.86 L1999.24 1289.17 Q2001.32 1290.3 2003.54 1290.86 Q2005.77 1291.41 2008.24 1291.41 Q2012.25 1291.41 2014.59 1289.3 Q2016.92 1287.2 2016.92 1283.59 Q2016.92 1279.98 2014.59 1277.87 Q2012.25 1275.76 2008.24 1275.76 Q2006.37 1275.76 2004.49 1276.18 Q2002.64 1276.6 2000.7 1277.48 L2000.7 1260.11 Z" fill="#000000" fill-rule="nonzero" fill-opacity="1" /><polyline clip-path="url(#clip143)" style="stroke:#000000; stroke-linecap:round; stroke-linejoin:round; stroke-width:2; stroke-opacity:0.1; fill:none" points="144.829,1099.15 2064.76,1099.15 "/>
<polyline clip-path="url(#clip143)" style="stroke:#000000; stroke-linecap:round; stroke-linejoin:round; stroke-width:2; stroke-opacity:0.1; fill:none" points="144.829,844.571 2064.76,844.571 "/>
<polyline clip-path="url(#clip143)" style="stroke:#000000; stroke-linecap:round; stroke-linejoin:round; stroke-width:2; stroke-opacity:0.1; fill:none" points="144.829,589.997 2064.76,589.997 "/>
<polyline clip-path="url(#clip143)" style="stroke:#000000; stroke-linecap:round; stroke-linejoin:round; stroke-width:2; stroke-opacity:0.1; fill:none" points="144.829,335.422 2064.76,335.422 "/>
<polyline clip-path="url(#clip143)" style="stroke:#000000; stroke-linecap:round; stroke-linejoin:round; stroke-width:2; stroke-opacity:0.1; fill:none" points="144.829,80.8479 2064.76,80.8479 "/>
<polyline clip-path="url(#clip140)" style="stroke:#000000; stroke-linecap:round; stroke-linejoin:round; stroke-width:4; stroke-opacity:1; fill:none" points="144.829,1234.58 144.829,47.2441 "/>
<polyline clip-path="url(#clip140)" style="stroke:#000000; stroke-linecap:round; stroke-linejoin:round; stroke-width:4; stroke-opacity:1; fill:none" points="144.829,1099.15 163.727,1099.15 "/>
<polyline clip-path="url(#clip140)" style="stroke:#000000; stroke-linecap:round; stroke-linejoin:round; stroke-width:4; stroke-opacity:1; fill:none" points="144.829,844.571 163.727,844.571 "/>
<polyline clip-path="url(#clip140)" style="stroke:#000000; stroke-linecap:round; stroke-linejoin:round; stroke-width:4; stroke-opacity:1; fill:none" points="144.829,589.997 163.727,589.997 "/>
<polyline clip-path="url(#clip140)" style="stroke:#000000; stroke-linecap:round; stroke-linejoin:round; stroke-width:4; stroke-opacity:1; fill:none" points="144.829,335.422 163.727,335.422 "/>
<polyline clip-path="url(#clip140)" style="stroke:#000000; stroke-linecap:round; stroke-linejoin:round; stroke-width:4; stroke-opacity:1; fill:none" points="144.829,80.8479 163.727,80.8479 "/>
<path clip-path="url(#clip140)" d="M52.4321 1099.6 L82.1079 1099.6 L82.1079 1103.53 L52.4321 1103.53 L52.4321 1099.6 Z" fill="#000000" fill-rule="nonzero" fill-opacity="1" /><path clip-path="url(#clip140)" d="M92.2467 1081.87 L110.603 1081.87 L110.603 1085.8 L96.5291 1085.8 L96.5291 1094.27 Q97.5476 1093.93 98.5661 1093.76 Q99.5847 1093.58 100.603 1093.58 Q106.39 1093.58 109.77 1096.75 Q113.149 1099.92 113.149 1105.34 Q113.149 1110.92 109.677 1114.02 Q106.205 1117.1 99.8856 1117.1 Q97.7097 1117.1 95.4412 1116.73 Q93.1958 1116.36 90.7884 1115.62 L90.7884 1110.92 Q92.8717 1112.05 95.0939 1112.61 Q97.3161 1113.16 99.793 1113.16 Q103.798 1113.16 106.136 1111.05 Q108.473 1108.95 108.473 1105.34 Q108.473 1101.73 106.136 1099.62 Q103.798 1097.51 99.793 1097.51 Q97.918 1097.51 96.043 1097.93 Q94.1912 1098.35 92.2467 1099.23 L92.2467 1081.87 Z" fill="#000000" fill-rule="nonzero" fill-opacity="1" /><path clip-path="url(#clip140)" d="M101.205 830.37 Q97.5939 830.37 95.7652 833.934 Q93.9597 837.476 93.9597 844.606 Q93.9597 851.712 95.7652 855.277 Q97.5939 858.819 101.205 858.819 Q104.839 858.819 106.645 855.277 Q108.473 851.712 108.473 844.606 Q108.473 837.476 106.645 833.934 Q104.839 830.37 101.205 830.37 M101.205 826.666 Q107.015 826.666 110.071 831.272 Q113.149 835.856 113.149 844.606 Q113.149 853.332 110.071 857.939 Q107.015 862.522 101.205 862.522 Q95.3949 862.522 92.3162 857.939 Q89.2606 853.332 89.2606 844.606 Q89.2606 835.856 92.3162 831.272 Q95.3949 826.666 101.205 826.666 Z" fill="#000000" fill-rule="nonzero" fill-opacity="1" /><path clip-path="url(#clip140)" d="M92.2467 572.717 L110.603 572.717 L110.603 576.652 L96.5291 576.652 L96.5291 585.124 Q97.5476 584.777 98.5661 584.615 Q99.5847 584.429 100.603 584.429 Q106.39 584.429 109.77 587.601 Q113.149 590.772 113.149 596.189 Q113.149 601.767 109.677 604.869 Q106.205 607.948 99.8856 607.948 Q97.7097 607.948 95.4412 607.577 Q93.1958 607.207 90.7884 606.466 L90.7884 601.767 Q92.8717 602.902 95.0939 603.457 Q97.3161 604.013 99.793 604.013 Q103.798 604.013 106.136 601.906 Q108.473 599.8 108.473 596.189 Q108.473 592.578 106.136 590.471 Q103.798 588.365 99.793 588.365 Q97.918 588.365 96.043 588.781 Q94.1912 589.198 92.2467 590.078 L92.2467 572.717 Z" fill="#000000" fill-rule="nonzero" fill-opacity="1" /><path clip-path="url(#clip140)" d="M61.8534 348.767 L69.4922 348.767 L69.4922 322.401 L61.1821 324.068 L61.1821 319.809 L69.4459 318.142 L74.1218 318.142 L74.1218 348.767 L81.7607 348.767 L81.7607 352.702 L61.8534 352.702 L61.8534 348.767 Z" fill="#000000" fill-rule="nonzero" fill-opacity="1" /><path clip-path="url(#clip140)" d="M101.205 321.221 Q97.5939 321.221 95.7652 324.786 Q93.9597 328.327 93.9597 335.457 Q93.9597 342.563 95.7652 346.128 Q97.5939 349.67 101.205 349.67 Q104.839 349.67 106.645 346.128 Q108.473 342.563 108.473 335.457 Q108.473 328.327 106.645 324.786 Q104.839 321.221 101.205 321.221 M101.205 317.517 Q107.015 317.517 110.071 322.124 Q113.149 326.707 113.149 335.457 Q113.149 344.184 110.071 348.79 Q107.015 353.374 101.205 353.374 Q95.3949 353.374 92.3162 348.79 Q89.2606 344.184 89.2606 335.457 Q89.2606 326.707 92.3162 322.124 Q95.3949 317.517 101.205 317.517 Z" fill="#000000" fill-rule="nonzero" fill-opacity="1" /><path clip-path="url(#clip140)" d="M62.8487 94.1927 L70.4876 94.1927 L70.4876 67.8271 L62.1774 69.4938 L62.1774 65.2346 L70.4413 63.5679 L75.1172 63.5679 L75.1172 94.1927 L82.756 94.1927 L82.756 98.1279 L62.8487 98.1279 L62.8487 94.1927 Z" fill="#000000" fill-rule="nonzero" fill-opacity="1" /><path clip-path="url(#clip140)" d="M92.2467 63.5679 L110.603 63.5679 L110.603 67.5031 L96.5291 67.5031 L96.5291 75.9752 Q97.5476 75.628 98.5661 75.466 Q99.5847 75.2808 100.603 75.2808 Q106.39 75.2808 109.77 78.4521 Q113.149 81.6234 113.149 87.04 Q113.149 92.6187 109.677 95.7205 Q106.205 98.7992 99.8856 98.7992 Q97.7097 98.7992 95.4412 98.4288 Q93.1958 98.0585 90.7884 97.3177 L90.7884 92.6187 Q92.8717 93.7529 95.0939 94.3085 Q97.3161 94.864 99.793 94.864 Q103.798 94.864 106.136 92.7576 Q108.473 90.6511 108.473 87.04 Q108.473 83.4289 106.136 81.3224 Q103.798 79.216 99.793 79.216 Q97.918 79.216 96.043 79.6326 Q94.1912 80.0493 92.2467 80.9289 L92.2467 63.5679 Z" fill="#000000" fill-rule="nonzero" fill-opacity="1" /><polyline clip-path="url(#clip143)" style="stroke:#009af9; stroke-linecap:round; stroke-linejoin:round; stroke-width:4; stroke-opacity:1; fill:none" points="199.167,1200.97 202.115,1197 205.063,1193.04 208.011,1189.09 210.959,1185.14 238.218,1149.14 265.477,1113.96 292.736,1079.61 319.995,1046.1 352.759,1006.91 385.522,968.93 413.222,937.751 440.923,907.429 471.014,875.462 501.105,844.507 528.846,816.866 556.587,790.085 586.328,762.328 616.07,735.559 650.528,705.78 684.986,677.329 715.609,653.158 746.231,630.035 773.085,610.62 799.938,592.012 829.215,572.641 858.492,554.229 887.943,536.673 917.394,520.087 949.956,502.877 982.518,486.851 1013.5,472.704 1044.48,459.628 1076.7,447.171 1108.91,435.873 1136.03,427.261 1163.14,419.471 1196.25,411.074 1229.36,403.902 1259.69,398.407 1290.02,393.94 1318.03,390.727 1346.04,388.391 1374.41,386.918 1402.78,386.346 1434.58,386.772 1466.38,388.329 1495.2,390.716 1524.01,394.03 1557,398.965 1590,405.115 1620.54,411.894 1651.09,419.716 1681.2,428.448 1711.32,438.193 1740.56,448.625 1769.8,460.012 1799.78,472.677 1829.75,486.346 1862.59,502.474 1895.43,519.808 1943.14,547.135 1990.84,577.005 2000.63,583.447 2010.42,589.997 "/>
<path clip-path="url(#clip143)" d="M501.042 844.571 L504.973 845.888 L508.904 847.188 L545.249 858.391 L581.594 868.118 L603.437 873.253 L625.279 877.855 L643.746 881.33 L662.213 884.425 L682.274 887.354 L702.334 889.833 L720.828 891.721 L739.322 893.226 L759.15 894.416 L778.977 895.166 L801.95 895.485 L824.922 895.215 L845.337 894.48 L865.752 893.28 L883.654 891.844 L901.556 890.05 L921.074 887.686 L940.592 884.896 L960.226 881.66 L979.86 877.993 L1001.57 873.438 L1023.28 868.356 L1043.93 863.031 L1064.59 857.23 L1086.06 850.693 L1107.54 843.641 L1125.62 837.304 L1143.69 830.603 L1165.77 821.926 L1187.84 812.705 L1208.06 803.78 L1228.27 794.398 L1246.95 785.328 L1265.62 775.868 L1284.54 765.887 L1303.45 755.507 L1324.65 743.399 L1345.85 730.789 L1365.06 718.928 L1384.27 706.655 L1406.27 692.097 L1428.26 676.998 L1448.63 662.536 L1468.99 647.611 L1489.07 632.442 L1509.14 616.823 L1528.64 601.228 L1548.13 585.207 L1568.11 568.344 L1588.1 551.034 L1609.99 531.557 L1631.88 511.545 L1663.69 481.519 L1695.49 450.363 L1702.02 443.831 L1708.54 437.252 L1708.54 437.252 L1702.02 435.075 L1695.49 432.945 L1663.69 423.246 L1631.88 414.677 L1609.99 409.435 L1588.1 404.728 L1568.11 400.9 L1548.13 397.518 L1528.64 394.649 L1509.14 392.204 L1489.07 390.131 L1468.99 388.507 L1448.63 387.321 L1428.26 386.598 L1406.27 386.337 L1384.27 386.617 L1365.06 387.304 L1345.85 388.404 L1324.65 390.095 L1303.45 392.289 L1284.54 394.671 L1265.62 397.452 L1246.95 400.59 L1228.27 404.118 L1208.06 408.377 L1187.84 413.092 L1165.77 418.761 L1143.69 424.975 L1125.62 430.47 L1107.54 436.33 L1086.06 443.766 L1064.59 451.718 L1043.93 459.852 L1023.28 468.462 L1001.57 478.025 L979.86 488.115 L960.226 497.694 L940.592 507.705 L921.074 518.083 L901.556 528.886 L883.654 539.17 L865.752 549.811 L845.337 562.384 L824.922 575.422 L801.95 590.65 L778.977 606.468 L759.15 620.595 L739.322 635.161 L720.828 649.143 L702.334 663.507 L682.274 679.521 L662.213 695.984 L643.746 711.537 L625.279 727.471 L603.437 746.809 L581.594 766.68 L545.249 800.927 L508.904 836.65 L504.973 840.602 L501.042 844.571  Z" fill="#e26f46" fill-rule="evenodd" fill-opacity="0.3"/>
<polyline clip-path="url(#clip143)" style="stroke:#e26f46; stroke-linecap:round; stroke-linejoin:round; stroke-width:4; stroke-opacity:1; fill:none" points="501.042,844.571 504.973,845.888 508.904,847.188 545.249,858.391 581.594,868.118 603.437,873.253 625.279,877.855 643.746,881.33 662.213,884.425 682.274,887.354 702.334,889.833 720.828,891.721 739.322,893.226 759.15,894.416 778.977,895.166 801.95,895.485 824.922,895.215 845.337,894.48 865.752,893.28 883.654,891.844 901.556,890.05 921.074,887.686 940.592,884.896 960.226,881.66 979.86,877.993 1001.57,873.438 1023.28,868.356 1043.93,863.031 1064.59,857.23 1086.06,850.693 1107.54,843.641 1125.62,837.304 1143.69,830.603 1165.77,821.926 1187.84,812.705 1208.06,803.78 1228.27,794.398 1246.95,785.328 1265.62,775.868 1284.54,765.887 1303.45,755.507 1324.65,743.399 1345.85,730.789 1365.06,718.928 1384.27,706.655 1406.27,692.097 1428.26,676.998 1448.63,662.536 1468.99,647.611 1489.07,632.442 1509.14,616.823 1528.64,601.228 1548.13,585.207 1568.11,568.344 1588.1,551.034 1609.99,531.557 1631.88,511.545 1663.69,481.519 1695.49,450.363 1702.02,443.831 1708.54,437.252 "/>
<polyline clip-path="url(#clip143)" style="stroke:#3da44d; stroke-linecap:round; stroke-linejoin:round; stroke-width:4; stroke-opacity:1; fill:none" points="199.167,691.826 202.115,693.81 205.063,695.785 208.011,697.749 210.959,699.704 238.218,717.32 265.477,734.106 292.736,750.061 319.995,765.186 352.759,782.266 385.522,798.147 413.222,810.638 440.923,822.272 471.014,833.938 501.105,844.592 528.846,853.518 556.587,861.584 586.328,869.276 616.07,875.98 650.528,882.511 684.986,887.715 715.609,891.227 746.231,893.69 773.085,894.989 799.938,895.481 829.215,895.099 858.492,893.76 887.943,891.447 917.394,888.164 949.956,883.406 982.518,877.464 1013.5,870.71 1044.48,862.883 1076.7,853.607 1108.91,843.172 1136.03,833.49 1163.14,822.985 1196.25,809.046 1229.36,793.882 1259.69,778.916 1290.02,762.923 1318.03,747.238 1346.04,730.677 1374.41,713.007 1402.78,694.438 1434.58,672.558 1466.38,649.548 1495.2,627.721 1524.01,604.967 1557,577.775 1590,549.367 1620.54,521.98 1651.09,493.549 1681.2,464.5 1711.32,434.437 1740.56,404.278 1769.8,373.165 1799.78,340.277 1829.75,306.386 1862.59,268.102 1895.43,228.612 1943.14,169.1 1990.84,107.045 2000.63,94.0001 2010.42,80.8479 "/>
<path clip-path="url(#clip140)" d="M208.827 242.342 L780.901 242.342 L780.901 86.8219 L208.827 86.8219  Z" fill="#ffffff" fill-rule="evenodd" fill-opacity="1"/>
<polyline clip-path="url(#clip140)" style="stroke:#000000; stroke-linecap:round; stroke-linejoin:round; stroke-width:4; stroke-opacity:1; fill:none" points="208.827,242.342 780.901,242.342 780.901,86.8219 208.827,86.8219 208.827,242.342 "/>
<polyline clip-path="url(#clip140)" style="stroke:#009af9; stroke-linecap:round; stroke-linejoin:round; stroke-width:4; stroke-opacity:1; fill:none" points="230.159,138.662 358.155,138.662 "/>
<path clip-path="url(#clip140)" d="M403.401 120.452 Q403.401 121.74 402.582 122.537 Q401.785 123.333 400.778 123.333 Q400.052 123.333 399.513 122.888 Q398.998 122.443 398.998 121.67 Q398.998 120.874 399.607 120.03 Q400.216 119.187 401.598 119.07 Q400.684 118.204 399.232 118.204 Q398.506 118.204 397.897 118.672 Q397.312 119.117 396.984 119.843 Q396.632 120.593 395.836 124.832 Q395.578 126.214 395.344 127.549 Q395.11 128.884 394.829 130.29 L398.811 130.29 Q399.326 130.29 399.537 130.313 Q399.747 130.336 399.911 130.453 Q400.099 130.571 400.099 130.828 Q400.099 131.484 399.794 131.648 Q399.513 131.789 398.67 131.789 L394.548 131.789 L391.667 146.99 Q391.596 147.435 391.292 148.84 Q391.011 150.222 390.332 152.494 Q389.652 154.789 388.973 156.148 Q388.598 156.921 388.107 157.647 Q387.638 158.396 386.959 159.146 Q386.28 159.895 385.39 160.341 Q384.499 160.809 383.563 160.809 Q381.97 160.809 380.728 159.919 Q379.487 159.029 379.487 157.506 Q379.487 156.218 380.283 155.422 Q381.103 154.625 382.11 154.625 Q382.836 154.625 383.352 155.07 Q383.89 155.515 383.89 156.288 Q383.89 156.616 383.773 156.991 Q383.656 157.366 383.399 157.787 Q383.141 158.232 382.579 158.537 Q382.017 158.841 381.244 158.888 Q382.157 159.755 383.563 159.755 Q384.008 159.755 384.406 159.568 Q384.804 159.404 385.132 158.982 Q385.483 158.56 385.741 158.139 Q385.999 157.741 386.256 156.968 Q386.514 156.218 386.678 155.656 Q386.842 155.094 387.053 154.087 Q387.287 153.08 387.404 152.471 Q387.521 151.885 387.732 150.737 L391.315 131.789 L388.153 131.789 Q387.591 131.789 387.357 131.765 Q387.146 131.742 386.982 131.625 Q386.818 131.484 386.818 131.203 Q386.818 130.758 387.006 130.571 Q387.216 130.36 387.451 130.336 Q387.685 130.29 388.247 130.29 L391.573 130.29 Q392.697 124.364 393.142 122.771 Q393.658 121.084 394.454 119.913 Q395.25 118.719 396.14 118.157 Q397.03 117.595 397.757 117.384 Q398.506 117.15 399.232 117.15 Q400.872 117.15 402.137 118.04 Q403.401 118.906 403.401 120.452 Z" fill="#000000" fill-rule="nonzero" fill-opacity="1" /><path clip-path="url(#clip140)" d="M409.857 138.979 Q409.857 130.875 412.879 124.34 Q414.167 121.6 415.97 119.304 Q417.774 117.009 418.968 116.002 Q420.163 114.995 420.491 114.995 Q420.959 114.995 420.983 115.463 Q420.983 115.697 420.35 116.283 Q412.621 124.153 412.644 138.979 Q412.644 153.852 420.163 161.418 Q420.983 162.238 420.983 162.495 Q420.983 162.964 420.491 162.964 Q420.163 162.964 419.015 162.004 Q417.868 161.043 416.087 158.841 Q414.307 156.64 413.019 153.946 Q409.857 147.411 409.857 138.979 Z" fill="#000000" fill-rule="nonzero" fill-opacity="1" /><path clip-path="url(#clip140)" d="M448.518 132.936 Q448.518 134.248 447.698 134.997 Q446.878 135.724 445.941 135.724 Q445.051 135.724 444.583 135.208 Q444.114 134.693 444.114 134.037 Q444.114 133.147 444.77 132.374 Q445.426 131.601 446.41 131.437 Q445.45 130.828 444.021 130.828 Q443.084 130.828 442.264 131.32 Q441.468 131.812 440.976 132.444 Q440.507 133.077 440.086 133.99 Q439.688 134.88 439.524 135.419 Q439.383 135.934 439.266 136.496 L437.626 143.055 Q436.83 146.17 436.83 147.271 Q436.83 148.629 437.486 149.543 Q438.142 150.433 439.453 150.433 Q439.969 150.433 440.554 150.292 Q441.14 150.128 441.889 149.707 Q442.662 149.262 443.342 148.606 Q444.044 147.927 444.723 146.779 Q445.403 145.631 445.848 144.156 Q445.988 143.64 446.457 143.64 Q447.042 143.64 447.042 144.109 Q447.042 144.507 446.714 145.35 Q446.41 146.17 445.731 147.247 Q445.075 148.301 444.208 149.262 Q443.342 150.199 442.053 150.854 Q440.765 151.51 439.36 151.51 Q437.345 151.51 436.01 150.433 Q434.675 149.355 434.183 147.856 Q434.066 148.067 433.902 148.348 Q433.738 148.629 433.246 149.262 Q432.778 149.871 432.239 150.339 Q431.701 150.784 430.857 151.135 Q430.038 151.51 429.148 151.51 Q428.023 151.51 427.016 151.182 Q426.032 150.854 425.33 150.105 Q424.627 149.355 424.627 148.325 Q424.627 147.177 425.4 146.381 Q426.196 145.561 427.274 145.561 Q427.953 145.561 428.492 145.959 Q429.054 146.357 429.054 147.224 Q429.054 148.184 428.398 148.91 Q427.742 149.636 426.805 149.824 Q427.766 150.433 429.194 150.433 Q430.74 150.433 431.958 149.074 Q433.176 147.716 433.762 145.444 Q435.214 139.986 435.776 137.55 Q436.338 135.091 436.338 134.037 Q436.338 133.053 436.081 132.374 Q435.823 131.695 435.378 131.39 Q434.956 131.062 434.558 130.945 Q434.183 130.828 433.762 130.828 Q433.059 130.828 432.263 131.109 Q431.49 131.39 430.553 132.046 Q429.639 132.679 428.773 133.99 Q427.906 135.302 427.321 137.105 Q427.203 137.644 426.688 137.644 Q426.126 137.621 426.126 137.152 Q426.126 136.754 426.431 135.934 Q426.758 135.091 427.414 134.037 Q428.094 132.983 428.96 132.046 Q429.85 131.086 431.138 130.43 Q432.45 129.774 433.855 129.774 Q434.488 129.774 435.097 129.915 Q435.729 130.032 436.479 130.383 Q437.252 130.735 437.931 131.507 Q438.61 132.28 439.032 133.405 Q439.313 132.866 439.688 132.351 Q440.086 131.835 440.695 131.203 Q441.327 130.547 442.194 130.172 Q443.084 129.774 444.068 129.774 Q445.028 129.774 445.965 130.032 Q446.902 130.266 447.698 131.039 Q448.518 131.789 448.518 132.936 Z" fill="#000000" fill-rule="nonzero" fill-opacity="1" /><path clip-path="url(#clip140)" d="M453.134 162.495 Q453.134 162.261 453.743 161.676 Q461.472 153.806 461.472 138.979 Q461.472 124.106 454.047 116.587 Q453.134 115.721 453.134 115.463 Q453.134 114.995 453.602 114.995 Q453.93 114.995 455.078 115.955 Q456.249 116.915 458.006 119.117 Q459.786 121.319 461.098 124.012 Q464.26 130.547 464.26 138.979 Q464.26 147.083 461.238 153.618 Q459.95 156.359 458.146 158.654 Q456.343 160.949 455.148 161.957 Q453.954 162.964 453.602 162.964 Q453.134 162.964 453.134 162.495 Z" fill="#000000" fill-rule="nonzero" fill-opacity="1" /><path clip-path="url(#clip140)" d="M484.86 143.687 Q484.907 143.102 485.821 143.102 L515.216 143.102 Q516.598 143.102 516.621 143.64 Q516.621 144.226 515.309 144.202 L486.148 144.202 Q484.86 144.226 484.86 143.687 M484.86 134.318 Q484.86 133.733 485.867 133.756 L515.169 133.756 Q516.598 133.756 516.621 134.318 Q516.621 134.857 515.403 134.857 L485.821 134.857 Q484.86 134.857 484.86 134.318 Z" fill="#000000" fill-rule="nonzero" fill-opacity="1" /><path clip-path="url(#clip140)" d="M580.096 138.3 Q580.377 138.581 580.377 138.979 Q580.377 139.377 580.096 139.658 Q579.815 139.94 579.417 139.94 L549.389 139.94 Q548.991 139.94 548.71 139.658 Q548.429 139.377 548.429 138.979 Q548.429 138.581 548.71 138.3 Q548.991 138.019 549.389 138.019 L579.417 138.019 Q579.815 138.019 580.096 138.3 Z" fill="#000000" fill-rule="nonzero" fill-opacity="1" /><path clip-path="url(#clip140)" d="M622.58 132.936 Q622.58 134.248 621.76 134.997 Q620.94 135.724 620.003 135.724 Q619.113 135.724 618.645 135.208 Q618.176 134.693 618.176 134.037 Q618.176 133.147 618.832 132.374 Q619.488 131.601 620.472 131.437 Q619.511 130.828 618.083 130.828 Q617.146 130.828 616.326 131.32 Q615.53 131.812 615.038 132.444 Q614.569 133.077 614.148 133.99 Q613.749 134.88 613.585 135.419 Q613.445 135.934 613.328 136.496 L611.688 143.055 Q610.892 146.17 610.892 147.271 Q610.892 148.629 611.548 149.543 Q612.204 150.433 613.515 150.433 Q614.03 150.433 614.616 150.292 Q615.202 150.128 615.951 149.707 Q616.724 149.262 617.403 148.606 Q618.106 147.927 618.785 146.779 Q619.464 145.631 619.91 144.156 Q620.05 143.64 620.519 143.64 Q621.104 143.64 621.104 144.109 Q621.104 144.507 620.776 145.35 Q620.472 146.17 619.792 147.247 Q619.137 148.301 618.27 149.262 Q617.403 150.199 616.115 150.854 Q614.827 151.51 613.422 151.51 Q611.407 151.51 610.072 150.433 Q608.737 149.355 608.245 147.856 Q608.128 148.067 607.964 148.348 Q607.8 148.629 607.308 149.262 Q606.84 149.871 606.301 150.339 Q605.762 150.784 604.919 151.135 Q604.099 151.51 603.209 151.51 Q602.085 151.51 601.078 151.182 Q600.094 150.854 599.391 150.105 Q598.689 149.355 598.689 148.325 Q598.689 147.177 599.462 146.381 Q600.258 145.561 601.336 145.561 Q602.015 145.561 602.553 145.959 Q603.116 146.357 603.116 147.224 Q603.116 148.184 602.46 148.91 Q601.804 149.636 600.867 149.824 Q601.827 150.433 603.256 150.433 Q604.802 150.433 606.02 149.074 Q607.238 147.716 607.824 145.444 Q609.276 139.986 609.838 137.55 Q610.4 135.091 610.4 134.037 Q610.4 133.053 610.142 132.374 Q609.885 131.695 609.44 131.39 Q609.018 131.062 608.62 130.945 Q608.245 130.828 607.824 130.828 Q607.121 130.828 606.325 131.109 Q605.552 131.39 604.615 132.046 Q603.701 132.679 602.835 133.99 Q601.968 135.302 601.382 137.105 Q601.265 137.644 600.75 137.644 Q600.188 137.621 600.188 137.152 Q600.188 136.754 600.492 135.934 Q600.82 135.091 601.476 134.037 Q602.155 132.983 603.022 132.046 Q603.912 131.086 605.2 130.43 Q606.512 129.774 607.917 129.774 Q608.55 129.774 609.159 129.915 Q609.791 130.032 610.541 130.383 Q611.313 130.735 611.993 131.507 Q612.672 132.28 613.094 133.405 Q613.375 132.866 613.749 132.351 Q614.148 131.835 614.757 131.203 Q615.389 130.547 616.256 130.172 Q617.146 129.774 618.129 129.774 Q619.09 129.774 620.027 130.032 Q620.964 130.266 621.76 131.039 Q622.58 131.789 622.58 132.936 Z" fill="#000000" fill-rule="nonzero" fill-opacity="1" /><path clip-path="url(#clip140)" d="M627.459 136.619 Q627.459 136.013 627.508 135.832 Q627.574 135.652 627.836 135.373 L634.279 128.192 Q637.804 124.224 637.804 120.765 Q637.804 118.519 636.624 116.912 Q635.46 115.305 633.312 115.305 Q631.836 115.305 630.59 116.207 Q629.344 117.109 628.77 118.715 Q628.869 118.683 629.213 118.683 Q630.049 118.683 630.508 119.207 Q630.984 119.732 630.984 120.437 Q630.984 121.339 630.394 121.781 Q629.82 122.208 629.246 122.208 Q629.016 122.208 628.705 122.158 Q628.41 122.109 627.934 121.65 Q627.459 121.175 627.459 120.338 Q627.459 117.994 629.23 116.125 Q631.017 114.256 633.738 114.256 Q636.821 114.256 638.837 116.092 Q640.87 117.912 640.87 120.765 Q640.87 121.765 640.559 122.683 Q640.264 123.585 639.854 124.29 Q639.46 124.995 638.378 126.126 Q637.296 127.257 636.427 128.061 Q635.558 128.864 633.607 130.569 L630.049 134.029 L636.099 134.029 Q639.051 134.029 639.28 133.767 Q639.608 133.291 640.018 130.783 L640.87 130.783 L639.92 136.619 L627.459 136.619 Z" fill="#000000" fill-rule="nonzero" fill-opacity="1" /><path clip-path="url(#clip140)" d="M660.261 139.565 Q659.16 139.565 659.16 138.979 Q659.16 138.394 660.308 138.394 Q660.448 138.394 660.682 138.417 Q660.94 138.441 660.987 138.441 L674.502 138.441 L674.502 124.879 Q674.502 124.832 674.478 124.621 Q674.455 124.387 674.455 124.247 Q674.455 123.099 675.017 123.099 Q675.602 123.099 675.602 124.247 L675.602 138.441 L689.141 138.441 Q689.188 138.441 689.422 138.417 Q689.656 138.394 689.796 138.394 Q690.897 138.394 690.897 138.979 Q690.921 139.565 689.75 139.565 Q689.609 139.565 689.398 139.541 Q689.188 139.518 689.141 139.518 L675.602 139.518 L675.602 153.759 Q675.602 154.86 675.017 154.86 Q674.455 154.86 674.455 153.712 Q674.455 153.571 674.478 153.337 Q674.502 153.126 674.502 153.08 L674.502 139.518 L660.987 139.518 Q660.94 139.518 660.659 139.541 Q660.401 139.565 660.261 139.565 Z" fill="#000000" fill-rule="nonzero" fill-opacity="1" /><path clip-path="url(#clip140)" d="M709.42 135.817 Q709.42 128.275 713.261 123.661 Q717.103 119.023 722.045 119.023 Q724.926 119.023 726.518 120.499 Q728.135 121.951 728.135 124.2 Q728.135 125.441 727.409 125.98 Q726.682 126.519 725.933 126.519 Q725.066 126.519 724.387 125.933 Q723.708 125.347 723.708 124.293 Q723.708 122.139 726.355 122.139 Q725.113 120.218 722.138 120.218 Q721.225 120.218 720.288 120.499 Q719.351 120.757 718.133 121.647 Q716.915 122.537 715.978 123.942 Q715.041 125.347 714.386 127.994 Q713.73 130.641 713.73 134.084 L713.73 135.232 Q715.697 130.477 719.726 130.5 Q723.755 130.5 726.542 133.569 Q729.329 136.637 729.329 141.181 Q729.329 145.842 726.425 148.934 Q723.52 152.026 719.445 152.026 Q717.618 152.026 715.955 151.253 Q714.315 150.503 712.769 148.77 Q711.247 147.037 710.334 143.711 Q709.42 140.385 709.42 135.817 M713.823 140.127 Q713.823 144.835 714.69 147.083 Q714.831 147.458 715.135 147.973 Q715.463 148.489 716.002 149.168 Q716.564 149.824 717.477 150.269 Q718.391 150.69 719.445 150.69 Q722.654 150.69 724.2 147.575 Q725.019 145.842 725.019 141.134 Q725.019 136.333 724.153 134.576 Q722.677 131.601 719.679 131.601 Q717.665 131.601 716.259 132.983 Q714.878 134.365 714.339 136.215 Q713.823 138.066 713.823 140.127 Z" fill="#000000" fill-rule="nonzero" fill-opacity="1" /><path clip-path="url(#clip140)" d="M756.296 132.936 Q756.296 134.248 755.476 134.997 Q754.657 135.724 753.72 135.724 Q752.83 135.724 752.361 135.208 Q751.893 134.693 751.893 134.037 Q751.893 133.147 752.549 132.374 Q753.204 131.601 754.188 131.437 Q753.228 130.828 751.799 130.828 Q750.862 130.828 750.042 131.32 Q749.246 131.812 748.754 132.444 Q748.286 133.077 747.864 133.99 Q747.466 134.88 747.302 135.419 Q747.161 135.934 747.044 136.496 L745.405 143.055 Q744.608 146.17 744.608 147.271 Q744.608 148.629 745.264 149.543 Q745.92 150.433 747.232 150.433 Q747.747 150.433 748.332 150.292 Q748.918 150.128 749.668 149.707 Q750.44 149.262 751.12 148.606 Q751.822 147.927 752.502 146.779 Q753.181 145.631 753.626 144.156 Q753.766 143.64 754.235 143.64 Q754.82 143.64 754.82 144.109 Q754.82 144.507 754.493 145.35 Q754.188 146.17 753.509 147.247 Q752.853 148.301 751.986 149.262 Q751.12 150.199 749.832 150.854 Q748.543 151.51 747.138 151.51 Q745.124 151.51 743.789 150.433 Q742.453 149.355 741.962 147.856 Q741.844 148.067 741.68 148.348 Q741.517 148.629 741.025 149.262 Q740.556 149.871 740.017 150.339 Q739.479 150.784 738.636 151.135 Q737.816 151.51 736.926 151.51 Q735.801 151.51 734.794 151.182 Q733.811 150.854 733.108 150.105 Q732.405 149.355 732.405 148.325 Q732.405 147.177 733.178 146.381 Q733.975 145.561 735.052 145.561 Q735.731 145.561 736.27 145.959 Q736.832 146.357 736.832 147.224 Q736.832 148.184 736.176 148.91 Q735.52 149.636 734.583 149.824 Q735.544 150.433 736.973 150.433 Q738.518 150.433 739.736 149.074 Q740.954 147.716 741.54 145.444 Q742.992 139.986 743.554 137.55 Q744.116 135.091 744.116 134.037 Q744.116 133.053 743.859 132.374 Q743.601 131.695 743.156 131.39 Q742.735 131.062 742.336 130.945 Q741.962 130.828 741.54 130.828 Q740.837 130.828 740.041 131.109 Q739.268 131.39 738.331 132.046 Q737.418 132.679 736.551 133.99 Q735.684 135.302 735.099 137.105 Q734.982 137.644 734.466 137.644 Q733.904 137.621 733.904 137.152 Q733.904 136.754 734.209 135.934 Q734.537 135.091 735.192 134.037 Q735.872 132.983 736.738 132.046 Q737.628 131.086 738.917 130.43 Q740.228 129.774 741.634 129.774 Q742.266 129.774 742.875 129.915 Q743.507 130.032 744.257 130.383 Q745.03 130.735 745.709 131.507 Q746.388 132.28 746.81 133.405 Q747.091 132.866 747.466 132.351 Q747.864 131.835 748.473 131.203 Q749.105 130.547 749.972 130.172 Q750.862 129.774 751.846 129.774 Q752.806 129.774 753.743 130.032 Q754.68 130.266 755.476 131.039 Q756.296 131.789 756.296 132.936 Z" fill="#000000" fill-rule="nonzero" fill-opacity="1" /><polyline clip-path="url(#clip140)" style="stroke:#3da44d; stroke-linecap:round; stroke-linejoin:round; stroke-width:4; stroke-opacity:1; fill:none" points="230.159,190.502 358.155,190.502 "/>
<path clip-path="url(#clip140)" d="M401.504 183.863 Q401.504 183.886 401.364 184.729 L396.023 206.02 Q395.742 207.145 394.946 208.269 Q394.173 209.417 392.932 210.4 Q391.714 211.408 389.84 212.017 Q387.989 212.649 385.858 212.649 Q382.462 212.649 380.963 211.923 Q379.487 211.22 379.487 209.721 Q379.487 208.41 380.307 207.66 Q381.127 206.934 382.064 206.934 Q382.954 206.934 383.422 207.449 Q383.89 207.964 383.89 208.62 Q383.89 209.346 383.399 210.072 Q382.907 210.822 381.923 211.103 Q383.492 211.595 385.764 211.595 Q390.566 211.595 392.627 206.512 Q392.674 206.442 392.674 206.419 L394.267 200.071 L394.196 200.024 Q393.798 200.493 393.166 201.031 Q392.557 201.547 391.245 202.179 Q389.933 202.812 388.645 202.812 Q385.952 202.812 384.101 200.75 Q382.274 198.666 382.274 195.223 Q382.274 192.716 383.282 190.21 Q384.312 187.681 385.905 185.83 Q387.521 183.956 389.582 182.785 Q391.667 181.614 393.681 181.614 Q395.086 181.614 396.281 182.457 Q397.476 183.277 398.131 184.636 Q398.248 183.511 398.881 183.043 Q399.537 182.575 400.099 182.575 Q400.731 182.575 401.106 182.926 Q401.504 183.254 401.504 183.863 M397.569 186.791 Q397.569 186.65 397.476 186.275 Q397.382 185.877 397.101 185.245 Q396.843 184.612 396.445 184.05 Q396.047 183.488 395.321 183.09 Q394.618 182.668 393.728 182.668 Q392.276 182.668 390.824 183.886 Q389.371 185.081 388.364 186.931 Q387.427 188.711 386.537 192.154 Q385.671 195.597 385.671 197.354 Q385.671 199.087 386.42 200.422 Q387.17 201.758 388.786 201.758 Q390.66 201.758 392.674 200.024 Q394.759 198.221 395.11 196.675 L397.429 187.517 Q397.569 186.955 397.569 186.791 Z" fill="#000000" fill-rule="nonzero" fill-opacity="1" /><path clip-path="url(#clip140)" d="M408.079 190.819 Q408.079 182.715 411.1 176.18 Q412.389 173.44 414.192 171.144 Q415.996 168.849 417.19 167.842 Q418.385 166.835 418.713 166.835 Q419.181 166.835 419.204 167.303 Q419.204 167.537 418.572 168.123 Q410.843 175.993 410.866 190.819 Q410.866 205.692 418.385 213.258 Q419.204 214.078 419.204 214.335 Q419.204 214.804 418.713 214.804 Q418.385 214.804 417.237 213.844 Q416.089 212.883 414.309 210.681 Q412.529 208.48 411.241 205.786 Q408.079 199.251 408.079 190.819 Z" fill="#000000" fill-rule="nonzero" fill-opacity="1" /><path clip-path="url(#clip140)" d="M446.74 184.776 Q446.74 186.088 445.92 186.837 Q445.1 187.564 444.163 187.564 Q443.273 187.564 442.805 187.048 Q442.336 186.533 442.336 185.877 Q442.336 184.987 442.992 184.214 Q443.648 183.441 444.632 183.277 Q443.671 182.668 442.243 182.668 Q441.306 182.668 440.486 183.16 Q439.689 183.652 439.198 184.284 Q438.729 184.917 438.308 185.83 Q437.909 186.72 437.745 187.259 Q437.605 187.774 437.488 188.336 L435.848 194.895 Q435.052 198.01 435.052 199.111 Q435.052 200.469 435.708 201.383 Q436.363 202.273 437.675 202.273 Q438.19 202.273 438.776 202.132 Q439.362 201.968 440.111 201.547 Q440.884 201.102 441.563 200.446 Q442.266 199.767 442.945 198.619 Q443.624 197.471 444.069 195.996 Q444.21 195.48 444.678 195.48 Q445.264 195.48 445.264 195.949 Q445.264 196.347 444.936 197.19 Q444.632 198.01 443.952 199.087 Q443.297 200.141 442.43 201.102 Q441.563 202.039 440.275 202.694 Q438.987 203.35 437.581 203.35 Q435.567 203.35 434.232 202.273 Q432.897 201.195 432.405 199.696 Q432.288 199.907 432.124 200.188 Q431.96 200.469 431.468 201.102 Q431 201.711 430.461 202.179 Q429.922 202.624 429.079 202.975 Q428.259 203.35 427.369 203.35 Q426.245 203.35 425.238 203.022 Q424.254 202.694 423.551 201.945 Q422.849 201.195 422.849 200.165 Q422.849 199.017 423.622 198.221 Q424.418 197.401 425.495 197.401 Q426.175 197.401 426.713 197.799 Q427.276 198.197 427.276 199.064 Q427.276 200.024 426.62 200.75 Q425.964 201.476 425.027 201.664 Q425.987 202.273 427.416 202.273 Q428.962 202.273 430.18 200.914 Q431.398 199.556 431.983 197.284 Q433.436 191.826 433.998 189.39 Q434.56 186.931 434.56 185.877 Q434.56 184.893 434.302 184.214 Q434.045 183.535 433.6 183.23 Q433.178 182.902 432.78 182.785 Q432.405 182.668 431.983 182.668 Q431.281 182.668 430.484 182.949 Q429.712 183.23 428.775 183.886 Q427.861 184.519 426.994 185.83 Q426.128 187.142 425.542 188.945 Q425.425 189.484 424.91 189.484 Q424.348 189.461 424.348 188.992 Q424.348 188.594 424.652 187.774 Q424.98 186.931 425.636 185.877 Q426.315 184.823 427.182 183.886 Q428.072 182.926 429.36 182.27 Q430.672 181.614 432.077 181.614 Q432.71 181.614 433.319 181.755 Q433.951 181.872 434.7 182.223 Q435.473 182.575 436.153 183.347 Q436.832 184.12 437.254 185.245 Q437.535 184.706 437.909 184.191 Q438.308 183.675 438.917 183.043 Q439.549 182.387 440.416 182.012 Q441.306 181.614 442.289 181.614 Q443.25 181.614 444.187 181.872 Q445.123 182.106 445.92 182.879 Q446.74 183.629 446.74 184.776 Z" fill="#000000" fill-rule="nonzero" fill-opacity="1" /><path clip-path="url(#clip140)" d="M451.356 214.335 Q451.356 214.101 451.965 213.516 Q459.694 205.646 459.694 190.819 Q459.694 175.946 452.269 168.427 Q451.356 167.561 451.356 167.303 Q451.356 166.835 451.824 166.835 Q452.152 166.835 453.3 167.795 Q454.471 168.755 456.228 170.957 Q458.008 173.159 459.319 175.852 Q462.481 182.387 462.481 190.819 Q462.481 198.923 459.46 205.458 Q458.172 208.199 456.368 210.494 Q454.565 212.789 453.37 213.797 Q452.176 214.804 451.824 214.804 Q451.356 214.804 451.356 214.335 Z" fill="#000000" fill-rule="nonzero" fill-opacity="1" /><path clip-path="url(#clip140)" d="M483.082 195.527 Q483.129 194.942 484.042 194.942 L513.437 194.942 Q514.819 194.942 514.843 195.48 Q514.843 196.066 513.531 196.042 L484.37 196.042 Q483.082 196.066 483.082 195.527 M483.082 186.158 Q483.082 185.573 484.089 185.596 L513.391 185.596 Q514.819 185.596 514.843 186.158 Q514.843 186.697 513.625 186.697 L484.042 186.697 Q483.082 186.697 483.082 186.158 Z" fill="#000000" fill-rule="nonzero" fill-opacity="1" /><path clip-path="url(#clip140)" d="M557.233 184.776 Q557.233 186.088 556.413 186.837 Q555.593 187.564 554.657 187.564 Q553.766 187.564 553.298 187.048 Q552.83 186.533 552.83 185.877 Q552.83 184.987 553.485 184.214 Q554.141 183.441 555.125 183.277 Q554.165 182.668 552.736 182.668 Q551.799 182.668 550.979 183.16 Q550.183 183.652 549.691 184.284 Q549.222 184.917 548.801 185.83 Q548.403 186.72 548.239 187.259 Q548.098 187.774 547.981 188.336 L546.342 194.895 Q545.545 198.01 545.545 199.111 Q545.545 200.469 546.201 201.383 Q546.857 202.273 548.168 202.273 Q548.684 202.273 549.269 202.132 Q549.855 201.968 550.604 201.547 Q551.377 201.102 552.057 200.446 Q552.759 199.767 553.439 198.619 Q554.118 197.471 554.563 195.996 Q554.703 195.48 555.172 195.48 Q555.757 195.48 555.757 195.949 Q555.757 196.347 555.429 197.19 Q555.125 198.01 554.446 199.087 Q553.79 200.141 552.923 201.102 Q552.057 202.039 550.768 202.694 Q549.48 203.35 548.075 203.35 Q546.06 203.35 544.725 202.273 Q543.39 201.195 542.898 199.696 Q542.781 199.907 542.617 200.188 Q542.453 200.469 541.962 201.102 Q541.493 201.711 540.954 202.179 Q540.416 202.624 539.572 202.975 Q538.753 203.35 537.863 203.35 Q536.738 203.35 535.731 203.022 Q534.747 202.694 534.045 201.945 Q533.342 201.195 533.342 200.165 Q533.342 199.017 534.115 198.221 Q534.911 197.401 535.989 197.401 Q536.668 197.401 537.207 197.799 Q537.769 198.197 537.769 199.064 Q537.769 200.024 537.113 200.75 Q536.457 201.476 535.52 201.664 Q536.481 202.273 537.909 202.273 Q539.455 202.273 540.673 200.914 Q541.891 199.556 542.477 197.284 Q543.929 191.826 544.491 189.39 Q545.053 186.931 545.053 185.877 Q545.053 184.893 544.796 184.214 Q544.538 183.535 544.093 183.23 Q543.671 182.902 543.273 182.785 Q542.898 182.668 542.477 182.668 Q541.774 182.668 540.978 182.949 Q540.205 183.23 539.268 183.886 Q538.354 184.519 537.488 185.83 Q536.621 187.142 536.036 188.945 Q535.919 189.484 535.403 189.484 Q534.841 189.461 534.841 188.992 Q534.841 188.594 535.146 187.774 Q535.474 186.931 536.129 185.877 Q536.809 184.823 537.675 183.886 Q538.565 182.926 539.854 182.27 Q541.165 181.614 542.571 181.614 Q543.203 181.614 543.812 181.755 Q544.444 181.872 545.194 182.223 Q545.967 182.575 546.646 183.347 Q547.325 184.12 547.747 185.245 Q548.028 184.706 548.403 184.191 Q548.801 183.675 549.41 183.043 Q550.042 182.387 550.909 182.012 Q551.799 181.614 552.783 181.614 Q553.743 181.614 554.68 181.872 Q555.617 182.106 556.413 182.879 Q557.233 183.629 557.233 184.776 Z" fill="#000000" fill-rule="nonzero" fill-opacity="1" /><path clip-path="url(#clip140)" d="M562.112 188.459 Q562.112 187.853 562.161 187.672 Q562.227 187.492 562.489 187.213 L568.933 180.032 Q572.458 176.064 572.458 172.605 Q572.458 170.359 571.277 168.752 Q570.113 167.145 567.965 167.145 Q566.49 167.145 565.244 168.047 Q563.998 168.949 563.424 170.555 Q563.522 170.523 563.866 170.523 Q564.703 170.523 565.162 171.047 Q565.637 171.572 565.637 172.277 Q565.637 173.179 565.047 173.621 Q564.473 174.048 563.899 174.048 Q563.67 174.048 563.358 173.998 Q563.063 173.949 562.588 173.49 Q562.112 173.015 562.112 172.178 Q562.112 169.834 563.883 167.965 Q565.67 166.096 568.392 166.096 Q571.474 166.096 573.491 167.932 Q575.524 169.752 575.524 172.605 Q575.524 173.605 575.212 174.523 Q574.917 175.425 574.507 176.13 Q574.114 176.835 573.032 177.966 Q571.95 179.097 571.081 179.901 Q570.212 180.704 568.26 182.409 L564.703 185.869 L570.753 185.869 Q573.704 185.869 573.933 185.607 Q574.261 185.131 574.671 182.623 L575.524 182.623 L574.573 188.459 L562.112 188.459 Z" fill="#000000" fill-rule="nonzero" fill-opacity="1" /><path clip-path="url(#clip140)" d="M625.48 190.14 Q625.761 190.421 625.761 190.819 Q625.761 191.217 625.48 191.498 Q625.199 191.78 624.801 191.78 L594.774 191.78 Q594.375 191.78 594.094 191.498 Q593.813 191.217 593.813 190.819 Q593.813 190.421 594.094 190.14 Q594.375 189.859 594.774 189.859 L624.801 189.859 Q625.199 189.859 625.48 190.14 Z" fill="#000000" fill-rule="nonzero" fill-opacity="1" /><path clip-path="url(#clip140)" d="M644.073 202.812 Q644.073 201.945 644.144 201.687 Q644.237 201.43 644.612 201.031 L653.817 190.772 Q658.853 185.104 658.853 180.162 Q658.853 176.953 657.167 174.658 Q655.504 172.362 652.435 172.362 Q650.327 172.362 648.547 173.651 Q646.767 174.939 645.947 177.234 Q646.088 177.187 646.58 177.187 Q647.774 177.187 648.43 177.937 Q649.109 178.686 649.109 179.694 Q649.109 180.982 648.266 181.614 Q647.446 182.223 646.626 182.223 Q646.299 182.223 645.853 182.153 Q645.432 182.083 644.753 181.427 Q644.073 180.748 644.073 179.553 Q644.073 176.204 646.603 173.533 Q649.156 170.863 653.044 170.863 Q657.448 170.863 660.329 173.487 Q663.233 176.087 663.233 180.162 Q663.233 181.591 662.788 182.902 Q662.366 184.191 661.781 185.198 Q661.219 186.205 659.673 187.821 Q658.127 189.437 656.885 190.585 Q655.644 191.733 652.857 194.169 L647.774 199.111 L656.417 199.111 Q660.633 199.111 660.961 198.736 Q661.429 198.057 662.015 194.473 L663.233 194.473 L661.874 202.812 L644.073 202.812 Z" fill="#000000" fill-rule="nonzero" fill-opacity="1" /><path clip-path="url(#clip140)" d="M690.949 184.776 Q690.949 186.088 690.13 186.837 Q689.31 187.564 688.373 187.564 Q687.483 187.564 687.014 187.048 Q686.546 186.533 686.546 185.877 Q686.546 184.987 687.202 184.214 Q687.858 183.441 688.841 183.277 Q687.881 182.668 686.452 182.668 Q685.515 182.668 684.696 183.16 Q683.899 183.652 683.407 184.284 Q682.939 184.917 682.517 185.83 Q682.119 186.72 681.955 187.259 Q681.815 187.774 681.698 188.336 L680.058 194.895 Q679.262 198.01 679.262 199.111 Q679.262 200.469 679.917 201.383 Q680.573 202.273 681.885 202.273 Q682.4 202.273 682.986 202.132 Q683.571 201.968 684.321 201.547 Q685.094 201.102 685.773 200.446 Q686.476 199.767 687.155 198.619 Q687.834 197.471 688.279 195.996 Q688.42 195.48 688.888 195.48 Q689.474 195.48 689.474 195.949 Q689.474 196.347 689.146 197.19 Q688.841 198.01 688.162 199.087 Q687.506 200.141 686.64 201.102 Q685.773 202.039 684.485 202.694 Q683.197 203.35 681.791 203.35 Q679.777 203.35 678.442 202.273 Q677.107 201.195 676.615 199.696 Q676.498 199.907 676.334 200.188 Q676.17 200.469 675.678 201.102 Q675.21 201.711 674.671 202.179 Q674.132 202.624 673.289 202.975 Q672.469 203.35 671.579 203.35 Q670.455 203.35 669.448 203.022 Q668.464 202.694 667.761 201.945 Q667.058 201.195 667.058 200.165 Q667.058 199.017 667.831 198.221 Q668.628 197.401 669.705 197.401 Q670.384 197.401 670.923 197.799 Q671.485 198.197 671.485 199.064 Q671.485 200.024 670.83 200.75 Q670.174 201.476 669.237 201.664 Q670.197 202.273 671.626 202.273 Q673.172 202.273 674.39 200.914 Q675.608 199.556 676.193 197.284 Q677.645 191.826 678.208 189.39 Q678.77 186.931 678.77 185.877 Q678.77 184.893 678.512 184.214 Q678.254 183.535 677.809 183.23 Q677.388 182.902 676.99 182.785 Q676.615 182.668 676.193 182.668 Q675.491 182.668 674.694 182.949 Q673.921 183.23 672.984 183.886 Q672.071 184.519 671.204 185.83 Q670.338 187.142 669.752 188.945 Q669.635 189.484 669.12 189.484 Q668.558 189.461 668.558 188.992 Q668.558 188.594 668.862 187.774 Q669.19 186.931 669.846 185.877 Q670.525 184.823 671.392 183.886 Q672.282 182.926 673.57 182.27 Q674.882 181.614 676.287 181.614 Q676.919 181.614 677.528 181.755 Q678.161 181.872 678.91 182.223 Q679.683 182.575 680.362 183.347 Q681.042 184.12 681.463 185.245 Q681.744 184.706 682.119 184.191 Q682.517 183.675 683.126 183.043 Q683.759 182.387 684.625 182.012 Q685.515 181.614 686.499 181.614 Q687.459 181.614 688.396 181.872 Q689.333 182.106 690.13 182.879 Q690.949 183.629 690.949 184.776 Z" fill="#000000" fill-rule="nonzero" fill-opacity="1" /><path clip-path="url(#clip140)" d="M1039.45 637.65 Q1033.94 637.65 1030.7 641.418 Q1027.5 645.185 1027.5 651.748 Q1027.5 658.27 1030.7 662.077 Q1033.94 665.845 1039.45 665.845 Q1044.96 665.845 1048.16 662.077 Q1051.4 658.27 1051.4 651.748 Q1051.4 645.185 1048.16 641.418 Q1044.96 637.65 1039.45 637.65 M1055.7 612.008 L1055.7 619.462 Q1052.62 618.004 1049.46 617.234 Q1046.34 616.464 1043.26 616.464 Q1035.16 616.464 1030.86 621.933 Q1026.61 627.402 1026 638.461 Q1028.39 634.936 1032 633.073 Q1035.6 631.169 1039.94 631.169 Q1049.05 631.169 1054.32 636.719 Q1059.63 642.228 1059.63 651.748 Q1059.63 661.065 1054.12 666.695 Q1048.61 672.326 1039.45 672.326 Q1028.96 672.326 1023.41 664.305 Q1017.86 656.244 1017.86 640.972 Q1017.86 626.632 1024.67 618.125 Q1031.47 609.578 1042.94 609.578 Q1046.01 609.578 1049.13 610.185 Q1052.29 610.793 1055.7 612.008 Z" fill="#000000" fill-rule="nonzero" fill-opacity="1" /><path clip-path="url(#clip140)" d="M1096.2 617.801 L1075.55 650.087 L1096.2 650.087 L1096.2 617.801 M1094.06 610.671 L1104.35 610.671 L1104.35 650.087 L1112.98 650.087 L1112.98 656.892 L1104.35 656.892 L1104.35 671.151 L1096.2 671.151 L1096.2 656.892 L1068.9 656.892 L1068.9 648.993 L1094.06 610.671 Z" fill="#000000" fill-rule="nonzero" fill-opacity="1" /><path clip-path="url(#clip140)" d="M1138.7 610.671 L1145.59 610.671 L1124.52 678.848 L1117.63 678.848 L1138.7 610.671 Z" fill="#000000" fill-rule="nonzero" fill-opacity="1" /><path clip-path="url(#clip140)" d="M1179.25 638.542 Q1185.12 639.797 1188.4 643.767 Q1191.73 647.737 1191.73 653.571 Q1191.73 662.523 1185.57 667.425 Q1179.41 672.326 1168.07 672.326 Q1164.26 672.326 1160.21 671.557 Q1156.2 670.827 1151.9 669.329 L1151.9 661.429 Q1155.31 663.414 1159.36 664.427 Q1163.41 665.44 1167.82 665.44 Q1175.52 665.44 1179.53 662.401 Q1183.58 659.363 1183.58 653.571 Q1183.58 648.223 1179.82 645.226 Q1176.09 642.187 1169.4 642.187 L1162.36 642.187 L1162.36 635.463 L1169.73 635.463 Q1175.76 635.463 1178.96 633.073 Q1182.16 630.642 1182.16 626.105 Q1182.16 621.447 1178.84 618.976 Q1175.56 616.464 1169.4 616.464 Q1166.04 616.464 1162.19 617.193 Q1158.35 617.923 1153.73 619.462 L1153.73 612.17 Q1158.39 610.874 1162.44 610.226 Q1166.53 609.578 1170.13 609.578 Q1179.45 609.578 1184.88 613.831 Q1190.31 618.044 1190.31 625.255 Q1190.31 630.278 1187.43 633.762 Q1184.55 637.205 1179.25 638.542 Z" fill="#000000" fill-rule="nonzero" fill-opacity="1" /></svg>
