<?xml version="1.0" encoding="utf-8"?>
<svg xmlns="http://www.w3.org/2000/svg" xmlns:xlink="http://www.w3.org/1999/xlink" width="528" height="336" viewBox="0 0 2112 1344">
<defs>
  <clipPath id="clip030">
    <rect x="0" y="0" width="2112" height="1344"/>
  </clipPath>
</defs>
<path clip-path="url(#clip030)" d="M0 1344 L2112 1344 L2112 0 L0 0  Z" fill="#ffffff" fill-rule="evenodd" fill-opacity="1"/>
<defs>
  <clipPath id="clip031">
    <rect x="422" y="0" width="1479" height="1344"/>
  </clipPath>
</defs>
<path clip-path="url(#clip030)" d="M244.502 1173.47 L2064.76 1173.47 L2064.76 47.2441 L244.502 47.2441  Z" fill="#ffffff" fill-rule="evenodd" fill-opacity="1"/>
<defs>
  <clipPath id="clip032">
    <rect x="244" y="47" width="1821" height="1127"/>
  </clipPath>
</defs>
<polyline clip-path="url(#clip032)" style="stroke:#000000; stroke-linecap:round; stroke-linejoin:round; stroke-width:2; stroke-opacity:0.1; fill:none" points="296.019,1173.47 296.019,47.2441 "/>
<polyline clip-path="url(#clip032)" style="stroke:#000000; stroke-linecap:round; stroke-linejoin:round; stroke-width:2; stroke-opacity:0.1; fill:none" points="639.463,1173.47 639.463,47.2441 "/>
<polyline clip-path="url(#clip032)" style="stroke:#000000; stroke-linecap:round; stroke-linejoin:round; stroke-width:2; stroke-opacity:0.1; fill:none" points="982.907,1173.47 982.907,47.2441 "/>
<polyline clip-path="url(#clip032)" style="stroke:#000000; stroke-linecap:round; stroke-linejoin:round; stroke-width:2; stroke-opacity:0.1; fill:none" points="1326.35,1173.47 1326.35,47.2441 "/>
<polyline clip-path="url(#clip032)" style="stroke:#000000; stroke-linecap:round; stroke-linejoin:round; stroke-width:2; stroke-opacity:0.1; fill:none" points="1669.8,1173.47 1669.8,47.2441 "/>
<polyline clip-path="url(#clip032)" style="stroke:#000000; stroke-linecap:round; stroke-linejoin:round; stroke-width:2; stroke-opacity:0.1; fill:none" points="2013.24,1173.47 2013.24,47.2441 "/>
<polyline clip-path="url(#clip030)" style="stroke:#000000; stroke-linecap:round; stroke-linejoin:round; stroke-width:4; stroke-opacity:1; fill:none" points="244.502,1173.47 2064.76,1173.47 "/>
<polyline clip-path="url(#clip030)" style="stroke:#000000; stroke-linecap:round; stroke-linejoin:round; stroke-width:4; stroke-opacity:1; fill:none" points="296.019,1173.47 296.019,1154.57 "/>
<polyline clip-path="url(#clip030)" style="stroke:#000000; stroke-linecap:round; stroke-linejoin:round; stroke-width:4; stroke-opacity:1; fill:none" points="639.463,1173.47 639.463,1154.57 "/>
<polyline clip-path="url(#clip030)" style="stroke:#000000; stroke-linecap:round; stroke-linejoin:round; stroke-width:4; stroke-opacity:1; fill:none" points="982.907,1173.47 982.907,1154.57 "/>
<polyline clip-path="url(#clip030)" style="stroke:#000000; stroke-linecap:round; stroke-linejoin:round; stroke-width:4; stroke-opacity:1; fill:none" points="1326.35,1173.47 1326.35,1154.57 "/>
<polyline clip-path="url(#clip030)" style="stroke:#000000; stroke-linecap:round; stroke-linejoin:round; stroke-width:4; stroke-opacity:1; fill:none" points="1669.8,1173.47 1669.8,1154.57 "/>
<polyline clip-path="url(#clip030)" style="stroke:#000000; stroke-linecap:round; stroke-linejoin:round; stroke-width:4; stroke-opacity:1; fill:none" points="2013.24,1173.47 2013.24,1154.57 "/>
<path clip-path="url(#clip030)" d="M296.019 1202.09 Q292.408 1202.09 290.579 1205.65 Q288.773 1209.19 288.773 1216.32 Q288.773 1223.43 290.579 1226.99 Q292.408 1230.53 296.019 1230.53 Q299.653 1230.53 301.458 1226.99 Q303.287 1223.43 303.287 1216.32 Q303.287 1209.19 301.458 1205.65 Q299.653 1202.09 296.019 1202.09 M296.019 1198.38 Q301.829 1198.38 304.884 1202.99 Q307.963 1207.57 307.963 1216.32 Q307.963 1225.05 304.884 1229.65 Q301.829 1234.24 296.019 1234.24 Q290.208 1234.24 287.13 1229.65 Q284.074 1225.05 284.074 1216.32 Q284.074 1207.57 287.13 1202.99 Q290.208 1198.38 296.019 1198.38 Z" fill="#000000" fill-rule="nonzero" fill-opacity="1" /><path clip-path="url(#clip030)" d="M629.845 1229.63 L637.484 1229.63 L637.484 1203.27 L629.173 1204.93 L629.173 1200.67 L637.437 1199.01 L642.113 1199.01 L642.113 1229.63 L649.752 1229.63 L649.752 1233.57 L629.845 1233.57 L629.845 1229.63 Z" fill="#000000" fill-rule="nonzero" fill-opacity="1" /><path clip-path="url(#clip030)" d="M977.56 1229.63 L993.879 1229.63 L993.879 1233.57 L971.935 1233.57 L971.935 1229.63 Q974.597 1226.88 979.18 1222.25 Q983.787 1217.59 984.967 1216.25 Q987.212 1213.73 988.092 1211.99 Q988.995 1210.23 988.995 1208.54 Q988.995 1205.79 987.05 1204.05 Q985.129 1202.32 982.027 1202.32 Q979.828 1202.32 977.375 1203.08 Q974.944 1203.84 972.166 1205.4 L972.166 1200.67 Q974.99 1199.54 977.444 1198.96 Q979.898 1198.38 981.935 1198.38 Q987.305 1198.38 990.499 1201.07 Q993.694 1203.75 993.694 1208.24 Q993.694 1210.37 992.884 1212.29 Q992.097 1214.19 989.99 1216.78 Q989.412 1217.46 986.31 1220.67 Q983.208 1223.87 977.56 1229.63 Z" fill="#000000" fill-rule="nonzero" fill-opacity="1" /><path clip-path="url(#clip030)" d="M1330.6 1214.93 Q1333.96 1215.65 1335.83 1217.92 Q1337.73 1220.19 1337.73 1223.52 Q1337.73 1228.64 1334.21 1231.44 Q1330.69 1234.24 1324.21 1234.24 Q1322.03 1234.24 1319.72 1233.8 Q1317.43 1233.38 1314.97 1232.53 L1314.97 1228.01 Q1316.92 1229.15 1319.23 1229.72 Q1321.55 1230.3 1324.07 1230.3 Q1328.47 1230.3 1330.76 1228.57 Q1333.08 1226.83 1333.08 1223.52 Q1333.08 1220.46 1330.92 1218.75 Q1328.79 1217.02 1324.97 1217.02 L1320.95 1217.02 L1320.95 1213.17 L1325.16 1213.17 Q1328.61 1213.17 1330.44 1211.81 Q1332.27 1210.42 1332.27 1207.83 Q1332.27 1205.16 1330.37 1203.75 Q1328.49 1202.32 1324.97 1202.32 Q1323.05 1202.32 1320.85 1202.73 Q1318.65 1203.15 1316.02 1204.03 L1316.02 1199.86 Q1318.68 1199.12 1320.99 1198.75 Q1323.33 1198.38 1325.39 1198.38 Q1330.71 1198.38 1333.82 1200.81 Q1336.92 1203.22 1336.92 1207.34 Q1336.92 1210.21 1335.27 1212.2 Q1333.63 1214.17 1330.6 1214.93 Z" fill="#000000" fill-rule="nonzero" fill-opacity="1" /><path clip-path="url(#clip030)" d="M1672.8 1203.08 L1661 1221.53 L1672.8 1221.53 L1672.8 1203.08 M1671.58 1199.01 L1677.46 1199.01 L1677.46 1221.53 L1682.39 1221.53 L1682.39 1225.42 L1677.46 1225.42 L1677.46 1233.57 L1672.8 1233.57 L1672.8 1225.42 L1657.2 1225.42 L1657.2 1220.9 L1671.58 1199.01 Z" fill="#000000" fill-rule="nonzero" fill-opacity="1" /><path clip-path="url(#clip030)" d="M2003.52 1199.01 L2021.87 1199.01 L2021.87 1202.94 L2007.8 1202.94 L2007.8 1211.41 Q2008.82 1211.07 2009.84 1210.9 Q2010.86 1210.72 2011.87 1210.72 Q2017.66 1210.72 2021.04 1213.89 Q2024.42 1217.06 2024.42 1222.48 Q2024.42 1228.06 2020.95 1231.16 Q2017.48 1234.24 2011.16 1234.24 Q2008.98 1234.24 2006.71 1233.87 Q2004.47 1233.5 2002.06 1232.76 L2002.06 1228.06 Q2004.14 1229.19 2006.36 1229.75 Q2008.59 1230.3 2011.06 1230.3 Q2015.07 1230.3 2017.41 1228.2 Q2019.74 1226.09 2019.74 1222.48 Q2019.74 1218.87 2017.41 1216.76 Q2015.07 1214.65 2011.06 1214.65 Q2009.19 1214.65 2007.31 1215.07 Q2005.46 1215.49 2003.52 1216.37 L2003.52 1199.01 Z" fill="#000000" fill-rule="nonzero" fill-opacity="1" /><path clip-path="url(#clip030)" d="M953.345 1314.01 L935.203 1266.49 L941.919 1266.49 L956.974 1306.5 L972.061 1266.49 L978.744 1266.49 L960.634 1314.01 L953.345 1314.01 Z" fill="#000000" fill-rule="nonzero" fill-opacity="1" /><path clip-path="url(#clip030)" d="M994.181 1282.47 Q989.471 1282.47 986.733 1286.16 Q983.996 1289.83 983.996 1296.22 Q983.996 1302.62 986.702 1306.31 Q989.439 1309.97 994.181 1309.97 Q998.86 1309.97 1001.6 1306.28 Q1004.33 1302.59 1004.33 1296.22 Q1004.33 1289.89 1001.6 1286.2 Q998.86 1282.47 994.181 1282.47 M994.181 1277.51 Q1001.82 1277.51 1006.18 1282.47 Q1010.54 1287.44 1010.54 1296.22 Q1010.54 1304.98 1006.18 1309.97 Q1001.82 1314.94 994.181 1314.94 Q986.511 1314.94 982.15 1309.97 Q977.821 1304.98 977.821 1296.22 Q977.821 1287.44 982.15 1282.47 Q986.511 1277.51 994.181 1277.51 Z" fill="#000000" fill-rule="nonzero" fill-opacity="1" /><path clip-path="url(#clip030)" d="M1020.25 1264.49 L1026.11 1264.49 L1026.11 1314.01 L1020.25 1314.01 L1020.25 1264.49 Z" fill="#000000" fill-rule="nonzero" fill-opacity="1" /><path clip-path="url(#clip030)" d="M1037.75 1299.95 L1037.75 1278.37 L1043.61 1278.37 L1043.61 1299.72 Q1043.61 1304.78 1045.58 1307.33 Q1047.56 1309.85 1051.5 1309.85 Q1056.25 1309.85 1058.98 1306.82 Q1061.75 1303.8 1061.75 1298.58 L1061.75 1278.37 L1067.61 1278.37 L1067.61 1314.01 L1061.75 1314.01 L1061.75 1308.54 Q1059.62 1311.79 1056.79 1313.38 Q1053.99 1314.94 1050.26 1314.94 Q1044.12 1314.94 1040.94 1311.12 Q1037.75 1307.3 1037.75 1299.95 M1052.49 1277.51 L1052.49 1277.51 Z" fill="#000000" fill-rule="nonzero" fill-opacity="1" /><path clip-path="url(#clip030)" d="M1107.43 1285.21 Q1109.62 1281.26 1112.68 1279.39 Q1115.73 1277.51 1119.87 1277.51 Q1125.44 1277.51 1128.47 1281.42 Q1131.49 1285.31 1131.49 1292.5 L1131.49 1314.01 L1125.6 1314.01 L1125.6 1292.69 Q1125.6 1287.57 1123.79 1285.08 Q1121.97 1282.6 1118.25 1282.6 Q1113.7 1282.6 1111.06 1285.62 Q1108.41 1288.65 1108.41 1293.87 L1108.41 1314.01 L1102.53 1314.01 L1102.53 1292.69 Q1102.53 1287.53 1100.71 1285.08 Q1098.9 1282.6 1095.11 1282.6 Q1090.62 1282.6 1087.98 1285.66 Q1085.34 1288.68 1085.34 1293.87 L1085.34 1314.01 L1079.45 1314.01 L1079.45 1278.37 L1085.34 1278.37 L1085.34 1283.9 Q1087.34 1280.63 1090.14 1279.07 Q1092.95 1277.51 1096.8 1277.51 Q1100.68 1277.51 1103.39 1279.48 Q1106.12 1281.45 1107.43 1285.21 Z" fill="#000000" fill-rule="nonzero" fill-opacity="1" /><path clip-path="url(#clip030)" d="M1173.66 1294.73 L1173.66 1297.59 L1146.74 1297.59 Q1147.12 1303.64 1150.36 1306.82 Q1153.64 1309.97 1159.47 1309.97 Q1162.84 1309.97 1165.99 1309.14 Q1169.17 1308.32 1172.29 1306.66 L1172.29 1312.2 Q1169.14 1313.54 1165.83 1314.24 Q1162.52 1314.94 1159.12 1314.94 Q1150.59 1314.94 1145.59 1309.97 Q1140.62 1305.01 1140.62 1296.54 Q1140.62 1287.79 1145.34 1282.66 Q1150.08 1277.51 1158.1 1277.51 Q1165.29 1277.51 1169.46 1282.15 Q1173.66 1286.77 1173.66 1294.73 M1167.81 1293.01 Q1167.74 1288.2 1165.1 1285.34 Q1162.49 1282.47 1158.16 1282.47 Q1153.26 1282.47 1150.3 1285.24 Q1147.37 1288.01 1146.93 1293.04 L1167.81 1293.01 Z" fill="#000000" fill-rule="nonzero" fill-opacity="1" /><path clip-path="url(#clip030)" d="M1212.91 1292.5 L1212.91 1314.01 L1207.05 1314.01 L1207.05 1292.69 Q1207.05 1287.63 1205.08 1285.11 Q1203.1 1282.6 1199.16 1282.6 Q1194.41 1282.6 1191.68 1285.62 Q1188.94 1288.65 1188.94 1293.87 L1188.94 1314.01 L1183.05 1314.01 L1183.05 1278.37 L1188.94 1278.37 L1188.94 1283.9 Q1191.04 1280.69 1193.87 1279.1 Q1196.74 1277.51 1200.46 1277.51 Q1206.6 1277.51 1209.76 1281.33 Q1212.91 1285.11 1212.91 1292.5 Z" fill="#000000" fill-rule="nonzero" fill-opacity="1" /><path clip-path="url(#clip030)" d="M1259.38 1264.55 Q1255.11 1271.87 1253.04 1279.04 Q1250.97 1286.2 1250.97 1293.55 Q1250.97 1300.9 1253.04 1308.13 Q1255.14 1315.32 1259.38 1322.61 L1254.28 1322.61 Q1249.51 1315.13 1247.12 1307.9 Q1244.77 1300.68 1244.77 1293.55 Q1244.77 1286.45 1247.12 1279.26 Q1249.48 1272.06 1254.28 1264.55 L1259.38 1264.55 Z" fill="#000000" fill-rule="nonzero" fill-opacity="1" /><path clip-path="url(#clip030)" d="M1298.49 1285.21 Q1300.69 1281.26 1303.75 1279.39 Q1306.8 1277.51 1310.94 1277.51 Q1316.51 1277.51 1319.53 1281.42 Q1322.56 1285.31 1322.56 1292.5 L1322.56 1314.01 L1316.67 1314.01 L1316.67 1292.69 Q1316.67 1287.57 1314.85 1285.08 Q1313.04 1282.6 1309.32 1282.6 Q1304.76 1282.6 1302.12 1285.62 Q1299.48 1288.65 1299.48 1293.87 L1299.48 1314.01 L1293.59 1314.01 L1293.59 1292.69 Q1293.59 1287.53 1291.78 1285.08 Q1289.96 1282.6 1286.18 1282.6 Q1281.69 1282.6 1279.05 1285.66 Q1276.4 1288.68 1276.4 1293.87 L1276.4 1314.01 L1270.52 1314.01 L1270.52 1278.37 L1276.4 1278.37 L1276.4 1283.9 Q1278.41 1280.63 1281.21 1279.07 Q1284.01 1277.51 1287.86 1277.51 Q1291.75 1277.51 1294.45 1279.48 Q1297.19 1281.45 1298.49 1285.21 Z" fill="#000000" fill-rule="nonzero" fill-opacity="1" /><path clip-path="url(#clip030)" d="M1344.77 1278.37 Q1347.7 1278.94 1349.29 1280.69 Q1350.92 1282.41 1350.92 1285.02 Q1350.92 1288.97 1347.89 1291.1 Q1344.87 1293.23 1339.23 1293.23 Q1337.42 1293.23 1335.42 1292.91 Q1333.44 1292.56 1331.21 1291.93 L1331.21 1288.07 Q1332.87 1288.93 1334.75 1289.35 Q1336.66 1289.76 1338.79 1289.76 Q1342.26 1289.76 1344.17 1288.52 Q1346.08 1287.25 1346.08 1285.02 Q1346.08 1282.66 1344.3 1281.45 Q1342.54 1280.24 1339.11 1280.24 L1336.37 1280.24 L1336.37 1276.81 L1339.36 1276.81 Q1342.35 1276.81 1343.88 1275.82 Q1345.44 1274.8 1345.44 1272.89 Q1345.44 1271.05 1343.85 1270.09 Q1342.26 1269.1 1339.23 1269.1 Q1337.96 1269.1 1336.34 1269.39 Q1334.71 1269.68 1332.14 1270.41 L1332.14 1266.75 Q1334.46 1266.21 1336.5 1265.92 Q1338.53 1265.64 1340.28 1265.64 Q1344.87 1265.64 1347.54 1267.51 Q1350.25 1269.39 1350.25 1272.54 Q1350.25 1274.74 1348.81 1276.27 Q1347.38 1277.79 1344.77 1278.37 Z" fill="#000000" fill-rule="nonzero" fill-opacity="1" /><path clip-path="url(#clip030)" d="M1359.45 1264.55 L1364.54 1264.55 Q1369.31 1272.06 1371.67 1279.26 Q1374.05 1286.45 1374.05 1293.55 Q1374.05 1300.68 1371.67 1307.9 Q1369.31 1315.13 1364.54 1322.61 L1359.45 1322.61 Q1363.68 1315.32 1365.75 1308.13 Q1367.85 1300.9 1367.85 1293.55 Q1367.85 1286.2 1365.75 1279.04 Q1363.68 1271.87 1359.45 1264.55 Z" fill="#000000" fill-rule="nonzero" fill-opacity="1" /><polyline clip-path="url(#clip032)" style="stroke:#000000; stroke-linecap:round; stroke-linejoin:round; stroke-width:2; stroke-opacity:0.1; fill:none" points="244.502,1141.6 2064.76,1141.6 "/>
<polyline clip-path="url(#clip032)" style="stroke:#000000; stroke-linecap:round; stroke-linejoin:round; stroke-width:2; stroke-opacity:0.1; fill:none" points="244.502,891.197 2064.76,891.197 "/>
<polyline clip-path="url(#clip032)" style="stroke:#000000; stroke-linecap:round; stroke-linejoin:round; stroke-width:2; stroke-opacity:0.1; fill:none" points="244.502,640.798 2064.76,640.798 "/>
<polyline clip-path="url(#clip032)" style="stroke:#000000; stroke-linecap:round; stroke-linejoin:round; stroke-width:2; stroke-opacity:0.1; fill:none" points="244.502,390.399 2064.76,390.399 "/>
<polyline clip-path="url(#clip032)" style="stroke:#000000; stroke-linecap:round; stroke-linejoin:round; stroke-width:2; stroke-opacity:0.1; fill:none" points="244.502,140 2064.76,140 "/>
<polyline clip-path="url(#clip030)" style="stroke:#000000; stroke-linecap:round; stroke-linejoin:round; stroke-width:4; stroke-opacity:1; fill:none" points="244.502,1173.47 244.502,47.2441 "/>
<polyline clip-path="url(#clip030)" style="stroke:#000000; stroke-linecap:round; stroke-linejoin:round; stroke-width:4; stroke-opacity:1; fill:none" points="244.502,1141.6 263.4,1141.6 "/>
<polyline clip-path="url(#clip030)" style="stroke:#000000; stroke-linecap:round; stroke-linejoin:round; stroke-width:4; stroke-opacity:1; fill:none" points="244.502,891.197 263.4,891.197 "/>
<polyline clip-path="url(#clip030)" style="stroke:#000000; stroke-linecap:round; stroke-linejoin:round; stroke-width:4; stroke-opacity:1; fill:none" points="244.502,640.798 263.4,640.798 "/>
<polyline clip-path="url(#clip030)" style="stroke:#000000; stroke-linecap:round; stroke-linejoin:round; stroke-width:4; stroke-opacity:1; fill:none" points="244.502,390.399 263.4,390.399 "/>
<polyline clip-path="url(#clip030)" style="stroke:#000000; stroke-linecap:round; stroke-linejoin:round; stroke-width:4; stroke-opacity:1; fill:none" points="244.502,140 263.4,140 "/>
<path clip-path="url(#clip030)" d="M125.485 1127.4 Q121.873 1127.4 120.045 1130.96 Q118.239 1134.5 118.239 1141.63 Q118.239 1148.74 120.045 1152.3 Q121.873 1155.84 125.485 1155.84 Q129.119 1155.84 130.924 1152.3 Q132.753 1148.74 132.753 1141.63 Q132.753 1134.5 130.924 1130.96 Q129.119 1127.4 125.485 1127.4 M125.485 1123.69 Q131.295 1123.69 134.35 1128.3 Q137.429 1132.88 137.429 1141.63 Q137.429 1150.36 134.35 1154.96 Q131.295 1159.55 125.485 1159.55 Q119.674 1159.55 116.596 1154.96 Q113.54 1150.36 113.54 1141.63 Q113.54 1132.88 116.596 1128.3 Q119.674 1123.69 125.485 1123.69 Z" fill="#000000" fill-rule="nonzero" fill-opacity="1" /><path clip-path="url(#clip030)" d="M145.646 1153 L150.531 1153 L150.531 1158.88 L145.646 1158.88 L145.646 1153 Z" fill="#000000" fill-rule="nonzero" fill-opacity="1" /><path clip-path="url(#clip030)" d="M170.716 1127.4 Q167.105 1127.4 165.276 1130.96 Q163.47 1134.5 163.47 1141.63 Q163.47 1148.74 165.276 1152.3 Q167.105 1155.84 170.716 1155.84 Q174.35 1155.84 176.156 1152.3 Q177.984 1148.74 177.984 1141.63 Q177.984 1134.5 176.156 1130.96 Q174.35 1127.4 170.716 1127.4 M170.716 1123.69 Q176.526 1123.69 179.581 1128.3 Q182.66 1132.88 182.66 1141.63 Q182.66 1150.36 179.581 1154.96 Q176.526 1159.55 170.716 1159.55 Q164.906 1159.55 161.827 1154.96 Q158.771 1150.36 158.771 1141.63 Q158.771 1132.88 161.827 1128.3 Q164.906 1123.69 170.716 1123.69 Z" fill="#000000" fill-rule="nonzero" fill-opacity="1" /><path clip-path="url(#clip030)" d="M200.878 1127.4 Q197.267 1127.4 195.438 1130.96 Q193.632 1134.5 193.632 1141.63 Q193.632 1148.74 195.438 1152.3 Q197.267 1155.84 200.878 1155.84 Q204.512 1155.84 206.317 1152.3 Q208.146 1148.74 208.146 1141.63 Q208.146 1134.5 206.317 1130.96 Q204.512 1127.4 200.878 1127.4 M200.878 1123.69 Q206.688 1123.69 209.743 1128.3 Q212.822 1132.88 212.822 1141.63 Q212.822 1150.36 209.743 1154.96 Q206.688 1159.55 200.878 1159.55 Q195.067 1159.55 191.989 1154.96 Q188.933 1150.36 188.933 1141.63 Q188.933 1132.88 191.989 1128.3 Q195.067 1123.69 200.878 1123.69 Z" fill="#000000" fill-rule="nonzero" fill-opacity="1" /><path clip-path="url(#clip030)" d="M126.48 876.996 Q122.869 876.996 121.04 880.561 Q119.235 884.102 119.235 891.232 Q119.235 898.338 121.04 901.903 Q122.869 905.445 126.48 905.445 Q130.114 905.445 131.92 901.903 Q133.748 898.338 133.748 891.232 Q133.748 884.102 131.92 880.561 Q130.114 876.996 126.48 876.996 M126.48 873.292 Q132.29 873.292 135.346 877.899 Q138.424 882.482 138.424 891.232 Q138.424 899.959 135.346 904.565 Q132.29 909.149 126.48 909.149 Q120.67 909.149 117.591 904.565 Q114.536 899.959 114.536 891.232 Q114.536 882.482 117.591 877.899 Q120.67 873.292 126.48 873.292 Z" fill="#000000" fill-rule="nonzero" fill-opacity="1" /><path clip-path="url(#clip030)" d="M146.642 902.598 L151.526 902.598 L151.526 908.477 L146.642 908.477 L146.642 902.598 Z" fill="#000000" fill-rule="nonzero" fill-opacity="1" /><path clip-path="url(#clip030)" d="M165.739 904.542 L182.058 904.542 L182.058 908.477 L160.114 908.477 L160.114 904.542 Q162.776 901.788 167.359 897.158 Q171.966 892.505 173.146 891.163 Q175.392 888.639 176.271 886.903 Q177.174 885.144 177.174 883.454 Q177.174 880.7 175.23 878.964 Q173.308 877.227 170.207 877.227 Q168.007 877.227 165.554 877.991 Q163.123 878.755 160.345 880.306 L160.345 875.584 Q163.17 874.45 165.623 873.871 Q168.077 873.292 170.114 873.292 Q175.484 873.292 178.679 875.977 Q181.873 878.663 181.873 883.153 Q181.873 885.283 181.063 887.204 Q180.276 889.102 178.169 891.695 Q177.591 892.366 174.489 895.584 Q171.387 898.778 165.739 904.542 Z" fill="#000000" fill-rule="nonzero" fill-opacity="1" /><path clip-path="url(#clip030)" d="M191.919 873.917 L210.276 873.917 L210.276 877.852 L196.202 877.852 L196.202 886.325 Q197.22 885.977 198.239 885.815 Q199.257 885.63 200.276 885.63 Q206.063 885.63 209.442 888.801 Q212.822 891.973 212.822 897.389 Q212.822 902.968 209.35 906.07 Q205.878 909.149 199.558 909.149 Q197.382 909.149 195.114 908.778 Q192.868 908.408 190.461 907.667 L190.461 902.968 Q192.544 904.102 194.767 904.658 Q196.989 905.213 199.466 905.213 Q203.47 905.213 205.808 903.107 Q208.146 901 208.146 897.389 Q208.146 893.778 205.808 891.672 Q203.47 889.565 199.466 889.565 Q197.591 889.565 195.716 889.982 Q193.864 890.399 191.919 891.278 L191.919 873.917 Z" fill="#000000" fill-rule="nonzero" fill-opacity="1" /><path clip-path="url(#clip030)" d="M125.485 626.597 Q121.873 626.597 120.045 630.162 Q118.239 633.703 118.239 640.833 Q118.239 647.939 120.045 651.504 Q121.873 655.046 125.485 655.046 Q129.119 655.046 130.924 651.504 Q132.753 647.939 132.753 640.833 Q132.753 633.703 130.924 630.162 Q129.119 626.597 125.485 626.597 M125.485 622.893 Q131.295 622.893 134.35 627.5 Q137.429 632.083 137.429 640.833 Q137.429 649.56 134.35 654.166 Q131.295 658.749 125.485 658.749 Q119.674 658.749 116.596 654.166 Q113.54 649.56 113.54 640.833 Q113.54 632.083 116.596 627.5 Q119.674 622.893 125.485 622.893 Z" fill="#000000" fill-rule="nonzero" fill-opacity="1" /><path clip-path="url(#clip030)" d="M145.646 652.199 L150.531 652.199 L150.531 658.078 L145.646 658.078 L145.646 652.199 Z" fill="#000000" fill-rule="nonzero" fill-opacity="1" /><path clip-path="url(#clip030)" d="M160.762 623.518 L179.119 623.518 L179.119 627.453 L165.045 627.453 L165.045 635.925 Q166.063 635.578 167.082 635.416 Q168.1 635.231 169.119 635.231 Q174.906 635.231 178.285 638.402 Q181.665 641.574 181.665 646.99 Q181.665 652.569 178.193 655.671 Q174.72 658.749 168.401 658.749 Q166.225 658.749 163.957 658.379 Q161.711 658.009 159.304 657.268 L159.304 652.569 Q161.387 653.703 163.609 654.259 Q165.832 654.814 168.308 654.814 Q172.313 654.814 174.651 652.708 Q176.989 650.601 176.989 646.99 Q176.989 643.379 174.651 641.273 Q172.313 639.166 168.308 639.166 Q166.433 639.166 164.558 639.583 Q162.707 640 160.762 640.879 L160.762 623.518 Z" fill="#000000" fill-rule="nonzero" fill-opacity="1" /><path clip-path="url(#clip030)" d="M200.878 626.597 Q197.267 626.597 195.438 630.162 Q193.632 633.703 193.632 640.833 Q193.632 647.939 195.438 651.504 Q197.267 655.046 200.878 655.046 Q204.512 655.046 206.317 651.504 Q208.146 647.939 208.146 640.833 Q208.146 633.703 206.317 630.162 Q204.512 626.597 200.878 626.597 M200.878 622.893 Q206.688 622.893 209.743 627.5 Q212.822 632.083 212.822 640.833 Q212.822 649.56 209.743 654.166 Q206.688 658.749 200.878 658.749 Q195.067 658.749 191.989 654.166 Q188.933 649.56 188.933 640.833 Q188.933 632.083 191.989 627.5 Q195.067 622.893 200.878 622.893 Z" fill="#000000" fill-rule="nonzero" fill-opacity="1" /><path clip-path="url(#clip030)" d="M126.48 376.198 Q122.869 376.198 121.04 379.763 Q119.235 383.304 119.235 390.434 Q119.235 397.54 121.04 401.105 Q122.869 404.647 126.48 404.647 Q130.114 404.647 131.92 401.105 Q133.748 397.54 133.748 390.434 Q133.748 383.304 131.92 379.763 Q130.114 376.198 126.48 376.198 M126.48 372.494 Q132.29 372.494 135.346 377.1 Q138.424 381.684 138.424 390.434 Q138.424 399.161 135.346 403.767 Q132.29 408.35 126.48 408.35 Q120.67 408.35 117.591 403.767 Q114.536 399.161 114.536 390.434 Q114.536 381.684 117.591 377.1 Q120.67 372.494 126.48 372.494 Z" fill="#000000" fill-rule="nonzero" fill-opacity="1" /><path clip-path="url(#clip030)" d="M146.642 401.799 L151.526 401.799 L151.526 407.679 L146.642 407.679 L146.642 401.799 Z" fill="#000000" fill-rule="nonzero" fill-opacity="1" /><path clip-path="url(#clip030)" d="M160.531 373.119 L182.753 373.119 L182.753 375.11 L170.207 407.679 L165.322 407.679 L177.128 377.054 L160.531 377.054 L160.531 373.119 Z" fill="#000000" fill-rule="nonzero" fill-opacity="1" /><path clip-path="url(#clip030)" d="M191.919 373.119 L210.276 373.119 L210.276 377.054 L196.202 377.054 L196.202 385.526 Q197.22 385.179 198.239 385.017 Q199.257 384.832 200.276 384.832 Q206.063 384.832 209.442 388.003 Q212.822 391.174 212.822 396.591 Q212.822 402.17 209.35 405.272 Q205.878 408.35 199.558 408.35 Q197.382 408.35 195.114 407.98 Q192.868 407.61 190.461 406.869 L190.461 402.17 Q192.544 403.304 194.767 403.86 Q196.989 404.415 199.466 404.415 Q203.47 404.415 205.808 402.309 Q208.146 400.202 208.146 396.591 Q208.146 392.98 205.808 390.874 Q203.47 388.767 199.466 388.767 Q197.591 388.767 195.716 389.184 Q193.864 389.6 191.919 390.48 L191.919 373.119 Z" fill="#000000" fill-rule="nonzero" fill-opacity="1" /><path clip-path="url(#clip030)" d="M116.295 153.345 L123.934 153.345 L123.934 126.979 L115.623 128.646 L115.623 124.387 L123.887 122.72 L128.563 122.72 L128.563 153.345 L136.202 153.345 L136.202 157.28 L116.295 157.28 L116.295 153.345 Z" fill="#000000" fill-rule="nonzero" fill-opacity="1" /><path clip-path="url(#clip030)" d="M145.646 151.4 L150.531 151.4 L150.531 157.28 L145.646 157.28 L145.646 151.4 Z" fill="#000000" fill-rule="nonzero" fill-opacity="1" /><path clip-path="url(#clip030)" d="M170.716 125.799 Q167.105 125.799 165.276 129.363 Q163.47 132.905 163.47 140.035 Q163.47 147.141 165.276 150.706 Q167.105 154.248 170.716 154.248 Q174.35 154.248 176.156 150.706 Q177.984 147.141 177.984 140.035 Q177.984 132.905 176.156 129.363 Q174.35 125.799 170.716 125.799 M170.716 122.095 Q176.526 122.095 179.581 126.701 Q182.66 131.285 182.66 140.035 Q182.66 148.761 179.581 153.368 Q176.526 157.951 170.716 157.951 Q164.906 157.951 161.827 153.368 Q158.771 148.761 158.771 140.035 Q158.771 131.285 161.827 126.701 Q164.906 122.095 170.716 122.095 Z" fill="#000000" fill-rule="nonzero" fill-opacity="1" /><path clip-path="url(#clip030)" d="M200.878 125.799 Q197.267 125.799 195.438 129.363 Q193.632 132.905 193.632 140.035 Q193.632 147.141 195.438 150.706 Q197.267 154.248 200.878 154.248 Q204.512 154.248 206.317 150.706 Q208.146 147.141 208.146 140.035 Q208.146 132.905 206.317 129.363 Q204.512 125.799 200.878 125.799 M200.878 122.095 Q206.688 122.095 209.743 126.701 Q212.822 131.285 212.822 140.035 Q212.822 148.761 209.743 153.368 Q206.688 157.951 200.878 157.951 Q195.067 157.951 191.989 153.368 Q188.933 148.761 188.933 140.035 Q188.933 131.285 191.989 126.701 Q195.067 122.095 200.878 122.095 Z" fill="#000000" fill-rule="nonzero" fill-opacity="1" /><path clip-path="url(#clip030)" d="M45.3242 740.95 Q46.0244 738.881 48.3161 736.939 Q50.6077 734.966 54.6181 732.993 L67.6042 726.468 L67.6042 733.375 L55.4138 739.454 Q50.6395 741.809 49.08 744.037 Q47.5204 746.233 47.5204 750.053 L47.5204 757.055 L67.6042 757.055 L67.6042 763.484 L20.0842 763.484 L20.0842 748.971 Q20.0842 740.823 23.4898 736.812 Q26.8955 732.802 33.7704 732.802 Q38.2582 732.802 41.2183 734.902 Q44.1784 736.971 45.3242 740.95 M25.3677 757.055 L42.2368 757.055 L42.2368 748.971 Q42.2368 744.324 40.1043 741.968 Q37.94 739.581 33.7704 739.581 Q29.6009 739.581 27.5002 741.968 Q25.3677 744.324 25.3677 748.971 L25.3677 757.055 Z" fill="#000000" fill-rule="nonzero" fill-opacity="1" /><path clip-path="url(#clip030)" d="M49.6847 703.679 Q49.6847 710.776 51.3079 713.514 Q52.9312 716.251 56.8461 716.251 Q59.9653 716.251 61.8114 714.214 Q63.6256 712.145 63.6256 708.612 Q63.6256 703.742 60.1881 700.814 Q56.7188 697.854 50.9897 697.854 L49.6847 697.854 L49.6847 703.679 M47.2657 691.998 L67.6042 691.998 L67.6042 697.854 L62.1933 697.854 Q65.4398 699.859 66.9994 702.851 Q68.5272 705.843 68.5272 710.172 Q68.5272 715.646 65.4716 718.893 Q62.3843 722.107 57.2281 722.107 Q51.2125 722.107 48.1569 718.097 Q45.1014 714.055 45.1014 706.066 L45.1014 697.854 L44.5285 697.854 Q40.4862 697.854 38.2901 700.528 Q36.0621 703.169 36.0621 707.976 Q36.0621 711.031 36.7941 713.927 Q37.5262 716.824 38.9903 719.497 L33.5795 719.497 Q32.3381 716.283 31.7334 713.259 Q31.0968 710.235 31.0968 707.371 Q31.0968 699.636 35.1072 695.817 Q39.1176 691.998 47.2657 691.998 Z" fill="#000000" fill-rule="nonzero" fill-opacity="1" /><path clip-path="url(#clip030)" d="M37.3671 656.477 L18.079 656.477 L18.079 650.621 L67.6042 650.621 L67.6042 656.477 L62.257 656.477 Q65.4398 658.323 66.9994 661.156 Q68.5272 663.957 68.5272 667.903 Q68.5272 674.365 63.371 678.439 Q58.2147 682.481 49.812 682.481 Q41.4093 682.481 36.2531 678.439 Q31.0968 674.365 31.0968 667.903 Q31.0968 663.957 32.6564 661.156 Q34.1842 658.323 37.3671 656.477 M49.812 676.433 Q56.2732 676.433 59.9653 673.792 Q63.6256 671.118 63.6256 666.471 Q63.6256 661.824 59.9653 659.151 Q56.2732 656.477 49.812 656.477 Q43.3508 656.477 39.6905 659.151 Q35.9984 661.824 35.9984 666.471 Q35.9984 671.118 39.6905 673.792 Q43.3508 676.433 49.812 676.433 Z" fill="#000000" fill-rule="nonzero" fill-opacity="1" /><path clip-path="url(#clip030)" d="M31.9562 638.558 L31.9562 632.701 L67.6042 632.701 L67.6042 638.558 L31.9562 638.558 M18.079 638.558 L18.079 632.701 L25.495 632.701 L25.495 638.558 L18.079 638.558 Z" fill="#000000" fill-rule="nonzero" fill-opacity="1" /><path clip-path="url(#clip030)" d="M36.0621 606.633 Q36.0621 611.344 39.7542 614.081 Q43.4145 616.819 49.812 616.819 Q56.2095 616.819 59.9017 614.113 Q63.5619 611.376 63.5619 606.633 Q63.5619 601.955 59.8698 599.217 Q56.1777 596.48 49.812 596.48 Q43.4781 596.48 39.786 599.217 Q36.0621 601.955 36.0621 606.633 M31.0968 606.633 Q31.0968 598.995 36.0621 594.634 Q41.0273 590.274 49.812 590.274 Q58.5649 590.274 63.5619 594.634 Q68.5272 598.995 68.5272 606.633 Q68.5272 614.304 63.5619 618.665 Q58.5649 622.993 49.812 622.993 Q41.0273 622.993 36.0621 618.665 Q31.0968 614.304 31.0968 606.633 Z" fill="#000000" fill-rule="nonzero" fill-opacity="1" /><path clip-path="url(#clip030)" d="M18.1426 545.777 Q25.4632 550.042 32.6246 552.111 Q39.786 554.18 47.1384 554.18 Q54.4908 554.18 61.7159 552.111 Q68.9091 550.011 76.1979 545.777 L76.1979 550.87 Q68.7182 555.644 61.4931 558.031 Q54.268 560.387 47.1384 560.387 Q40.0406 560.387 32.8474 558.031 Q25.6542 555.676 18.1426 550.87 L18.1426 545.777 Z" fill="#000000" fill-rule="nonzero" fill-opacity="1" /><path clip-path="url(#clip030)" d="M38.7993 506.66 Q34.8526 504.464 32.9747 501.408 Q31.0968 498.353 31.0968 494.215 Q31.0968 488.645 35.0117 485.621 Q38.8948 482.598 46.0881 482.598 L67.6042 482.598 L67.6042 488.486 L46.279 488.486 Q41.1546 488.486 38.672 490.3 Q36.1894 492.114 36.1894 495.838 Q36.1894 500.39 39.2131 503.032 Q42.2368 505.673 47.4567 505.673 L67.6042 505.673 L67.6042 511.562 L46.279 511.562 Q41.1228 511.562 38.672 513.376 Q36.1894 515.19 36.1894 518.978 Q36.1894 523.466 39.2449 526.107 Q42.2686 528.749 47.4567 528.749 L67.6042 528.749 L67.6042 534.637 L31.9562 534.637 L31.9562 528.749 L37.4944 528.749 Q34.216 526.744 32.6564 523.943 Q31.0968 521.142 31.0968 517.291 Q31.0968 513.408 33.0702 510.702 Q35.0436 507.965 38.7993 506.66 Z" fill="#000000" fill-rule="nonzero" fill-opacity="1" /><path clip-path="url(#clip030)" d="M18.1426 471.84 L18.1426 466.747 Q25.6542 461.973 32.8474 459.617 Q40.0406 457.23 47.1384 457.23 Q54.268 457.23 61.4931 459.617 Q68.7182 461.973 76.1979 466.747 L76.1979 471.84 Q68.9091 467.606 61.7159 465.538 Q54.4908 463.437 47.1384 463.437 Q39.786 463.437 32.6246 465.538 Q25.4632 467.606 18.1426 471.84 Z" fill="#000000" fill-rule="nonzero" fill-opacity="1" /><polyline clip-path="url(#clip032)" style="stroke:#009af9; stroke-linecap:round; stroke-linejoin:round; stroke-width:4; stroke-opacity:1; fill:none" points="296.019,1141.6 296.193,1092 296.368,1079.11 296.543,1070.06 296.717,1062.86 296.892,1056.78 297.067,1051.47 297.241,1046.72 297.416,1042.4 297.766,1034.74 298.115,1028.04 298.464,1022.06 298.814,1016.62 299.512,1006.97 300.211,998.531 300.91,990.987 301.609,984.132 303.006,971.973 304.404,961.345 305.102,956.471 305.801,951.841 306.5,947.426 307.199,943.204 310.429,925.687 313.66,910.628 316.89,897.312 320.121,885.308 323.351,874.334 326.582,864.194 329.812,854.746 333.043,845.882 339.504,829.594 345.965,814.85 352.426,801.328 358.887,788.803 371.808,766.121 384.73,745.891 397.652,727.542 410.574,710.689 426.105,692.035 441.637,674.812 457.168,658.774 472.699,643.737 498.962,620.199 525.224,598.613 553.753,576.96 582.282,556.852 608.583,539.466 634.883,523.029 663.081,506.327 691.278,490.46 723.948,472.993 756.617,456.394 814.682,428.733 865.601,406.129 921.115,382.972 976.959,361.022 1038.7,338.109 1097.45,317.458 1158.53,297.031 1209.95,280.571 1272.73,261.292 1330.24,244.343 1383.35,229.239 1437.15,214.433 1497.45,198.382 1552.09,184.295 1614.64,168.659 1672.56,154.617 1729.67,141.153 1785.11,128.419 1841.95,115.689 1904.22,102.096 1994.68,82.9597 2013.24,79.1184 "/>
</svg>
