<?xml version="1.0" encoding="utf-8"?>
<svg xmlns="http://www.w3.org/2000/svg" xmlns:xlink="http://www.w3.org/1999/xlink" width="528" height="336" viewBox="0 0 2112 1344">
<defs>
  <clipPath id="clip730">
    <rect x="0" y="0" width="2112" height="1344"/>
  </clipPath>
</defs>
<path clip-path="url(#clip730)" d="M0 1344 L2112 1344 L2112 0 L0 0  Z" fill="#ffffff" fill-rule="evenodd" fill-opacity="1"/>
<defs>
  <clipPath id="clip731">
    <rect x="422" y="0" width="1479" height="1344"/>
  </clipPath>
</defs>
<path clip-path="url(#clip730)" d="M227.349 1173.47 L2064.76 1173.47 L2064.76 120.723 L227.349 120.723  Z" fill="#ffffff" fill-rule="evenodd" fill-opacity="1"/>
<defs>
  <clipPath id="clip732">
    <rect x="227" y="120" width="1838" height="1054"/>
  </clipPath>
</defs>
<polyline clip-path="url(#clip732)" style="stroke:#000000; stroke-linecap:round; stroke-linejoin:round; stroke-width:2; stroke-opacity:0.1; fill:none" points="279.351,1173.47 279.351,120.723 "/>
<polyline clip-path="url(#clip732)" style="stroke:#000000; stroke-linecap:round; stroke-linejoin:round; stroke-width:2; stroke-opacity:0.1; fill:none" points="774.609,1173.47 774.609,120.723 "/>
<polyline clip-path="url(#clip732)" style="stroke:#000000; stroke-linecap:round; stroke-linejoin:round; stroke-width:2; stroke-opacity:0.1; fill:none" points="1269.87,1173.47 1269.87,120.723 "/>
<polyline clip-path="url(#clip732)" style="stroke:#000000; stroke-linecap:round; stroke-linejoin:round; stroke-width:2; stroke-opacity:0.1; fill:none" points="1765.12,1173.47 1765.12,120.723 "/>
<polyline clip-path="url(#clip730)" style="stroke:#000000; stroke-linecap:round; stroke-linejoin:round; stroke-width:4; stroke-opacity:1; fill:none" points="227.349,1173.47 2064.76,1173.47 "/>
<polyline clip-path="url(#clip730)" style="stroke:#000000; stroke-linecap:round; stroke-linejoin:round; stroke-width:4; stroke-opacity:1; fill:none" points="279.351,1173.47 279.351,1154.57 "/>
<polyline clip-path="url(#clip730)" style="stroke:#000000; stroke-linecap:round; stroke-linejoin:round; stroke-width:4; stroke-opacity:1; fill:none" points="774.609,1173.47 774.609,1154.57 "/>
<polyline clip-path="url(#clip730)" style="stroke:#000000; stroke-linecap:round; stroke-linejoin:round; stroke-width:4; stroke-opacity:1; fill:none" points="1269.87,1173.47 1269.87,1154.57 "/>
<polyline clip-path="url(#clip730)" style="stroke:#000000; stroke-linecap:round; stroke-linejoin:round; stroke-width:4; stroke-opacity:1; fill:none" points="1765.12,1173.47 1765.12,1154.57 "/>
<path clip-path="url(#clip730)" d="M279.351 1202.09 Q275.74 1202.09 273.912 1205.65 Q272.106 1209.19 272.106 1216.32 Q272.106 1223.43 273.912 1226.99 Q275.74 1230.53 279.351 1230.53 Q282.986 1230.53 284.791 1226.99 Q286.62 1223.43 286.62 1216.32 Q286.62 1209.19 284.791 1205.65 Q282.986 1202.09 279.351 1202.09 M279.351 1198.38 Q285.162 1198.38 288.217 1202.99 Q291.296 1207.57 291.296 1216.32 Q291.296 1225.05 288.217 1229.65 Q285.162 1234.24 279.351 1234.24 Q273.541 1234.24 270.463 1229.65 Q267.407 1225.05 267.407 1216.32 Q267.407 1207.57 270.463 1202.99 Q273.541 1198.38 279.351 1198.38 Z" fill="#000000" fill-rule="nonzero" fill-opacity="1" /><path clip-path="url(#clip730)" d="M769.262 1229.63 L785.581 1229.63 L785.581 1233.57 L763.637 1233.57 L763.637 1229.63 Q766.299 1226.88 770.882 1222.25 Q775.489 1217.59 776.669 1216.25 Q778.915 1213.73 779.794 1211.99 Q780.697 1210.23 780.697 1208.54 Q780.697 1205.79 778.753 1204.05 Q776.831 1202.32 773.73 1202.32 Q771.531 1202.32 769.077 1203.08 Q766.646 1203.84 763.869 1205.4 L763.869 1200.67 Q766.693 1199.54 769.146 1198.96 Q771.6 1198.38 773.637 1198.38 Q779.007 1198.38 782.202 1201.07 Q785.396 1203.75 785.396 1208.24 Q785.396 1210.37 784.586 1212.29 Q783.799 1214.19 781.693 1216.78 Q781.114 1217.46 778.012 1220.67 Q774.91 1223.87 769.262 1229.63 Z" fill="#000000" fill-rule="nonzero" fill-opacity="1" /><path clip-path="url(#clip730)" d="M1272.88 1203.08 L1261.07 1221.53 L1272.88 1221.53 L1272.88 1203.08 M1271.65 1199.01 L1277.53 1199.01 L1277.53 1221.53 L1282.46 1221.53 L1282.46 1225.42 L1277.53 1225.42 L1277.53 1233.57 L1272.88 1233.57 L1272.88 1225.42 L1257.27 1225.42 L1257.27 1220.9 L1271.65 1199.01 Z" fill="#000000" fill-rule="nonzero" fill-opacity="1" /><path clip-path="url(#clip730)" d="M1765.53 1214.42 Q1762.38 1214.42 1760.53 1216.58 Q1758.7 1218.73 1758.7 1222.48 Q1758.7 1226.21 1760.53 1228.38 Q1762.38 1230.53 1765.53 1230.53 Q1768.68 1230.53 1770.51 1228.38 Q1772.36 1226.21 1772.36 1222.48 Q1772.36 1218.73 1770.51 1216.58 Q1768.68 1214.42 1765.53 1214.42 M1774.81 1199.77 L1774.81 1204.03 Q1773.05 1203.2 1771.25 1202.76 Q1769.47 1202.32 1767.71 1202.32 Q1763.08 1202.32 1760.62 1205.44 Q1758.19 1208.57 1757.84 1214.89 Q1759.21 1212.87 1761.27 1211.81 Q1763.33 1210.72 1765.81 1210.72 Q1771.02 1210.72 1774.03 1213.89 Q1777.06 1217.04 1777.06 1222.48 Q1777.06 1227.8 1773.91 1231.02 Q1770.76 1234.24 1765.53 1234.24 Q1759.53 1234.24 1756.36 1229.65 Q1753.19 1225.05 1753.19 1216.32 Q1753.19 1208.13 1757.08 1203.27 Q1760.97 1198.38 1767.52 1198.38 Q1769.28 1198.38 1771.06 1198.73 Q1772.87 1199.08 1774.81 1199.77 Z" fill="#000000" fill-rule="nonzero" fill-opacity="1" /><path clip-path="url(#clip730)" d="M1056.04 1266.49 L1062.47 1266.49 L1062.47 1285.97 L1085.83 1285.97 L1085.83 1266.49 L1092.26 1266.49 L1092.26 1314.01 L1085.83 1314.01 L1085.83 1291.38 L1062.47 1291.38 L1062.47 1314.01 L1056.04 1314.01 L1056.04 1266.49 Z" fill="#000000" fill-rule="nonzero" fill-opacity="1" /><path clip-path="url(#clip730)" d="M1118.62 1282.47 Q1113.91 1282.47 1111.17 1286.16 Q1108.43 1289.83 1108.43 1296.22 Q1108.43 1302.62 1111.14 1306.31 Q1113.87 1309.97 1118.62 1309.97 Q1123.3 1309.97 1126.03 1306.28 Q1128.77 1302.59 1128.77 1296.22 Q1128.77 1289.89 1126.03 1286.2 Q1123.3 1282.47 1118.62 1282.47 M1118.62 1277.51 Q1126.26 1277.51 1130.62 1282.47 Q1134.98 1287.44 1134.98 1296.22 Q1134.98 1304.98 1130.62 1309.97 Q1126.26 1314.94 1118.62 1314.94 Q1110.95 1314.94 1106.59 1309.97 Q1102.26 1304.98 1102.26 1296.22 Q1102.26 1287.44 1106.59 1282.47 Q1110.95 1277.51 1118.62 1277.51 Z" fill="#000000" fill-rule="nonzero" fill-opacity="1" /><path clip-path="url(#clip730)" d="M1165.34 1283.84 Q1164.35 1283.27 1163.18 1283.01 Q1162.03 1282.73 1160.63 1282.73 Q1155.66 1282.73 1152.99 1285.97 Q1150.35 1289.19 1150.35 1295.24 L1150.35 1314.01 L1144.46 1314.01 L1144.46 1278.37 L1150.35 1278.37 L1150.35 1283.9 Q1152.2 1280.66 1155.16 1279.1 Q1158.12 1277.51 1162.35 1277.51 Q1162.95 1277.51 1163.69 1277.6 Q1164.42 1277.67 1165.31 1277.83 L1165.34 1283.84 Z" fill="#000000" fill-rule="nonzero" fill-opacity="1" /><path clip-path="url(#clip730)" d="M1187.68 1296.1 Q1180.59 1296.1 1177.85 1297.72 Q1175.11 1299.34 1175.11 1303.26 Q1175.11 1306.38 1177.15 1308.22 Q1179.22 1310.04 1182.75 1310.04 Q1187.62 1310.04 1190.55 1306.6 Q1193.51 1303.13 1193.51 1297.4 L1193.51 1296.1 L1187.68 1296.1 M1199.37 1293.68 L1199.37 1314.01 L1193.51 1314.01 L1193.51 1308.6 Q1191.5 1311.85 1188.51 1313.41 Q1185.52 1314.94 1181.19 1314.94 Q1175.72 1314.94 1172.47 1311.88 Q1169.26 1308.79 1169.26 1303.64 Q1169.26 1297.62 1173.27 1294.57 Q1177.31 1291.51 1185.3 1291.51 L1193.51 1291.51 L1193.51 1290.94 Q1193.51 1286.9 1190.84 1284.7 Q1188.19 1282.47 1183.39 1282.47 Q1180.33 1282.47 1177.44 1283.2 Q1174.54 1283.94 1171.87 1285.4 L1171.87 1279.99 Q1175.08 1278.75 1178.1 1278.14 Q1181.13 1277.51 1183.99 1277.51 Q1191.73 1277.51 1195.55 1281.52 Q1199.37 1285.53 1199.37 1293.68 Z" fill="#000000" fill-rule="nonzero" fill-opacity="1" /><path clip-path="url(#clip730)" d="M1234.15 1279.42 L1234.15 1284.96 Q1231.67 1283.68 1229 1283.05 Q1226.32 1282.41 1223.46 1282.41 Q1219.1 1282.41 1216.9 1283.75 Q1214.74 1285.08 1214.74 1287.76 Q1214.74 1289.79 1216.3 1290.97 Q1217.86 1292.12 1222.57 1293.17 L1224.57 1293.61 Q1230.81 1294.95 1233.42 1297.4 Q1236.06 1299.82 1236.06 1304.18 Q1236.06 1309.14 1232.12 1312.04 Q1228.2 1314.94 1221.33 1314.94 Q1218.46 1314.94 1215.34 1314.36 Q1212.26 1313.82 1208.82 1312.71 L1208.82 1306.66 Q1212.07 1308.35 1215.22 1309.21 Q1218.37 1310.04 1221.45 1310.04 Q1225.59 1310.04 1227.82 1308.64 Q1230.05 1307.2 1230.05 1304.63 Q1230.05 1302.24 1228.42 1300.97 Q1226.83 1299.69 1221.39 1298.51 L1219.35 1298.04 Q1213.91 1296.89 1211.49 1294.54 Q1209.07 1292.15 1209.07 1288.01 Q1209.07 1282.98 1212.64 1280.24 Q1216.2 1277.51 1222.76 1277.51 Q1226.01 1277.51 1228.87 1277.98 Q1231.74 1278.46 1234.15 1279.42 Z" fill="#000000" fill-rule="nonzero" fill-opacity="1" /><polyline clip-path="url(#clip732)" style="stroke:#000000; stroke-linecap:round; stroke-linejoin:round; stroke-width:2; stroke-opacity:0.1; fill:none" points="227.349,1151.5 2064.76,1151.5 "/>
<polyline clip-path="url(#clip732)" style="stroke:#000000; stroke-linecap:round; stroke-linejoin:round; stroke-width:2; stroke-opacity:0.1; fill:none" points="227.349,995.093 2064.76,995.093 "/>
<polyline clip-path="url(#clip732)" style="stroke:#000000; stroke-linecap:round; stroke-linejoin:round; stroke-width:2; stroke-opacity:0.1; fill:none" points="227.349,838.69 2064.76,838.69 "/>
<polyline clip-path="url(#clip732)" style="stroke:#000000; stroke-linecap:round; stroke-linejoin:round; stroke-width:2; stroke-opacity:0.1; fill:none" points="227.349,682.288 2064.76,682.288 "/>
<polyline clip-path="url(#clip732)" style="stroke:#000000; stroke-linecap:round; stroke-linejoin:round; stroke-width:2; stroke-opacity:0.1; fill:none" points="227.349,525.885 2064.76,525.885 "/>
<polyline clip-path="url(#clip732)" style="stroke:#000000; stroke-linecap:round; stroke-linejoin:round; stroke-width:2; stroke-opacity:0.1; fill:none" points="227.349,369.482 2064.76,369.482 "/>
<polyline clip-path="url(#clip732)" style="stroke:#000000; stroke-linecap:round; stroke-linejoin:round; stroke-width:2; stroke-opacity:0.1; fill:none" points="227.349,213.079 2064.76,213.079 "/>
<polyline clip-path="url(#clip730)" style="stroke:#000000; stroke-linecap:round; stroke-linejoin:round; stroke-width:4; stroke-opacity:1; fill:none" points="227.349,1173.47 227.349,120.723 "/>
<polyline clip-path="url(#clip730)" style="stroke:#000000; stroke-linecap:round; stroke-linejoin:round; stroke-width:4; stroke-opacity:1; fill:none" points="227.349,1151.5 246.247,1151.5 "/>
<polyline clip-path="url(#clip730)" style="stroke:#000000; stroke-linecap:round; stroke-linejoin:round; stroke-width:4; stroke-opacity:1; fill:none" points="227.349,995.093 246.247,995.093 "/>
<polyline clip-path="url(#clip730)" style="stroke:#000000; stroke-linecap:round; stroke-linejoin:round; stroke-width:4; stroke-opacity:1; fill:none" points="227.349,838.69 246.247,838.69 "/>
<polyline clip-path="url(#clip730)" style="stroke:#000000; stroke-linecap:round; stroke-linejoin:round; stroke-width:4; stroke-opacity:1; fill:none" points="227.349,682.288 246.247,682.288 "/>
<polyline clip-path="url(#clip730)" style="stroke:#000000; stroke-linecap:round; stroke-linejoin:round; stroke-width:4; stroke-opacity:1; fill:none" points="227.349,525.885 246.247,525.885 "/>
<polyline clip-path="url(#clip730)" style="stroke:#000000; stroke-linecap:round; stroke-linejoin:round; stroke-width:4; stroke-opacity:1; fill:none" points="227.349,369.482 246.247,369.482 "/>
<polyline clip-path="url(#clip730)" style="stroke:#000000; stroke-linecap:round; stroke-linejoin:round; stroke-width:4; stroke-opacity:1; fill:none" points="227.349,213.079 246.247,213.079 "/>
<path clip-path="url(#clip730)" d="M183.725 1137.29 Q180.114 1137.29 178.285 1140.86 Q176.48 1144.4 176.48 1151.53 Q176.48 1158.64 178.285 1162.2 Q180.114 1165.74 183.725 1165.74 Q187.359 1165.74 189.165 1162.2 Q190.993 1158.64 190.993 1151.53 Q190.993 1144.4 189.165 1140.86 Q187.359 1137.29 183.725 1137.29 M183.725 1133.59 Q189.535 1133.59 192.591 1138.2 Q195.669 1142.78 195.669 1151.53 Q195.669 1160.26 192.591 1164.86 Q189.535 1169.45 183.725 1169.45 Q177.915 1169.45 174.836 1164.86 Q171.781 1160.26 171.781 1151.53 Q171.781 1142.78 174.836 1138.2 Q177.915 1133.59 183.725 1133.59 Z" fill="#000000" fill-rule="nonzero" fill-opacity="1" /><path clip-path="url(#clip730)" d="M147.591 1008.44 L163.91 1008.44 L163.91 1012.37 L141.966 1012.37 L141.966 1008.44 Q144.628 1005.68 149.211 1001.05 Q153.818 996.401 154.998 995.059 Q157.244 992.535 158.123 990.799 Q159.026 989.04 159.026 987.35 Q159.026 984.596 157.082 982.86 Q155.16 981.123 152.058 981.123 Q149.859 981.123 147.406 981.887 Q144.975 982.651 142.197 984.202 L142.197 979.48 Q145.021 978.346 147.475 977.767 Q149.929 977.188 151.966 977.188 Q157.336 977.188 160.531 979.873 Q163.725 982.559 163.725 987.049 Q163.725 989.179 162.915 991.1 Q162.128 992.998 160.021 995.591 Q159.443 996.262 156.341 999.48 Q153.239 1002.67 147.591 1008.44 Z" fill="#000000" fill-rule="nonzero" fill-opacity="1" /><path clip-path="url(#clip730)" d="M183.725 980.892 Q180.114 980.892 178.285 984.457 Q176.48 987.998 176.48 995.128 Q176.48 1002.23 178.285 1005.8 Q180.114 1009.34 183.725 1009.34 Q187.359 1009.34 189.165 1005.8 Q190.993 1002.23 190.993 995.128 Q190.993 987.998 189.165 984.457 Q187.359 980.892 183.725 980.892 M183.725 977.188 Q189.535 977.188 192.591 981.795 Q195.669 986.378 195.669 995.128 Q195.669 1003.85 192.591 1008.46 Q189.535 1013.04 183.725 1013.04 Q177.915 1013.04 174.836 1008.46 Q171.781 1003.85 171.781 995.128 Q171.781 986.378 174.836 981.795 Q177.915 977.188 183.725 977.188 Z" fill="#000000" fill-rule="nonzero" fill-opacity="1" /><path clip-path="url(#clip730)" d="M156.41 825.484 L144.605 843.933 L156.41 843.933 L156.41 825.484 M155.183 821.41 L161.063 821.41 L161.063 843.933 L165.994 843.933 L165.994 847.822 L161.063 847.822 L161.063 855.97 L156.41 855.97 L156.41 847.822 L140.809 847.822 L140.809 843.308 L155.183 821.41 Z" fill="#000000" fill-rule="nonzero" fill-opacity="1" /><path clip-path="url(#clip730)" d="M183.725 824.489 Q180.114 824.489 178.285 828.054 Q176.48 831.596 176.48 838.725 Q176.48 845.832 178.285 849.396 Q180.114 852.938 183.725 852.938 Q187.359 852.938 189.165 849.396 Q190.993 845.832 190.993 838.725 Q190.993 831.596 189.165 828.054 Q187.359 824.489 183.725 824.489 M183.725 820.785 Q189.535 820.785 192.591 825.392 Q195.669 829.975 195.669 838.725 Q195.669 847.452 192.591 852.058 Q189.535 856.642 183.725 856.642 Q177.915 856.642 174.836 852.058 Q171.781 847.452 171.781 838.725 Q171.781 829.975 174.836 825.392 Q177.915 820.785 183.725 820.785 Z" fill="#000000" fill-rule="nonzero" fill-opacity="1" /><path clip-path="url(#clip730)" d="M154.142 680.424 Q150.994 680.424 149.142 682.577 Q147.313 684.73 147.313 688.48 Q147.313 692.206 149.142 694.382 Q150.994 696.535 154.142 696.535 Q157.29 696.535 159.119 694.382 Q160.97 692.206 160.97 688.48 Q160.97 684.73 159.119 682.577 Q157.29 680.424 154.142 680.424 M163.424 665.771 L163.424 670.031 Q161.665 669.197 159.859 668.758 Q158.077 668.318 156.318 668.318 Q151.688 668.318 149.234 671.443 Q146.804 674.568 146.457 680.887 Q147.822 678.873 149.883 677.808 Q151.943 676.72 154.42 676.72 Q159.628 676.72 162.637 679.892 Q165.67 683.04 165.67 688.48 Q165.67 693.804 162.521 697.021 Q159.373 700.239 154.142 700.239 Q148.146 700.239 144.975 695.656 Q141.804 691.049 141.804 682.322 Q141.804 674.128 145.693 669.267 Q149.582 664.383 156.133 664.383 Q157.892 664.383 159.674 664.73 Q161.48 665.077 163.424 665.771 Z" fill="#000000" fill-rule="nonzero" fill-opacity="1" /><path clip-path="url(#clip730)" d="M183.725 668.086 Q180.114 668.086 178.285 671.651 Q176.48 675.193 176.48 682.322 Q176.48 689.429 178.285 692.994 Q180.114 696.535 183.725 696.535 Q187.359 696.535 189.165 692.994 Q190.993 689.429 190.993 682.322 Q190.993 675.193 189.165 671.651 Q187.359 668.086 183.725 668.086 M183.725 664.383 Q189.535 664.383 192.591 668.989 Q195.669 673.572 195.669 682.322 Q195.669 691.049 192.591 695.656 Q189.535 700.239 183.725 700.239 Q177.915 700.239 174.836 695.656 Q171.781 691.049 171.781 682.322 Q171.781 673.572 174.836 668.989 Q177.915 664.383 183.725 664.383 Z" fill="#000000" fill-rule="nonzero" fill-opacity="1" /><path clip-path="url(#clip730)" d="M153.563 526.753 Q150.23 526.753 148.308 528.535 Q146.41 530.318 146.41 533.442 Q146.41 536.567 148.308 538.35 Q150.23 540.132 153.563 540.132 Q156.896 540.132 158.818 538.35 Q160.739 536.544 160.739 533.442 Q160.739 530.318 158.818 528.535 Q156.92 526.753 153.563 526.753 M148.887 524.762 Q145.878 524.021 144.188 521.961 Q142.521 519.901 142.521 516.938 Q142.521 512.794 145.461 510.387 Q148.424 507.98 153.563 507.98 Q158.725 507.98 161.665 510.387 Q164.605 512.794 164.605 516.938 Q164.605 519.901 162.915 521.961 Q161.248 524.021 158.262 524.762 Q161.642 525.549 163.517 527.841 Q165.415 530.132 165.415 533.442 Q165.415 538.466 162.336 541.151 Q159.281 543.836 153.563 543.836 Q147.846 543.836 144.767 541.151 Q141.711 538.466 141.711 533.442 Q141.711 530.132 143.609 527.841 Q145.508 525.549 148.887 524.762 M147.174 517.378 Q147.174 520.063 148.841 521.568 Q150.531 523.072 153.563 523.072 Q156.572 523.072 158.262 521.568 Q159.975 520.063 159.975 517.378 Q159.975 514.693 158.262 513.188 Q156.572 511.683 153.563 511.683 Q150.531 511.683 148.841 513.188 Q147.174 514.693 147.174 517.378 Z" fill="#000000" fill-rule="nonzero" fill-opacity="1" /><path clip-path="url(#clip730)" d="M183.725 511.683 Q180.114 511.683 178.285 515.248 Q176.48 518.79 176.48 525.919 Q176.48 533.026 178.285 536.591 Q180.114 540.132 183.725 540.132 Q187.359 540.132 189.165 536.591 Q190.993 533.026 190.993 525.919 Q190.993 518.79 189.165 515.248 Q187.359 511.683 183.725 511.683 M183.725 507.98 Q189.535 507.98 192.591 512.586 Q195.669 517.169 195.669 525.919 Q195.669 534.646 192.591 539.253 Q189.535 543.836 183.725 543.836 Q177.915 543.836 174.836 539.253 Q171.781 534.646 171.781 525.919 Q171.781 517.169 174.836 512.586 Q177.915 507.98 183.725 507.98 Z" fill="#000000" fill-rule="nonzero" fill-opacity="1" /><path clip-path="url(#clip730)" d="M114.211 382.827 L121.85 382.827 L121.85 356.461 L113.54 358.128 L113.54 353.868 L121.804 352.202 L126.48 352.202 L126.48 382.827 L134.119 382.827 L134.119 386.762 L114.211 386.762 L114.211 382.827 Z" fill="#000000" fill-rule="nonzero" fill-opacity="1" /><path clip-path="url(#clip730)" d="M153.563 355.28 Q149.952 355.28 148.123 358.845 Q146.318 362.387 146.318 369.517 Q146.318 376.623 148.123 380.188 Q149.952 383.729 153.563 383.729 Q157.197 383.729 159.003 380.188 Q160.832 376.623 160.832 369.517 Q160.832 362.387 159.003 358.845 Q157.197 355.28 153.563 355.28 M153.563 351.577 Q159.373 351.577 162.429 356.183 Q165.507 360.767 165.507 369.517 Q165.507 378.243 162.429 382.85 Q159.373 387.433 153.563 387.433 Q147.753 387.433 144.674 382.85 Q141.619 378.243 141.619 369.517 Q141.619 360.767 144.674 356.183 Q147.753 351.577 153.563 351.577 Z" fill="#000000" fill-rule="nonzero" fill-opacity="1" /><path clip-path="url(#clip730)" d="M183.725 355.28 Q180.114 355.28 178.285 358.845 Q176.48 362.387 176.48 369.517 Q176.48 376.623 178.285 380.188 Q180.114 383.729 183.725 383.729 Q187.359 383.729 189.165 380.188 Q190.993 376.623 190.993 369.517 Q190.993 362.387 189.165 358.845 Q187.359 355.28 183.725 355.28 M183.725 351.577 Q189.535 351.577 192.591 356.183 Q195.669 360.767 195.669 369.517 Q195.669 378.243 192.591 382.85 Q189.535 387.433 183.725 387.433 Q177.915 387.433 174.836 382.85 Q171.781 378.243 171.781 369.517 Q171.781 360.767 174.836 356.183 Q177.915 351.577 183.725 351.577 Z" fill="#000000" fill-rule="nonzero" fill-opacity="1" /><path clip-path="url(#clip730)" d="M114.211 226.424 L121.85 226.424 L121.85 200.058 L113.54 201.725 L113.54 197.466 L121.804 195.799 L126.48 195.799 L126.48 226.424 L134.119 226.424 L134.119 230.359 L114.211 230.359 L114.211 226.424 Z" fill="#000000" fill-rule="nonzero" fill-opacity="1" /><path clip-path="url(#clip730)" d="M147.591 226.424 L163.91 226.424 L163.91 230.359 L141.966 230.359 L141.966 226.424 Q144.628 223.669 149.211 219.04 Q153.818 214.387 154.998 213.044 Q157.244 210.521 158.123 208.785 Q159.026 207.026 159.026 205.336 Q159.026 202.581 157.082 200.845 Q155.16 199.109 152.058 199.109 Q149.859 199.109 147.406 199.873 Q144.975 200.637 142.197 202.188 L142.197 197.466 Q145.021 196.331 147.475 195.753 Q149.929 195.174 151.966 195.174 Q157.336 195.174 160.531 197.859 Q163.725 200.544 163.725 205.035 Q163.725 207.165 162.915 209.086 Q162.128 210.984 160.021 213.577 Q159.443 214.248 156.341 217.465 Q153.239 220.66 147.591 226.424 Z" fill="#000000" fill-rule="nonzero" fill-opacity="1" /><path clip-path="url(#clip730)" d="M183.725 198.878 Q180.114 198.878 178.285 202.442 Q176.48 205.984 176.48 213.114 Q176.48 220.22 178.285 223.785 Q180.114 227.327 183.725 227.327 Q187.359 227.327 189.165 223.785 Q190.993 220.22 190.993 213.114 Q190.993 205.984 189.165 202.442 Q187.359 198.878 183.725 198.878 M183.725 195.174 Q189.535 195.174 192.591 199.78 Q195.669 204.364 195.669 213.114 Q195.669 221.84 192.591 226.447 Q189.535 231.03 183.725 231.03 Q177.915 231.03 174.836 226.447 Q171.781 221.84 171.781 213.114 Q171.781 204.364 174.836 199.78 Q177.915 195.174 183.725 195.174 Z" fill="#000000" fill-rule="nonzero" fill-opacity="1" /><path clip-path="url(#clip730)" d="M44.9104 788.368 L62.3206 788.368 L62.3206 778.055 Q62.3206 772.867 60.1881 770.385 Q58.0238 767.87 53.5996 767.87 Q49.1436 767.87 47.0429 770.385 Q44.9104 772.867 44.9104 778.055 L44.9104 788.368 M25.3677 788.368 L39.6905 788.368 L39.6905 778.851 Q39.6905 774.14 37.94 771.849 Q36.1576 769.525 32.5291 769.525 Q28.9325 769.525 27.1501 771.849 Q25.3677 774.14 25.3677 778.851 L25.3677 788.368 M20.0842 794.797 L20.0842 778.374 Q20.0842 771.021 23.1397 767.043 Q26.1952 763.064 31.8289 763.064 Q36.1894 763.064 38.7675 765.101 Q41.3456 767.138 41.9822 771.085 Q43.0007 766.342 46.2472 763.733 Q49.4619 761.091 54.2998 761.091 Q60.6655 761.091 64.1348 765.419 Q67.6042 769.748 67.6042 777.737 L67.6042 794.797 L20.0842 794.797 Z" fill="#000000" fill-rule="nonzero" fill-opacity="1" /><path clip-path="url(#clip730)" d="M49.6847 734.132 Q49.6847 741.23 51.3079 743.967 Q52.9312 746.704 56.8461 746.704 Q59.9653 746.704 61.8114 744.667 Q63.6256 742.598 63.6256 739.065 Q63.6256 734.196 60.1881 731.267 Q56.7188 728.307 50.9897 728.307 L49.6847 728.307 L49.6847 734.132 M47.2657 722.451 L67.6042 722.451 L67.6042 728.307 L62.1933 728.307 Q65.4398 730.313 66.9994 733.304 Q68.5272 736.296 68.5272 740.625 Q68.5272 746.1 65.4716 749.346 Q62.3843 752.561 57.2281 752.561 Q51.2125 752.561 48.1569 748.55 Q45.1014 744.508 45.1014 736.519 L45.1014 728.307 L44.5285 728.307 Q40.4862 728.307 38.2901 730.981 Q36.0621 733.623 36.0621 738.429 Q36.0621 741.484 36.7941 744.381 Q37.5262 747.277 38.9903 749.951 L33.5795 749.951 Q32.3381 746.736 31.7334 743.712 Q31.0968 740.689 31.0968 737.824 Q31.0968 730.09 35.1072 726.27 Q39.1176 722.451 47.2657 722.451 Z" fill="#000000" fill-rule="nonzero" fill-opacity="1" /><path clip-path="url(#clip730)" d="M33.3248 684.734 L38.7993 684.734 Q37.4307 687.217 36.7623 689.731 Q36.0621 692.214 36.0621 694.76 Q36.0621 700.457 39.6905 703.608 Q43.2872 706.759 49.812 706.759 Q56.3369 706.759 59.9653 703.608 Q63.5619 700.457 63.5619 694.76 Q63.5619 692.214 62.8935 689.731 Q62.1933 687.217 60.8247 684.734 L66.2355 684.734 Q67.3814 687.185 67.9543 689.827 Q68.5272 692.437 68.5272 695.397 Q68.5272 703.449 63.4664 708.192 Q58.4057 712.934 49.812 712.934 Q41.091 712.934 36.0939 708.16 Q31.0968 703.354 31.0968 695.015 Q31.0968 692.309 31.6697 689.731 Q32.2108 687.153 33.3248 684.734 Z" fill="#000000" fill-rule="nonzero" fill-opacity="1" /><path clip-path="url(#clip730)" d="M21.8347 668.756 L31.9562 668.756 L31.9562 656.693 L36.5077 656.693 L36.5077 668.756 L55.8594 668.756 Q60.2199 668.756 61.4613 667.579 Q62.7026 666.369 62.7026 662.709 L62.7026 656.693 L67.6042 656.693 L67.6042 662.709 Q67.6042 669.488 65.0897 672.066 Q62.5434 674.644 55.8594 674.644 L36.5077 674.644 L36.5077 678.941 L31.9562 678.941 L31.9562 674.644 L21.8347 674.644 L21.8347 668.756 Z" fill="#000000" fill-rule="nonzero" fill-opacity="1" /><path clip-path="url(#clip730)" d="M48.3161 618.499 L51.1806 618.499 L51.1806 645.426 Q57.2281 645.044 60.4109 641.797 Q63.5619 638.519 63.5619 632.694 Q63.5619 629.321 62.7344 626.17 Q61.9069 622.987 60.2518 619.868 L65.7899 619.868 Q67.1267 623.019 67.827 626.329 Q68.5272 629.639 68.5272 633.045 Q68.5272 641.575 63.5619 646.572 Q58.5967 651.537 50.1303 651.537 Q41.3774 651.537 36.2531 646.826 Q31.0968 642.084 31.0968 634.063 Q31.0968 626.87 35.7438 622.7 Q40.3589 618.499 48.3161 618.499 M46.5973 624.355 Q41.7912 624.419 38.9266 627.061 Q36.0621 629.671 36.0621 633.999 Q36.0621 638.901 38.8312 641.861 Q41.6002 644.789 46.6292 645.235 L46.5973 624.355 Z" fill="#000000" fill-rule="nonzero" fill-opacity="1" /><path clip-path="url(#clip730)" d="M37.4307 588.23 Q36.8578 589.217 36.6032 590.394 Q36.3167 591.54 36.3167 592.941 Q36.3167 597.906 39.5632 600.579 Q42.7779 603.221 48.8253 603.221 L67.6042 603.221 L67.6042 609.11 L31.9562 609.11 L31.9562 603.221 L37.4944 603.221 Q34.2479 601.375 32.6883 598.415 Q31.0968 595.455 31.0968 591.222 Q31.0968 590.617 31.1923 589.885 Q31.256 589.153 31.4151 588.262 L37.4307 588.23 Z" fill="#000000" fill-rule="nonzero" fill-opacity="1" /><path clip-path="url(#clip730)" d="M31.9562 582.087 L31.9562 576.231 L67.6042 576.231 L67.6042 582.087 L31.9562 582.087 M18.079 582.087 L18.079 576.231 L25.495 576.231 L25.495 582.087 L18.079 582.087 Z" fill="#000000" fill-rule="nonzero" fill-opacity="1" /><path clip-path="url(#clip730)" d="M49.6847 547.776 Q49.6847 554.874 51.3079 557.611 Q52.9312 560.348 56.8461 560.348 Q59.9653 560.348 61.8114 558.311 Q63.6256 556.242 63.6256 552.709 Q63.6256 547.84 60.1881 544.911 Q56.7188 541.951 50.9897 541.951 L49.6847 541.951 L49.6847 547.776 M47.2657 536.095 L67.6042 536.095 L67.6042 541.951 L62.1933 541.951 Q65.4398 543.957 66.9994 546.948 Q68.5272 549.94 68.5272 554.269 Q68.5272 559.743 65.4716 562.99 Q62.3843 566.205 57.2281 566.205 Q51.2125 566.205 48.1569 562.194 Q45.1014 558.152 45.1014 550.163 L45.1014 541.951 L44.5285 541.951 Q40.4862 541.951 38.2901 544.625 Q36.0621 547.267 36.0621 552.073 Q36.0621 555.128 36.7941 558.025 Q37.5262 560.921 38.9903 563.595 L33.5795 563.595 Q32.3381 560.38 31.7334 557.356 Q31.0968 554.333 31.0968 551.468 Q31.0968 543.734 35.1072 539.914 Q39.1176 536.095 47.2657 536.095 Z" fill="#000000" fill-rule="nonzero" fill-opacity="1" /><path clip-path="url(#clip730)" d="M33.0065 501.306 L38.5447 501.306 Q37.2716 503.789 36.635 506.463 Q35.9984 509.136 35.9984 512.001 Q35.9984 516.361 37.3352 518.557 Q38.672 520.722 41.3456 520.722 Q43.3826 520.722 44.5603 519.162 Q45.7061 517.603 46.7565 512.892 L47.2021 510.887 Q48.5389 504.648 50.9897 502.038 Q53.4086 499.397 57.7691 499.397 Q62.7344 499.397 65.6308 503.343 Q68.5272 507.258 68.5272 514.133 Q68.5272 516.998 67.9543 520.117 Q67.4132 523.204 66.2992 526.642 L60.2518 526.642 Q61.9387 523.395 62.798 520.244 Q63.6256 517.093 63.6256 514.006 Q63.6256 509.868 62.2251 507.64 Q60.7929 505.412 58.2147 505.412 Q55.8276 505.412 54.5545 507.035 Q53.2813 508.627 52.1037 514.07 L51.6262 516.107 Q50.4804 521.549 48.1251 523.968 Q45.738 526.387 41.6002 526.387 Q36.5713 526.387 33.8341 522.822 Q31.0968 519.258 31.0968 512.701 Q31.0968 509.454 31.5743 506.59 Q32.0517 503.725 33.0065 501.306 Z" fill="#000000" fill-rule="nonzero" fill-opacity="1" /><path clip-path="url(#clip730)" d="M352.683 12.096 L390.924 12.096 L390.924 18.9825 L360.866 18.9825 L360.866 36.8875 L389.668 36.8875 L389.668 43.7741 L360.866 43.7741 L360.866 65.6895 L391.653 65.6895 L391.653 72.576 L352.683 72.576 L352.683 12.096 Z" fill="#000000" fill-rule="nonzero" fill-opacity="1" /><path clip-path="url(#clip730)" d="M399.43 27.2059 L407.33 27.2059 L421.508 65.2844 L435.686 27.2059 L443.585 27.2059 L426.572 72.576 L416.444 72.576 L399.43 27.2059 Z" fill="#000000" fill-rule="nonzero" fill-opacity="1" /><path clip-path="url(#clip730)" d="M471.456 32.4315 Q465.46 32.4315 461.976 37.1306 Q458.493 41.7891 458.493 49.9314 Q458.493 58.0738 461.936 62.7728 Q465.42 67.4314 471.456 67.4314 Q477.41 67.4314 480.894 62.7323 Q484.378 58.0333 484.378 49.9314 Q484.378 41.8701 480.894 37.1711 Q477.41 32.4315 471.456 32.4315 M471.456 26.1121 Q481.178 26.1121 486.727 32.4315 Q492.277 38.7509 492.277 49.9314 Q492.277 61.0714 486.727 67.4314 Q481.178 73.7508 471.456 73.7508 Q461.693 73.7508 456.143 67.4314 Q450.634 61.0714 450.634 49.9314 Q450.634 38.7509 456.143 32.4315 Q461.693 26.1121 471.456 26.1121 Z" fill="#000000" fill-rule="nonzero" fill-opacity="1" /><path clip-path="url(#clip730)" d="M504.632 9.54393 L512.086 9.54393 L512.086 72.576 L504.632 72.576 L504.632 9.54393 Z" fill="#000000" fill-rule="nonzero" fill-opacity="1" /><path clip-path="url(#clip730)" d="M526.912 54.671 L526.912 27.2059 L534.366 27.2059 L534.366 54.3874 Q534.366 60.8284 536.878 64.0691 Q539.389 67.2693 544.412 67.2693 Q550.448 67.2693 553.932 63.421 Q557.456 59.5726 557.456 52.9291 L557.456 27.2059 L564.91 27.2059 L564.91 72.576 L557.456 72.576 L557.456 65.6084 Q554.742 69.7404 551.137 71.7658 Q547.572 73.7508 542.832 73.7508 Q535.014 73.7508 530.963 68.8897 Q526.912 64.0286 526.912 54.671 M545.668 26.1121 L545.668 26.1121 Z" fill="#000000" fill-rule="nonzero" fill-opacity="1" /><path clip-path="url(#clip730)" d="M612.913 28.9478 L612.913 35.9153 Q609.753 34.1734 606.553 33.3227 Q603.393 32.4315 600.153 32.4315 Q592.902 32.4315 588.891 37.0496 Q584.881 41.6271 584.881 49.9314 Q584.881 58.2358 588.891 62.8538 Q592.902 67.4314 600.153 67.4314 Q603.393 67.4314 606.553 66.5807 Q609.753 65.6895 612.913 63.9476 L612.913 70.8341 Q609.794 72.2924 606.432 73.0216 Q603.11 73.7508 599.343 73.7508 Q589.094 73.7508 583.058 67.3098 Q577.022 60.8689 577.022 49.9314 Q577.022 38.832 583.098 32.472 Q589.215 26.1121 599.829 26.1121 Q603.272 26.1121 606.553 26.8413 Q609.834 27.5299 612.913 28.9478 Z" fill="#000000" fill-rule="nonzero" fill-opacity="1" /><path clip-path="url(#clip730)" d="M625.876 27.2059 L633.33 27.2059 L633.33 72.576 L625.876 72.576 L625.876 27.2059 M625.876 9.54393 L633.33 9.54393 L633.33 18.9825 L625.876 18.9825 L625.876 9.54393 Z" fill="#000000" fill-rule="nonzero" fill-opacity="1" /><path clip-path="url(#clip730)" d="M666.507 32.4315 Q660.511 32.4315 657.027 37.1306 Q653.544 41.7891 653.544 49.9314 Q653.544 58.0738 656.987 62.7728 Q660.471 67.4314 666.507 67.4314 Q672.461 67.4314 675.945 62.7323 Q679.429 58.0333 679.429 49.9314 Q679.429 41.8701 675.945 37.1711 Q672.461 32.4315 666.507 32.4315 M666.507 26.1121 Q676.229 26.1121 681.778 32.4315 Q687.328 38.7509 687.328 49.9314 Q687.328 61.0714 681.778 67.4314 Q676.229 73.7508 666.507 73.7508 Q656.744 73.7508 651.194 67.4314 Q645.685 61.0714 645.685 49.9314 Q645.685 38.7509 651.194 32.4315 Q656.744 26.1121 666.507 26.1121 M672.137 6.22219 L680.199 6.22219 L666.993 21.4536 L660.795 21.4536 L672.137 6.22219 Z" fill="#000000" fill-rule="nonzero" fill-opacity="1" /><path clip-path="url(#clip730)" d="M737.397 45.1919 L737.397 72.576 L729.944 72.576 L729.944 45.4349 Q729.944 38.994 727.432 35.7938 Q724.921 32.5936 719.898 32.5936 Q713.862 32.5936 710.378 36.4419 Q706.894 40.2903 706.894 46.9338 L706.894 72.576 L699.4 72.576 L699.4 27.2059 L706.894 27.2059 L706.894 34.2544 Q709.568 30.163 713.173 28.1376 Q716.819 26.1121 721.558 26.1121 Q729.377 26.1121 733.387 30.9732 Q737.397 35.7938 737.397 45.1919 Z" fill="#000000" fill-rule="nonzero" fill-opacity="1" /><path clip-path="url(#clip730)" d="M808.491 34.0924 L808.491 9.54393 L815.944 9.54393 L815.944 72.576 L808.491 72.576 L808.491 65.7705 Q806.141 69.8214 802.536 71.8063 Q798.971 73.7508 793.948 73.7508 Q785.725 73.7508 780.54 67.1883 Q775.395 60.6258 775.395 49.9314 Q775.395 39.2371 780.54 32.6746 Q785.725 26.1121 793.948 26.1121 Q798.971 26.1121 802.536 28.0971 Q806.141 30.0415 808.491 34.0924 M783.092 49.9314 Q783.092 58.1548 786.454 62.8538 Q789.857 67.5124 795.771 67.5124 Q801.685 67.5124 805.088 62.8538 Q808.491 58.1548 808.491 49.9314 Q808.491 41.7081 805.088 37.0496 Q801.685 32.3505 795.771 32.3505 Q789.857 32.3505 786.454 37.0496 Q783.092 41.7081 783.092 49.9314 Z" fill="#000000" fill-rule="nonzero" fill-opacity="1" /><path clip-path="url(#clip730)" d="M870.105 48.0275 L870.105 51.6733 L835.834 51.6733 Q836.32 59.3701 840.452 63.421 Q844.625 67.4314 852.038 67.4314 Q856.332 67.4314 860.342 66.3781 Q864.393 65.3249 868.363 63.2184 L868.363 70.267 Q864.353 71.9684 860.14 72.8596 Q855.927 73.7508 851.592 73.7508 Q840.736 73.7508 834.376 67.4314 Q828.057 61.1119 828.057 50.3365 Q828.057 39.1965 834.052 32.6746 Q840.088 26.1121 850.296 26.1121 Q859.451 26.1121 864.758 32.0264 Q870.105 37.9003 870.105 48.0275 M862.651 45.84 Q862.57 39.7232 859.208 36.0774 Q855.886 32.4315 850.377 32.4315 Q844.139 32.4315 840.371 35.9558 Q836.645 39.4801 836.077 45.8805 L862.651 45.84 Z" fill="#000000" fill-rule="nonzero" fill-opacity="1" /><path clip-path="url(#clip730)" d="M908.71 9.54393 L916.164 9.54393 L916.164 72.576 L908.71 72.576 L908.71 9.54393 Z" fill="#000000" fill-rule="nonzero" fill-opacity="1" /><path clip-path="url(#clip730)" d="M952.379 49.7694 Q943.345 49.7694 939.862 51.8354 Q936.378 53.9013 936.378 58.8839 Q936.378 62.8538 938.97 65.2034 Q941.603 67.5124 946.1 67.5124 Q952.298 67.5124 956.025 63.1374 Q959.792 58.7219 959.792 51.4303 L959.792 49.7694 L952.379 49.7694 M967.246 46.6907 L967.246 72.576 L959.792 72.576 L959.792 65.6895 Q957.24 69.8214 953.432 71.8063 Q949.624 73.7508 944.115 73.7508 Q937.147 73.7508 933.016 69.8619 Q928.924 65.9325 928.924 59.3701 Q928.924 51.7138 934.028 47.825 Q939.173 43.9361 949.341 43.9361 L959.792 43.9361 L959.792 43.2069 Q959.792 38.0623 956.389 35.2672 Q953.027 32.4315 946.91 32.4315 Q943.021 32.4315 939.335 33.3632 Q935.649 34.295 932.246 36.1584 L932.246 29.2718 Q936.337 27.692 940.186 26.9223 Q944.034 26.1121 947.68 26.1121 Q957.524 26.1121 962.385 31.2163 Q967.246 36.3204 967.246 46.6907 Z" fill="#000000" fill-rule="nonzero" fill-opacity="1" /><path clip-path="url(#clip730)" d="M1016.18 65.7705 L1016.18 89.8329 L1008.69 89.8329 L1008.69 27.2059 L1016.18 27.2059 L1016.18 34.0924 Q1018.53 30.0415 1022.09 28.0971 Q1025.7 26.1121 1030.68 26.1121 Q1038.95 26.1121 1044.09 32.6746 Q1049.28 39.2371 1049.28 49.9314 Q1049.28 60.6258 1044.09 67.1883 Q1038.95 73.7508 1030.68 73.7508 Q1025.7 73.7508 1022.09 71.8063 Q1018.53 69.8214 1016.18 65.7705 M1041.54 49.9314 Q1041.54 41.7081 1038.14 37.0496 Q1034.77 32.3505 1028.86 32.3505 Q1022.95 32.3505 1019.54 37.0496 Q1016.18 41.7081 1016.18 49.9314 Q1016.18 58.1548 1019.54 62.8538 Q1022.95 67.5124 1028.86 67.5124 Q1034.77 67.5124 1038.14 62.8538 Q1041.54 58.1548 1041.54 49.9314 Z" fill="#000000" fill-rule="nonzero" fill-opacity="1" /><path clip-path="url(#clip730)" d="M1079.21 32.4315 Q1073.22 32.4315 1069.73 37.1306 Q1066.25 41.7891 1066.25 49.9314 Q1066.25 58.0738 1069.69 62.7728 Q1073.18 67.4314 1079.21 67.4314 Q1085.17 67.4314 1088.65 62.7323 Q1092.14 58.0333 1092.14 49.9314 Q1092.14 41.8701 1088.65 37.1711 Q1085.17 32.4315 1079.21 32.4315 M1079.21 26.1121 Q1088.93 26.1121 1094.48 32.4315 Q1100.03 38.7509 1100.03 49.9314 Q1100.03 61.0714 1094.48 67.4314 Q1088.93 73.7508 1079.21 73.7508 Q1069.45 73.7508 1063.9 67.4314 Q1058.39 61.0714 1058.39 49.9314 Q1058.39 38.7509 1063.9 32.4315 Q1069.45 26.1121 1079.21 26.1121 Z" fill="#000000" fill-rule="nonzero" fill-opacity="1" /><path clip-path="url(#clip730)" d="M1144.96 49.9314 Q1144.96 41.7081 1141.56 37.0496 Q1138.19 32.3505 1132.28 32.3505 Q1126.37 32.3505 1122.96 37.0496 Q1119.6 41.7081 1119.6 49.9314 Q1119.6 58.1548 1122.96 62.8538 Q1126.37 67.5124 1132.28 67.5124 Q1138.19 67.5124 1141.56 62.8538 Q1144.96 58.1548 1144.96 49.9314 M1119.6 34.0924 Q1121.95 30.0415 1125.51 28.0971 Q1129.12 26.1121 1134.1 26.1121 Q1142.37 26.1121 1147.51 32.6746 Q1152.7 39.2371 1152.7 49.9314 Q1152.7 60.6258 1147.51 67.1883 Q1142.37 73.7508 1134.1 73.7508 Q1129.12 73.7508 1125.51 71.8063 Q1121.95 69.8214 1119.6 65.7705 L1119.6 72.576 L1112.11 72.576 L1112.11 9.54393 L1119.6 9.54393 L1119.6 34.0924 Z" fill="#000000" fill-rule="nonzero" fill-opacity="1" /><path clip-path="url(#clip730)" d="M1165.05 9.54393 L1172.51 9.54393 L1172.51 72.576 L1165.05 72.576 L1165.05 9.54393 Z" fill="#000000" fill-rule="nonzero" fill-opacity="1" /><path clip-path="url(#clip730)" d="M1208.72 49.7694 Q1199.69 49.7694 1196.2 51.8354 Q1192.72 53.9013 1192.72 58.8839 Q1192.72 62.8538 1195.31 65.2034 Q1197.94 67.5124 1202.44 67.5124 Q1208.64 67.5124 1212.37 63.1374 Q1216.13 58.7219 1216.13 51.4303 L1216.13 49.7694 L1208.72 49.7694 M1223.59 46.6907 L1223.59 72.576 L1216.13 72.576 L1216.13 65.6895 Q1213.58 69.8214 1209.77 71.8063 Q1205.97 73.7508 1200.46 73.7508 Q1193.49 73.7508 1189.36 69.8619 Q1185.27 65.9325 1185.27 59.3701 Q1185.27 51.7138 1190.37 47.825 Q1195.51 43.9361 1205.68 43.9361 L1216.13 43.9361 L1216.13 43.2069 Q1216.13 38.0623 1212.73 35.2672 Q1209.37 32.4315 1203.25 32.4315 Q1199.36 32.4315 1195.68 33.3632 Q1191.99 34.295 1188.59 36.1584 L1188.59 29.2718 Q1192.68 27.692 1196.53 26.9223 Q1200.38 26.1121 1204.02 26.1121 Q1213.86 26.1121 1218.73 31.2163 Q1223.59 36.3204 1223.59 46.6907 Z" fill="#000000" fill-rule="nonzero" fill-opacity="1" /><path clip-path="url(#clip730)" d="M1271.59 28.9478 L1271.59 35.9153 Q1268.43 34.1734 1265.23 33.3227 Q1262.07 32.4315 1258.83 32.4315 Q1251.58 32.4315 1247.57 37.0496 Q1243.56 41.6271 1243.56 49.9314 Q1243.56 58.2358 1247.57 62.8538 Q1251.58 67.4314 1258.83 67.4314 Q1262.07 67.4314 1265.23 66.5807 Q1268.43 65.6895 1271.59 63.9476 L1271.59 70.8341 Q1268.47 72.2924 1265.11 73.0216 Q1261.79 73.7508 1258.02 73.7508 Q1247.77 73.7508 1241.73 67.3098 Q1235.7 60.8689 1235.7 49.9314 Q1235.7 38.832 1241.78 32.472 Q1247.89 26.1121 1258.51 26.1121 Q1261.95 26.1121 1265.23 26.8413 Q1268.51 27.5299 1271.59 28.9478 Z" fill="#000000" fill-rule="nonzero" fill-opacity="1" /><path clip-path="url(#clip730)" d="M1284.55 27.2059 L1292.01 27.2059 L1292.01 72.576 L1284.55 72.576 L1284.55 27.2059 M1284.55 9.54393 L1292.01 9.54393 L1292.01 18.9825 L1284.55 18.9825 L1284.55 9.54393 Z" fill="#000000" fill-rule="nonzero" fill-opacity="1" /><path clip-path="url(#clip730)" d="M1325.18 32.4315 Q1319.19 32.4315 1315.7 37.1306 Q1312.22 41.7891 1312.22 49.9314 Q1312.22 58.0738 1315.66 62.7728 Q1319.15 67.4314 1325.18 67.4314 Q1331.14 67.4314 1334.62 62.7323 Q1338.11 58.0333 1338.11 49.9314 Q1338.11 41.8701 1334.62 37.1711 Q1331.14 32.4315 1325.18 32.4315 M1325.18 26.1121 Q1334.91 26.1121 1340.46 32.4315 Q1346.01 38.7509 1346.01 49.9314 Q1346.01 61.0714 1340.46 67.4314 Q1334.91 73.7508 1325.18 73.7508 Q1315.42 73.7508 1309.87 67.4314 Q1304.36 61.0714 1304.36 49.9314 Q1304.36 38.7509 1309.87 32.4315 Q1315.42 26.1121 1325.18 26.1121 M1330.81 6.22219 L1338.88 6.22219 L1325.67 21.4536 L1319.47 21.4536 L1330.81 6.22219 Z" fill="#000000" fill-rule="nonzero" fill-opacity="1" /><path clip-path="url(#clip730)" d="M1396.07 45.1919 L1396.07 72.576 L1388.62 72.576 L1388.62 45.4349 Q1388.62 38.994 1386.11 35.7938 Q1383.6 32.5936 1378.57 32.5936 Q1372.54 32.5936 1369.05 36.4419 Q1365.57 40.2903 1365.57 46.9338 L1365.57 72.576 L1358.08 72.576 L1358.08 27.2059 L1365.57 27.2059 L1365.57 34.2544 Q1368.24 30.163 1371.85 28.1376 Q1375.5 26.1121 1380.24 26.1121 Q1388.05 26.1121 1392.06 30.9732 Q1396.07 35.7938 1396.07 45.1919 Z" fill="#000000" fill-rule="nonzero" fill-opacity="1" /><path clip-path="url(#clip730)" d="M1467.17 34.0924 L1467.17 9.54393 L1474.62 9.54393 L1474.62 72.576 L1467.17 72.576 L1467.17 65.7705 Q1464.82 69.8214 1461.21 71.8063 Q1457.65 73.7508 1452.63 73.7508 Q1444.4 73.7508 1439.22 67.1883 Q1434.07 60.6258 1434.07 49.9314 Q1434.07 39.2371 1439.22 32.6746 Q1444.4 26.1121 1452.63 26.1121 Q1457.65 26.1121 1461.21 28.0971 Q1464.82 30.0415 1467.17 34.0924 M1441.77 49.9314 Q1441.77 58.1548 1445.13 62.8538 Q1448.53 67.5124 1454.45 67.5124 Q1460.36 67.5124 1463.77 62.8538 Q1467.17 58.1548 1467.17 49.9314 Q1467.17 41.7081 1463.77 37.0496 Q1460.36 32.3505 1454.45 32.3505 Q1448.53 32.3505 1445.13 37.0496 Q1441.77 41.7081 1441.77 49.9314 Z" fill="#000000" fill-rule="nonzero" fill-opacity="1" /><path clip-path="url(#clip730)" d="M1528.78 48.0275 L1528.78 51.6733 L1494.51 51.6733 Q1495 59.3701 1499.13 63.421 Q1503.3 67.4314 1510.72 67.4314 Q1515.01 67.4314 1519.02 66.3781 Q1523.07 65.3249 1527.04 63.2184 L1527.04 70.267 Q1523.03 71.9684 1518.82 72.8596 Q1514.6 73.7508 1510.27 73.7508 Q1499.41 73.7508 1493.05 67.4314 Q1486.73 61.1119 1486.73 50.3365 Q1486.73 39.1965 1492.73 32.6746 Q1498.76 26.1121 1508.97 26.1121 Q1518.13 26.1121 1523.43 32.0264 Q1528.78 37.9003 1528.78 48.0275 M1521.33 45.84 Q1521.25 39.7232 1517.89 36.0774 Q1514.56 32.4315 1509.05 32.4315 Q1502.82 32.4315 1499.05 35.9558 Q1495.32 39.4801 1494.75 45.8805 L1521.33 45.84 Z" fill="#000000" fill-rule="nonzero" fill-opacity="1" /><path clip-path="url(#clip730)" d="M1599.96 49.9314 Q1599.96 41.7081 1596.55 37.0496 Q1593.19 32.3505 1587.28 32.3505 Q1581.36 32.3505 1577.96 37.0496 Q1574.6 41.7081 1574.6 49.9314 Q1574.6 58.1548 1577.96 62.8538 Q1581.36 67.5124 1587.28 67.5124 Q1593.19 67.5124 1596.55 62.8538 Q1599.96 58.1548 1599.96 49.9314 M1574.6 34.0924 Q1576.95 30.0415 1580.51 28.0971 Q1584.12 26.1121 1589.1 26.1121 Q1597.36 26.1121 1602.51 32.6746 Q1607.69 39.2371 1607.69 49.9314 Q1607.69 60.6258 1602.51 67.1883 Q1597.36 73.7508 1589.1 73.7508 Q1584.12 73.7508 1580.51 71.8063 Q1576.95 69.8214 1574.6 65.7705 L1574.6 72.576 L1567.1 72.576 L1567.1 9.54393 L1574.6 9.54393 L1574.6 34.0924 Z" fill="#000000" fill-rule="nonzero" fill-opacity="1" /><path clip-path="url(#clip730)" d="M1640.67 49.7694 Q1631.63 49.7694 1628.15 51.8354 Q1624.67 53.9013 1624.67 58.8839 Q1624.67 62.8538 1627.26 65.2034 Q1629.89 67.5124 1634.39 67.5124 Q1640.59 67.5124 1644.31 63.1374 Q1648.08 58.7219 1648.08 51.4303 L1648.08 49.7694 L1640.67 49.7694 M1655.53 46.6907 L1655.53 72.576 L1648.08 72.576 L1648.08 65.6895 Q1645.53 69.8214 1641.72 71.8063 Q1637.91 73.7508 1632.4 73.7508 Q1625.44 73.7508 1621.3 69.8619 Q1617.21 65.9325 1617.21 59.3701 Q1617.21 51.7138 1622.32 47.825 Q1627.46 43.9361 1637.63 43.9361 L1648.08 43.9361 L1648.08 43.2069 Q1648.08 38.0623 1644.68 35.2672 Q1641.32 32.4315 1635.2 32.4315 Q1631.31 32.4315 1627.62 33.3632 Q1623.94 34.295 1620.54 36.1584 L1620.54 29.2718 Q1624.63 27.692 1628.47 26.9223 Q1632.32 26.1121 1635.97 26.1121 Q1645.81 26.1121 1650.67 31.2163 Q1655.53 36.3204 1655.53 46.6907 Z" fill="#000000" fill-rule="nonzero" fill-opacity="1" /><path clip-path="url(#clip730)" d="M1703.54 28.9478 L1703.54 35.9153 Q1700.38 34.1734 1697.18 33.3227 Q1694.02 32.4315 1690.78 32.4315 Q1683.53 32.4315 1679.52 37.0496 Q1675.51 41.6271 1675.51 49.9314 Q1675.51 58.2358 1679.52 62.8538 Q1683.53 67.4314 1690.78 67.4314 Q1694.02 67.4314 1697.18 66.5807 Q1700.38 65.6895 1703.54 63.9476 L1703.54 70.8341 Q1700.42 72.2924 1697.06 73.0216 Q1693.73 73.7508 1689.97 73.7508 Q1679.72 73.7508 1673.68 67.3098 Q1667.65 60.8689 1667.65 49.9314 Q1667.65 38.832 1673.72 32.472 Q1679.84 26.1121 1690.45 26.1121 Q1693.9 26.1121 1697.18 26.8413 Q1700.46 27.5299 1703.54 28.9478 Z" fill="#000000" fill-rule="nonzero" fill-opacity="1" /><path clip-path="url(#clip730)" d="M1723.87 14.324 L1723.87 27.2059 L1739.23 27.2059 L1739.23 32.9987 L1723.87 32.9987 L1723.87 57.6282 Q1723.87 63.1779 1725.37 64.7578 Q1726.91 66.3376 1731.57 66.3376 L1739.23 66.3376 L1739.23 72.576 L1731.57 72.576 Q1722.94 72.576 1719.66 69.3758 Q1716.38 66.1351 1716.38 57.6282 L1716.38 32.9987 L1710.91 32.9987 L1710.91 27.2059 L1716.38 27.2059 L1716.38 14.324 L1723.87 14.324 Z" fill="#000000" fill-rule="nonzero" fill-opacity="1" /><path clip-path="url(#clip730)" d="M1787.84 48.0275 L1787.84 51.6733 L1753.57 51.6733 Q1754.05 59.3701 1758.18 63.421 Q1762.36 67.4314 1769.77 67.4314 Q1774.06 67.4314 1778.07 66.3781 Q1782.13 65.3249 1786.1 63.2184 L1786.1 70.267 Q1782.09 71.9684 1777.87 72.8596 Q1773.66 73.7508 1769.32 73.7508 Q1758.47 73.7508 1752.11 67.4314 Q1745.79 61.1119 1745.79 50.3365 Q1745.79 39.1965 1751.78 32.6746 Q1757.82 26.1121 1768.03 26.1121 Q1777.18 26.1121 1782.49 32.0264 Q1787.84 37.9003 1787.84 48.0275 M1780.38 45.84 Q1780.3 39.7232 1776.94 36.0774 Q1773.62 32.4315 1768.11 32.4315 Q1761.87 32.4315 1758.1 35.9558 Q1754.38 39.4801 1753.81 45.8805 L1780.38 45.84 Z" fill="#000000" fill-rule="nonzero" fill-opacity="1" /><path clip-path="url(#clip730)" d="M1826.36 34.1734 Q1825.11 33.4443 1823.61 33.1202 Q1822.15 32.7556 1820.37 32.7556 Q1814.05 32.7556 1810.64 36.8875 Q1807.28 40.9789 1807.28 48.6757 L1807.28 72.576 L1799.79 72.576 L1799.79 27.2059 L1807.28 27.2059 L1807.28 34.2544 Q1809.63 30.1225 1813.4 28.1376 Q1817.17 26.1121 1822.55 26.1121 Q1823.32 26.1121 1824.26 26.2337 Q1825.19 26.3147 1826.32 26.5172 L1826.36 34.1734 Z" fill="#000000" fill-rule="nonzero" fill-opacity="1" /><path clip-path="url(#clip730)" d="M1834.18 27.2059 L1841.63 27.2059 L1841.63 72.576 L1834.18 72.576 L1834.18 27.2059 M1834.18 9.54393 L1841.63 9.54393 L1841.63 18.9825 L1834.18 18.9825 L1834.18 9.54393 Z" fill="#000000" fill-rule="nonzero" fill-opacity="1" /><path clip-path="url(#clip730)" d="M1877.85 49.7694 Q1868.81 49.7694 1865.33 51.8354 Q1861.85 53.9013 1861.85 58.8839 Q1861.85 62.8538 1864.44 65.2034 Q1867.07 67.5124 1871.57 67.5124 Q1877.77 67.5124 1881.49 63.1374 Q1885.26 58.7219 1885.26 51.4303 L1885.26 49.7694 L1877.85 49.7694 M1892.72 46.6907 L1892.72 72.576 L1885.26 72.576 L1885.26 65.6895 Q1882.71 69.8214 1878.9 71.8063 Q1875.09 73.7508 1869.58 73.7508 Q1862.62 73.7508 1858.49 69.8619 Q1854.39 65.9325 1854.39 59.3701 Q1854.39 51.7138 1859.5 47.825 Q1864.64 43.9361 1874.81 43.9361 L1885.26 43.9361 L1885.26 43.2069 Q1885.26 38.0623 1881.86 35.2672 Q1878.5 32.4315 1872.38 32.4315 Q1868.49 32.4315 1864.8 33.3632 Q1861.12 34.295 1857.72 36.1584 L1857.72 29.2718 Q1861.81 27.692 1865.66 26.9223 Q1869.5 26.1121 1873.15 26.1121 Q1882.99 26.1121 1887.85 31.2163 Q1892.72 36.3204 1892.72 46.6907 Z" fill="#000000" fill-rule="nonzero" fill-opacity="1" /><path clip-path="url(#clip730)" d="M1936.99 28.5427 L1936.99 35.5912 Q1933.83 33.9709 1930.43 33.1607 Q1927.03 32.3505 1923.38 32.3505 Q1917.83 32.3505 1915.04 34.0519 Q1912.28 35.7533 1912.28 39.156 Q1912.28 41.7486 1914.27 43.2475 Q1916.25 44.7058 1922.25 46.0426 L1924.8 46.6097 Q1932.74 48.3111 1936.06 51.4303 Q1939.42 54.509 1939.42 60.0587 Q1939.42 66.3781 1934.4 70.0644 Q1929.42 73.7508 1920.67 73.7508 Q1917.02 73.7508 1913.05 73.0216 Q1909.12 72.3329 1904.75 70.9151 L1904.75 63.2184 Q1908.88 65.3654 1912.89 66.4591 Q1916.9 67.5124 1920.83 67.5124 Q1926.09 67.5124 1928.93 65.73 Q1931.77 63.9071 1931.77 60.6258 Q1931.77 57.5877 1929.7 55.9673 Q1927.67 54.3469 1920.75 52.8481 L1918.15 52.2405 Q1911.23 50.7821 1908.15 47.7845 Q1905.07 44.7463 1905.07 39.4801 Q1905.07 33.0797 1909.61 29.5959 Q1914.14 26.1121 1922.49 26.1121 Q1926.62 26.1121 1930.27 26.7198 Q1933.91 27.3274 1936.99 28.5427 Z" fill="#000000" fill-rule="nonzero" fill-opacity="1" /><circle clip-path="url(#clip732)" cx="279.351" cy="1143.68" r="14.4" fill="#009af9" fill-rule="evenodd" fill-opacity="1" stroke="#000000" stroke-opacity="1" stroke-width="2.688"/>
<circle clip-path="url(#clip732)" cx="526.98" cy="1135.86" r="14.4" fill="#009af9" fill-rule="evenodd" fill-opacity="1" stroke="#000000" stroke-opacity="1" stroke-width="2.688"/>
<circle clip-path="url(#clip732)" cx="774.609" cy="1120.22" r="14.4" fill="#009af9" fill-rule="evenodd" fill-opacity="1" stroke="#000000" stroke-opacity="1" stroke-width="2.688"/>
<circle clip-path="url(#clip732)" cx="1022.24" cy="1088.94" r="14.4" fill="#009af9" fill-rule="evenodd" fill-opacity="1" stroke="#000000" stroke-opacity="1" stroke-width="2.688"/>
<circle clip-path="url(#clip732)" cx="1269.87" cy="1026.37" r="14.4" fill="#009af9" fill-rule="evenodd" fill-opacity="1" stroke="#000000" stroke-opacity="1" stroke-width="2.688"/>
<circle clip-path="url(#clip732)" cx="1517.5" cy="901.252" r="14.4" fill="#009af9" fill-rule="evenodd" fill-opacity="1" stroke="#000000" stroke-opacity="1" stroke-width="2.688"/>
<circle clip-path="url(#clip732)" cx="1765.12" cy="651.007" r="14.4" fill="#009af9" fill-rule="evenodd" fill-opacity="1" stroke="#000000" stroke-opacity="1" stroke-width="2.688"/>
<circle clip-path="url(#clip732)" cx="2012.75" cy="150.518" r="14.4" fill="#009af9" fill-rule="evenodd" fill-opacity="1" stroke="#000000" stroke-opacity="1" stroke-width="2.688"/>
</svg>
