<?xml version="1.0" encoding="utf-8"?>
<svg xmlns="http://www.w3.org/2000/svg" xmlns:xlink="http://www.w3.org/1999/xlink" width="528" height="336" viewBox="0 0 2112 1344">
<defs>
  <clipPath id="clip520">
    <rect x="0" y="0" width="2112" height="1344"/>
  </clipPath>
</defs>
<path clip-path="url(#clip520)" d="M0 1344 L2112 1344 L2112 0 L0 0  Z" fill="#ffffff" fill-rule="evenodd" fill-opacity="1"/>
<defs>
  <clipPath id="clip521">
    <rect x="422" y="0" width="1479" height="1344"/>
  </clipPath>
</defs>
<path clip-path="url(#clip520)" d="M144.228 1234.58 L2064.76 1234.58 L2064.76 47.2441 L144.228 47.2441  Z" fill="#ffffff" fill-rule="evenodd" fill-opacity="1"/>
<defs>
  <clipPath id="clip522">
    <rect x="144" y="47" width="1922" height="1188"/>
  </clipPath>
</defs>
<polyline clip-path="url(#clip522)" style="stroke:#000000; stroke-linecap:round; stroke-linejoin:round; stroke-width:2; stroke-opacity:0.1; fill:none" points="198.582,1234.58 198.582,47.2441 "/>
<polyline clip-path="url(#clip522)" style="stroke:#000000; stroke-linecap:round; stroke-linejoin:round; stroke-width:2; stroke-opacity:0.1; fill:none" points="651.537,1234.58 651.537,47.2441 "/>
<polyline clip-path="url(#clip522)" style="stroke:#000000; stroke-linecap:round; stroke-linejoin:round; stroke-width:2; stroke-opacity:0.1; fill:none" points="1104.49,1234.58 1104.49,47.2441 "/>
<polyline clip-path="url(#clip522)" style="stroke:#000000; stroke-linecap:round; stroke-linejoin:round; stroke-width:2; stroke-opacity:0.1; fill:none" points="1557.45,1234.58 1557.45,47.2441 "/>
<polyline clip-path="url(#clip522)" style="stroke:#000000; stroke-linecap:round; stroke-linejoin:round; stroke-width:2; stroke-opacity:0.1; fill:none" points="2010.4,1234.58 2010.4,47.2441 "/>
<polyline clip-path="url(#clip522)" style="stroke:#000000; stroke-linecap:round; stroke-linejoin:round; stroke-width:2; stroke-opacity:0.1; fill:none" points="144.228,1234.58 2064.76,1234.58 "/>
<polyline clip-path="url(#clip522)" style="stroke:#000000; stroke-linecap:round; stroke-linejoin:round; stroke-width:2; stroke-opacity:0.1; fill:none" points="144.228,997.112 2064.76,997.112 "/>
<polyline clip-path="url(#clip522)" style="stroke:#000000; stroke-linecap:round; stroke-linejoin:round; stroke-width:2; stroke-opacity:0.1; fill:none" points="144.228,759.645 2064.76,759.645 "/>
<polyline clip-path="url(#clip522)" style="stroke:#000000; stroke-linecap:round; stroke-linejoin:round; stroke-width:2; stroke-opacity:0.1; fill:none" points="144.228,522.178 2064.76,522.178 "/>
<polyline clip-path="url(#clip522)" style="stroke:#000000; stroke-linecap:round; stroke-linejoin:round; stroke-width:2; stroke-opacity:0.1; fill:none" points="144.228,284.711 2064.76,284.711 "/>
<polyline clip-path="url(#clip522)" style="stroke:#000000; stroke-linecap:round; stroke-linejoin:round; stroke-width:2; stroke-opacity:0.1; fill:none" points="144.228,47.2441 2064.76,47.2441 "/>
<polyline clip-path="url(#clip520)" style="stroke:#000000; stroke-linecap:round; stroke-linejoin:round; stroke-width:4; stroke-opacity:1; fill:none" points="144.228,1234.58 2064.76,1234.58 "/>
<polyline clip-path="url(#clip520)" style="stroke:#000000; stroke-linecap:round; stroke-linejoin:round; stroke-width:4; stroke-opacity:1; fill:none" points="198.582,1234.58 198.582,1215.68 "/>
<polyline clip-path="url(#clip520)" style="stroke:#000000; stroke-linecap:round; stroke-linejoin:round; stroke-width:4; stroke-opacity:1; fill:none" points="651.537,1234.58 651.537,1215.68 "/>
<polyline clip-path="url(#clip520)" style="stroke:#000000; stroke-linecap:round; stroke-linejoin:round; stroke-width:4; stroke-opacity:1; fill:none" points="1104.49,1234.58 1104.49,1215.68 "/>
<polyline clip-path="url(#clip520)" style="stroke:#000000; stroke-linecap:round; stroke-linejoin:round; stroke-width:4; stroke-opacity:1; fill:none" points="1557.45,1234.58 1557.45,1215.68 "/>
<polyline clip-path="url(#clip520)" style="stroke:#000000; stroke-linecap:round; stroke-linejoin:round; stroke-width:4; stroke-opacity:1; fill:none" points="2010.4,1234.58 2010.4,1215.68 "/>
<path clip-path="url(#clip520)" d="M167.483 1277.85 L197.159 1277.85 L197.159 1281.78 L167.483 1281.78 L167.483 1277.85 Z" fill="#000000" fill-rule="nonzero" fill-opacity="1" /><path clip-path="url(#clip520)" d="M220.098 1264.19 L208.293 1282.64 L220.098 1282.64 L220.098 1264.19 M218.871 1260.11 L224.751 1260.11 L224.751 1282.64 L229.681 1282.64 L229.681 1286.53 L224.751 1286.53 L224.751 1294.67 L220.098 1294.67 L220.098 1286.53 L204.496 1286.53 L204.496 1282.01 L218.871 1260.11 Z" fill="#000000" fill-rule="nonzero" fill-opacity="1" /><path clip-path="url(#clip520)" d="M621.479 1277.85 L651.155 1277.85 L651.155 1281.78 L621.479 1281.78 L621.479 1277.85 Z" fill="#000000" fill-rule="nonzero" fill-opacity="1" /><path clip-path="url(#clip520)" d="M665.275 1290.74 L681.595 1290.74 L681.595 1294.67 L659.65 1294.67 L659.65 1290.74 Q662.312 1287.99 666.896 1283.36 Q671.502 1278.7 672.683 1277.36 Q674.928 1274.84 675.808 1273.1 Q676.71 1271.34 676.71 1269.65 Q676.71 1266.9 674.766 1265.16 Q672.845 1263.42 669.743 1263.42 Q667.544 1263.42 665.09 1264.19 Q662.66 1264.95 659.882 1266.5 L659.882 1261.78 Q662.706 1260.65 665.16 1260.07 Q667.613 1259.49 669.65 1259.49 Q675.021 1259.49 678.215 1262.17 Q681.409 1264.86 681.409 1269.35 Q681.409 1271.48 680.599 1273.4 Q679.812 1275.3 677.706 1277.89 Q677.127 1278.56 674.025 1281.78 Q670.923 1284.98 665.275 1290.74 Z" fill="#000000" fill-rule="nonzero" fill-opacity="1" /><path clip-path="url(#clip520)" d="M1104.49 1263.19 Q1100.88 1263.19 1099.05 1266.76 Q1097.25 1270.3 1097.25 1277.43 Q1097.25 1284.54 1099.05 1288.1 Q1100.88 1291.64 1104.49 1291.64 Q1108.13 1291.64 1109.93 1288.1 Q1111.76 1284.54 1111.76 1277.43 Q1111.76 1270.3 1109.93 1266.76 Q1108.13 1263.19 1104.49 1263.19 M1104.49 1259.49 Q1110.3 1259.49 1113.36 1264.1 Q1116.44 1268.68 1116.44 1277.43 Q1116.44 1286.16 1113.36 1290.76 Q1110.3 1295.35 1104.49 1295.35 Q1098.68 1295.35 1095.6 1290.76 Q1092.55 1286.16 1092.55 1277.43 Q1092.55 1268.68 1095.6 1264.1 Q1098.68 1259.49 1104.49 1259.49 Z" fill="#000000" fill-rule="nonzero" fill-opacity="1" /><path clip-path="url(#clip520)" d="M1552.1 1290.74 L1568.42 1290.74 L1568.42 1294.67 L1546.47 1294.67 L1546.47 1290.74 Q1549.14 1287.99 1553.72 1283.36 Q1558.33 1278.7 1559.51 1277.36 Q1561.75 1274.84 1562.63 1273.1 Q1563.53 1271.34 1563.53 1269.65 Q1563.53 1266.9 1561.59 1265.16 Q1559.67 1263.42 1556.57 1263.42 Q1554.37 1263.42 1551.91 1264.19 Q1549.48 1264.95 1546.71 1266.5 L1546.71 1261.78 Q1549.53 1260.65 1551.98 1260.07 Q1554.44 1259.49 1556.47 1259.49 Q1561.84 1259.49 1565.04 1262.17 Q1568.23 1264.86 1568.23 1269.35 Q1568.23 1271.48 1567.42 1273.4 Q1566.64 1275.3 1564.53 1277.89 Q1563.95 1278.56 1560.85 1281.78 Q1557.75 1284.98 1552.1 1290.74 Z" fill="#000000" fill-rule="nonzero" fill-opacity="1" /><path clip-path="url(#clip520)" d="M2013.41 1264.19 L2001.61 1282.64 L2013.41 1282.64 L2013.41 1264.19 M2012.18 1260.11 L2018.06 1260.11 L2018.06 1282.64 L2022.99 1282.64 L2022.99 1286.53 L2018.06 1286.53 L2018.06 1294.67 L2013.41 1294.67 L2013.41 1286.53 L1997.81 1286.53 L1997.81 1282.01 L2012.18 1260.11 Z" fill="#000000" fill-rule="nonzero" fill-opacity="1" /><polyline clip-path="url(#clip520)" style="stroke:#000000; stroke-linecap:round; stroke-linejoin:round; stroke-width:4; stroke-opacity:1; fill:none" points="144.228,1234.58 144.228,47.2441 "/>
<polyline clip-path="url(#clip520)" style="stroke:#000000; stroke-linecap:round; stroke-linejoin:round; stroke-width:4; stroke-opacity:1; fill:none" points="144.228,1234.58 163.125,1234.58 "/>
<polyline clip-path="url(#clip520)" style="stroke:#000000; stroke-linecap:round; stroke-linejoin:round; stroke-width:4; stroke-opacity:1; fill:none" points="144.228,997.112 163.125,997.112 "/>
<polyline clip-path="url(#clip520)" style="stroke:#000000; stroke-linecap:round; stroke-linejoin:round; stroke-width:4; stroke-opacity:1; fill:none" points="144.228,759.645 163.125,759.645 "/>
<polyline clip-path="url(#clip520)" style="stroke:#000000; stroke-linecap:round; stroke-linejoin:round; stroke-width:4; stroke-opacity:1; fill:none" points="144.228,522.178 163.125,522.178 "/>
<polyline clip-path="url(#clip520)" style="stroke:#000000; stroke-linecap:round; stroke-linejoin:round; stroke-width:4; stroke-opacity:1; fill:none" points="144.228,284.711 163.125,284.711 "/>
<polyline clip-path="url(#clip520)" style="stroke:#000000; stroke-linecap:round; stroke-linejoin:round; stroke-width:4; stroke-opacity:1; fill:none" points="144.228,47.2441 163.125,47.2441 "/>
<path clip-path="url(#clip520)" d="M52.4321 1235.03 L82.1079 1235.03 L82.1079 1238.97 L52.4321 1238.97 L52.4321 1235.03 Z" fill="#000000" fill-rule="nonzero" fill-opacity="1" /><path clip-path="url(#clip520)" d="M96.2282 1247.92 L112.548 1247.92 L112.548 1251.86 L90.6032 1251.86 L90.6032 1247.92 Q93.2652 1245.17 97.8485 1240.54 Q102.455 1235.89 103.636 1234.54 Q105.881 1232.02 106.761 1230.28 Q107.663 1228.53 107.663 1226.84 Q107.663 1224.08 105.719 1222.35 Q103.798 1220.61 100.696 1220.61 Q98.4967 1220.61 96.043 1221.37 Q93.6125 1222.14 90.8347 1223.69 L90.8347 1218.97 Q93.6588 1217.83 96.1124 1217.25 Q98.5661 1216.67 100.603 1216.67 Q105.974 1216.67 109.168 1219.36 Q112.362 1222.04 112.362 1226.53 Q112.362 1228.66 111.552 1230.59 Q110.765 1232.48 108.659 1235.08 Q108.08 1235.75 104.978 1238.97 Q101.876 1242.16 96.2282 1247.92 Z" fill="#000000" fill-rule="nonzero" fill-opacity="1" /><path clip-path="url(#clip520)" d="M100.603 982.911 Q96.9921 982.911 95.1634 986.475 Q93.3578 990.017 93.3578 997.147 Q93.3578 1004.25 95.1634 1007.82 Q96.9921 1011.36 100.603 1011.36 Q104.237 1011.36 106.043 1007.82 Q107.872 1004.25 107.872 997.147 Q107.872 990.017 106.043 986.475 Q104.237 982.911 100.603 982.911 M100.603 979.207 Q106.413 979.207 109.469 983.813 Q112.548 988.397 112.548 997.147 Q112.548 1005.87 109.469 1010.48 Q106.413 1015.06 100.603 1015.06 Q94.793 1015.06 91.7143 1010.48 Q88.6588 1005.87 88.6588 997.147 Q88.6588 988.397 91.7143 983.813 Q94.793 979.207 100.603 979.207 Z" fill="#000000" fill-rule="nonzero" fill-opacity="1" /><path clip-path="url(#clip520)" d="M96.2282 772.99 L112.548 772.99 L112.548 776.925 L90.6032 776.925 L90.6032 772.99 Q93.2652 770.235 97.8485 765.606 Q102.455 760.953 103.636 759.61 Q105.881 757.087 106.761 755.351 Q107.663 753.592 107.663 751.902 Q107.663 749.147 105.719 747.411 Q103.798 745.675 100.696 745.675 Q98.4967 745.675 96.043 746.439 Q93.6125 747.203 90.8347 748.754 L90.8347 744.032 Q93.6588 742.897 96.1124 742.319 Q98.5661 741.74 100.603 741.74 Q105.974 741.74 109.168 744.425 Q112.362 747.11 112.362 751.601 Q112.362 753.731 111.552 755.652 Q110.765 757.55 108.659 760.143 Q108.08 760.814 104.978 764.031 Q101.876 767.226 96.2282 772.99 Z" fill="#000000" fill-rule="nonzero" fill-opacity="1" /><path clip-path="url(#clip520)" d="M102.964 508.972 L91.1588 527.421 L102.964 527.421 L102.964 508.972 M101.737 504.898 L107.617 504.898 L107.617 527.421 L112.548 527.421 L112.548 531.31 L107.617 531.31 L107.617 539.458 L102.964 539.458 L102.964 531.31 L87.3625 531.31 L87.3625 526.796 L101.737 504.898 Z" fill="#000000" fill-rule="nonzero" fill-opacity="1" /><path clip-path="url(#clip520)" d="M101.02 282.848 Q97.8717 282.848 96.0199 285 Q94.1912 287.153 94.1912 290.903 Q94.1912 294.63 96.0199 296.806 Q97.8717 298.959 101.02 298.959 Q104.168 298.959 105.997 296.806 Q107.848 294.63 107.848 290.903 Q107.848 287.153 105.997 285 Q104.168 282.848 101.02 282.848 M110.302 268.195 L110.302 272.454 Q108.543 271.621 106.737 271.181 Q104.955 270.741 103.196 270.741 Q98.5661 270.741 96.1124 273.866 Q93.6819 276.991 93.3347 283.311 Q94.7004 281.297 96.7606 280.232 Q98.8208 279.144 101.298 279.144 Q106.506 279.144 109.515 282.315 Q112.548 285.463 112.548 290.903 Q112.548 296.227 109.399 299.445 Q106.251 302.662 101.02 302.662 Q95.0245 302.662 91.8532 298.079 Q88.6819 293.473 88.6819 284.746 Q88.6819 276.551 92.5708 271.69 Q96.4597 266.806 103.011 266.806 Q104.77 266.806 106.552 267.153 Q108.358 267.5 110.302 268.195 Z" fill="#000000" fill-rule="nonzero" fill-opacity="1" /><path clip-path="url(#clip520)" d="M100.696 48.1121 Q97.3624 48.1121 95.4412 49.8945 Q93.543 51.6769 93.543 54.8019 Q93.543 57.9269 95.4412 59.7093 Q97.3624 61.4917 100.696 61.4917 Q104.029 61.4917 105.95 59.7093 Q107.872 57.9038 107.872 54.8019 Q107.872 51.6769 105.95 49.8945 Q104.052 48.1121 100.696 48.1121 M96.0199 46.1214 Q93.0106 45.3807 91.3208 43.3205 Q89.6541 41.2603 89.6541 38.2974 Q89.6541 34.1539 92.5939 31.7465 Q95.5569 29.3391 100.696 29.3391 Q105.858 29.3391 108.798 31.7465 Q111.737 34.1539 111.737 38.2974 Q111.737 41.2603 110.048 43.3205 Q108.381 45.3807 105.395 46.1214 Q108.774 46.9084 110.649 49.2001 Q112.548 51.4918 112.548 54.8019 Q112.548 59.825 109.469 62.5102 Q106.413 65.1954 100.696 65.1954 Q94.9782 65.1954 91.8995 62.5102 Q88.844 59.825 88.844 54.8019 Q88.844 51.4918 90.7421 49.2001 Q92.6402 46.9084 96.0199 46.1214 M94.3069 38.7372 Q94.3069 41.4224 95.9736 42.927 Q97.6634 44.4316 100.696 44.4316 Q103.705 44.4316 105.395 42.927 Q107.108 41.4224 107.108 38.7372 Q107.108 36.052 105.395 34.5474 Q103.705 33.0428 100.696 33.0428 Q97.6634 33.0428 95.9736 34.5474 Q94.3069 36.052 94.3069 38.7372 Z" fill="#000000" fill-rule="nonzero" fill-opacity="1" /><polyline clip-path="url(#clip522)" style="stroke:#009af9; stroke-linecap:round; stroke-linejoin:round; stroke-width:4; stroke-opacity:1; fill:none" points="198.582,1020.86 208.447,1021.07 262.101,1022.27 291.557,1022.98 321.042,1023.74 350.647,1024.54 378.12,1025.33 407.866,1026.24 442.291,1027.37 468.335,1028.28 499.812,1029.46 532.62,1030.79 558.843,1031.94 590.966,1033.45 623.566,1035.12 652.568,1036.75 679.138,1038.37 714.996,1040.77 742.128,1042.78 756.281,1043.9 770.434,1045.08 787.056,1046.55 803.677,1048.11 817.273,1049.46 830.869,1050.88 846.396,1052.6 861.922,1054.44 876.192,1056.24 890.463,1058.16 907.763,1060.65 925.064,1063.36 939.305,1065.77 953.545,1068.36 961.684,1069.93 969.823,1071.57 977.962,1073.29 986.1,1075.08 992.442,1076.55 998.783,1078.06 1005.12,1079.64 1011.47,1081.27 1019.56,1083.46 1027.66,1085.77 1035.76,1088.2 1043.85,1090.77 1050.72,1093.06 1057.58,1095.47 1064.45,1098.01 1071.32,1100.68 1078.18,1103.49 1085.05,1106.46 1091.91,1109.6 1098.78,1112.92 1100.21,1113.64 1101.64,1114.37 1103.06,1115.1 1104.49,1115.85 "/>
<polyline clip-path="url(#clip522)" style="stroke:#e26f46; stroke-linecap:round; stroke-linejoin:round; stroke-width:4; stroke-opacity:1; fill:none" points="1104.49,674.361 1106.96,674.323 1109.42,674.208 1111.89,674.016 1114.36,673.747 1127.77,670.896 1141.18,665.543 1154.6,657.316 1168.01,645.595 1175.37,637.338 1182.74,627.509 1190.1,615.808 1197.47,601.839 1204.84,585.06 1212.21,564.764 1215.89,553.002 1219.58,539.96 1221.42,532.902 1223.27,525.45 1225.11,517.573 1226.95,509.241 1230.65,490.976 1234.35,470.372 1238.05,447 1241.75,420.324 1245.45,389.663 1249.16,354.145 1251.01,334.223 1252.86,312.635 1254.71,289.183 1256.56,263.635 1258.27,237.817 1259.99,209.713 1261.71,179.031 1263.43,145.433 1265.14,108.52 1266.86,67.8224 1268.58,22.7819 1270.29,-27.2675 1271.15,-54.4147 1272.01,-83.1267 1272.87,-113.53 1273.73,-145.765 1274.59,-179.986 1275.44,-216.365 1276.3,-255.092 1277.16,-296.38 1278.02,-340.466 1278.88,-387.615 1279.74,-438.124 1280.6,-492.328 1281.45,-550.603 1282.31,-613.376 1283.17,-681.131 1284.03,-754.417 1284.49,-796.616 1284.96,-840.728 1285.42,-886.873 1285.89,-935.178 1286.35,-985.782 1286.82,-1038.83 1287.28,-1094.5 1287.75,-1152.94 1288.21,-1214.36 1288.68,-1278.97 1288.91,-1312.53 1289.14,-1346.97 "/>
<polyline clip-path="url(#clip522)" style="stroke:#e26f46; stroke-linecap:round; stroke-linejoin:round; stroke-width:4; stroke-opacity:1; fill:none" points="1330.99,997.112 1339.59,997.112 1348.2,996.9 1361.22,993.557 1374.24,986.216 1389.98,975.37 1405.72,964.762 1438.53,946.402 1464.75,935.34 1496.88,925.065 1529.48,917.254 1558.48,911.864 1585.05,907.869 1620.91,903.538 1648.04,900.876 1676.34,898.533 1709.59,896.228 1736.78,894.629 1767.83,893.055 1796.37,891.806 1830.97,890.496 1859.46,889.558 1892.01,888.615 1917.37,887.962 1949.76,887.215 2004.69,886.136 2010.4,886.036 "/>
</svg>
