<?xml version="1.0" encoding="utf-8"?>
<svg xmlns="http://www.w3.org/2000/svg" xmlns:xlink="http://www.w3.org/1999/xlink" width="528" height="336" viewBox="0 0 2112 1344">
<defs>
  <clipPath id="clip040">
    <rect x="0" y="0" width="2112" height="1344"/>
  </clipPath>
</defs>
<path clip-path="url(#clip040)" d="M0 1344 L2112 1344 L2112 0 L0 0  Z" fill="#ffffff" fill-rule="evenodd" fill-opacity="1"/>
<defs>
  <clipPath id="clip041">
    <rect x="422" y="0" width="1479" height="1344"/>
  </clipPath>
</defs>
<path clip-path="url(#clip040)" d="M183.533 1234.58 L2064.76 1234.58 L2064.76 47.2441 L183.533 47.2441  Z" fill="#ffffff" fill-rule="evenodd" fill-opacity="1"/>
<defs>
  <clipPath id="clip042">
    <rect x="183" y="47" width="1882" height="1188"/>
  </clipPath>
</defs>
<polyline clip-path="url(#clip042)" style="stroke:#000000; stroke-linecap:round; stroke-linejoin:round; stroke-width:2; stroke-opacity:0.1; fill:none" points="236.775,1234.58 236.775,47.2441 "/>
<polyline clip-path="url(#clip042)" style="stroke:#000000; stroke-linecap:round; stroke-linejoin:round; stroke-width:2; stroke-opacity:0.1; fill:none" points="680.46,1234.58 680.46,47.2441 "/>
<polyline clip-path="url(#clip042)" style="stroke:#000000; stroke-linecap:round; stroke-linejoin:round; stroke-width:2; stroke-opacity:0.1; fill:none" points="1124.14,1234.58 1124.14,47.2441 "/>
<polyline clip-path="url(#clip042)" style="stroke:#000000; stroke-linecap:round; stroke-linejoin:round; stroke-width:2; stroke-opacity:0.1; fill:none" points="1567.83,1234.58 1567.83,47.2441 "/>
<polyline clip-path="url(#clip042)" style="stroke:#000000; stroke-linecap:round; stroke-linejoin:round; stroke-width:2; stroke-opacity:0.1; fill:none" points="2011.51,1234.58 2011.51,47.2441 "/>
<polyline clip-path="url(#clip042)" style="stroke:#000000; stroke-linecap:round; stroke-linejoin:round; stroke-width:2; stroke-opacity:0.1; fill:none" points="183.533,1116.97 2064.76,1116.97 "/>
<polyline clip-path="url(#clip042)" style="stroke:#000000; stroke-linecap:round; stroke-linejoin:round; stroke-width:2; stroke-opacity:0.1; fill:none" points="183.533,883.606 2064.76,883.606 "/>
<polyline clip-path="url(#clip042)" style="stroke:#000000; stroke-linecap:round; stroke-linejoin:round; stroke-width:2; stroke-opacity:0.1; fill:none" points="183.533,650.246 2064.76,650.246 "/>
<polyline clip-path="url(#clip042)" style="stroke:#000000; stroke-linecap:round; stroke-linejoin:round; stroke-width:2; stroke-opacity:0.1; fill:none" points="183.533,416.886 2064.76,416.886 "/>
<polyline clip-path="url(#clip042)" style="stroke:#000000; stroke-linecap:round; stroke-linejoin:round; stroke-width:2; stroke-opacity:0.1; fill:none" points="183.533,183.526 2064.76,183.526 "/>
<polyline clip-path="url(#clip040)" style="stroke:#000000; stroke-linecap:round; stroke-linejoin:round; stroke-width:4; stroke-opacity:1; fill:none" points="183.533,1234.58 2064.76,1234.58 "/>
<polyline clip-path="url(#clip040)" style="stroke:#000000; stroke-linecap:round; stroke-linejoin:round; stroke-width:4; stroke-opacity:1; fill:none" points="236.775,1234.58 236.775,1215.68 "/>
<polyline clip-path="url(#clip040)" style="stroke:#000000; stroke-linecap:round; stroke-linejoin:round; stroke-width:4; stroke-opacity:1; fill:none" points="680.46,1234.58 680.46,1215.68 "/>
<polyline clip-path="url(#clip040)" style="stroke:#000000; stroke-linecap:round; stroke-linejoin:round; stroke-width:4; stroke-opacity:1; fill:none" points="1124.14,1234.58 1124.14,1215.68 "/>
<polyline clip-path="url(#clip040)" style="stroke:#000000; stroke-linecap:round; stroke-linejoin:round; stroke-width:4; stroke-opacity:1; fill:none" points="1567.83,1234.58 1567.83,1215.68 "/>
<polyline clip-path="url(#clip040)" style="stroke:#000000; stroke-linecap:round; stroke-linejoin:round; stroke-width:4; stroke-opacity:1; fill:none" points="2011.51,1234.58 2011.51,1215.68 "/>
<path clip-path="url(#clip040)" d="M192.933 1290.74 L209.252 1290.74 L209.252 1294.67 L187.308 1294.67 L187.308 1290.74 Q189.97 1287.99 194.553 1283.36 Q199.16 1278.7 200.34 1277.36 Q202.585 1274.84 203.465 1273.1 Q204.368 1271.34 204.368 1269.65 Q204.368 1266.9 202.423 1265.16 Q200.502 1263.42 197.4 1263.42 Q195.201 1263.42 192.748 1264.19 Q190.317 1264.95 187.539 1266.5 L187.539 1261.78 Q190.363 1260.65 192.817 1260.07 Q195.271 1259.49 197.308 1259.49 Q202.678 1259.49 205.872 1262.17 Q209.067 1264.86 209.067 1269.35 Q209.067 1271.48 208.257 1273.4 Q207.47 1275.3 205.363 1277.89 Q204.784 1278.56 201.683 1281.78 Q198.581 1284.98 192.933 1290.74 Z" fill="#000000" fill-rule="nonzero" fill-opacity="1" /><path clip-path="url(#clip040)" d="M219.067 1288.8 L223.951 1288.8 L223.951 1294.67 L219.067 1294.67 L219.067 1288.8 Z" fill="#000000" fill-rule="nonzero" fill-opacity="1" /><path clip-path="url(#clip040)" d="M234.275 1293.96 L234.275 1289.7 Q236.034 1290.53 237.84 1290.97 Q239.645 1291.41 241.382 1291.41 Q246.011 1291.41 248.442 1288.31 Q250.895 1285.18 251.243 1278.84 Q249.9 1280.83 247.84 1281.9 Q245.78 1282.96 243.28 1282.96 Q238.094 1282.96 235.062 1279.84 Q232.053 1276.69 232.053 1271.25 Q232.053 1265.92 235.201 1262.71 Q238.349 1259.49 243.581 1259.49 Q249.576 1259.49 252.724 1264.1 Q255.895 1268.68 255.895 1277.43 Q255.895 1285.6 252.006 1290.48 Q248.141 1295.35 241.59 1295.35 Q239.831 1295.35 238.025 1295 Q236.219 1294.65 234.275 1293.96 M243.581 1279.3 Q246.729 1279.3 248.557 1277.15 Q250.409 1275 250.409 1271.25 Q250.409 1267.52 248.557 1265.37 Q246.729 1263.19 243.581 1263.19 Q240.432 1263.19 238.581 1265.37 Q236.752 1267.52 236.752 1271.25 Q236.752 1275 238.581 1277.15 Q240.432 1279.3 243.581 1279.3 Z" fill="#000000" fill-rule="nonzero" fill-opacity="1" /><path clip-path="url(#clip040)" d="M274.298 1263.19 Q270.687 1263.19 268.858 1266.76 Q267.053 1270.3 267.053 1277.43 Q267.053 1284.54 268.858 1288.1 Q270.687 1291.64 274.298 1291.64 Q277.932 1291.64 279.738 1288.1 Q281.566 1284.54 281.566 1277.43 Q281.566 1270.3 279.738 1266.76 Q277.932 1263.19 274.298 1263.19 M274.298 1259.49 Q280.108 1259.49 283.164 1264.1 Q286.242 1268.68 286.242 1277.43 Q286.242 1286.16 283.164 1290.76 Q280.108 1295.35 274.298 1295.35 Q268.488 1295.35 265.409 1290.76 Q262.354 1286.16 262.354 1277.43 Q262.354 1268.68 265.409 1264.1 Q268.488 1259.49 274.298 1259.49 Z" fill="#000000" fill-rule="nonzero" fill-opacity="1" /><path clip-path="url(#clip040)" d="M637.115 1290.74 L653.434 1290.74 L653.434 1294.67 L631.49 1294.67 L631.49 1290.74 Q634.152 1287.99 638.735 1283.36 Q643.342 1278.7 644.522 1277.36 Q646.768 1274.84 647.647 1273.1 Q648.55 1271.34 648.55 1269.65 Q648.55 1266.9 646.606 1265.16 Q644.684 1263.42 641.583 1263.42 Q639.384 1263.42 636.93 1264.19 Q634.499 1264.95 631.722 1266.5 L631.722 1261.78 Q634.546 1260.65 636.999 1260.07 Q639.453 1259.49 641.49 1259.49 Q646.86 1259.49 650.055 1262.17 Q653.249 1264.86 653.249 1269.35 Q653.249 1271.48 652.439 1273.4 Q651.652 1275.3 649.546 1277.89 Q648.967 1278.56 645.865 1281.78 Q642.763 1284.98 637.115 1290.74 Z" fill="#000000" fill-rule="nonzero" fill-opacity="1" /><path clip-path="url(#clip040)" d="M663.249 1288.8 L668.133 1288.8 L668.133 1294.67 L663.249 1294.67 L663.249 1288.8 Z" fill="#000000" fill-rule="nonzero" fill-opacity="1" /><path clip-path="url(#clip040)" d="M678.457 1293.96 L678.457 1289.7 Q680.217 1290.53 682.022 1290.97 Q683.828 1291.41 685.564 1291.41 Q690.193 1291.41 692.624 1288.31 Q695.078 1285.18 695.425 1278.84 Q694.082 1280.83 692.022 1281.9 Q689.962 1282.96 687.462 1282.96 Q682.277 1282.96 679.244 1279.84 Q676.235 1276.69 676.235 1271.25 Q676.235 1265.92 679.383 1262.71 Q682.531 1259.49 687.763 1259.49 Q693.758 1259.49 696.906 1264.1 Q700.078 1268.68 700.078 1277.43 Q700.078 1285.6 696.189 1290.48 Q692.323 1295.35 685.772 1295.35 Q684.013 1295.35 682.207 1295 Q680.402 1294.65 678.457 1293.96 M687.763 1279.3 Q690.911 1279.3 692.74 1277.15 Q694.592 1275 694.592 1271.25 Q694.592 1267.52 692.74 1265.37 Q690.911 1263.19 687.763 1263.19 Q684.615 1263.19 682.763 1265.37 Q680.934 1267.52 680.934 1271.25 Q680.934 1275 682.763 1277.15 Q684.615 1279.3 687.763 1279.3 Z" fill="#000000" fill-rule="nonzero" fill-opacity="1" /><path clip-path="url(#clip040)" d="M708.527 1260.11 L726.883 1260.11 L726.883 1264.05 L712.809 1264.05 L712.809 1272.52 Q713.828 1272.17 714.846 1272.01 Q715.865 1271.83 716.883 1271.83 Q722.67 1271.83 726.05 1275 Q729.429 1278.17 729.429 1283.59 Q729.429 1289.17 725.957 1292.27 Q722.485 1295.35 716.166 1295.35 Q713.99 1295.35 711.721 1294.98 Q709.476 1294.61 707.068 1293.86 L707.068 1289.17 Q709.152 1290.3 711.374 1290.86 Q713.596 1291.41 716.073 1291.41 Q720.078 1291.41 722.416 1289.3 Q724.753 1287.2 724.753 1283.59 Q724.753 1279.98 722.416 1277.87 Q720.078 1275.76 716.073 1275.76 Q714.198 1275.76 712.323 1276.18 Q710.471 1276.6 708.527 1277.48 L708.527 1260.11 Z" fill="#000000" fill-rule="nonzero" fill-opacity="1" /><path clip-path="url(#clip040)" d="M1090.37 1276.04 Q1093.73 1276.76 1095.6 1279.03 Q1097.5 1281.3 1097.5 1284.63 Q1097.5 1289.74 1093.98 1292.55 Q1090.46 1295.35 1083.98 1295.35 Q1081.81 1295.35 1079.49 1294.91 Q1077.2 1294.49 1074.75 1293.63 L1074.75 1289.12 Q1076.69 1290.25 1079.01 1290.83 Q1081.32 1291.41 1083.84 1291.41 Q1088.24 1291.41 1090.53 1289.67 Q1092.85 1287.94 1092.85 1284.63 Q1092.85 1281.57 1090.7 1279.86 Q1088.57 1278.12 1084.75 1278.12 L1080.72 1278.12 L1080.72 1274.28 L1084.93 1274.28 Q1088.38 1274.28 1090.21 1272.92 Q1092.04 1271.53 1092.04 1268.93 Q1092.04 1266.27 1090.14 1264.86 Q1088.26 1263.42 1084.75 1263.42 Q1082.83 1263.42 1080.63 1263.84 Q1078.43 1264.26 1075.79 1265.14 L1075.79 1260.97 Q1078.45 1260.23 1080.77 1259.86 Q1083.1 1259.49 1085.16 1259.49 Q1090.49 1259.49 1093.59 1261.92 Q1096.69 1264.33 1096.69 1268.45 Q1096.69 1271.32 1095.05 1273.31 Q1093.4 1275.28 1090.37 1276.04 Z" fill="#000000" fill-rule="nonzero" fill-opacity="1" /><path clip-path="url(#clip040)" d="M1106.37 1288.8 L1111.25 1288.8 L1111.25 1294.67 L1106.37 1294.67 L1106.37 1288.8 Z" fill="#000000" fill-rule="nonzero" fill-opacity="1" /><path clip-path="url(#clip040)" d="M1131.44 1263.19 Q1127.82 1263.19 1126 1266.76 Q1124.19 1270.3 1124.19 1277.43 Q1124.19 1284.54 1126 1288.1 Q1127.82 1291.64 1131.44 1291.64 Q1135.07 1291.64 1136.88 1288.1 Q1138.7 1284.54 1138.7 1277.43 Q1138.7 1270.3 1136.88 1266.76 Q1135.07 1263.19 1131.44 1263.19 M1131.44 1259.49 Q1137.25 1259.49 1140.3 1264.1 Q1143.38 1268.68 1143.38 1277.43 Q1143.38 1286.16 1140.3 1290.76 Q1137.25 1295.35 1131.44 1295.35 Q1125.63 1295.35 1122.55 1290.76 Q1119.49 1286.16 1119.49 1277.43 Q1119.49 1268.68 1122.55 1264.1 Q1125.63 1259.49 1131.44 1259.49 Z" fill="#000000" fill-rule="nonzero" fill-opacity="1" /><path clip-path="url(#clip040)" d="M1161.6 1263.19 Q1157.99 1263.19 1156.16 1266.76 Q1154.35 1270.3 1154.35 1277.43 Q1154.35 1284.54 1156.16 1288.1 Q1157.99 1291.64 1161.6 1291.64 Q1165.23 1291.64 1167.04 1288.1 Q1168.87 1284.54 1168.87 1277.43 Q1168.87 1270.3 1167.04 1266.76 Q1165.23 1263.19 1161.6 1263.19 M1161.6 1259.49 Q1167.41 1259.49 1170.46 1264.1 Q1173.54 1268.68 1173.54 1277.43 Q1173.54 1286.16 1170.46 1290.76 Q1167.41 1295.35 1161.6 1295.35 Q1155.79 1295.35 1152.71 1290.76 Q1149.65 1286.16 1149.65 1277.43 Q1149.65 1268.68 1152.71 1264.1 Q1155.79 1259.49 1161.6 1259.49 Z" fill="#000000" fill-rule="nonzero" fill-opacity="1" /><path clip-path="url(#clip040)" d="M1534.55 1276.04 Q1537.91 1276.76 1539.79 1279.03 Q1541.68 1281.3 1541.68 1284.63 Q1541.68 1289.74 1538.16 1292.55 Q1534.65 1295.35 1528.16 1295.35 Q1525.99 1295.35 1523.67 1294.91 Q1521.38 1294.49 1518.93 1293.63 L1518.93 1289.12 Q1520.87 1290.25 1523.19 1290.83 Q1525.5 1291.41 1528.03 1291.41 Q1532.42 1291.41 1534.72 1289.67 Q1537.03 1287.94 1537.03 1284.63 Q1537.03 1281.57 1534.88 1279.86 Q1532.75 1278.12 1528.93 1278.12 L1524.9 1278.12 L1524.9 1274.28 L1529.11 1274.28 Q1532.56 1274.28 1534.39 1272.92 Q1536.22 1271.53 1536.22 1268.93 Q1536.22 1266.27 1534.32 1264.86 Q1532.45 1263.42 1528.93 1263.42 Q1527.01 1263.42 1524.81 1263.84 Q1522.61 1264.26 1519.97 1265.14 L1519.97 1260.97 Q1522.63 1260.23 1524.95 1259.86 Q1527.29 1259.49 1529.35 1259.49 Q1534.67 1259.49 1537.77 1261.92 Q1540.87 1264.33 1540.87 1268.45 Q1540.87 1271.32 1539.23 1273.31 Q1537.59 1275.28 1534.55 1276.04 Z" fill="#000000" fill-rule="nonzero" fill-opacity="1" /><path clip-path="url(#clip040)" d="M1550.55 1288.8 L1555.43 1288.8 L1555.43 1294.67 L1550.55 1294.67 L1550.55 1288.8 Z" fill="#000000" fill-rule="nonzero" fill-opacity="1" /><path clip-path="url(#clip040)" d="M1575.62 1263.19 Q1572.01 1263.19 1570.18 1266.76 Q1568.37 1270.3 1568.37 1277.43 Q1568.37 1284.54 1570.18 1288.1 Q1572.01 1291.64 1575.62 1291.64 Q1579.25 1291.64 1581.06 1288.1 Q1582.89 1284.54 1582.89 1277.43 Q1582.89 1270.3 1581.06 1266.76 Q1579.25 1263.19 1575.62 1263.19 M1575.62 1259.49 Q1581.43 1259.49 1584.48 1264.1 Q1587.56 1268.68 1587.56 1277.43 Q1587.56 1286.16 1584.48 1290.76 Q1581.43 1295.35 1575.62 1295.35 Q1569.81 1295.35 1566.73 1290.76 Q1563.67 1286.16 1563.67 1277.43 Q1563.67 1268.68 1566.73 1264.1 Q1569.81 1259.49 1575.62 1259.49 Z" fill="#000000" fill-rule="nonzero" fill-opacity="1" /><path clip-path="url(#clip040)" d="M1595.83 1260.11 L1614.18 1260.11 L1614.18 1264.05 L1600.11 1264.05 L1600.11 1272.52 Q1601.13 1272.17 1602.15 1272.01 Q1603.16 1271.83 1604.18 1271.83 Q1609.97 1271.83 1613.35 1275 Q1616.73 1278.17 1616.73 1283.59 Q1616.73 1289.17 1613.26 1292.27 Q1609.78 1295.35 1603.47 1295.35 Q1601.29 1295.35 1599.02 1294.98 Q1596.78 1294.61 1594.37 1293.86 L1594.37 1289.17 Q1596.45 1290.3 1598.67 1290.86 Q1600.9 1291.41 1603.37 1291.41 Q1607.38 1291.41 1609.72 1289.3 Q1612.05 1287.2 1612.05 1283.59 Q1612.05 1279.98 1609.72 1277.87 Q1607.38 1275.76 1603.37 1275.76 Q1601.5 1275.76 1599.62 1276.18 Q1597.77 1276.6 1595.83 1277.48 L1595.83 1260.11 Z" fill="#000000" fill-rule="nonzero" fill-opacity="1" /><path clip-path="url(#clip040)" d="M1977.74 1276.04 Q1981.1 1276.76 1982.97 1279.03 Q1984.87 1281.3 1984.87 1284.63 Q1984.87 1289.74 1981.35 1292.55 Q1977.83 1295.35 1971.35 1295.35 Q1969.18 1295.35 1966.86 1294.91 Q1964.57 1294.49 1962.12 1293.63 L1962.12 1289.12 Q1964.06 1290.25 1966.38 1290.83 Q1968.69 1291.41 1971.21 1291.41 Q1975.61 1291.41 1977.9 1289.67 Q1980.22 1287.94 1980.22 1284.63 Q1980.22 1281.57 1978.06 1279.86 Q1975.94 1278.12 1972.12 1278.12 L1968.09 1278.12 L1968.09 1274.28 L1972.3 1274.28 Q1975.75 1274.28 1977.58 1272.92 Q1979.41 1271.53 1979.41 1268.93 Q1979.41 1266.27 1977.51 1264.86 Q1975.63 1263.42 1972.12 1263.42 Q1970.19 1263.42 1968 1263.84 Q1965.8 1264.26 1963.16 1265.14 L1963.16 1260.97 Q1965.82 1260.23 1968.13 1259.86 Q1970.47 1259.49 1972.53 1259.49 Q1977.86 1259.49 1980.96 1261.92 Q1984.06 1264.33 1984.06 1268.45 Q1984.06 1271.32 1982.42 1273.31 Q1980.77 1275.28 1977.74 1276.04 Z" fill="#000000" fill-rule="nonzero" fill-opacity="1" /><path clip-path="url(#clip040)" d="M1993.74 1288.8 L1998.62 1288.8 L1998.62 1294.67 L1993.74 1294.67 L1993.74 1288.8 Z" fill="#000000" fill-rule="nonzero" fill-opacity="1" /><path clip-path="url(#clip040)" d="M2009.62 1290.74 L2017.25 1290.74 L2017.25 1264.37 L2008.94 1266.04 L2008.94 1261.78 L2017.21 1260.11 L2021.88 1260.11 L2021.88 1290.74 L2029.52 1290.74 L2029.52 1294.67 L2009.62 1294.67 L2009.62 1290.74 Z" fill="#000000" fill-rule="nonzero" fill-opacity="1" /><path clip-path="url(#clip040)" d="M2048.97 1263.19 Q2045.36 1263.19 2043.53 1266.76 Q2041.72 1270.3 2041.72 1277.43 Q2041.72 1284.54 2043.53 1288.1 Q2045.36 1291.64 2048.97 1291.64 Q2052.6 1291.64 2054.41 1288.1 Q2056.24 1284.54 2056.24 1277.43 Q2056.24 1270.3 2054.41 1266.76 Q2052.6 1263.19 2048.97 1263.19 M2048.97 1259.49 Q2054.78 1259.49 2057.83 1264.1 Q2060.91 1268.68 2060.91 1277.43 Q2060.91 1286.16 2057.83 1290.76 Q2054.78 1295.35 2048.97 1295.35 Q2043.16 1295.35 2040.08 1290.76 Q2037.02 1286.16 2037.02 1277.43 Q2037.02 1268.68 2040.08 1264.1 Q2043.16 1259.49 2048.97 1259.49 Z" fill="#000000" fill-rule="nonzero" fill-opacity="1" /><polyline clip-path="url(#clip040)" style="stroke:#000000; stroke-linecap:round; stroke-linejoin:round; stroke-width:4; stroke-opacity:1; fill:none" points="183.533,1234.58 183.533,47.2441 "/>
<polyline clip-path="url(#clip040)" style="stroke:#000000; stroke-linecap:round; stroke-linejoin:round; stroke-width:4; stroke-opacity:1; fill:none" points="183.533,1116.97 202.431,1116.97 "/>
<polyline clip-path="url(#clip040)" style="stroke:#000000; stroke-linecap:round; stroke-linejoin:round; stroke-width:4; stroke-opacity:1; fill:none" points="183.533,883.606 202.431,883.606 "/>
<polyline clip-path="url(#clip040)" style="stroke:#000000; stroke-linecap:round; stroke-linejoin:round; stroke-width:4; stroke-opacity:1; fill:none" points="183.533,650.246 202.431,650.246 "/>
<polyline clip-path="url(#clip040)" style="stroke:#000000; stroke-linecap:round; stroke-linejoin:round; stroke-width:4; stroke-opacity:1; fill:none" points="183.533,416.886 202.431,416.886 "/>
<polyline clip-path="url(#clip040)" style="stroke:#000000; stroke-linecap:round; stroke-linejoin:round; stroke-width:4; stroke-opacity:1; fill:none" points="183.533,183.526 202.431,183.526 "/>
<path clip-path="url(#clip040)" d="M64.5154 1117.83 Q61.1821 1117.83 59.2608 1119.62 Q57.3627 1121.4 57.3627 1124.52 Q57.3627 1127.65 59.2608 1129.43 Q61.1821 1131.21 64.5154 1131.21 Q67.8487 1131.21 69.77 1129.43 Q71.6913 1127.63 71.6913 1124.52 Q71.6913 1121.4 69.77 1119.62 Q67.8719 1117.83 64.5154 1117.83 M59.8395 1115.84 Q56.8303 1115.1 55.1404 1113.04 Q53.4738 1110.98 53.4738 1108.02 Q53.4738 1103.88 56.4136 1101.47 Q59.3765 1099.06 64.5154 1099.06 Q69.6774 1099.06 72.6172 1101.47 Q75.557 1103.88 75.557 1108.02 Q75.557 1110.98 73.8672 1113.04 Q72.2005 1115.1 69.2144 1115.84 Q72.5941 1116.63 74.469 1118.92 Q76.3672 1121.21 76.3672 1124.52 Q76.3672 1129.55 73.2885 1132.23 Q70.233 1134.92 64.5154 1134.92 Q58.7978 1134.92 55.7191 1132.23 Q52.6636 1129.55 52.6636 1124.52 Q52.6636 1121.21 54.5617 1118.92 Q56.4599 1116.63 59.8395 1115.84 M58.1265 1108.46 Q58.1265 1111.14 59.7932 1112.65 Q61.483 1114.15 64.5154 1114.15 Q67.5246 1114.15 69.2144 1112.65 Q70.9274 1111.14 70.9274 1108.46 Q70.9274 1105.77 69.2144 1104.27 Q67.5246 1102.76 64.5154 1102.76 Q61.483 1102.76 59.7932 1104.27 Q58.1265 1105.77 58.1265 1108.46 Z" fill="#000000" fill-rule="nonzero" fill-opacity="1" /><path clip-path="url(#clip040)" d="M84.6773 1128.37 L89.5616 1128.37 L89.5616 1134.25 L84.6773 1134.25 L84.6773 1128.37 Z" fill="#000000" fill-rule="nonzero" fill-opacity="1" /><path clip-path="url(#clip040)" d="M99.793 1099.69 L118.149 1099.69 L118.149 1103.62 L104.075 1103.62 L104.075 1112.09 Q105.094 1111.75 106.112 1111.58 Q107.131 1111.4 108.149 1111.4 Q113.936 1111.4 117.316 1114.57 Q120.696 1117.74 120.696 1123.16 Q120.696 1128.74 117.223 1131.84 Q113.751 1134.92 107.432 1134.92 Q105.256 1134.92 102.987 1134.55 Q100.742 1134.18 98.3347 1133.44 L98.3347 1128.74 Q100.418 1129.87 102.64 1130.43 Q104.862 1130.98 107.339 1130.98 Q111.344 1130.98 113.682 1128.88 Q116.02 1126.77 116.02 1123.16 Q116.02 1119.55 113.682 1117.44 Q111.344 1115.33 107.339 1115.33 Q105.464 1115.33 103.589 1115.75 Q101.737 1116.17 99.793 1117.05 L99.793 1099.69 Z" fill="#000000" fill-rule="nonzero" fill-opacity="1" /><path clip-path="url(#clip040)" d="M139.909 1102.76 Q136.297 1102.76 134.469 1106.33 Q132.663 1109.87 132.663 1117 Q132.663 1124.11 134.469 1127.67 Q136.297 1131.21 139.909 1131.21 Q143.543 1131.21 145.348 1127.67 Q147.177 1124.11 147.177 1117 Q147.177 1109.87 145.348 1106.33 Q143.543 1102.76 139.909 1102.76 M139.909 1099.06 Q145.719 1099.06 148.774 1103.67 Q151.853 1108.25 151.853 1117 Q151.853 1125.73 148.774 1130.33 Q145.719 1134.92 139.909 1134.92 Q134.098 1134.92 131.02 1130.33 Q127.964 1125.73 127.964 1117 Q127.964 1108.25 131.02 1103.67 Q134.098 1099.06 139.909 1099.06 Z" fill="#000000" fill-rule="nonzero" fill-opacity="1" /><path clip-path="url(#clip040)" d="M65.5108 884.474 Q62.1774 884.474 60.2562 886.256 Q58.358 888.038 58.358 891.163 Q58.358 894.288 60.2562 896.071 Q62.1774 897.853 65.5108 897.853 Q68.8441 897.853 70.7654 896.071 Q72.6866 894.265 72.6866 891.163 Q72.6866 888.038 70.7654 886.256 Q68.8672 884.474 65.5108 884.474 M60.8349 882.483 Q57.8256 881.742 56.1358 879.682 Q54.4692 877.622 54.4692 874.659 Q54.4692 870.515 57.409 868.108 Q60.3719 865.701 65.5108 865.701 Q70.6728 865.701 73.6126 868.108 Q76.5524 870.515 76.5524 874.659 Q76.5524 877.622 74.8626 879.682 Q73.1959 881.742 70.2098 882.483 Q73.5894 883.27 75.4644 885.562 Q77.3625 887.853 77.3625 891.163 Q77.3625 896.187 74.2839 898.872 Q71.2283 901.557 65.5108 901.557 Q59.7932 901.557 56.7145 898.872 Q53.659 896.187 53.659 891.163 Q53.659 887.853 55.5571 885.562 Q57.4552 883.27 60.8349 882.483 M59.1219 875.099 Q59.1219 877.784 60.7886 879.289 Q62.4784 880.793 65.5108 880.793 Q68.52 880.793 70.2098 879.289 Q71.9228 877.784 71.9228 875.099 Q71.9228 872.414 70.2098 870.909 Q68.52 869.404 65.5108 869.404 Q62.4784 869.404 60.7886 870.909 Q59.1219 872.414 59.1219 875.099 Z" fill="#000000" fill-rule="nonzero" fill-opacity="1" /><path clip-path="url(#clip040)" d="M85.6727 895.006 L90.5569 895.006 L90.5569 900.886 L85.6727 900.886 L85.6727 895.006 Z" fill="#000000" fill-rule="nonzero" fill-opacity="1" /><path clip-path="url(#clip040)" d="M99.5615 866.326 L121.784 866.326 L121.784 868.316 L109.237 900.886 L104.353 900.886 L116.159 870.261 L99.5615 870.261 L99.5615 866.326 Z" fill="#000000" fill-rule="nonzero" fill-opacity="1" /><path clip-path="url(#clip040)" d="M130.95 866.326 L149.307 866.326 L149.307 870.261 L135.233 870.261 L135.233 878.733 Q136.251 878.386 137.27 878.224 Q138.288 878.039 139.307 878.039 Q145.094 878.039 148.473 881.21 Q151.853 884.381 151.853 889.798 Q151.853 895.376 148.381 898.478 Q144.908 901.557 138.589 901.557 Q136.413 901.557 134.145 901.187 Q131.899 900.816 129.492 900.075 L129.492 895.376 Q131.575 896.511 133.797 897.066 Q136.02 897.622 138.496 897.622 Q142.501 897.622 144.839 895.515 Q147.177 893.409 147.177 889.798 Q147.177 886.187 144.839 884.08 Q142.501 881.974 138.496 881.974 Q136.621 881.974 134.746 882.39 Q132.895 882.807 130.95 883.687 L130.95 866.326 Z" fill="#000000" fill-rule="nonzero" fill-opacity="1" /><path clip-path="url(#clip040)" d="M54.6543 666.808 L54.6543 662.549 Q56.4136 663.382 58.2191 663.822 Q60.0247 664.262 61.7608 664.262 Q66.3904 664.262 68.8209 661.16 Q71.2746 658.035 71.6218 651.693 Q70.2793 653.683 68.2191 654.748 Q66.1589 655.813 63.6589 655.813 Q58.4738 655.813 55.4414 652.688 Q52.4321 649.54 52.4321 644.1 Q52.4321 638.776 55.5803 635.558 Q58.7284 632.341 63.9598 632.341 Q69.9552 632.341 73.1033 636.947 Q76.2746 641.531 76.2746 650.281 Q76.2746 658.452 72.3857 663.336 Q68.52 668.197 61.9691 668.197 Q60.2099 668.197 58.4043 667.85 Q56.5988 667.503 54.6543 666.808 M63.9598 652.156 Q67.108 652.156 68.9367 650.003 Q70.7885 647.85 70.7885 644.1 Q70.7885 640.373 68.9367 638.22 Q67.108 636.045 63.9598 636.045 Q60.8117 636.045 58.9599 638.22 Q57.1312 640.373 57.1312 644.1 Q57.1312 647.85 58.9599 650.003 Q60.8117 652.156 63.9598 652.156 Z" fill="#000000" fill-rule="nonzero" fill-opacity="1" /><path clip-path="url(#clip040)" d="M84.6773 661.646 L89.5616 661.646 L89.5616 667.526 L84.6773 667.526 L84.6773 661.646 Z" fill="#000000" fill-rule="nonzero" fill-opacity="1" /><path clip-path="url(#clip040)" d="M109.747 636.045 Q106.136 636.045 104.307 639.609 Q102.501 643.151 102.501 650.281 Q102.501 657.387 104.307 660.952 Q106.136 664.493 109.747 664.493 Q113.381 664.493 115.186 660.952 Q117.015 657.387 117.015 650.281 Q117.015 643.151 115.186 639.609 Q113.381 636.045 109.747 636.045 M109.747 632.341 Q115.557 632.341 118.612 636.947 Q121.691 641.531 121.691 650.281 Q121.691 659.007 118.612 663.614 Q115.557 668.197 109.747 668.197 Q103.936 668.197 100.858 663.614 Q97.8023 659.007 97.8023 650.281 Q97.8023 641.531 100.858 636.947 Q103.936 632.341 109.747 632.341 Z" fill="#000000" fill-rule="nonzero" fill-opacity="1" /><path clip-path="url(#clip040)" d="M139.909 636.045 Q136.297 636.045 134.469 639.609 Q132.663 643.151 132.663 650.281 Q132.663 657.387 134.469 660.952 Q136.297 664.493 139.909 664.493 Q143.543 664.493 145.348 660.952 Q147.177 657.387 147.177 650.281 Q147.177 643.151 145.348 639.609 Q143.543 636.045 139.909 636.045 M139.909 632.341 Q145.719 632.341 148.774 636.947 Q151.853 641.531 151.853 650.281 Q151.853 659.007 148.774 663.614 Q145.719 668.197 139.909 668.197 Q134.098 668.197 131.02 663.614 Q127.964 659.007 127.964 650.281 Q127.964 641.531 131.02 636.947 Q134.098 632.341 139.909 632.341 Z" fill="#000000" fill-rule="nonzero" fill-opacity="1" /><path clip-path="url(#clip040)" d="M55.6497 433.448 L55.6497 429.189 Q57.409 430.023 59.2145 430.462 Q61.02 430.902 62.7561 430.902 Q67.3857 430.902 69.8163 427.8 Q72.27 424.675 72.6172 418.333 Q71.2746 420.324 69.2144 421.388 Q67.1543 422.453 64.6543 422.453 Q59.4691 422.453 56.4367 419.328 Q53.4275 416.18 53.4275 410.74 Q53.4275 405.416 56.5756 402.199 Q59.7238 398.981 64.9552 398.981 Q70.9505 398.981 74.0987 403.587 Q77.27 408.171 77.27 416.921 Q77.27 425.092 73.3811 429.976 Q69.5154 434.837 62.9645 434.837 Q61.2052 434.837 59.3997 434.49 Q57.5941 434.143 55.6497 433.448 M64.9552 418.796 Q68.1033 418.796 69.932 416.643 Q71.7839 414.49 71.7839 410.74 Q71.7839 407.013 69.932 404.861 Q68.1033 402.685 64.9552 402.685 Q61.8071 402.685 59.9552 404.861 Q58.1265 407.013 58.1265 410.74 Q58.1265 414.49 59.9552 416.643 Q61.8071 418.796 64.9552 418.796 Z" fill="#000000" fill-rule="nonzero" fill-opacity="1" /><path clip-path="url(#clip040)" d="M85.6727 428.286 L90.5569 428.286 L90.5569 434.166 L85.6727 434.166 L85.6727 428.286 Z" fill="#000000" fill-rule="nonzero" fill-opacity="1" /><path clip-path="url(#clip040)" d="M104.77 430.231 L121.089 430.231 L121.089 434.166 L99.1448 434.166 L99.1448 430.231 Q101.807 427.476 106.39 422.847 Q110.997 418.194 112.177 416.851 Q114.423 414.328 115.302 412.592 Q116.205 410.833 116.205 409.143 Q116.205 406.388 114.26 404.652 Q112.339 402.916 109.237 402.916 Q107.038 402.916 104.585 403.68 Q102.154 404.444 99.3763 405.995 L99.3763 401.273 Q102.2 400.138 104.654 399.56 Q107.108 398.981 109.145 398.981 Q114.515 398.981 117.71 401.666 Q120.904 404.351 120.904 408.842 Q120.904 410.972 120.094 412.893 Q119.307 414.791 117.2 417.384 Q116.622 418.055 113.52 421.273 Q110.418 424.467 104.77 430.231 Z" fill="#000000" fill-rule="nonzero" fill-opacity="1" /><path clip-path="url(#clip040)" d="M130.95 399.606 L149.307 399.606 L149.307 403.541 L135.233 403.541 L135.233 412.013 Q136.251 411.666 137.27 411.504 Q138.288 411.319 139.307 411.319 Q145.094 411.319 148.473 414.49 Q151.853 417.661 151.853 423.078 Q151.853 428.657 148.381 431.759 Q144.908 434.837 138.589 434.837 Q136.413 434.837 134.145 434.467 Q131.899 434.097 129.492 433.356 L129.492 428.657 Q131.575 429.791 133.797 430.347 Q136.02 430.902 138.496 430.902 Q142.501 430.902 144.839 428.796 Q147.177 426.689 147.177 423.078 Q147.177 419.467 144.839 417.361 Q142.501 415.254 138.496 415.254 Q136.621 415.254 134.746 415.671 Q132.895 416.087 130.95 416.967 L130.95 399.606 Z" fill="#000000" fill-rule="nonzero" fill-opacity="1" /><path clip-path="url(#clip040)" d="M54.6543 200.089 L54.6543 195.829 Q56.4136 196.663 58.2191 197.103 Q60.0247 197.542 61.7608 197.542 Q66.3904 197.542 68.8209 194.441 Q71.2746 191.316 71.6218 184.973 Q70.2793 186.964 68.2191 188.029 Q66.1589 189.093 63.6589 189.093 Q58.4738 189.093 55.4414 185.968 Q52.4321 182.82 52.4321 177.38 Q52.4321 172.056 55.5803 168.839 Q58.7284 165.621 63.9598 165.621 Q69.9552 165.621 73.1033 170.228 Q76.2746 174.811 76.2746 183.561 Q76.2746 191.732 72.3857 196.616 Q68.52 201.478 61.9691 201.478 Q60.2099 201.478 58.4043 201.13 Q56.5988 200.783 54.6543 200.089 M63.9598 185.436 Q67.108 185.436 68.9367 183.283 Q70.7885 181.13 70.7885 177.38 Q70.7885 173.654 68.9367 171.501 Q67.108 169.325 63.9598 169.325 Q60.8117 169.325 58.9599 171.501 Q57.1312 173.654 57.1312 177.38 Q57.1312 181.13 58.9599 183.283 Q60.8117 185.436 63.9598 185.436 Z" fill="#000000" fill-rule="nonzero" fill-opacity="1" /><path clip-path="url(#clip040)" d="M84.6773 194.927 L89.5616 194.927 L89.5616 200.806 L84.6773 200.806 L84.6773 194.927 Z" fill="#000000" fill-rule="nonzero" fill-opacity="1" /><path clip-path="url(#clip040)" d="M99.793 166.246 L118.149 166.246 L118.149 170.181 L104.075 170.181 L104.075 178.654 Q105.094 178.306 106.112 178.144 Q107.131 177.959 108.149 177.959 Q113.936 177.959 117.316 181.13 Q120.696 184.302 120.696 189.718 Q120.696 195.297 117.223 198.399 Q113.751 201.478 107.432 201.478 Q105.256 201.478 102.987 201.107 Q100.742 200.737 98.3347 199.996 L98.3347 195.297 Q100.418 196.431 102.64 196.987 Q104.862 197.542 107.339 197.542 Q111.344 197.542 113.682 195.436 Q116.02 193.329 116.02 189.718 Q116.02 186.107 113.682 184.001 Q111.344 181.894 107.339 181.894 Q105.464 181.894 103.589 182.311 Q101.737 182.728 99.793 183.607 L99.793 166.246 Z" fill="#000000" fill-rule="nonzero" fill-opacity="1" /><path clip-path="url(#clip040)" d="M139.909 169.325 Q136.297 169.325 134.469 172.89 Q132.663 176.431 132.663 183.561 Q132.663 190.667 134.469 194.232 Q136.297 197.774 139.909 197.774 Q143.543 197.774 145.348 194.232 Q147.177 190.667 147.177 183.561 Q147.177 176.431 145.348 172.89 Q143.543 169.325 139.909 169.325 M139.909 165.621 Q145.719 165.621 148.774 170.228 Q151.853 174.811 151.853 183.561 Q151.853 192.288 148.774 196.894 Q145.719 201.478 139.909 201.478 Q134.098 201.478 131.02 196.894 Q127.964 192.288 127.964 183.561 Q127.964 174.811 131.02 170.228 Q134.098 165.621 139.909 165.621 Z" fill="#000000" fill-rule="nonzero" fill-opacity="1" /><circle clip-path="url(#clip042)" cx="2011.51" cy="80.8479" r="14.4" fill="#009af9" fill-rule="evenodd" fill-opacity="1" stroke="#000000" stroke-opacity="1" stroke-width="2.688"/>
<circle clip-path="url(#clip042)" cx="1567.83" cy="367.88" r="14.4" fill="#009af9" fill-rule="evenodd" fill-opacity="1" stroke="#000000" stroke-opacity="1" stroke-width="2.688"/>
<circle clip-path="url(#clip042)" cx="1419.93" cy="462.521" r="14.4" fill="#009af9" fill-rule="evenodd" fill-opacity="1" stroke="#000000" stroke-opacity="1" stroke-width="2.688"/>
<circle clip-path="url(#clip042)" cx="1345.99" cy="509.647" r="14.4" fill="#009af9" fill-rule="evenodd" fill-opacity="1" stroke="#000000" stroke-opacity="1" stroke-width="2.688"/>
<circle clip-path="url(#clip042)" cx="1301.62" cy="537.86" r="14.4" fill="#009af9" fill-rule="evenodd" fill-opacity="1" stroke="#000000" stroke-opacity="1" stroke-width="2.688"/>
<circle clip-path="url(#clip042)" cx="1272.04" cy="556.643" r="14.4" fill="#009af9" fill-rule="evenodd" fill-opacity="1" stroke="#000000" stroke-opacity="1" stroke-width="2.688"/>
<circle clip-path="url(#clip042)" cx="1250.91" cy="570.046" r="14.4" fill="#009af9" fill-rule="evenodd" fill-opacity="1" stroke="#000000" stroke-opacity="1" stroke-width="2.688"/>
<circle clip-path="url(#clip042)" cx="1235.07" cy="580.092" r="14.4" fill="#009af9" fill-rule="evenodd" fill-opacity="1" stroke="#000000" stroke-opacity="1" stroke-width="2.688"/>
<circle clip-path="url(#clip042)" cx="1222.74" cy="587.901" r="14.4" fill="#009af9" fill-rule="evenodd" fill-opacity="1" stroke="#000000" stroke-opacity="1" stroke-width="2.688"/>
<circle clip-path="url(#clip042)" cx="1212.88" cy="594.146" r="14.4" fill="#009af9" fill-rule="evenodd" fill-opacity="1" stroke="#000000" stroke-opacity="1" stroke-width="2.688"/>
<circle clip-path="url(#clip042)" cx="236.775" cy="1200.97" r="14.4" fill="#e26f46" fill-rule="evenodd" fill-opacity="1" stroke="#000000" stroke-opacity="1" stroke-width="2.688"/>
<circle clip-path="url(#clip042)" cx="680.46" cy="927.944" r="14.4" fill="#e26f46" fill-rule="evenodd" fill-opacity="1" stroke="#000000" stroke-opacity="1" stroke-width="2.688"/>
<circle clip-path="url(#clip042)" cx="828.355" cy="835.897" r="14.4" fill="#e26f46" fill-rule="evenodd" fill-opacity="1" stroke="#000000" stroke-opacity="1" stroke-width="2.688"/>
<circle clip-path="url(#clip042)" cx="902.302" cy="789.678" r="14.4" fill="#e26f46" fill-rule="evenodd" fill-opacity="1" stroke="#000000" stroke-opacity="1" stroke-width="2.688"/>
<circle clip-path="url(#clip042)" cx="946.671" cy="761.885" r="14.4" fill="#e26f46" fill-rule="evenodd" fill-opacity="1" stroke="#000000" stroke-opacity="1" stroke-width="2.688"/>
<circle clip-path="url(#clip042)" cx="976.25" cy="743.33" r="14.4" fill="#e26f46" fill-rule="evenodd" fill-opacity="1" stroke="#000000" stroke-opacity="1" stroke-width="2.688"/>
<circle clip-path="url(#clip042)" cx="997.377" cy="730.064" r="14.4" fill="#e26f46" fill-rule="evenodd" fill-opacity="1" stroke="#000000" stroke-opacity="1" stroke-width="2.688"/>
<circle clip-path="url(#clip042)" cx="1013.22" cy="720.108" r="14.4" fill="#e26f46" fill-rule="evenodd" fill-opacity="1" stroke="#000000" stroke-opacity="1" stroke-width="2.688"/>
<circle clip-path="url(#clip042)" cx="1025.55" cy="712.36" r="14.4" fill="#e26f46" fill-rule="evenodd" fill-opacity="1" stroke="#000000" stroke-opacity="1" stroke-width="2.688"/>
<circle clip-path="url(#clip042)" cx="1035.41" cy="706.159" r="14.4" fill="#e26f46" fill-rule="evenodd" fill-opacity="1" stroke="#000000" stroke-opacity="1" stroke-width="2.688"/>
<path clip-path="url(#clip040)" d="M246.24 242.342 L1137.3 242.342 L1137.3 86.8219 L246.24 86.8219  Z" fill="#ffffff" fill-rule="evenodd" fill-opacity="1"/>
<polyline clip-path="url(#clip040)" style="stroke:#000000; stroke-linecap:round; stroke-linejoin:round; stroke-width:4; stroke-opacity:1; fill:none" points="246.24,242.342 1137.3,242.342 1137.3,86.8219 246.24,86.8219 246.24,242.342 "/>
<circle clip-path="url(#clip040)" cx="329.85" cy="138.662" r="20.48" fill="#009af9" fill-rule="evenodd" fill-opacity="1" stroke="#000000" stroke-opacity="1" stroke-width="3.82293"/>
<path clip-path="url(#clip040)" d="M429.293 125.988 L422.951 143.187 L435.659 143.187 L429.293 125.988 M426.655 121.382 L431.955 121.382 L445.127 155.942 L440.266 155.942 L437.117 147.076 L421.539 147.076 L418.391 155.942 L413.46 155.942 L426.655 121.382 Z" fill="#000000" fill-rule="nonzero" fill-opacity="1" /><path clip-path="url(#clip040)" d="M454.108 152.053 L454.108 165.803 L449.826 165.803 L449.826 130.016 L454.108 130.016 L454.108 133.951 Q455.451 131.636 457.488 130.525 Q459.548 129.391 462.395 129.391 Q467.117 129.391 470.057 133.141 Q473.02 136.891 473.02 143.002 Q473.02 149.113 470.057 152.863 Q467.117 156.613 462.395 156.613 Q459.548 156.613 457.488 155.502 Q455.451 154.368 454.108 152.053 M468.599 143.002 Q468.599 138.303 466.654 135.641 Q464.733 132.956 461.353 132.956 Q457.974 132.956 456.029 135.641 Q454.108 138.303 454.108 143.002 Q454.108 147.701 456.029 150.386 Q457.974 153.048 461.353 153.048 Q464.733 153.048 466.654 150.386 Q468.599 147.701 468.599 143.002 Z" fill="#000000" fill-rule="nonzero" fill-opacity="1" /><path clip-path="url(#clip040)" d="M495.103 133.998 Q494.386 133.581 493.529 133.396 Q492.696 133.187 491.677 133.187 Q488.066 133.187 486.122 135.549 Q484.201 137.886 484.201 142.285 L484.201 155.942 L479.918 155.942 L479.918 130.016 L484.201 130.016 L484.201 134.044 Q485.543 131.683 487.696 130.549 Q489.849 129.391 492.927 129.391 Q493.367 129.391 493.9 129.461 Q494.432 129.507 495.08 129.623 L495.103 133.998 Z" fill="#000000" fill-rule="nonzero" fill-opacity="1" /><path clip-path="url(#clip040)" d="M508.575 133.002 Q505.149 133.002 503.159 135.687 Q501.168 138.349 501.168 143.002 Q501.168 147.655 503.136 150.34 Q505.126 153.002 508.575 153.002 Q511.978 153.002 513.969 150.317 Q515.96 147.632 515.96 143.002 Q515.96 138.396 513.969 135.711 Q511.978 133.002 508.575 133.002 M508.575 129.391 Q514.131 129.391 517.302 133.002 Q520.473 136.613 520.473 143.002 Q520.473 149.368 517.302 153.002 Q514.131 156.613 508.575 156.613 Q502.997 156.613 499.825 153.002 Q496.677 149.368 496.677 143.002 Q496.677 136.613 499.825 133.002 Q502.997 129.391 508.575 129.391 Z" fill="#000000" fill-rule="nonzero" fill-opacity="1" /><path clip-path="url(#clip040)" d="M547.626 130.016 L538.251 142.632 L548.112 155.942 L543.089 155.942 L535.543 145.757 L527.997 155.942 L522.973 155.942 L533.043 142.377 L523.83 130.016 L528.853 130.016 L535.728 139.252 L542.603 130.016 L547.626 130.016 Z" fill="#000000" fill-rule="nonzero" fill-opacity="1" /><path clip-path="url(#clip040)" d="M554.131 130.016 L558.39 130.016 L558.39 155.942 L554.131 155.942 L554.131 130.016 M554.131 119.924 L558.39 119.924 L558.39 125.317 L554.131 125.317 L554.131 119.924 Z" fill="#000000" fill-rule="nonzero" fill-opacity="1" /><path clip-path="url(#clip040)" d="M587.487 134.993 Q589.084 132.123 591.306 130.757 Q593.529 129.391 596.538 129.391 Q600.589 129.391 602.788 132.238 Q604.987 135.062 604.987 140.294 L604.987 155.942 L600.705 155.942 L600.705 140.433 Q600.705 136.706 599.385 134.9 Q598.066 133.095 595.357 133.095 Q592.047 133.095 590.126 135.294 Q588.205 137.493 588.205 141.289 L588.205 155.942 L583.922 155.942 L583.922 140.433 Q583.922 136.683 582.603 134.9 Q581.283 133.095 578.529 133.095 Q575.265 133.095 573.344 135.317 Q571.422 137.516 571.422 141.289 L571.422 155.942 L567.14 155.942 L567.14 130.016 L571.422 130.016 L571.422 134.044 Q572.881 131.66 574.918 130.525 Q576.955 129.391 579.756 129.391 Q582.58 129.391 584.547 130.826 Q586.538 132.261 587.487 134.993 Z" fill="#000000" fill-rule="nonzero" fill-opacity="1" /><path clip-path="url(#clip040)" d="M625.265 142.91 Q620.103 142.91 618.112 144.09 Q616.121 145.271 616.121 148.118 Q616.121 150.386 617.603 151.729 Q619.107 153.048 621.677 153.048 Q625.218 153.048 627.348 150.548 Q629.501 148.025 629.501 143.859 L629.501 142.91 L625.265 142.91 M633.76 141.15 L633.76 155.942 L629.501 155.942 L629.501 152.007 Q628.042 154.368 625.866 155.502 Q623.691 156.613 620.542 156.613 Q616.561 156.613 614.2 154.391 Q611.862 152.146 611.862 148.396 Q611.862 144.021 614.779 141.798 Q617.718 139.576 623.528 139.576 L629.501 139.576 L629.501 139.16 Q629.501 136.22 627.556 134.623 Q625.635 133.002 622.14 133.002 Q619.917 133.002 617.811 133.535 Q615.704 134.067 613.76 135.132 L613.76 131.197 Q616.098 130.294 618.297 129.854 Q620.496 129.391 622.579 129.391 Q628.204 129.391 630.982 132.308 Q633.76 135.224 633.76 141.15 Z" fill="#000000" fill-rule="nonzero" fill-opacity="1" /><path clip-path="url(#clip040)" d="M661.19 131.011 L661.19 134.993 Q659.385 133.998 657.556 133.511 Q655.751 133.002 653.899 133.002 Q649.755 133.002 647.464 135.641 Q645.172 138.257 645.172 143.002 Q645.172 147.748 647.464 150.386 Q649.755 153.002 653.899 153.002 Q655.751 153.002 657.556 152.516 Q659.385 152.007 661.19 151.011 L661.19 154.947 Q659.408 155.78 657.487 156.197 Q655.588 156.613 653.436 156.613 Q647.579 156.613 644.13 152.933 Q640.681 149.252 640.681 143.002 Q640.681 136.66 644.153 133.025 Q647.649 129.391 653.713 129.391 Q655.681 129.391 657.556 129.808 Q659.431 130.201 661.19 131.011 Z" fill="#000000" fill-rule="nonzero" fill-opacity="1" /><path clip-path="url(#clip040)" d="M668.598 130.016 L672.857 130.016 L672.857 155.942 L668.598 155.942 L668.598 130.016 M668.598 119.924 L672.857 119.924 L672.857 125.317 L668.598 125.317 L668.598 119.924 Z" fill="#000000" fill-rule="nonzero" fill-opacity="1" /><path clip-path="url(#clip040)" d="M691.815 133.002 Q688.389 133.002 686.398 135.687 Q684.408 138.349 684.408 143.002 Q684.408 147.655 686.375 150.34 Q688.366 153.002 691.815 153.002 Q695.218 153.002 697.209 150.317 Q699.199 147.632 699.199 143.002 Q699.199 138.396 697.209 135.711 Q695.218 133.002 691.815 133.002 M691.815 129.391 Q697.371 129.391 700.542 133.002 Q703.713 136.613 703.713 143.002 Q703.713 149.368 700.542 153.002 Q697.371 156.613 691.815 156.613 Q686.236 156.613 683.065 153.002 Q679.917 149.368 679.917 143.002 Q679.917 136.613 683.065 133.002 Q686.236 129.391 691.815 129.391 M695.033 118.025 L699.639 118.025 L692.093 126.729 L688.551 126.729 L695.033 118.025 Z" fill="#000000" fill-rule="nonzero" fill-opacity="1" /><path clip-path="url(#clip040)" d="M732.324 140.294 L732.324 155.942 L728.065 155.942 L728.065 140.433 Q728.065 136.752 726.63 134.924 Q725.195 133.095 722.324 133.095 Q718.875 133.095 716.884 135.294 Q714.894 137.493 714.894 141.289 L714.894 155.942 L710.611 155.942 L710.611 130.016 L714.894 130.016 L714.894 134.044 Q716.421 131.706 718.482 130.549 Q720.565 129.391 723.273 129.391 Q727.741 129.391 730.033 132.169 Q732.324 134.924 732.324 140.294 Z" fill="#000000" fill-rule="nonzero" fill-opacity="1" /><path clip-path="url(#clip040)" d="M760.009 152.053 L760.009 165.803 L755.727 165.803 L755.727 130.016 L760.009 130.016 L760.009 133.951 Q761.352 131.636 763.389 130.525 Q765.449 129.391 768.296 129.391 Q773.018 129.391 775.958 133.141 Q778.921 136.891 778.921 143.002 Q778.921 149.113 775.958 152.863 Q773.018 156.613 768.296 156.613 Q765.449 156.613 763.389 155.502 Q761.352 154.368 760.009 152.053 M774.5 143.002 Q774.5 138.303 772.555 135.641 Q770.634 132.956 767.255 132.956 Q763.875 132.956 761.931 135.641 Q760.009 138.303 760.009 143.002 Q760.009 147.701 761.931 150.386 Q763.875 153.048 767.255 153.048 Q770.634 153.048 772.555 150.386 Q774.5 147.701 774.5 143.002 Z" fill="#000000" fill-rule="nonzero" fill-opacity="1" /><path clip-path="url(#clip040)" d="M796.028 133.002 Q792.602 133.002 790.611 135.687 Q788.62 138.349 788.62 143.002 Q788.62 147.655 790.588 150.34 Q792.578 153.002 796.028 153.002 Q799.43 153.002 801.421 150.317 Q803.412 147.632 803.412 143.002 Q803.412 138.396 801.421 135.711 Q799.43 133.002 796.028 133.002 M796.028 129.391 Q801.583 129.391 804.754 133.002 Q807.926 136.613 807.926 143.002 Q807.926 149.368 804.754 153.002 Q801.583 156.613 796.028 156.613 Q790.449 156.613 787.278 153.002 Q784.129 149.368 784.129 143.002 Q784.129 136.613 787.278 133.002 Q790.449 129.391 796.028 129.391 Z" fill="#000000" fill-rule="nonzero" fill-opacity="1" /><path clip-path="url(#clip040)" d="M830.009 133.998 Q829.291 133.581 828.435 133.396 Q827.601 133.187 826.583 133.187 Q822.972 133.187 821.027 135.549 Q819.106 137.886 819.106 142.285 L819.106 155.942 L814.824 155.942 L814.824 130.016 L819.106 130.016 L819.106 134.044 Q820.449 131.683 822.601 130.549 Q824.754 129.391 827.833 129.391 Q828.273 129.391 828.805 129.461 Q829.338 129.507 829.986 129.623 L830.009 133.998 Z" fill="#000000" fill-rule="nonzero" fill-opacity="1" /><path clip-path="url(#clip040)" d="M849.546 119.924 L853.805 119.924 L853.805 155.942 L849.546 155.942 L849.546 119.924 Z" fill="#000000" fill-rule="nonzero" fill-opacity="1" /><path clip-path="url(#clip040)" d="M874.499 142.91 Q869.337 142.91 867.347 144.09 Q865.356 145.271 865.356 148.118 Q865.356 150.386 866.837 151.729 Q868.342 153.048 870.911 153.048 Q874.453 153.048 876.583 150.548 Q878.735 148.025 878.735 143.859 L878.735 142.91 L874.499 142.91 M882.995 141.15 L882.995 155.942 L878.735 155.942 L878.735 152.007 Q877.277 154.368 875.101 155.502 Q872.925 156.613 869.777 156.613 Q865.796 156.613 863.435 154.391 Q861.097 152.146 861.097 148.396 Q861.097 144.021 864.013 141.798 Q866.953 139.576 872.763 139.576 L878.735 139.576 L878.735 139.16 Q878.735 136.22 876.791 134.623 Q874.87 133.002 871.374 133.002 Q869.152 133.002 867.046 133.535 Q864.939 134.067 862.995 135.132 L862.995 131.197 Q865.333 130.294 867.532 129.854 Q869.731 129.391 871.814 129.391 Q877.439 129.391 880.217 132.308 Q882.995 135.224 882.995 141.15 Z" fill="#000000" fill-rule="nonzero" fill-opacity="1" /><path clip-path="url(#clip040)" d="M923.897 133.951 L923.897 119.924 L928.156 119.924 L928.156 155.942 L923.897 155.942 L923.897 152.053 Q922.555 154.368 920.494 155.502 Q918.457 156.613 915.587 156.613 Q910.888 156.613 907.925 152.863 Q904.985 149.113 904.985 143.002 Q904.985 136.891 907.925 133.141 Q910.888 129.391 915.587 129.391 Q918.457 129.391 920.494 130.525 Q922.555 131.636 923.897 133.951 M909.383 143.002 Q909.383 147.701 911.305 150.386 Q913.249 153.048 916.629 153.048 Q920.008 153.048 921.953 150.386 Q923.897 147.701 923.897 143.002 Q923.897 138.303 921.953 135.641 Q920.008 132.956 916.629 132.956 Q913.249 132.956 911.305 135.641 Q909.383 138.303 909.383 143.002 Z" fill="#000000" fill-rule="nonzero" fill-opacity="1" /><path clip-path="url(#clip040)" d="M959.105 141.914 L959.105 143.998 L939.522 143.998 Q939.8 148.396 942.161 150.71 Q944.545 153.002 948.781 153.002 Q951.235 153.002 953.527 152.4 Q955.842 151.798 958.11 150.595 L958.11 154.622 Q955.818 155.595 953.411 156.104 Q951.004 156.613 948.527 156.613 Q942.323 156.613 938.689 153.002 Q935.078 149.391 935.078 143.234 Q935.078 136.868 938.504 133.141 Q941.953 129.391 947.786 129.391 Q953.017 129.391 956.05 132.771 Q959.105 136.127 959.105 141.914 M954.846 140.664 Q954.8 137.169 952.879 135.086 Q950.98 133.002 947.832 133.002 Q944.267 133.002 942.115 135.016 Q939.985 137.03 939.661 140.687 L954.846 140.664 Z" fill="#000000" fill-rule="nonzero" fill-opacity="1" /><path clip-path="url(#clip040)" d="M981.119 133.998 Q980.402 133.581 979.545 133.396 Q978.712 133.187 977.693 133.187 Q974.082 133.187 972.138 135.549 Q970.216 137.886 970.216 142.285 L970.216 155.942 L965.934 155.942 L965.934 130.016 L970.216 130.016 L970.216 134.044 Q971.559 131.683 973.712 130.549 Q975.865 129.391 978.943 129.391 Q979.383 129.391 979.915 129.461 Q980.448 129.507 981.096 129.623 L981.119 133.998 Z" fill="#000000" fill-rule="nonzero" fill-opacity="1" /><path clip-path="url(#clip040)" d="M1006.72 141.914 L1006.72 143.998 L987.138 143.998 Q987.415 148.396 989.777 150.71 Q992.161 153.002 996.397 153.002 Q998.851 153.002 1001.14 152.4 Q1003.46 151.798 1005.73 150.595 L1005.73 154.622 Q1003.43 155.595 1001.03 156.104 Q998.619 156.613 996.142 156.613 Q989.939 156.613 986.304 153.002 Q982.693 149.391 982.693 143.234 Q982.693 136.868 986.119 133.141 Q989.568 129.391 995.401 129.391 Q1000.63 129.391 1003.67 132.771 Q1006.72 136.127 1006.72 141.914 M1002.46 140.664 Q1002.42 137.169 1000.49 135.086 Q998.596 133.002 995.448 133.002 Q991.883 133.002 989.73 135.016 Q987.601 137.03 987.277 140.687 L1002.46 140.664 Z" fill="#000000" fill-rule="nonzero" fill-opacity="1" /><path clip-path="url(#clip040)" d="M1032.37 131.011 L1032.37 134.993 Q1030.56 133.998 1028.73 133.511 Q1026.93 133.002 1025.08 133.002 Q1020.93 133.002 1018.64 135.641 Q1016.35 138.257 1016.35 143.002 Q1016.35 147.748 1018.64 150.386 Q1020.93 153.002 1025.08 153.002 Q1026.93 153.002 1028.73 152.516 Q1030.56 152.007 1032.37 151.011 L1032.37 154.947 Q1030.59 155.78 1028.67 156.197 Q1026.77 156.613 1024.61 156.613 Q1018.76 156.613 1015.31 152.933 Q1011.86 149.252 1011.86 143.002 Q1011.86 136.66 1015.33 133.025 Q1018.83 129.391 1024.89 129.391 Q1026.86 129.391 1028.73 129.808 Q1030.61 130.201 1032.37 131.011 Z" fill="#000000" fill-rule="nonzero" fill-opacity="1" /><path clip-path="url(#clip040)" d="M1061.33 140.294 L1061.33 155.942 L1057.07 155.942 L1057.07 140.433 Q1057.07 136.752 1055.63 134.924 Q1054.2 133.095 1051.33 133.095 Q1047.88 133.095 1045.89 135.294 Q1043.9 137.493 1043.9 141.289 L1043.9 155.942 L1039.61 155.942 L1039.61 119.924 L1043.9 119.924 L1043.9 134.044 Q1045.42 131.706 1047.48 130.549 Q1049.57 129.391 1052.28 129.391 Q1056.74 129.391 1059.04 132.169 Q1061.33 134.924 1061.33 140.294 Z" fill="#000000" fill-rule="nonzero" fill-opacity="1" /><path clip-path="url(#clip040)" d="M1081.6 142.91 Q1076.44 142.91 1074.45 144.09 Q1072.46 145.271 1072.46 148.118 Q1072.46 150.386 1073.94 151.729 Q1075.45 153.048 1078.02 153.048 Q1081.56 153.048 1083.69 150.548 Q1085.84 148.025 1085.84 143.859 L1085.84 142.91 L1081.6 142.91 M1090.1 141.15 L1090.1 155.942 L1085.84 155.942 L1085.84 152.007 Q1084.38 154.368 1082.21 155.502 Q1080.03 156.613 1076.88 156.613 Q1072.9 156.613 1070.54 154.391 Q1068.2 152.146 1068.2 148.396 Q1068.2 144.021 1071.12 141.798 Q1074.06 139.576 1079.87 139.576 L1085.84 139.576 L1085.84 139.16 Q1085.84 136.22 1083.9 134.623 Q1081.98 133.002 1078.48 133.002 Q1076.26 133.002 1074.15 133.535 Q1072.04 134.067 1070.1 135.132 L1070.1 131.197 Q1072.44 130.294 1074.64 129.854 Q1076.84 129.391 1078.92 129.391 Q1084.54 129.391 1087.32 132.308 Q1090.1 135.224 1090.1 141.15 Z" fill="#000000" fill-rule="nonzero" fill-opacity="1" /><circle clip-path="url(#clip040)" cx="329.85" cy="190.502" r="20.48" fill="#e26f46" fill-rule="evenodd" fill-opacity="1" stroke="#000000" stroke-opacity="1" stroke-width="3.82293"/>
<path clip-path="url(#clip040)" d="M429.293 177.828 L422.951 195.027 L435.659 195.027 L429.293 177.828 M426.655 173.222 L431.955 173.222 L445.127 207.782 L440.266 207.782 L437.117 198.916 L421.539 198.916 L418.391 207.782 L413.46 207.782 L426.655 173.222 Z" fill="#000000" fill-rule="nonzero" fill-opacity="1" /><path clip-path="url(#clip040)" d="M454.108 203.893 L454.108 217.643 L449.826 217.643 L449.826 181.856 L454.108 181.856 L454.108 185.791 Q455.451 183.476 457.488 182.365 Q459.548 181.231 462.395 181.231 Q467.117 181.231 470.057 184.981 Q473.02 188.731 473.02 194.842 Q473.02 200.953 470.057 204.703 Q467.117 208.453 462.395 208.453 Q459.548 208.453 457.488 207.342 Q455.451 206.208 454.108 203.893 M468.599 194.842 Q468.599 190.143 466.654 187.481 Q464.733 184.796 461.353 184.796 Q457.974 184.796 456.029 187.481 Q454.108 190.143 454.108 194.842 Q454.108 199.541 456.029 202.226 Q457.974 204.888 461.353 204.888 Q464.733 204.888 466.654 202.226 Q468.599 199.541 468.599 194.842 Z" fill="#000000" fill-rule="nonzero" fill-opacity="1" /><path clip-path="url(#clip040)" d="M495.103 185.838 Q494.386 185.421 493.529 185.236 Q492.696 185.027 491.677 185.027 Q488.066 185.027 486.122 187.389 Q484.201 189.726 484.201 194.125 L484.201 207.782 L479.918 207.782 L479.918 181.856 L484.201 181.856 L484.201 185.884 Q485.543 183.523 487.696 182.389 Q489.849 181.231 492.927 181.231 Q493.367 181.231 493.9 181.301 Q494.432 181.347 495.08 181.463 L495.103 185.838 Z" fill="#000000" fill-rule="nonzero" fill-opacity="1" /><path clip-path="url(#clip040)" d="M508.575 184.842 Q505.149 184.842 503.159 187.527 Q501.168 190.189 501.168 194.842 Q501.168 199.495 503.136 202.18 Q505.126 204.842 508.575 204.842 Q511.978 204.842 513.969 202.157 Q515.96 199.472 515.96 194.842 Q515.96 190.236 513.969 187.551 Q511.978 184.842 508.575 184.842 M508.575 181.231 Q514.131 181.231 517.302 184.842 Q520.473 188.453 520.473 194.842 Q520.473 201.208 517.302 204.842 Q514.131 208.453 508.575 208.453 Q502.997 208.453 499.825 204.842 Q496.677 201.208 496.677 194.842 Q496.677 188.453 499.825 184.842 Q502.997 181.231 508.575 181.231 Z" fill="#000000" fill-rule="nonzero" fill-opacity="1" /><path clip-path="url(#clip040)" d="M547.626 181.856 L538.251 194.472 L548.112 207.782 L543.089 207.782 L535.543 197.597 L527.997 207.782 L522.973 207.782 L533.043 194.217 L523.83 181.856 L528.853 181.856 L535.728 191.092 L542.603 181.856 L547.626 181.856 Z" fill="#000000" fill-rule="nonzero" fill-opacity="1" /><path clip-path="url(#clip040)" d="M554.131 181.856 L558.39 181.856 L558.39 207.782 L554.131 207.782 L554.131 181.856 M554.131 171.764 L558.39 171.764 L558.39 177.157 L554.131 177.157 L554.131 171.764 Z" fill="#000000" fill-rule="nonzero" fill-opacity="1" /><path clip-path="url(#clip040)" d="M587.487 186.833 Q589.084 183.963 591.306 182.597 Q593.529 181.231 596.538 181.231 Q600.589 181.231 602.788 184.078 Q604.987 186.902 604.987 192.134 L604.987 207.782 L600.705 207.782 L600.705 192.273 Q600.705 188.546 599.385 186.74 Q598.066 184.935 595.357 184.935 Q592.047 184.935 590.126 187.134 Q588.205 189.333 588.205 193.129 L588.205 207.782 L583.922 207.782 L583.922 192.273 Q583.922 188.523 582.603 186.74 Q581.283 184.935 578.529 184.935 Q575.265 184.935 573.344 187.157 Q571.422 189.356 571.422 193.129 L571.422 207.782 L567.14 207.782 L567.14 181.856 L571.422 181.856 L571.422 185.884 Q572.881 183.5 574.918 182.365 Q576.955 181.231 579.756 181.231 Q582.58 181.231 584.547 182.666 Q586.538 184.101 587.487 186.833 Z" fill="#000000" fill-rule="nonzero" fill-opacity="1" /><path clip-path="url(#clip040)" d="M625.265 194.75 Q620.103 194.75 618.112 195.93 Q616.121 197.111 616.121 199.958 Q616.121 202.226 617.603 203.569 Q619.107 204.888 621.677 204.888 Q625.218 204.888 627.348 202.388 Q629.501 199.865 629.501 195.699 L629.501 194.75 L625.265 194.75 M633.76 192.99 L633.76 207.782 L629.501 207.782 L629.501 203.847 Q628.042 206.208 625.866 207.342 Q623.691 208.453 620.542 208.453 Q616.561 208.453 614.2 206.231 Q611.862 203.986 611.862 200.236 Q611.862 195.861 614.779 193.638 Q617.718 191.416 623.528 191.416 L629.501 191.416 L629.501 191 Q629.501 188.06 627.556 186.463 Q625.635 184.842 622.14 184.842 Q619.917 184.842 617.811 185.375 Q615.704 185.907 613.76 186.972 L613.76 183.037 Q616.098 182.134 618.297 181.694 Q620.496 181.231 622.579 181.231 Q628.204 181.231 630.982 184.148 Q633.76 187.064 633.76 192.99 Z" fill="#000000" fill-rule="nonzero" fill-opacity="1" /><path clip-path="url(#clip040)" d="M661.19 182.851 L661.19 186.833 Q659.385 185.838 657.556 185.351 Q655.751 184.842 653.899 184.842 Q649.755 184.842 647.464 187.481 Q645.172 190.097 645.172 194.842 Q645.172 199.588 647.464 202.226 Q649.755 204.842 653.899 204.842 Q655.751 204.842 657.556 204.356 Q659.385 203.847 661.19 202.851 L661.19 206.787 Q659.408 207.62 657.487 208.037 Q655.588 208.453 653.436 208.453 Q647.579 208.453 644.13 204.773 Q640.681 201.092 640.681 194.842 Q640.681 188.5 644.153 184.865 Q647.649 181.231 653.713 181.231 Q655.681 181.231 657.556 181.648 Q659.431 182.041 661.19 182.851 Z" fill="#000000" fill-rule="nonzero" fill-opacity="1" /><path clip-path="url(#clip040)" d="M668.598 181.856 L672.857 181.856 L672.857 207.782 L668.598 207.782 L668.598 181.856 M668.598 171.764 L672.857 171.764 L672.857 177.157 L668.598 177.157 L668.598 171.764 Z" fill="#000000" fill-rule="nonzero" fill-opacity="1" /><path clip-path="url(#clip040)" d="M691.815 184.842 Q688.389 184.842 686.398 187.527 Q684.408 190.189 684.408 194.842 Q684.408 199.495 686.375 202.18 Q688.366 204.842 691.815 204.842 Q695.218 204.842 697.209 202.157 Q699.199 199.472 699.199 194.842 Q699.199 190.236 697.209 187.551 Q695.218 184.842 691.815 184.842 M691.815 181.231 Q697.371 181.231 700.542 184.842 Q703.713 188.453 703.713 194.842 Q703.713 201.208 700.542 204.842 Q697.371 208.453 691.815 208.453 Q686.236 208.453 683.065 204.842 Q679.917 201.208 679.917 194.842 Q679.917 188.453 683.065 184.842 Q686.236 181.231 691.815 181.231 M695.033 169.865 L699.639 169.865 L692.093 178.569 L688.551 178.569 L695.033 169.865 Z" fill="#000000" fill-rule="nonzero" fill-opacity="1" /><path clip-path="url(#clip040)" d="M732.324 192.134 L732.324 207.782 L728.065 207.782 L728.065 192.273 Q728.065 188.592 726.63 186.764 Q725.195 184.935 722.324 184.935 Q718.875 184.935 716.884 187.134 Q714.894 189.333 714.894 193.129 L714.894 207.782 L710.611 207.782 L710.611 181.856 L714.894 181.856 L714.894 185.884 Q716.421 183.546 718.482 182.389 Q720.565 181.231 723.273 181.231 Q727.741 181.231 730.033 184.009 Q732.324 186.764 732.324 192.134 Z" fill="#000000" fill-rule="nonzero" fill-opacity="1" /><path clip-path="url(#clip040)" d="M760.009 203.893 L760.009 217.643 L755.727 217.643 L755.727 181.856 L760.009 181.856 L760.009 185.791 Q761.352 183.476 763.389 182.365 Q765.449 181.231 768.296 181.231 Q773.018 181.231 775.958 184.981 Q778.921 188.731 778.921 194.842 Q778.921 200.953 775.958 204.703 Q773.018 208.453 768.296 208.453 Q765.449 208.453 763.389 207.342 Q761.352 206.208 760.009 203.893 M774.5 194.842 Q774.5 190.143 772.555 187.481 Q770.634 184.796 767.255 184.796 Q763.875 184.796 761.931 187.481 Q760.009 190.143 760.009 194.842 Q760.009 199.541 761.931 202.226 Q763.875 204.888 767.255 204.888 Q770.634 204.888 772.555 202.226 Q774.5 199.541 774.5 194.842 Z" fill="#000000" fill-rule="nonzero" fill-opacity="1" /><path clip-path="url(#clip040)" d="M796.028 184.842 Q792.602 184.842 790.611 187.527 Q788.62 190.189 788.62 194.842 Q788.62 199.495 790.588 202.18 Q792.578 204.842 796.028 204.842 Q799.43 204.842 801.421 202.157 Q803.412 199.472 803.412 194.842 Q803.412 190.236 801.421 187.551 Q799.43 184.842 796.028 184.842 M796.028 181.231 Q801.583 181.231 804.754 184.842 Q807.926 188.453 807.926 194.842 Q807.926 201.208 804.754 204.842 Q801.583 208.453 796.028 208.453 Q790.449 208.453 787.278 204.842 Q784.129 201.208 784.129 194.842 Q784.129 188.453 787.278 184.842 Q790.449 181.231 796.028 181.231 Z" fill="#000000" fill-rule="nonzero" fill-opacity="1" /><path clip-path="url(#clip040)" d="M830.009 185.838 Q829.291 185.421 828.435 185.236 Q827.601 185.027 826.583 185.027 Q822.972 185.027 821.027 187.389 Q819.106 189.726 819.106 194.125 L819.106 207.782 L814.824 207.782 L814.824 181.856 L819.106 181.856 L819.106 185.884 Q820.449 183.523 822.601 182.389 Q824.754 181.231 827.833 181.231 Q828.273 181.231 828.805 181.301 Q829.338 181.347 829.986 181.463 L830.009 185.838 Z" fill="#000000" fill-rule="nonzero" fill-opacity="1" /><path clip-path="url(#clip040)" d="M849.546 171.764 L853.805 171.764 L853.805 207.782 L849.546 207.782 L849.546 171.764 Z" fill="#000000" fill-rule="nonzero" fill-opacity="1" /><path clip-path="url(#clip040)" d="M874.499 194.75 Q869.337 194.75 867.347 195.93 Q865.356 197.111 865.356 199.958 Q865.356 202.226 866.837 203.569 Q868.342 204.888 870.911 204.888 Q874.453 204.888 876.583 202.388 Q878.735 199.865 878.735 195.699 L878.735 194.75 L874.499 194.75 M882.995 192.99 L882.995 207.782 L878.735 207.782 L878.735 203.847 Q877.277 206.208 875.101 207.342 Q872.925 208.453 869.777 208.453 Q865.796 208.453 863.435 206.231 Q861.097 203.986 861.097 200.236 Q861.097 195.861 864.013 193.638 Q866.953 191.416 872.763 191.416 L878.735 191.416 L878.735 191 Q878.735 188.06 876.791 186.463 Q874.87 184.842 871.374 184.842 Q869.152 184.842 867.046 185.375 Q864.939 185.907 862.995 186.972 L862.995 183.037 Q865.333 182.134 867.532 181.694 Q869.731 181.231 871.814 181.231 Q877.439 181.231 880.217 184.148 Q882.995 187.064 882.995 192.99 Z" fill="#000000" fill-rule="nonzero" fill-opacity="1" /><path clip-path="url(#clip040)" d="M906.837 181.856 L911.096 181.856 L911.096 207.782 L906.837 207.782 L906.837 181.856 M906.837 171.764 L911.096 171.764 L911.096 177.157 L906.837 177.157 L906.837 171.764 Z" fill="#000000" fill-rule="nonzero" fill-opacity="1" /><path clip-path="url(#clip040)" d="M918.157 181.856 L938.388 181.856 L938.388 185.745 L922.369 204.379 L938.388 204.379 L938.388 207.782 L917.578 207.782 L917.578 203.893 L933.596 185.259 L918.157 185.259 L918.157 181.856 Z" fill="#000000" fill-rule="nonzero" fill-opacity="1" /><path clip-path="url(#clip040)" d="M947.439 194.842 Q947.439 199.541 949.36 202.226 Q951.304 204.888 954.684 204.888 Q958.064 204.888 960.008 202.226 Q961.953 199.541 961.953 194.842 Q961.953 190.143 960.008 187.481 Q958.064 184.796 954.684 184.796 Q951.304 184.796 949.36 187.481 Q947.439 190.143 947.439 194.842 M961.953 203.893 Q960.61 206.208 958.55 207.342 Q956.513 208.453 953.642 208.453 Q948.943 208.453 945.98 204.703 Q943.041 200.953 943.041 194.842 Q943.041 188.731 945.98 184.981 Q948.943 181.231 953.642 181.231 Q956.513 181.231 958.55 182.365 Q960.61 183.476 961.953 185.791 L961.953 181.856 L966.212 181.856 L966.212 217.643 L961.953 217.643 L961.953 203.893 Z" fill="#000000" fill-rule="nonzero" fill-opacity="1" /><path clip-path="url(#clip040)" d="M974.545 197.55 L974.545 181.856 L978.804 181.856 L978.804 197.388 Q978.804 201.069 980.24 202.921 Q981.675 204.75 984.545 204.75 Q987.994 204.75 989.985 202.55 Q991.999 200.351 991.999 196.555 L991.999 181.856 L996.258 181.856 L996.258 207.782 L991.999 207.782 L991.999 203.8 Q990.448 206.162 988.388 207.319 Q986.351 208.453 983.642 208.453 Q979.175 208.453 976.86 205.675 Q974.545 202.898 974.545 197.55 M985.263 181.231 L985.263 181.231 Z" fill="#000000" fill-rule="nonzero" fill-opacity="1" /><path clip-path="url(#clip040)" d="M1005.03 181.856 L1009.29 181.856 L1009.29 207.782 L1005.03 207.782 L1005.03 181.856 M1005.03 171.764 L1009.29 171.764 L1009.29 177.157 L1005.03 177.157 L1005.03 171.764 Z" fill="#000000" fill-rule="nonzero" fill-opacity="1" /><path clip-path="url(#clip040)" d="M1040.38 193.754 L1040.38 195.838 L1020.79 195.838 Q1021.07 200.236 1023.43 202.55 Q1025.82 204.842 1030.05 204.842 Q1032.51 204.842 1034.8 204.24 Q1037.11 203.638 1039.38 202.435 L1039.38 206.462 Q1037.09 207.435 1034.68 207.944 Q1032.28 208.453 1029.8 208.453 Q1023.6 208.453 1019.96 204.842 Q1016.35 201.231 1016.35 195.074 Q1016.35 188.708 1019.78 184.981 Q1023.23 181.231 1029.06 181.231 Q1034.29 181.231 1037.32 184.611 Q1040.38 187.967 1040.38 193.754 M1036.12 192.504 Q1036.07 189.009 1034.15 186.926 Q1032.25 184.842 1029.1 184.842 Q1025.54 184.842 1023.39 186.856 Q1021.26 188.87 1020.93 192.527 L1036.12 192.504 Z" fill="#000000" fill-rule="nonzero" fill-opacity="1" /><path clip-path="url(#clip040)" d="M1062.39 185.838 Q1061.67 185.421 1060.82 185.236 Q1059.98 185.027 1058.97 185.027 Q1055.35 185.027 1053.41 187.389 Q1051.49 189.726 1051.49 194.125 L1051.49 207.782 L1047.21 207.782 L1047.21 181.856 L1051.49 181.856 L1051.49 185.884 Q1052.83 183.523 1054.98 182.389 Q1057.14 181.231 1060.22 181.231 Q1060.66 181.231 1061.19 181.301 Q1061.72 181.347 1062.37 181.463 L1062.39 185.838 Z" fill="#000000" fill-rule="nonzero" fill-opacity="1" /><path clip-path="url(#clip040)" d="M1083.09 185.791 L1083.09 171.764 L1087.35 171.764 L1087.35 207.782 L1083.09 207.782 L1083.09 203.893 Q1081.74 206.208 1079.68 207.342 Q1077.65 208.453 1074.78 208.453 Q1070.08 208.453 1067.11 204.703 Q1064.17 200.953 1064.17 194.842 Q1064.17 188.731 1067.11 184.981 Q1070.08 181.231 1074.78 181.231 Q1077.65 181.231 1079.68 182.365 Q1081.74 183.476 1083.09 185.791 M1068.57 194.842 Q1068.57 199.541 1070.49 202.226 Q1072.44 204.888 1075.82 204.888 Q1079.2 204.888 1081.14 202.226 Q1083.09 199.541 1083.09 194.842 Q1083.09 190.143 1081.14 187.481 Q1079.2 184.796 1075.82 184.796 Q1072.44 184.796 1070.49 187.481 Q1068.57 190.143 1068.57 194.842 Z" fill="#000000" fill-rule="nonzero" fill-opacity="1" /><path clip-path="url(#clip040)" d="M1107.9 194.75 Q1102.74 194.75 1100.75 195.93 Q1098.76 197.111 1098.76 199.958 Q1098.76 202.226 1100.24 203.569 Q1101.74 204.888 1104.31 204.888 Q1107.85 204.888 1109.98 202.388 Q1112.14 199.865 1112.14 195.699 L1112.14 194.75 L1107.9 194.75 M1116.4 192.99 L1116.4 207.782 L1112.14 207.782 L1112.14 203.847 Q1110.68 206.208 1108.5 207.342 Q1106.33 208.453 1103.18 208.453 Q1099.2 208.453 1096.84 206.231 Q1094.5 203.986 1094.5 200.236 Q1094.5 195.861 1097.41 193.638 Q1100.35 191.416 1106.16 191.416 L1112.14 191.416 L1112.14 191 Q1112.14 188.06 1110.19 186.463 Q1108.27 184.842 1104.78 184.842 Q1102.55 184.842 1100.45 185.375 Q1098.34 185.907 1096.4 186.972 L1096.4 183.037 Q1098.73 182.134 1100.93 181.694 Q1103.13 181.231 1105.22 181.231 Q1110.84 181.231 1113.62 184.148 Q1116.4 187.064 1116.4 192.99 Z" fill="#000000" fill-rule="nonzero" fill-opacity="1" /></svg>
