<?xml version="1.0" encoding="utf-8"?>
<svg xmlns="http://www.w3.org/2000/svg" xmlns:xlink="http://www.w3.org/1999/xlink" width="528" height="336" viewBox="0 0 2112 1344">
<defs>
  <clipPath id="clip400">
    <rect x="0" y="0" width="2112" height="1344"/>
  </clipPath>
</defs>
<path clip-path="url(#clip400)" d="M0 1344 L2112 1344 L2112 0 L0 0  Z" fill="#ffffff" fill-rule="evenodd" fill-opacity="1"/>
<defs>
  <clipPath id="clip401">
    <rect x="422" y="0" width="1479" height="1344"/>
  </clipPath>
</defs>
<path clip-path="url(#clip400)" d="M153.394 1234.58 L2064.76 1234.58 L2064.76 47.2441 L153.394 47.2441  Z" fill="#ffffff" fill-rule="evenodd" fill-opacity="1"/>
<defs>
  <clipPath id="clip402">
    <rect x="153" y="47" width="1912" height="1188"/>
  </clipPath>
</defs>
<polyline clip-path="url(#clip402)" style="stroke:#000000; stroke-linecap:round; stroke-linejoin:round; stroke-width:2; stroke-opacity:0.1; fill:none" points="170.69,1234.58 170.69,47.2441 "/>
<polyline clip-path="url(#clip402)" style="stroke:#000000; stroke-linecap:round; stroke-linejoin:round; stroke-width:2; stroke-opacity:0.1; fill:none" points="538.684,1234.58 538.684,47.2441 "/>
<polyline clip-path="url(#clip402)" style="stroke:#000000; stroke-linecap:round; stroke-linejoin:round; stroke-width:2; stroke-opacity:0.1; fill:none" points="906.678,1234.58 906.678,47.2441 "/>
<polyline clip-path="url(#clip402)" style="stroke:#000000; stroke-linecap:round; stroke-linejoin:round; stroke-width:2; stroke-opacity:0.1; fill:none" points="1274.67,1234.58 1274.67,47.2441 "/>
<polyline clip-path="url(#clip402)" style="stroke:#000000; stroke-linecap:round; stroke-linejoin:round; stroke-width:2; stroke-opacity:0.1; fill:none" points="1642.67,1234.58 1642.67,47.2441 "/>
<polyline clip-path="url(#clip402)" style="stroke:#000000; stroke-linecap:round; stroke-linejoin:round; stroke-width:2; stroke-opacity:0.1; fill:none" points="2010.66,1234.58 2010.66,47.2441 "/>
<polyline clip-path="url(#clip400)" style="stroke:#000000; stroke-linecap:round; stroke-linejoin:round; stroke-width:4; stroke-opacity:1; fill:none" points="153.394,1234.58 2064.76,1234.58 "/>
<polyline clip-path="url(#clip400)" style="stroke:#000000; stroke-linecap:round; stroke-linejoin:round; stroke-width:4; stroke-opacity:1; fill:none" points="170.69,1234.58 170.69,1215.68 "/>
<polyline clip-path="url(#clip400)" style="stroke:#000000; stroke-linecap:round; stroke-linejoin:round; stroke-width:4; stroke-opacity:1; fill:none" points="538.684,1234.58 538.684,1215.68 "/>
<polyline clip-path="url(#clip400)" style="stroke:#000000; stroke-linecap:round; stroke-linejoin:round; stroke-width:4; stroke-opacity:1; fill:none" points="906.678,1234.58 906.678,1215.68 "/>
<polyline clip-path="url(#clip400)" style="stroke:#000000; stroke-linecap:round; stroke-linejoin:round; stroke-width:4; stroke-opacity:1; fill:none" points="1274.67,1234.58 1274.67,1215.68 "/>
<polyline clip-path="url(#clip400)" style="stroke:#000000; stroke-linecap:round; stroke-linejoin:round; stroke-width:4; stroke-opacity:1; fill:none" points="1642.67,1234.58 1642.67,1215.68 "/>
<polyline clip-path="url(#clip400)" style="stroke:#000000; stroke-linecap:round; stroke-linejoin:round; stroke-width:4; stroke-opacity:1; fill:none" points="2010.66,1234.58 2010.66,1215.68 "/>
<path clip-path="url(#clip400)" d="M170.69 1263.19 Q167.079 1263.19 165.25 1266.76 Q163.445 1270.3 163.445 1277.43 Q163.445 1284.54 165.25 1288.1 Q167.079 1291.64 170.69 1291.64 Q174.324 1291.64 176.13 1288.1 Q177.958 1284.54 177.958 1277.43 Q177.958 1270.3 176.13 1266.76 Q174.324 1263.19 170.69 1263.19 M170.69 1259.49 Q176.5 1259.49 179.556 1264.1 Q182.634 1268.68 182.634 1277.43 Q182.634 1286.16 179.556 1290.76 Q176.5 1295.35 170.69 1295.35 Q164.88 1295.35 161.801 1290.76 Q158.746 1286.16 158.746 1277.43 Q158.746 1268.68 161.801 1264.1 Q164.88 1259.49 170.69 1259.49 Z" fill="#000000" fill-rule="nonzero" fill-opacity="1" /><path clip-path="url(#clip400)" d="M513.372 1290.74 L521.011 1290.74 L521.011 1264.37 L512.7 1266.04 L512.7 1261.78 L520.964 1260.11 L525.64 1260.11 L525.64 1290.74 L533.279 1290.74 L533.279 1294.67 L513.372 1294.67 L513.372 1290.74 Z" fill="#000000" fill-rule="nonzero" fill-opacity="1" /><path clip-path="url(#clip400)" d="M552.723 1263.19 Q549.112 1263.19 547.284 1266.76 Q545.478 1270.3 545.478 1277.43 Q545.478 1284.54 547.284 1288.1 Q549.112 1291.64 552.723 1291.64 Q556.358 1291.64 558.163 1288.1 Q559.992 1284.54 559.992 1277.43 Q559.992 1270.3 558.163 1266.76 Q556.358 1263.19 552.723 1263.19 M552.723 1259.49 Q558.533 1259.49 561.589 1264.1 Q564.668 1268.68 564.668 1277.43 Q564.668 1286.16 561.589 1290.76 Q558.533 1295.35 552.723 1295.35 Q546.913 1295.35 543.834 1290.76 Q540.779 1286.16 540.779 1277.43 Q540.779 1268.68 543.834 1264.1 Q546.913 1259.49 552.723 1259.49 Z" fill="#000000" fill-rule="nonzero" fill-opacity="1" /><path clip-path="url(#clip400)" d="M885.451 1290.74 L901.771 1290.74 L901.771 1294.67 L879.827 1294.67 L879.827 1290.74 Q882.489 1287.99 887.072 1283.36 Q891.678 1278.7 892.859 1277.36 Q895.104 1274.84 895.984 1273.1 Q896.887 1271.34 896.887 1269.65 Q896.887 1266.9 894.942 1265.16 Q893.021 1263.42 889.919 1263.42 Q887.72 1263.42 885.266 1264.19 Q882.836 1264.95 880.058 1266.5 L880.058 1261.78 Q882.882 1260.65 885.336 1260.07 Q887.789 1259.49 889.826 1259.49 Q895.197 1259.49 898.391 1262.17 Q901.586 1264.86 901.586 1269.35 Q901.586 1271.48 900.775 1273.4 Q899.988 1275.3 897.882 1277.89 Q897.303 1278.56 894.201 1281.78 Q891.1 1284.98 885.451 1290.74 Z" fill="#000000" fill-rule="nonzero" fill-opacity="1" /><path clip-path="url(#clip400)" d="M921.586 1263.19 Q917.974 1263.19 916.146 1266.76 Q914.34 1270.3 914.34 1277.43 Q914.34 1284.54 916.146 1288.1 Q917.974 1291.64 921.586 1291.64 Q925.22 1291.64 927.025 1288.1 Q928.854 1284.54 928.854 1277.43 Q928.854 1270.3 927.025 1266.76 Q925.22 1263.19 921.586 1263.19 M921.586 1259.49 Q927.396 1259.49 930.451 1264.1 Q933.53 1268.68 933.53 1277.43 Q933.53 1286.16 930.451 1290.76 Q927.396 1295.35 921.586 1295.35 Q915.775 1295.35 912.697 1290.76 Q909.641 1286.16 909.641 1277.43 Q909.641 1268.68 912.697 1264.1 Q915.775 1259.49 921.586 1259.49 Z" fill="#000000" fill-rule="nonzero" fill-opacity="1" /><path clip-path="url(#clip400)" d="M1263.52 1276.04 Q1266.87 1276.76 1268.75 1279.03 Q1270.64 1281.3 1270.64 1284.63 Q1270.64 1289.74 1267.13 1292.55 Q1263.61 1295.35 1257.13 1295.35 Q1254.95 1295.35 1252.64 1294.91 Q1250.34 1294.49 1247.89 1293.63 L1247.89 1289.12 Q1249.83 1290.25 1252.15 1290.83 Q1254.46 1291.41 1256.99 1291.41 Q1261.39 1291.41 1263.68 1289.67 Q1265.99 1287.94 1265.99 1284.63 Q1265.99 1281.57 1263.84 1279.86 Q1261.71 1278.12 1257.89 1278.12 L1253.86 1278.12 L1253.86 1274.28 L1258.08 1274.28 Q1261.52 1274.28 1263.35 1272.92 Q1265.18 1271.53 1265.18 1268.93 Q1265.18 1266.27 1263.28 1264.86 Q1261.41 1263.42 1257.89 1263.42 Q1255.97 1263.42 1253.77 1263.84 Q1251.57 1264.26 1248.93 1265.14 L1248.93 1260.97 Q1251.59 1260.23 1253.91 1259.86 Q1256.25 1259.49 1258.31 1259.49 Q1263.63 1259.49 1266.73 1261.92 Q1269.83 1264.33 1269.83 1268.45 Q1269.83 1271.32 1268.19 1273.31 Q1266.55 1275.28 1263.52 1276.04 Z" fill="#000000" fill-rule="nonzero" fill-opacity="1" /><path clip-path="url(#clip400)" d="M1289.51 1263.19 Q1285.9 1263.19 1284.07 1266.76 Q1282.26 1270.3 1282.26 1277.43 Q1282.26 1284.54 1284.07 1288.1 Q1285.9 1291.64 1289.51 1291.64 Q1293.14 1291.64 1294.95 1288.1 Q1296.78 1284.54 1296.78 1277.43 Q1296.78 1270.3 1294.95 1266.76 Q1293.14 1263.19 1289.51 1263.19 M1289.51 1259.49 Q1295.32 1259.49 1298.38 1264.1 Q1301.45 1268.68 1301.45 1277.43 Q1301.45 1286.16 1298.38 1290.76 Q1295.32 1295.35 1289.51 1295.35 Q1283.7 1295.35 1280.62 1290.76 Q1277.57 1286.16 1277.57 1277.43 Q1277.57 1268.68 1280.62 1264.1 Q1283.7 1259.49 1289.51 1259.49 Z" fill="#000000" fill-rule="nonzero" fill-opacity="1" /><path clip-path="url(#clip400)" d="M1630.84 1264.19 L1619.03 1282.64 L1630.84 1282.64 L1630.84 1264.19 M1629.61 1260.11 L1635.49 1260.11 L1635.49 1282.64 L1640.42 1282.64 L1640.42 1286.53 L1635.49 1286.53 L1635.49 1294.67 L1630.84 1294.67 L1630.84 1286.53 L1615.24 1286.53 L1615.24 1282.01 L1629.61 1260.11 Z" fill="#000000" fill-rule="nonzero" fill-opacity="1" /><path clip-path="url(#clip400)" d="M1658.15 1263.19 Q1654.54 1263.19 1652.71 1266.76 Q1650.91 1270.3 1650.91 1277.43 Q1650.91 1284.54 1652.71 1288.1 Q1654.54 1291.64 1658.15 1291.64 Q1661.79 1291.64 1663.59 1288.1 Q1665.42 1284.54 1665.42 1277.43 Q1665.42 1270.3 1663.59 1266.76 Q1661.79 1263.19 1658.15 1263.19 M1658.15 1259.49 Q1663.96 1259.49 1667.02 1264.1 Q1670.1 1268.68 1670.1 1277.43 Q1670.1 1286.16 1667.02 1290.76 Q1663.96 1295.35 1658.15 1295.35 Q1652.34 1295.35 1649.26 1290.76 Q1646.21 1286.16 1646.21 1277.43 Q1646.21 1268.68 1649.26 1264.1 Q1652.34 1259.49 1658.15 1259.49 Z" fill="#000000" fill-rule="nonzero" fill-opacity="1" /><path clip-path="url(#clip400)" d="M1985.36 1260.11 L2003.72 1260.11 L2003.72 1264.05 L1989.64 1264.05 L1989.64 1272.52 Q1990.66 1272.17 1991.68 1272.01 Q1992.7 1271.83 1993.72 1271.83 Q1999.5 1271.83 2002.88 1275 Q2006.26 1278.17 2006.26 1283.59 Q2006.26 1289.17 2002.79 1292.27 Q1999.32 1295.35 1993 1295.35 Q1990.82 1295.35 1988.55 1294.98 Q1986.31 1294.61 1983.9 1293.86 L1983.9 1289.17 Q1985.98 1290.3 1988.21 1290.86 Q1990.43 1291.41 1992.91 1291.41 Q1996.91 1291.41 1999.25 1289.3 Q2001.59 1287.2 2001.59 1283.59 Q2001.59 1279.98 1999.25 1277.87 Q1996.91 1275.76 1992.91 1275.76 Q1991.03 1275.76 1989.16 1276.18 Q1987.3 1276.6 1985.36 1277.48 L1985.36 1260.11 Z" fill="#000000" fill-rule="nonzero" fill-opacity="1" /><path clip-path="url(#clip400)" d="M2025.48 1263.19 Q2021.86 1263.19 2020.04 1266.76 Q2018.23 1270.3 2018.23 1277.43 Q2018.23 1284.54 2020.04 1288.1 Q2021.86 1291.64 2025.48 1291.64 Q2029.11 1291.64 2030.92 1288.1 Q2032.74 1284.54 2032.74 1277.43 Q2032.74 1270.3 2030.92 1266.76 Q2029.11 1263.19 2025.48 1263.19 M2025.48 1259.49 Q2031.29 1259.49 2034.34 1264.1 Q2037.42 1268.68 2037.42 1277.43 Q2037.42 1286.16 2034.34 1290.76 Q2031.29 1295.35 2025.48 1295.35 Q2019.67 1295.35 2016.59 1290.76 Q2013.53 1286.16 2013.53 1277.43 Q2013.53 1268.68 2016.59 1264.1 Q2019.67 1259.49 2025.48 1259.49 Z" fill="#000000" fill-rule="nonzero" fill-opacity="1" /><polyline clip-path="url(#clip402)" style="stroke:#000000; stroke-linecap:round; stroke-linejoin:round; stroke-width:2; stroke-opacity:0.1; fill:none" points="153.394,1200.97 2064.76,1200.97 "/>
<polyline clip-path="url(#clip402)" style="stroke:#000000; stroke-linecap:round; stroke-linejoin:round; stroke-width:2; stroke-opacity:0.1; fill:none" points="153.394,976.95 2064.76,976.95 "/>
<polyline clip-path="url(#clip402)" style="stroke:#000000; stroke-linecap:round; stroke-linejoin:round; stroke-width:2; stroke-opacity:0.1; fill:none" points="153.394,752.924 2064.76,752.924 "/>
<polyline clip-path="url(#clip402)" style="stroke:#000000; stroke-linecap:round; stroke-linejoin:round; stroke-width:2; stroke-opacity:0.1; fill:none" points="153.394,528.899 2064.76,528.899 "/>
<polyline clip-path="url(#clip402)" style="stroke:#000000; stroke-linecap:round; stroke-linejoin:round; stroke-width:2; stroke-opacity:0.1; fill:none" points="153.394,304.873 2064.76,304.873 "/>
<polyline clip-path="url(#clip402)" style="stroke:#000000; stroke-linecap:round; stroke-linejoin:round; stroke-width:2; stroke-opacity:0.1; fill:none" points="153.394,80.8479 2064.76,80.8479 "/>
<polyline clip-path="url(#clip400)" style="stroke:#000000; stroke-linecap:round; stroke-linejoin:round; stroke-width:4; stroke-opacity:1; fill:none" points="153.394,1234.58 153.394,47.2441 "/>
<polyline clip-path="url(#clip400)" style="stroke:#000000; stroke-linecap:round; stroke-linejoin:round; stroke-width:4; stroke-opacity:1; fill:none" points="153.394,1200.97 172.292,1200.97 "/>
<polyline clip-path="url(#clip400)" style="stroke:#000000; stroke-linecap:round; stroke-linejoin:round; stroke-width:4; stroke-opacity:1; fill:none" points="153.394,976.95 172.292,976.95 "/>
<polyline clip-path="url(#clip400)" style="stroke:#000000; stroke-linecap:round; stroke-linejoin:round; stroke-width:4; stroke-opacity:1; fill:none" points="153.394,752.924 172.292,752.924 "/>
<polyline clip-path="url(#clip400)" style="stroke:#000000; stroke-linecap:round; stroke-linejoin:round; stroke-width:4; stroke-opacity:1; fill:none" points="153.394,528.899 172.292,528.899 "/>
<polyline clip-path="url(#clip400)" style="stroke:#000000; stroke-linecap:round; stroke-linejoin:round; stroke-width:4; stroke-opacity:1; fill:none" points="153.394,304.873 172.292,304.873 "/>
<polyline clip-path="url(#clip400)" style="stroke:#000000; stroke-linecap:round; stroke-linejoin:round; stroke-width:4; stroke-opacity:1; fill:none" points="153.394,80.8479 172.292,80.8479 "/>
<path clip-path="url(#clip400)" d="M65.5339 1186.77 Q61.9228 1186.77 60.0941 1190.34 Q58.2886 1193.88 58.2886 1201.01 Q58.2886 1208.12 60.0941 1211.68 Q61.9228 1215.22 65.5339 1215.22 Q69.1681 1215.22 70.9737 1211.68 Q72.8024 1208.12 72.8024 1201.01 Q72.8024 1193.88 70.9737 1190.34 Q69.1681 1186.77 65.5339 1186.77 M65.5339 1183.07 Q71.3441 1183.07 74.3996 1187.68 Q77.4783 1192.26 77.4783 1201.01 Q77.4783 1209.74 74.3996 1214.34 Q71.3441 1218.93 65.5339 1218.93 Q59.7238 1218.93 56.6451 1214.34 Q53.5895 1209.74 53.5895 1201.01 Q53.5895 1192.26 56.6451 1187.68 Q59.7238 1183.07 65.5339 1183.07 Z" fill="#000000" fill-rule="nonzero" fill-opacity="1" /><path clip-path="url(#clip400)" d="M85.6958 1212.38 L90.5801 1212.38 L90.5801 1218.25 L85.6958 1218.25 L85.6958 1212.38 Z" fill="#000000" fill-rule="nonzero" fill-opacity="1" /><path clip-path="url(#clip400)" d="M100.811 1183.69 L119.168 1183.69 L119.168 1187.63 L105.094 1187.63 L105.094 1196.1 Q106.112 1195.76 107.131 1195.59 Q108.149 1195.41 109.168 1195.41 Q114.955 1195.41 118.335 1198.58 Q121.714 1201.75 121.714 1207.17 Q121.714 1212.75 118.242 1215.85 Q114.77 1218.93 108.45 1218.93 Q106.274 1218.93 104.006 1218.56 Q101.761 1218.19 99.3532 1217.44 L99.3532 1212.75 Q101.436 1213.88 103.659 1214.44 Q105.881 1214.99 108.358 1214.99 Q112.362 1214.99 114.7 1212.88 Q117.038 1210.78 117.038 1207.17 Q117.038 1203.56 114.7 1201.45 Q112.362 1199.34 108.358 1199.34 Q106.483 1199.34 104.608 1199.76 Q102.756 1200.18 100.811 1201.06 L100.811 1183.69 Z" fill="#000000" fill-rule="nonzero" fill-opacity="1" /><path clip-path="url(#clip400)" d="M64.3765 962.748 Q60.7654 962.748 58.9367 966.313 Q57.1312 969.855 57.1312 976.984 Q57.1312 984.091 58.9367 987.656 Q60.7654 991.197 64.3765 991.197 Q68.0107 991.197 69.8163 987.656 Q71.645 984.091 71.645 976.984 Q71.645 969.855 69.8163 966.313 Q68.0107 962.748 64.3765 962.748 M64.3765 959.045 Q70.1867 959.045 73.2422 963.651 Q76.3209 968.234 76.3209 976.984 Q76.3209 985.711 73.2422 990.318 Q70.1867 994.901 64.3765 994.901 Q58.5664 994.901 55.4877 990.318 Q52.4321 985.711 52.4321 976.984 Q52.4321 968.234 55.4877 963.651 Q58.5664 959.045 64.3765 959.045 Z" fill="#000000" fill-rule="nonzero" fill-opacity="1" /><path clip-path="url(#clip400)" d="M84.5384 988.35 L89.4227 988.35 L89.4227 994.23 L84.5384 994.23 L84.5384 988.35 Z" fill="#000000" fill-rule="nonzero" fill-opacity="1" /><path clip-path="url(#clip400)" d="M110.186 975.086 Q107.038 975.086 105.186 977.239 Q103.358 979.392 103.358 983.142 Q103.358 986.868 105.186 989.044 Q107.038 991.197 110.186 991.197 Q113.335 991.197 115.163 989.044 Q117.015 986.868 117.015 983.142 Q117.015 979.392 115.163 977.239 Q113.335 975.086 110.186 975.086 M119.469 960.433 L119.469 964.693 Q117.71 963.859 115.904 963.42 Q114.122 962.98 112.362 962.98 Q107.733 962.98 105.279 966.105 Q102.849 969.23 102.501 975.549 Q103.867 973.535 105.927 972.47 Q107.987 971.382 110.464 971.382 Q115.673 971.382 118.682 974.554 Q121.714 977.702 121.714 983.142 Q121.714 988.466 118.566 991.683 Q115.418 994.901 110.186 994.901 Q104.191 994.901 101.02 990.318 Q97.8485 985.711 97.8485 976.984 Q97.8485 968.79 101.737 963.929 Q105.626 959.045 112.177 959.045 Q113.936 959.045 115.719 959.392 Q117.524 959.739 119.469 960.433 Z" fill="#000000" fill-rule="nonzero" fill-opacity="1" /><path clip-path="url(#clip400)" d="M65.4413 738.723 Q61.8302 738.723 60.0015 742.288 Q58.196 745.829 58.196 752.959 Q58.196 760.065 60.0015 763.63 Q61.8302 767.172 65.4413 767.172 Q69.0756 767.172 70.8811 763.63 Q72.7098 760.065 72.7098 752.959 Q72.7098 745.829 70.8811 742.288 Q69.0756 738.723 65.4413 738.723 M65.4413 735.019 Q71.2515 735.019 74.307 739.626 Q77.3857 744.209 77.3857 752.959 Q77.3857 761.686 74.307 766.292 Q71.2515 770.875 65.4413 770.875 Q59.6312 770.875 56.5525 766.292 Q53.4969 761.686 53.4969 752.959 Q53.4969 744.209 56.5525 739.626 Q59.6312 735.019 65.4413 735.019 Z" fill="#000000" fill-rule="nonzero" fill-opacity="1" /><path clip-path="url(#clip400)" d="M85.6032 764.325 L90.4875 764.325 L90.4875 770.204 L85.6032 770.204 L85.6032 764.325 Z" fill="#000000" fill-rule="nonzero" fill-opacity="1" /><path clip-path="url(#clip400)" d="M99.4921 735.644 L121.714 735.644 L121.714 737.635 L109.168 770.204 L104.284 770.204 L116.089 739.579 L99.4921 739.579 L99.4921 735.644 Z" fill="#000000" fill-rule="nonzero" fill-opacity="1" /><path clip-path="url(#clip400)" d="M64.6311 514.697 Q61.02 514.697 59.1913 518.262 Q57.3858 521.804 57.3858 528.933 Q57.3858 536.04 59.1913 539.605 Q61.02 543.146 64.6311 543.146 Q68.2654 543.146 70.0709 539.605 Q71.8996 536.04 71.8996 528.933 Q71.8996 521.804 70.0709 518.262 Q68.2654 514.697 64.6311 514.697 M64.6311 510.994 Q70.4413 510.994 73.4968 515.6 Q76.5755 520.184 76.5755 528.933 Q76.5755 537.66 73.4968 542.267 Q70.4413 546.85 64.6311 546.85 Q58.821 546.85 55.7423 542.267 Q52.6868 537.66 52.6868 528.933 Q52.6868 520.184 55.7423 515.6 Q58.821 510.994 64.6311 510.994 Z" fill="#000000" fill-rule="nonzero" fill-opacity="1" /><path clip-path="url(#clip400)" d="M84.7931 540.299 L89.6773 540.299 L89.6773 546.179 L84.7931 546.179 L84.7931 540.299 Z" fill="#000000" fill-rule="nonzero" fill-opacity="1" /><path clip-path="url(#clip400)" d="M109.862 529.767 Q106.529 529.767 104.608 531.549 Q102.71 533.332 102.71 536.457 Q102.71 539.582 104.608 541.364 Q106.529 543.146 109.862 543.146 Q113.196 543.146 115.117 541.364 Q117.038 539.558 117.038 536.457 Q117.038 533.332 115.117 531.549 Q113.219 529.767 109.862 529.767 M105.186 527.776 Q102.177 527.035 100.487 524.975 Q98.8208 522.915 98.8208 519.952 Q98.8208 515.809 101.761 513.401 Q104.724 510.994 109.862 510.994 Q115.024 510.994 117.964 513.401 Q120.904 515.809 120.904 519.952 Q120.904 522.915 119.214 524.975 Q117.548 527.035 114.561 527.776 Q117.941 528.563 119.816 530.855 Q121.714 533.146 121.714 536.457 Q121.714 541.48 118.635 544.165 Q115.58 546.85 109.862 546.85 Q104.145 546.85 101.066 544.165 Q98.0106 541.48 98.0106 536.457 Q98.0106 533.146 99.9087 530.855 Q101.807 528.563 105.186 527.776 M103.474 520.392 Q103.474 523.077 105.14 524.582 Q106.83 526.086 109.862 526.086 Q112.872 526.086 114.561 524.582 Q116.274 523.077 116.274 520.392 Q116.274 517.707 114.561 516.202 Q112.872 514.697 109.862 514.697 Q106.83 514.697 105.14 516.202 Q103.474 517.707 103.474 520.392 Z" fill="#000000" fill-rule="nonzero" fill-opacity="1" /><path clip-path="url(#clip400)" d="M64.7237 290.672 Q61.1126 290.672 59.2839 294.237 Q57.4784 297.778 57.4784 304.908 Q57.4784 312.014 59.2839 315.579 Q61.1126 319.121 64.7237 319.121 Q68.358 319.121 70.1635 315.579 Q71.9922 312.014 71.9922 304.908 Q71.9922 297.778 70.1635 294.237 Q68.358 290.672 64.7237 290.672 M64.7237 286.968 Q70.5339 286.968 73.5894 291.575 Q76.6681 296.158 76.6681 304.908 Q76.6681 313.635 73.5894 318.241 Q70.5339 322.825 64.7237 322.825 Q58.9136 322.825 55.8349 318.241 Q52.7793 313.635 52.7793 304.908 Q52.7793 296.158 55.8349 291.575 Q58.9136 286.968 64.7237 286.968 Z" fill="#000000" fill-rule="nonzero" fill-opacity="1" /><path clip-path="url(#clip400)" d="M84.8857 316.274 L89.7699 316.274 L89.7699 322.153 L84.8857 322.153 L84.8857 316.274 Z" fill="#000000" fill-rule="nonzero" fill-opacity="1" /><path clip-path="url(#clip400)" d="M100.094 321.436 L100.094 317.176 Q101.853 318.01 103.659 318.45 Q105.464 318.889 107.2 318.889 Q111.83 318.889 114.26 315.788 Q116.714 312.663 117.061 306.32 Q115.719 308.311 113.659 309.376 Q111.598 310.44 109.098 310.44 Q103.913 310.44 100.881 307.315 Q97.8717 304.167 97.8717 298.728 Q97.8717 293.403 101.02 290.186 Q104.168 286.968 109.399 286.968 Q115.395 286.968 118.543 291.575 Q121.714 296.158 121.714 304.908 Q121.714 313.079 117.825 317.964 Q113.96 322.825 107.409 322.825 Q105.649 322.825 103.844 322.477 Q102.038 322.13 100.094 321.436 M109.399 306.783 Q112.548 306.783 114.376 304.63 Q116.228 302.477 116.228 298.728 Q116.228 295.001 114.376 292.848 Q112.548 290.672 109.399 290.672 Q106.251 290.672 104.399 292.848 Q102.571 295.001 102.571 298.728 Q102.571 302.477 104.399 304.63 Q106.251 306.783 109.399 306.783 Z" fill="#000000" fill-rule="nonzero" fill-opacity="1" /><path clip-path="url(#clip400)" d="M55.3488 94.1927 L62.9876 94.1927 L62.9876 67.8271 L54.6775 69.4938 L54.6775 65.2346 L62.9413 63.5679 L67.6172 63.5679 L67.6172 94.1927 L75.2561 94.1927 L75.2561 98.1279 L55.3488 98.1279 L55.3488 94.1927 Z" fill="#000000" fill-rule="nonzero" fill-opacity="1" /><path clip-path="url(#clip400)" d="M84.7005 92.2483 L89.5847 92.2483 L89.5847 98.1279 L84.7005 98.1279 L84.7005 92.2483 Z" fill="#000000" fill-rule="nonzero" fill-opacity="1" /><path clip-path="url(#clip400)" d="M109.77 66.6466 Q106.159 66.6466 104.33 70.2114 Q102.524 73.753 102.524 80.8826 Q102.524 87.9891 104.33 91.5539 Q106.159 95.0955 109.77 95.0955 Q113.404 95.0955 115.21 91.5539 Q117.038 87.9891 117.038 80.8826 Q117.038 73.753 115.21 70.2114 Q113.404 66.6466 109.77 66.6466 M109.77 62.9429 Q115.58 62.9429 118.635 67.5494 Q121.714 72.1327 121.714 80.8826 Q121.714 89.6094 118.635 94.2159 Q115.58 98.7992 109.77 98.7992 Q103.96 98.7992 100.881 94.2159 Q97.8254 89.6094 97.8254 80.8826 Q97.8254 72.1327 100.881 67.5494 Q103.96 62.9429 109.77 62.9429 Z" fill="#000000" fill-rule="nonzero" fill-opacity="1" /><circle clip-path="url(#clip402)" cx="207.489" cy="1200.97" r="14.4" fill="#009af9" fill-rule="evenodd" fill-opacity="1" stroke="#000000" stroke-opacity="1" stroke-width="2.688"/>
<circle clip-path="url(#clip402)" cx="244.289" cy="640.911" r="14.4" fill="#009af9" fill-rule="evenodd" fill-opacity="1" stroke="#000000" stroke-opacity="1" stroke-width="2.688"/>
<circle clip-path="url(#clip402)" cx="281.088" cy="360.88" r="14.4" fill="#009af9" fill-rule="evenodd" fill-opacity="1" stroke="#000000" stroke-opacity="1" stroke-width="2.688"/>
<circle clip-path="url(#clip402)" cx="317.888" cy="220.864" r="14.4" fill="#009af9" fill-rule="evenodd" fill-opacity="1" stroke="#000000" stroke-opacity="1" stroke-width="2.688"/>
<circle clip-path="url(#clip402)" cx="354.687" cy="150.856" r="14.4" fill="#009af9" fill-rule="evenodd" fill-opacity="1" stroke="#000000" stroke-opacity="1" stroke-width="2.688"/>
<circle clip-path="url(#clip402)" cx="391.486" cy="115.852" r="14.4" fill="#009af9" fill-rule="evenodd" fill-opacity="1" stroke="#000000" stroke-opacity="1" stroke-width="2.688"/>
<circle clip-path="url(#clip402)" cx="428.286" cy="98.3499" r="14.4" fill="#009af9" fill-rule="evenodd" fill-opacity="1" stroke="#000000" stroke-opacity="1" stroke-width="2.688"/>
<circle clip-path="url(#clip402)" cx="465.085" cy="89.5989" r="14.4" fill="#009af9" fill-rule="evenodd" fill-opacity="1" stroke="#000000" stroke-opacity="1" stroke-width="2.688"/>
<circle clip-path="url(#clip402)" cx="501.885" cy="85.2234" r="14.4" fill="#009af9" fill-rule="evenodd" fill-opacity="1" stroke="#000000" stroke-opacity="1" stroke-width="2.688"/>
<circle clip-path="url(#clip402)" cx="538.684" cy="83.0357" r="14.4" fill="#009af9" fill-rule="evenodd" fill-opacity="1" stroke="#000000" stroke-opacity="1" stroke-width="2.688"/>
<circle clip-path="url(#clip402)" cx="575.483" cy="81.9418" r="14.4" fill="#009af9" fill-rule="evenodd" fill-opacity="1" stroke="#000000" stroke-opacity="1" stroke-width="2.688"/>
<circle clip-path="url(#clip402)" cx="612.283" cy="81.3948" r="14.4" fill="#009af9" fill-rule="evenodd" fill-opacity="1" stroke="#000000" stroke-opacity="1" stroke-width="2.688"/>
<circle clip-path="url(#clip402)" cx="649.082" cy="81.1214" r="14.4" fill="#009af9" fill-rule="evenodd" fill-opacity="1" stroke="#000000" stroke-opacity="1" stroke-width="2.688"/>
<circle clip-path="url(#clip402)" cx="685.882" cy="80.9846" r="14.4" fill="#009af9" fill-rule="evenodd" fill-opacity="1" stroke="#000000" stroke-opacity="1" stroke-width="2.688"/>
<circle clip-path="url(#clip402)" cx="722.681" cy="80.9163" r="14.4" fill="#009af9" fill-rule="evenodd" fill-opacity="1" stroke="#000000" stroke-opacity="1" stroke-width="2.688"/>
<circle clip-path="url(#clip402)" cx="759.481" cy="80.8821" r="14.4" fill="#009af9" fill-rule="evenodd" fill-opacity="1" stroke="#000000" stroke-opacity="1" stroke-width="2.688"/>
<circle clip-path="url(#clip402)" cx="796.28" cy="80.865" r="14.4" fill="#009af9" fill-rule="evenodd" fill-opacity="1" stroke="#000000" stroke-opacity="1" stroke-width="2.688"/>
<circle clip-path="url(#clip402)" cx="833.079" cy="80.8565" r="14.4" fill="#009af9" fill-rule="evenodd" fill-opacity="1" stroke="#000000" stroke-opacity="1" stroke-width="2.688"/>
<circle clip-path="url(#clip402)" cx="869.879" cy="80.8522" r="14.4" fill="#009af9" fill-rule="evenodd" fill-opacity="1" stroke="#000000" stroke-opacity="1" stroke-width="2.688"/>
<circle clip-path="url(#clip402)" cx="906.678" cy="80.85" r="14.4" fill="#009af9" fill-rule="evenodd" fill-opacity="1" stroke="#000000" stroke-opacity="1" stroke-width="2.688"/>
<circle clip-path="url(#clip402)" cx="943.478" cy="80.849" r="14.4" fill="#009af9" fill-rule="evenodd" fill-opacity="1" stroke="#000000" stroke-opacity="1" stroke-width="2.688"/>
<circle clip-path="url(#clip402)" cx="980.277" cy="80.8484" r="14.4" fill="#009af9" fill-rule="evenodd" fill-opacity="1" stroke="#000000" stroke-opacity="1" stroke-width="2.688"/>
<circle clip-path="url(#clip402)" cx="1017.08" cy="80.8482" r="14.4" fill="#009af9" fill-rule="evenodd" fill-opacity="1" stroke="#000000" stroke-opacity="1" stroke-width="2.688"/>
<circle clip-path="url(#clip402)" cx="1053.88" cy="80.848" r="14.4" fill="#009af9" fill-rule="evenodd" fill-opacity="1" stroke="#000000" stroke-opacity="1" stroke-width="2.688"/>
<circle clip-path="url(#clip402)" cx="1090.68" cy="80.848" r="14.4" fill="#009af9" fill-rule="evenodd" fill-opacity="1" stroke="#000000" stroke-opacity="1" stroke-width="2.688"/>
<circle clip-path="url(#clip402)" cx="1127.47" cy="80.8479" r="14.4" fill="#009af9" fill-rule="evenodd" fill-opacity="1" stroke="#000000" stroke-opacity="1" stroke-width="2.688"/>
<circle clip-path="url(#clip402)" cx="1164.27" cy="80.8479" r="14.4" fill="#009af9" fill-rule="evenodd" fill-opacity="1" stroke="#000000" stroke-opacity="1" stroke-width="2.688"/>
<circle clip-path="url(#clip402)" cx="1201.07" cy="80.8479" r="14.4" fill="#009af9" fill-rule="evenodd" fill-opacity="1" stroke="#000000" stroke-opacity="1" stroke-width="2.688"/>
<circle clip-path="url(#clip402)" cx="1237.87" cy="80.8479" r="14.4" fill="#009af9" fill-rule="evenodd" fill-opacity="1" stroke="#000000" stroke-opacity="1" stroke-width="2.688"/>
<circle clip-path="url(#clip402)" cx="1274.67" cy="80.8479" r="14.4" fill="#009af9" fill-rule="evenodd" fill-opacity="1" stroke="#000000" stroke-opacity="1" stroke-width="2.688"/>
<circle clip-path="url(#clip402)" cx="1311.47" cy="80.8479" r="14.4" fill="#009af9" fill-rule="evenodd" fill-opacity="1" stroke="#000000" stroke-opacity="1" stroke-width="2.688"/>
<circle clip-path="url(#clip402)" cx="1348.27" cy="80.8479" r="14.4" fill="#009af9" fill-rule="evenodd" fill-opacity="1" stroke="#000000" stroke-opacity="1" stroke-width="2.688"/>
<circle clip-path="url(#clip402)" cx="1385.07" cy="80.8479" r="14.4" fill="#009af9" fill-rule="evenodd" fill-opacity="1" stroke="#000000" stroke-opacity="1" stroke-width="2.688"/>
<circle clip-path="url(#clip402)" cx="1421.87" cy="80.8479" r="14.4" fill="#009af9" fill-rule="evenodd" fill-opacity="1" stroke="#000000" stroke-opacity="1" stroke-width="2.688"/>
<circle clip-path="url(#clip402)" cx="1458.67" cy="80.8479" r="14.4" fill="#009af9" fill-rule="evenodd" fill-opacity="1" stroke="#000000" stroke-opacity="1" stroke-width="2.688"/>
<circle clip-path="url(#clip402)" cx="1495.47" cy="80.8479" r="14.4" fill="#009af9" fill-rule="evenodd" fill-opacity="1" stroke="#000000" stroke-opacity="1" stroke-width="2.688"/>
<circle clip-path="url(#clip402)" cx="1532.27" cy="80.8479" r="14.4" fill="#009af9" fill-rule="evenodd" fill-opacity="1" stroke="#000000" stroke-opacity="1" stroke-width="2.688"/>
<circle clip-path="url(#clip402)" cx="1569.07" cy="80.8479" r="14.4" fill="#009af9" fill-rule="evenodd" fill-opacity="1" stroke="#000000" stroke-opacity="1" stroke-width="2.688"/>
<circle clip-path="url(#clip402)" cx="1605.87" cy="80.8479" r="14.4" fill="#009af9" fill-rule="evenodd" fill-opacity="1" stroke="#000000" stroke-opacity="1" stroke-width="2.688"/>
<circle clip-path="url(#clip402)" cx="1642.67" cy="80.8479" r="14.4" fill="#009af9" fill-rule="evenodd" fill-opacity="1" stroke="#000000" stroke-opacity="1" stroke-width="2.688"/>
<circle clip-path="url(#clip402)" cx="1679.47" cy="80.8479" r="14.4" fill="#009af9" fill-rule="evenodd" fill-opacity="1" stroke="#000000" stroke-opacity="1" stroke-width="2.688"/>
<circle clip-path="url(#clip402)" cx="1716.27" cy="80.8479" r="14.4" fill="#009af9" fill-rule="evenodd" fill-opacity="1" stroke="#000000" stroke-opacity="1" stroke-width="2.688"/>
<circle clip-path="url(#clip402)" cx="1753.06" cy="80.8479" r="14.4" fill="#009af9" fill-rule="evenodd" fill-opacity="1" stroke="#000000" stroke-opacity="1" stroke-width="2.688"/>
<circle clip-path="url(#clip402)" cx="1789.86" cy="80.8479" r="14.4" fill="#009af9" fill-rule="evenodd" fill-opacity="1" stroke="#000000" stroke-opacity="1" stroke-width="2.688"/>
<circle clip-path="url(#clip402)" cx="1826.66" cy="80.8479" r="14.4" fill="#009af9" fill-rule="evenodd" fill-opacity="1" stroke="#000000" stroke-opacity="1" stroke-width="2.688"/>
<circle clip-path="url(#clip402)" cx="1863.46" cy="80.8479" r="14.4" fill="#009af9" fill-rule="evenodd" fill-opacity="1" stroke="#000000" stroke-opacity="1" stroke-width="2.688"/>
<circle clip-path="url(#clip402)" cx="1900.26" cy="80.8479" r="14.4" fill="#009af9" fill-rule="evenodd" fill-opacity="1" stroke="#000000" stroke-opacity="1" stroke-width="2.688"/>
<circle clip-path="url(#clip402)" cx="1937.06" cy="80.8479" r="14.4" fill="#009af9" fill-rule="evenodd" fill-opacity="1" stroke="#000000" stroke-opacity="1" stroke-width="2.688"/>
<circle clip-path="url(#clip402)" cx="1973.86" cy="80.8479" r="14.4" fill="#009af9" fill-rule="evenodd" fill-opacity="1" stroke="#000000" stroke-opacity="1" stroke-width="2.688"/>
<circle clip-path="url(#clip402)" cx="2010.66" cy="80.8479" r="14.4" fill="#009af9" fill-rule="evenodd" fill-opacity="1" stroke="#000000" stroke-opacity="1" stroke-width="2.688"/>
</svg>
