<?xml version="1.0" encoding="utf-8"?>
<svg xmlns="http://www.w3.org/2000/svg" xmlns:xlink="http://www.w3.org/1999/xlink" width="528" height="336" viewBox="0 0 2112 1344">
<defs>
  <clipPath id="clip330">
    <rect x="0" y="0" width="2112" height="1344"/>
  </clipPath>
</defs>
<path clip-path="url(#clip330)" d="M0 1344 L2112 1344 L2112 0 L0 0  Z" fill="#ffffff" fill-rule="evenodd" fill-opacity="1"/>
<defs>
  <clipPath id="clip331">
    <rect x="422" y="0" width="1479" height="1344"/>
  </clipPath>
</defs>
<path clip-path="url(#clip330)" d="M221.218 1234.58 L2064.76 1234.58 L2064.76 47.2441 L221.218 47.2441  Z" fill="#ffffff" fill-rule="evenodd" fill-opacity="1"/>
<defs>
  <clipPath id="clip332">
    <rect x="221" y="47" width="1845" height="1188"/>
  </clipPath>
</defs>
<polyline clip-path="url(#clip332)" style="stroke:#000000; stroke-linecap:round; stroke-linejoin:round; stroke-width:2; stroke-opacity:0.1; fill:none" points="273.393,1234.58 273.393,47.2441 "/>
<polyline clip-path="url(#clip332)" style="stroke:#000000; stroke-linecap:round; stroke-linejoin:round; stroke-width:2; stroke-opacity:0.1; fill:none" points="659.879,1234.58 659.879,47.2441 "/>
<polyline clip-path="url(#clip332)" style="stroke:#000000; stroke-linecap:round; stroke-linejoin:round; stroke-width:2; stroke-opacity:0.1; fill:none" points="1046.37,1234.58 1046.37,47.2441 "/>
<polyline clip-path="url(#clip332)" style="stroke:#000000; stroke-linecap:round; stroke-linejoin:round; stroke-width:2; stroke-opacity:0.1; fill:none" points="1432.85,1234.58 1432.85,47.2441 "/>
<polyline clip-path="url(#clip332)" style="stroke:#000000; stroke-linecap:round; stroke-linejoin:round; stroke-width:2; stroke-opacity:0.1; fill:none" points="1819.34,1234.58 1819.34,47.2441 "/>
<polyline clip-path="url(#clip330)" style="stroke:#000000; stroke-linecap:round; stroke-linejoin:round; stroke-width:4; stroke-opacity:1; fill:none" points="221.218,1234.58 2064.76,1234.58 "/>
<polyline clip-path="url(#clip330)" style="stroke:#000000; stroke-linecap:round; stroke-linejoin:round; stroke-width:4; stroke-opacity:1; fill:none" points="273.393,1234.58 273.393,1215.68 "/>
<polyline clip-path="url(#clip330)" style="stroke:#000000; stroke-linecap:round; stroke-linejoin:round; stroke-width:4; stroke-opacity:1; fill:none" points="659.879,1234.58 659.879,1215.68 "/>
<polyline clip-path="url(#clip330)" style="stroke:#000000; stroke-linecap:round; stroke-linejoin:round; stroke-width:4; stroke-opacity:1; fill:none" points="1046.37,1234.58 1046.37,1215.68 "/>
<polyline clip-path="url(#clip330)" style="stroke:#000000; stroke-linecap:round; stroke-linejoin:round; stroke-width:4; stroke-opacity:1; fill:none" points="1432.85,1234.58 1432.85,1215.68 "/>
<polyline clip-path="url(#clip330)" style="stroke:#000000; stroke-linecap:round; stroke-linejoin:round; stroke-width:4; stroke-opacity:1; fill:none" points="1819.34,1234.58 1819.34,1215.68 "/>
<path clip-path="url(#clip330)" d="M273.393 1263.19 Q269.782 1263.19 267.954 1266.76 Q266.148 1270.3 266.148 1277.43 Q266.148 1284.54 267.954 1288.1 Q269.782 1291.64 273.393 1291.64 Q277.028 1291.64 278.833 1288.1 Q280.662 1284.54 280.662 1277.43 Q280.662 1270.3 278.833 1266.76 Q277.028 1263.19 273.393 1263.19 M273.393 1259.49 Q279.204 1259.49 282.259 1264.1 Q285.338 1268.68 285.338 1277.43 Q285.338 1286.16 282.259 1290.76 Q279.204 1295.35 273.393 1295.35 Q267.583 1295.35 264.505 1290.76 Q261.449 1286.16 261.449 1277.43 Q261.449 1268.68 264.505 1264.1 Q267.583 1259.49 273.393 1259.49 Z" fill="#000000" fill-rule="nonzero" fill-opacity="1" /><path clip-path="url(#clip330)" d="M654.532 1290.74 L670.852 1290.74 L670.852 1294.67 L648.907 1294.67 L648.907 1290.74 Q651.569 1287.99 656.153 1283.36 Q660.759 1278.7 661.94 1277.36 Q664.185 1274.84 665.065 1273.1 Q665.967 1271.34 665.967 1269.65 Q665.967 1266.9 664.023 1265.16 Q662.102 1263.42 659 1263.42 Q656.801 1263.42 654.347 1264.19 Q651.917 1264.95 649.139 1266.5 L649.139 1261.78 Q651.963 1260.65 654.417 1260.07 Q656.87 1259.49 658.907 1259.49 Q664.278 1259.49 667.472 1262.17 Q670.666 1264.86 670.666 1269.35 Q670.666 1271.48 669.856 1273.4 Q669.069 1275.3 666.963 1277.89 Q666.384 1278.56 663.282 1281.78 Q660.18 1284.98 654.532 1290.74 Z" fill="#000000" fill-rule="nonzero" fill-opacity="1" /><path clip-path="url(#clip330)" d="M1049.37 1264.19 L1037.57 1282.64 L1049.37 1282.64 L1049.37 1264.19 M1048.15 1260.11 L1054.03 1260.11 L1054.03 1282.64 L1058.96 1282.64 L1058.96 1286.53 L1054.03 1286.53 L1054.03 1294.67 L1049.37 1294.67 L1049.37 1286.53 L1033.77 1286.53 L1033.77 1282.01 L1048.15 1260.11 Z" fill="#000000" fill-rule="nonzero" fill-opacity="1" /><path clip-path="url(#clip330)" d="M1433.26 1275.53 Q1430.11 1275.53 1428.26 1277.68 Q1426.43 1279.84 1426.43 1283.59 Q1426.43 1287.31 1428.26 1289.49 Q1430.11 1291.64 1433.26 1291.64 Q1436.4 1291.64 1438.23 1289.49 Q1440.09 1287.31 1440.09 1283.59 Q1440.09 1279.84 1438.23 1277.68 Q1436.4 1275.53 1433.26 1275.53 M1442.54 1260.88 L1442.54 1265.14 Q1440.78 1264.3 1438.97 1263.86 Q1437.19 1263.42 1435.43 1263.42 Q1430.8 1263.42 1428.35 1266.55 Q1425.92 1269.67 1425.57 1275.99 Q1426.94 1273.98 1429 1272.92 Q1431.06 1271.83 1433.53 1271.83 Q1438.74 1271.83 1441.75 1275 Q1444.78 1278.15 1444.78 1283.59 Q1444.78 1288.91 1441.64 1292.13 Q1438.49 1295.35 1433.26 1295.35 Q1427.26 1295.35 1424.09 1290.76 Q1420.92 1286.16 1420.92 1277.43 Q1420.92 1269.24 1424.81 1264.37 Q1428.7 1259.49 1435.25 1259.49 Q1437.01 1259.49 1438.79 1259.84 Q1440.59 1260.18 1442.54 1260.88 Z" fill="#000000" fill-rule="nonzero" fill-opacity="1" /><path clip-path="url(#clip330)" d="M1819.34 1278.26 Q1816 1278.26 1814.08 1280.05 Q1812.18 1281.83 1812.18 1284.95 Q1812.18 1288.08 1814.08 1289.86 Q1816 1291.64 1819.34 1291.64 Q1822.67 1291.64 1824.59 1289.86 Q1826.51 1288.05 1826.51 1284.95 Q1826.51 1281.83 1824.59 1280.05 Q1822.69 1278.26 1819.34 1278.26 M1814.66 1276.27 Q1811.65 1275.53 1809.96 1273.47 Q1808.3 1271.41 1808.3 1268.45 Q1808.3 1264.3 1811.24 1261.9 Q1814.2 1259.49 1819.34 1259.49 Q1824.5 1259.49 1827.44 1261.9 Q1830.38 1264.3 1830.38 1268.45 Q1830.38 1271.41 1828.69 1273.47 Q1827.02 1275.53 1824.04 1276.27 Q1827.42 1277.06 1829.29 1279.35 Q1831.19 1281.64 1831.19 1284.95 Q1831.19 1289.98 1828.11 1292.66 Q1825.05 1295.35 1819.34 1295.35 Q1813.62 1295.35 1810.54 1292.66 Q1807.49 1289.98 1807.49 1284.95 Q1807.49 1281.64 1809.38 1279.35 Q1811.28 1277.06 1814.66 1276.27 M1812.95 1268.89 Q1812.95 1271.57 1814.62 1273.08 Q1816.3 1274.58 1819.34 1274.58 Q1822.35 1274.58 1824.04 1273.08 Q1825.75 1271.57 1825.75 1268.89 Q1825.75 1266.2 1824.04 1264.7 Q1822.35 1263.19 1819.34 1263.19 Q1816.3 1263.19 1814.62 1264.7 Q1812.95 1266.2 1812.95 1268.89 Z" fill="#000000" fill-rule="nonzero" fill-opacity="1" /><polyline clip-path="url(#clip332)" style="stroke:#000000; stroke-linecap:round; stroke-linejoin:round; stroke-width:2; stroke-opacity:0.1; fill:none" points="221.218,1200.97 2064.76,1200.97 "/>
<polyline clip-path="url(#clip332)" style="stroke:#000000; stroke-linecap:round; stroke-linejoin:round; stroke-width:2; stroke-opacity:0.1; fill:none" points="221.218,976.95 2064.76,976.95 "/>
<polyline clip-path="url(#clip332)" style="stroke:#000000; stroke-linecap:round; stroke-linejoin:round; stroke-width:2; stroke-opacity:0.1; fill:none" points="221.218,752.924 2064.76,752.924 "/>
<polyline clip-path="url(#clip332)" style="stroke:#000000; stroke-linecap:round; stroke-linejoin:round; stroke-width:2; stroke-opacity:0.1; fill:none" points="221.218,528.899 2064.76,528.899 "/>
<polyline clip-path="url(#clip332)" style="stroke:#000000; stroke-linecap:round; stroke-linejoin:round; stroke-width:2; stroke-opacity:0.1; fill:none" points="221.218,304.873 2064.76,304.873 "/>
<polyline clip-path="url(#clip332)" style="stroke:#000000; stroke-linecap:round; stroke-linejoin:round; stroke-width:2; stroke-opacity:0.1; fill:none" points="221.218,80.8479 2064.76,80.8479 "/>
<polyline clip-path="url(#clip330)" style="stroke:#000000; stroke-linecap:round; stroke-linejoin:round; stroke-width:4; stroke-opacity:1; fill:none" points="221.218,1234.58 221.218,47.2441 "/>
<polyline clip-path="url(#clip330)" style="stroke:#000000; stroke-linecap:round; stroke-linejoin:round; stroke-width:4; stroke-opacity:1; fill:none" points="221.218,1200.97 240.116,1200.97 "/>
<polyline clip-path="url(#clip330)" style="stroke:#000000; stroke-linecap:round; stroke-linejoin:round; stroke-width:4; stroke-opacity:1; fill:none" points="221.218,976.95 240.116,976.95 "/>
<polyline clip-path="url(#clip330)" style="stroke:#000000; stroke-linecap:round; stroke-linejoin:round; stroke-width:4; stroke-opacity:1; fill:none" points="221.218,752.924 240.116,752.924 "/>
<polyline clip-path="url(#clip330)" style="stroke:#000000; stroke-linecap:round; stroke-linejoin:round; stroke-width:4; stroke-opacity:1; fill:none" points="221.218,528.899 240.116,528.899 "/>
<polyline clip-path="url(#clip330)" style="stroke:#000000; stroke-linecap:round; stroke-linejoin:round; stroke-width:4; stroke-opacity:1; fill:none" points="221.218,304.873 240.116,304.873 "/>
<polyline clip-path="url(#clip330)" style="stroke:#000000; stroke-linecap:round; stroke-linejoin:round; stroke-width:4; stroke-opacity:1; fill:none" points="221.218,80.8479 240.116,80.8479 "/>
<path clip-path="url(#clip330)" d="M52.4321 1201.43 L82.1079 1201.43 L82.1079 1205.36 L52.4321 1205.36 L52.4321 1201.43 Z" fill="#000000" fill-rule="nonzero" fill-opacity="1" /><path clip-path="url(#clip330)" d="M102.2 1186.77 Q98.5893 1186.77 96.7606 1190.34 Q94.955 1193.88 94.955 1201.01 Q94.955 1208.12 96.7606 1211.68 Q98.5893 1215.22 102.2 1215.22 Q105.835 1215.22 107.64 1211.68 Q109.469 1208.12 109.469 1201.01 Q109.469 1193.88 107.64 1190.34 Q105.835 1186.77 102.2 1186.77 M102.2 1183.07 Q108.011 1183.07 111.066 1187.68 Q114.145 1192.26 114.145 1201.01 Q114.145 1209.74 111.066 1214.34 Q108.011 1218.93 102.2 1218.93 Q96.3902 1218.93 93.3115 1214.34 Q90.256 1209.74 90.256 1201.01 Q90.256 1192.26 93.3115 1187.68 Q96.3902 1183.07 102.2 1183.07 Z" fill="#000000" fill-rule="nonzero" fill-opacity="1" /><path clip-path="url(#clip330)" d="M122.362 1212.38 L127.247 1212.38 L127.247 1218.25 L122.362 1218.25 L122.362 1212.38 Z" fill="#000000" fill-rule="nonzero" fill-opacity="1" /><path clip-path="url(#clip330)" d="M137.478 1183.69 L155.834 1183.69 L155.834 1187.63 L141.76 1187.63 L141.76 1196.1 Q142.779 1195.76 143.797 1195.59 Q144.816 1195.41 145.834 1195.41 Q151.621 1195.41 155.001 1198.58 Q158.381 1201.75 158.381 1207.17 Q158.381 1212.75 154.908 1215.85 Q151.436 1218.93 145.117 1218.93 Q142.941 1218.93 140.672 1218.56 Q138.427 1218.19 136.02 1217.44 L136.02 1212.75 Q138.103 1213.88 140.325 1214.44 Q142.547 1214.99 145.024 1214.99 Q149.029 1214.99 151.367 1212.88 Q153.705 1210.78 153.705 1207.17 Q153.705 1203.56 151.367 1201.45 Q149.029 1199.34 145.024 1199.34 Q143.149 1199.34 141.274 1199.76 Q139.422 1200.18 137.478 1201.06 L137.478 1183.69 Z" fill="#000000" fill-rule="nonzero" fill-opacity="1" /><path clip-path="url(#clip330)" d="M177.593 1186.77 Q173.982 1186.77 172.154 1190.34 Q170.348 1193.88 170.348 1201.01 Q170.348 1208.12 172.154 1211.68 Q173.982 1215.22 177.593 1215.22 Q181.228 1215.22 183.033 1211.68 Q184.862 1208.12 184.862 1201.01 Q184.862 1193.88 183.033 1190.34 Q181.228 1186.77 177.593 1186.77 M177.593 1183.07 Q183.404 1183.07 186.459 1187.68 Q189.538 1192.26 189.538 1201.01 Q189.538 1209.74 186.459 1214.34 Q183.404 1218.93 177.593 1218.93 Q171.783 1218.93 168.705 1214.34 Q165.649 1209.74 165.649 1201.01 Q165.649 1192.26 168.705 1187.68 Q171.783 1183.07 177.593 1183.07 Z" fill="#000000" fill-rule="nonzero" fill-opacity="1" /><path clip-path="url(#clip330)" d="M53.4275 977.401 L83.1033 977.401 L83.1033 981.336 L53.4275 981.336 L53.4275 977.401 Z" fill="#000000" fill-rule="nonzero" fill-opacity="1" /><path clip-path="url(#clip330)" d="M103.196 962.748 Q99.5847 962.748 97.756 966.313 Q95.9504 969.855 95.9504 976.984 Q95.9504 984.091 97.756 987.656 Q99.5847 991.197 103.196 991.197 Q106.83 991.197 108.636 987.656 Q110.464 984.091 110.464 976.984 Q110.464 969.855 108.636 966.313 Q106.83 962.748 103.196 962.748 M103.196 959.045 Q109.006 959.045 112.061 963.651 Q115.14 968.234 115.14 976.984 Q115.14 985.711 112.061 990.318 Q109.006 994.901 103.196 994.901 Q97.3856 994.901 94.3069 990.318 Q91.2514 985.711 91.2514 976.984 Q91.2514 968.234 94.3069 963.651 Q97.3856 959.045 103.196 959.045 Z" fill="#000000" fill-rule="nonzero" fill-opacity="1" /><path clip-path="url(#clip330)" d="M123.358 988.35 L128.242 988.35 L128.242 994.23 L123.358 994.23 L123.358 988.35 Z" fill="#000000" fill-rule="nonzero" fill-opacity="1" /><path clip-path="url(#clip330)" d="M151.274 963.744 L139.469 982.193 L151.274 982.193 L151.274 963.744 M150.047 959.67 L155.927 959.67 L155.927 982.193 L160.857 982.193 L160.857 986.081 L155.927 986.081 L155.927 994.23 L151.274 994.23 L151.274 986.081 L135.672 986.081 L135.672 981.568 L150.047 959.67 Z" fill="#000000" fill-rule="nonzero" fill-opacity="1" /><path clip-path="url(#clip330)" d="M168.635 959.67 L186.992 959.67 L186.992 963.605 L172.918 963.605 L172.918 972.077 Q173.936 971.73 174.955 971.568 Q175.973 971.382 176.992 971.382 Q182.779 971.382 186.158 974.554 Q189.538 977.725 189.538 983.142 Q189.538 988.72 186.066 991.822 Q182.593 994.901 176.274 994.901 Q174.098 994.901 171.83 994.53 Q169.584 994.16 167.177 993.419 L167.177 988.72 Q169.26 989.855 171.482 990.41 Q173.705 990.966 176.181 990.966 Q180.186 990.966 182.524 988.859 Q184.862 986.753 184.862 983.142 Q184.862 979.531 182.524 977.424 Q180.186 975.318 176.181 975.318 Q174.306 975.318 172.431 975.734 Q170.58 976.151 168.635 977.031 L168.635 959.67 Z" fill="#000000" fill-rule="nonzero" fill-opacity="1" /><path clip-path="url(#clip330)" d="M52.4321 753.376 L82.1079 753.376 L82.1079 757.311 L52.4321 757.311 L52.4321 753.376 Z" fill="#000000" fill-rule="nonzero" fill-opacity="1" /><path clip-path="url(#clip330)" d="M102.2 738.723 Q98.5893 738.723 96.7606 742.288 Q94.955 745.829 94.955 752.959 Q94.955 760.065 96.7606 763.63 Q98.5893 767.172 102.2 767.172 Q105.835 767.172 107.64 763.63 Q109.469 760.065 109.469 752.959 Q109.469 745.829 107.64 742.288 Q105.835 738.723 102.2 738.723 M102.2 735.019 Q108.011 735.019 111.066 739.626 Q114.145 744.209 114.145 752.959 Q114.145 761.686 111.066 766.292 Q108.011 770.875 102.2 770.875 Q96.3902 770.875 93.3115 766.292 Q90.256 761.686 90.256 752.959 Q90.256 744.209 93.3115 739.626 Q96.3902 735.019 102.2 735.019 Z" fill="#000000" fill-rule="nonzero" fill-opacity="1" /><path clip-path="url(#clip330)" d="M122.362 764.325 L127.247 764.325 L127.247 770.204 L122.362 770.204 L122.362 764.325 Z" fill="#000000" fill-rule="nonzero" fill-opacity="1" /><path clip-path="url(#clip330)" d="M150.279 739.718 L138.473 758.167 L150.279 758.167 L150.279 739.718 M149.052 735.644 L154.932 735.644 L154.932 758.167 L159.862 758.167 L159.862 762.056 L154.932 762.056 L154.932 770.204 L150.279 770.204 L150.279 762.056 L134.677 762.056 L134.677 757.542 L149.052 735.644 Z" fill="#000000" fill-rule="nonzero" fill-opacity="1" /><path clip-path="url(#clip330)" d="M177.593 738.723 Q173.982 738.723 172.154 742.288 Q170.348 745.829 170.348 752.959 Q170.348 760.065 172.154 763.63 Q173.982 767.172 177.593 767.172 Q181.228 767.172 183.033 763.63 Q184.862 760.065 184.862 752.959 Q184.862 745.829 183.033 742.288 Q181.228 738.723 177.593 738.723 M177.593 735.019 Q183.404 735.019 186.459 739.626 Q189.538 744.209 189.538 752.959 Q189.538 761.686 186.459 766.292 Q183.404 770.875 177.593 770.875 Q171.783 770.875 168.705 766.292 Q165.649 761.686 165.649 752.959 Q165.649 744.209 168.705 739.626 Q171.783 735.019 177.593 735.019 Z" fill="#000000" fill-rule="nonzero" fill-opacity="1" /><path clip-path="url(#clip330)" d="M53.4275 529.35 L83.1033 529.35 L83.1033 533.285 L53.4275 533.285 L53.4275 529.35 Z" fill="#000000" fill-rule="nonzero" fill-opacity="1" /><path clip-path="url(#clip330)" d="M103.196 514.697 Q99.5847 514.697 97.756 518.262 Q95.9504 521.804 95.9504 528.933 Q95.9504 536.04 97.756 539.605 Q99.5847 543.146 103.196 543.146 Q106.83 543.146 108.636 539.605 Q110.464 536.04 110.464 528.933 Q110.464 521.804 108.636 518.262 Q106.83 514.697 103.196 514.697 M103.196 510.994 Q109.006 510.994 112.061 515.6 Q115.14 520.184 115.14 528.933 Q115.14 537.66 112.061 542.267 Q109.006 546.85 103.196 546.85 Q97.3856 546.85 94.3069 542.267 Q91.2514 537.66 91.2514 528.933 Q91.2514 520.184 94.3069 515.6 Q97.3856 510.994 103.196 510.994 Z" fill="#000000" fill-rule="nonzero" fill-opacity="1" /><path clip-path="url(#clip330)" d="M123.358 540.299 L128.242 540.299 L128.242 546.179 L123.358 546.179 L123.358 540.299 Z" fill="#000000" fill-rule="nonzero" fill-opacity="1" /><path clip-path="url(#clip330)" d="M152.594 527.545 Q155.95 528.262 157.825 530.531 Q159.723 532.799 159.723 536.132 Q159.723 541.248 156.205 544.049 Q152.686 546.85 146.205 546.85 Q144.029 546.85 141.714 546.41 Q139.422 545.994 136.969 545.137 L136.969 540.623 Q138.913 541.757 141.228 542.336 Q143.543 542.915 146.066 542.915 Q150.464 542.915 152.756 541.179 Q155.07 539.443 155.07 536.132 Q155.07 533.077 152.918 531.364 Q150.788 529.628 146.969 529.628 L142.941 529.628 L142.941 525.785 L147.154 525.785 Q150.603 525.785 152.432 524.42 Q154.26 523.031 154.26 520.438 Q154.26 517.776 152.362 516.364 Q150.487 514.929 146.969 514.929 Q145.047 514.929 142.848 515.346 Q140.649 515.762 138.01 516.642 L138.01 512.475 Q140.672 511.734 142.987 511.364 Q145.325 510.994 147.385 510.994 Q152.709 510.994 155.811 513.424 Q158.913 515.832 158.913 519.952 Q158.913 522.822 157.27 524.813 Q155.626 526.781 152.594 527.545 Z" fill="#000000" fill-rule="nonzero" fill-opacity="1" /><path clip-path="url(#clip330)" d="M168.635 511.619 L186.992 511.619 L186.992 515.554 L172.918 515.554 L172.918 524.026 Q173.936 523.679 174.955 523.517 Q175.973 523.332 176.992 523.332 Q182.779 523.332 186.158 526.503 Q189.538 529.674 189.538 535.091 Q189.538 540.67 186.066 543.771 Q182.593 546.85 176.274 546.85 Q174.098 546.85 171.83 546.48 Q169.584 546.109 167.177 545.369 L167.177 540.67 Q169.26 541.804 171.482 542.359 Q173.705 542.915 176.181 542.915 Q180.186 542.915 182.524 540.808 Q184.862 538.702 184.862 535.091 Q184.862 531.48 182.524 529.373 Q180.186 527.267 176.181 527.267 Q174.306 527.267 172.431 527.683 Q170.58 528.1 168.635 528.98 L168.635 511.619 Z" fill="#000000" fill-rule="nonzero" fill-opacity="1" /><path clip-path="url(#clip330)" d="M52.4321 305.325 L82.1079 305.325 L82.1079 309.26 L52.4321 309.26 L52.4321 305.325 Z" fill="#000000" fill-rule="nonzero" fill-opacity="1" /><path clip-path="url(#clip330)" d="M102.2 290.672 Q98.5893 290.672 96.7606 294.237 Q94.955 297.778 94.955 304.908 Q94.955 312.014 96.7606 315.579 Q98.5893 319.121 102.2 319.121 Q105.835 319.121 107.64 315.579 Q109.469 312.014 109.469 304.908 Q109.469 297.778 107.64 294.237 Q105.835 290.672 102.2 290.672 M102.2 286.968 Q108.011 286.968 111.066 291.575 Q114.145 296.158 114.145 304.908 Q114.145 313.635 111.066 318.241 Q108.011 322.825 102.2 322.825 Q96.3902 322.825 93.3115 318.241 Q90.256 313.635 90.256 304.908 Q90.256 296.158 93.3115 291.575 Q96.3902 286.968 102.2 286.968 Z" fill="#000000" fill-rule="nonzero" fill-opacity="1" /><path clip-path="url(#clip330)" d="M122.362 316.274 L127.247 316.274 L127.247 322.153 L122.362 322.153 L122.362 316.274 Z" fill="#000000" fill-rule="nonzero" fill-opacity="1" /><path clip-path="url(#clip330)" d="M151.598 303.519 Q154.955 304.237 156.83 306.505 Q158.728 308.774 158.728 312.107 Q158.728 317.223 155.209 320.024 Q151.691 322.825 145.209 322.825 Q143.033 322.825 140.719 322.385 Q138.427 321.968 135.973 321.112 L135.973 316.598 Q137.918 317.732 140.233 318.311 Q142.547 318.889 145.071 318.889 Q149.469 318.889 151.76 317.153 Q154.075 315.417 154.075 312.107 Q154.075 309.052 151.922 307.339 Q149.793 305.602 145.973 305.602 L141.946 305.602 L141.946 301.76 L146.158 301.76 Q149.608 301.76 151.436 300.394 Q153.265 299.005 153.265 296.413 Q153.265 293.751 151.367 292.339 Q149.492 290.903 145.973 290.903 Q144.052 290.903 141.853 291.32 Q139.654 291.737 137.015 292.616 L137.015 288.45 Q139.677 287.709 141.992 287.339 Q144.33 286.968 146.39 286.968 Q151.714 286.968 154.816 289.399 Q157.918 291.806 157.918 295.927 Q157.918 298.797 156.274 300.788 Q154.631 302.755 151.598 303.519 Z" fill="#000000" fill-rule="nonzero" fill-opacity="1" /><path clip-path="url(#clip330)" d="M177.593 290.672 Q173.982 290.672 172.154 294.237 Q170.348 297.778 170.348 304.908 Q170.348 312.014 172.154 315.579 Q173.982 319.121 177.593 319.121 Q181.228 319.121 183.033 315.579 Q184.862 312.014 184.862 304.908 Q184.862 297.778 183.033 294.237 Q181.228 290.672 177.593 290.672 M177.593 286.968 Q183.404 286.968 186.459 291.575 Q189.538 296.158 189.538 304.908 Q189.538 313.635 186.459 318.241 Q183.404 322.825 177.593 322.825 Q171.783 322.825 168.705 318.241 Q165.649 313.635 165.649 304.908 Q165.649 296.158 168.705 291.575 Q171.783 286.968 177.593 286.968 Z" fill="#000000" fill-rule="nonzero" fill-opacity="1" /><path clip-path="url(#clip330)" d="M53.4275 81.2993 L83.1033 81.2993 L83.1033 85.2345 L53.4275 85.2345 L53.4275 81.2993 Z" fill="#000000" fill-rule="nonzero" fill-opacity="1" /><path clip-path="url(#clip330)" d="M103.196 66.6466 Q99.5847 66.6466 97.756 70.2114 Q95.9504 73.753 95.9504 80.8826 Q95.9504 87.9891 97.756 91.5539 Q99.5847 95.0955 103.196 95.0955 Q106.83 95.0955 108.636 91.5539 Q110.464 87.9891 110.464 80.8826 Q110.464 73.753 108.636 70.2114 Q106.83 66.6466 103.196 66.6466 M103.196 62.9429 Q109.006 62.9429 112.061 67.5494 Q115.14 72.1327 115.14 80.8826 Q115.14 89.6094 112.061 94.2159 Q109.006 98.7992 103.196 98.7992 Q97.3856 98.7992 94.3069 94.2159 Q91.2514 89.6094 91.2514 80.8826 Q91.2514 72.1327 94.3069 67.5494 Q97.3856 62.9429 103.196 62.9429 Z" fill="#000000" fill-rule="nonzero" fill-opacity="1" /><path clip-path="url(#clip330)" d="M123.358 92.2483 L128.242 92.2483 L128.242 98.1279 L123.358 98.1279 L123.358 92.2483 Z" fill="#000000" fill-rule="nonzero" fill-opacity="1" /><path clip-path="url(#clip330)" d="M142.455 94.1927 L158.774 94.1927 L158.774 98.1279 L136.83 98.1279 L136.83 94.1927 Q139.492 91.4381 144.075 86.8085 Q148.682 82.1558 149.862 80.8132 Q152.108 78.29 152.987 76.5539 Q153.89 74.7947 153.89 73.1049 Q153.89 70.3503 151.945 68.6142 Q150.024 66.8781 146.922 66.8781 Q144.723 66.8781 142.27 67.642 Q139.839 68.4058 137.061 69.9568 L137.061 65.2346 Q139.885 64.1003 142.339 63.5216 Q144.793 62.9429 146.83 62.9429 Q152.2 62.9429 155.395 65.6281 Q158.589 68.3133 158.589 72.804 Q158.589 74.9336 157.779 76.8549 Q156.992 78.753 154.885 81.3456 Q154.307 82.0169 151.205 85.2345 Q148.103 88.4289 142.455 94.1927 Z" fill="#000000" fill-rule="nonzero" fill-opacity="1" /><path clip-path="url(#clip330)" d="M168.635 63.5679 L186.992 63.5679 L186.992 67.5031 L172.918 67.5031 L172.918 75.9752 Q173.936 75.628 174.955 75.466 Q175.973 75.2808 176.992 75.2808 Q182.779 75.2808 186.158 78.4521 Q189.538 81.6234 189.538 87.04 Q189.538 92.6187 186.066 95.7205 Q182.593 98.7992 176.274 98.7992 Q174.098 98.7992 171.83 98.4288 Q169.584 98.0585 167.177 97.3177 L167.177 92.6187 Q169.26 93.7529 171.482 94.3085 Q173.705 94.864 176.181 94.864 Q180.186 94.864 182.524 92.7576 Q184.862 90.6511 184.862 87.04 Q184.862 83.4289 182.524 81.3224 Q180.186 79.216 176.181 79.216 Q174.306 79.216 172.431 79.6326 Q170.58 80.0493 168.635 80.9289 L168.635 63.5679 Z" fill="#000000" fill-rule="nonzero" fill-opacity="1" /><circle clip-path="url(#clip332)" cx="273.393" cy="1200.97" r="14.4" fill="#009af9" fill-rule="evenodd" fill-opacity="1" stroke="#000000" stroke-opacity="1" stroke-width="2.688"/>
<circle clip-path="url(#clip332)" cx="466.636" cy="80.8479" r="14.4" fill="#009af9" fill-rule="evenodd" fill-opacity="1" stroke="#000000" stroke-opacity="1" stroke-width="2.688"/>
<circle clip-path="url(#clip332)" cx="659.879" cy="640.911" r="14.4" fill="#009af9" fill-rule="evenodd" fill-opacity="1" stroke="#000000" stroke-opacity="1" stroke-width="2.688"/>
<circle clip-path="url(#clip332)" cx="853.122" cy="360.88" r="14.4" fill="#009af9" fill-rule="evenodd" fill-opacity="1" stroke="#000000" stroke-opacity="1" stroke-width="2.688"/>
<circle clip-path="url(#clip332)" cx="1046.37" cy="500.896" r="14.4" fill="#009af9" fill-rule="evenodd" fill-opacity="1" stroke="#000000" stroke-opacity="1" stroke-width="2.688"/>
<circle clip-path="url(#clip332)" cx="1239.61" cy="430.888" r="14.4" fill="#009af9" fill-rule="evenodd" fill-opacity="1" stroke="#000000" stroke-opacity="1" stroke-width="2.688"/>
<circle clip-path="url(#clip332)" cx="1432.85" cy="465.892" r="14.4" fill="#009af9" fill-rule="evenodd" fill-opacity="1" stroke="#000000" stroke-opacity="1" stroke-width="2.688"/>
<circle clip-path="url(#clip332)" cx="1626.09" cy="448.39" r="14.4" fill="#009af9" fill-rule="evenodd" fill-opacity="1" stroke="#000000" stroke-opacity="1" stroke-width="2.688"/>
<circle clip-path="url(#clip332)" cx="1819.34" cy="457.141" r="14.4" fill="#009af9" fill-rule="evenodd" fill-opacity="1" stroke="#000000" stroke-opacity="1" stroke-width="2.688"/>
<circle clip-path="url(#clip332)" cx="2012.58" cy="1200.97" r="14.4" fill="#009af9" fill-rule="evenodd" fill-opacity="1" stroke="#000000" stroke-opacity="1" stroke-width="2.688"/>
<path clip-path="url(#clip330)" d="M1574.87 203.161 L2003.3 203.161 L2003.3 86.8219 L1574.87 86.8219  Z" fill="#ffffff" fill-rule="evenodd" fill-opacity="1"/>
<polyline clip-path="url(#clip330)" style="stroke:#000000; stroke-linecap:round; stroke-linejoin:round; stroke-width:4; stroke-opacity:1; fill:none" points="1574.87,203.161 2003.3,203.161 2003.3,86.8219 1574.87,86.8219 1574.87,203.161 "/>
<circle clip-path="url(#clip330)" cx="1656.8" cy="144.992" r="20.48" fill="#009af9" fill-rule="evenodd" fill-opacity="1" stroke="#000000" stroke-opacity="1" stroke-width="3.82293"/>
<path clip-path="url(#clip330)" d="M1783.97 162.243 L1779.84 174.189 L1740.07 174.189 Q1739.53 174.189 1739.32 174.165 Q1739.11 174.142 1738.95 174.025 Q1738.78 173.908 1738.78 173.65 Q1738.78 173.439 1739.21 172.901 L1756.23 151.844 L1738.74 127.766 Q1738.74 126.665 1738.92 126.454 Q1739.11 126.22 1740.07 126.22 L1779.84 126.22 L1783.97 137.439 L1782.77 137.439 Q1782.23 135.987 1781.37 134.769 Q1780.52 133.528 1779.54 132.637 Q1778.58 131.747 1777.31 131.045 Q1776.07 130.319 1774.9 129.874 Q1773.75 129.405 1772.33 129.077 Q1770.9 128.726 1769.75 128.562 Q1768.62 128.375 1767.22 128.281 Q1765.81 128.187 1764.92 128.164 Q1764.03 128.14 1762.91 128.14 L1743.91 128.14 L1759.49 149.525 Q1759.84 150.064 1759.84 150.204 Q1759.84 150.415 1759.4 150.977 L1742.77 171.542 L1763.14 171.542 Q1769.7 171.542 1774.27 170.16 Q1777.36 169.106 1779.61 167.022 Q1781.88 164.937 1782.77 162.243 L1783.97 162.243 Z" fill="#000000" fill-rule="nonzero" fill-opacity="1" /><path clip-path="url(#clip330)" d="M1816.92 150.204 Q1816.92 142.1 1819.94 135.565 Q1821.23 132.825 1823.03 130.529 Q1824.84 128.234 1826.03 127.227 Q1827.23 126.22 1827.55 126.22 Q1828.02 126.22 1828.05 126.688 Q1828.05 126.922 1827.41 127.508 Q1819.68 135.378 1819.71 150.204 Q1819.71 165.078 1827.23 172.643 Q1828.05 173.463 1828.05 173.72 Q1828.05 174.189 1827.55 174.189 Q1827.23 174.189 1826.08 173.229 Q1824.93 172.268 1823.15 170.067 Q1821.37 167.865 1820.08 165.171 Q1816.92 158.636 1816.92 150.204 Z" fill="#000000" fill-rule="nonzero" fill-opacity="1" /><path clip-path="url(#clip330)" d="M1867.01 149.525 Q1867.29 149.806 1867.29 150.204 Q1867.29 150.602 1867.01 150.884 Q1866.72 151.165 1866.33 151.165 L1836.3 151.165 Q1835.9 151.165 1835.62 150.884 Q1835.34 150.602 1835.34 150.204 Q1835.34 149.806 1835.62 149.525 Q1835.9 149.244 1836.3 149.244 L1866.33 149.244 Q1866.72 149.244 1867.01 149.525 Z" fill="#000000" fill-rule="nonzero" fill-opacity="1" /><path clip-path="url(#clip330)" d="M1872.29 134.816 L1872.29 133.317 Q1878.05 133.317 1881.03 130.248 Q1881.85 130.248 1881.99 130.436 Q1882.13 130.623 1882.13 131.49 L1882.13 158.402 Q1882.13 159.831 1882.83 160.276 Q1883.53 160.721 1886.6 160.721 L1888.12 160.721 L1888.12 162.197 Q1886.44 162.056 1880.35 162.056 Q1874.26 162.056 1872.59 162.197 L1872.59 160.721 L1874.12 160.721 Q1877.14 160.721 1877.86 160.299 Q1878.59 159.854 1878.59 158.402 L1878.59 133.551 Q1876.08 134.816 1872.29 134.816 Z" fill="#000000" fill-rule="nonzero" fill-opacity="1" /><path clip-path="url(#clip330)" d="M1896.04 173.51 Q1896.04 173.275 1896.23 172.76 L1913.16 127.508 Q1913.16 127.461 1913.28 127.203 Q1913.4 126.946 1913.47 126.782 Q1913.54 126.594 1913.68 126.454 Q1913.84 126.313 1914.03 126.313 Q1914.5 126.313 1914.5 126.899 Q1914.5 126.946 1914.36 127.508 L1897.38 172.807 Q1897.1 173.627 1896.91 173.861 Q1896.75 174.095 1896.46 174.095 Q1896.04 174.095 1896.04 173.51 Z" fill="#000000" fill-rule="nonzero" fill-opacity="1" /><path clip-path="url(#clip330)" d="M1919.8 162.197 Q1919.8 161.33 1919.87 161.072 Q1919.96 160.815 1920.33 160.416 L1929.54 150.157 Q1934.58 144.489 1934.58 139.547 Q1934.58 136.338 1932.89 134.043 Q1931.23 131.747 1928.16 131.747 Q1926.05 131.747 1924.27 133.036 Q1922.49 134.324 1921.67 136.619 Q1921.81 136.572 1922.3 136.572 Q1923.5 136.572 1924.15 137.322 Q1924.83 138.071 1924.83 139.079 Q1924.83 140.367 1923.99 140.999 Q1923.17 141.608 1922.35 141.608 Q1922.02 141.608 1921.58 141.538 Q1921.15 141.468 1920.48 140.812 Q1919.8 140.133 1919.8 138.938 Q1919.8 135.589 1922.33 132.919 Q1924.88 130.248 1928.77 130.248 Q1933.17 130.248 1936.05 132.872 Q1938.96 135.472 1938.96 139.547 Q1938.96 140.976 1938.51 142.288 Q1938.09 143.576 1937.5 144.583 Q1936.94 145.59 1935.4 147.206 Q1933.85 148.822 1932.61 149.97 Q1931.37 151.118 1928.58 153.554 L1923.5 158.496 L1932.14 158.496 Q1936.36 158.496 1936.68 158.121 Q1937.15 157.442 1937.74 153.858 L1938.96 153.858 L1937.6 162.197 L1919.8 162.197 Z" fill="#000000" fill-rule="nonzero" fill-opacity="1" /><path clip-path="url(#clip330)" d="M1943.55 173.72 Q1943.55 173.486 1944.16 172.901 Q1951.89 165.031 1951.89 150.204 Q1951.89 135.331 1944.46 127.812 Q1943.55 126.946 1943.55 126.688 Q1943.55 126.22 1944.02 126.22 Q1944.35 126.22 1945.49 127.18 Q1946.66 128.14 1948.42 130.342 Q1950.2 132.544 1951.51 135.237 Q1954.67 141.772 1954.67 150.204 Q1954.67 158.308 1951.65 164.843 Q1950.37 167.584 1948.56 169.879 Q1946.76 172.175 1945.56 173.182 Q1944.37 174.189 1944.02 174.189 Q1943.55 174.189 1943.55 173.72 Z" fill="#000000" fill-rule="nonzero" fill-opacity="1" /><path clip-path="url(#clip330)" d="M1977.88 125.8 Q1977.88 125.931 1977.73 126.44 Q1977.59 126.948 1977.23 127.735 Q1976.88 128.522 1976.41 129.243 Q1975.93 129.948 1975.14 130.473 Q1974.37 130.981 1973.49 130.981 Q1972.31 130.981 1971.52 130.194 Q1970.73 129.407 1970.73 128.227 Q1970.73 127.571 1971.08 126.669 Q1973.26 120.849 1973.26 118.848 Q1973.26 116.504 1971.44 116.504 Q1970.54 116.504 1969.68 116.848 Q1968.85 117.176 1968.27 117.635 Q1967.7 118.094 1967.18 118.734 Q1966.67 119.357 1966.41 119.783 Q1966.16 120.193 1965.96 120.603 L1965.54 122.275 Q1965.44 122.734 1964.96 124.521 L1964.22 127.555 Q1963.7 129.817 1963.59 130.03 Q1963.42 130.489 1963.06 130.735 Q1962.7 130.981 1962.34 130.981 Q1961.93 130.981 1961.65 130.735 Q1961.37 130.489 1961.37 130.063 Q1961.37 129.998 1961.42 129.752 Q1961.47 129.506 1961.55 129.161 Q1961.63 128.817 1961.67 128.62 L1963.62 120.865 Q1963.98 119.455 1964.06 119.012 Q1964.16 118.553 1964.16 118.045 Q1964.16 116.504 1963.11 116.504 Q1962.26 116.504 1961.7 117.52 Q1961.14 118.537 1960.67 120.504 Q1960.52 121.045 1960.42 121.16 Q1960.34 121.275 1960.09 121.275 Q1959.68 121.259 1959.68 120.931 Q1959.68 120.849 1959.81 120.308 Q1959.95 119.767 1960.19 118.996 Q1960.45 118.209 1960.7 117.684 Q1960.91 117.291 1961.03 117.111 Q1961.16 116.914 1961.47 116.537 Q1961.8 116.143 1962.22 115.963 Q1962.67 115.766 1963.21 115.766 Q1964.42 115.766 1965.31 116.553 Q1966.19 117.324 1966.31 118.685 Q1968.49 115.766 1971.54 115.766 Q1973.34 115.766 1974.37 116.717 Q1975.41 117.668 1975.41 119.357 Q1975.41 119.75 1975.32 120.258 Q1975.26 120.75 1975.09 121.373 Q1974.95 121.996 1974.82 122.472 Q1974.68 122.947 1974.42 123.718 Q1974.16 124.472 1974.05 124.8 Q1973.93 125.128 1973.65 125.899 Q1973.39 126.653 1973.36 126.735 Q1972.75 128.26 1972.75 129.129 Q1972.75 129.702 1972.93 129.965 Q1973.13 130.227 1973.55 130.227 Q1974.7 130.227 1975.55 129.096 Q1976.42 127.948 1976.98 126.079 Q1977.11 125.669 1977.18 125.571 Q1977.26 125.472 1977.49 125.472 Q1977.88 125.472 1977.88 125.8 Z" fill="#000000" fill-rule="nonzero" fill-opacity="1" /></svg>
