<?xml version="1.0" encoding="utf-8"?>
<svg xmlns="http://www.w3.org/2000/svg" xmlns:xlink="http://www.w3.org/1999/xlink" width="672" height="480" viewBox="0 0 2688 1920">
<defs>
  <clipPath id="clip450">
    <rect x="0" y="0" width="2688" height="1920"/>
  </clipPath>
</defs>
<path clip-path="url(#clip450)" d="
M0 1920 L2688 1920 L2688 0 L0 0  Z
  " fill="#ffffff" fill-rule="evenodd" fill-opacity="1"/>
<defs>
  <clipPath id="clip451">
    <rect x="537" y="0" width="1883" height="1883"/>
  </clipPath>
</defs>
<defs>
  <clipPath id="clip452">
    <rect x="181" y="47" width="2460" height="1755"/>
  </clipPath>
</defs>
<path clip-path="url(#clip450)" d="
M152.071 1657.7 L2640.76 1657.7 L2640.76 190.319 L152.071 190.319  Z
  " fill="#ffffff" fill-rule="evenodd" fill-opacity="1"/>
<defs>
  <clipPath id="clip453">
    <rect x="152" y="190" width="2490" height="1468"/>
  </clipPath>
</defs>
<polyline clip-path="url(#clip453)" style="stroke:#000000; stroke-linecap:round; stroke-linejoin:round; stroke-width:2; stroke-opacity:0.1; fill:none" points="
  222.505,1657.7 222.505,190.319 
  "/>
<polyline clip-path="url(#clip453)" style="stroke:#000000; stroke-linecap:round; stroke-linejoin:round; stroke-width:2; stroke-opacity:0.1; fill:none" points="
  369.244,1657.7 369.244,190.319 
  "/>
<polyline clip-path="url(#clip453)" style="stroke:#000000; stroke-linecap:round; stroke-linejoin:round; stroke-width:2; stroke-opacity:0.1; fill:none" points="
  515.982,1657.7 515.982,190.319 
  "/>
<polyline clip-path="url(#clip453)" style="stroke:#000000; stroke-linecap:round; stroke-linejoin:round; stroke-width:2; stroke-opacity:0.1; fill:none" points="
  662.721,1657.7 662.721,190.319 
  "/>
<polyline clip-path="url(#clip453)" style="stroke:#000000; stroke-linecap:round; stroke-linejoin:round; stroke-width:2; stroke-opacity:0.1; fill:none" points="
  809.459,1657.7 809.459,190.319 
  "/>
<polyline clip-path="url(#clip453)" style="stroke:#000000; stroke-linecap:round; stroke-linejoin:round; stroke-width:2; stroke-opacity:0.1; fill:none" points="
  956.198,1657.7 956.198,190.319 
  "/>
<polyline clip-path="url(#clip453)" style="stroke:#000000; stroke-linecap:round; stroke-linejoin:round; stroke-width:2; stroke-opacity:0.1; fill:none" points="
  1102.94,1657.7 1102.94,190.319 
  "/>
<polyline clip-path="url(#clip453)" style="stroke:#000000; stroke-linecap:round; stroke-linejoin:round; stroke-width:2; stroke-opacity:0.1; fill:none" points="
  1249.67,1657.7 1249.67,190.319 
  "/>
<polyline clip-path="url(#clip453)" style="stroke:#000000; stroke-linecap:round; stroke-linejoin:round; stroke-width:2; stroke-opacity:0.1; fill:none" points="
  1396.41,1657.7 1396.41,190.319 
  "/>
<polyline clip-path="url(#clip453)" style="stroke:#000000; stroke-linecap:round; stroke-linejoin:round; stroke-width:2; stroke-opacity:0.1; fill:none" points="
  1543.15,1657.7 1543.15,190.319 
  "/>
<polyline clip-path="url(#clip453)" style="stroke:#000000; stroke-linecap:round; stroke-linejoin:round; stroke-width:2; stroke-opacity:0.1; fill:none" points="
  1689.89,1657.7 1689.89,190.319 
  "/>
<polyline clip-path="url(#clip453)" style="stroke:#000000; stroke-linecap:round; stroke-linejoin:round; stroke-width:2; stroke-opacity:0.1; fill:none" points="
  1836.63,1657.7 1836.63,190.319 
  "/>
<polyline clip-path="url(#clip453)" style="stroke:#000000; stroke-linecap:round; stroke-linejoin:round; stroke-width:2; stroke-opacity:0.1; fill:none" points="
  1983.37,1657.7 1983.37,190.319 
  "/>
<polyline clip-path="url(#clip453)" style="stroke:#000000; stroke-linecap:round; stroke-linejoin:round; stroke-width:2; stroke-opacity:0.1; fill:none" points="
  2130.11,1657.7 2130.11,190.319 
  "/>
<polyline clip-path="url(#clip453)" style="stroke:#000000; stroke-linecap:round; stroke-linejoin:round; stroke-width:2; stroke-opacity:0.1; fill:none" points="
  2276.84,1657.7 2276.84,190.319 
  "/>
<polyline clip-path="url(#clip453)" style="stroke:#000000; stroke-linecap:round; stroke-linejoin:round; stroke-width:2; stroke-opacity:0.1; fill:none" points="
  2423.58,1657.7 2423.58,190.319 
  "/>
<polyline clip-path="url(#clip453)" style="stroke:#000000; stroke-linecap:round; stroke-linejoin:round; stroke-width:2; stroke-opacity:0.1; fill:none" points="
  2570.32,1657.7 2570.32,190.319 
  "/>
<polyline clip-path="url(#clip450)" style="stroke:#000000; stroke-linecap:round; stroke-linejoin:round; stroke-width:4; stroke-opacity:1; fill:none" points="
  152.071,1657.7 2640.76,1657.7 
  "/>
<polyline clip-path="url(#clip450)" style="stroke:#000000; stroke-linecap:round; stroke-linejoin:round; stroke-width:4; stroke-opacity:1; fill:none" points="
  222.505,1657.7 222.505,1641.89 
  "/>
<polyline clip-path="url(#clip450)" style="stroke:#000000; stroke-linecap:round; stroke-linejoin:round; stroke-width:4; stroke-opacity:1; fill:none" points="
  369.244,1657.7 369.244,1641.89 
  "/>
<polyline clip-path="url(#clip450)" style="stroke:#000000; stroke-linecap:round; stroke-linejoin:round; stroke-width:4; stroke-opacity:1; fill:none" points="
  515.982,1657.7 515.982,1641.89 
  "/>
<polyline clip-path="url(#clip450)" style="stroke:#000000; stroke-linecap:round; stroke-linejoin:round; stroke-width:4; stroke-opacity:1; fill:none" points="
  662.721,1657.7 662.721,1641.89 
  "/>
<polyline clip-path="url(#clip450)" style="stroke:#000000; stroke-linecap:round; stroke-linejoin:round; stroke-width:4; stroke-opacity:1; fill:none" points="
  809.459,1657.7 809.459,1641.89 
  "/>
<polyline clip-path="url(#clip450)" style="stroke:#000000; stroke-linecap:round; stroke-linejoin:round; stroke-width:4; stroke-opacity:1; fill:none" points="
  956.198,1657.7 956.198,1641.89 
  "/>
<polyline clip-path="url(#clip450)" style="stroke:#000000; stroke-linecap:round; stroke-linejoin:round; stroke-width:4; stroke-opacity:1; fill:none" points="
  1102.94,1657.7 1102.94,1641.89 
  "/>
<polyline clip-path="url(#clip450)" style="stroke:#000000; stroke-linecap:round; stroke-linejoin:round; stroke-width:4; stroke-opacity:1; fill:none" points="
  1249.67,1657.7 1249.67,1641.89 
  "/>
<polyline clip-path="url(#clip450)" style="stroke:#000000; stroke-linecap:round; stroke-linejoin:round; stroke-width:4; stroke-opacity:1; fill:none" points="
  1396.41,1657.7 1396.41,1641.89 
  "/>
<polyline clip-path="url(#clip450)" style="stroke:#000000; stroke-linecap:round; stroke-linejoin:round; stroke-width:4; stroke-opacity:1; fill:none" points="
  1543.15,1657.7 1543.15,1641.89 
  "/>
<polyline clip-path="url(#clip450)" style="stroke:#000000; stroke-linecap:round; stroke-linejoin:round; stroke-width:4; stroke-opacity:1; fill:none" points="
  1689.89,1657.7 1689.89,1641.89 
  "/>
<polyline clip-path="url(#clip450)" style="stroke:#000000; stroke-linecap:round; stroke-linejoin:round; stroke-width:4; stroke-opacity:1; fill:none" points="
  1836.63,1657.7 1836.63,1641.89 
  "/>
<polyline clip-path="url(#clip450)" style="stroke:#000000; stroke-linecap:round; stroke-linejoin:round; stroke-width:4; stroke-opacity:1; fill:none" points="
  1983.37,1657.7 1983.37,1641.89 
  "/>
<polyline clip-path="url(#clip450)" style="stroke:#000000; stroke-linecap:round; stroke-linejoin:round; stroke-width:4; stroke-opacity:1; fill:none" points="
  2130.11,1657.7 2130.11,1641.89 
  "/>
<polyline clip-path="url(#clip450)" style="stroke:#000000; stroke-linecap:round; stroke-linejoin:round; stroke-width:4; stroke-opacity:1; fill:none" points="
  2276.84,1657.7 2276.84,1641.89 
  "/>
<polyline clip-path="url(#clip450)" style="stroke:#000000; stroke-linecap:round; stroke-linejoin:round; stroke-width:4; stroke-opacity:1; fill:none" points="
  2423.58,1657.7 2423.58,1641.89 
  "/>
<polyline clip-path="url(#clip450)" style="stroke:#000000; stroke-linecap:round; stroke-linejoin:round; stroke-width:4; stroke-opacity:1; fill:none" points="
  2570.32,1657.7 2570.32,1641.89 
  "/>
<path clip-path="url(#clip450)" d="M191.695 1705.58 L221.371 1705.58 L221.371 1709.51 L191.695 1709.51 L191.695 1705.58 Z" fill="#000000" fill-rule="evenodd" fill-opacity="1" /><path clip-path="url(#clip450)" d="M241.464 1706 Q238.13 1706 236.209 1707.78 Q234.311 1709.56 234.311 1712.69 Q234.311 1715.81 236.209 1717.59 Q238.13 1719.38 241.464 1719.38 Q244.797 1719.38 246.718 1717.59 Q248.639 1715.79 248.639 1712.69 Q248.639 1709.56 246.718 1707.78 Q244.82 1706 241.464 1706 M236.788 1704.01 Q233.778 1703.26 232.089 1701.2 Q230.422 1699.14 230.422 1696.18 Q230.422 1692.04 233.362 1689.63 Q236.325 1687.22 241.464 1687.22 Q246.626 1687.22 249.565 1689.63 Q252.505 1692.04 252.505 1696.18 Q252.505 1699.14 250.815 1701.2 Q249.149 1703.26 246.163 1704.01 Q249.542 1704.79 251.417 1707.08 Q253.315 1709.38 253.315 1712.69 Q253.315 1717.71 250.237 1720.39 Q247.181 1723.08 241.464 1723.08 Q235.746 1723.08 232.667 1720.39 Q229.612 1717.71 229.612 1712.69 Q229.612 1709.38 231.51 1707.08 Q233.408 1704.79 236.788 1704.01 M235.075 1696.62 Q235.075 1699.31 236.741 1700.81 Q238.431 1702.32 241.464 1702.32 Q244.473 1702.32 246.163 1700.81 Q247.876 1699.31 247.876 1696.62 Q247.876 1693.94 246.163 1692.43 Q244.473 1690.93 241.464 1690.93 Q238.431 1690.93 236.741 1692.43 Q235.075 1693.94 235.075 1696.62 Z" fill="#000000" fill-rule="evenodd" fill-opacity="1" /><path clip-path="url(#clip450)" d="M338.839 1705.58 L368.515 1705.58 L368.515 1709.51 L338.839 1709.51 L338.839 1705.58 Z" fill="#000000" fill-rule="evenodd" fill-opacity="1" /><path clip-path="url(#clip450)" d="M377.427 1687.85 L399.649 1687.85 L399.649 1689.84 L387.103 1722.41 L382.218 1722.41 L394.024 1691.78 L377.427 1691.78 L377.427 1687.85 Z" fill="#000000" fill-rule="evenodd" fill-opacity="1" /><path clip-path="url(#clip450)" d="M485.045 1705.58 L514.721 1705.58 L514.721 1709.51 L485.045 1709.51 L485.045 1705.58 Z" fill="#000000" fill-rule="evenodd" fill-opacity="1" /><path clip-path="url(#clip450)" d="M535.392 1703.26 Q532.244 1703.26 530.392 1705.42 Q528.563 1707.57 528.563 1711.32 Q528.563 1715.05 530.392 1717.22 Q532.244 1719.38 535.392 1719.38 Q538.54 1719.38 540.369 1717.22 Q542.221 1715.05 542.221 1711.32 Q542.221 1707.57 540.369 1705.42 Q538.54 1703.26 535.392 1703.26 M544.674 1688.61 L544.674 1692.87 Q542.915 1692.04 541.11 1691.6 Q539.327 1691.16 537.568 1691.16 Q532.938 1691.16 530.485 1694.28 Q528.054 1697.41 527.707 1703.73 Q529.073 1701.71 531.133 1700.65 Q533.193 1699.56 535.67 1699.56 Q540.878 1699.56 543.887 1702.73 Q546.92 1705.88 546.92 1711.32 Q546.92 1716.64 543.772 1719.86 Q540.623 1723.08 535.392 1723.08 Q529.397 1723.08 526.225 1718.5 Q523.054 1713.89 523.054 1705.16 Q523.054 1696.97 526.943 1692.11 Q530.832 1687.22 537.383 1687.22 Q539.142 1687.22 540.924 1687.57 Q542.73 1687.92 544.674 1688.61 Z" fill="#000000" fill-rule="evenodd" fill-opacity="1" /><path clip-path="url(#clip450)" d="M632.362 1705.58 L662.038 1705.58 L662.038 1709.51 L632.362 1709.51 L632.362 1705.58 Z" fill="#000000" fill-rule="evenodd" fill-opacity="1" /><path clip-path="url(#clip450)" d="M672.177 1687.85 L690.533 1687.85 L690.533 1691.78 L676.459 1691.78 L676.459 1700.26 Q677.478 1699.91 678.496 1699.75 Q679.515 1699.56 680.533 1699.56 Q686.32 1699.56 689.7 1702.73 Q693.079 1705.9 693.079 1711.32 Q693.079 1716.9 689.607 1720 Q686.135 1723.08 679.816 1723.08 Q677.64 1723.08 675.371 1722.71 Q673.126 1722.34 670.719 1721.6 L670.719 1716.9 Q672.802 1718.03 675.024 1718.59 Q677.246 1719.14 679.723 1719.14 Q683.728 1719.14 686.066 1717.04 Q688.404 1714.93 688.404 1711.32 Q688.404 1707.71 686.066 1705.6 Q683.728 1703.5 679.723 1703.5 Q677.848 1703.5 675.973 1703.91 Q674.121 1704.33 672.177 1705.21 L672.177 1687.85 Z" fill="#000000" fill-rule="evenodd" fill-opacity="1" /><path clip-path="url(#clip450)" d="M778.36 1705.58 L808.036 1705.58 L808.036 1709.51 L778.36 1709.51 L778.36 1705.58 Z" fill="#000000" fill-rule="evenodd" fill-opacity="1" /><path clip-path="url(#clip450)" d="M830.975 1691.92 L819.17 1710.37 L830.975 1710.37 L830.975 1691.92 M829.749 1687.85 L835.628 1687.85 L835.628 1710.37 L840.559 1710.37 L840.559 1714.26 L835.628 1714.26 L835.628 1722.41 L830.975 1722.41 L830.975 1714.26 L815.374 1714.26 L815.374 1709.75 L829.749 1687.85 Z" fill="#000000" fill-rule="evenodd" fill-opacity="1" /><path clip-path="url(#clip450)" d="M925.666 1705.58 L955.341 1705.58 L955.341 1709.51 L925.666 1709.51 L925.666 1705.58 Z" fill="#000000" fill-rule="evenodd" fill-opacity="1" /><path clip-path="url(#clip450)" d="M979.601 1703.77 Q982.957 1704.49 984.832 1706.76 Q986.73 1709.03 986.73 1712.36 Q986.73 1717.48 983.212 1720.28 Q979.693 1723.08 973.212 1723.08 Q971.036 1723.08 968.721 1722.64 Q966.429 1722.22 963.976 1721.37 L963.976 1716.85 Q965.92 1717.99 968.235 1718.57 Q970.55 1719.14 973.073 1719.14 Q977.471 1719.14 979.763 1717.41 Q982.077 1715.67 982.077 1712.36 Q982.077 1709.31 979.925 1707.59 Q977.795 1705.86 973.976 1705.86 L969.948 1705.86 L969.948 1702.01 L974.161 1702.01 Q977.61 1702.01 979.438 1700.65 Q981.267 1699.26 981.267 1696.67 Q981.267 1694.01 979.369 1692.59 Q977.494 1691.16 973.976 1691.16 Q972.054 1691.16 969.855 1691.58 Q967.656 1691.99 965.017 1692.87 L965.017 1688.7 Q967.679 1687.96 969.994 1687.59 Q972.332 1687.22 974.392 1687.22 Q979.716 1687.22 982.818 1689.65 Q985.92 1692.06 985.92 1696.18 Q985.92 1699.05 984.276 1701.04 Q982.633 1703.01 979.601 1703.77 Z" fill="#000000" fill-rule="evenodd" fill-opacity="1" /><path clip-path="url(#clip450)" d="M1072.88 1705.58 L1102.55 1705.58 L1102.55 1709.51 L1072.88 1709.51 L1072.88 1705.58 Z" fill="#000000" fill-rule="evenodd" fill-opacity="1" /><path clip-path="url(#clip450)" d="M1116.67 1718.47 L1132.99 1718.47 L1132.99 1722.41 L1111.05 1722.41 L1111.05 1718.47 Q1113.71 1715.72 1118.3 1711.09 Q1122.9 1706.44 1124.08 1705.09 Q1126.33 1702.57 1127.21 1700.83 Q1128.11 1699.08 1128.11 1697.39 Q1128.11 1694.63 1126.17 1692.89 Q1124.24 1691.16 1121.14 1691.16 Q1118.94 1691.16 1116.49 1691.92 Q1114.06 1692.69 1111.28 1694.24 L1111.28 1689.51 Q1114.11 1688.38 1116.56 1687.8 Q1119.01 1687.22 1121.05 1687.22 Q1126.42 1687.22 1129.61 1689.91 Q1132.81 1692.59 1132.81 1697.08 Q1132.81 1699.21 1132 1701.14 Q1131.21 1703.03 1129.11 1705.63 Q1128.53 1706.3 1125.42 1709.51 Q1122.32 1712.71 1116.67 1718.47 Z" fill="#000000" fill-rule="evenodd" fill-opacity="1" /><path clip-path="url(#clip450)" d="M1219.43 1705.58 L1249.11 1705.58 L1249.11 1709.51 L1219.43 1709.51 L1219.43 1705.58 Z" fill="#000000" fill-rule="evenodd" fill-opacity="1" /><path clip-path="url(#clip450)" d="M1260.01 1718.47 L1267.65 1718.47 L1267.65 1692.11 L1259.34 1693.77 L1259.34 1689.51 L1267.6 1687.85 L1272.28 1687.85 L1272.28 1718.47 L1279.92 1718.47 L1279.92 1722.41 L1260.01 1722.41 L1260.01 1718.47 Z" fill="#000000" fill-rule="evenodd" fill-opacity="1" /><path clip-path="url(#clip450)" d="M1396.41 1690.93 Q1392.8 1690.93 1390.97 1694.49 Q1389.17 1698.03 1389.17 1705.16 Q1389.17 1712.27 1390.97 1715.83 Q1392.8 1719.38 1396.41 1719.38 Q1400.05 1719.38 1401.85 1715.83 Q1403.68 1712.27 1403.68 1705.16 Q1403.68 1698.03 1401.85 1694.49 Q1400.05 1690.93 1396.41 1690.93 M1396.41 1687.22 Q1402.22 1687.22 1405.28 1691.83 Q1408.36 1696.41 1408.36 1705.16 Q1408.36 1713.89 1405.28 1718.5 Q1402.22 1723.08 1396.41 1723.08 Q1390.6 1723.08 1387.52 1718.5 Q1384.47 1713.89 1384.47 1705.16 Q1384.47 1696.41 1387.52 1691.83 Q1390.6 1687.22 1396.41 1687.22 Z" fill="#000000" fill-rule="evenodd" fill-opacity="1" /><path clip-path="url(#clip450)" d="M1533.53 1718.47 L1541.17 1718.47 L1541.17 1692.11 L1532.86 1693.77 L1532.86 1689.51 L1541.13 1687.85 L1545.8 1687.85 L1545.8 1718.47 L1553.44 1718.47 L1553.44 1722.41 L1533.53 1722.41 L1533.53 1718.47 Z" fill="#000000" fill-rule="evenodd" fill-opacity="1" /><path clip-path="url(#clip450)" d="M1684.54 1718.47 L1700.86 1718.47 L1700.86 1722.41 L1678.92 1722.41 L1678.92 1718.47 Q1681.58 1715.72 1686.16 1711.09 Q1690.77 1706.44 1691.95 1705.09 Q1694.2 1702.57 1695.08 1700.83 Q1695.98 1699.08 1695.98 1697.39 Q1695.98 1694.63 1694.03 1692.89 Q1692.11 1691.16 1689.01 1691.16 Q1686.81 1691.16 1684.36 1691.92 Q1681.93 1692.69 1679.15 1694.24 L1679.15 1689.51 Q1681.97 1688.38 1684.43 1687.8 Q1686.88 1687.22 1688.92 1687.22 Q1694.29 1687.22 1697.48 1689.91 Q1700.68 1692.59 1700.68 1697.08 Q1700.68 1699.21 1699.87 1701.14 Q1699.08 1703.03 1696.97 1705.63 Q1696.39 1706.3 1693.29 1709.51 Q1690.19 1712.71 1684.54 1718.47 Z" fill="#000000" fill-rule="evenodd" fill-opacity="1" /><path clip-path="url(#clip450)" d="M1840.88 1703.77 Q1844.23 1704.49 1846.11 1706.76 Q1848.01 1709.03 1848.01 1712.36 Q1848.01 1717.48 1844.49 1720.28 Q1840.97 1723.08 1834.49 1723.08 Q1832.31 1723.08 1830 1722.64 Q1827.71 1722.22 1825.25 1721.37 L1825.25 1716.85 Q1827.2 1717.99 1829.51 1718.57 Q1831.83 1719.14 1834.35 1719.14 Q1838.75 1719.14 1841.04 1717.41 Q1843.35 1715.67 1843.35 1712.36 Q1843.35 1709.31 1841.2 1707.59 Q1839.07 1705.86 1835.25 1705.86 L1831.22 1705.86 L1831.22 1702.01 L1835.44 1702.01 Q1838.89 1702.01 1840.71 1700.65 Q1842.54 1699.26 1842.54 1696.67 Q1842.54 1694.01 1840.65 1692.59 Q1838.77 1691.16 1835.25 1691.16 Q1833.33 1691.16 1831.13 1691.58 Q1828.93 1691.99 1826.29 1692.87 L1826.29 1688.7 Q1828.96 1687.96 1831.27 1687.59 Q1833.61 1687.22 1835.67 1687.22 Q1840.99 1687.22 1844.09 1689.65 Q1847.2 1692.06 1847.2 1696.18 Q1847.2 1699.05 1845.55 1701.04 Q1843.91 1703.01 1840.88 1703.77 Z" fill="#000000" fill-rule="evenodd" fill-opacity="1" /><path clip-path="url(#clip450)" d="M1986.38 1691.92 L1974.57 1710.37 L1986.38 1710.37 L1986.38 1691.92 M1985.15 1687.85 L1991.03 1687.85 L1991.03 1710.37 L1995.96 1710.37 L1995.96 1714.26 L1991.03 1714.26 L1991.03 1722.41 L1986.38 1722.41 L1986.38 1714.26 L1970.77 1714.26 L1970.77 1709.75 L1985.15 1687.85 Z" fill="#000000" fill-rule="evenodd" fill-opacity="1" /><path clip-path="url(#clip450)" d="M2120.38 1687.85 L2138.74 1687.85 L2138.74 1691.78 L2124.67 1691.78 L2124.67 1700.26 Q2125.68 1699.91 2126.7 1699.75 Q2127.72 1699.56 2128.74 1699.56 Q2134.53 1699.56 2137.91 1702.73 Q2141.29 1705.9 2141.29 1711.32 Q2141.29 1716.9 2137.81 1720 Q2134.34 1723.08 2128.02 1723.08 Q2125.85 1723.08 2123.58 1722.71 Q2121.33 1722.34 2118.93 1721.6 L2118.93 1716.9 Q2121.01 1718.03 2123.23 1718.59 Q2125.45 1719.14 2127.93 1719.14 Q2131.93 1719.14 2134.27 1717.04 Q2136.61 1714.93 2136.61 1711.32 Q2136.61 1707.71 2134.27 1705.6 Q2131.93 1703.5 2127.93 1703.5 Q2126.06 1703.5 2124.18 1703.91 Q2122.33 1704.33 2120.38 1705.21 L2120.38 1687.85 Z" fill="#000000" fill-rule="evenodd" fill-opacity="1" /><path clip-path="url(#clip450)" d="M2277.25 1703.26 Q2274.1 1703.26 2272.25 1705.42 Q2270.42 1707.57 2270.42 1711.32 Q2270.42 1715.05 2272.25 1717.22 Q2274.1 1719.38 2277.25 1719.38 Q2280.4 1719.38 2282.23 1717.22 Q2284.08 1715.05 2284.08 1711.32 Q2284.08 1707.57 2282.23 1705.42 Q2280.4 1703.26 2277.25 1703.26 M2286.53 1688.61 L2286.53 1692.87 Q2284.77 1692.04 2282.97 1691.6 Q2281.18 1691.16 2279.43 1691.16 Q2274.8 1691.16 2272.34 1694.28 Q2269.91 1697.41 2269.56 1703.73 Q2270.93 1701.71 2272.99 1700.65 Q2275.05 1699.56 2277.53 1699.56 Q2282.74 1699.56 2285.74 1702.73 Q2288.78 1705.88 2288.78 1711.32 Q2288.78 1716.64 2285.63 1719.86 Q2282.48 1723.08 2277.25 1723.08 Q2271.25 1723.08 2268.08 1718.5 Q2264.91 1713.89 2264.91 1705.16 Q2264.91 1696.97 2268.8 1692.11 Q2272.69 1687.22 2279.24 1687.22 Q2281 1687.22 2282.78 1687.57 Q2284.59 1687.92 2286.53 1688.61 Z" fill="#000000" fill-rule="evenodd" fill-opacity="1" /><path clip-path="url(#clip450)" d="M2412.47 1687.85 L2434.69 1687.85 L2434.69 1689.84 L2422.15 1722.41 L2417.26 1722.41 L2429.07 1691.78 L2412.47 1691.78 L2412.47 1687.85 Z" fill="#000000" fill-rule="evenodd" fill-opacity="1" /><path clip-path="url(#clip450)" d="M2570.32 1706 Q2566.99 1706 2565.07 1707.78 Q2563.17 1709.56 2563.17 1712.69 Q2563.17 1715.81 2565.07 1717.59 Q2566.99 1719.38 2570.32 1719.38 Q2573.65 1719.38 2575.58 1717.59 Q2577.5 1715.79 2577.5 1712.69 Q2577.5 1709.56 2575.58 1707.78 Q2573.68 1706 2570.32 1706 M2565.65 1704.01 Q2562.64 1703.26 2560.95 1701.2 Q2559.28 1699.14 2559.28 1696.18 Q2559.28 1692.04 2562.22 1689.63 Q2565.18 1687.22 2570.32 1687.22 Q2575.48 1687.22 2578.42 1689.63 Q2581.36 1692.04 2581.36 1696.18 Q2581.36 1699.14 2579.67 1701.2 Q2578.01 1703.26 2575.02 1704.01 Q2578.4 1704.79 2580.28 1707.08 Q2582.17 1709.38 2582.17 1712.69 Q2582.17 1717.71 2579.09 1720.39 Q2576.04 1723.08 2570.32 1723.08 Q2564.6 1723.08 2561.53 1720.39 Q2558.47 1717.71 2558.47 1712.69 Q2558.47 1709.38 2560.37 1707.08 Q2562.27 1704.79 2565.65 1704.01 M2563.93 1696.62 Q2563.93 1699.31 2565.6 1700.81 Q2567.29 1702.32 2570.32 1702.32 Q2573.33 1702.32 2575.02 1700.81 Q2576.73 1699.31 2576.73 1696.62 Q2576.73 1693.94 2575.02 1692.43 Q2573.33 1690.93 2570.32 1690.93 Q2567.29 1690.93 2565.6 1692.43 Q2563.93 1693.94 2563.93 1696.62 Z" fill="#000000" fill-rule="evenodd" fill-opacity="1" /><polyline clip-path="url(#clip453)" style="stroke:#000000; stroke-linecap:round; stroke-linejoin:round; stroke-width:2; stroke-opacity:0.1; fill:none" points="
  152.071,1657.7 2640.76,1657.7 
  "/>
<polyline clip-path="url(#clip453)" style="stroke:#000000; stroke-linecap:round; stroke-linejoin:round; stroke-width:2; stroke-opacity:0.1; fill:none" points="
  152.071,1510.97 2640.76,1510.97 
  "/>
<polyline clip-path="url(#clip453)" style="stroke:#000000; stroke-linecap:round; stroke-linejoin:round; stroke-width:2; stroke-opacity:0.1; fill:none" points="
  152.071,1364.23 2640.76,1364.23 
  "/>
<polyline clip-path="url(#clip453)" style="stroke:#000000; stroke-linecap:round; stroke-linejoin:round; stroke-width:2; stroke-opacity:0.1; fill:none" points="
  152.071,1217.49 2640.76,1217.49 
  "/>
<polyline clip-path="url(#clip453)" style="stroke:#000000; stroke-linecap:round; stroke-linejoin:round; stroke-width:2; stroke-opacity:0.1; fill:none" points="
  152.071,1070.75 2640.76,1070.75 
  "/>
<polyline clip-path="url(#clip453)" style="stroke:#000000; stroke-linecap:round; stroke-linejoin:round; stroke-width:2; stroke-opacity:0.1; fill:none" points="
  152.071,924.012 2640.76,924.012 
  "/>
<polyline clip-path="url(#clip453)" style="stroke:#000000; stroke-linecap:round; stroke-linejoin:round; stroke-width:2; stroke-opacity:0.1; fill:none" points="
  152.071,777.273 2640.76,777.273 
  "/>
<polyline clip-path="url(#clip453)" style="stroke:#000000; stroke-linecap:round; stroke-linejoin:round; stroke-width:2; stroke-opacity:0.1; fill:none" points="
  152.071,630.535 2640.76,630.535 
  "/>
<polyline clip-path="url(#clip453)" style="stroke:#000000; stroke-linecap:round; stroke-linejoin:round; stroke-width:2; stroke-opacity:0.1; fill:none" points="
  152.071,483.796 2640.76,483.796 
  "/>
<polyline clip-path="url(#clip453)" style="stroke:#000000; stroke-linecap:round; stroke-linejoin:round; stroke-width:2; stroke-opacity:0.1; fill:none" points="
  152.071,337.058 2640.76,337.058 
  "/>
<polyline clip-path="url(#clip453)" style="stroke:#000000; stroke-linecap:round; stroke-linejoin:round; stroke-width:2; stroke-opacity:0.1; fill:none" points="
  152.071,190.319 2640.76,190.319 
  "/>
<polyline clip-path="url(#clip450)" style="stroke:#000000; stroke-linecap:round; stroke-linejoin:round; stroke-width:4; stroke-opacity:1; fill:none" points="
  152.071,1657.7 152.071,190.319 
  "/>
<polyline clip-path="url(#clip450)" style="stroke:#000000; stroke-linecap:round; stroke-linejoin:round; stroke-width:4; stroke-opacity:1; fill:none" points="
  152.071,1657.7 170.969,1657.7 
  "/>
<polyline clip-path="url(#clip450)" style="stroke:#000000; stroke-linecap:round; stroke-linejoin:round; stroke-width:4; stroke-opacity:1; fill:none" points="
  152.071,1510.97 170.969,1510.97 
  "/>
<polyline clip-path="url(#clip450)" style="stroke:#000000; stroke-linecap:round; stroke-linejoin:round; stroke-width:4; stroke-opacity:1; fill:none" points="
  152.071,1364.23 170.969,1364.23 
  "/>
<polyline clip-path="url(#clip450)" style="stroke:#000000; stroke-linecap:round; stroke-linejoin:round; stroke-width:4; stroke-opacity:1; fill:none" points="
  152.071,1217.49 170.969,1217.49 
  "/>
<polyline clip-path="url(#clip450)" style="stroke:#000000; stroke-linecap:round; stroke-linejoin:round; stroke-width:4; stroke-opacity:1; fill:none" points="
  152.071,1070.75 170.969,1070.75 
  "/>
<polyline clip-path="url(#clip450)" style="stroke:#000000; stroke-linecap:round; stroke-linejoin:round; stroke-width:4; stroke-opacity:1; fill:none" points="
  152.071,924.012 170.969,924.012 
  "/>
<polyline clip-path="url(#clip450)" style="stroke:#000000; stroke-linecap:round; stroke-linejoin:round; stroke-width:4; stroke-opacity:1; fill:none" points="
  152.071,777.273 170.969,777.273 
  "/>
<polyline clip-path="url(#clip450)" style="stroke:#000000; stroke-linecap:round; stroke-linejoin:round; stroke-width:4; stroke-opacity:1; fill:none" points="
  152.071,630.535 170.969,630.535 
  "/>
<polyline clip-path="url(#clip450)" style="stroke:#000000; stroke-linecap:round; stroke-linejoin:round; stroke-width:4; stroke-opacity:1; fill:none" points="
  152.071,483.796 170.969,483.796 
  "/>
<polyline clip-path="url(#clip450)" style="stroke:#000000; stroke-linecap:round; stroke-linejoin:round; stroke-width:4; stroke-opacity:1; fill:none" points="
  152.071,337.058 170.969,337.058 
  "/>
<polyline clip-path="url(#clip450)" style="stroke:#000000; stroke-linecap:round; stroke-linejoin:round; stroke-width:4; stroke-opacity:1; fill:none" points="
  152.071,190.319 170.969,190.319 
  "/>
<path clip-path="url(#clip450)" d="M51.0336 1658.16 L80.7094 1658.16 L80.7094 1662.09 L51.0336 1662.09 L51.0336 1658.16 Z" fill="#000000" fill-rule="evenodd" fill-opacity="1" /><path clip-path="url(#clip450)" d="M90.8482 1640.42 L109.205 1640.42 L109.205 1644.36 L95.1306 1644.36 L95.1306 1652.83 Q96.1491 1652.48 97.1676 1652.32 Q98.1861 1652.14 99.2046 1652.14 Q104.992 1652.14 108.371 1655.31 Q111.751 1658.48 111.751 1663.9 Q111.751 1669.47 108.279 1672.58 Q104.806 1675.66 98.487 1675.66 Q96.3111 1675.66 94.0426 1675.29 Q91.7973 1674.91 89.3899 1674.17 L89.3899 1669.47 Q91.4732 1670.61 93.6954 1671.16 Q95.9176 1671.72 98.3945 1671.72 Q102.399 1671.72 104.737 1669.61 Q107.075 1667.51 107.075 1663.9 Q107.075 1660.29 104.737 1658.18 Q102.399 1656.07 98.3945 1656.07 Q96.5195 1656.07 94.6445 1656.49 Q92.7926 1656.91 90.8482 1657.79 L90.8482 1640.42 Z" fill="#000000" fill-rule="evenodd" fill-opacity="1" /><path clip-path="url(#clip450)" d="M49.5521 1511.42 L79.2279 1511.42 L79.2279 1515.35 L49.5521 1515.35 L49.5521 1511.42 Z" fill="#000000" fill-rule="evenodd" fill-opacity="1" /><path clip-path="url(#clip450)" d="M102.168 1497.76 L90.3621 1516.21 L102.168 1516.21 L102.168 1497.76 M100.941 1493.69 L106.82 1493.69 L106.82 1516.21 L111.751 1516.21 L111.751 1520.1 L106.82 1520.1 L106.82 1528.25 L102.168 1528.25 L102.168 1520.1 L86.5658 1520.1 L86.5658 1515.58 L100.941 1493.69 Z" fill="#000000" fill-rule="evenodd" fill-opacity="1" /><path clip-path="url(#clip450)" d="M50.6864 1364.68 L80.3621 1364.68 L80.3621 1368.61 L50.6864 1368.61 L50.6864 1364.68 Z" fill="#000000" fill-rule="evenodd" fill-opacity="1" /><path clip-path="url(#clip450)" d="M104.621 1362.87 Q107.978 1363.59 109.853 1365.86 Q111.751 1368.13 111.751 1371.46 Q111.751 1376.58 108.232 1379.38 Q104.714 1382.18 98.2324 1382.18 Q96.0565 1382.18 93.7417 1381.74 Q91.45 1381.32 88.9964 1380.47 L88.9964 1375.95 Q90.9408 1377.09 93.2556 1377.66 Q95.5704 1378.24 98.0935 1378.24 Q102.492 1378.24 104.783 1376.51 Q107.098 1374.77 107.098 1371.46 Q107.098 1368.41 104.945 1366.69 Q102.816 1364.96 98.9963 1364.96 L94.9685 1364.96 L94.9685 1361.11 L99.1815 1361.11 Q102.631 1361.11 104.459 1359.75 Q106.288 1358.36 106.288 1355.77 Q106.288 1353.1 104.39 1351.69 Q102.515 1350.26 98.9963 1350.26 Q97.075 1350.26 94.876 1350.67 Q92.6769 1351.09 90.038 1351.97 L90.038 1347.8 Q92.7 1347.06 95.0148 1346.69 Q97.3528 1346.32 99.413 1346.32 Q104.737 1346.32 107.839 1348.75 Q110.941 1351.16 110.941 1355.28 Q110.941 1358.15 109.297 1360.14 Q107.654 1362.11 104.621 1362.87 Z" fill="#000000" fill-rule="evenodd" fill-opacity="1" /><path clip-path="url(#clip450)" d="M51.6354 1217.94 L81.3112 1217.94 L81.3112 1221.88 L51.6354 1221.88 L51.6354 1217.94 Z" fill="#000000" fill-rule="evenodd" fill-opacity="1" /><path clip-path="url(#clip450)" d="M95.4315 1230.83 L111.751 1230.83 L111.751 1234.77 L89.8065 1234.77 L89.8065 1230.83 Q92.4686 1228.08 97.0519 1223.45 Q101.658 1218.8 102.839 1217.45 Q105.084 1214.93 105.964 1213.19 Q106.867 1211.44 106.867 1209.75 Q106.867 1206.99 104.922 1205.25 Q103.001 1203.52 99.8991 1203.52 Q97.7 1203.52 95.2463 1204.28 Q92.8158 1205.05 90.038 1206.6 L90.038 1201.88 Q92.8621 1200.74 95.3158 1200.16 Q97.7695 1199.58 99.8065 1199.58 Q105.177 1199.58 108.371 1202.27 Q111.566 1204.95 111.566 1209.44 Q111.566 1211.57 110.756 1213.5 Q109.968 1215.39 107.862 1217.99 Q107.283 1218.66 104.181 1221.88 Q101.08 1225.07 95.4315 1230.83 Z" fill="#000000" fill-rule="evenodd" fill-opacity="1" /><path clip-path="url(#clip450)" d="M51.2651 1071.2 L80.9408 1071.2 L80.9408 1075.14 L51.2651 1075.14 L51.2651 1071.2 Z" fill="#000000" fill-rule="evenodd" fill-opacity="1" /><path clip-path="url(#clip450)" d="M91.8436 1084.1 L99.4824 1084.1 L99.4824 1057.73 L91.1723 1059.4 L91.1723 1055.14 L99.4361 1053.47 L104.112 1053.47 L104.112 1084.1 L111.751 1084.1 L111.751 1088.03 L91.8436 1088.03 L91.8436 1084.1 Z" fill="#000000" fill-rule="evenodd" fill-opacity="1" /><path clip-path="url(#clip450)" d="M99.8065 909.81 Q96.1954 909.81 94.3667 913.375 Q92.5612 916.917 92.5612 924.046 Q92.5612 931.153 94.3667 934.718 Q96.1954 938.259 99.8065 938.259 Q103.441 938.259 105.246 934.718 Q107.075 931.153 107.075 924.046 Q107.075 916.917 105.246 913.375 Q103.441 909.81 99.8065 909.81 M99.8065 906.107 Q105.617 906.107 108.672 910.713 Q111.751 915.296 111.751 924.046 Q111.751 932.773 108.672 937.38 Q105.617 941.963 99.8065 941.963 Q93.9963 941.963 90.9176 937.38 Q87.8621 932.773 87.8621 924.046 Q87.8621 915.296 90.9176 910.713 Q93.9963 906.107 99.8065 906.107 Z" fill="#000000" fill-rule="evenodd" fill-opacity="1" /><path clip-path="url(#clip450)" d="M91.8436 790.618 L99.4824 790.618 L99.4824 764.252 L91.1723 765.919 L91.1723 761.66 L99.4361 759.993 L104.112 759.993 L104.112 790.618 L111.751 790.618 L111.751 794.553 L91.8436 794.553 L91.8436 790.618 Z" fill="#000000" fill-rule="evenodd" fill-opacity="1" /><path clip-path="url(#clip450)" d="M95.4315 643.88 L111.751 643.88 L111.751 647.815 L89.8065 647.815 L89.8065 643.88 Q92.4686 641.125 97.0519 636.495 Q101.658 631.843 102.839 630.5 Q105.084 627.977 105.964 626.241 Q106.867 624.481 106.867 622.792 Q106.867 620.037 104.922 618.301 Q103.001 616.565 99.8991 616.565 Q97.7 616.565 95.2463 617.329 Q92.8158 618.093 90.038 619.644 L90.038 614.921 Q92.8621 613.787 95.3158 613.208 Q97.7695 612.63 99.8065 612.63 Q105.177 612.63 108.371 615.315 Q111.566 618 111.566 622.491 Q111.566 624.62 110.756 626.542 Q109.968 628.44 107.862 631.032 Q107.283 631.704 104.181 634.921 Q101.08 638.116 95.4315 643.88 Z" fill="#000000" fill-rule="evenodd" fill-opacity="1" /><path clip-path="url(#clip450)" d="M104.621 482.442 Q107.978 483.16 109.853 485.428 Q111.751 487.697 111.751 491.03 Q111.751 496.146 108.232 498.947 Q104.714 501.747 98.2324 501.747 Q96.0565 501.747 93.7417 501.308 Q91.45 500.891 88.9964 500.035 L88.9964 495.521 Q90.9408 496.655 93.2556 497.234 Q95.5704 497.812 98.0935 497.812 Q102.492 497.812 104.783 496.076 Q107.098 494.34 107.098 491.03 Q107.098 487.974 104.945 486.261 Q102.816 484.525 98.9963 484.525 L94.9685 484.525 L94.9685 480.683 L99.1815 480.683 Q102.631 480.683 104.459 479.317 Q106.288 477.928 106.288 475.336 Q106.288 472.674 104.39 471.262 Q102.515 469.826 98.9963 469.826 Q97.075 469.826 94.876 470.243 Q92.6769 470.66 90.038 471.539 L90.038 467.373 Q92.7 466.632 95.0148 466.262 Q97.3528 465.891 99.413 465.891 Q104.737 465.891 107.839 468.322 Q110.941 470.729 110.941 474.849 Q110.941 477.72 109.297 479.711 Q107.654 481.678 104.621 482.442 Z" fill="#000000" fill-rule="evenodd" fill-opacity="1" /><path clip-path="url(#clip450)" d="M102.168 323.852 L90.3621 342.301 L102.168 342.301 L102.168 323.852 M100.941 319.778 L106.82 319.778 L106.82 342.301 L111.751 342.301 L111.751 346.19 L106.82 346.19 L106.82 354.338 L102.168 354.338 L102.168 346.19 L86.5658 346.19 L86.5658 341.676 L100.941 319.778 Z" fill="#000000" fill-rule="evenodd" fill-opacity="1" /><path clip-path="url(#clip450)" d="M90.8482 173.039 L109.205 173.039 L109.205 176.974 L95.1306 176.974 L95.1306 185.447 Q96.1491 185.099 97.1676 184.937 Q98.1861 184.752 99.2046 184.752 Q104.992 184.752 108.371 187.923 Q111.751 191.095 111.751 196.511 Q111.751 202.09 108.279 205.192 Q104.806 208.27 98.487 208.27 Q96.3111 208.27 94.0426 207.9 Q91.7973 207.53 89.3899 206.789 L89.3899 202.09 Q91.4732 203.224 93.6954 203.78 Q95.9176 204.335 98.3945 204.335 Q102.399 204.335 104.737 202.229 Q107.075 200.122 107.075 196.511 Q107.075 192.9 104.737 190.794 Q102.399 188.687 98.3945 188.687 Q96.5195 188.687 94.6445 189.104 Q92.7926 189.521 90.8482 190.4 L90.8482 173.039 Z" fill="#000000" fill-rule="evenodd" fill-opacity="1" /><polyline clip-path="url(#clip453)" style="stroke:#009af9; stroke-linecap:round; stroke-linejoin:round; stroke-width:4; stroke-opacity:1; fill:none" points="
  222.505,756.972 237.791,756.494 379.128,751.195 464.066,747.032 535.88,742.733 613.889,737.011 685.808,730.476 762.911,721.677 852.244,708.228 891.938,700.698 
  931.632,691.859 966.44,682.711 1001.25,671.812 1020.22,664.895 1039.2,657.081 1058.17,648.124 1077.15,637.671 1096.24,625.101 1115.32,609.605 1134.41,589.727 
  1153.5,562.831 1164.05,543.215 1174.6,518.387 1179.88,503.272 1185.16,485.763 1190.43,465.215 1195.71,440.731 1200.98,411.025 1206.26,374.184 1208.9,352.219 
  1211.54,327.236 1214.17,298.561 1216.81,265.301 1219.45,226.255 1222.09,179.762 1223.41,153.019 1224.73,123.454 1226.05,90.5922 1227.36,53.8488 1228.68,12.4918 
  1230,-34.4074 1231.32,-88.044 1232.64,-149.984 1233.96,-222.318 1235.28,-307.904 1235.94,-356.86 1236.6,-410.754 1237.26,-470.371 1237.92,-536.676 1238.54,-607.058 
  1239.17,-685.849 1239.8,-774.653 1240.43,-875.508 1241.05,-991.045 1241.68,-1124.72 1242.31,-1281.18 1242.94,-1466.77 1243.56,-1690.49 1244.19,-1965.4 
  "/>
<polyline clip-path="url(#clip453)" style="stroke:#009af9; stroke-linecap:round; stroke-linejoin:round; stroke-width:4; stroke-opacity:1; fill:none" points="
  1254.86,3544.19 1255.49,3238.44 1256.11,2992.29 1256.74,2789.85 1257.37,2620.44 1258,2476.59 1258.62,2352.91 1259.25,2245.45 1259.88,2151.21 1260.51,2067.89 
  1261.13,1993.7 1261.76,1927.21 1262.39,1867.3 1263.02,1813.02 1263.64,1763.62 1264.27,1718.48 1264.9,1677.06 1265.53,1638.92 1266.78,1571.05 1268.04,1512.47 
  1269.29,1461.4 1270.55,1416.48 1271.8,1376.67 1273.06,1341.15 1275.57,1280.48 1278.08,1230.58 1279.33,1208.81 1280.59,1188.83 1281.84,1170.41 1283.1,1153.4 
  1285.61,1122.97 1288.12,1096.56 1293.14,1053.04 1298.16,1018.72 1303.18,991.043 1308.2,968.315 1313.22,949.386 1318.24,933.445 1328.68,907.473 1339.12,888.544 
  1349.55,874.644 1359.99,864.554 1370.43,857.514 1380.87,853.054 1391.31,850.9 1401.75,850.924 1419.33,855.951 1436.9,868.089 1445.69,877.487 1454.48,889.742 
  1463.26,905.627 1472.05,926.327 1477.42,942.09 1482.78,960.947 1488.14,983.768 1493.51,1011.8 1498.87,1046.91 1504.24,1091.98 1506.92,1119.61 1509.6,1151.74 
  1510.94,1169.83 1512.28,1189.5 1512.96,1200 1513.63,1210.98 1514.3,1222.48 1514.97,1234.53 1517.65,1289.09 1520.33,1356.54 1521.67,1396.61 1523.01,1442.03 
  1524.35,1493.95 1525.7,1553.87 1527.04,1623.77 1528.38,1706.39 1529.05,1753.6 1529.72,1805.52 1530.39,1862.9 1531.06,1926.66 1531.73,1997.9 1532.4,2078.04 
  1533.07,2168.84 1533.74,2272.59 1534.41,2392.27 1535.08,2531.84 1535.75,2696.72 1536.42,2894.47 1537.09,3136.01 1537.77,3437.69 1538.44,3825.17 
  "/>
<polyline clip-path="url(#clip453)" style="stroke:#009af9; stroke-linecap:round; stroke-linejoin:round; stroke-width:4; stroke-opacity:1; fill:none" points="
  1549.16,-1729.77 1549.83,-1484.79 1550.51,-1284.5 1551.18,-1117.67 1551.85,-976.582 1552.52,-855.696 1553.19,-750.964 1553.86,-659.351 1554.53,-578.537 1555.2,-506.72 
  1555.87,-442.475 1556.54,-384.665 1557.21,-332.369 1557.88,-284.834 1559.11,-208.107 1560.34,-142.348 1561.57,-85.3597 1562.8,-35.4973 1564.02,8.49798 1565.25,47.605 
  1566.48,82.5962 1567.71,114.09 1570.17,168.493 1572.62,213.839 1575.08,252.22 1577.54,285.13 1579.99,313.665 1582.45,338.648 1584.91,360.706 1587.37,380.328 
  1592.28,413.73 1597.19,441.117 1602.11,463.998 1607.02,483.419 1611.94,500.123 1616.85,514.658 1626.68,538.762 1636.51,557.999 1654.66,585.107 1672.82,605.204 
  1690.97,620.892 1709.12,633.622 1727.51,644.391 1745.9,653.589 1764.29,661.595 1782.68,668.669 1823.9,681.998 1865.12,692.801 1902.47,701.021 1939.82,708.095 
  2025.35,721.085 2104.54,730.226 2182.62,737.31 2258.42,742.829 2336.13,747.429 2421.27,751.525 2544.95,756.17 2570.32,756.972 
  "/>
<path clip-path="url(#clip450)" d="
M1877.8 492.328 L2557.8 492.328 L2557.8 248.77 L1877.8 248.77  Z
  " fill="#ffffff" fill-rule="evenodd" fill-opacity="1"/>
<polyline clip-path="url(#clip450)" style="stroke:#000000; stroke-linecap:round; stroke-linejoin:round; stroke-width:4; stroke-opacity:1; fill:none" points="
  1877.8,492.328 2557.8,492.328 2557.8,248.77 1877.8,248.77 1877.8,492.328 
  "/>
<polyline clip-path="url(#clip450)" style="stroke:#009af9; stroke-linecap:round; stroke-linejoin:round; stroke-width:4; stroke-opacity:1; fill:none" points="
  1905.45,370.549 2071.36,370.549 
  "/>
<path clip-path="url(#clip450)" d="M2121.03 363.483 Q2121.03 363.506 2120.89 364.35 L2115.55 385.641 Q2115.27 386.765 2114.47 387.889 Q2113.7 389.037 2112.46 390.021 Q2111.24 391.028 2109.37 391.637 Q2107.52 392.269 2105.38 392.269 Q2101.99 392.269 2100.49 391.543 Q2099.01 390.84 2099.01 389.341 Q2099.01 388.03 2099.83 387.28 Q2100.65 386.554 2101.59 386.554 Q2102.48 386.554 2102.95 387.069 Q2103.42 387.585 2103.42 388.24 Q2103.42 388.967 2102.92 389.693 Q2102.43 390.442 2101.45 390.723 Q2103.02 391.215 2105.29 391.215 Q2110.09 391.215 2112.15 386.132 Q2112.2 386.062 2112.2 386.039 L2113.79 379.691 L2113.72 379.644 Q2113.32 380.113 2112.69 380.652 Q2112.08 381.167 2110.77 381.799 Q2109.46 382.432 2108.17 382.432 Q2105.48 382.432 2103.63 380.371 Q2101.8 378.286 2101.8 374.843 Q2101.8 372.337 2102.81 369.83 Q2103.84 367.301 2105.43 365.45 Q2107.05 363.577 2109.11 362.406 Q2111.19 361.234 2113.21 361.234 Q2114.61 361.234 2115.81 362.078 Q2117 362.897 2117.66 364.256 Q2117.77 363.132 2118.41 362.663 Q2119.06 362.195 2119.62 362.195 Q2120.26 362.195 2120.63 362.546 Q2121.03 362.874 2121.03 363.483 M2117.1 366.411 Q2117.1 366.27 2117 365.895 Q2116.91 365.497 2116.63 364.865 Q2116.37 364.232 2115.97 363.67 Q2115.57 363.108 2114.85 362.71 Q2114.14 362.288 2113.25 362.288 Q2111.8 362.288 2110.35 363.506 Q2108.9 364.701 2107.89 366.551 Q2106.95 368.331 2106.06 371.774 Q2105.2 375.218 2105.2 376.974 Q2105.2 378.708 2105.95 380.043 Q2106.7 381.378 2108.31 381.378 Q2110.19 381.378 2112.2 379.644 Q2114.28 377.841 2114.64 376.295 L2116.95 367.137 Q2117.1 366.575 2117.1 366.411 Z" fill="#000000" fill-rule="evenodd" fill-opacity="1" /><path clip-path="url(#clip450)" d="M2127.61 370.439 Q2127.61 362.335 2130.63 355.8 Q2131.92 353.06 2133.72 350.765 Q2135.52 348.469 2136.72 347.462 Q2137.91 346.455 2138.24 346.455 Q2138.71 346.455 2138.73 346.923 Q2138.73 347.157 2138.1 347.743 Q2130.37 355.613 2130.39 370.439 Q2130.39 385.313 2137.91 392.878 Q2138.73 393.698 2138.73 393.956 Q2138.73 394.424 2138.24 394.424 Q2137.91 394.424 2136.77 393.464 Q2135.62 392.503 2133.84 390.302 Q2132.06 388.1 2130.77 385.406 Q2127.61 378.871 2127.61 370.439 Z" fill="#000000" fill-rule="evenodd" fill-opacity="1" /><path clip-path="url(#clip450)" d="M2157.11 362.288 Q2157.11 362.944 2156.81 363.108 Q2156.5 363.249 2155.66 363.249 L2151.16 363.249 L2147.6 377.396 Q2147.32 378.637 2147.32 379.691 Q2147.32 380.862 2147.67 381.378 Q2148.05 381.893 2148.82 381.893 Q2150.34 381.893 2151.98 380.511 Q2153.65 379.129 2155.05 375.756 Q2155.24 375.311 2155.33 375.218 Q2155.45 375.1 2155.75 375.1 Q2156.34 375.1 2156.34 375.569 Q2156.34 375.733 2156.01 376.482 Q2155.71 377.232 2155.03 378.333 Q2154.37 379.434 2153.51 380.464 Q2152.66 381.495 2151.37 382.244 Q2150.09 382.97 2148.7 382.97 Q2146.76 382.97 2145.52 381.729 Q2144.3 380.488 2144.3 378.544 Q2144.3 377.911 2144.79 375.897 Q2145.28 373.859 2147.95 363.249 L2143.72 363.249 Q2143.13 363.249 2142.9 363.225 Q2142.68 363.202 2142.52 363.085 Q2142.38 362.944 2142.38 362.663 Q2142.38 362.218 2142.57 362.031 Q2142.75 361.82 2142.99 361.797 Q2143.25 361.75 2143.83 361.75 L2148.33 361.75 L2150.2 354.137 Q2150.39 353.388 2150.86 352.966 Q2151.35 352.521 2151.63 352.474 Q2151.91 352.404 2152.12 352.404 Q2152.76 352.404 2153.13 352.755 Q2153.51 353.083 2153.51 353.692 Q2153.51 354.02 2151.54 361.75 L2155.75 361.75 Q2156.29 361.75 2156.5 361.773 Q2156.74 361.797 2156.93 361.914 Q2157.11 362.031 2157.11 362.288 Z" fill="#000000" fill-rule="evenodd" fill-opacity="1" /><path clip-path="url(#clip450)" d="M2160.87 393.956 Q2160.87 393.721 2161.48 393.136 Q2169.21 385.266 2169.21 370.439 Q2169.21 355.566 2161.78 348.048 Q2160.87 347.181 2160.87 346.923 Q2160.87 346.455 2161.34 346.455 Q2161.66 346.455 2162.81 347.415 Q2163.98 348.375 2165.74 350.577 Q2167.52 352.779 2168.83 355.472 Q2171.99 362.007 2171.99 370.439 Q2171.99 378.544 2168.97 385.078 Q2167.68 387.819 2165.88 390.114 Q2164.08 392.41 2162.88 393.417 Q2161.69 394.424 2161.34 394.424 Q2160.87 394.424 2160.87 393.956 Z" fill="#000000" fill-rule="evenodd" fill-opacity="1" /><path clip-path="url(#clip450)" d="M2192.6 375.147 Q2192.65 374.562 2193.56 374.562 L2222.96 374.562 Q2224.34 374.562 2224.36 375.1 Q2224.36 375.686 2223.05 375.663 L2193.89 375.663 Q2192.6 375.686 2192.6 375.147 M2192.6 365.778 Q2192.6 365.193 2193.61 365.216 L2222.91 365.216 Q2224.34 365.216 2224.36 365.778 Q2224.36 366.317 2223.14 366.317 L2193.56 366.317 Q2192.6 366.317 2192.6 365.778 Z" fill="#000000" fill-rule="evenodd" fill-opacity="1" /><path clip-path="url(#clip450)" d="M2267.84 335.036 Q2267.84 335.692 2267.54 335.856 Q2267.23 335.996 2266.39 335.996 L2261.89 335.996 L2258.33 350.143 Q2258.05 351.385 2258.05 352.439 Q2258.05 353.61 2258.4 354.125 Q2258.78 354.64 2259.55 354.64 Q2261.07 354.64 2262.71 353.259 Q2264.37 351.877 2265.78 348.504 Q2265.97 348.059 2266.06 347.965 Q2266.18 347.848 2266.48 347.848 Q2267.07 347.848 2267.07 348.316 Q2267.07 348.48 2266.74 349.23 Q2266.44 349.979 2265.76 351.08 Q2265.1 352.181 2264.23 353.212 Q2263.39 354.242 2262.1 354.992 Q2260.81 355.718 2259.43 355.718 Q2257.49 355.718 2256.25 354.477 Q2255.03 353.235 2255.03 351.291 Q2255.03 350.659 2255.52 348.644 Q2256.01 346.607 2258.68 335.996 L2254.44 335.996 Q2253.86 335.996 2253.62 335.973 Q2253.41 335.949 2253.25 335.832 Q2253.11 335.692 2253.11 335.411 Q2253.11 334.966 2253.3 334.778 Q2253.48 334.567 2253.72 334.544 Q2253.97 334.497 2254.56 334.497 L2259.06 334.497 L2260.93 326.885 Q2261.12 326.135 2261.59 325.714 Q2262.08 325.269 2262.36 325.222 Q2262.64 325.152 2262.85 325.152 Q2263.48 325.152 2263.86 325.503 Q2264.23 325.831 2264.23 326.44 Q2264.23 326.768 2262.27 334.497 L2266.48 334.497 Q2267.02 334.497 2267.23 334.521 Q2267.47 334.544 2267.65 334.661 Q2267.84 334.778 2267.84 335.036 Z" fill="#000000" fill-rule="evenodd" fill-opacity="1" /><path clip-path="url(#clip450)" d="M2272.81 326.646 L2272.81 325.613 L2283.12 309.857 Q2283.38 309.447 2283.79 309.463 Q2284.17 309.463 2284.25 309.611 Q2284.33 309.758 2284.33 310.332 L2284.33 325.613 L2287.69 325.613 L2287.69 326.646 L2284.33 326.646 L2284.33 329.564 Q2284.33 330.532 2284.73 330.843 Q2285.14 331.155 2286.87 331.155 L2287.58 331.155 L2287.58 332.188 Q2286.2 332.089 2283.02 332.089 Q2279.86 332.089 2278.48 332.188 L2278.48 331.155 L2279.18 331.155 Q2280.92 331.155 2281.33 330.859 Q2281.74 330.548 2281.74 329.564 L2281.74 326.646 L2272.81 326.646 M2273.76 325.613 L2281.94 325.613 L2281.94 313.087 L2273.76 325.613 Z" fill="#000000" fill-rule="evenodd" fill-opacity="1" /><path clip-path="url(#clip450)" d="M2307.07 343.772 Q2305.97 343.772 2305.97 343.187 Q2305.97 342.601 2307.12 342.601 Q2307.26 342.601 2307.5 342.625 Q2307.75 342.648 2307.8 342.648 L2321.32 342.648 L2321.32 329.087 Q2321.32 329.04 2321.29 328.829 Q2321.27 328.595 2321.27 328.454 Q2321.27 327.306 2321.83 327.306 Q2322.42 327.306 2322.42 328.454 L2322.42 342.648 L2335.95 342.648 Q2336 342.648 2336.24 342.625 Q2336.47 342.601 2336.61 342.601 Q2337.71 342.601 2337.71 343.187 Q2337.73 343.772 2336.56 343.772 Q2336.42 343.772 2336.21 343.749 Q2336 343.726 2335.95 343.726 L2322.42 343.726 L2322.42 357.966 Q2322.42 359.067 2321.83 359.067 Q2321.27 359.067 2321.27 357.92 Q2321.27 357.779 2321.29 357.545 Q2321.32 357.334 2321.32 357.287 L2321.32 343.726 L2307.8 343.726 Q2307.75 343.726 2307.47 343.749 Q2307.22 343.772 2307.07 343.772 Z" fill="#000000" fill-rule="evenodd" fill-opacity="1" /><path clip-path="url(#clip450)" d="M2356.24 327.798 L2356.24 326.299 Q2362 326.299 2364.98 323.231 Q2365.8 323.231 2365.94 323.418 Q2366.08 323.606 2366.08 324.472 L2366.08 351.385 Q2366.08 352.814 2366.78 353.259 Q2367.48 353.704 2370.55 353.704 L2372.08 353.704 L2372.08 355.179 Q2370.39 355.039 2364.3 355.039 Q2358.21 355.039 2356.55 355.179 L2356.55 353.704 L2358.07 353.704 Q2361.09 353.704 2361.82 353.282 Q2362.54 352.837 2362.54 351.385 L2362.54 326.534 Q2360.04 327.798 2356.24 327.798 Z" fill="#000000" fill-rule="evenodd" fill-opacity="1" /><path clip-path="url(#clip450)" d="M2375.19 334.029 Q2375.19 331.476 2375.94 329.742 Q2376.69 327.986 2378.26 326.252 Q2381.14 323.231 2385.31 323.231 Q2387.09 323.231 2388.66 323.981 Q2390.25 324.73 2391.75 326.44 Q2393.27 328.126 2394.19 331.476 Q2395.1 334.802 2395.1 339.392 Q2395.1 346.817 2391.49 351.525 Q2387.91 356.233 2383.06 356.233 Q2379.99 356.233 2378.19 354.851 Q2376.38 353.446 2376.38 351.057 Q2376.38 349.815 2377.09 349.3 Q2377.79 348.761 2378.59 348.761 Q2379.45 348.761 2380.13 349.347 Q2380.81 349.909 2380.81 350.963 Q2380.81 351.83 2380.25 352.509 Q2379.71 353.165 2378.31 353.165 Q2379.69 354.898 2383.01 354.898 Q2384.21 354.898 2385.4 354.359 Q2386.6 353.797 2387.89 352.462 Q2389.2 351.104 2389.99 348.27 Q2390.79 345.435 2390.79 341.454 L2390.79 339.931 Q2388.87 344.733 2384.79 344.733 Q2380.76 344.733 2377.98 341.641 Q2375.19 338.549 2375.19 334.029 M2379.5 334.076 Q2379.5 338.83 2380.37 340.587 Q2381.84 343.609 2384.84 343.609 Q2387.77 343.609 2389.22 341.009 Q2390.7 338.385 2390.7 334.989 Q2390.7 330.281 2389.92 328.22 Q2388.49 324.426 2385.31 324.426 Q2382.15 324.426 2380.51 327.447 Q2379.5 329.227 2379.5 334.076 Z" fill="#000000" fill-rule="evenodd" fill-opacity="1" /><path clip-path="url(#clip450)" d="M2413.68 335.036 Q2413.68 335.692 2413.37 335.856 Q2413.07 335.996 2412.23 335.996 L2407.73 335.996 L2404.17 350.143 Q2403.89 351.385 2403.89 352.439 Q2403.89 353.61 2404.24 354.125 Q2404.61 354.64 2405.39 354.64 Q2406.91 354.64 2408.55 353.259 Q2410.21 351.877 2411.62 348.504 Q2411.81 348.059 2411.9 347.965 Q2412.02 347.848 2412.32 347.848 Q2412.91 347.848 2412.91 348.316 Q2412.91 348.48 2412.58 349.23 Q2412.27 349.979 2411.59 351.08 Q2410.94 352.181 2410.07 353.212 Q2409.23 354.242 2407.94 354.992 Q2406.65 355.718 2405.27 355.718 Q2403.33 355.718 2402.09 354.477 Q2400.87 353.235 2400.87 351.291 Q2400.87 350.659 2401.36 348.644 Q2401.85 346.607 2404.52 335.996 L2400.28 335.996 Q2399.7 335.996 2399.46 335.973 Q2399.25 335.949 2399.09 335.832 Q2398.95 335.692 2398.95 335.411 Q2398.95 334.966 2399.13 334.778 Q2399.32 334.567 2399.56 334.544 Q2399.81 334.497 2400.4 334.497 L2404.9 334.497 L2406.77 326.885 Q2406.96 326.135 2407.43 325.714 Q2407.92 325.269 2408.2 325.222 Q2408.48 325.152 2408.69 325.152 Q2409.32 325.152 2409.7 325.503 Q2410.07 325.831 2410.07 326.44 Q2410.07 326.768 2408.1 334.497 L2412.32 334.497 Q2412.86 334.497 2413.07 334.521 Q2413.3 334.544 2413.49 334.661 Q2413.68 334.778 2413.68 335.036 Z" fill="#000000" fill-rule="evenodd" fill-opacity="1" /><path clip-path="url(#clip450)" d="M2418.64 332.074 Q2418.64 331.467 2418.69 331.287 Q2418.76 331.106 2419.02 330.828 L2425.46 323.646 Q2428.99 319.678 2428.99 316.219 Q2428.99 313.973 2427.81 312.366 Q2426.65 310.759 2424.5 310.759 Q2423.02 310.759 2421.78 311.661 Q2420.53 312.563 2419.96 314.169 Q2420.05 314.137 2420.4 314.137 Q2421.23 314.137 2421.69 314.661 Q2422.17 315.186 2422.17 315.891 Q2422.17 316.793 2421.58 317.235 Q2421.01 317.662 2420.43 317.662 Q2420.2 317.662 2419.89 317.613 Q2419.6 317.563 2419.12 317.104 Q2418.64 316.629 2418.64 315.793 Q2418.64 313.448 2420.41 311.579 Q2422.2 309.71 2424.92 309.71 Q2428.01 309.71 2430.02 311.546 Q2432.06 313.366 2432.06 316.219 Q2432.06 317.219 2431.74 318.137 Q2431.45 319.039 2431.04 319.744 Q2430.65 320.449 2429.56 321.58 Q2428.48 322.712 2427.61 323.515 Q2426.74 324.318 2424.79 326.024 L2421.23 329.483 L2427.28 329.483 Q2430.24 329.483 2430.47 329.221 Q2430.79 328.745 2431.2 326.237 L2432.06 326.237 L2431.1 332.074 L2418.64 332.074 Z" fill="#000000" fill-rule="evenodd" fill-opacity="1" /><path clip-path="url(#clip450)" d="M2482.02 342.508 Q2482.3 342.789 2482.3 343.187 Q2482.3 343.585 2482.02 343.866 Q2481.74 344.147 2481.34 344.147 L2451.31 344.147 Q2450.92 344.147 2450.64 343.866 Q2450.35 343.585 2450.35 343.187 Q2450.35 342.789 2450.64 342.508 Q2450.92 342.227 2451.31 342.227 L2481.34 342.227 Q2481.74 342.227 2482.02 342.508 Z" fill="#000000" fill-rule="evenodd" fill-opacity="1" /><path clip-path="url(#clip450)" d="M2500.62 347.45 Q2500.62 346.021 2501.4 345.482 Q2502.17 344.92 2502.99 344.92 Q2504.09 344.92 2504.72 345.623 Q2505.38 346.302 2505.38 347.262 Q2505.38 348.223 2504.72 348.925 Q2504.09 349.605 2502.99 349.605 Q2502.45 349.605 2502.17 349.511 Q2502.8 351.713 2504.72 353.305 Q2506.67 354.898 2509.22 354.898 Q2512.43 354.898 2514.35 351.783 Q2515.5 349.769 2515.5 345.201 Q2515.5 341.173 2514.63 339.158 Q2513.29 336.09 2510.55 336.09 Q2506.67 336.09 2504.37 339.439 Q2504.09 339.861 2503.76 339.884 Q2503.29 339.884 2503.18 339.627 Q2503.08 339.346 2503.08 338.62 L2503.08 324.426 Q2503.08 323.278 2503.55 323.278 Q2503.74 323.278 2504.14 323.418 Q2507.16 324.753 2510.51 324.777 Q2513.95 324.777 2517.04 323.372 Q2517.28 323.231 2517.42 323.231 Q2517.89 323.231 2517.91 323.77 Q2517.91 323.957 2517.51 324.519 Q2517.14 325.058 2516.32 325.784 Q2515.5 326.487 2514.44 327.166 Q2513.39 327.845 2511.84 328.314 Q2510.32 328.759 2508.63 328.759 Q2506.62 328.759 2504.56 328.126 L2504.56 337.472 Q2507.04 335.036 2510.65 335.036 Q2514.49 335.036 2517.14 338.128 Q2519.78 341.219 2519.78 345.529 Q2519.78 350.05 2516.64 353.141 Q2513.53 356.233 2509.31 356.233 Q2505.47 356.233 2503.04 353.493 Q2500.62 350.752 2500.62 347.45 Z" fill="#000000" fill-rule="evenodd" fill-opacity="1" /><path clip-path="url(#clip450)" d="
M2253.11 371.829 L2525.03 371.829 L2525.03 369.269 L2253.11 369.269  Z
  " fill="#000000" fill-rule="evenodd" fill-opacity="1"/>
<path clip-path="url(#clip450)" d="M2267.84 407.445 Q2267.84 408.101 2267.54 408.265 Q2267.23 408.406 2266.39 408.406 L2261.89 408.406 L2258.33 422.553 Q2258.05 423.794 2258.05 424.848 Q2258.05 426.019 2258.4 426.535 Q2258.78 427.05 2259.55 427.05 Q2261.07 427.05 2262.71 425.668 Q2264.37 424.286 2265.78 420.913 Q2265.97 420.468 2266.06 420.375 Q2266.18 420.257 2266.48 420.257 Q2267.07 420.257 2267.07 420.726 Q2267.07 420.89 2266.74 421.639 Q2266.44 422.389 2265.76 423.49 Q2265.1 424.591 2264.23 425.621 Q2263.39 426.652 2262.1 427.401 Q2260.81 428.127 2259.43 428.127 Q2257.49 428.127 2256.25 426.886 Q2255.03 425.645 2255.03 423.7 Q2255.03 423.068 2255.52 421.054 Q2256.01 419.016 2258.68 408.406 L2254.44 408.406 Q2253.86 408.406 2253.62 408.382 Q2253.41 408.359 2253.25 408.242 Q2253.11 408.101 2253.11 407.82 Q2253.11 407.375 2253.3 407.188 Q2253.48 406.977 2253.72 406.953 Q2253.97 406.907 2254.56 406.907 L2259.06 406.907 L2260.93 399.294 Q2261.12 398.545 2261.59 398.123 Q2262.08 397.678 2262.36 397.631 Q2262.64 397.561 2262.85 397.561 Q2263.48 397.561 2263.86 397.912 Q2264.23 398.24 2264.23 398.849 Q2264.23 399.177 2262.27 406.907 L2266.48 406.907 Q2267.02 406.907 2267.23 406.93 Q2267.47 406.953 2267.65 407.071 Q2267.84 407.188 2267.84 407.445 Z" fill="#000000" fill-rule="evenodd" fill-opacity="1" /><path clip-path="url(#clip450)" d="M2272.81 399.055 L2272.81 398.022 L2283.12 382.266 Q2283.38 381.856 2283.79 381.872 Q2284.17 381.872 2284.25 382.02 Q2284.33 382.168 2284.33 382.741 L2284.33 398.022 L2287.69 398.022 L2287.69 399.055 L2284.33 399.055 L2284.33 401.974 Q2284.33 402.941 2284.73 403.253 Q2285.14 403.564 2286.87 403.564 L2287.58 403.564 L2287.58 404.597 Q2286.2 404.499 2283.02 404.499 Q2279.86 404.499 2278.48 404.597 L2278.48 403.564 L2279.18 403.564 Q2280.92 403.564 2281.33 403.269 Q2281.74 402.957 2281.74 401.974 L2281.74 399.055 L2272.81 399.055 M2273.76 398.022 L2281.94 398.022 L2281.94 385.496 L2273.76 398.022 Z" fill="#000000" fill-rule="evenodd" fill-opacity="1" /><path clip-path="url(#clip450)" d="M2307.07 416.182 Q2305.97 416.182 2305.97 415.596 Q2305.97 415.011 2307.12 415.011 Q2307.26 415.011 2307.5 415.034 Q2307.75 415.058 2307.8 415.058 L2321.32 415.058 L2321.32 401.496 Q2321.32 401.449 2321.29 401.238 Q2321.27 401.004 2321.27 400.864 Q2321.27 399.716 2321.83 399.716 Q2322.42 399.716 2322.42 400.864 L2322.42 415.058 L2335.95 415.058 Q2336 415.058 2336.24 415.034 Q2336.47 415.011 2336.61 415.011 Q2337.71 415.011 2337.71 415.596 Q2337.73 416.182 2336.56 416.182 Q2336.42 416.182 2336.21 416.158 Q2336 416.135 2335.95 416.135 L2322.42 416.135 L2322.42 430.376 Q2322.42 431.477 2321.83 431.477 Q2321.27 431.477 2321.27 430.329 Q2321.27 430.189 2321.29 429.954 Q2321.32 429.743 2321.32 429.697 L2321.32 416.135 L2307.8 416.135 Q2307.75 416.135 2307.47 416.158 Q2307.22 416.182 2307.07 416.182 Z" fill="#000000" fill-rule="evenodd" fill-opacity="1" /><path clip-path="url(#clip450)" d="M2356.24 406.438 Q2356.24 403.885 2356.99 402.152 Q2357.74 400.395 2359.31 398.662 Q2362.19 395.64 2366.36 395.64 Q2368.14 395.64 2369.71 396.39 Q2371.3 397.139 2372.8 398.849 Q2374.32 400.536 2375.24 403.885 Q2376.15 407.211 2376.15 411.802 Q2376.15 419.227 2372.54 423.935 Q2368.96 428.643 2364.11 428.643 Q2361.04 428.643 2359.24 427.261 Q2357.44 425.855 2357.44 423.466 Q2357.44 422.225 2358.14 421.71 Q2358.84 421.171 2359.64 421.171 Q2360.51 421.171 2361.18 421.756 Q2361.86 422.319 2361.86 423.373 Q2361.86 424.239 2361.3 424.918 Q2360.76 425.574 2359.36 425.574 Q2360.74 427.308 2364.07 427.308 Q2365.26 427.308 2366.45 426.769 Q2367.65 426.207 2368.94 424.872 Q2370.25 423.513 2371.05 420.679 Q2371.84 417.845 2371.84 413.863 L2371.84 412.341 Q2369.92 417.142 2365.85 417.142 Q2361.82 417.142 2359.03 414.05 Q2356.24 410.959 2356.24 406.438 M2360.55 406.485 Q2360.55 411.24 2361.42 412.996 Q2362.89 416.018 2365.89 416.018 Q2368.82 416.018 2370.27 413.418 Q2371.75 410.795 2371.75 407.398 Q2371.75 402.691 2370.97 400.629 Q2369.55 396.835 2366.36 396.835 Q2363.2 396.835 2361.56 399.856 Q2360.55 401.637 2360.55 406.485 Z" fill="#000000" fill-rule="evenodd" fill-opacity="1" /><path clip-path="url(#clip450)" d="M2394.73 407.445 Q2394.73 408.101 2394.43 408.265 Q2394.12 408.406 2393.28 408.406 L2388.78 408.406 L2385.22 422.553 Q2384.94 423.794 2384.94 424.848 Q2384.94 426.019 2385.29 426.535 Q2385.67 427.05 2386.44 427.05 Q2387.96 427.05 2389.6 425.668 Q2391.26 424.286 2392.67 420.913 Q2392.86 420.468 2392.95 420.375 Q2393.07 420.257 2393.37 420.257 Q2393.96 420.257 2393.96 420.726 Q2393.96 420.89 2393.63 421.639 Q2393.33 422.389 2392.65 423.49 Q2391.99 424.591 2391.12 425.621 Q2390.28 426.652 2388.99 427.401 Q2387.7 428.127 2386.32 428.127 Q2384.38 428.127 2383.14 426.886 Q2381.92 425.645 2381.92 423.7 Q2381.92 423.068 2382.41 421.054 Q2382.9 419.016 2385.57 408.406 L2381.33 408.406 Q2380.75 408.406 2380.51 408.382 Q2380.3 408.359 2380.14 408.242 Q2380 408.101 2380 407.82 Q2380 407.375 2380.19 407.188 Q2380.37 406.977 2380.61 406.953 Q2380.87 406.907 2381.45 406.907 L2385.95 406.907 L2387.82 399.294 Q2388.01 398.545 2388.48 398.123 Q2388.97 397.678 2389.25 397.631 Q2389.53 397.561 2389.74 397.561 Q2390.37 397.561 2390.75 397.912 Q2391.12 398.24 2391.12 398.849 Q2391.12 399.177 2389.16 406.907 L2393.37 406.907 Q2393.91 406.907 2394.12 406.93 Q2394.36 406.953 2394.54 407.071 Q2394.73 407.188 2394.73 407.445 Z" fill="#000000" fill-rule="evenodd" fill-opacity="1" /><path clip-path="url(#clip450)" d="M2399.7 404.483 Q2399.7 403.876 2399.75 403.696 Q2399.81 403.516 2400.07 403.237 L2406.52 396.056 Q2410.04 392.088 2410.04 388.628 Q2410.04 386.382 2408.86 384.775 Q2407.7 383.169 2405.55 383.169 Q2404.07 383.169 2402.83 384.07 Q2401.58 384.972 2401.01 386.579 Q2401.11 386.546 2401.45 386.546 Q2402.29 386.546 2402.75 387.071 Q2403.22 387.595 2403.22 388.3 Q2403.22 389.202 2402.63 389.645 Q2402.06 390.071 2401.48 390.071 Q2401.25 390.071 2400.94 390.022 Q2400.65 389.973 2400.17 389.514 Q2399.7 389.038 2399.7 388.202 Q2399.7 385.857 2401.47 383.988 Q2403.25 382.119 2405.98 382.119 Q2409.06 382.119 2411.07 383.956 Q2413.11 385.776 2413.11 388.628 Q2413.11 389.629 2412.8 390.547 Q2412.5 391.448 2412.09 392.153 Q2411.7 392.858 2410.62 393.99 Q2409.53 395.121 2408.66 395.924 Q2407.8 396.728 2405.84 398.433 L2402.29 401.893 L2408.34 401.893 Q2411.29 401.893 2411.52 401.63 Q2411.85 401.155 2412.26 398.646 L2413.11 398.646 L2412.16 404.483 L2399.7 404.483 Z" fill="#000000" fill-rule="evenodd" fill-opacity="1" /><path clip-path="url(#clip450)" d="M2463.07 414.917 Q2463.35 415.198 2463.35 415.596 Q2463.35 415.995 2463.07 416.276 Q2462.79 416.557 2462.39 416.557 L2432.37 416.557 Q2431.97 416.557 2431.69 416.276 Q2431.41 415.995 2431.41 415.596 Q2431.41 415.198 2431.69 414.917 Q2431.97 414.636 2432.37 414.636 L2462.39 414.636 Q2462.79 414.636 2463.07 414.917 Z" fill="#000000" fill-rule="evenodd" fill-opacity="1" /><path clip-path="url(#clip450)" d="M2481.67 400.208 L2481.67 398.709 Q2487.44 398.709 2490.41 395.64 Q2491.23 395.64 2491.37 395.828 Q2491.51 396.015 2491.51 396.882 L2491.51 423.794 Q2491.51 425.223 2492.21 425.668 Q2492.92 426.113 2495.99 426.113 L2497.51 426.113 L2497.51 427.589 Q2495.82 427.448 2489.73 427.448 Q2483.64 427.448 2481.98 427.589 L2481.98 426.113 L2483.5 426.113 Q2486.52 426.113 2487.25 425.691 Q2487.98 425.246 2487.98 423.794 L2487.98 398.943 Q2485.47 400.208 2481.67 400.208 Z" fill="#000000" fill-rule="evenodd" fill-opacity="1" /><path clip-path="url(#clip450)" d="M2499.92 412.247 Q2499.92 405.197 2501.7 401.355 Q2504.19 395.64 2510.04 395.64 Q2511.28 395.64 2512.57 395.992 Q2513.88 396.32 2515.52 397.608 Q2517.19 398.896 2518.19 401.004 Q2520.11 405.08 2520.11 412.247 Q2520.11 419.25 2518.33 423.068 Q2515.73 428.643 2509.99 428.643 Q2507.84 428.643 2505.64 427.542 Q2503.46 426.441 2502.08 423.794 Q2499.92 419.836 2499.92 412.247 M2503.9 411.661 Q2503.9 418.899 2504.42 421.78 Q2505.01 424.895 2506.6 426.254 Q2508.21 427.589 2509.99 427.589 Q2511.91 427.589 2513.51 426.16 Q2515.12 424.708 2515.62 421.592 Q2516.15 418.524 2516.13 411.661 Q2516.13 404.986 2515.66 402.316 Q2515.03 399.201 2513.34 397.959 Q2511.68 396.694 2509.99 396.694 Q2509.36 396.694 2508.68 396.882 Q2508.03 397.069 2507.07 397.608 Q2506.11 398.147 2505.36 399.482 Q2504.63 400.817 2504.28 402.831 Q2503.9 405.431 2503.9 411.661 Z" fill="#000000" fill-rule="evenodd" fill-opacity="1" /></svg>
