<?xml version="1.0" encoding="utf-8"?>
<svg xmlns="http://www.w3.org/2000/svg" xmlns:xlink="http://www.w3.org/1999/xlink" width="528" height="336" viewBox="0 0 2112 1344">
<defs>
  <clipPath id="clip250">
    <rect x="0" y="0" width="2112" height="1344"/>
  </clipPath>
</defs>
<path clip-path="url(#clip250)" d="M0 1344 L2112 1344 L2112 0 L0 0  Z" fill="#ffffff" fill-rule="evenodd" fill-opacity="1"/>
<defs>
  <clipPath id="clip251">
    <rect x="422" y="0" width="1479" height="1344"/>
  </clipPath>
</defs>
<path clip-path="url(#clip250)" d="M198.924 1173.47 L2064.76 1173.47 L2064.76 47.2441 L198.924 47.2441  Z" fill="#ffffff" fill-rule="evenodd" fill-opacity="1"/>
<defs>
  <clipPath id="clip252">
    <rect x="198" y="47" width="1867" height="1127"/>
  </clipPath>
</defs>
<polyline clip-path="url(#clip252)" style="stroke:#000000; stroke-linecap:round; stroke-linejoin:round; stroke-width:2; stroke-opacity:0.1; fill:none" points="251.73,1173.47 251.73,47.2441 "/>
<polyline clip-path="url(#clip252)" style="stroke:#000000; stroke-linecap:round; stroke-linejoin:round; stroke-width:2; stroke-opacity:0.1; fill:none" points="545.1,1173.47 545.1,47.2441 "/>
<polyline clip-path="url(#clip252)" style="stroke:#000000; stroke-linecap:round; stroke-linejoin:round; stroke-width:2; stroke-opacity:0.1; fill:none" points="838.47,1173.47 838.47,47.2441 "/>
<polyline clip-path="url(#clip252)" style="stroke:#000000; stroke-linecap:round; stroke-linejoin:round; stroke-width:2; stroke-opacity:0.1; fill:none" points="1131.84,1173.47 1131.84,47.2441 "/>
<polyline clip-path="url(#clip252)" style="stroke:#000000; stroke-linecap:round; stroke-linejoin:round; stroke-width:2; stroke-opacity:0.1; fill:none" points="1425.21,1173.47 1425.21,47.2441 "/>
<polyline clip-path="url(#clip252)" style="stroke:#000000; stroke-linecap:round; stroke-linejoin:round; stroke-width:2; stroke-opacity:0.1; fill:none" points="1718.58,1173.47 1718.58,47.2441 "/>
<polyline clip-path="url(#clip252)" style="stroke:#000000; stroke-linecap:round; stroke-linejoin:round; stroke-width:2; stroke-opacity:0.1; fill:none" points="2011.95,1173.47 2011.95,47.2441 "/>
<polyline clip-path="url(#clip250)" style="stroke:#000000; stroke-linecap:round; stroke-linejoin:round; stroke-width:4; stroke-opacity:1; fill:none" points="198.924,1173.47 2064.76,1173.47 "/>
<polyline clip-path="url(#clip250)" style="stroke:#000000; stroke-linecap:round; stroke-linejoin:round; stroke-width:4; stroke-opacity:1; fill:none" points="251.73,1173.47 251.73,1154.57 "/>
<polyline clip-path="url(#clip250)" style="stroke:#000000; stroke-linecap:round; stroke-linejoin:round; stroke-width:4; stroke-opacity:1; fill:none" points="545.1,1173.47 545.1,1154.57 "/>
<polyline clip-path="url(#clip250)" style="stroke:#000000; stroke-linecap:round; stroke-linejoin:round; stroke-width:4; stroke-opacity:1; fill:none" points="838.47,1173.47 838.47,1154.57 "/>
<polyline clip-path="url(#clip250)" style="stroke:#000000; stroke-linecap:round; stroke-linejoin:round; stroke-width:4; stroke-opacity:1; fill:none" points="1131.84,1173.47 1131.84,1154.57 "/>
<polyline clip-path="url(#clip250)" style="stroke:#000000; stroke-linecap:round; stroke-linejoin:round; stroke-width:4; stroke-opacity:1; fill:none" points="1425.21,1173.47 1425.21,1154.57 "/>
<polyline clip-path="url(#clip250)" style="stroke:#000000; stroke-linecap:round; stroke-linejoin:round; stroke-width:4; stroke-opacity:1; fill:none" points="1718.58,1173.47 1718.58,1154.57 "/>
<polyline clip-path="url(#clip250)" style="stroke:#000000; stroke-linecap:round; stroke-linejoin:round; stroke-width:4; stroke-opacity:1; fill:none" points="2011.95,1173.47 2011.95,1154.57 "/>
<path clip-path="url(#clip250)" d="M251.73 1202.09 Q248.119 1202.09 246.29 1205.65 Q244.485 1209.19 244.485 1216.32 Q244.485 1223.43 246.29 1226.99 Q248.119 1230.53 251.73 1230.53 Q255.364 1230.53 257.17 1226.99 Q258.999 1223.43 258.999 1216.32 Q258.999 1209.19 257.17 1205.65 Q255.364 1202.09 251.73 1202.09 M251.73 1198.38 Q257.54 1198.38 260.596 1202.99 Q263.675 1207.57 263.675 1216.32 Q263.675 1225.05 260.596 1229.65 Q257.54 1234.24 251.73 1234.24 Q245.92 1234.24 242.841 1229.65 Q239.786 1225.05 239.786 1216.32 Q239.786 1207.57 242.841 1202.99 Q245.92 1198.38 251.73 1198.38 Z" fill="#000000" fill-rule="nonzero" fill-opacity="1" /><path clip-path="url(#clip250)" d="M535.482 1229.63 L543.121 1229.63 L543.121 1203.27 L534.811 1204.93 L534.811 1200.67 L543.075 1199.01 L547.75 1199.01 L547.75 1229.63 L555.389 1229.63 L555.389 1233.57 L535.482 1233.57 L535.482 1229.63 Z" fill="#000000" fill-rule="nonzero" fill-opacity="1" /><path clip-path="url(#clip250)" d="M833.123 1229.63 L849.442 1229.63 L849.442 1233.57 L827.498 1233.57 L827.498 1229.63 Q830.16 1226.88 834.743 1222.25 Q839.35 1217.59 840.53 1216.25 Q842.775 1213.73 843.655 1211.99 Q844.558 1210.23 844.558 1208.54 Q844.558 1205.79 842.613 1204.05 Q840.692 1202.32 837.59 1202.32 Q835.391 1202.32 832.937 1203.08 Q830.507 1203.84 827.729 1205.4 L827.729 1200.67 Q830.553 1199.54 833.007 1198.96 Q835.461 1198.38 837.498 1198.38 Q842.868 1198.38 846.062 1201.07 Q849.257 1203.75 849.257 1208.24 Q849.257 1210.37 848.447 1212.29 Q847.66 1214.19 845.553 1216.78 Q844.974 1217.46 841.873 1220.67 Q838.771 1223.87 833.123 1229.63 Z" fill="#000000" fill-rule="nonzero" fill-opacity="1" /><path clip-path="url(#clip250)" d="M1136.09 1214.93 Q1139.44 1215.65 1141.32 1217.92 Q1143.22 1220.19 1143.22 1223.52 Q1143.22 1228.64 1139.7 1231.44 Q1136.18 1234.24 1129.7 1234.24 Q1127.52 1234.24 1125.21 1233.8 Q1122.92 1233.38 1120.46 1232.53 L1120.46 1228.01 Q1122.41 1229.15 1124.72 1229.72 Q1127.04 1230.3 1129.56 1230.3 Q1133.96 1230.3 1136.25 1228.57 Q1138.56 1226.83 1138.56 1223.52 Q1138.56 1220.46 1136.41 1218.75 Q1134.28 1217.02 1130.46 1217.02 L1126.43 1217.02 L1126.43 1213.17 L1130.65 1213.17 Q1134.1 1213.17 1135.93 1211.81 Q1137.75 1210.42 1137.75 1207.83 Q1137.75 1205.16 1135.86 1203.75 Q1133.98 1202.32 1130.46 1202.32 Q1128.54 1202.32 1126.34 1202.73 Q1124.14 1203.15 1121.5 1204.03 L1121.5 1199.86 Q1124.17 1199.12 1126.48 1198.75 Q1128.82 1198.38 1130.88 1198.38 Q1136.2 1198.38 1139.3 1200.81 Q1142.41 1203.22 1142.41 1207.34 Q1142.41 1210.21 1140.76 1212.2 Q1139.12 1214.17 1136.09 1214.93 Z" fill="#000000" fill-rule="nonzero" fill-opacity="1" /><path clip-path="url(#clip250)" d="M1428.22 1203.08 L1416.41 1221.53 L1428.22 1221.53 L1428.22 1203.08 M1426.99 1199.01 L1432.87 1199.01 L1432.87 1221.53 L1437.8 1221.53 L1437.8 1225.42 L1432.87 1225.42 L1432.87 1233.57 L1428.22 1233.57 L1428.22 1225.42 L1412.62 1225.42 L1412.62 1220.9 L1426.99 1199.01 Z" fill="#000000" fill-rule="nonzero" fill-opacity="1" /><path clip-path="url(#clip250)" d="M1708.86 1199.01 L1727.21 1199.01 L1727.21 1202.94 L1713.14 1202.94 L1713.14 1211.41 Q1714.16 1211.07 1715.18 1210.9 Q1716.2 1210.72 1717.21 1210.72 Q1723 1210.72 1726.38 1213.89 Q1729.76 1217.06 1729.76 1222.48 Q1729.76 1228.06 1726.29 1231.16 Q1722.82 1234.24 1716.5 1234.24 Q1714.32 1234.24 1712.05 1233.87 Q1709.81 1233.5 1707.4 1232.76 L1707.4 1228.06 Q1709.48 1229.19 1711.7 1229.75 Q1713.93 1230.3 1716.4 1230.3 Q1720.41 1230.3 1722.75 1228.2 Q1725.08 1226.09 1725.08 1222.48 Q1725.08 1218.87 1722.75 1216.76 Q1720.41 1214.65 1716.4 1214.65 Q1714.53 1214.65 1712.65 1215.07 Q1710.8 1215.49 1708.86 1216.37 L1708.86 1199.01 Z" fill="#000000" fill-rule="nonzero" fill-opacity="1" /><path clip-path="url(#clip250)" d="M2012.35 1214.42 Q2009.21 1214.42 2007.35 1216.58 Q2005.53 1218.73 2005.53 1222.48 Q2005.53 1226.21 2007.35 1228.38 Q2009.21 1230.53 2012.35 1230.53 Q2015.5 1230.53 2017.33 1228.38 Q2019.18 1226.21 2019.18 1222.48 Q2019.18 1218.73 2017.33 1216.58 Q2015.5 1214.42 2012.35 1214.42 M2021.64 1199.77 L2021.64 1204.03 Q2019.88 1203.2 2018.07 1202.76 Q2016.29 1202.32 2014.53 1202.32 Q2009.9 1202.32 2007.45 1205.44 Q2005.02 1208.57 2004.67 1214.89 Q2006.04 1212.87 2008.1 1211.81 Q2010.16 1210.72 2012.63 1210.72 Q2017.84 1210.72 2020.85 1213.89 Q2023.88 1217.04 2023.88 1222.48 Q2023.88 1227.8 2020.73 1231.02 Q2017.59 1234.24 2012.35 1234.24 Q2006.36 1234.24 2003.19 1229.65 Q2000.02 1225.05 2000.02 1216.32 Q2000.02 1208.13 2003.91 1203.27 Q2007.79 1198.38 2014.35 1198.38 Q2016.1 1198.38 2017.89 1198.73 Q2019.69 1199.08 2021.64 1199.77 Z" fill="#000000" fill-rule="nonzero" fill-opacity="1" /><path clip-path="url(#clip250)" d="M961.382 1266.49 L1001.58 1266.49 L1001.58 1271.91 L984.712 1271.91 L984.712 1314.01 L978.251 1314.01 L978.251 1271.91 L961.382 1271.91 L961.382 1266.49 Z" fill="#000000" fill-rule="nonzero" fill-opacity="1" /><path clip-path="url(#clip250)" d="M1005.53 1278.37 L1011.38 1278.37 L1011.38 1314.01 L1005.53 1314.01 L1005.53 1278.37 M1005.53 1264.49 L1011.38 1264.49 L1011.38 1271.91 L1005.53 1271.91 L1005.53 1264.49 Z" fill="#000000" fill-rule="nonzero" fill-opacity="1" /><path clip-path="url(#clip250)" d="M1054.13 1294.73 L1054.13 1297.59 L1027.2 1297.59 Q1027.59 1303.64 1030.83 1306.82 Q1034.11 1309.97 1039.93 1309.97 Q1043.31 1309.97 1046.46 1309.14 Q1049.64 1308.32 1052.76 1306.66 L1052.76 1312.2 Q1049.61 1313.54 1046.3 1314.24 Q1042.99 1314.94 1039.58 1314.94 Q1031.05 1314.94 1026.06 1309.97 Q1021.09 1305.01 1021.09 1296.54 Q1021.09 1287.79 1025.8 1282.66 Q1030.55 1277.51 1038.57 1277.51 Q1045.76 1277.51 1049.93 1282.15 Q1054.13 1286.77 1054.13 1294.73 M1048.27 1293.01 Q1048.21 1288.2 1045.57 1285.34 Q1042.96 1282.47 1038.63 1282.47 Q1033.73 1282.47 1030.77 1285.24 Q1027.84 1288.01 1027.39 1293.04 L1048.27 1293.01 Z" fill="#000000" fill-rule="nonzero" fill-opacity="1" /><path clip-path="url(#clip250)" d="M1091.5 1285.21 Q1093.69 1281.26 1096.75 1279.39 Q1099.8 1277.51 1103.94 1277.51 Q1109.51 1277.51 1112.54 1281.42 Q1115.56 1285.31 1115.56 1292.5 L1115.56 1314.01 L1109.67 1314.01 L1109.67 1292.69 Q1109.67 1287.57 1107.86 1285.08 Q1106.04 1282.6 1102.32 1282.6 Q1097.77 1282.6 1095.13 1285.62 Q1092.48 1288.65 1092.48 1293.87 L1092.48 1314.01 L1086.6 1314.01 L1086.6 1292.69 Q1086.6 1287.53 1084.78 1285.08 Q1082.97 1282.6 1079.18 1282.6 Q1074.69 1282.6 1072.05 1285.66 Q1069.41 1288.68 1069.41 1293.87 L1069.41 1314.01 L1063.52 1314.01 L1063.52 1278.37 L1069.41 1278.37 L1069.41 1283.9 Q1071.41 1280.63 1074.21 1279.07 Q1077.02 1277.51 1080.87 1277.51 Q1084.75 1277.51 1087.45 1279.48 Q1090.19 1281.45 1091.5 1285.21 Z" fill="#000000" fill-rule="nonzero" fill-opacity="1" /><path clip-path="url(#clip250)" d="M1132.91 1308.67 L1132.91 1327.57 L1127.02 1327.57 L1127.02 1278.37 L1132.91 1278.37 L1132.91 1283.78 Q1134.75 1280.59 1137.55 1279.07 Q1140.39 1277.51 1144.3 1277.51 Q1150.79 1277.51 1154.84 1282.66 Q1158.91 1287.82 1158.91 1296.22 Q1158.91 1304.63 1154.84 1309.78 Q1150.79 1314.94 1144.3 1314.94 Q1140.39 1314.94 1137.55 1313.41 Q1134.75 1311.85 1132.91 1308.67 M1152.83 1296.22 Q1152.83 1289.76 1150.16 1286.1 Q1147.52 1282.41 1142.87 1282.41 Q1138.22 1282.41 1135.55 1286.1 Q1132.91 1289.76 1132.91 1296.22 Q1132.91 1302.68 1135.55 1306.38 Q1138.22 1310.04 1142.87 1310.04 Q1147.52 1310.04 1150.16 1306.38 Q1152.83 1302.68 1152.83 1296.22 Z" fill="#000000" fill-rule="nonzero" fill-opacity="1" /><path clip-path="url(#clip250)" d="M1182.43 1282.47 Q1177.72 1282.47 1174.98 1286.16 Q1172.25 1289.83 1172.25 1296.22 Q1172.25 1302.62 1174.95 1306.31 Q1177.69 1309.97 1182.43 1309.97 Q1187.11 1309.97 1189.85 1306.28 Q1192.58 1302.59 1192.58 1296.22 Q1192.58 1289.89 1189.85 1286.2 Q1187.11 1282.47 1182.43 1282.47 M1182.43 1277.51 Q1190.07 1277.51 1194.43 1282.47 Q1198.79 1287.44 1198.79 1296.22 Q1198.79 1304.98 1194.43 1309.97 Q1190.07 1314.94 1182.43 1314.94 Q1174.76 1314.94 1170.4 1309.97 Q1166.07 1304.98 1166.07 1296.22 Q1166.07 1287.44 1170.4 1282.47 Q1174.76 1277.51 1182.43 1277.51 Z" fill="#000000" fill-rule="nonzero" fill-opacity="1" /><path clip-path="url(#clip250)" d="M1243.29 1264.55 Q1239.02 1271.87 1236.95 1279.04 Q1234.88 1286.2 1234.88 1293.55 Q1234.88 1300.9 1236.95 1308.13 Q1239.05 1315.32 1243.29 1322.61 L1238.19 1322.61 Q1233.42 1315.13 1231.03 1307.9 Q1228.68 1300.68 1228.68 1293.55 Q1228.68 1286.45 1231.03 1279.26 Q1233.39 1272.06 1238.19 1264.55 L1243.29 1264.55 Z" fill="#000000" fill-rule="nonzero" fill-opacity="1" /><path clip-path="url(#clip250)" d="M1277.38 1279.42 L1277.38 1284.96 Q1274.89 1283.68 1272.22 1283.05 Q1269.55 1282.41 1266.68 1282.41 Q1262.32 1282.41 1260.12 1283.75 Q1257.96 1285.08 1257.96 1287.76 Q1257.96 1289.79 1259.52 1290.97 Q1261.08 1292.12 1265.79 1293.17 L1267.8 1293.61 Q1274.03 1294.95 1276.64 1297.4 Q1279.29 1299.82 1279.29 1304.18 Q1279.29 1309.14 1275.34 1312.04 Q1271.42 1314.94 1264.55 1314.94 Q1261.68 1314.94 1258.57 1314.36 Q1255.48 1313.82 1252.04 1312.71 L1252.04 1306.66 Q1255.29 1308.35 1258.44 1309.21 Q1261.59 1310.04 1264.68 1310.04 Q1268.81 1310.04 1271.04 1308.64 Q1273.27 1307.2 1273.27 1304.63 Q1273.27 1302.24 1271.65 1300.97 Q1270.06 1299.69 1264.61 1298.51 L1262.58 1298.04 Q1257.13 1296.89 1254.71 1294.54 Q1252.29 1292.15 1252.29 1288.01 Q1252.29 1282.98 1255.86 1280.24 Q1259.42 1277.51 1265.98 1277.51 Q1269.23 1277.51 1272.09 1277.98 Q1274.96 1278.46 1277.38 1279.42 Z" fill="#000000" fill-rule="nonzero" fill-opacity="1" /><path clip-path="url(#clip250)" d="M1287.69 1264.55 L1292.78 1264.55 Q1297.55 1272.06 1299.91 1279.26 Q1302.3 1286.45 1302.3 1293.55 Q1302.3 1300.68 1299.91 1307.9 Q1297.55 1315.13 1292.78 1322.61 L1287.69 1322.61 Q1291.92 1315.32 1293.99 1308.13 Q1296.09 1300.9 1296.09 1293.55 Q1296.09 1286.2 1293.99 1279.04 Q1291.92 1271.87 1287.69 1264.55 Z" fill="#000000" fill-rule="nonzero" fill-opacity="1" /><polyline clip-path="url(#clip252)" style="stroke:#000000; stroke-linecap:round; stroke-linejoin:round; stroke-width:2; stroke-opacity:0.1; fill:none" points="198.924,989.814 2064.76,989.814 "/>
<polyline clip-path="url(#clip252)" style="stroke:#000000; stroke-linecap:round; stroke-linejoin:round; stroke-width:2; stroke-opacity:0.1; fill:none" points="198.924,736.843 2064.76,736.843 "/>
<polyline clip-path="url(#clip252)" style="stroke:#000000; stroke-linecap:round; stroke-linejoin:round; stroke-width:2; stroke-opacity:0.1; fill:none" points="198.924,483.872 2064.76,483.872 "/>
<polyline clip-path="url(#clip252)" style="stroke:#000000; stroke-linecap:round; stroke-linejoin:round; stroke-width:2; stroke-opacity:0.1; fill:none" points="198.924,230.901 2064.76,230.901 "/>
<polyline clip-path="url(#clip250)" style="stroke:#000000; stroke-linecap:round; stroke-linejoin:round; stroke-width:4; stroke-opacity:1; fill:none" points="198.924,1173.47 198.924,47.2441 "/>
<polyline clip-path="url(#clip250)" style="stroke:#000000; stroke-linecap:round; stroke-linejoin:round; stroke-width:4; stroke-opacity:1; fill:none" points="198.924,989.814 217.821,989.814 "/>
<polyline clip-path="url(#clip250)" style="stroke:#000000; stroke-linecap:round; stroke-linejoin:round; stroke-width:4; stroke-opacity:1; fill:none" points="198.924,736.843 217.821,736.843 "/>
<polyline clip-path="url(#clip250)" style="stroke:#000000; stroke-linecap:round; stroke-linejoin:round; stroke-width:4; stroke-opacity:1; fill:none" points="198.924,483.872 217.821,483.872 "/>
<polyline clip-path="url(#clip250)" style="stroke:#000000; stroke-linecap:round; stroke-linejoin:round; stroke-width:4; stroke-opacity:1; fill:none" points="198.924,230.901 217.821,230.901 "/>
<path clip-path="url(#clip250)" d="M155.299 975.613 Q151.688 975.613 149.859 979.177 Q148.054 982.719 148.054 989.849 Q148.054 996.955 149.859 1000.52 Q151.688 1004.06 155.299 1004.06 Q158.933 1004.06 160.739 1000.52 Q162.568 996.955 162.568 989.849 Q162.568 982.719 160.739 979.177 Q158.933 975.613 155.299 975.613 M155.299 971.909 Q161.109 971.909 164.165 976.515 Q167.244 981.099 167.244 989.849 Q167.244 998.575 164.165 1003.18 Q161.109 1007.77 155.299 1007.77 Q149.489 1007.77 146.41 1003.18 Q143.355 998.575 143.355 989.849 Q143.355 981.099 146.41 976.515 Q149.489 971.909 155.299 971.909 Z" fill="#000000" fill-rule="nonzero" fill-opacity="1" /><path clip-path="url(#clip250)" d="M115.948 750.188 L123.586 750.188 L123.586 723.822 L115.276 725.489 L115.276 721.23 L123.54 719.563 L128.216 719.563 L128.216 750.188 L135.855 750.188 L135.855 754.123 L115.948 754.123 L115.948 750.188 Z" fill="#000000" fill-rule="nonzero" fill-opacity="1" /><path clip-path="url(#clip250)" d="M155.299 722.642 Q151.688 722.642 149.859 726.206 Q148.054 729.748 148.054 736.878 Q148.054 743.984 149.859 747.549 Q151.688 751.091 155.299 751.091 Q158.933 751.091 160.739 747.549 Q162.568 743.984 162.568 736.878 Q162.568 729.748 160.739 726.206 Q158.933 722.642 155.299 722.642 M155.299 718.938 Q161.109 718.938 164.165 723.544 Q167.244 728.128 167.244 736.878 Q167.244 745.604 164.165 750.211 Q161.109 754.794 155.299 754.794 Q149.489 754.794 146.41 750.211 Q143.355 745.604 143.355 736.878 Q143.355 728.128 146.41 723.544 Q149.489 718.938 155.299 718.938 Z" fill="#000000" fill-rule="nonzero" fill-opacity="1" /><path clip-path="url(#clip250)" d="M119.165 497.217 L135.484 497.217 L135.484 501.152 L113.54 501.152 L113.54 497.217 Q116.202 494.462 120.785 489.833 Q125.392 485.18 126.572 483.837 Q128.818 481.314 129.697 479.578 Q130.6 477.819 130.6 476.129 Q130.6 473.374 128.656 471.638 Q126.735 469.902 123.633 469.902 Q121.434 469.902 118.98 470.666 Q116.549 471.43 113.772 472.981 L113.772 468.259 Q116.596 467.124 119.049 466.546 Q121.503 465.967 123.54 465.967 Q128.91 465.967 132.105 468.652 Q135.299 471.337 135.299 475.828 Q135.299 477.958 134.489 479.879 Q133.702 481.777 131.596 484.37 Q131.017 485.041 127.915 488.258 Q124.813 491.453 119.165 497.217 Z" fill="#000000" fill-rule="nonzero" fill-opacity="1" /><path clip-path="url(#clip250)" d="M155.299 469.671 Q151.688 469.671 149.859 473.235 Q148.054 476.777 148.054 483.907 Q148.054 491.013 149.859 494.578 Q151.688 498.12 155.299 498.12 Q158.933 498.12 160.739 494.578 Q162.568 491.013 162.568 483.907 Q162.568 476.777 160.739 473.235 Q158.933 469.671 155.299 469.671 M155.299 465.967 Q161.109 465.967 164.165 470.573 Q167.244 475.157 167.244 483.907 Q167.244 492.633 164.165 497.24 Q161.109 501.823 155.299 501.823 Q149.489 501.823 146.41 497.24 Q143.355 492.633 143.355 483.907 Q143.355 475.157 146.41 470.573 Q149.489 465.967 155.299 465.967 Z" fill="#000000" fill-rule="nonzero" fill-opacity="1" /><path clip-path="url(#clip250)" d="M129.304 229.547 Q132.66 230.264 134.535 232.533 Q136.434 234.801 136.434 238.135 Q136.434 243.25 132.915 246.051 Q129.397 248.852 122.915 248.852 Q120.739 248.852 118.424 248.412 Q116.133 247.996 113.679 247.139 L113.679 242.625 Q115.623 243.76 117.938 244.338 Q120.253 244.917 122.776 244.917 Q127.174 244.917 129.466 243.181 Q131.781 241.445 131.781 238.135 Q131.781 235.079 129.628 233.366 Q127.498 231.63 123.679 231.63 L119.651 231.63 L119.651 227.788 L123.864 227.788 Q127.313 227.788 129.142 226.422 Q130.971 225.033 130.971 222.44 Q130.971 219.778 129.072 218.366 Q127.197 216.931 123.679 216.931 Q121.758 216.931 119.559 217.348 Q117.36 217.764 114.721 218.644 L114.721 214.477 Q117.383 213.737 119.698 213.366 Q122.035 212.996 124.096 212.996 Q129.42 212.996 132.522 215.427 Q135.623 217.834 135.623 221.954 Q135.623 224.825 133.98 226.815 Q132.336 228.783 129.304 229.547 Z" fill="#000000" fill-rule="nonzero" fill-opacity="1" /><path clip-path="url(#clip250)" d="M155.299 216.7 Q151.688 216.7 149.859 220.264 Q148.054 223.806 148.054 230.936 Q148.054 238.042 149.859 241.607 Q151.688 245.149 155.299 245.149 Q158.933 245.149 160.739 241.607 Q162.568 238.042 162.568 230.936 Q162.568 223.806 160.739 220.264 Q158.933 216.7 155.299 216.7 M155.299 212.996 Q161.109 212.996 164.165 217.602 Q167.244 222.186 167.244 230.936 Q167.244 239.663 164.165 244.269 Q161.109 248.852 155.299 248.852 Q149.489 248.852 146.41 244.269 Q143.355 239.663 143.355 230.936 Q143.355 222.186 146.41 217.602 Q149.489 212.996 155.299 212.996 Z" fill="#000000" fill-rule="nonzero" fill-opacity="1" /><path clip-path="url(#clip250)" d="M25.3677 991.775 L62.3206 991.775 L62.3206 984.008 Q62.3206 974.173 57.8646 969.622 Q53.4086 965.039 43.7964 965.039 Q34.2479 965.039 29.8237 969.622 Q25.3677 974.173 25.3677 984.008 L25.3677 991.775 M20.0842 998.204 L20.0842 984.995 Q20.0842 971.182 25.8451 964.72 Q31.5743 958.259 43.7964 958.259 Q56.0822 958.259 61.8432 964.752 Q67.6042 971.245 67.6042 984.995 L67.6042 998.204 L20.0842 998.204 Z" fill="#000000" fill-rule="nonzero" fill-opacity="1" /><path clip-path="url(#clip250)" d="M31.9562 948.265 L31.9562 942.409 L67.6042 942.409 L67.6042 948.265 L31.9562 948.265 M18.079 948.265 L18.079 942.409 L25.495 942.409 L25.495 948.265 L18.079 948.265 Z" fill="#000000" fill-rule="nonzero" fill-opacity="1" /><path clip-path="url(#clip250)" d="M33.0065 907.429 L38.5447 907.429 Q37.2716 909.912 36.635 912.585 Q35.9984 915.259 35.9984 918.123 Q35.9984 922.484 37.3352 924.68 Q38.672 926.844 41.3456 926.844 Q43.3826 926.844 44.5603 925.285 Q45.7061 923.725 46.7565 919.015 L47.2021 917.009 Q48.5389 910.771 50.9897 908.161 Q53.4086 905.519 57.7691 905.519 Q62.7344 905.519 65.6308 909.466 Q68.5272 913.381 68.5272 920.256 Q68.5272 923.121 67.9543 926.24 Q67.4132 929.327 66.2992 932.765 L60.2518 932.765 Q61.9387 929.518 62.798 926.367 Q63.6256 923.216 63.6256 920.129 Q63.6256 915.991 62.2251 913.763 Q60.7929 911.535 58.2147 911.535 Q55.8276 911.535 54.5545 913.158 Q53.2813 914.75 52.1037 920.192 L51.6262 922.229 Q50.4804 927.672 48.1251 930.091 Q45.738 932.51 41.6002 932.51 Q36.5713 932.51 33.8341 928.945 Q31.0968 925.38 31.0968 918.824 Q31.0968 915.577 31.5743 912.713 Q32.0517 909.848 33.0065 907.429 Z" fill="#000000" fill-rule="nonzero" fill-opacity="1" /><path clip-path="url(#clip250)" d="M21.8347 890.401 L31.9562 890.401 L31.9562 878.338 L36.5077 878.338 L36.5077 890.401 L55.8594 890.401 Q60.2199 890.401 61.4613 889.223 Q62.7026 888.014 62.7026 884.353 L62.7026 878.338 L67.6042 878.338 L67.6042 884.353 Q67.6042 891.133 65.0897 893.711 Q62.5434 896.289 55.8594 896.289 L36.5077 896.289 L36.5077 900.586 L31.9562 900.586 L31.9562 896.289 L21.8347 896.289 L21.8347 890.401 Z" fill="#000000" fill-rule="nonzero" fill-opacity="1" /><path clip-path="url(#clip250)" d="M49.6847 854.435 Q49.6847 861.532 51.3079 864.27 Q52.9312 867.007 56.8461 867.007 Q59.9653 867.007 61.8114 864.97 Q63.6256 862.901 63.6256 859.368 Q63.6256 854.498 60.1881 851.57 Q56.7188 848.61 50.9897 848.61 L49.6847 848.61 L49.6847 854.435 M47.2657 842.753 L67.6042 842.753 L67.6042 848.61 L62.1933 848.61 Q65.4398 850.615 66.9994 853.607 Q68.5272 856.599 68.5272 860.928 Q68.5272 866.402 65.4716 869.649 Q62.3843 872.863 57.2281 872.863 Q51.2125 872.863 48.1569 868.853 Q45.1014 864.811 45.1014 856.822 L45.1014 848.61 L44.5285 848.61 Q40.4862 848.61 38.2901 851.284 Q36.0621 853.925 36.0621 858.731 Q36.0621 861.787 36.7941 864.683 Q37.5262 867.58 38.9903 870.253 L33.5795 870.253 Q32.3381 867.039 31.7334 864.015 Q31.0968 860.991 31.0968 858.127 Q31.0968 850.392 35.1072 846.573 Q39.1176 842.753 47.2657 842.753 Z" fill="#000000" fill-rule="nonzero" fill-opacity="1" /><path clip-path="url(#clip250)" d="M46.0881 801.058 L67.6042 801.058 L67.6042 806.915 L46.279 806.915 Q41.2183 806.915 38.7038 808.888 Q36.1894 810.861 36.1894 814.808 Q36.1894 819.55 39.2131 822.288 Q42.2368 825.025 47.4567 825.025 L67.6042 825.025 L67.6042 830.913 L31.9562 830.913 L31.9562 825.025 L37.4944 825.025 Q34.2797 822.924 32.6883 820.092 Q31.0968 817.227 31.0968 813.503 Q31.0968 807.36 34.9163 804.209 Q38.7038 801.058 46.0881 801.058 Z" fill="#000000" fill-rule="nonzero" fill-opacity="1" /><path clip-path="url(#clip250)" d="M33.3248 763.723 L38.7993 763.723 Q37.4307 766.206 36.7623 768.72 Q36.0621 771.203 36.0621 773.749 Q36.0621 779.447 39.6905 782.598 Q43.2872 785.749 49.812 785.749 Q56.3369 785.749 59.9653 782.598 Q63.5619 779.447 63.5619 773.749 Q63.5619 771.203 62.8935 768.72 Q62.1933 766.206 60.8247 763.723 L66.2355 763.723 Q67.3814 766.174 67.9543 768.816 Q68.5272 771.426 68.5272 774.386 Q68.5272 782.438 63.4664 787.181 Q58.4057 791.923 49.812 791.923 Q41.091 791.923 36.0939 787.149 Q31.0968 782.343 31.0968 774.004 Q31.0968 771.298 31.6697 768.72 Q32.2108 766.142 33.3248 763.723 Z" fill="#000000" fill-rule="nonzero" fill-opacity="1" /><path clip-path="url(#clip250)" d="M31.9562 753.538 L31.9562 747.682 L67.6042 747.682 L67.6042 753.538 L31.9562 753.538 M18.079 753.538 L18.079 747.682 L25.495 747.682 L25.495 753.538 L18.079 753.538 Z" fill="#000000" fill-rule="nonzero" fill-opacity="1" /><path clip-path="url(#clip250)" d="M49.6847 719.227 Q49.6847 726.325 51.3079 729.062 Q52.9312 731.799 56.8461 731.799 Q59.9653 731.799 61.8114 729.762 Q63.6256 727.693 63.6256 724.16 Q63.6256 719.291 60.1881 716.362 Q56.7188 713.402 50.9897 713.402 L49.6847 713.402 L49.6847 719.227 M47.2657 707.546 L67.6042 707.546 L67.6042 713.402 L62.1933 713.402 Q65.4398 715.407 66.9994 718.399 Q68.5272 721.391 68.5272 725.72 Q68.5272 731.194 65.4716 734.441 Q62.3843 737.656 57.2281 737.656 Q51.2125 737.656 48.1569 733.645 Q45.1014 729.603 45.1014 721.614 L45.1014 713.402 L44.5285 713.402 Q40.4862 713.402 38.2901 716.076 Q36.0621 718.718 36.0621 723.524 Q36.0621 726.579 36.7941 729.476 Q37.5262 732.372 38.9903 735.046 L33.5795 735.046 Q32.3381 731.831 31.7334 728.807 Q31.0968 725.784 31.0968 722.919 Q31.0968 715.185 35.1072 711.365 Q39.1176 707.546 47.2657 707.546 Z" fill="#000000" fill-rule="nonzero" fill-opacity="1" /><path clip-path="url(#clip250)" d="M37.4307 654.106 Q36.8578 655.092 36.6032 656.27 Q36.3167 657.416 36.3167 658.816 Q36.3167 663.782 39.5632 666.455 Q42.7779 669.097 48.8253 669.097 L67.6042 669.097 L67.6042 674.985 L31.9562 674.985 L31.9562 669.097 L37.4944 669.097 Q34.2479 667.251 32.6883 664.291 Q31.0968 661.331 31.0968 657.098 Q31.0968 656.493 31.1923 655.761 Q31.256 655.029 31.4151 654.138 L37.4307 654.106 Z" fill="#000000" fill-rule="nonzero" fill-opacity="1" /><path clip-path="url(#clip250)" d="M48.3161 618.903 L51.1806 618.903 L51.1806 645.83 Q57.2281 645.448 60.4109 642.202 Q63.5619 638.924 63.5619 633.099 Q63.5619 629.725 62.7344 626.574 Q61.9069 623.391 60.2518 620.272 L65.7899 620.272 Q67.1267 623.423 67.827 626.733 Q68.5272 630.043 68.5272 633.449 Q68.5272 641.979 63.5619 646.976 Q58.5967 651.941 50.1303 651.941 Q41.3774 651.941 36.2531 647.231 Q31.0968 642.488 31.0968 634.468 Q31.0968 627.274 35.7438 623.105 Q40.3589 618.903 48.3161 618.903 M46.5973 624.76 Q41.7912 624.823 38.9266 627.465 Q36.0621 630.075 36.0621 634.404 Q36.0621 639.305 38.8312 642.266 Q41.6002 645.194 46.6292 645.639 L46.5973 624.76 Z" fill="#000000" fill-rule="nonzero" fill-opacity="1" /><path clip-path="url(#clip250)" d="M33.3248 583.637 L38.7993 583.637 Q37.4307 586.12 36.7623 588.634 Q36.0621 591.117 36.0621 593.663 Q36.0621 599.361 39.6905 602.512 Q43.2872 605.663 49.812 605.663 Q56.3369 605.663 59.9653 602.512 Q63.5619 599.361 63.5619 593.663 Q63.5619 591.117 62.8935 588.634 Q62.1933 586.12 60.8247 583.637 L66.2355 583.637 Q67.3814 586.088 67.9543 588.73 Q68.5272 591.34 68.5272 594.3 Q68.5272 602.353 63.4664 607.095 Q58.4057 611.837 49.812 611.837 Q41.091 611.837 36.0939 607.063 Q31.0968 602.257 31.0968 593.918 Q31.0968 591.213 31.6697 588.634 Q32.2108 586.056 33.3248 583.637 Z" fill="#000000" fill-rule="nonzero" fill-opacity="1" /><path clip-path="url(#clip250)" d="M36.0621 559.639 Q36.0621 564.349 39.7542 567.087 Q43.4145 569.824 49.812 569.824 Q56.2095 569.824 59.9017 567.118 Q63.5619 564.381 63.5619 559.639 Q63.5619 554.96 59.8698 552.223 Q56.1777 549.485 49.812 549.485 Q43.4781 549.485 39.786 552.223 Q36.0621 554.96 36.0621 559.639 M31.0968 559.639 Q31.0968 552 36.0621 547.639 Q41.0273 543.279 49.812 543.279 Q58.5649 543.279 63.5619 547.639 Q68.5272 552 68.5272 559.639 Q68.5272 567.309 63.5619 571.67 Q58.5649 575.999 49.812 575.999 Q41.0273 575.999 36.0621 571.67 Q31.0968 567.309 31.0968 559.639 Z" fill="#000000" fill-rule="nonzero" fill-opacity="1" /><path clip-path="url(#clip250)" d="M37.4307 512.914 Q36.8578 513.901 36.6032 515.079 Q36.3167 516.225 36.3167 517.625 Q36.3167 522.59 39.5632 525.264 Q42.7779 527.906 48.8253 527.906 L67.6042 527.906 L67.6042 533.794 L31.9562 533.794 L31.9562 527.906 L37.4944 527.906 Q34.2479 526.06 32.6883 523.099 Q31.0968 520.139 31.0968 515.906 Q31.0968 515.302 31.1923 514.569 Q31.256 513.837 31.4151 512.946 L37.4307 512.914 Z" fill="#000000" fill-rule="nonzero" fill-opacity="1" /><path clip-path="url(#clip250)" d="M37.4307 487.261 Q36.8578 488.247 36.6032 489.425 Q36.3167 490.571 36.3167 491.971 Q36.3167 496.936 39.5632 499.61 Q42.7779 502.252 48.8253 502.252 L67.6042 502.252 L67.6042 508.14 L31.9562 508.14 L31.9562 502.252 L37.4944 502.252 Q34.2479 500.406 32.6883 497.446 Q31.0968 494.486 31.0968 490.252 Q31.0968 489.648 31.1923 488.916 Q31.256 488.184 31.4151 487.292 L37.4307 487.261 Z" fill="#000000" fill-rule="nonzero" fill-opacity="1" /><path clip-path="url(#clip250)" d="M31.9562 481.118 L31.9562 475.261 L67.6042 475.261 L67.6042 481.118 L31.9562 481.118 M18.079 481.118 L18.079 475.261 L25.495 475.261 L25.495 481.118 L18.079 481.118 Z" fill="#000000" fill-rule="nonzero" fill-opacity="1" /><path clip-path="url(#clip250)" d="M37.3671 439.55 L18.079 439.55 L18.079 433.693 L67.6042 433.693 L67.6042 439.55 L62.257 439.55 Q65.4398 441.396 66.9994 444.228 Q68.5272 447.029 68.5272 450.976 Q68.5272 457.437 63.371 461.511 Q58.2147 465.554 49.812 465.554 Q41.4093 465.554 36.2531 461.511 Q31.0968 457.437 31.0968 450.976 Q31.0968 447.029 32.6564 444.228 Q34.1842 441.396 37.3671 439.55 M49.812 459.506 Q56.2732 459.506 59.9653 456.864 Q63.6256 454.191 63.6256 449.544 Q63.6256 444.897 59.9653 442.223 Q56.2732 439.55 49.812 439.55 Q43.3508 439.55 39.6905 442.223 Q35.9984 444.897 35.9984 449.544 Q35.9984 454.191 39.6905 456.864 Q43.3508 459.506 49.812 459.506 Z" fill="#000000" fill-rule="nonzero" fill-opacity="1" /><path clip-path="url(#clip250)" d="M49.6847 405.429 Q49.6847 412.527 51.3079 415.264 Q52.9312 418.002 56.8461 418.002 Q59.9653 418.002 61.8114 415.965 Q63.6256 413.896 63.6256 410.363 Q63.6256 405.493 60.1881 402.565 Q56.7188 399.605 50.9897 399.605 L49.6847 399.605 L49.6847 405.429 M47.2657 393.748 L67.6042 393.748 L67.6042 399.605 L62.1933 399.605 Q65.4398 401.61 66.9994 404.602 Q68.5272 407.594 68.5272 411.922 Q68.5272 417.397 65.4716 420.643 Q62.3843 423.858 57.2281 423.858 Q51.2125 423.858 48.1569 419.848 Q45.1014 415.806 45.1014 407.817 L45.1014 399.605 L44.5285 399.605 Q40.4862 399.605 38.2901 402.278 Q36.0621 404.92 36.0621 409.726 Q36.0621 412.782 36.7941 415.678 Q37.5262 418.575 38.9903 421.248 L33.5795 421.248 Q32.3381 418.034 31.7334 415.01 Q31.0968 411.986 31.0968 409.122 Q31.0968 401.387 35.1072 397.568 Q39.1176 393.748 47.2657 393.748 Z" fill="#000000" fill-rule="nonzero" fill-opacity="1" /><path clip-path="url(#clip250)" d="M18.1426 346.897 Q25.4632 351.162 32.6246 353.231 Q39.786 355.299 47.1384 355.299 Q54.4908 355.299 61.7159 353.231 Q68.9091 351.13 76.1979 346.897 L76.1979 351.989 Q68.7182 356.764 61.4931 359.151 Q54.268 361.506 47.1384 361.506 Q40.0406 361.506 32.8474 359.151 Q25.6542 356.795 18.1426 351.989 L18.1426 346.897 Z" fill="#000000" fill-rule="nonzero" fill-opacity="1" /><path clip-path="url(#clip250)" d="M33.3248 309.88 L38.7993 309.88 Q37.4307 312.363 36.7623 314.877 Q36.0621 317.36 36.0621 319.906 Q36.0621 325.603 39.6905 328.754 Q43.2872 331.906 49.812 331.906 Q56.3369 331.906 59.9653 328.754 Q63.5619 325.603 63.5619 319.906 Q63.5619 317.36 62.8935 314.877 Q62.1933 312.363 60.8247 309.88 L66.2355 309.88 Q67.3814 312.331 67.9543 314.973 Q68.5272 317.583 68.5272 320.543 Q68.5272 328.595 63.4664 333.338 Q58.4057 338.08 49.812 338.08 Q41.091 338.08 36.0939 333.306 Q31.0968 328.5 31.0968 320.161 Q31.0968 317.455 31.6697 314.877 Q32.2108 312.299 33.3248 309.88 Z" fill="#000000" fill-rule="nonzero" fill-opacity="1" /><path clip-path="url(#clip250)" d="M38.7993 271.941 Q34.8526 269.744 32.9747 266.689 Q31.0968 263.633 31.0968 259.496 Q31.0968 253.926 35.0117 250.902 Q38.8948 247.878 46.0881 247.878 L67.6042 247.878 L67.6042 253.766 L46.279 253.766 Q41.1546 253.766 38.672 255.581 Q36.1894 257.395 36.1894 261.119 Q36.1894 265.67 39.2131 268.312 Q42.2368 270.954 47.4567 270.954 L67.6042 270.954 L67.6042 276.842 L46.279 276.842 Q41.1228 276.842 38.672 278.656 Q36.1894 280.471 36.1894 284.258 Q36.1894 288.746 39.2449 291.388 Q42.2686 294.03 47.4567 294.03 L67.6042 294.03 L67.6042 299.918 L31.9562 299.918 L31.9562 294.03 L37.4944 294.03 Q34.216 292.024 32.6564 289.223 Q31.0968 286.423 31.0968 282.571 Q31.0968 278.688 33.0702 275.983 Q35.0436 273.246 38.7993 271.941 Z" fill="#000000" fill-rule="nonzero" fill-opacity="1" /><path clip-path="url(#clip250)" d="M18.1426 237.12 L18.1426 232.028 Q25.6542 227.253 32.8474 224.898 Q40.0406 222.511 47.1384 222.511 Q54.268 222.511 61.4931 224.898 Q68.7182 227.253 76.1979 232.028 L76.1979 237.12 Q68.9091 232.887 61.7159 230.818 Q54.4908 228.717 47.1384 228.717 Q39.786 228.717 32.6246 230.818 Q25.4632 232.887 18.1426 237.12 Z" fill="#000000" fill-rule="nonzero" fill-opacity="1" /><circle clip-path="url(#clip252)" cx="251.73" cy="989.814" r="14.4" fill="#009af9" fill-rule="evenodd" fill-opacity="1" stroke="#000000" stroke-opacity="1" stroke-width="2.688"/>
<circle clip-path="url(#clip252)" cx="545.1" cy="964.517" r="14.4" fill="#009af9" fill-rule="evenodd" fill-opacity="1" stroke="#000000" stroke-opacity="1" stroke-width="2.688"/>
<circle clip-path="url(#clip252)" cx="838.47" cy="888.625" r="14.4" fill="#009af9" fill-rule="evenodd" fill-opacity="1" stroke="#000000" stroke-opacity="1" stroke-width="2.688"/>
<circle clip-path="url(#clip252)" cx="1131.84" cy="762.14" r="14.4" fill="#009af9" fill-rule="evenodd" fill-opacity="1" stroke="#000000" stroke-opacity="1" stroke-width="2.688"/>
<circle clip-path="url(#clip252)" cx="1425.21" cy="585.06" r="14.4" fill="#009af9" fill-rule="evenodd" fill-opacity="1" stroke="#000000" stroke-opacity="1" stroke-width="2.688"/>
<circle clip-path="url(#clip252)" cx="1718.58" cy="357.386" r="14.4" fill="#009af9" fill-rule="evenodd" fill-opacity="1" stroke="#000000" stroke-opacity="1" stroke-width="2.688"/>
<circle clip-path="url(#clip252)" cx="2011.95" cy="79.1184" r="14.4" fill="#009af9" fill-rule="evenodd" fill-opacity="1" stroke="#000000" stroke-opacity="1" stroke-width="2.688"/>
<polyline clip-path="url(#clip252)" style="stroke:#0000ff; stroke-linecap:round; stroke-linejoin:round; stroke-width:4; stroke-opacity:1; fill:none" points="251.73,989.814 545.1,964.517 838.47,888.625 1131.84,762.14 1425.21,585.06 1718.58,357.386 2011.95,79.1184 "/>
<polyline clip-path="url(#clip252)" style="stroke:#3da44d; stroke-linecap:round; stroke-linejoin:round; stroke-width:4; stroke-opacity:1; fill:none" points="251.73,989.814 263.19,986.849 369.154,959.438 432.834,942.964 486.675,929.036 545.161,913.907 599.08,899.959 656.887,885.005 723.862,867.679 783.381,852.282 835.574,838.78 892.479,824.06 949.721,809.252 1013.01,792.88 1073.23,777.302 1135.84,761.105 1188.55,747.47 1252.9,730.824 1311.84,715.575 1366.29,701.491 1421.44,687.225 1483.24,671.236 1539.25,656.748 1603.37,640.16 1662.74,624.801 1721.28,609.659 1778.11,594.957 1836.37,579.886 1900.2,563.374 1992.93,539.387 2011.95,534.466 "/>
<polyline clip-path="url(#clip252)" style="stroke:#c271d2; stroke-linecap:round; stroke-linejoin:round; stroke-width:4; stroke-opacity:1; fill:none" points="251.73,1065.71 263.19,1061.75 369.154,1025.2 432.834,1003.24 486.675,984.669 545.161,964.496 599.08,945.898 656.887,925.96 723.862,902.859 783.381,882.329 835.574,864.327 892.479,844.7 949.721,824.956 1013.01,803.126 1073.23,782.356 1135.84,760.76 1188.55,742.58 1252.9,720.385 1311.84,700.053 1366.29,681.275 1421.44,662.253 1483.24,640.935 1539.25,621.618 1603.37,599.5 1662.74,579.022 1721.28,558.832 1778.11,539.23 1836.37,519.135 1900.2,497.118 1992.93,465.136 2011.95,458.575 "/>
<polyline clip-path="url(#clip252)" style="stroke:#ac8d18; stroke-linecap:round; stroke-linejoin:round; stroke-width:4; stroke-opacity:1; fill:none" points="251.73,1141.6 263.19,1136.66 369.154,1090.97 432.834,1063.51 486.675,1040.3 545.161,1015.08 599.08,991.838 656.887,966.914 723.862,938.038 783.381,912.377 835.574,889.874 892.479,865.34 949.721,840.66 1013.01,813.373 1073.23,787.41 1135.84,760.415 1188.55,737.69 1252.9,709.947 1311.84,684.532 1366.29,661.059 1421.44,637.282 1483.24,610.634 1539.25,586.487 1603.37,558.841 1662.74,533.242 1721.28,508.005 1778.11,483.502 1836.37,458.384 1900.2,430.863 1992.93,390.885 2011.95,382.684 "/>
</svg>
