<?xml version="1.0" encoding="utf-8"?>
<svg xmlns="http://www.w3.org/2000/svg" xmlns:xlink="http://www.w3.org/1999/xlink" width="528" height="336" viewBox="0 0 2112 1344">
<defs>
  <clipPath id="clip310">
    <rect x="0" y="0" width="2112" height="1344"/>
  </clipPath>
</defs>
<path clip-path="url(#clip310)" d="M0 1344 L2112 1344 L2112 0 L0 0  Z" fill="#ffffff" fill-rule="evenodd" fill-opacity="1"/>
<defs>
  <clipPath id="clip311">
    <rect x="422" y="0" width="1479" height="1344"/>
  </clipPath>
</defs>
<path clip-path="url(#clip310)" d="M237.095 1173.47 L2064.76 1173.47 L2064.76 47.2441 L237.095 47.2441  Z" fill="#ffffff" fill-rule="evenodd" fill-opacity="1"/>
<defs>
  <clipPath id="clip312">
    <rect x="237" y="47" width="1829" height="1127"/>
  </clipPath>
</defs>
<polyline clip-path="url(#clip312)" style="stroke:#000000; stroke-linecap:round; stroke-linejoin:round; stroke-width:2; stroke-opacity:0.1; fill:none" points="288.821,1173.47 288.821,47.2441 "/>
<polyline clip-path="url(#clip312)" style="stroke:#000000; stroke-linecap:round; stroke-linejoin:round; stroke-width:2; stroke-opacity:0.1; fill:none" points="576.189,1173.47 576.189,47.2441 "/>
<polyline clip-path="url(#clip312)" style="stroke:#000000; stroke-linecap:round; stroke-linejoin:round; stroke-width:2; stroke-opacity:0.1; fill:none" points="863.557,1173.47 863.557,47.2441 "/>
<polyline clip-path="url(#clip312)" style="stroke:#000000; stroke-linecap:round; stroke-linejoin:round; stroke-width:2; stroke-opacity:0.1; fill:none" points="1150.93,1173.47 1150.93,47.2441 "/>
<polyline clip-path="url(#clip312)" style="stroke:#000000; stroke-linecap:round; stroke-linejoin:round; stroke-width:2; stroke-opacity:0.1; fill:none" points="1438.29,1173.47 1438.29,47.2441 "/>
<polyline clip-path="url(#clip312)" style="stroke:#000000; stroke-linecap:round; stroke-linejoin:round; stroke-width:2; stroke-opacity:0.1; fill:none" points="1725.66,1173.47 1725.66,47.2441 "/>
<polyline clip-path="url(#clip312)" style="stroke:#000000; stroke-linecap:round; stroke-linejoin:round; stroke-width:2; stroke-opacity:0.1; fill:none" points="2013.03,1173.47 2013.03,47.2441 "/>
<polyline clip-path="url(#clip310)" style="stroke:#000000; stroke-linecap:round; stroke-linejoin:round; stroke-width:4; stroke-opacity:1; fill:none" points="237.095,1173.47 2064.76,1173.47 "/>
<polyline clip-path="url(#clip310)" style="stroke:#000000; stroke-linecap:round; stroke-linejoin:round; stroke-width:4; stroke-opacity:1; fill:none" points="288.821,1173.47 288.821,1154.57 "/>
<polyline clip-path="url(#clip310)" style="stroke:#000000; stroke-linecap:round; stroke-linejoin:round; stroke-width:4; stroke-opacity:1; fill:none" points="576.189,1173.47 576.189,1154.57 "/>
<polyline clip-path="url(#clip310)" style="stroke:#000000; stroke-linecap:round; stroke-linejoin:round; stroke-width:4; stroke-opacity:1; fill:none" points="863.557,1173.47 863.557,1154.57 "/>
<polyline clip-path="url(#clip310)" style="stroke:#000000; stroke-linecap:round; stroke-linejoin:round; stroke-width:4; stroke-opacity:1; fill:none" points="1150.93,1173.47 1150.93,1154.57 "/>
<polyline clip-path="url(#clip310)" style="stroke:#000000; stroke-linecap:round; stroke-linejoin:round; stroke-width:4; stroke-opacity:1; fill:none" points="1438.29,1173.47 1438.29,1154.57 "/>
<polyline clip-path="url(#clip310)" style="stroke:#000000; stroke-linecap:round; stroke-linejoin:round; stroke-width:4; stroke-opacity:1; fill:none" points="1725.66,1173.47 1725.66,1154.57 "/>
<polyline clip-path="url(#clip310)" style="stroke:#000000; stroke-linecap:round; stroke-linejoin:round; stroke-width:4; stroke-opacity:1; fill:none" points="2013.03,1173.47 2013.03,1154.57 "/>
<path clip-path="url(#clip310)" d="M288.821 1202.09 Q285.21 1202.09 283.381 1205.65 Q281.576 1209.19 281.576 1216.32 Q281.576 1223.43 283.381 1226.99 Q285.21 1230.53 288.821 1230.53 Q292.455 1230.53 294.261 1226.99 Q296.089 1223.43 296.089 1216.32 Q296.089 1209.19 294.261 1205.65 Q292.455 1202.09 288.821 1202.09 M288.821 1198.38 Q294.631 1198.38 297.687 1202.99 Q300.765 1207.57 300.765 1216.32 Q300.765 1225.05 297.687 1229.65 Q294.631 1234.24 288.821 1234.24 Q283.011 1234.24 279.932 1229.65 Q276.877 1225.05 276.877 1216.32 Q276.877 1207.57 279.932 1202.99 Q283.011 1198.38 288.821 1198.38 Z" fill="#000000" fill-rule="nonzero" fill-opacity="1" /><path clip-path="url(#clip310)" d="M566.571 1229.63 L574.21 1229.63 L574.21 1203.27 L565.9 1204.93 L565.9 1200.67 L574.164 1199.01 L578.839 1199.01 L578.839 1229.63 L586.478 1229.63 L586.478 1233.57 L566.571 1233.57 L566.571 1229.63 Z" fill="#000000" fill-rule="nonzero" fill-opacity="1" /><path clip-path="url(#clip310)" d="M858.21 1229.63 L874.529 1229.63 L874.529 1233.57 L852.585 1233.57 L852.585 1229.63 Q855.247 1226.88 859.83 1222.25 Q864.437 1217.59 865.617 1216.25 Q867.863 1213.73 868.742 1211.99 Q869.645 1210.23 869.645 1208.54 Q869.645 1205.79 867.701 1204.05 Q865.779 1202.32 862.678 1202.32 Q860.478 1202.32 858.025 1203.08 Q855.594 1203.84 852.816 1205.4 L852.816 1200.67 Q855.641 1199.54 858.094 1198.96 Q860.548 1198.38 862.585 1198.38 Q867.955 1198.38 871.15 1201.07 Q874.344 1203.75 874.344 1208.24 Q874.344 1210.37 873.534 1212.29 Q872.747 1214.19 870.64 1216.78 Q870.062 1217.46 866.96 1220.67 Q863.858 1223.87 858.21 1229.63 Z" fill="#000000" fill-rule="nonzero" fill-opacity="1" /><path clip-path="url(#clip310)" d="M1155.17 1214.93 Q1158.53 1215.65 1160.4 1217.92 Q1162.3 1220.19 1162.3 1223.52 Q1162.3 1228.64 1158.78 1231.44 Q1155.27 1234.24 1148.78 1234.24 Q1146.61 1234.24 1144.29 1233.8 Q1142 1233.38 1139.55 1232.53 L1139.55 1228.01 Q1141.49 1229.15 1143.81 1229.72 Q1146.12 1230.3 1148.65 1230.3 Q1153.04 1230.3 1155.33 1228.57 Q1157.65 1226.83 1157.65 1223.52 Q1157.65 1220.46 1155.5 1218.75 Q1153.37 1217.02 1149.55 1217.02 L1145.52 1217.02 L1145.52 1213.17 L1149.73 1213.17 Q1153.18 1213.17 1155.01 1211.81 Q1156.84 1210.42 1156.84 1207.83 Q1156.84 1205.16 1154.94 1203.75 Q1153.07 1202.32 1149.55 1202.32 Q1147.63 1202.32 1145.43 1202.73 Q1143.23 1203.15 1140.59 1204.03 L1140.59 1199.86 Q1143.25 1199.12 1145.57 1198.75 Q1147.9 1198.38 1149.96 1198.38 Q1155.29 1198.38 1158.39 1200.81 Q1161.49 1203.22 1161.49 1207.34 Q1161.49 1210.21 1159.85 1212.2 Q1158.21 1214.17 1155.17 1214.93 Z" fill="#000000" fill-rule="nonzero" fill-opacity="1" /><path clip-path="url(#clip310)" d="M1441.3 1203.08 L1429.5 1221.53 L1441.3 1221.53 L1441.3 1203.08 M1440.08 1199.01 L1445.96 1199.01 L1445.96 1221.53 L1450.89 1221.53 L1450.89 1225.42 L1445.96 1225.42 L1445.96 1233.57 L1441.3 1233.57 L1441.3 1225.42 L1425.7 1225.42 L1425.7 1220.9 L1440.08 1199.01 Z" fill="#000000" fill-rule="nonzero" fill-opacity="1" /><path clip-path="url(#clip310)" d="M1715.94 1199.01 L1734.3 1199.01 L1734.3 1202.94 L1720.22 1202.94 L1720.22 1211.41 Q1721.24 1211.07 1722.26 1210.9 Q1723.28 1210.72 1724.3 1210.72 Q1730.08 1210.72 1733.46 1213.89 Q1736.84 1217.06 1736.84 1222.48 Q1736.84 1228.06 1733.37 1231.16 Q1729.9 1234.24 1723.58 1234.24 Q1721.4 1234.24 1719.13 1233.87 Q1716.89 1233.5 1714.48 1232.76 L1714.48 1228.06 Q1716.56 1229.19 1718.79 1229.75 Q1721.01 1230.3 1723.49 1230.3 Q1727.49 1230.3 1729.83 1228.2 Q1732.17 1226.09 1732.17 1222.48 Q1732.17 1218.87 1729.83 1216.76 Q1727.49 1214.65 1723.49 1214.65 Q1721.61 1214.65 1719.74 1215.07 Q1717.88 1215.49 1715.94 1216.37 L1715.94 1199.01 Z" fill="#000000" fill-rule="nonzero" fill-opacity="1" /><path clip-path="url(#clip310)" d="M2013.43 1214.42 Q2010.29 1214.42 2008.43 1216.58 Q2006.61 1218.73 2006.61 1222.48 Q2006.61 1226.21 2008.43 1228.38 Q2010.29 1230.53 2013.43 1230.53 Q2016.58 1230.53 2018.41 1228.38 Q2020.26 1226.21 2020.26 1222.48 Q2020.26 1218.73 2018.41 1216.58 Q2016.58 1214.42 2013.43 1214.42 M2022.72 1199.77 L2022.72 1204.03 Q2020.96 1203.2 2019.15 1202.76 Q2017.37 1202.32 2015.61 1202.32 Q2010.98 1202.32 2008.53 1205.44 Q2006.1 1208.57 2005.75 1214.89 Q2007.12 1212.87 2009.18 1211.81 Q2011.24 1210.72 2013.71 1210.72 Q2018.92 1210.72 2021.93 1213.89 Q2024.96 1217.04 2024.96 1222.48 Q2024.96 1227.8 2021.81 1231.02 Q2018.67 1234.24 2013.43 1234.24 Q2007.44 1234.24 2004.27 1229.65 Q2001.1 1225.05 2001.1 1216.32 Q2001.1 1208.13 2004.99 1203.27 Q2008.87 1198.38 2015.43 1198.38 Q2017.18 1198.38 2018.97 1198.73 Q2020.77 1199.08 2022.72 1199.77 Z" fill="#000000" fill-rule="nonzero" fill-opacity="1" /><path clip-path="url(#clip310)" d="M980.468 1266.49 L1020.67 1266.49 L1020.67 1271.91 L1003.8 1271.91 L1003.8 1314.01 L997.337 1314.01 L997.337 1271.91 L980.468 1271.91 L980.468 1266.49 Z" fill="#000000" fill-rule="nonzero" fill-opacity="1" /><path clip-path="url(#clip310)" d="M1024.61 1278.37 L1030.47 1278.37 L1030.47 1314.01 L1024.61 1314.01 L1024.61 1278.37 M1024.61 1264.49 L1030.47 1264.49 L1030.47 1271.91 L1024.61 1271.91 L1024.61 1264.49 Z" fill="#000000" fill-rule="nonzero" fill-opacity="1" /><path clip-path="url(#clip310)" d="M1073.22 1294.73 L1073.22 1297.59 L1046.29 1297.59 Q1046.67 1303.64 1049.92 1306.82 Q1053.2 1309.97 1059.02 1309.97 Q1062.39 1309.97 1065.55 1309.14 Q1068.73 1308.32 1071.85 1306.66 L1071.85 1312.2 Q1068.7 1313.54 1065.39 1314.24 Q1062.08 1314.94 1058.67 1314.94 Q1050.14 1314.94 1045.14 1309.97 Q1040.18 1305.01 1040.18 1296.54 Q1040.18 1287.79 1044.89 1282.66 Q1049.63 1277.51 1057.65 1277.51 Q1064.85 1277.51 1069.01 1282.15 Q1073.22 1286.77 1073.22 1294.73 M1067.36 1293.01 Q1067.3 1288.2 1064.65 1285.34 Q1062.04 1282.47 1057.72 1282.47 Q1052.81 1282.47 1049.85 1285.24 Q1046.93 1288.01 1046.48 1293.04 L1067.36 1293.01 Z" fill="#000000" fill-rule="nonzero" fill-opacity="1" /><path clip-path="url(#clip310)" d="M1110.58 1285.21 Q1112.78 1281.26 1115.83 1279.39 Q1118.89 1277.51 1123.03 1277.51 Q1128.6 1277.51 1131.62 1281.42 Q1134.64 1285.31 1134.64 1292.5 L1134.64 1314.01 L1128.76 1314.01 L1128.76 1292.69 Q1128.76 1287.57 1126.94 1285.08 Q1125.13 1282.6 1121.4 1282.6 Q1116.85 1282.6 1114.21 1285.62 Q1111.57 1288.65 1111.57 1293.87 L1111.57 1314.01 L1105.68 1314.01 L1105.68 1292.69 Q1105.68 1287.53 1103.87 1285.08 Q1102.05 1282.6 1098.26 1282.6 Q1093.78 1282.6 1091.14 1285.66 Q1088.49 1288.68 1088.49 1293.87 L1088.49 1314.01 L1082.61 1314.01 L1082.61 1278.37 L1088.49 1278.37 L1088.49 1283.9 Q1090.5 1280.63 1093.3 1279.07 Q1096.1 1277.51 1099.95 1277.51 Q1103.83 1277.51 1106.54 1279.48 Q1109.28 1281.45 1110.58 1285.21 Z" fill="#000000" fill-rule="nonzero" fill-opacity="1" /><path clip-path="url(#clip310)" d="M1151.99 1308.67 L1151.99 1327.57 L1146.1 1327.57 L1146.1 1278.37 L1151.99 1278.37 L1151.99 1283.78 Q1153.84 1280.59 1156.64 1279.07 Q1159.47 1277.51 1163.39 1277.51 Q1169.88 1277.51 1173.92 1282.66 Q1178 1287.82 1178 1296.22 Q1178 1304.63 1173.92 1309.78 Q1169.88 1314.94 1163.39 1314.94 Q1159.47 1314.94 1156.64 1313.41 Q1153.84 1311.85 1151.99 1308.67 M1171.92 1296.22 Q1171.92 1289.76 1169.24 1286.1 Q1166.6 1282.41 1161.95 1282.41 Q1157.31 1282.41 1154.63 1286.1 Q1151.99 1289.76 1151.99 1296.22 Q1151.99 1302.68 1154.63 1306.38 Q1157.31 1310.04 1161.95 1310.04 Q1166.6 1310.04 1169.24 1306.38 Q1171.92 1302.68 1171.92 1296.22 Z" fill="#000000" fill-rule="nonzero" fill-opacity="1" /><path clip-path="url(#clip310)" d="M1201.52 1282.47 Q1196.81 1282.47 1194.07 1286.16 Q1191.33 1289.83 1191.33 1296.22 Q1191.33 1302.62 1194.04 1306.31 Q1196.77 1309.97 1201.52 1309.97 Q1206.2 1309.97 1208.93 1306.28 Q1211.67 1302.59 1211.67 1296.22 Q1211.67 1289.89 1208.93 1286.2 Q1206.2 1282.47 1201.52 1282.47 M1201.52 1277.51 Q1209.16 1277.51 1213.52 1282.47 Q1217.88 1287.44 1217.88 1296.22 Q1217.88 1304.98 1213.52 1309.97 Q1209.16 1314.94 1201.52 1314.94 Q1193.85 1314.94 1189.49 1309.97 Q1185.16 1304.98 1185.16 1296.22 Q1185.16 1287.44 1189.49 1282.47 Q1193.85 1277.51 1201.52 1277.51 Z" fill="#000000" fill-rule="nonzero" fill-opacity="1" /><path clip-path="url(#clip310)" d="M1262.37 1264.55 Q1258.11 1271.87 1256.04 1279.04 Q1253.97 1286.2 1253.97 1293.55 Q1253.97 1300.9 1256.04 1308.13 Q1258.14 1315.32 1262.37 1322.61 L1257.28 1322.61 Q1252.51 1315.13 1250.12 1307.9 Q1247.76 1300.68 1247.76 1293.55 Q1247.76 1286.45 1250.12 1279.26 Q1252.47 1272.06 1257.28 1264.55 L1262.37 1264.55 Z" fill="#000000" fill-rule="nonzero" fill-opacity="1" /><path clip-path="url(#clip310)" d="M1296.46 1279.42 L1296.46 1284.96 Q1293.98 1283.68 1291.31 1283.05 Q1288.63 1282.41 1285.77 1282.41 Q1281.41 1282.41 1279.21 1283.75 Q1277.05 1285.08 1277.05 1287.76 Q1277.05 1289.79 1278.61 1290.97 Q1280.17 1292.12 1284.88 1293.17 L1286.88 1293.61 Q1293.12 1294.95 1295.73 1297.4 Q1298.37 1299.82 1298.37 1304.18 Q1298.37 1309.14 1294.42 1312.04 Q1290.51 1314.94 1283.63 1314.94 Q1280.77 1314.94 1277.65 1314.36 Q1274.56 1313.82 1271.13 1312.71 L1271.13 1306.66 Q1274.37 1308.35 1277.52 1309.21 Q1280.67 1310.04 1283.76 1310.04 Q1287.9 1310.04 1290.13 1308.64 Q1292.36 1307.2 1292.36 1304.63 Q1292.36 1302.24 1290.73 1300.97 Q1289.14 1299.69 1283.7 1298.51 L1281.66 1298.04 Q1276.22 1296.89 1273.8 1294.54 Q1271.38 1292.15 1271.38 1288.01 Q1271.38 1282.98 1274.95 1280.24 Q1278.51 1277.51 1285.07 1277.51 Q1288.31 1277.51 1291.18 1277.98 Q1294.04 1278.46 1296.46 1279.42 Z" fill="#000000" fill-rule="nonzero" fill-opacity="1" /><path clip-path="url(#clip310)" d="M1306.77 1264.55 L1311.87 1264.55 Q1316.64 1272.06 1319 1279.26 Q1321.38 1286.45 1321.38 1293.55 Q1321.38 1300.68 1319 1307.9 Q1316.64 1315.13 1311.87 1322.61 L1306.77 1322.61 Q1311.01 1315.32 1313.08 1308.13 Q1315.18 1300.9 1315.18 1293.55 Q1315.18 1286.2 1313.08 1279.04 Q1311.01 1271.87 1306.77 1264.55 Z" fill="#000000" fill-rule="nonzero" fill-opacity="1" /><polyline clip-path="url(#clip312)" style="stroke:#000000; stroke-linecap:round; stroke-linejoin:round; stroke-width:2; stroke-opacity:0.1; fill:none" points="237.095,984.192 2064.76,984.192 "/>
<polyline clip-path="url(#clip312)" style="stroke:#000000; stroke-linecap:round; stroke-linejoin:round; stroke-width:2; stroke-opacity:0.1; fill:none" points="237.095,787.437 2064.76,787.437 "/>
<polyline clip-path="url(#clip312)" style="stroke:#000000; stroke-linecap:round; stroke-linejoin:round; stroke-width:2; stroke-opacity:0.1; fill:none" points="237.095,590.682 2064.76,590.682 "/>
<polyline clip-path="url(#clip312)" style="stroke:#000000; stroke-linecap:round; stroke-linejoin:round; stroke-width:2; stroke-opacity:0.1; fill:none" points="237.095,393.927 2064.76,393.927 "/>
<polyline clip-path="url(#clip312)" style="stroke:#000000; stroke-linecap:round; stroke-linejoin:round; stroke-width:2; stroke-opacity:0.1; fill:none" points="237.095,197.172 2064.76,197.172 "/>
<polyline clip-path="url(#clip310)" style="stroke:#000000; stroke-linecap:round; stroke-linejoin:round; stroke-width:4; stroke-opacity:1; fill:none" points="237.095,1173.47 237.095,47.2441 "/>
<polyline clip-path="url(#clip310)" style="stroke:#000000; stroke-linecap:round; stroke-linejoin:round; stroke-width:4; stroke-opacity:1; fill:none" points="237.095,984.192 255.992,984.192 "/>
<polyline clip-path="url(#clip310)" style="stroke:#000000; stroke-linecap:round; stroke-linejoin:round; stroke-width:4; stroke-opacity:1; fill:none" points="237.095,787.437 255.992,787.437 "/>
<polyline clip-path="url(#clip310)" style="stroke:#000000; stroke-linecap:round; stroke-linejoin:round; stroke-width:4; stroke-opacity:1; fill:none" points="237.095,590.682 255.992,590.682 "/>
<polyline clip-path="url(#clip310)" style="stroke:#000000; stroke-linecap:round; stroke-linejoin:round; stroke-width:4; stroke-opacity:1; fill:none" points="237.095,393.927 255.992,393.927 "/>
<polyline clip-path="url(#clip310)" style="stroke:#000000; stroke-linecap:round; stroke-linejoin:round; stroke-width:4; stroke-opacity:1; fill:none" points="237.095,197.172 255.992,197.172 "/>
<path clip-path="url(#clip310)" d="M113.54 984.644 L143.216 984.644 L143.216 988.579 L113.54 988.579 L113.54 984.644 Z" fill="#000000" fill-rule="nonzero" fill-opacity="1" /><path clip-path="url(#clip310)" d="M154.119 997.537 L161.757 997.537 L161.757 971.172 L153.447 972.838 L153.447 968.579 L161.711 966.912 L166.387 966.912 L166.387 997.537 L174.026 997.537 L174.026 1001.47 L154.119 1001.47 L154.119 997.537 Z" fill="#000000" fill-rule="nonzero" fill-opacity="1" /><path clip-path="url(#clip310)" d="M193.47 969.991 Q189.859 969.991 188.03 973.556 Q186.225 977.097 186.225 984.227 Q186.225 991.333 188.03 994.898 Q189.859 998.44 193.47 998.44 Q197.105 998.44 198.91 994.898 Q200.739 991.333 200.739 984.227 Q200.739 977.097 198.91 973.556 Q197.105 969.991 193.47 969.991 M193.47 966.287 Q199.28 966.287 202.336 970.894 Q205.415 975.477 205.415 984.227 Q205.415 992.954 202.336 997.56 Q199.28 1002.14 193.47 1002.14 Q187.66 1002.14 184.581 997.56 Q181.526 992.954 181.526 984.227 Q181.526 975.477 184.581 970.894 Q187.66 966.287 193.47 966.287 Z" fill="#000000" fill-rule="nonzero" fill-opacity="1" /><path clip-path="url(#clip310)" d="M193.47 773.236 Q189.859 773.236 188.03 776.801 Q186.225 780.342 186.225 787.472 Q186.225 794.578 188.03 798.143 Q189.859 801.685 193.47 801.685 Q197.105 801.685 198.91 798.143 Q200.739 794.578 200.739 787.472 Q200.739 780.342 198.91 776.801 Q197.105 773.236 193.47 773.236 M193.47 769.532 Q199.28 769.532 202.336 774.139 Q205.415 778.722 205.415 787.472 Q205.415 796.199 202.336 800.805 Q199.28 805.388 193.47 805.388 Q187.66 805.388 184.581 800.805 Q181.526 796.199 181.526 787.472 Q181.526 778.722 184.581 774.139 Q187.66 769.532 193.47 769.532 Z" fill="#000000" fill-rule="nonzero" fill-opacity="1" /><path clip-path="url(#clip310)" d="M154.119 604.027 L161.757 604.027 L161.757 577.661 L153.447 579.328 L153.447 575.069 L161.711 573.402 L166.387 573.402 L166.387 604.027 L174.026 604.027 L174.026 607.962 L154.119 607.962 L154.119 604.027 Z" fill="#000000" fill-rule="nonzero" fill-opacity="1" /><path clip-path="url(#clip310)" d="M193.47 576.481 Q189.859 576.481 188.03 580.045 Q186.225 583.587 186.225 590.717 Q186.225 597.823 188.03 601.388 Q189.859 604.93 193.47 604.93 Q197.105 604.93 198.91 601.388 Q200.739 597.823 200.739 590.717 Q200.739 583.587 198.91 580.045 Q197.105 576.481 193.47 576.481 M193.47 572.777 Q199.28 572.777 202.336 577.383 Q205.415 581.967 205.415 590.717 Q205.415 599.443 202.336 604.05 Q199.28 608.633 193.47 608.633 Q187.66 608.633 184.581 604.05 Q181.526 599.443 181.526 590.717 Q181.526 581.967 184.581 577.383 Q187.66 572.777 193.47 572.777 Z" fill="#000000" fill-rule="nonzero" fill-opacity="1" /><path clip-path="url(#clip310)" d="M157.336 407.272 L173.656 407.272 L173.656 411.207 L151.711 411.207 L151.711 407.272 Q154.373 404.517 158.957 399.887 Q163.563 395.235 164.744 393.892 Q166.989 391.369 167.869 389.633 Q168.771 387.874 168.771 386.184 Q168.771 383.429 166.827 381.693 Q164.906 379.957 161.804 379.957 Q159.605 379.957 157.151 380.721 Q154.72 381.485 151.943 383.036 L151.943 378.313 Q154.767 377.179 157.22 376.6 Q159.674 376.022 161.711 376.022 Q167.082 376.022 170.276 378.707 Q173.47 381.392 173.47 385.883 Q173.47 388.012 172.66 389.934 Q171.873 391.832 169.767 394.424 Q169.188 395.096 166.086 398.313 Q162.984 401.508 157.336 407.272 Z" fill="#000000" fill-rule="nonzero" fill-opacity="1" /><path clip-path="url(#clip310)" d="M193.47 379.725 Q189.859 379.725 188.03 383.29 Q186.225 386.832 186.225 393.961 Q186.225 401.068 188.03 404.633 Q189.859 408.174 193.47 408.174 Q197.105 408.174 198.91 404.633 Q200.739 401.068 200.739 393.961 Q200.739 386.832 198.91 383.29 Q197.105 379.725 193.47 379.725 M193.47 376.022 Q199.28 376.022 202.336 380.628 Q205.415 385.211 205.415 393.961 Q205.415 402.688 202.336 407.295 Q199.28 411.878 193.47 411.878 Q187.66 411.878 184.581 407.295 Q181.526 402.688 181.526 393.961 Q181.526 385.211 184.581 380.628 Q187.66 376.022 193.47 376.022 Z" fill="#000000" fill-rule="nonzero" fill-opacity="1" /><path clip-path="url(#clip310)" d="M167.475 195.817 Q170.832 196.535 172.707 198.803 Q174.605 201.072 174.605 204.405 Q174.605 209.521 171.086 212.322 Q167.568 215.123 161.086 215.123 Q158.91 215.123 156.595 214.683 Q154.304 214.266 151.85 213.41 L151.85 208.896 Q153.795 210.03 156.109 210.609 Q158.424 211.188 160.947 211.188 Q165.345 211.188 167.637 209.452 Q169.952 207.715 169.952 204.405 Q169.952 201.35 167.799 199.637 Q165.67 197.901 161.85 197.901 L157.822 197.901 L157.822 194.058 L162.035 194.058 Q165.484 194.058 167.313 192.692 Q169.142 191.304 169.142 188.711 Q169.142 186.049 167.244 184.637 Q165.369 183.202 161.85 183.202 Q159.929 183.202 157.73 183.618 Q155.531 184.035 152.892 184.915 L152.892 180.748 Q155.554 180.007 157.869 179.637 Q160.207 179.267 162.267 179.267 Q167.591 179.267 170.693 181.697 Q173.794 184.104 173.794 188.225 Q173.794 191.095 172.151 193.086 Q170.507 195.053 167.475 195.817 Z" fill="#000000" fill-rule="nonzero" fill-opacity="1" /><path clip-path="url(#clip310)" d="M193.47 182.97 Q189.859 182.97 188.03 186.535 Q186.225 190.077 186.225 197.206 Q186.225 204.313 188.03 207.878 Q189.859 211.419 193.47 211.419 Q197.105 211.419 198.91 207.878 Q200.739 204.313 200.739 197.206 Q200.739 190.077 198.91 186.535 Q197.105 182.97 193.47 182.97 M193.47 179.267 Q199.28 179.267 202.336 183.873 Q205.415 188.456 205.415 197.206 Q205.415 205.933 202.336 210.54 Q199.28 215.123 193.47 215.123 Q187.66 215.123 184.581 210.54 Q181.526 205.933 181.526 197.206 Q181.526 188.456 184.581 183.873 Q187.66 179.267 193.47 179.267 Z" fill="#000000" fill-rule="nonzero" fill-opacity="1" /><path clip-path="url(#clip310)" d="M25.3677 991.775 L62.3206 991.775 L62.3206 984.008 Q62.3206 974.173 57.8646 969.622 Q53.4086 965.039 43.7964 965.039 Q34.2479 965.039 29.8237 969.622 Q25.3677 974.173 25.3677 984.008 L25.3677 991.775 M20.0842 998.204 L20.0842 984.995 Q20.0842 971.182 25.8451 964.72 Q31.5743 958.259 43.7964 958.259 Q56.0822 958.259 61.8432 964.752 Q67.6042 971.245 67.6042 984.995 L67.6042 998.204 L20.0842 998.204 Z" fill="#000000" fill-rule="nonzero" fill-opacity="1" /><path clip-path="url(#clip310)" d="M31.9562 948.265 L31.9562 942.409 L67.6042 942.409 L67.6042 948.265 L31.9562 948.265 M18.079 948.265 L18.079 942.409 L25.495 942.409 L25.495 948.265 L18.079 948.265 Z" fill="#000000" fill-rule="nonzero" fill-opacity="1" /><path clip-path="url(#clip310)" d="M33.0065 907.429 L38.5447 907.429 Q37.2716 909.912 36.635 912.585 Q35.9984 915.259 35.9984 918.123 Q35.9984 922.484 37.3352 924.68 Q38.672 926.844 41.3456 926.844 Q43.3826 926.844 44.5603 925.285 Q45.7061 923.725 46.7565 919.015 L47.2021 917.009 Q48.5389 910.771 50.9897 908.161 Q53.4086 905.519 57.7691 905.519 Q62.7344 905.519 65.6308 909.466 Q68.5272 913.381 68.5272 920.256 Q68.5272 923.121 67.9543 926.24 Q67.4132 929.327 66.2992 932.765 L60.2518 932.765 Q61.9387 929.518 62.798 926.367 Q63.6256 923.216 63.6256 920.129 Q63.6256 915.991 62.2251 913.763 Q60.7929 911.535 58.2147 911.535 Q55.8276 911.535 54.5545 913.158 Q53.2813 914.75 52.1037 920.192 L51.6262 922.229 Q50.4804 927.672 48.1251 930.091 Q45.738 932.51 41.6002 932.51 Q36.5713 932.51 33.8341 928.945 Q31.0968 925.38 31.0968 918.824 Q31.0968 915.577 31.5743 912.713 Q32.0517 909.848 33.0065 907.429 Z" fill="#000000" fill-rule="nonzero" fill-opacity="1" /><path clip-path="url(#clip310)" d="M21.8347 890.401 L31.9562 890.401 L31.9562 878.338 L36.5077 878.338 L36.5077 890.401 L55.8594 890.401 Q60.2199 890.401 61.4613 889.223 Q62.7026 888.014 62.7026 884.353 L62.7026 878.338 L67.6042 878.338 L67.6042 884.353 Q67.6042 891.133 65.0897 893.711 Q62.5434 896.289 55.8594 896.289 L36.5077 896.289 L36.5077 900.586 L31.9562 900.586 L31.9562 896.289 L21.8347 896.289 L21.8347 890.401 Z" fill="#000000" fill-rule="nonzero" fill-opacity="1" /><path clip-path="url(#clip310)" d="M49.6847 854.435 Q49.6847 861.532 51.3079 864.27 Q52.9312 867.007 56.8461 867.007 Q59.9653 867.007 61.8114 864.97 Q63.6256 862.901 63.6256 859.368 Q63.6256 854.498 60.1881 851.57 Q56.7188 848.61 50.9897 848.61 L49.6847 848.61 L49.6847 854.435 M47.2657 842.753 L67.6042 842.753 L67.6042 848.61 L62.1933 848.61 Q65.4398 850.615 66.9994 853.607 Q68.5272 856.599 68.5272 860.928 Q68.5272 866.402 65.4716 869.649 Q62.3843 872.863 57.2281 872.863 Q51.2125 872.863 48.1569 868.853 Q45.1014 864.811 45.1014 856.822 L45.1014 848.61 L44.5285 848.61 Q40.4862 848.61 38.2901 851.284 Q36.0621 853.925 36.0621 858.731 Q36.0621 861.787 36.7941 864.683 Q37.5262 867.58 38.9903 870.253 L33.5795 870.253 Q32.3381 867.039 31.7334 864.015 Q31.0968 860.991 31.0968 858.127 Q31.0968 850.392 35.1072 846.573 Q39.1176 842.753 47.2657 842.753 Z" fill="#000000" fill-rule="nonzero" fill-opacity="1" /><path clip-path="url(#clip310)" d="M46.0881 801.058 L67.6042 801.058 L67.6042 806.915 L46.279 806.915 Q41.2183 806.915 38.7038 808.888 Q36.1894 810.861 36.1894 814.808 Q36.1894 819.55 39.2131 822.288 Q42.2368 825.025 47.4567 825.025 L67.6042 825.025 L67.6042 830.913 L31.9562 830.913 L31.9562 825.025 L37.4944 825.025 Q34.2797 822.924 32.6883 820.092 Q31.0968 817.227 31.0968 813.503 Q31.0968 807.36 34.9163 804.209 Q38.7038 801.058 46.0881 801.058 Z" fill="#000000" fill-rule="nonzero" fill-opacity="1" /><path clip-path="url(#clip310)" d="M33.3248 763.723 L38.7993 763.723 Q37.4307 766.206 36.7623 768.72 Q36.0621 771.203 36.0621 773.749 Q36.0621 779.447 39.6905 782.598 Q43.2872 785.749 49.812 785.749 Q56.3369 785.749 59.9653 782.598 Q63.5619 779.447 63.5619 773.749 Q63.5619 771.203 62.8935 768.72 Q62.1933 766.206 60.8247 763.723 L66.2355 763.723 Q67.3814 766.174 67.9543 768.816 Q68.5272 771.426 68.5272 774.386 Q68.5272 782.438 63.4664 787.181 Q58.4057 791.923 49.812 791.923 Q41.091 791.923 36.0939 787.149 Q31.0968 782.343 31.0968 774.004 Q31.0968 771.298 31.6697 768.72 Q32.2108 766.142 33.3248 763.723 Z" fill="#000000" fill-rule="nonzero" fill-opacity="1" /><path clip-path="url(#clip310)" d="M31.9562 753.538 L31.9562 747.682 L67.6042 747.682 L67.6042 753.538 L31.9562 753.538 M18.079 753.538 L18.079 747.682 L25.495 747.682 L25.495 753.538 L18.079 753.538 Z" fill="#000000" fill-rule="nonzero" fill-opacity="1" /><path clip-path="url(#clip310)" d="M49.6847 719.227 Q49.6847 726.325 51.3079 729.062 Q52.9312 731.799 56.8461 731.799 Q59.9653 731.799 61.8114 729.762 Q63.6256 727.693 63.6256 724.16 Q63.6256 719.291 60.1881 716.362 Q56.7188 713.402 50.9897 713.402 L49.6847 713.402 L49.6847 719.227 M47.2657 707.546 L67.6042 707.546 L67.6042 713.402 L62.1933 713.402 Q65.4398 715.407 66.9994 718.399 Q68.5272 721.391 68.5272 725.72 Q68.5272 731.194 65.4716 734.441 Q62.3843 737.656 57.2281 737.656 Q51.2125 737.656 48.1569 733.645 Q45.1014 729.603 45.1014 721.614 L45.1014 713.402 L44.5285 713.402 Q40.4862 713.402 38.2901 716.076 Q36.0621 718.718 36.0621 723.524 Q36.0621 726.579 36.7941 729.476 Q37.5262 732.372 38.9903 735.046 L33.5795 735.046 Q32.3381 731.831 31.7334 728.807 Q31.0968 725.784 31.0968 722.919 Q31.0968 715.185 35.1072 711.365 Q39.1176 707.546 47.2657 707.546 Z" fill="#000000" fill-rule="nonzero" fill-opacity="1" /><path clip-path="url(#clip310)" d="M37.4307 654.106 Q36.8578 655.092 36.6032 656.27 Q36.3167 657.416 36.3167 658.816 Q36.3167 663.782 39.5632 666.455 Q42.7779 669.097 48.8253 669.097 L67.6042 669.097 L67.6042 674.985 L31.9562 674.985 L31.9562 669.097 L37.4944 669.097 Q34.2479 667.251 32.6883 664.291 Q31.0968 661.331 31.0968 657.098 Q31.0968 656.493 31.1923 655.761 Q31.256 655.029 31.4151 654.138 L37.4307 654.106 Z" fill="#000000" fill-rule="nonzero" fill-opacity="1" /><path clip-path="url(#clip310)" d="M48.3161 618.903 L51.1806 618.903 L51.1806 645.83 Q57.2281 645.448 60.4109 642.202 Q63.5619 638.924 63.5619 633.099 Q63.5619 629.725 62.7344 626.574 Q61.9069 623.391 60.2518 620.272 L65.7899 620.272 Q67.1267 623.423 67.827 626.733 Q68.5272 630.043 68.5272 633.449 Q68.5272 641.979 63.5619 646.976 Q58.5967 651.941 50.1303 651.941 Q41.3774 651.941 36.2531 647.231 Q31.0968 642.488 31.0968 634.468 Q31.0968 627.274 35.7438 623.105 Q40.3589 618.903 48.3161 618.903 M46.5973 624.76 Q41.7912 624.823 38.9266 627.465 Q36.0621 630.075 36.0621 634.404 Q36.0621 639.305 38.8312 642.266 Q41.6002 645.194 46.6292 645.639 L46.5973 624.76 Z" fill="#000000" fill-rule="nonzero" fill-opacity="1" /><path clip-path="url(#clip310)" d="M33.3248 583.637 L38.7993 583.637 Q37.4307 586.12 36.7623 588.634 Q36.0621 591.117 36.0621 593.663 Q36.0621 599.361 39.6905 602.512 Q43.2872 605.663 49.812 605.663 Q56.3369 605.663 59.9653 602.512 Q63.5619 599.361 63.5619 593.663 Q63.5619 591.117 62.8935 588.634 Q62.1933 586.12 60.8247 583.637 L66.2355 583.637 Q67.3814 586.088 67.9543 588.73 Q68.5272 591.34 68.5272 594.3 Q68.5272 602.353 63.4664 607.095 Q58.4057 611.837 49.812 611.837 Q41.091 611.837 36.0939 607.063 Q31.0968 602.257 31.0968 593.918 Q31.0968 591.213 31.6697 588.634 Q32.2108 586.056 33.3248 583.637 Z" fill="#000000" fill-rule="nonzero" fill-opacity="1" /><path clip-path="url(#clip310)" d="M36.0621 559.639 Q36.0621 564.349 39.7542 567.087 Q43.4145 569.824 49.812 569.824 Q56.2095 569.824 59.9017 567.118 Q63.5619 564.381 63.5619 559.639 Q63.5619 554.96 59.8698 552.223 Q56.1777 549.485 49.812 549.485 Q43.4781 549.485 39.786 552.223 Q36.0621 554.96 36.0621 559.639 M31.0968 559.639 Q31.0968 552 36.0621 547.639 Q41.0273 543.279 49.812 543.279 Q58.5649 543.279 63.5619 547.639 Q68.5272 552 68.5272 559.639 Q68.5272 567.309 63.5619 571.67 Q58.5649 575.999 49.812 575.999 Q41.0273 575.999 36.0621 571.67 Q31.0968 567.309 31.0968 559.639 Z" fill="#000000" fill-rule="nonzero" fill-opacity="1" /><path clip-path="url(#clip310)" d="M37.4307 512.914 Q36.8578 513.901 36.6032 515.079 Q36.3167 516.225 36.3167 517.625 Q36.3167 522.59 39.5632 525.264 Q42.7779 527.906 48.8253 527.906 L67.6042 527.906 L67.6042 533.794 L31.9562 533.794 L31.9562 527.906 L37.4944 527.906 Q34.2479 526.06 32.6883 523.099 Q31.0968 520.139 31.0968 515.906 Q31.0968 515.302 31.1923 514.569 Q31.256 513.837 31.4151 512.946 L37.4307 512.914 Z" fill="#000000" fill-rule="nonzero" fill-opacity="1" /><path clip-path="url(#clip310)" d="M37.4307 487.261 Q36.8578 488.247 36.6032 489.425 Q36.3167 490.571 36.3167 491.971 Q36.3167 496.936 39.5632 499.61 Q42.7779 502.252 48.8253 502.252 L67.6042 502.252 L67.6042 508.14 L31.9562 508.14 L31.9562 502.252 L37.4944 502.252 Q34.2479 500.406 32.6883 497.446 Q31.0968 494.486 31.0968 490.252 Q31.0968 489.648 31.1923 488.916 Q31.256 488.184 31.4151 487.292 L37.4307 487.261 Z" fill="#000000" fill-rule="nonzero" fill-opacity="1" /><path clip-path="url(#clip310)" d="M31.9562 481.118 L31.9562 475.261 L67.6042 475.261 L67.6042 481.118 L31.9562 481.118 M18.079 481.118 L18.079 475.261 L25.495 475.261 L25.495 481.118 L18.079 481.118 Z" fill="#000000" fill-rule="nonzero" fill-opacity="1" /><path clip-path="url(#clip310)" d="M37.3671 439.55 L18.079 439.55 L18.079 433.693 L67.6042 433.693 L67.6042 439.55 L62.257 439.55 Q65.4398 441.396 66.9994 444.228 Q68.5272 447.029 68.5272 450.976 Q68.5272 457.437 63.371 461.511 Q58.2147 465.554 49.812 465.554 Q41.4093 465.554 36.2531 461.511 Q31.0968 457.437 31.0968 450.976 Q31.0968 447.029 32.6564 444.228 Q34.1842 441.396 37.3671 439.55 M49.812 459.506 Q56.2732 459.506 59.9653 456.864 Q63.6256 454.191 63.6256 449.544 Q63.6256 444.897 59.9653 442.223 Q56.2732 439.55 49.812 439.55 Q43.3508 439.55 39.6905 442.223 Q35.9984 444.897 35.9984 449.544 Q35.9984 454.191 39.6905 456.864 Q43.3508 459.506 49.812 459.506 Z" fill="#000000" fill-rule="nonzero" fill-opacity="1" /><path clip-path="url(#clip310)" d="M49.6847 405.429 Q49.6847 412.527 51.3079 415.264 Q52.9312 418.002 56.8461 418.002 Q59.9653 418.002 61.8114 415.965 Q63.6256 413.896 63.6256 410.363 Q63.6256 405.493 60.1881 402.565 Q56.7188 399.605 50.9897 399.605 L49.6847 399.605 L49.6847 405.429 M47.2657 393.748 L67.6042 393.748 L67.6042 399.605 L62.1933 399.605 Q65.4398 401.61 66.9994 404.602 Q68.5272 407.594 68.5272 411.922 Q68.5272 417.397 65.4716 420.643 Q62.3843 423.858 57.2281 423.858 Q51.2125 423.858 48.1569 419.848 Q45.1014 415.806 45.1014 407.817 L45.1014 399.605 L44.5285 399.605 Q40.4862 399.605 38.2901 402.278 Q36.0621 404.92 36.0621 409.726 Q36.0621 412.782 36.7941 415.678 Q37.5262 418.575 38.9903 421.248 L33.5795 421.248 Q32.3381 418.034 31.7334 415.01 Q31.0968 411.986 31.0968 409.122 Q31.0968 401.387 35.1072 397.568 Q39.1176 393.748 47.2657 393.748 Z" fill="#000000" fill-rule="nonzero" fill-opacity="1" /><path clip-path="url(#clip310)" d="M18.1426 346.897 Q25.4632 351.162 32.6246 353.231 Q39.786 355.299 47.1384 355.299 Q54.4908 355.299 61.7159 353.231 Q68.9091 351.13 76.1979 346.897 L76.1979 351.989 Q68.7182 356.764 61.4931 359.151 Q54.268 361.506 47.1384 361.506 Q40.0406 361.506 32.8474 359.151 Q25.6542 356.795 18.1426 351.989 L18.1426 346.897 Z" fill="#000000" fill-rule="nonzero" fill-opacity="1" /><path clip-path="url(#clip310)" d="M33.3248 309.88 L38.7993 309.88 Q37.4307 312.363 36.7623 314.877 Q36.0621 317.36 36.0621 319.906 Q36.0621 325.603 39.6905 328.754 Q43.2872 331.906 49.812 331.906 Q56.3369 331.906 59.9653 328.754 Q63.5619 325.603 63.5619 319.906 Q63.5619 317.36 62.8935 314.877 Q62.1933 312.363 60.8247 309.88 L66.2355 309.88 Q67.3814 312.331 67.9543 314.973 Q68.5272 317.583 68.5272 320.543 Q68.5272 328.595 63.4664 333.338 Q58.4057 338.08 49.812 338.08 Q41.091 338.08 36.0939 333.306 Q31.0968 328.5 31.0968 320.161 Q31.0968 317.455 31.6697 314.877 Q32.2108 312.299 33.3248 309.88 Z" fill="#000000" fill-rule="nonzero" fill-opacity="1" /><path clip-path="url(#clip310)" d="M38.7993 271.941 Q34.8526 269.744 32.9747 266.689 Q31.0968 263.633 31.0968 259.496 Q31.0968 253.926 35.0117 250.902 Q38.8948 247.878 46.0881 247.878 L67.6042 247.878 L67.6042 253.766 L46.279 253.766 Q41.1546 253.766 38.672 255.581 Q36.1894 257.395 36.1894 261.119 Q36.1894 265.67 39.2131 268.312 Q42.2368 270.954 47.4567 270.954 L67.6042 270.954 L67.6042 276.842 L46.279 276.842 Q41.1228 276.842 38.672 278.656 Q36.1894 280.471 36.1894 284.258 Q36.1894 288.746 39.2449 291.388 Q42.2686 294.03 47.4567 294.03 L67.6042 294.03 L67.6042 299.918 L31.9562 299.918 L31.9562 294.03 L37.4944 294.03 Q34.216 292.024 32.6564 289.223 Q31.0968 286.423 31.0968 282.571 Q31.0968 278.688 33.0702 275.983 Q35.0436 273.246 38.7993 271.941 Z" fill="#000000" fill-rule="nonzero" fill-opacity="1" /><path clip-path="url(#clip310)" d="M18.1426 237.12 L18.1426 232.028 Q25.6542 227.253 32.8474 224.898 Q40.0406 222.511 47.1384 222.511 Q54.268 222.511 61.4931 224.898 Q68.7182 227.253 76.1979 232.028 L76.1979 237.12 Q68.9091 232.887 61.7159 230.818 Q54.4908 228.717 47.1384 228.717 Q39.786 228.717 32.6246 230.818 Q25.4632 232.887 18.1426 237.12 Z" fill="#000000" fill-rule="nonzero" fill-opacity="1" /><circle clip-path="url(#clip312)" cx="288.821" cy="787.437" r="14.4" fill="#009af9" fill-rule="evenodd" fill-opacity="1" stroke="#000000" stroke-opacity="1" stroke-width="2.688"/>
<circle clip-path="url(#clip312)" cx="576.189" cy="767.762" r="14.4" fill="#009af9" fill-rule="evenodd" fill-opacity="1" stroke="#000000" stroke-opacity="1" stroke-width="2.688"/>
<circle clip-path="url(#clip312)" cx="863.557" cy="708.735" r="14.4" fill="#009af9" fill-rule="evenodd" fill-opacity="1" stroke="#000000" stroke-opacity="1" stroke-width="2.688"/>
<circle clip-path="url(#clip312)" cx="1150.93" cy="610.357" r="14.4" fill="#009af9" fill-rule="evenodd" fill-opacity="1" stroke="#000000" stroke-opacity="1" stroke-width="2.688"/>
<circle clip-path="url(#clip312)" cx="1438.29" cy="472.629" r="14.4" fill="#009af9" fill-rule="evenodd" fill-opacity="1" stroke="#000000" stroke-opacity="1" stroke-width="2.688"/>
<circle clip-path="url(#clip312)" cx="1725.66" cy="295.549" r="14.4" fill="#009af9" fill-rule="evenodd" fill-opacity="1" stroke="#000000" stroke-opacity="1" stroke-width="2.688"/>
<circle clip-path="url(#clip312)" cx="2013.03" cy="79.1184" r="14.4" fill="#009af9" fill-rule="evenodd" fill-opacity="1" stroke="#000000" stroke-opacity="1" stroke-width="2.688"/>
<polyline clip-path="url(#clip312)" style="stroke:#0000ff; stroke-linecap:round; stroke-linejoin:round; stroke-width:4; stroke-opacity:1; fill:none" points="288.821,787.437 576.189,767.762 863.557,708.735 1150.93,610.357 1438.29,472.629 1725.66,295.549 2013.03,79.1184 "/>
<polyline clip-path="url(#clip312)" style="stroke:#3da44d; stroke-linecap:round; stroke-linejoin:round; stroke-width:4; stroke-opacity:1; fill:none" points="288.821,787.437 300.046,785.131 403.843,763.811 466.22,750.999 518.959,740.166 576.249,728.398 629.065,717.55 685.689,705.919 751.294,692.443 809.595,680.468 860.721,669.967 916.461,658.517 972.533,647 1034.53,634.266 1093.51,622.15 1154.84,609.552 1206.47,598.948 1269.51,586.001 1327.25,574.14 1380.58,563.186 1434.6,552.09 1495.14,539.655 1550,528.386 1612.81,515.484 1670.97,503.538 1728.31,491.761 1783.98,480.326 1841.04,468.604 1903.57,455.762 1994.4,437.105 2013.03,433.278 "/>
<polyline clip-path="url(#clip312)" style="stroke:#c271d2; stroke-linecap:round; stroke-linejoin:round; stroke-width:4; stroke-opacity:1; fill:none" points="288.821,846.464 300.046,843.389 403.843,814.962 466.22,797.879 518.959,783.435 576.249,767.745 629.065,753.28 685.689,737.773 751.294,719.805 809.595,703.838 860.721,689.836 916.461,674.571 972.533,659.214 1034.53,642.236 1093.51,626.081 1154.84,609.284 1206.47,595.144 1269.51,577.882 1327.25,562.068 1380.58,547.463 1434.6,532.668 1495.14,516.087 1550,501.062 1612.81,483.86 1670.97,467.932 1728.31,452.229 1783.98,436.983 1841.04,421.353 1903.57,404.23 1994.4,379.354 2013.03,374.251 "/>
<polyline clip-path="url(#clip312)" style="stroke:#ac8d18; stroke-linecap:round; stroke-linejoin:round; stroke-width:4; stroke-opacity:1; fill:none" points="288.821,905.49 300.046,901.647 403.843,866.114 466.22,844.759 518.959,826.705 576.249,807.092 629.065,789.011 685.689,769.626 751.294,747.167 809.595,727.208 860.721,709.706 916.461,690.624 972.533,671.428 1034.53,650.205 1093.51,630.012 1154.84,609.016 1206.47,591.341 1269.51,569.763 1327.25,549.995 1380.58,531.739 1434.6,513.245 1495.14,492.52 1550,473.739 1612.81,452.236 1670.97,432.326 1728.31,412.697 1783.98,393.639 1841.04,374.102 1903.57,352.698 1994.4,321.604 2013.03,315.225 "/>
<polyline clip-path="url(#clip312)" style="stroke:#00a9ad; stroke-linecap:round; stroke-linejoin:round; stroke-width:4; stroke-opacity:1; fill:none" points="288.821,1141.6 300.046,1134.68 403.843,1070.72 466.22,1032.28 518.959,999.782 576.249,964.48 629.065,931.934 685.689,897.042 751.294,856.615 809.595,820.689 860.721,789.185 916.461,754.837 972.533,720.285 1034.53,682.083 1093.51,645.736 1154.84,607.942 1206.47,576.128 1269.51,537.287 1327.25,501.706 1380.58,468.844 1434.6,435.556 1495.14,398.249 1550,364.443 1612.81,325.738 1670.97,289.901 1728.31,254.569 1783.98,220.265 1841.04,185.098 1903.57,146.57 1994.4,90.6007 2013.03,79.1184 "/>
<polyline clip-path="url(#clip312)" style="stroke:#ed5d92; stroke-linecap:round; stroke-linejoin:round; stroke-width:4; stroke-opacity:1; fill:none" points="288.821,1082.57 300.046,1076.42 403.843,1019.57 466.22,985.401 518.959,956.513 576.249,925.133 629.065,896.203 685.689,865.188 751.294,829.253 809.595,797.319 860.721,769.315 916.461,738.784 972.533,708.071 1034.53,674.114 1093.51,641.805 1154.84,608.21 1206.47,579.931 1269.51,545.406 1327.25,513.778 1380.58,484.568 1434.6,454.978 1495.14,421.817 1550,391.767 1612.81,357.363 1670.97,325.507 1728.31,294.101 1783.98,263.608 1841.04,232.349 1903.57,198.102 1994.4,148.351 2013.03,138.145 "/>
<polyline clip-path="url(#clip312)" style="stroke:#c68125; stroke-linecap:round; stroke-linejoin:round; stroke-width:4; stroke-opacity:1; fill:none" points="288.821,1023.54 300.046,1018.16 403.843,968.416 466.22,938.52 518.959,913.244 576.249,885.786 629.065,860.473 685.689,833.334 751.294,801.891 809.595,773.949 860.721,749.446 916.461,722.731 972.533,695.857 1034.53,666.144 1093.51,637.874 1154.84,608.479 1206.47,583.735 1269.51,553.525 1327.25,525.851 1380.58,500.291 1434.6,474.401 1495.14,445.384 1550,419.091 1612.81,388.987 1670.97,361.113 1728.31,333.633 1783.98,306.952 1841.04,279.6 1903.57,249.634 1994.4,206.102 2013.03,197.172 "/>
</svg>
