<?xml version="1.0" encoding="utf-8"?>
<svg xmlns="http://www.w3.org/2000/svg" xmlns:xlink="http://www.w3.org/1999/xlink" width="528" height="336" viewBox="0 0 2112 1344">
<defs>
  <clipPath id="clip840">
    <rect x="0" y="0" width="2112" height="1344"/>
  </clipPath>
</defs>
<path clip-path="url(#clip840)" d="M0 1344 L2112 1344 L2112 0 L0 0  Z" fill="#ffffff" fill-rule="evenodd" fill-opacity="1"/>
<defs>
  <clipPath id="clip841">
    <rect x="422" y="0" width="1479" height="1344"/>
  </clipPath>
</defs>
<path clip-path="url(#clip840)" d="M145.177 1234.58 L2064.76 1234.58 L2064.76 47.2441 L145.177 47.2441  Z" fill="#ffffff" fill-rule="evenodd" fill-opacity="1"/>
<defs>
  <clipPath id="clip842">
    <rect x="145" y="47" width="1921" height="1188"/>
  </clipPath>
</defs>
<polyline clip-path="url(#clip842)" style="stroke:#000000; stroke-linecap:round; stroke-linejoin:round; stroke-width:2; stroke-opacity:0.1; fill:none" points="199.504,1234.58 199.504,47.2441 "/>
<polyline clip-path="url(#clip842)" style="stroke:#000000; stroke-linecap:round; stroke-linejoin:round; stroke-width:2; stroke-opacity:0.1; fill:none" points="652.235,1234.58 652.235,47.2441 "/>
<polyline clip-path="url(#clip842)" style="stroke:#000000; stroke-linecap:round; stroke-linejoin:round; stroke-width:2; stroke-opacity:0.1; fill:none" points="1104.97,1234.58 1104.97,47.2441 "/>
<polyline clip-path="url(#clip842)" style="stroke:#000000; stroke-linecap:round; stroke-linejoin:round; stroke-width:2; stroke-opacity:0.1; fill:none" points="1557.7,1234.58 1557.7,47.2441 "/>
<polyline clip-path="url(#clip842)" style="stroke:#000000; stroke-linecap:round; stroke-linejoin:round; stroke-width:2; stroke-opacity:0.1; fill:none" points="2010.43,1234.58 2010.43,47.2441 "/>
<polyline clip-path="url(#clip840)" style="stroke:#000000; stroke-linecap:round; stroke-linejoin:round; stroke-width:4; stroke-opacity:1; fill:none" points="145.177,1234.58 2064.76,1234.58 "/>
<polyline clip-path="url(#clip840)" style="stroke:#000000; stroke-linecap:round; stroke-linejoin:round; stroke-width:4; stroke-opacity:1; fill:none" points="199.504,1234.58 199.504,1215.68 "/>
<polyline clip-path="url(#clip840)" style="stroke:#000000; stroke-linecap:round; stroke-linejoin:round; stroke-width:4; stroke-opacity:1; fill:none" points="652.235,1234.58 652.235,1215.68 "/>
<polyline clip-path="url(#clip840)" style="stroke:#000000; stroke-linecap:round; stroke-linejoin:round; stroke-width:4; stroke-opacity:1; fill:none" points="1104.97,1234.58 1104.97,1215.68 "/>
<polyline clip-path="url(#clip840)" style="stroke:#000000; stroke-linecap:round; stroke-linejoin:round; stroke-width:4; stroke-opacity:1; fill:none" points="1557.7,1234.58 1557.7,1215.68 "/>
<polyline clip-path="url(#clip840)" style="stroke:#000000; stroke-linecap:round; stroke-linejoin:round; stroke-width:4; stroke-opacity:1; fill:none" points="2010.43,1234.58 2010.43,1215.68 "/>
<path clip-path="url(#clip840)" d="M169.447 1277.85 L199.122 1277.85 L199.122 1281.78 L169.447 1281.78 L169.447 1277.85 Z" fill="#000000" fill-rule="nonzero" fill-opacity="1" /><path clip-path="url(#clip840)" d="M213.243 1290.74 L229.562 1290.74 L229.562 1294.67 L207.618 1294.67 L207.618 1290.74 Q210.28 1287.99 214.863 1283.36 Q219.47 1278.7 220.65 1277.36 Q222.895 1274.84 223.775 1273.1 Q224.678 1271.34 224.678 1269.65 Q224.678 1266.9 222.733 1265.16 Q220.812 1263.42 217.71 1263.42 Q215.511 1263.42 213.057 1264.19 Q210.627 1264.95 207.849 1266.5 L207.849 1261.78 Q210.673 1260.65 213.127 1260.07 Q215.581 1259.49 217.618 1259.49 Q222.988 1259.49 226.182 1262.17 Q229.377 1264.86 229.377 1269.35 Q229.377 1271.48 228.567 1273.4 Q227.78 1275.3 225.673 1277.89 Q225.094 1278.56 221.993 1281.78 Q218.891 1284.98 213.243 1290.74 Z" fill="#000000" fill-rule="nonzero" fill-opacity="1" /><path clip-path="url(#clip840)" d="M621.992 1277.85 L651.668 1277.85 L651.668 1281.78 L621.992 1281.78 L621.992 1277.85 Z" fill="#000000" fill-rule="nonzero" fill-opacity="1" /><path clip-path="url(#clip840)" d="M662.571 1290.74 L670.21 1290.74 L670.21 1264.37 L661.9 1266.04 L661.9 1261.78 L670.163 1260.11 L674.839 1260.11 L674.839 1290.74 L682.478 1290.74 L682.478 1294.67 L662.571 1294.67 L662.571 1290.74 Z" fill="#000000" fill-rule="nonzero" fill-opacity="1" /><path clip-path="url(#clip840)" d="M1104.97 1263.19 Q1101.36 1263.19 1099.53 1266.76 Q1097.72 1270.3 1097.72 1277.43 Q1097.72 1284.54 1099.53 1288.1 Q1101.36 1291.64 1104.97 1291.64 Q1108.6 1291.64 1110.41 1288.1 Q1112.23 1284.54 1112.23 1277.43 Q1112.23 1270.3 1110.41 1266.76 Q1108.6 1263.19 1104.97 1263.19 M1104.97 1259.49 Q1110.78 1259.49 1113.83 1264.1 Q1116.91 1268.68 1116.91 1277.43 Q1116.91 1286.16 1113.83 1290.76 Q1110.78 1295.35 1104.97 1295.35 Q1099.16 1295.35 1096.08 1290.76 Q1093.02 1286.16 1093.02 1277.43 Q1093.02 1268.68 1096.08 1264.1 Q1099.16 1259.49 1104.97 1259.49 Z" fill="#000000" fill-rule="nonzero" fill-opacity="1" /><path clip-path="url(#clip840)" d="M1548.08 1290.74 L1555.72 1290.74 L1555.72 1264.37 L1547.41 1266.04 L1547.41 1261.78 L1555.67 1260.11 L1560.35 1260.11 L1560.35 1290.74 L1567.99 1290.74 L1567.99 1294.67 L1548.08 1294.67 L1548.08 1290.74 Z" fill="#000000" fill-rule="nonzero" fill-opacity="1" /><path clip-path="url(#clip840)" d="M2005.08 1290.74 L2021.4 1290.74 L2021.4 1294.67 L1999.46 1294.67 L1999.46 1290.74 Q2002.12 1287.99 2006.7 1283.36 Q2011.31 1278.7 2012.49 1277.36 Q2014.73 1274.84 2015.61 1273.1 Q2016.52 1271.34 2016.52 1269.65 Q2016.52 1266.9 2014.57 1265.16 Q2012.65 1263.42 2009.55 1263.42 Q2007.35 1263.42 2004.9 1264.19 Q2002.47 1264.95 1999.69 1266.5 L1999.69 1261.78 Q2002.51 1260.65 2004.97 1260.07 Q2007.42 1259.49 2009.46 1259.49 Q2014.83 1259.49 2018.02 1262.17 Q2021.22 1264.86 2021.22 1269.35 Q2021.22 1271.48 2020.4 1273.4 Q2019.62 1275.3 2017.51 1277.89 Q2016.93 1278.56 2013.83 1281.78 Q2010.73 1284.98 2005.08 1290.74 Z" fill="#000000" fill-rule="nonzero" fill-opacity="1" /><polyline clip-path="url(#clip842)" style="stroke:#000000; stroke-linecap:round; stroke-linejoin:round; stroke-width:2; stroke-opacity:0.1; fill:none" points="145.177,1201.2 2064.76,1201.2 "/>
<polyline clip-path="url(#clip842)" style="stroke:#000000; stroke-linecap:round; stroke-linejoin:round; stroke-width:2; stroke-opacity:0.1; fill:none" points="145.177,1002.03 2064.76,1002.03 "/>
<polyline clip-path="url(#clip842)" style="stroke:#000000; stroke-linecap:round; stroke-linejoin:round; stroke-width:2; stroke-opacity:0.1; fill:none" points="145.177,802.853 2064.76,802.853 "/>
<polyline clip-path="url(#clip842)" style="stroke:#000000; stroke-linecap:round; stroke-linejoin:round; stroke-width:2; stroke-opacity:0.1; fill:none" points="145.177,603.679 2064.76,603.679 "/>
<polyline clip-path="url(#clip842)" style="stroke:#000000; stroke-linecap:round; stroke-linejoin:round; stroke-width:2; stroke-opacity:0.1; fill:none" points="145.177,404.505 2064.76,404.505 "/>
<polyline clip-path="url(#clip842)" style="stroke:#000000; stroke-linecap:round; stroke-linejoin:round; stroke-width:2; stroke-opacity:0.1; fill:none" points="145.177,205.331 2064.76,205.331 "/>
<polyline clip-path="url(#clip840)" style="stroke:#000000; stroke-linecap:round; stroke-linejoin:round; stroke-width:4; stroke-opacity:1; fill:none" points="145.177,1234.58 145.177,47.2441 "/>
<polyline clip-path="url(#clip840)" style="stroke:#000000; stroke-linecap:round; stroke-linejoin:round; stroke-width:4; stroke-opacity:1; fill:none" points="145.177,1201.2 164.074,1201.2 "/>
<polyline clip-path="url(#clip840)" style="stroke:#000000; stroke-linecap:round; stroke-linejoin:round; stroke-width:4; stroke-opacity:1; fill:none" points="145.177,1002.03 164.074,1002.03 "/>
<polyline clip-path="url(#clip840)" style="stroke:#000000; stroke-linecap:round; stroke-linejoin:round; stroke-width:4; stroke-opacity:1; fill:none" points="145.177,802.853 164.074,802.853 "/>
<polyline clip-path="url(#clip840)" style="stroke:#000000; stroke-linecap:round; stroke-linejoin:round; stroke-width:4; stroke-opacity:1; fill:none" points="145.177,603.679 164.074,603.679 "/>
<polyline clip-path="url(#clip840)" style="stroke:#000000; stroke-linecap:round; stroke-linejoin:round; stroke-width:4; stroke-opacity:1; fill:none" points="145.177,404.505 164.074,404.505 "/>
<polyline clip-path="url(#clip840)" style="stroke:#000000; stroke-linecap:round; stroke-linejoin:round; stroke-width:4; stroke-opacity:1; fill:none" points="145.177,205.331 164.074,205.331 "/>
<path clip-path="url(#clip840)" d="M52.4321 1201.65 L82.1079 1201.65 L82.1079 1205.59 L52.4321 1205.59 L52.4321 1201.65 Z" fill="#000000" fill-rule="nonzero" fill-opacity="1" /><path clip-path="url(#clip840)" d="M106.367 1199.85 Q109.723 1200.56 111.598 1202.83 Q113.497 1205.1 113.497 1208.43 Q113.497 1213.55 109.978 1216.35 Q106.46 1219.15 99.9782 1219.15 Q97.8023 1219.15 95.4875 1218.71 Q93.1958 1218.3 90.7421 1217.44 L90.7421 1212.93 Q92.6865 1214.06 95.0013 1214.64 Q97.3161 1215.22 99.8393 1215.22 Q104.237 1215.22 106.529 1213.48 Q108.844 1211.74 108.844 1208.43 Q108.844 1205.38 106.691 1203.67 Q104.561 1201.93 100.742 1201.93 L96.7143 1201.93 L96.7143 1198.09 L100.927 1198.09 Q104.376 1198.09 106.205 1196.72 Q108.034 1195.33 108.034 1192.74 Q108.034 1190.08 106.136 1188.67 Q104.261 1187.23 100.742 1187.23 Q98.8208 1187.23 96.6217 1187.65 Q94.4226 1188.06 91.7838 1188.94 L91.7838 1184.78 Q94.4458 1184.04 96.7606 1183.67 Q99.0985 1183.3 101.159 1183.3 Q106.483 1183.3 109.585 1185.73 Q112.686 1188.13 112.686 1192.25 Q112.686 1195.12 111.043 1197.12 Q109.399 1199.08 106.367 1199.85 Z" fill="#000000" fill-rule="nonzero" fill-opacity="1" /><path clip-path="url(#clip840)" d="M53.3812 1002.48 L83.057 1002.48 L83.057 1006.41 L53.3812 1006.41 L53.3812 1002.48 Z" fill="#000000" fill-rule="nonzero" fill-opacity="1" /><path clip-path="url(#clip840)" d="M97.1773 1015.37 L113.497 1015.37 L113.497 1019.31 L91.5523 1019.31 L91.5523 1015.37 Q94.2143 1012.62 98.7976 1007.99 Q103.404 1003.33 104.585 1001.99 Q106.83 999.469 107.71 997.733 Q108.612 995.974 108.612 994.284 Q108.612 991.529 106.668 989.793 Q104.747 988.057 101.645 988.057 Q99.4458 988.057 96.9921 988.821 Q94.5615 989.585 91.7838 991.136 L91.7838 986.413 Q94.6078 985.279 97.0615 984.701 Q99.5152 984.122 101.552 984.122 Q106.923 984.122 110.117 986.807 Q113.311 989.492 113.311 993.983 Q113.311 996.113 112.501 998.034 Q111.714 999.932 109.608 1002.52 Q109.029 1003.2 105.927 1006.41 Q102.825 1009.61 97.1773 1015.37 Z" fill="#000000" fill-rule="nonzero" fill-opacity="1" /><path clip-path="url(#clip840)" d="M53.0108 803.304 L82.6866 803.304 L82.6866 807.24 L53.0108 807.24 L53.0108 803.304 Z" fill="#000000" fill-rule="nonzero" fill-opacity="1" /><path clip-path="url(#clip840)" d="M93.5893 816.198 L101.228 816.198 L101.228 789.832 L92.918 791.499 L92.918 787.24 L101.182 785.573 L105.858 785.573 L105.858 816.198 L113.497 816.198 L113.497 820.133 L93.5893 820.133 L93.5893 816.198 Z" fill="#000000" fill-rule="nonzero" fill-opacity="1" /><path clip-path="url(#clip840)" d="M101.552 589.478 Q97.9411 589.478 96.1124 593.043 Q94.3069 596.584 94.3069 603.714 Q94.3069 610.82 96.1124 614.385 Q97.9411 617.927 101.552 617.927 Q105.186 617.927 106.992 614.385 Q108.821 610.82 108.821 603.714 Q108.821 596.584 106.992 593.043 Q105.186 589.478 101.552 589.478 M101.552 585.774 Q107.362 585.774 110.418 590.381 Q113.497 594.964 113.497 603.714 Q113.497 612.441 110.418 617.047 Q107.362 621.63 101.552 621.63 Q95.7421 621.63 92.6634 617.047 Q89.6079 612.441 89.6079 603.714 Q89.6079 594.964 92.6634 590.381 Q95.7421 585.774 101.552 585.774 Z" fill="#000000" fill-rule="nonzero" fill-opacity="1" /><path clip-path="url(#clip840)" d="M93.5893 417.85 L101.228 417.85 L101.228 391.485 L92.918 393.151 L92.918 388.892 L101.182 387.225 L105.858 387.225 L105.858 417.85 L113.497 417.85 L113.497 421.785 L93.5893 421.785 L93.5893 417.85 Z" fill="#000000" fill-rule="nonzero" fill-opacity="1" /><path clip-path="url(#clip840)" d="M97.1773 218.676 L113.497 218.676 L113.497 222.611 L91.5523 222.611 L91.5523 218.676 Q94.2143 215.922 98.7976 211.292 Q103.404 206.639 104.585 205.297 Q106.83 202.774 107.71 201.037 Q108.612 199.278 108.612 197.588 Q108.612 194.834 106.668 193.098 Q104.747 191.362 101.645 191.362 Q99.4458 191.362 96.9921 192.125 Q94.5615 192.889 91.7838 194.44 L91.7838 189.718 Q94.6078 188.584 97.0615 188.005 Q99.5152 187.426 101.552 187.426 Q106.923 187.426 110.117 190.112 Q113.311 192.797 113.311 197.288 Q113.311 199.417 112.501 201.338 Q111.714 203.237 109.608 205.829 Q109.029 206.5 105.927 209.718 Q102.825 212.912 97.1773 218.676 Z" fill="#000000" fill-rule="nonzero" fill-opacity="1" /><polyline clip-path="url(#clip842)" style="stroke:#009af9; stroke-linecap:round; stroke-linejoin:round; stroke-width:4; stroke-opacity:1; fill:none" points="199.504,1002.03 211.294,988.53 320.311,862.994 385.825,787.44 441.217,724.11 471.302,690.168 501.388,656.723 529.124,626.481 556.86,596.973 586.596,566.376 616.332,537.129 633.558,520.933 650.784,505.372 668.01,490.525 685.236,476.478 700.544,464.739 715.853,453.771 731.161,443.646 746.47,434.437 759.894,427.176 773.318,420.733 786.742,415.16 800.166,410.513 814.802,406.562 829.438,403.842 844.074,402.415 858.71,402.342 873.433,403.687 888.156,406.501 902.879,410.818 917.602,416.66 933.88,424.904 950.158,435.009 966.436,446.933 982.714,460.605 998.202,475.143 1013.69,491.054 1029.18,508.198 1044.67,526.407 1076.87,566.841 1109.08,609.112 1136.2,644.571 1163.31,678.583 1179.86,698.135 1196.41,716.483 1212.96,733.422 1229.51,748.78 1244.67,761.346 1259.83,772.389 1274.99,781.853 1290.16,789.705 1304.16,795.513 1318.16,799.938 1332.16,802.997 1346.17,804.718 1360.35,805.133 1374.54,804.257 1388.72,802.143 1402.9,798.847 1418.8,793.822 1434.7,787.476 1450.59,779.898 1466.49,771.177 1480.9,762.36 1495.3,752.742 1509.71,742.383 1524.11,731.343 1540.6,717.938 1557.1,703.795 1573.59,688.988 1590.08,673.586 1620.62,643.712 1651.16,612.384 1681.27,580.376 1711.38,547.504 1740.62,514.96 1769.85,481.956 1829.79,413.379 1895.46,337.62 1990.86,227.746 2010.43,205.331 "/>
<polyline clip-path="url(#clip842)" style="stroke:#e26f46; stroke-linecap:round; stroke-linejoin:round; stroke-width:4; stroke-opacity:1; fill:none" points="199.504,85.8271 205.399,85.418 211.294,85.0208 265.803,82.0488 320.311,80.8479 353.068,81.3628 385.825,83.1279 413.521,85.8408 441.217,89.9268 471.302,96.2544 501.388,104.969 515.256,109.926 529.124,115.551 542.992,121.904 556.86,129.047 571.728,137.658 586.596,147.341 601.464,158.188 616.332,170.293 633.558,186.025 650.784,203.743 668.01,223.609 685.236,245.788 700.544,267.568 715.853,291.407 731.161,317.403 746.47,345.64 759.894,372.298 773.318,400.762 786.742,431.044 800.166,463.138 814.802,500.157 829.438,539.215 844.074,580.19 858.71,622.91 888.156,713.165 917.602,806.914 933.88,858.965 950.158,910.27 966.436,960.021 982.714,1007.36 990.458,1028.77 998.202,1049.33 1005.95,1068.96 1013.69,1087.54 1021.43,1105 1029.18,1121.24 1036.92,1136.18 1044.67,1149.73 1052.72,1162.28 1060.77,1173.18 1068.82,1182.36 1076.87,1189.77 1084.93,1195.37 1092.98,1199.11 1101.03,1200.97 1109.08,1200.95 1115.86,1199.47 1122.64,1196.66 1129.42,1192.53 1136.2,1187.1 1142.97,1180.39 1149.75,1172.44 1156.53,1163.27 1163.31,1152.93 1171.58,1138.78 1179.86,1123.04 1188.13,1105.79 1196.41,1087.16 1204.68,1067.23 1212.96,1046.13 1221.24,1023.97 1229.51,1000.87 1244.67,956.5 1259.83,910.088 1274.99,862.332 1290.16,813.884 1318.16,724.55 1346.17,638.033 1360.35,596.071 1374.54,555.674 1388.72,517.019 1402.9,480.234 1418.8,441.34 1434.7,404.975 1450.59,371.159 1466.49,339.873 1480.9,313.663 1495.3,289.427 1509.71,267.095 1524.11,246.585 1540.6,225.224 1557.1,205.994 1573.59,188.752 1590.08,173.354 1605.35,160.618 1620.62,149.232 1635.89,139.091 1651.16,130.096 1666.22,122.256 1681.27,115.351 1696.33,109.301 1711.38,104.031 1740.62,95.7675 1769.85,89.7283 1799.82,85.4377 1829.79,82.7182 1862.63,81.19 1895.46,80.8658 1943.16,82.0095 1990.86,84.5161 2000.64,85.1545 2010.43,85.8271 "/>
<path clip-path="url(#clip840)" d="M209.163 399.614 L961.516 399.614 L961.516 86.8219 L209.163 86.8219  Z" fill="#ffffff" fill-rule="evenodd" fill-opacity="1"/>
<polyline clip-path="url(#clip840)" style="stroke:#000000; stroke-linecap:round; stroke-linejoin:round; stroke-width:4; stroke-opacity:1; fill:none" points="209.163,399.614 961.516,399.614 961.516,86.8219 209.163,86.8219 209.163,399.614 "/>
<polyline clip-path="url(#clip840)" style="stroke:#009af9; stroke-linecap:round; stroke-linejoin:round; stroke-width:4; stroke-opacity:1; fill:none" points="230.491,191.086 358.463,191.086 "/>
<path clip-path="url(#clip840)" d="M401.809 182.98 Q401.809 183.004 401.668 183.847 L396.328 205.138 Q396.047 206.262 395.251 207.387 Q394.478 208.534 393.236 209.518 Q392.018 210.525 390.145 211.134 Q388.294 211.767 386.163 211.767 Q382.767 211.767 381.267 211.04 Q379.792 210.338 379.792 208.839 Q379.792 207.527 380.612 206.778 Q381.431 206.052 382.368 206.052 Q383.258 206.052 383.727 206.567 Q384.195 207.082 384.195 207.738 Q384.195 208.464 383.703 209.19 Q383.212 209.94 382.228 210.221 Q383.797 210.713 386.069 210.713 Q390.871 210.713 392.932 205.63 Q392.979 205.56 392.979 205.536 L394.571 199.189 L394.501 199.142 Q394.103 199.61 393.471 200.149 Q392.862 200.664 391.55 201.297 Q390.238 201.929 388.95 201.929 Q386.256 201.929 384.406 199.868 Q382.579 197.783 382.579 194.34 Q382.579 191.834 383.586 189.328 Q384.617 186.798 386.21 184.948 Q387.826 183.074 389.887 181.903 Q391.972 180.732 393.986 180.732 Q395.391 180.732 396.586 181.575 Q397.78 182.395 398.436 183.753 Q398.553 182.629 399.186 182.161 Q399.841 181.692 400.404 181.692 Q401.036 181.692 401.411 182.044 Q401.809 182.371 401.809 182.98 M397.874 185.908 Q397.874 185.768 397.78 185.393 Q397.687 184.995 397.406 184.362 Q397.148 183.73 396.75 183.168 Q396.352 182.606 395.625 182.207 Q394.923 181.786 394.033 181.786 Q392.581 181.786 391.128 183.004 Q389.676 184.198 388.669 186.049 Q387.732 187.829 386.842 191.272 Q385.975 194.715 385.975 196.472 Q385.975 198.205 386.725 199.54 Q387.474 200.875 389.091 200.875 Q390.964 200.875 392.979 199.142 Q395.063 197.338 395.415 195.792 L397.733 186.634 Q397.874 186.072 397.874 185.908 Z" fill="#000000" fill-rule="nonzero" fill-opacity="1" /><path clip-path="url(#clip840)" d="M408.384 189.937 Q408.384 181.833 411.405 175.298 Q412.693 172.557 414.497 170.262 Q416.3 167.967 417.495 166.959 Q418.689 165.952 419.017 165.952 Q419.486 165.952 419.509 166.421 Q419.509 166.655 418.877 167.241 Q411.147 175.11 411.171 189.937 Q411.171 204.81 418.689 212.376 Q419.509 213.195 419.509 213.453 Q419.509 213.921 419.017 213.921 Q418.689 213.921 417.542 212.961 Q416.394 212.001 414.614 209.799 Q412.834 207.597 411.546 204.904 Q408.384 198.369 408.384 189.937 Z" fill="#000000" fill-rule="nonzero" fill-opacity="1" /><path clip-path="url(#clip840)" d="M447.044 183.894 Q447.044 185.206 446.225 185.955 Q445.405 186.681 444.468 186.681 Q443.578 186.681 443.109 186.166 Q442.641 185.651 442.641 184.995 Q442.641 184.105 443.297 183.332 Q443.953 182.559 444.936 182.395 Q443.976 181.786 442.547 181.786 Q441.61 181.786 440.791 182.278 Q439.994 182.77 439.502 183.402 Q439.034 184.034 438.612 184.948 Q438.214 185.838 438.05 186.377 Q437.91 186.892 437.793 187.454 L436.153 194.012 Q435.357 197.128 435.357 198.228 Q435.357 199.587 436.012 200.5 Q436.668 201.39 437.98 201.39 Q438.495 201.39 439.081 201.25 Q439.666 201.086 440.416 200.664 Q441.189 200.219 441.868 199.564 Q442.571 198.884 443.25 197.737 Q443.929 196.589 444.374 195.113 Q444.515 194.598 444.983 194.598 Q445.569 194.598 445.569 195.066 Q445.569 195.465 445.241 196.308 Q444.936 197.128 444.257 198.205 Q443.601 199.259 442.735 200.219 Q441.868 201.156 440.58 201.812 Q439.292 202.468 437.886 202.468 Q435.872 202.468 434.537 201.39 Q433.202 200.313 432.71 198.814 Q432.593 199.025 432.429 199.306 Q432.265 199.587 431.773 200.219 Q431.305 200.828 430.766 201.297 Q430.227 201.742 429.384 202.093 Q428.564 202.468 427.674 202.468 Q426.55 202.468 425.543 202.14 Q424.559 201.812 423.856 201.063 Q423.154 200.313 423.154 199.282 Q423.154 198.135 423.926 197.338 Q424.723 196.519 425.8 196.519 Q426.479 196.519 427.018 196.917 Q427.58 197.315 427.58 198.182 Q427.58 199.142 426.925 199.868 Q426.269 200.594 425.332 200.781 Q426.292 201.39 427.721 201.39 Q429.267 201.39 430.485 200.032 Q431.703 198.673 432.288 196.401 Q433.74 190.944 434.303 188.508 Q434.865 186.049 434.865 184.995 Q434.865 184.011 434.607 183.332 Q434.349 182.652 433.904 182.348 Q433.483 182.02 433.085 181.903 Q432.71 181.786 432.288 181.786 Q431.586 181.786 430.789 182.067 Q430.016 182.348 429.079 183.004 Q428.166 183.636 427.299 184.948 Q426.433 186.26 425.847 188.063 Q425.73 188.602 425.215 188.602 Q424.653 188.578 424.653 188.11 Q424.653 187.712 424.957 186.892 Q425.285 186.049 425.941 184.995 Q426.62 183.941 427.487 183.004 Q428.377 182.044 429.665 181.388 Q430.977 180.732 432.382 180.732 Q433.014 180.732 433.623 180.872 Q434.256 180.99 435.005 181.341 Q435.778 181.692 436.457 182.465 Q437.137 183.238 437.558 184.362 Q437.839 183.824 438.214 183.308 Q438.612 182.793 439.221 182.161 Q439.854 181.505 440.72 181.13 Q441.61 180.732 442.594 180.732 Q443.554 180.732 444.491 180.99 Q445.428 181.224 446.225 181.997 Q447.044 182.746 447.044 183.894 Z" fill="#000000" fill-rule="nonzero" fill-opacity="1" /><path clip-path="url(#clip840)" d="M451.66 213.453 Q451.66 213.219 452.269 212.633 Q459.999 204.763 459.999 189.937 Q459.999 175.064 452.574 167.545 Q451.66 166.678 451.66 166.421 Q451.66 165.952 452.129 165.952 Q452.457 165.952 453.605 166.913 Q454.776 167.873 456.532 170.075 Q458.312 172.276 459.624 174.97 Q462.786 181.505 462.786 189.937 Q462.786 198.041 459.765 204.576 Q458.476 207.316 456.673 209.612 Q454.869 211.907 453.675 212.914 Q452.48 213.921 452.129 213.921 Q451.66 213.921 451.66 213.453 Z" fill="#000000" fill-rule="nonzero" fill-opacity="1" /><path clip-path="url(#clip840)" d="M483.387 194.645 Q483.434 194.059 484.347 194.059 L513.742 194.059 Q515.124 194.059 515.148 194.598 Q515.148 195.184 513.836 195.16 L484.675 195.16 Q483.387 195.184 483.387 194.645 M483.387 185.276 Q483.387 184.69 484.394 184.714 L513.695 184.714 Q515.124 184.714 515.148 185.276 Q515.148 185.815 513.93 185.815 L484.347 185.815 Q483.387 185.815 483.387 185.276 Z" fill="#000000" fill-rule="nonzero" fill-opacity="1" /><path clip-path="url(#clip840)" d="M543.887 177.484 Q543.887 176.618 543.957 176.36 Q544.051 176.102 544.426 175.704 L553.631 165.445 Q558.666 159.777 558.666 154.835 Q558.666 151.626 556.98 149.33 Q555.317 147.035 552.249 147.035 Q550.141 147.035 548.361 148.323 Q546.58 149.611 545.761 151.907 Q545.901 151.86 546.393 151.86 Q547.588 151.86 548.243 152.61 Q548.923 153.359 548.923 154.366 Q548.923 155.654 548.079 156.287 Q547.26 156.896 546.44 156.896 Q546.112 156.896 545.667 156.826 Q545.245 156.755 544.566 156.099 Q543.887 155.42 543.887 154.226 Q543.887 150.876 546.416 148.206 Q548.97 145.536 552.858 145.536 Q557.261 145.536 560.142 148.159 Q563.046 150.759 563.046 154.835 Q563.046 156.263 562.601 157.575 Q562.18 158.863 561.594 159.87 Q561.032 160.878 559.486 162.494 Q557.94 164.11 556.699 165.258 Q555.458 166.405 552.67 168.841 L547.588 173.783 L556.23 173.783 Q560.447 173.783 560.774 173.409 Q561.243 172.729 561.828 169.146 L563.046 169.146 L561.688 177.484 L543.887 177.484 Z" fill="#000000" fill-rule="nonzero" fill-opacity="1" /><path clip-path="url(#clip840)" d="M591.531 159.449 Q591.531 160.761 590.711 161.51 Q589.891 162.236 588.954 162.236 Q588.064 162.236 587.596 161.721 Q587.127 161.206 587.127 160.55 Q587.127 159.66 587.783 158.887 Q588.439 158.114 589.423 157.95 Q588.463 157.341 587.034 157.341 Q586.097 157.341 585.277 157.833 Q584.481 158.325 583.989 158.957 Q583.52 159.589 583.099 160.503 Q582.701 161.393 582.537 161.932 Q582.396 162.447 582.279 163.009 L580.639 169.567 Q579.843 172.683 579.843 173.783 Q579.843 175.142 580.499 176.055 Q581.155 176.945 582.466 176.945 Q582.982 176.945 583.567 176.805 Q584.153 176.641 584.902 176.219 Q585.675 175.774 586.355 175.119 Q587.057 174.439 587.736 173.292 Q588.416 172.144 588.861 170.668 Q589.001 170.153 589.47 170.153 Q590.055 170.153 590.055 170.621 Q590.055 171.02 589.727 171.863 Q589.423 172.683 588.744 173.76 Q588.088 174.814 587.221 175.774 Q586.355 176.711 585.066 177.367 Q583.778 178.023 582.373 178.023 Q580.358 178.023 579.023 176.945 Q577.688 175.868 577.196 174.369 Q577.079 174.58 576.915 174.861 Q576.751 175.142 576.259 175.774 Q575.791 176.383 575.252 176.852 Q574.714 177.297 573.87 177.648 Q573.051 178.023 572.161 178.023 Q571.036 178.023 570.029 177.695 Q569.045 177.367 568.343 176.618 Q567.64 175.868 567.64 174.837 Q567.64 173.69 568.413 172.893 Q569.209 172.074 570.287 172.074 Q570.966 172.074 571.505 172.472 Q572.067 172.87 572.067 173.737 Q572.067 174.697 571.411 175.423 Q570.755 176.149 569.818 176.336 Q570.779 176.945 572.207 176.945 Q573.753 176.945 574.971 175.587 Q576.189 174.228 576.775 171.956 Q578.227 166.499 578.789 164.063 Q579.351 161.604 579.351 160.55 Q579.351 159.566 579.094 158.887 Q578.836 158.207 578.391 157.903 Q577.969 157.575 577.571 157.458 Q577.196 157.341 576.775 157.341 Q576.072 157.341 575.276 157.622 Q574.503 157.903 573.566 158.559 Q572.652 159.191 571.786 160.503 Q570.919 161.815 570.334 163.618 Q570.216 164.157 569.701 164.157 Q569.139 164.133 569.139 163.665 Q569.139 163.267 569.444 162.447 Q569.771 161.604 570.427 160.55 Q571.107 159.496 571.973 158.559 Q572.863 157.599 574.151 156.943 Q575.463 156.287 576.868 156.287 Q577.501 156.287 578.11 156.427 Q578.742 156.545 579.492 156.896 Q580.265 157.247 580.944 158.02 Q581.623 158.793 582.045 159.917 Q582.326 159.379 582.701 158.863 Q583.099 158.348 583.708 157.716 Q584.34 157.06 585.207 156.685 Q586.097 156.287 587.081 156.287 Q588.041 156.287 588.978 156.545 Q589.915 156.779 590.711 157.552 Q591.531 158.301 591.531 159.449 Z" fill="#000000" fill-rule="nonzero" fill-opacity="1" /><path clip-path="url(#clip840)" d="M596.41 157.875 Q596.41 156.875 596.984 156.4 Q597.558 155.924 598.295 155.924 Q599.066 155.924 599.607 156.433 Q600.165 156.924 600.165 157.793 Q600.165 158.728 599.509 159.253 Q598.869 159.777 597.951 159.646 Q598.755 160.991 600.23 161.597 Q601.722 162.204 603.099 162.204 Q604.542 162.204 605.706 160.958 Q606.887 159.712 606.887 156.662 Q606.887 154.072 605.87 152.58 Q604.87 151.088 602.886 151.088 L601.411 151.088 Q600.902 151.088 600.755 151.038 Q600.607 150.989 600.607 150.71 Q600.607 150.382 601.116 150.317 Q601.624 150.317 602.427 150.219 Q604.378 150.153 605.411 148.464 Q606.346 146.89 606.346 144.644 Q606.346 142.595 605.362 141.742 Q604.395 140.873 603.132 140.873 Q601.952 140.873 600.656 141.365 Q599.361 141.857 598.656 142.955 Q600.738 142.955 600.738 144.644 Q600.738 145.382 600.263 145.874 Q599.804 146.349 599.033 146.349 Q598.295 146.349 597.804 145.89 Q597.312 145.415 597.312 144.611 Q597.312 142.693 599.017 141.365 Q600.738 140.037 603.263 140.037 Q605.756 140.037 607.592 141.348 Q609.445 142.66 609.445 144.677 Q609.445 146.661 608.133 148.284 Q606.821 149.907 604.739 150.579 Q607.297 151.088 608.822 152.825 Q610.346 154.547 610.346 156.662 Q610.346 159.285 608.28 161.22 Q606.215 163.138 603.198 163.138 Q600.411 163.138 598.41 161.63 Q596.41 160.122 596.41 157.875 Z" fill="#000000" fill-rule="nonzero" fill-opacity="1" /><path clip-path="url(#clip840)" d="M660.298 164.813 Q660.579 165.094 660.579 165.492 Q660.579 165.89 660.298 166.171 Q660.017 166.452 659.619 166.452 L629.591 166.452 Q629.193 166.452 628.912 166.171 Q628.631 165.89 628.631 165.492 Q628.631 165.094 628.912 164.813 Q629.193 164.532 629.591 164.532 L659.619 164.532 Q660.017 164.532 660.298 164.813 Z" fill="#000000" fill-rule="nonzero" fill-opacity="1" /><path clip-path="url(#clip840)" d="M678.891 171.02 Q678.891 169.591 679.711 168.912 Q680.531 168.232 681.585 168.232 Q682.685 168.232 683.458 168.958 Q684.255 169.661 684.255 170.902 Q684.255 172.238 683.318 172.987 Q682.404 173.737 681.093 173.549 Q682.24 175.47 684.348 176.336 Q686.48 177.203 688.447 177.203 Q690.509 177.203 692.172 175.423 Q693.858 173.643 693.858 169.286 Q693.858 165.586 692.406 163.454 Q690.977 161.323 688.143 161.323 L686.035 161.323 Q685.309 161.323 685.098 161.252 Q684.887 161.182 684.887 160.784 Q684.887 160.316 685.613 160.222 Q686.339 160.222 687.487 160.081 Q690.274 159.988 691.75 157.575 Q693.085 155.327 693.085 152.118 Q693.085 149.19 691.68 147.972 Q690.298 146.73 688.494 146.73 Q686.808 146.73 684.957 147.433 Q683.107 148.136 682.1 149.705 Q685.075 149.705 685.075 152.118 Q685.075 153.172 684.395 153.874 Q683.739 154.554 682.639 154.554 Q681.585 154.554 680.882 153.898 Q680.179 153.219 680.179 152.071 Q680.179 149.33 682.615 147.433 Q685.075 145.536 688.682 145.536 Q692.242 145.536 694.865 147.41 Q697.512 149.284 697.512 152.165 Q697.512 154.999 695.638 157.317 Q693.764 159.636 690.79 160.597 Q694.444 161.323 696.622 163.805 Q698.8 166.265 698.8 169.286 Q698.8 173.034 695.849 175.798 Q692.898 178.538 688.588 178.538 Q684.606 178.538 681.749 176.383 Q678.891 174.228 678.891 171.02 Z" fill="#000000" fill-rule="nonzero" fill-opacity="1" /><path clip-path="url(#clip840)" d="M725.767 159.449 Q725.767 160.761 724.947 161.51 Q724.127 162.236 723.191 162.236 Q722.301 162.236 721.832 161.721 Q721.364 161.206 721.364 160.55 Q721.364 159.66 722.019 158.887 Q722.675 158.114 723.659 157.95 Q722.699 157.341 721.27 157.341 Q720.333 157.341 719.513 157.833 Q718.717 158.325 718.225 158.957 Q717.757 159.589 717.335 160.503 Q716.937 161.393 716.773 161.932 Q716.632 162.447 716.515 163.009 L714.876 169.567 Q714.079 172.683 714.079 173.783 Q714.079 175.142 714.735 176.055 Q715.391 176.945 716.703 176.945 Q717.218 176.945 717.803 176.805 Q718.389 176.641 719.138 176.219 Q719.911 175.774 720.591 175.119 Q721.293 174.439 721.973 173.292 Q722.652 172.144 723.097 170.668 Q723.237 170.153 723.706 170.153 Q724.291 170.153 724.291 170.621 Q724.291 171.02 723.964 171.863 Q723.659 172.683 722.98 173.76 Q722.324 174.814 721.457 175.774 Q720.591 176.711 719.302 177.367 Q718.014 178.023 716.609 178.023 Q714.595 178.023 713.259 176.945 Q711.924 175.868 711.433 174.369 Q711.315 174.58 711.151 174.861 Q710.987 175.142 710.496 175.774 Q710.027 176.383 709.488 176.852 Q708.95 177.297 708.107 177.648 Q707.287 178.023 706.397 178.023 Q705.272 178.023 704.265 177.695 Q703.281 177.367 702.579 176.618 Q701.876 175.868 701.876 174.837 Q701.876 173.69 702.649 172.893 Q703.445 172.074 704.523 172.074 Q705.202 172.074 705.741 172.472 Q706.303 172.87 706.303 173.737 Q706.303 174.697 705.647 175.423 Q704.991 176.149 704.054 176.336 Q705.015 176.945 706.444 176.945 Q707.989 176.945 709.207 175.587 Q710.425 174.228 711.011 171.956 Q712.463 166.499 713.025 164.063 Q713.587 161.604 713.587 160.55 Q713.587 159.566 713.33 158.887 Q713.072 158.207 712.627 157.903 Q712.205 157.575 711.807 157.458 Q711.433 157.341 711.011 157.341 Q710.308 157.341 709.512 157.622 Q708.739 157.903 707.802 158.559 Q706.889 159.191 706.022 160.503 Q705.155 161.815 704.57 163.618 Q704.453 164.157 703.937 164.157 Q703.375 164.133 703.375 163.665 Q703.375 163.267 703.68 162.447 Q704.008 161.604 704.663 160.55 Q705.343 159.496 706.209 158.559 Q707.099 157.599 708.388 156.943 Q709.699 156.287 711.105 156.287 Q711.737 156.287 712.346 156.427 Q712.978 156.545 713.728 156.896 Q714.501 157.247 715.18 158.02 Q715.859 158.793 716.281 159.917 Q716.562 159.379 716.937 158.863 Q717.335 158.348 717.944 157.716 Q718.576 157.06 719.443 156.685 Q720.333 156.287 721.317 156.287 Q722.277 156.287 723.214 156.545 Q724.151 156.779 724.947 157.552 Q725.767 158.301 725.767 159.449 Z" fill="#000000" fill-rule="nonzero" fill-opacity="1" /><path clip-path="url(#clip840)" d="M543.887 191.329 L730.646 191.329 L730.646 188.769 L543.887 188.769  Z" fill="#000000" fill-rule="evenodd" fill-opacity="1"/>
<path clip-path="url(#clip840)" d="M595.058 220.033 Q595.058 221.345 594.238 222.094 Q593.418 222.82 592.481 222.82 Q591.591 222.82 591.123 222.305 Q590.654 221.79 590.654 221.134 Q590.654 220.244 591.31 219.471 Q591.966 218.698 592.95 218.534 Q591.989 217.925 590.561 217.925 Q589.624 217.925 588.804 218.417 Q588.008 218.909 587.516 219.541 Q587.047 220.174 586.626 221.087 Q586.227 221.977 586.064 222.516 Q585.923 223.031 585.806 223.593 L584.166 230.152 Q583.37 233.267 583.37 234.368 Q583.37 235.726 584.026 236.64 Q584.682 237.53 585.993 237.53 Q586.509 237.53 587.094 237.389 Q587.68 237.225 588.429 236.804 Q589.202 236.359 589.881 235.703 Q590.584 235.023 591.263 233.876 Q591.943 232.728 592.388 231.252 Q592.528 230.737 592.997 230.737 Q593.582 230.737 593.582 231.206 Q593.582 231.604 593.254 232.447 Q592.95 233.267 592.27 234.344 Q591.615 235.398 590.748 236.359 Q589.881 237.295 588.593 237.951 Q587.305 238.607 585.9 238.607 Q583.885 238.607 582.55 237.53 Q581.215 236.452 580.723 234.953 Q580.606 235.164 580.442 235.445 Q580.278 235.726 579.786 236.359 Q579.318 236.968 578.779 237.436 Q578.24 237.881 577.397 238.232 Q576.577 238.607 575.687 238.607 Q574.563 238.607 573.556 238.279 Q572.572 237.951 571.87 237.202 Q571.167 236.452 571.167 235.422 Q571.167 234.274 571.94 233.478 Q572.736 232.658 573.814 232.658 Q574.493 232.658 575.032 233.056 Q575.594 233.454 575.594 234.321 Q575.594 235.281 574.938 236.007 Q574.282 236.733 573.345 236.921 Q574.305 237.53 575.734 237.53 Q577.28 237.53 578.498 236.171 Q579.716 234.813 580.302 232.541 Q581.754 227.083 582.316 224.647 Q582.878 222.188 582.878 221.134 Q582.878 220.15 582.62 219.471 Q582.363 218.792 581.918 218.487 Q581.496 218.159 581.098 218.042 Q580.723 217.925 580.302 217.925 Q579.599 217.925 578.803 218.206 Q578.03 218.487 577.093 219.143 Q576.179 219.775 575.313 221.087 Q574.446 222.399 573.86 224.202 Q573.743 224.741 573.228 224.741 Q572.666 224.718 572.666 224.249 Q572.666 223.851 572.97 223.031 Q573.298 222.188 573.954 221.134 Q574.633 220.08 575.5 219.143 Q576.39 218.183 577.678 217.527 Q578.99 216.871 580.395 216.871 Q581.028 216.871 581.637 217.012 Q582.269 217.129 583.019 217.48 Q583.792 217.831 584.471 218.604 Q585.15 219.377 585.572 220.502 Q585.853 219.963 586.227 219.448 Q586.626 218.932 587.235 218.3 Q587.867 217.644 588.734 217.269 Q589.624 216.871 590.607 216.871 Q591.568 216.871 592.505 217.129 Q593.442 217.363 594.238 218.136 Q595.058 218.885 595.058 220.033 Z" fill="#000000" fill-rule="nonzero" fill-opacity="1" /><path clip-path="url(#clip840)" d="M599.937 223.716 Q599.937 223.11 599.986 222.929 Q600.052 222.749 600.314 222.47 L606.757 215.289 Q610.283 211.321 610.283 207.862 Q610.283 205.615 609.102 204.009 Q607.938 202.402 605.79 202.402 Q604.315 202.402 603.068 203.304 Q601.822 204.205 601.249 205.812 Q601.347 205.779 601.691 205.779 Q602.527 205.779 602.986 206.304 Q603.462 206.829 603.462 207.534 Q603.462 208.435 602.872 208.878 Q602.298 209.304 601.724 209.304 Q601.494 209.304 601.183 209.255 Q600.888 209.206 600.412 208.747 Q599.937 208.272 599.937 207.435 Q599.937 205.091 601.708 203.222 Q603.495 201.353 606.216 201.353 Q609.299 201.353 611.315 203.189 Q613.349 205.009 613.349 207.862 Q613.349 208.862 613.037 209.78 Q612.742 210.682 612.332 211.387 Q611.939 212.092 610.856 213.223 Q609.774 214.354 608.905 215.158 Q608.036 215.961 606.085 217.666 L602.527 221.126 L608.577 221.126 Q611.529 221.126 611.758 220.863 Q612.086 220.388 612.496 217.879 L613.349 217.879 L612.398 223.716 L599.937 223.716 Z" fill="#000000" fill-rule="nonzero" fill-opacity="1" /><path clip-path="url(#clip840)" d="M632.739 226.662 Q631.638 226.662 631.638 226.076 Q631.638 225.491 632.786 225.491 Q632.926 225.491 633.16 225.514 Q633.418 225.537 633.465 225.537 L646.98 225.537 L646.98 211.976 Q646.98 211.929 646.956 211.718 Q646.933 211.484 646.933 211.343 Q646.933 210.196 647.495 210.196 Q648.081 210.196 648.081 211.343 L648.081 225.537 L661.619 225.537 Q661.666 225.537 661.9 225.514 Q662.134 225.491 662.275 225.491 Q663.375 225.491 663.375 226.076 Q663.399 226.662 662.228 226.662 Q662.087 226.662 661.876 226.638 Q661.666 226.615 661.619 226.615 L648.081 226.615 L648.081 240.856 Q648.081 241.957 647.495 241.957 Q646.933 241.957 646.933 240.809 Q646.933 240.668 646.956 240.434 Q646.98 240.223 646.98 240.176 L646.98 226.615 L633.465 226.615 Q633.418 226.615 633.137 226.638 Q632.879 226.662 632.739 226.662 Z" fill="#000000" fill-rule="nonzero" fill-opacity="1" /><path clip-path="url(#clip840)" d="M681.898 210.688 L681.898 209.189 Q687.66 209.189 690.635 206.12 Q691.455 206.12 691.595 206.308 Q691.736 206.495 691.736 207.362 L691.736 234.274 Q691.736 235.703 692.438 236.148 Q693.141 236.593 696.209 236.593 L697.732 236.593 L697.732 238.068 Q696.045 237.928 689.955 237.928 Q683.866 237.928 682.203 238.068 L682.203 236.593 L683.725 236.593 Q686.747 236.593 687.473 236.171 Q688.199 235.726 688.199 234.274 L688.199 209.423 Q685.693 210.688 681.898 210.688 Z" fill="#000000" fill-rule="nonzero" fill-opacity="1" /><polyline clip-path="url(#clip840)" style="stroke:#e26f46; stroke-linecap:round; stroke-linejoin:round; stroke-width:4; stroke-opacity:1; fill:none" points="230.491,295.35 358.463,295.35 "/>
<path clip-path="url(#clip840)" d="M401.809 288.274 Q401.809 288.298 401.668 289.141 L396.328 310.432 Q396.047 311.556 395.251 312.68 Q394.478 313.828 393.236 314.812 Q392.018 315.819 390.145 316.428 Q388.294 317.06 386.163 317.06 Q382.767 317.06 381.267 316.334 Q379.792 315.632 379.792 314.133 Q379.792 312.821 380.612 312.071 Q381.431 311.345 382.368 311.345 Q383.258 311.345 383.727 311.861 Q384.195 312.376 384.195 313.032 Q384.195 313.758 383.703 314.484 Q383.212 315.234 382.228 315.515 Q383.797 316.006 386.069 316.006 Q390.871 316.006 392.932 310.924 Q392.979 310.854 392.979 310.83 L394.571 304.483 L394.501 304.436 Q394.103 304.904 393.471 305.443 Q392.862 305.958 391.55 306.591 Q390.238 307.223 388.95 307.223 Q386.256 307.223 384.406 305.162 Q382.579 303.077 382.579 299.634 Q382.579 297.128 383.586 294.622 Q384.617 292.092 386.21 290.242 Q387.826 288.368 389.887 287.197 Q391.972 286.026 393.986 286.026 Q395.391 286.026 396.586 286.869 Q397.78 287.689 398.436 289.047 Q398.553 287.923 399.186 287.454 Q399.841 286.986 400.404 286.986 Q401.036 286.986 401.411 287.337 Q401.809 287.665 401.809 288.274 M397.874 291.202 Q397.874 291.062 397.78 290.687 Q397.687 290.289 397.406 289.656 Q397.148 289.024 396.75 288.462 Q396.352 287.9 395.625 287.501 Q394.923 287.08 394.033 287.08 Q392.581 287.08 391.128 288.298 Q389.676 289.492 388.669 291.343 Q387.732 293.123 386.842 296.566 Q385.975 300.009 385.975 301.766 Q385.975 303.499 386.725 304.834 Q387.474 306.169 389.091 306.169 Q390.964 306.169 392.979 304.436 Q395.063 302.632 395.415 301.086 L397.733 291.928 Q397.874 291.366 397.874 291.202 Z" fill="#000000" fill-rule="nonzero" fill-opacity="1" /><path clip-path="url(#clip840)" d="M406.234 275.369 Q406.234 274.174 406.96 273.682 Q407.686 273.167 408.459 273.167 Q409.419 273.167 410.028 273.752 Q410.661 274.315 410.661 275.369 Q410.661 275.837 410.614 276.095 L409.021 290.57 L407.92 290.57 L406.281 276.095 Q406.234 275.837 406.234 275.369 Z" fill="#000000" fill-rule="nonzero" fill-opacity="1" /><path clip-path="url(#clip840)" d="M419.433 295.231 Q419.433 287.127 422.454 280.592 Q423.742 277.851 425.546 275.556 Q427.349 273.26 428.544 272.253 Q429.739 271.246 430.066 271.246 Q430.535 271.246 430.558 271.715 Q430.558 271.949 429.926 272.534 Q422.197 280.404 422.22 295.231 Q422.22 310.104 429.739 317.669 Q430.558 318.489 430.558 318.747 Q430.558 319.215 430.066 319.215 Q429.739 319.215 428.591 318.255 Q427.443 317.295 425.663 315.093 Q423.883 312.891 422.595 310.198 Q419.433 303.663 419.433 295.231 Z" fill="#000000" fill-rule="nonzero" fill-opacity="1" /><path clip-path="url(#clip840)" d="M458.094 289.188 Q458.094 290.499 457.274 291.249 Q456.454 291.975 455.517 291.975 Q454.627 291.975 454.159 291.46 Q453.69 290.944 453.69 290.289 Q453.69 289.399 454.346 288.626 Q455.002 287.853 455.985 287.689 Q455.025 287.08 453.596 287.08 Q452.66 287.08 451.84 287.572 Q451.043 288.063 450.551 288.696 Q450.083 289.328 449.661 290.242 Q449.263 291.132 449.099 291.671 Q448.959 292.186 448.842 292.748 L447.202 299.306 Q446.406 302.421 446.406 303.522 Q446.406 304.881 447.062 305.794 Q447.717 306.684 449.029 306.684 Q449.544 306.684 450.13 306.544 Q450.715 306.38 451.465 305.958 Q452.238 305.513 452.917 304.857 Q453.62 304.178 454.299 303.03 Q454.978 301.883 455.423 300.407 Q455.564 299.892 456.032 299.892 Q456.618 299.892 456.618 300.36 Q456.618 300.758 456.29 301.602 Q455.985 302.421 455.306 303.499 Q454.65 304.553 453.784 305.513 Q452.917 306.45 451.629 307.106 Q450.341 307.762 448.935 307.762 Q446.921 307.762 445.586 306.684 Q444.251 305.607 443.759 304.108 Q443.642 304.319 443.478 304.6 Q443.314 304.881 442.822 305.513 Q442.354 306.122 441.815 306.591 Q441.276 307.036 440.433 307.387 Q439.613 307.762 438.723 307.762 Q437.599 307.762 436.592 307.434 Q435.608 307.106 434.905 306.356 Q434.203 305.607 434.203 304.576 Q434.203 303.429 434.976 302.632 Q435.772 301.812 436.849 301.812 Q437.529 301.812 438.067 302.211 Q438.629 302.609 438.629 303.475 Q438.629 304.436 437.974 305.162 Q437.318 305.888 436.381 306.075 Q437.341 306.684 438.77 306.684 Q440.316 306.684 441.534 305.326 Q442.752 303.967 443.337 301.695 Q444.79 296.238 445.352 293.802 Q445.914 291.343 445.914 290.289 Q445.914 289.305 445.656 288.626 Q445.399 287.946 444.954 287.642 Q444.532 287.314 444.134 287.197 Q443.759 287.08 443.337 287.08 Q442.635 287.08 441.838 287.361 Q441.065 287.642 440.128 288.298 Q439.215 288.93 438.348 290.242 Q437.482 291.553 436.896 293.357 Q436.779 293.896 436.264 293.896 Q435.702 293.872 435.702 293.404 Q435.702 293.006 436.006 292.186 Q436.334 291.343 436.99 290.289 Q437.669 289.235 438.536 288.298 Q439.426 287.337 440.714 286.682 Q442.026 286.026 443.431 286.026 Q444.063 286.026 444.672 286.166 Q445.305 286.283 446.054 286.635 Q446.827 286.986 447.507 287.759 Q448.186 288.532 448.607 289.656 Q448.888 289.117 449.263 288.602 Q449.661 288.087 450.27 287.454 Q450.903 286.799 451.769 286.424 Q452.66 286.026 453.643 286.026 Q454.604 286.026 455.54 286.283 Q456.477 286.518 457.274 287.291 Q458.094 288.04 458.094 289.188 Z" fill="#000000" fill-rule="nonzero" fill-opacity="1" /><path clip-path="url(#clip840)" d="M462.71 318.747 Q462.71 318.513 463.319 317.927 Q471.048 310.057 471.048 295.231 Q471.048 280.357 463.623 272.839 Q462.71 271.972 462.71 271.715 Q462.71 271.246 463.178 271.246 Q463.506 271.246 464.654 272.206 Q465.825 273.167 467.581 275.369 Q469.362 277.57 470.673 280.264 Q473.835 286.799 473.835 295.231 Q473.835 303.335 470.814 309.87 Q469.526 312.61 467.722 314.906 Q465.918 317.201 464.724 318.208 Q463.529 319.215 463.178 319.215 Q462.71 319.215 462.71 318.747 Z" fill="#000000" fill-rule="nonzero" fill-opacity="1" /><path clip-path="url(#clip840)" d="M494.436 299.939 Q494.483 299.353 495.396 299.353 L524.791 299.353 Q526.173 299.353 526.197 299.892 Q526.197 300.477 524.885 300.454 L495.724 300.454 Q494.436 300.477 494.436 299.939 M494.436 290.57 Q494.436 289.984 495.443 290.008 L524.744 290.008 Q526.173 290.008 526.197 290.57 Q526.197 291.108 524.979 291.108 L495.396 291.108 Q494.436 291.108 494.436 290.57 Z" fill="#000000" fill-rule="nonzero" fill-opacity="1" /><path clip-path="url(#clip840)" d="M554.936 279.98 Q554.936 279.113 555.006 278.856 Q555.1 278.598 555.475 278.2 L564.68 267.941 Q569.716 262.273 569.716 257.33 Q569.716 254.122 568.029 251.826 Q566.366 249.531 563.298 249.531 Q561.19 249.531 559.41 250.819 Q557.63 252.107 556.81 254.403 Q556.95 254.356 557.442 254.356 Q558.637 254.356 559.293 255.105 Q559.972 255.855 559.972 256.862 Q559.972 258.15 559.129 258.783 Q558.309 259.392 557.489 259.392 Q557.161 259.392 556.716 259.321 Q556.294 259.251 555.615 258.595 Q554.936 257.916 554.936 256.721 Q554.936 253.372 557.466 250.702 Q560.019 248.032 563.907 248.032 Q568.31 248.032 571.191 250.655 Q574.096 253.255 574.096 257.33 Q574.096 258.759 573.651 260.071 Q573.229 261.359 572.643 262.366 Q572.081 263.373 570.535 264.99 Q568.989 266.606 567.748 267.753 Q566.507 268.901 563.719 271.337 L558.637 276.279 L567.28 276.279 Q571.496 276.279 571.824 275.904 Q572.292 275.225 572.878 271.642 L574.096 271.642 L572.737 279.98 L554.936 279.98 Z" fill="#000000" fill-rule="nonzero" fill-opacity="1" /><path clip-path="url(#clip840)" d="M596.331 266.208 Q597.08 266.957 597.08 267.988 Q597.08 269.018 596.331 269.791 Q595.581 270.541 594.55 270.541 Q593.52 270.541 592.747 269.791 Q591.997 269.018 591.997 267.988 Q591.997 266.957 592.747 266.208 Q593.52 265.435 594.55 265.435 Q595.581 265.435 596.331 266.208 Z" fill="#000000" fill-rule="nonzero" fill-opacity="1" /><path clip-path="url(#clip840)" d="M642.395 261.945 Q642.395 263.256 641.575 264.006 Q640.756 264.732 639.819 264.732 Q638.929 264.732 638.46 264.217 Q637.992 263.701 637.992 263.045 Q637.992 262.155 638.648 261.382 Q639.304 260.61 640.287 260.446 Q639.327 259.837 637.898 259.837 Q636.961 259.837 636.141 260.328 Q635.345 260.82 634.853 261.453 Q634.385 262.085 633.963 262.999 Q633.565 263.889 633.401 264.427 Q633.261 264.943 633.143 265.505 L631.504 272.063 Q630.707 275.178 630.707 276.279 Q630.707 277.638 631.363 278.551 Q632.019 279.441 633.331 279.441 Q633.846 279.441 634.432 279.301 Q635.017 279.137 635.767 278.715 Q636.54 278.27 637.219 277.614 Q637.922 276.935 638.601 275.787 Q639.28 274.64 639.725 273.164 Q639.866 272.649 640.334 272.649 Q640.92 272.649 640.92 273.117 Q640.92 273.515 640.592 274.359 Q640.287 275.178 639.608 276.256 Q638.952 277.31 638.086 278.27 Q637.219 279.207 635.931 279.863 Q634.642 280.519 633.237 280.519 Q631.223 280.519 629.888 279.441 Q628.553 278.364 628.061 276.865 Q627.944 277.076 627.78 277.357 Q627.616 277.638 627.124 278.27 Q626.655 278.879 626.117 279.348 Q625.578 279.793 624.735 280.144 Q623.915 280.519 623.025 280.519 Q621.901 280.519 620.893 280.191 Q619.91 279.863 619.207 279.113 Q618.504 278.364 618.504 277.333 Q618.504 276.185 619.277 275.389 Q620.074 274.569 621.151 274.569 Q621.83 274.569 622.369 274.968 Q622.931 275.366 622.931 276.232 Q622.931 277.193 622.275 277.919 Q621.62 278.645 620.683 278.832 Q621.643 279.441 623.072 279.441 Q624.618 279.441 625.836 278.083 Q627.054 276.724 627.639 274.452 Q629.091 268.995 629.653 266.559 Q630.216 264.1 630.216 263.045 Q630.216 262.062 629.958 261.382 Q629.7 260.703 629.255 260.399 Q628.834 260.071 628.436 259.954 Q628.061 259.837 627.639 259.837 Q626.936 259.837 626.14 260.118 Q625.367 260.399 624.43 261.055 Q623.517 261.687 622.65 262.999 Q621.784 264.31 621.198 266.114 Q621.081 266.653 620.566 266.653 Q620.003 266.629 620.003 266.161 Q620.003 265.762 620.308 264.943 Q620.636 264.1 621.292 263.045 Q621.971 261.991 622.838 261.055 Q623.728 260.094 625.016 259.438 Q626.327 258.783 627.733 258.783 Q628.365 258.783 628.974 258.923 Q629.607 259.04 630.356 259.392 Q631.129 259.743 631.808 260.516 Q632.488 261.289 632.909 262.413 Q633.19 261.874 633.565 261.359 Q633.963 260.844 634.572 260.211 Q635.205 259.556 636.071 259.181 Q636.961 258.783 637.945 258.783 Q638.905 258.783 639.842 259.04 Q640.779 259.274 641.575 260.047 Q642.395 260.797 642.395 261.945 Z" fill="#000000" fill-rule="nonzero" fill-opacity="1" /><path clip-path="url(#clip840)" d="M647.274 260.199 L647.274 259.166 L657.587 243.409 Q657.85 243 658.26 243.016 Q658.637 243.016 658.719 243.164 Q658.801 243.311 658.801 243.885 L658.801 259.166 L662.162 259.166 L662.162 260.199 L658.801 260.199 L658.801 263.117 Q658.801 264.084 659.194 264.396 Q659.604 264.707 661.342 264.707 L662.047 264.707 L662.047 265.74 Q660.67 265.642 657.489 265.642 Q654.325 265.642 652.947 265.74 L652.947 264.707 L653.652 264.707 Q655.39 264.707 655.8 264.412 Q656.21 264.101 656.21 263.117 L656.21 260.199 L647.274 260.199 M648.225 259.166 L656.407 259.166 L656.407 246.639 L648.225 259.166 Z" fill="#000000" fill-rule="nonzero" fill-opacity="1" /><path clip-path="url(#clip840)" d="M683.431 268.573 Q682.33 268.573 682.33 267.988 Q682.33 267.402 683.478 267.402 Q683.618 267.402 683.852 267.425 Q684.11 267.449 684.157 267.449 L697.672 267.449 L697.672 253.887 Q697.672 253.84 697.648 253.63 Q697.625 253.395 697.625 253.255 Q697.625 252.107 698.187 252.107 Q698.772 252.107 698.772 253.255 L698.772 267.449 L712.311 267.449 Q712.357 267.449 712.592 267.425 Q712.826 267.402 712.966 267.402 Q714.067 267.402 714.067 267.988 Q714.091 268.573 712.92 268.573 Q712.779 268.573 712.568 268.55 Q712.357 268.526 712.311 268.526 L698.772 268.526 L698.772 282.767 Q698.772 283.868 698.187 283.868 Q697.625 283.868 697.625 282.72 Q697.625 282.58 697.648 282.346 Q697.672 282.135 697.672 282.088 L697.672 268.526 L684.157 268.526 Q684.11 268.526 683.829 268.55 Q683.571 268.573 683.431 268.573 Z" fill="#000000" fill-rule="nonzero" fill-opacity="1" /><path clip-path="url(#clip840)" d="M732.59 258.829 Q732.59 256.276 733.34 254.543 Q734.089 252.786 735.658 251.053 Q738.539 248.032 742.708 248.032 Q744.489 248.032 746.058 248.781 Q747.651 249.531 749.15 251.241 Q750.672 252.927 751.586 256.276 Q752.499 259.602 752.499 264.193 Q752.499 271.618 748.892 276.326 Q745.308 281.034 740.46 281.034 Q737.392 281.034 735.588 279.652 Q733.785 278.247 733.785 275.858 Q733.785 274.616 734.487 274.101 Q735.19 273.562 735.986 273.562 Q736.853 273.562 737.532 274.148 Q738.211 274.71 738.211 275.764 Q738.211 276.631 737.649 277.31 Q737.111 277.966 735.705 277.966 Q737.087 279.699 740.413 279.699 Q741.608 279.699 742.802 279.16 Q743.997 278.598 745.285 277.263 Q746.597 275.904 747.393 273.07 Q748.189 270.236 748.189 266.254 L748.189 264.732 Q746.269 269.534 742.193 269.534 Q738.165 269.534 735.377 266.442 Q732.59 263.35 732.59 258.829 M736.9 258.876 Q736.9 263.631 737.766 265.388 Q739.242 268.409 742.24 268.409 Q745.168 268.409 746.62 265.809 Q748.096 263.186 748.096 259.79 Q748.096 255.082 747.323 253.021 Q745.894 249.226 742.708 249.226 Q739.546 249.226 737.907 252.248 Q736.9 254.028 736.9 258.876 Z" fill="#000000" fill-rule="nonzero" fill-opacity="1" /><path clip-path="url(#clip840)" d="M773.985 266.208 Q774.734 266.957 774.734 267.988 Q774.734 269.018 773.985 269.791 Q773.235 270.541 772.204 270.541 Q771.174 270.541 770.401 269.791 Q769.651 269.018 769.651 267.988 Q769.651 266.957 770.401 266.208 Q771.174 265.435 772.204 265.435 Q773.235 265.435 773.985 266.208 Z" fill="#000000" fill-rule="nonzero" fill-opacity="1" /><path clip-path="url(#clip840)" d="M820.049 261.945 Q820.049 263.256 819.23 264.006 Q818.41 264.732 817.473 264.732 Q816.583 264.732 816.114 264.217 Q815.646 263.701 815.646 263.045 Q815.646 262.155 816.302 261.382 Q816.958 260.61 817.941 260.446 Q816.981 259.837 815.552 259.837 Q814.615 259.837 813.796 260.328 Q812.999 260.82 812.507 261.453 Q812.039 262.085 811.617 262.999 Q811.219 263.889 811.055 264.427 Q810.915 264.943 810.797 265.505 L809.158 272.063 Q808.361 275.178 808.361 276.279 Q808.361 277.638 809.017 278.551 Q809.673 279.441 810.985 279.441 Q811.5 279.441 812.086 279.301 Q812.671 279.137 813.421 278.715 Q814.194 278.27 814.873 277.614 Q815.576 276.935 816.255 275.787 Q816.934 274.64 817.379 273.164 Q817.52 272.649 817.988 272.649 Q818.574 272.649 818.574 273.117 Q818.574 273.515 818.246 274.359 Q817.941 275.178 817.262 276.256 Q816.606 277.31 815.74 278.27 Q814.873 279.207 813.585 279.863 Q812.296 280.519 810.891 280.519 Q808.877 280.519 807.542 279.441 Q806.207 278.364 805.715 276.865 Q805.598 277.076 805.434 277.357 Q805.27 277.638 804.778 278.27 Q804.309 278.879 803.771 279.348 Q803.232 279.793 802.389 280.144 Q801.569 280.519 800.679 280.519 Q799.555 280.519 798.547 280.191 Q797.564 279.863 796.861 279.113 Q796.158 278.364 796.158 277.333 Q796.158 276.185 796.931 275.389 Q797.728 274.569 798.805 274.569 Q799.484 274.569 800.023 274.968 Q800.585 275.366 800.585 276.232 Q800.585 277.193 799.929 277.919 Q799.274 278.645 798.337 278.832 Q799.297 279.441 800.726 279.441 Q802.272 279.441 803.49 278.083 Q804.708 276.724 805.293 274.452 Q806.745 268.995 807.307 266.559 Q807.87 264.1 807.87 263.045 Q807.87 262.062 807.612 261.382 Q807.354 260.703 806.909 260.399 Q806.488 260.071 806.09 259.954 Q805.715 259.837 805.293 259.837 Q804.59 259.837 803.794 260.118 Q803.021 260.399 802.084 261.055 Q801.171 261.687 800.304 262.999 Q799.438 264.31 798.852 266.114 Q798.735 266.653 798.22 266.653 Q797.657 266.629 797.657 266.161 Q797.657 265.762 797.962 264.943 Q798.29 264.1 798.946 263.045 Q799.625 261.991 800.492 261.055 Q801.382 260.094 802.67 259.438 Q803.981 258.783 805.387 258.783 Q806.019 258.783 806.628 258.923 Q807.261 259.04 808.01 259.392 Q808.783 259.743 809.462 260.516 Q810.142 261.289 810.563 262.413 Q810.844 261.874 811.219 261.359 Q811.617 260.844 812.226 260.211 Q812.859 259.556 813.725 259.181 Q814.615 258.783 815.599 258.783 Q816.559 258.783 817.496 259.04 Q818.433 259.274 819.23 260.047 Q820.049 260.797 820.049 261.945 Z" fill="#000000" fill-rule="nonzero" fill-opacity="1" /><path clip-path="url(#clip840)" d="M824.928 265.628 Q824.928 265.021 824.978 264.841 Q825.043 264.66 825.306 264.382 L831.749 257.2 Q835.274 253.233 835.274 249.773 Q835.274 247.527 834.094 245.92 Q832.93 244.313 830.782 244.313 Q829.306 244.313 828.06 245.215 Q826.814 246.117 826.24 247.724 Q826.338 247.691 826.683 247.691 Q827.519 247.691 827.978 248.216 Q828.453 248.74 828.453 249.445 Q828.453 250.347 827.863 250.79 Q827.289 251.216 826.716 251.216 Q826.486 251.216 826.174 251.167 Q825.879 251.118 825.404 250.659 Q824.928 250.183 824.928 249.347 Q824.928 247.002 826.699 245.133 Q828.486 243.264 831.208 243.264 Q834.29 243.264 836.307 245.1 Q838.34 246.92 838.34 249.773 Q838.34 250.773 838.029 251.691 Q837.733 252.593 837.324 253.298 Q836.93 254.003 835.848 255.135 Q834.766 256.266 833.897 257.069 Q833.028 257.873 831.077 259.578 L827.519 263.037 L833.569 263.037 Q836.52 263.037 836.75 262.775 Q837.078 262.299 837.488 259.791 L838.34 259.791 L837.389 265.628 L824.928 265.628 Z" fill="#000000" fill-rule="nonzero" fill-opacity="1" /><path clip-path="url(#clip840)" d="M891.651 267.308 Q891.932 267.589 891.932 267.988 Q891.932 268.386 891.651 268.667 Q891.37 268.948 890.972 268.948 L860.944 268.948 Q860.546 268.948 860.265 268.667 Q859.984 268.386 859.984 267.988 Q859.984 267.589 860.265 267.308 Q860.546 267.027 860.944 267.027 L890.972 267.027 Q891.37 267.027 891.651 267.308 Z" fill="#000000" fill-rule="nonzero" fill-opacity="1" /><path clip-path="url(#clip840)" d="M910.244 273.515 Q910.244 272.087 911.064 271.407 Q911.884 270.728 912.938 270.728 Q914.038 270.728 914.811 271.454 Q915.608 272.157 915.608 273.398 Q915.608 274.733 914.671 275.483 Q913.757 276.232 912.446 276.045 Q913.593 277.966 915.701 278.832 Q917.833 279.699 919.8 279.699 Q921.862 279.699 923.525 277.919 Q925.211 276.139 925.211 271.782 Q925.211 268.081 923.759 265.95 Q922.33 263.818 919.496 263.818 L917.388 263.818 Q916.662 263.818 916.451 263.748 Q916.24 263.678 916.24 263.28 Q916.24 262.811 916.966 262.718 Q917.692 262.718 918.84 262.577 Q921.627 262.483 923.103 260.071 Q924.438 257.822 924.438 254.613 Q924.438 251.686 923.033 250.468 Q921.651 249.226 919.847 249.226 Q918.161 249.226 916.31 249.929 Q914.46 250.632 913.453 252.201 Q916.428 252.201 916.428 254.613 Q916.428 255.667 915.748 256.37 Q915.092 257.049 913.992 257.049 Q912.938 257.049 912.235 256.394 Q911.532 255.714 911.532 254.567 Q911.532 251.826 913.968 249.929 Q916.428 248.032 920.035 248.032 Q923.595 248.032 926.218 249.905 Q928.865 251.779 928.865 254.66 Q928.865 257.494 926.991 259.813 Q925.117 262.132 922.143 263.092 Q925.797 263.818 927.975 266.301 Q930.153 268.761 930.153 271.782 Q930.153 275.53 927.202 278.294 Q924.251 281.034 919.941 281.034 Q915.959 281.034 913.102 278.879 Q910.244 276.724 910.244 273.515 Z" fill="#000000" fill-rule="nonzero" fill-opacity="1" /><path clip-path="url(#clip840)" d="M554.936 296.63 L935.068 296.63 L935.068 294.07 L554.936 294.07  Z" fill="#000000" fill-rule="evenodd" fill-opacity="1"/>
<path clip-path="url(#clip840)" d="M612.267 325.597 Q612.267 326.908 611.447 327.658 Q610.627 328.384 609.69 328.384 Q608.8 328.384 608.332 327.869 Q607.863 327.353 607.863 326.697 Q607.863 325.807 608.519 325.034 Q609.175 324.262 610.159 324.098 Q609.199 323.489 607.77 323.489 Q606.833 323.489 606.013 323.98 Q605.217 324.472 604.725 325.105 Q604.256 325.737 603.835 326.651 Q603.437 327.541 603.273 328.079 Q603.132 328.595 603.015 329.157 L601.375 335.715 Q600.579 338.83 600.579 339.931 Q600.579 341.29 601.235 342.203 Q601.891 343.093 603.202 343.093 Q603.718 343.093 604.303 342.953 Q604.889 342.789 605.638 342.367 Q606.411 341.922 607.091 341.266 Q607.793 340.587 608.472 339.439 Q609.152 338.292 609.597 336.816 Q609.737 336.301 610.206 336.301 Q610.791 336.301 610.791 336.769 Q610.791 337.167 610.463 338.011 Q610.159 338.83 609.48 339.908 Q608.824 340.962 607.957 341.922 Q607.091 342.859 605.802 343.515 Q604.514 344.171 603.109 344.171 Q601.094 344.171 599.759 343.093 Q598.424 342.016 597.932 340.517 Q597.815 340.728 597.651 341.009 Q597.487 341.29 596.995 341.922 Q596.527 342.531 595.988 343 Q595.45 343.445 594.606 343.796 Q593.787 344.171 592.897 344.171 Q591.772 344.171 590.765 343.843 Q589.781 343.515 589.079 342.765 Q588.376 342.016 588.376 340.985 Q588.376 339.837 589.149 339.041 Q589.945 338.221 591.023 338.221 Q591.702 338.221 592.241 338.62 Q592.803 339.018 592.803 339.884 Q592.803 340.845 592.147 341.571 Q591.491 342.297 590.554 342.484 Q591.515 343.093 592.943 343.093 Q594.489 343.093 595.707 341.735 Q596.925 340.376 597.511 338.104 Q598.963 332.647 599.525 330.211 Q600.087 327.752 600.087 326.697 Q600.087 325.714 599.83 325.034 Q599.572 324.355 599.127 324.051 Q598.705 323.723 598.307 323.606 Q597.932 323.489 597.511 323.489 Q596.808 323.489 596.012 323.77 Q595.239 324.051 594.302 324.707 Q593.388 325.339 592.522 326.651 Q591.655 327.962 591.07 329.766 Q590.952 330.305 590.437 330.305 Q589.875 330.281 589.875 329.813 Q589.875 329.414 590.18 328.595 Q590.507 327.752 591.163 326.697 Q591.842 325.643 592.709 324.707 Q593.599 323.746 594.887 323.09 Q596.199 322.435 597.604 322.435 Q598.237 322.435 598.846 322.575 Q599.478 322.692 600.228 323.044 Q601.001 323.395 601.68 324.168 Q602.359 324.941 602.781 326.065 Q603.062 325.526 603.437 325.011 Q603.835 324.496 604.444 323.863 Q605.076 323.208 605.943 322.833 Q606.833 322.435 607.817 322.435 Q608.777 322.435 609.714 322.692 Q610.651 322.926 611.447 323.699 Q612.267 324.449 612.267 325.597 Z" fill="#000000" fill-rule="nonzero" fill-opacity="1" /><path clip-path="url(#clip840)" d="M617.146 323.851 L617.146 322.818 L627.459 307.061 Q627.721 306.652 628.131 306.668 Q628.508 306.668 628.59 306.816 Q628.672 306.963 628.672 307.537 L628.672 322.818 L632.033 322.818 L632.033 323.851 L628.672 323.851 L628.672 326.769 Q628.672 327.736 629.066 328.048 Q629.476 328.359 631.213 328.359 L631.919 328.359 L631.919 329.392 Q630.541 329.294 627.361 329.294 Q624.196 329.294 622.819 329.392 L622.819 328.359 L623.524 328.359 Q625.262 328.359 625.672 328.064 Q626.082 327.753 626.082 326.769 L626.082 323.851 L617.146 323.851 M618.097 322.818 L626.278 322.818 L626.278 310.291 L618.097 322.818 Z" fill="#000000" fill-rule="nonzero" fill-opacity="1" /><path clip-path="url(#clip840)" d="M653.302 332.225 Q652.201 332.225 652.201 331.64 Q652.201 331.054 653.349 331.054 Q653.49 331.054 653.724 331.077 Q653.982 331.101 654.028 331.101 L667.543 331.101 L667.543 317.539 Q667.543 317.492 667.52 317.282 Q667.496 317.047 667.496 316.907 Q667.496 315.759 668.058 315.759 Q668.644 315.759 668.644 316.907 L668.644 331.101 L682.182 331.101 Q682.229 331.101 682.463 331.077 Q682.697 331.054 682.838 331.054 Q683.939 331.054 683.939 331.64 Q683.962 332.225 682.791 332.225 Q682.651 332.225 682.44 332.202 Q682.229 332.178 682.182 332.178 L668.644 332.178 L668.644 346.419 Q668.644 347.52 668.058 347.52 Q667.496 347.52 667.496 346.372 Q667.496 346.232 667.52 345.998 Q667.543 345.787 667.543 345.74 L667.543 332.178 L654.028 332.178 Q653.982 332.178 653.7 332.202 Q653.443 332.225 653.302 332.225 Z" fill="#000000" fill-rule="nonzero" fill-opacity="1" /><path clip-path="url(#clip840)" d="M702.462 343.632 Q702.462 342.765 702.532 342.508 Q702.626 342.25 703 341.852 L712.205 331.593 Q717.241 325.925 717.241 320.982 Q717.241 317.774 715.555 315.478 Q713.892 313.183 710.823 313.183 Q708.715 313.183 706.935 314.471 Q705.155 315.759 704.335 318.055 Q704.476 318.008 704.968 318.008 Q706.162 318.008 706.818 318.757 Q707.497 319.507 707.497 320.514 Q707.497 321.802 706.654 322.435 Q705.834 323.044 705.015 323.044 Q704.687 323.044 704.242 322.973 Q703.82 322.903 703.141 322.247 Q702.462 321.568 702.462 320.373 Q702.462 317.024 704.991 314.354 Q707.544 311.684 711.432 311.684 Q715.836 311.684 718.717 314.307 Q721.621 316.907 721.621 320.982 Q721.621 322.411 721.176 323.723 Q720.755 325.011 720.169 326.018 Q719.607 327.025 718.061 328.642 Q716.515 330.258 715.274 331.405 Q714.032 332.553 711.245 334.989 L706.162 339.931 L714.805 339.931 Q719.021 339.931 719.349 339.556 Q719.818 338.877 720.403 335.294 L721.621 335.294 L720.263 343.632 L702.462 343.632 Z" fill="#000000" fill-rule="nonzero" fill-opacity="1" /><path clip-path="url(#clip840)" d="M743.856 329.86 Q744.606 330.609 744.606 331.64 Q744.606 332.67 743.856 333.443 Q743.107 334.193 742.076 334.193 Q741.045 334.193 740.272 333.443 Q739.523 332.67 739.523 331.64 Q739.523 330.609 740.272 329.86 Q741.045 329.087 742.076 329.087 Q743.107 329.087 743.856 329.86 Z" fill="#000000" fill-rule="nonzero" fill-opacity="1" /><path clip-path="url(#clip840)" d="M789.921 325.597 Q789.921 326.908 789.101 327.658 Q788.281 328.384 787.344 328.384 Q786.454 328.384 785.986 327.869 Q785.517 327.353 785.517 326.697 Q785.517 325.807 786.173 325.034 Q786.829 324.262 787.813 324.098 Q786.853 323.489 785.424 323.489 Q784.487 323.489 783.667 323.98 Q782.871 324.472 782.379 325.105 Q781.91 325.737 781.489 326.651 Q781.091 327.541 780.927 328.079 Q780.786 328.595 780.669 329.157 L779.029 335.715 Q778.233 338.83 778.233 339.931 Q778.233 341.29 778.889 342.203 Q779.545 343.093 780.856 343.093 Q781.372 343.093 781.957 342.953 Q782.543 342.789 783.292 342.367 Q784.065 341.922 784.745 341.266 Q785.447 340.587 786.126 339.439 Q786.806 338.292 787.251 336.816 Q787.391 336.301 787.86 336.301 Q788.445 336.301 788.445 336.769 Q788.445 337.167 788.117 338.011 Q787.813 338.83 787.134 339.908 Q786.478 340.962 785.611 341.922 Q784.745 342.859 783.456 343.515 Q782.168 344.171 780.763 344.171 Q778.748 344.171 777.413 343.093 Q776.078 342.016 775.586 340.517 Q775.469 340.728 775.305 341.009 Q775.141 341.29 774.649 341.922 Q774.181 342.531 773.642 343 Q773.104 343.445 772.26 343.796 Q771.441 344.171 770.551 344.171 Q769.426 344.171 768.419 343.843 Q767.435 343.515 766.733 342.765 Q766.03 342.016 766.03 340.985 Q766.03 339.837 766.803 339.041 Q767.599 338.221 768.677 338.221 Q769.356 338.221 769.895 338.62 Q770.457 339.018 770.457 339.884 Q770.457 340.845 769.801 341.571 Q769.145 342.297 768.208 342.484 Q769.169 343.093 770.597 343.093 Q772.143 343.093 773.361 341.735 Q774.579 340.376 775.165 338.104 Q776.617 332.647 777.179 330.211 Q777.741 327.752 777.741 326.697 Q777.741 325.714 777.484 325.034 Q777.226 324.355 776.781 324.051 Q776.359 323.723 775.961 323.606 Q775.586 323.489 775.165 323.489 Q774.462 323.489 773.666 323.77 Q772.893 324.051 771.956 324.707 Q771.042 325.339 770.176 326.651 Q769.309 327.962 768.724 329.766 Q768.606 330.305 768.091 330.305 Q767.529 330.281 767.529 329.813 Q767.529 329.414 767.834 328.595 Q768.161 327.752 768.817 326.697 Q769.497 325.643 770.363 324.707 Q771.253 323.746 772.541 323.09 Q773.853 322.435 775.258 322.435 Q775.891 322.435 776.5 322.575 Q777.132 322.692 777.882 323.044 Q778.655 323.395 779.334 324.168 Q780.013 324.941 780.435 326.065 Q780.716 325.526 781.091 325.011 Q781.489 324.496 782.098 323.863 Q782.73 323.208 783.597 322.833 Q784.487 322.435 785.471 322.435 Q786.431 322.435 787.368 322.692 Q788.305 322.926 789.101 323.699 Q789.921 324.449 789.921 325.597 Z" fill="#000000" fill-rule="nonzero" fill-opacity="1" /><path clip-path="url(#clip840)" d="M794.8 329.28 Q794.8 328.673 794.849 328.493 Q794.915 328.312 795.177 328.034 L801.621 320.852 Q805.146 316.885 805.146 313.425 Q805.146 311.179 803.965 309.572 Q802.801 307.965 800.653 307.965 Q799.178 307.965 797.932 308.867 Q796.685 309.769 796.112 311.376 Q796.21 311.343 796.554 311.343 Q797.391 311.343 797.85 311.868 Q798.325 312.392 798.325 313.097 Q798.325 313.999 797.735 314.442 Q797.161 314.868 796.587 314.868 Q796.358 314.868 796.046 314.819 Q795.751 314.77 795.275 314.311 Q794.8 313.835 794.8 312.999 Q794.8 310.654 796.571 308.785 Q798.358 306.916 801.08 306.916 Q804.162 306.916 806.179 308.752 Q808.212 310.572 808.212 313.425 Q808.212 314.425 807.9 315.343 Q807.605 316.245 807.195 316.95 Q806.802 317.655 805.72 318.787 Q804.637 319.918 803.768 320.721 Q802.899 321.525 800.948 323.23 L797.391 326.689 L803.441 326.689 Q806.392 326.689 806.621 326.427 Q806.949 325.951 807.359 323.443 L808.212 323.443 L807.261 329.28 L794.8 329.28 Z" fill="#000000" fill-rule="nonzero" fill-opacity="1" /><path clip-path="url(#clip840)" d="M830.956 332.225 Q829.855 332.225 829.855 331.64 Q829.855 331.054 831.003 331.054 Q831.144 331.054 831.378 331.077 Q831.636 331.101 831.682 331.101 L845.197 331.101 L845.197 317.539 Q845.197 317.492 845.174 317.282 Q845.15 317.047 845.15 316.907 Q845.15 315.759 845.712 315.759 Q846.298 315.759 846.298 316.907 L846.298 331.101 L859.836 331.101 Q859.883 331.101 860.117 331.077 Q860.351 331.054 860.492 331.054 Q861.593 331.054 861.593 331.64 Q861.616 332.225 860.445 332.225 Q860.305 332.225 860.094 332.202 Q859.883 332.178 859.836 332.178 L846.298 332.178 L846.298 346.419 Q846.298 347.52 845.712 347.52 Q845.15 347.52 845.15 346.372 Q845.15 346.232 845.174 345.998 Q845.197 345.787 845.197 345.74 L845.197 332.178 L831.682 332.178 Q831.636 332.178 831.354 332.202 Q831.097 332.225 830.956 332.225 Z" fill="#000000" fill-rule="nonzero" fill-opacity="1" /><path clip-path="url(#clip840)" d="M880.116 316.251 L880.116 314.752 Q885.878 314.752 888.852 311.684 Q889.672 311.684 889.812 311.871 Q889.953 312.058 889.953 312.925 L889.953 339.837 Q889.953 341.266 890.656 341.711 Q891.358 342.156 894.427 342.156 L895.949 342.156 L895.949 343.632 Q894.263 343.491 888.173 343.491 Q882.083 343.491 880.42 343.632 L880.42 342.156 L881.943 342.156 Q884.964 342.156 885.69 341.735 Q886.416 341.29 886.416 339.837 L886.416 314.986 Q883.91 316.251 880.116 316.251 Z" fill="#000000" fill-rule="nonzero" fill-opacity="1" /></svg>
