<?xml version="1.0" encoding="utf-8"?>
<svg xmlns="http://www.w3.org/2000/svg" xmlns:xlink="http://www.w3.org/1999/xlink" width="528" height="336" viewBox="0 0 2112 1344">
<defs>
  <clipPath id="clip690">
    <rect x="0" y="0" width="2112" height="1344"/>
  </clipPath>
</defs>
<path clip-path="url(#clip690)" d="M0 1344 L2112 1344 L2112 0 L0 0  Z" fill="#ffffff" fill-rule="evenodd" fill-opacity="1"/>
<defs>
  <clipPath id="clip691">
    <rect x="422" y="0" width="1479" height="1344"/>
  </clipPath>
</defs>
<path clip-path="url(#clip690)" d="M313.12 1234.58 L1896.23 1234.58 L1896.23 47.2441 L313.12 47.2441  Z" fill="#ffffff" fill-rule="evenodd" fill-opacity="1"/>
<defs>
  <clipPath id="clip692">
    <rect x="313" y="47" width="1584" height="1188"/>
  </clipPath>
</defs>
<polyline clip-path="url(#clip692)" style="stroke:#000000; stroke-linecap:round; stroke-linejoin:round; stroke-width:2; stroke-opacity:0.1; fill:none" points="313.12,1234.58 313.12,47.2441 "/>
<polyline clip-path="url(#clip692)" style="stroke:#000000; stroke-linecap:round; stroke-linejoin:round; stroke-width:2; stroke-opacity:0.1; fill:none" points="708.899,1234.58 708.899,47.2441 "/>
<polyline clip-path="url(#clip692)" style="stroke:#000000; stroke-linecap:round; stroke-linejoin:round; stroke-width:2; stroke-opacity:0.1; fill:none" points="1104.68,1234.58 1104.68,47.2441 "/>
<polyline clip-path="url(#clip692)" style="stroke:#000000; stroke-linecap:round; stroke-linejoin:round; stroke-width:2; stroke-opacity:0.1; fill:none" points="1500.46,1234.58 1500.46,47.2441 "/>
<polyline clip-path="url(#clip692)" style="stroke:#000000; stroke-linecap:round; stroke-linejoin:round; stroke-width:2; stroke-opacity:0.1; fill:none" points="1896.23,1234.58 1896.23,47.2441 "/>
<polyline clip-path="url(#clip690)" style="stroke:#000000; stroke-linecap:round; stroke-linejoin:round; stroke-width:4; stroke-opacity:1; fill:none" points="313.12,1234.58 1896.23,1234.58 "/>
<polyline clip-path="url(#clip690)" style="stroke:#000000; stroke-linecap:round; stroke-linejoin:round; stroke-width:4; stroke-opacity:1; fill:none" points="313.12,1234.58 313.12,1215.68 "/>
<polyline clip-path="url(#clip690)" style="stroke:#000000; stroke-linecap:round; stroke-linejoin:round; stroke-width:4; stroke-opacity:1; fill:none" points="708.899,1234.58 708.899,1215.68 "/>
<polyline clip-path="url(#clip690)" style="stroke:#000000; stroke-linecap:round; stroke-linejoin:round; stroke-width:4; stroke-opacity:1; fill:none" points="1104.68,1234.58 1104.68,1215.68 "/>
<polyline clip-path="url(#clip690)" style="stroke:#000000; stroke-linecap:round; stroke-linejoin:round; stroke-width:4; stroke-opacity:1; fill:none" points="1500.46,1234.58 1500.46,1215.68 "/>
<polyline clip-path="url(#clip690)" style="stroke:#000000; stroke-linecap:round; stroke-linejoin:round; stroke-width:4; stroke-opacity:1; fill:none" points="1896.23,1234.58 1896.23,1215.68 "/>
<path clip-path="url(#clip690)" d="M282.878 1277.85 L312.553 1277.85 L312.553 1281.78 L282.878 1281.78 L282.878 1277.85 Z" fill="#000000" fill-rule="nonzero" fill-opacity="1" /><path clip-path="url(#clip690)" d="M323.456 1290.74 L331.095 1290.74 L331.095 1264.37 L322.785 1266.04 L322.785 1261.78 L331.049 1260.11 L335.724 1260.11 L335.724 1290.74 L343.363 1290.74 L343.363 1294.67 L323.456 1294.67 L323.456 1290.74 Z" fill="#000000" fill-rule="nonzero" fill-opacity="1" /><path clip-path="url(#clip690)" d="M708.899 1263.19 Q705.288 1263.19 703.459 1266.76 Q701.653 1270.3 701.653 1277.43 Q701.653 1284.54 703.459 1288.1 Q705.288 1291.64 708.899 1291.64 Q712.533 1291.64 714.338 1288.1 Q716.167 1284.54 716.167 1277.43 Q716.167 1270.3 714.338 1266.76 Q712.533 1263.19 708.899 1263.19 M708.899 1259.49 Q714.709 1259.49 717.764 1264.1 Q720.843 1268.68 720.843 1277.43 Q720.843 1286.16 717.764 1290.76 Q714.709 1295.35 708.899 1295.35 Q703.089 1295.35 700.01 1290.76 Q696.954 1286.16 696.954 1277.43 Q696.954 1268.68 700.01 1264.1 Q703.089 1259.49 708.899 1259.49 Z" fill="#000000" fill-rule="nonzero" fill-opacity="1" /><path clip-path="url(#clip690)" d="M1095.06 1290.74 L1102.7 1290.74 L1102.7 1264.37 L1094.39 1266.04 L1094.39 1261.78 L1102.65 1260.11 L1107.33 1260.11 L1107.33 1290.74 L1114.97 1290.74 L1114.97 1294.67 L1095.06 1294.67 L1095.06 1290.74 Z" fill="#000000" fill-rule="nonzero" fill-opacity="1" /><path clip-path="url(#clip690)" d="M1495.11 1290.74 L1511.43 1290.74 L1511.43 1294.67 L1489.48 1294.67 L1489.48 1290.74 Q1492.14 1287.99 1496.73 1283.36 Q1501.33 1278.7 1502.52 1277.36 Q1504.76 1274.84 1505.64 1273.1 Q1506.54 1271.34 1506.54 1269.65 Q1506.54 1266.9 1504.6 1265.16 Q1502.68 1263.42 1499.58 1263.42 Q1497.38 1263.42 1494.92 1264.19 Q1492.49 1264.95 1489.71 1266.5 L1489.71 1261.78 Q1492.54 1260.65 1494.99 1260.07 Q1497.45 1259.49 1499.48 1259.49 Q1504.85 1259.49 1508.05 1262.17 Q1511.24 1264.86 1511.24 1269.35 Q1511.24 1271.48 1510.43 1273.4 Q1509.64 1275.3 1507.54 1277.89 Q1506.96 1278.56 1503.86 1281.78 Q1500.76 1284.98 1495.11 1290.74 Z" fill="#000000" fill-rule="nonzero" fill-opacity="1" /><path clip-path="url(#clip690)" d="M1900.48 1276.04 Q1903.84 1276.76 1905.71 1279.03 Q1907.61 1281.3 1907.61 1284.63 Q1907.61 1289.74 1904.09 1292.55 Q1900.57 1295.35 1894.09 1295.35 Q1891.92 1295.35 1889.6 1294.91 Q1887.31 1294.49 1884.86 1293.63 L1884.86 1289.12 Q1886.8 1290.25 1889.12 1290.83 Q1891.43 1291.41 1893.95 1291.41 Q1898.35 1291.41 1900.64 1289.67 Q1902.96 1287.94 1902.96 1284.63 Q1902.96 1281.57 1900.81 1279.86 Q1898.68 1278.12 1894.86 1278.12 L1890.83 1278.12 L1890.83 1274.28 L1895.04 1274.28 Q1898.49 1274.28 1900.32 1272.92 Q1902.15 1271.53 1902.15 1268.93 Q1902.15 1266.27 1900.25 1264.86 Q1898.37 1263.42 1894.86 1263.42 Q1892.93 1263.42 1890.74 1263.84 Q1888.54 1264.26 1885.9 1265.14 L1885.9 1260.97 Q1888.56 1260.23 1890.87 1259.86 Q1893.21 1259.49 1895.27 1259.49 Q1900.6 1259.49 1903.7 1261.92 Q1906.8 1264.33 1906.8 1268.45 Q1906.8 1271.32 1905.16 1273.31 Q1903.51 1275.28 1900.48 1276.04 Z" fill="#000000" fill-rule="nonzero" fill-opacity="1" /><polyline clip-path="url(#clip692)" style="stroke:#000000; stroke-linecap:round; stroke-linejoin:round; stroke-width:2; stroke-opacity:0.1; fill:none" points="313.12,1234.58 1896.23,1234.58 "/>
<polyline clip-path="url(#clip692)" style="stroke:#000000; stroke-linecap:round; stroke-linejoin:round; stroke-width:2; stroke-opacity:0.1; fill:none" points="313.12,838.801 1896.23,838.801 "/>
<polyline clip-path="url(#clip692)" style="stroke:#000000; stroke-linecap:round; stroke-linejoin:round; stroke-width:2; stroke-opacity:0.1; fill:none" points="313.12,443.022 1896.23,443.022 "/>
<polyline clip-path="url(#clip692)" style="stroke:#000000; stroke-linecap:round; stroke-linejoin:round; stroke-width:2; stroke-opacity:0.1; fill:none" points="313.12,47.2441 1896.23,47.2441 "/>
<polyline clip-path="url(#clip690)" style="stroke:#000000; stroke-linecap:round; stroke-linejoin:round; stroke-width:4; stroke-opacity:1; fill:none" points="313.12,1234.58 313.12,47.2441 "/>
<polyline clip-path="url(#clip690)" style="stroke:#000000; stroke-linecap:round; stroke-linejoin:round; stroke-width:4; stroke-opacity:1; fill:none" points="313.12,1234.58 328.701,1234.58 "/>
<polyline clip-path="url(#clip690)" style="stroke:#000000; stroke-linecap:round; stroke-linejoin:round; stroke-width:4; stroke-opacity:1; fill:none" points="313.12,838.801 328.701,838.801 "/>
<polyline clip-path="url(#clip690)" style="stroke:#000000; stroke-linecap:round; stroke-linejoin:round; stroke-width:4; stroke-opacity:1; fill:none" points="313.12,443.022 328.701,443.022 "/>
<polyline clip-path="url(#clip690)" style="stroke:#000000; stroke-linecap:round; stroke-linejoin:round; stroke-width:4; stroke-opacity:1; fill:none" points="313.12,47.2441 328.701,47.2441 "/>
<path clip-path="url(#clip690)" d="M220.955 1235.03 L250.63 1235.03 L250.63 1238.97 L220.955 1238.97 L220.955 1235.03 Z" fill="#000000" fill-rule="nonzero" fill-opacity="1" /><path clip-path="url(#clip690)" d="M261.533 1247.92 L269.172 1247.92 L269.172 1221.56 L260.862 1223.22 L260.862 1218.97 L269.126 1217.3 L273.802 1217.3 L273.802 1247.92 L281.44 1247.92 L281.44 1251.86 L261.533 1251.86 L261.533 1247.92 Z" fill="#000000" fill-rule="nonzero" fill-opacity="1" /><path clip-path="url(#clip690)" d="M269.496 824.599 Q265.885 824.599 264.056 828.164 Q262.251 831.706 262.251 838.835 Q262.251 845.942 264.056 849.507 Q265.885 853.048 269.496 853.048 Q273.13 853.048 274.936 849.507 Q276.765 845.942 276.765 838.835 Q276.765 831.706 274.936 828.164 Q273.13 824.599 269.496 824.599 M269.496 820.896 Q275.306 820.896 278.362 825.502 Q281.44 830.085 281.44 838.835 Q281.44 847.562 278.362 852.169 Q275.306 856.752 269.496 856.752 Q263.686 856.752 260.607 852.169 Q257.552 847.562 257.552 838.835 Q257.552 830.085 260.607 825.502 Q263.686 820.896 269.496 820.896 Z" fill="#000000" fill-rule="nonzero" fill-opacity="1" /><path clip-path="url(#clip690)" d="M261.533 456.367 L269.172 456.367 L269.172 430.002 L260.862 431.668 L260.862 427.409 L269.126 425.742 L273.802 425.742 L273.802 456.367 L281.44 456.367 L281.44 460.302 L261.533 460.302 L261.533 456.367 Z" fill="#000000" fill-rule="nonzero" fill-opacity="1" /><path clip-path="url(#clip690)" d="M265.121 60.5889 L281.44 60.5889 L281.44 64.5241 L259.496 64.5241 L259.496 60.5889 Q262.158 57.8343 266.741 53.2047 Q271.348 48.552 272.528 47.2094 Q274.774 44.6862 275.653 42.9501 Q276.556 41.1909 276.556 39.5011 Q276.556 36.7465 274.612 35.0104 Q272.69 33.2743 269.589 33.2743 Q267.39 33.2743 264.936 34.0381 Q262.505 34.802 259.728 36.3529 L259.728 31.6308 Q262.552 30.4965 265.005 29.9178 Q267.459 29.3391 269.496 29.3391 Q274.866 29.3391 278.061 32.0243 Q281.255 34.7094 281.255 39.2002 Q281.255 41.3298 280.445 43.2511 Q279.658 45.1492 277.552 47.7418 Q276.973 48.4131 273.871 51.6306 Q270.769 54.8251 265.121 60.5889 Z" fill="#000000" fill-rule="nonzero" fill-opacity="1" /><polyline clip-path="url(#clip692)" style="stroke:#009af9; stroke-linecap:round; stroke-linejoin:round; stroke-width:4; stroke-opacity:1; fill:none" points="313.201,2520.87 313.281,2383.71 313.362,2303.47 313.443,2246.54 313.523,2202.38 313.604,2166.3 313.684,2135.8 313.765,2109.37 313.845,2086.06 313.926,2065.21 314.006,2046.35 314.087,2029.14 314.248,1998.63 314.409,1972.21 314.57,1948.9 314.731,1928.05 314.892,1909.19 315.053,1891.97 315.214,1876.13 315.375,1861.46 315.536,1847.81 315.697,1835.04 316.019,1811.73 316.341,1790.88 316.663,1772.02 316.986,1754.8 317.308,1738.96 317.63,1724.3 317.952,1710.65 318.274,1697.87 318.918,1674.57 319.562,1653.72 320.206,1634.86 320.851,1617.64 321.495,1601.8 322.139,1587.13 322.461,1580.19 322.783,1573.48 323.105,1566.99 323.427,1560.71 324.916,1534 326.406,1510.48 327.895,1489.45 329.384,1470.45 330.873,1453.11 332.362,1437.17 333.851,1422.42 335.34,1408.7 338.318,1383.81 341.297,1361.7 344.275,1341.81 347.253,1323.75 350.231,1307.19 353.209,1291.92 356.188,1277.74 359.166,1264.51 365.122,1240.43 371.079,1218.97 377.035,1199.61 382.991,1181.98 388.948,1165.79 394.904,1150.83 406.817,1123.92 418.73,1100.23 425.889,1087.25 433.048,1075.07 440.207,1063.6 447.366,1052.75 461.684,1032.7 476.003,1014.49 488.108,1000.31 500.214,987.068 512.32,974.661 524.426,962.986 550.727,939.771 577.027,918.997 601.274,901.602 625.521,885.615 651.517,869.797 677.512,855.151 707.63,839.436 737.748,824.877 791.279,801.382 838.22,782.85 889.399,764.446 940.883,747.513 997.804,730.337 1051.96,715.272 1108.28,700.737 1155.68,689.278 1213.55,676.131 1266.57,664.81 1315.53,654.9 1365.13,645.343 1420.72,635.153 1471.09,626.352 1528.77,616.734 1582.16,608.227 1634.81,600.184 1685.92,592.675 1738.32,585.262 1795.73,577.447 1879.12,566.618 1896.23,564.468 "/>
<polyline clip-path="url(#clip692)" style="stroke:#e26f46; stroke-linecap:round; stroke-linejoin:round; stroke-width:4; stroke-opacity:1; fill:none" points="313.12,899.523 323.427,896.947 418.73,873.121 476.003,858.803 524.426,846.697 577.027,833.547 625.521,821.423 677.512,808.426 737.748,793.367 791.279,779.984 838.22,768.248 889.399,755.454 940.883,742.583 997.804,728.353 1051.96,714.813 1108.28,700.735 1155.68,688.884 1213.55,674.415 1266.57,661.161 1315.53,648.92 1365.13,636.52 1420.72,622.623 1471.09,610.03 1528.77,595.612 1582.16,582.263 1634.81,569.101 1685.92,556.323 1738.32,543.223 1795.73,528.871 1879.12,508.022 1896.23,503.745 "/>
<polyline clip-path="url(#clip692)" style="stroke:#3da44d; stroke-linecap:round; stroke-linejoin:round; stroke-width:4; stroke-opacity:1; fill:none" points="313.12,-2464.59 323.427,-2423.36 418.73,-2042.15 476.003,-1813.06 524.426,-1619.37 577.027,-1408.96 625.521,-1214.99 677.512,-1007.03 737.748,-766.082 791.279,-551.959 838.22,-364.192 889.399,-159.476 940.883,46.4568 997.804,274.142 1051.96,490.778 1108.28,716.03 1155.68,905.644 1213.55,1137.14 1266.57,1349.21 1315.53,1545.07 1365.13,1743.47 1420.72,1965.82 1471.09,2167.3 1528.77,2397.99 1582.16,2611.58 1634.81,2822.16 1685.92,3026.62 1738.32,3236.21 1795.73,3465.84 1879.12,3799.43 1896.23,3867.86 "/>
<path clip-path="url(#clip690)" d="M809.632 393.812 L1832.23 393.812 L1832.23 86.8219 L809.632 86.8219  Z" fill="#ffffff" fill-rule="evenodd" fill-opacity="1"/>
<polyline clip-path="url(#clip690)" style="stroke:#000000; stroke-linecap:round; stroke-linejoin:round; stroke-width:4; stroke-opacity:1; fill:none" points="809.632,393.812 1832.23,393.812 1832.23,86.8219 809.632,86.8219 809.632,393.812 "/>
<polyline clip-path="url(#clip690)" style="stroke:#009af9; stroke-linecap:round; stroke-linejoin:round; stroke-width:4; stroke-opacity:1; fill:none" points="830.967,163.569 958.978,163.569 "/>
<path clip-path="url(#clip690)" d="M1004.23 149.571 Q1004.23 150.859 1003.41 151.655 Q1002.61 152.452 1001.6 152.452 Q1000.88 152.452 1000.34 152.007 Q999.824 151.562 999.824 150.789 Q999.824 149.992 1000.43 149.149 Q1001.04 148.306 1002.42 148.189 Q1001.51 147.322 1000.06 147.322 Q999.332 147.322 998.723 147.791 Q998.137 148.236 997.809 148.962 Q997.458 149.711 996.662 153.951 Q996.404 155.333 996.17 156.668 Q995.935 158.003 995.654 159.408 L999.636 159.408 Q1000.15 159.408 1000.36 159.432 Q1000.57 159.455 1000.74 159.572 Q1000.92 159.689 1000.92 159.947 Q1000.92 160.603 1000.62 160.767 Q1000.34 160.907 999.496 160.907 L995.373 160.907 L992.492 176.108 Q992.422 176.553 992.118 177.959 Q991.837 179.341 991.157 181.613 Q990.478 183.908 989.799 185.267 Q989.424 186.04 988.932 186.766 Q988.464 187.515 987.784 188.265 Q987.105 189.014 986.215 189.459 Q985.325 189.928 984.388 189.928 Q982.795 189.928 981.554 189.038 Q980.313 188.148 980.313 186.625 Q980.313 185.337 981.109 184.541 Q981.929 183.744 982.936 183.744 Q983.662 183.744 984.177 184.189 Q984.716 184.634 984.716 185.407 Q984.716 185.735 984.599 186.11 Q984.482 186.485 984.224 186.906 Q983.967 187.351 983.404 187.656 Q982.842 187.96 982.069 188.007 Q982.983 188.874 984.388 188.874 Q984.833 188.874 985.231 188.686 Q985.63 188.522 985.958 188.101 Q986.309 187.679 986.567 187.258 Q986.824 186.859 987.082 186.086 Q987.339 185.337 987.503 184.775 Q987.667 184.213 987.878 183.205 Q988.112 182.198 988.229 181.589 Q988.347 181.004 988.557 179.856 L992.141 160.907 L988.979 160.907 Q988.417 160.907 988.183 160.884 Q987.972 160.86 987.808 160.743 Q987.644 160.603 987.644 160.322 Q987.644 159.877 987.831 159.689 Q988.042 159.478 988.276 159.455 Q988.511 159.408 989.073 159.408 L992.399 159.408 Q993.523 153.482 993.968 151.89 Q994.483 150.203 995.28 149.032 Q996.076 147.838 996.966 147.275 Q997.856 146.713 998.582 146.502 Q999.332 146.268 1000.06 146.268 Q1001.7 146.268 1002.96 147.158 Q1004.23 148.025 1004.23 149.571 Z" fill="#000000" fill-rule="nonzero" fill-opacity="1" /><path clip-path="url(#clip690)" d="M1010.68 168.098 Q1010.68 159.994 1013.7 153.459 Q1014.99 150.718 1016.8 148.423 Q1018.6 146.128 1019.79 145.121 Q1020.99 144.113 1021.32 144.113 Q1021.78 144.113 1021.81 144.582 Q1021.81 144.816 1021.18 145.402 Q1013.45 153.272 1013.47 168.098 Q1013.47 182.971 1020.99 190.537 Q1021.81 191.356 1021.81 191.614 Q1021.81 192.083 1021.32 192.083 Q1020.99 192.083 1019.84 191.122 Q1018.69 190.162 1016.91 187.96 Q1015.13 185.758 1013.84 183.065 Q1010.68 176.53 1010.68 168.098 Z" fill="#000000" fill-rule="nonzero" fill-opacity="1" /><path clip-path="url(#clip690)" d="M1049.34 162.055 Q1049.34 163.367 1048.52 164.116 Q1047.7 164.842 1046.77 164.842 Q1045.88 164.842 1045.41 164.327 Q1044.94 163.812 1044.94 163.156 Q1044.94 162.266 1045.6 161.493 Q1046.25 160.72 1047.24 160.556 Q1046.28 159.947 1044.85 159.947 Q1043.91 159.947 1043.09 160.439 Q1042.29 160.931 1041.8 161.563 Q1041.33 162.195 1040.91 163.109 Q1040.51 163.999 1040.35 164.538 Q1040.21 165.053 1040.09 165.615 L1038.45 172.173 Q1037.66 175.289 1037.66 176.389 Q1037.66 177.748 1038.31 178.661 Q1038.97 179.552 1040.28 179.552 Q1040.79 179.552 1041.38 179.411 Q1041.97 179.247 1042.71 178.825 Q1043.49 178.38 1044.17 177.725 Q1044.87 177.045 1045.55 175.898 Q1046.23 174.75 1046.67 173.274 Q1046.81 172.759 1047.28 172.759 Q1047.87 172.759 1047.87 173.227 Q1047.87 173.626 1047.54 174.469 Q1047.24 175.289 1046.56 176.366 Q1045.9 177.42 1045.03 178.38 Q1044.17 179.317 1042.88 179.973 Q1041.59 180.629 1040.19 180.629 Q1038.17 180.629 1036.84 179.552 Q1035.5 178.474 1035.01 176.975 Q1034.89 177.186 1034.73 177.467 Q1034.56 177.748 1034.07 178.38 Q1033.6 178.989 1033.06 179.458 Q1032.53 179.903 1031.68 180.254 Q1030.86 180.629 1029.97 180.629 Q1028.85 180.629 1027.84 180.301 Q1026.86 179.973 1026.16 179.224 Q1025.45 178.474 1025.45 177.443 Q1025.45 176.296 1026.23 175.499 Q1027.02 174.68 1028.1 174.68 Q1028.78 174.68 1029.32 175.078 Q1029.88 175.476 1029.88 176.343 Q1029.88 177.303 1029.22 178.029 Q1028.57 178.755 1027.63 178.943 Q1028.59 179.552 1030.02 179.552 Q1031.57 179.552 1032.78 178.193 Q1034 176.835 1034.59 174.563 Q1036.04 169.105 1036.6 166.669 Q1037.16 164.21 1037.16 163.156 Q1037.16 162.172 1036.91 161.493 Q1036.65 160.814 1036.2 160.509 Q1035.78 160.181 1035.38 160.064 Q1035.01 159.947 1034.59 159.947 Q1033.88 159.947 1033.09 160.228 Q1032.32 160.509 1031.38 161.165 Q1030.47 161.797 1029.6 163.109 Q1028.73 164.421 1028.15 166.224 Q1028.03 166.763 1027.51 166.763 Q1026.95 166.739 1026.95 166.271 Q1026.95 165.873 1027.26 165.053 Q1027.58 164.21 1028.24 163.156 Q1028.92 162.102 1029.79 161.165 Q1030.68 160.205 1031.96 159.549 Q1033.28 158.893 1034.68 158.893 Q1035.31 158.893 1035.92 159.033 Q1036.55 159.151 1037.3 159.502 Q1038.08 159.853 1038.76 160.626 Q1039.44 161.399 1039.86 162.523 Q1040.14 161.985 1040.51 161.469 Q1040.91 160.954 1041.52 160.322 Q1042.15 159.666 1043.02 159.291 Q1043.91 158.893 1044.89 158.893 Q1045.85 158.893 1046.79 159.151 Q1047.73 159.385 1048.52 160.158 Q1049.34 160.907 1049.34 162.055 Z" fill="#000000" fill-rule="nonzero" fill-opacity="1" /><path clip-path="url(#clip690)" d="M1053.96 191.614 Q1053.96 191.38 1054.57 190.794 Q1062.3 182.924 1062.3 168.098 Q1062.3 153.225 1054.87 145.706 Q1053.96 144.839 1053.96 144.582 Q1053.96 144.113 1054.43 144.113 Q1054.76 144.113 1055.9 145.074 Q1057.07 146.034 1058.83 148.236 Q1060.61 150.437 1061.92 153.131 Q1065.09 159.666 1065.09 168.098 Q1065.09 176.202 1062.06 182.737 Q1060.78 185.477 1058.97 187.773 Q1057.17 190.068 1055.97 191.075 Q1054.78 192.083 1054.43 192.083 Q1053.96 192.083 1053.96 191.614 Z" fill="#000000" fill-rule="nonzero" fill-opacity="1" /><path clip-path="url(#clip690)" d="M1085.69 172.806 Q1085.73 172.22 1086.65 172.22 L1116.04 172.22 Q1117.42 172.22 1117.45 172.759 Q1117.45 173.345 1116.14 173.321 L1086.97 173.321 Q1085.69 173.345 1085.69 172.806 M1085.69 163.437 Q1085.69 162.851 1086.69 162.875 L1115.99 162.875 Q1117.42 162.875 1117.45 163.437 Q1117.45 163.976 1116.23 163.976 L1086.65 163.976 Q1085.69 163.976 1085.69 163.437 Z" fill="#000000" fill-rule="nonzero" fill-opacity="1" /><path clip-path="url(#clip690)" d="M1135.95 180.09 L1135.95 178.615 Q1138.5 178.615 1139.08 178.31 Q1139.67 177.982 1139.67 176.436 L1139.67 151.491 Q1139.67 149.711 1139.04 149.266 Q1138.43 148.821 1135.95 148.821 L1135.95 147.322 L1142.83 146.807 L1142.83 176.436 Q1142.83 177.982 1143.44 178.31 Q1144.05 178.615 1146.58 178.615 L1146.58 180.09 Q1145.99 180.09 1144.78 180.043 Q1143.56 179.997 1142.67 179.973 Q1141.78 179.95 1141.26 179.95 Q1140.7 179.95 1135.95 180.09 Z" fill="#000000" fill-rule="nonzero" fill-opacity="1" /><path clip-path="url(#clip690)" d="M1149.48 180.09 L1149.48 178.615 Q1152.04 178.615 1152.62 178.31 Q1153.21 177.982 1153.21 176.436 L1153.21 163.577 Q1153.21 161.797 1152.57 161.352 Q1151.97 160.907 1149.48 160.907 L1149.48 159.408 L1156.23 158.893 L1156.23 163.929 Q1158.48 158.893 1163.33 158.893 Q1166.93 158.893 1168.36 160.673 Q1169.41 161.868 1169.63 163.203 Q1169.86 164.538 1169.86 168.004 L1169.86 177.162 Q1169.91 178.17 1170.68 178.404 Q1171.45 178.615 1173.61 178.615 L1173.61 180.09 Q1168.71 179.95 1168.22 179.95 Q1167.85 179.95 1162.81 180.09 L1162.81 178.615 Q1165.36 178.615 1165.95 178.31 Q1166.56 177.982 1166.56 176.436 L1166.56 165.264 Q1166.56 162.828 1165.81 161.399 Q1165.06 159.947 1163 159.947 Q1160.51 159.947 1158.52 162.032 Q1156.53 164.116 1156.53 167.629 L1156.53 176.436 Q1156.53 177.982 1157.12 178.31 Q1157.73 178.615 1160.26 178.615 L1160.26 180.09 Q1155.36 179.95 1154.89 179.95 Q1154.52 179.95 1149.48 180.09 Z" fill="#000000" fill-rule="nonzero" fill-opacity="1" /><path clip-path="url(#clip690)" d="M1175.83 168.098 Q1175.83 159.994 1178.85 153.459 Q1180.14 150.718 1181.95 148.423 Q1183.75 146.128 1184.94 145.121 Q1186.14 144.113 1186.47 144.113 Q1186.94 144.113 1186.96 144.582 Q1186.96 144.816 1186.33 145.402 Q1178.6 153.272 1178.62 168.098 Q1178.62 182.971 1186.14 190.537 Q1186.96 191.356 1186.96 191.614 Q1186.96 192.083 1186.47 192.083 Q1186.14 192.083 1184.99 191.122 Q1183.84 190.162 1182.06 187.96 Q1180.28 185.758 1179 183.065 Q1175.83 176.53 1175.83 168.098 Z" fill="#000000" fill-rule="nonzero" fill-opacity="1" /><path clip-path="url(#clip690)" d="M1194.25 169.988 L1200.95 159.659 L1203.67 173.364 L1204.18 175.861 Q1204.3 175.208 1204.64 174.102 Q1205.01 172.967 1205.06 172.683 L1214.06 138.151 Q1214.11 137.924 1214.2 137.556 Q1214.31 137.158 1214.37 137.016 Q1214.43 136.875 1214.51 136.591 Q1214.6 136.307 1214.65 136.222 Q1214.71 136.108 1214.79 135.91 Q1214.88 135.711 1214.99 135.654 Q1215.11 135.598 1215.25 135.484 Q1215.39 135.371 1215.56 135.342 Q1215.76 135.314 1215.96 135.286 Q1216.16 135.257 1216.44 135.257 L1221.52 135.257 Q1223.31 135.257 1223.31 136.421 Q1223.31 137.584 1221.58 137.584 L1216.61 137.584 L1204.89 182.387 Q1204.72 183.04 1204.58 183.295 Q1204.47 183.55 1204.07 183.777 Q1203.67 184.004 1202.96 184.004 L1202.39 184.004 L1198.68 165.533 L1195.19 170.924 L1194.25 169.988 Z" fill="#000000" fill-rule="nonzero" fill-opacity="1" /><path clip-path="url(#clip690)" d="M1221.4 137.583 L1338.05 137.583 L1338.05 135.169 L1221.4 135.169  Z" fill="#000000" fill-rule="evenodd" fill-opacity="1"/>
<path clip-path="url(#clip690)" d="M1250.41 161.747 Q1250.41 163.058 1249.59 163.808 Q1248.77 164.534 1247.83 164.534 Q1246.94 164.534 1246.48 164.018 Q1246.01 163.503 1246.01 162.847 Q1246.01 161.957 1246.66 161.184 Q1247.32 160.411 1248.3 160.247 Q1247.34 159.638 1245.91 159.638 Q1244.98 159.638 1244.16 160.13 Q1243.36 160.622 1242.87 161.255 Q1242.4 161.887 1241.98 162.801 Q1241.58 163.691 1241.42 164.229 Q1241.28 164.745 1241.16 165.307 L1239.52 171.865 Q1238.72 174.98 1238.72 176.081 Q1238.72 177.44 1239.38 178.353 Q1240.03 179.243 1241.35 179.243 Q1241.86 179.243 1242.45 179.103 Q1243.03 178.939 1243.78 178.517 Q1244.56 178.072 1245.23 177.416 Q1245.94 176.737 1246.62 175.589 Q1247.3 174.441 1247.74 172.966 Q1247.88 172.451 1248.35 172.451 Q1248.94 172.451 1248.94 172.919 Q1248.94 173.317 1248.61 174.16 Q1248.3 174.98 1247.62 176.058 Q1246.97 177.112 1246.1 178.072 Q1245.23 179.009 1243.95 179.665 Q1242.66 180.321 1241.25 180.321 Q1239.24 180.321 1237.9 179.243 Q1236.57 178.166 1236.08 176.667 Q1235.96 176.877 1235.8 177.158 Q1235.63 177.44 1235.14 178.072 Q1234.67 178.681 1234.13 179.149 Q1233.59 179.594 1232.75 179.946 Q1231.93 180.321 1231.04 180.321 Q1229.92 180.321 1228.91 179.993 Q1227.93 179.665 1227.22 178.915 Q1226.52 178.166 1226.52 177.135 Q1226.52 175.987 1227.29 175.191 Q1228.09 174.371 1229.17 174.371 Q1229.85 174.371 1230.38 174.769 Q1230.95 175.168 1230.95 176.034 Q1230.95 176.995 1230.29 177.721 Q1229.64 178.447 1228.7 178.634 Q1229.66 179.243 1231.09 179.243 Q1232.63 179.243 1233.85 177.885 Q1235.07 176.526 1235.65 174.254 Q1237.11 168.797 1237.67 166.361 Q1238.23 163.901 1238.23 162.847 Q1238.23 161.864 1237.97 161.184 Q1237.72 160.505 1237.27 160.201 Q1236.85 159.873 1236.45 159.756 Q1236.08 159.638 1235.65 159.638 Q1234.95 159.638 1234.16 159.92 Q1233.38 160.201 1232.45 160.856 Q1231.53 161.489 1230.67 162.801 Q1229.8 164.112 1229.21 165.916 Q1229.1 166.454 1228.58 166.454 Q1228.02 166.431 1228.02 165.963 Q1228.02 165.564 1228.32 164.745 Q1228.65 163.901 1229.31 162.847 Q1229.99 161.793 1230.85 160.856 Q1231.74 159.896 1233.03 159.24 Q1234.34 158.584 1235.75 158.584 Q1236.38 158.584 1236.99 158.725 Q1237.62 158.842 1238.37 159.193 Q1239.14 159.545 1239.82 160.318 Q1240.5 161.091 1240.92 162.215 Q1241.21 161.676 1241.58 161.161 Q1241.98 160.646 1242.59 160.013 Q1243.22 159.357 1244.09 158.983 Q1244.98 158.584 1245.96 158.584 Q1246.92 158.584 1247.86 158.842 Q1248.79 159.076 1249.59 159.849 Q1250.41 160.599 1250.41 161.747 Z" fill="#000000" fill-rule="nonzero" fill-opacity="1" /><path clip-path="url(#clip690)" d="M1268.09 168.375 Q1266.99 168.375 1266.99 167.789 Q1266.99 167.204 1268.14 167.204 Q1268.28 167.204 1268.51 167.227 Q1268.77 167.251 1268.82 167.251 L1282.33 167.251 L1282.33 153.689 Q1282.33 153.642 1282.31 153.432 Q1282.29 153.197 1282.29 153.057 Q1282.29 151.909 1282.85 151.909 Q1283.43 151.909 1283.43 153.057 L1283.43 167.251 L1296.97 167.251 Q1297.02 167.251 1297.25 167.227 Q1297.49 167.204 1297.63 167.204 Q1298.73 167.204 1298.73 167.789 Q1298.75 168.375 1297.58 168.375 Q1297.44 168.375 1297.23 168.352 Q1297.02 168.328 1296.97 168.328 L1283.43 168.328 L1283.43 182.569 Q1283.43 183.67 1282.85 183.67 Q1282.29 183.67 1282.29 182.522 Q1282.29 182.382 1282.31 182.147 Q1282.33 181.937 1282.33 181.89 L1282.33 168.328 L1268.82 168.328 Q1268.77 168.328 1268.49 168.352 Q1268.23 168.375 1268.09 168.375 Z" fill="#000000" fill-rule="nonzero" fill-opacity="1" /><path clip-path="url(#clip690)" d="M1317.25 152.401 L1317.25 150.902 Q1323.01 150.902 1325.99 147.834 Q1326.81 147.834 1326.95 148.021 Q1327.09 148.208 1327.09 149.075 L1327.09 175.987 Q1327.09 177.416 1327.79 177.861 Q1328.49 178.306 1331.56 178.306 L1333.09 178.306 L1333.09 179.782 Q1331.4 179.641 1325.31 179.641 Q1319.22 179.641 1317.56 179.782 L1317.56 178.306 L1319.08 178.306 Q1322.1 178.306 1322.83 177.885 Q1323.55 177.44 1323.55 175.987 L1323.55 151.136 Q1321.05 152.401 1317.25 152.401 Z" fill="#000000" fill-rule="nonzero" fill-opacity="1" /><path clip-path="url(#clip690)" d="M1338.05 191.614 Q1338.05 191.38 1338.66 190.794 Q1346.38 182.924 1346.38 168.098 Q1346.38 153.225 1338.96 145.706 Q1338.05 144.839 1338.05 144.582 Q1338.05 144.113 1338.51 144.113 Q1338.84 144.113 1339.99 145.074 Q1341.16 146.034 1342.92 148.236 Q1344.7 150.437 1346.01 153.131 Q1349.17 159.666 1349.17 168.098 Q1349.17 176.202 1346.15 182.737 Q1344.86 185.477 1343.06 187.773 Q1341.26 190.068 1340.06 191.075 Q1338.87 192.083 1338.51 192.083 Q1338.05 192.083 1338.05 191.614 Z" fill="#000000" fill-rule="nonzero" fill-opacity="1" /><polyline clip-path="url(#clip690)" style="stroke:#e26f46; stroke-linecap:round; stroke-linejoin:round; stroke-width:4; stroke-opacity:1; fill:none" points="830.967,240.317 958.978,240.317 "/>
<path clip-path="url(#clip690)" d="M980.313 211.381 L1009.55 211.381 L1009.55 215.316 L997.28 215.316 L997.28 245.941 L992.581 245.941 L992.581 215.316 L980.313 215.316 L980.313 211.381 Z" fill="#000000" fill-rule="nonzero" fill-opacity="1" /><path clip-path="url(#clip690)" d="M1017.81 232.908 Q1012.65 232.908 1010.66 234.089 Q1008.67 235.269 1008.67 238.117 Q1008.67 240.385 1010.15 241.728 Q1011.66 243.047 1014.22 243.047 Q1017.77 243.047 1019.9 240.547 Q1022.05 238.024 1022.05 233.857 L1022.05 232.908 L1017.81 232.908 M1026.31 231.149 L1026.31 245.941 L1022.05 245.941 L1022.05 242.006 Q1020.59 244.367 1018.41 245.501 Q1016.24 246.612 1013.09 246.612 Q1009.11 246.612 1006.75 244.39 Q1004.41 242.144 1004.41 238.394 Q1004.41 234.019 1007.33 231.797 Q1010.27 229.575 1016.08 229.575 L1022.05 229.575 L1022.05 229.158 Q1022.05 226.219 1020.1 224.621 Q1018.18 223.001 1014.69 223.001 Q1012.47 223.001 1010.36 223.533 Q1008.25 224.066 1006.31 225.131 L1006.31 221.195 Q1008.65 220.293 1010.84 219.853 Q1013.04 219.39 1015.13 219.39 Q1020.75 219.39 1023.53 222.307 Q1026.31 225.223 1026.31 231.149 Z" fill="#000000" fill-rule="nonzero" fill-opacity="1" /><path clip-path="url(#clip690)" d="M1056.63 230.293 L1056.63 245.941 L1052.37 245.941 L1052.37 230.431 Q1052.37 226.751 1050.94 224.922 Q1049.5 223.094 1046.63 223.094 Q1043.18 223.094 1041.19 225.293 Q1039.2 227.492 1039.2 231.288 L1039.2 245.941 L1034.92 245.941 L1034.92 220.015 L1039.2 220.015 L1039.2 224.043 Q1040.73 221.705 1042.79 220.547 Q1044.87 219.39 1047.58 219.39 Q1052.05 219.39 1054.34 222.168 Q1056.63 224.922 1056.63 230.293 Z" fill="#000000" fill-rule="nonzero" fill-opacity="1" /><path clip-path="url(#clip690)" d="M1082.19 232.677 Q1082.19 228.047 1080.27 225.501 Q1078.37 222.955 1074.92 222.955 Q1071.49 222.955 1069.57 225.501 Q1067.67 228.047 1067.67 232.677 Q1067.67 237.283 1069.57 239.83 Q1071.49 242.376 1074.92 242.376 Q1078.37 242.376 1080.27 239.83 Q1082.19 237.283 1082.19 232.677 M1086.45 242.723 Q1086.45 249.343 1083.51 252.561 Q1080.57 255.802 1074.5 255.802 Q1072.26 255.802 1070.27 255.455 Q1068.28 255.13 1066.4 254.436 L1066.4 250.292 Q1068.28 251.311 1070.1 251.797 Q1071.93 252.283 1073.83 252.283 Q1078.02 252.283 1080.1 250.084 Q1082.19 247.908 1082.19 243.487 L1082.19 241.381 Q1080.87 243.672 1078.81 244.806 Q1076.75 245.941 1073.88 245.941 Q1069.11 245.941 1066.19 242.306 Q1063.28 238.672 1063.28 232.677 Q1063.28 226.658 1066.19 223.024 Q1069.11 219.39 1073.88 219.39 Q1076.75 219.39 1078.81 220.524 Q1080.87 221.658 1082.19 223.95 L1082.19 220.015 L1086.45 220.015 L1086.45 242.723 Z" fill="#000000" fill-rule="nonzero" fill-opacity="1" /><path clip-path="url(#clip690)" d="M1117.4 231.913 L1117.4 233.996 L1097.81 233.996 Q1098.09 238.394 1100.45 240.709 Q1102.84 243.001 1107.07 243.001 Q1109.52 243.001 1111.82 242.399 Q1114.13 241.797 1116.4 240.593 L1116.4 244.621 Q1114.11 245.593 1111.7 246.103 Q1109.29 246.612 1106.82 246.612 Q1100.61 246.612 1096.98 243.001 Q1093.37 239.39 1093.37 233.232 Q1093.37 226.867 1096.79 223.14 Q1100.24 219.39 1106.08 219.39 Q1111.31 219.39 1114.34 222.769 Q1117.4 226.126 1117.4 231.913 M1113.14 230.663 Q1113.09 227.168 1111.17 225.084 Q1109.27 223.001 1106.12 223.001 Q1102.56 223.001 1100.4 225.015 Q1098.28 227.029 1097.95 230.686 L1113.14 230.663 Z" fill="#000000" fill-rule="nonzero" fill-opacity="1" /><path clip-path="url(#clip690)" d="M1145.94 230.293 L1145.94 245.941 L1141.68 245.941 L1141.68 230.431 Q1141.68 226.751 1140.24 224.922 Q1138.81 223.094 1135.94 223.094 Q1132.49 223.094 1130.5 225.293 Q1128.51 227.492 1128.51 231.288 L1128.51 245.941 L1124.22 245.941 L1124.22 220.015 L1128.51 220.015 L1128.51 224.043 Q1130.03 221.705 1132.09 220.547 Q1134.18 219.39 1136.89 219.39 Q1141.35 219.39 1143.65 222.168 Q1145.94 224.922 1145.94 230.293 Z" fill="#000000" fill-rule="nonzero" fill-opacity="1" /><path clip-path="url(#clip690)" d="M1158.65 212.654 L1158.65 220.015 L1167.42 220.015 L1167.42 223.325 L1158.65 223.325 L1158.65 237.399 Q1158.65 240.57 1159.5 241.473 Q1160.38 242.376 1163.04 242.376 L1167.42 242.376 L1167.42 245.941 L1163.04 245.941 Q1158.11 245.941 1156.24 244.112 Q1154.36 242.26 1154.36 237.399 L1154.36 223.325 L1151.24 223.325 L1151.24 220.015 L1154.36 220.015 L1154.36 212.654 L1158.65 212.654 Z" fill="#000000" fill-rule="nonzero" fill-opacity="1" /><path clip-path="url(#clip690)" d="M1195.2 231.913 L1195.2 233.996 L1175.61 233.996 Q1175.89 238.394 1178.25 240.709 Q1180.64 243.001 1184.87 243.001 Q1187.33 243.001 1189.62 242.399 Q1191.93 241.797 1194.2 240.593 L1194.2 244.621 Q1191.91 245.593 1189.5 246.103 Q1187.09 246.612 1184.62 246.612 Q1178.41 246.612 1174.78 243.001 Q1171.17 239.39 1171.17 233.232 Q1171.17 226.867 1174.59 223.14 Q1178.04 219.39 1183.88 219.39 Q1189.11 219.39 1192.14 222.769 Q1195.2 226.126 1195.2 231.913 M1190.94 230.663 Q1190.89 227.168 1188.97 225.084 Q1187.07 223.001 1183.92 223.001 Q1180.36 223.001 1178.21 225.015 Q1176.08 227.029 1175.75 230.686 L1190.94 230.663 Z" fill="#000000" fill-rule="nonzero" fill-opacity="1" /><path clip-path="url(#clip690)" d="M1234.92 226.57 Q1234.92 226.898 1234.71 227.671 L1230.12 245.988 Q1229.11 250.063 1225.83 252.921 Q1222.58 255.778 1218.88 255.778 Q1216.65 255.778 1215.22 254.584 Q1213.8 253.412 1213.8 251.609 Q1213.8 250.016 1214.64 249.243 Q1215.48 248.494 1216.49 248.494 Q1216.82 248.494 1217.17 248.587 Q1217.52 248.681 1217.89 249.079 Q1218.27 249.477 1218.27 250.157 Q1218.27 251.258 1217.31 252.124 Q1216.84 252.522 1216.4 252.616 Q1215.97 252.71 1215.25 252.71 Q1215.53 253.366 1216.04 253.811 Q1216.56 254.256 1217.14 254.42 Q1217.73 254.607 1218.11 254.654 Q1218.5 254.724 1218.88 254.724 Q1221.88 254.724 1224.17 251.703 Q1224.85 250.789 1225.34 249.876 Q1225.86 248.986 1226.23 247.885 Q1226.61 246.807 1226.77 246.222 Q1226.96 245.636 1227.29 244.301 Q1225.11 246.479 1222.44 246.479 Q1221.31 246.479 1220.31 246.175 Q1219.32 245.87 1218.46 245.238 Q1217.59 244.582 1217.07 243.434 Q1216.58 242.287 1216.58 240.764 Q1216.58 239.148 1217.22 236.946 Q1217.85 234.745 1219.37 230.693 Q1220.19 228.421 1220.19 227.32 Q1220.19 226.781 1220.07 226.453 Q1219.96 226.102 1219.72 225.985 Q1219.49 225.844 1219.35 225.821 Q1219.23 225.797 1219 225.797 Q1217.61 225.797 1216.33 227.203 Q1215.04 228.608 1214.15 231.747 Q1213.96 232.332 1213.84 232.473 Q1213.73 232.613 1213.37 232.613 Q1212.79 232.59 1212.79 232.121 Q1212.79 231.934 1213 231.208 Q1213.21 230.458 1213.7 229.358 Q1214.22 228.233 1214.92 227.226 Q1215.62 226.196 1216.72 225.469 Q1217.85 224.743 1219.14 224.743 Q1220.89 224.743 1221.97 225.891 Q1223.07 227.015 1223.07 228.678 Q1223.07 229.358 1222.88 229.967 Q1222.72 230.552 1222.11 232.121 Q1219.65 238.445 1219.65 241.537 Q1219.65 242.287 1219.77 242.919 Q1219.91 243.528 1220.21 244.137 Q1220.52 244.723 1221.13 245.074 Q1221.76 245.402 1222.63 245.402 Q1223.73 245.402 1224.76 244.887 Q1225.81 244.348 1226.47 243.622 Q1227.15 242.896 1227.54 242.287 Q1227.97 241.654 1228.06 241.326 L1230.21 232.707 L1231.17 228.866 Q1231.62 226.781 1231.83 226.266 Q1232.11 225.774 1232.6 225.516 Q1233.1 225.259 1233.52 225.259 Q1234.1 225.259 1234.5 225.61 Q1234.92 225.961 1234.92 226.57 Z" fill="#000000" fill-rule="nonzero" fill-opacity="1" /><path clip-path="url(#clip690)" d="M1249.36 238.656 Q1249.41 238.071 1250.32 238.071 L1279.72 238.071 Q1281.1 238.071 1281.12 238.609 Q1281.12 239.195 1279.81 239.172 L1250.65 239.172 Q1249.36 239.195 1249.36 238.656 M1249.36 229.287 Q1249.36 228.702 1250.37 228.725 L1279.67 228.725 Q1281.1 228.725 1281.12 229.287 Q1281.12 229.826 1279.91 229.826 L1250.32 229.826 Q1249.36 229.826 1249.36 229.287 Z" fill="#000000" fill-rule="nonzero" fill-opacity="1" /><path clip-path="url(#clip690)" d="M1333.75 204.904 Q1333.75 206.216 1332.93 206.965 Q1332.11 207.691 1331.18 207.691 Q1330.29 207.691 1329.82 207.176 Q1329.35 206.661 1329.35 206.005 Q1329.35 205.115 1330.01 204.342 Q1330.66 203.569 1331.65 203.405 Q1330.69 202.796 1329.26 202.796 Q1328.32 202.796 1327.5 203.288 Q1326.7 203.78 1326.21 204.412 Q1325.74 205.045 1325.32 205.958 Q1324.92 206.848 1324.76 207.387 Q1324.62 207.902 1324.5 208.464 L1322.86 215.023 Q1322.07 218.138 1322.07 219.239 Q1322.07 220.597 1322.72 221.511 Q1323.38 222.401 1324.69 222.401 Q1325.2 222.401 1325.79 222.26 Q1326.38 222.096 1327.13 221.675 Q1327.9 221.23 1328.58 220.574 Q1329.28 219.894 1329.96 218.747 Q1330.64 217.599 1331.08 216.123 Q1331.22 215.608 1331.69 215.608 Q1332.28 215.608 1332.28 216.077 Q1332.28 216.475 1331.95 217.318 Q1331.65 218.138 1330.97 219.215 Q1330.31 220.269 1329.44 221.23 Q1328.58 222.166 1327.29 222.822 Q1326 223.478 1324.6 223.478 Q1322.58 223.478 1321.25 222.401 Q1319.91 221.323 1319.42 219.824 Q1319.3 220.035 1319.14 220.316 Q1318.97 220.597 1318.48 221.23 Q1318.01 221.839 1317.48 222.307 Q1316.94 222.752 1316.09 223.103 Q1315.27 223.478 1314.38 223.478 Q1313.26 223.478 1312.25 223.15 Q1311.27 222.822 1310.57 222.073 Q1309.86 221.323 1309.86 220.293 Q1309.86 219.145 1310.64 218.349 Q1311.43 217.529 1312.51 217.529 Q1313.19 217.529 1313.73 217.927 Q1314.29 218.325 1314.29 219.192 Q1314.29 220.152 1313.63 220.878 Q1312.98 221.604 1312.04 221.792 Q1313 222.401 1314.43 222.401 Q1315.98 222.401 1317.19 221.042 Q1318.41 219.684 1319 217.412 Q1320.45 211.954 1321.01 209.518 Q1321.57 207.059 1321.57 206.005 Q1321.57 205.021 1321.32 204.342 Q1321.06 203.663 1320.61 203.358 Q1320.19 203.03 1319.79 202.913 Q1319.42 202.796 1319 202.796 Q1318.29 202.796 1317.5 203.077 Q1316.73 203.358 1315.79 204.014 Q1314.88 204.646 1314.01 205.958 Q1313.14 207.27 1312.56 209.073 Q1312.44 209.612 1311.92 209.612 Q1311.36 209.589 1311.36 209.12 Q1311.36 208.722 1311.67 207.902 Q1311.99 207.059 1312.65 206.005 Q1313.33 204.951 1314.2 204.014 Q1315.09 203.054 1316.37 202.398 Q1317.69 201.742 1319.09 201.742 Q1319.72 201.742 1320.33 201.883 Q1320.96 202 1321.71 202.351 Q1322.49 202.702 1323.17 203.475 Q1323.85 204.248 1324.27 205.373 Q1324.55 204.834 1324.92 204.319 Q1325.32 203.803 1325.93 203.171 Q1326.56 202.515 1327.43 202.14 Q1328.32 201.742 1329.3 201.742 Q1330.26 201.742 1331.2 202 Q1332.14 202.234 1332.93 203.007 Q1333.75 203.756 1333.75 204.904 Z" fill="#000000" fill-rule="nonzero" fill-opacity="1" /><path clip-path="url(#clip690)" d="M1309.86 236.276 L1338.63 236.276 L1338.63 233.716 L1309.86 233.716  Z" fill="#000000" fill-rule="evenodd" fill-opacity="1"/>
<path clip-path="url(#clip690)" d="M1310.74 270.774 L1310.74 269.298 L1325.48 246.789 Q1325.85 246.204 1326.44 246.227 Q1326.97 246.227 1327.09 246.438 Q1327.21 246.649 1327.21 247.469 L1327.21 269.298 L1332.01 269.298 L1332.01 270.774 L1327.21 270.774 L1327.21 274.943 Q1327.21 276.325 1327.77 276.77 Q1328.36 277.215 1330.84 277.215 L1331.85 277.215 L1331.85 278.691 Q1329.88 278.55 1325.33 278.55 Q1320.81 278.55 1318.85 278.691 L1318.85 277.215 L1319.85 277.215 Q1322.34 277.215 1322.92 276.793 Q1323.51 276.348 1323.51 274.943 L1323.51 270.774 L1310.74 270.774 M1312.1 269.298 L1323.79 269.298 L1323.79 251.404 L1312.1 269.298 Z" fill="#000000" fill-rule="nonzero" fill-opacity="1" /><path clip-path="url(#clip690)" d="M1358.16 235.469 Q1357.06 235.469 1357.06 234.883 Q1357.06 234.298 1358.21 234.298 Q1358.35 234.298 1358.58 234.321 Q1358.84 234.345 1358.89 234.345 L1372.4 234.345 L1372.4 220.783 Q1372.4 220.736 1372.38 220.525 Q1372.36 220.291 1372.36 220.151 Q1372.36 219.003 1372.92 219.003 Q1373.5 219.003 1373.5 220.151 L1373.5 234.345 L1387.04 234.345 Q1387.09 234.345 1387.32 234.321 Q1387.56 234.298 1387.7 234.298 Q1388.8 234.298 1388.8 234.883 Q1388.82 235.469 1387.65 235.469 Q1387.51 235.469 1387.3 235.446 Q1387.09 235.422 1387.04 235.422 L1373.5 235.422 L1373.5 249.663 Q1373.5 250.764 1372.92 250.764 Q1372.36 250.764 1372.36 249.616 Q1372.36 249.476 1372.38 249.241 Q1372.4 249.031 1372.4 248.984 L1372.4 235.422 L1358.89 235.422 Q1358.84 235.422 1358.56 235.446 Q1358.3 235.469 1358.16 235.469 Z" fill="#000000" fill-rule="nonzero" fill-opacity="1" /><path clip-path="url(#clip690)" d="M1407.32 231.534 Q1407.32 224.484 1409.1 220.643 Q1411.58 214.927 1417.44 214.927 Q1418.68 214.927 1419.97 215.279 Q1421.28 215.607 1422.92 216.895 Q1424.58 218.183 1425.59 220.291 Q1427.51 224.367 1427.51 231.534 Q1427.51 238.537 1425.73 242.355 Q1423.13 247.93 1417.39 247.93 Q1415.24 247.93 1413.04 246.829 Q1410.86 245.728 1409.48 243.081 Q1407.32 239.123 1407.32 231.534 M1411.3 230.948 Q1411.3 238.186 1411.82 241.067 Q1412.4 244.182 1414 245.541 Q1415.61 246.876 1417.39 246.876 Q1419.31 246.876 1420.91 245.447 Q1422.52 243.995 1423.01 240.88 Q1423.55 237.811 1423.53 230.948 Q1423.53 224.273 1423.06 221.603 Q1422.43 218.488 1420.74 217.246 Q1419.08 215.981 1417.39 215.981 Q1416.76 215.981 1416.08 216.169 Q1415.43 216.356 1414.46 216.895 Q1413.5 217.434 1412.76 218.769 Q1412.03 220.104 1411.68 222.118 Q1411.3 224.718 1411.3 230.948 Z" fill="#000000" fill-rule="nonzero" fill-opacity="1" /><path clip-path="url(#clip690)" d="M1431.8 246.103 Q1431.07 245.33 1431.07 244.323 Q1431.07 243.315 1431.8 242.589 Q1432.53 241.84 1433.63 241.84 Q1434.68 241.84 1435.38 242.543 Q1436.11 243.222 1436.11 244.346 Q1436.11 245.447 1435.34 246.173 Q1434.59 246.876 1433.63 246.876 Q1432.53 246.876 1431.8 246.103 Z" fill="#000000" fill-rule="nonzero" fill-opacity="1" /><path clip-path="url(#clip690)" d="M1444.27 231.534 Q1444.27 224.484 1446.05 220.643 Q1448.54 214.927 1454.39 214.927 Q1455.63 214.927 1456.92 215.279 Q1458.23 215.607 1459.87 216.895 Q1461.54 218.183 1462.54 220.291 Q1464.46 224.367 1464.46 231.534 Q1464.46 238.537 1462.68 242.355 Q1460.08 247.93 1454.34 247.93 Q1452.19 247.93 1449.99 246.829 Q1447.81 245.728 1446.43 243.081 Q1444.27 239.123 1444.27 231.534 M1448.25 230.948 Q1448.25 238.186 1448.77 241.067 Q1449.36 244.182 1450.95 245.541 Q1452.56 246.876 1454.34 246.876 Q1456.27 246.876 1457.86 245.447 Q1459.47 243.995 1459.97 240.88 Q1460.5 237.811 1460.48 230.948 Q1460.48 224.273 1460.01 221.603 Q1459.38 218.488 1457.69 217.246 Q1456.03 215.981 1454.34 215.981 Q1453.71 215.981 1453.03 216.169 Q1452.38 216.356 1451.42 216.895 Q1450.46 217.434 1449.71 218.769 Q1448.98 220.104 1448.63 222.118 Q1448.25 224.718 1448.25 230.948 Z" fill="#000000" fill-rule="nonzero" fill-opacity="1" /><path clip-path="url(#clip690)" d="M1468.22 225.725 Q1468.22 223.172 1468.97 221.439 Q1469.72 219.682 1471.29 217.949 Q1474.17 214.927 1478.34 214.927 Q1480.12 214.927 1481.69 215.677 Q1483.28 216.426 1484.78 218.136 Q1486.3 219.823 1487.21 223.172 Q1488.13 226.498 1488.13 231.089 Q1488.13 238.514 1484.52 243.222 Q1480.94 247.93 1476.09 247.93 Q1473.02 247.93 1471.22 246.548 Q1469.41 245.142 1469.41 242.753 Q1469.41 241.512 1470.12 240.997 Q1470.82 240.458 1471.61 240.458 Q1472.48 240.458 1473.16 241.043 Q1473.84 241.606 1473.84 242.66 Q1473.84 243.526 1473.28 244.206 Q1472.74 244.861 1471.33 244.861 Q1472.72 246.595 1476.04 246.595 Q1477.24 246.595 1478.43 246.056 Q1479.62 245.494 1480.91 244.159 Q1482.22 242.8 1483.02 239.966 Q1483.82 237.132 1483.82 233.15 L1483.82 231.628 Q1481.9 236.429 1477.82 236.429 Q1473.79 236.429 1471.01 233.337 Q1468.22 230.246 1468.22 225.725 M1472.53 225.772 Q1472.53 230.527 1473.39 232.283 Q1474.87 235.305 1477.87 235.305 Q1480.8 235.305 1482.25 232.705 Q1483.72 230.082 1483.72 226.686 Q1483.72 221.978 1482.95 219.916 Q1481.52 216.122 1478.34 216.122 Q1475.17 216.122 1473.54 219.143 Q1472.53 220.924 1472.53 225.772 Z" fill="#000000" fill-rule="nonzero" fill-opacity="1" /><path clip-path="url(#clip690)" d="M1492.16 231.721 Q1492.16 224.179 1496 219.565 Q1499.85 214.927 1504.79 214.927 Q1507.67 214.927 1509.26 216.403 Q1510.88 217.855 1510.88 220.104 Q1510.88 221.345 1510.15 221.884 Q1509.43 222.423 1508.68 222.423 Q1507.81 222.423 1507.13 221.837 Q1506.45 221.252 1506.45 220.198 Q1506.45 218.043 1509.1 218.043 Q1507.86 216.122 1504.88 216.122 Q1503.97 216.122 1503.03 216.403 Q1502.09 216.661 1500.88 217.551 Q1499.66 218.441 1498.72 219.846 Q1497.78 221.252 1497.13 223.898 Q1496.47 226.545 1496.47 229.988 L1496.47 231.136 Q1498.44 226.381 1502.47 226.404 Q1506.5 226.404 1509.29 229.473 Q1512.07 232.541 1512.07 237.085 Q1512.07 241.746 1509.17 244.838 Q1506.26 247.93 1502.19 247.93 Q1500.36 247.93 1498.7 247.157 Q1497.06 246.407 1495.51 244.674 Q1493.99 242.941 1493.08 239.615 Q1492.16 236.289 1492.16 231.721 M1496.57 236.031 Q1496.57 240.739 1497.43 242.988 Q1497.57 243.362 1497.88 243.878 Q1498.21 244.393 1498.74 245.072 Q1499.31 245.728 1500.22 246.173 Q1501.13 246.595 1502.19 246.595 Q1505.4 246.595 1506.94 243.479 Q1507.76 241.746 1507.76 237.038 Q1507.76 232.237 1506.9 230.48 Q1505.42 227.505 1502.42 227.505 Q1500.41 227.505 1499 228.887 Q1497.62 230.269 1497.08 232.12 Q1496.57 233.97 1496.57 236.031 Z" fill="#000000" fill-rule="nonzero" fill-opacity="1" /><path clip-path="url(#clip690)" d="M1516.11 239.146 Q1516.11 237.717 1516.88 237.179 Q1517.65 236.617 1518.47 236.617 Q1519.57 236.617 1520.21 237.319 Q1520.86 237.999 1520.86 238.959 Q1520.86 239.919 1520.21 240.622 Q1519.57 241.301 1518.47 241.301 Q1517.94 241.301 1517.65 241.207 Q1518.29 243.409 1520.21 245.002 Q1522.15 246.595 1524.7 246.595 Q1527.91 246.595 1529.83 243.479 Q1530.98 241.465 1530.98 236.898 Q1530.98 232.869 1530.12 230.855 Q1528.78 227.786 1526.04 227.786 Q1522.15 227.786 1519.86 231.136 Q1519.57 231.557 1519.25 231.581 Q1518.78 231.581 1518.66 231.323 Q1518.57 231.042 1518.57 230.316 L1518.57 216.122 Q1518.57 214.974 1519.04 214.974 Q1519.22 214.974 1519.62 215.115 Q1522.64 216.45 1525.99 216.473 Q1529.44 216.473 1532.53 215.068 Q1532.76 214.927 1532.9 214.927 Q1533.37 214.927 1533.39 215.466 Q1533.39 215.654 1533 216.216 Q1532.62 216.754 1531.8 217.48 Q1530.98 218.183 1529.93 218.862 Q1528.87 219.542 1527.33 220.01 Q1525.81 220.455 1524.12 220.455 Q1522.1 220.455 1520.04 219.823 L1520.04 229.168 Q1522.53 226.732 1526.13 226.732 Q1529.97 226.732 1532.62 229.824 Q1535.27 232.916 1535.27 237.226 Q1535.27 241.746 1532.13 244.838 Q1529.01 247.93 1524.8 247.93 Q1520.96 247.93 1518.52 245.189 Q1516.11 242.449 1516.11 239.146 Z" fill="#000000" fill-rule="nonzero" fill-opacity="1" /><path clip-path="url(#clip690)" d="M1537.85 224.32 L1539.42 214.459 L1540.62 214.459 Q1540.76 215.045 1540.99 215.302 Q1541.25 215.56 1542.61 215.771 Q1543.99 215.981 1546.78 215.981 L1558.42 215.981 Q1558.42 217.082 1557.99 217.668 L1551.51 226.779 Q1549.45 229.66 1548.53 234.977 Q1547.99 238.537 1548.02 242.847 L1548.02 245.283 Q1548.02 247.93 1545.79 247.93 Q1543.59 247.93 1543.59 245.283 Q1543.59 236.125 1549.49 227.248 Q1550.12 226.334 1552.44 223.078 Q1554.79 219.823 1554.88 219.682 L1544.95 219.682 Q1540.59 219.682 1540.24 219.963 Q1539.77 220.385 1539.05 224.32 L1537.85 224.32 Z" fill="#000000" fill-rule="nonzero" fill-opacity="1" /><path clip-path="url(#clip690)" d="M1557.87 240.411 Q1557.87 238.982 1558.69 238.303 Q1559.51 237.624 1560.56 237.624 Q1561.66 237.624 1562.43 238.35 Q1563.23 239.053 1563.23 240.294 Q1563.23 241.629 1562.29 242.379 Q1561.38 243.128 1560.07 242.941 Q1561.22 244.861 1563.32 245.728 Q1565.46 246.595 1567.42 246.595 Q1569.48 246.595 1571.15 244.814 Q1572.83 243.034 1572.83 238.678 Q1572.83 234.977 1571.38 232.846 Q1569.95 230.714 1567.12 230.714 L1565.01 230.714 Q1564.28 230.714 1564.07 230.644 Q1563.86 230.574 1563.86 230.175 Q1563.86 229.707 1564.59 229.613 Q1565.31 229.613 1566.46 229.473 Q1569.25 229.379 1570.73 226.967 Q1572.06 224.718 1572.06 221.509 Q1572.06 218.581 1570.66 217.363 Q1569.27 216.122 1567.47 216.122 Q1565.78 216.122 1563.93 216.825 Q1562.08 217.527 1561.08 219.097 Q1564.05 219.097 1564.05 221.509 Q1564.05 222.563 1563.37 223.266 Q1562.72 223.945 1561.61 223.945 Q1560.56 223.945 1559.86 223.289 Q1559.15 222.61 1559.15 221.462 Q1559.15 218.722 1561.59 216.825 Q1564.05 214.927 1567.66 214.927 Q1571.22 214.927 1573.84 216.801 Q1576.49 218.675 1576.49 221.556 Q1576.49 224.39 1574.61 226.709 Q1572.74 229.028 1569.77 229.988 Q1573.42 230.714 1575.6 233.197 Q1577.78 235.656 1577.78 238.678 Q1577.78 242.425 1574.82 245.189 Q1571.87 247.93 1567.56 247.93 Q1563.58 247.93 1560.72 245.775 Q1557.87 243.62 1557.87 240.411 Z" fill="#000000" fill-rule="nonzero" fill-opacity="1" /><path clip-path="url(#clip690)" d="M1581.81 239.146 Q1581.81 237.717 1582.58 237.179 Q1583.36 236.617 1584.18 236.617 Q1585.28 236.617 1585.91 237.319 Q1586.57 237.999 1586.57 238.959 Q1586.57 239.919 1585.91 240.622 Q1585.28 241.301 1584.18 241.301 Q1583.64 241.301 1583.36 241.207 Q1583.99 243.409 1585.91 245.002 Q1587.85 246.595 1590.41 246.595 Q1593.62 246.595 1595.54 243.479 Q1596.69 241.465 1596.69 236.898 Q1596.69 232.869 1595.82 230.855 Q1594.48 227.786 1591.74 227.786 Q1587.85 227.786 1585.56 231.136 Q1585.28 231.557 1584.95 231.581 Q1584.48 231.581 1584.36 231.323 Q1584.27 231.042 1584.27 230.316 L1584.27 216.122 Q1584.27 214.974 1584.74 214.974 Q1584.93 214.974 1585.33 215.115 Q1588.35 216.45 1591.7 216.473 Q1595.14 216.473 1598.23 215.068 Q1598.47 214.927 1598.61 214.927 Q1599.07 214.927 1599.1 215.466 Q1599.1 215.654 1598.7 216.216 Q1598.32 216.754 1597.5 217.48 Q1596.69 218.183 1595.63 218.862 Q1594.58 219.542 1593.03 220.01 Q1591.51 220.455 1589.82 220.455 Q1587.81 220.455 1585.75 219.823 L1585.75 229.168 Q1588.23 226.732 1591.84 226.732 Q1595.68 226.732 1598.32 229.824 Q1600.97 232.916 1600.97 237.226 Q1600.97 241.746 1597.83 244.838 Q1594.72 247.93 1590.5 247.93 Q1586.66 247.93 1584.22 245.189 Q1581.81 242.449 1581.81 239.146 Z" fill="#000000" fill-rule="nonzero" fill-opacity="1" /><path clip-path="url(#clip690)" d="M1605.76 225.725 Q1605.76 223.172 1606.51 221.439 Q1607.26 219.682 1608.83 217.949 Q1611.71 214.927 1615.88 214.927 Q1617.66 214.927 1619.22 215.677 Q1620.82 216.426 1622.32 218.136 Q1623.84 219.823 1624.75 223.172 Q1625.67 226.498 1625.67 231.089 Q1625.67 238.514 1622.06 243.222 Q1618.48 247.93 1613.63 247.93 Q1610.56 247.93 1608.75 246.548 Q1606.95 245.142 1606.95 242.753 Q1606.95 241.512 1607.65 240.997 Q1608.36 240.458 1609.15 240.458 Q1610.02 240.458 1610.7 241.043 Q1611.38 241.606 1611.38 242.66 Q1611.38 243.526 1610.82 244.206 Q1610.28 244.861 1608.87 244.861 Q1610.25 246.595 1613.58 246.595 Q1614.77 246.595 1615.97 246.056 Q1617.16 245.494 1618.45 244.159 Q1619.76 242.8 1620.56 239.966 Q1621.36 237.132 1621.36 233.15 L1621.36 231.628 Q1619.44 236.429 1615.36 236.429 Q1611.33 236.429 1608.54 233.337 Q1605.76 230.246 1605.76 225.725 M1610.07 225.772 Q1610.07 230.527 1610.93 232.283 Q1612.41 235.305 1615.41 235.305 Q1618.33 235.305 1619.79 232.705 Q1621.26 230.082 1621.26 226.686 Q1621.26 221.978 1620.49 219.916 Q1619.06 216.122 1615.88 216.122 Q1612.71 216.122 1611.07 219.143 Q1610.07 220.924 1610.07 225.772 Z" fill="#000000" fill-rule="nonzero" fill-opacity="1" /><path clip-path="url(#clip690)" d="M1629.7 231.534 Q1629.7 224.484 1631.48 220.643 Q1633.96 214.927 1639.82 214.927 Q1641.06 214.927 1642.35 215.279 Q1643.66 215.607 1645.3 216.895 Q1646.96 218.183 1647.97 220.291 Q1649.89 224.367 1649.89 231.534 Q1649.89 238.537 1648.11 242.355 Q1645.51 247.93 1639.77 247.93 Q1637.62 247.93 1635.42 246.829 Q1633.24 245.728 1631.86 243.081 Q1629.7 239.123 1629.7 231.534 M1633.68 230.948 Q1633.68 238.186 1634.2 241.067 Q1634.78 244.182 1636.38 245.541 Q1637.99 246.876 1639.77 246.876 Q1641.69 246.876 1643.29 245.447 Q1644.9 243.995 1645.4 240.88 Q1645.93 237.811 1645.91 230.948 Q1645.91 224.273 1645.44 221.603 Q1644.81 218.488 1643.12 217.246 Q1641.46 215.981 1639.77 215.981 Q1639.14 215.981 1638.46 216.169 Q1637.81 216.356 1636.85 216.895 Q1635.89 217.434 1635.14 218.769 Q1634.41 220.104 1634.06 222.118 Q1633.68 224.718 1633.68 230.948 Z" fill="#000000" fill-rule="nonzero" fill-opacity="1" /><path clip-path="url(#clip690)" d="M1653.65 246.876 Q1653.65 246.009 1653.72 245.751 Q1653.81 245.494 1654.19 245.096 L1663.39 234.837 Q1668.43 229.168 1668.43 224.226 Q1668.43 221.017 1666.74 218.722 Q1665.08 216.426 1662.01 216.426 Q1659.9 216.426 1658.12 217.715 Q1656.34 219.003 1655.52 221.298 Q1655.66 221.252 1656.15 221.252 Q1657.35 221.252 1658 222.001 Q1658.68 222.751 1658.68 223.758 Q1658.68 225.046 1657.84 225.678 Q1657.02 226.287 1656.2 226.287 Q1655.87 226.287 1655.43 226.217 Q1655.01 226.147 1654.33 225.491 Q1653.65 224.812 1653.65 223.617 Q1653.65 220.268 1656.18 217.598 Q1658.73 214.927 1662.62 214.927 Q1667.02 214.927 1669.9 217.551 Q1672.81 220.151 1672.81 224.226 Q1672.81 225.655 1672.36 226.967 Q1671.94 228.255 1671.35 229.262 Q1670.79 230.269 1669.25 231.885 Q1667.7 233.501 1666.46 234.649 Q1665.22 235.797 1662.43 238.233 L1657.35 243.175 L1665.99 243.175 Q1670.21 243.175 1670.53 242.8 Q1671 242.121 1671.59 238.537 L1672.81 238.537 L1671.45 246.876 L1653.65 246.876 Z" fill="#000000" fill-rule="nonzero" fill-opacity="1" /><path clip-path="url(#clip690)" d="M1675.69 224.32 L1677.26 214.459 L1678.46 214.459 Q1678.6 215.045 1678.83 215.302 Q1679.09 215.56 1680.45 215.771 Q1681.83 215.981 1684.62 215.981 L1696.26 215.981 Q1696.26 217.082 1695.84 217.668 L1689.35 226.779 Q1687.29 229.66 1686.37 234.977 Q1685.83 238.537 1685.86 242.847 L1685.86 245.283 Q1685.86 247.93 1683.63 247.93 Q1681.43 247.93 1681.43 245.283 Q1681.43 236.125 1687.33 227.248 Q1687.97 226.334 1690.28 223.078 Q1692.63 219.823 1692.72 219.682 L1682.79 219.682 Q1678.43 219.682 1678.08 219.963 Q1677.61 220.385 1676.89 224.32 L1675.69 224.32 Z" fill="#000000" fill-rule="nonzero" fill-opacity="1" /><path clip-path="url(#clip690)" d="M1698.68 225.725 Q1698.68 223.172 1699.43 221.439 Q1700.18 219.682 1701.75 217.949 Q1704.63 214.927 1708.8 214.927 Q1710.58 214.927 1712.15 215.677 Q1713.74 216.426 1715.24 218.136 Q1716.76 219.823 1717.67 223.172 Q1718.59 226.498 1718.59 231.089 Q1718.59 238.514 1714.98 243.222 Q1711.4 247.93 1706.55 247.93 Q1703.48 247.93 1701.68 246.548 Q1699.87 245.142 1699.87 242.753 Q1699.87 241.512 1700.57 240.997 Q1701.28 240.458 1702.07 240.458 Q1702.94 240.458 1703.62 241.043 Q1704.3 241.606 1704.3 242.66 Q1704.3 243.526 1703.74 244.206 Q1703.2 244.861 1701.79 244.861 Q1703.17 246.595 1706.5 246.595 Q1707.7 246.595 1708.89 246.056 Q1710.08 245.494 1711.37 244.159 Q1712.68 242.8 1713.48 239.966 Q1714.28 237.132 1714.28 233.15 L1714.28 231.628 Q1712.36 236.429 1708.28 236.429 Q1704.25 236.429 1701.46 233.337 Q1698.68 230.246 1698.68 225.725 M1702.99 225.772 Q1702.99 230.527 1703.85 232.283 Q1705.33 235.305 1708.33 235.305 Q1711.26 235.305 1712.71 232.705 Q1714.18 230.082 1714.18 226.686 Q1714.18 221.978 1713.41 219.916 Q1711.98 216.122 1708.8 216.122 Q1705.63 216.122 1703.99 219.143 Q1702.99 220.924 1702.99 225.772 Z" fill="#000000" fill-rule="nonzero" fill-opacity="1" /><path clip-path="url(#clip690)" d="M1722.62 225.725 Q1722.62 223.172 1723.37 221.439 Q1724.12 219.682 1725.69 217.949 Q1728.57 214.927 1732.74 214.927 Q1734.52 214.927 1736.09 215.677 Q1737.68 216.426 1739.18 218.136 Q1740.7 219.823 1741.62 223.172 Q1742.53 226.498 1742.53 231.089 Q1742.53 238.514 1738.92 243.222 Q1735.34 247.93 1730.49 247.93 Q1727.42 247.93 1725.62 246.548 Q1723.82 245.142 1723.82 242.753 Q1723.82 241.512 1724.52 240.997 Q1725.22 240.458 1726.02 240.458 Q1726.89 240.458 1727.56 241.043 Q1728.24 241.606 1728.24 242.66 Q1728.24 243.526 1727.68 244.206 Q1727.14 244.861 1725.74 244.861 Q1727.12 246.595 1730.45 246.595 Q1731.64 246.595 1732.83 246.056 Q1734.03 245.494 1735.32 244.159 Q1736.63 242.8 1737.43 239.966 Q1738.22 237.132 1738.22 233.15 L1738.22 231.628 Q1736.3 236.429 1732.23 236.429 Q1728.2 236.429 1725.41 233.337 Q1722.62 230.246 1722.62 225.725 M1726.93 225.772 Q1726.93 230.527 1727.8 232.283 Q1729.27 235.305 1732.27 235.305 Q1735.2 235.305 1736.65 232.705 Q1738.13 230.082 1738.13 226.686 Q1738.13 221.978 1737.36 219.916 Q1735.93 216.122 1732.74 216.122 Q1729.58 216.122 1727.94 219.143 Q1726.93 220.924 1726.93 225.772 Z" fill="#000000" fill-rule="nonzero" fill-opacity="1" /><path clip-path="url(#clip690)" d="M1744.78 224.32 L1746.35 214.459 L1747.54 214.459 Q1747.68 215.045 1747.92 215.302 Q1748.17 215.56 1749.53 215.771 Q1750.91 215.981 1753.7 215.981 L1765.34 215.981 Q1765.34 217.082 1764.92 217.668 L1758.43 226.779 Q1756.37 229.66 1755.46 234.977 Q1754.92 238.537 1754.94 242.847 L1754.94 245.283 Q1754.94 247.93 1752.72 247.93 Q1750.52 247.93 1750.52 245.283 Q1750.52 236.125 1756.42 227.248 Q1757.05 226.334 1759.37 223.078 Q1761.71 219.823 1761.81 219.682 L1751.87 219.682 Q1747.52 219.682 1747.17 219.963 Q1746.7 220.385 1745.97 224.32 L1744.78 224.32 Z" fill="#000000" fill-rule="nonzero" fill-opacity="1" /><path clip-path="url(#clip690)" d="M1765.09 246.876 Q1765.09 246.009 1765.17 245.751 Q1765.26 245.494 1765.63 245.096 L1774.84 234.837 Q1779.87 229.168 1779.87 224.226 Q1779.87 221.017 1778.19 218.722 Q1776.52 216.426 1773.46 216.426 Q1771.35 216.426 1769.57 217.715 Q1767.79 219.003 1766.97 221.298 Q1767.11 221.252 1767.6 221.252 Q1768.8 221.252 1769.45 222.001 Q1770.13 222.751 1770.13 223.758 Q1770.13 225.046 1769.29 225.678 Q1768.47 226.287 1767.65 226.287 Q1767.32 226.287 1766.87 226.217 Q1766.45 226.147 1765.77 225.491 Q1765.09 224.812 1765.09 223.617 Q1765.09 220.268 1767.62 217.598 Q1770.18 214.927 1774.07 214.927 Q1778.47 214.927 1781.35 217.551 Q1784.25 220.151 1784.25 224.226 Q1784.25 225.655 1783.81 226.967 Q1783.39 228.255 1782.8 229.262 Q1782.24 230.269 1780.69 231.885 Q1779.15 233.501 1777.91 234.649 Q1776.67 235.797 1773.88 238.233 L1768.8 243.175 L1777.44 243.175 Q1781.65 243.175 1781.98 242.8 Q1782.45 242.121 1783.04 238.537 L1784.25 238.537 L1782.9 246.876 L1765.09 246.876 Z" fill="#000000" fill-rule="nonzero" fill-opacity="1" /><path clip-path="url(#clip690)" d="M1787.14 224.32 L1788.71 214.459 L1789.9 214.459 Q1790.04 215.045 1790.28 215.302 Q1790.54 215.56 1791.89 215.771 Q1793.28 215.981 1796.06 215.981 L1807.7 215.981 Q1807.7 217.082 1807.28 217.668 L1800.8 226.779 Q1798.73 229.66 1797.82 234.977 Q1797.28 238.537 1797.31 242.847 L1797.31 245.283 Q1797.31 247.93 1795.08 247.93 Q1792.88 247.93 1792.88 245.283 Q1792.88 236.125 1798.78 227.248 Q1799.41 226.334 1801.73 223.078 Q1804.07 219.823 1804.17 219.682 L1794.24 219.682 Q1789.88 219.682 1789.53 219.963 Q1789.06 220.385 1788.33 224.32 L1787.14 224.32 Z" fill="#000000" fill-rule="nonzero" fill-opacity="1" /><polyline clip-path="url(#clip690)" style="stroke:#3da44d; stroke-linecap:round; stroke-linejoin:round; stroke-width:4; stroke-opacity:1; fill:none" points="830.967,317.064 958.978,317.064 "/>
<path clip-path="url(#clip690)" d="M980.313 288.128 L986.609 288.128 L1001.93 317.04 L1001.93 288.128 L1006.47 288.128 L1006.47 322.688 L1000.17 322.688 L984.85 293.776 L984.85 322.688 L980.313 322.688 L980.313 288.128 Z" fill="#000000" fill-rule="nonzero" fill-opacity="1" /><path clip-path="url(#clip690)" d="M1025.64 299.748 Q1022.21 299.748 1020.22 302.434 Q1018.23 305.096 1018.23 309.748 Q1018.23 314.401 1020.2 317.086 Q1022.19 319.748 1025.64 319.748 Q1029.04 319.748 1031.03 317.063 Q1033.02 314.378 1033.02 309.748 Q1033.02 305.142 1031.03 302.457 Q1029.04 299.748 1025.64 299.748 M1025.64 296.137 Q1031.19 296.137 1034.36 299.748 Q1037.53 303.36 1037.53 309.748 Q1037.53 316.114 1034.36 319.748 Q1031.19 323.359 1025.64 323.359 Q1020.06 323.359 1016.89 319.748 Q1013.74 316.114 1013.74 309.748 Q1013.74 303.36 1016.89 299.748 Q1020.06 296.137 1025.64 296.137 Z" fill="#000000" fill-rule="nonzero" fill-opacity="1" /><path clip-path="url(#clip690)" d="M1059.62 300.744 Q1058.9 300.327 1058.04 300.142 Q1057.21 299.934 1056.19 299.934 Q1052.58 299.934 1050.64 302.295 Q1048.72 304.633 1048.72 309.031 L1048.72 322.688 L1044.43 322.688 L1044.43 296.762 L1048.72 296.762 L1048.72 300.79 Q1050.06 298.429 1052.21 297.295 Q1054.36 296.137 1057.44 296.137 Q1057.88 296.137 1058.41 296.207 Q1058.95 296.253 1059.59 296.369 L1059.62 300.744 Z" fill="#000000" fill-rule="nonzero" fill-opacity="1" /><path clip-path="url(#clip690)" d="M1083.44 301.739 Q1085.03 298.869 1087.26 297.503 Q1089.48 296.137 1092.49 296.137 Q1096.54 296.137 1098.74 298.985 Q1100.94 301.809 1100.94 307.04 L1100.94 322.688 L1096.65 322.688 L1096.65 307.179 Q1096.65 303.452 1095.34 301.647 Q1094.02 299.841 1091.31 299.841 Q1088 299.841 1086.08 302.04 Q1084.15 304.239 1084.15 308.035 L1084.15 322.688 L1079.87 322.688 L1079.87 307.179 Q1079.87 303.429 1078.55 301.647 Q1077.23 299.841 1074.48 299.841 Q1071.22 299.841 1069.29 302.063 Q1067.37 304.262 1067.37 308.035 L1067.37 322.688 L1063.09 322.688 L1063.09 296.762 L1067.37 296.762 L1067.37 300.79 Q1068.83 298.406 1070.87 297.272 Q1072.9 296.137 1075.71 296.137 Q1078.53 296.137 1080.5 297.573 Q1082.49 299.008 1083.44 301.739 Z" fill="#000000" fill-rule="nonzero" fill-opacity="1" /><path clip-path="url(#clip690)" d="M1121.21 309.656 Q1116.05 309.656 1114.06 310.836 Q1112.07 312.017 1112.07 314.864 Q1112.07 317.133 1113.55 318.475 Q1115.06 319.795 1117.63 319.795 Q1121.17 319.795 1123.3 317.295 Q1125.45 314.772 1125.45 310.605 L1125.45 309.656 L1121.21 309.656 M1129.71 307.897 L1129.71 322.688 L1125.45 322.688 L1125.45 318.753 Q1123.99 321.114 1121.82 322.248 Q1119.64 323.359 1116.49 323.359 Q1112.51 323.359 1110.15 321.137 Q1107.81 318.892 1107.81 315.142 Q1107.81 310.767 1110.73 308.545 Q1113.67 306.323 1119.48 306.323 L1125.45 306.323 L1125.45 305.906 Q1125.45 302.966 1123.51 301.369 Q1121.59 299.748 1118.09 299.748 Q1115.87 299.748 1113.76 300.281 Q1111.65 300.813 1109.71 301.878 L1109.71 297.943 Q1112.05 297.04 1114.25 296.6 Q1116.45 296.137 1118.53 296.137 Q1124.15 296.137 1126.93 299.054 Q1129.71 301.971 1129.71 307.897 Z" fill="#000000" fill-rule="nonzero" fill-opacity="1" /><path clip-path="url(#clip690)" d="M1138.48 286.67 L1142.74 286.67 L1142.74 322.688 L1138.48 322.688 L1138.48 286.67 Z" fill="#000000" fill-rule="nonzero" fill-opacity="1" /><path clip-path="url(#clip690)" d="M1184.39 303.318 Q1184.39 303.646 1184.18 304.419 L1179.59 322.735 Q1178.58 326.811 1175.3 329.668 Q1172.05 332.526 1168.35 332.526 Q1166.12 332.526 1164.69 331.331 Q1163.26 330.16 1163.26 328.356 Q1163.26 326.764 1164.11 325.991 Q1164.95 325.241 1165.96 325.241 Q1166.28 325.241 1166.64 325.335 Q1166.99 325.429 1167.36 325.827 Q1167.74 326.225 1167.74 326.904 Q1167.74 328.005 1166.78 328.872 Q1166.31 329.27 1165.86 329.364 Q1165.44 329.457 1164.72 329.457 Q1165 330.113 1165.51 330.558 Q1166.03 331.003 1166.61 331.167 Q1167.2 331.354 1167.57 331.401 Q1167.97 331.472 1168.35 331.472 Q1171.34 331.472 1173.64 328.45 Q1174.32 327.537 1174.81 326.623 Q1175.33 325.733 1175.7 324.632 Q1176.08 323.555 1176.24 322.969 Q1176.43 322.384 1176.75 321.049 Q1174.58 323.227 1171.91 323.227 Q1170.78 323.227 1169.77 322.922 Q1168.79 322.618 1167.92 321.985 Q1167.06 321.33 1166.54 320.182 Q1166.05 319.034 1166.05 317.512 Q1166.05 315.896 1166.68 313.694 Q1167.32 311.492 1168.84 307.44 Q1169.66 305.168 1169.66 304.067 Q1169.66 303.529 1169.54 303.201 Q1169.42 302.849 1169.19 302.732 Q1168.95 302.592 1168.81 302.568 Q1168.7 302.545 1168.46 302.545 Q1167.08 302.545 1165.79 303.95 Q1164.5 305.356 1163.61 308.494 Q1163.43 309.08 1163.31 309.22 Q1163.19 309.361 1162.84 309.361 Q1162.26 309.337 1162.26 308.869 Q1162.26 308.682 1162.47 307.955 Q1162.68 307.206 1163.17 306.105 Q1163.68 304.981 1164.39 303.974 Q1165.09 302.943 1166.19 302.217 Q1167.32 301.491 1168.6 301.491 Q1170.36 301.491 1171.44 302.639 Q1172.54 303.763 1172.54 305.426 Q1172.54 306.105 1172.35 306.714 Q1172.19 307.3 1171.58 308.869 Q1169.12 315.193 1169.12 318.285 Q1169.12 319.034 1169.24 319.667 Q1169.38 320.276 1169.68 320.885 Q1169.99 321.47 1170.59 321.822 Q1171.23 322.149 1172.09 322.149 Q1173.19 322.149 1174.23 321.634 Q1175.28 321.095 1175.93 320.369 Q1176.61 319.643 1177.01 319.034 Q1177.43 318.402 1177.53 318.074 L1179.68 309.454 L1180.64 305.613 Q1181.09 303.529 1181.3 303.013 Q1181.58 302.521 1182.07 302.264 Q1182.56 302.006 1182.99 302.006 Q1183.57 302.006 1183.97 302.357 Q1184.39 302.709 1184.39 303.318 Z" fill="#000000" fill-rule="nonzero" fill-opacity="1" /><path clip-path="url(#clip690)" d="M1198.83 315.404 Q1198.88 314.818 1199.79 314.818 L1229.19 314.818 Q1230.57 314.818 1230.59 315.357 Q1230.59 315.943 1229.28 315.919 L1200.12 315.919 Q1198.83 315.943 1198.83 315.404 M1198.83 306.035 Q1198.83 305.449 1199.84 305.473 L1229.14 305.473 Q1230.57 305.473 1230.59 306.035 Q1230.59 306.574 1229.37 306.574 L1199.79 306.574 Q1198.83 306.574 1198.83 306.035 Z" fill="#000000" fill-rule="nonzero" fill-opacity="1" /><path clip-path="url(#clip690)" d="M1249.09 324.713 L1249.09 323.237 L1263.82 300.728 Q1264.2 300.142 1264.78 300.166 Q1265.32 300.166 1265.44 300.377 Q1265.56 300.588 1265.56 301.407 L1265.56 323.237 L1270.36 323.237 L1270.36 324.713 L1265.56 324.713 L1265.56 328.882 Q1265.56 330.264 1266.12 330.709 Q1266.7 331.154 1269.19 331.154 L1270.19 331.154 L1270.19 332.629 Q1268.23 332.489 1263.68 332.489 Q1259.16 332.489 1257.19 332.629 L1257.19 331.154 L1258.2 331.154 Q1260.68 331.154 1261.27 330.732 Q1261.86 330.287 1261.86 328.882 L1261.86 324.713 L1249.09 324.713 M1250.45 323.237 L1262.14 323.237 L1262.14 305.342 L1250.45 323.237 Z" fill="#000000" fill-rule="nonzero" fill-opacity="1" /><path clip-path="url(#clip690)" d="M1273.57 331.856 Q1272.84 331.084 1272.84 330.076 Q1272.84 329.069 1273.57 328.343 Q1274.3 327.594 1275.4 327.594 Q1276.45 327.594 1277.15 328.296 Q1277.88 328.976 1277.88 330.1 Q1277.88 331.201 1277.11 331.927 Q1276.36 332.629 1275.4 332.629 Q1274.3 332.629 1273.57 331.856 Z" fill="#000000" fill-rule="nonzero" fill-opacity="1" /><path clip-path="url(#clip690)" d="M1286.04 326.165 Q1286.04 324.736 1286.86 324.057 Q1287.68 323.378 1288.74 323.378 Q1289.84 323.378 1290.61 324.104 Q1291.41 324.806 1291.41 326.048 Q1291.41 327.383 1290.47 328.132 Q1289.56 328.882 1288.24 328.694 Q1289.39 330.615 1291.5 331.482 Q1293.63 332.348 1295.6 332.348 Q1297.66 332.348 1299.32 330.568 Q1301.01 328.788 1301.01 324.432 Q1301.01 320.731 1299.56 318.599 Q1298.13 316.468 1295.29 316.468 L1293.19 316.468 Q1292.46 316.468 1292.25 316.398 Q1292.04 316.327 1292.04 315.929 Q1292.04 315.461 1292.76 315.367 Q1293.49 315.367 1294.64 315.227 Q1297.43 315.133 1298.9 312.72 Q1300.24 310.472 1300.24 307.263 Q1300.24 304.335 1298.83 303.117 Q1297.45 301.876 1295.65 301.876 Q1293.96 301.876 1292.11 302.578 Q1290.26 303.281 1289.25 304.85 Q1292.23 304.85 1292.23 307.263 Q1292.23 308.317 1291.55 309.02 Q1290.89 309.699 1289.79 309.699 Q1288.74 309.699 1288.03 309.043 Q1287.33 308.364 1287.33 307.216 Q1287.33 304.476 1289.77 302.578 Q1292.23 300.681 1295.83 300.681 Q1299.39 300.681 1302.02 302.555 Q1304.66 304.429 1304.66 307.31 Q1304.66 310.144 1302.79 312.463 Q1300.92 314.782 1297.94 315.742 Q1301.59 316.468 1303.77 318.951 Q1305.95 321.41 1305.95 324.432 Q1305.95 328.179 1303 330.943 Q1300.05 333.683 1295.74 333.683 Q1291.76 333.683 1288.9 331.529 Q1286.04 329.374 1286.04 326.165 Z" fill="#000000" fill-rule="nonzero" fill-opacity="1" /><path clip-path="url(#clip690)" d="M1306.94 324.713 L1306.94 323.237 L1321.67 300.728 Q1322.05 300.142 1322.63 300.166 Q1323.17 300.166 1323.29 300.377 Q1323.4 300.588 1323.4 301.407 L1323.4 323.237 L1328.21 323.237 L1328.21 324.713 L1323.4 324.713 L1323.4 328.882 Q1323.4 330.264 1323.97 330.709 Q1324.55 331.154 1327.03 331.154 L1328.04 331.154 L1328.04 332.629 Q1326.07 332.489 1321.53 332.489 Q1317.01 332.489 1315.04 332.629 L1315.04 331.154 L1316.05 331.154 Q1318.53 331.154 1319.12 330.732 Q1319.7 330.287 1319.7 328.882 L1319.7 324.713 L1306.94 324.713 M1308.3 323.237 L1319.98 323.237 L1319.98 305.342 L1308.3 323.237 Z" fill="#000000" fill-rule="nonzero" fill-opacity="1" /><path clip-path="url(#clip690)" d="M1331.84 317.475 Q1331.84 309.933 1335.68 305.319 Q1339.53 300.681 1344.47 300.681 Q1347.35 300.681 1348.94 302.157 Q1350.56 303.609 1350.56 305.858 Q1350.56 307.099 1349.83 307.638 Q1349.11 308.176 1348.36 308.176 Q1347.49 308.176 1346.81 307.591 Q1346.13 307.005 1346.13 305.951 Q1346.13 303.796 1348.78 303.796 Q1347.54 301.876 1344.56 301.876 Q1343.65 301.876 1342.71 302.157 Q1341.77 302.414 1340.56 303.305 Q1339.34 304.195 1338.4 305.6 Q1337.46 307.005 1336.81 309.652 Q1336.15 312.299 1336.15 315.742 L1336.15 316.89 Q1338.12 312.135 1342.15 312.158 Q1346.18 312.158 1348.96 315.227 Q1351.75 318.295 1351.75 322.839 Q1351.75 327.5 1348.85 330.592 Q1345.94 333.683 1341.87 333.683 Q1340.04 333.683 1338.38 332.91 Q1336.74 332.161 1335.19 330.428 Q1333.67 328.694 1332.76 325.368 Q1331.84 322.042 1331.84 317.475 M1336.25 321.785 Q1336.25 326.493 1337.11 328.741 Q1337.25 329.116 1337.56 329.631 Q1337.89 330.147 1338.42 330.826 Q1338.99 331.482 1339.9 331.927 Q1340.81 332.348 1341.87 332.348 Q1345.08 332.348 1346.62 329.233 Q1347.44 327.5 1347.44 322.792 Q1347.44 317.99 1346.58 316.234 Q1345.1 313.259 1342.1 313.259 Q1340.09 313.259 1338.68 314.641 Q1337.3 316.023 1336.76 317.873 Q1336.25 319.724 1336.25 321.785 Z" fill="#000000" fill-rule="nonzero" fill-opacity="1" /><path clip-path="url(#clip690)" d="M1355.79 324.9 Q1355.79 323.471 1356.56 322.933 Q1357.33 322.37 1358.15 322.37 Q1359.25 322.37 1359.89 323.073 Q1360.54 323.752 1360.54 324.713 Q1360.54 325.673 1359.89 326.376 Q1359.25 327.055 1358.15 327.055 Q1357.61 327.055 1357.33 326.961 Q1357.97 329.163 1359.89 330.756 Q1361.83 332.348 1364.38 332.348 Q1367.59 332.348 1369.51 329.233 Q1370.66 327.219 1370.66 322.651 Q1370.66 318.623 1369.79 316.608 Q1368.46 313.54 1365.72 313.54 Q1361.83 313.54 1359.54 316.89 Q1359.25 317.311 1358.93 317.335 Q1358.46 317.335 1358.34 317.077 Q1358.25 316.796 1358.25 316.07 L1358.25 301.876 Q1358.25 300.728 1358.72 300.728 Q1358.9 300.728 1359.3 300.869 Q1362.32 302.204 1365.67 302.227 Q1369.12 302.227 1372.21 300.822 Q1372.44 300.681 1372.58 300.681 Q1373.05 300.681 1373.07 301.22 Q1373.07 301.407 1372.68 301.969 Q1372.3 302.508 1371.48 303.234 Q1370.66 303.937 1369.61 304.616 Q1368.55 305.295 1367.01 305.764 Q1365.48 306.209 1363.8 306.209 Q1361.78 306.209 1359.72 305.576 L1359.72 314.922 Q1362.21 312.486 1365.81 312.486 Q1369.65 312.486 1372.3 315.578 Q1374.95 318.67 1374.95 322.979 Q1374.95 327.5 1371.81 330.592 Q1368.69 333.683 1364.48 333.683 Q1360.64 333.683 1358.2 330.943 Q1355.79 328.203 1355.79 324.9 Z" fill="#000000" fill-rule="nonzero" fill-opacity="1" /><path clip-path="url(#clip690)" d="M1377.53 310.074 L1379.1 300.213 L1380.29 300.213 Q1380.44 300.798 1380.67 301.056 Q1380.93 301.314 1382.29 301.524 Q1383.67 301.735 1386.45 301.735 L1398.1 301.735 Q1398.1 302.836 1397.67 303.422 L1391.19 312.533 Q1389.13 315.414 1388.21 320.731 Q1387.67 324.291 1387.7 328.601 L1387.7 331.037 Q1387.7 333.683 1385.47 333.683 Q1383.27 333.683 1383.27 331.037 Q1383.27 321.879 1389.17 313.001 Q1389.8 312.088 1392.12 308.832 Q1394.47 305.576 1394.56 305.436 L1384.63 305.436 Q1380.27 305.436 1379.92 305.717 Q1379.45 306.139 1378.73 310.074 L1377.53 310.074 Z" fill="#000000" fill-rule="nonzero" fill-opacity="1" /><path clip-path="url(#clip690)" d="M1397.55 326.165 Q1397.55 324.736 1398.37 324.057 Q1399.19 323.378 1400.24 323.378 Q1401.34 323.378 1402.11 324.104 Q1402.91 324.806 1402.91 326.048 Q1402.91 327.383 1401.97 328.132 Q1401.06 328.882 1399.75 328.694 Q1400.9 330.615 1403 331.482 Q1405.13 332.348 1407.1 332.348 Q1409.16 332.348 1410.83 330.568 Q1412.51 328.788 1412.51 324.432 Q1412.51 320.731 1411.06 318.599 Q1409.63 316.468 1406.8 316.468 L1404.69 316.468 Q1403.96 316.468 1403.75 316.398 Q1403.54 316.327 1403.54 315.929 Q1403.54 315.461 1404.27 315.367 Q1404.99 315.367 1406.14 315.227 Q1408.93 315.133 1410.41 312.72 Q1411.74 310.472 1411.74 307.263 Q1411.74 304.335 1410.33 303.117 Q1408.95 301.876 1407.15 301.876 Q1405.46 301.876 1403.61 302.578 Q1401.76 303.281 1400.75 304.85 Q1403.73 304.85 1403.73 307.263 Q1403.73 308.317 1403.05 309.02 Q1402.39 309.699 1401.29 309.699 Q1400.24 309.699 1399.54 309.043 Q1398.83 308.364 1398.83 307.216 Q1398.83 304.476 1401.27 302.578 Q1403.73 300.681 1407.34 300.681 Q1410.9 300.681 1413.52 302.555 Q1416.17 304.429 1416.17 307.31 Q1416.17 310.144 1414.29 312.463 Q1412.42 314.782 1409.44 315.742 Q1413.1 316.468 1415.28 318.951 Q1417.46 321.41 1417.46 324.432 Q1417.46 328.179 1414.5 330.943 Q1411.55 333.683 1407.24 333.683 Q1403.26 333.683 1400.4 331.529 Q1397.55 329.374 1397.55 326.165 Z" fill="#000000" fill-rule="nonzero" fill-opacity="1" /><path clip-path="url(#clip690)" d="M1421.49 324.9 Q1421.49 323.471 1422.26 322.933 Q1423.04 322.37 1423.86 322.37 Q1424.96 322.37 1425.59 323.073 Q1426.25 323.752 1426.25 324.713 Q1426.25 325.673 1425.59 326.376 Q1424.96 327.055 1423.86 327.055 Q1423.32 327.055 1423.04 326.961 Q1423.67 329.163 1425.59 330.756 Q1427.53 332.348 1430.09 332.348 Q1433.3 332.348 1435.22 329.233 Q1436.36 327.219 1436.36 322.651 Q1436.36 318.623 1435.5 316.608 Q1434.16 313.54 1431.42 313.54 Q1427.53 313.54 1425.24 316.89 Q1424.96 317.311 1424.63 317.335 Q1424.16 317.335 1424.04 317.077 Q1423.95 316.796 1423.95 316.07 L1423.95 301.876 Q1423.95 300.728 1424.42 300.728 Q1424.61 300.728 1425 300.869 Q1428.03 302.204 1431.38 302.227 Q1434.82 302.227 1437.91 300.822 Q1438.14 300.681 1438.29 300.681 Q1438.75 300.681 1438.78 301.22 Q1438.78 301.407 1438.38 301.969 Q1438 302.508 1437.18 303.234 Q1436.36 303.937 1435.31 304.616 Q1434.26 305.295 1432.71 305.764 Q1431.19 306.209 1429.5 306.209 Q1427.49 306.209 1425.43 305.576 L1425.43 314.922 Q1427.91 312.486 1431.52 312.486 Q1435.36 312.486 1438 315.578 Q1440.65 318.67 1440.65 322.979 Q1440.65 327.5 1437.51 330.592 Q1434.4 333.683 1430.18 333.683 Q1426.34 333.683 1423.9 330.943 Q1421.49 328.203 1421.49 324.9 Z" fill="#000000" fill-rule="nonzero" fill-opacity="1" /><path clip-path="url(#clip690)" d="M1445.44 311.479 Q1445.44 308.926 1446.19 307.193 Q1446.94 305.436 1448.5 303.703 Q1451.39 300.681 1455.55 300.681 Q1457.33 300.681 1458.9 301.431 Q1460.5 302.18 1462 303.89 Q1463.52 305.576 1464.43 308.926 Q1465.35 312.252 1465.35 316.843 Q1465.35 324.268 1461.74 328.976 Q1458.15 333.683 1453.31 333.683 Q1450.24 333.683 1448.43 332.302 Q1446.63 330.896 1446.63 328.507 Q1446.63 327.266 1447.33 326.75 Q1448.04 326.212 1448.83 326.212 Q1449.7 326.212 1450.38 326.797 Q1451.06 327.359 1451.06 328.413 Q1451.06 329.28 1450.5 329.959 Q1449.96 330.615 1448.55 330.615 Q1449.93 332.348 1453.26 332.348 Q1454.45 332.348 1455.65 331.81 Q1456.84 331.247 1458.13 329.912 Q1459.44 328.554 1460.24 325.72 Q1461.04 322.886 1461.04 318.904 L1461.04 317.381 Q1459.12 322.183 1455.04 322.183 Q1451.01 322.183 1448.22 319.091 Q1445.44 315.999 1445.44 311.479 M1449.75 311.526 Q1449.75 316.281 1450.61 318.037 Q1452.09 321.059 1455.09 321.059 Q1458.01 321.059 1459.47 318.459 Q1460.94 315.836 1460.94 312.439 Q1460.94 307.731 1460.17 305.67 Q1458.74 301.876 1455.55 301.876 Q1452.39 301.876 1450.75 304.897 Q1449.75 306.677 1449.75 311.526 Z" fill="#000000" fill-rule="nonzero" fill-opacity="1" /><path clip-path="url(#clip690)" d="M1469.38 317.288 Q1469.38 310.238 1471.16 306.396 Q1473.64 300.681 1479.5 300.681 Q1480.74 300.681 1482.03 301.033 Q1483.34 301.36 1484.98 302.649 Q1486.64 303.937 1487.65 306.045 Q1489.57 310.12 1489.57 317.288 Q1489.57 324.291 1487.79 328.109 Q1485.19 333.683 1479.45 333.683 Q1477.3 333.683 1475.1 332.583 Q1472.92 331.482 1471.54 328.835 Q1469.38 324.877 1469.38 317.288 M1473.36 316.702 Q1473.36 323.94 1473.88 326.821 Q1474.46 329.936 1476.06 331.294 Q1477.67 332.629 1479.45 332.629 Q1481.37 332.629 1482.97 331.201 Q1484.58 329.748 1485.07 326.633 Q1485.61 323.565 1485.59 316.702 Q1485.59 310.027 1485.12 307.357 Q1484.49 304.241 1482.8 303 Q1481.14 301.735 1479.45 301.735 Q1478.82 301.735 1478.14 301.923 Q1477.49 302.11 1476.53 302.649 Q1475.56 303.187 1474.82 304.522 Q1474.09 305.858 1473.74 307.872 Q1473.36 310.472 1473.36 316.702 Z" fill="#000000" fill-rule="nonzero" fill-opacity="1" /><path clip-path="url(#clip690)" d="M1493.33 332.629 Q1493.33 331.763 1493.4 331.505 Q1493.49 331.247 1493.87 330.849 L1503.07 320.59 Q1508.11 314.922 1508.11 309.98 Q1508.11 306.771 1506.42 304.476 Q1504.76 302.18 1501.69 302.18 Q1499.58 302.18 1497.8 303.468 Q1496.02 304.757 1495.2 307.052 Q1495.34 307.005 1495.83 307.005 Q1497.03 307.005 1497.68 307.755 Q1498.36 308.504 1498.36 309.511 Q1498.36 310.8 1497.52 311.432 Q1496.7 312.041 1495.88 312.041 Q1495.55 312.041 1495.11 311.971 Q1494.69 311.901 1494.01 311.245 Q1493.33 310.565 1493.33 309.371 Q1493.33 306.022 1495.86 303.351 Q1498.41 300.681 1502.3 300.681 Q1506.7 300.681 1509.58 303.305 Q1512.49 305.904 1512.49 309.98 Q1512.49 311.409 1512.04 312.72 Q1511.62 314.009 1511.03 315.016 Q1510.47 316.023 1508.93 317.639 Q1507.38 319.255 1506.14 320.403 Q1504.9 321.551 1502.11 323.987 L1497.03 328.929 L1505.67 328.929 Q1509.89 328.929 1510.21 328.554 Q1510.68 327.875 1511.27 324.291 L1512.49 324.291 L1511.13 332.629 L1493.33 332.629 Z" fill="#000000" fill-rule="nonzero" fill-opacity="1" /><path clip-path="url(#clip690)" d="M1515.37 310.074 L1516.94 300.213 L1518.14 300.213 Q1518.28 300.798 1518.51 301.056 Q1518.77 301.314 1520.13 301.524 Q1521.51 301.735 1524.3 301.735 L1535.94 301.735 Q1535.94 302.836 1535.52 303.422 L1529.03 312.533 Q1526.97 315.414 1526.05 320.731 Q1525.51 324.291 1525.54 328.601 L1525.54 331.037 Q1525.54 333.683 1523.31 333.683 Q1521.11 333.683 1521.11 331.037 Q1521.11 321.879 1527.01 313.001 Q1527.65 312.088 1529.96 308.832 Q1532.31 305.576 1532.4 305.436 L1522.47 305.436 Q1518.11 305.436 1517.76 305.717 Q1517.29 306.139 1516.57 310.074 L1515.37 310.074 Z" fill="#000000" fill-rule="nonzero" fill-opacity="1" /><path clip-path="url(#clip690)" d="M1538.36 311.479 Q1538.36 308.926 1539.11 307.193 Q1539.86 305.436 1541.43 303.703 Q1544.31 300.681 1548.48 300.681 Q1550.26 300.681 1551.82 301.431 Q1553.42 302.18 1554.92 303.89 Q1556.44 305.576 1557.35 308.926 Q1558.27 312.252 1558.27 316.843 Q1558.27 324.268 1554.66 328.976 Q1551.08 333.683 1546.23 333.683 Q1543.16 333.683 1541.35 332.302 Q1539.55 330.896 1539.55 328.507 Q1539.55 327.266 1540.25 326.75 Q1540.96 326.212 1541.75 326.212 Q1542.62 326.212 1543.3 326.797 Q1543.98 327.359 1543.98 328.413 Q1543.98 329.28 1543.42 329.959 Q1542.88 330.615 1541.47 330.615 Q1542.85 332.348 1546.18 332.348 Q1547.37 332.348 1548.57 331.81 Q1549.76 331.247 1551.05 329.912 Q1552.36 328.554 1553.16 325.72 Q1553.96 322.886 1553.96 318.904 L1553.96 317.381 Q1552.04 322.183 1547.96 322.183 Q1543.93 322.183 1541.14 319.091 Q1538.36 315.999 1538.36 311.479 M1542.67 311.526 Q1542.67 316.281 1543.53 318.037 Q1545.01 321.059 1548.01 321.059 Q1550.93 321.059 1552.39 318.459 Q1553.86 315.836 1553.86 312.439 Q1553.86 307.731 1553.09 305.67 Q1551.66 301.876 1548.48 301.876 Q1545.31 301.876 1543.67 304.897 Q1542.67 306.677 1542.67 311.526 Z" fill="#000000" fill-rule="nonzero" fill-opacity="1" /><path clip-path="url(#clip690)" d="M1562.3 311.479 Q1562.3 308.926 1563.05 307.193 Q1563.8 305.436 1565.37 303.703 Q1568.25 300.681 1572.42 300.681 Q1574.2 300.681 1575.77 301.431 Q1577.36 302.18 1578.86 303.89 Q1580.38 305.576 1581.3 308.926 Q1582.21 312.252 1582.21 316.843 Q1582.21 324.268 1578.6 328.976 Q1575.02 333.683 1570.17 333.683 Q1567.1 333.683 1565.3 332.302 Q1563.5 330.896 1563.5 328.507 Q1563.5 327.266 1564.2 326.75 Q1564.9 326.212 1565.7 326.212 Q1566.56 326.212 1567.24 326.797 Q1567.92 327.359 1567.92 328.413 Q1567.92 329.28 1567.36 329.959 Q1566.82 330.615 1565.42 330.615 Q1566.8 332.348 1570.13 332.348 Q1571.32 332.348 1572.51 331.81 Q1573.71 331.247 1575 329.912 Q1576.31 328.554 1577.1 325.72 Q1577.9 322.886 1577.9 318.904 L1577.9 317.381 Q1575.98 322.183 1571.91 322.183 Q1567.88 322.183 1565.09 319.091 Q1562.3 315.999 1562.3 311.479 M1566.61 311.526 Q1566.61 316.281 1567.48 318.037 Q1568.95 321.059 1571.95 321.059 Q1574.88 321.059 1576.33 318.459 Q1577.81 315.836 1577.81 312.439 Q1577.81 307.731 1577.03 305.67 Q1575.61 301.876 1572.42 301.876 Q1569.26 301.876 1567.62 304.897 Q1566.61 306.677 1566.61 311.526 Z" fill="#000000" fill-rule="nonzero" fill-opacity="1" /><path clip-path="url(#clip690)" d="M1584.46 310.074 L1586.03 300.213 L1587.22 300.213 Q1587.36 300.798 1587.6 301.056 Q1587.85 301.314 1589.21 301.524 Q1590.59 301.735 1593.38 301.735 L1605.02 301.735 Q1605.02 302.836 1604.6 303.422 L1598.11 312.533 Q1596.05 315.414 1595.14 320.731 Q1594.6 324.291 1594.62 328.601 L1594.62 331.037 Q1594.62 333.683 1592.4 333.683 Q1590.2 333.683 1590.2 331.037 Q1590.2 321.879 1596.1 313.001 Q1596.73 312.088 1599.05 308.832 Q1601.39 305.576 1601.49 305.436 L1591.55 305.436 Q1587.2 305.436 1586.85 305.717 Q1586.38 306.139 1585.65 310.074 L1584.46 310.074 Z" fill="#000000" fill-rule="nonzero" fill-opacity="1" /><path clip-path="url(#clip690)" d="M1653.19 319.958 Q1653.47 320.239 1653.47 320.637 Q1653.47 321.035 1653.19 321.316 Q1652.9 321.597 1652.51 321.597 L1622.48 321.597 Q1622.08 321.597 1621.8 321.316 Q1621.52 321.035 1621.52 320.637 Q1621.52 320.239 1621.8 319.958 Q1622.08 319.677 1622.48 319.677 L1652.51 319.677 Q1652.9 319.677 1653.19 319.958 Z" fill="#000000" fill-rule="nonzero" fill-opacity="1" /><path clip-path="url(#clip690)" d="M1671.78 324.713 L1671.78 323.237 L1686.51 300.728 Q1686.89 300.142 1687.47 300.166 Q1688.01 300.166 1688.13 300.377 Q1688.24 300.588 1688.24 301.407 L1688.24 323.237 L1693.05 323.237 L1693.05 324.713 L1688.24 324.713 L1688.24 328.882 Q1688.24 330.264 1688.81 330.709 Q1689.39 331.154 1691.88 331.154 L1692.88 331.154 L1692.88 332.629 Q1690.91 332.489 1686.37 332.489 Q1681.85 332.489 1679.88 332.629 L1679.88 331.154 L1680.89 331.154 Q1683.37 331.154 1683.96 330.732 Q1684.54 330.287 1684.54 328.882 L1684.54 324.713 L1671.78 324.713 M1673.14 323.237 L1684.82 323.237 L1684.82 305.342 L1673.14 323.237 Z" fill="#000000" fill-rule="nonzero" fill-opacity="1" /><path clip-path="url(#clip690)" d="M1713.17 318.857 Q1713.92 319.607 1713.92 320.637 Q1713.92 321.668 1713.17 322.441 Q1712.42 323.19 1711.39 323.19 Q1710.36 323.19 1709.59 322.441 Q1708.84 321.668 1708.84 320.637 Q1708.84 319.607 1709.59 318.857 Q1710.36 318.084 1711.39 318.084 Q1712.42 318.084 1713.17 318.857 Z" fill="#000000" fill-rule="nonzero" fill-opacity="1" /><path clip-path="url(#clip690)" d="M1759.24 314.594 Q1759.24 315.906 1758.42 316.655 Q1757.6 317.381 1756.66 317.381 Q1755.77 317.381 1755.3 316.866 Q1754.83 316.351 1754.83 315.695 Q1754.83 314.805 1755.49 314.032 Q1756.15 313.259 1757.13 313.095 Q1756.17 312.486 1754.74 312.486 Q1753.8 312.486 1752.98 312.978 Q1752.19 313.47 1751.7 314.102 Q1751.23 314.735 1750.81 315.648 Q1750.41 316.538 1750.24 317.077 Q1750.1 317.592 1749.99 318.154 L1748.35 324.713 Q1747.55 327.828 1747.55 328.929 Q1747.55 330.287 1748.21 331.201 Q1748.86 332.091 1750.17 332.091 Q1750.69 332.091 1751.27 331.95 Q1751.86 331.786 1752.61 331.365 Q1753.38 330.92 1754.06 330.264 Q1754.76 329.584 1755.44 328.437 Q1756.12 327.289 1756.57 325.813 Q1756.71 325.298 1757.18 325.298 Q1757.76 325.298 1757.76 325.767 Q1757.76 326.165 1757.43 327.008 Q1757.13 327.828 1756.45 328.905 Q1755.79 329.959 1754.93 330.92 Q1754.06 331.856 1752.77 332.512 Q1751.49 333.168 1750.08 333.168 Q1748.07 333.168 1746.73 332.091 Q1745.4 331.013 1744.9 329.514 Q1744.79 329.725 1744.62 330.006 Q1744.46 330.287 1743.97 330.92 Q1743.5 331.529 1742.96 331.997 Q1742.42 332.442 1741.58 332.793 Q1740.76 333.168 1739.87 333.168 Q1738.74 333.168 1737.74 332.84 Q1736.75 332.512 1736.05 331.763 Q1735.35 331.013 1735.35 329.983 Q1735.35 328.835 1736.12 328.039 Q1736.92 327.219 1737.99 327.219 Q1738.67 327.219 1739.21 327.617 Q1739.77 328.015 1739.77 328.882 Q1739.77 329.842 1739.12 330.568 Q1738.46 331.294 1737.53 331.482 Q1738.49 332.091 1739.91 332.091 Q1741.46 332.091 1742.68 330.732 Q1743.9 329.374 1744.48 327.102 Q1745.93 321.644 1746.5 319.208 Q1747.06 316.749 1747.06 315.695 Q1747.06 314.711 1746.8 314.032 Q1746.54 313.353 1746.1 313.048 Q1745.68 312.72 1745.28 312.603 Q1744.9 312.486 1744.48 312.486 Q1743.78 312.486 1742.98 312.767 Q1742.21 313.048 1741.27 313.704 Q1740.36 314.336 1739.49 315.648 Q1738.63 316.96 1738.04 318.763 Q1737.92 319.302 1737.41 319.302 Q1736.85 319.279 1736.85 318.81 Q1736.85 318.412 1737.15 317.592 Q1737.48 316.749 1738.13 315.695 Q1738.81 314.641 1739.68 313.704 Q1740.57 312.744 1741.86 312.088 Q1743.17 311.432 1744.58 311.432 Q1745.21 311.432 1745.82 311.573 Q1746.45 311.69 1747.2 312.041 Q1747.97 312.392 1748.65 313.165 Q1749.33 313.938 1749.75 315.063 Q1750.03 314.524 1750.41 314.009 Q1750.81 313.493 1751.41 312.861 Q1752.05 312.205 1752.91 311.83 Q1753.8 311.432 1754.79 311.432 Q1755.75 311.432 1756.68 311.69 Q1757.62 311.924 1758.42 312.697 Q1759.24 313.446 1759.24 314.594 Z" fill="#000000" fill-rule="nonzero" fill-opacity="1" /></svg>
