<?xml version="1.0" encoding="utf-8"?>
<svg xmlns="http://www.w3.org/2000/svg" xmlns:xlink="http://www.w3.org/1999/xlink" width="528" height="336" viewBox="0 0 2112 1344">
<defs>
  <clipPath id="clip610">
    <rect x="0" y="0" width="2112" height="1344"/>
  </clipPath>
</defs>
<path clip-path="url(#clip610)" d="M0 1344 L2112 1344 L2112 0 L0 0  Z" fill="#ffffff" fill-rule="evenodd" fill-opacity="1"/>
<defs>
  <clipPath id="clip611">
    <rect x="422" y="0" width="1479" height="1344"/>
  </clipPath>
</defs>
<path clip-path="url(#clip610)" d="M109.297 1234.58 L2064.76 1234.58 L2064.76 47.2441 L109.297 47.2441  Z" fill="#ffffff" fill-rule="evenodd" fill-opacity="1"/>
<defs>
  <clipPath id="clip612">
    <rect x="109" y="47" width="1956" height="1188"/>
  </clipPath>
</defs>
<polyline clip-path="url(#clip612)" style="stroke:#000000; stroke-linecap:round; stroke-linejoin:round; stroke-width:2; stroke-opacity:0.1; fill:none" points="349.118,1234.58 349.118,47.2441 "/>
<polyline clip-path="url(#clip612)" style="stroke:#000000; stroke-linecap:round; stroke-linejoin:round; stroke-width:2; stroke-opacity:0.1; fill:none" points="718.072,1234.58 718.072,47.2441 "/>
<polyline clip-path="url(#clip612)" style="stroke:#000000; stroke-linecap:round; stroke-linejoin:round; stroke-width:2; stroke-opacity:0.1; fill:none" points="1087.03,1234.58 1087.03,47.2441 "/>
<polyline clip-path="url(#clip612)" style="stroke:#000000; stroke-linecap:round; stroke-linejoin:round; stroke-width:2; stroke-opacity:0.1; fill:none" points="1455.98,1234.58 1455.98,47.2441 "/>
<polyline clip-path="url(#clip612)" style="stroke:#000000; stroke-linecap:round; stroke-linejoin:round; stroke-width:2; stroke-opacity:0.1; fill:none" points="1824.94,1234.58 1824.94,47.2441 "/>
<polyline clip-path="url(#clip612)" style="stroke:#000000; stroke-linecap:round; stroke-linejoin:round; stroke-width:2; stroke-opacity:0.1; fill:none" points="109.297,1200.98 2064.76,1200.98 "/>
<polyline clip-path="url(#clip612)" style="stroke:#000000; stroke-linecap:round; stroke-linejoin:round; stroke-width:2; stroke-opacity:0.1; fill:none" points="109.297,1014.29 2064.76,1014.29 "/>
<polyline clip-path="url(#clip612)" style="stroke:#000000; stroke-linecap:round; stroke-linejoin:round; stroke-width:2; stroke-opacity:0.1; fill:none" points="109.297,827.6 2064.76,827.6 "/>
<polyline clip-path="url(#clip612)" style="stroke:#000000; stroke-linecap:round; stroke-linejoin:round; stroke-width:2; stroke-opacity:0.1; fill:none" points="109.297,640.912 2064.76,640.912 "/>
<polyline clip-path="url(#clip612)" style="stroke:#000000; stroke-linecap:round; stroke-linejoin:round; stroke-width:2; stroke-opacity:0.1; fill:none" points="109.297,454.224 2064.76,454.224 "/>
<polyline clip-path="url(#clip612)" style="stroke:#000000; stroke-linecap:round; stroke-linejoin:round; stroke-width:2; stroke-opacity:0.1; fill:none" points="109.297,267.536 2064.76,267.536 "/>
<polyline clip-path="url(#clip612)" style="stroke:#000000; stroke-linecap:round; stroke-linejoin:round; stroke-width:2; stroke-opacity:0.1; fill:none" points="109.297,80.8479 2064.76,80.8479 "/>
<polyline clip-path="url(#clip610)" style="stroke:#000000; stroke-linecap:round; stroke-linejoin:round; stroke-width:4; stroke-opacity:1; fill:none" points="109.297,1234.58 2064.76,1234.58 "/>
<polyline clip-path="url(#clip610)" style="stroke:#000000; stroke-linecap:round; stroke-linejoin:round; stroke-width:4; stroke-opacity:1; fill:none" points="349.118,1234.58 349.118,1215.68 "/>
<polyline clip-path="url(#clip610)" style="stroke:#000000; stroke-linecap:round; stroke-linejoin:round; stroke-width:4; stroke-opacity:1; fill:none" points="718.072,1234.58 718.072,1215.68 "/>
<polyline clip-path="url(#clip610)" style="stroke:#000000; stroke-linecap:round; stroke-linejoin:round; stroke-width:4; stroke-opacity:1; fill:none" points="1087.03,1234.58 1087.03,1215.68 "/>
<polyline clip-path="url(#clip610)" style="stroke:#000000; stroke-linecap:round; stroke-linejoin:round; stroke-width:4; stroke-opacity:1; fill:none" points="1455.98,1234.58 1455.98,1215.68 "/>
<polyline clip-path="url(#clip610)" style="stroke:#000000; stroke-linecap:round; stroke-linejoin:round; stroke-width:4; stroke-opacity:1; fill:none" points="1824.94,1234.58 1824.94,1215.68 "/>
<path clip-path="url(#clip610)" d="M318.018 1277.85 L347.694 1277.85 L347.694 1281.78 L318.018 1281.78 L318.018 1277.85 Z" fill="#000000" fill-rule="nonzero" fill-opacity="1" /><path clip-path="url(#clip610)" d="M370.634 1264.19 L358.828 1282.64 L370.634 1282.64 L370.634 1264.19 M369.407 1260.11 L375.286 1260.11 L375.286 1282.64 L380.217 1282.64 L380.217 1286.53 L375.286 1286.53 L375.286 1294.67 L370.634 1294.67 L370.634 1286.53 L355.032 1286.53 L355.032 1282.01 L369.407 1260.11 Z" fill="#000000" fill-rule="nonzero" fill-opacity="1" /><path clip-path="url(#clip610)" d="M688.014 1277.85 L717.69 1277.85 L717.69 1281.78 L688.014 1281.78 L688.014 1277.85 Z" fill="#000000" fill-rule="nonzero" fill-opacity="1" /><path clip-path="url(#clip610)" d="M731.81 1290.74 L748.13 1290.74 L748.13 1294.67 L726.185 1294.67 L726.185 1290.74 Q728.847 1287.99 733.431 1283.36 Q738.037 1278.7 739.218 1277.36 Q741.463 1274.84 742.343 1273.1 Q743.246 1271.34 743.246 1269.65 Q743.246 1266.9 741.301 1265.16 Q739.38 1263.42 736.278 1263.42 Q734.079 1263.42 731.625 1264.19 Q729.195 1264.95 726.417 1266.5 L726.417 1261.78 Q729.241 1260.65 731.695 1260.07 Q734.148 1259.49 736.185 1259.49 Q741.556 1259.49 744.75 1262.17 Q747.945 1264.86 747.945 1269.35 Q747.945 1271.48 747.134 1273.4 Q746.347 1275.3 744.241 1277.89 Q743.662 1278.56 740.56 1281.78 Q737.459 1284.98 731.81 1290.74 Z" fill="#000000" fill-rule="nonzero" fill-opacity="1" /><path clip-path="url(#clip610)" d="M1087.03 1263.19 Q1083.42 1263.19 1081.59 1266.76 Q1079.78 1270.3 1079.78 1277.43 Q1079.78 1284.54 1081.59 1288.1 Q1083.42 1291.64 1087.03 1291.64 Q1090.66 1291.64 1092.47 1288.1 Q1094.3 1284.54 1094.3 1277.43 Q1094.3 1270.3 1092.47 1266.76 Q1090.66 1263.19 1087.03 1263.19 M1087.03 1259.49 Q1092.84 1259.49 1095.89 1264.1 Q1098.97 1268.68 1098.97 1277.43 Q1098.97 1286.16 1095.89 1290.76 Q1092.84 1295.35 1087.03 1295.35 Q1081.22 1295.35 1078.14 1290.76 Q1075.08 1286.16 1075.08 1277.43 Q1075.08 1268.68 1078.14 1264.1 Q1081.22 1259.49 1087.03 1259.49 Z" fill="#000000" fill-rule="nonzero" fill-opacity="1" /><path clip-path="url(#clip610)" d="M1450.63 1290.74 L1466.95 1290.74 L1466.95 1294.67 L1445.01 1294.67 L1445.01 1290.74 Q1447.67 1287.99 1452.25 1283.36 Q1456.86 1278.7 1458.04 1277.36 Q1460.29 1274.84 1461.17 1273.1 Q1462.07 1271.34 1462.07 1269.65 Q1462.07 1266.9 1460.12 1265.16 Q1458.2 1263.42 1455.1 1263.42 Q1452.9 1263.42 1450.45 1264.19 Q1448.02 1264.95 1445.24 1266.5 L1445.24 1261.78 Q1448.06 1260.65 1450.52 1260.07 Q1452.97 1259.49 1455.01 1259.49 Q1460.38 1259.49 1463.57 1262.17 Q1466.77 1264.86 1466.77 1269.35 Q1466.77 1271.48 1465.96 1273.4 Q1465.17 1275.3 1463.06 1277.89 Q1462.49 1278.56 1459.38 1281.78 Q1456.28 1284.98 1450.63 1290.74 Z" fill="#000000" fill-rule="nonzero" fill-opacity="1" /><path clip-path="url(#clip610)" d="M1827.94 1264.19 L1816.14 1282.64 L1827.94 1282.64 L1827.94 1264.19 M1826.72 1260.11 L1832.6 1260.11 L1832.6 1282.64 L1837.53 1282.64 L1837.53 1286.53 L1832.6 1286.53 L1832.6 1294.67 L1827.94 1294.67 L1827.94 1286.53 L1812.34 1286.53 L1812.34 1282.01 L1826.72 1260.11 Z" fill="#000000" fill-rule="nonzero" fill-opacity="1" /><polyline clip-path="url(#clip610)" style="stroke:#000000; stroke-linecap:round; stroke-linejoin:round; stroke-width:4; stroke-opacity:1; fill:none" points="109.297,1234.58 109.297,47.2441 "/>
<polyline clip-path="url(#clip610)" style="stroke:#000000; stroke-linecap:round; stroke-linejoin:round; stroke-width:4; stroke-opacity:1; fill:none" points="109.297,1200.98 128.195,1200.98 "/>
<polyline clip-path="url(#clip610)" style="stroke:#000000; stroke-linecap:round; stroke-linejoin:round; stroke-width:4; stroke-opacity:1; fill:none" points="109.297,1014.29 128.195,1014.29 "/>
<polyline clip-path="url(#clip610)" style="stroke:#000000; stroke-linecap:round; stroke-linejoin:round; stroke-width:4; stroke-opacity:1; fill:none" points="109.297,827.6 128.195,827.6 "/>
<polyline clip-path="url(#clip610)" style="stroke:#000000; stroke-linecap:round; stroke-linejoin:round; stroke-width:4; stroke-opacity:1; fill:none" points="109.297,640.912 128.195,640.912 "/>
<polyline clip-path="url(#clip610)" style="stroke:#000000; stroke-linecap:round; stroke-linejoin:round; stroke-width:4; stroke-opacity:1; fill:none" points="109.297,454.224 128.195,454.224 "/>
<polyline clip-path="url(#clip610)" style="stroke:#000000; stroke-linecap:round; stroke-linejoin:round; stroke-width:4; stroke-opacity:1; fill:none" points="109.297,267.536 128.195,267.536 "/>
<polyline clip-path="url(#clip610)" style="stroke:#000000; stroke-linecap:round; stroke-linejoin:round; stroke-width:4; stroke-opacity:1; fill:none" points="109.297,80.8479 128.195,80.8479 "/>
<path clip-path="url(#clip610)" d="M65.6728 1186.77 Q62.0617 1186.77 60.233 1190.34 Q58.4275 1193.88 58.4275 1201.01 Q58.4275 1208.12 60.233 1211.68 Q62.0617 1215.22 65.6728 1215.22 Q69.307 1215.22 71.1126 1211.68 Q72.9413 1208.12 72.9413 1201.01 Q72.9413 1193.88 71.1126 1190.34 Q69.307 1186.77 65.6728 1186.77 M65.6728 1183.07 Q71.4829 1183.07 74.5385 1187.68 Q77.6172 1192.26 77.6172 1201.01 Q77.6172 1209.74 74.5385 1214.34 Q71.4829 1218.93 65.6728 1218.93 Q59.8626 1218.93 56.784 1214.34 Q53.7284 1209.74 53.7284 1201.01 Q53.7284 1192.26 56.784 1187.68 Q59.8626 1183.07 65.6728 1183.07 Z" fill="#000000" fill-rule="nonzero" fill-opacity="1" /><path clip-path="url(#clip610)" d="M57.7099 1027.63 L65.3487 1027.63 L65.3487 1001.27 L57.0386 1002.93 L57.0386 998.674 L65.3024 997.008 L69.9783 997.008 L69.9783 1027.63 L77.6172 1027.63 L77.6172 1031.57 L57.7099 1031.57 L57.7099 1027.63 Z" fill="#000000" fill-rule="nonzero" fill-opacity="1" /><path clip-path="url(#clip610)" d="M61.2978 840.945 L77.6172 840.945 L77.6172 844.88 L55.6728 844.88 L55.6728 840.945 Q58.3349 838.19 62.9182 833.56 Q67.5246 828.908 68.7052 827.565 Q70.9505 825.042 71.8302 823.306 Q72.7329 821.546 72.7329 819.857 Q72.7329 817.102 70.7885 815.366 Q68.8672 813.63 65.7654 813.63 Q63.5663 813.63 61.1126 814.394 Q58.6821 815.158 55.9043 816.709 L55.9043 811.986 Q58.7284 810.852 61.1821 810.273 Q63.6358 809.695 65.6728 809.695 Q71.0431 809.695 74.2376 812.38 Q77.432 815.065 77.432 819.556 Q77.432 821.685 76.6218 823.607 Q75.8348 825.505 73.7283 828.097 Q73.1496 828.769 70.0478 831.986 Q66.9459 835.181 61.2978 840.945 Z" fill="#000000" fill-rule="nonzero" fill-opacity="1" /><path clip-path="url(#clip610)" d="M70.4876 639.558 Q73.844 640.275 75.719 642.544 Q77.6172 644.812 77.6172 648.146 Q77.6172 653.261 74.0987 656.062 Q70.5802 658.863 64.0987 658.863 Q61.9228 658.863 59.608 658.423 Q57.3164 658.007 54.8627 657.15 L54.8627 652.636 Q56.8071 653.77 59.1219 654.349 Q61.4367 654.928 63.9598 654.928 Q68.358 654.928 70.6496 653.192 Q72.9644 651.456 72.9644 648.146 Q72.9644 645.09 70.8117 643.377 Q68.682 641.641 64.8626 641.641 L60.8349 641.641 L60.8349 637.798 L65.0478 637.798 Q68.4969 637.798 70.3255 636.433 Q72.1542 635.044 72.1542 632.451 Q72.1542 629.789 70.2561 628.377 Q68.3811 626.942 64.8626 626.942 Q62.9413 626.942 60.7423 627.359 Q58.5432 627.775 55.9043 628.655 L55.9043 624.488 Q58.5664 623.747 60.8812 623.377 Q63.2191 623.007 65.2793 623.007 Q70.6033 623.007 73.7052 625.437 Q76.807 627.845 76.807 631.965 Q76.807 634.835 75.1635 636.826 Q73.52 638.794 70.4876 639.558 Z" fill="#000000" fill-rule="nonzero" fill-opacity="1" /><path clip-path="url(#clip610)" d="M68.0339 441.018 L56.2284 459.467 L68.0339 459.467 L68.0339 441.018 M66.807 436.944 L72.6866 436.944 L72.6866 459.467 L77.6172 459.467 L77.6172 463.356 L72.6866 463.356 L72.6866 471.504 L68.0339 471.504 L68.0339 463.356 L52.4321 463.356 L52.4321 458.842 L66.807 436.944 Z" fill="#000000" fill-rule="nonzero" fill-opacity="1" /><path clip-path="url(#clip610)" d="M56.7145 250.256 L75.0709 250.256 L75.0709 254.191 L60.9969 254.191 L60.9969 262.663 Q62.0154 262.316 63.0339 262.154 Q64.0524 261.969 65.0709 261.969 Q70.858 261.969 74.2376 265.14 Q77.6172 268.311 77.6172 273.728 Q77.6172 279.307 74.145 282.408 Q70.6728 285.487 64.3534 285.487 Q62.1774 285.487 59.9089 285.117 Q57.6636 284.746 55.2562 284.006 L55.2562 279.307 Q57.3395 280.441 59.5617 280.996 Q61.7839 281.552 64.2608 281.552 Q68.2654 281.552 70.6033 279.446 Q72.9413 277.339 72.9413 273.728 Q72.9413 270.117 70.6033 268.01 Q68.2654 265.904 64.2608 265.904 Q62.3858 265.904 60.5108 266.321 Q58.6589 266.737 56.7145 267.617 L56.7145 250.256 Z" fill="#000000" fill-rule="nonzero" fill-opacity="1" /><path clip-path="url(#clip610)" d="M66.0895 78.9845 Q62.9413 78.9845 61.0895 81.1373 Q59.2608 83.29 59.2608 87.04 Q59.2608 90.7668 61.0895 92.9427 Q62.9413 95.0955 66.0895 95.0955 Q69.2376 95.0955 71.0663 92.9427 Q72.9181 90.7668 72.9181 87.04 Q72.9181 83.29 71.0663 81.1373 Q69.2376 78.9845 66.0895 78.9845 M75.3718 64.3318 L75.3718 68.591 Q73.6126 67.7577 71.807 67.3179 Q70.0246 66.8781 68.2654 66.8781 Q63.6358 66.8781 61.1821 70.0031 Q58.7515 73.128 58.4043 79.4475 Q59.77 77.4336 61.8302 76.3688 Q63.8904 75.2808 66.3672 75.2808 Q71.5755 75.2808 74.5848 78.4521 Q77.6172 81.6002 77.6172 87.04 Q77.6172 92.364 74.469 95.5816 Q71.3209 98.7992 66.0895 98.7992 Q60.0941 98.7992 56.9228 94.2159 Q53.7516 89.6094 53.7516 80.8826 Q53.7516 72.6882 57.6404 67.8271 Q61.5293 62.9429 68.0802 62.9429 Q69.8394 62.9429 71.6218 63.2901 Q73.4274 63.6374 75.3718 64.3318 Z" fill="#000000" fill-rule="nonzero" fill-opacity="1" /><polyline clip-path="url(#clip612)" style="stroke:#009af9; stroke-linecap:round; stroke-linejoin:round; stroke-width:4; stroke-opacity:1; fill:none" points="164.64,80.8479 184.73,101.178 293.988,211.746 353.973,272.449 414.014,333.21 474.302,394.22 530.248,450.837 590.82,512.135 660.923,583.077 713.959,636.75 778.057,701.615 844.867,769.226 898.267,823.266 963.682,889.465 1030.07,956.645 1089.13,1016.41 1143.23,1071.17 1179.74,1108.11 1216.25,1145.06 1230.07,1159.04 1243.88,1173.02 1250.78,1180.01 1257.69,1187 1261.14,1190.49 1264.6,1193.99 1268.05,1197.48 1271.5,1200.97 1275.11,1197.33 1278.71,1193.68 1282.31,1190.04 1285.91,1186.39 1293.12,1179.1 1300.32,1171.81 1314.74,1157.23 1329.15,1142.64 1362.99,1108.39 1396.84,1074.14 1452.21,1018.1 1515.45,954.106 1573.57,895.291 1644.03,823.984 1702.03,765.291 1768.32,698.202 1819.98,645.931 1885.93,579.187 1997.78,465.993 2009.41,454.224 "/>
<path clip-path="url(#clip610)" d="M1503.72 190.502 L1999.57 190.502 L1999.57 86.8219 L1503.72 86.8219  Z" fill="#ffffff" fill-rule="evenodd" fill-opacity="1"/>
<polyline clip-path="url(#clip610)" style="stroke:#000000; stroke-linecap:round; stroke-linejoin:round; stroke-width:4; stroke-opacity:1; fill:none" points="1503.72,190.502 1999.57,190.502 1999.57,86.8219 1503.72,86.8219 1503.72,190.502 "/>
<polyline clip-path="url(#clip610)" style="stroke:#009af9; stroke-linecap:round; stroke-linejoin:round; stroke-width:4; stroke-opacity:1; fill:none" points="1525.45,138.662 1655.81,138.662 "/>
<path clip-path="url(#clip610)" d="M1701.45 120.016 Q1701.45 121.304 1700.64 122.1 Q1699.84 122.897 1698.83 122.897 Q1698.11 122.897 1697.57 122.452 Q1697.05 122.007 1697.05 121.234 Q1697.05 120.437 1697.66 119.594 Q1698.27 118.751 1699.65 118.634 Q1698.74 117.767 1697.29 117.767 Q1696.56 117.767 1695.95 118.235 Q1695.37 118.681 1695.04 119.407 Q1694.69 120.156 1693.89 124.396 Q1693.63 125.778 1693.4 127.113 Q1693.16 128.448 1692.88 129.853 L1696.86 129.853 Q1697.38 129.853 1697.59 129.876 Q1697.8 129.9 1697.96 130.017 Q1698.15 130.134 1698.15 130.392 Q1698.15 131.048 1697.85 131.212 Q1697.57 131.352 1696.72 131.352 L1692.6 131.352 L1689.72 146.553 Q1689.65 146.998 1689.35 148.404 Q1689.06 149.786 1688.39 152.058 Q1687.71 154.353 1687.03 155.711 Q1686.65 156.484 1686.16 157.21 Q1685.69 157.96 1685.01 158.709 Q1684.33 159.459 1683.44 159.904 Q1682.55 160.372 1681.62 160.372 Q1680.02 160.372 1678.78 159.482 Q1677.54 158.592 1677.54 157.07 Q1677.54 155.782 1678.34 154.985 Q1679.16 154.189 1680.16 154.189 Q1680.89 154.189 1681.41 154.634 Q1681.94 155.079 1681.94 155.852 Q1681.94 156.18 1681.83 156.555 Q1681.71 156.929 1681.45 157.351 Q1681.19 157.796 1680.63 158.1 Q1680.07 158.405 1679.3 158.452 Q1680.21 159.318 1681.62 159.318 Q1682.06 159.318 1682.46 159.131 Q1682.86 158.967 1683.19 158.546 Q1683.54 158.124 1683.79 157.702 Q1684.05 157.304 1684.31 156.531 Q1684.57 155.782 1684.73 155.22 Q1684.9 154.657 1685.11 153.65 Q1685.34 152.643 1685.46 152.034 Q1685.57 151.449 1685.79 150.301 L1689.37 131.352 L1686.21 131.352 Q1685.64 131.352 1685.41 131.329 Q1685.2 131.305 1685.04 131.188 Q1684.87 131.048 1684.87 130.766 Q1684.87 130.321 1685.06 130.134 Q1685.27 129.923 1685.5 129.9 Q1685.74 129.853 1686.3 129.853 L1689.63 129.853 Q1690.75 123.927 1691.2 122.334 Q1691.71 120.648 1692.51 119.477 Q1693.3 118.282 1694.19 117.72 Q1695.08 117.158 1695.81 116.947 Q1696.56 116.713 1697.29 116.713 Q1698.93 116.713 1700.19 117.603 Q1701.45 118.47 1701.45 120.016 Z" fill="#000000" fill-rule="nonzero" fill-opacity="1" /><path clip-path="url(#clip610)" d="M1707.91 138.543 Q1707.91 130.439 1710.93 123.904 Q1712.22 121.163 1714.02 118.868 Q1715.83 116.572 1717.02 115.565 Q1718.22 114.558 1718.54 114.558 Q1719.01 114.558 1719.04 115.027 Q1719.04 115.261 1718.4 115.846 Q1710.67 123.716 1710.7 138.543 Q1710.7 153.416 1718.22 160.981 Q1719.04 161.801 1719.04 162.059 Q1719.04 162.527 1718.54 162.527 Q1718.22 162.527 1717.07 161.567 Q1715.92 160.607 1714.14 158.405 Q1712.36 156.203 1711.07 153.51 Q1707.91 146.975 1707.91 138.543 Z" fill="#000000" fill-rule="nonzero" fill-opacity="1" /><path clip-path="url(#clip610)" d="M1746.57 132.5 Q1746.57 133.811 1745.75 134.561 Q1744.93 135.287 1743.99 135.287 Q1743.1 135.287 1742.64 134.772 Q1742.17 134.256 1742.17 133.601 Q1742.17 132.711 1742.82 131.938 Q1743.48 131.165 1744.46 131.001 Q1743.5 130.392 1742.07 130.392 Q1741.14 130.392 1740.32 130.884 Q1739.52 131.375 1739.03 132.008 Q1738.56 132.64 1738.14 133.554 Q1737.74 134.444 1737.58 134.983 Q1737.44 135.498 1737.32 136.06 L1735.68 142.618 Q1734.88 145.733 1734.88 146.834 Q1734.88 148.193 1735.54 149.106 Q1736.2 149.996 1737.51 149.996 Q1738.02 149.996 1738.61 149.856 Q1739.19 149.692 1739.94 149.27 Q1740.72 148.825 1741.4 148.169 Q1742.1 147.49 1742.78 146.342 Q1743.46 145.195 1743.9 143.719 Q1744.04 143.204 1744.51 143.204 Q1745.1 143.204 1745.1 143.672 Q1745.1 144.07 1744.77 144.914 Q1744.46 145.733 1743.78 146.811 Q1743.13 147.865 1742.26 148.825 Q1741.4 149.762 1740.11 150.418 Q1738.82 151.074 1737.41 151.074 Q1735.4 151.074 1734.06 149.996 Q1732.73 148.919 1732.24 147.42 Q1732.12 147.631 1731.96 147.912 Q1731.79 148.193 1731.3 148.825 Q1730.83 149.434 1730.29 149.903 Q1729.75 150.348 1728.91 150.699 Q1728.09 151.074 1727.2 151.074 Q1726.08 151.074 1725.07 150.746 Q1724.09 150.418 1723.38 149.668 Q1722.68 148.919 1722.68 147.888 Q1722.68 146.741 1723.45 145.944 Q1724.25 145.124 1725.33 145.124 Q1726.01 145.124 1726.55 145.523 Q1727.11 145.921 1727.11 146.787 Q1727.11 147.748 1726.45 148.474 Q1725.8 149.2 1724.86 149.387 Q1725.82 149.996 1727.25 149.996 Q1728.79 149.996 1730.01 148.638 Q1731.23 147.279 1731.82 145.007 Q1733.27 139.55 1733.83 137.114 Q1734.39 134.655 1734.39 133.601 Q1734.39 132.617 1734.13 131.938 Q1733.88 131.258 1733.43 130.954 Q1733.01 130.626 1732.61 130.509 Q1732.24 130.392 1731.82 130.392 Q1731.11 130.392 1730.32 130.673 Q1729.54 130.954 1728.61 131.61 Q1727.69 132.242 1726.83 133.554 Q1725.96 134.865 1725.37 136.669 Q1725.26 137.208 1724.74 137.208 Q1724.18 137.184 1724.18 136.716 Q1724.18 136.318 1724.48 135.498 Q1724.81 134.655 1725.47 133.601 Q1726.15 132.547 1727.01 131.61 Q1727.9 130.649 1729.19 129.994 Q1730.5 129.338 1731.91 129.338 Q1732.54 129.338 1733.15 129.478 Q1733.78 129.595 1734.53 129.947 Q1735.31 130.298 1735.98 131.071 Q1736.66 131.844 1737.09 132.968 Q1737.37 132.429 1737.74 131.914 Q1738.14 131.399 1738.75 130.766 Q1739.38 130.111 1740.25 129.736 Q1741.14 129.338 1742.12 129.338 Q1743.08 129.338 1744.02 129.595 Q1744.96 129.83 1745.75 130.603 Q1746.57 131.352 1746.57 132.5 Z" fill="#000000" fill-rule="nonzero" fill-opacity="1" /><path clip-path="url(#clip610)" d="M1751.19 162.059 Q1751.19 161.825 1751.8 161.239 Q1759.53 153.369 1759.53 138.543 Q1759.53 123.669 1752.1 116.151 Q1751.19 115.284 1751.19 115.027 Q1751.19 114.558 1751.66 114.558 Q1751.98 114.558 1753.13 115.518 Q1754.3 116.479 1756.06 118.681 Q1757.84 120.882 1759.15 123.576 Q1762.31 130.111 1762.31 138.543 Q1762.31 146.647 1759.29 153.182 Q1758 155.922 1756.2 158.218 Q1754.4 160.513 1753.2 161.52 Q1752.01 162.527 1751.66 162.527 Q1751.19 162.527 1751.19 162.059 Z" fill="#000000" fill-rule="nonzero" fill-opacity="1" /><path clip-path="url(#clip610)" d="M1782.91 143.251 Q1782.96 142.665 1783.87 142.665 L1813.27 142.665 Q1814.65 142.665 1814.67 143.204 Q1814.67 143.789 1813.36 143.766 L1784.2 143.766 Q1782.91 143.789 1782.91 143.251 M1782.91 133.882 Q1782.91 133.296 1783.92 133.32 L1813.22 133.32 Q1814.65 133.32 1814.67 133.882 Q1814.67 134.42 1813.46 134.42 L1783.87 134.42 Q1782.91 134.42 1782.91 133.882 Z" fill="#000000" fill-rule="nonzero" fill-opacity="1" /><path clip-path="url(#clip610)" d="M1833.17 161.052 L1833.17 116.385 Q1833.17 114.605 1834.13 114.605 Q1835.09 114.605 1835.09 116.034 L1835.09 160.7 Q1835.09 162.48 1834.13 162.48 Q1833.17 162.48 1833.17 161.052 Z" fill="#000000" fill-rule="nonzero" fill-opacity="1" /><path clip-path="url(#clip610)" d="M1865.53 132.5 Q1865.53 133.811 1864.72 134.561 Q1863.9 135.287 1862.96 135.287 Q1862.07 135.287 1861.6 134.772 Q1861.13 134.256 1861.13 133.601 Q1861.13 132.711 1861.79 131.938 Q1862.44 131.165 1863.43 131.001 Q1862.47 130.392 1861.04 130.392 Q1860.1 130.392 1859.28 130.884 Q1858.48 131.375 1857.99 132.008 Q1857.52 132.64 1857.1 133.554 Q1856.7 134.444 1856.54 134.983 Q1856.4 135.498 1856.28 136.06 L1854.64 142.618 Q1853.85 145.733 1853.85 146.834 Q1853.85 148.193 1854.5 149.106 Q1855.16 149.996 1856.47 149.996 Q1856.99 149.996 1857.57 149.856 Q1858.16 149.692 1858.91 149.27 Q1859.68 148.825 1860.36 148.169 Q1861.06 147.49 1861.74 146.342 Q1862.42 145.195 1862.86 143.719 Q1863.01 143.204 1863.47 143.204 Q1864.06 143.204 1864.06 143.672 Q1864.06 144.07 1863.73 144.914 Q1863.43 145.733 1862.75 146.811 Q1862.09 147.865 1861.23 148.825 Q1860.36 149.762 1859.07 150.418 Q1857.78 151.074 1856.38 151.074 Q1854.36 151.074 1853.03 149.996 Q1851.69 148.919 1851.2 147.42 Q1851.08 147.631 1850.92 147.912 Q1850.76 148.193 1850.26 148.825 Q1849.79 149.434 1849.26 149.903 Q1848.72 150.348 1847.87 150.699 Q1847.05 151.074 1846.16 151.074 Q1845.04 151.074 1844.03 150.746 Q1843.05 150.418 1842.35 149.668 Q1841.64 148.919 1841.64 147.888 Q1841.64 146.741 1842.42 145.944 Q1843.21 145.124 1844.29 145.124 Q1844.97 145.124 1845.51 145.523 Q1846.07 145.921 1846.07 146.787 Q1846.07 147.748 1845.41 148.474 Q1844.76 149.2 1843.82 149.387 Q1844.78 149.996 1846.21 149.996 Q1847.76 149.996 1848.98 148.638 Q1850.19 147.279 1850.78 145.007 Q1852.23 139.55 1852.79 137.114 Q1853.36 134.655 1853.36 133.601 Q1853.36 132.617 1853.1 131.938 Q1852.84 131.258 1852.39 130.954 Q1851.97 130.626 1851.58 130.509 Q1851.2 130.392 1850.78 130.392 Q1850.08 130.392 1849.28 130.673 Q1848.51 130.954 1847.57 131.61 Q1846.66 132.242 1845.79 133.554 Q1844.92 134.865 1844.34 136.669 Q1844.22 137.208 1843.71 137.208 Q1843.14 137.184 1843.14 136.716 Q1843.14 136.318 1843.45 135.498 Q1843.78 134.655 1844.43 133.601 Q1845.11 132.547 1845.98 131.61 Q1846.87 130.649 1848.16 129.994 Q1849.47 129.338 1850.87 129.338 Q1851.5 129.338 1852.11 129.478 Q1852.75 129.595 1853.5 129.947 Q1854.27 130.298 1854.95 131.071 Q1855.63 131.844 1856.05 132.968 Q1856.33 132.429 1856.7 131.914 Q1857.1 131.399 1857.71 130.766 Q1858.34 130.111 1859.21 129.736 Q1860.1 129.338 1861.08 129.338 Q1862.04 129.338 1862.98 129.595 Q1863.92 129.83 1864.72 130.603 Q1865.53 131.352 1865.53 132.5 Z" fill="#000000" fill-rule="nonzero" fill-opacity="1" /><path clip-path="url(#clip610)" d="M1913.78 137.863 Q1914.06 138.145 1914.06 138.543 Q1914.06 138.941 1913.78 139.222 Q1913.5 139.503 1913.1 139.503 L1883.08 139.503 Q1882.68 139.503 1882.4 139.222 Q1882.12 138.941 1882.12 138.543 Q1882.12 138.145 1882.4 137.863 Q1882.68 137.582 1883.08 137.582 L1913.1 137.582 Q1913.5 137.582 1913.78 137.863 Z" fill="#000000" fill-rule="nonzero" fill-opacity="1" /><path clip-path="url(#clip610)" d="M1932.38 123.154 L1932.38 121.655 Q1938.14 121.655 1941.11 118.587 Q1941.93 118.587 1942.07 118.774 Q1942.21 118.962 1942.21 119.828 L1942.21 146.741 Q1942.21 148.169 1942.92 148.614 Q1943.62 149.059 1946.69 149.059 L1948.21 149.059 L1948.21 150.535 Q1946.52 150.395 1940.43 150.395 Q1934.34 150.395 1932.68 150.535 L1932.68 149.059 L1934.2 149.059 Q1937.22 149.059 1937.95 148.638 Q1938.68 148.193 1938.68 146.741 L1938.68 121.889 Q1936.17 123.154 1932.38 123.154 Z" fill="#000000" fill-rule="nonzero" fill-opacity="1" /><path clip-path="url(#clip610)" d="M1958.05 161.052 L1958.05 116.385 Q1958.05 114.605 1959.01 114.605 Q1959.97 114.605 1959.97 116.034 L1959.97 160.7 Q1959.97 162.48 1959.01 162.48 Q1958.05 162.48 1958.05 161.052 Z" fill="#000000" fill-rule="nonzero" fill-opacity="1" /></svg>
