<?xml version="1.0" encoding="utf-8"?>
<svg xmlns="http://www.w3.org/2000/svg" xmlns:xlink="http://www.w3.org/1999/xlink" width="528" height="336" viewBox="0 0 2112 1344">
<defs>
  <clipPath id="clip060">
    <rect x="0" y="0" width="2112" height="1344"/>
  </clipPath>
</defs>
<path clip-path="url(#clip060)" d="M0 1344 L2112 1344 L2112 0 L0 0  Z" fill="#ffffff" fill-rule="evenodd" fill-opacity="1"/>
<defs>
  <clipPath id="clip061">
    <rect x="422" y="0" width="1479" height="1344"/>
  </clipPath>
</defs>
<path clip-path="url(#clip060)" d="M144.598 1234.58 L2064.76 1234.58 L2064.76 47.2441 L144.598 47.2441  Z" fill="#ffffff" fill-rule="evenodd" fill-opacity="1"/>
<defs>
  <clipPath id="clip062">
    <rect x="144" y="47" width="1921" height="1188"/>
  </clipPath>
</defs>
<polyline clip-path="url(#clip062)" style="stroke:#000000; stroke-linecap:round; stroke-linejoin:round; stroke-width:2; stroke-opacity:0.1; fill:none" points="198.942,1234.58 198.942,47.2441 "/>
<polyline clip-path="url(#clip062)" style="stroke:#000000; stroke-linecap:round; stroke-linejoin:round; stroke-width:2; stroke-opacity:0.1; fill:none" points="651.809,1234.58 651.809,47.2441 "/>
<polyline clip-path="url(#clip062)" style="stroke:#000000; stroke-linecap:round; stroke-linejoin:round; stroke-width:2; stroke-opacity:0.1; fill:none" points="1104.68,1234.58 1104.68,47.2441 "/>
<polyline clip-path="url(#clip062)" style="stroke:#000000; stroke-linecap:round; stroke-linejoin:round; stroke-width:2; stroke-opacity:0.1; fill:none" points="1557.54,1234.58 1557.54,47.2441 "/>
<polyline clip-path="url(#clip062)" style="stroke:#000000; stroke-linecap:round; stroke-linejoin:round; stroke-width:2; stroke-opacity:0.1; fill:none" points="2010.41,1234.58 2010.41,47.2441 "/>
<polyline clip-path="url(#clip060)" style="stroke:#000000; stroke-linecap:round; stroke-linejoin:round; stroke-width:4; stroke-opacity:1; fill:none" points="144.598,1234.58 2064.76,1234.58 "/>
<polyline clip-path="url(#clip060)" style="stroke:#000000; stroke-linecap:round; stroke-linejoin:round; stroke-width:4; stroke-opacity:1; fill:none" points="198.942,1234.58 198.942,1215.68 "/>
<polyline clip-path="url(#clip060)" style="stroke:#000000; stroke-linecap:round; stroke-linejoin:round; stroke-width:4; stroke-opacity:1; fill:none" points="651.809,1234.58 651.809,1215.68 "/>
<polyline clip-path="url(#clip060)" style="stroke:#000000; stroke-linecap:round; stroke-linejoin:round; stroke-width:4; stroke-opacity:1; fill:none" points="1104.68,1234.58 1104.68,1215.68 "/>
<polyline clip-path="url(#clip060)" style="stroke:#000000; stroke-linecap:round; stroke-linejoin:round; stroke-width:4; stroke-opacity:1; fill:none" points="1557.54,1234.58 1557.54,1215.68 "/>
<polyline clip-path="url(#clip060)" style="stroke:#000000; stroke-linecap:round; stroke-linejoin:round; stroke-width:4; stroke-opacity:1; fill:none" points="2010.41,1234.58 2010.41,1215.68 "/>
<path clip-path="url(#clip060)" d="M168.884 1277.85 L198.56 1277.85 L198.56 1281.78 L168.884 1281.78 L168.884 1277.85 Z" fill="#000000" fill-rule="nonzero" fill-opacity="1" /><path clip-path="url(#clip060)" d="M212.68 1290.74 L229 1290.74 L229 1294.67 L207.055 1294.67 L207.055 1290.74 Q209.717 1287.99 214.301 1283.36 Q218.907 1278.7 220.088 1277.36 Q222.333 1274.84 223.213 1273.1 Q224.115 1271.34 224.115 1269.65 Q224.115 1266.9 222.171 1265.16 Q220.25 1263.42 217.148 1263.42 Q214.949 1263.42 212.495 1264.19 Q210.065 1264.95 207.287 1266.5 L207.287 1261.78 Q210.111 1260.65 212.565 1260.07 Q215.018 1259.49 217.055 1259.49 Q222.426 1259.49 225.62 1262.17 Q228.815 1264.86 228.815 1269.35 Q228.815 1271.48 228.004 1273.4 Q227.217 1275.3 225.111 1277.89 Q224.532 1278.56 221.43 1281.78 Q218.328 1284.98 212.68 1290.74 Z" fill="#000000" fill-rule="nonzero" fill-opacity="1" /><path clip-path="url(#clip060)" d="M621.567 1277.85 L651.242 1277.85 L651.242 1281.78 L621.567 1281.78 L621.567 1277.85 Z" fill="#000000" fill-rule="nonzero" fill-opacity="1" /><path clip-path="url(#clip060)" d="M662.145 1290.74 L669.784 1290.74 L669.784 1264.37 L661.474 1266.04 L661.474 1261.78 L669.738 1260.11 L674.414 1260.11 L674.414 1290.74 L682.052 1290.74 L682.052 1294.67 L662.145 1294.67 L662.145 1290.74 Z" fill="#000000" fill-rule="nonzero" fill-opacity="1" /><path clip-path="url(#clip060)" d="M1104.68 1263.19 Q1101.07 1263.19 1099.24 1266.76 Q1097.43 1270.3 1097.43 1277.43 Q1097.43 1284.54 1099.24 1288.1 Q1101.07 1291.64 1104.68 1291.64 Q1108.31 1291.64 1110.12 1288.1 Q1111.95 1284.54 1111.95 1277.43 Q1111.95 1270.3 1110.12 1266.76 Q1108.31 1263.19 1104.68 1263.19 M1104.68 1259.49 Q1110.49 1259.49 1113.54 1264.1 Q1116.62 1268.68 1116.62 1277.43 Q1116.62 1286.16 1113.54 1290.76 Q1110.49 1295.35 1104.68 1295.35 Q1098.87 1295.35 1095.79 1290.76 Q1092.73 1286.16 1092.73 1277.43 Q1092.73 1268.68 1095.79 1264.1 Q1098.87 1259.49 1104.68 1259.49 Z" fill="#000000" fill-rule="nonzero" fill-opacity="1" /><path clip-path="url(#clip060)" d="M1547.93 1290.74 L1555.57 1290.74 L1555.57 1264.37 L1547.26 1266.04 L1547.26 1261.78 L1555.52 1260.11 L1560.19 1260.11 L1560.19 1290.74 L1567.83 1290.74 L1567.83 1294.67 L1547.93 1294.67 L1547.93 1290.74 Z" fill="#000000" fill-rule="nonzero" fill-opacity="1" /><path clip-path="url(#clip060)" d="M2005.06 1290.74 L2021.38 1290.74 L2021.38 1294.67 L1999.44 1294.67 L1999.44 1290.74 Q2002.1 1287.99 2006.68 1283.36 Q2011.29 1278.7 2012.47 1277.36 Q2014.72 1274.84 2015.6 1273.1 Q2016.5 1271.34 2016.5 1269.65 Q2016.5 1266.9 2014.56 1265.16 Q2012.63 1263.42 2009.53 1263.42 Q2007.33 1263.42 2004.88 1264.19 Q2002.45 1264.95 1999.67 1266.5 L1999.67 1261.78 Q2002.5 1260.65 2004.95 1260.07 Q2007.4 1259.49 2009.44 1259.49 Q2014.81 1259.49 2018 1262.17 Q2021.2 1264.86 2021.2 1269.35 Q2021.2 1271.48 2020.39 1273.4 Q2019.6 1275.3 2017.5 1277.89 Q2016.92 1278.56 2013.81 1281.78 Q2010.71 1284.98 2005.06 1290.74 Z" fill="#000000" fill-rule="nonzero" fill-opacity="1" /><polyline clip-path="url(#clip062)" style="stroke:#000000; stroke-linecap:round; stroke-linejoin:round; stroke-width:2; stroke-opacity:0.1; fill:none" points="144.598,1200.97 2064.76,1200.97 "/>
<polyline clip-path="url(#clip062)" style="stroke:#000000; stroke-linecap:round; stroke-linejoin:round; stroke-width:2; stroke-opacity:0.1; fill:none" points="144.598,920.943 2064.76,920.943 "/>
<polyline clip-path="url(#clip062)" style="stroke:#000000; stroke-linecap:round; stroke-linejoin:round; stroke-width:2; stroke-opacity:0.1; fill:none" points="144.598,640.911 2064.76,640.911 "/>
<polyline clip-path="url(#clip062)" style="stroke:#000000; stroke-linecap:round; stroke-linejoin:round; stroke-width:2; stroke-opacity:0.1; fill:none" points="144.598,360.88 2064.76,360.88 "/>
<polyline clip-path="url(#clip062)" style="stroke:#000000; stroke-linecap:round; stroke-linejoin:round; stroke-width:2; stroke-opacity:0.1; fill:none" points="144.598,80.8479 2064.76,80.8479 "/>
<polyline clip-path="url(#clip060)" style="stroke:#000000; stroke-linecap:round; stroke-linejoin:round; stroke-width:4; stroke-opacity:1; fill:none" points="144.598,1234.58 144.598,47.2441 "/>
<polyline clip-path="url(#clip060)" style="stroke:#000000; stroke-linecap:round; stroke-linejoin:round; stroke-width:4; stroke-opacity:1; fill:none" points="144.598,1200.97 163.496,1200.97 "/>
<polyline clip-path="url(#clip060)" style="stroke:#000000; stroke-linecap:round; stroke-linejoin:round; stroke-width:4; stroke-opacity:1; fill:none" points="144.598,920.943 163.496,920.943 "/>
<polyline clip-path="url(#clip060)" style="stroke:#000000; stroke-linecap:round; stroke-linejoin:round; stroke-width:4; stroke-opacity:1; fill:none" points="144.598,640.911 163.496,640.911 "/>
<polyline clip-path="url(#clip060)" style="stroke:#000000; stroke-linecap:round; stroke-linejoin:round; stroke-width:4; stroke-opacity:1; fill:none" points="144.598,360.88 163.496,360.88 "/>
<polyline clip-path="url(#clip060)" style="stroke:#000000; stroke-linecap:round; stroke-linejoin:round; stroke-width:4; stroke-opacity:1; fill:none" points="144.598,80.8479 163.496,80.8479 "/>
<path clip-path="url(#clip060)" d="M52.8025 1201.43 L82.4783 1201.43 L82.4783 1205.36 L52.8025 1205.36 L52.8025 1201.43 Z" fill="#000000" fill-rule="nonzero" fill-opacity="1" /><path clip-path="url(#clip060)" d="M96.5986 1214.32 L112.918 1214.32 L112.918 1218.25 L90.9736 1218.25 L90.9736 1214.32 Q93.6356 1211.57 98.2189 1206.94 Q102.825 1202.28 104.006 1200.94 Q106.251 1198.42 107.131 1196.68 Q108.034 1194.92 108.034 1193.23 Q108.034 1190.48 106.089 1188.74 Q104.168 1187.01 101.066 1187.01 Q98.8671 1187.01 96.4134 1187.77 Q93.9828 1188.53 91.2051 1190.08 L91.2051 1185.36 Q94.0291 1184.23 96.4828 1183.65 Q98.9365 1183.07 100.974 1183.07 Q106.344 1183.07 109.538 1185.76 Q112.733 1188.44 112.733 1192.93 Q112.733 1195.06 111.923 1196.98 Q111.136 1198.88 109.029 1201.47 Q108.45 1202.14 105.349 1205.36 Q102.247 1208.56 96.5986 1214.32 Z" fill="#000000" fill-rule="nonzero" fill-opacity="1" /><path clip-path="url(#clip060)" d="M52.4321 921.395 L82.1079 921.395 L82.1079 925.33 L52.4321 925.33 L52.4321 921.395 Z" fill="#000000" fill-rule="nonzero" fill-opacity="1" /><path clip-path="url(#clip060)" d="M93.0106 934.288 L100.649 934.288 L100.649 907.922 L92.3393 909.589 L92.3393 905.33 L100.603 903.663 L105.279 903.663 L105.279 934.288 L112.918 934.288 L112.918 938.223 L93.0106 938.223 L93.0106 934.288 Z" fill="#000000" fill-rule="nonzero" fill-opacity="1" /><path clip-path="url(#clip060)" d="M100.974 626.71 Q97.3624 626.71 95.5337 630.275 Q93.7282 633.817 93.7282 640.946 Q93.7282 648.053 95.5337 651.617 Q97.3624 655.159 100.974 655.159 Q104.608 655.159 106.413 651.617 Q108.242 648.053 108.242 640.946 Q108.242 633.817 106.413 630.275 Q104.608 626.71 100.974 626.71 M100.974 623.006 Q106.784 623.006 109.839 627.613 Q112.918 632.196 112.918 640.946 Q112.918 649.673 109.839 654.279 Q106.784 658.863 100.974 658.863 Q95.1634 658.863 92.0847 654.279 Q89.0292 649.673 89.0292 640.946 Q89.0292 632.196 92.0847 627.613 Q95.1634 623.006 100.974 623.006 Z" fill="#000000" fill-rule="nonzero" fill-opacity="1" /><path clip-path="url(#clip060)" d="M93.0106 374.225 L100.649 374.225 L100.649 347.859 L92.3393 349.526 L92.3393 345.266 L100.603 343.6 L105.279 343.6 L105.279 374.225 L112.918 374.225 L112.918 378.16 L93.0106 378.16 L93.0106 374.225 Z" fill="#000000" fill-rule="nonzero" fill-opacity="1" /><path clip-path="url(#clip060)" d="M96.5986 94.1927 L112.918 94.1927 L112.918 98.1279 L90.9736 98.1279 L90.9736 94.1927 Q93.6356 91.4381 98.2189 86.8085 Q102.825 82.1558 104.006 80.8132 Q106.251 78.29 107.131 76.5539 Q108.034 74.7947 108.034 73.1049 Q108.034 70.3503 106.089 68.6142 Q104.168 66.8781 101.066 66.8781 Q98.8671 66.8781 96.4134 67.642 Q93.9828 68.4058 91.2051 69.9568 L91.2051 65.2346 Q94.0291 64.1003 96.4828 63.5216 Q98.9365 62.9429 100.974 62.9429 Q106.344 62.9429 109.538 65.6281 Q112.733 68.3133 112.733 72.804 Q112.733 74.9336 111.923 76.8549 Q111.136 78.753 109.029 81.3456 Q108.45 82.0169 105.349 85.2345 Q102.247 88.4289 96.5986 94.1927 Z" fill="#000000" fill-rule="nonzero" fill-opacity="1" /><polyline clip-path="url(#clip062)" style="stroke:#009af9; stroke-linecap:round; stroke-linejoin:round; stroke-width:4; stroke-opacity:1; fill:none" points="198.942,1200.97 210.736,1182 319.785,1005.5 385.319,899.273 440.727,810.233 470.822,762.512 500.916,715.489 528.661,672.97 556.405,631.483 586.15,588.465 615.895,547.345 633.126,524.573 650.358,502.695 667.589,481.821 684.82,462.071 700.133,445.567 715.446,430.146 730.759,415.91 746.072,402.962 759.501,392.754 772.929,383.695 786.357,375.86 799.785,369.326 814.426,363.772 829.066,359.947 843.706,357.941 858.347,357.838 873.074,359.729 887.801,363.685 902.529,369.755 917.256,377.969 933.539,389.56 949.822,403.767 966.105,420.532 982.388,439.754 997.881,460.193 1013.37,482.564 1028.87,506.668 1044.36,532.269 1076.58,589.118 1108.79,648.55 1135.92,698.403 1163.04,746.224 1179.59,773.713 1196.15,799.509 1212.7,823.325 1229.26,844.919 1244.42,862.585 1259.59,878.112 1274.76,891.418 1289.92,902.458 1303.93,910.623 1317.94,916.845 1331.94,921.146 1345.95,923.565 1360.14,924.148 1374.33,922.917 1388.52,919.945 1402.7,915.31 1418.61,908.246 1434.51,899.323 1450.41,888.669 1466.31,876.407 1480.72,864.012 1495.13,850.489 1509.54,835.924 1523.95,820.402 1540.45,801.556 1556.94,781.671 1573.44,760.852 1589.94,739.199 1620.49,697.197 1651.04,653.15 1681.16,608.147 1711.28,561.931 1740.52,516.175 1769.76,469.773 1829.72,373.356 1895.41,266.842 1990.84,112.362 2010.41,80.8479 "/>
<path clip-path="url(#clip060)" d="M208.603 290.152 L756.593 290.152 L756.593 86.8219 L208.603 86.8219  Z" fill="#ffffff" fill-rule="evenodd" fill-opacity="1"/>
<polyline clip-path="url(#clip060)" style="stroke:#000000; stroke-linecap:round; stroke-linejoin:round; stroke-width:4; stroke-opacity:1; fill:none" points="208.603,290.152 756.593,290.152 756.593,86.8219 208.603,86.8219 208.603,290.152 "/>
<polyline clip-path="url(#clip060)" style="stroke:#009af9; stroke-linecap:round; stroke-linejoin:round; stroke-width:4; stroke-opacity:1; fill:none" points="229.938,188.487 357.949,188.487 "/>
<path clip-path="url(#clip060)" d="M401.301 180.381 Q401.301 180.405 401.16 181.248 L395.82 202.539 Q395.539 203.663 394.743 204.788 Q393.97 205.935 392.728 206.919 Q391.51 207.926 389.637 208.535 Q387.786 209.168 385.655 209.168 Q382.259 209.168 380.76 208.441 Q379.284 207.739 379.284 206.24 Q379.284 204.928 380.104 204.179 Q380.923 203.452 381.86 203.452 Q382.75 203.452 383.219 203.968 Q383.687 204.483 383.687 205.139 Q383.687 205.865 383.195 206.591 Q382.704 207.341 381.72 207.622 Q383.289 208.114 385.561 208.114 Q390.363 208.114 392.424 203.031 Q392.471 202.961 392.471 202.937 L394.063 196.59 L393.993 196.543 Q393.595 197.011 392.963 197.55 Q392.354 198.065 391.042 198.698 Q389.73 199.33 388.442 199.33 Q385.748 199.33 383.898 197.269 Q382.071 195.184 382.071 191.741 Q382.071 189.235 383.078 186.729 Q384.109 184.199 385.702 182.349 Q387.318 180.475 389.379 179.304 Q391.464 178.133 393.478 178.133 Q394.883 178.133 396.078 178.976 Q397.272 179.796 397.928 181.154 Q398.045 180.03 398.678 179.562 Q399.334 179.093 399.896 179.093 Q400.528 179.093 400.903 179.444 Q401.301 179.772 401.301 180.381 M397.366 183.309 Q397.366 183.169 397.272 182.794 Q397.179 182.396 396.898 181.763 Q396.64 181.131 396.242 180.569 Q395.844 180.007 395.117 179.608 Q394.415 179.187 393.525 179.187 Q392.073 179.187 390.62 180.405 Q389.168 181.599 388.161 183.45 Q387.224 185.23 386.334 188.673 Q385.467 192.116 385.467 193.873 Q385.467 195.606 386.217 196.941 Q386.966 198.276 388.583 198.276 Q390.456 198.276 392.471 196.543 Q394.555 194.739 394.907 193.193 L397.225 184.035 Q397.366 183.473 397.366 183.309 Z" fill="#000000" fill-rule="nonzero" fill-opacity="1" /><path clip-path="url(#clip060)" d="M407.876 187.338 Q407.876 179.234 410.897 172.699 Q412.185 169.958 413.989 167.663 Q415.792 165.368 416.987 164.36 Q418.181 163.353 418.509 163.353 Q418.978 163.353 419.001 163.822 Q419.001 164.056 418.369 164.642 Q410.639 172.511 410.663 187.338 Q410.663 202.211 418.181 209.777 Q419.001 210.596 419.001 210.854 Q419.001 211.322 418.509 211.322 Q418.181 211.322 417.034 210.362 Q415.886 209.402 414.106 207.2 Q412.326 204.998 411.038 202.305 Q407.876 195.77 407.876 187.338 Z" fill="#000000" fill-rule="nonzero" fill-opacity="1" /><path clip-path="url(#clip060)" d="M446.536 181.295 Q446.536 182.607 445.717 183.356 Q444.897 184.082 443.96 184.082 Q443.07 184.082 442.601 183.567 Q442.133 183.052 442.133 182.396 Q442.133 181.506 442.789 180.733 Q443.445 179.96 444.428 179.796 Q443.468 179.187 442.039 179.187 Q441.102 179.187 440.283 179.679 Q439.486 180.171 438.994 180.803 Q438.526 181.435 438.104 182.349 Q437.706 183.239 437.542 183.778 Q437.402 184.293 437.285 184.855 L435.645 191.413 Q434.849 194.529 434.849 195.629 Q434.849 196.988 435.504 197.901 Q436.16 198.791 437.472 198.791 Q437.987 198.791 438.573 198.651 Q439.158 198.487 439.908 198.065 Q440.681 197.62 441.36 196.964 Q442.063 196.285 442.742 195.138 Q443.421 193.99 443.866 192.514 Q444.007 191.999 444.475 191.999 Q445.061 191.999 445.061 192.467 Q445.061 192.866 444.733 193.709 Q444.428 194.529 443.749 195.606 Q443.093 196.66 442.227 197.62 Q441.36 198.557 440.072 199.213 Q438.784 199.869 437.378 199.869 Q435.364 199.869 434.029 198.791 Q432.694 197.714 432.202 196.215 Q432.085 196.426 431.921 196.707 Q431.757 196.988 431.265 197.62 Q430.797 198.229 430.258 198.698 Q429.719 199.143 428.876 199.494 Q428.056 199.869 427.166 199.869 Q426.042 199.869 425.035 199.541 Q424.051 199.213 423.348 198.464 Q422.646 197.714 422.646 196.683 Q422.646 195.536 423.418 194.739 Q424.215 193.92 425.292 193.92 Q425.972 193.92 426.51 194.318 Q427.072 194.716 427.072 195.583 Q427.072 196.543 426.417 197.269 Q425.761 197.995 424.824 198.182 Q425.784 198.791 427.213 198.791 Q428.759 198.791 429.977 197.433 Q431.195 196.074 431.78 193.802 Q433.232 188.345 433.795 185.909 Q434.357 183.45 434.357 182.396 Q434.357 181.412 434.099 180.733 Q433.841 180.053 433.396 179.749 Q432.975 179.421 432.577 179.304 Q432.202 179.187 431.78 179.187 Q431.078 179.187 430.281 179.468 Q429.508 179.749 428.571 180.405 Q427.658 181.037 426.791 182.349 Q425.925 183.661 425.339 185.464 Q425.222 186.003 424.707 186.003 Q424.145 185.979 424.145 185.511 Q424.145 185.113 424.449 184.293 Q424.777 183.45 425.433 182.396 Q426.112 181.342 426.979 180.405 Q427.869 179.444 429.157 178.789 Q430.469 178.133 431.874 178.133 Q432.506 178.133 433.115 178.273 Q433.748 178.39 434.497 178.742 Q435.27 179.093 435.949 179.866 Q436.629 180.639 437.05 181.763 Q437.331 181.225 437.706 180.709 Q438.104 180.194 438.713 179.562 Q439.346 178.906 440.212 178.531 Q441.102 178.133 442.086 178.133 Q443.046 178.133 443.983 178.39 Q444.92 178.625 445.717 179.398 Q446.536 180.147 446.536 181.295 Z" fill="#000000" fill-rule="nonzero" fill-opacity="1" /><path clip-path="url(#clip060)" d="M451.153 210.854 Q451.153 210.62 451.762 210.034 Q459.491 202.164 459.491 187.338 Q459.491 172.465 452.066 164.946 Q451.153 164.079 451.153 163.822 Q451.153 163.353 451.621 163.353 Q451.949 163.353 453.097 164.314 Q454.268 165.274 456.024 167.476 Q457.805 169.677 459.116 172.371 Q462.278 178.906 462.278 187.338 Q462.278 195.442 459.257 201.977 Q457.968 204.717 456.165 207.013 Q454.361 209.308 453.167 210.315 Q451.972 211.322 451.621 211.322 Q451.153 211.322 451.153 210.854 Z" fill="#000000" fill-rule="nonzero" fill-opacity="1" /><path clip-path="url(#clip060)" d="M482.879 192.046 Q482.926 191.46 483.839 191.46 L513.234 191.46 Q514.616 191.46 514.64 191.999 Q514.64 192.584 513.328 192.561 L484.167 192.561 Q482.879 192.584 482.879 192.046 M482.879 182.677 Q482.879 182.091 483.886 182.115 L513.187 182.115 Q514.616 182.115 514.64 182.677 Q514.64 183.216 513.422 183.216 L483.839 183.216 Q482.879 183.216 482.879 182.677 Z" fill="#000000" fill-rule="nonzero" fill-opacity="1" /><path clip-path="url(#clip060)" d="M543.379 174.885 Q543.379 174.019 543.449 173.761 Q543.543 173.503 543.918 173.105 L553.123 162.846 Q558.158 157.178 558.158 152.236 Q558.158 149.027 556.472 146.731 Q554.809 144.436 551.741 144.436 Q549.633 144.436 547.853 145.724 Q546.072 147.012 545.253 149.308 Q545.393 149.261 545.885 149.261 Q547.08 149.261 547.735 150.011 Q548.415 150.76 548.415 151.767 Q548.415 153.055 547.572 153.688 Q546.752 154.297 545.932 154.297 Q545.604 154.297 545.159 154.227 Q544.737 154.156 544.058 153.5 Q543.379 152.821 543.379 151.627 Q543.379 148.277 545.909 145.607 Q548.462 142.937 552.35 142.937 Q556.753 142.937 559.634 145.56 Q562.538 148.16 562.538 152.236 Q562.538 153.664 562.093 154.976 Q561.672 156.264 561.086 157.271 Q560.524 158.279 558.978 159.895 Q557.432 161.511 556.191 162.659 Q554.95 163.806 552.162 166.242 L547.08 171.184 L555.723 171.184 Q559.939 171.184 560.266 170.81 Q560.735 170.13 561.32 166.547 L562.538 166.547 L561.18 174.885 L543.379 174.885 Z" fill="#000000" fill-rule="nonzero" fill-opacity="1" /><path clip-path="url(#clip060)" d="M591.023 156.85 Q591.023 158.162 590.203 158.911 Q589.383 159.637 588.446 159.637 Q587.556 159.637 587.088 159.122 Q586.619 158.607 586.619 157.951 Q586.619 157.061 587.275 156.288 Q587.931 155.515 588.915 155.351 Q587.955 154.742 586.526 154.742 Q585.589 154.742 584.769 155.234 Q583.973 155.726 583.481 156.358 Q583.012 156.99 582.591 157.904 Q582.193 158.794 582.029 159.333 Q581.888 159.848 581.771 160.41 L580.131 166.968 Q579.335 170.084 579.335 171.184 Q579.335 172.543 579.991 173.456 Q580.647 174.346 581.958 174.346 Q582.474 174.346 583.059 174.206 Q583.645 174.042 584.394 173.62 Q585.167 173.175 585.847 172.519 Q586.549 171.84 587.228 170.693 Q587.908 169.545 588.353 168.069 Q588.493 167.554 588.962 167.554 Q589.547 167.554 589.547 168.022 Q589.547 168.421 589.219 169.264 Q588.915 170.084 588.236 171.161 Q587.58 172.215 586.713 173.175 Q585.847 174.112 584.558 174.768 Q583.27 175.424 581.865 175.424 Q579.85 175.424 578.515 174.346 Q577.18 173.269 576.688 171.77 Q576.571 171.981 576.407 172.262 Q576.243 172.543 575.751 173.175 Q575.283 173.784 574.744 174.253 Q574.206 174.698 573.362 175.049 Q572.543 175.424 571.653 175.424 Q570.528 175.424 569.521 175.096 Q568.537 174.768 567.835 174.019 Q567.132 173.269 567.132 172.238 Q567.132 171.091 567.905 170.294 Q568.701 169.475 569.779 169.475 Q570.458 169.475 570.997 169.873 Q571.559 170.271 571.559 171.138 Q571.559 172.098 570.903 172.824 Q570.247 173.55 569.31 173.737 Q570.271 174.346 571.699 174.346 Q573.245 174.346 574.463 172.988 Q575.681 171.629 576.267 169.357 Q577.719 163.9 578.281 161.464 Q578.843 159.005 578.843 157.951 Q578.843 156.967 578.586 156.288 Q578.328 155.608 577.883 155.304 Q577.461 154.976 577.063 154.859 Q576.688 154.742 576.267 154.742 Q575.564 154.742 574.768 155.023 Q573.995 155.304 573.058 155.96 Q572.144 156.592 571.278 157.904 Q570.411 159.216 569.826 161.019 Q569.708 161.558 569.193 161.558 Q568.631 161.534 568.631 161.066 Q568.631 160.668 568.936 159.848 Q569.263 159.005 569.919 157.951 Q570.599 156.897 571.465 155.96 Q572.355 154.999 573.643 154.344 Q574.955 153.688 576.36 153.688 Q576.993 153.688 577.602 153.828 Q578.234 153.945 578.984 154.297 Q579.757 154.648 580.436 155.421 Q581.115 156.194 581.537 157.318 Q581.818 156.78 582.193 156.264 Q582.591 155.749 583.2 155.117 Q583.832 154.461 584.699 154.086 Q585.589 153.688 586.573 153.688 Q587.533 153.688 588.47 153.945 Q589.407 154.18 590.203 154.953 Q591.023 155.702 591.023 156.85 Z" fill="#000000" fill-rule="nonzero" fill-opacity="1" /><path clip-path="url(#clip060)" d="M595.902 155.276 Q595.902 154.276 596.476 153.801 Q597.05 153.325 597.788 153.325 Q598.558 153.325 599.099 153.833 Q599.657 154.325 599.657 155.194 Q599.657 156.129 599.001 156.654 Q598.361 157.178 597.443 157.047 Q598.247 158.391 599.722 158.998 Q601.214 159.605 602.591 159.605 Q604.034 159.605 605.198 158.359 Q606.379 157.113 606.379 154.063 Q606.379 151.473 605.362 149.98 Q604.362 148.488 602.378 148.488 L600.903 148.488 Q600.394 148.488 600.247 148.439 Q600.099 148.39 600.099 148.111 Q600.099 147.783 600.608 147.718 Q601.116 147.718 601.919 147.62 Q603.87 147.554 604.903 145.865 Q605.838 144.291 605.838 142.045 Q605.838 139.996 604.854 139.143 Q603.887 138.274 602.624 138.274 Q601.444 138.274 600.149 138.766 Q598.853 139.258 598.148 140.356 Q600.23 140.356 600.23 142.045 Q600.23 142.783 599.755 143.275 Q599.296 143.75 598.525 143.75 Q597.788 143.75 597.296 143.291 Q596.804 142.816 596.804 142.012 Q596.804 140.094 598.509 138.766 Q600.23 137.438 602.755 137.438 Q605.248 137.438 607.084 138.749 Q608.937 140.061 608.937 142.078 Q608.937 144.062 607.625 145.685 Q606.313 147.308 604.231 147.98 Q606.789 148.488 608.314 150.226 Q609.838 151.948 609.838 154.063 Q609.838 156.686 607.773 158.621 Q605.707 160.539 602.69 160.539 Q599.903 160.539 597.902 159.031 Q595.902 157.523 595.902 155.276 Z" fill="#000000" fill-rule="nonzero" fill-opacity="1" /><path clip-path="url(#clip060)" d="M659.79 162.214 Q660.071 162.495 660.071 162.893 Q660.071 163.291 659.79 163.572 Q659.509 163.853 659.111 163.853 L629.083 163.853 Q628.685 163.853 628.404 163.572 Q628.123 163.291 628.123 162.893 Q628.123 162.495 628.404 162.214 Q628.685 161.933 629.083 161.933 L659.111 161.933 Q659.509 161.933 659.79 162.214 Z" fill="#000000" fill-rule="nonzero" fill-opacity="1" /><path clip-path="url(#clip060)" d="M678.383 168.421 Q678.383 166.992 679.203 166.313 Q680.023 165.633 681.077 165.633 Q682.177 165.633 682.95 166.359 Q683.747 167.062 683.747 168.303 Q683.747 169.639 682.81 170.388 Q681.896 171.138 680.585 170.95 Q681.732 172.871 683.84 173.737 Q685.972 174.604 687.939 174.604 Q690.001 174.604 691.664 172.824 Q693.35 171.044 693.35 166.687 Q693.35 162.987 691.898 160.855 Q690.469 158.724 687.635 158.724 L685.527 158.724 Q684.801 158.724 684.59 158.653 Q684.379 158.583 684.379 158.185 Q684.379 157.716 685.105 157.623 Q685.831 157.623 686.979 157.482 Q689.766 157.389 691.242 154.976 Q692.577 152.728 692.577 149.519 Q692.577 146.591 691.172 145.373 Q689.79 144.131 687.986 144.131 Q686.3 144.131 684.449 144.834 Q682.599 145.537 681.592 147.106 Q684.567 147.106 684.567 149.519 Q684.567 150.573 683.887 151.275 Q683.232 151.955 682.131 151.955 Q681.077 151.955 680.374 151.299 Q679.671 150.619 679.671 149.472 Q679.671 146.731 682.107 144.834 Q684.567 142.937 688.174 142.937 Q691.734 142.937 694.357 144.811 Q697.004 146.685 697.004 149.565 Q697.004 152.4 695.13 154.718 Q693.256 157.037 690.282 157.998 Q693.936 158.724 696.114 161.206 Q698.292 163.666 698.292 166.687 Q698.292 170.435 695.341 173.199 Q692.39 175.939 688.08 175.939 Q684.098 175.939 681.241 173.784 Q678.383 171.629 678.383 168.421 Z" fill="#000000" fill-rule="nonzero" fill-opacity="1" /><path clip-path="url(#clip060)" d="M725.259 156.85 Q725.259 158.162 724.439 158.911 Q723.62 159.637 722.683 159.637 Q721.793 159.637 721.324 159.122 Q720.856 158.607 720.856 157.951 Q720.856 157.061 721.511 156.288 Q722.167 155.515 723.151 155.351 Q722.191 154.742 720.762 154.742 Q719.825 154.742 719.005 155.234 Q718.209 155.726 717.717 156.358 Q717.249 156.99 716.827 157.904 Q716.429 158.794 716.265 159.333 Q716.124 159.848 716.007 160.41 L714.368 166.968 Q713.571 170.084 713.571 171.184 Q713.571 172.543 714.227 173.456 Q714.883 174.346 716.195 174.346 Q716.71 174.346 717.295 174.206 Q717.881 174.042 718.631 173.62 Q719.403 173.175 720.083 172.519 Q720.785 171.84 721.465 170.693 Q722.144 169.545 722.589 168.069 Q722.729 167.554 723.198 167.554 Q723.783 167.554 723.783 168.022 Q723.783 168.421 723.456 169.264 Q723.151 170.084 722.472 171.161 Q721.816 172.215 720.949 173.175 Q720.083 174.112 718.794 174.768 Q717.506 175.424 716.101 175.424 Q714.087 175.424 712.751 174.346 Q711.416 173.269 710.925 171.77 Q710.807 171.981 710.643 172.262 Q710.48 172.543 709.988 173.175 Q709.519 173.784 708.98 174.253 Q708.442 174.698 707.599 175.049 Q706.779 175.424 705.889 175.424 Q704.764 175.424 703.757 175.096 Q702.774 174.768 702.071 174.019 Q701.368 173.269 701.368 172.238 Q701.368 171.091 702.141 170.294 Q702.937 169.475 704.015 169.475 Q704.694 169.475 705.233 169.873 Q705.795 170.271 705.795 171.138 Q705.795 172.098 705.139 172.824 Q704.483 173.55 703.546 173.737 Q704.507 174.346 705.936 174.346 Q707.481 174.346 708.699 172.988 Q709.917 171.629 710.503 169.357 Q711.955 163.9 712.517 161.464 Q713.079 159.005 713.079 157.951 Q713.079 156.967 712.822 156.288 Q712.564 155.608 712.119 155.304 Q711.697 154.976 711.299 154.859 Q710.925 154.742 710.503 154.742 Q709.8 154.742 709.004 155.023 Q708.231 155.304 707.294 155.96 Q706.381 156.592 705.514 157.904 Q704.647 159.216 704.062 161.019 Q703.945 161.558 703.429 161.558 Q702.867 161.534 702.867 161.066 Q702.867 160.668 703.172 159.848 Q703.5 159.005 704.155 157.951 Q704.835 156.897 705.701 155.96 Q706.591 154.999 707.88 154.344 Q709.191 153.688 710.597 153.688 Q711.229 153.688 711.838 153.828 Q712.47 153.945 713.22 154.297 Q713.993 154.648 714.672 155.421 Q715.351 156.194 715.773 157.318 Q716.054 156.78 716.429 156.264 Q716.827 155.749 717.436 155.117 Q718.068 154.461 718.935 154.086 Q719.825 153.688 720.809 153.688 Q721.769 153.688 722.706 153.945 Q723.643 154.18 724.439 154.953 Q725.259 155.702 725.259 156.85 Z" fill="#000000" fill-rule="nonzero" fill-opacity="1" /><path clip-path="url(#clip060)" d="M543.379 188.73 L730.138 188.73 L730.138 186.17 L543.379 186.17  Z" fill="#000000" fill-rule="evenodd" fill-opacity="1"/>
<path clip-path="url(#clip060)" d="M594.55 217.434 Q594.55 218.746 593.73 219.495 Q592.91 220.221 591.973 220.221 Q591.083 220.221 590.615 219.706 Q590.146 219.191 590.146 218.535 Q590.146 217.645 590.802 216.872 Q591.458 216.099 592.442 215.935 Q591.481 215.326 590.053 215.326 Q589.116 215.326 588.296 215.818 Q587.5 216.31 587.008 216.942 Q586.539 217.575 586.118 218.488 Q585.72 219.378 585.556 219.917 Q585.415 220.432 585.298 220.994 L583.658 227.553 Q582.862 230.668 582.862 231.769 Q582.862 233.127 583.518 234.041 Q584.174 234.931 585.485 234.931 Q586.001 234.931 586.586 234.79 Q587.172 234.626 587.921 234.205 Q588.694 233.76 589.373 233.104 Q590.076 232.424 590.755 231.277 Q591.435 230.129 591.88 228.653 Q592.02 228.138 592.489 228.138 Q593.074 228.138 593.074 228.607 Q593.074 229.005 592.746 229.848 Q592.442 230.668 591.763 231.745 Q591.107 232.799 590.24 233.76 Q589.373 234.696 588.085 235.352 Q586.797 236.008 585.392 236.008 Q583.377 236.008 582.042 234.931 Q580.707 233.853 580.215 232.354 Q580.098 232.565 579.934 232.846 Q579.77 233.127 579.278 233.76 Q578.81 234.369 578.271 234.837 Q577.732 235.282 576.889 235.633 Q576.069 236.008 575.179 236.008 Q574.055 236.008 573.048 235.68 Q572.064 235.352 571.362 234.603 Q570.659 233.853 570.659 232.823 Q570.659 231.675 571.432 230.879 Q572.228 230.059 573.306 230.059 Q573.985 230.059 574.524 230.457 Q575.086 230.855 575.086 231.722 Q575.086 232.682 574.43 233.408 Q573.774 234.134 572.837 234.322 Q573.798 234.931 575.226 234.931 Q576.772 234.931 577.99 233.572 Q579.208 232.214 579.794 229.942 Q581.246 224.484 581.808 222.048 Q582.37 219.589 582.37 218.535 Q582.37 217.551 582.112 216.872 Q581.855 216.193 581.41 215.888 Q580.988 215.56 580.59 215.443 Q580.215 215.326 579.794 215.326 Q579.091 215.326 578.295 215.607 Q577.522 215.888 576.585 216.544 Q575.671 217.176 574.805 218.488 Q573.938 219.8 573.352 221.603 Q573.235 222.142 572.72 222.142 Q572.158 222.119 572.158 221.65 Q572.158 221.252 572.462 220.432 Q572.79 219.589 573.446 218.535 Q574.125 217.481 574.992 216.544 Q575.882 215.584 577.17 214.928 Q578.482 214.272 579.887 214.272 Q580.52 214.272 581.129 214.413 Q581.761 214.53 582.511 214.881 Q583.284 215.232 583.963 216.005 Q584.642 216.778 585.064 217.903 Q585.345 217.364 585.72 216.849 Q586.118 216.333 586.727 215.701 Q587.359 215.045 588.226 214.67 Q589.116 214.272 590.1 214.272 Q591.06 214.272 591.997 214.53 Q592.934 214.764 593.73 215.537 Q594.55 216.286 594.55 217.434 Z" fill="#000000" fill-rule="nonzero" fill-opacity="1" /><path clip-path="url(#clip060)" d="M599.429 221.117 Q599.429 220.511 599.478 220.33 Q599.544 220.15 599.806 219.871 L606.25 212.69 Q609.775 208.722 609.775 205.263 Q609.775 203.016 608.594 201.41 Q607.43 199.803 605.282 199.803 Q603.807 199.803 602.56 200.705 Q601.314 201.606 600.741 203.213 Q600.839 203.18 601.183 203.18 Q602.019 203.18 602.478 203.705 Q602.954 204.23 602.954 204.935 Q602.954 205.836 602.364 206.279 Q601.79 206.705 601.216 206.705 Q600.986 206.705 600.675 206.656 Q600.38 206.607 599.904 206.148 Q599.429 205.673 599.429 204.836 Q599.429 202.492 601.2 200.623 Q602.987 198.754 605.708 198.754 Q608.791 198.754 610.808 200.59 Q612.841 202.41 612.841 205.263 Q612.841 206.263 612.529 207.181 Q612.234 208.083 611.824 208.788 Q611.431 209.493 610.348 210.624 Q609.266 211.755 608.397 212.559 Q607.528 213.362 605.577 215.067 L602.019 218.527 L608.069 218.527 Q611.021 218.527 611.25 218.264 Q611.578 217.789 611.988 215.28 L612.841 215.28 L611.89 221.117 L599.429 221.117 Z" fill="#000000" fill-rule="nonzero" fill-opacity="1" /><path clip-path="url(#clip060)" d="M632.231 224.063 Q631.13 224.063 631.13 223.477 Q631.13 222.892 632.278 222.892 Q632.418 222.892 632.652 222.915 Q632.91 222.938 632.957 222.938 L646.472 222.938 L646.472 209.377 Q646.472 209.33 646.448 209.119 Q646.425 208.885 646.425 208.744 Q646.425 207.597 646.987 207.597 Q647.573 207.597 647.573 208.744 L647.573 222.938 L661.111 222.938 Q661.158 222.938 661.392 222.915 Q661.626 222.892 661.767 222.892 Q662.867 222.892 662.867 223.477 Q662.891 224.063 661.72 224.063 Q661.579 224.063 661.368 224.039 Q661.158 224.016 661.111 224.016 L647.573 224.016 L647.573 238.257 Q647.573 239.358 646.987 239.358 Q646.425 239.358 646.425 238.21 Q646.425 238.069 646.448 237.835 Q646.472 237.624 646.472 237.577 L646.472 224.016 L632.957 224.016 Q632.91 224.016 632.629 224.039 Q632.371 224.063 632.231 224.063 Z" fill="#000000" fill-rule="nonzero" fill-opacity="1" /><path clip-path="url(#clip060)" d="M681.39 208.089 L681.39 206.59 Q687.152 206.59 690.127 203.521 Q690.947 203.521 691.087 203.709 Q691.228 203.896 691.228 204.763 L691.228 231.675 Q691.228 233.104 691.93 233.549 Q692.633 233.994 695.701 233.994 L697.224 233.994 L697.224 235.469 Q695.537 235.329 689.448 235.329 Q683.358 235.329 681.695 235.469 L681.695 233.994 L683.217 233.994 Q686.239 233.994 686.965 233.572 Q687.691 233.127 687.691 231.675 L687.691 206.824 Q685.185 208.089 681.39 208.089 Z" fill="#000000" fill-rule="nonzero" fill-opacity="1" /></svg>
