<?xml version="1.0" encoding="utf-8"?>
<svg xmlns="http://www.w3.org/2000/svg" xmlns:xlink="http://www.w3.org/1999/xlink" width="528" height="336" viewBox="0 0 2112 1344">
<defs>
  <clipPath id="clip930">
    <rect x="0" y="0" width="2112" height="1344"/>
  </clipPath>
</defs>
<path clip-path="url(#clip930)" d="M0 1344 L2112 1344 L2112 0 L0 0  Z" fill="#ffffff" fill-rule="evenodd" fill-opacity="1"/>
<defs>
  <clipPath id="clip931">
    <rect x="422" y="0" width="1479" height="1344"/>
  </clipPath>
</defs>
<path clip-path="url(#clip930)" d="M191.056 1109.34 L2064.76 1109.34 L2064.76 172.486 L191.056 172.486  Z" fill="#ffffff" fill-rule="evenodd" fill-opacity="1"/>
<defs>
  <clipPath id="clip932">
    <rect x="191" y="172" width="1875" height="938"/>
  </clipPath>
</defs>
<polyline clip-path="url(#clip932)" style="stroke:#000000; stroke-linecap:round; stroke-linejoin:round; stroke-width:2; stroke-opacity:0.1; fill:none" points="191.056,1109.34 191.056,172.486 "/>
<polyline clip-path="url(#clip932)" style="stroke:#000000; stroke-linecap:round; stroke-linejoin:round; stroke-width:2; stroke-opacity:0.1; fill:none" points="503.339,1109.34 503.339,172.486 "/>
<polyline clip-path="url(#clip932)" style="stroke:#000000; stroke-linecap:round; stroke-linejoin:round; stroke-width:2; stroke-opacity:0.1; fill:none" points="815.623,1109.34 815.623,172.486 "/>
<polyline clip-path="url(#clip932)" style="stroke:#000000; stroke-linecap:round; stroke-linejoin:round; stroke-width:2; stroke-opacity:0.1; fill:none" points="1127.91,1109.34 1127.91,172.486 "/>
<polyline clip-path="url(#clip932)" style="stroke:#000000; stroke-linecap:round; stroke-linejoin:round; stroke-width:2; stroke-opacity:0.1; fill:none" points="1440.19,1109.34 1440.19,172.486 "/>
<polyline clip-path="url(#clip932)" style="stroke:#000000; stroke-linecap:round; stroke-linejoin:round; stroke-width:2; stroke-opacity:0.1; fill:none" points="1752.47,1109.34 1752.47,172.486 "/>
<polyline clip-path="url(#clip932)" style="stroke:#000000; stroke-linecap:round; stroke-linejoin:round; stroke-width:2; stroke-opacity:0.1; fill:none" points="2064.76,1109.34 2064.76,172.486 "/>
<polyline clip-path="url(#clip930)" style="stroke:#000000; stroke-linecap:round; stroke-linejoin:round; stroke-width:4; stroke-opacity:1; fill:none" points="191.056,1109.34 2064.76,1109.34 "/>
<polyline clip-path="url(#clip930)" style="stroke:#000000; stroke-linecap:round; stroke-linejoin:round; stroke-width:4; stroke-opacity:1; fill:none" points="191.056,1109.34 191.056,1094.43 "/>
<polyline clip-path="url(#clip930)" style="stroke:#000000; stroke-linecap:round; stroke-linejoin:round; stroke-width:4; stroke-opacity:1; fill:none" points="503.339,1109.34 503.339,1094.43 "/>
<polyline clip-path="url(#clip930)" style="stroke:#000000; stroke-linecap:round; stroke-linejoin:round; stroke-width:4; stroke-opacity:1; fill:none" points="815.623,1109.34 815.623,1094.43 "/>
<polyline clip-path="url(#clip930)" style="stroke:#000000; stroke-linecap:round; stroke-linejoin:round; stroke-width:4; stroke-opacity:1; fill:none" points="1127.91,1109.34 1127.91,1094.43 "/>
<polyline clip-path="url(#clip930)" style="stroke:#000000; stroke-linecap:round; stroke-linejoin:round; stroke-width:4; stroke-opacity:1; fill:none" points="1440.19,1109.34 1440.19,1094.43 "/>
<polyline clip-path="url(#clip930)" style="stroke:#000000; stroke-linecap:round; stroke-linejoin:round; stroke-width:4; stroke-opacity:1; fill:none" points="1752.47,1109.34 1752.47,1094.43 "/>
<polyline clip-path="url(#clip930)" style="stroke:#000000; stroke-linecap:round; stroke-linejoin:round; stroke-width:4; stroke-opacity:1; fill:none" points="2064.76,1109.34 2064.76,1094.43 "/>
<path clip-path="url(#clip930)" d="M160.524 1152.6 L190.2 1152.6 L190.2 1156.54 L160.524 1156.54 L160.524 1152.6 Z" fill="#000000" fill-rule="nonzero" fill-opacity="1" /><path clip-path="url(#clip930)" d="M214.459 1150.8 Q217.815 1151.52 219.69 1153.78 Q221.588 1156.05 221.588 1159.39 Q221.588 1164.5 218.07 1167.3 Q214.551 1170.1 208.07 1170.1 Q205.894 1170.1 203.579 1169.66 Q201.287 1169.25 198.834 1168.39 L198.834 1163.88 Q200.778 1165.01 203.093 1165.59 Q205.408 1166.17 207.931 1166.17 Q212.329 1166.17 214.621 1164.43 Q216.935 1162.7 216.935 1159.39 Q216.935 1156.33 214.783 1154.62 Q212.653 1152.88 208.834 1152.88 L204.806 1152.88 L204.806 1149.04 L209.019 1149.04 Q212.468 1149.04 214.297 1147.67 Q216.125 1146.28 216.125 1143.69 Q216.125 1141.03 214.227 1139.62 Q212.352 1138.18 208.834 1138.18 Q206.912 1138.18 204.713 1138.6 Q202.514 1139.02 199.875 1139.9 L199.875 1135.73 Q202.537 1134.99 204.852 1134.62 Q207.19 1134.25 209.25 1134.25 Q214.574 1134.25 217.676 1136.68 Q220.778 1139.09 220.778 1143.21 Q220.778 1146.08 219.135 1148.07 Q217.491 1150.03 214.459 1150.8 Z" fill="#000000" fill-rule="nonzero" fill-opacity="1" /><path clip-path="url(#clip930)" d="M473.282 1152.6 L502.957 1152.6 L502.957 1156.54 L473.282 1156.54 L473.282 1152.6 Z" fill="#000000" fill-rule="nonzero" fill-opacity="1" /><path clip-path="url(#clip930)" d="M517.078 1165.5 L533.397 1165.5 L533.397 1169.43 L511.453 1169.43 L511.453 1165.5 Q514.115 1162.74 518.698 1158.11 Q523.304 1153.46 524.485 1152.12 Q526.73 1149.59 527.61 1147.86 Q528.513 1146.1 528.513 1144.41 Q528.513 1141.65 526.568 1139.92 Q524.647 1138.18 521.545 1138.18 Q519.346 1138.18 516.892 1138.95 Q514.462 1139.71 511.684 1141.26 L511.684 1136.54 Q514.508 1135.4 516.962 1134.83 Q519.416 1134.25 521.453 1134.25 Q526.823 1134.25 530.017 1136.93 Q533.212 1139.62 533.212 1144.11 Q533.212 1146.24 532.402 1148.16 Q531.615 1150.06 529.508 1152.65 Q528.929 1153.32 525.828 1156.54 Q522.726 1159.73 517.078 1165.5 Z" fill="#000000" fill-rule="nonzero" fill-opacity="1" /><path clip-path="url(#clip930)" d="M785.38 1152.6 L815.056 1152.6 L815.056 1156.54 L785.38 1156.54 L785.38 1152.6 Z" fill="#000000" fill-rule="nonzero" fill-opacity="1" /><path clip-path="url(#clip930)" d="M825.958 1165.5 L833.597 1165.5 L833.597 1139.13 L825.287 1140.8 L825.287 1136.54 L833.551 1134.87 L838.227 1134.87 L838.227 1165.5 L845.866 1165.5 L845.866 1169.43 L825.958 1169.43 L825.958 1165.5 Z" fill="#000000" fill-rule="nonzero" fill-opacity="1" /><path clip-path="url(#clip930)" d="M1127.91 1137.95 Q1124.29 1137.95 1122.47 1141.52 Q1120.66 1145.06 1120.66 1152.19 Q1120.66 1159.29 1122.47 1162.86 Q1124.29 1166.4 1127.91 1166.4 Q1131.54 1166.4 1133.35 1162.86 Q1135.17 1159.29 1135.17 1152.19 Q1135.17 1145.06 1133.35 1141.52 Q1131.54 1137.95 1127.91 1137.95 M1127.91 1134.25 Q1133.72 1134.25 1136.77 1138.85 Q1139.85 1143.44 1139.85 1152.19 Q1139.85 1160.91 1136.77 1165.52 Q1133.72 1170.1 1127.91 1170.1 Q1122.1 1170.1 1119.02 1165.52 Q1115.96 1160.91 1115.96 1152.19 Q1115.96 1143.44 1119.02 1138.85 Q1122.1 1134.25 1127.91 1134.25 Z" fill="#000000" fill-rule="nonzero" fill-opacity="1" /><path clip-path="url(#clip930)" d="M1430.57 1165.5 L1438.21 1165.5 L1438.21 1139.13 L1429.9 1140.8 L1429.9 1136.54 L1438.16 1134.87 L1442.84 1134.87 L1442.84 1165.5 L1450.48 1165.5 L1450.48 1169.43 L1430.57 1169.43 L1430.57 1165.5 Z" fill="#000000" fill-rule="nonzero" fill-opacity="1" /><path clip-path="url(#clip930)" d="M1747.13 1165.5 L1763.44 1165.5 L1763.44 1169.43 L1741.5 1169.43 L1741.5 1165.5 Q1744.16 1162.74 1748.75 1158.11 Q1753.35 1153.46 1754.53 1152.12 Q1756.78 1149.59 1757.66 1147.86 Q1758.56 1146.1 1758.56 1144.41 Q1758.56 1141.65 1756.62 1139.92 Q1754.69 1138.18 1751.59 1138.18 Q1749.39 1138.18 1746.94 1138.95 Q1744.51 1139.71 1741.73 1141.26 L1741.73 1136.54 Q1744.56 1135.4 1747.01 1134.83 Q1749.46 1134.25 1751.5 1134.25 Q1756.87 1134.25 1760.07 1136.93 Q1763.26 1139.62 1763.26 1144.11 Q1763.26 1146.24 1762.45 1148.16 Q1761.66 1150.06 1759.56 1152.65 Q1758.98 1153.32 1755.88 1156.54 Q1752.77 1159.73 1747.13 1165.5 Z" fill="#000000" fill-rule="nonzero" fill-opacity="1" /><path clip-path="url(#clip930)" d="M2069 1150.8 Q2072.36 1151.52 2074.24 1153.78 Q2076.13 1156.05 2076.13 1159.39 Q2076.13 1164.5 2072.61 1167.3 Q2069.1 1170.1 2062.61 1170.1 Q2060.44 1170.1 2058.12 1169.66 Q2055.83 1169.25 2053.38 1168.39 L2053.38 1163.88 Q2055.32 1165.01 2057.64 1165.59 Q2059.95 1166.17 2062.48 1166.17 Q2066.87 1166.17 2069.17 1164.43 Q2071.48 1162.7 2071.48 1159.39 Q2071.48 1156.33 2069.33 1154.62 Q2067.2 1152.88 2063.38 1152.88 L2059.35 1152.88 L2059.35 1149.04 L2063.56 1149.04 Q2067.01 1149.04 2068.84 1147.67 Q2070.67 1146.28 2070.67 1143.69 Q2070.67 1141.03 2068.77 1139.62 Q2066.9 1138.18 2063.38 1138.18 Q2061.46 1138.18 2059.26 1138.6 Q2057.06 1139.02 2054.42 1139.9 L2054.42 1135.73 Q2057.08 1134.99 2059.4 1134.62 Q2061.74 1134.25 2063.8 1134.25 Q2069.12 1134.25 2072.22 1136.68 Q2075.32 1139.09 2075.32 1143.21 Q2075.32 1146.08 2073.68 1148.07 Q2072.04 1150.03 2069 1150.8 Z" fill="#000000" fill-rule="nonzero" fill-opacity="1" /><polyline clip-path="url(#clip932)" style="stroke:#000000; stroke-linecap:round; stroke-linejoin:round; stroke-width:2; stroke-opacity:0.1; fill:none" points="191.056,1109.34 2064.76,1109.34 "/>
<polyline clip-path="url(#clip932)" style="stroke:#000000; stroke-linecap:round; stroke-linejoin:round; stroke-width:2; stroke-opacity:0.1; fill:none" points="191.056,953.195 2064.76,953.195 "/>
<polyline clip-path="url(#clip932)" style="stroke:#000000; stroke-linecap:round; stroke-linejoin:round; stroke-width:2; stroke-opacity:0.1; fill:none" points="191.056,797.053 2064.76,797.053 "/>
<polyline clip-path="url(#clip932)" style="stroke:#000000; stroke-linecap:round; stroke-linejoin:round; stroke-width:2; stroke-opacity:0.1; fill:none" points="191.056,640.911 2064.76,640.911 "/>
<polyline clip-path="url(#clip932)" style="stroke:#000000; stroke-linecap:round; stroke-linejoin:round; stroke-width:2; stroke-opacity:0.1; fill:none" points="191.056,484.77 2064.76,484.77 "/>
<polyline clip-path="url(#clip932)" style="stroke:#000000; stroke-linecap:round; stroke-linejoin:round; stroke-width:2; stroke-opacity:0.1; fill:none" points="191.056,328.628 2064.76,328.628 "/>
<polyline clip-path="url(#clip932)" style="stroke:#000000; stroke-linecap:round; stroke-linejoin:round; stroke-width:2; stroke-opacity:0.1; fill:none" points="191.056,172.486 2064.76,172.486 "/>
<polyline clip-path="url(#clip930)" style="stroke:#000000; stroke-linecap:round; stroke-linejoin:round; stroke-width:4; stroke-opacity:1; fill:none" points="191.056,1109.34 191.056,172.486 "/>
<polyline clip-path="url(#clip930)" style="stroke:#000000; stroke-linecap:round; stroke-linejoin:round; stroke-width:4; stroke-opacity:1; fill:none" points="191.056,1109.34 209.954,1109.34 "/>
<polyline clip-path="url(#clip930)" style="stroke:#000000; stroke-linecap:round; stroke-linejoin:round; stroke-width:4; stroke-opacity:1; fill:none" points="191.056,953.195 209.954,953.195 "/>
<polyline clip-path="url(#clip930)" style="stroke:#000000; stroke-linecap:round; stroke-linejoin:round; stroke-width:4; stroke-opacity:1; fill:none" points="191.056,797.053 209.954,797.053 "/>
<polyline clip-path="url(#clip930)" style="stroke:#000000; stroke-linecap:round; stroke-linejoin:round; stroke-width:4; stroke-opacity:1; fill:none" points="191.056,640.911 209.954,640.911 "/>
<polyline clip-path="url(#clip930)" style="stroke:#000000; stroke-linecap:round; stroke-linejoin:round; stroke-width:4; stroke-opacity:1; fill:none" points="191.056,484.77 209.954,484.77 "/>
<polyline clip-path="url(#clip930)" style="stroke:#000000; stroke-linecap:round; stroke-linejoin:round; stroke-width:4; stroke-opacity:1; fill:none" points="191.056,328.628 209.954,328.628 "/>
<polyline clip-path="url(#clip930)" style="stroke:#000000; stroke-linecap:round; stroke-linejoin:round; stroke-width:4; stroke-opacity:1; fill:none" points="191.056,172.486 209.954,172.486 "/>
<path clip-path="url(#clip930)" d="M53.4275 1109.79 L83.1033 1109.79 L83.1033 1113.72 L53.4275 1113.72 L53.4275 1109.79 Z" fill="#000000" fill-rule="nonzero" fill-opacity="1" /><path clip-path="url(#clip930)" d="M94.006 1122.68 L101.645 1122.68 L101.645 1096.32 L93.3347 1097.98 L93.3347 1093.72 L101.599 1092.06 L106.274 1092.06 L106.274 1122.68 L113.913 1122.68 L113.913 1126.62 L94.006 1126.62 L94.006 1122.68 Z" fill="#000000" fill-rule="nonzero" fill-opacity="1" /><path clip-path="url(#clip930)" d="M123.358 1120.74 L128.242 1120.74 L128.242 1126.62 L123.358 1126.62 L123.358 1120.74 Z" fill="#000000" fill-rule="nonzero" fill-opacity="1" /><path clip-path="url(#clip930)" d="M138.473 1092.06 L156.83 1092.06 L156.83 1095.99 L142.756 1095.99 L142.756 1104.46 Q143.774 1104.12 144.793 1103.95 Q145.811 1103.77 146.83 1103.77 Q152.617 1103.77 155.996 1106.94 Q159.376 1110.11 159.376 1115.53 Q159.376 1121.11 155.904 1124.21 Q152.432 1127.29 146.112 1127.29 Q143.936 1127.29 141.668 1126.92 Q139.422 1126.55 137.015 1125.81 L137.015 1121.11 Q139.098 1122.24 141.321 1122.8 Q143.543 1123.35 146.02 1123.35 Q150.024 1123.35 152.362 1121.25 Q154.7 1119.14 154.7 1115.53 Q154.7 1111.92 152.362 1109.81 Q150.024 1107.7 146.02 1107.7 Q144.145 1107.7 142.27 1108.12 Q140.418 1108.54 138.473 1109.42 L138.473 1092.06 Z" fill="#000000" fill-rule="nonzero" fill-opacity="1" /><path clip-path="url(#clip930)" d="M52.4321 953.646 L82.1079 953.646 L82.1079 957.581 L52.4321 957.581 L52.4321 953.646 Z" fill="#000000" fill-rule="nonzero" fill-opacity="1" /><path clip-path="url(#clip930)" d="M93.0106 966.54 L100.649 966.54 L100.649 940.174 L92.3393 941.841 L92.3393 937.581 L100.603 935.915 L105.279 935.915 L105.279 966.54 L112.918 966.54 L112.918 970.475 L93.0106 970.475 L93.0106 966.54 Z" fill="#000000" fill-rule="nonzero" fill-opacity="1" /><path clip-path="url(#clip930)" d="M122.362 964.595 L127.247 964.595 L127.247 970.475 L122.362 970.475 L122.362 964.595 Z" fill="#000000" fill-rule="nonzero" fill-opacity="1" /><path clip-path="url(#clip930)" d="M147.432 938.993 Q143.821 938.993 141.992 942.558 Q140.186 946.1 140.186 953.229 Q140.186 960.336 141.992 963.901 Q143.821 967.442 147.432 967.442 Q151.066 967.442 152.871 963.901 Q154.7 960.336 154.7 953.229 Q154.7 946.1 152.871 942.558 Q151.066 938.993 147.432 938.993 M147.432 935.29 Q153.242 935.29 156.297 939.896 Q159.376 944.48 159.376 953.229 Q159.376 961.956 156.297 966.563 Q153.242 971.146 147.432 971.146 Q141.621 971.146 138.543 966.563 Q135.487 961.956 135.487 953.229 Q135.487 944.48 138.543 939.896 Q141.621 935.29 147.432 935.29 Z" fill="#000000" fill-rule="nonzero" fill-opacity="1" /><path clip-path="url(#clip930)" d="M53.4275 797.504 L83.1033 797.504 L83.1033 801.44 L53.4275 801.44 L53.4275 797.504 Z" fill="#000000" fill-rule="nonzero" fill-opacity="1" /><path clip-path="url(#clip930)" d="M103.196 782.852 Q99.5847 782.852 97.756 786.417 Q95.9504 789.958 95.9504 797.088 Q95.9504 804.194 97.756 807.759 Q99.5847 811.301 103.196 811.301 Q106.83 811.301 108.636 807.759 Q110.464 804.194 110.464 797.088 Q110.464 789.958 108.636 786.417 Q106.83 782.852 103.196 782.852 M103.196 779.148 Q109.006 779.148 112.061 783.755 Q115.14 788.338 115.14 797.088 Q115.14 805.815 112.061 810.421 Q109.006 815.004 103.196 815.004 Q97.3856 815.004 94.3069 810.421 Q91.2514 805.815 91.2514 797.088 Q91.2514 788.338 94.3069 783.755 Q97.3856 779.148 103.196 779.148 Z" fill="#000000" fill-rule="nonzero" fill-opacity="1" /><path clip-path="url(#clip930)" d="M123.358 808.453 L128.242 808.453 L128.242 814.333 L123.358 814.333 L123.358 808.453 Z" fill="#000000" fill-rule="nonzero" fill-opacity="1" /><path clip-path="url(#clip930)" d="M138.473 779.773 L156.83 779.773 L156.83 783.708 L142.756 783.708 L142.756 792.18 Q143.774 791.833 144.793 791.671 Q145.811 791.486 146.83 791.486 Q152.617 791.486 155.996 794.657 Q159.376 797.829 159.376 803.245 Q159.376 808.824 155.904 811.926 Q152.432 815.004 146.112 815.004 Q143.936 815.004 141.668 814.634 Q139.422 814.264 137.015 813.523 L137.015 808.824 Q139.098 809.958 141.321 810.514 Q143.543 811.069 146.02 811.069 Q150.024 811.069 152.362 808.963 Q154.7 806.856 154.7 803.245 Q154.7 799.634 152.362 797.528 Q150.024 795.421 146.02 795.421 Q144.145 795.421 142.27 795.838 Q140.418 796.254 138.473 797.134 L138.473 779.773 Z" fill="#000000" fill-rule="nonzero" fill-opacity="1" /><path clip-path="url(#clip930)" d="M102.2 626.71 Q98.5893 626.71 96.7606 630.275 Q94.955 633.817 94.955 640.946 Q94.955 648.053 96.7606 651.617 Q98.5893 655.159 102.2 655.159 Q105.835 655.159 107.64 651.617 Q109.469 648.053 109.469 640.946 Q109.469 633.817 107.64 630.275 Q105.835 626.71 102.2 626.71 M102.2 623.006 Q108.011 623.006 111.066 627.613 Q114.145 632.196 114.145 640.946 Q114.145 649.673 111.066 654.279 Q108.011 658.863 102.2 658.863 Q96.3902 658.863 93.3115 654.279 Q90.256 649.673 90.256 640.946 Q90.256 632.196 93.3115 627.613 Q96.3902 623.006 102.2 623.006 Z" fill="#000000" fill-rule="nonzero" fill-opacity="1" /><path clip-path="url(#clip930)" d="M122.362 652.312 L127.247 652.312 L127.247 658.191 L122.362 658.191 L122.362 652.312 Z" fill="#000000" fill-rule="nonzero" fill-opacity="1" /><path clip-path="url(#clip930)" d="M147.432 626.71 Q143.821 626.71 141.992 630.275 Q140.186 633.817 140.186 640.946 Q140.186 648.053 141.992 651.617 Q143.821 655.159 147.432 655.159 Q151.066 655.159 152.871 651.617 Q154.7 648.053 154.7 640.946 Q154.7 633.817 152.871 630.275 Q151.066 626.71 147.432 626.71 M147.432 623.006 Q153.242 623.006 156.297 627.613 Q159.376 632.196 159.376 640.946 Q159.376 649.673 156.297 654.279 Q153.242 658.863 147.432 658.863 Q141.621 658.863 138.543 654.279 Q135.487 649.673 135.487 640.946 Q135.487 632.196 138.543 627.613 Q141.621 623.006 147.432 623.006 Z" fill="#000000" fill-rule="nonzero" fill-opacity="1" /><path clip-path="url(#clip930)" d="M103.196 470.568 Q99.5847 470.568 97.756 474.133 Q95.9504 477.675 95.9504 484.805 Q95.9504 491.911 97.756 495.476 Q99.5847 499.017 103.196 499.017 Q106.83 499.017 108.636 495.476 Q110.464 491.911 110.464 484.805 Q110.464 477.675 108.636 474.133 Q106.83 470.568 103.196 470.568 M103.196 466.865 Q109.006 466.865 112.061 471.471 Q115.14 476.055 115.14 484.805 Q115.14 493.531 112.061 498.138 Q109.006 502.721 103.196 502.721 Q97.3856 502.721 94.3069 498.138 Q91.2514 493.531 91.2514 484.805 Q91.2514 476.055 94.3069 471.471 Q97.3856 466.865 103.196 466.865 Z" fill="#000000" fill-rule="nonzero" fill-opacity="1" /><path clip-path="url(#clip930)" d="M123.358 496.17 L128.242 496.17 L128.242 502.05 L123.358 502.05 L123.358 496.17 Z" fill="#000000" fill-rule="nonzero" fill-opacity="1" /><path clip-path="url(#clip930)" d="M138.473 467.49 L156.83 467.49 L156.83 471.425 L142.756 471.425 L142.756 479.897 Q143.774 479.55 144.793 479.388 Q145.811 479.203 146.83 479.203 Q152.617 479.203 155.996 482.374 Q159.376 485.545 159.376 490.962 Q159.376 496.541 155.904 499.642 Q152.432 502.721 146.112 502.721 Q143.936 502.721 141.668 502.351 Q139.422 501.98 137.015 501.24 L137.015 496.541 Q139.098 497.675 141.321 498.23 Q143.543 498.786 146.02 498.786 Q150.024 498.786 152.362 496.679 Q154.7 494.573 154.7 490.962 Q154.7 487.351 152.362 485.244 Q150.024 483.138 146.02 483.138 Q144.145 483.138 142.27 483.555 Q140.418 483.971 138.473 484.851 L138.473 467.49 Z" fill="#000000" fill-rule="nonzero" fill-opacity="1" /><path clip-path="url(#clip930)" d="M93.0106 341.973 L100.649 341.973 L100.649 315.607 L92.3393 317.274 L92.3393 313.015 L100.603 311.348 L105.279 311.348 L105.279 341.973 L112.918 341.973 L112.918 345.908 L93.0106 345.908 L93.0106 341.973 Z" fill="#000000" fill-rule="nonzero" fill-opacity="1" /><path clip-path="url(#clip930)" d="M122.362 340.029 L127.247 340.029 L127.247 345.908 L122.362 345.908 L122.362 340.029 Z" fill="#000000" fill-rule="nonzero" fill-opacity="1" /><path clip-path="url(#clip930)" d="M147.432 314.427 Q143.821 314.427 141.992 317.992 Q140.186 321.533 140.186 328.663 Q140.186 335.769 141.992 339.334 Q143.821 342.876 147.432 342.876 Q151.066 342.876 152.871 339.334 Q154.7 335.769 154.7 328.663 Q154.7 321.533 152.871 317.992 Q151.066 314.427 147.432 314.427 M147.432 310.723 Q153.242 310.723 156.297 315.33 Q159.376 319.913 159.376 328.663 Q159.376 337.39 156.297 341.996 Q153.242 346.579 147.432 346.579 Q141.621 346.579 138.543 341.996 Q135.487 337.39 135.487 328.663 Q135.487 319.913 138.543 315.33 Q141.621 310.723 147.432 310.723 Z" fill="#000000" fill-rule="nonzero" fill-opacity="1" /><path clip-path="url(#clip930)" d="M94.006 185.831 L101.645 185.831 L101.645 159.466 L93.3347 161.132 L93.3347 156.873 L101.599 155.206 L106.274 155.206 L106.274 185.831 L113.913 185.831 L113.913 189.766 L94.006 189.766 L94.006 185.831 Z" fill="#000000" fill-rule="nonzero" fill-opacity="1" /><path clip-path="url(#clip930)" d="M123.358 183.887 L128.242 183.887 L128.242 189.766 L123.358 189.766 L123.358 183.887 Z" fill="#000000" fill-rule="nonzero" fill-opacity="1" /><path clip-path="url(#clip930)" d="M138.473 155.206 L156.83 155.206 L156.83 159.142 L142.756 159.142 L142.756 167.614 Q143.774 167.267 144.793 167.105 Q145.811 166.919 146.83 166.919 Q152.617 166.919 155.996 170.091 Q159.376 173.262 159.376 178.679 Q159.376 184.257 155.904 187.359 Q152.432 190.438 146.112 190.438 Q143.936 190.438 141.668 190.067 Q139.422 189.697 137.015 188.956 L137.015 184.257 Q139.098 185.391 141.321 185.947 Q143.543 186.503 146.02 186.503 Q150.024 186.503 152.362 184.396 Q154.7 182.29 154.7 178.679 Q154.7 175.067 152.362 172.961 Q150.024 170.855 146.02 170.855 Q144.145 170.855 142.27 171.271 Q140.418 171.688 138.473 172.567 L138.473 155.206 Z" fill="#000000" fill-rule="nonzero" fill-opacity="1" /><polyline clip-path="url(#clip932)" style="stroke:#1e90ff; stroke-linecap:round; stroke-linejoin:round; stroke-width:4; stroke-opacity:1; fill:none" points="1094.37,599.822 1096.28,602.17 1097.38,603.605 1098.2,604.518 1100.17,606.866 1102,609.214 1102.08,609.319 1104.03,611.562 1105.91,613.909 1106.77,615.077 1107.86,616.257 1109.82,618.605 1111.47,620.799 1111.62,620.953 1113.71,623.301 1115.54,625.649 1116.17,626.582 1117.58,627.997 1119.54,630.345 1120.86,632.327 1121.35,632.693 1123.7,635.041 1125.26,637.389 1125.56,638.27 1130.25,638.27 1130.55,637.389 1132.11,635.041 1134.46,632.693 1134.95,632.327 1136.27,630.345 1138.23,627.997 1139.65,626.582 1140.27,625.649 1142.1,623.301 1144.19,620.953 1144.34,620.799 1145.99,618.605 1147.95,616.257 1149.04,615.077 1149.9,613.909 1151.78,611.562 1153.73,609.319 1153.81,609.214 1155.65,606.866 1157.61,604.518 1158.43,603.605 1159.53,602.17 1161.45,599.822 1163.13,597.877 1163.43,597.474 1165.31,595.126 1167.28,592.778 1167.82,592.169 1169.19,590.43 1171.13,588.082 1172.52,586.47 1173.09,585.734 1175,583.386 1176.99,581.038 1177.21,580.778 1178.89,578.69 1180.85,576.342 1181.91,575.111 1182.8,573.994 1184.73,571.646 1186.61,569.446 1186.72,569.298 1188.64,566.95 1190.62,564.602 1191.3,563.811 1192.56,562.254 1194.52,559.906 1196,558.186 1196.5,557.558 1198.45,555.21 1200.45,552.862 1200.69,552.579 1202.39,550.514 1204.38,548.166 1205.39,547 1206.36,545.818 1208.33,543.47 1210.09,541.434 1210.34,541.122 1212.31,538.774 1214.32,536.426 1214.78,535.897 1216.3,534.078 1218.3,531.73 1219.48,530.384 1220.31,529.382 1222.31,527.034 1224.17,524.892 1224.35,524.686 1226.34,522.338 1228.38,519.99 1228.87,519.434 1230.39,517.642 1232.43,515.294 1233.57,514.004 1234.47,512.946 1236.5,510.598 1238.26,508.599 1238.56,508.25 1240.6,505.902 1242.67,503.554 1242.96,503.229 1244.72,501.206 1246.79,498.858 1247.65,497.895 1248.86,496.51 1250.94,494.162 1252.35,492.592 1253.03,491.814 1255.11,489.466 1257.05,487.324 1257.23,487.118 1259.32,484.77 1261.44,482.422 1261.74,482.096 1263.55,480.074 1265.68,477.726 1266.44,476.908 1267.82,475.378 1269.96,473.03 1271.13,471.76 1272.11,470.682 1274.27,468.334 1275.83,466.653 1276.44,465.986 1278.61,463.638 1280.53,461.588 1280.8,461.29 1282.98,458.942 1285.2,456.594 1285.22,456.569 1287.4,454.246 1289.63,451.898 1289.92,451.6 1291.86,449.55 1294.11,447.202 1294.61,446.679 1296.36,444.854 1298.63,442.506 1299.31,441.808 1300.9,440.158 1303.19,437.81 1304.01,436.988 1305.49,435.462 1307.81,433.114 1308.7,432.222 1310.14,430.766 1312.48,428.418 1313.4,427.511 1314.84,426.07 1317.21,423.722 1318.09,422.857 1319.6,421.374 1322,419.026 1322.79,418.262 1324.42,416.678 1326.85,414.33 1327.49,413.728 1329.31,411.982 1331.78,409.634 1332.18,409.256 1334.27,407.286 1336.78,404.938 1336.88,404.848 1339.31,402.59 1341.57,400.508 1341.86,400.242 1344.44,397.894 1346.27,396.237 1347.03,395.546 1349.66,393.198 1350.97,392.036 1352.3,390.85 1354.98,388.502 1355.66,387.906 1357.68,386.154 1360.36,383.849 1360.41,383.806 1363.17,381.458 1365.05,379.873 1365.96,379.11 1368.79,376.762 1369.75,375.974 1371.66,374.414 1374.45,372.154 1374.55,372.066 1377.5,369.718 1379.14,368.421 1380.48,367.37 1383.51,365.022 1383.84,364.771 1386.59,362.674 1388.53,361.211 1389.72,360.326 1392.9,357.978 1393.23,357.74 1396.16,355.63 1397.93,354.365 1399.47,353.282 1402.62,351.082 1402.84,350.934 1406.3,348.586 1407.32,347.901 1409.84,346.238 1412.01,344.82 1413.47,343.89 1416.71,341.842 1417.2,341.542 1421.04,339.194 1421.41,338.973 1425.02,336.846 1426.1,336.214 1429.14,334.498 1430.8,333.569 1433.42,332.15 1435.49,331.04 1437.9,329.802 1440.19,328.63 1442.6,327.454 1444.89,326.345 1447.57,325.106 1449.58,324.186 1452.88,322.758 1454.28,322.158 1458.61,320.41 1458.97,320.265 1463.67,318.513 1464.98,318.062 1468.37,316.904 1472.18,315.714 1473.06,315.44 1477.76,314.132 1480.87,313.366 1482.45,312.98 1487.15,311.992 1491.85,311.169 1492.94,311.018 1496.54,310.523 1501.24,310.056 1505.93,309.775 1510.63,309.687 1515.33,309.8 1520.02,310.119 1524.72,310.654 1526.97,311.018 1529.41,311.415 1534.11,312.41 1537.74,313.366 1538.81,313.647 1543.5,315.141 1545.04,315.714 1548.2,316.901 1550.88,318.062 1552.89,318.939 1555.86,320.41 1557.59,321.27 1560.25,322.758 1562.29,323.909 1564.19,325.106 1566.98,326.871 1567.81,327.454 1571.15,329.802 1571.68,330.176 1574.21,332.15 1576.37,333.845 1577.14,334.498 1579.86,336.846 1581.07,337.899 1582.44,339.194 1584.91,341.542 1585.76,342.363 1587.24,343.89 1589.48,346.238 1590.46,347.266 1591.62,348.586 1593.68,350.934 1595.16,352.641 1595.67,353.282 1597.56,355.63 1599.42,357.978 1599.85,358.525 1601.18,360.326 1602.89,362.674 1604.55,364.961 1604.59,365.022 1606.17,367.37 1607.74,369.718 1609.24,372.001 1609.29,372.066 1610.73,374.414 1612.16,376.762 1613.58,379.11 1613.94,379.707 1614.93,381.458 1616.24,383.806 1617.54,386.154 1618.64,388.148 1618.82,388.502 1620.02,390.85 1621.22,393.198 1622.4,395.546 1623.33,397.416 1623.56,397.894 1624.65,400.242 1625.74,402.59 1626.81,404.938 1627.88,407.286 1628.03,407.621 1628.88,409.634 1629.87,411.982 1630.85,414.33 1631.82,416.678 1632.72,418.908 1632.77,419.026 1633.67,421.374 1634.56,423.722 1635.44,426.07 1636.31,428.418 1637.17,430.766 1637.42,431.47 1637.99,433.114 1638.79,435.462 1639.57,437.81 1640.36,440.158 1641.13,442.506 1641.89,444.854 1642.12,445.564 1642.62,447.202 1643.32,449.55 1644.02,451.898 1644.71,454.246 1645.4,456.594 1646.07,458.942 1646.73,461.29 1646.81,461.569 1647.36,463.638 1647.98,465.986 1648.59,468.334 1649.19,470.682 1649.78,473.03 1650.36,475.378 1650.94,477.726 1651.51,480.074 1651.51,480.077 1652.04,482.422 1652.57,484.77 1653.08,487.118 1653.59,489.466 1654.1,491.814 1654.59,494.162 1655.08,496.51 1655.55,498.858 1656.03,501.206 1656.2,502.117 1656.48,503.554 1656.91,505.902 1657.34,508.25 1657.76,510.598 1658.17,512.946 1658.57,515.294 1658.97,517.642 1659.36,519.99 1659.74,522.338 1660.11,524.686 1660.48,527.034 1660.84,529.382 1660.9,529.784 1661.18,531.73 1661.51,534.078 1661.83,536.426 1662.15,538.774 1662.45,541.122 1662.75,543.47 1663.05,545.818 1663.33,548.166 1663.61,550.514 1663.89,552.862 1664.15,555.21 1664.41,557.558 1664.66,559.906 1664.9,562.254 1665.14,564.602 1665.37,566.95 1665.59,569.298 1665.6,569.389 1665.79,571.646 1665.99,573.994 1666.18,576.342 1666.37,578.69 1666.55,581.038 1666.72,583.386 1666.88,585.734 1667.04,588.082 1667.19,590.43 1667.34,592.778 1667.47,595.126 1667.6,597.474 1667.73,599.822 1667.84,602.17 1667.95,604.518 1668.05,606.866 1668.15,609.214 1668.24,611.562 1668.32,613.909 1668.4,616.257 1668.47,618.605 1668.53,620.953 1668.58,623.301 1668.63,625.649 1668.67,627.997 1668.7,630.345 1668.73,632.693 1668.75,635.041 1668.77,637.389 1668.77,639.737 1668.77,642.085 1668.77,644.433 1668.75,646.781 1668.73,649.129 1668.7,651.477 1668.67,653.825 1668.63,656.173 1668.58,658.521 1668.53,660.869 1668.47,663.217 1668.4,665.565 1668.32,667.913 1668.24,670.261 1668.15,672.609 1668.05,674.957 1667.95,677.305 1667.84,679.653 1667.73,682.001 1667.6,684.349 1667.47,686.697 1667.34,689.045 1667.19,691.393 1667.04,693.741 1666.88,696.089 1666.72,698.437 1666.55,700.785 1666.37,703.133 1666.18,705.481 1665.99,707.829 1665.79,710.177 1665.6,712.434 1665.59,712.525 1665.37,714.873 1665.14,717.221 1664.9,719.569 1664.66,721.917 1664.41,724.265 1664.15,726.613 1663.89,728.961 1663.61,731.309 1663.33,733.657 1663.05,736.005 1662.75,738.353 1662.45,740.701 1662.15,743.049 1661.83,745.397 1661.51,747.745 1661.18,750.093 1660.9,752.039 1660.84,752.441 1660.48,754.789 1660.11,757.137 1659.74,759.485 1659.36,761.833 1658.97,764.181 1658.57,766.529 1658.17,768.877 1657.76,771.225 1657.34,773.573 1656.91,775.921 1656.48,778.269 1656.2,779.706 1656.03,780.617 1655.55,782.965 1655.08,785.313 1654.59,787.661 1654.1,790.009 1653.59,792.357 1653.08,794.705 1652.57,797.053 1652.04,799.401 1651.51,801.746 1651.51,801.749 1650.94,804.097 1650.36,806.445 1649.78,808.793 1649.19,811.141 1648.59,813.489 1647.98,815.837 1647.36,818.185 1646.81,820.254 1646.73,820.533 1646.07,822.881 1645.4,825.229 1644.71,827.577 1644.02,829.925 1643.32,832.273 1642.62,834.621 1642.12,836.259 1641.89,836.969 1641.13,839.317 1640.36,841.665 1639.57,844.013 1638.79,846.361 1637.99,848.709 1637.42,850.353 1637.17,851.057 1636.31,853.405 1635.44,855.753 1634.56,858.101 1633.67,860.449 1632.77,862.797 1632.72,862.915 1631.82,865.145 1630.85,867.493 1629.87,869.841 1628.88,872.189 1628.03,874.202 1627.88,874.537 1626.81,876.885 1625.74,879.233 1624.65,881.581 1623.56,883.929 1623.33,884.407 1622.4,886.277 1621.22,888.625 1620.02,890.973 1618.82,893.321 1618.64,893.675 1617.54,895.669 1616.24,898.017 1614.93,900.365 1613.94,902.116 1613.58,902.713 1612.16,905.061 1610.73,907.409 1609.29,909.757 1609.24,909.822 1607.74,912.105 1606.17,914.453 1604.59,916.801 1604.55,916.862 1602.89,919.149 1601.18,921.497 1599.85,923.298 1599.42,923.845 1597.56,926.193 1595.67,928.541 1595.16,929.182 1593.68,930.889 1591.62,933.237 1590.46,934.556 1589.48,935.585 1587.24,937.933 1585.76,939.46 1584.91,940.281 1582.44,942.629 1581.07,943.924 1579.86,944.977 1577.14,947.325 1576.37,947.978 1574.21,949.673 1571.68,951.647 1571.15,952.021 1567.81,954.369 1566.98,954.952 1564.19,956.717 1562.29,957.914 1560.25,959.065 1557.59,960.553 1555.86,961.413 1552.89,962.884 1550.88,963.761 1548.2,964.922 1545.04,966.109 1543.5,966.682 1538.81,968.175 1537.74,968.457 1534.11,969.413 1529.41,970.408 1526.97,970.805 1524.72,971.168 1520.02,971.703 1515.33,972.023 1510.63,972.136 1505.93,972.048 1501.24,971.767 1496.54,971.3 1492.94,970.805 1491.85,970.654 1487.15,969.831 1482.45,968.843 1480.87,968.457 1477.76,967.691 1473.06,966.382 1472.18,966.109 1468.37,964.919 1464.98,963.761 1463.67,963.31 1458.97,961.558 1458.61,961.413 1454.28,959.664 1452.88,959.065 1449.58,957.637 1447.57,956.717 1444.89,955.478 1442.6,954.369 1440.19,953.193 1437.9,952.021 1435.49,950.783 1433.42,949.673 1430.8,948.254 1429.14,947.325 1426.1,945.609 1425.02,944.977 1421.41,942.85 1421.04,942.629 1417.2,940.281 1416.71,939.98 1413.47,937.933 1412.01,937.002 1409.84,935.585 1407.32,933.922 1406.3,933.237 1402.84,930.889 1402.62,930.741 1399.47,928.541 1397.93,927.458 1396.16,926.193 1393.23,924.083 1392.9,923.845 1389.72,921.497 1388.53,920.611 1386.59,919.149 1383.84,917.052 1383.51,916.801 1380.48,914.453 1379.14,913.402 1377.5,912.105 1374.55,909.757 1374.45,909.669 1371.66,907.409 1369.75,905.849 1368.79,905.061 1365.96,902.713 1365.05,901.95 1363.17,900.365 1360.41,898.017 1360.36,897.974 1357.68,895.669 1355.66,893.917 1354.98,893.321 1352.3,890.973 1350.97,889.787 1349.66,888.625 1347.03,886.277 1346.27,885.586 1344.44,883.929 1341.86,881.581 1341.57,881.315 1339.31,879.233 1336.88,876.975 1336.78,876.885 1334.27,874.537 1332.18,872.567 1331.78,872.189 1329.31,869.841 1327.49,868.095 1326.85,867.493 1324.42,865.145 1322.79,863.56 1322,862.797 1319.6,860.449 1318.09,858.965 1317.21,858.101 1314.84,855.753 1313.4,854.312 1312.48,853.405 1310.14,851.057 1308.7,849.601 1307.81,848.709 1305.49,846.361 1304.01,844.835 1303.19,844.013 1300.9,841.665 1299.31,840.015 1298.63,839.317 1296.36,836.969 1294.61,835.144 1294.11,834.621 1291.86,832.273 1289.92,830.223 1289.63,829.925 1287.4,827.577 1285.22,825.254 1285.2,825.229 1282.98,822.881 1280.8,820.533 1280.53,820.235 1278.61,818.185 1276.44,815.837 1275.83,815.17 1274.27,813.489 1272.11,811.141 1271.13,810.063 1269.96,808.793 1267.82,806.445 1266.44,804.915 1265.68,804.097 1263.55,801.749 1261.74,799.727 1261.44,799.401 1259.32,797.053 1257.23,794.705 1257.05,794.499 1255.11,792.357 1253.03,790.009 1252.35,789.23 1250.94,787.661 1248.86,785.313 1247.65,783.928 1246.79,782.965 1244.72,780.617 1242.96,778.594 1242.67,778.269 1240.6,775.921 1238.56,773.573 1238.26,773.223 1236.5,771.225 1234.47,768.877 1233.57,767.819 1232.43,766.529 1230.39,764.181 1228.87,762.389 1228.38,761.833 1226.34,759.485 1224.35,757.137 1224.17,756.931 1222.31,754.789 1220.31,752.441 1219.48,751.438 1218.3,750.093 1216.3,747.745 1214.78,745.926 1214.32,745.397 1212.31,743.049 1210.34,740.701 1210.09,740.389 1208.33,738.353 1206.36,736.005 1205.39,734.823 1204.38,733.657 1202.39,731.309 1200.69,729.244 1200.45,728.961 1198.45,726.613 1196.5,724.265 1196,723.637 1194.52,721.917 1192.56,719.569 1191.3,718.012 1190.62,717.221 1188.64,714.873 1186.72,712.525 1186.61,712.377 1184.73,710.177 1182.8,707.829 1181.91,706.711 1180.85,705.481 1178.89,703.133 1177.21,701.045 1176.99,700.785 1175,698.437 1173.09,696.089 1172.52,695.353 1171.13,693.741 1169.19,691.393 1167.82,689.654 1167.28,689.045 1165.31,686.697 1163.43,684.349 1163.13,683.946 1161.45,682.001 1159.53,679.653 1158.43,678.218 1157.61,677.305 1155.65,674.957 1153.81,672.609 1153.73,672.504 1151.78,670.261 1149.9,667.913 1149.04,666.746 1147.95,665.565 1145.99,663.217 1144.34,661.024 1144.19,660.869 1142.1,658.521 1140.27,656.173 1139.65,655.241 1138.23,653.825 1136.27,651.477 1134.95,649.496 1134.46,649.129 1132.11,646.781 1130.55,644.433 1130.25,643.553 1125.56,643.553 1125.26,644.433 1123.7,646.781 1121.35,649.129 1120.86,649.496 1119.54,651.477 1117.58,653.825 1116.17,655.241 1115.54,656.173 1113.71,658.521 1111.62,660.869 1111.47,661.024 1109.82,663.217 1107.86,665.565 1106.77,666.746 1105.91,667.913 1104.03,670.261 1102.08,672.504 1102,672.609 1100.17,674.957 1098.2,677.305 1097.38,678.218 1096.28,679.653 1094.37,682.001 1092.69,683.946 1092.38,684.349 1090.5,686.697 1088.53,689.045 1087.99,689.654 1086.62,691.393 1084.68,693.741 1083.29,695.353 1082.72,696.089 1080.81,698.437 1078.83,700.785 1078.6,701.045 1076.92,703.133 1074.97,705.481 1073.9,706.711 1073.01,707.829 1071.08,710.177 1069.21,712.377 1069.09,712.525 1067.17,714.873 1065.2,717.221 1064.51,718.012 1063.25,719.569 1061.29,721.917 1059.81,723.637 1059.31,724.265 1057.36,726.613 1055.37,728.961 1055.12,729.244 1053.42,731.309 1051.43,733.657 1050.42,734.823 1049.45,736.005 1047.48,738.353 1045.73,740.389 1045.47,740.701 1043.51,743.049 1041.49,745.397 1041.03,745.926 1039.51,747.745 1037.51,750.093 1036.33,751.438 1035.5,752.441 1033.5,754.789 1031.64,756.931 1031.47,757.137 1029.47,759.485 1027.43,761.833 1026.94,762.389 1025.42,764.181 1023.38,766.529 1022.25,767.819 1021.35,768.877 1019.31,771.225 1017.55,773.223 1017.25,773.573 1015.22,775.921 1013.15,778.269 1012.85,778.594 1011.1,780.617 1009.02,782.965 1008.16,783.928 1006.95,785.313 1004.87,787.661 1003.46,789.23 1002.78,790.009 1000.7,792.357 998.766,794.499 998.585,794.705 996.493,797.053 994.369,799.401 994.07,799.727 992.26,801.749 990.127,804.097 989.374,804.915 987.997,806.445 985.854,808.793 984.678,810.063 983.702,811.141 981.547,813.489 979.982,815.17 979.374,815.837 977.205,818.185 975.286,820.235 975.012,820.533 972.827,822.881 970.614,825.229 970.59,825.254 968.411,827.577 966.181,829.925 965.894,830.223 963.954,832.273 961.705,834.621 961.198,835.144 959.455,836.969 957.185,839.317 956.502,840.015 954.91,841.665 952.618,844.013 951.806,844.835 950.317,846.361 948,848.709 947.11,849.601 945.673,851.057 943.329,853.405 942.414,854.312 940.974,855.753 938.601,858.101 937.718,858.965 936.216,860.449 933.812,862.797 933.022,863.56 931.395,865.145 928.958,867.493 928.326,868.095 926.506,869.841 924.033,872.189 923.63,872.567 921.544,874.537 919.032,876.885 918.934,876.975 916.503,879.233 914.238,881.315 913.95,881.581 911.376,883.929 909.542,885.586 908.778,886.277 906.157,888.625 904.846,889.787 903.509,890.973 900.836,893.321 900.15,893.917 898.133,895.669 895.454,897.974 895.404,898.017 892.641,900.365 890.758,901.95 889.848,902.713 887.02,905.061 886.062,905.849 884.155,907.409 881.366,909.669 881.257,909.757 878.312,912.105 876.671,913.402 875.327,914.453 872.301,916.801 871.975,917.052 869.218,919.149 867.279,920.611 866.089,921.497 862.908,923.845 862.583,924.083 859.656,926.193 857.887,927.458 856.346,928.541 853.191,930.741 852.974,930.889 849.512,933.237 848.495,933.922 845.969,935.585 843.799,937.002 842.339,937.933 839.103,939.98 838.615,940.281 834.772,942.629 834.407,942.85 830.793,944.977 829.711,945.609 826.673,947.325 825.015,948.254 822.389,949.673 820.319,950.783 817.916,952.021 815.623,953.193 813.215,954.369 810.927,955.478 808.241,956.717 806.231,957.637 802.931,959.065 801.535,959.664 797.201,961.413 796.839,961.558 792.143,963.31 790.835,963.761 787.447,964.919 783.634,966.109 782.751,966.382 778.055,967.691 774.941,968.457 773.359,968.843 768.663,969.831 763.967,970.654 762.876,970.805 759.271,971.3 754.575,971.767 749.879,972.048 745.183,972.136 740.487,972.023 735.791,971.703 731.095,971.168 728.841,970.805 726.399,970.408 721.703,969.413 718.069,968.457 717.007,968.175 712.311,966.682 710.774,966.109 707.615,964.922 704.931,963.761 702.919,962.884 699.947,961.413 698.223,960.553 695.566,959.065 693.527,957.914 691.621,956.717 688.831,954.952 687.997,954.369 684.662,952.021 684.135,951.647 681.6,949.673 679.439,947.978 678.676,947.325 675.954,944.977 674.743,943.924 673.371,942.629 670.903,940.281 670.047,939.46 668.574,937.933 666.327,935.585 665.351,934.556 664.188,933.237 662.135,930.889 660.655,929.182 660.137,928.541 658.256,926.193 656.39,923.845 655.959,923.298 654.633,921.497 652.918,919.149 651.263,916.862 651.221,916.801 649.642,914.453 648.076,912.105 646.567,909.822 646.527,909.757 645.081,907.409 643.649,905.061 642.229,902.713 641.871,902.116 640.883,900.365 639.57,898.017 638.269,895.669 637.175,893.675 636.992,893.321 635.787,890.973 634.594,888.625 633.411,886.277 632.479,884.407 632.254,883.929 631.158,881.581 630.072,879.233 628.998,876.885 627.934,874.537 627.783,874.202 626.928,872.189 625.941,869.841 624.963,867.493 623.996,865.145 623.087,862.915 623.042,862.797 622.143,860.449 621.255,858.101 620.376,855.753 619.506,853.405 618.646,851.057 618.391,850.353 617.826,848.709 617.027,846.361 616.237,844.013 615.457,841.665 614.685,839.317 613.923,836.969 613.695,836.259 613.195,834.621 612.487,832.273 611.788,829.925 611.097,827.577 610.415,825.229 609.742,822.881 609.077,820.533 608.999,820.254 608.448,818.185 607.832,815.837 607.223,813.489 606.623,811.141 606.031,808.793 605.447,806.445 604.871,804.097 604.304,801.749 604.303,801.746 603.771,799.401 603.245,797.053 602.728,794.705 602.218,792.357 601.716,790.009 601.222,787.661 600.736,785.313 600.257,782.965 599.787,780.617 599.607,779.706 599.337,778.269 598.903,775.921 598.476,773.573 598.056,771.225 597.645,768.877 597.24,766.529 596.843,764.181 596.454,761.833 596.072,759.485 595.698,757.137 595.331,754.789 594.971,752.441 594.911,752.039 594.632,750.093 594.303,747.745 593.981,745.397 593.666,743.049 593.358,740.701 593.058,738.353 592.764,736.005 592.478,733.657 592.199,731.309 591.927,728.961 591.662,726.613 591.404,724.265 591.154,721.917 590.911,719.569 590.674,717.221 590.445,714.873 590.223,712.525 590.215,712.434 590.018,710.177 589.819,707.829 589.627,705.481 589.442,703.133 589.264,700.785 589.093,698.437 588.929,696.089 588.771,693.741 588.621,691.393 588.477,689.045 588.34,686.697 588.21,684.349 588.086,682.001 587.97,679.653 587.86,677.305 587.758,674.957 587.662,672.609 587.573,670.261 587.49,667.913 587.415,665.565 587.347,663.217 587.285,660.869 587.23,658.521 587.182,656.173 587.141,653.825 587.107,651.477 587.08,649.129 587.059,646.781 587.045,644.433 587.038,642.085 587.038,639.737 587.045,637.389 587.059,635.041 587.08,632.693 587.107,630.345 587.141,627.997 587.182,625.649 587.23,623.301 587.285,620.953 587.347,618.605 587.415,616.257 587.49,613.909 587.573,611.562 587.662,609.214 587.758,606.866 587.86,604.518 587.97,602.17 588.086,599.822 588.21,597.474 588.34,595.126 588.477,592.778 588.621,590.43 588.771,588.082 588.929,585.734 589.093,583.386 589.264,581.038 589.442,578.69 589.627,576.342 589.819,573.994 590.018,571.646 590.215,569.389 590.223,569.298 590.445,566.95 590.674,564.602 590.911,562.254 591.154,559.906 591.404,557.558 591.662,555.21 591.927,552.862 592.199,550.514 592.478,548.166 592.764,545.818 593.058,543.47 593.358,541.122 593.666,538.774 593.981,536.426 594.303,534.078 594.632,531.73 594.911,529.784 594.971,529.382 595.331,527.034 595.698,524.686 596.072,522.338 596.454,519.99 596.843,517.642 597.24,515.294 597.645,512.946 598.056,510.598 598.476,508.25 598.903,505.902 599.337,503.554 599.607,502.117 599.787,501.206 600.257,498.858 600.736,496.51 601.222,494.162 601.716,491.814 602.218,489.466 602.728,487.118 603.245,484.77 603.771,482.422 604.303,480.077 604.304,480.074 604.871,477.726 605.447,475.378 606.031,473.03 606.623,470.682 607.223,468.334 607.832,465.986 608.448,463.638 608.999,461.569 609.077,461.29 609.742,458.942 610.415,456.594 611.097,454.246 611.788,451.898 612.487,449.55 613.195,447.202 613.695,445.564 613.923,444.854 614.685,442.506 615.457,440.158 616.237,437.81 617.027,435.462 617.826,433.114 618.391,431.47 618.646,430.766 619.506,428.418 620.376,426.07 621.255,423.722 622.143,421.374 623.042,419.026 623.087,418.908 623.996,416.678 624.963,414.33 625.941,411.982 626.928,409.634 627.783,407.621 627.934,407.286 628.998,404.938 630.072,402.59 631.158,400.242 632.254,397.894 632.479,397.416 633.411,395.546 634.594,393.198 635.787,390.85 636.992,388.502 637.175,388.148 638.269,386.154 639.57,383.806 640.883,381.458 641.871,379.707 642.229,379.11 643.649,376.762 645.081,374.414 646.527,372.066 646.567,372.001 648.076,369.718 649.642,367.37 651.221,365.022 651.263,364.961 652.918,362.674 654.633,360.326 655.959,358.525 656.39,357.978 658.256,355.63 660.137,353.282 660.655,352.641 662.135,350.934 664.188,348.586 665.351,347.266 666.327,346.238 668.574,343.89 670.047,342.363 670.903,341.542 673.371,339.194 674.743,337.899 675.954,336.846 678.676,334.498 679.439,333.845 681.6,332.15 684.135,330.176 684.662,329.802 687.997,327.454 688.831,326.871 691.621,325.106 693.527,323.909 695.566,322.758 698.223,321.27 699.947,320.41 702.919,318.939 704.931,318.062 707.615,316.901 710.774,315.714 712.311,315.141 717.007,313.647 718.069,313.366 721.703,312.41 726.399,311.415 728.841,311.018 731.095,310.654 735.791,310.119 740.487,309.8 745.183,309.687 749.879,309.775 754.575,310.056 759.271,310.523 762.876,311.018 763.967,311.169 768.663,311.992 773.359,312.98 774.941,313.366 778.055,314.132 782.751,315.44 783.634,315.714 787.447,316.904 790.835,318.062 792.143,318.513 796.839,320.265 797.201,320.41 801.535,322.158 802.931,322.758 806.231,324.186 808.241,325.106 810.927,326.345 813.215,327.454 815.623,328.63 817.916,329.802 820.319,331.04 822.389,332.15 825.015,333.569 826.673,334.498 829.711,336.214 830.793,336.846 834.407,338.973 834.772,339.194 838.615,341.542 839.103,341.842 842.339,343.89 843.799,344.82 845.969,346.238 848.495,347.901 849.512,348.586 852.974,350.934 853.191,351.082 856.346,353.282 857.887,354.365 859.656,355.63 862.583,357.74 862.908,357.978 866.089,360.326 867.279,361.211 869.218,362.674 871.975,364.771 872.301,365.022 875.327,367.37 876.671,368.421 878.312,369.718 881.257,372.066 881.366,372.154 884.155,374.414 886.062,375.974 887.02,376.762 889.848,379.11 890.758,379.873 892.641,381.458 895.404,383.806 895.454,383.849 898.133,386.154 900.15,387.906 900.836,388.502 903.509,390.85 904.846,392.036 906.157,393.198 908.778,395.546 909.542,396.237 911.376,397.894 913.95,400.242 914.238,400.508 916.503,402.59 918.934,404.848 919.032,404.938 921.544,407.286 923.63,409.256 924.033,409.634 926.506,411.982 928.326,413.728 928.958,414.33 931.395,416.678 933.022,418.262 933.812,419.026 936.216,421.374 937.718,422.857 938.601,423.722 940.974,426.07 942.414,427.511 943.329,428.418 945.673,430.766 947.11,432.222 948,433.114 950.317,435.462 951.806,436.988 952.618,437.81 954.91,440.158 956.502,441.808 957.185,442.506 959.455,444.854 961.198,446.679 961.705,447.202 963.954,449.55 965.894,451.6 966.181,451.898 968.411,454.246 970.59,456.569 970.614,456.594 972.827,458.942 975.012,461.29 975.286,461.588 977.205,463.638 979.374,465.986 979.982,466.653 981.547,468.334 983.702,470.682 984.678,471.76 985.854,473.03 987.997,475.378 989.374,476.908 990.127,477.726 992.26,480.074 994.07,482.096 994.369,482.422 996.493,484.77 998.585,487.118 998.766,487.324 1000.7,489.466 1002.78,491.814 1003.46,492.592 1004.87,494.162 1006.95,496.51 1008.16,497.895 1009.02,498.858 1011.1,501.206 1012.85,503.229 1013.15,503.554 1015.22,505.902 1017.25,508.25 1017.55,508.599 1019.31,510.598 1021.35,512.946 1022.25,514.004 1023.38,515.294 1025.42,517.642 1026.94,519.434 1027.43,519.99 1029.47,522.338 1031.47,524.686 1031.64,524.892 1033.5,527.034 1035.5,529.382 1036.33,530.384 1037.51,531.73 1039.51,534.078 1041.03,535.897 1041.49,536.426 1043.51,538.774 1045.47,541.122 1045.73,541.434 1047.48,543.47 1049.45,545.818 1050.42,547 1051.43,548.166 1053.42,550.514 1055.12,552.579 1055.37,552.862 1057.36,555.21 1059.31,557.558 1059.81,558.186 1061.29,559.906 1063.25,562.254 1064.51,563.811 1065.2,564.602 1067.17,566.95 1069.09,569.298 1069.21,569.446 1071.08,571.646 1073.01,573.994 1073.9,575.111 1074.97,576.342 1076.92,578.69 1078.6,580.778 1078.83,581.038 1080.81,583.386 1082.72,585.734 1083.29,586.47 1084.68,588.082 1086.62,590.43 1087.99,592.169 1088.53,592.778 1090.5,595.126 1092.38,597.474 1092.69,597.877 1094.37,599.822 "/>
<path clip-path="url(#clip930)" d="M253.513 315.744 L844.066 315.744 L844.066 212.064 L253.513 212.064  Z" fill="#ffffff" fill-rule="evenodd" fill-opacity="1"/>
<polyline clip-path="url(#clip930)" style="stroke:#000000; stroke-linecap:round; stroke-linejoin:round; stroke-width:4; stroke-opacity:1; fill:none" points="253.513,315.744 844.066,315.744 844.066,212.064 253.513,212.064 253.513,315.744 "/>
<polyline clip-path="url(#clip930)" style="stroke:#1e90ff; stroke-linecap:round; stroke-linejoin:round; stroke-width:4; stroke-opacity:1; fill:none" points="274.332,263.904 399.245,263.904 "/>
<path clip-path="url(#clip930)" d="M443.955 259.376 Q443.955 260.687 443.135 261.437 Q442.315 262.163 441.378 262.163 Q440.488 262.163 440.02 261.648 Q439.551 261.132 439.551 260.476 Q439.551 259.586 440.207 258.813 Q440.863 258.041 441.847 257.877 Q440.886 257.268 439.458 257.268 Q438.521 257.268 437.701 257.759 Q436.905 258.251 436.413 258.884 Q435.944 259.516 435.523 260.43 Q435.124 261.32 434.96 261.858 Q434.82 262.374 434.703 262.936 L433.063 269.494 Q432.267 272.609 432.267 273.71 Q432.267 275.069 432.923 275.982 Q433.579 276.872 434.89 276.872 Q435.405 276.872 435.991 276.732 Q436.577 276.568 437.326 276.146 Q438.099 275.701 438.778 275.045 Q439.481 274.366 440.16 273.218 Q440.839 272.071 441.284 270.595 Q441.425 270.08 441.893 270.08 Q442.479 270.08 442.479 270.548 Q442.479 270.946 442.151 271.79 Q441.847 272.609 441.167 273.687 Q440.512 274.741 439.645 275.701 Q438.778 276.638 437.49 277.294 Q436.202 277.95 434.796 277.95 Q432.782 277.95 431.447 276.872 Q430.112 275.795 429.62 274.296 Q429.503 274.507 429.339 274.788 Q429.175 275.069 428.683 275.701 Q428.215 276.31 427.676 276.779 Q427.137 277.224 426.294 277.575 Q425.474 277.95 424.584 277.95 Q423.46 277.95 422.453 277.622 Q421.469 277.294 420.766 276.544 Q420.064 275.795 420.064 274.764 Q420.064 273.616 420.837 272.82 Q421.633 272 422.711 272 Q423.39 272 423.928 272.399 Q424.491 272.797 424.491 273.663 Q424.491 274.624 423.835 275.35 Q423.179 276.076 422.242 276.263 Q423.202 276.872 424.631 276.872 Q426.177 276.872 427.395 275.514 Q428.613 274.155 429.199 271.883 Q430.651 266.426 431.213 263.99 Q431.775 261.53 431.775 260.476 Q431.775 259.493 431.517 258.813 Q431.26 258.134 430.815 257.83 Q430.393 257.502 429.995 257.385 Q429.62 257.268 429.199 257.268 Q428.496 257.268 427.699 257.549 Q426.927 257.83 425.99 258.486 Q425.076 259.118 424.21 260.43 Q423.343 261.741 422.757 263.545 Q422.64 264.084 422.125 264.084 Q421.563 264.06 421.563 263.592 Q421.563 263.193 421.867 262.374 Q422.195 261.53 422.851 260.476 Q423.53 259.422 424.397 258.486 Q425.287 257.525 426.575 256.869 Q427.887 256.214 429.292 256.214 Q429.925 256.214 430.534 256.354 Q431.166 256.471 431.916 256.823 Q432.688 257.174 433.368 257.947 Q434.047 258.72 434.469 259.844 Q434.75 259.305 435.124 258.79 Q435.523 258.275 436.132 257.642 Q436.764 256.987 437.631 256.612 Q438.521 256.214 439.504 256.214 Q440.465 256.214 441.402 256.471 Q442.339 256.705 443.135 257.478 Q443.955 258.228 443.955 259.376 Z" fill="#000000" fill-rule="nonzero" fill-opacity="1" /><path clip-path="url(#clip930)" d="M448.834 257.63 L448.834 256.597 L459.147 240.84 Q459.409 240.431 459.819 240.447 Q460.196 240.447 460.278 240.595 Q460.36 240.742 460.36 241.316 L460.36 256.597 L463.721 256.597 L463.721 257.63 L460.36 257.63 L460.36 260.548 Q460.36 261.515 460.753 261.827 Q461.163 262.138 462.901 262.138 L463.606 262.138 L463.606 263.171 Q462.229 263.073 459.048 263.073 Q455.884 263.073 454.507 263.171 L454.507 262.138 L455.212 262.138 Q456.95 262.138 457.36 261.843 Q457.769 261.532 457.769 260.548 L457.769 257.63 L448.834 257.63 M449.785 256.597 L457.966 256.597 L457.966 244.07 L449.785 256.597 Z" fill="#000000" fill-rule="nonzero" fill-opacity="1" /><path clip-path="url(#clip930)" d="M513.665 264.739 Q513.946 265.02 513.946 265.419 Q513.946 265.817 513.665 266.098 Q513.384 266.379 512.986 266.379 L482.958 266.379 Q482.56 266.379 482.279 266.098 Q481.998 265.817 481.998 265.419 Q481.998 265.02 482.279 264.739 Q482.56 264.458 482.958 264.458 L512.986 264.458 Q513.384 264.458 513.665 264.739 Z" fill="#000000" fill-rule="nonzero" fill-opacity="1" /><path clip-path="url(#clip930)" d="M532.258 270.946 Q532.258 269.518 533.078 268.838 Q533.898 268.159 534.952 268.159 Q536.052 268.159 536.825 268.885 Q537.622 269.588 537.622 270.829 Q537.622 272.164 536.685 272.914 Q535.771 273.663 534.46 273.476 Q535.607 275.397 537.715 276.263 Q539.847 277.13 541.814 277.13 Q543.876 277.13 545.539 275.35 Q547.225 273.57 547.225 269.213 Q547.225 265.512 545.773 263.381 Q544.344 261.249 541.51 261.249 L539.402 261.249 Q538.676 261.249 538.465 261.179 Q538.254 261.109 538.254 260.711 Q538.254 260.242 538.98 260.149 Q539.706 260.149 540.854 260.008 Q543.641 259.914 545.117 257.502 Q546.452 255.253 546.452 252.044 Q546.452 249.117 545.047 247.899 Q543.665 246.657 541.861 246.657 Q540.175 246.657 538.324 247.36 Q536.474 248.063 535.467 249.632 Q538.442 249.632 538.442 252.044 Q538.442 253.098 537.762 253.801 Q537.106 254.48 536.006 254.48 Q534.952 254.48 534.249 253.825 Q533.546 253.145 533.546 251.998 Q533.546 249.257 535.982 247.36 Q538.442 245.463 542.049 245.463 Q545.609 245.463 548.232 247.336 Q550.879 249.21 550.879 252.091 Q550.879 254.925 549.005 257.244 Q547.131 259.563 544.157 260.523 Q547.811 261.249 549.989 263.732 Q552.167 266.192 552.167 269.213 Q552.167 272.961 549.216 275.724 Q546.265 278.465 541.955 278.465 Q537.973 278.465 535.116 276.31 Q532.258 274.155 532.258 270.946 Z" fill="#000000" fill-rule="nonzero" fill-opacity="1" /><path clip-path="url(#clip930)" d="M579.902 259.376 Q579.902 260.687 579.082 261.437 Q578.262 262.163 577.326 262.163 Q576.436 262.163 575.967 261.648 Q575.499 261.132 575.499 260.476 Q575.499 259.586 576.154 258.813 Q576.81 258.041 577.794 257.877 Q576.834 257.268 575.405 257.268 Q574.468 257.268 573.648 257.759 Q572.852 258.251 572.36 258.884 Q571.892 259.516 571.47 260.43 Q571.072 261.32 570.908 261.858 Q570.767 262.374 570.65 262.936 L569.011 269.494 Q568.214 272.609 568.214 273.71 Q568.214 275.069 568.87 275.982 Q569.526 276.872 570.838 276.872 Q571.353 276.872 571.938 276.732 Q572.524 276.568 573.274 276.146 Q574.046 275.701 574.726 275.045 Q575.428 274.366 576.108 273.218 Q576.787 272.071 577.232 270.595 Q577.372 270.08 577.841 270.08 Q578.426 270.08 578.426 270.548 Q578.426 270.946 578.099 271.79 Q577.794 272.609 577.115 273.687 Q576.459 274.741 575.592 275.701 Q574.726 276.638 573.437 277.294 Q572.149 277.95 570.744 277.95 Q568.73 277.95 567.394 276.872 Q566.059 275.795 565.568 274.296 Q565.45 274.507 565.286 274.788 Q565.123 275.069 564.631 275.701 Q564.162 276.31 563.623 276.779 Q563.085 277.224 562.242 277.575 Q561.422 277.95 560.532 277.95 Q559.407 277.95 558.4 277.622 Q557.417 277.294 556.714 276.544 Q556.011 275.795 556.011 274.764 Q556.011 273.616 556.784 272.82 Q557.58 272 558.658 272 Q559.337 272 559.876 272.399 Q560.438 272.797 560.438 273.663 Q560.438 274.624 559.782 275.35 Q559.126 276.076 558.189 276.263 Q559.15 276.872 560.579 276.872 Q562.124 276.872 563.342 275.514 Q564.56 274.155 565.146 271.883 Q566.598 266.426 567.16 263.99 Q567.722 261.53 567.722 260.476 Q567.722 259.493 567.465 258.813 Q567.207 258.134 566.762 257.83 Q566.34 257.502 565.942 257.385 Q565.568 257.268 565.146 257.268 Q564.443 257.268 563.647 257.549 Q562.874 257.83 561.937 258.486 Q561.024 259.118 560.157 260.43 Q559.29 261.741 558.705 263.545 Q558.588 264.084 558.072 264.084 Q557.51 264.06 557.51 263.592 Q557.51 263.193 557.815 262.374 Q558.143 261.53 558.798 260.476 Q559.478 259.422 560.344 258.486 Q561.234 257.525 562.523 256.869 Q563.834 256.214 565.24 256.214 Q565.872 256.214 566.481 256.354 Q567.113 256.471 567.863 256.823 Q568.636 257.174 569.315 257.947 Q569.994 258.72 570.416 259.844 Q570.697 259.305 571.072 258.79 Q571.47 258.275 572.079 257.642 Q572.711 256.987 573.578 256.612 Q574.468 256.214 575.452 256.214 Q576.412 256.214 577.349 256.471 Q578.286 256.705 579.082 257.478 Q579.902 258.228 579.902 259.376 Z" fill="#000000" fill-rule="nonzero" fill-opacity="1" /><path clip-path="url(#clip930)" d="M584.781 263.059 Q584.781 262.452 584.83 262.272 Q584.896 262.091 585.158 261.813 L591.602 254.631 Q595.127 250.664 595.127 247.204 Q595.127 244.958 593.946 243.351 Q592.782 241.744 590.634 241.744 Q589.159 241.744 587.913 242.646 Q586.667 243.548 586.093 245.155 Q586.191 245.122 586.536 245.122 Q587.372 245.122 587.831 245.647 Q588.306 246.171 588.306 246.876 Q588.306 247.778 587.716 248.221 Q587.142 248.647 586.568 248.647 Q586.339 248.647 586.027 248.598 Q585.732 248.549 585.257 248.09 Q584.781 247.614 584.781 246.778 Q584.781 244.433 586.552 242.564 Q588.339 240.695 591.061 240.695 Q594.143 240.695 596.16 242.531 Q598.193 244.351 598.193 247.204 Q598.193 248.204 597.881 249.122 Q597.586 250.024 597.176 250.729 Q596.783 251.434 595.701 252.566 Q594.619 253.697 593.75 254.5 Q592.881 255.304 590.93 257.009 L587.372 260.468 L593.422 260.468 Q596.373 260.468 596.602 260.206 Q596.93 259.73 597.34 257.222 L598.193 257.222 L597.242 263.059 L584.781 263.059 Z" fill="#000000" fill-rule="nonzero" fill-opacity="1" /><path clip-path="url(#clip930)" d="M617.583 266.004 Q616.482 266.004 616.482 265.419 Q616.482 264.833 617.63 264.833 Q617.771 264.833 618.005 264.856 Q618.262 264.88 618.309 264.88 L631.824 264.88 L631.824 251.318 Q631.824 251.271 631.801 251.061 Q631.777 250.826 631.777 250.686 Q631.777 249.538 632.339 249.538 Q632.925 249.538 632.925 250.686 L632.925 264.88 L646.463 264.88 Q646.51 264.88 646.744 264.856 Q646.978 264.833 647.119 264.833 Q648.22 264.833 648.22 265.419 Q648.243 266.004 647.072 266.004 Q646.931 266.004 646.721 265.981 Q646.51 265.957 646.463 265.957 L632.925 265.957 L632.925 280.198 Q632.925 281.299 632.339 281.299 Q631.777 281.299 631.777 280.151 Q631.777 280.011 631.801 279.777 Q631.824 279.566 631.824 279.519 L631.824 265.957 L618.309 265.957 Q618.262 265.957 617.981 265.981 Q617.724 266.004 617.583 266.004 Z" fill="#000000" fill-rule="nonzero" fill-opacity="1" /><path clip-path="url(#clip930)" d="M666.742 277.411 Q666.742 276.544 666.813 276.287 Q666.906 276.029 667.281 275.631 L676.486 265.372 Q681.522 259.704 681.522 254.761 Q681.522 251.553 679.836 249.257 Q678.173 246.962 675.104 246.962 Q672.996 246.962 671.216 248.25 Q669.436 249.538 668.616 251.834 Q668.757 251.787 669.249 251.787 Q670.443 251.787 671.099 252.536 Q671.778 253.286 671.778 254.293 Q671.778 255.581 670.935 256.214 Q670.115 256.823 669.296 256.823 Q668.968 256.823 668.523 256.752 Q668.101 256.682 667.422 256.026 Q666.742 255.347 666.742 254.152 Q666.742 250.803 669.272 248.133 Q671.825 245.463 675.713 245.463 Q680.117 245.463 682.998 248.086 Q685.902 250.686 685.902 254.761 Q685.902 256.19 685.457 257.502 Q685.035 258.79 684.45 259.797 Q683.888 260.804 682.342 262.421 Q680.796 264.037 679.555 265.184 Q678.313 266.332 675.526 268.768 L670.443 273.71 L679.086 273.71 Q683.302 273.71 683.63 273.335 Q684.098 272.656 684.684 269.073 L685.902 269.073 L684.544 277.411 L666.742 277.411 Z" fill="#000000" fill-rule="nonzero" fill-opacity="1" /><path clip-path="url(#clip930)" d="M712.63 258.041 Q712.63 258.368 712.419 259.141 L707.828 277.458 Q706.821 281.533 703.542 284.391 Q700.286 287.248 696.585 287.248 Q694.36 287.248 692.932 286.054 Q691.503 284.883 691.503 283.079 Q691.503 281.486 692.346 280.713 Q693.189 279.964 694.196 279.964 Q694.524 279.964 694.876 280.058 Q695.227 280.151 695.602 280.55 Q695.976 280.948 695.976 281.627 Q695.976 282.728 695.016 283.594 Q694.548 283.993 694.103 284.086 Q693.681 284.18 692.955 284.18 Q693.236 284.836 693.751 285.281 Q694.267 285.726 694.852 285.89 Q695.438 286.077 695.812 286.124 Q696.211 286.194 696.585 286.194 Q699.583 286.194 701.879 283.173 Q702.558 282.259 703.05 281.346 Q703.565 280.456 703.94 279.355 Q704.315 278.278 704.479 277.692 Q704.666 277.106 704.994 275.771 Q702.816 277.95 700.146 277.95 Q699.021 277.95 698.014 277.645 Q697.03 277.341 696.164 276.708 Q695.297 276.052 694.782 274.905 Q694.29 273.757 694.29 272.235 Q694.29 270.618 694.922 268.417 Q695.555 266.215 697.077 262.163 Q697.897 259.891 697.897 258.79 Q697.897 258.251 697.78 257.923 Q697.663 257.572 697.429 257.455 Q697.194 257.314 697.054 257.291 Q696.937 257.268 696.703 257.268 Q695.321 257.268 694.032 258.673 Q692.744 260.078 691.854 263.217 Q691.667 263.802 691.55 263.943 Q691.432 264.084 691.081 264.084 Q690.496 264.06 690.496 263.592 Q690.496 263.404 690.706 262.678 Q690.917 261.929 691.409 260.828 Q691.924 259.704 692.627 258.696 Q693.33 257.666 694.431 256.94 Q695.555 256.214 696.843 256.214 Q698.6 256.214 699.677 257.361 Q700.778 258.486 700.778 260.149 Q700.778 260.828 700.591 261.437 Q700.427 262.022 699.818 263.592 Q697.358 269.916 697.358 273.007 Q697.358 273.757 697.475 274.389 Q697.616 274.998 697.921 275.607 Q698.225 276.193 698.834 276.544 Q699.466 276.872 700.333 276.872 Q701.434 276.872 702.464 276.357 Q703.518 275.818 704.174 275.092 Q704.854 274.366 705.252 273.757 Q705.673 273.125 705.767 272.797 L707.922 264.177 L708.882 260.336 Q709.327 258.251 709.538 257.736 Q709.819 257.244 710.311 256.987 Q710.803 256.729 711.224 256.729 Q711.81 256.729 712.208 257.08 Q712.63 257.432 712.63 258.041 Z" fill="#000000" fill-rule="nonzero" fill-opacity="1" /><path clip-path="url(#clip930)" d="M717.533 263.059 Q717.533 262.452 717.582 262.272 Q717.648 262.091 717.91 261.813 L724.354 254.631 Q727.879 250.664 727.879 247.204 Q727.879 244.958 726.698 243.351 Q725.534 241.744 723.386 241.744 Q721.911 241.744 720.665 242.646 Q719.419 243.548 718.845 245.155 Q718.943 245.122 719.287 245.122 Q720.124 245.122 720.583 245.647 Q721.058 246.171 721.058 246.876 Q721.058 247.778 720.468 248.221 Q719.894 248.647 719.32 248.647 Q719.091 248.647 718.779 248.598 Q718.484 248.549 718.009 248.09 Q717.533 247.614 717.533 246.778 Q717.533 244.433 719.304 242.564 Q721.091 240.695 723.813 240.695 Q726.895 240.695 728.912 242.531 Q730.945 244.351 730.945 247.204 Q730.945 248.204 730.633 249.122 Q730.338 250.024 729.928 250.729 Q729.535 251.434 728.453 252.566 Q727.371 253.697 726.502 254.5 Q725.633 255.304 723.681 257.009 L720.124 260.468 L726.174 260.468 Q729.125 260.468 729.354 260.206 Q729.682 259.73 730.092 257.222 L730.945 257.222 L729.994 263.059 L717.533 263.059 Z" fill="#000000" fill-rule="nonzero" fill-opacity="1" /><path clip-path="url(#clip930)" d="M749.234 270.127 Q749.281 269.541 750.195 269.541 L779.59 269.541 Q780.972 269.541 780.995 270.08 Q780.995 270.665 779.683 270.642 L750.522 270.642 Q749.234 270.665 749.234 270.127 M749.234 260.758 Q749.234 260.172 750.241 260.195 L779.543 260.195 Q780.972 260.195 780.995 260.758 Q780.995 261.296 779.777 261.296 L750.195 261.296 Q749.234 261.296 749.234 260.758 Z" fill="#000000" fill-rule="nonzero" fill-opacity="1" /><path clip-path="url(#clip930)" d="M799.494 262.069 Q799.494 255.019 801.274 251.178 Q803.757 245.463 809.613 245.463 Q810.854 245.463 812.142 245.814 Q813.454 246.142 815.094 247.43 Q816.757 248.718 817.764 250.826 Q819.685 254.902 819.685 262.069 Q819.685 269.073 817.904 272.89 Q815.305 278.465 809.566 278.465 Q807.411 278.465 805.209 277.364 Q803.031 276.263 801.649 273.616 Q799.494 269.658 799.494 262.069 M803.476 261.484 Q803.476 268.721 803.991 271.602 Q804.577 274.717 806.17 276.076 Q807.786 277.411 809.566 277.411 Q811.487 277.411 813.079 275.982 Q814.696 274.53 815.187 271.415 Q815.726 268.346 815.703 261.484 Q815.703 254.808 815.234 252.138 Q814.602 249.023 812.915 247.782 Q811.252 246.517 809.566 246.517 Q808.934 246.517 808.254 246.704 Q807.599 246.891 806.638 247.43 Q805.678 247.969 804.928 249.304 Q804.202 250.639 803.851 252.653 Q803.476 255.253 803.476 261.484 Z" fill="#000000" fill-rule="nonzero" fill-opacity="1" /></svg>
