<?xml version="1.0" encoding="utf-8"?>
<svg xmlns="http://www.w3.org/2000/svg" xmlns:xlink="http://www.w3.org/1999/xlink" width="672" height="480" viewBox="0 0 2688 1920">
<defs>
  <clipPath id="clip320">
    <rect x="0" y="0" width="2688" height="1920"/>
  </clipPath>
</defs>
<path clip-path="url(#clip320)" d="
M0 1920 L2688 1920 L2688 0 L0 0  Z
  " fill="#ffffff" fill-rule="evenodd" fill-opacity="1"/>
<defs>
  <clipPath id="clip321">
    <rect x="537" y="0" width="1883" height="1883"/>
  </clipPath>
</defs>
<path clip-path="url(#clip320)" d="
M187.071 1800.78 L2640.76 1800.78 L2640.76 47.2441 L187.071 47.2441  Z
  " fill="#ffffff" fill-rule="evenodd" fill-opacity="1"/>
<defs>
  <clipPath id="clip322">
    <rect x="187" y="47" width="2455" height="1755"/>
  </clipPath>
</defs>
<polyline clip-path="url(#clip322)" style="stroke:#000000; stroke-linecap:round; stroke-linejoin:round; stroke-width:2; stroke-opacity:0.1; fill:none" points="
  487.994,1800.78 487.994,47.2441 
  "/>
<polyline clip-path="url(#clip322)" style="stroke:#000000; stroke-linecap:round; stroke-linejoin:round; stroke-width:2; stroke-opacity:0.1; fill:none" points="
  950.954,1800.78 950.954,47.2441 
  "/>
<polyline clip-path="url(#clip322)" style="stroke:#000000; stroke-linecap:round; stroke-linejoin:round; stroke-width:2; stroke-opacity:0.1; fill:none" points="
  1413.91,1800.78 1413.91,47.2441 
  "/>
<polyline clip-path="url(#clip322)" style="stroke:#000000; stroke-linecap:round; stroke-linejoin:round; stroke-width:2; stroke-opacity:0.1; fill:none" points="
  1876.87,1800.78 1876.87,47.2441 
  "/>
<polyline clip-path="url(#clip322)" style="stroke:#000000; stroke-linecap:round; stroke-linejoin:round; stroke-width:2; stroke-opacity:0.1; fill:none" points="
  2339.83,1800.78 2339.83,47.2441 
  "/>
<polyline clip-path="url(#clip320)" style="stroke:#000000; stroke-linecap:round; stroke-linejoin:round; stroke-width:4; stroke-opacity:1; fill:none" points="
  187.071,1800.78 2640.76,1800.78 
  "/>
<polyline clip-path="url(#clip320)" style="stroke:#000000; stroke-linecap:round; stroke-linejoin:round; stroke-width:4; stroke-opacity:1; fill:none" points="
  487.994,1800.78 487.994,1781.88 
  "/>
<polyline clip-path="url(#clip320)" style="stroke:#000000; stroke-linecap:round; stroke-linejoin:round; stroke-width:4; stroke-opacity:1; fill:none" points="
  950.954,1800.78 950.954,1781.88 
  "/>
<polyline clip-path="url(#clip320)" style="stroke:#000000; stroke-linecap:round; stroke-linejoin:round; stroke-width:4; stroke-opacity:1; fill:none" points="
  1413.91,1800.78 1413.91,1781.88 
  "/>
<polyline clip-path="url(#clip320)" style="stroke:#000000; stroke-linecap:round; stroke-linejoin:round; stroke-width:4; stroke-opacity:1; fill:none" points="
  1876.87,1800.78 1876.87,1781.88 
  "/>
<polyline clip-path="url(#clip320)" style="stroke:#000000; stroke-linecap:round; stroke-linejoin:round; stroke-width:4; stroke-opacity:1; fill:none" points="
  2339.83,1800.78 2339.83,1781.88 
  "/>
<path clip-path="url(#clip320)" d="M456.895 1848.65 L486.571 1848.65 L486.571 1852.59 L456.895 1852.59 L456.895 1848.65 Z" fill="#000000" fill-rule="evenodd" fill-opacity="1" /><path clip-path="url(#clip320)" d="M509.51 1835 L497.705 1853.45 L509.51 1853.45 L509.51 1835 M508.284 1830.92 L514.163 1830.92 L514.163 1853.45 L519.094 1853.45 L519.094 1857.34 L514.163 1857.34 L514.163 1865.48 L509.51 1865.48 L509.51 1857.34 L493.909 1857.34 L493.909 1852.82 L508.284 1830.92 Z" fill="#000000" fill-rule="evenodd" fill-opacity="1" /><path clip-path="url(#clip320)" d="M920.896 1848.65 L950.572 1848.65 L950.572 1852.59 L920.896 1852.59 L920.896 1848.65 Z" fill="#000000" fill-rule="evenodd" fill-opacity="1" /><path clip-path="url(#clip320)" d="M964.692 1861.55 L981.012 1861.55 L981.012 1865.48 L959.067 1865.48 L959.067 1861.55 Q961.729 1858.79 966.313 1854.16 Q970.919 1849.51 972.1 1848.17 Q974.345 1845.65 975.225 1843.91 Q976.127 1842.15 976.127 1840.46 Q976.127 1837.71 974.183 1835.97 Q972.262 1834.23 969.16 1834.23 Q966.961 1834.23 964.507 1835 Q962.076 1835.76 959.299 1837.31 L959.299 1832.59 Q962.123 1831.46 964.576 1830.88 Q967.03 1830.3 969.067 1830.3 Q974.437 1830.3 977.632 1832.98 Q980.826 1835.67 980.826 1840.16 Q980.826 1842.29 980.016 1844.21 Q979.229 1846.11 977.123 1848.7 Q976.544 1849.37 973.442 1852.59 Q970.34 1855.78 964.692 1861.55 Z" fill="#000000" fill-rule="evenodd" fill-opacity="1" /><path clip-path="url(#clip320)" d="M1413.91 1834 Q1410.3 1834 1408.47 1837.57 Q1406.67 1841.11 1406.67 1848.24 Q1406.67 1855.34 1408.47 1858.91 Q1410.3 1862.45 1413.91 1862.45 Q1417.55 1862.45 1419.35 1858.91 Q1421.18 1855.34 1421.18 1848.24 Q1421.18 1841.11 1419.35 1837.57 Q1417.55 1834 1413.91 1834 M1413.91 1830.3 Q1419.72 1830.3 1422.78 1834.9 Q1425.86 1839.49 1425.86 1848.24 Q1425.86 1856.96 1422.78 1861.57 Q1419.72 1866.15 1413.91 1866.15 Q1408.1 1866.15 1405.02 1861.57 Q1401.97 1856.96 1401.97 1848.24 Q1401.97 1839.49 1405.02 1834.9 Q1408.1 1830.3 1413.91 1830.3 Z" fill="#000000" fill-rule="evenodd" fill-opacity="1" /><path clip-path="url(#clip320)" d="M1871.53 1861.55 L1887.84 1861.55 L1887.84 1865.48 L1865.9 1865.48 L1865.9 1861.55 Q1868.56 1858.79 1873.15 1854.16 Q1877.75 1849.51 1878.93 1848.17 Q1881.18 1845.65 1882.06 1843.91 Q1882.96 1842.15 1882.96 1840.46 Q1882.96 1837.71 1881.02 1835.97 Q1879.09 1834.23 1875.99 1834.23 Q1873.79 1834.23 1871.34 1835 Q1868.91 1835.76 1866.13 1837.31 L1866.13 1832.59 Q1868.96 1831.46 1871.41 1830.88 Q1873.86 1830.3 1875.9 1830.3 Q1881.27 1830.3 1884.47 1832.98 Q1887.66 1835.67 1887.66 1840.16 Q1887.66 1842.29 1886.85 1844.21 Q1886.06 1846.11 1883.96 1848.7 Q1883.38 1849.37 1880.28 1852.59 Q1877.17 1855.78 1871.53 1861.55 Z" fill="#000000" fill-rule="evenodd" fill-opacity="1" /><path clip-path="url(#clip320)" d="M2342.84 1835 L2331.04 1853.45 L2342.84 1853.45 L2342.84 1835 M2341.61 1830.92 L2347.49 1830.92 L2347.49 1853.45 L2352.42 1853.45 L2352.42 1857.34 L2347.49 1857.34 L2347.49 1865.48 L2342.84 1865.48 L2342.84 1857.34 L2327.24 1857.34 L2327.24 1852.82 L2341.61 1830.92 Z" fill="#000000" fill-rule="evenodd" fill-opacity="1" /><polyline clip-path="url(#clip322)" style="stroke:#000000; stroke-linecap:round; stroke-linejoin:round; stroke-width:2; stroke-opacity:0.1; fill:none" points="
  187.071,1751.15 2640.76,1751.15 
  "/>
<polyline clip-path="url(#clip322)" style="stroke:#000000; stroke-linecap:round; stroke-linejoin:round; stroke-width:2; stroke-opacity:0.1; fill:none" points="
  187.071,1337.58 2640.76,1337.58 
  "/>
<polyline clip-path="url(#clip322)" style="stroke:#000000; stroke-linecap:round; stroke-linejoin:round; stroke-width:2; stroke-opacity:0.1; fill:none" points="
  187.071,924.012 2640.76,924.012 
  "/>
<polyline clip-path="url(#clip322)" style="stroke:#000000; stroke-linecap:round; stroke-linejoin:round; stroke-width:2; stroke-opacity:0.1; fill:none" points="
  187.071,510.442 2640.76,510.442 
  "/>
<polyline clip-path="url(#clip322)" style="stroke:#000000; stroke-linecap:round; stroke-linejoin:round; stroke-width:2; stroke-opacity:0.1; fill:none" points="
  187.071,96.8724 2640.76,96.8724 
  "/>
<polyline clip-path="url(#clip320)" style="stroke:#000000; stroke-linecap:round; stroke-linejoin:round; stroke-width:4; stroke-opacity:1; fill:none" points="
  187.071,1800.78 187.071,47.2441 
  "/>
<polyline clip-path="url(#clip320)" style="stroke:#000000; stroke-linecap:round; stroke-linejoin:round; stroke-width:4; stroke-opacity:1; fill:none" points="
  187.071,1751.15 205.968,1751.15 
  "/>
<polyline clip-path="url(#clip320)" style="stroke:#000000; stroke-linecap:round; stroke-linejoin:round; stroke-width:4; stroke-opacity:1; fill:none" points="
  187.071,1337.58 205.968,1337.58 
  "/>
<polyline clip-path="url(#clip320)" style="stroke:#000000; stroke-linecap:round; stroke-linejoin:round; stroke-width:4; stroke-opacity:1; fill:none" points="
  187.071,924.012 205.968,924.012 
  "/>
<polyline clip-path="url(#clip320)" style="stroke:#000000; stroke-linecap:round; stroke-linejoin:round; stroke-width:4; stroke-opacity:1; fill:none" points="
  187.071,510.442 205.968,510.442 
  "/>
<polyline clip-path="url(#clip320)" style="stroke:#000000; stroke-linecap:round; stroke-linejoin:round; stroke-width:4; stroke-opacity:1; fill:none" points="
  187.071,96.8724 205.968,96.8724 
  "/>
<path clip-path="url(#clip320)" d="M89.5751 1736.95 Q85.964 1736.95 84.1353 1740.51 Q82.3297 1744.06 82.3297 1751.19 Q82.3297 1758.29 84.1353 1761.86 Q85.964 1765.4 89.5751 1765.4 Q93.2093 1765.4 95.0148 1761.86 Q96.8435 1758.29 96.8435 1751.19 Q96.8435 1744.06 95.0148 1740.51 Q93.2093 1736.95 89.5751 1736.95 M89.5751 1733.25 Q95.3852 1733.25 98.4408 1737.85 Q101.519 1742.44 101.519 1751.19 Q101.519 1759.91 98.4408 1764.52 Q95.3852 1769.1 89.5751 1769.1 Q83.7649 1769.1 80.6862 1764.52 Q77.6307 1759.91 77.6307 1751.19 Q77.6307 1742.44 80.6862 1737.85 Q83.7649 1733.25 89.5751 1733.25 Z" fill="#000000" fill-rule="evenodd" fill-opacity="1" /><path clip-path="url(#clip320)" d="M109.737 1762.55 L114.621 1762.55 L114.621 1768.43 L109.737 1768.43 L109.737 1762.55 Z" fill="#000000" fill-rule="evenodd" fill-opacity="1" /><path clip-path="url(#clip320)" d="M134.806 1736.95 Q131.195 1736.95 129.367 1740.51 Q127.561 1744.06 127.561 1751.19 Q127.561 1758.29 129.367 1761.86 Q131.195 1765.4 134.806 1765.4 Q138.441 1765.4 140.246 1761.86 Q142.075 1758.29 142.075 1751.19 Q142.075 1744.06 140.246 1740.51 Q138.441 1736.95 134.806 1736.95 M134.806 1733.25 Q140.616 1733.25 143.672 1737.85 Q146.751 1742.44 146.751 1751.19 Q146.751 1759.91 143.672 1764.52 Q140.616 1769.1 134.806 1769.1 Q128.996 1769.1 125.917 1764.52 Q122.862 1759.91 122.862 1751.19 Q122.862 1742.44 125.917 1737.85 Q128.996 1733.25 134.806 1733.25 Z" fill="#000000" fill-rule="evenodd" fill-opacity="1" /><path clip-path="url(#clip320)" d="M84.5982 1350.93 L100.918 1350.93 L100.918 1354.86 L78.9733 1354.86 L78.9733 1350.93 Q81.6353 1348.17 86.2186 1343.54 Q90.8251 1338.89 92.0056 1337.55 Q94.251 1335.02 95.1306 1333.29 Q96.0334 1331.53 96.0334 1329.84 Q96.0334 1327.08 94.0889 1325.35 Q92.1676 1323.61 89.0658 1323.61 Q86.8667 1323.61 84.4131 1324.38 Q81.9825 1325.14 79.2047 1326.69 L79.2047 1321.97 Q82.0288 1320.83 84.4825 1320.26 Q86.9362 1319.68 88.9732 1319.68 Q94.3436 1319.68 97.538 1322.36 Q100.732 1325.05 100.732 1329.54 Q100.732 1331.67 99.9222 1333.59 Q99.1352 1335.49 97.0287 1338.08 Q96.45 1338.75 93.3482 1341.97 Q90.2464 1345.16 84.5982 1350.93 Z" fill="#000000" fill-rule="evenodd" fill-opacity="1" /><path clip-path="url(#clip320)" d="M110.732 1348.98 L115.617 1348.98 L115.617 1354.86 L110.732 1354.86 L110.732 1348.98 Z" fill="#000000" fill-rule="evenodd" fill-opacity="1" /><path clip-path="url(#clip320)" d="M125.848 1320.3 L144.204 1320.3 L144.204 1324.24 L130.13 1324.24 L130.13 1332.71 Q131.149 1332.36 132.167 1332.2 Q133.186 1332.01 134.204 1332.01 Q139.991 1332.01 143.371 1335.19 Q146.751 1338.36 146.751 1343.77 Q146.751 1349.35 143.278 1352.45 Q139.806 1355.53 133.487 1355.53 Q131.311 1355.53 129.042 1355.16 Q126.797 1354.79 124.39 1354.05 L124.39 1349.35 Q126.473 1350.49 128.695 1351.04 Q130.917 1351.6 133.394 1351.6 Q137.399 1351.6 139.737 1349.49 Q142.075 1347.38 142.075 1343.77 Q142.075 1340.16 139.737 1338.06 Q137.399 1335.95 133.394 1335.95 Q131.519 1335.95 129.644 1336.37 Q127.792 1336.78 125.848 1337.66 L125.848 1320.3 Z" fill="#000000" fill-rule="evenodd" fill-opacity="1" /><path clip-path="url(#clip320)" d="M79.6214 906.732 L97.9778 906.732 L97.9778 910.667 L83.9038 910.667 L83.9038 919.139 Q84.9223 918.792 85.9408 918.63 Q86.9593 918.445 87.9778 918.445 Q93.7649 918.445 97.1445 921.616 Q100.524 924.787 100.524 930.204 Q100.524 935.782 97.0519 938.884 Q93.5797 941.963 87.2603 941.963 Q85.0843 941.963 82.8158 941.593 Q80.5705 941.222 78.1631 940.482 L78.1631 935.782 Q80.2464 936.917 82.4686 937.472 Q84.6908 938.028 87.1677 938.028 Q91.1723 938.028 93.5102 935.921 Q95.8482 933.815 95.8482 930.204 Q95.8482 926.593 93.5102 924.486 Q91.1723 922.38 87.1677 922.38 Q85.2927 922.38 83.4177 922.796 Q81.5658 923.213 79.6214 924.093 L79.6214 906.732 Z" fill="#000000" fill-rule="evenodd" fill-opacity="1" /><path clip-path="url(#clip320)" d="M109.737 935.412 L114.621 935.412 L114.621 941.292 L109.737 941.292 L109.737 935.412 Z" fill="#000000" fill-rule="evenodd" fill-opacity="1" /><path clip-path="url(#clip320)" d="M134.806 909.81 Q131.195 909.81 129.367 913.375 Q127.561 916.917 127.561 924.046 Q127.561 931.153 129.367 934.718 Q131.195 938.259 134.806 938.259 Q138.441 938.259 140.246 934.718 Q142.075 931.153 142.075 924.046 Q142.075 916.917 140.246 913.375 Q138.441 909.81 134.806 909.81 M134.806 906.107 Q140.616 906.107 143.672 910.713 Q146.751 915.296 146.751 924.046 Q146.751 932.773 143.672 937.38 Q140.616 941.963 134.806 941.963 Q128.996 941.963 125.917 937.38 Q122.862 932.773 122.862 924.046 Q122.862 915.296 125.917 910.713 Q128.996 906.107 134.806 906.107 Z" fill="#000000" fill-rule="evenodd" fill-opacity="1" /><path clip-path="url(#clip320)" d="M79.3899 493.162 L101.612 493.162 L101.612 495.153 L89.0658 527.722 L84.1816 527.722 L95.9871 497.097 L79.3899 497.097 L79.3899 493.162 Z" fill="#000000" fill-rule="evenodd" fill-opacity="1" /><path clip-path="url(#clip320)" d="M110.732 521.842 L115.617 521.842 L115.617 527.722 L110.732 527.722 L110.732 521.842 Z" fill="#000000" fill-rule="evenodd" fill-opacity="1" /><path clip-path="url(#clip320)" d="M125.848 493.162 L144.204 493.162 L144.204 497.097 L130.13 497.097 L130.13 505.569 Q131.149 505.222 132.167 505.06 Q133.186 504.875 134.204 504.875 Q139.991 504.875 143.371 508.046 Q146.751 511.218 146.751 516.634 Q146.751 522.213 143.278 525.315 Q139.806 528.393 133.487 528.393 Q131.311 528.393 129.042 528.023 Q126.797 527.653 124.39 526.912 L124.39 522.213 Q126.473 523.347 128.695 523.903 Q130.917 524.458 133.394 524.458 Q137.399 524.458 139.737 522.352 Q142.075 520.245 142.075 516.634 Q142.075 513.023 139.737 510.917 Q137.399 508.81 133.394 508.81 Q131.519 508.81 129.644 509.227 Q127.792 509.643 125.848 510.523 L125.848 493.162 Z" fill="#000000" fill-rule="evenodd" fill-opacity="1" /><path clip-path="url(#clip320)" d="M50.2234 110.217 L57.8623 110.217 L57.8623 83.8517 L49.5521 85.5183 L49.5521 81.2591 L57.816 79.5924 L62.4919 79.5924 L62.4919 110.217 L70.1307 110.217 L70.1307 114.152 L50.2234 114.152 L50.2234 110.217 Z" fill="#000000" fill-rule="evenodd" fill-opacity="1" /><path clip-path="url(#clip320)" d="M89.5751 82.6711 Q85.964 82.6711 84.1353 86.2359 Q82.3297 89.7776 82.3297 96.9072 Q82.3297 104.014 84.1353 107.578 Q85.964 111.12 89.5751 111.12 Q93.2093 111.12 95.0148 107.578 Q96.8435 104.014 96.8435 96.9072 Q96.8435 89.7776 95.0148 86.2359 Q93.2093 82.6711 89.5751 82.6711 M89.5751 78.9675 Q95.3852 78.9675 98.4408 83.5739 Q101.519 88.1572 101.519 96.9072 Q101.519 105.634 98.4408 110.24 Q95.3852 114.824 89.5751 114.824 Q83.7649 114.824 80.6862 110.24 Q77.6307 105.634 77.6307 96.9072 Q77.6307 88.1572 80.6862 83.5739 Q83.7649 78.9675 89.5751 78.9675 Z" fill="#000000" fill-rule="evenodd" fill-opacity="1" /><path clip-path="url(#clip320)" d="M109.737 108.273 L114.621 108.273 L114.621 114.152 L109.737 114.152 L109.737 108.273 Z" fill="#000000" fill-rule="evenodd" fill-opacity="1" /><path clip-path="url(#clip320)" d="M134.806 82.6711 Q131.195 82.6711 129.367 86.2359 Q127.561 89.7776 127.561 96.9072 Q127.561 104.014 129.367 107.578 Q131.195 111.12 134.806 111.12 Q138.441 111.12 140.246 107.578 Q142.075 104.014 142.075 96.9072 Q142.075 89.7776 140.246 86.2359 Q138.441 82.6711 134.806 82.6711 M134.806 78.9675 Q140.616 78.9675 143.672 83.5739 Q146.751 88.1572 146.751 96.9072 Q146.751 105.634 143.672 110.24 Q140.616 114.824 134.806 114.824 Q128.996 114.824 125.917 110.24 Q122.862 105.634 122.862 96.9072 Q122.862 88.1572 125.917 83.5739 Q128.996 78.9675 134.806 78.9675 Z" fill="#000000" fill-rule="evenodd" fill-opacity="1" /><polyline clip-path="url(#clip322)" style="stroke:#009af9; stroke-linecap:round; stroke-linejoin:round; stroke-width:4; stroke-opacity:1; fill:none" points="
  256.515,96.8724 271.585,118.413 410.935,317.586 494.678,437.281 565.482,538.481 642.394,648.413 713.301,749.761 789.321,858.416 877.397,984.304 955.668,1096.18 
  1024.31,1194.28 1099.14,1301.24 1174.42,1408.84 1257.65,1527.8 1336.84,1640.98 1357.42,1670.41 1378.01,1699.83 1388.3,1714.54 1398.59,1729.25 1403.74,1736.61 
  1408.88,1743.96 1414.03,1751.15 1419.18,1751.07 1427.84,1750.55 1436.5,1749.58 1445.17,1748.14 1453.83,1746.23 1471.16,1741.03 1488.49,1733.98 1509.64,1722.86 
  1530.8,1708.97 1551.95,1692.32 1573.11,1672.91 1592.49,1652.7 1611.87,1630.17 1631.25,1605.32 1650.63,1578.15 1668.53,1551 1686.43,1521.87 1704.33,1490.77 
  1722.23,1457.68 1740.36,1422.15 1758.49,1384.59 1776.62,1345 1794.75,1303.38 1815.07,1254.32 1835.39,1202.71 1845.55,1175.95 1855.71,1148.56 1860.79,1134.62 
  1865.87,1120.52 1870.95,1106.27 1876.03,1091.85 1880.63,1089.44 1885.24,1089.44 1889.84,1089.44 1894.44,1089.44 1903.65,1089.44 1912.85,1089.44 1931.27,1089.44 
  1949.68,1089.44 2034.01,1089.44 2112.09,1089.44 2189.06,1089.44 2263.8,1089.44 2340.42,1089.44 2424.36,1089.44 2546.3,1089.44 2571.31,1089.44 
  "/>
</svg>
