<?xml version="1.0" encoding="utf-8"?>
<svg xmlns="http://www.w3.org/2000/svg" xmlns:xlink="http://www.w3.org/1999/xlink" width="672" height="480" viewBox="0 0 2688 1920">
<defs>
  <clipPath id="clip120">
    <rect x="0" y="0" width="2688" height="1920"/>
  </clipPath>
</defs>
<path clip-path="url(#clip120)" d="
M0 1920 L2688 1920 L2688 0 L0 0  Z
  " fill="#ffffff" fill-rule="evenodd" fill-opacity="1"/>
<defs>
  <clipPath id="clip121">
    <rect x="537" y="0" width="1883" height="1883"/>
  </clipPath>
</defs>
<defs>
  <clipPath id="clip122">
    <rect x="115" y="47" width="2527" height="1755"/>
  </clipPath>
</defs>
<path clip-path="url(#clip120)" d="
M150.358 1800.78 L2640.76 1800.78 L2640.76 47.2441 L150.358 47.2441  Z
  " fill="#ffffff" fill-rule="evenodd" fill-opacity="1"/>
<defs>
  <clipPath id="clip123">
    <rect x="150" y="47" width="2491" height="1755"/>
  </clipPath>
</defs>
<polyline clip-path="url(#clip123)" style="stroke:#000000; stroke-linecap:round; stroke-linejoin:round; stroke-width:2; stroke-opacity:0.1; fill:none" points="
  460.748,1800.78 460.748,47.2441 
  "/>
<polyline clip-path="url(#clip123)" style="stroke:#000000; stroke-linecap:round; stroke-linejoin:round; stroke-width:2; stroke-opacity:0.1; fill:none" points="
  928.152,1800.78 928.152,47.2441 
  "/>
<polyline clip-path="url(#clip123)" style="stroke:#000000; stroke-linecap:round; stroke-linejoin:round; stroke-width:2; stroke-opacity:0.1; fill:none" points="
  1395.56,1800.78 1395.56,47.2441 
  "/>
<polyline clip-path="url(#clip123)" style="stroke:#000000; stroke-linecap:round; stroke-linejoin:round; stroke-width:2; stroke-opacity:0.1; fill:none" points="
  1862.96,1800.78 1862.96,47.2441 
  "/>
<polyline clip-path="url(#clip123)" style="stroke:#000000; stroke-linecap:round; stroke-linejoin:round; stroke-width:2; stroke-opacity:0.1; fill:none" points="
  2330.37,1800.78 2330.37,47.2441 
  "/>
<polyline clip-path="url(#clip120)" style="stroke:#000000; stroke-linecap:round; stroke-linejoin:round; stroke-width:4; stroke-opacity:1; fill:none" points="
  150.358,1800.78 2640.76,1800.78 
  "/>
<polyline clip-path="url(#clip120)" style="stroke:#000000; stroke-linecap:round; stroke-linejoin:round; stroke-width:4; stroke-opacity:1; fill:none" points="
  460.748,1800.78 460.748,1781.88 
  "/>
<polyline clip-path="url(#clip120)" style="stroke:#000000; stroke-linecap:round; stroke-linejoin:round; stroke-width:4; stroke-opacity:1; fill:none" points="
  928.152,1800.78 928.152,1781.88 
  "/>
<polyline clip-path="url(#clip120)" style="stroke:#000000; stroke-linecap:round; stroke-linejoin:round; stroke-width:4; stroke-opacity:1; fill:none" points="
  1395.56,1800.78 1395.56,1781.88 
  "/>
<polyline clip-path="url(#clip120)" style="stroke:#000000; stroke-linecap:round; stroke-linejoin:round; stroke-width:4; stroke-opacity:1; fill:none" points="
  1862.96,1800.78 1862.96,1781.88 
  "/>
<polyline clip-path="url(#clip120)" style="stroke:#000000; stroke-linecap:round; stroke-linejoin:round; stroke-width:4; stroke-opacity:1; fill:none" points="
  2330.37,1800.78 2330.37,1781.88 
  "/>
<path clip-path="url(#clip120)" d="M407.276 1848.65 L436.951 1848.65 L436.951 1852.59 L407.276 1852.59 L407.276 1848.65 Z" fill="#000000" fill-rule="evenodd" fill-opacity="1" /><path clip-path="url(#clip120)" d="M447.09 1830.92 L465.447 1830.92 L465.447 1834.86 L451.373 1834.86 L451.373 1843.33 Q452.391 1842.98 453.41 1842.82 Q454.428 1842.64 455.447 1842.64 Q461.234 1842.64 464.613 1845.81 Q467.993 1848.98 467.993 1854.4 Q467.993 1859.97 464.521 1863.08 Q461.049 1866.15 454.729 1866.15 Q452.553 1866.15 450.285 1865.78 Q448.039 1865.41 445.632 1864.67 L445.632 1859.97 Q447.715 1861.11 449.937 1861.66 Q452.16 1862.22 454.637 1862.22 Q458.641 1862.22 460.979 1860.11 Q463.317 1858.01 463.317 1854.4 Q463.317 1850.78 460.979 1848.68 Q458.641 1846.57 454.637 1846.57 Q452.762 1846.57 450.887 1846.99 Q449.035 1847.4 447.09 1848.28 L447.09 1830.92 Z" fill="#000000" fill-rule="evenodd" fill-opacity="1" /><path clip-path="url(#clip120)" d="M477.206 1859.6 L482.09 1859.6 L482.09 1865.48 L477.206 1865.48 L477.206 1859.6 Z" fill="#000000" fill-rule="evenodd" fill-opacity="1" /><path clip-path="url(#clip120)" d="M502.275 1834 Q498.664 1834 496.835 1837.57 Q495.03 1841.11 495.03 1848.24 Q495.03 1855.34 496.835 1858.91 Q498.664 1862.45 502.275 1862.45 Q505.909 1862.45 507.715 1858.91 Q509.544 1855.34 509.544 1848.24 Q509.544 1841.11 507.715 1837.57 Q505.909 1834 502.275 1834 M502.275 1830.3 Q508.085 1830.3 511.141 1834.9 Q514.22 1839.49 514.22 1848.24 Q514.22 1856.96 511.141 1861.57 Q508.085 1866.15 502.275 1866.15 Q496.465 1866.15 493.386 1861.57 Q490.331 1856.96 490.331 1848.24 Q490.331 1839.49 493.386 1834.9 Q496.465 1830.3 502.275 1830.3 Z" fill="#000000" fill-rule="evenodd" fill-opacity="1" /><path clip-path="url(#clip120)" d="M875.178 1848.65 L904.854 1848.65 L904.854 1852.59 L875.178 1852.59 L875.178 1848.65 Z" fill="#000000" fill-rule="evenodd" fill-opacity="1" /><path clip-path="url(#clip120)" d="M918.974 1861.55 L935.293 1861.55 L935.293 1865.48 L913.349 1865.48 L913.349 1861.55 Q916.011 1858.79 920.594 1854.16 Q925.201 1849.51 926.381 1848.17 Q928.627 1845.65 929.506 1843.91 Q930.409 1842.15 930.409 1840.46 Q930.409 1837.71 928.465 1835.97 Q926.543 1834.23 923.442 1834.23 Q921.243 1834.23 918.789 1835 Q916.358 1835.76 913.581 1837.31 L913.581 1832.59 Q916.405 1831.46 918.858 1830.88 Q921.312 1830.3 923.349 1830.3 Q928.719 1830.3 931.914 1832.98 Q935.108 1835.67 935.108 1840.16 Q935.108 1842.29 934.298 1844.21 Q933.511 1846.11 931.405 1848.7 Q930.826 1849.37 927.724 1852.59 Q924.622 1855.78 918.974 1861.55 Z" fill="#000000" fill-rule="evenodd" fill-opacity="1" /><path clip-path="url(#clip120)" d="M945.108 1859.6 L949.992 1859.6 L949.992 1865.48 L945.108 1865.48 L945.108 1859.6 Z" fill="#000000" fill-rule="evenodd" fill-opacity="1" /><path clip-path="url(#clip120)" d="M960.224 1830.92 L978.58 1830.92 L978.58 1834.86 L964.506 1834.86 L964.506 1843.33 Q965.525 1842.98 966.543 1842.82 Q967.562 1842.64 968.58 1842.64 Q974.367 1842.64 977.747 1845.81 Q981.127 1848.98 981.127 1854.4 Q981.127 1859.97 977.654 1863.08 Q974.182 1866.15 967.863 1866.15 Q965.687 1866.15 963.418 1865.78 Q961.173 1865.41 958.766 1864.67 L958.766 1859.97 Q960.849 1861.11 963.071 1861.66 Q965.293 1862.22 967.77 1862.22 Q971.775 1862.22 974.113 1860.11 Q976.451 1858.01 976.451 1854.4 Q976.451 1850.78 974.113 1848.68 Q971.775 1846.57 967.77 1846.57 Q965.895 1846.57 964.02 1846.99 Q962.168 1847.4 960.224 1848.28 L960.224 1830.92 Z" fill="#000000" fill-rule="evenodd" fill-opacity="1" /><path clip-path="url(#clip120)" d="M1372.94 1834 Q1369.33 1834 1367.5 1837.57 Q1365.7 1841.11 1365.7 1848.24 Q1365.7 1855.34 1367.5 1858.91 Q1369.33 1862.45 1372.94 1862.45 Q1376.58 1862.45 1378.38 1858.91 Q1380.21 1855.34 1380.21 1848.24 Q1380.21 1841.11 1378.38 1837.57 Q1376.58 1834 1372.94 1834 M1372.94 1830.3 Q1378.75 1830.3 1381.81 1834.9 Q1384.89 1839.49 1384.89 1848.24 Q1384.89 1856.96 1381.81 1861.57 Q1378.75 1866.15 1372.94 1866.15 Q1367.13 1866.15 1364.05 1861.57 Q1361 1856.96 1361 1848.24 Q1361 1839.49 1364.05 1834.9 Q1367.13 1830.3 1372.94 1830.3 Z" fill="#000000" fill-rule="evenodd" fill-opacity="1" /><path clip-path="url(#clip120)" d="M1393.1 1859.6 L1397.99 1859.6 L1397.99 1865.48 L1393.1 1865.48 L1393.1 1859.6 Z" fill="#000000" fill-rule="evenodd" fill-opacity="1" /><path clip-path="url(#clip120)" d="M1418.17 1834 Q1414.56 1834 1412.73 1837.57 Q1410.93 1841.11 1410.93 1848.24 Q1410.93 1855.34 1412.73 1858.91 Q1414.56 1862.45 1418.17 1862.45 Q1421.81 1862.45 1423.61 1858.91 Q1425.44 1855.34 1425.44 1848.24 Q1425.44 1841.11 1423.61 1837.57 Q1421.81 1834 1418.17 1834 M1418.17 1830.3 Q1423.98 1830.3 1427.04 1834.9 Q1430.12 1839.49 1430.12 1848.24 Q1430.12 1856.96 1427.04 1861.57 Q1423.98 1866.15 1418.17 1866.15 Q1412.36 1866.15 1409.28 1861.57 Q1406.23 1856.96 1406.23 1848.24 Q1406.23 1839.49 1409.28 1834.9 Q1412.36 1830.3 1418.17 1830.3 Z" fill="#000000" fill-rule="evenodd" fill-opacity="1" /><path clip-path="url(#clip120)" d="M1834.7 1861.55 L1851.02 1861.55 L1851.02 1865.48 L1829.07 1865.48 L1829.07 1861.55 Q1831.73 1858.79 1836.32 1854.16 Q1840.92 1849.51 1842.11 1848.17 Q1844.35 1845.65 1845.23 1843.91 Q1846.13 1842.15 1846.13 1840.46 Q1846.13 1837.71 1844.19 1835.97 Q1842.27 1834.23 1839.17 1834.23 Q1836.97 1834.23 1834.51 1835 Q1832.08 1835.76 1829.3 1837.31 L1829.3 1832.59 Q1832.13 1831.46 1834.58 1830.88 Q1837.04 1830.3 1839.07 1830.3 Q1844.44 1830.3 1847.64 1832.98 Q1850.83 1835.67 1850.83 1840.16 Q1850.83 1842.29 1850.02 1844.21 Q1849.23 1846.11 1847.13 1848.7 Q1846.55 1849.37 1843.45 1852.59 Q1840.35 1855.78 1834.7 1861.55 Z" fill="#000000" fill-rule="evenodd" fill-opacity="1" /><path clip-path="url(#clip120)" d="M1860.83 1859.6 L1865.72 1859.6 L1865.72 1865.48 L1860.83 1865.48 L1860.83 1859.6 Z" fill="#000000" fill-rule="evenodd" fill-opacity="1" /><path clip-path="url(#clip120)" d="M1875.95 1830.92 L1894.3 1830.92 L1894.3 1834.86 L1880.23 1834.86 L1880.23 1843.33 Q1881.25 1842.98 1882.27 1842.82 Q1883.29 1842.64 1884.3 1842.64 Q1890.09 1842.64 1893.47 1845.81 Q1896.85 1848.98 1896.85 1854.4 Q1896.85 1859.97 1893.38 1863.08 Q1889.91 1866.15 1883.59 1866.15 Q1881.41 1866.15 1879.14 1865.78 Q1876.9 1865.41 1874.49 1864.67 L1874.49 1859.97 Q1876.57 1861.11 1878.79 1861.66 Q1881.02 1862.22 1883.49 1862.22 Q1887.5 1862.22 1889.84 1860.11 Q1892.17 1858.01 1892.17 1854.4 Q1892.17 1850.78 1889.84 1848.68 Q1887.5 1846.57 1883.49 1846.57 Q1881.62 1846.57 1879.74 1846.99 Q1877.89 1847.4 1875.95 1848.28 L1875.95 1830.92 Z" fill="#000000" fill-rule="evenodd" fill-opacity="1" /><path clip-path="url(#clip120)" d="M2297.53 1830.92 L2315.89 1830.92 L2315.89 1834.86 L2301.81 1834.86 L2301.81 1843.33 Q2302.83 1842.98 2303.85 1842.82 Q2304.87 1842.64 2305.89 1842.64 Q2311.67 1842.64 2315.05 1845.81 Q2318.43 1848.98 2318.43 1854.4 Q2318.43 1859.97 2314.96 1863.08 Q2311.49 1866.15 2305.17 1866.15 Q2302.99 1866.15 2300.73 1865.78 Q2298.48 1865.41 2296.07 1864.67 L2296.07 1859.97 Q2298.16 1861.11 2300.38 1861.66 Q2302.6 1862.22 2305.08 1862.22 Q2309.08 1862.22 2311.42 1860.11 Q2313.76 1858.01 2313.76 1854.4 Q2313.76 1850.78 2311.42 1848.68 Q2309.08 1846.57 2305.08 1846.57 Q2303.2 1846.57 2301.33 1846.99 Q2299.48 1847.4 2297.53 1848.28 L2297.53 1830.92 Z" fill="#000000" fill-rule="evenodd" fill-opacity="1" /><path clip-path="url(#clip120)" d="M2327.65 1859.6 L2332.53 1859.6 L2332.53 1865.48 L2327.65 1865.48 L2327.65 1859.6 Z" fill="#000000" fill-rule="evenodd" fill-opacity="1" /><path clip-path="url(#clip120)" d="M2352.72 1834 Q2349.1 1834 2347.28 1837.57 Q2345.47 1841.11 2345.47 1848.24 Q2345.47 1855.34 2347.28 1858.91 Q2349.1 1862.45 2352.72 1862.45 Q2356.35 1862.45 2358.16 1858.91 Q2359.98 1855.34 2359.98 1848.24 Q2359.98 1841.11 2358.16 1837.57 Q2356.35 1834 2352.72 1834 M2352.72 1830.3 Q2358.53 1830.3 2361.58 1834.9 Q2364.66 1839.49 2364.66 1848.24 Q2364.66 1856.96 2361.58 1861.57 Q2358.53 1866.15 2352.72 1866.15 Q2346.91 1866.15 2343.83 1861.57 Q2340.77 1856.96 2340.77 1848.24 Q2340.77 1839.49 2343.83 1834.9 Q2346.91 1830.3 2352.72 1830.3 Z" fill="#000000" fill-rule="evenodd" fill-opacity="1" /><polyline clip-path="url(#clip123)" style="stroke:#000000; stroke-linecap:round; stroke-linejoin:round; stroke-width:2; stroke-opacity:0.1; fill:none" points="
  150.358,1751.16 2640.76,1751.16 
  "/>
<polyline clip-path="url(#clip123)" style="stroke:#000000; stroke-linecap:round; stroke-linejoin:round; stroke-width:2; stroke-opacity:0.1; fill:none" points="
  150.358,1420.3 2640.76,1420.3 
  "/>
<polyline clip-path="url(#clip123)" style="stroke:#000000; stroke-linecap:round; stroke-linejoin:round; stroke-width:2; stroke-opacity:0.1; fill:none" points="
  150.358,1089.44 2640.76,1089.44 
  "/>
<polyline clip-path="url(#clip123)" style="stroke:#000000; stroke-linecap:round; stroke-linejoin:round; stroke-width:2; stroke-opacity:0.1; fill:none" points="
  150.358,758.584 2640.76,758.584 
  "/>
<polyline clip-path="url(#clip123)" style="stroke:#000000; stroke-linecap:round; stroke-linejoin:round; stroke-width:2; stroke-opacity:0.1; fill:none" points="
  150.358,427.726 2640.76,427.726 
  "/>
<polyline clip-path="url(#clip123)" style="stroke:#000000; stroke-linecap:round; stroke-linejoin:round; stroke-width:2; stroke-opacity:0.1; fill:none" points="
  150.358,96.8669 2640.76,96.8669 
  "/>
<polyline clip-path="url(#clip120)" style="stroke:#000000; stroke-linecap:round; stroke-linejoin:round; stroke-width:4; stroke-opacity:1; fill:none" points="
  150.358,1800.78 150.358,47.2441 
  "/>
<polyline clip-path="url(#clip120)" style="stroke:#000000; stroke-linecap:round; stroke-linejoin:round; stroke-width:4; stroke-opacity:1; fill:none" points="
  150.358,1751.16 169.256,1751.16 
  "/>
<polyline clip-path="url(#clip120)" style="stroke:#000000; stroke-linecap:round; stroke-linejoin:round; stroke-width:4; stroke-opacity:1; fill:none" points="
  150.358,1420.3 169.256,1420.3 
  "/>
<polyline clip-path="url(#clip120)" style="stroke:#000000; stroke-linecap:round; stroke-linejoin:round; stroke-width:4; stroke-opacity:1; fill:none" points="
  150.358,1089.44 169.256,1089.44 
  "/>
<polyline clip-path="url(#clip120)" style="stroke:#000000; stroke-linecap:round; stroke-linejoin:round; stroke-width:4; stroke-opacity:1; fill:none" points="
  150.358,758.584 169.256,758.584 
  "/>
<polyline clip-path="url(#clip120)" style="stroke:#000000; stroke-linecap:round; stroke-linejoin:round; stroke-width:4; stroke-opacity:1; fill:none" points="
  150.358,427.726 169.256,427.726 
  "/>
<polyline clip-path="url(#clip120)" style="stroke:#000000; stroke-linecap:round; stroke-linejoin:round; stroke-width:4; stroke-opacity:1; fill:none" points="
  150.358,96.8669 169.256,96.8669 
  "/>
<path clip-path="url(#clip120)" d="M49.9225 1751.61 L79.5983 1751.61 L79.5983 1755.55 L49.9225 1755.55 L49.9225 1751.61 Z" fill="#000000" fill-rule="evenodd" fill-opacity="1" /><path clip-path="url(#clip120)" d="M93.7186 1764.51 L110.038 1764.51 L110.038 1768.44 L88.0936 1768.44 L88.0936 1764.51 Q90.7556 1761.75 95.3389 1757.12 Q99.9454 1752.47 101.126 1751.13 Q103.371 1748.6 104.251 1746.87 Q105.154 1745.11 105.154 1743.42 Q105.154 1740.66 103.209 1738.93 Q101.288 1737.19 98.1861 1737.19 Q95.9871 1737.19 93.5334 1737.95 Q91.1028 1738.72 88.3251 1740.27 L88.3251 1735.55 Q91.1491 1734.41 93.6028 1733.83 Q96.0565 1733.26 98.0935 1733.26 Q103.464 1733.26 106.658 1735.94 Q109.853 1738.63 109.853 1743.12 Q109.853 1745.25 109.043 1747.17 Q108.256 1749.07 106.149 1751.66 Q105.57 1752.33 102.469 1755.55 Q99.3667 1758.74 93.7186 1764.51 Z" fill="#000000" fill-rule="evenodd" fill-opacity="1" /><path clip-path="url(#clip120)" d="M49.5521 1420.75 L79.2279 1420.75 L79.2279 1424.69 L49.5521 1424.69 L49.5521 1420.75 Z" fill="#000000" fill-rule="evenodd" fill-opacity="1" /><path clip-path="url(#clip120)" d="M90.1306 1433.65 L97.7695 1433.65 L97.7695 1407.28 L89.4593 1408.95 L89.4593 1404.69 L97.7232 1403.02 L102.399 1403.02 L102.399 1433.65 L110.038 1433.65 L110.038 1437.58 L90.1306 1437.58 L90.1306 1433.65 Z" fill="#000000" fill-rule="evenodd" fill-opacity="1" /><path clip-path="url(#clip120)" d="M98.0935 1075.24 Q94.4824 1075.24 92.6537 1078.81 Q90.8482 1082.35 90.8482 1089.48 Q90.8482 1096.58 92.6537 1100.15 Q94.4824 1103.69 98.0935 1103.69 Q101.728 1103.69 103.533 1100.15 Q105.362 1096.58 105.362 1089.48 Q105.362 1082.35 103.533 1078.81 Q101.728 1075.24 98.0935 1075.24 M98.0935 1071.54 Q103.904 1071.54 106.959 1076.14 Q110.038 1080.73 110.038 1089.48 Q110.038 1098.2 106.959 1102.81 Q103.904 1107.39 98.0935 1107.39 Q92.2834 1107.39 89.2047 1102.81 Q86.1492 1098.2 86.1492 1089.48 Q86.1492 1080.73 89.2047 1076.14 Q92.2834 1071.54 98.0935 1071.54 Z" fill="#000000" fill-rule="evenodd" fill-opacity="1" /><path clip-path="url(#clip120)" d="M90.1306 771.929 L97.7695 771.929 L97.7695 745.564 L89.4593 747.23 L89.4593 742.971 L97.7232 741.304 L102.399 741.304 L102.399 771.929 L110.038 771.929 L110.038 775.864 L90.1306 775.864 L90.1306 771.929 Z" fill="#000000" fill-rule="evenodd" fill-opacity="1" /><path clip-path="url(#clip120)" d="M93.7186 441.07 L110.038 441.07 L110.038 445.006 L88.0936 445.006 L88.0936 441.07 Q90.7556 438.316 95.3389 433.686 Q99.9454 429.034 101.126 427.691 Q103.371 425.168 104.251 423.432 Q105.154 421.672 105.154 419.983 Q105.154 417.228 103.209 415.492 Q101.288 413.756 98.1861 413.756 Q95.9871 413.756 93.5334 414.52 Q91.1028 415.284 88.3251 416.835 L88.3251 412.112 Q91.1491 410.978 93.6028 410.399 Q96.0565 409.821 98.0935 409.821 Q103.464 409.821 106.658 412.506 Q109.853 415.191 109.853 419.682 Q109.853 421.811 109.043 423.733 Q108.256 425.631 106.149 428.223 Q105.57 428.895 102.469 432.112 Q99.3667 435.307 93.7186 441.07 Z" fill="#000000" fill-rule="evenodd" fill-opacity="1" /><path clip-path="url(#clip120)" d="M102.908 95.5128 Q106.265 96.2304 108.14 98.4989 Q110.038 100.767 110.038 104.101 Q110.038 109.216 106.519 112.017 Q103.001 114.818 96.5195 114.818 Q94.3436 114.818 92.0288 114.378 Q89.7371 113.962 87.2834 113.105 L87.2834 108.591 Q89.2278 109.726 91.5426 110.304 Q93.8574 110.883 96.3806 110.883 Q100.779 110.883 103.07 109.147 Q105.385 107.411 105.385 104.101 Q105.385 101.045 103.232 99.3322 Q101.103 97.5961 97.2834 97.5961 L93.2556 97.5961 L93.2556 93.7535 L97.4685 93.7535 Q100.918 93.7535 102.746 92.3878 Q104.575 90.9989 104.575 88.4063 Q104.575 85.7443 102.677 84.3323 Q100.802 82.8971 97.2834 82.8971 Q95.3621 82.8971 93.163 83.3138 Q90.9639 83.7304 88.3251 84.6101 L88.3251 80.4434 Q90.9871 79.7027 93.3019 79.3323 Q95.6398 78.9619 97.7 78.9619 Q103.024 78.9619 106.126 81.3925 Q109.228 83.7999 109.228 87.9202 Q109.228 90.7906 107.584 92.7813 Q105.941 94.7489 102.908 95.5128 Z" fill="#000000" fill-rule="evenodd" fill-opacity="1" /><polyline clip-path="url(#clip123)" style="stroke:#009af9; stroke-linecap:round; stroke-linejoin:round; stroke-width:4; stroke-opacity:1; fill:none" points="
  220.841,1089.44 224.665,1082.68 228.489,1075.91 232.313,1069.15 236.137,1062.4 253.816,1031.39 271.496,1000.89 289.175,971.19 306.854,942.542 315.694,928.695 
  324.533,915.206 333.373,902.108 342.213,889.428 351.052,877.195 359.892,865.437 368.732,854.179 377.571,843.447 388.196,831.277 398.82,819.941 409.445,809.476 
  420.069,799.914 430.694,791.286 441.318,783.622 451.943,776.945 462.568,771.276 471.55,767.284 480.533,764.036 489.516,761.539 498.499,759.798 507.482,758.819 
  516.465,758.602 525.448,759.149 534.431,760.459 544.189,762.742 553.947,765.914 563.705,769.967 573.463,774.891 583.22,780.671 592.978,787.292 602.736,794.736 
  612.494,802.983 621.49,811.277 630.486,820.216 639.482,829.777 648.478,839.94 657.474,850.68 666.47,861.972 675.466,873.792 684.462,886.11 694.107,899.839 
  703.751,914.072 713.396,928.772 723.04,943.899 742.33,975.274 761.619,1007.86 806.316,1086.11 851.013,1164.55 870.874,1198.29 890.734,1230.8 900.665,1246.49 
  910.595,1261.73 920.525,1276.48 930.456,1290.7 939.164,1302.71 947.872,1314.26 956.58,1325.32 965.288,1335.86 973.996,1345.88 982.704,1355.33 991.412,1364.21 
  1000.12,1372.49 1009.61,1380.83 1019.11,1388.41 1028.6,1395.21 1038.1,1401.23 1047.59,1406.45 1057.08,1410.85 1066.58,1414.42 1076.07,1417.16 1085.62,1419.05 
  1095.17,1420.09 1104.72,1420.26 1114.27,1419.57 1123.82,1418.02 1133.38,1415.62 1142.93,1412.36 1152.48,1408.26 1163.04,1402.76 1173.6,1396.26 1184.15,1388.78 
  1194.71,1380.34 1205.27,1370.98 1215.83,1360.72 1226.39,1349.6 1236.95,1337.65 1247,1325.54 1257.04,1312.75 1267.09,1299.31 1277.14,1285.27 1287.19,1270.66 
  1297.23,1255.53 1307.28,1239.92 1317.33,1223.88 1338.22,1189.33 1359.11,1153.53 1380,1116.93 1400.9,1079.99 1418.49,1048.97 1436.07,1018.3 1453.66,988.268 
  1471.25,959.126 1481.98,941.887 1492.72,925.134 1503.46,908.923 1514.19,893.308 1524.93,878.338 1535.66,864.065 1546.4,850.535 1557.14,837.792 1566.97,826.846 
  1576.81,816.626 1586.64,807.162 1596.48,798.478 1606.31,790.599 1616.15,783.547 1625.98,777.341 1635.82,771.998 1644.9,767.844 1653.98,764.449 1663.07,761.82 
  1672.15,759.965 1681.23,758.887 1690.32,758.59 1699.4,759.073 1708.48,760.336 1717.68,762.407 1726.88,765.27 1736.09,768.918 1745.29,773.342 1754.49,778.532 
  1763.69,784.474 1772.89,791.155 1782.09,798.558 1792.4,807.691 1802.72,817.681 1813.03,828.498 1823.34,840.108 1833.65,852.477 1843.96,865.566 1854.27,879.336 
  1864.59,893.745 1873.93,907.317 1883.28,921.344 1892.62,935.791 1901.96,950.621 1920.65,981.284 1939.34,1013.03 1982.13,1088.06 2024.93,1163.17 2044.74,1196.87 
  2064.55,1229.37 2074.46,1245.05 2084.36,1260.29 2094.27,1275.06 2104.18,1289.3 2113.94,1302.8 2123.71,1315.71 2133.47,1328 2143.24,1339.65 2153.01,1350.61 
  2162.77,1360.86 2172.54,1370.37 2182.3,1379.11 2191.79,1386.84 2201.27,1393.81 2210.75,1399.99 2220.23,1405.38 2229.71,1409.95 2239.2,1413.7 2248.68,1416.62 
  2258.16,1418.69 2267.88,1419.94 2277.6,1420.3 2287.32,1419.76 2297.04,1418.33 2306.76,1416 2316.48,1412.8 2326.2,1408.72 2335.92,1403.78 2346.57,1397.4 
  2357.22,1390.01 2367.87,1381.65 2378.52,1372.34 2389.17,1362.11 2399.82,1351 2410.47,1339.04 2421.12,1326.27 2436.59,1306.37 2452.06,1284.98 2467.53,1262.25 
  2483,1238.34 2498.47,1213.41 2513.94,1187.63 2529.41,1161.18 2544.88,1134.24 2551.23,1123.08 2557.58,1111.89 2563.93,1100.67 2570.27,1089.44 
  "/>
<polyline clip-path="url(#clip123)" style="stroke:#e26f46; stroke-linecap:round; stroke-linejoin:round; stroke-width:4; stroke-opacity:1; fill:none" points="
  220.841,788.594 224.665,791.473 228.489,794.477 232.313,797.603 236.137,800.852 244.977,808.823 253.816,817.42 262.656,826.625 271.496,836.418 280.335,846.776 
  289.175,857.677 298.015,869.096 306.854,881.007 324.533,906.199 342.213,933.029 359.892,961.256 377.571,990.628 420.069,1064.33 462.568,1139.32 480.533,1170.47 
  498.499,1200.88 516.465,1230.25 534.431,1258.33 544.189,1272.94 553.947,1287.05 563.705,1300.63 573.463,1313.63 583.22,1326.02 592.978,1337.76 602.736,1348.83 
  612.494,1359.19 621.49,1368.09 630.486,1376.35 639.482,1383.94 648.478,1390.86 657.474,1397.07 666.47,1402.57 675.466,1407.35 684.462,1411.39 694.107,1414.89 
  703.751,1417.53 713.396,1419.3 723.04,1420.19 732.685,1420.2 742.33,1419.32 751.974,1417.57 761.619,1414.95 772.793,1410.83 783.967,1405.56 795.142,1399.17 
  806.316,1391.66 817.49,1383.08 828.664,1373.45 839.839,1362.8 851.013,1351.18 860.943,1340.07 870.874,1328.25 880.804,1315.76 890.734,1302.62 900.665,1288.89 
  910.595,1274.59 920.525,1259.77 930.456,1244.48 947.872,1216.62 965.288,1187.65 982.704,1157.84 1000.12,1127.43 1038.1,1060.35 1076.07,994.46 1095.17,962.632 
  1114.27,932.127 1123.82,917.47 1133.38,903.262 1142.93,889.539 1152.48,876.339 1163.04,862.392 1173.6,849.169 1184.15,836.713 1194.71,825.063 1205.27,814.255 
  1215.83,804.325 1226.39,795.305 1236.95,787.222 1247,780.426 1257.04,774.523 1267.09,769.528 1277.14,765.457 1287.19,762.321 1297.23,760.13 1307.28,758.89 
  1317.33,758.604 1327.77,759.319 1338.22,761.065 1348.67,763.835 1359.11,767.622 1369.56,772.414 1380,778.194 1390.45,784.947 1400.9,792.65 1409.69,799.853 
  1418.49,807.697 1427.28,816.164 1436.07,825.235 1444.87,834.891 1453.66,845.11 1462.45,855.869 1471.25,867.145 1481.98,881.575 1492.72,896.691 1503.46,912.443 
  1514.19,928.777 1524.93,945.642 1535.66,962.98 1546.4,980.736 1557.14,998.849 1596.48,1067.31 1635.82,1136.75 1653.98,1168.3 1672.15,1199.1 1690.32,1228.86 
  1708.48,1257.32 1717.68,1271.14 1726.88,1284.52 1736.09,1297.43 1745.29,1309.84 1754.49,1321.71 1763.69,1333.02 1772.89,1343.74 1782.09,1353.84 1792.4,1364.41 
  1802.72,1374.13 1813.03,1382.99 1823.34,1390.96 1833.65,1398.01 1843.96,1404.12 1854.27,1409.28 1864.59,1413.46 1873.93,1416.4 1883.28,1418.52 1892.62,1419.82 
  1901.96,1420.3 1911.31,1419.95 1920.65,1418.77 1930,1416.77 1939.34,1413.96 1950.04,1409.74 1960.74,1404.47 1971.44,1398.17 1982.13,1390.86 1992.83,1382.57 
  2003.53,1373.31 2014.23,1363.13 2024.93,1352.05 2034.83,1341.02 2044.74,1329.29 2054.65,1316.88 2064.55,1303.84 2074.46,1290.19 2084.36,1275.98 2094.27,1261.25 
  2104.18,1246.03 2123.71,1214.78 2143.24,1182.17 2162.77,1148.54 2182.3,1114.28 2201.27,1080.74 2220.23,1047.29 2239.2,1014.28 2258.16,982.041 2267.88,965.924 
  2277.6,950.14 2287.32,934.733 2297.04,919.743 2306.76,905.213 2316.48,891.18 2326.2,877.683 2335.92,864.758 2346.57,851.296 2357.22,838.606 2367.87,826.73 
  2378.52,815.706 2389.17,805.57 2399.82,796.355 2410.47,788.091 2421.12,780.804 2428.85,776.138 2436.59,772.008 2444.32,768.421 2452.06,765.383 2459.8,762.901 
  2467.53,760.977 2475.27,759.615 2483,758.818 2490.74,758.587 2498.47,758.922 2506.21,759.822 2513.94,761.287 2521.68,763.314 2529.41,765.898 2537.15,769.036 
  2544.88,772.723 2551.23,776.154 2557.58,779.945 2563.93,784.094 2570.27,788.594 
  "/>
<polyline clip-path="url(#clip123)" style="stroke:#3da44d; stroke-linecap:round; stroke-linejoin:round; stroke-width:4; stroke-opacity:1; fill:none" points="
  220.841,427.726 224.665,420.959 228.489,414.195 232.313,407.437 236.137,400.687 253.816,369.673 271.496,339.177 289.175,309.472 306.854,280.824 315.694,266.977 
  324.533,253.489 333.373,240.39 342.213,227.711 351.052,215.478 359.892,203.719 368.732,192.461 377.571,181.729 388.196,169.56 398.82,158.224 409.445,147.758 
  420.069,138.196 430.694,129.569 441.318,121.904 451.943,115.227 462.568,109.559 471.55,105.567 480.533,102.319 489.516,99.8213 498.499,98.0809 507.482,97.1013 
  516.465,96.8848 525.448,97.4319 534.431,98.7414 544.189,101.024 553.947,104.196 563.705,108.25 573.463,113.174 583.22,118.954 592.978,125.575 602.736,133.019 
  612.494,141.266 621.49,149.56 630.486,158.498 639.482,168.06 648.478,178.222 657.474,188.962 666.47,200.255 675.466,212.074 684.462,224.393 694.107,238.121 
  703.751,252.355 713.396,267.054 723.04,282.181 742.33,313.556 761.619,346.145 806.316,424.394 851.013,502.831 870.874,536.573 890.734,569.087 900.665,584.769 
  910.595,600.008 920.525,614.761 930.456,628.986 939.164,640.995 947.872,652.54 956.58,663.599 965.288,674.146 973.996,684.158 982.704,693.614 991.412,702.493 
  1000.12,710.777 1009.61,719.108 1019.11,726.688 1028.6,733.497 1038.1,739.517 1047.59,744.734 1057.08,749.134 1066.58,752.705 1076.07,755.438 1085.62,757.335 
  1095.17,758.372 1104.72,758.546 1114.27,757.857 1123.82,756.307 1133.38,753.9 1142.93,750.642 1152.48,746.541 1163.04,741.04 1173.6,734.54 1184.15,727.061 
  1194.71,718.627 1205.27,709.266 1215.83,699.007 1226.39,687.883 1236.95,675.929 1247,663.82 1257.04,651.029 1267.09,637.594 1277.14,623.552 1287.19,608.946 
  1297.23,593.816 1307.28,578.207 1317.33,562.163 1338.22,527.611 1359.11,491.813 1380,455.216 1400.9,418.275 1418.49,387.252 1436.07,356.587 1453.66,326.55 
  1471.25,297.408 1481.98,280.169 1492.72,263.417 1503.46,247.206 1514.19,231.59 1524.93,216.621 1535.66,202.348 1546.4,188.817 1557.14,176.075 1566.97,165.128 
  1576.81,154.909 1586.64,145.444 1596.48,136.76 1606.31,128.881 1616.15,121.829 1625.98,115.623 1635.82,110.281 1644.9,106.127 1653.98,102.731 1663.07,100.103 
  1672.15,98.2477 1681.23,97.17 1690.32,96.8724 1699.4,97.3556 1708.48,98.6185 1717.68,100.69 1726.88,103.553 1736.09,107.201 1745.29,111.625 1754.49,116.814 
  1763.69,122.757 1772.89,129.438 1782.09,136.841 1792.4,145.974 1802.72,155.964 1813.03,166.781 1823.34,178.391 1833.65,190.759 1843.96,203.848 1854.27,217.618 
  1864.59,232.027 1873.93,245.599 1883.28,259.626 1892.62,274.073 1901.96,288.904 1920.65,319.567 1939.34,351.31 1982.13,426.345 2024.93,501.451 2044.74,535.152 
  2064.55,567.648 2074.46,583.33 2084.36,598.574 2094.27,613.34 2104.18,627.584 2113.94,641.078 2123.71,653.99 2133.47,666.286 2143.24,677.93 2153.01,688.891 
  2162.77,699.141 2172.54,708.65 2182.3,717.392 2191.79,725.125 2201.27,732.092 2210.75,738.277 2220.23,743.664 2229.71,748.238 2239.2,751.987 2248.68,754.903 
  2258.16,756.977 2267.88,758.225 2277.6,758.58 2287.32,758.04 2297.04,756.608 2306.76,754.287 2316.48,751.083 2326.2,747.006 2335.92,742.066 2346.57,735.678 
  2357.22,728.292 2367.87,719.931 2378.52,710.622 2389.17,700.396 2399.82,689.284 2410.47,677.325 2421.12,664.556 2436.59,644.65 2452.06,623.259 2467.53,600.531 
  2483,576.619 2498.47,551.689 2513.94,525.911 2529.41,499.461 2544.88,472.52 2551.23,461.367 2557.58,450.175 2563.93,438.957 2570.27,427.726 
  "/>
<polyline clip-path="url(#clip123)" style="stroke:#c271d2; stroke-linecap:round; stroke-linejoin:round; stroke-width:4; stroke-opacity:1; fill:none" points="
  220.841,1089.44 224.665,1075.91 228.489,1062.4 232.313,1048.94 236.137,1035.55 244.977,1004.96 253.816,975.138 262.656,946.333 271.496,918.806 275.915,905.599 
  280.335,892.804 284.755,880.448 289.175,868.559 293.595,857.163 298.015,846.287 302.434,835.954 306.854,826.188 311.274,817.01 315.694,808.441 320.114,800.501 
  324.533,793.206 328.953,786.573 333.373,780.617 337.793,775.351 342.213,770.787 346.633,766.935 351.052,763.805 355.472,761.402 359.892,759.732 364.312,758.799 
  368.732,758.605 373.152,759.151 377.571,760.435 382.884,762.95 388.196,766.52 393.508,771.132 398.82,776.772 404.133,783.422 409.445,791.059 414.757,799.66 
  420.069,809.196 425.382,819.637 430.694,830.949 436.006,843.096 441.318,856.038 446.631,869.733 451.943,884.138 457.255,899.206 462.568,914.887 471.55,942.66 
  480.533,971.786 489.516,1002 498.499,1033.02 516.465,1096.33 534.431,1159.38 544.189,1192.7 553.947,1224.89 558.826,1240.45 563.705,1255.6 568.584,1270.3 
  573.463,1284.51 578.341,1298.18 583.22,1311.29 588.099,1323.8 592.978,1335.66 597.857,1346.85 602.736,1357.35 607.615,1367.11 612.494,1376.12 616.992,1383.73 
  621.49,1390.66 625.988,1396.9 630.486,1402.42 634.984,1407.22 639.482,1411.28 643.98,1414.6 648.478,1417.17 652.976,1418.97 657.474,1420.02 661.972,1420.29 
  666.47,1419.81 670.968,1418.56 675.466,1416.54 679.964,1413.77 684.462,1410.25 689.284,1405.65 694.107,1400.21 698.929,1393.94 703.751,1386.86 708.574,1378.99 
  713.396,1370.35 718.218,1360.96 723.04,1350.85 727.863,1340.05 732.685,1328.58 737.507,1316.47 742.33,1303.76 747.152,1290.47 751.974,1276.66 756.797,1262.34 
  761.619,1247.57 767.206,1229.92 772.793,1211.78 778.38,1193.2 783.967,1174.25 795.142,1135.51 806.316,1096.11 817.49,1056.61 828.664,1017.59 839.839,979.586 
  851.013,943.153 855.978,927.605 860.943,912.513 865.908,897.919 870.874,883.867 875.839,870.394 880.804,857.538 885.769,845.337 890.734,833.825 895.699,823.033 
  900.665,812.993 905.63,803.732 910.595,795.278 915.56,787.653 920.525,780.879 925.49,774.975 930.456,769.959 934.81,766.301 939.164,763.344 943.518,761.094 
  947.872,759.556 952.226,758.734 956.58,758.629 960.934,759.242 965.288,760.571 969.642,762.613 973.996,765.364 978.35,768.818 982.704,772.968 987.058,777.804 
  991.412,783.316 995.766,789.492 1000.12,796.318 1004.87,804.485 1009.61,813.386 1014.36,822.999 1019.11,833.299 1023.86,844.259 1028.6,855.851 1033.35,868.046 
  1038.1,880.811 1042.84,894.114 1047.59,907.921 1052.34,922.196 1057.08,936.902 1066.58,967.455 1076.07,999.265 1095.17,1065.73 1114.27,1133.19 1123.82,1166.41 
  1133.38,1198.83 1142.93,1230.1 1152.48,1259.91 1157.76,1275.65 1163.04,1290.79 1168.32,1305.29 1173.6,1319.1 1178.87,1332.17 1184.15,1344.48 1189.43,1355.97 
  1194.71,1366.61 1199.99,1376.37 1205.27,1385.21 1210.55,1393.11 1215.83,1400.04 1221.11,1405.98 1226.39,1410.91 1231.67,1414.82 1236.95,1417.68 1241.97,1419.44 
  1247,1420.25 1252.02,1420.1 1257.04,1418.99 1262.07,1416.93 1267.09,1413.93 1272.12,1409.99 1277.14,1405.13 1282.16,1399.35 1287.19,1392.68 1292.21,1385.14 
  1297.23,1376.74 1302.26,1367.51 1307.28,1357.47 1312.3,1346.67 1317.33,1335.12 1322.55,1322.36 1327.77,1308.88 1333,1294.7 1338.22,1279.89 1343.44,1264.49 
  1348.67,1248.53 1353.89,1232.08 1359.11,1215.19 1369.56,1180.28 1380,1144.23 1390.45,1107.5 1400.9,1070.55 1409.69,1039.61 1418.49,1009.1 1427.28,979.311 
  1436.07,950.493 1440.47,936.528 1444.87,922.903 1449.26,909.645 1453.66,896.785 1458.06,884.352 1462.45,872.372 1466.85,860.872 1471.25,849.877 1476.62,837.175 
  1481.98,825.305 1487.35,814.305 1492.72,804.212 1498.09,795.06 1503.46,786.878 1508.82,779.693 1514.19,773.53 1519.56,768.408 1524.93,764.344 1530.3,761.352 
  1535.66,759.442 1541.03,758.62 1546.4,758.888 1551.77,760.246 1557.14,762.689 1562.05,765.872 1566.97,769.951 1571.89,774.914 1576.81,780.747 1581.72,787.434 
  1586.64,794.956 1591.56,803.293 1596.48,812.422 1601.39,822.317 1606.31,832.951 1611.23,844.295 1616.15,856.317 1621.06,868.984 1625.98,882.261 1630.9,896.111 
  1635.82,910.496 1644.9,938.338 1653.98,967.606 1663.07,998.024 1672.15,1029.3 1690.32,1093.26 1708.48,1157.08 1717.68,1188.58 1726.88,1219.12 1736.09,1248.41 
  1745.29,1276.15 1749.89,1289.36 1754.49,1302.09 1759.09,1314.3 1763.69,1325.97 1768.29,1337.06 1772.89,1347.56 1777.49,1357.43 1782.09,1366.65 1787.25,1376.18 
  1792.4,1384.85 1797.56,1392.61 1802.72,1399.46 1807.87,1405.36 1813.03,1410.3 1818.18,1414.26 1823.34,1417.24 1828.5,1419.21 1833.65,1420.19 1838.81,1420.16 
  1843.96,1419.12 1849.12,1417.09 1854.27,1414.05 1859.43,1410.03 1864.59,1405.03 1869.26,1399.67 1873.93,1393.54 1878.6,1386.65 1883.28,1379.02 1887.95,1370.66 
  1892.62,1361.6 1897.29,1351.86 1901.96,1341.47 1906.64,1330.44 1911.31,1318.82 1915.98,1306.62 1920.65,1293.88 1925.32,1280.62 1930,1266.89 1934.67,1252.72 
  1939.34,1238.14 1950.04,1203.42 1960.74,1167.2 1971.44,1129.97 1982.13,1092.2 1992.83,1054.41 2003.53,1017.06 2014.23,980.67 2024.93,945.699 2029.88,930.119 
  2034.83,914.986 2039.79,900.343 2044.74,886.23 2049.69,872.688 2054.65,859.754 2059.6,847.465 2064.55,835.855 2069.51,824.957 2074.46,814.8 2079.41,805.415 
  2084.36,796.827 2089.32,789.06 2094.27,782.136 2099.22,776.075 2104.18,770.893 2109.06,766.66 2113.94,763.307 2118.82,760.843 2123.71,759.276 2128.59,758.61 
  2133.47,758.846 2138.36,759.984 2143.24,762.021 2148.12,764.951 2153.01,768.766 2157.89,773.456 2162.77,779.008 2167.65,785.407 2172.54,792.635 2177.42,800.673 
  2182.3,809.498 2187.04,818.798 2191.79,828.794 2196.53,839.46 2201.27,850.769 2206.01,862.691 2210.75,875.197 2215.49,888.254 2220.23,901.828 2229.71,930.387 
  2239.2,960.582 2248.68,992.101 2258.16,1024.62 2277.6,1093 2297.04,1161.24 2306.76,1194.37 2316.48,1226.37 2326.2,1256.9 2335.92,1285.61 2341.25,1300.46 
  2346.57,1314.62 2351.9,1328.06 2357.22,1340.72 2362.55,1352.57 2367.87,1363.56 2373.2,1373.66 2378.52,1382.84 2383.85,1391.07 2389.17,1398.33 2394.5,1404.57 
  2399.82,1409.8 2405.14,1413.99 2410.47,1417.13 2415.79,1419.2 2421.12,1420.2 2424.99,1420.26 2428.85,1419.75 2432.72,1418.67 2436.59,1417.03 2440.46,1414.83 
  2444.32,1412.07 2448.19,1408.76 2452.06,1404.91 2455.93,1400.51 2459.8,1395.59 2463.66,1390.13 2467.53,1384.17 2471.4,1377.7 2475.27,1370.73 2479.13,1363.29 
  2483,1355.37 2486.87,1347 2490.74,1338.19 2494.6,1328.96 2498.47,1319.31 2506.21,1298.86 2513.94,1276.97 2521.68,1253.8 2529.41,1229.5 2537.15,1204.25 
  2544.88,1178.21 2551.23,1156.38 2557.58,1134.24 2563.93,1111.89 2570.27,1089.44 
  "/>
<polyline clip-path="url(#clip123)" style="stroke:#ac8d18; stroke-linecap:round; stroke-linejoin:round; stroke-width:4; stroke-opacity:1; fill:none" points="
  220.841,1089.44 224.665,1075.91 228.489,1062.38 232.313,1048.87 236.137,1035.37 253.816,973.337 271.496,912.345 289.175,852.936 306.854,795.641 315.694,767.946 
  324.533,740.97 333.373,714.773 342.213,689.413 351.052,664.947 359.892,641.43 368.732,618.914 377.571,597.45 388.196,573.112 398.82,550.44 409.445,529.508 
  420.069,510.384 430.694,493.13 441.318,477.801 451.943,464.446 462.568,453.109 471.55,445.125 480.533,438.629 489.516,433.634 498.499,430.154 507.482,428.194 
  516.465,427.761 525.448,428.856 534.431,431.475 544.189,436.04 553.947,442.385 563.705,450.492 573.463,460.339 583.22,471.899 592.978,485.142 602.736,500.03 
  612.494,516.523 621.49,533.112 630.486,550.988 639.482,570.111 648.478,590.436 657.474,611.916 666.47,634.502 675.466,658.14 684.462,682.777 694.107,710.235 
  703.751,738.701 713.396,768.1 723.04,798.355 742.33,861.104 761.619,926.282 806.316,1082.78 851.013,1239.65 870.874,1307.14 890.734,1372.17 900.665,1403.53 
  910.595,1434.01 920.525,1463.51 930.456,1491.96 939.164,1515.98 947.872,1539.07 956.58,1561.19 965.288,1582.28 973.996,1602.31 982.704,1621.22 991.412,1638.98 
  1000.12,1655.55 1009.61,1672.21 1019.11,1687.37 1028.6,1700.99 1038.1,1713.03 1047.59,1723.46 1057.08,1732.26 1066.58,1739.4 1076.07,1744.87 1085.62,1748.66 
  1095.17,1750.74 1104.72,1751.08 1114.27,1749.71 1123.82,1746.61 1133.38,1741.79 1142.93,1735.28 1152.48,1727.07 1163.04,1716.07 1173.6,1703.07 1184.15,1688.11 
  1194.71,1671.25 1205.27,1652.52 1215.83,1632.01 1226.39,1609.76 1236.95,1585.85 1247,1561.63 1257.04,1536.05 1267.09,1509.18 1277.14,1481.1 1287.19,1451.88 
  1297.23,1421.62 1307.28,1390.4 1317.33,1358.32 1338.22,1289.21 1359.11,1217.62 1380,1144.42 1400.9,1070.54 1418.49,1008.5 1436.07,947.165 1453.66,887.092 
  1471.25,828.809 1481.98,794.331 1492.72,760.825 1503.46,728.404 1514.19,697.172 1524.93,667.234 1535.66,638.687 1546.4,611.626 1557.14,586.141 1566.97,564.249 
  1576.81,543.81 1586.64,524.88 1596.48,507.512 1606.31,491.755 1616.15,477.65 1625.98,465.239 1635.82,454.554 1644.9,446.245 1653.98,439.454 1663.07,434.198 
  1672.15,430.487 1681.23,428.332 1690.32,427.737 1699.4,428.703 1708.48,431.229 1717.68,435.371 1726.88,441.097 1736.09,448.393 1745.29,457.241 1754.49,467.62 
  1763.69,479.505 1772.89,492.867 1782.09,507.674 1792.4,525.94 1802.72,545.92 1813.03,567.553 1823.34,590.773 1833.65,615.51 1843.96,641.688 1854.27,669.228 
  1864.59,698.046 1873.93,725.191 1883.28,753.245 1892.62,782.138 1901.96,811.799 1920.65,873.126 1939.34,936.612 1982.13,1086.68 2024.93,1236.89 2044.74,1304.3 
  2064.55,1369.29 2074.46,1400.65 2084.36,1431.14 2094.27,1460.67 2104.18,1489.16 2113.94,1516.15 2123.71,1541.97 2133.47,1566.56 2143.24,1589.85 2153.01,1611.77 
  2162.77,1632.27 2172.54,1651.29 2182.3,1668.78 2191.79,1684.24 2201.27,1698.18 2210.75,1710.55 2220.23,1721.32 2229.71,1730.47 2239.2,1737.97 2248.68,1743.8 
  2258.16,1747.95 2267.88,1750.44 2277.6,1751.15 2287.32,1750.07 2297.04,1747.21 2306.76,1742.57 2316.48,1736.16 2326.2,1728 2335.92,1718.12 2346.57,1705.35 
  2357.22,1690.58 2367.87,1673.85 2378.52,1655.24 2389.17,1634.78 2399.82,1612.56 2410.47,1588.64 2421.12,1563.1 2436.59,1523.29 2452.06,1480.51 2467.53,1435.05 
  2483,1387.23 2498.47,1337.37 2513.94,1285.81 2529.41,1232.91 2544.88,1179.03 2551.23,1156.73 2557.58,1134.34 2563.93,1111.9 2570.27,1089.44 
  "/>
<path clip-path="url(#clip120)" d="
M2094.67 416.735 L2557.74 416.735 L2557.74 105.695 L2094.67 105.695  Z
  " fill="#ffffff" fill-rule="evenodd" fill-opacity="1"/>
<polyline clip-path="url(#clip120)" style="stroke:#000000; stroke-linecap:round; stroke-linejoin:round; stroke-width:4; stroke-opacity:1; fill:none" points="
  2094.67,416.735 2557.74,416.735 2557.74,105.695 2094.67,105.695 2094.67,416.735 
  "/>
<polyline clip-path="url(#clip120)" style="stroke:#009af9; stroke-linecap:round; stroke-linejoin:round; stroke-width:4; stroke-opacity:1; fill:none" points="
  2122.35,157.535 2288.37,157.535 
  "/>
<path clip-path="url(#clip120)" d="M2316.04 168.777 L2316.04 162.453 Q2316.04 161.914 2316.07 161.726 Q2316.09 161.539 2316.23 161.399 Q2316.37 161.258 2316.65 161.258 Q2316.98 161.258 2317.1 161.399 Q2317.24 161.539 2317.33 162.078 Q2318.06 165.38 2319.6 167.137 Q2321.17 168.87 2324.01 168.87 Q2326.7 168.87 2328.06 167.676 Q2329.42 166.481 2329.42 164.514 Q2329.42 161 2324.43 160.11 Q2321.55 159.525 2320.35 159.15 Q2319.16 158.752 2318.1 157.885 Q2316.04 156.199 2316.04 153.81 Q2316.04 151.421 2317.85 149.664 Q2319.67 147.907 2323.7 147.907 Q2326.4 147.907 2328.22 149.266 Q2328.76 148.844 2329.04 148.493 Q2329.67 147.907 2330 147.907 Q2330.38 147.907 2330.45 148.165 Q2330.52 148.399 2330.52 149.078 L2330.52 153.903 Q2330.52 154.442 2330.49 154.629 Q2330.47 154.817 2330.33 154.957 Q2330.19 155.074 2329.89 155.074 Q2329.35 155.074 2329.32 154.629 Q2328.95 148.821 2323.7 148.821 Q2320.87 148.821 2319.6 149.922 Q2318.34 150.999 2318.34 152.475 Q2318.34 153.294 2318.71 153.927 Q2319.11 154.536 2319.6 154.911 Q2320.12 155.262 2321.06 155.613 Q2321.99 155.941 2322.55 156.058 Q2323.14 156.175 2324.24 156.41 Q2328.08 157.136 2329.7 158.705 Q2331.71 160.719 2331.71 163.272 Q2331.71 166.106 2329.79 168.027 Q2327.87 169.948 2324.01 169.948 Q2320.89 169.948 2318.71 167.863 Q2318.43 168.144 2318.22 168.402 Q2318.01 168.636 2317.92 168.73 Q2317.85 168.823 2317.82 168.894 Q2317.8 168.941 2317.75 168.987 Q2316.79 169.948 2316.56 169.948 Q2316.18 169.948 2316.11 169.69 Q2316.04 169.456 2316.04 168.777 Z" fill="#000000" fill-rule="evenodd" fill-opacity="1" /><path clip-path="url(#clip120)" d="M2334.55 158.845 Q2334.55 154.325 2337.45 151.116 Q2340.36 147.907 2344.53 147.907 Q2348.74 147.907 2350.92 150.648 Q2353.12 153.388 2353.12 157.323 Q2353.12 158.049 2352.94 158.19 Q2352.75 158.33 2351.93 158.33 L2338.53 158.33 Q2338.53 163.225 2339.98 165.521 Q2342 168.73 2345.39 168.73 Q2345.86 168.73 2346.42 168.636 Q2346.99 168.542 2348.13 168.144 Q2349.28 167.723 2350.29 166.622 Q2351.3 165.521 2351.88 163.788 Q2352.02 163.108 2352.49 163.132 Q2353.12 163.132 2353.12 163.694 Q2353.12 164.116 2352.66 165.076 Q2352.21 166.013 2351.34 167.137 Q2350.48 168.261 2348.79 169.105 Q2347.13 169.948 2345.11 169.948 Q2340.9 169.948 2337.71 166.762 Q2334.55 163.553 2334.55 158.845 M2338.58 157.323 L2349.96 157.323 Q2349.96 156.316 2349.77 155.192 Q2349.61 154.067 2349.09 152.521 Q2348.6 150.952 2347.43 149.968 Q2346.26 148.985 2344.53 148.985 Q2343.75 148.985 2342.91 149.313 Q2342.09 149.64 2341.08 150.437 Q2340.08 151.233 2339.37 153.037 Q2338.67 154.84 2338.58 157.323 Z" fill="#000000" fill-rule="evenodd" fill-opacity="1" /><path clip-path="url(#clip120)" d="M2354.68 169.409 L2354.68 167.933 Q2357.23 167.933 2357.82 167.629 Q2358.4 167.301 2358.4 165.755 L2358.4 152.896 Q2358.4 151.116 2357.77 150.671 Q2357.16 150.226 2354.68 150.226 L2354.68 148.727 L2361.42 148.212 L2361.42 153.248 Q2363.67 148.212 2368.52 148.212 Q2372.13 148.212 2373.56 149.992 Q2374.61 151.186 2374.82 152.521 Q2375.06 153.857 2375.06 157.323 L2375.06 166.481 Q2375.1 167.488 2375.88 167.723 Q2376.65 167.933 2378.8 167.933 L2378.8 169.409 Q2373.91 169.268 2373.42 169.268 Q2373.04 169.268 2368.01 169.409 L2368.01 167.933 Q2370.56 167.933 2371.14 167.629 Q2371.75 167.301 2371.75 165.755 L2371.75 154.583 Q2371.75 152.147 2371 150.718 Q2370.25 149.266 2368.19 149.266 Q2365.71 149.266 2363.72 151.35 Q2361.73 153.435 2361.73 156.948 L2361.73 165.755 Q2361.73 167.301 2362.31 167.629 Q2362.92 167.933 2365.45 167.933 L2365.45 169.409 Q2360.56 169.268 2360.09 169.268 Q2359.71 169.268 2354.68 169.409 Z" fill="#000000" fill-rule="evenodd" fill-opacity="1" /><path clip-path="url(#clip120)" d="M2381.03 157.417 Q2381.03 149.313 2384.05 142.778 Q2385.34 140.037 2387.15 137.742 Q2388.95 135.446 2390.14 134.439 Q2391.34 133.432 2391.67 133.432 Q2392.13 133.432 2392.16 133.901 Q2392.16 134.135 2391.53 134.72 Q2383.8 142.59 2383.82 157.417 Q2383.82 172.29 2391.34 179.855 Q2392.16 180.675 2392.16 180.933 Q2392.16 181.401 2391.67 181.401 Q2391.34 181.401 2390.19 180.441 Q2389.04 179.481 2387.26 177.279 Q2385.48 175.077 2384.19 172.384 Q2381.03 165.849 2381.03 157.417 Z" fill="#000000" fill-rule="evenodd" fill-opacity="1" /><path clip-path="url(#clip120)" d="M2419.7 151.374 Q2419.7 152.685 2418.88 153.435 Q2418.06 154.161 2417.12 154.161 Q2416.23 154.161 2415.76 153.646 Q2415.29 153.13 2415.29 152.475 Q2415.29 151.585 2415.95 150.812 Q2416.6 150.039 2417.59 149.875 Q2416.63 149.266 2415.2 149.266 Q2414.26 149.266 2413.44 149.758 Q2412.65 150.249 2412.15 150.882 Q2411.69 151.514 2411.26 152.428 Q2410.87 153.318 2410.7 153.857 Q2410.56 154.372 2410.44 154.934 L2408.8 161.492 Q2408.01 164.607 2408.01 165.708 Q2408.01 167.067 2408.66 167.98 Q2409.32 168.87 2410.63 168.87 Q2411.15 168.87 2411.73 168.73 Q2412.32 168.566 2413.07 168.144 Q2413.84 167.699 2414.52 167.043 Q2415.22 166.364 2415.9 165.216 Q2416.58 164.069 2417.03 162.593 Q2417.17 162.078 2417.63 162.078 Q2418.22 162.078 2418.22 162.546 Q2418.22 162.944 2417.89 163.788 Q2417.59 164.607 2416.91 165.685 Q2416.25 166.739 2415.39 167.699 Q2414.52 168.636 2413.23 169.292 Q2411.94 169.948 2410.54 169.948 Q2408.52 169.948 2407.19 168.87 Q2405.85 167.793 2405.36 166.294 Q2405.24 166.505 2405.08 166.786 Q2404.92 167.067 2404.42 167.699 Q2403.96 168.308 2403.42 168.777 Q2402.88 169.222 2402.04 169.573 Q2401.22 169.948 2400.33 169.948 Q2399.2 169.948 2398.19 169.62 Q2397.21 169.292 2396.51 168.542 Q2395.8 167.793 2395.8 166.762 Q2395.8 165.615 2396.58 164.818 Q2397.37 163.998 2398.45 163.998 Q2399.13 163.998 2399.67 164.397 Q2400.23 164.795 2400.23 165.661 Q2400.23 166.622 2399.58 167.348 Q2398.92 168.074 2397.98 168.261 Q2398.94 168.87 2400.37 168.87 Q2401.92 168.87 2403.14 167.512 Q2404.35 166.153 2404.94 163.881 Q2406.39 158.424 2406.95 155.988 Q2407.52 153.529 2407.52 152.475 Q2407.52 151.491 2407.26 150.812 Q2407 150.132 2406.56 149.828 Q2406.13 149.5 2405.74 149.383 Q2405.36 149.266 2404.94 149.266 Q2404.24 149.266 2403.44 149.547 Q2402.67 149.828 2401.73 150.484 Q2400.82 151.116 2399.95 152.428 Q2399.08 153.739 2398.5 155.543 Q2398.38 156.082 2397.87 156.082 Q2397.3 156.058 2397.3 155.59 Q2397.3 155.192 2397.61 154.372 Q2397.94 153.529 2398.59 152.475 Q2399.27 151.421 2400.14 150.484 Q2401.03 149.523 2402.32 148.868 Q2403.63 148.212 2405.03 148.212 Q2405.67 148.212 2406.27 148.352 Q2406.91 148.469 2407.66 148.821 Q2408.43 149.172 2409.11 149.945 Q2409.79 150.718 2410.21 151.842 Q2410.49 151.303 2410.87 150.788 Q2411.26 150.273 2411.87 149.64 Q2412.51 148.985 2413.37 148.61 Q2414.26 148.212 2415.25 148.212 Q2416.21 148.212 2417.14 148.469 Q2418.08 148.704 2418.88 149.477 Q2419.7 150.226 2419.7 151.374 Z" fill="#000000" fill-rule="evenodd" fill-opacity="1" /><path clip-path="url(#clip120)" d="M2424.32 180.933 Q2424.32 180.699 2424.92 180.113 Q2432.65 172.243 2432.65 157.417 Q2432.65 142.543 2425.23 135.025 Q2424.32 134.158 2424.32 133.901 Q2424.32 133.432 2424.78 133.432 Q2425.11 133.432 2426.26 134.392 Q2427.43 135.353 2429.19 137.554 Q2430.97 139.756 2432.28 142.45 Q2435.44 148.985 2435.44 157.417 Q2435.44 165.521 2432.42 172.056 Q2431.13 174.796 2429.33 177.092 Q2427.52 179.387 2426.33 180.394 Q2425.14 181.401 2424.78 181.401 Q2424.32 181.401 2424.32 180.933 Z" fill="#000000" fill-rule="evenodd" fill-opacity="1" /><polyline clip-path="url(#clip120)" style="stroke:#e26f46; stroke-linecap:round; stroke-linejoin:round; stroke-width:4; stroke-opacity:1; fill:none" points="
  2122.35,209.375 2288.37,209.375 
  "/>
<path clip-path="url(#clip120)" d="M2316.04 220.617 L2316.04 214.293 Q2316.04 213.754 2316.07 213.566 Q2316.09 213.379 2316.23 213.239 Q2316.37 213.098 2316.65 213.098 Q2316.98 213.098 2317.1 213.239 Q2317.24 213.379 2317.33 213.918 Q2318.06 217.22 2319.6 218.977 Q2321.17 220.71 2324.01 220.71 Q2326.7 220.71 2328.06 219.516 Q2329.42 218.321 2329.42 216.354 Q2329.42 212.84 2324.43 211.95 Q2321.55 211.365 2320.35 210.99 Q2319.16 210.592 2318.1 209.725 Q2316.04 208.039 2316.04 205.65 Q2316.04 203.261 2317.85 201.504 Q2319.67 199.747 2323.7 199.747 Q2326.4 199.747 2328.22 201.106 Q2328.76 200.684 2329.04 200.333 Q2329.67 199.747 2330 199.747 Q2330.38 199.747 2330.45 200.005 Q2330.52 200.239 2330.52 200.918 L2330.52 205.743 Q2330.52 206.282 2330.49 206.469 Q2330.47 206.657 2330.33 206.797 Q2330.19 206.914 2329.89 206.914 Q2329.35 206.914 2329.32 206.469 Q2328.95 200.661 2323.7 200.661 Q2320.87 200.661 2319.6 201.762 Q2318.34 202.839 2318.34 204.315 Q2318.34 205.134 2318.71 205.767 Q2319.11 206.376 2319.6 206.751 Q2320.12 207.102 2321.06 207.453 Q2321.99 207.781 2322.55 207.898 Q2323.14 208.015 2324.24 208.25 Q2328.08 208.976 2329.7 210.545 Q2331.71 212.559 2331.71 215.112 Q2331.71 217.946 2329.79 219.867 Q2327.87 221.788 2324.01 221.788 Q2320.89 221.788 2318.71 219.703 Q2318.43 219.984 2318.22 220.242 Q2318.01 220.476 2317.92 220.57 Q2317.85 220.663 2317.82 220.734 Q2317.8 220.781 2317.75 220.827 Q2316.79 221.788 2316.56 221.788 Q2316.18 221.788 2316.11 221.53 Q2316.04 221.296 2316.04 220.617 Z" fill="#000000" fill-rule="evenodd" fill-opacity="1" /><path clip-path="url(#clip120)" d="M2334.55 210.685 Q2334.55 206.165 2337.45 202.956 Q2340.36 199.747 2344.53 199.747 Q2348.74 199.747 2350.92 202.488 Q2353.12 205.228 2353.12 209.163 Q2353.12 209.889 2352.94 210.03 Q2352.75 210.17 2351.93 210.17 L2338.53 210.17 Q2338.53 215.065 2339.98 217.361 Q2342 220.57 2345.39 220.57 Q2345.86 220.57 2346.42 220.476 Q2346.99 220.382 2348.13 219.984 Q2349.28 219.563 2350.29 218.462 Q2351.3 217.361 2351.88 215.628 Q2352.02 214.948 2352.49 214.972 Q2353.12 214.972 2353.12 215.534 Q2353.12 215.956 2352.66 216.916 Q2352.21 217.853 2351.34 218.977 Q2350.48 220.101 2348.79 220.945 Q2347.13 221.788 2345.11 221.788 Q2340.9 221.788 2337.71 218.602 Q2334.55 215.393 2334.55 210.685 M2338.58 209.163 L2349.96 209.163 Q2349.96 208.156 2349.77 207.032 Q2349.61 205.907 2349.09 204.361 Q2348.6 202.792 2347.43 201.808 Q2346.26 200.825 2344.53 200.825 Q2343.75 200.825 2342.91 201.153 Q2342.09 201.48 2341.08 202.277 Q2340.08 203.073 2339.37 204.877 Q2338.67 206.68 2338.58 209.163 Z" fill="#000000" fill-rule="evenodd" fill-opacity="1" /><path clip-path="url(#clip120)" d="M2354.68 221.249 L2354.68 219.773 Q2357.23 219.773 2357.82 219.469 Q2358.4 219.141 2358.4 217.595 L2358.4 204.736 Q2358.4 202.956 2357.77 202.511 Q2357.16 202.066 2354.68 202.066 L2354.68 200.567 L2361.42 200.052 L2361.42 205.088 Q2363.67 200.052 2368.52 200.052 Q2372.13 200.052 2373.56 201.832 Q2374.61 203.026 2374.82 204.361 Q2375.06 205.697 2375.06 209.163 L2375.06 218.321 Q2375.1 219.328 2375.88 219.563 Q2376.65 219.773 2378.8 219.773 L2378.8 221.249 Q2373.91 221.108 2373.42 221.108 Q2373.04 221.108 2368.01 221.249 L2368.01 219.773 Q2370.56 219.773 2371.14 219.469 Q2371.75 219.141 2371.75 217.595 L2371.75 206.423 Q2371.75 203.987 2371 202.558 Q2370.25 201.106 2368.19 201.106 Q2365.71 201.106 2363.72 203.19 Q2361.73 205.275 2361.73 208.788 L2361.73 217.595 Q2361.73 219.141 2362.31 219.469 Q2362.92 219.773 2365.45 219.773 L2365.45 221.249 Q2360.56 221.108 2360.09 221.108 Q2359.71 221.108 2354.68 221.249 Z" fill="#000000" fill-rule="evenodd" fill-opacity="1" /><path clip-path="url(#clip120)" d="M2381.03 209.257 Q2381.03 201.153 2384.05 194.618 Q2385.34 191.877 2387.15 189.582 Q2388.95 187.286 2390.14 186.279 Q2391.34 185.272 2391.67 185.272 Q2392.13 185.272 2392.16 185.741 Q2392.16 185.975 2391.53 186.56 Q2383.8 194.43 2383.82 209.257 Q2383.82 224.13 2391.34 231.695 Q2392.16 232.515 2392.16 232.773 Q2392.16 233.241 2391.67 233.241 Q2391.34 233.241 2390.19 232.281 Q2389.04 231.321 2387.26 229.119 Q2385.48 226.917 2384.19 224.224 Q2381.03 217.689 2381.03 209.257 Z" fill="#000000" fill-rule="evenodd" fill-opacity="1" /><path clip-path="url(#clip120)" d="M2419.7 203.214 Q2419.7 204.525 2418.88 205.275 Q2418.06 206.001 2417.12 206.001 Q2416.23 206.001 2415.76 205.486 Q2415.29 204.97 2415.29 204.315 Q2415.29 203.425 2415.95 202.652 Q2416.6 201.879 2417.59 201.715 Q2416.63 201.106 2415.2 201.106 Q2414.26 201.106 2413.44 201.598 Q2412.65 202.089 2412.15 202.722 Q2411.69 203.354 2411.26 204.268 Q2410.87 205.158 2410.7 205.697 Q2410.56 206.212 2410.44 206.774 L2408.8 213.332 Q2408.01 216.447 2408.01 217.548 Q2408.01 218.907 2408.66 219.82 Q2409.32 220.71 2410.63 220.71 Q2411.15 220.71 2411.73 220.57 Q2412.32 220.406 2413.07 219.984 Q2413.84 219.539 2414.52 218.883 Q2415.22 218.204 2415.9 217.056 Q2416.58 215.909 2417.03 214.433 Q2417.17 213.918 2417.63 213.918 Q2418.22 213.918 2418.22 214.386 Q2418.22 214.784 2417.89 215.628 Q2417.59 216.447 2416.91 217.525 Q2416.25 218.579 2415.39 219.539 Q2414.52 220.476 2413.23 221.132 Q2411.94 221.788 2410.54 221.788 Q2408.52 221.788 2407.19 220.71 Q2405.85 219.633 2405.36 218.134 Q2405.24 218.345 2405.08 218.626 Q2404.92 218.907 2404.42 219.539 Q2403.96 220.148 2403.42 220.617 Q2402.88 221.062 2402.04 221.413 Q2401.22 221.788 2400.33 221.788 Q2399.2 221.788 2398.19 221.46 Q2397.21 221.132 2396.51 220.382 Q2395.8 219.633 2395.8 218.602 Q2395.8 217.455 2396.58 216.658 Q2397.37 215.838 2398.45 215.838 Q2399.13 215.838 2399.67 216.237 Q2400.23 216.635 2400.23 217.501 Q2400.23 218.462 2399.58 219.188 Q2398.92 219.914 2397.98 220.101 Q2398.94 220.71 2400.37 220.71 Q2401.92 220.71 2403.14 219.352 Q2404.35 217.993 2404.94 215.721 Q2406.39 210.264 2406.95 207.828 Q2407.52 205.369 2407.52 204.315 Q2407.52 203.331 2407.26 202.652 Q2407 201.972 2406.56 201.668 Q2406.13 201.34 2405.74 201.223 Q2405.36 201.106 2404.94 201.106 Q2404.24 201.106 2403.44 201.387 Q2402.67 201.668 2401.73 202.324 Q2400.82 202.956 2399.95 204.268 Q2399.08 205.579 2398.5 207.383 Q2398.38 207.922 2397.87 207.922 Q2397.3 207.898 2397.3 207.43 Q2397.3 207.032 2397.61 206.212 Q2397.94 205.369 2398.59 204.315 Q2399.27 203.261 2400.14 202.324 Q2401.03 201.363 2402.32 200.708 Q2403.63 200.052 2405.03 200.052 Q2405.67 200.052 2406.27 200.192 Q2406.91 200.309 2407.66 200.661 Q2408.43 201.012 2409.11 201.785 Q2409.79 202.558 2410.21 203.682 Q2410.49 203.143 2410.87 202.628 Q2411.26 202.113 2411.87 201.48 Q2412.51 200.825 2413.37 200.45 Q2414.26 200.052 2415.25 200.052 Q2416.21 200.052 2417.14 200.309 Q2418.08 200.544 2418.88 201.317 Q2419.7 202.066 2419.7 203.214 Z" fill="#000000" fill-rule="evenodd" fill-opacity="1" /><path clip-path="url(#clip120)" d="M2437.38 209.842 Q2436.28 209.842 2436.28 209.257 Q2436.28 208.671 2437.43 208.671 Q2437.57 208.671 2437.81 208.695 Q2438.06 208.718 2438.11 208.718 L2451.62 208.718 L2451.62 195.156 Q2451.62 195.11 2451.6 194.899 Q2451.58 194.665 2451.58 194.524 Q2451.58 193.376 2452.14 193.376 Q2452.73 193.376 2452.73 194.524 L2452.73 208.718 L2466.26 208.718 Q2466.31 208.718 2466.54 208.695 Q2466.78 208.671 2466.92 208.671 Q2468.02 208.671 2468.02 209.257 Q2468.04 209.842 2466.87 209.842 Q2466.73 209.842 2466.52 209.819 Q2466.31 209.795 2466.26 209.795 L2452.73 209.795 L2452.73 224.036 Q2452.73 225.137 2452.14 225.137 Q2451.58 225.137 2451.58 223.989 Q2451.58 223.849 2451.6 223.615 Q2451.62 223.404 2451.62 223.357 L2451.62 209.795 L2438.11 209.795 Q2438.06 209.795 2437.78 209.819 Q2437.52 209.842 2437.38 209.842 Z" fill="#000000" fill-rule="evenodd" fill-opacity="1" /><path clip-path="url(#clip120)" d="M2486.55 221.249 Q2486.55 220.382 2486.62 220.125 Q2486.71 219.867 2487.09 219.469 L2496.29 209.21 Q2501.33 203.542 2501.33 198.6 Q2501.33 195.391 2499.64 193.095 Q2497.98 190.8 2494.91 190.8 Q2492.8 190.8 2491.02 192.088 Q2489.24 193.376 2488.42 195.672 Q2488.57 195.625 2489.06 195.625 Q2490.25 195.625 2490.91 196.374 Q2491.59 197.124 2491.59 198.131 Q2491.59 199.419 2490.74 200.052 Q2489.92 200.661 2489.1 200.661 Q2488.78 200.661 2488.33 200.59 Q2487.91 200.52 2487.23 199.864 Q2486.55 199.185 2486.55 197.991 Q2486.55 194.641 2489.08 191.971 Q2491.63 189.301 2495.52 189.301 Q2499.93 189.301 2502.81 191.924 Q2505.71 194.524 2505.71 198.6 Q2505.71 200.028 2505.27 201.34 Q2504.84 202.628 2504.26 203.635 Q2503.7 204.643 2502.15 206.259 Q2500.6 207.875 2499.36 209.023 Q2498.12 210.17 2495.33 212.606 L2490.25 217.548 L2498.89 217.548 Q2503.11 217.548 2503.44 217.174 Q2503.91 216.494 2504.49 212.911 L2505.71 212.911 L2504.35 221.249 L2486.55 221.249 Z" fill="#000000" fill-rule="evenodd" fill-opacity="1" /><path clip-path="url(#clip120)" d="M2511.46 232.773 Q2511.46 232.539 2512.07 231.953 Q2519.8 224.083 2519.8 209.257 Q2519.8 194.383 2512.37 186.865 Q2511.46 185.998 2511.46 185.741 Q2511.46 185.272 2511.93 185.272 Q2512.26 185.272 2513.4 186.232 Q2514.57 187.193 2516.33 189.394 Q2518.11 191.596 2519.42 194.29 Q2522.58 200.825 2522.58 209.257 Q2522.58 217.361 2519.56 223.896 Q2518.28 226.636 2516.47 228.932 Q2514.67 231.227 2513.47 232.234 Q2512.28 233.241 2511.93 233.241 Q2511.46 233.241 2511.46 232.773 Z" fill="#000000" fill-rule="evenodd" fill-opacity="1" /><polyline clip-path="url(#clip120)" style="stroke:#3da44d; stroke-linecap:round; stroke-linejoin:round; stroke-width:4; stroke-opacity:1; fill:none" points="
  2122.35,261.215 2288.37,261.215 
  "/>
<path clip-path="url(#clip120)" d="M2316.04 272.457 L2316.04 266.133 Q2316.04 265.594 2316.07 265.406 Q2316.09 265.219 2316.23 265.079 Q2316.37 264.938 2316.65 264.938 Q2316.98 264.938 2317.1 265.079 Q2317.24 265.219 2317.33 265.758 Q2318.06 269.06 2319.6 270.817 Q2321.17 272.55 2324.01 272.55 Q2326.7 272.55 2328.06 271.356 Q2329.42 270.161 2329.42 268.194 Q2329.42 264.68 2324.43 263.79 Q2321.55 263.205 2320.35 262.83 Q2319.16 262.432 2318.1 261.565 Q2316.04 259.879 2316.04 257.49 Q2316.04 255.101 2317.85 253.344 Q2319.67 251.587 2323.7 251.587 Q2326.4 251.587 2328.22 252.946 Q2328.76 252.524 2329.04 252.173 Q2329.67 251.587 2330 251.587 Q2330.38 251.587 2330.45 251.845 Q2330.52 252.079 2330.52 252.758 L2330.52 257.583 Q2330.52 258.122 2330.49 258.309 Q2330.47 258.497 2330.33 258.637 Q2330.19 258.754 2329.89 258.754 Q2329.35 258.754 2329.32 258.309 Q2328.95 252.501 2323.7 252.501 Q2320.87 252.501 2319.6 253.602 Q2318.34 254.679 2318.34 256.155 Q2318.34 256.974 2318.71 257.607 Q2319.11 258.216 2319.6 258.591 Q2320.12 258.942 2321.06 259.293 Q2321.99 259.621 2322.55 259.738 Q2323.14 259.855 2324.24 260.09 Q2328.08 260.816 2329.7 262.385 Q2331.71 264.399 2331.71 266.952 Q2331.71 269.786 2329.79 271.707 Q2327.87 273.628 2324.01 273.628 Q2320.89 273.628 2318.71 271.543 Q2318.43 271.824 2318.22 272.082 Q2318.01 272.316 2317.92 272.41 Q2317.85 272.503 2317.82 272.574 Q2317.8 272.621 2317.75 272.667 Q2316.79 273.628 2316.56 273.628 Q2316.18 273.628 2316.11 273.37 Q2316.04 273.136 2316.04 272.457 Z" fill="#000000" fill-rule="evenodd" fill-opacity="1" /><path clip-path="url(#clip120)" d="M2334.55 262.525 Q2334.55 258.005 2337.45 254.796 Q2340.36 251.587 2344.53 251.587 Q2348.74 251.587 2350.92 254.328 Q2353.12 257.068 2353.12 261.003 Q2353.12 261.729 2352.94 261.87 Q2352.75 262.01 2351.93 262.01 L2338.53 262.01 Q2338.53 266.905 2339.98 269.201 Q2342 272.41 2345.39 272.41 Q2345.86 272.41 2346.42 272.316 Q2346.99 272.222 2348.13 271.824 Q2349.28 271.403 2350.29 270.302 Q2351.3 269.201 2351.88 267.468 Q2352.02 266.788 2352.49 266.812 Q2353.12 266.812 2353.12 267.374 Q2353.12 267.796 2352.66 268.756 Q2352.21 269.693 2351.34 270.817 Q2350.48 271.941 2348.79 272.785 Q2347.13 273.628 2345.11 273.628 Q2340.9 273.628 2337.71 270.442 Q2334.55 267.233 2334.55 262.525 M2338.58 261.003 L2349.96 261.003 Q2349.96 259.996 2349.77 258.872 Q2349.61 257.747 2349.09 256.201 Q2348.6 254.632 2347.43 253.648 Q2346.26 252.665 2344.53 252.665 Q2343.75 252.665 2342.91 252.993 Q2342.09 253.32 2341.08 254.117 Q2340.08 254.913 2339.37 256.717 Q2338.67 258.52 2338.58 261.003 Z" fill="#000000" fill-rule="evenodd" fill-opacity="1" /><path clip-path="url(#clip120)" d="M2354.68 273.089 L2354.68 271.613 Q2357.23 271.613 2357.82 271.309 Q2358.4 270.981 2358.4 269.435 L2358.4 256.576 Q2358.4 254.796 2357.77 254.351 Q2357.16 253.906 2354.68 253.906 L2354.68 252.407 L2361.42 251.892 L2361.42 256.928 Q2363.67 251.892 2368.52 251.892 Q2372.13 251.892 2373.56 253.672 Q2374.61 254.866 2374.82 256.201 Q2375.06 257.537 2375.06 261.003 L2375.06 270.161 Q2375.1 271.168 2375.88 271.403 Q2376.65 271.613 2378.8 271.613 L2378.8 273.089 Q2373.91 272.948 2373.42 272.948 Q2373.04 272.948 2368.01 273.089 L2368.01 271.613 Q2370.56 271.613 2371.14 271.309 Q2371.75 270.981 2371.75 269.435 L2371.75 258.263 Q2371.75 255.827 2371 254.398 Q2370.25 252.946 2368.19 252.946 Q2365.71 252.946 2363.72 255.03 Q2361.73 257.115 2361.73 260.628 L2361.73 269.435 Q2361.73 270.981 2362.31 271.309 Q2362.92 271.613 2365.45 271.613 L2365.45 273.089 Q2360.56 272.948 2360.09 272.948 Q2359.71 272.948 2354.68 273.089 Z" fill="#000000" fill-rule="evenodd" fill-opacity="1" /><path clip-path="url(#clip120)" d="M2381.03 261.097 Q2381.03 252.993 2384.05 246.458 Q2385.34 243.717 2387.15 241.422 Q2388.95 239.126 2390.14 238.119 Q2391.34 237.112 2391.67 237.112 Q2392.13 237.112 2392.16 237.581 Q2392.16 237.815 2391.53 238.4 Q2383.8 246.27 2383.82 261.097 Q2383.82 275.97 2391.34 283.535 Q2392.16 284.355 2392.16 284.613 Q2392.16 285.081 2391.67 285.081 Q2391.34 285.081 2390.19 284.121 Q2389.04 283.161 2387.26 280.959 Q2385.48 278.757 2384.19 276.064 Q2381.03 269.529 2381.03 261.097 Z" fill="#000000" fill-rule="evenodd" fill-opacity="1" /><path clip-path="url(#clip120)" d="M2419.7 255.054 Q2419.7 256.365 2418.88 257.115 Q2418.06 257.841 2417.12 257.841 Q2416.23 257.841 2415.76 257.326 Q2415.29 256.81 2415.29 256.155 Q2415.29 255.265 2415.95 254.492 Q2416.6 253.719 2417.59 253.555 Q2416.63 252.946 2415.2 252.946 Q2414.26 252.946 2413.44 253.438 Q2412.65 253.929 2412.15 254.562 Q2411.69 255.194 2411.26 256.108 Q2410.87 256.998 2410.7 257.537 Q2410.56 258.052 2410.44 258.614 L2408.8 265.172 Q2408.01 268.287 2408.01 269.388 Q2408.01 270.747 2408.66 271.66 Q2409.32 272.55 2410.63 272.55 Q2411.15 272.55 2411.73 272.41 Q2412.32 272.246 2413.07 271.824 Q2413.84 271.379 2414.52 270.723 Q2415.22 270.044 2415.9 268.896 Q2416.58 267.749 2417.03 266.273 Q2417.17 265.758 2417.63 265.758 Q2418.22 265.758 2418.22 266.226 Q2418.22 266.624 2417.89 267.468 Q2417.59 268.287 2416.91 269.365 Q2416.25 270.419 2415.39 271.379 Q2414.52 272.316 2413.23 272.972 Q2411.94 273.628 2410.54 273.628 Q2408.52 273.628 2407.19 272.55 Q2405.85 271.473 2405.36 269.974 Q2405.24 270.185 2405.08 270.466 Q2404.92 270.747 2404.42 271.379 Q2403.96 271.988 2403.42 272.457 Q2402.88 272.902 2402.04 273.253 Q2401.22 273.628 2400.33 273.628 Q2399.2 273.628 2398.19 273.3 Q2397.21 272.972 2396.51 272.222 Q2395.8 271.473 2395.8 270.442 Q2395.8 269.295 2396.58 268.498 Q2397.37 267.678 2398.45 267.678 Q2399.13 267.678 2399.67 268.077 Q2400.23 268.475 2400.23 269.341 Q2400.23 270.302 2399.58 271.028 Q2398.92 271.754 2397.98 271.941 Q2398.94 272.55 2400.37 272.55 Q2401.92 272.55 2403.14 271.192 Q2404.35 269.833 2404.94 267.561 Q2406.39 262.104 2406.95 259.668 Q2407.52 257.209 2407.52 256.155 Q2407.52 255.171 2407.26 254.492 Q2407 253.812 2406.56 253.508 Q2406.13 253.18 2405.74 253.063 Q2405.36 252.946 2404.94 252.946 Q2404.24 252.946 2403.44 253.227 Q2402.67 253.508 2401.73 254.164 Q2400.82 254.796 2399.95 256.108 Q2399.08 257.419 2398.5 259.223 Q2398.38 259.762 2397.87 259.762 Q2397.3 259.738 2397.3 259.27 Q2397.3 258.872 2397.61 258.052 Q2397.94 257.209 2398.59 256.155 Q2399.27 255.101 2400.14 254.164 Q2401.03 253.203 2402.32 252.548 Q2403.63 251.892 2405.03 251.892 Q2405.67 251.892 2406.27 252.032 Q2406.91 252.149 2407.66 252.501 Q2408.43 252.852 2409.11 253.625 Q2409.79 254.398 2410.21 255.522 Q2410.49 254.983 2410.87 254.468 Q2411.26 253.953 2411.87 253.32 Q2412.51 252.665 2413.37 252.29 Q2414.26 251.892 2415.25 251.892 Q2416.21 251.892 2417.14 252.149 Q2418.08 252.384 2418.88 253.157 Q2419.7 253.906 2419.7 255.054 Z" fill="#000000" fill-rule="evenodd" fill-opacity="1" /><path clip-path="url(#clip120)" d="M2424.32 284.613 Q2424.32 284.379 2424.92 283.793 Q2432.65 275.923 2432.65 261.097 Q2432.65 246.223 2425.23 238.705 Q2424.32 237.838 2424.32 237.581 Q2424.32 237.112 2424.78 237.112 Q2425.11 237.112 2426.26 238.072 Q2427.43 239.033 2429.19 241.234 Q2430.97 243.436 2432.28 246.13 Q2435.44 252.665 2435.44 261.097 Q2435.44 269.201 2432.42 275.736 Q2431.13 278.476 2429.33 280.772 Q2427.52 283.067 2426.33 284.074 Q2425.14 285.081 2424.78 285.081 Q2424.32 285.081 2424.32 284.613 Z" fill="#000000" fill-rule="evenodd" fill-opacity="1" /><path clip-path="url(#clip120)" d="M2457.15 261.682 Q2456.05 261.682 2456.05 261.097 Q2456.05 260.511 2457.19 260.511 Q2457.34 260.511 2457.57 260.535 Q2457.83 260.558 2457.87 260.558 L2471.39 260.558 L2471.39 246.996 Q2471.39 246.95 2471.37 246.739 Q2471.34 246.505 2471.34 246.364 Q2471.34 245.216 2471.9 245.216 Q2472.49 245.216 2472.49 246.364 L2472.49 260.558 L2486.03 260.558 Q2486.07 260.558 2486.31 260.535 Q2486.54 260.511 2486.68 260.511 Q2487.78 260.511 2487.78 261.097 Q2487.81 261.682 2486.64 261.682 Q2486.5 261.682 2486.29 261.659 Q2486.07 261.635 2486.03 261.635 L2472.49 261.635 L2472.49 275.876 Q2472.49 276.977 2471.9 276.977 Q2471.34 276.977 2471.34 275.829 Q2471.34 275.689 2471.37 275.455 Q2471.39 275.244 2471.39 275.197 L2471.39 261.635 L2457.87 261.635 Q2457.83 261.635 2457.55 261.659 Q2457.29 261.682 2457.15 261.682 Z" fill="#000000" fill-rule="evenodd" fill-opacity="1" /><path clip-path="url(#clip120)" d="M2506.32 273.089 Q2506.32 272.222 2506.39 271.965 Q2506.48 271.707 2506.85 271.309 L2516.06 261.05 Q2521.09 255.382 2521.09 250.44 Q2521.09 247.231 2519.41 244.935 Q2517.75 242.64 2514.68 242.64 Q2512.57 242.64 2510.79 243.928 Q2509.01 245.216 2508.19 247.512 Q2508.33 247.465 2508.82 247.465 Q2510.02 247.465 2510.67 248.214 Q2511.35 248.964 2511.35 249.971 Q2511.35 251.259 2510.51 251.892 Q2509.69 252.501 2508.87 252.501 Q2508.54 252.501 2508.1 252.43 Q2507.67 252.36 2506.99 251.704 Q2506.32 251.025 2506.32 249.831 Q2506.32 246.481 2508.84 243.811 Q2511.4 241.141 2515.29 241.141 Q2519.69 241.141 2522.57 243.764 Q2525.47 246.364 2525.47 250.44 Q2525.47 251.868 2525.03 253.18 Q2524.61 254.468 2524.02 255.475 Q2523.46 256.483 2521.91 258.099 Q2520.37 259.715 2519.13 260.863 Q2517.89 262.01 2515.1 264.446 L2510.02 269.388 L2518.66 269.388 Q2522.87 269.388 2523.2 269.014 Q2523.67 268.334 2524.26 264.751 L2525.47 264.751 L2524.12 273.089 L2506.32 273.089 Z" fill="#000000" fill-rule="evenodd" fill-opacity="1" /><polyline clip-path="url(#clip120)" style="stroke:#c271d2; stroke-linecap:round; stroke-linejoin:round; stroke-width:4; stroke-opacity:1; fill:none" points="
  2122.35,313.055 2288.37,313.055 
  "/>
<path clip-path="url(#clip120)" d="M2316.04 324.297 L2316.04 317.973 Q2316.04 317.434 2316.07 317.246 Q2316.09 317.059 2316.23 316.919 Q2316.37 316.778 2316.65 316.778 Q2316.98 316.778 2317.1 316.919 Q2317.24 317.059 2317.33 317.598 Q2318.06 320.9 2319.6 322.657 Q2321.17 324.39 2324.01 324.39 Q2326.7 324.39 2328.06 323.196 Q2329.42 322.001 2329.42 320.034 Q2329.42 316.52 2324.43 315.63 Q2321.55 315.045 2320.35 314.67 Q2319.16 314.272 2318.1 313.405 Q2316.04 311.719 2316.04 309.33 Q2316.04 306.941 2317.85 305.184 Q2319.67 303.427 2323.7 303.427 Q2326.4 303.427 2328.22 304.786 Q2328.76 304.364 2329.04 304.013 Q2329.67 303.427 2330 303.427 Q2330.38 303.427 2330.45 303.685 Q2330.52 303.919 2330.52 304.598 L2330.52 309.423 Q2330.52 309.962 2330.49 310.149 Q2330.47 310.337 2330.33 310.477 Q2330.19 310.594 2329.89 310.594 Q2329.35 310.594 2329.32 310.149 Q2328.95 304.341 2323.7 304.341 Q2320.87 304.341 2319.6 305.442 Q2318.34 306.519 2318.34 307.995 Q2318.34 308.814 2318.71 309.447 Q2319.11 310.056 2319.6 310.431 Q2320.12 310.782 2321.06 311.133 Q2321.99 311.461 2322.55 311.578 Q2323.14 311.695 2324.24 311.93 Q2328.08 312.656 2329.7 314.225 Q2331.71 316.239 2331.71 318.792 Q2331.71 321.626 2329.79 323.547 Q2327.87 325.468 2324.01 325.468 Q2320.89 325.468 2318.71 323.383 Q2318.43 323.664 2318.22 323.922 Q2318.01 324.156 2317.92 324.25 Q2317.85 324.343 2317.82 324.414 Q2317.8 324.461 2317.75 324.507 Q2316.79 325.468 2316.56 325.468 Q2316.18 325.468 2316.11 325.21 Q2316.04 324.976 2316.04 324.297 Z" fill="#000000" fill-rule="evenodd" fill-opacity="1" /><path clip-path="url(#clip120)" d="M2334.55 314.365 Q2334.55 309.845 2337.45 306.636 Q2340.36 303.427 2344.53 303.427 Q2348.74 303.427 2350.92 306.168 Q2353.12 308.908 2353.12 312.843 Q2353.12 313.569 2352.94 313.71 Q2352.75 313.85 2351.93 313.85 L2338.53 313.85 Q2338.53 318.745 2339.98 321.041 Q2342 324.25 2345.39 324.25 Q2345.86 324.25 2346.42 324.156 Q2346.99 324.062 2348.13 323.664 Q2349.28 323.243 2350.29 322.142 Q2351.3 321.041 2351.88 319.308 Q2352.02 318.628 2352.49 318.652 Q2353.12 318.652 2353.12 319.214 Q2353.12 319.636 2352.66 320.596 Q2352.21 321.533 2351.34 322.657 Q2350.48 323.781 2348.79 324.625 Q2347.13 325.468 2345.11 325.468 Q2340.9 325.468 2337.71 322.282 Q2334.55 319.073 2334.55 314.365 M2338.58 312.843 L2349.96 312.843 Q2349.96 311.836 2349.77 310.712 Q2349.61 309.587 2349.09 308.041 Q2348.6 306.472 2347.43 305.488 Q2346.26 304.505 2344.53 304.505 Q2343.75 304.505 2342.91 304.833 Q2342.09 305.16 2341.08 305.957 Q2340.08 306.753 2339.37 308.557 Q2338.67 310.36 2338.58 312.843 Z" fill="#000000" fill-rule="evenodd" fill-opacity="1" /><path clip-path="url(#clip120)" d="M2354.68 324.929 L2354.68 323.453 Q2357.23 323.453 2357.82 323.149 Q2358.4 322.821 2358.4 321.275 L2358.4 308.416 Q2358.4 306.636 2357.77 306.191 Q2357.16 305.746 2354.68 305.746 L2354.68 304.247 L2361.42 303.732 L2361.42 308.768 Q2363.67 303.732 2368.52 303.732 Q2372.13 303.732 2373.56 305.512 Q2374.61 306.706 2374.82 308.041 Q2375.06 309.377 2375.06 312.843 L2375.06 322.001 Q2375.1 323.008 2375.88 323.243 Q2376.65 323.453 2378.8 323.453 L2378.8 324.929 Q2373.91 324.788 2373.42 324.788 Q2373.04 324.788 2368.01 324.929 L2368.01 323.453 Q2370.56 323.453 2371.14 323.149 Q2371.75 322.821 2371.75 321.275 L2371.75 310.103 Q2371.75 307.667 2371 306.238 Q2370.25 304.786 2368.19 304.786 Q2365.71 304.786 2363.72 306.87 Q2361.73 308.955 2361.73 312.468 L2361.73 321.275 Q2361.73 322.821 2362.31 323.149 Q2362.92 323.453 2365.45 323.453 L2365.45 324.929 Q2360.56 324.788 2360.09 324.788 Q2359.71 324.788 2354.68 324.929 Z" fill="#000000" fill-rule="evenodd" fill-opacity="1" /><path clip-path="url(#clip120)" d="M2381.03 312.937 Q2381.03 304.833 2384.05 298.298 Q2385.34 295.557 2387.15 293.262 Q2388.95 290.966 2390.14 289.959 Q2391.34 288.952 2391.67 288.952 Q2392.13 288.952 2392.16 289.421 Q2392.16 289.655 2391.53 290.24 Q2383.8 298.11 2383.82 312.937 Q2383.82 327.81 2391.34 335.375 Q2392.16 336.195 2392.16 336.453 Q2392.16 336.921 2391.67 336.921 Q2391.34 336.921 2390.19 335.961 Q2389.04 335.001 2387.26 332.799 Q2385.48 330.597 2384.19 327.904 Q2381.03 321.369 2381.03 312.937 Z" fill="#000000" fill-rule="evenodd" fill-opacity="1" /><path clip-path="url(#clip120)" d="M2396.76 324.929 Q2396.76 324.062 2396.84 323.805 Q2396.93 323.547 2397.3 323.149 L2406.51 312.89 Q2411.54 307.222 2411.54 302.28 Q2411.54 299.071 2409.86 296.775 Q2408.19 294.48 2405.13 294.48 Q2403.02 294.48 2401.24 295.768 Q2399.46 297.056 2398.64 299.352 Q2398.78 299.305 2399.27 299.305 Q2400.47 299.305 2401.12 300.054 Q2401.8 300.804 2401.8 301.811 Q2401.8 303.099 2400.96 303.732 Q2400.14 304.341 2399.32 304.341 Q2398.99 304.341 2398.54 304.27 Q2398.12 304.2 2397.44 303.544 Q2396.76 302.865 2396.76 301.671 Q2396.76 298.321 2399.29 295.651 Q2401.85 292.981 2405.74 292.981 Q2410.14 292.981 2413.02 295.604 Q2415.92 298.204 2415.92 302.28 Q2415.92 303.708 2415.48 305.02 Q2415.06 306.308 2414.47 307.315 Q2413.91 308.323 2412.36 309.939 Q2410.82 311.555 2409.58 312.703 Q2408.34 313.85 2405.55 316.286 L2400.47 321.228 L2409.11 321.228 Q2413.32 321.228 2413.65 320.854 Q2414.12 320.174 2414.71 316.591 L2415.92 316.591 L2414.57 324.929 L2396.76 324.929 Z" fill="#000000" fill-rule="evenodd" fill-opacity="1" /><path clip-path="url(#clip120)" d="M2443.64 306.894 Q2443.64 308.205 2442.82 308.955 Q2442 309.681 2441.07 309.681 Q2440.18 309.681 2439.71 309.166 Q2439.24 308.65 2439.24 307.995 Q2439.24 307.105 2439.9 306.332 Q2440.55 305.559 2441.54 305.395 Q2440.58 304.786 2439.15 304.786 Q2438.21 304.786 2437.39 305.278 Q2436.59 305.769 2436.1 306.402 Q2435.63 307.034 2435.21 307.948 Q2434.81 308.838 2434.65 309.377 Q2434.51 309.892 2434.39 310.454 L2432.75 317.012 Q2431.96 320.127 2431.96 321.228 Q2431.96 322.587 2432.61 323.5 Q2433.27 324.39 2434.58 324.39 Q2435.09 324.39 2435.68 324.25 Q2436.27 324.086 2437.02 323.664 Q2437.79 323.219 2438.47 322.563 Q2439.17 321.884 2439.85 320.736 Q2440.53 319.589 2440.97 318.113 Q2441.11 317.598 2441.58 317.598 Q2442.17 317.598 2442.17 318.066 Q2442.17 318.464 2441.84 319.308 Q2441.54 320.127 2440.86 321.205 Q2440.2 322.259 2439.33 323.219 Q2438.47 324.156 2437.18 324.812 Q2435.89 325.468 2434.49 325.468 Q2432.47 325.468 2431.14 324.39 Q2429.8 323.313 2429.31 321.814 Q2429.19 322.025 2429.03 322.306 Q2428.86 322.587 2428.37 323.219 Q2427.9 323.828 2427.37 324.297 Q2426.83 324.742 2425.98 325.093 Q2425.16 325.468 2424.27 325.468 Q2423.15 325.468 2422.14 325.14 Q2421.16 324.812 2420.46 324.062 Q2419.75 323.313 2419.75 322.282 Q2419.75 321.135 2420.53 320.338 Q2421.32 319.518 2422.4 319.518 Q2423.08 319.518 2423.62 319.917 Q2424.18 320.315 2424.18 321.181 Q2424.18 322.142 2423.52 322.868 Q2422.87 323.594 2421.93 323.781 Q2422.89 324.39 2424.32 324.39 Q2425.87 324.39 2427.08 323.032 Q2428.3 321.673 2428.89 319.401 Q2430.34 313.944 2430.9 311.508 Q2431.46 309.049 2431.46 307.995 Q2431.46 307.011 2431.21 306.332 Q2430.95 305.652 2430.5 305.348 Q2430.08 305.02 2429.68 304.903 Q2429.31 304.786 2428.89 304.786 Q2428.19 304.786 2427.39 305.067 Q2426.62 305.348 2425.68 306.004 Q2424.77 306.636 2423.9 307.948 Q2423.03 309.259 2422.45 311.063 Q2422.33 311.602 2421.81 311.602 Q2421.25 311.578 2421.25 311.11 Q2421.25 310.712 2421.56 309.892 Q2421.88 309.049 2422.54 307.995 Q2423.22 306.941 2424.09 306.004 Q2424.98 305.043 2426.26 304.388 Q2427.58 303.732 2428.98 303.732 Q2429.61 303.732 2430.22 303.872 Q2430.86 303.989 2431.6 304.341 Q2432.38 304.692 2433.06 305.465 Q2433.74 306.238 2434.16 307.362 Q2434.44 306.823 2434.81 306.308 Q2435.21 305.793 2435.82 305.16 Q2436.45 304.505 2437.32 304.13 Q2438.21 303.732 2439.19 303.732 Q2440.15 303.732 2441.09 303.989 Q2442.03 304.224 2442.82 304.997 Q2443.64 305.746 2443.64 306.894 Z" fill="#000000" fill-rule="evenodd" fill-opacity="1" /><path clip-path="url(#clip120)" d="M2448.26 336.453 Q2448.26 336.219 2448.87 335.633 Q2456.6 327.763 2456.6 312.937 Q2456.6 298.063 2449.18 290.545 Q2448.26 289.678 2448.26 289.421 Q2448.26 288.952 2448.73 288.952 Q2449.06 288.952 2450.21 289.912 Q2451.38 290.873 2453.14 293.074 Q2454.92 295.276 2456.23 297.97 Q2459.39 304.505 2459.39 312.937 Q2459.39 321.041 2456.37 327.576 Q2455.08 330.316 2453.28 332.612 Q2451.47 334.907 2450.28 335.914 Q2449.08 336.921 2448.73 336.921 Q2448.26 336.921 2448.26 336.453 Z" fill="#000000" fill-rule="evenodd" fill-opacity="1" /><polyline clip-path="url(#clip120)" style="stroke:#ac8d18; stroke-linecap:round; stroke-linejoin:round; stroke-width:4; stroke-opacity:1; fill:none" points="
  2122.35,364.895 2288.37,364.895 
  "/>
<path clip-path="url(#clip120)" d="M2316.04 376.769 Q2316.04 375.902 2316.11 375.645 Q2316.21 375.387 2316.58 374.989 L2325.79 364.73 Q2330.82 359.062 2330.82 354.12 Q2330.82 350.911 2329.14 348.615 Q2327.47 346.32 2324.4 346.32 Q2322.3 346.32 2320.52 347.608 Q2318.74 348.896 2317.92 351.192 Q2318.06 351.145 2318.55 351.145 Q2319.74 351.145 2320.4 351.894 Q2321.08 352.644 2321.08 353.651 Q2321.08 354.939 2320.24 355.572 Q2319.42 356.181 2318.6 356.181 Q2318.27 356.181 2317.82 356.11 Q2317.4 356.04 2316.72 355.384 Q2316.04 354.705 2316.04 353.511 Q2316.04 350.161 2318.57 347.491 Q2321.13 344.821 2325.01 344.821 Q2329.42 344.821 2332.3 347.444 Q2335.2 350.044 2335.2 354.12 Q2335.2 355.548 2334.76 356.86 Q2334.34 358.148 2333.75 359.155 Q2333.19 360.163 2331.64 361.779 Q2330.1 363.395 2328.85 364.543 Q2327.61 365.69 2324.83 368.126 L2319.74 373.068 L2328.39 373.068 Q2332.6 373.068 2332.93 372.694 Q2333.4 372.014 2333.98 368.431 L2335.2 368.431 L2333.84 376.769 L2316.04 376.769 Z" fill="#000000" fill-rule="evenodd" fill-opacity="1" /><path clip-path="url(#clip120)" d="M2339.8 376.137 L2339.8 369.813 Q2339.8 369.274 2339.82 369.086 Q2339.85 368.899 2339.99 368.759 Q2340.13 368.618 2340.41 368.618 Q2340.74 368.618 2340.85 368.759 Q2340.99 368.899 2341.09 369.438 Q2341.81 372.74 2343.36 374.497 Q2344.93 376.23 2347.76 376.23 Q2350.46 376.23 2351.81 375.036 Q2353.17 373.841 2353.17 371.874 Q2353.17 368.36 2348.18 367.47 Q2345.3 366.885 2344.11 366.51 Q2342.91 366.112 2341.86 365.245 Q2339.8 363.559 2339.8 361.17 Q2339.8 358.781 2341.6 357.024 Q2343.43 355.267 2347.46 355.267 Q2350.15 355.267 2351.98 356.626 Q2352.52 356.204 2352.8 355.853 Q2353.43 355.267 2353.76 355.267 Q2354.13 355.267 2354.2 355.525 Q2354.27 355.759 2354.27 356.438 L2354.27 361.263 Q2354.27 361.802 2354.25 361.989 Q2354.23 362.177 2354.09 362.317 Q2353.95 362.434 2353.64 362.434 Q2353.1 362.434 2353.08 361.989 Q2352.7 356.181 2347.46 356.181 Q2344.62 356.181 2343.36 357.282 Q2342.09 358.359 2342.09 359.835 Q2342.09 360.654 2342.47 361.287 Q2342.87 361.896 2343.36 362.271 Q2343.87 362.622 2344.81 362.973 Q2345.75 363.301 2346.31 363.418 Q2346.9 363.535 2348 363.77 Q2351.84 364.496 2353.45 366.065 Q2355.47 368.079 2355.47 370.632 Q2355.47 373.466 2353.55 375.387 Q2351.63 377.308 2347.76 377.308 Q2344.65 377.308 2342.47 375.223 Q2342.19 375.504 2341.98 375.762 Q2341.77 375.996 2341.67 376.09 Q2341.6 376.183 2341.58 376.254 Q2341.56 376.301 2341.51 376.347 Q2340.55 377.308 2340.31 377.308 Q2339.94 377.308 2339.87 377.05 Q2339.8 376.816 2339.8 376.137 Z" fill="#000000" fill-rule="evenodd" fill-opacity="1" /><path clip-path="url(#clip120)" d="M2358.31 366.205 Q2358.31 361.685 2361.21 358.476 Q2364.11 355.267 2368.28 355.267 Q2372.5 355.267 2374.68 358.008 Q2376.88 360.748 2376.88 364.683 Q2376.88 365.409 2376.69 365.55 Q2376.51 365.69 2375.69 365.69 L2362.29 365.69 Q2362.29 370.585 2363.74 372.881 Q2365.75 376.09 2369.15 376.09 Q2369.62 376.09 2370.18 375.996 Q2370.74 375.902 2371.89 375.504 Q2373.04 375.083 2374.05 373.982 Q2375.05 372.881 2375.64 371.148 Q2375.78 370.468 2376.25 370.492 Q2376.88 370.492 2376.88 371.054 Q2376.88 371.476 2376.41 372.436 Q2375.97 373.373 2375.1 374.497 Q2374.23 375.621 2372.55 376.465 Q2370.88 377.308 2368.87 377.308 Q2364.65 377.308 2361.47 374.122 Q2358.31 370.913 2358.31 366.205 M2362.33 364.683 L2373.72 364.683 Q2373.72 363.676 2373.53 362.552 Q2373.37 361.427 2372.85 359.881 Q2372.36 358.312 2371.19 357.328 Q2370.02 356.345 2368.28 356.345 Q2367.51 356.345 2366.67 356.673 Q2365.85 357 2364.84 357.797 Q2363.83 358.593 2363.13 360.397 Q2362.43 362.2 2362.33 364.683 Z" fill="#000000" fill-rule="evenodd" fill-opacity="1" /><path clip-path="url(#clip120)" d="M2378.43 376.769 L2378.43 375.293 Q2380.99 375.293 2381.57 374.989 Q2382.16 374.661 2382.16 373.115 L2382.16 360.256 Q2382.16 358.476 2381.53 358.031 Q2380.92 357.586 2378.43 357.586 L2378.43 356.087 L2385.18 355.572 L2385.18 360.608 Q2387.43 355.572 2392.28 355.572 Q2395.88 355.572 2397.31 357.352 Q2398.37 358.546 2398.58 359.881 Q2398.81 361.217 2398.81 364.683 L2398.81 373.841 Q2398.86 374.848 2399.63 375.083 Q2400.4 375.293 2402.56 375.293 L2402.56 376.769 Q2397.66 376.628 2397.17 376.628 Q2396.8 376.628 2391.76 376.769 L2391.76 375.293 Q2394.31 375.293 2394.9 374.989 Q2395.51 374.661 2395.51 373.115 L2395.51 361.943 Q2395.51 359.507 2394.76 358.078 Q2394.01 356.626 2391.95 356.626 Q2389.47 356.626 2387.48 358.71 Q2385.48 360.795 2385.48 364.308 L2385.48 373.115 Q2385.48 374.661 2386.07 374.989 Q2386.68 375.293 2389.21 375.293 L2389.21 376.769 Q2384.31 376.628 2383.84 376.628 Q2383.47 376.628 2378.43 376.769 Z" fill="#000000" fill-rule="evenodd" fill-opacity="1" /><path clip-path="url(#clip120)" d="M2404.79 364.777 Q2404.79 356.673 2407.81 350.138 Q2409.1 347.397 2410.9 345.102 Q2412.71 342.806 2413.9 341.799 Q2415.09 340.792 2415.42 340.792 Q2415.89 340.792 2415.91 341.261 Q2415.91 341.495 2415.28 342.08 Q2407.55 349.95 2407.58 364.777 Q2407.58 379.65 2415.09 387.215 Q2415.91 388.035 2415.91 388.293 Q2415.91 388.761 2415.42 388.761 Q2415.09 388.761 2413.95 387.801 Q2412.8 386.841 2411.02 384.639 Q2409.24 382.437 2407.95 379.744 Q2404.79 373.209 2404.79 364.777 Z" fill="#000000" fill-rule="evenodd" fill-opacity="1" /><path clip-path="url(#clip120)" d="M2443.45 358.734 Q2443.45 360.045 2442.63 360.795 Q2441.81 361.521 2440.88 361.521 Q2439.99 361.521 2439.52 361.006 Q2439.05 360.49 2439.05 359.835 Q2439.05 358.945 2439.7 358.172 Q2440.36 357.399 2441.34 357.235 Q2440.38 356.626 2438.95 356.626 Q2438.02 356.626 2437.2 357.118 Q2436.4 357.609 2435.91 358.242 Q2435.44 358.874 2435.02 359.788 Q2434.62 360.678 2434.46 361.217 Q2434.32 361.732 2434.2 362.294 L2432.56 368.852 Q2431.76 371.967 2431.76 373.068 Q2431.76 374.427 2432.42 375.34 Q2433.08 376.23 2434.39 376.23 Q2434.9 376.23 2435.49 376.09 Q2436.07 375.926 2436.82 375.504 Q2437.6 375.059 2438.28 374.403 Q2438.98 373.724 2439.66 372.576 Q2440.34 371.429 2440.78 369.953 Q2440.92 369.438 2441.39 369.438 Q2441.98 369.438 2441.98 369.906 Q2441.98 370.304 2441.65 371.148 Q2441.34 371.967 2440.66 373.045 Q2440.01 374.099 2439.14 375.059 Q2438.28 375.996 2436.99 376.652 Q2435.7 377.308 2434.29 377.308 Q2432.28 377.308 2430.94 376.23 Q2429.61 375.153 2429.12 373.654 Q2429 373.865 2428.84 374.146 Q2428.67 374.427 2428.18 375.059 Q2427.71 375.668 2427.17 376.137 Q2426.63 376.582 2425.79 376.933 Q2424.97 377.308 2424.08 377.308 Q2422.96 377.308 2421.95 376.98 Q2420.97 376.652 2420.26 375.902 Q2419.56 375.153 2419.56 374.122 Q2419.56 372.975 2420.33 372.178 Q2421.13 371.358 2422.21 371.358 Q2422.89 371.358 2423.43 371.757 Q2423.99 372.155 2423.99 373.021 Q2423.99 373.982 2423.33 374.708 Q2422.68 375.434 2421.74 375.621 Q2422.7 376.23 2424.13 376.23 Q2425.67 376.23 2426.89 374.872 Q2428.11 373.513 2428.7 371.241 Q2430.15 365.784 2430.71 363.348 Q2431.27 360.889 2431.27 359.835 Q2431.27 358.851 2431.01 358.172 Q2430.76 357.492 2430.31 357.188 Q2429.89 356.86 2429.49 356.743 Q2429.12 356.626 2428.7 356.626 Q2427.99 356.626 2427.2 356.907 Q2426.42 357.188 2425.49 357.844 Q2424.57 358.476 2423.71 359.788 Q2422.84 361.099 2422.25 362.903 Q2422.14 363.442 2421.62 363.442 Q2421.06 363.418 2421.06 362.95 Q2421.06 362.552 2421.36 361.732 Q2421.69 360.889 2422.35 359.835 Q2423.03 358.781 2423.89 357.844 Q2424.78 356.883 2426.07 356.228 Q2427.38 355.572 2428.79 355.572 Q2429.42 355.572 2430.03 355.712 Q2430.66 355.829 2431.41 356.181 Q2432.19 356.532 2432.87 357.305 Q2433.54 358.078 2433.97 359.202 Q2434.25 358.663 2434.62 358.148 Q2435.02 357.633 2435.63 357 Q2436.26 356.345 2437.13 355.97 Q2438.02 355.572 2439 355.572 Q2439.96 355.572 2440.9 355.829 Q2441.84 356.064 2442.63 356.837 Q2443.45 357.586 2443.45 358.734 Z" fill="#000000" fill-rule="evenodd" fill-opacity="1" /><path clip-path="url(#clip120)" d="M2448.07 388.293 Q2448.07 388.059 2448.68 387.473 Q2456.41 379.603 2456.41 364.777 Q2456.41 349.903 2448.99 342.385 Q2448.07 341.518 2448.07 341.261 Q2448.07 340.792 2448.54 340.792 Q2448.87 340.792 2450.02 341.752 Q2451.19 342.713 2452.94 344.914 Q2454.72 347.116 2456.04 349.81 Q2459.2 356.345 2459.2 364.777 Q2459.2 372.881 2456.18 379.416 Q2454.89 382.156 2453.08 384.452 Q2451.28 386.747 2450.09 387.754 Q2448.89 388.761 2448.54 388.761 Q2448.07 388.761 2448.07 388.293 Z" fill="#000000" fill-rule="evenodd" fill-opacity="1" /></svg>
