<?xml version="1.0" encoding="utf-8"?>
<svg xmlns="http://www.w3.org/2000/svg" xmlns:xlink="http://www.w3.org/1999/xlink" width="672" height="480" viewBox="0 0 2688 1920">
<defs>
  <clipPath id="clip740">
    <rect x="0" y="0" width="2688" height="1920"/>
  </clipPath>
</defs>
<path clip-path="url(#clip740)" d="
M0 1920 L2688 1920 L2688 0 L0 0  Z
  " fill="#ffffff" fill-rule="evenodd" fill-opacity="1"/>
<defs>
  <clipPath id="clip741">
    <rect x="537" y="0" width="1883" height="1883"/>
  </clipPath>
</defs>
<path clip-path="url(#clip740)" d="
M255.816 1734.12 L2640.76 1734.12 L2640.76 47.2441 L255.816 47.2441  Z
  " fill="#ffffff" fill-rule="evenodd" fill-opacity="1"/>
<defs>
  <clipPath id="clip742">
    <rect x="255" y="47" width="2386" height="1688"/>
  </clipPath>
</defs>
<polyline clip-path="url(#clip742)" style="stroke:#000000; stroke-linecap:round; stroke-linejoin:round; stroke-width:2; stroke-opacity:0.1; fill:none" points="
  323.315,1734.12 323.315,47.2441 
  "/>
<polyline clip-path="url(#clip742)" style="stroke:#000000; stroke-linecap:round; stroke-linejoin:round; stroke-width:2; stroke-opacity:0.1; fill:none" points="
  773.303,1734.12 773.303,47.2441 
  "/>
<polyline clip-path="url(#clip742)" style="stroke:#000000; stroke-linecap:round; stroke-linejoin:round; stroke-width:2; stroke-opacity:0.1; fill:none" points="
  1223.29,1734.12 1223.29,47.2441 
  "/>
<polyline clip-path="url(#clip742)" style="stroke:#000000; stroke-linecap:round; stroke-linejoin:round; stroke-width:2; stroke-opacity:0.1; fill:none" points="
  1673.28,1734.12 1673.28,47.2441 
  "/>
<polyline clip-path="url(#clip742)" style="stroke:#000000; stroke-linecap:round; stroke-linejoin:round; stroke-width:2; stroke-opacity:0.1; fill:none" points="
  2123.27,1734.12 2123.27,47.2441 
  "/>
<polyline clip-path="url(#clip742)" style="stroke:#000000; stroke-linecap:round; stroke-linejoin:round; stroke-width:2; stroke-opacity:0.1; fill:none" points="
  2573.26,1734.12 2573.26,47.2441 
  "/>
<polyline clip-path="url(#clip740)" style="stroke:#000000; stroke-linecap:round; stroke-linejoin:round; stroke-width:4; stroke-opacity:1; fill:none" points="
  255.816,1734.12 2640.76,1734.12 
  "/>
<polyline clip-path="url(#clip740)" style="stroke:#000000; stroke-linecap:round; stroke-linejoin:round; stroke-width:4; stroke-opacity:1; fill:none" points="
  323.315,1734.12 323.315,1715.22 
  "/>
<polyline clip-path="url(#clip740)" style="stroke:#000000; stroke-linecap:round; stroke-linejoin:round; stroke-width:4; stroke-opacity:1; fill:none" points="
  773.303,1734.12 773.303,1715.22 
  "/>
<polyline clip-path="url(#clip740)" style="stroke:#000000; stroke-linecap:round; stroke-linejoin:round; stroke-width:4; stroke-opacity:1; fill:none" points="
  1223.29,1734.12 1223.29,1715.22 
  "/>
<polyline clip-path="url(#clip740)" style="stroke:#000000; stroke-linecap:round; stroke-linejoin:round; stroke-width:4; stroke-opacity:1; fill:none" points="
  1673.28,1734.12 1673.28,1715.22 
  "/>
<polyline clip-path="url(#clip740)" style="stroke:#000000; stroke-linecap:round; stroke-linejoin:round; stroke-width:4; stroke-opacity:1; fill:none" points="
  2123.27,1734.12 2123.27,1715.22 
  "/>
<polyline clip-path="url(#clip740)" style="stroke:#000000; stroke-linecap:round; stroke-linejoin:round; stroke-width:4; stroke-opacity:1; fill:none" points="
  2573.26,1734.12 2573.26,1715.22 
  "/>
<path clip-path="url(#clip740)" d="M323.315 1767.34 Q319.704 1767.34 317.875 1770.9 Q316.069 1774.45 316.069 1781.58 Q316.069 1788.68 317.875 1792.25 Q319.704 1795.79 323.315 1795.79 Q326.949 1795.79 328.754 1792.25 Q330.583 1788.68 330.583 1781.58 Q330.583 1774.45 328.754 1770.9 Q326.949 1767.34 323.315 1767.34 M323.315 1763.64 Q329.125 1763.64 332.18 1768.24 Q335.259 1772.83 335.259 1781.58 Q335.259 1790.3 332.18 1794.91 Q329.125 1799.49 323.315 1799.49 Q317.504 1799.49 314.426 1794.91 Q311.37 1790.3 311.37 1781.58 Q311.37 1772.83 314.426 1768.24 Q317.504 1763.64 323.315 1763.64 Z" fill="#000000" fill-rule="evenodd" fill-opacity="1" /><path clip-path="url(#clip740)" d="M763.685 1794.89 L771.324 1794.89 L771.324 1768.52 L763.014 1770.19 L763.014 1765.93 L771.278 1764.26 L775.954 1764.26 L775.954 1794.89 L783.593 1794.89 L783.593 1798.82 L763.685 1798.82 L763.685 1794.89 Z" fill="#000000" fill-rule="evenodd" fill-opacity="1" /><path clip-path="url(#clip740)" d="M1217.94 1794.89 L1234.26 1794.89 L1234.26 1798.82 L1212.32 1798.82 L1212.32 1794.89 Q1214.98 1792.13 1219.56 1787.5 Q1224.17 1782.85 1225.35 1781.51 Q1227.6 1778.98 1228.48 1777.25 Q1229.38 1775.49 1229.38 1773.8 Q1229.38 1771.04 1227.44 1769.31 Q1225.51 1767.57 1222.41 1767.57 Q1220.21 1767.57 1217.76 1768.34 Q1215.33 1769.1 1212.55 1770.65 L1212.55 1765.93 Q1215.38 1764.79 1217.83 1764.21 Q1220.28 1763.64 1222.32 1763.64 Q1227.69 1763.64 1230.88 1766.32 Q1234.08 1769.01 1234.08 1773.5 Q1234.08 1775.63 1233.27 1777.55 Q1232.48 1779.45 1230.38 1782.04 Q1229.8 1782.71 1226.69 1785.93 Q1223.59 1789.12 1217.94 1794.89 Z" fill="#000000" fill-rule="evenodd" fill-opacity="1" /><path clip-path="url(#clip740)" d="M1677.53 1780.19 Q1680.88 1780.9 1682.76 1783.17 Q1684.66 1785.44 1684.66 1788.77 Q1684.66 1793.89 1681.14 1796.69 Q1677.62 1799.49 1671.14 1799.49 Q1668.96 1799.49 1666.65 1799.05 Q1664.36 1798.64 1661.9 1797.78 L1661.9 1793.27 Q1663.85 1794.4 1666.16 1794.98 Q1668.48 1795.56 1671 1795.56 Q1675.4 1795.56 1677.69 1793.82 Q1680 1792.08 1680 1788.77 Q1680 1785.72 1677.85 1784.01 Q1675.72 1782.27 1671.9 1782.27 L1667.88 1782.27 L1667.88 1778.43 L1672.09 1778.43 Q1675.54 1778.43 1677.37 1777.06 Q1679.19 1775.67 1679.19 1773.08 Q1679.19 1770.42 1677.3 1769.01 Q1675.42 1767.57 1671.9 1767.57 Q1669.98 1767.57 1667.78 1767.99 Q1665.58 1768.4 1662.94 1769.28 L1662.94 1765.12 Q1665.61 1764.38 1667.92 1764.01 Q1670.26 1763.64 1672.32 1763.64 Q1677.64 1763.64 1680.75 1766.07 Q1683.85 1768.47 1683.85 1772.59 Q1683.85 1775.46 1682.2 1777.46 Q1680.56 1779.42 1677.53 1780.19 Z" fill="#000000" fill-rule="evenodd" fill-opacity="1" /><path clip-path="url(#clip740)" d="M2126.28 1768.34 L2114.47 1786.78 L2126.28 1786.78 L2126.28 1768.34 M2125.05 1764.26 L2130.93 1764.26 L2130.93 1786.78 L2135.86 1786.78 L2135.86 1790.67 L2130.93 1790.67 L2130.93 1798.82 L2126.28 1798.82 L2126.28 1790.67 L2110.68 1790.67 L2110.68 1786.16 L2125.05 1764.26 Z" fill="#000000" fill-rule="evenodd" fill-opacity="1" /><path clip-path="url(#clip740)" d="M2563.54 1764.26 L2581.89 1764.26 L2581.89 1768.2 L2567.82 1768.2 L2567.82 1776.67 Q2568.84 1776.32 2569.85 1776.16 Q2570.87 1775.97 2571.89 1775.97 Q2577.68 1775.97 2581.06 1779.15 Q2584.44 1782.32 2584.44 1787.73 Q2584.44 1793.31 2580.97 1796.41 Q2577.49 1799.49 2571.17 1799.49 Q2569 1799.49 2566.73 1799.12 Q2564.48 1798.75 2562.08 1798.01 L2562.08 1793.31 Q2564.16 1794.45 2566.38 1795 Q2568.6 1795.56 2571.08 1795.56 Q2575.09 1795.56 2577.42 1793.45 Q2579.76 1791.34 2579.76 1787.73 Q2579.76 1784.12 2577.42 1782.02 Q2575.09 1779.91 2571.08 1779.91 Q2569.21 1779.91 2567.33 1780.33 Q2565.48 1780.74 2563.54 1781.62 L2563.54 1764.26 Z" fill="#000000" fill-rule="evenodd" fill-opacity="1" /><path clip-path="url(#clip740)" d="M1247 1883.3 L1228.86 1835.78 L1235.58 1835.78 L1250.63 1875.79 L1265.72 1835.78 L1272.4 1835.78 L1254.29 1883.3 L1247 1883.3 Z" fill="#000000" fill-rule="evenodd" fill-opacity="1" /><path clip-path="url(#clip740)" d="M1287.84 1851.76 Q1283.13 1851.76 1280.39 1855.45 Q1277.65 1859.11 1277.65 1865.51 Q1277.65 1871.91 1280.36 1875.6 Q1283.1 1879.26 1287.84 1879.26 Q1292.52 1879.26 1295.25 1875.57 Q1297.99 1871.87 1297.99 1865.51 Q1297.99 1859.17 1295.25 1855.48 Q1292.52 1851.76 1287.84 1851.76 M1287.84 1846.79 Q1295.48 1846.79 1299.84 1851.76 Q1304.2 1856.72 1304.2 1865.51 Q1304.2 1874.26 1299.84 1879.26 Q1295.48 1884.22 1287.84 1884.22 Q1280.17 1884.22 1275.81 1879.26 Q1271.48 1874.26 1271.48 1865.51 Q1271.48 1856.72 1275.81 1851.76 Q1280.17 1846.79 1287.84 1846.79 Z" fill="#000000" fill-rule="evenodd" fill-opacity="1" /><path clip-path="url(#clip740)" d="M1313.91 1833.78 L1319.76 1833.78 L1319.76 1883.3 L1313.91 1883.3 L1313.91 1833.78 Z" fill="#000000" fill-rule="evenodd" fill-opacity="1" /><path clip-path="url(#clip740)" d="M1331.41 1869.23 L1331.41 1847.65 L1337.27 1847.65 L1337.27 1869.01 Q1337.27 1874.07 1339.24 1876.62 Q1341.21 1879.13 1345.16 1879.13 Q1349.9 1879.13 1352.64 1876.11 Q1355.41 1873.08 1355.41 1867.86 L1355.41 1847.65 L1361.27 1847.65 L1361.27 1883.3 L1355.41 1883.3 L1355.41 1877.83 Q1353.28 1881.07 1350.45 1882.66 Q1347.64 1884.22 1343.92 1884.22 Q1337.78 1884.22 1334.59 1880.4 Q1331.41 1876.59 1331.41 1869.23 M1346.15 1846.79 L1346.15 1846.79 Z" fill="#000000" fill-rule="evenodd" fill-opacity="1" /><path clip-path="url(#clip740)" d="M1401.08 1854.5 Q1403.28 1850.55 1406.34 1848.67 Q1409.39 1846.79 1413.53 1846.79 Q1419.1 1846.79 1422.12 1850.71 Q1425.15 1854.59 1425.15 1861.78 L1425.15 1883.3 L1419.26 1883.3 L1419.26 1861.98 Q1419.26 1856.85 1417.44 1854.37 Q1415.63 1851.89 1411.91 1851.89 Q1407.35 1851.89 1404.71 1854.91 Q1402.07 1857.93 1402.07 1863.15 L1402.07 1883.3 L1396.18 1883.3 L1396.18 1861.98 Q1396.18 1856.82 1394.37 1854.37 Q1392.55 1851.89 1388.77 1851.89 Q1384.28 1851.89 1381.64 1854.94 Q1379 1857.97 1379 1863.15 L1379 1883.3 L1373.11 1883.3 L1373.11 1847.65 L1379 1847.65 L1379 1853.19 Q1381 1849.91 1383.8 1848.35 Q1386.6 1846.79 1390.45 1846.79 Q1394.34 1846.79 1397.04 1848.77 Q1399.78 1850.74 1401.08 1854.5 Z" fill="#000000" fill-rule="evenodd" fill-opacity="1" /><path clip-path="url(#clip740)" d="M1467.32 1864.01 L1467.32 1866.88 L1440.39 1866.88 Q1440.77 1872.92 1444.02 1876.11 Q1447.3 1879.26 1453.12 1879.26 Q1456.5 1879.26 1459.65 1878.43 Q1462.83 1877.6 1465.95 1875.95 L1465.95 1881.49 Q1462.8 1882.82 1459.49 1883.52 Q1456.18 1884.22 1452.77 1884.22 Q1444.24 1884.22 1439.25 1879.26 Q1434.28 1874.29 1434.28 1865.83 Q1434.28 1857.07 1438.99 1851.95 Q1443.73 1846.79 1451.76 1846.79 Q1458.95 1846.79 1463.12 1851.44 Q1467.32 1856.06 1467.32 1864.01 M1461.46 1862.29 Q1461.4 1857.49 1458.76 1854.62 Q1456.15 1851.76 1451.82 1851.76 Q1446.92 1851.76 1443.96 1854.53 Q1441.03 1857.3 1440.58 1862.33 L1461.46 1862.29 Z" fill="#000000" fill-rule="evenodd" fill-opacity="1" /><path clip-path="url(#clip740)" d="M1506.56 1861.78 L1506.56 1883.3 L1500.71 1883.3 L1500.71 1861.98 Q1500.71 1856.92 1498.73 1854.4 Q1496.76 1851.89 1492.81 1851.89 Q1488.07 1851.89 1485.33 1854.91 Q1482.6 1857.93 1482.6 1863.15 L1482.6 1883.3 L1476.71 1883.3 L1476.71 1847.65 L1482.6 1847.65 L1482.6 1853.19 Q1484.7 1849.98 1487.53 1848.39 Q1490.4 1846.79 1494.12 1846.79 Q1500.26 1846.79 1503.41 1850.61 Q1506.56 1854.4 1506.56 1861.78 Z" fill="#000000" fill-rule="evenodd" fill-opacity="1" /><path clip-path="url(#clip740)" d="M1553.03 1833.84 Q1548.77 1841.16 1546.7 1848.32 Q1544.63 1855.48 1544.63 1862.84 Q1544.63 1870.19 1546.7 1877.41 Q1548.8 1884.61 1553.03 1891.89 L1547.94 1891.89 Q1543.17 1884.41 1540.78 1877.19 Q1538.42 1869.96 1538.42 1862.84 Q1538.42 1855.74 1540.78 1848.54 Q1543.14 1841.35 1547.94 1833.84 L1553.03 1833.84 Z" fill="#000000" fill-rule="evenodd" fill-opacity="1" /><path clip-path="url(#clip740)" d="M1592.15 1854.5 Q1594.35 1850.55 1597.4 1848.67 Q1600.46 1846.79 1604.6 1846.79 Q1610.17 1846.79 1613.19 1850.71 Q1616.21 1854.59 1616.21 1861.78 L1616.21 1883.3 L1610.33 1883.3 L1610.33 1861.98 Q1610.33 1856.85 1608.51 1854.37 Q1606.7 1851.89 1602.97 1851.89 Q1598.42 1851.89 1595.78 1854.91 Q1593.14 1857.93 1593.14 1863.15 L1593.14 1883.3 L1587.25 1883.3 L1587.25 1861.98 Q1587.25 1856.82 1585.44 1854.37 Q1583.62 1851.89 1579.83 1851.89 Q1575.35 1851.89 1572.7 1854.94 Q1570.06 1857.97 1570.06 1863.15 L1570.06 1883.3 L1564.17 1883.3 L1564.17 1847.65 L1570.06 1847.65 L1570.06 1853.19 Q1572.07 1849.91 1574.87 1848.35 Q1577.67 1846.79 1581.52 1846.79 Q1585.4 1846.79 1588.11 1848.77 Q1590.85 1850.74 1592.15 1854.5 Z" fill="#000000" fill-rule="evenodd" fill-opacity="1" /><path clip-path="url(#clip740)" d="M1638.43 1847.65 Q1641.36 1848.23 1642.95 1849.98 Q1644.57 1851.7 1644.57 1854.31 Q1644.57 1858.25 1641.55 1860.38 Q1638.53 1862.52 1632.89 1862.52 Q1631.08 1862.52 1629.07 1862.2 Q1627.1 1861.85 1624.87 1861.21 L1624.87 1857.36 Q1626.53 1858.22 1628.4 1858.63 Q1630.31 1859.05 1632.45 1859.05 Q1635.92 1859.05 1637.83 1857.81 Q1639.73 1856.53 1639.73 1854.31 Q1639.73 1851.95 1637.95 1850.74 Q1636.2 1849.53 1632.76 1849.53 L1630.03 1849.53 L1630.03 1846.09 L1633.02 1846.09 Q1636.01 1846.09 1637.54 1845.11 Q1639.1 1844.09 1639.1 1842.18 Q1639.1 1840.33 1637.51 1839.38 Q1635.92 1838.39 1632.89 1838.39 Q1631.62 1838.39 1630 1838.68 Q1628.37 1838.96 1625.79 1839.7 L1625.79 1836.04 Q1628.12 1835.49 1630.15 1835.21 Q1632.19 1834.92 1633.94 1834.92 Q1638.53 1834.92 1641.2 1836.8 Q1643.9 1838.68 1643.9 1841.83 Q1643.9 1844.02 1642.47 1845.55 Q1641.04 1847.08 1638.43 1847.65 Z" fill="#000000" fill-rule="evenodd" fill-opacity="1" /><path clip-path="url(#clip740)" d="M1653.1 1833.84 L1658.2 1833.84 Q1662.97 1841.35 1665.32 1848.54 Q1667.71 1855.74 1667.71 1862.84 Q1667.71 1869.96 1665.32 1877.19 Q1662.97 1884.41 1658.2 1891.89 L1653.1 1891.89 Q1657.34 1884.61 1659.4 1877.41 Q1661.51 1870.19 1661.51 1862.84 Q1661.51 1855.48 1659.4 1848.32 Q1657.34 1841.16 1653.1 1833.84 Z" fill="#000000" fill-rule="evenodd" fill-opacity="1" /><polyline clip-path="url(#clip742)" style="stroke:#000000; stroke-linecap:round; stroke-linejoin:round; stroke-width:2; stroke-opacity:0.1; fill:none" points="
  255.816,1686.38 2640.76,1686.38 
  "/>
<polyline clip-path="url(#clip742)" style="stroke:#000000; stroke-linecap:round; stroke-linejoin:round; stroke-width:2; stroke-opacity:0.1; fill:none" points="
  255.816,1311.33 2640.76,1311.33 
  "/>
<polyline clip-path="url(#clip742)" style="stroke:#000000; stroke-linecap:round; stroke-linejoin:round; stroke-width:2; stroke-opacity:0.1; fill:none" points="
  255.816,936.275 2640.76,936.275 
  "/>
<polyline clip-path="url(#clip742)" style="stroke:#000000; stroke-linecap:round; stroke-linejoin:round; stroke-width:2; stroke-opacity:0.1; fill:none" points="
  255.816,561.225 2640.76,561.225 
  "/>
<polyline clip-path="url(#clip742)" style="stroke:#000000; stroke-linecap:round; stroke-linejoin:round; stroke-width:2; stroke-opacity:0.1; fill:none" points="
  255.816,186.175 2640.76,186.175 
  "/>
<polyline clip-path="url(#clip740)" style="stroke:#000000; stroke-linecap:round; stroke-linejoin:round; stroke-width:4; stroke-opacity:1; fill:none" points="
  255.816,1734.12 255.816,47.2441 
  "/>
<polyline clip-path="url(#clip740)" style="stroke:#000000; stroke-linecap:round; stroke-linejoin:round; stroke-width:4; stroke-opacity:1; fill:none" points="
  255.816,1686.38 274.714,1686.38 
  "/>
<polyline clip-path="url(#clip740)" style="stroke:#000000; stroke-linecap:round; stroke-linejoin:round; stroke-width:4; stroke-opacity:1; fill:none" points="
  255.816,1311.33 274.714,1311.33 
  "/>
<polyline clip-path="url(#clip740)" style="stroke:#000000; stroke-linecap:round; stroke-linejoin:round; stroke-width:4; stroke-opacity:1; fill:none" points="
  255.816,936.275 274.714,936.275 
  "/>
<polyline clip-path="url(#clip740)" style="stroke:#000000; stroke-linecap:round; stroke-linejoin:round; stroke-width:4; stroke-opacity:1; fill:none" points="
  255.816,561.225 274.714,561.225 
  "/>
<polyline clip-path="url(#clip740)" style="stroke:#000000; stroke-linecap:round; stroke-linejoin:round; stroke-width:4; stroke-opacity:1; fill:none" points="
  255.816,186.175 274.714,186.175 
  "/>
<path clip-path="url(#clip740)" d="M128.159 1672.17 Q124.548 1672.17 122.719 1675.74 Q120.913 1679.28 120.913 1686.41 Q120.913 1693.52 122.719 1697.08 Q124.548 1700.62 128.159 1700.62 Q131.793 1700.62 133.599 1697.08 Q135.427 1693.52 135.427 1686.41 Q135.427 1679.28 133.599 1675.74 Q131.793 1672.17 128.159 1672.17 M128.159 1668.47 Q133.969 1668.47 137.025 1673.08 Q140.103 1677.66 140.103 1686.41 Q140.103 1695.14 137.025 1699.74 Q133.969 1704.33 128.159 1704.33 Q122.349 1704.33 119.27 1699.74 Q116.214 1695.14 116.214 1686.41 Q116.214 1677.66 119.27 1673.08 Q122.349 1668.47 128.159 1668.47 Z" fill="#000000" fill-rule="evenodd" fill-opacity="1" /><path clip-path="url(#clip740)" d="M148.321 1697.78 L153.205 1697.78 L153.205 1703.66 L148.321 1703.66 L148.321 1697.78 Z" fill="#000000" fill-rule="evenodd" fill-opacity="1" /><path clip-path="url(#clip740)" d="M173.39 1672.17 Q169.779 1672.17 167.95 1675.74 Q166.145 1679.28 166.145 1686.41 Q166.145 1693.52 167.95 1697.08 Q169.779 1700.62 173.39 1700.62 Q177.024 1700.62 178.83 1697.08 Q180.659 1693.52 180.659 1686.41 Q180.659 1679.28 178.83 1675.74 Q177.024 1672.17 173.39 1672.17 M173.39 1668.47 Q179.2 1668.47 182.256 1673.08 Q185.334 1677.66 185.334 1686.41 Q185.334 1695.14 182.256 1699.74 Q179.2 1704.33 173.39 1704.33 Q167.58 1704.33 164.501 1699.74 Q161.446 1695.14 161.446 1686.41 Q161.446 1677.66 164.501 1673.08 Q167.58 1668.47 173.39 1668.47 Z" fill="#000000" fill-rule="evenodd" fill-opacity="1" /><path clip-path="url(#clip740)" d="M203.552 1672.17 Q199.941 1672.17 198.112 1675.74 Q196.307 1679.28 196.307 1686.41 Q196.307 1693.52 198.112 1697.08 Q199.941 1700.62 203.552 1700.62 Q207.186 1700.62 208.992 1697.08 Q210.82 1693.52 210.82 1686.41 Q210.82 1679.28 208.992 1675.74 Q207.186 1672.17 203.552 1672.17 M203.552 1668.47 Q209.362 1668.47 212.418 1673.08 Q215.496 1677.66 215.496 1686.41 Q215.496 1695.14 212.418 1699.74 Q209.362 1704.33 203.552 1704.33 Q197.742 1704.33 194.663 1699.74 Q191.608 1695.14 191.608 1686.41 Q191.608 1677.66 194.663 1673.08 Q197.742 1668.47 203.552 1668.47 Z" fill="#000000" fill-rule="evenodd" fill-opacity="1" /><path clip-path="url(#clip740)" d="M129.154 1297.12 Q125.543 1297.12 123.714 1300.69 Q121.909 1304.23 121.909 1311.36 Q121.909 1318.47 123.714 1322.03 Q125.543 1325.57 129.154 1325.57 Q132.788 1325.57 134.594 1322.03 Q136.423 1318.47 136.423 1311.36 Q136.423 1304.23 134.594 1300.69 Q132.788 1297.12 129.154 1297.12 M129.154 1293.42 Q134.964 1293.42 138.02 1298.03 Q141.099 1302.61 141.099 1311.36 Q141.099 1320.09 138.02 1324.69 Q134.964 1329.28 129.154 1329.28 Q123.344 1329.28 120.265 1324.69 Q117.21 1320.09 117.21 1311.36 Q117.21 1302.61 120.265 1298.03 Q123.344 1293.42 129.154 1293.42 Z" fill="#000000" fill-rule="evenodd" fill-opacity="1" /><path clip-path="url(#clip740)" d="M149.316 1322.73 L154.2 1322.73 L154.2 1328.61 L149.316 1328.61 L149.316 1322.73 Z" fill="#000000" fill-rule="evenodd" fill-opacity="1" /><path clip-path="url(#clip740)" d="M168.413 1324.67 L184.733 1324.67 L184.733 1328.61 L162.788 1328.61 L162.788 1324.67 Q165.45 1321.92 170.034 1317.29 Q174.64 1312.63 175.821 1311.29 Q178.066 1308.77 178.946 1307.03 Q179.848 1305.27 179.848 1303.58 Q179.848 1300.83 177.904 1299.09 Q175.983 1297.36 172.881 1297.36 Q170.682 1297.36 168.228 1298.12 Q165.798 1298.88 163.02 1300.43 L163.02 1295.71 Q165.844 1294.58 168.297 1294 Q170.751 1293.42 172.788 1293.42 Q178.159 1293.42 181.353 1296.11 Q184.547 1298.79 184.547 1303.28 Q184.547 1305.41 183.737 1307.33 Q182.95 1309.23 180.844 1311.82 Q180.265 1312.49 177.163 1315.71 Q174.061 1318.91 168.413 1324.67 Z" fill="#000000" fill-rule="evenodd" fill-opacity="1" /><path clip-path="url(#clip740)" d="M194.594 1294.05 L212.95 1294.05 L212.95 1297.98 L198.876 1297.98 L198.876 1306.45 Q199.895 1306.11 200.913 1305.94 Q201.932 1305.76 202.95 1305.76 Q208.737 1305.76 212.117 1308.93 Q215.496 1312.1 215.496 1317.52 Q215.496 1323.1 212.024 1326.2 Q208.552 1329.28 202.233 1329.28 Q200.057 1329.28 197.788 1328.91 Q195.543 1328.54 193.135 1327.79 L193.135 1323.1 Q195.219 1324.23 197.441 1324.79 Q199.663 1325.34 202.14 1325.34 Q206.145 1325.34 208.482 1323.23 Q210.82 1321.13 210.82 1317.52 Q210.82 1313.91 208.482 1311.8 Q206.145 1309.69 202.14 1309.69 Q200.265 1309.69 198.39 1310.11 Q196.538 1310.53 194.594 1311.41 L194.594 1294.05 Z" fill="#000000" fill-rule="evenodd" fill-opacity="1" /><path clip-path="url(#clip740)" d="M128.159 922.074 Q124.548 922.074 122.719 925.638 Q120.913 929.18 120.913 936.31 Q120.913 943.416 122.719 946.981 Q124.548 950.523 128.159 950.523 Q131.793 950.523 133.599 946.981 Q135.427 943.416 135.427 936.31 Q135.427 929.18 133.599 925.638 Q131.793 922.074 128.159 922.074 M128.159 918.37 Q133.969 918.37 137.025 922.976 Q140.103 927.56 140.103 936.31 Q140.103 945.036 137.025 949.643 Q133.969 954.226 128.159 954.226 Q122.349 954.226 119.27 949.643 Q116.214 945.036 116.214 936.31 Q116.214 927.56 119.27 922.976 Q122.349 918.37 128.159 918.37 Z" fill="#000000" fill-rule="evenodd" fill-opacity="1" /><path clip-path="url(#clip740)" d="M148.321 947.675 L153.205 947.675 L153.205 953.555 L148.321 953.555 L148.321 947.675 Z" fill="#000000" fill-rule="evenodd" fill-opacity="1" /><path clip-path="url(#clip740)" d="M163.436 918.995 L181.793 918.995 L181.793 922.93 L167.719 922.93 L167.719 931.402 Q168.737 931.055 169.756 930.893 Q170.774 930.708 171.793 930.708 Q177.58 930.708 180.959 933.879 Q184.339 937.05 184.339 942.467 Q184.339 948.046 180.867 951.148 Q177.395 954.226 171.075 954.226 Q168.899 954.226 166.631 953.856 Q164.385 953.486 161.978 952.745 L161.978 948.046 Q164.061 949.18 166.284 949.736 Q168.506 950.291 170.983 950.291 Q174.987 950.291 177.325 948.185 Q179.663 946.078 179.663 942.467 Q179.663 938.856 177.325 936.749 Q174.987 934.643 170.983 934.643 Q169.108 934.643 167.233 935.06 Q165.381 935.476 163.436 936.356 L163.436 918.995 Z" fill="#000000" fill-rule="evenodd" fill-opacity="1" /><path clip-path="url(#clip740)" d="M203.552 922.074 Q199.941 922.074 198.112 925.638 Q196.307 929.18 196.307 936.31 Q196.307 943.416 198.112 946.981 Q199.941 950.523 203.552 950.523 Q207.186 950.523 208.992 946.981 Q210.82 943.416 210.82 936.31 Q210.82 929.18 208.992 925.638 Q207.186 922.074 203.552 922.074 M203.552 918.37 Q209.362 918.37 212.418 922.976 Q215.496 927.56 215.496 936.31 Q215.496 945.036 212.418 949.643 Q209.362 954.226 203.552 954.226 Q197.742 954.226 194.663 949.643 Q191.608 945.036 191.608 936.31 Q191.608 927.56 194.663 922.976 Q197.742 918.37 203.552 918.37 Z" fill="#000000" fill-rule="evenodd" fill-opacity="1" /><path clip-path="url(#clip740)" d="M129.154 547.023 Q125.543 547.023 123.714 550.588 Q121.909 554.13 121.909 561.26 Q121.909 568.366 123.714 571.931 Q125.543 575.472 129.154 575.472 Q132.788 575.472 134.594 571.931 Q136.423 568.366 136.423 561.26 Q136.423 554.13 134.594 550.588 Q132.788 547.023 129.154 547.023 M129.154 543.32 Q134.964 543.32 138.02 547.926 Q141.099 552.51 141.099 561.26 Q141.099 569.986 138.02 574.593 Q134.964 579.176 129.154 579.176 Q123.344 579.176 120.265 574.593 Q117.21 569.986 117.21 561.26 Q117.21 552.51 120.265 547.926 Q123.344 543.32 129.154 543.32 Z" fill="#000000" fill-rule="evenodd" fill-opacity="1" /><path clip-path="url(#clip740)" d="M149.316 572.625 L154.2 572.625 L154.2 578.505 L149.316 578.505 L149.316 572.625 Z" fill="#000000" fill-rule="evenodd" fill-opacity="1" /><path clip-path="url(#clip740)" d="M163.205 543.945 L185.427 543.945 L185.427 545.936 L172.881 578.505 L167.997 578.505 L179.802 547.88 L163.205 547.88 L163.205 543.945 Z" fill="#000000" fill-rule="evenodd" fill-opacity="1" /><path clip-path="url(#clip740)" d="M194.594 543.945 L212.95 543.945 L212.95 547.88 L198.876 547.88 L198.876 556.352 Q199.895 556.005 200.913 555.843 Q201.932 555.658 202.95 555.658 Q208.737 555.658 212.117 558.829 Q215.496 562 215.496 567.417 Q215.496 572.996 212.024 576.097 Q208.552 579.176 202.233 579.176 Q200.057 579.176 197.788 578.806 Q195.543 578.435 193.135 577.695 L193.135 572.996 Q195.219 574.13 197.441 574.685 Q199.663 575.241 202.14 575.241 Q206.145 575.241 208.482 573.134 Q210.82 571.028 210.82 567.417 Q210.82 563.806 208.482 561.699 Q206.145 559.593 202.14 559.593 Q200.265 559.593 198.39 560.01 Q196.538 560.426 194.594 561.306 L194.594 543.945 Z" fill="#000000" fill-rule="evenodd" fill-opacity="1" /><path clip-path="url(#clip740)" d="M118.969 199.519 L126.608 199.519 L126.608 173.154 L118.298 174.821 L118.298 170.561 L126.562 168.895 L131.238 168.895 L131.238 199.519 L138.876 199.519 L138.876 203.455 L118.969 203.455 L118.969 199.519 Z" fill="#000000" fill-rule="evenodd" fill-opacity="1" /><path clip-path="url(#clip740)" d="M148.321 197.575 L153.205 197.575 L153.205 203.455 L148.321 203.455 L148.321 197.575 Z" fill="#000000" fill-rule="evenodd" fill-opacity="1" /><path clip-path="url(#clip740)" d="M173.39 171.973 Q169.779 171.973 167.95 175.538 Q166.145 179.08 166.145 186.209 Q166.145 193.316 167.95 196.881 Q169.779 200.422 173.39 200.422 Q177.024 200.422 178.83 196.881 Q180.659 193.316 180.659 186.209 Q180.659 179.08 178.83 175.538 Q177.024 171.973 173.39 171.973 M173.39 168.27 Q179.2 168.27 182.256 172.876 Q185.334 177.459 185.334 186.209 Q185.334 194.936 182.256 199.543 Q179.2 204.126 173.39 204.126 Q167.58 204.126 164.501 199.543 Q161.446 194.936 161.446 186.209 Q161.446 177.459 164.501 172.876 Q167.58 168.27 173.39 168.27 Z" fill="#000000" fill-rule="evenodd" fill-opacity="1" /><path clip-path="url(#clip740)" d="M203.552 171.973 Q199.941 171.973 198.112 175.538 Q196.307 179.08 196.307 186.209 Q196.307 193.316 198.112 196.881 Q199.941 200.422 203.552 200.422 Q207.186 200.422 208.992 196.881 Q210.82 193.316 210.82 186.209 Q210.82 179.08 208.992 175.538 Q207.186 171.973 203.552 171.973 M203.552 168.27 Q209.362 168.27 212.418 172.876 Q215.496 177.459 215.496 186.209 Q215.496 194.936 212.418 199.543 Q209.362 204.126 203.552 204.126 Q197.742 204.126 194.663 199.543 Q191.608 194.936 191.608 186.209 Q191.608 177.459 194.663 172.876 Q197.742 168.27 203.552 168.27 Z" fill="#000000" fill-rule="evenodd" fill-opacity="1" /><path clip-path="url(#clip740)" d="M39.3585 1021.27 Q40.0587 1019.2 42.3504 1017.26 Q44.642 1015.29 48.6524 1013.32 L61.6384 1006.79 L61.6384 1013.7 L49.4481 1019.78 Q44.6738 1022.13 43.1142 1024.36 Q41.5546 1026.56 41.5546 1030.38 L41.5546 1037.38 L61.6384 1037.38 L61.6384 1043.81 L14.1184 1043.81 L14.1184 1029.29 Q14.1184 1021.15 17.5241 1017.14 Q20.9297 1013.12 27.8047 1013.12 Q32.2925 1013.12 35.2526 1015.23 Q38.2126 1017.29 39.3585 1021.27 M19.402 1037.38 L36.2711 1037.38 L36.2711 1029.29 Q36.2711 1024.65 34.1386 1022.29 Q31.9743 1019.9 27.8047 1019.9 Q23.6352 1019.9 21.5345 1022.29 Q19.402 1024.65 19.402 1029.29 L19.402 1037.38 Z" fill="#000000" fill-rule="evenodd" fill-opacity="1" /><path clip-path="url(#clip740)" d="M43.719 984.002 Q43.719 991.1 45.3422 993.837 Q46.9655 996.574 50.8804 996.574 Q53.9996 996.574 55.8457 994.537 Q57.6599 992.468 57.6599 988.935 Q57.6599 984.065 54.2224 981.137 Q50.7531 978.177 45.0239 978.177 L43.719 978.177 L43.719 984.002 M41.3 972.321 L61.6384 972.321 L61.6384 978.177 L56.2276 978.177 Q59.4741 980.182 61.0337 983.174 Q62.5615 986.166 62.5615 990.495 Q62.5615 995.969 59.5059 999.216 Q56.4186 1002.43 51.2623 1002.43 Q45.2467 1002.43 42.1912 998.42 Q39.1357 994.378 39.1357 986.389 L39.1357 978.177 L38.5628 978.177 Q34.5205 978.177 32.3244 980.851 Q30.0964 983.493 30.0964 988.299 Q30.0964 991.354 30.8284 994.251 Q31.5605 997.147 33.0246 999.821 L27.6137 999.821 Q26.3724 996.606 25.7677 993.582 Q25.1311 990.558 25.1311 987.694 Q25.1311 979.96 29.1415 976.14 Q33.1519 972.321 41.3 972.321 Z" fill="#000000" fill-rule="evenodd" fill-opacity="1" /><path clip-path="url(#clip740)" d="M31.4013 936.8 L12.1132 936.8 L12.1132 930.944 L61.6384 930.944 L61.6384 936.8 L56.2912 936.8 Q59.4741 938.646 61.0337 941.479 Q62.5615 944.28 62.5615 948.227 Q62.5615 954.688 57.4052 958.762 Q52.249 962.804 43.8463 962.804 Q35.4436 962.804 30.2873 958.762 Q25.1311 954.688 25.1311 948.227 Q25.1311 944.28 26.6907 941.479 Q28.2185 938.646 31.4013 936.8 M43.8463 956.757 Q50.3075 956.757 53.9996 954.115 Q57.6599 951.441 57.6599 946.794 Q57.6599 942.147 53.9996 939.474 Q50.3075 936.8 43.8463 936.8 Q37.3851 936.8 33.7248 939.474 Q30.0327 942.147 30.0327 946.794 Q30.0327 951.441 33.7248 954.115 Q37.3851 956.757 43.8463 956.757 Z" fill="#000000" fill-rule="evenodd" fill-opacity="1" /><path clip-path="url(#clip740)" d="M25.9905 918.881 L25.9905 913.024 L61.6384 913.024 L61.6384 918.881 L25.9905 918.881 M12.1132 918.881 L12.1132 913.024 L19.5293 913.024 L19.5293 918.881 L12.1132 918.881 Z" fill="#000000" fill-rule="evenodd" fill-opacity="1" /><path clip-path="url(#clip740)" d="M30.0964 886.957 Q30.0964 891.667 33.7885 894.404 Q37.4488 897.142 43.8463 897.142 Q50.2438 897.142 53.9359 894.436 Q57.5962 891.699 57.5962 886.957 Q57.5962 882.278 53.9041 879.541 Q50.212 876.803 43.8463 876.803 Q37.5124 876.803 33.8203 879.541 Q30.0964 882.278 30.0964 886.957 M25.1311 886.957 Q25.1311 879.318 30.0964 874.957 Q35.0616 870.597 43.8463 870.597 Q52.5991 870.597 57.5962 874.957 Q62.5615 879.318 62.5615 886.957 Q62.5615 894.627 57.5962 898.988 Q52.5991 903.316 43.8463 903.316 Q35.0616 903.316 30.0964 898.988 Q25.1311 894.627 25.1311 886.957 Z" fill="#000000" fill-rule="evenodd" fill-opacity="1" /><path clip-path="url(#clip740)" d="M12.1769 826.1 Q19.4975 830.365 26.6589 832.434 Q33.8203 834.503 41.1727 834.503 Q48.5251 834.503 55.7502 832.434 Q62.9434 830.334 70.2321 826.1 L70.2321 831.193 Q62.7524 835.967 55.5274 838.354 Q48.3023 840.71 41.1727 840.71 Q34.0749 840.71 26.8817 838.354 Q19.6884 835.999 12.1769 831.193 L12.1769 826.1 Z" fill="#000000" fill-rule="evenodd" fill-opacity="1" /><path clip-path="url(#clip740)" d="M32.8336 786.983 Q28.8869 784.787 27.009 781.731 Q25.1311 778.676 25.1311 774.538 Q25.1311 768.968 29.046 765.945 Q32.9291 762.921 40.1224 762.921 L61.6384 762.921 L61.6384 768.809 L40.3133 768.809 Q35.1889 768.809 32.7063 770.623 Q30.2237 772.438 30.2237 776.161 Q30.2237 780.713 33.2474 783.355 Q36.2711 785.996 41.491 785.996 L61.6384 785.996 L61.6384 791.885 L40.3133 791.885 Q35.1571 791.885 32.7063 793.699 Q30.2237 795.513 30.2237 799.301 Q30.2237 803.789 33.2792 806.43 Q36.3029 809.072 41.491 809.072 L61.6384 809.072 L61.6384 814.96 L25.9905 814.96 L25.9905 809.072 L31.5287 809.072 Q28.2503 807.067 26.6907 804.266 Q25.1311 801.465 25.1311 797.614 Q25.1311 793.731 27.1045 791.025 Q29.0779 788.288 32.8336 786.983 Z" fill="#000000" fill-rule="evenodd" fill-opacity="1" /><path clip-path="url(#clip740)" d="M12.1769 752.163 L12.1769 747.07 Q19.6884 742.296 26.8817 739.941 Q34.0749 737.553 41.1727 737.553 Q48.3023 737.553 55.5274 739.941 Q62.7524 742.296 70.2321 747.07 L70.2321 752.163 Q62.9434 747.93 55.7502 745.861 Q48.5251 743.76 41.1727 743.76 Q33.8203 743.76 26.6589 745.861 Q19.4975 747.93 12.1769 752.163 Z" fill="#000000" fill-rule="evenodd" fill-opacity="1" /><polyline clip-path="url(#clip742)" style="stroke:#009af9; stroke-linecap:round; stroke-linejoin:round; stroke-width:4; stroke-opacity:1; fill:none" points="
  323.315,1686.38 323.543,1612.09 323.772,1592.78 324.001,1579.23 324.23,1568.45 324.459,1559.34 324.688,1551.38 324.917,1544.27 325.146,1537.8 325.603,1526.33 
  326.061,1516.3 326.519,1507.33 326.977,1499.18 327.892,1484.72 328.808,1472.09 329.723,1460.79 330.639,1450.52 332.47,1432.31 334.301,1416.39 335.216,1409.09 
  336.132,1402.16 337.047,1395.55 337.963,1389.22 342.196,1362.98 346.428,1340.43 350.661,1320.48 354.894,1302.5 359.126,1286.07 363.359,1270.88 367.592,1256.73 
  371.824,1243.45 380.29,1219.06 388.755,1196.97 397.22,1176.72 405.686,1157.96 422.616,1123.98 439.547,1093.68 456.478,1066.2 473.408,1040.96 493.757,1013.02 
  514.107,987.221 534.456,963.2 554.805,940.676 589.215,905.421 623.625,873.09 661.004,840.658 698.383,810.539 732.843,784.498 767.303,759.88 804.248,734.863 
  841.193,711.097 883.997,684.935 926.801,660.073 1002.88,618.641 1069.59,584.786 1142.33,550.1 1215.5,517.224 1296.4,482.904 1373.37,451.974 1453.4,421.377 
  1520.77,396.723 1603.02,367.846 1678.37,342.46 1747.96,319.838 1818.45,297.66 1897.45,273.62 1969.04,252.52 2051.01,229.101 2126.9,208.068 2201.72,187.902 
  2274.36,168.829 2348.83,149.762 2430.42,129.401 2548.94,100.739 2573.26,94.9858 
  "/>
</svg>
