<?xml version="1.0" encoding="utf-8"?>
<svg xmlns="http://www.w3.org/2000/svg" xmlns:xlink="http://www.w3.org/1999/xlink" width="672" height="480" viewBox="0 0 2688 1920">
<defs>
  <clipPath id="clip610">
    <rect x="0" y="0" width="2688" height="1920"/>
  </clipPath>
</defs>
<path clip-path="url(#clip610)" d="
M0 1920 L2688 1920 L2688 0 L0 0  Z
  " fill="#ffffff" fill-rule="evenodd" fill-opacity="1"/>
<defs>
  <clipPath id="clip611">
    <rect x="537" y="0" width="1883" height="1883"/>
  </clipPath>
</defs>
<path clip-path="url(#clip610)" d="
M181.747 1800.78 L2640.76 1800.78 L2640.76 47.2441 L181.747 47.2441  Z
  " fill="#ffffff" fill-rule="evenodd" fill-opacity="1"/>
<defs>
  <clipPath id="clip612">
    <rect x="181" y="47" width="2460" height="1755"/>
  </clipPath>
</defs>
<polyline clip-path="url(#clip612)" style="stroke:#000000; stroke-linecap:round; stroke-linejoin:round; stroke-width:2; stroke-opacity:0.1; fill:none" points="
  582.744,1800.78 582.744,47.2441 
  "/>
<polyline clip-path="url(#clip612)" style="stroke:#000000; stroke-linecap:round; stroke-linejoin:round; stroke-width:2; stroke-opacity:0.1; fill:none" points="
  1245.55,1800.78 1245.55,47.2441 
  "/>
<polyline clip-path="url(#clip612)" style="stroke:#000000; stroke-linecap:round; stroke-linejoin:round; stroke-width:2; stroke-opacity:0.1; fill:none" points="
  1908.36,1800.78 1908.36,47.2441 
  "/>
<polyline clip-path="url(#clip612)" style="stroke:#000000; stroke-linecap:round; stroke-linejoin:round; stroke-width:2; stroke-opacity:0.1; fill:none" points="
  2571.16,1800.78 2571.16,47.2441 
  "/>
<polyline clip-path="url(#clip610)" style="stroke:#000000; stroke-linecap:round; stroke-linejoin:round; stroke-width:4; stroke-opacity:1; fill:none" points="
  181.747,1800.78 2640.76,1800.78 
  "/>
<polyline clip-path="url(#clip610)" style="stroke:#000000; stroke-linecap:round; stroke-linejoin:round; stroke-width:4; stroke-opacity:1; fill:none" points="
  582.744,1800.78 582.744,1781.88 
  "/>
<polyline clip-path="url(#clip610)" style="stroke:#000000; stroke-linecap:round; stroke-linejoin:round; stroke-width:4; stroke-opacity:1; fill:none" points="
  1245.55,1800.78 1245.55,1781.88 
  "/>
<polyline clip-path="url(#clip610)" style="stroke:#000000; stroke-linecap:round; stroke-linejoin:round; stroke-width:4; stroke-opacity:1; fill:none" points="
  1908.36,1800.78 1908.36,1781.88 
  "/>
<polyline clip-path="url(#clip610)" style="stroke:#000000; stroke-linecap:round; stroke-linejoin:round; stroke-width:4; stroke-opacity:1; fill:none" points="
  2571.16,1800.78 2571.16,1781.88 
  "/>
<path clip-path="url(#clip610)" d="M552.686 1848.65 L582.362 1848.65 L582.362 1852.59 L552.686 1852.59 L552.686 1848.65 Z" fill="#000000" fill-rule="evenodd" fill-opacity="1" /><path clip-path="url(#clip610)" d="M596.482 1861.55 L612.802 1861.55 L612.802 1865.48 L590.857 1865.48 L590.857 1861.55 Q593.52 1858.79 598.103 1854.16 Q602.709 1849.51 603.89 1848.17 Q606.135 1845.65 607.015 1843.91 Q607.918 1842.15 607.918 1840.46 Q607.918 1837.71 605.973 1835.97 Q604.052 1834.23 600.95 1834.23 Q598.751 1834.23 596.297 1835 Q593.867 1835.76 591.089 1837.31 L591.089 1832.59 Q593.913 1831.46 596.367 1830.88 Q598.82 1830.3 600.857 1830.3 Q606.228 1830.3 609.422 1832.98 Q612.617 1835.67 612.617 1840.16 Q612.617 1842.29 611.806 1844.21 Q611.019 1846.11 608.913 1848.7 Q608.334 1849.37 605.232 1852.59 Q602.131 1855.78 596.482 1861.55 Z" fill="#000000" fill-rule="evenodd" fill-opacity="1" /><path clip-path="url(#clip610)" d="M1245.55 1834 Q1241.94 1834 1240.11 1837.57 Q1238.3 1841.11 1238.3 1848.24 Q1238.3 1855.34 1240.11 1858.91 Q1241.94 1862.45 1245.55 1862.45 Q1249.18 1862.45 1250.99 1858.91 Q1252.82 1855.34 1252.82 1848.24 Q1252.82 1841.11 1250.99 1837.57 Q1249.18 1834 1245.55 1834 M1245.55 1830.3 Q1251.36 1830.3 1254.42 1834.9 Q1257.49 1839.49 1257.49 1848.24 Q1257.49 1856.96 1254.42 1861.57 Q1251.36 1866.15 1245.55 1866.15 Q1239.74 1866.15 1236.66 1861.57 Q1233.61 1856.96 1233.61 1848.24 Q1233.61 1839.49 1236.66 1834.9 Q1239.74 1830.3 1245.55 1830.3 Z" fill="#000000" fill-rule="evenodd" fill-opacity="1" /><path clip-path="url(#clip610)" d="M1903.01 1861.55 L1919.33 1861.55 L1919.33 1865.48 L1897.38 1865.48 L1897.38 1861.55 Q1900.05 1858.79 1904.63 1854.16 Q1909.24 1849.51 1910.42 1848.17 Q1912.66 1845.65 1913.54 1843.91 Q1914.44 1842.15 1914.44 1840.46 Q1914.44 1837.71 1912.5 1835.97 Q1910.58 1834.23 1907.48 1834.23 Q1905.28 1834.23 1902.82 1835 Q1900.39 1835.76 1897.61 1837.31 L1897.61 1832.59 Q1900.44 1831.46 1902.89 1830.88 Q1905.35 1830.3 1907.38 1830.3 Q1912.75 1830.3 1915.95 1832.98 Q1919.14 1835.67 1919.14 1840.16 Q1919.14 1842.29 1918.33 1844.21 Q1917.55 1846.11 1915.44 1848.7 Q1914.86 1849.37 1911.76 1852.59 Q1908.66 1855.78 1903.01 1861.55 Z" fill="#000000" fill-rule="evenodd" fill-opacity="1" /><path clip-path="url(#clip610)" d="M2574.17 1835 L2562.37 1853.45 L2574.17 1853.45 L2574.17 1835 M2572.94 1830.92 L2578.82 1830.92 L2578.82 1853.45 L2583.75 1853.45 L2583.75 1857.34 L2578.82 1857.34 L2578.82 1865.48 L2574.17 1865.48 L2574.17 1857.34 L2558.57 1857.34 L2558.57 1852.82 L2572.94 1830.92 Z" fill="#000000" fill-rule="evenodd" fill-opacity="1" /><polyline clip-path="url(#clip612)" style="stroke:#000000; stroke-linecap:round; stroke-linejoin:round; stroke-width:2; stroke-opacity:0.1; fill:none" points="
  181.747,1729.67 2640.76,1729.67 
  "/>
<polyline clip-path="url(#clip612)" style="stroke:#000000; stroke-linecap:round; stroke-linejoin:round; stroke-width:2; stroke-opacity:0.1; fill:none" points="
  181.747,1299.98 2640.76,1299.98 
  "/>
<polyline clip-path="url(#clip612)" style="stroke:#000000; stroke-linecap:round; stroke-linejoin:round; stroke-width:2; stroke-opacity:0.1; fill:none" points="
  181.747,870.301 2640.76,870.301 
  "/>
<polyline clip-path="url(#clip612)" style="stroke:#000000; stroke-linecap:round; stroke-linejoin:round; stroke-width:2; stroke-opacity:0.1; fill:none" points="
  181.747,440.619 2640.76,440.619 
  "/>
<polyline clip-path="url(#clip610)" style="stroke:#000000; stroke-linecap:round; stroke-linejoin:round; stroke-width:4; stroke-opacity:1; fill:none" points="
  181.747,1800.78 181.747,47.2441 
  "/>
<polyline clip-path="url(#clip610)" style="stroke:#000000; stroke-linecap:round; stroke-linejoin:round; stroke-width:4; stroke-opacity:1; fill:none" points="
  181.747,1729.67 200.644,1729.67 
  "/>
<polyline clip-path="url(#clip610)" style="stroke:#000000; stroke-linecap:round; stroke-linejoin:round; stroke-width:4; stroke-opacity:1; fill:none" points="
  181.747,1299.98 200.644,1299.98 
  "/>
<polyline clip-path="url(#clip610)" style="stroke:#000000; stroke-linecap:round; stroke-linejoin:round; stroke-width:4; stroke-opacity:1; fill:none" points="
  181.747,870.301 200.644,870.301 
  "/>
<polyline clip-path="url(#clip610)" style="stroke:#000000; stroke-linecap:round; stroke-linejoin:round; stroke-width:4; stroke-opacity:1; fill:none" points="
  181.747,440.619 200.644,440.619 
  "/>
<path clip-path="url(#clip610)" d="M49.5521 1730.12 L79.2279 1730.12 L79.2279 1734.05 L49.5521 1734.05 L49.5521 1730.12 Z" fill="#000000" fill-rule="evenodd" fill-opacity="1" /><path clip-path="url(#clip610)" d="M102.168 1716.46 L90.3621 1734.91 L102.168 1734.91 L102.168 1716.46 M100.941 1712.39 L106.82 1712.39 L106.82 1734.91 L111.751 1734.91 L111.751 1738.8 L106.82 1738.8 L106.82 1746.95 L102.168 1746.95 L102.168 1738.8 L86.5658 1738.8 L86.5658 1734.28 L100.941 1712.39 Z" fill="#000000" fill-rule="evenodd" fill-opacity="1" /><path clip-path="url(#clip610)" d="M129.482 1715.47 Q125.871 1715.47 124.042 1719.03 Q122.237 1722.57 122.237 1729.7 Q122.237 1736.81 124.042 1740.37 Q125.871 1743.91 129.482 1743.91 Q133.116 1743.91 134.922 1740.37 Q136.751 1736.81 136.751 1729.7 Q136.751 1722.57 134.922 1719.03 Q133.116 1715.47 129.482 1715.47 M129.482 1711.76 Q135.292 1711.76 138.348 1716.37 Q141.427 1720.95 141.427 1729.7 Q141.427 1738.43 138.348 1743.03 Q135.292 1747.62 129.482 1747.62 Q123.672 1747.62 120.593 1743.03 Q117.538 1738.43 117.538 1729.7 Q117.538 1720.95 120.593 1716.37 Q123.672 1711.76 129.482 1711.76 Z" fill="#000000" fill-rule="evenodd" fill-opacity="1" /><path clip-path="url(#clip610)" d="M49.5521 1300.44 L79.2279 1300.44 L79.2279 1304.37 L49.5521 1304.37 L49.5521 1300.44 Z" fill="#000000" fill-rule="evenodd" fill-opacity="1" /><path clip-path="url(#clip610)" d="M93.3482 1313.33 L109.668 1313.33 L109.668 1317.26 L87.7232 1317.26 L87.7232 1313.33 Q90.3852 1310.57 94.9685 1305.94 Q99.575 1301.29 100.756 1299.95 Q103.001 1297.43 103.881 1295.69 Q104.783 1293.93 104.783 1292.24 Q104.783 1289.49 102.839 1287.75 Q100.918 1286.01 97.8158 1286.01 Q95.6167 1286.01 93.163 1286.78 Q90.7325 1287.54 87.9547 1289.09 L87.9547 1284.37 Q90.7788 1283.24 93.2324 1282.66 Q95.6861 1282.08 97.7232 1282.08 Q103.094 1282.08 106.288 1284.76 Q109.482 1287.45 109.482 1291.94 Q109.482 1294.07 108.672 1295.99 Q107.885 1297.89 105.779 1300.48 Q105.2 1301.15 102.098 1304.37 Q98.9963 1307.57 93.3482 1313.33 Z" fill="#000000" fill-rule="evenodd" fill-opacity="1" /><path clip-path="url(#clip610)" d="M129.482 1285.78 Q125.871 1285.78 124.042 1289.35 Q122.237 1292.89 122.237 1300.02 Q122.237 1307.13 124.042 1310.69 Q125.871 1314.23 129.482 1314.23 Q133.116 1314.23 134.922 1310.69 Q136.751 1307.13 136.751 1300.02 Q136.751 1292.89 134.922 1289.35 Q133.116 1285.78 129.482 1285.78 M129.482 1282.08 Q135.292 1282.08 138.348 1286.69 Q141.427 1291.27 141.427 1300.02 Q141.427 1308.75 138.348 1313.35 Q135.292 1317.94 129.482 1317.94 Q123.672 1317.94 120.593 1313.35 Q117.538 1308.75 117.538 1300.02 Q117.538 1291.27 120.593 1286.69 Q123.672 1282.08 129.482 1282.08 Z" fill="#000000" fill-rule="evenodd" fill-opacity="1" /><path clip-path="url(#clip610)" d="M129.482 856.1 Q125.871 856.1 124.042 859.665 Q122.237 863.206 122.237 870.336 Q122.237 877.443 124.042 881.007 Q125.871 884.549 129.482 884.549 Q133.116 884.549 134.922 881.007 Q136.751 877.443 136.751 870.336 Q136.751 863.206 134.922 859.665 Q133.116 856.1 129.482 856.1 M129.482 852.396 Q135.292 852.396 138.348 857.003 Q141.427 861.586 141.427 870.336 Q141.427 879.063 138.348 883.669 Q135.292 888.253 129.482 888.253 Q123.672 888.253 120.593 883.669 Q117.538 879.063 117.538 870.336 Q117.538 861.586 120.593 857.003 Q123.672 852.396 129.482 852.396 Z" fill="#000000" fill-rule="evenodd" fill-opacity="1" /><path clip-path="url(#clip610)" d="M93.3482 453.963 L109.668 453.963 L109.668 457.899 L87.7232 457.899 L87.7232 453.963 Q90.3852 451.209 94.9685 446.579 Q99.575 441.926 100.756 440.584 Q103.001 438.061 103.881 436.325 Q104.783 434.565 104.783 432.876 Q104.783 430.121 102.839 428.385 Q100.918 426.649 97.8158 426.649 Q95.6167 426.649 93.163 427.413 Q90.7325 428.177 87.9547 429.727 L87.9547 425.005 Q90.7788 423.871 93.2324 423.292 Q95.6861 422.714 97.7232 422.714 Q103.094 422.714 106.288 425.399 Q109.482 428.084 109.482 432.575 Q109.482 434.704 108.672 436.626 Q107.885 438.524 105.779 441.116 Q105.2 441.788 102.098 445.005 Q98.9963 448.2 93.3482 453.963 Z" fill="#000000" fill-rule="evenodd" fill-opacity="1" /><path clip-path="url(#clip610)" d="M129.482 426.417 Q125.871 426.417 124.042 429.982 Q122.237 433.524 122.237 440.653 Q122.237 447.76 124.042 451.325 Q125.871 454.866 129.482 454.866 Q133.116 454.866 134.922 451.325 Q136.751 447.76 136.751 440.653 Q136.751 433.524 134.922 429.982 Q133.116 426.417 129.482 426.417 M129.482 422.714 Q135.292 422.714 138.348 427.32 Q141.427 431.903 141.427 440.653 Q141.427 449.38 138.348 453.987 Q135.292 458.57 129.482 458.57 Q123.672 458.57 120.593 453.987 Q117.538 449.38 117.538 440.653 Q117.538 431.903 120.593 427.32 Q123.672 422.714 129.482 422.714 Z" fill="#000000" fill-rule="evenodd" fill-opacity="1" /><polyline clip-path="url(#clip612)" style="stroke:#009af9; stroke-linecap:round; stroke-linejoin:round; stroke-width:4; stroke-opacity:1; fill:none" points="
  251.341,1751.15 255.117,1736.52 258.893,1722.01 262.669,1707.62 266.445,1693.34 283.901,1628.82 301.357,1566.73 318.814,1507.04 336.27,1449.71 353.727,1394.7 
  371.183,1341.97 388.64,1291.49 406.096,1243.21 427.078,1188.05 448.059,1135.97 469.04,1086.88 490.021,1040.73 507.761,1003.96 525.5,969.202 543.239,936.418 
  560.979,905.568 580.249,874.202 599.518,845.023 618.788,817.978 638.058,793.018 655.823,771.809 673.589,752.29 691.354,734.419 709.119,718.158 728.165,702.466 
  747.211,688.53 766.257,676.3 785.303,665.727 807.37,655.486 829.437,647.327 851.504,641.175 873.571,636.953 893.181,634.761 912.791,633.979 932.402,634.555 
  952.012,636.436 986.405,642.723 1020.8,652.569 1058.3,667.022 1095.79,684.99 1133.51,706.235 1171.23,730.278 1212.94,759.661 1254.64,791.487 1294.33,823.568 
  1334.01,856.953 1416.52,928.627 1485.99,988.926 1528.39,1024.63 1570.79,1058.85 1609.64,1088.42 1648.48,1115.87 1684.36,1138.98 1720.23,1159.6 1756.57,1177.62 
  1792.91,1192.4 1813.28,1199.15 1833.64,1204.71 1854.01,1209.04 1874.37,1212.06 1892.82,1213.63 1911.28,1214.03 1929.73,1213.23 1948.18,1211.18 1969.31,1207.24 
  1990.44,1201.53 2011.56,1194 2032.69,1184.56 2052.25,1174.08 2071.81,1161.85 2091.38,1147.84 2110.94,1131.98 2130.22,1114.49 2149.51,1095.11 2168.8,1073.78 
  2188.08,1050.45 2206.81,1025.85 2225.53,999.266 2244.26,970.663 2262.98,939.992 2282.18,906.354 2301.37,870.442 2320.57,832.208 2339.76,791.6 2360.79,744.326 
  2381.83,694.077 2402.86,640.787 2423.89,584.39 2439.16,541.442 2454.44,496.796 2469.71,450.425 2484.99,402.305 2500.26,352.41 2515.54,300.715 2530.82,247.195 
  2546.09,191.824 2552.36,168.564 2558.63,144.987 2564.89,121.09 2571.16,96.8724 
  "/>
<path clip-path="url(#clip610)" d="
M1702.61 209.375 L2558.79 209.375 L2558.79 105.695 L1702.61 105.695  Z
  " fill="#ffffff" fill-rule="evenodd" fill-opacity="1"/>
<polyline clip-path="url(#clip610)" style="stroke:#000000; stroke-linecap:round; stroke-linejoin:round; stroke-width:4; stroke-opacity:1; fill:none" points="
  1702.61,209.375 2558.79,209.375 2558.79,105.695 1702.61,105.695 1702.61,209.375 
  "/>
<polyline clip-path="url(#clip610)" style="stroke:#009af9; stroke-linecap:round; stroke-linejoin:round; stroke-width:4; stroke-opacity:1; fill:none" points="
  1729.94,157.535 1893.87,157.535 
  "/>
<path clip-path="url(#clip610)" d="M1945.11 139.694 Q1945.11 140.982 1944.29 141.778 Q1943.49 142.575 1942.48 142.575 Q1941.76 142.575 1941.22 142.13 Q1940.7 141.685 1940.7 140.912 Q1940.7 140.115 1941.31 139.272 Q1941.92 138.429 1943.3 138.312 Q1942.39 137.445 1940.94 137.445 Q1940.21 137.445 1939.6 137.914 Q1939.02 138.359 1938.69 139.085 Q1938.34 139.834 1937.54 144.074 Q1937.28 145.456 1937.05 146.791 Q1936.82 148.126 1936.54 149.531 L1940.52 149.531 Q1941.03 149.531 1941.24 149.555 Q1941.45 149.578 1941.62 149.695 Q1941.81 149.812 1941.81 150.07 Q1941.81 150.726 1941.5 150.89 Q1941.22 151.03 1940.38 151.03 L1936.25 151.03 L1933.37 166.232 Q1933.3 166.677 1933 168.082 Q1932.72 169.464 1932.04 171.736 Q1931.36 174.031 1930.68 175.39 Q1930.3 176.163 1929.81 176.889 Q1929.34 177.638 1928.67 178.388 Q1927.99 179.137 1927.1 179.582 Q1926.21 180.051 1925.27 180.051 Q1923.68 180.051 1922.43 179.161 Q1921.19 178.271 1921.19 176.748 Q1921.19 175.46 1921.99 174.664 Q1922.81 173.867 1923.82 173.867 Q1924.54 173.867 1925.06 174.312 Q1925.6 174.757 1925.6 175.53 Q1925.6 175.858 1925.48 176.233 Q1925.36 176.608 1925.1 177.029 Q1924.85 177.474 1924.29 177.779 Q1923.72 178.083 1922.95 178.13 Q1923.86 178.997 1925.27 178.997 Q1925.71 178.997 1926.11 178.809 Q1926.51 178.645 1926.84 178.224 Q1927.19 177.802 1927.45 177.381 Q1927.7 176.982 1927.96 176.209 Q1928.22 175.46 1928.38 174.898 Q1928.55 174.336 1928.76 173.329 Q1928.99 172.321 1929.11 171.712 Q1929.23 171.127 1929.44 169.979 L1933.02 151.03 L1929.86 151.03 Q1929.3 151.03 1929.06 151.007 Q1928.85 150.983 1928.69 150.866 Q1928.52 150.726 1928.52 150.445 Q1928.52 150 1928.71 149.812 Q1928.92 149.602 1929.16 149.578 Q1929.39 149.531 1929.95 149.531 L1933.28 149.531 Q1934.4 143.605 1934.85 142.013 Q1935.36 140.326 1936.16 139.155 Q1936.96 137.961 1937.85 137.398 Q1938.74 136.836 1939.46 136.626 Q1940.21 136.391 1940.94 136.391 Q1942.58 136.391 1943.84 137.281 Q1945.11 138.148 1945.11 139.694 Z" fill="#000000" fill-rule="evenodd" fill-opacity="1" /><path clip-path="url(#clip610)" d="M1951.57 158.221 Q1951.57 150.117 1954.59 143.582 Q1955.88 140.842 1957.68 138.546 Q1959.48 136.251 1960.68 135.244 Q1961.87 134.236 1962.2 134.236 Q1962.67 134.236 1962.69 134.705 Q1962.69 134.939 1962.06 135.525 Q1954.33 143.395 1954.35 158.221 Q1954.35 173.094 1961.87 180.66 Q1962.69 181.48 1962.69 181.737 Q1962.69 182.206 1962.2 182.206 Q1961.87 182.206 1960.72 181.245 Q1959.58 180.285 1957.8 178.083 Q1956.02 175.882 1954.73 173.188 Q1951.57 166.653 1951.57 158.221 Z" fill="#000000" fill-rule="evenodd" fill-opacity="1" /><path clip-path="url(#clip610)" d="M1990.23 152.178 Q1990.23 153.49 1989.41 154.239 Q1988.59 154.965 1987.65 154.965 Q1986.76 154.965 1986.29 154.45 Q1985.83 153.935 1985.83 153.279 Q1985.83 152.389 1986.48 151.616 Q1987.14 150.843 1988.12 150.679 Q1987.16 150.07 1985.73 150.07 Q1984.8 150.07 1983.98 150.562 Q1983.18 151.054 1982.69 151.686 Q1982.22 152.319 1981.8 153.232 Q1981.4 154.122 1981.24 154.661 Q1981.1 155.176 1980.98 155.738 L1979.34 162.297 Q1978.54 165.412 1978.54 166.513 Q1978.54 167.871 1979.2 168.785 Q1979.85 169.675 1981.17 169.675 Q1981.68 169.675 1982.27 169.534 Q1982.85 169.37 1983.6 168.949 Q1984.37 168.503 1985.05 167.848 Q1985.76 167.168 1986.44 166.021 Q1987.11 164.873 1987.56 163.397 Q1987.7 162.882 1988.17 162.882 Q1988.75 162.882 1988.75 163.351 Q1988.75 163.749 1988.43 164.592 Q1988.12 165.412 1987.44 166.489 Q1986.79 167.543 1985.92 168.503 Q1985.05 169.44 1983.77 170.096 Q1982.48 170.752 1981.07 170.752 Q1979.06 170.752 1977.72 169.675 Q1976.39 168.597 1975.9 167.098 Q1975.78 167.309 1975.61 167.59 Q1975.45 167.871 1974.96 168.503 Q1974.49 169.112 1973.95 169.581 Q1973.41 170.026 1972.57 170.377 Q1971.75 170.752 1970.86 170.752 Q1969.74 170.752 1968.73 170.424 Q1967.74 170.096 1967.04 169.347 Q1966.34 168.597 1966.34 167.567 Q1966.34 166.419 1967.11 165.623 Q1967.91 164.803 1968.99 164.803 Q1969.66 164.803 1970.2 165.201 Q1970.77 165.599 1970.77 166.466 Q1970.77 167.426 1970.11 168.152 Q1969.45 168.878 1968.52 169.066 Q1969.48 169.675 1970.91 169.675 Q1972.45 169.675 1973.67 168.316 Q1974.89 166.958 1975.47 164.686 Q1976.93 159.228 1977.49 156.792 Q1978.05 154.333 1978.05 153.279 Q1978.05 152.295 1977.79 151.616 Q1977.53 150.937 1977.09 150.632 Q1976.67 150.304 1976.27 150.187 Q1975.9 150.07 1975.47 150.07 Q1974.77 150.07 1973.97 150.351 Q1973.2 150.632 1972.26 151.288 Q1971.35 151.92 1970.48 153.232 Q1969.62 154.544 1969.03 156.347 Q1968.92 156.886 1968.4 156.886 Q1967.84 156.863 1967.84 156.394 Q1967.84 155.996 1968.14 155.176 Q1968.47 154.333 1969.13 153.279 Q1969.81 152.225 1970.67 151.288 Q1971.56 150.328 1972.85 149.672 Q1974.16 149.016 1975.57 149.016 Q1976.2 149.016 1976.81 149.157 Q1977.44 149.274 1978.19 149.625 Q1978.96 149.976 1979.64 150.749 Q1980.32 151.522 1980.74 152.646 Q1981.02 152.108 1981.4 151.592 Q1981.8 151.077 1982.41 150.445 Q1983.04 149.789 1983.91 149.414 Q1984.8 149.016 1985.78 149.016 Q1986.74 149.016 1987.68 149.274 Q1988.61 149.508 1989.41 150.281 Q1990.23 151.03 1990.23 152.178 Z" fill="#000000" fill-rule="evenodd" fill-opacity="1" /><path clip-path="url(#clip610)" d="M1994.85 181.737 Q1994.85 181.503 1995.46 180.917 Q2003.19 173.047 2003.19 158.221 Q2003.19 143.348 1995.76 135.829 Q1994.85 134.963 1994.85 134.705 Q1994.85 134.236 1995.32 134.236 Q1995.65 134.236 1996.79 135.197 Q1997.96 136.157 1999.72 138.359 Q2001.5 140.561 2002.81 143.254 Q2005.98 149.789 2005.98 158.221 Q2005.98 166.325 2002.95 172.86 Q2001.67 175.6 1999.86 177.896 Q1998.06 180.191 1996.86 181.198 Q1995.67 182.206 1995.32 182.206 Q1994.85 182.206 1994.85 181.737 Z" fill="#000000" fill-rule="evenodd" fill-opacity="1" /><path clip-path="url(#clip610)" d="M2026.58 162.929 Q2026.63 162.343 2027.54 162.343 L2056.94 162.343 Q2058.32 162.343 2058.34 162.882 Q2058.34 163.468 2057.03 163.444 L2027.87 163.444 Q2026.58 163.468 2026.58 162.929 M2026.58 153.56 Q2026.58 152.974 2027.59 152.998 L2056.89 152.998 Q2058.32 152.998 2058.34 153.56 Q2058.34 154.099 2057.12 154.099 L2027.54 154.099 Q2026.58 154.099 2026.58 153.56 Z" fill="#000000" fill-rule="evenodd" fill-opacity="1" /><path clip-path="url(#clip610)" d="M2076.85 170.213 Q2076.85 169.347 2076.92 169.089 Q2077.01 168.831 2077.39 168.433 L2086.59 158.174 Q2091.63 152.506 2091.63 147.564 Q2091.63 144.355 2089.94 142.06 Q2088.28 139.764 2085.21 139.764 Q2083.1 139.764 2081.32 141.052 Q2079.54 142.341 2078.72 144.636 Q2078.86 144.589 2079.36 144.589 Q2080.55 144.589 2081.21 145.339 Q2081.89 146.088 2081.89 147.095 Q2081.89 148.384 2081.04 149.016 Q2080.22 149.625 2079.4 149.625 Q2079.07 149.625 2078.63 149.555 Q2078.21 149.484 2077.53 148.829 Q2076.85 148.149 2076.85 146.955 Q2076.85 143.605 2079.38 140.935 Q2081.93 138.265 2085.82 138.265 Q2090.22 138.265 2093.1 140.888 Q2096.01 143.488 2096.01 147.564 Q2096.01 148.993 2095.56 150.304 Q2095.14 151.592 2094.56 152.6 Q2093.99 153.607 2092.45 155.223 Q2090.9 156.839 2089.66 157.987 Q2088.42 159.135 2085.63 161.57 L2080.55 166.513 L2089.19 166.513 Q2093.41 166.513 2093.74 166.138 Q2094.21 165.459 2094.79 161.875 L2096.01 161.875 L2094.65 170.213 L2076.85 170.213 Z" fill="#000000" fill-rule="evenodd" fill-opacity="1" /><path clip-path="url(#clip610)" d="M2124.5 152.178 Q2124.5 153.49 2123.68 154.239 Q2122.86 154.965 2121.92 154.965 Q2121.03 154.965 2120.56 154.45 Q2120.09 153.935 2120.09 153.279 Q2120.09 152.389 2120.75 151.616 Q2121.4 150.843 2122.39 150.679 Q2121.43 150.07 2120 150.07 Q2119.06 150.07 2118.24 150.562 Q2117.45 151.054 2116.95 151.686 Q2116.49 152.319 2116.06 153.232 Q2115.67 154.122 2115.5 154.661 Q2115.36 155.176 2115.24 155.738 L2113.61 162.297 Q2112.81 165.412 2112.81 166.513 Q2112.81 167.871 2113.46 168.785 Q2114.12 169.675 2115.43 169.675 Q2115.95 169.675 2116.53 169.534 Q2117.12 169.37 2117.87 168.949 Q2118.64 168.503 2119.32 167.848 Q2120.02 167.168 2120.7 166.021 Q2121.38 164.873 2121.83 163.397 Q2121.97 162.882 2122.44 162.882 Q2123.02 162.882 2123.02 163.351 Q2123.02 163.749 2122.69 164.592 Q2122.39 165.412 2121.71 166.489 Q2121.05 167.543 2120.19 168.503 Q2119.32 169.44 2118.03 170.096 Q2116.74 170.752 2115.34 170.752 Q2113.32 170.752 2111.99 169.675 Q2110.65 168.597 2110.16 167.098 Q2110.04 167.309 2109.88 167.59 Q2109.72 167.871 2109.23 168.503 Q2108.76 169.112 2108.22 169.581 Q2107.68 170.026 2106.84 170.377 Q2106.02 170.752 2105.13 170.752 Q2104 170.752 2102.99 170.424 Q2102.01 170.096 2101.31 169.347 Q2100.61 168.597 2100.61 167.567 Q2100.61 166.419 2101.38 165.623 Q2102.17 164.803 2103.25 164.803 Q2103.93 164.803 2104.47 165.201 Q2105.03 165.599 2105.03 166.466 Q2105.03 167.426 2104.38 168.152 Q2103.72 168.878 2102.78 169.066 Q2103.74 169.675 2105.17 169.675 Q2106.72 169.675 2107.94 168.316 Q2109.15 166.958 2109.74 164.686 Q2111.19 159.228 2111.75 156.792 Q2112.32 154.333 2112.32 153.279 Q2112.32 152.295 2112.06 151.616 Q2111.8 150.937 2111.36 150.632 Q2110.93 150.304 2110.54 150.187 Q2110.16 150.07 2109.74 150.07 Q2109.04 150.07 2108.24 150.351 Q2107.47 150.632 2106.53 151.288 Q2105.62 151.92 2104.75 153.232 Q2103.88 154.544 2103.3 156.347 Q2103.18 156.886 2102.67 156.886 Q2102.1 156.863 2102.1 156.394 Q2102.1 155.996 2102.41 155.176 Q2102.74 154.333 2103.39 153.279 Q2104.07 152.225 2104.94 151.288 Q2105.83 150.328 2107.12 149.672 Q2108.43 149.016 2109.83 149.016 Q2110.47 149.016 2111.08 149.157 Q2111.71 149.274 2112.46 149.625 Q2113.23 149.976 2113.91 150.749 Q2114.59 151.522 2115.01 152.646 Q2115.29 152.108 2115.67 151.592 Q2116.06 151.077 2116.67 150.445 Q2117.31 149.789 2118.17 149.414 Q2119.06 149.016 2120.05 149.016 Q2121.01 149.016 2121.94 149.274 Q2122.88 149.508 2123.68 150.281 Q2124.5 151.03 2124.5 152.178 Z" fill="#000000" fill-rule="evenodd" fill-opacity="1" /><path clip-path="url(#clip610)" d="M2129.39 150.598 Q2129.39 149.597 2129.96 149.122 Q2130.53 148.646 2131.27 148.646 Q2132.04 148.646 2132.58 149.155 Q2133.14 149.647 2133.14 150.516 Q2133.14 151.45 2132.48 151.975 Q2131.84 152.499 2130.93 152.368 Q2131.73 153.713 2133.21 154.319 Q2134.7 154.926 2136.08 154.926 Q2137.52 154.926 2138.68 153.68 Q2139.86 152.434 2139.86 149.384 Q2139.86 146.794 2138.85 145.302 Q2137.85 143.81 2135.86 143.81 L2134.39 143.81 Q2133.88 143.81 2133.73 143.76 Q2133.58 143.711 2133.58 143.433 Q2133.58 143.105 2134.09 143.039 Q2134.6 143.039 2135.4 142.941 Q2137.35 142.875 2138.39 141.186 Q2139.32 139.612 2139.32 137.366 Q2139.32 135.317 2138.34 134.464 Q2137.37 133.595 2136.11 133.595 Q2134.93 133.595 2133.63 134.087 Q2132.34 134.579 2131.63 135.677 Q2133.71 135.677 2133.71 137.366 Q2133.71 138.104 2133.24 138.596 Q2132.78 139.071 2132.01 139.071 Q2131.27 139.071 2130.78 138.612 Q2130.29 138.137 2130.29 137.333 Q2130.29 135.415 2131.99 134.087 Q2133.71 132.759 2136.24 132.759 Q2138.73 132.759 2140.57 134.071 Q2142.42 135.382 2142.42 137.399 Q2142.42 139.383 2141.11 141.006 Q2139.8 142.629 2137.71 143.301 Q2140.27 143.81 2141.8 145.548 Q2143.32 147.269 2143.32 149.384 Q2143.32 152.008 2141.26 153.942 Q2139.19 155.861 2136.17 155.861 Q2133.39 155.861 2131.39 154.352 Q2129.39 152.844 2129.39 150.598 Z" fill="#000000" fill-rule="evenodd" fill-opacity="1" /><path clip-path="url(#clip610)" d="M2193.28 157.542 Q2193.56 157.823 2193.56 158.221 Q2193.56 158.619 2193.28 158.9 Q2193 159.181 2192.6 159.181 L2162.57 159.181 Q2162.17 159.181 2161.89 158.9 Q2161.61 158.619 2161.61 158.221 Q2161.61 157.823 2161.89 157.542 Q2162.17 157.261 2162.57 157.261 L2192.6 157.261 Q2193 157.261 2193.28 157.542 Z" fill="#000000" fill-rule="evenodd" fill-opacity="1" /><path clip-path="url(#clip610)" d="M2211.88 163.749 Q2211.88 162.32 2212.7 161.641 Q2213.52 160.961 2214.57 160.961 Q2215.67 160.961 2216.45 161.688 Q2217.24 162.39 2217.24 163.632 Q2217.24 164.967 2216.31 165.716 Q2215.39 166.466 2214.08 166.278 Q2215.23 168.199 2217.34 169.066 Q2219.47 169.932 2221.43 169.932 Q2223.5 169.932 2225.16 168.152 Q2226.85 166.372 2226.85 162.015 Q2226.85 158.315 2225.39 156.183 Q2223.96 154.052 2221.13 154.052 L2219.02 154.052 Q2218.3 154.052 2218.09 153.982 Q2217.87 153.911 2217.87 153.513 Q2217.87 153.045 2218.6 152.951 Q2219.33 152.951 2220.47 152.81 Q2223.26 152.717 2224.74 150.304 Q2226.07 148.056 2226.07 144.847 Q2226.07 141.919 2224.67 140.701 Q2223.29 139.46 2221.48 139.46 Q2219.8 139.46 2217.95 140.162 Q2216.09 140.865 2215.09 142.434 Q2218.06 142.434 2218.06 144.847 Q2218.06 145.901 2217.38 146.603 Q2216.73 147.283 2215.63 147.283 Q2214.57 147.283 2213.87 146.627 Q2213.17 145.948 2213.17 144.8 Q2213.17 142.06 2215.6 140.162 Q2218.06 138.265 2221.67 138.265 Q2225.23 138.265 2227.85 140.139 Q2230.5 142.013 2230.5 144.894 Q2230.5 147.728 2228.63 150.047 Q2226.75 152.365 2223.78 153.326 Q2227.43 154.052 2229.61 156.535 Q2231.79 158.994 2231.79 162.015 Q2231.79 165.763 2228.84 168.527 Q2225.89 171.267 2221.58 171.267 Q2217.59 171.267 2214.74 169.112 Q2211.88 166.958 2211.88 163.749 Z" fill="#000000" fill-rule="evenodd" fill-opacity="1" /><path clip-path="url(#clip610)" d="M2259.53 152.178 Q2259.53 153.49 2258.71 154.239 Q2257.89 154.965 2256.95 154.965 Q2256.06 154.965 2255.59 154.45 Q2255.12 153.935 2255.12 153.279 Q2255.12 152.389 2255.78 151.616 Q2256.43 150.843 2257.42 150.679 Q2256.46 150.07 2255.03 150.07 Q2254.09 150.07 2253.27 150.562 Q2252.48 151.054 2251.98 151.686 Q2251.52 152.319 2251.09 153.232 Q2250.7 154.122 2250.53 154.661 Q2250.39 155.176 2250.27 155.738 L2248.63 162.297 Q2247.84 165.412 2247.84 166.513 Q2247.84 167.871 2248.49 168.785 Q2249.15 169.675 2250.46 169.675 Q2250.98 169.675 2251.56 169.534 Q2252.15 169.37 2252.9 168.949 Q2253.67 168.503 2254.35 167.848 Q2255.05 167.168 2255.73 166.021 Q2256.41 164.873 2256.86 163.397 Q2257 162.882 2257.46 162.882 Q2258.05 162.882 2258.05 163.351 Q2258.05 163.749 2257.72 164.592 Q2257.42 165.412 2256.74 166.489 Q2256.08 167.543 2255.22 168.503 Q2254.35 169.44 2253.06 170.096 Q2251.77 170.752 2250.37 170.752 Q2248.35 170.752 2247.02 169.675 Q2245.68 168.597 2245.19 167.098 Q2245.07 167.309 2244.91 167.59 Q2244.75 167.871 2244.25 168.503 Q2243.79 169.112 2243.25 169.581 Q2242.71 170.026 2241.87 170.377 Q2241.05 170.752 2240.16 170.752 Q2239.03 170.752 2238.02 170.424 Q2237.04 170.096 2236.34 169.347 Q2235.63 168.597 2235.63 167.567 Q2235.63 166.419 2236.41 165.623 Q2237.2 164.803 2238.28 164.803 Q2238.96 164.803 2239.5 165.201 Q2240.06 165.599 2240.06 166.466 Q2240.06 167.426 2239.41 168.152 Q2238.75 168.878 2237.81 169.066 Q2238.77 169.675 2240.2 169.675 Q2241.75 169.675 2242.97 168.316 Q2244.18 166.958 2244.77 164.686 Q2246.22 159.228 2246.78 156.792 Q2247.35 154.333 2247.35 153.279 Q2247.35 152.295 2247.09 151.616 Q2246.83 150.937 2246.39 150.632 Q2245.96 150.304 2245.57 150.187 Q2245.19 150.07 2244.77 150.07 Q2244.07 150.07 2243.27 150.351 Q2242.5 150.632 2241.56 151.288 Q2240.65 151.92 2239.78 153.232 Q2238.91 154.544 2238.33 156.347 Q2238.21 156.886 2237.7 156.886 Q2237.13 156.863 2237.13 156.394 Q2237.13 155.996 2237.44 155.176 Q2237.77 154.333 2238.42 153.279 Q2239.1 152.225 2239.97 151.288 Q2240.86 150.328 2242.15 149.672 Q2243.46 149.016 2244.86 149.016 Q2245.5 149.016 2246.1 149.157 Q2246.74 149.274 2247.49 149.625 Q2248.26 149.976 2248.94 150.749 Q2249.62 151.522 2250.04 152.646 Q2250.32 152.108 2250.7 151.592 Q2251.09 151.077 2251.7 150.445 Q2252.34 149.789 2253.2 149.414 Q2254.09 149.016 2255.08 149.016 Q2256.04 149.016 2256.97 149.274 Q2257.91 149.508 2258.71 150.281 Q2259.53 151.03 2259.53 152.178 Z" fill="#000000" fill-rule="evenodd" fill-opacity="1" /><path clip-path="url(#clip610)" d="M2264.41 155.858 Q2264.41 155.251 2264.46 155.071 Q2264.53 154.89 2264.79 154.612 L2271.24 147.43 Q2274.76 143.463 2274.76 140.003 Q2274.76 137.757 2273.58 136.15 Q2272.42 134.543 2270.27 134.543 Q2268.79 134.543 2267.55 135.445 Q2266.3 136.347 2265.73 137.954 Q2265.82 137.921 2266.17 137.921 Q2267.01 137.921 2267.46 138.445 Q2267.94 138.97 2267.94 139.675 Q2267.94 140.577 2267.35 141.02 Q2266.78 141.446 2266.2 141.446 Q2265.97 141.446 2265.66 141.397 Q2265.37 141.348 2264.89 140.888 Q2264.41 140.413 2264.41 139.577 Q2264.41 137.232 2266.19 135.363 Q2267.97 133.494 2270.69 133.494 Q2273.78 133.494 2275.79 135.33 Q2277.83 137.15 2277.83 140.003 Q2277.83 141.003 2277.52 141.921 Q2277.22 142.823 2276.81 143.528 Q2276.42 144.233 2275.33 145.364 Q2274.25 146.496 2273.38 147.299 Q2272.51 148.103 2270.56 149.808 L2267.01 153.267 L2273.06 153.267 Q2276.01 153.267 2276.24 153.005 Q2276.56 152.529 2276.97 150.021 L2277.83 150.021 L2276.88 155.858 L2264.41 155.858 Z" fill="#000000" fill-rule="evenodd" fill-opacity="1" /><path clip-path="url(#clip610)" d="M2327.79 157.542 Q2328.07 157.823 2328.07 158.221 Q2328.07 158.619 2327.79 158.9 Q2327.51 159.181 2327.11 159.181 L2297.09 159.181 Q2296.69 159.181 2296.41 158.9 Q2296.13 158.619 2296.13 158.221 Q2296.13 157.823 2296.41 157.542 Q2296.69 157.261 2297.09 157.261 L2327.11 157.261 Q2327.51 157.261 2327.79 157.542 Z" fill="#000000" fill-rule="evenodd" fill-opacity="1" /><path clip-path="url(#clip610)" d="M2346.39 142.832 L2346.39 141.333 Q2352.16 141.333 2355.13 138.265 Q2355.95 138.265 2356.09 138.452 Q2356.23 138.64 2356.23 139.506 L2356.23 166.419 Q2356.23 167.848 2356.93 168.293 Q2357.64 168.738 2360.7 168.738 L2362.23 168.738 L2362.23 170.213 Q2360.54 170.073 2354.45 170.073 Q2348.36 170.073 2346.7 170.213 L2346.7 168.738 L2348.22 168.738 Q2351.24 168.738 2351.97 168.316 Q2352.69 167.871 2352.69 166.419 L2352.69 141.568 Q2350.19 142.832 2346.39 142.832 Z" fill="#000000" fill-rule="evenodd" fill-opacity="1" /><path clip-path="url(#clip610)" d="M2366.65 170.213 Q2366.65 169.347 2366.72 169.089 Q2366.82 168.831 2367.19 168.433 L2376.4 158.174 Q2381.43 152.506 2381.43 147.564 Q2381.43 144.355 2379.75 142.06 Q2378.08 139.764 2375.02 139.764 Q2372.91 139.764 2371.13 141.052 Q2369.35 142.341 2368.53 144.636 Q2368.67 144.589 2369.16 144.589 Q2370.35 144.589 2371.01 145.339 Q2371.69 146.088 2371.69 147.095 Q2371.69 148.384 2370.85 149.016 Q2370.03 149.625 2369.21 149.625 Q2368.88 149.625 2368.43 149.555 Q2368.01 149.484 2367.33 148.829 Q2366.65 148.149 2366.65 146.955 Q2366.65 143.605 2369.18 140.935 Q2371.74 138.265 2375.62 138.265 Q2380.03 138.265 2382.91 140.888 Q2385.81 143.488 2385.81 147.564 Q2385.81 148.993 2385.37 150.304 Q2384.95 151.592 2384.36 152.6 Q2383.8 153.607 2382.25 155.223 Q2380.71 156.839 2379.47 157.987 Q2378.22 159.135 2375.44 161.57 L2370.35 166.513 L2379 166.513 Q2383.21 166.513 2383.54 166.138 Q2384.01 165.459 2384.6 161.875 L2385.81 161.875 L2384.45 170.213 L2366.65 170.213 Z" fill="#000000" fill-rule="evenodd" fill-opacity="1" /><path clip-path="url(#clip610)" d="M2413.53 152.178 Q2413.53 153.49 2412.71 154.239 Q2411.89 154.965 2410.96 154.965 Q2410.07 154.965 2409.6 154.45 Q2409.13 153.935 2409.13 153.279 Q2409.13 152.389 2409.79 151.616 Q2410.44 150.843 2411.42 150.679 Q2410.46 150.07 2409.04 150.07 Q2408.1 150.07 2407.28 150.562 Q2406.48 151.054 2405.99 151.686 Q2405.52 152.319 2405.1 153.232 Q2404.7 154.122 2404.54 154.661 Q2404.4 155.176 2404.28 155.738 L2402.64 162.297 Q2401.85 165.412 2401.85 166.513 Q2401.85 167.871 2402.5 168.785 Q2403.16 169.675 2404.47 169.675 Q2404.98 169.675 2405.57 169.534 Q2406.15 169.37 2406.9 168.949 Q2407.68 168.503 2408.36 167.848 Q2409.06 167.168 2409.74 166.021 Q2410.42 164.873 2410.86 163.397 Q2411 162.882 2411.47 162.882 Q2412.06 162.882 2412.06 163.351 Q2412.06 163.749 2411.73 164.592 Q2411.42 165.412 2410.75 166.489 Q2410.09 167.543 2409.22 168.503 Q2408.36 169.44 2407.07 170.096 Q2405.78 170.752 2404.37 170.752 Q2402.36 170.752 2401.03 169.675 Q2399.69 168.597 2399.2 167.098 Q2399.08 167.309 2398.92 167.59 Q2398.75 167.871 2398.26 168.503 Q2397.79 169.112 2397.25 169.581 Q2396.72 170.026 2395.87 170.377 Q2395.05 170.752 2394.16 170.752 Q2393.04 170.752 2392.03 170.424 Q2391.05 170.096 2390.34 169.347 Q2389.64 168.597 2389.64 167.567 Q2389.64 166.419 2390.41 165.623 Q2391.21 164.803 2392.29 164.803 Q2392.97 164.803 2393.51 165.201 Q2394.07 165.599 2394.07 166.466 Q2394.07 167.426 2393.41 168.152 Q2392.76 168.878 2391.82 169.066 Q2392.78 169.675 2394.21 169.675 Q2395.76 169.675 2396.97 168.316 Q2398.19 166.958 2398.78 164.686 Q2400.23 159.228 2400.79 156.792 Q2401.35 154.333 2401.35 153.279 Q2401.35 152.295 2401.1 151.616 Q2400.84 150.937 2400.39 150.632 Q2399.97 150.304 2399.57 150.187 Q2399.2 150.07 2398.78 150.07 Q2398.07 150.07 2397.28 150.351 Q2396.5 150.632 2395.57 151.288 Q2394.65 151.92 2393.79 153.232 Q2392.92 154.544 2392.34 156.347 Q2392.22 156.886 2391.7 156.886 Q2391.14 156.863 2391.14 156.394 Q2391.14 155.996 2391.45 155.176 Q2391.77 154.333 2392.43 153.279 Q2393.11 152.225 2393.98 151.288 Q2394.87 150.328 2396.15 149.672 Q2397.47 149.016 2398.87 149.016 Q2399.5 149.016 2400.11 149.157 Q2400.74 149.274 2401.49 149.625 Q2402.27 149.976 2402.95 150.749 Q2403.63 151.522 2404.05 152.646 Q2404.33 152.108 2404.7 151.592 Q2405.1 151.077 2405.71 150.445 Q2406.34 149.789 2407.21 149.414 Q2408.1 149.016 2409.08 149.016 Q2410.04 149.016 2410.98 149.274 Q2411.92 149.508 2412.71 150.281 Q2413.53 151.03 2413.53 152.178 Z" fill="#000000" fill-rule="evenodd" fill-opacity="1" /><path clip-path="url(#clip610)" d="M2431.22 158.807 Q2430.12 158.807 2430.12 158.221 Q2430.12 157.635 2431.27 157.635 Q2431.41 157.635 2431.64 157.659 Q2431.9 157.682 2431.95 157.682 L2445.46 157.682 L2445.46 144.121 Q2445.46 144.074 2445.44 143.863 Q2445.41 143.629 2445.41 143.488 Q2445.41 142.341 2445.98 142.341 Q2446.56 142.341 2446.56 143.488 L2446.56 157.682 L2460.1 157.682 Q2460.15 157.682 2460.38 157.659 Q2460.62 157.635 2460.76 157.635 Q2461.86 157.635 2461.86 158.221 Q2461.88 158.807 2460.71 158.807 Q2460.57 158.807 2460.36 158.783 Q2460.15 158.76 2460.1 158.76 L2446.56 158.76 L2446.56 173.001 Q2446.56 174.101 2445.98 174.101 Q2445.41 174.101 2445.41 172.954 Q2445.41 172.813 2445.44 172.579 Q2445.46 172.368 2445.46 172.321 L2445.46 158.76 L2431.95 158.76 Q2431.9 158.76 2431.62 158.783 Q2431.36 158.807 2431.22 158.807 Z" fill="#000000" fill-rule="evenodd" fill-opacity="1" /><path clip-path="url(#clip610)" d="M2480.39 162.297 L2480.39 160.821 L2495.12 138.312 Q2495.5 137.726 2496.08 137.75 Q2496.62 137.75 2496.74 137.961 Q2496.85 138.171 2496.85 138.991 L2496.85 160.821 L2501.66 160.821 L2501.66 162.297 L2496.85 162.297 L2496.85 166.466 Q2496.85 167.848 2497.42 168.293 Q2498 168.738 2500.48 168.738 L2501.49 168.738 L2501.49 170.213 Q2499.52 170.073 2494.98 170.073 Q2490.46 170.073 2488.49 170.213 L2488.49 168.738 L2489.5 168.738 Q2491.98 168.738 2492.57 168.316 Q2493.15 167.871 2493.15 166.466 L2493.15 162.297 L2480.39 162.297 M2481.75 160.821 L2493.43 160.821 L2493.43 142.926 L2481.75 160.821 Z" fill="#000000" fill-rule="evenodd" fill-opacity="1" /></svg>
