<?xml version="1.0" encoding="utf-8"?>
<svg xmlns="http://www.w3.org/2000/svg" xmlns:xlink="http://www.w3.org/1999/xlink" width="672" height="480" viewBox="0 0 2688 1920">
<defs>
  <clipPath id="clip820">
    <rect x="0" y="0" width="2688" height="1920"/>
  </clipPath>
</defs>
<path clip-path="url(#clip820)" d="
M0 1920 L2688 1920 L2688 0 L0 0  Z
  " fill="#ffffff" fill-rule="evenodd" fill-opacity="1"/>
<defs>
  <clipPath id="clip821">
    <rect x="537" y="0" width="1883" height="1883"/>
  </clipPath>
</defs>
<defs>
  <clipPath id="clip822">
    <rect x="180" y="47" width="2461" height="1688"/>
  </clipPath>
</defs>
<path clip-path="url(#clip820)" d="
M181.747 1800.78 L2640.76 1800.78 L2640.76 47.2441 L181.747 47.2441  Z
  " fill="#ffffff" fill-rule="evenodd" fill-opacity="1"/>
<defs>
  <clipPath id="clip823">
    <rect x="181" y="47" width="2460" height="1755"/>
  </clipPath>
</defs>
<polyline clip-path="url(#clip823)" style="stroke:#000000; stroke-linecap:round; stroke-linejoin:round; stroke-width:2; stroke-opacity:0.1; fill:none" points="
  582.744,1800.78 582.744,47.2441 
  "/>
<polyline clip-path="url(#clip823)" style="stroke:#000000; stroke-linecap:round; stroke-linejoin:round; stroke-width:2; stroke-opacity:0.1; fill:none" points="
  1245.55,1800.78 1245.55,47.2441 
  "/>
<polyline clip-path="url(#clip823)" style="stroke:#000000; stroke-linecap:round; stroke-linejoin:round; stroke-width:2; stroke-opacity:0.1; fill:none" points="
  1908.36,1800.78 1908.36,47.2441 
  "/>
<polyline clip-path="url(#clip823)" style="stroke:#000000; stroke-linecap:round; stroke-linejoin:round; stroke-width:2; stroke-opacity:0.1; fill:none" points="
  2571.16,1800.78 2571.16,47.2441 
  "/>
<polyline clip-path="url(#clip820)" style="stroke:#000000; stroke-linecap:round; stroke-linejoin:round; stroke-width:4; stroke-opacity:1; fill:none" points="
  181.747,1800.78 2640.76,1800.78 
  "/>
<polyline clip-path="url(#clip820)" style="stroke:#000000; stroke-linecap:round; stroke-linejoin:round; stroke-width:4; stroke-opacity:1; fill:none" points="
  582.744,1800.78 582.744,1781.88 
  "/>
<polyline clip-path="url(#clip820)" style="stroke:#000000; stroke-linecap:round; stroke-linejoin:round; stroke-width:4; stroke-opacity:1; fill:none" points="
  1245.55,1800.78 1245.55,1781.88 
  "/>
<polyline clip-path="url(#clip820)" style="stroke:#000000; stroke-linecap:round; stroke-linejoin:round; stroke-width:4; stroke-opacity:1; fill:none" points="
  1908.36,1800.78 1908.36,1781.88 
  "/>
<polyline clip-path="url(#clip820)" style="stroke:#000000; stroke-linecap:round; stroke-linejoin:round; stroke-width:4; stroke-opacity:1; fill:none" points="
  2571.16,1800.78 2571.16,1781.88 
  "/>
<path clip-path="url(#clip820)" d="M552.686 1848.65 L582.362 1848.65 L582.362 1852.59 L552.686 1852.59 L552.686 1848.65 Z" fill="#000000" fill-rule="evenodd" fill-opacity="1" /><path clip-path="url(#clip820)" d="M596.482 1861.55 L612.802 1861.55 L612.802 1865.48 L590.857 1865.48 L590.857 1861.55 Q593.52 1858.79 598.103 1854.16 Q602.709 1849.51 603.89 1848.17 Q606.135 1845.65 607.015 1843.91 Q607.918 1842.15 607.918 1840.46 Q607.918 1837.71 605.973 1835.97 Q604.052 1834.23 600.95 1834.23 Q598.751 1834.23 596.297 1835 Q593.867 1835.76 591.089 1837.31 L591.089 1832.59 Q593.913 1831.46 596.367 1830.88 Q598.82 1830.3 600.857 1830.3 Q606.228 1830.3 609.422 1832.98 Q612.617 1835.67 612.617 1840.16 Q612.617 1842.29 611.806 1844.21 Q611.019 1846.11 608.913 1848.7 Q608.334 1849.37 605.232 1852.59 Q602.131 1855.78 596.482 1861.55 Z" fill="#000000" fill-rule="evenodd" fill-opacity="1" /><path clip-path="url(#clip820)" d="M1245.55 1834 Q1241.94 1834 1240.11 1837.57 Q1238.3 1841.11 1238.3 1848.24 Q1238.3 1855.34 1240.11 1858.91 Q1241.94 1862.45 1245.55 1862.45 Q1249.18 1862.45 1250.99 1858.91 Q1252.82 1855.34 1252.82 1848.24 Q1252.82 1841.11 1250.99 1837.57 Q1249.18 1834 1245.55 1834 M1245.55 1830.3 Q1251.36 1830.3 1254.42 1834.9 Q1257.49 1839.49 1257.49 1848.24 Q1257.49 1856.96 1254.42 1861.57 Q1251.36 1866.15 1245.55 1866.15 Q1239.74 1866.15 1236.66 1861.57 Q1233.61 1856.96 1233.61 1848.24 Q1233.61 1839.49 1236.66 1834.9 Q1239.74 1830.3 1245.55 1830.3 Z" fill="#000000" fill-rule="evenodd" fill-opacity="1" /><path clip-path="url(#clip820)" d="M1903.01 1861.55 L1919.33 1861.55 L1919.33 1865.48 L1897.38 1865.48 L1897.38 1861.55 Q1900.05 1858.79 1904.63 1854.16 Q1909.24 1849.51 1910.42 1848.17 Q1912.66 1845.65 1913.54 1843.91 Q1914.44 1842.15 1914.44 1840.46 Q1914.44 1837.71 1912.5 1835.97 Q1910.58 1834.23 1907.48 1834.23 Q1905.28 1834.23 1902.82 1835 Q1900.39 1835.76 1897.61 1837.31 L1897.61 1832.59 Q1900.44 1831.46 1902.89 1830.88 Q1905.35 1830.3 1907.38 1830.3 Q1912.75 1830.3 1915.95 1832.98 Q1919.14 1835.67 1919.14 1840.16 Q1919.14 1842.29 1918.33 1844.21 Q1917.55 1846.11 1915.44 1848.7 Q1914.86 1849.37 1911.76 1852.59 Q1908.66 1855.78 1903.01 1861.55 Z" fill="#000000" fill-rule="evenodd" fill-opacity="1" /><path clip-path="url(#clip820)" d="M2574.17 1835 L2562.37 1853.45 L2574.17 1853.45 L2574.17 1835 M2572.94 1830.92 L2578.82 1830.92 L2578.82 1853.45 L2583.75 1853.45 L2583.75 1857.34 L2578.82 1857.34 L2578.82 1865.48 L2574.17 1865.48 L2574.17 1857.34 L2558.57 1857.34 L2558.57 1852.82 L2572.94 1830.92 Z" fill="#000000" fill-rule="evenodd" fill-opacity="1" /><polyline clip-path="url(#clip823)" style="stroke:#000000; stroke-linecap:round; stroke-linejoin:round; stroke-width:2; stroke-opacity:0.1; fill:none" points="
  181.747,1729.67 2640.76,1729.67 
  "/>
<polyline clip-path="url(#clip823)" style="stroke:#000000; stroke-linecap:round; stroke-linejoin:round; stroke-width:2; stroke-opacity:0.1; fill:none" points="
  181.747,1299.98 2640.76,1299.98 
  "/>
<polyline clip-path="url(#clip823)" style="stroke:#000000; stroke-linecap:round; stroke-linejoin:round; stroke-width:2; stroke-opacity:0.1; fill:none" points="
  181.747,870.301 2640.76,870.301 
  "/>
<polyline clip-path="url(#clip823)" style="stroke:#000000; stroke-linecap:round; stroke-linejoin:round; stroke-width:2; stroke-opacity:0.1; fill:none" points="
  181.747,440.619 2640.76,440.619 
  "/>
<polyline clip-path="url(#clip820)" style="stroke:#000000; stroke-linecap:round; stroke-linejoin:round; stroke-width:4; stroke-opacity:1; fill:none" points="
  181.747,1800.78 181.747,47.2441 
  "/>
<polyline clip-path="url(#clip820)" style="stroke:#000000; stroke-linecap:round; stroke-linejoin:round; stroke-width:4; stroke-opacity:1; fill:none" points="
  181.747,1729.67 200.644,1729.67 
  "/>
<polyline clip-path="url(#clip820)" style="stroke:#000000; stroke-linecap:round; stroke-linejoin:round; stroke-width:4; stroke-opacity:1; fill:none" points="
  181.747,1299.98 200.644,1299.98 
  "/>
<polyline clip-path="url(#clip820)" style="stroke:#000000; stroke-linecap:round; stroke-linejoin:round; stroke-width:4; stroke-opacity:1; fill:none" points="
  181.747,870.301 200.644,870.301 
  "/>
<polyline clip-path="url(#clip820)" style="stroke:#000000; stroke-linecap:round; stroke-linejoin:round; stroke-width:4; stroke-opacity:1; fill:none" points="
  181.747,440.619 200.644,440.619 
  "/>
<path clip-path="url(#clip820)" d="M49.5521 1730.12 L79.2279 1730.12 L79.2279 1734.05 L49.5521 1734.05 L49.5521 1730.12 Z" fill="#000000" fill-rule="evenodd" fill-opacity="1" /><path clip-path="url(#clip820)" d="M102.168 1716.46 L90.3621 1734.91 L102.168 1734.91 L102.168 1716.46 M100.941 1712.39 L106.82 1712.39 L106.82 1734.91 L111.751 1734.91 L111.751 1738.8 L106.82 1738.8 L106.82 1746.95 L102.168 1746.95 L102.168 1738.8 L86.5658 1738.8 L86.5658 1734.28 L100.941 1712.39 Z" fill="#000000" fill-rule="evenodd" fill-opacity="1" /><path clip-path="url(#clip820)" d="M129.482 1715.47 Q125.871 1715.47 124.042 1719.03 Q122.237 1722.57 122.237 1729.7 Q122.237 1736.81 124.042 1740.37 Q125.871 1743.91 129.482 1743.91 Q133.116 1743.91 134.922 1740.37 Q136.751 1736.81 136.751 1729.7 Q136.751 1722.57 134.922 1719.03 Q133.116 1715.47 129.482 1715.47 M129.482 1711.76 Q135.292 1711.76 138.348 1716.37 Q141.427 1720.95 141.427 1729.7 Q141.427 1738.43 138.348 1743.03 Q135.292 1747.62 129.482 1747.62 Q123.672 1747.62 120.593 1743.03 Q117.538 1738.43 117.538 1729.7 Q117.538 1720.95 120.593 1716.37 Q123.672 1711.76 129.482 1711.76 Z" fill="#000000" fill-rule="evenodd" fill-opacity="1" /><path clip-path="url(#clip820)" d="M49.5521 1300.44 L79.2279 1300.44 L79.2279 1304.37 L49.5521 1304.37 L49.5521 1300.44 Z" fill="#000000" fill-rule="evenodd" fill-opacity="1" /><path clip-path="url(#clip820)" d="M93.3482 1313.33 L109.668 1313.33 L109.668 1317.26 L87.7232 1317.26 L87.7232 1313.33 Q90.3852 1310.57 94.9685 1305.94 Q99.575 1301.29 100.756 1299.95 Q103.001 1297.43 103.881 1295.69 Q104.783 1293.93 104.783 1292.24 Q104.783 1289.49 102.839 1287.75 Q100.918 1286.01 97.8158 1286.01 Q95.6167 1286.01 93.163 1286.78 Q90.7325 1287.54 87.9547 1289.09 L87.9547 1284.37 Q90.7788 1283.24 93.2324 1282.66 Q95.6861 1282.08 97.7232 1282.08 Q103.094 1282.08 106.288 1284.76 Q109.482 1287.45 109.482 1291.94 Q109.482 1294.07 108.672 1295.99 Q107.885 1297.89 105.779 1300.48 Q105.2 1301.15 102.098 1304.37 Q98.9963 1307.57 93.3482 1313.33 Z" fill="#000000" fill-rule="evenodd" fill-opacity="1" /><path clip-path="url(#clip820)" d="M129.482 1285.78 Q125.871 1285.78 124.042 1289.35 Q122.237 1292.89 122.237 1300.02 Q122.237 1307.13 124.042 1310.69 Q125.871 1314.23 129.482 1314.23 Q133.116 1314.23 134.922 1310.69 Q136.751 1307.13 136.751 1300.02 Q136.751 1292.89 134.922 1289.35 Q133.116 1285.78 129.482 1285.78 M129.482 1282.08 Q135.292 1282.08 138.348 1286.69 Q141.427 1291.27 141.427 1300.02 Q141.427 1308.75 138.348 1313.35 Q135.292 1317.94 129.482 1317.94 Q123.672 1317.94 120.593 1313.35 Q117.538 1308.75 117.538 1300.02 Q117.538 1291.27 120.593 1286.69 Q123.672 1282.08 129.482 1282.08 Z" fill="#000000" fill-rule="evenodd" fill-opacity="1" /><path clip-path="url(#clip820)" d="M129.482 856.1 Q125.871 856.1 124.042 859.665 Q122.237 863.206 122.237 870.336 Q122.237 877.443 124.042 881.007 Q125.871 884.549 129.482 884.549 Q133.116 884.549 134.922 881.007 Q136.751 877.443 136.751 870.336 Q136.751 863.206 134.922 859.665 Q133.116 856.1 129.482 856.1 M129.482 852.396 Q135.292 852.396 138.348 857.003 Q141.427 861.586 141.427 870.336 Q141.427 879.063 138.348 883.669 Q135.292 888.253 129.482 888.253 Q123.672 888.253 120.593 883.669 Q117.538 879.063 117.538 870.336 Q117.538 861.586 120.593 857.003 Q123.672 852.396 129.482 852.396 Z" fill="#000000" fill-rule="evenodd" fill-opacity="1" /><path clip-path="url(#clip820)" d="M93.3482 453.963 L109.668 453.963 L109.668 457.899 L87.7232 457.899 L87.7232 453.963 Q90.3852 451.209 94.9685 446.579 Q99.575 441.926 100.756 440.584 Q103.001 438.061 103.881 436.325 Q104.783 434.565 104.783 432.876 Q104.783 430.121 102.839 428.385 Q100.918 426.649 97.8158 426.649 Q95.6167 426.649 93.163 427.413 Q90.7325 428.177 87.9547 429.727 L87.9547 425.005 Q90.7788 423.871 93.2324 423.292 Q95.6861 422.714 97.7232 422.714 Q103.094 422.714 106.288 425.399 Q109.482 428.084 109.482 432.575 Q109.482 434.704 108.672 436.626 Q107.885 438.524 105.779 441.116 Q105.2 441.788 102.098 445.005 Q98.9963 448.2 93.3482 453.963 Z" fill="#000000" fill-rule="evenodd" fill-opacity="1" /><path clip-path="url(#clip820)" d="M129.482 426.417 Q125.871 426.417 124.042 429.982 Q122.237 433.524 122.237 440.653 Q122.237 447.76 124.042 451.325 Q125.871 454.866 129.482 454.866 Q133.116 454.866 134.922 451.325 Q136.751 447.76 136.751 440.653 Q136.751 433.524 134.922 429.982 Q133.116 426.417 129.482 426.417 M129.482 422.714 Q135.292 422.714 138.348 427.32 Q141.427 431.903 141.427 440.653 Q141.427 449.38 138.348 453.987 Q135.292 458.57 129.482 458.57 Q123.672 458.57 120.593 453.987 Q117.538 449.38 117.538 440.653 Q117.538 431.903 120.593 427.32 Q123.672 422.714 129.482 422.714 Z" fill="#000000" fill-rule="evenodd" fill-opacity="1" /><polyline clip-path="url(#clip823)" style="stroke:#009af9; stroke-linecap:round; stroke-linejoin:round; stroke-width:4; stroke-opacity:1; fill:none" points="
  251.341,1751.15 255.117,1736.52 258.893,1722.01 262.669,1707.62 266.445,1693.34 283.901,1628.82 301.357,1566.73 318.814,1507.04 336.27,1449.71 353.727,1394.7 
  371.183,1341.97 388.64,1291.49 406.096,1243.21 427.078,1188.05 448.059,1135.97 469.04,1086.88 490.021,1040.73 507.761,1003.96 525.5,969.202 543.239,936.418 
  560.979,905.568 580.249,874.202 599.518,845.023 618.788,817.978 638.058,793.018 655.823,771.809 673.589,752.29 691.354,734.419 709.119,718.158 728.165,702.466 
  747.211,688.53 766.257,676.3 785.303,665.727 807.37,655.486 829.437,647.327 851.504,641.175 873.571,636.953 893.181,634.761 912.791,633.979 932.402,634.555 
  952.012,636.436 986.405,642.723 1020.8,652.569 1058.3,667.022 1095.79,684.99 1133.51,706.235 1171.23,730.278 1212.94,759.661 1254.64,791.487 1294.33,823.568 
  1334.01,856.953 1416.52,928.627 1485.99,988.926 1528.39,1024.63 1570.79,1058.85 1609.64,1088.42 1648.48,1115.87 1684.36,1138.98 1720.23,1159.6 1756.57,1177.62 
  1792.91,1192.4 1813.28,1199.15 1833.64,1204.71 1854.01,1209.04 1874.37,1212.06 1892.82,1213.63 1911.28,1214.03 1929.73,1213.23 1948.18,1211.18 1969.31,1207.24 
  1990.44,1201.53 2011.56,1194 2032.69,1184.56 2052.25,1174.08 2071.81,1161.85 2091.38,1147.84 2110.94,1131.98 2130.22,1114.49 2149.51,1095.11 2168.8,1073.78 
  2188.08,1050.45 2206.81,1025.85 2225.53,999.266 2244.26,970.663 2262.98,939.992 2282.18,906.354 2301.37,870.442 2320.57,832.208 2339.76,791.6 2360.79,744.326 
  2381.83,694.077 2402.86,640.787 2423.89,584.39 2439.16,541.442 2454.44,496.796 2469.71,450.425 2484.99,402.305 2500.26,352.41 2515.54,300.715 2530.82,247.195 
  2546.09,191.824 2552.36,168.564 2558.63,144.987 2564.89,121.09 2571.16,96.8724 
  "/>
<path clip-path="url(#clip820)" d="
M1729.94 209.375 L2558.79 209.375 L2558.79 105.695 L1729.94 105.695  Z
  " fill="#ffffff" fill-rule="evenodd" fill-opacity="1"/>
<polyline clip-path="url(#clip820)" style="stroke:#000000; stroke-linecap:round; stroke-linejoin:round; stroke-width:4; stroke-opacity:1; fill:none" points="
  1729.94,209.375 2558.79,209.375 2558.79,105.695 1729.94,105.695 1729.94,209.375 
  "/>
<polyline clip-path="url(#clip820)" style="stroke:#009af9; stroke-linecap:round; stroke-linejoin:round; stroke-width:4; stroke-opacity:1; fill:none" points="
  1757.26,157.535 1921.19,157.535 
  "/>
<path clip-path="url(#clip820)" d="M1972.43 139.694 Q1972.43 140.982 1971.61 141.778 Q1970.81 142.575 1969.81 142.575 Q1969.08 142.575 1968.54 142.13 Q1968.03 141.685 1968.03 140.912 Q1968.03 140.115 1968.64 139.272 Q1969.24 138.429 1970.63 138.312 Q1969.71 137.445 1968.26 137.445 Q1967.53 137.445 1966.93 137.914 Q1966.34 138.359 1966.01 139.085 Q1965.66 139.834 1964.86 144.074 Q1964.61 145.456 1964.37 146.791 Q1964.14 148.126 1963.86 149.531 L1967.84 149.531 Q1968.35 149.531 1968.57 149.555 Q1968.78 149.578 1968.94 149.695 Q1969.13 149.812 1969.13 150.07 Q1969.13 150.726 1968.82 150.89 Q1968.54 151.03 1967.7 151.03 L1963.58 151.03 L1960.7 166.232 Q1960.63 166.677 1960.32 168.082 Q1960.04 169.464 1959.36 171.736 Q1958.68 174.031 1958 175.39 Q1957.63 176.163 1957.14 176.889 Q1956.67 177.638 1955.99 178.388 Q1955.31 179.137 1954.42 179.582 Q1953.53 180.051 1952.59 180.051 Q1951 180.051 1949.76 179.161 Q1948.52 178.271 1948.52 176.748 Q1948.52 175.46 1949.31 174.664 Q1950.13 173.867 1951.14 173.867 Q1951.87 173.867 1952.38 174.312 Q1952.92 174.757 1952.92 175.53 Q1952.92 175.858 1952.8 176.233 Q1952.68 176.608 1952.43 177.029 Q1952.17 177.474 1951.61 177.779 Q1951.05 178.083 1950.27 178.13 Q1951.19 178.997 1952.59 178.997 Q1953.04 178.997 1953.43 178.809 Q1953.83 178.645 1954.16 178.224 Q1954.51 177.802 1954.77 177.381 Q1955.03 176.982 1955.28 176.209 Q1955.54 175.46 1955.71 174.898 Q1955.87 174.336 1956.08 173.329 Q1956.32 172.321 1956.43 171.712 Q1956.55 171.127 1956.76 169.979 L1960.34 151.03 L1957.18 151.03 Q1956.62 151.03 1956.39 151.007 Q1956.17 150.983 1956.01 150.866 Q1955.85 150.726 1955.85 150.445 Q1955.85 150 1956.03 149.812 Q1956.25 149.602 1956.48 149.578 Q1956.71 149.531 1957.28 149.531 L1960.6 149.531 Q1961.73 143.605 1962.17 142.013 Q1962.69 140.326 1963.48 139.155 Q1964.28 137.961 1965.17 137.398 Q1966.06 136.836 1966.79 136.626 Q1967.53 136.391 1968.26 136.391 Q1969.9 136.391 1971.17 137.281 Q1972.43 138.148 1972.43 139.694 Z" fill="#000000" fill-rule="evenodd" fill-opacity="1" /><path clip-path="url(#clip820)" d="M1978.89 158.221 Q1978.89 150.117 1981.91 143.582 Q1983.2 140.842 1985 138.546 Q1986.81 136.251 1988 135.244 Q1989.19 134.236 1989.52 134.236 Q1989.99 134.236 1990.01 134.705 Q1990.01 134.939 1989.38 135.525 Q1981.65 143.395 1981.68 158.221 Q1981.68 173.094 1989.19 180.66 Q1990.01 181.48 1990.01 181.737 Q1990.01 182.206 1989.52 182.206 Q1989.19 182.206 1988.05 181.245 Q1986.9 180.285 1985.12 178.083 Q1983.34 175.882 1982.05 173.188 Q1978.89 166.653 1978.89 158.221 Z" fill="#000000" fill-rule="evenodd" fill-opacity="1" /><path clip-path="url(#clip820)" d="M2017.55 152.178 Q2017.55 153.49 2016.73 154.239 Q2015.91 154.965 2014.98 154.965 Q2014.09 154.965 2013.62 154.45 Q2013.15 153.935 2013.15 153.279 Q2013.15 152.389 2013.8 151.616 Q2014.46 150.843 2015.44 150.679 Q2014.48 150.07 2013.05 150.07 Q2012.12 150.07 2011.3 150.562 Q2010.5 151.054 2010.01 151.686 Q2009.54 152.319 2009.12 153.232 Q2008.72 154.122 2008.56 154.661 Q2008.42 155.176 2008.3 155.738 L2006.66 162.297 Q2005.86 165.412 2005.86 166.513 Q2005.86 167.871 2006.52 168.785 Q2007.18 169.675 2008.49 169.675 Q2009 169.675 2009.59 169.534 Q2010.17 169.37 2010.92 168.949 Q2011.7 168.503 2012.38 167.848 Q2013.08 167.168 2013.76 166.021 Q2014.44 164.873 2014.88 163.397 Q2015.02 162.882 2015.49 162.882 Q2016.08 162.882 2016.08 163.351 Q2016.08 163.749 2015.75 164.592 Q2015.44 165.412 2014.76 166.489 Q2014.11 167.543 2013.24 168.503 Q2012.38 169.44 2011.09 170.096 Q2009.8 170.752 2008.39 170.752 Q2006.38 170.752 2005.04 169.675 Q2003.71 168.597 2003.22 167.098 Q2003.1 167.309 2002.94 167.59 Q2002.77 167.871 2002.28 168.503 Q2001.81 169.112 2001.27 169.581 Q2000.73 170.026 1999.89 170.377 Q1999.07 170.752 1998.18 170.752 Q1997.06 170.752 1996.05 170.424 Q1995.07 170.096 1994.36 169.347 Q1993.66 168.597 1993.66 167.567 Q1993.66 166.419 1994.43 165.623 Q1995.23 164.803 1996.31 164.803 Q1996.99 164.803 1997.53 165.201 Q1998.09 165.599 1998.09 166.466 Q1998.09 167.426 1997.43 168.152 Q1996.78 168.878 1995.84 169.066 Q1996.8 169.675 1998.23 169.675 Q1999.77 169.675 2000.99 168.316 Q2002.21 166.958 2002.8 164.686 Q2004.25 159.228 2004.81 156.792 Q2005.37 154.333 2005.37 153.279 Q2005.37 152.295 2005.11 151.616 Q2004.86 150.937 2004.41 150.632 Q2003.99 150.304 2003.59 150.187 Q2003.22 150.07 2002.8 150.07 Q2002.09 150.07 2001.3 150.351 Q2000.52 150.632 1999.59 151.288 Q1998.67 151.92 1997.81 153.232 Q1996.94 154.544 1996.35 156.347 Q1996.24 156.886 1995.72 156.886 Q1995.16 156.863 1995.16 156.394 Q1995.16 155.996 1995.46 155.176 Q1995.79 154.333 1996.45 153.279 Q1997.13 152.225 1997.99 151.288 Q1998.88 150.328 2000.17 149.672 Q2001.48 149.016 2002.89 149.016 Q2003.52 149.016 2004.13 149.157 Q2004.76 149.274 2005.51 149.625 Q2006.29 149.976 2006.97 150.749 Q2007.64 151.522 2008.07 152.646 Q2008.35 152.108 2008.72 151.592 Q2009.12 151.077 2009.73 150.445 Q2010.36 149.789 2011.23 149.414 Q2012.12 149.016 2013.1 149.016 Q2014.06 149.016 2015 149.274 Q2015.94 149.508 2016.73 150.281 Q2017.55 151.03 2017.55 152.178 Z" fill="#000000" fill-rule="evenodd" fill-opacity="1" /><path clip-path="url(#clip820)" d="M2022.17 181.737 Q2022.17 181.503 2022.78 180.917 Q2030.51 173.047 2030.51 158.221 Q2030.51 143.348 2023.09 135.829 Q2022.17 134.963 2022.17 134.705 Q2022.17 134.236 2022.64 134.236 Q2022.97 134.236 2024.12 135.197 Q2025.29 136.157 2027.04 138.359 Q2028.82 140.561 2030.14 143.254 Q2033.3 149.789 2033.3 158.221 Q2033.3 166.325 2030.28 172.86 Q2028.99 175.6 2027.18 177.896 Q2025.38 180.191 2024.19 181.198 Q2022.99 182.206 2022.64 182.206 Q2022.17 182.206 2022.17 181.737 Z" fill="#000000" fill-rule="evenodd" fill-opacity="1" /><path clip-path="url(#clip820)" d="M2053.9 162.929 Q2053.95 162.343 2054.86 162.343 L2084.26 162.343 Q2085.64 162.343 2085.66 162.882 Q2085.66 163.468 2084.35 163.444 L2055.19 163.444 Q2053.9 163.468 2053.9 162.929 M2053.9 153.56 Q2053.9 152.974 2054.91 152.998 L2084.21 152.998 Q2085.64 152.998 2085.66 153.56 Q2085.66 154.099 2084.45 154.099 L2054.86 154.099 Q2053.9 154.099 2053.9 153.56 Z" fill="#000000" fill-rule="evenodd" fill-opacity="1" /><path clip-path="url(#clip820)" d="M2104.17 170.213 Q2104.17 169.347 2104.24 169.089 Q2104.34 168.831 2104.71 168.433 L2113.92 158.174 Q2118.95 152.506 2118.95 147.564 Q2118.95 144.355 2117.26 142.06 Q2115.6 139.764 2112.53 139.764 Q2110.43 139.764 2108.65 141.052 Q2106.87 142.341 2106.05 144.636 Q2106.19 144.589 2106.68 144.589 Q2107.87 144.589 2108.53 145.339 Q2109.21 146.088 2109.21 147.095 Q2109.21 148.384 2108.36 149.016 Q2107.54 149.625 2106.72 149.625 Q2106.4 149.625 2105.95 149.555 Q2105.53 149.484 2104.85 148.829 Q2104.17 148.149 2104.17 146.955 Q2104.17 143.605 2106.7 140.935 Q2109.25 138.265 2113.14 138.265 Q2117.55 138.265 2120.43 140.888 Q2123.33 143.488 2123.33 147.564 Q2123.33 148.993 2122.89 150.304 Q2122.46 151.592 2121.88 152.6 Q2121.32 153.607 2119.77 155.223 Q2118.23 156.839 2116.98 157.987 Q2115.74 159.135 2112.96 161.57 L2107.87 166.513 L2116.52 166.513 Q2120.73 166.513 2121.06 166.138 Q2121.53 165.459 2122.11 161.875 L2123.33 161.875 L2121.97 170.213 L2104.17 170.213 Z" fill="#000000" fill-rule="evenodd" fill-opacity="1" /><path clip-path="url(#clip820)" d="M2151.82 152.178 Q2151.82 153.49 2151 154.239 Q2150.18 154.965 2149.24 154.965 Q2148.35 154.965 2147.88 154.45 Q2147.42 153.935 2147.42 153.279 Q2147.42 152.389 2148.07 151.616 Q2148.73 150.843 2149.71 150.679 Q2148.75 150.07 2147.32 150.07 Q2146.38 150.07 2145.57 150.562 Q2144.77 151.054 2144.28 151.686 Q2143.81 152.319 2143.39 153.232 Q2142.99 154.122 2142.82 154.661 Q2142.68 155.176 2142.57 155.738 L2140.93 162.297 Q2140.13 165.412 2140.13 166.513 Q2140.13 167.871 2140.79 168.785 Q2141.44 169.675 2142.75 169.675 Q2143.27 169.675 2143.86 169.534 Q2144.44 169.37 2145.19 168.949 Q2145.96 168.503 2146.64 167.848 Q2147.35 167.168 2148.02 166.021 Q2148.7 164.873 2149.15 163.397 Q2149.29 162.882 2149.76 162.882 Q2150.34 162.882 2150.34 163.351 Q2150.34 163.749 2150.02 164.592 Q2149.71 165.412 2149.03 166.489 Q2148.38 167.543 2147.51 168.503 Q2146.64 169.44 2145.35 170.096 Q2144.07 170.752 2142.66 170.752 Q2140.65 170.752 2139.31 169.675 Q2137.98 168.597 2137.48 167.098 Q2137.37 167.309 2137.2 167.59 Q2137.04 167.871 2136.55 168.503 Q2136.08 169.112 2135.54 169.581 Q2135 170.026 2134.16 170.377 Q2133.34 170.752 2132.45 170.752 Q2131.32 170.752 2130.32 170.424 Q2129.33 170.096 2128.63 169.347 Q2127.93 168.597 2127.93 167.567 Q2127.93 166.419 2128.7 165.623 Q2129.5 164.803 2130.57 164.803 Q2131.25 164.803 2131.79 165.201 Q2132.35 165.599 2132.35 166.466 Q2132.35 167.426 2131.7 168.152 Q2131.04 168.878 2130.11 169.066 Q2131.07 169.675 2132.5 169.675 Q2134.04 169.675 2135.26 168.316 Q2136.48 166.958 2137.06 164.686 Q2138.51 159.228 2139.08 156.792 Q2139.64 154.333 2139.64 153.279 Q2139.64 152.295 2139.38 151.616 Q2139.12 150.937 2138.68 150.632 Q2138.26 150.304 2137.86 150.187 Q2137.48 150.07 2137.06 150.07 Q2136.36 150.07 2135.56 150.351 Q2134.79 150.632 2133.85 151.288 Q2132.94 151.92 2132.07 153.232 Q2131.21 154.544 2130.62 156.347 Q2130.5 156.886 2129.99 156.886 Q2129.43 156.863 2129.43 156.394 Q2129.43 155.996 2129.73 155.176 Q2130.06 154.333 2130.72 153.279 Q2131.39 152.225 2132.26 151.288 Q2133.15 150.328 2134.44 149.672 Q2135.75 149.016 2137.16 149.016 Q2137.79 149.016 2138.4 149.157 Q2139.03 149.274 2139.78 149.625 Q2140.55 149.976 2141.23 150.749 Q2141.91 151.522 2142.33 152.646 Q2142.61 152.108 2142.99 151.592 Q2143.39 151.077 2144 150.445 Q2144.63 149.789 2145.49 149.414 Q2146.38 149.016 2147.37 149.016 Q2148.33 149.016 2149.27 149.274 Q2150.2 149.508 2151 150.281 Q2151.82 151.03 2151.82 152.178 Z" fill="#000000" fill-rule="evenodd" fill-opacity="1" /><path clip-path="url(#clip820)" d="M2156.71 150.598 Q2156.71 149.597 2157.28 149.122 Q2157.86 148.646 2158.59 148.646 Q2159.36 148.646 2159.91 149.155 Q2160.46 149.647 2160.46 150.516 Q2160.46 151.45 2159.81 151.975 Q2159.17 152.499 2158.25 152.368 Q2159.05 153.713 2160.53 154.319 Q2162.02 154.926 2163.4 154.926 Q2164.84 154.926 2166 153.68 Q2167.18 152.434 2167.18 149.384 Q2167.18 146.794 2166.17 145.302 Q2165.17 143.81 2163.18 143.81 L2161.71 143.81 Q2161.2 143.81 2161.05 143.76 Q2160.91 143.711 2160.91 143.433 Q2160.91 143.105 2161.41 143.039 Q2161.92 143.039 2162.73 142.941 Q2164.68 142.875 2165.71 141.186 Q2166.64 139.612 2166.64 137.366 Q2166.64 135.317 2165.66 134.464 Q2164.69 133.595 2163.43 133.595 Q2162.25 133.595 2160.95 134.087 Q2159.66 134.579 2158.95 135.677 Q2161.04 135.677 2161.04 137.366 Q2161.04 138.104 2160.56 138.596 Q2160.1 139.071 2159.33 139.071 Q2158.59 139.071 2158.1 138.612 Q2157.61 138.137 2157.61 137.333 Q2157.61 135.415 2159.31 134.087 Q2161.04 132.759 2163.56 132.759 Q2166.05 132.759 2167.89 134.071 Q2169.74 135.382 2169.74 137.399 Q2169.74 139.383 2168.43 141.006 Q2167.12 142.629 2165.04 143.301 Q2167.59 143.81 2169.12 145.548 Q2170.64 147.269 2170.64 149.384 Q2170.64 152.008 2168.58 153.942 Q2166.51 155.861 2163.5 155.861 Q2160.71 155.861 2158.71 154.352 Q2156.71 152.844 2156.71 150.598 Z" fill="#000000" fill-rule="evenodd" fill-opacity="1" /><path clip-path="url(#clip820)" d="M2220.6 157.542 Q2220.88 157.823 2220.88 158.221 Q2220.88 158.619 2220.6 158.9 Q2220.32 159.181 2219.92 159.181 L2189.89 159.181 Q2189.49 159.181 2189.21 158.9 Q2188.93 158.619 2188.93 158.221 Q2188.93 157.823 2189.21 157.542 Q2189.49 157.261 2189.89 157.261 L2219.92 157.261 Q2220.32 157.261 2220.6 157.542 Z" fill="#000000" fill-rule="evenodd" fill-opacity="1" /><path clip-path="url(#clip820)" d="M2239.2 163.749 Q2239.2 162.32 2240.02 161.641 Q2240.84 160.961 2241.89 160.961 Q2243 160.961 2243.77 161.688 Q2244.56 162.39 2244.56 163.632 Q2244.56 164.967 2243.63 165.716 Q2242.71 166.466 2241.4 166.278 Q2242.55 168.199 2244.66 169.066 Q2246.79 169.932 2248.76 169.932 Q2250.82 169.932 2252.48 168.152 Q2254.17 166.372 2254.17 162.015 Q2254.17 158.315 2252.72 156.183 Q2251.29 154.052 2248.45 154.052 L2246.34 154.052 Q2245.62 154.052 2245.41 153.982 Q2245.2 153.911 2245.2 153.513 Q2245.2 153.045 2245.92 152.951 Q2246.65 152.951 2247.8 152.81 Q2250.58 152.717 2252.06 150.304 Q2253.39 148.056 2253.39 144.847 Q2253.39 141.919 2251.99 140.701 Q2250.61 139.46 2248.8 139.46 Q2247.12 139.46 2245.27 140.162 Q2243.42 140.865 2242.41 142.434 Q2245.38 142.434 2245.38 144.847 Q2245.38 145.901 2244.71 146.603 Q2244.05 147.283 2242.95 147.283 Q2241.89 147.283 2241.19 146.627 Q2240.49 145.948 2240.49 144.8 Q2240.49 142.06 2242.93 140.162 Q2245.38 138.265 2248.99 138.265 Q2252.55 138.265 2255.18 140.139 Q2257.82 142.013 2257.82 144.894 Q2257.82 147.728 2255.95 150.047 Q2254.07 152.365 2251.1 153.326 Q2254.75 154.052 2256.93 156.535 Q2259.11 158.994 2259.11 162.015 Q2259.11 165.763 2256.16 168.527 Q2253.21 171.267 2248.9 171.267 Q2244.92 171.267 2242.06 169.112 Q2239.2 166.958 2239.2 163.749 Z" fill="#000000" fill-rule="evenodd" fill-opacity="1" /><path clip-path="url(#clip820)" d="M2286.85 152.178 Q2286.85 153.49 2286.03 154.239 Q2285.21 154.965 2284.27 154.965 Q2283.38 154.965 2282.91 154.45 Q2282.44 153.935 2282.44 153.279 Q2282.44 152.389 2283.1 151.616 Q2283.76 150.843 2284.74 150.679 Q2283.78 150.07 2282.35 150.07 Q2281.41 150.07 2280.59 150.562 Q2279.8 151.054 2279.31 151.686 Q2278.84 152.319 2278.42 153.232 Q2278.02 154.122 2277.85 154.661 Q2277.71 155.176 2277.6 155.738 L2275.96 162.297 Q2275.16 165.412 2275.16 166.513 Q2275.16 167.871 2275.82 168.785 Q2276.47 169.675 2277.78 169.675 Q2278.3 169.675 2278.88 169.534 Q2279.47 169.37 2280.22 168.949 Q2280.99 168.503 2281.67 167.848 Q2282.37 167.168 2283.05 166.021 Q2283.73 164.873 2284.18 163.397 Q2284.32 162.882 2284.79 162.882 Q2285.37 162.882 2285.37 163.351 Q2285.37 163.749 2285.04 164.592 Q2284.74 165.412 2284.06 166.489 Q2283.41 167.543 2282.54 168.503 Q2281.67 169.44 2280.38 170.096 Q2279.1 170.752 2277.69 170.752 Q2275.68 170.752 2274.34 169.675 Q2273.01 168.597 2272.51 167.098 Q2272.4 167.309 2272.23 167.59 Q2272.07 167.871 2271.58 168.503 Q2271.11 169.112 2270.57 169.581 Q2270.03 170.026 2269.19 170.377 Q2268.37 170.752 2267.48 170.752 Q2266.35 170.752 2265.35 170.424 Q2264.36 170.096 2263.66 169.347 Q2262.96 168.597 2262.96 167.567 Q2262.96 166.419 2263.73 165.623 Q2264.53 164.803 2265.6 164.803 Q2266.28 164.803 2266.82 165.201 Q2267.38 165.599 2267.38 166.466 Q2267.38 167.426 2266.73 168.152 Q2266.07 168.878 2265.14 169.066 Q2266.1 169.675 2267.52 169.675 Q2269.07 169.675 2270.29 168.316 Q2271.51 166.958 2272.09 164.686 Q2273.54 159.228 2274.11 156.792 Q2274.67 154.333 2274.67 153.279 Q2274.67 152.295 2274.41 151.616 Q2274.15 150.937 2273.71 150.632 Q2273.29 150.304 2272.89 150.187 Q2272.51 150.07 2272.09 150.07 Q2271.39 150.07 2270.59 150.351 Q2269.82 150.632 2268.88 151.288 Q2267.97 151.92 2267.1 153.232 Q2266.24 154.544 2265.65 156.347 Q2265.53 156.886 2265.02 156.886 Q2264.46 156.863 2264.46 156.394 Q2264.46 155.996 2264.76 155.176 Q2265.09 154.333 2265.74 153.279 Q2266.42 152.225 2267.29 151.288 Q2268.18 150.328 2269.47 149.672 Q2270.78 149.016 2272.19 149.016 Q2272.82 149.016 2273.43 149.157 Q2274.06 149.274 2274.81 149.625 Q2275.58 149.976 2276.26 150.749 Q2276.94 151.522 2277.36 152.646 Q2277.64 152.108 2278.02 151.592 Q2278.42 151.077 2279.03 150.445 Q2279.66 149.789 2280.52 149.414 Q2281.41 149.016 2282.4 149.016 Q2283.36 149.016 2284.3 149.274 Q2285.23 149.508 2286.03 150.281 Q2286.85 151.03 2286.85 152.178 Z" fill="#000000" fill-rule="evenodd" fill-opacity="1" /><path clip-path="url(#clip820)" d="M2291.74 155.858 Q2291.74 155.251 2291.79 155.071 Q2291.85 154.89 2292.11 154.612 L2298.56 147.43 Q2302.08 143.463 2302.08 140.003 Q2302.08 137.757 2300.9 136.15 Q2299.74 134.543 2297.59 134.543 Q2296.11 134.543 2294.87 135.445 Q2293.62 136.347 2293.05 137.954 Q2293.15 137.921 2293.49 137.921 Q2294.33 137.921 2294.79 138.445 Q2295.26 138.97 2295.26 139.675 Q2295.26 140.577 2294.67 141.02 Q2294.1 141.446 2293.52 141.446 Q2293.29 141.446 2292.98 141.397 Q2292.69 141.348 2292.21 140.888 Q2291.74 140.413 2291.74 139.577 Q2291.74 137.232 2293.51 135.363 Q2295.3 133.494 2298.02 133.494 Q2301.1 133.494 2303.12 135.33 Q2305.15 137.15 2305.15 140.003 Q2305.15 141.003 2304.84 141.921 Q2304.54 142.823 2304.13 143.528 Q2303.74 144.233 2302.66 145.364 Q2301.57 146.496 2300.71 147.299 Q2299.84 148.103 2297.89 149.808 L2294.33 153.267 L2300.38 153.267 Q2303.33 153.267 2303.56 153.005 Q2303.89 152.529 2304.3 150.021 L2305.15 150.021 L2304.2 155.858 L2291.74 155.858 Z" fill="#000000" fill-rule="evenodd" fill-opacity="1" /><path clip-path="url(#clip820)" d="M2355.11 157.542 Q2355.4 157.823 2355.4 158.221 Q2355.4 158.619 2355.11 158.9 Q2354.83 159.181 2354.44 159.181 L2324.41 159.181 Q2324.01 159.181 2323.73 158.9 Q2323.45 158.619 2323.45 158.221 Q2323.45 157.823 2323.73 157.542 Q2324.01 157.261 2324.41 157.261 L2354.44 157.261 Q2354.83 157.261 2355.11 157.542 Z" fill="#000000" fill-rule="evenodd" fill-opacity="1" /><path clip-path="url(#clip820)" d="M2373.72 142.832 L2373.72 141.333 Q2379.48 141.333 2382.45 138.265 Q2383.27 138.265 2383.41 138.452 Q2383.55 138.64 2383.55 139.506 L2383.55 166.419 Q2383.55 167.848 2384.26 168.293 Q2384.96 168.738 2388.03 168.738 L2389.55 168.738 L2389.55 170.213 Q2387.86 170.073 2381.77 170.073 Q2375.68 170.073 2374.02 170.213 L2374.02 168.738 L2375.54 168.738 Q2378.56 168.738 2379.29 168.316 Q2380.02 167.871 2380.02 166.419 L2380.02 141.568 Q2377.51 142.832 2373.72 142.832 Z" fill="#000000" fill-rule="evenodd" fill-opacity="1" /><path clip-path="url(#clip820)" d="M2393.98 170.213 Q2393.98 169.347 2394.05 169.089 Q2394.14 168.831 2394.51 168.433 L2403.72 158.174 Q2408.76 152.506 2408.76 147.564 Q2408.76 144.355 2407.07 142.06 Q2405.41 139.764 2402.34 139.764 Q2400.23 139.764 2398.45 141.052 Q2396.67 142.341 2395.85 144.636 Q2395.99 144.589 2396.48 144.589 Q2397.68 144.589 2398.33 145.339 Q2399.01 146.088 2399.01 147.095 Q2399.01 148.384 2398.17 149.016 Q2397.35 149.625 2396.53 149.625 Q2396.2 149.625 2395.76 149.555 Q2395.33 149.484 2394.66 148.829 Q2393.98 148.149 2393.98 146.955 Q2393.98 143.605 2396.51 140.935 Q2399.06 138.265 2402.95 138.265 Q2407.35 138.265 2410.23 140.888 Q2413.14 143.488 2413.14 147.564 Q2413.14 148.993 2412.69 150.304 Q2412.27 151.592 2411.68 152.6 Q2411.12 153.607 2409.58 155.223 Q2408.03 156.839 2406.79 157.987 Q2405.55 159.135 2402.76 161.57 L2397.68 166.513 L2406.32 166.513 Q2410.54 166.513 2410.86 166.138 Q2411.33 165.459 2411.92 161.875 L2413.14 161.875 L2411.78 170.213 L2393.98 170.213 Z" fill="#000000" fill-rule="evenodd" fill-opacity="1" /><path clip-path="url(#clip820)" d="M2440.86 152.178 Q2440.86 153.49 2440.04 154.239 Q2439.22 154.965 2438.28 154.965 Q2437.39 154.965 2436.92 154.45 Q2436.45 153.935 2436.45 153.279 Q2436.45 152.389 2437.11 151.616 Q2437.76 150.843 2438.75 150.679 Q2437.79 150.07 2436.36 150.07 Q2435.42 150.07 2434.6 150.562 Q2433.8 151.054 2433.31 151.686 Q2432.84 152.319 2432.42 153.232 Q2432.02 154.122 2431.86 154.661 Q2431.72 155.176 2431.6 155.738 L2429.96 162.297 Q2429.17 165.412 2429.17 166.513 Q2429.17 167.871 2429.82 168.785 Q2430.48 169.675 2431.79 169.675 Q2432.31 169.675 2432.89 169.534 Q2433.48 169.37 2434.23 168.949 Q2435 168.503 2435.68 167.848 Q2436.38 167.168 2437.06 166.021 Q2437.74 164.873 2438.18 163.397 Q2438.33 162.882 2438.79 162.882 Q2439.38 162.882 2439.38 163.351 Q2439.38 163.749 2439.05 164.592 Q2438.75 165.412 2438.07 166.489 Q2437.41 167.543 2436.55 168.503 Q2435.68 169.44 2434.39 170.096 Q2433.1 170.752 2431.7 170.752 Q2429.68 170.752 2428.35 169.675 Q2427.01 168.597 2426.52 167.098 Q2426.4 167.309 2426.24 167.59 Q2426.08 167.871 2425.58 168.503 Q2425.12 169.112 2424.58 169.581 Q2424.04 170.026 2423.19 170.377 Q2422.37 170.752 2421.48 170.752 Q2420.36 170.752 2419.35 170.424 Q2418.37 170.096 2417.67 169.347 Q2416.96 168.597 2416.96 167.567 Q2416.96 166.419 2417.74 165.623 Q2418.53 164.803 2419.61 164.803 Q2420.29 164.803 2420.83 165.201 Q2421.39 165.599 2421.39 166.466 Q2421.39 167.426 2420.74 168.152 Q2420.08 168.878 2419.14 169.066 Q2420.1 169.675 2421.53 169.675 Q2423.08 169.675 2424.3 168.316 Q2425.51 166.958 2426.1 164.686 Q2427.55 159.228 2428.11 156.792 Q2428.68 154.333 2428.68 153.279 Q2428.68 152.295 2428.42 151.616 Q2428.16 150.937 2427.72 150.632 Q2427.29 150.304 2426.9 150.187 Q2426.52 150.07 2426.1 150.07 Q2425.4 150.07 2424.6 150.351 Q2423.83 150.632 2422.89 151.288 Q2421.98 151.92 2421.11 153.232 Q2420.24 154.544 2419.66 156.347 Q2419.54 156.886 2419.03 156.886 Q2418.46 156.863 2418.46 156.394 Q2418.46 155.996 2418.77 155.176 Q2419.1 154.333 2419.75 153.279 Q2420.43 152.225 2421.3 151.288 Q2422.19 150.328 2423.48 149.672 Q2424.79 149.016 2426.19 149.016 Q2426.83 149.016 2427.43 149.157 Q2428.07 149.274 2428.82 149.625 Q2429.59 149.976 2430.27 150.749 Q2430.95 151.522 2431.37 152.646 Q2431.65 152.108 2432.02 151.592 Q2432.42 151.077 2433.03 150.445 Q2433.66 149.789 2434.53 149.414 Q2435.42 149.016 2436.4 149.016 Q2437.37 149.016 2438.3 149.274 Q2439.24 149.508 2440.04 150.281 Q2440.86 151.03 2440.86 152.178 Z" fill="#000000" fill-rule="evenodd" fill-opacity="1" /><path clip-path="url(#clip820)" d="M2458.54 158.807 Q2457.44 158.807 2457.44 158.221 Q2457.44 157.635 2458.59 157.635 Q2458.73 157.635 2458.96 157.659 Q2459.22 157.682 2459.27 157.682 L2472.78 157.682 L2472.78 144.121 Q2472.78 144.074 2472.76 143.863 Q2472.74 143.629 2472.74 143.488 Q2472.74 142.341 2473.3 142.341 Q2473.88 142.341 2473.88 143.488 L2473.88 157.682 L2487.42 157.682 Q2487.47 157.682 2487.7 157.659 Q2487.94 157.635 2488.08 157.635 Q2489.18 157.635 2489.18 158.221 Q2489.2 158.807 2488.03 158.807 Q2487.89 158.807 2487.68 158.783 Q2487.47 158.76 2487.42 158.76 L2473.88 158.76 L2473.88 173.001 Q2473.88 174.101 2473.3 174.101 Q2472.74 174.101 2472.74 172.954 Q2472.74 172.813 2472.76 172.579 Q2472.78 172.368 2472.78 172.321 L2472.78 158.76 L2459.27 158.76 Q2459.22 158.76 2458.94 158.783 Q2458.68 158.807 2458.54 158.807 Z" fill="#000000" fill-rule="evenodd" fill-opacity="1" /><path clip-path="url(#clip820)" d="M2507.71 162.297 L2507.71 160.821 L2522.44 138.312 Q2522.82 137.726 2523.4 137.75 Q2523.94 137.75 2524.06 137.961 Q2524.18 138.171 2524.18 138.991 L2524.18 160.821 L2528.98 160.821 L2528.98 162.297 L2524.18 162.297 L2524.18 166.466 Q2524.18 167.848 2524.74 168.293 Q2525.32 168.738 2527.81 168.738 L2528.81 168.738 L2528.81 170.213 Q2526.85 170.073 2522.3 170.073 Q2517.78 170.073 2515.81 170.213 L2515.81 168.738 L2516.82 168.738 Q2519.3 168.738 2519.89 168.316 Q2520.48 167.871 2520.48 166.466 L2520.48 162.297 L2507.71 162.297 M2509.07 160.821 L2520.76 160.821 L2520.76 142.926 L2509.07 160.821 Z" fill="#000000" fill-rule="evenodd" fill-opacity="1" /></svg>
