<?xml version="1.0" encoding="utf-8"?>
<svg xmlns="http://www.w3.org/2000/svg" xmlns:xlink="http://www.w3.org/1999/xlink" width="672" height="480" viewBox="0 0 2688 1920">
<defs>
  <clipPath id="clip320">
    <rect x="0" y="0" width="2688" height="1920"/>
  </clipPath>
</defs>
<path clip-path="url(#clip320)" d="
M0 1920 L2688 1920 L2688 0 L0 0  Z
  " fill="#ffffff" fill-rule="evenodd" fill-opacity="1"/>
<defs>
  <clipPath id="clip321">
    <rect x="537" y="0" width="1883" height="1883"/>
  </clipPath>
</defs>
<defs>
  <clipPath id="clip322">
    <rect x="181" y="47" width="2460" height="1755"/>
  </clipPath>
</defs>
<path clip-path="url(#clip320)" d="
M152.071 1657.7 L2640.76 1657.7 L2640.76 190.319 L152.071 190.319  Z
  " fill="#ffffff" fill-rule="evenodd" fill-opacity="1"/>
<defs>
  <clipPath id="clip323">
    <rect x="152" y="190" width="2490" height="1468"/>
  </clipPath>
</defs>
<polyline clip-path="url(#clip323)" style="stroke:#000000; stroke-linecap:round; stroke-linejoin:round; stroke-width:2; stroke-opacity:0.1; fill:none" points="
  222.505,1657.7 222.505,190.319 
  "/>
<polyline clip-path="url(#clip323)" style="stroke:#000000; stroke-linecap:round; stroke-linejoin:round; stroke-width:2; stroke-opacity:0.1; fill:none" points="
  369.244,1657.7 369.244,190.319 
  "/>
<polyline clip-path="url(#clip323)" style="stroke:#000000; stroke-linecap:round; stroke-linejoin:round; stroke-width:2; stroke-opacity:0.1; fill:none" points="
  515.982,1657.7 515.982,190.319 
  "/>
<polyline clip-path="url(#clip323)" style="stroke:#000000; stroke-linecap:round; stroke-linejoin:round; stroke-width:2; stroke-opacity:0.1; fill:none" points="
  662.721,1657.7 662.721,190.319 
  "/>
<polyline clip-path="url(#clip323)" style="stroke:#000000; stroke-linecap:round; stroke-linejoin:round; stroke-width:2; stroke-opacity:0.1; fill:none" points="
  809.459,1657.7 809.459,190.319 
  "/>
<polyline clip-path="url(#clip323)" style="stroke:#000000; stroke-linecap:round; stroke-linejoin:round; stroke-width:2; stroke-opacity:0.1; fill:none" points="
  956.198,1657.7 956.198,190.319 
  "/>
<polyline clip-path="url(#clip323)" style="stroke:#000000; stroke-linecap:round; stroke-linejoin:round; stroke-width:2; stroke-opacity:0.1; fill:none" points="
  1102.94,1657.7 1102.94,190.319 
  "/>
<polyline clip-path="url(#clip323)" style="stroke:#000000; stroke-linecap:round; stroke-linejoin:round; stroke-width:2; stroke-opacity:0.1; fill:none" points="
  1249.67,1657.7 1249.67,190.319 
  "/>
<polyline clip-path="url(#clip323)" style="stroke:#000000; stroke-linecap:round; stroke-linejoin:round; stroke-width:2; stroke-opacity:0.1; fill:none" points="
  1396.41,1657.7 1396.41,190.319 
  "/>
<polyline clip-path="url(#clip323)" style="stroke:#000000; stroke-linecap:round; stroke-linejoin:round; stroke-width:2; stroke-opacity:0.1; fill:none" points="
  1543.15,1657.7 1543.15,190.319 
  "/>
<polyline clip-path="url(#clip323)" style="stroke:#000000; stroke-linecap:round; stroke-linejoin:round; stroke-width:2; stroke-opacity:0.1; fill:none" points="
  1689.89,1657.7 1689.89,190.319 
  "/>
<polyline clip-path="url(#clip323)" style="stroke:#000000; stroke-linecap:round; stroke-linejoin:round; stroke-width:2; stroke-opacity:0.1; fill:none" points="
  1836.63,1657.7 1836.63,190.319 
  "/>
<polyline clip-path="url(#clip323)" style="stroke:#000000; stroke-linecap:round; stroke-linejoin:round; stroke-width:2; stroke-opacity:0.1; fill:none" points="
  1983.37,1657.7 1983.37,190.319 
  "/>
<polyline clip-path="url(#clip323)" style="stroke:#000000; stroke-linecap:round; stroke-linejoin:round; stroke-width:2; stroke-opacity:0.1; fill:none" points="
  2130.11,1657.7 2130.11,190.319 
  "/>
<polyline clip-path="url(#clip323)" style="stroke:#000000; stroke-linecap:round; stroke-linejoin:round; stroke-width:2; stroke-opacity:0.1; fill:none" points="
  2276.84,1657.7 2276.84,190.319 
  "/>
<polyline clip-path="url(#clip323)" style="stroke:#000000; stroke-linecap:round; stroke-linejoin:round; stroke-width:2; stroke-opacity:0.1; fill:none" points="
  2423.58,1657.7 2423.58,190.319 
  "/>
<polyline clip-path="url(#clip323)" style="stroke:#000000; stroke-linecap:round; stroke-linejoin:round; stroke-width:2; stroke-opacity:0.1; fill:none" points="
  2570.32,1657.7 2570.32,190.319 
  "/>
<polyline clip-path="url(#clip320)" style="stroke:#000000; stroke-linecap:round; stroke-linejoin:round; stroke-width:4; stroke-opacity:1; fill:none" points="
  152.071,1657.7 2640.76,1657.7 
  "/>
<polyline clip-path="url(#clip320)" style="stroke:#000000; stroke-linecap:round; stroke-linejoin:round; stroke-width:4; stroke-opacity:1; fill:none" points="
  222.505,1657.7 222.505,1641.89 
  "/>
<polyline clip-path="url(#clip320)" style="stroke:#000000; stroke-linecap:round; stroke-linejoin:round; stroke-width:4; stroke-opacity:1; fill:none" points="
  369.244,1657.7 369.244,1641.89 
  "/>
<polyline clip-path="url(#clip320)" style="stroke:#000000; stroke-linecap:round; stroke-linejoin:round; stroke-width:4; stroke-opacity:1; fill:none" points="
  515.982,1657.7 515.982,1641.89 
  "/>
<polyline clip-path="url(#clip320)" style="stroke:#000000; stroke-linecap:round; stroke-linejoin:round; stroke-width:4; stroke-opacity:1; fill:none" points="
  662.721,1657.7 662.721,1641.89 
  "/>
<polyline clip-path="url(#clip320)" style="stroke:#000000; stroke-linecap:round; stroke-linejoin:round; stroke-width:4; stroke-opacity:1; fill:none" points="
  809.459,1657.7 809.459,1641.89 
  "/>
<polyline clip-path="url(#clip320)" style="stroke:#000000; stroke-linecap:round; stroke-linejoin:round; stroke-width:4; stroke-opacity:1; fill:none" points="
  956.198,1657.7 956.198,1641.89 
  "/>
<polyline clip-path="url(#clip320)" style="stroke:#000000; stroke-linecap:round; stroke-linejoin:round; stroke-width:4; stroke-opacity:1; fill:none" points="
  1102.94,1657.7 1102.94,1641.89 
  "/>
<polyline clip-path="url(#clip320)" style="stroke:#000000; stroke-linecap:round; stroke-linejoin:round; stroke-width:4; stroke-opacity:1; fill:none" points="
  1249.67,1657.7 1249.67,1641.89 
  "/>
<polyline clip-path="url(#clip320)" style="stroke:#000000; stroke-linecap:round; stroke-linejoin:round; stroke-width:4; stroke-opacity:1; fill:none" points="
  1396.41,1657.7 1396.41,1641.89 
  "/>
<polyline clip-path="url(#clip320)" style="stroke:#000000; stroke-linecap:round; stroke-linejoin:round; stroke-width:4; stroke-opacity:1; fill:none" points="
  1543.15,1657.7 1543.15,1641.89 
  "/>
<polyline clip-path="url(#clip320)" style="stroke:#000000; stroke-linecap:round; stroke-linejoin:round; stroke-width:4; stroke-opacity:1; fill:none" points="
  1689.89,1657.7 1689.89,1641.89 
  "/>
<polyline clip-path="url(#clip320)" style="stroke:#000000; stroke-linecap:round; stroke-linejoin:round; stroke-width:4; stroke-opacity:1; fill:none" points="
  1836.63,1657.7 1836.63,1641.89 
  "/>
<polyline clip-path="url(#clip320)" style="stroke:#000000; stroke-linecap:round; stroke-linejoin:round; stroke-width:4; stroke-opacity:1; fill:none" points="
  1983.37,1657.7 1983.37,1641.89 
  "/>
<polyline clip-path="url(#clip320)" style="stroke:#000000; stroke-linecap:round; stroke-linejoin:round; stroke-width:4; stroke-opacity:1; fill:none" points="
  2130.11,1657.7 2130.11,1641.89 
  "/>
<polyline clip-path="url(#clip320)" style="stroke:#000000; stroke-linecap:round; stroke-linejoin:round; stroke-width:4; stroke-opacity:1; fill:none" points="
  2276.84,1657.7 2276.84,1641.89 
  "/>
<polyline clip-path="url(#clip320)" style="stroke:#000000; stroke-linecap:round; stroke-linejoin:round; stroke-width:4; stroke-opacity:1; fill:none" points="
  2423.58,1657.7 2423.58,1641.89 
  "/>
<polyline clip-path="url(#clip320)" style="stroke:#000000; stroke-linecap:round; stroke-linejoin:round; stroke-width:4; stroke-opacity:1; fill:none" points="
  2570.32,1657.7 2570.32,1641.89 
  "/>
<path clip-path="url(#clip320)" d="M191.695 1705.58 L221.371 1705.58 L221.371 1709.51 L191.695 1709.51 L191.695 1705.58 Z" fill="#000000" fill-rule="evenodd" fill-opacity="1" /><path clip-path="url(#clip320)" d="M241.464 1706 Q238.13 1706 236.209 1707.78 Q234.311 1709.56 234.311 1712.69 Q234.311 1715.81 236.209 1717.59 Q238.13 1719.38 241.464 1719.38 Q244.797 1719.38 246.718 1717.59 Q248.639 1715.79 248.639 1712.69 Q248.639 1709.56 246.718 1707.78 Q244.82 1706 241.464 1706 M236.788 1704.01 Q233.778 1703.26 232.089 1701.2 Q230.422 1699.14 230.422 1696.18 Q230.422 1692.04 233.362 1689.63 Q236.325 1687.22 241.464 1687.22 Q246.626 1687.22 249.565 1689.63 Q252.505 1692.04 252.505 1696.18 Q252.505 1699.14 250.815 1701.2 Q249.149 1703.26 246.163 1704.01 Q249.542 1704.79 251.417 1707.08 Q253.315 1709.38 253.315 1712.69 Q253.315 1717.71 250.237 1720.39 Q247.181 1723.08 241.464 1723.08 Q235.746 1723.08 232.667 1720.39 Q229.612 1717.71 229.612 1712.69 Q229.612 1709.38 231.51 1707.08 Q233.408 1704.79 236.788 1704.01 M235.075 1696.62 Q235.075 1699.31 236.741 1700.81 Q238.431 1702.32 241.464 1702.32 Q244.473 1702.32 246.163 1700.81 Q247.876 1699.31 247.876 1696.62 Q247.876 1693.94 246.163 1692.43 Q244.473 1690.93 241.464 1690.93 Q238.431 1690.93 236.741 1692.43 Q235.075 1693.94 235.075 1696.62 Z" fill="#000000" fill-rule="evenodd" fill-opacity="1" /><path clip-path="url(#clip320)" d="M338.839 1705.58 L368.515 1705.58 L368.515 1709.51 L338.839 1709.51 L338.839 1705.58 Z" fill="#000000" fill-rule="evenodd" fill-opacity="1" /><path clip-path="url(#clip320)" d="M377.427 1687.85 L399.649 1687.85 L399.649 1689.84 L387.103 1722.41 L382.218 1722.41 L394.024 1691.78 L377.427 1691.78 L377.427 1687.85 Z" fill="#000000" fill-rule="evenodd" fill-opacity="1" /><path clip-path="url(#clip320)" d="M485.045 1705.58 L514.721 1705.58 L514.721 1709.51 L485.045 1709.51 L485.045 1705.58 Z" fill="#000000" fill-rule="evenodd" fill-opacity="1" /><path clip-path="url(#clip320)" d="M535.392 1703.26 Q532.244 1703.26 530.392 1705.42 Q528.563 1707.57 528.563 1711.32 Q528.563 1715.05 530.392 1717.22 Q532.244 1719.38 535.392 1719.38 Q538.54 1719.38 540.369 1717.22 Q542.221 1715.05 542.221 1711.32 Q542.221 1707.57 540.369 1705.42 Q538.54 1703.26 535.392 1703.26 M544.674 1688.61 L544.674 1692.87 Q542.915 1692.04 541.11 1691.6 Q539.327 1691.16 537.568 1691.16 Q532.938 1691.16 530.485 1694.28 Q528.054 1697.41 527.707 1703.73 Q529.073 1701.71 531.133 1700.65 Q533.193 1699.56 535.67 1699.56 Q540.878 1699.56 543.887 1702.73 Q546.92 1705.88 546.92 1711.32 Q546.92 1716.64 543.772 1719.86 Q540.623 1723.08 535.392 1723.08 Q529.397 1723.08 526.225 1718.5 Q523.054 1713.89 523.054 1705.16 Q523.054 1696.97 526.943 1692.11 Q530.832 1687.22 537.383 1687.22 Q539.142 1687.22 540.924 1687.57 Q542.73 1687.92 544.674 1688.61 Z" fill="#000000" fill-rule="evenodd" fill-opacity="1" /><path clip-path="url(#clip320)" d="M632.362 1705.58 L662.038 1705.58 L662.038 1709.51 L632.362 1709.51 L632.362 1705.58 Z" fill="#000000" fill-rule="evenodd" fill-opacity="1" /><path clip-path="url(#clip320)" d="M672.177 1687.85 L690.533 1687.85 L690.533 1691.78 L676.459 1691.78 L676.459 1700.26 Q677.478 1699.91 678.496 1699.75 Q679.515 1699.56 680.533 1699.56 Q686.32 1699.56 689.7 1702.73 Q693.079 1705.9 693.079 1711.32 Q693.079 1716.9 689.607 1720 Q686.135 1723.08 679.816 1723.08 Q677.64 1723.08 675.371 1722.71 Q673.126 1722.34 670.719 1721.6 L670.719 1716.9 Q672.802 1718.03 675.024 1718.59 Q677.246 1719.14 679.723 1719.14 Q683.728 1719.14 686.066 1717.04 Q688.404 1714.93 688.404 1711.32 Q688.404 1707.71 686.066 1705.6 Q683.728 1703.5 679.723 1703.5 Q677.848 1703.5 675.973 1703.91 Q674.121 1704.33 672.177 1705.21 L672.177 1687.85 Z" fill="#000000" fill-rule="evenodd" fill-opacity="1" /><path clip-path="url(#clip320)" d="M778.36 1705.58 L808.036 1705.58 L808.036 1709.51 L778.36 1709.51 L778.36 1705.58 Z" fill="#000000" fill-rule="evenodd" fill-opacity="1" /><path clip-path="url(#clip320)" d="M830.975 1691.92 L819.17 1710.37 L830.975 1710.37 L830.975 1691.92 M829.749 1687.85 L835.628 1687.85 L835.628 1710.37 L840.559 1710.37 L840.559 1714.26 L835.628 1714.26 L835.628 1722.41 L830.975 1722.41 L830.975 1714.26 L815.374 1714.26 L815.374 1709.75 L829.749 1687.85 Z" fill="#000000" fill-rule="evenodd" fill-opacity="1" /><path clip-path="url(#clip320)" d="M925.666 1705.58 L955.341 1705.58 L955.341 1709.51 L925.666 1709.51 L925.666 1705.58 Z" fill="#000000" fill-rule="evenodd" fill-opacity="1" /><path clip-path="url(#clip320)" d="M979.601 1703.77 Q982.957 1704.49 984.832 1706.76 Q986.73 1709.03 986.73 1712.36 Q986.73 1717.48 983.212 1720.28 Q979.693 1723.08 973.212 1723.08 Q971.036 1723.08 968.721 1722.64 Q966.429 1722.22 963.976 1721.37 L963.976 1716.85 Q965.92 1717.99 968.235 1718.57 Q970.55 1719.14 973.073 1719.14 Q977.471 1719.14 979.763 1717.41 Q982.077 1715.67 982.077 1712.36 Q982.077 1709.31 979.925 1707.59 Q977.795 1705.86 973.976 1705.86 L969.948 1705.86 L969.948 1702.01 L974.161 1702.01 Q977.61 1702.01 979.438 1700.65 Q981.267 1699.26 981.267 1696.67 Q981.267 1694.01 979.369 1692.59 Q977.494 1691.16 973.976 1691.16 Q972.054 1691.16 969.855 1691.58 Q967.656 1691.99 965.017 1692.87 L965.017 1688.7 Q967.679 1687.96 969.994 1687.59 Q972.332 1687.22 974.392 1687.22 Q979.716 1687.22 982.818 1689.65 Q985.92 1692.06 985.92 1696.18 Q985.92 1699.05 984.276 1701.04 Q982.633 1703.01 979.601 1703.77 Z" fill="#000000" fill-rule="evenodd" fill-opacity="1" /><path clip-path="url(#clip320)" d="M1072.88 1705.58 L1102.55 1705.58 L1102.55 1709.51 L1072.88 1709.51 L1072.88 1705.58 Z" fill="#000000" fill-rule="evenodd" fill-opacity="1" /><path clip-path="url(#clip320)" d="M1116.67 1718.47 L1132.99 1718.47 L1132.99 1722.41 L1111.05 1722.41 L1111.05 1718.47 Q1113.71 1715.72 1118.3 1711.09 Q1122.9 1706.44 1124.08 1705.09 Q1126.33 1702.57 1127.21 1700.83 Q1128.11 1699.08 1128.11 1697.39 Q1128.11 1694.63 1126.17 1692.89 Q1124.24 1691.16 1121.14 1691.16 Q1118.94 1691.16 1116.49 1691.92 Q1114.06 1692.69 1111.28 1694.24 L1111.28 1689.51 Q1114.11 1688.38 1116.56 1687.8 Q1119.01 1687.22 1121.05 1687.22 Q1126.42 1687.22 1129.61 1689.91 Q1132.81 1692.59 1132.81 1697.08 Q1132.81 1699.21 1132 1701.14 Q1131.21 1703.03 1129.11 1705.63 Q1128.53 1706.3 1125.42 1709.51 Q1122.32 1712.71 1116.67 1718.47 Z" fill="#000000" fill-rule="evenodd" fill-opacity="1" /><path clip-path="url(#clip320)" d="M1219.43 1705.58 L1249.11 1705.58 L1249.11 1709.51 L1219.43 1709.51 L1219.43 1705.58 Z" fill="#000000" fill-rule="evenodd" fill-opacity="1" /><path clip-path="url(#clip320)" d="M1260.01 1718.47 L1267.65 1718.47 L1267.65 1692.11 L1259.34 1693.77 L1259.34 1689.51 L1267.6 1687.85 L1272.28 1687.85 L1272.28 1718.47 L1279.92 1718.47 L1279.92 1722.41 L1260.01 1722.41 L1260.01 1718.47 Z" fill="#000000" fill-rule="evenodd" fill-opacity="1" /><path clip-path="url(#clip320)" d="M1396.41 1690.93 Q1392.8 1690.93 1390.97 1694.49 Q1389.17 1698.03 1389.17 1705.16 Q1389.17 1712.27 1390.97 1715.83 Q1392.8 1719.38 1396.41 1719.38 Q1400.05 1719.38 1401.85 1715.83 Q1403.68 1712.27 1403.68 1705.16 Q1403.68 1698.03 1401.85 1694.49 Q1400.05 1690.93 1396.41 1690.93 M1396.41 1687.22 Q1402.22 1687.22 1405.28 1691.83 Q1408.36 1696.41 1408.36 1705.16 Q1408.36 1713.89 1405.28 1718.5 Q1402.22 1723.08 1396.41 1723.08 Q1390.6 1723.08 1387.52 1718.5 Q1384.47 1713.89 1384.47 1705.16 Q1384.47 1696.41 1387.52 1691.83 Q1390.6 1687.22 1396.41 1687.22 Z" fill="#000000" fill-rule="evenodd" fill-opacity="1" /><path clip-path="url(#clip320)" d="M1533.53 1718.47 L1541.17 1718.47 L1541.17 1692.11 L1532.86 1693.77 L1532.86 1689.51 L1541.13 1687.85 L1545.8 1687.85 L1545.8 1718.47 L1553.44 1718.47 L1553.44 1722.41 L1533.53 1722.41 L1533.53 1718.47 Z" fill="#000000" fill-rule="evenodd" fill-opacity="1" /><path clip-path="url(#clip320)" d="M1684.54 1718.47 L1700.86 1718.47 L1700.86 1722.41 L1678.92 1722.41 L1678.92 1718.47 Q1681.58 1715.72 1686.16 1711.09 Q1690.77 1706.44 1691.95 1705.09 Q1694.2 1702.57 1695.08 1700.83 Q1695.98 1699.08 1695.98 1697.39 Q1695.98 1694.63 1694.03 1692.89 Q1692.11 1691.16 1689.01 1691.16 Q1686.81 1691.16 1684.36 1691.92 Q1681.93 1692.69 1679.15 1694.24 L1679.15 1689.51 Q1681.97 1688.38 1684.43 1687.8 Q1686.88 1687.22 1688.92 1687.22 Q1694.29 1687.22 1697.48 1689.91 Q1700.68 1692.59 1700.68 1697.08 Q1700.68 1699.21 1699.87 1701.14 Q1699.08 1703.03 1696.97 1705.63 Q1696.39 1706.3 1693.29 1709.51 Q1690.19 1712.71 1684.54 1718.47 Z" fill="#000000" fill-rule="evenodd" fill-opacity="1" /><path clip-path="url(#clip320)" d="M1840.88 1703.77 Q1844.23 1704.49 1846.11 1706.76 Q1848.01 1709.03 1848.01 1712.36 Q1848.01 1717.48 1844.49 1720.28 Q1840.97 1723.08 1834.49 1723.08 Q1832.31 1723.08 1830 1722.64 Q1827.71 1722.22 1825.25 1721.37 L1825.25 1716.85 Q1827.2 1717.99 1829.51 1718.57 Q1831.83 1719.14 1834.35 1719.14 Q1838.75 1719.14 1841.04 1717.41 Q1843.35 1715.67 1843.35 1712.36 Q1843.35 1709.31 1841.2 1707.59 Q1839.07 1705.86 1835.25 1705.86 L1831.22 1705.86 L1831.22 1702.01 L1835.44 1702.01 Q1838.89 1702.01 1840.71 1700.65 Q1842.54 1699.26 1842.54 1696.67 Q1842.54 1694.01 1840.65 1692.59 Q1838.77 1691.16 1835.25 1691.16 Q1833.33 1691.16 1831.13 1691.58 Q1828.93 1691.99 1826.29 1692.87 L1826.29 1688.7 Q1828.96 1687.96 1831.27 1687.59 Q1833.61 1687.22 1835.67 1687.22 Q1840.99 1687.22 1844.09 1689.65 Q1847.2 1692.06 1847.2 1696.18 Q1847.2 1699.05 1845.55 1701.04 Q1843.91 1703.01 1840.88 1703.77 Z" fill="#000000" fill-rule="evenodd" fill-opacity="1" /><path clip-path="url(#clip320)" d="M1986.38 1691.92 L1974.57 1710.37 L1986.38 1710.37 L1986.38 1691.92 M1985.15 1687.85 L1991.03 1687.85 L1991.03 1710.37 L1995.96 1710.37 L1995.96 1714.26 L1991.03 1714.26 L1991.03 1722.41 L1986.38 1722.41 L1986.38 1714.26 L1970.77 1714.26 L1970.77 1709.75 L1985.15 1687.85 Z" fill="#000000" fill-rule="evenodd" fill-opacity="1" /><path clip-path="url(#clip320)" d="M2120.38 1687.85 L2138.74 1687.85 L2138.74 1691.78 L2124.67 1691.78 L2124.67 1700.26 Q2125.68 1699.91 2126.7 1699.75 Q2127.72 1699.56 2128.74 1699.56 Q2134.53 1699.56 2137.91 1702.73 Q2141.29 1705.9 2141.29 1711.32 Q2141.29 1716.9 2137.81 1720 Q2134.34 1723.08 2128.02 1723.08 Q2125.85 1723.08 2123.58 1722.71 Q2121.33 1722.34 2118.93 1721.6 L2118.93 1716.9 Q2121.01 1718.03 2123.23 1718.59 Q2125.45 1719.14 2127.93 1719.14 Q2131.93 1719.14 2134.27 1717.04 Q2136.61 1714.93 2136.61 1711.32 Q2136.61 1707.71 2134.27 1705.6 Q2131.93 1703.5 2127.93 1703.5 Q2126.06 1703.5 2124.18 1703.91 Q2122.33 1704.33 2120.38 1705.21 L2120.38 1687.85 Z" fill="#000000" fill-rule="evenodd" fill-opacity="1" /><path clip-path="url(#clip320)" d="M2277.25 1703.26 Q2274.1 1703.26 2272.25 1705.42 Q2270.42 1707.57 2270.42 1711.32 Q2270.42 1715.05 2272.25 1717.22 Q2274.1 1719.38 2277.25 1719.38 Q2280.4 1719.38 2282.23 1717.22 Q2284.08 1715.05 2284.08 1711.32 Q2284.08 1707.57 2282.23 1705.42 Q2280.4 1703.26 2277.25 1703.26 M2286.53 1688.61 L2286.53 1692.87 Q2284.77 1692.04 2282.97 1691.6 Q2281.18 1691.16 2279.43 1691.16 Q2274.8 1691.16 2272.34 1694.28 Q2269.91 1697.41 2269.56 1703.73 Q2270.93 1701.71 2272.99 1700.65 Q2275.05 1699.56 2277.53 1699.56 Q2282.74 1699.56 2285.74 1702.73 Q2288.78 1705.88 2288.78 1711.32 Q2288.78 1716.64 2285.63 1719.86 Q2282.48 1723.08 2277.25 1723.08 Q2271.25 1723.08 2268.08 1718.5 Q2264.91 1713.89 2264.91 1705.16 Q2264.91 1696.97 2268.8 1692.11 Q2272.69 1687.22 2279.24 1687.22 Q2281 1687.22 2282.78 1687.57 Q2284.59 1687.92 2286.53 1688.61 Z" fill="#000000" fill-rule="evenodd" fill-opacity="1" /><path clip-path="url(#clip320)" d="M2412.47 1687.85 L2434.69 1687.85 L2434.69 1689.84 L2422.15 1722.41 L2417.26 1722.41 L2429.07 1691.78 L2412.47 1691.78 L2412.47 1687.85 Z" fill="#000000" fill-rule="evenodd" fill-opacity="1" /><path clip-path="url(#clip320)" d="M2570.32 1706 Q2566.99 1706 2565.07 1707.78 Q2563.17 1709.56 2563.17 1712.69 Q2563.17 1715.81 2565.07 1717.59 Q2566.99 1719.38 2570.32 1719.38 Q2573.65 1719.38 2575.58 1717.59 Q2577.5 1715.79 2577.5 1712.69 Q2577.5 1709.56 2575.58 1707.78 Q2573.68 1706 2570.32 1706 M2565.65 1704.01 Q2562.64 1703.26 2560.95 1701.2 Q2559.28 1699.14 2559.28 1696.18 Q2559.28 1692.04 2562.22 1689.63 Q2565.18 1687.22 2570.32 1687.22 Q2575.48 1687.22 2578.42 1689.63 Q2581.36 1692.04 2581.36 1696.18 Q2581.36 1699.14 2579.67 1701.2 Q2578.01 1703.26 2575.02 1704.01 Q2578.4 1704.79 2580.28 1707.08 Q2582.17 1709.38 2582.17 1712.69 Q2582.17 1717.71 2579.09 1720.39 Q2576.04 1723.08 2570.32 1723.08 Q2564.6 1723.08 2561.53 1720.39 Q2558.47 1717.71 2558.47 1712.69 Q2558.47 1709.38 2560.37 1707.08 Q2562.27 1704.79 2565.65 1704.01 M2563.93 1696.62 Q2563.93 1699.31 2565.6 1700.81 Q2567.29 1702.32 2570.32 1702.32 Q2573.33 1702.32 2575.02 1700.81 Q2576.73 1699.31 2576.73 1696.62 Q2576.73 1693.94 2575.02 1692.43 Q2573.33 1690.93 2570.32 1690.93 Q2567.29 1690.93 2565.6 1692.43 Q2563.93 1693.94 2563.93 1696.62 Z" fill="#000000" fill-rule="evenodd" fill-opacity="1" /><polyline clip-path="url(#clip323)" style="stroke:#000000; stroke-linecap:round; stroke-linejoin:round; stroke-width:2; stroke-opacity:0.1; fill:none" points="
  152.071,1657.7 2640.76,1657.7 
  "/>
<polyline clip-path="url(#clip323)" style="stroke:#000000; stroke-linecap:round; stroke-linejoin:round; stroke-width:2; stroke-opacity:0.1; fill:none" points="
  152.071,1510.97 2640.76,1510.97 
  "/>
<polyline clip-path="url(#clip323)" style="stroke:#000000; stroke-linecap:round; stroke-linejoin:round; stroke-width:2; stroke-opacity:0.1; fill:none" points="
  152.071,1364.23 2640.76,1364.23 
  "/>
<polyline clip-path="url(#clip323)" style="stroke:#000000; stroke-linecap:round; stroke-linejoin:round; stroke-width:2; stroke-opacity:0.1; fill:none" points="
  152.071,1217.49 2640.76,1217.49 
  "/>
<polyline clip-path="url(#clip323)" style="stroke:#000000; stroke-linecap:round; stroke-linejoin:round; stroke-width:2; stroke-opacity:0.1; fill:none" points="
  152.071,1070.75 2640.76,1070.75 
  "/>
<polyline clip-path="url(#clip323)" style="stroke:#000000; stroke-linecap:round; stroke-linejoin:round; stroke-width:2; stroke-opacity:0.1; fill:none" points="
  152.071,924.012 2640.76,924.012 
  "/>
<polyline clip-path="url(#clip323)" style="stroke:#000000; stroke-linecap:round; stroke-linejoin:round; stroke-width:2; stroke-opacity:0.1; fill:none" points="
  152.071,777.273 2640.76,777.273 
  "/>
<polyline clip-path="url(#clip323)" style="stroke:#000000; stroke-linecap:round; stroke-linejoin:round; stroke-width:2; stroke-opacity:0.1; fill:none" points="
  152.071,630.535 2640.76,630.535 
  "/>
<polyline clip-path="url(#clip323)" style="stroke:#000000; stroke-linecap:round; stroke-linejoin:round; stroke-width:2; stroke-opacity:0.1; fill:none" points="
  152.071,483.796 2640.76,483.796 
  "/>
<polyline clip-path="url(#clip323)" style="stroke:#000000; stroke-linecap:round; stroke-linejoin:round; stroke-width:2; stroke-opacity:0.1; fill:none" points="
  152.071,337.058 2640.76,337.058 
  "/>
<polyline clip-path="url(#clip323)" style="stroke:#000000; stroke-linecap:round; stroke-linejoin:round; stroke-width:2; stroke-opacity:0.1; fill:none" points="
  152.071,190.319 2640.76,190.319 
  "/>
<polyline clip-path="url(#clip320)" style="stroke:#000000; stroke-linecap:round; stroke-linejoin:round; stroke-width:4; stroke-opacity:1; fill:none" points="
  152.071,1657.7 152.071,190.319 
  "/>
<polyline clip-path="url(#clip320)" style="stroke:#000000; stroke-linecap:round; stroke-linejoin:round; stroke-width:4; stroke-opacity:1; fill:none" points="
  152.071,1657.7 170.969,1657.7 
  "/>
<polyline clip-path="url(#clip320)" style="stroke:#000000; stroke-linecap:round; stroke-linejoin:round; stroke-width:4; stroke-opacity:1; fill:none" points="
  152.071,1510.97 170.969,1510.97 
  "/>
<polyline clip-path="url(#clip320)" style="stroke:#000000; stroke-linecap:round; stroke-linejoin:round; stroke-width:4; stroke-opacity:1; fill:none" points="
  152.071,1364.23 170.969,1364.23 
  "/>
<polyline clip-path="url(#clip320)" style="stroke:#000000; stroke-linecap:round; stroke-linejoin:round; stroke-width:4; stroke-opacity:1; fill:none" points="
  152.071,1217.49 170.969,1217.49 
  "/>
<polyline clip-path="url(#clip320)" style="stroke:#000000; stroke-linecap:round; stroke-linejoin:round; stroke-width:4; stroke-opacity:1; fill:none" points="
  152.071,1070.75 170.969,1070.75 
  "/>
<polyline clip-path="url(#clip320)" style="stroke:#000000; stroke-linecap:round; stroke-linejoin:round; stroke-width:4; stroke-opacity:1; fill:none" points="
  152.071,924.012 170.969,924.012 
  "/>
<polyline clip-path="url(#clip320)" style="stroke:#000000; stroke-linecap:round; stroke-linejoin:round; stroke-width:4; stroke-opacity:1; fill:none" points="
  152.071,777.273 170.969,777.273 
  "/>
<polyline clip-path="url(#clip320)" style="stroke:#000000; stroke-linecap:round; stroke-linejoin:round; stroke-width:4; stroke-opacity:1; fill:none" points="
  152.071,630.535 170.969,630.535 
  "/>
<polyline clip-path="url(#clip320)" style="stroke:#000000; stroke-linecap:round; stroke-linejoin:round; stroke-width:4; stroke-opacity:1; fill:none" points="
  152.071,483.796 170.969,483.796 
  "/>
<polyline clip-path="url(#clip320)" style="stroke:#000000; stroke-linecap:round; stroke-linejoin:round; stroke-width:4; stroke-opacity:1; fill:none" points="
  152.071,337.058 170.969,337.058 
  "/>
<polyline clip-path="url(#clip320)" style="stroke:#000000; stroke-linecap:round; stroke-linejoin:round; stroke-width:4; stroke-opacity:1; fill:none" points="
  152.071,190.319 170.969,190.319 
  "/>
<path clip-path="url(#clip320)" d="M51.0336 1658.16 L80.7094 1658.16 L80.7094 1662.09 L51.0336 1662.09 L51.0336 1658.16 Z" fill="#000000" fill-rule="evenodd" fill-opacity="1" /><path clip-path="url(#clip320)" d="M90.8482 1640.42 L109.205 1640.42 L109.205 1644.36 L95.1306 1644.36 L95.1306 1652.83 Q96.1491 1652.48 97.1676 1652.32 Q98.1861 1652.14 99.2046 1652.14 Q104.992 1652.14 108.371 1655.31 Q111.751 1658.48 111.751 1663.9 Q111.751 1669.47 108.279 1672.58 Q104.806 1675.66 98.487 1675.66 Q96.3111 1675.66 94.0426 1675.29 Q91.7973 1674.91 89.3899 1674.17 L89.3899 1669.47 Q91.4732 1670.61 93.6954 1671.16 Q95.9176 1671.72 98.3945 1671.72 Q102.399 1671.72 104.737 1669.61 Q107.075 1667.51 107.075 1663.9 Q107.075 1660.29 104.737 1658.18 Q102.399 1656.07 98.3945 1656.07 Q96.5195 1656.07 94.6445 1656.49 Q92.7926 1656.91 90.8482 1657.79 L90.8482 1640.42 Z" fill="#000000" fill-rule="evenodd" fill-opacity="1" /><path clip-path="url(#clip320)" d="M49.5521 1511.42 L79.2279 1511.42 L79.2279 1515.35 L49.5521 1515.35 L49.5521 1511.42 Z" fill="#000000" fill-rule="evenodd" fill-opacity="1" /><path clip-path="url(#clip320)" d="M102.168 1497.76 L90.3621 1516.21 L102.168 1516.21 L102.168 1497.76 M100.941 1493.69 L106.82 1493.69 L106.82 1516.21 L111.751 1516.21 L111.751 1520.1 L106.82 1520.1 L106.82 1528.25 L102.168 1528.25 L102.168 1520.1 L86.5658 1520.1 L86.5658 1515.58 L100.941 1493.69 Z" fill="#000000" fill-rule="evenodd" fill-opacity="1" /><path clip-path="url(#clip320)" d="M50.6864 1364.68 L80.3621 1364.68 L80.3621 1368.61 L50.6864 1368.61 L50.6864 1364.68 Z" fill="#000000" fill-rule="evenodd" fill-opacity="1" /><path clip-path="url(#clip320)" d="M104.621 1362.87 Q107.978 1363.59 109.853 1365.86 Q111.751 1368.13 111.751 1371.46 Q111.751 1376.58 108.232 1379.38 Q104.714 1382.18 98.2324 1382.18 Q96.0565 1382.18 93.7417 1381.74 Q91.45 1381.32 88.9964 1380.47 L88.9964 1375.95 Q90.9408 1377.09 93.2556 1377.66 Q95.5704 1378.24 98.0935 1378.24 Q102.492 1378.24 104.783 1376.51 Q107.098 1374.77 107.098 1371.46 Q107.098 1368.41 104.945 1366.69 Q102.816 1364.96 98.9963 1364.96 L94.9685 1364.96 L94.9685 1361.11 L99.1815 1361.11 Q102.631 1361.11 104.459 1359.75 Q106.288 1358.36 106.288 1355.77 Q106.288 1353.1 104.39 1351.69 Q102.515 1350.26 98.9963 1350.26 Q97.075 1350.26 94.876 1350.67 Q92.6769 1351.09 90.038 1351.97 L90.038 1347.8 Q92.7 1347.06 95.0148 1346.69 Q97.3528 1346.32 99.413 1346.32 Q104.737 1346.32 107.839 1348.75 Q110.941 1351.16 110.941 1355.28 Q110.941 1358.15 109.297 1360.14 Q107.654 1362.11 104.621 1362.87 Z" fill="#000000" fill-rule="evenodd" fill-opacity="1" /><path clip-path="url(#clip320)" d="M51.6354 1217.94 L81.3112 1217.94 L81.3112 1221.88 L51.6354 1221.88 L51.6354 1217.94 Z" fill="#000000" fill-rule="evenodd" fill-opacity="1" /><path clip-path="url(#clip320)" d="M95.4315 1230.83 L111.751 1230.83 L111.751 1234.77 L89.8065 1234.77 L89.8065 1230.83 Q92.4686 1228.08 97.0519 1223.45 Q101.658 1218.8 102.839 1217.45 Q105.084 1214.93 105.964 1213.19 Q106.867 1211.44 106.867 1209.75 Q106.867 1206.99 104.922 1205.25 Q103.001 1203.52 99.8991 1203.52 Q97.7 1203.52 95.2463 1204.28 Q92.8158 1205.05 90.038 1206.6 L90.038 1201.88 Q92.8621 1200.74 95.3158 1200.16 Q97.7695 1199.58 99.8065 1199.58 Q105.177 1199.58 108.371 1202.27 Q111.566 1204.95 111.566 1209.44 Q111.566 1211.57 110.756 1213.5 Q109.968 1215.39 107.862 1217.99 Q107.283 1218.66 104.181 1221.88 Q101.08 1225.07 95.4315 1230.83 Z" fill="#000000" fill-rule="evenodd" fill-opacity="1" /><path clip-path="url(#clip320)" d="M51.2651 1071.2 L80.9408 1071.2 L80.9408 1075.14 L51.2651 1075.14 L51.2651 1071.2 Z" fill="#000000" fill-rule="evenodd" fill-opacity="1" /><path clip-path="url(#clip320)" d="M91.8436 1084.1 L99.4824 1084.1 L99.4824 1057.73 L91.1723 1059.4 L91.1723 1055.14 L99.4361 1053.47 L104.112 1053.47 L104.112 1084.1 L111.751 1084.1 L111.751 1088.03 L91.8436 1088.03 L91.8436 1084.1 Z" fill="#000000" fill-rule="evenodd" fill-opacity="1" /><path clip-path="url(#clip320)" d="M99.8065 909.81 Q96.1954 909.81 94.3667 913.375 Q92.5612 916.917 92.5612 924.046 Q92.5612 931.153 94.3667 934.718 Q96.1954 938.259 99.8065 938.259 Q103.441 938.259 105.246 934.718 Q107.075 931.153 107.075 924.046 Q107.075 916.917 105.246 913.375 Q103.441 909.81 99.8065 909.81 M99.8065 906.107 Q105.617 906.107 108.672 910.713 Q111.751 915.296 111.751 924.046 Q111.751 932.773 108.672 937.38 Q105.617 941.963 99.8065 941.963 Q93.9963 941.963 90.9176 937.38 Q87.8621 932.773 87.8621 924.046 Q87.8621 915.296 90.9176 910.713 Q93.9963 906.107 99.8065 906.107 Z" fill="#000000" fill-rule="evenodd" fill-opacity="1" /><path clip-path="url(#clip320)" d="M91.8436 790.618 L99.4824 790.618 L99.4824 764.252 L91.1723 765.919 L91.1723 761.66 L99.4361 759.993 L104.112 759.993 L104.112 790.618 L111.751 790.618 L111.751 794.553 L91.8436 794.553 L91.8436 790.618 Z" fill="#000000" fill-rule="evenodd" fill-opacity="1" /><path clip-path="url(#clip320)" d="M95.4315 643.88 L111.751 643.88 L111.751 647.815 L89.8065 647.815 L89.8065 643.88 Q92.4686 641.125 97.0519 636.495 Q101.658 631.843 102.839 630.5 Q105.084 627.977 105.964 626.241 Q106.867 624.481 106.867 622.792 Q106.867 620.037 104.922 618.301 Q103.001 616.565 99.8991 616.565 Q97.7 616.565 95.2463 617.329 Q92.8158 618.093 90.038 619.644 L90.038 614.921 Q92.8621 613.787 95.3158 613.208 Q97.7695 612.63 99.8065 612.63 Q105.177 612.63 108.371 615.315 Q111.566 618 111.566 622.491 Q111.566 624.62 110.756 626.542 Q109.968 628.44 107.862 631.032 Q107.283 631.704 104.181 634.921 Q101.08 638.116 95.4315 643.88 Z" fill="#000000" fill-rule="evenodd" fill-opacity="1" /><path clip-path="url(#clip320)" d="M104.621 482.442 Q107.978 483.16 109.853 485.428 Q111.751 487.697 111.751 491.03 Q111.751 496.146 108.232 498.947 Q104.714 501.747 98.2324 501.747 Q96.0565 501.747 93.7417 501.308 Q91.45 500.891 88.9964 500.035 L88.9964 495.521 Q90.9408 496.655 93.2556 497.234 Q95.5704 497.812 98.0935 497.812 Q102.492 497.812 104.783 496.076 Q107.098 494.34 107.098 491.03 Q107.098 487.974 104.945 486.261 Q102.816 484.525 98.9963 484.525 L94.9685 484.525 L94.9685 480.683 L99.1815 480.683 Q102.631 480.683 104.459 479.317 Q106.288 477.928 106.288 475.336 Q106.288 472.674 104.39 471.262 Q102.515 469.826 98.9963 469.826 Q97.075 469.826 94.876 470.243 Q92.6769 470.66 90.038 471.539 L90.038 467.373 Q92.7 466.632 95.0148 466.262 Q97.3528 465.891 99.413 465.891 Q104.737 465.891 107.839 468.322 Q110.941 470.729 110.941 474.849 Q110.941 477.72 109.297 479.711 Q107.654 481.678 104.621 482.442 Z" fill="#000000" fill-rule="evenodd" fill-opacity="1" /><path clip-path="url(#clip320)" d="M102.168 323.852 L90.3621 342.301 L102.168 342.301 L102.168 323.852 M100.941 319.778 L106.82 319.778 L106.82 342.301 L111.751 342.301 L111.751 346.19 L106.82 346.19 L106.82 354.338 L102.168 354.338 L102.168 346.19 L86.5658 346.19 L86.5658 341.676 L100.941 319.778 Z" fill="#000000" fill-rule="evenodd" fill-opacity="1" /><path clip-path="url(#clip320)" d="M90.8482 173.039 L109.205 173.039 L109.205 176.974 L95.1306 176.974 L95.1306 185.447 Q96.1491 185.099 97.1676 184.937 Q98.1861 184.752 99.2046 184.752 Q104.992 184.752 108.371 187.923 Q111.751 191.095 111.751 196.511 Q111.751 202.09 108.279 205.192 Q104.806 208.27 98.487 208.27 Q96.3111 208.27 94.0426 207.9 Q91.7973 207.53 89.3899 206.789 L89.3899 202.09 Q91.4732 203.224 93.6954 203.78 Q95.9176 204.335 98.3945 204.335 Q102.399 204.335 104.737 202.229 Q107.075 200.122 107.075 196.511 Q107.075 192.9 104.737 190.794 Q102.399 188.687 98.3945 188.687 Q96.5195 188.687 94.6445 189.104 Q92.7926 189.521 90.8482 190.4 L90.8482 173.039 Z" fill="#000000" fill-rule="evenodd" fill-opacity="1" /><polyline clip-path="url(#clip323)" style="stroke:#009af9; stroke-linecap:round; stroke-linejoin:round; stroke-width:4; stroke-opacity:1; fill:none" points="
  222.505,756.972 237.791,756.494 379.128,751.195 464.066,747.032 535.88,742.733 613.889,737.011 685.808,730.476 762.911,721.677 852.244,708.228 891.938,700.698 
  931.632,691.859 966.44,682.711 1001.25,671.812 1020.22,664.895 1039.2,657.081 1058.17,648.124 1077.15,637.671 1096.24,625.101 1115.32,609.605 1134.41,589.727 
  1153.5,562.831 1164.05,543.215 1174.6,518.387 1179.88,503.272 1185.16,485.763 1190.43,465.215 1195.71,440.731 1200.98,411.025 1206.26,374.184 1208.9,352.219 
  1211.54,327.236 1214.17,298.561 1216.81,265.301 1219.45,226.255 1222.09,179.762 1223.41,153.019 1224.73,123.454 1226.05,90.5922 1227.36,53.8488 1228.68,12.4918 
  1230,-34.4074 1231.32,-88.044 1232.64,-149.984 1233.96,-222.318 1235.28,-307.904 1235.94,-356.86 1236.6,-410.754 1237.26,-470.371 1237.92,-536.676 1238.54,-607.058 
  1239.17,-685.849 1239.8,-774.653 1240.43,-875.508 1241.05,-991.045 1241.68,-1124.72 1242.31,-1281.18 1242.94,-1466.77 1243.56,-1690.49 1244.19,-1965.4 
  "/>
<polyline clip-path="url(#clip323)" style="stroke:#009af9; stroke-linecap:round; stroke-linejoin:round; stroke-width:4; stroke-opacity:1; fill:none" points="
  1254.86,3544.19 1255.49,3238.44 1256.11,2992.29 1256.74,2789.85 1257.37,2620.44 1258,2476.59 1258.62,2352.91 1259.25,2245.45 1259.88,2151.21 1260.51,2067.89 
  1261.13,1993.7 1261.76,1927.21 1262.39,1867.3 1263.02,1813.02 1263.64,1763.62 1264.27,1718.48 1264.9,1677.06 1265.53,1638.92 1266.78,1571.05 1268.04,1512.47 
  1269.29,1461.4 1270.55,1416.48 1271.8,1376.67 1273.06,1341.15 1275.57,1280.48 1278.08,1230.58 1279.33,1208.81 1280.59,1188.83 1281.84,1170.41 1283.1,1153.4 
  1285.61,1122.97 1288.12,1096.56 1293.14,1053.04 1298.16,1018.72 1303.18,991.043 1308.2,968.315 1313.22,949.386 1318.24,933.445 1328.68,907.473 1339.12,888.544 
  1349.55,874.644 1359.99,864.554 1370.43,857.514 1380.87,853.054 1391.31,850.9 1401.75,850.924 1419.33,855.951 1436.9,868.089 1445.69,877.487 1454.48,889.742 
  1463.26,905.627 1472.05,926.327 1477.42,942.09 1482.78,960.947 1488.14,983.768 1493.51,1011.8 1498.87,1046.91 1504.24,1091.98 1506.92,1119.61 1509.6,1151.74 
  1510.94,1169.83 1512.28,1189.5 1512.96,1200 1513.63,1210.98 1514.3,1222.48 1514.97,1234.53 1517.65,1289.09 1520.33,1356.54 1521.67,1396.61 1523.01,1442.03 
  1524.35,1493.95 1525.7,1553.87 1527.04,1623.77 1528.38,1706.39 1529.05,1753.6 1529.72,1805.52 1530.39,1862.9 1531.06,1926.66 1531.73,1997.9 1532.4,2078.04 
  1533.07,2168.84 1533.74,2272.59 1534.41,2392.27 1535.08,2531.84 1535.75,2696.72 1536.42,2894.47 1537.09,3136.01 1537.77,3437.69 1538.44,3825.17 
  "/>
<polyline clip-path="url(#clip323)" style="stroke:#009af9; stroke-linecap:round; stroke-linejoin:round; stroke-width:4; stroke-opacity:1; fill:none" points="
  1549.16,-1729.77 1549.83,-1484.79 1550.51,-1284.5 1551.18,-1117.67 1551.85,-976.582 1552.52,-855.696 1553.19,-750.964 1553.86,-659.351 1554.53,-578.537 1555.2,-506.72 
  1555.87,-442.475 1556.54,-384.665 1557.21,-332.369 1557.88,-284.834 1559.11,-208.107 1560.34,-142.348 1561.57,-85.3597 1562.8,-35.4973 1564.02,8.49798 1565.25,47.605 
  1566.48,82.5962 1567.71,114.09 1570.17,168.493 1572.62,213.839 1575.08,252.22 1577.54,285.13 1579.99,313.665 1582.45,338.648 1584.91,360.706 1587.37,380.328 
  1592.28,413.73 1597.19,441.117 1602.11,463.998 1607.02,483.419 1611.94,500.123 1616.85,514.658 1626.68,538.762 1636.51,557.999 1654.66,585.107 1672.82,605.204 
  1690.97,620.892 1709.12,633.622 1727.51,644.391 1745.9,653.589 1764.29,661.595 1782.68,668.669 1823.9,681.998 1865.12,692.801 1902.47,701.021 1939.82,708.095 
  2025.35,721.085 2104.54,730.226 2182.62,737.31 2258.42,742.829 2336.13,747.429 2421.27,751.525 2544.95,756.17 2570.32,756.972 
  "/>
<path clip-path="url(#clip320)" d="
M1850.14 492.328 L2557.8 492.328 L2557.8 248.77 L1850.14 248.77  Z
  " fill="#ffffff" fill-rule="evenodd" fill-opacity="1"/>
<polyline clip-path="url(#clip320)" style="stroke:#000000; stroke-linecap:round; stroke-linejoin:round; stroke-width:4; stroke-opacity:1; fill:none" points="
  1850.14,492.328 2557.8,492.328 2557.8,248.77 1850.14,248.77 1850.14,492.328 
  "/>
<polyline clip-path="url(#clip320)" style="stroke:#009af9; stroke-linecap:round; stroke-linejoin:round; stroke-width:4; stroke-opacity:1; fill:none" points="
  1877.8,370.549 2043.71,370.549 
  "/>
<path clip-path="url(#clip320)" d="M2093.38 363.483 Q2093.38 363.506 2093.24 364.35 L2087.9 385.641 Q2087.62 386.765 2086.82 387.889 Q2086.05 389.037 2084.81 390.021 Q2083.59 391.028 2081.71 391.637 Q2079.86 392.269 2077.73 392.269 Q2074.34 392.269 2072.84 391.543 Q2071.36 390.84 2071.36 389.341 Q2071.36 388.03 2072.18 387.28 Q2073 386.554 2073.94 386.554 Q2074.83 386.554 2075.3 387.069 Q2075.76 387.585 2075.76 388.24 Q2075.76 388.967 2075.27 389.693 Q2074.78 390.442 2073.8 390.723 Q2075.37 391.215 2077.64 391.215 Q2082.44 391.215 2084.5 386.132 Q2084.55 386.062 2084.55 386.039 L2086.14 379.691 L2086.07 379.644 Q2085.67 380.113 2085.04 380.652 Q2084.43 381.167 2083.12 381.799 Q2081.81 382.432 2080.52 382.432 Q2077.83 382.432 2075.98 380.371 Q2074.15 378.286 2074.15 374.843 Q2074.15 372.337 2075.16 369.83 Q2076.19 367.301 2077.78 365.45 Q2079.39 363.577 2081.46 362.406 Q2083.54 361.234 2085.55 361.234 Q2086.96 361.234 2088.15 362.078 Q2089.35 362.897 2090.01 364.256 Q2090.12 363.132 2090.75 362.663 Q2091.41 362.195 2091.97 362.195 Q2092.61 362.195 2092.98 362.546 Q2093.38 362.874 2093.38 363.483 M2089.44 366.411 Q2089.44 366.27 2089.35 365.895 Q2089.26 365.497 2088.97 364.865 Q2088.72 364.232 2088.32 363.67 Q2087.92 363.108 2087.19 362.71 Q2086.49 362.288 2085.6 362.288 Q2084.15 362.288 2082.7 363.506 Q2081.25 364.701 2080.24 366.551 Q2079.3 368.331 2078.41 371.774 Q2077.54 375.218 2077.54 376.974 Q2077.54 378.708 2078.29 380.043 Q2079.04 381.378 2080.66 381.378 Q2082.53 381.378 2084.55 379.644 Q2086.63 377.841 2086.98 376.295 L2089.3 367.137 Q2089.44 366.575 2089.44 366.411 Z" fill="#000000" fill-rule="evenodd" fill-opacity="1" /><path clip-path="url(#clip320)" d="M2099.96 370.439 Q2099.96 362.335 2102.98 355.8 Q2104.27 353.06 2106.07 350.765 Q2107.87 348.469 2109.07 347.462 Q2110.26 346.455 2110.59 346.455 Q2111.06 346.455 2111.08 346.923 Q2111.08 347.157 2110.45 347.743 Q2102.72 355.613 2102.74 370.439 Q2102.74 385.313 2110.26 392.878 Q2111.08 393.698 2111.08 393.956 Q2111.08 394.424 2110.59 394.424 Q2110.26 394.424 2109.11 393.464 Q2107.97 392.503 2106.19 390.302 Q2104.41 388.1 2103.12 385.406 Q2099.96 378.871 2099.96 370.439 Z" fill="#000000" fill-rule="evenodd" fill-opacity="1" /><path clip-path="url(#clip320)" d="M2129.46 362.288 Q2129.46 362.944 2129.16 363.108 Q2128.85 363.249 2128.01 363.249 L2123.51 363.249 L2119.95 377.396 Q2119.67 378.637 2119.67 379.691 Q2119.67 380.862 2120.02 381.378 Q2120.4 381.893 2121.17 381.893 Q2122.69 381.893 2124.33 380.511 Q2125.99 379.129 2127.4 375.756 Q2127.59 375.311 2127.68 375.218 Q2127.8 375.1 2128.1 375.1 Q2128.69 375.1 2128.69 375.569 Q2128.69 375.733 2128.36 376.482 Q2128.06 377.232 2127.38 378.333 Q2126.72 379.434 2125.85 380.464 Q2125.01 381.495 2123.72 382.244 Q2122.43 382.97 2121.05 382.97 Q2119.11 382.97 2117.87 381.729 Q2116.65 380.488 2116.65 378.544 Q2116.65 377.911 2117.14 375.897 Q2117.63 373.859 2120.3 363.249 L2116.06 363.249 Q2115.48 363.249 2115.24 363.225 Q2115.03 363.202 2114.87 363.085 Q2114.73 362.944 2114.73 362.663 Q2114.73 362.218 2114.92 362.031 Q2115.1 361.82 2115.34 361.797 Q2115.59 361.75 2116.18 361.75 L2120.68 361.75 L2122.55 354.137 Q2122.74 353.388 2123.21 352.966 Q2123.7 352.521 2123.98 352.474 Q2124.26 352.404 2124.47 352.404 Q2125.1 352.404 2125.48 352.755 Q2125.85 353.083 2125.85 353.692 Q2125.85 354.02 2123.89 361.75 L2128.1 361.75 Q2128.64 361.75 2128.85 361.773 Q2129.09 361.797 2129.27 361.914 Q2129.46 362.031 2129.46 362.288 Z" fill="#000000" fill-rule="evenodd" fill-opacity="1" /><path clip-path="url(#clip320)" d="M2133.22 393.956 Q2133.22 393.721 2133.83 393.136 Q2141.55 385.266 2141.55 370.439 Q2141.55 355.566 2134.13 348.048 Q2133.22 347.181 2133.22 346.923 Q2133.22 346.455 2133.68 346.455 Q2134.01 346.455 2135.16 347.415 Q2136.33 348.375 2138.09 350.577 Q2139.87 352.779 2141.18 355.472 Q2144.34 362.007 2144.34 370.439 Q2144.34 378.544 2141.32 385.078 Q2140.03 387.819 2138.23 390.114 Q2136.43 392.41 2135.23 393.417 Q2134.04 394.424 2133.68 394.424 Q2133.22 394.424 2133.22 393.956 Z" fill="#000000" fill-rule="evenodd" fill-opacity="1" /><path clip-path="url(#clip320)" d="M2164.95 375.147 Q2165 374.562 2165.91 374.562 L2195.3 374.562 Q2196.69 374.562 2196.71 375.1 Q2196.71 375.686 2195.4 375.663 L2166.24 375.663 Q2164.95 375.686 2164.95 375.147 M2164.95 365.778 Q2164.95 365.193 2165.96 365.216 L2195.26 365.216 Q2196.69 365.216 2196.71 365.778 Q2196.71 366.317 2195.49 366.317 L2165.91 366.317 Q2164.95 366.317 2164.95 365.778 Z" fill="#000000" fill-rule="evenodd" fill-opacity="1" /><path clip-path="url(#clip320)" d="M2240.19 335.036 Q2240.19 335.692 2239.88 335.856 Q2239.58 335.996 2238.74 335.996 L2234.24 335.996 L2230.68 350.143 Q2230.4 351.385 2230.4 352.439 Q2230.4 353.61 2230.75 354.125 Q2231.12 354.64 2231.9 354.64 Q2233.42 354.64 2235.06 353.259 Q2236.72 351.877 2238.13 348.504 Q2238.32 348.059 2238.41 347.965 Q2238.53 347.848 2238.83 347.848 Q2239.42 347.848 2239.42 348.316 Q2239.42 348.48 2239.09 349.23 Q2238.78 349.979 2238.1 351.08 Q2237.45 352.181 2236.58 353.212 Q2235.74 354.242 2234.45 354.992 Q2233.16 355.718 2231.78 355.718 Q2229.84 355.718 2228.59 354.477 Q2227.38 353.235 2227.38 351.291 Q2227.38 350.659 2227.87 348.644 Q2228.36 346.607 2231.03 335.996 L2226.79 335.996 Q2226.21 335.996 2225.97 335.973 Q2225.76 335.949 2225.6 335.832 Q2225.46 335.692 2225.46 335.411 Q2225.46 334.966 2225.64 334.778 Q2225.83 334.567 2226.07 334.544 Q2226.32 334.497 2226.91 334.497 L2231.41 334.497 L2233.28 326.885 Q2233.47 326.135 2233.94 325.714 Q2234.43 325.269 2234.71 325.222 Q2234.99 325.152 2235.2 325.152 Q2235.83 325.152 2236.21 325.503 Q2236.58 325.831 2236.58 326.44 Q2236.58 326.768 2234.61 334.497 L2238.83 334.497 Q2239.37 334.497 2239.58 334.521 Q2239.81 334.544 2240 334.661 Q2240.19 334.778 2240.19 335.036 Z" fill="#000000" fill-rule="evenodd" fill-opacity="1" /><path clip-path="url(#clip320)" d="M2245.15 326.646 L2245.15 325.613 L2255.47 309.857 Q2255.73 309.447 2256.14 309.463 Q2256.52 309.463 2256.6 309.611 Q2256.68 309.758 2256.68 310.332 L2256.68 325.613 L2260.04 325.613 L2260.04 326.646 L2256.68 326.646 L2256.68 329.564 Q2256.68 330.532 2257.07 330.843 Q2257.48 331.155 2259.22 331.155 L2259.93 331.155 L2259.93 332.188 Q2258.55 332.089 2255.37 332.089 Q2252.2 332.089 2250.83 332.188 L2250.83 331.155 L2251.53 331.155 Q2253.27 331.155 2253.68 330.859 Q2254.09 330.548 2254.09 329.564 L2254.09 326.646 L2245.15 326.646 M2246.1 325.613 L2254.29 325.613 L2254.29 313.087 L2246.1 325.613 Z" fill="#000000" fill-rule="evenodd" fill-opacity="1" /><path clip-path="url(#clip320)" d="M2279.42 343.772 Q2278.32 343.772 2278.32 343.187 Q2278.32 342.601 2279.47 342.601 Q2279.61 342.601 2279.84 342.625 Q2280.1 342.648 2280.15 342.648 L2293.66 342.648 L2293.66 329.087 Q2293.66 329.04 2293.64 328.829 Q2293.62 328.595 2293.62 328.454 Q2293.62 327.306 2294.18 327.306 Q2294.76 327.306 2294.76 328.454 L2294.76 342.648 L2308.3 342.648 Q2308.35 342.648 2308.58 342.625 Q2308.82 342.601 2308.96 342.601 Q2310.06 342.601 2310.06 343.187 Q2310.08 343.772 2308.91 343.772 Q2308.77 343.772 2308.56 343.749 Q2308.35 343.726 2308.3 343.726 L2294.76 343.726 L2294.76 357.966 Q2294.76 359.067 2294.18 359.067 Q2293.62 359.067 2293.62 357.92 Q2293.62 357.779 2293.64 357.545 Q2293.66 357.334 2293.66 357.287 L2293.66 343.726 L2280.15 343.726 Q2280.1 343.726 2279.82 343.749 Q2279.56 343.772 2279.42 343.772 Z" fill="#000000" fill-rule="evenodd" fill-opacity="1" /><path clip-path="url(#clip320)" d="M2328.59 327.798 L2328.59 326.299 Q2334.35 326.299 2337.33 323.231 Q2338.15 323.231 2338.29 323.418 Q2338.43 323.606 2338.43 324.472 L2338.43 351.385 Q2338.43 352.814 2339.13 353.259 Q2339.83 353.704 2342.9 353.704 L2344.42 353.704 L2344.42 355.179 Q2342.74 355.039 2336.65 355.039 Q2330.56 355.039 2328.89 355.179 L2328.89 353.704 L2330.42 353.704 Q2333.44 353.704 2334.16 353.282 Q2334.89 352.837 2334.89 351.385 L2334.89 326.534 Q2332.38 327.798 2328.59 327.798 Z" fill="#000000" fill-rule="evenodd" fill-opacity="1" /><path clip-path="url(#clip320)" d="M2347.54 334.029 Q2347.54 331.476 2348.29 329.742 Q2349.04 327.986 2350.61 326.252 Q2353.49 323.231 2357.66 323.231 Q2359.44 323.231 2361.01 323.981 Q2362.6 324.73 2364.1 326.44 Q2365.62 328.126 2366.53 331.476 Q2367.45 334.802 2367.45 339.392 Q2367.45 346.817 2363.84 351.525 Q2360.26 356.233 2355.41 356.233 Q2352.34 356.233 2350.54 354.851 Q2348.73 353.446 2348.73 351.057 Q2348.73 349.815 2349.44 349.3 Q2350.14 348.761 2350.93 348.761 Q2351.8 348.761 2352.48 349.347 Q2353.16 349.909 2353.16 350.963 Q2353.16 351.83 2352.6 352.509 Q2352.06 353.165 2350.65 353.165 Q2352.04 354.898 2355.36 354.898 Q2356.56 354.898 2357.75 354.359 Q2358.95 353.797 2360.23 352.462 Q2361.54 351.104 2362.34 348.27 Q2363.14 345.435 2363.14 341.454 L2363.14 339.931 Q2361.22 344.733 2357.14 344.733 Q2353.11 344.733 2350.33 341.641 Q2347.54 338.549 2347.54 334.029 M2351.85 334.076 Q2351.85 338.83 2352.71 340.587 Q2354.19 343.609 2357.19 343.609 Q2360.12 343.609 2361.57 341.009 Q2363.04 338.385 2363.04 334.989 Q2363.04 330.281 2362.27 328.22 Q2360.84 324.426 2357.66 324.426 Q2354.49 324.426 2352.86 327.447 Q2351.85 329.227 2351.85 334.076 Z" fill="#000000" fill-rule="evenodd" fill-opacity="1" /><path clip-path="url(#clip320)" d="M2386.03 335.036 Q2386.03 335.692 2385.72 335.856 Q2385.42 335.996 2384.58 335.996 L2380.08 335.996 L2376.52 350.143 Q2376.24 351.385 2376.24 352.439 Q2376.24 353.61 2376.59 354.125 Q2376.96 354.64 2377.74 354.64 Q2379.26 354.64 2380.9 353.259 Q2382.56 351.877 2383.97 348.504 Q2384.15 348.059 2384.25 347.965 Q2384.36 347.848 2384.67 347.848 Q2385.25 347.848 2385.25 348.316 Q2385.25 348.48 2384.93 349.23 Q2384.62 349.979 2383.94 351.08 Q2383.29 352.181 2382.42 353.212 Q2381.58 354.242 2380.29 354.992 Q2379 355.718 2377.62 355.718 Q2375.67 355.718 2374.43 354.477 Q2373.22 353.235 2373.22 351.291 Q2373.22 350.659 2373.71 348.644 Q2374.2 346.607 2376.87 335.996 L2372.63 335.996 Q2372.04 335.996 2371.81 335.973 Q2371.6 335.949 2371.44 335.832 Q2371.29 335.692 2371.29 335.411 Q2371.29 334.966 2371.48 334.778 Q2371.67 334.567 2371.9 334.544 Q2372.16 334.497 2372.75 334.497 L2377.24 334.497 L2379.12 326.885 Q2379.31 326.135 2379.77 325.714 Q2380.27 325.269 2380.55 325.222 Q2380.83 325.152 2381.04 325.152 Q2381.67 325.152 2382.05 325.503 Q2382.42 325.831 2382.42 326.44 Q2382.42 326.768 2380.45 334.497 L2384.67 334.497 Q2385.21 334.497 2385.42 334.521 Q2385.65 334.544 2385.84 334.661 Q2386.03 334.778 2386.03 335.036 Z" fill="#000000" fill-rule="evenodd" fill-opacity="1" /><path clip-path="url(#clip320)" d="M2390.99 332.074 Q2390.99 331.467 2391.04 331.287 Q2391.11 331.106 2391.37 330.828 L2397.81 323.646 Q2401.34 319.678 2401.34 316.219 Q2401.34 313.973 2400.16 312.366 Q2398.99 310.759 2396.85 310.759 Q2395.37 310.759 2394.12 311.661 Q2392.88 312.563 2392.3 314.169 Q2392.4 314.137 2392.75 314.137 Q2393.58 314.137 2394.04 314.661 Q2394.52 315.186 2394.52 315.891 Q2394.52 316.793 2393.93 317.235 Q2393.35 317.662 2392.78 317.662 Q2392.55 317.662 2392.24 317.613 Q2391.94 317.563 2391.47 317.104 Q2390.99 316.629 2390.99 315.793 Q2390.99 313.448 2392.76 311.579 Q2394.55 309.71 2397.27 309.71 Q2400.35 309.71 2402.37 311.546 Q2404.4 313.366 2404.4 316.219 Q2404.4 317.219 2404.09 318.137 Q2403.8 319.039 2403.39 319.744 Q2402.99 320.449 2401.91 321.58 Q2400.83 322.712 2399.96 323.515 Q2399.09 324.318 2397.14 326.024 L2393.58 329.483 L2399.63 329.483 Q2402.58 329.483 2402.81 329.221 Q2403.14 328.745 2403.55 326.237 L2404.4 326.237 L2403.45 332.074 L2390.99 332.074 Z" fill="#000000" fill-rule="evenodd" fill-opacity="1" /><path clip-path="url(#clip320)" d="M2454.37 342.508 Q2454.65 342.789 2454.65 343.187 Q2454.65 343.585 2454.37 343.866 Q2454.09 344.147 2453.69 344.147 L2423.66 344.147 Q2423.26 344.147 2422.98 343.866 Q2422.7 343.585 2422.7 343.187 Q2422.7 342.789 2422.98 342.508 Q2423.26 342.227 2423.66 342.227 L2453.69 342.227 Q2454.09 342.227 2454.37 342.508 Z" fill="#000000" fill-rule="evenodd" fill-opacity="1" /><path clip-path="url(#clip320)" d="M2472.97 347.45 Q2472.97 346.021 2473.74 345.482 Q2474.52 344.92 2475.34 344.92 Q2476.44 344.92 2477.07 345.623 Q2477.73 346.302 2477.73 347.262 Q2477.73 348.223 2477.07 348.925 Q2476.44 349.605 2475.34 349.605 Q2474.8 349.605 2474.52 349.511 Q2475.15 351.713 2477.07 353.305 Q2479.01 354.898 2481.57 354.898 Q2484.78 354.898 2486.7 351.783 Q2487.84 349.769 2487.84 345.201 Q2487.84 341.173 2486.98 339.158 Q2485.64 336.09 2482.9 336.09 Q2479.01 336.09 2476.72 339.439 Q2476.44 339.861 2476.11 339.884 Q2475.64 339.884 2475.52 339.627 Q2475.43 339.346 2475.43 338.62 L2475.43 324.426 Q2475.43 323.278 2475.9 323.278 Q2476.09 323.278 2476.48 323.418 Q2479.51 324.753 2482.85 324.777 Q2486.3 324.777 2489.39 323.372 Q2489.62 323.231 2489.76 323.231 Q2490.23 323.231 2490.26 323.77 Q2490.26 323.957 2489.86 324.519 Q2489.48 325.058 2488.66 325.784 Q2487.84 326.487 2486.79 327.166 Q2485.74 327.845 2484.19 328.314 Q2482.67 328.759 2480.98 328.759 Q2478.97 328.759 2476.91 328.126 L2476.91 337.472 Q2479.39 335.036 2483 335.036 Q2486.84 335.036 2489.48 338.128 Q2492.13 341.219 2492.13 345.529 Q2492.13 350.05 2488.99 353.141 Q2485.88 356.233 2481.66 356.233 Q2477.82 356.233 2475.38 353.493 Q2472.97 350.752 2472.97 347.45 Z" fill="#000000" fill-rule="evenodd" fill-opacity="1" /><path clip-path="url(#clip320)" d="
M2225.46 371.829 L2497.38 371.829 L2497.38 369.269 L2225.46 369.269  Z
  " fill="#000000" fill-rule="evenodd" fill-opacity="1"/>
<path clip-path="url(#clip320)" d="M2240.19 407.445 Q2240.19 408.101 2239.88 408.265 Q2239.58 408.406 2238.74 408.406 L2234.24 408.406 L2230.68 422.553 Q2230.4 423.794 2230.4 424.848 Q2230.4 426.019 2230.75 426.535 Q2231.12 427.05 2231.9 427.05 Q2233.42 427.05 2235.06 425.668 Q2236.72 424.286 2238.13 420.913 Q2238.32 420.468 2238.41 420.375 Q2238.53 420.257 2238.83 420.257 Q2239.42 420.257 2239.42 420.726 Q2239.42 420.89 2239.09 421.639 Q2238.78 422.389 2238.1 423.49 Q2237.45 424.591 2236.58 425.621 Q2235.74 426.652 2234.45 427.401 Q2233.16 428.127 2231.78 428.127 Q2229.84 428.127 2228.59 426.886 Q2227.38 425.645 2227.38 423.7 Q2227.38 423.068 2227.87 421.054 Q2228.36 419.016 2231.03 408.406 L2226.79 408.406 Q2226.21 408.406 2225.97 408.382 Q2225.76 408.359 2225.6 408.242 Q2225.46 408.101 2225.46 407.82 Q2225.46 407.375 2225.64 407.188 Q2225.83 406.977 2226.07 406.953 Q2226.32 406.907 2226.91 406.907 L2231.41 406.907 L2233.28 399.294 Q2233.47 398.545 2233.94 398.123 Q2234.43 397.678 2234.71 397.631 Q2234.99 397.561 2235.2 397.561 Q2235.83 397.561 2236.21 397.912 Q2236.58 398.24 2236.58 398.849 Q2236.58 399.177 2234.61 406.907 L2238.83 406.907 Q2239.37 406.907 2239.58 406.93 Q2239.81 406.953 2240 407.071 Q2240.19 407.188 2240.19 407.445 Z" fill="#000000" fill-rule="evenodd" fill-opacity="1" /><path clip-path="url(#clip320)" d="M2245.15 399.055 L2245.15 398.022 L2255.47 382.266 Q2255.73 381.856 2256.14 381.872 Q2256.52 381.872 2256.6 382.02 Q2256.68 382.168 2256.68 382.741 L2256.68 398.022 L2260.04 398.022 L2260.04 399.055 L2256.68 399.055 L2256.68 401.974 Q2256.68 402.941 2257.07 403.253 Q2257.48 403.564 2259.22 403.564 L2259.93 403.564 L2259.93 404.597 Q2258.55 404.499 2255.37 404.499 Q2252.2 404.499 2250.83 404.597 L2250.83 403.564 L2251.53 403.564 Q2253.27 403.564 2253.68 403.269 Q2254.09 402.957 2254.09 401.974 L2254.09 399.055 L2245.15 399.055 M2246.1 398.022 L2254.29 398.022 L2254.29 385.496 L2246.1 398.022 Z" fill="#000000" fill-rule="evenodd" fill-opacity="1" /><path clip-path="url(#clip320)" d="M2279.42 416.182 Q2278.32 416.182 2278.32 415.596 Q2278.32 415.011 2279.47 415.011 Q2279.61 415.011 2279.84 415.034 Q2280.1 415.058 2280.15 415.058 L2293.66 415.058 L2293.66 401.496 Q2293.66 401.449 2293.64 401.238 Q2293.62 401.004 2293.62 400.864 Q2293.62 399.716 2294.18 399.716 Q2294.76 399.716 2294.76 400.864 L2294.76 415.058 L2308.3 415.058 Q2308.35 415.058 2308.58 415.034 Q2308.82 415.011 2308.96 415.011 Q2310.06 415.011 2310.06 415.596 Q2310.08 416.182 2308.91 416.182 Q2308.77 416.182 2308.56 416.158 Q2308.35 416.135 2308.3 416.135 L2294.76 416.135 L2294.76 430.376 Q2294.76 431.477 2294.18 431.477 Q2293.62 431.477 2293.62 430.329 Q2293.62 430.189 2293.64 429.954 Q2293.66 429.743 2293.66 429.697 L2293.66 416.135 L2280.15 416.135 Q2280.1 416.135 2279.82 416.158 Q2279.56 416.182 2279.42 416.182 Z" fill="#000000" fill-rule="evenodd" fill-opacity="1" /><path clip-path="url(#clip320)" d="M2328.59 406.438 Q2328.59 403.885 2329.34 402.152 Q2330.09 400.395 2331.66 398.662 Q2334.54 395.64 2338.71 395.64 Q2340.49 395.64 2342.06 396.39 Q2343.65 397.139 2345.15 398.849 Q2346.67 400.536 2347.59 403.885 Q2348.5 407.211 2348.5 411.802 Q2348.5 419.227 2344.89 423.935 Q2341.31 428.643 2336.46 428.643 Q2333.39 428.643 2331.59 427.261 Q2329.78 425.855 2329.78 423.466 Q2329.78 422.225 2330.49 421.71 Q2331.19 421.171 2331.99 421.171 Q2332.85 421.171 2333.53 421.756 Q2334.21 422.319 2334.21 423.373 Q2334.21 424.239 2333.65 424.918 Q2333.11 425.574 2331.71 425.574 Q2333.09 427.308 2336.41 427.308 Q2337.61 427.308 2338.8 426.769 Q2340 426.207 2341.29 424.872 Q2342.6 423.513 2343.39 420.679 Q2344.19 417.845 2344.19 413.863 L2344.19 412.341 Q2342.27 417.142 2338.19 417.142 Q2334.16 417.142 2331.38 414.05 Q2328.59 410.959 2328.59 406.438 M2332.9 406.485 Q2332.9 411.24 2333.77 412.996 Q2335.24 416.018 2338.24 416.018 Q2341.17 416.018 2342.62 413.418 Q2344.1 410.795 2344.1 407.398 Q2344.1 402.691 2343.32 400.629 Q2341.89 396.835 2338.71 396.835 Q2335.55 396.835 2333.91 399.856 Q2332.9 401.637 2332.9 406.485 Z" fill="#000000" fill-rule="evenodd" fill-opacity="1" /><path clip-path="url(#clip320)" d="M2367.08 407.445 Q2367.08 408.101 2366.77 408.265 Q2366.47 408.406 2365.63 408.406 L2361.13 408.406 L2357.57 422.553 Q2357.29 423.794 2357.29 424.848 Q2357.29 426.019 2357.64 426.535 Q2358.01 427.05 2358.79 427.05 Q2360.31 427.05 2361.95 425.668 Q2363.61 424.286 2365.02 420.913 Q2365.21 420.468 2365.3 420.375 Q2365.42 420.257 2365.72 420.257 Q2366.31 420.257 2366.31 420.726 Q2366.31 420.89 2365.98 421.639 Q2365.67 422.389 2364.99 423.49 Q2364.34 424.591 2363.47 425.621 Q2362.63 426.652 2361.34 427.401 Q2360.05 428.127 2358.67 428.127 Q2356.73 428.127 2355.48 426.886 Q2354.27 425.645 2354.27 423.7 Q2354.27 423.068 2354.76 421.054 Q2355.25 419.016 2357.92 408.406 L2353.68 408.406 Q2353.1 408.406 2352.86 408.382 Q2352.65 408.359 2352.49 408.242 Q2352.35 408.101 2352.35 407.82 Q2352.35 407.375 2352.53 407.188 Q2352.72 406.977 2352.96 406.953 Q2353.21 406.907 2353.8 406.907 L2358.3 406.907 L2360.17 399.294 Q2360.36 398.545 2360.83 398.123 Q2361.32 397.678 2361.6 397.631 Q2361.88 397.561 2362.09 397.561 Q2362.72 397.561 2363.1 397.912 Q2363.47 398.24 2363.47 398.849 Q2363.47 399.177 2361.5 406.907 L2365.72 406.907 Q2366.26 406.907 2366.47 406.93 Q2366.7 406.953 2366.89 407.071 Q2367.08 407.188 2367.08 407.445 Z" fill="#000000" fill-rule="evenodd" fill-opacity="1" /><path clip-path="url(#clip320)" d="M2372.04 404.483 Q2372.04 403.876 2372.09 403.696 Q2372.16 403.516 2372.42 403.237 L2378.86 396.056 Q2382.39 392.088 2382.39 388.628 Q2382.39 386.382 2381.21 384.775 Q2380.04 383.169 2377.9 383.169 Q2376.42 383.169 2375.18 384.07 Q2373.93 384.972 2373.36 386.579 Q2373.45 386.546 2373.8 386.546 Q2374.63 386.546 2375.09 387.071 Q2375.57 387.595 2375.57 388.3 Q2375.57 389.202 2374.98 389.645 Q2374.4 390.071 2373.83 390.071 Q2373.6 390.071 2373.29 390.022 Q2372.99 389.973 2372.52 389.514 Q2372.04 389.038 2372.04 388.202 Q2372.04 385.857 2373.81 383.988 Q2375.6 382.119 2378.32 382.119 Q2381.41 382.119 2383.42 383.956 Q2385.46 385.776 2385.46 388.628 Q2385.46 389.629 2385.14 390.547 Q2384.85 391.448 2384.44 392.153 Q2384.05 392.858 2382.96 393.99 Q2381.88 395.121 2381.01 395.924 Q2380.14 396.728 2378.19 398.433 L2374.63 401.893 L2380.68 401.893 Q2383.64 401.893 2383.87 401.63 Q2384.19 401.155 2384.6 398.646 L2385.46 398.646 L2384.5 404.483 L2372.04 404.483 Z" fill="#000000" fill-rule="evenodd" fill-opacity="1" /><path clip-path="url(#clip320)" d="M2435.42 414.917 Q2435.7 415.198 2435.7 415.596 Q2435.7 415.995 2435.42 416.276 Q2435.14 416.557 2434.74 416.557 L2404.71 416.557 Q2404.32 416.557 2404.04 416.276 Q2403.75 415.995 2403.75 415.596 Q2403.75 415.198 2404.04 414.917 Q2404.32 414.636 2404.71 414.636 L2434.74 414.636 Q2435.14 414.636 2435.42 414.917 Z" fill="#000000" fill-rule="evenodd" fill-opacity="1" /><path clip-path="url(#clip320)" d="M2454.02 400.208 L2454.02 398.709 Q2459.78 398.709 2462.76 395.64 Q2463.58 395.64 2463.72 395.828 Q2463.86 396.015 2463.86 396.882 L2463.86 423.794 Q2463.86 425.223 2464.56 425.668 Q2465.27 426.113 2468.33 426.113 L2469.86 426.113 L2469.86 427.589 Q2468.17 427.448 2462.08 427.448 Q2455.99 427.448 2454.33 427.589 L2454.33 426.113 L2455.85 426.113 Q2458.87 426.113 2459.6 425.691 Q2460.32 425.246 2460.32 423.794 L2460.32 398.943 Q2457.82 400.208 2454.02 400.208 Z" fill="#000000" fill-rule="evenodd" fill-opacity="1" /><path clip-path="url(#clip320)" d="M2472.27 412.247 Q2472.27 405.197 2474.05 401.355 Q2476.53 395.64 2482.39 395.64 Q2483.63 395.64 2484.92 395.992 Q2486.23 396.32 2487.87 397.608 Q2489.53 398.896 2490.54 401.004 Q2492.46 405.08 2492.46 412.247 Q2492.46 419.25 2490.68 423.068 Q2488.08 428.643 2482.34 428.643 Q2480.19 428.643 2477.99 427.542 Q2475.81 426.441 2474.43 423.794 Q2472.27 419.836 2472.27 412.247 M2476.25 411.661 Q2476.25 418.899 2476.77 421.78 Q2477.35 424.895 2478.95 426.254 Q2480.56 427.589 2482.34 427.589 Q2484.26 427.589 2485.86 426.16 Q2487.47 424.708 2487.96 421.592 Q2488.5 418.524 2488.48 411.661 Q2488.48 404.986 2488.01 402.316 Q2487.38 399.201 2485.69 397.959 Q2484.03 396.694 2482.34 396.694 Q2481.71 396.694 2481.03 396.882 Q2480.37 397.069 2479.41 397.608 Q2478.45 398.147 2477.7 399.482 Q2476.98 400.817 2476.63 402.831 Q2476.25 405.431 2476.25 411.661 Z" fill="#000000" fill-rule="evenodd" fill-opacity="1" /></svg>
