<?xml version="1.0" encoding="utf-8"?>
<svg xmlns="http://www.w3.org/2000/svg" xmlns:xlink="http://www.w3.org/1999/xlink" width="672" height="480" viewBox="0 0 2688 1920">
<defs>
  <clipPath id="clip770">
    <rect x="0" y="0" width="2688" height="1920"/>
  </clipPath>
</defs>
<path clip-path="url(#clip770)" d="
M0 1920 L2688 1920 L2688 0 L0 0  Z
  " fill="#ffffff" fill-rule="evenodd" fill-opacity="1"/>
<defs>
  <clipPath id="clip771">
    <rect x="537" y="0" width="1883" height="1883"/>
  </clipPath>
</defs>
<defs>
  <clipPath id="clip772">
    <rect x="115" y="47" width="2527" height="1755"/>
  </clipPath>
</defs>
<path clip-path="url(#clip770)" d="
M150.358 1800.78 L2640.76 1800.78 L2640.76 47.2441 L150.358 47.2441  Z
  " fill="#ffffff" fill-rule="evenodd" fill-opacity="1"/>
<defs>
  <clipPath id="clip773">
    <rect x="150" y="47" width="2491" height="1755"/>
  </clipPath>
</defs>
<polyline clip-path="url(#clip773)" style="stroke:#000000; stroke-linecap:round; stroke-linejoin:round; stroke-width:2; stroke-opacity:0.1; fill:none" points="
  460.748,1800.78 460.748,47.2441 
  "/>
<polyline clip-path="url(#clip773)" style="stroke:#000000; stroke-linecap:round; stroke-linejoin:round; stroke-width:2; stroke-opacity:0.1; fill:none" points="
  928.152,1800.78 928.152,47.2441 
  "/>
<polyline clip-path="url(#clip773)" style="stroke:#000000; stroke-linecap:round; stroke-linejoin:round; stroke-width:2; stroke-opacity:0.1; fill:none" points="
  1395.56,1800.78 1395.56,47.2441 
  "/>
<polyline clip-path="url(#clip773)" style="stroke:#000000; stroke-linecap:round; stroke-linejoin:round; stroke-width:2; stroke-opacity:0.1; fill:none" points="
  1862.96,1800.78 1862.96,47.2441 
  "/>
<polyline clip-path="url(#clip773)" style="stroke:#000000; stroke-linecap:round; stroke-linejoin:round; stroke-width:2; stroke-opacity:0.1; fill:none" points="
  2330.37,1800.78 2330.37,47.2441 
  "/>
<polyline clip-path="url(#clip770)" style="stroke:#000000; stroke-linecap:round; stroke-linejoin:round; stroke-width:4; stroke-opacity:1; fill:none" points="
  150.358,1800.78 2640.76,1800.78 
  "/>
<polyline clip-path="url(#clip770)" style="stroke:#000000; stroke-linecap:round; stroke-linejoin:round; stroke-width:4; stroke-opacity:1; fill:none" points="
  460.748,1800.78 460.748,1781.88 
  "/>
<polyline clip-path="url(#clip770)" style="stroke:#000000; stroke-linecap:round; stroke-linejoin:round; stroke-width:4; stroke-opacity:1; fill:none" points="
  928.152,1800.78 928.152,1781.88 
  "/>
<polyline clip-path="url(#clip770)" style="stroke:#000000; stroke-linecap:round; stroke-linejoin:round; stroke-width:4; stroke-opacity:1; fill:none" points="
  1395.56,1800.78 1395.56,1781.88 
  "/>
<polyline clip-path="url(#clip770)" style="stroke:#000000; stroke-linecap:round; stroke-linejoin:round; stroke-width:4; stroke-opacity:1; fill:none" points="
  1862.96,1800.78 1862.96,1781.88 
  "/>
<polyline clip-path="url(#clip770)" style="stroke:#000000; stroke-linecap:round; stroke-linejoin:round; stroke-width:4; stroke-opacity:1; fill:none" points="
  2330.37,1800.78 2330.37,1781.88 
  "/>
<path clip-path="url(#clip770)" d="M407.276 1848.65 L436.951 1848.65 L436.951 1852.59 L407.276 1852.59 L407.276 1848.65 Z" fill="#000000" fill-rule="evenodd" fill-opacity="1" /><path clip-path="url(#clip770)" d="M447.09 1830.92 L465.447 1830.92 L465.447 1834.86 L451.373 1834.86 L451.373 1843.33 Q452.391 1842.98 453.41 1842.82 Q454.428 1842.64 455.447 1842.64 Q461.234 1842.64 464.613 1845.81 Q467.993 1848.98 467.993 1854.4 Q467.993 1859.97 464.521 1863.08 Q461.049 1866.15 454.729 1866.15 Q452.553 1866.15 450.285 1865.78 Q448.039 1865.41 445.632 1864.67 L445.632 1859.97 Q447.715 1861.11 449.937 1861.66 Q452.16 1862.22 454.637 1862.22 Q458.641 1862.22 460.979 1860.11 Q463.317 1858.01 463.317 1854.4 Q463.317 1850.78 460.979 1848.68 Q458.641 1846.57 454.637 1846.57 Q452.762 1846.57 450.887 1846.99 Q449.035 1847.4 447.09 1848.28 L447.09 1830.92 Z" fill="#000000" fill-rule="evenodd" fill-opacity="1" /><path clip-path="url(#clip770)" d="M477.206 1859.6 L482.09 1859.6 L482.09 1865.48 L477.206 1865.48 L477.206 1859.6 Z" fill="#000000" fill-rule="evenodd" fill-opacity="1" /><path clip-path="url(#clip770)" d="M502.275 1834 Q498.664 1834 496.835 1837.57 Q495.03 1841.11 495.03 1848.24 Q495.03 1855.34 496.835 1858.91 Q498.664 1862.45 502.275 1862.45 Q505.909 1862.45 507.715 1858.91 Q509.544 1855.34 509.544 1848.24 Q509.544 1841.11 507.715 1837.57 Q505.909 1834 502.275 1834 M502.275 1830.3 Q508.085 1830.3 511.141 1834.9 Q514.22 1839.49 514.22 1848.24 Q514.22 1856.96 511.141 1861.57 Q508.085 1866.15 502.275 1866.15 Q496.465 1866.15 493.386 1861.57 Q490.331 1856.96 490.331 1848.24 Q490.331 1839.49 493.386 1834.9 Q496.465 1830.3 502.275 1830.3 Z" fill="#000000" fill-rule="evenodd" fill-opacity="1" /><path clip-path="url(#clip770)" d="M875.178 1848.65 L904.854 1848.65 L904.854 1852.59 L875.178 1852.59 L875.178 1848.65 Z" fill="#000000" fill-rule="evenodd" fill-opacity="1" /><path clip-path="url(#clip770)" d="M918.974 1861.55 L935.293 1861.55 L935.293 1865.48 L913.349 1865.48 L913.349 1861.55 Q916.011 1858.79 920.594 1854.16 Q925.201 1849.51 926.381 1848.17 Q928.627 1845.65 929.506 1843.91 Q930.409 1842.15 930.409 1840.46 Q930.409 1837.71 928.465 1835.97 Q926.543 1834.23 923.442 1834.23 Q921.243 1834.23 918.789 1835 Q916.358 1835.76 913.581 1837.31 L913.581 1832.59 Q916.405 1831.46 918.858 1830.88 Q921.312 1830.3 923.349 1830.3 Q928.719 1830.3 931.914 1832.98 Q935.108 1835.67 935.108 1840.16 Q935.108 1842.29 934.298 1844.21 Q933.511 1846.11 931.405 1848.7 Q930.826 1849.37 927.724 1852.59 Q924.622 1855.78 918.974 1861.55 Z" fill="#000000" fill-rule="evenodd" fill-opacity="1" /><path clip-path="url(#clip770)" d="M945.108 1859.6 L949.992 1859.6 L949.992 1865.48 L945.108 1865.48 L945.108 1859.6 Z" fill="#000000" fill-rule="evenodd" fill-opacity="1" /><path clip-path="url(#clip770)" d="M960.224 1830.92 L978.58 1830.92 L978.58 1834.86 L964.506 1834.86 L964.506 1843.33 Q965.525 1842.98 966.543 1842.82 Q967.562 1842.64 968.58 1842.64 Q974.367 1842.64 977.747 1845.81 Q981.127 1848.98 981.127 1854.4 Q981.127 1859.97 977.654 1863.08 Q974.182 1866.15 967.863 1866.15 Q965.687 1866.15 963.418 1865.78 Q961.173 1865.41 958.766 1864.67 L958.766 1859.97 Q960.849 1861.11 963.071 1861.66 Q965.293 1862.22 967.77 1862.22 Q971.775 1862.22 974.113 1860.11 Q976.451 1858.01 976.451 1854.4 Q976.451 1850.78 974.113 1848.68 Q971.775 1846.57 967.77 1846.57 Q965.895 1846.57 964.02 1846.99 Q962.168 1847.4 960.224 1848.28 L960.224 1830.92 Z" fill="#000000" fill-rule="evenodd" fill-opacity="1" /><path clip-path="url(#clip770)" d="M1372.94 1834 Q1369.33 1834 1367.5 1837.57 Q1365.7 1841.11 1365.7 1848.24 Q1365.7 1855.34 1367.5 1858.91 Q1369.33 1862.45 1372.94 1862.45 Q1376.58 1862.45 1378.38 1858.91 Q1380.21 1855.34 1380.21 1848.24 Q1380.21 1841.11 1378.38 1837.57 Q1376.58 1834 1372.94 1834 M1372.94 1830.3 Q1378.75 1830.3 1381.81 1834.9 Q1384.89 1839.49 1384.89 1848.24 Q1384.89 1856.96 1381.81 1861.57 Q1378.75 1866.15 1372.94 1866.15 Q1367.13 1866.15 1364.05 1861.57 Q1361 1856.96 1361 1848.24 Q1361 1839.49 1364.05 1834.9 Q1367.13 1830.3 1372.94 1830.3 Z" fill="#000000" fill-rule="evenodd" fill-opacity="1" /><path clip-path="url(#clip770)" d="M1393.1 1859.6 L1397.99 1859.6 L1397.99 1865.48 L1393.1 1865.48 L1393.1 1859.6 Z" fill="#000000" fill-rule="evenodd" fill-opacity="1" /><path clip-path="url(#clip770)" d="M1418.17 1834 Q1414.56 1834 1412.73 1837.57 Q1410.93 1841.11 1410.93 1848.24 Q1410.93 1855.34 1412.73 1858.91 Q1414.56 1862.45 1418.17 1862.45 Q1421.81 1862.45 1423.61 1858.91 Q1425.44 1855.34 1425.44 1848.24 Q1425.44 1841.11 1423.61 1837.57 Q1421.81 1834 1418.17 1834 M1418.17 1830.3 Q1423.98 1830.3 1427.04 1834.9 Q1430.12 1839.49 1430.12 1848.24 Q1430.12 1856.96 1427.04 1861.57 Q1423.98 1866.15 1418.17 1866.15 Q1412.36 1866.15 1409.28 1861.57 Q1406.23 1856.96 1406.23 1848.24 Q1406.23 1839.49 1409.28 1834.9 Q1412.36 1830.3 1418.17 1830.3 Z" fill="#000000" fill-rule="evenodd" fill-opacity="1" /><path clip-path="url(#clip770)" d="M1834.7 1861.55 L1851.02 1861.55 L1851.02 1865.48 L1829.07 1865.48 L1829.07 1861.55 Q1831.73 1858.79 1836.32 1854.16 Q1840.92 1849.51 1842.11 1848.17 Q1844.35 1845.65 1845.23 1843.91 Q1846.13 1842.15 1846.13 1840.46 Q1846.13 1837.71 1844.19 1835.97 Q1842.27 1834.23 1839.17 1834.23 Q1836.97 1834.23 1834.51 1835 Q1832.08 1835.76 1829.3 1837.31 L1829.3 1832.59 Q1832.13 1831.46 1834.58 1830.88 Q1837.04 1830.3 1839.07 1830.3 Q1844.44 1830.3 1847.64 1832.98 Q1850.83 1835.67 1850.83 1840.16 Q1850.83 1842.29 1850.02 1844.21 Q1849.23 1846.11 1847.13 1848.7 Q1846.55 1849.37 1843.45 1852.59 Q1840.35 1855.78 1834.7 1861.55 Z" fill="#000000" fill-rule="evenodd" fill-opacity="1" /><path clip-path="url(#clip770)" d="M1860.83 1859.6 L1865.72 1859.6 L1865.72 1865.48 L1860.83 1865.48 L1860.83 1859.6 Z" fill="#000000" fill-rule="evenodd" fill-opacity="1" /><path clip-path="url(#clip770)" d="M1875.95 1830.92 L1894.3 1830.92 L1894.3 1834.86 L1880.23 1834.86 L1880.23 1843.33 Q1881.25 1842.98 1882.27 1842.82 Q1883.29 1842.64 1884.3 1842.64 Q1890.09 1842.64 1893.47 1845.81 Q1896.85 1848.98 1896.85 1854.4 Q1896.85 1859.97 1893.38 1863.08 Q1889.91 1866.15 1883.59 1866.15 Q1881.41 1866.15 1879.14 1865.78 Q1876.9 1865.41 1874.49 1864.67 L1874.49 1859.97 Q1876.57 1861.11 1878.79 1861.66 Q1881.02 1862.22 1883.49 1862.22 Q1887.5 1862.22 1889.84 1860.11 Q1892.17 1858.01 1892.17 1854.4 Q1892.17 1850.78 1889.84 1848.68 Q1887.5 1846.57 1883.49 1846.57 Q1881.62 1846.57 1879.74 1846.99 Q1877.89 1847.4 1875.95 1848.28 L1875.95 1830.92 Z" fill="#000000" fill-rule="evenodd" fill-opacity="1" /><path clip-path="url(#clip770)" d="M2297.53 1830.92 L2315.89 1830.92 L2315.89 1834.86 L2301.81 1834.86 L2301.81 1843.33 Q2302.83 1842.98 2303.85 1842.82 Q2304.87 1842.64 2305.89 1842.64 Q2311.67 1842.64 2315.05 1845.81 Q2318.43 1848.98 2318.43 1854.4 Q2318.43 1859.97 2314.96 1863.08 Q2311.49 1866.15 2305.17 1866.15 Q2302.99 1866.15 2300.73 1865.78 Q2298.48 1865.41 2296.07 1864.67 L2296.07 1859.97 Q2298.16 1861.11 2300.38 1861.66 Q2302.6 1862.22 2305.08 1862.22 Q2309.08 1862.22 2311.42 1860.11 Q2313.76 1858.01 2313.76 1854.4 Q2313.76 1850.78 2311.42 1848.68 Q2309.08 1846.57 2305.08 1846.57 Q2303.2 1846.57 2301.33 1846.99 Q2299.48 1847.4 2297.53 1848.28 L2297.53 1830.92 Z" fill="#000000" fill-rule="evenodd" fill-opacity="1" /><path clip-path="url(#clip770)" d="M2327.65 1859.6 L2332.53 1859.6 L2332.53 1865.48 L2327.65 1865.48 L2327.65 1859.6 Z" fill="#000000" fill-rule="evenodd" fill-opacity="1" /><path clip-path="url(#clip770)" d="M2352.72 1834 Q2349.1 1834 2347.28 1837.57 Q2345.47 1841.11 2345.47 1848.24 Q2345.47 1855.34 2347.28 1858.91 Q2349.1 1862.45 2352.72 1862.45 Q2356.35 1862.45 2358.16 1858.91 Q2359.98 1855.34 2359.98 1848.24 Q2359.98 1841.11 2358.16 1837.57 Q2356.35 1834 2352.72 1834 M2352.72 1830.3 Q2358.53 1830.3 2361.58 1834.9 Q2364.66 1839.49 2364.66 1848.24 Q2364.66 1856.96 2361.58 1861.57 Q2358.53 1866.15 2352.72 1866.15 Q2346.91 1866.15 2343.83 1861.57 Q2340.77 1856.96 2340.77 1848.24 Q2340.77 1839.49 2343.83 1834.9 Q2346.91 1830.3 2352.72 1830.3 Z" fill="#000000" fill-rule="evenodd" fill-opacity="1" /><polyline clip-path="url(#clip773)" style="stroke:#000000; stroke-linecap:round; stroke-linejoin:round; stroke-width:2; stroke-opacity:0.1; fill:none" points="
  150.358,1751.16 2640.76,1751.16 
  "/>
<polyline clip-path="url(#clip773)" style="stroke:#000000; stroke-linecap:round; stroke-linejoin:round; stroke-width:2; stroke-opacity:0.1; fill:none" points="
  150.358,1420.3 2640.76,1420.3 
  "/>
<polyline clip-path="url(#clip773)" style="stroke:#000000; stroke-linecap:round; stroke-linejoin:round; stroke-width:2; stroke-opacity:0.1; fill:none" points="
  150.358,1089.44 2640.76,1089.44 
  "/>
<polyline clip-path="url(#clip773)" style="stroke:#000000; stroke-linecap:round; stroke-linejoin:round; stroke-width:2; stroke-opacity:0.1; fill:none" points="
  150.358,758.584 2640.76,758.584 
  "/>
<polyline clip-path="url(#clip773)" style="stroke:#000000; stroke-linecap:round; stroke-linejoin:round; stroke-width:2; stroke-opacity:0.1; fill:none" points="
  150.358,427.726 2640.76,427.726 
  "/>
<polyline clip-path="url(#clip773)" style="stroke:#000000; stroke-linecap:round; stroke-linejoin:round; stroke-width:2; stroke-opacity:0.1; fill:none" points="
  150.358,96.8669 2640.76,96.8669 
  "/>
<polyline clip-path="url(#clip770)" style="stroke:#000000; stroke-linecap:round; stroke-linejoin:round; stroke-width:4; stroke-opacity:1; fill:none" points="
  150.358,1800.78 150.358,47.2441 
  "/>
<polyline clip-path="url(#clip770)" style="stroke:#000000; stroke-linecap:round; stroke-linejoin:round; stroke-width:4; stroke-opacity:1; fill:none" points="
  150.358,1751.16 169.256,1751.16 
  "/>
<polyline clip-path="url(#clip770)" style="stroke:#000000; stroke-linecap:round; stroke-linejoin:round; stroke-width:4; stroke-opacity:1; fill:none" points="
  150.358,1420.3 169.256,1420.3 
  "/>
<polyline clip-path="url(#clip770)" style="stroke:#000000; stroke-linecap:round; stroke-linejoin:round; stroke-width:4; stroke-opacity:1; fill:none" points="
  150.358,1089.44 169.256,1089.44 
  "/>
<polyline clip-path="url(#clip770)" style="stroke:#000000; stroke-linecap:round; stroke-linejoin:round; stroke-width:4; stroke-opacity:1; fill:none" points="
  150.358,758.584 169.256,758.584 
  "/>
<polyline clip-path="url(#clip770)" style="stroke:#000000; stroke-linecap:round; stroke-linejoin:round; stroke-width:4; stroke-opacity:1; fill:none" points="
  150.358,427.726 169.256,427.726 
  "/>
<polyline clip-path="url(#clip770)" style="stroke:#000000; stroke-linecap:round; stroke-linejoin:round; stroke-width:4; stroke-opacity:1; fill:none" points="
  150.358,96.8669 169.256,96.8669 
  "/>
<path clip-path="url(#clip770)" d="M49.9225 1751.61 L79.5983 1751.61 L79.5983 1755.55 L49.9225 1755.55 L49.9225 1751.61 Z" fill="#000000" fill-rule="evenodd" fill-opacity="1" /><path clip-path="url(#clip770)" d="M93.7186 1764.51 L110.038 1764.51 L110.038 1768.44 L88.0936 1768.44 L88.0936 1764.51 Q90.7556 1761.75 95.3389 1757.12 Q99.9454 1752.47 101.126 1751.13 Q103.371 1748.6 104.251 1746.87 Q105.154 1745.11 105.154 1743.42 Q105.154 1740.66 103.209 1738.93 Q101.288 1737.19 98.1861 1737.19 Q95.9871 1737.19 93.5334 1737.95 Q91.1028 1738.72 88.3251 1740.27 L88.3251 1735.55 Q91.1491 1734.41 93.6028 1733.83 Q96.0565 1733.26 98.0935 1733.26 Q103.464 1733.26 106.658 1735.94 Q109.853 1738.63 109.853 1743.12 Q109.853 1745.25 109.043 1747.17 Q108.256 1749.07 106.149 1751.66 Q105.57 1752.33 102.469 1755.55 Q99.3667 1758.74 93.7186 1764.51 Z" fill="#000000" fill-rule="evenodd" fill-opacity="1" /><path clip-path="url(#clip770)" d="M49.5521 1420.75 L79.2279 1420.75 L79.2279 1424.69 L49.5521 1424.69 L49.5521 1420.75 Z" fill="#000000" fill-rule="evenodd" fill-opacity="1" /><path clip-path="url(#clip770)" d="M90.1306 1433.65 L97.7695 1433.65 L97.7695 1407.28 L89.4593 1408.95 L89.4593 1404.69 L97.7232 1403.02 L102.399 1403.02 L102.399 1433.65 L110.038 1433.65 L110.038 1437.58 L90.1306 1437.58 L90.1306 1433.65 Z" fill="#000000" fill-rule="evenodd" fill-opacity="1" /><path clip-path="url(#clip770)" d="M98.0935 1075.24 Q94.4824 1075.24 92.6537 1078.81 Q90.8482 1082.35 90.8482 1089.48 Q90.8482 1096.58 92.6537 1100.15 Q94.4824 1103.69 98.0935 1103.69 Q101.728 1103.69 103.533 1100.15 Q105.362 1096.58 105.362 1089.48 Q105.362 1082.35 103.533 1078.81 Q101.728 1075.24 98.0935 1075.24 M98.0935 1071.54 Q103.904 1071.54 106.959 1076.14 Q110.038 1080.73 110.038 1089.48 Q110.038 1098.2 106.959 1102.81 Q103.904 1107.39 98.0935 1107.39 Q92.2834 1107.39 89.2047 1102.81 Q86.1492 1098.2 86.1492 1089.48 Q86.1492 1080.73 89.2047 1076.14 Q92.2834 1071.54 98.0935 1071.54 Z" fill="#000000" fill-rule="evenodd" fill-opacity="1" /><path clip-path="url(#clip770)" d="M90.1306 771.929 L97.7695 771.929 L97.7695 745.564 L89.4593 747.23 L89.4593 742.971 L97.7232 741.304 L102.399 741.304 L102.399 771.929 L110.038 771.929 L110.038 775.864 L90.1306 775.864 L90.1306 771.929 Z" fill="#000000" fill-rule="evenodd" fill-opacity="1" /><path clip-path="url(#clip770)" d="M93.7186 441.07 L110.038 441.07 L110.038 445.006 L88.0936 445.006 L88.0936 441.07 Q90.7556 438.316 95.3389 433.686 Q99.9454 429.034 101.126 427.691 Q103.371 425.168 104.251 423.432 Q105.154 421.672 105.154 419.983 Q105.154 417.228 103.209 415.492 Q101.288 413.756 98.1861 413.756 Q95.9871 413.756 93.5334 414.52 Q91.1028 415.284 88.3251 416.835 L88.3251 412.112 Q91.1491 410.978 93.6028 410.399 Q96.0565 409.821 98.0935 409.821 Q103.464 409.821 106.658 412.506 Q109.853 415.191 109.853 419.682 Q109.853 421.811 109.043 423.733 Q108.256 425.631 106.149 428.223 Q105.57 428.895 102.469 432.112 Q99.3667 435.307 93.7186 441.07 Z" fill="#000000" fill-rule="evenodd" fill-opacity="1" /><path clip-path="url(#clip770)" d="M102.908 95.5128 Q106.265 96.2304 108.14 98.4989 Q110.038 100.767 110.038 104.101 Q110.038 109.216 106.519 112.017 Q103.001 114.818 96.5195 114.818 Q94.3436 114.818 92.0288 114.378 Q89.7371 113.962 87.2834 113.105 L87.2834 108.591 Q89.2278 109.726 91.5426 110.304 Q93.8574 110.883 96.3806 110.883 Q100.779 110.883 103.07 109.147 Q105.385 107.411 105.385 104.101 Q105.385 101.045 103.232 99.3322 Q101.103 97.5961 97.2834 97.5961 L93.2556 97.5961 L93.2556 93.7535 L97.4685 93.7535 Q100.918 93.7535 102.746 92.3878 Q104.575 90.9989 104.575 88.4063 Q104.575 85.7443 102.677 84.3323 Q100.802 82.8971 97.2834 82.8971 Q95.3621 82.8971 93.163 83.3138 Q90.9639 83.7304 88.3251 84.6101 L88.3251 80.4434 Q90.9871 79.7027 93.3019 79.3323 Q95.6398 78.9619 97.7 78.9619 Q103.024 78.9619 106.126 81.3925 Q109.228 83.7999 109.228 87.9202 Q109.228 90.7906 107.584 92.7813 Q105.941 94.7489 102.908 95.5128 Z" fill="#000000" fill-rule="evenodd" fill-opacity="1" /><polyline clip-path="url(#clip773)" style="stroke:#009af9; stroke-linecap:round; stroke-linejoin:round; stroke-width:4; stroke-opacity:1; fill:none" points="
  220.841,1089.44 224.665,1082.68 228.489,1075.91 232.313,1069.15 236.137,1062.4 253.816,1031.39 271.496,1000.89 289.175,971.19 306.854,942.542 315.694,928.695 
  324.533,915.206 333.373,902.108 342.213,889.428 351.052,877.195 359.892,865.437 368.732,854.179 377.571,843.447 388.196,831.277 398.82,819.941 409.445,809.476 
  420.069,799.914 430.694,791.286 441.318,783.622 451.943,776.945 462.568,771.276 471.55,767.284 480.533,764.036 489.516,761.539 498.499,759.798 507.482,758.819 
  516.465,758.602 525.448,759.149 534.431,760.459 544.189,762.742 553.947,765.914 563.705,769.967 573.463,774.891 583.22,780.671 592.978,787.292 602.736,794.736 
  612.494,802.983 621.49,811.277 630.486,820.216 639.482,829.777 648.478,839.94 657.474,850.68 666.47,861.972 675.466,873.792 684.462,886.11 694.107,899.839 
  703.751,914.072 713.396,928.772 723.04,943.899 742.33,975.274 761.619,1007.86 806.316,1086.11 851.013,1164.55 870.874,1198.29 890.734,1230.8 900.665,1246.49 
  910.595,1261.73 920.525,1276.48 930.456,1290.7 939.164,1302.71 947.872,1314.26 956.58,1325.32 965.288,1335.86 973.996,1345.88 982.704,1355.33 991.412,1364.21 
  1000.12,1372.49 1009.61,1380.83 1019.11,1388.41 1028.6,1395.21 1038.1,1401.23 1047.59,1406.45 1057.08,1410.85 1066.58,1414.42 1076.07,1417.16 1085.62,1419.05 
  1095.17,1420.09 1104.72,1420.26 1114.27,1419.57 1123.82,1418.02 1133.38,1415.62 1142.93,1412.36 1152.48,1408.26 1163.04,1402.76 1173.6,1396.26 1184.15,1388.78 
  1194.71,1380.34 1205.27,1370.98 1215.83,1360.72 1226.39,1349.6 1236.95,1337.65 1247,1325.54 1257.04,1312.75 1267.09,1299.31 1277.14,1285.27 1287.19,1270.66 
  1297.23,1255.53 1307.28,1239.92 1317.33,1223.88 1338.22,1189.33 1359.11,1153.53 1380,1116.93 1400.9,1079.99 1418.49,1048.97 1436.07,1018.3 1453.66,988.268 
  1471.25,959.126 1481.98,941.887 1492.72,925.134 1503.46,908.923 1514.19,893.308 1524.93,878.338 1535.66,864.065 1546.4,850.535 1557.14,837.792 1566.97,826.846 
  1576.81,816.626 1586.64,807.162 1596.48,798.478 1606.31,790.599 1616.15,783.547 1625.98,777.341 1635.82,771.998 1644.9,767.844 1653.98,764.449 1663.07,761.82 
  1672.15,759.965 1681.23,758.887 1690.32,758.59 1699.4,759.073 1708.48,760.336 1717.68,762.407 1726.88,765.27 1736.09,768.918 1745.29,773.342 1754.49,778.532 
  1763.69,784.474 1772.89,791.155 1782.09,798.558 1792.4,807.691 1802.72,817.681 1813.03,828.498 1823.34,840.108 1833.65,852.477 1843.96,865.566 1854.27,879.336 
  1864.59,893.745 1873.93,907.317 1883.28,921.344 1892.62,935.791 1901.96,950.621 1920.65,981.284 1939.34,1013.03 1982.13,1088.06 2024.93,1163.17 2044.74,1196.87 
  2064.55,1229.37 2074.46,1245.05 2084.36,1260.29 2094.27,1275.06 2104.18,1289.3 2113.94,1302.8 2123.71,1315.71 2133.47,1328 2143.24,1339.65 2153.01,1350.61 
  2162.77,1360.86 2172.54,1370.37 2182.3,1379.11 2191.79,1386.84 2201.27,1393.81 2210.75,1399.99 2220.23,1405.38 2229.71,1409.95 2239.2,1413.7 2248.68,1416.62 
  2258.16,1418.69 2267.88,1419.94 2277.6,1420.3 2287.32,1419.76 2297.04,1418.33 2306.76,1416 2316.48,1412.8 2326.2,1408.72 2335.92,1403.78 2346.57,1397.4 
  2357.22,1390.01 2367.87,1381.65 2378.52,1372.34 2389.17,1362.11 2399.82,1351 2410.47,1339.04 2421.12,1326.27 2436.59,1306.37 2452.06,1284.98 2467.53,1262.25 
  2483,1238.34 2498.47,1213.41 2513.94,1187.63 2529.41,1161.18 2544.88,1134.24 2551.23,1123.08 2557.58,1111.89 2563.93,1100.67 2570.27,1089.44 
  "/>
<polyline clip-path="url(#clip773)" style="stroke:#e26f46; stroke-linecap:round; stroke-linejoin:round; stroke-width:4; stroke-opacity:1; fill:none" points="
  220.841,788.594 224.665,791.473 228.489,794.477 232.313,797.603 236.137,800.852 244.977,808.823 253.816,817.42 262.656,826.625 271.496,836.418 280.335,846.776 
  289.175,857.677 298.015,869.096 306.854,881.007 324.533,906.199 342.213,933.029 359.892,961.256 377.571,990.628 420.069,1064.33 462.568,1139.32 480.533,1170.47 
  498.499,1200.88 516.465,1230.25 534.431,1258.33 544.189,1272.94 553.947,1287.05 563.705,1300.63 573.463,1313.63 583.22,1326.02 592.978,1337.76 602.736,1348.83 
  612.494,1359.19 621.49,1368.09 630.486,1376.35 639.482,1383.94 648.478,1390.86 657.474,1397.07 666.47,1402.57 675.466,1407.35 684.462,1411.39 694.107,1414.89 
  703.751,1417.53 713.396,1419.3 723.04,1420.19 732.685,1420.2 742.33,1419.32 751.974,1417.57 761.619,1414.95 772.793,1410.83 783.967,1405.56 795.142,1399.17 
  806.316,1391.66 817.49,1383.08 828.664,1373.45 839.839,1362.8 851.013,1351.18 860.943,1340.07 870.874,1328.25 880.804,1315.76 890.734,1302.62 900.665,1288.89 
  910.595,1274.59 920.525,1259.77 930.456,1244.48 947.872,1216.62 965.288,1187.65 982.704,1157.84 1000.12,1127.43 1038.1,1060.35 1076.07,994.46 1095.17,962.632 
  1114.27,932.127 1123.82,917.47 1133.38,903.262 1142.93,889.539 1152.48,876.339 1163.04,862.392 1173.6,849.169 1184.15,836.713 1194.71,825.063 1205.27,814.255 
  1215.83,804.325 1226.39,795.305 1236.95,787.222 1247,780.426 1257.04,774.523 1267.09,769.528 1277.14,765.457 1287.19,762.321 1297.23,760.13 1307.28,758.89 
  1317.33,758.604 1327.77,759.319 1338.22,761.065 1348.67,763.835 1359.11,767.622 1369.56,772.414 1380,778.194 1390.45,784.947 1400.9,792.65 1409.69,799.853 
  1418.49,807.697 1427.28,816.164 1436.07,825.235 1444.87,834.891 1453.66,845.11 1462.45,855.869 1471.25,867.145 1481.98,881.575 1492.72,896.691 1503.46,912.443 
  1514.19,928.777 1524.93,945.642 1535.66,962.98 1546.4,980.736 1557.14,998.849 1596.48,1067.31 1635.82,1136.75 1653.98,1168.3 1672.15,1199.1 1690.32,1228.86 
  1708.48,1257.32 1717.68,1271.14 1726.88,1284.52 1736.09,1297.43 1745.29,1309.84 1754.49,1321.71 1763.69,1333.02 1772.89,1343.74 1782.09,1353.84 1792.4,1364.41 
  1802.72,1374.13 1813.03,1382.99 1823.34,1390.96 1833.65,1398.01 1843.96,1404.12 1854.27,1409.28 1864.59,1413.46 1873.93,1416.4 1883.28,1418.52 1892.62,1419.82 
  1901.96,1420.3 1911.31,1419.95 1920.65,1418.77 1930,1416.77 1939.34,1413.96 1950.04,1409.74 1960.74,1404.47 1971.44,1398.17 1982.13,1390.86 1992.83,1382.57 
  2003.53,1373.31 2014.23,1363.13 2024.93,1352.05 2034.83,1341.02 2044.74,1329.29 2054.65,1316.88 2064.55,1303.84 2074.46,1290.19 2084.36,1275.98 2094.27,1261.25 
  2104.18,1246.03 2123.71,1214.78 2143.24,1182.17 2162.77,1148.54 2182.3,1114.28 2201.27,1080.74 2220.23,1047.29 2239.2,1014.28 2258.16,982.041 2267.88,965.924 
  2277.6,950.14 2287.32,934.733 2297.04,919.743 2306.76,905.213 2316.48,891.18 2326.2,877.683 2335.92,864.758 2346.57,851.296 2357.22,838.606 2367.87,826.73 
  2378.52,815.706 2389.17,805.57 2399.82,796.355 2410.47,788.091 2421.12,780.804 2428.85,776.138 2436.59,772.008 2444.32,768.421 2452.06,765.383 2459.8,762.901 
  2467.53,760.977 2475.27,759.615 2483,758.818 2490.74,758.587 2498.47,758.922 2506.21,759.822 2513.94,761.287 2521.68,763.314 2529.41,765.898 2537.15,769.036 
  2544.88,772.723 2551.23,776.154 2557.58,779.945 2563.93,784.094 2570.27,788.594 
  "/>
<polyline clip-path="url(#clip773)" style="stroke:#3da44d; stroke-linecap:round; stroke-linejoin:round; stroke-width:4; stroke-opacity:1; fill:none" points="
  220.841,427.726 224.665,420.959 228.489,414.195 232.313,407.437 236.137,400.687 253.816,369.673 271.496,339.177 289.175,309.472 306.854,280.824 315.694,266.977 
  324.533,253.489 333.373,240.39 342.213,227.711 351.052,215.478 359.892,203.719 368.732,192.461 377.571,181.729 388.196,169.56 398.82,158.224 409.445,147.758 
  420.069,138.196 430.694,129.569 441.318,121.904 451.943,115.227 462.568,109.559 471.55,105.567 480.533,102.319 489.516,99.8213 498.499,98.0809 507.482,97.1013 
  516.465,96.8848 525.448,97.4319 534.431,98.7414 544.189,101.024 553.947,104.196 563.705,108.25 573.463,113.174 583.22,118.954 592.978,125.575 602.736,133.019 
  612.494,141.266 621.49,149.56 630.486,158.498 639.482,168.06 648.478,178.222 657.474,188.962 666.47,200.255 675.466,212.074 684.462,224.393 694.107,238.121 
  703.751,252.355 713.396,267.054 723.04,282.181 742.33,313.556 761.619,346.145 806.316,424.394 851.013,502.831 870.874,536.573 890.734,569.087 900.665,584.769 
  910.595,600.008 920.525,614.761 930.456,628.986 939.164,640.995 947.872,652.54 956.58,663.599 965.288,674.146 973.996,684.158 982.704,693.614 991.412,702.493 
  1000.12,710.777 1009.61,719.108 1019.11,726.688 1028.6,733.497 1038.1,739.517 1047.59,744.734 1057.08,749.134 1066.58,752.705 1076.07,755.438 1085.62,757.335 
  1095.17,758.372 1104.72,758.546 1114.27,757.857 1123.82,756.307 1133.38,753.9 1142.93,750.642 1152.48,746.541 1163.04,741.04 1173.6,734.54 1184.15,727.061 
  1194.71,718.627 1205.27,709.266 1215.83,699.007 1226.39,687.883 1236.95,675.929 1247,663.82 1257.04,651.029 1267.09,637.594 1277.14,623.552 1287.19,608.946 
  1297.23,593.816 1307.28,578.207 1317.33,562.163 1338.22,527.611 1359.11,491.813 1380,455.216 1400.9,418.275 1418.49,387.252 1436.07,356.587 1453.66,326.55 
  1471.25,297.408 1481.98,280.169 1492.72,263.417 1503.46,247.206 1514.19,231.59 1524.93,216.621 1535.66,202.348 1546.4,188.817 1557.14,176.075 1566.97,165.128 
  1576.81,154.909 1586.64,145.444 1596.48,136.76 1606.31,128.881 1616.15,121.829 1625.98,115.623 1635.82,110.281 1644.9,106.127 1653.98,102.731 1663.07,100.103 
  1672.15,98.2477 1681.23,97.17 1690.32,96.8724 1699.4,97.3556 1708.48,98.6185 1717.68,100.69 1726.88,103.553 1736.09,107.201 1745.29,111.625 1754.49,116.814 
  1763.69,122.757 1772.89,129.438 1782.09,136.841 1792.4,145.974 1802.72,155.964 1813.03,166.781 1823.34,178.391 1833.65,190.759 1843.96,203.848 1854.27,217.618 
  1864.59,232.027 1873.93,245.599 1883.28,259.626 1892.62,274.073 1901.96,288.904 1920.65,319.567 1939.34,351.31 1982.13,426.345 2024.93,501.451 2044.74,535.152 
  2064.55,567.648 2074.46,583.33 2084.36,598.574 2094.27,613.34 2104.18,627.584 2113.94,641.078 2123.71,653.99 2133.47,666.286 2143.24,677.93 2153.01,688.891 
  2162.77,699.141 2172.54,708.65 2182.3,717.392 2191.79,725.125 2201.27,732.092 2210.75,738.277 2220.23,743.664 2229.71,748.238 2239.2,751.987 2248.68,754.903 
  2258.16,756.977 2267.88,758.225 2277.6,758.58 2287.32,758.04 2297.04,756.608 2306.76,754.287 2316.48,751.083 2326.2,747.006 2335.92,742.066 2346.57,735.678 
  2357.22,728.292 2367.87,719.931 2378.52,710.622 2389.17,700.396 2399.82,689.284 2410.47,677.325 2421.12,664.556 2436.59,644.65 2452.06,623.259 2467.53,600.531 
  2483,576.619 2498.47,551.689 2513.94,525.911 2529.41,499.461 2544.88,472.52 2551.23,461.367 2557.58,450.175 2563.93,438.957 2570.27,427.726 
  "/>
<polyline clip-path="url(#clip773)" style="stroke:#c271d2; stroke-linecap:round; stroke-linejoin:round; stroke-width:4; stroke-opacity:1; fill:none" points="
  220.841,1089.44 224.665,1075.91 228.489,1062.4 232.313,1048.94 236.137,1035.55 244.977,1004.96 253.816,975.138 262.656,946.333 271.496,918.806 275.915,905.599 
  280.335,892.804 284.755,880.448 289.175,868.559 293.595,857.163 298.015,846.287 302.434,835.954 306.854,826.188 311.274,817.01 315.694,808.441 320.114,800.501 
  324.533,793.206 328.953,786.573 333.373,780.617 337.793,775.351 342.213,770.787 346.633,766.935 351.052,763.805 355.472,761.402 359.892,759.732 364.312,758.799 
  368.732,758.605 373.152,759.151 377.571,760.435 382.884,762.95 388.196,766.52 393.508,771.132 398.82,776.772 404.133,783.422 409.445,791.059 414.757,799.66 
  420.069,809.196 425.382,819.637 430.694,830.949 436.006,843.096 441.318,856.038 446.631,869.733 451.943,884.138 457.255,899.206 462.568,914.887 471.55,942.66 
  480.533,971.786 489.516,1002 498.499,1033.02 516.465,1096.33 534.431,1159.38 544.189,1192.7 553.947,1224.89 558.826,1240.45 563.705,1255.6 568.584,1270.3 
  573.463,1284.51 578.341,1298.18 583.22,1311.29 588.099,1323.8 592.978,1335.66 597.857,1346.85 602.736,1357.35 607.615,1367.11 612.494,1376.12 616.992,1383.73 
  621.49,1390.66 625.988,1396.9 630.486,1402.42 634.984,1407.22 639.482,1411.28 643.98,1414.6 648.478,1417.17 652.976,1418.97 657.474,1420.02 661.972,1420.29 
  666.47,1419.81 670.968,1418.56 675.466,1416.54 679.964,1413.77 684.462,1410.25 689.284,1405.65 694.107,1400.21 698.929,1393.94 703.751,1386.86 708.574,1378.99 
  713.396,1370.35 718.218,1360.96 723.04,1350.85 727.863,1340.05 732.685,1328.58 737.507,1316.47 742.33,1303.76 747.152,1290.47 751.974,1276.66 756.797,1262.34 
  761.619,1247.57 767.206,1229.92 772.793,1211.78 778.38,1193.2 783.967,1174.25 795.142,1135.51 806.316,1096.11 817.49,1056.61 828.664,1017.59 839.839,979.586 
  851.013,943.153 855.978,927.605 860.943,912.513 865.908,897.919 870.874,883.867 875.839,870.394 880.804,857.538 885.769,845.337 890.734,833.825 895.699,823.033 
  900.665,812.993 905.63,803.732 910.595,795.278 915.56,787.653 920.525,780.879 925.49,774.975 930.456,769.959 934.81,766.301 939.164,763.344 943.518,761.094 
  947.872,759.556 952.226,758.734 956.58,758.629 960.934,759.242 965.288,760.571 969.642,762.613 973.996,765.364 978.35,768.818 982.704,772.968 987.058,777.804 
  991.412,783.316 995.766,789.492 1000.12,796.318 1004.87,804.485 1009.61,813.386 1014.36,822.999 1019.11,833.299 1023.86,844.259 1028.6,855.851 1033.35,868.046 
  1038.1,880.811 1042.84,894.114 1047.59,907.921 1052.34,922.196 1057.08,936.902 1066.58,967.455 1076.07,999.265 1095.17,1065.73 1114.27,1133.19 1123.82,1166.41 
  1133.38,1198.83 1142.93,1230.1 1152.48,1259.91 1157.76,1275.65 1163.04,1290.79 1168.32,1305.29 1173.6,1319.1 1178.87,1332.17 1184.15,1344.48 1189.43,1355.97 
  1194.71,1366.61 1199.99,1376.37 1205.27,1385.21 1210.55,1393.11 1215.83,1400.04 1221.11,1405.98 1226.39,1410.91 1231.67,1414.82 1236.95,1417.68 1241.97,1419.44 
  1247,1420.25 1252.02,1420.1 1257.04,1418.99 1262.07,1416.93 1267.09,1413.93 1272.12,1409.99 1277.14,1405.13 1282.16,1399.35 1287.19,1392.68 1292.21,1385.14 
  1297.23,1376.74 1302.26,1367.51 1307.28,1357.47 1312.3,1346.67 1317.33,1335.12 1322.55,1322.36 1327.77,1308.88 1333,1294.7 1338.22,1279.89 1343.44,1264.49 
  1348.67,1248.53 1353.89,1232.08 1359.11,1215.19 1369.56,1180.28 1380,1144.23 1390.45,1107.5 1400.9,1070.55 1409.69,1039.61 1418.49,1009.1 1427.28,979.311 
  1436.07,950.493 1440.47,936.528 1444.87,922.903 1449.26,909.645 1453.66,896.785 1458.06,884.352 1462.45,872.372 1466.85,860.872 1471.25,849.877 1476.62,837.175 
  1481.98,825.305 1487.35,814.305 1492.72,804.212 1498.09,795.06 1503.46,786.878 1508.82,779.693 1514.19,773.53 1519.56,768.408 1524.93,764.344 1530.3,761.352 
  1535.66,759.442 1541.03,758.62 1546.4,758.888 1551.77,760.246 1557.14,762.689 1562.05,765.872 1566.97,769.951 1571.89,774.914 1576.81,780.747 1581.72,787.434 
  1586.64,794.956 1591.56,803.293 1596.48,812.422 1601.39,822.317 1606.31,832.951 1611.23,844.295 1616.15,856.317 1621.06,868.984 1625.98,882.261 1630.9,896.111 
  1635.82,910.496 1644.9,938.338 1653.98,967.606 1663.07,998.024 1672.15,1029.3 1690.32,1093.26 1708.48,1157.08 1717.68,1188.58 1726.88,1219.12 1736.09,1248.41 
  1745.29,1276.15 1749.89,1289.36 1754.49,1302.09 1759.09,1314.3 1763.69,1325.97 1768.29,1337.06 1772.89,1347.56 1777.49,1357.43 1782.09,1366.65 1787.25,1376.18 
  1792.4,1384.85 1797.56,1392.61 1802.72,1399.46 1807.87,1405.36 1813.03,1410.3 1818.18,1414.26 1823.34,1417.24 1828.5,1419.21 1833.65,1420.19 1838.81,1420.16 
  1843.96,1419.12 1849.12,1417.09 1854.27,1414.05 1859.43,1410.03 1864.59,1405.03 1869.26,1399.67 1873.93,1393.54 1878.6,1386.65 1883.28,1379.02 1887.95,1370.66 
  1892.62,1361.6 1897.29,1351.86 1901.96,1341.47 1906.64,1330.44 1911.31,1318.82 1915.98,1306.62 1920.65,1293.88 1925.32,1280.62 1930,1266.89 1934.67,1252.72 
  1939.34,1238.14 1950.04,1203.42 1960.74,1167.2 1971.44,1129.97 1982.13,1092.2 1992.83,1054.41 2003.53,1017.06 2014.23,980.67 2024.93,945.699 2029.88,930.119 
  2034.83,914.986 2039.79,900.343 2044.74,886.23 2049.69,872.688 2054.65,859.754 2059.6,847.465 2064.55,835.855 2069.51,824.957 2074.46,814.8 2079.41,805.415 
  2084.36,796.827 2089.32,789.06 2094.27,782.136 2099.22,776.075 2104.18,770.893 2109.06,766.66 2113.94,763.307 2118.82,760.843 2123.71,759.276 2128.59,758.61 
  2133.47,758.846 2138.36,759.984 2143.24,762.021 2148.12,764.951 2153.01,768.766 2157.89,773.456 2162.77,779.008 2167.65,785.407 2172.54,792.635 2177.42,800.673 
  2182.3,809.498 2187.04,818.798 2191.79,828.794 2196.53,839.46 2201.27,850.769 2206.01,862.691 2210.75,875.197 2215.49,888.254 2220.23,901.828 2229.71,930.387 
  2239.2,960.582 2248.68,992.101 2258.16,1024.62 2277.6,1093 2297.04,1161.24 2306.76,1194.37 2316.48,1226.37 2326.2,1256.9 2335.92,1285.61 2341.25,1300.46 
  2346.57,1314.62 2351.9,1328.06 2357.22,1340.72 2362.55,1352.57 2367.87,1363.56 2373.2,1373.66 2378.52,1382.84 2383.85,1391.07 2389.17,1398.33 2394.5,1404.57 
  2399.82,1409.8 2405.14,1413.99 2410.47,1417.13 2415.79,1419.2 2421.12,1420.2 2424.99,1420.26 2428.85,1419.75 2432.72,1418.67 2436.59,1417.03 2440.46,1414.83 
  2444.32,1412.07 2448.19,1408.76 2452.06,1404.91 2455.93,1400.51 2459.8,1395.59 2463.66,1390.13 2467.53,1384.17 2471.4,1377.7 2475.27,1370.73 2479.13,1363.29 
  2483,1355.37 2486.87,1347 2490.74,1338.19 2494.6,1328.96 2498.47,1319.31 2506.21,1298.86 2513.94,1276.97 2521.68,1253.8 2529.41,1229.5 2537.15,1204.25 
  2544.88,1178.21 2551.23,1156.38 2557.58,1134.24 2563.93,1111.89 2570.27,1089.44 
  "/>
<polyline clip-path="url(#clip773)" style="stroke:#ac8d18; stroke-linecap:round; stroke-linejoin:round; stroke-width:4; stroke-opacity:1; fill:none" points="
  220.841,1089.44 224.665,1075.91 228.489,1062.38 232.313,1048.87 236.137,1035.37 253.816,973.337 271.496,912.345 289.175,852.936 306.854,795.641 315.694,767.946 
  324.533,740.97 333.373,714.773 342.213,689.413 351.052,664.947 359.892,641.43 368.732,618.914 377.571,597.45 388.196,573.112 398.82,550.44 409.445,529.508 
  420.069,510.384 430.694,493.13 441.318,477.801 451.943,464.446 462.568,453.109 471.55,445.125 480.533,438.629 489.516,433.634 498.499,430.154 507.482,428.194 
  516.465,427.761 525.448,428.856 534.431,431.475 544.189,436.04 553.947,442.385 563.705,450.492 573.463,460.339 583.22,471.899 592.978,485.142 602.736,500.03 
  612.494,516.523 621.49,533.112 630.486,550.988 639.482,570.111 648.478,590.436 657.474,611.916 666.47,634.502 675.466,658.14 684.462,682.777 694.107,710.235 
  703.751,738.701 713.396,768.1 723.04,798.355 742.33,861.104 761.619,926.282 806.316,1082.78 851.013,1239.65 870.874,1307.14 890.734,1372.17 900.665,1403.53 
  910.595,1434.01 920.525,1463.51 930.456,1491.96 939.164,1515.98 947.872,1539.07 956.58,1561.19 965.288,1582.28 973.996,1602.31 982.704,1621.22 991.412,1638.98 
  1000.12,1655.55 1009.61,1672.21 1019.11,1687.37 1028.6,1700.99 1038.1,1713.03 1047.59,1723.46 1057.08,1732.26 1066.58,1739.4 1076.07,1744.87 1085.62,1748.66 
  1095.17,1750.74 1104.72,1751.08 1114.27,1749.71 1123.82,1746.61 1133.38,1741.79 1142.93,1735.28 1152.48,1727.07 1163.04,1716.07 1173.6,1703.07 1184.15,1688.11 
  1194.71,1671.25 1205.27,1652.52 1215.83,1632.01 1226.39,1609.76 1236.95,1585.85 1247,1561.63 1257.04,1536.05 1267.09,1509.18 1277.14,1481.1 1287.19,1451.88 
  1297.23,1421.62 1307.28,1390.4 1317.33,1358.32 1338.22,1289.21 1359.11,1217.62 1380,1144.42 1400.9,1070.54 1418.49,1008.5 1436.07,947.165 1453.66,887.092 
  1471.25,828.809 1481.98,794.331 1492.72,760.825 1503.46,728.404 1514.19,697.172 1524.93,667.234 1535.66,638.687 1546.4,611.626 1557.14,586.141 1566.97,564.249 
  1576.81,543.81 1586.64,524.88 1596.48,507.512 1606.31,491.755 1616.15,477.65 1625.98,465.239 1635.82,454.554 1644.9,446.245 1653.98,439.454 1663.07,434.198 
  1672.15,430.487 1681.23,428.332 1690.32,427.737 1699.4,428.703 1708.48,431.229 1717.68,435.371 1726.88,441.097 1736.09,448.393 1745.29,457.241 1754.49,467.62 
  1763.69,479.505 1772.89,492.867 1782.09,507.674 1792.4,525.94 1802.72,545.92 1813.03,567.553 1823.34,590.773 1833.65,615.51 1843.96,641.688 1854.27,669.228 
  1864.59,698.046 1873.93,725.191 1883.28,753.245 1892.62,782.138 1901.96,811.799 1920.65,873.126 1939.34,936.612 1982.13,1086.68 2024.93,1236.89 2044.74,1304.3 
  2064.55,1369.29 2074.46,1400.65 2084.36,1431.14 2094.27,1460.67 2104.18,1489.16 2113.94,1516.15 2123.71,1541.97 2133.47,1566.56 2143.24,1589.85 2153.01,1611.77 
  2162.77,1632.27 2172.54,1651.29 2182.3,1668.78 2191.79,1684.24 2201.27,1698.18 2210.75,1710.55 2220.23,1721.32 2229.71,1730.47 2239.2,1737.97 2248.68,1743.8 
  2258.16,1747.95 2267.88,1750.44 2277.6,1751.15 2287.32,1750.07 2297.04,1747.21 2306.76,1742.57 2316.48,1736.16 2326.2,1728 2335.92,1718.12 2346.57,1705.35 
  2357.22,1690.58 2367.87,1673.85 2378.52,1655.24 2389.17,1634.78 2399.82,1612.56 2410.47,1588.64 2421.12,1563.1 2436.59,1523.29 2452.06,1480.51 2467.53,1435.05 
  2483,1387.23 2498.47,1337.37 2513.94,1285.81 2529.41,1232.91 2544.88,1179.03 2551.23,1156.73 2557.58,1134.34 2563.93,1111.9 2570.27,1089.44 
  "/>
<path clip-path="url(#clip770)" d="
M2067 416.735 L2557.74 416.735 L2557.74 105.695 L2067 105.695  Z
  " fill="#ffffff" fill-rule="evenodd" fill-opacity="1"/>
<polyline clip-path="url(#clip770)" style="stroke:#000000; stroke-linecap:round; stroke-linejoin:round; stroke-width:4; stroke-opacity:1; fill:none" points="
  2067,416.735 2557.74,416.735 2557.74,105.695 2067,105.695 2067,416.735 
  "/>
<polyline clip-path="url(#clip770)" style="stroke:#009af9; stroke-linecap:round; stroke-linejoin:round; stroke-width:4; stroke-opacity:1; fill:none" points="
  2094.67,157.535 2260.7,157.535 
  "/>
<path clip-path="url(#clip770)" d="M2288.37 168.777 L2288.37 162.453 Q2288.37 161.914 2288.4 161.726 Q2288.42 161.539 2288.56 161.399 Q2288.7 161.258 2288.98 161.258 Q2289.31 161.258 2289.43 161.399 Q2289.57 161.539 2289.66 162.078 Q2290.39 165.38 2291.93 167.137 Q2293.5 168.87 2296.34 168.87 Q2299.03 168.87 2300.39 167.676 Q2301.75 166.481 2301.75 164.514 Q2301.75 161 2296.76 160.11 Q2293.88 159.525 2292.68 159.15 Q2291.49 158.752 2290.43 157.885 Q2288.37 156.199 2288.37 153.81 Q2288.37 151.421 2290.18 149.664 Q2292 147.907 2296.03 147.907 Q2298.72 147.907 2300.55 149.266 Q2301.09 148.844 2301.37 148.493 Q2302 147.907 2302.33 147.907 Q2302.71 147.907 2302.78 148.165 Q2302.85 148.399 2302.85 149.078 L2302.85 153.903 Q2302.85 154.442 2302.82 154.629 Q2302.8 154.817 2302.66 154.957 Q2302.52 155.074 2302.21 155.074 Q2301.68 155.074 2301.65 154.629 Q2301.28 148.821 2296.03 148.821 Q2293.2 148.821 2291.93 149.922 Q2290.67 150.999 2290.67 152.475 Q2290.67 153.294 2291.04 153.927 Q2291.44 154.536 2291.93 154.911 Q2292.45 155.262 2293.38 155.613 Q2294.32 155.941 2294.88 156.058 Q2295.47 156.175 2296.57 156.41 Q2300.41 157.136 2302.03 158.705 Q2304.04 160.719 2304.04 163.272 Q2304.04 166.106 2302.12 168.027 Q2300.2 169.948 2296.34 169.948 Q2293.22 169.948 2291.04 167.863 Q2290.76 168.144 2290.55 168.402 Q2290.34 168.636 2290.25 168.73 Q2290.18 168.823 2290.15 168.894 Q2290.13 168.941 2290.08 168.987 Q2289.12 169.948 2288.89 169.948 Q2288.51 169.948 2288.44 169.69 Q2288.37 169.456 2288.37 168.777 Z" fill="#000000" fill-rule="evenodd" fill-opacity="1" /><path clip-path="url(#clip770)" d="M2306.88 158.845 Q2306.88 154.325 2309.78 151.116 Q2312.69 147.907 2316.86 147.907 Q2321.07 147.907 2323.25 150.648 Q2325.45 153.388 2325.45 157.323 Q2325.45 158.049 2325.27 158.19 Q2325.08 158.33 2324.26 158.33 L2310.86 158.33 Q2310.86 163.225 2312.31 165.521 Q2314.33 168.73 2317.72 168.73 Q2318.19 168.73 2318.75 168.636 Q2319.32 168.542 2320.46 168.144 Q2321.61 167.723 2322.62 166.622 Q2323.63 165.521 2324.21 163.788 Q2324.35 163.108 2324.82 163.132 Q2325.45 163.132 2325.45 163.694 Q2325.45 164.116 2324.98 165.076 Q2324.54 166.013 2323.67 167.137 Q2322.81 168.261 2321.12 169.105 Q2319.46 169.948 2317.44 169.948 Q2313.23 169.948 2310.04 166.762 Q2306.88 163.553 2306.88 158.845 M2310.91 157.323 L2322.29 157.323 Q2322.29 156.316 2322.1 155.192 Q2321.94 154.067 2321.42 152.521 Q2320.93 150.952 2319.76 149.968 Q2318.59 148.985 2316.86 148.985 Q2316.08 148.985 2315.24 149.313 Q2314.42 149.64 2313.41 150.437 Q2312.41 151.233 2311.7 153.037 Q2311 154.84 2310.91 157.323 Z" fill="#000000" fill-rule="evenodd" fill-opacity="1" /><path clip-path="url(#clip770)" d="M2327.01 169.409 L2327.01 167.933 Q2329.56 167.933 2330.15 167.629 Q2330.73 167.301 2330.73 165.755 L2330.73 152.896 Q2330.73 151.116 2330.1 150.671 Q2329.49 150.226 2327.01 150.226 L2327.01 148.727 L2333.75 148.212 L2333.75 153.248 Q2336 148.212 2340.85 148.212 Q2344.46 148.212 2345.89 149.992 Q2346.94 151.186 2347.15 152.521 Q2347.38 153.857 2347.38 157.323 L2347.38 166.481 Q2347.43 167.488 2348.2 167.723 Q2348.98 167.933 2351.13 167.933 L2351.13 169.409 Q2346.24 169.268 2345.74 169.268 Q2345.37 169.268 2340.33 169.409 L2340.33 167.933 Q2342.89 167.933 2343.47 167.629 Q2344.08 167.301 2344.08 165.755 L2344.08 154.583 Q2344.08 152.147 2343.33 150.718 Q2342.58 149.266 2340.52 149.266 Q2338.04 149.266 2336.05 151.35 Q2334.06 153.435 2334.06 156.948 L2334.06 165.755 Q2334.06 167.301 2334.64 167.629 Q2335.25 167.933 2337.78 167.933 L2337.78 169.409 Q2332.89 169.268 2332.42 169.268 Q2332.04 169.268 2327.01 169.409 Z" fill="#000000" fill-rule="evenodd" fill-opacity="1" /><path clip-path="url(#clip770)" d="M2353.36 157.417 Q2353.36 149.313 2356.38 142.778 Q2357.67 140.037 2359.47 137.742 Q2361.28 135.446 2362.47 134.439 Q2363.67 133.432 2364 133.432 Q2364.46 133.432 2364.49 133.901 Q2364.49 134.135 2363.85 134.72 Q2356.13 142.59 2356.15 157.417 Q2356.15 172.29 2363.67 179.855 Q2364.49 180.675 2364.49 180.933 Q2364.49 181.401 2364 181.401 Q2363.67 181.401 2362.52 180.441 Q2361.37 179.481 2359.59 177.279 Q2357.81 175.077 2356.52 172.384 Q2353.36 165.849 2353.36 157.417 Z" fill="#000000" fill-rule="evenodd" fill-opacity="1" /><path clip-path="url(#clip770)" d="M2392.02 151.374 Q2392.02 152.685 2391.2 153.435 Q2390.39 154.161 2389.45 154.161 Q2388.56 154.161 2388.09 153.646 Q2387.62 153.13 2387.62 152.475 Q2387.62 151.585 2388.28 150.812 Q2388.93 150.039 2389.92 149.875 Q2388.96 149.266 2387.53 149.266 Q2386.59 149.266 2385.77 149.758 Q2384.97 150.249 2384.48 150.882 Q2384.01 151.514 2383.59 152.428 Q2383.19 153.318 2383.03 153.857 Q2382.89 154.372 2382.77 154.934 L2381.13 161.492 Q2380.34 164.607 2380.34 165.708 Q2380.34 167.067 2380.99 167.98 Q2381.65 168.87 2382.96 168.87 Q2383.48 168.87 2384.06 168.73 Q2384.65 168.566 2385.4 168.144 Q2386.17 167.699 2386.85 167.043 Q2387.55 166.364 2388.23 165.216 Q2388.91 164.069 2389.35 162.593 Q2389.5 162.078 2389.96 162.078 Q2390.55 162.078 2390.55 162.546 Q2390.55 162.944 2390.22 163.788 Q2389.92 164.607 2389.24 165.685 Q2388.58 166.739 2387.71 167.699 Q2386.85 168.636 2385.56 169.292 Q2384.27 169.948 2382.87 169.948 Q2380.85 169.948 2379.52 168.87 Q2378.18 167.793 2377.69 166.294 Q2377.57 166.505 2377.41 166.786 Q2377.25 167.067 2376.75 167.699 Q2376.28 168.308 2375.75 168.777 Q2375.21 169.222 2374.36 169.573 Q2373.54 169.948 2372.65 169.948 Q2371.53 169.948 2370.52 169.62 Q2369.54 169.292 2368.84 168.542 Q2368.13 167.793 2368.13 166.762 Q2368.13 165.615 2368.91 164.818 Q2369.7 163.998 2370.78 163.998 Q2371.46 163.998 2372 164.397 Q2372.56 164.795 2372.56 165.661 Q2372.56 166.622 2371.9 167.348 Q2371.25 168.074 2370.31 168.261 Q2371.27 168.87 2372.7 168.87 Q2374.25 168.87 2375.46 167.512 Q2376.68 166.153 2377.27 163.881 Q2378.72 158.424 2379.28 155.988 Q2379.84 153.529 2379.84 152.475 Q2379.84 151.491 2379.59 150.812 Q2379.33 150.132 2378.88 149.828 Q2378.46 149.5 2378.06 149.383 Q2377.69 149.266 2377.27 149.266 Q2376.57 149.266 2375.77 149.547 Q2375 149.828 2374.06 150.484 Q2373.15 151.116 2372.28 152.428 Q2371.41 153.739 2370.83 155.543 Q2370.71 156.082 2370.19 156.082 Q2369.63 156.058 2369.63 155.59 Q2369.63 155.192 2369.94 154.372 Q2370.27 153.529 2370.92 152.475 Q2371.6 151.421 2372.47 150.484 Q2373.36 149.523 2374.65 148.868 Q2375.96 148.212 2377.36 148.212 Q2377.99 148.212 2378.6 148.352 Q2379.24 148.469 2379.99 148.821 Q2380.76 149.172 2381.44 149.945 Q2382.12 150.718 2382.54 151.842 Q2382.82 151.303 2383.19 150.788 Q2383.59 150.273 2384.2 149.64 Q2384.83 148.985 2385.7 148.61 Q2386.59 148.212 2387.57 148.212 Q2388.53 148.212 2389.47 148.469 Q2390.41 148.704 2391.2 149.477 Q2392.02 150.226 2392.02 151.374 Z" fill="#000000" fill-rule="evenodd" fill-opacity="1" /><path clip-path="url(#clip770)" d="M2396.64 180.933 Q2396.64 180.699 2397.25 180.113 Q2404.98 172.243 2404.98 157.417 Q2404.98 142.543 2397.56 135.025 Q2396.64 134.158 2396.64 133.901 Q2396.64 133.432 2397.11 133.432 Q2397.44 133.432 2398.59 134.392 Q2399.76 135.353 2401.52 137.554 Q2403.3 139.756 2404.61 142.45 Q2407.77 148.985 2407.77 157.417 Q2407.77 165.521 2404.75 172.056 Q2403.46 174.796 2401.66 177.092 Q2399.85 179.387 2398.66 180.394 Q2397.46 181.401 2397.11 181.401 Q2396.64 181.401 2396.64 180.933 Z" fill="#000000" fill-rule="evenodd" fill-opacity="1" /><polyline clip-path="url(#clip770)" style="stroke:#e26f46; stroke-linecap:round; stroke-linejoin:round; stroke-width:4; stroke-opacity:1; fill:none" points="
  2094.67,209.375 2260.7,209.375 
  "/>
<path clip-path="url(#clip770)" d="M2288.37 220.617 L2288.37 214.293 Q2288.37 213.754 2288.4 213.566 Q2288.42 213.379 2288.56 213.239 Q2288.7 213.098 2288.98 213.098 Q2289.31 213.098 2289.43 213.239 Q2289.57 213.379 2289.66 213.918 Q2290.39 217.22 2291.93 218.977 Q2293.5 220.71 2296.34 220.71 Q2299.03 220.71 2300.39 219.516 Q2301.75 218.321 2301.75 216.354 Q2301.75 212.84 2296.76 211.95 Q2293.88 211.365 2292.68 210.99 Q2291.49 210.592 2290.43 209.725 Q2288.37 208.039 2288.37 205.65 Q2288.37 203.261 2290.18 201.504 Q2292 199.747 2296.03 199.747 Q2298.72 199.747 2300.55 201.106 Q2301.09 200.684 2301.37 200.333 Q2302 199.747 2302.33 199.747 Q2302.71 199.747 2302.78 200.005 Q2302.85 200.239 2302.85 200.918 L2302.85 205.743 Q2302.85 206.282 2302.82 206.469 Q2302.8 206.657 2302.66 206.797 Q2302.52 206.914 2302.21 206.914 Q2301.68 206.914 2301.65 206.469 Q2301.28 200.661 2296.03 200.661 Q2293.2 200.661 2291.93 201.762 Q2290.67 202.839 2290.67 204.315 Q2290.67 205.134 2291.04 205.767 Q2291.44 206.376 2291.93 206.751 Q2292.45 207.102 2293.38 207.453 Q2294.32 207.781 2294.88 207.898 Q2295.47 208.015 2296.57 208.25 Q2300.41 208.976 2302.03 210.545 Q2304.04 212.559 2304.04 215.112 Q2304.04 217.946 2302.12 219.867 Q2300.2 221.788 2296.34 221.788 Q2293.22 221.788 2291.04 219.703 Q2290.76 219.984 2290.55 220.242 Q2290.34 220.476 2290.25 220.57 Q2290.18 220.663 2290.15 220.734 Q2290.13 220.781 2290.08 220.827 Q2289.12 221.788 2288.89 221.788 Q2288.51 221.788 2288.44 221.53 Q2288.37 221.296 2288.37 220.617 Z" fill="#000000" fill-rule="evenodd" fill-opacity="1" /><path clip-path="url(#clip770)" d="M2306.88 210.685 Q2306.88 206.165 2309.78 202.956 Q2312.69 199.747 2316.86 199.747 Q2321.07 199.747 2323.25 202.488 Q2325.45 205.228 2325.45 209.163 Q2325.45 209.889 2325.27 210.03 Q2325.08 210.17 2324.26 210.17 L2310.86 210.17 Q2310.86 215.065 2312.31 217.361 Q2314.33 220.57 2317.72 220.57 Q2318.19 220.57 2318.75 220.476 Q2319.32 220.382 2320.46 219.984 Q2321.61 219.563 2322.62 218.462 Q2323.63 217.361 2324.21 215.628 Q2324.35 214.948 2324.82 214.972 Q2325.45 214.972 2325.45 215.534 Q2325.45 215.956 2324.98 216.916 Q2324.54 217.853 2323.67 218.977 Q2322.81 220.101 2321.12 220.945 Q2319.46 221.788 2317.44 221.788 Q2313.23 221.788 2310.04 218.602 Q2306.88 215.393 2306.88 210.685 M2310.91 209.163 L2322.29 209.163 Q2322.29 208.156 2322.1 207.032 Q2321.94 205.907 2321.42 204.361 Q2320.93 202.792 2319.76 201.808 Q2318.59 200.825 2316.86 200.825 Q2316.08 200.825 2315.24 201.153 Q2314.42 201.48 2313.41 202.277 Q2312.41 203.073 2311.7 204.877 Q2311 206.68 2310.91 209.163 Z" fill="#000000" fill-rule="evenodd" fill-opacity="1" /><path clip-path="url(#clip770)" d="M2327.01 221.249 L2327.01 219.773 Q2329.56 219.773 2330.15 219.469 Q2330.73 219.141 2330.73 217.595 L2330.73 204.736 Q2330.73 202.956 2330.1 202.511 Q2329.49 202.066 2327.01 202.066 L2327.01 200.567 L2333.75 200.052 L2333.75 205.088 Q2336 200.052 2340.85 200.052 Q2344.46 200.052 2345.89 201.832 Q2346.94 203.026 2347.15 204.361 Q2347.38 205.697 2347.38 209.163 L2347.38 218.321 Q2347.43 219.328 2348.2 219.563 Q2348.98 219.773 2351.13 219.773 L2351.13 221.249 Q2346.24 221.108 2345.74 221.108 Q2345.37 221.108 2340.33 221.249 L2340.33 219.773 Q2342.89 219.773 2343.47 219.469 Q2344.08 219.141 2344.08 217.595 L2344.08 206.423 Q2344.08 203.987 2343.33 202.558 Q2342.58 201.106 2340.52 201.106 Q2338.04 201.106 2336.05 203.19 Q2334.06 205.275 2334.06 208.788 L2334.06 217.595 Q2334.06 219.141 2334.64 219.469 Q2335.25 219.773 2337.78 219.773 L2337.78 221.249 Q2332.89 221.108 2332.42 221.108 Q2332.04 221.108 2327.01 221.249 Z" fill="#000000" fill-rule="evenodd" fill-opacity="1" /><path clip-path="url(#clip770)" d="M2353.36 209.257 Q2353.36 201.153 2356.38 194.618 Q2357.67 191.877 2359.47 189.582 Q2361.28 187.286 2362.47 186.279 Q2363.67 185.272 2364 185.272 Q2364.46 185.272 2364.49 185.741 Q2364.49 185.975 2363.85 186.56 Q2356.13 194.43 2356.15 209.257 Q2356.15 224.13 2363.67 231.695 Q2364.49 232.515 2364.49 232.773 Q2364.49 233.241 2364 233.241 Q2363.67 233.241 2362.52 232.281 Q2361.37 231.321 2359.59 229.119 Q2357.81 226.917 2356.52 224.224 Q2353.36 217.689 2353.36 209.257 Z" fill="#000000" fill-rule="evenodd" fill-opacity="1" /><path clip-path="url(#clip770)" d="M2392.02 203.214 Q2392.02 204.525 2391.2 205.275 Q2390.39 206.001 2389.45 206.001 Q2388.56 206.001 2388.09 205.486 Q2387.62 204.97 2387.62 204.315 Q2387.62 203.425 2388.28 202.652 Q2388.93 201.879 2389.92 201.715 Q2388.96 201.106 2387.53 201.106 Q2386.59 201.106 2385.77 201.598 Q2384.97 202.089 2384.48 202.722 Q2384.01 203.354 2383.59 204.268 Q2383.19 205.158 2383.03 205.697 Q2382.89 206.212 2382.77 206.774 L2381.13 213.332 Q2380.34 216.447 2380.34 217.548 Q2380.34 218.907 2380.99 219.82 Q2381.65 220.71 2382.96 220.71 Q2383.48 220.71 2384.06 220.57 Q2384.65 220.406 2385.4 219.984 Q2386.17 219.539 2386.85 218.883 Q2387.55 218.204 2388.23 217.056 Q2388.91 215.909 2389.35 214.433 Q2389.5 213.918 2389.96 213.918 Q2390.55 213.918 2390.55 214.386 Q2390.55 214.784 2390.22 215.628 Q2389.92 216.447 2389.24 217.525 Q2388.58 218.579 2387.71 219.539 Q2386.85 220.476 2385.56 221.132 Q2384.27 221.788 2382.87 221.788 Q2380.85 221.788 2379.52 220.71 Q2378.18 219.633 2377.69 218.134 Q2377.57 218.345 2377.41 218.626 Q2377.25 218.907 2376.75 219.539 Q2376.28 220.148 2375.75 220.617 Q2375.21 221.062 2374.36 221.413 Q2373.54 221.788 2372.65 221.788 Q2371.53 221.788 2370.52 221.46 Q2369.54 221.132 2368.84 220.382 Q2368.13 219.633 2368.13 218.602 Q2368.13 217.455 2368.91 216.658 Q2369.7 215.838 2370.78 215.838 Q2371.46 215.838 2372 216.237 Q2372.56 216.635 2372.56 217.501 Q2372.56 218.462 2371.9 219.188 Q2371.25 219.914 2370.31 220.101 Q2371.27 220.71 2372.7 220.71 Q2374.25 220.71 2375.46 219.352 Q2376.68 217.993 2377.27 215.721 Q2378.72 210.264 2379.28 207.828 Q2379.84 205.369 2379.84 204.315 Q2379.84 203.331 2379.59 202.652 Q2379.33 201.972 2378.88 201.668 Q2378.46 201.34 2378.06 201.223 Q2377.69 201.106 2377.27 201.106 Q2376.57 201.106 2375.77 201.387 Q2375 201.668 2374.06 202.324 Q2373.15 202.956 2372.28 204.268 Q2371.41 205.579 2370.83 207.383 Q2370.71 207.922 2370.19 207.922 Q2369.63 207.898 2369.63 207.43 Q2369.63 207.032 2369.94 206.212 Q2370.27 205.369 2370.92 204.315 Q2371.6 203.261 2372.47 202.324 Q2373.36 201.363 2374.65 200.708 Q2375.96 200.052 2377.36 200.052 Q2377.99 200.052 2378.6 200.192 Q2379.24 200.309 2379.99 200.661 Q2380.76 201.012 2381.44 201.785 Q2382.12 202.558 2382.54 203.682 Q2382.82 203.143 2383.19 202.628 Q2383.59 202.113 2384.2 201.48 Q2384.83 200.825 2385.7 200.45 Q2386.59 200.052 2387.57 200.052 Q2388.53 200.052 2389.47 200.309 Q2390.41 200.544 2391.2 201.317 Q2392.02 202.066 2392.02 203.214 Z" fill="#000000" fill-rule="evenodd" fill-opacity="1" /><path clip-path="url(#clip770)" d="M2409.71 209.842 Q2408.61 209.842 2408.61 209.257 Q2408.61 208.671 2409.76 208.671 Q2409.9 208.671 2410.13 208.695 Q2410.39 208.718 2410.44 208.718 L2423.95 208.718 L2423.95 195.156 Q2423.95 195.11 2423.93 194.899 Q2423.91 194.665 2423.91 194.524 Q2423.91 193.376 2424.47 193.376 Q2425.05 193.376 2425.05 194.524 L2425.05 208.718 L2438.59 208.718 Q2438.64 208.718 2438.87 208.695 Q2439.11 208.671 2439.25 208.671 Q2440.35 208.671 2440.35 209.257 Q2440.37 209.842 2439.2 209.842 Q2439.06 209.842 2438.85 209.819 Q2438.64 209.795 2438.59 209.795 L2425.05 209.795 L2425.05 224.036 Q2425.05 225.137 2424.47 225.137 Q2423.91 225.137 2423.91 223.989 Q2423.91 223.849 2423.93 223.615 Q2423.95 223.404 2423.95 223.357 L2423.95 209.795 L2410.44 209.795 Q2410.39 209.795 2410.11 209.819 Q2409.85 209.842 2409.71 209.842 Z" fill="#000000" fill-rule="evenodd" fill-opacity="1" /><path clip-path="url(#clip770)" d="M2458.88 221.249 Q2458.88 220.382 2458.95 220.125 Q2459.04 219.867 2459.42 219.469 L2468.62 209.21 Q2473.66 203.542 2473.66 198.6 Q2473.66 195.391 2471.97 193.095 Q2470.31 190.8 2467.24 190.8 Q2465.13 190.8 2463.35 192.088 Q2461.57 193.376 2460.75 195.672 Q2460.89 195.625 2461.39 195.625 Q2462.58 195.625 2463.24 196.374 Q2463.92 197.124 2463.92 198.131 Q2463.92 199.419 2463.07 200.052 Q2462.25 200.661 2461.43 200.661 Q2461.1 200.661 2460.66 200.59 Q2460.24 200.52 2459.56 199.864 Q2458.88 199.185 2458.88 197.991 Q2458.88 194.641 2461.41 191.971 Q2463.96 189.301 2467.85 189.301 Q2472.25 189.301 2475.14 191.924 Q2478.04 194.524 2478.04 198.6 Q2478.04 200.028 2477.59 201.34 Q2477.17 202.628 2476.59 203.635 Q2476.03 204.643 2474.48 206.259 Q2472.93 207.875 2471.69 209.023 Q2470.45 210.17 2467.66 212.606 L2462.58 217.548 L2471.22 217.548 Q2475.44 217.548 2475.77 217.174 Q2476.24 216.494 2476.82 212.911 L2478.04 212.911 L2476.68 221.249 L2458.88 221.249 Z" fill="#000000" fill-rule="evenodd" fill-opacity="1" /><path clip-path="url(#clip770)" d="M2483.79 232.773 Q2483.79 232.539 2484.4 231.953 Q2492.13 224.083 2492.13 209.257 Q2492.13 194.383 2484.7 186.865 Q2483.79 185.998 2483.79 185.741 Q2483.79 185.272 2484.26 185.272 Q2484.58 185.272 2485.73 186.232 Q2486.9 187.193 2488.66 189.394 Q2490.44 191.596 2491.75 194.29 Q2494.91 200.825 2494.91 209.257 Q2494.91 217.361 2491.89 223.896 Q2490.6 226.636 2488.8 228.932 Q2487 231.227 2485.8 232.234 Q2484.61 233.241 2484.26 233.241 Q2483.79 233.241 2483.79 232.773 Z" fill="#000000" fill-rule="evenodd" fill-opacity="1" /><polyline clip-path="url(#clip770)" style="stroke:#3da44d; stroke-linecap:round; stroke-linejoin:round; stroke-width:4; stroke-opacity:1; fill:none" points="
  2094.67,261.215 2260.7,261.215 
  "/>
<path clip-path="url(#clip770)" d="M2288.37 272.457 L2288.37 266.133 Q2288.37 265.594 2288.4 265.406 Q2288.42 265.219 2288.56 265.079 Q2288.7 264.938 2288.98 264.938 Q2289.31 264.938 2289.43 265.079 Q2289.57 265.219 2289.66 265.758 Q2290.39 269.06 2291.93 270.817 Q2293.5 272.55 2296.34 272.55 Q2299.03 272.55 2300.39 271.356 Q2301.75 270.161 2301.75 268.194 Q2301.75 264.68 2296.76 263.79 Q2293.88 263.205 2292.68 262.83 Q2291.49 262.432 2290.43 261.565 Q2288.37 259.879 2288.37 257.49 Q2288.37 255.101 2290.18 253.344 Q2292 251.587 2296.03 251.587 Q2298.72 251.587 2300.55 252.946 Q2301.09 252.524 2301.37 252.173 Q2302 251.587 2302.33 251.587 Q2302.71 251.587 2302.78 251.845 Q2302.85 252.079 2302.85 252.758 L2302.85 257.583 Q2302.85 258.122 2302.82 258.309 Q2302.8 258.497 2302.66 258.637 Q2302.52 258.754 2302.21 258.754 Q2301.68 258.754 2301.65 258.309 Q2301.28 252.501 2296.03 252.501 Q2293.2 252.501 2291.93 253.602 Q2290.67 254.679 2290.67 256.155 Q2290.67 256.974 2291.04 257.607 Q2291.44 258.216 2291.93 258.591 Q2292.45 258.942 2293.38 259.293 Q2294.32 259.621 2294.88 259.738 Q2295.47 259.855 2296.57 260.09 Q2300.41 260.816 2302.03 262.385 Q2304.04 264.399 2304.04 266.952 Q2304.04 269.786 2302.12 271.707 Q2300.2 273.628 2296.34 273.628 Q2293.22 273.628 2291.04 271.543 Q2290.76 271.824 2290.55 272.082 Q2290.34 272.316 2290.25 272.41 Q2290.18 272.503 2290.15 272.574 Q2290.13 272.621 2290.08 272.667 Q2289.12 273.628 2288.89 273.628 Q2288.51 273.628 2288.44 273.37 Q2288.37 273.136 2288.37 272.457 Z" fill="#000000" fill-rule="evenodd" fill-opacity="1" /><path clip-path="url(#clip770)" d="M2306.88 262.525 Q2306.88 258.005 2309.78 254.796 Q2312.69 251.587 2316.86 251.587 Q2321.07 251.587 2323.25 254.328 Q2325.45 257.068 2325.45 261.003 Q2325.45 261.729 2325.27 261.87 Q2325.08 262.01 2324.26 262.01 L2310.86 262.01 Q2310.86 266.905 2312.31 269.201 Q2314.33 272.41 2317.72 272.41 Q2318.19 272.41 2318.75 272.316 Q2319.32 272.222 2320.46 271.824 Q2321.61 271.403 2322.62 270.302 Q2323.63 269.201 2324.21 267.468 Q2324.35 266.788 2324.82 266.812 Q2325.45 266.812 2325.45 267.374 Q2325.45 267.796 2324.98 268.756 Q2324.54 269.693 2323.67 270.817 Q2322.81 271.941 2321.12 272.785 Q2319.46 273.628 2317.44 273.628 Q2313.23 273.628 2310.04 270.442 Q2306.88 267.233 2306.88 262.525 M2310.91 261.003 L2322.29 261.003 Q2322.29 259.996 2322.1 258.872 Q2321.94 257.747 2321.42 256.201 Q2320.93 254.632 2319.76 253.648 Q2318.59 252.665 2316.86 252.665 Q2316.08 252.665 2315.24 252.993 Q2314.42 253.32 2313.41 254.117 Q2312.41 254.913 2311.7 256.717 Q2311 258.52 2310.91 261.003 Z" fill="#000000" fill-rule="evenodd" fill-opacity="1" /><path clip-path="url(#clip770)" d="M2327.01 273.089 L2327.01 271.613 Q2329.56 271.613 2330.15 271.309 Q2330.73 270.981 2330.73 269.435 L2330.73 256.576 Q2330.73 254.796 2330.1 254.351 Q2329.49 253.906 2327.01 253.906 L2327.01 252.407 L2333.75 251.892 L2333.75 256.928 Q2336 251.892 2340.85 251.892 Q2344.46 251.892 2345.89 253.672 Q2346.94 254.866 2347.15 256.201 Q2347.38 257.537 2347.38 261.003 L2347.38 270.161 Q2347.43 271.168 2348.2 271.403 Q2348.98 271.613 2351.13 271.613 L2351.13 273.089 Q2346.24 272.948 2345.74 272.948 Q2345.37 272.948 2340.33 273.089 L2340.33 271.613 Q2342.89 271.613 2343.47 271.309 Q2344.08 270.981 2344.08 269.435 L2344.08 258.263 Q2344.08 255.827 2343.33 254.398 Q2342.58 252.946 2340.52 252.946 Q2338.04 252.946 2336.05 255.03 Q2334.06 257.115 2334.06 260.628 L2334.06 269.435 Q2334.06 270.981 2334.64 271.309 Q2335.25 271.613 2337.78 271.613 L2337.78 273.089 Q2332.89 272.948 2332.42 272.948 Q2332.04 272.948 2327.01 273.089 Z" fill="#000000" fill-rule="evenodd" fill-opacity="1" /><path clip-path="url(#clip770)" d="M2353.36 261.097 Q2353.36 252.993 2356.38 246.458 Q2357.67 243.717 2359.47 241.422 Q2361.28 239.126 2362.47 238.119 Q2363.67 237.112 2364 237.112 Q2364.46 237.112 2364.49 237.581 Q2364.49 237.815 2363.85 238.4 Q2356.13 246.27 2356.15 261.097 Q2356.15 275.97 2363.67 283.535 Q2364.49 284.355 2364.49 284.613 Q2364.49 285.081 2364 285.081 Q2363.67 285.081 2362.52 284.121 Q2361.37 283.161 2359.59 280.959 Q2357.81 278.757 2356.52 276.064 Q2353.36 269.529 2353.36 261.097 Z" fill="#000000" fill-rule="evenodd" fill-opacity="1" /><path clip-path="url(#clip770)" d="M2392.02 255.054 Q2392.02 256.365 2391.2 257.115 Q2390.39 257.841 2389.45 257.841 Q2388.56 257.841 2388.09 257.326 Q2387.62 256.81 2387.62 256.155 Q2387.62 255.265 2388.28 254.492 Q2388.93 253.719 2389.92 253.555 Q2388.96 252.946 2387.53 252.946 Q2386.59 252.946 2385.77 253.438 Q2384.97 253.929 2384.48 254.562 Q2384.01 255.194 2383.59 256.108 Q2383.19 256.998 2383.03 257.537 Q2382.89 258.052 2382.77 258.614 L2381.13 265.172 Q2380.34 268.287 2380.34 269.388 Q2380.34 270.747 2380.99 271.66 Q2381.65 272.55 2382.96 272.55 Q2383.48 272.55 2384.06 272.41 Q2384.65 272.246 2385.4 271.824 Q2386.17 271.379 2386.85 270.723 Q2387.55 270.044 2388.23 268.896 Q2388.91 267.749 2389.35 266.273 Q2389.5 265.758 2389.96 265.758 Q2390.55 265.758 2390.55 266.226 Q2390.55 266.624 2390.22 267.468 Q2389.92 268.287 2389.24 269.365 Q2388.58 270.419 2387.71 271.379 Q2386.85 272.316 2385.56 272.972 Q2384.27 273.628 2382.87 273.628 Q2380.85 273.628 2379.52 272.55 Q2378.18 271.473 2377.69 269.974 Q2377.57 270.185 2377.41 270.466 Q2377.25 270.747 2376.75 271.379 Q2376.28 271.988 2375.75 272.457 Q2375.21 272.902 2374.36 273.253 Q2373.54 273.628 2372.65 273.628 Q2371.53 273.628 2370.52 273.3 Q2369.54 272.972 2368.84 272.222 Q2368.13 271.473 2368.13 270.442 Q2368.13 269.295 2368.91 268.498 Q2369.7 267.678 2370.78 267.678 Q2371.46 267.678 2372 268.077 Q2372.56 268.475 2372.56 269.341 Q2372.56 270.302 2371.9 271.028 Q2371.25 271.754 2370.31 271.941 Q2371.27 272.55 2372.7 272.55 Q2374.25 272.55 2375.46 271.192 Q2376.68 269.833 2377.27 267.561 Q2378.72 262.104 2379.28 259.668 Q2379.84 257.209 2379.84 256.155 Q2379.84 255.171 2379.59 254.492 Q2379.33 253.812 2378.88 253.508 Q2378.46 253.18 2378.06 253.063 Q2377.69 252.946 2377.27 252.946 Q2376.57 252.946 2375.77 253.227 Q2375 253.508 2374.06 254.164 Q2373.15 254.796 2372.28 256.108 Q2371.41 257.419 2370.83 259.223 Q2370.71 259.762 2370.19 259.762 Q2369.63 259.738 2369.63 259.27 Q2369.63 258.872 2369.94 258.052 Q2370.27 257.209 2370.92 256.155 Q2371.6 255.101 2372.47 254.164 Q2373.36 253.203 2374.65 252.548 Q2375.96 251.892 2377.36 251.892 Q2377.99 251.892 2378.6 252.032 Q2379.24 252.149 2379.99 252.501 Q2380.76 252.852 2381.44 253.625 Q2382.12 254.398 2382.54 255.522 Q2382.82 254.983 2383.19 254.468 Q2383.59 253.953 2384.2 253.32 Q2384.83 252.665 2385.7 252.29 Q2386.59 251.892 2387.57 251.892 Q2388.53 251.892 2389.47 252.149 Q2390.41 252.384 2391.2 253.157 Q2392.02 253.906 2392.02 255.054 Z" fill="#000000" fill-rule="evenodd" fill-opacity="1" /><path clip-path="url(#clip770)" d="M2396.64 284.613 Q2396.64 284.379 2397.25 283.793 Q2404.98 275.923 2404.98 261.097 Q2404.98 246.223 2397.56 238.705 Q2396.64 237.838 2396.64 237.581 Q2396.64 237.112 2397.11 237.112 Q2397.44 237.112 2398.59 238.072 Q2399.76 239.033 2401.52 241.234 Q2403.3 243.436 2404.61 246.13 Q2407.77 252.665 2407.77 261.097 Q2407.77 269.201 2404.75 275.736 Q2403.46 278.476 2401.66 280.772 Q2399.85 283.067 2398.66 284.074 Q2397.46 285.081 2397.11 285.081 Q2396.64 285.081 2396.64 284.613 Z" fill="#000000" fill-rule="evenodd" fill-opacity="1" /><path clip-path="url(#clip770)" d="M2429.48 261.682 Q2428.38 261.682 2428.38 261.097 Q2428.38 260.511 2429.52 260.511 Q2429.66 260.511 2429.9 260.535 Q2430.16 260.558 2430.2 260.558 L2443.72 260.558 L2443.72 246.996 Q2443.72 246.95 2443.69 246.739 Q2443.67 246.505 2443.67 246.364 Q2443.67 245.216 2444.23 245.216 Q2444.82 245.216 2444.82 246.364 L2444.82 260.558 L2458.36 260.558 Q2458.4 260.558 2458.64 260.535 Q2458.87 260.511 2459.01 260.511 Q2460.11 260.511 2460.11 261.097 Q2460.14 261.682 2458.97 261.682 Q2458.83 261.682 2458.61 261.659 Q2458.4 261.635 2458.36 261.635 L2444.82 261.635 L2444.82 275.876 Q2444.82 276.977 2444.23 276.977 Q2443.67 276.977 2443.67 275.829 Q2443.67 275.689 2443.69 275.455 Q2443.72 275.244 2443.72 275.197 L2443.72 261.635 L2430.2 261.635 Q2430.16 261.635 2429.88 261.659 Q2429.62 261.682 2429.48 261.682 Z" fill="#000000" fill-rule="evenodd" fill-opacity="1" /><path clip-path="url(#clip770)" d="M2478.64 273.089 Q2478.64 272.222 2478.71 271.965 Q2478.81 271.707 2479.18 271.309 L2488.39 261.05 Q2493.42 255.382 2493.42 250.44 Q2493.42 247.231 2491.74 244.935 Q2490.07 242.64 2487.01 242.64 Q2484.9 242.64 2483.12 243.928 Q2481.34 245.216 2480.52 247.512 Q2480.66 247.465 2481.15 247.465 Q2482.34 247.465 2483 248.214 Q2483.68 248.964 2483.68 249.971 Q2483.68 251.259 2482.84 251.892 Q2482.02 252.501 2481.2 252.501 Q2480.87 252.501 2480.42 252.43 Q2480 252.36 2479.32 251.704 Q2478.64 251.025 2478.64 249.831 Q2478.64 246.481 2481.17 243.811 Q2483.73 241.141 2487.62 241.141 Q2492.02 241.141 2494.9 243.764 Q2497.8 246.364 2497.8 250.44 Q2497.8 251.868 2497.36 253.18 Q2496.94 254.468 2496.35 255.475 Q2495.79 256.483 2494.24 258.099 Q2492.7 259.715 2491.46 260.863 Q2490.21 262.01 2487.43 264.446 L2482.34 269.388 L2490.99 269.388 Q2495.2 269.388 2495.53 269.014 Q2496 268.334 2496.59 264.751 L2497.8 264.751 L2496.45 273.089 L2478.64 273.089 Z" fill="#000000" fill-rule="evenodd" fill-opacity="1" /><polyline clip-path="url(#clip770)" style="stroke:#c271d2; stroke-linecap:round; stroke-linejoin:round; stroke-width:4; stroke-opacity:1; fill:none" points="
  2094.67,313.055 2260.7,313.055 
  "/>
<path clip-path="url(#clip770)" d="M2288.37 324.297 L2288.37 317.973 Q2288.37 317.434 2288.4 317.246 Q2288.42 317.059 2288.56 316.919 Q2288.7 316.778 2288.98 316.778 Q2289.31 316.778 2289.43 316.919 Q2289.57 317.059 2289.66 317.598 Q2290.39 320.9 2291.93 322.657 Q2293.5 324.39 2296.34 324.39 Q2299.03 324.39 2300.39 323.196 Q2301.75 322.001 2301.75 320.034 Q2301.75 316.52 2296.76 315.63 Q2293.88 315.045 2292.68 314.67 Q2291.49 314.272 2290.43 313.405 Q2288.37 311.719 2288.37 309.33 Q2288.37 306.941 2290.18 305.184 Q2292 303.427 2296.03 303.427 Q2298.72 303.427 2300.55 304.786 Q2301.09 304.364 2301.37 304.013 Q2302 303.427 2302.33 303.427 Q2302.71 303.427 2302.78 303.685 Q2302.85 303.919 2302.85 304.598 L2302.85 309.423 Q2302.85 309.962 2302.82 310.149 Q2302.8 310.337 2302.66 310.477 Q2302.52 310.594 2302.21 310.594 Q2301.68 310.594 2301.65 310.149 Q2301.28 304.341 2296.03 304.341 Q2293.2 304.341 2291.93 305.442 Q2290.67 306.519 2290.67 307.995 Q2290.67 308.814 2291.04 309.447 Q2291.44 310.056 2291.93 310.431 Q2292.45 310.782 2293.38 311.133 Q2294.32 311.461 2294.88 311.578 Q2295.47 311.695 2296.57 311.93 Q2300.41 312.656 2302.03 314.225 Q2304.04 316.239 2304.04 318.792 Q2304.04 321.626 2302.12 323.547 Q2300.2 325.468 2296.34 325.468 Q2293.22 325.468 2291.04 323.383 Q2290.76 323.664 2290.55 323.922 Q2290.34 324.156 2290.25 324.25 Q2290.18 324.343 2290.15 324.414 Q2290.13 324.461 2290.08 324.507 Q2289.12 325.468 2288.89 325.468 Q2288.51 325.468 2288.44 325.21 Q2288.37 324.976 2288.37 324.297 Z" fill="#000000" fill-rule="evenodd" fill-opacity="1" /><path clip-path="url(#clip770)" d="M2306.88 314.365 Q2306.88 309.845 2309.78 306.636 Q2312.69 303.427 2316.86 303.427 Q2321.07 303.427 2323.25 306.168 Q2325.45 308.908 2325.45 312.843 Q2325.45 313.569 2325.27 313.71 Q2325.08 313.85 2324.26 313.85 L2310.86 313.85 Q2310.86 318.745 2312.31 321.041 Q2314.33 324.25 2317.72 324.25 Q2318.19 324.25 2318.75 324.156 Q2319.32 324.062 2320.46 323.664 Q2321.61 323.243 2322.62 322.142 Q2323.63 321.041 2324.21 319.308 Q2324.35 318.628 2324.82 318.652 Q2325.45 318.652 2325.45 319.214 Q2325.45 319.636 2324.98 320.596 Q2324.54 321.533 2323.67 322.657 Q2322.81 323.781 2321.12 324.625 Q2319.46 325.468 2317.44 325.468 Q2313.23 325.468 2310.04 322.282 Q2306.88 319.073 2306.88 314.365 M2310.91 312.843 L2322.29 312.843 Q2322.29 311.836 2322.1 310.712 Q2321.94 309.587 2321.42 308.041 Q2320.93 306.472 2319.76 305.488 Q2318.59 304.505 2316.86 304.505 Q2316.08 304.505 2315.24 304.833 Q2314.42 305.16 2313.41 305.957 Q2312.41 306.753 2311.7 308.557 Q2311 310.36 2310.91 312.843 Z" fill="#000000" fill-rule="evenodd" fill-opacity="1" /><path clip-path="url(#clip770)" d="M2327.01 324.929 L2327.01 323.453 Q2329.56 323.453 2330.15 323.149 Q2330.73 322.821 2330.73 321.275 L2330.73 308.416 Q2330.73 306.636 2330.1 306.191 Q2329.49 305.746 2327.01 305.746 L2327.01 304.247 L2333.75 303.732 L2333.75 308.768 Q2336 303.732 2340.85 303.732 Q2344.46 303.732 2345.89 305.512 Q2346.94 306.706 2347.15 308.041 Q2347.38 309.377 2347.38 312.843 L2347.38 322.001 Q2347.43 323.008 2348.2 323.243 Q2348.98 323.453 2351.13 323.453 L2351.13 324.929 Q2346.24 324.788 2345.74 324.788 Q2345.37 324.788 2340.33 324.929 L2340.33 323.453 Q2342.89 323.453 2343.47 323.149 Q2344.08 322.821 2344.08 321.275 L2344.08 310.103 Q2344.08 307.667 2343.33 306.238 Q2342.58 304.786 2340.52 304.786 Q2338.04 304.786 2336.05 306.87 Q2334.06 308.955 2334.06 312.468 L2334.06 321.275 Q2334.06 322.821 2334.64 323.149 Q2335.25 323.453 2337.78 323.453 L2337.78 324.929 Q2332.89 324.788 2332.42 324.788 Q2332.04 324.788 2327.01 324.929 Z" fill="#000000" fill-rule="evenodd" fill-opacity="1" /><path clip-path="url(#clip770)" d="M2353.36 312.937 Q2353.36 304.833 2356.38 298.298 Q2357.67 295.557 2359.47 293.262 Q2361.28 290.966 2362.47 289.959 Q2363.67 288.952 2364 288.952 Q2364.46 288.952 2364.49 289.421 Q2364.49 289.655 2363.85 290.24 Q2356.13 298.11 2356.15 312.937 Q2356.15 327.81 2363.67 335.375 Q2364.49 336.195 2364.49 336.453 Q2364.49 336.921 2364 336.921 Q2363.67 336.921 2362.52 335.961 Q2361.37 335.001 2359.59 332.799 Q2357.81 330.597 2356.52 327.904 Q2353.36 321.369 2353.36 312.937 Z" fill="#000000" fill-rule="evenodd" fill-opacity="1" /><path clip-path="url(#clip770)" d="M2369.09 324.929 Q2369.09 324.062 2369.16 323.805 Q2369.26 323.547 2369.63 323.149 L2378.84 312.89 Q2383.87 307.222 2383.87 302.28 Q2383.87 299.071 2382.19 296.775 Q2380.52 294.48 2377.46 294.48 Q2375.35 294.48 2373.57 295.768 Q2371.79 297.056 2370.97 299.352 Q2371.11 299.305 2371.6 299.305 Q2372.79 299.305 2373.45 300.054 Q2374.13 300.804 2374.13 301.811 Q2374.13 303.099 2373.29 303.732 Q2372.47 304.341 2371.65 304.341 Q2371.32 304.341 2370.87 304.27 Q2370.45 304.2 2369.77 303.544 Q2369.09 302.865 2369.09 301.671 Q2369.09 298.321 2371.62 295.651 Q2374.18 292.981 2378.06 292.981 Q2382.47 292.981 2385.35 295.604 Q2388.25 298.204 2388.25 302.28 Q2388.25 303.708 2387.81 305.02 Q2387.39 306.308 2386.8 307.315 Q2386.24 308.323 2384.69 309.939 Q2383.15 311.555 2381.91 312.703 Q2380.66 313.85 2377.88 316.286 L2372.79 321.228 L2381.44 321.228 Q2385.65 321.228 2385.98 320.854 Q2386.45 320.174 2387.04 316.591 L2388.25 316.591 L2386.89 324.929 L2369.09 324.929 Z" fill="#000000" fill-rule="evenodd" fill-opacity="1" /><path clip-path="url(#clip770)" d="M2415.97 306.894 Q2415.97 308.205 2415.15 308.955 Q2414.33 309.681 2413.4 309.681 Q2412.51 309.681 2412.04 309.166 Q2411.57 308.65 2411.57 307.995 Q2411.57 307.105 2412.23 306.332 Q2412.88 305.559 2413.86 305.395 Q2412.9 304.786 2411.48 304.786 Q2410.54 304.786 2409.72 305.278 Q2408.92 305.769 2408.43 306.402 Q2407.96 307.034 2407.54 307.948 Q2407.14 308.838 2406.98 309.377 Q2406.84 309.892 2406.72 310.454 L2405.08 317.012 Q2404.29 320.127 2404.29 321.228 Q2404.29 322.587 2404.94 323.5 Q2405.6 324.39 2406.91 324.39 Q2407.42 324.39 2408.01 324.25 Q2408.59 324.086 2409.34 323.664 Q2410.12 323.219 2410.8 322.563 Q2411.5 321.884 2412.18 320.736 Q2412.86 319.589 2413.3 318.113 Q2413.44 317.598 2413.91 317.598 Q2414.5 317.598 2414.5 318.066 Q2414.5 318.464 2414.17 319.308 Q2413.86 320.127 2413.19 321.205 Q2412.53 322.259 2411.66 323.219 Q2410.8 324.156 2409.51 324.812 Q2408.22 325.468 2406.81 325.468 Q2404.8 325.468 2403.47 324.39 Q2402.13 323.313 2401.64 321.814 Q2401.52 322.025 2401.36 322.306 Q2401.19 322.587 2400.7 323.219 Q2400.23 323.828 2399.69 324.297 Q2399.16 324.742 2398.31 325.093 Q2397.49 325.468 2396.6 325.468 Q2395.48 325.468 2394.47 325.14 Q2393.49 324.812 2392.78 324.062 Q2392.08 323.313 2392.08 322.282 Q2392.08 321.135 2392.85 320.338 Q2393.65 319.518 2394.73 319.518 Q2395.41 319.518 2395.95 319.917 Q2396.51 320.315 2396.51 321.181 Q2396.51 322.142 2395.85 322.868 Q2395.2 323.594 2394.26 323.781 Q2395.22 324.39 2396.65 324.39 Q2398.2 324.39 2399.41 323.032 Q2400.63 321.673 2401.22 319.401 Q2402.67 313.944 2403.23 311.508 Q2403.79 309.049 2403.79 307.995 Q2403.79 307.011 2403.54 306.332 Q2403.28 305.652 2402.83 305.348 Q2402.41 305.02 2402.01 304.903 Q2401.64 304.786 2401.22 304.786 Q2400.51 304.786 2399.72 305.067 Q2398.94 305.348 2398.01 306.004 Q2397.09 306.636 2396.23 307.948 Q2395.36 309.259 2394.78 311.063 Q2394.66 311.602 2394.14 311.602 Q2393.58 311.578 2393.58 311.11 Q2393.58 310.712 2393.89 309.892 Q2394.21 309.049 2394.87 307.995 Q2395.55 306.941 2396.42 306.004 Q2397.31 305.043 2398.59 304.388 Q2399.91 303.732 2401.31 303.732 Q2401.94 303.732 2402.55 303.872 Q2403.18 303.989 2403.93 304.341 Q2404.71 304.692 2405.39 305.465 Q2406.07 306.238 2406.49 307.362 Q2406.77 306.823 2407.14 306.308 Q2407.54 305.793 2408.15 305.16 Q2408.78 304.505 2409.65 304.13 Q2410.54 303.732 2411.52 303.732 Q2412.48 303.732 2413.42 303.989 Q2414.36 304.224 2415.15 304.997 Q2415.97 305.746 2415.97 306.894 Z" fill="#000000" fill-rule="evenodd" fill-opacity="1" /><path clip-path="url(#clip770)" d="M2420.59 336.453 Q2420.59 336.219 2421.2 335.633 Q2428.93 327.763 2428.93 312.937 Q2428.93 298.063 2421.51 290.545 Q2420.59 289.678 2420.59 289.421 Q2420.59 288.952 2421.06 288.952 Q2421.39 288.952 2422.54 289.912 Q2423.71 290.873 2425.46 293.074 Q2427.24 295.276 2428.56 297.97 Q2431.72 304.505 2431.72 312.937 Q2431.72 321.041 2428.7 327.576 Q2427.41 330.316 2425.6 332.612 Q2423.8 334.907 2422.61 335.914 Q2421.41 336.921 2421.06 336.921 Q2420.59 336.921 2420.59 336.453 Z" fill="#000000" fill-rule="evenodd" fill-opacity="1" /><polyline clip-path="url(#clip770)" style="stroke:#ac8d18; stroke-linecap:round; stroke-linejoin:round; stroke-width:4; stroke-opacity:1; fill:none" points="
  2094.67,364.895 2260.7,364.895 
  "/>
<path clip-path="url(#clip770)" d="M2288.37 376.769 Q2288.37 375.902 2288.44 375.645 Q2288.54 375.387 2288.91 374.989 L2298.12 364.73 Q2303.15 359.062 2303.15 354.12 Q2303.15 350.911 2301.46 348.615 Q2299.8 346.32 2296.73 346.32 Q2294.63 346.32 2292.85 347.608 Q2291.07 348.896 2290.25 351.192 Q2290.39 351.145 2290.88 351.145 Q2292.07 351.145 2292.73 351.894 Q2293.41 352.644 2293.41 353.651 Q2293.41 354.939 2292.56 355.572 Q2291.74 356.181 2290.92 356.181 Q2290.6 356.181 2290.15 356.11 Q2289.73 356.04 2289.05 355.384 Q2288.37 354.705 2288.37 353.511 Q2288.37 350.161 2290.9 347.491 Q2293.45 344.821 2297.34 344.821 Q2301.75 344.821 2304.63 347.444 Q2307.53 350.044 2307.53 354.12 Q2307.53 355.548 2307.09 356.86 Q2306.66 358.148 2306.08 359.155 Q2305.52 360.163 2303.97 361.779 Q2302.43 363.395 2301.18 364.543 Q2299.94 365.69 2297.16 368.126 L2292.07 373.068 L2300.72 373.068 Q2304.93 373.068 2305.26 372.694 Q2305.73 372.014 2306.31 368.431 L2307.53 368.431 L2306.17 376.769 L2288.37 376.769 Z" fill="#000000" fill-rule="evenodd" fill-opacity="1" /><path clip-path="url(#clip770)" d="M2312.13 376.137 L2312.13 369.813 Q2312.13 369.274 2312.15 369.086 Q2312.17 368.899 2312.32 368.759 Q2312.46 368.618 2312.74 368.618 Q2313.06 368.618 2313.18 368.759 Q2313.32 368.899 2313.42 369.438 Q2314.14 372.74 2315.69 374.497 Q2317.26 376.23 2320.09 376.23 Q2322.79 376.23 2324.14 375.036 Q2325.5 373.841 2325.5 371.874 Q2325.5 368.36 2320.51 367.47 Q2317.63 366.885 2316.44 366.51 Q2315.24 366.112 2314.19 365.245 Q2312.13 363.559 2312.13 361.17 Q2312.13 358.781 2313.93 357.024 Q2315.76 355.267 2319.79 355.267 Q2322.48 355.267 2324.31 356.626 Q2324.85 356.204 2325.13 355.853 Q2325.76 355.267 2326.09 355.267 Q2326.46 355.267 2326.53 355.525 Q2326.6 355.759 2326.6 356.438 L2326.6 361.263 Q2326.6 361.802 2326.58 361.989 Q2326.56 362.177 2326.42 362.317 Q2326.28 362.434 2325.97 362.434 Q2325.43 362.434 2325.41 361.989 Q2325.03 356.181 2319.79 356.181 Q2316.95 356.181 2315.69 357.282 Q2314.42 358.359 2314.42 359.835 Q2314.42 360.654 2314.8 361.287 Q2315.2 361.896 2315.69 362.271 Q2316.2 362.622 2317.14 362.973 Q2318.08 363.301 2318.64 363.418 Q2319.22 363.535 2320.33 363.77 Q2324.17 364.496 2325.78 366.065 Q2327.8 368.079 2327.8 370.632 Q2327.8 373.466 2325.88 375.387 Q2323.96 377.308 2320.09 377.308 Q2316.98 377.308 2314.8 375.223 Q2314.52 375.504 2314.31 375.762 Q2314.1 375.996 2314 376.09 Q2313.93 376.183 2313.91 376.254 Q2313.88 376.301 2313.84 376.347 Q2312.88 377.308 2312.64 377.308 Q2312.27 377.308 2312.2 377.05 Q2312.13 376.816 2312.13 376.137 Z" fill="#000000" fill-rule="evenodd" fill-opacity="1" /><path clip-path="url(#clip770)" d="M2330.63 366.205 Q2330.63 361.685 2333.54 358.476 Q2336.44 355.267 2340.61 355.267 Q2344.83 355.267 2347.01 358.008 Q2349.21 360.748 2349.21 364.683 Q2349.21 365.409 2349.02 365.55 Q2348.83 365.69 2348.01 365.69 L2334.62 365.69 Q2334.62 370.585 2336.07 372.881 Q2338.08 376.09 2341.48 376.09 Q2341.95 376.09 2342.51 375.996 Q2343.07 375.902 2344.22 375.504 Q2345.37 375.083 2346.37 373.982 Q2347.38 372.881 2347.97 371.148 Q2348.11 370.468 2348.58 370.492 Q2349.21 370.492 2349.21 371.054 Q2349.21 371.476 2348.74 372.436 Q2348.3 373.373 2347.43 374.497 Q2346.56 375.621 2344.88 376.465 Q2343.21 377.308 2341.2 377.308 Q2336.98 377.308 2333.8 374.122 Q2330.63 370.913 2330.63 366.205 M2334.66 364.683 L2346.05 364.683 Q2346.05 363.676 2345.86 362.552 Q2345.7 361.427 2345.18 359.881 Q2344.69 358.312 2343.52 357.328 Q2342.35 356.345 2340.61 356.345 Q2339.84 356.345 2339 356.673 Q2338.18 357 2337.17 357.797 Q2336.16 358.593 2335.46 360.397 Q2334.76 362.2 2334.66 364.683 Z" fill="#000000" fill-rule="evenodd" fill-opacity="1" /><path clip-path="url(#clip770)" d="M2350.76 376.769 L2350.76 375.293 Q2353.32 375.293 2353.9 374.989 Q2354.49 374.661 2354.49 373.115 L2354.49 360.256 Q2354.49 358.476 2353.85 358.031 Q2353.25 357.586 2350.76 357.586 L2350.76 356.087 L2357.51 355.572 L2357.51 360.608 Q2359.76 355.572 2364.61 355.572 Q2368.21 355.572 2369.64 357.352 Q2370.7 358.546 2370.91 359.881 Q2371.14 361.217 2371.14 364.683 L2371.14 373.841 Q2371.19 374.848 2371.96 375.083 Q2372.73 375.293 2374.89 375.293 L2374.89 376.769 Q2369.99 376.628 2369.5 376.628 Q2369.13 376.628 2364.09 376.769 L2364.09 375.293 Q2366.64 375.293 2367.23 374.989 Q2367.84 374.661 2367.84 373.115 L2367.84 361.943 Q2367.84 359.507 2367.09 358.078 Q2366.34 356.626 2364.28 356.626 Q2361.79 356.626 2359.8 358.71 Q2357.81 360.795 2357.81 364.308 L2357.81 373.115 Q2357.81 374.661 2358.4 374.989 Q2359.01 375.293 2361.54 375.293 L2361.54 376.769 Q2356.64 376.628 2356.17 376.628 Q2355.8 376.628 2350.76 376.769 Z" fill="#000000" fill-rule="evenodd" fill-opacity="1" /><path clip-path="url(#clip770)" d="M2377.12 364.777 Q2377.12 356.673 2380.14 350.138 Q2381.43 347.397 2383.23 345.102 Q2385.03 342.806 2386.23 341.799 Q2387.42 340.792 2387.75 340.792 Q2388.22 340.792 2388.24 341.261 Q2388.24 341.495 2387.61 342.08 Q2379.88 349.95 2379.9 364.777 Q2379.9 379.65 2387.42 387.215 Q2388.24 388.035 2388.24 388.293 Q2388.24 388.761 2387.75 388.761 Q2387.42 388.761 2386.28 387.801 Q2385.13 386.841 2383.35 384.639 Q2381.57 382.437 2380.28 379.744 Q2377.12 373.209 2377.12 364.777 Z" fill="#000000" fill-rule="evenodd" fill-opacity="1" /><path clip-path="url(#clip770)" d="M2415.78 358.734 Q2415.78 360.045 2414.96 360.795 Q2414.14 361.521 2413.2 361.521 Q2412.31 361.521 2411.85 361.006 Q2411.38 360.49 2411.38 359.835 Q2411.38 358.945 2412.03 358.172 Q2412.69 357.399 2413.67 357.235 Q2412.71 356.626 2411.28 356.626 Q2410.35 356.626 2409.53 357.118 Q2408.73 357.609 2408.24 358.242 Q2407.77 358.874 2407.35 359.788 Q2406.95 360.678 2406.79 361.217 Q2406.65 361.732 2406.53 362.294 L2404.89 368.852 Q2404.09 371.967 2404.09 373.068 Q2404.09 374.427 2404.75 375.34 Q2405.4 376.23 2406.72 376.23 Q2407.23 376.23 2407.82 376.09 Q2408.4 375.926 2409.15 375.504 Q2409.93 375.059 2410.6 374.403 Q2411.31 373.724 2411.99 372.576 Q2412.67 371.429 2413.11 369.953 Q2413.25 369.438 2413.72 369.438 Q2414.31 369.438 2414.31 369.906 Q2414.31 370.304 2413.98 371.148 Q2413.67 371.967 2412.99 373.045 Q2412.34 374.099 2411.47 375.059 Q2410.6 375.996 2409.32 376.652 Q2408.03 377.308 2406.62 377.308 Q2404.61 377.308 2403.27 376.23 Q2401.94 375.153 2401.45 373.654 Q2401.33 373.865 2401.17 374.146 Q2401 374.427 2400.51 375.059 Q2400.04 375.668 2399.5 376.137 Q2398.96 376.582 2398.12 376.933 Q2397.3 377.308 2396.41 377.308 Q2395.29 377.308 2394.28 376.98 Q2393.3 376.652 2392.59 375.902 Q2391.89 375.153 2391.89 374.122 Q2391.89 372.975 2392.66 372.178 Q2393.46 371.358 2394.54 371.358 Q2395.22 371.358 2395.75 371.757 Q2396.32 372.155 2396.32 373.021 Q2396.32 373.982 2395.66 374.708 Q2395.01 375.434 2394.07 375.621 Q2395.03 376.23 2396.46 376.23 Q2398 376.23 2399.22 374.872 Q2400.44 373.513 2401.02 371.241 Q2402.48 365.784 2403.04 363.348 Q2403.6 360.889 2403.6 359.835 Q2403.6 358.851 2403.34 358.172 Q2403.09 357.492 2402.64 357.188 Q2402.22 356.86 2401.82 356.743 Q2401.45 356.626 2401.02 356.626 Q2400.32 356.626 2399.53 356.907 Q2398.75 357.188 2397.82 357.844 Q2396.9 358.476 2396.04 359.788 Q2395.17 361.099 2394.58 362.903 Q2394.47 363.442 2393.95 363.442 Q2393.39 363.418 2393.39 362.95 Q2393.39 362.552 2393.69 361.732 Q2394.02 360.889 2394.68 359.835 Q2395.36 358.781 2396.22 357.844 Q2397.11 356.883 2398.4 356.228 Q2399.71 355.572 2401.12 355.572 Q2401.75 355.572 2402.36 355.712 Q2402.99 355.829 2403.74 356.181 Q2404.51 356.532 2405.19 357.305 Q2405.87 358.078 2406.29 359.202 Q2406.58 358.663 2406.95 358.148 Q2407.35 357.633 2407.96 357 Q2408.59 356.345 2409.46 355.97 Q2410.35 355.572 2411.33 355.572 Q2412.29 355.572 2413.23 355.829 Q2414.16 356.064 2414.96 356.837 Q2415.78 357.586 2415.78 358.734 Z" fill="#000000" fill-rule="evenodd" fill-opacity="1" /><path clip-path="url(#clip770)" d="M2420.4 388.293 Q2420.4 388.059 2421.01 387.473 Q2428.74 379.603 2428.74 364.777 Q2428.74 349.903 2421.31 342.385 Q2420.4 341.518 2420.4 341.261 Q2420.4 340.792 2420.87 340.792 Q2421.2 340.792 2422.34 341.752 Q2423.52 342.713 2425.27 344.914 Q2427.05 347.116 2428.36 349.81 Q2431.53 356.345 2431.53 364.777 Q2431.53 372.881 2428.5 379.416 Q2427.22 382.156 2425.41 384.452 Q2423.61 386.747 2422.41 387.754 Q2421.22 388.761 2420.87 388.761 Q2420.4 388.761 2420.4 388.293 Z" fill="#000000" fill-rule="evenodd" fill-opacity="1" /></svg>
