<?xml version="1.0" encoding="utf-8"?>
<svg xmlns="http://www.w3.org/2000/svg" xmlns:xlink="http://www.w3.org/1999/xlink" width="672" height="480" viewBox="0 0 2688 1920">
<defs>
  <clipPath id="clip540">
    <rect x="0" y="0" width="2688" height="1920"/>
  </clipPath>
</defs>
<path clip-path="url(#clip540)" d="
M0 1920 L2688 1920 L2688 0 L0 0  Z
  " fill="#ffffff" fill-rule="evenodd" fill-opacity="1"/>
<defs>
  <clipPath id="clip541">
    <rect x="537" y="0" width="1883" height="1883"/>
  </clipPath>
</defs>
<path clip-path="url(#clip540)" d="
M238.664 1734.12 L2640.76 1734.12 L2640.76 127.792 L238.664 127.792  Z
  " fill="#ffffff" fill-rule="evenodd" fill-opacity="1"/>
<defs>
  <clipPath id="clip542">
    <rect x="238" y="127" width="2403" height="1607"/>
  </clipPath>
</defs>
<polyline clip-path="url(#clip542)" style="stroke:#000000; stroke-linecap:round; stroke-linejoin:round; stroke-width:2; stroke-opacity:0.1; fill:none" points="
  306.647,1734.12 306.647,127.792 
  "/>
<polyline clip-path="url(#clip542)" style="stroke:#000000; stroke-linecap:round; stroke-linejoin:round; stroke-width:2; stroke-opacity:0.1; fill:none" points="
  954.112,1734.12 954.112,127.792 
  "/>
<polyline clip-path="url(#clip542)" style="stroke:#000000; stroke-linecap:round; stroke-linejoin:round; stroke-width:2; stroke-opacity:0.1; fill:none" points="
  1601.58,1734.12 1601.58,127.792 
  "/>
<polyline clip-path="url(#clip542)" style="stroke:#000000; stroke-linecap:round; stroke-linejoin:round; stroke-width:2; stroke-opacity:0.1; fill:none" points="
  2249.04,1734.12 2249.04,127.792 
  "/>
<polyline clip-path="url(#clip540)" style="stroke:#000000; stroke-linecap:round; stroke-linejoin:round; stroke-width:4; stroke-opacity:1; fill:none" points="
  238.664,1734.12 2640.76,1734.12 
  "/>
<polyline clip-path="url(#clip540)" style="stroke:#000000; stroke-linecap:round; stroke-linejoin:round; stroke-width:4; stroke-opacity:1; fill:none" points="
  306.647,1734.12 306.647,1715.22 
  "/>
<polyline clip-path="url(#clip540)" style="stroke:#000000; stroke-linecap:round; stroke-linejoin:round; stroke-width:4; stroke-opacity:1; fill:none" points="
  954.112,1734.12 954.112,1715.22 
  "/>
<polyline clip-path="url(#clip540)" style="stroke:#000000; stroke-linecap:round; stroke-linejoin:round; stroke-width:4; stroke-opacity:1; fill:none" points="
  1601.58,1734.12 1601.58,1715.22 
  "/>
<polyline clip-path="url(#clip540)" style="stroke:#000000; stroke-linecap:round; stroke-linejoin:round; stroke-width:4; stroke-opacity:1; fill:none" points="
  2249.04,1734.12 2249.04,1715.22 
  "/>
<path clip-path="url(#clip540)" d="M306.647 1767.34 Q303.036 1767.34 301.208 1770.9 Q299.402 1774.45 299.402 1781.58 Q299.402 1788.68 301.208 1792.25 Q303.036 1795.79 306.647 1795.79 Q310.282 1795.79 312.087 1792.25 Q313.916 1788.68 313.916 1781.58 Q313.916 1774.45 312.087 1770.9 Q310.282 1767.34 306.647 1767.34 M306.647 1763.64 Q312.458 1763.64 315.513 1768.24 Q318.592 1772.83 318.592 1781.58 Q318.592 1790.3 315.513 1794.91 Q312.458 1799.49 306.647 1799.49 Q300.837 1799.49 297.759 1794.91 Q294.703 1790.3 294.703 1781.58 Q294.703 1772.83 297.759 1768.24 Q300.837 1763.64 306.647 1763.64 Z" fill="#000000" fill-rule="evenodd" fill-opacity="1" /><path clip-path="url(#clip540)" d="M948.764 1794.89 L965.084 1794.89 L965.084 1798.82 L943.139 1798.82 L943.139 1794.89 Q945.801 1792.13 950.385 1787.5 Q954.991 1782.85 956.172 1781.51 Q958.417 1778.98 959.297 1777.25 Q960.2 1775.49 960.2 1773.8 Q960.2 1771.04 958.255 1769.31 Q956.334 1767.57 953.232 1767.57 Q951.033 1767.57 948.579 1768.34 Q946.149 1769.1 943.371 1770.65 L943.371 1765.93 Q946.195 1764.79 948.649 1764.21 Q951.102 1763.64 953.139 1763.64 Q958.51 1763.64 961.704 1766.32 Q964.899 1769.01 964.899 1773.5 Q964.899 1775.63 964.088 1777.55 Q963.301 1779.45 961.195 1782.04 Q960.616 1782.71 957.514 1785.93 Q954.413 1789.12 948.764 1794.89 Z" fill="#000000" fill-rule="evenodd" fill-opacity="1" /><path clip-path="url(#clip540)" d="M1604.59 1768.34 L1592.78 1786.78 L1604.59 1786.78 L1604.59 1768.34 M1603.36 1764.26 L1609.24 1764.26 L1609.24 1786.78 L1614.17 1786.78 L1614.17 1790.67 L1609.24 1790.67 L1609.24 1798.82 L1604.59 1798.82 L1604.59 1790.67 L1588.98 1790.67 L1588.98 1786.16 L1603.36 1764.26 Z" fill="#000000" fill-rule="evenodd" fill-opacity="1" /><path clip-path="url(#clip540)" d="M2249.45 1779.68 Q2246.3 1779.68 2244.45 1781.83 Q2242.62 1783.98 2242.62 1787.73 Q2242.62 1791.46 2244.45 1793.64 Q2246.3 1795.79 2249.45 1795.79 Q2252.59 1795.79 2254.42 1793.64 Q2256.27 1791.46 2256.27 1787.73 Q2256.27 1783.98 2254.42 1781.83 Q2252.59 1779.68 2249.45 1779.68 M2258.73 1765.02 L2258.73 1769.28 Q2256.97 1768.45 2255.16 1768.01 Q2253.38 1767.57 2251.62 1767.57 Q2246.99 1767.57 2244.54 1770.7 Q2242.11 1773.82 2241.76 1780.14 Q2243.13 1778.13 2245.19 1777.06 Q2247.25 1775.97 2249.72 1775.97 Q2254.93 1775.97 2257.94 1779.15 Q2260.97 1782.29 2260.97 1787.73 Q2260.97 1793.06 2257.82 1796.27 Q2254.68 1799.49 2249.45 1799.49 Q2243.45 1799.49 2240.28 1794.91 Q2237.11 1790.3 2237.11 1781.58 Q2237.11 1773.38 2241 1768.52 Q2244.88 1763.64 2251.44 1763.64 Q2253.2 1763.64 2254.98 1763.98 Q2256.78 1764.33 2258.73 1765.02 Z" fill="#000000" fill-rule="evenodd" fill-opacity="1" /><path clip-path="url(#clip540)" d="M1349.7 1835.78 L1356.13 1835.78 L1356.13 1855.26 L1379.49 1855.26 L1379.49 1835.78 L1385.92 1835.78 L1385.92 1883.3 L1379.49 1883.3 L1379.49 1860.67 L1356.13 1860.67 L1356.13 1883.3 L1349.7 1883.3 L1349.7 1835.78 Z" fill="#000000" fill-rule="evenodd" fill-opacity="1" /><path clip-path="url(#clip540)" d="M1412.27 1851.76 Q1407.56 1851.76 1404.83 1855.45 Q1402.09 1859.11 1402.09 1865.51 Q1402.09 1871.91 1404.79 1875.6 Q1407.53 1879.26 1412.27 1879.26 Q1416.95 1879.26 1419.69 1875.57 Q1422.43 1871.87 1422.43 1865.51 Q1422.43 1859.17 1419.69 1855.48 Q1416.95 1851.76 1412.27 1851.76 M1412.27 1846.79 Q1419.91 1846.79 1424.27 1851.76 Q1428.63 1856.72 1428.63 1865.51 Q1428.63 1874.26 1424.27 1879.26 Q1419.91 1884.22 1412.27 1884.22 Q1404.6 1884.22 1400.24 1879.26 Q1395.91 1874.26 1395.91 1865.51 Q1395.91 1856.72 1400.24 1851.76 Q1404.6 1846.79 1412.27 1846.79 Z" fill="#000000" fill-rule="evenodd" fill-opacity="1" /><path clip-path="url(#clip540)" d="M1459 1853.13 Q1458.01 1852.55 1456.83 1852.3 Q1455.69 1852.01 1454.29 1852.01 Q1449.32 1852.01 1446.65 1855.26 Q1444.01 1858.47 1444.01 1864.52 L1444.01 1883.3 L1438.12 1883.3 L1438.12 1847.65 L1444.01 1847.65 L1444.01 1853.19 Q1445.85 1849.94 1448.81 1848.39 Q1451.77 1846.79 1456.01 1846.79 Q1456.61 1846.79 1457.34 1846.89 Q1458.07 1846.95 1458.97 1847.11 L1459 1853.13 Z" fill="#000000" fill-rule="evenodd" fill-opacity="1" /><path clip-path="url(#clip540)" d="M1481.34 1865.38 Q1474.24 1865.38 1471.51 1867 Q1468.77 1868.63 1468.77 1872.54 Q1468.77 1875.66 1470.81 1877.51 Q1472.88 1879.32 1476.41 1879.32 Q1481.28 1879.32 1484.21 1875.88 Q1487.17 1872.42 1487.17 1866.69 L1487.17 1865.38 L1481.34 1865.38 M1493.02 1862.96 L1493.02 1883.3 L1487.17 1883.3 L1487.17 1877.89 Q1485.16 1881.14 1482.17 1882.7 Q1479.18 1884.22 1474.85 1884.22 Q1469.37 1884.22 1466.13 1881.17 Q1462.91 1878.08 1462.91 1872.92 Q1462.91 1866.91 1466.92 1863.85 Q1470.97 1860.8 1478.95 1860.8 L1487.17 1860.8 L1487.17 1860.23 Q1487.17 1856.18 1484.49 1853.99 Q1481.85 1851.76 1477.04 1851.76 Q1473.99 1851.76 1471.09 1852.49 Q1468.2 1853.22 1465.52 1854.69 L1465.52 1849.28 Q1468.74 1848.03 1471.76 1847.43 Q1474.78 1846.79 1477.65 1846.79 Q1485.38 1846.79 1489.2 1850.8 Q1493.02 1854.81 1493.02 1862.96 Z" fill="#000000" fill-rule="evenodd" fill-opacity="1" /><path clip-path="url(#clip540)" d="M1527.81 1848.7 L1527.81 1854.24 Q1525.33 1852.97 1522.65 1852.33 Q1519.98 1851.7 1517.12 1851.7 Q1512.76 1851.7 1510.56 1853.03 Q1508.4 1854.37 1508.4 1857.04 Q1508.4 1859.08 1509.96 1860.26 Q1511.51 1861.4 1516.23 1862.45 L1518.23 1862.9 Q1524.47 1864.24 1527.08 1866.69 Q1529.72 1869.11 1529.72 1873.47 Q1529.72 1878.43 1525.77 1881.33 Q1521.86 1884.22 1514.98 1884.22 Q1512.12 1884.22 1509 1883.65 Q1505.91 1883.11 1502.48 1882 L1502.48 1875.95 Q1505.72 1877.64 1508.87 1878.49 Q1512.02 1879.32 1515.11 1879.32 Q1519.25 1879.32 1521.48 1877.92 Q1523.71 1876.49 1523.71 1873.91 Q1523.71 1871.52 1522.08 1870.25 Q1520.49 1868.98 1515.05 1867.8 L1513.01 1867.32 Q1507.57 1866.18 1505.15 1863.82 Q1502.73 1861.43 1502.73 1857.3 Q1502.73 1852.27 1506.3 1849.53 Q1509.86 1846.79 1516.42 1846.79 Q1519.66 1846.79 1522.53 1847.27 Q1525.39 1847.75 1527.81 1848.7 Z" fill="#000000" fill-rule="evenodd" fill-opacity="1" /><polyline clip-path="url(#clip542)" style="stroke:#000000; stroke-linecap:round; stroke-linejoin:round; stroke-width:2; stroke-opacity:0.1; fill:none" points="
  238.664,1700.59 2640.76,1700.59 
  "/>
<polyline clip-path="url(#clip542)" style="stroke:#000000; stroke-linecap:round; stroke-linejoin:round; stroke-width:2; stroke-opacity:0.1; fill:none" points="
  238.664,1461.94 2640.76,1461.94 
  "/>
<polyline clip-path="url(#clip542)" style="stroke:#000000; stroke-linecap:round; stroke-linejoin:round; stroke-width:2; stroke-opacity:0.1; fill:none" points="
  238.664,1223.3 2640.76,1223.3 
  "/>
<polyline clip-path="url(#clip542)" style="stroke:#000000; stroke-linecap:round; stroke-linejoin:round; stroke-width:2; stroke-opacity:0.1; fill:none" points="
  238.664,984.65 2640.76,984.65 
  "/>
<polyline clip-path="url(#clip542)" style="stroke:#000000; stroke-linecap:round; stroke-linejoin:round; stroke-width:2; stroke-opacity:0.1; fill:none" points="
  238.664,746.004 2640.76,746.004 
  "/>
<polyline clip-path="url(#clip542)" style="stroke:#000000; stroke-linecap:round; stroke-linejoin:round; stroke-width:2; stroke-opacity:0.1; fill:none" points="
  238.664,507.358 2640.76,507.358 
  "/>
<polyline clip-path="url(#clip542)" style="stroke:#000000; stroke-linecap:round; stroke-linejoin:round; stroke-width:2; stroke-opacity:0.1; fill:none" points="
  238.664,268.712 2640.76,268.712 
  "/>
<polyline clip-path="url(#clip540)" style="stroke:#000000; stroke-linecap:round; stroke-linejoin:round; stroke-width:4; stroke-opacity:1; fill:none" points="
  238.664,1734.12 238.664,127.792 
  "/>
<polyline clip-path="url(#clip540)" style="stroke:#000000; stroke-linecap:round; stroke-linejoin:round; stroke-width:4; stroke-opacity:1; fill:none" points="
  238.664,1700.59 257.561,1700.59 
  "/>
<polyline clip-path="url(#clip540)" style="stroke:#000000; stroke-linecap:round; stroke-linejoin:round; stroke-width:4; stroke-opacity:1; fill:none" points="
  238.664,1461.94 257.561,1461.94 
  "/>
<polyline clip-path="url(#clip540)" style="stroke:#000000; stroke-linecap:round; stroke-linejoin:round; stroke-width:4; stroke-opacity:1; fill:none" points="
  238.664,1223.3 257.561,1223.3 
  "/>
<polyline clip-path="url(#clip540)" style="stroke:#000000; stroke-linecap:round; stroke-linejoin:round; stroke-width:4; stroke-opacity:1; fill:none" points="
  238.664,984.65 257.561,984.65 
  "/>
<polyline clip-path="url(#clip540)" style="stroke:#000000; stroke-linecap:round; stroke-linejoin:round; stroke-width:4; stroke-opacity:1; fill:none" points="
  238.664,746.004 257.561,746.004 
  "/>
<polyline clip-path="url(#clip540)" style="stroke:#000000; stroke-linecap:round; stroke-linejoin:round; stroke-width:4; stroke-opacity:1; fill:none" points="
  238.664,507.358 257.561,507.358 
  "/>
<polyline clip-path="url(#clip540)" style="stroke:#000000; stroke-linecap:round; stroke-linejoin:round; stroke-width:4; stroke-opacity:1; fill:none" points="
  238.664,268.712 257.561,268.712 
  "/>
<path clip-path="url(#clip540)" d="M186.399 1686.39 Q182.788 1686.39 180.959 1689.95 Q179.154 1693.49 179.154 1700.62 Q179.154 1707.73 180.959 1711.29 Q182.788 1714.83 186.399 1714.83 Q190.033 1714.83 191.839 1711.29 Q193.668 1707.73 193.668 1700.62 Q193.668 1693.49 191.839 1689.95 Q190.033 1686.39 186.399 1686.39 M186.399 1682.68 Q192.209 1682.68 195.265 1687.29 Q198.344 1691.87 198.344 1700.62 Q198.344 1709.35 195.265 1713.96 Q192.209 1718.54 186.399 1718.54 Q180.589 1718.54 177.51 1713.96 Q174.455 1709.35 174.455 1700.62 Q174.455 1691.87 177.51 1687.29 Q180.589 1682.68 186.399 1682.68 Z" fill="#000000" fill-rule="evenodd" fill-opacity="1" /><path clip-path="url(#clip540)" d="M150.265 1475.29 L166.585 1475.29 L166.585 1479.22 L144.64 1479.22 L144.64 1475.29 Q147.302 1472.53 151.886 1467.9 Q156.492 1463.25 157.673 1461.91 Q159.918 1459.38 160.798 1457.65 Q161.7 1455.89 161.7 1454.2 Q161.7 1451.44 159.756 1449.71 Q157.835 1447.97 154.733 1447.97 Q152.534 1447.97 150.08 1448.74 Q147.649 1449.5 144.872 1451.05 L144.872 1446.33 Q147.696 1445.19 150.149 1444.62 Q152.603 1444.04 154.64 1444.04 Q160.011 1444.04 163.205 1446.72 Q166.399 1449.41 166.399 1453.9 Q166.399 1456.03 165.589 1457.95 Q164.802 1459.85 162.696 1462.44 Q162.117 1463.11 159.015 1466.33 Q155.913 1469.52 150.265 1475.29 Z" fill="#000000" fill-rule="evenodd" fill-opacity="1" /><path clip-path="url(#clip540)" d="M186.399 1447.74 Q182.788 1447.74 180.959 1451.3 Q179.154 1454.85 179.154 1461.98 Q179.154 1469.08 180.959 1472.65 Q182.788 1476.19 186.399 1476.19 Q190.033 1476.19 191.839 1472.65 Q193.668 1469.08 193.668 1461.98 Q193.668 1454.85 191.839 1451.3 Q190.033 1447.74 186.399 1447.74 M186.399 1444.04 Q192.209 1444.04 195.265 1448.64 Q198.344 1453.23 198.344 1461.98 Q198.344 1470.7 195.265 1475.31 Q192.209 1479.89 186.399 1479.89 Q180.589 1479.89 177.51 1475.31 Q174.455 1470.7 174.455 1461.98 Q174.455 1453.23 177.51 1448.64 Q180.589 1444.04 186.399 1444.04 Z" fill="#000000" fill-rule="evenodd" fill-opacity="1" /><path clip-path="url(#clip540)" d="M159.085 1210.09 L147.279 1228.54 L159.085 1228.54 L159.085 1210.09 M157.858 1206.02 L163.737 1206.02 L163.737 1228.54 L168.668 1228.54 L168.668 1232.43 L163.737 1232.43 L163.737 1240.58 L159.085 1240.58 L159.085 1232.43 L143.483 1232.43 L143.483 1227.91 L157.858 1206.02 Z" fill="#000000" fill-rule="evenodd" fill-opacity="1" /><path clip-path="url(#clip540)" d="M186.399 1209.09 Q182.788 1209.09 180.959 1212.66 Q179.154 1216.2 179.154 1223.33 Q179.154 1230.44 180.959 1234 Q182.788 1237.54 186.399 1237.54 Q190.033 1237.54 191.839 1234 Q193.668 1230.44 193.668 1223.33 Q193.668 1216.2 191.839 1212.66 Q190.033 1209.09 186.399 1209.09 M186.399 1205.39 Q192.209 1205.39 195.265 1210 Q198.344 1214.58 198.344 1223.33 Q198.344 1232.06 195.265 1236.66 Q192.209 1241.25 186.399 1241.25 Q180.589 1241.25 177.51 1236.66 Q174.455 1232.06 174.455 1223.33 Q174.455 1214.58 177.51 1210 Q180.589 1205.39 186.399 1205.39 Z" fill="#000000" fill-rule="evenodd" fill-opacity="1" /><path clip-path="url(#clip540)" d="M156.816 982.786 Q153.668 982.786 151.816 984.939 Q149.987 987.092 149.987 990.842 Q149.987 994.569 151.816 996.745 Q153.668 998.897 156.816 998.897 Q159.964 998.897 161.793 996.745 Q163.645 994.569 163.645 990.842 Q163.645 987.092 161.793 984.939 Q159.964 982.786 156.816 982.786 M166.098 968.134 L166.098 972.393 Q164.339 971.56 162.534 971.12 Q160.751 970.68 158.992 970.68 Q154.362 970.68 151.909 973.805 Q149.478 976.93 149.131 983.249 Q150.497 981.236 152.557 980.171 Q154.617 979.083 157.094 979.083 Q162.302 979.083 165.311 982.254 Q168.344 985.402 168.344 990.842 Q168.344 996.166 165.196 999.384 Q162.048 1002.6 156.816 1002.6 Q150.821 1002.6 147.649 998.018 Q144.478 993.411 144.478 984.685 Q144.478 976.49 148.367 971.629 Q152.256 966.745 158.807 966.745 Q160.566 966.745 162.348 967.092 Q164.154 967.439 166.098 968.134 Z" fill="#000000" fill-rule="evenodd" fill-opacity="1" /><path clip-path="url(#clip540)" d="M186.399 970.449 Q182.788 970.449 180.959 974.013 Q179.154 977.555 179.154 984.685 Q179.154 991.791 180.959 995.356 Q182.788 998.897 186.399 998.897 Q190.033 998.897 191.839 995.356 Q193.668 991.791 193.668 984.685 Q193.668 977.555 191.839 974.013 Q190.033 970.449 186.399 970.449 M186.399 966.745 Q192.209 966.745 195.265 971.351 Q198.344 975.935 198.344 984.685 Q198.344 993.411 195.265 998.018 Q192.209 1002.6 186.399 1002.6 Q180.589 1002.6 177.51 998.018 Q174.455 993.411 174.455 984.685 Q174.455 975.935 177.51 971.351 Q180.589 966.745 186.399 966.745 Z" fill="#000000" fill-rule="evenodd" fill-opacity="1" /><path clip-path="url(#clip540)" d="M156.237 746.872 Q152.904 746.872 150.983 748.655 Q149.085 750.437 149.085 753.562 Q149.085 756.687 150.983 758.469 Q152.904 760.252 156.237 760.252 Q159.571 760.252 161.492 758.469 Q163.413 756.664 163.413 753.562 Q163.413 750.437 161.492 748.655 Q159.594 746.872 156.237 746.872 M151.561 744.881 Q148.552 744.141 146.862 742.08 Q145.196 740.02 145.196 737.057 Q145.196 732.914 148.136 730.506 Q151.099 728.099 156.237 728.099 Q161.399 728.099 164.339 730.506 Q167.279 732.914 167.279 737.057 Q167.279 740.02 165.589 742.08 Q163.923 744.141 160.936 744.881 Q164.316 745.668 166.191 747.96 Q168.089 750.252 168.089 753.562 Q168.089 758.585 165.01 761.27 Q161.955 763.955 156.237 763.955 Q150.52 763.955 147.441 761.27 Q144.386 758.585 144.386 753.562 Q144.386 750.252 146.284 747.96 Q148.182 745.668 151.561 744.881 M149.849 737.497 Q149.849 740.182 151.515 741.687 Q153.205 743.192 156.237 743.192 Q159.247 743.192 160.936 741.687 Q162.649 740.182 162.649 737.497 Q162.649 734.812 160.936 733.307 Q159.247 731.803 156.237 731.803 Q153.205 731.803 151.515 733.307 Q149.849 734.812 149.849 737.497 Z" fill="#000000" fill-rule="evenodd" fill-opacity="1" /><path clip-path="url(#clip540)" d="M186.399 731.803 Q182.788 731.803 180.959 735.368 Q179.154 738.909 179.154 746.039 Q179.154 753.145 180.959 756.71 Q182.788 760.252 186.399 760.252 Q190.033 760.252 191.839 756.71 Q193.668 753.145 193.668 746.039 Q193.668 738.909 191.839 735.368 Q190.033 731.803 186.399 731.803 M186.399 728.099 Q192.209 728.099 195.265 732.706 Q198.344 737.289 198.344 746.039 Q198.344 754.766 195.265 759.372 Q192.209 763.955 186.399 763.955 Q180.589 763.955 177.51 759.372 Q174.455 754.766 174.455 746.039 Q174.455 737.289 177.51 732.706 Q180.589 728.099 186.399 728.099 Z" fill="#000000" fill-rule="evenodd" fill-opacity="1" /><path clip-path="url(#clip540)" d="M116.886 520.703 L124.525 520.703 L124.525 494.338 L116.214 496.004 L116.214 491.745 L124.478 490.078 L129.154 490.078 L129.154 520.703 L136.793 520.703 L136.793 524.638 L116.886 524.638 L116.886 520.703 Z" fill="#000000" fill-rule="evenodd" fill-opacity="1" /><path clip-path="url(#clip540)" d="M156.237 493.157 Q152.626 493.157 150.798 496.722 Q148.992 500.263 148.992 507.393 Q148.992 514.499 150.798 518.064 Q152.626 521.606 156.237 521.606 Q159.872 521.606 161.677 518.064 Q163.506 514.499 163.506 507.393 Q163.506 500.263 161.677 496.722 Q159.872 493.157 156.237 493.157 M156.237 489.453 Q162.048 489.453 165.103 494.06 Q168.182 498.643 168.182 507.393 Q168.182 516.12 165.103 520.726 Q162.048 525.31 156.237 525.31 Q150.427 525.31 147.349 520.726 Q144.293 516.12 144.293 507.393 Q144.293 498.643 147.349 494.06 Q150.427 489.453 156.237 489.453 Z" fill="#000000" fill-rule="evenodd" fill-opacity="1" /><path clip-path="url(#clip540)" d="M186.399 493.157 Q182.788 493.157 180.959 496.722 Q179.154 500.263 179.154 507.393 Q179.154 514.499 180.959 518.064 Q182.788 521.606 186.399 521.606 Q190.033 521.606 191.839 518.064 Q193.668 514.499 193.668 507.393 Q193.668 500.263 191.839 496.722 Q190.033 493.157 186.399 493.157 M186.399 489.453 Q192.209 489.453 195.265 494.06 Q198.344 498.643 198.344 507.393 Q198.344 516.12 195.265 520.726 Q192.209 525.31 186.399 525.31 Q180.589 525.31 177.51 520.726 Q174.455 516.12 174.455 507.393 Q174.455 498.643 177.51 494.06 Q180.589 489.453 186.399 489.453 Z" fill="#000000" fill-rule="evenodd" fill-opacity="1" /><path clip-path="url(#clip540)" d="M116.886 282.057 L124.525 282.057 L124.525 255.692 L116.214 257.358 L116.214 253.099 L124.478 251.432 L129.154 251.432 L129.154 282.057 L136.793 282.057 L136.793 285.992 L116.886 285.992 L116.886 282.057 Z" fill="#000000" fill-rule="evenodd" fill-opacity="1" /><path clip-path="url(#clip540)" d="M150.265 282.057 L166.585 282.057 L166.585 285.992 L144.64 285.992 L144.64 282.057 Q147.302 279.303 151.886 274.673 Q156.492 270.02 157.673 268.678 Q159.918 266.155 160.798 264.419 Q161.7 262.659 161.7 260.969 Q161.7 258.215 159.756 256.479 Q157.835 254.743 154.733 254.743 Q152.534 254.743 150.08 255.507 Q147.649 256.27 144.872 257.821 L144.872 253.099 Q147.696 251.965 150.149 251.386 Q152.603 250.807 154.64 250.807 Q160.011 250.807 163.205 253.493 Q166.399 256.178 166.399 260.669 Q166.399 262.798 165.589 264.719 Q164.802 266.618 162.696 269.21 Q162.117 269.881 159.015 273.099 Q155.913 276.293 150.265 282.057 Z" fill="#000000" fill-rule="evenodd" fill-opacity="1" /><path clip-path="url(#clip540)" d="M186.399 254.511 Q182.788 254.511 180.959 258.076 Q179.154 261.618 179.154 268.747 Q179.154 275.854 180.959 279.418 Q182.788 282.96 186.399 282.96 Q190.033 282.96 191.839 279.418 Q193.668 275.854 193.668 268.747 Q193.668 261.618 191.839 258.076 Q190.033 254.511 186.399 254.511 M186.399 250.807 Q192.209 250.807 195.265 255.414 Q198.344 259.997 198.344 268.747 Q198.344 277.474 195.265 282.08 Q192.209 286.664 186.399 286.664 Q180.589 286.664 177.51 282.08 Q174.455 277.474 174.455 268.747 Q174.455 259.997 177.51 255.414 Q180.589 250.807 186.399 250.807 Z" fill="#000000" fill-rule="evenodd" fill-opacity="1" /><path clip-path="url(#clip540)" d="M38.9447 1072.23 L56.3549 1072.23 L56.3549 1061.91 Q56.3549 1056.73 54.2224 1054.24 Q52.0581 1051.73 47.6339 1051.73 Q43.1779 1051.73 41.0772 1054.24 Q38.9447 1056.73 38.9447 1061.91 L38.9447 1072.23 M19.402 1072.23 L33.7248 1072.23 L33.7248 1062.71 Q33.7248 1058 31.9743 1055.71 Q30.1919 1053.38 26.5634 1053.38 Q22.9668 1053.38 21.1844 1055.71 Q19.402 1058 19.402 1062.71 L19.402 1072.23 M14.1184 1078.65 L14.1184 1062.23 Q14.1184 1054.88 17.174 1050.9 Q20.2295 1046.92 25.8632 1046.92 Q30.2237 1046.92 32.8018 1048.96 Q35.3799 1051 36.0165 1054.94 Q37.035 1050.2 40.2815 1047.59 Q43.4962 1044.95 48.3341 1044.95 Q54.6998 1044.95 58.1691 1049.28 Q61.6384 1053.61 61.6384 1061.59 L61.6384 1078.65 L14.1184 1078.65 Z" fill="#000000" fill-rule="evenodd" fill-opacity="1" /><path clip-path="url(#clip540)" d="M43.719 1017.99 Q43.719 1025.09 45.3422 1027.82 Q46.9655 1030.56 50.8804 1030.56 Q53.9996 1030.56 55.8457 1028.52 Q57.6599 1026.46 57.6599 1022.92 Q57.6599 1018.05 54.2224 1015.13 Q50.7531 1012.17 45.0239 1012.17 L43.719 1012.17 L43.719 1017.99 M41.3 1006.31 L61.6384 1006.31 L61.6384 1012.17 L56.2276 1012.17 Q59.4741 1014.17 61.0337 1017.16 Q62.5615 1020.15 62.5615 1024.48 Q62.5615 1029.96 59.5059 1033.2 Q56.4186 1036.42 51.2623 1036.42 Q45.2467 1036.42 42.1912 1032.41 Q39.1357 1028.37 39.1357 1020.38 L39.1357 1012.17 L38.5628 1012.17 Q34.5205 1012.17 32.3244 1014.84 Q30.0964 1017.48 30.0964 1022.29 Q30.0964 1025.34 30.8284 1028.24 Q31.5605 1031.13 33.0246 1033.81 L27.6137 1033.81 Q26.3724 1030.59 25.7677 1027.57 Q25.1311 1024.55 25.1311 1021.68 Q25.1311 1013.95 29.1415 1010.13 Q33.1519 1006.31 41.3 1006.31 Z" fill="#000000" fill-rule="evenodd" fill-opacity="1" /><path clip-path="url(#clip540)" d="M27.3591 968.592 L32.8336 968.592 Q31.465 971.074 30.7966 973.589 Q30.0964 976.072 30.0964 978.618 Q30.0964 984.315 33.7248 987.466 Q37.3214 990.617 43.8463 990.617 Q50.3711 990.617 53.9996 987.466 Q57.5962 984.315 57.5962 978.618 Q57.5962 976.072 56.9278 973.589 Q56.2276 971.074 54.859 968.592 L60.2698 968.592 Q61.4156 971.043 61.9886 973.684 Q62.5615 976.294 62.5615 979.254 Q62.5615 987.307 57.5007 992.049 Q52.44 996.792 43.8463 996.792 Q35.1253 996.792 30.1282 992.018 Q25.1311 987.211 25.1311 978.872 Q25.1311 976.167 25.704 973.589 Q26.2451 971.011 27.3591 968.592 Z" fill="#000000" fill-rule="evenodd" fill-opacity="1" /><path clip-path="url(#clip540)" d="M15.869 952.614 L25.9905 952.614 L25.9905 940.551 L30.542 940.551 L30.542 952.614 L49.8937 952.614 Q54.2542 952.614 55.4955 951.436 Q56.7368 950.227 56.7368 946.566 L56.7368 940.551 L61.6384 940.551 L61.6384 946.566 Q61.6384 953.346 59.124 955.924 Q56.5777 958.502 49.8937 958.502 L30.542 958.502 L30.542 962.799 L25.9905 962.799 L25.9905 958.502 L15.869 958.502 L15.869 952.614 Z" fill="#000000" fill-rule="evenodd" fill-opacity="1" /><path clip-path="url(#clip540)" d="M42.3504 902.357 L45.2149 902.357 L45.2149 929.284 Q51.2623 928.902 54.4452 925.655 Q57.5962 922.377 57.5962 916.552 Q57.5962 913.178 56.7687 910.027 Q55.9411 906.844 54.2861 903.725 L59.8242 903.725 Q61.161 906.876 61.8612 910.186 Q62.5615 913.497 62.5615 916.902 Q62.5615 925.432 57.5962 930.429 Q52.631 935.395 44.1646 935.395 Q35.4117 935.395 30.2873 930.684 Q25.1311 925.942 25.1311 917.921 Q25.1311 910.728 29.7781 906.558 Q34.3932 902.357 42.3504 902.357 M40.6316 908.213 Q35.8255 908.277 32.9609 910.918 Q30.0964 913.528 30.0964 917.857 Q30.0964 922.759 32.8654 925.719 Q35.6345 928.647 40.6634 929.093 L40.6316 908.213 Z" fill="#000000" fill-rule="evenodd" fill-opacity="1" /><path clip-path="url(#clip540)" d="M31.465 872.088 Q30.8921 873.074 30.6375 874.252 Q30.351 875.398 30.351 876.798 Q30.351 881.764 33.5975 884.437 Q36.8122 887.079 42.8596 887.079 L61.6384 887.079 L61.6384 892.967 L25.9905 892.967 L25.9905 887.079 L31.5287 887.079 Q28.2821 885.233 26.7225 882.273 Q25.1311 879.313 25.1311 875.08 Q25.1311 874.475 25.2266 873.743 Q25.2903 873.011 25.4494 872.12 L31.465 872.088 Z" fill="#000000" fill-rule="evenodd" fill-opacity="1" /><path clip-path="url(#clip540)" d="M25.9905 865.945 L25.9905 860.088 L61.6384 860.088 L61.6384 865.945 L25.9905 865.945 M12.1132 865.945 L12.1132 860.088 L19.5293 860.088 L19.5293 865.945 L12.1132 865.945 Z" fill="#000000" fill-rule="evenodd" fill-opacity="1" /><path clip-path="url(#clip540)" d="M43.719 831.634 Q43.719 838.731 45.3422 841.469 Q46.9655 844.206 50.8804 844.206 Q53.9996 844.206 55.8457 842.169 Q57.6599 840.1 57.6599 836.567 Q57.6599 831.697 54.2224 828.769 Q50.7531 825.809 45.0239 825.809 L43.719 825.809 L43.719 831.634 M41.3 819.953 L61.6384 819.953 L61.6384 825.809 L56.2276 825.809 Q59.4741 827.814 61.0337 830.806 Q62.5615 833.798 62.5615 838.127 Q62.5615 843.601 59.5059 846.848 Q56.4186 850.062 51.2623 850.062 Q45.2467 850.062 42.1912 846.052 Q39.1357 842.01 39.1357 834.021 L39.1357 825.809 L38.5628 825.809 Q34.5205 825.809 32.3244 828.483 Q30.0964 831.124 30.0964 835.93 Q30.0964 838.986 30.8284 841.882 Q31.5605 844.779 33.0246 847.452 L27.6137 847.452 Q26.3724 844.238 25.7677 841.214 Q25.1311 838.19 25.1311 835.326 Q25.1311 827.591 29.1415 823.772 Q33.1519 819.953 41.3 819.953 Z" fill="#000000" fill-rule="evenodd" fill-opacity="1" /><path clip-path="url(#clip540)" d="M27.0408 785.164 L32.579 785.164 Q31.3059 787.647 30.6693 790.32 Q30.0327 792.994 30.0327 795.858 Q30.0327 800.219 31.3695 802.415 Q32.7063 804.579 35.3799 804.579 Q37.4169 804.579 38.5946 803.02 Q39.7404 801.46 40.7908 796.75 L41.2364 794.744 Q42.5732 788.506 45.0239 785.896 Q47.4429 783.254 51.8034 783.254 Q56.7687 783.254 59.6651 787.201 Q62.5615 791.116 62.5615 797.991 Q62.5615 800.855 61.9886 803.975 Q61.4475 807.062 60.3335 810.499 L54.2861 810.499 Q55.973 807.253 56.8323 804.102 Q57.6599 800.951 57.6599 797.864 Q57.6599 793.726 56.2594 791.498 Q54.8271 789.27 52.249 789.27 Q49.8619 789.27 48.5887 790.893 Q47.3156 792.485 46.1379 797.927 L45.6605 799.964 Q44.5147 805.407 42.1594 807.826 Q39.7722 810.245 35.6345 810.245 Q30.6056 810.245 27.8684 806.68 Q25.1311 803.115 25.1311 796.559 Q25.1311 793.312 25.6085 790.447 Q26.086 787.583 27.0408 785.164 Z" fill="#000000" fill-rule="evenodd" fill-opacity="1" /><path clip-path="url(#clip540)" d="M646.34 12.096 L684.581 12.096 L684.581 18.9825 L654.523 18.9825 L654.523 36.8875 L683.325 36.8875 L683.325 43.7741 L654.523 43.7741 L654.523 65.6895 L685.31 65.6895 L685.31 72.576 L646.34 72.576 L646.34 12.096 Z" fill="#000000" fill-rule="evenodd" fill-opacity="1" /><path clip-path="url(#clip540)" d="M693.088 27.2059 L700.987 27.2059 L715.165 65.2844 L729.343 27.2059 L737.242 27.2059 L720.229 72.576 L710.101 72.576 L693.088 27.2059 Z" fill="#000000" fill-rule="evenodd" fill-opacity="1" /><path clip-path="url(#clip540)" d="M765.113 32.4315 Q759.117 32.4315 755.634 37.1306 Q752.15 41.7891 752.15 49.9314 Q752.15 58.0738 755.593 62.7728 Q759.077 67.4314 765.113 67.4314 Q771.068 67.4314 774.551 62.7323 Q778.035 58.0333 778.035 49.9314 Q778.035 41.8701 774.551 37.1711 Q771.068 32.4315 765.113 32.4315 M765.113 26.1121 Q774.835 26.1121 780.385 32.4315 Q785.934 38.7509 785.934 49.9314 Q785.934 61.0714 780.385 67.4314 Q774.835 73.7508 765.113 73.7508 Q755.35 73.7508 749.8 67.4314 Q744.291 61.0714 744.291 49.9314 Q744.291 38.7509 749.8 32.4315 Q755.35 26.1121 765.113 26.1121 Z" fill="#000000" fill-rule="evenodd" fill-opacity="1" /><path clip-path="url(#clip540)" d="M798.29 9.54393 L805.743 9.54393 L805.743 72.576 L798.29 72.576 L798.29 9.54393 Z" fill="#000000" fill-rule="evenodd" fill-opacity="1" /><path clip-path="url(#clip540)" d="M820.57 54.671 L820.57 27.2059 L828.023 27.2059 L828.023 54.3874 Q828.023 60.8284 830.535 64.0691 Q833.046 67.2693 838.069 67.2693 Q844.105 67.2693 847.589 63.421 Q851.113 59.5726 851.113 52.9291 L851.113 27.2059 L858.567 27.2059 L858.567 72.576 L851.113 72.576 L851.113 65.6084 Q848.399 69.7404 844.794 71.7658 Q841.229 73.7508 836.49 73.7508 Q828.671 73.7508 824.62 68.8897 Q820.57 64.0286 820.57 54.671 M839.325 26.1121 L839.325 26.1121 Z" fill="#000000" fill-rule="evenodd" fill-opacity="1" /><path clip-path="url(#clip540)" d="M906.57 28.9478 L906.57 35.9153 Q903.411 34.1734 900.21 33.3227 Q897.051 32.4315 893.81 32.4315 Q886.559 32.4315 882.548 37.0496 Q878.538 41.6271 878.538 49.9314 Q878.538 58.2358 882.548 62.8538 Q886.559 67.4314 893.81 67.4314 Q897.051 67.4314 900.21 66.5807 Q903.411 65.6895 906.57 63.9476 L906.57 70.8341 Q903.451 72.2924 900.089 73.0216 Q896.767 73.7508 893 73.7508 Q882.751 73.7508 876.715 67.3098 Q870.679 60.8689 870.679 49.9314 Q870.679 38.832 876.756 32.472 Q882.872 26.1121 893.486 26.1121 Q896.929 26.1121 900.21 26.8413 Q903.492 27.5299 906.57 28.9478 Z" fill="#000000" fill-rule="evenodd" fill-opacity="1" /><path clip-path="url(#clip540)" d="M919.533 27.2059 L926.987 27.2059 L926.987 72.576 L919.533 72.576 L919.533 27.2059 M919.533 9.54393 L926.987 9.54393 L926.987 18.9825 L919.533 18.9825 L919.533 9.54393 Z" fill="#000000" fill-rule="evenodd" fill-opacity="1" /><path clip-path="url(#clip540)" d="M960.164 32.4315 Q954.168 32.4315 950.685 37.1306 Q947.201 41.7891 947.201 49.9314 Q947.201 58.0738 950.644 62.7728 Q954.128 67.4314 960.164 67.4314 Q966.119 67.4314 969.602 62.7323 Q973.086 58.0333 973.086 49.9314 Q973.086 41.8701 969.602 37.1711 Q966.119 32.4315 960.164 32.4315 M960.164 26.1121 Q969.886 26.1121 975.436 32.4315 Q980.985 38.7509 980.985 49.9314 Q980.985 61.0714 975.436 67.4314 Q969.886 73.7508 960.164 73.7508 Q950.401 73.7508 944.851 67.4314 Q939.342 61.0714 939.342 49.9314 Q939.342 38.7509 944.851 32.4315 Q950.401 26.1121 960.164 26.1121 M965.794 6.22219 L973.856 6.22219 L960.65 21.4536 L954.452 21.4536 L965.794 6.22219 Z" fill="#000000" fill-rule="evenodd" fill-opacity="1" /><path clip-path="url(#clip540)" d="M1031.05 45.1919 L1031.05 72.576 L1023.6 72.576 L1023.6 45.4349 Q1023.6 38.994 1021.09 35.7938 Q1018.58 32.5936 1013.55 32.5936 Q1007.52 32.5936 1004.04 36.4419 Q1000.55 40.2903 1000.55 46.9338 L1000.55 72.576 L993.057 72.576 L993.057 27.2059 L1000.55 27.2059 L1000.55 34.2544 Q1003.22 30.163 1006.83 28.1376 Q1010.48 26.1121 1015.22 26.1121 Q1023.03 26.1121 1027.04 30.9732 Q1031.05 35.7938 1031.05 45.1919 Z" fill="#000000" fill-rule="evenodd" fill-opacity="1" /><path clip-path="url(#clip540)" d="M1102.15 34.0924 L1102.15 9.54393 L1109.6 9.54393 L1109.6 72.576 L1102.15 72.576 L1102.15 65.7705 Q1099.8 69.8214 1096.19 71.8063 Q1092.63 73.7508 1087.61 73.7508 Q1079.38 73.7508 1074.2 67.1883 Q1069.05 60.6258 1069.05 49.9314 Q1069.05 39.2371 1074.2 32.6746 Q1079.38 26.1121 1087.61 26.1121 Q1092.63 26.1121 1096.19 28.0971 Q1099.8 30.0415 1102.15 34.0924 M1076.75 49.9314 Q1076.75 58.1548 1080.11 62.8538 Q1083.51 67.5124 1089.43 67.5124 Q1095.34 67.5124 1098.75 62.8538 Q1102.15 58.1548 1102.15 49.9314 Q1102.15 41.7081 1098.75 37.0496 Q1095.34 32.3505 1089.43 32.3505 Q1083.51 32.3505 1080.11 37.0496 Q1076.75 41.7081 1076.75 49.9314 Z" fill="#000000" fill-rule="evenodd" fill-opacity="1" /><path clip-path="url(#clip540)" d="M1163.76 48.0275 L1163.76 51.6733 L1129.49 51.6733 Q1129.98 59.3701 1134.11 63.421 Q1138.28 67.4314 1145.7 67.4314 Q1149.99 67.4314 1154 66.3781 Q1158.05 65.3249 1162.02 63.2184 L1162.02 70.267 Q1158.01 71.9684 1153.8 72.8596 Q1149.58 73.7508 1145.25 73.7508 Q1134.39 73.7508 1128.03 67.4314 Q1121.71 61.1119 1121.71 50.3365 Q1121.71 39.1965 1127.71 32.6746 Q1133.74 26.1121 1143.95 26.1121 Q1153.11 26.1121 1158.41 32.0264 Q1163.76 37.9003 1163.76 48.0275 M1156.31 45.84 Q1156.23 39.7232 1152.87 36.0774 Q1149.54 32.4315 1144.03 32.4315 Q1137.8 32.4315 1134.03 35.9558 Q1130.3 39.4801 1129.73 45.8805 L1156.31 45.84 Z" fill="#000000" fill-rule="evenodd" fill-opacity="1" /><path clip-path="url(#clip540)" d="M1202.37 9.54393 L1209.82 9.54393 L1209.82 72.576 L1202.37 72.576 L1202.37 9.54393 Z" fill="#000000" fill-rule="evenodd" fill-opacity="1" /><path clip-path="url(#clip540)" d="M1246.04 49.7694 Q1237 49.7694 1233.52 51.8354 Q1230.03 53.9013 1230.03 58.8839 Q1230.03 62.8538 1232.63 65.2034 Q1235.26 67.5124 1239.76 67.5124 Q1245.96 67.5124 1249.68 63.1374 Q1253.45 58.7219 1253.45 51.4303 L1253.45 49.7694 L1246.04 49.7694 M1260.9 46.6907 L1260.9 72.576 L1253.45 72.576 L1253.45 65.6895 Q1250.9 69.8214 1247.09 71.8063 Q1243.28 73.7508 1237.77 73.7508 Q1230.8 73.7508 1226.67 69.8619 Q1222.58 65.9325 1222.58 59.3701 Q1222.58 51.7138 1227.69 47.825 Q1232.83 43.9361 1243 43.9361 L1253.45 43.9361 L1253.45 43.2069 Q1253.45 38.0623 1250.05 35.2672 Q1246.68 32.4315 1240.57 32.4315 Q1236.68 32.4315 1232.99 33.3632 Q1229.31 34.295 1225.9 36.1584 L1225.9 29.2718 Q1229.99 27.692 1233.84 26.9223 Q1237.69 26.1121 1241.34 26.1121 Q1251.18 26.1121 1256.04 31.2163 Q1260.9 36.3204 1260.9 46.6907 Z" fill="#000000" fill-rule="evenodd" fill-opacity="1" /><path clip-path="url(#clip540)" d="M1309.84 65.7705 L1309.84 89.8329 L1302.34 89.8329 L1302.34 27.2059 L1309.84 27.2059 L1309.84 34.0924 Q1312.19 30.0415 1315.75 28.0971 Q1319.36 26.1121 1324.34 26.1121 Q1332.6 26.1121 1337.75 32.6746 Q1342.93 39.2371 1342.93 49.9314 Q1342.93 60.6258 1337.75 67.1883 Q1332.6 73.7508 1324.34 73.7508 Q1319.36 73.7508 1315.75 71.8063 Q1312.19 69.8214 1309.84 65.7705 M1335.2 49.9314 Q1335.2 41.7081 1331.79 37.0496 Q1328.43 32.3505 1322.52 32.3505 Q1316.6 32.3505 1313.2 37.0496 Q1309.84 41.7081 1309.84 49.9314 Q1309.84 58.1548 1313.2 62.8538 Q1316.6 67.5124 1322.52 67.5124 Q1328.43 67.5124 1331.79 62.8538 Q1335.2 58.1548 1335.2 49.9314 Z" fill="#000000" fill-rule="evenodd" fill-opacity="1" /><path clip-path="url(#clip540)" d="M1372.87 32.4315 Q1366.87 32.4315 1363.39 37.1306 Q1359.91 41.7891 1359.91 49.9314 Q1359.91 58.0738 1363.35 62.7728 Q1366.83 67.4314 1372.87 67.4314 Q1378.82 67.4314 1382.31 62.7323 Q1385.79 58.0333 1385.79 49.9314 Q1385.79 41.8701 1382.31 37.1711 Q1378.82 32.4315 1372.87 32.4315 M1372.87 26.1121 Q1382.59 26.1121 1388.14 32.4315 Q1393.69 38.7509 1393.69 49.9314 Q1393.69 61.0714 1388.14 67.4314 Q1382.59 73.7508 1372.87 73.7508 Q1363.11 73.7508 1357.56 67.4314 Q1352.05 61.0714 1352.05 49.9314 Q1352.05 38.7509 1357.56 32.4315 Q1363.11 26.1121 1372.87 26.1121 Z" fill="#000000" fill-rule="evenodd" fill-opacity="1" /><path clip-path="url(#clip540)" d="M1438.62 49.9314 Q1438.62 41.7081 1435.21 37.0496 Q1431.85 32.3505 1425.94 32.3505 Q1420.02 32.3505 1416.62 37.0496 Q1413.26 41.7081 1413.26 49.9314 Q1413.26 58.1548 1416.62 62.8538 Q1420.02 67.5124 1425.94 67.5124 Q1431.85 67.5124 1435.21 62.8538 Q1438.62 58.1548 1438.62 49.9314 M1413.26 34.0924 Q1415.61 30.0415 1419.17 28.0971 Q1422.78 26.1121 1427.76 26.1121 Q1436.02 26.1121 1441.17 32.6746 Q1446.35 39.2371 1446.35 49.9314 Q1446.35 60.6258 1441.17 67.1883 Q1436.02 73.7508 1427.76 73.7508 Q1422.78 73.7508 1419.17 71.8063 Q1415.61 69.8214 1413.26 65.7705 L1413.26 72.576 L1405.76 72.576 L1405.76 9.54393 L1413.26 9.54393 L1413.26 34.0924 Z" fill="#000000" fill-rule="evenodd" fill-opacity="1" /><path clip-path="url(#clip540)" d="M1458.71 9.54393 L1466.16 9.54393 L1466.16 72.576 L1458.71 72.576 L1458.71 9.54393 Z" fill="#000000" fill-rule="evenodd" fill-opacity="1" /><path clip-path="url(#clip540)" d="M1502.38 49.7694 Q1493.34 49.7694 1489.86 51.8354 Q1486.38 53.9013 1486.38 58.8839 Q1486.38 62.8538 1488.97 65.2034 Q1491.6 67.5124 1496.1 67.5124 Q1502.3 67.5124 1506.02 63.1374 Q1509.79 58.7219 1509.79 51.4303 L1509.79 49.7694 L1502.38 49.7694 M1517.24 46.6907 L1517.24 72.576 L1509.79 72.576 L1509.79 65.6895 Q1507.24 69.8214 1503.43 71.8063 Q1499.62 73.7508 1494.11 73.7508 Q1487.15 73.7508 1483.01 69.8619 Q1478.92 65.9325 1478.92 59.3701 Q1478.92 51.7138 1484.03 47.825 Q1489.17 43.9361 1499.34 43.9361 L1509.79 43.9361 L1509.79 43.2069 Q1509.79 38.0623 1506.39 35.2672 Q1503.03 32.4315 1496.91 32.4315 Q1493.02 32.4315 1489.33 33.3632 Q1485.65 34.295 1482.24 36.1584 L1482.24 29.2718 Q1486.34 27.692 1490.18 26.9223 Q1494.03 26.1121 1497.68 26.1121 Q1507.52 26.1121 1512.38 31.2163 Q1517.24 36.3204 1517.24 46.6907 Z" fill="#000000" fill-rule="evenodd" fill-opacity="1" /><path clip-path="url(#clip540)" d="M1565.25 28.9478 L1565.25 35.9153 Q1562.09 34.1734 1558.89 33.3227 Q1555.73 32.4315 1552.49 32.4315 Q1545.24 32.4315 1541.23 37.0496 Q1537.22 41.6271 1537.22 49.9314 Q1537.22 58.2358 1541.23 62.8538 Q1545.24 67.4314 1552.49 67.4314 Q1555.73 67.4314 1558.89 66.5807 Q1562.09 65.6895 1565.25 63.9476 L1565.25 70.8341 Q1562.13 72.2924 1558.77 73.0216 Q1555.44 73.7508 1551.68 73.7508 Q1541.43 73.7508 1535.39 67.3098 Q1529.36 60.8689 1529.36 49.9314 Q1529.36 38.832 1535.43 32.472 Q1541.55 26.1121 1552.16 26.1121 Q1555.61 26.1121 1558.89 26.8413 Q1562.17 27.5299 1565.25 28.9478 Z" fill="#000000" fill-rule="evenodd" fill-opacity="1" /><path clip-path="url(#clip540)" d="M1578.21 27.2059 L1585.66 27.2059 L1585.66 72.576 L1578.21 72.576 L1578.21 27.2059 M1578.21 9.54393 L1585.66 9.54393 L1585.66 18.9825 L1578.21 18.9825 L1578.21 9.54393 Z" fill="#000000" fill-rule="evenodd" fill-opacity="1" /><path clip-path="url(#clip540)" d="M1618.84 32.4315 Q1612.85 32.4315 1609.36 37.1306 Q1605.88 41.7891 1605.88 49.9314 Q1605.88 58.0738 1609.32 62.7728 Q1612.8 67.4314 1618.84 67.4314 Q1624.8 67.4314 1628.28 62.7323 Q1631.76 58.0333 1631.76 49.9314 Q1631.76 41.8701 1628.28 37.1711 Q1624.8 32.4315 1618.84 32.4315 M1618.84 26.1121 Q1628.56 26.1121 1634.11 32.4315 Q1639.66 38.7509 1639.66 49.9314 Q1639.66 61.0714 1634.11 67.4314 Q1628.56 73.7508 1618.84 73.7508 Q1609.08 73.7508 1603.53 67.4314 Q1598.02 61.0714 1598.02 49.9314 Q1598.02 38.7509 1603.53 32.4315 Q1609.08 26.1121 1618.84 26.1121 M1624.47 6.22219 L1632.53 6.22219 L1619.33 21.4536 L1613.13 21.4536 L1624.47 6.22219 Z" fill="#000000" fill-rule="evenodd" fill-opacity="1" /><path clip-path="url(#clip540)" d="M1689.73 45.1919 L1689.73 72.576 L1682.28 72.576 L1682.28 45.4349 Q1682.28 38.994 1679.77 35.7938 Q1677.25 32.5936 1672.23 32.5936 Q1666.2 32.5936 1662.71 36.4419 Q1659.23 40.2903 1659.23 46.9338 L1659.23 72.576 L1651.73 72.576 L1651.73 27.2059 L1659.23 27.2059 L1659.23 34.2544 Q1661.9 30.163 1665.51 28.1376 Q1669.15 26.1121 1673.89 26.1121 Q1681.71 26.1121 1685.72 30.9732 Q1689.73 35.7938 1689.73 45.1919 Z" fill="#000000" fill-rule="evenodd" fill-opacity="1" /><path clip-path="url(#clip540)" d="M1760.82 34.0924 L1760.82 9.54393 L1768.28 9.54393 L1768.28 72.576 L1760.82 72.576 L1760.82 65.7705 Q1758.48 69.8214 1754.87 71.8063 Q1751.31 73.7508 1746.28 73.7508 Q1738.06 73.7508 1732.87 67.1883 Q1727.73 60.6258 1727.73 49.9314 Q1727.73 39.2371 1732.87 32.6746 Q1738.06 26.1121 1746.28 26.1121 Q1751.31 26.1121 1754.87 28.0971 Q1758.48 30.0415 1760.82 34.0924 M1735.43 49.9314 Q1735.43 58.1548 1738.79 62.8538 Q1742.19 67.5124 1748.11 67.5124 Q1754.02 67.5124 1757.42 62.8538 Q1760.82 58.1548 1760.82 49.9314 Q1760.82 41.7081 1757.42 37.0496 Q1754.02 32.3505 1748.11 32.3505 Q1742.19 32.3505 1738.79 37.0496 Q1735.43 41.7081 1735.43 49.9314 Z" fill="#000000" fill-rule="evenodd" fill-opacity="1" /><path clip-path="url(#clip540)" d="M1822.44 48.0275 L1822.44 51.6733 L1788.17 51.6733 Q1788.65 59.3701 1792.79 63.421 Q1796.96 67.4314 1804.37 67.4314 Q1808.67 67.4314 1812.68 66.3781 Q1816.73 65.3249 1820.7 63.2184 L1820.7 70.267 Q1816.69 71.9684 1812.47 72.8596 Q1808.26 73.7508 1803.93 73.7508 Q1793.07 73.7508 1786.71 67.4314 Q1780.39 61.1119 1780.39 50.3365 Q1780.39 39.1965 1786.39 32.6746 Q1792.42 26.1121 1802.63 26.1121 Q1811.79 26.1121 1817.09 32.0264 Q1822.44 37.9003 1822.44 48.0275 M1814.99 45.84 Q1814.9 39.7232 1811.54 36.0774 Q1808.22 32.4315 1802.71 32.4315 Q1796.47 32.4315 1792.71 35.9558 Q1788.98 39.4801 1788.41 45.8805 L1814.99 45.84 Z" fill="#000000" fill-rule="evenodd" fill-opacity="1" /><path clip-path="url(#clip540)" d="M1893.61 49.9314 Q1893.61 41.7081 1890.21 37.0496 Q1886.85 32.3505 1880.93 32.3505 Q1875.02 32.3505 1871.62 37.0496 Q1868.25 41.7081 1868.25 49.9314 Q1868.25 58.1548 1871.62 62.8538 Q1875.02 67.5124 1880.93 67.5124 Q1886.85 67.5124 1890.21 62.8538 Q1893.61 58.1548 1893.61 49.9314 M1868.25 34.0924 Q1870.6 30.0415 1874.17 28.0971 Q1877.77 26.1121 1882.76 26.1121 Q1891.02 26.1121 1896.17 32.6746 Q1901.35 39.2371 1901.35 49.9314 Q1901.35 60.6258 1896.17 67.1883 Q1891.02 73.7508 1882.76 73.7508 Q1877.77 73.7508 1874.17 71.8063 Q1870.6 69.8214 1868.25 65.7705 L1868.25 72.576 L1860.76 72.576 L1860.76 9.54393 L1868.25 9.54393 L1868.25 34.0924 Z" fill="#000000" fill-rule="evenodd" fill-opacity="1" /><path clip-path="url(#clip540)" d="M1934.33 49.7694 Q1925.29 49.7694 1921.81 51.8354 Q1918.32 53.9013 1918.32 58.8839 Q1918.32 62.8538 1920.92 65.2034 Q1923.55 67.5124 1928.05 67.5124 Q1934.24 67.5124 1937.97 63.1374 Q1941.74 58.7219 1941.74 51.4303 L1941.74 49.7694 L1934.33 49.7694 M1949.19 46.6907 L1949.19 72.576 L1941.74 72.576 L1941.74 65.6895 Q1939.19 69.8214 1935.38 71.8063 Q1931.57 73.7508 1926.06 73.7508 Q1919.09 73.7508 1914.96 69.8619 Q1910.87 65.9325 1910.87 59.3701 Q1910.87 51.7138 1915.97 47.825 Q1921.12 43.9361 1931.29 43.9361 L1941.74 43.9361 L1941.74 43.2069 Q1941.74 38.0623 1938.34 35.2672 Q1934.97 32.4315 1928.86 32.4315 Q1924.97 32.4315 1921.28 33.3632 Q1917.59 34.295 1914.19 36.1584 L1914.19 29.2718 Q1918.28 27.692 1922.13 26.9223 Q1925.98 26.1121 1929.63 26.1121 Q1939.47 26.1121 1944.33 31.2163 Q1949.19 36.3204 1949.19 46.6907 Z" fill="#000000" fill-rule="evenodd" fill-opacity="1" /><path clip-path="url(#clip540)" d="M1997.2 28.9478 L1997.2 35.9153 Q1994.04 34.1734 1990.84 33.3227 Q1987.68 32.4315 1984.43 32.4315 Q1977.18 32.4315 1973.17 37.0496 Q1969.16 41.6271 1969.16 49.9314 Q1969.16 58.2358 1973.17 62.8538 Q1977.18 67.4314 1984.43 67.4314 Q1987.68 67.4314 1990.84 66.5807 Q1994.04 65.6895 1997.2 63.9476 L1997.2 70.8341 Q1994.08 72.2924 1990.71 73.0216 Q1987.39 73.7508 1983.62 73.7508 Q1973.38 73.7508 1967.34 67.3098 Q1961.3 60.8689 1961.3 49.9314 Q1961.3 38.832 1967.38 32.472 Q1973.5 26.1121 1984.11 26.1121 Q1987.55 26.1121 1990.84 26.8413 Q1994.12 27.5299 1997.2 28.9478 Z" fill="#000000" fill-rule="evenodd" fill-opacity="1" /><path clip-path="url(#clip540)" d="M2017.53 14.324 L2017.53 27.2059 L2032.88 27.2059 L2032.88 32.9987 L2017.53 32.9987 L2017.53 57.6282 Q2017.53 63.1779 2019.03 64.7578 Q2020.57 66.3376 2025.23 66.3376 L2032.88 66.3376 L2032.88 72.576 L2025.23 72.576 Q2016.6 72.576 2013.32 69.3758 Q2010.04 66.1351 2010.04 57.6282 L2010.04 32.9987 L2004.57 32.9987 L2004.57 27.2059 L2010.04 27.2059 L2010.04 14.324 L2017.53 14.324 Z" fill="#000000" fill-rule="evenodd" fill-opacity="1" /><path clip-path="url(#clip540)" d="M2081.49 48.0275 L2081.49 51.6733 L2047.22 51.6733 Q2047.71 59.3701 2051.84 63.421 Q2056.01 67.4314 2063.43 67.4314 Q2067.72 67.4314 2071.73 66.3781 Q2075.78 65.3249 2079.75 63.2184 L2079.75 70.267 Q2075.74 71.9684 2071.53 72.8596 Q2067.32 73.7508 2062.98 73.7508 Q2052.13 73.7508 2045.77 67.4314 Q2039.45 61.1119 2039.45 50.3365 Q2039.45 39.1965 2045.44 32.6746 Q2051.48 26.1121 2061.69 26.1121 Q2070.84 26.1121 2076.15 32.0264 Q2081.49 37.9003 2081.49 48.0275 M2074.04 45.84 Q2073.96 39.7232 2070.6 36.0774 Q2067.28 32.4315 2061.77 32.4315 Q2055.53 32.4315 2051.76 35.9558 Q2048.03 39.4801 2047.47 45.8805 L2074.04 45.84 Z" fill="#000000" fill-rule="evenodd" fill-opacity="1" /><path clip-path="url(#clip540)" d="M2120.02 34.1734 Q2118.76 33.4443 2117.26 33.1202 Q2115.81 32.7556 2114.02 32.7556 Q2107.7 32.7556 2104.3 36.8875 Q2100.94 40.9789 2100.94 48.6757 L2100.94 72.576 L2093.44 72.576 L2093.44 27.2059 L2100.94 27.2059 L2100.94 34.2544 Q2103.29 30.1225 2107.06 28.1376 Q2110.82 26.1121 2116.21 26.1121 Q2116.98 26.1121 2117.91 26.2337 Q2118.84 26.3147 2119.98 26.5172 L2120.02 34.1734 Z" fill="#000000" fill-rule="evenodd" fill-opacity="1" /><path clip-path="url(#clip540)" d="M2127.84 27.2059 L2135.29 27.2059 L2135.29 72.576 L2127.84 72.576 L2127.84 27.2059 M2127.84 9.54393 L2135.29 9.54393 L2135.29 18.9825 L2127.84 18.9825 L2127.84 9.54393 Z" fill="#000000" fill-rule="evenodd" fill-opacity="1" /><path clip-path="url(#clip540)" d="M2171.51 49.7694 Q2162.47 49.7694 2158.99 51.8354 Q2155.5 53.9013 2155.5 58.8839 Q2155.5 62.8538 2158.1 65.2034 Q2160.73 67.5124 2165.23 67.5124 Q2171.42 67.5124 2175.15 63.1374 Q2178.92 58.7219 2178.92 51.4303 L2178.92 49.7694 L2171.51 49.7694 M2186.37 46.6907 L2186.37 72.576 L2178.92 72.576 L2178.92 65.6895 Q2176.37 69.8214 2172.56 71.8063 Q2168.75 73.7508 2163.24 73.7508 Q2156.27 73.7508 2152.14 69.8619 Q2148.05 65.9325 2148.05 59.3701 Q2148.05 51.7138 2153.16 47.825 Q2158.3 43.9361 2168.47 43.9361 L2178.92 43.9361 L2178.92 43.2069 Q2178.92 38.0623 2175.52 35.2672 Q2172.15 32.4315 2166.04 32.4315 Q2162.15 32.4315 2158.46 33.3632 Q2154.78 34.295 2151.37 36.1584 L2151.37 29.2718 Q2155.46 27.692 2159.31 26.9223 Q2163.16 26.1121 2166.81 26.1121 Q2176.65 26.1121 2181.51 31.2163 Q2186.37 36.3204 2186.37 46.6907 Z" fill="#000000" fill-rule="evenodd" fill-opacity="1" /><path clip-path="url(#clip540)" d="M2230.65 28.5427 L2230.65 35.5912 Q2227.49 33.9709 2224.09 33.1607 Q2220.68 32.3505 2217.04 32.3505 Q2211.49 32.3505 2208.69 34.0519 Q2205.94 35.7533 2205.94 39.156 Q2205.94 41.7486 2207.92 43.2475 Q2209.91 44.7058 2215.9 46.0426 L2218.46 46.6097 Q2226.4 48.3111 2229.72 51.4303 Q2233.08 54.509 2233.08 60.0587 Q2233.08 66.3781 2228.06 70.0644 Q2223.07 73.7508 2214.32 73.7508 Q2210.68 73.7508 2206.71 73.0216 Q2202.78 72.3329 2198.4 70.9151 L2198.4 63.2184 Q2202.54 65.3654 2206.55 66.4591 Q2210.56 67.5124 2214.49 67.5124 Q2219.75 67.5124 2222.59 65.73 Q2225.42 63.9071 2225.42 60.6258 Q2225.42 57.5877 2223.36 55.9673 Q2221.33 54.3469 2214.4 52.8481 L2211.81 52.2405 Q2204.89 50.7821 2201.81 47.7845 Q2198.73 44.7463 2198.73 39.4801 Q2198.73 33.0797 2203.26 29.5959 Q2207.8 26.1121 2216.15 26.1121 Q2220.28 26.1121 2223.92 26.7198 Q2227.57 27.3274 2230.65 28.5427 Z" fill="#000000" fill-rule="evenodd" fill-opacity="1" /><circle clip-path="url(#clip542)" cx="306.647" cy="1688.65" r="14.4" fill="#009af9" fill-rule="evenodd" fill-opacity="1" stroke="#000000" stroke-opacity="1" stroke-width="3.84"/>
<circle clip-path="url(#clip542)" cx="630.379" cy="1676.72" r="14.4" fill="#009af9" fill-rule="evenodd" fill-opacity="1" stroke="#000000" stroke-opacity="1" stroke-width="3.84"/>
<circle clip-path="url(#clip542)" cx="954.112" cy="1652.86" r="14.4" fill="#009af9" fill-rule="evenodd" fill-opacity="1" stroke="#000000" stroke-opacity="1" stroke-width="3.84"/>
<circle clip-path="url(#clip542)" cx="1277.84" cy="1605.13" r="14.4" fill="#009af9" fill-rule="evenodd" fill-opacity="1" stroke="#000000" stroke-opacity="1" stroke-width="3.84"/>
<circle clip-path="url(#clip542)" cx="1601.58" cy="1509.67" r="14.4" fill="#009af9" fill-rule="evenodd" fill-opacity="1" stroke="#000000" stroke-opacity="1" stroke-width="3.84"/>
<circle clip-path="url(#clip542)" cx="1925.31" cy="1318.75" r="14.4" fill="#009af9" fill-rule="evenodd" fill-opacity="1" stroke="#000000" stroke-opacity="1" stroke-width="3.84"/>
<circle clip-path="url(#clip542)" cx="2249.04" cy="936.921" r="14.4" fill="#009af9" fill-rule="evenodd" fill-opacity="1" stroke="#000000" stroke-opacity="1" stroke-width="3.84"/>
<circle clip-path="url(#clip542)" cx="2572.77" cy="173.254" r="14.4" fill="#009af9" fill-rule="evenodd" fill-opacity="1" stroke="#000000" stroke-opacity="1" stroke-width="3.84"/>
</svg>
