<?xml version="1.0" encoding="utf-8"?>
<svg xmlns="http://www.w3.org/2000/svg" xmlns:xlink="http://www.w3.org/1999/xlink" width="672" height="480" viewBox="0 0 2688 1920">
<defs>
  <clipPath id="clip360">
    <rect x="0" y="0" width="2688" height="1920"/>
  </clipPath>
</defs>
<path clip-path="url(#clip360)" d="
M0 1920 L2688 1920 L2688 0 L0 0  Z
  " fill="#ffffff" fill-rule="evenodd" fill-opacity="1"/>
<defs>
  <clipPath id="clip361">
    <rect x="537" y="0" width="1883" height="1883"/>
  </clipPath>
</defs>
<path clip-path="url(#clip360)" d="
M196.816 1800.78 L2640.76 1800.78 L2640.76 47.2441 L196.816 47.2441  Z
  " fill="#ffffff" fill-rule="evenodd" fill-opacity="1"/>
<defs>
  <clipPath id="clip362">
    <rect x="196" y="47" width="2445" height="1755"/>
  </clipPath>
</defs>
<polyline clip-path="url(#clip362)" style="stroke:#000000; stroke-linecap:round; stroke-linejoin:round; stroke-width:2; stroke-opacity:0.1; fill:none" points="
  591.621,1800.78 591.621,47.2441 
  "/>
<polyline clip-path="url(#clip362)" style="stroke:#000000; stroke-linecap:round; stroke-linejoin:round; stroke-width:2; stroke-opacity:0.1; fill:none" points="
  1005.2,1800.78 1005.2,47.2441 
  "/>
<polyline clip-path="url(#clip362)" style="stroke:#000000; stroke-linecap:round; stroke-linejoin:round; stroke-width:2; stroke-opacity:0.1; fill:none" points="
  1418.79,1800.78 1418.79,47.2441 
  "/>
<polyline clip-path="url(#clip362)" style="stroke:#000000; stroke-linecap:round; stroke-linejoin:round; stroke-width:2; stroke-opacity:0.1; fill:none" points="
  1832.37,1800.78 1832.37,47.2441 
  "/>
<polyline clip-path="url(#clip362)" style="stroke:#000000; stroke-linecap:round; stroke-linejoin:round; stroke-width:2; stroke-opacity:0.1; fill:none" points="
  2245.95,1800.78 2245.95,47.2441 
  "/>
<polyline clip-path="url(#clip360)" style="stroke:#000000; stroke-linecap:round; stroke-linejoin:round; stroke-width:4; stroke-opacity:1; fill:none" points="
  196.816,1800.78 2640.76,1800.78 
  "/>
<polyline clip-path="url(#clip360)" style="stroke:#000000; stroke-linecap:round; stroke-linejoin:round; stroke-width:4; stroke-opacity:1; fill:none" points="
  591.621,1800.78 591.621,1781.88 
  "/>
<polyline clip-path="url(#clip360)" style="stroke:#000000; stroke-linecap:round; stroke-linejoin:round; stroke-width:4; stroke-opacity:1; fill:none" points="
  1005.2,1800.78 1005.2,1781.88 
  "/>
<polyline clip-path="url(#clip360)" style="stroke:#000000; stroke-linecap:round; stroke-linejoin:round; stroke-width:4; stroke-opacity:1; fill:none" points="
  1418.79,1800.78 1418.79,1781.88 
  "/>
<polyline clip-path="url(#clip360)" style="stroke:#000000; stroke-linecap:round; stroke-linejoin:round; stroke-width:4; stroke-opacity:1; fill:none" points="
  1832.37,1800.78 1832.37,1781.88 
  "/>
<polyline clip-path="url(#clip360)" style="stroke:#000000; stroke-linecap:round; stroke-linejoin:round; stroke-width:4; stroke-opacity:1; fill:none" points="
  2245.95,1800.78 2245.95,1781.88 
  "/>
<path clip-path="url(#clip360)" d="M538.149 1848.65 L567.825 1848.65 L567.825 1852.59 L538.149 1852.59 L538.149 1848.65 Z" fill="#000000" fill-rule="evenodd" fill-opacity="1" /><path clip-path="url(#clip360)" d="M578.727 1861.55 L586.366 1861.55 L586.366 1835.18 L578.056 1836.85 L578.056 1832.59 L586.32 1830.92 L590.996 1830.92 L590.996 1861.55 L598.635 1861.55 L598.635 1865.48 L578.727 1865.48 L578.727 1861.55 Z" fill="#000000" fill-rule="evenodd" fill-opacity="1" /><path clip-path="url(#clip360)" d="M608.079 1859.6 L612.963 1859.6 L612.963 1865.48 L608.079 1865.48 L608.079 1859.6 Z" fill="#000000" fill-rule="evenodd" fill-opacity="1" /><path clip-path="url(#clip360)" d="M633.148 1834 Q629.537 1834 627.709 1837.57 Q625.903 1841.11 625.903 1848.24 Q625.903 1855.34 627.709 1858.91 Q629.537 1862.45 633.148 1862.45 Q636.783 1862.45 638.588 1858.91 Q640.417 1855.34 640.417 1848.24 Q640.417 1841.11 638.588 1837.57 Q636.783 1834 633.148 1834 M633.148 1830.3 Q638.959 1830.3 642.014 1834.9 Q645.093 1839.49 645.093 1848.24 Q645.093 1856.96 642.014 1861.57 Q638.959 1866.15 633.148 1866.15 Q627.338 1866.15 624.26 1861.57 Q621.204 1856.96 621.204 1848.24 Q621.204 1839.49 624.26 1834.9 Q627.338 1830.3 633.148 1830.3 Z" fill="#000000" fill-rule="evenodd" fill-opacity="1" /><path clip-path="url(#clip360)" d="M952.229 1848.65 L981.905 1848.65 L981.905 1852.59 L952.229 1852.59 L952.229 1848.65 Z" fill="#000000" fill-rule="evenodd" fill-opacity="1" /><path clip-path="url(#clip360)" d="M1002 1834 Q998.386 1834 996.558 1837.57 Q994.752 1841.11 994.752 1848.24 Q994.752 1855.34 996.558 1858.91 Q998.386 1862.45 1002 1862.45 Q1005.63 1862.45 1007.44 1858.91 Q1009.27 1855.34 1009.27 1848.24 Q1009.27 1841.11 1007.44 1837.57 Q1005.63 1834 1002 1834 M1002 1830.3 Q1007.81 1830.3 1010.86 1834.9 Q1013.94 1839.49 1013.94 1848.24 Q1013.94 1856.96 1010.86 1861.57 Q1007.81 1866.15 1002 1866.15 Q996.187 1866.15 993.109 1861.57 Q990.053 1856.96 990.053 1848.24 Q990.053 1839.49 993.109 1834.9 Q996.187 1830.3 1002 1830.3 Z" fill="#000000" fill-rule="evenodd" fill-opacity="1" /><path clip-path="url(#clip360)" d="M1022.16 1859.6 L1027.04 1859.6 L1027.04 1865.48 L1022.16 1865.48 L1022.16 1859.6 Z" fill="#000000" fill-rule="evenodd" fill-opacity="1" /><path clip-path="url(#clip360)" d="M1037.28 1830.92 L1055.63 1830.92 L1055.63 1834.86 L1041.56 1834.86 L1041.56 1843.33 Q1042.58 1842.98 1043.59 1842.82 Q1044.61 1842.64 1045.63 1842.64 Q1051.42 1842.64 1054.8 1845.81 Q1058.18 1848.98 1058.18 1854.4 Q1058.18 1859.97 1054.71 1863.08 Q1051.23 1866.15 1044.91 1866.15 Q1042.74 1866.15 1040.47 1865.78 Q1038.22 1865.41 1035.82 1864.67 L1035.82 1859.97 Q1037.9 1861.11 1040.12 1861.66 Q1042.34 1862.22 1044.82 1862.22 Q1048.83 1862.22 1051.16 1860.11 Q1053.5 1858.01 1053.5 1854.4 Q1053.5 1850.78 1051.16 1848.68 Q1048.83 1846.57 1044.82 1846.57 Q1042.95 1846.57 1041.07 1846.99 Q1039.22 1847.4 1037.28 1848.28 L1037.28 1830.92 Z" fill="#000000" fill-rule="evenodd" fill-opacity="1" /><path clip-path="url(#clip360)" d="M1396.17 1834 Q1392.56 1834 1390.73 1837.57 Q1388.93 1841.11 1388.93 1848.24 Q1388.93 1855.34 1390.73 1858.91 Q1392.56 1862.45 1396.17 1862.45 Q1399.8 1862.45 1401.61 1858.91 Q1403.44 1855.34 1403.44 1848.24 Q1403.44 1841.11 1401.61 1837.57 Q1399.8 1834 1396.17 1834 M1396.17 1830.3 Q1401.98 1830.3 1405.04 1834.9 Q1408.11 1839.49 1408.11 1848.24 Q1408.11 1856.96 1405.04 1861.57 Q1401.98 1866.15 1396.17 1866.15 Q1390.36 1866.15 1387.28 1861.57 Q1384.23 1856.96 1384.23 1848.24 Q1384.23 1839.49 1387.28 1834.9 Q1390.36 1830.3 1396.17 1830.3 Z" fill="#000000" fill-rule="evenodd" fill-opacity="1" /><path clip-path="url(#clip360)" d="M1416.33 1859.6 L1421.22 1859.6 L1421.22 1865.48 L1416.33 1865.48 L1416.33 1859.6 Z" fill="#000000" fill-rule="evenodd" fill-opacity="1" /><path clip-path="url(#clip360)" d="M1441.4 1834 Q1437.79 1834 1435.96 1837.57 Q1434.16 1841.11 1434.16 1848.24 Q1434.16 1855.34 1435.96 1858.91 Q1437.79 1862.45 1441.4 1862.45 Q1445.04 1862.45 1446.84 1858.91 Q1448.67 1855.34 1448.67 1848.24 Q1448.67 1841.11 1446.84 1837.57 Q1445.04 1834 1441.4 1834 M1441.4 1830.3 Q1447.21 1830.3 1450.27 1834.9 Q1453.35 1839.49 1453.35 1848.24 Q1453.35 1856.96 1450.27 1861.57 Q1447.21 1866.15 1441.4 1866.15 Q1435.59 1866.15 1432.51 1861.57 Q1429.46 1856.96 1429.46 1848.24 Q1429.46 1839.49 1432.51 1834.9 Q1435.59 1830.3 1441.4 1830.3 Z" fill="#000000" fill-rule="evenodd" fill-opacity="1" /><path clip-path="url(#clip360)" d="M1810.25 1834 Q1806.64 1834 1804.81 1837.57 Q1803.01 1841.11 1803.01 1848.24 Q1803.01 1855.34 1804.81 1858.91 Q1806.64 1862.45 1810.25 1862.45 Q1813.88 1862.45 1815.69 1858.91 Q1817.52 1855.34 1817.52 1848.24 Q1817.52 1841.11 1815.69 1837.57 Q1813.88 1834 1810.25 1834 M1810.25 1830.3 Q1816.06 1830.3 1819.12 1834.9 Q1822.19 1839.49 1822.19 1848.24 Q1822.19 1856.96 1819.12 1861.57 Q1816.06 1866.15 1810.25 1866.15 Q1804.44 1866.15 1801.36 1861.57 Q1798.31 1856.96 1798.31 1848.24 Q1798.31 1839.49 1801.36 1834.9 Q1804.44 1830.3 1810.25 1830.3 Z" fill="#000000" fill-rule="evenodd" fill-opacity="1" /><path clip-path="url(#clip360)" d="M1830.41 1859.6 L1835.3 1859.6 L1835.3 1865.48 L1830.41 1865.48 L1830.41 1859.6 Z" fill="#000000" fill-rule="evenodd" fill-opacity="1" /><path clip-path="url(#clip360)" d="M1845.53 1830.92 L1863.88 1830.92 L1863.88 1834.86 L1849.81 1834.86 L1849.81 1843.33 Q1850.83 1842.98 1851.85 1842.82 Q1852.87 1842.64 1853.88 1842.64 Q1859.67 1842.64 1863.05 1845.81 Q1866.43 1848.98 1866.43 1854.4 Q1866.43 1859.97 1862.96 1863.08 Q1859.49 1866.15 1853.17 1866.15 Q1850.99 1866.15 1848.72 1865.78 Q1846.48 1865.41 1844.07 1864.67 L1844.07 1859.97 Q1846.15 1861.11 1848.38 1861.66 Q1850.6 1862.22 1853.07 1862.22 Q1857.08 1862.22 1859.42 1860.11 Q1861.75 1858.01 1861.75 1854.4 Q1861.75 1850.78 1859.42 1848.68 Q1857.08 1846.57 1853.07 1846.57 Q1851.2 1846.57 1849.32 1846.99 Q1847.47 1847.4 1845.53 1848.28 L1845.53 1830.92 Z" fill="#000000" fill-rule="evenodd" fill-opacity="1" /><path clip-path="url(#clip360)" d="M2213.1 1861.55 L2220.74 1861.55 L2220.74 1835.18 L2212.43 1836.85 L2212.43 1832.59 L2220.7 1830.92 L2225.37 1830.92 L2225.37 1861.55 L2233.01 1861.55 L2233.01 1865.48 L2213.1 1865.48 L2213.1 1861.55 Z" fill="#000000" fill-rule="evenodd" fill-opacity="1" /><path clip-path="url(#clip360)" d="M2242.46 1859.6 L2247.34 1859.6 L2247.34 1865.48 L2242.46 1865.48 L2242.46 1859.6 Z" fill="#000000" fill-rule="evenodd" fill-opacity="1" /><path clip-path="url(#clip360)" d="M2267.52 1834 Q2263.91 1834 2262.09 1837.57 Q2260.28 1841.11 2260.28 1848.24 Q2260.28 1855.34 2262.09 1858.91 Q2263.91 1862.45 2267.52 1862.45 Q2271.16 1862.45 2272.96 1858.91 Q2274.79 1855.34 2274.79 1848.24 Q2274.79 1841.11 2272.96 1837.57 Q2271.16 1834 2267.52 1834 M2267.52 1830.3 Q2273.34 1830.3 2276.39 1834.9 Q2279.47 1839.49 2279.47 1848.24 Q2279.47 1856.96 2276.39 1861.57 Q2273.34 1866.15 2267.52 1866.15 Q2261.71 1866.15 2258.64 1861.57 Q2255.58 1856.96 2255.58 1848.24 Q2255.58 1839.49 2258.64 1834.9 Q2261.71 1830.3 2267.52 1830.3 Z" fill="#000000" fill-rule="evenodd" fill-opacity="1" /><polyline clip-path="url(#clip362)" style="stroke:#000000; stroke-linecap:round; stroke-linejoin:round; stroke-width:2; stroke-opacity:0.1; fill:none" points="
  196.816,1751.18 2640.76,1751.18 
  "/>
<polyline clip-path="url(#clip362)" style="stroke:#000000; stroke-linecap:round; stroke-linejoin:round; stroke-width:2; stroke-opacity:0.1; fill:none" points="
  196.816,1337.59 2640.76,1337.59 
  "/>
<polyline clip-path="url(#clip362)" style="stroke:#000000; stroke-linecap:round; stroke-linejoin:round; stroke-width:2; stroke-opacity:0.1; fill:none" points="
  196.816,924.012 2640.76,924.012 
  "/>
<polyline clip-path="url(#clip362)" style="stroke:#000000; stroke-linecap:round; stroke-linejoin:round; stroke-width:2; stroke-opacity:0.1; fill:none" points="
  196.816,510.429 2640.76,510.429 
  "/>
<polyline clip-path="url(#clip362)" style="stroke:#000000; stroke-linecap:round; stroke-linejoin:round; stroke-width:2; stroke-opacity:0.1; fill:none" points="
  196.816,96.8467 2640.76,96.8467 
  "/>
<polyline clip-path="url(#clip360)" style="stroke:#000000; stroke-linecap:round; stroke-linejoin:round; stroke-width:4; stroke-opacity:1; fill:none" points="
  196.816,1800.78 196.816,47.2441 
  "/>
<polyline clip-path="url(#clip360)" style="stroke:#000000; stroke-linecap:round; stroke-linejoin:round; stroke-width:4; stroke-opacity:1; fill:none" points="
  196.816,1751.18 215.714,1751.18 
  "/>
<polyline clip-path="url(#clip360)" style="stroke:#000000; stroke-linecap:round; stroke-linejoin:round; stroke-width:4; stroke-opacity:1; fill:none" points="
  196.816,1337.59 215.714,1337.59 
  "/>
<polyline clip-path="url(#clip360)" style="stroke:#000000; stroke-linecap:round; stroke-linejoin:round; stroke-width:4; stroke-opacity:1; fill:none" points="
  196.816,924.012 215.714,924.012 
  "/>
<polyline clip-path="url(#clip360)" style="stroke:#000000; stroke-linecap:round; stroke-linejoin:round; stroke-width:4; stroke-opacity:1; fill:none" points="
  196.816,510.429 215.714,510.429 
  "/>
<polyline clip-path="url(#clip360)" style="stroke:#000000; stroke-linecap:round; stroke-linejoin:round; stroke-width:4; stroke-opacity:1; fill:none" points="
  196.816,96.8467 215.714,96.8467 
  "/>
<path clip-path="url(#clip360)" d="M49.5521 1751.63 L79.2279 1751.63 L79.2279 1755.56 L49.5521 1755.56 L49.5521 1751.63 Z" fill="#000000" fill-rule="evenodd" fill-opacity="1" /><path clip-path="url(#clip360)" d="M90.1306 1764.52 L97.7695 1764.52 L97.7695 1738.16 L89.4593 1739.82 L89.4593 1735.56 L97.7232 1733.9 L102.399 1733.9 L102.399 1764.52 L110.038 1764.52 L110.038 1768.46 L90.1306 1768.46 L90.1306 1764.52 Z" fill="#000000" fill-rule="evenodd" fill-opacity="1" /><path clip-path="url(#clip360)" d="M119.482 1762.58 L124.367 1762.58 L124.367 1768.46 L119.482 1768.46 L119.482 1762.58 Z" fill="#000000" fill-rule="evenodd" fill-opacity="1" /><path clip-path="url(#clip360)" d="M144.552 1736.98 Q140.941 1736.98 139.112 1740.54 Q137.306 1744.08 137.306 1751.21 Q137.306 1758.32 139.112 1761.88 Q140.941 1765.42 144.552 1765.42 Q148.186 1765.42 149.991 1761.88 Q151.82 1758.32 151.82 1751.21 Q151.82 1744.08 149.991 1740.54 Q148.186 1736.98 144.552 1736.98 M144.552 1733.27 Q150.362 1733.27 153.417 1737.88 Q156.496 1742.46 156.496 1751.21 Q156.496 1759.94 153.417 1764.54 Q150.362 1769.13 144.552 1769.13 Q138.741 1769.13 135.663 1764.54 Q132.607 1759.94 132.607 1751.21 Q132.607 1742.46 135.663 1737.88 Q138.741 1733.27 144.552 1733.27 Z" fill="#000000" fill-rule="evenodd" fill-opacity="1" /><path clip-path="url(#clip360)" d="M50.5475 1338.05 L80.2233 1338.05 L80.2233 1341.98 L50.5475 1341.98 L50.5475 1338.05 Z" fill="#000000" fill-rule="evenodd" fill-opacity="1" /><path clip-path="url(#clip360)" d="M100.316 1323.39 Q96.7047 1323.39 94.876 1326.96 Q93.0704 1330.5 93.0704 1337.63 Q93.0704 1344.74 94.876 1348.3 Q96.7047 1351.84 100.316 1351.84 Q103.95 1351.84 105.756 1348.3 Q107.584 1344.74 107.584 1337.63 Q107.584 1330.5 105.756 1326.96 Q103.95 1323.39 100.316 1323.39 M100.316 1319.69 Q106.126 1319.69 109.181 1324.3 Q112.26 1328.88 112.26 1337.63 Q112.26 1346.36 109.181 1350.96 Q106.126 1355.55 100.316 1355.55 Q94.5056 1355.55 91.4269 1350.96 Q88.3714 1346.36 88.3714 1337.63 Q88.3714 1328.88 91.4269 1324.3 Q94.5056 1319.69 100.316 1319.69 Z" fill="#000000" fill-rule="evenodd" fill-opacity="1" /><path clip-path="url(#clip360)" d="M120.478 1348.99 L125.362 1348.99 L125.362 1354.87 L120.478 1354.87 L120.478 1348.99 Z" fill="#000000" fill-rule="evenodd" fill-opacity="1" /><path clip-path="url(#clip360)" d="M135.593 1320.31 L153.95 1320.31 L153.95 1324.25 L139.876 1324.25 L139.876 1332.72 Q140.894 1332.37 141.913 1332.21 Q142.931 1332.03 143.95 1332.03 Q149.737 1332.03 153.116 1335.2 Q156.496 1338.37 156.496 1343.79 Q156.496 1349.36 153.024 1352.47 Q149.552 1355.55 143.232 1355.55 Q141.056 1355.55 138.788 1355.18 Q136.542 1354.8 134.135 1354.06 L134.135 1349.36 Q136.218 1350.5 138.441 1351.05 Q140.663 1351.61 143.14 1351.61 Q147.144 1351.61 149.482 1349.5 Q151.82 1347.4 151.82 1343.79 Q151.82 1340.18 149.482 1338.07 Q147.144 1335.96 143.14 1335.96 Q141.265 1335.96 139.39 1336.38 Q137.538 1336.8 135.593 1337.68 L135.593 1320.31 Z" fill="#000000" fill-rule="evenodd" fill-opacity="1" /><path clip-path="url(#clip360)" d="M99.3204 909.81 Q95.7093 909.81 93.8806 913.375 Q92.075 916.917 92.075 924.046 Q92.075 931.153 93.8806 934.718 Q95.7093 938.259 99.3204 938.259 Q102.955 938.259 104.76 934.718 Q106.589 931.153 106.589 924.046 Q106.589 916.917 104.76 913.375 Q102.955 909.81 99.3204 909.81 M99.3204 906.107 Q105.131 906.107 108.186 910.713 Q111.265 915.296 111.265 924.046 Q111.265 932.773 108.186 937.38 Q105.131 941.963 99.3204 941.963 Q93.5102 941.963 90.4315 937.38 Q87.376 932.773 87.376 924.046 Q87.376 915.296 90.4315 910.713 Q93.5102 906.107 99.3204 906.107 Z" fill="#000000" fill-rule="evenodd" fill-opacity="1" /><path clip-path="url(#clip360)" d="M119.482 935.412 L124.367 935.412 L124.367 941.292 L119.482 941.292 L119.482 935.412 Z" fill="#000000" fill-rule="evenodd" fill-opacity="1" /><path clip-path="url(#clip360)" d="M144.552 909.81 Q140.941 909.81 139.112 913.375 Q137.306 916.917 137.306 924.046 Q137.306 931.153 139.112 934.718 Q140.941 938.259 144.552 938.259 Q148.186 938.259 149.991 934.718 Q151.82 931.153 151.82 924.046 Q151.82 916.917 149.991 913.375 Q148.186 909.81 144.552 909.81 M144.552 906.107 Q150.362 906.107 153.417 910.713 Q156.496 915.296 156.496 924.046 Q156.496 932.773 153.417 937.38 Q150.362 941.963 144.552 941.963 Q138.741 941.963 135.663 937.38 Q132.607 932.773 132.607 924.046 Q132.607 915.296 135.663 910.713 Q138.741 906.107 144.552 906.107 Z" fill="#000000" fill-rule="evenodd" fill-opacity="1" /><path clip-path="url(#clip360)" d="M100.316 496.228 Q96.7047 496.228 94.876 499.793 Q93.0704 503.334 93.0704 510.464 Q93.0704 517.57 94.876 521.135 Q96.7047 524.677 100.316 524.677 Q103.95 524.677 105.756 521.135 Q107.584 517.57 107.584 510.464 Q107.584 503.334 105.756 499.793 Q103.95 496.228 100.316 496.228 M100.316 492.524 Q106.126 492.524 109.181 497.131 Q112.26 501.714 112.26 510.464 Q112.26 519.191 109.181 523.797 Q106.126 528.38 100.316 528.38 Q94.5056 528.38 91.4269 523.797 Q88.3714 519.191 88.3714 510.464 Q88.3714 501.714 91.4269 497.131 Q94.5056 492.524 100.316 492.524 Z" fill="#000000" fill-rule="evenodd" fill-opacity="1" /><path clip-path="url(#clip360)" d="M120.478 521.83 L125.362 521.83 L125.362 527.709 L120.478 527.709 L120.478 521.83 Z" fill="#000000" fill-rule="evenodd" fill-opacity="1" /><path clip-path="url(#clip360)" d="M135.593 493.149 L153.95 493.149 L153.95 497.084 L139.876 497.084 L139.876 505.557 Q140.894 505.209 141.913 505.047 Q142.931 504.862 143.95 504.862 Q149.737 504.862 153.116 508.033 Q156.496 511.205 156.496 516.621 Q156.496 522.2 153.024 525.302 Q149.552 528.38 143.232 528.38 Q141.056 528.38 138.788 528.01 Q136.542 527.64 134.135 526.899 L134.135 522.2 Q136.218 523.334 138.441 523.89 Q140.663 524.445 143.14 524.445 Q147.144 524.445 149.482 522.339 Q151.82 520.232 151.82 516.621 Q151.82 513.01 149.482 510.904 Q147.144 508.797 143.14 508.797 Q141.265 508.797 139.39 509.214 Q137.538 509.631 135.593 510.51 L135.593 493.149 Z" fill="#000000" fill-rule="evenodd" fill-opacity="1" /><path clip-path="url(#clip360)" d="M90.1306 110.192 L97.7695 110.192 L97.7695 83.8259 L89.4593 85.4926 L89.4593 81.2333 L97.7232 79.5667 L102.399 79.5667 L102.399 110.192 L110.038 110.192 L110.038 114.127 L90.1306 114.127 L90.1306 110.192 Z" fill="#000000" fill-rule="evenodd" fill-opacity="1" /><path clip-path="url(#clip360)" d="M119.482 108.247 L124.367 108.247 L124.367 114.127 L119.482 114.127 L119.482 108.247 Z" fill="#000000" fill-rule="evenodd" fill-opacity="1" /><path clip-path="url(#clip360)" d="M144.552 82.6454 Q140.941 82.6454 139.112 86.2102 Q137.306 89.7518 137.306 96.8814 Q137.306 103.988 139.112 107.553 Q140.941 111.094 144.552 111.094 Q148.186 111.094 149.991 107.553 Q151.82 103.988 151.82 96.8814 Q151.82 89.7518 149.991 86.2102 Q148.186 82.6454 144.552 82.6454 M144.552 78.9417 Q150.362 78.9417 153.417 83.5481 Q156.496 88.1314 156.496 96.8814 Q156.496 105.608 153.417 110.215 Q150.362 114.798 144.552 114.798 Q138.741 114.798 135.663 110.215 Q132.607 105.608 132.607 96.8814 Q132.607 88.1314 135.663 83.5481 Q138.741 78.9417 144.552 78.9417 Z" fill="#000000" fill-rule="evenodd" fill-opacity="1" /><polyline clip-path="url(#clip362)" style="stroke:#009af9; stroke-linecap:round; stroke-linejoin:round; stroke-width:4; stroke-opacity:1; fill:none" points="
  1418.79,924.012 1470.98,819.822 1522.98,717.292 1574.55,618.056 1625.51,523.692 1675.64,435.706 1724.74,355.498 1772.63,284.346 1819.11,223.383 1863.99,173.581 
  1907.09,135.733 1948.25,110.441 1987.3,98.109 2024.08,98.9331 2058.45,112.9 2090.27,139.787 2119.41,179.167 2145.76,230.411 2169.22,292.704 2189.68,365.053 
  2207.07,446.306 2221.31,535.169 2232.36,630.225 2240.16,729.962 2244.69,832.789 2245.93,937.07 2243.86,1041.14 2238.51,1143.35 2229.9,1242.06 2218.05,1335.71 
  2203.01,1422.8 2184.85,1501.94 2163.63,1571.88 2139.44,1631.49 2112.39,1679.84 2082.56,1716.15 2050.09,1739.84 2015.11,1750.53 1977.74,1748.06 1938.15,1732.46 
  1896.49,1703.99 1852.93,1663.08 1807.63,1610.41 1760.78,1546.8 1712.57,1473.28 1663.19,1391 1612.84,1301.28 1561.71,1205.55 1510.01,1105.34 1457.95,1002.24 
  1405.73,897.899 1353.56,793.97 1301.66,692.112 1250.22,593.948 1199.45,501.041 1149.56,414.872 1100.74,336.814 1053.18,268.109 1007.09,209.852 962.636,162.971 
  920.001,128.213 879.354,106.132 840.858,97.0786 804.665,101.198 770.921,118.424 739.759,148.482 711.304,190.894 685.669,244.985 662.956,309.891 643.257,384.58 
  626.649,467.862 613.198,558.41 602.959,654.782 595.972,755.442 592.265,858.788 591.853,963.172 594.737,1066.93 600.906,1168.42 610.335,1266.01 622.988,1358.15 
  638.812,1443.38 657.746,1520.33 679.713,1587.79 704.626,1644.67 732.387,1690.07 762.883,1723.27 795.994,1743.74 831.588,1751.15 869.523,1745.39 909.647,1726.54 
  951.8,1694.9 995.815,1650.99 1041.52,1595.5 1088.72,1529.31 1137.24,1453.48 1186.89,1369.21 1237.45,1277.85 1288.74,1180.86 1340.55,1079.78 1392.67,976.21 
  1444.9,871.813 1497.02,768.247 1548.83,667.162 1600.12,570.169 1650.69,478.812 1700.33,394.546 1748.85,318.715 1796.06,252.526 1841.76,197.033 1885.77,153.12 
  1927.93,121.487 1968.05,102.638 2005.98,96.8724 2041.58,104.283 2074.69,124.751 2105.19,157.95 2132.95,203.353 2157.86,260.235 2179.83,327.69 2198.76,404.645 
  2214.58,489.872 2227.24,582.015 2236.67,679.606 2242.83,781.09 2245.72,884.851 2245.31,989.236 2241.6,1092.58 2234.61,1193.24 2224.37,1289.61 2210.92,1380.16 
  2194.32,1463.44 2174.62,1538.13 2151.9,1603.04 2126.27,1657.13 2097.81,1699.54 2066.65,1729.6 2032.91,1746.83 1996.71,1750.94 1958.22,1741.89 1917.57,1719.81 
  1874.94,1685.05 1830.48,1638.17 1784.39,1579.91 1736.84,1511.21 1688.02,1433.15 1638.12,1346.98 1587.36,1254.08 1535.92,1155.91 1484.01,1054.05 1431.84,950.124 
  1379.63,845.779 1327.56,742.679 1275.86,642.468 1224.74,546.742 1174.38,457.026 1125,374.748 1076.79,301.22 1029.94,237.612 984.647,184.939 941.081,144.038 
  899.419,115.561 859.828,99.9628 822.465,97.4908 787.478,108.185 755.009,131.874 725.186,168.182 698.127,216.529 673.941,276.147 652.725,346.084 634.562,425.227 
  619.525,512.315 607.674,605.962 599.057,704.675 593.707,806.881 591.647,910.954 592.883,1015.23 597.412,1118.06 605.215,1217.8 616.262,1312.85 630.507,1401.72 
  647.895,1482.97 668.355,1555.32 691.807,1617.61 718.157,1668.86 747.3,1708.24 779.12,1735.12 813.49,1749.09 850.272,1749.91 889.321,1737.58 930.48,1712.29 
  973.586,1674.44 1018.47,1624.64 1064.94,1563.68 1112.83,1492.53 1161.94,1412.32 1212.07,1324.33 1263.02,1229.97 1314.6,1130.73 1366.59,1028.2 1418.79,924.012 
  
  "/>
</svg>
