<?xml version="1.0" encoding="utf-8"?>
<svg xmlns="http://www.w3.org/2000/svg" xmlns:xlink="http://www.w3.org/1999/xlink" width="672" height="480" viewBox="0 0 2688 1920">
<defs>
  <clipPath id="clip160">
    <rect x="0" y="0" width="2688" height="1920"/>
  </clipPath>
</defs>
<path clip-path="url(#clip160)" d="
M0 1920 L2688 1920 L2688 0 L0 0  Z
  " fill="#ffffff" fill-rule="evenodd" fill-opacity="1"/>
<defs>
  <clipPath id="clip161">
    <rect x="537" y="0" width="1883" height="1883"/>
  </clipPath>
</defs>
<path clip-path="url(#clip160)" d="
M208.502 1734.12 L2640.76 1734.12 L2640.76 47.2441 L208.502 47.2441  Z
  " fill="#ffffff" fill-rule="evenodd" fill-opacity="1"/>
<defs>
  <clipPath id="clip162">
    <rect x="208" y="47" width="2433" height="1688"/>
  </clipPath>
</defs>
<polyline clip-path="url(#clip162)" style="stroke:#000000; stroke-linecap:round; stroke-linejoin:round; stroke-width:2; stroke-opacity:0.1; fill:none" points="
  208.502,1734.12 208.502,47.2441 
  "/>
<polyline clip-path="url(#clip162)" style="stroke:#000000; stroke-linecap:round; stroke-linejoin:round; stroke-width:2; stroke-opacity:0.1; fill:none" points="
  1019.25,1734.12 1019.25,47.2441 
  "/>
<polyline clip-path="url(#clip162)" style="stroke:#000000; stroke-linecap:round; stroke-linejoin:round; stroke-width:2; stroke-opacity:0.1; fill:none" points="
  1830,1734.12 1830,47.2441 
  "/>
<polyline clip-path="url(#clip162)" style="stroke:#000000; stroke-linecap:round; stroke-linejoin:round; stroke-width:2; stroke-opacity:0.1; fill:none" points="
  2640.76,1734.12 2640.76,47.2441 
  "/>
<polyline clip-path="url(#clip160)" style="stroke:#000000; stroke-linecap:round; stroke-linejoin:round; stroke-width:4; stroke-opacity:1; fill:none" points="
  208.502,1734.12 2640.76,1734.12 
  "/>
<polyline clip-path="url(#clip160)" style="stroke:#000000; stroke-linecap:round; stroke-linejoin:round; stroke-width:4; stroke-opacity:1; fill:none" points="
  208.502,1734.12 208.502,1715.22 
  "/>
<polyline clip-path="url(#clip160)" style="stroke:#000000; stroke-linecap:round; stroke-linejoin:round; stroke-width:4; stroke-opacity:1; fill:none" points="
  1019.25,1734.12 1019.25,1715.22 
  "/>
<polyline clip-path="url(#clip160)" style="stroke:#000000; stroke-linecap:round; stroke-linejoin:round; stroke-width:4; stroke-opacity:1; fill:none" points="
  1830,1734.12 1830,1715.22 
  "/>
<polyline clip-path="url(#clip160)" style="stroke:#000000; stroke-linecap:round; stroke-linejoin:round; stroke-width:4; stroke-opacity:1; fill:none" points="
  2640.76,1734.12 2640.76,1715.22 
  "/>
<path clip-path="url(#clip160)" d="M208.502 1767.34 Q204.891 1767.34 203.062 1770.9 Q201.256 1774.45 201.256 1781.58 Q201.256 1788.68 203.062 1792.25 Q204.891 1795.79 208.502 1795.79 Q212.136 1795.79 213.942 1792.25 Q215.77 1788.68 215.77 1781.58 Q215.77 1774.45 213.942 1770.9 Q212.136 1767.34 208.502 1767.34 M208.502 1763.64 Q214.312 1763.64 217.367 1768.24 Q220.446 1772.83 220.446 1781.58 Q220.446 1790.3 217.367 1794.91 Q214.312 1799.49 208.502 1799.49 Q202.692 1799.49 199.613 1794.91 Q196.557 1790.3 196.557 1781.58 Q196.557 1772.83 199.613 1768.24 Q202.692 1763.64 208.502 1763.64 Z" fill="#000000" fill-rule="evenodd" fill-opacity="1" /><path clip-path="url(#clip160)" d="M1009.64 1794.89 L1017.27 1794.89 L1017.27 1768.52 L1008.96 1770.19 L1008.96 1765.93 L1017.23 1764.26 L1021.9 1764.26 L1021.9 1794.89 L1029.54 1794.89 L1029.54 1798.82 L1009.64 1798.82 L1009.64 1794.89 Z" fill="#000000" fill-rule="evenodd" fill-opacity="1" /><path clip-path="url(#clip160)" d="M1824.66 1794.89 L1840.98 1794.89 L1840.98 1798.82 L1819.03 1798.82 L1819.03 1794.89 Q1821.69 1792.13 1826.28 1787.5 Q1830.88 1782.85 1832.06 1781.51 Q1834.31 1778.98 1835.19 1777.25 Q1836.09 1775.49 1836.09 1773.8 Q1836.09 1771.04 1834.15 1769.31 Q1832.23 1767.57 1829.12 1767.57 Q1826.93 1767.57 1824.47 1768.34 Q1822.04 1769.1 1819.26 1770.65 L1819.26 1765.93 Q1822.09 1764.79 1824.54 1764.21 Q1827 1763.64 1829.03 1763.64 Q1834.4 1763.64 1837.6 1766.32 Q1840.79 1769.01 1840.79 1773.5 Q1840.79 1775.63 1839.98 1777.55 Q1839.19 1779.45 1837.09 1782.04 Q1836.51 1782.71 1833.41 1785.93 Q1830.31 1789.12 1824.66 1794.89 Z" fill="#000000" fill-rule="evenodd" fill-opacity="1" /><path clip-path="url(#clip160)" d="M2645 1780.19 Q2648.36 1780.9 2650.24 1783.17 Q2652.13 1785.44 2652.13 1788.77 Q2652.13 1793.89 2648.61 1796.69 Q2645.1 1799.49 2638.61 1799.49 Q2636.44 1799.49 2634.12 1799.05 Q2631.83 1798.64 2629.38 1797.78 L2629.38 1793.27 Q2631.32 1794.4 2633.64 1794.98 Q2635.95 1795.56 2638.48 1795.56 Q2642.87 1795.56 2645.17 1793.82 Q2647.48 1792.08 2647.48 1788.77 Q2647.48 1785.72 2645.33 1784.01 Q2643.2 1782.27 2639.38 1782.27 L2635.35 1782.27 L2635.35 1778.43 L2639.56 1778.43 Q2643.01 1778.43 2644.84 1777.06 Q2646.67 1775.67 2646.67 1773.08 Q2646.67 1770.42 2644.77 1769.01 Q2642.9 1767.57 2639.38 1767.57 Q2637.46 1767.57 2635.26 1767.99 Q2633.06 1768.4 2630.42 1769.28 L2630.42 1765.12 Q2633.08 1764.38 2635.4 1764.01 Q2637.74 1763.64 2639.8 1763.64 Q2645.12 1763.64 2648.22 1766.07 Q2651.32 1768.47 2651.32 1772.59 Q2651.32 1775.46 2649.68 1777.46 Q2648.04 1779.42 2645 1780.19 Z" fill="#000000" fill-rule="evenodd" fill-opacity="1" /><path clip-path="url(#clip160)" d="M1254.17 1835.78 L1294.37 1835.78 L1294.37 1841.19 L1277.5 1841.19 L1277.5 1883.3 L1271.04 1883.3 L1271.04 1841.19 L1254.17 1841.19 L1254.17 1835.78 Z" fill="#000000" fill-rule="evenodd" fill-opacity="1" /><path clip-path="url(#clip160)" d="M1298.32 1847.65 L1304.17 1847.65 L1304.17 1883.3 L1298.32 1883.3 L1298.32 1847.65 M1298.32 1833.78 L1304.17 1833.78 L1304.17 1841.19 L1298.32 1841.19 L1298.32 1833.78 Z" fill="#000000" fill-rule="evenodd" fill-opacity="1" /><path clip-path="url(#clip160)" d="M1346.92 1864.01 L1346.92 1866.88 L1319.99 1866.88 Q1320.37 1872.92 1323.62 1876.11 Q1326.9 1879.26 1332.72 1879.26 Q1336.1 1879.26 1339.25 1878.43 Q1342.43 1877.6 1345.55 1875.95 L1345.55 1881.49 Q1342.4 1882.82 1339.09 1883.52 Q1335.78 1884.22 1332.37 1884.22 Q1323.84 1884.22 1318.85 1879.26 Q1313.88 1874.29 1313.88 1865.83 Q1313.88 1857.07 1318.59 1851.95 Q1323.33 1846.79 1331.36 1846.79 Q1338.55 1846.79 1342.72 1851.44 Q1346.92 1856.06 1346.92 1864.01 M1341.06 1862.29 Q1341 1857.49 1338.36 1854.62 Q1335.75 1851.76 1331.42 1851.76 Q1326.52 1851.76 1323.56 1854.53 Q1320.63 1857.3 1320.18 1862.33 L1341.06 1862.29 Z" fill="#000000" fill-rule="evenodd" fill-opacity="1" /><path clip-path="url(#clip160)" d="M1384.29 1854.5 Q1386.48 1850.55 1389.54 1848.67 Q1392.59 1846.79 1396.73 1846.79 Q1402.3 1846.79 1405.32 1850.71 Q1408.35 1854.59 1408.35 1861.78 L1408.35 1883.3 L1402.46 1883.3 L1402.46 1861.98 Q1402.46 1856.85 1400.65 1854.37 Q1398.83 1851.89 1395.11 1851.89 Q1390.56 1851.89 1387.91 1854.91 Q1385.27 1857.93 1385.27 1863.15 L1385.27 1883.3 L1379.38 1883.3 L1379.38 1861.98 Q1379.38 1856.82 1377.57 1854.37 Q1375.76 1851.89 1371.97 1851.89 Q1367.48 1851.89 1364.84 1854.94 Q1362.2 1857.97 1362.2 1863.15 L1362.2 1883.3 L1356.31 1883.3 L1356.31 1847.65 L1362.2 1847.65 L1362.2 1853.19 Q1364.2 1849.91 1367 1848.35 Q1369.8 1846.79 1373.66 1846.79 Q1377.54 1846.79 1380.24 1848.77 Q1382.98 1850.74 1384.29 1854.5 Z" fill="#000000" fill-rule="evenodd" fill-opacity="1" /><path clip-path="url(#clip160)" d="M1425.7 1877.95 L1425.7 1896.86 L1419.81 1896.86 L1419.81 1847.65 L1425.7 1847.65 L1425.7 1853.06 Q1427.54 1849.88 1430.34 1848.35 Q1433.17 1846.79 1437.09 1846.79 Q1443.58 1846.79 1447.62 1851.95 Q1451.7 1857.11 1451.7 1865.51 Q1451.7 1873.91 1447.62 1879.07 Q1443.58 1884.22 1437.09 1884.22 Q1433.17 1884.22 1430.34 1882.7 Q1427.54 1881.14 1425.7 1877.95 M1445.62 1865.51 Q1445.62 1859.05 1442.95 1855.39 Q1440.3 1851.7 1435.66 1851.7 Q1431.01 1851.7 1428.34 1855.39 Q1425.7 1859.05 1425.7 1865.51 Q1425.7 1871.97 1428.34 1875.66 Q1431.01 1879.32 1435.66 1879.32 Q1440.3 1879.32 1442.95 1875.66 Q1445.62 1871.97 1445.62 1865.51 Z" fill="#000000" fill-rule="evenodd" fill-opacity="1" /><path clip-path="url(#clip160)" d="M1475.22 1851.76 Q1470.51 1851.76 1467.77 1855.45 Q1465.04 1859.11 1465.04 1865.51 Q1465.04 1871.91 1467.74 1875.6 Q1470.48 1879.26 1475.22 1879.26 Q1479.9 1879.26 1482.64 1875.57 Q1485.37 1871.87 1485.37 1865.51 Q1485.37 1859.17 1482.64 1855.48 Q1479.9 1851.76 1475.22 1851.76 M1475.22 1846.79 Q1482.86 1846.79 1487.22 1851.76 Q1491.58 1856.72 1491.58 1865.51 Q1491.58 1874.26 1487.22 1879.26 Q1482.86 1884.22 1475.22 1884.22 Q1467.55 1884.22 1463.19 1879.26 Q1458.86 1874.26 1458.86 1865.51 Q1458.86 1856.72 1463.19 1851.76 Q1467.55 1846.79 1475.22 1846.79 Z" fill="#000000" fill-rule="evenodd" fill-opacity="1" /><path clip-path="url(#clip160)" d="M1536.08 1833.84 Q1531.81 1841.16 1529.74 1848.32 Q1527.67 1855.48 1527.67 1862.84 Q1527.67 1870.19 1529.74 1877.41 Q1531.84 1884.61 1536.08 1891.89 L1530.98 1891.89 Q1526.21 1884.41 1523.82 1877.19 Q1521.47 1869.96 1521.47 1862.84 Q1521.47 1855.74 1523.82 1848.54 Q1526.18 1841.35 1530.98 1833.84 L1536.08 1833.84 Z" fill="#000000" fill-rule="evenodd" fill-opacity="1" /><path clip-path="url(#clip160)" d="M1570.16 1848.7 L1570.16 1854.24 Q1567.68 1852.97 1565.01 1852.33 Q1562.33 1851.7 1559.47 1851.7 Q1555.11 1851.7 1552.91 1853.03 Q1550.75 1854.37 1550.75 1857.04 Q1550.75 1859.08 1552.31 1860.26 Q1553.87 1861.4 1558.58 1862.45 L1560.58 1862.9 Q1566.82 1864.24 1569.43 1866.69 Q1572.07 1869.11 1572.07 1873.47 Q1572.07 1878.43 1568.13 1881.33 Q1564.21 1884.22 1557.34 1884.22 Q1554.47 1884.22 1551.35 1883.65 Q1548.27 1883.11 1544.83 1882 L1544.83 1875.95 Q1548.08 1877.64 1551.23 1878.49 Q1554.38 1879.32 1557.47 1879.32 Q1561.6 1879.32 1563.83 1877.92 Q1566.06 1876.49 1566.06 1873.91 Q1566.06 1871.52 1564.44 1870.25 Q1562.84 1868.98 1557.4 1867.8 L1555.36 1867.32 Q1549.92 1866.18 1547.5 1863.82 Q1545.08 1861.43 1545.08 1857.3 Q1545.08 1852.27 1548.65 1849.53 Q1552.21 1846.79 1558.77 1846.79 Q1562.02 1846.79 1564.88 1847.27 Q1567.75 1847.75 1570.16 1848.7 Z" fill="#000000" fill-rule="evenodd" fill-opacity="1" /><path clip-path="url(#clip160)" d="M1580.48 1833.84 L1585.57 1833.84 Q1590.34 1841.35 1592.7 1848.54 Q1595.09 1855.74 1595.09 1862.84 Q1595.09 1869.96 1592.7 1877.19 Q1590.34 1884.41 1585.57 1891.89 L1580.48 1891.89 Q1584.71 1884.61 1586.78 1877.41 Q1588.88 1870.19 1588.88 1862.84 Q1588.88 1855.48 1586.78 1848.32 Q1584.71 1841.16 1580.48 1833.84 Z" fill="#000000" fill-rule="evenodd" fill-opacity="1" /><polyline clip-path="url(#clip162)" style="stroke:#000000; stroke-linecap:round; stroke-linejoin:round; stroke-width:2; stroke-opacity:0.1; fill:none" points="
  208.502,1734.12 2640.76,1734.12 
  "/>
<polyline clip-path="url(#clip162)" style="stroke:#000000; stroke-linecap:round; stroke-linejoin:round; stroke-width:2; stroke-opacity:0.1; fill:none" points="
  208.502,1171.83 2640.76,1171.83 
  "/>
<polyline clip-path="url(#clip162)" style="stroke:#000000; stroke-linecap:round; stroke-linejoin:round; stroke-width:2; stroke-opacity:0.1; fill:none" points="
  208.502,609.535 2640.76,609.535 
  "/>
<polyline clip-path="url(#clip162)" style="stroke:#000000; stroke-linecap:round; stroke-linejoin:round; stroke-width:2; stroke-opacity:0.1; fill:none" points="
  208.502,47.2441 2640.76,47.2441 
  "/>
<polyline clip-path="url(#clip160)" style="stroke:#000000; stroke-linecap:round; stroke-linejoin:round; stroke-width:4; stroke-opacity:1; fill:none" points="
  208.502,1734.12 208.502,47.2441 
  "/>
<polyline clip-path="url(#clip160)" style="stroke:#000000; stroke-linecap:round; stroke-linejoin:round; stroke-width:4; stroke-opacity:1; fill:none" points="
  208.502,1734.12 227.399,1734.12 
  "/>
<polyline clip-path="url(#clip160)" style="stroke:#000000; stroke-linecap:round; stroke-linejoin:round; stroke-width:4; stroke-opacity:1; fill:none" points="
  208.502,1171.83 227.399,1171.83 
  "/>
<polyline clip-path="url(#clip160)" style="stroke:#000000; stroke-linecap:round; stroke-linejoin:round; stroke-width:4; stroke-opacity:1; fill:none" points="
  208.502,609.535 227.399,609.535 
  "/>
<polyline clip-path="url(#clip160)" style="stroke:#000000; stroke-linecap:round; stroke-linejoin:round; stroke-width:4; stroke-opacity:1; fill:none" points="
  208.502,47.2441 227.399,47.2441 
  "/>
<path clip-path="url(#clip160)" d="M156.237 1719.92 Q152.626 1719.92 150.798 1723.48 Q148.992 1727.02 148.992 1734.15 Q148.992 1741.26 150.798 1744.82 Q152.626 1748.36 156.237 1748.36 Q159.872 1748.36 161.677 1744.82 Q163.506 1741.26 163.506 1734.15 Q163.506 1727.02 161.677 1723.48 Q159.872 1719.92 156.237 1719.92 M156.237 1716.21 Q162.048 1716.21 165.103 1720.82 Q168.182 1725.4 168.182 1734.15 Q168.182 1742.88 165.103 1747.48 Q162.048 1752.07 156.237 1752.07 Q150.427 1752.07 147.349 1747.48 Q144.293 1742.88 144.293 1734.15 Q144.293 1725.4 147.349 1720.82 Q150.427 1716.21 156.237 1716.21 Z" fill="#000000" fill-rule="evenodd" fill-opacity="1" /><path clip-path="url(#clip160)" d="M147.279 1154.55 L165.635 1154.55 L165.635 1158.48 L151.561 1158.48 L151.561 1166.95 Q152.58 1166.61 153.599 1166.44 Q154.617 1166.26 155.636 1166.26 Q161.423 1166.26 164.802 1169.43 Q168.182 1172.6 168.182 1178.02 Q168.182 1183.6 164.71 1186.7 Q161.237 1189.78 154.918 1189.78 Q152.742 1189.78 150.474 1189.41 Q148.228 1189.04 145.821 1188.3 L145.821 1183.6 Q147.904 1184.73 150.126 1185.29 Q152.349 1185.84 154.825 1185.84 Q158.83 1185.84 161.168 1183.74 Q163.506 1181.63 163.506 1178.02 Q163.506 1174.41 161.168 1172.3 Q158.83 1170.19 154.825 1170.19 Q152.95 1170.19 151.075 1170.61 Q149.224 1171.03 147.279 1171.91 L147.279 1154.55 Z" fill="#000000" fill-rule="evenodd" fill-opacity="1" /><path clip-path="url(#clip160)" d="M116.886 622.88 L124.525 622.88 L124.525 596.514 L116.214 598.181 L116.214 593.922 L124.478 592.255 L129.154 592.255 L129.154 622.88 L136.793 622.88 L136.793 626.815 L116.886 626.815 L116.886 622.88 Z" fill="#000000" fill-rule="evenodd" fill-opacity="1" /><path clip-path="url(#clip160)" d="M156.237 595.334 Q152.626 595.334 150.798 598.899 Q148.992 602.44 148.992 609.57 Q148.992 616.676 150.798 620.241 Q152.626 623.783 156.237 623.783 Q159.872 623.783 161.677 620.241 Q163.506 616.676 163.506 609.57 Q163.506 602.44 161.677 598.899 Q159.872 595.334 156.237 595.334 M156.237 591.63 Q162.048 591.63 165.103 596.237 Q168.182 600.82 168.182 609.57 Q168.182 618.297 165.103 622.903 Q162.048 627.486 156.237 627.486 Q150.427 627.486 147.349 622.903 Q144.293 618.297 144.293 609.57 Q144.293 600.82 147.349 596.237 Q150.427 591.63 156.237 591.63 Z" fill="#000000" fill-rule="evenodd" fill-opacity="1" /><path clip-path="url(#clip160)" d="M117.881 60.5889 L125.52 60.5889 L125.52 34.2233 L117.21 35.89 L117.21 31.6308 L125.474 29.9641 L130.15 29.9641 L130.15 60.5889 L137.788 60.5889 L137.788 64.5241 L117.881 64.5241 L117.881 60.5889 Z" fill="#000000" fill-rule="evenodd" fill-opacity="1" /><path clip-path="url(#clip160)" d="M147.279 29.9641 L165.635 29.9641 L165.635 33.8993 L151.561 33.8993 L151.561 42.3714 Q152.58 42.0242 153.599 41.8622 Q154.617 41.677 155.636 41.677 Q161.423 41.677 164.802 44.8483 Q168.182 48.0196 168.182 53.4362 Q168.182 59.0149 164.71 62.1167 Q161.237 65.1954 154.918 65.1954 Q152.742 65.1954 150.474 64.825 Q148.228 64.4547 145.821 63.7139 L145.821 59.0149 Q147.904 60.1491 150.126 60.7047 Q152.349 61.2602 154.825 61.2602 Q158.83 61.2602 161.168 59.1538 Q163.506 57.0473 163.506 53.4362 Q163.506 49.8251 161.168 47.7186 Q158.83 45.6122 154.825 45.6122 Q152.95 45.6122 151.075 46.0288 Q149.224 46.4455 147.279 47.3251 L147.279 29.9641 Z" fill="#000000" fill-rule="evenodd" fill-opacity="1" /><path clip-path="url(#clip160)" d="M20.4523 1031.55 L44.1009 1040.27 L44.1009 1022.8 L20.4523 1031.55 M14.1184 1035.18 L14.1184 1027.89 L61.6384 1009.78 L61.6384 1016.47 L49.4481 1020.8 L49.4481 1042.22 L61.6384 1046.54 L61.6384 1053.32 L14.1184 1035.18 Z" fill="#000000" fill-rule="evenodd" fill-opacity="1" /><path clip-path="url(#clip160)" d="M12.1132 1003.1 L12.1132 997.242 L61.6384 997.242 L61.6384 1003.1 L12.1132 1003.1 Z" fill="#000000" fill-rule="evenodd" fill-opacity="1" /><path clip-path="url(#clip160)" d="M15.869 979.196 L25.9905 979.196 L25.9905 967.133 L30.542 967.133 L30.542 979.196 L49.8937 979.196 Q54.2542 979.196 55.4955 978.018 Q56.7368 976.809 56.7368 973.148 L56.7368 967.133 L61.6384 967.133 L61.6384 973.148 Q61.6384 979.928 59.124 982.506 Q56.5777 985.084 49.8937 985.084 L30.542 985.084 L30.542 989.381 L25.9905 989.381 L25.9905 985.084 L15.869 985.084 L15.869 979.196 Z" fill="#000000" fill-rule="evenodd" fill-opacity="1" /><path clip-path="url(#clip160)" d="M47.5702 960.035 L25.9905 960.035 L25.9905 954.178 L47.3474 954.178 Q52.4082 954.178 54.9545 952.205 Q57.4689 950.232 57.4689 946.285 Q57.4689 941.543 54.4452 938.805 Q51.4215 936.036 46.2016 936.036 L25.9905 936.036 L25.9905 930.18 L61.6384 930.18 L61.6384 936.036 L56.1639 936.036 Q59.4104 938.169 61.0019 941.001 Q62.5615 943.802 62.5615 947.526 Q62.5615 953.669 58.742 956.852 Q54.9226 960.035 47.5702 960.035 M25.1311 945.298 L25.1311 945.298 Z" fill="#000000" fill-rule="evenodd" fill-opacity="1" /><path clip-path="url(#clip160)" d="M31.465 897.46 Q30.8921 898.447 30.6375 899.624 Q30.351 900.77 30.351 902.171 Q30.351 907.136 33.5975 909.809 Q36.8122 912.451 42.8596 912.451 L61.6384 912.451 L61.6384 918.34 L25.9905 918.34 L25.9905 912.451 L31.5287 912.451 Q28.2821 910.605 26.7225 907.645 Q25.1311 904.685 25.1311 900.452 Q25.1311 899.847 25.2266 899.115 Q25.2903 898.383 25.4494 897.492 L31.465 897.46 Z" fill="#000000" fill-rule="evenodd" fill-opacity="1" /><path clip-path="url(#clip160)" d="M43.719 875.116 Q43.719 882.214 45.3422 884.951 Q46.9655 887.689 50.8804 887.689 Q53.9996 887.689 55.8457 885.652 Q57.6599 883.583 57.6599 880.05 Q57.6599 875.18 54.2224 872.252 Q50.7531 869.292 45.0239 869.292 L43.719 869.292 L43.719 875.116 M41.3 863.435 L61.6384 863.435 L61.6384 869.292 L56.2276 869.292 Q59.4741 871.297 61.0337 874.289 Q62.5615 877.281 62.5615 881.609 Q62.5615 887.084 59.5059 890.33 Q56.4186 893.545 51.2623 893.545 Q45.2467 893.545 42.1912 889.535 Q39.1357 885.492 39.1357 877.504 L39.1357 869.292 L38.5628 869.292 Q34.5205 869.292 32.3244 871.965 Q30.0964 874.607 30.0964 879.413 Q30.0964 882.469 30.8284 885.365 Q31.5605 888.262 33.0246 890.935 L27.6137 890.935 Q26.3724 887.72 25.7677 884.697 Q25.1311 881.673 25.1311 878.808 Q25.1311 871.074 29.1415 867.255 Q33.1519 863.435 41.3 863.435 Z" fill="#000000" fill-rule="evenodd" fill-opacity="1" /><path clip-path="url(#clip160)" d="M12.1769 816.584 Q19.4975 820.849 26.6589 822.918 Q33.8203 824.986 41.1727 824.986 Q48.5251 824.986 55.7502 822.918 Q62.9434 820.817 70.2321 816.584 L70.2321 821.676 Q62.7524 826.451 55.5274 828.838 Q48.3023 831.193 41.1727 831.193 Q34.0749 831.193 26.8817 828.838 Q19.6884 826.482 12.1769 821.676 L12.1769 816.584 Z" fill="#000000" fill-rule="evenodd" fill-opacity="1" /><path clip-path="url(#clip160)" d="M32.8336 777.466 Q28.8869 775.27 27.009 772.215 Q25.1311 769.159 25.1311 765.021 Q25.1311 759.451 29.046 756.428 Q32.9291 753.404 40.1224 753.404 L61.6384 753.404 L61.6384 759.292 L40.3133 759.292 Q35.1889 759.292 32.7063 761.107 Q30.2237 762.921 30.2237 766.645 Q30.2237 771.196 33.2474 773.838 Q36.2711 776.48 41.491 776.48 L61.6384 776.48 L61.6384 782.368 L40.3133 782.368 Q35.1571 782.368 32.7063 784.182 Q30.2237 785.996 30.2237 789.784 Q30.2237 794.272 33.2792 796.914 Q36.3029 799.555 41.491 799.555 L61.6384 799.555 L61.6384 805.444 L25.9905 805.444 L25.9905 799.555 L31.5287 799.555 Q28.2503 797.55 26.6907 794.749 Q25.1311 791.948 25.1311 788.097 Q25.1311 784.214 27.1045 781.509 Q29.0779 778.771 32.8336 777.466 Z" fill="#000000" fill-rule="evenodd" fill-opacity="1" /><path clip-path="url(#clip160)" d="M12.1769 742.646 L12.1769 737.553 Q19.6884 732.779 26.8817 730.424 Q34.0749 728.037 41.1727 728.037 Q48.3023 728.037 55.5274 730.424 Q62.7524 732.779 70.2321 737.553 L70.2321 742.646 Q62.9434 738.413 55.7502 736.344 Q48.5251 734.243 41.1727 734.243 Q33.8203 734.243 26.6589 736.344 Q19.4975 738.413 12.1769 742.646 Z" fill="#000000" fill-rule="evenodd" fill-opacity="1" /><polyline clip-path="url(#clip162)" style="stroke:#009af9; stroke-linecap:round; stroke-linejoin:round; stroke-width:4; stroke-opacity:1; fill:none" points="
  208.502,1171.83 212.461,1166.35 216.419,1160.9 220.378,1155.47 224.337,1150.07 260.942,1101.39 297.547,1054.96 334.152,1010.77 370.757,968.834 414.754,921.399 
  458.75,877.21 495.948,842.38 533.146,809.871 573.554,777.185 613.962,747.237 651.214,722.053 688.466,699.195 728.405,677.274 768.343,658.027 814.616,639.072 
  860.889,623.707 902.01,613.065 943.132,605.259 979.192,600.746 1015.25,598.414 1054.57,598.355 1093.88,600.888 1133.43,606.051 1172.98,613.836 1216.71,625.496 
  1260.43,640.361 1302.04,657.482 1343.64,677.505 1386.9,701.401 1430.16,728.435 1466.57,753.624 1502.99,781.037 1547.45,817.518 1591.9,857.314 1632.63,896.677 
  1673.36,938.822 1710.97,980.216 1748.59,1023.98 1786.69,1070.73 1824.79,1119.92 1867.49,1177.94 1910.19,1239.01 1948.89,1297 1987.58,1357.49 2031.88,1429.83 
  2076.19,1505.47 2117.21,1578.43 2158.23,1654.22 2198.67,1731.7 2239.11,1811.92 2278.38,1892.43 2317.64,1975.52 2357.89,2063.39 2398.14,2153.97 2442.24,2256.34 
  2486.34,2361.96 2550.41,2521.21 2614.47,2687.33 2627.61,2722.27 2640.76,2757.49 
  "/>
<polyline clip-path="url(#clip162)" style="stroke:#e26f46; stroke-linecap:round; stroke-linejoin:round; stroke-width:4; stroke-opacity:1; fill:none" points="
  208.502,834.451 224.337,838.844 370.757,879.464 458.75,903.875 533.146,924.513 613.962,946.933 688.466,967.602 768.343,989.761 860.889,1015.43 943.132,1038.25 
  1015.25,1058.26 1093.88,1080.07 1172.98,1102.01 1260.43,1126.27 1343.64,1149.36 1430.16,1173.36 1502.99,1193.56 1591.9,1218.23 1673.36,1240.83 1748.59,1261.7 
  1824.79,1282.84 1910.19,1306.53 1987.58,1328 2076.19,1352.58 2158.23,1375.34 2239.11,1397.78 2317.64,1419.56 2398.14,1441.9 2486.34,1466.36 2614.47,1501.91 
  2640.76,1509.2 
  "/>
<circle clip-path="url(#clip162)" cx="437.631" cy="898.016" r="14.4" fill="#3da44d" fill-rule="evenodd" fill-opacity="1" stroke="#000000" stroke-opacity="1" stroke-width="3.84"/>
<circle clip-path="url(#clip162)" cx="1964.89" cy="1321.7" r="14.4" fill="#3da44d" fill-rule="evenodd" fill-opacity="1" stroke="#000000" stroke-opacity="1" stroke-width="3.84"/>
<path clip-path="url(#clip160)" d="
M2008.62 310.833 L2559.68 310.833 L2559.68 103.473 L2008.62 103.473  Z
  " fill="#ffffff" fill-rule="evenodd" fill-opacity="1"/>
<polyline clip-path="url(#clip160)" style="stroke:#000000; stroke-linecap:round; stroke-linejoin:round; stroke-width:4; stroke-opacity:1; fill:none" points="
  2008.62,310.833 2559.68,310.833 2559.68,103.473 2008.62,103.473 2008.62,310.833 
  "/>
<polyline clip-path="url(#clip160)" style="stroke:#009af9; stroke-linecap:round; stroke-linejoin:round; stroke-width:4; stroke-opacity:1; fill:none" points="
  2035.65,155.313 2197.8,155.313 
  "/>
<path clip-path="url(#clip160)" d="M2229.5 141.876 L2229.5 154.862 L2235.38 154.862 Q2238.64 154.862 2240.42 153.172 Q2242.21 151.482 2242.21 148.357 Q2242.21 145.255 2240.42 143.566 Q2238.64 141.876 2235.38 141.876 L2229.5 141.876 M2224.82 138.033 L2235.38 138.033 Q2241.19 138.033 2244.15 140.672 Q2247.14 143.288 2247.14 148.357 Q2247.14 153.473 2244.15 156.089 Q2241.19 158.704 2235.38 158.704 L2229.5 158.704 L2229.5 172.593 L2224.82 172.593 L2224.82 138.033 Z" fill="#000000" fill-rule="evenodd" fill-opacity="1" /><path clip-path="url(#clip160)" d="M2273.71 158.565 L2273.71 160.649 L2254.13 160.649 Q2254.41 165.047 2256.77 167.362 Q2259.15 169.653 2263.39 169.653 Q2265.84 169.653 2268.13 169.052 Q2270.45 168.45 2272.72 167.246 L2272.72 171.274 Q2270.42 172.246 2268.02 172.755 Q2265.61 173.264 2263.13 173.264 Q2256.93 173.264 2253.29 169.653 Q2249.68 166.042 2249.68 159.885 Q2249.68 153.519 2253.11 149.792 Q2256.56 146.042 2262.39 146.042 Q2267.62 146.042 2270.66 149.422 Q2273.71 152.778 2273.71 158.565 M2269.45 157.315 Q2269.41 153.82 2267.48 151.737 Q2265.59 149.653 2262.44 149.653 Q2258.87 149.653 2256.72 151.667 Q2254.59 153.681 2254.27 157.339 L2269.45 157.315 Z" fill="#000000" fill-rule="evenodd" fill-opacity="1" /><path clip-path="url(#clip160)" d="M2280.7 136.575 L2284.96 136.575 L2284.96 172.593 L2280.7 172.593 L2280.7 136.575 Z" fill="#000000" fill-rule="evenodd" fill-opacity="1" /><path clip-path="url(#clip160)" d="M2303.92 149.653 Q2300.49 149.653 2298.5 152.339 Q2296.51 155.001 2296.51 159.653 Q2296.51 164.306 2298.48 166.991 Q2300.47 169.653 2303.92 169.653 Q2307.32 169.653 2309.31 166.968 Q2311.3 164.283 2311.3 159.653 Q2311.3 155.047 2309.31 152.362 Q2307.32 149.653 2303.92 149.653 M2303.92 146.042 Q2309.47 146.042 2312.65 149.653 Q2315.82 153.265 2315.82 159.653 Q2315.82 166.019 2312.65 169.653 Q2309.47 173.264 2303.92 173.264 Q2298.34 173.264 2295.17 169.653 Q2292.02 166.019 2292.02 159.653 Q2292.02 153.265 2295.17 149.653 Q2298.34 146.042 2303.92 146.042 Z" fill="#000000" fill-rule="evenodd" fill-opacity="1" /><path clip-path="url(#clip160)" d="M2327.09 139.306 L2327.09 146.667 L2335.86 146.667 L2335.86 149.978 L2327.09 149.978 L2327.09 164.052 Q2327.09 167.223 2327.95 168.126 Q2328.83 169.028 2331.49 169.028 L2335.86 169.028 L2335.86 172.593 L2331.49 172.593 Q2326.56 172.593 2324.68 170.764 Q2322.81 168.913 2322.81 164.052 L2322.81 149.978 L2319.68 149.978 L2319.68 146.667 L2322.81 146.667 L2322.81 139.306 L2327.09 139.306 Z" fill="#000000" fill-rule="evenodd" fill-opacity="1" /><path clip-path="url(#clip160)" d="M2353.25 159.561 Q2348.09 159.561 2346.09 160.741 Q2344.1 161.922 2344.1 164.769 Q2344.1 167.038 2345.59 168.38 Q2347.09 169.7 2349.66 169.7 Q2353.2 169.7 2355.33 167.2 Q2357.48 164.677 2357.48 160.51 L2357.48 159.561 L2353.25 159.561 M2361.74 157.802 L2361.74 172.593 L2357.48 172.593 L2357.48 168.658 Q2356.02 171.019 2353.85 172.153 Q2351.67 173.264 2348.53 173.264 Q2344.54 173.264 2342.18 171.042 Q2339.84 168.797 2339.84 165.047 Q2339.84 160.672 2342.76 158.45 Q2345.7 156.228 2351.51 156.228 L2357.48 156.228 L2357.48 155.811 Q2357.48 152.871 2355.54 151.274 Q2353.62 149.653 2350.12 149.653 Q2347.9 149.653 2345.79 150.186 Q2343.69 150.718 2341.74 151.783 L2341.74 147.848 Q2344.08 146.945 2346.28 146.505 Q2348.48 146.042 2350.56 146.042 Q2356.19 146.042 2358.96 148.959 Q2361.74 151.876 2361.74 157.802 Z" fill="#000000" fill-rule="evenodd" fill-opacity="1" /><polyline clip-path="url(#clip160)" style="stroke:#e26f46; stroke-linecap:round; stroke-linejoin:round; stroke-width:4; stroke-opacity:1; fill:none" points="
  2035.65,207.153 2197.8,207.153 
  "/>
<path clip-path="url(#clip160)" d="M2240.66 194.48 L2234.31 211.679 L2247.02 211.679 L2240.66 194.48 M2238.02 189.873 L2243.32 189.873 L2256.49 224.433 L2251.63 224.433 L2248.48 215.567 L2232.9 215.567 L2229.75 224.433 L2224.82 224.433 L2238.02 189.873 Z" fill="#000000" fill-rule="evenodd" fill-opacity="1" /><path clip-path="url(#clip160)" d="M2277.88 199.271 L2277.88 203.299 Q2276.07 202.373 2274.13 201.91 Q2272.18 201.447 2270.1 201.447 Q2266.93 201.447 2265.33 202.419 Q2263.76 203.392 2263.76 205.336 Q2263.76 206.818 2264.89 207.674 Q2266.03 208.507 2269.45 209.271 L2270.91 209.595 Q2275.45 210.568 2277.34 212.35 Q2279.27 214.109 2279.27 217.28 Q2279.27 220.892 2276.4 222.998 Q2273.55 225.104 2268.55 225.104 Q2266.47 225.104 2264.2 224.688 Q2261.95 224.294 2259.45 223.484 L2259.45 219.086 Q2261.81 220.313 2264.1 220.938 Q2266.4 221.54 2268.64 221.54 Q2271.65 221.54 2273.27 220.521 Q2274.89 219.48 2274.89 217.605 Q2274.89 215.868 2273.71 214.943 Q2272.55 214.017 2268.59 213.16 L2267.11 212.813 Q2263.16 211.98 2261.4 210.267 Q2259.64 208.53 2259.64 205.521 Q2259.64 201.864 2262.23 199.873 Q2264.82 197.882 2269.59 197.882 Q2271.95 197.882 2274.03 198.23 Q2276.12 198.577 2277.88 199.271 Z" fill="#000000" fill-rule="evenodd" fill-opacity="1" /><path clip-path="url(#clip160)" d="M2304.71 199.503 L2304.71 203.484 Q2302.9 202.489 2301.07 202.003 Q2299.27 201.493 2297.41 201.493 Q2293.27 201.493 2290.98 204.132 Q2288.69 206.748 2288.69 211.493 Q2288.69 216.239 2290.98 218.878 Q2293.27 221.493 2297.41 221.493 Q2299.27 221.493 2301.07 221.007 Q2302.9 220.498 2304.71 219.503 L2304.71 223.438 Q2302.92 224.271 2301 224.688 Q2299.1 225.104 2296.95 225.104 Q2291.09 225.104 2287.65 221.424 Q2284.2 217.743 2284.2 211.493 Q2284.2 205.151 2287.67 201.517 Q2291.16 197.882 2297.23 197.882 Q2299.2 197.882 2301.07 198.299 Q2302.95 198.693 2304.71 199.503 Z" fill="#000000" fill-rule="evenodd" fill-opacity="1" /><path clip-path="url(#clip160)" d="M2334.29 210.405 L2334.29 212.489 L2314.71 212.489 Q2314.98 216.887 2317.34 219.202 Q2319.73 221.493 2323.96 221.493 Q2326.42 221.493 2328.71 220.892 Q2331.03 220.29 2333.29 219.086 L2333.29 223.114 Q2331 224.086 2328.59 224.595 Q2326.19 225.104 2323.71 225.104 Q2317.51 225.104 2313.87 221.493 Q2310.26 217.882 2310.26 211.725 Q2310.26 205.359 2313.69 201.632 Q2317.14 197.882 2322.97 197.882 Q2328.2 197.882 2331.23 201.262 Q2334.29 204.618 2334.29 210.405 M2330.03 209.155 Q2329.98 205.66 2328.06 203.577 Q2326.16 201.493 2323.02 201.493 Q2319.45 201.493 2317.3 203.507 Q2315.17 205.521 2314.84 209.179 L2330.03 209.155 Z" fill="#000000" fill-rule="evenodd" fill-opacity="1" /><path clip-path="url(#clip160)" d="M2362.83 208.785 L2362.83 224.433 L2358.57 224.433 L2358.57 208.924 Q2358.57 205.243 2357.14 203.415 Q2355.7 201.586 2352.83 201.586 Q2349.38 201.586 2347.39 203.785 Q2345.4 205.984 2345.4 209.78 L2345.4 224.433 L2341.12 224.433 L2341.12 198.507 L2345.4 198.507 L2345.4 202.535 Q2346.93 200.197 2348.99 199.04 Q2351.07 197.882 2353.78 197.882 Q2358.25 197.882 2360.54 200.66 Q2362.83 203.415 2362.83 208.785 Z" fill="#000000" fill-rule="evenodd" fill-opacity="1" /><path clip-path="url(#clip160)" d="M2387.85 199.271 L2387.85 203.299 Q2386.05 202.373 2384.1 201.91 Q2382.16 201.447 2380.08 201.447 Q2376.9 201.447 2375.31 202.419 Q2373.73 203.392 2373.73 205.336 Q2373.73 206.818 2374.87 207.674 Q2376 208.507 2379.43 209.271 L2380.89 209.595 Q2385.42 210.568 2387.32 212.35 Q2389.24 214.109 2389.24 217.28 Q2389.24 220.892 2386.37 222.998 Q2383.52 225.104 2378.52 225.104 Q2376.44 225.104 2374.17 224.688 Q2371.93 224.294 2369.43 223.484 L2369.43 219.086 Q2371.79 220.313 2374.08 220.938 Q2376.37 221.54 2378.62 221.54 Q2381.63 221.54 2383.25 220.521 Q2384.87 219.48 2384.87 217.605 Q2384.87 215.868 2383.69 214.943 Q2382.53 214.017 2378.57 213.16 L2377.09 212.813 Q2373.13 211.98 2371.37 210.267 Q2369.61 208.53 2369.61 205.521 Q2369.61 201.864 2372.21 199.873 Q2374.8 197.882 2379.57 197.882 Q2381.93 197.882 2384.01 198.23 Q2386.09 198.577 2387.85 199.271 Z" fill="#000000" fill-rule="evenodd" fill-opacity="1" /><path clip-path="url(#clip160)" d="M2406.07 201.493 Q2402.65 201.493 2400.65 204.179 Q2398.66 206.841 2398.66 211.493 Q2398.66 216.146 2400.63 218.831 Q2402.62 221.493 2406.07 221.493 Q2409.47 221.493 2411.46 218.808 Q2413.46 216.123 2413.46 211.493 Q2413.46 206.887 2411.46 204.202 Q2409.47 201.493 2406.07 201.493 M2406.07 197.882 Q2411.63 197.882 2414.8 201.493 Q2417.97 205.105 2417.97 211.493 Q2417.97 217.859 2414.8 221.493 Q2411.63 225.104 2406.07 225.104 Q2400.49 225.104 2397.32 221.493 Q2394.17 217.859 2394.17 211.493 Q2394.17 205.105 2397.32 201.493 Q2400.49 197.882 2406.07 197.882 Z" fill="#000000" fill-rule="evenodd" fill-opacity="1" /><path clip-path="url(#clip160)" d="M2440.05 202.489 Q2439.33 202.072 2438.48 201.887 Q2437.64 201.679 2436.63 201.679 Q2433.02 201.679 2431.07 204.04 Q2429.15 206.378 2429.15 210.776 L2429.15 224.433 L2424.87 224.433 L2424.87 198.507 L2429.15 198.507 L2429.15 202.535 Q2430.49 200.174 2432.64 199.04 Q2434.8 197.882 2437.88 197.882 Q2438.32 197.882 2438.85 197.952 Q2439.38 197.998 2440.03 198.114 L2440.05 202.489 Z" fill="#000000" fill-rule="evenodd" fill-opacity="1" /><circle clip-path="url(#clip160)" cx="2116.72" cy="258.993" r="23.04" fill="#3da44d" fill-rule="evenodd" fill-opacity="1" stroke="#000000" stroke-opacity="1" stroke-width="6.144"/>
<path clip-path="url(#clip160)" d="M2224.82 241.713 L2229.5 241.713 L2229.5 276.273 L2224.82 276.273 L2224.82 241.713 Z" fill="#000000" fill-rule="evenodd" fill-opacity="1" /><path clip-path="url(#clip160)" d="M2260.17 260.625 L2260.17 276.273 L2255.91 276.273 L2255.91 260.764 Q2255.91 257.083 2254.47 255.255 Q2253.04 253.426 2250.17 253.426 Q2246.72 253.426 2244.73 255.625 Q2242.74 257.824 2242.74 261.62 L2242.74 276.273 L2238.46 276.273 L2238.46 250.347 L2242.74 250.347 L2242.74 254.375 Q2244.27 252.037 2246.33 250.88 Q2248.41 249.722 2251.12 249.722 Q2255.59 249.722 2257.88 252.5 Q2260.17 255.255 2260.17 260.625 Z" fill="#000000" fill-rule="evenodd" fill-opacity="1" /><path clip-path="url(#clip160)" d="M2272.88 242.986 L2272.88 250.347 L2281.65 250.347 L2281.65 253.658 L2272.88 253.658 L2272.88 267.732 Q2272.88 270.903 2273.73 271.806 Q2274.61 272.708 2277.28 272.708 L2281.65 272.708 L2281.65 276.273 L2277.28 276.273 Q2272.34 276.273 2270.47 274.444 Q2268.59 272.593 2268.59 267.732 L2268.59 253.658 L2265.47 253.658 L2265.47 250.347 L2268.59 250.347 L2268.59 242.986 L2272.88 242.986 Z" fill="#000000" fill-rule="evenodd" fill-opacity="1" /><path clip-path="url(#clip160)" d="M2309.43 262.245 L2309.43 264.329 L2289.84 264.329 Q2290.12 268.727 2292.48 271.042 Q2294.87 273.333 2299.1 273.333 Q2301.56 273.333 2303.85 272.732 Q2306.16 272.13 2308.43 270.926 L2308.43 274.954 Q2306.14 275.926 2303.73 276.435 Q2301.33 276.944 2298.85 276.944 Q2292.65 276.944 2289.01 273.333 Q2285.4 269.722 2285.4 263.565 Q2285.4 257.199 2288.83 253.472 Q2292.28 249.722 2298.11 249.722 Q2303.34 249.722 2306.37 253.102 Q2309.43 256.458 2309.43 262.245 M2305.17 260.995 Q2305.12 257.5 2303.2 255.417 Q2301.3 253.333 2298.15 253.333 Q2294.59 253.333 2292.44 255.347 Q2290.31 257.361 2289.98 261.019 L2305.17 260.995 Z" fill="#000000" fill-rule="evenodd" fill-opacity="1" /><path clip-path="url(#clip160)" d="M2331.44 254.329 Q2330.72 253.912 2329.87 253.727 Q2329.03 253.519 2328.02 253.519 Q2324.4 253.519 2322.46 255.88 Q2320.54 258.218 2320.54 262.616 L2320.54 276.273 L2316.26 276.273 L2316.26 250.347 L2320.54 250.347 L2320.54 254.375 Q2321.88 252.014 2324.03 250.88 Q2326.19 249.722 2329.27 249.722 Q2329.71 249.722 2330.24 249.792 Q2330.77 249.838 2331.42 249.954 L2331.44 254.329 Z" fill="#000000" fill-rule="evenodd" fill-opacity="1" /><path clip-path="url(#clip160)" d="M2352.44 251.111 L2352.44 255.139 Q2350.63 254.213 2348.69 253.75 Q2346.74 253.287 2344.66 253.287 Q2341.49 253.287 2339.89 254.259 Q2338.32 255.232 2338.32 257.176 Q2338.32 258.658 2339.45 259.514 Q2340.59 260.347 2344.01 261.111 L2345.47 261.435 Q2350.01 262.408 2351.9 264.19 Q2353.83 265.949 2353.83 269.12 Q2353.83 272.732 2350.96 274.838 Q2348.11 276.944 2343.11 276.944 Q2341.03 276.944 2338.76 276.528 Q2336.51 276.134 2334.01 275.324 L2334.01 270.926 Q2336.37 272.153 2338.66 272.778 Q2340.96 273.38 2343.2 273.38 Q2346.21 273.38 2347.83 272.361 Q2349.45 271.32 2349.45 269.445 Q2349.45 267.708 2348.27 266.783 Q2347.11 265.857 2343.15 265 L2341.67 264.653 Q2337.71 263.82 2335.96 262.107 Q2334.2 260.37 2334.2 257.361 Q2334.2 253.704 2336.79 251.713 Q2339.38 249.722 2344.15 249.722 Q2346.51 249.722 2348.59 250.07 Q2350.68 250.417 2352.44 251.111 Z" fill="#000000" fill-rule="evenodd" fill-opacity="1" /><path clip-path="url(#clip160)" d="M2382.78 262.245 L2382.78 264.329 L2363.2 264.329 Q2363.48 268.727 2365.84 271.042 Q2368.22 273.333 2372.46 273.333 Q2374.91 273.333 2377.21 272.732 Q2379.52 272.13 2381.79 270.926 L2381.79 274.954 Q2379.5 275.926 2377.09 276.435 Q2374.68 276.944 2372.21 276.944 Q2366 276.944 2362.37 273.333 Q2358.76 269.722 2358.76 263.565 Q2358.76 257.199 2362.18 253.472 Q2365.63 249.722 2371.46 249.722 Q2376.7 249.722 2379.73 253.102 Q2382.78 256.458 2382.78 262.245 M2378.52 260.995 Q2378.48 257.5 2376.56 255.417 Q2374.66 253.333 2371.51 253.333 Q2367.95 253.333 2365.79 255.347 Q2363.66 257.361 2363.34 261.019 L2378.52 260.995 Z" fill="#000000" fill-rule="evenodd" fill-opacity="1" /><path clip-path="url(#clip160)" d="M2408.43 251.343 L2408.43 255.324 Q2406.63 254.329 2404.8 253.843 Q2402.99 253.333 2401.14 253.333 Q2397 253.333 2394.71 255.972 Q2392.41 258.588 2392.41 263.333 Q2392.41 268.079 2394.71 270.718 Q2397 273.333 2401.14 273.333 Q2402.99 273.333 2404.8 272.847 Q2406.63 272.338 2408.43 271.343 L2408.43 275.278 Q2406.65 276.111 2404.73 276.528 Q2402.83 276.944 2400.68 276.944 Q2394.82 276.944 2391.37 273.264 Q2387.92 269.583 2387.92 263.333 Q2387.92 256.991 2391.4 253.357 Q2394.89 249.722 2400.96 249.722 Q2402.92 249.722 2404.8 250.139 Q2406.67 250.533 2408.43 251.343 Z" fill="#000000" fill-rule="evenodd" fill-opacity="1" /><path clip-path="url(#clip160)" d="M2434.5 251.343 L2434.5 255.324 Q2432.69 254.329 2430.86 253.843 Q2429.06 253.333 2427.21 253.333 Q2423.06 253.333 2420.77 255.972 Q2418.48 258.588 2418.48 263.333 Q2418.48 268.079 2420.77 270.718 Q2423.06 273.333 2427.21 273.333 Q2429.06 273.333 2430.86 272.847 Q2432.69 272.338 2434.5 271.343 L2434.5 275.278 Q2432.71 276.111 2430.79 276.528 Q2428.89 276.944 2426.74 276.944 Q2420.89 276.944 2417.44 273.264 Q2413.99 269.583 2413.99 263.333 Q2413.99 256.991 2417.46 253.357 Q2420.96 249.722 2427.02 249.722 Q2428.99 249.722 2430.86 250.139 Q2432.74 250.533 2434.5 251.343 Z" fill="#000000" fill-rule="evenodd" fill-opacity="1" /><path clip-path="url(#clip160)" d="M2441.9 250.347 L2446.16 250.347 L2446.16 276.273 L2441.9 276.273 L2441.9 250.347 M2441.9 240.255 L2446.16 240.255 L2446.16 245.648 L2441.9 245.648 L2441.9 240.255 Z" fill="#000000" fill-rule="evenodd" fill-opacity="1" /><path clip-path="url(#clip160)" d="M2465.12 253.333 Q2461.7 253.333 2459.7 256.019 Q2457.71 258.681 2457.71 263.333 Q2457.71 267.986 2459.68 270.671 Q2461.67 273.333 2465.12 273.333 Q2468.52 273.333 2470.52 270.648 Q2472.51 267.963 2472.51 263.333 Q2472.51 258.727 2470.52 256.042 Q2468.52 253.333 2465.12 253.333 M2465.12 249.722 Q2470.68 249.722 2473.85 253.333 Q2477.02 256.945 2477.02 263.333 Q2477.02 269.699 2473.85 273.333 Q2470.68 276.944 2465.12 276.944 Q2459.54 276.944 2456.37 273.333 Q2453.22 269.699 2453.22 263.333 Q2453.22 256.945 2456.37 253.333 Q2459.54 249.722 2465.12 249.722 M2468.34 238.357 L2472.95 238.357 L2465.4 247.06 L2461.86 247.06 L2468.34 238.357 Z" fill="#000000" fill-rule="evenodd" fill-opacity="1" /><path clip-path="url(#clip160)" d="M2505.63 260.625 L2505.63 276.273 L2501.37 276.273 L2501.37 260.764 Q2501.37 257.083 2499.94 255.255 Q2498.5 253.426 2495.63 253.426 Q2492.18 253.426 2490.19 255.625 Q2488.2 257.824 2488.2 261.62 L2488.2 276.273 L2483.92 276.273 L2483.92 250.347 L2488.2 250.347 L2488.2 254.375 Q2489.73 252.037 2491.79 250.88 Q2493.87 249.722 2496.58 249.722 Q2501.05 249.722 2503.34 252.5 Q2505.63 255.255 2505.63 260.625 Z" fill="#000000" fill-rule="evenodd" fill-opacity="1" /></svg>
