<?xml version="1.0" encoding="utf-8"?>
<svg xmlns="http://www.w3.org/2000/svg" xmlns:xlink="http://www.w3.org/1999/xlink" width="672" height="480" viewBox="0 0 2688 1920">
<defs>
  <clipPath id="clip080">
    <rect x="0" y="0" width="2688" height="1920"/>
  </clipPath>
</defs>
<path clip-path="url(#clip080)" d="
M0 1920 L2688 1920 L2688 0 L0 0  Z
  " fill="#ffffff" fill-rule="evenodd" fill-opacity="1"/>
<defs>
  <clipPath id="clip081">
    <rect x="537" y="0" width="1883" height="1883"/>
  </clipPath>
</defs>
<defs>
  <clipPath id="clip082">
    <rect x="152" y="190" width="2490" height="1468"/>
  </clipPath>
</defs>
<path clip-path="url(#clip080)" d="
M115.057 1800.78 L2640.76 1800.78 L2640.76 47.2441 L115.057 47.2441  Z
  " fill="#ffffff" fill-rule="evenodd" fill-opacity="1"/>
<defs>
  <clipPath id="clip083">
    <rect x="115" y="47" width="2527" height="1755"/>
  </clipPath>
</defs>
<polyline clip-path="url(#clip083)" style="stroke:#000000; stroke-linecap:round; stroke-linejoin:round; stroke-width:2; stroke-opacity:0.1; fill:none" points="
  186.539,1800.78 186.539,47.2441 
  "/>
<polyline clip-path="url(#clip083)" style="stroke:#000000; stroke-linecap:round; stroke-linejoin:round; stroke-width:2; stroke-opacity:0.1; fill:none" points="
  782.223,1800.78 782.223,47.2441 
  "/>
<polyline clip-path="url(#clip083)" style="stroke:#000000; stroke-linecap:round; stroke-linejoin:round; stroke-width:2; stroke-opacity:0.1; fill:none" points="
  1377.91,1800.78 1377.91,47.2441 
  "/>
<polyline clip-path="url(#clip083)" style="stroke:#000000; stroke-linecap:round; stroke-linejoin:round; stroke-width:2; stroke-opacity:0.1; fill:none" points="
  1973.59,1800.78 1973.59,47.2441 
  "/>
<polyline clip-path="url(#clip083)" style="stroke:#000000; stroke-linecap:round; stroke-linejoin:round; stroke-width:2; stroke-opacity:0.1; fill:none" points="
  2569.27,1800.78 2569.27,47.2441 
  "/>
<polyline clip-path="url(#clip080)" style="stroke:#000000; stroke-linecap:round; stroke-linejoin:round; stroke-width:4; stroke-opacity:1; fill:none" points="
  115.057,1800.78 2640.76,1800.78 
  "/>
<polyline clip-path="url(#clip080)" style="stroke:#000000; stroke-linecap:round; stroke-linejoin:round; stroke-width:4; stroke-opacity:1; fill:none" points="
  186.539,1800.78 186.539,1781.88 
  "/>
<polyline clip-path="url(#clip080)" style="stroke:#000000; stroke-linecap:round; stroke-linejoin:round; stroke-width:4; stroke-opacity:1; fill:none" points="
  782.223,1800.78 782.223,1781.88 
  "/>
<polyline clip-path="url(#clip080)" style="stroke:#000000; stroke-linecap:round; stroke-linejoin:round; stroke-width:4; stroke-opacity:1; fill:none" points="
  1377.91,1800.78 1377.91,1781.88 
  "/>
<polyline clip-path="url(#clip080)" style="stroke:#000000; stroke-linecap:round; stroke-linejoin:round; stroke-width:4; stroke-opacity:1; fill:none" points="
  1973.59,1800.78 1973.59,1781.88 
  "/>
<polyline clip-path="url(#clip080)" style="stroke:#000000; stroke-linecap:round; stroke-linejoin:round; stroke-width:4; stroke-opacity:1; fill:none" points="
  2569.27,1800.78 2569.27,1781.88 
  "/>
<path clip-path="url(#clip080)" d="M156.482 1848.65 L186.157 1848.65 L186.157 1852.59 L156.482 1852.59 L156.482 1848.65 Z" fill="#000000" fill-rule="evenodd" fill-opacity="1" /><path clip-path="url(#clip080)" d="M200.278 1861.55 L216.597 1861.55 L216.597 1865.48 L194.653 1865.48 L194.653 1861.55 Q197.315 1858.79 201.898 1854.16 Q206.504 1849.51 207.685 1848.17 Q209.93 1845.65 210.81 1843.91 Q211.713 1842.15 211.713 1840.46 Q211.713 1837.71 209.768 1835.97 Q207.847 1834.23 204.745 1834.23 Q202.546 1834.23 200.092 1835 Q197.662 1835.76 194.884 1837.31 L194.884 1832.59 Q197.708 1831.46 200.162 1830.88 Q202.616 1830.3 204.653 1830.3 Q210.023 1830.3 213.217 1832.98 Q216.412 1835.67 216.412 1840.16 Q216.412 1842.29 215.602 1844.21 Q214.815 1846.11 212.708 1848.7 Q212.129 1849.37 209.028 1852.59 Q205.926 1855.78 200.278 1861.55 Z" fill="#000000" fill-rule="evenodd" fill-opacity="1" /><path clip-path="url(#clip080)" d="M751.98 1848.65 L781.656 1848.65 L781.656 1852.59 L751.98 1852.59 L751.98 1848.65 Z" fill="#000000" fill-rule="evenodd" fill-opacity="1" /><path clip-path="url(#clip080)" d="M792.558 1861.55 L800.197 1861.55 L800.197 1835.18 L791.887 1836.85 L791.887 1832.59 L800.151 1830.92 L804.827 1830.92 L804.827 1861.55 L812.466 1861.55 L812.466 1865.48 L792.558 1865.48 L792.558 1861.55 Z" fill="#000000" fill-rule="evenodd" fill-opacity="1" /><path clip-path="url(#clip080)" d="M1377.91 1834 Q1374.3 1834 1372.47 1837.57 Q1370.66 1841.11 1370.66 1848.24 Q1370.66 1855.34 1372.47 1858.91 Q1374.3 1862.45 1377.91 1862.45 Q1381.54 1862.45 1383.35 1858.91 Q1385.18 1855.34 1385.18 1848.24 Q1385.18 1841.11 1383.35 1837.57 Q1381.54 1834 1377.91 1834 M1377.91 1830.3 Q1383.72 1830.3 1386.77 1834.9 Q1389.85 1839.49 1389.85 1848.24 Q1389.85 1856.96 1386.77 1861.57 Q1383.72 1866.15 1377.91 1866.15 Q1372.1 1866.15 1369.02 1861.57 Q1365.96 1856.96 1365.96 1848.24 Q1365.96 1839.49 1369.02 1834.9 Q1372.1 1830.3 1377.91 1830.3 Z" fill="#000000" fill-rule="evenodd" fill-opacity="1" /><path clip-path="url(#clip080)" d="M1963.97 1861.55 L1971.61 1861.55 L1971.61 1835.18 L1963.3 1836.85 L1963.3 1832.59 L1971.56 1830.92 L1976.24 1830.92 L1976.24 1861.55 L1983.88 1861.55 L1983.88 1865.48 L1963.97 1865.48 L1963.97 1861.55 Z" fill="#000000" fill-rule="evenodd" fill-opacity="1" /><path clip-path="url(#clip080)" d="M2563.93 1861.55 L2580.25 1861.55 L2580.25 1865.48 L2558.3 1865.48 L2558.3 1861.55 Q2560.96 1858.79 2565.55 1854.16 Q2570.15 1849.51 2571.33 1848.17 Q2573.58 1845.65 2574.46 1843.91 Q2575.36 1842.15 2575.36 1840.46 Q2575.36 1837.71 2573.42 1835.97 Q2571.5 1834.23 2568.39 1834.23 Q2566.2 1834.23 2563.74 1835 Q2561.31 1835.76 2558.53 1837.31 L2558.53 1832.59 Q2561.36 1831.46 2563.81 1830.88 Q2566.26 1830.3 2568.3 1830.3 Q2573.67 1830.3 2576.87 1832.98 Q2580.06 1835.67 2580.06 1840.16 Q2580.06 1842.29 2579.25 1844.21 Q2578.46 1846.11 2576.36 1848.7 Q2575.78 1849.37 2572.68 1852.59 Q2569.57 1855.78 2563.93 1861.55 Z" fill="#000000" fill-rule="evenodd" fill-opacity="1" /><polyline clip-path="url(#clip083)" style="stroke:#000000; stroke-linecap:round; stroke-linejoin:round; stroke-width:2; stroke-opacity:0.1; fill:none" points="
  115.057,1782.02 2640.76,1782.02 
  "/>
<polyline clip-path="url(#clip083)" style="stroke:#000000; stroke-linecap:round; stroke-linejoin:round; stroke-width:2; stroke-opacity:0.1; fill:none" points="
  115.057,1325.9 2640.76,1325.9 
  "/>
<polyline clip-path="url(#clip083)" style="stroke:#000000; stroke-linecap:round; stroke-linejoin:round; stroke-width:2; stroke-opacity:0.1; fill:none" points="
  115.057,869.778 2640.76,869.778 
  "/>
<polyline clip-path="url(#clip083)" style="stroke:#000000; stroke-linecap:round; stroke-linejoin:round; stroke-width:2; stroke-opacity:0.1; fill:none" points="
  115.057,413.66 2640.76,413.66 
  "/>
<polyline clip-path="url(#clip080)" style="stroke:#000000; stroke-linecap:round; stroke-linejoin:round; stroke-width:4; stroke-opacity:1; fill:none" points="
  115.057,1800.78 115.057,47.2441 
  "/>
<polyline clip-path="url(#clip080)" style="stroke:#000000; stroke-linecap:round; stroke-linejoin:round; stroke-width:4; stroke-opacity:1; fill:none" points="
  115.057,1782.02 133.955,1782.02 
  "/>
<polyline clip-path="url(#clip080)" style="stroke:#000000; stroke-linecap:round; stroke-linejoin:round; stroke-width:4; stroke-opacity:1; fill:none" points="
  115.057,1325.9 133.955,1325.9 
  "/>
<polyline clip-path="url(#clip080)" style="stroke:#000000; stroke-linecap:round; stroke-linejoin:round; stroke-width:4; stroke-opacity:1; fill:none" points="
  115.057,869.778 133.955,869.778 
  "/>
<polyline clip-path="url(#clip080)" style="stroke:#000000; stroke-linecap:round; stroke-linejoin:round; stroke-width:4; stroke-opacity:1; fill:none" points="
  115.057,413.66 133.955,413.66 
  "/>
<path clip-path="url(#clip080)" d="M62.7928 1767.81 Q59.1817 1767.81 57.353 1771.38 Q55.5475 1774.92 55.5475 1782.05 Q55.5475 1789.16 57.353 1792.72 Q59.1817 1796.26 62.7928 1796.26 Q66.427 1796.26 68.2326 1792.72 Q70.0613 1789.16 70.0613 1782.05 Q70.0613 1774.92 68.2326 1771.38 Q66.427 1767.81 62.7928 1767.81 M62.7928 1764.11 Q68.6029 1764.11 71.6585 1768.72 Q74.7372 1773.3 74.7372 1782.05 Q74.7372 1790.78 71.6585 1795.38 Q68.6029 1799.97 62.7928 1799.97 Q56.9826 1799.97 53.904 1795.38 Q50.8484 1790.78 50.8484 1782.05 Q50.8484 1773.3 53.904 1768.72 Q56.9826 1764.11 62.7928 1764.11 Z" fill="#000000" fill-rule="evenodd" fill-opacity="1" /><path clip-path="url(#clip080)" d="M58.4178 1339.24 L74.7372 1339.24 L74.7372 1343.18 L52.7928 1343.18 L52.7928 1339.24 Q55.4549 1336.49 60.0382 1331.86 Q64.6446 1327.2 65.8252 1325.86 Q68.0705 1323.34 68.9502 1321.6 Q69.8529 1319.84 69.8529 1318.15 Q69.8529 1315.4 67.9085 1313.66 Q65.9872 1311.93 62.8854 1311.93 Q60.6863 1311.93 58.2326 1312.69 Q55.8021 1313.45 53.0243 1315.01 L53.0243 1310.28 Q55.8484 1309.15 58.3021 1308.57 Q60.7558 1307.99 62.7928 1307.99 Q68.1631 1307.99 71.3576 1310.68 Q74.552 1313.36 74.552 1317.85 Q74.552 1319.98 73.7418 1321.9 Q72.9548 1323.8 70.8483 1326.39 Q70.2696 1327.07 67.1678 1330.28 Q64.0659 1333.48 58.4178 1339.24 Z" fill="#000000" fill-rule="evenodd" fill-opacity="1" /><path clip-path="url(#clip080)" d="M65.1539 856.572 L53.3484 875.021 L65.1539 875.021 L65.1539 856.572 M63.927 852.498 L69.8066 852.498 L69.8066 875.021 L74.7372 875.021 L74.7372 878.91 L69.8066 878.91 L69.8066 887.058 L65.1539 887.058 L65.1539 878.91 L49.5521 878.91 L49.5521 874.396 L63.927 852.498 Z" fill="#000000" fill-rule="evenodd" fill-opacity="1" /><path clip-path="url(#clip080)" d="M63.2095 411.796 Q60.0613 411.796 58.2095 413.949 Q56.3808 416.102 56.3808 419.852 Q56.3808 423.579 58.2095 425.754 Q60.0613 427.907 63.2095 427.907 Q66.3576 427.907 68.1863 425.754 Q70.0381 423.579 70.0381 419.852 Q70.0381 416.102 68.1863 413.949 Q66.3576 411.796 63.2095 411.796 M72.4918 397.143 L72.4918 401.403 Q70.7326 400.569 68.927 400.13 Q67.1446 399.69 65.3854 399.69 Q60.7558 399.69 58.3021 402.815 Q55.8715 405.94 55.5243 412.259 Q56.89 410.245 58.9502 409.18 Q61.0104 408.093 63.4872 408.093 Q68.6955 408.093 71.7048 411.264 Q74.7372 414.412 74.7372 419.852 Q74.7372 425.176 71.589 428.393 Q68.4409 431.611 63.2095 431.611 Q57.2141 431.611 54.0428 427.028 Q50.8716 422.421 50.8716 413.694 Q50.8716 405.5 54.7604 400.639 Q58.6493 395.755 65.2002 395.755 Q66.9594 395.755 68.7418 396.102 Q70.5474 396.449 72.4918 397.143 Z" fill="#000000" fill-rule="evenodd" fill-opacity="1" /><polyline clip-path="url(#clip083)" style="stroke:#009af9; stroke-linecap:round; stroke-linejoin:round; stroke-width:4; stroke-opacity:1; fill:none" points="
  186.539,1725 202.052,1723.96 345.491,1713.42 431.692,1706.18 504.574,1699.47 583.744,1691.5 656.732,1683.48 734.983,1674.08 825.644,1662.08 906.213,1650.29 
  976.864,1639 1053.89,1625.59 1131.38,1610.83 1217.05,1592.89 1298.57,1574.07 1383.32,1552.51 1454.67,1532.65 1498.22,1519.68 1541.78,1506.05 1581.67,1492.93 
  1621.57,1479.2 1658.42,1465.93 1695.27,1452.08 1732.59,1437.44 1769.92,1422.14 1811.75,1404.19 1853.58,1385.34 1891.49,1367.45 1929.4,1348.76 1972.8,1326.32 
  2016.2,1302.71 2056.38,1279.77 2096.57,1255.72 2136.19,1230.89 2175.81,1204.89 2214.27,1178.48 2252.74,1150.85 2292.17,1121.21 2331.6,1090.19 2374.8,1054.52 
  2418.01,1017.01 2449.39,988.561 2480.76,959.054 2512.14,928.449 2543.52,896.707 2549.96,890.05 2556.4,883.343 2562.84,876.586 2569.27,869.778 
  "/>
<polyline clip-path="url(#clip083)" style="stroke:#e26f46; stroke-linecap:round; stroke-linejoin:round; stroke-width:4; stroke-opacity:1; fill:none" points="
  186.539,1751.15 202.052,1750.34 345.491,1741.71 431.692,1735.44 504.574,1729.37 583.744,1721.89 656.732,1714.05 734.983,1704.51 825.644,1691.77 906.213,1678.7 
  976.864,1665.69 1053.89,1649.64 1131.38,1631.25 1217.05,1607.93 1298.57,1582.4 1383.32,1551.87 1454.67,1522.59 1498.22,1502.91 1541.78,1481.74 1581.67,1460.94 
  1621.57,1438.7 1658.42,1416.79 1695.27,1393.48 1732.59,1368.36 1769.92,1341.61 1811.75,1309.57 1853.58,1275.2 1891.49,1241.9 1929.4,1206.41 1972.8,1162.91 
  2016.2,1116.12 2056.38,1069.65 2096.57,1019.93 2136.19,967.523 2175.81,911.511 2214.27,853.444 2252.74,791.505 2272.45,758.172 2292.17,723.717 2311.88,688.103 
  2331.6,651.291 2353.2,609.535 2374.8,566.237 2396.4,521.34 2418.01,474.785 2449.39,404.077 2480.76,329.544 2512.14,250.98 2543.52,168.166 2549.96,150.63 
  2556.4,132.904 2562.84,114.986 2569.27,96.8724 
  "/>
<polyline clip-path="url(#clip083)" style="stroke:#3da44d; stroke-linecap:round; stroke-linejoin:round; stroke-width:4; stroke-opacity:1; fill:none" points="
  186.539,869.778 190.417,873.886 194.296,877.975 198.174,882.045 202.052,886.097 237.912,922.712 273.772,957.831 309.632,991.514 345.491,1023.82 388.592,1060.91 
  431.692,1096.18 468.133,1124.65 504.574,1151.95 544.159,1180.31 583.744,1207.4 620.238,1231.29 656.732,1254.18 695.857,1277.68 734.983,1300.12 780.313,1324.88 
  825.644,1348.37 865.928,1368.23 906.213,1387.18 941.538,1403.08 976.864,1418.34 1015.38,1434.28 1053.89,1449.52 1092.64,1464.17 1131.38,1478.19 1174.22,1492.96 
  1217.05,1507.01 1257.81,1519.75 1298.57,1531.9 1383.32,1555.39 1454.67,1573.44 1541.78,1593.55 1621.57,1610.26 1695.27,1624.37 1769.92,1637.49 1853.58,1650.9 
  1929.4,1661.97 2016.2,1673.5 2096.57,1683.19 2175.81,1691.89 2252.74,1699.61 2331.6,1706.84 2418.01,1714.03 2543.52,1723.27 2569.27,1725 
  "/>
<polyline clip-path="url(#clip083)" style="stroke:#c271d2; stroke-linecap:round; stroke-linejoin:round; stroke-width:4; stroke-opacity:1; fill:none" points="
  186.539,1316.59 194.296,1318.74 202.052,1320.89 273.772,1340.27 345.491,1358.84 388.592,1369.62 431.692,1380.13 468.133,1388.8 504.574,1397.29 583.744,1415.1 
  656.732,1430.79 734.983,1446.87 825.644,1464.58 906.213,1479.53 976.864,1492.06 1053.89,1505.13 1131.38,1517.68 1217.05,1530.9 1298.57,1542.86 1383.32,1554.69 
  1454.67,1564.2 1541.78,1575.27 1621.57,1584.92 1695.27,1593.42 1769.92,1601.67 1853.58,1610.48 1929.4,1618.09 2016.2,1626.4 2096.57,1633.71 2175.81,1640.58 
  2252.74,1646.95 2331.6,1653.18 2418.01,1659.67 2543.52,1668.53 2569.27,1670.27 
  "/>
<path clip-path="url(#clip080)" d="
M199.247 364.895 L497.589 364.895 L497.589 105.695 L199.247 105.695  Z
  " fill="#ffffff" fill-rule="evenodd" fill-opacity="1"/>
<polyline clip-path="url(#clip080)" style="stroke:#000000; stroke-linecap:round; stroke-linejoin:round; stroke-width:4; stroke-opacity:1; fill:none" points="
  199.247,364.895 497.589,364.895 497.589,105.695 199.247,105.695 199.247,364.895 
  "/>
<polyline clip-path="url(#clip080)" style="stroke:#009af9; stroke-linecap:round; stroke-linejoin:round; stroke-width:4; stroke-opacity:1; fill:none" points="
  227.31,157.535 395.69,157.535 
  "/>
<path clip-path="url(#clip080)" d="M423.754 178.684 Q423.754 177.817 423.824 177.56 Q423.918 177.302 424.292 176.904 L433.497 166.645 Q438.533 160.977 438.533 156.035 Q438.533 152.826 436.847 150.53 Q435.184 148.235 432.116 148.235 Q430.007 148.235 428.227 149.523 Q426.447 150.811 425.627 153.107 Q425.768 153.06 426.26 153.06 Q427.454 153.06 428.11 153.809 Q428.79 154.559 428.79 155.566 Q428.79 156.854 427.946 157.487 Q427.127 158.096 426.307 158.096 Q425.979 158.096 425.534 158.025 Q425.112 157.955 424.433 157.299 Q423.754 156.62 423.754 155.426 Q423.754 152.076 426.283 149.406 Q428.836 146.736 432.724 146.736 Q437.128 146.736 440.009 149.359 Q442.913 151.959 442.913 156.035 Q442.913 157.463 442.468 158.775 Q442.047 160.063 441.461 161.07 Q440.899 162.078 439.353 163.694 Q437.807 165.31 436.566 166.458 Q435.324 167.605 432.537 170.041 L427.454 174.983 L436.097 174.983 Q440.313 174.983 440.641 174.609 Q441.11 173.929 441.695 170.346 L442.913 170.346 L441.555 178.684 L423.754 178.684 Z" fill="#000000" fill-rule="evenodd" fill-opacity="1" /><path clip-path="url(#clip080)" d="M464.567 138.462 Q464.567 139.38 463.993 139.905 Q463.42 140.413 462.764 140.413 Q462.141 140.413 461.813 140.052 Q461.485 139.691 461.485 139.232 Q461.485 138.609 461.944 138.068 Q462.403 137.527 463.092 137.412 Q462.419 136.986 461.419 136.986 Q460.764 136.986 460.19 137.331 Q459.632 137.675 459.288 138.118 Q458.96 138.56 458.665 139.2 Q458.386 139.823 458.271 140.2 Q458.173 140.56 458.091 140.954 L456.943 145.545 Q456.386 147.725 456.386 148.496 Q456.386 149.447 456.845 150.086 Q457.304 150.709 458.222 150.709 Q458.583 150.709 458.993 150.611 Q459.403 150.496 459.927 150.201 Q460.468 149.89 460.944 149.431 Q461.436 148.955 461.911 148.152 Q462.387 147.348 462.698 146.315 Q462.797 145.955 463.124 145.955 Q463.534 145.955 463.534 146.283 Q463.534 146.561 463.305 147.152 Q463.092 147.725 462.616 148.48 Q462.157 149.217 461.551 149.89 Q460.944 150.545 460.042 151.005 Q459.14 151.464 458.157 151.464 Q456.747 151.464 455.812 150.709 Q454.877 149.955 454.533 148.906 Q454.451 149.053 454.336 149.25 Q454.222 149.447 453.877 149.89 Q453.549 150.316 453.172 150.644 Q452.795 150.955 452.205 151.201 Q451.631 151.464 451.008 151.464 Q450.221 151.464 449.516 151.234 Q448.827 151.005 448.336 150.48 Q447.844 149.955 447.844 149.234 Q447.844 148.43 448.385 147.873 Q448.942 147.299 449.696 147.299 Q450.172 147.299 450.549 147.578 Q450.942 147.857 450.942 148.463 Q450.942 149.135 450.483 149.644 Q450.024 150.152 449.368 150.283 Q450.041 150.709 451.041 150.709 Q452.123 150.709 452.976 149.758 Q453.828 148.808 454.238 147.217 Q455.255 143.397 455.648 141.692 Q456.042 139.97 456.042 139.232 Q456.042 138.544 455.861 138.068 Q455.681 137.593 455.369 137.38 Q455.074 137.15 454.795 137.068 Q454.533 136.986 454.238 136.986 Q453.746 136.986 453.189 137.183 Q452.648 137.38 451.992 137.839 Q451.352 138.281 450.746 139.2 Q450.139 140.118 449.729 141.38 Q449.647 141.757 449.287 141.757 Q448.893 141.741 448.893 141.413 Q448.893 141.134 449.106 140.56 Q449.336 139.97 449.795 139.232 Q450.27 138.495 450.877 137.839 Q451.5 137.167 452.402 136.707 Q453.32 136.248 454.304 136.248 Q454.746 136.248 455.173 136.347 Q455.615 136.429 456.14 136.675 Q456.681 136.921 457.156 137.462 Q457.632 138.003 457.927 138.79 Q458.124 138.413 458.386 138.052 Q458.665 137.691 459.091 137.249 Q459.534 136.789 460.14 136.527 Q460.764 136.248 461.452 136.248 Q462.124 136.248 462.78 136.429 Q463.436 136.593 463.993 137.134 Q464.567 137.658 464.567 138.462 Z" fill="#000000" fill-rule="evenodd" fill-opacity="1" /><polyline clip-path="url(#clip080)" style="stroke:#e26f46; stroke-linecap:round; stroke-linejoin:round; stroke-width:4; stroke-opacity:1; fill:none" points="
  227.31,209.375 395.69,209.375 
  "/>
<path clip-path="url(#clip080)" d="M442 219.39 Q442.187 219.601 442.187 219.812 Q442.187 220.023 441.719 220.632 Q441.274 221.241 440.313 222.061 Q439.353 222.88 438.112 223.653 Q436.87 224.426 435.043 224.942 Q433.216 225.48 431.296 225.48 Q427.853 225.48 425.791 223.021 Q423.754 220.562 423.754 216.791 Q423.754 214.378 424.55 212.247 Q425.346 210.092 426.635 208.569 Q427.946 207.047 429.586 205.946 Q431.249 204.822 432.982 204.283 Q434.715 203.744 436.332 203.744 Q438.697 203.744 440.079 204.939 Q441.461 206.133 441.461 207.82 Q441.461 208.218 441.344 208.71 Q441.25 209.202 440.922 209.975 Q440.618 210.748 439.821 211.52 Q439.025 212.27 437.854 212.762 Q435.254 213.863 430.523 213.863 L427.97 213.863 Q427.22 216.884 427.22 218.852 Q427.22 219.625 427.361 220.421 Q427.501 221.194 427.876 222.178 Q428.274 223.161 429.164 223.794 Q430.078 224.403 431.389 224.403 Q431.811 224.403 432.256 224.379 Q432.724 224.356 433.896 224.098 Q435.09 223.841 436.144 223.396 Q437.198 222.951 438.533 221.99 Q439.892 221.007 440.969 219.671 Q441.344 219.18 441.602 219.18 Q441.812 219.18 442 219.39 M439.868 207.82 Q439.868 206.531 438.908 205.665 Q437.971 204.798 436.332 204.798 Q435.816 204.798 435.184 204.915 Q434.551 205.032 433.497 205.524 Q432.467 206.016 431.553 206.836 Q430.64 207.632 429.726 209.202 Q428.813 210.748 428.274 212.809 L430.242 212.809 Q430.921 212.809 431.413 212.809 Q431.905 212.785 432.982 212.692 Q434.083 212.598 434.879 212.434 Q435.676 212.247 436.683 211.872 Q437.69 211.497 438.322 211.005 Q438.978 210.49 439.423 209.67 Q439.868 208.85 439.868 207.82 Z" fill="#000000" fill-rule="evenodd" fill-opacity="1" /><path clip-path="url(#clip080)" d="M463.85 195.359 Q463.85 196.277 463.276 196.802 Q462.702 197.31 462.046 197.31 Q461.423 197.31 461.095 196.95 Q460.767 196.589 460.767 196.13 Q460.767 195.507 461.226 194.966 Q461.686 194.425 462.374 194.31 Q461.702 193.884 460.702 193.884 Q460.046 193.884 459.472 194.228 Q458.915 194.572 458.57 195.015 Q458.242 195.458 457.947 196.097 Q457.669 196.72 457.554 197.097 Q457.455 197.458 457.374 197.851 L456.226 202.442 Q455.668 204.623 455.668 205.393 Q455.668 206.344 456.127 206.984 Q456.587 207.607 457.505 207.607 Q457.865 207.607 458.275 207.509 Q458.685 207.394 459.21 207.099 Q459.751 206.787 460.226 206.328 Q460.718 205.853 461.194 205.049 Q461.669 204.246 461.981 203.213 Q462.079 202.852 462.407 202.852 Q462.817 202.852 462.817 203.18 Q462.817 203.459 462.587 204.049 Q462.374 204.623 461.899 205.377 Q461.44 206.115 460.833 206.787 Q460.226 207.443 459.325 207.902 Q458.423 208.361 457.439 208.361 Q456.029 208.361 455.095 207.607 Q454.16 206.853 453.816 205.803 Q453.734 205.951 453.619 206.148 Q453.504 206.344 453.16 206.787 Q452.832 207.213 452.455 207.541 Q452.078 207.853 451.487 208.099 Q450.914 208.361 450.291 208.361 Q449.504 208.361 448.799 208.132 Q448.11 207.902 447.618 207.377 Q447.126 206.853 447.126 206.131 Q447.126 205.328 447.667 204.77 Q448.225 204.197 448.979 204.197 Q449.454 204.197 449.831 204.475 Q450.225 204.754 450.225 205.361 Q450.225 206.033 449.766 206.541 Q449.307 207.049 448.651 207.181 Q449.323 207.607 450.323 207.607 Q451.405 207.607 452.258 206.656 Q453.111 205.705 453.521 204.115 Q454.537 200.294 454.931 198.589 Q455.324 196.868 455.324 196.13 Q455.324 195.441 455.144 194.966 Q454.963 194.49 454.652 194.277 Q454.357 194.048 454.078 193.966 Q453.816 193.884 453.521 193.884 Q453.029 193.884 452.471 194.08 Q451.93 194.277 451.274 194.736 Q450.635 195.179 450.028 196.097 Q449.422 197.015 449.012 198.278 Q448.93 198.655 448.569 198.655 Q448.176 198.638 448.176 198.311 Q448.176 198.032 448.389 197.458 Q448.618 196.868 449.077 196.13 Q449.553 195.392 450.159 194.736 Q450.782 194.064 451.684 193.605 Q452.602 193.146 453.586 193.146 Q454.029 193.146 454.455 193.244 Q454.898 193.326 455.422 193.572 Q455.963 193.818 456.439 194.359 Q456.914 194.9 457.21 195.687 Q457.406 195.31 457.669 194.949 Q457.947 194.589 458.374 194.146 Q458.816 193.687 459.423 193.425 Q460.046 193.146 460.735 193.146 Q461.407 193.146 462.063 193.326 Q462.719 193.49 463.276 194.031 Q463.85 194.556 463.85 195.359 Z" fill="#000000" fill-rule="evenodd" fill-opacity="1" /><polyline clip-path="url(#clip080)" style="stroke:#3da44d; stroke-linecap:round; stroke-linejoin:round; stroke-width:4; stroke-opacity:1; fill:none" points="
  227.31,261.215 395.69,261.215 
  "/>
<path clip-path="url(#clip080)" d="M423.754 282.364 Q423.754 281.497 423.824 281.24 Q423.918 280.982 424.292 280.584 L433.497 270.325 Q438.533 264.657 438.533 259.715 Q438.533 256.506 436.847 254.21 Q435.184 251.915 432.116 251.915 Q430.007 251.915 428.227 253.203 Q426.447 254.491 425.627 256.787 Q425.768 256.74 426.26 256.74 Q427.454 256.74 428.11 257.489 Q428.79 258.239 428.79 259.246 Q428.79 260.534 427.946 261.167 Q427.127 261.776 426.307 261.776 Q425.979 261.776 425.534 261.705 Q425.112 261.635 424.433 260.979 Q423.754 260.3 423.754 259.106 Q423.754 255.756 426.283 253.086 Q428.836 250.416 432.724 250.416 Q437.128 250.416 440.009 253.039 Q442.913 255.639 442.913 259.715 Q442.913 261.143 442.468 262.455 Q442.047 263.743 441.461 264.75 Q440.899 265.758 439.353 267.374 Q437.807 268.99 436.566 270.138 Q435.324 271.285 432.537 273.721 L427.454 278.663 L436.097 278.663 Q440.313 278.663 440.641 278.289 Q441.11 277.609 441.695 274.026 L442.913 274.026 L441.555 282.364 L423.754 282.364 Z" fill="#000000" fill-rule="evenodd" fill-opacity="1" /><path clip-path="url(#clip080)" d="M464.567 242.142 Q464.567 243.06 463.993 243.585 Q463.42 244.093 462.764 244.093 Q462.141 244.093 461.813 243.732 Q461.485 243.371 461.485 242.912 Q461.485 242.289 461.944 241.748 Q462.403 241.207 463.092 241.092 Q462.419 240.666 461.419 240.666 Q460.764 240.666 460.19 241.011 Q459.632 241.355 459.288 241.798 Q458.96 242.24 458.665 242.88 Q458.386 243.503 458.271 243.88 Q458.173 244.24 458.091 244.634 L456.943 249.225 Q456.386 251.405 456.386 252.176 Q456.386 253.127 456.845 253.766 Q457.304 254.389 458.222 254.389 Q458.583 254.389 458.993 254.291 Q459.403 254.176 459.927 253.881 Q460.468 253.57 460.944 253.111 Q461.436 252.635 461.911 251.832 Q462.387 251.028 462.698 249.995 Q462.797 249.635 463.124 249.635 Q463.534 249.635 463.534 249.963 Q463.534 250.241 463.305 250.832 Q463.092 251.405 462.616 252.16 Q462.157 252.897 461.551 253.57 Q460.944 254.225 460.042 254.685 Q459.14 255.144 458.157 255.144 Q456.747 255.144 455.812 254.389 Q454.877 253.635 454.533 252.586 Q454.451 252.733 454.336 252.93 Q454.222 253.127 453.877 253.57 Q453.549 253.996 453.172 254.324 Q452.795 254.635 452.205 254.881 Q451.631 255.144 451.008 255.144 Q450.221 255.144 449.516 254.914 Q448.827 254.685 448.336 254.16 Q447.844 253.635 447.844 252.914 Q447.844 252.11 448.385 251.553 Q448.942 250.979 449.696 250.979 Q450.172 250.979 450.549 251.258 Q450.942 251.537 450.942 252.143 Q450.942 252.815 450.483 253.324 Q450.024 253.832 449.368 253.963 Q450.041 254.389 451.041 254.389 Q452.123 254.389 452.976 253.438 Q453.828 252.488 454.238 250.897 Q455.255 247.077 455.648 245.372 Q456.042 243.65 456.042 242.912 Q456.042 242.224 455.861 241.748 Q455.681 241.273 455.369 241.06 Q455.074 240.83 454.795 240.748 Q454.533 240.666 454.238 240.666 Q453.746 240.666 453.189 240.863 Q452.648 241.06 451.992 241.519 Q451.352 241.961 450.746 242.88 Q450.139 243.798 449.729 245.06 Q449.647 245.437 449.287 245.437 Q448.893 245.421 448.893 245.093 Q448.893 244.814 449.106 244.24 Q449.336 243.65 449.795 242.912 Q450.27 242.175 450.877 241.519 Q451.5 240.847 452.402 240.387 Q453.32 239.928 454.304 239.928 Q454.746 239.928 455.173 240.027 Q455.615 240.109 456.14 240.355 Q456.681 240.601 457.156 241.142 Q457.632 241.683 457.927 242.47 Q458.124 242.093 458.386 241.732 Q458.665 241.371 459.091 240.929 Q459.534 240.469 460.14 240.207 Q460.764 239.928 461.452 239.928 Q462.124 239.928 462.78 240.109 Q463.436 240.273 463.993 240.814 Q464.567 241.338 464.567 242.142 Z" fill="#000000" fill-rule="evenodd" fill-opacity="1" /><polyline clip-path="url(#clip080)" style="stroke:#c271d2; stroke-linecap:round; stroke-linejoin:round; stroke-width:4; stroke-opacity:1; fill:none" points="
  227.31,313.055 395.69,313.055 
  "/>
<path clip-path="url(#clip080)" d="M423.754 334.204 Q423.754 333.337 423.824 333.08 Q423.918 332.822 424.292 332.424 L433.497 322.165 Q438.533 316.497 438.533 311.555 Q438.533 308.346 436.847 306.05 Q435.184 303.755 432.116 303.755 Q430.007 303.755 428.227 305.043 Q426.447 306.331 425.627 308.627 Q425.768 308.58 426.26 308.58 Q427.454 308.58 428.11 309.329 Q428.79 310.079 428.79 311.086 Q428.79 312.374 427.946 313.007 Q427.127 313.616 426.307 313.616 Q425.979 313.616 425.534 313.545 Q425.112 313.475 424.433 312.819 Q423.754 312.14 423.754 310.946 Q423.754 307.596 426.283 304.926 Q428.836 302.256 432.724 302.256 Q437.128 302.256 440.009 304.879 Q442.913 307.479 442.913 311.555 Q442.913 312.983 442.468 314.295 Q442.047 315.583 441.461 316.59 Q440.899 317.598 439.353 319.214 Q437.807 320.83 436.566 321.978 Q435.324 323.125 432.537 325.561 L427.454 330.503 L436.097 330.503 Q440.313 330.503 440.641 330.129 Q441.11 329.449 441.695 325.866 L442.913 325.866 L441.555 334.204 L423.754 334.204 Z" fill="#000000" fill-rule="evenodd" fill-opacity="1" /><path clip-path="url(#clip080)" d="M464.567 293.982 Q464.567 294.9 463.993 295.425 Q463.42 295.933 462.764 295.933 Q462.141 295.933 461.813 295.572 Q461.485 295.211 461.485 294.752 Q461.485 294.129 461.944 293.588 Q462.403 293.047 463.092 292.932 Q462.419 292.506 461.419 292.506 Q460.764 292.506 460.19 292.851 Q459.632 293.195 459.288 293.638 Q458.96 294.08 458.665 294.72 Q458.386 295.343 458.271 295.72 Q458.173 296.08 458.091 296.474 L456.943 301.065 Q456.386 303.245 456.386 304.016 Q456.386 304.967 456.845 305.606 Q457.304 306.229 458.222 306.229 Q458.583 306.229 458.993 306.131 Q459.403 306.016 459.927 305.721 Q460.468 305.41 460.944 304.951 Q461.436 304.475 461.911 303.672 Q462.387 302.868 462.698 301.835 Q462.797 301.475 463.124 301.475 Q463.534 301.475 463.534 301.803 Q463.534 302.081 463.305 302.672 Q463.092 303.245 462.616 304 Q462.157 304.737 461.551 305.41 Q460.944 306.065 460.042 306.525 Q459.14 306.984 458.157 306.984 Q456.747 306.984 455.812 306.229 Q454.877 305.475 454.533 304.426 Q454.451 304.573 454.336 304.77 Q454.222 304.967 453.877 305.41 Q453.549 305.836 453.172 306.164 Q452.795 306.475 452.205 306.721 Q451.631 306.984 451.008 306.984 Q450.221 306.984 449.516 306.754 Q448.827 306.525 448.336 306 Q447.844 305.475 447.844 304.754 Q447.844 303.95 448.385 303.393 Q448.942 302.819 449.696 302.819 Q450.172 302.819 450.549 303.098 Q450.942 303.377 450.942 303.983 Q450.942 304.655 450.483 305.164 Q450.024 305.672 449.368 305.803 Q450.041 306.229 451.041 306.229 Q452.123 306.229 452.976 305.278 Q453.828 304.328 454.238 302.737 Q455.255 298.917 455.648 297.212 Q456.042 295.49 456.042 294.752 Q456.042 294.064 455.861 293.588 Q455.681 293.113 455.369 292.9 Q455.074 292.67 454.795 292.588 Q454.533 292.506 454.238 292.506 Q453.746 292.506 453.189 292.703 Q452.648 292.9 451.992 293.359 Q451.352 293.801 450.746 294.72 Q450.139 295.638 449.729 296.9 Q449.647 297.277 449.287 297.277 Q448.893 297.261 448.893 296.933 Q448.893 296.654 449.106 296.08 Q449.336 295.49 449.795 294.752 Q450.27 294.015 450.877 293.359 Q451.5 292.687 452.402 292.227 Q453.32 291.768 454.304 291.768 Q454.746 291.768 455.173 291.867 Q455.615 291.949 456.14 292.195 Q456.681 292.441 457.156 292.982 Q457.632 293.523 457.927 294.31 Q458.124 293.933 458.386 293.572 Q458.665 293.211 459.091 292.769 Q459.534 292.309 460.14 292.047 Q460.764 291.768 461.452 291.768 Q462.124 291.768 462.78 291.949 Q463.436 292.113 463.993 292.654 Q464.567 293.178 464.567 293.982 Z" fill="#000000" fill-rule="evenodd" fill-opacity="1" /></svg>
