<?xml version="1.0" encoding="utf-8"?>
<svg xmlns="http://www.w3.org/2000/svg" xmlns:xlink="http://www.w3.org/1999/xlink" width="672" height="480" viewBox="0 0 2688 1920">
<defs>
  <clipPath id="clip240">
    <rect x="0" y="0" width="2688" height="1920"/>
  </clipPath>
</defs>
<path clip-path="url(#clip240)" d="
M0 1920 L2688 1920 L2688 0 L0 0  Z
  " fill="#ffffff" fill-rule="evenodd" fill-opacity="1"/>
<defs>
  <clipPath id="clip241">
    <rect x="537" y="0" width="1883" height="1883"/>
  </clipPath>
</defs>
<path clip-path="url(#clip240)" d="
M180.423 1734.12 L2640.76 1734.12 L2640.76 47.2441 L180.423 47.2441  Z
  " fill="#ffffff" fill-rule="evenodd" fill-opacity="1"/>
<defs>
  <clipPath id="clip242">
    <rect x="180" y="47" width="2461" height="1688"/>
  </clipPath>
</defs>
<polyline clip-path="url(#clip242)" style="stroke:#000000; stroke-linecap:round; stroke-linejoin:round; stroke-width:2; stroke-opacity:0.1; fill:none" points="
  180.423,1734.12 180.423,47.2441 
  "/>
<polyline clip-path="url(#clip242)" style="stroke:#000000; stroke-linecap:round; stroke-linejoin:round; stroke-width:2; stroke-opacity:0.1; fill:none" points="
  672.49,1734.12 672.49,47.2441 
  "/>
<polyline clip-path="url(#clip242)" style="stroke:#000000; stroke-linecap:round; stroke-linejoin:round; stroke-width:2; stroke-opacity:0.1; fill:none" points="
  1164.56,1734.12 1164.56,47.2441 
  "/>
<polyline clip-path="url(#clip242)" style="stroke:#000000; stroke-linecap:round; stroke-linejoin:round; stroke-width:2; stroke-opacity:0.1; fill:none" points="
  1656.62,1734.12 1656.62,47.2441 
  "/>
<polyline clip-path="url(#clip242)" style="stroke:#000000; stroke-linecap:round; stroke-linejoin:round; stroke-width:2; stroke-opacity:0.1; fill:none" points="
  2148.69,1734.12 2148.69,47.2441 
  "/>
<polyline clip-path="url(#clip242)" style="stroke:#000000; stroke-linecap:round; stroke-linejoin:round; stroke-width:2; stroke-opacity:0.1; fill:none" points="
  2640.76,1734.12 2640.76,47.2441 
  "/>
<polyline clip-path="url(#clip240)" style="stroke:#000000; stroke-linecap:round; stroke-linejoin:round; stroke-width:4; stroke-opacity:1; fill:none" points="
  180.423,1734.12 2640.76,1734.12 
  "/>
<polyline clip-path="url(#clip240)" style="stroke:#000000; stroke-linecap:round; stroke-linejoin:round; stroke-width:4; stroke-opacity:1; fill:none" points="
  180.423,1734.12 180.423,1715.22 
  "/>
<polyline clip-path="url(#clip240)" style="stroke:#000000; stroke-linecap:round; stroke-linejoin:round; stroke-width:4; stroke-opacity:1; fill:none" points="
  672.49,1734.12 672.49,1715.22 
  "/>
<polyline clip-path="url(#clip240)" style="stroke:#000000; stroke-linecap:round; stroke-linejoin:round; stroke-width:4; stroke-opacity:1; fill:none" points="
  1164.56,1734.12 1164.56,1715.22 
  "/>
<polyline clip-path="url(#clip240)" style="stroke:#000000; stroke-linecap:round; stroke-linejoin:round; stroke-width:4; stroke-opacity:1; fill:none" points="
  1656.62,1734.12 1656.62,1715.22 
  "/>
<polyline clip-path="url(#clip240)" style="stroke:#000000; stroke-linecap:round; stroke-linejoin:round; stroke-width:4; stroke-opacity:1; fill:none" points="
  2148.69,1734.12 2148.69,1715.22 
  "/>
<polyline clip-path="url(#clip240)" style="stroke:#000000; stroke-linecap:round; stroke-linejoin:round; stroke-width:4; stroke-opacity:1; fill:none" points="
  2640.76,1734.12 2640.76,1715.22 
  "/>
<path clip-path="url(#clip240)" d="M180.423 1767.34 Q176.812 1767.34 174.983 1770.9 Q173.178 1774.45 173.178 1781.58 Q173.178 1788.68 174.983 1792.25 Q176.812 1795.79 180.423 1795.79 Q184.057 1795.79 185.863 1792.25 Q187.692 1788.68 187.692 1781.58 Q187.692 1774.45 185.863 1770.9 Q184.057 1767.34 180.423 1767.34 M180.423 1763.64 Q186.233 1763.64 189.289 1768.24 Q192.368 1772.83 192.368 1781.58 Q192.368 1790.3 189.289 1794.91 Q186.233 1799.49 180.423 1799.49 Q174.613 1799.49 171.534 1794.91 Q168.479 1790.3 168.479 1781.58 Q168.479 1772.83 171.534 1768.24 Q174.613 1763.64 180.423 1763.64 Z" fill="#000000" fill-rule="evenodd" fill-opacity="1" /><path clip-path="url(#clip240)" d="M667.143 1794.89 L683.462 1794.89 L683.462 1798.82 L661.518 1798.82 L661.518 1794.89 Q664.18 1792.13 668.763 1787.5 Q673.369 1782.85 674.55 1781.51 Q676.795 1778.98 677.675 1777.25 Q678.578 1775.49 678.578 1773.8 Q678.578 1771.04 676.633 1769.31 Q674.712 1767.57 671.61 1767.57 Q669.411 1767.57 666.957 1768.34 Q664.527 1769.1 661.749 1770.65 L661.749 1765.93 Q664.573 1764.79 667.027 1764.21 Q669.481 1763.64 671.518 1763.64 Q676.888 1763.64 680.082 1766.32 Q683.277 1769.01 683.277 1773.5 Q683.277 1775.63 682.467 1777.55 Q681.68 1779.45 679.573 1782.04 Q678.994 1782.71 675.893 1785.93 Q672.791 1789.12 667.143 1794.89 Z" fill="#000000" fill-rule="evenodd" fill-opacity="1" /><path clip-path="url(#clip240)" d="M1167.57 1768.34 L1155.76 1786.78 L1167.57 1786.78 L1167.57 1768.34 M1166.34 1764.26 L1172.22 1764.26 L1172.22 1786.78 L1177.15 1786.78 L1177.15 1790.67 L1172.22 1790.67 L1172.22 1798.82 L1167.57 1798.82 L1167.57 1790.67 L1151.96 1790.67 L1151.96 1786.16 L1166.34 1764.26 Z" fill="#000000" fill-rule="evenodd" fill-opacity="1" /><path clip-path="url(#clip240)" d="M1657.03 1779.68 Q1653.88 1779.68 1652.03 1781.83 Q1650.2 1783.98 1650.2 1787.73 Q1650.2 1791.46 1652.03 1793.64 Q1653.88 1795.79 1657.03 1795.79 Q1660.18 1795.79 1662 1793.64 Q1663.86 1791.46 1663.86 1787.73 Q1663.86 1783.98 1662 1781.83 Q1660.18 1779.68 1657.03 1779.68 M1666.31 1765.02 L1666.31 1769.28 Q1664.55 1768.45 1662.75 1768.01 Q1660.96 1767.57 1659.2 1767.57 Q1654.57 1767.57 1652.12 1770.7 Q1649.69 1773.82 1649.34 1780.14 Q1650.71 1778.13 1652.77 1777.06 Q1654.83 1775.97 1657.31 1775.97 Q1662.51 1775.97 1665.52 1779.15 Q1668.56 1782.29 1668.56 1787.73 Q1668.56 1793.06 1665.41 1796.27 Q1662.26 1799.49 1657.03 1799.49 Q1651.03 1799.49 1647.86 1794.91 Q1644.69 1790.3 1644.69 1781.58 Q1644.69 1773.38 1648.58 1768.52 Q1652.47 1763.64 1659.02 1763.64 Q1660.78 1763.64 1662.56 1763.98 Q1664.37 1764.33 1666.31 1765.02 Z" fill="#000000" fill-rule="evenodd" fill-opacity="1" /><path clip-path="url(#clip240)" d="M2148.69 1782.41 Q2145.36 1782.41 2143.43 1784.19 Q2141.54 1785.97 2141.54 1789.1 Q2141.54 1792.22 2143.43 1794.01 Q2145.36 1795.79 2148.69 1795.79 Q2152.02 1795.79 2153.94 1794.01 Q2155.87 1792.2 2155.87 1789.1 Q2155.87 1785.97 2153.94 1784.19 Q2152.05 1782.41 2148.69 1782.41 M2144.01 1780.42 Q2141 1779.68 2139.31 1777.62 Q2137.65 1775.56 2137.65 1772.59 Q2137.65 1768.45 2140.59 1766.04 Q2143.55 1763.64 2148.69 1763.64 Q2153.85 1763.64 2156.79 1766.04 Q2159.73 1768.45 2159.73 1772.59 Q2159.73 1775.56 2158.04 1777.62 Q2156.37 1779.68 2153.39 1780.42 Q2156.77 1781.21 2158.64 1783.5 Q2160.54 1785.79 2160.54 1789.1 Q2160.54 1794.12 2157.46 1796.81 Q2154.41 1799.49 2148.69 1799.49 Q2142.97 1799.49 2139.89 1796.81 Q2136.84 1794.12 2136.84 1789.1 Q2136.84 1785.79 2138.74 1783.5 Q2140.63 1781.21 2144.01 1780.42 M2142.3 1773.03 Q2142.3 1775.72 2143.97 1777.22 Q2145.66 1778.73 2148.69 1778.73 Q2151.7 1778.73 2153.39 1777.22 Q2155.1 1775.72 2155.1 1773.03 Q2155.1 1770.35 2153.39 1768.84 Q2151.7 1767.34 2148.69 1767.34 Q2145.66 1767.34 2143.97 1768.84 Q2142.3 1770.35 2142.3 1773.03 Z" fill="#000000" fill-rule="evenodd" fill-opacity="1" /><path clip-path="url(#clip240)" d="M2615.44 1794.89 L2623.08 1794.89 L2623.08 1768.52 L2614.77 1770.19 L2614.77 1765.93 L2623.04 1764.26 L2627.71 1764.26 L2627.71 1794.89 L2635.35 1794.89 L2635.35 1798.82 L2615.44 1798.82 L2615.44 1794.89 Z" fill="#000000" fill-rule="evenodd" fill-opacity="1" /><path clip-path="url(#clip240)" d="M2654.8 1767.34 Q2651.18 1767.34 2649.36 1770.9 Q2647.55 1774.45 2647.55 1781.58 Q2647.55 1788.68 2649.36 1792.25 Q2651.18 1795.79 2654.8 1795.79 Q2658.43 1795.79 2660.23 1792.25 Q2662.06 1788.68 2662.06 1781.58 Q2662.06 1774.45 2660.23 1770.9 Q2658.43 1767.34 2654.8 1767.34 M2654.8 1763.64 Q2660.61 1763.64 2663.66 1768.24 Q2666.74 1772.83 2666.74 1781.58 Q2666.74 1790.3 2663.66 1794.91 Q2660.61 1799.49 2654.8 1799.49 Q2648.99 1799.49 2645.91 1794.91 Q2642.85 1790.3 2642.85 1781.58 Q2642.85 1772.83 2645.91 1768.24 Q2648.99 1763.64 2654.8 1763.64 Z" fill="#000000" fill-rule="evenodd" fill-opacity="1" /><path clip-path="url(#clip240)" d="M1195.65 1835.78 L1235.85 1835.78 L1235.85 1841.19 L1218.98 1841.19 L1218.98 1883.3 L1212.52 1883.3 L1212.52 1841.19 L1195.65 1841.19 L1195.65 1835.78 Z" fill="#000000" fill-rule="evenodd" fill-opacity="1" /><path clip-path="url(#clip240)" d="M1239.8 1847.65 L1245.65 1847.65 L1245.65 1883.3 L1239.8 1883.3 L1239.8 1847.65 M1239.8 1833.78 L1245.65 1833.78 L1245.65 1841.19 L1239.8 1841.19 L1239.8 1833.78 Z" fill="#000000" fill-rule="evenodd" fill-opacity="1" /><path clip-path="url(#clip240)" d="M1288.4 1864.01 L1288.4 1866.88 L1261.47 1866.88 Q1261.85 1872.92 1265.1 1876.11 Q1268.38 1879.26 1274.2 1879.26 Q1277.58 1879.26 1280.73 1878.43 Q1283.91 1877.6 1287.03 1875.95 L1287.03 1881.49 Q1283.88 1882.82 1280.57 1883.52 Q1277.26 1884.22 1273.85 1884.22 Q1265.32 1884.22 1260.33 1879.26 Q1255.36 1874.29 1255.36 1865.83 Q1255.36 1857.07 1260.07 1851.95 Q1264.81 1846.79 1272.84 1846.79 Q1280.03 1846.79 1284.2 1851.44 Q1288.4 1856.06 1288.4 1864.01 M1282.54 1862.29 Q1282.48 1857.49 1279.84 1854.62 Q1277.23 1851.76 1272.9 1851.76 Q1268 1851.76 1265.04 1854.53 Q1262.11 1857.3 1261.66 1862.33 L1282.54 1862.29 Z" fill="#000000" fill-rule="evenodd" fill-opacity="1" /><path clip-path="url(#clip240)" d="M1325.77 1854.5 Q1327.96 1850.55 1331.02 1848.67 Q1334.07 1846.79 1338.21 1846.79 Q1343.78 1846.79 1346.81 1850.71 Q1349.83 1854.59 1349.83 1861.78 L1349.83 1883.3 L1343.94 1883.3 L1343.94 1861.98 Q1343.94 1856.85 1342.13 1854.37 Q1340.31 1851.89 1336.59 1851.89 Q1332.04 1851.89 1329.39 1854.91 Q1326.75 1857.93 1326.75 1863.15 L1326.75 1883.3 L1320.86 1883.3 L1320.86 1861.98 Q1320.86 1856.82 1319.05 1854.37 Q1317.24 1851.89 1313.45 1851.89 Q1308.96 1851.89 1306.32 1854.94 Q1303.68 1857.97 1303.68 1863.15 L1303.68 1883.3 L1297.79 1883.3 L1297.79 1847.65 L1303.68 1847.65 L1303.68 1853.19 Q1305.68 1849.91 1308.48 1848.35 Q1311.28 1846.79 1315.14 1846.79 Q1319.02 1846.79 1321.72 1848.77 Q1324.46 1850.74 1325.77 1854.5 Z" fill="#000000" fill-rule="evenodd" fill-opacity="1" /><path clip-path="url(#clip240)" d="M1367.18 1877.95 L1367.18 1896.86 L1361.29 1896.86 L1361.29 1847.65 L1367.18 1847.65 L1367.18 1853.06 Q1369.02 1849.88 1371.82 1848.35 Q1374.66 1846.79 1378.57 1846.79 Q1385.06 1846.79 1389.11 1851.95 Q1393.18 1857.11 1393.18 1865.51 Q1393.18 1873.91 1389.11 1879.07 Q1385.06 1884.22 1378.57 1884.22 Q1374.66 1884.22 1371.82 1882.7 Q1369.02 1881.14 1367.18 1877.95 M1387.1 1865.51 Q1387.1 1859.05 1384.43 1855.39 Q1381.78 1851.7 1377.14 1851.7 Q1372.49 1851.7 1369.82 1855.39 Q1367.18 1859.05 1367.18 1865.51 Q1367.18 1871.97 1369.82 1875.66 Q1372.49 1879.32 1377.14 1879.32 Q1381.78 1879.32 1384.43 1875.66 Q1387.1 1871.97 1387.1 1865.51 Z" fill="#000000" fill-rule="evenodd" fill-opacity="1" /><path clip-path="url(#clip240)" d="M1416.7 1851.76 Q1411.99 1851.76 1409.25 1855.45 Q1406.52 1859.11 1406.52 1865.51 Q1406.52 1871.91 1409.22 1875.6 Q1411.96 1879.26 1416.7 1879.26 Q1421.38 1879.26 1424.12 1875.57 Q1426.85 1871.87 1426.85 1865.51 Q1426.85 1859.17 1424.12 1855.48 Q1421.38 1851.76 1416.7 1851.76 M1416.7 1846.79 Q1424.34 1846.79 1428.7 1851.76 Q1433.06 1856.72 1433.06 1865.51 Q1433.06 1874.26 1428.7 1879.26 Q1424.34 1884.22 1416.7 1884.22 Q1409.03 1884.22 1404.67 1879.26 Q1400.34 1874.26 1400.34 1865.51 Q1400.34 1856.72 1404.67 1851.76 Q1409.03 1846.79 1416.7 1846.79 Z" fill="#000000" fill-rule="evenodd" fill-opacity="1" /><path clip-path="url(#clip240)" d="M1477.56 1833.84 Q1473.29 1841.16 1471.22 1848.32 Q1469.15 1855.48 1469.15 1862.84 Q1469.15 1870.19 1471.22 1877.41 Q1473.32 1884.61 1477.56 1891.89 L1472.46 1891.89 Q1467.69 1884.41 1465.3 1877.19 Q1462.95 1869.96 1462.95 1862.84 Q1462.95 1855.74 1465.3 1848.54 Q1467.66 1841.35 1472.46 1833.84 L1477.56 1833.84 Z" fill="#000000" fill-rule="evenodd" fill-opacity="1" /><path clip-path="url(#clip240)" d="M1516.67 1854.5 Q1518.87 1850.55 1521.93 1848.67 Q1524.98 1846.79 1529.12 1846.79 Q1534.69 1846.79 1537.71 1850.71 Q1540.74 1854.59 1540.74 1861.78 L1540.74 1883.3 L1534.85 1883.3 L1534.85 1861.98 Q1534.85 1856.85 1533.03 1854.37 Q1531.22 1851.89 1527.5 1851.89 Q1522.94 1851.89 1520.3 1854.91 Q1517.66 1857.93 1517.66 1863.15 L1517.66 1883.3 L1511.77 1883.3 L1511.77 1861.98 Q1511.77 1856.82 1509.96 1854.37 Q1508.14 1851.89 1504.36 1851.89 Q1499.87 1851.89 1497.23 1854.94 Q1494.59 1857.97 1494.59 1863.15 L1494.59 1883.3 L1488.7 1883.3 L1488.7 1847.65 L1494.59 1847.65 L1494.59 1853.19 Q1496.59 1849.91 1499.39 1848.35 Q1502.19 1846.79 1506.04 1846.79 Q1509.93 1846.79 1512.63 1848.77 Q1515.37 1850.74 1516.67 1854.5 Z" fill="#000000" fill-rule="evenodd" fill-opacity="1" /><path clip-path="url(#clip240)" d="M1552.42 1847.65 L1558.27 1847.65 L1558.27 1883.3 L1552.42 1883.3 L1552.42 1847.65 M1552.42 1833.78 L1558.27 1833.78 L1558.27 1841.19 L1552.42 1841.19 L1552.42 1833.78 Z" fill="#000000" fill-rule="evenodd" fill-opacity="1" /><path clip-path="url(#clip240)" d="M1600.16 1861.78 L1600.16 1883.3 L1594.3 1883.3 L1594.3 1861.98 Q1594.3 1856.92 1592.33 1854.4 Q1590.36 1851.89 1586.41 1851.89 Q1581.67 1851.89 1578.93 1854.91 Q1576.19 1857.93 1576.19 1863.15 L1576.19 1883.3 L1570.31 1883.3 L1570.31 1847.65 L1576.19 1847.65 L1576.19 1853.19 Q1578.29 1849.98 1581.13 1848.39 Q1583.99 1846.79 1587.72 1846.79 Q1593.86 1846.79 1597.01 1850.61 Q1600.16 1854.4 1600.16 1861.78 Z" fill="#000000" fill-rule="evenodd" fill-opacity="1" /><path clip-path="url(#clip240)" d="M1610.92 1833.84 L1616.01 1833.84 Q1620.79 1841.35 1623.14 1848.54 Q1625.53 1855.74 1625.53 1862.84 Q1625.53 1869.96 1623.14 1877.19 Q1620.79 1884.41 1616.01 1891.89 L1610.92 1891.89 Q1615.15 1884.61 1617.22 1877.41 Q1619.32 1870.19 1619.32 1862.84 Q1619.32 1855.48 1617.22 1848.32 Q1615.15 1841.16 1610.92 1833.84 Z" fill="#000000" fill-rule="evenodd" fill-opacity="1" /><polyline clip-path="url(#clip242)" style="stroke:#000000; stroke-linecap:round; stroke-linejoin:round; stroke-width:2; stroke-opacity:0.1; fill:none" points="
  180.423,1686.38 2640.76,1686.38 
  "/>
<polyline clip-path="url(#clip242)" style="stroke:#000000; stroke-linecap:round; stroke-linejoin:round; stroke-width:2; stroke-opacity:0.1; fill:none" points="
  180.423,1166.28 2640.76,1166.28 
  "/>
<polyline clip-path="url(#clip242)" style="stroke:#000000; stroke-linecap:round; stroke-linejoin:round; stroke-width:2; stroke-opacity:0.1; fill:none" points="
  180.423,646.194 2640.76,646.194 
  "/>
<polyline clip-path="url(#clip242)" style="stroke:#000000; stroke-linecap:round; stroke-linejoin:round; stroke-width:2; stroke-opacity:0.1; fill:none" points="
  180.423,126.104 2640.76,126.104 
  "/>
<polyline clip-path="url(#clip240)" style="stroke:#000000; stroke-linecap:round; stroke-linejoin:round; stroke-width:4; stroke-opacity:1; fill:none" points="
  180.423,1734.12 180.423,47.2441 
  "/>
<polyline clip-path="url(#clip240)" style="stroke:#000000; stroke-linecap:round; stroke-linejoin:round; stroke-width:4; stroke-opacity:1; fill:none" points="
  180.423,1686.38 199.321,1686.38 
  "/>
<polyline clip-path="url(#clip240)" style="stroke:#000000; stroke-linecap:round; stroke-linejoin:round; stroke-width:4; stroke-opacity:1; fill:none" points="
  180.423,1166.28 199.321,1166.28 
  "/>
<polyline clip-path="url(#clip240)" style="stroke:#000000; stroke-linecap:round; stroke-linejoin:round; stroke-width:4; stroke-opacity:1; fill:none" points="
  180.423,646.194 199.321,646.194 
  "/>
<polyline clip-path="url(#clip240)" style="stroke:#000000; stroke-linecap:round; stroke-linejoin:round; stroke-width:4; stroke-opacity:1; fill:none" points="
  180.423,126.104 199.321,126.104 
  "/>
<path clip-path="url(#clip240)" d="M128.159 1672.17 Q124.548 1672.17 122.719 1675.74 Q120.913 1679.28 120.913 1686.41 Q120.913 1693.52 122.719 1697.08 Q124.548 1700.62 128.159 1700.62 Q131.793 1700.62 133.599 1697.08 Q135.427 1693.52 135.427 1686.41 Q135.427 1679.28 133.599 1675.74 Q131.793 1672.17 128.159 1672.17 M128.159 1668.47 Q133.969 1668.47 137.025 1673.08 Q140.103 1677.66 140.103 1686.41 Q140.103 1695.14 137.025 1699.74 Q133.969 1704.33 128.159 1704.33 Q122.349 1704.33 119.27 1699.74 Q116.214 1695.14 116.214 1686.41 Q116.214 1677.66 119.27 1673.08 Q122.349 1668.47 128.159 1668.47 Z" fill="#000000" fill-rule="evenodd" fill-opacity="1" /><path clip-path="url(#clip240)" d="M120.196 1179.63 L127.835 1179.63 L127.835 1153.26 L119.525 1154.93 L119.525 1150.67 L127.788 1149 L132.464 1149 L132.464 1179.63 L140.103 1179.63 L140.103 1183.56 L120.196 1183.56 L120.196 1179.63 Z" fill="#000000" fill-rule="evenodd" fill-opacity="1" /><path clip-path="url(#clip240)" d="M123.784 659.539 L140.103 659.539 L140.103 663.474 L118.159 663.474 L118.159 659.539 Q120.821 656.784 125.404 652.155 Q130.011 647.502 131.191 646.16 Q133.437 643.636 134.316 641.9 Q135.219 640.141 135.219 638.451 Q135.219 635.697 133.275 633.961 Q131.353 632.224 128.251 632.224 Q126.052 632.224 123.599 632.988 Q121.168 633.752 118.39 635.303 L118.39 630.581 Q121.214 629.447 123.668 628.868 Q126.122 628.289 128.159 628.289 Q133.529 628.289 136.724 630.974 Q139.918 633.66 139.918 638.15 Q139.918 640.28 139.108 642.201 Q138.321 644.099 136.214 646.692 Q135.636 647.363 132.534 650.581 Q129.432 653.775 123.784 659.539 Z" fill="#000000" fill-rule="evenodd" fill-opacity="1" /><path clip-path="url(#clip240)" d="M132.974 124.75 Q136.33 125.467 138.205 127.736 Q140.103 130.004 140.103 133.337 Q140.103 138.453 136.585 141.254 Q133.066 144.055 126.585 144.055 Q124.409 144.055 122.094 143.615 Q119.802 143.199 117.349 142.342 L117.349 137.828 Q119.293 138.962 121.608 139.541 Q123.923 140.12 126.446 140.12 Q130.844 140.12 133.136 138.384 Q135.45 136.648 135.45 133.337 Q135.45 130.282 133.298 128.569 Q131.168 126.833 127.349 126.833 L123.321 126.833 L123.321 122.99 L127.534 122.99 Q130.983 122.99 132.812 121.625 Q134.64 120.236 134.64 117.643 Q134.64 114.981 132.742 113.569 Q130.867 112.134 127.349 112.134 Q125.427 112.134 123.228 112.551 Q121.029 112.967 118.39 113.847 L118.39 109.68 Q121.052 108.939 123.367 108.569 Q125.705 108.199 127.765 108.199 Q133.089 108.199 136.191 110.629 Q139.293 113.037 139.293 117.157 Q139.293 120.027 137.65 122.018 Q136.006 123.986 132.974 124.75 Z" fill="#000000" fill-rule="evenodd" fill-opacity="1" /><path clip-path="url(#clip240)" d="M39.3585 1021.27 Q40.0587 1019.2 42.3504 1017.26 Q44.642 1015.29 48.6524 1013.32 L61.6384 1006.79 L61.6384 1013.7 L49.4481 1019.78 Q44.6738 1022.13 43.1142 1024.36 Q41.5546 1026.56 41.5546 1030.38 L41.5546 1037.38 L61.6384 1037.38 L61.6384 1043.81 L14.1184 1043.81 L14.1184 1029.29 Q14.1184 1021.15 17.5241 1017.14 Q20.9297 1013.12 27.8047 1013.12 Q32.2925 1013.12 35.2526 1015.23 Q38.2126 1017.29 39.3585 1021.27 M19.402 1037.38 L36.2711 1037.38 L36.2711 1029.29 Q36.2711 1024.65 34.1386 1022.29 Q31.9743 1019.9 27.8047 1019.9 Q23.6352 1019.9 21.5345 1022.29 Q19.402 1024.65 19.402 1029.29 L19.402 1037.38 Z" fill="#000000" fill-rule="evenodd" fill-opacity="1" /><path clip-path="url(#clip240)" d="M43.719 984.002 Q43.719 991.1 45.3422 993.837 Q46.9655 996.574 50.8804 996.574 Q53.9996 996.574 55.8457 994.537 Q57.6599 992.468 57.6599 988.935 Q57.6599 984.065 54.2224 981.137 Q50.7531 978.177 45.0239 978.177 L43.719 978.177 L43.719 984.002 M41.3 972.321 L61.6384 972.321 L61.6384 978.177 L56.2276 978.177 Q59.4741 980.182 61.0337 983.174 Q62.5615 986.166 62.5615 990.495 Q62.5615 995.969 59.5059 999.216 Q56.4186 1002.43 51.2623 1002.43 Q45.2467 1002.43 42.1912 998.42 Q39.1357 994.378 39.1357 986.389 L39.1357 978.177 L38.5628 978.177 Q34.5205 978.177 32.3244 980.851 Q30.0964 983.493 30.0964 988.299 Q30.0964 991.354 30.8284 994.251 Q31.5605 997.147 33.0246 999.821 L27.6137 999.821 Q26.3724 996.606 25.7677 993.582 Q25.1311 990.558 25.1311 987.694 Q25.1311 979.96 29.1415 976.14 Q33.1519 972.321 41.3 972.321 Z" fill="#000000" fill-rule="evenodd" fill-opacity="1" /><path clip-path="url(#clip240)" d="M31.4013 936.8 L12.1132 936.8 L12.1132 930.944 L61.6384 930.944 L61.6384 936.8 L56.2912 936.8 Q59.4741 938.646 61.0337 941.479 Q62.5615 944.28 62.5615 948.227 Q62.5615 954.688 57.4052 958.762 Q52.249 962.804 43.8463 962.804 Q35.4436 962.804 30.2873 958.762 Q25.1311 954.688 25.1311 948.227 Q25.1311 944.28 26.6907 941.479 Q28.2185 938.646 31.4013 936.8 M43.8463 956.757 Q50.3075 956.757 53.9996 954.115 Q57.6599 951.441 57.6599 946.794 Q57.6599 942.147 53.9996 939.474 Q50.3075 936.8 43.8463 936.8 Q37.3851 936.8 33.7248 939.474 Q30.0327 942.147 30.0327 946.794 Q30.0327 951.441 33.7248 954.115 Q37.3851 956.757 43.8463 956.757 Z" fill="#000000" fill-rule="evenodd" fill-opacity="1" /><path clip-path="url(#clip240)" d="M25.9905 918.881 L25.9905 913.024 L61.6384 913.024 L61.6384 918.881 L25.9905 918.881 M12.1132 918.881 L12.1132 913.024 L19.5293 913.024 L19.5293 918.881 L12.1132 918.881 Z" fill="#000000" fill-rule="evenodd" fill-opacity="1" /><path clip-path="url(#clip240)" d="M30.0964 886.957 Q30.0964 891.667 33.7885 894.404 Q37.4488 897.142 43.8463 897.142 Q50.2438 897.142 53.9359 894.436 Q57.5962 891.699 57.5962 886.957 Q57.5962 882.278 53.9041 879.541 Q50.212 876.803 43.8463 876.803 Q37.5124 876.803 33.8203 879.541 Q30.0964 882.278 30.0964 886.957 M25.1311 886.957 Q25.1311 879.318 30.0964 874.957 Q35.0616 870.597 43.8463 870.597 Q52.5991 870.597 57.5962 874.957 Q62.5615 879.318 62.5615 886.957 Q62.5615 894.627 57.5962 898.988 Q52.5991 903.316 43.8463 903.316 Q35.0616 903.316 30.0964 898.988 Q25.1311 894.627 25.1311 886.957 Z" fill="#000000" fill-rule="evenodd" fill-opacity="1" /><path clip-path="url(#clip240)" d="M12.1769 826.1 Q19.4975 830.365 26.6589 832.434 Q33.8203 834.503 41.1727 834.503 Q48.5251 834.503 55.7502 832.434 Q62.9434 830.334 70.2321 826.1 L70.2321 831.193 Q62.7524 835.967 55.5274 838.354 Q48.3023 840.71 41.1727 840.71 Q34.0749 840.71 26.8817 838.354 Q19.6884 835.999 12.1769 831.193 L12.1769 826.1 Z" fill="#000000" fill-rule="evenodd" fill-opacity="1" /><path clip-path="url(#clip240)" d="M32.8336 786.983 Q28.8869 784.787 27.009 781.731 Q25.1311 778.676 25.1311 774.538 Q25.1311 768.968 29.046 765.945 Q32.9291 762.921 40.1224 762.921 L61.6384 762.921 L61.6384 768.809 L40.3133 768.809 Q35.1889 768.809 32.7063 770.623 Q30.2237 772.438 30.2237 776.161 Q30.2237 780.713 33.2474 783.355 Q36.2711 785.996 41.491 785.996 L61.6384 785.996 L61.6384 791.885 L40.3133 791.885 Q35.1571 791.885 32.7063 793.699 Q30.2237 795.513 30.2237 799.301 Q30.2237 803.789 33.2792 806.43 Q36.3029 809.072 41.491 809.072 L61.6384 809.072 L61.6384 814.96 L25.9905 814.96 L25.9905 809.072 L31.5287 809.072 Q28.2503 807.067 26.6907 804.266 Q25.1311 801.465 25.1311 797.614 Q25.1311 793.731 27.1045 791.025 Q29.0779 788.288 32.8336 786.983 Z" fill="#000000" fill-rule="evenodd" fill-opacity="1" /><path clip-path="url(#clip240)" d="M12.1769 752.163 L12.1769 747.07 Q19.6884 742.296 26.8817 739.941 Q34.0749 737.553 41.1727 737.553 Q48.3023 737.553 55.5274 739.941 Q62.7524 742.296 70.2321 747.07 L70.2321 752.163 Q62.9434 747.93 55.7502 745.861 Q48.5251 743.76 41.1727 743.76 Q33.8203 743.76 26.6589 745.861 Q19.4975 747.93 12.1769 752.163 Z" fill="#000000" fill-rule="evenodd" fill-opacity="1" /><polyline clip-path="url(#clip242)" style="stroke:#009af9; stroke-linecap:round; stroke-linejoin:round; stroke-width:4; stroke-opacity:1; fill:none" points="
  180.423,1686.38 182.425,1604.5 184.428,1583.08 186.43,1567.97 188.432,1555.88 190.435,1545.62 192.437,1536.6 194.439,1528.49 196.441,1521.09 201.07,1505.95 
  205.698,1492.79 210.327,1481.02 214.955,1470.29 224.212,1451.13 233.469,1434.16 242.726,1418.77 251.983,1404.58 261.24,1391.32 270.497,1378.82 289.01,1355.61 
  307.524,1334.24 326.038,1314.28 344.552,1295.42 366.804,1273.94 389.056,1253.5 411.308,1233.94 433.56,1215.11 471.188,1184.66 508.815,1155.65 590.564,1096.45 
  665.929,1045.41 746.728,993.562 840.341,936.425 923.534,887.803 996.487,846.57 1076.02,802.915 1156.03,760.208 1244.5,714.239 1328.67,671.592 1416.18,628.264 
  1489.85,592.523 1579.8,549.72 1662.19,511.252 1738.29,476.308 1815.37,441.446 1901.76,402.975 1980.04,368.629 2069.67,329.869 2152.66,294.487 2234.47,260.056 
  2313.91,227.033 2395.34,193.576 2484.56,157.357 2614.17,105.514 2640.76,94.9858 
  "/>
<path clip-path="url(#clip240)" d="
M2232.94 207.153 L2558.74 207.153 L2558.74 103.473 L2232.94 103.473  Z
  " fill="#ffffff" fill-rule="evenodd" fill-opacity="1"/>
<polyline clip-path="url(#clip240)" style="stroke:#000000; stroke-linecap:round; stroke-linejoin:round; stroke-width:4; stroke-opacity:1; fill:none" points="
  2232.94,207.153 2558.74,207.153 2558.74,103.473 2232.94,103.473 2232.94,207.153 
  "/>
<polyline clip-path="url(#clip240)" style="stroke:#009af9; stroke-linecap:round; stroke-linejoin:round; stroke-width:4; stroke-opacity:1; fill:none" points="
  2260.28,155.313 2424.3,155.313 
  "/>
<path clip-path="url(#clip240)" d="M2465.48 175.001 Q2463.68 179.63 2461.96 181.042 Q2460.25 182.454 2457.38 182.454 L2453.98 182.454 L2453.98 178.889 L2456.48 178.889 Q2458.24 178.889 2459.21 178.056 Q2460.18 177.223 2461.36 174.121 L2462.13 172.177 L2451.64 146.667 L2456.15 146.667 L2464.26 166.945 L2472.36 146.667 L2476.87 146.667 L2465.48 175.001 Z" fill="#000000" fill-rule="evenodd" fill-opacity="1" /><path clip-path="url(#clip240)" d="M2484.16 168.658 L2491.8 168.658 L2491.8 142.292 L2483.49 143.959 L2483.49 139.7 L2491.76 138.033 L2496.43 138.033 L2496.43 168.658 L2504.07 168.658 L2504.07 172.593 L2484.16 172.593 L2484.16 168.658 Z" fill="#000000" fill-rule="evenodd" fill-opacity="1" /></svg>
