<?xml version="1.0" encoding="utf-8"?>
<svg xmlns="http://www.w3.org/2000/svg" xmlns:xlink="http://www.w3.org/1999/xlink" width="672" height="480" viewBox="0 0 2688 1920">
<defs>
  <clipPath id="clip400">
    <rect x="0" y="0" width="2688" height="1920"/>
  </clipPath>
</defs>
<path clip-path="url(#clip400)" d="
M0 1920 L2688 1920 L2688 0 L0 0  Z
  " fill="#ffffff" fill-rule="evenodd" fill-opacity="1"/>
<defs>
  <clipPath id="clip401">
    <rect x="537" y="0" width="1883" height="1883"/>
  </clipPath>
</defs>
<defs>
  <clipPath id="clip402">
    <rect x="152" y="190" width="2490" height="1468"/>
  </clipPath>
</defs>
<path clip-path="url(#clip400)" d="
M115.057 1800.78 L2640.76 1800.78 L2640.76 47.2441 L115.057 47.2441  Z
  " fill="#ffffff" fill-rule="evenodd" fill-opacity="1"/>
<defs>
  <clipPath id="clip403">
    <rect x="115" y="47" width="2527" height="1755"/>
  </clipPath>
</defs>
<polyline clip-path="url(#clip403)" style="stroke:#000000; stroke-linecap:round; stroke-linejoin:round; stroke-width:2; stroke-opacity:0.1; fill:none" points="
  186.539,1800.78 186.539,47.2441 
  "/>
<polyline clip-path="url(#clip403)" style="stroke:#000000; stroke-linecap:round; stroke-linejoin:round; stroke-width:2; stroke-opacity:0.1; fill:none" points="
  782.223,1800.78 782.223,47.2441 
  "/>
<polyline clip-path="url(#clip403)" style="stroke:#000000; stroke-linecap:round; stroke-linejoin:round; stroke-width:2; stroke-opacity:0.1; fill:none" points="
  1377.91,1800.78 1377.91,47.2441 
  "/>
<polyline clip-path="url(#clip403)" style="stroke:#000000; stroke-linecap:round; stroke-linejoin:round; stroke-width:2; stroke-opacity:0.1; fill:none" points="
  1973.59,1800.78 1973.59,47.2441 
  "/>
<polyline clip-path="url(#clip403)" style="stroke:#000000; stroke-linecap:round; stroke-linejoin:round; stroke-width:2; stroke-opacity:0.1; fill:none" points="
  2569.27,1800.78 2569.27,47.2441 
  "/>
<polyline clip-path="url(#clip400)" style="stroke:#000000; stroke-linecap:round; stroke-linejoin:round; stroke-width:4; stroke-opacity:1; fill:none" points="
  115.057,1800.78 2640.76,1800.78 
  "/>
<polyline clip-path="url(#clip400)" style="stroke:#000000; stroke-linecap:round; stroke-linejoin:round; stroke-width:4; stroke-opacity:1; fill:none" points="
  186.539,1800.78 186.539,1781.88 
  "/>
<polyline clip-path="url(#clip400)" style="stroke:#000000; stroke-linecap:round; stroke-linejoin:round; stroke-width:4; stroke-opacity:1; fill:none" points="
  782.223,1800.78 782.223,1781.88 
  "/>
<polyline clip-path="url(#clip400)" style="stroke:#000000; stroke-linecap:round; stroke-linejoin:round; stroke-width:4; stroke-opacity:1; fill:none" points="
  1377.91,1800.78 1377.91,1781.88 
  "/>
<polyline clip-path="url(#clip400)" style="stroke:#000000; stroke-linecap:round; stroke-linejoin:round; stroke-width:4; stroke-opacity:1; fill:none" points="
  1973.59,1800.78 1973.59,1781.88 
  "/>
<polyline clip-path="url(#clip400)" style="stroke:#000000; stroke-linecap:round; stroke-linejoin:round; stroke-width:4; stroke-opacity:1; fill:none" points="
  2569.27,1800.78 2569.27,1781.88 
  "/>
<path clip-path="url(#clip400)" d="M156.482 1848.65 L186.157 1848.65 L186.157 1852.59 L156.482 1852.59 L156.482 1848.65 Z" fill="#000000" fill-rule="evenodd" fill-opacity="1" /><path clip-path="url(#clip400)" d="M200.278 1861.55 L216.597 1861.55 L216.597 1865.48 L194.653 1865.48 L194.653 1861.55 Q197.315 1858.79 201.898 1854.16 Q206.504 1849.51 207.685 1848.17 Q209.93 1845.65 210.81 1843.91 Q211.713 1842.15 211.713 1840.46 Q211.713 1837.71 209.768 1835.97 Q207.847 1834.23 204.745 1834.23 Q202.546 1834.23 200.092 1835 Q197.662 1835.76 194.884 1837.31 L194.884 1832.59 Q197.708 1831.46 200.162 1830.88 Q202.616 1830.3 204.653 1830.3 Q210.023 1830.3 213.217 1832.98 Q216.412 1835.67 216.412 1840.16 Q216.412 1842.29 215.602 1844.21 Q214.815 1846.11 212.708 1848.7 Q212.129 1849.37 209.028 1852.59 Q205.926 1855.78 200.278 1861.55 Z" fill="#000000" fill-rule="evenodd" fill-opacity="1" /><path clip-path="url(#clip400)" d="M751.98 1848.65 L781.656 1848.65 L781.656 1852.59 L751.98 1852.59 L751.98 1848.65 Z" fill="#000000" fill-rule="evenodd" fill-opacity="1" /><path clip-path="url(#clip400)" d="M792.558 1861.55 L800.197 1861.55 L800.197 1835.18 L791.887 1836.85 L791.887 1832.59 L800.151 1830.92 L804.827 1830.92 L804.827 1861.55 L812.466 1861.55 L812.466 1865.48 L792.558 1865.48 L792.558 1861.55 Z" fill="#000000" fill-rule="evenodd" fill-opacity="1" /><path clip-path="url(#clip400)" d="M1377.91 1834 Q1374.3 1834 1372.47 1837.57 Q1370.66 1841.11 1370.66 1848.24 Q1370.66 1855.34 1372.47 1858.91 Q1374.3 1862.45 1377.91 1862.45 Q1381.54 1862.45 1383.35 1858.91 Q1385.18 1855.34 1385.18 1848.24 Q1385.18 1841.11 1383.35 1837.57 Q1381.54 1834 1377.91 1834 M1377.91 1830.3 Q1383.72 1830.3 1386.77 1834.9 Q1389.85 1839.49 1389.85 1848.24 Q1389.85 1856.96 1386.77 1861.57 Q1383.72 1866.15 1377.91 1866.15 Q1372.1 1866.15 1369.02 1861.57 Q1365.96 1856.96 1365.96 1848.24 Q1365.96 1839.49 1369.02 1834.9 Q1372.1 1830.3 1377.91 1830.3 Z" fill="#000000" fill-rule="evenodd" fill-opacity="1" /><path clip-path="url(#clip400)" d="M1963.97 1861.55 L1971.61 1861.55 L1971.61 1835.18 L1963.3 1836.85 L1963.3 1832.59 L1971.56 1830.92 L1976.24 1830.92 L1976.24 1861.55 L1983.88 1861.55 L1983.88 1865.48 L1963.97 1865.48 L1963.97 1861.55 Z" fill="#000000" fill-rule="evenodd" fill-opacity="1" /><path clip-path="url(#clip400)" d="M2563.93 1861.55 L2580.25 1861.55 L2580.25 1865.48 L2558.3 1865.48 L2558.3 1861.55 Q2560.96 1858.79 2565.55 1854.16 Q2570.15 1849.51 2571.33 1848.17 Q2573.58 1845.65 2574.46 1843.91 Q2575.36 1842.15 2575.36 1840.46 Q2575.36 1837.71 2573.42 1835.97 Q2571.5 1834.23 2568.39 1834.23 Q2566.2 1834.23 2563.74 1835 Q2561.31 1835.76 2558.53 1837.31 L2558.53 1832.59 Q2561.36 1831.46 2563.81 1830.88 Q2566.26 1830.3 2568.3 1830.3 Q2573.67 1830.3 2576.87 1832.98 Q2580.06 1835.67 2580.06 1840.16 Q2580.06 1842.29 2579.25 1844.21 Q2578.46 1846.11 2576.36 1848.7 Q2575.78 1849.37 2572.68 1852.59 Q2569.57 1855.78 2563.93 1861.55 Z" fill="#000000" fill-rule="evenodd" fill-opacity="1" /><polyline clip-path="url(#clip403)" style="stroke:#000000; stroke-linecap:round; stroke-linejoin:round; stroke-width:2; stroke-opacity:0.1; fill:none" points="
  115.057,1782.02 2640.76,1782.02 
  "/>
<polyline clip-path="url(#clip403)" style="stroke:#000000; stroke-linecap:round; stroke-linejoin:round; stroke-width:2; stroke-opacity:0.1; fill:none" points="
  115.057,1325.9 2640.76,1325.9 
  "/>
<polyline clip-path="url(#clip403)" style="stroke:#000000; stroke-linecap:round; stroke-linejoin:round; stroke-width:2; stroke-opacity:0.1; fill:none" points="
  115.057,869.778 2640.76,869.778 
  "/>
<polyline clip-path="url(#clip403)" style="stroke:#000000; stroke-linecap:round; stroke-linejoin:round; stroke-width:2; stroke-opacity:0.1; fill:none" points="
  115.057,413.66 2640.76,413.66 
  "/>
<polyline clip-path="url(#clip400)" style="stroke:#000000; stroke-linecap:round; stroke-linejoin:round; stroke-width:4; stroke-opacity:1; fill:none" points="
  115.057,1800.78 115.057,47.2441 
  "/>
<polyline clip-path="url(#clip400)" style="stroke:#000000; stroke-linecap:round; stroke-linejoin:round; stroke-width:4; stroke-opacity:1; fill:none" points="
  115.057,1782.02 133.955,1782.02 
  "/>
<polyline clip-path="url(#clip400)" style="stroke:#000000; stroke-linecap:round; stroke-linejoin:round; stroke-width:4; stroke-opacity:1; fill:none" points="
  115.057,1325.9 133.955,1325.9 
  "/>
<polyline clip-path="url(#clip400)" style="stroke:#000000; stroke-linecap:round; stroke-linejoin:round; stroke-width:4; stroke-opacity:1; fill:none" points="
  115.057,869.778 133.955,869.778 
  "/>
<polyline clip-path="url(#clip400)" style="stroke:#000000; stroke-linecap:round; stroke-linejoin:round; stroke-width:4; stroke-opacity:1; fill:none" points="
  115.057,413.66 133.955,413.66 
  "/>
<path clip-path="url(#clip400)" d="M62.7928 1767.81 Q59.1817 1767.81 57.353 1771.38 Q55.5475 1774.92 55.5475 1782.05 Q55.5475 1789.16 57.353 1792.72 Q59.1817 1796.26 62.7928 1796.26 Q66.427 1796.26 68.2326 1792.72 Q70.0613 1789.16 70.0613 1782.05 Q70.0613 1774.92 68.2326 1771.38 Q66.427 1767.81 62.7928 1767.81 M62.7928 1764.11 Q68.6029 1764.11 71.6585 1768.72 Q74.7372 1773.3 74.7372 1782.05 Q74.7372 1790.78 71.6585 1795.38 Q68.6029 1799.97 62.7928 1799.97 Q56.9826 1799.97 53.904 1795.38 Q50.8484 1790.78 50.8484 1782.05 Q50.8484 1773.3 53.904 1768.72 Q56.9826 1764.11 62.7928 1764.11 Z" fill="#000000" fill-rule="evenodd" fill-opacity="1" /><path clip-path="url(#clip400)" d="M58.4178 1339.24 L74.7372 1339.24 L74.7372 1343.18 L52.7928 1343.18 L52.7928 1339.24 Q55.4549 1336.49 60.0382 1331.86 Q64.6446 1327.2 65.8252 1325.86 Q68.0705 1323.34 68.9502 1321.6 Q69.8529 1319.84 69.8529 1318.15 Q69.8529 1315.4 67.9085 1313.66 Q65.9872 1311.93 62.8854 1311.93 Q60.6863 1311.93 58.2326 1312.69 Q55.8021 1313.45 53.0243 1315.01 L53.0243 1310.28 Q55.8484 1309.15 58.3021 1308.57 Q60.7558 1307.99 62.7928 1307.99 Q68.1631 1307.99 71.3576 1310.68 Q74.552 1313.36 74.552 1317.85 Q74.552 1319.98 73.7418 1321.9 Q72.9548 1323.8 70.8483 1326.39 Q70.2696 1327.07 67.1678 1330.28 Q64.0659 1333.48 58.4178 1339.24 Z" fill="#000000" fill-rule="evenodd" fill-opacity="1" /><path clip-path="url(#clip400)" d="M65.1539 856.572 L53.3484 875.021 L65.1539 875.021 L65.1539 856.572 M63.927 852.498 L69.8066 852.498 L69.8066 875.021 L74.7372 875.021 L74.7372 878.91 L69.8066 878.91 L69.8066 887.058 L65.1539 887.058 L65.1539 878.91 L49.5521 878.91 L49.5521 874.396 L63.927 852.498 Z" fill="#000000" fill-rule="evenodd" fill-opacity="1" /><path clip-path="url(#clip400)" d="M63.2095 411.796 Q60.0613 411.796 58.2095 413.949 Q56.3808 416.102 56.3808 419.852 Q56.3808 423.579 58.2095 425.754 Q60.0613 427.907 63.2095 427.907 Q66.3576 427.907 68.1863 425.754 Q70.0381 423.579 70.0381 419.852 Q70.0381 416.102 68.1863 413.949 Q66.3576 411.796 63.2095 411.796 M72.4918 397.143 L72.4918 401.403 Q70.7326 400.569 68.927 400.13 Q67.1446 399.69 65.3854 399.69 Q60.7558 399.69 58.3021 402.815 Q55.8715 405.94 55.5243 412.259 Q56.89 410.245 58.9502 409.18 Q61.0104 408.093 63.4872 408.093 Q68.6955 408.093 71.7048 411.264 Q74.7372 414.412 74.7372 419.852 Q74.7372 425.176 71.589 428.393 Q68.4409 431.611 63.2095 431.611 Q57.2141 431.611 54.0428 427.028 Q50.8716 422.421 50.8716 413.694 Q50.8716 405.5 54.7604 400.639 Q58.6493 395.755 65.2002 395.755 Q66.9594 395.755 68.7418 396.102 Q70.5474 396.449 72.4918 397.143 Z" fill="#000000" fill-rule="evenodd" fill-opacity="1" /><polyline clip-path="url(#clip403)" style="stroke:#009af9; stroke-linecap:round; stroke-linejoin:round; stroke-width:4; stroke-opacity:1; fill:none" points="
  186.539,1725 202.052,1723.96 345.491,1713.42 431.692,1706.18 504.574,1699.47 583.744,1691.5 656.732,1683.48 734.983,1674.08 825.644,1662.08 906.213,1650.29 
  976.864,1639 1053.89,1625.59 1131.38,1610.83 1217.05,1592.89 1298.57,1574.07 1383.32,1552.51 1454.67,1532.65 1498.22,1519.68 1541.78,1506.05 1581.67,1492.93 
  1621.57,1479.2 1658.42,1465.93 1695.27,1452.08 1732.59,1437.44 1769.92,1422.14 1811.75,1404.19 1853.58,1385.34 1891.49,1367.45 1929.4,1348.76 1972.8,1326.32 
  2016.2,1302.71 2056.38,1279.77 2096.57,1255.72 2136.19,1230.89 2175.81,1204.89 2214.27,1178.48 2252.74,1150.85 2292.17,1121.21 2331.6,1090.19 2374.8,1054.52 
  2418.01,1017.01 2449.39,988.561 2480.76,959.054 2512.14,928.449 2543.52,896.707 2549.96,890.05 2556.4,883.343 2562.84,876.586 2569.27,869.778 
  "/>
<polyline clip-path="url(#clip403)" style="stroke:#e26f46; stroke-linecap:round; stroke-linejoin:round; stroke-width:4; stroke-opacity:1; fill:none" points="
  186.539,1751.15 202.052,1750.34 345.491,1741.71 431.692,1735.44 504.574,1729.37 583.744,1721.89 656.732,1714.05 734.983,1704.51 825.644,1691.77 906.213,1678.7 
  976.864,1665.69 1053.89,1649.64 1131.38,1631.25 1217.05,1607.93 1298.57,1582.4 1383.32,1551.87 1454.67,1522.59 1498.22,1502.91 1541.78,1481.74 1581.67,1460.94 
  1621.57,1438.7 1658.42,1416.79 1695.27,1393.48 1732.59,1368.36 1769.92,1341.61 1811.75,1309.57 1853.58,1275.2 1891.49,1241.9 1929.4,1206.41 1972.8,1162.91 
  2016.2,1116.12 2056.38,1069.65 2096.57,1019.93 2136.19,967.523 2175.81,911.511 2214.27,853.444 2252.74,791.505 2272.45,758.172 2292.17,723.717 2311.88,688.103 
  2331.6,651.291 2353.2,609.535 2374.8,566.237 2396.4,521.34 2418.01,474.785 2449.39,404.077 2480.76,329.544 2512.14,250.98 2543.52,168.166 2549.96,150.63 
  2556.4,132.904 2562.84,114.986 2569.27,96.8724 
  "/>
<polyline clip-path="url(#clip403)" style="stroke:#3da44d; stroke-linecap:round; stroke-linejoin:round; stroke-width:4; stroke-opacity:1; fill:none" points="
  186.539,869.778 190.417,873.886 194.296,877.975 198.174,882.045 202.052,886.097 237.912,922.712 273.772,957.831 309.632,991.514 345.491,1023.82 388.592,1060.91 
  431.692,1096.18 468.133,1124.65 504.574,1151.95 544.159,1180.31 583.744,1207.4 620.238,1231.29 656.732,1254.18 695.857,1277.68 734.983,1300.12 780.313,1324.88 
  825.644,1348.37 865.928,1368.23 906.213,1387.18 941.538,1403.08 976.864,1418.34 1015.38,1434.28 1053.89,1449.52 1092.64,1464.17 1131.38,1478.19 1174.22,1492.96 
  1217.05,1507.01 1257.81,1519.75 1298.57,1531.9 1383.32,1555.39 1454.67,1573.44 1541.78,1593.55 1621.57,1610.26 1695.27,1624.37 1769.92,1637.49 1853.58,1650.9 
  1929.4,1661.97 2016.2,1673.5 2096.57,1683.19 2175.81,1691.89 2252.74,1699.61 2331.6,1706.84 2418.01,1714.03 2543.52,1723.27 2569.27,1725 
  "/>
<polyline clip-path="url(#clip403)" style="stroke:#c271d2; stroke-linecap:round; stroke-linejoin:round; stroke-width:4; stroke-opacity:1; fill:none" points="
  186.539,1316.59 194.296,1318.74 202.052,1320.89 273.772,1340.27 345.491,1358.84 388.592,1369.62 431.692,1380.13 468.133,1388.8 504.574,1397.29 583.744,1415.1 
  656.732,1430.79 734.983,1446.87 825.644,1464.58 906.213,1479.53 976.864,1492.06 1053.89,1505.13 1131.38,1517.68 1217.05,1530.9 1298.57,1542.86 1383.32,1554.69 
  1454.67,1564.2 1541.78,1575.27 1621.57,1584.92 1695.27,1593.42 1769.92,1601.67 1853.58,1610.48 1929.4,1618.09 2016.2,1626.4 2096.57,1633.71 2175.81,1640.58 
  2252.74,1646.95 2331.6,1653.18 2418.01,1659.67 2543.52,1668.53 2569.27,1670.27 
  "/>
<path clip-path="url(#clip400)" d="
M2230.16 364.895 L2556.57 364.895 L2556.57 105.695 L2230.16 105.695  Z
  " fill="#ffffff" fill-rule="evenodd" fill-opacity="1"/>
<polyline clip-path="url(#clip400)" style="stroke:#000000; stroke-linecap:round; stroke-linejoin:round; stroke-width:4; stroke-opacity:1; fill:none" points="
  2230.16,364.895 2556.57,364.895 2556.57,105.695 2230.16,105.695 2230.16,364.895 
  "/>
<polyline clip-path="url(#clip400)" style="stroke:#009af9; stroke-linecap:round; stroke-linejoin:round; stroke-width:4; stroke-opacity:1; fill:none" points="
  2258.22,157.535 2426.6,157.535 
  "/>
<path clip-path="url(#clip400)" d="M2454.67 178.684 Q2454.67 177.817 2454.74 177.56 Q2454.83 177.302 2455.21 176.904 L2464.41 166.645 Q2469.45 160.977 2469.45 156.035 Q2469.45 152.826 2467.76 150.53 Q2466.1 148.235 2463.03 148.235 Q2460.92 148.235 2459.14 149.523 Q2457.36 150.811 2456.54 153.107 Q2456.68 153.06 2457.17 153.06 Q2458.37 153.06 2459.02 153.809 Q2459.7 154.559 2459.7 155.566 Q2459.7 156.854 2458.86 157.487 Q2458.04 158.096 2457.22 158.096 Q2456.89 158.096 2456.45 158.025 Q2456.03 157.955 2455.35 157.299 Q2454.67 156.62 2454.67 155.426 Q2454.67 152.076 2457.2 149.406 Q2459.75 146.736 2463.64 146.736 Q2468.04 146.736 2470.92 149.359 Q2473.83 151.959 2473.83 156.035 Q2473.83 157.463 2473.38 158.775 Q2472.96 160.063 2472.37 161.07 Q2471.81 162.078 2470.27 163.694 Q2468.72 165.31 2467.48 166.458 Q2466.24 167.605 2463.45 170.041 L2458.37 174.983 L2467.01 174.983 Q2471.23 174.983 2471.55 174.609 Q2472.02 173.929 2472.61 170.346 L2473.83 170.346 L2472.47 178.684 L2454.67 178.684 Z" fill="#000000" fill-rule="evenodd" fill-opacity="1" /><path clip-path="url(#clip400)" d="M2495.48 138.462 Q2495.48 139.38 2494.91 139.905 Q2494.33 140.413 2493.68 140.413 Q2493.05 140.413 2492.73 140.052 Q2492.4 139.691 2492.4 139.232 Q2492.4 138.609 2492.86 138.068 Q2493.32 137.527 2494.01 137.412 Q2493.33 136.986 2492.33 136.986 Q2491.68 136.986 2491.1 137.331 Q2490.55 137.675 2490.2 138.118 Q2489.87 138.56 2489.58 139.2 Q2489.3 139.823 2489.18 140.2 Q2489.09 140.56 2489 140.954 L2487.86 145.545 Q2487.3 147.725 2487.3 148.496 Q2487.3 149.447 2487.76 150.086 Q2488.22 150.709 2489.14 150.709 Q2489.5 150.709 2489.91 150.611 Q2490.32 150.496 2490.84 150.201 Q2491.38 149.89 2491.86 149.431 Q2492.35 148.955 2492.82 148.152 Q2493.3 147.348 2493.61 146.315 Q2493.71 145.955 2494.04 145.955 Q2494.45 145.955 2494.45 146.283 Q2494.45 146.561 2494.22 147.152 Q2494.01 147.725 2493.53 148.48 Q2493.07 149.217 2492.46 149.89 Q2491.86 150.545 2490.96 151.005 Q2490.05 151.464 2489.07 151.464 Q2487.66 151.464 2486.73 150.709 Q2485.79 149.955 2485.45 148.906 Q2485.36 149.053 2485.25 149.25 Q2485.14 149.447 2484.79 149.89 Q2484.46 150.316 2484.09 150.644 Q2483.71 150.955 2483.12 151.201 Q2482.54 151.464 2481.92 151.464 Q2481.13 151.464 2480.43 151.234 Q2479.74 151.005 2479.25 150.48 Q2478.76 149.955 2478.76 149.234 Q2478.76 148.43 2479.3 147.873 Q2479.86 147.299 2480.61 147.299 Q2481.09 147.299 2481.46 147.578 Q2481.86 147.857 2481.86 148.463 Q2481.86 149.135 2481.4 149.644 Q2480.94 150.152 2480.28 150.283 Q2480.95 150.709 2481.95 150.709 Q2483.04 150.709 2483.89 149.758 Q2484.74 148.808 2485.15 147.217 Q2486.17 143.397 2486.56 141.692 Q2486.96 139.97 2486.96 139.232 Q2486.96 138.544 2486.77 138.068 Q2486.59 137.593 2486.28 137.38 Q2485.99 137.15 2485.71 137.068 Q2485.45 136.986 2485.15 136.986 Q2484.66 136.986 2484.1 137.183 Q2483.56 137.38 2482.91 137.839 Q2482.27 138.281 2481.66 139.2 Q2481.05 140.118 2480.64 141.38 Q2480.56 141.757 2480.2 141.757 Q2479.81 141.741 2479.81 141.413 Q2479.81 141.134 2480.02 140.56 Q2480.25 139.97 2480.71 139.232 Q2481.18 138.495 2481.79 137.839 Q2482.41 137.167 2483.32 136.707 Q2484.23 136.248 2485.22 136.248 Q2485.66 136.248 2486.09 136.347 Q2486.53 136.429 2487.05 136.675 Q2487.59 136.921 2488.07 137.462 Q2488.55 138.003 2488.84 138.79 Q2489.04 138.413 2489.3 138.052 Q2489.58 137.691 2490 137.249 Q2490.45 136.789 2491.05 136.527 Q2491.68 136.248 2492.37 136.248 Q2493.04 136.248 2493.69 136.429 Q2494.35 136.593 2494.91 137.134 Q2495.48 137.658 2495.48 138.462 Z" fill="#000000" fill-rule="evenodd" fill-opacity="1" /><polyline clip-path="url(#clip400)" style="stroke:#e26f46; stroke-linecap:round; stroke-linejoin:round; stroke-width:4; stroke-opacity:1; fill:none" points="
  2258.22,209.375 2426.6,209.375 
  "/>
<path clip-path="url(#clip400)" d="M2472.91 219.39 Q2473.1 219.601 2473.1 219.812 Q2473.1 220.023 2472.63 220.632 Q2472.19 221.241 2471.23 222.061 Q2470.27 222.88 2469.03 223.653 Q2467.78 224.426 2465.96 224.942 Q2464.13 225.48 2462.21 225.48 Q2458.77 225.48 2456.71 223.021 Q2454.67 220.562 2454.67 216.791 Q2454.67 214.378 2455.46 212.247 Q2456.26 210.092 2457.55 208.569 Q2458.86 207.047 2460.5 205.946 Q2462.16 204.822 2463.9 204.283 Q2465.63 203.744 2467.25 203.744 Q2469.61 203.744 2470.99 204.939 Q2472.37 206.133 2472.37 207.82 Q2472.37 208.218 2472.26 208.71 Q2472.16 209.202 2471.84 209.975 Q2471.53 210.748 2470.74 211.52 Q2469.94 212.27 2468.77 212.762 Q2466.17 213.863 2461.44 213.863 L2458.88 213.863 Q2458.13 216.884 2458.13 218.852 Q2458.13 219.625 2458.27 220.421 Q2458.41 221.194 2458.79 222.178 Q2459.19 223.161 2460.08 223.794 Q2460.99 224.403 2462.3 224.403 Q2462.72 224.403 2463.17 224.379 Q2463.64 224.356 2464.81 224.098 Q2466 223.841 2467.06 223.396 Q2468.11 222.951 2469.45 221.99 Q2470.81 221.007 2471.88 219.671 Q2472.26 219.18 2472.52 219.18 Q2472.73 219.18 2472.91 219.39 M2470.78 207.82 Q2470.78 206.531 2469.82 205.665 Q2468.88 204.798 2467.25 204.798 Q2466.73 204.798 2466.1 204.915 Q2465.47 205.032 2464.41 205.524 Q2463.38 206.016 2462.47 206.836 Q2461.55 207.632 2460.64 209.202 Q2459.73 210.748 2459.19 212.809 L2461.16 212.809 Q2461.83 212.809 2462.33 212.809 Q2462.82 212.785 2463.9 212.692 Q2465 212.598 2465.79 212.434 Q2466.59 212.247 2467.6 211.872 Q2468.6 211.497 2469.24 211.005 Q2469.89 210.49 2470.34 209.67 Q2470.78 208.85 2470.78 207.82 Z" fill="#000000" fill-rule="evenodd" fill-opacity="1" /><path clip-path="url(#clip400)" d="M2494.76 195.359 Q2494.76 196.277 2494.19 196.802 Q2493.62 197.31 2492.96 197.31 Q2492.34 197.31 2492.01 196.95 Q2491.68 196.589 2491.68 196.13 Q2491.68 195.507 2492.14 194.966 Q2492.6 194.425 2493.29 194.31 Q2492.62 193.884 2491.62 193.884 Q2490.96 193.884 2490.39 194.228 Q2489.83 194.572 2489.48 195.015 Q2489.16 195.458 2488.86 196.097 Q2488.58 196.72 2488.47 197.097 Q2488.37 197.458 2488.29 197.851 L2487.14 202.442 Q2486.58 204.623 2486.58 205.393 Q2486.58 206.344 2487.04 206.984 Q2487.5 207.607 2488.42 207.607 Q2488.78 207.607 2489.19 207.509 Q2489.6 207.394 2490.12 207.099 Q2490.66 206.787 2491.14 206.328 Q2491.63 205.853 2492.11 205.049 Q2492.58 204.246 2492.89 203.213 Q2492.99 202.852 2493.32 202.852 Q2493.73 202.852 2493.73 203.18 Q2493.73 203.459 2493.5 204.049 Q2493.29 204.623 2492.81 205.377 Q2492.35 206.115 2491.75 206.787 Q2491.14 207.443 2490.24 207.902 Q2489.34 208.361 2488.35 208.361 Q2486.94 208.361 2486.01 207.607 Q2485.07 206.853 2484.73 205.803 Q2484.65 205.951 2484.53 206.148 Q2484.42 206.344 2484.07 206.787 Q2483.75 207.213 2483.37 207.541 Q2482.99 207.853 2482.4 208.099 Q2481.83 208.361 2481.2 208.361 Q2480.42 208.361 2479.71 208.132 Q2479.02 207.902 2478.53 207.377 Q2478.04 206.853 2478.04 206.131 Q2478.04 205.328 2478.58 204.77 Q2479.14 204.197 2479.89 204.197 Q2480.37 204.197 2480.75 204.475 Q2481.14 204.754 2481.14 205.361 Q2481.14 206.033 2480.68 206.541 Q2480.22 207.049 2479.56 207.181 Q2480.24 207.607 2481.24 207.607 Q2482.32 207.607 2483.17 206.656 Q2484.02 205.705 2484.43 204.115 Q2485.45 200.294 2485.84 198.589 Q2486.24 196.868 2486.24 196.13 Q2486.24 195.441 2486.06 194.966 Q2485.88 194.49 2485.57 194.277 Q2485.27 194.048 2484.99 193.966 Q2484.73 193.884 2484.43 193.884 Q2483.94 193.884 2483.38 194.08 Q2482.84 194.277 2482.19 194.736 Q2481.55 195.179 2480.94 196.097 Q2480.34 197.015 2479.93 198.278 Q2479.84 198.655 2479.48 198.655 Q2479.09 198.638 2479.09 198.311 Q2479.09 198.032 2479.3 197.458 Q2479.53 196.868 2479.99 196.13 Q2480.47 195.392 2481.07 194.736 Q2481.7 194.064 2482.6 193.605 Q2483.52 193.146 2484.5 193.146 Q2484.94 193.146 2485.37 193.244 Q2485.81 193.326 2486.34 193.572 Q2486.88 193.818 2487.35 194.359 Q2487.83 194.9 2488.12 195.687 Q2488.32 195.31 2488.58 194.949 Q2488.86 194.589 2489.29 194.146 Q2489.73 193.687 2490.34 193.425 Q2490.96 193.146 2491.65 193.146 Q2492.32 193.146 2492.98 193.326 Q2493.63 193.49 2494.19 194.031 Q2494.76 194.556 2494.76 195.359 Z" fill="#000000" fill-rule="evenodd" fill-opacity="1" /><polyline clip-path="url(#clip400)" style="stroke:#3da44d; stroke-linecap:round; stroke-linejoin:round; stroke-width:4; stroke-opacity:1; fill:none" points="
  2258.22,261.215 2426.6,261.215 
  "/>
<path clip-path="url(#clip400)" d="M2454.67 282.364 Q2454.67 281.497 2454.74 281.24 Q2454.83 280.982 2455.21 280.584 L2464.41 270.325 Q2469.45 264.657 2469.45 259.715 Q2469.45 256.506 2467.76 254.21 Q2466.1 251.915 2463.03 251.915 Q2460.92 251.915 2459.14 253.203 Q2457.36 254.491 2456.54 256.787 Q2456.68 256.74 2457.17 256.74 Q2458.37 256.74 2459.02 257.489 Q2459.7 258.239 2459.7 259.246 Q2459.7 260.534 2458.86 261.167 Q2458.04 261.776 2457.22 261.776 Q2456.89 261.776 2456.45 261.705 Q2456.03 261.635 2455.35 260.979 Q2454.67 260.3 2454.67 259.106 Q2454.67 255.756 2457.2 253.086 Q2459.75 250.416 2463.64 250.416 Q2468.04 250.416 2470.92 253.039 Q2473.83 255.639 2473.83 259.715 Q2473.83 261.143 2473.38 262.455 Q2472.96 263.743 2472.37 264.75 Q2471.81 265.758 2470.27 267.374 Q2468.72 268.99 2467.48 270.138 Q2466.24 271.285 2463.45 273.721 L2458.37 278.663 L2467.01 278.663 Q2471.23 278.663 2471.55 278.289 Q2472.02 277.609 2472.61 274.026 L2473.83 274.026 L2472.47 282.364 L2454.67 282.364 Z" fill="#000000" fill-rule="evenodd" fill-opacity="1" /><path clip-path="url(#clip400)" d="M2495.48 242.142 Q2495.48 243.06 2494.91 243.585 Q2494.33 244.093 2493.68 244.093 Q2493.05 244.093 2492.73 243.732 Q2492.4 243.371 2492.4 242.912 Q2492.4 242.289 2492.86 241.748 Q2493.32 241.207 2494.01 241.092 Q2493.33 240.666 2492.33 240.666 Q2491.68 240.666 2491.1 241.011 Q2490.55 241.355 2490.2 241.798 Q2489.87 242.24 2489.58 242.88 Q2489.3 243.503 2489.18 243.88 Q2489.09 244.24 2489 244.634 L2487.86 249.225 Q2487.3 251.405 2487.3 252.176 Q2487.3 253.127 2487.76 253.766 Q2488.22 254.389 2489.14 254.389 Q2489.5 254.389 2489.91 254.291 Q2490.32 254.176 2490.84 253.881 Q2491.38 253.57 2491.86 253.111 Q2492.35 252.635 2492.82 251.832 Q2493.3 251.028 2493.61 249.995 Q2493.71 249.635 2494.04 249.635 Q2494.45 249.635 2494.45 249.963 Q2494.45 250.241 2494.22 250.832 Q2494.01 251.405 2493.53 252.16 Q2493.07 252.897 2492.46 253.57 Q2491.86 254.225 2490.96 254.685 Q2490.05 255.144 2489.07 255.144 Q2487.66 255.144 2486.73 254.389 Q2485.79 253.635 2485.45 252.586 Q2485.36 252.733 2485.25 252.93 Q2485.14 253.127 2484.79 253.57 Q2484.46 253.996 2484.09 254.324 Q2483.71 254.635 2483.12 254.881 Q2482.54 255.144 2481.92 255.144 Q2481.13 255.144 2480.43 254.914 Q2479.74 254.685 2479.25 254.16 Q2478.76 253.635 2478.76 252.914 Q2478.76 252.11 2479.3 251.553 Q2479.86 250.979 2480.61 250.979 Q2481.09 250.979 2481.46 251.258 Q2481.86 251.537 2481.86 252.143 Q2481.86 252.815 2481.4 253.324 Q2480.94 253.832 2480.28 253.963 Q2480.95 254.389 2481.95 254.389 Q2483.04 254.389 2483.89 253.438 Q2484.74 252.488 2485.15 250.897 Q2486.17 247.077 2486.56 245.372 Q2486.96 243.65 2486.96 242.912 Q2486.96 242.224 2486.77 241.748 Q2486.59 241.273 2486.28 241.06 Q2485.99 240.83 2485.71 240.748 Q2485.45 240.666 2485.15 240.666 Q2484.66 240.666 2484.1 240.863 Q2483.56 241.06 2482.91 241.519 Q2482.27 241.961 2481.66 242.88 Q2481.05 243.798 2480.64 245.06 Q2480.56 245.437 2480.2 245.437 Q2479.81 245.421 2479.81 245.093 Q2479.81 244.814 2480.02 244.24 Q2480.25 243.65 2480.71 242.912 Q2481.18 242.175 2481.79 241.519 Q2482.41 240.847 2483.32 240.387 Q2484.23 239.928 2485.22 239.928 Q2485.66 239.928 2486.09 240.027 Q2486.53 240.109 2487.05 240.355 Q2487.59 240.601 2488.07 241.142 Q2488.55 241.683 2488.84 242.47 Q2489.04 242.093 2489.3 241.732 Q2489.58 241.371 2490 240.929 Q2490.45 240.469 2491.05 240.207 Q2491.68 239.928 2492.37 239.928 Q2493.04 239.928 2493.69 240.109 Q2494.35 240.273 2494.91 240.814 Q2495.48 241.338 2495.48 242.142 Z" fill="#000000" fill-rule="evenodd" fill-opacity="1" /><polyline clip-path="url(#clip400)" style="stroke:#c271d2; stroke-linecap:round; stroke-linejoin:round; stroke-width:4; stroke-opacity:1; fill:none" points="
  2258.22,313.055 2426.6,313.055 
  "/>
<path clip-path="url(#clip400)" d="M2454.67 334.204 Q2454.67 333.337 2454.74 333.08 Q2454.83 332.822 2455.21 332.424 L2464.41 322.165 Q2469.45 316.497 2469.45 311.555 Q2469.45 308.346 2467.76 306.05 Q2466.1 303.755 2463.03 303.755 Q2460.92 303.755 2459.14 305.043 Q2457.36 306.331 2456.54 308.627 Q2456.68 308.58 2457.17 308.58 Q2458.37 308.58 2459.02 309.329 Q2459.7 310.079 2459.7 311.086 Q2459.7 312.374 2458.86 313.007 Q2458.04 313.616 2457.22 313.616 Q2456.89 313.616 2456.45 313.545 Q2456.03 313.475 2455.35 312.819 Q2454.67 312.14 2454.67 310.946 Q2454.67 307.596 2457.2 304.926 Q2459.75 302.256 2463.64 302.256 Q2468.04 302.256 2470.92 304.879 Q2473.83 307.479 2473.83 311.555 Q2473.83 312.983 2473.38 314.295 Q2472.96 315.583 2472.37 316.59 Q2471.81 317.598 2470.27 319.214 Q2468.72 320.83 2467.48 321.978 Q2466.24 323.125 2463.45 325.561 L2458.37 330.503 L2467.01 330.503 Q2471.23 330.503 2471.55 330.129 Q2472.02 329.449 2472.61 325.866 L2473.83 325.866 L2472.47 334.204 L2454.67 334.204 Z" fill="#000000" fill-rule="evenodd" fill-opacity="1" /><path clip-path="url(#clip400)" d="M2495.48 293.982 Q2495.48 294.9 2494.91 295.425 Q2494.33 295.933 2493.68 295.933 Q2493.05 295.933 2492.73 295.572 Q2492.4 295.211 2492.4 294.752 Q2492.4 294.129 2492.86 293.588 Q2493.32 293.047 2494.01 292.932 Q2493.33 292.506 2492.33 292.506 Q2491.68 292.506 2491.1 292.851 Q2490.55 293.195 2490.2 293.638 Q2489.87 294.08 2489.58 294.72 Q2489.3 295.343 2489.18 295.72 Q2489.09 296.08 2489 296.474 L2487.86 301.065 Q2487.3 303.245 2487.3 304.016 Q2487.3 304.967 2487.76 305.606 Q2488.22 306.229 2489.14 306.229 Q2489.5 306.229 2489.91 306.131 Q2490.32 306.016 2490.84 305.721 Q2491.38 305.41 2491.86 304.951 Q2492.35 304.475 2492.82 303.672 Q2493.3 302.868 2493.61 301.835 Q2493.71 301.475 2494.04 301.475 Q2494.45 301.475 2494.45 301.803 Q2494.45 302.081 2494.22 302.672 Q2494.01 303.245 2493.53 304 Q2493.07 304.737 2492.46 305.41 Q2491.86 306.065 2490.96 306.525 Q2490.05 306.984 2489.07 306.984 Q2487.66 306.984 2486.73 306.229 Q2485.79 305.475 2485.45 304.426 Q2485.36 304.573 2485.25 304.77 Q2485.14 304.967 2484.79 305.41 Q2484.46 305.836 2484.09 306.164 Q2483.71 306.475 2483.12 306.721 Q2482.54 306.984 2481.92 306.984 Q2481.13 306.984 2480.43 306.754 Q2479.74 306.525 2479.25 306 Q2478.76 305.475 2478.76 304.754 Q2478.76 303.95 2479.3 303.393 Q2479.86 302.819 2480.61 302.819 Q2481.09 302.819 2481.46 303.098 Q2481.86 303.377 2481.86 303.983 Q2481.86 304.655 2481.4 305.164 Q2480.94 305.672 2480.28 305.803 Q2480.95 306.229 2481.95 306.229 Q2483.04 306.229 2483.89 305.278 Q2484.74 304.328 2485.15 302.737 Q2486.17 298.917 2486.56 297.212 Q2486.96 295.49 2486.96 294.752 Q2486.96 294.064 2486.77 293.588 Q2486.59 293.113 2486.28 292.9 Q2485.99 292.67 2485.71 292.588 Q2485.45 292.506 2485.15 292.506 Q2484.66 292.506 2484.1 292.703 Q2483.56 292.9 2482.91 293.359 Q2482.27 293.801 2481.66 294.72 Q2481.05 295.638 2480.64 296.9 Q2480.56 297.277 2480.2 297.277 Q2479.81 297.261 2479.81 296.933 Q2479.81 296.654 2480.02 296.08 Q2480.25 295.49 2480.71 294.752 Q2481.18 294.015 2481.79 293.359 Q2482.41 292.687 2483.32 292.227 Q2484.23 291.768 2485.22 291.768 Q2485.66 291.768 2486.09 291.867 Q2486.53 291.949 2487.05 292.195 Q2487.59 292.441 2488.07 292.982 Q2488.55 293.523 2488.84 294.31 Q2489.04 293.933 2489.3 293.572 Q2489.58 293.211 2490 292.769 Q2490.45 292.309 2491.05 292.047 Q2491.68 291.768 2492.37 291.768 Q2493.04 291.768 2493.69 291.949 Q2494.35 292.113 2494.91 292.654 Q2495.48 293.178 2495.48 293.982 Z" fill="#000000" fill-rule="evenodd" fill-opacity="1" /></svg>
