<?xml version="1.0" encoding="utf-8"?>
<svg xmlns="http://www.w3.org/2000/svg" xmlns:xlink="http://www.w3.org/1999/xlink" width="672" height="480" viewBox="0 0 2688 1920">
<defs>
  <clipPath id="clip120">
    <rect x="0" y="0" width="2688" height="1920"/>
  </clipPath>
</defs>
<path clip-path="url(#clip120)" d="
M0 1920 L2688 1920 L2688 0 L0 0  Z
  " fill="#ffffff" fill-rule="evenodd" fill-opacity="1"/>
<defs>
  <clipPath id="clip121">
    <rect x="537" y="0" width="1883" height="1883"/>
  </clipPath>
</defs>
<defs>
  <clipPath id="clip122">
    <rect x="180" y="47" width="2461" height="1688"/>
  </clipPath>
</defs>
<path clip-path="url(#clip120)" d="
M181.747 1800.78 L2640.76 1800.78 L2640.76 47.2441 L181.747 47.2441  Z
  " fill="#ffffff" fill-rule="evenodd" fill-opacity="1"/>
<defs>
  <clipPath id="clip123">
    <rect x="181" y="47" width="2460" height="1755"/>
  </clipPath>
</defs>
<polyline clip-path="url(#clip123)" style="stroke:#000000; stroke-linecap:round; stroke-linejoin:round; stroke-width:2; stroke-opacity:0.1; fill:none" points="
  582.744,1800.78 582.744,47.2441 
  "/>
<polyline clip-path="url(#clip123)" style="stroke:#000000; stroke-linecap:round; stroke-linejoin:round; stroke-width:2; stroke-opacity:0.1; fill:none" points="
  1245.55,1800.78 1245.55,47.2441 
  "/>
<polyline clip-path="url(#clip123)" style="stroke:#000000; stroke-linecap:round; stroke-linejoin:round; stroke-width:2; stroke-opacity:0.1; fill:none" points="
  1908.36,1800.78 1908.36,47.2441 
  "/>
<polyline clip-path="url(#clip123)" style="stroke:#000000; stroke-linecap:round; stroke-linejoin:round; stroke-width:2; stroke-opacity:0.1; fill:none" points="
  2571.16,1800.78 2571.16,47.2441 
  "/>
<polyline clip-path="url(#clip120)" style="stroke:#000000; stroke-linecap:round; stroke-linejoin:round; stroke-width:4; stroke-opacity:1; fill:none" points="
  181.747,1800.78 2640.76,1800.78 
  "/>
<polyline clip-path="url(#clip120)" style="stroke:#000000; stroke-linecap:round; stroke-linejoin:round; stroke-width:4; stroke-opacity:1; fill:none" points="
  582.744,1800.78 582.744,1781.88 
  "/>
<polyline clip-path="url(#clip120)" style="stroke:#000000; stroke-linecap:round; stroke-linejoin:round; stroke-width:4; stroke-opacity:1; fill:none" points="
  1245.55,1800.78 1245.55,1781.88 
  "/>
<polyline clip-path="url(#clip120)" style="stroke:#000000; stroke-linecap:round; stroke-linejoin:round; stroke-width:4; stroke-opacity:1; fill:none" points="
  1908.36,1800.78 1908.36,1781.88 
  "/>
<polyline clip-path="url(#clip120)" style="stroke:#000000; stroke-linecap:round; stroke-linejoin:round; stroke-width:4; stroke-opacity:1; fill:none" points="
  2571.16,1800.78 2571.16,1781.88 
  "/>
<path clip-path="url(#clip120)" d="M552.686 1848.65 L582.362 1848.65 L582.362 1852.59 L552.686 1852.59 L552.686 1848.65 Z" fill="#000000" fill-rule="evenodd" fill-opacity="1" /><path clip-path="url(#clip120)" d="M596.482 1861.55 L612.802 1861.55 L612.802 1865.48 L590.857 1865.48 L590.857 1861.55 Q593.52 1858.79 598.103 1854.16 Q602.709 1849.51 603.89 1848.17 Q606.135 1845.65 607.015 1843.91 Q607.918 1842.15 607.918 1840.46 Q607.918 1837.71 605.973 1835.97 Q604.052 1834.23 600.95 1834.23 Q598.751 1834.23 596.297 1835 Q593.867 1835.76 591.089 1837.31 L591.089 1832.59 Q593.913 1831.46 596.367 1830.88 Q598.82 1830.3 600.857 1830.3 Q606.228 1830.3 609.422 1832.98 Q612.617 1835.67 612.617 1840.16 Q612.617 1842.29 611.806 1844.21 Q611.019 1846.11 608.913 1848.7 Q608.334 1849.37 605.232 1852.59 Q602.131 1855.78 596.482 1861.55 Z" fill="#000000" fill-rule="evenodd" fill-opacity="1" /><path clip-path="url(#clip120)" d="M1245.55 1834 Q1241.94 1834 1240.11 1837.57 Q1238.3 1841.11 1238.3 1848.24 Q1238.3 1855.34 1240.11 1858.91 Q1241.94 1862.45 1245.55 1862.45 Q1249.18 1862.45 1250.99 1858.91 Q1252.82 1855.34 1252.82 1848.24 Q1252.82 1841.11 1250.99 1837.57 Q1249.18 1834 1245.55 1834 M1245.55 1830.3 Q1251.36 1830.3 1254.42 1834.9 Q1257.49 1839.49 1257.49 1848.24 Q1257.49 1856.96 1254.42 1861.57 Q1251.36 1866.15 1245.55 1866.15 Q1239.74 1866.15 1236.66 1861.57 Q1233.61 1856.96 1233.61 1848.24 Q1233.61 1839.49 1236.66 1834.9 Q1239.74 1830.3 1245.55 1830.3 Z" fill="#000000" fill-rule="evenodd" fill-opacity="1" /><path clip-path="url(#clip120)" d="M1903.01 1861.55 L1919.33 1861.55 L1919.33 1865.48 L1897.38 1865.48 L1897.38 1861.55 Q1900.05 1858.79 1904.63 1854.16 Q1909.24 1849.51 1910.42 1848.17 Q1912.66 1845.65 1913.54 1843.91 Q1914.44 1842.15 1914.44 1840.46 Q1914.44 1837.71 1912.5 1835.97 Q1910.58 1834.23 1907.48 1834.23 Q1905.28 1834.23 1902.82 1835 Q1900.39 1835.76 1897.61 1837.31 L1897.61 1832.59 Q1900.44 1831.46 1902.89 1830.88 Q1905.35 1830.3 1907.38 1830.3 Q1912.75 1830.3 1915.95 1832.98 Q1919.14 1835.67 1919.14 1840.16 Q1919.14 1842.29 1918.33 1844.21 Q1917.55 1846.11 1915.44 1848.7 Q1914.86 1849.37 1911.76 1852.59 Q1908.66 1855.78 1903.01 1861.55 Z" fill="#000000" fill-rule="evenodd" fill-opacity="1" /><path clip-path="url(#clip120)" d="M2574.17 1835 L2562.37 1853.45 L2574.17 1853.45 L2574.17 1835 M2572.94 1830.92 L2578.82 1830.92 L2578.82 1853.45 L2583.75 1853.45 L2583.75 1857.34 L2578.82 1857.34 L2578.82 1865.48 L2574.17 1865.48 L2574.17 1857.34 L2558.57 1857.34 L2558.57 1852.82 L2572.94 1830.92 Z" fill="#000000" fill-rule="evenodd" fill-opacity="1" /><polyline clip-path="url(#clip123)" style="stroke:#000000; stroke-linecap:round; stroke-linejoin:round; stroke-width:2; stroke-opacity:0.1; fill:none" points="
  181.747,1729.67 2640.76,1729.67 
  "/>
<polyline clip-path="url(#clip123)" style="stroke:#000000; stroke-linecap:round; stroke-linejoin:round; stroke-width:2; stroke-opacity:0.1; fill:none" points="
  181.747,1299.98 2640.76,1299.98 
  "/>
<polyline clip-path="url(#clip123)" style="stroke:#000000; stroke-linecap:round; stroke-linejoin:round; stroke-width:2; stroke-opacity:0.1; fill:none" points="
  181.747,870.301 2640.76,870.301 
  "/>
<polyline clip-path="url(#clip123)" style="stroke:#000000; stroke-linecap:round; stroke-linejoin:round; stroke-width:2; stroke-opacity:0.1; fill:none" points="
  181.747,440.619 2640.76,440.619 
  "/>
<polyline clip-path="url(#clip120)" style="stroke:#000000; stroke-linecap:round; stroke-linejoin:round; stroke-width:4; stroke-opacity:1; fill:none" points="
  181.747,1800.78 181.747,47.2441 
  "/>
<polyline clip-path="url(#clip120)" style="stroke:#000000; stroke-linecap:round; stroke-linejoin:round; stroke-width:4; stroke-opacity:1; fill:none" points="
  181.747,1729.67 200.644,1729.67 
  "/>
<polyline clip-path="url(#clip120)" style="stroke:#000000; stroke-linecap:round; stroke-linejoin:round; stroke-width:4; stroke-opacity:1; fill:none" points="
  181.747,1299.98 200.644,1299.98 
  "/>
<polyline clip-path="url(#clip120)" style="stroke:#000000; stroke-linecap:round; stroke-linejoin:round; stroke-width:4; stroke-opacity:1; fill:none" points="
  181.747,870.301 200.644,870.301 
  "/>
<polyline clip-path="url(#clip120)" style="stroke:#000000; stroke-linecap:round; stroke-linejoin:round; stroke-width:4; stroke-opacity:1; fill:none" points="
  181.747,440.619 200.644,440.619 
  "/>
<path clip-path="url(#clip120)" d="M49.5521 1730.12 L79.2279 1730.12 L79.2279 1734.05 L49.5521 1734.05 L49.5521 1730.12 Z" fill="#000000" fill-rule="evenodd" fill-opacity="1" /><path clip-path="url(#clip120)" d="M102.168 1716.46 L90.3621 1734.91 L102.168 1734.91 L102.168 1716.46 M100.941 1712.39 L106.82 1712.39 L106.82 1734.91 L111.751 1734.91 L111.751 1738.8 L106.82 1738.8 L106.82 1746.95 L102.168 1746.95 L102.168 1738.8 L86.5658 1738.8 L86.5658 1734.28 L100.941 1712.39 Z" fill="#000000" fill-rule="evenodd" fill-opacity="1" /><path clip-path="url(#clip120)" d="M129.482 1715.47 Q125.871 1715.47 124.042 1719.03 Q122.237 1722.57 122.237 1729.7 Q122.237 1736.81 124.042 1740.37 Q125.871 1743.91 129.482 1743.91 Q133.116 1743.91 134.922 1740.37 Q136.751 1736.81 136.751 1729.7 Q136.751 1722.57 134.922 1719.03 Q133.116 1715.47 129.482 1715.47 M129.482 1711.76 Q135.292 1711.76 138.348 1716.37 Q141.427 1720.95 141.427 1729.7 Q141.427 1738.43 138.348 1743.03 Q135.292 1747.62 129.482 1747.62 Q123.672 1747.62 120.593 1743.03 Q117.538 1738.43 117.538 1729.7 Q117.538 1720.95 120.593 1716.37 Q123.672 1711.76 129.482 1711.76 Z" fill="#000000" fill-rule="evenodd" fill-opacity="1" /><path clip-path="url(#clip120)" d="M49.5521 1300.44 L79.2279 1300.44 L79.2279 1304.37 L49.5521 1304.37 L49.5521 1300.44 Z" fill="#000000" fill-rule="evenodd" fill-opacity="1" /><path clip-path="url(#clip120)" d="M93.3482 1313.33 L109.668 1313.33 L109.668 1317.26 L87.7232 1317.26 L87.7232 1313.33 Q90.3852 1310.57 94.9685 1305.94 Q99.575 1301.29 100.756 1299.95 Q103.001 1297.43 103.881 1295.69 Q104.783 1293.93 104.783 1292.24 Q104.783 1289.49 102.839 1287.75 Q100.918 1286.01 97.8158 1286.01 Q95.6167 1286.01 93.163 1286.78 Q90.7325 1287.54 87.9547 1289.09 L87.9547 1284.37 Q90.7788 1283.24 93.2324 1282.66 Q95.6861 1282.08 97.7232 1282.08 Q103.094 1282.08 106.288 1284.76 Q109.482 1287.45 109.482 1291.94 Q109.482 1294.07 108.672 1295.99 Q107.885 1297.89 105.779 1300.48 Q105.2 1301.15 102.098 1304.37 Q98.9963 1307.57 93.3482 1313.33 Z" fill="#000000" fill-rule="evenodd" fill-opacity="1" /><path clip-path="url(#clip120)" d="M129.482 1285.78 Q125.871 1285.78 124.042 1289.35 Q122.237 1292.89 122.237 1300.02 Q122.237 1307.13 124.042 1310.69 Q125.871 1314.23 129.482 1314.23 Q133.116 1314.23 134.922 1310.69 Q136.751 1307.13 136.751 1300.02 Q136.751 1292.89 134.922 1289.35 Q133.116 1285.78 129.482 1285.78 M129.482 1282.08 Q135.292 1282.08 138.348 1286.69 Q141.427 1291.27 141.427 1300.02 Q141.427 1308.75 138.348 1313.35 Q135.292 1317.94 129.482 1317.94 Q123.672 1317.94 120.593 1313.35 Q117.538 1308.75 117.538 1300.02 Q117.538 1291.27 120.593 1286.69 Q123.672 1282.08 129.482 1282.08 Z" fill="#000000" fill-rule="evenodd" fill-opacity="1" /><path clip-path="url(#clip120)" d="M129.482 856.1 Q125.871 856.1 124.042 859.665 Q122.237 863.206 122.237 870.336 Q122.237 877.443 124.042 881.007 Q125.871 884.549 129.482 884.549 Q133.116 884.549 134.922 881.007 Q136.751 877.443 136.751 870.336 Q136.751 863.206 134.922 859.665 Q133.116 856.1 129.482 856.1 M129.482 852.396 Q135.292 852.396 138.348 857.003 Q141.427 861.586 141.427 870.336 Q141.427 879.063 138.348 883.669 Q135.292 888.253 129.482 888.253 Q123.672 888.253 120.593 883.669 Q117.538 879.063 117.538 870.336 Q117.538 861.586 120.593 857.003 Q123.672 852.396 129.482 852.396 Z" fill="#000000" fill-rule="evenodd" fill-opacity="1" /><path clip-path="url(#clip120)" d="M93.3482 453.963 L109.668 453.963 L109.668 457.899 L87.7232 457.899 L87.7232 453.963 Q90.3852 451.209 94.9685 446.579 Q99.575 441.926 100.756 440.584 Q103.001 438.061 103.881 436.325 Q104.783 434.565 104.783 432.876 Q104.783 430.121 102.839 428.385 Q100.918 426.649 97.8158 426.649 Q95.6167 426.649 93.163 427.413 Q90.7325 428.177 87.9547 429.727 L87.9547 425.005 Q90.7788 423.871 93.2324 423.292 Q95.6861 422.714 97.7232 422.714 Q103.094 422.714 106.288 425.399 Q109.482 428.084 109.482 432.575 Q109.482 434.704 108.672 436.626 Q107.885 438.524 105.779 441.116 Q105.2 441.788 102.098 445.005 Q98.9963 448.2 93.3482 453.963 Z" fill="#000000" fill-rule="evenodd" fill-opacity="1" /><path clip-path="url(#clip120)" d="M129.482 426.417 Q125.871 426.417 124.042 429.982 Q122.237 433.524 122.237 440.653 Q122.237 447.76 124.042 451.325 Q125.871 454.866 129.482 454.866 Q133.116 454.866 134.922 451.325 Q136.751 447.76 136.751 440.653 Q136.751 433.524 134.922 429.982 Q133.116 426.417 129.482 426.417 M129.482 422.714 Q135.292 422.714 138.348 427.32 Q141.427 431.903 141.427 440.653 Q141.427 449.38 138.348 453.987 Q135.292 458.57 129.482 458.57 Q123.672 458.57 120.593 453.987 Q117.538 449.38 117.538 440.653 Q117.538 431.903 120.593 427.32 Q123.672 422.714 129.482 422.714 Z" fill="#000000" fill-rule="evenodd" fill-opacity="1" /><polyline clip-path="url(#clip123)" style="stroke:#009af9; stroke-linecap:round; stroke-linejoin:round; stroke-width:4; stroke-opacity:1; fill:none" points="
  251.341,1751.15 255.117,1736.52 258.893,1722.01 262.669,1707.62 266.445,1693.34 283.901,1628.82 301.357,1566.73 318.814,1507.04 336.27,1449.71 353.727,1394.7 
  371.183,1341.97 388.64,1291.49 406.096,1243.21 427.078,1188.05 448.059,1135.97 469.04,1086.88 490.021,1040.73 507.761,1003.96 525.5,969.202 543.239,936.418 
  560.979,905.568 580.249,874.202 599.518,845.023 618.788,817.978 638.058,793.018 655.823,771.809 673.589,752.29 691.354,734.419 709.119,718.158 728.165,702.466 
  747.211,688.53 766.257,676.3 785.303,665.727 807.37,655.486 829.437,647.327 851.504,641.175 873.571,636.953 893.181,634.761 912.791,633.979 932.402,634.555 
  952.012,636.436 986.405,642.723 1020.8,652.569 1058.3,667.022 1095.79,684.99 1133.51,706.235 1171.23,730.278 1212.94,759.661 1254.64,791.487 1294.33,823.568 
  1334.01,856.953 1416.52,928.627 1485.99,988.926 1528.39,1024.63 1570.79,1058.85 1609.64,1088.42 1648.48,1115.87 1684.36,1138.98 1720.23,1159.6 1756.57,1177.62 
  1792.91,1192.4 1813.28,1199.15 1833.64,1204.71 1854.01,1209.04 1874.37,1212.06 1892.82,1213.63 1911.28,1214.03 1929.73,1213.23 1948.18,1211.18 1969.31,1207.24 
  1990.44,1201.53 2011.56,1194 2032.69,1184.56 2052.25,1174.08 2071.81,1161.85 2091.38,1147.84 2110.94,1131.98 2130.22,1114.49 2149.51,1095.11 2168.8,1073.78 
  2188.08,1050.45 2206.81,1025.85 2225.53,999.266 2244.26,970.663 2262.98,939.992 2282.18,906.354 2301.37,870.442 2320.57,832.208 2339.76,791.6 2360.79,744.326 
  2381.83,694.077 2402.86,640.787 2423.89,584.39 2439.16,541.442 2454.44,496.796 2469.71,450.425 2484.99,402.305 2500.26,352.41 2515.54,300.715 2530.82,247.195 
  2546.09,191.824 2552.36,168.564 2558.63,144.987 2564.89,121.09 2571.16,96.8724 
  "/>
<path clip-path="url(#clip120)" d="
M263.714 209.375 L1092.57 209.375 L1092.57 105.695 L263.714 105.695  Z
  " fill="#ffffff" fill-rule="evenodd" fill-opacity="1"/>
<polyline clip-path="url(#clip120)" style="stroke:#000000; stroke-linecap:round; stroke-linejoin:round; stroke-width:4; stroke-opacity:1; fill:none" points="
  263.714,209.375 1092.57,209.375 1092.57,105.695 263.714,105.695 263.714,209.375 
  "/>
<polyline clip-path="url(#clip120)" style="stroke:#009af9; stroke-linecap:round; stroke-linejoin:round; stroke-width:4; stroke-opacity:1; fill:none" points="
  291.036,157.535 454.97,157.535 
  "/>
<path clip-path="url(#clip120)" d="M506.207 139.694 Q506.207 140.982 505.387 141.778 Q504.59 142.575 503.583 142.575 Q502.857 142.575 502.318 142.13 Q501.803 141.685 501.803 140.912 Q501.803 140.115 502.412 139.272 Q503.021 138.429 504.403 138.312 Q503.49 137.445 502.037 137.445 Q501.311 137.445 500.702 137.914 Q500.117 138.359 499.789 139.085 Q499.437 139.834 498.641 144.074 Q498.383 145.456 498.149 146.791 Q497.915 148.126 497.634 149.531 L501.616 149.531 Q502.131 149.531 502.342 149.555 Q502.553 149.578 502.717 149.695 Q502.904 149.812 502.904 150.07 Q502.904 150.726 502.599 150.89 Q502.318 151.03 501.475 151.03 L497.353 151.03 L494.472 166.232 Q494.402 166.677 494.097 168.082 Q493.816 169.464 493.137 171.736 Q492.458 174.031 491.778 175.39 Q491.404 176.163 490.912 176.889 Q490.443 177.638 489.764 178.388 Q489.085 179.137 488.195 179.582 Q487.305 180.051 486.368 180.051 Q484.775 180.051 483.534 179.161 Q482.292 178.271 482.292 176.748 Q482.292 175.46 483.089 174.664 Q483.908 173.867 484.916 173.867 Q485.642 173.867 486.157 174.312 Q486.696 174.757 486.696 175.53 Q486.696 175.858 486.579 176.233 Q486.461 176.608 486.204 177.029 Q485.946 177.474 485.384 177.779 Q484.822 178.083 484.049 178.13 Q484.962 178.997 486.368 178.997 Q486.813 178.997 487.211 178.809 Q487.609 178.645 487.937 178.224 Q488.288 177.802 488.546 177.381 Q488.804 176.982 489.061 176.209 Q489.319 175.46 489.483 174.898 Q489.647 174.336 489.858 173.329 Q490.092 172.321 490.209 171.712 Q490.326 171.127 490.537 169.979 L494.121 151.03 L490.959 151.03 Q490.396 151.03 490.162 151.007 Q489.951 150.983 489.787 150.866 Q489.623 150.726 489.623 150.445 Q489.623 150 489.811 149.812 Q490.022 149.602 490.256 149.578 Q490.49 149.531 491.052 149.531 L494.378 149.531 Q495.502 143.605 495.947 142.013 Q496.463 140.326 497.259 139.155 Q498.056 137.961 498.946 137.398 Q499.836 136.836 500.562 136.626 Q501.311 136.391 502.037 136.391 Q503.677 136.391 504.942 137.281 Q506.207 138.148 506.207 139.694 Z" fill="#000000" fill-rule="evenodd" fill-opacity="1" /><path clip-path="url(#clip120)" d="M512.665 158.221 Q512.665 150.117 515.687 143.582 Q516.975 140.842 518.779 138.546 Q520.582 136.251 521.777 135.244 Q522.971 134.236 523.299 134.236 Q523.768 134.236 523.791 134.705 Q523.791 134.939 523.159 135.525 Q515.429 143.395 515.453 158.221 Q515.453 173.094 522.971 180.66 Q523.791 181.48 523.791 181.737 Q523.791 182.206 523.299 182.206 Q522.971 182.206 521.823 181.245 Q520.676 180.285 518.896 178.083 Q517.116 175.882 515.827 173.188 Q512.665 166.653 512.665 158.221 Z" fill="#000000" fill-rule="evenodd" fill-opacity="1" /><path clip-path="url(#clip120)" d="M551.329 152.178 Q551.329 153.49 550.509 154.239 Q549.689 154.965 548.752 154.965 Q547.862 154.965 547.394 154.45 Q546.925 153.935 546.925 153.279 Q546.925 152.389 547.581 151.616 Q548.237 150.843 549.221 150.679 Q548.26 150.07 546.831 150.07 Q545.895 150.07 545.075 150.562 Q544.278 151.054 543.787 151.686 Q543.318 152.319 542.896 153.232 Q542.498 154.122 542.334 154.661 Q542.194 155.176 542.077 155.738 L540.437 162.297 Q539.641 165.412 539.641 166.513 Q539.641 167.871 540.297 168.785 Q540.952 169.675 542.264 169.675 Q542.779 169.675 543.365 169.534 Q543.95 169.37 544.7 168.949 Q545.473 168.503 546.152 167.848 Q546.855 167.168 547.534 166.021 Q548.213 164.873 548.658 163.397 Q548.799 162.882 549.267 162.882 Q549.853 162.882 549.853 163.351 Q549.853 163.749 549.525 164.592 Q549.221 165.412 548.541 166.489 Q547.885 167.543 547.019 168.503 Q546.152 169.44 544.864 170.096 Q543.576 170.752 542.17 170.752 Q540.156 170.752 538.821 169.675 Q537.486 168.597 536.994 167.098 Q536.877 167.309 536.713 167.59 Q536.549 167.871 536.057 168.503 Q535.589 169.112 535.05 169.581 Q534.511 170.026 533.668 170.377 Q532.848 170.752 531.958 170.752 Q530.834 170.752 529.827 170.424 Q528.843 170.096 528.14 169.347 Q527.438 168.597 527.438 167.567 Q527.438 166.419 528.211 165.623 Q529.007 164.803 530.084 164.803 Q530.764 164.803 531.302 165.201 Q531.864 165.599 531.864 166.466 Q531.864 167.426 531.209 168.152 Q530.553 168.878 529.616 169.066 Q530.576 169.675 532.005 169.675 Q533.551 169.675 534.769 168.316 Q535.987 166.958 536.572 164.686 Q538.025 159.228 538.587 156.792 Q539.149 154.333 539.149 153.279 Q539.149 152.295 538.891 151.616 Q538.634 150.937 538.189 150.632 Q537.767 150.304 537.369 150.187 Q536.994 150.07 536.572 150.07 Q535.87 150.07 535.073 150.351 Q534.3 150.632 533.364 151.288 Q532.45 151.92 531.583 153.232 Q530.717 154.544 530.131 156.347 Q530.014 156.886 529.499 156.886 Q528.937 156.863 528.937 156.394 Q528.937 155.996 529.241 155.176 Q529.569 154.333 530.225 153.279 Q530.904 152.225 531.771 151.288 Q532.661 150.328 533.949 149.672 Q535.261 149.016 536.666 149.016 Q537.298 149.016 537.907 149.157 Q538.54 149.274 539.289 149.625 Q540.062 149.976 540.742 150.749 Q541.421 151.522 541.842 152.646 Q542.124 152.108 542.498 151.592 Q542.896 151.077 543.505 150.445 Q544.138 149.789 545.004 149.414 Q545.895 149.016 546.878 149.016 Q547.839 149.016 548.775 149.274 Q549.712 149.508 550.509 150.281 Q551.329 151.03 551.329 152.178 Z" fill="#000000" fill-rule="evenodd" fill-opacity="1" /><path clip-path="url(#clip120)" d="M555.948 181.737 Q555.948 181.503 556.557 180.917 Q564.287 173.047 564.287 158.221 Q564.287 143.348 556.862 135.829 Q555.948 134.963 555.948 134.705 Q555.948 134.236 556.417 134.236 Q556.745 134.236 557.892 135.197 Q559.063 136.157 560.82 138.359 Q562.6 140.561 563.912 143.254 Q567.074 149.789 567.074 158.221 Q567.074 166.325 564.052 172.86 Q562.764 175.6 560.961 177.896 Q559.157 180.191 557.963 181.198 Q556.768 182.206 556.417 182.206 Q555.948 182.206 555.948 181.737 Z" fill="#000000" fill-rule="evenodd" fill-opacity="1" /><path clip-path="url(#clip120)" d="M587.68 162.929 Q587.727 162.343 588.64 162.343 L618.035 162.343 Q619.417 162.343 619.441 162.882 Q619.441 163.468 618.129 163.444 L588.968 163.444 Q587.68 163.468 587.68 162.929 M587.68 153.56 Q587.68 152.974 588.687 152.998 L617.989 152.998 Q619.417 152.998 619.441 153.56 Q619.441 154.099 618.223 154.099 L588.64 154.099 Q587.68 154.099 587.68 153.56 Z" fill="#000000" fill-rule="evenodd" fill-opacity="1" /><path clip-path="url(#clip120)" d="M637.948 170.213 Q637.948 169.347 638.018 169.089 Q638.112 168.831 638.487 168.433 L647.692 158.174 Q652.728 152.506 652.728 147.564 Q652.728 144.355 651.041 142.06 Q649.378 139.764 646.31 139.764 Q644.202 139.764 642.422 141.052 Q640.642 142.341 639.822 144.636 Q639.962 144.589 640.454 144.589 Q641.649 144.589 642.305 145.339 Q642.984 146.088 642.984 147.095 Q642.984 148.384 642.141 149.016 Q641.321 149.625 640.501 149.625 Q640.173 149.625 639.728 149.555 Q639.307 149.484 638.627 148.829 Q637.948 148.149 637.948 146.955 Q637.948 143.605 640.478 140.935 Q643.031 138.265 646.919 138.265 Q651.322 138.265 654.203 140.888 Q657.108 143.488 657.108 147.564 Q657.108 148.993 656.663 150.304 Q656.241 151.592 655.655 152.6 Q655.093 153.607 653.547 155.223 Q652.002 156.839 650.76 157.987 Q649.519 159.135 646.732 161.57 L641.649 166.513 L650.292 166.513 Q654.508 166.513 654.836 166.138 Q655.304 165.459 655.89 161.875 L657.108 161.875 L655.749 170.213 L637.948 170.213 Z" fill="#000000" fill-rule="evenodd" fill-opacity="1" /><path clip-path="url(#clip120)" d="M685.595 152.178 Q685.595 153.49 684.775 154.239 Q683.956 154.965 683.019 154.965 Q682.129 154.965 681.66 154.45 Q681.192 153.935 681.192 153.279 Q681.192 152.389 681.848 151.616 Q682.503 150.843 683.487 150.679 Q682.527 150.07 681.098 150.07 Q680.161 150.07 679.341 150.562 Q678.545 151.054 678.053 151.686 Q677.585 152.319 677.163 153.232 Q676.765 154.122 676.601 154.661 Q676.461 155.176 676.343 155.738 L674.704 162.297 Q673.907 165.412 673.907 166.513 Q673.907 167.871 674.563 168.785 Q675.219 169.675 676.531 169.675 Q677.046 169.675 677.632 169.534 Q678.217 169.37 678.967 168.949 Q679.74 168.503 680.419 167.848 Q681.122 167.168 681.801 166.021 Q682.48 164.873 682.925 163.397 Q683.066 162.882 683.534 162.882 Q684.12 162.882 684.12 163.351 Q684.12 163.749 683.792 164.592 Q683.487 165.412 682.808 166.489 Q682.152 167.543 681.286 168.503 Q680.419 169.44 679.131 170.096 Q677.842 170.752 676.437 170.752 Q674.423 170.752 673.088 169.675 Q671.753 168.597 671.261 167.098 Q671.144 167.309 670.98 167.59 Q670.816 167.871 670.324 168.503 Q669.855 169.112 669.317 169.581 Q668.778 170.026 667.935 170.377 Q667.115 170.752 666.225 170.752 Q665.101 170.752 664.093 170.424 Q663.11 170.096 662.407 169.347 Q661.704 168.597 661.704 167.567 Q661.704 166.419 662.477 165.623 Q663.274 164.803 664.351 164.803 Q665.03 164.803 665.569 165.201 Q666.131 165.599 666.131 166.466 Q666.131 167.426 665.475 168.152 Q664.82 168.878 663.883 169.066 Q664.843 169.675 666.272 169.675 Q667.818 169.675 669.036 168.316 Q670.254 166.958 670.839 164.686 Q672.291 159.228 672.853 156.792 Q673.416 154.333 673.416 153.279 Q673.416 152.295 673.158 151.616 Q672.9 150.937 672.455 150.632 Q672.034 150.304 671.635 150.187 Q671.261 150.07 670.839 150.07 Q670.136 150.07 669.34 150.351 Q668.567 150.632 667.63 151.288 Q666.717 151.92 665.85 153.232 Q664.984 154.544 664.398 156.347 Q664.281 156.886 663.766 156.886 Q663.203 156.863 663.203 156.394 Q663.203 155.996 663.508 155.176 Q663.836 154.333 664.492 153.279 Q665.171 152.225 666.038 151.288 Q666.928 150.328 668.216 149.672 Q669.527 149.016 670.933 149.016 Q671.565 149.016 672.174 149.157 Q672.807 149.274 673.556 149.625 Q674.329 149.976 675.008 150.749 Q675.688 151.522 676.109 152.646 Q676.39 152.108 676.765 151.592 Q677.163 151.077 677.772 150.445 Q678.405 149.789 679.271 149.414 Q680.161 149.016 681.145 149.016 Q682.105 149.016 683.042 149.274 Q683.979 149.508 684.775 150.281 Q685.595 151.03 685.595 152.178 Z" fill="#000000" fill-rule="evenodd" fill-opacity="1" /><path clip-path="url(#clip120)" d="M690.484 150.598 Q690.484 149.597 691.058 149.122 Q691.632 148.646 692.37 148.646 Q693.14 148.646 693.682 149.155 Q694.239 149.647 694.239 150.516 Q694.239 151.45 693.583 151.975 Q692.944 152.499 692.026 152.368 Q692.829 153.713 694.305 154.319 Q695.797 154.926 697.174 154.926 Q698.617 154.926 699.781 153.68 Q700.961 152.434 700.961 149.384 Q700.961 146.794 699.945 145.302 Q698.945 143.81 696.961 143.81 L695.485 143.81 Q694.977 143.81 694.829 143.76 Q694.682 143.711 694.682 143.433 Q694.682 143.105 695.19 143.039 Q695.698 143.039 696.502 142.941 Q698.453 142.875 699.486 141.186 Q700.42 139.612 700.42 137.366 Q700.42 135.317 699.436 134.464 Q698.469 133.595 697.207 133.595 Q696.026 133.595 694.731 134.087 Q693.436 134.579 692.731 135.677 Q694.813 135.677 694.813 137.366 Q694.813 138.104 694.337 138.596 Q693.878 139.071 693.108 139.071 Q692.37 139.071 691.878 138.612 Q691.386 138.137 691.386 137.333 Q691.386 135.415 693.091 134.087 Q694.813 132.759 697.338 132.759 Q699.83 132.759 701.666 134.071 Q703.519 135.382 703.519 137.399 Q703.519 139.383 702.207 141.006 Q700.896 142.629 698.813 143.301 Q701.371 143.81 702.896 145.548 Q704.421 147.269 704.421 149.384 Q704.421 152.008 702.355 153.942 Q700.289 155.861 697.272 155.861 Q694.485 155.861 692.485 154.352 Q690.484 152.844 690.484 150.598 Z" fill="#000000" fill-rule="evenodd" fill-opacity="1" /><path clip-path="url(#clip120)" d="M754.376 157.542 Q754.657 157.823 754.657 158.221 Q754.657 158.619 754.376 158.9 Q754.095 159.181 753.697 159.181 L723.67 159.181 Q723.271 159.181 722.99 158.9 Q722.709 158.619 722.709 158.221 Q722.709 157.823 722.99 157.542 Q723.271 157.261 723.67 157.261 L753.697 157.261 Q754.095 157.261 754.376 157.542 Z" fill="#000000" fill-rule="evenodd" fill-opacity="1" /><path clip-path="url(#clip120)" d="M772.977 163.749 Q772.977 162.32 773.797 161.641 Q774.617 160.961 775.671 160.961 Q776.772 160.961 777.545 161.688 Q778.341 162.39 778.341 163.632 Q778.341 164.967 777.404 165.716 Q776.491 166.466 775.179 166.278 Q776.327 168.199 778.435 169.066 Q780.566 169.932 782.534 169.932 Q784.595 169.932 786.258 168.152 Q787.944 166.372 787.944 162.015 Q787.944 158.315 786.492 156.183 Q785.063 154.052 782.229 154.052 L780.121 154.052 Q779.395 154.052 779.184 153.982 Q778.974 153.911 778.974 153.513 Q778.974 153.045 779.7 152.951 Q780.426 152.951 781.573 152.81 Q784.361 152.717 785.836 150.304 Q787.171 148.056 787.171 144.847 Q787.171 141.919 785.766 140.701 Q784.384 139.46 782.581 139.46 Q780.894 139.46 779.044 140.162 Q777.193 140.865 776.186 142.434 Q779.161 142.434 779.161 144.847 Q779.161 145.901 778.482 146.603 Q777.826 147.283 776.725 147.283 Q775.671 147.283 774.968 146.627 Q774.266 145.948 774.266 144.8 Q774.266 142.06 776.702 140.162 Q779.161 138.265 782.768 138.265 Q786.328 138.265 788.952 140.139 Q791.598 142.013 791.598 144.894 Q791.598 147.728 789.724 150.047 Q787.851 152.365 784.876 153.326 Q788.53 154.052 790.708 156.535 Q792.886 158.994 792.886 162.015 Q792.886 165.763 789.935 168.527 Q786.984 171.267 782.674 171.267 Q778.692 171.267 775.835 169.112 Q772.977 166.958 772.977 163.749 Z" fill="#000000" fill-rule="evenodd" fill-opacity="1" /><path clip-path="url(#clip120)" d="M820.625 152.178 Q820.625 153.49 819.805 154.239 Q818.985 154.965 818.048 154.965 Q817.158 154.965 816.69 154.45 Q816.221 153.935 816.221 153.279 Q816.221 152.389 816.877 151.616 Q817.533 150.843 818.517 150.679 Q817.556 150.07 816.127 150.07 Q815.191 150.07 814.371 150.562 Q813.574 151.054 813.083 151.686 Q812.614 152.319 812.192 153.232 Q811.794 154.122 811.63 154.661 Q811.49 155.176 811.373 155.738 L809.733 162.297 Q808.937 165.412 808.937 166.513 Q808.937 167.871 809.593 168.785 Q810.248 169.675 811.56 169.675 Q812.075 169.675 812.661 169.534 Q813.246 169.37 813.996 168.949 Q814.769 168.503 815.448 167.848 Q816.151 167.168 816.83 166.021 Q817.509 164.873 817.954 163.397 Q818.095 162.882 818.563 162.882 Q819.149 162.882 819.149 163.351 Q819.149 163.749 818.821 164.592 Q818.517 165.412 817.837 166.489 Q817.181 167.543 816.315 168.503 Q815.448 169.44 814.16 170.096 Q812.872 170.752 811.466 170.752 Q809.452 170.752 808.117 169.675 Q806.782 168.597 806.29 167.098 Q806.173 167.309 806.009 167.59 Q805.845 167.871 805.353 168.503 Q804.885 169.112 804.346 169.581 Q803.807 170.026 802.964 170.377 Q802.144 170.752 801.254 170.752 Q800.13 170.752 799.123 170.424 Q798.139 170.096 797.436 169.347 Q796.734 168.597 796.734 167.567 Q796.734 166.419 797.507 165.623 Q798.303 164.803 799.38 164.803 Q800.06 164.803 800.598 165.201 Q801.16 165.599 801.16 166.466 Q801.16 167.426 800.505 168.152 Q799.849 168.878 798.912 169.066 Q799.872 169.675 801.301 169.675 Q802.847 169.675 804.065 168.316 Q805.283 166.958 805.868 164.686 Q807.321 159.228 807.883 156.792 Q808.445 154.333 808.445 153.279 Q808.445 152.295 808.187 151.616 Q807.93 150.937 807.485 150.632 Q807.063 150.304 806.665 150.187 Q806.29 150.07 805.868 150.07 Q805.166 150.07 804.369 150.351 Q803.596 150.632 802.66 151.288 Q801.746 151.92 800.879 153.232 Q800.013 154.544 799.427 156.347 Q799.31 156.886 798.795 156.886 Q798.233 156.863 798.233 156.394 Q798.233 155.996 798.537 155.176 Q798.865 154.333 799.521 153.279 Q800.2 152.225 801.067 151.288 Q801.957 150.328 803.245 149.672 Q804.557 149.016 805.962 149.016 Q806.595 149.016 807.203 149.157 Q807.836 149.274 808.585 149.625 Q809.358 149.976 810.038 150.749 Q810.717 151.522 811.138 152.646 Q811.42 152.108 811.794 151.592 Q812.192 151.077 812.801 150.445 Q813.434 149.789 814.3 149.414 Q815.191 149.016 816.174 149.016 Q817.135 149.016 818.071 149.274 Q819.008 149.508 819.805 150.281 Q820.625 151.03 820.625 152.178 Z" fill="#000000" fill-rule="evenodd" fill-opacity="1" /><path clip-path="url(#clip120)" d="M825.514 155.858 Q825.514 155.251 825.563 155.071 Q825.628 154.89 825.891 154.612 L832.334 147.43 Q835.859 143.463 835.859 140.003 Q835.859 137.757 834.679 136.15 Q833.515 134.543 831.367 134.543 Q829.891 134.543 828.645 135.445 Q827.399 136.347 826.825 137.954 Q826.924 137.921 827.268 137.921 Q828.104 137.921 828.563 138.445 Q829.039 138.97 829.039 139.675 Q829.039 140.577 828.448 141.02 Q827.875 141.446 827.301 141.446 Q827.071 141.446 826.76 141.397 Q826.465 141.348 825.989 140.888 Q825.514 140.413 825.514 139.577 Q825.514 137.232 827.284 135.363 Q829.072 133.494 831.793 133.494 Q834.876 133.494 836.892 135.33 Q838.925 137.15 838.925 140.003 Q838.925 141.003 838.614 141.921 Q838.319 142.823 837.909 143.528 Q837.515 144.233 836.433 145.364 Q835.351 146.496 834.482 147.299 Q833.613 148.103 831.662 149.808 L828.104 153.267 L834.154 153.267 Q837.105 153.267 837.335 153.005 Q837.663 152.529 838.073 150.021 L838.925 150.021 L837.974 155.858 L825.514 155.858 Z" fill="#000000" fill-rule="evenodd" fill-opacity="1" /><path clip-path="url(#clip120)" d="M888.891 157.542 Q889.172 157.823 889.172 158.221 Q889.172 158.619 888.891 158.9 Q888.61 159.181 888.212 159.181 L858.184 159.181 Q857.786 159.181 857.505 158.9 Q857.224 158.619 857.224 158.221 Q857.224 157.823 857.505 157.542 Q857.786 157.261 858.184 157.261 L888.212 157.261 Q888.61 157.261 888.891 157.542 Z" fill="#000000" fill-rule="evenodd" fill-opacity="1" /><path clip-path="url(#clip120)" d="M907.492 142.832 L907.492 141.333 Q913.254 141.333 916.229 138.265 Q917.049 138.265 917.189 138.452 Q917.33 138.64 917.33 139.506 L917.33 166.419 Q917.33 167.848 918.032 168.293 Q918.735 168.738 921.803 168.738 L923.326 168.738 L923.326 170.213 Q921.639 170.073 915.55 170.073 Q909.46 170.073 907.797 170.213 L907.797 168.738 L909.319 168.738 Q912.341 168.738 913.067 168.316 Q913.793 167.871 913.793 166.419 L913.793 141.568 Q911.287 142.832 907.492 142.832 Z" fill="#000000" fill-rule="evenodd" fill-opacity="1" /><path clip-path="url(#clip120)" d="M927.752 170.213 Q927.752 169.347 927.823 169.089 Q927.916 168.831 928.291 168.433 L937.496 158.174 Q942.532 152.506 942.532 147.564 Q942.532 144.355 940.846 142.06 Q939.183 139.764 936.114 139.764 Q934.006 139.764 932.226 141.052 Q930.446 142.341 929.626 144.636 Q929.767 144.589 930.259 144.589 Q931.453 144.589 932.109 145.339 Q932.788 146.088 932.788 147.095 Q932.788 148.384 931.945 149.016 Q931.125 149.625 930.305 149.625 Q929.978 149.625 929.533 149.555 Q929.111 149.484 928.432 148.829 Q927.752 148.149 927.752 146.955 Q927.752 143.605 930.282 140.935 Q932.835 138.265 936.723 138.265 Q941.127 138.265 944.008 140.888 Q946.912 143.488 946.912 147.564 Q946.912 148.993 946.467 150.304 Q946.045 151.592 945.46 152.6 Q944.898 153.607 943.352 155.223 Q941.806 156.839 940.565 157.987 Q939.323 159.135 936.536 161.57 L931.453 166.513 L940.096 166.513 Q944.312 166.513 944.64 166.138 Q945.108 165.459 945.694 161.875 L946.912 161.875 L945.553 170.213 L927.752 170.213 Z" fill="#000000" fill-rule="evenodd" fill-opacity="1" /><path clip-path="url(#clip120)" d="M974.632 152.178 Q974.632 153.49 973.812 154.239 Q972.992 154.965 972.055 154.965 Q971.165 154.965 970.697 154.45 Q970.228 153.935 970.228 153.279 Q970.228 152.389 970.884 151.616 Q971.54 150.843 972.524 150.679 Q971.563 150.07 970.134 150.07 Q969.198 150.07 968.378 150.562 Q967.581 151.054 967.09 151.686 Q966.621 152.319 966.2 153.232 Q965.801 154.122 965.637 154.661 Q965.497 155.176 965.38 155.738 L963.74 162.297 Q962.944 165.412 962.944 166.513 Q962.944 167.871 963.6 168.785 Q964.255 169.675 965.567 169.675 Q966.082 169.675 966.668 169.534 Q967.254 169.37 968.003 168.949 Q968.776 168.503 969.455 167.848 Q970.158 167.168 970.837 166.021 Q971.516 164.873 971.961 163.397 Q972.102 162.882 972.57 162.882 Q973.156 162.882 973.156 163.351 Q973.156 163.749 972.828 164.592 Q972.524 165.412 971.844 166.489 Q971.188 167.543 970.322 168.503 Q969.455 169.44 968.167 170.096 Q966.879 170.752 965.473 170.752 Q963.459 170.752 962.124 169.675 Q960.789 168.597 960.297 167.098 Q960.18 167.309 960.016 167.59 Q959.852 167.871 959.36 168.503 Q958.892 169.112 958.353 169.581 Q957.814 170.026 956.971 170.377 Q956.151 170.752 955.261 170.752 Q954.137 170.752 953.13 170.424 Q952.146 170.096 951.443 169.347 Q950.741 168.597 950.741 167.567 Q950.741 166.419 951.514 165.623 Q952.31 164.803 953.387 164.803 Q954.067 164.803 954.605 165.201 Q955.168 165.599 955.168 166.466 Q955.168 167.426 954.512 168.152 Q953.856 168.878 952.919 169.066 Q953.879 169.675 955.308 169.675 Q956.854 169.675 958.072 168.316 Q959.29 166.958 959.875 164.686 Q961.328 159.228 961.89 156.792 Q962.452 154.333 962.452 153.279 Q962.452 152.295 962.194 151.616 Q961.937 150.937 961.492 150.632 Q961.07 150.304 960.672 150.187 Q960.297 150.07 959.875 150.07 Q959.173 150.07 958.376 150.351 Q957.603 150.632 956.667 151.288 Q955.753 151.92 954.886 153.232 Q954.02 154.544 953.434 156.347 Q953.317 156.886 952.802 156.886 Q952.24 156.863 952.24 156.394 Q952.24 155.996 952.544 155.176 Q952.872 154.333 953.528 153.279 Q954.207 152.225 955.074 151.288 Q955.964 150.328 957.252 149.672 Q958.564 149.016 959.969 149.016 Q960.602 149.016 961.211 149.157 Q961.843 149.274 962.592 149.625 Q963.365 149.976 964.045 150.749 Q964.724 151.522 965.145 152.646 Q965.427 152.108 965.801 151.592 Q966.2 151.077 966.808 150.445 Q967.441 149.789 968.308 149.414 Q969.198 149.016 970.181 149.016 Q971.142 149.016 972.079 149.274 Q973.015 149.508 973.812 150.281 Q974.632 151.03 974.632 152.178 Z" fill="#000000" fill-rule="evenodd" fill-opacity="1" /><path clip-path="url(#clip120)" d="M992.32 158.807 Q991.219 158.807 991.219 158.221 Q991.219 157.635 992.366 157.635 Q992.507 157.635 992.741 157.659 Q992.999 157.682 993.046 157.682 L1006.56 157.682 L1006.56 144.121 Q1006.56 144.074 1006.54 143.863 Q1006.51 143.629 1006.51 143.488 Q1006.51 142.341 1007.08 142.341 Q1007.66 142.341 1007.66 143.488 L1007.66 157.682 L1021.2 157.682 Q1021.25 157.682 1021.48 157.659 Q1021.71 157.635 1021.86 157.635 Q1022.96 157.635 1022.96 158.221 Q1022.98 158.807 1021.81 158.807 Q1021.67 158.807 1021.46 158.783 Q1021.25 158.76 1021.2 158.76 L1007.66 158.76 L1007.66 173.001 Q1007.66 174.101 1007.08 174.101 Q1006.51 174.101 1006.51 172.954 Q1006.51 172.813 1006.54 172.579 Q1006.56 172.368 1006.56 172.321 L1006.56 158.76 L993.046 158.76 Q992.999 158.76 992.718 158.783 Q992.46 158.807 992.32 158.807 Z" fill="#000000" fill-rule="evenodd" fill-opacity="1" /><path clip-path="url(#clip120)" d="M1041.49 162.297 L1041.49 160.821 L1056.22 138.312 Q1056.59 137.726 1057.18 137.75 Q1057.72 137.75 1057.84 137.961 Q1057.95 138.171 1057.95 138.991 L1057.95 160.821 L1062.75 160.821 L1062.75 162.297 L1057.95 162.297 L1057.95 166.466 Q1057.95 167.848 1058.51 168.293 Q1059.1 168.738 1061.58 168.738 L1062.59 168.738 L1062.59 170.213 Q1060.62 170.073 1056.08 170.073 Q1051.56 170.073 1049.59 170.213 L1049.59 168.738 L1050.6 168.738 Q1053.08 168.738 1053.67 168.316 Q1054.25 167.871 1054.25 166.466 L1054.25 162.297 L1041.49 162.297 M1042.85 160.821 L1054.53 160.821 L1054.53 142.926 L1042.85 160.821 Z" fill="#000000" fill-rule="evenodd" fill-opacity="1" /></svg>
