<?xml version="1.0" encoding="utf-8"?>
<svg xmlns="http://www.w3.org/2000/svg" xmlns:xlink="http://www.w3.org/1999/xlink" width="672" height="480" viewBox="0 0 2688 1920">
<defs>
  <clipPath id="clip940">
    <rect x="0" y="0" width="2688" height="1920"/>
  </clipPath>
</defs>
<path clip-path="url(#clip940)" d="
M0 1920 L2688 1920 L2688 0 L0 0  Z
  " fill="#ffffff" fill-rule="evenodd" fill-opacity="1"/>
<defs>
  <clipPath id="clip941">
    <rect x="537" y="0" width="1883" height="1883"/>
  </clipPath>
</defs>
<defs>
  <clipPath id="clip942">
    <rect x="152" y="190" width="2490" height="1468"/>
  </clipPath>
</defs>
<path clip-path="url(#clip940)" d="
M115.057 1800.78 L2640.76 1800.78 L2640.76 47.2441 L115.057 47.2441  Z
  " fill="#ffffff" fill-rule="evenodd" fill-opacity="1"/>
<defs>
  <clipPath id="clip943">
    <rect x="115" y="47" width="2527" height="1755"/>
  </clipPath>
</defs>
<polyline clip-path="url(#clip943)" style="stroke:#000000; stroke-linecap:round; stroke-linejoin:round; stroke-width:2; stroke-opacity:0.1; fill:none" points="
  186.539,1800.78 186.539,47.2441 
  "/>
<polyline clip-path="url(#clip943)" style="stroke:#000000; stroke-linecap:round; stroke-linejoin:round; stroke-width:2; stroke-opacity:0.1; fill:none" points="
  782.223,1800.78 782.223,47.2441 
  "/>
<polyline clip-path="url(#clip943)" style="stroke:#000000; stroke-linecap:round; stroke-linejoin:round; stroke-width:2; stroke-opacity:0.1; fill:none" points="
  1377.91,1800.78 1377.91,47.2441 
  "/>
<polyline clip-path="url(#clip943)" style="stroke:#000000; stroke-linecap:round; stroke-linejoin:round; stroke-width:2; stroke-opacity:0.1; fill:none" points="
  1973.59,1800.78 1973.59,47.2441 
  "/>
<polyline clip-path="url(#clip943)" style="stroke:#000000; stroke-linecap:round; stroke-linejoin:round; stroke-width:2; stroke-opacity:0.1; fill:none" points="
  2569.27,1800.78 2569.27,47.2441 
  "/>
<polyline clip-path="url(#clip940)" style="stroke:#000000; stroke-linecap:round; stroke-linejoin:round; stroke-width:4; stroke-opacity:1; fill:none" points="
  115.057,1800.78 2640.76,1800.78 
  "/>
<polyline clip-path="url(#clip940)" style="stroke:#000000; stroke-linecap:round; stroke-linejoin:round; stroke-width:4; stroke-opacity:1; fill:none" points="
  186.539,1800.78 186.539,1781.88 
  "/>
<polyline clip-path="url(#clip940)" style="stroke:#000000; stroke-linecap:round; stroke-linejoin:round; stroke-width:4; stroke-opacity:1; fill:none" points="
  782.223,1800.78 782.223,1781.88 
  "/>
<polyline clip-path="url(#clip940)" style="stroke:#000000; stroke-linecap:round; stroke-linejoin:round; stroke-width:4; stroke-opacity:1; fill:none" points="
  1377.91,1800.78 1377.91,1781.88 
  "/>
<polyline clip-path="url(#clip940)" style="stroke:#000000; stroke-linecap:round; stroke-linejoin:round; stroke-width:4; stroke-opacity:1; fill:none" points="
  1973.59,1800.78 1973.59,1781.88 
  "/>
<polyline clip-path="url(#clip940)" style="stroke:#000000; stroke-linecap:round; stroke-linejoin:round; stroke-width:4; stroke-opacity:1; fill:none" points="
  2569.27,1800.78 2569.27,1781.88 
  "/>
<path clip-path="url(#clip940)" d="M156.482 1848.65 L186.157 1848.65 L186.157 1852.59 L156.482 1852.59 L156.482 1848.65 Z" fill="#000000" fill-rule="evenodd" fill-opacity="1" /><path clip-path="url(#clip940)" d="M200.278 1861.55 L216.597 1861.55 L216.597 1865.48 L194.653 1865.48 L194.653 1861.55 Q197.315 1858.79 201.898 1854.16 Q206.504 1849.51 207.685 1848.17 Q209.93 1845.65 210.81 1843.91 Q211.713 1842.15 211.713 1840.46 Q211.713 1837.71 209.768 1835.97 Q207.847 1834.23 204.745 1834.23 Q202.546 1834.23 200.092 1835 Q197.662 1835.76 194.884 1837.31 L194.884 1832.59 Q197.708 1831.46 200.162 1830.88 Q202.616 1830.3 204.653 1830.3 Q210.023 1830.3 213.217 1832.98 Q216.412 1835.67 216.412 1840.16 Q216.412 1842.29 215.602 1844.21 Q214.815 1846.11 212.708 1848.7 Q212.129 1849.37 209.028 1852.59 Q205.926 1855.78 200.278 1861.55 Z" fill="#000000" fill-rule="evenodd" fill-opacity="1" /><path clip-path="url(#clip940)" d="M751.98 1848.65 L781.656 1848.65 L781.656 1852.59 L751.98 1852.59 L751.98 1848.65 Z" fill="#000000" fill-rule="evenodd" fill-opacity="1" /><path clip-path="url(#clip940)" d="M792.558 1861.55 L800.197 1861.55 L800.197 1835.18 L791.887 1836.85 L791.887 1832.59 L800.151 1830.92 L804.827 1830.92 L804.827 1861.55 L812.466 1861.55 L812.466 1865.48 L792.558 1865.48 L792.558 1861.55 Z" fill="#000000" fill-rule="evenodd" fill-opacity="1" /><path clip-path="url(#clip940)" d="M1377.91 1834 Q1374.3 1834 1372.47 1837.57 Q1370.66 1841.11 1370.66 1848.24 Q1370.66 1855.34 1372.47 1858.91 Q1374.3 1862.45 1377.91 1862.45 Q1381.54 1862.45 1383.35 1858.91 Q1385.18 1855.34 1385.18 1848.24 Q1385.18 1841.11 1383.35 1837.57 Q1381.54 1834 1377.91 1834 M1377.91 1830.3 Q1383.72 1830.3 1386.77 1834.9 Q1389.85 1839.49 1389.85 1848.24 Q1389.85 1856.96 1386.77 1861.57 Q1383.72 1866.15 1377.91 1866.15 Q1372.1 1866.15 1369.02 1861.57 Q1365.96 1856.96 1365.96 1848.24 Q1365.96 1839.49 1369.02 1834.9 Q1372.1 1830.3 1377.91 1830.3 Z" fill="#000000" fill-rule="evenodd" fill-opacity="1" /><path clip-path="url(#clip940)" d="M1963.97 1861.55 L1971.61 1861.55 L1971.61 1835.18 L1963.3 1836.85 L1963.3 1832.59 L1971.56 1830.92 L1976.24 1830.92 L1976.24 1861.55 L1983.88 1861.55 L1983.88 1865.48 L1963.97 1865.48 L1963.97 1861.55 Z" fill="#000000" fill-rule="evenodd" fill-opacity="1" /><path clip-path="url(#clip940)" d="M2563.93 1861.55 L2580.25 1861.55 L2580.25 1865.48 L2558.3 1865.48 L2558.3 1861.55 Q2560.96 1858.79 2565.55 1854.16 Q2570.15 1849.51 2571.33 1848.17 Q2573.58 1845.65 2574.46 1843.91 Q2575.36 1842.15 2575.36 1840.46 Q2575.36 1837.71 2573.42 1835.97 Q2571.5 1834.23 2568.39 1834.23 Q2566.2 1834.23 2563.74 1835 Q2561.31 1835.76 2558.53 1837.31 L2558.53 1832.59 Q2561.36 1831.46 2563.81 1830.88 Q2566.26 1830.3 2568.3 1830.3 Q2573.67 1830.3 2576.87 1832.98 Q2580.06 1835.67 2580.06 1840.16 Q2580.06 1842.29 2579.25 1844.21 Q2578.46 1846.11 2576.36 1848.7 Q2575.78 1849.37 2572.68 1852.59 Q2569.57 1855.78 2563.93 1861.55 Z" fill="#000000" fill-rule="evenodd" fill-opacity="1" /><polyline clip-path="url(#clip943)" style="stroke:#000000; stroke-linecap:round; stroke-linejoin:round; stroke-width:2; stroke-opacity:0.1; fill:none" points="
  115.057,1782.02 2640.76,1782.02 
  "/>
<polyline clip-path="url(#clip943)" style="stroke:#000000; stroke-linecap:round; stroke-linejoin:round; stroke-width:2; stroke-opacity:0.1; fill:none" points="
  115.057,1325.9 2640.76,1325.9 
  "/>
<polyline clip-path="url(#clip943)" style="stroke:#000000; stroke-linecap:round; stroke-linejoin:round; stroke-width:2; stroke-opacity:0.1; fill:none" points="
  115.057,869.778 2640.76,869.778 
  "/>
<polyline clip-path="url(#clip943)" style="stroke:#000000; stroke-linecap:round; stroke-linejoin:round; stroke-width:2; stroke-opacity:0.1; fill:none" points="
  115.057,413.66 2640.76,413.66 
  "/>
<polyline clip-path="url(#clip940)" style="stroke:#000000; stroke-linecap:round; stroke-linejoin:round; stroke-width:4; stroke-opacity:1; fill:none" points="
  115.057,1800.78 115.057,47.2441 
  "/>
<polyline clip-path="url(#clip940)" style="stroke:#000000; stroke-linecap:round; stroke-linejoin:round; stroke-width:4; stroke-opacity:1; fill:none" points="
  115.057,1782.02 133.955,1782.02 
  "/>
<polyline clip-path="url(#clip940)" style="stroke:#000000; stroke-linecap:round; stroke-linejoin:round; stroke-width:4; stroke-opacity:1; fill:none" points="
  115.057,1325.9 133.955,1325.9 
  "/>
<polyline clip-path="url(#clip940)" style="stroke:#000000; stroke-linecap:round; stroke-linejoin:round; stroke-width:4; stroke-opacity:1; fill:none" points="
  115.057,869.778 133.955,869.778 
  "/>
<polyline clip-path="url(#clip940)" style="stroke:#000000; stroke-linecap:round; stroke-linejoin:round; stroke-width:4; stroke-opacity:1; fill:none" points="
  115.057,413.66 133.955,413.66 
  "/>
<path clip-path="url(#clip940)" d="M62.7928 1767.81 Q59.1817 1767.81 57.353 1771.38 Q55.5475 1774.92 55.5475 1782.05 Q55.5475 1789.16 57.353 1792.72 Q59.1817 1796.26 62.7928 1796.26 Q66.427 1796.26 68.2326 1792.72 Q70.0613 1789.16 70.0613 1782.05 Q70.0613 1774.92 68.2326 1771.38 Q66.427 1767.81 62.7928 1767.81 M62.7928 1764.11 Q68.6029 1764.11 71.6585 1768.72 Q74.7372 1773.3 74.7372 1782.05 Q74.7372 1790.78 71.6585 1795.38 Q68.6029 1799.97 62.7928 1799.97 Q56.9826 1799.97 53.904 1795.38 Q50.8484 1790.78 50.8484 1782.05 Q50.8484 1773.3 53.904 1768.72 Q56.9826 1764.11 62.7928 1764.11 Z" fill="#000000" fill-rule="evenodd" fill-opacity="1" /><path clip-path="url(#clip940)" d="M58.4178 1339.24 L74.7372 1339.24 L74.7372 1343.18 L52.7928 1343.18 L52.7928 1339.24 Q55.4549 1336.49 60.0382 1331.86 Q64.6446 1327.2 65.8252 1325.86 Q68.0705 1323.34 68.9502 1321.6 Q69.8529 1319.84 69.8529 1318.15 Q69.8529 1315.4 67.9085 1313.66 Q65.9872 1311.93 62.8854 1311.93 Q60.6863 1311.93 58.2326 1312.69 Q55.8021 1313.45 53.0243 1315.01 L53.0243 1310.28 Q55.8484 1309.15 58.3021 1308.57 Q60.7558 1307.99 62.7928 1307.99 Q68.1631 1307.99 71.3576 1310.68 Q74.552 1313.36 74.552 1317.85 Q74.552 1319.98 73.7418 1321.9 Q72.9548 1323.8 70.8483 1326.39 Q70.2696 1327.07 67.1678 1330.28 Q64.0659 1333.48 58.4178 1339.24 Z" fill="#000000" fill-rule="evenodd" fill-opacity="1" /><path clip-path="url(#clip940)" d="M65.1539 856.572 L53.3484 875.021 L65.1539 875.021 L65.1539 856.572 M63.927 852.498 L69.8066 852.498 L69.8066 875.021 L74.7372 875.021 L74.7372 878.91 L69.8066 878.91 L69.8066 887.058 L65.1539 887.058 L65.1539 878.91 L49.5521 878.91 L49.5521 874.396 L63.927 852.498 Z" fill="#000000" fill-rule="evenodd" fill-opacity="1" /><path clip-path="url(#clip940)" d="M63.2095 411.796 Q60.0613 411.796 58.2095 413.949 Q56.3808 416.102 56.3808 419.852 Q56.3808 423.579 58.2095 425.754 Q60.0613 427.907 63.2095 427.907 Q66.3576 427.907 68.1863 425.754 Q70.0381 423.579 70.0381 419.852 Q70.0381 416.102 68.1863 413.949 Q66.3576 411.796 63.2095 411.796 M72.4918 397.143 L72.4918 401.403 Q70.7326 400.569 68.927 400.13 Q67.1446 399.69 65.3854 399.69 Q60.7558 399.69 58.3021 402.815 Q55.8715 405.94 55.5243 412.259 Q56.89 410.245 58.9502 409.18 Q61.0104 408.093 63.4872 408.093 Q68.6955 408.093 71.7048 411.264 Q74.7372 414.412 74.7372 419.852 Q74.7372 425.176 71.589 428.393 Q68.4409 431.611 63.2095 431.611 Q57.2141 431.611 54.0428 427.028 Q50.8716 422.421 50.8716 413.694 Q50.8716 405.5 54.7604 400.639 Q58.6493 395.755 65.2002 395.755 Q66.9594 395.755 68.7418 396.102 Q70.5474 396.449 72.4918 397.143 Z" fill="#000000" fill-rule="evenodd" fill-opacity="1" /><polyline clip-path="url(#clip943)" style="stroke:#009af9; stroke-linecap:round; stroke-linejoin:round; stroke-width:4; stroke-opacity:1; fill:none" points="
  186.539,1725 202.052,1723.96 345.491,1713.42 431.692,1706.18 504.574,1699.47 583.744,1691.5 656.732,1683.48 734.983,1674.08 825.644,1662.08 906.213,1650.29 
  976.864,1639 1053.89,1625.59 1131.38,1610.83 1217.05,1592.89 1298.57,1574.07 1383.32,1552.51 1454.67,1532.65 1498.22,1519.68 1541.78,1506.05 1581.67,1492.93 
  1621.57,1479.2 1658.42,1465.93 1695.27,1452.08 1732.59,1437.44 1769.92,1422.14 1811.75,1404.19 1853.58,1385.34 1891.49,1367.45 1929.4,1348.76 1972.8,1326.32 
  2016.2,1302.71 2056.38,1279.77 2096.57,1255.72 2136.19,1230.89 2175.81,1204.89 2214.27,1178.48 2252.74,1150.85 2292.17,1121.21 2331.6,1090.19 2374.8,1054.52 
  2418.01,1017.01 2449.39,988.561 2480.76,959.054 2512.14,928.449 2543.52,896.707 2549.96,890.05 2556.4,883.343 2562.84,876.586 2569.27,869.778 
  "/>
<polyline clip-path="url(#clip943)" style="stroke:#e26f46; stroke-linecap:round; stroke-linejoin:round; stroke-width:4; stroke-opacity:1; fill:none" points="
  186.539,1751.15 202.052,1750.34 345.491,1741.71 431.692,1735.44 504.574,1729.37 583.744,1721.89 656.732,1714.05 734.983,1704.51 825.644,1691.77 906.213,1678.7 
  976.864,1665.69 1053.89,1649.64 1131.38,1631.25 1217.05,1607.93 1298.57,1582.4 1383.32,1551.87 1454.67,1522.59 1498.22,1502.91 1541.78,1481.74 1581.67,1460.94 
  1621.57,1438.7 1658.42,1416.79 1695.27,1393.48 1732.59,1368.36 1769.92,1341.61 1811.75,1309.57 1853.58,1275.2 1891.49,1241.9 1929.4,1206.41 1972.8,1162.91 
  2016.2,1116.12 2056.38,1069.65 2096.57,1019.93 2136.19,967.523 2175.81,911.511 2214.27,853.444 2252.74,791.505 2272.45,758.172 2292.17,723.717 2311.88,688.103 
  2331.6,651.291 2353.2,609.535 2374.8,566.237 2396.4,521.34 2418.01,474.785 2449.39,404.077 2480.76,329.544 2512.14,250.98 2543.52,168.166 2549.96,150.63 
  2556.4,132.904 2562.84,114.986 2569.27,96.8724 
  "/>
<polyline clip-path="url(#clip943)" style="stroke:#3da44d; stroke-linecap:round; stroke-linejoin:round; stroke-width:4; stroke-opacity:1; fill:none" points="
  186.539,869.778 190.417,873.886 194.296,877.975 198.174,882.045 202.052,886.097 237.912,922.712 273.772,957.831 309.632,991.514 345.491,1023.82 388.592,1060.91 
  431.692,1096.18 468.133,1124.65 504.574,1151.95 544.159,1180.31 583.744,1207.4 620.238,1231.29 656.732,1254.18 695.857,1277.68 734.983,1300.12 780.313,1324.88 
  825.644,1348.37 865.928,1368.23 906.213,1387.18 941.538,1403.08 976.864,1418.34 1015.38,1434.28 1053.89,1449.52 1092.64,1464.17 1131.38,1478.19 1174.22,1492.96 
  1217.05,1507.01 1257.81,1519.75 1298.57,1531.9 1383.32,1555.39 1454.67,1573.44 1541.78,1593.55 1621.57,1610.26 1695.27,1624.37 1769.92,1637.49 1853.58,1650.9 
  1929.4,1661.97 2016.2,1673.5 2096.57,1683.19 2175.81,1691.89 2252.74,1699.61 2331.6,1706.84 2418.01,1714.03 2543.52,1723.27 2569.27,1725 
  "/>
<polyline clip-path="url(#clip943)" style="stroke:#c271d2; stroke-linecap:round; stroke-linejoin:round; stroke-width:4; stroke-opacity:1; fill:none" points="
  186.539,1316.59 194.296,1318.74 202.052,1320.89 273.772,1340.27 345.491,1358.84 388.592,1369.62 431.692,1380.13 468.133,1388.8 504.574,1397.29 583.744,1415.1 
  656.732,1430.79 734.983,1446.87 825.644,1464.58 906.213,1479.53 976.864,1492.06 1053.89,1505.13 1131.38,1517.68 1217.05,1530.9 1298.57,1542.86 1383.32,1554.69 
  1454.67,1564.2 1541.78,1575.27 1621.57,1584.92 1695.27,1593.42 1769.92,1601.67 1853.58,1610.48 1929.4,1618.09 2016.2,1626.4 2096.57,1633.71 2175.81,1640.58 
  2252.74,1646.95 2331.6,1653.18 2418.01,1659.67 2543.52,1668.53 2569.27,1670.27 
  "/>
<path clip-path="url(#clip940)" d="
M2258.22 364.895 L2556.57 364.895 L2556.57 105.695 L2258.22 105.695  Z
  " fill="#ffffff" fill-rule="evenodd" fill-opacity="1"/>
<polyline clip-path="url(#clip940)" style="stroke:#000000; stroke-linecap:round; stroke-linejoin:round; stroke-width:4; stroke-opacity:1; fill:none" points="
  2258.22,364.895 2556.57,364.895 2556.57,105.695 2258.22,105.695 2258.22,364.895 
  "/>
<polyline clip-path="url(#clip940)" style="stroke:#009af9; stroke-linecap:round; stroke-linejoin:round; stroke-width:4; stroke-opacity:1; fill:none" points="
  2286.29,157.535 2454.67,157.535 
  "/>
<path clip-path="url(#clip940)" d="M2482.73 178.684 Q2482.73 177.817 2482.8 177.56 Q2482.89 177.302 2483.27 176.904 L2492.47 166.645 Q2497.51 160.977 2497.51 156.035 Q2497.51 152.826 2495.82 150.53 Q2494.16 148.235 2491.09 148.235 Q2488.98 148.235 2487.2 149.523 Q2485.42 150.811 2484.6 153.107 Q2484.74 153.06 2485.24 153.06 Q2486.43 153.06 2487.09 153.809 Q2487.77 154.559 2487.77 155.566 Q2487.77 156.854 2486.92 157.487 Q2486.1 158.096 2485.28 158.096 Q2484.96 158.096 2484.51 158.025 Q2484.09 157.955 2483.41 157.299 Q2482.73 156.62 2482.73 155.426 Q2482.73 152.076 2485.26 149.406 Q2487.81 146.736 2491.7 146.736 Q2496.1 146.736 2498.99 149.359 Q2501.89 151.959 2501.89 156.035 Q2501.89 157.463 2501.45 158.775 Q2501.02 160.063 2500.44 161.07 Q2499.88 162.078 2498.33 163.694 Q2496.78 165.31 2495.54 166.458 Q2494.3 167.605 2491.51 170.041 L2486.43 174.983 L2495.07 174.983 Q2499.29 174.983 2499.62 174.609 Q2500.09 173.929 2500.67 170.346 L2501.89 170.346 L2500.53 178.684 L2482.73 178.684 Z" fill="#000000" fill-rule="evenodd" fill-opacity="1" /><path clip-path="url(#clip940)" d="M2523.54 138.462 Q2523.54 139.38 2522.97 139.905 Q2522.4 140.413 2521.74 140.413 Q2521.12 140.413 2520.79 140.052 Q2520.46 139.691 2520.46 139.232 Q2520.46 138.609 2520.92 138.068 Q2521.38 137.527 2522.07 137.412 Q2521.4 136.986 2520.4 136.986 Q2519.74 136.986 2519.17 137.331 Q2518.61 137.675 2518.26 138.118 Q2517.94 138.56 2517.64 139.2 Q2517.36 139.823 2517.25 140.2 Q2517.15 140.56 2517.07 140.954 L2515.92 145.545 Q2515.36 147.725 2515.36 148.496 Q2515.36 149.447 2515.82 150.086 Q2516.28 150.709 2517.2 150.709 Q2517.56 150.709 2517.97 150.611 Q2518.38 150.496 2518.9 150.201 Q2519.45 149.89 2519.92 149.431 Q2520.41 148.955 2520.89 148.152 Q2521.36 147.348 2521.68 146.315 Q2521.77 145.955 2522.1 145.955 Q2522.51 145.955 2522.51 146.283 Q2522.51 146.561 2522.28 147.152 Q2522.07 147.725 2521.59 148.48 Q2521.13 149.217 2520.53 149.89 Q2519.92 150.545 2519.02 151.005 Q2518.12 151.464 2517.13 151.464 Q2515.72 151.464 2514.79 150.709 Q2513.85 149.955 2513.51 148.906 Q2513.43 149.053 2513.31 149.25 Q2513.2 149.447 2512.85 149.89 Q2512.53 150.316 2512.15 150.644 Q2511.77 150.955 2511.18 151.201 Q2510.61 151.464 2509.99 151.464 Q2509.2 151.464 2508.49 151.234 Q2507.8 151.005 2507.31 150.48 Q2506.82 149.955 2506.82 149.234 Q2506.82 148.43 2507.36 147.873 Q2507.92 147.299 2508.67 147.299 Q2509.15 147.299 2509.53 147.578 Q2509.92 147.857 2509.92 148.463 Q2509.92 149.135 2509.46 149.644 Q2509 150.152 2508.35 150.283 Q2509.02 150.709 2510.02 150.709 Q2511.1 150.709 2511.95 149.758 Q2512.81 148.808 2513.21 147.217 Q2514.23 143.397 2514.62 141.692 Q2515.02 139.97 2515.02 139.232 Q2515.02 138.544 2514.84 138.068 Q2514.66 137.593 2514.35 137.38 Q2514.05 137.15 2513.77 137.068 Q2513.51 136.986 2513.21 136.986 Q2512.72 136.986 2512.17 137.183 Q2511.62 137.38 2510.97 137.839 Q2510.33 138.281 2509.72 139.2 Q2509.12 140.118 2508.71 141.38 Q2508.62 141.757 2508.26 141.757 Q2507.87 141.741 2507.87 141.413 Q2507.87 141.134 2508.08 140.56 Q2508.31 139.97 2508.77 139.232 Q2509.25 138.495 2509.85 137.839 Q2510.48 137.167 2511.38 136.707 Q2512.3 136.248 2513.28 136.248 Q2513.72 136.248 2514.15 136.347 Q2514.59 136.429 2515.12 136.675 Q2515.66 136.921 2516.13 137.462 Q2516.61 138.003 2516.9 138.79 Q2517.1 138.413 2517.36 138.052 Q2517.64 137.691 2518.07 137.249 Q2518.51 136.789 2519.12 136.527 Q2519.74 136.248 2520.43 136.248 Q2521.1 136.248 2521.76 136.429 Q2522.41 136.593 2522.97 137.134 Q2523.54 137.658 2523.54 138.462 Z" fill="#000000" fill-rule="evenodd" fill-opacity="1" /><polyline clip-path="url(#clip940)" style="stroke:#e26f46; stroke-linecap:round; stroke-linejoin:round; stroke-width:4; stroke-opacity:1; fill:none" points="
  2286.29,209.375 2454.67,209.375 
  "/>
<path clip-path="url(#clip940)" d="M2500.98 219.39 Q2501.16 219.601 2501.16 219.812 Q2501.16 220.023 2500.7 220.632 Q2500.25 221.241 2499.29 222.061 Q2498.33 222.88 2497.09 223.653 Q2495.85 224.426 2494.02 224.942 Q2492.19 225.48 2490.27 225.48 Q2486.83 225.48 2484.77 223.021 Q2482.73 220.562 2482.73 216.791 Q2482.73 214.378 2483.53 212.247 Q2484.32 210.092 2485.61 208.569 Q2486.92 207.047 2488.56 205.946 Q2490.23 204.822 2491.96 204.283 Q2493.69 203.744 2495.31 203.744 Q2497.67 203.744 2499.06 204.939 Q2500.44 206.133 2500.44 207.82 Q2500.44 208.218 2500.32 208.71 Q2500.23 209.202 2499.9 209.975 Q2499.59 210.748 2498.8 211.52 Q2498 212.27 2496.83 212.762 Q2494.23 213.863 2489.5 213.863 L2486.95 213.863 Q2486.2 216.884 2486.2 218.852 Q2486.2 219.625 2486.34 220.421 Q2486.48 221.194 2486.85 222.178 Q2487.25 223.161 2488.14 223.794 Q2489.05 224.403 2490.37 224.403 Q2490.79 224.403 2491.23 224.379 Q2491.7 224.356 2492.87 224.098 Q2494.07 223.841 2495.12 223.396 Q2496.18 222.951 2497.51 221.99 Q2498.87 221.007 2499.95 219.671 Q2500.32 219.18 2500.58 219.18 Q2500.79 219.18 2500.98 219.39 M2498.85 207.82 Q2498.85 206.531 2497.88 205.665 Q2496.95 204.798 2495.31 204.798 Q2494.79 204.798 2494.16 204.915 Q2493.53 205.032 2492.47 205.524 Q2491.44 206.016 2490.53 206.836 Q2489.62 207.632 2488.7 209.202 Q2487.79 210.748 2487.25 212.809 L2489.22 212.809 Q2489.9 212.809 2490.39 212.809 Q2490.88 212.785 2491.96 212.692 Q2493.06 212.598 2493.86 212.434 Q2494.65 212.247 2495.66 211.872 Q2496.67 211.497 2497.3 211.005 Q2497.96 210.49 2498.4 209.67 Q2498.85 208.85 2498.85 207.82 Z" fill="#000000" fill-rule="evenodd" fill-opacity="1" /><path clip-path="url(#clip940)" d="M2522.83 195.359 Q2522.83 196.277 2522.25 196.802 Q2521.68 197.31 2521.02 197.31 Q2520.4 197.31 2520.07 196.95 Q2519.74 196.589 2519.74 196.13 Q2519.74 195.507 2520.2 194.966 Q2520.66 194.425 2521.35 194.31 Q2520.68 193.884 2519.68 193.884 Q2519.02 193.884 2518.45 194.228 Q2517.89 194.572 2517.55 195.015 Q2517.22 195.458 2516.92 196.097 Q2516.65 196.72 2516.53 197.097 Q2516.43 197.458 2516.35 197.851 L2515.2 202.442 Q2514.65 204.623 2514.65 205.393 Q2514.65 206.344 2515.1 206.984 Q2515.56 207.607 2516.48 207.607 Q2516.84 207.607 2517.25 207.509 Q2517.66 207.394 2518.19 207.099 Q2518.73 206.787 2519.2 206.328 Q2519.7 205.853 2520.17 205.049 Q2520.65 204.246 2520.96 203.213 Q2521.06 202.852 2521.38 202.852 Q2521.79 202.852 2521.79 203.18 Q2521.79 203.459 2521.56 204.049 Q2521.35 204.623 2520.88 205.377 Q2520.42 206.115 2519.81 206.787 Q2519.2 207.443 2518.3 207.902 Q2517.4 208.361 2516.42 208.361 Q2515.01 208.361 2514.07 207.607 Q2513.14 206.853 2512.79 205.803 Q2512.71 205.951 2512.6 206.148 Q2512.48 206.344 2512.14 206.787 Q2511.81 207.213 2511.43 207.541 Q2511.05 207.853 2510.46 208.099 Q2509.89 208.361 2509.27 208.361 Q2508.48 208.361 2507.78 208.132 Q2507.09 207.902 2506.59 207.377 Q2506.1 206.853 2506.1 206.131 Q2506.1 205.328 2506.64 204.77 Q2507.2 204.197 2507.96 204.197 Q2508.43 204.197 2508.81 204.475 Q2509.2 204.754 2509.2 205.361 Q2509.2 206.033 2508.74 206.541 Q2508.28 207.049 2507.63 207.181 Q2508.3 207.607 2509.3 207.607 Q2510.38 207.607 2511.23 206.656 Q2512.09 205.705 2512.5 204.115 Q2513.51 200.294 2513.91 198.589 Q2514.3 196.868 2514.3 196.13 Q2514.3 195.441 2514.12 194.966 Q2513.94 194.49 2513.63 194.277 Q2513.33 194.048 2513.05 193.966 Q2512.79 193.884 2512.5 193.884 Q2512.01 193.884 2511.45 194.08 Q2510.91 194.277 2510.25 194.736 Q2509.61 195.179 2509.01 196.097 Q2508.4 197.015 2507.99 198.278 Q2507.91 198.655 2507.55 198.655 Q2507.15 198.638 2507.15 198.311 Q2507.15 198.032 2507.37 197.458 Q2507.6 196.868 2508.05 196.13 Q2508.53 195.392 2509.14 194.736 Q2509.76 194.064 2510.66 193.605 Q2511.58 193.146 2512.56 193.146 Q2513.01 193.146 2513.43 193.244 Q2513.87 193.326 2514.4 193.572 Q2514.94 193.818 2515.42 194.359 Q2515.89 194.9 2516.19 195.687 Q2516.38 195.31 2516.65 194.949 Q2516.92 194.589 2517.35 194.146 Q2517.79 193.687 2518.4 193.425 Q2519.02 193.146 2519.71 193.146 Q2520.38 193.146 2521.04 193.326 Q2521.7 193.49 2522.25 194.031 Q2522.83 194.556 2522.83 195.359 Z" fill="#000000" fill-rule="evenodd" fill-opacity="1" /><polyline clip-path="url(#clip940)" style="stroke:#3da44d; stroke-linecap:round; stroke-linejoin:round; stroke-width:4; stroke-opacity:1; fill:none" points="
  2286.29,261.215 2454.67,261.215 
  "/>
<path clip-path="url(#clip940)" d="M2482.73 282.364 Q2482.73 281.497 2482.8 281.24 Q2482.89 280.982 2483.27 280.584 L2492.47 270.325 Q2497.51 264.657 2497.51 259.715 Q2497.51 256.506 2495.82 254.21 Q2494.16 251.915 2491.09 251.915 Q2488.98 251.915 2487.2 253.203 Q2485.42 254.491 2484.6 256.787 Q2484.74 256.74 2485.24 256.74 Q2486.43 256.74 2487.09 257.489 Q2487.77 258.239 2487.77 259.246 Q2487.77 260.534 2486.92 261.167 Q2486.1 261.776 2485.28 261.776 Q2484.96 261.776 2484.51 261.705 Q2484.09 261.635 2483.41 260.979 Q2482.73 260.3 2482.73 259.106 Q2482.73 255.756 2485.26 253.086 Q2487.81 250.416 2491.7 250.416 Q2496.1 250.416 2498.99 253.039 Q2501.89 255.639 2501.89 259.715 Q2501.89 261.143 2501.45 262.455 Q2501.02 263.743 2500.44 264.75 Q2499.88 265.758 2498.33 267.374 Q2496.78 268.99 2495.54 270.138 Q2494.3 271.285 2491.51 273.721 L2486.43 278.663 L2495.07 278.663 Q2499.29 278.663 2499.62 278.289 Q2500.09 277.609 2500.67 274.026 L2501.89 274.026 L2500.53 282.364 L2482.73 282.364 Z" fill="#000000" fill-rule="evenodd" fill-opacity="1" /><path clip-path="url(#clip940)" d="M2523.54 242.142 Q2523.54 243.06 2522.97 243.585 Q2522.4 244.093 2521.74 244.093 Q2521.12 244.093 2520.79 243.732 Q2520.46 243.371 2520.46 242.912 Q2520.46 242.289 2520.92 241.748 Q2521.38 241.207 2522.07 241.092 Q2521.4 240.666 2520.4 240.666 Q2519.74 240.666 2519.17 241.011 Q2518.61 241.355 2518.26 241.798 Q2517.94 242.24 2517.64 242.88 Q2517.36 243.503 2517.25 243.88 Q2517.15 244.24 2517.07 244.634 L2515.92 249.225 Q2515.36 251.405 2515.36 252.176 Q2515.36 253.127 2515.82 253.766 Q2516.28 254.389 2517.2 254.389 Q2517.56 254.389 2517.97 254.291 Q2518.38 254.176 2518.9 253.881 Q2519.45 253.57 2519.92 253.111 Q2520.41 252.635 2520.89 251.832 Q2521.36 251.028 2521.68 249.995 Q2521.77 249.635 2522.1 249.635 Q2522.51 249.635 2522.51 249.963 Q2522.51 250.241 2522.28 250.832 Q2522.07 251.405 2521.59 252.16 Q2521.13 252.897 2520.53 253.57 Q2519.92 254.225 2519.02 254.685 Q2518.12 255.144 2517.13 255.144 Q2515.72 255.144 2514.79 254.389 Q2513.85 253.635 2513.51 252.586 Q2513.43 252.733 2513.31 252.93 Q2513.2 253.127 2512.85 253.57 Q2512.53 253.996 2512.15 254.324 Q2511.77 254.635 2511.18 254.881 Q2510.61 255.144 2509.99 255.144 Q2509.2 255.144 2508.49 254.914 Q2507.8 254.685 2507.31 254.16 Q2506.82 253.635 2506.82 252.914 Q2506.82 252.11 2507.36 251.553 Q2507.92 250.979 2508.67 250.979 Q2509.15 250.979 2509.53 251.258 Q2509.92 251.537 2509.92 252.143 Q2509.92 252.815 2509.46 253.324 Q2509 253.832 2508.35 253.963 Q2509.02 254.389 2510.02 254.389 Q2511.1 254.389 2511.95 253.438 Q2512.81 252.488 2513.21 250.897 Q2514.23 247.077 2514.62 245.372 Q2515.02 243.65 2515.02 242.912 Q2515.02 242.224 2514.84 241.748 Q2514.66 241.273 2514.35 241.06 Q2514.05 240.83 2513.77 240.748 Q2513.51 240.666 2513.21 240.666 Q2512.72 240.666 2512.17 240.863 Q2511.62 241.06 2510.97 241.519 Q2510.33 241.961 2509.72 242.88 Q2509.12 243.798 2508.71 245.06 Q2508.62 245.437 2508.26 245.437 Q2507.87 245.421 2507.87 245.093 Q2507.87 244.814 2508.08 244.24 Q2508.31 243.65 2508.77 242.912 Q2509.25 242.175 2509.85 241.519 Q2510.48 240.847 2511.38 240.387 Q2512.3 239.928 2513.28 239.928 Q2513.72 239.928 2514.15 240.027 Q2514.59 240.109 2515.12 240.355 Q2515.66 240.601 2516.13 241.142 Q2516.61 241.683 2516.9 242.47 Q2517.1 242.093 2517.36 241.732 Q2517.64 241.371 2518.07 240.929 Q2518.51 240.469 2519.12 240.207 Q2519.74 239.928 2520.43 239.928 Q2521.1 239.928 2521.76 240.109 Q2522.41 240.273 2522.97 240.814 Q2523.54 241.338 2523.54 242.142 Z" fill="#000000" fill-rule="evenodd" fill-opacity="1" /><polyline clip-path="url(#clip940)" style="stroke:#c271d2; stroke-linecap:round; stroke-linejoin:round; stroke-width:4; stroke-opacity:1; fill:none" points="
  2286.29,313.055 2454.67,313.055 
  "/>
<path clip-path="url(#clip940)" d="M2482.73 334.204 Q2482.73 333.337 2482.8 333.08 Q2482.89 332.822 2483.27 332.424 L2492.47 322.165 Q2497.51 316.497 2497.51 311.555 Q2497.51 308.346 2495.82 306.05 Q2494.16 303.755 2491.09 303.755 Q2488.98 303.755 2487.2 305.043 Q2485.42 306.331 2484.6 308.627 Q2484.74 308.58 2485.24 308.58 Q2486.43 308.58 2487.09 309.329 Q2487.77 310.079 2487.77 311.086 Q2487.77 312.374 2486.92 313.007 Q2486.1 313.616 2485.28 313.616 Q2484.96 313.616 2484.51 313.545 Q2484.09 313.475 2483.41 312.819 Q2482.73 312.14 2482.73 310.946 Q2482.73 307.596 2485.26 304.926 Q2487.81 302.256 2491.7 302.256 Q2496.1 302.256 2498.99 304.879 Q2501.89 307.479 2501.89 311.555 Q2501.89 312.983 2501.45 314.295 Q2501.02 315.583 2500.44 316.59 Q2499.88 317.598 2498.33 319.214 Q2496.78 320.83 2495.54 321.978 Q2494.3 323.125 2491.51 325.561 L2486.43 330.503 L2495.07 330.503 Q2499.29 330.503 2499.62 330.129 Q2500.09 329.449 2500.67 325.866 L2501.89 325.866 L2500.53 334.204 L2482.73 334.204 Z" fill="#000000" fill-rule="evenodd" fill-opacity="1" /><path clip-path="url(#clip940)" d="M2523.54 293.982 Q2523.54 294.9 2522.97 295.425 Q2522.4 295.933 2521.74 295.933 Q2521.12 295.933 2520.79 295.572 Q2520.46 295.211 2520.46 294.752 Q2520.46 294.129 2520.92 293.588 Q2521.38 293.047 2522.07 292.932 Q2521.4 292.506 2520.4 292.506 Q2519.74 292.506 2519.17 292.851 Q2518.61 293.195 2518.26 293.638 Q2517.94 294.08 2517.64 294.72 Q2517.36 295.343 2517.25 295.72 Q2517.15 296.08 2517.07 296.474 L2515.92 301.065 Q2515.36 303.245 2515.36 304.016 Q2515.36 304.967 2515.82 305.606 Q2516.28 306.229 2517.2 306.229 Q2517.56 306.229 2517.97 306.131 Q2518.38 306.016 2518.9 305.721 Q2519.45 305.41 2519.92 304.951 Q2520.41 304.475 2520.89 303.672 Q2521.36 302.868 2521.68 301.835 Q2521.77 301.475 2522.1 301.475 Q2522.51 301.475 2522.51 301.803 Q2522.51 302.081 2522.28 302.672 Q2522.07 303.245 2521.59 304 Q2521.13 304.737 2520.53 305.41 Q2519.92 306.065 2519.02 306.525 Q2518.12 306.984 2517.13 306.984 Q2515.72 306.984 2514.79 306.229 Q2513.85 305.475 2513.51 304.426 Q2513.43 304.573 2513.31 304.77 Q2513.2 304.967 2512.85 305.41 Q2512.53 305.836 2512.15 306.164 Q2511.77 306.475 2511.18 306.721 Q2510.61 306.984 2509.99 306.984 Q2509.2 306.984 2508.49 306.754 Q2507.8 306.525 2507.31 306 Q2506.82 305.475 2506.82 304.754 Q2506.82 303.95 2507.36 303.393 Q2507.92 302.819 2508.67 302.819 Q2509.15 302.819 2509.53 303.098 Q2509.92 303.377 2509.92 303.983 Q2509.92 304.655 2509.46 305.164 Q2509 305.672 2508.35 305.803 Q2509.02 306.229 2510.02 306.229 Q2511.1 306.229 2511.95 305.278 Q2512.81 304.328 2513.21 302.737 Q2514.23 298.917 2514.62 297.212 Q2515.02 295.49 2515.02 294.752 Q2515.02 294.064 2514.84 293.588 Q2514.66 293.113 2514.35 292.9 Q2514.05 292.67 2513.77 292.588 Q2513.51 292.506 2513.21 292.506 Q2512.72 292.506 2512.17 292.703 Q2511.62 292.9 2510.97 293.359 Q2510.33 293.801 2509.72 294.72 Q2509.12 295.638 2508.71 296.9 Q2508.62 297.277 2508.26 297.277 Q2507.87 297.261 2507.87 296.933 Q2507.87 296.654 2508.08 296.08 Q2508.31 295.49 2508.77 294.752 Q2509.25 294.015 2509.85 293.359 Q2510.48 292.687 2511.38 292.227 Q2512.3 291.768 2513.28 291.768 Q2513.72 291.768 2514.15 291.867 Q2514.59 291.949 2515.12 292.195 Q2515.66 292.441 2516.13 292.982 Q2516.61 293.523 2516.9 294.31 Q2517.1 293.933 2517.36 293.572 Q2517.64 293.211 2518.07 292.769 Q2518.51 292.309 2519.12 292.047 Q2519.74 291.768 2520.43 291.768 Q2521.1 291.768 2521.76 291.949 Q2522.41 292.113 2522.97 292.654 Q2523.54 293.178 2523.54 293.982 Z" fill="#000000" fill-rule="evenodd" fill-opacity="1" /></svg>
