<?xml version="1.0" encoding="utf-8"?>
<svg xmlns="http://www.w3.org/2000/svg" xmlns:xlink="http://www.w3.org/1999/xlink" width="672" height="480" viewBox="0 0 2688 1920">
<defs>
  <clipPath id="clip630">
    <rect x="0" y="0" width="2688" height="1920"/>
  </clipPath>
</defs>
<path clip-path="url(#clip630)" d="
M0 1920 L2688 1920 L2688 0 L0 0  Z
  " fill="#ffffff" fill-rule="evenodd" fill-opacity="1"/>
<defs>
  <clipPath id="clip631">
    <rect x="537" y="0" width="1883" height="1883"/>
  </clipPath>
</defs>
<defs>
  <clipPath id="clip632">
    <rect x="152" y="190" width="2490" height="1468"/>
  </clipPath>
</defs>
<path clip-path="url(#clip630)" d="
M152.071 1657.7 L2640.76 1657.7 L2640.76 190.319 L152.071 190.319  Z
  " fill="#ffffff" fill-rule="evenodd" fill-opacity="1"/>
<polyline clip-path="url(#clip632)" style="stroke:#000000; stroke-linecap:round; stroke-linejoin:round; stroke-width:2; stroke-opacity:0.1; fill:none" points="
  222.505,1657.7 222.505,190.319 
  "/>
<polyline clip-path="url(#clip632)" style="stroke:#000000; stroke-linecap:round; stroke-linejoin:round; stroke-width:2; stroke-opacity:0.1; fill:none" points="
  369.244,1657.7 369.244,190.319 
  "/>
<polyline clip-path="url(#clip632)" style="stroke:#000000; stroke-linecap:round; stroke-linejoin:round; stroke-width:2; stroke-opacity:0.1; fill:none" points="
  515.982,1657.7 515.982,190.319 
  "/>
<polyline clip-path="url(#clip632)" style="stroke:#000000; stroke-linecap:round; stroke-linejoin:round; stroke-width:2; stroke-opacity:0.1; fill:none" points="
  662.721,1657.7 662.721,190.319 
  "/>
<polyline clip-path="url(#clip632)" style="stroke:#000000; stroke-linecap:round; stroke-linejoin:round; stroke-width:2; stroke-opacity:0.1; fill:none" points="
  809.459,1657.7 809.459,190.319 
  "/>
<polyline clip-path="url(#clip632)" style="stroke:#000000; stroke-linecap:round; stroke-linejoin:round; stroke-width:2; stroke-opacity:0.1; fill:none" points="
  956.198,1657.7 956.198,190.319 
  "/>
<polyline clip-path="url(#clip632)" style="stroke:#000000; stroke-linecap:round; stroke-linejoin:round; stroke-width:2; stroke-opacity:0.1; fill:none" points="
  1102.94,1657.7 1102.94,190.319 
  "/>
<polyline clip-path="url(#clip632)" style="stroke:#000000; stroke-linecap:round; stroke-linejoin:round; stroke-width:2; stroke-opacity:0.1; fill:none" points="
  1249.67,1657.7 1249.67,190.319 
  "/>
<polyline clip-path="url(#clip632)" style="stroke:#000000; stroke-linecap:round; stroke-linejoin:round; stroke-width:2; stroke-opacity:0.1; fill:none" points="
  1396.41,1657.7 1396.41,190.319 
  "/>
<polyline clip-path="url(#clip632)" style="stroke:#000000; stroke-linecap:round; stroke-linejoin:round; stroke-width:2; stroke-opacity:0.1; fill:none" points="
  1543.15,1657.7 1543.15,190.319 
  "/>
<polyline clip-path="url(#clip632)" style="stroke:#000000; stroke-linecap:round; stroke-linejoin:round; stroke-width:2; stroke-opacity:0.1; fill:none" points="
  1689.89,1657.7 1689.89,190.319 
  "/>
<polyline clip-path="url(#clip632)" style="stroke:#000000; stroke-linecap:round; stroke-linejoin:round; stroke-width:2; stroke-opacity:0.1; fill:none" points="
  1836.63,1657.7 1836.63,190.319 
  "/>
<polyline clip-path="url(#clip632)" style="stroke:#000000; stroke-linecap:round; stroke-linejoin:round; stroke-width:2; stroke-opacity:0.1; fill:none" points="
  1983.37,1657.7 1983.37,190.319 
  "/>
<polyline clip-path="url(#clip632)" style="stroke:#000000; stroke-linecap:round; stroke-linejoin:round; stroke-width:2; stroke-opacity:0.1; fill:none" points="
  2130.11,1657.7 2130.11,190.319 
  "/>
<polyline clip-path="url(#clip632)" style="stroke:#000000; stroke-linecap:round; stroke-linejoin:round; stroke-width:2; stroke-opacity:0.1; fill:none" points="
  2276.84,1657.7 2276.84,190.319 
  "/>
<polyline clip-path="url(#clip632)" style="stroke:#000000; stroke-linecap:round; stroke-linejoin:round; stroke-width:2; stroke-opacity:0.1; fill:none" points="
  2423.58,1657.7 2423.58,190.319 
  "/>
<polyline clip-path="url(#clip632)" style="stroke:#000000; stroke-linecap:round; stroke-linejoin:round; stroke-width:2; stroke-opacity:0.1; fill:none" points="
  2570.32,1657.7 2570.32,190.319 
  "/>
<polyline clip-path="url(#clip630)" style="stroke:#000000; stroke-linecap:round; stroke-linejoin:round; stroke-width:4; stroke-opacity:1; fill:none" points="
  152.071,1657.7 2640.76,1657.7 
  "/>
<polyline clip-path="url(#clip630)" style="stroke:#000000; stroke-linecap:round; stroke-linejoin:round; stroke-width:4; stroke-opacity:1; fill:none" points="
  222.505,1657.7 222.505,1641.89 
  "/>
<polyline clip-path="url(#clip630)" style="stroke:#000000; stroke-linecap:round; stroke-linejoin:round; stroke-width:4; stroke-opacity:1; fill:none" points="
  369.244,1657.7 369.244,1641.89 
  "/>
<polyline clip-path="url(#clip630)" style="stroke:#000000; stroke-linecap:round; stroke-linejoin:round; stroke-width:4; stroke-opacity:1; fill:none" points="
  515.982,1657.7 515.982,1641.89 
  "/>
<polyline clip-path="url(#clip630)" style="stroke:#000000; stroke-linecap:round; stroke-linejoin:round; stroke-width:4; stroke-opacity:1; fill:none" points="
  662.721,1657.7 662.721,1641.89 
  "/>
<polyline clip-path="url(#clip630)" style="stroke:#000000; stroke-linecap:round; stroke-linejoin:round; stroke-width:4; stroke-opacity:1; fill:none" points="
  809.459,1657.7 809.459,1641.89 
  "/>
<polyline clip-path="url(#clip630)" style="stroke:#000000; stroke-linecap:round; stroke-linejoin:round; stroke-width:4; stroke-opacity:1; fill:none" points="
  956.198,1657.7 956.198,1641.89 
  "/>
<polyline clip-path="url(#clip630)" style="stroke:#000000; stroke-linecap:round; stroke-linejoin:round; stroke-width:4; stroke-opacity:1; fill:none" points="
  1102.94,1657.7 1102.94,1641.89 
  "/>
<polyline clip-path="url(#clip630)" style="stroke:#000000; stroke-linecap:round; stroke-linejoin:round; stroke-width:4; stroke-opacity:1; fill:none" points="
  1249.67,1657.7 1249.67,1641.89 
  "/>
<polyline clip-path="url(#clip630)" style="stroke:#000000; stroke-linecap:round; stroke-linejoin:round; stroke-width:4; stroke-opacity:1; fill:none" points="
  1396.41,1657.7 1396.41,1641.89 
  "/>
<polyline clip-path="url(#clip630)" style="stroke:#000000; stroke-linecap:round; stroke-linejoin:round; stroke-width:4; stroke-opacity:1; fill:none" points="
  1543.15,1657.7 1543.15,1641.89 
  "/>
<polyline clip-path="url(#clip630)" style="stroke:#000000; stroke-linecap:round; stroke-linejoin:round; stroke-width:4; stroke-opacity:1; fill:none" points="
  1689.89,1657.7 1689.89,1641.89 
  "/>
<polyline clip-path="url(#clip630)" style="stroke:#000000; stroke-linecap:round; stroke-linejoin:round; stroke-width:4; stroke-opacity:1; fill:none" points="
  1836.63,1657.7 1836.63,1641.89 
  "/>
<polyline clip-path="url(#clip630)" style="stroke:#000000; stroke-linecap:round; stroke-linejoin:round; stroke-width:4; stroke-opacity:1; fill:none" points="
  1983.37,1657.7 1983.37,1641.89 
  "/>
<polyline clip-path="url(#clip630)" style="stroke:#000000; stroke-linecap:round; stroke-linejoin:round; stroke-width:4; stroke-opacity:1; fill:none" points="
  2130.11,1657.7 2130.11,1641.89 
  "/>
<polyline clip-path="url(#clip630)" style="stroke:#000000; stroke-linecap:round; stroke-linejoin:round; stroke-width:4; stroke-opacity:1; fill:none" points="
  2276.84,1657.7 2276.84,1641.89 
  "/>
<polyline clip-path="url(#clip630)" style="stroke:#000000; stroke-linecap:round; stroke-linejoin:round; stroke-width:4; stroke-opacity:1; fill:none" points="
  2423.58,1657.7 2423.58,1641.89 
  "/>
<polyline clip-path="url(#clip630)" style="stroke:#000000; stroke-linecap:round; stroke-linejoin:round; stroke-width:4; stroke-opacity:1; fill:none" points="
  2570.32,1657.7 2570.32,1641.89 
  "/>
<path clip-path="url(#clip630)" d="M191.695 1705.58 L221.371 1705.58 L221.371 1709.51 L191.695 1709.51 L191.695 1705.58 Z" fill="#000000" fill-rule="evenodd" fill-opacity="1" /><path clip-path="url(#clip630)" d="M241.464 1706 Q238.13 1706 236.209 1707.78 Q234.311 1709.56 234.311 1712.69 Q234.311 1715.81 236.209 1717.59 Q238.13 1719.38 241.464 1719.38 Q244.797 1719.38 246.718 1717.59 Q248.639 1715.79 248.639 1712.69 Q248.639 1709.56 246.718 1707.78 Q244.82 1706 241.464 1706 M236.788 1704.01 Q233.778 1703.26 232.089 1701.2 Q230.422 1699.14 230.422 1696.18 Q230.422 1692.04 233.362 1689.63 Q236.325 1687.22 241.464 1687.22 Q246.626 1687.22 249.565 1689.63 Q252.505 1692.04 252.505 1696.18 Q252.505 1699.14 250.815 1701.2 Q249.149 1703.26 246.163 1704.01 Q249.542 1704.79 251.417 1707.08 Q253.315 1709.38 253.315 1712.69 Q253.315 1717.71 250.237 1720.39 Q247.181 1723.08 241.464 1723.08 Q235.746 1723.08 232.667 1720.39 Q229.612 1717.71 229.612 1712.69 Q229.612 1709.38 231.51 1707.08 Q233.408 1704.79 236.788 1704.01 M235.075 1696.62 Q235.075 1699.31 236.741 1700.81 Q238.431 1702.32 241.464 1702.32 Q244.473 1702.32 246.163 1700.81 Q247.876 1699.31 247.876 1696.62 Q247.876 1693.94 246.163 1692.43 Q244.473 1690.93 241.464 1690.93 Q238.431 1690.93 236.741 1692.43 Q235.075 1693.94 235.075 1696.62 Z" fill="#000000" fill-rule="evenodd" fill-opacity="1" /><path clip-path="url(#clip630)" d="M338.839 1705.58 L368.515 1705.58 L368.515 1709.51 L338.839 1709.51 L338.839 1705.58 Z" fill="#000000" fill-rule="evenodd" fill-opacity="1" /><path clip-path="url(#clip630)" d="M377.427 1687.85 L399.649 1687.85 L399.649 1689.84 L387.103 1722.41 L382.218 1722.41 L394.024 1691.78 L377.427 1691.78 L377.427 1687.85 Z" fill="#000000" fill-rule="evenodd" fill-opacity="1" /><path clip-path="url(#clip630)" d="M485.045 1705.58 L514.721 1705.58 L514.721 1709.51 L485.045 1709.51 L485.045 1705.58 Z" fill="#000000" fill-rule="evenodd" fill-opacity="1" /><path clip-path="url(#clip630)" d="M535.392 1703.26 Q532.244 1703.26 530.392 1705.42 Q528.563 1707.57 528.563 1711.32 Q528.563 1715.05 530.392 1717.22 Q532.244 1719.38 535.392 1719.38 Q538.54 1719.38 540.369 1717.22 Q542.221 1715.05 542.221 1711.32 Q542.221 1707.57 540.369 1705.42 Q538.54 1703.26 535.392 1703.26 M544.674 1688.61 L544.674 1692.87 Q542.915 1692.04 541.11 1691.6 Q539.327 1691.16 537.568 1691.16 Q532.938 1691.16 530.485 1694.28 Q528.054 1697.41 527.707 1703.73 Q529.073 1701.71 531.133 1700.65 Q533.193 1699.56 535.67 1699.56 Q540.878 1699.56 543.887 1702.73 Q546.92 1705.88 546.92 1711.32 Q546.92 1716.64 543.772 1719.86 Q540.623 1723.08 535.392 1723.08 Q529.397 1723.08 526.225 1718.5 Q523.054 1713.89 523.054 1705.16 Q523.054 1696.97 526.943 1692.11 Q530.832 1687.22 537.383 1687.22 Q539.142 1687.22 540.924 1687.57 Q542.73 1687.92 544.674 1688.61 Z" fill="#000000" fill-rule="evenodd" fill-opacity="1" /><path clip-path="url(#clip630)" d="M632.362 1705.58 L662.038 1705.58 L662.038 1709.51 L632.362 1709.51 L632.362 1705.58 Z" fill="#000000" fill-rule="evenodd" fill-opacity="1" /><path clip-path="url(#clip630)" d="M672.177 1687.85 L690.533 1687.85 L690.533 1691.78 L676.459 1691.78 L676.459 1700.26 Q677.478 1699.91 678.496 1699.75 Q679.515 1699.56 680.533 1699.56 Q686.32 1699.56 689.7 1702.73 Q693.079 1705.9 693.079 1711.32 Q693.079 1716.9 689.607 1720 Q686.135 1723.08 679.816 1723.08 Q677.64 1723.08 675.371 1722.71 Q673.126 1722.34 670.719 1721.6 L670.719 1716.9 Q672.802 1718.03 675.024 1718.59 Q677.246 1719.14 679.723 1719.14 Q683.728 1719.14 686.066 1717.04 Q688.404 1714.93 688.404 1711.32 Q688.404 1707.71 686.066 1705.6 Q683.728 1703.5 679.723 1703.5 Q677.848 1703.5 675.973 1703.91 Q674.121 1704.33 672.177 1705.21 L672.177 1687.85 Z" fill="#000000" fill-rule="evenodd" fill-opacity="1" /><path clip-path="url(#clip630)" d="M778.36 1705.58 L808.036 1705.58 L808.036 1709.51 L778.36 1709.51 L778.36 1705.58 Z" fill="#000000" fill-rule="evenodd" fill-opacity="1" /><path clip-path="url(#clip630)" d="M830.975 1691.92 L819.17 1710.37 L830.975 1710.37 L830.975 1691.92 M829.749 1687.85 L835.628 1687.85 L835.628 1710.37 L840.559 1710.37 L840.559 1714.26 L835.628 1714.26 L835.628 1722.41 L830.975 1722.41 L830.975 1714.26 L815.374 1714.26 L815.374 1709.75 L829.749 1687.85 Z" fill="#000000" fill-rule="evenodd" fill-opacity="1" /><path clip-path="url(#clip630)" d="M925.666 1705.58 L955.341 1705.58 L955.341 1709.51 L925.666 1709.51 L925.666 1705.58 Z" fill="#000000" fill-rule="evenodd" fill-opacity="1" /><path clip-path="url(#clip630)" d="M979.601 1703.77 Q982.957 1704.49 984.832 1706.76 Q986.73 1709.03 986.73 1712.36 Q986.73 1717.48 983.212 1720.28 Q979.693 1723.08 973.212 1723.08 Q971.036 1723.08 968.721 1722.64 Q966.429 1722.22 963.976 1721.37 L963.976 1716.85 Q965.92 1717.99 968.235 1718.57 Q970.55 1719.14 973.073 1719.14 Q977.471 1719.14 979.763 1717.41 Q982.077 1715.67 982.077 1712.36 Q982.077 1709.31 979.925 1707.59 Q977.795 1705.86 973.976 1705.86 L969.948 1705.86 L969.948 1702.01 L974.161 1702.01 Q977.61 1702.01 979.438 1700.65 Q981.267 1699.26 981.267 1696.67 Q981.267 1694.01 979.369 1692.59 Q977.494 1691.16 973.976 1691.16 Q972.054 1691.16 969.855 1691.58 Q967.656 1691.99 965.017 1692.87 L965.017 1688.7 Q967.679 1687.96 969.994 1687.59 Q972.332 1687.22 974.392 1687.22 Q979.716 1687.22 982.818 1689.65 Q985.92 1692.06 985.92 1696.18 Q985.92 1699.05 984.276 1701.04 Q982.633 1703.01 979.601 1703.77 Z" fill="#000000" fill-rule="evenodd" fill-opacity="1" /><path clip-path="url(#clip630)" d="M1072.88 1705.58 L1102.55 1705.58 L1102.55 1709.51 L1072.88 1709.51 L1072.88 1705.58 Z" fill="#000000" fill-rule="evenodd" fill-opacity="1" /><path clip-path="url(#clip630)" d="M1116.67 1718.47 L1132.99 1718.47 L1132.99 1722.41 L1111.05 1722.41 L1111.05 1718.47 Q1113.71 1715.72 1118.3 1711.09 Q1122.9 1706.44 1124.08 1705.09 Q1126.33 1702.57 1127.21 1700.83 Q1128.11 1699.08 1128.11 1697.39 Q1128.11 1694.63 1126.17 1692.89 Q1124.24 1691.16 1121.14 1691.16 Q1118.94 1691.16 1116.49 1691.92 Q1114.06 1692.69 1111.28 1694.24 L1111.28 1689.51 Q1114.11 1688.38 1116.56 1687.8 Q1119.01 1687.22 1121.05 1687.22 Q1126.42 1687.22 1129.61 1689.91 Q1132.81 1692.59 1132.81 1697.08 Q1132.81 1699.21 1132 1701.14 Q1131.21 1703.03 1129.11 1705.63 Q1128.53 1706.3 1125.42 1709.51 Q1122.32 1712.71 1116.67 1718.47 Z" fill="#000000" fill-rule="evenodd" fill-opacity="1" /><path clip-path="url(#clip630)" d="M1219.43 1705.58 L1249.11 1705.58 L1249.11 1709.51 L1219.43 1709.51 L1219.43 1705.58 Z" fill="#000000" fill-rule="evenodd" fill-opacity="1" /><path clip-path="url(#clip630)" d="M1260.01 1718.47 L1267.65 1718.47 L1267.65 1692.11 L1259.34 1693.77 L1259.34 1689.51 L1267.6 1687.85 L1272.28 1687.85 L1272.28 1718.47 L1279.92 1718.47 L1279.92 1722.41 L1260.01 1722.41 L1260.01 1718.47 Z" fill="#000000" fill-rule="evenodd" fill-opacity="1" /><path clip-path="url(#clip630)" d="M1396.41 1690.93 Q1392.8 1690.93 1390.97 1694.49 Q1389.17 1698.03 1389.17 1705.16 Q1389.17 1712.27 1390.97 1715.83 Q1392.8 1719.38 1396.41 1719.38 Q1400.05 1719.38 1401.85 1715.83 Q1403.68 1712.27 1403.68 1705.16 Q1403.68 1698.03 1401.85 1694.49 Q1400.05 1690.93 1396.41 1690.93 M1396.41 1687.22 Q1402.22 1687.22 1405.28 1691.83 Q1408.36 1696.41 1408.36 1705.16 Q1408.36 1713.89 1405.28 1718.5 Q1402.22 1723.08 1396.41 1723.08 Q1390.6 1723.08 1387.52 1718.5 Q1384.47 1713.89 1384.47 1705.16 Q1384.47 1696.41 1387.52 1691.83 Q1390.6 1687.22 1396.41 1687.22 Z" fill="#000000" fill-rule="evenodd" fill-opacity="1" /><path clip-path="url(#clip630)" d="M1533.53 1718.47 L1541.17 1718.47 L1541.17 1692.11 L1532.86 1693.77 L1532.86 1689.51 L1541.13 1687.85 L1545.8 1687.85 L1545.8 1718.47 L1553.44 1718.47 L1553.44 1722.41 L1533.53 1722.41 L1533.53 1718.47 Z" fill="#000000" fill-rule="evenodd" fill-opacity="1" /><path clip-path="url(#clip630)" d="M1684.54 1718.47 L1700.86 1718.47 L1700.86 1722.41 L1678.92 1722.41 L1678.92 1718.47 Q1681.58 1715.72 1686.16 1711.09 Q1690.77 1706.44 1691.95 1705.09 Q1694.2 1702.57 1695.08 1700.83 Q1695.98 1699.08 1695.98 1697.39 Q1695.98 1694.63 1694.03 1692.89 Q1692.11 1691.16 1689.01 1691.16 Q1686.81 1691.16 1684.36 1691.92 Q1681.93 1692.69 1679.15 1694.24 L1679.15 1689.51 Q1681.97 1688.38 1684.43 1687.8 Q1686.88 1687.22 1688.92 1687.22 Q1694.29 1687.22 1697.48 1689.91 Q1700.68 1692.59 1700.68 1697.08 Q1700.68 1699.21 1699.87 1701.14 Q1699.08 1703.03 1696.97 1705.63 Q1696.39 1706.3 1693.29 1709.51 Q1690.19 1712.71 1684.54 1718.47 Z" fill="#000000" fill-rule="evenodd" fill-opacity="1" /><path clip-path="url(#clip630)" d="M1840.88 1703.77 Q1844.23 1704.49 1846.11 1706.76 Q1848.01 1709.03 1848.01 1712.36 Q1848.01 1717.48 1844.49 1720.28 Q1840.97 1723.08 1834.49 1723.08 Q1832.31 1723.08 1830 1722.64 Q1827.71 1722.22 1825.25 1721.37 L1825.25 1716.85 Q1827.2 1717.99 1829.51 1718.57 Q1831.83 1719.14 1834.35 1719.14 Q1838.75 1719.14 1841.04 1717.41 Q1843.35 1715.67 1843.35 1712.36 Q1843.35 1709.31 1841.2 1707.59 Q1839.07 1705.86 1835.25 1705.86 L1831.22 1705.86 L1831.22 1702.01 L1835.44 1702.01 Q1838.89 1702.01 1840.71 1700.65 Q1842.54 1699.26 1842.54 1696.67 Q1842.54 1694.01 1840.65 1692.59 Q1838.77 1691.16 1835.25 1691.16 Q1833.33 1691.16 1831.13 1691.58 Q1828.93 1691.99 1826.29 1692.87 L1826.29 1688.7 Q1828.96 1687.96 1831.27 1687.59 Q1833.61 1687.22 1835.67 1687.22 Q1840.99 1687.22 1844.09 1689.65 Q1847.2 1692.06 1847.2 1696.18 Q1847.2 1699.05 1845.55 1701.04 Q1843.91 1703.01 1840.88 1703.77 Z" fill="#000000" fill-rule="evenodd" fill-opacity="1" /><path clip-path="url(#clip630)" d="M1986.38 1691.92 L1974.57 1710.37 L1986.38 1710.37 L1986.38 1691.92 M1985.15 1687.85 L1991.03 1687.85 L1991.03 1710.37 L1995.96 1710.37 L1995.96 1714.26 L1991.03 1714.26 L1991.03 1722.41 L1986.38 1722.41 L1986.38 1714.26 L1970.77 1714.26 L1970.77 1709.75 L1985.15 1687.85 Z" fill="#000000" fill-rule="evenodd" fill-opacity="1" /><path clip-path="url(#clip630)" d="M2120.38 1687.85 L2138.74 1687.85 L2138.74 1691.78 L2124.67 1691.78 L2124.67 1700.26 Q2125.68 1699.91 2126.7 1699.75 Q2127.72 1699.56 2128.74 1699.56 Q2134.53 1699.56 2137.91 1702.73 Q2141.29 1705.9 2141.29 1711.32 Q2141.29 1716.9 2137.81 1720 Q2134.34 1723.08 2128.02 1723.08 Q2125.85 1723.08 2123.58 1722.71 Q2121.33 1722.34 2118.93 1721.6 L2118.93 1716.9 Q2121.01 1718.03 2123.23 1718.59 Q2125.45 1719.14 2127.93 1719.14 Q2131.93 1719.14 2134.27 1717.04 Q2136.61 1714.93 2136.61 1711.32 Q2136.61 1707.71 2134.27 1705.6 Q2131.93 1703.5 2127.93 1703.5 Q2126.06 1703.5 2124.18 1703.91 Q2122.33 1704.33 2120.38 1705.21 L2120.38 1687.85 Z" fill="#000000" fill-rule="evenodd" fill-opacity="1" /><path clip-path="url(#clip630)" d="M2277.25 1703.26 Q2274.1 1703.26 2272.25 1705.42 Q2270.42 1707.57 2270.42 1711.32 Q2270.42 1715.05 2272.25 1717.22 Q2274.1 1719.38 2277.25 1719.38 Q2280.4 1719.38 2282.23 1717.22 Q2284.08 1715.05 2284.08 1711.32 Q2284.08 1707.57 2282.23 1705.42 Q2280.4 1703.26 2277.25 1703.26 M2286.53 1688.61 L2286.53 1692.87 Q2284.77 1692.04 2282.97 1691.6 Q2281.18 1691.16 2279.43 1691.16 Q2274.8 1691.16 2272.34 1694.28 Q2269.91 1697.41 2269.56 1703.73 Q2270.93 1701.71 2272.99 1700.65 Q2275.05 1699.56 2277.53 1699.56 Q2282.74 1699.56 2285.74 1702.73 Q2288.78 1705.88 2288.78 1711.32 Q2288.78 1716.64 2285.63 1719.86 Q2282.48 1723.08 2277.25 1723.08 Q2271.25 1723.08 2268.08 1718.5 Q2264.91 1713.89 2264.91 1705.16 Q2264.91 1696.97 2268.8 1692.11 Q2272.69 1687.22 2279.24 1687.22 Q2281 1687.22 2282.78 1687.57 Q2284.59 1687.92 2286.53 1688.61 Z" fill="#000000" fill-rule="evenodd" fill-opacity="1" /><path clip-path="url(#clip630)" d="M2412.47 1687.85 L2434.69 1687.85 L2434.69 1689.84 L2422.15 1722.41 L2417.26 1722.41 L2429.07 1691.78 L2412.47 1691.78 L2412.47 1687.85 Z" fill="#000000" fill-rule="evenodd" fill-opacity="1" /><path clip-path="url(#clip630)" d="M2570.32 1706 Q2566.99 1706 2565.07 1707.78 Q2563.17 1709.56 2563.17 1712.69 Q2563.17 1715.81 2565.07 1717.59 Q2566.99 1719.38 2570.32 1719.38 Q2573.65 1719.38 2575.58 1717.59 Q2577.5 1715.79 2577.5 1712.69 Q2577.5 1709.56 2575.58 1707.78 Q2573.68 1706 2570.32 1706 M2565.65 1704.01 Q2562.64 1703.26 2560.95 1701.2 Q2559.28 1699.14 2559.28 1696.18 Q2559.28 1692.04 2562.22 1689.63 Q2565.18 1687.22 2570.32 1687.22 Q2575.48 1687.22 2578.42 1689.63 Q2581.36 1692.04 2581.36 1696.18 Q2581.36 1699.14 2579.67 1701.2 Q2578.01 1703.26 2575.02 1704.01 Q2578.4 1704.79 2580.28 1707.08 Q2582.17 1709.38 2582.17 1712.69 Q2582.17 1717.71 2579.09 1720.39 Q2576.04 1723.08 2570.32 1723.08 Q2564.6 1723.08 2561.53 1720.39 Q2558.47 1717.71 2558.47 1712.69 Q2558.47 1709.38 2560.37 1707.08 Q2562.27 1704.79 2565.65 1704.01 M2563.93 1696.62 Q2563.93 1699.31 2565.6 1700.81 Q2567.29 1702.32 2570.32 1702.32 Q2573.33 1702.32 2575.02 1700.81 Q2576.73 1699.31 2576.73 1696.62 Q2576.73 1693.94 2575.02 1692.43 Q2573.33 1690.93 2570.32 1690.93 Q2567.29 1690.93 2565.6 1692.43 Q2563.93 1693.94 2563.93 1696.62 Z" fill="#000000" fill-rule="evenodd" fill-opacity="1" /><polyline clip-path="url(#clip632)" style="stroke:#000000; stroke-linecap:round; stroke-linejoin:round; stroke-width:2; stroke-opacity:0.1; fill:none" points="
  152.071,1657.7 2640.76,1657.7 
  "/>
<polyline clip-path="url(#clip632)" style="stroke:#000000; stroke-linecap:round; stroke-linejoin:round; stroke-width:2; stroke-opacity:0.1; fill:none" points="
  152.071,1510.97 2640.76,1510.97 
  "/>
<polyline clip-path="url(#clip632)" style="stroke:#000000; stroke-linecap:round; stroke-linejoin:round; stroke-width:2; stroke-opacity:0.1; fill:none" points="
  152.071,1364.23 2640.76,1364.23 
  "/>
<polyline clip-path="url(#clip632)" style="stroke:#000000; stroke-linecap:round; stroke-linejoin:round; stroke-width:2; stroke-opacity:0.1; fill:none" points="
  152.071,1217.49 2640.76,1217.49 
  "/>
<polyline clip-path="url(#clip632)" style="stroke:#000000; stroke-linecap:round; stroke-linejoin:round; stroke-width:2; stroke-opacity:0.1; fill:none" points="
  152.071,1070.75 2640.76,1070.75 
  "/>
<polyline clip-path="url(#clip632)" style="stroke:#000000; stroke-linecap:round; stroke-linejoin:round; stroke-width:2; stroke-opacity:0.1; fill:none" points="
  152.071,924.012 2640.76,924.012 
  "/>
<polyline clip-path="url(#clip632)" style="stroke:#000000; stroke-linecap:round; stroke-linejoin:round; stroke-width:2; stroke-opacity:0.1; fill:none" points="
  152.071,777.273 2640.76,777.273 
  "/>
<polyline clip-path="url(#clip632)" style="stroke:#000000; stroke-linecap:round; stroke-linejoin:round; stroke-width:2; stroke-opacity:0.1; fill:none" points="
  152.071,630.535 2640.76,630.535 
  "/>
<polyline clip-path="url(#clip632)" style="stroke:#000000; stroke-linecap:round; stroke-linejoin:round; stroke-width:2; stroke-opacity:0.1; fill:none" points="
  152.071,483.796 2640.76,483.796 
  "/>
<polyline clip-path="url(#clip632)" style="stroke:#000000; stroke-linecap:round; stroke-linejoin:round; stroke-width:2; stroke-opacity:0.1; fill:none" points="
  152.071,337.058 2640.76,337.058 
  "/>
<polyline clip-path="url(#clip632)" style="stroke:#000000; stroke-linecap:round; stroke-linejoin:round; stroke-width:2; stroke-opacity:0.1; fill:none" points="
  152.071,190.319 2640.76,190.319 
  "/>
<polyline clip-path="url(#clip630)" style="stroke:#000000; stroke-linecap:round; stroke-linejoin:round; stroke-width:4; stroke-opacity:1; fill:none" points="
  152.071,1657.7 152.071,190.319 
  "/>
<polyline clip-path="url(#clip630)" style="stroke:#000000; stroke-linecap:round; stroke-linejoin:round; stroke-width:4; stroke-opacity:1; fill:none" points="
  152.071,1657.7 170.969,1657.7 
  "/>
<polyline clip-path="url(#clip630)" style="stroke:#000000; stroke-linecap:round; stroke-linejoin:round; stroke-width:4; stroke-opacity:1; fill:none" points="
  152.071,1510.97 170.969,1510.97 
  "/>
<polyline clip-path="url(#clip630)" style="stroke:#000000; stroke-linecap:round; stroke-linejoin:round; stroke-width:4; stroke-opacity:1; fill:none" points="
  152.071,1364.23 170.969,1364.23 
  "/>
<polyline clip-path="url(#clip630)" style="stroke:#000000; stroke-linecap:round; stroke-linejoin:round; stroke-width:4; stroke-opacity:1; fill:none" points="
  152.071,1217.49 170.969,1217.49 
  "/>
<polyline clip-path="url(#clip630)" style="stroke:#000000; stroke-linecap:round; stroke-linejoin:round; stroke-width:4; stroke-opacity:1; fill:none" points="
  152.071,1070.75 170.969,1070.75 
  "/>
<polyline clip-path="url(#clip630)" style="stroke:#000000; stroke-linecap:round; stroke-linejoin:round; stroke-width:4; stroke-opacity:1; fill:none" points="
  152.071,924.012 170.969,924.012 
  "/>
<polyline clip-path="url(#clip630)" style="stroke:#000000; stroke-linecap:round; stroke-linejoin:round; stroke-width:4; stroke-opacity:1; fill:none" points="
  152.071,777.273 170.969,777.273 
  "/>
<polyline clip-path="url(#clip630)" style="stroke:#000000; stroke-linecap:round; stroke-linejoin:round; stroke-width:4; stroke-opacity:1; fill:none" points="
  152.071,630.535 170.969,630.535 
  "/>
<polyline clip-path="url(#clip630)" style="stroke:#000000; stroke-linecap:round; stroke-linejoin:round; stroke-width:4; stroke-opacity:1; fill:none" points="
  152.071,483.796 170.969,483.796 
  "/>
<polyline clip-path="url(#clip630)" style="stroke:#000000; stroke-linecap:round; stroke-linejoin:round; stroke-width:4; stroke-opacity:1; fill:none" points="
  152.071,337.058 170.969,337.058 
  "/>
<polyline clip-path="url(#clip630)" style="stroke:#000000; stroke-linecap:round; stroke-linejoin:round; stroke-width:4; stroke-opacity:1; fill:none" points="
  152.071,190.319 170.969,190.319 
  "/>
<path clip-path="url(#clip630)" d="M51.0336 1658.16 L80.7094 1658.16 L80.7094 1662.09 L51.0336 1662.09 L51.0336 1658.16 Z" fill="#000000" fill-rule="evenodd" fill-opacity="1" /><path clip-path="url(#clip630)" d="M90.8482 1640.42 L109.205 1640.42 L109.205 1644.36 L95.1306 1644.36 L95.1306 1652.83 Q96.1491 1652.48 97.1676 1652.32 Q98.1861 1652.14 99.2046 1652.14 Q104.992 1652.14 108.371 1655.31 Q111.751 1658.48 111.751 1663.9 Q111.751 1669.47 108.279 1672.58 Q104.806 1675.66 98.487 1675.66 Q96.3111 1675.66 94.0426 1675.29 Q91.7973 1674.91 89.3899 1674.17 L89.3899 1669.47 Q91.4732 1670.61 93.6954 1671.16 Q95.9176 1671.72 98.3945 1671.72 Q102.399 1671.72 104.737 1669.61 Q107.075 1667.51 107.075 1663.9 Q107.075 1660.29 104.737 1658.18 Q102.399 1656.07 98.3945 1656.07 Q96.5195 1656.07 94.6445 1656.49 Q92.7926 1656.91 90.8482 1657.79 L90.8482 1640.42 Z" fill="#000000" fill-rule="evenodd" fill-opacity="1" /><path clip-path="url(#clip630)" d="M49.5521 1511.42 L79.2279 1511.42 L79.2279 1515.35 L49.5521 1515.35 L49.5521 1511.42 Z" fill="#000000" fill-rule="evenodd" fill-opacity="1" /><path clip-path="url(#clip630)" d="M102.168 1497.76 L90.3621 1516.21 L102.168 1516.21 L102.168 1497.76 M100.941 1493.69 L106.82 1493.69 L106.82 1516.21 L111.751 1516.21 L111.751 1520.1 L106.82 1520.1 L106.82 1528.25 L102.168 1528.25 L102.168 1520.1 L86.5658 1520.1 L86.5658 1515.58 L100.941 1493.69 Z" fill="#000000" fill-rule="evenodd" fill-opacity="1" /><path clip-path="url(#clip630)" d="M50.6864 1364.68 L80.3621 1364.68 L80.3621 1368.61 L50.6864 1368.61 L50.6864 1364.68 Z" fill="#000000" fill-rule="evenodd" fill-opacity="1" /><path clip-path="url(#clip630)" d="M104.621 1362.87 Q107.978 1363.59 109.853 1365.86 Q111.751 1368.13 111.751 1371.46 Q111.751 1376.58 108.232 1379.38 Q104.714 1382.18 98.2324 1382.18 Q96.0565 1382.18 93.7417 1381.74 Q91.45 1381.32 88.9964 1380.47 L88.9964 1375.95 Q90.9408 1377.09 93.2556 1377.66 Q95.5704 1378.24 98.0935 1378.24 Q102.492 1378.24 104.783 1376.51 Q107.098 1374.77 107.098 1371.46 Q107.098 1368.41 104.945 1366.69 Q102.816 1364.96 98.9963 1364.96 L94.9685 1364.96 L94.9685 1361.11 L99.1815 1361.11 Q102.631 1361.11 104.459 1359.75 Q106.288 1358.36 106.288 1355.77 Q106.288 1353.1 104.39 1351.69 Q102.515 1350.26 98.9963 1350.26 Q97.075 1350.26 94.876 1350.67 Q92.6769 1351.09 90.038 1351.97 L90.038 1347.8 Q92.7 1347.06 95.0148 1346.69 Q97.3528 1346.32 99.413 1346.32 Q104.737 1346.32 107.839 1348.75 Q110.941 1351.16 110.941 1355.28 Q110.941 1358.15 109.297 1360.14 Q107.654 1362.11 104.621 1362.87 Z" fill="#000000" fill-rule="evenodd" fill-opacity="1" /><path clip-path="url(#clip630)" d="M51.6354 1217.94 L81.3112 1217.94 L81.3112 1221.88 L51.6354 1221.88 L51.6354 1217.94 Z" fill="#000000" fill-rule="evenodd" fill-opacity="1" /><path clip-path="url(#clip630)" d="M95.4315 1230.83 L111.751 1230.83 L111.751 1234.77 L89.8065 1234.77 L89.8065 1230.83 Q92.4686 1228.08 97.0519 1223.45 Q101.658 1218.8 102.839 1217.45 Q105.084 1214.93 105.964 1213.19 Q106.867 1211.44 106.867 1209.75 Q106.867 1206.99 104.922 1205.25 Q103.001 1203.52 99.8991 1203.52 Q97.7 1203.52 95.2463 1204.28 Q92.8158 1205.05 90.038 1206.6 L90.038 1201.88 Q92.8621 1200.74 95.3158 1200.16 Q97.7695 1199.58 99.8065 1199.58 Q105.177 1199.58 108.371 1202.27 Q111.566 1204.95 111.566 1209.44 Q111.566 1211.57 110.756 1213.5 Q109.968 1215.39 107.862 1217.99 Q107.283 1218.66 104.181 1221.88 Q101.08 1225.07 95.4315 1230.83 Z" fill="#000000" fill-rule="evenodd" fill-opacity="1" /><path clip-path="url(#clip630)" d="M51.2651 1071.2 L80.9408 1071.2 L80.9408 1075.14 L51.2651 1075.14 L51.2651 1071.2 Z" fill="#000000" fill-rule="evenodd" fill-opacity="1" /><path clip-path="url(#clip630)" d="M91.8436 1084.1 L99.4824 1084.1 L99.4824 1057.73 L91.1723 1059.4 L91.1723 1055.14 L99.4361 1053.47 L104.112 1053.47 L104.112 1084.1 L111.751 1084.1 L111.751 1088.03 L91.8436 1088.03 L91.8436 1084.1 Z" fill="#000000" fill-rule="evenodd" fill-opacity="1" /><path clip-path="url(#clip630)" d="M99.8065 909.81 Q96.1954 909.81 94.3667 913.375 Q92.5612 916.917 92.5612 924.046 Q92.5612 931.153 94.3667 934.718 Q96.1954 938.259 99.8065 938.259 Q103.441 938.259 105.246 934.718 Q107.075 931.153 107.075 924.046 Q107.075 916.917 105.246 913.375 Q103.441 909.81 99.8065 909.81 M99.8065 906.107 Q105.617 906.107 108.672 910.713 Q111.751 915.296 111.751 924.046 Q111.751 932.773 108.672 937.38 Q105.617 941.963 99.8065 941.963 Q93.9963 941.963 90.9176 937.38 Q87.8621 932.773 87.8621 924.046 Q87.8621 915.296 90.9176 910.713 Q93.9963 906.107 99.8065 906.107 Z" fill="#000000" fill-rule="evenodd" fill-opacity="1" /><path clip-path="url(#clip630)" d="M91.8436 790.618 L99.4824 790.618 L99.4824 764.252 L91.1723 765.919 L91.1723 761.66 L99.4361 759.993 L104.112 759.993 L104.112 790.618 L111.751 790.618 L111.751 794.553 L91.8436 794.553 L91.8436 790.618 Z" fill="#000000" fill-rule="evenodd" fill-opacity="1" /><path clip-path="url(#clip630)" d="M95.4315 643.88 L111.751 643.88 L111.751 647.815 L89.8065 647.815 L89.8065 643.88 Q92.4686 641.125 97.0519 636.495 Q101.658 631.843 102.839 630.5 Q105.084 627.977 105.964 626.241 Q106.867 624.481 106.867 622.792 Q106.867 620.037 104.922 618.301 Q103.001 616.565 99.8991 616.565 Q97.7 616.565 95.2463 617.329 Q92.8158 618.093 90.038 619.644 L90.038 614.921 Q92.8621 613.787 95.3158 613.208 Q97.7695 612.63 99.8065 612.63 Q105.177 612.63 108.371 615.315 Q111.566 618 111.566 622.491 Q111.566 624.62 110.756 626.542 Q109.968 628.44 107.862 631.032 Q107.283 631.704 104.181 634.921 Q101.08 638.116 95.4315 643.88 Z" fill="#000000" fill-rule="evenodd" fill-opacity="1" /><path clip-path="url(#clip630)" d="M104.621 482.442 Q107.978 483.16 109.853 485.428 Q111.751 487.697 111.751 491.03 Q111.751 496.146 108.232 498.947 Q104.714 501.747 98.2324 501.747 Q96.0565 501.747 93.7417 501.308 Q91.45 500.891 88.9964 500.035 L88.9964 495.521 Q90.9408 496.655 93.2556 497.234 Q95.5704 497.812 98.0935 497.812 Q102.492 497.812 104.783 496.076 Q107.098 494.34 107.098 491.03 Q107.098 487.974 104.945 486.261 Q102.816 484.525 98.9963 484.525 L94.9685 484.525 L94.9685 480.683 L99.1815 480.683 Q102.631 480.683 104.459 479.317 Q106.288 477.928 106.288 475.336 Q106.288 472.674 104.39 471.262 Q102.515 469.826 98.9963 469.826 Q97.075 469.826 94.876 470.243 Q92.6769 470.66 90.038 471.539 L90.038 467.373 Q92.7 466.632 95.0148 466.262 Q97.3528 465.891 99.413 465.891 Q104.737 465.891 107.839 468.322 Q110.941 470.729 110.941 474.849 Q110.941 477.72 109.297 479.711 Q107.654 481.678 104.621 482.442 Z" fill="#000000" fill-rule="evenodd" fill-opacity="1" /><path clip-path="url(#clip630)" d="M102.168 323.852 L90.3621 342.301 L102.168 342.301 L102.168 323.852 M100.941 319.778 L106.82 319.778 L106.82 342.301 L111.751 342.301 L111.751 346.19 L106.82 346.19 L106.82 354.338 L102.168 354.338 L102.168 346.19 L86.5658 346.19 L86.5658 341.676 L100.941 319.778 Z" fill="#000000" fill-rule="evenodd" fill-opacity="1" /><path clip-path="url(#clip630)" d="M90.8482 173.039 L109.205 173.039 L109.205 176.974 L95.1306 176.974 L95.1306 185.447 Q96.1491 185.099 97.1676 184.937 Q98.1861 184.752 99.2046 184.752 Q104.992 184.752 108.371 187.923 Q111.751 191.095 111.751 196.511 Q111.751 202.09 108.279 205.192 Q104.806 208.27 98.487 208.27 Q96.3111 208.27 94.0426 207.9 Q91.7973 207.53 89.3899 206.789 L89.3899 202.09 Q91.4732 203.224 93.6954 203.78 Q95.9176 204.335 98.3945 204.335 Q102.399 204.335 104.737 202.229 Q107.075 200.122 107.075 196.511 Q107.075 192.9 104.737 190.794 Q102.399 188.687 98.3945 188.687 Q96.5195 188.687 94.6445 189.104 Q92.7926 189.521 90.8482 190.4 L90.8482 173.039 Z" fill="#000000" fill-rule="evenodd" fill-opacity="1" /><polyline clip-path="url(#clip632)" style="stroke:#009af9; stroke-linecap:round; stroke-linejoin:round; stroke-width:4; stroke-opacity:1; fill:none" points="
  222.505,756.972 237.791,756.494 379.128,751.195 464.066,747.032 535.88,742.733 613.889,737.011 685.808,730.476 762.911,721.677 852.244,708.228 891.938,700.698 
  931.632,691.859 966.44,682.711 1001.25,671.812 1020.22,664.895 1039.2,657.081 1058.17,648.124 1077.15,637.671 1096.24,625.101 1115.32,609.605 1134.41,589.727 
  1153.5,562.831 1164.05,543.215 1174.6,518.387 1179.88,503.272 1185.16,485.763 1190.43,465.215 1195.71,440.731 1200.98,411.025 1206.26,374.184 1208.9,352.219 
  1211.54,327.236 1214.17,298.561 1216.81,265.301 1219.45,226.255 1222.09,179.762 1223.41,153.019 1224.73,123.454 1226.05,90.5922 1227.36,53.8488 1228.68,12.4918 
  1230,-34.4074 1231.32,-88.044 1232.64,-149.984 1233.96,-222.318 1235.28,-307.904 1235.94,-356.86 1236.6,-410.754 1237.26,-470.371 1237.92,-536.676 1238.54,-607.058 
  1239.17,-685.849 1239.8,-774.653 1240.43,-875.508 1241.05,-991.045 1241.68,-1124.72 1242.31,-1281.18 1242.94,-1466.77 1243.56,-1690.49 1244.19,-1965.4 
  "/>
<polyline clip-path="url(#clip632)" style="stroke:#009af9; stroke-linecap:round; stroke-linejoin:round; stroke-width:4; stroke-opacity:1; fill:none" points="
  1254.86,3544.19 1255.49,3238.44 1256.11,2992.29 1256.74,2789.85 1257.37,2620.44 1258,2476.59 1258.62,2352.91 1259.25,2245.45 1259.88,2151.21 1260.51,2067.89 
  1261.13,1993.7 1261.76,1927.21 1262.39,1867.3 1263.02,1813.02 1263.64,1763.62 1264.27,1718.48 1264.9,1677.06 1265.53,1638.92 1266.78,1571.05 1268.04,1512.47 
  1269.29,1461.4 1270.55,1416.48 1271.8,1376.67 1273.06,1341.15 1275.57,1280.48 1278.08,1230.58 1279.33,1208.81 1280.59,1188.83 1281.84,1170.41 1283.1,1153.4 
  1285.61,1122.97 1288.12,1096.56 1293.14,1053.04 1298.16,1018.72 1303.18,991.043 1308.2,968.315 1313.22,949.386 1318.24,933.445 1328.68,907.473 1339.12,888.544 
  1349.55,874.644 1359.99,864.554 1370.43,857.514 1380.87,853.054 1391.31,850.9 1401.75,850.924 1419.33,855.951 1436.9,868.089 1445.69,877.487 1454.48,889.742 
  1463.26,905.627 1472.05,926.327 1477.42,942.09 1482.78,960.947 1488.14,983.768 1493.51,1011.8 1498.87,1046.91 1504.24,1091.98 1506.92,1119.61 1509.6,1151.74 
  1510.94,1169.83 1512.28,1189.5 1512.96,1200 1513.63,1210.98 1514.3,1222.48 1514.97,1234.53 1517.65,1289.09 1520.33,1356.54 1521.67,1396.61 1523.01,1442.03 
  1524.35,1493.95 1525.7,1553.87 1527.04,1623.77 1528.38,1706.39 1529.05,1753.6 1529.72,1805.52 1530.39,1862.9 1531.06,1926.66 1531.73,1997.9 1532.4,2078.04 
  1533.07,2168.84 1533.74,2272.59 1534.41,2392.27 1535.08,2531.84 1535.75,2696.72 1536.42,2894.47 1537.09,3136.01 1537.77,3437.69 1538.44,3825.17 
  "/>
<polyline clip-path="url(#clip632)" style="stroke:#009af9; stroke-linecap:round; stroke-linejoin:round; stroke-width:4; stroke-opacity:1; fill:none" points="
  1549.16,-1729.77 1549.83,-1484.79 1550.51,-1284.5 1551.18,-1117.67 1551.85,-976.582 1552.52,-855.696 1553.19,-750.964 1553.86,-659.351 1554.53,-578.537 1555.2,-506.72 
  1555.87,-442.475 1556.54,-384.665 1557.21,-332.369 1557.88,-284.834 1559.11,-208.107 1560.34,-142.348 1561.57,-85.3597 1562.8,-35.4973 1564.02,8.49798 1565.25,47.605 
  1566.48,82.5962 1567.71,114.09 1570.17,168.493 1572.62,213.839 1575.08,252.22 1577.54,285.13 1579.99,313.665 1582.45,338.648 1584.91,360.706 1587.37,380.328 
  1592.28,413.73 1597.19,441.117 1602.11,463.998 1607.02,483.419 1611.94,500.123 1616.85,514.658 1626.68,538.762 1636.51,557.999 1654.66,585.107 1672.82,605.204 
  1690.97,620.892 1709.12,633.622 1727.51,644.391 1745.9,653.589 1764.29,661.595 1782.68,668.669 1823.9,681.998 1865.12,692.801 1902.47,701.021 1939.82,708.095 
  2025.35,721.085 2104.54,730.226 2182.62,737.31 2258.42,742.829 2336.13,747.429 2421.27,751.525 2544.95,756.17 2570.32,756.972 
  "/>
<polyline clip-path="url(#clip632)" style="stroke:#e26f46; stroke-linecap:round; stroke-linejoin:round; stroke-width:4; stroke-opacity:1; fill:none" points="
  1249.67,3125.09 1249.67,-1277.07 
  "/>
<polyline clip-path="url(#clip632)" style="stroke:#e26f46; stroke-linecap:round; stroke-linejoin:round; stroke-width:4; stroke-opacity:1; fill:none" points="
  1543.15,3125.09 1543.15,-1277.07 
  "/>
<polyline clip-path="url(#clip632)" style="stroke:#3da44d; stroke-linecap:round; stroke-linejoin:round; stroke-width:4; stroke-opacity:1; fill:none" points="
  -2336.61,777.273 5129.44,777.273 
  "/>
<path clip-path="url(#clip630)" d="
M1785.95 1599.25 L2557.8 1599.25 L2557.8 1112.14 L1785.95 1112.14  Z
  " fill="#ffffff" fill-rule="evenodd" fill-opacity="1"/>
<polyline clip-path="url(#clip630)" style="stroke:#000000; stroke-linecap:round; stroke-linejoin:round; stroke-width:4; stroke-opacity:1; fill:none" points="
  1785.95,1599.25 2557.8,1599.25 2557.8,1112.14 1785.95,1112.14 1785.95,1599.25 
  "/>
<polyline clip-path="url(#clip630)" style="stroke:#009af9; stroke-linecap:round; stroke-linejoin:round; stroke-width:4; stroke-opacity:1; fill:none" points="
  1813.6,1233.92 1979.51,1233.92 
  "/>
<path clip-path="url(#clip630)" d="M2029.18 1226.85 Q2029.18 1226.87 2029.04 1227.72 L2023.7 1249.01 Q2023.42 1250.13 2022.62 1251.26 Q2021.85 1252.4 2020.61 1253.39 Q2019.39 1254.4 2017.52 1255 Q2015.67 1255.64 2013.54 1255.64 Q2010.14 1255.64 2008.64 1254.91 Q2007.16 1254.21 2007.16 1252.71 Q2007.16 1251.4 2007.98 1250.65 Q2008.8 1249.92 2009.74 1249.92 Q2010.63 1249.92 2011.1 1250.44 Q2011.57 1250.95 2011.57 1251.61 Q2011.57 1252.33 2011.08 1253.06 Q2010.58 1253.81 2009.6 1254.09 Q2011.17 1254.58 2013.44 1254.58 Q2018.24 1254.58 2020.3 1249.5 Q2020.35 1249.43 2020.35 1249.41 L2021.94 1243.06 L2021.87 1243.01 Q2021.48 1243.48 2020.84 1244.02 Q2020.23 1244.53 2018.92 1245.17 Q2017.61 1245.8 2016.32 1245.8 Q2013.63 1245.8 2011.78 1243.74 Q2009.95 1241.65 2009.95 1238.21 Q2009.95 1235.7 2010.96 1233.2 Q2011.99 1230.67 2013.58 1228.82 Q2015.2 1226.94 2017.26 1225.77 Q2019.34 1224.6 2021.36 1224.6 Q2022.76 1224.6 2023.96 1225.44 Q2025.15 1226.26 2025.81 1227.62 Q2025.93 1226.5 2026.56 1226.03 Q2027.21 1225.56 2027.78 1225.56 Q2028.41 1225.56 2028.78 1225.91 Q2029.18 1226.24 2029.18 1226.85 M2025.25 1229.78 Q2025.25 1229.64 2025.15 1229.26 Q2025.06 1228.86 2024.78 1228.23 Q2024.52 1227.6 2024.12 1227.04 Q2023.72 1226.48 2023 1226.08 Q2022.3 1225.66 2021.41 1225.66 Q2019.95 1225.66 2018.5 1226.87 Q2017.05 1228.07 2016.04 1229.92 Q2015.1 1231.7 2014.21 1235.14 Q2013.35 1238.58 2013.35 1240.34 Q2013.35 1242.07 2014.1 1243.41 Q2014.85 1244.74 2016.46 1244.74 Q2018.34 1244.74 2020.35 1243.01 Q2022.44 1241.21 2022.79 1239.66 L2025.11 1230.5 Q2025.25 1229.94 2025.25 1229.78 Z" fill="#000000" fill-rule="evenodd" fill-opacity="1" /><path clip-path="url(#clip630)" d="M2035.76 1233.81 Q2035.76 1225.7 2038.78 1219.17 Q2040.07 1216.43 2041.87 1214.13 Q2043.68 1211.84 2044.87 1210.83 Q2046.06 1209.82 2046.39 1209.82 Q2046.86 1209.82 2046.88 1210.29 Q2046.88 1210.52 2046.25 1211.11 Q2038.52 1218.98 2038.55 1233.81 Q2038.55 1248.68 2046.06 1256.25 Q2046.88 1257.07 2046.88 1257.32 Q2046.88 1257.79 2046.39 1257.79 Q2046.06 1257.79 2044.92 1256.83 Q2043.77 1255.87 2041.99 1253.67 Q2040.21 1251.47 2038.92 1248.77 Q2035.76 1242.24 2035.76 1233.81 Z" fill="#000000" fill-rule="evenodd" fill-opacity="1" /><path clip-path="url(#clip630)" d="M2065.26 1225.66 Q2065.26 1226.31 2064.96 1226.48 Q2064.66 1226.62 2063.81 1226.62 L2059.31 1226.62 L2055.75 1240.76 Q2055.47 1242 2055.47 1243.06 Q2055.47 1244.23 2055.82 1244.74 Q2056.2 1245.26 2056.97 1245.26 Q2058.5 1245.26 2060.13 1243.88 Q2061.8 1242.5 2063.2 1239.12 Q2063.39 1238.68 2063.48 1238.58 Q2063.6 1238.47 2063.91 1238.47 Q2064.49 1238.47 2064.49 1238.94 Q2064.49 1239.1 2064.16 1239.85 Q2063.86 1240.6 2063.18 1241.7 Q2062.52 1242.8 2061.66 1243.83 Q2060.81 1244.86 2059.53 1245.61 Q2058.24 1246.34 2056.86 1246.34 Q2054.91 1246.34 2053.67 1245.1 Q2052.45 1243.85 2052.45 1241.91 Q2052.45 1241.28 2052.94 1239.26 Q2053.44 1237.23 2056.11 1226.62 L2051.87 1226.62 Q2051.28 1226.62 2051.05 1226.59 Q2050.84 1226.57 2050.67 1226.45 Q2050.53 1226.31 2050.53 1226.03 Q2050.53 1225.59 2050.72 1225.4 Q2050.91 1225.19 2051.14 1225.16 Q2051.4 1225.12 2051.98 1225.12 L2056.48 1225.12 L2058.35 1217.5 Q2058.54 1216.76 2059.01 1216.33 Q2059.5 1215.89 2059.78 1215.84 Q2060.06 1215.77 2060.28 1215.77 Q2060.91 1215.77 2061.28 1216.12 Q2061.66 1216.45 2061.66 1217.06 Q2061.66 1217.39 2059.69 1225.12 L2063.91 1225.12 Q2064.44 1225.12 2064.66 1225.14 Q2064.89 1225.16 2065.08 1225.28 Q2065.26 1225.4 2065.26 1225.66 Z" fill="#000000" fill-rule="evenodd" fill-opacity="1" /><path clip-path="url(#clip630)" d="M2069.02 1257.32 Q2069.02 1257.09 2069.63 1256.5 Q2077.36 1248.63 2077.36 1233.81 Q2077.36 1218.93 2069.93 1211.41 Q2069.02 1210.55 2069.02 1210.29 Q2069.02 1209.82 2069.49 1209.82 Q2069.82 1209.82 2070.96 1210.78 Q2072.14 1211.74 2073.89 1213.94 Q2075.67 1216.15 2076.98 1218.84 Q2080.15 1225.37 2080.15 1233.81 Q2080.15 1241.91 2077.12 1248.45 Q2075.84 1251.19 2074.03 1253.48 Q2072.23 1255.78 2071.03 1256.78 Q2069.84 1257.79 2069.49 1257.79 Q2069.02 1257.79 2069.02 1257.32 Z" fill="#000000" fill-rule="evenodd" fill-opacity="1" /><path clip-path="url(#clip630)" d="M2100.75 1238.51 Q2100.8 1237.93 2101.71 1237.93 L2131.11 1237.93 Q2132.49 1237.93 2132.51 1238.47 Q2132.51 1239.05 2131.2 1239.03 L2102.04 1239.03 Q2100.75 1239.05 2100.75 1238.51 M2100.75 1229.15 Q2100.75 1228.56 2101.76 1228.58 L2131.06 1228.58 Q2132.49 1228.58 2132.51 1229.15 Q2132.51 1229.68 2131.29 1229.68 L2101.71 1229.68 Q2100.75 1229.68 2100.75 1229.15 Z" fill="#000000" fill-rule="evenodd" fill-opacity="1" /><path clip-path="url(#clip630)" d="M2175.99 1198.4 Q2175.99 1199.06 2175.69 1199.22 Q2175.38 1199.36 2174.54 1199.36 L2170.04 1199.36 L2166.48 1213.51 Q2166.2 1214.75 2166.2 1215.81 Q2166.2 1216.98 2166.55 1217.49 Q2166.93 1218.01 2167.7 1218.01 Q2169.22 1218.01 2170.86 1216.63 Q2172.53 1215.24 2173.93 1211.87 Q2174.12 1211.43 2174.21 1211.33 Q2174.33 1211.22 2174.63 1211.22 Q2175.22 1211.22 2175.22 1211.68 Q2175.22 1211.85 2174.89 1212.6 Q2174.59 1213.35 2173.91 1214.45 Q2173.25 1215.55 2172.39 1216.58 Q2171.54 1217.61 2170.25 1218.36 Q2168.97 1219.09 2167.58 1219.09 Q2165.64 1219.09 2164.4 1217.84 Q2163.18 1216.6 2163.18 1214.66 Q2163.18 1214.03 2163.67 1212.01 Q2164.16 1209.97 2166.83 1199.36 L2162.59 1199.36 Q2162.01 1199.36 2161.78 1199.34 Q2161.56 1199.32 2161.4 1199.2 Q2161.26 1199.06 2161.26 1198.78 Q2161.26 1198.33 2161.45 1198.15 Q2161.63 1197.93 2161.87 1197.91 Q2162.13 1197.86 2162.71 1197.86 L2167.21 1197.86 L2169.08 1190.25 Q2169.27 1189.5 2169.74 1189.08 Q2170.23 1188.64 2170.51 1188.59 Q2170.79 1188.52 2171 1188.52 Q2171.64 1188.52 2172.01 1188.87 Q2172.39 1189.2 2172.39 1189.81 Q2172.39 1190.14 2170.42 1197.86 L2174.63 1197.86 Q2175.17 1197.86 2175.38 1197.89 Q2175.62 1197.91 2175.81 1198.03 Q2175.99 1198.15 2175.99 1198.4 Z" fill="#000000" fill-rule="evenodd" fill-opacity="1" /><path clip-path="url(#clip630)" d="M2180.96 1190.01 L2180.96 1188.98 L2191.27 1173.22 Q2191.53 1172.81 2191.94 1172.83 Q2192.32 1172.83 2192.4 1172.98 Q2192.48 1173.13 2192.48 1173.7 L2192.48 1188.98 L2195.84 1188.98 L2195.84 1190.01 L2192.48 1190.01 L2192.48 1192.93 Q2192.48 1193.9 2192.88 1194.21 Q2193.29 1194.52 2195.02 1194.52 L2195.73 1194.52 L2195.73 1195.55 Q2194.35 1195.46 2191.17 1195.46 Q2188.01 1195.46 2186.63 1195.55 L2186.63 1194.52 L2187.34 1194.52 Q2189.07 1194.52 2189.48 1194.23 Q2189.89 1193.92 2189.89 1192.93 L2189.89 1190.01 L2180.96 1190.01 M2181.91 1188.98 L2190.09 1188.98 L2190.09 1176.45 L2181.91 1188.98 Z" fill="#000000" fill-rule="evenodd" fill-opacity="1" /><path clip-path="url(#clip630)" d="M2215.23 1207.14 Q2214.13 1207.14 2214.13 1206.55 Q2214.13 1205.97 2215.27 1205.97 Q2215.41 1205.97 2215.65 1205.99 Q2215.91 1206.02 2215.95 1206.02 L2229.47 1206.02 L2229.47 1192.45 Q2229.47 1192.41 2229.44 1192.2 Q2229.42 1191.96 2229.42 1191.82 Q2229.42 1190.67 2229.98 1190.67 Q2230.57 1190.67 2230.57 1191.82 L2230.57 1206.02 L2244.11 1206.02 Q2244.15 1206.02 2244.39 1205.99 Q2244.62 1205.97 2244.76 1205.97 Q2245.86 1205.97 2245.86 1206.55 Q2245.89 1207.14 2244.72 1207.14 Q2244.57 1207.14 2244.36 1207.12 Q2244.15 1207.09 2244.11 1207.09 L2230.57 1207.09 L2230.57 1221.33 Q2230.57 1222.43 2229.98 1222.43 Q2229.42 1222.43 2229.42 1221.29 Q2229.42 1221.15 2229.44 1220.91 Q2229.47 1220.7 2229.47 1220.65 L2229.47 1207.09 L2215.95 1207.09 Q2215.91 1207.09 2215.62 1207.12 Q2215.37 1207.14 2215.23 1207.14 Z" fill="#000000" fill-rule="evenodd" fill-opacity="1" /><path clip-path="url(#clip630)" d="M2264.39 1191.17 L2264.39 1189.67 Q2270.16 1189.67 2273.13 1186.6 Q2273.95 1186.6 2274.09 1186.79 Q2274.23 1186.97 2274.23 1187.84 L2274.23 1214.75 Q2274.23 1216.18 2274.93 1216.63 Q2275.64 1217.07 2278.7 1217.07 L2280.23 1217.07 L2280.23 1218.55 Q2278.54 1218.41 2272.45 1218.41 Q2266.36 1218.41 2264.7 1218.55 L2264.7 1217.07 L2266.22 1217.07 Q2269.24 1217.07 2269.97 1216.65 Q2270.69 1216.2 2270.69 1214.75 L2270.69 1189.9 Q2268.19 1191.17 2264.39 1191.17 Z" fill="#000000" fill-rule="evenodd" fill-opacity="1" /><path clip-path="url(#clip630)" d="M2283.34 1197.4 Q2283.34 1194.84 2284.09 1193.11 Q2284.84 1191.35 2286.41 1189.62 Q2289.29 1186.6 2293.46 1186.6 Q2295.24 1186.6 2296.81 1187.35 Q2298.4 1188.1 2299.9 1189.81 Q2301.42 1191.49 2302.34 1194.84 Q2303.25 1198.17 2303.25 1202.76 Q2303.25 1210.18 2299.64 1214.89 Q2296.06 1219.6 2291.21 1219.6 Q2288.14 1219.6 2286.34 1218.22 Q2284.54 1216.81 2284.54 1214.42 Q2284.54 1213.18 2285.24 1212.67 Q2285.94 1212.13 2286.74 1212.13 Q2287.6 1212.13 2288.28 1212.71 Q2288.96 1213.28 2288.96 1214.33 Q2288.96 1215.2 2288.4 1215.88 Q2287.86 1216.53 2286.46 1216.53 Q2287.84 1218.27 2291.16 1218.27 Q2292.36 1218.27 2293.55 1217.73 Q2294.75 1217.16 2296.04 1215.83 Q2297.35 1214.47 2298.14 1211.64 Q2298.94 1208.8 2298.94 1204.82 L2298.94 1203.3 Q2297.02 1208.1 2292.94 1208.1 Q2288.92 1208.1 2286.13 1205.01 Q2283.34 1201.92 2283.34 1197.4 M2287.65 1197.44 Q2287.65 1202.2 2288.52 1203.95 Q2289.99 1206.98 2292.99 1206.98 Q2295.92 1206.98 2297.37 1204.38 Q2298.85 1201.75 2298.85 1198.36 Q2298.85 1193.65 2298.07 1191.59 Q2296.65 1187.79 2293.46 1187.79 Q2290.3 1187.79 2288.66 1190.81 Q2287.65 1192.59 2287.65 1197.44 Z" fill="#000000" fill-rule="evenodd" fill-opacity="1" /><path clip-path="url(#clip630)" d="M2321.83 1198.4 Q2321.83 1199.06 2321.53 1199.22 Q2321.22 1199.36 2320.38 1199.36 L2315.88 1199.36 L2312.32 1213.51 Q2312.04 1214.75 2312.04 1215.81 Q2312.04 1216.98 2312.39 1217.49 Q2312.77 1218.01 2313.54 1218.01 Q2315.06 1218.01 2316.7 1216.63 Q2318.36 1215.24 2319.77 1211.87 Q2319.96 1211.43 2320.05 1211.33 Q2320.17 1211.22 2320.47 1211.22 Q2321.06 1211.22 2321.06 1211.68 Q2321.06 1211.85 2320.73 1212.6 Q2320.43 1213.35 2319.75 1214.45 Q2319.09 1215.55 2318.22 1216.58 Q2317.38 1217.61 2316.09 1218.36 Q2314.8 1219.09 2313.42 1219.09 Q2311.48 1219.09 2310.24 1217.84 Q2309.02 1216.6 2309.02 1214.66 Q2309.02 1214.03 2309.51 1212.01 Q2310 1209.97 2312.67 1199.36 L2308.43 1199.36 Q2307.85 1199.36 2307.61 1199.34 Q2307.4 1199.32 2307.24 1199.2 Q2307.1 1199.06 2307.1 1198.78 Q2307.1 1198.33 2307.29 1198.15 Q2307.47 1197.93 2307.71 1197.91 Q2307.96 1197.86 2308.55 1197.86 L2313.05 1197.86 L2314.92 1190.25 Q2315.11 1189.5 2315.58 1189.08 Q2316.07 1188.64 2316.35 1188.59 Q2316.63 1188.52 2316.84 1188.52 Q2317.47 1188.52 2317.85 1188.87 Q2318.22 1189.2 2318.22 1189.81 Q2318.22 1190.14 2316.26 1197.86 L2320.47 1197.86 Q2321.01 1197.86 2321.22 1197.89 Q2321.46 1197.91 2321.64 1198.03 Q2321.83 1198.15 2321.83 1198.4 Z" fill="#000000" fill-rule="evenodd" fill-opacity="1" /><path clip-path="url(#clip630)" d="M2326.8 1195.44 Q2326.8 1194.83 2326.84 1194.65 Q2326.91 1194.47 2327.17 1194.19 L2333.62 1187.01 Q2337.14 1183.05 2337.14 1179.59 Q2337.14 1177.34 2335.96 1175.73 Q2334.8 1174.13 2332.65 1174.13 Q2331.17 1174.13 2329.93 1175.03 Q2328.68 1175.93 2328.11 1177.54 Q2328.21 1177.5 2328.55 1177.5 Q2329.39 1177.5 2329.85 1178.03 Q2330.32 1178.55 2330.32 1179.26 Q2330.32 1180.16 2329.73 1180.6 Q2329.16 1181.03 2328.58 1181.03 Q2328.35 1181.03 2328.04 1180.98 Q2327.75 1180.93 2327.27 1180.47 Q2326.8 1180 2326.8 1179.16 Q2326.8 1176.82 2328.57 1174.95 Q2330.35 1173.08 2333.08 1173.08 Q2336.16 1173.08 2338.17 1174.91 Q2340.21 1176.73 2340.21 1179.59 Q2340.21 1180.59 2339.9 1181.5 Q2339.6 1182.41 2339.19 1183.11 Q2338.8 1183.82 2337.72 1184.95 Q2336.63 1186.08 2335.76 1186.88 Q2334.89 1187.69 2332.94 1189.39 L2329.39 1192.85 L2335.44 1192.85 Q2338.39 1192.85 2338.62 1192.59 Q2338.94 1192.11 2339.35 1189.6 L2340.21 1189.6 L2339.26 1195.44 L2326.8 1195.44 Z" fill="#000000" fill-rule="evenodd" fill-opacity="1" /><path clip-path="url(#clip630)" d="M2390.17 1205.87 Q2390.45 1206.16 2390.45 1206.55 Q2390.45 1206.95 2390.17 1207.23 Q2389.89 1207.51 2389.49 1207.51 L2359.47 1207.51 Q2359.07 1207.51 2358.79 1207.23 Q2358.51 1206.95 2358.51 1206.55 Q2358.51 1206.16 2358.79 1205.87 Q2359.07 1205.59 2359.47 1205.59 L2389.49 1205.59 Q2389.89 1205.59 2390.17 1205.87 Z" fill="#000000" fill-rule="evenodd" fill-opacity="1" /><path clip-path="url(#clip630)" d="M2408.77 1210.82 Q2408.77 1209.39 2409.55 1208.85 Q2410.32 1208.29 2411.14 1208.29 Q2412.24 1208.29 2412.87 1208.99 Q2413.53 1209.67 2413.53 1210.63 Q2413.53 1211.59 2412.87 1212.29 Q2412.24 1212.97 2411.14 1212.97 Q2410.6 1212.97 2410.32 1212.88 Q2410.95 1215.08 2412.87 1216.67 Q2414.82 1218.27 2417.37 1218.27 Q2420.58 1218.27 2422.5 1215.15 Q2423.65 1213.14 2423.65 1208.57 Q2423.65 1204.54 2422.78 1202.53 Q2421.45 1199.46 2418.71 1199.46 Q2414.82 1199.46 2412.52 1202.81 Q2412.24 1203.23 2411.91 1203.25 Q2411.44 1203.25 2411.33 1202.99 Q2411.23 1202.71 2411.23 1201.99 L2411.23 1187.79 Q2411.23 1186.65 2411.7 1186.65 Q2411.89 1186.65 2412.29 1186.79 Q2415.31 1188.12 2418.66 1188.14 Q2422.1 1188.14 2425.19 1186.74 Q2425.43 1186.6 2425.57 1186.6 Q2426.04 1186.6 2426.06 1187.14 Q2426.06 1187.32 2425.66 1187.89 Q2425.29 1188.43 2424.47 1189.15 Q2423.65 1189.85 2422.59 1190.53 Q2421.54 1191.21 2419.99 1191.68 Q2418.47 1192.13 2416.78 1192.13 Q2414.77 1192.13 2412.71 1191.49 L2412.71 1200.84 Q2415.19 1198.4 2418.8 1198.4 Q2422.64 1198.4 2425.29 1201.49 Q2427.93 1204.59 2427.93 1208.9 Q2427.93 1213.42 2424.8 1216.51 Q2421.68 1219.6 2417.46 1219.6 Q2413.62 1219.6 2411.19 1216.86 Q2408.77 1214.12 2408.77 1210.82 Z" fill="#000000" fill-rule="evenodd" fill-opacity="1" /><path clip-path="url(#clip630)" d="
M2161.26 1235.2 L2433.18 1235.2 L2433.18 1232.64 L2161.26 1232.64  Z
  " fill="#000000" fill-rule="evenodd" fill-opacity="1"/>
<path clip-path="url(#clip630)" d="M2175.99 1270.81 Q2175.99 1271.47 2175.69 1271.63 Q2175.38 1271.77 2174.54 1271.77 L2170.04 1271.77 L2166.48 1285.92 Q2166.2 1287.16 2166.2 1288.22 Q2166.2 1289.39 2166.55 1289.9 Q2166.93 1290.42 2167.7 1290.42 Q2169.22 1290.42 2170.86 1289.04 Q2172.53 1287.65 2173.93 1284.28 Q2174.12 1283.84 2174.21 1283.74 Q2174.33 1283.62 2174.63 1283.62 Q2175.22 1283.62 2175.22 1284.09 Q2175.22 1284.26 2174.89 1285.01 Q2174.59 1285.76 2173.91 1286.86 Q2173.25 1287.96 2172.39 1288.99 Q2171.54 1290.02 2170.25 1290.77 Q2168.97 1291.49 2167.58 1291.49 Q2165.64 1291.49 2164.4 1290.25 Q2163.18 1289.01 2163.18 1287.07 Q2163.18 1286.44 2163.67 1284.42 Q2164.16 1282.38 2166.83 1271.77 L2162.59 1271.77 Q2162.01 1271.77 2161.78 1271.75 Q2161.56 1271.73 2161.4 1271.61 Q2161.26 1271.47 2161.26 1271.19 Q2161.26 1270.74 2161.45 1270.55 Q2161.63 1270.34 2161.87 1270.32 Q2162.13 1270.27 2162.71 1270.27 L2167.21 1270.27 L2169.08 1262.66 Q2169.27 1261.91 2169.74 1261.49 Q2170.23 1261.05 2170.51 1261 Q2170.79 1260.93 2171 1260.93 Q2171.64 1260.93 2172.01 1261.28 Q2172.39 1261.61 2172.39 1262.22 Q2172.39 1262.54 2170.42 1270.27 L2174.63 1270.27 Q2175.17 1270.27 2175.38 1270.3 Q2175.62 1270.32 2175.81 1270.44 Q2175.99 1270.55 2175.99 1270.81 Z" fill="#000000" fill-rule="evenodd" fill-opacity="1" /><path clip-path="url(#clip630)" d="M2180.96 1262.42 L2180.96 1261.39 L2191.27 1245.63 Q2191.53 1245.22 2191.94 1245.24 Q2192.32 1245.24 2192.4 1245.39 Q2192.48 1245.53 2192.48 1246.11 L2192.48 1261.39 L2195.84 1261.39 L2195.84 1262.42 L2192.48 1262.42 L2192.48 1265.34 Q2192.48 1266.31 2192.88 1266.62 Q2193.29 1266.93 2195.02 1266.93 L2195.73 1266.93 L2195.73 1267.96 Q2194.35 1267.87 2191.17 1267.87 Q2188.01 1267.87 2186.63 1267.96 L2186.63 1266.93 L2187.34 1266.93 Q2189.07 1266.93 2189.48 1266.64 Q2189.89 1266.32 2189.89 1265.34 L2189.89 1262.42 L2180.96 1262.42 M2181.91 1261.39 L2190.09 1261.39 L2190.09 1248.86 L2181.91 1261.39 Z" fill="#000000" fill-rule="evenodd" fill-opacity="1" /><path clip-path="url(#clip630)" d="M2215.23 1279.55 Q2214.13 1279.55 2214.13 1278.96 Q2214.13 1278.38 2215.27 1278.38 Q2215.41 1278.38 2215.65 1278.4 Q2215.91 1278.42 2215.95 1278.42 L2229.47 1278.42 L2229.47 1264.86 Q2229.47 1264.82 2229.44 1264.61 Q2229.42 1264.37 2229.42 1264.23 Q2229.42 1263.08 2229.98 1263.08 Q2230.57 1263.08 2230.57 1264.23 L2230.57 1278.42 L2244.11 1278.42 Q2244.15 1278.42 2244.39 1278.4 Q2244.62 1278.38 2244.76 1278.38 Q2245.86 1278.38 2245.86 1278.96 Q2245.89 1279.55 2244.72 1279.55 Q2244.57 1279.55 2244.36 1279.53 Q2244.15 1279.5 2244.11 1279.5 L2230.57 1279.5 L2230.57 1293.74 Q2230.57 1294.84 2229.98 1294.84 Q2229.42 1294.84 2229.42 1293.7 Q2229.42 1293.56 2229.44 1293.32 Q2229.47 1293.11 2229.47 1293.06 L2229.47 1279.5 L2215.95 1279.5 Q2215.91 1279.5 2215.62 1279.53 Q2215.37 1279.55 2215.23 1279.55 Z" fill="#000000" fill-rule="evenodd" fill-opacity="1" /><path clip-path="url(#clip630)" d="M2264.39 1269.81 Q2264.39 1267.25 2265.14 1265.52 Q2265.89 1263.76 2267.46 1262.03 Q2270.34 1259.01 2274.51 1259.01 Q2276.29 1259.01 2277.86 1259.76 Q2279.45 1260.51 2280.95 1262.22 Q2282.48 1263.9 2283.39 1267.25 Q2284.3 1270.58 2284.3 1275.17 Q2284.3 1282.59 2280.7 1287.3 Q2277.11 1292.01 2272.26 1292.01 Q2269.2 1292.01 2267.39 1290.63 Q2265.59 1289.22 2265.59 1286.83 Q2265.59 1285.59 2266.29 1285.08 Q2266.99 1284.54 2267.79 1284.54 Q2268.66 1284.54 2269.34 1285.12 Q2270.01 1285.69 2270.01 1286.74 Q2270.01 1287.61 2269.45 1288.29 Q2268.91 1288.94 2267.51 1288.94 Q2268.89 1290.67 2272.22 1290.67 Q2273.41 1290.67 2274.61 1290.14 Q2275.8 1289.57 2277.09 1288.24 Q2278.4 1286.88 2279.2 1284.05 Q2279.99 1281.21 2279.99 1277.23 L2279.99 1275.71 Q2278.07 1280.51 2274 1280.51 Q2269.97 1280.51 2267.18 1277.42 Q2264.39 1274.33 2264.39 1269.81 M2268.7 1269.85 Q2268.7 1274.61 2269.57 1276.36 Q2271.05 1279.39 2274.04 1279.39 Q2276.97 1279.39 2278.42 1276.79 Q2279.9 1274.16 2279.9 1270.77 Q2279.9 1266.06 2279.13 1264 Q2277.7 1260.2 2274.51 1260.2 Q2271.35 1260.2 2269.71 1263.22 Q2268.7 1265 2268.7 1269.85 Z" fill="#000000" fill-rule="evenodd" fill-opacity="1" /><path clip-path="url(#clip630)" d="M2302.88 1270.81 Q2302.88 1271.47 2302.58 1271.63 Q2302.27 1271.77 2301.43 1271.77 L2296.93 1271.77 L2293.37 1285.92 Q2293.09 1287.16 2293.09 1288.22 Q2293.09 1289.39 2293.44 1289.9 Q2293.82 1290.42 2294.59 1290.42 Q2296.11 1290.42 2297.75 1289.04 Q2299.42 1287.65 2300.82 1284.28 Q2301.01 1283.84 2301.1 1283.74 Q2301.22 1283.62 2301.52 1283.62 Q2302.11 1283.62 2302.11 1284.09 Q2302.11 1284.26 2301.78 1285.01 Q2301.48 1285.76 2300.8 1286.86 Q2300.14 1287.96 2299.28 1288.99 Q2298.43 1290.02 2297.14 1290.77 Q2295.86 1291.49 2294.47 1291.49 Q2292.53 1291.49 2291.29 1290.25 Q2290.07 1289.01 2290.07 1287.07 Q2290.07 1286.44 2290.56 1284.42 Q2291.05 1282.38 2293.72 1271.77 L2289.48 1271.77 Q2288.9 1271.77 2288.67 1271.75 Q2288.45 1271.73 2288.29 1271.61 Q2288.15 1271.47 2288.15 1271.19 Q2288.15 1270.74 2288.34 1270.55 Q2288.52 1270.34 2288.76 1270.32 Q2289.02 1270.27 2289.6 1270.27 L2294.1 1270.27 L2295.97 1262.66 Q2296.16 1261.91 2296.63 1261.49 Q2297.12 1261.05 2297.4 1261 Q2297.68 1260.93 2297.89 1260.93 Q2298.53 1260.93 2298.9 1261.28 Q2299.28 1261.61 2299.28 1262.22 Q2299.28 1262.54 2297.31 1270.27 L2301.52 1270.27 Q2302.06 1270.27 2302.27 1270.3 Q2302.51 1270.32 2302.7 1270.44 Q2302.88 1270.55 2302.88 1270.81 Z" fill="#000000" fill-rule="evenodd" fill-opacity="1" /><path clip-path="url(#clip630)" d="M2307.85 1267.85 Q2307.85 1267.24 2307.9 1267.06 Q2307.96 1266.88 2308.22 1266.6 L2314.67 1259.42 Q2318.19 1255.46 2318.19 1252 Q2318.19 1249.75 2317.01 1248.14 Q2315.85 1246.54 2313.7 1246.54 Q2312.22 1246.54 2310.98 1247.44 Q2309.73 1248.34 2309.16 1249.95 Q2309.26 1249.91 2309.6 1249.91 Q2310.44 1249.91 2310.9 1250.44 Q2311.37 1250.96 2311.37 1251.67 Q2311.37 1252.57 2310.78 1253.01 Q2310.21 1253.44 2309.63 1253.44 Q2309.4 1253.44 2309.09 1253.39 Q2308.8 1253.34 2308.32 1252.88 Q2307.85 1252.41 2307.85 1251.57 Q2307.85 1249.22 2309.62 1247.36 Q2311.41 1245.49 2314.13 1245.49 Q2317.21 1245.49 2319.23 1247.32 Q2321.26 1249.14 2321.26 1252 Q2321.26 1253 2320.95 1253.91 Q2320.65 1254.82 2320.24 1255.52 Q2319.85 1256.23 2318.77 1257.36 Q2317.68 1258.49 2316.82 1259.29 Q2315.95 1260.1 2314 1261.8 L2310.44 1265.26 L2316.49 1265.26 Q2319.44 1265.26 2319.67 1265 Q2320 1264.52 2320.41 1262.01 L2321.26 1262.01 L2320.31 1267.85 L2307.85 1267.85 Z" fill="#000000" fill-rule="evenodd" fill-opacity="1" /><path clip-path="url(#clip630)" d="M2371.22 1278.28 Q2371.51 1278.57 2371.51 1278.96 Q2371.51 1279.36 2371.22 1279.64 Q2370.94 1279.92 2370.55 1279.92 L2340.52 1279.92 Q2340.12 1279.92 2339.84 1279.64 Q2339.56 1279.36 2339.56 1278.96 Q2339.56 1278.57 2339.84 1278.28 Q2340.12 1278 2340.52 1278 L2370.55 1278 Q2370.94 1278 2371.22 1278.28 Z" fill="#000000" fill-rule="evenodd" fill-opacity="1" /><path clip-path="url(#clip630)" d="M2389.83 1263.58 L2389.83 1262.08 Q2395.59 1262.08 2398.56 1259.01 Q2399.38 1259.01 2399.52 1259.2 Q2399.66 1259.38 2399.66 1260.25 L2399.66 1287.16 Q2399.66 1288.59 2400.37 1289.04 Q2401.07 1289.48 2404.14 1289.48 L2405.66 1289.48 L2405.66 1290.96 Q2403.97 1290.82 2397.88 1290.82 Q2391.79 1290.82 2390.13 1290.96 L2390.13 1289.48 L2391.65 1289.48 Q2394.67 1289.48 2395.4 1289.06 Q2396.13 1288.61 2396.13 1287.16 L2396.13 1262.31 Q2393.62 1263.58 2389.83 1263.58 Z" fill="#000000" fill-rule="evenodd" fill-opacity="1" /><path clip-path="url(#clip630)" d="M2408.07 1275.61 Q2408.07 1268.56 2409.85 1264.72 Q2412.34 1259.01 2418.19 1259.01 Q2419.43 1259.01 2420.72 1259.36 Q2422.03 1259.69 2423.67 1260.98 Q2425.34 1262.26 2426.34 1264.37 Q2428.26 1268.45 2428.26 1275.61 Q2428.26 1282.62 2426.48 1286.44 Q2423.88 1292.01 2418.15 1292.01 Q2415.99 1292.01 2413.79 1290.91 Q2411.61 1289.81 2410.23 1287.16 Q2408.07 1283.2 2408.07 1275.61 M2412.06 1275.03 Q2412.06 1282.27 2412.57 1285.15 Q2413.16 1288.26 2414.75 1289.62 Q2416.37 1290.96 2418.15 1290.96 Q2420.07 1290.96 2421.66 1289.53 Q2423.28 1288.07 2423.77 1284.96 Q2424.31 1281.89 2424.28 1275.03 Q2424.28 1268.35 2423.81 1265.68 Q2423.18 1262.57 2421.5 1261.33 Q2419.83 1260.06 2418.15 1260.06 Q2417.51 1260.06 2416.83 1260.25 Q2416.18 1260.44 2415.22 1260.98 Q2414.26 1261.51 2413.51 1262.85 Q2412.78 1264.18 2412.43 1266.2 Q2412.06 1268.8 2412.06 1275.03 Z" fill="#000000" fill-rule="evenodd" fill-opacity="1" /><polyline clip-path="url(#clip630)" style="stroke:#e26f46; stroke-linecap:round; stroke-linejoin:round; stroke-width:4; stroke-opacity:1; fill:none" points="
  1813.6,1355.7 1979.51,1355.7 
  "/>
<path clip-path="url(#clip630)" d="M2023 1343.02 L2016.66 1360.22 L2029.36 1360.22 L2023 1343.02 M2020.36 1338.42 L2025.66 1338.42 L2038.83 1372.98 L2033.97 1372.98 L2030.82 1364.11 L2015.24 1364.11 L2012.09 1372.98 L2007.16 1372.98 L2020.36 1338.42 Z" fill="#000000" fill-rule="evenodd" fill-opacity="1" /><path clip-path="url(#clip630)" d="M2060.22 1347.81 L2060.22 1351.84 Q2058.41 1350.92 2056.47 1350.45 Q2054.53 1349.99 2052.44 1349.99 Q2049.27 1349.99 2047.67 1350.96 Q2046.1 1351.93 2046.1 1353.88 Q2046.1 1355.36 2047.23 1356.22 Q2048.37 1357.05 2051.79 1357.81 L2053.25 1358.14 Q2057.79 1359.11 2059.69 1360.89 Q2061.61 1362.65 2061.61 1365.82 Q2061.61 1369.43 2058.74 1371.54 Q2055.89 1373.65 2050.89 1373.65 Q2048.81 1373.65 2046.54 1373.23 Q2044.29 1372.84 2041.79 1372.03 L2041.79 1367.63 Q2044.15 1368.85 2046.45 1369.48 Q2048.74 1370.08 2050.98 1370.08 Q2053.99 1370.08 2055.61 1369.06 Q2057.23 1368.02 2057.23 1366.15 Q2057.23 1364.41 2056.05 1363.48 Q2054.9 1362.56 2050.94 1361.7 L2049.46 1361.36 Q2045.5 1360.52 2043.74 1358.81 Q2041.98 1357.07 2041.98 1354.06 Q2041.98 1350.41 2044.57 1348.42 Q2047.16 1346.42 2051.93 1346.42 Q2054.29 1346.42 2056.38 1346.77 Q2058.46 1347.12 2060.22 1347.81 Z" fill="#000000" fill-rule="evenodd" fill-opacity="1" /><path clip-path="url(#clip630)" d="M2073.74 1335.06 L2078.34 1335.06 L2070.8 1343.76 L2067.26 1343.76 L2073.74 1335.06 M2068.39 1347.05 L2072.65 1347.05 L2072.65 1372.98 L2068.39 1372.98 L2068.39 1347.05 M2070.52 1346.42 L2070.52 1346.42 Z" fill="#000000" fill-rule="evenodd" fill-opacity="1" /><path clip-path="url(#clip630)" d="M2103.11 1357.33 L2103.11 1372.98 L2098.85 1372.98 L2098.85 1357.47 Q2098.85 1353.79 2097.42 1351.96 Q2095.98 1350.13 2093.11 1350.13 Q2089.66 1350.13 2087.67 1352.33 Q2085.68 1354.53 2085.68 1358.32 L2085.68 1372.98 L2081.4 1372.98 L2081.4 1347.05 L2085.68 1347.05 L2085.68 1351.08 Q2087.21 1348.74 2089.27 1347.58 Q2091.35 1346.42 2094.06 1346.42 Q2098.53 1346.42 2100.82 1349.2 Q2103.11 1351.96 2103.11 1357.33 Z" fill="#000000" fill-rule="evenodd" fill-opacity="1" /><path clip-path="url(#clip630)" d="M2115.82 1339.69 L2115.82 1347.05 L2124.59 1347.05 L2124.59 1350.36 L2115.82 1350.36 L2115.82 1364.43 Q2115.82 1367.61 2116.68 1368.51 Q2117.56 1369.41 2120.22 1369.41 L2124.59 1369.41 L2124.59 1372.98 L2120.22 1372.98 Q2115.29 1372.98 2113.41 1371.15 Q2111.54 1369.29 2111.54 1364.43 L2111.54 1350.36 L2108.41 1350.36 L2108.41 1347.05 L2111.54 1347.05 L2111.54 1339.69 L2115.82 1339.69 Z" fill="#000000" fill-rule="evenodd" fill-opacity="1" /><path clip-path="url(#clip630)" d="M2140.24 1350.04 Q2136.82 1350.04 2134.83 1352.72 Q2132.83 1355.38 2132.83 1360.04 Q2132.83 1364.69 2134.8 1367.37 Q2136.79 1370.04 2140.24 1370.04 Q2143.65 1370.04 2145.64 1367.35 Q2147.63 1364.67 2147.63 1360.04 Q2147.63 1355.43 2145.64 1352.74 Q2143.65 1350.04 2140.24 1350.04 M2140.24 1346.42 Q2145.8 1346.42 2148.97 1350.04 Q2152.14 1353.65 2152.14 1360.04 Q2152.14 1366.4 2148.97 1370.04 Q2145.8 1373.65 2140.24 1373.65 Q2134.66 1373.65 2131.49 1370.04 Q2128.34 1366.4 2128.34 1360.04 Q2128.34 1353.65 2131.49 1350.04 Q2134.66 1346.42 2140.24 1346.42 Z" fill="#000000" fill-rule="evenodd" fill-opacity="1" /><path clip-path="url(#clip630)" d="M2163.41 1339.69 L2163.41 1347.05 L2172.19 1347.05 L2172.19 1350.36 L2163.41 1350.36 L2163.41 1364.43 Q2163.41 1367.61 2164.27 1368.51 Q2165.15 1369.41 2167.81 1369.41 L2172.19 1369.41 L2172.19 1372.98 L2167.81 1372.98 Q2162.88 1372.98 2161.01 1371.15 Q2159.13 1369.29 2159.13 1364.43 L2159.13 1350.36 L2156.01 1350.36 L2156.01 1347.05 L2159.13 1347.05 L2159.13 1339.69 L2163.41 1339.69 Z" fill="#000000" fill-rule="evenodd" fill-opacity="1" /><path clip-path="url(#clip630)" d="M2189.57 1359.94 Q2184.41 1359.94 2182.42 1361.12 Q2180.43 1362.3 2180.43 1365.15 Q2180.43 1367.42 2181.91 1368.76 Q2183.41 1370.08 2185.98 1370.08 Q2189.52 1370.08 2191.65 1367.58 Q2193.81 1365.06 2193.81 1360.89 L2193.81 1359.94 L2189.57 1359.94 M2198.07 1358.18 L2198.07 1372.98 L2193.81 1372.98 L2193.81 1369.04 Q2192.35 1371.4 2190.17 1372.54 Q2188 1373.65 2184.85 1373.65 Q2180.87 1373.65 2178.51 1371.42 Q2176.17 1369.18 2176.17 1365.43 Q2176.17 1361.05 2179.08 1358.83 Q2182.02 1356.61 2187.83 1356.61 L2193.81 1356.61 L2193.81 1356.19 Q2193.81 1353.25 2191.86 1351.66 Q2189.94 1350.04 2186.45 1350.04 Q2184.22 1350.04 2182.12 1350.57 Q2180.01 1351.1 2178.07 1352.17 L2178.07 1348.23 Q2180.4 1347.33 2182.6 1346.89 Q2184.8 1346.42 2186.89 1346.42 Q2192.51 1346.42 2195.29 1349.34 Q2198.07 1352.26 2198.07 1358.18 Z" fill="#000000" fill-rule="evenodd" fill-opacity="1" /><path clip-path="url(#clip630)" d="M2223.37 1347.81 L2223.37 1351.84 Q2221.56 1350.92 2219.62 1350.45 Q2217.67 1349.99 2215.59 1349.99 Q2212.42 1349.99 2210.82 1350.96 Q2209.25 1351.93 2209.25 1353.88 Q2209.25 1355.36 2210.38 1356.22 Q2211.52 1357.05 2214.94 1357.81 L2216.4 1358.14 Q2220.94 1359.11 2222.83 1360.89 Q2224.76 1362.65 2224.76 1365.82 Q2224.76 1369.43 2221.89 1371.54 Q2219.04 1373.65 2214.04 1373.65 Q2211.95 1373.65 2209.69 1373.23 Q2207.44 1372.84 2204.94 1372.03 L2204.94 1367.63 Q2207.3 1368.85 2209.59 1369.48 Q2211.89 1370.08 2214.13 1370.08 Q2217.14 1370.08 2218.76 1369.06 Q2220.38 1368.02 2220.38 1366.15 Q2220.38 1364.41 2219.2 1363.48 Q2218.04 1362.56 2214.08 1361.7 L2212.6 1361.36 Q2208.64 1360.52 2206.89 1358.81 Q2205.13 1357.07 2205.13 1354.06 Q2205.13 1350.41 2207.72 1348.42 Q2210.31 1346.42 2215.08 1346.42 Q2217.44 1346.42 2219.52 1346.77 Q2221.61 1347.12 2223.37 1347.81 Z" fill="#000000" fill-rule="evenodd" fill-opacity="1" /><path clip-path="url(#clip630)" d="M2243.55 1347.05 L2248.07 1347.05 L2256.17 1368.81 L2264.27 1347.05 L2268.78 1347.05 L2259.06 1372.98 L2253.27 1372.98 L2243.55 1347.05 Z" fill="#000000" fill-rule="evenodd" fill-opacity="1" /><path clip-path="url(#clip630)" d="M2296.84 1358.95 L2296.84 1361.03 L2277.26 1361.03 Q2277.53 1365.43 2279.89 1367.74 Q2282.28 1370.04 2286.51 1370.04 Q2288.97 1370.04 2291.26 1369.43 Q2293.57 1368.83 2295.84 1367.63 L2295.84 1371.66 Q2293.55 1372.63 2291.14 1373.14 Q2288.74 1373.65 2286.26 1373.65 Q2280.06 1373.65 2276.42 1370.04 Q2272.81 1366.42 2272.81 1360.27 Q2272.81 1353.9 2276.24 1350.17 Q2279.69 1346.42 2285.52 1346.42 Q2290.75 1346.42 2293.78 1349.8 Q2296.84 1353.16 2296.84 1358.95 M2292.58 1357.7 Q2292.53 1354.2 2290.61 1352.12 Q2288.71 1350.04 2285.57 1350.04 Q2282 1350.04 2279.85 1352.05 Q2277.72 1354.06 2277.39 1357.72 L2292.58 1357.7 Z" fill="#000000" fill-rule="evenodd" fill-opacity="1" /><path clip-path="url(#clip630)" d="M2318.85 1351.03 Q2318.13 1350.61 2317.28 1350.43 Q2316.45 1350.22 2315.43 1350.22 Q2311.82 1350.22 2309.87 1352.58 Q2307.95 1354.92 2307.95 1359.32 L2307.95 1372.98 L2303.67 1372.98 L2303.67 1347.05 L2307.95 1347.05 L2307.95 1351.08 Q2309.29 1348.72 2311.45 1347.58 Q2313.6 1346.42 2316.68 1346.42 Q2317.12 1346.42 2317.65 1346.49 Q2318.18 1346.54 2318.83 1346.66 L2318.85 1351.03 Z" fill="#000000" fill-rule="evenodd" fill-opacity="1" /><path clip-path="url(#clip630)" d="M2327.53 1339.69 L2327.53 1347.05 L2336.31 1347.05 L2336.31 1350.36 L2327.53 1350.36 L2327.53 1364.43 Q2327.53 1367.61 2328.39 1368.51 Q2329.27 1369.41 2331.93 1369.41 L2336.31 1369.41 L2336.31 1372.98 L2331.93 1372.98 Q2327 1372.98 2325.13 1371.15 Q2323.25 1369.29 2323.25 1364.43 L2323.25 1350.36 L2320.13 1350.36 L2320.13 1347.05 L2323.25 1347.05 L2323.25 1339.69 L2327.53 1339.69 Z" fill="#000000" fill-rule="evenodd" fill-opacity="1" /><path clip-path="url(#clip630)" d="M2341.91 1347.05 L2346.17 1347.05 L2346.17 1372.98 L2341.91 1372.98 L2341.91 1347.05 M2341.91 1336.96 L2346.17 1336.96 L2346.17 1342.35 L2341.91 1342.35 L2341.91 1336.96 Z" fill="#000000" fill-rule="evenodd" fill-opacity="1" /><path clip-path="url(#clip630)" d="M2373.74 1348.04 L2373.74 1352.03 Q2371.93 1351.03 2370.1 1350.54 Q2368.3 1350.04 2366.44 1350.04 Q2362.3 1350.04 2360.01 1352.67 Q2357.72 1355.29 2357.72 1360.04 Q2357.72 1364.78 2360.01 1367.42 Q2362.3 1370.04 2366.44 1370.04 Q2368.3 1370.04 2370.1 1369.55 Q2371.93 1369.04 2373.74 1368.04 L2373.74 1371.98 Q2371.95 1372.81 2370.03 1373.23 Q2368.13 1373.65 2365.98 1373.65 Q2360.13 1373.65 2356.68 1369.97 Q2353.23 1366.29 2353.23 1360.04 Q2353.23 1353.69 2356.7 1350.06 Q2360.19 1346.42 2366.26 1346.42 Q2368.23 1346.42 2370.1 1346.84 Q2371.98 1347.23 2373.74 1348.04 Z" fill="#000000" fill-rule="evenodd" fill-opacity="1" /><path clip-path="url(#clip630)" d="M2392.93 1359.94 Q2387.76 1359.94 2385.77 1361.12 Q2383.78 1362.3 2383.78 1365.15 Q2383.78 1367.42 2385.26 1368.76 Q2386.77 1370.08 2389.34 1370.08 Q2392.88 1370.08 2395.01 1367.58 Q2397.16 1365.06 2397.16 1360.89 L2397.16 1359.94 L2392.93 1359.94 M2401.42 1358.18 L2401.42 1372.98 L2397.16 1372.98 L2397.16 1369.04 Q2395.7 1371.4 2393.53 1372.54 Q2391.35 1373.65 2388.2 1373.65 Q2384.22 1373.65 2381.86 1371.42 Q2379.52 1369.18 2379.52 1365.43 Q2379.52 1361.05 2382.44 1358.83 Q2385.38 1356.61 2391.19 1356.61 L2397.16 1356.61 L2397.16 1356.19 Q2397.16 1353.25 2395.22 1351.66 Q2393.3 1350.04 2389.8 1350.04 Q2387.58 1350.04 2385.47 1350.57 Q2383.37 1351.1 2381.42 1352.17 L2381.42 1348.23 Q2383.76 1347.33 2385.96 1346.89 Q2388.16 1346.42 2390.24 1346.42 Q2395.87 1346.42 2398.64 1349.34 Q2401.42 1352.26 2401.42 1358.18 Z" fill="#000000" fill-rule="evenodd" fill-opacity="1" /><path clip-path="url(#clip630)" d="M2410.19 1336.96 L2414.45 1336.96 L2414.45 1372.98 L2410.19 1372.98 L2410.19 1336.96 Z" fill="#000000" fill-rule="evenodd" fill-opacity="1" /><path clip-path="url(#clip630)" d="M2445.54 1358.95 L2445.54 1361.03 L2425.96 1361.03 Q2426.24 1365.43 2428.6 1367.74 Q2430.98 1370.04 2435.22 1370.04 Q2437.67 1370.04 2439.96 1369.43 Q2442.28 1368.83 2444.55 1367.63 L2444.55 1371.66 Q2442.25 1372.63 2439.85 1373.14 Q2437.44 1373.65 2434.96 1373.65 Q2428.76 1373.65 2425.13 1370.04 Q2421.51 1366.42 2421.51 1360.27 Q2421.51 1353.9 2424.94 1350.17 Q2428.39 1346.42 2434.22 1346.42 Q2439.45 1346.42 2442.49 1349.8 Q2445.54 1353.16 2445.54 1358.95 M2441.28 1357.7 Q2441.24 1354.2 2439.31 1352.12 Q2437.42 1350.04 2434.27 1350.04 Q2430.7 1350.04 2428.55 1352.05 Q2426.42 1354.06 2426.1 1357.72 L2441.28 1357.7 Z" fill="#000000" fill-rule="evenodd" fill-opacity="1" /><path clip-path="url(#clip630)" d="M2469.06 1347.81 L2469.06 1351.84 Q2467.25 1350.92 2465.31 1350.45 Q2463.37 1349.99 2461.28 1349.99 Q2458.11 1349.99 2456.51 1350.96 Q2454.94 1351.93 2454.94 1353.88 Q2454.94 1355.36 2456.07 1356.22 Q2457.21 1357.05 2460.63 1357.81 L2462.09 1358.14 Q2466.63 1359.11 2468.53 1360.89 Q2470.45 1362.65 2470.45 1365.82 Q2470.45 1369.43 2467.58 1371.54 Q2464.73 1373.65 2459.73 1373.65 Q2457.65 1373.65 2455.38 1373.23 Q2453.13 1372.84 2450.63 1372.03 L2450.63 1367.63 Q2453 1368.85 2455.29 1369.48 Q2457.58 1370.08 2459.82 1370.08 Q2462.83 1370.08 2464.45 1369.06 Q2466.07 1368.02 2466.07 1366.15 Q2466.07 1364.41 2464.89 1363.48 Q2463.74 1362.56 2459.78 1361.7 L2458.3 1361.36 Q2454.34 1360.52 2452.58 1358.81 Q2450.82 1357.07 2450.82 1354.06 Q2450.82 1350.41 2453.41 1348.42 Q2456 1346.42 2460.77 1346.42 Q2463.13 1346.42 2465.22 1346.77 Q2467.3 1347.12 2469.06 1347.81 Z" fill="#000000" fill-rule="evenodd" fill-opacity="1" /><polyline clip-path="url(#clip630)" style="stroke:#3da44d; stroke-linecap:round; stroke-linejoin:round; stroke-width:4; stroke-opacity:1; fill:none" points="
  1813.6,1477.47 1979.51,1477.47 
  "/>
<path clip-path="url(#clip630)" d="M2023 1464.8 L2016.66 1482 L2029.36 1482 L2023 1464.8 M2020.36 1460.19 L2025.66 1460.19 L2038.83 1494.75 L2033.97 1494.75 L2030.82 1485.89 L2015.24 1485.89 L2012.09 1494.75 L2007.16 1494.75 L2020.36 1460.19 Z" fill="#000000" fill-rule="evenodd" fill-opacity="1" /><path clip-path="url(#clip630)" d="M2060.22 1469.59 L2060.22 1473.62 Q2058.41 1472.69 2056.47 1472.23 Q2054.53 1471.77 2052.44 1471.77 Q2049.27 1471.77 2047.67 1472.74 Q2046.1 1473.71 2046.1 1475.66 Q2046.1 1477.14 2047.23 1478 Q2048.37 1478.83 2051.79 1479.59 L2053.25 1479.92 Q2057.79 1480.89 2059.69 1482.67 Q2061.61 1484.43 2061.61 1487.6 Q2061.61 1491.21 2058.74 1493.32 Q2055.89 1495.43 2050.89 1495.43 Q2048.81 1495.43 2046.54 1495.01 Q2044.29 1494.62 2041.79 1493.81 L2041.79 1489.41 Q2044.15 1490.63 2046.45 1491.26 Q2048.74 1491.86 2050.98 1491.86 Q2053.99 1491.86 2055.61 1490.84 Q2057.23 1489.8 2057.23 1487.93 Q2057.23 1486.19 2056.05 1485.26 Q2054.9 1484.34 2050.94 1483.48 L2049.46 1483.13 Q2045.5 1482.3 2043.74 1480.59 Q2041.98 1478.85 2041.98 1475.84 Q2041.98 1472.18 2044.57 1470.19 Q2047.16 1468.2 2051.93 1468.2 Q2054.29 1468.2 2056.38 1468.55 Q2058.46 1468.9 2060.22 1469.59 Z" fill="#000000" fill-rule="evenodd" fill-opacity="1" /><path clip-path="url(#clip630)" d="M2073.74 1456.84 L2078.34 1456.84 L2070.8 1465.54 L2067.26 1465.54 L2073.74 1456.84 M2068.39 1468.83 L2072.65 1468.83 L2072.65 1494.75 L2068.39 1494.75 L2068.39 1468.83 M2070.52 1468.2 L2070.52 1468.2 Z" fill="#000000" fill-rule="evenodd" fill-opacity="1" /><path clip-path="url(#clip630)" d="M2103.11 1479.11 L2103.11 1494.75 L2098.85 1494.75 L2098.85 1479.25 Q2098.85 1475.56 2097.42 1473.74 Q2095.98 1471.91 2093.11 1471.91 Q2089.66 1471.91 2087.67 1474.11 Q2085.68 1476.31 2085.68 1480.1 L2085.68 1494.75 L2081.4 1494.75 L2081.4 1468.83 L2085.68 1468.83 L2085.68 1472.86 Q2087.21 1470.52 2089.27 1469.36 Q2091.35 1468.2 2094.06 1468.2 Q2098.53 1468.2 2100.82 1470.98 Q2103.11 1473.74 2103.11 1479.11 Z" fill="#000000" fill-rule="evenodd" fill-opacity="1" /><path clip-path="url(#clip630)" d="M2115.82 1461.47 L2115.82 1468.83 L2124.59 1468.83 L2124.59 1472.14 L2115.82 1472.14 L2115.82 1486.21 Q2115.82 1489.38 2116.68 1490.29 Q2117.56 1491.19 2120.22 1491.19 L2124.59 1491.19 L2124.59 1494.75 L2120.22 1494.75 Q2115.29 1494.75 2113.41 1492.93 Q2111.54 1491.07 2111.54 1486.21 L2111.54 1472.14 L2108.41 1472.14 L2108.41 1468.83 L2111.54 1468.83 L2111.54 1461.47 L2115.82 1461.47 Z" fill="#000000" fill-rule="evenodd" fill-opacity="1" /><path clip-path="url(#clip630)" d="M2140.24 1471.81 Q2136.82 1471.81 2134.83 1474.5 Q2132.83 1477.16 2132.83 1481.81 Q2132.83 1486.47 2134.8 1489.15 Q2136.79 1491.81 2140.24 1491.81 Q2143.65 1491.81 2145.64 1489.13 Q2147.63 1486.44 2147.63 1481.81 Q2147.63 1477.21 2145.64 1474.52 Q2143.65 1471.81 2140.24 1471.81 M2140.24 1468.2 Q2145.8 1468.2 2148.97 1471.81 Q2152.14 1475.43 2152.14 1481.81 Q2152.14 1488.18 2148.97 1491.81 Q2145.8 1495.43 2140.24 1495.43 Q2134.66 1495.43 2131.49 1491.81 Q2128.34 1488.18 2128.34 1481.81 Q2128.34 1475.43 2131.49 1471.81 Q2134.66 1468.2 2140.24 1468.2 Z" fill="#000000" fill-rule="evenodd" fill-opacity="1" /><path clip-path="url(#clip630)" d="M2163.41 1461.47 L2163.41 1468.83 L2172.19 1468.83 L2172.19 1472.14 L2163.41 1472.14 L2163.41 1486.21 Q2163.41 1489.38 2164.27 1490.29 Q2165.15 1491.19 2167.81 1491.19 L2172.19 1491.19 L2172.19 1494.75 L2167.81 1494.75 Q2162.88 1494.75 2161.01 1492.93 Q2159.13 1491.07 2159.13 1486.21 L2159.13 1472.14 L2156.01 1472.14 L2156.01 1468.83 L2159.13 1468.83 L2159.13 1461.47 L2163.41 1461.47 Z" fill="#000000" fill-rule="evenodd" fill-opacity="1" /><path clip-path="url(#clip630)" d="M2189.57 1481.72 Q2184.41 1481.72 2182.42 1482.9 Q2180.43 1484.08 2180.43 1486.93 Q2180.43 1489.2 2181.91 1490.54 Q2183.41 1491.86 2185.98 1491.86 Q2189.52 1491.86 2191.65 1489.36 Q2193.81 1486.84 2193.81 1482.67 L2193.81 1481.72 L2189.57 1481.72 M2198.07 1479.96 L2198.07 1494.75 L2193.81 1494.75 L2193.81 1490.82 Q2192.35 1493.18 2190.17 1494.31 Q2188 1495.43 2184.85 1495.43 Q2180.87 1495.43 2178.51 1493.2 Q2176.17 1490.96 2176.17 1487.21 Q2176.17 1482.83 2179.08 1480.61 Q2182.02 1478.39 2187.83 1478.39 L2193.81 1478.39 L2193.81 1477.97 Q2193.81 1475.03 2191.86 1473.43 Q2189.94 1471.81 2186.45 1471.81 Q2184.22 1471.81 2182.12 1472.35 Q2180.01 1472.88 2178.07 1473.94 L2178.07 1470.01 Q2180.4 1469.11 2182.6 1468.67 Q2184.8 1468.2 2186.89 1468.2 Q2192.51 1468.2 2195.29 1471.12 Q2198.07 1474.04 2198.07 1479.96 Z" fill="#000000" fill-rule="evenodd" fill-opacity="1" /><path clip-path="url(#clip630)" d="M2223.37 1469.59 L2223.37 1473.62 Q2221.56 1472.69 2219.62 1472.23 Q2217.67 1471.77 2215.59 1471.77 Q2212.42 1471.77 2210.82 1472.74 Q2209.25 1473.71 2209.25 1475.66 Q2209.25 1477.14 2210.38 1478 Q2211.52 1478.83 2214.94 1479.59 L2216.4 1479.92 Q2220.94 1480.89 2222.83 1482.67 Q2224.76 1484.43 2224.76 1487.6 Q2224.76 1491.21 2221.89 1493.32 Q2219.04 1495.43 2214.04 1495.43 Q2211.95 1495.43 2209.69 1495.01 Q2207.44 1494.62 2204.94 1493.81 L2204.94 1489.41 Q2207.3 1490.63 2209.59 1491.26 Q2211.89 1491.86 2214.13 1491.86 Q2217.14 1491.86 2218.76 1490.84 Q2220.38 1489.8 2220.38 1487.93 Q2220.38 1486.19 2219.2 1485.26 Q2218.04 1484.34 2214.08 1483.48 L2212.6 1483.13 Q2208.64 1482.3 2206.89 1480.59 Q2205.13 1478.85 2205.13 1475.84 Q2205.13 1472.18 2207.72 1470.19 Q2210.31 1468.2 2215.08 1468.2 Q2217.44 1468.2 2219.52 1468.55 Q2221.61 1468.9 2223.37 1469.59 Z" fill="#000000" fill-rule="evenodd" fill-opacity="1" /><path clip-path="url(#clip630)" d="M2268.16 1479.11 L2268.16 1494.75 L2263.9 1494.75 L2263.9 1479.25 Q2263.9 1475.56 2262.46 1473.74 Q2261.03 1471.91 2258.16 1471.91 Q2254.71 1471.91 2252.72 1474.11 Q2250.73 1476.31 2250.73 1480.1 L2250.73 1494.75 L2246.45 1494.75 L2246.45 1458.74 L2250.73 1458.74 L2250.73 1472.86 Q2252.26 1470.52 2254.32 1469.36 Q2256.4 1468.2 2259.11 1468.2 Q2263.58 1468.2 2265.87 1470.98 Q2268.16 1473.74 2268.16 1479.11 Z" fill="#000000" fill-rule="evenodd" fill-opacity="1" /><path clip-path="url(#clip630)" d="M2286.7 1471.81 Q2283.27 1471.81 2281.28 1474.5 Q2279.29 1477.16 2279.29 1481.81 Q2279.29 1486.47 2281.26 1489.15 Q2283.25 1491.81 2286.7 1491.81 Q2290.1 1491.81 2292.09 1489.13 Q2294.08 1486.44 2294.08 1481.81 Q2294.08 1477.21 2292.09 1474.52 Q2290.1 1471.81 2286.7 1471.81 M2286.7 1468.2 Q2292.26 1468.2 2295.43 1471.81 Q2298.6 1475.43 2298.6 1481.81 Q2298.6 1488.18 2295.43 1491.81 Q2292.26 1495.43 2286.7 1495.43 Q2281.12 1495.43 2277.95 1491.81 Q2274.8 1488.18 2274.8 1481.81 Q2274.8 1475.43 2277.95 1471.81 Q2281.12 1468.2 2286.7 1468.2 Z" fill="#000000" fill-rule="evenodd" fill-opacity="1" /><path clip-path="url(#clip630)" d="M2320.68 1472.81 Q2319.96 1472.39 2319.11 1472.21 Q2318.27 1472 2317.26 1472 Q2313.64 1472 2311.7 1474.36 Q2309.78 1476.7 2309.78 1481.1 L2309.78 1494.75 L2305.5 1494.75 L2305.5 1468.83 L2309.78 1468.83 L2309.78 1472.86 Q2311.12 1470.5 2313.27 1469.36 Q2315.43 1468.2 2318.51 1468.2 Q2318.95 1468.2 2319.48 1468.27 Q2320.01 1468.32 2320.66 1468.43 L2320.68 1472.81 Z" fill="#000000" fill-rule="evenodd" fill-opacity="1" /><path clip-path="url(#clip630)" d="M2325.15 1468.83 L2329.41 1468.83 L2329.41 1494.75 L2325.15 1494.75 L2325.15 1468.83 M2325.15 1458.74 L2329.41 1458.74 L2329.41 1464.13 L2325.15 1464.13 L2325.15 1458.74 Z" fill="#000000" fill-rule="evenodd" fill-opacity="1" /><path clip-path="url(#clip630)" d="M2336.47 1468.83 L2356.7 1468.83 L2356.7 1472.72 L2340.68 1491.35 L2356.7 1491.35 L2356.7 1494.75 L2335.89 1494.75 L2335.89 1490.87 L2351.91 1472.23 L2336.47 1472.23 L2336.47 1468.83 Z" fill="#000000" fill-rule="evenodd" fill-opacity="1" /><path clip-path="url(#clip630)" d="M2373.25 1471.81 Q2369.82 1471.81 2367.83 1474.5 Q2365.84 1477.16 2365.84 1481.81 Q2365.84 1486.47 2367.81 1489.15 Q2369.8 1491.81 2373.25 1491.81 Q2376.65 1491.81 2378.64 1489.13 Q2380.63 1486.44 2380.63 1481.81 Q2380.63 1477.21 2378.64 1474.52 Q2376.65 1471.81 2373.25 1471.81 M2373.25 1468.2 Q2378.81 1468.2 2381.98 1471.81 Q2385.15 1475.43 2385.15 1481.81 Q2385.15 1488.18 2381.98 1491.81 Q2378.81 1495.43 2373.25 1495.43 Q2367.67 1495.43 2364.5 1491.81 Q2361.35 1488.18 2361.35 1481.81 Q2361.35 1475.43 2364.5 1471.81 Q2367.67 1468.2 2373.25 1468.2 Z" fill="#000000" fill-rule="evenodd" fill-opacity="1" /><path clip-path="url(#clip630)" d="M2413.76 1479.11 L2413.76 1494.75 L2409.5 1494.75 L2409.5 1479.25 Q2409.5 1475.56 2408.07 1473.74 Q2406.63 1471.91 2403.76 1471.91 Q2400.31 1471.91 2398.32 1474.11 Q2396.33 1476.31 2396.33 1480.1 L2396.33 1494.75 L2392.05 1494.75 L2392.05 1468.83 L2396.33 1468.83 L2396.33 1472.86 Q2397.86 1470.52 2399.92 1469.36 Q2402 1468.2 2404.71 1468.2 Q2409.18 1468.2 2411.47 1470.98 Q2413.76 1473.74 2413.76 1479.11 Z" fill="#000000" fill-rule="evenodd" fill-opacity="1" /><path clip-path="url(#clip630)" d="M2426.47 1461.47 L2426.47 1468.83 L2435.24 1468.83 L2435.24 1472.14 L2426.47 1472.14 L2426.47 1486.21 Q2426.47 1489.38 2427.32 1490.29 Q2428.2 1491.19 2430.87 1491.19 L2435.24 1491.19 L2435.24 1494.75 L2430.87 1494.75 Q2425.94 1494.75 2424.06 1492.93 Q2422.19 1491.07 2422.19 1486.21 L2422.19 1472.14 L2419.06 1472.14 L2419.06 1468.83 L2422.19 1468.83 L2422.19 1461.47 L2426.47 1461.47 Z" fill="#000000" fill-rule="evenodd" fill-opacity="1" /><path clip-path="url(#clip630)" d="M2452.62 1481.72 Q2447.46 1481.72 2445.47 1482.9 Q2443.48 1484.08 2443.48 1486.93 Q2443.48 1489.2 2444.96 1490.54 Q2446.47 1491.86 2449.04 1491.86 Q2452.58 1491.86 2454.71 1489.36 Q2456.86 1486.84 2456.86 1482.67 L2456.86 1481.72 L2452.62 1481.72 M2461.12 1479.96 L2461.12 1494.75 L2456.86 1494.75 L2456.86 1490.82 Q2455.4 1493.18 2453.23 1494.31 Q2451.05 1495.43 2447.9 1495.43 Q2443.92 1495.43 2441.56 1493.2 Q2439.22 1490.96 2439.22 1487.21 Q2439.22 1482.83 2442.14 1480.61 Q2445.08 1478.39 2450.89 1478.39 L2456.86 1478.39 L2456.86 1477.97 Q2456.86 1475.03 2454.92 1473.43 Q2453 1471.81 2449.5 1471.81 Q2447.28 1471.81 2445.17 1472.35 Q2443.06 1472.88 2441.12 1473.94 L2441.12 1470.01 Q2443.46 1469.11 2445.66 1468.67 Q2447.86 1468.2 2449.94 1468.2 Q2455.56 1468.2 2458.34 1471.12 Q2461.12 1474.04 2461.12 1479.96 Z" fill="#000000" fill-rule="evenodd" fill-opacity="1" /><path clip-path="url(#clip630)" d="M2469.89 1458.74 L2474.15 1458.74 L2474.15 1494.75 L2469.89 1494.75 L2469.89 1458.74 Z" fill="#000000" fill-rule="evenodd" fill-opacity="1" /><path clip-path="url(#clip630)" d="M2505.24 1480.73 L2505.24 1482.81 L2485.66 1482.81 Q2485.93 1487.21 2488.3 1489.52 Q2490.68 1491.81 2494.92 1491.81 Q2497.37 1491.81 2499.66 1491.21 Q2501.98 1490.61 2504.25 1489.41 L2504.25 1493.43 Q2501.95 1494.41 2499.55 1494.92 Q2497.14 1495.43 2494.66 1495.43 Q2488.46 1495.43 2484.82 1491.81 Q2481.21 1488.2 2481.21 1482.05 Q2481.21 1475.68 2484.64 1471.95 Q2488.09 1468.2 2493.92 1468.2 Q2499.15 1468.2 2502.18 1471.58 Q2505.24 1474.94 2505.24 1480.73 M2500.98 1479.48 Q2500.93 1475.98 2499.01 1473.9 Q2497.12 1471.81 2493.97 1471.81 Q2490.4 1471.81 2488.25 1473.83 Q2486.12 1475.84 2485.8 1479.5 L2500.98 1479.48 Z" fill="#000000" fill-rule="evenodd" fill-opacity="1" /><path clip-path="url(#clip630)" d="M2528.76 1469.59 L2528.76 1473.62 Q2526.95 1472.69 2525.01 1472.23 Q2523.06 1471.77 2520.98 1471.77 Q2517.81 1471.77 2516.21 1472.74 Q2514.64 1473.71 2514.64 1475.66 Q2514.64 1477.14 2515.77 1478 Q2516.91 1478.83 2520.33 1479.59 L2521.79 1479.92 Q2526.33 1480.89 2528.23 1482.67 Q2530.15 1484.43 2530.15 1487.6 Q2530.15 1491.21 2527.28 1493.32 Q2524.43 1495.43 2519.43 1495.43 Q2517.35 1495.43 2515.08 1495.01 Q2512.83 1494.62 2510.33 1493.81 L2510.33 1489.41 Q2512.69 1490.63 2514.99 1491.26 Q2517.28 1491.86 2519.52 1491.86 Q2522.53 1491.86 2524.15 1490.84 Q2525.77 1489.8 2525.77 1487.93 Q2525.77 1486.19 2524.59 1485.26 Q2523.43 1484.34 2519.48 1483.48 L2517.99 1483.13 Q2514.04 1482.3 2512.28 1480.59 Q2510.52 1478.85 2510.52 1475.84 Q2510.52 1472.18 2513.11 1470.19 Q2515.7 1468.2 2520.47 1468.2 Q2522.83 1468.2 2524.92 1468.55 Q2527 1468.9 2528.76 1469.59 Z" fill="#000000" fill-rule="evenodd" fill-opacity="1" /></svg>
