<?xml version="1.0" encoding="utf-8"?>
<svg xmlns="http://www.w3.org/2000/svg" xmlns:xlink="http://www.w3.org/1999/xlink" width="528" height="336" viewBox="0 0 2112 1344">
<defs>
  <clipPath id="clip740">
    <rect x="0" y="0" width="2112" height="1344"/>
  </clipPath>
</defs>
<path clip-path="url(#clip740)" d="M0 1344 L2112 1344 L2112 0 L0 0  Z" fill="#ffffff" fill-rule="evenodd" fill-opacity="1"/>
<defs>
  <clipPath id="clip741">
    <rect x="422" y="0" width="1479" height="1344"/>
  </clipPath>
</defs>
<path clip-path="url(#clip740)" d="M183.88 1234.58 L2064.76 1234.58 L2064.76 47.2441 L183.88 47.2441  Z" fill="#ffffff" fill-rule="evenodd" fill-opacity="1"/>
<defs>
  <clipPath id="clip742">
    <rect x="183" y="47" width="1882" height="1188"/>
  </clipPath>
</defs>
<polyline clip-path="url(#clip742)" style="stroke:#000000; stroke-linecap:round; stroke-linejoin:round; stroke-width:2; stroke-opacity:0.1; fill:none" points="200.9,1234.58 200.9,47.2441 "/>
<polyline clip-path="url(#clip742)" style="stroke:#000000; stroke-linecap:round; stroke-linejoin:round; stroke-width:2; stroke-opacity:0.1; fill:none" points="563.025,1234.58 563.025,47.2441 "/>
<polyline clip-path="url(#clip742)" style="stroke:#000000; stroke-linecap:round; stroke-linejoin:round; stroke-width:2; stroke-opacity:0.1; fill:none" points="925.149,1234.58 925.149,47.2441 "/>
<polyline clip-path="url(#clip742)" style="stroke:#000000; stroke-linecap:round; stroke-linejoin:round; stroke-width:2; stroke-opacity:0.1; fill:none" points="1287.27,1234.58 1287.27,47.2441 "/>
<polyline clip-path="url(#clip742)" style="stroke:#000000; stroke-linecap:round; stroke-linejoin:round; stroke-width:2; stroke-opacity:0.1; fill:none" points="1649.4,1234.58 1649.4,47.2441 "/>
<polyline clip-path="url(#clip742)" style="stroke:#000000; stroke-linecap:round; stroke-linejoin:round; stroke-width:2; stroke-opacity:0.1; fill:none" points="2011.52,1234.58 2011.52,47.2441 "/>
<polyline clip-path="url(#clip740)" style="stroke:#000000; stroke-linecap:round; stroke-linejoin:round; stroke-width:4; stroke-opacity:1; fill:none" points="183.88,1234.58 2064.76,1234.58 "/>
<polyline clip-path="url(#clip740)" style="stroke:#000000; stroke-linecap:round; stroke-linejoin:round; stroke-width:4; stroke-opacity:1; fill:none" points="200.9,1234.58 200.9,1215.68 "/>
<polyline clip-path="url(#clip740)" style="stroke:#000000; stroke-linecap:round; stroke-linejoin:round; stroke-width:4; stroke-opacity:1; fill:none" points="563.025,1234.58 563.025,1215.68 "/>
<polyline clip-path="url(#clip740)" style="stroke:#000000; stroke-linecap:round; stroke-linejoin:round; stroke-width:4; stroke-opacity:1; fill:none" points="925.149,1234.58 925.149,1215.68 "/>
<polyline clip-path="url(#clip740)" style="stroke:#000000; stroke-linecap:round; stroke-linejoin:round; stroke-width:4; stroke-opacity:1; fill:none" points="1287.27,1234.58 1287.27,1215.68 "/>
<polyline clip-path="url(#clip740)" style="stroke:#000000; stroke-linecap:round; stroke-linejoin:round; stroke-width:4; stroke-opacity:1; fill:none" points="1649.4,1234.58 1649.4,1215.68 "/>
<polyline clip-path="url(#clip740)" style="stroke:#000000; stroke-linecap:round; stroke-linejoin:round; stroke-width:4; stroke-opacity:1; fill:none" points="2011.52,1234.58 2011.52,1215.68 "/>
<path clip-path="url(#clip740)" d="M200.9 1263.19 Q197.289 1263.19 195.46 1266.76 Q193.655 1270.3 193.655 1277.43 Q193.655 1284.54 195.46 1288.1 Q197.289 1291.64 200.9 1291.64 Q204.534 1291.64 206.34 1288.1 Q208.168 1284.54 208.168 1277.43 Q208.168 1270.3 206.34 1266.76 Q204.534 1263.19 200.9 1263.19 M200.9 1259.49 Q206.71 1259.49 209.766 1264.1 Q212.844 1268.68 212.844 1277.43 Q212.844 1286.16 209.766 1290.76 Q206.71 1295.35 200.9 1295.35 Q195.09 1295.35 192.011 1290.76 Q188.956 1286.16 188.956 1277.43 Q188.956 1268.68 192.011 1264.1 Q195.09 1259.49 200.9 1259.49 Z" fill="#000000" fill-rule="nonzero" fill-opacity="1" /><path clip-path="url(#clip740)" d="M537.712 1290.74 L545.351 1290.74 L545.351 1264.37 L537.041 1266.04 L537.041 1261.78 L545.305 1260.11 L549.981 1260.11 L549.981 1290.74 L557.62 1290.74 L557.62 1294.67 L537.712 1294.67 L537.712 1290.74 Z" fill="#000000" fill-rule="nonzero" fill-opacity="1" /><path clip-path="url(#clip740)" d="M577.064 1263.19 Q573.453 1263.19 571.624 1266.76 Q569.819 1270.3 569.819 1277.43 Q569.819 1284.54 571.624 1288.1 Q573.453 1291.64 577.064 1291.64 Q580.698 1291.64 582.504 1288.1 Q584.332 1284.54 584.332 1277.43 Q584.332 1270.3 582.504 1266.76 Q580.698 1263.19 577.064 1263.19 M577.064 1259.49 Q582.874 1259.49 585.93 1264.1 Q589.008 1268.68 589.008 1277.43 Q589.008 1286.16 585.93 1290.76 Q582.874 1295.35 577.064 1295.35 Q571.254 1295.35 568.175 1290.76 Q565.12 1286.16 565.12 1277.43 Q565.12 1268.68 568.175 1264.1 Q571.254 1259.49 577.064 1259.49 Z" fill="#000000" fill-rule="nonzero" fill-opacity="1" /><path clip-path="url(#clip740)" d="M903.923 1290.74 L920.242 1290.74 L920.242 1294.67 L898.298 1294.67 L898.298 1290.74 Q900.96 1287.99 905.543 1283.36 Q910.149 1278.7 911.33 1277.36 Q913.575 1274.84 914.455 1273.1 Q915.358 1271.34 915.358 1269.65 Q915.358 1266.9 913.413 1265.16 Q911.492 1263.42 908.39 1263.42 Q906.191 1263.42 903.737 1264.19 Q901.307 1264.95 898.529 1266.5 L898.529 1261.78 Q901.353 1260.65 903.807 1260.07 Q906.261 1259.49 908.298 1259.49 Q913.668 1259.49 916.862 1262.17 Q920.057 1264.86 920.057 1269.35 Q920.057 1271.48 919.247 1273.4 Q918.46 1275.3 916.353 1277.89 Q915.774 1278.56 912.673 1281.78 Q909.571 1284.98 903.923 1290.74 Z" fill="#000000" fill-rule="nonzero" fill-opacity="1" /><path clip-path="url(#clip740)" d="M940.057 1263.19 Q936.446 1263.19 934.617 1266.76 Q932.811 1270.3 932.811 1277.43 Q932.811 1284.54 934.617 1288.1 Q936.446 1291.64 940.057 1291.64 Q943.691 1291.64 945.497 1288.1 Q947.325 1284.54 947.325 1277.43 Q947.325 1270.3 945.497 1266.76 Q943.691 1263.19 940.057 1263.19 M940.057 1259.49 Q945.867 1259.49 948.922 1264.1 Q952.001 1268.68 952.001 1277.43 Q952.001 1286.16 948.922 1290.76 Q945.867 1295.35 940.057 1295.35 Q934.247 1295.35 931.168 1290.76 Q928.112 1286.16 928.112 1277.43 Q928.112 1268.68 931.168 1264.1 Q934.247 1259.49 940.057 1259.49 Z" fill="#000000" fill-rule="nonzero" fill-opacity="1" /><path clip-path="url(#clip740)" d="M1276.12 1276.04 Q1279.47 1276.76 1281.35 1279.03 Q1283.25 1281.3 1283.25 1284.63 Q1283.25 1289.74 1279.73 1292.55 Q1276.21 1295.35 1269.73 1295.35 Q1267.55 1295.35 1265.24 1294.91 Q1262.95 1294.49 1260.49 1293.63 L1260.49 1289.12 Q1262.44 1290.25 1264.75 1290.83 Q1267.07 1291.41 1269.59 1291.41 Q1273.99 1291.41 1276.28 1289.67 Q1278.59 1287.94 1278.59 1284.63 Q1278.59 1281.57 1276.44 1279.86 Q1274.31 1278.12 1270.49 1278.12 L1266.46 1278.12 L1266.46 1274.28 L1270.68 1274.28 Q1274.13 1274.28 1275.95 1272.92 Q1277.78 1271.53 1277.78 1268.93 Q1277.78 1266.27 1275.89 1264.86 Q1274.01 1263.42 1270.49 1263.42 Q1268.57 1263.42 1266.37 1263.84 Q1264.17 1264.26 1261.53 1265.14 L1261.53 1260.97 Q1264.2 1260.23 1266.51 1259.86 Q1268.85 1259.49 1270.91 1259.49 Q1276.23 1259.49 1279.33 1261.92 Q1282.44 1264.33 1282.44 1268.45 Q1282.44 1271.32 1280.79 1273.31 Q1279.15 1275.28 1276.12 1276.04 Z" fill="#000000" fill-rule="nonzero" fill-opacity="1" /><path clip-path="url(#clip740)" d="M1302.11 1263.19 Q1298.5 1263.19 1296.67 1266.76 Q1294.87 1270.3 1294.87 1277.43 Q1294.87 1284.54 1296.67 1288.1 Q1298.5 1291.64 1302.11 1291.64 Q1305.75 1291.64 1307.55 1288.1 Q1309.38 1284.54 1309.38 1277.43 Q1309.38 1270.3 1307.55 1266.76 Q1305.75 1263.19 1302.11 1263.19 M1302.11 1259.49 Q1307.92 1259.49 1310.98 1264.1 Q1314.06 1268.68 1314.06 1277.43 Q1314.06 1286.16 1310.98 1290.76 Q1307.92 1295.35 1302.11 1295.35 Q1296.3 1295.35 1293.22 1290.76 Q1290.17 1286.16 1290.17 1277.43 Q1290.17 1268.68 1293.22 1264.1 Q1296.3 1259.49 1302.11 1259.49 Z" fill="#000000" fill-rule="nonzero" fill-opacity="1" /><path clip-path="url(#clip740)" d="M1637.57 1264.19 L1625.76 1282.64 L1637.57 1282.64 L1637.57 1264.19 M1636.34 1260.11 L1642.22 1260.11 L1642.22 1282.64 L1647.15 1282.64 L1647.15 1286.53 L1642.22 1286.53 L1642.22 1294.67 L1637.57 1294.67 L1637.57 1286.53 L1621.97 1286.53 L1621.97 1282.01 L1636.34 1260.11 Z" fill="#000000" fill-rule="nonzero" fill-opacity="1" /><path clip-path="url(#clip740)" d="M1664.88 1263.19 Q1661.27 1263.19 1659.45 1266.76 Q1657.64 1270.3 1657.64 1277.43 Q1657.64 1284.54 1659.45 1288.1 Q1661.27 1291.64 1664.88 1291.64 Q1668.52 1291.64 1670.32 1288.1 Q1672.15 1284.54 1672.15 1277.43 Q1672.15 1270.3 1670.32 1266.76 Q1668.52 1263.19 1664.88 1263.19 M1664.88 1259.49 Q1670.7 1259.49 1673.75 1264.1 Q1676.83 1268.68 1676.83 1277.43 Q1676.83 1286.16 1673.75 1290.76 Q1670.7 1295.35 1664.88 1295.35 Q1659.07 1295.35 1656 1290.76 Q1652.94 1286.16 1652.94 1277.43 Q1652.94 1268.68 1656 1264.1 Q1659.07 1259.49 1664.88 1259.49 Z" fill="#000000" fill-rule="nonzero" fill-opacity="1" /><path clip-path="url(#clip740)" d="M1986.22 1260.11 L2004.58 1260.11 L2004.58 1264.05 L1990.51 1264.05 L1990.51 1272.52 Q1991.52 1272.17 1992.54 1272.01 Q1993.56 1271.83 1994.58 1271.83 Q2000.37 1271.83 2003.75 1275 Q2007.13 1278.17 2007.13 1283.59 Q2007.13 1289.17 2003.65 1292.27 Q2000.18 1295.35 1993.86 1295.35 Q1991.69 1295.35 1989.42 1294.98 Q1987.17 1294.61 1984.76 1293.86 L1984.76 1289.17 Q1986.85 1290.3 1989.07 1290.86 Q1991.29 1291.41 1993.77 1291.41 Q1997.77 1291.41 2000.11 1289.3 Q2002.45 1287.2 2002.45 1283.59 Q2002.45 1279.98 2000.11 1277.87 Q1997.77 1275.76 1993.77 1275.76 Q1991.89 1275.76 1990.02 1276.18 Q1988.17 1276.6 1986.22 1277.48 L1986.22 1260.11 Z" fill="#000000" fill-rule="nonzero" fill-opacity="1" /><path clip-path="url(#clip740)" d="M2026.34 1263.19 Q2022.73 1263.19 2020.9 1266.76 Q2019.09 1270.3 2019.09 1277.43 Q2019.09 1284.54 2020.9 1288.1 Q2022.73 1291.64 2026.34 1291.64 Q2029.97 1291.64 2031.78 1288.1 Q2033.61 1284.54 2033.61 1277.43 Q2033.61 1270.3 2031.78 1266.76 Q2029.97 1263.19 2026.34 1263.19 M2026.34 1259.49 Q2032.15 1259.49 2035.2 1264.1 Q2038.28 1268.68 2038.28 1277.43 Q2038.28 1286.16 2035.2 1290.76 Q2032.15 1295.35 2026.34 1295.35 Q2020.53 1295.35 2017.45 1290.76 Q2014.39 1286.16 2014.39 1277.43 Q2014.39 1268.68 2017.45 1264.1 Q2020.53 1259.49 2026.34 1259.49 Z" fill="#000000" fill-rule="nonzero" fill-opacity="1" /><polyline clip-path="url(#clip742)" style="stroke:#000000; stroke-linecap:round; stroke-linejoin:round; stroke-width:2; stroke-opacity:0.1; fill:none" points="183.88,1016.27 2064.76,1016.27 "/>
<polyline clip-path="url(#clip742)" style="stroke:#000000; stroke-linecap:round; stroke-linejoin:round; stroke-width:2; stroke-opacity:0.1; fill:none" points="183.88,739.208 2064.76,739.208 "/>
<polyline clip-path="url(#clip742)" style="stroke:#000000; stroke-linecap:round; stroke-linejoin:round; stroke-width:2; stroke-opacity:0.1; fill:none" points="183.88,462.148 2064.76,462.148 "/>
<polyline clip-path="url(#clip742)" style="stroke:#000000; stroke-linecap:round; stroke-linejoin:round; stroke-width:2; stroke-opacity:0.1; fill:none" points="183.88,185.088 2064.76,185.088 "/>
<polyline clip-path="url(#clip740)" style="stroke:#000000; stroke-linecap:round; stroke-linejoin:round; stroke-width:4; stroke-opacity:1; fill:none" points="183.88,1234.58 183.88,47.2441 "/>
<polyline clip-path="url(#clip740)" style="stroke:#000000; stroke-linecap:round; stroke-linejoin:round; stroke-width:4; stroke-opacity:1; fill:none" points="183.88,1016.27 202.778,1016.27 "/>
<polyline clip-path="url(#clip740)" style="stroke:#000000; stroke-linecap:round; stroke-linejoin:round; stroke-width:4; stroke-opacity:1; fill:none" points="183.88,739.208 202.778,739.208 "/>
<polyline clip-path="url(#clip740)" style="stroke:#000000; stroke-linecap:round; stroke-linejoin:round; stroke-width:4; stroke-opacity:1; fill:none" points="183.88,462.148 202.778,462.148 "/>
<polyline clip-path="url(#clip740)" style="stroke:#000000; stroke-linecap:round; stroke-linejoin:round; stroke-width:4; stroke-opacity:1; fill:none" points="183.88,185.088 202.778,185.088 "/>
<path clip-path="url(#clip740)" d="M64.9552 1002.07 Q61.3441 1002.07 59.5154 1005.63 Q57.7099 1009.17 57.7099 1016.3 Q57.7099 1023.41 59.5154 1026.97 Q61.3441 1030.52 64.9552 1030.52 Q68.5894 1030.52 70.395 1026.97 Q72.2237 1023.41 72.2237 1016.3 Q72.2237 1009.17 70.395 1005.63 Q68.5894 1002.07 64.9552 1002.07 M64.9552 998.363 Q70.7654 998.363 73.8209 1002.97 Q76.8996 1007.55 76.8996 1016.3 Q76.8996 1025.03 73.8209 1029.64 Q70.7654 1034.22 64.9552 1034.22 Q59.1451 1034.22 56.0664 1029.64 Q53.0108 1025.03 53.0108 1016.3 Q53.0108 1007.55 56.0664 1002.97 Q59.1451 998.363 64.9552 998.363 Z" fill="#000000" fill-rule="nonzero" fill-opacity="1" /><path clip-path="url(#clip740)" d="M85.1171 1027.67 L90.0014 1027.67 L90.0014 1033.55 L85.1171 1033.55 L85.1171 1027.67 Z" fill="#000000" fill-rule="nonzero" fill-opacity="1" /><path clip-path="url(#clip740)" d="M100.997 1029.61 L108.636 1029.61 L108.636 1003.25 L100.325 1004.91 L100.325 1000.65 L108.589 998.988 L113.265 998.988 L113.265 1029.61 L120.904 1029.61 L120.904 1033.55 L100.997 1033.55 L100.997 1029.61 Z" fill="#000000" fill-rule="nonzero" fill-opacity="1" /><path clip-path="url(#clip740)" d="M140.348 1017.14 Q137.015 1017.14 135.094 1018.92 Q133.196 1020.7 133.196 1023.83 Q133.196 1026.95 135.094 1028.73 Q137.015 1030.52 140.348 1030.52 Q143.682 1030.52 145.603 1028.73 Q147.524 1026.93 147.524 1023.83 Q147.524 1020.7 145.603 1018.92 Q143.705 1017.14 140.348 1017.14 M135.672 1015.15 Q132.663 1014.4 130.973 1012.34 Q129.307 1010.28 129.307 1007.32 Q129.307 1003.18 132.247 1000.77 Q135.209 998.363 140.348 998.363 Q145.51 998.363 148.45 1000.77 Q151.39 1003.18 151.39 1007.32 Q151.39 1010.28 149.7 1012.34 Q148.033 1014.4 145.047 1015.15 Q148.427 1015.93 150.302 1018.22 Q152.2 1020.52 152.2 1023.83 Q152.2 1028.85 149.121 1031.53 Q146.066 1034.22 140.348 1034.22 Q134.631 1034.22 131.552 1031.53 Q128.497 1028.85 128.497 1023.83 Q128.497 1020.52 130.395 1018.22 Q132.293 1015.93 135.672 1015.15 M133.959 1007.76 Q133.959 1010.45 135.626 1011.95 Q137.316 1013.46 140.348 1013.46 Q143.358 1013.46 145.047 1011.95 Q146.76 1010.45 146.76 1007.76 Q146.76 1005.08 145.047 1003.57 Q143.358 1002.07 140.348 1002.07 Q137.316 1002.07 135.626 1003.57 Q133.959 1005.08 133.959 1007.76 Z" fill="#000000" fill-rule="nonzero" fill-opacity="1" /><path clip-path="url(#clip740)" d="M64.8626 725.007 Q61.2515 725.007 59.4228 728.572 Q57.6173 732.113 57.6173 739.243 Q57.6173 746.349 59.4228 749.914 Q61.2515 753.456 64.8626 753.456 Q68.4969 753.456 70.3024 749.914 Q72.1311 746.349 72.1311 739.243 Q72.1311 732.113 70.3024 728.572 Q68.4969 725.007 64.8626 725.007 M64.8626 721.303 Q70.6728 721.303 73.7283 725.91 Q76.807 730.493 76.807 739.243 Q76.807 747.97 73.7283 752.576 Q70.6728 757.16 64.8626 757.16 Q59.0525 757.16 55.9738 752.576 Q52.9182 747.97 52.9182 739.243 Q52.9182 730.493 55.9738 725.91 Q59.0525 721.303 64.8626 721.303 Z" fill="#000000" fill-rule="nonzero" fill-opacity="1" /><path clip-path="url(#clip740)" d="M85.0245 750.609 L89.9088 750.609 L89.9088 756.488 L85.0245 756.488 L85.0245 750.609 Z" fill="#000000" fill-rule="nonzero" fill-opacity="1" /><path clip-path="url(#clip740)" d="M104.122 752.553 L120.441 752.553 L120.441 756.488 L98.4967 756.488 L98.4967 752.553 Q101.159 749.799 105.742 745.169 Q110.348 740.516 111.529 739.174 Q113.774 736.65 114.654 734.914 Q115.557 733.155 115.557 731.465 Q115.557 728.711 113.612 726.975 Q111.691 725.238 108.589 725.238 Q106.39 725.238 103.936 726.002 Q101.506 726.766 98.7282 728.317 L98.7282 723.595 Q101.552 722.461 104.006 721.882 Q106.46 721.303 108.497 721.303 Q113.867 721.303 117.061 723.988 Q120.256 726.674 120.256 731.164 Q120.256 733.294 119.446 735.215 Q118.659 737.113 116.552 739.706 Q115.973 740.377 112.872 743.595 Q109.77 746.789 104.122 752.553 Z" fill="#000000" fill-rule="nonzero" fill-opacity="1" /><path clip-path="url(#clip740)" d="M140.256 725.007 Q136.645 725.007 134.816 728.572 Q133.01 732.113 133.01 739.243 Q133.01 746.349 134.816 749.914 Q136.645 753.456 140.256 753.456 Q143.89 753.456 145.696 749.914 Q147.524 746.349 147.524 739.243 Q147.524 732.113 145.696 728.572 Q143.89 725.007 140.256 725.007 M140.256 721.303 Q146.066 721.303 149.121 725.91 Q152.2 730.493 152.2 739.243 Q152.2 747.97 149.121 752.576 Q146.066 757.16 140.256 757.16 Q134.446 757.16 131.367 752.576 Q128.311 747.97 128.311 739.243 Q128.311 730.493 131.367 725.91 Q134.446 721.303 140.256 721.303 Z" fill="#000000" fill-rule="nonzero" fill-opacity="1" /><path clip-path="url(#clip740)" d="M66.4598 447.947 Q62.8487 447.947 61.02 451.512 Q59.2145 455.053 59.2145 462.183 Q59.2145 469.289 61.02 472.854 Q62.8487 476.396 66.4598 476.396 Q70.0941 476.396 71.8996 472.854 Q73.7283 469.289 73.7283 462.183 Q73.7283 455.053 71.8996 451.512 Q70.0941 447.947 66.4598 447.947 M66.4598 444.243 Q72.27 444.243 75.3255 448.85 Q78.4042 453.433 78.4042 462.183 Q78.4042 470.91 75.3255 475.516 Q72.27 480.1 66.4598 480.1 Q60.6497 480.1 57.571 475.516 Q54.5154 470.91 54.5154 462.183 Q54.5154 453.433 57.571 448.85 Q60.6497 444.243 66.4598 444.243 Z" fill="#000000" fill-rule="nonzero" fill-opacity="1" /><path clip-path="url(#clip740)" d="M86.6218 473.549 L91.506 473.549 L91.506 479.428 L86.6218 479.428 L86.6218 473.549 Z" fill="#000000" fill-rule="nonzero" fill-opacity="1" /><path clip-path="url(#clip740)" d="M105.719 475.493 L122.038 475.493 L122.038 479.428 L100.094 479.428 L100.094 475.493 Q102.756 472.739 107.339 468.109 Q111.946 463.456 113.126 462.114 Q115.372 459.59 116.251 457.854 Q117.154 456.095 117.154 454.405 Q117.154 451.651 115.21 449.915 Q113.288 448.178 110.186 448.178 Q107.987 448.178 105.534 448.942 Q103.103 449.706 100.325 451.257 L100.325 446.535 Q103.149 445.401 105.603 444.822 Q108.057 444.243 110.094 444.243 Q115.464 444.243 118.659 446.928 Q121.853 449.614 121.853 454.104 Q121.853 456.234 121.043 458.155 Q120.256 460.053 118.149 462.646 Q117.571 463.317 114.469 466.535 Q111.367 469.729 105.719 475.493 Z" fill="#000000" fill-rule="nonzero" fill-opacity="1" /><path clip-path="url(#clip740)" d="M135.881 475.493 L152.2 475.493 L152.2 479.428 L130.256 479.428 L130.256 475.493 Q132.918 472.739 137.501 468.109 Q142.108 463.456 143.288 462.114 Q145.533 459.59 146.413 457.854 Q147.316 456.095 147.316 454.405 Q147.316 451.651 145.371 449.915 Q143.45 448.178 140.348 448.178 Q138.149 448.178 135.696 448.942 Q133.265 449.706 130.487 451.257 L130.487 446.535 Q133.311 445.401 135.765 444.822 Q138.219 444.243 140.256 444.243 Q145.626 444.243 148.82 446.928 Q152.015 449.614 152.015 454.104 Q152.015 456.234 151.205 458.155 Q150.418 460.053 148.311 462.646 Q147.733 463.317 144.631 466.535 Q141.529 469.729 135.881 475.493 Z" fill="#000000" fill-rule="nonzero" fill-opacity="1" /><path clip-path="url(#clip740)" d="M64.3765 170.887 Q60.7654 170.887 58.9367 174.452 Q57.1312 177.993 57.1312 185.123 Q57.1312 192.229 58.9367 195.794 Q60.7654 199.336 64.3765 199.336 Q68.0107 199.336 69.8163 195.794 Q71.645 192.229 71.645 185.123 Q71.645 177.993 69.8163 174.452 Q68.0107 170.887 64.3765 170.887 M64.3765 167.183 Q70.1867 167.183 73.2422 171.79 Q76.3209 176.373 76.3209 185.123 Q76.3209 193.85 73.2422 198.456 Q70.1867 203.04 64.3765 203.04 Q58.5664 203.04 55.4877 198.456 Q52.4321 193.85 52.4321 185.123 Q52.4321 176.373 55.4877 171.79 Q58.5664 167.183 64.3765 167.183 Z" fill="#000000" fill-rule="nonzero" fill-opacity="1" /><path clip-path="url(#clip740)" d="M84.5384 196.489 L89.4227 196.489 L89.4227 202.368 L84.5384 202.368 L84.5384 196.489 Z" fill="#000000" fill-rule="nonzero" fill-opacity="1" /><path clip-path="url(#clip740)" d="M103.636 198.433 L119.955 198.433 L119.955 202.368 L98.0106 202.368 L98.0106 198.433 Q100.673 195.679 105.256 191.049 Q109.862 186.396 111.043 185.054 Q113.288 182.53 114.168 180.794 Q115.071 179.035 115.071 177.345 Q115.071 174.591 113.126 172.855 Q111.205 171.118 108.103 171.118 Q105.904 171.118 103.45 171.882 Q101.02 172.646 98.2421 174.197 L98.2421 169.475 Q101.066 168.341 103.52 167.762 Q105.974 167.183 108.011 167.183 Q113.381 167.183 116.575 169.868 Q119.77 172.554 119.77 177.044 Q119.77 179.174 118.96 181.095 Q118.173 182.993 116.066 185.586 Q115.487 186.257 112.386 189.475 Q109.284 192.669 103.636 198.433 Z" fill="#000000" fill-rule="nonzero" fill-opacity="1" /><path clip-path="url(#clip740)" d="M142.617 171.882 L130.811 190.331 L142.617 190.331 L142.617 171.882 M141.39 167.808 L147.27 167.808 L147.27 190.331 L152.2 190.331 L152.2 194.22 L147.27 194.22 L147.27 202.368 L142.617 202.368 L142.617 194.22 L127.015 194.22 L127.015 189.706 L141.39 167.808 Z" fill="#000000" fill-rule="nonzero" fill-opacity="1" /><circle clip-path="url(#clip742)" cx="237.112" cy="1200.97" r="14.4" fill="#009af9" fill-rule="evenodd" fill-opacity="1" stroke="#000000" stroke-opacity="1" stroke-width="2.688"/>
<circle clip-path="url(#clip742)" cx="273.325" cy="739.208" r="14.4" fill="#009af9" fill-rule="evenodd" fill-opacity="1" stroke="#000000" stroke-opacity="1" stroke-width="2.688"/>
<circle clip-path="url(#clip742)" cx="309.537" cy="541.308" r="14.4" fill="#009af9" fill-rule="evenodd" fill-opacity="1" stroke="#000000" stroke-opacity="1" stroke-width="2.688"/>
<circle clip-path="url(#clip742)" cx="345.75" cy="431.364" r="14.4" fill="#009af9" fill-rule="evenodd" fill-opacity="1" stroke="#000000" stroke-opacity="1" stroke-width="2.688"/>
<circle clip-path="url(#clip742)" cx="381.962" cy="361.399" r="14.4" fill="#009af9" fill-rule="evenodd" fill-opacity="1" stroke="#000000" stroke-opacity="1" stroke-width="2.688"/>
<circle clip-path="url(#clip742)" cx="418.175" cy="312.962" r="14.4" fill="#009af9" fill-rule="evenodd" fill-opacity="1" stroke="#000000" stroke-opacity="1" stroke-width="2.688"/>
<circle clip-path="url(#clip742)" cx="454.387" cy="277.442" r="14.4" fill="#009af9" fill-rule="evenodd" fill-opacity="1" stroke="#000000" stroke-opacity="1" stroke-width="2.688"/>
<circle clip-path="url(#clip742)" cx="490.6" cy="250.279" r="14.4" fill="#009af9" fill-rule="evenodd" fill-opacity="1" stroke="#000000" stroke-opacity="1" stroke-width="2.688"/>
<circle clip-path="url(#clip742)" cx="526.812" cy="228.835" r="14.4" fill="#009af9" fill-rule="evenodd" fill-opacity="1" stroke="#000000" stroke-opacity="1" stroke-width="2.688"/>
<circle clip-path="url(#clip742)" cx="563.025" cy="211.475" r="14.4" fill="#009af9" fill-rule="evenodd" fill-opacity="1" stroke="#000000" stroke-opacity="1" stroke-width="2.688"/>
<circle clip-path="url(#clip742)" cx="599.237" cy="197.134" r="14.4" fill="#009af9" fill-rule="evenodd" fill-opacity="1" stroke="#000000" stroke-opacity="1" stroke-width="2.688"/>
<circle clip-path="url(#clip742)" cx="635.45" cy="185.088" r="14.4" fill="#009af9" fill-rule="evenodd" fill-opacity="1" stroke="#000000" stroke-opacity="1" stroke-width="2.688"/>
<circle clip-path="url(#clip742)" cx="671.662" cy="174.827" r="14.4" fill="#009af9" fill-rule="evenodd" fill-opacity="1" stroke="#000000" stroke-opacity="1" stroke-width="2.688"/>
<circle clip-path="url(#clip742)" cx="707.875" cy="165.981" r="14.4" fill="#009af9" fill-rule="evenodd" fill-opacity="1" stroke="#000000" stroke-opacity="1" stroke-width="2.688"/>
<circle clip-path="url(#clip742)" cx="744.087" cy="158.276" r="14.4" fill="#009af9" fill-rule="evenodd" fill-opacity="1" stroke="#000000" stroke-opacity="1" stroke-width="2.688"/>
<circle clip-path="url(#clip742)" cx="780.3" cy="151.505" r="14.4" fill="#009af9" fill-rule="evenodd" fill-opacity="1" stroke="#000000" stroke-opacity="1" stroke-width="2.688"/>
<circle clip-path="url(#clip742)" cx="816.512" cy="145.508" r="14.4" fill="#009af9" fill-rule="evenodd" fill-opacity="1" stroke="#000000" stroke-opacity="1" stroke-width="2.688"/>
<circle clip-path="url(#clip742)" cx="852.724" cy="140.16" r="14.4" fill="#009af9" fill-rule="evenodd" fill-opacity="1" stroke="#000000" stroke-opacity="1" stroke-width="2.688"/>
<circle clip-path="url(#clip742)" cx="888.937" cy="135.36" r="14.4" fill="#009af9" fill-rule="evenodd" fill-opacity="1" stroke="#000000" stroke-opacity="1" stroke-width="2.688"/>
<circle clip-path="url(#clip742)" cx="925.149" cy="131.028" r="14.4" fill="#009af9" fill-rule="evenodd" fill-opacity="1" stroke="#000000" stroke-opacity="1" stroke-width="2.688"/>
<circle clip-path="url(#clip742)" cx="961.362" cy="127.099" r="14.4" fill="#009af9" fill-rule="evenodd" fill-opacity="1" stroke="#000000" stroke-opacity="1" stroke-width="2.688"/>
<circle clip-path="url(#clip742)" cx="997.574" cy="123.519" r="14.4" fill="#009af9" fill-rule="evenodd" fill-opacity="1" stroke="#000000" stroke-opacity="1" stroke-width="2.688"/>
<circle clip-path="url(#clip742)" cx="1033.79" cy="120.244" r="14.4" fill="#009af9" fill-rule="evenodd" fill-opacity="1" stroke="#000000" stroke-opacity="1" stroke-width="2.688"/>
<circle clip-path="url(#clip742)" cx="1070" cy="117.237" r="14.4" fill="#009af9" fill-rule="evenodd" fill-opacity="1" stroke="#000000" stroke-opacity="1" stroke-width="2.688"/>
<circle clip-path="url(#clip742)" cx="1106.21" cy="114.465" r="14.4" fill="#009af9" fill-rule="evenodd" fill-opacity="1" stroke="#000000" stroke-opacity="1" stroke-width="2.688"/>
<circle clip-path="url(#clip742)" cx="1142.42" cy="111.903" r="14.4" fill="#009af9" fill-rule="evenodd" fill-opacity="1" stroke="#000000" stroke-opacity="1" stroke-width="2.688"/>
<circle clip-path="url(#clip742)" cx="1178.64" cy="109.526" r="14.4" fill="#009af9" fill-rule="evenodd" fill-opacity="1" stroke="#000000" stroke-opacity="1" stroke-width="2.688"/>
<circle clip-path="url(#clip742)" cx="1214.85" cy="107.317" r="14.4" fill="#009af9" fill-rule="evenodd" fill-opacity="1" stroke="#000000" stroke-opacity="1" stroke-width="2.688"/>
<circle clip-path="url(#clip742)" cx="1251.06" cy="105.257" r="14.4" fill="#009af9" fill-rule="evenodd" fill-opacity="1" stroke="#000000" stroke-opacity="1" stroke-width="2.688"/>
<circle clip-path="url(#clip742)" cx="1287.27" cy="103.333" r="14.4" fill="#009af9" fill-rule="evenodd" fill-opacity="1" stroke="#000000" stroke-opacity="1" stroke-width="2.688"/>
<circle clip-path="url(#clip742)" cx="1323.49" cy="101.531" r="14.4" fill="#009af9" fill-rule="evenodd" fill-opacity="1" stroke="#000000" stroke-opacity="1" stroke-width="2.688"/>
<circle clip-path="url(#clip742)" cx="1359.7" cy="99.8391" r="14.4" fill="#009af9" fill-rule="evenodd" fill-opacity="1" stroke="#000000" stroke-opacity="1" stroke-width="2.688"/>
<circle clip-path="url(#clip742)" cx="1395.91" cy="98.2486" r="14.4" fill="#009af9" fill-rule="evenodd" fill-opacity="1" stroke="#000000" stroke-opacity="1" stroke-width="2.688"/>
<circle clip-path="url(#clip742)" cx="1432.12" cy="96.7503" r="14.4" fill="#009af9" fill-rule="evenodd" fill-opacity="1" stroke="#000000" stroke-opacity="1" stroke-width="2.688"/>
<circle clip-path="url(#clip742)" cx="1468.34" cy="95.3365" r="14.4" fill="#009af9" fill-rule="evenodd" fill-opacity="1" stroke="#000000" stroke-opacity="1" stroke-width="2.688"/>
<circle clip-path="url(#clip742)" cx="1504.55" cy="94.0001" r="14.4" fill="#009af9" fill-rule="evenodd" fill-opacity="1" stroke="#000000" stroke-opacity="1" stroke-width="2.688"/>
<circle clip-path="url(#clip742)" cx="1540.76" cy="92.735" r="14.4" fill="#009af9" fill-rule="evenodd" fill-opacity="1" stroke="#000000" stroke-opacity="1" stroke-width="2.688"/>
<circle clip-path="url(#clip742)" cx="1576.97" cy="91.5356" r="14.4" fill="#009af9" fill-rule="evenodd" fill-opacity="1" stroke="#000000" stroke-opacity="1" stroke-width="2.688"/>
<circle clip-path="url(#clip742)" cx="1613.19" cy="90.3969" r="14.4" fill="#009af9" fill-rule="evenodd" fill-opacity="1" stroke="#000000" stroke-opacity="1" stroke-width="2.688"/>
<circle clip-path="url(#clip742)" cx="1649.4" cy="89.3145" r="14.4" fill="#009af9" fill-rule="evenodd" fill-opacity="1" stroke="#000000" stroke-opacity="1" stroke-width="2.688"/>
<circle clip-path="url(#clip742)" cx="1685.61" cy="88.2842" r="14.4" fill="#009af9" fill-rule="evenodd" fill-opacity="1" stroke="#000000" stroke-opacity="1" stroke-width="2.688"/>
<circle clip-path="url(#clip742)" cx="1721.82" cy="87.3024" r="14.4" fill="#009af9" fill-rule="evenodd" fill-opacity="1" stroke="#000000" stroke-opacity="1" stroke-width="2.688"/>
<circle clip-path="url(#clip742)" cx="1758.04" cy="86.3658" r="14.4" fill="#009af9" fill-rule="evenodd" fill-opacity="1" stroke="#000000" stroke-opacity="1" stroke-width="2.688"/>
<circle clip-path="url(#clip742)" cx="1794.25" cy="85.4712" r="14.4" fill="#009af9" fill-rule="evenodd" fill-opacity="1" stroke="#000000" stroke-opacity="1" stroke-width="2.688"/>
<circle clip-path="url(#clip742)" cx="1830.46" cy="84.616" r="14.4" fill="#009af9" fill-rule="evenodd" fill-opacity="1" stroke="#000000" stroke-opacity="1" stroke-width="2.688"/>
<circle clip-path="url(#clip742)" cx="1866.67" cy="83.7975" r="14.4" fill="#009af9" fill-rule="evenodd" fill-opacity="1" stroke="#000000" stroke-opacity="1" stroke-width="2.688"/>
<circle clip-path="url(#clip742)" cx="1902.89" cy="83.0136" r="14.4" fill="#009af9" fill-rule="evenodd" fill-opacity="1" stroke="#000000" stroke-opacity="1" stroke-width="2.688"/>
<circle clip-path="url(#clip742)" cx="1939.1" cy="82.2619" r="14.4" fill="#009af9" fill-rule="evenodd" fill-opacity="1" stroke="#000000" stroke-opacity="1" stroke-width="2.688"/>
<circle clip-path="url(#clip742)" cx="1975.31" cy="81.5406" r="14.4" fill="#009af9" fill-rule="evenodd" fill-opacity="1" stroke="#000000" stroke-opacity="1" stroke-width="2.688"/>
<circle clip-path="url(#clip742)" cx="2011.52" cy="80.8479" r="14.4" fill="#009af9" fill-rule="evenodd" fill-opacity="1" stroke="#000000" stroke-opacity="1" stroke-width="2.688"/>
</svg>
