<?xml version="1.0" encoding="utf-8"?>
<svg xmlns="http://www.w3.org/2000/svg" xmlns:xlink="http://www.w3.org/1999/xlink" width="528" height="336" viewBox="0 0 2112 1344">
<defs>
  <clipPath id="clip980">
    <rect x="0" y="0" width="2112" height="1344"/>
  </clipPath>
</defs>
<path clip-path="url(#clip980)" d="M0 1344 L2112 1344 L2112 0 L0 0  Z" fill="#ffffff" fill-rule="evenodd" fill-opacity="1"/>
<defs>
  <clipPath id="clip981">
    <rect x="422" y="0" width="1479" height="1344"/>
  </clipPath>
</defs>
<path clip-path="url(#clip980)" d="M153.394 1234.58 L2064.76 1234.58 L2064.76 47.2441 L153.394 47.2441  Z" fill="#ffffff" fill-rule="evenodd" fill-opacity="1"/>
<defs>
  <clipPath id="clip982">
    <rect x="153" y="47" width="1912" height="1188"/>
  </clipPath>
</defs>
<polyline clip-path="url(#clip982)" style="stroke:#000000; stroke-linecap:round; stroke-linejoin:round; stroke-width:2; stroke-opacity:0.1; fill:none" points="170.69,1234.58 170.69,47.2441 "/>
<polyline clip-path="url(#clip982)" style="stroke:#000000; stroke-linecap:round; stroke-linejoin:round; stroke-width:2; stroke-opacity:0.1; fill:none" points="538.684,1234.58 538.684,47.2441 "/>
<polyline clip-path="url(#clip982)" style="stroke:#000000; stroke-linecap:round; stroke-linejoin:round; stroke-width:2; stroke-opacity:0.1; fill:none" points="906.678,1234.58 906.678,47.2441 "/>
<polyline clip-path="url(#clip982)" style="stroke:#000000; stroke-linecap:round; stroke-linejoin:round; stroke-width:2; stroke-opacity:0.1; fill:none" points="1274.67,1234.58 1274.67,47.2441 "/>
<polyline clip-path="url(#clip982)" style="stroke:#000000; stroke-linecap:round; stroke-linejoin:round; stroke-width:2; stroke-opacity:0.1; fill:none" points="1642.67,1234.58 1642.67,47.2441 "/>
<polyline clip-path="url(#clip982)" style="stroke:#000000; stroke-linecap:round; stroke-linejoin:round; stroke-width:2; stroke-opacity:0.1; fill:none" points="2010.66,1234.58 2010.66,47.2441 "/>
<polyline clip-path="url(#clip980)" style="stroke:#000000; stroke-linecap:round; stroke-linejoin:round; stroke-width:4; stroke-opacity:1; fill:none" points="153.394,1234.58 2064.76,1234.58 "/>
<polyline clip-path="url(#clip980)" style="stroke:#000000; stroke-linecap:round; stroke-linejoin:round; stroke-width:4; stroke-opacity:1; fill:none" points="170.69,1234.58 170.69,1215.68 "/>
<polyline clip-path="url(#clip980)" style="stroke:#000000; stroke-linecap:round; stroke-linejoin:round; stroke-width:4; stroke-opacity:1; fill:none" points="538.684,1234.58 538.684,1215.68 "/>
<polyline clip-path="url(#clip980)" style="stroke:#000000; stroke-linecap:round; stroke-linejoin:round; stroke-width:4; stroke-opacity:1; fill:none" points="906.678,1234.58 906.678,1215.68 "/>
<polyline clip-path="url(#clip980)" style="stroke:#000000; stroke-linecap:round; stroke-linejoin:round; stroke-width:4; stroke-opacity:1; fill:none" points="1274.67,1234.58 1274.67,1215.68 "/>
<polyline clip-path="url(#clip980)" style="stroke:#000000; stroke-linecap:round; stroke-linejoin:round; stroke-width:4; stroke-opacity:1; fill:none" points="1642.67,1234.58 1642.67,1215.68 "/>
<polyline clip-path="url(#clip980)" style="stroke:#000000; stroke-linecap:round; stroke-linejoin:round; stroke-width:4; stroke-opacity:1; fill:none" points="2010.66,1234.58 2010.66,1215.68 "/>
<path clip-path="url(#clip980)" d="M170.69 1263.19 Q167.079 1263.19 165.25 1266.76 Q163.445 1270.3 163.445 1277.43 Q163.445 1284.54 165.25 1288.1 Q167.079 1291.64 170.69 1291.64 Q174.324 1291.64 176.13 1288.1 Q177.958 1284.54 177.958 1277.43 Q177.958 1270.3 176.13 1266.76 Q174.324 1263.19 170.69 1263.19 M170.69 1259.49 Q176.5 1259.49 179.556 1264.1 Q182.634 1268.68 182.634 1277.43 Q182.634 1286.16 179.556 1290.76 Q176.5 1295.35 170.69 1295.35 Q164.88 1295.35 161.801 1290.76 Q158.746 1286.16 158.746 1277.43 Q158.746 1268.68 161.801 1264.1 Q164.88 1259.49 170.69 1259.49 Z" fill="#000000" fill-rule="nonzero" fill-opacity="1" /><path clip-path="url(#clip980)" d="M513.372 1290.74 L521.011 1290.74 L521.011 1264.37 L512.7 1266.04 L512.7 1261.78 L520.964 1260.11 L525.64 1260.11 L525.64 1290.74 L533.279 1290.74 L533.279 1294.67 L513.372 1294.67 L513.372 1290.74 Z" fill="#000000" fill-rule="nonzero" fill-opacity="1" /><path clip-path="url(#clip980)" d="M552.723 1263.19 Q549.112 1263.19 547.284 1266.76 Q545.478 1270.3 545.478 1277.43 Q545.478 1284.54 547.284 1288.1 Q549.112 1291.64 552.723 1291.64 Q556.358 1291.64 558.163 1288.1 Q559.992 1284.54 559.992 1277.43 Q559.992 1270.3 558.163 1266.76 Q556.358 1263.19 552.723 1263.19 M552.723 1259.49 Q558.533 1259.49 561.589 1264.1 Q564.668 1268.68 564.668 1277.43 Q564.668 1286.16 561.589 1290.76 Q558.533 1295.35 552.723 1295.35 Q546.913 1295.35 543.834 1290.76 Q540.779 1286.16 540.779 1277.43 Q540.779 1268.68 543.834 1264.1 Q546.913 1259.49 552.723 1259.49 Z" fill="#000000" fill-rule="nonzero" fill-opacity="1" /><path clip-path="url(#clip980)" d="M885.451 1290.74 L901.771 1290.74 L901.771 1294.67 L879.827 1294.67 L879.827 1290.74 Q882.489 1287.99 887.072 1283.36 Q891.678 1278.7 892.859 1277.36 Q895.104 1274.84 895.984 1273.1 Q896.887 1271.34 896.887 1269.65 Q896.887 1266.9 894.942 1265.16 Q893.021 1263.42 889.919 1263.42 Q887.72 1263.42 885.266 1264.19 Q882.836 1264.95 880.058 1266.5 L880.058 1261.78 Q882.882 1260.65 885.336 1260.07 Q887.789 1259.49 889.826 1259.49 Q895.197 1259.49 898.391 1262.17 Q901.586 1264.86 901.586 1269.35 Q901.586 1271.48 900.775 1273.4 Q899.988 1275.3 897.882 1277.89 Q897.303 1278.56 894.201 1281.78 Q891.1 1284.98 885.451 1290.74 Z" fill="#000000" fill-rule="nonzero" fill-opacity="1" /><path clip-path="url(#clip980)" d="M921.586 1263.19 Q917.974 1263.19 916.146 1266.76 Q914.34 1270.3 914.34 1277.43 Q914.34 1284.54 916.146 1288.1 Q917.974 1291.64 921.586 1291.64 Q925.22 1291.64 927.025 1288.1 Q928.854 1284.54 928.854 1277.43 Q928.854 1270.3 927.025 1266.76 Q925.22 1263.19 921.586 1263.19 M921.586 1259.49 Q927.396 1259.49 930.451 1264.1 Q933.53 1268.68 933.53 1277.43 Q933.53 1286.16 930.451 1290.76 Q927.396 1295.35 921.586 1295.35 Q915.775 1295.35 912.697 1290.76 Q909.641 1286.16 909.641 1277.43 Q909.641 1268.68 912.697 1264.1 Q915.775 1259.49 921.586 1259.49 Z" fill="#000000" fill-rule="nonzero" fill-opacity="1" /><path clip-path="url(#clip980)" d="M1263.52 1276.04 Q1266.87 1276.76 1268.75 1279.03 Q1270.64 1281.3 1270.64 1284.63 Q1270.64 1289.74 1267.13 1292.55 Q1263.61 1295.35 1257.13 1295.35 Q1254.95 1295.35 1252.64 1294.91 Q1250.34 1294.49 1247.89 1293.63 L1247.89 1289.12 Q1249.83 1290.25 1252.15 1290.83 Q1254.46 1291.41 1256.99 1291.41 Q1261.39 1291.41 1263.68 1289.67 Q1265.99 1287.94 1265.99 1284.63 Q1265.99 1281.57 1263.84 1279.86 Q1261.71 1278.12 1257.89 1278.12 L1253.86 1278.12 L1253.86 1274.28 L1258.08 1274.28 Q1261.52 1274.28 1263.35 1272.92 Q1265.18 1271.53 1265.18 1268.93 Q1265.18 1266.27 1263.28 1264.86 Q1261.41 1263.42 1257.89 1263.42 Q1255.97 1263.42 1253.77 1263.84 Q1251.57 1264.26 1248.93 1265.14 L1248.93 1260.97 Q1251.59 1260.23 1253.91 1259.86 Q1256.25 1259.49 1258.31 1259.49 Q1263.63 1259.49 1266.73 1261.92 Q1269.83 1264.33 1269.83 1268.45 Q1269.83 1271.32 1268.19 1273.31 Q1266.55 1275.28 1263.52 1276.04 Z" fill="#000000" fill-rule="nonzero" fill-opacity="1" /><path clip-path="url(#clip980)" d="M1289.51 1263.19 Q1285.9 1263.19 1284.07 1266.76 Q1282.26 1270.3 1282.26 1277.43 Q1282.26 1284.54 1284.07 1288.1 Q1285.9 1291.64 1289.51 1291.64 Q1293.14 1291.64 1294.95 1288.1 Q1296.78 1284.54 1296.78 1277.43 Q1296.78 1270.3 1294.95 1266.76 Q1293.14 1263.19 1289.51 1263.19 M1289.51 1259.49 Q1295.32 1259.49 1298.38 1264.1 Q1301.45 1268.68 1301.45 1277.43 Q1301.45 1286.16 1298.38 1290.76 Q1295.32 1295.35 1289.51 1295.35 Q1283.7 1295.35 1280.62 1290.76 Q1277.57 1286.16 1277.57 1277.43 Q1277.57 1268.68 1280.62 1264.1 Q1283.7 1259.49 1289.51 1259.49 Z" fill="#000000" fill-rule="nonzero" fill-opacity="1" /><path clip-path="url(#clip980)" d="M1630.84 1264.19 L1619.03 1282.64 L1630.84 1282.64 L1630.84 1264.19 M1629.61 1260.11 L1635.49 1260.11 L1635.49 1282.64 L1640.42 1282.64 L1640.42 1286.53 L1635.49 1286.53 L1635.49 1294.67 L1630.84 1294.67 L1630.84 1286.53 L1615.24 1286.53 L1615.24 1282.01 L1629.61 1260.11 Z" fill="#000000" fill-rule="nonzero" fill-opacity="1" /><path clip-path="url(#clip980)" d="M1658.15 1263.19 Q1654.54 1263.19 1652.71 1266.76 Q1650.91 1270.3 1650.91 1277.43 Q1650.91 1284.54 1652.71 1288.1 Q1654.54 1291.64 1658.15 1291.64 Q1661.79 1291.64 1663.59 1288.1 Q1665.42 1284.54 1665.42 1277.43 Q1665.42 1270.3 1663.59 1266.76 Q1661.79 1263.19 1658.15 1263.19 M1658.15 1259.49 Q1663.96 1259.49 1667.02 1264.1 Q1670.1 1268.68 1670.1 1277.43 Q1670.1 1286.16 1667.02 1290.76 Q1663.96 1295.35 1658.15 1295.35 Q1652.34 1295.35 1649.26 1290.76 Q1646.21 1286.16 1646.21 1277.43 Q1646.21 1268.68 1649.26 1264.1 Q1652.34 1259.49 1658.15 1259.49 Z" fill="#000000" fill-rule="nonzero" fill-opacity="1" /><path clip-path="url(#clip980)" d="M1985.36 1260.11 L2003.72 1260.11 L2003.72 1264.05 L1989.64 1264.05 L1989.64 1272.52 Q1990.66 1272.17 1991.68 1272.01 Q1992.7 1271.83 1993.72 1271.83 Q1999.5 1271.83 2002.88 1275 Q2006.26 1278.17 2006.26 1283.59 Q2006.26 1289.17 2002.79 1292.27 Q1999.32 1295.35 1993 1295.35 Q1990.82 1295.35 1988.55 1294.98 Q1986.31 1294.61 1983.9 1293.86 L1983.9 1289.17 Q1985.98 1290.3 1988.21 1290.86 Q1990.43 1291.41 1992.91 1291.41 Q1996.91 1291.41 1999.25 1289.3 Q2001.59 1287.2 2001.59 1283.59 Q2001.59 1279.98 1999.25 1277.87 Q1996.91 1275.76 1992.91 1275.76 Q1991.03 1275.76 1989.16 1276.18 Q1987.3 1276.6 1985.36 1277.48 L1985.36 1260.11 Z" fill="#000000" fill-rule="nonzero" fill-opacity="1" /><path clip-path="url(#clip980)" d="M2025.48 1263.19 Q2021.86 1263.19 2020.04 1266.76 Q2018.23 1270.3 2018.23 1277.43 Q2018.23 1284.54 2020.04 1288.1 Q2021.86 1291.64 2025.48 1291.64 Q2029.11 1291.64 2030.92 1288.1 Q2032.74 1284.54 2032.74 1277.43 Q2032.74 1270.3 2030.92 1266.76 Q2029.11 1263.19 2025.48 1263.19 M2025.48 1259.49 Q2031.29 1259.49 2034.34 1264.1 Q2037.42 1268.68 2037.42 1277.43 Q2037.42 1286.16 2034.34 1290.76 Q2031.29 1295.35 2025.48 1295.35 Q2019.67 1295.35 2016.59 1290.76 Q2013.53 1286.16 2013.53 1277.43 Q2013.53 1268.68 2016.59 1264.1 Q2019.67 1259.49 2025.48 1259.49 Z" fill="#000000" fill-rule="nonzero" fill-opacity="1" /><polyline clip-path="url(#clip982)" style="stroke:#000000; stroke-linecap:round; stroke-linejoin:round; stroke-width:2; stroke-opacity:0.1; fill:none" points="153.394,1040.96 2064.76,1040.96 "/>
<polyline clip-path="url(#clip982)" style="stroke:#000000; stroke-linecap:round; stroke-linejoin:round; stroke-width:2; stroke-opacity:0.1; fill:none" points="153.394,720.921 2064.76,720.921 "/>
<polyline clip-path="url(#clip982)" style="stroke:#000000; stroke-linecap:round; stroke-linejoin:round; stroke-width:2; stroke-opacity:0.1; fill:none" points="153.394,400.884 2064.76,400.884 "/>
<polyline clip-path="url(#clip982)" style="stroke:#000000; stroke-linecap:round; stroke-linejoin:round; stroke-width:2; stroke-opacity:0.1; fill:none" points="153.394,80.8479 2064.76,80.8479 "/>
<polyline clip-path="url(#clip980)" style="stroke:#000000; stroke-linecap:round; stroke-linejoin:round; stroke-width:4; stroke-opacity:1; fill:none" points="153.394,1234.58 153.394,47.2441 "/>
<polyline clip-path="url(#clip980)" style="stroke:#000000; stroke-linecap:round; stroke-linejoin:round; stroke-width:4; stroke-opacity:1; fill:none" points="153.394,1040.96 172.292,1040.96 "/>
<polyline clip-path="url(#clip980)" style="stroke:#000000; stroke-linecap:round; stroke-linejoin:round; stroke-width:4; stroke-opacity:1; fill:none" points="153.394,720.921 172.292,720.921 "/>
<polyline clip-path="url(#clip980)" style="stroke:#000000; stroke-linecap:round; stroke-linejoin:round; stroke-width:4; stroke-opacity:1; fill:none" points="153.394,400.884 172.292,400.884 "/>
<polyline clip-path="url(#clip980)" style="stroke:#000000; stroke-linecap:round; stroke-linejoin:round; stroke-width:4; stroke-opacity:1; fill:none" points="153.394,80.8479 172.292,80.8479 "/>
<path clip-path="url(#clip980)" d="M64.3765 1026.76 Q60.7654 1026.76 58.9367 1030.32 Q57.1312 1033.86 57.1312 1040.99 Q57.1312 1048.1 58.9367 1051.66 Q60.7654 1055.2 64.3765 1055.2 Q68.0107 1055.2 69.8163 1051.66 Q71.645 1048.1 71.645 1040.99 Q71.645 1033.86 69.8163 1030.32 Q68.0107 1026.76 64.3765 1026.76 M64.3765 1023.05 Q70.1867 1023.05 73.2422 1027.66 Q76.3209 1032.24 76.3209 1040.99 Q76.3209 1049.72 73.2422 1054.32 Q70.1867 1058.91 64.3765 1058.91 Q58.5664 1058.91 55.4877 1054.32 Q52.4321 1049.72 52.4321 1040.99 Q52.4321 1032.24 55.4877 1027.66 Q58.5664 1023.05 64.3765 1023.05 Z" fill="#000000" fill-rule="nonzero" fill-opacity="1" /><path clip-path="url(#clip980)" d="M84.5384 1052.36 L89.4227 1052.36 L89.4227 1058.24 L84.5384 1058.24 L84.5384 1052.36 Z" fill="#000000" fill-rule="nonzero" fill-opacity="1" /><path clip-path="url(#clip980)" d="M110.186 1039.09 Q107.038 1039.09 105.186 1041.25 Q103.358 1043.4 103.358 1047.15 Q103.358 1050.88 105.186 1053.05 Q107.038 1055.2 110.186 1055.2 Q113.335 1055.2 115.163 1053.05 Q117.015 1050.88 117.015 1047.15 Q117.015 1043.4 115.163 1041.25 Q113.335 1039.09 110.186 1039.09 M119.469 1024.44 L119.469 1028.7 Q117.71 1027.87 115.904 1027.43 Q114.122 1026.99 112.362 1026.99 Q107.733 1026.99 105.279 1030.11 Q102.849 1033.24 102.501 1039.56 Q103.867 1037.54 105.927 1036.48 Q107.987 1035.39 110.464 1035.39 Q115.673 1035.39 118.682 1038.56 Q121.714 1041.71 121.714 1047.15 Q121.714 1052.47 118.566 1055.69 Q115.418 1058.91 110.186 1058.91 Q104.191 1058.91 101.02 1054.32 Q97.8485 1049.72 97.8485 1040.99 Q97.8485 1032.8 101.737 1027.94 Q105.626 1023.05 112.177 1023.05 Q113.936 1023.05 115.719 1023.4 Q117.524 1023.75 119.469 1024.44 Z" fill="#000000" fill-rule="nonzero" fill-opacity="1" /><path clip-path="url(#clip980)" d="M64.6311 706.719 Q61.02 706.719 59.1913 710.284 Q57.3858 713.826 57.3858 720.955 Q57.3858 728.062 59.1913 731.626 Q61.02 735.168 64.6311 735.168 Q68.2654 735.168 70.0709 731.626 Q71.8996 728.062 71.8996 720.955 Q71.8996 713.826 70.0709 710.284 Q68.2654 706.719 64.6311 706.719 M64.6311 703.016 Q70.4413 703.016 73.4968 707.622 Q76.5755 712.205 76.5755 720.955 Q76.5755 729.682 73.4968 734.288 Q70.4413 738.872 64.6311 738.872 Q58.821 738.872 55.7423 734.288 Q52.6868 729.682 52.6868 720.955 Q52.6868 712.205 55.7423 707.622 Q58.821 703.016 64.6311 703.016 Z" fill="#000000" fill-rule="nonzero" fill-opacity="1" /><path clip-path="url(#clip980)" d="M84.7931 732.321 L89.6773 732.321 L89.6773 738.201 L84.7931 738.201 L84.7931 732.321 Z" fill="#000000" fill-rule="nonzero" fill-opacity="1" /><path clip-path="url(#clip980)" d="M109.862 721.789 Q106.529 721.789 104.608 723.571 Q102.71 725.353 102.71 728.478 Q102.71 731.603 104.608 733.386 Q106.529 735.168 109.862 735.168 Q113.196 735.168 115.117 733.386 Q117.038 731.58 117.038 728.478 Q117.038 725.353 115.117 723.571 Q113.219 721.789 109.862 721.789 M105.186 719.798 Q102.177 719.057 100.487 716.997 Q98.8208 714.937 98.8208 711.974 Q98.8208 707.83 101.761 705.423 Q104.724 703.016 109.862 703.016 Q115.024 703.016 117.964 705.423 Q120.904 707.83 120.904 711.974 Q120.904 714.937 119.214 716.997 Q117.548 719.057 114.561 719.798 Q117.941 720.585 119.816 722.877 Q121.714 725.168 121.714 728.478 Q121.714 733.501 118.635 736.187 Q115.58 738.872 109.862 738.872 Q104.145 738.872 101.066 736.187 Q98.0106 733.501 98.0106 728.478 Q98.0106 725.168 99.9087 722.877 Q101.807 720.585 105.186 719.798 M103.474 712.414 Q103.474 715.099 105.14 716.603 Q106.83 718.108 109.862 718.108 Q112.872 718.108 114.561 716.603 Q116.274 715.099 116.274 712.414 Q116.274 709.728 114.561 708.224 Q112.872 706.719 109.862 706.719 Q106.83 706.719 105.14 708.224 Q103.474 709.728 103.474 712.414 Z" fill="#000000" fill-rule="nonzero" fill-opacity="1" /><path clip-path="url(#clip980)" d="M55.3488 414.229 L62.9876 414.229 L62.9876 387.863 L54.6775 389.53 L54.6775 385.271 L62.9413 383.604 L67.6172 383.604 L67.6172 414.229 L75.2561 414.229 L75.2561 418.164 L55.3488 418.164 L55.3488 414.229 Z" fill="#000000" fill-rule="nonzero" fill-opacity="1" /><path clip-path="url(#clip980)" d="M84.7005 412.285 L89.5847 412.285 L89.5847 418.164 L84.7005 418.164 L84.7005 412.285 Z" fill="#000000" fill-rule="nonzero" fill-opacity="1" /><path clip-path="url(#clip980)" d="M109.77 386.683 Q106.159 386.683 104.33 390.248 Q102.524 393.789 102.524 400.919 Q102.524 408.025 104.33 411.59 Q106.159 415.132 109.77 415.132 Q113.404 415.132 115.21 411.59 Q117.038 408.025 117.038 400.919 Q117.038 393.789 115.21 390.248 Q113.404 386.683 109.77 386.683 M109.77 382.979 Q115.58 382.979 118.635 387.586 Q121.714 392.169 121.714 400.919 Q121.714 409.646 118.635 414.252 Q115.58 418.836 109.77 418.836 Q103.96 418.836 100.881 414.252 Q97.8254 409.646 97.8254 400.919 Q97.8254 392.169 100.881 387.586 Q103.96 382.979 109.77 382.979 Z" fill="#000000" fill-rule="nonzero" fill-opacity="1" /><path clip-path="url(#clip980)" d="M56.946 94.1927 L64.5848 94.1927 L64.5848 67.8271 L56.2747 69.4938 L56.2747 65.2346 L64.5385 63.5679 L69.2144 63.5679 L69.2144 94.1927 L76.8533 94.1927 L76.8533 98.1279 L56.946 98.1279 L56.946 94.1927 Z" fill="#000000" fill-rule="nonzero" fill-opacity="1" /><path clip-path="url(#clip980)" d="M86.2977 92.2483 L91.1819 92.2483 L91.1819 98.1279 L86.2977 98.1279 L86.2977 92.2483 Z" fill="#000000" fill-rule="nonzero" fill-opacity="1" /><path clip-path="url(#clip980)" d="M105.395 94.1927 L121.714 94.1927 L121.714 98.1279 L99.7698 98.1279 L99.7698 94.1927 Q102.432 91.4381 107.015 86.8085 Q111.622 82.1558 112.802 80.8132 Q115.048 78.29 115.927 76.5539 Q116.83 74.7947 116.83 73.1049 Q116.83 70.3503 114.885 68.6142 Q112.964 66.8781 109.862 66.8781 Q107.663 66.8781 105.21 67.642 Q102.779 68.4058 100.001 69.9568 L100.001 65.2346 Q102.825 64.1003 105.279 63.5216 Q107.733 62.9429 109.77 62.9429 Q115.14 62.9429 118.335 65.6281 Q121.529 68.3133 121.529 72.804 Q121.529 74.9336 120.719 76.8549 Q119.932 78.753 117.825 81.3456 Q117.247 82.0169 114.145 85.2345 Q111.043 88.4289 105.395 94.1927 Z" fill="#000000" fill-rule="nonzero" fill-opacity="1" /><circle clip-path="url(#clip982)" cx="207.489" cy="1200.97" r="14.4" fill="#009af9" fill-rule="evenodd" fill-opacity="1" stroke="#000000" stroke-opacity="1" stroke-width="2.688"/>
<circle clip-path="url(#clip982)" cx="244.289" cy="80.8479" r="14.4" fill="#009af9" fill-rule="evenodd" fill-opacity="1" stroke="#000000" stroke-opacity="1" stroke-width="2.688"/>
<circle clip-path="url(#clip982)" cx="281.088" cy="500.896" r="14.4" fill="#009af9" fill-rule="evenodd" fill-opacity="1" stroke="#000000" stroke-opacity="1" stroke-width="2.688"/>
<circle clip-path="url(#clip982)" cx="317.888" cy="366.838" r="14.4" fill="#009af9" fill-rule="evenodd" fill-opacity="1" stroke="#000000" stroke-opacity="1" stroke-width="2.688"/>
<circle clip-path="url(#clip982)" cx="354.687" cy="412.153" r="14.4" fill="#009af9" fill-rule="evenodd" fill-opacity="1" stroke="#000000" stroke-opacity="1" stroke-width="2.688"/>
<circle clip-path="url(#clip982)" cx="391.486" cy="397.119" r="14.4" fill="#009af9" fill-rule="evenodd" fill-opacity="1" stroke="#000000" stroke-opacity="1" stroke-width="2.688"/>
<circle clip-path="url(#clip982)" cx="428.286" cy="402.138" r="14.4" fill="#009af9" fill-rule="evenodd" fill-opacity="1" stroke="#000000" stroke-opacity="1" stroke-width="2.688"/>
<circle clip-path="url(#clip982)" cx="465.085" cy="400.466" r="14.4" fill="#009af9" fill-rule="evenodd" fill-opacity="1" stroke="#000000" stroke-opacity="1" stroke-width="2.688"/>
<circle clip-path="url(#clip982)" cx="501.885" cy="401.024" r="14.4" fill="#009af9" fill-rule="evenodd" fill-opacity="1" stroke="#000000" stroke-opacity="1" stroke-width="2.688"/>
<circle clip-path="url(#clip982)" cx="538.684" cy="400.838" r="14.4" fill="#009af9" fill-rule="evenodd" fill-opacity="1" stroke="#000000" stroke-opacity="1" stroke-width="2.688"/>
<circle clip-path="url(#clip982)" cx="575.483" cy="400.9" r="14.4" fill="#009af9" fill-rule="evenodd" fill-opacity="1" stroke="#000000" stroke-opacity="1" stroke-width="2.688"/>
<circle clip-path="url(#clip982)" cx="612.283" cy="400.879" r="14.4" fill="#009af9" fill-rule="evenodd" fill-opacity="1" stroke="#000000" stroke-opacity="1" stroke-width="2.688"/>
<circle clip-path="url(#clip982)" cx="649.082" cy="400.886" r="14.4" fill="#009af9" fill-rule="evenodd" fill-opacity="1" stroke="#000000" stroke-opacity="1" stroke-width="2.688"/>
<circle clip-path="url(#clip982)" cx="685.882" cy="400.884" r="14.4" fill="#009af9" fill-rule="evenodd" fill-opacity="1" stroke="#000000" stroke-opacity="1" stroke-width="2.688"/>
<circle clip-path="url(#clip982)" cx="722.681" cy="400.884" r="14.4" fill="#009af9" fill-rule="evenodd" fill-opacity="1" stroke="#000000" stroke-opacity="1" stroke-width="2.688"/>
<circle clip-path="url(#clip982)" cx="759.481" cy="400.884" r="14.4" fill="#009af9" fill-rule="evenodd" fill-opacity="1" stroke="#000000" stroke-opacity="1" stroke-width="2.688"/>
<circle clip-path="url(#clip982)" cx="796.28" cy="400.884" r="14.4" fill="#009af9" fill-rule="evenodd" fill-opacity="1" stroke="#000000" stroke-opacity="1" stroke-width="2.688"/>
<circle clip-path="url(#clip982)" cx="833.079" cy="400.884" r="14.4" fill="#009af9" fill-rule="evenodd" fill-opacity="1" stroke="#000000" stroke-opacity="1" stroke-width="2.688"/>
<circle clip-path="url(#clip982)" cx="869.879" cy="400.884" r="14.4" fill="#009af9" fill-rule="evenodd" fill-opacity="1" stroke="#000000" stroke-opacity="1" stroke-width="2.688"/>
<circle clip-path="url(#clip982)" cx="906.678" cy="400.884" r="14.4" fill="#009af9" fill-rule="evenodd" fill-opacity="1" stroke="#000000" stroke-opacity="1" stroke-width="2.688"/>
<circle clip-path="url(#clip982)" cx="943.478" cy="400.884" r="14.4" fill="#009af9" fill-rule="evenodd" fill-opacity="1" stroke="#000000" stroke-opacity="1" stroke-width="2.688"/>
<circle clip-path="url(#clip982)" cx="980.277" cy="400.884" r="14.4" fill="#009af9" fill-rule="evenodd" fill-opacity="1" stroke="#000000" stroke-opacity="1" stroke-width="2.688"/>
<circle clip-path="url(#clip982)" cx="1017.08" cy="400.884" r="14.4" fill="#009af9" fill-rule="evenodd" fill-opacity="1" stroke="#000000" stroke-opacity="1" stroke-width="2.688"/>
<circle clip-path="url(#clip982)" cx="1053.88" cy="400.884" r="14.4" fill="#009af9" fill-rule="evenodd" fill-opacity="1" stroke="#000000" stroke-opacity="1" stroke-width="2.688"/>
<circle clip-path="url(#clip982)" cx="1090.68" cy="400.884" r="14.4" fill="#009af9" fill-rule="evenodd" fill-opacity="1" stroke="#000000" stroke-opacity="1" stroke-width="2.688"/>
<circle clip-path="url(#clip982)" cx="1127.47" cy="400.884" r="14.4" fill="#009af9" fill-rule="evenodd" fill-opacity="1" stroke="#000000" stroke-opacity="1" stroke-width="2.688"/>
<circle clip-path="url(#clip982)" cx="1164.27" cy="400.884" r="14.4" fill="#009af9" fill-rule="evenodd" fill-opacity="1" stroke="#000000" stroke-opacity="1" stroke-width="2.688"/>
<circle clip-path="url(#clip982)" cx="1201.07" cy="400.884" r="14.4" fill="#009af9" fill-rule="evenodd" fill-opacity="1" stroke="#000000" stroke-opacity="1" stroke-width="2.688"/>
<circle clip-path="url(#clip982)" cx="1237.87" cy="400.884" r="14.4" fill="#009af9" fill-rule="evenodd" fill-opacity="1" stroke="#000000" stroke-opacity="1" stroke-width="2.688"/>
<circle clip-path="url(#clip982)" cx="1274.67" cy="400.884" r="14.4" fill="#009af9" fill-rule="evenodd" fill-opacity="1" stroke="#000000" stroke-opacity="1" stroke-width="2.688"/>
<circle clip-path="url(#clip982)" cx="1311.47" cy="400.884" r="14.4" fill="#009af9" fill-rule="evenodd" fill-opacity="1" stroke="#000000" stroke-opacity="1" stroke-width="2.688"/>
<circle clip-path="url(#clip982)" cx="1348.27" cy="400.884" r="14.4" fill="#009af9" fill-rule="evenodd" fill-opacity="1" stroke="#000000" stroke-opacity="1" stroke-width="2.688"/>
<circle clip-path="url(#clip982)" cx="1385.07" cy="400.884" r="14.4" fill="#009af9" fill-rule="evenodd" fill-opacity="1" stroke="#000000" stroke-opacity="1" stroke-width="2.688"/>
<circle clip-path="url(#clip982)" cx="1421.87" cy="400.884" r="14.4" fill="#009af9" fill-rule="evenodd" fill-opacity="1" stroke="#000000" stroke-opacity="1" stroke-width="2.688"/>
<circle clip-path="url(#clip982)" cx="1458.67" cy="400.884" r="14.4" fill="#009af9" fill-rule="evenodd" fill-opacity="1" stroke="#000000" stroke-opacity="1" stroke-width="2.688"/>
<circle clip-path="url(#clip982)" cx="1495.47" cy="400.884" r="14.4" fill="#009af9" fill-rule="evenodd" fill-opacity="1" stroke="#000000" stroke-opacity="1" stroke-width="2.688"/>
<circle clip-path="url(#clip982)" cx="1532.27" cy="400.884" r="14.4" fill="#009af9" fill-rule="evenodd" fill-opacity="1" stroke="#000000" stroke-opacity="1" stroke-width="2.688"/>
<circle clip-path="url(#clip982)" cx="1569.07" cy="400.884" r="14.4" fill="#009af9" fill-rule="evenodd" fill-opacity="1" stroke="#000000" stroke-opacity="1" stroke-width="2.688"/>
<circle clip-path="url(#clip982)" cx="1605.87" cy="400.884" r="14.4" fill="#009af9" fill-rule="evenodd" fill-opacity="1" stroke="#000000" stroke-opacity="1" stroke-width="2.688"/>
<circle clip-path="url(#clip982)" cx="1642.67" cy="400.884" r="14.4" fill="#009af9" fill-rule="evenodd" fill-opacity="1" stroke="#000000" stroke-opacity="1" stroke-width="2.688"/>
<circle clip-path="url(#clip982)" cx="1679.47" cy="400.884" r="14.4" fill="#009af9" fill-rule="evenodd" fill-opacity="1" stroke="#000000" stroke-opacity="1" stroke-width="2.688"/>
<circle clip-path="url(#clip982)" cx="1716.27" cy="400.884" r="14.4" fill="#009af9" fill-rule="evenodd" fill-opacity="1" stroke="#000000" stroke-opacity="1" stroke-width="2.688"/>
<circle clip-path="url(#clip982)" cx="1753.06" cy="400.884" r="14.4" fill="#009af9" fill-rule="evenodd" fill-opacity="1" stroke="#000000" stroke-opacity="1" stroke-width="2.688"/>
<circle clip-path="url(#clip982)" cx="1789.86" cy="400.884" r="14.4" fill="#009af9" fill-rule="evenodd" fill-opacity="1" stroke="#000000" stroke-opacity="1" stroke-width="2.688"/>
<circle clip-path="url(#clip982)" cx="1826.66" cy="400.884" r="14.4" fill="#009af9" fill-rule="evenodd" fill-opacity="1" stroke="#000000" stroke-opacity="1" stroke-width="2.688"/>
<circle clip-path="url(#clip982)" cx="1863.46" cy="400.884" r="14.4" fill="#009af9" fill-rule="evenodd" fill-opacity="1" stroke="#000000" stroke-opacity="1" stroke-width="2.688"/>
<circle clip-path="url(#clip982)" cx="1900.26" cy="400.884" r="14.4" fill="#009af9" fill-rule="evenodd" fill-opacity="1" stroke="#000000" stroke-opacity="1" stroke-width="2.688"/>
<circle clip-path="url(#clip982)" cx="1937.06" cy="400.884" r="14.4" fill="#009af9" fill-rule="evenodd" fill-opacity="1" stroke="#000000" stroke-opacity="1" stroke-width="2.688"/>
<circle clip-path="url(#clip982)" cx="1973.86" cy="400.884" r="14.4" fill="#009af9" fill-rule="evenodd" fill-opacity="1" stroke="#000000" stroke-opacity="1" stroke-width="2.688"/>
<circle clip-path="url(#clip982)" cx="2010.66" cy="400.884" r="14.4" fill="#009af9" fill-rule="evenodd" fill-opacity="1" stroke="#000000" stroke-opacity="1" stroke-width="2.688"/>
</svg>
