<?xml version="1.0" encoding="utf-8"?>
<svg xmlns="http://www.w3.org/2000/svg" xmlns:xlink="http://www.w3.org/1999/xlink" width="528" height="336" viewBox="0 0 2112 1344">
<defs>
  <clipPath id="clip040">
    <rect x="0" y="0" width="2112" height="1344"/>
  </clipPath>
</defs>
<path clip-path="url(#clip040)" d="M0 1344 L2112 1344 L2112 0 L0 0  Z" fill="#ffffff" fill-rule="evenodd" fill-opacity="1"/>
<defs>
  <clipPath id="clip041">
    <rect x="422" y="0" width="1479" height="1344"/>
  </clipPath>
</defs>
<path clip-path="url(#clip040)" d="M183.047 1234.58 L2064.76 1234.58 L2064.76 47.2441 L183.047 47.2441  Z" fill="#ffffff" fill-rule="evenodd" fill-opacity="1"/>
<defs>
  <clipPath id="clip042">
    <rect x="183" y="47" width="1883" height="1188"/>
  </clipPath>
</defs>
<polyline clip-path="url(#clip042)" style="stroke:#000000; stroke-linecap:round; stroke-linejoin:round; stroke-width:2; stroke-opacity:0.1; fill:none" points="236.303,1234.58 236.303,47.2441 "/>
<polyline clip-path="url(#clip042)" style="stroke:#000000; stroke-linecap:round; stroke-linejoin:round; stroke-width:2; stroke-opacity:0.1; fill:none" points="680.102,1234.58 680.102,47.2441 "/>
<polyline clip-path="url(#clip042)" style="stroke:#000000; stroke-linecap:round; stroke-linejoin:round; stroke-width:2; stroke-opacity:0.1; fill:none" points="1123.9,1234.58 1123.9,47.2441 "/>
<polyline clip-path="url(#clip042)" style="stroke:#000000; stroke-linecap:round; stroke-linejoin:round; stroke-width:2; stroke-opacity:0.1; fill:none" points="1567.7,1234.58 1567.7,47.2441 "/>
<polyline clip-path="url(#clip042)" style="stroke:#000000; stroke-linecap:round; stroke-linejoin:round; stroke-width:2; stroke-opacity:0.1; fill:none" points="2011.5,1234.58 2011.5,47.2441 "/>
<polyline clip-path="url(#clip040)" style="stroke:#000000; stroke-linecap:round; stroke-linejoin:round; stroke-width:4; stroke-opacity:1; fill:none" points="183.047,1234.58 2064.76,1234.58 "/>
<polyline clip-path="url(#clip040)" style="stroke:#000000; stroke-linecap:round; stroke-linejoin:round; stroke-width:4; stroke-opacity:1; fill:none" points="236.303,1234.58 236.303,1215.68 "/>
<polyline clip-path="url(#clip040)" style="stroke:#000000; stroke-linecap:round; stroke-linejoin:round; stroke-width:4; stroke-opacity:1; fill:none" points="680.102,1234.58 680.102,1215.68 "/>
<polyline clip-path="url(#clip040)" style="stroke:#000000; stroke-linecap:round; stroke-linejoin:round; stroke-width:4; stroke-opacity:1; fill:none" points="1123.9,1234.58 1123.9,1215.68 "/>
<polyline clip-path="url(#clip040)" style="stroke:#000000; stroke-linecap:round; stroke-linejoin:round; stroke-width:4; stroke-opacity:1; fill:none" points="1567.7,1234.58 1567.7,1215.68 "/>
<polyline clip-path="url(#clip040)" style="stroke:#000000; stroke-linecap:round; stroke-linejoin:round; stroke-width:4; stroke-opacity:1; fill:none" points="2011.5,1234.58 2011.5,1215.68 "/>
<path clip-path="url(#clip040)" d="M226.685 1290.74 L234.324 1290.74 L234.324 1264.37 L226.013 1266.04 L226.013 1261.78 L234.277 1260.11 L238.953 1260.11 L238.953 1290.74 L246.592 1290.74 L246.592 1294.67 L226.685 1294.67 L226.685 1290.74 Z" fill="#000000" fill-rule="nonzero" fill-opacity="1" /><path clip-path="url(#clip040)" d="M674.755 1290.74 L691.074 1290.74 L691.074 1294.67 L669.13 1294.67 L669.13 1290.74 Q671.792 1287.99 676.375 1283.36 Q680.982 1278.7 682.162 1277.36 Q684.408 1274.84 685.287 1273.1 Q686.19 1271.34 686.19 1269.65 Q686.19 1266.9 684.246 1265.16 Q682.324 1263.42 679.222 1263.42 Q677.023 1263.42 674.57 1264.19 Q672.139 1264.95 669.361 1266.5 L669.361 1261.78 Q672.185 1260.65 674.639 1260.07 Q677.093 1259.49 679.13 1259.49 Q684.5 1259.49 687.695 1262.17 Q690.889 1264.86 690.889 1269.35 Q690.889 1271.48 690.079 1273.4 Q689.292 1275.3 687.185 1277.89 Q686.607 1278.56 683.505 1281.78 Q680.403 1284.98 674.755 1290.74 Z" fill="#000000" fill-rule="nonzero" fill-opacity="1" /><path clip-path="url(#clip040)" d="M1128.15 1276.04 Q1131.51 1276.76 1133.38 1279.03 Q1135.28 1281.3 1135.28 1284.63 Q1135.28 1289.74 1131.76 1292.55 Q1128.24 1295.35 1121.76 1295.35 Q1119.58 1295.35 1117.27 1294.91 Q1114.98 1294.49 1112.52 1293.63 L1112.52 1289.12 Q1114.47 1290.25 1116.78 1290.83 Q1119.1 1291.41 1121.62 1291.41 Q1126.02 1291.41 1128.31 1289.67 Q1130.63 1287.94 1130.63 1284.63 Q1130.63 1281.57 1128.47 1279.86 Q1126.34 1278.12 1122.52 1278.12 L1118.5 1278.12 L1118.5 1274.28 L1122.71 1274.28 Q1126.16 1274.28 1127.99 1272.92 Q1129.82 1271.53 1129.82 1268.93 Q1129.82 1266.27 1127.92 1264.86 Q1126.04 1263.42 1122.52 1263.42 Q1120.6 1263.42 1118.4 1263.84 Q1116.2 1264.26 1113.57 1265.14 L1113.57 1260.97 Q1116.23 1260.23 1118.54 1259.86 Q1120.88 1259.49 1122.94 1259.49 Q1128.26 1259.49 1131.37 1261.92 Q1134.47 1264.33 1134.47 1268.45 Q1134.47 1271.32 1132.82 1273.31 Q1131.18 1275.28 1128.15 1276.04 Z" fill="#000000" fill-rule="nonzero" fill-opacity="1" /><path clip-path="url(#clip040)" d="M1570.71 1264.19 L1558.9 1282.64 L1570.71 1282.64 L1570.71 1264.19 M1569.48 1260.11 L1575.36 1260.11 L1575.36 1282.64 L1580.29 1282.64 L1580.29 1286.53 L1575.36 1286.53 L1575.36 1294.67 L1570.71 1294.67 L1570.71 1286.53 L1555.11 1286.53 L1555.11 1282.01 L1569.48 1260.11 Z" fill="#000000" fill-rule="nonzero" fill-opacity="1" /><path clip-path="url(#clip040)" d="M2001.78 1260.11 L2020.13 1260.11 L2020.13 1264.05 L2006.06 1264.05 L2006.06 1272.52 Q2007.08 1272.17 2008.1 1272.01 Q2009.12 1271.83 2010.13 1271.83 Q2015.92 1271.83 2019.3 1275 Q2022.68 1278.17 2022.68 1283.59 Q2022.68 1289.17 2019.21 1292.27 Q2015.74 1295.35 2009.42 1295.35 Q2007.24 1295.35 2004.97 1294.98 Q2002.73 1294.61 2000.32 1293.86 L2000.32 1289.17 Q2002.4 1290.3 2004.63 1290.86 Q2006.85 1291.41 2009.32 1291.41 Q2013.33 1291.41 2015.67 1289.3 Q2018 1287.2 2018 1283.59 Q2018 1279.98 2015.67 1277.87 Q2013.33 1275.76 2009.32 1275.76 Q2007.45 1275.76 2005.57 1276.18 Q2003.72 1276.6 2001.78 1277.48 L2001.78 1260.11 Z" fill="#000000" fill-rule="nonzero" fill-opacity="1" /><polyline clip-path="url(#clip042)" style="stroke:#000000; stroke-linecap:round; stroke-linejoin:round; stroke-width:2; stroke-opacity:0.1; fill:none" points="183.047,1200.97 2064.76,1200.97 "/>
<polyline clip-path="url(#clip042)" style="stroke:#000000; stroke-linecap:round; stroke-linejoin:round; stroke-width:2; stroke-opacity:0.1; fill:none" points="183.047,920.943 2064.76,920.943 "/>
<polyline clip-path="url(#clip042)" style="stroke:#000000; stroke-linecap:round; stroke-linejoin:round; stroke-width:2; stroke-opacity:0.1; fill:none" points="183.047,640.911 2064.76,640.911 "/>
<polyline clip-path="url(#clip042)" style="stroke:#000000; stroke-linecap:round; stroke-linejoin:round; stroke-width:2; stroke-opacity:0.1; fill:none" points="183.047,360.88 2064.76,360.88 "/>
<polyline clip-path="url(#clip042)" style="stroke:#000000; stroke-linecap:round; stroke-linejoin:round; stroke-width:2; stroke-opacity:0.1; fill:none" points="183.047,80.8479 2064.76,80.8479 "/>
<polyline clip-path="url(#clip040)" style="stroke:#000000; stroke-linecap:round; stroke-linejoin:round; stroke-width:4; stroke-opacity:1; fill:none" points="183.047,1234.58 183.047,47.2441 "/>
<polyline clip-path="url(#clip040)" style="stroke:#000000; stroke-linecap:round; stroke-linejoin:round; stroke-width:4; stroke-opacity:1; fill:none" points="183.047,1200.97 201.944,1200.97 "/>
<polyline clip-path="url(#clip040)" style="stroke:#000000; stroke-linecap:round; stroke-linejoin:round; stroke-width:4; stroke-opacity:1; fill:none" points="183.047,920.943 201.944,920.943 "/>
<polyline clip-path="url(#clip040)" style="stroke:#000000; stroke-linecap:round; stroke-linejoin:round; stroke-width:4; stroke-opacity:1; fill:none" points="183.047,640.911 201.944,640.911 "/>
<polyline clip-path="url(#clip040)" style="stroke:#000000; stroke-linecap:round; stroke-linejoin:round; stroke-width:4; stroke-opacity:1; fill:none" points="183.047,360.88 201.944,360.88 "/>
<polyline clip-path="url(#clip040)" style="stroke:#000000; stroke-linecap:round; stroke-linejoin:round; stroke-width:4; stroke-opacity:1; fill:none" points="183.047,80.8479 201.944,80.8479 "/>
<path clip-path="url(#clip040)" d="M54.8395 1214.32 L62.4784 1214.32 L62.4784 1187.95 L54.1682 1189.62 L54.1682 1185.36 L62.4321 1183.69 L67.108 1183.69 L67.108 1214.32 L74.7468 1214.32 L74.7468 1218.25 L54.8395 1218.25 L54.8395 1214.32 Z" fill="#000000" fill-rule="nonzero" fill-opacity="1" /><path clip-path="url(#clip040)" d="M84.1912 1212.38 L89.0754 1212.38 L89.0754 1218.25 L84.1912 1218.25 L84.1912 1212.38 Z" fill="#000000" fill-rule="nonzero" fill-opacity="1" /><path clip-path="url(#clip040)" d="M109.261 1186.77 Q105.649 1186.77 103.821 1190.34 Q102.015 1193.88 102.015 1201.01 Q102.015 1208.12 103.821 1211.68 Q105.649 1215.22 109.261 1215.22 Q112.895 1215.22 114.7 1211.68 Q116.529 1208.12 116.529 1201.01 Q116.529 1193.88 114.7 1190.34 Q112.895 1186.77 109.261 1186.77 M109.261 1183.07 Q115.071 1183.07 118.126 1187.68 Q121.205 1192.26 121.205 1201.01 Q121.205 1209.74 118.126 1214.34 Q115.071 1218.93 109.261 1218.93 Q103.45 1218.93 100.372 1214.34 Q97.3161 1209.74 97.3161 1201.01 Q97.3161 1192.26 100.372 1187.68 Q103.45 1183.07 109.261 1183.07 Z" fill="#000000" fill-rule="nonzero" fill-opacity="1" /><path clip-path="url(#clip040)" d="M139.422 1186.77 Q135.811 1186.77 133.983 1190.34 Q132.177 1193.88 132.177 1201.01 Q132.177 1208.12 133.983 1211.68 Q135.811 1215.22 139.422 1215.22 Q143.057 1215.22 144.862 1211.68 Q146.691 1208.12 146.691 1201.01 Q146.691 1193.88 144.862 1190.34 Q143.057 1186.77 139.422 1186.77 M139.422 1183.07 Q145.233 1183.07 148.288 1187.68 Q151.367 1192.26 151.367 1201.01 Q151.367 1209.74 148.288 1214.34 Q145.233 1218.93 139.422 1218.93 Q133.612 1218.93 130.534 1214.34 Q127.478 1209.74 127.478 1201.01 Q127.478 1192.26 130.534 1187.68 Q133.612 1183.07 139.422 1183.07 Z" fill="#000000" fill-rule="nonzero" fill-opacity="1" /><path clip-path="url(#clip040)" d="M55.8349 934.288 L63.4737 934.288 L63.4737 907.922 L55.1636 909.589 L55.1636 905.33 L63.4274 903.663 L68.1033 903.663 L68.1033 934.288 L75.7422 934.288 L75.7422 938.223 L55.8349 938.223 L55.8349 934.288 Z" fill="#000000" fill-rule="nonzero" fill-opacity="1" /><path clip-path="url(#clip040)" d="M85.1866 932.344 L90.0708 932.344 L90.0708 938.223 L85.1866 938.223 L85.1866 932.344 Z" fill="#000000" fill-rule="nonzero" fill-opacity="1" /><path clip-path="url(#clip040)" d="M104.284 934.288 L120.603 934.288 L120.603 938.223 L98.6587 938.223 L98.6587 934.288 Q101.321 931.533 105.904 926.904 Q110.511 922.251 111.691 920.908 Q113.936 918.385 114.816 916.649 Q115.719 914.89 115.719 913.2 Q115.719 910.446 113.774 908.709 Q111.853 906.973 108.751 906.973 Q106.552 906.973 104.099 907.737 Q101.668 908.501 98.8902 910.052 L98.8902 905.33 Q101.714 904.196 104.168 903.617 Q106.622 903.038 108.659 903.038 Q114.029 903.038 117.223 905.723 Q120.418 908.409 120.418 912.899 Q120.418 915.029 119.608 916.95 Q118.821 918.848 116.714 921.441 Q116.135 922.112 113.034 925.33 Q109.932 928.524 104.284 934.288 Z" fill="#000000" fill-rule="nonzero" fill-opacity="1" /><path clip-path="url(#clip040)" d="M130.464 903.663 L148.82 903.663 L148.82 907.598 L134.746 907.598 L134.746 916.071 Q135.765 915.723 136.784 915.561 Q137.802 915.376 138.821 915.376 Q144.608 915.376 147.987 918.547 Q151.367 921.719 151.367 927.135 Q151.367 932.714 147.895 935.816 Q144.422 938.894 138.103 938.894 Q135.927 938.894 133.659 938.524 Q131.413 938.154 129.006 937.413 L129.006 932.714 Q131.089 933.848 133.311 934.404 Q135.534 934.959 138.01 934.959 Q142.015 934.959 144.353 932.853 Q146.691 930.746 146.691 927.135 Q146.691 923.524 144.353 921.418 Q142.015 919.311 138.01 919.311 Q136.135 919.311 134.26 919.728 Q132.409 920.145 130.464 921.024 L130.464 903.663 Z" fill="#000000" fill-rule="nonzero" fill-opacity="1" /><path clip-path="url(#clip040)" d="M54.8395 654.256 L62.4784 654.256 L62.4784 627.891 L54.1682 629.557 L54.1682 625.298 L62.4321 623.631 L67.108 623.631 L67.108 654.256 L74.7468 654.256 L74.7468 658.191 L54.8395 658.191 L54.8395 654.256 Z" fill="#000000" fill-rule="nonzero" fill-opacity="1" /><path clip-path="url(#clip040)" d="M84.1912 652.312 L89.0754 652.312 L89.0754 658.191 L84.1912 658.191 L84.1912 652.312 Z" fill="#000000" fill-rule="nonzero" fill-opacity="1" /><path clip-path="url(#clip040)" d="M99.3069 623.631 L117.663 623.631 L117.663 627.567 L103.589 627.567 L103.589 636.039 Q104.608 635.692 105.626 635.53 Q106.645 635.344 107.663 635.344 Q113.45 635.344 116.83 638.516 Q120.21 641.687 120.21 647.104 Q120.21 652.682 116.737 655.784 Q113.265 658.863 106.946 658.863 Q104.77 658.863 102.501 658.492 Q100.256 658.122 97.8485 657.381 L97.8485 652.682 Q99.9319 653.816 102.154 654.372 Q104.376 654.928 106.853 654.928 Q110.858 654.928 113.196 652.821 Q115.534 650.715 115.534 647.104 Q115.534 643.492 113.196 641.386 Q110.858 639.28 106.853 639.28 Q104.978 639.28 103.103 639.696 Q101.251 640.113 99.3069 640.992 L99.3069 623.631 Z" fill="#000000" fill-rule="nonzero" fill-opacity="1" /><path clip-path="url(#clip040)" d="M139.422 626.71 Q135.811 626.71 133.983 630.275 Q132.177 633.817 132.177 640.946 Q132.177 648.053 133.983 651.617 Q135.811 655.159 139.422 655.159 Q143.057 655.159 144.862 651.617 Q146.691 648.053 146.691 640.946 Q146.691 633.817 144.862 630.275 Q143.057 626.71 139.422 626.71 M139.422 623.006 Q145.233 623.006 148.288 627.613 Q151.367 632.196 151.367 640.946 Q151.367 649.673 148.288 654.279 Q145.233 658.863 139.422 658.863 Q133.612 658.863 130.534 654.279 Q127.478 649.673 127.478 640.946 Q127.478 632.196 130.534 627.613 Q133.612 623.006 139.422 623.006 Z" fill="#000000" fill-rule="nonzero" fill-opacity="1" /><path clip-path="url(#clip040)" d="M55.8349 374.225 L63.4737 374.225 L63.4737 347.859 L55.1636 349.526 L55.1636 345.266 L63.4274 343.6 L68.1033 343.6 L68.1033 374.225 L75.7422 374.225 L75.7422 378.16 L55.8349 378.16 L55.8349 374.225 Z" fill="#000000" fill-rule="nonzero" fill-opacity="1" /><path clip-path="url(#clip040)" d="M85.1866 372.28 L90.0708 372.28 L90.0708 378.16 L85.1866 378.16 L85.1866 372.28 Z" fill="#000000" fill-rule="nonzero" fill-opacity="1" /><path clip-path="url(#clip040)" d="M99.0754 343.6 L121.297 343.6 L121.297 345.59 L108.751 378.16 L103.867 378.16 L115.673 347.535 L99.0754 347.535 L99.0754 343.6 Z" fill="#000000" fill-rule="nonzero" fill-opacity="1" /><path clip-path="url(#clip040)" d="M130.464 343.6 L148.82 343.6 L148.82 347.535 L134.746 347.535 L134.746 356.007 Q135.765 355.66 136.784 355.498 Q137.802 355.313 138.821 355.313 Q144.608 355.313 147.987 358.484 Q151.367 361.655 151.367 367.072 Q151.367 372.65 147.895 375.752 Q144.422 378.831 138.103 378.831 Q135.927 378.831 133.659 378.461 Q131.413 378.09 129.006 377.349 L129.006 372.65 Q131.089 373.785 133.311 374.34 Q135.534 374.896 138.01 374.896 Q142.015 374.896 144.353 372.789 Q146.691 370.683 146.691 367.072 Q146.691 363.461 144.353 361.354 Q142.015 359.248 138.01 359.248 Q136.135 359.248 134.26 359.664 Q132.409 360.081 130.464 360.961 L130.464 343.6 Z" fill="#000000" fill-rule="nonzero" fill-opacity="1" /><path clip-path="url(#clip040)" d="M58.0571 94.1927 L74.3765 94.1927 L74.3765 98.1279 L52.4321 98.1279 L52.4321 94.1927 Q55.0941 91.4381 59.6775 86.8085 Q64.2839 82.1558 65.4645 80.8132 Q67.7098 78.29 68.5894 76.5539 Q69.4922 74.7947 69.4922 73.1049 Q69.4922 70.3503 67.5478 68.6142 Q65.6265 66.8781 62.5247 66.8781 Q60.3256 66.8781 57.8719 67.642 Q55.4414 68.4058 52.6636 69.9568 L52.6636 65.2346 Q55.4877 64.1003 57.9414 63.5216 Q60.395 62.9429 62.4321 62.9429 Q67.8024 62.9429 70.9968 65.6281 Q74.1913 68.3133 74.1913 72.804 Q74.1913 74.9336 73.3811 76.8549 Q72.5941 78.753 70.4876 81.3456 Q69.9089 82.0169 66.807 85.2345 Q63.7052 88.4289 58.0571 94.1927 Z" fill="#000000" fill-rule="nonzero" fill-opacity="1" /><path clip-path="url(#clip040)" d="M84.1912 92.2483 L89.0754 92.2483 L89.0754 98.1279 L84.1912 98.1279 L84.1912 92.2483 Z" fill="#000000" fill-rule="nonzero" fill-opacity="1" /><path clip-path="url(#clip040)" d="M109.261 66.6466 Q105.649 66.6466 103.821 70.2114 Q102.015 73.753 102.015 80.8826 Q102.015 87.9891 103.821 91.5539 Q105.649 95.0955 109.261 95.0955 Q112.895 95.0955 114.7 91.5539 Q116.529 87.9891 116.529 80.8826 Q116.529 73.753 114.7 70.2114 Q112.895 66.6466 109.261 66.6466 M109.261 62.9429 Q115.071 62.9429 118.126 67.5494 Q121.205 72.1327 121.205 80.8826 Q121.205 89.6094 118.126 94.2159 Q115.071 98.7992 109.261 98.7992 Q103.45 98.7992 100.372 94.2159 Q97.3161 89.6094 97.3161 80.8826 Q97.3161 72.1327 100.372 67.5494 Q103.45 62.9429 109.261 62.9429 Z" fill="#000000" fill-rule="nonzero" fill-opacity="1" /><path clip-path="url(#clip040)" d="M139.422 66.6466 Q135.811 66.6466 133.983 70.2114 Q132.177 73.753 132.177 80.8826 Q132.177 87.9891 133.983 91.5539 Q135.811 95.0955 139.422 95.0955 Q143.057 95.0955 144.862 91.5539 Q146.691 87.9891 146.691 80.8826 Q146.691 73.753 144.862 70.2114 Q143.057 66.6466 139.422 66.6466 M139.422 62.9429 Q145.233 62.9429 148.288 67.5494 Q151.367 72.1327 151.367 80.8826 Q151.367 89.6094 148.288 94.2159 Q145.233 98.7992 139.422 98.7992 Q133.612 98.7992 130.534 94.2159 Q127.478 89.6094 127.478 80.8826 Q127.478 72.1327 130.534 67.5494 Q133.612 62.9429 139.422 62.9429 Z" fill="#000000" fill-rule="nonzero" fill-opacity="1" /><circle clip-path="url(#clip042)" cx="236.303" cy="1200.97" r="14.4" fill="#009af9" fill-rule="evenodd" fill-opacity="1" stroke="#000000" stroke-opacity="1" stroke-width="2.688"/>
<circle clip-path="url(#clip042)" cx="680.102" cy="640.911" r="14.4" fill="#009af9" fill-rule="evenodd" fill-opacity="1" stroke="#000000" stroke-opacity="1" stroke-width="2.688"/>
<circle clip-path="url(#clip042)" cx="1123.9" cy="528.899" r="14.4" fill="#009af9" fill-rule="evenodd" fill-opacity="1" stroke="#000000" stroke-opacity="1" stroke-width="2.688"/>
<circle clip-path="url(#clip042)" cx="1567.7" cy="511.666" r="14.4" fill="#009af9" fill-rule="evenodd" fill-opacity="1" stroke="#000000" stroke-opacity="1" stroke-width="2.688"/>
<circle clip-path="url(#clip042)" cx="2011.5" cy="509.132" r="14.4" fill="#009af9" fill-rule="evenodd" fill-opacity="1" stroke="#000000" stroke-opacity="1" stroke-width="2.688"/>
<circle clip-path="url(#clip042)" cx="236.303" cy="80.8479" r="14.4" fill="#e26f46" fill-rule="evenodd" fill-opacity="1" stroke="#000000" stroke-opacity="1" stroke-width="2.688"/>
<circle clip-path="url(#clip042)" cx="680.102" cy="454.224" r="14.4" fill="#e26f46" fill-rule="evenodd" fill-opacity="1" stroke="#000000" stroke-opacity="1" stroke-width="2.688"/>
<circle clip-path="url(#clip042)" cx="1123.9" cy="500.896" r="14.4" fill="#e26f46" fill-rule="evenodd" fill-opacity="1" stroke="#000000" stroke-opacity="1" stroke-width="2.688"/>
<circle clip-path="url(#clip042)" cx="1567.7" cy="507.563" r="14.4" fill="#e26f46" fill-rule="evenodd" fill-opacity="1" stroke="#000000" stroke-opacity="1" stroke-width="2.688"/>
<circle clip-path="url(#clip042)" cx="2011.5" cy="508.533" r="14.4" fill="#e26f46" fill-rule="evenodd" fill-opacity="1" stroke="#000000" stroke-opacity="1" stroke-width="2.688"/>
<path clip-path="url(#clip040)" d="M1684.71 242.342 L2002.03 242.342 L2002.03 86.8219 L1684.71 86.8219  Z" fill="#ffffff" fill-rule="evenodd" fill-opacity="1"/>
<polyline clip-path="url(#clip040)" style="stroke:#000000; stroke-linecap:round; stroke-linejoin:round; stroke-width:4; stroke-opacity:1; fill:none" points="1684.71,242.342 2002.03,242.342 2002.03,86.8219 1684.71,86.8219 1684.71,242.342 "/>
<circle clip-path="url(#clip040)" cx="1768.35" cy="138.662" r="20.48" fill="#009af9" fill-rule="evenodd" fill-opacity="1" stroke="#000000" stroke-opacity="1" stroke-width="3.82293"/>
<path clip-path="url(#clip040)" d="M1873.95 135.197 Q1873.32 138.219 1872.5 139.952 Q1871.18 142.599 1868.96 142.599 Q1867.27 142.599 1866.08 141.568 Q1864.88 140.538 1864.6 138.992 Q1861.53 142.599 1858.35 142.599 Q1855.54 142.599 1853.76 140.467 Q1851.98 138.313 1851.98 134.916 Q1851.98 131.497 1853.66 128.217 Q1855.37 124.938 1858.07 122.901 Q1860.76 120.863 1863.52 120.863 Q1866.45 120.863 1867.95 123.931 Q1868.07 123.088 1868.61 122.456 Q1869.15 121.823 1869.97 121.823 Q1870.6 121.823 1870.97 122.174 Q1871.35 122.502 1871.35 123.111 Q1871.35 123.416 1871.02 124.751 L1869.29 131.45 L1868.23 135.783 Q1867.83 137.376 1867.72 137.961 Q1867.62 138.547 1867.62 139.32 Q1867.62 141.521 1869.05 141.521 Q1869.76 141.521 1870.32 141.076 Q1870.88 140.631 1871.32 139.694 Q1871.77 138.758 1872.05 137.891 Q1872.33 137.001 1872.71 135.595 Q1872.82 135.033 1872.92 134.893 Q1873.03 134.729 1873.36 134.729 Q1873.95 134.729 1873.95 135.197 M1867.37 126.133 Q1867.37 125.922 1867.2 125.336 Q1867.04 124.751 1866.66 123.931 Q1866.29 123.111 1865.47 122.526 Q1864.67 121.917 1863.6 121.917 Q1862.14 121.917 1860.62 123.158 Q1859.12 124.4 1858.02 126.508 Q1857.18 128.194 1856.26 131.731 Q1855.37 135.268 1855.37 137.024 Q1855.37 138.102 1855.61 139.062 Q1855.87 139.999 1856.59 140.772 Q1857.32 141.521 1858.44 141.521 Q1861.18 141.521 1863.88 138.125 Q1864.39 137.54 1864.51 137.305 Q1864.65 137.048 1864.84 136.345 L1867.23 126.953 Q1867.37 126.25 1867.37 126.133 Z" fill="#000000" fill-rule="nonzero" fill-opacity="1" /><path clip-path="url(#clip040)" d="M1878.85 155.885 Q1878.85 155.278 1878.9 155.098 Q1878.96 154.917 1879.23 154.639 L1885.67 147.457 Q1889.2 143.489 1889.2 140.03 Q1889.2 137.784 1888.02 136.177 Q1886.85 134.57 1884.7 134.57 Q1883.23 134.57 1881.98 135.472 Q1880.74 136.374 1880.16 137.981 Q1880.26 137.948 1880.6 137.948 Q1881.44 137.948 1881.9 138.472 Q1882.38 138.997 1882.38 139.702 Q1882.38 140.604 1881.78 141.046 Q1881.21 141.473 1880.64 141.473 Q1880.41 141.473 1880.1 141.424 Q1879.8 141.374 1879.33 140.915 Q1878.85 140.44 1878.85 139.604 Q1878.85 137.259 1880.62 135.39 Q1882.41 133.521 1885.13 133.521 Q1888.21 133.521 1890.23 135.357 Q1892.26 137.177 1892.26 140.03 Q1892.26 141.03 1891.95 141.948 Q1891.66 142.85 1891.25 143.555 Q1890.85 144.26 1889.77 145.391 Q1888.69 146.523 1887.82 147.326 Q1886.95 148.129 1885 149.835 L1881.44 153.294 L1887.49 153.294 Q1890.44 153.294 1890.67 153.032 Q1891 152.556 1891.41 150.048 L1892.26 150.048 L1891.31 155.885 L1878.85 155.885 Z" fill="#000000" fill-rule="nonzero" fill-opacity="1" /><path clip-path="url(#clip040)" d="M1913.14 151.081 Q1913.14 151.212 1912.99 151.72 Q1912.84 152.228 1912.48 153.015 Q1912.14 153.802 1911.66 154.524 Q1911.19 155.229 1910.4 155.753 Q1909.63 156.262 1908.74 156.262 Q1907.56 156.262 1906.78 155.475 Q1905.99 154.688 1905.99 153.507 Q1905.99 152.851 1906.33 151.95 Q1908.52 146.129 1908.52 144.129 Q1908.52 141.784 1906.7 141.784 Q1905.79 141.784 1904.94 142.129 Q1904.1 142.457 1903.53 142.916 Q1902.96 143.375 1902.43 144.014 Q1901.92 144.637 1901.66 145.063 Q1901.42 145.473 1901.22 145.883 L1900.79 147.556 Q1900.69 148.015 1900.22 149.802 L1899.48 152.835 Q1898.96 155.098 1898.84 155.311 Q1898.68 155.77 1898.32 156.016 Q1897.96 156.262 1897.6 156.262 Q1897.19 156.262 1896.91 156.016 Q1896.63 155.77 1896.63 155.344 Q1896.63 155.278 1896.68 155.032 Q1896.73 154.786 1896.81 154.442 Q1896.89 154.097 1896.92 153.901 L1898.87 146.146 Q1899.24 144.736 1899.32 144.293 Q1899.42 143.834 1899.42 143.326 Q1899.42 141.784 1898.37 141.784 Q1897.51 141.784 1896.96 142.801 Q1896.4 143.817 1895.92 145.785 Q1895.78 146.326 1895.68 146.441 Q1895.6 146.555 1895.35 146.555 Q1894.94 146.539 1894.94 146.211 Q1894.94 146.129 1895.07 145.588 Q1895.2 145.047 1895.45 144.276 Q1895.71 143.489 1895.96 142.965 Q1896.17 142.571 1896.28 142.391 Q1896.42 142.194 1896.73 141.817 Q1897.05 141.424 1897.48 141.243 Q1897.92 141.046 1898.46 141.046 Q1899.68 141.046 1900.56 141.833 Q1901.45 142.604 1901.56 143.965 Q1903.74 141.046 1906.79 141.046 Q1908.6 141.046 1909.63 141.997 Q1910.66 142.948 1910.66 144.637 Q1910.66 145.031 1910.58 145.539 Q1910.52 146.031 1910.35 146.654 Q1910.2 147.277 1910.07 147.752 Q1909.94 148.228 1909.68 148.998 Q1909.42 149.753 1909.3 150.081 Q1909.19 150.408 1908.91 151.179 Q1908.65 151.933 1908.61 152.015 Q1908.01 153.54 1908.01 154.409 Q1908.01 154.983 1908.19 155.245 Q1908.38 155.508 1908.81 155.508 Q1909.96 155.508 1910.81 154.376 Q1911.68 153.229 1912.24 151.359 Q1912.37 150.95 1912.43 150.851 Q1912.52 150.753 1912.75 150.753 Q1913.14 150.753 1913.14 151.081 Z" fill="#000000" fill-rule="nonzero" fill-opacity="1" /><path clip-path="url(#clip040)" d="M1946.36 147.015 Q1946.56 147.211 1946.56 147.49 Q1946.56 147.769 1946.36 147.965 Q1946.17 148.162 1945.89 148.162 L1924.87 148.162 Q1924.59 148.162 1924.39 147.965 Q1924.2 147.769 1924.2 147.49 Q1924.2 147.211 1924.39 147.015 Q1924.59 146.818 1924.87 146.818 L1945.89 146.818 Q1946.17 146.818 1946.36 147.015 Z" fill="#000000" fill-rule="nonzero" fill-opacity="1" /><path clip-path="url(#clip040)" d="M1959.38 136.718 L1959.38 135.669 Q1963.41 135.669 1965.49 133.521 Q1966.07 133.521 1966.17 133.652 Q1966.26 133.783 1966.26 134.39 L1966.26 153.229 Q1966.26 154.229 1966.76 154.54 Q1967.25 154.852 1969.39 154.852 L1970.46 154.852 L1970.46 155.885 Q1969.28 155.786 1965.02 155.786 Q1960.75 155.786 1959.59 155.885 L1959.59 154.852 L1960.66 154.852 Q1962.77 154.852 1963.28 154.557 Q1963.79 154.245 1963.79 153.229 L1963.79 135.833 Q1962.03 136.718 1959.38 136.718 Z" fill="#000000" fill-rule="nonzero" fill-opacity="1" /><circle clip-path="url(#clip040)" cx="1768.35" cy="190.502" r="20.48" fill="#e26f46" fill-rule="evenodd" fill-opacity="1" stroke="#000000" stroke-opacity="1" stroke-width="3.82293"/>
<path clip-path="url(#clip040)" d="M1873.95 187.037 Q1873.32 190.059 1872.5 191.792 Q1871.18 194.439 1868.96 194.439 Q1867.27 194.439 1866.08 193.408 Q1864.88 192.378 1864.6 190.832 Q1861.53 194.439 1858.35 194.439 Q1855.54 194.439 1853.76 192.307 Q1851.98 190.153 1851.98 186.756 Q1851.98 183.337 1853.66 180.057 Q1855.37 176.778 1858.07 174.741 Q1860.76 172.703 1863.52 172.703 Q1866.45 172.703 1867.95 175.771 Q1868.07 174.928 1868.61 174.296 Q1869.15 173.663 1869.97 173.663 Q1870.6 173.663 1870.97 174.014 Q1871.35 174.342 1871.35 174.951 Q1871.35 175.256 1871.02 176.591 L1869.29 183.29 L1868.23 187.623 Q1867.83 189.216 1867.72 189.801 Q1867.62 190.387 1867.62 191.16 Q1867.62 193.361 1869.05 193.361 Q1869.76 193.361 1870.32 192.916 Q1870.88 192.471 1871.32 191.534 Q1871.77 190.598 1872.05 189.731 Q1872.33 188.841 1872.71 187.435 Q1872.82 186.873 1872.92 186.733 Q1873.03 186.569 1873.36 186.569 Q1873.95 186.569 1873.95 187.037 M1867.37 177.973 Q1867.37 177.762 1867.2 177.176 Q1867.04 176.591 1866.66 175.771 Q1866.29 174.951 1865.47 174.366 Q1864.67 173.757 1863.6 173.757 Q1862.14 173.757 1860.62 174.998 Q1859.12 176.24 1858.02 178.348 Q1857.18 180.034 1856.26 183.571 Q1855.37 187.108 1855.37 188.864 Q1855.37 189.942 1855.61 190.902 Q1855.87 191.839 1856.59 192.612 Q1857.32 193.361 1858.44 193.361 Q1861.18 193.361 1863.88 189.965 Q1864.39 189.38 1864.51 189.145 Q1864.65 188.888 1864.84 188.185 L1867.23 178.793 Q1867.37 178.09 1867.37 177.973 Z" fill="#000000" fill-rule="nonzero" fill-opacity="1" /><path clip-path="url(#clip040)" d="M1878.85 207.725 Q1878.85 207.118 1878.9 206.938 Q1878.96 206.757 1879.23 206.479 L1885.67 199.297 Q1889.2 195.329 1889.2 191.87 Q1889.2 189.624 1888.02 188.017 Q1886.85 186.41 1884.7 186.41 Q1883.23 186.41 1881.98 187.312 Q1880.74 188.214 1880.16 189.821 Q1880.26 189.788 1880.6 189.788 Q1881.44 189.788 1881.9 190.312 Q1882.38 190.837 1882.38 191.542 Q1882.38 192.444 1881.78 192.886 Q1881.21 193.313 1880.64 193.313 Q1880.41 193.313 1880.1 193.264 Q1879.8 193.214 1879.33 192.755 Q1878.85 192.28 1878.85 191.444 Q1878.85 189.099 1880.62 187.23 Q1882.41 185.361 1885.13 185.361 Q1888.21 185.361 1890.23 187.197 Q1892.26 189.017 1892.26 191.87 Q1892.26 192.87 1891.95 193.788 Q1891.66 194.69 1891.25 195.395 Q1890.85 196.1 1889.77 197.231 Q1888.69 198.363 1887.82 199.166 Q1886.95 199.969 1885 201.675 L1881.44 205.134 L1887.49 205.134 Q1890.44 205.134 1890.67 204.872 Q1891 204.396 1891.41 201.888 L1892.26 201.888 L1891.31 207.725 L1878.85 207.725 Z" fill="#000000" fill-rule="nonzero" fill-opacity="1" /><path clip-path="url(#clip040)" d="M1913.14 202.921 Q1913.14 203.052 1912.99 203.56 Q1912.84 204.068 1912.48 204.855 Q1912.14 205.642 1911.66 206.364 Q1911.19 207.069 1910.4 207.593 Q1909.63 208.102 1908.74 208.102 Q1907.56 208.102 1906.78 207.315 Q1905.99 206.528 1905.99 205.347 Q1905.99 204.691 1906.33 203.79 Q1908.52 197.969 1908.52 195.969 Q1908.52 193.624 1906.7 193.624 Q1905.79 193.624 1904.94 193.969 Q1904.1 194.297 1903.53 194.756 Q1902.96 195.215 1902.43 195.854 Q1901.92 196.477 1901.66 196.903 Q1901.42 197.313 1901.22 197.723 L1900.79 199.396 Q1900.69 199.855 1900.22 201.642 L1899.48 204.675 Q1898.96 206.938 1898.84 207.151 Q1898.68 207.61 1898.32 207.856 Q1897.96 208.102 1897.6 208.102 Q1897.19 208.102 1896.91 207.856 Q1896.63 207.61 1896.63 207.184 Q1896.63 207.118 1896.68 206.872 Q1896.73 206.626 1896.81 206.282 Q1896.89 205.937 1896.92 205.741 L1898.87 197.986 Q1899.24 196.576 1899.32 196.133 Q1899.42 195.674 1899.42 195.166 Q1899.42 193.624 1898.37 193.624 Q1897.51 193.624 1896.96 194.641 Q1896.4 195.657 1895.92 197.625 Q1895.78 198.166 1895.68 198.281 Q1895.6 198.395 1895.35 198.395 Q1894.94 198.379 1894.94 198.051 Q1894.94 197.969 1895.07 197.428 Q1895.2 196.887 1895.45 196.116 Q1895.71 195.329 1895.96 194.805 Q1896.17 194.411 1896.28 194.231 Q1896.42 194.034 1896.73 193.657 Q1897.05 193.264 1897.48 193.083 Q1897.92 192.886 1898.46 192.886 Q1899.68 192.886 1900.56 193.673 Q1901.45 194.444 1901.56 195.805 Q1903.74 192.886 1906.79 192.886 Q1908.6 192.886 1909.63 193.837 Q1910.66 194.788 1910.66 196.477 Q1910.66 196.871 1910.58 197.379 Q1910.52 197.871 1910.35 198.494 Q1910.2 199.117 1910.07 199.592 Q1909.94 200.068 1909.68 200.838 Q1909.42 201.593 1909.3 201.921 Q1909.19 202.248 1908.91 203.019 Q1908.65 203.773 1908.61 203.855 Q1908.01 205.38 1908.01 206.249 Q1908.01 206.823 1908.19 207.085 Q1908.38 207.348 1908.81 207.348 Q1909.96 207.348 1910.81 206.216 Q1911.68 205.069 1912.24 203.199 Q1912.37 202.79 1912.43 202.691 Q1912.52 202.593 1912.75 202.593 Q1913.14 202.593 1913.14 202.921 Z" fill="#000000" fill-rule="nonzero" fill-opacity="1" /></svg>
