<?xml version="1.0" encoding="utf-8"?>
<svg xmlns="http://www.w3.org/2000/svg" xmlns:xlink="http://www.w3.org/1999/xlink" width="672" height="480" viewBox="0 0 2688 1920">
<defs>
  <clipPath id="clip170">
    <rect x="0" y="0" width="2688" height="1920"/>
  </clipPath>
</defs>
<path clip-path="url(#clip170)" d="
M0 1920 L2688 1920 L2688 0 L0 0  Z
  " fill="#ffffff" fill-rule="evenodd" fill-opacity="1"/>
<defs>
  <clipPath id="clip171">
    <rect x="537" y="0" width="1883" height="1883"/>
  </clipPath>
</defs>
<path clip-path="url(#clip170)" d="
M248.409 1734.12 L2640.76 1734.12 L2640.76 47.2441 L248.409 47.2441  Z
  " fill="#ffffff" fill-rule="evenodd" fill-opacity="1"/>
<defs>
  <clipPath id="clip172">
    <rect x="248" y="47" width="2393" height="1688"/>
  </clipPath>
</defs>
<polyline clip-path="url(#clip172)" style="stroke:#000000; stroke-linecap:round; stroke-linejoin:round; stroke-width:2; stroke-opacity:0.1; fill:none" points="
  316.117,1734.12 316.117,47.2441 
  "/>
<polyline clip-path="url(#clip172)" style="stroke:#000000; stroke-linecap:round; stroke-linejoin:round; stroke-width:2; stroke-opacity:0.1; fill:none" points="
  692.272,1734.12 692.272,47.2441 
  "/>
<polyline clip-path="url(#clip172)" style="stroke:#000000; stroke-linecap:round; stroke-linejoin:round; stroke-width:2; stroke-opacity:0.1; fill:none" points="
  1068.43,1734.12 1068.43,47.2441 
  "/>
<polyline clip-path="url(#clip172)" style="stroke:#000000; stroke-linecap:round; stroke-linejoin:round; stroke-width:2; stroke-opacity:0.1; fill:none" points="
  1444.58,1734.12 1444.58,47.2441 
  "/>
<polyline clip-path="url(#clip172)" style="stroke:#000000; stroke-linecap:round; stroke-linejoin:round; stroke-width:2; stroke-opacity:0.1; fill:none" points="
  1820.74,1734.12 1820.74,47.2441 
  "/>
<polyline clip-path="url(#clip172)" style="stroke:#000000; stroke-linecap:round; stroke-linejoin:round; stroke-width:2; stroke-opacity:0.1; fill:none" points="
  2196.89,1734.12 2196.89,47.2441 
  "/>
<polyline clip-path="url(#clip172)" style="stroke:#000000; stroke-linecap:round; stroke-linejoin:round; stroke-width:2; stroke-opacity:0.1; fill:none" points="
  2573.05,1734.12 2573.05,47.2441 
  "/>
<polyline clip-path="url(#clip170)" style="stroke:#000000; stroke-linecap:round; stroke-linejoin:round; stroke-width:4; stroke-opacity:1; fill:none" points="
  248.409,1734.12 2640.76,1734.12 
  "/>
<polyline clip-path="url(#clip170)" style="stroke:#000000; stroke-linecap:round; stroke-linejoin:round; stroke-width:4; stroke-opacity:1; fill:none" points="
  316.117,1734.12 316.117,1715.22 
  "/>
<polyline clip-path="url(#clip170)" style="stroke:#000000; stroke-linecap:round; stroke-linejoin:round; stroke-width:4; stroke-opacity:1; fill:none" points="
  692.272,1734.12 692.272,1715.22 
  "/>
<polyline clip-path="url(#clip170)" style="stroke:#000000; stroke-linecap:round; stroke-linejoin:round; stroke-width:4; stroke-opacity:1; fill:none" points="
  1068.43,1734.12 1068.43,1715.22 
  "/>
<polyline clip-path="url(#clip170)" style="stroke:#000000; stroke-linecap:round; stroke-linejoin:round; stroke-width:4; stroke-opacity:1; fill:none" points="
  1444.58,1734.12 1444.58,1715.22 
  "/>
<polyline clip-path="url(#clip170)" style="stroke:#000000; stroke-linecap:round; stroke-linejoin:round; stroke-width:4; stroke-opacity:1; fill:none" points="
  1820.74,1734.12 1820.74,1715.22 
  "/>
<polyline clip-path="url(#clip170)" style="stroke:#000000; stroke-linecap:round; stroke-linejoin:round; stroke-width:4; stroke-opacity:1; fill:none" points="
  2196.89,1734.12 2196.89,1715.22 
  "/>
<polyline clip-path="url(#clip170)" style="stroke:#000000; stroke-linecap:round; stroke-linejoin:round; stroke-width:4; stroke-opacity:1; fill:none" points="
  2573.05,1734.12 2573.05,1715.22 
  "/>
<path clip-path="url(#clip170)" d="M316.117 1767.34 Q312.506 1767.34 310.677 1770.9 Q308.872 1774.45 308.872 1781.58 Q308.872 1788.68 310.677 1792.25 Q312.506 1795.79 316.117 1795.79 Q319.751 1795.79 321.557 1792.25 Q323.385 1788.68 323.385 1781.58 Q323.385 1774.45 321.557 1770.9 Q319.751 1767.34 316.117 1767.34 M316.117 1763.64 Q321.927 1763.64 324.983 1768.24 Q328.061 1772.83 328.061 1781.58 Q328.061 1790.3 324.983 1794.91 Q321.927 1799.49 316.117 1799.49 Q310.307 1799.49 307.228 1794.91 Q304.173 1790.3 304.173 1781.58 Q304.173 1772.83 307.228 1768.24 Q310.307 1763.64 316.117 1763.64 Z" fill="#000000" fill-rule="evenodd" fill-opacity="1" /><path clip-path="url(#clip170)" d="M682.654 1794.89 L690.293 1794.89 L690.293 1768.52 L681.983 1770.19 L681.983 1765.93 L690.247 1764.26 L694.923 1764.26 L694.923 1794.89 L702.561 1794.89 L702.561 1798.82 L682.654 1798.82 L682.654 1794.89 Z" fill="#000000" fill-rule="evenodd" fill-opacity="1" /><path clip-path="url(#clip170)" d="M1063.08 1794.89 L1079.4 1794.89 L1079.4 1798.82 L1057.46 1798.82 L1057.46 1794.89 Q1060.12 1792.13 1064.7 1787.5 Q1069.31 1782.85 1070.49 1781.51 Q1072.73 1778.98 1073.61 1777.25 Q1074.52 1775.49 1074.52 1773.8 Q1074.52 1771.04 1072.57 1769.31 Q1070.65 1767.57 1067.55 1767.57 Q1065.35 1767.57 1062.89 1768.34 Q1060.46 1769.1 1057.69 1770.65 L1057.69 1765.93 Q1060.51 1764.79 1062.96 1764.21 Q1065.42 1763.64 1067.46 1763.64 Q1072.83 1763.64 1076.02 1766.32 Q1079.21 1769.01 1079.21 1773.5 Q1079.21 1775.63 1078.4 1777.55 Q1077.62 1779.45 1075.51 1782.04 Q1074.93 1782.71 1071.83 1785.93 Q1068.73 1789.12 1063.08 1794.89 Z" fill="#000000" fill-rule="evenodd" fill-opacity="1" /><path clip-path="url(#clip170)" d="M1448.83 1780.19 Q1452.19 1780.9 1454.06 1783.17 Q1455.96 1785.44 1455.96 1788.77 Q1455.96 1793.89 1452.44 1796.69 Q1448.92 1799.49 1442.44 1799.49 Q1440.27 1799.49 1437.95 1799.05 Q1435.66 1798.64 1433.21 1797.78 L1433.21 1793.27 Q1435.15 1794.4 1437.46 1794.98 Q1439.78 1795.56 1442.3 1795.56 Q1446.7 1795.56 1448.99 1793.82 Q1451.31 1792.08 1451.31 1788.77 Q1451.31 1785.72 1449.15 1784.01 Q1447.02 1782.27 1443.21 1782.27 L1439.18 1782.27 L1439.18 1778.43 L1443.39 1778.43 Q1446.84 1778.43 1448.67 1777.06 Q1450.5 1775.67 1450.5 1773.08 Q1450.5 1770.42 1448.6 1769.01 Q1446.72 1767.57 1443.21 1767.57 Q1441.28 1767.57 1439.08 1767.99 Q1436.89 1768.4 1434.25 1769.28 L1434.25 1765.12 Q1436.91 1764.38 1439.22 1764.01 Q1441.56 1763.64 1443.62 1763.64 Q1448.95 1763.64 1452.05 1766.07 Q1455.15 1768.47 1455.15 1772.59 Q1455.15 1775.46 1453.51 1777.46 Q1451.86 1779.42 1448.83 1780.19 Z" fill="#000000" fill-rule="evenodd" fill-opacity="1" /><path clip-path="url(#clip170)" d="M1823.75 1768.34 L1811.94 1786.78 L1823.75 1786.78 L1823.75 1768.34 M1822.52 1764.26 L1828.4 1764.26 L1828.4 1786.78 L1833.33 1786.78 L1833.33 1790.67 L1828.4 1790.67 L1828.4 1798.82 L1823.75 1798.82 L1823.75 1790.67 L1808.15 1790.67 L1808.15 1786.16 L1822.52 1764.26 Z" fill="#000000" fill-rule="evenodd" fill-opacity="1" /><path clip-path="url(#clip170)" d="M2187.17 1764.26 L2205.53 1764.26 L2205.53 1768.2 L2191.45 1768.2 L2191.45 1776.67 Q2192.47 1776.32 2193.49 1776.16 Q2194.51 1775.97 2195.53 1775.97 Q2201.31 1775.97 2204.69 1779.15 Q2208.07 1782.32 2208.07 1787.73 Q2208.07 1793.31 2204.6 1796.41 Q2201.13 1799.49 2194.81 1799.49 Q2192.63 1799.49 2190.37 1799.12 Q2188.12 1798.75 2185.71 1798.01 L2185.71 1793.31 Q2187.8 1794.45 2190.02 1795 Q2192.24 1795.56 2194.72 1795.56 Q2198.72 1795.56 2201.06 1793.45 Q2203.4 1791.34 2203.4 1787.73 Q2203.4 1784.12 2201.06 1782.02 Q2198.72 1779.91 2194.72 1779.91 Q2192.84 1779.91 2190.97 1780.33 Q2189.12 1780.74 2187.17 1781.62 L2187.17 1764.26 Z" fill="#000000" fill-rule="evenodd" fill-opacity="1" /><path clip-path="url(#clip170)" d="M2573.45 1779.68 Q2570.3 1779.68 2568.45 1781.83 Q2566.62 1783.98 2566.62 1787.73 Q2566.62 1791.46 2568.45 1793.64 Q2570.3 1795.79 2573.45 1795.79 Q2576.6 1795.79 2578.43 1793.64 Q2580.28 1791.46 2580.28 1787.73 Q2580.28 1783.98 2578.43 1781.83 Q2576.6 1779.68 2573.45 1779.68 M2582.74 1765.02 L2582.74 1769.28 Q2580.98 1768.45 2579.17 1768.01 Q2577.39 1767.57 2575.63 1767.57 Q2571 1767.57 2568.55 1770.7 Q2566.12 1773.82 2565.77 1780.14 Q2567.13 1778.13 2569.19 1777.06 Q2571.25 1775.97 2573.73 1775.97 Q2578.94 1775.97 2581.95 1779.15 Q2584.98 1782.29 2584.98 1787.73 Q2584.98 1793.06 2581.83 1796.27 Q2578.68 1799.49 2573.45 1799.49 Q2567.46 1799.49 2564.29 1794.91 Q2561.12 1790.3 2561.12 1781.58 Q2561.12 1773.38 2565 1768.52 Q2568.89 1763.64 2575.44 1763.64 Q2577.2 1763.64 2578.99 1763.98 Q2580.79 1764.33 2582.74 1765.02 Z" fill="#000000" fill-rule="evenodd" fill-opacity="1" /><path clip-path="url(#clip170)" d="M1274.12 1835.78 L1314.32 1835.78 L1314.32 1841.19 L1297.46 1841.19 L1297.46 1883.3 L1290.99 1883.3 L1290.99 1841.19 L1274.12 1841.19 L1274.12 1835.78 Z" fill="#000000" fill-rule="evenodd" fill-opacity="1" /><path clip-path="url(#clip170)" d="M1318.27 1847.65 L1324.13 1847.65 L1324.13 1883.3 L1318.27 1883.3 L1318.27 1847.65 M1318.27 1833.78 L1324.13 1833.78 L1324.13 1841.19 L1318.27 1841.19 L1318.27 1833.78 Z" fill="#000000" fill-rule="evenodd" fill-opacity="1" /><path clip-path="url(#clip170)" d="M1366.87 1864.01 L1366.87 1866.88 L1339.95 1866.88 Q1340.33 1872.92 1343.57 1876.11 Q1346.85 1879.26 1352.68 1879.26 Q1356.05 1879.26 1359.2 1878.43 Q1362.39 1877.6 1365.5 1875.95 L1365.5 1881.49 Q1362.35 1882.82 1359.04 1883.52 Q1355.73 1884.22 1352.33 1884.22 Q1343.8 1884.22 1338.8 1879.26 Q1333.84 1874.29 1333.84 1865.83 Q1333.84 1857.07 1338.55 1851.95 Q1343.29 1846.79 1351.31 1846.79 Q1358.5 1846.79 1362.67 1851.44 Q1366.87 1856.06 1366.87 1864.01 M1361.02 1862.29 Q1360.95 1857.49 1358.31 1854.62 Q1355.7 1851.76 1351.37 1851.76 Q1346.47 1851.76 1343.51 1854.53 Q1340.58 1857.3 1340.14 1862.33 L1361.02 1862.29 Z" fill="#000000" fill-rule="evenodd" fill-opacity="1" /><path clip-path="url(#clip170)" d="M1404.24 1854.5 Q1406.44 1850.55 1409.49 1848.67 Q1412.55 1846.79 1416.68 1846.79 Q1422.25 1846.79 1425.28 1850.71 Q1428.3 1854.59 1428.3 1861.78 L1428.3 1883.3 L1422.41 1883.3 L1422.41 1861.98 Q1422.41 1856.85 1420.6 1854.37 Q1418.79 1851.89 1415.06 1851.89 Q1410.51 1851.89 1407.87 1854.91 Q1405.23 1857.93 1405.23 1863.15 L1405.23 1883.3 L1399.34 1883.3 L1399.34 1861.98 Q1399.34 1856.82 1397.52 1854.37 Q1395.71 1851.89 1391.92 1851.89 Q1387.43 1851.89 1384.79 1854.94 Q1382.15 1857.97 1382.15 1863.15 L1382.15 1883.3 L1376.26 1883.3 L1376.26 1847.65 L1382.15 1847.65 L1382.15 1853.19 Q1384.16 1849.91 1386.96 1848.35 Q1389.76 1846.79 1393.61 1846.79 Q1397.49 1846.79 1400.2 1848.77 Q1402.93 1850.74 1404.24 1854.5 Z" fill="#000000" fill-rule="evenodd" fill-opacity="1" /><path clip-path="url(#clip170)" d="M1445.65 1877.95 L1445.65 1896.86 L1439.76 1896.86 L1439.76 1847.65 L1445.65 1847.65 L1445.65 1853.06 Q1447.49 1849.88 1450.3 1848.35 Q1453.13 1846.79 1457.04 1846.79 Q1463.54 1846.79 1467.58 1851.95 Q1471.65 1857.11 1471.65 1865.51 Q1471.65 1873.91 1467.58 1879.07 Q1463.54 1884.22 1457.04 1884.22 Q1453.13 1884.22 1450.3 1882.7 Q1447.49 1881.14 1445.65 1877.95 M1465.57 1865.51 Q1465.57 1859.05 1462.9 1855.39 Q1460.26 1851.7 1455.61 1851.7 Q1450.96 1851.7 1448.29 1855.39 Q1445.65 1859.05 1445.65 1865.51 Q1445.65 1871.97 1448.29 1875.66 Q1450.96 1879.32 1455.61 1879.32 Q1460.26 1879.32 1462.9 1875.66 Q1465.57 1871.97 1465.57 1865.51 Z" fill="#000000" fill-rule="evenodd" fill-opacity="1" /><path clip-path="url(#clip170)" d="M1495.17 1851.76 Q1490.46 1851.76 1487.73 1855.45 Q1484.99 1859.11 1484.99 1865.51 Q1484.99 1871.91 1487.69 1875.6 Q1490.43 1879.26 1495.17 1879.26 Q1499.85 1879.26 1502.59 1875.57 Q1505.33 1871.87 1505.33 1865.51 Q1505.33 1859.17 1502.59 1855.48 Q1499.85 1851.76 1495.17 1851.76 M1495.17 1846.79 Q1502.81 1846.79 1507.17 1851.76 Q1511.53 1856.72 1511.53 1865.51 Q1511.53 1874.26 1507.17 1879.26 Q1502.81 1884.22 1495.17 1884.22 Q1487.5 1884.22 1483.14 1879.26 Q1478.81 1874.26 1478.81 1865.51 Q1478.81 1856.72 1483.14 1851.76 Q1487.5 1846.79 1495.17 1846.79 Z" fill="#000000" fill-rule="evenodd" fill-opacity="1" /><path clip-path="url(#clip170)" d="M1556.03 1833.84 Q1551.77 1841.16 1549.7 1848.32 Q1547.63 1855.48 1547.63 1862.84 Q1547.63 1870.19 1549.7 1877.41 Q1551.8 1884.61 1556.03 1891.89 L1550.94 1891.89 Q1546.16 1884.41 1543.78 1877.19 Q1541.42 1869.96 1541.42 1862.84 Q1541.42 1855.74 1543.78 1848.54 Q1546.13 1841.35 1550.94 1833.84 L1556.03 1833.84 Z" fill="#000000" fill-rule="evenodd" fill-opacity="1" /><path clip-path="url(#clip170)" d="M1590.12 1848.7 L1590.12 1854.24 Q1587.64 1852.97 1584.96 1852.33 Q1582.29 1851.7 1579.42 1851.7 Q1575.06 1851.7 1572.87 1853.03 Q1570.7 1854.37 1570.7 1857.04 Q1570.7 1859.08 1572.26 1860.26 Q1573.82 1861.4 1578.53 1862.45 L1580.54 1862.9 Q1586.78 1864.24 1589.39 1866.69 Q1592.03 1869.11 1592.03 1873.47 Q1592.03 1878.43 1588.08 1881.33 Q1584.17 1884.22 1577.29 1884.22 Q1574.43 1884.22 1571.31 1883.65 Q1568.22 1883.11 1564.78 1882 L1564.78 1875.95 Q1568.03 1877.64 1571.18 1878.49 Q1574.33 1879.32 1577.42 1879.32 Q1581.56 1879.32 1583.78 1877.92 Q1586.01 1876.49 1586.01 1873.91 Q1586.01 1871.52 1584.39 1870.25 Q1582.8 1868.98 1577.36 1867.8 L1575.32 1867.32 Q1569.88 1866.18 1567.46 1863.82 Q1565.04 1861.43 1565.04 1857.3 Q1565.04 1852.27 1568.6 1849.53 Q1572.17 1846.79 1578.72 1846.79 Q1581.97 1846.79 1584.83 1847.27 Q1587.7 1847.75 1590.12 1848.7 Z" fill="#000000" fill-rule="evenodd" fill-opacity="1" /><path clip-path="url(#clip170)" d="M1600.43 1833.84 L1605.52 1833.84 Q1610.3 1841.35 1612.65 1848.54 Q1615.04 1855.74 1615.04 1862.84 Q1615.04 1869.96 1612.65 1877.19 Q1610.3 1884.41 1605.52 1891.89 L1600.43 1891.89 Q1604.66 1884.61 1606.73 1877.41 Q1608.83 1870.19 1608.83 1862.84 Q1608.83 1855.48 1606.73 1848.32 Q1604.66 1841.16 1600.43 1833.84 Z" fill="#000000" fill-rule="evenodd" fill-opacity="1" /><polyline clip-path="url(#clip172)" style="stroke:#000000; stroke-linecap:round; stroke-linejoin:round; stroke-width:2; stroke-opacity:0.1; fill:none" points="
  248.409,1450.61 2640.76,1450.61 
  "/>
<polyline clip-path="url(#clip172)" style="stroke:#000000; stroke-linecap:round; stroke-linejoin:round; stroke-width:2; stroke-opacity:0.1; fill:none" points="
  248.409,1155.91 2640.76,1155.91 
  "/>
<polyline clip-path="url(#clip172)" style="stroke:#000000; stroke-linecap:round; stroke-linejoin:round; stroke-width:2; stroke-opacity:0.1; fill:none" points="
  248.409,861.21 2640.76,861.21 
  "/>
<polyline clip-path="url(#clip172)" style="stroke:#000000; stroke-linecap:round; stroke-linejoin:round; stroke-width:2; stroke-opacity:0.1; fill:none" points="
  248.409,566.509 2640.76,566.509 
  "/>
<polyline clip-path="url(#clip172)" style="stroke:#000000; stroke-linecap:round; stroke-linejoin:round; stroke-width:2; stroke-opacity:0.1; fill:none" points="
  248.409,271.807 2640.76,271.807 
  "/>
<polyline clip-path="url(#clip170)" style="stroke:#000000; stroke-linecap:round; stroke-linejoin:round; stroke-width:4; stroke-opacity:1; fill:none" points="
  248.409,1734.12 248.409,47.2441 
  "/>
<polyline clip-path="url(#clip170)" style="stroke:#000000; stroke-linecap:round; stroke-linejoin:round; stroke-width:4; stroke-opacity:1; fill:none" points="
  248.409,1450.61 267.307,1450.61 
  "/>
<polyline clip-path="url(#clip170)" style="stroke:#000000; stroke-linecap:round; stroke-linejoin:round; stroke-width:4; stroke-opacity:1; fill:none" points="
  248.409,1155.91 267.307,1155.91 
  "/>
<polyline clip-path="url(#clip170)" style="stroke:#000000; stroke-linecap:round; stroke-linejoin:round; stroke-width:4; stroke-opacity:1; fill:none" points="
  248.409,861.21 267.307,861.21 
  "/>
<polyline clip-path="url(#clip170)" style="stroke:#000000; stroke-linecap:round; stroke-linejoin:round; stroke-width:4; stroke-opacity:1; fill:none" points="
  248.409,566.509 267.307,566.509 
  "/>
<polyline clip-path="url(#clip170)" style="stroke:#000000; stroke-linecap:round; stroke-linejoin:round; stroke-width:4; stroke-opacity:1; fill:none" points="
  248.409,271.807 267.307,271.807 
  "/>
<path clip-path="url(#clip170)" d="M116.214 1451.07 L145.89 1451.07 L145.89 1455 L116.214 1455 L116.214 1451.07 Z" fill="#000000" fill-rule="evenodd" fill-opacity="1" /><path clip-path="url(#clip170)" d="M156.793 1463.96 L164.432 1463.96 L164.432 1437.59 L156.122 1439.26 L156.122 1435 L164.385 1433.33 L169.061 1433.33 L169.061 1463.96 L176.7 1463.96 L176.7 1467.89 L156.793 1467.89 L156.793 1463.96 Z" fill="#000000" fill-rule="evenodd" fill-opacity="1" /><path clip-path="url(#clip170)" d="M196.145 1436.41 Q192.533 1436.41 190.705 1439.98 Q188.899 1443.52 188.899 1450.65 Q188.899 1457.76 190.705 1461.32 Q192.533 1464.86 196.145 1464.86 Q199.779 1464.86 201.584 1461.32 Q203.413 1457.76 203.413 1450.65 Q203.413 1443.52 201.584 1439.98 Q199.779 1436.41 196.145 1436.41 M196.145 1432.71 Q201.955 1432.71 205.01 1437.32 Q208.089 1441.9 208.089 1450.65 Q208.089 1459.38 205.01 1463.98 Q201.955 1468.57 196.145 1468.57 Q190.334 1468.57 187.256 1463.98 Q184.2 1459.38 184.2 1450.65 Q184.2 1441.9 187.256 1437.32 Q190.334 1432.71 196.145 1432.71 Z" fill="#000000" fill-rule="evenodd" fill-opacity="1" /><path clip-path="url(#clip170)" d="M196.145 1141.71 Q192.533 1141.71 190.705 1145.28 Q188.899 1148.82 188.899 1155.95 Q188.899 1163.05 190.705 1166.62 Q192.533 1170.16 196.145 1170.16 Q199.779 1170.16 201.584 1166.62 Q203.413 1163.05 203.413 1155.95 Q203.413 1148.82 201.584 1145.28 Q199.779 1141.71 196.145 1141.71 M196.145 1138.01 Q201.955 1138.01 205.01 1142.61 Q208.089 1147.2 208.089 1155.95 Q208.089 1164.67 205.01 1169.28 Q201.955 1173.86 196.145 1173.86 Q190.334 1173.86 187.256 1169.28 Q184.2 1164.67 184.2 1155.95 Q184.2 1147.2 187.256 1142.61 Q190.334 1138.01 196.145 1138.01 Z" fill="#000000" fill-rule="evenodd" fill-opacity="1" /><path clip-path="url(#clip170)" d="M156.793 874.555 L164.432 874.555 L164.432 848.19 L156.122 849.856 L156.122 845.597 L164.385 843.93 L169.061 843.93 L169.061 874.555 L176.7 874.555 L176.7 878.49 L156.793 878.49 L156.793 874.555 Z" fill="#000000" fill-rule="evenodd" fill-opacity="1" /><path clip-path="url(#clip170)" d="M196.145 847.009 Q192.533 847.009 190.705 850.574 Q188.899 854.115 188.899 861.245 Q188.899 868.352 190.705 871.916 Q192.533 875.458 196.145 875.458 Q199.779 875.458 201.584 871.916 Q203.413 868.352 203.413 861.245 Q203.413 854.115 201.584 850.574 Q199.779 847.009 196.145 847.009 M196.145 843.305 Q201.955 843.305 205.01 847.912 Q208.089 852.495 208.089 861.245 Q208.089 869.972 205.01 874.578 Q201.955 879.162 196.145 879.162 Q190.334 879.162 187.256 874.578 Q184.2 869.972 184.2 861.245 Q184.2 852.495 187.256 847.912 Q190.334 843.305 196.145 843.305 Z" fill="#000000" fill-rule="evenodd" fill-opacity="1" /><path clip-path="url(#clip170)" d="M160.011 579.853 L176.33 579.853 L176.33 583.789 L154.386 583.789 L154.386 579.853 Q157.048 577.099 161.631 572.469 Q166.237 567.816 167.418 566.474 Q169.663 563.951 170.543 562.215 Q171.446 560.455 171.446 558.766 Q171.446 556.011 169.501 554.275 Q167.58 552.539 164.478 552.539 Q162.279 552.539 159.825 553.303 Q157.395 554.067 154.617 555.617 L154.617 550.895 Q157.441 549.761 159.895 549.182 Q162.348 548.604 164.385 548.604 Q169.756 548.604 172.95 551.289 Q176.145 553.974 176.145 558.465 Q176.145 560.594 175.334 562.516 Q174.547 564.414 172.441 567.006 Q171.862 567.678 168.76 570.895 Q165.659 574.09 160.011 579.853 Z" fill="#000000" fill-rule="evenodd" fill-opacity="1" /><path clip-path="url(#clip170)" d="M196.145 552.307 Q192.533 552.307 190.705 555.872 Q188.899 559.414 188.899 566.543 Q188.899 573.65 190.705 577.215 Q192.533 580.756 196.145 580.756 Q199.779 580.756 201.584 577.215 Q203.413 573.65 203.413 566.543 Q203.413 559.414 201.584 555.872 Q199.779 552.307 196.145 552.307 M196.145 548.604 Q201.955 548.604 205.01 553.21 Q208.089 557.793 208.089 566.543 Q208.089 575.27 205.01 579.877 Q201.955 584.46 196.145 584.46 Q190.334 584.46 187.256 579.877 Q184.2 575.27 184.2 566.543 Q184.2 557.793 187.256 553.21 Q190.334 548.604 196.145 548.604 Z" fill="#000000" fill-rule="evenodd" fill-opacity="1" /><path clip-path="url(#clip170)" d="M170.149 270.453 Q173.506 271.17 175.381 273.439 Q177.279 275.707 177.279 279.041 Q177.279 284.156 173.76 286.957 Q170.242 289.758 163.76 289.758 Q161.585 289.758 159.27 289.318 Q156.978 288.902 154.524 288.045 L154.524 283.531 Q156.469 284.666 158.784 285.244 Q161.098 285.823 163.622 285.823 Q168.02 285.823 170.311 284.087 Q172.626 282.351 172.626 279.041 Q172.626 275.985 170.473 274.272 Q168.344 272.536 164.524 272.536 L160.497 272.536 L160.497 268.693 L164.71 268.693 Q168.159 268.693 169.987 267.328 Q171.816 265.939 171.816 263.346 Q171.816 260.684 169.918 259.272 Q168.043 257.837 164.524 257.837 Q162.603 257.837 160.404 258.254 Q158.205 258.67 155.566 259.55 L155.566 255.383 Q158.228 254.643 160.543 254.272 Q162.881 253.902 164.941 253.902 Q170.265 253.902 173.367 256.332 Q176.469 258.74 176.469 262.86 Q176.469 265.73 174.825 267.721 Q173.182 269.689 170.149 270.453 Z" fill="#000000" fill-rule="evenodd" fill-opacity="1" /><path clip-path="url(#clip170)" d="M196.145 257.606 Q192.533 257.606 190.705 261.17 Q188.899 264.712 188.899 271.842 Q188.899 278.948 190.705 282.513 Q192.533 286.054 196.145 286.054 Q199.779 286.054 201.584 282.513 Q203.413 278.948 203.413 271.842 Q203.413 264.712 201.584 261.17 Q199.779 257.606 196.145 257.606 M196.145 253.902 Q201.955 253.902 205.01 258.508 Q208.089 263.092 208.089 271.842 Q208.089 280.568 205.01 285.175 Q201.955 289.758 196.145 289.758 Q190.334 289.758 187.256 285.175 Q184.2 280.568 184.2 271.842 Q184.2 263.092 187.256 258.508 Q190.334 253.902 196.145 253.902 Z" fill="#000000" fill-rule="evenodd" fill-opacity="1" /><path clip-path="url(#clip170)" d="M19.402 1272.1 L56.3549 1272.1 L56.3549 1264.33 Q56.3549 1254.5 51.8989 1249.95 Q47.4429 1245.36 37.8307 1245.36 Q28.2821 1245.36 23.858 1249.95 Q19.402 1254.5 19.402 1264.33 L19.402 1272.1 M14.1184 1278.53 L14.1184 1265.32 Q14.1184 1251.5 19.8794 1245.04 Q25.6085 1238.58 37.8307 1238.58 Q50.1165 1238.58 55.8775 1245.08 Q61.6384 1251.57 61.6384 1265.32 L61.6384 1278.53 L14.1184 1278.53 Z" fill="#000000" fill-rule="evenodd" fill-opacity="1" /><path clip-path="url(#clip170)" d="M25.9905 1228.59 L25.9905 1222.73 L61.6384 1222.73 L61.6384 1228.59 L25.9905 1228.59 M12.1132 1228.59 L12.1132 1222.73 L19.5293 1222.73 L19.5293 1228.59 L12.1132 1228.59 Z" fill="#000000" fill-rule="evenodd" fill-opacity="1" /><path clip-path="url(#clip170)" d="M27.0408 1187.75 L32.579 1187.75 Q31.3059 1190.23 30.6693 1192.91 Q30.0327 1195.58 30.0327 1198.45 Q30.0327 1202.81 31.3695 1205 Q32.7063 1207.17 35.3799 1207.17 Q37.4169 1207.17 38.5946 1205.61 Q39.7404 1204.05 40.7908 1199.34 L41.2364 1197.33 Q42.5732 1191.09 45.0239 1188.48 Q47.4429 1185.84 51.8034 1185.84 Q56.7687 1185.84 59.6651 1189.79 Q62.5615 1193.7 62.5615 1200.58 Q62.5615 1203.44 61.9886 1206.56 Q61.4475 1209.65 60.3335 1213.09 L54.2861 1213.09 Q55.973 1209.84 56.8323 1206.69 Q57.6599 1203.54 57.6599 1200.45 Q57.6599 1196.31 56.2594 1194.09 Q54.8271 1191.86 52.249 1191.86 Q49.8619 1191.86 48.5887 1193.48 Q47.3156 1195.07 46.1379 1200.52 L45.6605 1202.55 Q44.5147 1208 42.1594 1210.41 Q39.7722 1212.83 35.6345 1212.83 Q30.6056 1212.83 27.8684 1209.27 Q25.1311 1205.7 25.1311 1199.15 Q25.1311 1195.9 25.6085 1193.04 Q26.086 1190.17 27.0408 1187.75 Z" fill="#000000" fill-rule="evenodd" fill-opacity="1" /><path clip-path="url(#clip170)" d="M15.869 1170.72 L25.9905 1170.72 L25.9905 1158.66 L30.542 1158.66 L30.542 1170.72 L49.8937 1170.72 Q54.2542 1170.72 55.4955 1169.55 Q56.7368 1168.34 56.7368 1164.68 L56.7368 1158.66 L61.6384 1158.66 L61.6384 1164.68 Q61.6384 1171.46 59.124 1174.03 Q56.5777 1176.61 49.8937 1176.61 L30.542 1176.61 L30.542 1180.91 L25.9905 1180.91 L25.9905 1176.61 L15.869 1176.61 L15.869 1170.72 Z" fill="#000000" fill-rule="evenodd" fill-opacity="1" /><path clip-path="url(#clip170)" d="M43.719 1134.76 Q43.719 1141.86 45.3422 1144.59 Q46.9655 1147.33 50.8804 1147.33 Q53.9996 1147.33 55.8457 1145.29 Q57.6599 1143.22 57.6599 1139.69 Q57.6599 1134.82 54.2224 1131.89 Q50.7531 1128.93 45.0239 1128.93 L43.719 1128.93 L43.719 1134.76 M41.3 1123.08 L61.6384 1123.08 L61.6384 1128.93 L56.2276 1128.93 Q59.4741 1130.94 61.0337 1133.93 Q62.5615 1136.92 62.5615 1141.25 Q62.5615 1146.73 59.5059 1149.97 Q56.4186 1153.19 51.2623 1153.19 Q45.2467 1153.19 42.1912 1149.18 Q39.1357 1145.13 39.1357 1137.14 L39.1357 1128.93 L38.5628 1128.93 Q34.5205 1128.93 32.3244 1131.61 Q30.0964 1134.25 30.0964 1139.05 Q30.0964 1142.11 30.8284 1145.01 Q31.5605 1147.9 33.0246 1150.58 L27.6137 1150.58 Q26.3724 1147.36 25.7677 1144.34 Q25.1311 1141.31 25.1311 1138.45 Q25.1311 1130.72 29.1415 1126.9 Q33.1519 1123.08 41.3 1123.08 Z" fill="#000000" fill-rule="evenodd" fill-opacity="1" /><path clip-path="url(#clip170)" d="M40.1224 1081.38 L61.6384 1081.38 L61.6384 1087.24 L40.3133 1087.24 Q35.2526 1087.24 32.7381 1089.21 Q30.2237 1091.18 30.2237 1095.13 Q30.2237 1099.87 33.2474 1102.61 Q36.2711 1105.35 41.491 1105.35 L61.6384 1105.35 L61.6384 1111.24 L25.9905 1111.24 L25.9905 1105.35 L31.5287 1105.35 Q28.314 1103.25 26.7225 1100.41 Q25.1311 1097.55 25.1311 1093.83 Q25.1311 1087.68 28.9505 1084.53 Q32.7381 1081.38 40.1224 1081.38 Z" fill="#000000" fill-rule="evenodd" fill-opacity="1" /><path clip-path="url(#clip170)" d="M27.3591 1044.05 L32.8336 1044.05 Q31.465 1046.53 30.7966 1049.04 Q30.0964 1051.53 30.0964 1054.07 Q30.0964 1059.77 33.7248 1062.92 Q37.3214 1066.07 43.8463 1066.07 Q50.3711 1066.07 53.9996 1062.92 Q57.5962 1059.77 57.5962 1054.07 Q57.5962 1051.53 56.9278 1049.04 Q56.2276 1046.53 54.859 1044.05 L60.2698 1044.05 Q61.4156 1046.5 61.9886 1049.14 Q62.5615 1051.75 62.5615 1054.71 Q62.5615 1062.76 57.5007 1067.5 Q52.44 1072.25 43.8463 1072.25 Q35.1253 1072.25 30.1282 1067.47 Q25.1311 1062.67 25.1311 1054.33 Q25.1311 1051.62 25.704 1049.04 Q26.2451 1046.47 27.3591 1044.05 Z" fill="#000000" fill-rule="evenodd" fill-opacity="1" /><path clip-path="url(#clip170)" d="M25.9905 1033.86 L25.9905 1028 L61.6384 1028 L61.6384 1033.86 L25.9905 1033.86 M12.1132 1033.86 L12.1132 1028 L19.5293 1028 L19.5293 1033.86 L12.1132 1033.86 Z" fill="#000000" fill-rule="evenodd" fill-opacity="1" /><path clip-path="url(#clip170)" d="M43.719 999.55 Q43.719 1006.65 45.3422 1009.39 Q46.9655 1012.12 50.8804 1012.12 Q53.9996 1012.12 55.8457 1010.09 Q57.6599 1008.02 57.6599 1004.48 Q57.6599 999.614 54.2224 996.685 Q50.7531 993.725 45.0239 993.725 L43.719 993.725 L43.719 999.55 M41.3 987.869 L61.6384 987.869 L61.6384 993.725 L56.2276 993.725 Q59.4741 995.731 61.0337 998.722 Q62.5615 1001.71 62.5615 1006.04 Q62.5615 1011.52 59.5059 1014.76 Q56.4186 1017.98 51.2623 1017.98 Q45.2467 1017.98 42.1912 1013.97 Q39.1357 1009.93 39.1357 1001.94 L39.1357 993.725 L38.5628 993.725 Q34.5205 993.725 32.3244 996.399 Q30.0964 999.041 30.0964 1003.85 Q30.0964 1006.9 30.8284 1009.8 Q31.5605 1012.7 33.0246 1015.37 L27.6137 1015.37 Q26.3724 1012.15 25.7677 1009.13 Q25.1311 1006.11 25.1311 1003.24 Q25.1311 995.508 29.1415 991.688 Q33.1519 987.869 41.3 987.869 Z" fill="#000000" fill-rule="evenodd" fill-opacity="1" /><path clip-path="url(#clip170)" d="M31.465 934.429 Q30.8921 935.416 30.6375 936.593 Q30.351 937.739 30.351 939.139 Q30.351 944.105 33.5975 946.778 Q36.8122 949.42 42.8596 949.42 L61.6384 949.42 L61.6384 955.308 L25.9905 955.308 L25.9905 949.42 L31.5287 949.42 Q28.2821 947.574 26.7225 944.614 Q25.1311 941.654 25.1311 937.421 Q25.1311 936.816 25.2266 936.084 Q25.2903 935.352 25.4494 934.461 L31.465 934.429 Z" fill="#000000" fill-rule="evenodd" fill-opacity="1" /><path clip-path="url(#clip170)" d="M42.3504 899.227 L45.2149 899.227 L45.2149 926.153 Q51.2623 925.771 54.4452 922.525 Q57.5962 919.247 57.5962 913.422 Q57.5962 910.048 56.7687 906.897 Q55.9411 903.714 54.2861 900.595 L59.8242 900.595 Q61.161 903.746 61.8612 907.056 Q62.5615 910.366 62.5615 913.772 Q62.5615 922.302 57.5962 927.299 Q52.631 932.265 44.1646 932.265 Q35.4117 932.265 30.2873 927.554 Q25.1311 922.811 25.1311 914.791 Q25.1311 907.597 29.7781 903.428 Q34.3932 899.227 42.3504 899.227 M40.6316 905.083 Q35.8255 905.147 32.9609 907.788 Q30.0964 910.398 30.0964 914.727 Q30.0964 919.629 32.8654 922.589 Q35.6345 925.517 40.6634 925.962 L40.6316 905.083 Z" fill="#000000" fill-rule="evenodd" fill-opacity="1" /><path clip-path="url(#clip170)" d="M27.3591 863.96 L32.8336 863.96 Q31.465 866.443 30.7966 868.958 Q30.0964 871.44 30.0964 873.986 Q30.0964 879.684 33.7248 882.835 Q37.3214 885.986 43.8463 885.986 Q50.3711 885.986 53.9996 882.835 Q57.5962 879.684 57.5962 873.986 Q57.5962 871.44 56.9278 868.958 Q56.2276 866.443 54.859 863.96 L60.2698 863.96 Q61.4156 866.411 61.9886 869.053 Q62.5615 871.663 62.5615 874.623 Q62.5615 882.676 57.5007 887.418 Q52.44 892.161 43.8463 892.161 Q35.1253 892.161 30.1282 887.386 Q25.1311 882.58 25.1311 874.241 Q25.1311 871.536 25.704 868.958 Q26.2451 866.379 27.3591 863.96 Z" fill="#000000" fill-rule="evenodd" fill-opacity="1" /><path clip-path="url(#clip170)" d="M30.0964 839.962 Q30.0964 844.672 33.7885 847.41 Q37.4488 850.147 43.8463 850.147 Q50.2438 850.147 53.9359 847.441 Q57.5962 844.704 57.5962 839.962 Q57.5962 835.283 53.9041 832.546 Q50.212 829.808 43.8463 829.808 Q37.5124 829.808 33.8203 832.546 Q30.0964 835.283 30.0964 839.962 M25.1311 839.962 Q25.1311 832.323 30.0964 827.962 Q35.0616 823.602 43.8463 823.602 Q52.5991 823.602 57.5962 827.962 Q62.5615 832.323 62.5615 839.962 Q62.5615 847.632 57.5962 851.993 Q52.5991 856.322 43.8463 856.322 Q35.0616 856.322 30.0964 851.993 Q25.1311 847.632 25.1311 839.962 Z" fill="#000000" fill-rule="evenodd" fill-opacity="1" /><path clip-path="url(#clip170)" d="M31.465 793.237 Q30.8921 794.224 30.6375 795.402 Q30.351 796.548 30.351 797.948 Q30.351 802.913 33.5975 805.587 Q36.8122 808.229 42.8596 808.229 L61.6384 808.229 L61.6384 814.117 L25.9905 814.117 L25.9905 808.229 L31.5287 808.229 Q28.2821 806.383 26.7225 803.423 Q25.1311 800.463 25.1311 796.229 Q25.1311 795.625 25.2266 794.893 Q25.2903 794.161 25.4494 793.269 L31.465 793.237 Z" fill="#000000" fill-rule="evenodd" fill-opacity="1" /><path clip-path="url(#clip170)" d="M31.465 767.584 Q30.8921 768.57 30.6375 769.748 Q30.351 770.894 30.351 772.294 Q30.351 777.26 33.5975 779.933 Q36.8122 782.575 42.8596 782.575 L61.6384 782.575 L61.6384 788.463 L25.9905 788.463 L25.9905 782.575 L31.5287 782.575 Q28.2821 780.729 26.7225 777.769 Q25.1311 774.809 25.1311 770.576 Q25.1311 769.971 25.2266 769.239 Q25.2903 768.507 25.4494 767.616 L31.465 767.584 Z" fill="#000000" fill-rule="evenodd" fill-opacity="1" /><path clip-path="url(#clip170)" d="M25.9905 761.441 L25.9905 755.584 L61.6384 755.584 L61.6384 761.441 L25.9905 761.441 M12.1132 761.441 L12.1132 755.584 L19.5293 755.584 L19.5293 761.441 L12.1132 761.441 Z" fill="#000000" fill-rule="evenodd" fill-opacity="1" /><path clip-path="url(#clip170)" d="M31.4013 719.873 L12.1132 719.873 L12.1132 714.016 L61.6384 714.016 L61.6384 719.873 L56.2912 719.873 Q59.4741 721.719 61.0337 724.552 Q62.5615 727.352 62.5615 731.299 Q62.5615 737.76 57.4052 741.834 Q52.249 745.877 43.8463 745.877 Q35.4436 745.877 30.2873 741.834 Q25.1311 737.76 25.1311 731.299 Q25.1311 727.352 26.6907 724.552 Q28.2185 721.719 31.4013 719.873 M43.8463 739.829 Q50.3075 739.829 53.9996 737.187 Q57.6599 734.514 57.6599 729.867 Q57.6599 725.22 53.9996 722.546 Q50.3075 719.873 43.8463 719.873 Q37.3851 719.873 33.7248 722.546 Q30.0327 725.22 30.0327 729.867 Q30.0327 734.514 33.7248 737.187 Q37.3851 739.829 43.8463 739.829 Z" fill="#000000" fill-rule="evenodd" fill-opacity="1" /><path clip-path="url(#clip170)" d="M43.719 685.753 Q43.719 692.85 45.3422 695.588 Q46.9655 698.325 50.8804 698.325 Q53.9996 698.325 55.8457 696.288 Q57.6599 694.219 57.6599 690.686 Q57.6599 685.816 54.2224 682.888 Q50.7531 679.928 45.0239 679.928 L43.719 679.928 L43.719 685.753 M41.3 674.071 L61.6384 674.071 L61.6384 679.928 L56.2276 679.928 Q59.4741 681.933 61.0337 684.925 Q62.5615 687.917 62.5615 692.246 Q62.5615 697.72 59.5059 700.967 Q56.4186 704.181 51.2623 704.181 Q45.2467 704.181 42.1912 700.171 Q39.1357 696.129 39.1357 688.14 L39.1357 679.928 L38.5628 679.928 Q34.5205 679.928 32.3244 682.602 Q30.0964 685.243 30.0964 690.049 Q30.0964 693.105 30.8284 696.001 Q31.5605 698.898 33.0246 701.571 L27.6137 701.571 Q26.3724 698.357 25.7677 695.333 Q25.1311 692.309 25.1311 689.445 Q25.1311 681.71 29.1415 677.891 Q33.1519 674.071 41.3 674.071 Z" fill="#000000" fill-rule="evenodd" fill-opacity="1" /><path clip-path="url(#clip170)" d="M12.1769 627.22 Q19.4975 631.485 26.6589 633.554 Q33.8203 635.623 41.1727 635.623 Q48.5251 635.623 55.7502 633.554 Q62.9434 631.453 70.2321 627.22 L70.2321 632.312 Q62.7524 637.087 55.5274 639.474 Q48.3023 641.829 41.1727 641.829 Q34.0749 641.829 26.8817 639.474 Q19.6884 637.119 12.1769 632.312 L12.1769 627.22 Z" fill="#000000" fill-rule="evenodd" fill-opacity="1" /><path clip-path="url(#clip170)" d="M27.3591 590.203 L32.8336 590.203 Q31.465 592.686 30.7966 595.2 Q30.0964 597.683 30.0964 600.229 Q30.0964 605.927 33.7248 609.078 Q37.3214 612.229 43.8463 612.229 Q50.3711 612.229 53.9996 609.078 Q57.5962 605.927 57.5962 600.229 Q57.5962 597.683 56.9278 595.2 Q56.2276 592.686 54.859 590.203 L60.2698 590.203 Q61.4156 592.654 61.9886 595.296 Q62.5615 597.906 62.5615 600.866 Q62.5615 608.918 57.5007 613.661 Q52.44 618.403 43.8463 618.403 Q35.1253 618.403 30.1282 613.629 Q25.1311 608.823 25.1311 600.484 Q25.1311 597.778 25.704 595.2 Q26.2451 592.622 27.3591 590.203 Z" fill="#000000" fill-rule="evenodd" fill-opacity="1" /><path clip-path="url(#clip170)" d="M32.8336 552.264 Q28.8869 550.067 27.009 547.012 Q25.1311 543.956 25.1311 539.819 Q25.1311 534.249 29.046 531.225 Q32.9291 528.201 40.1224 528.201 L61.6384 528.201 L61.6384 534.09 L40.3133 534.09 Q35.1889 534.09 32.7063 535.904 Q30.2237 537.718 30.2237 541.442 Q30.2237 545.993 33.2474 548.635 Q36.2711 551.277 41.491 551.277 L61.6384 551.277 L61.6384 557.165 L40.3133 557.165 Q35.1571 557.165 32.7063 558.979 Q30.2237 560.794 30.2237 564.581 Q30.2237 569.069 33.2792 571.711 Q36.3029 574.353 41.491 574.353 L61.6384 574.353 L61.6384 580.241 L25.9905 580.241 L25.9905 574.353 L31.5287 574.353 Q28.2503 572.347 26.6907 569.547 Q25.1311 566.746 25.1311 562.894 Q25.1311 559.011 27.1045 556.306 Q29.0779 553.569 32.8336 552.264 Z" fill="#000000" fill-rule="evenodd" fill-opacity="1" /><path clip-path="url(#clip170)" d="M12.1769 517.443 L12.1769 512.351 Q19.6884 507.576 26.8817 505.221 Q34.0749 502.834 41.1727 502.834 Q48.3023 502.834 55.5274 505.221 Q62.7524 507.576 70.2321 512.351 L70.2321 517.443 Q62.9434 513.21 55.7502 511.141 Q48.5251 509.041 41.1727 509.041 Q33.8203 509.041 26.6589 511.141 Q19.4975 513.21 12.1769 517.443 Z" fill="#000000" fill-rule="evenodd" fill-opacity="1" /><circle clip-path="url(#clip172)" cx="316.117" cy="1155.91" r="14.4" fill="#009af9" fill-rule="evenodd" fill-opacity="1" stroke="#000000" stroke-opacity="1" stroke-width="3.84"/>
<circle clip-path="url(#clip172)" cx="692.272" cy="1126.44" r="14.4" fill="#009af9" fill-rule="evenodd" fill-opacity="1" stroke="#000000" stroke-opacity="1" stroke-width="3.84"/>
<circle clip-path="url(#clip172)" cx="1068.43" cy="1038.03" r="14.4" fill="#009af9" fill-rule="evenodd" fill-opacity="1" stroke="#000000" stroke-opacity="1" stroke-width="3.84"/>
<circle clip-path="url(#clip172)" cx="1444.58" cy="890.681" r="14.4" fill="#009af9" fill-rule="evenodd" fill-opacity="1" stroke="#000000" stroke-opacity="1" stroke-width="3.84"/>
<circle clip-path="url(#clip172)" cx="1820.74" cy="684.389" r="14.4" fill="#009af9" fill-rule="evenodd" fill-opacity="1" stroke="#000000" stroke-opacity="1" stroke-width="3.84"/>
<circle clip-path="url(#clip172)" cx="2196.89" cy="419.158" r="14.4" fill="#009af9" fill-rule="evenodd" fill-opacity="1" stroke="#000000" stroke-opacity="1" stroke-width="3.84"/>
<circle clip-path="url(#clip172)" cx="2573.05" cy="94.9858" r="14.4" fill="#009af9" fill-rule="evenodd" fill-opacity="1" stroke="#000000" stroke-opacity="1" stroke-width="3.84"/>
<polyline clip-path="url(#clip172)" style="stroke:#0000ff; stroke-linecap:round; stroke-linejoin:round; stroke-width:4; stroke-opacity:1; fill:none" points="
  316.117,1155.91 692.272,1126.44 1068.43,1038.03 1444.58,890.681 1820.74,684.389 2196.89,419.158 2573.05,94.9858 
  "/>
<polyline clip-path="url(#clip172)" style="stroke:#3da44d; stroke-linecap:round; stroke-linejoin:round; stroke-width:4; stroke-opacity:1; fill:none" points="
  316.117,1155.91 330.811,1152.46 466.677,1120.52 548.326,1101.33 617.36,1085.11 692.35,1067.48 761.484,1051.23 835.604,1033.81 921.478,1013.63 997.793,995.693 
  1064.71,979.964 1137.68,962.815 1211.07,945.564 1292.22,926.491 1369.43,908.344 1449.71,889.475 1517.29,873.591 1599.8,854.199 1675.38,836.434 1745.19,820.027 
  1815.9,803.407 1895.15,784.781 1966.96,767.903 2049.17,748.579 2125.3,730.686 2200.35,713.046 2273.22,695.919 2347.92,678.362 2429.77,659.125 2548.66,631.182 
  2573.05,625.449 
  "/>
<polyline clip-path="url(#clip172)" style="stroke:#c271d2; stroke-linecap:round; stroke-linejoin:round; stroke-width:4; stroke-opacity:1; fill:none" points="
  316.117,1244.32 330.811,1239.72 466.677,1197.14 548.326,1171.55 617.36,1149.92 692.35,1126.42 761.484,1104.75 835.604,1081.52 921.478,1054.61 997.793,1030.7 
  1064.71,1009.72 1137.68,986.86 1211.07,963.859 1292.22,938.428 1369.43,914.231 1449.71,889.073 1517.29,867.894 1599.8,842.038 1675.38,818.352 1745.19,796.476 
  1815.9,774.316 1895.15,749.482 1966.96,726.977 2049.17,701.211 2125.3,677.355 2200.35,653.835 2273.22,630.998 2347.92,607.589 2429.77,581.94 2548.66,544.682 
  2573.05,537.038 
  "/>
<polyline clip-path="url(#clip172)" style="stroke:#ac8d18; stroke-linecap:round; stroke-linejoin:round; stroke-width:4; stroke-opacity:1; fill:none" points="
  316.117,1332.73 330.811,1326.98 466.677,1273.75 548.326,1241.77 617.36,1214.73 692.35,1185.35 761.484,1158.27 835.604,1129.24 921.478,1095.6 997.793,1065.7 
  1064.71,1039.49 1137.68,1010.9 1211.07,982.153 1292.22,950.365 1369.43,920.119 1449.71,888.671 1517.29,862.198 1599.8,829.877 1675.38,800.27 1745.19,772.925 
  1815.9,745.225 1895.15,714.182 1966.96,686.052 2049.17,653.844 2125.3,624.023 2200.35,594.623 2273.22,566.078 2347.92,536.816 2429.77,504.755 2548.66,458.182 
  2573.05,448.628 
  "/>
<polyline clip-path="url(#clip172)" style="stroke:#00a9ad; stroke-linecap:round; stroke-linejoin:round; stroke-width:4; stroke-opacity:1; fill:none" points="
  316.117,1686.38 330.811,1676.01 466.677,1580.21 548.326,1522.64 617.36,1473.96 692.35,1421.09 761.484,1372.34 835.604,1320.08 921.478,1259.53 997.793,1205.72 
  1064.71,1158.53 1137.68,1107.08 1211.07,1055.33 1292.22,998.112 1369.43,943.67 1449.71,887.063 1517.29,839.412 1599.8,781.235 1675.38,727.941 1745.19,678.72 
  1815.9,628.861 1895.15,572.983 1966.96,522.348 2049.17,464.375 2125.3,410.697 2200.35,357.777 2273.22,306.396 2347.92,253.724 2429.77,196.015 2548.66,112.184 
  2573.05,94.9858 
  "/>
<polyline clip-path="url(#clip172)" style="stroke:#ed5d92; stroke-linecap:round; stroke-linejoin:round; stroke-width:4; stroke-opacity:1; fill:none" points="
  316.117,1597.96 330.811,1588.76 466.677,1503.6 548.326,1452.42 617.36,1409.16 692.35,1362.15 761.484,1318.82 835.604,1272.37 921.478,1218.54 997.793,1170.71 
  1064.71,1128.77 1137.68,1083.04 1211.07,1037.04 1292.22,986.176 1369.43,937.782 1449.71,887.465 1517.29,845.108 1599.8,793.395 1675.38,746.023 1745.19,702.271 
  1815.9,657.952 1895.15,608.283 1966.96,563.274 2049.17,511.742 2125.3,464.029 2200.35,416.988 2273.22,371.316 2347.92,324.497 2429.77,273.2 2548.66,198.684 
  2573.05,183.396 
  "/>
<polyline clip-path="url(#clip172)" style="stroke:#c68125; stroke-linecap:round; stroke-linejoin:round; stroke-width:4; stroke-opacity:1; fill:none" points="
  316.117,1509.55 330.811,1501.5 466.677,1426.98 548.326,1382.21 617.36,1344.35 692.35,1303.22 761.484,1265.31 835.604,1224.66 921.478,1177.56 997.793,1135.71 
  1064.71,1099.01 1137.68,1058.99 1211.07,1018.74 1292.22,974.239 1369.43,931.895 1449.71,887.867 1517.29,850.805 1599.8,805.556 1675.38,764.105 1745.19,725.823 
  1815.9,687.043 1895.15,643.582 1966.96,604.2 2049.17,559.11 2125.3,517.36 2200.35,476.2 2273.22,436.237 2347.92,395.27 2429.77,350.385 2548.66,285.183 
  2573.05,271.807 
  "/>
</svg>
