<?xml version="1.0" encoding="utf-8"?>
<svg xmlns="http://www.w3.org/2000/svg" xmlns:xlink="http://www.w3.org/1999/xlink" width="672" height="480" viewBox="0 0 2688 1920">
<defs>
  <clipPath id="clip850">
    <rect x="0" y="0" width="2688" height="1920"/>
  </clipPath>
</defs>
<path clip-path="url(#clip850)" d="
M0 1920 L2688 1920 L2688 0 L0 0  Z
  " fill="#ffffff" fill-rule="evenodd" fill-opacity="1"/>
<defs>
  <clipPath id="clip851">
    <rect x="537" y="0" width="1883" height="1883"/>
  </clipPath>
</defs>
<defs>
  <clipPath id="clip852">
    <rect x="188" y="47" width="2453" height="1755"/>
  </clipPath>
</defs>
<path clip-path="url(#clip850)" d="
M188.807 1800.78 L2640.76 1800.78 L2640.76 47.2441 L188.807 47.2441  Z
  " fill="#ffffff" fill-rule="evenodd" fill-opacity="1"/>
<polyline clip-path="url(#clip852)" style="stroke:#000000; stroke-linecap:round; stroke-linejoin:round; stroke-width:2; stroke-opacity:0.1; fill:none" points="
  515.219,1800.78 515.219,47.2441 
  "/>
<polyline clip-path="url(#clip852)" style="stroke:#000000; stroke-linecap:round; stroke-linejoin:round; stroke-width:2; stroke-opacity:0.1; fill:none" points="
  1029.25,1800.78 1029.25,47.2441 
  "/>
<polyline clip-path="url(#clip852)" style="stroke:#000000; stroke-linecap:round; stroke-linejoin:round; stroke-width:2; stroke-opacity:0.1; fill:none" points="
  1543.29,1800.78 1543.29,47.2441 
  "/>
<polyline clip-path="url(#clip852)" style="stroke:#000000; stroke-linecap:round; stroke-linejoin:round; stroke-width:2; stroke-opacity:0.1; fill:none" points="
  2057.33,1800.78 2057.33,47.2441 
  "/>
<polyline clip-path="url(#clip852)" style="stroke:#000000; stroke-linecap:round; stroke-linejoin:round; stroke-width:2; stroke-opacity:0.1; fill:none" points="
  2571.36,1800.78 2571.36,47.2441 
  "/>
<polyline clip-path="url(#clip850)" style="stroke:#000000; stroke-linecap:round; stroke-linejoin:round; stroke-width:4; stroke-opacity:1; fill:none" points="
  188.807,1800.78 2640.76,1800.78 
  "/>
<polyline clip-path="url(#clip850)" style="stroke:#000000; stroke-linecap:round; stroke-linejoin:round; stroke-width:4; stroke-opacity:1; fill:none" points="
  515.219,1800.78 515.219,1781.88 
  "/>
<polyline clip-path="url(#clip850)" style="stroke:#000000; stroke-linecap:round; stroke-linejoin:round; stroke-width:4; stroke-opacity:1; fill:none" points="
  1029.25,1800.78 1029.25,1781.88 
  "/>
<polyline clip-path="url(#clip850)" style="stroke:#000000; stroke-linecap:round; stroke-linejoin:round; stroke-width:4; stroke-opacity:1; fill:none" points="
  1543.29,1800.78 1543.29,1781.88 
  "/>
<polyline clip-path="url(#clip850)" style="stroke:#000000; stroke-linecap:round; stroke-linejoin:round; stroke-width:4; stroke-opacity:1; fill:none" points="
  2057.33,1800.78 2057.33,1781.88 
  "/>
<polyline clip-path="url(#clip850)" style="stroke:#000000; stroke-linecap:round; stroke-linejoin:round; stroke-width:4; stroke-opacity:1; fill:none" points="
  2571.36,1800.78 2571.36,1781.88 
  "/>
<path clip-path="url(#clip850)" d="M509.872 1861.55 L526.191 1861.55 L526.191 1865.48 L504.247 1865.48 L504.247 1861.55 Q506.909 1858.79 511.492 1854.16 Q516.099 1849.51 517.279 1848.17 Q519.525 1845.65 520.404 1843.91 Q521.307 1842.15 521.307 1840.46 Q521.307 1837.71 519.363 1835.97 Q517.442 1834.23 514.34 1834.23 Q512.141 1834.23 509.687 1835 Q507.256 1835.76 504.479 1837.31 L504.479 1832.59 Q507.303 1831.46 509.756 1830.88 Q512.21 1830.3 514.247 1830.3 Q519.617 1830.3 522.812 1832.98 Q526.006 1835.67 526.006 1840.16 Q526.006 1842.29 525.196 1844.21 Q524.409 1846.11 522.303 1848.7 Q521.724 1849.37 518.622 1852.59 Q515.52 1855.78 509.872 1861.55 Z" fill="#000000" fill-rule="evenodd" fill-opacity="1" /><path clip-path="url(#clip850)" d="M1032.26 1835 L1020.46 1853.45 L1032.26 1853.45 L1032.26 1835 M1031.04 1830.92 L1036.92 1830.92 L1036.92 1853.45 L1041.85 1853.45 L1041.85 1857.34 L1036.92 1857.34 L1036.92 1865.48 L1032.26 1865.48 L1032.26 1857.34 L1016.66 1857.34 L1016.66 1852.82 L1031.04 1830.92 Z" fill="#000000" fill-rule="evenodd" fill-opacity="1" /><path clip-path="url(#clip850)" d="M1543.7 1846.34 Q1540.55 1846.34 1538.7 1848.49 Q1536.87 1850.65 1536.87 1854.4 Q1536.87 1858.12 1538.7 1860.3 Q1540.55 1862.45 1543.7 1862.45 Q1546.84 1862.45 1548.67 1860.3 Q1550.52 1858.12 1550.52 1854.4 Q1550.52 1850.65 1548.67 1848.49 Q1546.84 1846.34 1543.7 1846.34 M1552.98 1831.69 L1552.98 1835.95 Q1551.22 1835.11 1549.41 1834.67 Q1547.63 1834.23 1545.87 1834.23 Q1541.24 1834.23 1538.79 1837.36 Q1536.36 1840.48 1536.01 1846.8 Q1537.38 1844.79 1539.44 1843.72 Q1541.5 1842.64 1543.97 1842.64 Q1549.18 1842.64 1552.19 1845.81 Q1555.22 1848.96 1555.22 1854.4 Q1555.22 1859.72 1552.07 1862.94 Q1548.93 1866.15 1543.7 1866.15 Q1537.7 1866.15 1534.53 1861.57 Q1531.36 1856.96 1531.36 1848.24 Q1531.36 1840.04 1535.25 1835.18 Q1539.14 1830.3 1545.69 1830.3 Q1547.45 1830.3 1549.23 1830.65 Q1551.03 1830.99 1552.98 1831.69 Z" fill="#000000" fill-rule="evenodd" fill-opacity="1" /><path clip-path="url(#clip850)" d="M2057.33 1849.07 Q2053.99 1849.07 2052.07 1850.85 Q2050.17 1852.64 2050.17 1855.76 Q2050.17 1858.89 2052.07 1860.67 Q2053.99 1862.45 2057.33 1862.45 Q2060.66 1862.45 2062.58 1860.67 Q2064.5 1858.86 2064.5 1855.76 Q2064.5 1852.64 2062.58 1850.85 Q2060.68 1849.07 2057.33 1849.07 M2052.65 1847.08 Q2049.64 1846.34 2047.95 1844.28 Q2046.28 1842.22 2046.28 1839.26 Q2046.28 1835.11 2049.22 1832.71 Q2052.19 1830.3 2057.33 1830.3 Q2062.49 1830.3 2065.43 1832.71 Q2068.37 1835.11 2068.37 1839.26 Q2068.37 1842.22 2066.68 1844.28 Q2065.01 1846.34 2062.02 1847.08 Q2065.4 1847.87 2067.28 1850.16 Q2069.18 1852.45 2069.18 1855.76 Q2069.18 1860.78 2066.1 1863.47 Q2063.04 1866.15 2057.33 1866.15 Q2051.61 1866.15 2048.53 1863.47 Q2045.47 1860.78 2045.47 1855.76 Q2045.47 1852.45 2047.37 1850.16 Q2049.27 1847.87 2052.65 1847.08 M2050.94 1839.7 Q2050.94 1842.38 2052.6 1843.89 Q2054.29 1845.39 2057.33 1845.39 Q2060.33 1845.39 2062.02 1843.89 Q2063.74 1842.38 2063.74 1839.7 Q2063.74 1837.01 2062.02 1835.51 Q2060.33 1834 2057.33 1834 Q2054.29 1834 2052.6 1835.51 Q2050.94 1837.01 2050.94 1839.7 Z" fill="#000000" fill-rule="evenodd" fill-opacity="1" /><path clip-path="url(#clip850)" d="M2546.05 1861.55 L2553.69 1861.55 L2553.69 1835.18 L2545.38 1836.85 L2545.38 1832.59 L2553.64 1830.92 L2558.32 1830.92 L2558.32 1861.55 L2565.96 1861.55 L2565.96 1865.48 L2546.05 1865.48 L2546.05 1861.55 Z" fill="#000000" fill-rule="evenodd" fill-opacity="1" /><path clip-path="url(#clip850)" d="M2585.4 1834 Q2581.79 1834 2579.96 1837.57 Q2578.16 1841.11 2578.16 1848.24 Q2578.16 1855.34 2579.96 1858.91 Q2581.79 1862.45 2585.4 1862.45 Q2589.03 1862.45 2590.84 1858.91 Q2592.67 1855.34 2592.67 1848.24 Q2592.67 1841.11 2590.84 1837.57 Q2589.03 1834 2585.4 1834 M2585.4 1830.3 Q2591.21 1830.3 2594.27 1834.9 Q2597.34 1839.49 2597.34 1848.24 Q2597.34 1856.96 2594.27 1861.57 Q2591.21 1866.15 2585.4 1866.15 Q2579.59 1866.15 2576.51 1861.57 Q2573.46 1856.96 2573.46 1848.24 Q2573.46 1839.49 2576.51 1834.9 Q2579.59 1830.3 2585.4 1830.3 Z" fill="#000000" fill-rule="evenodd" fill-opacity="1" /><polyline clip-path="url(#clip852)" style="stroke:#000000; stroke-linecap:round; stroke-linejoin:round; stroke-width:2; stroke-opacity:0.1; fill:none" points="
  188.807,1751.15 2640.76,1751.15 
  "/>
<polyline clip-path="url(#clip852)" style="stroke:#000000; stroke-linecap:round; stroke-linejoin:round; stroke-width:2; stroke-opacity:0.1; fill:none" points="
  188.807,1337.58 2640.76,1337.58 
  "/>
<polyline clip-path="url(#clip852)" style="stroke:#000000; stroke-linecap:round; stroke-linejoin:round; stroke-width:2; stroke-opacity:0.1; fill:none" points="
  188.807,924.012 2640.76,924.012 
  "/>
<polyline clip-path="url(#clip852)" style="stroke:#000000; stroke-linecap:round; stroke-linejoin:round; stroke-width:2; stroke-opacity:0.1; fill:none" points="
  188.807,510.442 2640.76,510.442 
  "/>
<polyline clip-path="url(#clip852)" style="stroke:#000000; stroke-linecap:round; stroke-linejoin:round; stroke-width:2; stroke-opacity:0.1; fill:none" points="
  188.807,96.8724 2640.76,96.8724 
  "/>
<polyline clip-path="url(#clip850)" style="stroke:#000000; stroke-linecap:round; stroke-linejoin:round; stroke-width:4; stroke-opacity:1; fill:none" points="
  188.807,1800.78 188.807,47.2441 
  "/>
<polyline clip-path="url(#clip850)" style="stroke:#000000; stroke-linecap:round; stroke-linejoin:round; stroke-width:4; stroke-opacity:1; fill:none" points="
  188.807,1751.15 207.704,1751.15 
  "/>
<polyline clip-path="url(#clip850)" style="stroke:#000000; stroke-linecap:round; stroke-linejoin:round; stroke-width:4; stroke-opacity:1; fill:none" points="
  188.807,1337.58 207.704,1337.58 
  "/>
<polyline clip-path="url(#clip850)" style="stroke:#000000; stroke-linecap:round; stroke-linejoin:round; stroke-width:4; stroke-opacity:1; fill:none" points="
  188.807,924.012 207.704,924.012 
  "/>
<polyline clip-path="url(#clip850)" style="stroke:#000000; stroke-linecap:round; stroke-linejoin:round; stroke-width:4; stroke-opacity:1; fill:none" points="
  188.807,510.442 207.704,510.442 
  "/>
<polyline clip-path="url(#clip850)" style="stroke:#000000; stroke-linecap:round; stroke-linejoin:round; stroke-width:4; stroke-opacity:1; fill:none" points="
  188.807,96.8724 207.704,96.8724 
  "/>
<path clip-path="url(#clip850)" d="M51.9595 1764.5 L59.5984 1764.5 L59.5984 1738.13 L51.2882 1739.8 L51.2882 1735.54 L59.5521 1733.87 L64.228 1733.87 L64.228 1764.5 L71.8668 1764.5 L71.8668 1768.43 L51.9595 1768.43 L51.9595 1764.5 Z" fill="#000000" fill-rule="evenodd" fill-opacity="1" /><path clip-path="url(#clip850)" d="M81.3112 1762.55 L86.1954 1762.55 L86.1954 1768.43 L81.3112 1768.43 L81.3112 1762.55 Z" fill="#000000" fill-rule="evenodd" fill-opacity="1" /><path clip-path="url(#clip850)" d="M106.381 1736.95 Q102.769 1736.95 100.941 1740.51 Q99.1352 1744.06 99.1352 1751.19 Q99.1352 1758.29 100.941 1761.86 Q102.769 1765.4 106.381 1765.4 Q110.015 1765.4 111.82 1761.86 Q113.649 1758.29 113.649 1751.19 Q113.649 1744.06 111.82 1740.51 Q110.015 1736.95 106.381 1736.95 M106.381 1733.25 Q112.191 1733.25 115.246 1737.85 Q118.325 1742.44 118.325 1751.19 Q118.325 1759.91 115.246 1764.52 Q112.191 1769.1 106.381 1769.1 Q100.57 1769.1 97.4917 1764.52 Q94.4361 1759.91 94.4361 1751.19 Q94.4361 1742.44 97.4917 1737.85 Q100.57 1733.25 106.381 1733.25 Z" fill="#000000" fill-rule="evenodd" fill-opacity="1" /><path clip-path="url(#clip850)" d="M136.542 1736.95 Q132.931 1736.95 131.103 1740.51 Q129.297 1744.06 129.297 1751.19 Q129.297 1758.29 131.103 1761.86 Q132.931 1765.4 136.542 1765.4 Q140.177 1765.4 141.982 1761.86 Q143.811 1758.29 143.811 1751.19 Q143.811 1744.06 141.982 1740.51 Q140.177 1736.95 136.542 1736.95 M136.542 1733.25 Q142.353 1733.25 145.408 1737.85 Q148.487 1742.44 148.487 1751.19 Q148.487 1759.91 145.408 1764.52 Q142.353 1769.1 136.542 1769.1 Q130.732 1769.1 127.654 1764.52 Q124.598 1759.91 124.598 1751.19 Q124.598 1742.44 127.654 1737.85 Q130.732 1733.25 136.542 1733.25 Z" fill="#000000" fill-rule="evenodd" fill-opacity="1" /><path clip-path="url(#clip850)" d="M52.9549 1350.93 L60.5937 1350.93 L60.5937 1324.56 L52.2836 1326.23 L52.2836 1321.97 L60.5474 1320.3 L65.2233 1320.3 L65.2233 1350.93 L72.8622 1350.93 L72.8622 1354.86 L52.9549 1354.86 L52.9549 1350.93 Z" fill="#000000" fill-rule="evenodd" fill-opacity="1" /><path clip-path="url(#clip850)" d="M82.3066 1348.98 L87.1908 1348.98 L87.1908 1354.86 L82.3066 1354.86 L82.3066 1348.98 Z" fill="#000000" fill-rule="evenodd" fill-opacity="1" /><path clip-path="url(#clip850)" d="M101.404 1350.93 L117.723 1350.93 L117.723 1354.86 L95.7787 1354.86 L95.7787 1350.93 Q98.4408 1348.17 103.024 1343.54 Q107.631 1338.89 108.811 1337.55 Q111.056 1335.02 111.936 1333.29 Q112.839 1331.53 112.839 1329.84 Q112.839 1327.08 110.894 1325.35 Q108.973 1323.61 105.871 1323.61 Q103.672 1323.61 101.219 1324.38 Q98.788 1325.14 96.0102 1326.69 L96.0102 1321.97 Q98.8343 1320.83 101.288 1320.26 Q103.742 1319.68 105.779 1319.68 Q111.149 1319.68 114.343 1322.36 Q117.538 1325.05 117.538 1329.54 Q117.538 1331.67 116.728 1333.59 Q115.941 1335.49 113.834 1338.08 Q113.255 1338.75 110.154 1341.97 Q107.052 1345.16 101.404 1350.93 Z" fill="#000000" fill-rule="evenodd" fill-opacity="1" /><path clip-path="url(#clip850)" d="M127.584 1320.3 L145.94 1320.3 L145.94 1324.24 L131.866 1324.24 L131.866 1332.71 Q132.885 1332.36 133.904 1332.2 Q134.922 1332.01 135.941 1332.01 Q141.728 1332.01 145.107 1335.19 Q148.487 1338.36 148.487 1343.77 Q148.487 1349.35 145.015 1352.45 Q141.542 1355.53 135.223 1355.53 Q133.047 1355.53 130.779 1355.16 Q128.533 1354.79 126.126 1354.05 L126.126 1349.35 Q128.209 1350.49 130.431 1351.04 Q132.654 1351.6 135.13 1351.6 Q139.135 1351.6 141.473 1349.49 Q143.811 1347.38 143.811 1343.77 Q143.811 1340.16 141.473 1338.06 Q139.135 1335.95 135.13 1335.95 Q133.255 1335.95 131.38 1336.37 Q129.529 1336.78 127.584 1337.66 L127.584 1320.3 Z" fill="#000000" fill-rule="evenodd" fill-opacity="1" /><path clip-path="url(#clip850)" d="M51.9595 937.357 L59.5984 937.357 L59.5984 910.991 L51.2882 912.658 L51.2882 908.398 L59.5521 906.732 L64.228 906.732 L64.228 937.357 L71.8668 937.357 L71.8668 941.292 L51.9595 941.292 L51.9595 937.357 Z" fill="#000000" fill-rule="evenodd" fill-opacity="1" /><path clip-path="url(#clip850)" d="M81.3112 935.412 L86.1954 935.412 L86.1954 941.292 L81.3112 941.292 L81.3112 935.412 Z" fill="#000000" fill-rule="evenodd" fill-opacity="1" /><path clip-path="url(#clip850)" d="M96.4269 906.732 L114.783 906.732 L114.783 910.667 L100.709 910.667 L100.709 919.139 Q101.728 918.792 102.746 918.63 Q103.765 918.445 104.783 918.445 Q110.57 918.445 113.95 921.616 Q117.33 924.787 117.33 930.204 Q117.33 935.782 113.857 938.884 Q110.385 941.963 104.066 941.963 Q101.89 941.963 99.6213 941.593 Q97.3759 941.222 94.9685 940.482 L94.9685 935.782 Q97.0519 936.917 99.2741 937.472 Q101.496 938.028 103.973 938.028 Q107.978 938.028 110.316 935.921 Q112.654 933.815 112.654 930.204 Q112.654 926.593 110.316 924.486 Q107.978 922.38 103.973 922.38 Q102.098 922.38 100.223 922.796 Q98.3713 923.213 96.4269 924.093 L96.4269 906.732 Z" fill="#000000" fill-rule="evenodd" fill-opacity="1" /><path clip-path="url(#clip850)" d="M136.542 909.81 Q132.931 909.81 131.103 913.375 Q129.297 916.917 129.297 924.046 Q129.297 931.153 131.103 934.718 Q132.931 938.259 136.542 938.259 Q140.177 938.259 141.982 934.718 Q143.811 931.153 143.811 924.046 Q143.811 916.917 141.982 913.375 Q140.177 909.81 136.542 909.81 M136.542 906.107 Q142.353 906.107 145.408 910.713 Q148.487 915.296 148.487 924.046 Q148.487 932.773 145.408 937.38 Q142.353 941.963 136.542 941.963 Q130.732 941.963 127.654 937.38 Q124.598 932.773 124.598 924.046 Q124.598 915.296 127.654 910.713 Q130.732 906.107 136.542 906.107 Z" fill="#000000" fill-rule="evenodd" fill-opacity="1" /><path clip-path="url(#clip850)" d="M52.9549 523.787 L60.5937 523.787 L60.5937 497.421 L52.2836 499.088 L52.2836 494.829 L60.5474 493.162 L65.2233 493.162 L65.2233 523.787 L72.8622 523.787 L72.8622 527.722 L52.9549 527.722 L52.9549 523.787 Z" fill="#000000" fill-rule="evenodd" fill-opacity="1" /><path clip-path="url(#clip850)" d="M82.3066 521.842 L87.1908 521.842 L87.1908 527.722 L82.3066 527.722 L82.3066 521.842 Z" fill="#000000" fill-rule="evenodd" fill-opacity="1" /><path clip-path="url(#clip850)" d="M96.1954 493.162 L118.417 493.162 L118.417 495.153 L105.871 527.722 L100.987 527.722 L112.793 497.097 L96.1954 497.097 L96.1954 493.162 Z" fill="#000000" fill-rule="evenodd" fill-opacity="1" /><path clip-path="url(#clip850)" d="M127.584 493.162 L145.94 493.162 L145.94 497.097 L131.866 497.097 L131.866 505.569 Q132.885 505.222 133.904 505.06 Q134.922 504.875 135.941 504.875 Q141.728 504.875 145.107 508.046 Q148.487 511.218 148.487 516.634 Q148.487 522.213 145.015 525.315 Q141.542 528.393 135.223 528.393 Q133.047 528.393 130.779 528.023 Q128.533 527.653 126.126 526.912 L126.126 522.213 Q128.209 523.347 130.431 523.903 Q132.654 524.458 135.13 524.458 Q139.135 524.458 141.473 522.352 Q143.811 520.245 143.811 516.634 Q143.811 513.023 141.473 510.917 Q139.135 508.81 135.13 508.81 Q133.255 508.81 131.38 509.227 Q129.529 509.643 127.584 510.523 L127.584 493.162 Z" fill="#000000" fill-rule="evenodd" fill-opacity="1" /><path clip-path="url(#clip850)" d="M55.1771 110.217 L71.4965 110.217 L71.4965 114.152 L49.5521 114.152 L49.5521 110.217 Q52.2141 107.463 56.7975 102.833 Q61.4039 98.1803 62.5845 96.8377 Q64.8298 94.3146 65.7094 92.5785 Q66.6122 90.8192 66.6122 89.1294 Q66.6122 86.3748 64.6678 84.6387 Q62.7465 82.9026 59.6447 82.9026 Q57.4456 82.9026 54.9919 83.6665 Q52.5614 84.4304 49.7836 85.9813 L49.7836 81.2591 Q52.6077 80.1249 55.0614 79.5462 Q57.515 78.9675 59.5521 78.9675 Q64.9224 78.9675 68.1168 81.6526 Q71.3113 84.3378 71.3113 88.8285 Q71.3113 90.9581 70.5011 92.8794 Q69.7141 94.7776 67.6076 97.3701 Q67.0289 98.0414 63.927 101.259 Q60.8252 104.453 55.1771 110.217 Z" fill="#000000" fill-rule="evenodd" fill-opacity="1" /><path clip-path="url(#clip850)" d="M81.3112 108.273 L86.1954 108.273 L86.1954 114.152 L81.3112 114.152 L81.3112 108.273 Z" fill="#000000" fill-rule="evenodd" fill-opacity="1" /><path clip-path="url(#clip850)" d="M106.381 82.6711 Q102.769 82.6711 100.941 86.2359 Q99.1352 89.7776 99.1352 96.9072 Q99.1352 104.014 100.941 107.578 Q102.769 111.12 106.381 111.12 Q110.015 111.12 111.82 107.578 Q113.649 104.014 113.649 96.9072 Q113.649 89.7776 111.82 86.2359 Q110.015 82.6711 106.381 82.6711 M106.381 78.9675 Q112.191 78.9675 115.246 83.5739 Q118.325 88.1572 118.325 96.9072 Q118.325 105.634 115.246 110.24 Q112.191 114.824 106.381 114.824 Q100.57 114.824 97.4917 110.24 Q94.4361 105.634 94.4361 96.9072 Q94.4361 88.1572 97.4917 83.5739 Q100.57 78.9675 106.381 78.9675 Z" fill="#000000" fill-rule="evenodd" fill-opacity="1" /><path clip-path="url(#clip850)" d="M136.542 82.6711 Q132.931 82.6711 131.103 86.2359 Q129.297 89.7776 129.297 96.9072 Q129.297 104.014 131.103 107.578 Q132.931 111.12 136.542 111.12 Q140.177 111.12 141.982 107.578 Q143.811 104.014 143.811 96.9072 Q143.811 89.7776 141.982 86.2359 Q140.177 82.6711 136.542 82.6711 M136.542 78.9675 Q142.353 78.9675 145.408 83.5739 Q148.487 88.1572 148.487 96.9072 Q148.487 105.634 145.408 110.24 Q142.353 114.824 136.542 114.824 Q130.732 114.824 127.654 110.24 Q124.598 105.634 124.598 96.9072 Q124.598 88.1572 127.654 83.5739 Q130.732 78.9675 136.542 78.9675 Z" fill="#000000" fill-rule="evenodd" fill-opacity="1" /><circle clip-path="url(#clip852)" cx="258.202" cy="1751.15" r="14.4" fill="#009af9" fill-rule="evenodd" fill-opacity="1" stroke="#000000" stroke-opacity="1" stroke-width="3.84"/>
<circle clip-path="url(#clip852)" cx="772.237" cy="924.012" r="14.4" fill="#009af9" fill-rule="evenodd" fill-opacity="1" stroke="#000000" stroke-opacity="1" stroke-width="3.84"/>
<circle clip-path="url(#clip852)" cx="1286.27" cy="758.584" r="14.4" fill="#009af9" fill-rule="evenodd" fill-opacity="1" stroke="#000000" stroke-opacity="1" stroke-width="3.84"/>
<circle clip-path="url(#clip852)" cx="1800.31" cy="733.133" r="14.4" fill="#009af9" fill-rule="evenodd" fill-opacity="1" stroke="#000000" stroke-opacity="1" stroke-width="3.84"/>
<circle clip-path="url(#clip852)" cx="2314.34" cy="729.391" r="14.4" fill="#009af9" fill-rule="evenodd" fill-opacity="1" stroke="#000000" stroke-opacity="1" stroke-width="3.84"/>
<circle clip-path="url(#clip852)" cx="515.219" cy="96.8724" r="14.4" fill="#e26f46" fill-rule="evenodd" fill-opacity="1" stroke="#000000" stroke-opacity="1" stroke-width="3.84"/>
<circle clip-path="url(#clip852)" cx="1029.25" cy="648.299" r="14.4" fill="#e26f46" fill-rule="evenodd" fill-opacity="1" stroke="#000000" stroke-opacity="1" stroke-width="3.84"/>
<circle clip-path="url(#clip852)" cx="1543.29" cy="717.227" r="14.4" fill="#e26f46" fill-rule="evenodd" fill-opacity="1" stroke="#000000" stroke-opacity="1" stroke-width="3.84"/>
<circle clip-path="url(#clip852)" cx="2057.33" cy="727.074" r="14.4" fill="#e26f46" fill-rule="evenodd" fill-opacity="1" stroke="#000000" stroke-opacity="1" stroke-width="3.84"/>
<circle clip-path="url(#clip852)" cx="2571.36" cy="728.506" r="14.4" fill="#e26f46" fill-rule="evenodd" fill-opacity="1" stroke="#000000" stroke-opacity="1" stroke-width="3.84"/>
<path clip-path="url(#clip850)" d="
M2182.76 261.215 L2559.02 261.215 L2559.02 105.695 L2182.76 105.695  Z
  " fill="#ffffff" fill-rule="evenodd" fill-opacity="1"/>
<polyline clip-path="url(#clip850)" style="stroke:#000000; stroke-linecap:round; stroke-linejoin:round; stroke-width:4; stroke-opacity:1; fill:none" points="
  2182.76,261.215 2559.02,261.215 2559.02,105.695 2182.76,105.695 2182.76,261.215 
  "/>
<circle clip-path="url(#clip850)" cx="2291.74" cy="157.535" r="23.04" fill="#009af9" fill-rule="evenodd" fill-opacity="1" stroke="#000000" stroke-opacity="1" stroke-width="6.144"/>
<path clip-path="url(#clip850)" d="M2424.6 142.909 Q2424.6 144.221 2423.78 144.971 Q2422.96 145.697 2422.03 145.697 Q2421.14 145.697 2420.67 145.181 Q2420.2 144.666 2420.2 144.01 Q2420.2 143.12 2420.85 142.347 Q2421.51 141.574 2422.49 141.41 Q2421.53 140.801 2420.11 140.801 Q2419.17 140.801 2418.35 141.293 Q2417.55 141.785 2417.06 142.417 Q2416.59 143.05 2416.17 143.963 Q2415.77 144.853 2415.61 145.392 Q2415.47 145.907 2415.35 146.47 L2413.71 153.028 Q2412.91 156.143 2412.91 157.244 Q2412.91 158.602 2413.57 159.516 Q2414.23 160.406 2415.54 160.406 Q2416.05 160.406 2416.64 160.265 Q2417.22 160.101 2417.97 159.68 Q2418.75 159.235 2419.43 158.579 Q2420.13 157.9 2420.81 156.752 Q2421.49 155.604 2421.93 154.129 Q2422.07 153.613 2422.54 153.613 Q2423.13 153.613 2423.13 154.082 Q2423.13 154.48 2422.8 155.323 Q2422.49 156.143 2421.81 157.22 Q2421.16 158.274 2420.29 159.235 Q2419.43 160.172 2418.14 160.828 Q2416.85 161.483 2415.44 161.483 Q2413.43 161.483 2412.09 160.406 Q2410.76 159.328 2410.27 157.829 Q2410.15 158.04 2409.99 158.321 Q2409.82 158.602 2409.33 159.235 Q2408.86 159.844 2408.32 160.312 Q2407.78 160.757 2406.94 161.109 Q2406.12 161.483 2405.23 161.483 Q2404.11 161.483 2403.1 161.155 Q2402.12 160.828 2401.41 160.078 Q2400.71 159.328 2400.71 158.298 Q2400.71 157.15 2401.48 156.354 Q2402.28 155.534 2403.36 155.534 Q2404.04 155.534 2404.58 155.932 Q2405.14 156.33 2405.14 157.197 Q2405.14 158.157 2404.48 158.883 Q2403.83 159.61 2402.89 159.797 Q2403.85 160.406 2405.28 160.406 Q2406.82 160.406 2408.04 159.047 Q2409.26 157.689 2409.85 155.417 Q2411.3 149.959 2411.86 147.524 Q2412.42 145.064 2412.42 144.01 Q2412.42 143.026 2412.16 142.347 Q2411.91 141.668 2411.46 141.363 Q2411.04 141.036 2410.64 140.918 Q2410.27 140.801 2409.85 140.801 Q2409.14 140.801 2408.35 141.082 Q2407.57 141.363 2406.64 142.019 Q2405.72 142.652 2404.86 143.963 Q2403.99 145.275 2403.4 147.079 Q2403.29 147.617 2402.77 147.617 Q2402.21 147.594 2402.21 147.125 Q2402.21 146.727 2402.51 145.907 Q2402.84 145.064 2403.5 144.01 Q2404.18 142.956 2405.04 142.019 Q2405.93 141.059 2407.22 140.403 Q2408.53 139.747 2409.94 139.747 Q2410.57 139.747 2411.18 139.888 Q2411.81 140.005 2412.56 140.356 Q2413.34 140.708 2414.02 141.481 Q2414.69 142.254 2415.12 143.378 Q2415.4 142.839 2415.77 142.324 Q2416.17 141.808 2416.78 141.176 Q2417.41 140.52 2418.28 140.145 Q2419.17 139.747 2420.15 139.747 Q2421.11 139.747 2422.05 140.005 Q2422.99 140.239 2423.78 141.012 Q2424.6 141.762 2424.6 142.909 Z" fill="#000000" fill-rule="evenodd" fill-opacity="1" /><path clip-path="url(#clip850)" d="M2429.49 174.758 Q2429.49 174.152 2429.54 173.971 Q2429.61 173.791 2429.87 173.512 L2436.31 166.331 Q2439.84 162.363 2439.84 158.904 Q2439.84 156.658 2438.66 155.051 Q2437.49 153.444 2435.34 153.444 Q2433.87 153.444 2432.62 154.346 Q2431.38 155.248 2430.8 156.854 Q2430.9 156.822 2431.25 156.822 Q2432.08 156.822 2432.54 157.346 Q2433.02 157.871 2433.02 158.576 Q2433.02 159.478 2432.43 159.92 Q2431.85 160.347 2431.28 160.347 Q2431.05 160.347 2430.74 160.297 Q2430.44 160.248 2429.97 159.789 Q2429.49 159.314 2429.49 158.477 Q2429.49 156.133 2431.26 154.264 Q2433.05 152.395 2435.77 152.395 Q2438.85 152.395 2440.87 154.231 Q2442.9 156.051 2442.9 158.904 Q2442.9 159.904 2442.59 160.822 Q2442.3 161.724 2441.89 162.429 Q2441.49 163.134 2440.41 164.265 Q2439.33 165.396 2438.46 166.2 Q2437.59 167.003 2435.64 168.708 L2432.08 172.168 L2438.13 172.168 Q2441.08 172.168 2441.31 171.906 Q2441.64 171.43 2442.05 168.922 L2442.9 168.922 L2441.95 174.758 L2429.49 174.758 Z" fill="#000000" fill-rule="evenodd" fill-opacity="1" /><path clip-path="url(#clip850)" d="M2463.78 169.954 Q2463.78 170.086 2463.63 170.594 Q2463.49 171.102 2463.13 171.889 Q2462.78 172.676 2462.31 173.398 Q2461.83 174.103 2461.04 174.627 Q2460.27 175.136 2459.39 175.136 Q2458.21 175.136 2457.42 174.349 Q2456.63 173.562 2456.63 172.381 Q2456.63 171.725 2456.98 170.823 Q2459.16 165.003 2459.16 163.003 Q2459.16 160.658 2457.34 160.658 Q2456.44 160.658 2455.58 161.002 Q2454.75 161.33 2454.17 161.789 Q2453.6 162.248 2453.08 162.888 Q2452.57 163.511 2452.31 163.937 Q2452.06 164.347 2451.86 164.757 L2451.44 166.429 Q2451.34 166.888 2450.86 168.676 L2450.12 171.709 Q2449.6 173.971 2449.49 174.185 Q2449.32 174.644 2448.96 174.89 Q2448.6 175.136 2448.24 175.136 Q2447.83 175.136 2447.55 174.89 Q2447.27 174.644 2447.27 174.217 Q2447.27 174.152 2447.32 173.906 Q2447.37 173.66 2447.45 173.316 Q2447.53 172.971 2447.57 172.775 L2449.52 165.019 Q2449.88 163.609 2449.96 163.167 Q2450.06 162.708 2450.06 162.199 Q2450.06 160.658 2449.01 160.658 Q2448.16 160.658 2447.6 161.675 Q2447.04 162.691 2446.57 164.659 Q2446.42 165.2 2446.32 165.314 Q2446.24 165.429 2445.99 165.429 Q2445.58 165.413 2445.58 165.085 Q2445.58 165.003 2445.71 164.462 Q2445.85 163.921 2446.09 163.15 Q2446.35 162.363 2446.6 161.839 Q2446.81 161.445 2446.93 161.265 Q2447.06 161.068 2447.37 160.691 Q2447.7 160.297 2448.12 160.117 Q2448.57 159.92 2449.11 159.92 Q2450.32 159.92 2451.21 160.707 Q2452.09 161.478 2452.21 162.839 Q2454.39 159.92 2457.44 159.92 Q2459.24 159.92 2460.27 160.871 Q2461.31 161.822 2461.31 163.511 Q2461.31 163.904 2461.22 164.413 Q2461.16 164.905 2461 165.528 Q2460.85 166.151 2460.72 166.626 Q2460.59 167.102 2460.32 167.872 Q2460.06 168.626 2459.95 168.954 Q2459.83 169.282 2459.55 170.053 Q2459.29 170.807 2459.26 170.889 Q2458.65 172.414 2458.65 173.283 Q2458.65 173.857 2458.83 174.119 Q2459.03 174.381 2459.45 174.381 Q2460.6 174.381 2461.45 173.25 Q2462.32 172.102 2462.88 170.233 Q2463.01 169.823 2463.08 169.725 Q2463.16 169.627 2463.39 169.627 Q2463.78 169.627 2463.78 169.954 Z" fill="#000000" fill-rule="evenodd" fill-opacity="1" /><path clip-path="url(#clip850)" d="M2497.01 165.888 Q2497.21 166.085 2497.21 166.364 Q2497.21 166.643 2497.01 166.839 Q2496.81 167.036 2496.53 167.036 L2475.52 167.036 Q2475.24 167.036 2475.04 166.839 Q2474.84 166.643 2474.84 166.364 Q2474.84 166.085 2475.04 165.888 Q2475.24 165.692 2475.52 165.692 L2496.53 165.692 Q2496.81 165.692 2497.01 165.888 Z" fill="#000000" fill-rule="evenodd" fill-opacity="1" /><path clip-path="url(#clip850)" d="M2510.03 155.592 L2510.03 154.543 Q2514.06 154.543 2516.15 152.395 Q2516.72 152.395 2516.82 152.526 Q2516.92 152.657 2516.92 153.264 L2516.92 172.102 Q2516.92 173.102 2517.41 173.414 Q2517.9 173.725 2520.05 173.725 L2521.11 173.725 L2521.11 174.758 Q2519.93 174.66 2515.67 174.66 Q2511.41 174.66 2510.24 174.758 L2510.24 173.725 L2511.31 173.725 Q2513.42 173.725 2513.93 173.43 Q2514.44 173.119 2514.44 172.102 L2514.44 154.706 Q2512.69 155.592 2510.03 155.592 Z" fill="#000000" fill-rule="evenodd" fill-opacity="1" /><circle clip-path="url(#clip850)" cx="2291.74" cy="209.375" r="23.04" fill="#e26f46" fill-rule="evenodd" fill-opacity="1" stroke="#000000" stroke-opacity="1" stroke-width="6.144"/>
<path clip-path="url(#clip850)" d="M2424.6 194.749 Q2424.6 196.061 2423.78 196.811 Q2422.96 197.537 2422.03 197.537 Q2421.14 197.537 2420.67 197.021 Q2420.2 196.506 2420.2 195.85 Q2420.2 194.96 2420.85 194.187 Q2421.51 193.414 2422.49 193.25 Q2421.53 192.641 2420.11 192.641 Q2419.17 192.641 2418.35 193.133 Q2417.55 193.625 2417.06 194.257 Q2416.59 194.89 2416.17 195.803 Q2415.77 196.693 2415.61 197.232 Q2415.47 197.747 2415.35 198.31 L2413.71 204.868 Q2412.91 207.983 2412.91 209.084 Q2412.91 210.442 2413.57 211.356 Q2414.23 212.246 2415.54 212.246 Q2416.05 212.246 2416.64 212.105 Q2417.22 211.941 2417.97 211.52 Q2418.75 211.075 2419.43 210.419 Q2420.13 209.74 2420.81 208.592 Q2421.49 207.444 2421.93 205.969 Q2422.07 205.453 2422.54 205.453 Q2423.13 205.453 2423.13 205.922 Q2423.13 206.32 2422.8 207.163 Q2422.49 207.983 2421.81 209.06 Q2421.16 210.114 2420.29 211.075 Q2419.43 212.012 2418.14 212.668 Q2416.85 213.323 2415.44 213.323 Q2413.43 213.323 2412.09 212.246 Q2410.76 211.168 2410.27 209.669 Q2410.15 209.88 2409.99 210.161 Q2409.82 210.442 2409.33 211.075 Q2408.86 211.684 2408.32 212.152 Q2407.78 212.597 2406.94 212.949 Q2406.12 213.323 2405.23 213.323 Q2404.11 213.323 2403.1 212.995 Q2402.12 212.668 2401.41 211.918 Q2400.71 211.168 2400.71 210.138 Q2400.71 208.99 2401.48 208.194 Q2402.28 207.374 2403.36 207.374 Q2404.04 207.374 2404.58 207.772 Q2405.14 208.17 2405.14 209.037 Q2405.14 209.997 2404.48 210.723 Q2403.83 211.45 2402.89 211.637 Q2403.85 212.246 2405.28 212.246 Q2406.82 212.246 2408.04 210.887 Q2409.26 209.529 2409.85 207.257 Q2411.3 201.799 2411.86 199.364 Q2412.42 196.904 2412.42 195.85 Q2412.42 194.866 2412.16 194.187 Q2411.91 193.508 2411.46 193.203 Q2411.04 192.876 2410.64 192.758 Q2410.27 192.641 2409.85 192.641 Q2409.14 192.641 2408.35 192.922 Q2407.57 193.203 2406.64 193.859 Q2405.72 194.492 2404.86 195.803 Q2403.99 197.115 2403.4 198.919 Q2403.29 199.457 2402.77 199.457 Q2402.21 199.434 2402.21 198.965 Q2402.21 198.567 2402.51 197.747 Q2402.84 196.904 2403.5 195.85 Q2404.18 194.796 2405.04 193.859 Q2405.93 192.899 2407.22 192.243 Q2408.53 191.587 2409.94 191.587 Q2410.57 191.587 2411.18 191.728 Q2411.81 191.845 2412.56 192.196 Q2413.34 192.548 2414.02 193.321 Q2414.69 194.094 2415.12 195.218 Q2415.4 194.679 2415.77 194.164 Q2416.17 193.648 2416.78 193.016 Q2417.41 192.36 2418.28 191.985 Q2419.17 191.587 2420.15 191.587 Q2421.11 191.587 2422.05 191.845 Q2422.99 192.079 2423.78 192.852 Q2424.6 193.602 2424.6 194.749 Z" fill="#000000" fill-rule="evenodd" fill-opacity="1" /><path clip-path="url(#clip850)" d="M2429.49 226.598 Q2429.49 225.992 2429.54 225.811 Q2429.61 225.631 2429.87 225.352 L2436.31 218.171 Q2439.84 214.203 2439.84 210.744 Q2439.84 208.498 2438.66 206.891 Q2437.49 205.284 2435.34 205.284 Q2433.87 205.284 2432.62 206.186 Q2431.38 207.088 2430.8 208.694 Q2430.9 208.662 2431.25 208.662 Q2432.08 208.662 2432.54 209.186 Q2433.02 209.711 2433.02 210.416 Q2433.02 211.318 2432.43 211.76 Q2431.85 212.187 2431.28 212.187 Q2431.05 212.187 2430.74 212.137 Q2430.44 212.088 2429.97 211.629 Q2429.49 211.154 2429.49 210.317 Q2429.49 207.973 2431.26 206.104 Q2433.05 204.235 2435.77 204.235 Q2438.85 204.235 2440.87 206.071 Q2442.9 207.891 2442.9 210.744 Q2442.9 211.744 2442.59 212.662 Q2442.3 213.564 2441.89 214.269 Q2441.49 214.974 2440.41 216.105 Q2439.33 217.236 2438.46 218.04 Q2437.59 218.843 2435.64 220.548 L2432.08 224.008 L2438.13 224.008 Q2441.08 224.008 2441.31 223.746 Q2441.64 223.27 2442.05 220.762 L2442.9 220.762 L2441.95 226.598 L2429.49 226.598 Z" fill="#000000" fill-rule="evenodd" fill-opacity="1" /><path clip-path="url(#clip850)" d="M2463.78 221.794 Q2463.78 221.926 2463.63 222.434 Q2463.49 222.942 2463.13 223.729 Q2462.78 224.516 2462.31 225.238 Q2461.83 225.943 2461.04 226.467 Q2460.27 226.976 2459.39 226.976 Q2458.21 226.976 2457.42 226.189 Q2456.63 225.402 2456.63 224.221 Q2456.63 223.565 2456.98 222.663 Q2459.16 216.843 2459.16 214.843 Q2459.16 212.498 2457.34 212.498 Q2456.44 212.498 2455.58 212.842 Q2454.75 213.17 2454.17 213.629 Q2453.6 214.088 2453.08 214.728 Q2452.57 215.351 2452.31 215.777 Q2452.06 216.187 2451.86 216.597 L2451.44 218.269 Q2451.34 218.728 2450.86 220.516 L2450.12 223.549 Q2449.6 225.811 2449.49 226.025 Q2449.32 226.484 2448.96 226.73 Q2448.6 226.976 2448.24 226.976 Q2447.83 226.976 2447.55 226.73 Q2447.27 226.484 2447.27 226.057 Q2447.27 225.992 2447.32 225.746 Q2447.37 225.5 2447.45 225.156 Q2447.53 224.811 2447.57 224.615 L2449.52 216.859 Q2449.88 215.449 2449.96 215.007 Q2450.06 214.548 2450.06 214.039 Q2450.06 212.498 2449.01 212.498 Q2448.16 212.498 2447.6 213.515 Q2447.04 214.531 2446.57 216.499 Q2446.42 217.04 2446.32 217.154 Q2446.24 217.269 2445.99 217.269 Q2445.58 217.253 2445.58 216.925 Q2445.58 216.843 2445.71 216.302 Q2445.85 215.761 2446.09 214.99 Q2446.35 214.203 2446.6 213.679 Q2446.81 213.285 2446.93 213.105 Q2447.06 212.908 2447.37 212.531 Q2447.7 212.137 2448.12 211.957 Q2448.57 211.76 2449.11 211.76 Q2450.32 211.76 2451.21 212.547 Q2452.09 213.318 2452.21 214.679 Q2454.39 211.76 2457.44 211.76 Q2459.24 211.76 2460.27 212.711 Q2461.31 213.662 2461.31 215.351 Q2461.31 215.744 2461.22 216.253 Q2461.16 216.745 2461 217.368 Q2460.85 217.991 2460.72 218.466 Q2460.59 218.942 2460.32 219.712 Q2460.06 220.466 2459.95 220.794 Q2459.83 221.122 2459.55 221.893 Q2459.29 222.647 2459.26 222.729 Q2458.65 224.254 2458.65 225.123 Q2458.65 225.697 2458.83 225.959 Q2459.03 226.221 2459.45 226.221 Q2460.6 226.221 2461.45 225.09 Q2462.32 223.942 2462.88 222.073 Q2463.01 221.663 2463.08 221.565 Q2463.16 221.467 2463.39 221.467 Q2463.78 221.467 2463.78 221.794 Z" fill="#000000" fill-rule="evenodd" fill-opacity="1" /></svg>
