<?xml version="1.0" encoding="utf-8"?>
<svg xmlns="http://www.w3.org/2000/svg" xmlns:xlink="http://www.w3.org/1999/xlink" width="528" height="336" viewBox="0 0 2112 1344">
<defs>
  <clipPath id="clip410">
    <rect x="0" y="0" width="2112" height="1344"/>
  </clipPath>
</defs>
<path clip-path="url(#clip410)" d="M0 1344 L2112 1344 L2112 0 L0 0  Z" fill="#ffffff" fill-rule="evenodd" fill-opacity="1"/>
<defs>
  <clipPath id="clip411">
    <rect x="422" y="0" width="1479" height="1344"/>
  </clipPath>
</defs>
<path clip-path="url(#clip410)" d="M109.297 1234.58 L2064.76 1234.58 L2064.76 47.2441 L109.297 47.2441  Z" fill="#ffffff" fill-rule="evenodd" fill-opacity="1"/>
<defs>
  <clipPath id="clip412">
    <rect x="109" y="47" width="1956" height="1188"/>
  </clipPath>
</defs>
<polyline clip-path="url(#clip412)" style="stroke:#000000; stroke-linecap:round; stroke-linejoin:round; stroke-width:2; stroke-opacity:0.1; fill:none" points="109.297,1234.58 109.297,47.2441 "/>
<polyline clip-path="url(#clip412)" style="stroke:#000000; stroke-linecap:round; stroke-linejoin:round; stroke-width:2; stroke-opacity:0.1; fill:none" points="598.162,1234.58 598.162,47.2441 "/>
<polyline clip-path="url(#clip412)" style="stroke:#000000; stroke-linecap:round; stroke-linejoin:round; stroke-width:2; stroke-opacity:0.1; fill:none" points="1087.03,1234.58 1087.03,47.2441 "/>
<polyline clip-path="url(#clip412)" style="stroke:#000000; stroke-linecap:round; stroke-linejoin:round; stroke-width:2; stroke-opacity:0.1; fill:none" points="1575.89,1234.58 1575.89,47.2441 "/>
<polyline clip-path="url(#clip412)" style="stroke:#000000; stroke-linecap:round; stroke-linejoin:round; stroke-width:2; stroke-opacity:0.1; fill:none" points="2064.76,1234.58 2064.76,47.2441 "/>
<polyline clip-path="url(#clip410)" style="stroke:#000000; stroke-linecap:round; stroke-linejoin:round; stroke-width:4; stroke-opacity:1; fill:none" points="109.297,1234.58 2064.76,1234.58 "/>
<polyline clip-path="url(#clip410)" style="stroke:#000000; stroke-linecap:round; stroke-linejoin:round; stroke-width:4; stroke-opacity:1; fill:none" points="109.297,1234.58 109.297,1215.68 "/>
<polyline clip-path="url(#clip410)" style="stroke:#000000; stroke-linecap:round; stroke-linejoin:round; stroke-width:4; stroke-opacity:1; fill:none" points="598.162,1234.58 598.162,1215.68 "/>
<polyline clip-path="url(#clip410)" style="stroke:#000000; stroke-linecap:round; stroke-linejoin:round; stroke-width:4; stroke-opacity:1; fill:none" points="1087.03,1234.58 1087.03,1215.68 "/>
<polyline clip-path="url(#clip410)" style="stroke:#000000; stroke-linecap:round; stroke-linejoin:round; stroke-width:4; stroke-opacity:1; fill:none" points="1575.89,1234.58 1575.89,1215.68 "/>
<polyline clip-path="url(#clip410)" style="stroke:#000000; stroke-linecap:round; stroke-linejoin:round; stroke-width:4; stroke-opacity:1; fill:none" points="2064.76,1234.58 2064.76,1215.68 "/>
<path clip-path="url(#clip410)" d="M63.3599 1277.85 L93.0357 1277.85 L93.0357 1281.78 L63.3599 1281.78 L63.3599 1277.85 Z" fill="#000000" fill-rule="nonzero" fill-opacity="1" /><path clip-path="url(#clip410)" d="M103.938 1290.74 L111.577 1290.74 L111.577 1264.37 L103.267 1266.04 L103.267 1261.78 L111.531 1260.11 L116.207 1260.11 L116.207 1290.74 L123.846 1290.74 L123.846 1294.67 L103.938 1294.67 L103.938 1290.74 Z" fill="#000000" fill-rule="nonzero" fill-opacity="1" /><path clip-path="url(#clip410)" d="M143.29 1263.19 Q139.679 1263.19 137.85 1266.76 Q136.045 1270.3 136.045 1277.43 Q136.045 1284.54 137.85 1288.1 Q139.679 1291.64 143.29 1291.64 Q146.924 1291.64 148.73 1288.1 Q150.559 1284.54 150.559 1277.43 Q150.559 1270.3 148.73 1266.76 Q146.924 1263.19 143.29 1263.19 M143.29 1259.49 Q149.1 1259.49 152.156 1264.1 Q155.234 1268.68 155.234 1277.43 Q155.234 1286.16 152.156 1290.76 Q149.1 1295.35 143.29 1295.35 Q137.48 1295.35 134.401 1290.76 Q131.346 1286.16 131.346 1277.43 Q131.346 1268.68 134.401 1264.1 Q137.48 1259.49 143.29 1259.49 Z" fill="#000000" fill-rule="nonzero" fill-opacity="1" /><path clip-path="url(#clip410)" d="M567.803 1277.85 L597.479 1277.85 L597.479 1281.78 L567.803 1281.78 L567.803 1277.85 Z" fill="#000000" fill-rule="nonzero" fill-opacity="1" /><path clip-path="url(#clip410)" d="M607.618 1260.11 L625.974 1260.11 L625.974 1264.05 L611.9 1264.05 L611.9 1272.52 Q612.919 1272.17 613.937 1272.01 Q614.956 1271.83 615.974 1271.83 Q621.761 1271.83 625.141 1275 Q628.52 1278.17 628.52 1283.59 Q628.52 1289.17 625.048 1292.27 Q621.576 1295.35 615.257 1295.35 Q613.081 1295.35 610.812 1294.98 Q608.567 1294.61 606.16 1293.86 L606.16 1289.17 Q608.243 1290.3 610.465 1290.86 Q612.687 1291.41 615.164 1291.41 Q619.169 1291.41 621.507 1289.3 Q623.845 1287.2 623.845 1283.59 Q623.845 1279.98 621.507 1277.87 Q619.169 1275.76 615.164 1275.76 Q613.289 1275.76 611.414 1276.18 Q609.562 1276.6 607.618 1277.48 L607.618 1260.11 Z" fill="#000000" fill-rule="nonzero" fill-opacity="1" /><path clip-path="url(#clip410)" d="M1087.03 1263.19 Q1083.42 1263.19 1081.59 1266.76 Q1079.78 1270.3 1079.78 1277.43 Q1079.78 1284.54 1081.59 1288.1 Q1083.42 1291.64 1087.03 1291.64 Q1090.66 1291.64 1092.47 1288.1 Q1094.3 1284.54 1094.3 1277.43 Q1094.3 1270.3 1092.47 1266.76 Q1090.66 1263.19 1087.03 1263.19 M1087.03 1259.49 Q1092.84 1259.49 1095.89 1264.1 Q1098.97 1268.68 1098.97 1277.43 Q1098.97 1286.16 1095.89 1290.76 Q1092.84 1295.35 1087.03 1295.35 Q1081.22 1295.35 1078.14 1290.76 Q1075.08 1286.16 1075.08 1277.43 Q1075.08 1268.68 1078.14 1264.1 Q1081.22 1259.49 1087.03 1259.49 Z" fill="#000000" fill-rule="nonzero" fill-opacity="1" /><path clip-path="url(#clip410)" d="M1566.17 1260.11 L1584.53 1260.11 L1584.53 1264.05 L1570.45 1264.05 L1570.45 1272.52 Q1571.47 1272.17 1572.49 1272.01 Q1573.51 1271.83 1574.53 1271.83 Q1580.31 1271.83 1583.69 1275 Q1587.07 1278.17 1587.07 1283.59 Q1587.07 1289.17 1583.6 1292.27 Q1580.13 1295.35 1573.81 1295.35 Q1571.63 1295.35 1569.36 1294.98 Q1567.12 1294.61 1564.71 1293.86 L1564.71 1289.17 Q1566.79 1290.3 1569.02 1290.86 Q1571.24 1291.41 1573.72 1291.41 Q1577.72 1291.41 1580.06 1289.3 Q1582.4 1287.2 1582.4 1283.59 Q1582.4 1279.98 1580.06 1277.87 Q1577.72 1275.76 1573.72 1275.76 Q1571.84 1275.76 1569.97 1276.18 Q1568.11 1276.6 1566.17 1277.48 L1566.17 1260.11 Z" fill="#000000" fill-rule="nonzero" fill-opacity="1" /><path clip-path="url(#clip410)" d="M2039.44 1290.74 L2047.08 1290.74 L2047.08 1264.37 L2038.77 1266.04 L2038.77 1261.78 L2047.04 1260.11 L2051.71 1260.11 L2051.71 1290.74 L2059.35 1290.74 L2059.35 1294.67 L2039.44 1294.67 L2039.44 1290.74 Z" fill="#000000" fill-rule="nonzero" fill-opacity="1" /><path clip-path="url(#clip410)" d="M2078.8 1263.19 Q2075.18 1263.19 2073.36 1266.76 Q2071.55 1270.3 2071.55 1277.43 Q2071.55 1284.54 2073.36 1288.1 Q2075.18 1291.64 2078.8 1291.64 Q2082.43 1291.64 2084.23 1288.1 Q2086.06 1284.54 2086.06 1277.43 Q2086.06 1270.3 2084.23 1266.76 Q2082.43 1263.19 2078.8 1263.19 M2078.8 1259.49 Q2084.61 1259.49 2087.66 1264.1 Q2090.74 1268.68 2090.74 1277.43 Q2090.74 1286.16 2087.66 1290.76 Q2084.61 1295.35 2078.8 1295.35 Q2072.99 1295.35 2069.91 1290.76 Q2066.85 1286.16 2066.85 1277.43 Q2066.85 1268.68 2069.91 1264.1 Q2072.99 1259.49 2078.8 1259.49 Z" fill="#000000" fill-rule="nonzero" fill-opacity="1" /><polyline clip-path="url(#clip412)" style="stroke:#000000; stroke-linecap:round; stroke-linejoin:round; stroke-width:2; stroke-opacity:0.1; fill:none" points="109.297,1234.58 2064.76,1234.58 "/>
<polyline clip-path="url(#clip412)" style="stroke:#000000; stroke-linecap:round; stroke-linejoin:round; stroke-width:2; stroke-opacity:0.1; fill:none" points="109.297,1036.69 2064.76,1036.69 "/>
<polyline clip-path="url(#clip412)" style="stroke:#000000; stroke-linecap:round; stroke-linejoin:round; stroke-width:2; stroke-opacity:0.1; fill:none" points="109.297,838.801 2064.76,838.801 "/>
<polyline clip-path="url(#clip412)" style="stroke:#000000; stroke-linecap:round; stroke-linejoin:round; stroke-width:2; stroke-opacity:0.1; fill:none" points="109.297,640.911 2064.76,640.911 "/>
<polyline clip-path="url(#clip412)" style="stroke:#000000; stroke-linecap:round; stroke-linejoin:round; stroke-width:2; stroke-opacity:0.1; fill:none" points="109.297,443.022 2064.76,443.022 "/>
<polyline clip-path="url(#clip412)" style="stroke:#000000; stroke-linecap:round; stroke-linejoin:round; stroke-width:2; stroke-opacity:0.1; fill:none" points="109.297,245.133 2064.76,245.133 "/>
<polyline clip-path="url(#clip412)" style="stroke:#000000; stroke-linecap:round; stroke-linejoin:round; stroke-width:2; stroke-opacity:0.1; fill:none" points="109.297,47.2441 2064.76,47.2441 "/>
<polyline clip-path="url(#clip410)" style="stroke:#000000; stroke-linecap:round; stroke-linejoin:round; stroke-width:4; stroke-opacity:1; fill:none" points="109.297,1234.58 109.297,47.2441 "/>
<polyline clip-path="url(#clip410)" style="stroke:#000000; stroke-linecap:round; stroke-linejoin:round; stroke-width:4; stroke-opacity:1; fill:none" points="109.297,1234.58 128.195,1234.58 "/>
<polyline clip-path="url(#clip410)" style="stroke:#000000; stroke-linecap:round; stroke-linejoin:round; stroke-width:4; stroke-opacity:1; fill:none" points="109.297,1036.69 128.195,1036.69 "/>
<polyline clip-path="url(#clip410)" style="stroke:#000000; stroke-linecap:round; stroke-linejoin:round; stroke-width:4; stroke-opacity:1; fill:none" points="109.297,838.801 128.195,838.801 "/>
<polyline clip-path="url(#clip410)" style="stroke:#000000; stroke-linecap:round; stroke-linejoin:round; stroke-width:4; stroke-opacity:1; fill:none" points="109.297,640.911 128.195,640.911 "/>
<polyline clip-path="url(#clip410)" style="stroke:#000000; stroke-linecap:round; stroke-linejoin:round; stroke-width:4; stroke-opacity:1; fill:none" points="109.297,443.022 128.195,443.022 "/>
<polyline clip-path="url(#clip410)" style="stroke:#000000; stroke-linecap:round; stroke-linejoin:round; stroke-width:4; stroke-opacity:1; fill:none" points="109.297,245.133 128.195,245.133 "/>
<polyline clip-path="url(#clip410)" style="stroke:#000000; stroke-linecap:round; stroke-linejoin:round; stroke-width:4; stroke-opacity:1; fill:none" points="109.297,47.2441 128.195,47.2441 "/>
<path clip-path="url(#clip410)" d="M65.6728 1220.38 Q62.0617 1220.38 60.233 1223.94 Q58.4275 1227.48 58.4275 1234.61 Q58.4275 1241.72 60.233 1245.28 Q62.0617 1248.83 65.6728 1248.83 Q69.307 1248.83 71.1126 1245.28 Q72.9413 1241.72 72.9413 1234.61 Q72.9413 1227.48 71.1126 1223.94 Q69.307 1220.38 65.6728 1220.38 M65.6728 1216.67 Q71.4829 1216.67 74.5385 1221.28 Q77.6172 1225.86 77.6172 1234.61 Q77.6172 1243.34 74.5385 1247.95 Q71.4829 1252.53 65.6728 1252.53 Q59.8626 1252.53 56.784 1247.95 Q53.7284 1243.34 53.7284 1234.61 Q53.7284 1225.86 56.784 1221.28 Q59.8626 1216.67 65.6728 1216.67 Z" fill="#000000" fill-rule="nonzero" fill-opacity="1" /><path clip-path="url(#clip410)" d="M57.7099 1050.03 L65.3487 1050.03 L65.3487 1023.67 L57.0386 1025.34 L57.0386 1021.08 L65.3024 1019.41 L69.9783 1019.41 L69.9783 1050.03 L77.6172 1050.03 L77.6172 1053.97 L57.7099 1053.97 L57.7099 1050.03 Z" fill="#000000" fill-rule="nonzero" fill-opacity="1" /><path clip-path="url(#clip410)" d="M61.2978 852.145 L77.6172 852.145 L77.6172 856.081 L55.6728 856.081 L55.6728 852.145 Q58.3349 849.391 62.9182 844.761 Q67.5246 840.108 68.7052 838.766 Q70.9505 836.243 71.8302 834.507 Q72.7329 832.747 72.7329 831.058 Q72.7329 828.303 70.7885 826.567 Q68.8672 824.831 65.7654 824.831 Q63.5663 824.831 61.1126 825.595 Q58.6821 826.358 55.9043 827.909 L55.9043 823.187 Q58.7284 822.053 61.1821 821.474 Q63.6358 820.896 65.6728 820.896 Q71.0431 820.896 74.2376 823.581 Q77.432 826.266 77.432 830.757 Q77.432 832.886 76.6218 834.808 Q75.8348 836.706 73.7283 839.298 Q73.1496 839.97 70.0478 843.187 Q66.9459 846.382 61.2978 852.145 Z" fill="#000000" fill-rule="nonzero" fill-opacity="1" /><path clip-path="url(#clip410)" d="M70.4876 639.557 Q73.844 640.275 75.719 642.543 Q77.6172 644.812 77.6172 648.145 Q77.6172 653.261 74.0987 656.062 Q70.5802 658.863 64.0987 658.863 Q61.9228 658.863 59.608 658.423 Q57.3164 658.006 54.8627 657.15 L54.8627 652.636 Q56.8071 653.77 59.1219 654.349 Q61.4367 654.928 63.9598 654.928 Q68.358 654.928 70.6496 653.191 Q72.9644 651.455 72.9644 648.145 Q72.9644 645.09 70.8117 643.377 Q68.682 641.641 64.8626 641.641 L60.8349 641.641 L60.8349 637.798 L65.0478 637.798 Q68.4969 637.798 70.3255 636.432 Q72.1542 635.043 72.1542 632.451 Q72.1542 629.789 70.2561 628.377 Q68.3811 626.942 64.8626 626.942 Q62.9413 626.942 60.7423 627.358 Q58.5432 627.775 55.9043 628.655 L55.9043 624.488 Q58.5664 623.747 60.8812 623.377 Q63.2191 623.006 65.2793 623.006 Q70.6033 623.006 73.7052 625.437 Q76.807 627.844 76.807 631.965 Q76.807 634.835 75.1635 636.826 Q73.52 638.793 70.4876 639.557 Z" fill="#000000" fill-rule="nonzero" fill-opacity="1" /><path clip-path="url(#clip410)" d="M68.0339 429.816 L56.2284 448.265 L68.0339 448.265 L68.0339 429.816 M66.807 425.742 L72.6866 425.742 L72.6866 448.265 L77.6172 448.265 L77.6172 452.154 L72.6866 452.154 L72.6866 460.302 L68.0339 460.302 L68.0339 452.154 L52.4321 452.154 L52.4321 447.64 L66.807 425.742 Z" fill="#000000" fill-rule="nonzero" fill-opacity="1" /><path clip-path="url(#clip410)" d="M56.7145 227.853 L75.0709 227.853 L75.0709 231.788 L60.9969 231.788 L60.9969 240.261 Q62.0154 239.913 63.0339 239.751 Q64.0524 239.566 65.0709 239.566 Q70.858 239.566 74.2376 242.737 Q77.6172 245.909 77.6172 251.325 Q77.6172 256.904 74.145 260.006 Q70.6728 263.085 64.3534 263.085 Q62.1774 263.085 59.9089 262.714 Q57.6636 262.344 55.2562 261.603 L55.2562 256.904 Q57.3395 258.038 59.5617 258.594 Q61.7839 259.149 64.2608 259.149 Q68.2654 259.149 70.6033 257.043 Q72.9413 254.936 72.9413 251.325 Q72.9413 247.714 70.6033 245.608 Q68.2654 243.501 64.2608 243.501 Q62.3858 243.501 60.5108 243.918 Q58.6589 244.335 56.7145 245.214 L56.7145 227.853 Z" fill="#000000" fill-rule="nonzero" fill-opacity="1" /><path clip-path="url(#clip410)" d="M66.0895 45.3807 Q62.9413 45.3807 61.0895 47.5334 Q59.2608 49.6862 59.2608 53.4362 Q59.2608 57.163 61.0895 59.3389 Q62.9413 61.4917 66.0895 61.4917 Q69.2376 61.4917 71.0663 59.3389 Q72.9181 57.163 72.9181 53.4362 Q72.9181 49.6862 71.0663 47.5334 Q69.2376 45.3807 66.0895 45.3807 M75.3718 30.728 L75.3718 34.9872 Q73.6126 34.1539 71.807 33.7141 Q70.0246 33.2743 68.2654 33.2743 Q63.6358 33.2743 61.1821 36.3992 Q58.7515 39.5242 58.4043 45.8436 Q59.77 43.8298 61.8302 42.765 Q63.8904 41.677 66.3672 41.677 Q71.5755 41.677 74.5848 44.8483 Q77.6172 47.9964 77.6172 53.4362 Q77.6172 58.7602 74.469 61.9778 Q71.3209 65.1954 66.0895 65.1954 Q60.0941 65.1954 56.9228 60.6121 Q53.7516 56.0056 53.7516 47.2788 Q53.7516 39.0844 57.6404 34.2233 Q61.5293 29.3391 68.0802 29.3391 Q69.8394 29.3391 71.6218 29.6863 Q73.4274 30.0335 75.3718 30.728 Z" fill="#000000" fill-rule="nonzero" fill-opacity="1" /><polyline clip-path="url(#clip412)" style="stroke:#009af9; stroke-linecap:round; stroke-linejoin:round; stroke-width:4; stroke-opacity:1; fill:none" points="109.297,630.669 122.028,629.596 239.746,617.723 310.489,608.319 370.302,598.419 435.275,584.789 495.174,568.365 559.393,544.36 633.796,502.074 666.857,474.599 699.918,437.976 714.413,417.757 728.909,394.06 736.156,380.611 743.404,365.892 747.028,357.998 750.652,349.712 754.276,341.003 757.9,331.839 773.704,285.528 789.508,225.431 805.312,144.188 821.116,27.9713 829.065,-51.8503 837.014,-154.085 840.989,-216.839 844.963,-289.944 848.938,-376.243 852.912,-479.732 856.887,-606.222 860.861,-764.504 864.835,-968.553 868.81,-1242.04 872.784,-1628.54 876.759,-2218.27 878.746,-2648.06 880.733,-3233.65 882.721,-4080.07 884.708,-5414.97 885.257,-5932.34 885.807,-6548.73 886.356,-7295.85 886.905,-8220.55 887.454,-9395.22 888.004,-10937.9 888.553,-13055 889.102,-16143.2 890.201,-30219.3 891.299,-213880 "/>
<polyline clip-path="url(#clip412)" style="stroke:#009af9; stroke-linecap:round; stroke-linejoin:round; stroke-width:4; stroke-opacity:1; fill:none" points="1087.12,1035.93 1089.3,1026.15 1091.47,1018.8 1120.75,959.172 1150.02,922.707 1185.77,891.095 1221.51,867.67 1254.25,850.833 1287,837.092 1347.48,817.333 1408.74,802.335 1477.41,789.446 1539.62,780.225 1610.86,771.697 1676.82,765.224 1741.84,759.853 1804.98,755.388 1869.7,751.423 1940.61,747.652 2043.62,743.016 2064.76,742.167 "/>
<path clip-path="url(#clip410)" d="M1751.6 190.502 L1999.57 190.502 L1999.57 86.8219 L1751.6 86.8219  Z" fill="#ffffff" fill-rule="evenodd" fill-opacity="1"/>
<polyline clip-path="url(#clip410)" style="stroke:#000000; stroke-linecap:round; stroke-linejoin:round; stroke-width:4; stroke-opacity:1; fill:none" points="1751.6,190.502 1999.57,190.502 1999.57,86.8219 1751.6,86.8219 1751.6,190.502 "/>
<polyline clip-path="url(#clip410)" style="stroke:#009af9; stroke-linecap:round; stroke-linejoin:round; stroke-width:4; stroke-opacity:1; fill:none" points="1773.33,138.662 1903.69,138.662 "/>
<path clip-path="url(#clip410)" d="M1939.26 158.349 Q1937.45 162.979 1935.74 164.391 Q1934.03 165.803 1931.16 165.803 L1927.75 165.803 L1927.75 162.238 L1930.25 162.238 Q1932.01 162.238 1932.99 161.405 Q1933.96 160.572 1935.14 157.47 L1935.9 155.525 L1925.42 130.016 L1929.93 130.016 L1938.03 150.294 L1946.13 130.016 L1950.65 130.016 L1939.26 158.349 Z" fill="#000000" fill-rule="nonzero" fill-opacity="1" /><path clip-path="url(#clip410)" d="M1957.94 152.007 L1965.58 152.007 L1965.58 125.641 L1957.27 127.308 L1957.27 123.049 L1965.53 121.382 L1970.21 121.382 L1970.21 152.007 L1977.85 152.007 L1977.85 155.942 L1957.94 155.942 L1957.94 152.007 Z" fill="#000000" fill-rule="nonzero" fill-opacity="1" /></svg>
