<?xml version="1.0" encoding="utf-8"?>
<svg xmlns="http://www.w3.org/2000/svg" xmlns:xlink="http://www.w3.org/1999/xlink" width="528" height="336" viewBox="0 0 2112 1344">
<defs>
  <clipPath id="clip930">
    <rect x="0" y="0" width="2112" height="1344"/>
  </clipPath>
</defs>
<path clip-path="url(#clip930)" d="M0 1344 L2112 1344 L2112 0 L0 0  Z" fill="#ffffff" fill-rule="evenodd" fill-opacity="1"/>
<defs>
  <clipPath id="clip931">
    <rect x="422" y="0" width="1479" height="1344"/>
  </clipPath>
</defs>
<path clip-path="url(#clip930)" d="M595.347 1173.47 L1721.57 1173.47 L1721.57 47.2441 L595.347 47.2441  Z" fill="#ffffff" fill-rule="evenodd" fill-opacity="1"/>
<defs>
  <clipPath id="clip932">
    <rect x="595" y="47" width="1127" height="1127"/>
  </clipPath>
</defs>
<polyline clip-path="url(#clip932)" style="stroke:#000000; stroke-linecap:round; stroke-linejoin:round; stroke-width:2; stroke-opacity:0.1; fill:none" points="595.347,1173.47 595.347,47.2441 "/>
<polyline clip-path="url(#clip932)" style="stroke:#000000; stroke-linecap:round; stroke-linejoin:round; stroke-width:2; stroke-opacity:0.1; fill:none" points="876.903,1173.47 876.903,47.2441 "/>
<polyline clip-path="url(#clip932)" style="stroke:#000000; stroke-linecap:round; stroke-linejoin:round; stroke-width:2; stroke-opacity:0.1; fill:none" points="1158.46,1173.47 1158.46,47.2441 "/>
<polyline clip-path="url(#clip932)" style="stroke:#000000; stroke-linecap:round; stroke-linejoin:round; stroke-width:2; stroke-opacity:0.1; fill:none" points="1440.02,1173.47 1440.02,47.2441 "/>
<polyline clip-path="url(#clip932)" style="stroke:#000000; stroke-linecap:round; stroke-linejoin:round; stroke-width:2; stroke-opacity:0.1; fill:none" points="1721.57,1173.47 1721.57,47.2441 "/>
<polyline clip-path="url(#clip932)" style="stroke:#000000; stroke-linecap:round; stroke-linejoin:round; stroke-width:2; stroke-opacity:0.1; fill:none" points="595.347,1173.47 1721.57,1173.47 "/>
<polyline clip-path="url(#clip932)" style="stroke:#000000; stroke-linecap:round; stroke-linejoin:round; stroke-width:2; stroke-opacity:0.1; fill:none" points="595.347,891.914 1721.57,891.914 "/>
<polyline clip-path="url(#clip932)" style="stroke:#000000; stroke-linecap:round; stroke-linejoin:round; stroke-width:2; stroke-opacity:0.1; fill:none" points="595.347,610.357 1721.57,610.357 "/>
<polyline clip-path="url(#clip932)" style="stroke:#000000; stroke-linecap:round; stroke-linejoin:round; stroke-width:2; stroke-opacity:0.1; fill:none" points="595.347,328.801 1721.57,328.801 "/>
<polyline clip-path="url(#clip932)" style="stroke:#000000; stroke-linecap:round; stroke-linejoin:round; stroke-width:2; stroke-opacity:0.1; fill:none" points="595.347,47.2441 1721.57,47.2441 "/>
<polyline clip-path="url(#clip930)" style="stroke:#000000; stroke-linecap:round; stroke-linejoin:round; stroke-width:4; stroke-opacity:1; fill:none" points="595.347,1173.47 1721.57,1173.47 "/>
<polyline clip-path="url(#clip930)" style="stroke:#000000; stroke-linecap:round; stroke-linejoin:round; stroke-width:4; stroke-opacity:1; fill:none" points="595.347,1173.47 595.347,1154.57 "/>
<polyline clip-path="url(#clip930)" style="stroke:#000000; stroke-linecap:round; stroke-linejoin:round; stroke-width:4; stroke-opacity:1; fill:none" points="876.903,1173.47 876.903,1154.57 "/>
<polyline clip-path="url(#clip930)" style="stroke:#000000; stroke-linecap:round; stroke-linejoin:round; stroke-width:4; stroke-opacity:1; fill:none" points="1158.46,1173.47 1158.46,1154.57 "/>
<polyline clip-path="url(#clip930)" style="stroke:#000000; stroke-linecap:round; stroke-linejoin:round; stroke-width:4; stroke-opacity:1; fill:none" points="1440.02,1173.47 1440.02,1154.57 "/>
<polyline clip-path="url(#clip930)" style="stroke:#000000; stroke-linecap:round; stroke-linejoin:round; stroke-width:4; stroke-opacity:1; fill:none" points="1721.57,1173.47 1721.57,1154.57 "/>
<path clip-path="url(#clip930)" d="M541.875 1216.74 L571.55 1216.74 L571.55 1220.67 L541.875 1220.67 L541.875 1216.74 Z" fill="#000000" fill-rule="nonzero" fill-opacity="1" /><path clip-path="url(#clip930)" d="M581.689 1199.01 L600.046 1199.01 L600.046 1202.94 L585.972 1202.94 L585.972 1211.41 Q586.99 1211.07 588.009 1210.9 Q589.027 1210.72 590.046 1210.72 Q595.833 1210.72 599.212 1213.89 Q602.592 1217.06 602.592 1222.48 Q602.592 1228.06 599.12 1231.16 Q595.648 1234.24 589.328 1234.24 Q587.152 1234.24 584.884 1233.87 Q582.638 1233.5 580.231 1232.76 L580.231 1228.06 Q582.314 1229.19 584.537 1229.75 Q586.759 1230.3 589.236 1230.3 Q593.24 1230.3 595.578 1228.2 Q597.916 1226.09 597.916 1222.48 Q597.916 1218.87 595.578 1216.76 Q593.24 1214.65 589.236 1214.65 Q587.361 1214.65 585.486 1215.07 Q583.634 1215.49 581.689 1216.37 L581.689 1199.01 Z" fill="#000000" fill-rule="nonzero" fill-opacity="1" /><path clip-path="url(#clip930)" d="M611.805 1227.69 L616.689 1227.69 L616.689 1233.57 L611.805 1233.57 L611.805 1227.69 Z" fill="#000000" fill-rule="nonzero" fill-opacity="1" /><path clip-path="url(#clip930)" d="M636.874 1202.09 Q633.263 1202.09 631.434 1205.65 Q629.629 1209.19 629.629 1216.32 Q629.629 1223.43 631.434 1226.99 Q633.263 1230.53 636.874 1230.53 Q640.508 1230.53 642.314 1226.99 Q644.143 1223.43 644.143 1216.32 Q644.143 1209.19 642.314 1205.65 Q640.508 1202.09 636.874 1202.09 M636.874 1198.38 Q642.684 1198.38 645.74 1202.99 Q648.819 1207.57 648.819 1216.32 Q648.819 1225.05 645.74 1229.65 Q642.684 1234.24 636.874 1234.24 Q631.064 1234.24 627.985 1229.65 Q624.93 1225.05 624.93 1216.32 Q624.93 1207.57 627.985 1202.99 Q631.064 1198.38 636.874 1198.38 Z" fill="#000000" fill-rule="nonzero" fill-opacity="1" /><path clip-path="url(#clip930)" d="M823.929 1216.74 L853.605 1216.74 L853.605 1220.67 L823.929 1220.67 L823.929 1216.74 Z" fill="#000000" fill-rule="nonzero" fill-opacity="1" /><path clip-path="url(#clip930)" d="M867.725 1229.63 L884.044 1229.63 L884.044 1233.57 L862.1 1233.57 L862.1 1229.63 Q864.762 1226.88 869.345 1222.25 Q873.952 1217.59 875.132 1216.25 Q877.378 1213.73 878.257 1211.99 Q879.16 1210.23 879.16 1208.54 Q879.16 1205.79 877.216 1204.05 Q875.295 1202.32 872.193 1202.32 Q869.994 1202.32 867.54 1203.08 Q865.109 1203.84 862.332 1205.4 L862.332 1200.67 Q865.156 1199.54 867.609 1198.96 Q870.063 1198.38 872.1 1198.38 Q877.47 1198.38 880.665 1201.07 Q883.859 1203.75 883.859 1208.24 Q883.859 1210.37 883.049 1212.29 Q882.262 1214.19 880.156 1216.78 Q879.577 1217.46 876.475 1220.67 Q873.373 1223.87 867.725 1229.63 Z" fill="#000000" fill-rule="nonzero" fill-opacity="1" /><path clip-path="url(#clip930)" d="M893.859 1227.69 L898.743 1227.69 L898.743 1233.57 L893.859 1233.57 L893.859 1227.69 Z" fill="#000000" fill-rule="nonzero" fill-opacity="1" /><path clip-path="url(#clip930)" d="M908.975 1199.01 L927.331 1199.01 L927.331 1202.94 L913.257 1202.94 L913.257 1211.41 Q914.276 1211.07 915.294 1210.9 Q916.313 1210.72 917.331 1210.72 Q923.118 1210.72 926.498 1213.89 Q929.878 1217.06 929.878 1222.48 Q929.878 1228.06 926.405 1231.16 Q922.933 1234.24 916.614 1234.24 Q914.438 1234.24 912.169 1233.87 Q909.924 1233.5 907.517 1232.76 L907.517 1228.06 Q909.6 1229.19 911.822 1229.75 Q914.044 1230.3 916.521 1230.3 Q920.526 1230.3 922.864 1228.2 Q925.202 1226.09 925.202 1222.48 Q925.202 1218.87 922.864 1216.76 Q920.526 1214.65 916.521 1214.65 Q914.646 1214.65 912.771 1215.07 Q910.919 1215.49 908.975 1216.37 L908.975 1199.01 Z" fill="#000000" fill-rule="nonzero" fill-opacity="1" /><path clip-path="url(#clip930)" d="M1135.84 1202.09 Q1132.23 1202.09 1130.4 1205.65 Q1128.6 1209.19 1128.6 1216.32 Q1128.6 1223.43 1130.4 1226.99 Q1132.23 1230.53 1135.84 1230.53 Q1139.48 1230.53 1141.28 1226.99 Q1143.11 1223.43 1143.11 1216.32 Q1143.11 1209.19 1141.28 1205.65 Q1139.48 1202.09 1135.84 1202.09 M1135.84 1198.38 Q1141.65 1198.38 1144.71 1202.99 Q1147.79 1207.57 1147.79 1216.32 Q1147.79 1225.05 1144.71 1229.65 Q1141.65 1234.24 1135.84 1234.24 Q1130.03 1234.24 1126.96 1229.65 Q1123.9 1225.05 1123.9 1216.32 Q1123.9 1207.57 1126.96 1202.99 Q1130.03 1198.38 1135.84 1198.38 Z" fill="#000000" fill-rule="nonzero" fill-opacity="1" /><path clip-path="url(#clip930)" d="M1156.01 1227.69 L1160.89 1227.69 L1160.89 1233.57 L1156.01 1233.57 L1156.01 1227.69 Z" fill="#000000" fill-rule="nonzero" fill-opacity="1" /><path clip-path="url(#clip930)" d="M1181.08 1202.09 Q1177.46 1202.09 1175.64 1205.65 Q1173.83 1209.19 1173.83 1216.32 Q1173.83 1223.43 1175.64 1226.99 Q1177.46 1230.53 1181.08 1230.53 Q1184.71 1230.53 1186.52 1226.99 Q1188.34 1223.43 1188.34 1216.32 Q1188.34 1209.19 1186.52 1205.65 Q1184.71 1202.09 1181.08 1202.09 M1181.08 1198.38 Q1186.89 1198.38 1189.94 1202.99 Q1193.02 1207.57 1193.02 1216.32 Q1193.02 1225.05 1189.94 1229.65 Q1186.89 1234.24 1181.08 1234.24 Q1175.27 1234.24 1172.19 1229.65 Q1169.13 1225.05 1169.13 1216.32 Q1169.13 1207.57 1172.19 1202.99 Q1175.27 1198.38 1181.08 1198.38 Z" fill="#000000" fill-rule="nonzero" fill-opacity="1" /><path clip-path="url(#clip930)" d="M1411.75 1229.63 L1428.07 1229.63 L1428.07 1233.57 L1406.13 1233.57 L1406.13 1229.63 Q1408.79 1226.88 1413.37 1222.25 Q1417.98 1217.59 1419.16 1216.25 Q1421.41 1213.73 1422.29 1211.99 Q1423.19 1210.23 1423.19 1208.54 Q1423.19 1205.79 1421.24 1204.05 Q1419.32 1202.32 1416.22 1202.32 Q1414.02 1202.32 1411.57 1203.08 Q1409.14 1203.84 1406.36 1205.4 L1406.36 1200.67 Q1409.18 1199.54 1411.64 1198.96 Q1414.09 1198.38 1416.13 1198.38 Q1421.5 1198.38 1424.69 1201.07 Q1427.89 1203.75 1427.89 1208.24 Q1427.89 1210.37 1427.08 1212.29 Q1426.29 1214.19 1424.18 1216.78 Q1423.6 1217.46 1420.5 1220.67 Q1417.4 1223.87 1411.75 1229.63 Z" fill="#000000" fill-rule="nonzero" fill-opacity="1" /><path clip-path="url(#clip930)" d="M1437.89 1227.69 L1442.77 1227.69 L1442.77 1233.57 L1437.89 1233.57 L1437.89 1227.69 Z" fill="#000000" fill-rule="nonzero" fill-opacity="1" /><path clip-path="url(#clip930)" d="M1453 1199.01 L1471.36 1199.01 L1471.36 1202.94 L1457.29 1202.94 L1457.29 1211.41 Q1458.3 1211.07 1459.32 1210.9 Q1460.34 1210.72 1461.36 1210.72 Q1467.15 1210.72 1470.53 1213.89 Q1473.91 1217.06 1473.91 1222.48 Q1473.91 1228.06 1470.43 1231.16 Q1466.96 1234.24 1460.64 1234.24 Q1458.47 1234.24 1456.2 1233.87 Q1453.95 1233.5 1451.54 1232.76 L1451.54 1228.06 Q1453.63 1229.19 1455.85 1229.75 Q1458.07 1230.3 1460.55 1230.3 Q1464.55 1230.3 1466.89 1228.2 Q1469.23 1226.09 1469.23 1222.48 Q1469.23 1218.87 1466.89 1216.76 Q1464.55 1214.65 1460.55 1214.65 Q1458.67 1214.65 1456.8 1215.07 Q1454.95 1215.49 1453 1216.37 L1453 1199.01 Z" fill="#000000" fill-rule="nonzero" fill-opacity="1" /><path clip-path="url(#clip930)" d="M1688.74 1199.01 L1707.09 1199.01 L1707.09 1202.94 L1693.02 1202.94 L1693.02 1211.41 Q1694.04 1211.07 1695.06 1210.9 Q1696.08 1210.72 1697.09 1210.72 Q1702.88 1210.72 1706.26 1213.89 Q1709.64 1217.06 1709.64 1222.48 Q1709.64 1228.06 1706.17 1231.16 Q1702.7 1234.24 1696.38 1234.24 Q1694.2 1234.24 1691.93 1233.87 Q1689.69 1233.5 1687.28 1232.76 L1687.28 1228.06 Q1689.36 1229.19 1691.59 1229.75 Q1693.81 1230.3 1696.28 1230.3 Q1700.29 1230.3 1702.63 1228.2 Q1704.96 1226.09 1704.96 1222.48 Q1704.96 1218.87 1702.63 1216.76 Q1700.29 1214.65 1696.28 1214.65 Q1694.41 1214.65 1692.53 1215.07 Q1690.68 1215.49 1688.74 1216.37 L1688.74 1199.01 Z" fill="#000000" fill-rule="nonzero" fill-opacity="1" /><path clip-path="url(#clip930)" d="M1718.85 1227.69 L1723.74 1227.69 L1723.74 1233.57 L1718.85 1233.57 L1718.85 1227.69 Z" fill="#000000" fill-rule="nonzero" fill-opacity="1" /><path clip-path="url(#clip930)" d="M1743.92 1202.09 Q1740.31 1202.09 1738.48 1205.65 Q1736.68 1209.19 1736.68 1216.32 Q1736.68 1223.43 1738.48 1226.99 Q1740.31 1230.53 1743.92 1230.53 Q1747.56 1230.53 1749.36 1226.99 Q1751.19 1223.43 1751.19 1216.32 Q1751.19 1209.19 1749.36 1205.65 Q1747.56 1202.09 1743.92 1202.09 M1743.92 1198.38 Q1749.73 1198.38 1752.79 1202.99 Q1755.87 1207.57 1755.87 1216.32 Q1755.87 1225.05 1752.79 1229.65 Q1749.73 1234.24 1743.92 1234.24 Q1738.11 1234.24 1735.03 1229.65 Q1731.98 1225.05 1731.98 1216.32 Q1731.98 1207.57 1735.03 1202.99 Q1738.11 1198.38 1743.92 1198.38 Z" fill="#000000" fill-rule="nonzero" fill-opacity="1" /><path clip-path="url(#clip930)" d="M1172.63 1274.77 Q1172.63 1276.57 1171.51 1277.6 Q1170.38 1278.6 1169.09 1278.6 Q1167.87 1278.6 1167.22 1277.89 Q1166.58 1277.19 1166.58 1276.28 Q1166.58 1275.06 1167.48 1274 Q1168.38 1272.93 1169.74 1272.71 Q1168.41 1271.87 1166.45 1271.87 Q1165.16 1271.87 1164.03 1272.55 Q1162.94 1273.22 1162.26 1274.09 Q1161.62 1274.96 1161.04 1276.22 Q1160.49 1277.44 1160.27 1278.18 Q1160.07 1278.89 1159.91 1279.67 L1157.66 1288.68 Q1156.56 1292.97 1156.56 1294.48 Q1156.56 1296.35 1157.46 1297.6 Q1158.37 1298.83 1160.17 1298.83 Q1160.88 1298.83 1161.68 1298.64 Q1162.49 1298.41 1163.52 1297.83 Q1164.58 1297.22 1165.52 1296.32 Q1166.48 1295.38 1167.42 1293.8 Q1168.35 1292.23 1168.96 1290.2 Q1169.16 1289.49 1169.8 1289.49 Q1170.6 1289.49 1170.6 1290.13 Q1170.6 1290.68 1170.15 1291.84 Q1169.74 1292.97 1168.8 1294.45 Q1167.9 1295.9 1166.71 1297.22 Q1165.52 1298.51 1163.75 1299.41 Q1161.97 1300.31 1160.04 1300.31 Q1157.27 1300.31 1155.44 1298.83 Q1153.6 1297.35 1152.92 1295.29 Q1152.76 1295.58 1152.54 1295.96 Q1152.31 1296.35 1151.64 1297.22 Q1150.99 1298.06 1150.25 1298.7 Q1149.51 1299.31 1148.35 1299.79 Q1147.22 1300.31 1146 1300.31 Q1144.45 1300.31 1143.07 1299.86 Q1141.72 1299.41 1140.75 1298.38 Q1139.78 1297.35 1139.78 1295.93 Q1139.78 1294.35 1140.85 1293.26 Q1141.94 1292.13 1143.42 1292.13 Q1144.36 1292.13 1145.1 1292.68 Q1145.87 1293.22 1145.87 1294.42 Q1145.87 1295.74 1144.97 1296.73 Q1144.07 1297.73 1142.78 1297.99 Q1144.1 1298.83 1146.06 1298.83 Q1148.19 1298.83 1149.86 1296.96 Q1151.54 1295.09 1152.34 1291.97 Q1154.34 1284.46 1155.11 1281.12 Q1155.89 1277.73 1155.89 1276.28 Q1155.89 1274.93 1155.53 1274 Q1155.18 1273.06 1154.57 1272.64 Q1153.99 1272.19 1153.44 1272.03 Q1152.92 1271.87 1152.34 1271.87 Q1151.38 1271.87 1150.28 1272.26 Q1149.22 1272.64 1147.93 1273.55 Q1146.68 1274.42 1145.48 1276.22 Q1144.29 1278.02 1143.49 1280.5 Q1143.33 1281.24 1142.62 1281.24 Q1141.85 1281.21 1141.85 1280.57 Q1141.85 1280.02 1142.26 1278.89 Q1142.71 1277.73 1143.62 1276.28 Q1144.55 1274.83 1145.74 1273.55 Q1146.97 1272.23 1148.74 1271.32 Q1150.54 1270.42 1152.47 1270.42 Q1153.34 1270.42 1154.18 1270.62 Q1155.05 1270.78 1156.08 1271.26 Q1157.14 1271.74 1158.08 1272.81 Q1159.01 1273.87 1159.59 1275.41 Q1159.98 1274.67 1160.49 1273.97 Q1161.04 1273.26 1161.88 1272.39 Q1162.75 1271.49 1163.94 1270.97 Q1165.16 1270.42 1166.51 1270.42 Q1167.84 1270.42 1169.12 1270.78 Q1170.41 1271.1 1171.51 1272.16 Q1172.63 1273.19 1172.63 1274.77 Z" fill="#000000" fill-rule="nonzero" fill-opacity="1" /><polyline clip-path="url(#clip930)" style="stroke:#000000; stroke-linecap:round; stroke-linejoin:round; stroke-width:4; stroke-opacity:1; fill:none" points="595.347,1173.47 595.347,47.2441 "/>
<polyline clip-path="url(#clip930)" style="stroke:#000000; stroke-linecap:round; stroke-linejoin:round; stroke-width:4; stroke-opacity:1; fill:none" points="595.347,1173.47 607.088,1173.47 "/>
<polyline clip-path="url(#clip930)" style="stroke:#000000; stroke-linecap:round; stroke-linejoin:round; stroke-width:4; stroke-opacity:1; fill:none" points="595.347,891.914 607.088,891.914 "/>
<polyline clip-path="url(#clip930)" style="stroke:#000000; stroke-linecap:round; stroke-linejoin:round; stroke-width:4; stroke-opacity:1; fill:none" points="595.347,610.357 607.088,610.357 "/>
<polyline clip-path="url(#clip930)" style="stroke:#000000; stroke-linecap:round; stroke-linejoin:round; stroke-width:4; stroke-opacity:1; fill:none" points="595.347,328.801 607.088,328.801 "/>
<polyline clip-path="url(#clip930)" style="stroke:#000000; stroke-linecap:round; stroke-linejoin:round; stroke-width:4; stroke-opacity:1; fill:none" points="595.347,47.2441 607.088,47.2441 "/>
<path clip-path="url(#clip930)" d="M456.723 1173.92 L486.399 1173.92 L486.399 1177.86 L456.723 1177.86 L456.723 1173.92 Z" fill="#000000" fill-rule="nonzero" fill-opacity="1" /><path clip-path="url(#clip930)" d="M496.537 1156.19 L514.894 1156.19 L514.894 1160.13 L500.82 1160.13 L500.82 1168.6 Q501.838 1168.25 502.857 1168.09 Q503.875 1167.9 504.894 1167.9 Q510.681 1167.9 514.06 1171.07 Q517.44 1174.25 517.44 1179.66 Q517.44 1185.24 513.968 1188.34 Q510.496 1191.42 504.176 1191.42 Q502 1191.42 499.732 1191.05 Q497.486 1190.68 495.079 1189.94 L495.079 1185.24 Q497.162 1186.38 499.385 1186.93 Q501.607 1187.49 504.084 1187.49 Q508.088 1187.49 510.426 1185.38 Q512.764 1183.27 512.764 1179.66 Q512.764 1176.05 510.426 1173.95 Q508.088 1171.84 504.084 1171.84 Q502.209 1171.84 500.334 1172.26 Q498.482 1172.67 496.537 1173.55 L496.537 1156.19 Z" fill="#000000" fill-rule="nonzero" fill-opacity="1" /><path clip-path="url(#clip930)" d="M526.653 1184.87 L531.537 1184.87 L531.537 1190.75 L526.653 1190.75 L526.653 1184.87 Z" fill="#000000" fill-rule="nonzero" fill-opacity="1" /><path clip-path="url(#clip930)" d="M551.722 1159.27 Q548.111 1159.27 546.282 1162.83 Q544.477 1166.38 544.477 1173.51 Q544.477 1180.61 546.282 1184.18 Q548.111 1187.72 551.722 1187.72 Q555.356 1187.72 557.162 1184.18 Q558.991 1180.61 558.991 1173.51 Q558.991 1166.38 557.162 1162.83 Q555.356 1159.27 551.722 1159.27 M551.722 1155.57 Q557.532 1155.57 560.588 1160.17 Q563.667 1164.76 563.667 1173.51 Q563.667 1182.23 560.588 1186.84 Q557.532 1191.42 551.722 1191.42 Q545.912 1191.42 542.833 1186.84 Q539.778 1182.23 539.778 1173.51 Q539.778 1164.76 542.833 1160.17 Q545.912 1155.57 551.722 1155.57 Z" fill="#000000" fill-rule="nonzero" fill-opacity="1" /><path clip-path="url(#clip930)" d="M457.718 892.365 L487.394 892.365 L487.394 896.301 L457.718 896.301 L457.718 892.365 Z" fill="#000000" fill-rule="nonzero" fill-opacity="1" /><path clip-path="url(#clip930)" d="M501.514 905.259 L517.834 905.259 L517.834 909.194 L495.889 909.194 L495.889 905.259 Q498.551 902.504 503.135 897.875 Q507.741 893.222 508.922 891.879 Q511.167 889.356 512.047 887.62 Q512.949 885.861 512.949 884.171 Q512.949 881.416 511.005 879.68 Q509.084 877.944 505.982 877.944 Q503.783 877.944 501.329 878.708 Q498.898 879.472 496.121 881.023 L496.121 876.301 Q498.945 875.166 501.398 874.588 Q503.852 874.009 505.889 874.009 Q511.26 874.009 514.454 876.694 Q517.648 879.379 517.648 883.87 Q517.648 886 516.838 887.921 Q516.051 889.819 513.945 892.412 Q513.366 893.083 510.264 896.301 Q507.162 899.495 501.514 905.259 Z" fill="#000000" fill-rule="nonzero" fill-opacity="1" /><path clip-path="url(#clip930)" d="M527.648 903.314 L532.533 903.314 L532.533 909.194 L527.648 909.194 L527.648 903.314 Z" fill="#000000" fill-rule="nonzero" fill-opacity="1" /><path clip-path="url(#clip930)" d="M542.764 874.634 L561.12 874.634 L561.12 878.569 L547.046 878.569 L547.046 887.041 Q548.065 886.694 549.083 886.532 Q550.102 886.347 551.12 886.347 Q556.907 886.347 560.287 889.518 Q563.667 892.69 563.667 898.106 Q563.667 903.685 560.194 906.787 Q556.722 909.865 550.403 909.865 Q548.227 909.865 545.958 909.495 Q543.713 909.125 541.306 908.384 L541.306 903.685 Q543.389 904.819 545.611 905.375 Q547.833 905.93 550.31 905.93 Q554.315 905.93 556.653 903.824 Q558.991 901.717 558.991 898.106 Q558.991 894.495 556.653 892.389 Q554.315 890.282 550.31 890.282 Q548.435 890.282 546.56 890.699 Q544.708 891.115 542.764 891.995 L542.764 874.634 Z" fill="#000000" fill-rule="nonzero" fill-opacity="1" /><path clip-path="url(#clip930)" d="M506.491 596.156 Q502.88 596.156 501.051 599.721 Q499.246 603.263 499.246 610.392 Q499.246 617.499 501.051 621.063 Q502.88 624.605 506.491 624.605 Q510.125 624.605 511.931 621.063 Q513.759 617.499 513.759 610.392 Q513.759 603.263 511.931 599.721 Q510.125 596.156 506.491 596.156 M506.491 592.452 Q512.301 592.452 515.357 597.059 Q518.435 601.642 518.435 610.392 Q518.435 619.119 515.357 623.725 Q512.301 628.309 506.491 628.309 Q500.681 628.309 497.602 623.725 Q494.547 619.119 494.547 610.392 Q494.547 601.642 497.602 597.059 Q500.681 592.452 506.491 592.452 Z" fill="#000000" fill-rule="nonzero" fill-opacity="1" /><path clip-path="url(#clip930)" d="M526.653 621.758 L531.537 621.758 L531.537 627.637 L526.653 627.637 L526.653 621.758 Z" fill="#000000" fill-rule="nonzero" fill-opacity="1" /><path clip-path="url(#clip930)" d="M551.722 596.156 Q548.111 596.156 546.282 599.721 Q544.477 603.263 544.477 610.392 Q544.477 617.499 546.282 621.063 Q548.111 624.605 551.722 624.605 Q555.356 624.605 557.162 621.063 Q558.991 617.499 558.991 610.392 Q558.991 603.263 557.162 599.721 Q555.356 596.156 551.722 596.156 M551.722 592.452 Q557.532 592.452 560.588 597.059 Q563.667 601.642 563.667 610.392 Q563.667 619.119 560.588 623.725 Q557.532 628.309 551.722 628.309 Q545.912 628.309 542.833 623.725 Q539.778 619.119 539.778 610.392 Q539.778 601.642 542.833 597.059 Q545.912 592.452 551.722 592.452 Z" fill="#000000" fill-rule="nonzero" fill-opacity="1" /><path clip-path="url(#clip930)" d="M501.514 342.146 L517.834 342.146 L517.834 346.081 L495.889 346.081 L495.889 342.146 Q498.551 339.391 503.135 334.761 Q507.741 330.109 508.922 328.766 Q511.167 326.243 512.047 324.507 Q512.949 322.748 512.949 321.058 Q512.949 318.303 511.005 316.567 Q509.084 314.831 505.982 314.831 Q503.783 314.831 501.329 315.595 Q498.898 316.359 496.121 317.91 L496.121 313.187 Q498.945 312.053 501.398 311.474 Q503.852 310.896 505.889 310.896 Q511.26 310.896 514.454 313.581 Q517.648 316.266 517.648 320.757 Q517.648 322.886 516.838 324.808 Q516.051 326.706 513.945 329.298 Q513.366 329.97 510.264 333.187 Q507.162 336.382 501.514 342.146 Z" fill="#000000" fill-rule="nonzero" fill-opacity="1" /><path clip-path="url(#clip930)" d="M527.648 340.201 L532.533 340.201 L532.533 346.081 L527.648 346.081 L527.648 340.201 Z" fill="#000000" fill-rule="nonzero" fill-opacity="1" /><path clip-path="url(#clip930)" d="M542.764 311.521 L561.12 311.521 L561.12 315.456 L547.046 315.456 L547.046 323.928 Q548.065 323.581 549.083 323.419 Q550.102 323.234 551.12 323.234 Q556.907 323.234 560.287 326.405 Q563.667 329.576 563.667 334.993 Q563.667 340.572 560.194 343.673 Q556.722 346.752 550.403 346.752 Q548.227 346.752 545.958 346.382 Q543.713 346.011 541.306 345.271 L541.306 340.572 Q543.389 341.706 545.611 342.261 Q547.833 342.817 550.31 342.817 Q554.315 342.817 556.653 340.71 Q558.991 338.604 558.991 334.993 Q558.991 331.382 556.653 329.275 Q554.315 327.169 550.31 327.169 Q548.435 327.169 546.56 327.585 Q544.708 328.002 542.764 328.882 L542.764 311.521 Z" fill="#000000" fill-rule="nonzero" fill-opacity="1" /><path clip-path="url(#clip930)" d="M496.537 29.9641 L514.894 29.9641 L514.894 33.8993 L500.82 33.8993 L500.82 42.3714 Q501.838 42.0242 502.857 41.8622 Q503.875 41.677 504.894 41.677 Q510.681 41.677 514.06 44.8483 Q517.44 48.0196 517.44 53.4362 Q517.44 59.0149 513.968 62.1167 Q510.496 65.1954 504.176 65.1954 Q502 65.1954 499.732 64.825 Q497.486 64.4547 495.079 63.7139 L495.079 59.0149 Q497.162 60.1491 499.385 60.7047 Q501.607 61.2602 504.084 61.2602 Q508.088 61.2602 510.426 59.1538 Q512.764 57.0473 512.764 53.4362 Q512.764 49.8251 510.426 47.7186 Q508.088 45.6122 504.084 45.6122 Q502.209 45.6122 500.334 46.0288 Q498.482 46.4455 496.537 47.3251 L496.537 29.9641 Z" fill="#000000" fill-rule="nonzero" fill-opacity="1" /><path clip-path="url(#clip930)" d="M526.653 58.6445 L531.537 58.6445 L531.537 64.5241 L526.653 64.5241 L526.653 58.6445 Z" fill="#000000" fill-rule="nonzero" fill-opacity="1" /><path clip-path="url(#clip930)" d="M551.722 33.0428 Q548.111 33.0428 546.282 36.6076 Q544.477 40.1492 544.477 47.2788 Q544.477 54.3853 546.282 57.9501 Q548.111 61.4917 551.722 61.4917 Q555.356 61.4917 557.162 57.9501 Q558.991 54.3853 558.991 47.2788 Q558.991 40.1492 557.162 36.6076 Q555.356 33.0428 551.722 33.0428 M551.722 29.3391 Q557.532 29.3391 560.588 33.9456 Q563.667 38.5289 563.667 47.2788 Q563.667 56.0056 560.588 60.6121 Q557.532 65.1954 551.722 65.1954 Q545.912 65.1954 542.833 60.6121 Q539.778 56.0056 539.778 47.2788 Q539.778 38.5289 542.833 33.9456 Q545.912 29.3391 551.722 29.3391 Z" fill="#000000" fill-rule="nonzero" fill-opacity="1" /><path clip-path="url(#clip930)" d="M377.631 595.92 Q378.082 595.92 379.145 596.209 L404.33 602.522 Q409.933 603.907 413.862 608.415 Q417.792 612.892 417.792 617.981 Q417.792 621.04 416.149 623.005 Q414.539 624.969 412.059 624.969 Q409.869 624.969 408.806 623.81 Q407.776 622.65 407.776 621.266 Q407.776 620.815 407.904 620.332 Q408.033 619.848 408.581 619.333 Q409.128 618.818 410.062 618.818 Q411.576 618.818 412.767 620.138 Q413.315 620.782 413.444 621.394 Q413.573 621.974 413.573 622.972 Q414.474 622.586 415.086 621.877 Q415.698 621.169 415.924 620.364 Q416.181 619.559 416.246 619.043 Q416.342 618.496 416.342 617.981 Q416.342 613.858 412.188 610.702 Q410.932 609.768 409.676 609.092 Q408.452 608.383 406.938 607.868 Q405.457 607.353 404.652 607.127 Q403.846 606.87 402.011 606.419 Q405.006 609.414 405.006 613.085 Q405.006 614.631 404.587 616.016 Q404.169 617.369 403.299 618.56 Q402.397 619.752 400.819 620.46 Q399.241 621.137 397.148 621.137 Q394.925 621.137 391.898 620.267 Q388.871 619.398 383.299 617.304 Q380.175 616.177 378.661 616.177 Q377.921 616.177 377.47 616.338 Q376.987 616.499 376.826 616.821 Q376.633 617.143 376.6 617.336 Q376.568 617.497 376.568 617.82 Q376.568 619.72 378.5 621.491 Q380.433 623.262 384.748 624.486 Q385.554 624.744 385.747 624.905 Q385.94 625.066 385.94 625.549 Q385.908 626.354 385.264 626.354 Q385.006 626.354 384.008 626.064 Q382.977 625.774 381.463 625.098 Q379.918 624.39 378.533 623.423 Q377.116 622.457 376.117 620.943 Q375.119 619.398 375.119 617.626 Q375.119 615.211 376.697 613.729 Q378.243 612.216 380.529 612.216 Q381.463 612.216 382.301 612.473 Q383.106 612.699 385.264 613.536 Q393.959 616.918 398.21 616.918 Q399.241 616.918 400.111 616.757 Q400.948 616.563 401.785 616.145 Q402.59 615.726 403.074 614.889 Q403.524 614.019 403.524 612.828 Q403.524 611.314 402.816 609.897 Q402.075 608.448 401.077 607.546 Q400.078 606.612 399.241 606.064 Q398.371 605.485 397.921 605.356 L386.069 602.393 L380.787 601.072 Q377.921 600.461 377.212 600.171 Q376.536 599.784 376.182 599.108 Q375.827 598.432 375.827 597.852 Q375.827 597.047 376.31 596.499 Q376.794 595.92 377.631 595.92 Z" fill="#000000" fill-rule="nonzero" fill-opacity="1" /><polyline clip-path="url(#clip932)" style="stroke:#1e90ff; stroke-linecap:round; stroke-linejoin:round; stroke-width:4; stroke-opacity:1; fill:none" points="607.629,47.2441 609.46,49.0022 610.58,50.0667 612.282,51.7011 613.533,52.8893 615.105,54.3982 616.488,55.712 617.928,57.0933 619.445,58.5346 620.75,59.7865 622.405,61.3572 623.573,62.4777 625.366,64.1798 626.395,65.1669 628.33,67.0025 629.218,67.8539 631.296,69.8251 632.041,70.5389 634.264,72.6477 634.863,73.2217 637.235,75.4703 637.686,75.9022 640.208,78.2929 640.509,78.5805 643.184,81.1156 643.331,81.2565 646.154,83.9302 646.162,83.9382 648.976,86.603 649.145,86.7608 651.799,89.2734 652.13,89.5834 654.622,91.9413 655.118,92.4061 657.444,94.6067 658.109,95.2287 660.267,97.2695 661.103,98.0513 663.09,99.9297 664.1,100.874 665.912,102.587 667.099,103.697 668.735,105.242 670.102,106.519 671.557,107.894 673.108,109.342 674.38,110.543 676.118,112.164 677.203,113.189 679.13,114.987 680.025,115.832 682.146,117.81 682.848,118.472 685.166,120.632 685.671,121.109 688.189,123.455 688.493,123.742 691.215,126.278 691.316,126.372 694.138,129 694.247,129.1 696.961,131.626 697.284,131.923 699.784,134.248 700.325,134.745 702.606,136.867 703.37,137.568 705.429,139.482 706.419,140.391 708.252,142.093 709.472,143.213 711.074,144.701 712.53,146.036 713.897,147.304 715.593,148.859 716.719,149.904 718.66,151.681 719.542,152.499 721.732,154.504 722.365,155.09 724.809,157.326 725.187,157.677 727.89,160.149 728.01,160.26 730.833,162.839 730.979,162.972 733.655,165.416 734.075,165.794 736.478,167.987 737.177,168.617 739.3,170.554 740.284,171.44 742.123,173.116 743.397,174.262 744.946,175.673 746.516,177.085 747.768,178.225 749.642,179.907 750.591,180.771 752.773,182.73 753.414,183.312 755.912,185.553 756.236,185.848 759.057,188.375 759.059,188.377 761.881,190.905 762.213,191.198 764.704,193.427 765.377,194.021 767.527,195.942 768.549,196.843 770.349,198.452 771.728,199.666 773.172,200.955 774.915,202.488 775.995,203.451 778.111,205.311 778.817,205.94 781.315,208.134 781.64,208.423 784.462,210.899 784.529,210.956 787.285,213.372 787.756,213.779 790.108,215.838 790.994,216.601 792.93,218.296 794.241,219.424 795.753,220.746 797.498,222.247 798.576,223.188 800.765,225.069 801.398,225.621 804.044,227.892 804.221,228.046 807.043,230.466 807.338,230.715 809.866,232.88 810.647,233.537 812.689,235.284 813.968,236.36 815.511,237.679 817.301,239.182 818.334,240.064 820.648,242.005 821.156,242.439 823.979,244.804 824.008,244.828 826.802,247.165 827.391,247.65 829.624,249.516 830.79,250.473 832.447,251.856 834.203,253.296 835.27,254.184 837.632,256.118 838.092,256.501 840.915,258.807 841.081,258.941 843.737,261.108 844.556,261.763 846.56,263.396 848.048,264.586 849.383,265.671 851.56,267.409 852.205,267.933 855.028,270.181 855.092,270.231 857.851,272.425 858.657,273.054 860.673,274.654 862.244,275.877 863.496,276.868 865.853,278.699 866.318,279.067 869.141,281.254 869.493,281.522 871.964,283.432 873.167,284.344 874.786,285.593 876.868,287.167 877.609,287.737 880.432,289.866 880.599,289.99 883.254,291.987 884.374,292.812 886.077,294.089 888.18,295.635 888.899,296.173 891.722,298.24 892.025,298.458 894.545,300.298 895.919,301.28 897.367,302.334 899.85,304.103 900.19,304.35 903.013,306.353 903.836,306.925 905.835,308.34 907.871,309.748 908.658,310.303 911.48,312.248 911.959,312.571 914.303,314.18 916.112,315.393 917.126,316.087 919.948,317.972 920.322,318.216 922.771,319.845 924.609,321.039 925.594,321.69 928.416,323.514 928.966,323.861 931.239,325.323 933.408,326.684 934.061,327.102 936.884,328.864 937.94,329.506 939.707,330.603 942.529,332.31 942.561,332.329 945.352,334.008 947.305,335.152 948.175,335.671 950.997,337.314 952.163,337.974 953.82,338.932 956.642,340.52 957.149,340.797 959.465,342.091 962.281,343.62 962.288,343.623 965.11,345.144 967.59,346.442 967.933,346.625 970.756,348.09 973.087,349.265 973.578,349.517 976.401,350.926 978.8,352.087 979.223,352.297 982.046,353.65 984.761,354.91 984.869,354.961 987.691,356.258 990.514,357.512 991.027,357.733 993.337,358.748 996.159,359.947 997.643,360.555 998.982,361.117 1001.8,362.26 1004.63,363.363 1004.67,363.378 1007.45,364.45 1010.27,365.497 1012.24,366.201 1013.09,366.513 1015.92,367.505 1018.74,368.46 1020.48,369.023 1021.56,369.384 1024.39,370.284 1027.21,371.147 1029.59,371.846 1030.03,371.977 1032.85,372.787 1035.68,373.562 1038.5,374.301 1039.97,374.668 1041.32,375.015 1044.14,375.704 1046.97,376.36 1049.79,376.983 1052.21,377.491 1052.61,377.577 1055.43,378.151 1058.26,378.695 1061.08,379.21 1063.9,379.695 1066.72,380.152 1067.79,380.314 1069.55,380.589 1072.37,381.002 1075.19,381.389 1078.02,381.751 1080.84,382.089 1083.66,382.402 1086.48,382.693 1089.31,382.962 1091.29,383.136 1092.13,383.212 1094.95,383.445 1097.77,383.658 1100.6,383.853 1103.42,384.029 1106.24,384.189 1109.06,384.332 1111.89,384.459 1114.71,384.572 1117.53,384.671 1120.35,384.758 1123.18,384.832 1126,384.896 1128.82,384.949 1131.65,384.993 1134.47,385.029 1137.29,385.057 1140.11,385.079 1142.94,385.095 1145.76,385.106 1148.58,385.113 1151.4,385.117 1154.23,385.119 1157.05,385.119 1159.87,385.12 1162.69,385.12 1165.52,385.122 1168.34,385.126 1171.16,385.133 1173.98,385.144 1176.81,385.16 1179.63,385.182 1182.45,385.21 1185.27,385.246 1188.1,385.29 1190.92,385.343 1193.74,385.407 1196.57,385.481 1199.39,385.568 1202.21,385.667 1205.03,385.78 1207.86,385.907 1208.87,385.959 1210.68,386.053 1213.5,386.216 1216.32,386.397 1219.15,386.596 1221.97,386.815 1224.79,387.055 1227.61,387.315 1230.44,387.598 1233.26,387.904 1236.08,388.233 1238.9,388.588 1240.34,388.782 1241.73,388.973 1244.55,389.391 1247.37,389.837 1250.2,390.312 1253.02,390.817 1255.84,391.353 1257.09,391.604 1258.66,391.93 1261.49,392.547 1264.31,393.199 1267.13,393.886 1269.24,394.427 1269.95,394.615 1272.78,395.397 1275.6,396.219 1278.42,397.081 1278.95,397.249 1281.24,398.004 1284.07,398.976 1286.89,399.992 1287.1,400.072 1289.71,401.08 1292.53,402.219 1294.14,402.895 1295.36,403.421 1298.18,404.693 1300.36,405.717 1301,406.025 1303.83,407.441 1305.93,408.54 1306.65,408.924 1309.47,410.497 1310.97,411.362 1312.29,412.152 1315.12,413.895 1315.57,414.185 1317.94,415.745 1319.79,417.008 1320.76,417.691 1323.58,419.745 1323.7,419.83 1326.41,421.931 1327.31,422.653 1329.23,424.242 1330.67,425.476 1332.05,426.689 1333.82,428.298 1334.87,429.288 1336.77,431.121 1337.7,432.052 1339.53,433.943 1340.52,434.998 1342.13,436.766 1343.34,438.144 1344.58,439.589 1346.16,441.511 1346.89,442.411 1348.99,445.12 1349.07,445.234 1351.13,448.057 1351.81,449.029 1353.07,450.879 1354.63,453.248 1354.92,453.702 1356.67,456.524 1357.45,457.851 1358.32,459.347 1359.89,462.17 1360.28,462.886 1361.38,464.992 1362.79,467.815 1363.1,468.453 1364.12,470.638 1365.4,473.46 1365.92,474.677 1366.6,476.283 1367.74,479.105 1368.75,481.715 1368.83,481.928 1369.84,484.751 1370.81,487.573 1371.57,489.869 1371.74,490.396 1372.6,493.219 1373.42,496.041 1374.2,498.864 1374.39,499.58 1374.93,501.686 1375.62,504.509 1376.27,507.332 1376.89,510.154 1377.21,511.732 1377.46,512.977 1378,515.8 1378.51,518.622 1378.98,521.445 1379.43,524.267 1379.84,527.09 1380.04,528.476 1380.23,529.913 1380.58,532.735 1380.91,535.558 1381.22,538.381 1381.5,541.203 1381.76,544.026 1382,546.848 1382.22,549.671 1382.42,552.494 1382.6,555.316 1382.76,558.139 1382.86,559.944 1382.91,560.962 1383.04,563.784 1383.15,566.607 1383.25,569.429 1383.34,572.252 1383.41,575.075 1383.47,577.897 1383.53,580.72 1383.57,583.543 1383.61,586.365 1383.64,589.188 1383.66,592.01 1383.67,594.833 1383.68,597.656 1383.69,600.478 1383.7,603.301 1383.7,606.123 1383.7,608.946 1383.7,611.769 1383.7,614.591 1383.7,617.414 1383.7,620.237 1383.71,623.059 1383.72,625.882 1383.74,628.704 1383.76,631.527 1383.79,634.35 1383.82,637.172 1383.87,639.995 1383.92,642.818 1383.99,645.64 1384.06,648.463 1384.15,651.285 1384.25,654.108 1384.36,656.931 1384.49,659.753 1384.63,662.576 1384.79,665.399 1384.96,668.221 1385.16,671.044 1385.37,673.866 1385.61,676.689 1385.68,677.526 1385.86,679.512 1386.12,682.334 1386.42,685.157 1386.73,687.98 1387.07,690.802 1387.43,693.625 1387.82,696.447 1388.23,699.27 1388.5,701.032 1388.67,702.093 1389.12,704.915 1389.61,707.738 1390.12,710.561 1390.67,713.383 1391.24,716.206 1391.33,716.604 1391.83,719.028 1392.46,721.851 1393.11,724.674 1393.8,727.496 1394.15,728.851 1394.52,730.319 1395.26,733.142 1396.03,735.964 1396.84,738.787 1396.97,739.225 1397.67,741.609 1398.53,744.432 1399.43,747.255 1399.79,748.341 1400.36,750.077 1401.31,752.9 1402.3,755.723 1402.62,756.576 1403.32,758.545 1404.37,761.368 1405.44,764.15 1405.45,764.19 1406.56,767.013 1407.7,769.836 1408.26,771.174 1408.87,772.658 1410.07,775.481 1411.08,777.791 1411.31,778.304 1412.56,781.126 1413.86,783.949 1413.91,784.056 1415.17,786.771 1416.52,789.594 1416.73,790.017 1417.89,792.417 1419.3,795.239 1419.55,795.73 1420.73,798.062 1422.19,800.884 1422.38,801.227 1423.67,803.707 1425.19,806.53 1425.2,806.537 1426.73,809.352 1428.02,811.669 1428.3,812.175 1429.89,814.998 1430.84,816.654 1431.5,817.82 1433.15,820.643 1433.67,821.512 1434.81,823.465 1436.49,826.256 1436.51,826.288 1438.21,829.111 1439.31,830.877 1439.95,831.933 1441.72,834.756 1442.13,835.41 1443.49,837.579 1444.96,839.851 1445.3,840.401 1447.13,843.224 1447.78,844.208 1448.97,846.046 1450.6,848.495 1450.85,848.869 1452.73,851.692 1453.42,852.706 1454.64,854.514 1456.25,856.858 1456.57,857.337 1458.51,860.16 1459.07,860.947 1460.48,862.982 1461.89,864.981 1462.46,865.805 1464.47,868.627 1464.71,868.967 1466.48,871.45 1467.54,872.898 1468.52,874.273 1470.36,876.792 1470.58,877.095 1472.64,879.918 1473.18,880.637 1474.73,882.741 1476.01,884.443 1476.83,885.563 1478.83,888.219 1478.95,888.386 1481.08,891.208 1481.65,891.95 1483.22,894.031 1484.47,895.65 1485.39,896.854 1487.3,899.324 1487.56,899.676 1489.75,902.499 1490.12,902.964 1491.95,905.322 1492.94,906.574 1494.16,908.144 1495.76,910.16 1496.39,910.967 1498.59,913.726 1498.64,913.789 1500.88,916.612 1501.41,917.258 1503.15,919.435 1504.23,920.769 1505.42,922.257 1507.05,924.262 1507.71,925.08 1509.88,927.736 1510.01,927.903 1512.32,930.725 1512.7,931.185 1514.63,933.548 1515.52,934.614 1516.96,936.37 1518.34,938.028 1519.3,939.193 1521.17,941.426 1521.65,942.016 1523.99,944.809 1524.01,944.838 1526.38,947.661 1526.81,948.17 1528.75,950.484 1529.63,951.516 1531.14,953.306 1532.46,954.85 1533.53,956.129 1535.28,958.171 1535.94,958.951 1538.1,961.48 1538.35,961.774 1540.77,964.597 1540.93,964.774 1543.2,967.419 1543.75,968.052 1545.63,970.242 1546.57,971.32 1548.07,973.065 1549.39,974.577 1550.52,975.887 1552.22,977.824 1552.98,978.71 1555.04,981.061 1555.45,981.532 1557.86,984.289 1557.92,984.355 1560.39,987.178 1560.68,987.503 1562.88,990 1563.51,990.706 1565.37,992.823 1566.33,993.902 1567.86,995.645 1569.15,997.089 1570.37,998.468 1571.97,1000.27 1572.88,1001.29 1574.8,1003.44 1575.39,1004.11 1577.62,1006.6 1577.91,1006.94 1580.44,1009.76 1580.44,1009.76 1582.97,1012.58 1583.26,1012.91 1585.51,1015.4 1586.09,1016.04 1588.05,1018.23 1588.91,1019.18 1590.59,1021.05 1591.73,1022.3 1593.14,1023.87 1594.56,1025.42 1595.7,1026.69 1597.38,1028.53 1598.26,1029.52 1600.2,1031.64 1600.83,1032.34 1603.02,1034.74 1603.4,1035.16 1605.85,1037.84 1605.98,1037.98 1608.56,1040.81 1608.67,1040.93 1611.14,1043.63 1611.49,1044.01 1613.73,1046.45 1614.31,1047.09 1616.32,1049.28 1617.14,1050.16 1618.91,1052.1 1619.96,1053.22 1621.51,1054.92 1622.78,1056.29 1624.12,1057.74 1625.6,1059.35 1626.72,1060.57 1628.43,1062.4 1629.34,1063.39 1631.25,1065.45 1631.95,1066.21 1634.07,1068.49 1634.57,1069.03 1636.89,1071.53 1637.19,1071.86 1639.72,1074.57 1639.82,1074.68 1642.45,1077.5 1642.54,1077.6 1645.08,1080.32 1645.36,1080.63 1647.71,1083.15 1648.19,1083.65 1650.35,1085.97 1651.01,1086.67 1652.99,1088.79 1653.83,1089.69 1655.63,1091.61 1656.65,1092.7 1658.27,1094.44 1659.48,1095.71 1660.92,1097.26 1662.3,1098.72 1663.58,1100.08 1665.12,1101.72 1666.23,1102.91 1667.94,1104.72 1668.89,1105.73 1670.77,1107.71 1671.55,1108.55 1673.59,1110.71 1674.21,1111.37 1676.41,1113.7 1676.88,1114.2 1679.23,1116.69 1679.54,1117.02 1682.06,1119.67 1682.21,1119.84 1684.88,1122.65 1684.89,1122.66 1687.56,1125.49 1687.7,1125.63 1690.24,1128.31 1690.52,1128.61 1692.92,1131.13 1693.35,1131.58 1695.6,1133.95 1696.17,1134.55 1698.28,1136.78 1698.99,1137.52 1700.96,1139.6 1701.81,1140.49 1703.65,1142.42 1704.64,1143.45 1706.34,1145.24 1707.46,1146.41 1709.03,1148.07 1710.28,1149.37 1711.72,1150.89 1713.11,1152.33 1714.42,1153.71 1715.93,1155.28 1717.12,1156.54 1718.75,1158.24 1719.82,1159.36 1721.57,1161.19 "/>
</svg>
