<?xml version="1.0" encoding="utf-8"?>
<svg xmlns="http://www.w3.org/2000/svg" xmlns:xlink="http://www.w3.org/1999/xlink" width="528" height="336" viewBox="0 0 2112 1344">
<defs>
  <clipPath id="clip870">
    <rect x="0" y="0" width="2112" height="1344"/>
  </clipPath>
</defs>
<path clip-path="url(#clip870)" d="M0 1344 L2112 1344 L2112 0 L0 0  Z" fill="#ffffff" fill-rule="evenodd" fill-opacity="1"/>
<defs>
  <clipPath id="clip871">
    <rect x="422" y="0" width="1479" height="1344"/>
  </clipPath>
</defs>
<path clip-path="url(#clip870)" d="M214.34 1173.47 L1853.56 1173.47 L1853.56 47.2441 L214.34 47.2441  Z" fill="#ffffff" fill-rule="evenodd" fill-opacity="1"/>
<defs>
  <clipPath id="clip872">
    <rect x="214" y="47" width="1640" height="1127"/>
  </clipPath>
</defs>
<polyline clip-path="url(#clip872)" style="stroke:#000000; stroke-linecap:round; stroke-linejoin:round; stroke-width:2; stroke-opacity:0.1; fill:none" points="214.34,1173.47 214.34,47.2441 "/>
<polyline clip-path="url(#clip872)" style="stroke:#000000; stroke-linecap:round; stroke-linejoin:round; stroke-width:2; stroke-opacity:0.1; fill:none" points="624.144,1173.47 624.144,47.2441 "/>
<polyline clip-path="url(#clip872)" style="stroke:#000000; stroke-linecap:round; stroke-linejoin:round; stroke-width:2; stroke-opacity:0.1; fill:none" points="1033.95,1173.47 1033.95,47.2441 "/>
<polyline clip-path="url(#clip872)" style="stroke:#000000; stroke-linecap:round; stroke-linejoin:round; stroke-width:2; stroke-opacity:0.1; fill:none" points="1443.75,1173.47 1443.75,47.2441 "/>
<polyline clip-path="url(#clip872)" style="stroke:#000000; stroke-linecap:round; stroke-linejoin:round; stroke-width:2; stroke-opacity:0.1; fill:none" points="1853.56,1173.47 1853.56,47.2441 "/>
<polyline clip-path="url(#clip870)" style="stroke:#000000; stroke-linecap:round; stroke-linejoin:round; stroke-width:4; stroke-opacity:1; fill:none" points="214.34,1173.47 1853.56,1173.47 "/>
<polyline clip-path="url(#clip870)" style="stroke:#000000; stroke-linecap:round; stroke-linejoin:round; stroke-width:4; stroke-opacity:1; fill:none" points="214.34,1173.47 214.34,1154.57 "/>
<polyline clip-path="url(#clip870)" style="stroke:#000000; stroke-linecap:round; stroke-linejoin:round; stroke-width:4; stroke-opacity:1; fill:none" points="624.144,1173.47 624.144,1154.57 "/>
<polyline clip-path="url(#clip870)" style="stroke:#000000; stroke-linecap:round; stroke-linejoin:round; stroke-width:4; stroke-opacity:1; fill:none" points="1033.95,1173.47 1033.95,1154.57 "/>
<polyline clip-path="url(#clip870)" style="stroke:#000000; stroke-linecap:round; stroke-linejoin:round; stroke-width:4; stroke-opacity:1; fill:none" points="1443.75,1173.47 1443.75,1154.57 "/>
<polyline clip-path="url(#clip870)" style="stroke:#000000; stroke-linecap:round; stroke-linejoin:round; stroke-width:4; stroke-opacity:1; fill:none" points="1853.56,1173.47 1853.56,1154.57 "/>
<path clip-path="url(#clip870)" d="M191.725 1202.09 Q188.113 1202.09 186.285 1205.65 Q184.479 1209.19 184.479 1216.32 Q184.479 1223.43 186.285 1226.99 Q188.113 1230.53 191.725 1230.53 Q195.359 1230.53 197.164 1226.99 Q198.993 1223.43 198.993 1216.32 Q198.993 1209.19 197.164 1205.65 Q195.359 1202.09 191.725 1202.09 M191.725 1198.38 Q197.535 1198.38 200.59 1202.99 Q203.669 1207.57 203.669 1216.32 Q203.669 1225.05 200.59 1229.65 Q197.535 1234.24 191.725 1234.24 Q185.914 1234.24 182.836 1229.65 Q179.78 1225.05 179.78 1216.32 Q179.78 1207.57 182.836 1202.99 Q185.914 1198.38 191.725 1198.38 Z" fill="#000000" fill-rule="nonzero" fill-opacity="1" /><path clip-path="url(#clip870)" d="M211.886 1227.69 L216.771 1227.69 L216.771 1233.57 L211.886 1233.57 L211.886 1227.69 Z" fill="#000000" fill-rule="nonzero" fill-opacity="1" /><path clip-path="url(#clip870)" d="M236.956 1202.09 Q233.345 1202.09 231.516 1205.65 Q229.71 1209.19 229.71 1216.32 Q229.71 1223.43 231.516 1226.99 Q233.345 1230.53 236.956 1230.53 Q240.59 1230.53 242.396 1226.99 Q244.224 1223.43 244.224 1216.32 Q244.224 1209.19 242.396 1205.65 Q240.59 1202.09 236.956 1202.09 M236.956 1198.38 Q242.766 1198.38 245.821 1202.99 Q248.9 1207.57 248.9 1216.32 Q248.9 1225.05 245.821 1229.65 Q242.766 1234.24 236.956 1234.24 Q231.146 1234.24 228.067 1229.65 Q225.011 1225.05 225.011 1216.32 Q225.011 1207.57 228.067 1202.99 Q231.146 1198.38 236.956 1198.38 Z" fill="#000000" fill-rule="nonzero" fill-opacity="1" /><path clip-path="url(#clip870)" d="M602.026 1202.09 Q598.415 1202.09 596.586 1205.65 Q594.781 1209.19 594.781 1216.32 Q594.781 1223.43 596.586 1226.99 Q598.415 1230.53 602.026 1230.53 Q605.66 1230.53 607.466 1226.99 Q609.295 1223.43 609.295 1216.32 Q609.295 1209.19 607.466 1205.65 Q605.66 1202.09 602.026 1202.09 M602.026 1198.38 Q607.836 1198.38 610.892 1202.99 Q613.971 1207.57 613.971 1216.32 Q613.971 1225.05 610.892 1229.65 Q607.836 1234.24 602.026 1234.24 Q596.216 1234.24 593.137 1229.65 Q590.082 1225.05 590.082 1216.32 Q590.082 1207.57 593.137 1202.99 Q596.216 1198.38 602.026 1198.38 Z" fill="#000000" fill-rule="nonzero" fill-opacity="1" /><path clip-path="url(#clip870)" d="M622.188 1227.69 L627.072 1227.69 L627.072 1233.57 L622.188 1233.57 L622.188 1227.69 Z" fill="#000000" fill-rule="nonzero" fill-opacity="1" /><path clip-path="url(#clip870)" d="M637.304 1199.01 L655.66 1199.01 L655.66 1202.94 L641.586 1202.94 L641.586 1211.41 Q642.605 1211.07 643.623 1210.9 Q644.642 1210.72 645.66 1210.72 Q651.447 1210.72 654.827 1213.89 Q658.206 1217.06 658.206 1222.48 Q658.206 1228.06 654.734 1231.16 Q651.262 1234.24 644.943 1234.24 Q642.767 1234.24 640.498 1233.87 Q638.253 1233.5 635.845 1232.76 L635.845 1228.06 Q637.929 1229.19 640.151 1229.75 Q642.373 1230.3 644.85 1230.3 Q648.855 1230.3 651.193 1228.2 Q653.531 1226.09 653.531 1222.48 Q653.531 1218.87 651.193 1216.76 Q648.855 1214.65 644.85 1214.65 Q642.975 1214.65 641.1 1215.07 Q639.248 1215.49 637.304 1216.37 L637.304 1199.01 Z" fill="#000000" fill-rule="nonzero" fill-opacity="1" /><path clip-path="url(#clip870)" d="M1001.1 1229.63 L1008.74 1229.63 L1008.74 1203.27 L1000.43 1204.93 L1000.43 1200.67 L1008.69 1199.01 L1013.37 1199.01 L1013.37 1229.63 L1021.01 1229.63 L1021.01 1233.57 L1001.1 1233.57 L1001.1 1229.63 Z" fill="#000000" fill-rule="nonzero" fill-opacity="1" /><path clip-path="url(#clip870)" d="M1030.45 1227.69 L1035.34 1227.69 L1035.34 1233.57 L1030.45 1233.57 L1030.45 1227.69 Z" fill="#000000" fill-rule="nonzero" fill-opacity="1" /><path clip-path="url(#clip870)" d="M1055.52 1202.09 Q1051.91 1202.09 1050.08 1205.65 Q1048.28 1209.19 1048.28 1216.32 Q1048.28 1223.43 1050.08 1226.99 Q1051.91 1230.53 1055.52 1230.53 Q1059.16 1230.53 1060.96 1226.99 Q1062.79 1223.43 1062.79 1216.32 Q1062.79 1209.19 1060.96 1205.65 Q1059.16 1202.09 1055.52 1202.09 M1055.52 1198.38 Q1061.33 1198.38 1064.39 1202.99 Q1067.47 1207.57 1067.47 1216.32 Q1067.47 1225.05 1064.39 1229.65 Q1061.33 1234.24 1055.52 1234.24 Q1049.71 1234.24 1046.63 1229.65 Q1043.58 1225.05 1043.58 1216.32 Q1043.58 1207.57 1046.63 1202.99 Q1049.71 1198.38 1055.52 1198.38 Z" fill="#000000" fill-rule="nonzero" fill-opacity="1" /><path clip-path="url(#clip870)" d="M1411.4 1229.63 L1419.04 1229.63 L1419.04 1203.27 L1410.73 1204.93 L1410.73 1200.67 L1419 1199.01 L1423.67 1199.01 L1423.67 1229.63 L1431.31 1229.63 L1431.31 1233.57 L1411.4 1233.57 L1411.4 1229.63 Z" fill="#000000" fill-rule="nonzero" fill-opacity="1" /><path clip-path="url(#clip870)" d="M1440.75 1227.69 L1445.64 1227.69 L1445.64 1233.57 L1440.75 1233.57 L1440.75 1227.69 Z" fill="#000000" fill-rule="nonzero" fill-opacity="1" /><path clip-path="url(#clip870)" d="M1455.87 1199.01 L1474.23 1199.01 L1474.23 1202.94 L1460.15 1202.94 L1460.15 1211.41 Q1461.17 1211.07 1462.19 1210.9 Q1463.21 1210.72 1464.23 1210.72 Q1470.01 1210.72 1473.39 1213.89 Q1476.77 1217.06 1476.77 1222.48 Q1476.77 1228.06 1473.3 1231.16 Q1469.83 1234.24 1463.51 1234.24 Q1461.33 1234.24 1459.06 1233.87 Q1456.82 1233.5 1454.41 1232.76 L1454.41 1228.06 Q1456.49 1229.19 1458.72 1229.75 Q1460.94 1230.3 1463.42 1230.3 Q1467.42 1230.3 1469.76 1228.2 Q1472.1 1226.09 1472.1 1222.48 Q1472.1 1218.87 1469.76 1216.76 Q1467.42 1214.65 1463.42 1214.65 Q1461.54 1214.65 1459.67 1215.07 Q1457.81 1215.49 1455.87 1216.37 L1455.87 1199.01 Z" fill="#000000" fill-rule="nonzero" fill-opacity="1" /><path clip-path="url(#clip870)" d="M1824.79 1229.63 L1841.11 1229.63 L1841.11 1233.57 L1819.17 1233.57 L1819.17 1229.63 Q1821.83 1226.88 1826.41 1222.25 Q1831.02 1217.59 1832.2 1216.25 Q1834.45 1213.73 1835.33 1211.99 Q1836.23 1210.23 1836.23 1208.54 Q1836.23 1205.79 1834.29 1204.05 Q1832.36 1202.32 1829.26 1202.32 Q1827.06 1202.32 1824.61 1203.08 Q1822.18 1203.84 1819.4 1205.4 L1819.4 1200.67 Q1822.23 1199.54 1824.68 1198.96 Q1827.13 1198.38 1829.17 1198.38 Q1834.54 1198.38 1837.73 1201.07 Q1840.93 1203.75 1840.93 1208.24 Q1840.93 1210.37 1840.12 1212.29 Q1839.33 1214.19 1837.22 1216.78 Q1836.65 1217.46 1833.54 1220.67 Q1830.44 1223.87 1824.79 1229.63 Z" fill="#000000" fill-rule="nonzero" fill-opacity="1" /><path clip-path="url(#clip870)" d="M1850.93 1227.69 L1855.81 1227.69 L1855.81 1233.57 L1850.93 1233.57 L1850.93 1227.69 Z" fill="#000000" fill-rule="nonzero" fill-opacity="1" /><path clip-path="url(#clip870)" d="M1876 1202.09 Q1872.39 1202.09 1870.56 1205.65 Q1868.75 1209.19 1868.75 1216.32 Q1868.75 1223.43 1870.56 1226.99 Q1872.39 1230.53 1876 1230.53 Q1879.63 1230.53 1881.44 1226.99 Q1883.27 1223.43 1883.27 1216.32 Q1883.27 1209.19 1881.44 1205.65 Q1879.63 1202.09 1876 1202.09 M1876 1198.38 Q1881.81 1198.38 1884.86 1202.99 Q1887.94 1207.57 1887.94 1216.32 Q1887.94 1225.05 1884.86 1229.65 Q1881.81 1234.24 1876 1234.24 Q1870.19 1234.24 1867.11 1229.65 Q1864.05 1225.05 1864.05 1216.32 Q1864.05 1207.57 1867.11 1202.99 Q1870.19 1198.38 1876 1198.38 Z" fill="#000000" fill-rule="nonzero" fill-opacity="1" /><path clip-path="url(#clip870)" d="M1050.56 1278.37 L1037.67 1295.71 L1051.23 1314.01 L1044.32 1314.01 L1033.95 1300.01 L1023.57 1314.01 L1016.67 1314.01 L1030.51 1295.36 L1017.84 1278.37 L1024.75 1278.37 L1034.2 1291.07 L1043.66 1278.37 L1050.56 1278.37 Z" fill="#000000" fill-rule="nonzero" fill-opacity="1" /><polyline clip-path="url(#clip872)" style="stroke:#000000; stroke-linecap:round; stroke-linejoin:round; stroke-width:2; stroke-opacity:0.1; fill:none" points="214.34,1173.47 1853.56,1173.47 "/>
<polyline clip-path="url(#clip872)" style="stroke:#000000; stroke-linecap:round; stroke-linejoin:round; stroke-width:2; stroke-opacity:0.1; fill:none" points="214.34,891.914 1853.56,891.914 "/>
<polyline clip-path="url(#clip872)" style="stroke:#000000; stroke-linecap:round; stroke-linejoin:round; stroke-width:2; stroke-opacity:0.1; fill:none" points="214.34,610.357 1853.56,610.357 "/>
<polyline clip-path="url(#clip872)" style="stroke:#000000; stroke-linecap:round; stroke-linejoin:round; stroke-width:2; stroke-opacity:0.1; fill:none" points="214.34,328.801 1853.56,328.801 "/>
<polyline clip-path="url(#clip872)" style="stroke:#000000; stroke-linecap:round; stroke-linejoin:round; stroke-width:2; stroke-opacity:0.1; fill:none" points="214.34,47.2441 1853.56,47.2441 "/>
<polyline clip-path="url(#clip870)" style="stroke:#000000; stroke-linecap:round; stroke-linejoin:round; stroke-width:4; stroke-opacity:1; fill:none" points="214.34,1173.47 214.34,47.2441 "/>
<polyline clip-path="url(#clip870)" style="stroke:#000000; stroke-linecap:round; stroke-linejoin:round; stroke-width:4; stroke-opacity:1; fill:none" points="214.34,1173.47 231.081,1173.47 "/>
<polyline clip-path="url(#clip870)" style="stroke:#000000; stroke-linecap:round; stroke-linejoin:round; stroke-width:4; stroke-opacity:1; fill:none" points="214.34,891.914 231.081,891.914 "/>
<polyline clip-path="url(#clip870)" style="stroke:#000000; stroke-linecap:round; stroke-linejoin:round; stroke-width:4; stroke-opacity:1; fill:none" points="214.34,610.357 231.081,610.357 "/>
<polyline clip-path="url(#clip870)" style="stroke:#000000; stroke-linecap:round; stroke-linejoin:round; stroke-width:4; stroke-opacity:1; fill:none" points="214.34,328.801 231.081,328.801 "/>
<polyline clip-path="url(#clip870)" style="stroke:#000000; stroke-linecap:round; stroke-linejoin:round; stroke-width:4; stroke-opacity:1; fill:none" points="214.34,47.2441 231.081,47.2441 "/>
<path clip-path="url(#clip870)" d="M125.485 1159.27 Q121.873 1159.27 120.045 1162.83 Q118.239 1166.38 118.239 1173.51 Q118.239 1180.61 120.045 1184.18 Q121.873 1187.72 125.485 1187.72 Q129.119 1187.72 130.924 1184.18 Q132.753 1180.61 132.753 1173.51 Q132.753 1166.38 130.924 1162.83 Q129.119 1159.27 125.485 1159.27 M125.485 1155.57 Q131.295 1155.57 134.35 1160.17 Q137.429 1164.76 137.429 1173.51 Q137.429 1182.23 134.35 1186.84 Q131.295 1191.42 125.485 1191.42 Q119.674 1191.42 116.596 1186.84 Q113.54 1182.23 113.54 1173.51 Q113.54 1164.76 116.596 1160.17 Q119.674 1155.57 125.485 1155.57 Z" fill="#000000" fill-rule="nonzero" fill-opacity="1" /><path clip-path="url(#clip870)" d="M145.646 1184.87 L150.531 1184.87 L150.531 1190.75 L145.646 1190.75 L145.646 1184.87 Z" fill="#000000" fill-rule="nonzero" fill-opacity="1" /><path clip-path="url(#clip870)" d="M170.716 1159.27 Q167.105 1159.27 165.276 1162.83 Q163.47 1166.38 163.47 1173.51 Q163.47 1180.61 165.276 1184.18 Q167.105 1187.72 170.716 1187.72 Q174.35 1187.72 176.156 1184.18 Q177.984 1180.61 177.984 1173.51 Q177.984 1166.38 176.156 1162.83 Q174.35 1159.27 170.716 1159.27 M170.716 1155.57 Q176.526 1155.57 179.581 1160.17 Q182.66 1164.76 182.66 1173.51 Q182.66 1182.23 179.581 1186.84 Q176.526 1191.42 170.716 1191.42 Q164.906 1191.42 161.827 1186.84 Q158.771 1182.23 158.771 1173.51 Q158.771 1164.76 161.827 1160.17 Q164.906 1155.57 170.716 1155.57 Z" fill="#000000" fill-rule="nonzero" fill-opacity="1" /><path clip-path="url(#clip870)" d="M126.48 877.713 Q122.869 877.713 121.04 881.278 Q119.235 884.819 119.235 891.949 Q119.235 899.055 121.04 902.62 Q122.869 906.162 126.48 906.162 Q130.114 906.162 131.92 902.62 Q133.748 899.055 133.748 891.949 Q133.748 884.819 131.92 881.278 Q130.114 877.713 126.48 877.713 M126.48 874.009 Q132.29 874.009 135.346 878.616 Q138.424 883.199 138.424 891.949 Q138.424 900.676 135.346 905.282 Q132.29 909.865 126.48 909.865 Q120.67 909.865 117.591 905.282 Q114.536 900.676 114.536 891.949 Q114.536 883.199 117.591 878.616 Q120.67 874.009 126.48 874.009 Z" fill="#000000" fill-rule="nonzero" fill-opacity="1" /><path clip-path="url(#clip870)" d="M146.642 903.314 L151.526 903.314 L151.526 909.194 L146.642 909.194 L146.642 903.314 Z" fill="#000000" fill-rule="nonzero" fill-opacity="1" /><path clip-path="url(#clip870)" d="M161.757 874.634 L180.114 874.634 L180.114 878.569 L166.04 878.569 L166.04 887.041 Q167.058 886.694 168.077 886.532 Q169.095 886.347 170.114 886.347 Q175.901 886.347 179.281 889.518 Q182.66 892.69 182.66 898.106 Q182.66 903.685 179.188 906.787 Q175.716 909.865 169.396 909.865 Q167.22 909.865 164.952 909.495 Q162.707 909.125 160.299 908.384 L160.299 903.685 Q162.382 904.819 164.605 905.375 Q166.827 905.93 169.304 905.93 Q173.308 905.93 175.646 903.824 Q177.984 901.717 177.984 898.106 Q177.984 894.495 175.646 892.389 Q173.308 890.282 169.304 890.282 Q167.429 890.282 165.554 890.699 Q163.702 891.115 161.757 891.995 L161.757 874.634 Z" fill="#000000" fill-rule="nonzero" fill-opacity="1" /><path clip-path="url(#clip870)" d="M116.295 623.702 L123.934 623.702 L123.934 597.337 L115.623 599.003 L115.623 594.744 L123.887 593.077 L128.563 593.077 L128.563 623.702 L136.202 623.702 L136.202 627.637 L116.295 627.637 L116.295 623.702 Z" fill="#000000" fill-rule="nonzero" fill-opacity="1" /><path clip-path="url(#clip870)" d="M145.646 621.758 L150.531 621.758 L150.531 627.637 L145.646 627.637 L145.646 621.758 Z" fill="#000000" fill-rule="nonzero" fill-opacity="1" /><path clip-path="url(#clip870)" d="M170.716 596.156 Q167.105 596.156 165.276 599.721 Q163.47 603.263 163.47 610.392 Q163.47 617.499 165.276 621.063 Q167.105 624.605 170.716 624.605 Q174.35 624.605 176.156 621.063 Q177.984 617.499 177.984 610.392 Q177.984 603.263 176.156 599.721 Q174.35 596.156 170.716 596.156 M170.716 592.452 Q176.526 592.452 179.581 597.059 Q182.66 601.642 182.66 610.392 Q182.66 619.119 179.581 623.725 Q176.526 628.309 170.716 628.309 Q164.906 628.309 161.827 623.725 Q158.771 619.119 158.771 610.392 Q158.771 601.642 161.827 597.059 Q164.906 592.452 170.716 592.452 Z" fill="#000000" fill-rule="nonzero" fill-opacity="1" /><path clip-path="url(#clip870)" d="M117.29 342.146 L124.929 342.146 L124.929 315.78 L116.619 317.447 L116.619 313.187 L124.883 311.521 L129.559 311.521 L129.559 342.146 L137.197 342.146 L137.197 346.081 L117.29 346.081 L117.29 342.146 Z" fill="#000000" fill-rule="nonzero" fill-opacity="1" /><path clip-path="url(#clip870)" d="M146.642 340.201 L151.526 340.201 L151.526 346.081 L146.642 346.081 L146.642 340.201 Z" fill="#000000" fill-rule="nonzero" fill-opacity="1" /><path clip-path="url(#clip870)" d="M161.757 311.521 L180.114 311.521 L180.114 315.456 L166.04 315.456 L166.04 323.928 Q167.058 323.581 168.077 323.419 Q169.095 323.234 170.114 323.234 Q175.901 323.234 179.281 326.405 Q182.66 329.576 182.66 334.993 Q182.66 340.572 179.188 343.673 Q175.716 346.752 169.396 346.752 Q167.22 346.752 164.952 346.382 Q162.707 346.011 160.299 345.271 L160.299 340.572 Q162.382 341.706 164.605 342.261 Q166.827 342.817 169.304 342.817 Q173.308 342.817 175.646 340.71 Q177.984 338.604 177.984 334.993 Q177.984 331.382 175.646 329.275 Q173.308 327.169 169.304 327.169 Q167.429 327.169 165.554 327.585 Q163.702 328.002 161.757 328.882 L161.757 311.521 Z" fill="#000000" fill-rule="nonzero" fill-opacity="1" /><path clip-path="url(#clip870)" d="M119.512 60.5889 L135.832 60.5889 L135.832 64.5241 L113.887 64.5241 L113.887 60.5889 Q116.549 57.8343 121.133 53.2047 Q125.739 48.552 126.92 47.2094 Q129.165 44.6862 130.045 42.9501 Q130.947 41.1909 130.947 39.5011 Q130.947 36.7465 129.003 35.0104 Q127.082 33.2743 123.98 33.2743 Q121.781 33.2743 119.327 34.0381 Q116.897 34.802 114.119 36.3529 L114.119 31.6308 Q116.943 30.4965 119.397 29.9178 Q121.85 29.3391 123.887 29.3391 Q129.258 29.3391 132.452 32.0243 Q135.647 34.7094 135.647 39.2002 Q135.647 41.3298 134.836 43.2511 Q134.049 45.1492 131.943 47.7418 Q131.364 48.4131 128.262 51.6306 Q125.16 54.8251 119.512 60.5889 Z" fill="#000000" fill-rule="nonzero" fill-opacity="1" /><path clip-path="url(#clip870)" d="M145.646 58.6445 L150.531 58.6445 L150.531 64.5241 L145.646 64.5241 L145.646 58.6445 Z" fill="#000000" fill-rule="nonzero" fill-opacity="1" /><path clip-path="url(#clip870)" d="M170.716 33.0428 Q167.105 33.0428 165.276 36.6076 Q163.47 40.1492 163.47 47.2788 Q163.47 54.3853 165.276 57.9501 Q167.105 61.4917 170.716 61.4917 Q174.35 61.4917 176.156 57.9501 Q177.984 54.3853 177.984 47.2788 Q177.984 40.1492 176.156 36.6076 Q174.35 33.0428 170.716 33.0428 M170.716 29.3391 Q176.526 29.3391 179.581 33.9456 Q182.66 38.5289 182.66 47.2788 Q182.66 56.0056 179.581 60.6121 Q176.526 65.1954 170.716 65.1954 Q164.906 65.1954 161.827 60.6121 Q158.771 56.0056 158.771 47.2788 Q158.771 38.5289 161.827 33.9456 Q164.906 29.3391 170.716 29.3391 Z" fill="#000000" fill-rule="nonzero" fill-opacity="1" /><path clip-path="url(#clip870)" d="M70.9143 608.671 Q77.28 611.153 79.2216 613.508 Q81.1631 615.864 81.1631 619.81 L81.1631 624.489 L76.2615 624.489 L76.2615 621.052 Q76.2615 618.633 75.1157 617.296 Q73.9699 615.959 69.7048 614.336 L67.0312 613.286 L31.9562 627.704 L31.9562 621.497 L59.838 610.357 L31.9562 599.217 L31.9562 593.011 L70.9143 608.671 Z" fill="#000000" fill-rule="nonzero" fill-opacity="1" /><path clip-path="url(#clip870)" d="M1680.98 853.597 L1693.28 851.485 L1693.92 855.227 L1681.63 857.339 L1680.98 853.597 Z" fill="#000000" fill-rule="nonzero" fill-opacity="1" /><path clip-path="url(#clip870)" d="M1707.6 832.185 Q1704.05 832.796 1702.85 836.619 Q1701.67 840.415 1702.87 847.442 Q1704.08 854.446 1706.46 857.653 Q1708.86 860.834 1712.42 860.223 Q1716 859.608 1717.18 855.812 Q1718.38 851.989 1717.18 844.985 Q1715.97 837.958 1713.57 834.777 Q1711.19 831.569 1707.6 832.185 M1706.98 828.534 Q1712.7 827.551 1716.5 831.574 Q1720.31 835.57 1721.79 844.193 Q1723.26 852.794 1721.01 857.855 Q1718.77 862.89 1713.05 863.873 Q1707.32 864.857 1703.51 860.861 Q1699.72 856.838 1698.24 848.237 Q1696.76 839.614 1699 834.579 Q1701.25 829.518 1706.98 828.534 Z" fill="#000000" fill-rule="nonzero" fill-opacity="1" /><path clip-path="url(#clip870)" d="M1731.81 854.004 L1736.62 853.177 L1737.62 858.972 L1732.81 859.798 L1731.81 854.004 Z" fill="#000000" fill-rule="nonzero" fill-opacity="1" /><path clip-path="url(#clip870)" d="M1750.96 852.687 L1767.04 849.925 L1767.71 853.803 L1746.08 857.518 L1745.42 853.639 Q1747.57 850.474 1751.31 845.135 Q1755.06 839.77 1756 838.247 Q1757.78 835.38 1758.35 833.52 Q1758.95 831.633 1758.66 829.968 Q1758.19 827.253 1755.98 825.871 Q1753.8 824.485 1750.74 825.011 Q1748.57 825.383 1746.28 826.551 Q1744.02 827.715 1741.54 829.714 L1740.74 825.06 Q1743.33 823.464 1745.65 822.478 Q1747.97 821.493 1749.98 821.148 Q1755.28 820.239 1758.88 822.344 Q1762.48 824.45 1763.24 828.876 Q1763.6 830.975 1763.13 833.006 Q1762.67 835.01 1761.04 837.921 Q1760.58 838.681 1758.07 842.377 Q1755.55 846.05 1750.96 852.687 Z" fill="#000000" fill-rule="nonzero" fill-opacity="1" /><path clip-path="url(#clip870)" d="M1771.58 818.073 L1789.67 814.965 L1790.34 818.843 L1776.47 821.226 L1777.9 829.576 Q1778.84 829.061 1779.82 828.729 Q1780.79 828.374 1781.8 828.202 Q1787.5 827.222 1791.37 829.776 Q1795.24 832.329 1796.15 837.667 Q1797.1 843.166 1794.2 846.81 Q1791.3 850.432 1785.07 851.502 Q1782.93 851.871 1780.63 851.89 Q1778.35 851.905 1775.85 851.582 L1775.06 846.951 Q1777.3 847.716 1779.59 847.887 Q1781.87 848.059 1784.31 847.639 Q1788.26 846.962 1790.21 844.49 Q1792.16 842.018 1791.54 838.459 Q1790.93 834.9 1788.27 833.22 Q1785.61 831.539 1781.67 832.217 Q1779.82 832.535 1778.04 833.263 Q1776.29 833.987 1774.52 835.183 L1771.58 818.073 Z" fill="#000000" fill-rule="nonzero" fill-opacity="1" /><path clip-path="url(#clip870)" d="M1811.64 814.316 Q1808.08 814.927 1806.88 818.75 Q1805.7 822.546 1806.91 829.573 Q1808.11 836.577 1810.49 839.785 Q1812.89 842.965 1816.45 842.354 Q1820.03 841.739 1821.21 837.943 Q1822.41 834.12 1821.21 827.116 Q1820 820.089 1817.6 816.908 Q1815.22 813.701 1811.64 814.316 M1811.01 810.666 Q1816.74 809.682 1820.53 813.705 Q1824.34 817.701 1825.82 826.324 Q1827.3 834.925 1825.04 839.986 Q1822.81 845.021 1817.08 846.004 Q1811.35 846.988 1807.54 842.992 Q1803.75 838.969 1802.27 830.368 Q1800.79 821.745 1803.03 816.71 Q1805.28 811.649 1811.01 810.666 Z" fill="#000000" fill-rule="nonzero" fill-opacity="1" /><polyline clip-path="url(#clip872)" style="stroke:#f98c09; stroke-linecap:round; stroke-linejoin:round; stroke-width:4; stroke-opacity:1; fill:none" points="214.34,1103.08 247.794,1097.34 281.247,1091.59 314.7,1085.84 339.79,1081.53 348.154,1080.1 381.607,1074.35 415.06,1068.61 448.514,1062.86 473.604,1058.55 481.967,1057.11 515.421,1051.37 548.874,1045.62 582.327,1039.87 607.417,1035.57 615.781,1034.13 649.234,1028.38 682.688,1022.64 716.141,1016.89 741.231,1012.58 749.594,1011.14 783.048,1005.4 816.501,999.653 849.954,993.907 875.044,989.597 883.408,988.16 916.861,982.414 950.315,976.668 983.768,970.922 1008.86,966.613 1017.22,965.176 1050.67,959.43 1084.13,953.684 1117.58,947.938 1142.67,943.629 1151.03,942.192 1184.49,936.446 1217.94,930.7 1251.4,924.954 1276.49,920.644 1284.85,919.208 1318.3,913.462 1351.76,907.716 1385.21,901.97 1410.3,897.66 1418.66,896.224 1452.12,890.478 1485.57,884.732 1519.02,878.985 1544.11,874.676 1552.48,873.239 1585.93,867.493 1619.38,861.747 1652.84,856.001 1676.22,851.985 "/>
<polyline clip-path="url(#clip872)" style="stroke:#f98c09; stroke-linecap:round; stroke-linejoin:round; stroke-width:4; stroke-opacity:1; fill:none" points="1830.17,825.541 1853.56,821.525 "/>
<path clip-path="url(#clip870)" d="M1514.21 706.27 L1526.5 704.158 L1527.15 707.9 L1514.85 710.012 L1514.21 706.27 Z" fill="#000000" fill-rule="nonzero" fill-opacity="1" /><path clip-path="url(#clip870)" d="M1540.83 684.858 Q1537.27 685.469 1536.07 689.292 Q1534.89 693.088 1536.1 700.115 Q1537.3 707.119 1539.68 710.326 Q1542.09 713.507 1545.64 712.896 Q1549.23 712.281 1550.41 708.485 Q1551.61 704.662 1550.4 697.658 Q1549.2 690.631 1546.79 687.45 Q1544.41 684.243 1540.83 684.858 M1540.2 681.208 Q1545.93 680.224 1549.72 684.247 Q1553.53 688.243 1555.01 696.866 Q1556.49 705.467 1554.23 710.528 Q1552 715.563 1546.27 716.546 Q1540.55 717.53 1536.73 713.534 Q1532.94 709.511 1531.47 700.91 Q1529.99 692.287 1532.22 687.252 Q1534.48 682.191 1540.2 681.208 Z" fill="#000000" fill-rule="nonzero" fill-opacity="1" /><path clip-path="url(#clip870)" d="M1565.03 706.677 L1569.85 705.85 L1570.84 711.645 L1566.03 712.472 L1565.03 706.677 Z" fill="#000000" fill-rule="nonzero" fill-opacity="1" /><path clip-path="url(#clip870)" d="M1587.96 692.053 Q1584.67 692.617 1583.08 694.699 Q1581.51 696.777 1582.04 699.857 Q1582.57 702.937 1584.74 704.372 Q1586.94 705.803 1590.22 705.239 Q1593.51 704.675 1595.1 702.593 Q1596.69 700.488 1596.16 697.431 Q1595.63 694.351 1593.44 692.92 Q1591.27 691.484 1587.96 692.053 M1583.01 690.882 Q1579.92 690.662 1577.91 688.917 Q1575.92 687.169 1575.41 684.249 Q1574.71 680.165 1577.2 677.295 Q1579.72 674.421 1584.78 673.551 Q1589.87 672.677 1593.17 674.552 Q1596.48 676.427 1597.18 680.51 Q1597.68 683.431 1596.36 685.747 Q1595.07 688.06 1592.25 689.295 Q1595.72 689.499 1597.95 691.44 Q1600.21 693.377 1600.77 696.64 Q1601.62 701.59 1599.04 704.758 Q1596.48 707.921 1590.85 708.889 Q1585.21 709.857 1581.73 707.732 Q1578.26 705.603 1577.41 700.652 Q1576.85 697.39 1578.33 694.81 Q1579.81 692.23 1583.01 690.882 M1580.07 683.895 Q1580.53 686.541 1582.43 687.742 Q1584.35 688.939 1587.33 688.425 Q1590.3 687.916 1591.71 686.147 Q1593.14 684.374 1592.69 681.728 Q1592.24 679.081 1590.29 677.888 Q1588.37 676.691 1585.41 677.201 Q1582.42 677.714 1581.01 679.483 Q1579.62 681.248 1580.07 683.895 Z" fill="#000000" fill-rule="nonzero" fill-opacity="1" /><path clip-path="url(#clip870)" d="M1603.59 670.953 L1625.49 667.191 L1625.83 669.153 L1618.98 703.377 L1614.17 704.203 L1620.62 672.022 L1604.26 674.832 L1603.59 670.953 Z" fill="#000000" fill-rule="nonzero" fill-opacity="1" /><path clip-path="url(#clip870)" d="M1634.53 665.64 L1652.62 662.532 L1653.29 666.411 L1639.42 668.793 L1640.85 677.143 Q1641.79 676.628 1642.77 676.296 Q1643.74 675.941 1644.75 675.769 Q1650.45 674.789 1654.32 677.343 Q1658.19 679.896 1659.1 685.235 Q1660.05 690.733 1657.15 694.378 Q1654.25 698 1648.02 699.069 Q1645.88 699.438 1643.58 699.457 Q1641.3 699.472 1638.8 699.149 L1638.01 694.518 Q1640.25 695.283 1642.54 695.455 Q1644.82 695.626 1647.26 695.207 Q1651.21 694.529 1653.16 692.057 Q1655.11 689.585 1654.49 686.026 Q1653.88 682.467 1651.22 680.787 Q1648.56 679.107 1644.62 679.784 Q1642.77 680.102 1640.99 680.83 Q1639.24 681.554 1637.47 682.75 L1634.53 665.64 Z" fill="#000000" fill-rule="nonzero" fill-opacity="1" /><polyline clip-path="url(#clip872)" style="stroke:#e35832; stroke-linecap:round; stroke-linejoin:round; stroke-width:4; stroke-opacity:1; fill:none" points="1853.56,645.552 1820.1,651.298 1786.65,657.044 1753.2,662.79 1723.92,667.818 1719.74,668.536 1686.29,674.282 1662.45,678.378 "/>
<polyline clip-path="url(#clip872)" style="stroke:#e35832; stroke-linecap:round; stroke-linejoin:round; stroke-width:4; stroke-opacity:1; fill:none" points="1509.41,704.663 1485.57,708.759 1456.3,713.786 1452.12,714.505 1418.66,720.251 1385.21,725.997 1351.76,731.743 1322.48,736.771 1318.3,737.489 1284.85,743.235 1251.4,748.981 1217.94,754.727 1188.67,759.755 1184.49,760.473 1151.03,766.219 1117.58,771.965 1084.13,777.711 1054.86,782.739 1050.67,783.457 1017.22,789.203 983.768,794.949 950.315,800.695 921.043,805.723 916.861,806.442 883.408,812.188 849.954,817.934 816.501,823.68 787.229,828.707 783.048,829.426 749.594,835.172 716.141,840.918 682.688,846.664 653.416,851.692 649.234,852.41 615.781,858.156 582.327,863.902 548.874,869.648 519.602,874.676 515.421,875.394 481.967,881.14 448.514,886.886 415.06,892.632 385.789,897.66 381.607,898.378 348.154,904.124 314.7,909.871 281.247,915.617 251.975,920.644 247.794,921.363 214.34,927.109 "/>
<path clip-path="url(#clip870)" d="M443.209 714.255 L455.506 712.143 L456.149 715.885 L443.852 717.997 L443.209 714.255 Z" fill="#000000" fill-rule="nonzero" fill-opacity="1" /><path clip-path="url(#clip870)" d="M465.436 721.547 L472.964 720.254 L468.501 694.269 L460.593 697.318 L459.872 693.12 L467.734 690.079 L472.343 689.287 L477.527 719.47 L485.056 718.177 L485.722 722.055 L466.102 725.425 L465.436 721.547 Z" fill="#000000" fill-rule="nonzero" fill-opacity="1" /><path clip-path="url(#clip870)" d="M494.035 714.662 L498.848 713.835 L499.844 719.63 L495.03 720.457 L494.035 714.662 Z" fill="#000000" fill-rule="nonzero" fill-opacity="1" /><path clip-path="url(#clip870)" d="M504.077 683.837 L522.168 680.729 L522.835 684.608 L508.964 686.99 L510.398 695.34 Q511.343 694.825 512.319 694.493 Q513.292 694.138 514.296 693.966 Q519.999 692.986 523.867 695.54 Q527.735 698.093 528.651 703.431 Q529.596 708.93 526.699 712.574 Q523.798 716.197 517.57 717.266 Q515.425 717.635 513.127 717.654 Q510.851 717.669 508.353 717.346 L507.558 712.715 Q509.803 713.48 512.087 713.652 Q514.371 713.823 516.812 713.404 Q520.759 712.726 522.707 710.254 Q524.654 707.782 524.043 704.223 Q523.432 700.664 520.771 698.984 Q518.11 697.303 514.163 697.981 Q512.315 698.299 510.538 699.027 Q508.783 699.751 507.016 700.947 L504.077 683.837 Z" fill="#000000" fill-rule="nonzero" fill-opacity="1" /><path clip-path="url(#clip870)" d="M544.135 680.08 Q540.576 680.691 539.377 684.514 Q538.197 688.31 539.404 695.337 Q540.607 702.341 542.99 705.549 Q545.392 708.73 548.951 708.118 Q552.532 707.503 553.712 703.707 Q554.911 699.884 553.708 692.88 Q552.501 685.853 550.099 682.672 Q547.717 679.465 544.135 680.08 M543.508 676.43 Q549.234 675.446 553.025 679.469 Q556.835 683.465 558.317 692.089 Q559.794 700.689 557.54 705.751 Q555.304 710.785 549.578 711.769 Q543.851 712.752 540.041 708.756 Q536.25 704.733 534.773 696.133 Q533.291 687.509 535.527 682.474 Q537.781 677.413 543.508 676.43 Z" fill="#000000" fill-rule="nonzero" fill-opacity="1" /><path clip-path="url(#clip870)" d="M573.861 674.974 Q570.302 675.585 569.104 679.408 Q567.924 683.204 569.13 690.231 Q570.333 697.235 572.716 700.443 Q575.118 703.624 578.677 703.012 Q582.259 702.397 583.439 698.601 Q584.638 694.778 583.435 687.774 Q582.228 680.747 579.826 677.567 Q577.443 674.359 573.861 674.974 M573.234 671.324 Q578.961 670.34 582.752 674.363 Q586.562 678.359 588.043 686.983 Q589.521 695.583 587.266 700.645 Q585.031 705.679 579.304 706.663 Q573.578 707.646 569.768 703.65 Q565.977 699.627 564.499 691.027 Q563.018 682.403 565.254 677.369 Q567.508 672.307 573.234 671.324 Z" fill="#000000" fill-rule="nonzero" fill-opacity="1" /><polyline clip-path="url(#clip872)" style="stroke:#ba3655; stroke-linecap:round; stroke-linejoin:round; stroke-width:4; stroke-opacity:1; fill:none" points="214.34,751.136 247.794,745.39 281.247,739.644 297.974,736.771 314.7,733.898 348.154,728.152 381.607,722.405 415.06,716.659 431.787,713.786 438.441,712.643 "/>
<polyline clip-path="url(#clip872)" style="stroke:#ba3655; stroke-linecap:round; stroke-linejoin:round; stroke-width:4; stroke-opacity:1; fill:none" points="592.4,686.199 615.781,682.183 649.234,676.437 682.688,670.691 699.414,667.818 716.141,664.945 749.594,659.199 783.048,653.453 816.501,647.707 833.228,644.834 849.954,641.961 883.408,636.215 916.861,630.469 950.315,624.723 967.041,621.85 983.768,618.977 1017.22,613.23 1050.67,607.484 1084.13,601.738 1100.85,598.865 1117.58,595.992 1151.03,590.246 1184.49,584.5 1217.94,578.754 1234.67,575.881 1251.4,573.008 1284.85,567.262 1318.3,561.516 1351.76,555.77 1368.48,552.897 1385.21,550.024 1418.66,544.278 1452.12,538.532 1485.57,532.786 1502.3,529.913 1519.02,527.04 1552.48,521.294 1585.93,515.548 1619.38,509.801 1636.11,506.928 1652.84,504.055 1686.29,498.309 1719.74,492.563 1753.2,486.817 1769.92,483.944 1786.65,481.071 1820.1,475.325 1853.56,469.579 "/>
<path clip-path="url(#clip870)" d="M1075.13 429.741 L1087.43 427.629 L1088.07 431.371 L1075.78 433.483 L1075.13 429.741 Z" fill="#000000" fill-rule="nonzero" fill-opacity="1" /><path clip-path="url(#clip870)" d="M1100.53 436.488 L1116.61 433.726 L1117.28 437.604 L1095.65 441.319 L1094.99 437.441 Q1097.14 434.275 1100.88 428.937 Q1104.63 423.571 1105.57 422.048 Q1107.35 419.181 1107.92 417.321 Q1108.52 415.435 1108.23 413.769 Q1107.76 411.054 1105.55 409.672 Q1103.37 408.287 1100.31 408.812 Q1098.14 409.184 1095.85 410.352 Q1093.59 411.517 1091.11 413.515 L1090.31 408.861 Q1092.9 407.265 1095.22 406.28 Q1097.54 405.294 1099.55 404.949 Q1104.84 404.04 1108.45 406.146 Q1112.05 408.251 1112.81 412.677 Q1113.17 414.776 1112.7 416.807 Q1112.24 418.811 1110.61 421.722 Q1110.15 422.482 1107.64 426.178 Q1105.12 429.852 1100.53 436.488 Z" fill="#000000" fill-rule="nonzero" fill-opacity="1" /><path clip-path="url(#clip870)" d="M1125.96 430.148 L1130.77 429.321 L1131.77 435.116 L1126.95 435.943 L1125.96 430.148 Z" fill="#000000" fill-rule="nonzero" fill-opacity="1" /><path clip-path="url(#clip870)" d="M1141.94 429.376 L1149.47 428.083 L1145 402.098 L1137.09 405.147 L1136.37 400.95 L1144.24 397.908 L1148.84 397.117 L1154.03 427.299 L1161.56 426.006 L1162.22 429.885 L1142.6 433.255 L1141.94 429.376 Z" fill="#000000" fill-rule="nonzero" fill-opacity="1" /><path clip-path="url(#clip870)" d="M1174.83 423.726 L1190.92 420.963 L1191.58 424.841 L1169.96 428.556 L1169.29 424.678 Q1171.45 421.512 1175.18 416.174 Q1178.93 410.808 1179.87 409.285 Q1181.66 406.418 1182.23 404.558 Q1182.82 402.672 1182.54 401.006 Q1182.07 398.291 1179.86 396.91 Q1177.67 395.524 1174.61 396.049 Q1172.45 396.421 1170.16 397.589 Q1167.89 398.754 1165.42 400.752 L1164.62 396.098 Q1167.21 394.502 1169.53 393.517 Q1171.85 392.531 1173.86 392.186 Q1179.15 391.277 1182.75 393.383 Q1186.36 395.488 1187.12 399.914 Q1187.48 402.013 1187 404.044 Q1186.55 406.048 1184.91 408.96 Q1184.45 409.719 1181.94 413.415 Q1179.43 417.089 1174.83 423.726 Z" fill="#000000" fill-rule="nonzero" fill-opacity="1" /><path clip-path="url(#clip870)" d="M1195.45 389.111 L1213.54 386.003 L1214.21 389.882 L1200.34 392.264 L1201.77 400.614 Q1202.72 400.1 1203.7 399.767 Q1204.67 399.412 1205.67 399.24 Q1211.38 398.26 1215.24 400.814 Q1219.11 403.367 1220.03 408.706 Q1220.97 414.204 1218.08 417.849 Q1215.17 421.471 1208.95 422.541 Q1206.8 422.909 1204.5 422.928 Q1202.23 422.943 1199.73 422.62 L1198.93 417.989 Q1201.18 418.754 1203.46 418.926 Q1205.75 419.097 1208.19 418.678 Q1212.14 418 1214.08 415.528 Q1216.03 413.056 1215.42 409.497 Q1214.81 405.938 1212.15 404.258 Q1209.49 402.578 1205.54 403.256 Q1203.69 403.573 1201.91 404.301 Q1200.16 405.025 1198.39 406.221 L1195.45 389.111 Z" fill="#000000" fill-rule="nonzero" fill-opacity="1" /><polyline clip-path="url(#clip872)" style="stroke:#88216a; stroke-linecap:round; stroke-linejoin:round; stroke-width:4; stroke-opacity:1; fill:none" points="1853.56,293.606 1820.1,299.352 1815.92,300.07 1786.65,305.098 1753.2,310.844 1719.74,316.59 1686.29,322.336 1682.11,323.055 1652.84,328.083 1619.38,333.829 1585.93,339.575 1552.48,345.321 1548.29,346.039 1519.02,351.067 1485.57,356.813 1452.12,362.559 1418.66,368.305 1414.48,369.023 1385.21,374.051 1351.76,379.797 1318.3,385.543 1284.85,391.289 1280.67,392.007 1251.4,397.035 1223.37,401.849 "/>
<polyline clip-path="url(#clip872)" style="stroke:#88216a; stroke-linecap:round; stroke-linejoin:round; stroke-width:4; stroke-opacity:1; fill:none" points="1070.34,428.134 1050.67,431.511 1017.22,437.258 1013.04,437.976 983.768,443.004 950.315,448.75 916.861,454.496 883.408,460.242 879.226,460.96 849.954,465.988 816.501,471.734 783.048,477.48 749.594,483.226 745.413,483.944 716.141,488.972 682.688,494.718 649.234,500.464 615.781,506.21 611.599,506.928 582.327,511.956 548.874,517.702 515.421,523.448 481.967,529.194 477.786,529.913 448.514,534.94 415.06,540.687 381.607,546.433 348.154,552.179 343.972,552.897 314.7,557.925 281.247,563.671 247.794,569.417 214.34,575.163 "/>
<path clip-path="url(#clip870)" d="M844.65 293.357 L856.947 291.245 L857.589 294.986 L845.293 297.098 L844.65 293.357 Z" fill="#000000" fill-rule="nonzero" fill-opacity="1" /><path clip-path="url(#clip870)" d="M870.047 300.104 L886.131 297.341 L886.797 301.22 L865.17 304.934 L864.504 301.056 Q866.661 297.891 870.394 292.552 Q874.147 287.187 875.083 285.664 Q876.869 282.797 877.442 280.937 Q878.034 279.05 877.748 277.385 Q877.281 274.67 875.071 273.288 Q872.884 271.902 869.827 272.427 Q867.659 272.799 865.37 273.968 Q863.104 275.132 860.629 277.131 L859.83 272.477 Q862.421 270.881 864.741 269.895 Q867.062 268.909 869.069 268.564 Q874.362 267.655 877.965 269.761 Q881.568 271.867 882.328 276.293 Q882.689 278.391 882.215 280.422 Q881.761 282.426 880.124 285.338 Q879.667 286.097 877.155 289.794 Q874.638 293.467 870.047 300.104 Z" fill="#000000" fill-rule="nonzero" fill-opacity="1" /><path clip-path="url(#clip870)" d="M895.475 293.763 L900.289 292.937 L901.284 298.731 L896.471 299.558 L895.475 293.763 Z" fill="#000000" fill-rule="nonzero" fill-opacity="1" /><path clip-path="url(#clip870)" d="M904.308 263.146 L926.21 259.384 L926.547 261.346 L919.695 295.569 L914.881 296.396 L921.332 264.215 L904.975 267.024 L904.308 263.146 Z" fill="#000000" fill-rule="nonzero" fill-opacity="1" /><path clip-path="url(#clip870)" d="M935.244 257.832 L953.336 254.725 L954.002 258.603 L940.131 260.986 L941.565 269.336 Q942.51 268.821 943.487 268.489 Q944.459 268.134 945.463 267.961 Q951.166 266.982 955.034 269.535 Q958.902 272.089 959.819 277.427 Q960.763 282.925 957.866 286.57 Q954.965 290.192 948.737 291.262 Q946.592 291.63 944.294 291.649 Q942.018 291.664 939.52 291.342 L938.725 286.711 Q940.97 287.476 943.254 287.647 Q945.538 287.818 947.979 287.399 Q951.926 286.721 953.874 284.249 Q955.822 281.778 955.21 278.219 Q954.599 274.66 951.938 272.979 Q949.277 271.299 945.33 271.977 Q943.483 272.294 941.705 273.022 Q939.951 273.747 938.183 274.943 L935.244 257.832 Z" fill="#000000" fill-rule="nonzero" fill-opacity="1" /><path clip-path="url(#clip870)" d="M975.302 254.076 Q971.743 254.687 970.544 258.51 Q969.364 262.306 970.571 269.333 Q971.774 276.337 974.157 279.544 Q976.559 282.725 980.118 282.114 Q983.7 281.499 984.88 277.702 Q986.078 273.88 984.875 266.876 Q983.668 259.849 981.267 256.668 Q978.884 253.46 975.302 254.076 M974.675 250.425 Q980.401 249.442 984.192 253.464 Q988.003 257.46 989.484 266.084 Q990.961 274.685 988.707 279.746 Q986.471 284.781 980.745 285.764 Q975.019 286.748 971.208 282.752 Q967.417 278.729 965.94 270.128 Q964.459 261.504 966.694 256.47 Q968.949 251.409 974.675 250.425 Z" fill="#000000" fill-rule="nonzero" fill-opacity="1" /><polyline clip-path="url(#clip872)" style="stroke:#550f6d; stroke-linecap:round; stroke-linejoin:round; stroke-width:4; stroke-opacity:1; fill:none" points="214.34,399.19 247.794,393.444 256.157,392.007 281.247,387.698 314.7,381.952 348.154,376.206 381.607,370.46 389.97,369.023 415.06,364.714 448.514,358.968 481.967,353.221 515.421,347.475 523.784,346.039 548.874,341.729 582.327,335.983 615.781,330.237 649.234,324.491 657.597,323.055 682.688,318.745 716.141,312.999 749.594,307.253 783.048,301.507 791.411,300.07 816.501,295.761 839.882,291.745 "/>
<polyline clip-path="url(#clip872)" style="stroke:#550f6d; stroke-linecap:round; stroke-linejoin:round; stroke-width:4; stroke-opacity:1; fill:none" points="993.84,265.301 1017.22,261.285 1050.67,255.539 1059.04,254.102 1084.13,249.793 1117.58,244.046 1151.03,238.3 1184.49,232.554 1192.85,231.118 1217.94,226.808 1251.4,221.062 1284.85,215.316 1318.3,209.57 1326.67,208.134 1351.76,203.824 1385.21,198.078 1418.66,192.332 1452.12,186.586 1460.48,185.149 1485.57,180.84 1519.02,175.094 1552.48,169.348 1585.93,163.602 1594.29,162.165 1619.38,157.856 1652.84,152.11 1686.29,146.364 1719.74,140.617 1728.11,139.181 1753.2,134.871 1786.65,129.125 1820.1,123.379 1853.56,117.633 "/>
<path clip-path="url(#clip870)" d="M544.06 169.014 L556.357 166.902 L556.999 170.644 L544.703 172.756 L544.06 169.014 Z" fill="#000000" fill-rule="nonzero" fill-opacity="1" /><path clip-path="url(#clip870)" d="M576.962 159.558 Q580.391 159.697 582.623 161.615 Q584.878 163.53 585.442 166.815 Q586.308 171.857 583.315 175.213 Q580.321 178.569 573.933 179.666 Q571.789 180.035 569.433 179.993 Q567.104 179.97 564.54 179.542 L563.776 175.093 Q565.885 175.882 568.264 176.06 Q570.643 176.239 573.13 175.812 Q577.465 175.067 579.429 172.968 Q581.417 170.865 580.857 167.603 Q580.339 164.591 577.928 163.267 Q575.535 161.917 571.771 162.564 L567.801 163.245 L567.151 159.458 L571.303 158.745 Q574.702 158.161 576.273 156.506 Q577.84 154.827 577.401 152.272 Q576.951 149.648 574.841 148.578 Q572.75 147.481 569.282 148.077 Q567.389 148.402 565.292 149.185 Q563.195 149.968 560.743 151.281 L560.038 147.175 Q562.536 145.994 564.755 145.237 Q566.996 144.477 569.027 144.128 Q574.274 143.226 577.743 145.097 Q581.207 146.944 581.905 151.005 Q582.391 153.834 581.108 156.074 Q579.821 158.292 576.962 159.558 Z" fill="#000000" fill-rule="nonzero" fill-opacity="1" /><path clip-path="url(#clip870)" d="M594.885 169.421 L599.699 168.594 L600.694 174.389 L595.881 175.216 L594.885 169.421 Z" fill="#000000" fill-rule="nonzero" fill-opacity="1" /><path clip-path="url(#clip870)" d="M621.54 151.901 Q624.97 152.04 627.202 153.959 Q629.456 155.873 630.021 159.158 Q630.887 164.2 627.893 167.556 Q624.9 170.912 618.512 172.009 Q616.367 172.378 614.011 172.336 Q611.682 172.313 609.119 171.885 L608.355 167.436 Q610.463 168.225 612.843 168.403 Q615.222 168.582 617.709 168.155 Q622.043 167.41 624.008 165.311 Q625.995 163.208 625.435 159.946 Q624.918 156.934 622.506 155.611 Q620.113 154.26 616.349 154.907 L612.379 155.588 L611.729 151.801 L615.881 151.088 Q619.28 150.504 620.851 148.849 Q622.419 147.17 621.98 144.615 Q621.529 141.991 619.419 140.921 Q617.328 139.824 613.861 140.42 Q611.967 140.745 609.87 141.528 Q607.774 142.311 605.322 143.624 L604.616 139.518 Q607.115 138.337 609.333 137.58 Q611.575 136.82 613.605 136.471 Q618.852 135.57 622.321 137.44 Q625.786 139.287 626.483 143.348 Q626.969 146.177 625.686 148.418 Q624.399 150.635 621.54 151.901 Z" fill="#000000" fill-rule="nonzero" fill-opacity="1" /><path clip-path="url(#clip870)" d="M633.445 133.697 L655.346 129.935 L655.683 131.897 L648.832 166.12 L644.018 166.947 L650.469 134.766 L634.111 137.576 L633.445 133.697 Z" fill="#000000" fill-rule="nonzero" fill-opacity="1" /><path clip-path="url(#clip870)" d="M664.381 128.384 L682.472 125.276 L683.138 129.155 L669.268 131.537 L670.702 139.887 Q671.647 139.372 672.623 139.04 Q673.596 138.685 674.599 138.513 Q680.303 137.533 684.171 140.087 Q688.038 142.64 688.955 147.978 Q689.9 153.477 687.003 157.121 Q684.102 160.744 677.873 161.813 Q675.729 162.182 673.431 162.201 Q671.155 162.216 668.657 161.893 L667.861 157.262 Q670.107 158.027 672.391 158.199 Q674.675 158.37 677.116 157.951 Q681.063 157.273 683.01 154.801 Q684.958 152.329 684.347 148.77 Q683.736 145.211 681.075 143.531 Q678.414 141.85 674.467 142.528 Q672.619 142.846 670.842 143.574 Q669.087 144.298 667.32 145.494 L664.381 128.384 Z" fill="#000000" fill-rule="nonzero" fill-opacity="1" /><polyline clip-path="url(#clip872)" style="stroke:#1f0c47; stroke-linecap:round; stroke-linejoin:round; stroke-width:4; stroke-opacity:1; fill:none" points="1238.85,47.2441 1217.94,50.8354 1184.49,56.5814 1151.03,62.3275 1117.58,68.0735 1105.04,70.2283 1084.13,73.8196 1050.67,79.5657 1017.22,85.3117 983.768,91.0578 971.223,93.2125 950.315,96.8038 916.861,102.55 883.408,108.296 849.954,114.042 837.409,116.197 816.501,119.788 783.048,125.534 749.594,131.28 716.141,137.026 703.596,139.181 692.297,141.122 "/>
<polyline clip-path="url(#clip872)" style="stroke:#1f0c47; stroke-linecap:round; stroke-linejoin:round; stroke-width:4; stroke-opacity:1; fill:none" points="539.264,167.407 515.421,171.503 481.967,177.249 448.514,182.995 435.969,185.149 415.06,188.741 381.607,194.487 348.154,200.233 314.7,205.979 302.155,208.134 281.247,211.725 247.794,217.471 214.34,223.217 "/>
<path clip-path="url(#clip870)" d="M1598.91 1026.83 Q1595.35 1027.44 1594.15 1031.26 Q1592.97 1035.06 1594.18 1042.09 Q1595.38 1049.09 1597.76 1052.3 Q1600.16 1055.48 1603.72 1054.87 Q1607.3 1054.25 1608.48 1050.45 Q1609.68 1046.63 1608.48 1039.63 Q1607.27 1032.6 1604.87 1029.42 Q1602.49 1026.21 1598.91 1026.83 M1598.28 1023.18 Q1604.01 1022.19 1607.8 1026.22 Q1611.61 1030.21 1613.09 1038.84 Q1614.57 1047.44 1612.31 1052.5 Q1610.08 1057.53 1604.35 1058.52 Q1598.62 1059.5 1594.81 1055.5 Q1591.02 1051.48 1589.54 1042.88 Q1588.06 1034.26 1590.3 1029.22 Q1592.55 1024.16 1598.28 1023.18 Z" fill="#000000" fill-rule="nonzero" fill-opacity="1" /><path clip-path="url(#clip870)" d="M1623.11 1048.65 L1627.92 1047.82 L1628.92 1053.61 L1624.11 1054.44 L1623.11 1048.65 Z" fill="#000000" fill-rule="nonzero" fill-opacity="1" /><path clip-path="url(#clip870)" d="M1649.77 1031.13 Q1653.2 1031.27 1655.43 1033.18 Q1657.68 1035.1 1658.25 1038.38 Q1659.11 1043.43 1656.12 1046.78 Q1653.13 1050.14 1646.74 1051.24 Q1644.59 1051.6 1642.24 1051.56 Q1639.91 1051.54 1637.34 1051.11 L1636.58 1046.66 Q1638.69 1047.45 1641.07 1047.63 Q1643.45 1047.81 1645.93 1047.38 Q1650.27 1046.64 1652.23 1044.54 Q1654.22 1042.43 1653.66 1039.17 Q1653.14 1036.16 1650.73 1034.84 Q1648.34 1033.49 1644.57 1034.13 L1640.61 1034.81 L1639.95 1031.03 L1644.11 1030.31 Q1647.51 1029.73 1649.08 1028.07 Q1650.64 1026.4 1650.21 1023.84 Q1649.75 1021.22 1647.65 1020.15 Q1645.55 1019.05 1642.09 1019.65 Q1640.19 1019.97 1638.1 1020.75 Q1636 1021.54 1633.55 1022.85 L1632.84 1018.74 Q1635.34 1017.56 1637.56 1016.81 Q1639.8 1016.05 1641.83 1015.7 Q1647.08 1014.8 1650.55 1016.67 Q1654.01 1018.51 1654.71 1022.57 Q1655.19 1025.4 1653.91 1027.64 Q1652.63 1029.86 1649.77 1031.13 Z" fill="#000000" fill-rule="nonzero" fill-opacity="1" /><path clip-path="url(#clip870)" d="M1661.67 1012.92 L1683.57 1009.16 L1683.91 1011.12 L1677.06 1045.35 L1672.24 1046.17 L1678.69 1013.99 L1662.34 1016.8 L1661.67 1012.92 Z" fill="#000000" fill-rule="nonzero" fill-opacity="1" /><path clip-path="url(#clip870)" d="M1692.61 1007.61 L1710.7 1004.5 L1711.36 1008.38 L1697.49 1010.76 L1698.93 1019.11 Q1699.87 1018.6 1700.85 1018.27 Q1701.82 1017.91 1702.83 1017.74 Q1708.53 1016.76 1712.4 1019.31 Q1716.26 1021.87 1717.18 1027.2 Q1718.13 1032.7 1715.23 1036.35 Q1712.33 1039.97 1706.1 1041.04 Q1703.95 1041.41 1701.66 1041.43 Q1699.38 1041.44 1696.88 1041.12 L1696.09 1036.49 Q1698.33 1037.25 1700.62 1037.42 Q1702.9 1037.6 1705.34 1037.18 Q1709.29 1036.5 1711.24 1034.03 Q1713.18 1031.56 1712.57 1028 Q1711.96 1024.44 1709.3 1022.76 Q1706.64 1021.08 1702.69 1021.75 Q1700.85 1022.07 1699.07 1022.8 Q1697.31 1023.52 1695.55 1024.72 L1692.61 1007.61 Z" fill="#000000" fill-rule="nonzero" fill-opacity="1" /><polyline clip-path="url(#clip872)" style="stroke:#f8c931; stroke-linecap:round; stroke-linejoin:round; stroke-width:4; stroke-opacity:1; fill:none" points="829.046,1173.47 849.954,1169.88 883.408,1164.13 916.861,1158.39 950.315,1152.64 962.86,1150.49 983.768,1146.9 1017.22,1141.15 1050.67,1135.4 1084.13,1129.66 1096.67,1127.5 1117.58,1123.91 1151.03,1118.16 1184.49,1112.42 1217.94,1106.67 1230.49,1104.52 1251.4,1100.93 1284.85,1095.18 1318.3,1089.43 1351.76,1083.69 1364.3,1081.53 1385.21,1077.94 1418.66,1072.2 1452.12,1066.45 1485.57,1060.7 1498.11,1058.55 1519.02,1054.96 1552.48,1049.21 1584.58,1043.7 "/>
<polyline clip-path="url(#clip872)" style="stroke:#f8c931; stroke-linecap:round; stroke-linejoin:round; stroke-width:4; stroke-opacity:1; fill:none" points="1721.09,1020.25 1753.2,1014.74 1765.74,1012.58 1786.65,1008.99 1820.1,1003.24 1853.56,997.498 "/>
<defs>
  <clipPath id="clip873">
    <rect x="1895" y="47" width="64" height="1127"/>
  </clipPath>
</defs>
<polyline clip-path="url(#clip873)" style="stroke:#200c4a; stroke-linecap:round; stroke-linejoin:round; stroke-width:4; stroke-opacity:1; fill:none" points="1895.8,1032.69 1959.16,1032.69 "/>
<polyline clip-path="url(#clip873)" style="stroke:#570f6d; stroke-linecap:round; stroke-linejoin:round; stroke-width:4; stroke-opacity:1; fill:none" points="1895.8,891.914 1959.16,891.914 "/>
<polyline clip-path="url(#clip873)" style="stroke:#892269; stroke-linecap:round; stroke-linejoin:round; stroke-width:4; stroke-opacity:1; fill:none" points="1895.8,751.136 1959.16,751.136 "/>
<polyline clip-path="url(#clip873)" style="stroke:#bb3754; stroke-linecap:round; stroke-linejoin:round; stroke-width:4; stroke-opacity:1; fill:none" points="1895.8,610.357 1959.16,610.357 "/>
<polyline clip-path="url(#clip873)" style="stroke:#e35832; stroke-linecap:round; stroke-linejoin:round; stroke-width:4; stroke-opacity:1; fill:none" points="1895.8,469.579 1959.16,469.579 "/>
<polyline clip-path="url(#clip873)" style="stroke:#f98c09; stroke-linecap:round; stroke-linejoin:round; stroke-width:4; stroke-opacity:1; fill:none" points="1895.8,328.801 1959.16,328.801 "/>
<polyline clip-path="url(#clip873)" style="stroke:#f8c931; stroke-linecap:round; stroke-linejoin:round; stroke-width:4; stroke-opacity:1; fill:none" points="1895.8,188.022 1959.16,188.022 "/>
<path clip-path="url(#clip870)" d="M1990.84 1170.29 L2020.51 1170.29 L2020.51 1174.23 L1990.84 1174.23 L1990.84 1170.29 Z" fill="#000000" fill-rule="nonzero" fill-opacity="1" /><path clip-path="url(#clip870)" d="M2043.45 1156.64 L2031.65 1175.08 L2043.45 1175.08 L2043.45 1156.64 M2042.22 1152.56 L2048.1 1152.56 L2048.1 1175.08 L2053.03 1175.08 L2053.03 1178.97 L2048.1 1178.97 L2048.1 1187.12 L2043.45 1187.12 L2043.45 1178.97 L2027.85 1178.97 L2027.85 1174.46 L2042.22 1152.56 Z" fill="#000000" fill-rule="nonzero" fill-opacity="1" /><path clip-path="url(#clip870)" d="M1990.84 945.048 L2020.51 945.048 L2020.51 948.983 L1990.84 948.983 L1990.84 945.048 Z" fill="#000000" fill-rule="nonzero" fill-opacity="1" /><path clip-path="url(#clip870)" d="M2044.77 943.242 Q2048.13 943.96 2050 946.229 Q2051.9 948.497 2051.9 951.83 Q2051.9 956.946 2048.38 959.747 Q2044.86 962.548 2038.38 962.548 Q2036.21 962.548 2033.89 962.108 Q2031.6 961.691 2029.15 960.835 L2029.15 956.321 Q2031.09 957.455 2033.41 958.034 Q2035.72 958.613 2038.24 958.613 Q2042.64 958.613 2044.93 956.877 Q2047.25 955.141 2047.25 951.83 Q2047.25 948.775 2045.09 947.062 Q2042.97 945.326 2039.15 945.326 L2035.12 945.326 L2035.12 941.483 L2039.33 941.483 Q2042.78 941.483 2044.61 940.117 Q2046.44 938.729 2046.44 936.136 Q2046.44 933.474 2044.54 932.062 Q2042.66 930.627 2039.15 930.627 Q2037.22 930.627 2035.03 931.043 Q2032.83 931.46 2030.19 932.34 L2030.19 928.173 Q2032.85 927.432 2035.16 927.062 Q2037.5 926.692 2039.56 926.692 Q2044.89 926.692 2047.99 929.122 Q2051.09 931.53 2051.09 935.65 Q2051.09 938.52 2049.45 940.511 Q2047.8 942.479 2044.77 943.242 Z" fill="#000000" fill-rule="nonzero" fill-opacity="1" /><path clip-path="url(#clip870)" d="M1990.84 719.803 L2020.51 719.803 L2020.51 723.738 L1990.84 723.738 L1990.84 719.803 Z" fill="#000000" fill-rule="nonzero" fill-opacity="1" /><path clip-path="url(#clip870)" d="M2034.63 732.696 L2050.95 732.696 L2050.95 736.631 L2029.01 736.631 L2029.01 732.696 Q2031.67 729.942 2036.25 725.312 Q2040.86 720.659 2042.04 719.317 Q2044.28 716.793 2045.16 715.057 Q2046.07 713.298 2046.07 711.608 Q2046.07 708.854 2044.12 707.118 Q2042.2 705.381 2039.1 705.381 Q2036.9 705.381 2034.45 706.145 Q2032.02 706.909 2029.24 708.46 L2029.24 703.738 Q2032.06 702.604 2034.52 702.025 Q2036.97 701.446 2039.01 701.446 Q2044.38 701.446 2047.57 704.131 Q2050.77 706.817 2050.77 711.307 Q2050.77 713.437 2049.96 715.358 Q2049.17 717.256 2047.06 719.849 Q2046.48 720.52 2043.38 723.738 Q2040.28 726.932 2034.63 732.696 Z" fill="#000000" fill-rule="nonzero" fill-opacity="1" /><path clip-path="url(#clip870)" d="M1990.84 494.557 L2020.51 494.557 L2020.51 498.493 L1990.84 498.493 L1990.84 494.557 Z" fill="#000000" fill-rule="nonzero" fill-opacity="1" /><path clip-path="url(#clip870)" d="M2031.41 507.451 L2039.05 507.451 L2039.05 481.085 L2030.74 482.752 L2030.74 478.493 L2039.01 476.826 L2043.68 476.826 L2043.68 507.451 L2051.32 507.451 L2051.32 511.386 L2031.41 511.386 L2031.41 507.451 Z" fill="#000000" fill-rule="nonzero" fill-opacity="1" /><path clip-path="url(#clip870)" d="M2002.78 254.659 Q1999.17 254.659 1997.34 258.224 Q1995.53 261.766 1995.53 268.895 Q1995.53 276.002 1997.34 279.567 Q1999.17 283.108 2002.78 283.108 Q2006.41 283.108 2008.22 279.567 Q2010.05 276.002 2010.05 268.895 Q2010.05 261.766 2008.22 258.224 Q2006.41 254.659 2002.78 254.659 M2002.78 250.956 Q2008.59 250.956 2011.65 255.562 Q2014.72 260.145 2014.72 268.895 Q2014.72 277.622 2011.65 282.229 Q2008.59 286.812 2002.78 286.812 Q1996.97 286.812 1993.89 282.229 Q1990.84 277.622 1990.84 268.895 Q1990.84 260.145 1993.89 255.562 Q1996.97 250.956 2002.78 250.956 Z" fill="#000000" fill-rule="nonzero" fill-opacity="1" /><path clip-path="url(#clip870)" d="M1991.51 56.9601 L1999.15 56.9601 L1999.15 30.5945 L1990.84 32.2612 L1990.84 28.002 L1999.1 26.3353 L2003.78 26.3353 L2003.78 56.9601 L2011.41 56.9601 L2011.41 60.8953 L1991.51 60.8953 L1991.51 56.9601 Z" fill="#000000" fill-rule="nonzero" fill-opacity="1" /><polyline clip-path="url(#clip870)" style="stroke:#000000; stroke-linecap:round; stroke-linejoin:round; stroke-width:4; stroke-opacity:1; fill:none" points="1959.16,1173.47 1959.16,1173.47 1980.28,1173.47 1959.16,1173.47 1959.16,948.225 1980.28,948.225 1959.16,948.225 1959.16,722.98 1980.28,722.98 1959.16,722.98 1959.16,497.735 1980.28,497.735 1959.16,497.735 1959.16,272.489 1980.28,272.489 1959.16,272.489 1959.16,47.2441 1980.28,47.2441 1959.16,47.2441 "/>
</svg>
