<?xml version="1.0" encoding="utf-8"?>
<svg xmlns="http://www.w3.org/2000/svg" xmlns:xlink="http://www.w3.org/1999/xlink" width="528" height="336" viewBox="0 0 2112 1344">
<defs>
  <clipPath id="clip510">
    <rect x="0" y="0" width="2112" height="1344"/>
  </clipPath>
</defs>
<path clip-path="url(#clip510)" d="M0 1344 L2112 1344 L2112 0 L0 0  Z" fill="#ffffff" fill-rule="evenodd" fill-opacity="1"/>
<defs>
  <clipPath id="clip511">
    <rect x="422" y="0" width="1479" height="1344"/>
  </clipPath>
</defs>
<path clip-path="url(#clip510)" d="M144.598 1234.58 L2064.76 1234.58 L2064.76 47.2441 L144.598 47.2441  Z" fill="#ffffff" fill-rule="evenodd" fill-opacity="1"/>
<defs>
  <clipPath id="clip512">
    <rect x="144" y="47" width="1921" height="1188"/>
  </clipPath>
</defs>
<polyline clip-path="url(#clip512)" style="stroke:#000000; stroke-linecap:round; stroke-linejoin:round; stroke-width:2; stroke-opacity:0.1; fill:none" points="383.916,1234.58 383.916,47.2441 "/>
<polyline clip-path="url(#clip512)" style="stroke:#000000; stroke-linecap:round; stroke-linejoin:round; stroke-width:2; stroke-opacity:0.1; fill:none" points="744.296,1234.58 744.296,47.2441 "/>
<polyline clip-path="url(#clip512)" style="stroke:#000000; stroke-linecap:round; stroke-linejoin:round; stroke-width:2; stroke-opacity:0.1; fill:none" points="1104.68,1234.58 1104.68,47.2441 "/>
<polyline clip-path="url(#clip512)" style="stroke:#000000; stroke-linecap:round; stroke-linejoin:round; stroke-width:2; stroke-opacity:0.1; fill:none" points="1465.06,1234.58 1465.06,47.2441 "/>
<polyline clip-path="url(#clip512)" style="stroke:#000000; stroke-linecap:round; stroke-linejoin:round; stroke-width:2; stroke-opacity:0.1; fill:none" points="1825.44,1234.58 1825.44,47.2441 "/>
<polyline clip-path="url(#clip512)" style="stroke:#000000; stroke-linecap:round; stroke-linejoin:round; stroke-width:2; stroke-opacity:0.1; fill:none" points="144.598,1201.01 2064.76,1201.01 "/>
<polyline clip-path="url(#clip512)" style="stroke:#000000; stroke-linecap:round; stroke-linejoin:round; stroke-width:2; stroke-opacity:0.1; fill:none" points="144.598,976.967 2064.76,976.967 "/>
<polyline clip-path="url(#clip512)" style="stroke:#000000; stroke-linecap:round; stroke-linejoin:round; stroke-width:2; stroke-opacity:0.1; fill:none" points="144.598,752.927 2064.76,752.927 "/>
<polyline clip-path="url(#clip512)" style="stroke:#000000; stroke-linecap:round; stroke-linejoin:round; stroke-width:2; stroke-opacity:0.1; fill:none" points="144.598,528.886 2064.76,528.886 "/>
<polyline clip-path="url(#clip512)" style="stroke:#000000; stroke-linecap:round; stroke-linejoin:round; stroke-width:2; stroke-opacity:0.1; fill:none" points="144.598,304.845 2064.76,304.845 "/>
<polyline clip-path="url(#clip512)" style="stroke:#000000; stroke-linecap:round; stroke-linejoin:round; stroke-width:2; stroke-opacity:0.1; fill:none" points="144.598,80.8046 2064.76,80.8046 "/>
<polyline clip-path="url(#clip510)" style="stroke:#000000; stroke-linecap:round; stroke-linejoin:round; stroke-width:4; stroke-opacity:1; fill:none" points="144.598,1234.58 2064.76,1234.58 "/>
<polyline clip-path="url(#clip510)" style="stroke:#000000; stroke-linecap:round; stroke-linejoin:round; stroke-width:4; stroke-opacity:1; fill:none" points="383.916,1234.58 383.916,1215.68 "/>
<polyline clip-path="url(#clip510)" style="stroke:#000000; stroke-linecap:round; stroke-linejoin:round; stroke-width:4; stroke-opacity:1; fill:none" points="744.296,1234.58 744.296,1215.68 "/>
<polyline clip-path="url(#clip510)" style="stroke:#000000; stroke-linecap:round; stroke-linejoin:round; stroke-width:4; stroke-opacity:1; fill:none" points="1104.68,1234.58 1104.68,1215.68 "/>
<polyline clip-path="url(#clip510)" style="stroke:#000000; stroke-linecap:round; stroke-linejoin:round; stroke-width:4; stroke-opacity:1; fill:none" points="1465.06,1234.58 1465.06,1215.68 "/>
<polyline clip-path="url(#clip510)" style="stroke:#000000; stroke-linecap:round; stroke-linejoin:round; stroke-width:4; stroke-opacity:1; fill:none" points="1825.44,1234.58 1825.44,1215.68 "/>
<path clip-path="url(#clip510)" d="M330.444 1277.85 L360.12 1277.85 L360.12 1281.78 L330.444 1281.78 L330.444 1277.85 Z" fill="#000000" fill-rule="nonzero" fill-opacity="1" /><path clip-path="url(#clip510)" d="M370.259 1260.11 L388.615 1260.11 L388.615 1264.05 L374.541 1264.05 L374.541 1272.52 Q375.56 1272.17 376.578 1272.01 Q377.597 1271.83 378.615 1271.83 Q384.402 1271.83 387.782 1275 Q391.161 1278.17 391.161 1283.59 Q391.161 1289.17 387.689 1292.27 Q384.217 1295.35 377.897 1295.35 Q375.722 1295.35 373.453 1294.98 Q371.208 1294.61 368.8 1293.86 L368.8 1289.17 Q370.884 1290.3 373.106 1290.86 Q375.328 1291.41 377.805 1291.41 Q381.81 1291.41 384.147 1289.3 Q386.485 1287.2 386.485 1283.59 Q386.485 1279.98 384.147 1277.87 Q381.81 1275.76 377.805 1275.76 Q375.93 1275.76 374.055 1276.18 Q372.203 1276.6 370.259 1277.48 L370.259 1260.11 Z" fill="#000000" fill-rule="nonzero" fill-opacity="1" /><path clip-path="url(#clip510)" d="M400.374 1288.8 L405.258 1288.8 L405.258 1294.67 L400.374 1294.67 L400.374 1288.8 Z" fill="#000000" fill-rule="nonzero" fill-opacity="1" /><path clip-path="url(#clip510)" d="M425.444 1263.19 Q421.832 1263.19 420.004 1266.76 Q418.198 1270.3 418.198 1277.43 Q418.198 1284.54 420.004 1288.1 Q421.832 1291.64 425.444 1291.64 Q429.078 1291.64 430.883 1288.1 Q432.712 1284.54 432.712 1277.43 Q432.712 1270.3 430.883 1266.76 Q429.078 1263.19 425.444 1263.19 M425.444 1259.49 Q431.254 1259.49 434.309 1264.1 Q437.388 1268.68 437.388 1277.43 Q437.388 1286.16 434.309 1290.76 Q431.254 1295.35 425.444 1295.35 Q419.633 1295.35 416.555 1290.76 Q413.499 1286.16 413.499 1277.43 Q413.499 1268.68 416.555 1264.1 Q419.633 1259.49 425.444 1259.49 Z" fill="#000000" fill-rule="nonzero" fill-opacity="1" /><path clip-path="url(#clip510)" d="M691.322 1277.85 L720.998 1277.85 L720.998 1281.78 L691.322 1281.78 L691.322 1277.85 Z" fill="#000000" fill-rule="nonzero" fill-opacity="1" /><path clip-path="url(#clip510)" d="M735.118 1290.74 L751.438 1290.74 L751.438 1294.67 L729.493 1294.67 L729.493 1290.74 Q732.155 1287.99 736.739 1283.36 Q741.345 1278.7 742.526 1277.36 Q744.771 1274.84 745.651 1273.1 Q746.553 1271.34 746.553 1269.65 Q746.553 1266.9 744.609 1265.16 Q742.688 1263.42 739.586 1263.42 Q737.387 1263.42 734.933 1264.19 Q732.503 1264.95 729.725 1266.5 L729.725 1261.78 Q732.549 1260.65 735.003 1260.07 Q737.456 1259.49 739.493 1259.49 Q744.864 1259.49 748.058 1262.17 Q751.252 1264.86 751.252 1269.35 Q751.252 1271.48 750.442 1273.4 Q749.655 1275.3 747.549 1277.89 Q746.97 1278.56 743.868 1281.78 Q740.766 1284.98 735.118 1290.74 Z" fill="#000000" fill-rule="nonzero" fill-opacity="1" /><path clip-path="url(#clip510)" d="M761.252 1288.8 L766.137 1288.8 L766.137 1294.67 L761.252 1294.67 L761.252 1288.8 Z" fill="#000000" fill-rule="nonzero" fill-opacity="1" /><path clip-path="url(#clip510)" d="M776.368 1260.11 L794.724 1260.11 L794.724 1264.05 L780.65 1264.05 L780.65 1272.52 Q781.669 1272.17 782.687 1272.01 Q783.706 1271.83 784.724 1271.83 Q790.511 1271.83 793.891 1275 Q797.271 1278.17 797.271 1283.59 Q797.271 1289.17 793.798 1292.27 Q790.326 1295.35 784.007 1295.35 Q781.831 1295.35 779.562 1294.98 Q777.317 1294.61 774.91 1293.86 L774.91 1289.17 Q776.993 1290.3 779.215 1290.86 Q781.437 1291.41 783.914 1291.41 Q787.919 1291.41 790.257 1289.3 Q792.595 1287.2 792.595 1283.59 Q792.595 1279.98 790.257 1277.87 Q787.919 1275.76 783.914 1275.76 Q782.039 1275.76 780.164 1276.18 Q778.312 1276.6 776.368 1277.48 L776.368 1260.11 Z" fill="#000000" fill-rule="nonzero" fill-opacity="1" /><path clip-path="url(#clip510)" d="M1082.06 1263.19 Q1078.45 1263.19 1076.62 1266.76 Q1074.82 1270.3 1074.82 1277.43 Q1074.82 1284.54 1076.62 1288.1 Q1078.45 1291.64 1082.06 1291.64 Q1085.7 1291.64 1087.5 1288.1 Q1089.33 1284.54 1089.33 1277.43 Q1089.33 1270.3 1087.5 1266.76 Q1085.7 1263.19 1082.06 1263.19 M1082.06 1259.49 Q1087.87 1259.49 1090.93 1264.1 Q1094.01 1268.68 1094.01 1277.43 Q1094.01 1286.16 1090.93 1290.76 Q1087.87 1295.35 1082.06 1295.35 Q1076.25 1295.35 1073.17 1290.76 Q1070.12 1286.16 1070.12 1277.43 Q1070.12 1268.68 1073.17 1264.1 Q1076.25 1259.49 1082.06 1259.49 Z" fill="#000000" fill-rule="nonzero" fill-opacity="1" /><path clip-path="url(#clip510)" d="M1102.22 1288.8 L1107.11 1288.8 L1107.11 1294.67 L1102.22 1294.67 L1102.22 1288.8 Z" fill="#000000" fill-rule="nonzero" fill-opacity="1" /><path clip-path="url(#clip510)" d="M1127.29 1263.19 Q1123.68 1263.19 1121.85 1266.76 Q1120.05 1270.3 1120.05 1277.43 Q1120.05 1284.54 1121.85 1288.1 Q1123.68 1291.64 1127.29 1291.64 Q1130.93 1291.64 1132.73 1288.1 Q1134.56 1284.54 1134.56 1277.43 Q1134.56 1270.3 1132.73 1266.76 Q1130.93 1263.19 1127.29 1263.19 M1127.29 1259.49 Q1133.1 1259.49 1136.16 1264.1 Q1139.24 1268.68 1139.24 1277.43 Q1139.24 1286.16 1136.16 1290.76 Q1133.1 1295.35 1127.29 1295.35 Q1121.48 1295.35 1118.4 1290.76 Q1115.35 1286.16 1115.35 1277.43 Q1115.35 1268.68 1118.4 1264.1 Q1121.48 1259.49 1127.29 1259.49 Z" fill="#000000" fill-rule="nonzero" fill-opacity="1" /><path clip-path="url(#clip510)" d="M1436.79 1290.74 L1453.11 1290.74 L1453.11 1294.67 L1431.17 1294.67 L1431.17 1290.74 Q1433.83 1287.99 1438.41 1283.36 Q1443.02 1278.7 1444.2 1277.36 Q1446.45 1274.84 1447.33 1273.1 Q1448.23 1271.34 1448.23 1269.65 Q1448.23 1266.9 1446.28 1265.16 Q1444.36 1263.42 1441.26 1263.42 Q1439.06 1263.42 1436.61 1264.19 Q1434.18 1264.95 1431.4 1266.5 L1431.4 1261.78 Q1434.22 1260.65 1436.68 1260.07 Q1439.13 1259.49 1441.17 1259.49 Q1446.54 1259.49 1449.73 1262.17 Q1452.93 1264.86 1452.93 1269.35 Q1452.93 1271.48 1452.12 1273.4 Q1451.33 1275.3 1449.22 1277.89 Q1448.65 1278.56 1445.54 1281.78 Q1442.44 1284.98 1436.79 1290.74 Z" fill="#000000" fill-rule="nonzero" fill-opacity="1" /><path clip-path="url(#clip510)" d="M1462.93 1288.8 L1467.81 1288.8 L1467.81 1294.67 L1462.93 1294.67 L1462.93 1288.8 Z" fill="#000000" fill-rule="nonzero" fill-opacity="1" /><path clip-path="url(#clip510)" d="M1478.04 1260.11 L1496.4 1260.11 L1496.4 1264.05 L1482.33 1264.05 L1482.33 1272.52 Q1483.34 1272.17 1484.36 1272.01 Q1485.38 1271.83 1486.4 1271.83 Q1492.19 1271.83 1495.57 1275 Q1498.95 1278.17 1498.95 1283.59 Q1498.95 1289.17 1495.47 1292.27 Q1492 1295.35 1485.68 1295.35 Q1483.51 1295.35 1481.24 1294.98 Q1478.99 1294.61 1476.59 1293.86 L1476.59 1289.17 Q1478.67 1290.3 1480.89 1290.86 Q1483.11 1291.41 1485.59 1291.41 Q1489.59 1291.41 1491.93 1289.3 Q1494.27 1287.2 1494.27 1283.59 Q1494.27 1279.98 1491.93 1277.87 Q1489.59 1275.76 1485.59 1275.76 Q1483.71 1275.76 1481.84 1276.18 Q1479.99 1276.6 1478.04 1277.48 L1478.04 1260.11 Z" fill="#000000" fill-rule="nonzero" fill-opacity="1" /><path clip-path="url(#clip510)" d="M1792.6 1260.11 L1810.96 1260.11 L1810.96 1264.05 L1796.88 1264.05 L1796.88 1272.52 Q1797.9 1272.17 1798.92 1272.01 Q1799.94 1271.83 1800.96 1271.83 Q1806.75 1271.83 1810.13 1275 Q1813.51 1278.17 1813.51 1283.59 Q1813.51 1289.17 1810.03 1292.27 Q1806.56 1295.35 1800.24 1295.35 Q1798.07 1295.35 1795.8 1294.98 Q1793.55 1294.61 1791.14 1293.86 L1791.14 1289.17 Q1793.23 1290.3 1795.45 1290.86 Q1797.67 1291.41 1800.15 1291.41 Q1804.15 1291.41 1806.49 1289.3 Q1808.83 1287.2 1808.83 1283.59 Q1808.83 1279.98 1806.49 1277.87 Q1804.15 1275.76 1800.15 1275.76 Q1798.27 1275.76 1796.4 1276.18 Q1794.55 1276.6 1792.6 1277.48 L1792.6 1260.11 Z" fill="#000000" fill-rule="nonzero" fill-opacity="1" /><path clip-path="url(#clip510)" d="M1822.72 1288.8 L1827.6 1288.8 L1827.6 1294.67 L1822.72 1294.67 L1822.72 1288.8 Z" fill="#000000" fill-rule="nonzero" fill-opacity="1" /><path clip-path="url(#clip510)" d="M1847.79 1263.19 Q1844.18 1263.19 1842.35 1266.76 Q1840.54 1270.3 1840.54 1277.43 Q1840.54 1284.54 1842.35 1288.1 Q1844.18 1291.64 1847.79 1291.64 Q1851.42 1291.64 1853.23 1288.1 Q1855.06 1284.54 1855.06 1277.43 Q1855.06 1270.3 1853.23 1266.76 Q1851.42 1263.19 1847.79 1263.19 M1847.79 1259.49 Q1853.6 1259.49 1856.65 1264.1 Q1859.73 1268.68 1859.73 1277.43 Q1859.73 1286.16 1856.65 1290.76 Q1853.6 1295.35 1847.79 1295.35 Q1841.98 1295.35 1838.9 1290.76 Q1835.84 1286.16 1835.84 1277.43 Q1835.84 1268.68 1838.9 1264.1 Q1841.98 1259.49 1847.79 1259.49 Z" fill="#000000" fill-rule="nonzero" fill-opacity="1" /><polyline clip-path="url(#clip510)" style="stroke:#000000; stroke-linecap:round; stroke-linejoin:round; stroke-width:4; stroke-opacity:1; fill:none" points="144.598,1234.58 144.598,47.2441 "/>
<polyline clip-path="url(#clip510)" style="stroke:#000000; stroke-linecap:round; stroke-linejoin:round; stroke-width:4; stroke-opacity:1; fill:none" points="144.598,1201.01 163.496,1201.01 "/>
<polyline clip-path="url(#clip510)" style="stroke:#000000; stroke-linecap:round; stroke-linejoin:round; stroke-width:4; stroke-opacity:1; fill:none" points="144.598,976.967 163.496,976.967 "/>
<polyline clip-path="url(#clip510)" style="stroke:#000000; stroke-linecap:round; stroke-linejoin:round; stroke-width:4; stroke-opacity:1; fill:none" points="144.598,752.927 163.496,752.927 "/>
<polyline clip-path="url(#clip510)" style="stroke:#000000; stroke-linecap:round; stroke-linejoin:round; stroke-width:4; stroke-opacity:1; fill:none" points="144.598,528.886 163.496,528.886 "/>
<polyline clip-path="url(#clip510)" style="stroke:#000000; stroke-linecap:round; stroke-linejoin:round; stroke-width:4; stroke-opacity:1; fill:none" points="144.598,304.845 163.496,304.845 "/>
<polyline clip-path="url(#clip510)" style="stroke:#000000; stroke-linecap:round; stroke-linejoin:round; stroke-width:4; stroke-opacity:1; fill:none" points="144.598,80.8046 163.496,80.8046 "/>
<path clip-path="url(#clip510)" d="M52.8025 1201.46 L82.4783 1201.46 L82.4783 1205.39 L52.8025 1205.39 L52.8025 1201.46 Z" fill="#000000" fill-rule="nonzero" fill-opacity="1" /><path clip-path="url(#clip510)" d="M96.5986 1214.35 L112.918 1214.35 L112.918 1218.29 L90.9736 1218.29 L90.9736 1214.35 Q93.6356 1211.6 98.2189 1206.97 Q102.825 1202.32 104.006 1200.97 Q106.251 1198.45 107.131 1196.71 Q108.034 1194.95 108.034 1193.27 Q108.034 1190.51 106.089 1188.77 Q104.168 1187.04 101.066 1187.04 Q98.8671 1187.04 96.4134 1187.8 Q93.9828 1188.57 91.2051 1190.12 L91.2051 1185.39 Q94.0291 1184.26 96.4828 1183.68 Q98.9365 1183.1 100.974 1183.1 Q106.344 1183.1 109.538 1185.79 Q112.733 1188.47 112.733 1192.96 Q112.733 1195.09 111.923 1197.02 Q111.136 1198.91 109.029 1201.51 Q108.45 1202.18 105.349 1205.39 Q102.247 1208.59 96.5986 1214.35 Z" fill="#000000" fill-rule="nonzero" fill-opacity="1" /><path clip-path="url(#clip510)" d="M52.4321 977.419 L82.1079 977.419 L82.1079 981.354 L52.4321 981.354 L52.4321 977.419 Z" fill="#000000" fill-rule="nonzero" fill-opacity="1" /><path clip-path="url(#clip510)" d="M93.0106 990.312 L100.649 990.312 L100.649 963.947 L92.3393 965.613 L92.3393 961.354 L100.603 959.687 L105.279 959.687 L105.279 990.312 L112.918 990.312 L112.918 994.247 L93.0106 994.247 L93.0106 990.312 Z" fill="#000000" fill-rule="nonzero" fill-opacity="1" /><path clip-path="url(#clip510)" d="M100.974 738.725 Q97.3624 738.725 95.5337 742.29 Q93.7282 745.832 93.7282 752.961 Q93.7282 760.068 95.5337 763.633 Q97.3624 767.174 100.974 767.174 Q104.608 767.174 106.413 763.633 Q108.242 760.068 108.242 752.961 Q108.242 745.832 106.413 742.29 Q104.608 738.725 100.974 738.725 M100.974 735.022 Q106.784 735.022 109.839 739.628 Q112.918 744.212 112.918 752.961 Q112.918 761.688 109.839 766.295 Q106.784 770.878 100.974 770.878 Q95.1634 770.878 92.0847 766.295 Q89.0292 761.688 89.0292 752.961 Q89.0292 744.212 92.0847 739.628 Q95.1634 735.022 100.974 735.022 Z" fill="#000000" fill-rule="nonzero" fill-opacity="1" /><path clip-path="url(#clip510)" d="M93.0106 542.231 L100.649 542.231 L100.649 515.865 L92.3393 517.532 L92.3393 513.273 L100.603 511.606 L105.279 511.606 L105.279 542.231 L112.918 542.231 L112.918 546.166 L93.0106 546.166 L93.0106 542.231 Z" fill="#000000" fill-rule="nonzero" fill-opacity="1" /><path clip-path="url(#clip510)" d="M96.5986 318.19 L112.918 318.19 L112.918 322.125 L90.9736 322.125 L90.9736 318.19 Q93.6356 315.436 98.2189 310.806 Q102.825 306.153 104.006 304.811 Q106.251 302.287 107.131 300.551 Q108.034 298.792 108.034 297.102 Q108.034 294.348 106.089 292.612 Q104.168 290.875 101.066 290.875 Q98.8671 290.875 96.4134 291.639 Q93.9828 292.403 91.2051 293.954 L91.2051 289.232 Q94.0291 288.098 96.4828 287.519 Q98.9365 286.94 100.974 286.94 Q106.344 286.94 109.538 289.625 Q112.733 292.311 112.733 296.801 Q112.733 298.931 111.923 300.852 Q111.136 302.75 109.029 305.343 Q108.45 306.014 105.349 309.232 Q102.247 312.426 96.5986 318.19 Z" fill="#000000" fill-rule="nonzero" fill-opacity="1" /><path clip-path="url(#clip510)" d="M105.788 79.4504 Q109.145 80.168 111.02 82.4365 Q112.918 84.705 112.918 88.0383 Q112.918 93.154 109.399 95.9549 Q105.881 98.7559 99.3995 98.7559 Q97.2236 98.7559 94.9088 98.316 Q92.6171 97.8994 90.1634 97.0429 L90.1634 92.529 Q92.1078 93.6633 94.4226 94.242 Q96.7374 94.8207 99.2606 94.8207 Q103.659 94.8207 105.95 93.0846 Q108.265 91.3485 108.265 88.0383 Q108.265 84.9828 106.112 83.2698 Q103.983 81.5337 100.163 81.5337 L96.1356 81.5337 L96.1356 77.6912 L100.349 77.6912 Q103.798 77.6912 105.626 76.3254 Q107.455 74.9365 107.455 72.344 Q107.455 69.6819 105.557 68.2699 Q103.682 66.8347 100.163 66.8347 Q98.2421 66.8347 96.043 67.2514 Q93.8439 67.6681 91.2051 68.5477 L91.2051 64.381 Q93.8671 63.6403 96.1819 63.2699 Q98.5198 62.8996 100.58 62.8996 Q105.904 62.8996 109.006 65.3301 Q112.108 67.7375 112.108 71.8579 Q112.108 74.7282 110.464 76.7189 Q108.821 78.6865 105.788 79.4504 Z" fill="#000000" fill-rule="nonzero" fill-opacity="1" /><polyline clip-path="url(#clip512)" style="stroke:#009af9; stroke-linecap:round; stroke-linejoin:round; stroke-width:4; stroke-opacity:1; fill:none" points="198.942,752.927 203.874,745.263 208.805,737.609 213.737,729.973 218.669,722.363 232.08,701.877 245.49,681.832 258.901,662.402 272.312,643.756 285.723,626.053 299.133,609.448 305.839,601.602 312.544,594.083 319.25,586.908 325.955,580.092 333.318,573.04 340.68,566.456 348.043,560.359 355.406,554.764 362.769,549.686 370.131,545.138 377.494,541.132 384.857,537.678 392.226,534.784 399.596,532.459 406.966,530.711 414.335,529.543 421.705,528.959 429.074,528.96 436.444,529.546 443.814,530.716 451.214,532.475 458.614,534.815 466.013,537.73 473.413,541.211 480.813,545.251 488.213,549.837 495.613,554.959 503.013,560.602 509.88,566.292 516.747,572.406 523.614,578.929 530.481,585.847 537.348,593.145 544.215,600.804 551.082,608.809 557.949,617.141 565.384,626.509 572.819,636.212 580.254,646.227 587.689,656.525 602.558,677.862 617.428,699.997 651.847,752.985 686.265,805.969 699.285,825.386 712.305,844.213 725.325,862.295 738.344,879.486 746.212,889.382 754.079,898.872 761.947,907.927 769.815,916.521 777.682,924.628 785.55,932.223 793.417,939.285 801.285,945.791 809.485,951.961 817.686,957.487 825.887,962.352 834.087,966.539 842.288,970.034 850.488,972.827 858.689,974.909 866.889,976.273 873.444,976.843 879.998,976.951 886.553,976.595 893.107,975.777 899.662,974.499 906.216,972.762 912.77,970.572 919.325,967.931 927.354,964.091 935.383,959.596 943.413,954.46 951.442,948.698 959.471,942.33 967.501,935.374 975.53,927.853 983.559,919.788 991.707,911.075 999.856,901.857 1008,892.164 1016.15,882.025 1024.3,871.474 1032.45,860.545 1040.6,849.272 1048.75,837.69 1063.24,816.439 1077.74,794.546 1092.24,772.232 1106.74,749.723 1133.3,708.728 1159.87,669.229 1168.83,656.478 1177.79,644.099 1186.76,632.141 1195.72,620.65 1204.68,609.67 1213.64,599.244 1222.61,589.411 1231.57,580.211 1238.35,573.691 1245.13,567.568 1251.92,561.855 1258.7,556.565 1265.48,551.709 1272.26,547.299 1279.04,543.343 1285.82,539.852 1292.9,536.711 1299.97,534.092 1307.05,532 1314.12,530.44 1321.2,529.415 1328.28,528.929 1335.35,528.983 1342.43,529.576 1350.73,530.959 1359.04,533.079 1367.35,535.93 1375.66,539.501 1383.97,543.781 1392.28,548.756 1400.59,554.41 1408.9,560.722 1415.7,566.361 1422.49,572.415 1429.29,578.87 1436.09,585.712 1442.88,592.926 1449.68,600.495 1456.48,608.403 1463.27,616.632 1471.03,626.399 1478.8,636.533 1486.56,647.005 1494.32,657.783 1509.84,680.135 1525.37,703.33 1553.9,747.265 1582.44,791.421 1599.73,817.565 1617.03,842.779 1625.68,854.923 1634.33,866.701 1642.98,878.069 1651.63,888.986 1658.74,897.607 1665.86,905.875 1672.98,913.77 1680.1,921.273 1687.22,928.365 1694.34,935.03 1701.46,941.25 1708.58,947.012 1716.71,953.017 1724.85,958.384 1732.99,963.097 1741.13,967.141 1749.26,970.502 1757.4,973.17 1765.54,975.137 1773.67,976.395 1780.01,976.883 1786.35,976.937 1792.69,976.558 1799.03,975.746 1805.37,974.504 1811.71,972.833 1818.05,970.737 1824.39,968.219 1832.49,964.4 1840.59,959.914 1848.68,954.776 1856.78,949.001 1864.87,942.608 1872.97,935.616 1881.06,928.049 1889.16,919.93 1896.02,912.631 1902.89,904.971 1909.75,896.965 1916.62,888.633 1923.48,879.993 1930.35,871.065 1937.21,861.87 1944.07,852.427 1957.8,832.887 1971.53,812.622 1985.26,791.815 1998.99,770.657 2001.85,766.23 2004.7,761.799 2007.56,757.364 2010.41,752.927 "/>
<polyline clip-path="url(#clip512)" style="stroke:#e26f46; stroke-linecap:round; stroke-linejoin:round; stroke-width:4; stroke-opacity:1; fill:none" points="198.942,549.207 203.874,552.515 208.805,556.058 213.737,559.831 218.669,563.831 225.374,569.622 232.08,575.81 238.785,582.382 245.49,589.322 252.196,596.616 258.901,604.248 265.606,612.202 272.312,620.461 285.723,637.819 299.133,656.173 312.544,675.363 325.955,695.224 355.406,740.346 384.857,785.99 399.596,808.435 414.335,830.3 429.074,851.356 443.814,871.385 451.214,880.986 458.614,890.251 466.013,899.153 473.413,907.67 480.813,915.779 488.213,923.46 495.613,930.691 503.013,937.454 509.88,943.295 516.747,948.704 523.614,953.669 530.481,958.179 537.348,962.222 544.215,965.791 551.082,968.877 557.949,971.474 565.384,973.725 572.819,975.389 580.254,976.462 587.689,976.94 595.124,976.823 602.558,976.109 609.993,974.803 617.428,972.906 626.033,969.981 634.637,966.283 643.242,961.825 651.847,956.622 660.451,950.694 669.056,944.062 677.661,936.749 686.265,928.781 692.775,922.335 699.285,915.544 705.795,908.421 712.305,900.981 718.815,893.239 725.325,885.21 731.834,876.913 738.344,868.362 754.079,846.757 769.815,824.035 785.55,800.467 801.285,776.333 817.686,750.885 834.087,725.464 850.488,700.398 866.889,676.011 879.998,657.22 893.107,639.219 906.216,622.158 919.325,606.178 927.354,596.981 935.383,588.268 943.413,580.066 951.442,572.399 959.471,565.293 967.501,558.768 975.53,552.846 983.559,547.544 991.707,542.815 999.856,538.757 1008,535.384 1016.15,532.705 1024.3,530.73 1032.45,529.464 1040.6,528.912 1048.75,529.076 1055.99,529.823 1063.24,531.134 1070.49,533.006 1077.74,535.433 1084.99,538.411 1092.24,541.931 1099.49,545.985 1106.74,550.561 1113.38,555.204 1120.02,560.265 1126.66,565.736 1133.3,571.604 1139.94,577.857 1146.59,584.481 1153.23,591.463 1159.87,598.787 1168.83,609.188 1177.79,620.144 1186.76,631.613 1195.72,643.551 1204.68,655.911 1213.64,668.647 1222.61,681.708 1231.57,695.045 1258.7,736.555 1285.82,778.644 1299.97,800.332 1314.12,821.564 1328.28,842.135 1342.43,861.848 1350.73,872.946 1359.04,883.645 1367.35,893.91 1375.66,903.707 1383.97,913.003 1392.28,921.768 1400.59,929.971 1408.9,937.587 1415.7,943.361 1422.49,948.712 1429.29,953.627 1436.09,958.097 1442.88,962.111 1449.68,965.66 1456.48,968.735 1463.27,971.332 1471.03,973.703 1478.8,975.434 1486.56,976.52 1494.32,976.958 1502.08,976.746 1509.84,975.886 1517.6,974.38 1525.37,972.231 1532.5,969.696 1539.63,966.63 1546.77,963.041 1553.9,958.937 1561.03,954.329 1568.17,949.228 1575.3,943.646 1582.44,937.597 1591.08,929.659 1599.73,921.085 1608.38,911.905 1617.03,902.153 1625.68,891.865 1634.33,881.076 1642.98,869.826 1651.63,858.156 1665.86,838.139 1680.1,817.292 1694.34,795.817 1708.58,773.924 1724.85,748.662 1741.13,723.454 1757.4,698.621 1773.67,674.479 1786.35,656.347 1799.03,638.961 1811.71,622.457 1824.39,606.961 1832.49,597.652 1840.59,588.831 1848.68,580.528 1856.78,572.769 1864.87,565.578 1872.97,558.977 1881.06,552.988 1889.16,547.629 1896.02,543.592 1902.89,540.029 1909.75,536.949 1916.62,534.358 1923.48,532.263 1930.35,530.668 1937.21,529.578 1944.07,528.994 1950.94,528.917 1957.8,529.348 1964.67,530.287 1971.53,531.73 1978.4,533.674 1985.26,536.116 1992.13,539.049 1998.99,542.468 2001.85,544.03 2004.7,545.675 2007.56,547.401 2010.41,549.207 "/>
<polyline clip-path="url(#clip512)" style="stroke:#3da44d; stroke-linecap:round; stroke-linejoin:round; stroke-width:4; stroke-opacity:1; fill:none" points="198.942,304.845 203.874,297.182 208.805,289.528 213.737,281.891 218.669,274.282 232.08,253.795 245.49,233.751 258.901,214.321 272.312,195.674 285.723,177.972 299.133,161.366 305.839,153.52 312.544,146.002 319.25,138.827 325.955,132.011 333.318,124.958 340.68,118.375 348.043,112.278 355.406,106.683 362.769,101.605 370.131,97.0567 377.494,93.0506 384.857,89.597 392.226,86.7024 399.596,84.3777 406.966,82.6292 414.335,81.4613 421.705,80.8772 429.074,80.8783 436.444,81.4646 443.814,82.6347 451.214,84.3938 458.614,86.7337 466.013,89.6483 473.413,93.1298 480.813,97.1691 488.213,101.756 495.613,106.877 503.013,112.52 509.88,118.211 516.747,124.324 523.614,130.848 530.481,137.766 537.348,145.063 544.215,152.723 551.082,160.728 557.949,169.06 565.384,178.427 572.819,188.131 580.254,198.145 587.689,208.443 602.558,229.78 617.428,251.915 651.847,304.903 686.265,357.888 699.285,377.305 712.305,396.131 725.325,414.213 738.344,431.404 746.212,441.301 754.079,450.791 761.947,459.846 769.815,468.44 777.682,476.547 785.55,484.142 793.417,491.203 801.285,497.71 809.485,503.88 817.686,509.406 825.887,514.27 834.087,518.457 842.288,521.953 850.488,524.746 858.689,526.828 866.889,528.191 873.444,528.762 879.998,528.869 886.553,528.514 893.107,527.696 899.662,526.418 906.216,524.681 912.77,522.49 919.325,519.849 927.354,516.009 935.383,511.514 943.413,506.378 951.442,500.617 959.471,494.249 967.501,487.293 975.53,479.771 983.559,471.707 991.707,462.994 999.856,453.776 1008,444.082 1016.15,433.944 1024.3,423.393 1032.45,412.463 1040.6,401.19 1048.75,389.609 1063.24,368.358 1077.74,346.464 1092.24,324.15 1106.74,301.641 1133.3,260.646 1159.87,221.148 1168.83,208.397 1177.79,196.018 1186.76,184.06 1195.72,172.569 1204.68,161.589 1213.64,151.162 1222.61,141.33 1231.57,132.129 1238.35,125.61 1245.13,119.486 1251.92,113.773 1258.7,108.483 1265.48,103.628 1272.26,99.2172 1279.04,95.2618 1285.82,91.7702 1292.9,88.63 1299.97,86.0107 1307.05,83.9184 1314.12,82.3582 1321.2,81.3339 1328.28,80.8479 1335.35,80.9015 1342.43,81.4944 1350.73,82.8774 1359.04,84.9977 1367.35,87.8483 1375.66,91.4197 1383.97,95.6999 1392.28,100.675 1400.59,106.328 1408.9,112.641 1415.7,118.28 1422.49,124.334 1429.29,130.789 1436.09,137.631 1442.88,144.844 1449.68,152.414 1456.48,160.322 1463.27,168.551 1471.03,178.318 1478.8,188.452 1486.56,198.923 1494.32,209.702 1509.84,232.054 1525.37,255.249 1553.9,299.184 1582.44,343.34 1599.73,369.483 1617.03,394.697 1625.68,406.842 1634.33,418.619 1642.98,429.987 1651.63,440.905 1658.74,449.526 1665.86,457.794 1672.98,465.689 1680.1,473.191 1687.22,480.284 1694.34,486.948 1701.46,493.169 1708.58,498.93 1716.71,504.935 1724.85,510.303 1732.99,515.016 1741.13,519.06 1749.26,522.421 1757.4,525.089 1765.54,527.055 1773.67,528.314 1780.01,528.801 1786.35,528.856 1792.69,528.477 1799.03,527.665 1805.37,526.423 1811.71,524.752 1818.05,522.655 1824.39,520.138 1832.49,516.319 1840.59,511.833 1848.68,506.694 1856.78,500.919 1864.87,494.526 1872.97,487.535 1881.06,479.968 1889.16,471.849 1896.02,464.55 1902.89,456.889 1909.75,448.884 1916.62,440.552 1923.48,431.912 1930.35,422.984 1937.21,413.788 1944.07,404.346 1957.8,384.805 1971.53,364.54 1985.26,343.734 1998.99,322.575 2001.85,318.149 2004.7,313.717 2007.56,309.282 2010.41,304.845 "/>
<polyline clip-path="url(#clip512)" style="stroke:#c271d2; stroke-linecap:round; stroke-linejoin:round; stroke-width:4; stroke-opacity:1; fill:none" points="198.942,752.927 203.874,737.609 208.805,722.363 213.737,707.26 218.669,692.371 225.374,672.594 232.08,653.513 238.785,635.291 245.49,618.087 248.843,609.913 252.196,602.048 255.548,594.51 258.901,587.315 262.254,580.478 265.606,574.014 268.959,567.937 272.312,562.261 275.665,556.996 279.017,552.156 282.37,547.75 285.723,543.788 289.075,540.278 292.428,537.228 295.781,534.645 299.133,532.535 302.486,530.9 305.839,529.747 309.191,529.076 312.544,528.889 315.897,529.187 319.25,529.969 322.602,531.234 325.955,532.978 329.636,535.441 333.318,538.471 336.999,542.06 340.68,546.2 344.362,550.878 348.043,556.084 351.724,561.803 355.406,568.02 359.087,574.72 362.769,581.885 366.45,589.495 370.131,597.532 373.813,605.975 377.494,614.8 381.175,623.986 384.857,633.508 392.226,653.48 399.596,674.491 406.966,696.321 414.335,718.742 429.074,764.419 443.814,809.616 451.214,831.532 458.614,852.62 462.313,862.783 466.013,872.658 469.713,882.217 473.413,891.435 477.113,900.288 480.813,908.753 484.513,916.808 488.213,924.431 491.913,931.602 495.613,938.302 499.313,944.514 503.013,950.221 506.447,955.052 509.88,959.425 513.314,963.329 516.747,966.756 520.181,969.697 523.614,972.147 527.048,974.1 530.481,975.55 533.915,976.496 537.348,976.934 540.782,976.864 544.215,976.286 547.649,975.201 551.082,973.612 554.516,971.522 557.949,968.936 561.667,965.584 565.384,961.667 569.102,957.194 572.819,952.178 576.537,946.632 580.254,940.571 583.971,934.011 587.689,926.97 591.406,919.465 595.124,911.517 598.841,903.148 602.558,894.379 606.276,885.234 609.993,875.738 613.711,865.914 617.428,855.79 626.033,831.354 634.637,805.801 643.242,779.495 651.847,752.811 660.451,726.129 669.056,699.828 677.661,674.283 686.265,649.858 692.775,632.336 699.285,615.796 702.54,607.938 705.795,600.375 709.05,593.123 712.305,586.197 715.56,579.611 718.815,573.379 722.07,567.512 725.325,562.024 728.579,556.925 731.834,552.225 735.089,547.935 738.344,544.063 742.278,539.952 746.212,536.476 750.146,533.644 754.079,531.465 758.013,529.946 761.947,529.09 765.881,528.902 769.815,529.38 773.748,530.524 777.682,532.331 781.616,534.794 785.55,537.907 789.484,541.661 793.417,546.043 797.351,551.042 801.285,556.642 805.385,563.101 809.485,570.174 813.586,577.838 817.686,586.069 821.786,594.839 825.887,604.121 829.987,613.885 834.087,624.098 838.187,634.728 842.288,645.741 846.388,657.1 850.488,668.77 858.689,692.887 866.889,717.78 879.998,758.381 893.107,798.803 899.662,818.528 906.216,837.711 912.77,856.193 919.325,873.822 923.34,884.135 927.354,894.042 931.369,903.51 935.383,912.512 939.398,921.019 943.413,929.004 947.427,936.443 951.442,943.313 955.457,949.593 959.471,955.262 963.486,960.304 967.501,964.702 971.515,968.444 975.53,971.518 979.544,973.913 983.559,975.623 987.633,976.652 991.707,976.966 995.782,976.565 999.856,975.449 1003.93,973.623 1008,971.091 1012.08,967.863 1016.15,963.948 1020.23,959.359 1024.3,954.111 1028.37,948.22 1032.45,941.705 1036.52,934.588 1040.6,926.889 1044.67,918.636 1048.75,909.853 1052.37,901.616 1055.99,893.004 1059.62,884.038 1063.24,874.74 1066.87,865.135 1070.49,855.245 1074.12,845.097 1077.74,834.716 1084.99,813.36 1092.24,791.393 1099.49,769.037 1106.74,746.519 1113.38,725.94 1120.02,705.591 1126.66,685.643 1133.3,666.266 1139.94,647.624 1146.59,629.875 1153.23,613.171 1159.87,597.652 1164.35,587.917 1168.83,578.819 1173.31,570.394 1177.79,562.675 1182.27,555.691 1186.76,549.469 1191.24,544.034 1195.72,539.406 1200.2,535.603 1204.68,532.639 1209.16,530.528 1213.64,529.275 1218.13,528.887 1222.61,529.365 1227.09,530.707 1231.57,532.907 1234.96,535.138 1238.35,537.851 1241.74,541.039 1245.13,544.696 1248.52,548.815 1251.92,553.385 1255.31,558.396 1258.7,563.838 1262.09,569.698 1265.48,575.964 1268.87,582.621 1272.26,589.655 1275.65,597.051 1279.04,604.791 1282.43,612.859 1285.82,621.237 1292.9,639.635 1299.97,659.124 1307.05,679.516 1314.12,700.614 1328.28,744.115 1342.43,787.954 1350.73,813.175 1359.04,837.597 1363.2,849.406 1367.35,860.895 1371.51,872.025 1375.66,882.759 1379.82,893.062 1383.97,902.9 1388.13,912.24 1392.28,921.05 1396.44,929.302 1400.59,936.968 1404.74,944.023 1408.9,950.442 1412.3,955.207 1415.7,959.522 1419.09,963.377 1422.49,966.765 1425.89,969.678 1429.29,972.108 1432.69,974.052 1436.09,975.504 1439.48,976.462 1442.88,976.922 1446.28,976.885 1449.68,976.35 1453.08,975.319 1456.48,973.793 1459.87,971.776 1463.27,969.273 1467.15,965.826 1471.03,961.763 1474.91,957.094 1478.8,951.833 1482.68,945.996 1486.56,939.6 1490.44,932.662 1494.32,925.203 1498.2,917.245 1502.08,908.81 1505.96,899.924 1509.84,890.612 1513.72,880.9 1517.6,870.818 1521.49,860.394 1525.37,849.658 1532.5,829.217 1539.63,808.028 1546.77,786.3 1553.9,764.246 1561.03,742.081 1568.17,720.022 1575.3,698.285 1582.44,677.083 1586.76,664.578 1591.08,652.392 1595.41,640.568 1599.73,629.148 1604.06,618.173 1608.38,607.683 1612.71,597.716 1617.03,588.308 1621.36,579.492 1625.68,571.3 1630,563.761 1634.33,556.904 1638.65,550.751 1642.98,545.327 1647.3,540.649 1651.63,536.735 1655.19,534.097 1658.74,531.992 1662.3,530.426 1665.86,529.403 1669.42,528.925 1672.98,528.992 1676.54,529.606 1680.1,530.765 1683.66,532.465 1687.22,534.702 1690.78,537.472 1694.34,540.767 1697.9,544.58 1701.46,548.9 1705.02,553.718 1708.58,559.022 1712.65,565.663 1716.71,572.9 1720.78,580.71 1724.85,589.07 1728.92,597.951 1732.99,607.326 1737.06,617.164 1741.13,627.436 1745.19,638.107 1749.26,649.144 1753.33,660.511 1757.4,672.173 1765.54,696.23 1773.67,721.009 1786.35,760.313 1799.03,799.389 1805.37,818.463 1811.71,837.03 1818.05,854.947 1824.39,872.076 1828.44,882.537 1832.49,892.59 1836.54,902.203 1840.59,911.344 1844.63,919.987 1848.68,928.102 1852.73,935.666 1856.78,942.653 1860.82,949.042 1864.87,954.813 1868.92,959.947 1872.97,964.428 1877.01,968.243 1881.06,971.378 1885.11,973.825 1889.16,975.576 1892.59,976.51 1896.02,976.938 1899.45,976.857 1902.89,976.269 1906.32,975.175 1909.75,973.576 1913.18,971.478 1916.62,968.883 1920.05,965.8 1923.48,962.233 1926.91,958.192 1930.35,953.685 1933.78,948.724 1937.21,943.318 1940.64,937.481 1944.07,931.225 1947.51,924.565 1950.94,917.516 1954.37,910.094 1957.8,902.315 1961.24,894.197 1964.67,885.76 1968.1,877.021 1971.53,868.001 1978.4,849.198 1985.26,829.523 1992.13,809.154 1998.99,788.276 2001.85,779.487 2004.7,770.657 2007.56,761.799 2010.41,752.927 "/>
<polyline clip-path="url(#clip512)" style="stroke:#ac8d18; stroke-linecap:round; stroke-linejoin:round; stroke-width:4; stroke-opacity:1; fill:none" points="198.942,752.927 203.874,737.6 208.805,722.291 213.737,707.018 218.669,691.799 232.08,650.827 245.49,610.738 258.901,571.878 272.312,534.584 285.723,499.179 299.133,465.968 305.839,450.277 312.544,435.24 319.25,420.89 325.955,407.258 333.318,393.153 340.68,379.986 348.043,367.791 355.406,356.602 362.769,346.445 370.131,337.349 377.494,329.337 384.857,322.43 392.226,316.641 399.596,311.992 406.966,308.495 414.335,306.159 421.705,304.991 429.074,304.993 436.444,306.165 443.814,308.506 451.214,312.024 458.614,316.704 466.013,322.533 473.413,329.496 480.813,337.574 488.213,346.747 495.613,356.991 503.013,368.277 509.88,379.657 516.747,391.885 523.614,404.932 530.481,418.768 537.348,433.362 544.215,448.682 551.082,464.692 557.949,481.355 565.384,500.09 572.819,519.498 580.254,539.526 587.689,560.122 602.558,602.797 617.428,647.067 651.847,753.042 686.265,859.012 699.285,897.846 712.305,935.499 725.325,971.663 738.344,1006.04 746.212,1025.84 754.079,1044.82 761.947,1062.93 769.815,1080.12 777.682,1096.33 785.55,1111.52 793.417,1125.64 801.285,1138.66 809.485,1151 817.686,1162.05 825.887,1171.78 834.087,1180.15 842.288,1187.14 850.488,1192.73 858.689,1196.89 866.889,1199.62 873.444,1200.76 879.998,1200.97 886.553,1200.26 893.107,1198.63 899.662,1196.07 906.216,1192.6 912.77,1188.22 919.325,1182.93 927.354,1175.25 935.383,1166.26 943.413,1155.99 951.442,1144.47 959.471,1131.73 967.501,1117.82 975.53,1102.78 983.559,1086.65 991.707,1069.22 999.856,1050.79 1008,1031.4 1016.15,1011.12 1024.3,990.022 1032.45,968.163 1040.6,945.616 1048.75,922.454 1063.24,879.951 1077.74,836.165 1092.24,791.537 1106.74,746.518 1133.3,664.528 1159.87,585.532 1168.83,560.029 1177.79,535.272 1186.76,511.356 1195.72,488.374 1204.68,466.414 1213.64,445.561 1222.61,425.896 1231.57,407.495 1238.35,394.455 1245.13,382.209 1251.92,370.783 1258.7,360.203 1265.48,350.491 1272.26,341.671 1279.04,333.76 1285.82,326.777 1292.9,320.496 1299.97,315.257 1307.05,311.073 1314.12,307.953 1321.2,305.904 1328.28,304.932 1335.35,305.039 1342.43,306.225 1350.73,308.991 1359.04,313.232 1367.35,318.933 1375.66,326.075 1383.97,334.636 1392.28,344.586 1400.59,355.892 1408.9,368.518 1415.7,379.796 1422.49,391.904 1429.29,404.814 1436.09,418.498 1442.88,432.925 1449.68,448.063 1456.48,463.879 1463.27,480.338 1471.03,499.872 1478.8,520.14 1486.56,541.083 1494.32,562.639 1509.84,607.343 1525.37,653.734 1553.9,741.604 1582.44,829.916 1599.73,882.203 1617.03,932.631 1625.68,956.92 1634.33,980.475 1642.98,1003.21 1651.63,1025.05 1658.74,1042.29 1665.86,1058.82 1672.98,1074.61 1680.1,1089.62 1687.22,1103.8 1694.34,1117.13 1701.46,1129.57 1708.58,1141.1 1716.71,1153.11 1724.85,1163.84 1732.99,1173.27 1741.13,1181.36 1749.26,1188.08 1757.4,1193.41 1765.54,1197.35 1773.67,1199.86 1780.01,1200.84 1786.35,1200.95 1792.69,1200.19 1799.03,1198.57 1805.37,1196.08 1811.71,1192.74 1818.05,1188.55 1824.39,1183.51 1832.49,1175.87 1840.59,1166.9 1848.68,1156.62 1856.78,1145.07 1864.87,1132.29 1872.97,1118.31 1881.06,1103.17 1889.16,1086.93 1896.02,1072.34 1902.89,1057.01 1909.75,1041 1916.62,1024.34 1923.48,1007.06 1930.35,989.204 1937.21,970.813 1944.07,951.927 1957.8,912.847 1971.53,872.316 1985.26,830.704 1998.99,788.387 2001.85,779.534 2004.7,770.671 2007.56,761.8 2010.41,752.927 "/>
<path clip-path="url(#clip510)" d="M1594.74 397.862 L2000.75 397.862 L2000.75 86.8219 L1594.74 86.8219  Z" fill="#ffffff" fill-rule="evenodd" fill-opacity="1"/>
<polyline clip-path="url(#clip510)" style="stroke:#000000; stroke-linecap:round; stroke-linejoin:round; stroke-width:4; stroke-opacity:1; fill:none" points="1594.74,397.862 2000.75,397.862 2000.75,86.8219 1594.74,86.8219 1594.74,397.862 "/>
<polyline clip-path="url(#clip510)" style="stroke:#009af9; stroke-linecap:round; stroke-linejoin:round; stroke-width:4; stroke-opacity:1; fill:none" points="1616.07,138.662 1744.08,138.662 "/>
<path clip-path="url(#clip510)" d="M1765.42 149.903 L1765.42 143.579 Q1765.42 143.04 1765.44 142.852 Q1765.47 142.665 1765.61 142.525 Q1765.75 142.384 1766.03 142.384 Q1766.36 142.384 1766.47 142.525 Q1766.61 142.665 1766.71 143.204 Q1767.43 146.506 1768.98 148.263 Q1770.55 149.996 1773.38 149.996 Q1776.08 149.996 1777.43 148.802 Q1778.79 147.607 1778.79 145.64 Q1778.79 142.126 1773.8 141.236 Q1770.92 140.651 1769.73 140.276 Q1768.53 139.878 1767.48 139.011 Q1765.42 137.325 1765.42 134.936 Q1765.42 132.547 1767.22 130.79 Q1769.05 129.033 1773.08 129.033 Q1775.77 129.033 1777.6 130.392 Q1778.14 129.97 1778.42 129.619 Q1779.05 129.033 1779.38 129.033 Q1779.75 129.033 1779.82 129.291 Q1779.89 129.525 1779.89 130.204 L1779.89 135.029 Q1779.89 135.568 1779.87 135.755 Q1779.85 135.943 1779.71 136.083 Q1779.57 136.201 1779.26 136.201 Q1778.72 136.201 1778.7 135.755 Q1778.32 129.947 1773.08 129.947 Q1770.24 129.947 1768.98 131.048 Q1767.71 132.125 1767.71 133.601 Q1767.71 134.42 1768.09 135.053 Q1768.49 135.662 1768.98 136.037 Q1769.49 136.388 1770.43 136.739 Q1771.37 137.067 1771.93 137.184 Q1772.52 137.301 1773.62 137.536 Q1777.46 138.262 1779.07 139.831 Q1781.09 141.845 1781.09 144.398 Q1781.09 147.232 1779.17 149.153 Q1777.25 151.074 1773.38 151.074 Q1770.27 151.074 1768.09 148.989 Q1767.81 149.27 1767.6 149.528 Q1767.39 149.762 1767.29 149.856 Q1767.22 149.949 1767.2 150.02 Q1767.17 150.067 1767.13 150.113 Q1766.17 151.074 1765.93 151.074 Q1765.56 151.074 1765.49 150.816 Q1765.42 150.582 1765.42 149.903 Z" fill="#000000" fill-rule="nonzero" fill-opacity="1" /><path clip-path="url(#clip510)" d="M1783.92 139.972 Q1783.92 135.451 1786.83 132.242 Q1789.73 129.033 1793.9 129.033 Q1798.12 129.033 1800.29 131.774 Q1802.5 134.514 1802.5 138.449 Q1802.5 139.175 1802.31 139.316 Q1802.12 139.456 1801.3 139.456 L1787.9 139.456 Q1787.9 144.352 1789.36 146.647 Q1791.37 149.856 1794.77 149.856 Q1795.24 149.856 1795.8 149.762 Q1796.36 149.668 1797.51 149.27 Q1798.66 148.849 1799.66 147.748 Q1800.67 146.647 1801.26 144.914 Q1801.4 144.234 1801.86 144.258 Q1802.5 144.258 1802.5 144.82 Q1802.5 145.242 1802.03 146.202 Q1801.58 147.139 1800.72 148.263 Q1799.85 149.387 1798.16 150.231 Q1796.5 151.074 1794.49 151.074 Q1790.27 151.074 1787.08 147.888 Q1783.92 144.679 1783.92 139.972 M1787.95 138.449 L1799.33 138.449 Q1799.33 137.442 1799.15 136.318 Q1798.98 135.193 1798.47 133.647 Q1797.98 132.078 1796.8 131.094 Q1795.63 130.111 1793.9 130.111 Q1793.13 130.111 1792.28 130.439 Q1791.46 130.766 1790.46 131.563 Q1789.45 132.359 1788.75 134.163 Q1788.04 135.966 1787.95 138.449 Z" fill="#000000" fill-rule="nonzero" fill-opacity="1" /><path clip-path="url(#clip510)" d="M1804.05 150.535 L1804.05 149.059 Q1806.6 149.059 1807.19 148.755 Q1807.77 148.427 1807.77 146.881 L1807.77 134.022 Q1807.77 132.242 1807.14 131.797 Q1806.53 131.352 1804.05 131.352 L1804.05 129.853 L1810.79 129.338 L1810.79 134.374 Q1813.04 129.338 1817.89 129.338 Q1821.5 129.338 1822.93 131.118 Q1823.98 132.312 1824.19 133.647 Q1824.43 134.983 1824.43 138.449 L1824.43 147.607 Q1824.47 148.614 1825.25 148.849 Q1826.02 149.059 1828.17 149.059 L1828.17 150.535 Q1823.28 150.395 1822.79 150.395 Q1822.41 150.395 1817.38 150.535 L1817.38 149.059 Q1819.93 149.059 1820.51 148.755 Q1821.12 148.427 1821.12 146.881 L1821.12 135.709 Q1821.12 133.273 1820.37 131.844 Q1819.62 130.392 1817.56 130.392 Q1815.08 130.392 1813.09 132.476 Q1811.1 134.561 1811.1 138.074 L1811.1 146.881 Q1811.1 148.427 1811.68 148.755 Q1812.29 149.059 1814.82 149.059 L1814.82 150.535 Q1809.93 150.395 1809.46 150.395 Q1809.08 150.395 1804.05 150.535 Z" fill="#000000" fill-rule="nonzero" fill-opacity="1" /><path clip-path="url(#clip510)" d="M1830.4 138.543 Q1830.4 130.439 1833.42 123.904 Q1834.71 121.163 1836.51 118.868 Q1838.32 116.572 1839.51 115.565 Q1840.7 114.558 1841.03 114.558 Q1841.5 114.558 1841.52 115.027 Q1841.52 115.261 1840.89 115.846 Q1833.16 123.716 1833.19 138.543 Q1833.19 153.416 1840.7 160.981 Q1841.52 161.801 1841.52 162.059 Q1841.52 162.527 1841.03 162.527 Q1840.7 162.527 1839.56 161.567 Q1838.41 160.607 1836.63 158.405 Q1834.85 156.203 1833.56 153.51 Q1830.4 146.975 1830.4 138.543 Z" fill="#000000" fill-rule="nonzero" fill-opacity="1" /><path clip-path="url(#clip510)" d="M1869.06 132.5 Q1869.06 133.811 1868.24 134.561 Q1867.42 135.287 1866.48 135.287 Q1865.59 135.287 1865.12 134.772 Q1864.66 134.256 1864.66 133.601 Q1864.66 132.711 1865.31 131.938 Q1865.97 131.165 1866.95 131.001 Q1865.99 130.392 1864.56 130.392 Q1863.63 130.392 1862.81 130.884 Q1862.01 131.375 1861.52 132.008 Q1861.05 132.64 1860.63 133.554 Q1860.23 134.444 1860.07 134.983 Q1859.93 135.498 1859.81 136.06 L1858.17 142.618 Q1857.37 145.733 1857.37 146.834 Q1857.37 148.193 1858.03 149.106 Q1858.68 149.996 1860 149.996 Q1860.51 149.996 1861.1 149.856 Q1861.68 149.692 1862.43 149.27 Q1863.2 148.825 1863.88 148.169 Q1864.59 147.49 1865.27 146.342 Q1865.94 145.195 1866.39 143.719 Q1866.53 143.204 1867 143.204 Q1867.58 143.204 1867.58 143.672 Q1867.58 144.07 1867.26 144.914 Q1866.95 145.733 1866.27 146.811 Q1865.62 147.865 1864.75 148.825 Q1863.88 149.762 1862.6 150.418 Q1861.31 151.074 1859.9 151.074 Q1857.89 151.074 1856.55 149.996 Q1855.22 148.919 1854.73 147.42 Q1854.61 147.631 1854.44 147.912 Q1854.28 148.193 1853.79 148.825 Q1853.32 149.434 1852.78 149.903 Q1852.24 150.348 1851.4 150.699 Q1850.58 151.074 1849.69 151.074 Q1848.57 151.074 1847.56 150.746 Q1846.57 150.418 1845.87 149.668 Q1845.17 148.919 1845.17 147.888 Q1845.17 146.741 1845.94 145.944 Q1846.74 145.124 1847.82 145.124 Q1848.5 145.124 1849.03 145.523 Q1849.6 145.921 1849.6 146.787 Q1849.6 147.748 1848.94 148.474 Q1848.28 149.2 1847.35 149.387 Q1848.31 149.996 1849.74 149.996 Q1851.28 149.996 1852.5 148.638 Q1853.72 147.279 1854.3 145.007 Q1855.76 139.55 1856.32 137.114 Q1856.88 134.655 1856.88 133.601 Q1856.88 132.617 1856.62 131.938 Q1856.36 131.258 1855.92 130.954 Q1855.5 130.626 1855.1 130.509 Q1854.73 130.392 1854.3 130.392 Q1853.6 130.392 1852.8 130.673 Q1852.03 130.954 1851.09 131.61 Q1850.18 132.242 1849.31 133.554 Q1848.45 134.865 1847.86 136.669 Q1847.75 137.208 1847.23 137.208 Q1846.67 137.184 1846.67 136.716 Q1846.67 136.318 1846.97 135.498 Q1847.3 134.655 1847.96 133.601 Q1848.64 132.547 1849.5 131.61 Q1850.39 130.649 1851.68 129.994 Q1852.99 129.338 1854.4 129.338 Q1855.03 129.338 1855.64 129.478 Q1856.27 129.595 1857.02 129.947 Q1857.79 130.298 1858.47 131.071 Q1859.15 131.844 1859.57 132.968 Q1859.85 132.429 1860.23 131.914 Q1860.63 131.399 1861.24 130.766 Q1861.87 130.111 1862.74 129.736 Q1863.63 129.338 1864.61 129.338 Q1865.57 129.338 1866.51 129.595 Q1867.44 129.83 1868.24 130.603 Q1869.06 131.352 1869.06 132.5 Z" fill="#000000" fill-rule="nonzero" fill-opacity="1" /><path clip-path="url(#clip510)" d="M1873.68 162.059 Q1873.68 161.825 1874.29 161.239 Q1882.01 153.369 1882.01 138.543 Q1882.01 123.669 1874.59 116.151 Q1873.68 115.284 1873.68 115.027 Q1873.68 114.558 1874.14 114.558 Q1874.47 114.558 1875.62 115.518 Q1876.79 116.479 1878.55 118.681 Q1880.33 120.882 1881.64 123.576 Q1884.8 130.111 1884.8 138.543 Q1884.8 146.647 1881.78 153.182 Q1880.49 155.922 1878.69 158.218 Q1876.88 160.513 1875.69 161.52 Q1874.5 162.527 1874.14 162.527 Q1873.68 162.527 1873.68 162.059 Z" fill="#000000" fill-rule="nonzero" fill-opacity="1" /><polyline clip-path="url(#clip510)" style="stroke:#e26f46; stroke-linecap:round; stroke-linejoin:round; stroke-width:4; stroke-opacity:1; fill:none" points="1616.07,190.502 1744.08,190.502 "/>
<path clip-path="url(#clip510)" d="M1765.42 201.743 L1765.42 195.419 Q1765.42 194.88 1765.44 194.692 Q1765.47 194.505 1765.61 194.365 Q1765.75 194.224 1766.03 194.224 Q1766.36 194.224 1766.47 194.365 Q1766.61 194.505 1766.71 195.044 Q1767.43 198.346 1768.98 200.103 Q1770.55 201.836 1773.38 201.836 Q1776.08 201.836 1777.43 200.642 Q1778.79 199.447 1778.79 197.48 Q1778.79 193.966 1773.8 193.076 Q1770.92 192.491 1769.73 192.116 Q1768.53 191.718 1767.48 190.851 Q1765.42 189.165 1765.42 186.776 Q1765.42 184.387 1767.22 182.63 Q1769.05 180.873 1773.08 180.873 Q1775.77 180.873 1777.6 182.232 Q1778.14 181.81 1778.42 181.459 Q1779.05 180.873 1779.38 180.873 Q1779.75 180.873 1779.82 181.131 Q1779.89 181.365 1779.89 182.044 L1779.89 186.869 Q1779.89 187.408 1779.87 187.595 Q1779.85 187.783 1779.71 187.923 Q1779.57 188.041 1779.26 188.041 Q1778.72 188.041 1778.7 187.595 Q1778.32 181.787 1773.08 181.787 Q1770.24 181.787 1768.98 182.888 Q1767.71 183.965 1767.71 185.441 Q1767.71 186.26 1768.09 186.893 Q1768.49 187.502 1768.98 187.877 Q1769.49 188.228 1770.43 188.579 Q1771.37 188.907 1771.93 189.024 Q1772.52 189.141 1773.62 189.376 Q1777.46 190.102 1779.07 191.671 Q1781.09 193.685 1781.09 196.238 Q1781.09 199.072 1779.17 200.993 Q1777.25 202.914 1773.38 202.914 Q1770.27 202.914 1768.09 200.829 Q1767.81 201.11 1767.6 201.368 Q1767.39 201.602 1767.29 201.696 Q1767.22 201.789 1767.2 201.86 Q1767.17 201.907 1767.13 201.953 Q1766.17 202.914 1765.93 202.914 Q1765.56 202.914 1765.49 202.656 Q1765.42 202.422 1765.42 201.743 Z" fill="#000000" fill-rule="nonzero" fill-opacity="1" /><path clip-path="url(#clip510)" d="M1783.92 191.812 Q1783.92 187.291 1786.83 184.082 Q1789.73 180.873 1793.9 180.873 Q1798.12 180.873 1800.29 183.614 Q1802.5 186.354 1802.5 190.289 Q1802.5 191.015 1802.31 191.156 Q1802.12 191.296 1801.3 191.296 L1787.9 191.296 Q1787.9 196.192 1789.36 198.487 Q1791.37 201.696 1794.77 201.696 Q1795.24 201.696 1795.8 201.602 Q1796.36 201.508 1797.51 201.11 Q1798.66 200.689 1799.66 199.588 Q1800.67 198.487 1801.26 196.754 Q1801.4 196.074 1801.86 196.098 Q1802.5 196.098 1802.5 196.66 Q1802.5 197.082 1802.03 198.042 Q1801.58 198.979 1800.72 200.103 Q1799.85 201.227 1798.16 202.071 Q1796.5 202.914 1794.49 202.914 Q1790.27 202.914 1787.08 199.728 Q1783.92 196.519 1783.92 191.812 M1787.95 190.289 L1799.33 190.289 Q1799.33 189.282 1799.15 188.158 Q1798.98 187.033 1798.47 185.487 Q1797.98 183.918 1796.8 182.934 Q1795.63 181.951 1793.9 181.951 Q1793.13 181.951 1792.28 182.279 Q1791.46 182.606 1790.46 183.403 Q1789.45 184.199 1788.75 186.003 Q1788.04 187.806 1787.95 190.289 Z" fill="#000000" fill-rule="nonzero" fill-opacity="1" /><path clip-path="url(#clip510)" d="M1804.05 202.375 L1804.05 200.899 Q1806.6 200.899 1807.19 200.595 Q1807.77 200.267 1807.77 198.721 L1807.77 185.862 Q1807.77 184.082 1807.14 183.637 Q1806.53 183.192 1804.05 183.192 L1804.05 181.693 L1810.79 181.178 L1810.79 186.214 Q1813.04 181.178 1817.89 181.178 Q1821.5 181.178 1822.93 182.958 Q1823.98 184.152 1824.19 185.487 Q1824.43 186.823 1824.43 190.289 L1824.43 199.447 Q1824.47 200.454 1825.25 200.689 Q1826.02 200.899 1828.17 200.899 L1828.17 202.375 Q1823.28 202.235 1822.79 202.235 Q1822.41 202.235 1817.38 202.375 L1817.38 200.899 Q1819.93 200.899 1820.51 200.595 Q1821.12 200.267 1821.12 198.721 L1821.12 187.549 Q1821.12 185.113 1820.37 183.684 Q1819.62 182.232 1817.56 182.232 Q1815.08 182.232 1813.09 184.316 Q1811.1 186.401 1811.1 189.914 L1811.1 198.721 Q1811.1 200.267 1811.68 200.595 Q1812.29 200.899 1814.82 200.899 L1814.82 202.375 Q1809.93 202.235 1809.46 202.235 Q1809.08 202.235 1804.05 202.375 Z" fill="#000000" fill-rule="nonzero" fill-opacity="1" /><path clip-path="url(#clip510)" d="M1830.4 190.383 Q1830.4 182.279 1833.42 175.744 Q1834.71 173.003 1836.51 170.708 Q1838.32 168.412 1839.51 167.405 Q1840.7 166.398 1841.03 166.398 Q1841.5 166.398 1841.52 166.867 Q1841.52 167.101 1840.89 167.686 Q1833.16 175.556 1833.19 190.383 Q1833.19 205.256 1840.7 212.821 Q1841.52 213.641 1841.52 213.899 Q1841.52 214.367 1841.03 214.367 Q1840.7 214.367 1839.56 213.407 Q1838.41 212.447 1836.63 210.245 Q1834.85 208.043 1833.56 205.35 Q1830.4 198.815 1830.4 190.383 Z" fill="#000000" fill-rule="nonzero" fill-opacity="1" /><path clip-path="url(#clip510)" d="M1869.06 184.34 Q1869.06 185.651 1868.24 186.401 Q1867.42 187.127 1866.48 187.127 Q1865.59 187.127 1865.12 186.612 Q1864.66 186.096 1864.66 185.441 Q1864.66 184.551 1865.31 183.778 Q1865.97 183.005 1866.95 182.841 Q1865.99 182.232 1864.56 182.232 Q1863.63 182.232 1862.81 182.724 Q1862.01 183.215 1861.52 183.848 Q1861.05 184.48 1860.63 185.394 Q1860.23 186.284 1860.07 186.823 Q1859.93 187.338 1859.81 187.9 L1858.17 194.458 Q1857.37 197.573 1857.37 198.674 Q1857.37 200.033 1858.03 200.946 Q1858.68 201.836 1860 201.836 Q1860.51 201.836 1861.1 201.696 Q1861.68 201.532 1862.43 201.11 Q1863.2 200.665 1863.88 200.009 Q1864.59 199.33 1865.27 198.182 Q1865.94 197.035 1866.39 195.559 Q1866.53 195.044 1867 195.044 Q1867.58 195.044 1867.58 195.512 Q1867.58 195.91 1867.26 196.754 Q1866.95 197.573 1866.27 198.651 Q1865.62 199.705 1864.75 200.665 Q1863.88 201.602 1862.6 202.258 Q1861.31 202.914 1859.9 202.914 Q1857.89 202.914 1856.55 201.836 Q1855.22 200.759 1854.73 199.26 Q1854.61 199.471 1854.44 199.752 Q1854.28 200.033 1853.79 200.665 Q1853.32 201.274 1852.78 201.743 Q1852.24 202.188 1851.4 202.539 Q1850.58 202.914 1849.69 202.914 Q1848.57 202.914 1847.56 202.586 Q1846.57 202.258 1845.87 201.508 Q1845.17 200.759 1845.17 199.728 Q1845.17 198.581 1845.94 197.784 Q1846.74 196.964 1847.82 196.964 Q1848.5 196.964 1849.03 197.363 Q1849.6 197.761 1849.6 198.627 Q1849.6 199.588 1848.94 200.314 Q1848.28 201.04 1847.35 201.227 Q1848.31 201.836 1849.74 201.836 Q1851.28 201.836 1852.5 200.478 Q1853.72 199.119 1854.3 196.847 Q1855.76 191.39 1856.32 188.954 Q1856.88 186.495 1856.88 185.441 Q1856.88 184.457 1856.62 183.778 Q1856.36 183.098 1855.92 182.794 Q1855.5 182.466 1855.1 182.349 Q1854.73 182.232 1854.3 182.232 Q1853.6 182.232 1852.8 182.513 Q1852.03 182.794 1851.09 183.45 Q1850.18 184.082 1849.31 185.394 Q1848.45 186.705 1847.86 188.509 Q1847.75 189.048 1847.23 189.048 Q1846.67 189.024 1846.67 188.556 Q1846.67 188.158 1846.97 187.338 Q1847.3 186.495 1847.96 185.441 Q1848.64 184.387 1849.5 183.45 Q1850.39 182.489 1851.68 181.834 Q1852.99 181.178 1854.4 181.178 Q1855.03 181.178 1855.64 181.318 Q1856.27 181.435 1857.02 181.787 Q1857.79 182.138 1858.47 182.911 Q1859.15 183.684 1859.57 184.808 Q1859.85 184.269 1860.23 183.754 Q1860.63 183.239 1861.24 182.606 Q1861.87 181.951 1862.74 181.576 Q1863.63 181.178 1864.61 181.178 Q1865.57 181.178 1866.51 181.435 Q1867.44 181.67 1868.24 182.443 Q1869.06 183.192 1869.06 184.34 Z" fill="#000000" fill-rule="nonzero" fill-opacity="1" /><path clip-path="url(#clip510)" d="M1886.74 190.968 Q1885.64 190.968 1885.64 190.383 Q1885.64 189.797 1886.79 189.797 Q1886.93 189.797 1887.16 189.821 Q1887.42 189.844 1887.47 189.844 L1900.98 189.844 L1900.98 176.282 Q1900.98 176.236 1900.96 176.025 Q1900.94 175.791 1900.94 175.65 Q1900.94 174.502 1901.5 174.502 Q1902.08 174.502 1902.08 175.65 L1902.08 189.844 L1915.62 189.844 Q1915.67 189.844 1915.9 189.821 Q1916.14 189.797 1916.28 189.797 Q1917.38 189.797 1917.38 190.383 Q1917.4 190.968 1916.23 190.968 Q1916.09 190.968 1915.88 190.945 Q1915.67 190.921 1915.62 190.921 L1902.08 190.921 L1902.08 205.162 Q1902.08 206.263 1901.5 206.263 Q1900.94 206.263 1900.94 205.115 Q1900.94 204.975 1900.96 204.741 Q1900.98 204.53 1900.98 204.483 L1900.98 190.921 L1887.47 190.921 Q1887.42 190.921 1887.14 190.945 Q1886.88 190.968 1886.74 190.968 Z" fill="#000000" fill-rule="nonzero" fill-opacity="1" /><path clip-path="url(#clip510)" d="M1935.9 202.375 Q1935.9 201.508 1935.97 201.251 Q1936.06 200.993 1936.44 200.595 L1945.64 190.336 Q1950.68 184.668 1950.68 179.726 Q1950.68 176.517 1948.99 174.221 Q1947.33 171.926 1944.26 171.926 Q1942.15 171.926 1940.37 173.214 Q1938.59 174.502 1937.77 176.798 Q1937.91 176.751 1938.41 176.751 Q1939.6 176.751 1940.26 177.5 Q1940.94 178.25 1940.94 179.257 Q1940.94 180.545 1940.09 181.178 Q1939.27 181.787 1938.45 181.787 Q1938.13 181.787 1937.68 181.716 Q1937.26 181.646 1936.58 180.99 Q1935.9 180.311 1935.9 179.117 Q1935.9 175.767 1938.43 173.097 Q1940.98 170.427 1944.87 170.427 Q1949.27 170.427 1952.16 173.05 Q1955.06 175.65 1955.06 179.726 Q1955.06 181.154 1954.62 182.466 Q1954.19 183.754 1953.61 184.761 Q1953.05 185.769 1951.5 187.385 Q1949.95 189.001 1948.71 190.149 Q1947.47 191.296 1944.68 193.732 L1939.6 198.674 L1948.24 198.674 Q1952.46 198.674 1952.79 198.3 Q1953.26 197.62 1953.84 194.037 L1955.06 194.037 L1953.7 202.375 L1935.9 202.375 Z" fill="#000000" fill-rule="nonzero" fill-opacity="1" /><path clip-path="url(#clip510)" d="M1960.81 213.899 Q1960.81 213.665 1961.41 213.079 Q1969.14 205.209 1969.14 190.383 Q1969.14 175.509 1961.72 167.991 Q1960.81 167.124 1960.81 166.867 Q1960.81 166.398 1961.27 166.398 Q1961.6 166.398 1962.75 167.358 Q1963.92 168.319 1965.68 170.521 Q1967.46 172.722 1968.77 175.416 Q1971.93 181.951 1971.93 190.383 Q1971.93 198.487 1968.91 205.022 Q1967.62 207.762 1965.82 210.058 Q1964.01 212.353 1962.82 213.36 Q1961.63 214.367 1961.27 214.367 Q1960.81 214.367 1960.81 213.899 Z" fill="#000000" fill-rule="nonzero" fill-opacity="1" /><polyline clip-path="url(#clip510)" style="stroke:#3da44d; stroke-linecap:round; stroke-linejoin:round; stroke-width:4; stroke-opacity:1; fill:none" points="1616.07,242.342 1744.08,242.342 "/>
<path clip-path="url(#clip510)" d="M1765.42 253.583 L1765.42 247.259 Q1765.42 246.72 1765.44 246.532 Q1765.47 246.345 1765.61 246.205 Q1765.75 246.064 1766.03 246.064 Q1766.36 246.064 1766.47 246.205 Q1766.61 246.345 1766.71 246.884 Q1767.43 250.186 1768.98 251.943 Q1770.55 253.676 1773.38 253.676 Q1776.08 253.676 1777.43 252.482 Q1778.79 251.287 1778.79 249.32 Q1778.79 245.806 1773.8 244.916 Q1770.92 244.331 1769.73 243.956 Q1768.53 243.558 1767.48 242.691 Q1765.42 241.005 1765.42 238.616 Q1765.42 236.227 1767.22 234.47 Q1769.05 232.713 1773.08 232.713 Q1775.77 232.713 1777.6 234.072 Q1778.14 233.65 1778.42 233.299 Q1779.05 232.713 1779.38 232.713 Q1779.75 232.713 1779.82 232.971 Q1779.89 233.205 1779.89 233.884 L1779.89 238.709 Q1779.89 239.248 1779.87 239.435 Q1779.85 239.623 1779.71 239.763 Q1779.57 239.881 1779.26 239.881 Q1778.72 239.881 1778.7 239.435 Q1778.32 233.627 1773.08 233.627 Q1770.24 233.627 1768.98 234.728 Q1767.71 235.805 1767.71 237.281 Q1767.71 238.1 1768.09 238.733 Q1768.49 239.342 1768.98 239.717 Q1769.49 240.068 1770.43 240.419 Q1771.37 240.747 1771.93 240.864 Q1772.52 240.981 1773.62 241.216 Q1777.46 241.942 1779.07 243.511 Q1781.09 245.525 1781.09 248.078 Q1781.09 250.912 1779.17 252.833 Q1777.25 254.754 1773.38 254.754 Q1770.27 254.754 1768.09 252.669 Q1767.81 252.95 1767.6 253.208 Q1767.39 253.442 1767.29 253.536 Q1767.22 253.629 1767.2 253.7 Q1767.17 253.747 1767.13 253.793 Q1766.17 254.754 1765.93 254.754 Q1765.56 254.754 1765.49 254.496 Q1765.42 254.262 1765.42 253.583 Z" fill="#000000" fill-rule="nonzero" fill-opacity="1" /><path clip-path="url(#clip510)" d="M1783.92 243.652 Q1783.92 239.131 1786.83 235.922 Q1789.73 232.713 1793.9 232.713 Q1798.12 232.713 1800.29 235.454 Q1802.5 238.194 1802.5 242.129 Q1802.5 242.855 1802.31 242.996 Q1802.12 243.136 1801.3 243.136 L1787.9 243.136 Q1787.9 248.032 1789.36 250.327 Q1791.37 253.536 1794.77 253.536 Q1795.24 253.536 1795.8 253.442 Q1796.36 253.348 1797.51 252.95 Q1798.66 252.529 1799.66 251.428 Q1800.67 250.327 1801.26 248.594 Q1801.4 247.914 1801.86 247.938 Q1802.5 247.938 1802.5 248.5 Q1802.5 248.922 1802.03 249.882 Q1801.58 250.819 1800.72 251.943 Q1799.85 253.067 1798.16 253.911 Q1796.5 254.754 1794.49 254.754 Q1790.27 254.754 1787.08 251.568 Q1783.92 248.359 1783.92 243.652 M1787.95 242.129 L1799.33 242.129 Q1799.33 241.122 1799.15 239.998 Q1798.98 238.873 1798.47 237.327 Q1797.98 235.758 1796.8 234.774 Q1795.63 233.791 1793.9 233.791 Q1793.13 233.791 1792.28 234.119 Q1791.46 234.446 1790.46 235.243 Q1789.45 236.039 1788.75 237.843 Q1788.04 239.646 1787.95 242.129 Z" fill="#000000" fill-rule="nonzero" fill-opacity="1" /><path clip-path="url(#clip510)" d="M1804.05 254.215 L1804.05 252.739 Q1806.6 252.739 1807.19 252.435 Q1807.77 252.107 1807.77 250.561 L1807.77 237.702 Q1807.77 235.922 1807.14 235.477 Q1806.53 235.032 1804.05 235.032 L1804.05 233.533 L1810.79 233.018 L1810.79 238.054 Q1813.04 233.018 1817.89 233.018 Q1821.5 233.018 1822.93 234.798 Q1823.98 235.992 1824.19 237.327 Q1824.43 238.663 1824.43 242.129 L1824.43 251.287 Q1824.47 252.294 1825.25 252.529 Q1826.02 252.739 1828.17 252.739 L1828.17 254.215 Q1823.28 254.075 1822.79 254.075 Q1822.41 254.075 1817.38 254.215 L1817.38 252.739 Q1819.93 252.739 1820.51 252.435 Q1821.12 252.107 1821.12 250.561 L1821.12 239.389 Q1821.12 236.953 1820.37 235.524 Q1819.62 234.072 1817.56 234.072 Q1815.08 234.072 1813.09 236.156 Q1811.1 238.241 1811.1 241.754 L1811.1 250.561 Q1811.1 252.107 1811.68 252.435 Q1812.29 252.739 1814.82 252.739 L1814.82 254.215 Q1809.93 254.075 1809.46 254.075 Q1809.08 254.075 1804.05 254.215 Z" fill="#000000" fill-rule="nonzero" fill-opacity="1" /><path clip-path="url(#clip510)" d="M1830.4 242.223 Q1830.4 234.119 1833.42 227.584 Q1834.71 224.843 1836.51 222.548 Q1838.32 220.252 1839.51 219.245 Q1840.7 218.238 1841.03 218.238 Q1841.5 218.238 1841.52 218.707 Q1841.52 218.941 1840.89 219.526 Q1833.16 227.396 1833.19 242.223 Q1833.19 257.096 1840.7 264.661 Q1841.52 265.481 1841.52 265.739 Q1841.52 266.207 1841.03 266.207 Q1840.7 266.207 1839.56 265.247 Q1838.41 264.287 1836.63 262.085 Q1834.85 259.883 1833.56 257.19 Q1830.4 250.655 1830.4 242.223 Z" fill="#000000" fill-rule="nonzero" fill-opacity="1" /><path clip-path="url(#clip510)" d="M1869.06 236.18 Q1869.06 237.491 1868.24 238.241 Q1867.42 238.967 1866.48 238.967 Q1865.59 238.967 1865.12 238.452 Q1864.66 237.936 1864.66 237.281 Q1864.66 236.391 1865.31 235.618 Q1865.97 234.845 1866.95 234.681 Q1865.99 234.072 1864.56 234.072 Q1863.63 234.072 1862.81 234.564 Q1862.01 235.055 1861.52 235.688 Q1861.05 236.32 1860.63 237.234 Q1860.23 238.124 1860.07 238.663 Q1859.93 239.178 1859.81 239.74 L1858.17 246.298 Q1857.37 249.413 1857.37 250.514 Q1857.37 251.873 1858.03 252.786 Q1858.68 253.676 1860 253.676 Q1860.51 253.676 1861.1 253.536 Q1861.68 253.372 1862.43 252.95 Q1863.2 252.505 1863.88 251.849 Q1864.59 251.17 1865.27 250.022 Q1865.94 248.875 1866.39 247.399 Q1866.53 246.884 1867 246.884 Q1867.58 246.884 1867.58 247.352 Q1867.58 247.75 1867.26 248.594 Q1866.95 249.413 1866.27 250.491 Q1865.62 251.545 1864.75 252.505 Q1863.88 253.442 1862.6 254.098 Q1861.31 254.754 1859.9 254.754 Q1857.89 254.754 1856.55 253.676 Q1855.22 252.599 1854.73 251.1 Q1854.61 251.311 1854.44 251.592 Q1854.28 251.873 1853.79 252.505 Q1853.32 253.114 1852.78 253.583 Q1852.24 254.028 1851.4 254.379 Q1850.58 254.754 1849.69 254.754 Q1848.57 254.754 1847.56 254.426 Q1846.57 254.098 1845.87 253.348 Q1845.17 252.599 1845.17 251.568 Q1845.17 250.421 1845.94 249.624 Q1846.74 248.804 1847.82 248.804 Q1848.5 248.804 1849.03 249.203 Q1849.6 249.601 1849.6 250.467 Q1849.6 251.428 1848.94 252.154 Q1848.28 252.88 1847.35 253.067 Q1848.31 253.676 1849.74 253.676 Q1851.28 253.676 1852.5 252.318 Q1853.72 250.959 1854.3 248.687 Q1855.76 243.23 1856.32 240.794 Q1856.88 238.335 1856.88 237.281 Q1856.88 236.297 1856.62 235.618 Q1856.36 234.938 1855.92 234.634 Q1855.5 234.306 1855.1 234.189 Q1854.73 234.072 1854.3 234.072 Q1853.6 234.072 1852.8 234.353 Q1852.03 234.634 1851.09 235.29 Q1850.18 235.922 1849.31 237.234 Q1848.45 238.545 1847.86 240.349 Q1847.75 240.888 1847.23 240.888 Q1846.67 240.864 1846.67 240.396 Q1846.67 239.998 1846.97 239.178 Q1847.3 238.335 1847.96 237.281 Q1848.64 236.227 1849.5 235.29 Q1850.39 234.329 1851.68 233.674 Q1852.99 233.018 1854.4 233.018 Q1855.03 233.018 1855.64 233.158 Q1856.27 233.275 1857.02 233.627 Q1857.79 233.978 1858.47 234.751 Q1859.15 235.524 1859.57 236.648 Q1859.85 236.109 1860.23 235.594 Q1860.63 235.079 1861.24 234.446 Q1861.87 233.791 1862.74 233.416 Q1863.63 233.018 1864.61 233.018 Q1865.57 233.018 1866.51 233.275 Q1867.44 233.51 1868.24 234.283 Q1869.06 235.032 1869.06 236.18 Z" fill="#000000" fill-rule="nonzero" fill-opacity="1" /><path clip-path="url(#clip510)" d="M1873.68 265.739 Q1873.68 265.505 1874.29 264.919 Q1882.01 257.049 1882.01 242.223 Q1882.01 227.349 1874.59 219.831 Q1873.68 218.964 1873.68 218.707 Q1873.68 218.238 1874.14 218.238 Q1874.47 218.238 1875.62 219.198 Q1876.79 220.159 1878.55 222.361 Q1880.33 224.562 1881.64 227.256 Q1884.8 233.791 1884.8 242.223 Q1884.8 250.327 1881.78 256.862 Q1880.49 259.602 1878.69 261.898 Q1876.88 264.193 1875.69 265.2 Q1874.5 266.207 1874.14 266.207 Q1873.68 266.207 1873.68 265.739 Z" fill="#000000" fill-rule="nonzero" fill-opacity="1" /><path clip-path="url(#clip510)" d="M1906.5 242.808 Q1905.4 242.808 1905.4 242.223 Q1905.4 241.637 1906.55 241.637 Q1906.69 241.637 1906.92 241.661 Q1907.18 241.684 1907.23 241.684 L1920.74 241.684 L1920.74 228.122 Q1920.74 228.076 1920.72 227.865 Q1920.7 227.631 1920.7 227.49 Q1920.7 226.342 1921.26 226.342 Q1921.84 226.342 1921.84 227.49 L1921.84 241.684 L1935.38 241.684 Q1935.43 241.684 1935.66 241.661 Q1935.9 241.637 1936.04 241.637 Q1937.14 241.637 1937.14 242.223 Q1937.16 242.808 1935.99 242.808 Q1935.85 242.808 1935.64 242.785 Q1935.43 242.761 1935.38 242.761 L1921.84 242.761 L1921.84 257.002 Q1921.84 258.103 1921.26 258.103 Q1920.7 258.103 1920.7 256.955 Q1920.7 256.815 1920.72 256.581 Q1920.74 256.37 1920.74 256.323 L1920.74 242.761 L1907.23 242.761 Q1907.18 242.761 1906.9 242.785 Q1906.64 242.808 1906.5 242.808 Z" fill="#000000" fill-rule="nonzero" fill-opacity="1" /><path clip-path="url(#clip510)" d="M1955.66 254.215 Q1955.66 253.348 1955.73 253.091 Q1955.83 252.833 1956.2 252.435 L1965.41 242.176 Q1970.44 236.508 1970.44 231.566 Q1970.44 228.357 1968.76 226.061 Q1967.09 223.766 1964.02 223.766 Q1961.92 223.766 1960.14 225.054 Q1958.36 226.342 1957.54 228.638 Q1957.68 228.591 1958.17 228.591 Q1959.36 228.591 1960.02 229.34 Q1960.7 230.09 1960.7 231.097 Q1960.7 232.385 1959.86 233.018 Q1959.04 233.627 1958.22 233.627 Q1957.89 233.627 1957.44 233.556 Q1957.02 233.486 1956.34 232.83 Q1955.66 232.151 1955.66 230.957 Q1955.66 227.607 1958.19 224.937 Q1960.75 222.267 1964.63 222.267 Q1969.04 222.267 1971.92 224.89 Q1974.82 227.49 1974.82 231.566 Q1974.82 232.994 1974.38 234.306 Q1973.96 235.594 1973.37 236.601 Q1972.81 237.609 1971.26 239.225 Q1969.72 240.841 1968.47 241.989 Q1967.23 243.136 1964.45 245.572 L1959.36 250.514 L1968.01 250.514 Q1972.22 250.514 1972.55 250.14 Q1973.02 249.46 1973.6 245.877 L1974.82 245.877 L1973.46 254.215 L1955.66 254.215 Z" fill="#000000" fill-rule="nonzero" fill-opacity="1" /><polyline clip-path="url(#clip510)" style="stroke:#c271d2; stroke-linecap:round; stroke-linejoin:round; stroke-width:4; stroke-opacity:1; fill:none" points="1616.07,294.182 1744.08,294.182 "/>
<path clip-path="url(#clip510)" d="M1765.42 305.423 L1765.42 299.099 Q1765.42 298.56 1765.44 298.372 Q1765.47 298.185 1765.61 298.045 Q1765.75 297.904 1766.03 297.904 Q1766.36 297.904 1766.47 298.045 Q1766.61 298.185 1766.71 298.724 Q1767.43 302.026 1768.98 303.783 Q1770.55 305.516 1773.38 305.516 Q1776.08 305.516 1777.43 304.322 Q1778.79 303.127 1778.79 301.16 Q1778.79 297.646 1773.8 296.756 Q1770.92 296.171 1769.73 295.796 Q1768.53 295.398 1767.48 294.531 Q1765.42 292.845 1765.42 290.456 Q1765.42 288.067 1767.22 286.31 Q1769.05 284.553 1773.08 284.553 Q1775.77 284.553 1777.6 285.912 Q1778.14 285.49 1778.42 285.139 Q1779.05 284.553 1779.38 284.553 Q1779.75 284.553 1779.82 284.811 Q1779.89 285.045 1779.89 285.724 L1779.89 290.549 Q1779.89 291.088 1779.87 291.275 Q1779.85 291.463 1779.71 291.603 Q1779.57 291.721 1779.26 291.721 Q1778.72 291.721 1778.7 291.275 Q1778.32 285.467 1773.08 285.467 Q1770.24 285.467 1768.98 286.568 Q1767.71 287.645 1767.71 289.121 Q1767.71 289.94 1768.09 290.573 Q1768.49 291.182 1768.98 291.557 Q1769.49 291.908 1770.43 292.259 Q1771.37 292.587 1771.93 292.704 Q1772.52 292.821 1773.62 293.056 Q1777.46 293.782 1779.07 295.351 Q1781.09 297.365 1781.09 299.918 Q1781.09 302.752 1779.17 304.673 Q1777.25 306.594 1773.38 306.594 Q1770.27 306.594 1768.09 304.509 Q1767.81 304.79 1767.6 305.048 Q1767.39 305.282 1767.29 305.376 Q1767.22 305.469 1767.2 305.54 Q1767.17 305.587 1767.13 305.633 Q1766.17 306.594 1765.93 306.594 Q1765.56 306.594 1765.49 306.336 Q1765.42 306.102 1765.42 305.423 Z" fill="#000000" fill-rule="nonzero" fill-opacity="1" /><path clip-path="url(#clip510)" d="M1783.92 295.492 Q1783.92 290.971 1786.83 287.762 Q1789.73 284.553 1793.9 284.553 Q1798.12 284.553 1800.29 287.294 Q1802.5 290.034 1802.5 293.969 Q1802.5 294.695 1802.31 294.836 Q1802.12 294.976 1801.3 294.976 L1787.9 294.976 Q1787.9 299.872 1789.36 302.167 Q1791.37 305.376 1794.77 305.376 Q1795.24 305.376 1795.8 305.282 Q1796.36 305.188 1797.51 304.79 Q1798.66 304.369 1799.66 303.268 Q1800.67 302.167 1801.26 300.434 Q1801.4 299.754 1801.86 299.778 Q1802.5 299.778 1802.5 300.34 Q1802.5 300.762 1802.03 301.722 Q1801.58 302.659 1800.72 303.783 Q1799.85 304.907 1798.16 305.751 Q1796.5 306.594 1794.49 306.594 Q1790.27 306.594 1787.08 303.408 Q1783.92 300.199 1783.92 295.492 M1787.95 293.969 L1799.33 293.969 Q1799.33 292.962 1799.15 291.838 Q1798.98 290.713 1798.47 289.167 Q1797.98 287.598 1796.8 286.614 Q1795.63 285.631 1793.9 285.631 Q1793.13 285.631 1792.28 285.959 Q1791.46 286.286 1790.46 287.083 Q1789.45 287.879 1788.75 289.683 Q1788.04 291.486 1787.95 293.969 Z" fill="#000000" fill-rule="nonzero" fill-opacity="1" /><path clip-path="url(#clip510)" d="M1804.05 306.055 L1804.05 304.579 Q1806.6 304.579 1807.19 304.275 Q1807.77 303.947 1807.77 302.401 L1807.77 289.542 Q1807.77 287.762 1807.14 287.317 Q1806.53 286.872 1804.05 286.872 L1804.05 285.373 L1810.79 284.858 L1810.79 289.894 Q1813.04 284.858 1817.89 284.858 Q1821.5 284.858 1822.93 286.638 Q1823.98 287.832 1824.19 289.167 Q1824.43 290.503 1824.43 293.969 L1824.43 303.127 Q1824.47 304.134 1825.25 304.369 Q1826.02 304.579 1828.17 304.579 L1828.17 306.055 Q1823.28 305.915 1822.79 305.915 Q1822.41 305.915 1817.38 306.055 L1817.38 304.579 Q1819.93 304.579 1820.51 304.275 Q1821.12 303.947 1821.12 302.401 L1821.12 291.229 Q1821.12 288.793 1820.37 287.364 Q1819.62 285.912 1817.56 285.912 Q1815.08 285.912 1813.09 287.996 Q1811.1 290.081 1811.1 293.594 L1811.1 302.401 Q1811.1 303.947 1811.68 304.275 Q1812.29 304.579 1814.82 304.579 L1814.82 306.055 Q1809.93 305.915 1809.46 305.915 Q1809.08 305.915 1804.05 306.055 Z" fill="#000000" fill-rule="nonzero" fill-opacity="1" /><path clip-path="url(#clip510)" d="M1830.4 294.063 Q1830.4 285.959 1833.42 279.424 Q1834.71 276.683 1836.51 274.388 Q1838.32 272.092 1839.51 271.085 Q1840.7 270.078 1841.03 270.078 Q1841.5 270.078 1841.52 270.547 Q1841.52 270.781 1840.89 271.366 Q1833.16 279.236 1833.19 294.063 Q1833.19 308.936 1840.7 316.501 Q1841.52 317.321 1841.52 317.579 Q1841.52 318.047 1841.03 318.047 Q1840.7 318.047 1839.56 317.087 Q1838.41 316.127 1836.63 313.925 Q1834.85 311.723 1833.56 309.03 Q1830.4 302.495 1830.4 294.063 Z" fill="#000000" fill-rule="nonzero" fill-opacity="1" /><path clip-path="url(#clip510)" d="M1846.13 306.055 Q1846.13 305.188 1846.2 304.931 Q1846.29 304.673 1846.67 304.275 L1855.87 294.016 Q1860.91 288.348 1860.91 283.406 Q1860.91 280.197 1859.22 277.901 Q1857.56 275.606 1854.49 275.606 Q1852.38 275.606 1850.6 276.894 Q1848.82 278.182 1848 280.478 Q1848.14 280.431 1848.64 280.431 Q1849.83 280.431 1850.49 281.18 Q1851.16 281.93 1851.16 282.937 Q1851.16 284.225 1850.32 284.858 Q1849.5 285.467 1848.68 285.467 Q1848.35 285.467 1847.91 285.396 Q1847.49 285.326 1846.81 284.67 Q1846.13 283.991 1846.13 282.797 Q1846.13 279.447 1848.66 276.777 Q1851.21 274.107 1855.1 274.107 Q1859.5 274.107 1862.38 276.73 Q1865.29 279.33 1865.29 283.406 Q1865.29 284.834 1864.84 286.146 Q1864.42 287.434 1863.84 288.441 Q1863.27 289.449 1861.73 291.065 Q1860.18 292.681 1858.94 293.829 Q1857.7 294.976 1854.91 297.412 L1849.83 302.354 L1858.47 302.354 Q1862.69 302.354 1863.02 301.98 Q1863.49 301.3 1864.07 297.717 L1865.29 297.717 L1863.93 306.055 L1846.13 306.055 Z" fill="#000000" fill-rule="nonzero" fill-opacity="1" /><path clip-path="url(#clip510)" d="M1893.01 288.02 Q1893.01 289.331 1892.19 290.081 Q1891.37 290.807 1890.43 290.807 Q1889.54 290.807 1889.07 290.292 Q1888.6 289.776 1888.6 289.121 Q1888.6 288.231 1889.26 287.458 Q1889.91 286.685 1890.9 286.521 Q1889.94 285.912 1888.51 285.912 Q1887.57 285.912 1886.75 286.404 Q1885.95 286.895 1885.46 287.528 Q1884.99 288.16 1884.57 289.074 Q1884.17 289.964 1884.01 290.503 Q1883.87 291.018 1883.75 291.58 L1882.11 298.138 Q1881.32 301.253 1881.32 302.354 Q1881.32 303.713 1881.97 304.626 Q1882.63 305.516 1883.94 305.516 Q1884.46 305.516 1885.04 305.376 Q1885.63 305.212 1886.38 304.79 Q1887.15 304.345 1887.83 303.689 Q1888.53 303.01 1889.21 301.862 Q1889.89 300.715 1890.33 299.239 Q1890.48 298.724 1890.94 298.724 Q1891.53 298.724 1891.53 299.192 Q1891.53 299.59 1891.2 300.434 Q1890.9 301.253 1890.22 302.331 Q1889.56 303.385 1888.7 304.345 Q1887.83 305.282 1886.54 305.938 Q1885.25 306.594 1883.85 306.594 Q1881.83 306.594 1880.5 305.516 Q1879.16 304.439 1878.67 302.94 Q1878.55 303.151 1878.39 303.432 Q1878.23 303.713 1877.73 304.345 Q1877.27 304.954 1876.73 305.423 Q1876.19 305.868 1875.34 306.219 Q1874.52 306.594 1873.63 306.594 Q1872.51 306.594 1871.5 306.266 Q1870.52 305.938 1869.82 305.188 Q1869.11 304.439 1869.11 303.408 Q1869.11 302.261 1869.89 301.464 Q1870.68 300.644 1871.76 300.644 Q1872.44 300.644 1872.98 301.043 Q1873.54 301.441 1873.54 302.307 Q1873.54 303.268 1872.89 303.994 Q1872.23 304.72 1871.29 304.907 Q1872.25 305.516 1873.68 305.516 Q1875.23 305.516 1876.45 304.158 Q1877.66 302.799 1878.25 300.527 Q1879.7 295.07 1880.26 292.634 Q1880.83 290.175 1880.83 289.121 Q1880.83 288.137 1880.57 287.458 Q1880.31 286.778 1879.87 286.474 Q1879.44 286.146 1879.05 286.029 Q1878.67 285.912 1878.25 285.912 Q1877.55 285.912 1876.75 286.193 Q1875.98 286.474 1875.04 287.13 Q1874.13 287.762 1873.26 289.074 Q1872.39 290.385 1871.81 292.189 Q1871.69 292.728 1871.18 292.728 Q1870.61 292.704 1870.61 292.236 Q1870.61 291.838 1870.92 291.018 Q1871.25 290.175 1871.9 289.121 Q1872.58 288.067 1873.45 287.13 Q1874.34 286.169 1875.63 285.514 Q1876.94 284.858 1878.34 284.858 Q1878.98 284.858 1879.58 284.998 Q1880.22 285.115 1880.97 285.467 Q1881.74 285.818 1882.42 286.591 Q1883.1 287.364 1883.52 288.488 Q1883.8 287.949 1884.17 287.434 Q1884.57 286.919 1885.18 286.286 Q1885.81 285.631 1886.68 285.256 Q1887.57 284.858 1888.55 284.858 Q1889.52 284.858 1890.45 285.115 Q1891.39 285.35 1892.19 286.123 Q1893.01 286.872 1893.01 288.02 Z" fill="#000000" fill-rule="nonzero" fill-opacity="1" /><path clip-path="url(#clip510)" d="M1897.62 317.579 Q1897.62 317.345 1898.23 316.759 Q1905.96 308.889 1905.96 294.063 Q1905.96 279.189 1898.53 271.671 Q1897.62 270.804 1897.62 270.547 Q1897.62 270.078 1898.09 270.078 Q1898.42 270.078 1899.57 271.038 Q1900.74 271.999 1902.49 274.201 Q1904.27 276.402 1905.58 279.096 Q1908.75 285.631 1908.75 294.063 Q1908.75 302.167 1905.73 308.702 Q1904.44 311.442 1902.63 313.738 Q1900.83 316.033 1899.64 317.04 Q1898.44 318.047 1898.09 318.047 Q1897.62 318.047 1897.62 317.579 Z" fill="#000000" fill-rule="nonzero" fill-opacity="1" /><polyline clip-path="url(#clip510)" style="stroke:#ac8d18; stroke-linecap:round; stroke-linejoin:round; stroke-width:4; stroke-opacity:1; fill:none" points="1616.07,346.022 1744.08,346.022 "/>
<path clip-path="url(#clip510)" d="M1765.42 357.895 Q1765.42 357.028 1765.49 356.771 Q1765.58 356.513 1765.96 356.115 L1775.16 345.856 Q1780.2 340.188 1780.2 335.246 Q1780.2 332.037 1778.51 329.741 Q1776.85 327.446 1773.78 327.446 Q1771.67 327.446 1769.89 328.734 Q1768.11 330.022 1767.29 332.318 Q1767.43 332.271 1767.92 332.271 Q1769.12 332.271 1769.77 333.02 Q1770.45 333.77 1770.45 334.777 Q1770.45 336.065 1769.61 336.698 Q1768.79 337.307 1767.97 337.307 Q1767.64 337.307 1767.2 337.236 Q1766.78 337.166 1766.1 336.51 Q1765.42 335.831 1765.42 334.637 Q1765.42 331.287 1767.95 328.617 Q1770.5 325.947 1774.39 325.947 Q1778.79 325.947 1781.67 328.57 Q1784.58 331.17 1784.58 335.246 Q1784.58 336.674 1784.13 337.986 Q1783.71 339.274 1783.13 340.281 Q1782.56 341.289 1781.02 342.905 Q1779.47 344.521 1778.23 345.669 Q1776.99 346.816 1774.2 349.252 L1769.12 354.194 L1777.76 354.194 Q1781.98 354.194 1782.31 353.82 Q1782.77 353.14 1783.36 349.557 L1784.58 349.557 L1783.22 357.895 L1765.42 357.895 Z" fill="#000000" fill-rule="nonzero" fill-opacity="1" /><path clip-path="url(#clip510)" d="M1789.17 357.263 L1789.17 350.939 Q1789.17 350.4 1789.19 350.212 Q1789.22 350.025 1789.36 349.885 Q1789.5 349.744 1789.78 349.744 Q1790.11 349.744 1790.23 349.885 Q1790.37 350.025 1790.46 350.564 Q1791.19 353.866 1792.73 355.623 Q1794.3 357.356 1797.13 357.356 Q1799.83 357.356 1801.19 356.162 Q1802.55 354.967 1802.55 353 Q1802.55 349.486 1797.56 348.596 Q1794.68 348.011 1793.48 347.636 Q1792.29 347.238 1791.23 346.371 Q1789.17 344.685 1789.17 342.296 Q1789.17 339.907 1790.97 338.15 Q1792.8 336.393 1796.83 336.393 Q1799.52 336.393 1801.35 337.752 Q1801.89 337.33 1802.17 336.979 Q1802.8 336.393 1803.13 336.393 Q1803.51 336.393 1803.58 336.651 Q1803.65 336.885 1803.65 337.564 L1803.65 342.389 Q1803.65 342.928 1803.62 343.115 Q1803.6 343.303 1803.46 343.443 Q1803.32 343.561 1803.01 343.561 Q1802.48 343.561 1802.45 343.115 Q1802.08 337.307 1796.83 337.307 Q1794 337.307 1792.73 338.408 Q1791.47 339.485 1791.47 340.961 Q1791.47 341.78 1791.84 342.413 Q1792.24 343.022 1792.73 343.397 Q1793.25 343.748 1794.18 344.099 Q1795.12 344.427 1795.68 344.544 Q1796.27 344.661 1797.37 344.896 Q1801.21 345.622 1802.83 347.191 Q1804.84 349.205 1804.84 351.758 Q1804.84 354.592 1802.92 356.513 Q1801 358.434 1797.13 358.434 Q1794.02 358.434 1791.84 356.349 Q1791.56 356.63 1791.35 356.888 Q1791.14 357.122 1791.05 357.216 Q1790.97 357.309 1790.95 357.38 Q1790.93 357.427 1790.88 357.473 Q1789.92 358.434 1789.69 358.434 Q1789.31 358.434 1789.24 358.176 Q1789.17 357.942 1789.17 357.263 Z" fill="#000000" fill-rule="nonzero" fill-opacity="1" /><path clip-path="url(#clip510)" d="M1807.68 347.332 Q1807.68 342.811 1810.58 339.602 Q1813.48 336.393 1817.65 336.393 Q1821.87 336.393 1824.05 339.134 Q1826.25 341.874 1826.25 345.809 Q1826.25 346.535 1826.06 346.676 Q1825.87 346.816 1825.06 346.816 L1811.66 346.816 Q1811.66 351.712 1813.11 354.007 Q1815.12 357.216 1818.52 357.216 Q1818.99 357.216 1819.55 357.122 Q1820.11 357.028 1821.26 356.63 Q1822.41 356.209 1823.42 355.108 Q1824.42 354.007 1825.01 352.274 Q1825.15 351.594 1825.62 351.618 Q1826.25 351.618 1826.25 352.18 Q1826.25 352.602 1825.78 353.562 Q1825.34 354.499 1824.47 355.623 Q1823.6 356.747 1821.92 357.591 Q1820.25 358.434 1818.24 358.434 Q1814.02 358.434 1810.84 355.248 Q1807.68 352.039 1807.68 347.332 M1811.7 345.809 L1823.09 345.809 Q1823.09 344.802 1822.9 343.678 Q1822.74 342.553 1822.22 341.007 Q1821.73 339.438 1820.56 338.454 Q1819.39 337.471 1817.65 337.471 Q1816.88 337.471 1816.04 337.799 Q1815.22 338.126 1814.21 338.923 Q1813.2 339.719 1812.5 341.523 Q1811.8 343.326 1811.7 345.809 Z" fill="#000000" fill-rule="nonzero" fill-opacity="1" /><path clip-path="url(#clip510)" d="M1827.8 357.895 L1827.8 356.419 Q1830.35 356.419 1830.94 356.115 Q1831.53 355.787 1831.53 354.241 L1831.53 341.382 Q1831.53 339.602 1830.89 339.157 Q1830.28 338.712 1827.8 338.712 L1827.8 337.213 L1834.55 336.698 L1834.55 341.734 Q1836.8 336.698 1841.64 336.698 Q1845.25 336.698 1846.68 338.478 Q1847.73 339.672 1847.94 341.007 Q1848.18 342.343 1848.18 345.809 L1848.18 354.967 Q1848.23 355.974 1849 356.209 Q1849.77 356.419 1851.93 356.419 L1851.93 357.895 Q1847.03 357.755 1846.54 357.755 Q1846.16 357.755 1841.13 357.895 L1841.13 356.419 Q1843.68 356.419 1844.27 356.115 Q1844.88 355.787 1844.88 354.241 L1844.88 343.069 Q1844.88 340.633 1844.13 339.204 Q1843.38 337.752 1841.32 337.752 Q1838.83 337.752 1836.84 339.836 Q1834.85 341.921 1834.85 345.434 L1834.85 354.241 Q1834.85 355.787 1835.44 356.115 Q1836.05 356.419 1838.58 356.419 L1838.58 357.895 Q1833.68 357.755 1833.21 357.755 Q1832.84 357.755 1827.8 357.895 Z" fill="#000000" fill-rule="nonzero" fill-opacity="1" /><path clip-path="url(#clip510)" d="M1854.15 345.903 Q1854.15 337.799 1857.17 331.264 Q1858.46 328.523 1860.27 326.228 Q1862.07 323.932 1863.26 322.925 Q1864.46 321.918 1864.79 321.918 Q1865.25 321.918 1865.28 322.387 Q1865.28 322.621 1864.65 323.206 Q1856.92 331.076 1856.94 345.903 Q1856.94 360.776 1864.46 368.341 Q1865.28 369.161 1865.28 369.419 Q1865.28 369.887 1864.79 369.887 Q1864.46 369.887 1863.31 368.927 Q1862.16 367.967 1860.38 365.765 Q1858.6 363.563 1857.31 360.87 Q1854.15 354.335 1854.15 345.903 Z" fill="#000000" fill-rule="nonzero" fill-opacity="1" /><path clip-path="url(#clip510)" d="M1892.81 339.86 Q1892.81 341.171 1891.99 341.921 Q1891.17 342.647 1890.24 342.647 Q1889.35 342.647 1888.88 342.132 Q1888.41 341.616 1888.41 340.961 Q1888.41 340.071 1889.07 339.298 Q1889.72 338.525 1890.71 338.361 Q1889.74 337.752 1888.32 337.752 Q1887.38 337.752 1886.56 338.244 Q1885.76 338.735 1885.27 339.368 Q1884.8 340 1884.38 340.914 Q1883.98 341.804 1883.82 342.343 Q1883.68 342.858 1883.56 343.42 L1881.92 349.978 Q1881.13 353.093 1881.13 354.194 Q1881.13 355.553 1881.78 356.466 Q1882.44 357.356 1883.75 357.356 Q1884.26 357.356 1884.85 357.216 Q1885.44 357.052 1886.18 356.63 Q1886.96 356.185 1887.64 355.529 Q1888.34 354.85 1889.02 353.702 Q1889.7 352.555 1890.14 351.079 Q1890.28 350.564 1890.75 350.564 Q1891.34 350.564 1891.34 351.032 Q1891.34 351.43 1891.01 352.274 Q1890.71 353.093 1890.03 354.171 Q1889.37 355.225 1888.5 356.185 Q1887.64 357.122 1886.35 357.778 Q1885.06 358.434 1883.65 358.434 Q1881.64 358.434 1880.31 357.356 Q1878.97 356.279 1878.48 354.78 Q1878.36 354.991 1878.2 355.272 Q1878.03 355.553 1877.54 356.185 Q1877.07 356.794 1876.53 357.263 Q1876 357.708 1875.15 358.059 Q1874.33 358.434 1873.44 358.434 Q1872.32 358.434 1871.31 358.106 Q1870.33 357.778 1869.62 357.028 Q1868.92 356.279 1868.92 355.248 Q1868.92 354.101 1869.7 353.304 Q1870.49 352.484 1871.57 352.484 Q1872.25 352.484 1872.79 352.883 Q1873.35 353.281 1873.35 354.147 Q1873.35 355.108 1872.69 355.834 Q1872.04 356.56 1871.1 356.747 Q1872.06 357.356 1873.49 357.356 Q1875.04 357.356 1876.25 355.998 Q1877.47 354.639 1878.06 352.367 Q1879.51 346.91 1880.07 344.474 Q1880.63 342.015 1880.63 340.961 Q1880.63 339.977 1880.38 339.298 Q1880.12 338.618 1879.67 338.314 Q1879.25 337.986 1878.85 337.869 Q1878.48 337.752 1878.06 337.752 Q1877.35 337.752 1876.56 338.033 Q1875.78 338.314 1874.85 338.97 Q1873.93 339.602 1873.07 340.914 Q1872.2 342.225 1871.62 344.029 Q1871.5 344.568 1870.98 344.568 Q1870.42 344.544 1870.42 344.076 Q1870.42 343.678 1870.73 342.858 Q1871.05 342.015 1871.71 340.961 Q1872.39 339.907 1873.26 338.97 Q1874.15 338.009 1875.43 337.354 Q1876.75 336.698 1878.15 336.698 Q1878.78 336.698 1879.39 336.838 Q1880.02 336.955 1880.77 337.307 Q1881.55 337.658 1882.23 338.431 Q1882.91 339.204 1883.33 340.328 Q1883.61 339.789 1883.98 339.274 Q1884.38 338.759 1884.99 338.126 Q1885.62 337.471 1886.49 337.096 Q1887.38 336.698 1888.36 336.698 Q1889.32 336.698 1890.26 336.955 Q1891.2 337.19 1891.99 337.963 Q1892.81 338.712 1892.81 339.86 Z" fill="#000000" fill-rule="nonzero" fill-opacity="1" /><path clip-path="url(#clip510)" d="M1897.43 369.419 Q1897.43 369.185 1898.04 368.599 Q1905.77 360.729 1905.77 345.903 Q1905.77 331.029 1898.34 323.511 Q1897.43 322.644 1897.43 322.387 Q1897.43 321.918 1897.9 321.918 Q1898.23 321.918 1899.37 322.878 Q1900.54 323.839 1902.3 326.041 Q1904.08 328.242 1905.39 330.936 Q1908.55 337.471 1908.55 345.903 Q1908.55 354.007 1905.53 360.542 Q1904.25 363.282 1902.44 365.578 Q1900.64 367.873 1899.44 368.88 Q1898.25 369.887 1897.9 369.887 Q1897.43 369.887 1897.43 369.419 Z" fill="#000000" fill-rule="nonzero" fill-opacity="1" /></svg>
