<?xml version="1.0" encoding="utf-8"?>
<svg xmlns="http://www.w3.org/2000/svg" xmlns:xlink="http://www.w3.org/1999/xlink" width="528" height="336" viewBox="0 0 2112 1344">
<defs>
  <clipPath id="clip320">
    <rect x="0" y="0" width="2112" height="1344"/>
  </clipPath>
</defs>
<path clip-path="url(#clip320)" d="M0 1344 L2112 1344 L2112 0 L0 0  Z" fill="#ffffff" fill-rule="evenodd" fill-opacity="1"/>
<defs>
  <clipPath id="clip321">
    <rect x="422" y="0" width="1479" height="1344"/>
  </clipPath>
</defs>
<path clip-path="url(#clip320)" d="M144.598 1234.58 L2064.76 1234.58 L2064.76 47.2441 L144.598 47.2441  Z" fill="#ffffff" fill-rule="evenodd" fill-opacity="1"/>
<defs>
  <clipPath id="clip322">
    <rect x="144" y="47" width="1921" height="1188"/>
  </clipPath>
</defs>
<polyline clip-path="url(#clip322)" style="stroke:#000000; stroke-linecap:round; stroke-linejoin:round; stroke-width:2; stroke-opacity:0.1; fill:none" points="383.916,1234.58 383.916,47.2441 "/>
<polyline clip-path="url(#clip322)" style="stroke:#000000; stroke-linecap:round; stroke-linejoin:round; stroke-width:2; stroke-opacity:0.1; fill:none" points="744.296,1234.58 744.296,47.2441 "/>
<polyline clip-path="url(#clip322)" style="stroke:#000000; stroke-linecap:round; stroke-linejoin:round; stroke-width:2; stroke-opacity:0.1; fill:none" points="1104.68,1234.58 1104.68,47.2441 "/>
<polyline clip-path="url(#clip322)" style="stroke:#000000; stroke-linecap:round; stroke-linejoin:round; stroke-width:2; stroke-opacity:0.1; fill:none" points="1465.06,1234.58 1465.06,47.2441 "/>
<polyline clip-path="url(#clip322)" style="stroke:#000000; stroke-linecap:round; stroke-linejoin:round; stroke-width:2; stroke-opacity:0.1; fill:none" points="1825.44,1234.58 1825.44,47.2441 "/>
<polyline clip-path="url(#clip320)" style="stroke:#000000; stroke-linecap:round; stroke-linejoin:round; stroke-width:4; stroke-opacity:1; fill:none" points="144.598,1234.58 2064.76,1234.58 "/>
<polyline clip-path="url(#clip320)" style="stroke:#000000; stroke-linecap:round; stroke-linejoin:round; stroke-width:4; stroke-opacity:1; fill:none" points="383.916,1234.58 383.916,1215.68 "/>
<polyline clip-path="url(#clip320)" style="stroke:#000000; stroke-linecap:round; stroke-linejoin:round; stroke-width:4; stroke-opacity:1; fill:none" points="744.296,1234.58 744.296,1215.68 "/>
<polyline clip-path="url(#clip320)" style="stroke:#000000; stroke-linecap:round; stroke-linejoin:round; stroke-width:4; stroke-opacity:1; fill:none" points="1104.68,1234.58 1104.68,1215.68 "/>
<polyline clip-path="url(#clip320)" style="stroke:#000000; stroke-linecap:round; stroke-linejoin:round; stroke-width:4; stroke-opacity:1; fill:none" points="1465.06,1234.58 1465.06,1215.68 "/>
<polyline clip-path="url(#clip320)" style="stroke:#000000; stroke-linecap:round; stroke-linejoin:round; stroke-width:4; stroke-opacity:1; fill:none" points="1825.44,1234.58 1825.44,1215.68 "/>
<path clip-path="url(#clip320)" d="M330.444 1277.85 L360.12 1277.85 L360.12 1281.78 L330.444 1281.78 L330.444 1277.85 Z" fill="#000000" fill-rule="nonzero" fill-opacity="1" /><path clip-path="url(#clip320)" d="M370.259 1260.11 L388.615 1260.11 L388.615 1264.05 L374.541 1264.05 L374.541 1272.52 Q375.56 1272.17 376.578 1272.01 Q377.597 1271.83 378.615 1271.83 Q384.402 1271.83 387.782 1275 Q391.161 1278.17 391.161 1283.59 Q391.161 1289.17 387.689 1292.27 Q384.217 1295.35 377.897 1295.35 Q375.722 1295.35 373.453 1294.98 Q371.208 1294.61 368.8 1293.86 L368.8 1289.17 Q370.884 1290.3 373.106 1290.86 Q375.328 1291.41 377.805 1291.41 Q381.81 1291.41 384.147 1289.3 Q386.485 1287.2 386.485 1283.59 Q386.485 1279.98 384.147 1277.87 Q381.81 1275.76 377.805 1275.76 Q375.93 1275.76 374.055 1276.18 Q372.203 1276.6 370.259 1277.48 L370.259 1260.11 Z" fill="#000000" fill-rule="nonzero" fill-opacity="1" /><path clip-path="url(#clip320)" d="M400.374 1288.8 L405.258 1288.8 L405.258 1294.67 L400.374 1294.67 L400.374 1288.8 Z" fill="#000000" fill-rule="nonzero" fill-opacity="1" /><path clip-path="url(#clip320)" d="M425.444 1263.19 Q421.832 1263.19 420.004 1266.76 Q418.198 1270.3 418.198 1277.43 Q418.198 1284.54 420.004 1288.1 Q421.832 1291.64 425.444 1291.64 Q429.078 1291.64 430.883 1288.1 Q432.712 1284.54 432.712 1277.43 Q432.712 1270.3 430.883 1266.76 Q429.078 1263.19 425.444 1263.19 M425.444 1259.49 Q431.254 1259.49 434.309 1264.1 Q437.388 1268.68 437.388 1277.43 Q437.388 1286.16 434.309 1290.76 Q431.254 1295.35 425.444 1295.35 Q419.633 1295.35 416.555 1290.76 Q413.499 1286.16 413.499 1277.43 Q413.499 1268.68 416.555 1264.1 Q419.633 1259.49 425.444 1259.49 Z" fill="#000000" fill-rule="nonzero" fill-opacity="1" /><path clip-path="url(#clip320)" d="M691.322 1277.85 L720.998 1277.85 L720.998 1281.78 L691.322 1281.78 L691.322 1277.85 Z" fill="#000000" fill-rule="nonzero" fill-opacity="1" /><path clip-path="url(#clip320)" d="M735.118 1290.74 L751.438 1290.74 L751.438 1294.67 L729.493 1294.67 L729.493 1290.74 Q732.155 1287.99 736.739 1283.36 Q741.345 1278.7 742.526 1277.36 Q744.771 1274.84 745.651 1273.1 Q746.553 1271.34 746.553 1269.65 Q746.553 1266.9 744.609 1265.16 Q742.688 1263.42 739.586 1263.42 Q737.387 1263.42 734.933 1264.19 Q732.503 1264.95 729.725 1266.5 L729.725 1261.78 Q732.549 1260.65 735.003 1260.07 Q737.456 1259.49 739.493 1259.49 Q744.864 1259.49 748.058 1262.17 Q751.252 1264.86 751.252 1269.35 Q751.252 1271.48 750.442 1273.4 Q749.655 1275.3 747.549 1277.89 Q746.97 1278.56 743.868 1281.78 Q740.766 1284.98 735.118 1290.74 Z" fill="#000000" fill-rule="nonzero" fill-opacity="1" /><path clip-path="url(#clip320)" d="M761.252 1288.8 L766.137 1288.8 L766.137 1294.67 L761.252 1294.67 L761.252 1288.8 Z" fill="#000000" fill-rule="nonzero" fill-opacity="1" /><path clip-path="url(#clip320)" d="M776.368 1260.11 L794.724 1260.11 L794.724 1264.05 L780.65 1264.05 L780.65 1272.52 Q781.669 1272.17 782.687 1272.01 Q783.706 1271.83 784.724 1271.83 Q790.511 1271.83 793.891 1275 Q797.271 1278.17 797.271 1283.59 Q797.271 1289.17 793.798 1292.27 Q790.326 1295.35 784.007 1295.35 Q781.831 1295.35 779.562 1294.98 Q777.317 1294.61 774.91 1293.86 L774.91 1289.17 Q776.993 1290.3 779.215 1290.86 Q781.437 1291.41 783.914 1291.41 Q787.919 1291.41 790.257 1289.3 Q792.595 1287.2 792.595 1283.59 Q792.595 1279.98 790.257 1277.87 Q787.919 1275.76 783.914 1275.76 Q782.039 1275.76 780.164 1276.18 Q778.312 1276.6 776.368 1277.48 L776.368 1260.11 Z" fill="#000000" fill-rule="nonzero" fill-opacity="1" /><path clip-path="url(#clip320)" d="M1082.06 1263.19 Q1078.45 1263.19 1076.62 1266.76 Q1074.82 1270.3 1074.82 1277.43 Q1074.82 1284.54 1076.62 1288.1 Q1078.45 1291.64 1082.06 1291.64 Q1085.7 1291.64 1087.5 1288.1 Q1089.33 1284.54 1089.33 1277.43 Q1089.33 1270.3 1087.5 1266.76 Q1085.7 1263.19 1082.06 1263.19 M1082.06 1259.49 Q1087.87 1259.49 1090.93 1264.1 Q1094.01 1268.68 1094.01 1277.43 Q1094.01 1286.16 1090.93 1290.76 Q1087.87 1295.35 1082.06 1295.35 Q1076.25 1295.35 1073.17 1290.76 Q1070.12 1286.16 1070.12 1277.43 Q1070.12 1268.68 1073.17 1264.1 Q1076.25 1259.49 1082.06 1259.49 Z" fill="#000000" fill-rule="nonzero" fill-opacity="1" /><path clip-path="url(#clip320)" d="M1102.22 1288.8 L1107.11 1288.8 L1107.11 1294.67 L1102.22 1294.67 L1102.22 1288.8 Z" fill="#000000" fill-rule="nonzero" fill-opacity="1" /><path clip-path="url(#clip320)" d="M1127.29 1263.19 Q1123.68 1263.19 1121.85 1266.76 Q1120.05 1270.3 1120.05 1277.43 Q1120.05 1284.54 1121.85 1288.1 Q1123.68 1291.64 1127.29 1291.64 Q1130.93 1291.64 1132.73 1288.1 Q1134.56 1284.54 1134.56 1277.43 Q1134.56 1270.3 1132.73 1266.76 Q1130.93 1263.19 1127.29 1263.19 M1127.29 1259.49 Q1133.1 1259.49 1136.16 1264.1 Q1139.24 1268.68 1139.24 1277.43 Q1139.24 1286.16 1136.16 1290.76 Q1133.1 1295.35 1127.29 1295.35 Q1121.48 1295.35 1118.4 1290.76 Q1115.35 1286.16 1115.35 1277.43 Q1115.35 1268.68 1118.4 1264.1 Q1121.48 1259.49 1127.29 1259.49 Z" fill="#000000" fill-rule="nonzero" fill-opacity="1" /><path clip-path="url(#clip320)" d="M1436.79 1290.74 L1453.11 1290.74 L1453.11 1294.67 L1431.17 1294.67 L1431.17 1290.74 Q1433.83 1287.99 1438.41 1283.36 Q1443.02 1278.7 1444.2 1277.36 Q1446.45 1274.84 1447.33 1273.1 Q1448.23 1271.34 1448.23 1269.65 Q1448.23 1266.9 1446.28 1265.16 Q1444.36 1263.42 1441.26 1263.42 Q1439.06 1263.42 1436.61 1264.19 Q1434.18 1264.95 1431.4 1266.5 L1431.4 1261.78 Q1434.22 1260.65 1436.68 1260.07 Q1439.13 1259.49 1441.17 1259.49 Q1446.54 1259.49 1449.73 1262.17 Q1452.93 1264.86 1452.93 1269.35 Q1452.93 1271.48 1452.12 1273.4 Q1451.33 1275.3 1449.22 1277.89 Q1448.65 1278.56 1445.54 1281.78 Q1442.44 1284.98 1436.79 1290.74 Z" fill="#000000" fill-rule="nonzero" fill-opacity="1" /><path clip-path="url(#clip320)" d="M1462.93 1288.8 L1467.81 1288.8 L1467.81 1294.67 L1462.93 1294.67 L1462.93 1288.8 Z" fill="#000000" fill-rule="nonzero" fill-opacity="1" /><path clip-path="url(#clip320)" d="M1478.04 1260.11 L1496.4 1260.11 L1496.4 1264.05 L1482.33 1264.05 L1482.33 1272.52 Q1483.34 1272.17 1484.36 1272.01 Q1485.38 1271.83 1486.4 1271.83 Q1492.19 1271.83 1495.57 1275 Q1498.95 1278.17 1498.95 1283.59 Q1498.95 1289.17 1495.47 1292.27 Q1492 1295.35 1485.68 1295.35 Q1483.51 1295.35 1481.24 1294.98 Q1478.99 1294.61 1476.59 1293.86 L1476.59 1289.17 Q1478.67 1290.3 1480.89 1290.86 Q1483.11 1291.41 1485.59 1291.41 Q1489.59 1291.41 1491.93 1289.3 Q1494.27 1287.2 1494.27 1283.59 Q1494.27 1279.98 1491.93 1277.87 Q1489.59 1275.76 1485.59 1275.76 Q1483.71 1275.76 1481.84 1276.18 Q1479.99 1276.6 1478.04 1277.48 L1478.04 1260.11 Z" fill="#000000" fill-rule="nonzero" fill-opacity="1" /><path clip-path="url(#clip320)" d="M1792.6 1260.11 L1810.96 1260.11 L1810.96 1264.05 L1796.88 1264.05 L1796.88 1272.52 Q1797.9 1272.17 1798.92 1272.01 Q1799.94 1271.83 1800.96 1271.83 Q1806.75 1271.83 1810.13 1275 Q1813.51 1278.17 1813.51 1283.59 Q1813.51 1289.17 1810.03 1292.27 Q1806.56 1295.35 1800.24 1295.35 Q1798.07 1295.35 1795.8 1294.98 Q1793.55 1294.61 1791.14 1293.86 L1791.14 1289.17 Q1793.23 1290.3 1795.45 1290.86 Q1797.67 1291.41 1800.15 1291.41 Q1804.15 1291.41 1806.49 1289.3 Q1808.83 1287.2 1808.83 1283.59 Q1808.83 1279.98 1806.49 1277.87 Q1804.15 1275.76 1800.15 1275.76 Q1798.27 1275.76 1796.4 1276.18 Q1794.55 1276.6 1792.6 1277.48 L1792.6 1260.11 Z" fill="#000000" fill-rule="nonzero" fill-opacity="1" /><path clip-path="url(#clip320)" d="M1822.72 1288.8 L1827.6 1288.8 L1827.6 1294.67 L1822.72 1294.67 L1822.72 1288.8 Z" fill="#000000" fill-rule="nonzero" fill-opacity="1" /><path clip-path="url(#clip320)" d="M1847.79 1263.19 Q1844.18 1263.19 1842.35 1266.76 Q1840.54 1270.3 1840.54 1277.43 Q1840.54 1284.54 1842.35 1288.1 Q1844.18 1291.64 1847.79 1291.64 Q1851.42 1291.64 1853.23 1288.1 Q1855.06 1284.54 1855.06 1277.43 Q1855.06 1270.3 1853.23 1266.76 Q1851.42 1263.19 1847.79 1263.19 M1847.79 1259.49 Q1853.6 1259.49 1856.65 1264.1 Q1859.73 1268.68 1859.73 1277.43 Q1859.73 1286.16 1856.65 1290.76 Q1853.6 1295.35 1847.79 1295.35 Q1841.98 1295.35 1838.9 1290.76 Q1835.84 1286.16 1835.84 1277.43 Q1835.84 1268.68 1838.9 1264.1 Q1841.98 1259.49 1847.79 1259.49 Z" fill="#000000" fill-rule="nonzero" fill-opacity="1" /><polyline clip-path="url(#clip322)" style="stroke:#000000; stroke-linecap:round; stroke-linejoin:round; stroke-width:2; stroke-opacity:0.1; fill:none" points="144.598,1200.98 2064.76,1200.98 "/>
<polyline clip-path="url(#clip322)" style="stroke:#000000; stroke-linecap:round; stroke-linejoin:round; stroke-width:2; stroke-opacity:0.1; fill:none" points="144.598,976.954 2064.76,976.954 "/>
<polyline clip-path="url(#clip322)" style="stroke:#000000; stroke-linecap:round; stroke-linejoin:round; stroke-width:2; stroke-opacity:0.1; fill:none" points="144.598,752.927 2064.76,752.927 "/>
<polyline clip-path="url(#clip322)" style="stroke:#000000; stroke-linecap:round; stroke-linejoin:round; stroke-width:2; stroke-opacity:0.1; fill:none" points="144.598,528.899 2064.76,528.899 "/>
<polyline clip-path="url(#clip322)" style="stroke:#000000; stroke-linecap:round; stroke-linejoin:round; stroke-width:2; stroke-opacity:0.1; fill:none" points="144.598,304.872 2064.76,304.872 "/>
<polyline clip-path="url(#clip322)" style="stroke:#000000; stroke-linecap:round; stroke-linejoin:round; stroke-width:2; stroke-opacity:0.1; fill:none" points="144.598,80.8442 2064.76,80.8442 "/>
<polyline clip-path="url(#clip320)" style="stroke:#000000; stroke-linecap:round; stroke-linejoin:round; stroke-width:4; stroke-opacity:1; fill:none" points="144.598,1234.58 144.598,47.2441 "/>
<polyline clip-path="url(#clip320)" style="stroke:#000000; stroke-linecap:round; stroke-linejoin:round; stroke-width:4; stroke-opacity:1; fill:none" points="144.598,1200.98 163.496,1200.98 "/>
<polyline clip-path="url(#clip320)" style="stroke:#000000; stroke-linecap:round; stroke-linejoin:round; stroke-width:4; stroke-opacity:1; fill:none" points="144.598,976.954 163.496,976.954 "/>
<polyline clip-path="url(#clip320)" style="stroke:#000000; stroke-linecap:round; stroke-linejoin:round; stroke-width:4; stroke-opacity:1; fill:none" points="144.598,752.927 163.496,752.927 "/>
<polyline clip-path="url(#clip320)" style="stroke:#000000; stroke-linecap:round; stroke-linejoin:round; stroke-width:4; stroke-opacity:1; fill:none" points="144.598,528.899 163.496,528.899 "/>
<polyline clip-path="url(#clip320)" style="stroke:#000000; stroke-linecap:round; stroke-linejoin:round; stroke-width:4; stroke-opacity:1; fill:none" points="144.598,304.872 163.496,304.872 "/>
<polyline clip-path="url(#clip320)" style="stroke:#000000; stroke-linecap:round; stroke-linejoin:round; stroke-width:4; stroke-opacity:1; fill:none" points="144.598,80.8442 163.496,80.8442 "/>
<path clip-path="url(#clip320)" d="M52.8025 1201.43 L82.4783 1201.43 L82.4783 1205.37 L52.8025 1205.37 L52.8025 1201.43 Z" fill="#000000" fill-rule="nonzero" fill-opacity="1" /><path clip-path="url(#clip320)" d="M96.5986 1214.33 L112.918 1214.33 L112.918 1218.26 L90.9736 1218.26 L90.9736 1214.33 Q93.6356 1211.57 98.2189 1206.94 Q102.825 1202.29 104.006 1200.95 Q106.251 1198.42 107.131 1196.69 Q108.034 1194.93 108.034 1193.24 Q108.034 1190.48 106.089 1188.75 Q104.168 1187.01 101.066 1187.01 Q98.8671 1187.01 96.4134 1187.78 Q93.9828 1188.54 91.2051 1190.09 L91.2051 1185.37 Q94.0291 1184.23 96.4828 1183.66 Q98.9365 1183.08 100.974 1183.08 Q106.344 1183.08 109.538 1185.76 Q112.733 1188.45 112.733 1192.94 Q112.733 1195.07 111.923 1196.99 Q111.136 1198.89 109.029 1201.48 Q108.45 1202.15 105.349 1205.37 Q102.247 1208.56 96.5986 1214.33 Z" fill="#000000" fill-rule="nonzero" fill-opacity="1" /><path clip-path="url(#clip320)" d="M52.4321 977.405 L82.1079 977.405 L82.1079 981.341 L52.4321 981.341 L52.4321 977.405 Z" fill="#000000" fill-rule="nonzero" fill-opacity="1" /><path clip-path="url(#clip320)" d="M93.0106 990.299 L100.649 990.299 L100.649 963.933 L92.3393 965.6 L92.3393 961.341 L100.603 959.674 L105.279 959.674 L105.279 990.299 L112.918 990.299 L112.918 994.234 L93.0106 994.234 L93.0106 990.299 Z" fill="#000000" fill-rule="nonzero" fill-opacity="1" /><path clip-path="url(#clip320)" d="M100.974 738.725 Q97.3624 738.725 95.5337 742.29 Q93.7282 745.832 93.7282 752.961 Q93.7282 760.068 95.5337 763.633 Q97.3624 767.174 100.974 767.174 Q104.608 767.174 106.413 763.633 Q108.242 760.068 108.242 752.961 Q108.242 745.832 106.413 742.29 Q104.608 738.725 100.974 738.725 M100.974 735.022 Q106.784 735.022 109.839 739.628 Q112.918 744.211 112.918 752.961 Q112.918 761.688 109.839 766.295 Q106.784 770.878 100.974 770.878 Q95.1634 770.878 92.0847 766.295 Q89.0292 761.688 89.0292 752.961 Q89.0292 744.211 92.0847 739.628 Q95.1634 735.022 100.974 735.022 Z" fill="#000000" fill-rule="nonzero" fill-opacity="1" /><path clip-path="url(#clip320)" d="M93.0106 542.244 L100.649 542.244 L100.649 515.878 L92.3393 517.545 L92.3393 513.286 L100.603 511.619 L105.279 511.619 L105.279 542.244 L112.918 542.244 L112.918 546.179 L93.0106 546.179 L93.0106 542.244 Z" fill="#000000" fill-rule="nonzero" fill-opacity="1" /><path clip-path="url(#clip320)" d="M96.5986 318.216 L112.918 318.216 L112.918 322.152 L90.9736 322.152 L90.9736 318.216 Q93.6356 315.462 98.2189 310.832 Q102.825 306.179 104.006 304.837 Q106.251 302.314 107.131 300.578 Q108.034 298.818 108.034 297.129 Q108.034 294.374 106.089 292.638 Q104.168 290.902 101.066 290.902 Q98.8671 290.902 96.4134 291.666 Q93.9828 292.43 91.2051 293.98 L91.2051 289.258 Q94.0291 288.124 96.4828 287.545 Q98.9365 286.967 100.974 286.967 Q106.344 286.967 109.538 289.652 Q112.733 292.337 112.733 296.828 Q112.733 298.957 111.923 300.879 Q111.136 302.777 109.029 305.369 Q108.45 306.041 105.349 309.258 Q102.247 312.453 96.5986 318.216 Z" fill="#000000" fill-rule="nonzero" fill-opacity="1" /><path clip-path="url(#clip320)" d="M105.788 79.49 Q109.145 80.2076 111.02 82.4761 Q112.918 84.7446 112.918 88.0779 Q112.918 93.1936 109.399 95.9946 Q105.881 98.7955 99.3995 98.7955 Q97.2236 98.7955 94.9088 98.3556 Q92.6171 97.939 90.1634 97.0825 L90.1634 92.5686 Q92.1078 93.7029 94.4226 94.2816 Q96.7374 94.8603 99.2606 94.8603 Q103.659 94.8603 105.95 93.1242 Q108.265 91.3881 108.265 88.0779 Q108.265 85.0224 106.112 83.3094 Q103.983 81.5733 100.163 81.5733 L96.1356 81.5733 L96.1356 77.7308 L100.349 77.7308 Q103.798 77.7308 105.626 76.365 Q107.455 74.9761 107.455 72.3836 Q107.455 69.7215 105.557 68.3095 Q103.682 66.8743 100.163 66.8743 Q98.2421 66.8743 96.043 67.291 Q93.8439 67.7077 91.2051 68.5873 L91.2051 64.4206 Q93.8671 63.6799 96.1819 63.3095 Q98.5198 62.9392 100.58 62.9392 Q105.904 62.9392 109.006 65.3697 Q112.108 67.7771 112.108 71.8975 Q112.108 74.7678 110.464 76.7585 Q108.821 78.7261 105.788 79.49 Z" fill="#000000" fill-rule="nonzero" fill-opacity="1" /><polyline clip-path="url(#clip322)" style="stroke:#009af9; stroke-linecap:round; stroke-linejoin:round; stroke-width:4; stroke-opacity:1; fill:none" points="198.942,752.927 201.89,748.345 204.839,743.765 207.787,739.189 210.736,734.618 224.367,713.618 237.998,692.969 251.629,672.856 265.26,653.458 272.076,644.082 278.892,634.949 285.707,626.08 292.523,617.494 299.338,609.211 306.154,601.25 312.969,593.627 319.785,586.36 327.977,578.12 336.169,570.445 344.36,563.358 352.552,556.884 360.744,551.042 368.936,545.852 377.127,541.331 385.319,537.493 392.245,534.79 399.171,532.59 406.097,530.9 413.023,529.721 419.949,529.058 426.875,528.911 433.801,529.282 440.727,530.168 448.251,531.714 455.775,533.862 463.298,536.607 470.822,539.94 478.346,543.854 485.869,548.338 493.393,553.378 500.916,558.962 507.853,564.578 514.789,570.63 521.725,577.104 528.661,583.985 535.597,591.258 542.533,598.904 549.469,606.907 556.405,615.248 563.842,624.544 571.278,634.181 578.714,644.134 586.15,654.377 601.023,675.621 615.895,697.688 650.358,750.67 684.82,803.781 700.133,826.628 715.446,848.644 723.103,859.262 730.759,869.58 738.416,879.57 746.072,889.202 752.787,897.333 759.501,905.151 766.215,912.638 772.929,919.78 779.643,926.559 786.357,932.962 793.071,938.974 799.785,944.583 807.105,950.224 814.426,955.356 821.746,959.967 829.066,964.044 836.386,967.576 843.706,970.555 851.026,972.973 858.347,974.823 865.71,976.108 873.074,976.81 880.438,976.928 887.801,976.462 895.165,975.412 902.529,973.782 909.892,971.576 917.256,968.8 925.397,965.075 933.539,960.673 941.68,955.609 949.822,949.899 957.963,943.56 966.105,936.614 974.246,929.081 982.388,920.987 990.134,912.788 997.881,904.127 1005.63,895.03 1013.37,885.523 1021.12,875.632 1028.87,865.388 1036.61,854.819 1044.36,843.955 1060.47,820.56 1076.58,796.321 1092.69,771.54 1108.79,746.528 1122.36,725.521 1135.92,704.758 1149.48,684.42 1163.04,664.688 1171.31,653.015 1179.59,641.672 1187.87,630.695 1196.15,620.121 1204.43,609.986 1212.7,600.321 1220.98,591.16 1229.26,582.531 1236.84,575.12 1244.42,568.2 1252.01,561.791 1259.59,555.911 1267.17,550.576 1274.76,545.801 1282.34,541.599 1289.92,537.982 1296.93,535.169 1303.93,532.87 1310.93,531.09 1317.94,529.834 1324.94,529.104 1331.94,528.903 1338.95,529.23 1345.95,530.085 1353.04,531.487 1360.14,533.426 1367.23,535.896 1374.33,538.892 1381.42,542.406 1388.52,546.429 1395.61,550.953 1402.7,555.966 1410.66,562.15 1418.61,568.914 1426.56,576.238 1434.51,584.1 1442.46,592.474 1450.41,601.337 1458.36,610.661 1466.31,620.417 1473.51,629.607 1480.72,639.105 1487.92,648.887 1495.13,658.929 1509.54,679.691 1523.95,701.185 1556.94,751.992 1589.94,802.847 1605.21,825.666 1620.49,847.669 1628.13,858.287 1635.76,868.61 1643.4,878.607 1651.04,888.252 1658.57,897.39 1666.1,906.133 1673.63,914.458 1681.16,922.342 1688.69,929.764 1696.22,936.704 1703.75,943.143 1711.28,949.062 1718.59,954.298 1725.9,959.016 1733.21,963.204 1740.52,966.851 1747.83,969.948 1755.14,972.487 1762.45,974.461 1769.76,975.866 1777.26,976.711 1784.75,976.951 1792.25,976.585 1799.74,975.616 1807.24,974.044 1814.73,971.875 1822.23,969.114 1829.72,965.769 1837.93,961.444 1846.14,956.443 1854.35,950.782 1862.57,944.478 1870.78,937.554 1878.99,930.03 1887.2,921.933 1895.41,913.286 1907.34,899.808 1919.27,885.324 1931.19,869.934 1943.12,853.744 1955.05,836.864 1966.98,819.409 1978.91,801.499 1990.84,783.257 1995.73,775.705 2000.62,768.127 2005.52,760.531 2010.41,752.927 "/>
<polyline clip-path="url(#clip322)" style="stroke:#e26f46; stroke-linecap:round; stroke-linejoin:round; stroke-width:4; stroke-opacity:1; fill:none" points="198.942,549.219 201.89,551.168 204.839,553.202 207.787,555.319 210.736,557.519 217.551,562.916 224.367,568.737 231.182,574.97 237.998,581.601 244.814,588.615 251.629,595.996 258.445,603.727 265.26,611.792 278.892,628.85 292.523,647.017 306.154,666.13 319.785,686.018 352.552,735.921 385.319,786.699 399.171,807.792 413.023,828.378 426.875,848.269 440.727,867.28 448.251,877.174 455.775,886.73 463.298,895.921 470.822,904.723 478.346,913.112 485.869,921.064 493.393,928.559 500.916,935.575 507.853,941.603 514.789,947.194 521.725,952.336 528.661,957.016 535.597,961.223 542.533,964.949 549.469,968.183 556.405,970.92 563.842,973.293 571.278,975.079 578.714,976.275 586.15,976.877 593.586,976.882 601.023,976.292 608.459,975.108 615.895,973.332 624.511,970.542 633.126,966.975 641.742,962.643 650.358,957.563 658.973,951.751 667.589,945.23 676.204,938.022 684.82,930.153 692.477,922.628 700.133,914.624 707.79,906.164 715.446,897.272 723.103,887.973 730.759,878.293 738.416,868.26 746.072,857.901 759.501,839.036 772.929,819.425 786.357,799.237 799.785,778.648 829.066,733.225 858.347,688.612 873.074,667.062 887.801,646.406 895.165,636.482 902.529,626.861 909.892,617.57 917.256,608.632 925.397,599.188 933.539,590.235 941.68,581.801 949.822,573.912 957.963,566.594 966.105,559.871 974.246,553.763 982.388,548.29 990.134,543.689 997.881,539.691 1005.63,536.309 1013.37,533.553 1021.12,531.429 1028.87,529.946 1036.61,529.106 1044.36,528.912 1052.41,529.396 1060.47,530.578 1068.52,532.455 1076.58,535.019 1084.63,538.263 1092.69,542.177 1100.74,546.749 1108.79,551.965 1115.58,556.842 1122.36,562.153 1129.14,567.886 1135.92,574.029 1142.7,580.567 1149.48,587.486 1156.26,594.771 1163.04,602.406 1171.31,612.177 1179.59,622.412 1187.87,633.078 1196.15,644.138 1204.43,655.557 1212.7,667.297 1220.98,679.32 1229.26,691.585 1259.59,737.941 1289.92,784.959 1303.93,806.319 1317.94,827.174 1331.94,847.33 1345.95,866.595 1353.04,875.954 1360.14,885.015 1367.23,893.757 1374.33,902.157 1381.42,910.196 1388.52,917.854 1395.61,925.113 1402.7,931.955 1410.66,939.107 1418.61,945.693 1426.56,951.692 1434.51,957.087 1442.46,961.861 1450.41,966 1458.36,969.49 1466.31,972.322 1473.51,974.312 1480.72,975.75 1487.92,976.63 1495.13,976.952 1502.33,976.715 1509.54,975.919 1516.74,974.565 1523.95,972.659 1532.2,969.802 1540.45,966.235 1548.69,961.971 1556.94,957.021 1565.19,951.404 1573.44,945.137 1581.69,938.241 1589.94,930.738 1597.58,923.272 1605.21,915.327 1612.85,906.927 1620.49,898.094 1628.13,888.854 1635.76,879.232 1643.4,869.256 1651.04,858.954 1666.1,837.796 1681.16,815.713 1696.22,792.945 1711.28,769.741 1725.9,747.034 1740.52,724.387 1755.14,702.034 1769.76,680.204 1777.26,669.29 1784.75,658.603 1792.25,648.171 1799.74,638.021 1807.24,628.182 1814.73,618.681 1822.23,609.542 1829.72,600.79 1837.93,591.675 1846.14,583.083 1854.35,575.041 1862.57,567.577 1870.78,560.714 1878.99,554.474 1887.2,548.878 1895.41,543.944 1901.37,540.785 1907.34,537.988 1913.3,535.559 1919.27,533.503 1925.23,531.822 1931.19,530.519 1937.16,529.597 1943.12,529.057 1949.09,528.901 1955.05,529.127 1961.02,529.737 1966.98,530.729 1972.94,532.101 1978.91,533.851 1984.87,535.976 1990.84,538.473 1995.73,540.795 2000.62,543.363 2005.52,546.172 2010.41,549.219 "/>
<polyline clip-path="url(#clip322)" style="stroke:#3da44d; stroke-linecap:round; stroke-linejoin:round; stroke-width:4; stroke-opacity:1; fill:none" points="198.942,304.872 201.89,300.29 204.839,295.71 207.787,291.134 210.736,286.564 224.367,265.563 237.998,244.914 251.629,224.801 265.26,205.403 272.076,196.027 278.892,186.894 285.707,178.025 292.523,169.44 299.338,161.157 306.154,153.195 312.969,145.572 319.785,138.305 327.977,130.065 336.169,122.39 344.36,115.303 352.552,108.829 360.744,102.987 368.936,97.7973 377.127,93.276 385.319,89.4379 392.245,86.7349 399.171,84.5355 406.097,82.8446 413.023,81.6662 419.949,81.0029 426.875,80.8563 433.801,81.2267 440.727,82.1134 448.251,83.659 455.775,85.8071 463.298,88.5518 470.822,91.8856 478.346,95.7994 485.869,100.283 493.393,105.323 500.916,110.907 507.853,116.523 514.789,122.575 521.725,129.049 528.661,135.931 535.597,143.203 542.533,150.849 549.469,158.852 556.405,167.193 563.842,176.489 571.278,186.126 578.714,196.08 586.15,206.322 601.023,227.566 615.895,249.633 650.358,302.615 684.82,355.726 700.133,378.573 715.446,400.589 723.103,411.207 730.759,421.525 738.416,431.515 746.072,441.147 752.787,449.278 759.501,457.096 766.215,464.584 772.929,471.725 779.643,478.504 786.357,484.907 793.071,490.919 799.785,496.528 807.105,502.169 814.426,507.301 821.746,511.912 829.066,515.989 836.386,519.521 843.706,522.5 851.026,524.918 858.347,526.769 865.71,528.053 873.074,528.755 880.438,528.873 887.801,528.407 895.165,527.357 902.529,525.727 909.892,523.521 917.256,520.745 925.397,517.02 933.539,512.618 941.68,507.554 949.822,501.844 957.963,495.505 966.105,488.559 974.246,481.026 982.388,472.932 990.134,464.733 997.881,456.073 1005.63,446.975 1013.37,437.468 1021.12,427.577 1028.87,417.333 1036.61,406.764 1044.36,395.9 1060.47,372.505 1076.58,348.266 1092.69,323.485 1108.79,298.473 1122.36,277.467 1135.92,256.703 1149.48,236.365 1163.04,216.633 1171.31,204.96 1179.59,193.617 1187.87,182.64 1196.15,172.066 1204.43,161.931 1212.7,152.266 1220.98,143.105 1229.26,134.476 1236.84,127.065 1244.42,120.145 1252.01,113.736 1259.59,107.856 1267.17,102.521 1274.76,97.7464 1282.34,93.5443 1289.92,89.9269 1296.93,87.114 1303.93,84.815 1310.93,83.0353 1317.94,81.7791 1324.94,81.0494 1331.94,80.8479 1338.95,81.1751 1345.95,82.0302 1353.04,83.4325 1360.14,85.3711 1367.23,87.8411 1374.33,90.8367 1381.42,94.3507 1388.52,98.3743 1395.61,102.898 1402.7,107.911 1410.66,114.095 1418.61,120.859 1426.56,128.183 1434.51,136.045 1442.46,144.419 1450.41,153.282 1458.36,162.606 1466.31,172.363 1473.51,181.552 1480.72,191.05 1487.92,200.832 1495.13,210.874 1509.54,231.636 1523.95,253.13 1556.94,303.937 1589.94,354.792 1605.21,377.611 1620.49,399.615 1628.13,410.233 1635.76,420.555 1643.4,430.553 1651.04,440.198 1658.57,449.335 1666.1,458.078 1673.63,466.403 1681.16,474.287 1688.69,481.709 1696.22,488.649 1703.75,495.088 1711.28,501.008 1718.59,506.243 1725.9,510.961 1733.21,515.149 1740.52,518.796 1747.83,521.893 1755.14,524.432 1762.45,526.406 1769.76,527.811 1777.26,528.656 1784.75,528.896 1792.25,528.53 1799.74,527.561 1807.24,525.989 1814.73,523.82 1822.23,521.059 1829.72,517.714 1837.93,513.389 1846.14,508.388 1854.35,502.727 1862.57,496.423 1870.78,489.499 1878.99,481.975 1887.2,473.878 1895.41,465.231 1907.34,451.753 1919.27,437.269 1931.19,421.879 1943.12,405.689 1955.05,388.809 1966.98,371.354 1978.91,353.444 1990.84,335.202 1995.73,327.65 2000.62,320.072 2005.52,312.476 2010.41,304.872 "/>
<polyline clip-path="url(#clip322)" style="stroke:#c271d2; stroke-linecap:round; stroke-linejoin:round; stroke-width:4; stroke-opacity:1; fill:none" points="198.942,752.927 201.89,743.765 204.839,734.618 207.787,725.503 210.736,716.433 217.551,695.726 224.367,675.53 231.182,656.025 237.998,637.386 241.406,628.444 244.814,619.78 248.221,611.414 251.629,603.364 255.037,595.648 258.445,588.283 261.853,581.287 265.26,574.674 268.668,568.46 272.076,562.658 275.484,557.281 278.892,552.341 282.299,547.85 285.707,543.817 289.115,540.252 292.523,537.162 295.931,534.554 299.338,532.434 302.746,530.807 306.154,529.676 309.562,529.045 312.969,528.913 316.377,529.283 319.785,530.152 323.881,531.855 327.977,534.272 332.073,537.395 336.169,541.214 340.264,545.717 344.36,550.888 348.456,556.712 352.552,563.169 356.648,570.238 360.744,577.898 364.84,586.123 368.936,594.886 373.032,604.159 377.127,613.913 381.223,624.115 385.319,634.733 392.245,653.538 399.171,673.26 406.097,693.717 413.023,714.72 426.875,757.588 440.727,800.283 448.251,822.84 455.775,844.636 459.537,855.175 463.298,865.434 467.06,875.387 470.822,885.007 474.584,894.267 478.346,903.142 482.107,911.608 485.869,919.642 489.631,927.222 493.393,934.327 497.155,940.938 500.916,947.037 504.384,952.192 507.853,956.886 511.321,961.107 514.789,964.847 518.257,968.096 521.725,970.847 525.193,973.094 528.661,974.83 532.129,976.054 535.597,976.761 539.065,976.949 542.533,976.619 546.001,975.772 549.469,974.408 552.937,972.532 556.405,970.147 560.123,967.033 563.842,963.348 567.56,959.104 571.278,954.311 574.996,948.982 578.714,943.132 582.432,936.776 586.15,929.93 589.868,922.614 593.586,914.846 597.305,906.648 601.023,898.04 604.741,889.047 608.459,879.691 612.177,869.998 615.895,859.993 620.203,848.048 624.511,835.762 628.819,823.181 633.126,810.349 641.742,784.117 650.358,757.439 658.973,730.697 667.589,704.272 676.204,678.541 684.82,653.872 688.648,643.344 692.477,633.125 696.305,623.244 700.133,613.729 703.961,604.606 707.79,595.902 711.618,587.64 715.446,579.845 719.275,572.538 723.103,565.74 726.931,559.469 730.759,553.744 734.588,548.581 738.416,543.995 742.244,539.997 746.072,536.601 749.429,534.124 752.787,532.122 756.144,530.598 759.501,529.557 762.858,529 766.215,528.93 769.572,529.344 772.929,530.244 776.286,531.627 779.643,533.49 783,535.829 786.357,538.638 789.714,541.913 793.071,545.645 796.428,549.827 799.785,554.449 803.445,559.979 807.105,566.006 810.765,572.515 814.426,579.489 818.086,586.91 821.746,594.759 825.406,603.016 829.066,611.66 832.726,620.668 836.386,630.016 840.046,639.682 843.706,649.64 851.026,670.327 858.347,691.866 873.074,736.873 887.801,782.548 895.165,805.041 902.529,826.99 909.892,848.168 917.256,868.351 921.327,879.006 925.397,889.258 929.468,899.075 933.539,908.427 937.61,917.282 941.68,925.613 945.751,933.394 949.822,940.599 953.893,947.206 957.963,953.193 962.034,958.542 966.105,963.234 970.176,967.257 974.246,970.595 978.317,973.24 982.388,975.182 986.261,976.371 990.134,976.916 994.007,976.814 997.881,976.066 1001.75,974.673 1005.63,972.64 1009.5,969.973 1013.37,966.679 1017.25,962.769 1021.12,958.252 1024.99,953.143 1028.87,947.455 1032.74,941.206 1036.61,934.413 1040.49,927.097 1044.36,919.277 1048.39,910.638 1052.41,901.506 1056.44,891.911 1060.47,881.881 1064.5,871.45 1068.52,860.648 1072.55,849.51 1076.58,838.071 1084.63,814.432 1092.69,790.025 1100.74,765.156 1108.79,740.134 1115.58,719.182 1122.36,698.528 1129.14,678.355 1135.92,658.842 1139.31,649.387 1142.7,640.16 1146.09,631.184 1149.48,622.476 1152.87,614.057 1156.26,605.945 1159.65,598.159 1163.04,590.714 1167.18,582.114 1171.31,574.076 1175.45,566.628 1179.59,559.794 1183.73,553.597 1187.87,548.057 1192.01,543.192 1196.15,539.019 1200.29,535.551 1204.43,532.799 1208.56,530.773 1212.7,529.48 1216.84,528.923 1220.98,529.105 1225.12,530.024 1229.26,531.678 1233.05,533.834 1236.84,536.596 1240.63,539.956 1244.42,543.906 1248.22,548.433 1252.01,553.527 1255.8,559.172 1259.59,565.353 1263.38,572.053 1267.17,579.254 1270.96,586.935 1274.76,595.075 1278.55,603.652 1282.34,612.642 1286.13,622.02 1289.92,631.76 1296.93,650.612 1303.93,670.43 1310.93,691.026 1317.94,712.206 1331.94,755.514 1345.95,798.726 1353.04,820.054 1360.14,840.733 1367.23,860.561 1374.33,879.348 1377.87,888.293 1381.42,896.911 1384.97,905.179 1388.52,913.08 1392.06,920.592 1395.61,927.698 1399.16,934.381 1402.7,940.625 1406.68,947.082 1410.66,952.948 1414.63,958.206 1418.61,962.839 1422.58,966.835 1426.56,970.179 1430.53,972.863 1434.51,974.878 1438.48,976.218 1442.46,976.879 1446.43,976.858 1450.41,976.157 1454.38,974.777 1458.36,972.722 1462.33,969.998 1466.31,966.615 1469.91,962.987 1473.51,958.835 1477.12,954.168 1480.72,948.999 1484.32,943.34 1487.92,937.206 1491.53,930.611 1495.13,923.573 1498.73,916.109 1502.33,908.237 1505.94,899.977 1509.54,891.35 1513.14,882.377 1516.74,873.081 1520.35,863.484 1523.95,853.612 1532.2,830.1 1540.45,805.578 1548.69,780.367 1556.94,754.797 1565.19,729.202 1573.44,703.918 1581.69,679.275 1589.94,655.596 1593.76,645.047 1597.58,634.8 1601.39,624.885 1605.21,615.329 1609.03,606.16 1612.85,597.402 1616.67,589.081 1620.49,581.22 1624.31,573.84 1628.13,566.964 1631.95,560.609 1635.76,554.794 1639.58,549.535 1643.4,544.846 1647.22,540.742 1651.04,537.234 1654.8,534.367 1658.57,532.097 1662.33,530.429 1666.1,529.368 1669.86,528.916 1673.63,529.076 1677.39,529.847 1681.16,531.226 1684.92,533.21 1688.69,535.793 1692.45,538.969 1696.22,542.728 1699.98,547.061 1703.75,551.955 1707.51,557.397 1711.28,563.373 1714.93,569.67 1718.59,576.438 1722.24,583.66 1725.9,591.318 1729.56,599.391 1733.21,607.859 1736.87,616.699 1740.52,625.891 1747.83,645.228 1755.14,665.673 1762.45,687.015 1769.76,709.035 1784.75,755.338 1799.74,801.538 1807.24,823.974 1814.73,845.643 1822.23,866.31 1829.72,885.752 1833.83,895.807 1837.93,905.399 1842.04,914.496 1846.14,923.069 1850.25,931.09 1854.35,938.533 1858.46,945.374 1862.57,951.591 1866.67,957.164 1870.78,962.074 1874.88,966.305 1878.99,969.845 1883.09,972.68 1887.2,974.803 1891.31,976.206 1895.41,976.885 1898.39,976.923 1901.37,976.577 1904.36,975.849 1907.34,974.739 1910.32,973.249 1913.3,971.383 1916.28,969.142 1919.27,966.532 1922.25,963.555 1925.23,960.219 1928.21,956.527 1931.19,952.487 1934.18,948.106 1937.16,943.39 1940.14,938.349 1943.12,932.99 1946.1,927.323 1949.09,921.357 1952.07,915.103 1955.05,908.572 1961.02,894.722 1966.98,879.901 1972.94,864.212 1978.91,847.761 1984.87,830.661 1990.84,813.029 1995.73,798.248 2000.62,783.257 2005.52,768.127 2010.41,752.927 "/>
<polyline clip-path="url(#clip322)" style="stroke:#ac8d18; stroke-linecap:round; stroke-linejoin:round; stroke-width:4; stroke-opacity:1; fill:none" points="198.942,752.927 201.89,743.763 204.839,734.603 207.787,725.451 210.736,716.31 224.367,674.31 237.998,633.012 251.629,592.786 265.26,553.99 272.076,535.238 278.892,516.972 285.707,499.234 292.523,482.062 299.338,465.496 306.154,449.573 312.969,434.327 319.785,419.794 327.977,403.314 336.169,387.963 344.36,373.79 352.552,360.841 360.744,349.157 368.936,338.778 377.127,329.735 385.319,322.059 392.245,316.653 399.171,312.254 406.097,308.873 413.023,306.516 419.949,305.189 426.875,304.896 433.801,305.637 440.727,307.41 448.251,310.501 455.775,314.797 463.298,320.287 470.822,326.954 478.346,334.782 485.869,343.749 493.393,353.829 500.916,364.997 507.853,376.23 514.789,388.334 521.725,401.282 528.661,415.044 535.597,429.589 542.533,444.882 549.469,460.887 556.405,477.569 563.842,496.161 571.278,515.436 578.714,535.342 586.15,555.828 601.023,598.316 615.895,642.449 650.358,748.414 684.82,854.636 700.133,900.329 715.446,944.361 723.103,965.597 730.759,986.234 738.416,1006.21 746.072,1025.48 752.787,1041.74 759.501,1057.37 766.215,1072.35 772.929,1086.63 779.643,1100.19 786.357,1113 793.071,1125.02 799.785,1136.24 807.105,1147.52 814.426,1157.79 821.746,1167.01 829.066,1175.16 836.386,1182.23 843.706,1188.18 851.026,1193.02 858.347,1196.72 865.71,1199.29 873.074,1200.69 880.438,1200.93 887.801,1200 895.165,1197.9 902.529,1194.64 909.892,1190.23 917.256,1184.67 925.397,1177.22 933.539,1168.42 941.68,1158.29 949.822,1146.87 957.963,1134.19 966.105,1120.3 974.246,1105.24 982.388,1089.05 990.134,1072.65 997.881,1055.33 1005.63,1037.13 1013.37,1018.12 1021.12,998.338 1028.87,977.849 1036.61,956.71 1044.36,934.984 1060.47,888.193 1076.58,839.715 1092.69,790.154 1108.79,740.129 1122.36,698.116 1135.92,656.589 1149.48,615.913 1163.04,576.449 1171.31,553.103 1179.59,530.417 1187.87,508.463 1196.15,487.316 1204.43,467.045 1212.7,447.715 1220.98,429.392 1229.26,412.136 1236.84,397.313 1244.42,383.473 1252.01,370.656 1259.59,358.896 1267.17,348.226 1274.76,338.676 1282.34,330.272 1289.92,323.037 1296.93,317.411 1303.93,312.813 1310.93,309.254 1317.94,306.742 1324.94,305.282 1331.94,304.879 1338.95,305.533 1345.95,307.244 1353.04,310.048 1360.14,313.925 1367.23,318.866 1374.33,324.857 1381.42,331.885 1388.52,339.932 1395.61,348.979 1402.7,359.005 1410.66,371.373 1418.61,384.902 1426.56,399.55 1434.51,415.273 1442.46,432.022 1450.41,449.748 1458.36,468.395 1466.31,487.908 1473.51,506.288 1480.72,525.284 1487.92,544.848 1495.13,564.931 1509.54,606.456 1523.95,649.443 1556.94,751.056 1589.94,852.767 1605.21,898.406 1620.49,942.412 1628.13,963.648 1635.76,984.293 1643.4,1004.29 1651.04,1023.58 1658.57,1041.85 1666.1,1059.34 1673.63,1075.99 1681.16,1091.76 1688.69,1106.6 1696.22,1120.48 1703.75,1133.36 1711.28,1145.2 1718.59,1155.67 1725.9,1165.11 1733.21,1173.48 1740.52,1180.78 1747.83,1186.97 1755.14,1192.05 1762.45,1196 1769.76,1198.81 1777.26,1200.49 1784.75,1200.97 1792.25,1200.24 1799.74,1198.3 1807.24,1195.16 1814.73,1190.82 1822.23,1185.3 1829.72,1178.61 1837.93,1169.96 1846.14,1159.96 1854.35,1148.64 1862.57,1136.03 1870.78,1122.18 1878.99,1107.13 1887.2,1090.94 1895.41,1073.65 1907.34,1046.69 1919.27,1017.72 1931.19,986.942 1943.12,954.561 1955.05,920.801 1966.98,885.891 1978.91,850.072 1990.84,813.588 1995.73,798.484 2000.62,783.327 2005.52,768.136 2010.41,752.927 "/>
<path clip-path="url(#clip320)" d="M1594.74 397.862 L2000.75 397.862 L2000.75 86.8219 L1594.74 86.8219  Z" fill="#ffffff" fill-rule="evenodd" fill-opacity="1"/>
<polyline clip-path="url(#clip320)" style="stroke:#000000; stroke-linecap:round; stroke-linejoin:round; stroke-width:4; stroke-opacity:1; fill:none" points="1594.74,397.862 2000.75,397.862 2000.75,86.8219 1594.74,86.8219 1594.74,397.862 "/>
<polyline clip-path="url(#clip320)" style="stroke:#009af9; stroke-linecap:round; stroke-linejoin:round; stroke-width:4; stroke-opacity:1; fill:none" points="1616.07,138.662 1744.08,138.662 "/>
<path clip-path="url(#clip320)" d="M1765.42 149.903 L1765.42 143.579 Q1765.42 143.04 1765.44 142.852 Q1765.47 142.665 1765.61 142.525 Q1765.75 142.384 1766.03 142.384 Q1766.36 142.384 1766.47 142.525 Q1766.61 142.665 1766.71 143.204 Q1767.43 146.506 1768.98 148.263 Q1770.55 149.996 1773.38 149.996 Q1776.08 149.996 1777.43 148.802 Q1778.79 147.607 1778.79 145.64 Q1778.79 142.126 1773.8 141.236 Q1770.92 140.651 1769.73 140.276 Q1768.53 139.878 1767.48 139.011 Q1765.42 137.325 1765.42 134.936 Q1765.42 132.547 1767.22 130.79 Q1769.05 129.033 1773.08 129.033 Q1775.77 129.033 1777.6 130.392 Q1778.14 129.97 1778.42 129.619 Q1779.05 129.033 1779.38 129.033 Q1779.75 129.033 1779.82 129.291 Q1779.89 129.525 1779.89 130.204 L1779.89 135.029 Q1779.89 135.568 1779.87 135.755 Q1779.85 135.943 1779.71 136.083 Q1779.57 136.201 1779.26 136.201 Q1778.72 136.201 1778.7 135.755 Q1778.32 129.947 1773.08 129.947 Q1770.24 129.947 1768.98 131.048 Q1767.71 132.125 1767.71 133.601 Q1767.71 134.42 1768.09 135.053 Q1768.49 135.662 1768.98 136.037 Q1769.49 136.388 1770.43 136.739 Q1771.37 137.067 1771.93 137.184 Q1772.52 137.301 1773.62 137.536 Q1777.46 138.262 1779.07 139.831 Q1781.09 141.845 1781.09 144.398 Q1781.09 147.232 1779.17 149.153 Q1777.25 151.074 1773.38 151.074 Q1770.27 151.074 1768.09 148.989 Q1767.81 149.27 1767.6 149.528 Q1767.39 149.762 1767.29 149.856 Q1767.22 149.949 1767.2 150.02 Q1767.17 150.067 1767.13 150.113 Q1766.17 151.074 1765.93 151.074 Q1765.56 151.074 1765.49 150.816 Q1765.42 150.582 1765.42 149.903 Z" fill="#000000" fill-rule="nonzero" fill-opacity="1" /><path clip-path="url(#clip320)" d="M1783.92 139.972 Q1783.92 135.451 1786.83 132.242 Q1789.73 129.033 1793.9 129.033 Q1798.12 129.033 1800.29 131.774 Q1802.5 134.514 1802.5 138.449 Q1802.5 139.175 1802.31 139.316 Q1802.12 139.456 1801.3 139.456 L1787.9 139.456 Q1787.9 144.352 1789.36 146.647 Q1791.37 149.856 1794.77 149.856 Q1795.24 149.856 1795.8 149.762 Q1796.36 149.668 1797.51 149.27 Q1798.66 148.849 1799.66 147.748 Q1800.67 146.647 1801.26 144.914 Q1801.4 144.234 1801.86 144.258 Q1802.5 144.258 1802.5 144.82 Q1802.5 145.242 1802.03 146.202 Q1801.58 147.139 1800.72 148.263 Q1799.85 149.387 1798.16 150.231 Q1796.5 151.074 1794.49 151.074 Q1790.27 151.074 1787.08 147.888 Q1783.92 144.679 1783.92 139.972 M1787.95 138.449 L1799.33 138.449 Q1799.33 137.442 1799.15 136.318 Q1798.98 135.193 1798.47 133.647 Q1797.98 132.078 1796.8 131.094 Q1795.63 130.111 1793.9 130.111 Q1793.13 130.111 1792.28 130.439 Q1791.46 130.766 1790.46 131.563 Q1789.45 132.359 1788.75 134.163 Q1788.04 135.966 1787.95 138.449 Z" fill="#000000" fill-rule="nonzero" fill-opacity="1" /><path clip-path="url(#clip320)" d="M1804.05 150.535 L1804.05 149.059 Q1806.6 149.059 1807.19 148.755 Q1807.77 148.427 1807.77 146.881 L1807.77 134.022 Q1807.77 132.242 1807.14 131.797 Q1806.53 131.352 1804.05 131.352 L1804.05 129.853 L1810.79 129.338 L1810.79 134.374 Q1813.04 129.338 1817.89 129.338 Q1821.5 129.338 1822.93 131.118 Q1823.98 132.312 1824.19 133.647 Q1824.43 134.983 1824.43 138.449 L1824.43 147.607 Q1824.47 148.614 1825.25 148.849 Q1826.02 149.059 1828.17 149.059 L1828.17 150.535 Q1823.28 150.395 1822.79 150.395 Q1822.41 150.395 1817.38 150.535 L1817.38 149.059 Q1819.93 149.059 1820.51 148.755 Q1821.12 148.427 1821.12 146.881 L1821.12 135.709 Q1821.12 133.273 1820.37 131.844 Q1819.62 130.392 1817.56 130.392 Q1815.08 130.392 1813.09 132.476 Q1811.1 134.561 1811.1 138.074 L1811.1 146.881 Q1811.1 148.427 1811.68 148.755 Q1812.29 149.059 1814.82 149.059 L1814.82 150.535 Q1809.93 150.395 1809.46 150.395 Q1809.08 150.395 1804.05 150.535 Z" fill="#000000" fill-rule="nonzero" fill-opacity="1" /><path clip-path="url(#clip320)" d="M1830.4 138.543 Q1830.4 130.439 1833.42 123.904 Q1834.71 121.163 1836.51 118.868 Q1838.32 116.572 1839.51 115.565 Q1840.7 114.558 1841.03 114.558 Q1841.5 114.558 1841.52 115.027 Q1841.52 115.261 1840.89 115.846 Q1833.16 123.716 1833.19 138.543 Q1833.19 153.416 1840.7 160.981 Q1841.52 161.801 1841.52 162.059 Q1841.52 162.527 1841.03 162.527 Q1840.7 162.527 1839.56 161.567 Q1838.41 160.607 1836.63 158.405 Q1834.85 156.203 1833.56 153.51 Q1830.4 146.975 1830.4 138.543 Z" fill="#000000" fill-rule="nonzero" fill-opacity="1" /><path clip-path="url(#clip320)" d="M1869.06 132.5 Q1869.06 133.811 1868.24 134.561 Q1867.42 135.287 1866.48 135.287 Q1865.59 135.287 1865.12 134.772 Q1864.66 134.256 1864.66 133.601 Q1864.66 132.711 1865.31 131.938 Q1865.97 131.165 1866.95 131.001 Q1865.99 130.392 1864.56 130.392 Q1863.63 130.392 1862.81 130.884 Q1862.01 131.375 1861.52 132.008 Q1861.05 132.64 1860.63 133.554 Q1860.23 134.444 1860.07 134.983 Q1859.93 135.498 1859.81 136.06 L1858.17 142.618 Q1857.37 145.733 1857.37 146.834 Q1857.37 148.193 1858.03 149.106 Q1858.68 149.996 1860 149.996 Q1860.51 149.996 1861.1 149.856 Q1861.68 149.692 1862.43 149.27 Q1863.2 148.825 1863.88 148.169 Q1864.59 147.49 1865.27 146.342 Q1865.94 145.195 1866.39 143.719 Q1866.53 143.204 1867 143.204 Q1867.58 143.204 1867.58 143.672 Q1867.58 144.07 1867.26 144.914 Q1866.95 145.733 1866.27 146.811 Q1865.62 147.865 1864.75 148.825 Q1863.88 149.762 1862.6 150.418 Q1861.31 151.074 1859.9 151.074 Q1857.89 151.074 1856.55 149.996 Q1855.22 148.919 1854.73 147.42 Q1854.61 147.631 1854.44 147.912 Q1854.28 148.193 1853.79 148.825 Q1853.32 149.434 1852.78 149.903 Q1852.24 150.348 1851.4 150.699 Q1850.58 151.074 1849.69 151.074 Q1848.57 151.074 1847.56 150.746 Q1846.57 150.418 1845.87 149.668 Q1845.17 148.919 1845.17 147.888 Q1845.17 146.741 1845.94 145.944 Q1846.74 145.124 1847.82 145.124 Q1848.5 145.124 1849.03 145.523 Q1849.6 145.921 1849.6 146.787 Q1849.6 147.748 1848.94 148.474 Q1848.28 149.2 1847.35 149.387 Q1848.31 149.996 1849.74 149.996 Q1851.28 149.996 1852.5 148.638 Q1853.72 147.279 1854.3 145.007 Q1855.76 139.55 1856.32 137.114 Q1856.88 134.655 1856.88 133.601 Q1856.88 132.617 1856.62 131.938 Q1856.36 131.258 1855.92 130.954 Q1855.5 130.626 1855.1 130.509 Q1854.73 130.392 1854.3 130.392 Q1853.6 130.392 1852.8 130.673 Q1852.03 130.954 1851.09 131.61 Q1850.18 132.242 1849.31 133.554 Q1848.45 134.865 1847.86 136.669 Q1847.75 137.208 1847.23 137.208 Q1846.67 137.184 1846.67 136.716 Q1846.67 136.318 1846.97 135.498 Q1847.3 134.655 1847.96 133.601 Q1848.64 132.547 1849.5 131.61 Q1850.39 130.649 1851.68 129.994 Q1852.99 129.338 1854.4 129.338 Q1855.03 129.338 1855.64 129.478 Q1856.27 129.595 1857.02 129.947 Q1857.79 130.298 1858.47 131.071 Q1859.15 131.844 1859.57 132.968 Q1859.85 132.429 1860.23 131.914 Q1860.63 131.399 1861.24 130.766 Q1861.87 130.111 1862.74 129.736 Q1863.63 129.338 1864.61 129.338 Q1865.57 129.338 1866.51 129.595 Q1867.44 129.83 1868.24 130.603 Q1869.06 131.352 1869.06 132.5 Z" fill="#000000" fill-rule="nonzero" fill-opacity="1" /><path clip-path="url(#clip320)" d="M1873.68 162.059 Q1873.68 161.825 1874.29 161.239 Q1882.01 153.369 1882.01 138.543 Q1882.01 123.669 1874.59 116.151 Q1873.68 115.284 1873.68 115.027 Q1873.68 114.558 1874.14 114.558 Q1874.47 114.558 1875.62 115.518 Q1876.79 116.479 1878.55 118.681 Q1880.33 120.882 1881.64 123.576 Q1884.8 130.111 1884.8 138.543 Q1884.8 146.647 1881.78 153.182 Q1880.49 155.922 1878.69 158.218 Q1876.88 160.513 1875.69 161.52 Q1874.5 162.527 1874.14 162.527 Q1873.68 162.527 1873.68 162.059 Z" fill="#000000" fill-rule="nonzero" fill-opacity="1" /><polyline clip-path="url(#clip320)" style="stroke:#e26f46; stroke-linecap:round; stroke-linejoin:round; stroke-width:4; stroke-opacity:1; fill:none" points="1616.07,190.502 1744.08,190.502 "/>
<path clip-path="url(#clip320)" d="M1765.42 201.743 L1765.42 195.419 Q1765.42 194.88 1765.44 194.692 Q1765.47 194.505 1765.61 194.365 Q1765.75 194.224 1766.03 194.224 Q1766.36 194.224 1766.47 194.365 Q1766.61 194.505 1766.71 195.044 Q1767.43 198.346 1768.98 200.103 Q1770.55 201.836 1773.38 201.836 Q1776.08 201.836 1777.43 200.642 Q1778.79 199.447 1778.79 197.48 Q1778.79 193.966 1773.8 193.076 Q1770.92 192.491 1769.73 192.116 Q1768.53 191.718 1767.48 190.851 Q1765.42 189.165 1765.42 186.776 Q1765.42 184.387 1767.22 182.63 Q1769.05 180.873 1773.08 180.873 Q1775.77 180.873 1777.6 182.232 Q1778.14 181.81 1778.42 181.459 Q1779.05 180.873 1779.38 180.873 Q1779.75 180.873 1779.82 181.131 Q1779.89 181.365 1779.89 182.044 L1779.89 186.869 Q1779.89 187.408 1779.87 187.595 Q1779.85 187.783 1779.71 187.923 Q1779.57 188.041 1779.26 188.041 Q1778.72 188.041 1778.7 187.595 Q1778.32 181.787 1773.08 181.787 Q1770.24 181.787 1768.98 182.888 Q1767.71 183.965 1767.71 185.441 Q1767.71 186.26 1768.09 186.893 Q1768.49 187.502 1768.98 187.877 Q1769.49 188.228 1770.43 188.579 Q1771.37 188.907 1771.93 189.024 Q1772.52 189.141 1773.62 189.376 Q1777.46 190.102 1779.07 191.671 Q1781.09 193.685 1781.09 196.238 Q1781.09 199.072 1779.17 200.993 Q1777.25 202.914 1773.38 202.914 Q1770.27 202.914 1768.09 200.829 Q1767.81 201.11 1767.6 201.368 Q1767.39 201.602 1767.29 201.696 Q1767.22 201.789 1767.2 201.86 Q1767.17 201.907 1767.13 201.953 Q1766.17 202.914 1765.93 202.914 Q1765.56 202.914 1765.49 202.656 Q1765.42 202.422 1765.42 201.743 Z" fill="#000000" fill-rule="nonzero" fill-opacity="1" /><path clip-path="url(#clip320)" d="M1783.92 191.812 Q1783.92 187.291 1786.83 184.082 Q1789.73 180.873 1793.9 180.873 Q1798.12 180.873 1800.29 183.614 Q1802.5 186.354 1802.5 190.289 Q1802.5 191.015 1802.31 191.156 Q1802.12 191.296 1801.3 191.296 L1787.9 191.296 Q1787.9 196.192 1789.36 198.487 Q1791.37 201.696 1794.77 201.696 Q1795.24 201.696 1795.8 201.602 Q1796.36 201.508 1797.51 201.11 Q1798.66 200.689 1799.66 199.588 Q1800.67 198.487 1801.26 196.754 Q1801.4 196.074 1801.86 196.098 Q1802.5 196.098 1802.5 196.66 Q1802.5 197.082 1802.03 198.042 Q1801.58 198.979 1800.72 200.103 Q1799.85 201.227 1798.16 202.071 Q1796.5 202.914 1794.49 202.914 Q1790.27 202.914 1787.08 199.728 Q1783.92 196.519 1783.92 191.812 M1787.95 190.289 L1799.33 190.289 Q1799.33 189.282 1799.15 188.158 Q1798.98 187.033 1798.47 185.487 Q1797.98 183.918 1796.8 182.934 Q1795.63 181.951 1793.9 181.951 Q1793.13 181.951 1792.28 182.279 Q1791.46 182.606 1790.46 183.403 Q1789.45 184.199 1788.75 186.003 Q1788.04 187.806 1787.95 190.289 Z" fill="#000000" fill-rule="nonzero" fill-opacity="1" /><path clip-path="url(#clip320)" d="M1804.05 202.375 L1804.05 200.899 Q1806.6 200.899 1807.19 200.595 Q1807.77 200.267 1807.77 198.721 L1807.77 185.862 Q1807.77 184.082 1807.14 183.637 Q1806.53 183.192 1804.05 183.192 L1804.05 181.693 L1810.79 181.178 L1810.79 186.214 Q1813.04 181.178 1817.89 181.178 Q1821.5 181.178 1822.93 182.958 Q1823.98 184.152 1824.19 185.487 Q1824.43 186.823 1824.43 190.289 L1824.43 199.447 Q1824.47 200.454 1825.25 200.689 Q1826.02 200.899 1828.17 200.899 L1828.17 202.375 Q1823.28 202.235 1822.79 202.235 Q1822.41 202.235 1817.38 202.375 L1817.38 200.899 Q1819.93 200.899 1820.51 200.595 Q1821.12 200.267 1821.12 198.721 L1821.12 187.549 Q1821.12 185.113 1820.37 183.684 Q1819.62 182.232 1817.56 182.232 Q1815.08 182.232 1813.09 184.316 Q1811.1 186.401 1811.1 189.914 L1811.1 198.721 Q1811.1 200.267 1811.68 200.595 Q1812.29 200.899 1814.82 200.899 L1814.82 202.375 Q1809.93 202.235 1809.46 202.235 Q1809.08 202.235 1804.05 202.375 Z" fill="#000000" fill-rule="nonzero" fill-opacity="1" /><path clip-path="url(#clip320)" d="M1830.4 190.383 Q1830.4 182.279 1833.42 175.744 Q1834.71 173.003 1836.51 170.708 Q1838.32 168.412 1839.51 167.405 Q1840.7 166.398 1841.03 166.398 Q1841.5 166.398 1841.52 166.867 Q1841.52 167.101 1840.89 167.686 Q1833.16 175.556 1833.19 190.383 Q1833.19 205.256 1840.7 212.821 Q1841.52 213.641 1841.52 213.899 Q1841.52 214.367 1841.03 214.367 Q1840.7 214.367 1839.56 213.407 Q1838.41 212.447 1836.63 210.245 Q1834.85 208.043 1833.56 205.35 Q1830.4 198.815 1830.4 190.383 Z" fill="#000000" fill-rule="nonzero" fill-opacity="1" /><path clip-path="url(#clip320)" d="M1869.06 184.34 Q1869.06 185.651 1868.24 186.401 Q1867.42 187.127 1866.48 187.127 Q1865.59 187.127 1865.12 186.612 Q1864.66 186.096 1864.66 185.441 Q1864.66 184.551 1865.31 183.778 Q1865.97 183.005 1866.95 182.841 Q1865.99 182.232 1864.56 182.232 Q1863.63 182.232 1862.81 182.724 Q1862.01 183.215 1861.52 183.848 Q1861.05 184.48 1860.63 185.394 Q1860.23 186.284 1860.07 186.823 Q1859.93 187.338 1859.81 187.9 L1858.17 194.458 Q1857.37 197.573 1857.37 198.674 Q1857.37 200.033 1858.03 200.946 Q1858.68 201.836 1860 201.836 Q1860.51 201.836 1861.1 201.696 Q1861.68 201.532 1862.43 201.11 Q1863.2 200.665 1863.88 200.009 Q1864.59 199.33 1865.27 198.182 Q1865.94 197.035 1866.39 195.559 Q1866.53 195.044 1867 195.044 Q1867.58 195.044 1867.58 195.512 Q1867.58 195.91 1867.26 196.754 Q1866.95 197.573 1866.27 198.651 Q1865.62 199.705 1864.75 200.665 Q1863.88 201.602 1862.6 202.258 Q1861.31 202.914 1859.9 202.914 Q1857.89 202.914 1856.55 201.836 Q1855.22 200.759 1854.73 199.26 Q1854.61 199.471 1854.44 199.752 Q1854.28 200.033 1853.79 200.665 Q1853.32 201.274 1852.78 201.743 Q1852.24 202.188 1851.4 202.539 Q1850.58 202.914 1849.69 202.914 Q1848.57 202.914 1847.56 202.586 Q1846.57 202.258 1845.87 201.508 Q1845.17 200.759 1845.17 199.728 Q1845.17 198.581 1845.94 197.784 Q1846.74 196.964 1847.82 196.964 Q1848.5 196.964 1849.03 197.363 Q1849.6 197.761 1849.6 198.627 Q1849.6 199.588 1848.94 200.314 Q1848.28 201.04 1847.35 201.227 Q1848.31 201.836 1849.74 201.836 Q1851.28 201.836 1852.5 200.478 Q1853.72 199.119 1854.3 196.847 Q1855.76 191.39 1856.32 188.954 Q1856.88 186.495 1856.88 185.441 Q1856.88 184.457 1856.62 183.778 Q1856.36 183.098 1855.92 182.794 Q1855.5 182.466 1855.1 182.349 Q1854.73 182.232 1854.3 182.232 Q1853.6 182.232 1852.8 182.513 Q1852.03 182.794 1851.09 183.45 Q1850.18 184.082 1849.31 185.394 Q1848.45 186.705 1847.86 188.509 Q1847.75 189.048 1847.23 189.048 Q1846.67 189.024 1846.67 188.556 Q1846.67 188.158 1846.97 187.338 Q1847.3 186.495 1847.96 185.441 Q1848.64 184.387 1849.5 183.45 Q1850.39 182.489 1851.68 181.834 Q1852.99 181.178 1854.4 181.178 Q1855.03 181.178 1855.64 181.318 Q1856.27 181.435 1857.02 181.787 Q1857.79 182.138 1858.47 182.911 Q1859.15 183.684 1859.57 184.808 Q1859.85 184.269 1860.23 183.754 Q1860.63 183.239 1861.24 182.606 Q1861.87 181.951 1862.74 181.576 Q1863.63 181.178 1864.61 181.178 Q1865.57 181.178 1866.51 181.435 Q1867.44 181.67 1868.24 182.443 Q1869.06 183.192 1869.06 184.34 Z" fill="#000000" fill-rule="nonzero" fill-opacity="1" /><path clip-path="url(#clip320)" d="M1886.74 190.968 Q1885.64 190.968 1885.64 190.383 Q1885.64 189.797 1886.79 189.797 Q1886.93 189.797 1887.16 189.821 Q1887.42 189.844 1887.47 189.844 L1900.98 189.844 L1900.98 176.282 Q1900.98 176.236 1900.96 176.025 Q1900.94 175.791 1900.94 175.65 Q1900.94 174.502 1901.5 174.502 Q1902.08 174.502 1902.08 175.65 L1902.08 189.844 L1915.62 189.844 Q1915.67 189.844 1915.9 189.821 Q1916.14 189.797 1916.28 189.797 Q1917.38 189.797 1917.38 190.383 Q1917.4 190.968 1916.23 190.968 Q1916.09 190.968 1915.88 190.945 Q1915.67 190.921 1915.62 190.921 L1902.08 190.921 L1902.08 205.162 Q1902.08 206.263 1901.5 206.263 Q1900.94 206.263 1900.94 205.115 Q1900.94 204.975 1900.96 204.741 Q1900.98 204.53 1900.98 204.483 L1900.98 190.921 L1887.47 190.921 Q1887.42 190.921 1887.14 190.945 Q1886.88 190.968 1886.74 190.968 Z" fill="#000000" fill-rule="nonzero" fill-opacity="1" /><path clip-path="url(#clip320)" d="M1935.9 202.375 Q1935.9 201.508 1935.97 201.251 Q1936.06 200.993 1936.44 200.595 L1945.64 190.336 Q1950.68 184.668 1950.68 179.726 Q1950.68 176.517 1948.99 174.221 Q1947.33 171.926 1944.26 171.926 Q1942.15 171.926 1940.37 173.214 Q1938.59 174.502 1937.77 176.798 Q1937.91 176.751 1938.41 176.751 Q1939.6 176.751 1940.26 177.5 Q1940.94 178.25 1940.94 179.257 Q1940.94 180.545 1940.09 181.178 Q1939.27 181.787 1938.45 181.787 Q1938.13 181.787 1937.68 181.716 Q1937.26 181.646 1936.58 180.99 Q1935.9 180.311 1935.9 179.117 Q1935.9 175.767 1938.43 173.097 Q1940.98 170.427 1944.87 170.427 Q1949.27 170.427 1952.16 173.05 Q1955.06 175.65 1955.06 179.726 Q1955.06 181.154 1954.62 182.466 Q1954.19 183.754 1953.61 184.761 Q1953.05 185.769 1951.5 187.385 Q1949.95 189.001 1948.71 190.149 Q1947.47 191.296 1944.68 193.732 L1939.6 198.674 L1948.24 198.674 Q1952.46 198.674 1952.79 198.3 Q1953.26 197.62 1953.84 194.037 L1955.06 194.037 L1953.7 202.375 L1935.9 202.375 Z" fill="#000000" fill-rule="nonzero" fill-opacity="1" /><path clip-path="url(#clip320)" d="M1960.81 213.899 Q1960.81 213.665 1961.41 213.079 Q1969.14 205.209 1969.14 190.383 Q1969.14 175.509 1961.72 167.991 Q1960.81 167.124 1960.81 166.867 Q1960.81 166.398 1961.27 166.398 Q1961.6 166.398 1962.75 167.358 Q1963.92 168.319 1965.68 170.521 Q1967.46 172.722 1968.77 175.416 Q1971.93 181.951 1971.93 190.383 Q1971.93 198.487 1968.91 205.022 Q1967.62 207.762 1965.82 210.058 Q1964.01 212.353 1962.82 213.36 Q1961.63 214.367 1961.27 214.367 Q1960.81 214.367 1960.81 213.899 Z" fill="#000000" fill-rule="nonzero" fill-opacity="1" /><polyline clip-path="url(#clip320)" style="stroke:#3da44d; stroke-linecap:round; stroke-linejoin:round; stroke-width:4; stroke-opacity:1; fill:none" points="1616.07,242.342 1744.08,242.342 "/>
<path clip-path="url(#clip320)" d="M1765.42 253.583 L1765.42 247.259 Q1765.42 246.72 1765.44 246.532 Q1765.47 246.345 1765.61 246.205 Q1765.75 246.064 1766.03 246.064 Q1766.36 246.064 1766.47 246.205 Q1766.61 246.345 1766.71 246.884 Q1767.43 250.186 1768.98 251.943 Q1770.55 253.676 1773.38 253.676 Q1776.08 253.676 1777.43 252.482 Q1778.79 251.287 1778.79 249.32 Q1778.79 245.806 1773.8 244.916 Q1770.92 244.331 1769.73 243.956 Q1768.53 243.558 1767.48 242.691 Q1765.42 241.005 1765.42 238.616 Q1765.42 236.227 1767.22 234.47 Q1769.05 232.713 1773.08 232.713 Q1775.77 232.713 1777.6 234.072 Q1778.14 233.65 1778.42 233.299 Q1779.05 232.713 1779.38 232.713 Q1779.75 232.713 1779.82 232.971 Q1779.89 233.205 1779.89 233.884 L1779.89 238.709 Q1779.89 239.248 1779.87 239.435 Q1779.85 239.623 1779.71 239.763 Q1779.57 239.881 1779.26 239.881 Q1778.72 239.881 1778.7 239.435 Q1778.32 233.627 1773.08 233.627 Q1770.24 233.627 1768.98 234.728 Q1767.71 235.805 1767.71 237.281 Q1767.71 238.1 1768.09 238.733 Q1768.49 239.342 1768.98 239.717 Q1769.49 240.068 1770.43 240.419 Q1771.37 240.747 1771.93 240.864 Q1772.52 240.981 1773.62 241.216 Q1777.46 241.942 1779.07 243.511 Q1781.09 245.525 1781.09 248.078 Q1781.09 250.912 1779.17 252.833 Q1777.25 254.754 1773.38 254.754 Q1770.27 254.754 1768.09 252.669 Q1767.81 252.95 1767.6 253.208 Q1767.39 253.442 1767.29 253.536 Q1767.22 253.629 1767.2 253.7 Q1767.17 253.747 1767.13 253.793 Q1766.17 254.754 1765.93 254.754 Q1765.56 254.754 1765.49 254.496 Q1765.42 254.262 1765.42 253.583 Z" fill="#000000" fill-rule="nonzero" fill-opacity="1" /><path clip-path="url(#clip320)" d="M1783.92 243.652 Q1783.92 239.131 1786.83 235.922 Q1789.73 232.713 1793.9 232.713 Q1798.12 232.713 1800.29 235.454 Q1802.5 238.194 1802.5 242.129 Q1802.5 242.855 1802.31 242.996 Q1802.12 243.136 1801.3 243.136 L1787.9 243.136 Q1787.9 248.032 1789.36 250.327 Q1791.37 253.536 1794.77 253.536 Q1795.24 253.536 1795.8 253.442 Q1796.36 253.348 1797.51 252.95 Q1798.66 252.529 1799.66 251.428 Q1800.67 250.327 1801.26 248.594 Q1801.4 247.914 1801.86 247.938 Q1802.5 247.938 1802.5 248.5 Q1802.5 248.922 1802.03 249.882 Q1801.58 250.819 1800.72 251.943 Q1799.85 253.067 1798.16 253.911 Q1796.5 254.754 1794.49 254.754 Q1790.27 254.754 1787.08 251.568 Q1783.92 248.359 1783.92 243.652 M1787.95 242.129 L1799.33 242.129 Q1799.33 241.122 1799.15 239.998 Q1798.98 238.873 1798.47 237.327 Q1797.98 235.758 1796.8 234.774 Q1795.63 233.791 1793.9 233.791 Q1793.13 233.791 1792.28 234.119 Q1791.46 234.446 1790.46 235.243 Q1789.45 236.039 1788.75 237.843 Q1788.04 239.646 1787.95 242.129 Z" fill="#000000" fill-rule="nonzero" fill-opacity="1" /><path clip-path="url(#clip320)" d="M1804.05 254.215 L1804.05 252.739 Q1806.6 252.739 1807.19 252.435 Q1807.77 252.107 1807.77 250.561 L1807.77 237.702 Q1807.77 235.922 1807.14 235.477 Q1806.53 235.032 1804.05 235.032 L1804.05 233.533 L1810.79 233.018 L1810.79 238.054 Q1813.04 233.018 1817.89 233.018 Q1821.5 233.018 1822.93 234.798 Q1823.98 235.992 1824.19 237.327 Q1824.43 238.663 1824.43 242.129 L1824.43 251.287 Q1824.47 252.294 1825.25 252.529 Q1826.02 252.739 1828.17 252.739 L1828.17 254.215 Q1823.28 254.075 1822.79 254.075 Q1822.41 254.075 1817.38 254.215 L1817.38 252.739 Q1819.93 252.739 1820.51 252.435 Q1821.12 252.107 1821.12 250.561 L1821.12 239.389 Q1821.12 236.953 1820.37 235.524 Q1819.62 234.072 1817.56 234.072 Q1815.08 234.072 1813.09 236.156 Q1811.1 238.241 1811.1 241.754 L1811.1 250.561 Q1811.1 252.107 1811.68 252.435 Q1812.29 252.739 1814.82 252.739 L1814.82 254.215 Q1809.93 254.075 1809.46 254.075 Q1809.08 254.075 1804.05 254.215 Z" fill="#000000" fill-rule="nonzero" fill-opacity="1" /><path clip-path="url(#clip320)" d="M1830.4 242.223 Q1830.4 234.119 1833.42 227.584 Q1834.71 224.843 1836.51 222.548 Q1838.32 220.252 1839.51 219.245 Q1840.7 218.238 1841.03 218.238 Q1841.5 218.238 1841.52 218.707 Q1841.52 218.941 1840.89 219.526 Q1833.16 227.396 1833.19 242.223 Q1833.19 257.096 1840.7 264.661 Q1841.52 265.481 1841.52 265.739 Q1841.52 266.207 1841.03 266.207 Q1840.7 266.207 1839.56 265.247 Q1838.41 264.287 1836.63 262.085 Q1834.85 259.883 1833.56 257.19 Q1830.4 250.655 1830.4 242.223 Z" fill="#000000" fill-rule="nonzero" fill-opacity="1" /><path clip-path="url(#clip320)" d="M1869.06 236.18 Q1869.06 237.491 1868.24 238.241 Q1867.42 238.967 1866.48 238.967 Q1865.59 238.967 1865.12 238.452 Q1864.66 237.936 1864.66 237.281 Q1864.66 236.391 1865.31 235.618 Q1865.97 234.845 1866.95 234.681 Q1865.99 234.072 1864.56 234.072 Q1863.63 234.072 1862.81 234.564 Q1862.01 235.055 1861.52 235.688 Q1861.05 236.32 1860.63 237.234 Q1860.23 238.124 1860.07 238.663 Q1859.93 239.178 1859.81 239.74 L1858.17 246.298 Q1857.37 249.413 1857.37 250.514 Q1857.37 251.873 1858.03 252.786 Q1858.68 253.676 1860 253.676 Q1860.51 253.676 1861.1 253.536 Q1861.68 253.372 1862.43 252.95 Q1863.2 252.505 1863.88 251.849 Q1864.59 251.17 1865.27 250.022 Q1865.94 248.875 1866.39 247.399 Q1866.53 246.884 1867 246.884 Q1867.58 246.884 1867.58 247.352 Q1867.58 247.75 1867.26 248.594 Q1866.95 249.413 1866.27 250.491 Q1865.62 251.545 1864.75 252.505 Q1863.88 253.442 1862.6 254.098 Q1861.31 254.754 1859.9 254.754 Q1857.89 254.754 1856.55 253.676 Q1855.22 252.599 1854.73 251.1 Q1854.61 251.311 1854.44 251.592 Q1854.28 251.873 1853.79 252.505 Q1853.32 253.114 1852.78 253.583 Q1852.24 254.028 1851.4 254.379 Q1850.58 254.754 1849.69 254.754 Q1848.57 254.754 1847.56 254.426 Q1846.57 254.098 1845.87 253.348 Q1845.17 252.599 1845.17 251.568 Q1845.17 250.421 1845.94 249.624 Q1846.74 248.804 1847.82 248.804 Q1848.5 248.804 1849.03 249.203 Q1849.6 249.601 1849.6 250.467 Q1849.6 251.428 1848.94 252.154 Q1848.28 252.88 1847.35 253.067 Q1848.31 253.676 1849.74 253.676 Q1851.28 253.676 1852.5 252.318 Q1853.72 250.959 1854.3 248.687 Q1855.76 243.23 1856.32 240.794 Q1856.88 238.335 1856.88 237.281 Q1856.88 236.297 1856.62 235.618 Q1856.36 234.938 1855.92 234.634 Q1855.5 234.306 1855.1 234.189 Q1854.73 234.072 1854.3 234.072 Q1853.6 234.072 1852.8 234.353 Q1852.03 234.634 1851.09 235.29 Q1850.18 235.922 1849.31 237.234 Q1848.45 238.545 1847.86 240.349 Q1847.75 240.888 1847.23 240.888 Q1846.67 240.864 1846.67 240.396 Q1846.67 239.998 1846.97 239.178 Q1847.3 238.335 1847.96 237.281 Q1848.64 236.227 1849.5 235.29 Q1850.39 234.329 1851.68 233.674 Q1852.99 233.018 1854.4 233.018 Q1855.03 233.018 1855.64 233.158 Q1856.27 233.275 1857.02 233.627 Q1857.79 233.978 1858.47 234.751 Q1859.15 235.524 1859.57 236.648 Q1859.85 236.109 1860.23 235.594 Q1860.63 235.079 1861.24 234.446 Q1861.87 233.791 1862.74 233.416 Q1863.63 233.018 1864.61 233.018 Q1865.57 233.018 1866.51 233.275 Q1867.44 233.51 1868.24 234.283 Q1869.06 235.032 1869.06 236.18 Z" fill="#000000" fill-rule="nonzero" fill-opacity="1" /><path clip-path="url(#clip320)" d="M1873.68 265.739 Q1873.68 265.505 1874.29 264.919 Q1882.01 257.049 1882.01 242.223 Q1882.01 227.349 1874.59 219.831 Q1873.68 218.964 1873.68 218.707 Q1873.68 218.238 1874.14 218.238 Q1874.47 218.238 1875.62 219.198 Q1876.79 220.159 1878.55 222.361 Q1880.33 224.562 1881.64 227.256 Q1884.8 233.791 1884.8 242.223 Q1884.8 250.327 1881.78 256.862 Q1880.49 259.602 1878.69 261.898 Q1876.88 264.193 1875.69 265.2 Q1874.5 266.207 1874.14 266.207 Q1873.68 266.207 1873.68 265.739 Z" fill="#000000" fill-rule="nonzero" fill-opacity="1" /><path clip-path="url(#clip320)" d="M1906.5 242.808 Q1905.4 242.808 1905.4 242.223 Q1905.4 241.637 1906.55 241.637 Q1906.69 241.637 1906.92 241.661 Q1907.18 241.684 1907.23 241.684 L1920.74 241.684 L1920.74 228.122 Q1920.74 228.076 1920.72 227.865 Q1920.7 227.631 1920.7 227.49 Q1920.7 226.342 1921.26 226.342 Q1921.84 226.342 1921.84 227.49 L1921.84 241.684 L1935.38 241.684 Q1935.43 241.684 1935.66 241.661 Q1935.9 241.637 1936.04 241.637 Q1937.14 241.637 1937.14 242.223 Q1937.16 242.808 1935.99 242.808 Q1935.85 242.808 1935.64 242.785 Q1935.43 242.761 1935.38 242.761 L1921.84 242.761 L1921.84 257.002 Q1921.84 258.103 1921.26 258.103 Q1920.7 258.103 1920.7 256.955 Q1920.7 256.815 1920.72 256.581 Q1920.74 256.37 1920.74 256.323 L1920.74 242.761 L1907.23 242.761 Q1907.18 242.761 1906.9 242.785 Q1906.64 242.808 1906.5 242.808 Z" fill="#000000" fill-rule="nonzero" fill-opacity="1" /><path clip-path="url(#clip320)" d="M1955.66 254.215 Q1955.66 253.348 1955.73 253.091 Q1955.83 252.833 1956.2 252.435 L1965.41 242.176 Q1970.44 236.508 1970.44 231.566 Q1970.44 228.357 1968.76 226.061 Q1967.09 223.766 1964.02 223.766 Q1961.92 223.766 1960.14 225.054 Q1958.36 226.342 1957.54 228.638 Q1957.68 228.591 1958.17 228.591 Q1959.36 228.591 1960.02 229.34 Q1960.7 230.09 1960.7 231.097 Q1960.7 232.385 1959.86 233.018 Q1959.04 233.627 1958.22 233.627 Q1957.89 233.627 1957.44 233.556 Q1957.02 233.486 1956.34 232.83 Q1955.66 232.151 1955.66 230.957 Q1955.66 227.607 1958.19 224.937 Q1960.75 222.267 1964.63 222.267 Q1969.04 222.267 1971.92 224.89 Q1974.82 227.49 1974.82 231.566 Q1974.82 232.994 1974.38 234.306 Q1973.96 235.594 1973.37 236.601 Q1972.81 237.609 1971.26 239.225 Q1969.72 240.841 1968.47 241.989 Q1967.23 243.136 1964.45 245.572 L1959.36 250.514 L1968.01 250.514 Q1972.22 250.514 1972.55 250.14 Q1973.02 249.46 1973.6 245.877 L1974.82 245.877 L1973.46 254.215 L1955.66 254.215 Z" fill="#000000" fill-rule="nonzero" fill-opacity="1" /><polyline clip-path="url(#clip320)" style="stroke:#c271d2; stroke-linecap:round; stroke-linejoin:round; stroke-width:4; stroke-opacity:1; fill:none" points="1616.07,294.182 1744.08,294.182 "/>
<path clip-path="url(#clip320)" d="M1765.42 305.423 L1765.42 299.099 Q1765.42 298.56 1765.44 298.372 Q1765.47 298.185 1765.61 298.045 Q1765.75 297.904 1766.03 297.904 Q1766.36 297.904 1766.47 298.045 Q1766.61 298.185 1766.71 298.724 Q1767.43 302.026 1768.98 303.783 Q1770.55 305.516 1773.38 305.516 Q1776.08 305.516 1777.43 304.322 Q1778.79 303.127 1778.79 301.16 Q1778.79 297.646 1773.8 296.756 Q1770.92 296.171 1769.73 295.796 Q1768.53 295.398 1767.48 294.531 Q1765.42 292.845 1765.42 290.456 Q1765.42 288.067 1767.22 286.31 Q1769.05 284.553 1773.08 284.553 Q1775.77 284.553 1777.6 285.912 Q1778.14 285.49 1778.42 285.139 Q1779.05 284.553 1779.38 284.553 Q1779.75 284.553 1779.82 284.811 Q1779.89 285.045 1779.89 285.724 L1779.89 290.549 Q1779.89 291.088 1779.87 291.275 Q1779.85 291.463 1779.71 291.603 Q1779.57 291.721 1779.26 291.721 Q1778.72 291.721 1778.7 291.275 Q1778.32 285.467 1773.08 285.467 Q1770.24 285.467 1768.98 286.568 Q1767.71 287.645 1767.71 289.121 Q1767.71 289.94 1768.09 290.573 Q1768.49 291.182 1768.98 291.557 Q1769.49 291.908 1770.43 292.259 Q1771.37 292.587 1771.93 292.704 Q1772.52 292.821 1773.62 293.056 Q1777.46 293.782 1779.07 295.351 Q1781.09 297.365 1781.09 299.918 Q1781.09 302.752 1779.17 304.673 Q1777.25 306.594 1773.38 306.594 Q1770.27 306.594 1768.09 304.509 Q1767.81 304.79 1767.6 305.048 Q1767.39 305.282 1767.29 305.376 Q1767.22 305.469 1767.2 305.54 Q1767.17 305.587 1767.13 305.633 Q1766.17 306.594 1765.93 306.594 Q1765.56 306.594 1765.49 306.336 Q1765.42 306.102 1765.42 305.423 Z" fill="#000000" fill-rule="nonzero" fill-opacity="1" /><path clip-path="url(#clip320)" d="M1783.92 295.492 Q1783.92 290.971 1786.83 287.762 Q1789.73 284.553 1793.9 284.553 Q1798.12 284.553 1800.29 287.294 Q1802.5 290.034 1802.5 293.969 Q1802.5 294.695 1802.31 294.836 Q1802.12 294.976 1801.3 294.976 L1787.9 294.976 Q1787.9 299.872 1789.36 302.167 Q1791.37 305.376 1794.77 305.376 Q1795.24 305.376 1795.8 305.282 Q1796.36 305.188 1797.51 304.79 Q1798.66 304.369 1799.66 303.268 Q1800.67 302.167 1801.26 300.434 Q1801.4 299.754 1801.86 299.778 Q1802.5 299.778 1802.5 300.34 Q1802.5 300.762 1802.03 301.722 Q1801.58 302.659 1800.72 303.783 Q1799.85 304.907 1798.16 305.751 Q1796.5 306.594 1794.49 306.594 Q1790.27 306.594 1787.08 303.408 Q1783.92 300.199 1783.92 295.492 M1787.95 293.969 L1799.33 293.969 Q1799.33 292.962 1799.15 291.838 Q1798.98 290.713 1798.47 289.167 Q1797.98 287.598 1796.8 286.614 Q1795.63 285.631 1793.9 285.631 Q1793.13 285.631 1792.28 285.959 Q1791.46 286.286 1790.46 287.083 Q1789.45 287.879 1788.75 289.683 Q1788.04 291.486 1787.95 293.969 Z" fill="#000000" fill-rule="nonzero" fill-opacity="1" /><path clip-path="url(#clip320)" d="M1804.05 306.055 L1804.05 304.579 Q1806.6 304.579 1807.19 304.275 Q1807.77 303.947 1807.77 302.401 L1807.77 289.542 Q1807.77 287.762 1807.14 287.317 Q1806.53 286.872 1804.05 286.872 L1804.05 285.373 L1810.79 284.858 L1810.79 289.894 Q1813.04 284.858 1817.89 284.858 Q1821.5 284.858 1822.93 286.638 Q1823.98 287.832 1824.19 289.167 Q1824.43 290.503 1824.43 293.969 L1824.43 303.127 Q1824.47 304.134 1825.25 304.369 Q1826.02 304.579 1828.17 304.579 L1828.17 306.055 Q1823.28 305.915 1822.79 305.915 Q1822.41 305.915 1817.38 306.055 L1817.38 304.579 Q1819.93 304.579 1820.51 304.275 Q1821.12 303.947 1821.12 302.401 L1821.12 291.229 Q1821.12 288.793 1820.37 287.364 Q1819.62 285.912 1817.56 285.912 Q1815.08 285.912 1813.09 287.996 Q1811.1 290.081 1811.1 293.594 L1811.1 302.401 Q1811.1 303.947 1811.68 304.275 Q1812.29 304.579 1814.82 304.579 L1814.82 306.055 Q1809.93 305.915 1809.46 305.915 Q1809.08 305.915 1804.05 306.055 Z" fill="#000000" fill-rule="nonzero" fill-opacity="1" /><path clip-path="url(#clip320)" d="M1830.4 294.063 Q1830.4 285.959 1833.42 279.424 Q1834.71 276.683 1836.51 274.388 Q1838.32 272.092 1839.51 271.085 Q1840.7 270.078 1841.03 270.078 Q1841.5 270.078 1841.52 270.547 Q1841.52 270.781 1840.89 271.366 Q1833.16 279.236 1833.19 294.063 Q1833.19 308.936 1840.7 316.501 Q1841.52 317.321 1841.52 317.579 Q1841.52 318.047 1841.03 318.047 Q1840.7 318.047 1839.56 317.087 Q1838.41 316.127 1836.63 313.925 Q1834.85 311.723 1833.56 309.03 Q1830.4 302.495 1830.4 294.063 Z" fill="#000000" fill-rule="nonzero" fill-opacity="1" /><path clip-path="url(#clip320)" d="M1846.13 306.055 Q1846.13 305.188 1846.2 304.931 Q1846.29 304.673 1846.67 304.275 L1855.87 294.016 Q1860.91 288.348 1860.91 283.406 Q1860.91 280.197 1859.22 277.901 Q1857.56 275.606 1854.49 275.606 Q1852.38 275.606 1850.6 276.894 Q1848.82 278.182 1848 280.478 Q1848.14 280.431 1848.64 280.431 Q1849.83 280.431 1850.49 281.18 Q1851.16 281.93 1851.16 282.937 Q1851.16 284.225 1850.32 284.858 Q1849.5 285.467 1848.68 285.467 Q1848.35 285.467 1847.91 285.396 Q1847.49 285.326 1846.81 284.67 Q1846.13 283.991 1846.13 282.797 Q1846.13 279.447 1848.66 276.777 Q1851.21 274.107 1855.1 274.107 Q1859.5 274.107 1862.38 276.73 Q1865.29 279.33 1865.29 283.406 Q1865.29 284.834 1864.84 286.146 Q1864.42 287.434 1863.84 288.441 Q1863.27 289.449 1861.73 291.065 Q1860.18 292.681 1858.94 293.829 Q1857.7 294.976 1854.91 297.412 L1849.83 302.354 L1858.47 302.354 Q1862.69 302.354 1863.02 301.98 Q1863.49 301.3 1864.07 297.717 L1865.29 297.717 L1863.93 306.055 L1846.13 306.055 Z" fill="#000000" fill-rule="nonzero" fill-opacity="1" /><path clip-path="url(#clip320)" d="M1893.01 288.02 Q1893.01 289.331 1892.19 290.081 Q1891.37 290.807 1890.43 290.807 Q1889.54 290.807 1889.07 290.292 Q1888.6 289.776 1888.6 289.121 Q1888.6 288.231 1889.26 287.458 Q1889.91 286.685 1890.9 286.521 Q1889.94 285.912 1888.51 285.912 Q1887.57 285.912 1886.75 286.404 Q1885.95 286.895 1885.46 287.528 Q1884.99 288.16 1884.57 289.074 Q1884.17 289.964 1884.01 290.503 Q1883.87 291.018 1883.75 291.58 L1882.11 298.138 Q1881.32 301.253 1881.32 302.354 Q1881.32 303.713 1881.97 304.626 Q1882.63 305.516 1883.94 305.516 Q1884.46 305.516 1885.04 305.376 Q1885.63 305.212 1886.38 304.79 Q1887.15 304.345 1887.83 303.689 Q1888.53 303.01 1889.21 301.862 Q1889.89 300.715 1890.33 299.239 Q1890.48 298.724 1890.94 298.724 Q1891.53 298.724 1891.53 299.192 Q1891.53 299.59 1891.2 300.434 Q1890.9 301.253 1890.22 302.331 Q1889.56 303.385 1888.7 304.345 Q1887.83 305.282 1886.54 305.938 Q1885.25 306.594 1883.85 306.594 Q1881.83 306.594 1880.5 305.516 Q1879.16 304.439 1878.67 302.94 Q1878.55 303.151 1878.39 303.432 Q1878.23 303.713 1877.73 304.345 Q1877.27 304.954 1876.73 305.423 Q1876.19 305.868 1875.34 306.219 Q1874.52 306.594 1873.63 306.594 Q1872.51 306.594 1871.5 306.266 Q1870.52 305.938 1869.82 305.188 Q1869.11 304.439 1869.11 303.408 Q1869.11 302.261 1869.89 301.464 Q1870.68 300.644 1871.76 300.644 Q1872.44 300.644 1872.98 301.043 Q1873.54 301.441 1873.54 302.307 Q1873.54 303.268 1872.89 303.994 Q1872.23 304.72 1871.29 304.907 Q1872.25 305.516 1873.68 305.516 Q1875.23 305.516 1876.45 304.158 Q1877.66 302.799 1878.25 300.527 Q1879.7 295.07 1880.26 292.634 Q1880.83 290.175 1880.83 289.121 Q1880.83 288.137 1880.57 287.458 Q1880.31 286.778 1879.87 286.474 Q1879.44 286.146 1879.05 286.029 Q1878.67 285.912 1878.25 285.912 Q1877.55 285.912 1876.75 286.193 Q1875.98 286.474 1875.04 287.13 Q1874.13 287.762 1873.26 289.074 Q1872.39 290.385 1871.81 292.189 Q1871.69 292.728 1871.18 292.728 Q1870.61 292.704 1870.61 292.236 Q1870.61 291.838 1870.92 291.018 Q1871.25 290.175 1871.9 289.121 Q1872.58 288.067 1873.45 287.13 Q1874.34 286.169 1875.63 285.514 Q1876.94 284.858 1878.34 284.858 Q1878.98 284.858 1879.58 284.998 Q1880.22 285.115 1880.97 285.467 Q1881.74 285.818 1882.42 286.591 Q1883.1 287.364 1883.52 288.488 Q1883.8 287.949 1884.17 287.434 Q1884.57 286.919 1885.18 286.286 Q1885.81 285.631 1886.68 285.256 Q1887.57 284.858 1888.55 284.858 Q1889.52 284.858 1890.45 285.115 Q1891.39 285.35 1892.19 286.123 Q1893.01 286.872 1893.01 288.02 Z" fill="#000000" fill-rule="nonzero" fill-opacity="1" /><path clip-path="url(#clip320)" d="M1897.62 317.579 Q1897.62 317.345 1898.23 316.759 Q1905.96 308.889 1905.96 294.063 Q1905.96 279.189 1898.53 271.671 Q1897.62 270.804 1897.62 270.547 Q1897.62 270.078 1898.09 270.078 Q1898.42 270.078 1899.57 271.038 Q1900.74 271.999 1902.49 274.201 Q1904.27 276.402 1905.58 279.096 Q1908.75 285.631 1908.75 294.063 Q1908.75 302.167 1905.73 308.702 Q1904.44 311.442 1902.63 313.738 Q1900.83 316.033 1899.64 317.04 Q1898.44 318.047 1898.09 318.047 Q1897.62 318.047 1897.62 317.579 Z" fill="#000000" fill-rule="nonzero" fill-opacity="1" /><polyline clip-path="url(#clip320)" style="stroke:#ac8d18; stroke-linecap:round; stroke-linejoin:round; stroke-width:4; stroke-opacity:1; fill:none" points="1616.07,346.022 1744.08,346.022 "/>
<path clip-path="url(#clip320)" d="M1765.42 357.895 Q1765.42 357.028 1765.49 356.771 Q1765.58 356.513 1765.96 356.115 L1775.16 345.856 Q1780.2 340.188 1780.2 335.246 Q1780.2 332.037 1778.51 329.741 Q1776.85 327.446 1773.78 327.446 Q1771.67 327.446 1769.89 328.734 Q1768.11 330.022 1767.29 332.318 Q1767.43 332.271 1767.92 332.271 Q1769.12 332.271 1769.77 333.02 Q1770.45 333.77 1770.45 334.777 Q1770.45 336.065 1769.61 336.698 Q1768.79 337.307 1767.97 337.307 Q1767.64 337.307 1767.2 337.236 Q1766.78 337.166 1766.1 336.51 Q1765.42 335.831 1765.42 334.637 Q1765.42 331.287 1767.95 328.617 Q1770.5 325.947 1774.39 325.947 Q1778.79 325.947 1781.67 328.57 Q1784.58 331.17 1784.58 335.246 Q1784.58 336.674 1784.13 337.986 Q1783.71 339.274 1783.13 340.281 Q1782.56 341.289 1781.02 342.905 Q1779.47 344.521 1778.23 345.669 Q1776.99 346.816 1774.2 349.252 L1769.12 354.194 L1777.76 354.194 Q1781.98 354.194 1782.31 353.82 Q1782.77 353.14 1783.36 349.557 L1784.58 349.557 L1783.22 357.895 L1765.42 357.895 Z" fill="#000000" fill-rule="nonzero" fill-opacity="1" /><path clip-path="url(#clip320)" d="M1789.17 357.263 L1789.17 350.939 Q1789.17 350.4 1789.19 350.212 Q1789.22 350.025 1789.36 349.885 Q1789.5 349.744 1789.78 349.744 Q1790.11 349.744 1790.23 349.885 Q1790.37 350.025 1790.46 350.564 Q1791.19 353.866 1792.73 355.623 Q1794.3 357.356 1797.13 357.356 Q1799.83 357.356 1801.19 356.162 Q1802.55 354.967 1802.55 353 Q1802.55 349.486 1797.56 348.596 Q1794.68 348.011 1793.48 347.636 Q1792.29 347.238 1791.23 346.371 Q1789.17 344.685 1789.17 342.296 Q1789.17 339.907 1790.97 338.15 Q1792.8 336.393 1796.83 336.393 Q1799.52 336.393 1801.35 337.752 Q1801.89 337.33 1802.17 336.979 Q1802.8 336.393 1803.13 336.393 Q1803.51 336.393 1803.58 336.651 Q1803.65 336.885 1803.65 337.564 L1803.65 342.389 Q1803.65 342.928 1803.62 343.115 Q1803.6 343.303 1803.46 343.443 Q1803.32 343.561 1803.01 343.561 Q1802.48 343.561 1802.45 343.115 Q1802.08 337.307 1796.83 337.307 Q1794 337.307 1792.73 338.408 Q1791.47 339.485 1791.47 340.961 Q1791.47 341.78 1791.84 342.413 Q1792.24 343.022 1792.73 343.397 Q1793.25 343.748 1794.18 344.099 Q1795.12 344.427 1795.68 344.544 Q1796.27 344.661 1797.37 344.896 Q1801.21 345.622 1802.83 347.191 Q1804.84 349.205 1804.84 351.758 Q1804.84 354.592 1802.92 356.513 Q1801 358.434 1797.13 358.434 Q1794.02 358.434 1791.84 356.349 Q1791.56 356.63 1791.35 356.888 Q1791.14 357.122 1791.05 357.216 Q1790.97 357.309 1790.95 357.38 Q1790.93 357.427 1790.88 357.473 Q1789.92 358.434 1789.69 358.434 Q1789.31 358.434 1789.24 358.176 Q1789.17 357.942 1789.17 357.263 Z" fill="#000000" fill-rule="nonzero" fill-opacity="1" /><path clip-path="url(#clip320)" d="M1807.68 347.332 Q1807.68 342.811 1810.58 339.602 Q1813.48 336.393 1817.65 336.393 Q1821.87 336.393 1824.05 339.134 Q1826.25 341.874 1826.25 345.809 Q1826.25 346.535 1826.06 346.676 Q1825.87 346.816 1825.06 346.816 L1811.66 346.816 Q1811.66 351.712 1813.11 354.007 Q1815.12 357.216 1818.52 357.216 Q1818.99 357.216 1819.55 357.122 Q1820.11 357.028 1821.26 356.63 Q1822.41 356.209 1823.42 355.108 Q1824.42 354.007 1825.01 352.274 Q1825.15 351.594 1825.62 351.618 Q1826.25 351.618 1826.25 352.18 Q1826.25 352.602 1825.78 353.562 Q1825.34 354.499 1824.47 355.623 Q1823.6 356.747 1821.92 357.591 Q1820.25 358.434 1818.24 358.434 Q1814.02 358.434 1810.84 355.248 Q1807.68 352.039 1807.68 347.332 M1811.7 345.809 L1823.09 345.809 Q1823.09 344.802 1822.9 343.678 Q1822.74 342.553 1822.22 341.007 Q1821.73 339.438 1820.56 338.454 Q1819.39 337.471 1817.65 337.471 Q1816.88 337.471 1816.04 337.799 Q1815.22 338.126 1814.21 338.923 Q1813.2 339.719 1812.5 341.523 Q1811.8 343.326 1811.7 345.809 Z" fill="#000000" fill-rule="nonzero" fill-opacity="1" /><path clip-path="url(#clip320)" d="M1827.8 357.895 L1827.8 356.419 Q1830.35 356.419 1830.94 356.115 Q1831.53 355.787 1831.53 354.241 L1831.53 341.382 Q1831.53 339.602 1830.89 339.157 Q1830.28 338.712 1827.8 338.712 L1827.8 337.213 L1834.55 336.698 L1834.55 341.734 Q1836.8 336.698 1841.64 336.698 Q1845.25 336.698 1846.68 338.478 Q1847.73 339.672 1847.94 341.007 Q1848.18 342.343 1848.18 345.809 L1848.18 354.967 Q1848.23 355.974 1849 356.209 Q1849.77 356.419 1851.93 356.419 L1851.93 357.895 Q1847.03 357.755 1846.54 357.755 Q1846.16 357.755 1841.13 357.895 L1841.13 356.419 Q1843.68 356.419 1844.27 356.115 Q1844.88 355.787 1844.88 354.241 L1844.88 343.069 Q1844.88 340.633 1844.13 339.204 Q1843.38 337.752 1841.32 337.752 Q1838.83 337.752 1836.84 339.836 Q1834.85 341.921 1834.85 345.434 L1834.85 354.241 Q1834.85 355.787 1835.44 356.115 Q1836.05 356.419 1838.58 356.419 L1838.58 357.895 Q1833.68 357.755 1833.21 357.755 Q1832.84 357.755 1827.8 357.895 Z" fill="#000000" fill-rule="nonzero" fill-opacity="1" /><path clip-path="url(#clip320)" d="M1854.15 345.903 Q1854.15 337.799 1857.17 331.264 Q1858.46 328.523 1860.27 326.228 Q1862.07 323.932 1863.26 322.925 Q1864.46 321.918 1864.79 321.918 Q1865.25 321.918 1865.28 322.387 Q1865.28 322.621 1864.65 323.206 Q1856.92 331.076 1856.94 345.903 Q1856.94 360.776 1864.46 368.341 Q1865.28 369.161 1865.28 369.419 Q1865.28 369.887 1864.79 369.887 Q1864.46 369.887 1863.31 368.927 Q1862.16 367.967 1860.38 365.765 Q1858.6 363.563 1857.31 360.87 Q1854.15 354.335 1854.15 345.903 Z" fill="#000000" fill-rule="nonzero" fill-opacity="1" /><path clip-path="url(#clip320)" d="M1892.81 339.86 Q1892.81 341.171 1891.99 341.921 Q1891.17 342.647 1890.24 342.647 Q1889.35 342.647 1888.88 342.132 Q1888.41 341.616 1888.41 340.961 Q1888.41 340.071 1889.07 339.298 Q1889.72 338.525 1890.71 338.361 Q1889.74 337.752 1888.32 337.752 Q1887.38 337.752 1886.56 338.244 Q1885.76 338.735 1885.27 339.368 Q1884.8 340 1884.38 340.914 Q1883.98 341.804 1883.82 342.343 Q1883.68 342.858 1883.56 343.42 L1881.92 349.978 Q1881.13 353.093 1881.13 354.194 Q1881.13 355.553 1881.78 356.466 Q1882.44 357.356 1883.75 357.356 Q1884.26 357.356 1884.85 357.216 Q1885.44 357.052 1886.18 356.63 Q1886.96 356.185 1887.64 355.529 Q1888.34 354.85 1889.02 353.702 Q1889.7 352.555 1890.14 351.079 Q1890.28 350.564 1890.75 350.564 Q1891.34 350.564 1891.34 351.032 Q1891.34 351.43 1891.01 352.274 Q1890.71 353.093 1890.03 354.171 Q1889.37 355.225 1888.5 356.185 Q1887.64 357.122 1886.35 357.778 Q1885.06 358.434 1883.65 358.434 Q1881.64 358.434 1880.31 357.356 Q1878.97 356.279 1878.48 354.78 Q1878.36 354.991 1878.2 355.272 Q1878.03 355.553 1877.54 356.185 Q1877.07 356.794 1876.53 357.263 Q1876 357.708 1875.15 358.059 Q1874.33 358.434 1873.44 358.434 Q1872.32 358.434 1871.31 358.106 Q1870.33 357.778 1869.62 357.028 Q1868.92 356.279 1868.92 355.248 Q1868.92 354.101 1869.7 353.304 Q1870.49 352.484 1871.57 352.484 Q1872.25 352.484 1872.79 352.883 Q1873.35 353.281 1873.35 354.147 Q1873.35 355.108 1872.69 355.834 Q1872.04 356.56 1871.1 356.747 Q1872.06 357.356 1873.49 357.356 Q1875.04 357.356 1876.25 355.998 Q1877.47 354.639 1878.06 352.367 Q1879.51 346.91 1880.07 344.474 Q1880.63 342.015 1880.63 340.961 Q1880.63 339.977 1880.38 339.298 Q1880.12 338.618 1879.67 338.314 Q1879.25 337.986 1878.85 337.869 Q1878.48 337.752 1878.06 337.752 Q1877.35 337.752 1876.56 338.033 Q1875.78 338.314 1874.85 338.97 Q1873.93 339.602 1873.07 340.914 Q1872.2 342.225 1871.62 344.029 Q1871.5 344.568 1870.98 344.568 Q1870.42 344.544 1870.42 344.076 Q1870.42 343.678 1870.73 342.858 Q1871.05 342.015 1871.71 340.961 Q1872.39 339.907 1873.26 338.97 Q1874.15 338.009 1875.43 337.354 Q1876.75 336.698 1878.15 336.698 Q1878.78 336.698 1879.39 336.838 Q1880.02 336.955 1880.77 337.307 Q1881.55 337.658 1882.23 338.431 Q1882.91 339.204 1883.33 340.328 Q1883.61 339.789 1883.98 339.274 Q1884.38 338.759 1884.99 338.126 Q1885.62 337.471 1886.49 337.096 Q1887.38 336.698 1888.36 336.698 Q1889.32 336.698 1890.26 336.955 Q1891.2 337.19 1891.99 337.963 Q1892.81 338.712 1892.81 339.86 Z" fill="#000000" fill-rule="nonzero" fill-opacity="1" /><path clip-path="url(#clip320)" d="M1897.43 369.419 Q1897.43 369.185 1898.04 368.599 Q1905.77 360.729 1905.77 345.903 Q1905.77 331.029 1898.34 323.511 Q1897.43 322.644 1897.43 322.387 Q1897.43 321.918 1897.9 321.918 Q1898.23 321.918 1899.37 322.878 Q1900.54 323.839 1902.3 326.041 Q1904.08 328.242 1905.39 330.936 Q1908.55 337.471 1908.55 345.903 Q1908.55 354.007 1905.53 360.542 Q1904.25 363.282 1902.44 365.578 Q1900.64 367.873 1899.44 368.88 Q1898.25 369.887 1897.9 369.887 Q1897.43 369.887 1897.43 369.419 Z" fill="#000000" fill-rule="nonzero" fill-opacity="1" /></svg>
