<?xml version="1.0" encoding="utf-8"?>
<svg xmlns="http://www.w3.org/2000/svg" xmlns:xlink="http://www.w3.org/1999/xlink" width="528" height="336" viewBox="0 0 2112 1344">
<defs>
  <clipPath id="clip050">
    <rect x="0" y="0" width="2112" height="1344"/>
  </clipPath>
</defs>
<path clip-path="url(#clip050)" d="M0 1344 L2112 1344 L2112 0 L0 0  Z" fill="#ffffff" fill-rule="evenodd" fill-opacity="1"/>
<defs>
  <clipPath id="clip051">
    <rect x="422" y="0" width="1479" height="1344"/>
  </clipPath>
</defs>
<path clip-path="url(#clip050)" d="M295.014 1234.58 L2064.76 1234.58 L2064.76 47.2441 L295.014 47.2441  Z" fill="#ffffff" fill-rule="evenodd" fill-opacity="1"/>
<defs>
  <clipPath id="clip052">
    <rect x="295" y="47" width="1771" height="1188"/>
  </clipPath>
</defs>
<polyline clip-path="url(#clip052)" style="stroke:#000000; stroke-linecap:round; stroke-linejoin:round; stroke-width:2; stroke-opacity:0.1; fill:none" points="311.028,1234.58 311.028,47.2441 "/>
<polyline clip-path="url(#clip052)" style="stroke:#000000; stroke-linecap:round; stroke-linejoin:round; stroke-width:2; stroke-opacity:0.1; fill:none" points="651.756,1234.58 651.756,47.2441 "/>
<polyline clip-path="url(#clip052)" style="stroke:#000000; stroke-linecap:round; stroke-linejoin:round; stroke-width:2; stroke-opacity:0.1; fill:none" points="992.484,1234.58 992.484,47.2441 "/>
<polyline clip-path="url(#clip052)" style="stroke:#000000; stroke-linecap:round; stroke-linejoin:round; stroke-width:2; stroke-opacity:0.1; fill:none" points="1333.21,1234.58 1333.21,47.2441 "/>
<polyline clip-path="url(#clip052)" style="stroke:#000000; stroke-linecap:round; stroke-linejoin:round; stroke-width:2; stroke-opacity:0.1; fill:none" points="1673.94,1234.58 1673.94,47.2441 "/>
<polyline clip-path="url(#clip052)" style="stroke:#000000; stroke-linecap:round; stroke-linejoin:round; stroke-width:2; stroke-opacity:0.1; fill:none" points="2014.67,1234.58 2014.67,47.2441 "/>
<polyline clip-path="url(#clip050)" style="stroke:#000000; stroke-linecap:round; stroke-linejoin:round; stroke-width:4; stroke-opacity:1; fill:none" points="295.014,1234.58 2064.76,1234.58 "/>
<polyline clip-path="url(#clip050)" style="stroke:#000000; stroke-linecap:round; stroke-linejoin:round; stroke-width:4; stroke-opacity:1; fill:none" points="311.028,1234.58 311.028,1215.68 "/>
<polyline clip-path="url(#clip050)" style="stroke:#000000; stroke-linecap:round; stroke-linejoin:round; stroke-width:4; stroke-opacity:1; fill:none" points="651.756,1234.58 651.756,1215.68 "/>
<polyline clip-path="url(#clip050)" style="stroke:#000000; stroke-linecap:round; stroke-linejoin:round; stroke-width:4; stroke-opacity:1; fill:none" points="992.484,1234.58 992.484,1215.68 "/>
<polyline clip-path="url(#clip050)" style="stroke:#000000; stroke-linecap:round; stroke-linejoin:round; stroke-width:4; stroke-opacity:1; fill:none" points="1333.21,1234.58 1333.21,1215.68 "/>
<polyline clip-path="url(#clip050)" style="stroke:#000000; stroke-linecap:round; stroke-linejoin:round; stroke-width:4; stroke-opacity:1; fill:none" points="1673.94,1234.58 1673.94,1215.68 "/>
<polyline clip-path="url(#clip050)" style="stroke:#000000; stroke-linecap:round; stroke-linejoin:round; stroke-width:4; stroke-opacity:1; fill:none" points="2014.67,1234.58 2014.67,1215.68 "/>
<path clip-path="url(#clip050)" d="M311.028 1263.19 Q307.417 1263.19 305.588 1266.76 Q303.783 1270.3 303.783 1277.43 Q303.783 1284.54 305.588 1288.1 Q307.417 1291.64 311.028 1291.64 Q314.662 1291.64 316.468 1288.1 Q318.296 1284.54 318.296 1277.43 Q318.296 1270.3 316.468 1266.76 Q314.662 1263.19 311.028 1263.19 M311.028 1259.49 Q316.838 1259.49 319.894 1264.1 Q322.972 1268.68 322.972 1277.43 Q322.972 1286.16 319.894 1290.76 Q316.838 1295.35 311.028 1295.35 Q305.218 1295.35 302.139 1290.76 Q299.084 1286.16 299.084 1277.43 Q299.084 1268.68 302.139 1264.1 Q305.218 1259.49 311.028 1259.49 Z" fill="#000000" fill-rule="nonzero" fill-opacity="1" /><path clip-path="url(#clip050)" d="M626.444 1290.74 L634.083 1290.74 L634.083 1264.37 L625.773 1266.04 L625.773 1261.78 L634.036 1260.11 L638.712 1260.11 L638.712 1290.74 L646.351 1290.74 L646.351 1294.67 L626.444 1294.67 L626.444 1290.74 Z" fill="#000000" fill-rule="nonzero" fill-opacity="1" /><path clip-path="url(#clip050)" d="M665.795 1263.19 Q662.184 1263.19 660.356 1266.76 Q658.55 1270.3 658.55 1277.43 Q658.55 1284.54 660.356 1288.1 Q662.184 1291.64 665.795 1291.64 Q669.43 1291.64 671.235 1288.1 Q673.064 1284.54 673.064 1277.43 Q673.064 1270.3 671.235 1266.76 Q669.43 1263.19 665.795 1263.19 M665.795 1259.49 Q671.606 1259.49 674.661 1264.1 Q677.74 1268.68 677.74 1277.43 Q677.74 1286.16 674.661 1290.76 Q671.606 1295.35 665.795 1295.35 Q659.985 1295.35 656.907 1290.76 Q653.851 1286.16 653.851 1277.43 Q653.851 1268.68 656.907 1264.1 Q659.985 1259.49 665.795 1259.49 Z" fill="#000000" fill-rule="nonzero" fill-opacity="1" /><path clip-path="url(#clip050)" d="M971.258 1290.74 L987.577 1290.74 L987.577 1294.67 L965.633 1294.67 L965.633 1290.74 Q968.295 1287.99 972.878 1283.36 Q977.484 1278.7 978.665 1277.36 Q980.91 1274.84 981.79 1273.1 Q982.693 1271.34 982.693 1269.65 Q982.693 1266.9 980.748 1265.16 Q978.827 1263.42 975.725 1263.42 Q973.526 1263.42 971.072 1264.19 Q968.642 1264.95 965.864 1266.5 L965.864 1261.78 Q968.688 1260.65 971.142 1260.07 Q973.596 1259.49 975.633 1259.49 Q981.003 1259.49 984.197 1262.17 Q987.392 1264.86 987.392 1269.35 Q987.392 1271.48 986.582 1273.4 Q985.795 1275.3 983.688 1277.89 Q983.109 1278.56 980.008 1281.78 Q976.906 1284.98 971.258 1290.74 Z" fill="#000000" fill-rule="nonzero" fill-opacity="1" /><path clip-path="url(#clip050)" d="M1007.39 1263.19 Q1003.78 1263.19 1001.95 1266.76 Q1000.15 1270.3 1000.15 1277.43 Q1000.15 1284.54 1001.95 1288.1 Q1003.78 1291.64 1007.39 1291.64 Q1011.03 1291.64 1012.83 1288.1 Q1014.66 1284.54 1014.66 1277.43 Q1014.66 1270.3 1012.83 1266.76 Q1011.03 1263.19 1007.39 1263.19 M1007.39 1259.49 Q1013.2 1259.49 1016.26 1264.1 Q1019.34 1268.68 1019.34 1277.43 Q1019.34 1286.16 1016.26 1290.76 Q1013.2 1295.35 1007.39 1295.35 Q1001.58 1295.35 998.503 1290.76 Q995.447 1286.16 995.447 1277.43 Q995.447 1268.68 998.503 1264.1 Q1001.58 1259.49 1007.39 1259.49 Z" fill="#000000" fill-rule="nonzero" fill-opacity="1" /><path clip-path="url(#clip050)" d="M1322.06 1276.04 Q1325.41 1276.76 1327.29 1279.03 Q1329.18 1281.3 1329.18 1284.63 Q1329.18 1289.74 1325.67 1292.55 Q1322.15 1295.35 1315.67 1295.35 Q1313.49 1295.35 1311.18 1294.91 Q1308.88 1294.49 1306.43 1293.63 L1306.43 1289.12 Q1308.37 1290.25 1310.69 1290.83 Q1313 1291.41 1315.53 1291.41 Q1319.93 1291.41 1322.22 1289.67 Q1324.53 1287.94 1324.53 1284.63 Q1324.53 1281.57 1322.38 1279.86 Q1320.25 1278.12 1316.43 1278.12 L1312.4 1278.12 L1312.4 1274.28 L1316.62 1274.28 Q1320.06 1274.28 1321.89 1272.92 Q1323.72 1271.53 1323.72 1268.93 Q1323.72 1266.27 1321.82 1264.86 Q1319.95 1263.42 1316.43 1263.42 Q1314.51 1263.42 1312.31 1263.84 Q1310.11 1264.26 1307.47 1265.14 L1307.47 1260.97 Q1310.13 1260.23 1312.45 1259.86 Q1314.79 1259.49 1316.85 1259.49 Q1322.17 1259.49 1325.27 1261.92 Q1328.37 1264.33 1328.37 1268.45 Q1328.37 1271.32 1326.73 1273.31 Q1325.09 1275.28 1322.06 1276.04 Z" fill="#000000" fill-rule="nonzero" fill-opacity="1" /><path clip-path="url(#clip050)" d="M1348.05 1263.19 Q1344.44 1263.19 1342.61 1266.76 Q1340.81 1270.3 1340.81 1277.43 Q1340.81 1284.54 1342.61 1288.1 Q1344.44 1291.64 1348.05 1291.64 Q1351.68 1291.64 1353.49 1288.1 Q1355.32 1284.54 1355.32 1277.43 Q1355.32 1270.3 1353.49 1266.76 Q1351.68 1263.19 1348.05 1263.19 M1348.05 1259.49 Q1353.86 1259.49 1356.92 1264.1 Q1359.99 1268.68 1359.99 1277.43 Q1359.99 1286.16 1356.92 1290.76 Q1353.86 1295.35 1348.05 1295.35 Q1342.24 1295.35 1339.16 1290.76 Q1336.11 1286.16 1336.11 1277.43 Q1336.11 1268.68 1339.16 1264.1 Q1342.24 1259.49 1348.05 1259.49 Z" fill="#000000" fill-rule="nonzero" fill-opacity="1" /><path clip-path="url(#clip050)" d="M1662.11 1264.19 L1650.31 1282.64 L1662.11 1282.64 L1662.11 1264.19 M1660.89 1260.11 L1666.76 1260.11 L1666.76 1282.64 L1671.7 1282.64 L1671.7 1286.53 L1666.76 1286.53 L1666.76 1294.67 L1662.11 1294.67 L1662.11 1286.53 L1646.51 1286.53 L1646.51 1282.01 L1660.89 1260.11 Z" fill="#000000" fill-rule="nonzero" fill-opacity="1" /><path clip-path="url(#clip050)" d="M1689.43 1263.19 Q1685.82 1263.19 1683.99 1266.76 Q1682.18 1270.3 1682.18 1277.43 Q1682.18 1284.54 1683.99 1288.1 Q1685.82 1291.64 1689.43 1291.64 Q1693.06 1291.64 1694.87 1288.1 Q1696.7 1284.54 1696.7 1277.43 Q1696.7 1270.3 1694.87 1266.76 Q1693.06 1263.19 1689.43 1263.19 M1689.43 1259.49 Q1695.24 1259.49 1698.29 1264.1 Q1701.37 1268.68 1701.37 1277.43 Q1701.37 1286.16 1698.29 1290.76 Q1695.24 1295.35 1689.43 1295.35 Q1683.62 1295.35 1680.54 1290.76 Q1677.48 1286.16 1677.48 1277.43 Q1677.48 1268.68 1680.54 1264.1 Q1683.62 1259.49 1689.43 1259.49 Z" fill="#000000" fill-rule="nonzero" fill-opacity="1" /><path clip-path="url(#clip050)" d="M1989.37 1260.11 L2007.72 1260.11 L2007.72 1264.05 L1993.65 1264.05 L1993.65 1272.52 Q1994.67 1272.17 1995.69 1272.01 Q1996.71 1271.83 1997.72 1271.83 Q2003.51 1271.83 2006.89 1275 Q2010.27 1278.17 2010.27 1283.59 Q2010.27 1289.17 2006.8 1292.27 Q2003.33 1295.35 1997.01 1295.35 Q1994.83 1295.35 1992.56 1294.98 Q1990.32 1294.61 1987.91 1293.86 L1987.91 1289.17 Q1989.99 1290.3 1992.22 1290.86 Q1994.44 1291.41 1996.91 1291.41 Q2000.92 1291.41 2003.26 1289.3 Q2005.59 1287.2 2005.59 1283.59 Q2005.59 1279.98 2003.26 1277.87 Q2000.92 1275.76 1996.91 1275.76 Q1995.04 1275.76 1993.16 1276.18 Q1991.31 1276.6 1989.37 1277.48 L1989.37 1260.11 Z" fill="#000000" fill-rule="nonzero" fill-opacity="1" /><path clip-path="url(#clip050)" d="M2029.48 1263.19 Q2025.87 1263.19 2024.04 1266.76 Q2022.24 1270.3 2022.24 1277.43 Q2022.24 1284.54 2024.04 1288.1 Q2025.87 1291.64 2029.48 1291.64 Q2033.12 1291.64 2034.92 1288.1 Q2036.75 1284.54 2036.75 1277.43 Q2036.75 1270.3 2034.92 1266.76 Q2033.12 1263.19 2029.48 1263.19 M2029.48 1259.49 Q2035.29 1259.49 2038.35 1264.1 Q2041.43 1268.68 2041.43 1277.43 Q2041.43 1286.16 2038.35 1290.76 Q2035.29 1295.35 2029.48 1295.35 Q2023.67 1295.35 2020.59 1290.76 Q2017.54 1286.16 2017.54 1277.43 Q2017.54 1268.68 2020.59 1264.1 Q2023.67 1259.49 2029.48 1259.49 Z" fill="#000000" fill-rule="nonzero" fill-opacity="1" /><polyline clip-path="url(#clip052)" style="stroke:#000000; stroke-linecap:round; stroke-linejoin:round; stroke-width:2; stroke-opacity:0.1; fill:none" points="295.014,1200.97 2064.76,1200.97 "/>
<polyline clip-path="url(#clip052)" style="stroke:#000000; stroke-linecap:round; stroke-linejoin:round; stroke-width:2; stroke-opacity:0.1; fill:none" points="295.014,1000.01 2064.76,1000.01 "/>
<polyline clip-path="url(#clip052)" style="stroke:#000000; stroke-linecap:round; stroke-linejoin:round; stroke-width:2; stroke-opacity:0.1; fill:none" points="295.014,799.046 2064.76,799.046 "/>
<polyline clip-path="url(#clip052)" style="stroke:#000000; stroke-linecap:round; stroke-linejoin:round; stroke-width:2; stroke-opacity:0.1; fill:none" points="295.014,598.082 2064.76,598.082 "/>
<polyline clip-path="url(#clip052)" style="stroke:#000000; stroke-linecap:round; stroke-linejoin:round; stroke-width:2; stroke-opacity:0.1; fill:none" points="295.014,397.118 2064.76,397.118 "/>
<polyline clip-path="url(#clip052)" style="stroke:#000000; stroke-linecap:round; stroke-linejoin:round; stroke-width:2; stroke-opacity:0.1; fill:none" points="295.014,196.154 2064.76,196.154 "/>
<polyline clip-path="url(#clip050)" style="stroke:#000000; stroke-linecap:round; stroke-linejoin:round; stroke-width:4; stroke-opacity:1; fill:none" points="295.014,1234.58 295.014,47.2441 "/>
<polyline clip-path="url(#clip050)" style="stroke:#000000; stroke-linecap:round; stroke-linejoin:round; stroke-width:4; stroke-opacity:1; fill:none" points="295.014,1200.97 313.911,1200.97 "/>
<polyline clip-path="url(#clip050)" style="stroke:#000000; stroke-linecap:round; stroke-linejoin:round; stroke-width:4; stroke-opacity:1; fill:none" points="295.014,1000.01 313.911,1000.01 "/>
<polyline clip-path="url(#clip050)" style="stroke:#000000; stroke-linecap:round; stroke-linejoin:round; stroke-width:4; stroke-opacity:1; fill:none" points="295.014,799.046 313.911,799.046 "/>
<polyline clip-path="url(#clip050)" style="stroke:#000000; stroke-linecap:round; stroke-linejoin:round; stroke-width:4; stroke-opacity:1; fill:none" points="295.014,598.082 313.911,598.082 "/>
<polyline clip-path="url(#clip050)" style="stroke:#000000; stroke-linecap:round; stroke-linejoin:round; stroke-width:4; stroke-opacity:1; fill:none" points="295.014,397.118 313.911,397.118 "/>
<polyline clip-path="url(#clip050)" style="stroke:#000000; stroke-linecap:round; stroke-linejoin:round; stroke-width:4; stroke-opacity:1; fill:none" points="295.014,196.154 313.911,196.154 "/>
<path clip-path="url(#clip050)" d="M251.389 1186.77 Q247.778 1186.77 245.95 1190.34 Q244.144 1193.88 244.144 1201.01 Q244.144 1208.12 245.95 1211.68 Q247.778 1215.22 251.389 1215.22 Q255.024 1215.22 256.829 1211.68 Q258.658 1208.12 258.658 1201.01 Q258.658 1193.88 256.829 1190.34 Q255.024 1186.77 251.389 1186.77 M251.389 1183.07 Q257.2 1183.07 260.255 1187.68 Q263.334 1192.26 263.334 1201.01 Q263.334 1209.74 260.255 1214.34 Q257.2 1218.93 251.389 1218.93 Q245.579 1218.93 242.501 1214.34 Q239.445 1209.74 239.445 1201.01 Q239.445 1192.26 242.501 1187.68 Q245.579 1183.07 251.389 1183.07 Z" fill="#000000" fill-rule="nonzero" fill-opacity="1" /><path clip-path="url(#clip050)" d="M55.9969 1019.8 L63.6358 1019.8 L63.6358 993.438 L55.3256 995.104 L55.3256 990.845 L63.5895 989.178 L68.2654 989.178 L68.2654 1019.8 L75.9042 1019.8 L75.9042 1023.74 L55.9969 1023.74 L55.9969 1019.8 Z" fill="#000000" fill-rule="nonzero" fill-opacity="1" /><path clip-path="url(#clip050)" d="M85.3486 1017.86 L90.2328 1017.86 L90.2328 1023.74 L85.3486 1023.74 L85.3486 1017.86 Z" fill="#000000" fill-rule="nonzero" fill-opacity="1" /><path clip-path="url(#clip050)" d="M110.418 992.257 Q106.807 992.257 104.978 995.822 Q103.173 999.363 103.173 1006.49 Q103.173 1013.6 104.978 1017.16 Q106.807 1020.71 110.418 1020.71 Q114.052 1020.71 115.858 1017.16 Q117.686 1013.6 117.686 1006.49 Q117.686 999.363 115.858 995.822 Q114.052 992.257 110.418 992.257 M110.418 988.553 Q116.228 988.553 119.284 993.16 Q122.362 997.743 122.362 1006.49 Q122.362 1015.22 119.284 1019.83 Q116.228 1024.41 110.418 1024.41 Q104.608 1024.41 101.529 1019.83 Q98.4735 1015.22 98.4735 1006.49 Q98.4735 997.743 101.529 993.16 Q104.608 988.553 110.418 988.553 Z" fill="#000000" fill-rule="nonzero" fill-opacity="1" /><path clip-path="url(#clip050)" d="M158.751 998.275 L148.172 1008.9 L158.751 1019.48 L155.996 1022.28 L145.371 1011.66 L134.746 1022.28 L132.015 1019.48 L142.571 1008.9 L132.015 998.275 L134.746 995.475 L145.371 1006.1 L155.996 995.475 L158.751 998.275 Z" fill="#000000" fill-rule="nonzero" fill-opacity="1" /><path clip-path="url(#clip050)" d="M171.112 1019.8 L178.751 1019.8 L178.751 993.438 L170.441 995.104 L170.441 990.845 L178.705 989.178 L183.38 989.178 L183.38 1019.8 L191.019 1019.8 L191.019 1023.74 L171.112 1023.74 L171.112 1019.8 Z" fill="#000000" fill-rule="nonzero" fill-opacity="1" /><path clip-path="url(#clip050)" d="M210.464 992.257 Q206.853 992.257 205.024 995.822 Q203.218 999.363 203.218 1006.49 Q203.218 1013.6 205.024 1017.16 Q206.853 1020.71 210.464 1020.71 Q214.098 1020.71 215.903 1017.16 Q217.732 1013.6 217.732 1006.49 Q217.732 999.363 215.903 995.822 Q214.098 992.257 210.464 992.257 M210.464 988.553 Q216.274 988.553 219.329 993.16 Q222.408 997.743 222.408 1006.49 Q222.408 1015.22 219.329 1019.83 Q216.274 1024.41 210.464 1024.41 Q204.654 1024.41 201.575 1019.83 Q198.519 1015.22 198.519 1006.49 Q198.519 997.743 201.575 993.16 Q204.654 988.553 210.464 988.553 Z" fill="#000000" fill-rule="nonzero" fill-opacity="1" /><path clip-path="url(#clip050)" d="M222.953 993.131 L229.16 993.131 L229.16 971.709 L222.408 973.063 L222.408 969.602 L229.122 968.248 L232.922 968.248 L232.922 993.131 L239.128 993.131 L239.128 996.328 L222.953 996.328 L222.953 993.131 Z" fill="#000000" fill-rule="nonzero" fill-opacity="1" /><path clip-path="url(#clip050)" d="M250.074 993.131 L263.334 993.131 L263.334 996.328 L245.504 996.328 L245.504 993.131 Q247.667 990.892 251.391 987.131 Q255.134 983.351 256.093 982.26 Q257.917 980.21 258.632 978.799 Q259.365 977.37 259.365 975.997 Q259.365 973.759 257.785 972.348 Q256.224 970.937 253.704 970.937 Q251.917 970.937 249.924 971.558 Q247.949 972.179 245.692 973.439 L245.692 969.602 Q247.987 968.68 249.98 968.21 Q251.974 967.74 253.629 967.74 Q257.992 967.74 260.588 969.922 Q263.183 972.103 263.183 975.752 Q263.183 977.483 262.525 979.044 Q261.886 980.586 260.174 982.692 Q259.704 983.238 257.184 985.852 Q254.663 988.447 250.074 993.131 Z" fill="#000000" fill-rule="nonzero" fill-opacity="1" /><path clip-path="url(#clip050)" d="M59.2145 818.839 L75.5339 818.839 L75.5339 822.774 L53.5895 822.774 L53.5895 818.839 Q56.2515 816.084 60.8349 811.455 Q65.4413 806.802 66.6219 805.459 Q68.8672 802.936 69.7468 801.2 Q70.6496 799.441 70.6496 797.751 Q70.6496 794.996 68.7052 793.26 Q66.7839 791.524 63.6821 791.524 Q61.483 791.524 59.0293 792.288 Q56.5988 793.052 53.821 794.603 L53.821 789.881 Q56.6451 788.746 59.0988 788.168 Q61.5524 787.589 63.5895 787.589 Q68.9598 787.589 72.1542 790.274 Q75.3487 792.959 75.3487 797.45 Q75.3487 799.58 74.5385 801.501 Q73.7515 803.399 71.645 805.992 Q71.0663 806.663 67.9645 809.881 Q64.8626 813.075 59.2145 818.839 Z" fill="#000000" fill-rule="nonzero" fill-opacity="1" /><path clip-path="url(#clip050)" d="M85.3486 816.894 L90.2328 816.894 L90.2328 822.774 L85.3486 822.774 L85.3486 816.894 Z" fill="#000000" fill-rule="nonzero" fill-opacity="1" /><path clip-path="url(#clip050)" d="M110.418 791.293 Q106.807 791.293 104.978 794.857 Q103.173 798.399 103.173 805.529 Q103.173 812.635 104.978 816.2 Q106.807 819.742 110.418 819.742 Q114.052 819.742 115.858 816.2 Q117.686 812.635 117.686 805.529 Q117.686 798.399 115.858 794.857 Q114.052 791.293 110.418 791.293 M110.418 787.589 Q116.228 787.589 119.284 792.195 Q122.362 796.779 122.362 805.529 Q122.362 814.256 119.284 818.862 Q116.228 823.445 110.418 823.445 Q104.608 823.445 101.529 818.862 Q98.4735 814.256 98.4735 805.529 Q98.4735 796.779 101.529 792.195 Q104.608 787.589 110.418 787.589 Z" fill="#000000" fill-rule="nonzero" fill-opacity="1" /><path clip-path="url(#clip050)" d="M158.751 797.311 L148.172 807.936 L158.751 818.515 L155.996 821.316 L145.371 810.691 L134.746 821.316 L132.015 818.515 L142.571 807.936 L132.015 797.311 L134.746 794.51 L145.371 805.135 L155.996 794.51 L158.751 797.311 Z" fill="#000000" fill-rule="nonzero" fill-opacity="1" /><path clip-path="url(#clip050)" d="M171.112 818.839 L178.751 818.839 L178.751 792.473 L170.441 794.14 L170.441 789.881 L178.705 788.214 L183.38 788.214 L183.38 818.839 L191.019 818.839 L191.019 822.774 L171.112 822.774 L171.112 818.839 Z" fill="#000000" fill-rule="nonzero" fill-opacity="1" /><path clip-path="url(#clip050)" d="M210.464 791.293 Q206.853 791.293 205.024 794.857 Q203.218 798.399 203.218 805.529 Q203.218 812.635 205.024 816.2 Q206.853 819.742 210.464 819.742 Q214.098 819.742 215.903 816.2 Q217.732 812.635 217.732 805.529 Q217.732 798.399 215.903 794.857 Q214.098 791.293 210.464 791.293 M210.464 787.589 Q216.274 787.589 219.329 792.195 Q222.408 796.779 222.408 805.529 Q222.408 814.256 219.329 818.862 Q216.274 823.445 210.464 823.445 Q204.654 823.445 201.575 818.862 Q198.519 814.256 198.519 805.529 Q198.519 796.779 201.575 792.195 Q204.654 787.589 210.464 787.589 Z" fill="#000000" fill-rule="nonzero" fill-opacity="1" /><path clip-path="url(#clip050)" d="M222.953 792.166 L229.16 792.166 L229.16 770.744 L222.408 772.098 L222.408 768.638 L229.122 767.284 L232.922 767.284 L232.922 792.166 L239.128 792.166 L239.128 795.364 L222.953 795.364 L222.953 792.166 Z" fill="#000000" fill-rule="nonzero" fill-opacity="1" /><path clip-path="url(#clip050)" d="M250.074 792.166 L263.334 792.166 L263.334 795.364 L245.504 795.364 L245.504 792.166 Q247.667 789.928 251.391 786.167 Q255.134 782.386 256.093 781.295 Q257.917 779.245 258.632 777.835 Q259.365 776.405 259.365 775.032 Q259.365 772.794 257.785 771.384 Q256.224 769.973 253.704 769.973 Q251.917 769.973 249.924 770.594 Q247.949 771.214 245.692 772.475 L245.692 768.638 Q247.987 767.716 249.98 767.246 Q251.974 766.776 253.629 766.776 Q257.992 766.776 260.588 768.957 Q263.183 771.139 263.183 774.788 Q263.183 776.518 262.525 778.079 Q261.886 779.622 260.174 781.728 Q259.704 782.273 257.184 784.888 Q254.663 787.483 250.074 792.166 Z" fill="#000000" fill-rule="nonzero" fill-opacity="1" /><path clip-path="url(#clip050)" d="M69.3533 603.176 Q72.7098 603.893 74.5848 606.162 Q76.4829 608.43 76.4829 611.763 Q76.4829 616.879 72.9644 619.68 Q69.4459 622.481 62.9645 622.481 Q60.7886 622.481 58.4738 622.041 Q56.1821 621.625 53.7284 620.768 L53.7284 616.254 Q55.6728 617.388 57.9877 617.967 Q60.3025 618.546 62.8256 618.546 Q67.2237 618.546 69.5154 616.81 Q71.8302 615.074 71.8302 611.763 Q71.8302 608.708 69.6774 606.995 Q67.5478 605.259 63.7284 605.259 L59.7006 605.259 L59.7006 601.416 L63.9135 601.416 Q67.3626 601.416 69.1913 600.051 Q71.02 598.662 71.02 596.069 Q71.02 593.407 69.1219 591.995 Q67.2469 590.56 63.7284 590.56 Q61.8071 590.56 59.608 590.977 Q57.409 591.393 54.7701 592.273 L54.7701 588.106 Q57.4321 587.365 59.7469 586.995 Q62.0849 586.625 64.145 586.625 Q69.4691 586.625 72.5709 589.055 Q75.6727 591.463 75.6727 595.583 Q75.6727 598.453 74.0292 600.444 Q72.3857 602.412 69.3533 603.176 Z" fill="#000000" fill-rule="nonzero" fill-opacity="1" /><path clip-path="url(#clip050)" d="M85.3486 615.93 L90.2328 615.93 L90.2328 621.81 L85.3486 621.81 L85.3486 615.93 Z" fill="#000000" fill-rule="nonzero" fill-opacity="1" /><path clip-path="url(#clip050)" d="M110.418 590.328 Q106.807 590.328 104.978 593.893 Q103.173 597.435 103.173 604.564 Q103.173 611.671 104.978 615.236 Q106.807 618.777 110.418 618.777 Q114.052 618.777 115.858 615.236 Q117.686 611.671 117.686 604.564 Q117.686 597.435 115.858 593.893 Q114.052 590.328 110.418 590.328 M110.418 586.625 Q116.228 586.625 119.284 591.231 Q122.362 595.814 122.362 604.564 Q122.362 613.291 119.284 617.898 Q116.228 622.481 110.418 622.481 Q104.608 622.481 101.529 617.898 Q98.4735 613.291 98.4735 604.564 Q98.4735 595.814 101.529 591.231 Q104.608 586.625 110.418 586.625 Z" fill="#000000" fill-rule="nonzero" fill-opacity="1" /><path clip-path="url(#clip050)" d="M158.751 596.347 L148.172 606.972 L158.751 617.55 L155.996 620.351 L145.371 609.726 L134.746 620.351 L132.015 617.55 L142.571 606.972 L132.015 596.347 L134.746 593.546 L145.371 604.171 L155.996 593.546 L158.751 596.347 Z" fill="#000000" fill-rule="nonzero" fill-opacity="1" /><path clip-path="url(#clip050)" d="M171.112 617.875 L178.751 617.875 L178.751 591.509 L170.441 593.176 L170.441 588.916 L178.705 587.25 L183.38 587.25 L183.38 617.875 L191.019 617.875 L191.019 621.81 L171.112 621.81 L171.112 617.875 Z" fill="#000000" fill-rule="nonzero" fill-opacity="1" /><path clip-path="url(#clip050)" d="M210.464 590.328 Q206.853 590.328 205.024 593.893 Q203.218 597.435 203.218 604.564 Q203.218 611.671 205.024 615.236 Q206.853 618.777 210.464 618.777 Q214.098 618.777 215.903 615.236 Q217.732 611.671 217.732 604.564 Q217.732 597.435 215.903 593.893 Q214.098 590.328 210.464 590.328 M210.464 586.625 Q216.274 586.625 219.329 591.231 Q222.408 595.814 222.408 604.564 Q222.408 613.291 219.329 617.898 Q216.274 622.481 210.464 622.481 Q204.654 622.481 201.575 617.898 Q198.519 613.291 198.519 604.564 Q198.519 595.814 201.575 591.231 Q204.654 586.625 210.464 586.625 Z" fill="#000000" fill-rule="nonzero" fill-opacity="1" /><path clip-path="url(#clip050)" d="M222.953 591.202 L229.16 591.202 L229.16 569.78 L222.408 571.134 L222.408 567.673 L229.122 566.319 L232.922 566.319 L232.922 591.202 L239.128 591.202 L239.128 594.399 L222.953 594.399 L222.953 591.202 Z" fill="#000000" fill-rule="nonzero" fill-opacity="1" /><path clip-path="url(#clip050)" d="M250.074 591.202 L263.334 591.202 L263.334 594.399 L245.504 594.399 L245.504 591.202 Q247.667 588.964 251.391 585.202 Q255.134 581.422 256.093 580.331 Q257.917 578.281 258.632 576.87 Q259.365 575.441 259.365 574.068 Q259.365 571.83 257.785 570.419 Q256.224 569.009 253.704 569.009 Q251.917 569.009 249.924 569.629 Q247.949 570.25 245.692 571.51 L245.692 567.673 Q247.987 566.752 249.98 566.282 Q251.974 565.812 253.629 565.812 Q257.992 565.812 260.588 567.993 Q263.183 570.175 263.183 573.824 Q263.183 575.554 262.525 577.115 Q261.886 578.657 260.174 580.764 Q259.704 581.309 257.184 583.923 Q254.663 586.519 250.074 591.202 Z" fill="#000000" fill-rule="nonzero" fill-opacity="1" /><path clip-path="url(#clip050)" d="M68.0339 390.359 L56.2284 408.808 L68.0339 408.808 L68.0339 390.359 M66.807 386.285 L72.6866 386.285 L72.6866 408.808 L77.6172 408.808 L77.6172 412.697 L72.6866 412.697 L72.6866 420.845 L68.0339 420.845 L68.0339 412.697 L52.4321 412.697 L52.4321 408.183 L66.807 386.285 Z" fill="#000000" fill-rule="nonzero" fill-opacity="1" /><path clip-path="url(#clip050)" d="M85.3486 414.966 L90.2328 414.966 L90.2328 420.845 L85.3486 420.845 L85.3486 414.966 Z" fill="#000000" fill-rule="nonzero" fill-opacity="1" /><path clip-path="url(#clip050)" d="M110.418 389.364 Q106.807 389.364 104.978 392.929 Q103.173 396.471 103.173 403.6 Q103.173 410.707 104.978 414.271 Q106.807 417.813 110.418 417.813 Q114.052 417.813 115.858 414.271 Q117.686 410.707 117.686 403.6 Q117.686 396.471 115.858 392.929 Q114.052 389.364 110.418 389.364 M110.418 385.66 Q116.228 385.66 119.284 390.267 Q122.362 394.85 122.362 403.6 Q122.362 412.327 119.284 416.933 Q116.228 421.517 110.418 421.517 Q104.608 421.517 101.529 416.933 Q98.4735 412.327 98.4735 403.6 Q98.4735 394.85 101.529 390.267 Q104.608 385.66 110.418 385.66 Z" fill="#000000" fill-rule="nonzero" fill-opacity="1" /><path clip-path="url(#clip050)" d="M158.751 395.383 L148.172 406.008 L158.751 416.586 L155.996 419.387 L145.371 408.762 L134.746 419.387 L132.015 416.586 L142.571 406.008 L132.015 395.383 L134.746 392.582 L145.371 403.207 L155.996 392.582 L158.751 395.383 Z" fill="#000000" fill-rule="nonzero" fill-opacity="1" /><path clip-path="url(#clip050)" d="M171.112 416.91 L178.751 416.91 L178.751 390.545 L170.441 392.211 L170.441 387.952 L178.705 386.285 L183.38 386.285 L183.38 416.91 L191.019 416.91 L191.019 420.845 L171.112 420.845 L171.112 416.91 Z" fill="#000000" fill-rule="nonzero" fill-opacity="1" /><path clip-path="url(#clip050)" d="M210.464 389.364 Q206.853 389.364 205.024 392.929 Q203.218 396.471 203.218 403.6 Q203.218 410.707 205.024 414.271 Q206.853 417.813 210.464 417.813 Q214.098 417.813 215.903 414.271 Q217.732 410.707 217.732 403.6 Q217.732 396.471 215.903 392.929 Q214.098 389.364 210.464 389.364 M210.464 385.66 Q216.274 385.66 219.329 390.267 Q222.408 394.85 222.408 403.6 Q222.408 412.327 219.329 416.933 Q216.274 421.517 210.464 421.517 Q204.654 421.517 201.575 416.933 Q198.519 412.327 198.519 403.6 Q198.519 394.85 201.575 390.267 Q204.654 385.66 210.464 385.66 Z" fill="#000000" fill-rule="nonzero" fill-opacity="1" /><path clip-path="url(#clip050)" d="M222.953 390.238 L229.16 390.238 L229.16 368.816 L222.408 370.17 L222.408 366.709 L229.122 365.355 L232.922 365.355 L232.922 390.238 L239.128 390.238 L239.128 393.435 L222.953 393.435 L222.953 390.238 Z" fill="#000000" fill-rule="nonzero" fill-opacity="1" /><path clip-path="url(#clip050)" d="M250.074 390.238 L263.334 390.238 L263.334 393.435 L245.504 393.435 L245.504 390.238 Q247.667 388 251.391 384.238 Q255.134 380.458 256.093 379.367 Q257.917 377.317 258.632 375.906 Q259.365 374.477 259.365 373.104 Q259.365 370.866 257.785 369.455 Q256.224 368.045 253.704 368.045 Q251.917 368.045 249.924 368.665 Q247.949 369.286 245.692 370.546 L245.692 366.709 Q247.987 365.788 249.98 365.317 Q251.974 364.847 253.629 364.847 Q257.992 364.847 260.588 367.029 Q263.183 369.211 263.183 372.859 Q263.183 374.59 262.525 376.151 Q261.886 377.693 260.174 379.799 Q259.704 380.345 257.184 382.959 Q254.663 385.555 250.074 390.238 Z" fill="#000000" fill-rule="nonzero" fill-opacity="1" /><path clip-path="url(#clip050)" d="M55.233 185.321 L73.5894 185.321 L73.5894 189.256 L59.5154 189.256 L59.5154 197.728 Q60.5339 197.381 61.5524 197.219 Q62.571 197.034 63.5895 197.034 Q69.3765 197.034 72.7561 200.205 Q76.1357 203.377 76.1357 208.793 Q76.1357 214.372 72.6635 217.474 Q69.1913 220.552 62.8719 220.552 Q60.696 220.552 58.4275 220.182 Q56.1821 219.812 53.7747 219.071 L53.7747 214.372 Q55.858 215.506 58.0802 216.062 Q60.3025 216.617 62.7793 216.617 Q66.7839 216.617 69.1219 214.511 Q71.4598 212.404 71.4598 208.793 Q71.4598 205.182 69.1219 203.076 Q66.7839 200.969 62.7793 200.969 Q60.9043 200.969 59.0293 201.386 Q57.1775 201.803 55.233 202.682 L55.233 185.321 Z" fill="#000000" fill-rule="nonzero" fill-opacity="1" /><path clip-path="url(#clip050)" d="M85.3486 214.002 L90.2328 214.002 L90.2328 219.881 L85.3486 219.881 L85.3486 214.002 Z" fill="#000000" fill-rule="nonzero" fill-opacity="1" /><path clip-path="url(#clip050)" d="M110.418 188.4 Q106.807 188.4 104.978 191.965 Q103.173 195.506 103.173 202.636 Q103.173 209.742 104.978 213.307 Q106.807 216.849 110.418 216.849 Q114.052 216.849 115.858 213.307 Q117.686 209.742 117.686 202.636 Q117.686 195.506 115.858 191.965 Q114.052 188.4 110.418 188.4 M110.418 184.696 Q116.228 184.696 119.284 189.303 Q122.362 193.886 122.362 202.636 Q122.362 211.363 119.284 215.969 Q116.228 220.552 110.418 220.552 Q104.608 220.552 101.529 215.969 Q98.4735 211.363 98.4735 202.636 Q98.4735 193.886 101.529 189.303 Q104.608 184.696 110.418 184.696 Z" fill="#000000" fill-rule="nonzero" fill-opacity="1" /><path clip-path="url(#clip050)" d="M158.751 194.418 L148.172 205.043 L158.751 215.622 L155.996 218.423 L145.371 207.798 L134.746 218.423 L132.015 215.622 L142.571 205.043 L132.015 194.418 L134.746 191.617 L145.371 202.242 L155.996 191.617 L158.751 194.418 Z" fill="#000000" fill-rule="nonzero" fill-opacity="1" /><path clip-path="url(#clip050)" d="M171.112 215.946 L178.751 215.946 L178.751 189.58 L170.441 191.247 L170.441 186.988 L178.705 185.321 L183.38 185.321 L183.38 215.946 L191.019 215.946 L191.019 219.881 L171.112 219.881 L171.112 215.946 Z" fill="#000000" fill-rule="nonzero" fill-opacity="1" /><path clip-path="url(#clip050)" d="M210.464 188.4 Q206.853 188.4 205.024 191.965 Q203.218 195.506 203.218 202.636 Q203.218 209.742 205.024 213.307 Q206.853 216.849 210.464 216.849 Q214.098 216.849 215.903 213.307 Q217.732 209.742 217.732 202.636 Q217.732 195.506 215.903 191.965 Q214.098 188.4 210.464 188.4 M210.464 184.696 Q216.274 184.696 219.329 189.303 Q222.408 193.886 222.408 202.636 Q222.408 211.363 219.329 215.969 Q216.274 220.552 210.464 220.552 Q204.654 220.552 201.575 215.969 Q198.519 211.363 198.519 202.636 Q198.519 193.886 201.575 189.303 Q204.654 184.696 210.464 184.696 Z" fill="#000000" fill-rule="nonzero" fill-opacity="1" /><path clip-path="url(#clip050)" d="M222.953 189.273 L229.16 189.273 L229.16 167.851 L222.408 169.206 L222.408 165.745 L229.122 164.391 L232.922 164.391 L232.922 189.273 L239.128 189.273 L239.128 192.471 L222.953 192.471 L222.953 189.273 Z" fill="#000000" fill-rule="nonzero" fill-opacity="1" /><path clip-path="url(#clip050)" d="M250.074 189.273 L263.334 189.273 L263.334 192.471 L245.504 192.471 L245.504 189.273 Q247.667 187.035 251.391 183.274 Q255.134 179.493 256.093 178.403 Q257.917 176.352 258.632 174.942 Q259.365 173.513 259.365 172.14 Q259.365 169.901 257.785 168.491 Q256.224 167.08 253.704 167.08 Q251.917 167.08 249.924 167.701 Q247.949 168.322 245.692 169.582 L245.692 165.745 Q247.987 164.823 249.98 164.353 Q251.974 163.883 253.629 163.883 Q257.992 163.883 260.588 166.065 Q263.183 168.246 263.183 171.895 Q263.183 173.625 262.525 175.186 Q261.886 176.729 260.174 178.835 Q259.704 179.381 257.184 181.995 Q254.663 184.59 250.074 189.273 Z" fill="#000000" fill-rule="nonzero" fill-opacity="1" /><circle clip-path="url(#clip052)" cx="345.101" cy="1200.97" r="14.4" fill="#009af9" fill-rule="evenodd" fill-opacity="1" stroke="#000000" stroke-opacity="1" stroke-width="2.688"/>
<circle clip-path="url(#clip052)" cx="379.174" cy="1200.97" r="14.4" fill="#009af9" fill-rule="evenodd" fill-opacity="1" stroke="#000000" stroke-opacity="1" stroke-width="2.688"/>
<circle clip-path="url(#clip052)" cx="413.246" cy="1200.97" r="14.4" fill="#009af9" fill-rule="evenodd" fill-opacity="1" stroke="#000000" stroke-opacity="1" stroke-width="2.688"/>
<circle clip-path="url(#clip052)" cx="447.319" cy="1200.97" r="14.4" fill="#009af9" fill-rule="evenodd" fill-opacity="1" stroke="#000000" stroke-opacity="1" stroke-width="2.688"/>
<circle clip-path="url(#clip052)" cx="481.392" cy="1200.97" r="14.4" fill="#009af9" fill-rule="evenodd" fill-opacity="1" stroke="#000000" stroke-opacity="1" stroke-width="2.688"/>
<circle clip-path="url(#clip052)" cx="515.465" cy="1200.97" r="14.4" fill="#009af9" fill-rule="evenodd" fill-opacity="1" stroke="#000000" stroke-opacity="1" stroke-width="2.688"/>
<circle clip-path="url(#clip052)" cx="549.538" cy="1200.97" r="14.4" fill="#009af9" fill-rule="evenodd" fill-opacity="1" stroke="#000000" stroke-opacity="1" stroke-width="2.688"/>
<circle clip-path="url(#clip052)" cx="583.611" cy="1200.97" r="14.4" fill="#009af9" fill-rule="evenodd" fill-opacity="1" stroke="#000000" stroke-opacity="1" stroke-width="2.688"/>
<circle clip-path="url(#clip052)" cx="617.683" cy="1200.97" r="14.4" fill="#009af9" fill-rule="evenodd" fill-opacity="1" stroke="#000000" stroke-opacity="1" stroke-width="2.688"/>
<circle clip-path="url(#clip052)" cx="651.756" cy="1200.97" r="14.4" fill="#009af9" fill-rule="evenodd" fill-opacity="1" stroke="#000000" stroke-opacity="1" stroke-width="2.688"/>
<circle clip-path="url(#clip052)" cx="685.829" cy="1200.97" r="14.4" fill="#009af9" fill-rule="evenodd" fill-opacity="1" stroke="#000000" stroke-opacity="1" stroke-width="2.688"/>
<circle clip-path="url(#clip052)" cx="719.902" cy="1200.97" r="14.4" fill="#009af9" fill-rule="evenodd" fill-opacity="1" stroke="#000000" stroke-opacity="1" stroke-width="2.688"/>
<circle clip-path="url(#clip052)" cx="753.975" cy="1200.97" r="14.4" fill="#009af9" fill-rule="evenodd" fill-opacity="1" stroke="#000000" stroke-opacity="1" stroke-width="2.688"/>
<circle clip-path="url(#clip052)" cx="788.047" cy="1200.97" r="14.4" fill="#009af9" fill-rule="evenodd" fill-opacity="1" stroke="#000000" stroke-opacity="1" stroke-width="2.688"/>
<circle clip-path="url(#clip052)" cx="822.12" cy="1200.97" r="14.4" fill="#009af9" fill-rule="evenodd" fill-opacity="1" stroke="#000000" stroke-opacity="1" stroke-width="2.688"/>
<circle clip-path="url(#clip052)" cx="856.193" cy="1200.97" r="14.4" fill="#009af9" fill-rule="evenodd" fill-opacity="1" stroke="#000000" stroke-opacity="1" stroke-width="2.688"/>
<circle clip-path="url(#clip052)" cx="890.266" cy="1200.97" r="14.4" fill="#009af9" fill-rule="evenodd" fill-opacity="1" stroke="#000000" stroke-opacity="1" stroke-width="2.688"/>
<circle clip-path="url(#clip052)" cx="924.339" cy="1200.97" r="14.4" fill="#009af9" fill-rule="evenodd" fill-opacity="1" stroke="#000000" stroke-opacity="1" stroke-width="2.688"/>
<circle clip-path="url(#clip052)" cx="958.412" cy="1200.97" r="14.4" fill="#009af9" fill-rule="evenodd" fill-opacity="1" stroke="#000000" stroke-opacity="1" stroke-width="2.688"/>
<circle clip-path="url(#clip052)" cx="992.484" cy="1200.97" r="14.4" fill="#009af9" fill-rule="evenodd" fill-opacity="1" stroke="#000000" stroke-opacity="1" stroke-width="2.688"/>
<circle clip-path="url(#clip052)" cx="1026.56" cy="1200.97" r="14.4" fill="#009af9" fill-rule="evenodd" fill-opacity="1" stroke="#000000" stroke-opacity="1" stroke-width="2.688"/>
<circle clip-path="url(#clip052)" cx="1060.63" cy="1200.97" r="14.4" fill="#009af9" fill-rule="evenodd" fill-opacity="1" stroke="#000000" stroke-opacity="1" stroke-width="2.688"/>
<circle clip-path="url(#clip052)" cx="1094.7" cy="1200.97" r="14.4" fill="#009af9" fill-rule="evenodd" fill-opacity="1" stroke="#000000" stroke-opacity="1" stroke-width="2.688"/>
<circle clip-path="url(#clip052)" cx="1128.78" cy="1200.97" r="14.4" fill="#009af9" fill-rule="evenodd" fill-opacity="1" stroke="#000000" stroke-opacity="1" stroke-width="2.688"/>
<circle clip-path="url(#clip052)" cx="1162.85" cy="1200.97" r="14.4" fill="#009af9" fill-rule="evenodd" fill-opacity="1" stroke="#000000" stroke-opacity="1" stroke-width="2.688"/>
<circle clip-path="url(#clip052)" cx="1196.92" cy="1200.97" r="14.4" fill="#009af9" fill-rule="evenodd" fill-opacity="1" stroke="#000000" stroke-opacity="1" stroke-width="2.688"/>
<circle clip-path="url(#clip052)" cx="1230.99" cy="1200.97" r="14.4" fill="#009af9" fill-rule="evenodd" fill-opacity="1" stroke="#000000" stroke-opacity="1" stroke-width="2.688"/>
<circle clip-path="url(#clip052)" cx="1265.07" cy="1200.97" r="14.4" fill="#009af9" fill-rule="evenodd" fill-opacity="1" stroke="#000000" stroke-opacity="1" stroke-width="2.688"/>
<circle clip-path="url(#clip052)" cx="1299.14" cy="1200.97" r="14.4" fill="#009af9" fill-rule="evenodd" fill-opacity="1" stroke="#000000" stroke-opacity="1" stroke-width="2.688"/>
<circle clip-path="url(#clip052)" cx="1333.21" cy="1200.97" r="14.4" fill="#009af9" fill-rule="evenodd" fill-opacity="1" stroke="#000000" stroke-opacity="1" stroke-width="2.688"/>
<circle clip-path="url(#clip052)" cx="1367.29" cy="1200.97" r="14.4" fill="#009af9" fill-rule="evenodd" fill-opacity="1" stroke="#000000" stroke-opacity="1" stroke-width="2.688"/>
<circle clip-path="url(#clip052)" cx="1401.36" cy="1200.97" r="14.4" fill="#009af9" fill-rule="evenodd" fill-opacity="1" stroke="#000000" stroke-opacity="1" stroke-width="2.688"/>
<circle clip-path="url(#clip052)" cx="1435.43" cy="1200.96" r="14.4" fill="#009af9" fill-rule="evenodd" fill-opacity="1" stroke="#000000" stroke-opacity="1" stroke-width="2.688"/>
<circle clip-path="url(#clip052)" cx="1469.5" cy="1200.95" r="14.4" fill="#009af9" fill-rule="evenodd" fill-opacity="1" stroke="#000000" stroke-opacity="1" stroke-width="2.688"/>
<circle clip-path="url(#clip052)" cx="1503.58" cy="1200.93" r="14.4" fill="#009af9" fill-rule="evenodd" fill-opacity="1" stroke="#000000" stroke-opacity="1" stroke-width="2.688"/>
<circle clip-path="url(#clip052)" cx="1537.65" cy="1200.88" r="14.4" fill="#009af9" fill-rule="evenodd" fill-opacity="1" stroke="#000000" stroke-opacity="1" stroke-width="2.688"/>
<circle clip-path="url(#clip052)" cx="1571.72" cy="1200.79" r="14.4" fill="#009af9" fill-rule="evenodd" fill-opacity="1" stroke="#000000" stroke-opacity="1" stroke-width="2.688"/>
<circle clip-path="url(#clip052)" cx="1605.8" cy="1200.62" r="14.4" fill="#009af9" fill-rule="evenodd" fill-opacity="1" stroke="#000000" stroke-opacity="1" stroke-width="2.688"/>
<circle clip-path="url(#clip052)" cx="1639.87" cy="1200.28" r="14.4" fill="#009af9" fill-rule="evenodd" fill-opacity="1" stroke="#000000" stroke-opacity="1" stroke-width="2.688"/>
<circle clip-path="url(#clip052)" cx="1673.94" cy="1199.61" r="14.4" fill="#009af9" fill-rule="evenodd" fill-opacity="1" stroke="#000000" stroke-opacity="1" stroke-width="2.688"/>
<circle clip-path="url(#clip052)" cx="1708.01" cy="1198.31" r="14.4" fill="#009af9" fill-rule="evenodd" fill-opacity="1" stroke="#000000" stroke-opacity="1" stroke-width="2.688"/>
<circle clip-path="url(#clip052)" cx="1742.09" cy="1195.78" r="14.4" fill="#009af9" fill-rule="evenodd" fill-opacity="1" stroke="#000000" stroke-opacity="1" stroke-width="2.688"/>
<circle clip-path="url(#clip052)" cx="1776.16" cy="1190.82" r="14.4" fill="#009af9" fill-rule="evenodd" fill-opacity="1" stroke="#000000" stroke-opacity="1" stroke-width="2.688"/>
<circle clip-path="url(#clip052)" cx="1810.23" cy="1181.11" r="14.4" fill="#009af9" fill-rule="evenodd" fill-opacity="1" stroke="#000000" stroke-opacity="1" stroke-width="2.688"/>
<circle clip-path="url(#clip052)" cx="1844.3" cy="1162.12" r="14.4" fill="#009af9" fill-rule="evenodd" fill-opacity="1" stroke="#000000" stroke-opacity="1" stroke-width="2.688"/>
<circle clip-path="url(#clip052)" cx="1878.38" cy="1124.94" r="14.4" fill="#009af9" fill-rule="evenodd" fill-opacity="1" stroke="#000000" stroke-opacity="1" stroke-width="2.688"/>
<circle clip-path="url(#clip052)" cx="1912.45" cy="1052.12" r="14.4" fill="#009af9" fill-rule="evenodd" fill-opacity="1" stroke="#000000" stroke-opacity="1" stroke-width="2.688"/>
<circle clip-path="url(#clip052)" cx="1946.52" cy="909.396" r="14.4" fill="#009af9" fill-rule="evenodd" fill-opacity="1" stroke="#000000" stroke-opacity="1" stroke-width="2.688"/>
<circle clip-path="url(#clip052)" cx="1980.6" cy="629.597" r="14.4" fill="#009af9" fill-rule="evenodd" fill-opacity="1" stroke="#000000" stroke-opacity="1" stroke-width="2.688"/>
<circle clip-path="url(#clip052)" cx="2014.67" cy="80.8479" r="14.4" fill="#009af9" fill-rule="evenodd" fill-opacity="1" stroke="#000000" stroke-opacity="1" stroke-width="2.688"/>
</svg>
