<?xml version="1.0" encoding="utf-8"?>
<svg xmlns="http://www.w3.org/2000/svg" xmlns:xlink="http://www.w3.org/1999/xlink" width="528" height="336" viewBox="0 0 2112 1344">
<defs>
  <clipPath id="clip820">
    <rect x="0" y="0" width="2112" height="1344"/>
  </clipPath>
</defs>
<path clip-path="url(#clip820)" d="M0 1344 L2112 1344 L2112 0 L0 0  Z" fill="#ffffff" fill-rule="evenodd" fill-opacity="1"/>
<defs>
  <clipPath id="clip821">
    <rect x="422" y="0" width="1479" height="1344"/>
  </clipPath>
</defs>
<path clip-path="url(#clip820)" d="M109.297 1234.58 L2064.76 1234.58 L2064.76 47.2441 L109.297 47.2441  Z" fill="#ffffff" fill-rule="evenodd" fill-opacity="1"/>
<defs>
  <clipPath id="clip822">
    <rect x="109" y="47" width="1956" height="1188"/>
  </clipPath>
</defs>
<polyline clip-path="url(#clip822)" style="stroke:#000000; stroke-linecap:round; stroke-linejoin:round; stroke-width:2; stroke-opacity:0.1; fill:none" points="126.992,1234.58 126.992,47.2441 "/>
<polyline clip-path="url(#clip822)" style="stroke:#000000; stroke-linecap:round; stroke-linejoin:round; stroke-width:2; stroke-opacity:0.1; fill:none" points="503.476,1234.58 503.476,47.2441 "/>
<polyline clip-path="url(#clip822)" style="stroke:#000000; stroke-linecap:round; stroke-linejoin:round; stroke-width:2; stroke-opacity:0.1; fill:none" points="879.96,1234.58 879.96,47.2441 "/>
<polyline clip-path="url(#clip822)" style="stroke:#000000; stroke-linecap:round; stroke-linejoin:round; stroke-width:2; stroke-opacity:0.1; fill:none" points="1256.44,1234.58 1256.44,47.2441 "/>
<polyline clip-path="url(#clip822)" style="stroke:#000000; stroke-linecap:round; stroke-linejoin:round; stroke-width:2; stroke-opacity:0.1; fill:none" points="1632.93,1234.58 1632.93,47.2441 "/>
<polyline clip-path="url(#clip822)" style="stroke:#000000; stroke-linecap:round; stroke-linejoin:round; stroke-width:2; stroke-opacity:0.1; fill:none" points="2009.41,1234.58 2009.41,47.2441 "/>
<polyline clip-path="url(#clip820)" style="stroke:#000000; stroke-linecap:round; stroke-linejoin:round; stroke-width:4; stroke-opacity:1; fill:none" points="109.297,1234.58 2064.76,1234.58 "/>
<polyline clip-path="url(#clip820)" style="stroke:#000000; stroke-linecap:round; stroke-linejoin:round; stroke-width:4; stroke-opacity:1; fill:none" points="126.992,1234.58 126.992,1215.68 "/>
<polyline clip-path="url(#clip820)" style="stroke:#000000; stroke-linecap:round; stroke-linejoin:round; stroke-width:4; stroke-opacity:1; fill:none" points="503.476,1234.58 503.476,1215.68 "/>
<polyline clip-path="url(#clip820)" style="stroke:#000000; stroke-linecap:round; stroke-linejoin:round; stroke-width:4; stroke-opacity:1; fill:none" points="879.96,1234.58 879.96,1215.68 "/>
<polyline clip-path="url(#clip820)" style="stroke:#000000; stroke-linecap:round; stroke-linejoin:round; stroke-width:4; stroke-opacity:1; fill:none" points="1256.44,1234.58 1256.44,1215.68 "/>
<polyline clip-path="url(#clip820)" style="stroke:#000000; stroke-linecap:round; stroke-linejoin:round; stroke-width:4; stroke-opacity:1; fill:none" points="1632.93,1234.58 1632.93,1215.68 "/>
<polyline clip-path="url(#clip820)" style="stroke:#000000; stroke-linecap:round; stroke-linejoin:round; stroke-width:4; stroke-opacity:1; fill:none" points="2009.41,1234.58 2009.41,1215.68 "/>
<path clip-path="url(#clip820)" d="M126.992 1263.19 Q123.381 1263.19 121.552 1266.76 Q119.747 1270.3 119.747 1277.43 Q119.747 1284.54 121.552 1288.1 Q123.381 1291.64 126.992 1291.64 Q130.626 1291.64 132.432 1288.1 Q134.26 1284.54 134.26 1277.43 Q134.26 1270.3 132.432 1266.76 Q130.626 1263.19 126.992 1263.19 M126.992 1259.49 Q132.802 1259.49 135.858 1264.1 Q138.936 1268.68 138.936 1277.43 Q138.936 1286.16 135.858 1290.76 Q132.802 1295.35 126.992 1295.35 Q121.182 1295.35 118.103 1290.76 Q115.048 1286.16 115.048 1277.43 Q115.048 1268.68 118.103 1264.1 Q121.182 1259.49 126.992 1259.49 Z" fill="#000000" fill-rule="nonzero" fill-opacity="1" /><path clip-path="url(#clip820)" d="M478.164 1290.74 L485.803 1290.74 L485.803 1264.37 L477.492 1266.04 L477.492 1261.78 L485.756 1260.11 L490.432 1260.11 L490.432 1290.74 L498.071 1290.74 L498.071 1294.67 L478.164 1294.67 L478.164 1290.74 Z" fill="#000000" fill-rule="nonzero" fill-opacity="1" /><path clip-path="url(#clip820)" d="M517.515 1263.19 Q513.904 1263.19 512.076 1266.76 Q510.27 1270.3 510.27 1277.43 Q510.27 1284.54 512.076 1288.1 Q513.904 1291.64 517.515 1291.64 Q521.15 1291.64 522.955 1288.1 Q524.784 1284.54 524.784 1277.43 Q524.784 1270.3 522.955 1266.76 Q521.15 1263.19 517.515 1263.19 M517.515 1259.49 Q523.326 1259.49 526.381 1264.1 Q529.46 1268.68 529.46 1277.43 Q529.46 1286.16 526.381 1290.76 Q523.326 1295.35 517.515 1295.35 Q511.705 1295.35 508.627 1290.76 Q505.571 1286.16 505.571 1277.43 Q505.571 1268.68 508.627 1264.1 Q511.705 1259.49 517.515 1259.49 Z" fill="#000000" fill-rule="nonzero" fill-opacity="1" /><path clip-path="url(#clip820)" d="M858.734 1290.74 L875.053 1290.74 L875.053 1294.67 L853.109 1294.67 L853.109 1290.74 Q855.771 1287.99 860.354 1283.36 Q864.96 1278.7 866.141 1277.36 Q868.386 1274.84 869.266 1273.1 Q870.169 1271.34 870.169 1269.65 Q870.169 1266.9 868.224 1265.16 Q866.303 1263.42 863.201 1263.42 Q861.002 1263.42 858.548 1264.19 Q856.118 1264.95 853.34 1266.5 L853.34 1261.78 Q856.164 1260.65 858.618 1260.07 Q861.071 1259.49 863.108 1259.49 Q868.479 1259.49 871.673 1262.17 Q874.868 1264.86 874.868 1269.35 Q874.868 1271.48 874.058 1273.4 Q873.27 1275.3 871.164 1277.89 Q870.585 1278.56 867.483 1281.78 Q864.382 1284.98 858.734 1290.74 Z" fill="#000000" fill-rule="nonzero" fill-opacity="1" /><path clip-path="url(#clip820)" d="M894.868 1263.19 Q891.256 1263.19 889.428 1266.76 Q887.622 1270.3 887.622 1277.43 Q887.622 1284.54 889.428 1288.1 Q891.256 1291.64 894.868 1291.64 Q898.502 1291.64 900.307 1288.1 Q902.136 1284.54 902.136 1277.43 Q902.136 1270.3 900.307 1266.76 Q898.502 1263.19 894.868 1263.19 M894.868 1259.49 Q900.678 1259.49 903.733 1264.1 Q906.812 1268.68 906.812 1277.43 Q906.812 1286.16 903.733 1290.76 Q900.678 1295.35 894.868 1295.35 Q889.057 1295.35 885.979 1290.76 Q882.923 1286.16 882.923 1277.43 Q882.923 1268.68 885.979 1264.1 Q889.057 1259.49 894.868 1259.49 Z" fill="#000000" fill-rule="nonzero" fill-opacity="1" /><path clip-path="url(#clip820)" d="M1245.29 1276.04 Q1248.64 1276.76 1250.52 1279.03 Q1252.42 1281.3 1252.42 1284.63 Q1252.42 1289.74 1248.9 1292.55 Q1245.38 1295.35 1238.9 1295.35 Q1236.72 1295.35 1234.41 1294.91 Q1232.12 1294.49 1229.66 1293.63 L1229.66 1289.12 Q1231.61 1290.25 1233.92 1290.83 Q1236.24 1291.41 1238.76 1291.41 Q1243.16 1291.41 1245.45 1289.67 Q1247.76 1287.94 1247.76 1284.63 Q1247.76 1281.57 1245.61 1279.86 Q1243.48 1278.12 1239.66 1278.12 L1235.63 1278.12 L1235.63 1274.28 L1239.85 1274.28 Q1243.3 1274.28 1245.13 1272.92 Q1246.95 1271.53 1246.95 1268.93 Q1246.95 1266.27 1245.06 1264.86 Q1243.18 1263.42 1239.66 1263.42 Q1237.74 1263.42 1235.54 1263.84 Q1233.34 1264.26 1230.7 1265.14 L1230.7 1260.97 Q1233.37 1260.23 1235.68 1259.86 Q1238.02 1259.49 1240.08 1259.49 Q1245.4 1259.49 1248.5 1261.92 Q1251.61 1264.33 1251.61 1268.45 Q1251.61 1271.32 1249.96 1273.31 Q1248.32 1275.28 1245.29 1276.04 Z" fill="#000000" fill-rule="nonzero" fill-opacity="1" /><path clip-path="url(#clip820)" d="M1271.28 1263.19 Q1267.67 1263.19 1265.84 1266.76 Q1264.04 1270.3 1264.04 1277.43 Q1264.04 1284.54 1265.84 1288.1 Q1267.67 1291.64 1271.28 1291.64 Q1274.92 1291.64 1276.72 1288.1 Q1278.55 1284.54 1278.55 1277.43 Q1278.55 1270.3 1276.72 1266.76 Q1274.92 1263.19 1271.28 1263.19 M1271.28 1259.49 Q1277.09 1259.49 1280.15 1264.1 Q1283.23 1268.68 1283.23 1277.43 Q1283.23 1286.16 1280.15 1290.76 Q1277.09 1295.35 1271.28 1295.35 Q1265.47 1295.35 1262.39 1290.76 Q1259.34 1286.16 1259.34 1277.43 Q1259.34 1268.68 1262.39 1264.1 Q1265.47 1259.49 1271.28 1259.49 Z" fill="#000000" fill-rule="nonzero" fill-opacity="1" /><path clip-path="url(#clip820)" d="M1621.1 1264.19 L1609.29 1282.64 L1621.1 1282.64 L1621.1 1264.19 M1619.87 1260.11 L1625.75 1260.11 L1625.75 1282.64 L1630.68 1282.64 L1630.68 1286.53 L1625.75 1286.53 L1625.75 1294.67 L1621.1 1294.67 L1621.1 1286.53 L1605.5 1286.53 L1605.5 1282.01 L1619.87 1260.11 Z" fill="#000000" fill-rule="nonzero" fill-opacity="1" /><path clip-path="url(#clip820)" d="M1648.41 1263.19 Q1644.8 1263.19 1642.97 1266.76 Q1641.17 1270.3 1641.17 1277.43 Q1641.17 1284.54 1642.97 1288.1 Q1644.8 1291.64 1648.41 1291.64 Q1652.05 1291.64 1653.85 1288.1 Q1655.68 1284.54 1655.68 1277.43 Q1655.68 1270.3 1653.85 1266.76 Q1652.05 1263.19 1648.41 1263.19 M1648.41 1259.49 Q1654.22 1259.49 1657.28 1264.1 Q1660.36 1268.68 1660.36 1277.43 Q1660.36 1286.16 1657.28 1290.76 Q1654.22 1295.35 1648.41 1295.35 Q1642.6 1295.35 1639.53 1290.76 Q1636.47 1286.16 1636.47 1277.43 Q1636.47 1268.68 1639.53 1264.1 Q1642.6 1259.49 1648.41 1259.49 Z" fill="#000000" fill-rule="nonzero" fill-opacity="1" /><path clip-path="url(#clip820)" d="M1984.11 1260.11 L2002.47 1260.11 L2002.47 1264.05 L1988.39 1264.05 L1988.39 1272.52 Q1989.41 1272.17 1990.43 1272.01 Q1991.45 1271.83 1992.47 1271.83 Q1998.26 1271.83 2001.63 1275 Q2005.01 1278.17 2005.01 1283.59 Q2005.01 1289.17 2001.54 1292.27 Q1998.07 1295.35 1991.75 1295.35 Q1989.57 1295.35 1987.31 1294.98 Q1985.06 1294.61 1982.65 1293.86 L1982.65 1289.17 Q1984.74 1290.3 1986.96 1290.86 Q1989.18 1291.41 1991.66 1291.41 Q1995.66 1291.41 1998 1289.3 Q2000.34 1287.2 2000.34 1283.59 Q2000.34 1279.98 1998 1277.87 Q1995.66 1275.76 1991.66 1275.76 Q1989.78 1275.76 1987.91 1276.18 Q1986.06 1276.6 1984.11 1277.48 L1984.11 1260.11 Z" fill="#000000" fill-rule="nonzero" fill-opacity="1" /><path clip-path="url(#clip820)" d="M2024.23 1263.19 Q2020.62 1263.19 2018.79 1266.76 Q2016.98 1270.3 2016.98 1277.43 Q2016.98 1284.54 2018.79 1288.1 Q2020.62 1291.64 2024.23 1291.64 Q2027.86 1291.64 2029.67 1288.1 Q2031.5 1284.54 2031.5 1277.43 Q2031.5 1270.3 2029.67 1266.76 Q2027.86 1263.19 2024.23 1263.19 M2024.23 1259.49 Q2030.04 1259.49 2033.09 1264.1 Q2036.17 1268.68 2036.17 1277.43 Q2036.17 1286.16 2033.09 1290.76 Q2030.04 1295.35 2024.23 1295.35 Q2018.42 1295.35 2015.34 1290.76 Q2012.28 1286.16 2012.28 1277.43 Q2012.28 1268.68 2015.34 1264.1 Q2018.42 1259.49 2024.23 1259.49 Z" fill="#000000" fill-rule="nonzero" fill-opacity="1" /><polyline clip-path="url(#clip822)" style="stroke:#000000; stroke-linecap:round; stroke-linejoin:round; stroke-width:2; stroke-opacity:0.1; fill:none" points="109.297,1200.97 2064.76,1200.97 "/>
<polyline clip-path="url(#clip822)" style="stroke:#000000; stroke-linecap:round; stroke-linejoin:round; stroke-width:2; stroke-opacity:0.1; fill:none" points="109.297,1022.58 2064.76,1022.58 "/>
<polyline clip-path="url(#clip822)" style="stroke:#000000; stroke-linecap:round; stroke-linejoin:round; stroke-width:2; stroke-opacity:0.1; fill:none" points="109.297,844.193 2064.76,844.193 "/>
<polyline clip-path="url(#clip822)" style="stroke:#000000; stroke-linecap:round; stroke-linejoin:round; stroke-width:2; stroke-opacity:0.1; fill:none" points="109.297,665.802 2064.76,665.802 "/>
<polyline clip-path="url(#clip822)" style="stroke:#000000; stroke-linecap:round; stroke-linejoin:round; stroke-width:2; stroke-opacity:0.1; fill:none" points="109.297,487.411 2064.76,487.411 "/>
<polyline clip-path="url(#clip822)" style="stroke:#000000; stroke-linecap:round; stroke-linejoin:round; stroke-width:2; stroke-opacity:0.1; fill:none" points="109.297,309.019 2064.76,309.019 "/>
<polyline clip-path="url(#clip822)" style="stroke:#000000; stroke-linecap:round; stroke-linejoin:round; stroke-width:2; stroke-opacity:0.1; fill:none" points="109.297,130.628 2064.76,130.628 "/>
<polyline clip-path="url(#clip820)" style="stroke:#000000; stroke-linecap:round; stroke-linejoin:round; stroke-width:4; stroke-opacity:1; fill:none" points="109.297,1234.58 109.297,47.2441 "/>
<polyline clip-path="url(#clip820)" style="stroke:#000000; stroke-linecap:round; stroke-linejoin:round; stroke-width:4; stroke-opacity:1; fill:none" points="109.297,1200.97 128.195,1200.97 "/>
<polyline clip-path="url(#clip820)" style="stroke:#000000; stroke-linecap:round; stroke-linejoin:round; stroke-width:4; stroke-opacity:1; fill:none" points="109.297,1022.58 128.195,1022.58 "/>
<polyline clip-path="url(#clip820)" style="stroke:#000000; stroke-linecap:round; stroke-linejoin:round; stroke-width:4; stroke-opacity:1; fill:none" points="109.297,844.193 128.195,844.193 "/>
<polyline clip-path="url(#clip820)" style="stroke:#000000; stroke-linecap:round; stroke-linejoin:round; stroke-width:4; stroke-opacity:1; fill:none" points="109.297,665.802 128.195,665.802 "/>
<polyline clip-path="url(#clip820)" style="stroke:#000000; stroke-linecap:round; stroke-linejoin:round; stroke-width:4; stroke-opacity:1; fill:none" points="109.297,487.411 128.195,487.411 "/>
<polyline clip-path="url(#clip820)" style="stroke:#000000; stroke-linecap:round; stroke-linejoin:round; stroke-width:4; stroke-opacity:1; fill:none" points="109.297,309.019 128.195,309.019 "/>
<polyline clip-path="url(#clip820)" style="stroke:#000000; stroke-linecap:round; stroke-linejoin:round; stroke-width:4; stroke-opacity:1; fill:none" points="109.297,130.628 128.195,130.628 "/>
<path clip-path="url(#clip820)" d="M65.6728 1186.77 Q62.0617 1186.77 60.233 1190.34 Q58.4275 1193.88 58.4275 1201.01 Q58.4275 1208.12 60.233 1211.68 Q62.0617 1215.22 65.6728 1215.22 Q69.307 1215.22 71.1126 1211.68 Q72.9413 1208.12 72.9413 1201.01 Q72.9413 1193.88 71.1126 1190.34 Q69.307 1186.77 65.6728 1186.77 M65.6728 1183.07 Q71.4829 1183.07 74.5385 1187.68 Q77.6172 1192.26 77.6172 1201.01 Q77.6172 1209.74 74.5385 1214.34 Q71.4829 1218.93 65.6728 1218.93 Q59.8626 1218.93 56.784 1214.34 Q53.7284 1209.74 53.7284 1201.01 Q53.7284 1192.26 56.784 1187.68 Q59.8626 1183.07 65.6728 1183.07 Z" fill="#000000" fill-rule="nonzero" fill-opacity="1" /><path clip-path="url(#clip820)" d="M57.7099 1035.93 L65.3487 1035.93 L65.3487 1009.56 L57.0386 1011.23 L57.0386 1006.97 L65.3024 1005.3 L69.9783 1005.3 L69.9783 1035.93 L77.6172 1035.93 L77.6172 1039.86 L57.7099 1039.86 L57.7099 1035.93 Z" fill="#000000" fill-rule="nonzero" fill-opacity="1" /><path clip-path="url(#clip820)" d="M61.2978 857.538 L77.6172 857.538 L77.6172 861.473 L55.6728 861.473 L55.6728 857.538 Q58.3349 854.783 62.9182 850.153 Q67.5246 845.501 68.7052 844.158 Q70.9505 841.635 71.8302 839.899 Q72.7329 838.14 72.7329 836.45 Q72.7329 833.695 70.7885 831.959 Q68.8672 830.223 65.7654 830.223 Q63.5663 830.223 61.1126 830.987 Q58.6821 831.751 55.9043 833.302 L55.9043 828.579 Q58.7284 827.445 61.1821 826.866 Q63.6358 826.288 65.6728 826.288 Q71.0431 826.288 74.2376 828.973 Q77.432 831.658 77.432 836.149 Q77.432 838.278 76.6218 840.2 Q75.8348 842.098 73.7283 844.69 Q73.1496 845.362 70.0478 848.579 Q66.9459 851.774 61.2978 857.538 Z" fill="#000000" fill-rule="nonzero" fill-opacity="1" /><path clip-path="url(#clip820)" d="M70.4876 664.447 Q73.844 665.165 75.719 667.434 Q77.6172 669.702 77.6172 673.035 Q77.6172 678.151 74.0987 680.952 Q70.5802 683.753 64.0987 683.753 Q61.9228 683.753 59.608 683.313 Q57.3164 682.896 54.8627 682.04 L54.8627 677.526 Q56.8071 678.66 59.1219 679.239 Q61.4367 679.818 63.9598 679.818 Q68.358 679.818 70.6496 678.082 Q72.9644 676.346 72.9644 673.035 Q72.9644 669.98 70.8117 668.267 Q68.682 666.531 64.8626 666.531 L60.8349 666.531 L60.8349 662.688 L65.0478 662.688 Q68.4969 662.688 70.3255 661.322 Q72.1542 659.934 72.1542 657.341 Q72.1542 654.679 70.2561 653.267 Q68.3811 651.832 64.8626 651.832 Q62.9413 651.832 60.7423 652.248 Q58.5432 652.665 55.9043 653.545 L55.9043 649.378 Q58.5664 648.637 60.8812 648.267 Q63.2191 647.897 65.2793 647.897 Q70.6033 647.897 73.7052 650.327 Q76.807 652.735 76.807 656.855 Q76.807 659.725 75.1635 661.716 Q73.52 663.684 70.4876 664.447 Z" fill="#000000" fill-rule="nonzero" fill-opacity="1" /><path clip-path="url(#clip820)" d="M68.0339 474.205 L56.2284 492.654 L68.0339 492.654 L68.0339 474.205 M66.807 470.131 L72.6866 470.131 L72.6866 492.654 L77.6172 492.654 L77.6172 496.542 L72.6866 496.542 L72.6866 504.691 L68.0339 504.691 L68.0339 496.542 L52.4321 496.542 L52.4321 492.029 L66.807 470.131 Z" fill="#000000" fill-rule="nonzero" fill-opacity="1" /><path clip-path="url(#clip820)" d="M56.7145 291.739 L75.0709 291.739 L75.0709 295.675 L60.9969 295.675 L60.9969 304.147 Q62.0154 303.8 63.0339 303.637 Q64.0524 303.452 65.0709 303.452 Q70.858 303.452 74.2376 306.624 Q77.6172 309.795 77.6172 315.212 Q77.6172 320.79 74.145 323.892 Q70.6728 326.971 64.3534 326.971 Q62.1774 326.971 59.9089 326.6 Q57.6636 326.23 55.2562 325.489 L55.2562 320.79 Q57.3395 321.924 59.5617 322.48 Q61.7839 323.036 64.2608 323.036 Q68.2654 323.036 70.6033 320.929 Q72.9413 318.823 72.9413 315.212 Q72.9413 311.6 70.6033 309.494 Q68.2654 307.387 64.2608 307.387 Q62.3858 307.387 60.5108 307.804 Q58.6589 308.221 56.7145 309.1 L56.7145 291.739 Z" fill="#000000" fill-rule="nonzero" fill-opacity="1" /><path clip-path="url(#clip820)" d="M66.0895 128.765 Q62.9413 128.765 61.0895 130.918 Q59.2608 133.07 59.2608 136.82 Q59.2608 140.547 61.0895 142.723 Q62.9413 144.876 66.0895 144.876 Q69.2376 144.876 71.0663 142.723 Q72.9181 140.547 72.9181 136.82 Q72.9181 133.07 71.0663 130.918 Q69.2376 128.765 66.0895 128.765 M75.3718 114.112 L75.3718 118.371 Q73.6126 117.538 71.807 117.098 Q70.0246 116.658 68.2654 116.658 Q63.6358 116.658 61.1821 119.783 Q58.7515 122.908 58.4043 129.228 Q59.77 127.214 61.8302 126.149 Q63.8904 125.061 66.3672 125.061 Q71.5755 125.061 74.5848 128.232 Q77.6172 131.381 77.6172 136.82 Q77.6172 142.144 74.469 145.362 Q71.3209 148.58 66.0895 148.58 Q60.0941 148.58 56.9228 143.996 Q53.7516 139.39 53.7516 130.663 Q53.7516 122.469 57.6404 117.608 Q61.5293 112.723 68.0802 112.723 Q69.8394 112.723 71.6218 113.071 Q73.4274 113.418 75.3718 114.112 Z" fill="#000000" fill-rule="nonzero" fill-opacity="1" /><circle clip-path="url(#clip822)" cx="164.64" cy="1200.97" r="14.4" fill="#009af9" fill-rule="evenodd" fill-opacity="1" stroke="#000000" stroke-opacity="1" stroke-width="2.688"/>
<circle clip-path="url(#clip822)" cx="202.289" cy="487.411" r="14.4" fill="#009af9" fill-rule="evenodd" fill-opacity="1" stroke="#000000" stroke-opacity="1" stroke-width="2.688"/>
<circle clip-path="url(#clip822)" cx="239.937" cy="274.028" r="14.4" fill="#009af9" fill-rule="evenodd" fill-opacity="1" stroke="#000000" stroke-opacity="1" stroke-width="2.688"/>
<circle clip-path="url(#clip822)" cx="277.586" cy="191.842" r="14.4" fill="#009af9" fill-rule="evenodd" fill-opacity="1" stroke="#000000" stroke-opacity="1" stroke-width="2.688"/>
<circle clip-path="url(#clip822)" cx="315.234" cy="152.418" r="14.4" fill="#009af9" fill-rule="evenodd" fill-opacity="1" stroke="#000000" stroke-opacity="1" stroke-width="2.688"/>
<circle clip-path="url(#clip822)" cx="352.882" cy="130.628" r="14.4" fill="#009af9" fill-rule="evenodd" fill-opacity="1" stroke="#000000" stroke-opacity="1" stroke-width="2.688"/>
<circle clip-path="url(#clip822)" cx="390.531" cy="117.361" r="14.4" fill="#009af9" fill-rule="evenodd" fill-opacity="1" stroke="#000000" stroke-opacity="1" stroke-width="2.688"/>
<circle clip-path="url(#clip822)" cx="428.179" cy="108.698" r="14.4" fill="#009af9" fill-rule="evenodd" fill-opacity="1" stroke="#000000" stroke-opacity="1" stroke-width="2.688"/>
<circle clip-path="url(#clip822)" cx="465.828" cy="102.735" r="14.4" fill="#009af9" fill-rule="evenodd" fill-opacity="1" stroke="#000000" stroke-opacity="1" stroke-width="2.688"/>
<circle clip-path="url(#clip822)" cx="503.476" cy="98.4573" r="14.4" fill="#009af9" fill-rule="evenodd" fill-opacity="1" stroke="#000000" stroke-opacity="1" stroke-width="2.688"/>
<circle clip-path="url(#clip822)" cx="541.125" cy="95.2861" r="14.4" fill="#009af9" fill-rule="evenodd" fill-opacity="1" stroke="#000000" stroke-opacity="1" stroke-width="2.688"/>
<circle clip-path="url(#clip822)" cx="578.773" cy="92.8706" r="14.4" fill="#009af9" fill-rule="evenodd" fill-opacity="1" stroke="#000000" stroke-opacity="1" stroke-width="2.688"/>
<circle clip-path="url(#clip822)" cx="616.421" cy="90.9885" r="14.4" fill="#009af9" fill-rule="evenodd" fill-opacity="1" stroke="#000000" stroke-opacity="1" stroke-width="2.688"/>
<circle clip-path="url(#clip822)" cx="654.07" cy="89.4938" r="14.4" fill="#009af9" fill-rule="evenodd" fill-opacity="1" stroke="#000000" stroke-opacity="1" stroke-width="2.688"/>
<circle clip-path="url(#clip822)" cx="691.718" cy="88.287" r="14.4" fill="#009af9" fill-rule="evenodd" fill-opacity="1" stroke="#000000" stroke-opacity="1" stroke-width="2.688"/>
<circle clip-path="url(#clip822)" cx="729.367" cy="87.2988" r="14.4" fill="#009af9" fill-rule="evenodd" fill-opacity="1" stroke="#000000" stroke-opacity="1" stroke-width="2.688"/>
<circle clip-path="url(#clip822)" cx="767.015" cy="86.4794" r="14.4" fill="#009af9" fill-rule="evenodd" fill-opacity="1" stroke="#000000" stroke-opacity="1" stroke-width="2.688"/>
<circle clip-path="url(#clip822)" cx="804.663" cy="85.7925" r="14.4" fill="#009af9" fill-rule="evenodd" fill-opacity="1" stroke="#000000" stroke-opacity="1" stroke-width="2.688"/>
<circle clip-path="url(#clip822)" cx="842.312" cy="85.2109" r="14.4" fill="#009af9" fill-rule="evenodd" fill-opacity="1" stroke="#000000" stroke-opacity="1" stroke-width="2.688"/>
<circle clip-path="url(#clip822)" cx="879.96" cy="84.7142" r="14.4" fill="#009af9" fill-rule="evenodd" fill-opacity="1" stroke="#000000" stroke-opacity="1" stroke-width="2.688"/>
<circle clip-path="url(#clip822)" cx="917.609" cy="84.2867" r="14.4" fill="#009af9" fill-rule="evenodd" fill-opacity="1" stroke="#000000" stroke-opacity="1" stroke-width="2.688"/>
<circle clip-path="url(#clip822)" cx="955.257" cy="83.9161" r="14.4" fill="#009af9" fill-rule="evenodd" fill-opacity="1" stroke="#000000" stroke-opacity="1" stroke-width="2.688"/>
<circle clip-path="url(#clip822)" cx="992.906" cy="83.5926" r="14.4" fill="#009af9" fill-rule="evenodd" fill-opacity="1" stroke="#000000" stroke-opacity="1" stroke-width="2.688"/>
<circle clip-path="url(#clip822)" cx="1030.55" cy="83.3088" r="14.4" fill="#009af9" fill-rule="evenodd" fill-opacity="1" stroke="#000000" stroke-opacity="1" stroke-width="2.688"/>
<circle clip-path="url(#clip822)" cx="1068.2" cy="83.0582" r="14.4" fill="#009af9" fill-rule="evenodd" fill-opacity="1" stroke="#000000" stroke-opacity="1" stroke-width="2.688"/>
<circle clip-path="url(#clip822)" cx="1105.85" cy="82.836" r="14.4" fill="#009af9" fill-rule="evenodd" fill-opacity="1" stroke="#000000" stroke-opacity="1" stroke-width="2.688"/>
<circle clip-path="url(#clip822)" cx="1143.5" cy="82.638" r="14.4" fill="#009af9" fill-rule="evenodd" fill-opacity="1" stroke="#000000" stroke-opacity="1" stroke-width="2.688"/>
<circle clip-path="url(#clip822)" cx="1181.15" cy="82.4608" r="14.4" fill="#009af9" fill-rule="evenodd" fill-opacity="1" stroke="#000000" stroke-opacity="1" stroke-width="2.688"/>
<circle clip-path="url(#clip822)" cx="1218.8" cy="82.3016" r="14.4" fill="#009af9" fill-rule="evenodd" fill-opacity="1" stroke="#000000" stroke-opacity="1" stroke-width="2.688"/>
<circle clip-path="url(#clip822)" cx="1256.44" cy="82.158" r="14.4" fill="#009af9" fill-rule="evenodd" fill-opacity="1" stroke="#000000" stroke-opacity="1" stroke-width="2.688"/>
<circle clip-path="url(#clip822)" cx="1294.09" cy="82.0281" r="14.4" fill="#009af9" fill-rule="evenodd" fill-opacity="1" stroke="#000000" stroke-opacity="1" stroke-width="2.688"/>
<circle clip-path="url(#clip822)" cx="1331.74" cy="81.9102" r="14.4" fill="#009af9" fill-rule="evenodd" fill-opacity="1" stroke="#000000" stroke-opacity="1" stroke-width="2.688"/>
<circle clip-path="url(#clip822)" cx="1369.39" cy="81.8029" r="14.4" fill="#009af9" fill-rule="evenodd" fill-opacity="1" stroke="#000000" stroke-opacity="1" stroke-width="2.688"/>
<circle clip-path="url(#clip822)" cx="1407.04" cy="81.7048" r="14.4" fill="#009af9" fill-rule="evenodd" fill-opacity="1" stroke="#000000" stroke-opacity="1" stroke-width="2.688"/>
<circle clip-path="url(#clip822)" cx="1444.69" cy="81.615" r="14.4" fill="#009af9" fill-rule="evenodd" fill-opacity="1" stroke="#000000" stroke-opacity="1" stroke-width="2.688"/>
<circle clip-path="url(#clip822)" cx="1482.33" cy="81.5327" r="14.4" fill="#009af9" fill-rule="evenodd" fill-opacity="1" stroke="#000000" stroke-opacity="1" stroke-width="2.688"/>
<circle clip-path="url(#clip822)" cx="1519.98" cy="81.4569" r="14.4" fill="#009af9" fill-rule="evenodd" fill-opacity="1" stroke="#000000" stroke-opacity="1" stroke-width="2.688"/>
<circle clip-path="url(#clip822)" cx="1557.63" cy="81.387" r="14.4" fill="#009af9" fill-rule="evenodd" fill-opacity="1" stroke="#000000" stroke-opacity="1" stroke-width="2.688"/>
<circle clip-path="url(#clip822)" cx="1595.28" cy="81.3224" r="14.4" fill="#009af9" fill-rule="evenodd" fill-opacity="1" stroke="#000000" stroke-opacity="1" stroke-width="2.688"/>
<circle clip-path="url(#clip822)" cx="1632.93" cy="81.2625" r="14.4" fill="#009af9" fill-rule="evenodd" fill-opacity="1" stroke="#000000" stroke-opacity="1" stroke-width="2.688"/>
<circle clip-path="url(#clip822)" cx="1670.58" cy="81.207" r="14.4" fill="#009af9" fill-rule="evenodd" fill-opacity="1" stroke="#000000" stroke-opacity="1" stroke-width="2.688"/>
<circle clip-path="url(#clip822)" cx="1708.23" cy="81.1555" r="14.4" fill="#009af9" fill-rule="evenodd" fill-opacity="1" stroke="#000000" stroke-opacity="1" stroke-width="2.688"/>
<circle clip-path="url(#clip822)" cx="1745.87" cy="81.1074" r="14.4" fill="#009af9" fill-rule="evenodd" fill-opacity="1" stroke="#000000" stroke-opacity="1" stroke-width="2.688"/>
<circle clip-path="url(#clip822)" cx="1783.52" cy="81.0627" r="14.4" fill="#009af9" fill-rule="evenodd" fill-opacity="1" stroke="#000000" stroke-opacity="1" stroke-width="2.688"/>
<circle clip-path="url(#clip822)" cx="1821.17" cy="81.0208" r="14.4" fill="#009af9" fill-rule="evenodd" fill-opacity="1" stroke="#000000" stroke-opacity="1" stroke-width="2.688"/>
<circle clip-path="url(#clip822)" cx="1858.82" cy="80.9817" r="14.4" fill="#009af9" fill-rule="evenodd" fill-opacity="1" stroke="#000000" stroke-opacity="1" stroke-width="2.688"/>
<circle clip-path="url(#clip822)" cx="1896.47" cy="80.945" r="14.4" fill="#009af9" fill-rule="evenodd" fill-opacity="1" stroke="#000000" stroke-opacity="1" stroke-width="2.688"/>
<circle clip-path="url(#clip822)" cx="1934.12" cy="80.9106" r="14.4" fill="#009af9" fill-rule="evenodd" fill-opacity="1" stroke="#000000" stroke-opacity="1" stroke-width="2.688"/>
<circle clip-path="url(#clip822)" cx="1971.76" cy="80.8783" r="14.4" fill="#009af9" fill-rule="evenodd" fill-opacity="1" stroke="#000000" stroke-opacity="1" stroke-width="2.688"/>
<circle clip-path="url(#clip822)" cx="2009.41" cy="80.8479" r="14.4" fill="#009af9" fill-rule="evenodd" fill-opacity="1" stroke="#000000" stroke-opacity="1" stroke-width="2.688"/>
</svg>
