<?xml version="1.0" encoding="utf-8"?>
<svg xmlns="http://www.w3.org/2000/svg" xmlns:xlink="http://www.w3.org/1999/xlink" width="528" height="336" viewBox="0 0 2112 1344">
<defs>
  <clipPath id="clip630">
    <rect x="0" y="0" width="2112" height="1344"/>
  </clipPath>
</defs>
<path clip-path="url(#clip630)" d="M0 1344 L2112 1344 L2112 0 L0 0  Z" fill="#ffffff" fill-rule="evenodd" fill-opacity="1"/>
<defs>
  <clipPath id="clip631">
    <rect x="422" y="0" width="1479" height="1344"/>
  </clipPath>
</defs>
<path clip-path="url(#clip630)" d="M108.001 1234.58 L2064.76 1234.58 L2064.76 47.2441 L108.001 47.2441  Z" fill="#ffffff" fill-rule="evenodd" fill-opacity="1"/>
<defs>
  <clipPath id="clip632">
    <rect x="108" y="47" width="1958" height="1188"/>
  </clipPath>
</defs>
<polyline clip-path="url(#clip632)" style="stroke:#000000; stroke-linecap:round; stroke-linejoin:round; stroke-width:2; stroke-opacity:0.1; fill:none" points="125.707,1234.58 125.707,47.2441 "/>
<polyline clip-path="url(#clip632)" style="stroke:#000000; stroke-linecap:round; stroke-linejoin:round; stroke-width:2; stroke-opacity:0.1; fill:none" points="502.441,1234.58 502.441,47.2441 "/>
<polyline clip-path="url(#clip632)" style="stroke:#000000; stroke-linecap:round; stroke-linejoin:round; stroke-width:2; stroke-opacity:0.1; fill:none" points="879.175,1234.58 879.175,47.2441 "/>
<polyline clip-path="url(#clip632)" style="stroke:#000000; stroke-linecap:round; stroke-linejoin:round; stroke-width:2; stroke-opacity:0.1; fill:none" points="1255.91,1234.58 1255.91,47.2441 "/>
<polyline clip-path="url(#clip632)" style="stroke:#000000; stroke-linecap:round; stroke-linejoin:round; stroke-width:2; stroke-opacity:0.1; fill:none" points="1632.64,1234.58 1632.64,47.2441 "/>
<polyline clip-path="url(#clip632)" style="stroke:#000000; stroke-linecap:round; stroke-linejoin:round; stroke-width:2; stroke-opacity:0.1; fill:none" points="2009.38,1234.58 2009.38,47.2441 "/>
<polyline clip-path="url(#clip632)" style="stroke:#000000; stroke-linecap:round; stroke-linejoin:round; stroke-width:2; stroke-opacity:0.1; fill:none" points="108.001,1200.97 2064.76,1200.97 "/>
<polyline clip-path="url(#clip632)" style="stroke:#000000; stroke-linecap:round; stroke-linejoin:round; stroke-width:2; stroke-opacity:0.1; fill:none" points="108.001,843.487 2064.76,843.487 "/>
<polyline clip-path="url(#clip632)" style="stroke:#000000; stroke-linecap:round; stroke-linejoin:round; stroke-width:2; stroke-opacity:0.1; fill:none" points="108.001,486 2064.76,486 "/>
<polyline clip-path="url(#clip632)" style="stroke:#000000; stroke-linecap:round; stroke-linejoin:round; stroke-width:2; stroke-opacity:0.1; fill:none" points="108.001,128.512 2064.76,128.512 "/>
<polyline clip-path="url(#clip630)" style="stroke:#000000; stroke-linecap:round; stroke-linejoin:round; stroke-width:4; stroke-opacity:1; fill:none" points="108.001,1234.58 2064.76,1234.58 "/>
<polyline clip-path="url(#clip630)" style="stroke:#000000; stroke-linecap:round; stroke-linejoin:round; stroke-width:4; stroke-opacity:1; fill:none" points="125.707,1234.58 125.707,1215.68 "/>
<polyline clip-path="url(#clip630)" style="stroke:#000000; stroke-linecap:round; stroke-linejoin:round; stroke-width:4; stroke-opacity:1; fill:none" points="502.441,1234.58 502.441,1215.68 "/>
<polyline clip-path="url(#clip630)" style="stroke:#000000; stroke-linecap:round; stroke-linejoin:round; stroke-width:4; stroke-opacity:1; fill:none" points="879.175,1234.58 879.175,1215.68 "/>
<polyline clip-path="url(#clip630)" style="stroke:#000000; stroke-linecap:round; stroke-linejoin:round; stroke-width:4; stroke-opacity:1; fill:none" points="1255.91,1234.58 1255.91,1215.68 "/>
<polyline clip-path="url(#clip630)" style="stroke:#000000; stroke-linecap:round; stroke-linejoin:round; stroke-width:4; stroke-opacity:1; fill:none" points="1632.64,1234.58 1632.64,1215.68 "/>
<polyline clip-path="url(#clip630)" style="stroke:#000000; stroke-linecap:round; stroke-linejoin:round; stroke-width:4; stroke-opacity:1; fill:none" points="2009.38,1234.58 2009.38,1215.68 "/>
<path clip-path="url(#clip630)" d="M125.707 1263.19 Q122.096 1263.19 120.268 1266.76 Q118.462 1270.3 118.462 1277.43 Q118.462 1284.54 120.268 1288.1 Q122.096 1291.64 125.707 1291.64 Q129.342 1291.64 131.147 1288.1 Q132.976 1284.54 132.976 1277.43 Q132.976 1270.3 131.147 1266.76 Q129.342 1263.19 125.707 1263.19 M125.707 1259.49 Q131.518 1259.49 134.573 1264.1 Q137.652 1268.68 137.652 1277.43 Q137.652 1286.16 134.573 1290.76 Q131.518 1295.35 125.707 1295.35 Q119.897 1295.35 116.819 1290.76 Q113.763 1286.16 113.763 1277.43 Q113.763 1268.68 116.819 1264.1 Q119.897 1259.49 125.707 1259.49 Z" fill="#000000" fill-rule="nonzero" fill-opacity="1" /><path clip-path="url(#clip630)" d="M477.129 1290.74 L484.768 1290.74 L484.768 1264.37 L476.457 1266.04 L476.457 1261.78 L484.721 1260.11 L489.397 1260.11 L489.397 1290.74 L497.036 1290.74 L497.036 1294.67 L477.129 1294.67 L477.129 1290.74 Z" fill="#000000" fill-rule="nonzero" fill-opacity="1" /><path clip-path="url(#clip630)" d="M516.48 1263.19 Q512.869 1263.19 511.041 1266.76 Q509.235 1270.3 509.235 1277.43 Q509.235 1284.54 511.041 1288.1 Q512.869 1291.64 516.48 1291.64 Q520.115 1291.64 521.92 1288.1 Q523.749 1284.54 523.749 1277.43 Q523.749 1270.3 521.92 1266.76 Q520.115 1263.19 516.48 1263.19 M516.48 1259.49 Q522.291 1259.49 525.346 1264.1 Q528.425 1268.68 528.425 1277.43 Q528.425 1286.16 525.346 1290.76 Q522.291 1295.35 516.48 1295.35 Q510.67 1295.35 507.592 1290.76 Q504.536 1286.16 504.536 1277.43 Q504.536 1268.68 507.592 1264.1 Q510.67 1259.49 516.48 1259.49 Z" fill="#000000" fill-rule="nonzero" fill-opacity="1" /><path clip-path="url(#clip630)" d="M857.948 1290.74 L874.267 1290.74 L874.267 1294.67 L852.323 1294.67 L852.323 1290.74 Q854.985 1287.99 859.568 1283.36 Q864.175 1278.7 865.355 1277.36 Q867.601 1274.84 868.48 1273.1 Q869.383 1271.34 869.383 1269.65 Q869.383 1266.9 867.439 1265.16 Q865.518 1263.42 862.416 1263.42 Q860.217 1263.42 857.763 1264.19 Q855.332 1264.95 852.555 1266.5 L852.555 1261.78 Q855.379 1260.65 857.832 1260.07 Q860.286 1259.49 862.323 1259.49 Q867.693 1259.49 870.888 1262.17 Q874.082 1264.86 874.082 1269.35 Q874.082 1271.48 873.272 1273.4 Q872.485 1275.3 870.379 1277.89 Q869.8 1278.56 866.698 1281.78 Q863.596 1284.98 857.948 1290.74 Z" fill="#000000" fill-rule="nonzero" fill-opacity="1" /><path clip-path="url(#clip630)" d="M894.082 1263.19 Q890.471 1263.19 888.642 1266.76 Q886.837 1270.3 886.837 1277.43 Q886.837 1284.54 888.642 1288.1 Q890.471 1291.64 894.082 1291.64 Q897.716 1291.64 899.522 1288.1 Q901.351 1284.54 901.351 1277.43 Q901.351 1270.3 899.522 1266.76 Q897.716 1263.19 894.082 1263.19 M894.082 1259.49 Q899.892 1259.49 902.948 1264.1 Q906.027 1268.68 906.027 1277.43 Q906.027 1286.16 902.948 1290.76 Q899.892 1295.35 894.082 1295.35 Q888.272 1295.35 885.193 1290.76 Q882.138 1286.16 882.138 1277.43 Q882.138 1268.68 885.193 1264.1 Q888.272 1259.49 894.082 1259.49 Z" fill="#000000" fill-rule="nonzero" fill-opacity="1" /><path clip-path="url(#clip630)" d="M1244.75 1276.04 Q1248.11 1276.76 1249.98 1279.03 Q1251.88 1281.3 1251.88 1284.63 Q1251.88 1289.74 1248.36 1292.55 Q1244.84 1295.35 1238.36 1295.35 Q1236.19 1295.35 1233.87 1294.91 Q1231.58 1294.49 1229.13 1293.63 L1229.13 1289.12 Q1231.07 1290.25 1233.39 1290.83 Q1235.7 1291.41 1238.22 1291.41 Q1242.62 1291.41 1244.91 1289.67 Q1247.23 1287.94 1247.23 1284.63 Q1247.23 1281.57 1245.08 1279.86 Q1242.95 1278.12 1239.13 1278.12 L1235.1 1278.12 L1235.1 1274.28 L1239.31 1274.28 Q1242.76 1274.28 1244.59 1272.92 Q1246.42 1271.53 1246.42 1268.93 Q1246.42 1266.27 1244.52 1264.86 Q1242.64 1263.42 1239.13 1263.42 Q1237.2 1263.42 1235.01 1263.84 Q1232.81 1264.26 1230.17 1265.14 L1230.17 1260.97 Q1232.83 1260.23 1235.14 1259.86 Q1237.48 1259.49 1239.54 1259.49 Q1244.87 1259.49 1247.97 1261.92 Q1251.07 1264.33 1251.07 1268.45 Q1251.07 1271.32 1249.43 1273.31 Q1247.78 1275.28 1244.75 1276.04 Z" fill="#000000" fill-rule="nonzero" fill-opacity="1" /><path clip-path="url(#clip630)" d="M1270.75 1263.19 Q1267.14 1263.19 1265.31 1266.76 Q1263.5 1270.3 1263.5 1277.43 Q1263.5 1284.54 1265.31 1288.1 Q1267.14 1291.64 1270.75 1291.64 Q1274.38 1291.64 1276.19 1288.1 Q1278.01 1284.54 1278.01 1277.43 Q1278.01 1270.3 1276.19 1266.76 Q1274.38 1263.19 1270.75 1263.19 M1270.75 1259.49 Q1276.56 1259.49 1279.61 1264.1 Q1282.69 1268.68 1282.69 1277.43 Q1282.69 1286.16 1279.61 1290.76 Q1276.56 1295.35 1270.75 1295.35 Q1264.94 1295.35 1261.86 1290.76 Q1258.8 1286.16 1258.8 1277.43 Q1258.8 1268.68 1261.86 1264.1 Q1264.94 1259.49 1270.75 1259.49 Z" fill="#000000" fill-rule="nonzero" fill-opacity="1" /><path clip-path="url(#clip630)" d="M1620.81 1264.19 L1609.01 1282.64 L1620.81 1282.64 L1620.81 1264.19 M1619.59 1260.11 L1625.47 1260.11 L1625.47 1282.64 L1630.4 1282.64 L1630.4 1286.53 L1625.47 1286.53 L1625.47 1294.67 L1620.81 1294.67 L1620.81 1286.53 L1605.21 1286.53 L1605.21 1282.01 L1619.59 1260.11 Z" fill="#000000" fill-rule="nonzero" fill-opacity="1" /><path clip-path="url(#clip630)" d="M1648.13 1263.19 Q1644.52 1263.19 1642.69 1266.76 Q1640.88 1270.3 1640.88 1277.43 Q1640.88 1284.54 1642.69 1288.1 Q1644.52 1291.64 1648.13 1291.64 Q1651.76 1291.64 1653.57 1288.1 Q1655.4 1284.54 1655.4 1277.43 Q1655.4 1270.3 1653.57 1266.76 Q1651.76 1263.19 1648.13 1263.19 M1648.13 1259.49 Q1653.94 1259.49 1656.99 1264.1 Q1660.07 1268.68 1660.07 1277.43 Q1660.07 1286.16 1656.99 1290.76 Q1653.94 1295.35 1648.13 1295.35 Q1642.32 1295.35 1639.24 1290.76 Q1636.18 1286.16 1636.18 1277.43 Q1636.18 1268.68 1639.24 1264.1 Q1642.32 1259.49 1648.13 1259.49 Z" fill="#000000" fill-rule="nonzero" fill-opacity="1" /><path clip-path="url(#clip630)" d="M1984.08 1260.11 L2002.43 1260.11 L2002.43 1264.05 L1988.36 1264.05 L1988.36 1272.52 Q1989.38 1272.17 1990.39 1272.01 Q1991.41 1271.83 1992.43 1271.83 Q1998.22 1271.83 2001.6 1275 Q2004.98 1278.17 2004.98 1283.59 Q2004.98 1289.17 2001.51 1292.27 Q1998.03 1295.35 1991.71 1295.35 Q1989.54 1295.35 1987.27 1294.98 Q1985.02 1294.61 1982.62 1293.86 L1982.62 1289.17 Q1984.7 1290.3 1986.92 1290.86 Q1989.14 1291.41 1991.62 1291.41 Q1995.63 1291.41 1997.96 1289.3 Q2000.3 1287.2 2000.3 1283.59 Q2000.3 1279.98 1997.96 1277.87 Q1995.63 1275.76 1991.62 1275.76 Q1989.75 1275.76 1987.87 1276.18 Q1986.02 1276.6 1984.08 1277.48 L1984.08 1260.11 Z" fill="#000000" fill-rule="nonzero" fill-opacity="1" /><path clip-path="url(#clip630)" d="M2024.19 1263.19 Q2020.58 1263.19 2018.75 1266.76 Q2016.95 1270.3 2016.95 1277.43 Q2016.95 1284.54 2018.75 1288.1 Q2020.58 1291.64 2024.19 1291.64 Q2027.83 1291.64 2029.63 1288.1 Q2031.46 1284.54 2031.46 1277.43 Q2031.46 1270.3 2029.63 1266.76 Q2027.83 1263.19 2024.19 1263.19 M2024.19 1259.49 Q2030 1259.49 2033.06 1264.1 Q2036.14 1268.68 2036.14 1277.43 Q2036.14 1286.16 2033.06 1290.76 Q2030 1295.35 2024.19 1295.35 Q2018.38 1295.35 2015.3 1290.76 Q2012.25 1286.16 2012.25 1277.43 Q2012.25 1268.68 2015.3 1264.1 Q2018.38 1259.49 2024.19 1259.49 Z" fill="#000000" fill-rule="nonzero" fill-opacity="1" /><polyline clip-path="url(#clip630)" style="stroke:#000000; stroke-linecap:round; stroke-linejoin:round; stroke-width:4; stroke-opacity:1; fill:none" points="108.001,1234.58 108.001,47.2441 "/>
<polyline clip-path="url(#clip630)" style="stroke:#000000; stroke-linecap:round; stroke-linejoin:round; stroke-width:4; stroke-opacity:1; fill:none" points="108.001,1200.97 126.899,1200.97 "/>
<polyline clip-path="url(#clip630)" style="stroke:#000000; stroke-linecap:round; stroke-linejoin:round; stroke-width:4; stroke-opacity:1; fill:none" points="108.001,843.487 126.899,843.487 "/>
<polyline clip-path="url(#clip630)" style="stroke:#000000; stroke-linecap:round; stroke-linejoin:round; stroke-width:4; stroke-opacity:1; fill:none" points="108.001,486 126.899,486 "/>
<polyline clip-path="url(#clip630)" style="stroke:#000000; stroke-linecap:round; stroke-linejoin:round; stroke-width:4; stroke-opacity:1; fill:none" points="108.001,128.512 126.899,128.512 "/>
<path clip-path="url(#clip630)" d="M64.3765 1186.77 Q60.7654 1186.77 58.9367 1190.34 Q57.1312 1193.88 57.1312 1201.01 Q57.1312 1208.12 58.9367 1211.68 Q60.7654 1215.22 64.3765 1215.22 Q68.0107 1215.22 69.8163 1211.68 Q71.645 1208.12 71.645 1201.01 Q71.645 1193.88 69.8163 1190.34 Q68.0107 1186.77 64.3765 1186.77 M64.3765 1183.07 Q70.1867 1183.07 73.2422 1187.68 Q76.3209 1192.26 76.3209 1201.01 Q76.3209 1209.74 73.2422 1214.34 Q70.1867 1218.93 64.3765 1218.93 Q58.5664 1218.93 55.4877 1214.34 Q52.4321 1209.74 52.4321 1201.01 Q52.4321 1192.26 55.4877 1187.68 Q58.5664 1183.07 64.3765 1183.07 Z" fill="#000000" fill-rule="nonzero" fill-opacity="1" /><path clip-path="url(#clip630)" d="M56.4136 856.832 L64.0524 856.832 L64.0524 830.467 L55.7423 832.133 L55.7423 827.874 L64.0061 826.207 L68.682 826.207 L68.682 856.832 L76.3209 856.832 L76.3209 860.767 L56.4136 860.767 L56.4136 856.832 Z" fill="#000000" fill-rule="nonzero" fill-opacity="1" /><path clip-path="url(#clip630)" d="M60.0015 499.345 L76.3209 499.345 L76.3209 503.28 L54.3766 503.28 L54.3766 499.345 Q57.0386 496.59 61.6219 491.96 Q66.2283 487.308 67.4089 485.965 Q69.6543 483.442 70.5339 481.706 Q71.4367 479.946 71.4367 478.257 Q71.4367 475.502 69.4922 473.766 Q67.5709 472.03 64.4691 472.03 Q62.27 472.03 59.8163 472.794 Q57.3858 473.558 54.608 475.109 L54.608 470.386 Q57.4321 469.252 59.8858 468.673 Q62.3395 468.095 64.3765 468.095 Q69.7468 468.095 72.9413 470.78 Q76.1357 473.465 76.1357 477.956 Q76.1357 480.085 75.3255 482.007 Q74.5385 483.905 72.432 486.497 Q71.8533 487.169 68.7515 490.386 Q65.6496 493.581 60.0015 499.345 Z" fill="#000000" fill-rule="nonzero" fill-opacity="1" /><path clip-path="url(#clip630)" d="M69.1913 127.158 Q72.5478 127.875 74.4227 130.144 Q76.3209 132.412 76.3209 135.746 Q76.3209 140.862 72.8024 143.662 Q69.2839 146.463 62.8024 146.463 Q60.6265 146.463 58.3117 146.024 Q56.0201 145.607 53.5664 144.75 L53.5664 140.237 Q55.5108 141.371 57.8256 141.949 Q60.1404 142.528 62.6636 142.528 Q67.0617 142.528 69.3533 140.792 Q71.6681 139.056 71.6681 135.746 Q71.6681 132.69 69.5154 130.977 Q67.3857 129.241 63.5663 129.241 L59.5386 129.241 L59.5386 125.399 L63.7515 125.399 Q67.2006 125.399 69.0293 124.033 Q70.858 122.644 70.858 120.051 Q70.858 117.389 68.9598 115.977 Q67.0848 114.542 63.5663 114.542 Q61.645 114.542 59.446 114.959 Q57.2469 115.376 54.608 116.255 L54.608 112.089 Q57.2701 111.348 59.5849 110.977 Q61.9228 110.607 63.983 110.607 Q69.307 110.607 72.4089 113.038 Q75.5107 115.445 75.5107 119.565 Q75.5107 122.436 73.8672 124.426 Q72.2237 126.394 69.1913 127.158 Z" fill="#000000" fill-rule="nonzero" fill-opacity="1" /><circle clip-path="url(#clip632)" cx="163.381" cy="1200.97" r="14.4" fill="#009af9" fill-rule="evenodd" fill-opacity="1" stroke="#000000" stroke-opacity="1" stroke-width="2.688"/>
<circle clip-path="url(#clip632)" cx="201.054" cy="1200.97" r="14.4" fill="#009af9" fill-rule="evenodd" fill-opacity="1" stroke="#000000" stroke-opacity="1" stroke-width="2.688"/>
<circle clip-path="url(#clip632)" cx="238.727" cy="736.585" r="14.4" fill="#009af9" fill-rule="evenodd" fill-opacity="1" stroke="#000000" stroke-opacity="1" stroke-width="2.688"/>
<circle clip-path="url(#clip632)" cx="276.401" cy="486" r="14.4" fill="#009af9" fill-rule="evenodd" fill-opacity="1" stroke="#000000" stroke-opacity="1" stroke-width="2.688"/>
<circle clip-path="url(#clip632)" cx="314.074" cy="350.998" r="14.4" fill="#009af9" fill-rule="evenodd" fill-opacity="1" stroke="#000000" stroke-opacity="1" stroke-width="2.688"/>
<circle clip-path="url(#clip632)" cx="351.748" cy="272.195" r="14.4" fill="#009af9" fill-rule="evenodd" fill-opacity="1" stroke="#000000" stroke-opacity="1" stroke-width="2.688"/>
<circle clip-path="url(#clip632)" cx="389.421" cy="222.742" r="14.4" fill="#009af9" fill-rule="evenodd" fill-opacity="1" stroke="#000000" stroke-opacity="1" stroke-width="2.688"/>
<circle clip-path="url(#clip632)" cx="427.094" cy="189.847" r="14.4" fill="#009af9" fill-rule="evenodd" fill-opacity="1" stroke="#000000" stroke-opacity="1" stroke-width="2.688"/>
<circle clip-path="url(#clip632)" cx="464.768" cy="166.926" r="14.4" fill="#009af9" fill-rule="evenodd" fill-opacity="1" stroke="#000000" stroke-opacity="1" stroke-width="2.688"/>
<circle clip-path="url(#clip632)" cx="502.441" cy="150.345" r="14.4" fill="#009af9" fill-rule="evenodd" fill-opacity="1" stroke="#000000" stroke-opacity="1" stroke-width="2.688"/>
<circle clip-path="url(#clip632)" cx="540.114" cy="137.977" r="14.4" fill="#009af9" fill-rule="evenodd" fill-opacity="1" stroke="#000000" stroke-opacity="1" stroke-width="2.688"/>
<circle clip-path="url(#clip632)" cx="577.788" cy="128.512" r="14.4" fill="#009af9" fill-rule="evenodd" fill-opacity="1" stroke="#000000" stroke-opacity="1" stroke-width="2.688"/>
<circle clip-path="url(#clip632)" cx="615.461" cy="121.112" r="14.4" fill="#009af9" fill-rule="evenodd" fill-opacity="1" stroke="#000000" stroke-opacity="1" stroke-width="2.688"/>
<circle clip-path="url(#clip632)" cx="653.135" cy="115.218" r="14.4" fill="#009af9" fill-rule="evenodd" fill-opacity="1" stroke="#000000" stroke-opacity="1" stroke-width="2.688"/>
<circle clip-path="url(#clip632)" cx="690.808" cy="110.45" r="14.4" fill="#009af9" fill-rule="evenodd" fill-opacity="1" stroke="#000000" stroke-opacity="1" stroke-width="2.688"/>
<circle clip-path="url(#clip632)" cx="728.481" cy="106.538" r="14.4" fill="#009af9" fill-rule="evenodd" fill-opacity="1" stroke="#000000" stroke-opacity="1" stroke-width="2.688"/>
<circle clip-path="url(#clip632)" cx="766.155" cy="103.29" r="14.4" fill="#009af9" fill-rule="evenodd" fill-opacity="1" stroke="#000000" stroke-opacity="1" stroke-width="2.688"/>
<circle clip-path="url(#clip632)" cx="803.828" cy="100.563" r="14.4" fill="#009af9" fill-rule="evenodd" fill-opacity="1" stroke="#000000" stroke-opacity="1" stroke-width="2.688"/>
<circle clip-path="url(#clip632)" cx="841.501" cy="98.2525" r="14.4" fill="#009af9" fill-rule="evenodd" fill-opacity="1" stroke="#000000" stroke-opacity="1" stroke-width="2.688"/>
<circle clip-path="url(#clip632)" cx="879.175" cy="96.2774" r="14.4" fill="#009af9" fill-rule="evenodd" fill-opacity="1" stroke="#000000" stroke-opacity="1" stroke-width="2.688"/>
<circle clip-path="url(#clip632)" cx="916.848" cy="94.576" r="14.4" fill="#009af9" fill-rule="evenodd" fill-opacity="1" stroke="#000000" stroke-opacity="1" stroke-width="2.688"/>
<circle clip-path="url(#clip632)" cx="954.522" cy="93.1" r="14.4" fill="#009af9" fill-rule="evenodd" fill-opacity="1" stroke="#000000" stroke-opacity="1" stroke-width="2.688"/>
<circle clip-path="url(#clip632)" cx="992.195" cy="91.8113" r="14.4" fill="#009af9" fill-rule="evenodd" fill-opacity="1" stroke="#000000" stroke-opacity="1" stroke-width="2.688"/>
<circle clip-path="url(#clip632)" cx="1029.87" cy="90.6796" r="14.4" fill="#009af9" fill-rule="evenodd" fill-opacity="1" stroke="#000000" stroke-opacity="1" stroke-width="2.688"/>
<circle clip-path="url(#clip632)" cx="1067.54" cy="89.6804" r="14.4" fill="#009af9" fill-rule="evenodd" fill-opacity="1" stroke="#000000" stroke-opacity="1" stroke-width="2.688"/>
<circle clip-path="url(#clip632)" cx="1105.22" cy="88.7939" r="14.4" fill="#009af9" fill-rule="evenodd" fill-opacity="1" stroke="#000000" stroke-opacity="1" stroke-width="2.688"/>
<circle clip-path="url(#clip632)" cx="1142.89" cy="88.0036" r="14.4" fill="#009af9" fill-rule="evenodd" fill-opacity="1" stroke="#000000" stroke-opacity="1" stroke-width="2.688"/>
<circle clip-path="url(#clip632)" cx="1180.56" cy="87.2962" r="14.4" fill="#009af9" fill-rule="evenodd" fill-opacity="1" stroke="#000000" stroke-opacity="1" stroke-width="2.688"/>
<circle clip-path="url(#clip632)" cx="1218.24" cy="86.6605" r="14.4" fill="#009af9" fill-rule="evenodd" fill-opacity="1" stroke="#000000" stroke-opacity="1" stroke-width="2.688"/>
<circle clip-path="url(#clip632)" cx="1255.91" cy="86.0871" r="14.4" fill="#009af9" fill-rule="evenodd" fill-opacity="1" stroke="#000000" stroke-opacity="1" stroke-width="2.688"/>
<circle clip-path="url(#clip632)" cx="1293.58" cy="85.5681" r="14.4" fill="#009af9" fill-rule="evenodd" fill-opacity="1" stroke="#000000" stroke-opacity="1" stroke-width="2.688"/>
<circle clip-path="url(#clip632)" cx="1331.26" cy="85.0969" r="14.4" fill="#009af9" fill-rule="evenodd" fill-opacity="1" stroke="#000000" stroke-opacity="1" stroke-width="2.688"/>
<circle clip-path="url(#clip632)" cx="1368.93" cy="84.6678" r="14.4" fill="#009af9" fill-rule="evenodd" fill-opacity="1" stroke="#000000" stroke-opacity="1" stroke-width="2.688"/>
<circle clip-path="url(#clip632)" cx="1406.6" cy="84.2759" r="14.4" fill="#009af9" fill-rule="evenodd" fill-opacity="1" stroke="#000000" stroke-opacity="1" stroke-width="2.688"/>
<circle clip-path="url(#clip632)" cx="1444.28" cy="83.917" r="14.4" fill="#009af9" fill-rule="evenodd" fill-opacity="1" stroke="#000000" stroke-opacity="1" stroke-width="2.688"/>
<circle clip-path="url(#clip632)" cx="1481.95" cy="83.5876" r="14.4" fill="#009af9" fill-rule="evenodd" fill-opacity="1" stroke="#000000" stroke-opacity="1" stroke-width="2.688"/>
<circle clip-path="url(#clip632)" cx="1519.62" cy="83.2844" r="14.4" fill="#009af9" fill-rule="evenodd" fill-opacity="1" stroke="#000000" stroke-opacity="1" stroke-width="2.688"/>
<circle clip-path="url(#clip632)" cx="1557.3" cy="83.0049" r="14.4" fill="#009af9" fill-rule="evenodd" fill-opacity="1" stroke="#000000" stroke-opacity="1" stroke-width="2.688"/>
<circle clip-path="url(#clip632)" cx="1594.97" cy="82.7465" r="14.4" fill="#009af9" fill-rule="evenodd" fill-opacity="1" stroke="#000000" stroke-opacity="1" stroke-width="2.688"/>
<circle clip-path="url(#clip632)" cx="1632.64" cy="82.5072" r="14.4" fill="#009af9" fill-rule="evenodd" fill-opacity="1" stroke="#000000" stroke-opacity="1" stroke-width="2.688"/>
<circle clip-path="url(#clip632)" cx="1670.32" cy="82.2852" r="14.4" fill="#009af9" fill-rule="evenodd" fill-opacity="1" stroke="#000000" stroke-opacity="1" stroke-width="2.688"/>
<circle clip-path="url(#clip632)" cx="1707.99" cy="82.0788" r="14.4" fill="#009af9" fill-rule="evenodd" fill-opacity="1" stroke="#000000" stroke-opacity="1" stroke-width="2.688"/>
<circle clip-path="url(#clip632)" cx="1745.66" cy="81.8867" r="14.4" fill="#009af9" fill-rule="evenodd" fill-opacity="1" stroke="#000000" stroke-opacity="1" stroke-width="2.688"/>
<circle clip-path="url(#clip632)" cx="1783.34" cy="81.7074" r="14.4" fill="#009af9" fill-rule="evenodd" fill-opacity="1" stroke="#000000" stroke-opacity="1" stroke-width="2.688"/>
<circle clip-path="url(#clip632)" cx="1821.01" cy="81.54" r="14.4" fill="#009af9" fill-rule="evenodd" fill-opacity="1" stroke="#000000" stroke-opacity="1" stroke-width="2.688"/>
<circle clip-path="url(#clip632)" cx="1858.68" cy="81.3834" r="14.4" fill="#009af9" fill-rule="evenodd" fill-opacity="1" stroke="#000000" stroke-opacity="1" stroke-width="2.688"/>
<circle clip-path="url(#clip632)" cx="1896.36" cy="81.2366" r="14.4" fill="#009af9" fill-rule="evenodd" fill-opacity="1" stroke="#000000" stroke-opacity="1" stroke-width="2.688"/>
<circle clip-path="url(#clip632)" cx="1934.03" cy="81.0989" r="14.4" fill="#009af9" fill-rule="evenodd" fill-opacity="1" stroke="#000000" stroke-opacity="1" stroke-width="2.688"/>
<circle clip-path="url(#clip632)" cx="1971.7" cy="80.9696" r="14.4" fill="#009af9" fill-rule="evenodd" fill-opacity="1" stroke="#000000" stroke-opacity="1" stroke-width="2.688"/>
<circle clip-path="url(#clip632)" cx="2009.38" cy="80.8479" r="14.4" fill="#009af9" fill-rule="evenodd" fill-opacity="1" stroke="#000000" stroke-opacity="1" stroke-width="2.688"/>
</svg>
