<?xml version="1.0" encoding="utf-8"?>
<svg xmlns="http://www.w3.org/2000/svg" xmlns:xlink="http://www.w3.org/1999/xlink" width="528" height="336" viewBox="0 0 2112 1344">
<defs>
  <clipPath id="clip620">
    <rect x="0" y="0" width="2112" height="1344"/>
  </clipPath>
</defs>
<path clip-path="url(#clip620)" d="M0 1344 L2112 1344 L2112 0 L0 0  Z" fill="#ffffff" fill-rule="evenodd" fill-opacity="1"/>
<defs>
  <clipPath id="clip621">
    <rect x="422" y="0" width="1479" height="1344"/>
  </clipPath>
</defs>
<defs>
  <clipPath id="clip622">
    <rect x="221" y="47" width="1845" height="1188"/>
  </clipPath>
</defs>
<path clip-path="url(#clip620)" d="M183.047 1234.58 L2064.76 1234.58 L2064.76 47.2441 L183.047 47.2441  Z" fill="#ffffff" fill-rule="evenodd" fill-opacity="1"/>
<defs>
  <clipPath id="clip623">
    <rect x="183" y="47" width="1883" height="1188"/>
  </clipPath>
</defs>
<polyline clip-path="url(#clip623)" style="stroke:#000000; stroke-linecap:round; stroke-linejoin:round; stroke-width:2; stroke-opacity:0.1; fill:none" points="236.303,1234.58 236.303,47.2441 "/>
<polyline clip-path="url(#clip623)" style="stroke:#000000; stroke-linecap:round; stroke-linejoin:round; stroke-width:2; stroke-opacity:0.1; fill:none" points="630.791,1234.58 630.791,47.2441 "/>
<polyline clip-path="url(#clip623)" style="stroke:#000000; stroke-linecap:round; stroke-linejoin:round; stroke-width:2; stroke-opacity:0.1; fill:none" points="1025.28,1234.58 1025.28,47.2441 "/>
<polyline clip-path="url(#clip623)" style="stroke:#000000; stroke-linecap:round; stroke-linejoin:round; stroke-width:2; stroke-opacity:0.1; fill:none" points="1419.77,1234.58 1419.77,47.2441 "/>
<polyline clip-path="url(#clip623)" style="stroke:#000000; stroke-linecap:round; stroke-linejoin:round; stroke-width:2; stroke-opacity:0.1; fill:none" points="1814.26,1234.58 1814.26,47.2441 "/>
<polyline clip-path="url(#clip620)" style="stroke:#000000; stroke-linecap:round; stroke-linejoin:round; stroke-width:4; stroke-opacity:1; fill:none" points="183.047,1234.58 2064.76,1234.58 "/>
<polyline clip-path="url(#clip620)" style="stroke:#000000; stroke-linecap:round; stroke-linejoin:round; stroke-width:4; stroke-opacity:1; fill:none" points="236.303,1234.58 236.303,1215.68 "/>
<polyline clip-path="url(#clip620)" style="stroke:#000000; stroke-linecap:round; stroke-linejoin:round; stroke-width:4; stroke-opacity:1; fill:none" points="630.791,1234.58 630.791,1215.68 "/>
<polyline clip-path="url(#clip620)" style="stroke:#000000; stroke-linecap:round; stroke-linejoin:round; stroke-width:4; stroke-opacity:1; fill:none" points="1025.28,1234.58 1025.28,1215.68 "/>
<polyline clip-path="url(#clip620)" style="stroke:#000000; stroke-linecap:round; stroke-linejoin:round; stroke-width:4; stroke-opacity:1; fill:none" points="1419.77,1234.58 1419.77,1215.68 "/>
<polyline clip-path="url(#clip620)" style="stroke:#000000; stroke-linecap:round; stroke-linejoin:round; stroke-width:4; stroke-opacity:1; fill:none" points="1814.26,1234.58 1814.26,1215.68 "/>
<path clip-path="url(#clip620)" d="M236.303 1263.19 Q232.692 1263.19 230.863 1266.76 Q229.057 1270.3 229.057 1277.43 Q229.057 1284.54 230.863 1288.1 Q232.692 1291.64 236.303 1291.64 Q239.937 1291.64 241.742 1288.1 Q243.571 1284.54 243.571 1277.43 Q243.571 1270.3 241.742 1266.76 Q239.937 1263.19 236.303 1263.19 M236.303 1259.49 Q242.113 1259.49 245.168 1264.1 Q248.247 1268.68 248.247 1277.43 Q248.247 1286.16 245.168 1290.76 Q242.113 1295.35 236.303 1295.35 Q230.493 1295.35 227.414 1290.76 Q224.358 1286.16 224.358 1277.43 Q224.358 1268.68 227.414 1264.1 Q230.493 1259.49 236.303 1259.49 Z" fill="#000000" fill-rule="nonzero" fill-opacity="1" /><path clip-path="url(#clip620)" d="M625.444 1290.74 L641.763 1290.74 L641.763 1294.67 L619.819 1294.67 L619.819 1290.74 Q622.481 1287.99 627.064 1283.36 Q631.671 1278.7 632.851 1277.36 Q635.097 1274.84 635.976 1273.1 Q636.879 1271.34 636.879 1269.65 Q636.879 1266.9 634.934 1265.16 Q633.013 1263.42 629.911 1263.42 Q627.712 1263.42 625.259 1264.19 Q622.828 1264.95 620.05 1266.5 L620.05 1261.78 Q622.874 1260.65 625.328 1260.07 Q627.782 1259.49 629.819 1259.49 Q635.189 1259.49 638.384 1262.17 Q641.578 1264.86 641.578 1269.35 Q641.578 1271.48 640.768 1273.4 Q639.981 1275.3 637.874 1277.89 Q637.296 1278.56 634.194 1281.78 Q631.092 1284.98 625.444 1290.74 Z" fill="#000000" fill-rule="nonzero" fill-opacity="1" /><path clip-path="url(#clip620)" d="M1028.29 1264.19 L1016.48 1282.64 L1028.29 1282.64 L1028.29 1264.19 M1027.06 1260.11 L1032.94 1260.11 L1032.94 1282.64 L1037.87 1282.64 L1037.87 1286.53 L1032.94 1286.53 L1032.94 1294.67 L1028.29 1294.67 L1028.29 1286.53 L1012.69 1286.53 L1012.69 1282.01 L1027.06 1260.11 Z" fill="#000000" fill-rule="nonzero" fill-opacity="1" /><path clip-path="url(#clip620)" d="M1420.17 1275.53 Q1417.02 1275.53 1415.17 1277.68 Q1413.34 1279.84 1413.34 1283.59 Q1413.34 1287.31 1415.17 1289.49 Q1417.02 1291.64 1420.17 1291.64 Q1423.32 1291.64 1425.15 1289.49 Q1427 1287.31 1427 1283.59 Q1427 1279.84 1425.15 1277.68 Q1423.32 1275.53 1420.17 1275.53 M1429.46 1260.88 L1429.46 1265.14 Q1427.7 1264.3 1425.89 1263.86 Q1424.11 1263.42 1422.35 1263.42 Q1417.72 1263.42 1415.27 1266.55 Q1412.83 1269.67 1412.49 1275.99 Q1413.85 1273.98 1415.91 1272.92 Q1417.97 1271.83 1420.45 1271.83 Q1425.66 1271.83 1428.67 1275 Q1431.7 1278.15 1431.7 1283.59 Q1431.7 1288.91 1428.55 1292.13 Q1425.4 1295.35 1420.17 1295.35 Q1414.18 1295.35 1411.01 1290.76 Q1407.83 1286.16 1407.83 1277.43 Q1407.83 1269.24 1411.72 1264.37 Q1415.61 1259.49 1422.16 1259.49 Q1423.92 1259.49 1425.71 1259.84 Q1427.51 1260.18 1429.46 1260.88 Z" fill="#000000" fill-rule="nonzero" fill-opacity="1" /><path clip-path="url(#clip620)" d="M1814.26 1278.26 Q1810.92 1278.26 1809 1280.05 Q1807.1 1281.83 1807.1 1284.95 Q1807.1 1288.08 1809 1289.86 Q1810.92 1291.64 1814.26 1291.64 Q1817.59 1291.64 1819.51 1289.86 Q1821.43 1288.05 1821.43 1284.95 Q1821.43 1281.83 1819.51 1280.05 Q1817.61 1278.26 1814.26 1278.26 M1809.58 1276.27 Q1806.57 1275.53 1804.88 1273.47 Q1803.21 1271.41 1803.21 1268.45 Q1803.21 1264.3 1806.15 1261.9 Q1809.12 1259.49 1814.26 1259.49 Q1819.42 1259.49 1822.36 1261.9 Q1825.3 1264.3 1825.3 1268.45 Q1825.3 1271.41 1823.61 1273.47 Q1821.94 1275.53 1818.95 1276.27 Q1822.33 1277.06 1824.21 1279.35 Q1826.11 1281.64 1826.11 1284.95 Q1826.11 1289.98 1823.03 1292.66 Q1819.97 1295.35 1814.26 1295.35 Q1808.54 1295.35 1805.46 1292.66 Q1802.4 1289.98 1802.4 1284.95 Q1802.4 1281.64 1804.3 1279.35 Q1806.2 1277.06 1809.58 1276.27 M1807.87 1268.89 Q1807.87 1271.57 1809.53 1273.08 Q1811.22 1274.58 1814.26 1274.58 Q1817.27 1274.58 1818.95 1273.08 Q1820.67 1271.57 1820.67 1268.89 Q1820.67 1266.2 1818.95 1264.7 Q1817.27 1263.19 1814.26 1263.19 Q1811.22 1263.19 1809.53 1264.7 Q1807.87 1266.2 1807.87 1268.89 Z" fill="#000000" fill-rule="nonzero" fill-opacity="1" /><polyline clip-path="url(#clip623)" style="stroke:#000000; stroke-linecap:round; stroke-linejoin:round; stroke-width:2; stroke-opacity:0.1; fill:none" points="183.047,1200.97 2064.76,1200.97 "/>
<polyline clip-path="url(#clip623)" style="stroke:#000000; stroke-linecap:round; stroke-linejoin:round; stroke-width:2; stroke-opacity:0.1; fill:none" points="183.047,920.395 2064.76,920.395 "/>
<polyline clip-path="url(#clip623)" style="stroke:#000000; stroke-linecap:round; stroke-linejoin:round; stroke-width:2; stroke-opacity:0.1; fill:none" points="183.047,639.815 2064.76,639.815 "/>
<polyline clip-path="url(#clip623)" style="stroke:#000000; stroke-linecap:round; stroke-linejoin:round; stroke-width:2; stroke-opacity:0.1; fill:none" points="183.047,359.236 2064.76,359.236 "/>
<polyline clip-path="url(#clip623)" style="stroke:#000000; stroke-linecap:round; stroke-linejoin:round; stroke-width:2; stroke-opacity:0.1; fill:none" points="183.047,78.6559 2064.76,78.6559 "/>
<polyline clip-path="url(#clip620)" style="stroke:#000000; stroke-linecap:round; stroke-linejoin:round; stroke-width:4; stroke-opacity:1; fill:none" points="183.047,1234.58 183.047,47.2441 "/>
<polyline clip-path="url(#clip620)" style="stroke:#000000; stroke-linecap:round; stroke-linejoin:round; stroke-width:4; stroke-opacity:1; fill:none" points="183.047,1200.97 201.944,1200.97 "/>
<polyline clip-path="url(#clip620)" style="stroke:#000000; stroke-linecap:round; stroke-linejoin:round; stroke-width:4; stroke-opacity:1; fill:none" points="183.047,920.395 201.944,920.395 "/>
<polyline clip-path="url(#clip620)" style="stroke:#000000; stroke-linecap:round; stroke-linejoin:round; stroke-width:4; stroke-opacity:1; fill:none" points="183.047,639.815 201.944,639.815 "/>
<polyline clip-path="url(#clip620)" style="stroke:#000000; stroke-linecap:round; stroke-linejoin:round; stroke-width:4; stroke-opacity:1; fill:none" points="183.047,359.236 201.944,359.236 "/>
<polyline clip-path="url(#clip620)" style="stroke:#000000; stroke-linecap:round; stroke-linejoin:round; stroke-width:4; stroke-opacity:1; fill:none" points="183.047,78.6559 201.944,78.6559 "/>
<path clip-path="url(#clip620)" d="M54.8395 1214.32 L62.4784 1214.32 L62.4784 1187.95 L54.1682 1189.62 L54.1682 1185.36 L62.4321 1183.69 L67.108 1183.69 L67.108 1214.32 L74.7468 1214.32 L74.7468 1218.25 L54.8395 1218.25 L54.8395 1214.32 Z" fill="#000000" fill-rule="nonzero" fill-opacity="1" /><path clip-path="url(#clip620)" d="M84.1912 1212.38 L89.0754 1212.38 L89.0754 1218.25 L84.1912 1218.25 L84.1912 1212.38 Z" fill="#000000" fill-rule="nonzero" fill-opacity="1" /><path clip-path="url(#clip620)" d="M109.261 1186.77 Q105.649 1186.77 103.821 1190.34 Q102.015 1193.88 102.015 1201.01 Q102.015 1208.12 103.821 1211.68 Q105.649 1215.22 109.261 1215.22 Q112.895 1215.22 114.7 1211.68 Q116.529 1208.12 116.529 1201.01 Q116.529 1193.88 114.7 1190.34 Q112.895 1186.77 109.261 1186.77 M109.261 1183.07 Q115.071 1183.07 118.126 1187.68 Q121.205 1192.26 121.205 1201.01 Q121.205 1209.74 118.126 1214.34 Q115.071 1218.93 109.261 1218.93 Q103.45 1218.93 100.372 1214.34 Q97.3161 1209.74 97.3161 1201.01 Q97.3161 1192.26 100.372 1187.68 Q103.45 1183.07 109.261 1183.07 Z" fill="#000000" fill-rule="nonzero" fill-opacity="1" /><path clip-path="url(#clip620)" d="M139.422 1186.77 Q135.811 1186.77 133.983 1190.34 Q132.177 1193.88 132.177 1201.01 Q132.177 1208.12 133.983 1211.68 Q135.811 1215.22 139.422 1215.22 Q143.057 1215.22 144.862 1211.68 Q146.691 1208.12 146.691 1201.01 Q146.691 1193.88 144.862 1190.34 Q143.057 1186.77 139.422 1186.77 M139.422 1183.07 Q145.233 1183.07 148.288 1187.68 Q151.367 1192.26 151.367 1201.01 Q151.367 1209.74 148.288 1214.34 Q145.233 1218.93 139.422 1218.93 Q133.612 1218.93 130.534 1214.34 Q127.478 1209.74 127.478 1201.01 Q127.478 1192.26 130.534 1187.68 Q133.612 1183.07 139.422 1183.07 Z" fill="#000000" fill-rule="nonzero" fill-opacity="1" /><path clip-path="url(#clip620)" d="M55.8349 933.74 L63.4737 933.74 L63.4737 907.374 L55.1636 909.041 L55.1636 904.782 L63.4274 903.115 L68.1033 903.115 L68.1033 933.74 L75.7422 933.74 L75.7422 937.675 L55.8349 937.675 L55.8349 933.74 Z" fill="#000000" fill-rule="nonzero" fill-opacity="1" /><path clip-path="url(#clip620)" d="M85.1866 931.796 L90.0708 931.796 L90.0708 937.675 L85.1866 937.675 L85.1866 931.796 Z" fill="#000000" fill-rule="nonzero" fill-opacity="1" /><path clip-path="url(#clip620)" d="M104.284 933.74 L120.603 933.74 L120.603 937.675 L98.6587 937.675 L98.6587 933.74 Q101.321 930.985 105.904 926.356 Q110.511 921.703 111.691 920.36 Q113.936 917.837 114.816 916.101 Q115.719 914.342 115.719 912.652 Q115.719 909.898 113.774 908.161 Q111.853 906.425 108.751 906.425 Q106.552 906.425 104.099 907.189 Q101.668 907.953 98.8902 909.504 L98.8902 904.782 Q101.714 903.648 104.168 903.069 Q106.622 902.49 108.659 902.49 Q114.029 902.49 117.223 905.175 Q120.418 907.861 120.418 912.351 Q120.418 914.481 119.608 916.402 Q118.821 918.3 116.714 920.893 Q116.135 921.564 113.034 924.782 Q109.932 927.976 104.284 933.74 Z" fill="#000000" fill-rule="nonzero" fill-opacity="1" /><path clip-path="url(#clip620)" d="M130.464 903.115 L148.82 903.115 L148.82 907.05 L134.746 907.05 L134.746 915.523 Q135.765 915.175 136.784 915.013 Q137.802 914.828 138.821 914.828 Q144.608 914.828 147.987 917.999 Q151.367 921.171 151.367 926.587 Q151.367 932.166 147.895 935.268 Q144.422 938.346 138.103 938.346 Q135.927 938.346 133.659 937.976 Q131.413 937.606 129.006 936.865 L129.006 932.166 Q131.089 933.3 133.311 933.856 Q135.534 934.411 138.01 934.411 Q142.015 934.411 144.353 932.305 Q146.691 930.198 146.691 926.587 Q146.691 922.976 144.353 920.87 Q142.015 918.763 138.01 918.763 Q136.135 918.763 134.26 919.18 Q132.409 919.597 130.464 920.476 L130.464 903.115 Z" fill="#000000" fill-rule="nonzero" fill-opacity="1" /><path clip-path="url(#clip620)" d="M54.8395 653.16 L62.4784 653.16 L62.4784 626.795 L54.1682 628.461 L54.1682 624.202 L62.4321 622.535 L67.108 622.535 L67.108 653.16 L74.7468 653.16 L74.7468 657.095 L54.8395 657.095 L54.8395 653.16 Z" fill="#000000" fill-rule="nonzero" fill-opacity="1" /><path clip-path="url(#clip620)" d="M84.1912 651.216 L89.0754 651.216 L89.0754 657.095 L84.1912 657.095 L84.1912 651.216 Z" fill="#000000" fill-rule="nonzero" fill-opacity="1" /><path clip-path="url(#clip620)" d="M99.3069 622.535 L117.663 622.535 L117.663 626.471 L103.589 626.471 L103.589 634.943 Q104.608 634.596 105.626 634.434 Q106.645 634.248 107.663 634.248 Q113.45 634.248 116.83 637.42 Q120.21 640.591 120.21 646.008 Q120.21 651.586 116.737 654.688 Q113.265 657.767 106.946 657.767 Q104.77 657.767 102.501 657.396 Q100.256 657.026 97.8485 656.285 L97.8485 651.586 Q99.9319 652.72 102.154 653.276 Q104.376 653.832 106.853 653.832 Q110.858 653.832 113.196 651.725 Q115.534 649.619 115.534 646.008 Q115.534 642.396 113.196 640.29 Q110.858 638.183 106.853 638.183 Q104.978 638.183 103.103 638.6 Q101.251 639.017 99.3069 639.896 L99.3069 622.535 Z" fill="#000000" fill-rule="nonzero" fill-opacity="1" /><path clip-path="url(#clip620)" d="M139.422 625.614 Q135.811 625.614 133.983 629.179 Q132.177 632.721 132.177 639.85 Q132.177 646.957 133.983 650.521 Q135.811 654.063 139.422 654.063 Q143.057 654.063 144.862 650.521 Q146.691 646.957 146.691 639.85 Q146.691 632.721 144.862 629.179 Q143.057 625.614 139.422 625.614 M139.422 621.91 Q145.233 621.91 148.288 626.517 Q151.367 631.1 151.367 639.85 Q151.367 648.577 148.288 653.183 Q145.233 657.767 139.422 657.767 Q133.612 657.767 130.534 653.183 Q127.478 648.577 127.478 639.85 Q127.478 631.1 130.534 626.517 Q133.612 621.91 139.422 621.91 Z" fill="#000000" fill-rule="nonzero" fill-opacity="1" /><path clip-path="url(#clip620)" d="M55.8349 372.58 L63.4737 372.58 L63.4737 346.215 L55.1636 347.882 L55.1636 343.622 L63.4274 341.956 L68.1033 341.956 L68.1033 372.58 L75.7422 372.58 L75.7422 376.516 L55.8349 376.516 L55.8349 372.58 Z" fill="#000000" fill-rule="nonzero" fill-opacity="1" /><path clip-path="url(#clip620)" d="M85.1866 370.636 L90.0708 370.636 L90.0708 376.516 L85.1866 376.516 L85.1866 370.636 Z" fill="#000000" fill-rule="nonzero" fill-opacity="1" /><path clip-path="url(#clip620)" d="M99.0754 341.956 L121.297 341.956 L121.297 343.946 L108.751 376.516 L103.867 376.516 L115.673 345.891 L99.0754 345.891 L99.0754 341.956 Z" fill="#000000" fill-rule="nonzero" fill-opacity="1" /><path clip-path="url(#clip620)" d="M130.464 341.956 L148.82 341.956 L148.82 345.891 L134.746 345.891 L134.746 354.363 Q135.765 354.016 136.784 353.854 Q137.802 353.669 138.821 353.669 Q144.608 353.669 147.987 356.84 Q151.367 360.011 151.367 365.428 Q151.367 371.006 147.895 374.108 Q144.422 377.187 138.103 377.187 Q135.927 377.187 133.659 376.817 Q131.413 376.446 129.006 375.705 L129.006 371.006 Q131.089 372.141 133.311 372.696 Q135.534 373.252 138.01 373.252 Q142.015 373.252 144.353 371.145 Q146.691 369.039 146.691 365.428 Q146.691 361.817 144.353 359.71 Q142.015 357.604 138.01 357.604 Q136.135 357.604 134.26 358.02 Q132.409 358.437 130.464 359.317 L130.464 341.956 Z" fill="#000000" fill-rule="nonzero" fill-opacity="1" /><path clip-path="url(#clip620)" d="M58.0571 92.0007 L74.3765 92.0007 L74.3765 95.9359 L52.4321 95.9359 L52.4321 92.0007 Q55.0941 89.2461 59.6775 84.6165 Q64.2839 79.9637 65.4645 78.6212 Q67.7098 76.098 68.5894 74.3619 Q69.4922 72.6027 69.4922 70.9129 Q69.4922 68.1582 67.5478 66.4221 Q65.6265 64.686 62.5247 64.686 Q60.3256 64.686 57.8719 65.4499 Q55.4414 66.2138 52.6636 67.7647 L52.6636 63.0425 Q55.4877 61.9083 57.9414 61.3296 Q60.395 60.7509 62.4321 60.7509 Q67.8024 60.7509 70.9968 63.4361 Q74.1913 66.1212 74.1913 70.6119 Q74.1913 72.7416 73.3811 74.6628 Q72.5941 76.561 70.4876 79.1536 Q69.9089 79.8249 66.807 83.0424 Q63.7052 86.2369 58.0571 92.0007 Z" fill="#000000" fill-rule="nonzero" fill-opacity="1" /><path clip-path="url(#clip620)" d="M84.1912 90.0563 L89.0754 90.0563 L89.0754 95.9359 L84.1912 95.9359 L84.1912 90.0563 Z" fill="#000000" fill-rule="nonzero" fill-opacity="1" /><path clip-path="url(#clip620)" d="M109.261 64.4546 Q105.649 64.4546 103.821 68.0194 Q102.015 71.561 102.015 78.6906 Q102.015 85.797 103.821 89.3618 Q105.649 92.9035 109.261 92.9035 Q112.895 92.9035 114.7 89.3618 Q116.529 85.797 116.529 78.6906 Q116.529 71.561 114.7 68.0194 Q112.895 64.4546 109.261 64.4546 M109.261 60.7509 Q115.071 60.7509 118.126 65.3573 Q121.205 69.9406 121.205 78.6906 Q121.205 87.4174 118.126 92.0239 Q115.071 96.6072 109.261 96.6072 Q103.45 96.6072 100.372 92.0239 Q97.3161 87.4174 97.3161 78.6906 Q97.3161 69.9406 100.372 65.3573 Q103.45 60.7509 109.261 60.7509 Z" fill="#000000" fill-rule="nonzero" fill-opacity="1" /><path clip-path="url(#clip620)" d="M139.422 64.4546 Q135.811 64.4546 133.983 68.0194 Q132.177 71.561 132.177 78.6906 Q132.177 85.797 133.983 89.3618 Q135.811 92.9035 139.422 92.9035 Q143.057 92.9035 144.862 89.3618 Q146.691 85.797 146.691 78.6906 Q146.691 71.561 144.862 68.0194 Q143.057 64.4546 139.422 64.4546 M139.422 60.7509 Q145.233 60.7509 148.288 65.3573 Q151.367 69.9406 151.367 78.6906 Q151.367 87.4174 148.288 92.0239 Q145.233 96.6072 139.422 96.6072 Q133.612 96.6072 130.534 92.0239 Q127.478 87.4174 127.478 78.6906 Q127.478 69.9406 130.534 65.3573 Q133.612 60.7509 139.422 60.7509 Z" fill="#000000" fill-rule="nonzero" fill-opacity="1" /><circle clip-path="url(#clip623)" cx="236.303" cy="1200.97" r="14.4" fill="#009af9" fill-rule="evenodd" fill-opacity="1" stroke="#000000" stroke-opacity="1" stroke-width="2.688"/>
<circle clip-path="url(#clip623)" cx="433.547" cy="639.815" r="14.4" fill="#009af9" fill-rule="evenodd" fill-opacity="1" stroke="#000000" stroke-opacity="1" stroke-width="2.688"/>
<circle clip-path="url(#clip623)" cx="630.791" cy="359.236" r="14.4" fill="#009af9" fill-rule="evenodd" fill-opacity="1" stroke="#000000" stroke-opacity="1" stroke-width="2.688"/>
<circle clip-path="url(#clip623)" cx="828.035" cy="218.946" r="14.4" fill="#009af9" fill-rule="evenodd" fill-opacity="1" stroke="#000000" stroke-opacity="1" stroke-width="2.688"/>
<circle clip-path="url(#clip623)" cx="1025.28" cy="148.801" r="14.4" fill="#009af9" fill-rule="evenodd" fill-opacity="1" stroke="#000000" stroke-opacity="1" stroke-width="2.688"/>
<circle clip-path="url(#clip623)" cx="1222.52" cy="113.728" r="14.4" fill="#009af9" fill-rule="evenodd" fill-opacity="1" stroke="#000000" stroke-opacity="1" stroke-width="2.688"/>
<circle clip-path="url(#clip623)" cx="1419.77" cy="96.1921" r="14.4" fill="#009af9" fill-rule="evenodd" fill-opacity="1" stroke="#000000" stroke-opacity="1" stroke-width="2.688"/>
<circle clip-path="url(#clip623)" cx="1617.01" cy="87.424" r="14.4" fill="#009af9" fill-rule="evenodd" fill-opacity="1" stroke="#000000" stroke-opacity="1" stroke-width="2.688"/>
<circle clip-path="url(#clip623)" cx="1814.26" cy="83.0399" r="14.4" fill="#009af9" fill-rule="evenodd" fill-opacity="1" stroke="#000000" stroke-opacity="1" stroke-width="2.688"/>
<circle clip-path="url(#clip623)" cx="2011.5" cy="80.8479" r="14.4" fill="#009af9" fill-rule="evenodd" fill-opacity="1" stroke="#000000" stroke-opacity="1" stroke-width="2.688"/>
<path clip-path="url(#clip620)" d="M245.77 203.161 L640.113 203.161 L640.113 86.8219 L245.77 86.8219  Z" fill="#ffffff" fill-rule="evenodd" fill-opacity="1"/>
<polyline clip-path="url(#clip620)" style="stroke:#000000; stroke-linecap:round; stroke-linejoin:round; stroke-width:4; stroke-opacity:1; fill:none" points="245.77,203.161 640.113,203.161 640.113,86.8219 245.77,86.8219 245.77,203.161 "/>
<circle clip-path="url(#clip620)" cx="329.402" cy="144.992" r="20.48" fill="#009af9" fill-rule="evenodd" fill-opacity="1" stroke="#000000" stroke-opacity="1" stroke-width="3.82293"/>
<path clip-path="url(#clip620)" d="M458.262 162.243 L454.14 174.189 L414.369 174.189 Q413.83 174.189 413.619 174.165 Q413.408 174.142 413.244 174.025 Q413.08 173.908 413.08 173.65 Q413.08 173.439 413.502 172.901 L430.53 151.844 L413.033 127.766 Q413.033 126.665 413.221 126.454 Q413.408 126.22 414.369 126.22 L454.14 126.22 L458.262 137.439 L457.068 137.439 Q456.529 135.987 455.662 134.769 Q454.819 133.528 453.835 132.637 Q452.875 131.747 451.61 131.045 Q450.369 130.319 449.198 129.874 Q448.05 129.405 446.621 129.077 Q445.192 128.726 444.045 128.562 Q442.92 128.375 441.515 128.281 Q440.11 128.187 439.22 128.164 Q438.33 128.14 437.205 128.14 L418.21 128.14 L433.786 149.525 Q434.137 150.064 434.137 150.204 Q434.137 150.415 433.692 150.977 L417.062 171.542 L437.44 171.542 Q443.998 171.542 448.565 170.16 Q451.657 169.106 453.906 167.022 Q456.178 164.937 457.068 162.243 L458.262 162.243 Z" fill="#000000" fill-rule="nonzero" fill-opacity="1" /><path clip-path="url(#clip620)" d="M491.216 150.204 Q491.216 142.1 494.238 135.565 Q495.526 132.825 497.329 130.529 Q499.133 128.234 500.327 127.227 Q501.522 126.22 501.85 126.22 Q502.318 126.22 502.342 126.688 Q502.342 126.922 501.709 127.508 Q493.98 135.378 494.003 150.204 Q494.003 165.078 501.522 172.643 Q502.342 173.463 502.342 173.72 Q502.342 174.189 501.85 174.189 Q501.522 174.189 500.374 173.229 Q499.227 172.268 497.446 170.067 Q495.666 167.865 494.378 165.171 Q491.216 158.636 491.216 150.204 Z" fill="#000000" fill-rule="nonzero" fill-opacity="1" /><path clip-path="url(#clip620)" d="M508.674 134.816 L508.674 133.317 Q514.436 133.317 517.411 130.248 Q518.23 130.248 518.371 130.436 Q518.511 130.623 518.511 131.49 L518.511 158.402 Q518.511 159.831 519.214 160.276 Q519.917 160.721 522.985 160.721 L524.508 160.721 L524.508 162.197 Q522.821 162.056 516.731 162.056 Q510.642 162.056 508.979 162.197 L508.979 160.721 L510.501 160.721 Q513.522 160.721 514.249 160.299 Q514.975 159.854 514.975 158.402 L514.975 133.551 Q512.468 134.816 508.674 134.816 Z" fill="#000000" fill-rule="nonzero" fill-opacity="1" /><path clip-path="url(#clip620)" d="M532.427 173.51 Q532.427 173.275 532.615 172.76 L549.549 127.508 Q549.549 127.461 549.666 127.203 Q549.783 126.946 549.853 126.782 Q549.924 126.594 550.064 126.454 Q550.228 126.313 550.416 126.313 Q550.884 126.313 550.884 126.899 Q550.884 126.946 550.744 127.508 L533.762 172.807 Q533.481 173.627 533.294 173.861 Q533.13 174.095 532.849 174.095 Q532.427 174.095 532.427 173.51 Z" fill="#000000" fill-rule="nonzero" fill-opacity="1" /><path clip-path="url(#clip620)" d="M556.18 162.197 Q556.18 161.33 556.251 161.072 Q556.344 160.815 556.719 160.416 L565.924 150.157 Q570.96 144.489 570.96 139.547 Q570.96 136.338 569.273 134.043 Q567.61 131.747 564.542 131.747 Q562.434 131.747 560.654 133.036 Q558.874 134.324 558.054 136.619 Q558.195 136.572 558.686 136.572 Q559.881 136.572 560.537 137.322 Q561.216 138.071 561.216 139.079 Q561.216 140.367 560.373 140.999 Q559.553 141.608 558.733 141.608 Q558.405 141.608 557.96 141.538 Q557.539 141.468 556.86 140.812 Q556.18 140.133 556.18 138.938 Q556.18 135.589 558.71 132.919 Q561.263 130.248 565.151 130.248 Q569.555 130.248 572.435 132.872 Q575.34 135.472 575.34 139.547 Q575.34 140.976 574.895 142.288 Q574.473 143.576 573.888 144.583 Q573.326 145.59 571.78 147.206 Q570.234 148.822 568.992 149.97 Q567.751 151.118 564.964 153.554 L559.881 158.496 L568.524 158.496 Q572.74 158.496 573.068 158.121 Q573.536 157.442 574.122 153.858 L575.34 153.858 L573.981 162.197 L556.18 162.197 Z" fill="#000000" fill-rule="nonzero" fill-opacity="1" /><path clip-path="url(#clip620)" d="M579.933 173.72 Q579.933 173.486 580.542 172.901 Q588.272 165.031 588.272 150.204 Q588.272 135.331 580.847 127.812 Q579.933 126.946 579.933 126.688 Q579.933 126.22 580.402 126.22 Q580.73 126.22 581.877 127.18 Q583.049 128.14 584.805 130.342 Q586.585 132.544 587.897 135.237 Q591.059 141.772 591.059 150.204 Q591.059 158.308 588.038 164.843 Q586.749 167.584 584.946 169.879 Q583.142 172.175 581.948 173.182 Q580.753 174.189 580.402 174.189 Q579.933 174.189 579.933 173.72 Z" fill="#000000" fill-rule="nonzero" fill-opacity="1" /><path clip-path="url(#clip620)" d="M614.266 125.8 Q614.266 125.931 614.119 126.44 Q613.971 126.948 613.611 127.735 Q613.266 128.522 612.791 129.243 Q612.315 129.948 611.528 130.473 Q610.758 130.981 609.872 130.981 Q608.692 130.981 607.905 130.194 Q607.118 129.407 607.118 128.227 Q607.118 127.571 607.462 126.669 Q609.643 120.849 609.643 118.848 Q609.643 116.504 607.823 116.504 Q606.921 116.504 606.069 116.848 Q605.232 117.176 604.659 117.635 Q604.085 118.094 603.56 118.734 Q603.052 119.357 602.789 119.783 Q602.543 120.193 602.347 120.603 L601.92 122.275 Q601.822 122.734 601.347 124.521 L600.609 127.555 Q600.084 129.817 599.969 130.03 Q599.805 130.489 599.445 130.735 Q599.084 130.981 598.723 130.981 Q598.313 130.981 598.035 130.735 Q597.756 130.489 597.756 130.063 Q597.756 129.998 597.805 129.752 Q597.854 129.506 597.936 129.161 Q598.018 128.817 598.051 128.62 L600.002 120.865 Q600.363 119.455 600.445 119.012 Q600.543 118.553 600.543 118.045 Q600.543 116.504 599.494 116.504 Q598.641 116.504 598.084 117.52 Q597.526 118.537 597.051 120.504 Q596.903 121.045 596.805 121.16 Q596.723 121.275 596.477 121.275 Q596.067 121.259 596.067 120.931 Q596.067 120.849 596.198 120.308 Q596.33 119.767 596.575 118.996 Q596.838 118.209 597.084 117.684 Q597.297 117.291 597.412 117.111 Q597.543 116.914 597.854 116.537 Q598.182 116.143 598.609 115.963 Q599.051 115.766 599.592 115.766 Q600.806 115.766 601.691 116.553 Q602.576 117.324 602.691 118.685 Q604.872 115.766 607.921 115.766 Q609.725 115.766 610.758 116.717 Q611.791 117.668 611.791 119.357 Q611.791 119.75 611.709 120.258 Q611.643 120.75 611.479 121.373 Q611.332 121.996 611.2 122.472 Q611.069 122.947 610.807 123.718 Q610.545 124.472 610.43 124.8 Q610.315 125.128 610.036 125.899 Q609.774 126.653 609.741 126.735 Q609.135 128.26 609.135 129.129 Q609.135 129.702 609.315 129.965 Q609.512 130.227 609.938 130.227 Q611.086 130.227 611.938 129.096 Q612.807 127.948 613.365 126.079 Q613.496 125.669 613.561 125.571 Q613.643 125.472 613.873 125.472 Q614.266 125.472 614.266 125.8 Z" fill="#000000" fill-rule="nonzero" fill-opacity="1" /></svg>
