<?xml version="1.0" encoding="utf-8"?>
<svg xmlns="http://www.w3.org/2000/svg" xmlns:xlink="http://www.w3.org/1999/xlink" width="528" height="336" viewBox="0 0 2112 1344">
<defs>
  <clipPath id="clip950">
    <rect x="0" y="0" width="2112" height="1344"/>
  </clipPath>
</defs>
<path clip-path="url(#clip950)" d="M0 1344 L2112 1344 L2112 0 L0 0  Z" fill="#ffffff" fill-rule="evenodd" fill-opacity="1"/>
<defs>
  <clipPath id="clip951">
    <rect x="422" y="0" width="1479" height="1344"/>
  </clipPath>
</defs>
<path clip-path="url(#clip950)" d="M191.056 1234.58 L2064.76 1234.58 L2064.76 47.2441 L191.056 47.2441  Z" fill="#ffffff" fill-rule="evenodd" fill-opacity="1"/>
<defs>
  <clipPath id="clip952">
    <rect x="191" y="47" width="1875" height="1188"/>
  </clipPath>
</defs>
<polyline clip-path="url(#clip952)" style="stroke:#000000; stroke-linecap:round; stroke-linejoin:round; stroke-width:2; stroke-opacity:0.1; fill:none" points="244.085,1234.58 244.085,47.2441 "/>
<polyline clip-path="url(#clip952)" style="stroke:#000000; stroke-linecap:round; stroke-linejoin:round; stroke-width:2; stroke-opacity:0.1; fill:none" points="685.996,1234.58 685.996,47.2441 "/>
<polyline clip-path="url(#clip952)" style="stroke:#000000; stroke-linecap:round; stroke-linejoin:round; stroke-width:2; stroke-opacity:0.1; fill:none" points="1127.91,1234.58 1127.91,47.2441 "/>
<polyline clip-path="url(#clip952)" style="stroke:#000000; stroke-linecap:round; stroke-linejoin:round; stroke-width:2; stroke-opacity:0.1; fill:none" points="1569.82,1234.58 1569.82,47.2441 "/>
<polyline clip-path="url(#clip952)" style="stroke:#000000; stroke-linecap:round; stroke-linejoin:round; stroke-width:2; stroke-opacity:0.1; fill:none" points="2011.73,1234.58 2011.73,47.2441 "/>
<polyline clip-path="url(#clip950)" style="stroke:#000000; stroke-linecap:round; stroke-linejoin:round; stroke-width:4; stroke-opacity:1; fill:none" points="191.056,1234.58 2064.76,1234.58 "/>
<polyline clip-path="url(#clip950)" style="stroke:#000000; stroke-linecap:round; stroke-linejoin:round; stroke-width:4; stroke-opacity:1; fill:none" points="244.085,1234.58 244.085,1215.68 "/>
<polyline clip-path="url(#clip950)" style="stroke:#000000; stroke-linecap:round; stroke-linejoin:round; stroke-width:4; stroke-opacity:1; fill:none" points="685.996,1234.58 685.996,1215.68 "/>
<polyline clip-path="url(#clip950)" style="stroke:#000000; stroke-linecap:round; stroke-linejoin:round; stroke-width:4; stroke-opacity:1; fill:none" points="1127.91,1234.58 1127.91,1215.68 "/>
<polyline clip-path="url(#clip950)" style="stroke:#000000; stroke-linecap:round; stroke-linejoin:round; stroke-width:4; stroke-opacity:1; fill:none" points="1569.82,1234.58 1569.82,1215.68 "/>
<polyline clip-path="url(#clip950)" style="stroke:#000000; stroke-linecap:round; stroke-linejoin:round; stroke-width:4; stroke-opacity:1; fill:none" points="2011.73,1234.58 2011.73,1215.68 "/>
<path clip-path="url(#clip950)" d="M244.085 1263.19 Q240.474 1263.19 238.645 1266.76 Q236.84 1270.3 236.84 1277.43 Q236.84 1284.54 238.645 1288.1 Q240.474 1291.64 244.085 1291.64 Q247.719 1291.64 249.525 1288.1 Q251.354 1284.54 251.354 1277.43 Q251.354 1270.3 249.525 1266.76 Q247.719 1263.19 244.085 1263.19 M244.085 1259.49 Q249.895 1259.49 252.951 1264.1 Q256.03 1268.68 256.03 1277.43 Q256.03 1286.16 252.951 1290.76 Q249.895 1295.35 244.085 1295.35 Q238.275 1295.35 235.196 1290.76 Q232.141 1286.16 232.141 1277.43 Q232.141 1268.68 235.196 1264.1 Q238.275 1259.49 244.085 1259.49 Z" fill="#000000" fill-rule="nonzero" fill-opacity="1" /><path clip-path="url(#clip950)" d="M665.267 1290.74 L681.586 1290.74 L681.586 1294.67 L659.642 1294.67 L659.642 1290.74 Q662.304 1287.99 666.887 1283.36 Q671.493 1278.7 672.674 1277.36 Q674.919 1274.84 675.799 1273.1 Q676.702 1271.34 676.702 1269.65 Q676.702 1266.9 674.757 1265.16 Q672.836 1263.42 669.734 1263.42 Q667.535 1263.42 665.081 1264.19 Q662.651 1264.95 659.873 1266.5 L659.873 1261.78 Q662.697 1260.65 665.151 1260.07 Q667.604 1259.49 669.642 1259.49 Q675.012 1259.49 678.206 1262.17 Q681.401 1264.86 681.401 1269.35 Q681.401 1271.48 680.591 1273.4 Q679.803 1275.3 677.697 1277.89 Q677.118 1278.56 674.016 1281.78 Q670.915 1284.98 665.267 1290.74 Z" fill="#000000" fill-rule="nonzero" fill-opacity="1" /><path clip-path="url(#clip950)" d="M691.447 1260.11 L709.803 1260.11 L709.803 1264.05 L695.729 1264.05 L695.729 1272.52 Q696.748 1272.17 697.766 1272.01 Q698.785 1271.83 699.803 1271.83 Q705.59 1271.83 708.97 1275 Q712.35 1278.17 712.35 1283.59 Q712.35 1289.17 708.877 1292.27 Q705.405 1295.35 699.086 1295.35 Q696.91 1295.35 694.641 1294.98 Q692.396 1294.61 689.989 1293.86 L689.989 1289.17 Q692.072 1290.3 694.294 1290.86 Q696.516 1291.41 698.993 1291.41 Q702.998 1291.41 705.336 1289.3 Q707.674 1287.2 707.674 1283.59 Q707.674 1279.98 705.336 1277.87 Q702.998 1275.76 698.993 1275.76 Q697.118 1275.76 695.243 1276.18 Q693.391 1276.6 691.447 1277.48 L691.447 1260.11 Z" fill="#000000" fill-rule="nonzero" fill-opacity="1" /><path clip-path="url(#clip950)" d="M1102.61 1260.11 L1120.96 1260.11 L1120.96 1264.05 L1106.89 1264.05 L1106.89 1272.52 Q1107.91 1272.17 1108.92 1272.01 Q1109.94 1271.83 1110.96 1271.83 Q1116.75 1271.83 1120.13 1275 Q1123.51 1278.17 1123.51 1283.59 Q1123.51 1289.17 1120.04 1292.27 Q1116.56 1295.35 1110.24 1295.35 Q1108.07 1295.35 1105.8 1294.98 Q1103.55 1294.61 1101.15 1293.86 L1101.15 1289.17 Q1103.23 1290.3 1105.45 1290.86 Q1107.67 1291.41 1110.15 1291.41 Q1114.16 1291.41 1116.49 1289.3 Q1118.83 1287.2 1118.83 1283.59 Q1118.83 1279.98 1116.49 1277.87 Q1114.16 1275.76 1110.15 1275.76 Q1108.28 1275.76 1106.4 1276.18 Q1104.55 1276.6 1102.61 1277.48 L1102.61 1260.11 Z" fill="#000000" fill-rule="nonzero" fill-opacity="1" /><path clip-path="url(#clip950)" d="M1142.72 1263.19 Q1139.11 1263.19 1137.28 1266.76 Q1135.48 1270.3 1135.48 1277.43 Q1135.48 1284.54 1137.28 1288.1 Q1139.11 1291.64 1142.72 1291.64 Q1146.35 1291.64 1148.16 1288.1 Q1149.99 1284.54 1149.99 1277.43 Q1149.99 1270.3 1148.16 1266.76 Q1146.35 1263.19 1142.72 1263.19 M1142.72 1259.49 Q1148.53 1259.49 1151.59 1264.1 Q1154.67 1268.68 1154.67 1277.43 Q1154.67 1286.16 1151.59 1290.76 Q1148.53 1295.35 1142.72 1295.35 Q1136.91 1295.35 1133.83 1290.76 Q1130.78 1286.16 1130.78 1277.43 Q1130.78 1268.68 1133.83 1264.1 Q1136.91 1259.49 1142.72 1259.49 Z" fill="#000000" fill-rule="nonzero" fill-opacity="1" /><path clip-path="url(#clip950)" d="M1543.67 1260.11 L1565.89 1260.11 L1565.89 1262.11 L1553.35 1294.67 L1548.46 1294.67 L1560.27 1264.05 L1543.67 1264.05 L1543.67 1260.11 Z" fill="#000000" fill-rule="nonzero" fill-opacity="1" /><path clip-path="url(#clip950)" d="M1575.06 1260.11 L1593.42 1260.11 L1593.42 1264.05 L1579.34 1264.05 L1579.34 1272.52 Q1580.36 1272.17 1581.38 1272.01 Q1582.4 1271.83 1583.42 1271.83 Q1589.2 1271.83 1592.58 1275 Q1595.96 1278.17 1595.96 1283.59 Q1595.96 1289.17 1592.49 1292.27 Q1589.02 1295.35 1582.7 1295.35 Q1580.52 1295.35 1578.25 1294.98 Q1576.01 1294.61 1573.6 1293.86 L1573.6 1289.17 Q1575.68 1290.3 1577.91 1290.86 Q1580.13 1291.41 1582.61 1291.41 Q1586.61 1291.41 1588.95 1289.3 Q1591.29 1287.2 1591.29 1283.59 Q1591.29 1279.98 1588.95 1277.87 Q1586.61 1275.76 1582.61 1275.76 Q1580.73 1275.76 1578.86 1276.18 Q1577 1276.6 1575.06 1277.48 L1575.06 1260.11 Z" fill="#000000" fill-rule="nonzero" fill-opacity="1" /><path clip-path="url(#clip950)" d="M1971.33 1290.74 L1978.97 1290.74 L1978.97 1264.37 L1970.66 1266.04 L1970.66 1261.78 L1978.93 1260.11 L1983.6 1260.11 L1983.6 1290.74 L1991.24 1290.74 L1991.24 1294.67 L1971.33 1294.67 L1971.33 1290.74 Z" fill="#000000" fill-rule="nonzero" fill-opacity="1" /><path clip-path="url(#clip950)" d="M2010.69 1263.19 Q2007.07 1263.19 2005.25 1266.76 Q2003.44 1270.3 2003.44 1277.43 Q2003.44 1284.54 2005.25 1288.1 Q2007.07 1291.64 2010.69 1291.64 Q2014.32 1291.64 2016.12 1288.1 Q2017.95 1284.54 2017.95 1277.43 Q2017.95 1270.3 2016.12 1266.76 Q2014.32 1263.19 2010.69 1263.19 M2010.69 1259.49 Q2016.5 1259.49 2019.55 1264.1 Q2022.63 1268.68 2022.63 1277.43 Q2022.63 1286.16 2019.55 1290.76 Q2016.5 1295.35 2010.69 1295.35 Q2004.87 1295.35 2001.8 1290.76 Q1998.74 1286.16 1998.74 1277.43 Q1998.74 1268.68 2001.8 1264.1 Q2004.87 1259.49 2010.69 1259.49 Z" fill="#000000" fill-rule="nonzero" fill-opacity="1" /><path clip-path="url(#clip950)" d="M2040.85 1263.19 Q2037.24 1263.19 2035.41 1266.76 Q2033.6 1270.3 2033.6 1277.43 Q2033.6 1284.54 2035.41 1288.1 Q2037.24 1291.64 2040.85 1291.64 Q2044.48 1291.64 2046.29 1288.1 Q2048.12 1284.54 2048.12 1277.43 Q2048.12 1270.3 2046.29 1266.76 Q2044.48 1263.19 2040.85 1263.19 M2040.85 1259.49 Q2046.66 1259.49 2049.71 1264.1 Q2052.79 1268.68 2052.79 1277.43 Q2052.79 1286.16 2049.71 1290.76 Q2046.66 1295.35 2040.85 1295.35 Q2035.04 1295.35 2031.96 1290.76 Q2028.9 1286.16 2028.9 1277.43 Q2028.9 1268.68 2031.96 1264.1 Q2035.04 1259.49 2040.85 1259.49 Z" fill="#000000" fill-rule="nonzero" fill-opacity="1" /><polyline clip-path="url(#clip952)" style="stroke:#000000; stroke-linecap:round; stroke-linejoin:round; stroke-width:2; stroke-opacity:0.1; fill:none" points="191.056,1171.2 2064.76,1171.2 "/>
<polyline clip-path="url(#clip952)" style="stroke:#000000; stroke-linecap:round; stroke-linejoin:round; stroke-width:2; stroke-opacity:0.1; fill:none" points="191.056,994.44 2064.76,994.44 "/>
<polyline clip-path="url(#clip952)" style="stroke:#000000; stroke-linecap:round; stroke-linejoin:round; stroke-width:2; stroke-opacity:0.1; fill:none" points="191.056,817.675 2064.76,817.675 "/>
<polyline clip-path="url(#clip952)" style="stroke:#000000; stroke-linecap:round; stroke-linejoin:round; stroke-width:2; stroke-opacity:0.1; fill:none" points="191.056,640.911 2064.76,640.911 "/>
<polyline clip-path="url(#clip952)" style="stroke:#000000; stroke-linecap:round; stroke-linejoin:round; stroke-width:2; stroke-opacity:0.1; fill:none" points="191.056,464.147 2064.76,464.147 "/>
<polyline clip-path="url(#clip952)" style="stroke:#000000; stroke-linecap:round; stroke-linejoin:round; stroke-width:2; stroke-opacity:0.1; fill:none" points="191.056,287.383 2064.76,287.383 "/>
<polyline clip-path="url(#clip952)" style="stroke:#000000; stroke-linecap:round; stroke-linejoin:round; stroke-width:2; stroke-opacity:0.1; fill:none" points="191.056,110.619 2064.76,110.619 "/>
<polyline clip-path="url(#clip950)" style="stroke:#000000; stroke-linecap:round; stroke-linejoin:round; stroke-width:4; stroke-opacity:1; fill:none" points="191.056,1234.58 191.056,47.2441 "/>
<polyline clip-path="url(#clip950)" style="stroke:#000000; stroke-linecap:round; stroke-linejoin:round; stroke-width:4; stroke-opacity:1; fill:none" points="191.056,1171.2 209.954,1171.2 "/>
<polyline clip-path="url(#clip950)" style="stroke:#000000; stroke-linecap:round; stroke-linejoin:round; stroke-width:4; stroke-opacity:1; fill:none" points="191.056,994.44 209.954,994.44 "/>
<polyline clip-path="url(#clip950)" style="stroke:#000000; stroke-linecap:round; stroke-linejoin:round; stroke-width:4; stroke-opacity:1; fill:none" points="191.056,817.675 209.954,817.675 "/>
<polyline clip-path="url(#clip950)" style="stroke:#000000; stroke-linecap:round; stroke-linejoin:round; stroke-width:4; stroke-opacity:1; fill:none" points="191.056,640.911 209.954,640.911 "/>
<polyline clip-path="url(#clip950)" style="stroke:#000000; stroke-linecap:round; stroke-linejoin:round; stroke-width:4; stroke-opacity:1; fill:none" points="191.056,464.147 209.954,464.147 "/>
<polyline clip-path="url(#clip950)" style="stroke:#000000; stroke-linecap:round; stroke-linejoin:round; stroke-width:4; stroke-opacity:1; fill:none" points="191.056,287.383 209.954,287.383 "/>
<polyline clip-path="url(#clip950)" style="stroke:#000000; stroke-linecap:round; stroke-linejoin:round; stroke-width:4; stroke-opacity:1; fill:none" points="191.056,110.619 209.954,110.619 "/>
<path clip-path="url(#clip950)" d="M67.5015 1171.66 L97.1773 1171.66 L97.1773 1175.59 L67.5015 1175.59 L67.5015 1171.66 Z" fill="#000000" fill-rule="nonzero" fill-opacity="1" /><path clip-path="url(#clip950)" d="M121.436 1169.85 Q124.793 1170.57 126.668 1172.84 Q128.566 1175.1 128.566 1178.44 Q128.566 1183.55 125.047 1186.35 Q121.529 1189.16 115.048 1189.16 Q112.872 1189.16 110.557 1188.72 Q108.265 1188.3 105.811 1187.44 L105.811 1182.93 Q107.756 1184.06 110.071 1184.64 Q112.386 1185.22 114.909 1185.22 Q119.307 1185.22 121.598 1183.48 Q123.913 1181.75 123.913 1178.44 Q123.913 1175.38 121.76 1173.67 Q119.631 1171.93 115.811 1171.93 L111.784 1171.93 L111.784 1168.09 L115.997 1168.09 Q119.446 1168.09 121.274 1166.72 Q123.103 1165.34 123.103 1162.74 Q123.103 1160.08 121.205 1158.67 Q119.33 1157.23 115.811 1157.23 Q113.89 1157.23 111.691 1157.65 Q109.492 1158.07 106.853 1158.95 L106.853 1154.78 Q109.515 1154.04 111.83 1153.67 Q114.168 1153.3 116.228 1153.3 Q121.552 1153.3 124.654 1155.73 Q127.756 1158.14 127.756 1162.26 Q127.756 1165.13 126.112 1167.12 Q124.469 1169.09 121.436 1169.85 Z" fill="#000000" fill-rule="nonzero" fill-opacity="1" /><path clip-path="url(#clip950)" d="M147.432 1157 Q143.821 1157 141.992 1160.57 Q140.186 1164.11 140.186 1171.24 Q140.186 1178.34 141.992 1181.91 Q143.821 1185.45 147.432 1185.45 Q151.066 1185.45 152.871 1181.91 Q154.7 1178.34 154.7 1171.24 Q154.7 1164.11 152.871 1160.57 Q151.066 1157 147.432 1157 M147.432 1153.3 Q153.242 1153.3 156.297 1157.91 Q159.376 1162.49 159.376 1171.24 Q159.376 1179.97 156.297 1184.57 Q153.242 1189.16 147.432 1189.16 Q141.621 1189.16 138.543 1184.57 Q135.487 1179.97 135.487 1171.24 Q135.487 1162.49 138.543 1157.91 Q141.621 1153.3 147.432 1153.3 Z" fill="#000000" fill-rule="nonzero" fill-opacity="1" /><path clip-path="url(#clip950)" d="M67.5015 994.891 L97.1773 994.891 L97.1773 998.826 L67.5015 998.826 L67.5015 994.891 Z" fill="#000000" fill-rule="nonzero" fill-opacity="1" /><path clip-path="url(#clip950)" d="M111.298 1007.78 L127.617 1007.78 L127.617 1011.72 L105.673 1011.72 L105.673 1007.78 Q108.335 1005.03 112.918 1000.4 Q117.524 995.747 118.705 994.405 Q120.95 991.882 121.83 990.146 Q122.733 988.386 122.733 986.697 Q122.733 983.942 120.788 982.206 Q118.867 980.47 115.765 980.47 Q113.566 980.47 111.112 981.234 Q108.682 981.998 105.904 983.548 L105.904 978.826 Q108.728 977.692 111.182 977.113 Q113.636 976.535 115.673 976.535 Q121.043 976.535 124.237 979.22 Q127.432 981.905 127.432 986.396 Q127.432 988.525 126.622 990.447 Q125.835 992.345 123.728 994.937 Q123.149 995.609 120.048 998.826 Q116.946 1002.02 111.298 1007.78 Z" fill="#000000" fill-rule="nonzero" fill-opacity="1" /><path clip-path="url(#clip950)" d="M147.432 980.238 Q143.821 980.238 141.992 983.803 Q140.186 987.345 140.186 994.474 Q140.186 1001.58 141.992 1005.15 Q143.821 1008.69 147.432 1008.69 Q151.066 1008.69 152.871 1005.15 Q154.7 1001.58 154.7 994.474 Q154.7 987.345 152.871 983.803 Q151.066 980.238 147.432 980.238 M147.432 976.535 Q153.242 976.535 156.297 981.141 Q159.376 985.724 159.376 994.474 Q159.376 1003.2 156.297 1007.81 Q153.242 1012.39 147.432 1012.39 Q141.621 1012.39 138.543 1007.81 Q135.487 1003.2 135.487 994.474 Q135.487 985.724 138.543 981.141 Q141.621 976.535 147.432 976.535 Z" fill="#000000" fill-rule="nonzero" fill-opacity="1" /><path clip-path="url(#clip950)" d="M67.5015 818.127 L97.1773 818.127 L97.1773 822.062 L67.5015 822.062 L67.5015 818.127 Z" fill="#000000" fill-rule="nonzero" fill-opacity="1" /><path clip-path="url(#clip950)" d="M108.08 831.02 L115.719 831.02 L115.719 804.655 L107.409 806.321 L107.409 802.062 L115.673 800.395 L120.348 800.395 L120.348 831.02 L127.987 831.02 L127.987 834.955 L108.08 834.955 L108.08 831.02 Z" fill="#000000" fill-rule="nonzero" fill-opacity="1" /><path clip-path="url(#clip950)" d="M147.432 803.474 Q143.821 803.474 141.992 807.039 Q140.186 810.581 140.186 817.71 Q140.186 824.817 141.992 828.381 Q143.821 831.923 147.432 831.923 Q151.066 831.923 152.871 828.381 Q154.7 824.817 154.7 817.71 Q154.7 810.581 152.871 807.039 Q151.066 803.474 147.432 803.474 M147.432 799.77 Q153.242 799.77 156.297 804.377 Q159.376 808.96 159.376 817.71 Q159.376 826.437 156.297 831.043 Q153.242 835.627 147.432 835.627 Q141.621 835.627 138.543 831.043 Q135.487 826.437 135.487 817.71 Q135.487 808.96 138.543 804.377 Q141.621 799.77 147.432 799.77 Z" fill="#000000" fill-rule="nonzero" fill-opacity="1" /><path clip-path="url(#clip950)" d="M147.432 626.71 Q143.821 626.71 141.992 630.275 Q140.186 633.816 140.186 640.946 Q140.186 648.052 141.992 651.617 Q143.821 655.159 147.432 655.159 Q151.066 655.159 152.871 651.617 Q154.7 648.052 154.7 640.946 Q154.7 633.816 152.871 630.275 Q151.066 626.71 147.432 626.71 M147.432 623.006 Q153.242 623.006 156.297 627.613 Q159.376 632.196 159.376 640.946 Q159.376 649.673 156.297 654.279 Q153.242 658.863 147.432 658.863 Q141.621 658.863 138.543 654.279 Q135.487 649.673 135.487 640.946 Q135.487 632.196 138.543 627.613 Q141.621 623.006 147.432 623.006 Z" fill="#000000" fill-rule="nonzero" fill-opacity="1" /><path clip-path="url(#clip950)" d="M108.08 477.492 L115.719 477.492 L115.719 451.126 L107.409 452.793 L107.409 448.534 L115.673 446.867 L120.348 446.867 L120.348 477.492 L127.987 477.492 L127.987 481.427 L108.08 481.427 L108.08 477.492 Z" fill="#000000" fill-rule="nonzero" fill-opacity="1" /><path clip-path="url(#clip950)" d="M147.432 449.946 Q143.821 449.946 141.992 453.511 Q140.186 457.052 140.186 464.182 Q140.186 471.288 141.992 474.853 Q143.821 478.395 147.432 478.395 Q151.066 478.395 152.871 474.853 Q154.7 471.288 154.7 464.182 Q154.7 457.052 152.871 453.511 Q151.066 449.946 147.432 449.946 M147.432 446.242 Q153.242 446.242 156.297 450.849 Q159.376 455.432 159.376 464.182 Q159.376 472.909 156.297 477.515 Q153.242 482.098 147.432 482.098 Q141.621 482.098 138.543 477.515 Q135.487 472.909 135.487 464.182 Q135.487 455.432 138.543 450.849 Q141.621 446.242 147.432 446.242 Z" fill="#000000" fill-rule="nonzero" fill-opacity="1" /><path clip-path="url(#clip950)" d="M111.298 300.728 L127.617 300.728 L127.617 304.663 L105.673 304.663 L105.673 300.728 Q108.335 297.973 112.918 293.344 Q117.524 288.691 118.705 287.348 Q120.95 284.825 121.83 283.089 Q122.733 281.33 122.733 279.64 Q122.733 276.885 120.788 275.149 Q118.867 273.413 115.765 273.413 Q113.566 273.413 111.112 274.177 Q108.682 274.941 105.904 276.492 L105.904 271.77 Q108.728 270.635 111.182 270.057 Q113.636 269.478 115.673 269.478 Q121.043 269.478 124.237 272.163 Q127.432 274.848 127.432 279.339 Q127.432 281.469 126.622 283.39 Q125.835 285.288 123.728 287.881 Q123.149 288.552 120.048 291.77 Q116.946 294.964 111.298 300.728 Z" fill="#000000" fill-rule="nonzero" fill-opacity="1" /><path clip-path="url(#clip950)" d="M147.432 273.182 Q143.821 273.182 141.992 276.747 Q140.186 280.288 140.186 287.418 Q140.186 294.524 141.992 298.089 Q143.821 301.631 147.432 301.631 Q151.066 301.631 152.871 298.089 Q154.7 294.524 154.7 287.418 Q154.7 280.288 152.871 276.747 Q151.066 273.182 147.432 273.182 M147.432 269.478 Q153.242 269.478 156.297 274.084 Q159.376 278.668 159.376 287.418 Q159.376 296.145 156.297 300.751 Q153.242 305.334 147.432 305.334 Q141.621 305.334 138.543 300.751 Q135.487 296.145 135.487 287.418 Q135.487 278.668 138.543 274.084 Q141.621 269.478 147.432 269.478 Z" fill="#000000" fill-rule="nonzero" fill-opacity="1" /><path clip-path="url(#clip950)" d="M121.436 109.265 Q124.793 109.982 126.668 112.251 Q128.566 114.519 128.566 117.853 Q128.566 122.968 125.047 125.769 Q121.529 128.57 115.048 128.57 Q112.872 128.57 110.557 128.13 Q108.265 127.714 105.811 126.857 L105.811 122.343 Q107.756 123.478 110.071 124.056 Q112.386 124.635 114.909 124.635 Q119.307 124.635 121.598 122.899 Q123.913 121.163 123.913 117.853 Q123.913 114.797 121.76 113.084 Q119.631 111.348 115.811 111.348 L111.784 111.348 L111.784 107.505 L115.997 107.505 Q119.446 107.505 121.274 106.14 Q123.103 104.751 123.103 102.158 Q123.103 99.4963 121.205 98.0842 Q119.33 96.6491 115.811 96.6491 Q113.89 96.6491 111.691 97.0657 Q109.492 97.4824 106.853 98.362 L106.853 94.1954 Q109.515 93.4546 111.83 93.0843 Q114.168 92.7139 116.228 92.7139 Q121.552 92.7139 124.654 95.1444 Q127.756 97.5518 127.756 101.672 Q127.756 104.543 126.112 106.533 Q124.469 108.501 121.436 109.265 Z" fill="#000000" fill-rule="nonzero" fill-opacity="1" /><path clip-path="url(#clip950)" d="M147.432 96.4176 Q143.821 96.4176 141.992 99.9824 Q140.186 103.524 140.186 110.654 Q140.186 117.76 141.992 121.325 Q143.821 124.866 147.432 124.866 Q151.066 124.866 152.871 121.325 Q154.7 117.76 154.7 110.654 Q154.7 103.524 152.871 99.9824 Q151.066 96.4176 147.432 96.4176 M147.432 92.7139 Q153.242 92.7139 156.297 97.3203 Q159.376 101.904 159.376 110.654 Q159.376 119.38 156.297 123.987 Q153.242 128.57 147.432 128.57 Q141.621 128.57 138.543 123.987 Q135.487 119.38 135.487 110.654 Q135.487 101.904 138.543 97.3203 Q141.621 92.7139 147.432 92.7139 Z" fill="#000000" fill-rule="nonzero" fill-opacity="1" /><polyline clip-path="url(#clip952)" style="stroke:#009af9; stroke-linecap:round; stroke-linejoin:round; stroke-width:4; stroke-opacity:1; fill:none" points="244.085,640.911 246.962,639.474 249.839,638.047 252.716,636.638 255.594,635.258 258.919,633.71 262.244,632.226 263.907,631.512 265.57,630.818 267.232,630.147 268.895,629.5 270.558,628.878 272.22,628.282 273.883,627.715 275.546,627.177 277.208,626.669 278.871,626.192 280.534,625.748 282.196,625.338 283.859,624.962 285.522,624.621 287.184,624.317 288.847,624.049 290.51,623.818 292.172,623.625 293.835,623.471 295.498,623.355 297.16,623.278 298.823,623.239 300.486,623.24 302.148,623.28 303.811,623.359 305.474,623.477 307.136,623.633 308.799,623.828 310.462,624.06 312.124,624.33 313.787,624.636 315.45,624.978 317.112,625.356 318.775,625.767 320.438,626.213 322.1,626.691 323.763,627.2 325.426,627.74 327.088,628.308 328.751,628.905 330.414,629.528 332.076,630.177 333.739,630.849 335.402,631.543 338.727,632.992 342.052,634.512 345.378,636.087 348.703,637.706 355.354,641.014 362.005,644.317 366.001,646.252 369.998,648.119 371.996,649.02 373.995,649.894 375.993,650.74 377.992,651.554 379.99,652.335 381.988,653.078 383.987,653.783 385.985,654.447 387.984,655.068 389.982,655.643 391.98,656.172 393.979,656.651 395.977,657.081 397.976,657.458 399.974,657.783 401.972,658.054 403.971,658.27 405.969,658.431 407.968,658.536 409.966,658.584 411.964,658.576 413.963,658.512 415.961,658.391 417.959,658.214 419.958,657.983 421.956,657.696 423.955,657.356 425.953,656.964 427.643,656.592 429.332,656.184 431.022,655.742 432.712,655.265 434.401,654.756 436.091,654.215 437.78,653.644 439.47,653.044 442.849,651.761 446.228,650.38 447.918,649.656 449.608,648.912 451.297,648.15 452.987,647.371 456.366,645.772 459.745,644.127 463.125,642.454 466.504,640.766 469.883,639.08 473.262,637.41 476.641,635.773 480.021,634.182 481.856,633.343 483.692,632.524 485.527,631.728 487.362,630.956 489.198,630.212 491.033,629.496 492.868,628.811 494.704,628.159 496.539,627.541 498.375,626.959 500.21,626.414 502.045,625.909 503.881,625.444 505.716,625.021 507.552,624.641 509.387,624.304 511.222,624.012 513.058,623.766 514.893,623.566 516.729,623.413 518.564,623.306 520.399,623.248 522.235,623.237 524.07,623.273 525.906,623.357 527.741,623.488 529.576,623.667 531.412,623.892 533.247,624.162 535.083,624.478 536.918,624.838 538.753,625.241 540.445,625.651 542.138,626.095 543.83,626.573 545.522,627.084 547.214,627.627 548.906,628.2 550.598,628.802 552.29,629.432 553.982,630.088 555.674,630.769 557.366,631.474 559.058,632.199 562.442,633.709 565.827,635.285 572.595,638.577 579.363,641.953 582.747,643.635 586.131,645.292 589.516,646.909 592.9,648.471 596.528,650.068 600.156,651.569 601.97,652.278 603.784,652.957 605.598,653.605 607.412,654.219 609.226,654.798 611.041,655.341 612.855,655.846 614.669,656.311 616.483,656.736 618.297,657.119 620.111,657.46 621.925,657.756 623.739,658.009 625.553,658.217 627.367,658.379 629.181,658.495 630.995,658.564 632.809,658.588 634.624,658.564 636.438,658.495 638.252,658.379 640.066,658.217 641.88,658.009 643.694,657.757 645.508,657.46 647.322,657.119 649.136,656.736 650.95,656.311 653.052,655.768 655.154,655.173 657.256,654.528 659.357,653.834 661.459,653.094 663.561,652.312 665.663,651.489 667.765,650.629 669.866,649.734 671.968,648.809 674.07,647.855 676.172,646.877 680.375,644.861 684.579,642.789 688.782,640.691 692.986,638.596 697.19,636.534 701.393,634.533 703.495,633.565 705.597,632.622 707.699,631.709 709.8,630.829 711.902,629.984 714.004,629.178 716.106,628.413 718.208,627.692 720.075,627.091 721.943,626.528 723.811,626.006 725.679,625.525 727.547,625.087 729.414,624.693 731.282,624.344 733.15,624.042 735.018,623.787 736.886,623.579 738.754,623.42 740.621,623.31 742.489,623.248 744.357,623.237 746.225,623.274 748.093,623.361 749.961,623.496 751.828,623.68 753.696,623.913 755.564,624.192 757.432,624.519 759.3,624.891 761.167,625.308 763.035,625.768 764.903,626.271 766.771,626.814 768.639,627.397 770.507,628.018 772.374,628.674 774.242,629.365 776.11,630.088 777.978,630.841 781.254,632.229 784.53,633.691 787.805,635.214 791.081,636.787 797.633,640.025 804.184,643.293 807.46,644.904 810.736,646.48 814.012,648.008 817.288,649.476 820.564,650.87 823.839,652.178 825.477,652.797 827.115,653.39 828.753,653.957 830.391,654.495 832.177,655.049 833.963,655.567 835.748,656.047 837.534,656.489 839.32,656.891 841.106,657.252 842.891,657.571 844.677,657.848 846.463,658.082 848.249,658.272 850.034,658.418 851.82,658.519 853.606,658.575 855.392,658.586 857.178,658.552 858.963,658.473 860.749,658.349 862.535,658.181 864.321,657.969 866.106,657.713 867.892,657.414 869.678,657.074 871.464,656.691 873.249,656.269 875.035,655.808 876.821,655.308 878.607,654.772 880.392,654.2 882.178,653.595 883.964,652.957 885.75,652.289 887.536,651.591 891.128,650.107 894.721,648.528 898.314,646.871 901.907,645.151 909.092,641.6 916.278,638.021 919.87,636.267 923.463,634.56 927.056,632.919 930.649,631.361 932.445,630.618 934.241,629.901 936.038,629.213 937.834,628.555 939.63,627.929 941.427,627.337 943.223,626.779 945.02,626.258 947.006,625.726 948.992,625.242 950.978,624.807 952.964,624.423 954.95,624.092 956.936,623.813 958.922,623.588 960.909,623.418 962.895,623.303 964.881,623.244 966.867,623.24 968.853,623.292 970.839,623.4 972.825,623.563 974.811,623.781 976.798,624.053 978.784,624.378 980.77,624.755 982.756,625.183 984.742,625.661 986.728,626.187 988.714,626.759 990.7,627.376 992.687,628.036 994.673,628.736 996.659,629.475 998.645,630.25 1000.63,631.058 1002.62,631.898 1004.6,632.766 1006.59,633.659 1008.58,634.576 1012.36,636.373 1016.13,638.222 1019.91,640.101 1023.69,641.99 1027.47,643.867 1031.25,645.709 1035.03,647.497 1038.81,649.21 1040.7,650.032 1042.59,650.828 1044.48,651.596 1046.37,652.333 1048.26,653.037 1050.15,653.707 1052.04,654.34 1053.93,654.935 1055.82,655.49 1057.71,656.003 1059.6,656.474 1061.49,656.899 1063.38,657.279 1065.27,657.612 1067.16,657.898 1069.05,658.135 1071.01,658.329 1072.98,658.47 1074.94,658.556 1076.91,658.588 1078.87,658.565 1080.84,658.487 1082.8,658.356 1084.77,658.17 1086.73,657.931 1088.7,657.64 1090.66,657.297 1092.63,656.903 1094.59,656.46 1096.56,655.969 1098.52,655.431 1100.49,654.849 1102.45,654.224 1104.42,653.557 1106.38,652.851 1108.35,652.109 1110.31,651.332 1112.28,650.522 1114.24,649.684 1116.21,648.817 1120.13,647.015 1124.06,645.137 1127.99,643.207 1131.92,641.248 1138.54,637.954 1145.16,634.764 1148.46,633.242 1151.77,631.787 1153.43,631.089 1155.08,630.413 1156.73,629.759 1158.39,629.13 1160.04,628.527 1161.7,627.95 1163.35,627.402 1165,626.884 1166.66,626.396 1168.31,625.94 1169.97,625.517 1171.62,625.128 1173.27,624.773 1174.93,624.453 1176.58,624.17 1178.24,623.923 1179.89,623.713 1181.55,623.541 1183.2,623.407 1184.85,623.311 1186.87,623.246 1188.89,623.239 1190.91,623.29 1192.93,623.398 1194.95,623.563 1196.97,623.784 1198.99,624.062 1201.01,624.395 1203.03,624.781 1205.05,625.22 1207.07,625.71 1209.09,626.25 1211.11,626.838 1213.12,627.471 1215.14,628.149 1217.16,628.868 1219.18,629.626 1221.2,630.421 1223.22,631.251 1225.24,632.111 1227.26,633.001 1229.28,633.916 1231.3,634.855 1233.32,635.812 1241.4,639.779 1249.47,643.803 1253.17,645.609 1256.87,647.364 1260.57,649.047 1264.27,650.642 1266.12,651.401 1267.97,652.13 1269.82,652.83 1271.67,653.496 1273.52,654.128 1275.37,654.724 1277.22,655.282 1279.07,655.801 1280.92,656.278 1282.77,656.714 1284.62,657.107 1286.47,657.455 1288.32,657.758 1290.17,658.015 1292.02,658.225 1293.87,658.388 1295.72,658.502 1297.57,658.569 1299.42,658.587 1301.27,658.557 1303.12,658.479 1304.97,658.352 1306.82,658.178 1308.67,657.957 1310.38,657.711 1312.09,657.425 1313.79,657.102 1315.5,656.74 1317.21,656.341 1318.92,655.907 1320.63,655.437 1322.34,654.934 1324.05,654.397 1325.75,653.83 1327.46,653.232 1329.17,652.605 1330.88,651.951 1332.59,651.271 1334.3,650.567 1336.01,649.841 1339.42,648.327 1342.84,646.744 1346.26,645.106 1349.67,643.429 1356.51,640.021 1363.34,636.647 1366.8,634.99 1370.26,633.39 1373.73,631.863 1377.19,630.422 1378.92,629.738 1380.65,629.081 1382.38,628.453 1384.11,627.854 1385.84,627.287 1387.57,626.752 1389.3,626.251 1391.03,625.785 1392.76,625.356 1394.49,624.964 1396.22,624.61 1397.95,624.295 1399.69,624.02 1401.42,623.785 1403.15,623.591 1404.88,623.439 1406.61,623.329 1408.34,623.261 1410.07,623.235 1411.8,623.252 1413.53,623.311 1415.26,623.412 1416.99,623.555 1418.72,623.739 1420.66,623.995 1422.6,624.301 1424.54,624.658 1426.48,625.063 1428.42,625.517 1430.36,626.016 1432.3,626.56 1434.24,627.148 1436.18,627.777 1438.12,628.445 1440.06,629.151 1442,629.893 1443.94,630.667 1445.88,631.472 1447.82,632.306 1449.76,633.166 1453.64,634.952 1457.51,636.811 1461.39,638.718 1465.27,640.652 1469.15,642.589 1473.03,644.506 1476.91,646.38 1480.79,648.188 1482.55,648.979 1484.3,649.751 1486.06,650.501 1487.82,651.227 1489.58,651.927 1491.34,652.601 1493.09,653.245 1494.85,653.859 1496.61,654.441 1498.37,654.99 1500.12,655.504 1501.88,655.981 1503.64,656.422 1505.4,656.824 1507.15,657.187 1508.91,657.509 1510.67,657.791 1512.43,658.031 1514.18,658.228 1515.94,658.383 1517.7,658.495 1519.46,658.563 1521.21,658.588 1522.97,658.569 1524.73,658.506 1526.49,658.4 1528.24,658.25 1530,658.058 1531.76,657.823 1533.52,657.547 1535.27,657.229 1537.03,656.871 1539.04,656.413 1541.06,655.905 1543.07,655.348 1545.08,654.744 1547.09,654.096 1549.11,653.405 1551.12,652.673 1553.13,651.903 1555.14,651.098 1557.16,650.259 1559.17,649.391 1561.18,648.495 1565.2,646.632 1569.23,644.695 1577.28,640.7 1585.33,636.716 1589.35,634.792 1593.38,632.948 1595.39,632.063 1597.4,631.207 1599.41,630.382 1601.43,629.591 1603.29,628.892 1605.15,628.226 1607.02,627.595 1608.88,627.001 1610.74,626.446 1612.61,625.931 1614.47,625.457 1616.33,625.027 1618.2,624.64 1620.06,624.299 1621.92,624.004 1623.78,623.756 1625.65,623.555 1627.51,623.403 1629.37,623.299 1631.24,623.244 1633.1,623.238 1634.96,623.282 1636.83,623.374 1638.69,623.515 1640.55,623.704 1642.42,623.941 1644.28,624.226 1646.14,624.556 1648.01,624.932 1649.87,625.352 1651.73,625.816 1653.6,626.321 1655.46,626.867 1657.32,627.452 1659.19,628.075 1661.05,628.733 1662.89,629.415 1664.72,630.127 1666.56,630.869 1668.4,631.639 1670.23,632.433 1672.07,633.25 1673.91,634.087 1675.74,634.943 1683.09,638.505 1690.44,642.17 1694.11,643.992 1697.79,645.781 1701.46,647.518 1705.14,649.183 1706.97,649.983 1708.81,650.759 1710.65,651.508 1712.48,652.228 1714.32,652.918 1716.16,653.576 1717.99,654.199 1719.83,654.787 1721.61,655.321 1723.4,655.819 1725.18,656.279 1726.96,656.7 1728.75,657.081 1730.53,657.42 1732.31,657.718 1734.1,657.973 1735.88,658.184 1737.67,658.351 1739.45,658.475 1741.23,658.553 1743.02,658.586 1744.8,658.575 1746.58,658.518 1748.37,658.417 1750.15,658.271 1751.93,658.081 1753.72,657.848 1755.5,657.571 1757.28,657.252 1759.07,656.891 1760.85,656.49 1762.63,656.049 1764.42,655.569 1766.2,655.052 1767.98,654.5 1769.77,653.912 1771.55,653.292 1773.34,652.64 1775.12,651.958 1776.9,651.248 1780.56,649.712 1784.22,648.083 1787.87,646.376 1791.53,644.611 1798.84,640.982 1806.16,637.35 1809.81,635.582 1813.47,633.87 1817.12,632.234 1820.78,630.69 1822.61,629.958 1824.44,629.256 1826.27,628.584 1828.09,627.946 1829.92,627.342 1831.75,626.775 1833.58,626.245 1835.41,625.755 1837.41,625.264 1839.41,624.823 1841.42,624.434 1843.42,624.098 1845.42,623.816 1847.43,623.589 1849.43,623.418 1851.43,623.302 1853.44,623.243 1855.44,623.241 1857.44,623.295 1859.45,623.406 1861.45,623.574 1863.45,623.797 1865.45,624.074 1867.46,624.406 1869.46,624.791 1871.46,625.228 1873.47,625.714 1875.47,626.25 1877.47,626.833 1879.48,627.461 1881.48,628.132 1883.48,628.844 1885.49,629.595 1887.49,630.382 1889.49,631.203 1891.5,632.055 1893.5,632.936 1895.5,633.842 1897.5,634.77 1899.51,635.719 1905.33,638.558 1911.15,641.461 1916.97,644.349 1922.79,647.144 1925.7,648.483 1928.61,649.77 1931.52,650.998 1934.43,652.157 1937.34,653.24 1940.25,654.24 1941.7,654.706 1943.16,655.149 1944.61,655.568 1946.07,655.963 1947.52,656.331 1948.98,656.674 1950.43,656.989 1951.89,657.278 1953.34,657.539 1954.8,657.772 1956.25,657.976 1957.71,658.151 1959.16,658.297 1960.62,658.414 1962.07,658.501 1963.53,658.558 1964.98,658.585 1966.43,658.583 1967.89,658.55 1969.34,658.488 1970.8,658.395 1972.25,658.274 1973.71,658.122 1975.16,657.942 1976.62,657.733 1978.07,657.495 1979.53,657.229 1980.98,656.936 1982.44,656.616 1983.89,656.268 1985.35,655.895 1986.8,655.497 1988.26,655.074 1989.71,654.626 1991.17,654.156 1992.62,653.663 1995.01,652.808 1997.4,651.898 1999.79,650.939 2002.18,649.933 2004.56,648.887 2006.95,647.804 2009.34,646.69 2011.73,645.549 "/>
</svg>
