<?xml version="1.0" encoding="utf-8"?>
<svg xmlns="http://www.w3.org/2000/svg" xmlns:xlink="http://www.w3.org/1999/xlink" width="528" height="336" viewBox="0 0 2112 1344">
<defs>
  <clipPath id="clip450">
    <rect x="0" y="0" width="2112" height="1344"/>
  </clipPath>
</defs>
<path clip-path="url(#clip450)" d="M0 1344 L2112 1344 L2112 0 L0 0  Z" fill="#ffffff" fill-rule="evenodd" fill-opacity="1"/>
<defs>
  <clipPath id="clip451">
    <rect x="422" y="0" width="1479" height="1344"/>
  </clipPath>
</defs>
<path clip-path="url(#clip450)" d="M191.056 1234.58 L2064.76 1234.58 L2064.76 47.2441 L191.056 47.2441  Z" fill="#ffffff" fill-rule="evenodd" fill-opacity="1"/>
<defs>
  <clipPath id="clip452">
    <rect x="191" y="47" width="1875" height="1188"/>
  </clipPath>
</defs>
<polyline clip-path="url(#clip452)" style="stroke:#000000; stroke-linecap:round; stroke-linejoin:round; stroke-width:2; stroke-opacity:0.1; fill:none" points="244.085,1234.58 244.085,47.2441 "/>
<polyline clip-path="url(#clip452)" style="stroke:#000000; stroke-linecap:round; stroke-linejoin:round; stroke-width:2; stroke-opacity:0.1; fill:none" points="685.996,1234.58 685.996,47.2441 "/>
<polyline clip-path="url(#clip452)" style="stroke:#000000; stroke-linecap:round; stroke-linejoin:round; stroke-width:2; stroke-opacity:0.1; fill:none" points="1127.91,1234.58 1127.91,47.2441 "/>
<polyline clip-path="url(#clip452)" style="stroke:#000000; stroke-linecap:round; stroke-linejoin:round; stroke-width:2; stroke-opacity:0.1; fill:none" points="1569.82,1234.58 1569.82,47.2441 "/>
<polyline clip-path="url(#clip452)" style="stroke:#000000; stroke-linecap:round; stroke-linejoin:round; stroke-width:2; stroke-opacity:0.1; fill:none" points="2011.73,1234.58 2011.73,47.2441 "/>
<polyline clip-path="url(#clip452)" style="stroke:#000000; stroke-linecap:round; stroke-linejoin:round; stroke-width:2; stroke-opacity:0.1; fill:none" points="191.056,1082.82 2064.76,1082.82 "/>
<polyline clip-path="url(#clip452)" style="stroke:#000000; stroke-linecap:round; stroke-linejoin:round; stroke-width:2; stroke-opacity:0.1; fill:none" points="191.056,861.867 2064.76,861.867 "/>
<polyline clip-path="url(#clip452)" style="stroke:#000000; stroke-linecap:round; stroke-linejoin:round; stroke-width:2; stroke-opacity:0.1; fill:none" points="191.056,640.911 2064.76,640.911 "/>
<polyline clip-path="url(#clip452)" style="stroke:#000000; stroke-linecap:round; stroke-linejoin:round; stroke-width:2; stroke-opacity:0.1; fill:none" points="191.056,419.956 2064.76,419.956 "/>
<polyline clip-path="url(#clip452)" style="stroke:#000000; stroke-linecap:round; stroke-linejoin:round; stroke-width:2; stroke-opacity:0.1; fill:none" points="191.056,199.001 2064.76,199.001 "/>
<polyline clip-path="url(#clip450)" style="stroke:#000000; stroke-linecap:round; stroke-linejoin:round; stroke-width:4; stroke-opacity:1; fill:none" points="191.056,1234.58 2064.76,1234.58 "/>
<polyline clip-path="url(#clip450)" style="stroke:#000000; stroke-linecap:round; stroke-linejoin:round; stroke-width:4; stroke-opacity:1; fill:none" points="244.085,1234.58 244.085,1215.68 "/>
<polyline clip-path="url(#clip450)" style="stroke:#000000; stroke-linecap:round; stroke-linejoin:round; stroke-width:4; stroke-opacity:1; fill:none" points="685.996,1234.58 685.996,1215.68 "/>
<polyline clip-path="url(#clip450)" style="stroke:#000000; stroke-linecap:round; stroke-linejoin:round; stroke-width:4; stroke-opacity:1; fill:none" points="1127.91,1234.58 1127.91,1215.68 "/>
<polyline clip-path="url(#clip450)" style="stroke:#000000; stroke-linecap:round; stroke-linejoin:round; stroke-width:4; stroke-opacity:1; fill:none" points="1569.82,1234.58 1569.82,1215.68 "/>
<polyline clip-path="url(#clip450)" style="stroke:#000000; stroke-linecap:round; stroke-linejoin:round; stroke-width:4; stroke-opacity:1; fill:none" points="2011.73,1234.58 2011.73,1215.68 "/>
<path clip-path="url(#clip450)" d="M244.085 1263.19 Q240.474 1263.19 238.645 1266.76 Q236.84 1270.3 236.84 1277.43 Q236.84 1284.54 238.645 1288.1 Q240.474 1291.64 244.085 1291.64 Q247.719 1291.64 249.525 1288.1 Q251.354 1284.54 251.354 1277.43 Q251.354 1270.3 249.525 1266.76 Q247.719 1263.19 244.085 1263.19 M244.085 1259.49 Q249.895 1259.49 252.951 1264.1 Q256.03 1268.68 256.03 1277.43 Q256.03 1286.16 252.951 1290.76 Q249.895 1295.35 244.085 1295.35 Q238.275 1295.35 235.196 1290.76 Q232.141 1286.16 232.141 1277.43 Q232.141 1268.68 235.196 1264.1 Q238.275 1259.49 244.085 1259.49 Z" fill="#000000" fill-rule="nonzero" fill-opacity="1" /><path clip-path="url(#clip450)" d="M676.378 1290.74 L684.016 1290.74 L684.016 1264.37 L675.706 1266.04 L675.706 1261.78 L683.97 1260.11 L688.646 1260.11 L688.646 1290.74 L696.285 1290.74 L696.285 1294.67 L676.378 1294.67 L676.378 1290.74 Z" fill="#000000" fill-rule="nonzero" fill-opacity="1" /><path clip-path="url(#clip450)" d="M1122.56 1290.74 L1138.88 1290.74 L1138.88 1294.67 L1116.93 1294.67 L1116.93 1290.74 Q1119.6 1287.99 1124.18 1283.36 Q1128.79 1278.7 1129.97 1277.36 Q1132.21 1274.84 1133.09 1273.1 Q1133.99 1271.34 1133.99 1269.65 Q1133.99 1266.9 1132.05 1265.16 Q1130.13 1263.42 1127.03 1263.42 Q1124.83 1263.42 1122.37 1264.19 Q1119.94 1264.95 1117.17 1266.5 L1117.17 1261.78 Q1119.99 1260.65 1122.44 1260.07 Q1124.9 1259.49 1126.93 1259.49 Q1132.3 1259.49 1135.5 1262.17 Q1138.69 1264.86 1138.69 1269.35 Q1138.69 1271.48 1137.88 1273.4 Q1137.1 1275.3 1134.99 1277.89 Q1134.41 1278.56 1131.31 1281.78 Q1128.21 1284.98 1122.56 1290.74 Z" fill="#000000" fill-rule="nonzero" fill-opacity="1" /><path clip-path="url(#clip450)" d="M1574.06 1276.04 Q1577.42 1276.76 1579.3 1279.03 Q1581.19 1281.3 1581.19 1284.63 Q1581.19 1289.74 1577.68 1292.55 Q1574.16 1295.35 1567.68 1295.35 Q1565.5 1295.35 1563.18 1294.91 Q1560.89 1294.49 1558.44 1293.63 L1558.44 1289.12 Q1560.38 1290.25 1562.7 1290.83 Q1565.01 1291.41 1567.54 1291.41 Q1571.93 1291.41 1574.23 1289.67 Q1576.54 1287.94 1576.54 1284.63 Q1576.54 1281.57 1574.39 1279.86 Q1572.26 1278.12 1568.44 1278.12 L1564.41 1278.12 L1564.41 1274.28 L1568.62 1274.28 Q1572.07 1274.28 1573.9 1272.92 Q1575.73 1271.53 1575.73 1268.93 Q1575.73 1266.27 1573.83 1264.86 Q1571.96 1263.42 1568.44 1263.42 Q1566.52 1263.42 1564.32 1263.84 Q1562.12 1264.26 1559.48 1265.14 L1559.48 1260.97 Q1562.14 1260.23 1564.46 1259.86 Q1566.8 1259.49 1568.86 1259.49 Q1574.18 1259.49 1577.28 1261.92 Q1580.38 1264.33 1580.38 1268.45 Q1580.38 1271.32 1578.74 1273.31 Q1577.1 1275.28 1574.06 1276.04 Z" fill="#000000" fill-rule="nonzero" fill-opacity="1" /><path clip-path="url(#clip450)" d="M2014.74 1264.19 L2002.93 1282.64 L2014.74 1282.64 L2014.74 1264.19 M2013.51 1260.11 L2019.39 1260.11 L2019.39 1282.64 L2024.32 1282.64 L2024.32 1286.53 L2019.39 1286.53 L2019.39 1294.67 L2014.74 1294.67 L2014.74 1286.53 L1999.13 1286.53 L1999.13 1282.01 L2013.51 1260.11 Z" fill="#000000" fill-rule="nonzero" fill-opacity="1" /><polyline clip-path="url(#clip450)" style="stroke:#000000; stroke-linecap:round; stroke-linejoin:round; stroke-width:4; stroke-opacity:1; fill:none" points="191.056,1234.58 191.056,47.2441 "/>
<polyline clip-path="url(#clip450)" style="stroke:#000000; stroke-linecap:round; stroke-linejoin:round; stroke-width:4; stroke-opacity:1; fill:none" points="191.056,1082.82 209.954,1082.82 "/>
<polyline clip-path="url(#clip450)" style="stroke:#000000; stroke-linecap:round; stroke-linejoin:round; stroke-width:4; stroke-opacity:1; fill:none" points="191.056,861.867 209.954,861.867 "/>
<polyline clip-path="url(#clip450)" style="stroke:#000000; stroke-linecap:round; stroke-linejoin:round; stroke-width:4; stroke-opacity:1; fill:none" points="191.056,640.911 209.954,640.911 "/>
<polyline clip-path="url(#clip450)" style="stroke:#000000; stroke-linecap:round; stroke-linejoin:round; stroke-width:4; stroke-opacity:1; fill:none" points="191.056,419.956 209.954,419.956 "/>
<polyline clip-path="url(#clip450)" style="stroke:#000000; stroke-linecap:round; stroke-linejoin:round; stroke-width:4; stroke-opacity:1; fill:none" points="191.056,199.001 209.954,199.001 "/>
<path clip-path="url(#clip450)" d="M52.4321 1083.27 L82.1079 1083.27 L82.1079 1087.21 L52.4321 1087.21 L52.4321 1083.27 Z" fill="#000000" fill-rule="nonzero" fill-opacity="1" /><path clip-path="url(#clip450)" d="M93.0106 1096.17 L100.649 1096.17 L100.649 1069.8 L92.3393 1071.47 L92.3393 1067.21 L100.603 1065.54 L105.279 1065.54 L105.279 1096.17 L112.918 1096.17 L112.918 1100.1 L93.0106 1100.1 L93.0106 1096.17 Z" fill="#000000" fill-rule="nonzero" fill-opacity="1" /><path clip-path="url(#clip450)" d="M122.362 1094.22 L127.247 1094.22 L127.247 1100.1 L122.362 1100.1 L122.362 1094.22 Z" fill="#000000" fill-rule="nonzero" fill-opacity="1" /><path clip-path="url(#clip450)" d="M147.432 1068.62 Q143.821 1068.62 141.992 1072.19 Q140.186 1075.73 140.186 1082.86 Q140.186 1089.96 141.992 1093.53 Q143.821 1097.07 147.432 1097.07 Q151.066 1097.07 152.871 1093.53 Q154.7 1089.96 154.7 1082.86 Q154.7 1075.73 152.871 1072.19 Q151.066 1068.62 147.432 1068.62 M147.432 1064.92 Q153.242 1064.92 156.297 1069.52 Q159.376 1074.11 159.376 1082.86 Q159.376 1091.58 156.297 1096.19 Q153.242 1100.77 147.432 1100.77 Q141.621 1100.77 138.543 1096.19 Q135.487 1091.58 135.487 1082.86 Q135.487 1074.11 138.543 1069.52 Q141.621 1064.92 147.432 1064.92 Z" fill="#000000" fill-rule="nonzero" fill-opacity="1" /><path clip-path="url(#clip450)" d="M53.4275 862.318 L83.1033 862.318 L83.1033 866.253 L53.4275 866.253 L53.4275 862.318 Z" fill="#000000" fill-rule="nonzero" fill-opacity="1" /><path clip-path="url(#clip450)" d="M103.196 847.665 Q99.5847 847.665 97.756 851.23 Q95.9504 854.772 95.9504 861.901 Q95.9504 869.008 97.756 872.573 Q99.5847 876.114 103.196 876.114 Q106.83 876.114 108.636 872.573 Q110.464 869.008 110.464 861.901 Q110.464 854.772 108.636 851.23 Q106.83 847.665 103.196 847.665 M103.196 843.962 Q109.006 843.962 112.061 848.568 Q115.14 853.151 115.14 861.901 Q115.14 870.628 112.061 875.235 Q109.006 879.818 103.196 879.818 Q97.3856 879.818 94.3069 875.235 Q91.2514 870.628 91.2514 861.901 Q91.2514 853.151 94.3069 848.568 Q97.3856 843.962 103.196 843.962 Z" fill="#000000" fill-rule="nonzero" fill-opacity="1" /><path clip-path="url(#clip450)" d="M123.358 873.267 L128.242 873.267 L128.242 879.147 L123.358 879.147 L123.358 873.267 Z" fill="#000000" fill-rule="nonzero" fill-opacity="1" /><path clip-path="url(#clip450)" d="M138.473 844.587 L156.83 844.587 L156.83 848.522 L142.756 848.522 L142.756 856.994 Q143.774 856.647 144.793 856.485 Q145.811 856.3 146.83 856.3 Q152.617 856.3 155.996 859.471 Q159.376 862.642 159.376 868.059 Q159.376 873.637 155.904 876.739 Q152.432 879.818 146.112 879.818 Q143.936 879.818 141.668 879.448 Q139.422 879.077 137.015 878.336 L137.015 873.637 Q139.098 874.772 141.321 875.327 Q143.543 875.883 146.02 875.883 Q150.024 875.883 152.362 873.776 Q154.7 871.67 154.7 868.059 Q154.7 864.448 152.362 862.341 Q150.024 860.235 146.02 860.235 Q144.145 860.235 142.27 860.651 Q140.418 861.068 138.473 861.948 L138.473 844.587 Z" fill="#000000" fill-rule="nonzero" fill-opacity="1" /><path clip-path="url(#clip450)" d="M102.2 626.71 Q98.5893 626.71 96.7606 630.275 Q94.955 633.817 94.955 640.946 Q94.955 648.053 96.7606 651.617 Q98.5893 655.159 102.2 655.159 Q105.835 655.159 107.64 651.617 Q109.469 648.053 109.469 640.946 Q109.469 633.817 107.64 630.275 Q105.835 626.71 102.2 626.71 M102.2 623.006 Q108.011 623.006 111.066 627.613 Q114.145 632.196 114.145 640.946 Q114.145 649.673 111.066 654.279 Q108.011 658.863 102.2 658.863 Q96.3902 658.863 93.3115 654.279 Q90.256 649.673 90.256 640.946 Q90.256 632.196 93.3115 627.613 Q96.3902 623.006 102.2 623.006 Z" fill="#000000" fill-rule="nonzero" fill-opacity="1" /><path clip-path="url(#clip450)" d="M122.362 652.312 L127.247 652.312 L127.247 658.191 L122.362 658.191 L122.362 652.312 Z" fill="#000000" fill-rule="nonzero" fill-opacity="1" /><path clip-path="url(#clip450)" d="M147.432 626.71 Q143.821 626.71 141.992 630.275 Q140.186 633.817 140.186 640.946 Q140.186 648.053 141.992 651.617 Q143.821 655.159 147.432 655.159 Q151.066 655.159 152.871 651.617 Q154.7 648.053 154.7 640.946 Q154.7 633.817 152.871 630.275 Q151.066 626.71 147.432 626.71 M147.432 623.006 Q153.242 623.006 156.297 627.613 Q159.376 632.196 159.376 640.946 Q159.376 649.673 156.297 654.279 Q153.242 658.863 147.432 658.863 Q141.621 658.863 138.543 654.279 Q135.487 649.673 135.487 640.946 Q135.487 632.196 138.543 627.613 Q141.621 623.006 147.432 623.006 Z" fill="#000000" fill-rule="nonzero" fill-opacity="1" /><path clip-path="url(#clip450)" d="M103.196 405.755 Q99.5847 405.755 97.756 409.32 Q95.9504 412.861 95.9504 419.991 Q95.9504 427.097 97.756 430.662 Q99.5847 434.204 103.196 434.204 Q106.83 434.204 108.636 430.662 Q110.464 427.097 110.464 419.991 Q110.464 412.861 108.636 409.32 Q106.83 405.755 103.196 405.755 M103.196 402.051 Q109.006 402.051 112.061 406.658 Q115.14 411.241 115.14 419.991 Q115.14 428.718 112.061 433.324 Q109.006 437.908 103.196 437.908 Q97.3856 437.908 94.3069 433.324 Q91.2514 428.718 91.2514 419.991 Q91.2514 411.241 94.3069 406.658 Q97.3856 402.051 103.196 402.051 Z" fill="#000000" fill-rule="nonzero" fill-opacity="1" /><path clip-path="url(#clip450)" d="M123.358 431.357 L128.242 431.357 L128.242 437.236 L123.358 437.236 L123.358 431.357 Z" fill="#000000" fill-rule="nonzero" fill-opacity="1" /><path clip-path="url(#clip450)" d="M138.473 402.676 L156.83 402.676 L156.83 406.611 L142.756 406.611 L142.756 415.084 Q143.774 414.736 144.793 414.574 Q145.811 414.389 146.83 414.389 Q152.617 414.389 155.996 417.56 Q159.376 420.732 159.376 426.148 Q159.376 431.727 155.904 434.829 Q152.432 437.908 146.112 437.908 Q143.936 437.908 141.668 437.537 Q139.422 437.167 137.015 436.426 L137.015 431.727 Q139.098 432.861 141.321 433.417 Q143.543 433.972 146.02 433.972 Q150.024 433.972 152.362 431.866 Q154.7 429.759 154.7 426.148 Q154.7 422.537 152.362 420.431 Q150.024 418.324 146.02 418.324 Q144.145 418.324 142.27 418.741 Q140.418 419.158 138.473 420.037 L138.473 402.676 Z" fill="#000000" fill-rule="nonzero" fill-opacity="1" /><path clip-path="url(#clip450)" d="M93.0106 212.346 L100.649 212.346 L100.649 185.98 L92.3393 187.647 L92.3393 183.388 L100.603 181.721 L105.279 181.721 L105.279 212.346 L112.918 212.346 L112.918 216.281 L93.0106 216.281 L93.0106 212.346 Z" fill="#000000" fill-rule="nonzero" fill-opacity="1" /><path clip-path="url(#clip450)" d="M122.362 210.401 L127.247 210.401 L127.247 216.281 L122.362 216.281 L122.362 210.401 Z" fill="#000000" fill-rule="nonzero" fill-opacity="1" /><path clip-path="url(#clip450)" d="M147.432 184.8 Q143.821 184.8 141.992 188.365 Q140.186 191.906 140.186 199.036 Q140.186 206.142 141.992 209.707 Q143.821 213.249 147.432 213.249 Q151.066 213.249 152.871 209.707 Q154.7 206.142 154.7 199.036 Q154.7 191.906 152.871 188.365 Q151.066 184.8 147.432 184.8 M147.432 181.096 Q153.242 181.096 156.297 185.703 Q159.376 190.286 159.376 199.036 Q159.376 207.763 156.297 212.369 Q153.242 216.952 147.432 216.952 Q141.621 216.952 138.543 212.369 Q135.487 207.763 135.487 199.036 Q135.487 190.286 138.543 185.703 Q141.621 181.096 147.432 181.096 Z" fill="#000000" fill-rule="nonzero" fill-opacity="1" /><path clip-path="url(#clip452)" d="M686.032 635.246 L702.825 520.119 L719.618 471.839 L720.412 469.934 L721.206 468.054 L722 466.197 L722.794 464.364 L724.382 460.764 L725.97 457.248 L729.146 450.45 L732.322 443.938 L738.675 431.665 L745.027 420.256 L751.38 409.583 L757.732 399.549 L764.084 390.076 L770.437 381.103 L778.114 370.855 L785.791 361.193 L793.468 352.058 L801.146 343.401 L808.823 335.182 L816.5 327.365 L824.177 319.923 L831.854 312.829 L835.856 309.262 L839.857 305.781 L843.858 302.383 L847.859 299.066 L855.861 292.664 L863.863 286.558 L871.865 280.734 L879.867 275.177 L887.869 269.876 L895.872 264.82 L908.663 257.222 L921.455 250.191 L934.247 243.695 L947.039 237.71 L962.709 231.04 L978.379 225.067 L994.049 219.762 L1009.72 215.099 L1025.62 211.002 L1041.52 207.526 L1057.43 204.658 L1073.33 202.384 L1087.48 200.854 L1101.62 199.783 L1115.77 199.168 L1129.92 199.006 L1142.88 199.255 L1155.84 199.885 L1168.8 200.897 L1181.76 202.295 L1199.25 204.799 L1216.75 208.023 L1225.49 209.91 L1234.24 211.984 L1242.98 214.248 L1251.73 216.703 L1264.96 220.793 L1278.2 225.344 L1291.43 230.371 L1304.67 235.894 L1318.48 242.205 L1332.29 249.103 L1346.09 256.622 L1359.9 264.797 L1368.01 269.92 L1376.12 275.295 L1384.23 280.933 L1392.33 286.846 L1400.44 293.049 L1408.55 299.557 L1412.61 302.931 L1416.66 306.388 L1420.71 309.93 L1424.77 313.562 L1438.03 326.099 L1451.3 339.741 L1457.93 347.024 L1464.56 354.645 L1471.19 362.633 L1477.83 371.02 L1485.4 381.136 L1492.97 391.892 L1500.55 403.375 L1508.12 415.698 L1511.91 422.217 L1515.7 429.005 L1519.48 436.087 L1523.27 443.496 L1527.06 451.27 L1530.84 459.455 L1532.74 463.72 L1534.63 468.11 L1536.52 472.637 L1538.42 477.31 L1541.9 486.329 L1545.38 495.992 L1548.86 506.436 L1552.34 517.862 L1554.08 524.032 L1555.82 530.573 L1557.56 537.557 L1559.3 545.08 L1561.04 553.281 L1562.78 562.371 L1563.65 567.352 L1564.52 572.706 L1565.39 578.531 L1566.26 584.972 L1568 600.905 L1569.74 632.804 L1569.74 640.911 L1568 640.911 L1566.26 640.911 L1565.39 640.911 L1564.52 640.911 L1563.65 640.911 L1562.78 640.911 L1561.04 640.911 L1559.3 640.911 L1557.56 640.911 L1555.82 640.911 L1554.08 640.911 L1552.34 640.911 L1548.86 640.911 L1545.38 640.911 L1541.9 640.911 L1538.42 640.911 L1536.52 640.911 L1534.63 640.911 L1532.74 640.911 L1530.84 640.911 L1527.06 640.911 L1523.27 640.911 L1519.48 640.911 L1515.7 640.911 L1511.91 640.911 L1508.12 640.911 L1500.55 640.911 L1492.97 640.911 L1485.4 640.911 L1477.83 640.911 L1471.19 640.911 L1464.56 640.911 L1457.93 640.911 L1451.3 640.911 L1438.03 640.911 L1424.77 640.911 L1420.71 640.911 L1416.66 640.911 L1412.61 640.911 L1408.55 640.911 L1400.44 640.911 L1392.33 640.911 L1384.23 640.911 L1376.12 640.911 L1368.01 640.911 L1359.9 640.911 L1346.09 640.911 L1332.29 640.911 L1318.48 640.911 L1304.67 640.911 L1291.43 640.911 L1278.2 640.911 L1264.96 640.911 L1251.73 640.911 L1242.98 640.911 L1234.24 640.911 L1225.49 640.911 L1216.75 640.911 L1199.25 640.911 L1181.76 640.911 L1168.8 640.911 L1155.84 640.911 L1142.88 640.911 L1129.92 640.911 L1115.77 640.911 L1101.62 640.911 L1087.48 640.911 L1073.33 640.911 L1057.43 640.911 L1041.52 640.911 L1025.62 640.911 L1009.72 640.911 L994.049 640.911 L978.379 640.911 L962.709 640.911 L947.039 640.911 L934.247 640.911 L921.455 640.911 L908.663 640.911 L895.872 640.911 L887.869 640.911 L879.867 640.911 L871.865 640.911 L863.863 640.911 L855.861 640.911 L847.859 640.911 L843.858 640.911 L839.857 640.911 L835.856 640.911 L831.854 640.911 L824.177 640.911 L816.5 640.911 L808.823 640.911 L801.146 640.911 L793.468 640.911 L785.791 640.911 L778.114 640.911 L770.437 640.911 L764.084 640.911 L757.732 640.911 L751.38 640.911 L745.027 640.911 L738.675 640.911 L732.322 640.911 L729.146 640.911 L725.97 640.911 L724.382 640.911 L722.794 640.911 L722 640.911 L721.206 640.911 L720.412 640.911 L719.618 640.911 L702.825 640.911 L686.032 640.911  Z" fill="#009af9" fill-rule="evenodd" fill-opacity="0.3"/>
<polyline clip-path="url(#clip452)" style="stroke:#009af9; stroke-linecap:round; stroke-linejoin:round; stroke-width:4; stroke-opacity:1; fill:none" points="686.032,635.246 702.825,520.119 719.618,471.839 720.412,469.934 721.206,468.054 722,466.197 722.794,464.364 724.382,460.764 725.97,457.248 729.146,450.45 732.322,443.938 738.675,431.665 745.027,420.256 751.38,409.583 757.732,399.549 764.084,390.076 770.437,381.103 778.114,370.855 785.791,361.193 793.468,352.058 801.146,343.401 808.823,335.182 816.5,327.365 824.177,319.923 831.854,312.829 835.856,309.262 839.857,305.781 843.858,302.383 847.859,299.066 855.861,292.664 863.863,286.558 871.865,280.734 879.867,275.177 887.869,269.876 895.872,264.82 908.663,257.222 921.455,250.191 934.247,243.695 947.039,237.71 962.709,231.04 978.379,225.067 994.049,219.762 1009.72,215.099 1025.62,211.002 1041.52,207.526 1057.43,204.658 1073.33,202.384 1087.48,200.854 1101.62,199.783 1115.77,199.168 1129.92,199.006 1142.88,199.255 1155.84,199.885 1168.8,200.897 1181.76,202.295 1199.25,204.799 1216.75,208.023 1225.49,209.91 1234.24,211.984 1242.98,214.248 1251.73,216.703 1264.96,220.793 1278.2,225.344 1291.43,230.371 1304.67,235.894 1318.48,242.205 1332.29,249.103 1346.09,256.622 1359.9,264.797 1368.01,269.92 1376.12,275.295 1384.23,280.933 1392.33,286.846 1400.44,293.049 1408.55,299.557 1412.61,302.931 1416.66,306.388 1420.71,309.93 1424.77,313.562 1438.03,326.099 1451.3,339.741 1457.93,347.024 1464.56,354.645 1471.19,362.633 1477.83,371.02 1485.4,381.136 1492.97,391.892 1500.55,403.375 1508.12,415.698 1511.91,422.217 1515.7,429.005 1519.48,436.087 1523.27,443.496 1527.06,451.27 1530.84,459.455 1532.74,463.72 1534.63,468.11 1536.52,472.637 1538.42,477.31 1541.9,486.329 1545.38,495.992 1548.86,506.436 1552.34,517.862 1554.08,524.032 1555.82,530.573 1557.56,537.557 1559.3,545.08 1561.04,553.281 1562.78,562.371 1563.65,567.352 1564.52,572.706 1565.39,578.531 1566.26,584.972 1568,600.905 1569.74,632.804 "/>
<path clip-path="url(#clip452)" d="M686.032 646.577 L702.825 761.704 L719.618 809.984 L720.412 811.889 L721.206 813.769 L722 815.625 L722.794 817.459 L724.382 821.059 L725.97 824.575 L729.146 831.373 L732.322 837.885 L738.675 850.157 L745.027 861.566 L751.38 872.239 L757.732 882.274 L764.084 891.747 L770.437 900.72 L778.114 910.968 L785.791 920.63 L793.468 929.765 L801.146 938.422 L808.823 946.641 L816.5 954.457 L824.177 961.9 L831.854 968.994 L835.856 972.561 L839.857 976.042 L843.858 979.44 L847.859 982.757 L855.861 989.159 L863.863 995.264 L871.865 1001.09 L879.867 1006.65 L887.869 1011.95 L895.872 1017 L908.663 1024.6 L921.455 1031.63 L934.247 1038.13 L947.039 1044.11 L962.709 1050.78 L978.379 1056.76 L994.049 1062.06 L1009.72 1066.72 L1025.62 1070.82 L1041.52 1074.3 L1057.43 1077.17 L1073.33 1079.44 L1087.48 1080.97 L1101.62 1082.04 L1115.77 1082.66 L1129.92 1082.82 L1142.88 1082.57 L1155.84 1081.94 L1168.8 1080.93 L1181.76 1079.53 L1199.25 1077.02 L1216.75 1073.8 L1225.49 1071.91 L1234.24 1069.84 L1242.98 1067.58 L1251.73 1065.12 L1264.96 1061.03 L1278.2 1056.48 L1291.43 1051.45 L1304.67 1045.93 L1318.48 1039.62 L1332.29 1032.72 L1346.09 1025.2 L1359.9 1017.03 L1368.01 1011.9 L1376.12 1006.53 L1384.23 1000.89 L1392.33 994.977 L1400.44 988.774 L1408.55 982.266 L1412.61 978.892 L1416.66 975.435 L1420.71 971.893 L1424.77 968.261 L1438.03 955.724 L1451.3 942.082 L1457.93 934.799 L1464.56 927.178 L1471.19 919.19 L1477.83 910.803 L1485.4 900.687 L1492.97 889.931 L1500.55 878.447 L1508.12 866.125 L1511.91 859.606 L1515.7 852.818 L1519.48 845.736 L1523.27 838.327 L1527.06 830.553 L1530.84 822.368 L1532.74 818.103 L1534.63 813.713 L1536.52 809.186 L1538.42 804.513 L1541.9 795.494 L1545.38 785.831 L1548.86 775.387 L1552.34 763.961 L1554.08 757.791 L1555.82 751.25 L1557.56 744.266 L1559.3 736.743 L1561.04 728.542 L1562.78 719.452 L1563.65 714.471 L1564.52 709.117 L1565.39 703.292 L1566.26 696.851 L1568 680.918 L1569.74 649.019 L1569.74 640.911 L1568 640.911 L1566.26 640.911 L1565.39 640.911 L1564.52 640.911 L1563.65 640.911 L1562.78 640.911 L1561.04 640.911 L1559.3 640.911 L1557.56 640.911 L1555.82 640.911 L1554.08 640.911 L1552.34 640.911 L1548.86 640.911 L1545.38 640.911 L1541.9 640.911 L1538.42 640.911 L1536.52 640.911 L1534.63 640.911 L1532.74 640.911 L1530.84 640.911 L1527.06 640.911 L1523.27 640.911 L1519.48 640.911 L1515.7 640.911 L1511.91 640.911 L1508.12 640.911 L1500.55 640.911 L1492.97 640.911 L1485.4 640.911 L1477.83 640.911 L1471.19 640.911 L1464.56 640.911 L1457.93 640.911 L1451.3 640.911 L1438.03 640.911 L1424.77 640.911 L1420.71 640.911 L1416.66 640.911 L1412.61 640.911 L1408.55 640.911 L1400.44 640.911 L1392.33 640.911 L1384.23 640.911 L1376.12 640.911 L1368.01 640.911 L1359.9 640.911 L1346.09 640.911 L1332.29 640.911 L1318.48 640.911 L1304.67 640.911 L1291.43 640.911 L1278.2 640.911 L1264.96 640.911 L1251.73 640.911 L1242.98 640.911 L1234.24 640.911 L1225.49 640.911 L1216.75 640.911 L1199.25 640.911 L1181.76 640.911 L1168.8 640.911 L1155.84 640.911 L1142.88 640.911 L1129.92 640.911 L1115.77 640.911 L1101.62 640.911 L1087.48 640.911 L1073.33 640.911 L1057.43 640.911 L1041.52 640.911 L1025.62 640.911 L1009.72 640.911 L994.049 640.911 L978.379 640.911 L962.709 640.911 L947.039 640.911 L934.247 640.911 L921.455 640.911 L908.663 640.911 L895.872 640.911 L887.869 640.911 L879.867 640.911 L871.865 640.911 L863.863 640.911 L855.861 640.911 L847.859 640.911 L843.858 640.911 L839.857 640.911 L835.856 640.911 L831.854 640.911 L824.177 640.911 L816.5 640.911 L808.823 640.911 L801.146 640.911 L793.468 640.911 L785.791 640.911 L778.114 640.911 L770.437 640.911 L764.084 640.911 L757.732 640.911 L751.38 640.911 L745.027 640.911 L738.675 640.911 L732.322 640.911 L729.146 640.911 L725.97 640.911 L724.382 640.911 L722.794 640.911 L722 640.911 L721.206 640.911 L720.412 640.911 L719.618 640.911 L702.825 640.911 L686.032 640.911  Z" fill="#e26f46" fill-rule="evenodd" fill-opacity="0.3"/>
<polyline clip-path="url(#clip452)" style="stroke:#e26f46; stroke-linecap:round; stroke-linejoin:round; stroke-width:4; stroke-opacity:1; fill:none" points="686.032,646.577 702.825,761.704 719.618,809.984 720.412,811.889 721.206,813.769 722,815.625 722.794,817.459 724.382,821.059 725.97,824.575 729.146,831.373 732.322,837.885 738.675,850.157 745.027,861.566 751.38,872.239 757.732,882.274 764.084,891.747 770.437,900.72 778.114,910.968 785.791,920.63 793.468,929.765 801.146,938.422 808.823,946.641 816.5,954.457 824.177,961.9 831.854,968.994 835.856,972.561 839.857,976.042 843.858,979.44 847.859,982.757 855.861,989.159 863.863,995.264 871.865,1001.09 879.867,1006.65 887.869,1011.95 895.872,1017 908.663,1024.6 921.455,1031.63 934.247,1038.13 947.039,1044.11 962.709,1050.78 978.379,1056.76 994.049,1062.06 1009.72,1066.72 1025.62,1070.82 1041.52,1074.3 1057.43,1077.17 1073.33,1079.44 1087.48,1080.97 1101.62,1082.04 1115.77,1082.66 1129.92,1082.82 1142.88,1082.57 1155.84,1081.94 1168.8,1080.93 1181.76,1079.53 1199.25,1077.02 1216.75,1073.8 1225.49,1071.91 1234.24,1069.84 1242.98,1067.58 1251.73,1065.12 1264.96,1061.03 1278.2,1056.48 1291.43,1051.45 1304.67,1045.93 1318.48,1039.62 1332.29,1032.72 1346.09,1025.2 1359.9,1017.03 1368.01,1011.9 1376.12,1006.53 1384.23,1000.89 1392.33,994.977 1400.44,988.774 1408.55,982.266 1412.61,978.892 1416.66,975.435 1420.71,971.893 1424.77,968.261 1438.03,955.724 1451.3,942.082 1457.93,934.799 1464.56,927.178 1471.19,919.19 1477.83,910.803 1485.4,900.687 1492.97,889.931 1500.55,878.447 1508.12,866.125 1511.91,859.606 1515.7,852.818 1519.48,845.736 1523.27,838.327 1527.06,830.553 1530.84,822.368 1532.74,818.103 1534.63,813.713 1536.52,809.186 1538.42,804.513 1541.9,795.494 1545.38,785.831 1548.86,775.387 1552.34,763.961 1554.08,757.791 1555.82,751.25 1557.56,744.266 1559.3,736.743 1561.04,728.542 1562.78,719.452 1563.65,714.471 1564.52,709.117 1565.39,703.292 1566.26,696.851 1568,680.918 1569.74,649.019 "/>
</svg>
