<?xml version="1.0" encoding="utf-8"?>
<svg xmlns="http://www.w3.org/2000/svg" xmlns:xlink="http://www.w3.org/1999/xlink" width="528" height="336" viewBox="0 0 2112 1344">
<defs>
  <clipPath id="clip980">
    <rect x="0" y="0" width="2112" height="1344"/>
  </clipPath>
</defs>
<path clip-path="url(#clip980)" d="M0 1344 L2112 1344 L2112 0 L0 0  Z" fill="#ffffff" fill-rule="evenodd" fill-opacity="1"/>
<defs>
  <clipPath id="clip981">
    <rect x="422" y="0" width="1479" height="1344"/>
  </clipPath>
</defs>
<path clip-path="url(#clip980)" d="M183.394 1234.58 L2064.76 1234.58 L2064.76 47.2441 L183.394 47.2441  Z" fill="#ffffff" fill-rule="evenodd" fill-opacity="1"/>
<defs>
  <clipPath id="clip982">
    <rect x="183" y="47" width="1882" height="1188"/>
  </clipPath>
</defs>
<polyline clip-path="url(#clip982)" style="stroke:#000000; stroke-linecap:round; stroke-linejoin:round; stroke-width:2; stroke-opacity:0.1; fill:none" points="451.999,1234.58 451.999,47.2441 "/>
<polyline clip-path="url(#clip982)" style="stroke:#000000; stroke-linecap:round; stroke-linejoin:round; stroke-width:2; stroke-opacity:0.1; fill:none" points="788.037,1234.58 788.037,47.2441 "/>
<polyline clip-path="url(#clip982)" style="stroke:#000000; stroke-linecap:round; stroke-linejoin:round; stroke-width:2; stroke-opacity:0.1; fill:none" points="1124.07,1234.58 1124.07,47.2441 "/>
<polyline clip-path="url(#clip982)" style="stroke:#000000; stroke-linecap:round; stroke-linejoin:round; stroke-width:2; stroke-opacity:0.1; fill:none" points="1460.11,1234.58 1460.11,47.2441 "/>
<polyline clip-path="url(#clip982)" style="stroke:#000000; stroke-linecap:round; stroke-linejoin:round; stroke-width:2; stroke-opacity:0.1; fill:none" points="1796.15,1234.58 1796.15,47.2441 "/>
<polyline clip-path="url(#clip980)" style="stroke:#000000; stroke-linecap:round; stroke-linejoin:round; stroke-width:4; stroke-opacity:1; fill:none" points="183.394,1234.58 2064.76,1234.58 "/>
<polyline clip-path="url(#clip980)" style="stroke:#000000; stroke-linecap:round; stroke-linejoin:round; stroke-width:4; stroke-opacity:1; fill:none" points="451.999,1234.58 451.999,1215.68 "/>
<polyline clip-path="url(#clip980)" style="stroke:#000000; stroke-linecap:round; stroke-linejoin:round; stroke-width:4; stroke-opacity:1; fill:none" points="788.037,1234.58 788.037,1215.68 "/>
<polyline clip-path="url(#clip980)" style="stroke:#000000; stroke-linecap:round; stroke-linejoin:round; stroke-width:4; stroke-opacity:1; fill:none" points="1124.07,1234.58 1124.07,1215.68 "/>
<polyline clip-path="url(#clip980)" style="stroke:#000000; stroke-linecap:round; stroke-linejoin:round; stroke-width:4; stroke-opacity:1; fill:none" points="1460.11,1234.58 1460.11,1215.68 "/>
<polyline clip-path="url(#clip980)" style="stroke:#000000; stroke-linecap:round; stroke-linejoin:round; stroke-width:4; stroke-opacity:1; fill:none" points="1796.15,1234.58 1796.15,1215.68 "/>
<path clip-path="url(#clip980)" d="M429.476 1263.19 Q425.865 1263.19 424.036 1266.76 Q422.23 1270.3 422.23 1277.43 Q422.23 1284.54 424.036 1288.1 Q425.865 1291.64 429.476 1291.64 Q433.11 1291.64 434.915 1288.1 Q436.744 1284.54 436.744 1277.43 Q436.744 1270.3 434.915 1266.76 Q433.11 1263.19 429.476 1263.19 M429.476 1259.49 Q435.286 1259.49 438.341 1264.1 Q441.42 1268.68 441.42 1277.43 Q441.42 1286.16 438.341 1290.76 Q435.286 1295.35 429.476 1295.35 Q423.666 1295.35 420.587 1290.76 Q417.531 1286.16 417.531 1277.43 Q417.531 1268.68 420.587 1264.1 Q423.666 1259.49 429.476 1259.49 Z" fill="#000000" fill-rule="nonzero" fill-opacity="1" /><path clip-path="url(#clip980)" d="M449.638 1288.8 L454.522 1288.8 L454.522 1294.67 L449.638 1294.67 L449.638 1288.8 Z" fill="#000000" fill-rule="nonzero" fill-opacity="1" /><path clip-path="url(#clip980)" d="M464.846 1293.96 L464.846 1289.7 Q466.605 1290.53 468.411 1290.97 Q470.216 1291.41 471.952 1291.41 Q476.582 1291.41 479.012 1288.31 Q481.466 1285.18 481.813 1278.84 Q480.471 1280.83 478.411 1281.9 Q476.35 1282.96 473.85 1282.96 Q468.665 1282.96 465.633 1279.84 Q462.624 1276.69 462.624 1271.25 Q462.624 1265.92 465.772 1262.71 Q468.92 1259.49 474.151 1259.49 Q480.147 1259.49 483.295 1264.1 Q486.466 1268.68 486.466 1277.43 Q486.466 1285.6 482.577 1290.48 Q478.712 1295.35 472.161 1295.35 Q470.401 1295.35 468.596 1295 Q466.79 1294.65 464.846 1293.96 M474.151 1279.3 Q477.3 1279.3 479.128 1277.15 Q480.98 1275 480.98 1271.25 Q480.98 1267.52 479.128 1265.37 Q477.3 1263.19 474.151 1263.19 Q471.003 1263.19 469.151 1265.37 Q467.323 1267.52 467.323 1271.25 Q467.323 1275 469.151 1277.15 Q471.003 1279.3 474.151 1279.3 Z" fill="#000000" fill-rule="nonzero" fill-opacity="1" /><path clip-path="url(#clip980)" d="M755.988 1290.74 L763.627 1290.74 L763.627 1264.37 L755.317 1266.04 L755.317 1261.78 L763.581 1260.11 L768.257 1260.11 L768.257 1290.74 L775.896 1290.74 L775.896 1294.67 L755.988 1294.67 L755.988 1290.74 Z" fill="#000000" fill-rule="nonzero" fill-opacity="1" /><path clip-path="url(#clip980)" d="M785.34 1288.8 L790.224 1288.8 L790.224 1294.67 L785.34 1294.67 L785.34 1288.8 Z" fill="#000000" fill-rule="nonzero" fill-opacity="1" /><path clip-path="url(#clip980)" d="M804.437 1290.74 L820.757 1290.74 L820.757 1294.67 L798.812 1294.67 L798.812 1290.74 Q801.474 1287.99 806.058 1283.36 Q810.664 1278.7 811.845 1277.36 Q814.09 1274.84 814.97 1273.1 Q815.872 1271.34 815.872 1269.65 Q815.872 1266.9 813.928 1265.16 Q812.007 1263.42 808.905 1263.42 Q806.706 1263.42 804.252 1264.19 Q801.821 1264.95 799.044 1266.5 L799.044 1261.78 Q801.868 1260.65 804.321 1260.07 Q806.775 1259.49 808.812 1259.49 Q814.183 1259.49 817.377 1262.17 Q820.571 1264.86 820.571 1269.35 Q820.571 1271.48 819.761 1273.4 Q818.974 1275.3 816.868 1277.89 Q816.289 1278.56 813.187 1281.78 Q810.085 1284.98 804.437 1290.74 Z" fill="#000000" fill-rule="nonzero" fill-opacity="1" /><path clip-path="url(#clip980)" d="M1091.73 1290.74 L1099.36 1290.74 L1099.36 1264.37 L1091.05 1266.04 L1091.05 1261.78 L1099.32 1260.11 L1103.99 1260.11 L1103.99 1290.74 L1111.63 1290.74 L1111.63 1294.67 L1091.73 1294.67 L1091.73 1290.74 Z" fill="#000000" fill-rule="nonzero" fill-opacity="1" /><path clip-path="url(#clip980)" d="M1121.08 1288.8 L1125.96 1288.8 L1125.96 1294.67 L1121.08 1294.67 L1121.08 1288.8 Z" fill="#000000" fill-rule="nonzero" fill-opacity="1" /><path clip-path="url(#clip980)" d="M1136.19 1260.11 L1154.55 1260.11 L1154.55 1264.05 L1140.48 1264.05 L1140.48 1272.52 Q1141.49 1272.17 1142.51 1272.01 Q1143.53 1271.83 1144.55 1271.83 Q1150.34 1271.83 1153.72 1275 Q1157.1 1278.17 1157.1 1283.59 Q1157.1 1289.17 1153.62 1292.27 Q1150.15 1295.35 1143.83 1295.35 Q1141.66 1295.35 1139.39 1294.98 Q1137.14 1294.61 1134.73 1293.86 L1134.73 1289.17 Q1136.82 1290.3 1139.04 1290.86 Q1141.26 1291.41 1143.74 1291.41 Q1147.74 1291.41 1150.08 1289.3 Q1152.42 1287.2 1152.42 1283.59 Q1152.42 1279.98 1150.08 1277.87 Q1147.74 1275.76 1143.74 1275.76 Q1141.86 1275.76 1139.99 1276.18 Q1138.14 1276.6 1136.19 1277.48 L1136.19 1260.11 Z" fill="#000000" fill-rule="nonzero" fill-opacity="1" /><path clip-path="url(#clip980)" d="M1427.31 1290.74 L1434.95 1290.74 L1434.95 1264.37 L1426.64 1266.04 L1426.64 1261.78 L1434.9 1260.11 L1439.58 1260.11 L1439.58 1290.74 L1447.22 1290.74 L1447.22 1294.67 L1427.31 1294.67 L1427.31 1290.74 Z" fill="#000000" fill-rule="nonzero" fill-opacity="1" /><path clip-path="url(#clip980)" d="M1456.66 1288.8 L1461.55 1288.8 L1461.55 1294.67 L1456.66 1294.67 L1456.66 1288.8 Z" fill="#000000" fill-rule="nonzero" fill-opacity="1" /><path clip-path="url(#clip980)" d="M1481.73 1278.26 Q1478.4 1278.26 1476.48 1280.05 Q1474.58 1281.83 1474.58 1284.95 Q1474.58 1288.08 1476.48 1289.86 Q1478.4 1291.64 1481.73 1291.64 Q1485.07 1291.64 1486.99 1289.86 Q1488.91 1288.05 1488.91 1284.95 Q1488.91 1281.83 1486.99 1280.05 Q1485.09 1278.26 1481.73 1278.26 M1477.06 1276.27 Q1474.05 1275.53 1472.36 1273.47 Q1470.69 1271.41 1470.69 1268.45 Q1470.69 1264.3 1473.63 1261.9 Q1476.59 1259.49 1481.73 1259.49 Q1486.9 1259.49 1489.84 1261.9 Q1492.77 1264.3 1492.77 1268.45 Q1492.77 1271.41 1491.09 1273.47 Q1489.42 1275.53 1486.43 1276.27 Q1489.81 1277.06 1491.69 1279.35 Q1493.59 1281.64 1493.59 1284.95 Q1493.59 1289.98 1490.51 1292.66 Q1487.45 1295.35 1481.73 1295.35 Q1476.02 1295.35 1472.94 1292.66 Q1469.88 1289.98 1469.88 1284.95 Q1469.88 1281.64 1471.78 1279.35 Q1473.68 1277.06 1477.06 1276.27 M1475.34 1268.89 Q1475.34 1271.57 1477.01 1273.08 Q1478.7 1274.58 1481.73 1274.58 Q1484.74 1274.58 1486.43 1273.08 Q1488.15 1271.57 1488.15 1268.89 Q1488.15 1266.2 1486.43 1264.7 Q1484.74 1263.19 1481.73 1263.19 Q1478.7 1263.19 1477.01 1264.7 Q1475.34 1266.2 1475.34 1268.89 Z" fill="#000000" fill-rule="nonzero" fill-opacity="1" /><path clip-path="url(#clip980)" d="M1768 1290.74 L1784.32 1290.74 L1784.32 1294.67 L1762.38 1294.67 L1762.38 1290.74 Q1765.04 1287.99 1769.62 1283.36 Q1774.23 1278.7 1775.41 1277.36 Q1777.66 1274.84 1778.54 1273.1 Q1779.44 1271.34 1779.44 1269.65 Q1779.44 1266.9 1777.49 1265.16 Q1775.57 1263.42 1772.47 1263.42 Q1770.27 1263.42 1767.82 1264.19 Q1765.39 1264.95 1762.61 1266.5 L1762.61 1261.78 Q1765.43 1260.65 1767.89 1260.07 Q1770.34 1259.49 1772.38 1259.49 Q1777.75 1259.49 1780.94 1262.17 Q1784.14 1264.86 1784.14 1269.35 Q1784.14 1271.48 1783.33 1273.4 Q1782.54 1275.3 1780.43 1277.89 Q1779.85 1278.56 1776.75 1281.78 Q1773.65 1284.98 1768 1290.74 Z" fill="#000000" fill-rule="nonzero" fill-opacity="1" /><path clip-path="url(#clip980)" d="M1794.14 1288.8 L1799.02 1288.8 L1799.02 1294.67 L1794.14 1294.67 L1794.14 1288.8 Z" fill="#000000" fill-rule="nonzero" fill-opacity="1" /><path clip-path="url(#clip980)" d="M1810.02 1290.74 L1817.66 1290.74 L1817.66 1264.37 L1809.35 1266.04 L1809.35 1261.78 L1817.61 1260.11 L1822.29 1260.11 L1822.29 1290.74 L1829.92 1290.74 L1829.92 1294.67 L1810.02 1294.67 L1810.02 1290.74 Z" fill="#000000" fill-rule="nonzero" fill-opacity="1" /><polyline clip-path="url(#clip982)" style="stroke:#000000; stroke-linecap:round; stroke-linejoin:round; stroke-width:2; stroke-opacity:0.1; fill:none" points="183.394,1200.97 2064.76,1200.97 "/>
<polyline clip-path="url(#clip982)" style="stroke:#000000; stroke-linecap:round; stroke-linejoin:round; stroke-width:2; stroke-opacity:0.1; fill:none" points="183.394,920.943 2064.76,920.943 "/>
<polyline clip-path="url(#clip982)" style="stroke:#000000; stroke-linecap:round; stroke-linejoin:round; stroke-width:2; stroke-opacity:0.1; fill:none" points="183.394,640.911 2064.76,640.911 "/>
<polyline clip-path="url(#clip982)" style="stroke:#000000; stroke-linecap:round; stroke-linejoin:round; stroke-width:2; stroke-opacity:0.1; fill:none" points="183.394,360.88 2064.76,360.88 "/>
<polyline clip-path="url(#clip982)" style="stroke:#000000; stroke-linecap:round; stroke-linejoin:round; stroke-width:2; stroke-opacity:0.1; fill:none" points="183.394,80.8479 2064.76,80.8479 "/>
<polyline clip-path="url(#clip980)" style="stroke:#000000; stroke-linecap:round; stroke-linejoin:round; stroke-width:4; stroke-opacity:1; fill:none" points="183.394,1234.58 183.394,47.2441 "/>
<polyline clip-path="url(#clip980)" style="stroke:#000000; stroke-linecap:round; stroke-linejoin:round; stroke-width:4; stroke-opacity:1; fill:none" points="183.394,1200.97 202.292,1200.97 "/>
<polyline clip-path="url(#clip980)" style="stroke:#000000; stroke-linecap:round; stroke-linejoin:round; stroke-width:4; stroke-opacity:1; fill:none" points="183.394,920.943 202.292,920.943 "/>
<polyline clip-path="url(#clip980)" style="stroke:#000000; stroke-linecap:round; stroke-linejoin:round; stroke-width:4; stroke-opacity:1; fill:none" points="183.394,640.911 202.292,640.911 "/>
<polyline clip-path="url(#clip980)" style="stroke:#000000; stroke-linecap:round; stroke-linejoin:round; stroke-width:4; stroke-opacity:1; fill:none" points="183.394,360.88 202.292,360.88 "/>
<polyline clip-path="url(#clip980)" style="stroke:#000000; stroke-linecap:round; stroke-linejoin:round; stroke-width:4; stroke-opacity:1; fill:none" points="183.394,80.8479 202.292,80.8479 "/>
<path clip-path="url(#clip980)" d="M64.3765 1186.77 Q60.7654 1186.77 58.9367 1190.34 Q57.1312 1193.88 57.1312 1201.01 Q57.1312 1208.12 58.9367 1211.68 Q60.7654 1215.22 64.3765 1215.22 Q68.0107 1215.22 69.8163 1211.68 Q71.645 1208.12 71.645 1201.01 Q71.645 1193.88 69.8163 1190.34 Q68.0107 1186.77 64.3765 1186.77 M64.3765 1183.07 Q70.1867 1183.07 73.2422 1187.68 Q76.3209 1192.26 76.3209 1201.01 Q76.3209 1209.74 73.2422 1214.34 Q70.1867 1218.93 64.3765 1218.93 Q58.5664 1218.93 55.4877 1214.34 Q52.4321 1209.74 52.4321 1201.01 Q52.4321 1192.26 55.4877 1187.68 Q58.5664 1183.07 64.3765 1183.07 Z" fill="#000000" fill-rule="nonzero" fill-opacity="1" /><path clip-path="url(#clip980)" d="M84.5384 1212.38 L89.4227 1212.38 L89.4227 1218.25 L84.5384 1218.25 L84.5384 1212.38 Z" fill="#000000" fill-rule="nonzero" fill-opacity="1" /><path clip-path="url(#clip980)" d="M109.608 1186.77 Q105.997 1186.77 104.168 1190.34 Q102.362 1193.88 102.362 1201.01 Q102.362 1208.12 104.168 1211.68 Q105.997 1215.22 109.608 1215.22 Q113.242 1215.22 115.048 1211.68 Q116.876 1208.12 116.876 1201.01 Q116.876 1193.88 115.048 1190.34 Q113.242 1186.77 109.608 1186.77 M109.608 1183.07 Q115.418 1183.07 118.473 1187.68 Q121.552 1192.26 121.552 1201.01 Q121.552 1209.74 118.473 1214.34 Q115.418 1218.93 109.608 1218.93 Q103.798 1218.93 100.719 1214.34 Q97.6634 1209.74 97.6634 1201.01 Q97.6634 1192.26 100.719 1187.68 Q103.798 1183.07 109.608 1183.07 Z" fill="#000000" fill-rule="nonzero" fill-opacity="1" /><path clip-path="url(#clip980)" d="M139.77 1186.77 Q136.159 1186.77 134.33 1190.34 Q132.524 1193.88 132.524 1201.01 Q132.524 1208.12 134.33 1211.68 Q136.159 1215.22 139.77 1215.22 Q143.404 1215.22 145.209 1211.68 Q147.038 1208.12 147.038 1201.01 Q147.038 1193.88 145.209 1190.34 Q143.404 1186.77 139.77 1186.77 M139.77 1183.07 Q145.58 1183.07 148.635 1187.68 Q151.714 1192.26 151.714 1201.01 Q151.714 1209.74 148.635 1214.34 Q145.58 1218.93 139.77 1218.93 Q133.959 1218.93 130.881 1214.34 Q127.825 1209.74 127.825 1201.01 Q127.825 1192.26 130.881 1187.68 Q133.959 1183.07 139.77 1183.07 Z" fill="#000000" fill-rule="nonzero" fill-opacity="1" /><path clip-path="url(#clip980)" d="M65.3719 906.742 Q61.7608 906.742 59.9321 910.307 Q58.1265 913.848 58.1265 920.978 Q58.1265 928.084 59.9321 931.649 Q61.7608 935.191 65.3719 935.191 Q69.0061 935.191 70.8117 931.649 Q72.6404 928.084 72.6404 920.978 Q72.6404 913.848 70.8117 910.307 Q69.0061 906.742 65.3719 906.742 M65.3719 903.038 Q71.182 903.038 74.2376 907.645 Q77.3163 912.228 77.3163 920.978 Q77.3163 929.705 74.2376 934.311 Q71.182 938.894 65.3719 938.894 Q59.5617 938.894 56.483 934.311 Q53.4275 929.705 53.4275 920.978 Q53.4275 912.228 56.483 907.645 Q59.5617 903.038 65.3719 903.038 Z" fill="#000000" fill-rule="nonzero" fill-opacity="1" /><path clip-path="url(#clip980)" d="M85.5338 932.344 L90.418 932.344 L90.418 938.223 L85.5338 938.223 L85.5338 932.344 Z" fill="#000000" fill-rule="nonzero" fill-opacity="1" /><path clip-path="url(#clip980)" d="M104.631 934.288 L120.95 934.288 L120.95 938.223 L99.006 938.223 L99.006 934.288 Q101.668 931.533 106.251 926.904 Q110.858 922.251 112.038 920.908 Q114.284 918.385 115.163 916.649 Q116.066 914.89 116.066 913.2 Q116.066 910.446 114.122 908.709 Q112.2 906.973 109.098 906.973 Q106.899 906.973 104.446 907.737 Q102.015 908.501 99.2374 910.052 L99.2374 905.33 Q102.061 904.196 104.515 903.617 Q106.969 903.038 109.006 903.038 Q114.376 903.038 117.571 905.723 Q120.765 908.409 120.765 912.899 Q120.765 915.029 119.955 916.95 Q119.168 918.848 117.061 921.441 Q116.483 922.112 113.381 925.33 Q110.279 928.524 104.631 934.288 Z" fill="#000000" fill-rule="nonzero" fill-opacity="1" /><path clip-path="url(#clip980)" d="M130.811 903.663 L149.168 903.663 L149.168 907.598 L135.094 907.598 L135.094 916.071 Q136.112 915.723 137.131 915.561 Q138.149 915.376 139.168 915.376 Q144.955 915.376 148.334 918.547 Q151.714 921.719 151.714 927.135 Q151.714 932.714 148.242 935.816 Q144.77 938.894 138.45 938.894 Q136.274 938.894 134.006 938.524 Q131.76 938.154 129.353 937.413 L129.353 932.714 Q131.436 933.848 133.659 934.404 Q135.881 934.959 138.358 934.959 Q142.362 934.959 144.7 932.853 Q147.038 930.746 147.038 927.135 Q147.038 923.524 144.7 921.418 Q142.362 919.311 138.358 919.311 Q136.483 919.311 134.608 919.728 Q132.756 920.145 130.811 921.024 L130.811 903.663 Z" fill="#000000" fill-rule="nonzero" fill-opacity="1" /><path clip-path="url(#clip980)" d="M64.3765 626.71 Q60.7654 626.71 58.9367 630.275 Q57.1312 633.817 57.1312 640.946 Q57.1312 648.053 58.9367 651.617 Q60.7654 655.159 64.3765 655.159 Q68.0107 655.159 69.8163 651.617 Q71.645 648.053 71.645 640.946 Q71.645 633.817 69.8163 630.275 Q68.0107 626.71 64.3765 626.71 M64.3765 623.006 Q70.1867 623.006 73.2422 627.613 Q76.3209 632.196 76.3209 640.946 Q76.3209 649.673 73.2422 654.279 Q70.1867 658.863 64.3765 658.863 Q58.5664 658.863 55.4877 654.279 Q52.4321 649.673 52.4321 640.946 Q52.4321 632.196 55.4877 627.613 Q58.5664 623.006 64.3765 623.006 Z" fill="#000000" fill-rule="nonzero" fill-opacity="1" /><path clip-path="url(#clip980)" d="M84.5384 652.312 L89.4227 652.312 L89.4227 658.191 L84.5384 658.191 L84.5384 652.312 Z" fill="#000000" fill-rule="nonzero" fill-opacity="1" /><path clip-path="url(#clip980)" d="M99.6541 623.631 L118.01 623.631 L118.01 627.567 L103.936 627.567 L103.936 636.039 Q104.955 635.692 105.974 635.53 Q106.992 635.344 108.011 635.344 Q113.798 635.344 117.177 638.516 Q120.557 641.687 120.557 647.104 Q120.557 652.682 117.085 655.784 Q113.612 658.863 107.293 658.863 Q105.117 658.863 102.849 658.492 Q100.603 658.122 98.1958 657.381 L98.1958 652.682 Q100.279 653.816 102.501 654.372 Q104.724 654.928 107.2 654.928 Q111.205 654.928 113.543 652.821 Q115.881 650.715 115.881 647.104 Q115.881 643.492 113.543 641.386 Q111.205 639.28 107.2 639.28 Q105.325 639.28 103.45 639.696 Q101.599 640.113 99.6541 640.992 L99.6541 623.631 Z" fill="#000000" fill-rule="nonzero" fill-opacity="1" /><path clip-path="url(#clip980)" d="M139.77 626.71 Q136.159 626.71 134.33 630.275 Q132.524 633.817 132.524 640.946 Q132.524 648.053 134.33 651.617 Q136.159 655.159 139.77 655.159 Q143.404 655.159 145.209 651.617 Q147.038 648.053 147.038 640.946 Q147.038 633.817 145.209 630.275 Q143.404 626.71 139.77 626.71 M139.77 623.006 Q145.58 623.006 148.635 627.613 Q151.714 632.196 151.714 640.946 Q151.714 649.673 148.635 654.279 Q145.58 658.863 139.77 658.863 Q133.959 658.863 130.881 654.279 Q127.825 649.673 127.825 640.946 Q127.825 632.196 130.881 627.613 Q133.959 623.006 139.77 623.006 Z" fill="#000000" fill-rule="nonzero" fill-opacity="1" /><path clip-path="url(#clip980)" d="M65.3719 346.678 Q61.7608 346.678 59.9321 350.243 Q58.1265 353.785 58.1265 360.914 Q58.1265 368.021 59.9321 371.586 Q61.7608 375.127 65.3719 375.127 Q69.0061 375.127 70.8117 371.586 Q72.6404 368.021 72.6404 360.914 Q72.6404 353.785 70.8117 350.243 Q69.0061 346.678 65.3719 346.678 M65.3719 342.975 Q71.182 342.975 74.2376 347.581 Q77.3163 352.164 77.3163 360.914 Q77.3163 369.641 74.2376 374.248 Q71.182 378.831 65.3719 378.831 Q59.5617 378.831 56.483 374.248 Q53.4275 369.641 53.4275 360.914 Q53.4275 352.164 56.483 347.581 Q59.5617 342.975 65.3719 342.975 Z" fill="#000000" fill-rule="nonzero" fill-opacity="1" /><path clip-path="url(#clip980)" d="M85.5338 372.28 L90.418 372.28 L90.418 378.16 L85.5338 378.16 L85.5338 372.28 Z" fill="#000000" fill-rule="nonzero" fill-opacity="1" /><path clip-path="url(#clip980)" d="M99.4226 343.6 L121.645 343.6 L121.645 345.59 L109.098 378.16 L104.214 378.16 L116.02 347.535 L99.4226 347.535 L99.4226 343.6 Z" fill="#000000" fill-rule="nonzero" fill-opacity="1" /><path clip-path="url(#clip980)" d="M130.811 343.6 L149.168 343.6 L149.168 347.535 L135.094 347.535 L135.094 356.007 Q136.112 355.66 137.131 355.498 Q138.149 355.313 139.168 355.313 Q144.955 355.313 148.334 358.484 Q151.714 361.655 151.714 367.072 Q151.714 372.65 148.242 375.752 Q144.77 378.831 138.45 378.831 Q136.274 378.831 134.006 378.461 Q131.76 378.09 129.353 377.349 L129.353 372.65 Q131.436 373.785 133.659 374.34 Q135.881 374.896 138.358 374.896 Q142.362 374.896 144.7 372.789 Q147.038 370.683 147.038 367.072 Q147.038 363.461 144.7 361.354 Q142.362 359.248 138.358 359.248 Q136.483 359.248 134.608 359.664 Q132.756 360.081 130.811 360.961 L130.811 343.6 Z" fill="#000000" fill-rule="nonzero" fill-opacity="1" /><path clip-path="url(#clip980)" d="M55.1867 94.1927 L62.8256 94.1927 L62.8256 67.8271 L54.5154 69.4938 L54.5154 65.2346 L62.7793 63.5679 L67.4552 63.5679 L67.4552 94.1927 L75.094 94.1927 L75.094 98.1279 L55.1867 98.1279 L55.1867 94.1927 Z" fill="#000000" fill-rule="nonzero" fill-opacity="1" /><path clip-path="url(#clip980)" d="M84.5384 92.2483 L89.4227 92.2483 L89.4227 98.1279 L84.5384 98.1279 L84.5384 92.2483 Z" fill="#000000" fill-rule="nonzero" fill-opacity="1" /><path clip-path="url(#clip980)" d="M109.608 66.6466 Q105.997 66.6466 104.168 70.2114 Q102.362 73.753 102.362 80.8826 Q102.362 87.9891 104.168 91.5539 Q105.997 95.0955 109.608 95.0955 Q113.242 95.0955 115.048 91.5539 Q116.876 87.9891 116.876 80.8826 Q116.876 73.753 115.048 70.2114 Q113.242 66.6466 109.608 66.6466 M109.608 62.9429 Q115.418 62.9429 118.473 67.5494 Q121.552 72.1327 121.552 80.8826 Q121.552 89.6094 118.473 94.2159 Q115.418 98.7992 109.608 98.7992 Q103.798 98.7992 100.719 94.2159 Q97.6634 89.6094 97.6634 80.8826 Q97.6634 72.1327 100.719 67.5494 Q103.798 62.9429 109.608 62.9429 Z" fill="#000000" fill-rule="nonzero" fill-opacity="1" /><path clip-path="url(#clip980)" d="M139.77 66.6466 Q136.159 66.6466 134.33 70.2114 Q132.524 73.753 132.524 80.8826 Q132.524 87.9891 134.33 91.5539 Q136.159 95.0955 139.77 95.0955 Q143.404 95.0955 145.209 91.5539 Q147.038 87.9891 147.038 80.8826 Q147.038 73.753 145.209 70.2114 Q143.404 66.6466 139.77 66.6466 M139.77 62.9429 Q145.58 62.9429 148.635 67.5494 Q151.714 72.1327 151.714 80.8826 Q151.714 89.6094 148.635 94.2159 Q145.58 98.7992 139.77 98.7992 Q133.959 98.7992 130.881 94.2159 Q127.825 89.6094 127.825 80.8826 Q127.825 72.1327 130.881 67.5494 Q133.959 62.9429 139.77 62.9429 Z" fill="#000000" fill-rule="nonzero" fill-opacity="1" /><polyline clip-path="url(#clip982)" style="stroke:#009af9; stroke-linecap:round; stroke-linejoin:round; stroke-width:4; stroke-opacity:1; fill:none" points="564.011,1200.97 571.304,1193.68 638.735,1126.25 679.258,1085.73 713.52,1051.47 750.738,1014.25 785.05,979.937 821.836,943.151 864.455,900.531 902.331,862.655 935.544,829.442 971.756,793.23 1008.18,756.804 1048.46,716.529 1086.78,678.209 1126.62,638.365 1160.16,604.825 1201.11,563.876 1238.62,526.364 1273.27,491.719 1308.36,456.625 1347.69,417.294 1383.33,381.654 1424.14,340.849 1461.92,303.067 1499.17,265.818 1535.33,229.653 1572.41,192.578 1613.03,151.959 1672.03,92.9531 1684.14,80.8479 "/>
<path clip-path="url(#clip982)" d="M564.011 1200.97 L567.658 1200.96 L571.304 1200.93 L605.02 1199.47 L638.735 1195.99 L658.997 1192.92 L679.258 1189.12 L696.389 1185.33 L713.52 1181.02 L750.738 1169.85 L785.05 1157.36 L821.836 1141.63 L864.455 1120.39 L902.331 1098.79 L935.544 1077.74 L971.756 1052.55 L1008.18 1024.84 L1048.46 991.456 L1086.78 956.999 L1126.62 918.391 L1160.16 883.694 L1201.11 838.61 L1238.62 794.682 L1273.27 751.88 L1308.36 706.338 L1347.69 652.684 L1383.33 601.68 L1424.14 540.499 L1461.92 481.2 L1499.17 420.243 L1535.33 358.689 L1553.87 326.233 L1572.41 293.164 L1592.72 256.228 L1613.03 218.556 L1642.53 162.519 L1672.03 104.928 L1678.09 92.9204 L1684.14 80.8479 L1684.14 80.8479 L1678.09 86.9005 L1672.03 92.9531 L1642.53 122.456 L1613.03 151.959 L1592.72 172.269 L1572.41 192.578 L1553.87 211.115 L1535.33 229.653 L1499.17 265.818 L1461.92 303.067 L1424.14 340.849 L1383.33 381.654 L1347.69 417.294 L1308.36 456.625 L1273.27 491.719 L1238.62 526.364 L1201.11 563.876 L1160.16 604.825 L1126.62 638.365 L1086.78 678.209 L1048.46 716.529 L1008.18 756.804 L971.756 793.23 L935.544 829.442 L902.331 862.655 L864.455 900.531 L821.836 943.151 L785.05 979.937 L750.738 1014.25 L713.52 1051.47 L696.389 1068.6 L679.258 1085.73 L658.997 1105.99 L638.735 1126.25 L605.02 1159.97 L571.304 1193.68 L567.658 1197.33 L564.011 1200.97  Z" fill="#009af9" fill-rule="evenodd" fill-opacity="0.3"/>
<polyline clip-path="url(#clip982)" style="stroke:#009af9; stroke-linecap:round; stroke-linejoin:round; stroke-width:4; stroke-opacity:1; fill:none" points="564.011,1200.97 567.658,1200.96 571.304,1200.93 605.02,1199.47 638.735,1195.99 658.997,1192.92 679.258,1189.12 696.389,1185.33 713.52,1181.02 750.738,1169.85 785.05,1157.36 821.836,1141.63 864.455,1120.39 902.331,1098.79 935.544,1077.74 971.756,1052.55 1008.18,1024.84 1048.46,991.456 1086.78,956.999 1126.62,918.391 1160.16,883.694 1201.11,838.61 1238.62,794.682 1273.27,751.88 1308.36,706.338 1347.69,652.684 1383.33,601.68 1424.14,540.499 1461.92,481.2 1499.17,420.243 1535.33,358.689 1553.87,326.233 1572.41,293.164 1592.72,256.228 1613.03,218.556 1642.53,162.519 1672.03,104.928 1678.09,92.9204 1684.14,80.8479 "/>
<circle clip-path="url(#clip982)" cx="1124.07" cy="752.924" r="14.4" fill="#3da44d" fill-rule="evenodd" fill-opacity="1" stroke="#000000" stroke-opacity="1" stroke-width="2.688"/>
<path clip-path="url(#clip980)" d="M246.106 190.502 L652.852 190.502 L652.852 86.8219 L246.106 86.8219  Z" fill="#ffffff" fill-rule="evenodd" fill-opacity="1"/>
<polyline clip-path="url(#clip980)" style="stroke:#000000; stroke-linecap:round; stroke-linejoin:round; stroke-width:4; stroke-opacity:1; fill:none" points="246.106,190.502 652.852,190.502 652.852,86.8219 246.106,86.8219 246.106,190.502 "/>
<circle clip-path="url(#clip980)" cx="329.722" cy="138.662" r="20.48" fill="#3da44d" fill-rule="evenodd" fill-opacity="1" stroke="#000000" stroke-opacity="1" stroke-width="3.82293"/>
<path clip-path="url(#clip980)" d="M433.847 131.011 L433.847 134.993 Q432.042 133.998 430.213 133.511 Q428.408 133.002 426.556 133.002 Q422.412 133.002 420.121 135.641 Q417.829 138.257 417.829 143.002 Q417.829 147.748 420.121 150.386 Q422.412 153.002 426.556 153.002 Q428.408 153.002 430.213 152.516 Q432.042 152.007 433.847 151.011 L433.847 154.947 Q432.065 155.78 430.144 156.197 Q428.246 156.613 426.093 156.613 Q420.236 156.613 416.787 152.933 Q413.338 149.252 413.338 143.002 Q413.338 136.66 416.81 133.025 Q420.306 129.391 426.371 129.391 Q428.338 129.391 430.213 129.808 Q432.088 130.201 433.847 131.011 Z" fill="#000000" fill-rule="nonzero" fill-opacity="1" /><path clip-path="url(#clip980)" d="M463.431 141.914 L463.431 143.998 L443.847 143.998 Q444.125 148.396 446.486 150.71 Q448.87 153.002 453.107 153.002 Q455.56 153.002 457.852 152.4 Q460.167 151.798 462.435 150.595 L462.435 154.622 Q460.144 155.595 457.736 156.104 Q455.329 156.613 452.852 156.613 Q446.648 156.613 443.014 153.002 Q439.403 149.391 439.403 143.234 Q439.403 136.868 442.829 133.141 Q446.278 129.391 452.111 129.391 Q457.343 129.391 460.375 132.771 Q463.431 136.127 463.431 141.914 M459.171 140.664 Q459.125 137.169 457.204 135.086 Q455.306 133.002 452.157 133.002 Q448.593 133.002 446.44 135.016 Q444.31 137.03 443.986 140.687 L459.171 140.664 Z" fill="#000000" fill-rule="nonzero" fill-opacity="1" /><path clip-path="url(#clip980)" d="M491.972 140.294 L491.972 155.942 L487.713 155.942 L487.713 140.433 Q487.713 136.752 486.278 134.924 Q484.842 133.095 481.972 133.095 Q478.523 133.095 476.532 135.294 Q474.542 137.493 474.542 141.289 L474.542 155.942 L470.259 155.942 L470.259 130.016 L474.542 130.016 L474.542 134.044 Q476.069 131.706 478.13 130.549 Q480.213 129.391 482.921 129.391 Q487.389 129.391 489.68 132.169 Q491.972 134.924 491.972 140.294 Z" fill="#000000" fill-rule="nonzero" fill-opacity="1" /><path clip-path="url(#clip980)" d="M504.68 122.655 L504.68 130.016 L513.453 130.016 L513.453 133.326 L504.68 133.326 L504.68 147.4 Q504.68 150.572 505.537 151.474 Q506.416 152.377 509.078 152.377 L513.453 152.377 L513.453 155.942 L509.078 155.942 Q504.148 155.942 502.273 154.113 Q500.398 152.261 500.398 147.4 L500.398 133.326 L497.273 133.326 L497.273 130.016 L500.398 130.016 L500.398 122.655 L504.68 122.655 Z" fill="#000000" fill-rule="nonzero" fill-opacity="1" /><path clip-path="url(#clip980)" d="M534.078 133.998 Q533.361 133.581 532.504 133.396 Q531.671 133.187 530.652 133.187 Q527.041 133.187 525.097 135.549 Q523.176 137.886 523.176 142.285 L523.176 155.942 L518.893 155.942 L518.893 130.016 L523.176 130.016 L523.176 134.044 Q524.518 131.683 526.671 130.549 Q528.824 129.391 531.902 129.391 Q532.342 129.391 532.875 129.461 Q533.407 129.507 534.055 129.623 L534.078 133.998 Z" fill="#000000" fill-rule="nonzero" fill-opacity="1" /><path clip-path="url(#clip980)" d="M547.55 133.002 Q544.125 133.002 542.134 135.687 Q540.143 138.349 540.143 143.002 Q540.143 147.655 542.111 150.34 Q544.101 153.002 547.55 153.002 Q550.953 153.002 552.944 150.317 Q554.935 147.632 554.935 143.002 Q554.935 138.396 552.944 135.711 Q550.953 133.002 547.55 133.002 M547.55 129.391 Q553.106 129.391 556.277 133.002 Q559.449 136.613 559.449 143.002 Q559.449 149.368 556.277 153.002 Q553.106 156.613 547.55 156.613 Q541.972 156.613 538.801 153.002 Q535.652 149.368 535.652 143.002 Q535.652 136.613 538.801 133.002 Q541.972 129.391 547.55 129.391 Z" fill="#000000" fill-rule="nonzero" fill-opacity="1" /><path clip-path="url(#clip980)" d="M566.509 130.016 L570.768 130.016 L570.768 155.942 L566.509 155.942 L566.509 130.016 M566.509 119.924 L570.768 119.924 L570.768 125.317 L566.509 125.317 L566.509 119.924 Z" fill="#000000" fill-rule="nonzero" fill-opacity="1" /><path clip-path="url(#clip980)" d="M596.74 133.951 L596.74 119.924 L600.999 119.924 L600.999 155.942 L596.74 155.942 L596.74 152.053 Q595.397 154.368 593.337 155.502 Q591.3 156.613 588.43 156.613 Q583.731 156.613 580.768 152.863 Q577.828 149.113 577.828 143.002 Q577.828 136.891 580.768 133.141 Q583.731 129.391 588.43 129.391 Q591.3 129.391 593.337 130.525 Q595.397 131.636 596.74 133.951 M582.226 143.002 Q582.226 147.701 584.148 150.386 Q586.092 153.048 589.472 153.048 Q592.851 153.048 594.796 150.386 Q596.74 147.701 596.74 143.002 Q596.74 138.303 594.796 135.641 Q592.851 132.956 589.472 132.956 Q586.092 132.956 584.148 135.641 Q582.226 138.303 582.226 143.002 Z" fill="#000000" fill-rule="nonzero" fill-opacity="1" /><path clip-path="url(#clip980)" d="M631.948 141.914 L631.948 143.998 L612.365 143.998 Q612.643 148.396 615.004 150.71 Q617.388 153.002 621.624 153.002 Q624.078 153.002 626.37 152.4 Q628.684 151.798 630.953 150.595 L630.953 154.622 Q628.661 155.595 626.254 156.104 Q623.846 156.613 621.37 156.613 Q615.166 156.613 611.532 153.002 Q607.921 149.391 607.921 143.234 Q607.921 136.868 611.346 133.141 Q614.795 129.391 620.629 129.391 Q625.86 129.391 628.893 132.771 Q631.948 136.127 631.948 141.914 M627.689 140.664 Q627.643 137.169 625.721 135.086 Q623.823 133.002 620.675 133.002 Q617.11 133.002 614.958 135.016 Q612.828 137.03 612.504 140.687 L627.689 140.664 Z" fill="#000000" fill-rule="nonzero" fill-opacity="1" /></svg>
