<?xml version="1.0" encoding="utf-8"?>
<svg xmlns="http://www.w3.org/2000/svg" xmlns:xlink="http://www.w3.org/1999/xlink" width="528" height="336" viewBox="0 0 2112 1344">
<defs>
  <clipPath id="clip080">
    <rect x="0" y="0" width="2112" height="1344"/>
  </clipPath>
</defs>
<path clip-path="url(#clip080)" d="M0 1344 L2112 1344 L2112 0 L0 0  Z" fill="#ffffff" fill-rule="evenodd" fill-opacity="1"/>
<defs>
  <clipPath id="clip081">
    <rect x="422" y="0" width="1479" height="1344"/>
  </clipPath>
</defs>
<path clip-path="url(#clip080)" d="M191.056 1234.58 L2064.76 1234.58 L2064.76 47.2441 L191.056 47.2441  Z" fill="#ffffff" fill-rule="evenodd" fill-opacity="1"/>
<defs>
  <clipPath id="clip082">
    <rect x="191" y="47" width="1875" height="1188"/>
  </clipPath>
</defs>
<polyline clip-path="url(#clip082)" style="stroke:#000000; stroke-linecap:round; stroke-linejoin:round; stroke-width:2; stroke-opacity:0.1; fill:none" points="244.085,1234.58 244.085,47.2441 "/>
<polyline clip-path="url(#clip082)" style="stroke:#000000; stroke-linecap:round; stroke-linejoin:round; stroke-width:2; stroke-opacity:0.1; fill:none" points="597.614,1234.58 597.614,47.2441 "/>
<polyline clip-path="url(#clip082)" style="stroke:#000000; stroke-linecap:round; stroke-linejoin:round; stroke-width:2; stroke-opacity:0.1; fill:none" points="951.142,1234.58 951.142,47.2441 "/>
<polyline clip-path="url(#clip082)" style="stroke:#000000; stroke-linecap:round; stroke-linejoin:round; stroke-width:2; stroke-opacity:0.1; fill:none" points="1304.67,1234.58 1304.67,47.2441 "/>
<polyline clip-path="url(#clip082)" style="stroke:#000000; stroke-linecap:round; stroke-linejoin:round; stroke-width:2; stroke-opacity:0.1; fill:none" points="1658.2,1234.58 1658.2,47.2441 "/>
<polyline clip-path="url(#clip082)" style="stroke:#000000; stroke-linecap:round; stroke-linejoin:round; stroke-width:2; stroke-opacity:0.1; fill:none" points="2011.73,1234.58 2011.73,47.2441 "/>
<polyline clip-path="url(#clip080)" style="stroke:#000000; stroke-linecap:round; stroke-linejoin:round; stroke-width:4; stroke-opacity:1; fill:none" points="191.056,1234.58 2064.76,1234.58 "/>
<polyline clip-path="url(#clip080)" style="stroke:#000000; stroke-linecap:round; stroke-linejoin:round; stroke-width:4; stroke-opacity:1; fill:none" points="244.085,1234.58 244.085,1215.68 "/>
<polyline clip-path="url(#clip080)" style="stroke:#000000; stroke-linecap:round; stroke-linejoin:round; stroke-width:4; stroke-opacity:1; fill:none" points="597.614,1234.58 597.614,1215.68 "/>
<polyline clip-path="url(#clip080)" style="stroke:#000000; stroke-linecap:round; stroke-linejoin:round; stroke-width:4; stroke-opacity:1; fill:none" points="951.142,1234.58 951.142,1215.68 "/>
<polyline clip-path="url(#clip080)" style="stroke:#000000; stroke-linecap:round; stroke-linejoin:round; stroke-width:4; stroke-opacity:1; fill:none" points="1304.67,1234.58 1304.67,1215.68 "/>
<polyline clip-path="url(#clip080)" style="stroke:#000000; stroke-linecap:round; stroke-linejoin:round; stroke-width:4; stroke-opacity:1; fill:none" points="1658.2,1234.58 1658.2,1215.68 "/>
<polyline clip-path="url(#clip080)" style="stroke:#000000; stroke-linecap:round; stroke-linejoin:round; stroke-width:4; stroke-opacity:1; fill:none" points="2011.73,1234.58 2011.73,1215.68 "/>
<path clip-path="url(#clip080)" d="M238.738 1290.74 L255.057 1290.74 L255.057 1294.67 L233.113 1294.67 L233.113 1290.74 Q235.775 1287.99 240.358 1283.36 Q244.965 1278.7 246.145 1277.36 Q248.391 1274.84 249.27 1273.1 Q250.173 1271.34 250.173 1269.65 Q250.173 1266.9 248.229 1265.16 Q246.307 1263.42 243.206 1263.42 Q241.007 1263.42 238.553 1264.19 Q236.122 1264.95 233.345 1266.5 L233.345 1261.78 Q236.169 1260.65 238.622 1260.07 Q241.076 1259.49 243.113 1259.49 Q248.483 1259.49 251.678 1262.17 Q254.872 1264.86 254.872 1269.35 Q254.872 1271.48 254.062 1273.4 Q253.275 1275.3 251.169 1277.89 Q250.59 1278.56 247.488 1281.78 Q244.386 1284.98 238.738 1290.74 Z" fill="#000000" fill-rule="nonzero" fill-opacity="1" /><path clip-path="url(#clip080)" d="M601.861 1276.04 Q605.218 1276.76 607.093 1279.03 Q608.991 1281.3 608.991 1284.63 Q608.991 1289.74 605.472 1292.55 Q601.954 1295.35 595.472 1295.35 Q593.296 1295.35 590.982 1294.91 Q588.69 1294.49 586.236 1293.63 L586.236 1289.12 Q588.181 1290.25 590.496 1290.83 Q592.81 1291.41 595.333 1291.41 Q599.732 1291.41 602.023 1289.67 Q604.338 1287.94 604.338 1284.63 Q604.338 1281.57 602.185 1279.86 Q600.056 1278.12 596.236 1278.12 L592.208 1278.12 L592.208 1274.28 L596.421 1274.28 Q599.87 1274.28 601.699 1272.92 Q603.528 1271.53 603.528 1268.93 Q603.528 1266.27 601.63 1264.86 Q599.755 1263.42 596.236 1263.42 Q594.315 1263.42 592.116 1263.84 Q589.917 1264.26 587.278 1265.14 L587.278 1260.97 Q589.94 1260.23 592.255 1259.86 Q594.593 1259.49 596.653 1259.49 Q601.977 1259.49 605.079 1261.92 Q608.181 1264.33 608.181 1268.45 Q608.181 1271.32 606.537 1273.31 Q604.894 1275.28 601.861 1276.04 Z" fill="#000000" fill-rule="nonzero" fill-opacity="1" /><path clip-path="url(#clip080)" d="M954.151 1264.19 L942.346 1282.64 L954.151 1282.64 L954.151 1264.19 M952.924 1260.11 L958.804 1260.11 L958.804 1282.64 L963.734 1282.64 L963.734 1286.53 L958.804 1286.53 L958.804 1294.67 L954.151 1294.67 L954.151 1286.53 L938.549 1286.53 L938.549 1282.01 L952.924 1260.11 Z" fill="#000000" fill-rule="nonzero" fill-opacity="1" /><path clip-path="url(#clip080)" d="M1294.95 1260.11 L1313.3 1260.11 L1313.3 1264.05 L1299.23 1264.05 L1299.23 1272.52 Q1300.25 1272.17 1301.27 1272.01 Q1302.29 1271.83 1303.3 1271.83 Q1309.09 1271.83 1312.47 1275 Q1315.85 1278.17 1315.85 1283.59 Q1315.85 1289.17 1312.38 1292.27 Q1308.91 1295.35 1302.59 1295.35 Q1300.41 1295.35 1298.14 1294.98 Q1295.9 1294.61 1293.49 1293.86 L1293.49 1289.17 Q1295.57 1290.3 1297.8 1290.86 Q1300.02 1291.41 1302.49 1291.41 Q1306.5 1291.41 1308.84 1289.3 Q1311.17 1287.2 1311.17 1283.59 Q1311.17 1279.98 1308.84 1277.87 Q1306.5 1275.76 1302.49 1275.76 Q1300.62 1275.76 1298.74 1276.18 Q1296.89 1276.6 1294.95 1277.48 L1294.95 1260.11 Z" fill="#000000" fill-rule="nonzero" fill-opacity="1" /><path clip-path="url(#clip080)" d="M1658.6 1275.53 Q1655.46 1275.53 1653.6 1277.68 Q1651.77 1279.84 1651.77 1283.59 Q1651.77 1287.31 1653.6 1289.49 Q1655.46 1291.64 1658.6 1291.64 Q1661.75 1291.64 1663.58 1289.49 Q1665.43 1287.31 1665.43 1283.59 Q1665.43 1279.84 1663.58 1277.68 Q1661.75 1275.53 1658.6 1275.53 M1667.89 1260.88 L1667.89 1265.14 Q1666.13 1264.3 1664.32 1263.86 Q1662.54 1263.42 1660.78 1263.42 Q1656.15 1263.42 1653.7 1266.55 Q1651.27 1269.67 1650.92 1275.99 Q1652.28 1273.98 1654.34 1272.92 Q1656.4 1271.83 1658.88 1271.83 Q1664.09 1271.83 1667.1 1275 Q1670.13 1278.15 1670.13 1283.59 Q1670.13 1288.91 1666.98 1292.13 Q1663.83 1295.35 1658.6 1295.35 Q1652.61 1295.35 1649.44 1290.76 Q1646.27 1286.16 1646.27 1277.43 Q1646.27 1269.24 1650.15 1264.37 Q1654.04 1259.49 1660.59 1259.49 Q1662.35 1259.49 1664.14 1259.84 Q1665.94 1260.18 1667.89 1260.88 Z" fill="#000000" fill-rule="nonzero" fill-opacity="1" /><path clip-path="url(#clip080)" d="M2000.62 1260.11 L2022.84 1260.11 L2022.84 1262.11 L2010.29 1294.67 L2005.41 1294.67 L2017.21 1264.05 L2000.62 1264.05 L2000.62 1260.11 Z" fill="#000000" fill-rule="nonzero" fill-opacity="1" /><polyline clip-path="url(#clip082)" style="stroke:#000000; stroke-linecap:round; stroke-linejoin:round; stroke-width:2; stroke-opacity:0.1; fill:none" points="191.056,1086.68 2064.76,1086.68 "/>
<polyline clip-path="url(#clip082)" style="stroke:#000000; stroke-linecap:round; stroke-linejoin:round; stroke-width:2; stroke-opacity:0.1; fill:none" points="191.056,858.086 2064.76,858.086 "/>
<polyline clip-path="url(#clip082)" style="stroke:#000000; stroke-linecap:round; stroke-linejoin:round; stroke-width:2; stroke-opacity:0.1; fill:none" points="191.056,629.486 2064.76,629.486 "/>
<polyline clip-path="url(#clip082)" style="stroke:#000000; stroke-linecap:round; stroke-linejoin:round; stroke-width:2; stroke-opacity:0.1; fill:none" points="191.056,400.887 2064.76,400.887 "/>
<polyline clip-path="url(#clip082)" style="stroke:#000000; stroke-linecap:round; stroke-linejoin:round; stroke-width:2; stroke-opacity:0.1; fill:none" points="191.056,172.288 2064.76,172.288 "/>
<polyline clip-path="url(#clip080)" style="stroke:#000000; stroke-linecap:round; stroke-linejoin:round; stroke-width:4; stroke-opacity:1; fill:none" points="191.056,1234.58 191.056,47.2441 "/>
<polyline clip-path="url(#clip080)" style="stroke:#000000; stroke-linecap:round; stroke-linejoin:round; stroke-width:4; stroke-opacity:1; fill:none" points="191.056,1086.68 209.954,1086.68 "/>
<polyline clip-path="url(#clip080)" style="stroke:#000000; stroke-linecap:round; stroke-linejoin:round; stroke-width:4; stroke-opacity:1; fill:none" points="191.056,858.086 209.954,858.086 "/>
<polyline clip-path="url(#clip080)" style="stroke:#000000; stroke-linecap:round; stroke-linejoin:round; stroke-width:4; stroke-opacity:1; fill:none" points="191.056,629.486 209.954,629.486 "/>
<polyline clip-path="url(#clip080)" style="stroke:#000000; stroke-linecap:round; stroke-linejoin:round; stroke-width:4; stroke-opacity:1; fill:none" points="191.056,400.887 209.954,400.887 "/>
<polyline clip-path="url(#clip080)" style="stroke:#000000; stroke-linecap:round; stroke-linejoin:round; stroke-width:4; stroke-opacity:1; fill:none" points="191.056,172.288 209.954,172.288 "/>
<path clip-path="url(#clip080)" d="M52.4321 1087.14 L82.1079 1087.14 L82.1079 1091.07 L52.4321 1091.07 L52.4321 1087.14 Z" fill="#000000" fill-rule="nonzero" fill-opacity="1" /><path clip-path="url(#clip080)" d="M92.2467 1069.4 L110.603 1069.4 L110.603 1073.34 L96.5291 1073.34 L96.5291 1081.81 Q97.5476 1081.46 98.5661 1081.3 Q99.5847 1081.12 100.603 1081.12 Q106.39 1081.12 109.77 1084.29 Q113.149 1087.46 113.149 1092.88 Q113.149 1098.46 109.677 1101.56 Q106.205 1104.64 99.8856 1104.64 Q97.7097 1104.64 95.4412 1104.27 Q93.1958 1103.9 90.7884 1103.15 L90.7884 1098.46 Q92.8717 1099.59 95.0939 1100.15 Q97.3161 1100.7 99.793 1100.7 Q103.798 1100.7 106.136 1098.59 Q108.473 1096.49 108.473 1092.88 Q108.473 1089.27 106.136 1087.16 Q103.798 1085.05 99.793 1085.05 Q97.918 1085.05 96.043 1085.47 Q94.1912 1085.89 92.2467 1086.77 L92.2467 1069.4 Z" fill="#000000" fill-rule="nonzero" fill-opacity="1" /><path clip-path="url(#clip080)" d="M122.362 1098.09 L127.247 1098.09 L127.247 1103.96 L122.362 1103.96 L122.362 1098.09 Z" fill="#000000" fill-rule="nonzero" fill-opacity="1" /><path clip-path="url(#clip080)" d="M147.432 1072.48 Q143.821 1072.48 141.992 1076.05 Q140.186 1079.59 140.186 1086.72 Q140.186 1093.83 141.992 1097.39 Q143.821 1100.93 147.432 1100.93 Q151.066 1100.93 152.871 1097.39 Q154.7 1093.83 154.7 1086.72 Q154.7 1079.59 152.871 1076.05 Q151.066 1072.48 147.432 1072.48 M147.432 1068.78 Q153.242 1068.78 156.297 1073.39 Q159.376 1077.97 159.376 1086.72 Q159.376 1095.45 156.297 1100.05 Q153.242 1104.64 147.432 1104.64 Q141.621 1104.64 138.543 1100.05 Q135.487 1095.45 135.487 1086.72 Q135.487 1077.97 138.543 1073.39 Q141.621 1068.78 147.432 1068.78 Z" fill="#000000" fill-rule="nonzero" fill-opacity="1" /><path clip-path="url(#clip080)" d="M53.4275 858.537 L83.1033 858.537 L83.1033 862.472 L53.4275 862.472 L53.4275 858.537 Z" fill="#000000" fill-rule="nonzero" fill-opacity="1" /><path clip-path="url(#clip080)" d="M97.2236 871.43 L113.543 871.43 L113.543 875.366 L91.5986 875.366 L91.5986 871.43 Q94.2606 868.676 98.8439 864.046 Q103.45 859.393 104.631 858.051 Q106.876 855.528 107.756 853.792 Q108.659 852.032 108.659 850.342 Q108.659 847.588 106.714 845.852 Q104.793 844.116 101.691 844.116 Q99.4921 844.116 97.0384 844.88 Q94.6078 845.643 91.8301 847.194 L91.8301 842.472 Q94.6541 841.338 97.1078 840.759 Q99.5615 840.181 101.599 840.181 Q106.969 840.181 110.163 842.866 Q113.358 845.551 113.358 850.042 Q113.358 852.171 112.548 854.092 Q111.761 855.991 109.654 858.583 Q109.075 859.254 105.974 862.472 Q102.872 865.666 97.2236 871.43 Z" fill="#000000" fill-rule="nonzero" fill-opacity="1" /><path clip-path="url(#clip080)" d="M123.358 869.486 L128.242 869.486 L128.242 875.366 L123.358 875.366 L123.358 869.486 Z" fill="#000000" fill-rule="nonzero" fill-opacity="1" /><path clip-path="url(#clip080)" d="M138.473 840.806 L156.83 840.806 L156.83 844.741 L142.756 844.741 L142.756 853.213 Q143.774 852.866 144.793 852.704 Q145.811 852.518 146.83 852.518 Q152.617 852.518 155.996 855.69 Q159.376 858.861 159.376 864.278 Q159.376 869.856 155.904 872.958 Q152.432 876.037 146.112 876.037 Q143.936 876.037 141.668 875.666 Q139.422 875.296 137.015 874.555 L137.015 869.856 Q139.098 870.991 141.321 871.546 Q143.543 872.102 146.02 872.102 Q150.024 872.102 152.362 869.995 Q154.7 867.889 154.7 864.278 Q154.7 860.667 152.362 858.56 Q150.024 856.454 146.02 856.454 Q144.145 856.454 142.27 856.87 Q140.418 857.287 138.473 858.167 L138.473 840.806 Z" fill="#000000" fill-rule="nonzero" fill-opacity="1" /><path clip-path="url(#clip080)" d="M102.2 615.285 Q98.5893 615.285 96.7606 618.85 Q94.955 622.391 94.955 629.521 Q94.955 636.627 96.7606 640.192 Q98.5893 643.734 102.2 643.734 Q105.835 643.734 107.64 640.192 Q109.469 636.627 109.469 629.521 Q109.469 622.391 107.64 618.85 Q105.835 615.285 102.2 615.285 M102.2 611.581 Q108.011 611.581 111.066 616.188 Q114.145 620.771 114.145 629.521 Q114.145 638.248 111.066 642.854 Q108.011 647.438 102.2 647.438 Q96.3902 647.438 93.3115 642.854 Q90.256 638.248 90.256 629.521 Q90.256 620.771 93.3115 616.188 Q96.3902 611.581 102.2 611.581 Z" fill="#000000" fill-rule="nonzero" fill-opacity="1" /><path clip-path="url(#clip080)" d="M122.362 640.887 L127.247 640.887 L127.247 646.766 L122.362 646.766 L122.362 640.887 Z" fill="#000000" fill-rule="nonzero" fill-opacity="1" /><path clip-path="url(#clip080)" d="M147.432 615.285 Q143.821 615.285 141.992 618.85 Q140.186 622.391 140.186 629.521 Q140.186 636.627 141.992 640.192 Q143.821 643.734 147.432 643.734 Q151.066 643.734 152.871 640.192 Q154.7 636.627 154.7 629.521 Q154.7 622.391 152.871 618.85 Q151.066 615.285 147.432 615.285 M147.432 611.581 Q153.242 611.581 156.297 616.188 Q159.376 620.771 159.376 629.521 Q159.376 638.248 156.297 642.854 Q153.242 647.438 147.432 647.438 Q141.621 647.438 138.543 642.854 Q135.487 638.248 135.487 629.521 Q135.487 620.771 138.543 616.188 Q141.621 611.581 147.432 611.581 Z" fill="#000000" fill-rule="nonzero" fill-opacity="1" /><path clip-path="url(#clip080)" d="M97.2236 414.232 L113.543 414.232 L113.543 418.167 L91.5986 418.167 L91.5986 414.232 Q94.2606 411.477 98.8439 406.848 Q103.45 402.195 104.631 400.852 Q106.876 398.329 107.756 396.593 Q108.659 394.834 108.659 393.144 Q108.659 390.389 106.714 388.653 Q104.793 386.917 101.691 386.917 Q99.4921 386.917 97.0384 387.681 Q94.6078 388.445 91.8301 389.996 L91.8301 385.274 Q94.6541 384.139 97.1078 383.561 Q99.5615 382.982 101.599 382.982 Q106.969 382.982 110.163 385.667 Q113.358 388.352 113.358 392.843 Q113.358 394.973 112.548 396.894 Q111.761 398.792 109.654 401.385 Q109.075 402.056 105.974 405.273 Q102.872 408.468 97.2236 414.232 Z" fill="#000000" fill-rule="nonzero" fill-opacity="1" /><path clip-path="url(#clip080)" d="M123.358 412.287 L128.242 412.287 L128.242 418.167 L123.358 418.167 L123.358 412.287 Z" fill="#000000" fill-rule="nonzero" fill-opacity="1" /><path clip-path="url(#clip080)" d="M138.473 383.607 L156.83 383.607 L156.83 387.542 L142.756 387.542 L142.756 396.014 Q143.774 395.667 144.793 395.505 Q145.811 395.32 146.83 395.32 Q152.617 395.32 155.996 398.491 Q159.376 401.662 159.376 407.079 Q159.376 412.658 155.904 415.76 Q152.432 418.838 146.112 418.838 Q143.936 418.838 141.668 418.468 Q139.422 418.097 137.015 417.357 L137.015 412.658 Q139.098 413.792 141.321 414.347 Q143.543 414.903 146.02 414.903 Q150.024 414.903 152.362 412.797 Q154.7 410.69 154.7 407.079 Q154.7 403.468 152.362 401.361 Q150.024 399.255 146.02 399.255 Q144.145 399.255 142.27 399.672 Q140.418 400.088 138.473 400.968 L138.473 383.607 Z" fill="#000000" fill-rule="nonzero" fill-opacity="1" /><path clip-path="url(#clip080)" d="M92.2467 155.008 L110.603 155.008 L110.603 158.943 L96.5291 158.943 L96.5291 167.415 Q97.5476 167.068 98.5661 166.906 Q99.5847 166.721 100.603 166.721 Q106.39 166.721 109.77 169.892 Q113.149 173.063 113.149 178.48 Q113.149 184.058 109.677 187.16 Q106.205 190.239 99.8856 190.239 Q97.7097 190.239 95.4412 189.869 Q93.1958 189.498 90.7884 188.757 L90.7884 184.058 Q92.8717 185.193 95.0939 185.748 Q97.3161 186.304 99.793 186.304 Q103.798 186.304 106.136 184.197 Q108.473 182.091 108.473 178.48 Q108.473 174.869 106.136 172.762 Q103.798 170.656 99.793 170.656 Q97.918 170.656 96.043 171.072 Q94.1912 171.489 92.2467 172.369 L92.2467 155.008 Z" fill="#000000" fill-rule="nonzero" fill-opacity="1" /><path clip-path="url(#clip080)" d="M122.362 183.688 L127.247 183.688 L127.247 189.568 L122.362 189.568 L122.362 183.688 Z" fill="#000000" fill-rule="nonzero" fill-opacity="1" /><path clip-path="url(#clip080)" d="M147.432 158.086 Q143.821 158.086 141.992 161.651 Q140.186 165.193 140.186 172.322 Q140.186 179.429 141.992 182.994 Q143.821 186.535 147.432 186.535 Q151.066 186.535 152.871 182.994 Q154.7 179.429 154.7 172.322 Q154.7 165.193 152.871 161.651 Q151.066 158.086 147.432 158.086 M147.432 154.383 Q153.242 154.383 156.297 158.989 Q159.376 163.572 159.376 172.322 Q159.376 181.049 156.297 185.656 Q153.242 190.239 147.432 190.239 Q141.621 190.239 138.543 185.656 Q135.487 181.049 135.487 172.322 Q135.487 163.572 138.543 158.989 Q141.621 154.383 147.432 154.383 Z" fill="#000000" fill-rule="nonzero" fill-opacity="1" /><path clip-path="url(#clip082)" d="M244.085 995.245 L246.962 997.471 L249.839 999.686 L252.716 1001.89 L255.594 1004.08 L282.196 1023.75 L308.799 1042.4 L335.402 1060 L362.005 1076.57 L393.979 1095.12 L425.953 1112.17 L452.987 1125.41 L480.021 1137.59 L509.387 1149.61 L538.753 1160.37 L565.827 1169.16 L592.9 1176.89 L621.925 1183.98 L650.95 1189.84 L684.579 1195.08 L718.208 1198.68 L748.093 1200.48 L777.978 1200.97 L804.184 1200.33 L830.391 1198.69 L858.963 1195.75 L887.536 1191.62 L916.278 1186.25 L945.02 1179.68 L976.798 1171.01 L1008.58 1160.86 L1038.81 1149.83 L1069.05 1137.46 L1100.49 1123.18 L1131.92 1107.45 L1158.39 1093.1 L1184.85 1077.71 L1217.16 1057.54 L1249.47 1035.85 L1279.07 1014.63 L1308.67 992.13 L1336.01 970.212 L1363.34 947.201 L1391.03 922.776 L1418.72 897.229 L1449.76 867.265 L1480.79 835.892 L1508.91 806.246 L1537.03 775.443 L1569.23 738.754 L1601.43 700.549 L1631.24 663.821 L1661.05 625.794 L1690.44 587.03 L1719.83 547.002 L1748.37 506.929 L1776.9 465.664 L1806.16 422.126 L1835.41 377.335 L1867.46 326.825 L1899.51 274.811 L1946.07 196.575 L1992.62 115.168 L2002.18 98.0745 L2011.73 80.8479 L2011.73 629.486 L2002.18 629.486 L1992.62 629.486 L1946.07 629.486 L1899.51 629.486 L1867.46 629.486 L1835.41 629.486 L1806.16 629.486 L1776.9 629.486 L1748.37 629.486 L1719.83 629.486 L1690.44 629.486 L1661.05 629.486 L1631.24 629.486 L1601.43 629.486 L1569.23 629.486 L1537.03 629.486 L1508.91 629.486 L1480.79 629.486 L1449.76 629.486 L1418.72 629.486 L1391.03 629.486 L1363.34 629.486 L1336.01 629.486 L1308.67 629.486 L1279.07 629.486 L1249.47 629.486 L1217.16 629.486 L1184.85 629.486 L1158.39 629.486 L1131.92 629.486 L1100.49 629.486 L1069.05 629.486 L1038.81 629.486 L1008.58 629.486 L976.798 629.486 L945.02 629.486 L916.278 629.486 L887.536 629.486 L858.963 629.486 L830.391 629.486 L804.184 629.486 L777.978 629.486 L748.093 629.486 L718.208 629.486 L684.579 629.486 L650.95 629.486 L621.925 629.486 L592.9 629.486 L565.827 629.486 L538.753 629.486 L509.387 629.486 L480.021 629.486 L452.987 629.486 L425.953 629.486 L393.979 629.486 L362.005 629.486 L335.402 629.486 L308.799 629.486 L282.196 629.486 L255.594 629.486 L252.716 629.486 L249.839 629.486 L246.962 629.486 L244.085 629.486  Z" fill="#009af9" fill-rule="evenodd" fill-opacity="0.3"/>
<polyline clip-path="url(#clip082)" style="stroke:#009af9; stroke-linecap:round; stroke-linejoin:round; stroke-width:4; stroke-opacity:1; fill:none" points="244.085,995.245 246.962,997.471 249.839,999.686 252.716,1001.89 255.594,1004.08 282.196,1023.75 308.799,1042.4 335.402,1060 362.005,1076.57 393.979,1095.12 425.953,1112.17 452.987,1125.41 480.021,1137.59 509.387,1149.61 538.753,1160.37 565.827,1169.16 592.9,1176.89 621.925,1183.98 650.95,1189.84 684.579,1195.08 718.208,1198.68 748.093,1200.48 777.978,1200.97 804.184,1200.33 830.391,1198.69 858.963,1195.75 887.536,1191.62 916.278,1186.25 945.02,1179.68 976.798,1171.01 1008.58,1160.86 1038.81,1149.83 1069.05,1137.46 1100.49,1123.18 1131.92,1107.45 1158.39,1093.1 1184.85,1077.71 1217.16,1057.54 1249.47,1035.85 1279.07,1014.63 1308.67,992.13 1336.01,970.212 1363.34,947.201 1391.03,922.776 1418.72,897.229 1449.76,867.265 1480.79,835.892 1508.91,806.246 1537.03,775.443 1569.23,738.754 1601.43,700.549 1631.24,663.821 1661.05,625.794 1690.44,587.03 1719.83,547.002 1748.37,506.929 1776.9,465.664 1806.16,422.126 1835.41,377.335 1867.46,326.825 1899.51,274.811 1946.07,196.575 1992.62,115.168 2002.18,98.0745 2011.73,80.8479 "/>
<path clip-path="url(#clip080)" d="M253.513 190.502 L843.949 190.502 L843.949 86.8219 L253.513 86.8219  Z" fill="#ffffff" fill-rule="evenodd" fill-opacity="1"/>
<polyline clip-path="url(#clip080)" style="stroke:#000000; stroke-linecap:round; stroke-linejoin:round; stroke-width:4; stroke-opacity:1; fill:none" points="253.513,190.502 843.949,190.502 843.949,86.8219 253.513,86.8219 253.513,190.502 "/>
<path clip-path="url(#clip080)" d="M274.332 159.398 L399.245 159.398 L399.245 117.926 L274.332 117.926 L274.332 159.398  Z" fill="#009af9" fill-rule="evenodd" fill-opacity="0.3"/>
<polyline clip-path="url(#clip080)" style="stroke:#009af9; stroke-linecap:round; stroke-linejoin:round; stroke-width:4; stroke-opacity:1; fill:none" points="274.332,117.926 399.245,117.926 "/>
<path clip-path="url(#clip080)" d="M443.978 120.452 Q443.978 121.74 443.158 122.537 Q442.362 123.333 441.355 123.333 Q440.629 123.333 440.09 122.888 Q439.575 122.443 439.575 121.67 Q439.575 120.874 440.184 120.03 Q440.793 119.187 442.175 119.07 Q441.261 118.204 439.809 118.204 Q439.083 118.204 438.474 118.672 Q437.888 119.117 437.56 119.843 Q437.209 120.593 436.413 124.832 Q436.155 126.214 435.921 127.549 Q435.687 128.884 435.405 130.29 L439.387 130.29 Q439.903 130.29 440.113 130.313 Q440.324 130.336 440.488 130.453 Q440.676 130.571 440.676 130.828 Q440.676 131.484 440.371 131.648 Q440.09 131.789 439.247 131.789 L435.124 131.789 L432.243 146.99 Q432.173 147.435 431.869 148.84 Q431.588 150.222 430.908 152.494 Q430.229 154.789 429.55 156.148 Q429.175 156.921 428.683 157.647 Q428.215 158.396 427.536 159.146 Q426.856 159.895 425.966 160.341 Q425.076 160.809 424.139 160.809 Q422.547 160.809 421.305 159.919 Q420.064 159.029 420.064 157.506 Q420.064 156.218 420.86 155.422 Q421.68 154.625 422.687 154.625 Q423.413 154.625 423.928 155.07 Q424.467 155.515 424.467 156.288 Q424.467 156.616 424.35 156.991 Q424.233 157.366 423.975 157.787 Q423.718 158.232 423.156 158.537 Q422.593 158.841 421.82 158.888 Q422.734 159.755 424.139 159.755 Q424.584 159.755 424.982 159.568 Q425.381 159.404 425.709 158.982 Q426.06 158.56 426.318 158.139 Q426.575 157.741 426.833 156.968 Q427.09 156.218 427.254 155.656 Q427.418 155.094 427.629 154.087 Q427.863 153.08 427.981 152.471 Q428.098 151.885 428.308 150.737 L431.892 131.789 L428.73 131.789 Q428.168 131.789 427.934 131.765 Q427.723 131.742 427.559 131.625 Q427.395 131.484 427.395 131.203 Q427.395 130.758 427.582 130.571 Q427.793 130.36 428.027 130.336 Q428.262 130.29 428.824 130.29 L432.15 130.29 Q433.274 124.364 433.719 122.771 Q434.234 121.084 435.031 119.913 Q435.827 118.719 436.717 118.157 Q437.607 117.595 438.333 117.384 Q439.083 117.15 439.809 117.15 Q441.448 117.15 442.713 118.04 Q443.978 118.906 443.978 120.452 Z" fill="#000000" fill-rule="nonzero" fill-opacity="1" /><path clip-path="url(#clip080)" d="M450.434 138.979 Q450.434 130.875 453.455 124.34 Q454.743 121.6 456.547 119.304 Q458.351 117.009 459.545 116.002 Q460.74 114.995 461.068 114.995 Q461.536 114.995 461.559 115.463 Q461.559 115.697 460.927 116.283 Q453.198 124.153 453.221 138.979 Q453.221 153.852 460.74 161.418 Q461.559 162.238 461.559 162.495 Q461.559 162.964 461.068 162.964 Q460.74 162.964 459.592 162.004 Q458.444 161.043 456.664 158.841 Q454.884 156.64 453.596 153.946 Q450.434 147.411 450.434 138.979 Z" fill="#000000" fill-rule="nonzero" fill-opacity="1" /><path clip-path="url(#clip080)" d="M489.095 132.936 Q489.095 134.248 488.275 134.997 Q487.455 135.724 486.518 135.724 Q485.628 135.724 485.16 135.208 Q484.691 134.693 484.691 134.037 Q484.691 133.147 485.347 132.374 Q486.003 131.601 486.987 131.437 Q486.026 130.828 484.597 130.828 Q483.661 130.828 482.841 131.32 Q482.044 131.812 481.553 132.444 Q481.084 133.077 480.663 133.99 Q480.264 134.88 480.1 135.419 Q479.96 135.934 479.843 136.496 L478.203 143.055 Q477.407 146.17 477.407 147.271 Q477.407 148.629 478.063 149.543 Q478.718 150.433 480.03 150.433 Q480.545 150.433 481.131 150.292 Q481.717 150.128 482.466 149.707 Q483.239 149.262 483.918 148.606 Q484.621 147.927 485.3 146.779 Q485.979 145.631 486.424 144.156 Q486.565 143.64 487.033 143.64 Q487.619 143.64 487.619 144.109 Q487.619 144.507 487.291 145.35 Q486.987 146.17 486.307 147.247 Q485.652 148.301 484.785 149.262 Q483.918 150.199 482.63 150.854 Q481.342 151.51 479.936 151.51 Q477.922 151.51 476.587 150.433 Q475.252 149.355 474.76 147.856 Q474.643 148.067 474.479 148.348 Q474.315 148.629 473.823 149.262 Q473.355 149.871 472.816 150.339 Q472.277 150.784 471.434 151.135 Q470.614 151.51 469.724 151.51 Q468.6 151.51 467.593 151.182 Q466.609 150.854 465.906 150.105 Q465.204 149.355 465.204 148.325 Q465.204 147.177 465.977 146.381 Q466.773 145.561 467.85 145.561 Q468.53 145.561 469.068 145.959 Q469.631 146.357 469.631 147.224 Q469.631 148.184 468.975 148.91 Q468.319 149.636 467.382 149.824 Q468.342 150.433 469.771 150.433 Q471.317 150.433 472.535 149.074 Q473.753 147.716 474.338 145.444 Q475.791 139.986 476.353 137.55 Q476.915 135.091 476.915 134.037 Q476.915 133.053 476.657 132.374 Q476.4 131.695 475.955 131.39 Q475.533 131.062 475.135 130.945 Q474.76 130.828 474.338 130.828 Q473.636 130.828 472.839 131.109 Q472.066 131.39 471.13 132.046 Q470.216 132.679 469.349 133.99 Q468.483 135.302 467.897 137.105 Q467.78 137.644 467.265 137.644 Q466.703 137.621 466.703 137.152 Q466.703 136.754 467.007 135.934 Q467.335 135.091 467.991 134.037 Q468.67 132.983 469.537 132.046 Q470.427 131.086 471.715 130.43 Q473.027 129.774 474.432 129.774 Q475.065 129.774 475.674 129.915 Q476.306 130.032 477.055 130.383 Q477.828 130.735 478.508 131.507 Q479.187 132.28 479.609 133.405 Q479.89 132.866 480.264 132.351 Q480.663 131.835 481.272 131.203 Q481.904 130.547 482.771 130.172 Q483.661 129.774 484.644 129.774 Q485.605 129.774 486.542 130.032 Q487.478 130.266 488.275 131.039 Q489.095 131.789 489.095 132.936 Z" fill="#000000" fill-rule="nonzero" fill-opacity="1" /><path clip-path="url(#clip080)" d="M493.711 162.495 Q493.711 162.261 494.32 161.676 Q502.049 153.806 502.049 138.979 Q502.049 124.106 494.624 116.587 Q493.711 115.721 493.711 115.463 Q493.711 114.995 494.179 114.995 Q494.507 114.995 495.655 115.955 Q496.826 116.915 498.583 119.117 Q500.363 121.319 501.674 124.012 Q504.836 130.547 504.836 138.979 Q504.836 147.083 501.815 153.618 Q500.527 156.359 498.723 158.654 Q496.92 160.949 495.725 161.957 Q494.53 162.964 494.179 162.964 Q493.711 162.964 493.711 162.495 Z" fill="#000000" fill-rule="nonzero" fill-opacity="1" /><path clip-path="url(#clip080)" d="M525.437 143.687 Q525.484 143.102 526.397 143.102 L555.792 143.102 Q557.174 143.102 557.198 143.64 Q557.198 144.226 555.886 144.202 L526.725 144.202 Q525.437 144.226 525.437 143.687 M525.437 134.318 Q525.437 133.733 526.444 133.756 L555.746 133.756 Q557.174 133.756 557.198 134.318 Q557.198 134.857 555.98 134.857 L526.397 134.857 Q525.437 134.857 525.437 134.318 Z" fill="#000000" fill-rule="nonzero" fill-opacity="1" /><path clip-path="url(#clip080)" d="M599.588 132.936 Q599.588 134.248 598.768 134.997 Q597.948 135.724 597.011 135.724 Q596.121 135.724 595.653 135.208 Q595.185 134.693 595.185 134.037 Q595.185 133.147 595.84 132.374 Q596.496 131.601 597.48 131.437 Q596.52 130.828 595.091 130.828 Q594.154 130.828 593.334 131.32 Q592.538 131.812 592.046 132.444 Q591.577 133.077 591.156 133.99 Q590.758 134.88 590.594 135.419 Q590.453 135.934 590.336 136.496 L588.697 143.055 Q587.9 146.17 587.9 147.271 Q587.9 148.629 588.556 149.543 Q589.212 150.433 590.523 150.433 Q591.039 150.433 591.624 150.292 Q592.21 150.128 592.959 149.707 Q593.732 149.262 594.412 148.606 Q595.114 147.927 595.794 146.779 Q596.473 145.631 596.918 144.156 Q597.058 143.64 597.527 143.64 Q598.112 143.64 598.112 144.109 Q598.112 144.507 597.784 145.35 Q597.48 146.17 596.801 147.247 Q596.145 148.301 595.278 149.262 Q594.412 150.199 593.123 150.854 Q591.835 151.51 590.43 151.51 Q588.415 151.51 587.08 150.433 Q585.745 149.355 585.253 147.856 Q585.136 148.067 584.972 148.348 Q584.808 148.629 584.317 149.262 Q583.848 149.871 583.309 150.339 Q582.771 150.784 581.927 151.135 Q581.108 151.51 580.218 151.51 Q579.093 151.51 578.086 151.182 Q577.102 150.854 576.4 150.105 Q575.697 149.355 575.697 148.325 Q575.697 147.177 576.47 146.381 Q577.266 145.561 578.344 145.561 Q579.023 145.561 579.562 145.959 Q580.124 146.357 580.124 147.224 Q580.124 148.184 579.468 148.91 Q578.812 149.636 577.875 149.824 Q578.836 150.433 580.264 150.433 Q581.81 150.433 583.028 149.074 Q584.246 147.716 584.832 145.444 Q586.284 139.986 586.846 137.55 Q587.408 135.091 587.408 134.037 Q587.408 133.053 587.151 132.374 Q586.893 131.695 586.448 131.39 Q586.026 131.062 585.628 130.945 Q585.253 130.828 584.832 130.828 Q584.129 130.828 583.333 131.109 Q582.56 131.39 581.623 132.046 Q580.709 132.679 579.843 133.99 Q578.976 135.302 578.391 137.105 Q578.274 137.644 577.758 137.644 Q577.196 137.621 577.196 137.152 Q577.196 136.754 577.501 135.934 Q577.829 135.091 578.484 134.037 Q579.164 132.983 580.03 132.046 Q580.92 131.086 582.209 130.43 Q583.52 129.774 584.926 129.774 Q585.558 129.774 586.167 129.915 Q586.799 130.032 587.549 130.383 Q588.322 130.735 589.001 131.507 Q589.68 132.28 590.102 133.405 Q590.383 132.866 590.758 132.351 Q591.156 131.835 591.765 131.203 Q592.397 130.547 593.264 130.172 Q594.154 129.774 595.138 129.774 Q596.098 129.774 597.035 130.032 Q597.972 130.266 598.768 131.039 Q599.588 131.789 599.588 132.936 Z" fill="#000000" fill-rule="nonzero" fill-opacity="1" /><path clip-path="url(#clip080)" d="M604.467 136.619 Q604.467 136.013 604.516 135.832 Q604.582 135.652 604.844 135.373 L611.288 128.192 Q614.813 124.224 614.813 120.765 Q614.813 118.519 613.632 116.912 Q612.468 115.305 610.32 115.305 Q608.845 115.305 607.599 116.207 Q606.353 117.109 605.779 118.715 Q605.877 118.683 606.221 118.683 Q607.058 118.683 607.517 119.207 Q607.992 119.732 607.992 120.437 Q607.992 121.339 607.402 121.781 Q606.828 122.208 606.254 122.208 Q606.025 122.208 605.713 122.158 Q605.418 122.109 604.943 121.65 Q604.467 121.175 604.467 120.338 Q604.467 117.994 606.238 116.125 Q608.025 114.256 610.747 114.256 Q613.829 114.256 615.846 116.092 Q617.879 117.912 617.879 120.765 Q617.879 121.765 617.567 122.683 Q617.272 123.585 616.862 124.29 Q616.469 124.995 615.387 126.126 Q614.304 127.257 613.436 128.061 Q612.567 128.864 610.615 130.569 L607.058 134.029 L613.108 134.029 Q616.059 134.029 616.288 133.767 Q616.616 133.291 617.026 130.783 L617.879 130.783 L616.928 136.619 L604.467 136.619 Z" fill="#000000" fill-rule="nonzero" fill-opacity="1" /><path clip-path="url(#clip080)" d="M667.835 138.3 Q668.116 138.581 668.116 138.979 Q668.116 139.377 667.835 139.658 Q667.554 139.94 667.156 139.94 L637.129 139.94 Q636.73 139.94 636.449 139.658 Q636.168 139.377 636.168 138.979 Q636.168 138.581 636.449 138.3 Q636.73 138.019 637.129 138.019 L667.156 138.019 Q667.554 138.019 667.835 138.3 Z" fill="#000000" fill-rule="nonzero" fill-opacity="1" /><path clip-path="url(#clip080)" d="M686.428 128.416 L687.998 118.555 L689.192 118.555 Q689.333 119.14 689.567 119.398 Q689.825 119.656 691.183 119.867 Q692.565 120.077 695.352 120.077 L706.993 120.077 Q706.993 121.178 706.572 121.764 L700.084 130.875 Q698.022 133.756 697.109 139.073 Q696.57 142.633 696.594 146.943 L696.594 149.379 Q696.594 152.026 694.369 152.026 Q692.167 152.026 692.167 149.379 Q692.167 140.221 698.069 131.344 Q698.702 130.43 701.021 127.174 Q703.363 123.919 703.456 123.778 L693.525 123.778 Q689.169 123.778 688.817 124.059 Q688.349 124.481 687.623 128.416 L686.428 128.416 Z" fill="#000000" fill-rule="nonzero" fill-opacity="1" /><path clip-path="url(#clip080)" d="M732.536 132.936 Q732.536 134.248 731.717 134.997 Q730.897 135.724 729.96 135.724 Q729.07 135.724 728.601 135.208 Q728.133 134.693 728.133 134.037 Q728.133 133.147 728.789 132.374 Q729.445 131.601 730.428 131.437 Q729.468 130.828 728.039 130.828 Q727.102 130.828 726.283 131.32 Q725.486 131.812 724.994 132.444 Q724.526 133.077 724.104 133.99 Q723.706 134.88 723.542 135.419 Q723.402 135.934 723.285 136.496 L721.645 143.055 Q720.849 146.17 720.849 147.271 Q720.849 148.629 721.504 149.543 Q722.16 150.433 723.472 150.433 Q723.987 150.433 724.573 150.292 Q725.158 150.128 725.908 149.707 Q726.681 149.262 727.36 148.606 Q728.063 147.927 728.742 146.779 Q729.421 145.631 729.866 144.156 Q730.007 143.64 730.475 143.64 Q731.061 143.64 731.061 144.109 Q731.061 144.507 730.733 145.35 Q730.428 146.17 729.749 147.247 Q729.093 148.301 728.227 149.262 Q727.36 150.199 726.072 150.854 Q724.784 151.51 723.378 151.51 Q721.364 151.51 720.029 150.433 Q718.694 149.355 718.202 147.856 Q718.085 148.067 717.921 148.348 Q717.757 148.629 717.265 149.262 Q716.796 149.871 716.258 150.339 Q715.719 150.784 714.876 151.135 Q714.056 151.51 713.166 151.51 Q712.042 151.51 711.035 151.182 Q710.051 150.854 709.348 150.105 Q708.645 149.355 708.645 148.325 Q708.645 147.177 709.418 146.381 Q710.215 145.561 711.292 145.561 Q711.971 145.561 712.51 145.959 Q713.072 146.357 713.072 147.224 Q713.072 148.184 712.416 148.91 Q711.761 149.636 710.824 149.824 Q711.784 150.433 713.213 150.433 Q714.759 150.433 715.977 149.074 Q717.195 147.716 717.78 145.444 Q719.232 139.986 719.795 137.55 Q720.357 135.091 720.357 134.037 Q720.357 133.053 720.099 132.374 Q719.841 131.695 719.396 131.39 Q718.975 131.062 718.577 130.945 Q718.202 130.828 717.78 130.828 Q717.078 130.828 716.281 131.109 Q715.508 131.39 714.571 132.046 Q713.658 132.679 712.791 133.99 Q711.925 135.302 711.339 137.105 Q711.222 137.644 710.707 137.644 Q710.145 137.621 710.145 137.152 Q710.145 136.754 710.449 135.934 Q710.777 135.091 711.433 134.037 Q712.112 132.983 712.979 132.046 Q713.869 131.086 715.157 130.43 Q716.469 129.774 717.874 129.774 Q718.506 129.774 719.115 129.915 Q719.748 130.032 720.497 130.383 Q721.27 130.735 721.949 131.507 Q722.629 132.28 723.05 133.405 Q723.331 132.866 723.706 132.351 Q724.104 131.835 724.713 131.203 Q725.346 130.547 726.212 130.172 Q727.102 129.774 728.086 129.774 Q729.046 129.774 729.983 130.032 Q730.92 130.266 731.717 131.039 Q732.536 131.789 732.536 132.936 Z" fill="#000000" fill-rule="nonzero" fill-opacity="1" /><path clip-path="url(#clip080)" d="M750.218 139.565 Q749.117 139.565 749.117 138.979 Q749.117 138.394 750.264 138.394 Q750.405 138.394 750.639 138.417 Q750.897 138.441 750.944 138.441 L764.458 138.441 L764.458 124.879 Q764.458 124.832 764.435 124.621 Q764.412 124.387 764.412 124.247 Q764.412 123.099 764.974 123.099 Q765.559 123.099 765.559 124.247 L765.559 138.441 L779.097 138.441 Q779.144 138.441 779.379 138.417 Q779.613 138.394 779.753 138.394 Q780.854 138.394 780.854 138.979 Q780.878 139.565 779.706 139.565 Q779.566 139.565 779.355 139.541 Q779.144 139.518 779.097 139.518 L765.559 139.518 L765.559 153.759 Q765.559 154.86 764.974 154.86 Q764.412 154.86 764.412 153.712 Q764.412 153.571 764.435 153.337 Q764.458 153.126 764.458 153.08 L764.458 139.518 L750.944 139.518 Q750.897 139.518 750.616 139.541 Q750.358 139.565 750.218 139.565 Z" fill="#000000" fill-rule="nonzero" fill-opacity="1" /><path clip-path="url(#clip080)" d="M799.377 135.817 Q799.377 128.275 803.218 123.661 Q807.059 119.023 812.002 119.023 Q814.883 119.023 816.475 120.499 Q818.091 121.951 818.091 124.2 Q818.091 125.441 817.365 125.98 Q816.639 126.519 815.89 126.519 Q815.023 126.519 814.344 125.933 Q813.665 125.347 813.665 124.293 Q813.665 122.139 816.311 122.139 Q815.07 120.218 812.095 120.218 Q811.182 120.218 810.245 120.499 Q809.308 120.757 808.09 121.647 Q806.872 122.537 805.935 123.942 Q804.998 125.347 804.342 127.994 Q803.687 130.641 803.687 134.084 L803.687 135.232 Q805.654 130.477 809.683 130.5 Q813.711 130.5 816.499 133.569 Q819.286 136.637 819.286 141.181 Q819.286 145.842 816.382 148.934 Q813.477 152.026 809.402 152.026 Q807.575 152.026 805.912 151.253 Q804.272 150.503 802.726 148.77 Q801.204 147.037 800.29 143.711 Q799.377 140.385 799.377 135.817 M803.78 140.127 Q803.78 144.835 804.647 147.083 Q804.787 147.458 805.092 147.973 Q805.42 148.489 805.959 149.168 Q806.521 149.824 807.434 150.269 Q808.348 150.69 809.402 150.69 Q812.611 150.69 814.156 147.575 Q814.976 145.842 814.976 141.134 Q814.976 136.333 814.11 134.576 Q812.634 131.601 809.636 131.601 Q807.622 131.601 806.216 132.983 Q804.834 134.365 804.296 136.215 Q803.78 138.066 803.78 140.127 Z" fill="#000000" fill-rule="nonzero" fill-opacity="1" /></svg>
