<?xml version="1.0" encoding="utf-8"?>
<svg xmlns="http://www.w3.org/2000/svg" xmlns:xlink="http://www.w3.org/1999/xlink" width="528" height="336" viewBox="0 0 2112 1344">
<defs>
  <clipPath id="clip680">
    <rect x="0" y="0" width="2112" height="1344"/>
  </clipPath>
</defs>
<path clip-path="url(#clip680)" d="M0 1344 L2112 1344 L2112 0 L0 0  Z" fill="#ffffff" fill-rule="evenodd" fill-opacity="1"/>
<defs>
  <clipPath id="clip681">
    <rect x="422" y="0" width="1479" height="1344"/>
  </clipPath>
</defs>
<path clip-path="url(#clip680)" d="M108.001 1234.58 L2064.76 1234.58 L2064.76 47.2441 L108.001 47.2441  Z" fill="#ffffff" fill-rule="evenodd" fill-opacity="1"/>
<defs>
  <clipPath id="clip682">
    <rect x="108" y="47" width="1958" height="1188"/>
  </clipPath>
</defs>
<polyline clip-path="url(#clip682)" style="stroke:#000000; stroke-linecap:round; stroke-linejoin:round; stroke-width:2; stroke-opacity:0.1; fill:none" points="163.381,1234.58 163.381,47.2441 "/>
<polyline clip-path="url(#clip682)" style="stroke:#000000; stroke-linecap:round; stroke-linejoin:round; stroke-width:2; stroke-opacity:0.1; fill:none" points="457.18,1234.58 457.18,47.2441 "/>
<polyline clip-path="url(#clip682)" style="stroke:#000000; stroke-linecap:round; stroke-linejoin:round; stroke-width:2; stroke-opacity:0.1; fill:none" points="750.979,1234.58 750.979,47.2441 "/>
<polyline clip-path="url(#clip682)" style="stroke:#000000; stroke-linecap:round; stroke-linejoin:round; stroke-width:2; stroke-opacity:0.1; fill:none" points="1044.78,1234.58 1044.78,47.2441 "/>
<polyline clip-path="url(#clip682)" style="stroke:#000000; stroke-linecap:round; stroke-linejoin:round; stroke-width:2; stroke-opacity:0.1; fill:none" points="1338.58,1234.58 1338.58,47.2441 "/>
<polyline clip-path="url(#clip682)" style="stroke:#000000; stroke-linecap:round; stroke-linejoin:round; stroke-width:2; stroke-opacity:0.1; fill:none" points="1632.38,1234.58 1632.38,47.2441 "/>
<polyline clip-path="url(#clip682)" style="stroke:#000000; stroke-linecap:round; stroke-linejoin:round; stroke-width:2; stroke-opacity:0.1; fill:none" points="1926.18,1234.58 1926.18,47.2441 "/>
<polyline clip-path="url(#clip680)" style="stroke:#000000; stroke-linecap:round; stroke-linejoin:round; stroke-width:4; stroke-opacity:1; fill:none" points="108.001,1234.58 2064.76,1234.58 "/>
<polyline clip-path="url(#clip680)" style="stroke:#000000; stroke-linecap:round; stroke-linejoin:round; stroke-width:4; stroke-opacity:1; fill:none" points="163.381,1234.58 163.381,1215.68 "/>
<polyline clip-path="url(#clip680)" style="stroke:#000000; stroke-linecap:round; stroke-linejoin:round; stroke-width:4; stroke-opacity:1; fill:none" points="457.18,1234.58 457.18,1215.68 "/>
<polyline clip-path="url(#clip680)" style="stroke:#000000; stroke-linecap:round; stroke-linejoin:round; stroke-width:4; stroke-opacity:1; fill:none" points="750.979,1234.58 750.979,1215.68 "/>
<polyline clip-path="url(#clip680)" style="stroke:#000000; stroke-linecap:round; stroke-linejoin:round; stroke-width:4; stroke-opacity:1; fill:none" points="1044.78,1234.58 1044.78,1215.68 "/>
<polyline clip-path="url(#clip680)" style="stroke:#000000; stroke-linecap:round; stroke-linejoin:round; stroke-width:4; stroke-opacity:1; fill:none" points="1338.58,1234.58 1338.58,1215.68 "/>
<polyline clip-path="url(#clip680)" style="stroke:#000000; stroke-linecap:round; stroke-linejoin:round; stroke-width:4; stroke-opacity:1; fill:none" points="1632.38,1234.58 1632.38,1215.68 "/>
<polyline clip-path="url(#clip680)" style="stroke:#000000; stroke-linecap:round; stroke-linejoin:round; stroke-width:4; stroke-opacity:1; fill:none" points="1926.18,1234.58 1926.18,1215.68 "/>
<path clip-path="url(#clip680)" d="M163.381 1263.19 Q159.77 1263.19 157.941 1266.76 Q156.135 1270.3 156.135 1277.43 Q156.135 1284.54 157.941 1288.1 Q159.77 1291.64 163.381 1291.64 Q167.015 1291.64 168.821 1288.1 Q170.649 1284.54 170.649 1277.43 Q170.649 1270.3 168.821 1266.76 Q167.015 1263.19 163.381 1263.19 M163.381 1259.49 Q169.191 1259.49 172.246 1264.1 Q175.325 1268.68 175.325 1277.43 Q175.325 1286.16 172.246 1290.76 Q169.191 1295.35 163.381 1295.35 Q157.571 1295.35 154.492 1290.76 Q151.436 1286.16 151.436 1277.43 Q151.436 1268.68 154.492 1264.1 Q157.571 1259.49 163.381 1259.49 Z" fill="#000000" fill-rule="nonzero" fill-opacity="1" /><path clip-path="url(#clip680)" d="M447.562 1290.74 L455.201 1290.74 L455.201 1264.37 L446.891 1266.04 L446.891 1261.78 L455.155 1260.11 L459.83 1260.11 L459.83 1290.74 L467.469 1290.74 L467.469 1294.67 L447.562 1294.67 L447.562 1290.74 Z" fill="#000000" fill-rule="nonzero" fill-opacity="1" /><path clip-path="url(#clip680)" d="M745.632 1290.74 L761.951 1290.74 L761.951 1294.67 L740.007 1294.67 L740.007 1290.74 Q742.669 1287.99 747.252 1283.36 Q751.859 1278.7 753.039 1277.36 Q755.285 1274.84 756.164 1273.1 Q757.067 1271.34 757.067 1269.65 Q757.067 1266.9 755.123 1265.16 Q753.202 1263.42 750.1 1263.42 Q747.901 1263.42 745.447 1264.19 Q743.016 1264.95 740.239 1266.5 L740.239 1261.78 Q743.063 1260.65 745.516 1260.07 Q747.97 1259.49 750.007 1259.49 Q755.377 1259.49 758.572 1262.17 Q761.766 1264.86 761.766 1269.35 Q761.766 1271.48 760.956 1273.4 Q760.169 1275.3 758.063 1277.89 Q757.484 1278.56 754.382 1281.78 Q751.28 1284.98 745.632 1290.74 Z" fill="#000000" fill-rule="nonzero" fill-opacity="1" /><path clip-path="url(#clip680)" d="M1049.03 1276.04 Q1052.38 1276.76 1054.26 1279.03 Q1056.16 1281.3 1056.16 1284.63 Q1056.16 1289.74 1052.64 1292.55 Q1049.12 1295.35 1042.64 1295.35 Q1040.46 1295.35 1038.15 1294.91 Q1035.86 1294.49 1033.4 1293.63 L1033.4 1289.12 Q1035.35 1290.25 1037.66 1290.83 Q1039.98 1291.41 1042.5 1291.41 Q1046.9 1291.41 1049.19 1289.67 Q1051.5 1287.94 1051.5 1284.63 Q1051.5 1281.57 1049.35 1279.86 Q1047.22 1278.12 1043.4 1278.12 L1039.37 1278.12 L1039.37 1274.28 L1043.59 1274.28 Q1047.04 1274.28 1048.86 1272.92 Q1050.69 1271.53 1050.69 1268.93 Q1050.69 1266.27 1048.79 1264.86 Q1046.92 1263.42 1043.4 1263.42 Q1041.48 1263.42 1039.28 1263.84 Q1037.08 1264.26 1034.44 1265.14 L1034.44 1260.97 Q1037.11 1260.23 1039.42 1259.86 Q1041.76 1259.49 1043.82 1259.49 Q1049.14 1259.49 1052.24 1261.92 Q1055.35 1264.33 1055.35 1268.45 Q1055.35 1271.32 1053.7 1273.31 Q1052.06 1275.28 1049.03 1276.04 Z" fill="#000000" fill-rule="nonzero" fill-opacity="1" /><path clip-path="url(#clip680)" d="M1341.59 1264.19 L1329.78 1282.64 L1341.59 1282.64 L1341.59 1264.19 M1340.36 1260.11 L1346.24 1260.11 L1346.24 1282.64 L1351.17 1282.64 L1351.17 1286.53 L1346.24 1286.53 L1346.24 1294.67 L1341.59 1294.67 L1341.59 1286.53 L1325.99 1286.53 L1325.99 1282.01 L1340.36 1260.11 Z" fill="#000000" fill-rule="nonzero" fill-opacity="1" /><path clip-path="url(#clip680)" d="M1622.65 1260.11 L1641.01 1260.11 L1641.01 1264.05 L1626.94 1264.05 L1626.94 1272.52 Q1627.96 1272.17 1628.97 1272.01 Q1629.99 1271.83 1631.01 1271.83 Q1636.8 1271.83 1640.18 1275 Q1643.56 1278.17 1643.56 1283.59 Q1643.56 1289.17 1640.09 1292.27 Q1636.61 1295.35 1630.29 1295.35 Q1628.12 1295.35 1625.85 1294.98 Q1623.6 1294.61 1621.2 1293.86 L1621.2 1289.17 Q1623.28 1290.3 1625.5 1290.86 Q1627.72 1291.41 1630.2 1291.41 Q1634.21 1291.41 1636.54 1289.3 Q1638.88 1287.2 1638.88 1283.59 Q1638.88 1279.98 1636.54 1277.87 Q1634.21 1275.76 1630.2 1275.76 Q1628.33 1275.76 1626.45 1276.18 Q1624.6 1276.6 1622.65 1277.48 L1622.65 1260.11 Z" fill="#000000" fill-rule="nonzero" fill-opacity="1" /><path clip-path="url(#clip680)" d="M1926.58 1275.53 Q1923.43 1275.53 1921.58 1277.68 Q1919.75 1279.84 1919.75 1283.59 Q1919.75 1287.31 1921.58 1289.49 Q1923.43 1291.64 1926.58 1291.64 Q1929.73 1291.64 1931.56 1289.49 Q1933.41 1287.31 1933.41 1283.59 Q1933.41 1279.84 1931.56 1277.68 Q1929.73 1275.53 1926.58 1275.53 M1935.86 1260.88 L1935.86 1265.14 Q1934.1 1264.3 1932.3 1263.86 Q1930.52 1263.42 1928.76 1263.42 Q1924.13 1263.42 1921.67 1266.55 Q1919.24 1269.67 1918.9 1275.99 Q1920.26 1273.98 1922.32 1272.92 Q1924.38 1271.83 1926.86 1271.83 Q1932.07 1271.83 1935.08 1275 Q1938.11 1278.15 1938.11 1283.59 Q1938.11 1288.91 1934.96 1292.13 Q1931.81 1295.35 1926.58 1295.35 Q1920.59 1295.35 1917.41 1290.76 Q1914.24 1286.16 1914.24 1277.43 Q1914.24 1269.24 1918.13 1264.37 Q1922.02 1259.49 1928.57 1259.49 Q1930.33 1259.49 1932.11 1259.84 Q1933.92 1260.18 1935.86 1260.88 Z" fill="#000000" fill-rule="nonzero" fill-opacity="1" /><polyline clip-path="url(#clip682)" style="stroke:#000000; stroke-linecap:round; stroke-linejoin:round; stroke-width:2; stroke-opacity:0.1; fill:none" points="108.001,1234.58 2064.76,1234.58 "/>
<polyline clip-path="url(#clip682)" style="stroke:#000000; stroke-linecap:round; stroke-linejoin:round; stroke-width:2; stroke-opacity:0.1; fill:none" points="108.001,838.801 2064.76,838.801 "/>
<polyline clip-path="url(#clip682)" style="stroke:#000000; stroke-linecap:round; stroke-linejoin:round; stroke-width:2; stroke-opacity:0.1; fill:none" points="108.001,443.022 2064.76,443.022 "/>
<polyline clip-path="url(#clip682)" style="stroke:#000000; stroke-linecap:round; stroke-linejoin:round; stroke-width:2; stroke-opacity:0.1; fill:none" points="108.001,47.2441 2064.76,47.2441 "/>
<polyline clip-path="url(#clip680)" style="stroke:#000000; stroke-linecap:round; stroke-linejoin:round; stroke-width:4; stroke-opacity:1; fill:none" points="108.001,1234.58 108.001,47.2441 "/>
<polyline clip-path="url(#clip680)" style="stroke:#000000; stroke-linecap:round; stroke-linejoin:round; stroke-width:4; stroke-opacity:1; fill:none" points="108.001,1234.58 126.899,1234.58 "/>
<polyline clip-path="url(#clip680)" style="stroke:#000000; stroke-linecap:round; stroke-linejoin:round; stroke-width:4; stroke-opacity:1; fill:none" points="108.001,838.801 126.899,838.801 "/>
<polyline clip-path="url(#clip680)" style="stroke:#000000; stroke-linecap:round; stroke-linejoin:round; stroke-width:4; stroke-opacity:1; fill:none" points="108.001,443.022 126.899,443.022 "/>
<polyline clip-path="url(#clip680)" style="stroke:#000000; stroke-linecap:round; stroke-linejoin:round; stroke-width:4; stroke-opacity:1; fill:none" points="108.001,47.2441 126.899,47.2441 "/>
<path clip-path="url(#clip680)" d="M64.3765 1220.38 Q60.7654 1220.38 58.9367 1223.94 Q57.1312 1227.48 57.1312 1234.61 Q57.1312 1241.72 58.9367 1245.28 Q60.7654 1248.83 64.3765 1248.83 Q68.0107 1248.83 69.8163 1245.28 Q71.645 1241.72 71.645 1234.61 Q71.645 1227.48 69.8163 1223.94 Q68.0107 1220.38 64.3765 1220.38 M64.3765 1216.67 Q70.1867 1216.67 73.2422 1221.28 Q76.3209 1225.86 76.3209 1234.61 Q76.3209 1243.34 73.2422 1247.95 Q70.1867 1252.53 64.3765 1252.53 Q58.5664 1252.53 55.4877 1247.95 Q52.4321 1243.34 52.4321 1234.61 Q52.4321 1225.86 55.4877 1221.28 Q58.5664 1216.67 64.3765 1216.67 Z" fill="#000000" fill-rule="nonzero" fill-opacity="1" /><path clip-path="url(#clip680)" d="M56.4136 852.145 L64.0524 852.145 L64.0524 825.78 L55.7423 827.446 L55.7423 823.187 L64.0061 821.521 L68.682 821.521 L68.682 852.145 L76.3209 852.145 L76.3209 856.081 L56.4136 856.081 L56.4136 852.145 Z" fill="#000000" fill-rule="nonzero" fill-opacity="1" /><path clip-path="url(#clip680)" d="M60.0015 456.367 L76.3209 456.367 L76.3209 460.302 L54.3766 460.302 L54.3766 456.367 Q57.0386 453.613 61.6219 448.983 Q66.2283 444.33 67.4089 442.988 Q69.6543 440.464 70.5339 438.728 Q71.4367 436.969 71.4367 435.279 Q71.4367 432.525 69.4922 430.789 Q67.5709 429.052 64.4691 429.052 Q62.27 429.052 59.8163 429.816 Q57.3858 430.58 54.608 432.131 L54.608 427.409 Q57.4321 426.275 59.8858 425.696 Q62.3395 425.117 64.3765 425.117 Q69.7468 425.117 72.9413 427.802 Q76.1357 430.488 76.1357 434.978 Q76.1357 437.108 75.3255 439.029 Q74.5385 440.927 72.432 443.52 Q71.8533 444.191 68.7515 447.409 Q65.6496 450.603 60.0015 456.367 Z" fill="#000000" fill-rule="nonzero" fill-opacity="1" /><path clip-path="url(#clip680)" d="M69.1913 45.8899 Q72.5478 46.6075 74.4227 48.876 Q76.3209 51.1445 76.3209 54.4779 Q76.3209 59.5936 72.8024 62.3945 Q69.2839 65.1954 62.8024 65.1954 Q60.6265 65.1954 58.3117 64.7556 Q56.0201 64.3389 53.5664 63.4824 L53.5664 58.9686 Q55.5108 60.1028 57.8256 60.6815 Q60.1404 61.2602 62.6636 61.2602 Q67.0617 61.2602 69.3533 59.5241 Q71.6681 57.788 71.6681 54.4779 Q71.6681 51.4223 69.5154 49.7094 Q67.3857 47.9733 63.5663 47.9733 L59.5386 47.9733 L59.5386 44.1307 L63.7515 44.1307 Q67.2006 44.1307 69.0293 42.765 Q70.858 41.3761 70.858 38.7835 Q70.858 36.1215 68.9598 34.7094 Q67.0848 33.2743 63.5663 33.2743 Q61.645 33.2743 59.446 33.6909 Q57.2469 34.1076 54.608 34.9872 L54.608 30.8206 Q57.2701 30.0798 59.5849 29.7095 Q61.9228 29.3391 63.983 29.3391 Q69.307 29.3391 72.4089 31.7696 Q75.5107 34.177 75.5107 38.2974 Q75.5107 41.1677 73.8672 43.1585 Q72.2237 45.1261 69.1913 45.8899 Z" fill="#000000" fill-rule="nonzero" fill-opacity="1" /><path clip-path="url(#clip682)" d="M163.381 443.022 L169.39 434.928 L175.399 426.837 L203.181 389.571 L230.963 352.783 L258.745 316.801 L286.527 281.947 L303.223 261.674 L319.919 241.986 L336.614 222.948 L353.31 204.62 L367.426 189.722 L381.542 175.408 L395.658 161.713 L409.774 148.667 L425.109 135.265 L440.443 122.702 L455.777 111.012 L471.111 100.225 L485.247 91.1075 L499.384 82.8044 L513.52 75.3351 L527.657 68.7168 L542.813 62.5842 L557.969 57.4637 L573.125 53.369 L588.281 50.3109 L605.84 48.0748 L623.4 47.2491 L640.96 47.8367 L658.519 49.8356 L674.124 52.7906 L689.729 56.8463 L705.334 61.9912 L720.939 68.2108 L734.623 74.5354 L748.307 81.6593 L761.992 89.5669 L775.676 98.2412 L790.595 108.55 L805.514 119.721 L820.434 131.726 L835.353 144.533 L850.361 158.192 L865.369 172.595 L880.377 187.703 L895.385 203.477 L911.979 221.644 L928.572 240.516 L945.165 260.034 L961.759 280.135 L993.335 319.767 L1024.91 360.822 L1090.57 448.675 L1145.85 522.591 L1179.59 566.495 L1213.33 608.772 L1228.79 627.44 L1244.24 645.598 L1259.7 663.195 L1275.15 680.183 L1289.43 695.291 L1303.7 709.804 L1317.98 723.687 L1332.25 736.908 L1346.71 749.593 L1361.17 761.535 L1375.63 772.706 L1390.09 783.079 L1406.29 793.725 L1422.5 803.304 L1438.7 811.787 L1454.9 819.149 L1469.59 824.832 L1484.27 829.562 L1498.96 833.326 L1513.64 836.116 L1530.45 838.105 L1547.26 838.8 L1564.08 838.199 L1580.89 836.305 L1596.45 833.403 L1612.02 829.405 L1627.59 824.323 L1643.15 818.171 L1658.5 811.075 L1673.85 802.975 L1689.19 793.893 L1704.54 783.854 L1719.44 773.217 L1734.34 761.73 L1749.24 749.425 L1764.14 736.331 L1779.42 722.126 L1794.69 707.166 L1809.97 691.492 L1825.24 675.148 L1841.98 656.521 L1858.71 637.203 L1875.45 617.254 L1892.18 596.74 L1940.8 534.559 L1989.43 469.876 L1999.4 456.457 L2009.38 443.022 L2009.38 1234.58 L1999.4 1234.58 L1989.43 1234.58 L1940.8 1234.58 L1892.18 1234.58 L1875.45 1234.58 L1858.71 1234.58 L1841.98 1234.58 L1825.24 1234.58 L1809.97 1234.58 L1794.69 1234.58 L1779.42 1234.58 L1764.14 1234.58 L1749.24 1234.58 L1734.34 1234.58 L1719.44 1234.58 L1704.54 1234.58 L1689.19 1234.58 L1673.85 1234.58 L1658.5 1234.58 L1643.15 1234.58 L1627.59 1234.58 L1612.02 1234.58 L1596.45 1234.58 L1580.89 1234.58 L1564.08 1234.58 L1547.26 1234.58 L1530.45 1234.58 L1513.64 1234.58 L1498.96 1234.58 L1484.27 1234.58 L1469.59 1234.58 L1454.9 1234.58 L1438.7 1234.58 L1422.5 1234.58 L1406.29 1234.58 L1390.09 1234.58 L1375.63 1234.58 L1361.17 1234.58 L1346.71 1234.58 L1332.25 1234.58 L1317.98 1234.58 L1303.7 1234.58 L1289.43 1234.58 L1275.15 1234.58 L1259.7 1234.58 L1244.24 1234.58 L1228.79 1234.58 L1213.33 1234.58 L1179.59 1234.58 L1145.85 1234.58 L1090.57 1234.58 L1024.91 1234.58 L993.335 1234.58 L961.759 1234.58 L945.165 1234.58 L928.572 1234.58 L911.979 1234.58 L895.385 1234.58 L880.377 1234.58 L865.369 1234.58 L850.361 1234.58 L835.353 1234.58 L820.434 1234.58 L805.514 1234.58 L790.595 1234.58 L775.676 1234.58 L761.992 1234.58 L748.307 1234.58 L734.623 1234.58 L720.939 1234.58 L705.334 1234.58 L689.729 1234.58 L674.124 1234.58 L658.519 1234.58 L640.96 1234.58 L623.4 1234.58 L605.84 1234.58 L588.281 1234.58 L573.125 1234.58 L557.969 1234.58 L542.813 1234.58 L527.657 1234.58 L513.52 1234.58 L499.384 1234.58 L485.247 1234.58 L471.111 1234.58 L455.777 1234.58 L440.443 1234.58 L425.109 1234.58 L409.774 1234.58 L395.658 1234.58 L381.542 1234.58 L367.426 1234.58 L353.31 1234.58 L336.614 1234.58 L319.919 1234.58 L303.223 1234.58 L286.527 1234.58 L258.745 1234.58 L230.963 1234.58 L203.181 1234.58 L175.399 1234.58 L169.39 1234.58 L163.381 1234.58  Z" fill="#009af9" fill-rule="evenodd" fill-opacity="0.3"/>
<polyline clip-path="url(#clip682)" style="stroke:#009af9; stroke-linecap:round; stroke-linejoin:round; stroke-width:4; stroke-opacity:1; fill:none" points="163.381,443.022 169.39,434.928 175.399,426.837 203.181,389.571 230.963,352.783 258.745,316.801 286.527,281.947 303.223,261.674 319.919,241.986 336.614,222.948 353.31,204.62 367.426,189.722 381.542,175.408 395.658,161.713 409.774,148.667 425.109,135.265 440.443,122.702 455.777,111.012 471.111,100.225 485.247,91.1075 499.384,82.8044 513.52,75.3351 527.657,68.7168 542.813,62.5842 557.969,57.4637 573.125,53.369 588.281,50.3109 605.84,48.0748 623.4,47.2491 640.96,47.8367 658.519,49.8356 674.124,52.7906 689.729,56.8463 705.334,61.9912 720.939,68.2108 734.623,74.5354 748.307,81.6593 761.992,89.5669 775.676,98.2412 790.595,108.55 805.514,119.721 820.434,131.726 835.353,144.533 850.361,158.192 865.369,172.595 880.377,187.703 895.385,203.477 911.979,221.644 928.572,240.516 945.165,260.034 961.759,280.135 993.335,319.767 1024.91,360.822 1090.57,448.675 1145.85,522.591 1179.59,566.495 1213.33,608.772 1228.79,627.44 1244.24,645.598 1259.7,663.195 1275.15,680.183 1289.43,695.291 1303.7,709.804 1317.98,723.687 1332.25,736.908 1346.71,749.593 1361.17,761.535 1375.63,772.706 1390.09,783.079 1406.29,793.725 1422.5,803.304 1438.7,811.787 1454.9,819.149 1469.59,824.832 1484.27,829.562 1498.96,833.326 1513.64,836.116 1530.45,838.105 1547.26,838.8 1564.08,838.199 1580.89,836.305 1596.45,833.403 1612.02,829.405 1627.59,824.323 1643.15,818.171 1658.5,811.075 1673.85,802.975 1689.19,793.893 1704.54,783.854 1719.44,773.217 1734.34,761.73 1749.24,749.425 1764.14,736.331 1779.42,722.126 1794.69,707.166 1809.97,691.492 1825.24,675.148 1841.98,656.521 1858.71,637.203 1875.45,617.254 1892.18,596.74 1940.8,534.559 1989.43,469.876 1999.4,456.457 2009.38,443.022 "/>
</svg>
