<?xml version="1.0" encoding="utf-8"?>
<svg xmlns="http://www.w3.org/2000/svg" xmlns:xlink="http://www.w3.org/1999/xlink" width="528" height="336" viewBox="0 0 2112 1344">
<defs>
  <clipPath id="clip010">
    <rect x="0" y="0" width="2112" height="1344"/>
  </clipPath>
</defs>
<path clip-path="url(#clip010)" d="M0 1344 L2112 1344 L2112 0 L0 0  Z" fill="#ffffff" fill-rule="evenodd" fill-opacity="1"/>
<defs>
  <clipPath id="clip011">
    <rect x="422" y="0" width="1479" height="1344"/>
  </clipPath>
</defs>
<path clip-path="url(#clip010)" d="M183.394 1234.58 L2064.76 1234.58 L2064.76 47.2441 L183.394 47.2441  Z" fill="#ffffff" fill-rule="evenodd" fill-opacity="1"/>
<defs>
  <clipPath id="clip012">
    <rect x="183" y="47" width="1882" height="1188"/>
  </clipPath>
</defs>
<polyline clip-path="url(#clip012)" style="stroke:#000000; stroke-linecap:round; stroke-linejoin:round; stroke-width:2; stroke-opacity:0.1; fill:none" points="236.64,1234.58 236.64,47.2441 "/>
<polyline clip-path="url(#clip012)" style="stroke:#000000; stroke-linecap:round; stroke-linejoin:round; stroke-width:2; stroke-opacity:0.1; fill:none" points="680.358,1234.58 680.358,47.2441 "/>
<polyline clip-path="url(#clip012)" style="stroke:#000000; stroke-linecap:round; stroke-linejoin:round; stroke-width:2; stroke-opacity:0.1; fill:none" points="1124.07,1234.58 1124.07,47.2441 "/>
<polyline clip-path="url(#clip012)" style="stroke:#000000; stroke-linecap:round; stroke-linejoin:round; stroke-width:2; stroke-opacity:0.1; fill:none" points="1567.79,1234.58 1567.79,47.2441 "/>
<polyline clip-path="url(#clip012)" style="stroke:#000000; stroke-linecap:round; stroke-linejoin:round; stroke-width:2; stroke-opacity:0.1; fill:none" points="2011.51,1234.58 2011.51,47.2441 "/>
<polyline clip-path="url(#clip010)" style="stroke:#000000; stroke-linecap:round; stroke-linejoin:round; stroke-width:4; stroke-opacity:1; fill:none" points="183.394,1234.58 2064.76,1234.58 "/>
<polyline clip-path="url(#clip010)" style="stroke:#000000; stroke-linecap:round; stroke-linejoin:round; stroke-width:4; stroke-opacity:1; fill:none" points="236.64,1234.58 236.64,1215.68 "/>
<polyline clip-path="url(#clip010)" style="stroke:#000000; stroke-linecap:round; stroke-linejoin:round; stroke-width:4; stroke-opacity:1; fill:none" points="680.358,1234.58 680.358,1215.68 "/>
<polyline clip-path="url(#clip010)" style="stroke:#000000; stroke-linecap:round; stroke-linejoin:round; stroke-width:4; stroke-opacity:1; fill:none" points="1124.07,1234.58 1124.07,1215.68 "/>
<polyline clip-path="url(#clip010)" style="stroke:#000000; stroke-linecap:round; stroke-linejoin:round; stroke-width:4; stroke-opacity:1; fill:none" points="1567.79,1234.58 1567.79,1215.68 "/>
<polyline clip-path="url(#clip010)" style="stroke:#000000; stroke-linecap:round; stroke-linejoin:round; stroke-width:4; stroke-opacity:1; fill:none" points="2011.51,1234.58 2011.51,1215.68 "/>
<path clip-path="url(#clip010)" d="M188.712 1290.74 L196.351 1290.74 L196.351 1264.37 L188.041 1266.04 L188.041 1261.78 L196.305 1260.11 L200.981 1260.11 L200.981 1290.74 L208.619 1290.74 L208.619 1294.67 L188.712 1294.67 L188.712 1290.74 Z" fill="#000000" fill-rule="nonzero" fill-opacity="1" /><path clip-path="url(#clip010)" d="M218.064 1288.8 L222.948 1288.8 L222.948 1294.67 L218.064 1294.67 L218.064 1288.8 Z" fill="#000000" fill-rule="nonzero" fill-opacity="1" /><path clip-path="url(#clip010)" d="M243.133 1263.19 Q239.522 1263.19 237.693 1266.76 Q235.888 1270.3 235.888 1277.43 Q235.888 1284.54 237.693 1288.1 Q239.522 1291.64 243.133 1291.64 Q246.767 1291.64 248.573 1288.1 Q250.402 1284.54 250.402 1277.43 Q250.402 1270.3 248.573 1266.76 Q246.767 1263.19 243.133 1263.19 M243.133 1259.49 Q248.943 1259.49 251.999 1264.1 Q255.077 1268.68 255.077 1277.43 Q255.077 1286.16 251.999 1290.76 Q248.943 1295.35 243.133 1295.35 Q237.323 1295.35 234.244 1290.76 Q231.189 1286.16 231.189 1277.43 Q231.189 1268.68 234.244 1264.1 Q237.323 1259.49 243.133 1259.49 Z" fill="#000000" fill-rule="nonzero" fill-opacity="1" /><path clip-path="url(#clip010)" d="M273.295 1263.19 Q269.684 1263.19 267.855 1266.76 Q266.05 1270.3 266.05 1277.43 Q266.05 1284.54 267.855 1288.1 Q269.684 1291.64 273.295 1291.64 Q276.929 1291.64 278.735 1288.1 Q280.563 1284.54 280.563 1277.43 Q280.563 1270.3 278.735 1266.76 Q276.929 1263.19 273.295 1263.19 M273.295 1259.49 Q279.105 1259.49 282.161 1264.1 Q285.239 1268.68 285.239 1277.43 Q285.239 1286.16 282.161 1290.76 Q279.105 1295.35 273.295 1295.35 Q267.485 1295.35 264.406 1290.76 Q261.351 1286.16 261.351 1277.43 Q261.351 1268.68 264.406 1264.1 Q267.485 1259.49 273.295 1259.49 Z" fill="#000000" fill-rule="nonzero" fill-opacity="1" /><path clip-path="url(#clip010)" d="M632.927 1290.74 L640.566 1290.74 L640.566 1264.37 L632.256 1266.04 L632.256 1261.78 L640.52 1260.11 L645.196 1260.11 L645.196 1290.74 L652.835 1290.74 L652.835 1294.67 L632.927 1294.67 L632.927 1290.74 Z" fill="#000000" fill-rule="nonzero" fill-opacity="1" /><path clip-path="url(#clip010)" d="M662.279 1288.8 L667.163 1288.8 L667.163 1294.67 L662.279 1294.67 L662.279 1288.8 Z" fill="#000000" fill-rule="nonzero" fill-opacity="1" /><path clip-path="url(#clip010)" d="M681.376 1290.74 L697.695 1290.74 L697.695 1294.67 L675.751 1294.67 L675.751 1290.74 Q678.413 1287.99 682.996 1283.36 Q687.603 1278.7 688.783 1277.36 Q691.029 1274.84 691.908 1273.1 Q692.811 1271.34 692.811 1269.65 Q692.811 1266.9 690.867 1265.16 Q688.945 1263.42 685.844 1263.42 Q683.645 1263.42 681.191 1264.19 Q678.76 1264.95 675.983 1266.5 L675.983 1261.78 Q678.807 1260.65 681.26 1260.07 Q683.714 1259.49 685.751 1259.49 Q691.121 1259.49 694.316 1262.17 Q697.51 1264.86 697.51 1269.35 Q697.51 1271.48 696.7 1273.4 Q695.913 1275.3 693.807 1277.89 Q693.228 1278.56 690.126 1281.78 Q687.024 1284.98 681.376 1290.74 Z" fill="#000000" fill-rule="nonzero" fill-opacity="1" /><path clip-path="url(#clip010)" d="M707.556 1260.11 L725.913 1260.11 L725.913 1264.05 L711.839 1264.05 L711.839 1272.52 Q712.857 1272.17 713.876 1272.01 Q714.894 1271.83 715.913 1271.83 Q721.7 1271.83 725.08 1275 Q728.459 1278.17 728.459 1283.59 Q728.459 1289.17 724.987 1292.27 Q721.515 1295.35 715.195 1295.35 Q713.019 1295.35 710.751 1294.98 Q708.506 1294.61 706.098 1293.86 L706.098 1289.17 Q708.181 1290.3 710.404 1290.86 Q712.626 1291.41 715.103 1291.41 Q719.107 1291.41 721.445 1289.3 Q723.783 1287.2 723.783 1283.59 Q723.783 1279.98 721.445 1277.87 Q719.107 1275.76 715.103 1275.76 Q713.228 1275.76 711.353 1276.18 Q709.501 1276.6 707.556 1277.48 L707.556 1260.11 Z" fill="#000000" fill-rule="nonzero" fill-opacity="1" /><path clip-path="url(#clip010)" d="M1076.15 1290.74 L1083.79 1290.74 L1083.79 1264.37 L1075.48 1266.04 L1075.48 1261.78 L1083.74 1260.11 L1088.42 1260.11 L1088.42 1290.74 L1096.05 1290.74 L1096.05 1294.67 L1076.15 1294.67 L1076.15 1290.74 Z" fill="#000000" fill-rule="nonzero" fill-opacity="1" /><path clip-path="url(#clip010)" d="M1105.5 1288.8 L1110.38 1288.8 L1110.38 1294.67 L1105.5 1294.67 L1105.5 1288.8 Z" fill="#000000" fill-rule="nonzero" fill-opacity="1" /><path clip-path="url(#clip010)" d="M1120.61 1260.11 L1138.97 1260.11 L1138.97 1264.05 L1124.9 1264.05 L1124.9 1272.52 Q1125.92 1272.17 1126.93 1272.01 Q1127.95 1271.83 1128.97 1271.83 Q1134.76 1271.83 1138.14 1275 Q1141.52 1278.17 1141.52 1283.59 Q1141.52 1289.17 1138.04 1292.27 Q1134.57 1295.35 1128.25 1295.35 Q1126.08 1295.35 1123.81 1294.98 Q1121.56 1294.61 1119.16 1293.86 L1119.16 1289.17 Q1121.24 1290.3 1123.46 1290.86 Q1125.68 1291.41 1128.16 1291.41 Q1132.17 1291.41 1134.5 1289.3 Q1136.84 1287.2 1136.84 1283.59 Q1136.84 1279.98 1134.5 1277.87 Q1132.17 1275.76 1128.16 1275.76 Q1126.29 1275.76 1124.41 1276.18 Q1122.56 1276.6 1120.61 1277.48 L1120.61 1260.11 Z" fill="#000000" fill-rule="nonzero" fill-opacity="1" /><path clip-path="url(#clip010)" d="M1160.73 1263.19 Q1157.12 1263.19 1155.29 1266.76 Q1153.48 1270.3 1153.48 1277.43 Q1153.48 1284.54 1155.29 1288.1 Q1157.12 1291.64 1160.73 1291.64 Q1164.36 1291.64 1166.17 1288.1 Q1168 1284.54 1168 1277.43 Q1168 1270.3 1166.17 1266.76 Q1164.36 1263.19 1160.73 1263.19 M1160.73 1259.49 Q1166.54 1259.49 1169.6 1264.1 Q1172.67 1268.68 1172.67 1277.43 Q1172.67 1286.16 1169.6 1290.76 Q1166.54 1295.35 1160.73 1295.35 Q1154.92 1295.35 1151.84 1290.76 Q1148.79 1286.16 1148.79 1277.43 Q1148.79 1268.68 1151.84 1264.1 Q1154.92 1259.49 1160.73 1259.49 Z" fill="#000000" fill-rule="nonzero" fill-opacity="1" /><path clip-path="url(#clip010)" d="M1520.36 1290.74 L1528 1290.74 L1528 1264.37 L1519.69 1266.04 L1519.69 1261.78 L1527.95 1260.11 L1532.63 1260.11 L1532.63 1290.74 L1540.27 1290.74 L1540.27 1294.67 L1520.36 1294.67 L1520.36 1290.74 Z" fill="#000000" fill-rule="nonzero" fill-opacity="1" /><path clip-path="url(#clip010)" d="M1549.71 1288.8 L1554.6 1288.8 L1554.6 1294.67 L1549.71 1294.67 L1549.71 1288.8 Z" fill="#000000" fill-rule="nonzero" fill-opacity="1" /><path clip-path="url(#clip010)" d="M1563.6 1260.11 L1585.82 1260.11 L1585.82 1262.11 L1573.28 1294.67 L1568.39 1294.67 L1580.2 1264.05 L1563.6 1264.05 L1563.6 1260.11 Z" fill="#000000" fill-rule="nonzero" fill-opacity="1" /><path clip-path="url(#clip010)" d="M1594.99 1260.11 L1613.35 1260.11 L1613.35 1264.05 L1599.27 1264.05 L1599.27 1272.52 Q1600.29 1272.17 1601.31 1272.01 Q1602.33 1271.83 1603.35 1271.83 Q1609.13 1271.83 1612.51 1275 Q1615.89 1278.17 1615.89 1283.59 Q1615.89 1289.17 1612.42 1292.27 Q1608.95 1295.35 1602.63 1295.35 Q1600.45 1295.35 1598.19 1294.98 Q1595.94 1294.61 1593.53 1293.86 L1593.53 1289.17 Q1595.62 1290.3 1597.84 1290.86 Q1600.06 1291.41 1602.54 1291.41 Q1606.54 1291.41 1608.88 1289.3 Q1611.22 1287.2 1611.22 1283.59 Q1611.22 1279.98 1608.88 1277.87 Q1606.54 1275.76 1602.54 1275.76 Q1600.66 1275.76 1598.79 1276.18 Q1596.94 1276.6 1594.99 1277.48 L1594.99 1260.11 Z" fill="#000000" fill-rule="nonzero" fill-opacity="1" /><path clip-path="url(#clip010)" d="M1967.67 1290.74 L1983.99 1290.74 L1983.99 1294.67 L1962.04 1294.67 L1962.04 1290.74 Q1964.7 1287.99 1969.29 1283.36 Q1973.89 1278.7 1975.07 1277.36 Q1977.32 1274.84 1978.2 1273.1 Q1979.1 1271.34 1979.1 1269.65 Q1979.1 1266.9 1977.16 1265.16 Q1975.24 1263.42 1972.14 1263.42 Q1969.94 1263.42 1967.48 1264.19 Q1965.05 1264.95 1962.27 1266.5 L1962.27 1261.78 Q1965.1 1260.65 1967.55 1260.07 Q1970.01 1259.49 1972.04 1259.49 Q1977.41 1259.49 1980.61 1262.17 Q1983.8 1264.86 1983.8 1269.35 Q1983.8 1271.48 1982.99 1273.4 Q1982.2 1275.3 1980.1 1277.89 Q1979.52 1278.56 1976.42 1281.78 Q1973.32 1284.98 1967.67 1290.74 Z" fill="#000000" fill-rule="nonzero" fill-opacity="1" /><path clip-path="url(#clip010)" d="M1993.8 1288.8 L1998.69 1288.8 L1998.69 1294.67 L1993.8 1294.67 L1993.8 1288.8 Z" fill="#000000" fill-rule="nonzero" fill-opacity="1" /><path clip-path="url(#clip010)" d="M2018.87 1263.19 Q2015.26 1263.19 2013.43 1266.76 Q2011.63 1270.3 2011.63 1277.43 Q2011.63 1284.54 2013.43 1288.1 Q2015.26 1291.64 2018.87 1291.64 Q2022.51 1291.64 2024.31 1288.1 Q2026.14 1284.54 2026.14 1277.43 Q2026.14 1270.3 2024.31 1266.76 Q2022.51 1263.19 2018.87 1263.19 M2018.87 1259.49 Q2024.68 1259.49 2027.74 1264.1 Q2030.82 1268.68 2030.82 1277.43 Q2030.82 1286.16 2027.74 1290.76 Q2024.68 1295.35 2018.87 1295.35 Q2013.06 1295.35 2009.98 1290.76 Q2006.93 1286.16 2006.93 1277.43 Q2006.93 1268.68 2009.98 1264.1 Q2013.06 1259.49 2018.87 1259.49 Z" fill="#000000" fill-rule="nonzero" fill-opacity="1" /><path clip-path="url(#clip010)" d="M2049.03 1263.19 Q2045.42 1263.19 2043.59 1266.76 Q2041.79 1270.3 2041.79 1277.43 Q2041.79 1284.54 2043.59 1288.1 Q2045.42 1291.64 2049.03 1291.64 Q2052.67 1291.64 2054.47 1288.1 Q2056.3 1284.54 2056.3 1277.43 Q2056.3 1270.3 2054.47 1266.76 Q2052.67 1263.19 2049.03 1263.19 M2049.03 1259.49 Q2054.84 1259.49 2057.9 1264.1 Q2060.98 1268.68 2060.98 1277.43 Q2060.98 1286.16 2057.9 1290.76 Q2054.84 1295.35 2049.03 1295.35 Q2043.22 1295.35 2040.14 1290.76 Q2037.09 1286.16 2037.09 1277.43 Q2037.09 1268.68 2040.14 1264.1 Q2043.22 1259.49 2049.03 1259.49 Z" fill="#000000" fill-rule="nonzero" fill-opacity="1" /><polyline clip-path="url(#clip012)" style="stroke:#000000; stroke-linecap:round; stroke-linejoin:round; stroke-width:2; stroke-opacity:0.1; fill:none" points="183.394,1200.97 2064.76,1200.97 "/>
<polyline clip-path="url(#clip012)" style="stroke:#000000; stroke-linecap:round; stroke-linejoin:round; stroke-width:2; stroke-opacity:0.1; fill:none" points="183.394,920.943 2064.76,920.943 "/>
<polyline clip-path="url(#clip012)" style="stroke:#000000; stroke-linecap:round; stroke-linejoin:round; stroke-width:2; stroke-opacity:0.1; fill:none" points="183.394,640.911 2064.76,640.911 "/>
<polyline clip-path="url(#clip012)" style="stroke:#000000; stroke-linecap:round; stroke-linejoin:round; stroke-width:2; stroke-opacity:0.1; fill:none" points="183.394,360.88 2064.76,360.88 "/>
<polyline clip-path="url(#clip012)" style="stroke:#000000; stroke-linecap:round; stroke-linejoin:round; stroke-width:2; stroke-opacity:0.1; fill:none" points="183.394,80.8479 2064.76,80.8479 "/>
<polyline clip-path="url(#clip010)" style="stroke:#000000; stroke-linecap:round; stroke-linejoin:round; stroke-width:4; stroke-opacity:1; fill:none" points="183.394,1234.58 183.394,47.2441 "/>
<polyline clip-path="url(#clip010)" style="stroke:#000000; stroke-linecap:round; stroke-linejoin:round; stroke-width:4; stroke-opacity:1; fill:none" points="183.394,1200.97 202.292,1200.97 "/>
<polyline clip-path="url(#clip010)" style="stroke:#000000; stroke-linecap:round; stroke-linejoin:round; stroke-width:4; stroke-opacity:1; fill:none" points="183.394,920.943 202.292,920.943 "/>
<polyline clip-path="url(#clip010)" style="stroke:#000000; stroke-linecap:round; stroke-linejoin:round; stroke-width:4; stroke-opacity:1; fill:none" points="183.394,640.911 202.292,640.911 "/>
<polyline clip-path="url(#clip010)" style="stroke:#000000; stroke-linecap:round; stroke-linejoin:round; stroke-width:4; stroke-opacity:1; fill:none" points="183.394,360.88 202.292,360.88 "/>
<polyline clip-path="url(#clip010)" style="stroke:#000000; stroke-linecap:round; stroke-linejoin:round; stroke-width:4; stroke-opacity:1; fill:none" points="183.394,80.8479 202.292,80.8479 "/>
<path clip-path="url(#clip010)" d="M64.3765 1186.77 Q60.7654 1186.77 58.9367 1190.34 Q57.1312 1193.88 57.1312 1201.01 Q57.1312 1208.12 58.9367 1211.68 Q60.7654 1215.22 64.3765 1215.22 Q68.0107 1215.22 69.8163 1211.68 Q71.645 1208.12 71.645 1201.01 Q71.645 1193.88 69.8163 1190.34 Q68.0107 1186.77 64.3765 1186.77 M64.3765 1183.07 Q70.1867 1183.07 73.2422 1187.68 Q76.3209 1192.26 76.3209 1201.01 Q76.3209 1209.74 73.2422 1214.34 Q70.1867 1218.93 64.3765 1218.93 Q58.5664 1218.93 55.4877 1214.34 Q52.4321 1209.74 52.4321 1201.01 Q52.4321 1192.26 55.4877 1187.68 Q58.5664 1183.07 64.3765 1183.07 Z" fill="#000000" fill-rule="nonzero" fill-opacity="1" /><path clip-path="url(#clip010)" d="M84.5384 1212.38 L89.4227 1212.38 L89.4227 1218.25 L84.5384 1218.25 L84.5384 1212.38 Z" fill="#000000" fill-rule="nonzero" fill-opacity="1" /><path clip-path="url(#clip010)" d="M109.608 1186.77 Q105.997 1186.77 104.168 1190.34 Q102.362 1193.88 102.362 1201.01 Q102.362 1208.12 104.168 1211.68 Q105.997 1215.22 109.608 1215.22 Q113.242 1215.22 115.048 1211.68 Q116.876 1208.12 116.876 1201.01 Q116.876 1193.88 115.048 1190.34 Q113.242 1186.77 109.608 1186.77 M109.608 1183.07 Q115.418 1183.07 118.473 1187.68 Q121.552 1192.26 121.552 1201.01 Q121.552 1209.74 118.473 1214.34 Q115.418 1218.93 109.608 1218.93 Q103.798 1218.93 100.719 1214.34 Q97.6634 1209.74 97.6634 1201.01 Q97.6634 1192.26 100.719 1187.68 Q103.798 1183.07 109.608 1183.07 Z" fill="#000000" fill-rule="nonzero" fill-opacity="1" /><path clip-path="url(#clip010)" d="M139.77 1186.77 Q136.159 1186.77 134.33 1190.34 Q132.524 1193.88 132.524 1201.01 Q132.524 1208.12 134.33 1211.68 Q136.159 1215.22 139.77 1215.22 Q143.404 1215.22 145.209 1211.68 Q147.038 1208.12 147.038 1201.01 Q147.038 1193.88 145.209 1190.34 Q143.404 1186.77 139.77 1186.77 M139.77 1183.07 Q145.58 1183.07 148.635 1187.68 Q151.714 1192.26 151.714 1201.01 Q151.714 1209.74 148.635 1214.34 Q145.58 1218.93 139.77 1218.93 Q133.959 1218.93 130.881 1214.34 Q127.825 1209.74 127.825 1201.01 Q127.825 1192.26 130.881 1187.68 Q133.959 1183.07 139.77 1183.07 Z" fill="#000000" fill-rule="nonzero" fill-opacity="1" /><path clip-path="url(#clip010)" d="M65.3719 906.742 Q61.7608 906.742 59.9321 910.307 Q58.1265 913.848 58.1265 920.978 Q58.1265 928.084 59.9321 931.649 Q61.7608 935.191 65.3719 935.191 Q69.0061 935.191 70.8117 931.649 Q72.6404 928.084 72.6404 920.978 Q72.6404 913.848 70.8117 910.307 Q69.0061 906.742 65.3719 906.742 M65.3719 903.038 Q71.182 903.038 74.2376 907.645 Q77.3163 912.228 77.3163 920.978 Q77.3163 929.705 74.2376 934.311 Q71.182 938.894 65.3719 938.894 Q59.5617 938.894 56.483 934.311 Q53.4275 929.705 53.4275 920.978 Q53.4275 912.228 56.483 907.645 Q59.5617 903.038 65.3719 903.038 Z" fill="#000000" fill-rule="nonzero" fill-opacity="1" /><path clip-path="url(#clip010)" d="M85.5338 932.344 L90.418 932.344 L90.418 938.223 L85.5338 938.223 L85.5338 932.344 Z" fill="#000000" fill-rule="nonzero" fill-opacity="1" /><path clip-path="url(#clip010)" d="M104.631 934.288 L120.95 934.288 L120.95 938.223 L99.006 938.223 L99.006 934.288 Q101.668 931.533 106.251 926.904 Q110.858 922.251 112.038 920.908 Q114.284 918.385 115.163 916.649 Q116.066 914.89 116.066 913.2 Q116.066 910.446 114.122 908.709 Q112.2 906.973 109.098 906.973 Q106.899 906.973 104.446 907.737 Q102.015 908.501 99.2374 910.052 L99.2374 905.33 Q102.061 904.196 104.515 903.617 Q106.969 903.038 109.006 903.038 Q114.376 903.038 117.571 905.723 Q120.765 908.409 120.765 912.899 Q120.765 915.029 119.955 916.95 Q119.168 918.848 117.061 921.441 Q116.483 922.112 113.381 925.33 Q110.279 928.524 104.631 934.288 Z" fill="#000000" fill-rule="nonzero" fill-opacity="1" /><path clip-path="url(#clip010)" d="M130.811 903.663 L149.168 903.663 L149.168 907.598 L135.094 907.598 L135.094 916.071 Q136.112 915.723 137.131 915.561 Q138.149 915.376 139.168 915.376 Q144.955 915.376 148.334 918.547 Q151.714 921.719 151.714 927.135 Q151.714 932.714 148.242 935.816 Q144.77 938.894 138.45 938.894 Q136.274 938.894 134.006 938.524 Q131.76 938.154 129.353 937.413 L129.353 932.714 Q131.436 933.848 133.659 934.404 Q135.881 934.959 138.358 934.959 Q142.362 934.959 144.7 932.853 Q147.038 930.746 147.038 927.135 Q147.038 923.524 144.7 921.418 Q142.362 919.311 138.358 919.311 Q136.483 919.311 134.608 919.728 Q132.756 920.145 130.811 921.024 L130.811 903.663 Z" fill="#000000" fill-rule="nonzero" fill-opacity="1" /><path clip-path="url(#clip010)" d="M64.3765 626.71 Q60.7654 626.71 58.9367 630.275 Q57.1312 633.817 57.1312 640.946 Q57.1312 648.053 58.9367 651.617 Q60.7654 655.159 64.3765 655.159 Q68.0107 655.159 69.8163 651.617 Q71.645 648.053 71.645 640.946 Q71.645 633.817 69.8163 630.275 Q68.0107 626.71 64.3765 626.71 M64.3765 623.006 Q70.1867 623.006 73.2422 627.613 Q76.3209 632.196 76.3209 640.946 Q76.3209 649.673 73.2422 654.279 Q70.1867 658.863 64.3765 658.863 Q58.5664 658.863 55.4877 654.279 Q52.4321 649.673 52.4321 640.946 Q52.4321 632.196 55.4877 627.613 Q58.5664 623.006 64.3765 623.006 Z" fill="#000000" fill-rule="nonzero" fill-opacity="1" /><path clip-path="url(#clip010)" d="M84.5384 652.312 L89.4227 652.312 L89.4227 658.191 L84.5384 658.191 L84.5384 652.312 Z" fill="#000000" fill-rule="nonzero" fill-opacity="1" /><path clip-path="url(#clip010)" d="M99.6541 623.631 L118.01 623.631 L118.01 627.567 L103.936 627.567 L103.936 636.039 Q104.955 635.692 105.974 635.53 Q106.992 635.344 108.011 635.344 Q113.798 635.344 117.177 638.516 Q120.557 641.687 120.557 647.104 Q120.557 652.682 117.085 655.784 Q113.612 658.863 107.293 658.863 Q105.117 658.863 102.849 658.492 Q100.603 658.122 98.1958 657.381 L98.1958 652.682 Q100.279 653.816 102.501 654.372 Q104.724 654.928 107.2 654.928 Q111.205 654.928 113.543 652.821 Q115.881 650.715 115.881 647.104 Q115.881 643.492 113.543 641.386 Q111.205 639.28 107.2 639.28 Q105.325 639.28 103.45 639.696 Q101.599 640.113 99.6541 640.992 L99.6541 623.631 Z" fill="#000000" fill-rule="nonzero" fill-opacity="1" /><path clip-path="url(#clip010)" d="M139.77 626.71 Q136.159 626.71 134.33 630.275 Q132.524 633.817 132.524 640.946 Q132.524 648.053 134.33 651.617 Q136.159 655.159 139.77 655.159 Q143.404 655.159 145.209 651.617 Q147.038 648.053 147.038 640.946 Q147.038 633.817 145.209 630.275 Q143.404 626.71 139.77 626.71 M139.77 623.006 Q145.58 623.006 148.635 627.613 Q151.714 632.196 151.714 640.946 Q151.714 649.673 148.635 654.279 Q145.58 658.863 139.77 658.863 Q133.959 658.863 130.881 654.279 Q127.825 649.673 127.825 640.946 Q127.825 632.196 130.881 627.613 Q133.959 623.006 139.77 623.006 Z" fill="#000000" fill-rule="nonzero" fill-opacity="1" /><path clip-path="url(#clip010)" d="M65.3719 346.678 Q61.7608 346.678 59.9321 350.243 Q58.1265 353.785 58.1265 360.914 Q58.1265 368.021 59.9321 371.586 Q61.7608 375.127 65.3719 375.127 Q69.0061 375.127 70.8117 371.586 Q72.6404 368.021 72.6404 360.914 Q72.6404 353.785 70.8117 350.243 Q69.0061 346.678 65.3719 346.678 M65.3719 342.975 Q71.182 342.975 74.2376 347.581 Q77.3163 352.164 77.3163 360.914 Q77.3163 369.641 74.2376 374.248 Q71.182 378.831 65.3719 378.831 Q59.5617 378.831 56.483 374.248 Q53.4275 369.641 53.4275 360.914 Q53.4275 352.164 56.483 347.581 Q59.5617 342.975 65.3719 342.975 Z" fill="#000000" fill-rule="nonzero" fill-opacity="1" /><path clip-path="url(#clip010)" d="M85.5338 372.28 L90.418 372.28 L90.418 378.16 L85.5338 378.16 L85.5338 372.28 Z" fill="#000000" fill-rule="nonzero" fill-opacity="1" /><path clip-path="url(#clip010)" d="M99.4226 343.6 L121.645 343.6 L121.645 345.59 L109.098 378.16 L104.214 378.16 L116.02 347.535 L99.4226 347.535 L99.4226 343.6 Z" fill="#000000" fill-rule="nonzero" fill-opacity="1" /><path clip-path="url(#clip010)" d="M130.811 343.6 L149.168 343.6 L149.168 347.535 L135.094 347.535 L135.094 356.007 Q136.112 355.66 137.131 355.498 Q138.149 355.313 139.168 355.313 Q144.955 355.313 148.334 358.484 Q151.714 361.655 151.714 367.072 Q151.714 372.65 148.242 375.752 Q144.77 378.831 138.45 378.831 Q136.274 378.831 134.006 378.461 Q131.76 378.09 129.353 377.349 L129.353 372.65 Q131.436 373.785 133.659 374.34 Q135.881 374.896 138.358 374.896 Q142.362 374.896 144.7 372.789 Q147.038 370.683 147.038 367.072 Q147.038 363.461 144.7 361.354 Q142.362 359.248 138.358 359.248 Q136.483 359.248 134.608 359.664 Q132.756 360.081 130.811 360.961 L130.811 343.6 Z" fill="#000000" fill-rule="nonzero" fill-opacity="1" /><path clip-path="url(#clip010)" d="M55.1867 94.1927 L62.8256 94.1927 L62.8256 67.8271 L54.5154 69.4938 L54.5154 65.2346 L62.7793 63.5679 L67.4552 63.5679 L67.4552 94.1927 L75.094 94.1927 L75.094 98.1279 L55.1867 98.1279 L55.1867 94.1927 Z" fill="#000000" fill-rule="nonzero" fill-opacity="1" /><path clip-path="url(#clip010)" d="M84.5384 92.2483 L89.4227 92.2483 L89.4227 98.1279 L84.5384 98.1279 L84.5384 92.2483 Z" fill="#000000" fill-rule="nonzero" fill-opacity="1" /><path clip-path="url(#clip010)" d="M109.608 66.6466 Q105.997 66.6466 104.168 70.2114 Q102.362 73.753 102.362 80.8826 Q102.362 87.9891 104.168 91.5539 Q105.997 95.0955 109.608 95.0955 Q113.242 95.0955 115.048 91.5539 Q116.876 87.9891 116.876 80.8826 Q116.876 73.753 115.048 70.2114 Q113.242 66.6466 109.608 66.6466 M109.608 62.9429 Q115.418 62.9429 118.473 67.5494 Q121.552 72.1327 121.552 80.8826 Q121.552 89.6094 118.473 94.2159 Q115.418 98.7992 109.608 98.7992 Q103.798 98.7992 100.719 94.2159 Q97.6634 89.6094 97.6634 80.8826 Q97.6634 72.1327 100.719 67.5494 Q103.798 62.9429 109.608 62.9429 Z" fill="#000000" fill-rule="nonzero" fill-opacity="1" /><path clip-path="url(#clip010)" d="M139.77 66.6466 Q136.159 66.6466 134.33 70.2114 Q132.524 73.753 132.524 80.8826 Q132.524 87.9891 134.33 91.5539 Q136.159 95.0955 139.77 95.0955 Q143.404 95.0955 145.209 91.5539 Q147.038 87.9891 147.038 80.8826 Q147.038 73.753 145.209 70.2114 Q143.404 66.6466 139.77 66.6466 M139.77 62.9429 Q145.58 62.9429 148.635 67.5494 Q151.714 72.1327 151.714 80.8826 Q151.714 89.6094 148.635 94.2159 Q145.58 98.7992 139.77 98.7992 Q133.959 98.7992 130.881 94.2159 Q127.825 89.6094 127.825 80.8826 Q127.825 72.1327 130.881 67.5494 Q133.959 62.9429 139.77 62.9429 Z" fill="#000000" fill-rule="nonzero" fill-opacity="1" /><path clip-path="url(#clip012)" d="M236.64 1200.97 L242.418 1200.96 L248.195 1200.93 L301.619 1199.47 L355.042 1195.99 L387.147 1192.92 L419.252 1189.12 L446.396 1185.33 L473.54 1181.02 L532.513 1169.85 L586.881 1157.36 L645.169 1141.63 L712.701 1120.39 L772.716 1098.79 L825.343 1077.74 L882.722 1052.55 L940.441 1024.84 L1004.26 991.456 L1064.98 956.999 L1128.11 918.391 L1181.26 883.694 L1246.14 838.61 L1305.58 794.682 L1360.47 751.88 L1416.08 706.338 L1478.4 652.684 L1534.87 601.68 L1599.53 540.499 L1659.4 481.2 L1718.42 420.243 L1775.73 358.689 L1805.1 326.233 L1834.47 293.164 L1866.65 256.228 L1898.83 218.556 L1945.58 162.519 L1992.33 104.928 L2001.92 92.9204 L2011.51 80.8479 L2011.51 80.8479 L2001.92 86.9005 L1992.33 92.9531 L1945.58 122.456 L1898.83 151.959 L1866.65 172.269 L1834.47 192.578 L1805.1 211.115 L1775.73 229.653 L1718.42 265.818 L1659.4 303.067 L1599.53 340.849 L1534.87 381.654 L1478.4 417.294 L1416.08 456.625 L1360.47 491.719 L1305.58 526.364 L1246.14 563.876 L1181.26 604.825 L1128.11 638.365 L1064.98 678.209 L1004.26 716.529 L940.441 756.804 L882.722 793.23 L825.343 829.442 L772.716 862.655 L712.701 900.531 L645.169 943.151 L586.881 979.937 L532.513 1014.25 L473.54 1051.47 L446.396 1068.6 L419.252 1085.73 L387.147 1105.99 L355.042 1126.25 L301.619 1159.97 L248.195 1193.68 L242.418 1197.33 L236.64 1200.97  Z" fill="#009af9" fill-rule="evenodd" fill-opacity="0.3"/>
<polyline clip-path="url(#clip012)" style="stroke:#009af9; stroke-linecap:round; stroke-linejoin:round; stroke-width:4; stroke-opacity:1; fill:none" points="236.64,1200.97 242.418,1200.96 248.195,1200.93 301.619,1199.47 355.042,1195.99 387.147,1192.92 419.252,1189.12 446.396,1185.33 473.54,1181.02 532.513,1169.85 586.881,1157.36 645.169,1141.63 712.701,1120.39 772.716,1098.79 825.343,1077.74 882.722,1052.55 940.441,1024.84 1004.26,991.456 1064.98,956.999 1128.11,918.391 1181.26,883.694 1246.14,838.61 1305.58,794.682 1360.47,751.88 1416.08,706.338 1478.4,652.684 1534.87,601.68 1599.53,540.499 1659.4,481.2 1718.42,420.243 1775.73,358.689 1805.1,326.233 1834.47,293.164 1866.65,256.228 1898.83,218.556 1945.58,162.519 1992.33,104.928 2001.92,92.9204 2011.51,80.8479 "/>
<polyline clip-path="url(#clip012)" style="stroke:#e26f46; stroke-linecap:round; stroke-linejoin:round; stroke-width:4; stroke-opacity:1; fill:none" points="236.64,1200.97 248.195,1193.68 355.042,1126.25 419.252,1085.73 473.54,1051.47 532.513,1014.25 586.881,979.937 645.169,943.151 712.701,900.531 772.716,862.655 825.343,829.442 882.722,793.23 940.441,756.804 1004.26,716.529 1064.98,678.209 1128.11,638.365 1181.26,604.825 1246.14,563.876 1305.58,526.364 1360.47,491.719 1416.08,456.625 1478.4,417.294 1534.87,381.654 1599.53,340.849 1659.4,303.067 1718.42,265.818 1775.73,229.653 1834.47,192.578 1898.83,151.959 1992.33,92.9531 2011.51,80.8479 "/>
<polyline clip-path="url(#clip012)" style="stroke:#3da44d; stroke-linecap:round; stroke-linejoin:round; stroke-width:4; stroke-opacity:1; fill:none" points="236.64,1200.97 242.418,1200.96 248.195,1200.93 301.619,1199.47 355.042,1195.99 387.147,1192.92 419.252,1189.12 446.396,1185.33 473.54,1181.02 532.513,1169.85 586.881,1157.36 645.169,1141.63 712.701,1120.39 772.716,1098.79 825.343,1077.74 882.722,1052.55 940.441,1024.84 1004.26,991.456 1064.98,956.999 1128.11,918.391 1181.26,883.694 1246.14,838.61 1305.58,794.682 1360.47,751.88 1416.08,706.338 1478.4,652.684 1534.87,601.68 1599.53,540.499 1659.4,481.2 1718.42,420.243 1775.73,358.689 1805.1,326.233 1834.47,293.164 1866.65,256.228 1898.83,218.556 1945.58,162.519 1992.33,104.928 2001.92,92.9204 2011.51,80.8479 "/>
<path clip-path="url(#clip010)" d="M246.106 242.342 L814.323 242.342 L814.323 86.8219 L246.106 86.8219  Z" fill="#ffffff" fill-rule="evenodd" fill-opacity="1"/>
<polyline clip-path="url(#clip010)" style="stroke:#000000; stroke-linecap:round; stroke-linejoin:round; stroke-width:4; stroke-opacity:1; fill:none" points="246.106,242.342 814.323,242.342 814.323,86.8219 246.106,86.8219 246.106,242.342 "/>
<polyline clip-path="url(#clip010)" style="stroke:#e26f46; stroke-linecap:round; stroke-linejoin:round; stroke-width:4; stroke-opacity:1; fill:none" points="267.01,138.662 392.434,138.662 "/>
<path clip-path="url(#clip010)" d="M437.253 120.452 Q437.253 121.74 436.433 122.537 Q435.636 123.333 434.629 123.333 Q433.903 123.333 433.364 122.888 Q432.849 122.443 432.849 121.67 Q432.849 120.874 433.458 120.03 Q434.067 119.187 435.449 119.07 Q434.536 118.204 433.083 118.204 Q432.357 118.204 431.748 118.672 Q431.163 119.117 430.835 119.843 Q430.483 120.593 429.687 124.832 Q429.429 126.214 429.195 127.549 Q428.961 128.884 428.68 130.29 L432.662 130.29 Q433.177 130.29 433.388 130.313 Q433.599 130.336 433.763 130.453 Q433.95 130.571 433.95 130.828 Q433.95 131.484 433.645 131.648 Q433.364 131.789 432.521 131.789 L428.399 131.789 L425.518 146.99 Q425.448 147.435 425.143 148.84 Q424.862 150.222 424.183 152.494 Q423.504 154.789 422.824 156.148 Q422.45 156.921 421.958 157.647 Q421.489 158.396 420.81 159.146 Q420.131 159.895 419.241 160.341 Q418.351 160.809 417.414 160.809 Q415.821 160.809 414.58 159.919 Q413.338 159.029 413.338 157.506 Q413.338 156.218 414.135 155.422 Q414.954 154.625 415.962 154.625 Q416.688 154.625 417.203 155.07 Q417.742 155.515 417.742 156.288 Q417.742 156.616 417.625 156.991 Q417.507 157.366 417.25 157.787 Q416.992 158.232 416.43 158.537 Q415.868 158.841 415.095 158.888 Q416.008 159.755 417.414 159.755 Q417.859 159.755 418.257 159.568 Q418.655 159.404 418.983 158.982 Q419.334 158.56 419.592 158.139 Q419.85 157.741 420.107 156.968 Q420.365 156.218 420.529 155.656 Q420.693 155.094 420.904 154.087 Q421.138 153.08 421.255 152.471 Q421.372 151.885 421.583 150.737 L425.167 131.789 L422.005 131.789 Q421.442 131.789 421.208 131.765 Q420.997 131.742 420.833 131.625 Q420.669 131.484 420.669 131.203 Q420.669 130.758 420.857 130.571 Q421.068 130.36 421.302 130.336 Q421.536 130.29 422.098 130.29 L425.424 130.29 Q426.548 124.364 426.994 122.771 Q427.509 121.084 428.305 119.913 Q429.102 118.719 429.992 118.157 Q430.882 117.595 431.608 117.384 Q432.357 117.15 433.083 117.15 Q434.723 117.15 435.988 118.04 Q437.253 118.906 437.253 120.452 Z" fill="#000000" fill-rule="nonzero" fill-opacity="1" /><path clip-path="url(#clip010)" d="M443.708 138.979 Q443.708 130.875 446.73 124.34 Q448.018 121.6 449.821 119.304 Q451.625 117.009 452.82 116.002 Q454.014 114.995 454.342 114.995 Q454.81 114.995 454.834 115.463 Q454.834 115.697 454.201 116.283 Q446.472 124.153 446.495 138.979 Q446.495 153.852 454.014 161.418 Q454.834 162.238 454.834 162.495 Q454.834 162.964 454.342 162.964 Q454.014 162.964 452.866 162.004 Q451.719 161.043 449.939 158.841 Q448.158 156.64 446.87 153.946 Q443.708 147.411 443.708 138.979 Z" fill="#000000" fill-rule="nonzero" fill-opacity="1" /><path clip-path="url(#clip010)" d="M482.369 132.936 Q482.369 134.248 481.549 134.997 Q480.73 135.724 479.793 135.724 Q478.903 135.724 478.434 135.208 Q477.966 134.693 477.966 134.037 Q477.966 133.147 478.621 132.374 Q479.277 131.601 480.261 131.437 Q479.301 130.828 477.872 130.828 Q476.935 130.828 476.115 131.32 Q475.319 131.812 474.827 132.444 Q474.359 133.077 473.937 133.99 Q473.539 134.88 473.375 135.419 Q473.234 135.934 473.117 136.496 L471.478 143.055 Q470.681 146.17 470.681 147.271 Q470.681 148.629 471.337 149.543 Q471.993 150.433 473.305 150.433 Q473.82 150.433 474.405 150.292 Q474.991 150.128 475.741 149.707 Q476.513 149.262 477.193 148.606 Q477.895 147.927 478.575 146.779 Q479.254 145.631 479.699 144.156 Q479.839 143.64 480.308 143.64 Q480.893 143.64 480.893 144.109 Q480.893 144.507 480.566 145.35 Q480.261 146.17 479.582 147.247 Q478.926 148.301 478.059 149.262 Q477.193 150.199 475.904 150.854 Q474.616 151.51 473.211 151.51 Q471.197 151.51 469.861 150.433 Q468.526 149.355 468.035 147.856 Q467.917 148.067 467.753 148.348 Q467.59 148.629 467.098 149.262 Q466.629 149.871 466.09 150.339 Q465.552 150.784 464.709 151.135 Q463.889 151.51 462.999 151.51 Q461.874 151.51 460.867 151.182 Q459.884 150.854 459.181 150.105 Q458.478 149.355 458.478 148.325 Q458.478 147.177 459.251 146.381 Q460.047 145.561 461.125 145.561 Q461.804 145.561 462.343 145.959 Q462.905 146.357 462.905 147.224 Q462.905 148.184 462.249 148.91 Q461.593 149.636 460.656 149.824 Q461.617 150.433 463.046 150.433 Q464.591 150.433 465.809 149.074 Q467.027 147.716 467.613 145.444 Q469.065 139.986 469.627 137.55 Q470.189 135.091 470.189 134.037 Q470.189 133.053 469.932 132.374 Q469.674 131.695 469.229 131.39 Q468.807 131.062 468.409 130.945 Q468.035 130.828 467.613 130.828 Q466.91 130.828 466.114 131.109 Q465.341 131.39 464.404 132.046 Q463.491 132.679 462.624 133.99 Q461.757 135.302 461.172 137.105 Q461.055 137.644 460.539 137.644 Q459.977 137.621 459.977 137.152 Q459.977 136.754 460.282 135.934 Q460.61 135.091 461.265 134.037 Q461.945 132.983 462.811 132.046 Q463.701 131.086 464.99 130.43 Q466.301 129.774 467.707 129.774 Q468.339 129.774 468.948 129.915 Q469.58 130.032 470.33 130.383 Q471.103 130.735 471.782 131.507 Q472.461 132.28 472.883 133.405 Q473.164 132.866 473.539 132.351 Q473.937 131.835 474.546 131.203 Q475.178 130.547 476.045 130.172 Q476.935 129.774 477.919 129.774 Q478.879 129.774 479.816 130.032 Q480.753 130.266 481.549 131.039 Q482.369 131.789 482.369 132.936 Z" fill="#000000" fill-rule="nonzero" fill-opacity="1" /><path clip-path="url(#clip010)" d="M486.985 162.495 Q486.985 162.261 487.594 161.676 Q495.324 153.806 495.324 138.979 Q495.324 124.106 487.899 116.587 Q486.985 115.721 486.985 115.463 Q486.985 114.995 487.454 114.995 Q487.782 114.995 488.929 115.955 Q490.1 116.915 491.857 119.117 Q493.637 121.319 494.949 124.012 Q498.111 130.547 498.111 138.979 Q498.111 147.083 495.089 153.618 Q493.801 156.359 491.998 158.654 Q490.194 160.949 488.999 161.957 Q487.805 162.964 487.454 162.964 Q486.985 162.964 486.985 162.495 Z" fill="#000000" fill-rule="nonzero" fill-opacity="1" /><path clip-path="url(#clip010)" d="M518.711 143.687 Q518.758 143.102 519.672 143.102 L549.067 143.102 Q550.449 143.102 550.472 143.64 Q550.472 144.226 549.161 144.202 L520 144.202 Q518.711 144.226 518.711 143.687 M518.711 134.318 Q518.711 133.733 519.719 133.756 L549.02 133.756 Q550.449 133.756 550.472 134.318 Q550.472 134.857 549.254 134.857 L519.672 134.857 Q518.711 134.857 518.711 134.318 Z" fill="#000000" fill-rule="nonzero" fill-opacity="1" /><path clip-path="url(#clip010)" d="M613.947 138.3 Q614.228 138.581 614.228 138.979 Q614.228 139.377 613.947 139.658 Q613.666 139.94 613.268 139.94 L583.24 139.94 Q582.842 139.94 582.561 139.658 Q582.28 139.377 582.28 138.979 Q582.28 138.581 582.561 138.3 Q582.842 138.019 583.24 138.019 L613.268 138.019 Q613.666 138.019 613.947 138.3 Z" fill="#000000" fill-rule="nonzero" fill-opacity="1" /><path clip-path="url(#clip010)" d="M656.431 132.936 Q656.431 134.248 655.611 134.997 Q654.791 135.724 653.854 135.724 Q652.964 135.724 652.496 135.208 Q652.027 134.693 652.027 134.037 Q652.027 133.147 652.683 132.374 Q653.339 131.601 654.323 131.437 Q653.362 130.828 651.934 130.828 Q650.997 130.828 650.177 131.32 Q649.381 131.812 648.889 132.444 Q648.42 133.077 647.999 133.99 Q647.601 134.88 647.437 135.419 Q647.296 135.934 647.179 136.496 L645.539 143.055 Q644.743 146.17 644.743 147.271 Q644.743 148.629 645.399 149.543 Q646.055 150.433 647.366 150.433 Q647.882 150.433 648.467 150.292 Q649.053 150.128 649.802 149.707 Q650.575 149.262 651.254 148.606 Q651.957 147.927 652.636 146.779 Q653.316 145.631 653.761 144.156 Q653.901 143.64 654.37 143.64 Q654.955 143.64 654.955 144.109 Q654.955 144.507 654.627 145.35 Q654.323 146.17 653.644 147.247 Q652.988 148.301 652.121 149.262 Q651.254 150.199 649.966 150.854 Q648.678 151.51 647.273 151.51 Q645.258 151.51 643.923 150.433 Q642.588 149.355 642.096 147.856 Q641.979 148.067 641.815 148.348 Q641.651 148.629 641.159 149.262 Q640.691 149.871 640.152 150.339 Q639.614 150.784 638.77 151.135 Q637.951 151.51 637.06 151.51 Q635.936 151.51 634.929 151.182 Q633.945 150.854 633.243 150.105 Q632.54 149.355 632.54 148.325 Q632.54 147.177 633.313 146.381 Q634.109 145.561 635.187 145.561 Q635.866 145.561 636.405 145.959 Q636.967 146.357 636.967 147.224 Q636.967 148.184 636.311 148.91 Q635.655 149.636 634.718 149.824 Q635.679 150.433 637.107 150.433 Q638.653 150.433 639.871 149.074 Q641.089 147.716 641.675 145.444 Q643.127 139.986 643.689 137.55 Q644.251 135.091 644.251 134.037 Q644.251 133.053 643.994 132.374 Q643.736 131.695 643.291 131.39 Q642.869 131.062 642.471 130.945 Q642.096 130.828 641.675 130.828 Q640.972 130.828 640.176 131.109 Q639.403 131.39 638.466 132.046 Q637.552 132.679 636.686 133.99 Q635.819 135.302 635.234 137.105 Q635.116 137.644 634.601 137.644 Q634.039 137.621 634.039 137.152 Q634.039 136.754 634.343 135.934 Q634.671 135.091 635.327 134.037 Q636.006 132.983 636.873 132.046 Q637.763 131.086 639.051 130.43 Q640.363 129.774 641.768 129.774 Q642.401 129.774 643.01 129.915 Q643.642 130.032 644.392 130.383 Q645.165 130.735 645.844 131.507 Q646.523 132.28 646.945 133.405 Q647.226 132.866 647.601 132.351 Q647.999 131.835 648.608 131.203 Q649.24 130.547 650.107 130.172 Q650.997 129.774 651.981 129.774 Q652.941 129.774 653.878 130.032 Q654.815 130.266 655.611 131.039 Q656.431 131.789 656.431 132.936 Z" fill="#000000" fill-rule="nonzero" fill-opacity="1" /><path clip-path="url(#clip010)" d="M661.31 136.619 Q661.31 136.013 661.359 135.832 Q661.425 135.652 661.687 135.373 L668.131 128.192 Q671.656 124.224 671.656 120.765 Q671.656 118.519 670.475 116.912 Q669.311 115.305 667.163 115.305 Q665.688 115.305 664.442 116.207 Q663.195 117.109 662.622 118.715 Q662.72 118.683 663.064 118.683 Q663.9 118.683 664.36 119.207 Q664.835 119.732 664.835 120.437 Q664.835 121.339 664.245 121.781 Q663.671 122.208 663.097 122.208 Q662.868 122.208 662.556 122.158 Q662.261 122.109 661.785 121.65 Q661.31 121.175 661.31 120.338 Q661.31 117.994 663.081 116.125 Q664.868 114.256 667.59 114.256 Q670.672 114.256 672.689 116.092 Q674.722 117.912 674.722 120.765 Q674.722 121.765 674.41 122.683 Q674.115 123.585 673.705 124.29 Q673.312 124.995 672.229 126.126 Q671.147 127.257 670.278 128.061 Q669.409 128.864 667.458 130.569 L663.9 134.029 L669.95 134.029 Q672.902 134.029 673.131 133.767 Q673.459 133.291 673.869 130.783 L674.722 130.783 L673.771 136.619 L661.31 136.619 Z" fill="#000000" fill-rule="nonzero" fill-opacity="1" /><path clip-path="url(#clip010)" d="M694.112 139.565 Q693.011 139.565 693.011 138.979 Q693.011 138.394 694.159 138.394 Q694.299 138.394 694.534 138.417 Q694.791 138.441 694.838 138.441 L708.353 138.441 L708.353 124.879 Q708.353 124.832 708.329 124.621 Q708.306 124.387 708.306 124.247 Q708.306 123.099 708.868 123.099 Q709.454 123.099 709.454 124.247 L709.454 138.441 L722.992 138.441 Q723.039 138.441 723.273 138.417 Q723.507 138.394 723.648 138.394 Q724.749 138.394 724.749 138.979 Q724.772 139.565 723.601 139.565 Q723.46 139.565 723.249 139.541 Q723.039 139.518 722.992 139.518 L709.454 139.518 L709.454 153.759 Q709.454 154.86 708.868 154.86 Q708.306 154.86 708.306 153.712 Q708.306 153.571 708.329 153.337 Q708.353 153.126 708.353 153.08 L708.353 139.518 L694.838 139.518 Q694.791 139.518 694.51 139.541 Q694.252 139.565 694.112 139.565 Z" fill="#000000" fill-rule="nonzero" fill-opacity="1" /><path clip-path="url(#clip010)" d="M743.271 135.817 Q743.271 128.275 747.113 123.661 Q750.954 119.023 755.896 119.023 Q758.777 119.023 760.37 120.499 Q761.986 121.951 761.986 124.2 Q761.986 125.441 761.26 125.98 Q760.534 126.519 759.784 126.519 Q758.917 126.519 758.238 125.933 Q757.559 125.347 757.559 124.293 Q757.559 122.139 760.206 122.139 Q758.964 120.218 755.99 120.218 Q755.076 120.218 754.139 120.499 Q753.202 120.757 751.984 121.647 Q750.766 122.537 749.83 123.942 Q748.893 125.347 748.237 127.994 Q747.581 130.641 747.581 134.084 L747.581 135.232 Q749.548 130.477 753.577 130.5 Q757.606 130.5 760.393 133.569 Q763.18 136.637 763.18 141.181 Q763.18 145.842 760.276 148.934 Q757.372 152.026 753.296 152.026 Q751.469 152.026 749.806 151.253 Q748.167 150.503 746.621 148.77 Q745.098 147.037 744.185 143.711 Q743.271 140.385 743.271 135.817 M747.675 140.127 Q747.675 144.835 748.541 147.083 Q748.682 147.458 748.986 147.973 Q749.314 148.489 749.853 149.168 Q750.415 149.824 751.329 150.269 Q752.242 150.69 753.296 150.69 Q756.505 150.69 758.051 147.575 Q758.871 145.842 758.871 141.134 Q758.871 136.333 758.004 134.576 Q756.528 131.601 753.53 131.601 Q751.516 131.601 750.111 132.983 Q748.729 134.365 748.19 136.215 Q747.675 138.066 747.675 140.127 Z" fill="#000000" fill-rule="nonzero" fill-opacity="1" /><path clip-path="url(#clip010)" d="M790.147 132.936 Q790.147 134.248 789.327 134.997 Q788.508 135.724 787.571 135.724 Q786.681 135.724 786.212 135.208 Q785.744 134.693 785.744 134.037 Q785.744 133.147 786.4 132.374 Q787.055 131.601 788.039 131.437 Q787.079 130.828 785.65 130.828 Q784.713 130.828 783.893 131.32 Q783.097 131.812 782.605 132.444 Q782.137 133.077 781.715 133.99 Q781.317 134.88 781.153 135.419 Q781.012 135.934 780.895 136.496 L779.256 143.055 Q778.459 146.17 778.459 147.271 Q778.459 148.629 779.115 149.543 Q779.771 150.433 781.083 150.433 Q781.598 150.433 782.184 150.292 Q782.769 150.128 783.519 149.707 Q784.292 149.262 784.971 148.606 Q785.674 147.927 786.353 146.779 Q787.032 145.631 787.477 144.156 Q787.618 143.64 788.086 143.64 Q788.672 143.64 788.672 144.109 Q788.672 144.507 788.344 145.35 Q788.039 146.17 787.36 147.247 Q786.704 148.301 785.838 149.262 Q784.971 150.199 783.683 150.854 Q782.394 151.51 780.989 151.51 Q778.975 151.51 777.64 150.433 Q776.305 149.355 775.813 147.856 Q775.696 148.067 775.532 148.348 Q775.368 148.629 774.876 149.262 Q774.407 149.871 773.869 150.339 Q773.33 150.784 772.487 151.135 Q771.667 151.51 770.777 151.51 Q769.653 151.51 768.645 151.182 Q767.662 150.854 766.959 150.105 Q766.256 149.355 766.256 148.325 Q766.256 147.177 767.029 146.381 Q767.826 145.561 768.903 145.561 Q769.582 145.561 770.121 145.959 Q770.683 146.357 770.683 147.224 Q770.683 148.184 770.027 148.91 Q769.372 149.636 768.435 149.824 Q769.395 150.433 770.824 150.433 Q772.37 150.433 773.588 149.074 Q774.806 147.716 775.391 145.444 Q776.843 139.986 777.405 137.55 Q777.968 135.091 777.968 134.037 Q777.968 133.053 777.71 132.374 Q777.452 131.695 777.007 131.39 Q776.586 131.062 776.187 130.945 Q775.813 130.828 775.391 130.828 Q774.688 130.828 773.892 131.109 Q773.119 131.39 772.182 132.046 Q771.269 132.679 770.402 133.99 Q769.536 135.302 768.95 137.105 Q768.833 137.644 768.318 137.644 Q767.755 137.621 767.755 137.152 Q767.755 136.754 768.06 135.934 Q768.388 135.091 769.044 134.037 Q769.723 132.983 770.59 132.046 Q771.48 131.086 772.768 130.43 Q774.079 129.774 775.485 129.774 Q776.117 129.774 776.726 129.915 Q777.359 130.032 778.108 130.383 Q778.881 130.735 779.56 131.507 Q780.24 132.28 780.661 133.405 Q780.942 132.866 781.317 132.351 Q781.715 131.835 782.324 131.203 Q782.957 130.547 783.823 130.172 Q784.713 129.774 785.697 129.774 Q786.657 129.774 787.594 130.032 Q788.531 130.266 789.327 131.039 Q790.147 131.789 790.147 132.936 Z" fill="#000000" fill-rule="nonzero" fill-opacity="1" /><polyline clip-path="url(#clip010)" style="stroke:#3da44d; stroke-linecap:round; stroke-linejoin:round; stroke-width:4; stroke-opacity:1; fill:none" points="267.01,190.502 392.434,190.502 "/>
<path clip-path="url(#clip010)" d="M435.355 183.863 Q435.355 183.886 435.215 184.729 L429.874 206.02 Q429.593 207.145 428.797 208.269 Q428.024 209.417 426.783 210.4 Q425.565 211.408 423.691 212.017 Q421.841 212.649 419.709 212.649 Q416.313 212.649 414.814 211.923 Q413.338 211.22 413.338 209.721 Q413.338 208.41 414.158 207.66 Q414.978 206.934 415.915 206.934 Q416.805 206.934 417.273 207.449 Q417.742 207.964 417.742 208.62 Q417.742 209.346 417.25 210.072 Q416.758 210.822 415.774 211.103 Q417.343 211.595 419.615 211.595 Q424.417 211.595 426.478 206.512 Q426.525 206.442 426.525 206.419 L428.118 200.071 L428.048 200.024 Q427.649 200.493 427.017 201.031 Q426.408 201.547 425.096 202.179 Q423.785 202.812 422.496 202.812 Q419.803 202.812 417.952 200.75 Q416.126 198.666 416.126 195.223 Q416.126 192.716 417.133 190.21 Q418.163 187.681 419.756 185.83 Q421.372 183.956 423.433 182.785 Q425.518 181.614 427.532 181.614 Q428.938 181.614 430.132 182.457 Q431.327 183.277 431.983 184.636 Q432.1 183.511 432.732 183.043 Q433.388 182.575 433.95 182.575 Q434.582 182.575 434.957 182.926 Q435.355 183.254 435.355 183.863 M431.42 186.791 Q431.42 186.65 431.327 186.275 Q431.233 185.877 430.952 185.245 Q430.694 184.612 430.296 184.05 Q429.898 183.488 429.172 183.09 Q428.469 182.668 427.579 182.668 Q426.127 182.668 424.675 183.886 Q423.223 185.081 422.215 186.931 Q421.278 188.711 420.388 192.154 Q419.522 195.597 419.522 197.354 Q419.522 199.087 420.271 200.422 Q421.021 201.758 422.637 201.758 Q424.511 201.758 426.525 200.024 Q428.61 198.221 428.961 196.675 L431.28 187.517 Q431.42 186.955 431.42 186.791 Z" fill="#000000" fill-rule="nonzero" fill-opacity="1" /><path clip-path="url(#clip010)" d="M441.93 190.819 Q441.93 182.715 444.951 176.18 Q446.24 173.44 448.043 171.144 Q449.847 168.849 451.041 167.842 Q452.236 166.835 452.564 166.835 Q453.032 166.835 453.056 167.303 Q453.056 167.537 452.423 168.123 Q444.694 175.993 444.717 190.819 Q444.717 205.692 452.236 213.258 Q453.056 214.078 453.056 214.335 Q453.056 214.804 452.564 214.804 Q452.236 214.804 451.088 213.844 Q449.94 212.883 448.16 210.681 Q446.38 208.48 445.092 205.786 Q441.93 199.251 441.93 190.819 Z" fill="#000000" fill-rule="nonzero" fill-opacity="1" /><path clip-path="url(#clip010)" d="M480.591 184.776 Q480.591 186.088 479.771 186.837 Q478.951 187.564 478.014 187.564 Q477.124 187.564 476.656 187.048 Q476.187 186.533 476.187 185.877 Q476.187 184.987 476.843 184.214 Q477.499 183.441 478.483 183.277 Q477.522 182.668 476.094 182.668 Q475.157 182.668 474.337 183.16 Q473.541 183.652 473.049 184.284 Q472.58 184.917 472.159 185.83 Q471.761 186.72 471.597 187.259 Q471.456 187.774 471.339 188.336 L469.699 194.895 Q468.903 198.01 468.903 199.111 Q468.903 200.469 469.559 201.383 Q470.215 202.273 471.526 202.273 Q472.042 202.273 472.627 202.132 Q473.213 201.968 473.962 201.547 Q474.735 201.102 475.414 200.446 Q476.117 199.767 476.796 198.619 Q477.476 197.471 477.921 195.996 Q478.061 195.48 478.53 195.48 Q479.115 195.48 479.115 195.949 Q479.115 196.347 478.787 197.19 Q478.483 198.01 477.804 199.087 Q477.148 200.141 476.281 201.102 Q475.414 202.039 474.126 202.694 Q472.838 203.35 471.433 203.35 Q469.418 203.35 468.083 202.273 Q466.748 201.195 466.256 199.696 Q466.139 199.907 465.975 200.188 Q465.811 200.469 465.319 201.102 Q464.851 201.711 464.312 202.179 Q463.773 202.624 462.93 202.975 Q462.11 203.35 461.22 203.35 Q460.096 203.35 459.089 203.022 Q458.105 202.694 457.403 201.945 Q456.7 201.195 456.7 200.165 Q456.7 199.017 457.473 198.221 Q458.269 197.401 459.347 197.401 Q460.026 197.401 460.565 197.799 Q461.127 198.197 461.127 199.064 Q461.127 200.024 460.471 200.75 Q459.815 201.476 458.878 201.664 Q459.838 202.273 461.267 202.273 Q462.813 202.273 464.031 200.914 Q465.249 199.556 465.835 197.284 Q467.287 191.826 467.849 189.39 Q468.411 186.931 468.411 185.877 Q468.411 184.893 468.153 184.214 Q467.896 183.535 467.451 183.23 Q467.029 182.902 466.631 182.785 Q466.256 182.668 465.835 182.668 Q465.132 182.668 464.336 182.949 Q463.563 183.23 462.626 183.886 Q461.712 184.519 460.846 185.83 Q459.979 187.142 459.393 188.945 Q459.276 189.484 458.761 189.484 Q458.199 189.461 458.199 188.992 Q458.199 188.594 458.503 187.774 Q458.831 186.931 459.487 185.877 Q460.166 184.823 461.033 183.886 Q461.923 182.926 463.211 182.27 Q464.523 181.614 465.928 181.614 Q466.561 181.614 467.17 181.755 Q467.802 181.872 468.552 182.223 Q469.325 182.575 470.004 183.347 Q470.683 184.12 471.105 185.245 Q471.386 184.706 471.761 184.191 Q472.159 183.675 472.768 183.043 Q473.4 182.387 474.267 182.012 Q475.157 181.614 476.141 181.614 Q477.101 181.614 478.038 181.872 Q478.975 182.106 479.771 182.879 Q480.591 183.629 480.591 184.776 Z" fill="#000000" fill-rule="nonzero" fill-opacity="1" /><path clip-path="url(#clip010)" d="M485.207 214.335 Q485.207 214.101 485.816 213.516 Q493.545 205.646 493.545 190.819 Q493.545 175.946 486.12 168.427 Q485.207 167.561 485.207 167.303 Q485.207 166.835 485.675 166.835 Q486.003 166.835 487.151 167.795 Q488.322 168.755 490.079 170.957 Q491.859 173.159 493.171 175.852 Q496.333 182.387 496.333 190.819 Q496.333 198.923 493.311 205.458 Q492.023 208.199 490.219 210.494 Q488.416 212.789 487.221 213.797 Q486.027 214.804 485.675 214.804 Q485.207 214.804 485.207 214.335 Z" fill="#000000" fill-rule="nonzero" fill-opacity="1" /><path clip-path="url(#clip010)" d="M516.933 195.527 Q516.98 194.942 517.893 194.942 L547.289 194.942 Q548.671 194.942 548.694 195.48 Q548.694 196.066 547.382 196.042 L518.221 196.042 Q516.933 196.066 516.933 195.527 M516.933 186.158 Q516.933 185.573 517.94 185.596 L547.242 185.596 Q548.671 185.596 548.694 186.158 Q548.694 186.697 547.476 186.697 L517.893 186.697 Q516.933 186.697 516.933 186.158 Z" fill="#000000" fill-rule="nonzero" fill-opacity="1" /><path clip-path="url(#clip010)" d="M591.084 184.776 Q591.084 186.088 590.264 186.837 Q589.445 187.564 588.508 187.564 Q587.618 187.564 587.149 187.048 Q586.681 186.533 586.681 185.877 Q586.681 184.987 587.337 184.214 Q587.992 183.441 588.976 183.277 Q588.016 182.668 586.587 182.668 Q585.65 182.668 584.83 183.16 Q584.034 183.652 583.542 184.284 Q583.074 184.917 582.652 185.83 Q582.254 186.72 582.09 187.259 Q581.949 187.774 581.832 188.336 L580.193 194.895 Q579.396 198.01 579.396 199.111 Q579.396 200.469 580.052 201.383 Q580.708 202.273 582.02 202.273 Q582.535 202.273 583.12 202.132 Q583.706 201.968 584.456 201.547 Q585.229 201.102 585.908 200.446 Q586.61 199.767 587.29 198.619 Q587.969 197.471 588.414 195.996 Q588.555 195.48 589.023 195.48 Q589.609 195.48 589.609 195.949 Q589.609 196.347 589.281 197.19 Q588.976 198.01 588.297 199.087 Q587.641 200.141 586.774 201.102 Q585.908 202.039 584.62 202.694 Q583.331 203.35 581.926 203.35 Q579.912 203.35 578.577 202.273 Q577.241 201.195 576.75 199.696 Q576.632 199.907 576.469 200.188 Q576.305 200.469 575.813 201.102 Q575.344 201.711 574.806 202.179 Q574.267 202.624 573.424 202.975 Q572.604 203.35 571.714 203.35 Q570.589 203.35 569.582 203.022 Q568.599 202.694 567.896 201.945 Q567.193 201.195 567.193 200.165 Q567.193 199.017 567.966 198.221 Q568.763 197.401 569.84 197.401 Q570.519 197.401 571.058 197.799 Q571.62 198.197 571.62 199.064 Q571.62 200.024 570.964 200.75 Q570.308 201.476 569.372 201.664 Q570.332 202.273 571.761 202.273 Q573.306 202.273 574.524 200.914 Q575.742 199.556 576.328 197.284 Q577.78 191.826 578.342 189.39 Q578.904 186.931 578.904 185.877 Q578.904 184.893 578.647 184.214 Q578.389 183.535 577.944 183.23 Q577.523 182.902 577.124 182.785 Q576.75 182.668 576.328 182.668 Q575.625 182.668 574.829 182.949 Q574.056 183.23 573.119 183.886 Q572.206 184.519 571.339 185.83 Q570.472 187.142 569.887 188.945 Q569.77 189.484 569.254 189.484 Q568.692 189.461 568.692 188.992 Q568.692 188.594 568.997 187.774 Q569.325 186.931 569.981 185.877 Q570.66 184.823 571.526 183.886 Q572.416 182.926 573.705 182.27 Q575.016 181.614 576.422 181.614 Q577.054 181.614 577.663 181.755 Q578.295 181.872 579.045 182.223 Q579.818 182.575 580.497 183.347 Q581.176 184.12 581.598 185.245 Q581.879 184.706 582.254 184.191 Q582.652 183.675 583.261 183.043 Q583.893 182.387 584.76 182.012 Q585.65 181.614 586.634 181.614 Q587.594 181.614 588.531 181.872 Q589.468 182.106 590.264 182.879 Q591.084 183.629 591.084 184.776 Z" fill="#000000" fill-rule="nonzero" fill-opacity="1" /><path clip-path="url(#clip010)" d="M595.963 188.459 Q595.963 187.853 596.012 187.672 Q596.078 187.492 596.34 187.213 L602.784 180.032 Q606.309 176.064 606.309 172.605 Q606.309 170.359 605.128 168.752 Q603.964 167.145 601.817 167.145 Q600.341 167.145 599.095 168.047 Q597.849 168.949 597.275 170.555 Q597.373 170.523 597.718 170.523 Q598.554 170.523 599.013 171.047 Q599.488 171.572 599.488 172.277 Q599.488 173.179 598.898 173.621 Q598.324 174.048 597.75 174.048 Q597.521 174.048 597.209 173.998 Q596.914 173.949 596.439 173.49 Q595.963 173.015 595.963 172.178 Q595.963 169.834 597.734 167.965 Q599.521 166.096 602.243 166.096 Q605.325 166.096 607.342 167.932 Q609.375 169.752 609.375 172.605 Q609.375 173.605 609.063 174.523 Q608.768 175.425 608.358 176.13 Q607.965 176.835 606.883 177.966 Q605.801 179.097 604.932 179.901 Q604.063 180.704 602.112 182.409 L598.554 185.869 L604.604 185.869 Q607.555 185.869 607.785 185.607 Q608.112 185.131 608.522 182.623 L609.375 182.623 L608.424 188.459 L595.963 188.459 Z" fill="#000000" fill-rule="nonzero" fill-opacity="1" /><path clip-path="url(#clip010)" d="M659.332 190.14 Q659.613 190.421 659.613 190.819 Q659.613 191.217 659.332 191.498 Q659.05 191.78 658.652 191.78 L628.625 191.78 Q628.227 191.78 627.945 191.498 Q627.664 191.217 627.664 190.819 Q627.664 190.421 627.945 190.14 Q628.227 189.859 628.625 189.859 L658.652 189.859 Q659.05 189.859 659.332 190.14 Z" fill="#000000" fill-rule="nonzero" fill-opacity="1" /><path clip-path="url(#clip010)" d="M677.925 202.812 Q677.925 201.945 677.995 201.687 Q678.088 201.43 678.463 201.031 L687.668 190.772 Q692.704 185.104 692.704 180.162 Q692.704 176.953 691.018 174.658 Q689.355 172.362 686.286 172.362 Q684.178 172.362 682.398 173.651 Q680.618 174.939 679.798 177.234 Q679.939 177.187 680.431 177.187 Q681.625 177.187 682.281 177.937 Q682.96 178.686 682.96 179.694 Q682.96 180.982 682.117 181.614 Q681.297 182.223 680.478 182.223 Q680.15 182.223 679.705 182.153 Q679.283 182.083 678.604 181.427 Q677.925 180.748 677.925 179.553 Q677.925 176.204 680.454 173.533 Q683.007 170.863 686.895 170.863 Q691.299 170.863 694.18 173.487 Q697.084 176.087 697.084 180.162 Q697.084 181.591 696.639 182.902 Q696.217 184.191 695.632 185.198 Q695.07 186.205 693.524 187.821 Q691.978 189.437 690.737 190.585 Q689.495 191.733 686.708 194.169 L681.625 199.111 L690.268 199.111 Q694.484 199.111 694.812 198.736 Q695.281 198.057 695.866 194.473 L697.084 194.473 L695.726 202.812 L677.925 202.812 Z" fill="#000000" fill-rule="nonzero" fill-opacity="1" /><path clip-path="url(#clip010)" d="M724.801 184.776 Q724.801 186.088 723.981 186.837 Q723.161 187.564 722.224 187.564 Q721.334 187.564 720.866 187.048 Q720.397 186.533 720.397 185.877 Q720.397 184.987 721.053 184.214 Q721.709 183.441 722.693 183.277 Q721.732 182.668 720.303 182.668 Q719.367 182.668 718.547 183.16 Q717.75 183.652 717.259 184.284 Q716.79 184.917 716.368 185.83 Q715.97 186.72 715.806 187.259 Q715.666 187.774 715.549 188.336 L713.909 194.895 Q713.113 198.01 713.113 199.111 Q713.113 200.469 713.769 201.383 Q714.424 202.273 715.736 202.273 Q716.251 202.273 716.837 202.132 Q717.422 201.968 718.172 201.547 Q718.945 201.102 719.624 200.446 Q720.327 199.767 721.006 198.619 Q721.685 197.471 722.13 195.996 Q722.271 195.48 722.739 195.48 Q723.325 195.48 723.325 195.949 Q723.325 196.347 722.997 197.19 Q722.693 198.01 722.013 199.087 Q721.357 200.141 720.491 201.102 Q719.624 202.039 718.336 202.694 Q717.048 203.35 715.642 203.35 Q713.628 203.35 712.293 202.273 Q710.958 201.195 710.466 199.696 Q710.349 199.907 710.185 200.188 Q710.021 200.469 709.529 201.102 Q709.061 201.711 708.522 202.179 Q707.983 202.624 707.14 202.975 Q706.32 203.35 705.43 203.35 Q704.306 203.35 703.299 203.022 Q702.315 202.694 701.612 201.945 Q700.91 201.195 700.91 200.165 Q700.91 199.017 701.683 198.221 Q702.479 197.401 703.556 197.401 Q704.236 197.401 704.774 197.799 Q705.336 198.197 705.336 199.064 Q705.336 200.024 704.681 200.75 Q704.025 201.476 703.088 201.664 Q704.048 202.273 705.477 202.273 Q707.023 202.273 708.241 200.914 Q709.459 199.556 710.044 197.284 Q711.497 191.826 712.059 189.39 Q712.621 186.931 712.621 185.877 Q712.621 184.893 712.363 184.214 Q712.106 183.535 711.661 183.23 Q711.239 182.902 710.841 182.785 Q710.466 182.668 710.044 182.668 Q709.342 182.668 708.545 182.949 Q707.772 183.23 706.836 183.886 Q705.922 184.519 705.055 185.83 Q704.189 187.142 703.603 188.945 Q703.486 189.484 702.971 189.484 Q702.409 189.461 702.409 188.992 Q702.409 188.594 702.713 187.774 Q703.041 186.931 703.697 185.877 Q704.376 184.823 705.243 183.886 Q706.133 182.926 707.421 182.27 Q708.733 181.614 710.138 181.614 Q710.77 181.614 711.379 181.755 Q712.012 181.872 712.761 182.223 Q713.534 182.575 714.214 183.347 Q714.893 184.12 715.314 185.245 Q715.596 184.706 715.97 184.191 Q716.368 183.675 716.977 183.043 Q717.61 182.387 718.476 182.012 Q719.367 181.614 720.35 181.614 Q721.311 181.614 722.247 181.872 Q723.184 182.106 723.981 182.879 Q724.801 183.629 724.801 184.776 Z" fill="#000000" fill-rule="nonzero" fill-opacity="1" /></svg>
