<?xml version="1.0" encoding="utf-8"?>
<svg xmlns="http://www.w3.org/2000/svg" xmlns:xlink="http://www.w3.org/1999/xlink" width="528" height="336" viewBox="0 0 2112 1344">
<defs>
  <clipPath id="clip590">
    <rect x="0" y="0" width="2112" height="1344"/>
  </clipPath>
</defs>
<path clip-path="url(#clip590)" d="M0 1344 L2112 1344 L2112 0 L0 0  Z" fill="#ffffff" fill-rule="evenodd" fill-opacity="1"/>
<defs>
  <clipPath id="clip591">
    <rect x="422" y="0" width="1479" height="1344"/>
  </clipPath>
</defs>
<path clip-path="url(#clip590)" d="M108.001 1234.58 L2064.76 1234.58 L2064.76 47.2441 L108.001 47.2441  Z" fill="#ffffff" fill-rule="evenodd" fill-opacity="1"/>
<defs>
  <clipPath id="clip592">
    <rect x="108" y="47" width="1958" height="1188"/>
  </clipPath>
</defs>
<defs>
  <clipPath id="clip593">
    <rect x="541" y="145" width="1090" height="1090"/>
  </clipPath>
</defs>
<polyline clip-path="url(#clip593)" style="stroke:#000000; stroke-linecap:round; stroke-linejoin:round; stroke-width:2; stroke-opacity:0.1; fill:none" points="1631.13,689.83 1086.38,689.83 "/>
<polyline clip-path="url(#clip593)" style="stroke:#000000; stroke-linecap:round; stroke-linejoin:round; stroke-width:2; stroke-opacity:0.1; fill:none" points="1471.57,1075.03 1086.38,689.83 "/>
<polyline clip-path="url(#clip593)" style="stroke:#000000; stroke-linecap:round; stroke-linejoin:round; stroke-width:2; stroke-opacity:0.1; fill:none" points="1086.38,1234.58 1086.38,689.83 "/>
<polyline clip-path="url(#clip593)" style="stroke:#000000; stroke-linecap:round; stroke-linejoin:round; stroke-width:2; stroke-opacity:0.1; fill:none" points="701.183,1075.03 1086.38,689.83 "/>
<polyline clip-path="url(#clip593)" style="stroke:#000000; stroke-linecap:round; stroke-linejoin:round; stroke-width:2; stroke-opacity:0.1; fill:none" points="541.63,689.83 1086.38,689.83 "/>
<polyline clip-path="url(#clip593)" style="stroke:#000000; stroke-linecap:round; stroke-linejoin:round; stroke-width:2; stroke-opacity:0.1; fill:none" points="701.183,304.635 1086.38,689.83 "/>
<polyline clip-path="url(#clip593)" style="stroke:#000000; stroke-linecap:round; stroke-linejoin:round; stroke-width:2; stroke-opacity:0.1; fill:none" points="1086.38,145.082 1086.38,689.83 "/>
<polyline clip-path="url(#clip593)" style="stroke:#000000; stroke-linecap:round; stroke-linejoin:round; stroke-width:2; stroke-opacity:0.1; fill:none" points="1471.57,304.635 1086.38,689.83 "/>
<polyline clip-path="url(#clip593)" style="stroke:#000000; stroke-linecap:round; stroke-linejoin:round; stroke-width:2; stroke-opacity:0.1; fill:none" points="1086.38,689.83 1086.38,689.83 "/>
<polyline clip-path="url(#clip593)" style="stroke:#000000; stroke-linecap:round; stroke-linejoin:round; stroke-width:2; stroke-opacity:0.1; fill:none" points="1237.7,689.83 1237.67,687.189 1237.61,684.549 1237.49,681.911 1237.33,679.275 1237.12,676.642 1236.87,674.013 1236.57,671.389 1236.22,668.771 1235.83,666.159 1235.4,663.554 1234.92,660.957 1234.39,658.369 1233.82,655.791 1233.2,653.223 1232.54,650.666 1231.84,648.121 1231.09,645.589 1230.29,643.07 1229.45,640.566 1228.57,638.076 1227.65,635.602 1226.68,633.145 1225.67,630.705 1224.62,628.283 1223.52,625.88 1222.38,623.496 1221.2,621.133 1219.99,618.79 1218.72,616.469 1217.42,614.171 1216.08,611.895 1214.7,609.643 1213.29,607.416 1211.83,605.214 1210.33,603.037 1208.8,600.887 1207.23,598.764 1205.62,596.669 1203.98,594.602 1202.3,592.564 1200.58,590.556 1198.83,588.578 1197.05,586.631 1195.23,584.715 1193.38,582.832 1191.49,580.981 1189.58,579.163 1187.63,577.378 1185.65,575.628 1183.64,573.913 1181.61,572.233 1179.54,570.589 1177.44,568.982 1175.32,567.411 1173.17,565.877 1170.99,564.381 1168.79,562.924 1166.57,561.505 1164.31,560.125 1162.04,558.784 1159.74,557.484 1157.42,556.224 1155.08,555.004 1152.71,553.826 1150.33,552.689 1147.93,551.594 1145.5,550.54 1143.06,549.53 1140.61,548.562 1138.13,547.637 1135.64,546.755 1133.14,545.917 1130.62,545.123 1128.09,544.373 1125.54,543.667 1122.99,543.006 1120.42,542.39 1117.84,541.818 1115.25,541.291 1112.65,540.81 1110.05,540.374 1107.44,539.984 1104.82,539.639 1102.2,539.34 1099.57,539.087 1096.93,538.88 1094.3,538.719 1091.66,538.603 1089.02,538.534 1086.38,538.511 1083.74,538.534 1081.1,538.603 1078.46,538.719 1075.82,538.88 1073.19,539.087 1070.56,539.34 1067.94,539.639 1065.32,539.984 1062.71,540.374 1060.1,540.81 1057.51,541.291 1054.92,541.818 1052.34,542.39 1049.77,543.006 1047.21,543.667 1044.67,544.373 1042.14,545.123 1039.62,545.917 1037.11,546.755 1034.62,547.637 1032.15,548.562 1029.69,549.53 1027.25,550.54 1024.83,551.594 1022.43,552.689 1020.04,553.826 1017.68,555.004 1015.34,556.224 1013.02,557.484 1010.72,558.784 1008.44,560.125 1006.19,561.505 1003.96,562.924 1001.76,564.381 999.585,565.877 997.435,567.411 995.312,568.982 993.217,570.589 991.15,572.233 989.112,573.913 987.104,575.628 985.126,577.378 983.179,579.163 981.263,580.981 979.38,582.832 977.529,584.715 975.711,586.631 973.926,588.578 972.176,590.556 970.461,592.564 968.781,594.602 967.137,596.669 965.53,598.764 963.959,600.887 962.425,603.037 960.929,605.214 959.472,607.416 958.053,609.643 956.673,611.895 955.332,614.171 954.032,616.469 952.772,618.79 951.552,621.133 950.374,623.496 949.237,625.88 948.142,628.283 947.089,630.705 946.078,633.145 945.11,635.602 944.185,638.076 943.303,640.566 942.465,643.07 941.671,645.589 940.921,648.121 940.215,650.666 939.554,653.223 938.938,655.791 938.366,658.369 937.84,660.957 937.358,663.554 936.922,666.159 936.532,668.771 936.187,671.389 935.888,674.013 935.635,676.642 935.428,679.275 935.267,681.911 935.152,684.549 935.082,687.189 935.059,689.83 935.082,692.471 935.152,695.111 935.267,697.75 935.428,700.386 935.635,703.019 935.888,705.647 936.187,708.271 936.532,710.89 936.922,713.502 937.358,716.107 937.84,718.703 938.366,721.291 938.938,723.87 939.554,726.438 940.215,728.995 940.921,731.539 941.671,734.072 942.465,736.59 943.303,739.095 944.185,741.584 945.11,744.058 946.078,746.515 947.089,748.955 948.142,751.377 949.237,753.78 950.374,756.164 951.552,758.528 952.772,760.87 954.032,763.191 955.332,765.49 956.673,767.765 958.053,770.017 959.472,772.245 960.929,774.447 962.425,776.623 963.959,778.773 965.53,780.896 967.137,782.992 968.781,785.058 970.461,787.096 972.176,789.105 973.926,791.083 975.711,793.03 977.529,794.945 979.38,796.829 981.263,798.68 983.179,800.498 985.126,802.282 987.104,804.032 989.112,805.747 991.15,807.427 993.217,809.071 995.312,810.679 997.435,812.25 999.585,813.784 1001.76,815.279 1003.96,816.737 1006.19,818.156 1008.44,819.536 1010.72,820.876 1013.02,822.177 1015.34,823.437 1017.68,824.657 1020.04,825.835 1022.43,826.972 1024.83,828.067 1027.25,829.12 1029.69,830.131 1032.15,831.099 1034.62,832.024 1037.11,832.905 1039.62,833.743 1042.14,834.537 1044.67,835.287 1047.21,835.993 1049.77,836.655 1052.34,837.271 1054.92,837.843 1057.51,838.369 1060.1,838.85 1062.71,839.286 1065.32,839.677 1067.94,840.021 1070.56,840.32 1073.19,840.574 1075.82,840.781 1078.46,840.942 1081.1,841.057 1083.74,841.126 1086.38,841.149 1089.02,841.126 1091.66,841.057 1094.3,840.942 1096.93,840.781 1099.57,840.574 1102.2,840.32 1104.82,840.021 1107.44,839.677 1110.05,839.286 1112.65,838.85 1115.25,838.369 1117.84,837.843 1120.42,837.271 1122.99,836.655 1125.54,835.993 1128.09,835.287 1130.62,834.537 1133.14,833.743 1135.64,832.905 1138.13,832.024 1140.61,831.099 1143.06,830.131 1145.5,829.12 1147.93,828.067 1150.33,826.972 1152.71,825.835 1155.08,824.657 1157.42,823.437 1159.74,822.177 1162.04,820.876 1164.31,819.536 1166.57,818.156 1168.79,816.737 1170.99,815.279 1173.17,813.784 1175.32,812.25 1177.44,810.679 1179.54,809.071 1181.61,807.427 1183.64,805.747 1185.65,804.032 1187.63,802.282 1189.58,800.498 1191.49,798.68 1193.38,796.829 1195.23,794.945 1197.05,793.03 1198.83,791.083 1200.58,789.105 1202.3,787.096 1203.98,785.058 1205.62,782.992 1207.23,780.896 1208.8,778.773 1210.33,776.623 1211.83,774.447 1213.29,772.245 1214.7,770.017 1216.08,767.765 1217.42,765.49 1218.72,763.191 1219.99,760.87 1221.2,758.528 1222.38,756.164 1223.52,753.78 1224.62,751.377 1225.67,748.955 1226.68,746.515 1227.65,744.058 1228.57,741.584 1229.45,739.095 1230.29,736.59 1231.09,734.072 1231.84,731.539 1232.54,728.995 1233.2,726.438 1233.82,723.87 1234.39,721.291 1234.92,718.703 1235.4,716.107 1235.83,713.502 1236.22,710.89 1236.57,708.271 1236.87,705.647 1237.12,703.019 1237.33,700.386 1237.49,697.75 1237.61,695.111 1237.67,692.471 "/>
<polyline clip-path="url(#clip593)" style="stroke:#000000; stroke-linecap:round; stroke-linejoin:round; stroke-width:2; stroke-opacity:0.1; fill:none" points="1389.02,689.83 1388.97,684.549 1388.83,679.268 1388.6,673.991 1388.28,668.719 1387.86,663.454 1387.36,658.196 1386.76,652.948 1386.07,647.711 1385.29,642.487 1384.42,637.278 1383.46,632.084 1382.4,626.908 1381.26,621.752 1380.03,616.616 1378.7,611.502 1377.29,606.412 1375.79,601.348 1374.2,596.31 1372.53,591.301 1370.77,586.322 1368.92,581.375 1366.98,576.46 1364.96,571.58 1362.85,566.736 1360.66,561.93 1358.39,557.163 1356.03,552.436 1353.59,547.75 1351.07,543.108 1348.47,538.511 1345.79,533.96 1343.03,529.457 1340.19,525.002 1337.28,520.597 1334.28,516.244 1331.22,511.944 1328.08,507.698 1324.86,503.508 1321.57,499.374 1318.21,495.298 1314.78,491.282 1311.28,487.326 1307.71,483.432 1304.08,479.6 1300.38,475.833 1296.61,472.131 1292.78,468.495 1288.88,464.926 1284.93,461.426 1280.91,457.996 1276.83,454.636 1272.7,451.348 1268.51,448.133 1264.26,444.991 1259.96,441.924 1255.61,438.932 1251.21,436.017 1246.75,433.179 1242.25,430.419 1237.7,427.738 1233.1,425.137 1228.46,422.617 1223.77,420.178 1219.05,417.821 1214.28,415.547 1209.47,413.357 1204.63,411.251 1199.75,409.229 1194.83,407.293 1189.89,405.444 1184.91,403.68 1179.9,402.004 1174.86,400.416 1169.8,398.916 1164.71,397.504 1159.59,396.182 1154.46,394.949 1149.3,393.806 1144.12,392.753 1138.93,391.79 1133.72,390.918 1128.5,390.138 1123.26,389.448 1118.01,388.85 1112.76,388.344 1107.49,387.929 1102.22,387.607 1096.94,387.377 1091.66,387.238 1086.38,387.192 1081.1,387.238 1075.82,387.377 1070.54,387.607 1065.27,387.929 1060,388.344 1054.74,388.85 1049.5,389.448 1044.26,390.138 1039.04,390.918 1033.83,391.79 1028.63,392.753 1023.46,393.806 1018.3,394.949 1013.16,396.182 1008.05,397.504 1002.96,398.916 997.896,400.416 992.858,402.004 987.849,403.68 982.87,405.444 977.923,407.293 973.008,409.229 968.128,411.251 963.284,413.357 958.478,415.547 953.711,417.821 948.984,420.178 944.298,422.617 939.657,425.137 935.059,427.738 930.508,430.419 926.005,433.179 921.55,436.017 917.145,438.932 912.792,441.924 908.492,444.991 904.246,448.133 900.056,451.348 895.922,454.636 891.846,457.996 887.83,461.426 883.874,464.926 879.98,468.495 876.148,472.131 872.381,475.833 868.679,479.6 865.043,483.432 861.475,487.326 857.975,491.282 854.544,495.298 851.184,499.374 847.896,503.508 844.681,507.698 841.539,511.944 838.472,516.244 835.48,520.597 832.565,525.002 829.727,529.457 826.967,533.96 824.286,538.511 821.685,543.108 819.165,547.75 816.726,552.436 814.369,557.163 812.095,561.93 809.905,566.736 807.799,571.58 805.777,576.46 803.841,581.375 801.992,586.322 800.229,591.301 798.553,596.31 796.964,601.348 795.464,606.412 794.052,611.502 792.73,616.616 791.497,621.752 790.354,626.908 789.301,632.084 788.338,637.278 787.466,642.487 786.686,647.711 785.996,652.948 785.398,658.196 784.892,663.454 784.478,668.719 784.155,673.991 783.925,679.268 783.786,684.549 783.74,689.83 783.786,695.112 783.925,700.392 784.155,705.669 784.478,710.941 784.892,716.207 785.398,721.465 785.996,726.713 786.686,731.949 787.466,737.173 788.338,742.383 789.301,747.576 790.354,752.752 791.497,757.909 792.73,763.045 794.052,768.159 795.464,773.249 796.964,778.313 798.553,783.351 800.229,788.36 801.992,793.339 803.841,798.286 805.777,803.201 807.799,808.08 809.905,812.924 812.095,817.731 814.369,822.498 816.726,827.225 819.165,831.91 821.685,836.552 824.286,841.149 826.967,845.7 829.727,850.204 832.565,854.659 835.48,859.063 838.472,863.416 841.539,867.716 844.681,871.962 847.896,876.153 851.184,880.287 854.544,884.362 857.975,888.379 861.475,892.335 865.043,896.229 868.679,900.06 872.381,903.828 876.148,907.53 879.98,911.166 883.874,914.734 887.83,918.234 891.846,921.665 895.922,925.024 900.056,928.312 904.246,931.528 908.492,934.67 912.792,937.737 917.145,940.729 921.55,943.644 926.005,946.482 930.508,949.242 935.059,951.923 939.657,954.524 944.298,957.044 948.984,959.483 953.711,961.84 958.478,964.114 963.284,966.304 968.128,968.41 973.008,970.431 977.923,972.367 982.87,974.217 987.849,975.98 992.858,977.656 997.896,979.245 1002.96,980.745 1008.05,982.156 1013.16,983.479 1018.3,984.712 1023.46,985.855 1028.63,986.908 1033.83,987.871 1039.04,988.742 1044.26,989.523 1049.5,990.213 1054.74,990.81 1060,991.317 1065.27,991.731 1070.54,992.054 1075.82,992.284 1081.1,992.422 1086.38,992.468 1091.66,992.422 1096.94,992.284 1102.22,992.054 1107.49,991.731 1112.76,991.317 1118.01,990.81 1123.26,990.213 1128.5,989.523 1133.72,988.742 1138.93,987.871 1144.12,986.908 1149.3,985.855 1154.46,984.712 1159.59,983.479 1164.71,982.156 1169.8,980.745 1174.86,979.245 1179.9,977.656 1184.91,975.98 1189.89,974.217 1194.83,972.367 1199.75,970.431 1204.63,968.41 1209.47,966.304 1214.28,964.114 1219.05,961.84 1223.77,959.483 1228.46,957.044 1233.1,954.524 1237.7,951.923 1242.25,949.242 1246.75,946.482 1251.21,943.644 1255.61,940.729 1259.96,937.737 1264.26,934.67 1268.51,931.528 1272.7,928.312 1276.83,925.024 1280.91,921.665 1284.93,918.234 1288.88,914.734 1292.78,911.166 1296.61,907.53 1300.38,903.828 1304.08,900.06 1307.71,896.229 1311.28,892.335 1314.78,888.379 1318.21,884.362 1321.57,880.287 1324.86,876.153 1328.08,871.962 1331.22,867.716 1334.28,863.416 1337.28,859.063 1340.19,854.659 1343.03,850.204 1345.79,845.7 1348.47,841.149 1351.07,836.552 1353.59,831.91 1356.03,827.225 1358.39,822.498 1360.66,817.731 1362.85,812.924 1364.96,808.08 1366.98,803.201 1368.92,798.286 1370.77,793.339 1372.53,788.36 1374.2,783.351 1375.79,778.313 1377.29,773.249 1378.7,768.159 1380.03,763.045 1381.26,757.909 1382.4,752.752 1383.46,747.576 1384.42,742.383 1385.29,737.173 1386.07,731.949 1386.76,726.713 1387.36,721.465 1387.86,716.207 1388.28,710.941 1388.6,705.669 1388.83,700.392 1388.97,695.112 "/>
<polyline clip-path="url(#clip593)" style="stroke:#000000; stroke-linecap:round; stroke-linejoin:round; stroke-width:2; stroke-opacity:0.1; fill:none" points="1540.34,689.83 1540.27,681.908 1540.06,673.987 1539.71,666.072 1539.23,658.164 1538.61,650.265 1537.85,642.379 1536.95,634.507 1535.92,626.652 1534.75,618.816 1533.44,611.001 1531.99,603.211 1530.42,595.447 1528.7,587.712 1526.85,580.008 1524.87,572.338 1522.75,564.703 1520.5,557.106 1518.12,549.55 1515.6,542.036 1512.96,534.568 1510.18,527.147 1507.28,519.775 1504.25,512.455 1501.09,505.189 1497.8,497.98 1494.39,490.829 1490.86,483.738 1487.2,476.71 1483.42,469.748 1479.52,462.852 1475.5,456.025 1471.36,449.27 1467.1,442.588 1462.73,435.981 1458.24,429.451 1453.64,423.001 1448.92,416.632 1444.1,410.346 1439.17,404.146 1434.13,398.032 1428.98,392.008 1423.73,386.074 1418.38,380.232 1412.93,374.485 1407.37,368.834 1401.72,363.281 1395.98,357.827 1390.13,352.474 1384.2,347.225 1378.18,342.079 1372.06,337.039 1365.86,332.107 1359.58,327.284 1353.21,322.571 1346.76,317.97 1340.23,313.483 1333.62,309.11 1326.94,304.853 1320.18,300.713 1313.36,296.692 1306.46,292.791 1299.5,289.01 1292.47,285.352 1285.38,281.816 1278.23,278.405 1271.02,275.12 1263.75,271.961 1256.43,268.929 1249.06,266.025 1241.64,263.25 1234.17,260.605 1226.66,258.091 1219.1,255.709 1211.51,253.459 1203.87,251.341 1196.2,249.358 1188.5,247.508 1180.76,245.793 1173,244.214 1165.21,242.77 1157.39,241.462 1149.56,240.291 1141.7,239.257 1133.83,238.36 1125.94,237.601 1118.04,236.979 1110.14,236.495 1102.22,236.15 1094.3,235.942 1086.38,235.873 1078.46,235.942 1070.54,236.15 1062.62,236.495 1054.71,236.979 1046.81,237.601 1038.93,238.36 1031.05,239.257 1023.2,240.291 1015.36,241.462 1007.55,242.77 999.759,244.214 991.995,245.793 984.26,247.508 976.556,249.358 968.886,251.341 961.251,253.459 953.654,255.709 946.098,258.091 938.584,260.605 931.116,263.25 923.695,266.025 916.323,268.929 909.003,271.961 901.737,275.12 894.528,278.405 887.377,281.816 880.286,285.352 873.258,289.01 866.296,292.791 859.4,296.692 852.573,300.713 845.818,304.853 839.136,309.11 832.529,313.483 825.999,317.97 819.549,322.571 813.18,327.284 806.895,332.107 800.694,337.039 794.58,342.079 788.556,347.225 782.622,352.474 776.78,357.827 771.033,363.281 765.382,368.834 759.829,374.485 754.375,380.232 749.023,386.074 743.773,392.008 738.627,398.032 733.588,404.146 728.655,410.346 723.832,416.632 719.119,423.001 714.519,429.451 710.031,435.981 705.658,442.588 701.401,449.27 697.261,456.025 693.24,462.852 689.339,469.748 685.558,476.71 681.9,483.738 678.364,490.829 674.954,497.98 671.668,505.189 668.509,512.455 665.477,519.775 662.573,527.147 659.798,534.568 657.154,542.036 654.64,549.55 652.257,557.106 650.007,564.703 647.89,572.338 645.906,580.008 644.056,587.712 642.341,595.447 640.762,603.211 639.318,611.001 638.01,618.816 636.839,626.652 635.805,634.507 634.908,642.379 634.149,650.265 633.527,658.164 633.043,666.072 632.698,673.987 632.49,681.908 632.421,689.83 632.49,697.753 632.698,705.673 633.043,713.589 633.527,721.497 634.149,729.395 634.908,737.282 635.805,745.154 636.839,753.009 638.01,760.845 639.318,768.659 640.762,776.449 642.341,784.213 644.056,791.948 645.906,799.652 647.89,807.323 650.007,814.958 652.257,822.555 654.64,830.111 657.154,837.624 659.798,845.093 662.573,852.514 665.477,859.886 668.509,867.205 671.668,874.471 674.954,881.681 678.364,888.832 681.9,895.923 685.558,902.95 689.339,909.913 693.24,916.809 697.261,923.635 701.401,930.391 705.658,937.073 710.031,943.68 714.519,950.209 719.119,956.66 723.832,963.028 728.655,969.314 733.588,975.515 738.627,981.628 743.773,987.653 749.023,993.587 754.375,999.428 759.829,1005.18 765.382,1010.83 771.033,1016.38 776.78,1021.83 782.622,1027.19 788.556,1032.44 794.58,1037.58 800.694,1042.62 806.895,1047.55 813.18,1052.38 819.549,1057.09 825.999,1061.69 832.529,1066.18 839.136,1070.55 845.818,1074.81 852.573,1078.95 859.4,1082.97 866.296,1086.87 873.258,1090.65 880.286,1094.31 887.377,1097.84 894.528,1101.26 901.737,1104.54 909.003,1107.7 916.323,1110.73 923.695,1113.64 931.116,1116.41 938.584,1119.06 946.098,1121.57 953.654,1123.95 961.251,1126.2 968.886,1128.32 976.556,1130.3 984.26,1132.15 991.995,1133.87 999.759,1135.45 1007.55,1136.89 1015.36,1138.2 1023.2,1139.37 1031.05,1140.4 1038.93,1141.3 1046.81,1142.06 1054.71,1142.68 1062.62,1143.17 1070.54,1143.51 1078.46,1143.72 1086.38,1143.79 1094.3,1143.72 1102.22,1143.51 1110.14,1143.17 1118.04,1142.68 1125.94,1142.06 1133.83,1141.3 1141.7,1140.4 1149.56,1139.37 1157.39,1138.2 1165.21,1136.89 1173,1135.45 1180.76,1133.87 1188.5,1132.15 1196.2,1130.3 1203.87,1128.32 1211.51,1126.2 1219.1,1123.95 1226.66,1121.57 1234.17,1119.06 1241.64,1116.41 1249.06,1113.64 1256.43,1110.73 1263.75,1107.7 1271.02,1104.54 1278.23,1101.26 1285.38,1097.84 1292.47,1094.31 1299.5,1090.65 1306.46,1086.87 1313.36,1082.97 1320.18,1078.95 1326.94,1074.81 1333.62,1070.55 1340.23,1066.18 1346.76,1061.69 1353.21,1057.09 1359.58,1052.38 1365.86,1047.55 1372.06,1042.62 1378.18,1037.58 1384.2,1032.44 1390.13,1027.19 1395.98,1021.83 1401.72,1016.38 1407.37,1010.83 1412.93,1005.18 1418.38,999.428 1423.73,993.587 1428.98,987.653 1434.13,981.628 1439.17,975.515 1444.1,969.314 1448.92,963.028 1453.64,956.66 1458.24,950.209 1462.73,943.68 1467.1,937.073 1471.36,930.391 1475.5,923.635 1479.52,916.809 1483.42,909.913 1487.2,902.95 1490.86,895.923 1494.39,888.832 1497.8,881.681 1501.09,874.471 1504.25,867.205 1507.28,859.886 1510.18,852.514 1512.96,845.093 1515.6,837.624 1518.12,830.111 1520.5,822.555 1522.75,814.958 1524.87,807.323 1526.85,799.652 1528.7,791.948 1530.42,784.213 1531.99,776.449 1533.44,768.659 1534.75,760.845 1535.92,753.009 1536.95,745.154 1537.85,737.282 1538.61,729.395 1539.23,721.497 1539.71,713.589 1540.06,705.673 1540.27,697.753 "/>
<polyline clip-path="url(#clip593)" style="stroke:#000000; stroke-linecap:round; stroke-linejoin:round; stroke-width:2; stroke-opacity:0.1; fill:none" points="1631.13,689.83 1631.04,680.323 1630.8,670.819 1630.38,661.32 1629.8,651.831 1629.05,642.352 1628.14,632.889 1627.07,623.442 1625.83,614.016 1624.42,604.613 1622.85,595.236 1621.12,585.887 1619.22,576.571 1617.16,567.289 1614.95,558.044 1612.57,548.839 1610.02,539.677 1607.32,530.561 1604.46,521.494 1601.45,512.478 1598.27,503.515 1594.94,494.61 1591.46,485.764 1587.82,476.98 1584.03,468.261 1580.09,459.61 1576,451.028 1571.75,442.52 1567.36,434.086 1562.83,425.731 1558.14,417.456 1553.32,409.264 1548.35,401.158 1543.24,393.139 1538,385.211 1532.61,377.375 1527.09,369.635 1521.43,361.993 1515.65,354.45 1509.73,347.009 1503.68,339.673 1497.51,332.443 1491.21,325.322 1484.78,318.313 1478.24,311.416 1471.57,304.635 1464.79,297.971 1457.9,291.427 1450.89,285.003 1443.77,278.703 1436.54,272.529 1429.2,266.481 1421.76,260.563 1414.22,254.775 1406.57,249.12 1398.83,243.598 1391,238.213 1383.07,232.966 1375.05,227.857 1366.94,222.89 1358.75,218.064 1350.48,213.383 1342.12,208.846 1333.69,204.456 1325.18,200.214 1316.6,196.121 1307.95,192.178 1299.23,188.387 1290.44,184.748 1281.6,181.264 1272.69,177.934 1263.73,174.761 1254.71,171.744 1245.65,168.885 1236.53,166.184 1227.37,163.644 1218.16,161.263 1208.92,159.044 1199.64,156.986 1190.32,155.09 1180.97,153.358 1171.6,151.789 1162.19,150.383 1152.77,149.142 1143.32,148.066 1133.86,147.155 1124.38,146.409 1114.89,145.828 1105.39,145.414 1095.89,145.165 1086.38,145.082 1076.87,145.165 1067.37,145.414 1057.87,145.828 1048.38,146.409 1038.9,147.155 1029.44,148.066 1019.99,149.142 1010.56,150.383 1001.16,151.789 991.784,153.358 982.435,155.09 973.119,156.986 963.837,159.044 954.592,161.263 945.387,163.644 936.225,166.184 927.109,168.885 918.042,171.744 909.026,174.761 900.063,177.934 891.158,181.264 882.312,184.748 873.528,188.387 864.809,192.178 856.158,196.121 847.576,200.214 839.068,204.456 830.634,208.846 822.279,213.383 814.004,218.064 805.812,222.89 797.706,227.857 789.687,232.966 781.759,238.213 773.924,243.598 766.183,249.12 758.541,254.775 750.998,260.563 743.557,266.481 736.221,272.529 728.991,278.703 721.871,285.003 714.861,291.427 707.964,297.971 701.183,304.635 694.519,311.416 687.975,318.313 681.551,325.322 675.252,332.443 669.077,339.673 663.029,347.009 657.111,354.45 651.323,361.993 645.668,369.635 640.147,377.375 634.761,385.211 629.514,393.139 624.405,401.158 619.438,409.264 614.612,417.456 609.931,425.731 605.394,434.086 601.004,442.52 596.762,451.028 592.669,459.61 588.726,468.261 584.935,476.98 581.296,485.764 577.812,494.61 574.482,503.515 571.309,512.478 568.292,521.494 565.433,530.561 562.733,539.677 560.192,548.839 557.811,558.044 555.592,567.289 553.534,576.571 551.638,585.887 549.906,595.236 548.337,604.613 546.931,614.016 545.69,623.442 544.614,632.889 543.703,642.352 542.957,651.831 542.376,661.32 541.962,670.819 541.713,680.323 541.63,689.83 541.713,699.337 541.962,708.842 542.376,718.34 542.957,727.83 543.703,737.308 544.614,746.772 545.69,756.218 546.931,765.645 548.337,775.048 549.906,784.425 551.638,793.773 553.534,803.09 555.592,812.372 557.811,821.617 560.192,830.822 562.733,839.983 565.433,849.099 568.292,858.167 571.309,867.183 574.482,876.145 577.812,885.051 581.296,893.897 584.935,902.68 588.726,911.399 592.669,920.051 596.762,928.632 601.004,937.141 605.394,945.574 609.931,953.93 614.612,962.205 619.438,970.397 624.405,978.503 629.514,986.522 634.761,994.45 640.147,1002.29 645.668,1010.03 651.323,1017.67 657.111,1025.21 663.029,1032.65 669.077,1039.99 675.252,1047.22 681.551,1054.34 687.975,1061.35 694.519,1068.24 701.183,1075.03 707.964,1081.69 714.861,1088.23 721.871,1094.66 728.991,1100.96 736.221,1107.13 743.557,1113.18 750.998,1119.1 758.541,1124.89 766.183,1130.54 773.924,1136.06 781.759,1141.45 789.687,1146.69 797.706,1151.8 805.812,1156.77 814.004,1161.6 822.279,1166.28 830.634,1170.81 839.068,1175.2 847.576,1179.45 856.158,1183.54 864.809,1187.48 873.528,1191.27 882.312,1194.91 891.158,1198.4 900.063,1201.73 909.026,1204.9 918.042,1207.92 927.109,1210.78 936.225,1213.48 945.387,1216.02 954.592,1218.4 963.837,1220.62 973.119,1222.67 982.435,1224.57 991.784,1226.3 1001.16,1227.87 1010.56,1229.28 1019.99,1230.52 1029.44,1231.59 1038.9,1232.51 1048.38,1233.25 1057.87,1233.83 1067.37,1234.25 1076.87,1234.5 1086.38,1234.58 1095.89,1234.5 1105.39,1234.25 1114.89,1233.83 1124.38,1233.25 1133.86,1232.51 1143.32,1231.59 1152.77,1230.52 1162.19,1229.28 1171.6,1227.87 1180.97,1226.3 1190.32,1224.57 1199.64,1222.67 1208.92,1220.62 1218.16,1218.4 1227.37,1216.02 1236.53,1213.48 1245.65,1210.78 1254.71,1207.92 1263.73,1204.9 1272.69,1201.73 1281.6,1198.4 1290.44,1194.91 1299.23,1191.27 1307.95,1187.48 1316.6,1183.54 1325.18,1179.45 1333.69,1175.2 1342.12,1170.81 1350.48,1166.28 1358.75,1161.6 1366.94,1156.77 1375.05,1151.8 1383.07,1146.69 1391,1141.45 1398.83,1136.06 1406.57,1130.54 1414.22,1124.89 1421.76,1119.1 1429.2,1113.18 1436.54,1107.13 1443.77,1100.96 1450.89,1094.66 1457.9,1088.23 1464.79,1081.69 1471.57,1075.03 1478.24,1068.24 1484.78,1061.35 1491.21,1054.34 1497.51,1047.22 1503.68,1039.99 1509.73,1032.65 1515.65,1025.21 1521.43,1017.67 1527.09,1010.03 1532.61,1002.29 1538,994.45 1543.24,986.522 1548.35,978.503 1553.32,970.397 1558.14,962.205 1562.83,953.93 1567.36,945.574 1571.75,937.141 1576,928.632 1580.09,920.051 1584.03,911.399 1587.82,902.68 1591.46,893.897 1594.94,885.051 1598.27,876.145 1601.45,867.183 1604.46,858.167 1607.32,849.099 1610.02,839.983 1612.57,830.822 1614.95,821.617 1617.16,812.372 1619.22,803.09 1621.12,793.773 1622.85,784.425 1624.42,775.048 1625.83,765.645 1627.07,756.218 1628.14,746.772 1629.05,737.308 1629.8,727.83 1630.38,718.34 1630.8,708.842 1631.04,699.337 "/>
<polyline clip-path="url(#clip593)" style="stroke:#ededed; stroke-linecap:round; stroke-linejoin:round; stroke-width:2; stroke-opacity:1; fill:none" points="1631.13,689.83 1631.04,680.323 1630.8,670.819 1630.38,661.32 1629.8,651.831 1629.05,642.352 1628.14,632.889 1627.07,623.442 1625.83,614.016 1624.42,604.613 1622.85,595.236 1621.12,585.887 1619.22,576.571 1617.16,567.289 1614.95,558.044 1612.57,548.839 1610.02,539.677 1607.32,530.561 1604.46,521.494 1601.45,512.478 1598.27,503.515 1594.94,494.61 1591.46,485.764 1587.82,476.98 1584.03,468.261 1580.09,459.61 1576,451.028 1571.75,442.52 1567.36,434.086 1562.83,425.731 1558.14,417.456 1553.32,409.264 1548.35,401.158 1543.24,393.139 1538,385.211 1532.61,377.375 1527.09,369.635 1521.43,361.993 1515.65,354.45 1509.73,347.009 1503.68,339.673 1497.51,332.443 1491.21,325.322 1484.78,318.313 1478.24,311.416 1471.57,304.635 1464.79,297.971 1457.9,291.427 1450.89,285.003 1443.77,278.703 1436.54,272.529 1429.2,266.481 1421.76,260.563 1414.22,254.775 1406.57,249.12 1398.83,243.598 1391,238.213 1383.07,232.966 1375.05,227.857 1366.94,222.89 1358.75,218.064 1350.48,213.383 1342.12,208.846 1333.69,204.456 1325.18,200.214 1316.6,196.121 1307.95,192.178 1299.23,188.387 1290.44,184.748 1281.6,181.264 1272.69,177.934 1263.73,174.761 1254.71,171.744 1245.65,168.885 1236.53,166.184 1227.37,163.644 1218.16,161.263 1208.92,159.044 1199.64,156.986 1190.32,155.09 1180.97,153.358 1171.6,151.789 1162.19,150.383 1152.77,149.142 1143.32,148.066 1133.86,147.155 1124.38,146.409 1114.89,145.828 1105.39,145.414 1095.89,145.165 1086.38,145.082 1076.87,145.165 1067.37,145.414 1057.87,145.828 1048.38,146.409 1038.9,147.155 1029.44,148.066 1019.99,149.142 1010.56,150.383 1001.16,151.789 991.784,153.358 982.435,155.09 973.119,156.986 963.837,159.044 954.592,161.263 945.387,163.644 936.225,166.184 927.109,168.885 918.042,171.744 909.026,174.761 900.063,177.934 891.158,181.264 882.312,184.748 873.528,188.387 864.809,192.178 856.158,196.121 847.576,200.214 839.068,204.456 830.634,208.846 822.279,213.383 814.004,218.064 805.812,222.89 797.706,227.857 789.687,232.966 781.759,238.213 773.924,243.598 766.183,249.12 758.541,254.775 750.998,260.563 743.557,266.481 736.221,272.529 728.991,278.703 721.871,285.003 714.861,291.427 707.964,297.971 701.183,304.635 694.519,311.416 687.975,318.313 681.551,325.322 675.252,332.443 669.077,339.673 663.029,347.009 657.111,354.45 651.323,361.993 645.668,369.635 640.147,377.375 634.761,385.211 629.514,393.139 624.405,401.158 619.438,409.264 614.612,417.456 609.931,425.731 605.394,434.086 601.004,442.52 596.762,451.028 592.669,459.61 588.726,468.261 584.935,476.98 581.296,485.764 577.812,494.61 574.482,503.515 571.309,512.478 568.292,521.494 565.433,530.561 562.733,539.677 560.192,548.839 557.811,558.044 555.592,567.289 553.534,576.571 551.638,585.887 549.906,595.236 548.337,604.613 546.931,614.016 545.69,623.442 544.614,632.889 543.703,642.352 542.957,651.831 542.376,661.32 541.962,670.819 541.713,680.323 541.63,689.83 541.713,699.337 541.962,708.842 542.376,718.34 542.957,727.83 543.703,737.308 544.614,746.772 545.69,756.218 546.931,765.645 548.337,775.048 549.906,784.425 551.638,793.773 553.534,803.09 555.592,812.372 557.811,821.617 560.192,830.822 562.733,839.983 565.433,849.099 568.292,858.167 571.309,867.183 574.482,876.145 577.812,885.051 581.296,893.897 584.935,902.68 588.726,911.399 592.669,920.051 596.762,928.632 601.004,937.141 605.394,945.574 609.931,953.93 614.612,962.205 619.438,970.397 624.405,978.503 629.514,986.522 634.761,994.45 640.147,1002.29 645.668,1010.03 651.323,1017.67 657.111,1025.21 663.029,1032.65 669.077,1039.99 675.252,1047.22 681.551,1054.34 687.975,1061.35 694.519,1068.24 701.183,1075.03 707.964,1081.69 714.861,1088.23 721.871,1094.66 728.991,1100.96 736.221,1107.13 743.557,1113.18 750.998,1119.1 758.541,1124.89 766.183,1130.54 773.924,1136.06 781.759,1141.45 789.687,1146.69 797.706,1151.8 805.812,1156.77 814.004,1161.6 822.279,1166.28 830.634,1170.81 839.068,1175.2 847.576,1179.45 856.158,1183.54 864.809,1187.48 873.528,1191.27 882.312,1194.91 891.158,1198.4 900.063,1201.73 909.026,1204.9 918.042,1207.92 927.109,1210.78 936.225,1213.48 945.387,1216.02 954.592,1218.4 963.837,1220.62 973.119,1222.67 982.435,1224.57 991.784,1226.3 1001.16,1227.87 1010.56,1229.28 1019.99,1230.52 1029.44,1231.59 1038.9,1232.51 1048.38,1233.25 1057.87,1233.83 1067.37,1234.25 1076.87,1234.5 1086.38,1234.58 1095.89,1234.5 1105.39,1234.25 1114.89,1233.83 1124.38,1233.25 1133.86,1232.51 1143.32,1231.59 1152.77,1230.52 1162.19,1229.28 1171.6,1227.87 1180.97,1226.3 1190.32,1224.57 1199.64,1222.67 1208.92,1220.62 1218.16,1218.4 1227.37,1216.02 1236.53,1213.48 1245.65,1210.78 1254.71,1207.92 1263.73,1204.9 1272.69,1201.73 1281.6,1198.4 1290.44,1194.91 1299.23,1191.27 1307.95,1187.48 1316.6,1183.54 1325.18,1179.45 1333.69,1175.2 1342.12,1170.81 1350.48,1166.28 1358.75,1161.6 1366.94,1156.77 1375.05,1151.8 1383.07,1146.69 1391,1141.45 1398.83,1136.06 1406.57,1130.54 1414.22,1124.89 1421.76,1119.1 1429.2,1113.18 1436.54,1107.13 1443.77,1100.96 1450.89,1094.66 1457.9,1088.23 1464.79,1081.69 1471.57,1075.03 1478.24,1068.24 1484.78,1061.35 1491.21,1054.34 1497.51,1047.22 1503.68,1039.99 1509.73,1032.65 1515.65,1025.21 1521.43,1017.67 1527.09,1010.03 1532.61,1002.29 1538,994.45 1543.24,986.522 1548.35,978.503 1553.32,970.397 1558.14,962.205 1562.83,953.93 1567.36,945.574 1571.75,937.141 1576,928.632 1580.09,920.051 1584.03,911.399 1587.82,902.68 1591.46,893.897 1594.94,885.051 1598.27,876.145 1601.45,867.183 1604.46,858.167 1607.32,849.099 1610.02,839.983 1612.57,830.822 1614.95,821.617 1617.16,812.372 1619.22,803.09 1621.12,793.773 1622.85,784.425 1624.42,775.048 1625.83,765.645 1627.07,756.218 1628.14,746.772 1629.05,737.308 1629.8,727.83 1630.38,718.34 1630.8,708.842 1631.04,699.337 "/>
<path clip-path="url(#clip590)" d="M1675.93 682.077 Q1672.32 682.077 1670.49 685.641 Q1668.69 689.183 1668.69 696.313 Q1668.69 703.419 1670.49 706.984 Q1672.32 710.526 1675.93 710.526 Q1679.57 710.526 1681.37 706.984 Q1683.2 703.419 1683.2 696.313 Q1683.2 689.183 1681.37 685.641 Q1679.57 682.077 1675.93 682.077 M1675.93 678.373 Q1681.74 678.373 1684.8 682.979 Q1687.88 687.563 1687.88 696.313 Q1687.88 705.039 1684.8 709.646 Q1681.74 714.229 1675.93 714.229 Q1670.12 714.229 1667.05 709.646 Q1663.99 705.039 1663.99 696.313 Q1663.99 687.563 1667.05 682.979 Q1670.12 678.373 1675.93 678.373 Z" fill="#000000" fill-rule="nonzero" fill-opacity="1" /><path clip-path="url(#clip590)" d="M1697.55 667.509 Q1694.76 667.509 1693.15 669.691 Q1691.53 671.854 1691.53 675.634 Q1691.53 679.414 1693.13 681.596 Q1694.74 683.759 1697.55 683.759 Q1700.31 683.759 1701.93 681.577 Q1703.55 679.396 1703.55 675.634 Q1703.55 671.891 1701.93 669.71 Q1700.31 667.509 1697.55 667.509 M1697.55 664.575 Q1702.06 664.575 1704.64 667.509 Q1707.21 670.443 1707.21 675.634 Q1707.21 680.806 1704.64 683.759 Q1702.06 686.693 1697.55 686.693 Q1693.01 686.693 1690.44 683.759 Q1687.88 680.806 1687.88 675.634 Q1687.88 670.443 1690.44 667.509 Q1693.01 664.575 1697.55 664.575 Z" fill="#000000" fill-rule="nonzero" fill-opacity="1" /><path clip-path="url(#clip590)" d="M1474.69 1118.64 Q1478.04 1119.36 1479.92 1121.62 Q1481.82 1123.89 1481.82 1127.23 Q1481.82 1132.34 1478.3 1135.14 Q1474.78 1137.94 1468.3 1137.94 Q1466.12 1137.94 1463.81 1137.5 Q1461.51 1137.09 1459.06 1136.23 L1459.06 1131.72 Q1461 1132.85 1463.32 1133.43 Q1465.63 1134.01 1468.16 1134.01 Q1472.56 1134.01 1474.85 1132.27 Q1477.16 1130.54 1477.16 1127.23 Q1477.16 1124.17 1475.01 1122.46 Q1472.88 1120.72 1469.06 1120.72 L1465.03 1120.72 L1465.03 1116.88 L1469.25 1116.88 Q1472.69 1116.88 1474.52 1115.51 Q1476.35 1114.12 1476.35 1111.53 Q1476.35 1108.87 1474.45 1107.46 Q1472.58 1106.02 1469.06 1106.02 Q1467.14 1106.02 1464.94 1106.44 Q1462.74 1106.86 1460.1 1107.74 L1460.1 1103.57 Q1462.76 1102.83 1465.08 1102.46 Q1467.42 1102.09 1469.48 1102.09 Q1474.8 1102.09 1477.9 1104.52 Q1481 1106.93 1481 1111.05 Q1481 1113.92 1479.36 1115.91 Q1477.72 1117.87 1474.69 1118.64 Z" fill="#000000" fill-rule="nonzero" fill-opacity="1" /><path clip-path="url(#clip590)" d="M1491.49 1133.34 L1499.13 1133.34 L1499.13 1106.97 L1490.82 1108.64 L1490.82 1104.38 L1499.08 1102.71 L1503.76 1102.71 L1503.76 1133.34 L1511.4 1133.34 L1511.4 1137.27 L1491.49 1137.27 L1491.49 1133.34 Z" fill="#000000" fill-rule="nonzero" fill-opacity="1" /><path clip-path="url(#clip590)" d="M1520.89 1102.71 L1539.25 1102.71 L1539.25 1106.65 L1525.17 1106.65 L1525.17 1115.12 Q1526.19 1114.77 1527.21 1114.61 Q1528.23 1114.43 1529.25 1114.43 Q1535.03 1114.43 1538.41 1117.6 Q1541.79 1120.77 1541.79 1126.18 Q1541.79 1131.76 1538.32 1134.87 Q1534.85 1137.94 1528.53 1137.94 Q1526.35 1137.94 1524.08 1137.57 Q1521.84 1137.2 1519.43 1136.46 L1519.43 1131.76 Q1521.51 1132.9 1523.74 1133.45 Q1525.96 1134.01 1528.44 1134.01 Q1532.44 1134.01 1534.78 1131.9 Q1537.12 1129.8 1537.12 1126.18 Q1537.12 1122.57 1534.78 1120.47 Q1532.44 1118.36 1528.44 1118.36 Q1526.56 1118.36 1524.69 1118.78 Q1522.83 1119.19 1520.89 1120.07 L1520.89 1102.71 Z" fill="#000000" fill-rule="nonzero" fill-opacity="1" /><path clip-path="url(#clip590)" d="M1551.46 1091.22 Q1548.68 1091.22 1547.06 1093.41 Q1545.44 1095.57 1545.44 1099.35 Q1545.44 1103.13 1547.04 1105.31 Q1548.66 1107.47 1551.46 1107.47 Q1554.22 1107.47 1555.84 1105.29 Q1557.46 1103.11 1557.46 1099.35 Q1557.46 1095.61 1555.84 1093.42 Q1554.22 1091.22 1551.46 1091.22 M1551.46 1088.29 Q1555.97 1088.29 1558.55 1091.22 Q1561.13 1094.16 1561.13 1099.35 Q1561.13 1104.52 1558.55 1107.47 Q1555.97 1110.41 1551.46 1110.41 Q1546.93 1110.41 1544.35 1107.47 Q1541.79 1104.52 1541.79 1099.35 Q1541.79 1094.16 1544.35 1091.22 Q1546.93 1088.29 1551.46 1088.29 Z" fill="#000000" fill-rule="nonzero" fill-opacity="1" /><path clip-path="url(#clip590)" d="M1040.4 1308.85 L1056.72 1308.85 L1056.72 1312.78 L1034.78 1312.78 L1034.78 1308.85 Q1037.44 1306.09 1042.02 1301.46 Q1046.63 1296.81 1047.81 1295.47 Q1050.06 1292.94 1050.94 1291.21 Q1051.84 1289.45 1051.84 1287.76 Q1051.84 1285 1049.89 1283.27 Q1047.97 1281.53 1044.87 1281.53 Q1042.67 1281.53 1040.22 1282.3 Q1037.79 1283.06 1035.01 1284.61 L1035.01 1279.89 Q1037.83 1278.75 1040.29 1278.17 Q1042.74 1277.6 1044.78 1277.6 Q1050.15 1277.6 1053.34 1280.28 Q1056.54 1282.97 1056.54 1287.46 Q1056.54 1289.59 1055.73 1291.51 Q1054.94 1293.41 1052.83 1296 Q1052.26 1296.67 1049.15 1299.89 Q1046.05 1303.08 1040.4 1308.85 Z" fill="#000000" fill-rule="nonzero" fill-opacity="1" /><path clip-path="url(#clip590)" d="M1065.36 1278.22 L1087.58 1278.22 L1087.58 1280.21 L1075.03 1312.78 L1070.15 1312.78 L1081.95 1282.16 L1065.36 1282.16 L1065.36 1278.22 Z" fill="#000000" fill-rule="nonzero" fill-opacity="1" /><path clip-path="url(#clip590)" d="M1106.7 1281.3 Q1103.09 1281.3 1101.26 1284.86 Q1099.45 1288.41 1099.45 1295.54 Q1099.45 1302.64 1101.26 1306.21 Q1103.09 1309.75 1106.7 1309.75 Q1110.33 1309.75 1112.14 1306.21 Q1113.97 1302.64 1113.97 1295.54 Q1113.97 1288.41 1112.14 1284.86 Q1110.33 1281.3 1106.7 1281.3 M1106.7 1277.6 Q1112.51 1277.6 1115.57 1282.2 Q1118.64 1286.79 1118.64 1295.54 Q1118.64 1304.26 1115.57 1308.87 Q1112.51 1313.45 1106.7 1313.45 Q1100.89 1313.45 1097.81 1308.87 Q1094.76 1304.26 1094.76 1295.54 Q1094.76 1286.79 1097.81 1282.2 Q1100.89 1277.6 1106.7 1277.6 Z" fill="#000000" fill-rule="nonzero" fill-opacity="1" /><path clip-path="url(#clip590)" d="M1128.31 1266.73 Q1125.53 1266.73 1123.91 1268.91 Q1122.29 1271.08 1122.29 1274.86 Q1122.29 1278.64 1123.89 1280.82 Q1125.51 1282.98 1128.31 1282.98 Q1131.08 1282.98 1132.69 1280.8 Q1134.31 1278.62 1134.31 1274.86 Q1134.31 1271.11 1132.69 1268.93 Q1131.08 1266.73 1128.31 1266.73 M1128.31 1263.8 Q1132.82 1263.8 1135.4 1266.73 Q1137.98 1269.67 1137.98 1274.86 Q1137.98 1280.03 1135.4 1282.98 Q1132.82 1285.92 1128.31 1285.92 Q1123.78 1285.92 1121.2 1282.98 Q1118.64 1280.03 1118.64 1274.86 Q1118.64 1269.67 1121.2 1266.73 Q1123.78 1263.8 1128.31 1263.8 Z" fill="#000000" fill-rule="nonzero" fill-opacity="1" /><path clip-path="url(#clip590)" d="M617.186 1133.34 L633.506 1133.34 L633.506 1137.27 L611.561 1137.27 L611.561 1133.34 Q614.223 1130.58 618.807 1125.95 Q623.413 1121.3 624.594 1119.96 Q626.839 1117.43 627.719 1115.7 Q628.621 1113.94 628.621 1112.25 Q628.621 1109.5 626.677 1107.76 Q624.756 1106.02 621.654 1106.02 Q619.455 1106.02 617.001 1106.79 Q614.571 1107.55 611.793 1109.1 L611.793 1104.38 Q614.617 1103.25 617.071 1102.67 Q619.524 1102.09 621.561 1102.09 Q626.932 1102.09 630.126 1104.77 Q633.321 1107.46 633.321 1111.95 Q633.321 1114.08 632.51 1116 Q631.723 1117.9 629.617 1120.49 Q629.038 1121.16 625.936 1124.38 Q622.834 1127.57 617.186 1133.34 Z" fill="#000000" fill-rule="nonzero" fill-opacity="1" /><path clip-path="url(#clip590)" d="M647.348 1133.34 L663.668 1133.34 L663.668 1137.27 L641.723 1137.27 L641.723 1133.34 Q644.385 1130.58 648.969 1125.95 Q653.575 1121.3 654.756 1119.96 Q657.001 1117.43 657.881 1115.7 Q658.783 1113.94 658.783 1112.25 Q658.783 1109.5 656.839 1107.76 Q654.918 1106.02 651.816 1106.02 Q649.617 1106.02 647.163 1106.79 Q644.732 1107.55 641.955 1109.1 L641.955 1104.38 Q644.779 1103.25 647.232 1102.67 Q649.686 1102.09 651.723 1102.09 Q657.094 1102.09 660.288 1104.77 Q663.482 1107.46 663.482 1111.95 Q663.482 1114.08 662.672 1116 Q661.885 1117.9 659.779 1120.49 Q659.2 1121.16 656.098 1124.38 Q652.996 1127.57 647.348 1133.34 Z" fill="#000000" fill-rule="nonzero" fill-opacity="1" /><path clip-path="url(#clip590)" d="M673.529 1102.71 L691.885 1102.71 L691.885 1106.65 L677.811 1106.65 L677.811 1115.12 Q678.83 1114.77 679.848 1114.61 Q680.867 1114.43 681.885 1114.43 Q687.672 1114.43 691.052 1117.6 Q694.431 1120.77 694.431 1126.18 Q694.431 1131.76 690.959 1134.87 Q687.487 1137.94 681.167 1137.94 Q678.992 1137.94 676.723 1137.57 Q674.478 1137.2 672.07 1136.46 L672.07 1131.76 Q674.154 1132.9 676.376 1133.45 Q678.598 1134.01 681.075 1134.01 Q685.079 1134.01 687.417 1131.9 Q689.755 1129.8 689.755 1126.18 Q689.755 1122.57 687.417 1120.47 Q685.079 1118.36 681.075 1118.36 Q679.2 1118.36 677.325 1118.78 Q675.473 1119.19 673.529 1120.07 L673.529 1102.71 Z" fill="#000000" fill-rule="nonzero" fill-opacity="1" /><path clip-path="url(#clip590)" d="M704.098 1091.22 Q701.315 1091.22 699.697 1093.41 Q698.08 1095.57 698.08 1099.35 Q698.08 1103.13 699.679 1105.31 Q701.296 1107.47 704.098 1107.47 Q706.863 1107.47 708.481 1105.29 Q710.098 1103.11 710.098 1099.35 Q710.098 1095.61 708.481 1093.42 Q706.863 1091.22 704.098 1091.22 M704.098 1088.29 Q708.612 1088.29 711.189 1091.22 Q713.766 1094.16 713.766 1099.35 Q713.766 1104.52 711.189 1107.47 Q708.612 1110.41 704.098 1110.41 Q699.566 1110.41 696.989 1107.47 Q694.431 1104.52 694.431 1099.35 Q694.431 1094.16 696.989 1091.22 Q699.566 1088.29 704.098 1088.29 Z" fill="#000000" fill-rule="nonzero" fill-opacity="1" /><path clip-path="url(#clip590)" d="M437.095 709.623 L444.733 709.623 L444.733 683.257 L436.423 684.924 L436.423 680.665 L444.687 678.998 L449.363 678.998 L449.363 709.623 L457.002 709.623 L457.002 713.558 L437.095 713.558 L437.095 709.623 Z" fill="#000000" fill-rule="nonzero" fill-opacity="1" /><path clip-path="url(#clip590)" d="M476.446 697.146 Q473.113 697.146 471.192 698.928 Q469.293 700.711 469.293 703.836 Q469.293 706.961 471.192 708.743 Q473.113 710.526 476.446 710.526 Q479.78 710.526 481.701 708.743 Q483.622 706.938 483.622 703.836 Q483.622 700.711 481.701 698.928 Q479.803 697.146 476.446 697.146 M471.77 695.155 Q468.761 694.414 467.071 692.354 Q465.405 690.294 465.405 687.331 Q465.405 683.188 468.344 680.78 Q471.307 678.373 476.446 678.373 Q481.608 678.373 484.548 680.78 Q487.488 683.188 487.488 687.331 Q487.488 690.294 485.798 692.354 Q484.131 694.414 481.145 695.155 Q484.525 695.942 486.4 698.234 Q488.298 700.526 488.298 703.836 Q488.298 708.859 485.219 711.544 Q482.164 714.229 476.446 714.229 Q470.729 714.229 467.65 711.544 Q464.594 708.859 464.594 703.836 Q464.594 700.526 466.493 698.234 Q468.391 695.942 471.77 695.155 M470.057 687.771 Q470.057 690.456 471.724 691.961 Q473.414 693.465 476.446 693.465 Q479.455 693.465 481.145 691.961 Q482.858 690.456 482.858 687.771 Q482.858 685.086 481.145 683.581 Q479.455 682.077 476.446 682.077 Q473.414 682.077 471.724 683.581 Q470.057 685.086 470.057 687.771 Z" fill="#000000" fill-rule="nonzero" fill-opacity="1" /><path clip-path="url(#clip590)" d="M506.608 682.077 Q502.997 682.077 501.168 685.641 Q499.363 689.183 499.363 696.313 Q499.363 703.419 501.168 706.984 Q502.997 710.526 506.608 710.526 Q510.242 710.526 512.048 706.984 Q513.877 703.419 513.877 696.313 Q513.877 689.183 512.048 685.641 Q510.242 682.077 506.608 682.077 M506.608 678.373 Q512.418 678.373 515.474 682.979 Q518.552 687.563 518.552 696.313 Q518.552 705.039 515.474 709.646 Q512.418 714.229 506.608 714.229 Q500.798 714.229 497.719 709.646 Q494.664 705.039 494.664 696.313 Q494.664 687.563 497.719 682.979 Q500.798 678.373 506.608 678.373 Z" fill="#000000" fill-rule="nonzero" fill-opacity="1" /><path clip-path="url(#clip590)" d="M528.22 667.509 Q525.436 667.509 523.819 669.691 Q522.201 671.854 522.201 675.634 Q522.201 679.414 523.8 681.596 Q525.417 683.759 528.22 683.759 Q530.984 683.759 532.602 681.577 Q534.219 679.396 534.219 675.634 Q534.219 671.891 532.602 669.71 Q530.984 667.509 528.22 667.509 M528.22 664.575 Q532.734 664.575 535.31 667.509 Q537.887 670.443 537.887 675.634 Q537.887 680.806 535.31 683.759 Q532.734 686.693 528.22 686.693 Q523.687 686.693 521.11 683.759 Q518.552 680.806 518.552 675.634 Q518.552 670.443 521.11 667.509 Q523.687 664.575 528.22 664.575 Z" fill="#000000" fill-rule="nonzero" fill-opacity="1" /><path clip-path="url(#clip590)" d="M613.101 285.908 L620.74 285.908 L620.74 259.542 L612.429 261.209 L612.429 256.95 L620.693 255.283 L625.369 255.283 L625.369 285.908 L633.008 285.908 L633.008 289.843 L613.101 289.843 L613.101 285.908 Z" fill="#000000" fill-rule="nonzero" fill-opacity="1" /><path clip-path="url(#clip590)" d="M656.619 271.209 Q659.975 271.926 661.85 274.195 Q663.749 276.463 663.749 279.797 Q663.749 284.913 660.23 287.713 Q656.712 290.514 650.23 290.514 Q648.054 290.514 645.739 290.075 Q643.448 289.658 640.994 288.801 L640.994 284.288 Q642.939 285.422 645.253 286 Q647.568 286.579 650.091 286.579 Q654.489 286.579 656.781 284.843 Q659.096 283.107 659.096 279.797 Q659.096 276.741 656.943 275.028 Q654.813 273.292 650.994 273.292 L646.966 273.292 L646.966 269.45 L651.179 269.45 Q654.628 269.45 656.457 268.084 Q658.286 266.695 658.286 264.102 Q658.286 261.44 656.388 260.028 Q654.513 258.593 650.994 258.593 Q649.073 258.593 646.874 259.01 Q644.675 259.427 642.036 260.306 L642.036 256.14 Q644.698 255.399 647.013 255.028 Q649.351 254.658 651.411 254.658 Q656.735 254.658 659.837 257.089 Q662.938 259.496 662.938 263.616 Q662.938 266.487 661.295 268.477 Q659.651 270.445 656.619 271.209 Z" fill="#000000" fill-rule="nonzero" fill-opacity="1" /><path clip-path="url(#clip590)" d="M672.661 255.283 L691.017 255.283 L691.017 259.218 L676.943 259.218 L676.943 267.69 Q677.961 267.343 678.98 267.181 Q679.999 266.996 681.017 266.996 Q686.804 266.996 690.184 270.167 Q693.563 273.339 693.563 278.755 Q693.563 284.334 690.091 287.436 Q686.619 290.514 680.299 290.514 Q678.124 290.514 675.855 290.144 Q673.61 289.774 671.202 289.033 L671.202 284.334 Q673.286 285.468 675.508 286.024 Q677.73 286.579 680.207 286.579 Q684.211 286.579 686.549 284.473 Q688.887 282.366 688.887 278.755 Q688.887 275.144 686.549 273.038 Q684.211 270.931 680.207 270.931 Q678.332 270.931 676.457 271.348 Q674.605 271.764 672.661 272.644 L672.661 255.283 Z" fill="#000000" fill-rule="nonzero" fill-opacity="1" /><path clip-path="url(#clip590)" d="M703.23 243.794 Q700.447 243.794 698.829 245.976 Q697.212 248.139 697.212 251.919 Q697.212 255.699 698.811 257.881 Q700.428 260.044 703.23 260.044 Q705.995 260.044 707.613 257.862 Q709.23 255.681 709.23 251.919 Q709.23 248.176 707.613 245.995 Q705.995 243.794 703.23 243.794 M703.23 240.86 Q707.744 240.86 710.321 243.794 Q712.898 246.728 712.898 251.919 Q712.898 257.091 710.321 260.044 Q707.744 262.978 703.23 262.978 Q698.698 262.978 696.121 260.044 Q693.563 257.091 693.563 251.919 Q693.563 246.728 696.121 243.794 Q698.698 240.86 703.23 240.86 Z" fill="#000000" fill-rule="nonzero" fill-opacity="1" /><path clip-path="url(#clip590)" d="M1051.84 113.617 L1051.84 109.358 Q1053.6 110.191 1055.4 110.631 Q1057.21 111.071 1058.95 111.071 Q1063.57 111.071 1066.01 107.969 Q1068.46 104.844 1068.81 98.5014 Q1067.46 100.492 1065.4 101.557 Q1063.34 102.622 1060.84 102.622 Q1055.66 102.622 1052.63 99.4967 Q1049.62 96.3486 1049.62 90.9088 Q1049.62 85.5848 1052.76 82.3672 Q1055.91 79.1496 1061.14 79.1496 Q1067.14 79.1496 1070.29 83.7561 Q1073.46 88.3394 1073.46 97.0893 Q1073.46 105.261 1069.57 110.145 Q1065.7 115.006 1059.15 115.006 Q1057.39 115.006 1055.59 114.659 Q1053.78 114.311 1051.84 113.617 M1061.14 98.9643 Q1064.29 98.9643 1066.12 96.8115 Q1067.97 94.6588 1067.97 90.9088 Q1067.97 87.182 1066.12 85.0292 Q1064.29 82.8533 1061.14 82.8533 Q1058 82.8533 1056.14 85.0292 Q1054.32 87.182 1054.32 90.9088 Q1054.32 94.6588 1056.14 96.8115 Q1058 98.9643 1061.14 98.9643 Z" fill="#000000" fill-rule="nonzero" fill-opacity="1" /><path clip-path="url(#clip590)" d="M1091.86 82.8533 Q1088.25 82.8533 1086.42 86.4181 Q1084.62 89.9597 1084.62 97.0893 Q1084.62 104.196 1086.42 107.761 Q1088.25 111.302 1091.86 111.302 Q1095.5 111.302 1097.3 107.761 Q1099.13 104.196 1099.13 97.0893 Q1099.13 89.9597 1097.3 86.4181 Q1095.5 82.8533 1091.86 82.8533 M1091.86 79.1496 Q1097.67 79.1496 1100.73 83.7561 Q1103.81 88.3394 1103.81 97.0893 Q1103.81 105.816 1100.73 110.423 Q1097.67 115.006 1091.86 115.006 Q1086.05 115.006 1082.97 110.423 Q1079.92 105.816 1079.92 97.0893 Q1079.92 88.3394 1082.97 83.7561 Q1086.05 79.1496 1091.86 79.1496 Z" fill="#000000" fill-rule="nonzero" fill-opacity="1" /><path clip-path="url(#clip590)" d="M1113.47 68.2857 Q1110.69 68.2857 1109.07 70.4674 Q1107.45 72.6303 1107.45 76.4107 Q1107.45 80.191 1109.05 82.3727 Q1110.67 84.5356 1113.47 84.5356 Q1116.24 84.5356 1117.86 82.3539 Q1119.47 80.1722 1119.47 76.4107 Q1119.47 72.6679 1117.86 70.4862 Q1116.24 68.2857 1113.47 68.2857 M1113.47 65.3517 Q1117.99 65.3517 1120.56 68.2857 Q1123.14 71.2197 1123.14 76.4107 Q1123.14 81.5828 1120.56 84.5356 Q1117.99 87.4696 1113.47 87.4696 Q1108.94 87.4696 1106.36 84.5356 Q1103.81 81.5828 1103.81 76.4107 Q1103.81 71.2197 1106.36 68.2857 Q1108.94 65.3517 1113.47 65.3517 Z" fill="#000000" fill-rule="nonzero" fill-opacity="1" /><path clip-path="url(#clip590)" d="M1489.1 259.357 L1477.29 277.806 L1489.1 277.806 L1489.1 259.357 M1487.87 255.283 L1493.75 255.283 L1493.75 277.806 L1498.68 277.806 L1498.68 281.695 L1493.75 281.695 L1493.75 289.843 L1489.1 289.843 L1489.1 281.695 L1473.49 281.695 L1473.49 277.181 L1487.87 255.283 Z" fill="#000000" fill-rule="nonzero" fill-opacity="1" /><path clip-path="url(#clip590)" d="M1506.46 255.283 L1524.81 255.283 L1524.81 259.218 L1510.74 259.218 L1510.74 267.69 Q1511.76 267.343 1512.78 267.181 Q1513.79 266.996 1514.81 266.996 Q1520.6 266.996 1523.98 270.167 Q1527.36 273.339 1527.36 278.755 Q1527.36 284.334 1523.89 287.436 Q1520.41 290.514 1514.09 290.514 Q1511.92 290.514 1509.65 290.144 Q1507.41 289.774 1505 289.033 L1505 284.334 Q1507.08 285.468 1509.3 286.024 Q1511.53 286.579 1514 286.579 Q1518.01 286.579 1520.34 284.473 Q1522.68 282.366 1522.68 278.755 Q1522.68 275.144 1520.34 273.038 Q1518.01 270.931 1514 270.931 Q1512.13 270.931 1510.25 271.348 Q1508.4 271.764 1506.46 272.644 L1506.46 255.283 Z" fill="#000000" fill-rule="nonzero" fill-opacity="1" /><path clip-path="url(#clip590)" d="M1537.03 243.794 Q1534.24 243.794 1532.62 245.976 Q1531.01 248.139 1531.01 251.919 Q1531.01 255.699 1532.61 257.881 Q1534.22 260.044 1537.03 260.044 Q1539.79 260.044 1541.41 257.862 Q1543.03 255.681 1543.03 251.919 Q1543.03 248.176 1541.41 245.995 Q1539.79 243.794 1537.03 243.794 M1537.03 240.86 Q1541.54 240.86 1544.12 243.794 Q1546.69 246.728 1546.69 251.919 Q1546.69 257.091 1544.12 260.044 Q1541.54 262.978 1537.03 262.978 Q1532.49 262.978 1529.92 260.044 Q1527.36 257.091 1527.36 251.919 Q1527.36 246.728 1529.92 243.794 Q1532.49 240.86 1537.03 240.86 Z" fill="#000000" fill-rule="nonzero" fill-opacity="1" /><path clip-path="url(#clip590)" d="M1113.62 675.629 Q1110 675.629 1108.18 679.194 Q1106.37 682.735 1106.37 689.865 Q1106.37 696.971 1108.18 700.536 Q1110 704.078 1113.62 704.078 Q1117.25 704.078 1119.06 700.536 Q1120.88 696.971 1120.88 689.865 Q1120.88 682.735 1119.06 679.194 Q1117.25 675.629 1113.62 675.629 M1113.62 671.925 Q1119.43 671.925 1122.48 676.532 Q1125.56 681.115 1125.56 689.865 Q1125.56 698.592 1122.48 703.198 Q1119.43 707.782 1113.62 707.782 Q1107.81 707.782 1104.73 703.198 Q1101.67 698.592 1101.67 689.865 Q1101.67 681.115 1104.73 676.532 Q1107.81 671.925 1113.62 671.925 Z" fill="#000000" fill-rule="nonzero" fill-opacity="1" /><path clip-path="url(#clip590)" d="M1104 551.856 L1111.64 551.856 L1111.64 525.491 L1103.33 527.157 L1103.33 522.898 L1111.59 521.231 L1116.27 521.231 L1116.27 551.856 L1123.91 551.856 L1123.91 555.791 L1104 555.791 L1104 551.856 Z" fill="#000000" fill-rule="nonzero" fill-opacity="1" /><path clip-path="url(#clip590)" d="M1108.27 400.537 L1124.59 400.537 L1124.59 404.472 L1102.64 404.472 L1102.64 400.537 Q1105.31 397.782 1109.89 393.153 Q1114.5 388.5 1115.68 387.158 Q1117.92 384.634 1118.8 382.898 Q1119.7 381.139 1119.7 379.449 Q1119.7 376.695 1117.76 374.959 Q1115.84 373.222 1112.74 373.222 Q1110.54 373.222 1108.08 373.986 Q1105.65 374.75 1102.88 376.301 L1102.88 371.579 Q1105.7 370.445 1108.15 369.866 Q1110.61 369.287 1112.64 369.287 Q1118.01 369.287 1121.21 371.972 Q1124.4 374.658 1124.4 379.148 Q1124.4 381.278 1123.59 383.199 Q1122.81 385.097 1120.7 387.69 Q1120.12 388.361 1117.02 391.579 Q1113.92 394.773 1108.27 400.537 Z" fill="#000000" fill-rule="nonzero" fill-opacity="1" /><path clip-path="url(#clip590)" d="M1117.86 234.519 Q1121.22 235.237 1123.09 237.505 Q1124.99 239.774 1124.99 243.107 Q1124.99 248.223 1121.47 251.024 Q1117.96 253.825 1111.47 253.825 Q1109.3 253.825 1106.98 253.385 Q1104.69 252.968 1102.24 252.112 L1102.24 247.598 Q1104.18 248.732 1106.5 249.311 Q1108.81 249.889 1111.34 249.889 Q1115.73 249.889 1118.03 248.153 Q1120.34 246.417 1120.34 243.107 Q1120.34 240.051 1118.19 238.339 Q1116.06 236.602 1112.24 236.602 L1108.21 236.602 L1108.21 232.76 L1112.42 232.76 Q1115.87 232.76 1117.7 231.394 Q1119.53 230.005 1119.53 227.413 Q1119.53 224.751 1117.63 223.339 Q1115.76 221.903 1112.24 221.903 Q1110.32 221.903 1108.12 222.32 Q1105.92 222.737 1103.28 223.616 L1103.28 219.45 Q1105.94 218.709 1108.26 218.339 Q1110.6 217.968 1112.66 217.968 Q1117.98 217.968 1121.08 220.399 Q1124.18 222.806 1124.18 226.927 Q1124.18 229.797 1122.54 231.788 Q1120.9 233.755 1117.86 234.519 Z" fill="#000000" fill-rule="nonzero" fill-opacity="1" /><polyline clip-path="url(#clip593)" style="stroke:#009af9; stroke-linecap:round; stroke-linejoin:round; stroke-width:4; stroke-opacity:1; fill:none" points="1540.34,689.83 1540.32,687.509 1540.29,685.188 1540.23,682.868 1540.15,680.548 1538.26,659.176 1534.36,638.078 1528.48,617.442 1520.69,597.453 1508.87,574.536 1494.54,553.107 1480.58,536.354 1465.09,521.018 1446.67,506.127 1426.8,493.236 1407.39,483.246 1387.1,475.166 1364.6,468.713 1341.56,464.611 1314.5,462.855 1287.42,464.338 1263.66,468.359 1240.46,474.876 1220.78,482.589 1201.91,492.099 1164.31,518.647 1132.67,552.451 1106.49,596.415 1091.33,642.689 1086.4,693.072 1091.01,735.463 1107.24,784.888 1131.64,825.842 1161.33,858.373 1197.23,884.853 1219.41,896.451 1242.72,905.538 1264.6,911.511 1286.97,915.269 1312.88,916.808 1338.81,915.378 1362.52,911.421 1385.68,904.978 1407.72,896.263 1428.73,885.297 1447.93,872.609 1465.75,858.043 1482.39,841.316 1497.2,822.954 1511.14,801.193 1522.52,777.987 1529.09,760.398 1534.18,742.326 1537.76,723.895 1539.81,705.231 1540.04,701.385 1540.2,697.535 1540.3,693.683 1540.34,689.83 "/>
<polyline clip-path="url(#clip593)" style="stroke:#e26f46; stroke-linecap:round; stroke-linejoin:round; stroke-width:4; stroke-opacity:1; fill:none" points="1389.02,689.83 1388.99,686.735 1388.92,683.641 1388.8,680.549 1388.64,677.459 1387.25,663.228 1384.87,649.145 1381.5,635.289 1377.16,621.736 1371.89,608.56 1365.72,595.833 1358.7,583.622 1350.85,571.992 1340.43,558.866 1329,546.759 1316.68,535.754 1303.58,525.924 1291.98,518.572 1280,512.131 1267.69,506.621 1255.15,502.058 1241.34,498.181 1227.45,495.431 1213.58,493.797 1199.81,493.261 1175.04,495.052 1151.52,500.224 1107.52,521.028 1071.07,556.677 1060.5,574.509 1053.39,592.551 1049.83,608.02 1048.56,622.736 1048.73,630.316 1049.44,637.521 1050.64,644.31 1052.26,650.648 1054.26,656.541 1056.56,661.93 1059.1,666.802 1061.81,671.15 1064.92,675.351 1068.07,678.928 1071.18,681.903 1074.16,684.311 1076.81,686.115 1079.23,687.487 1081.36,688.478 1083.15,689.145 1084.62,689.559 1085.66,689.76 1086.25,689.825 1086.36,689.831 1086.09,689.848 1085.5,689.926 1084.58,690.112 1083.35,690.451 1081.47,691.135 1079.2,692.186 1076.61,693.673 1073.75,695.655 1070.96,697.953 1068.06,700.745 1065.13,704.058 1062.22,707.913 1059.62,711.962 1057.17,716.486 1054.91,721.479 1052.91,726.933 1051.2,732.911 1049.87,739.323 1048.98,746.14 1048.57,753.327 1049.67,770.561 1053.94,788.884 1060.86,805.872 1070.83,822.649 1105.25,857.054 1149.96,878.965 1175.44,884.668 1202.4,886.381 1215.8,885.676 1229.29,883.93 1242.78,881.129 1256.19,877.264 1269.73,872.199 1282.98,866.029 1295.84,858.773 1308.21,850.461 1321.08,840.19 1333.13,828.763 1344.24,816.257 1354.31,802.759 1360.92,792.389 1366.89,781.589 1372.2,770.403 1376.82,758.876 1383.89,734.993 1387.97,710.341 1388.43,705.226 1388.75,700.1 1388.95,694.967 1389.02,689.83 "/>
<path clip-path="url(#clip590)" d="M1441.62 242.342 L1999.53 242.342 L1999.53 86.8219 L1441.62 86.8219  Z" fill="#ffffff" fill-rule="evenodd" fill-opacity="1"/>
<polyline clip-path="url(#clip590)" style="stroke:#000000; stroke-linecap:round; stroke-linejoin:round; stroke-width:4; stroke-opacity:1; fill:none" points="1441.62,242.342 1999.53,242.342 1999.53,86.8219 1441.62,86.8219 1441.62,242.342 "/>
<polyline clip-path="url(#clip590)" style="stroke:#009af9; stroke-linecap:round; stroke-linejoin:round; stroke-width:4; stroke-opacity:1; fill:none" points="1463.36,138.662 1593.81,138.662 "/>
<path clip-path="url(#clip590)" d="M1637.57 131.586 Q1637.57 131.61 1637.43 132.453 L1632.09 153.744 Q1631.81 154.868 1631.01 155.992 Q1630.24 157.14 1629 158.124 Q1627.78 159.131 1625.91 159.74 Q1624.06 160.372 1621.92 160.372 Q1618.53 160.372 1617.03 159.646 Q1615.55 158.944 1615.55 157.445 Q1615.55 156.133 1616.37 155.383 Q1617.19 154.657 1618.13 154.657 Q1619.02 154.657 1619.49 155.173 Q1619.96 155.688 1619.96 156.344 Q1619.96 157.07 1619.46 157.796 Q1618.97 158.546 1617.99 158.827 Q1619.56 159.318 1621.83 159.318 Q1626.63 159.318 1628.69 154.236 Q1628.74 154.166 1628.74 154.142 L1630.33 147.795 L1630.26 147.748 Q1629.86 148.216 1629.23 148.755 Q1628.62 149.27 1627.31 149.903 Q1626 150.535 1624.71 150.535 Q1622.02 150.535 1620.17 148.474 Q1618.34 146.389 1618.34 142.946 Q1618.34 140.44 1619.35 137.934 Q1620.38 135.404 1621.97 133.554 Q1623.59 131.68 1625.65 130.509 Q1627.73 129.338 1629.75 129.338 Q1631.15 129.338 1632.35 130.181 Q1633.54 131.001 1634.2 132.359 Q1634.31 131.235 1634.95 130.766 Q1635.6 130.298 1636.16 130.298 Q1636.8 130.298 1637.17 130.649 Q1637.57 130.977 1637.57 131.586 M1633.64 134.514 Q1633.64 134.374 1633.54 133.999 Q1633.45 133.601 1633.17 132.968 Q1632.91 132.336 1632.51 131.774 Q1632.11 131.212 1631.39 130.813 Q1630.68 130.392 1629.79 130.392 Q1628.34 130.392 1626.89 131.61 Q1625.44 132.804 1624.43 134.655 Q1623.49 136.435 1622.6 139.878 Q1621.74 143.321 1621.74 145.078 Q1621.74 146.811 1622.49 148.146 Q1623.24 149.481 1624.85 149.481 Q1626.73 149.481 1628.74 147.748 Q1630.82 145.944 1631.18 144.398 L1633.49 135.24 Q1633.64 134.678 1633.64 134.514 Z" fill="#000000" fill-rule="nonzero" fill-opacity="1" /><path clip-path="url(#clip590)" d="M1644.14 138.543 Q1644.14 130.439 1647.17 123.904 Q1648.45 121.163 1650.26 118.868 Q1652.06 116.572 1653.26 115.565 Q1654.45 114.558 1654.78 114.558 Q1655.25 114.558 1655.27 115.027 Q1655.27 115.261 1654.64 115.846 Q1646.91 123.716 1646.93 138.543 Q1646.93 153.416 1654.45 160.981 Q1655.27 161.801 1655.27 162.059 Q1655.27 162.527 1654.78 162.527 Q1654.45 162.527 1653.3 161.567 Q1652.16 160.607 1650.38 158.405 Q1648.6 156.203 1647.31 153.51 Q1644.14 146.975 1644.14 138.543 Z" fill="#000000" fill-rule="nonzero" fill-opacity="1" /><path clip-path="url(#clip590)" d="M1679.69 126.55 Q1679.69 130.485 1678.43 134.912 Q1677.18 139.316 1675.22 142.876 Q1673.25 146.413 1670.67 148.755 Q1668.1 151.074 1665.64 151.074 Q1664.07 151.074 1662.9 150.207 Q1661.75 149.317 1661.12 147.841 Q1660.48 146.342 1660.18 144.703 Q1659.87 143.04 1659.87 141.236 Q1659.87 138.543 1660.46 135.615 Q1661.05 132.664 1662.03 129.994 Q1663.01 127.3 1664.4 124.864 Q1665.78 122.405 1667.3 120.625 Q1668.85 118.821 1670.58 117.767 Q1672.31 116.713 1673.93 116.713 Q1675.1 116.713 1676.04 117.228 Q1677 117.72 1677.61 118.587 Q1678.21 119.43 1678.64 120.437 Q1679.08 121.444 1679.29 122.615 Q1679.5 123.763 1679.6 124.724 Q1679.69 125.66 1679.69 126.55 M1676.53 123.576 Q1676.53 122.381 1676.43 121.491 Q1676.34 120.578 1676.08 119.664 Q1675.83 118.751 1675.26 118.259 Q1674.72 117.767 1673.88 117.767 Q1671.42 117.767 1668.66 122.803 Q1667.77 124.372 1666.97 126.504 Q1666.18 128.635 1665.89 129.642 Q1665.61 130.649 1664.96 133.132 L1674.98 133.132 Q1676.53 126.738 1676.53 123.576 M1674.56 134.655 L1664.58 134.655 Q1663.04 140.51 1663.04 144.164 Q1663.04 147.35 1663.69 148.685 Q1664.37 149.996 1665.64 149.996 Q1667.09 149.996 1668.45 148.544 Q1669.81 147.069 1671.19 144.398 Q1673.01 140.932 1674.56 134.655 Z" fill="#000000" fill-rule="nonzero" fill-opacity="1" /><path clip-path="url(#clip590)" d="M1684.64 162.059 Q1684.64 161.825 1685.25 161.239 Q1692.98 153.369 1692.98 138.543 Q1692.98 123.669 1685.55 116.151 Q1684.64 115.284 1684.64 115.027 Q1684.64 114.558 1685.11 114.558 Q1685.44 114.558 1686.58 115.518 Q1687.75 116.479 1689.51 118.681 Q1691.29 120.882 1692.6 123.576 Q1695.77 130.111 1695.77 138.543 Q1695.77 146.647 1692.74 153.182 Q1691.46 155.922 1689.65 158.218 Q1687.85 160.513 1686.65 161.52 Q1685.46 162.527 1685.11 162.527 Q1684.64 162.527 1684.64 162.059 Z" fill="#000000" fill-rule="nonzero" fill-opacity="1" /><path clip-path="url(#clip590)" d="M1716.37 143.251 Q1716.41 142.665 1717.33 142.665 L1746.72 142.665 Q1748.1 142.665 1748.13 143.204 Q1748.13 143.789 1746.81 143.766 L1717.65 143.766 Q1716.37 143.789 1716.37 143.251 M1716.37 133.882 Q1716.37 133.296 1717.37 133.32 L1746.67 133.32 Q1748.1 133.32 1748.13 133.882 Q1748.13 134.42 1746.91 134.42 L1717.33 134.42 Q1716.37 134.42 1716.37 133.882 Z" fill="#000000" fill-rule="nonzero" fill-opacity="1" /><path clip-path="url(#clip590)" d="M1766.63 144.07 Q1766.63 142.642 1767.45 141.962 Q1768.27 141.283 1769.32 141.283 Q1770.42 141.283 1771.19 142.009 Q1771.99 142.712 1771.99 143.953 Q1771.99 145.288 1771.05 146.038 Q1770.14 146.787 1768.83 146.6 Q1769.98 148.521 1772.08 149.387 Q1774.21 150.254 1776.18 150.254 Q1778.24 150.254 1779.91 148.474 Q1781.59 146.694 1781.59 142.337 Q1781.59 138.636 1780.14 136.505 Q1778.71 134.374 1775.88 134.374 L1773.77 134.374 Q1773.04 134.374 1772.83 134.303 Q1772.62 134.233 1772.62 133.835 Q1772.62 133.366 1773.35 133.273 Q1774.07 133.273 1775.22 133.132 Q1778.01 133.038 1779.48 130.626 Q1780.82 128.377 1780.82 125.169 Q1780.82 122.241 1779.41 121.023 Q1778.03 119.781 1776.23 119.781 Q1774.54 119.781 1772.69 120.484 Q1770.84 121.187 1769.83 122.756 Q1772.81 122.756 1772.81 125.169 Q1772.81 126.223 1772.13 126.925 Q1771.47 127.604 1770.37 127.604 Q1769.32 127.604 1768.62 126.949 Q1767.91 126.269 1767.91 125.122 Q1767.91 122.381 1770.35 120.484 Q1772.81 118.587 1776.42 118.587 Q1779.98 118.587 1782.6 120.461 Q1785.25 122.334 1785.25 125.215 Q1785.25 128.049 1783.37 130.368 Q1781.5 132.687 1778.52 133.647 Q1782.18 134.374 1784.36 136.856 Q1786.53 139.316 1786.53 142.337 Q1786.53 146.085 1783.58 148.849 Q1780.63 151.589 1776.32 151.589 Q1772.34 151.589 1769.48 149.434 Q1766.63 147.279 1766.63 144.07 Z" fill="#000000" fill-rule="nonzero" fill-opacity="1" /><path clip-path="url(#clip590)" d="M1793.42 147.912 Q1790.38 144.726 1790.38 140.182 Q1790.38 135.615 1793.38 132.336 Q1796.38 129.033 1800.78 129.033 Q1803.71 129.033 1805.91 130.439 Q1808.11 131.821 1808.11 134.186 Q1808.11 135.24 1807.48 135.849 Q1806.87 136.435 1805.91 136.435 Q1804.9 136.435 1804.29 135.826 Q1803.71 135.193 1803.71 134.233 Q1803.71 133.811 1803.85 133.39 Q1803.99 132.968 1804.5 132.523 Q1805.04 132.078 1805.95 132.008 Q1804.24 130.251 1800.92 130.251 Q1800.87 130.251 1800.83 130.251 Q1798.39 130.251 1796.38 132.547 Q1794.36 134.842 1794.36 140.089 Q1794.36 142.829 1795.02 144.843 Q1795.7 146.834 1796.8 147.865 Q1797.9 148.895 1798.97 149.387 Q1800.05 149.856 1801.11 149.856 Q1805.81 149.856 1807.41 144.82 Q1807.55 144.352 1808.02 144.352 Q1808.65 144.352 1808.65 144.82 Q1808.65 145.054 1808.46 145.663 Q1808.27 146.272 1807.69 147.232 Q1807.1 148.193 1806.26 149.036 Q1805.44 149.856 1803.96 150.465 Q1802.51 151.074 1800.68 151.074 Q1796.47 151.074 1793.42 147.912 Z" fill="#000000" fill-rule="nonzero" fill-opacity="1" /><path clip-path="url(#clip590)" d="M1814.24 147.959 Q1811.08 144.82 1811.08 140.276 Q1811.08 135.709 1814.17 132.383 Q1817.29 129.033 1821.74 129.033 Q1826.09 129.033 1829.21 132.359 Q1832.35 135.662 1832.35 140.276 Q1832.35 144.797 1829.19 147.935 Q1826.05 151.074 1821.69 151.074 Q1817.43 151.074 1814.24 147.959 M1815.06 139.878 Q1815.06 144.539 1816.28 146.647 Q1818.15 149.856 1821.74 149.856 Q1823.52 149.856 1824.99 148.895 Q1826.49 147.935 1827.31 146.319 Q1828.37 144.211 1828.37 139.878 Q1828.37 135.264 1827.1 133.226 Q1825.23 130.111 1821.69 130.111 Q1820.14 130.111 1818.62 130.93 Q1817.12 131.727 1816.21 133.32 Q1815.06 135.428 1815.06 139.878 Z" fill="#000000" fill-rule="nonzero" fill-opacity="1" /><path clip-path="url(#clip590)" d="M1834.83 149.903 L1834.83 143.579 Q1834.83 143.04 1834.86 142.852 Q1834.88 142.665 1835.02 142.525 Q1835.16 142.384 1835.44 142.384 Q1835.77 142.384 1835.89 142.525 Q1836.03 142.665 1836.12 143.204 Q1836.85 146.506 1838.39 148.263 Q1839.96 149.996 1842.8 149.996 Q1845.49 149.996 1846.85 148.802 Q1848.21 147.607 1848.21 145.64 Q1848.21 142.126 1843.22 141.236 Q1840.34 140.651 1839.14 140.276 Q1837.95 139.878 1836.89 139.011 Q1834.83 137.325 1834.83 134.936 Q1834.83 132.547 1836.64 130.79 Q1838.46 129.033 1842.49 129.033 Q1845.19 129.033 1847.01 130.392 Q1847.55 129.97 1847.83 129.619 Q1848.47 129.033 1848.79 129.033 Q1849.17 129.033 1849.24 129.291 Q1849.31 129.525 1849.31 130.204 L1849.31 135.029 Q1849.31 135.568 1849.29 135.755 Q1849.26 135.943 1849.12 136.083 Q1848.98 136.201 1848.68 136.201 Q1848.14 136.201 1848.11 135.755 Q1847.74 129.947 1842.49 129.947 Q1839.66 129.947 1838.39 131.048 Q1837.13 132.125 1837.13 133.601 Q1837.13 134.42 1837.5 135.053 Q1837.9 135.662 1838.39 136.037 Q1838.91 136.388 1839.85 136.739 Q1840.78 137.067 1841.34 137.184 Q1841.93 137.301 1843.03 137.536 Q1846.87 138.262 1848.49 139.831 Q1850.5 141.845 1850.5 144.398 Q1850.5 147.232 1848.58 149.153 Q1846.66 151.074 1842.8 151.074 Q1839.68 151.074 1837.5 148.989 Q1837.22 149.27 1837.01 149.528 Q1836.8 149.762 1836.71 149.856 Q1836.64 149.949 1836.61 150.02 Q1836.59 150.067 1836.54 150.113 Q1835.58 151.074 1835.35 151.074 Q1834.97 151.074 1834.9 150.816 Q1834.83 150.582 1834.83 149.903 Z" fill="#000000" fill-rule="nonzero" fill-opacity="1" /><path clip-path="url(#clip590)" d="M1853.53 138.543 Q1853.53 130.439 1856.55 123.904 Q1857.84 121.163 1859.64 118.868 Q1861.45 116.572 1862.64 115.565 Q1863.84 114.558 1864.16 114.558 Q1864.63 114.558 1864.66 115.027 Q1864.66 115.261 1864.02 115.846 Q1856.29 123.716 1856.32 138.543 Q1856.32 153.416 1863.84 160.981 Q1864.66 161.801 1864.66 162.059 Q1864.66 162.527 1864.16 162.527 Q1863.84 162.527 1862.69 161.567 Q1861.54 160.607 1859.76 158.405 Q1857.98 156.203 1856.69 153.51 Q1853.53 146.975 1853.53 138.543 Z" fill="#000000" fill-rule="nonzero" fill-opacity="1" /><path clip-path="url(#clip590)" d="M1889.08 126.55 Q1889.08 130.485 1887.81 134.912 Q1886.57 139.316 1884.6 142.876 Q1882.63 146.413 1880.06 148.755 Q1877.48 151.074 1875.02 151.074 Q1873.45 151.074 1872.28 150.207 Q1871.13 149.317 1870.5 147.841 Q1869.87 146.342 1869.56 144.703 Q1869.26 143.04 1869.26 141.236 Q1869.26 138.543 1869.85 135.615 Q1870.43 132.664 1871.41 129.994 Q1872.4 127.3 1873.78 124.864 Q1875.16 122.405 1876.68 120.625 Q1878.23 118.821 1879.96 117.767 Q1881.7 116.713 1883.31 116.713 Q1884.48 116.713 1885.42 117.228 Q1886.38 117.72 1886.99 118.587 Q1887.6 119.43 1888.02 120.437 Q1888.47 121.444 1888.68 122.615 Q1888.89 123.763 1888.98 124.724 Q1889.08 125.66 1889.08 126.55 M1885.91 123.576 Q1885.91 122.381 1885.82 121.491 Q1885.73 120.578 1885.47 119.664 Q1885.21 118.751 1884.65 118.259 Q1884.11 117.767 1883.27 117.767 Q1880.81 117.767 1878.04 122.803 Q1877.15 124.372 1876.36 126.504 Q1875.56 128.635 1875.28 129.642 Q1875 130.649 1874.34 133.132 L1884.37 133.132 Q1885.91 126.738 1885.91 123.576 M1883.95 134.655 L1873.97 134.655 Q1872.42 140.51 1872.42 144.164 Q1872.42 147.35 1873.08 148.685 Q1873.76 149.996 1875.02 149.996 Q1876.47 149.996 1877.83 148.544 Q1879.19 147.069 1880.57 144.398 Q1882.4 140.932 1883.95 134.655 Z" fill="#000000" fill-rule="nonzero" fill-opacity="1" /><path clip-path="url(#clip590)" d="M1894.02 162.059 Q1894.02 161.825 1894.63 161.239 Q1902.36 153.369 1902.36 138.543 Q1902.36 123.669 1894.94 116.151 Q1894.02 115.284 1894.02 115.027 Q1894.02 114.558 1894.49 114.558 Q1894.82 114.558 1895.97 115.518 Q1897.14 116.479 1898.9 118.681 Q1900.68 120.882 1901.99 123.576 Q1905.15 130.111 1905.15 138.543 Q1905.15 146.647 1902.13 153.182 Q1900.84 155.922 1899.04 158.218 Q1897.23 160.513 1896.04 161.52 Q1894.84 162.527 1894.49 162.527 Q1894.02 162.527 1894.02 162.059 Z" fill="#000000" fill-rule="nonzero" fill-opacity="1" /><polyline clip-path="url(#clip590)" style="stroke:#e26f46; stroke-linecap:round; stroke-linejoin:round; stroke-width:4; stroke-opacity:1; fill:none" points="1463.36,190.502 1593.81,190.502 "/>
<path clip-path="url(#clip590)" d="M1639.47 171.856 Q1639.47 173.144 1638.65 173.94 Q1637.85 174.737 1636.84 174.737 Q1636.12 174.737 1635.58 174.292 Q1635.06 173.847 1635.06 173.074 Q1635.06 172.277 1635.67 171.434 Q1636.28 170.591 1637.66 170.474 Q1636.75 169.607 1635.3 169.607 Q1634.57 169.607 1633.96 170.075 Q1633.38 170.521 1633.05 171.247 Q1632.7 171.996 1631.9 176.236 Q1631.64 177.618 1631.41 178.953 Q1631.18 180.288 1630.89 181.693 L1634.88 181.693 Q1635.39 181.693 1635.6 181.716 Q1635.81 181.74 1635.98 181.857 Q1636.16 181.974 1636.16 182.232 Q1636.16 182.888 1635.86 183.052 Q1635.58 183.192 1634.74 183.192 L1630.61 183.192 L1627.73 198.393 Q1627.66 198.838 1627.36 200.244 Q1627.08 201.626 1626.4 203.898 Q1625.72 206.193 1625.04 207.551 Q1624.66 208.324 1624.17 209.05 Q1623.7 209.8 1623.02 210.549 Q1622.35 211.299 1621.46 211.744 Q1620.57 212.212 1619.63 212.212 Q1618.04 212.212 1616.79 211.322 Q1615.55 210.432 1615.55 208.91 Q1615.55 207.622 1616.35 206.825 Q1617.17 206.029 1618.18 206.029 Q1618.9 206.029 1619.42 206.474 Q1619.96 206.919 1619.96 207.692 Q1619.96 208.02 1619.84 208.395 Q1619.72 208.769 1619.46 209.191 Q1619.21 209.636 1618.64 209.94 Q1618.08 210.245 1617.31 210.292 Q1618.22 211.158 1619.63 211.158 Q1620.07 211.158 1620.47 210.971 Q1620.87 210.807 1621.2 210.386 Q1621.55 209.964 1621.81 209.542 Q1622.06 209.144 1622.32 208.371 Q1622.58 207.622 1622.74 207.06 Q1622.91 206.497 1623.12 205.49 Q1623.35 204.483 1623.47 203.874 Q1623.59 203.289 1623.8 202.141 L1627.38 183.192 L1624.22 183.192 Q1623.66 183.192 1623.42 183.169 Q1623.21 183.145 1623.05 183.028 Q1622.88 182.888 1622.88 182.606 Q1622.88 182.161 1623.07 181.974 Q1623.28 181.763 1623.52 181.74 Q1623.75 181.693 1624.31 181.693 L1627.64 181.693 Q1628.76 175.767 1629.21 174.174 Q1629.72 172.488 1630.52 171.317 Q1631.32 170.122 1632.21 169.56 Q1633.1 168.998 1633.82 168.787 Q1634.57 168.553 1635.3 168.553 Q1636.94 168.553 1638.2 169.443 Q1639.47 170.31 1639.47 171.856 Z" fill="#000000" fill-rule="nonzero" fill-opacity="1" /><path clip-path="url(#clip590)" d="M1645.92 190.383 Q1645.92 182.279 1648.94 175.744 Q1650.23 173.003 1652.04 170.708 Q1653.84 168.412 1655.03 167.405 Q1656.23 166.398 1656.56 166.398 Q1657.03 166.398 1657.05 166.867 Q1657.05 167.101 1656.42 167.686 Q1648.69 175.556 1648.71 190.383 Q1648.71 205.256 1656.23 212.821 Q1657.05 213.641 1657.05 213.899 Q1657.05 214.367 1656.56 214.367 Q1656.23 214.367 1655.08 213.407 Q1653.93 212.447 1652.15 210.245 Q1650.37 208.043 1649.09 205.35 Q1645.92 198.815 1645.92 190.383 Z" fill="#000000" fill-rule="nonzero" fill-opacity="1" /><path clip-path="url(#clip590)" d="M1681.47 178.39 Q1681.47 182.325 1680.2 186.752 Q1678.96 191.156 1676.99 194.716 Q1675.03 198.253 1672.45 200.595 Q1669.87 202.914 1667.42 202.914 Q1665.85 202.914 1664.67 202.047 Q1663.53 201.157 1662.89 199.681 Q1662.26 198.182 1661.96 196.543 Q1661.65 194.88 1661.65 193.076 Q1661.65 190.383 1662.24 187.455 Q1662.82 184.504 1663.81 181.834 Q1664.79 179.14 1666.17 176.704 Q1667.56 174.245 1669.08 172.465 Q1670.62 170.661 1672.36 169.607 Q1674.09 168.553 1675.71 168.553 Q1676.88 168.553 1677.81 169.068 Q1678.77 169.56 1679.38 170.427 Q1679.99 171.27 1680.41 172.277 Q1680.86 173.284 1681.07 174.455 Q1681.28 175.603 1681.37 176.564 Q1681.47 177.5 1681.47 178.39 M1678.31 175.416 Q1678.31 174.221 1678.21 173.331 Q1678.12 172.418 1677.86 171.504 Q1677.6 170.591 1677.04 170.099 Q1676.5 169.607 1675.66 169.607 Q1673.2 169.607 1670.44 174.643 Q1669.55 176.212 1668.75 178.344 Q1667.95 180.475 1667.67 181.482 Q1667.39 182.489 1666.74 184.972 L1676.76 184.972 Q1678.31 178.578 1678.31 175.416 M1676.34 186.495 L1666.36 186.495 Q1664.82 192.35 1664.82 196.004 Q1664.82 199.19 1665.47 200.525 Q1666.15 201.836 1667.42 201.836 Q1668.87 201.836 1670.23 200.384 Q1671.58 198.909 1672.97 196.238 Q1674.79 192.772 1676.34 186.495 Z" fill="#000000" fill-rule="nonzero" fill-opacity="1" /><path clip-path="url(#clip590)" d="M1686.42 213.899 Q1686.42 213.665 1687.03 213.079 Q1694.76 205.209 1694.76 190.383 Q1694.76 175.509 1687.33 167.991 Q1686.42 167.124 1686.42 166.867 Q1686.42 166.398 1686.89 166.398 Q1687.21 166.398 1688.36 167.358 Q1689.53 168.319 1691.29 170.521 Q1693.07 172.722 1694.38 175.416 Q1697.54 181.951 1697.54 190.383 Q1697.54 198.487 1694.52 205.022 Q1693.23 207.762 1691.43 210.058 Q1689.63 212.353 1688.43 213.36 Q1687.24 214.367 1686.89 214.367 Q1686.42 214.367 1686.42 213.899 Z" fill="#000000" fill-rule="nonzero" fill-opacity="1" /><path clip-path="url(#clip590)" d="M1718.14 195.091 Q1718.19 194.505 1719.1 194.505 L1748.5 194.505 Q1749.88 194.505 1749.9 195.044 Q1749.9 195.629 1748.59 195.606 L1719.43 195.606 Q1718.14 195.629 1718.14 195.091 M1718.14 185.722 Q1718.14 185.136 1719.15 185.16 L1748.45 185.16 Q1749.88 185.16 1749.9 185.722 Q1749.9 186.26 1748.69 186.26 L1719.1 186.26 Q1718.14 186.26 1718.14 185.722 Z" fill="#000000" fill-rule="nonzero" fill-opacity="1" /><path clip-path="url(#clip590)" d="M1768.4 174.994 L1768.4 173.495 Q1774.17 173.495 1777.14 170.427 Q1777.96 170.427 1778.1 170.614 Q1778.24 170.802 1778.24 171.668 L1778.24 198.581 Q1778.24 200.009 1778.94 200.454 Q1779.65 200.899 1782.72 200.899 L1784.24 200.899 L1784.24 202.375 Q1782.55 202.235 1776.46 202.235 Q1770.37 202.235 1768.71 202.375 L1768.71 200.899 L1770.23 200.899 Q1773.25 200.899 1773.98 200.478 Q1774.7 200.033 1774.7 198.581 L1774.7 173.729 Q1772.2 174.994 1768.4 174.994 Z" fill="#000000" fill-rule="nonzero" fill-opacity="1" /><path clip-path="url(#clip590)" d="M1806.57 190.968 Q1805.47 190.968 1805.47 190.383 Q1805.47 189.797 1806.61 189.797 Q1806.75 189.797 1806.99 189.821 Q1807.25 189.844 1807.29 189.844 L1820.81 189.844 L1820.81 176.282 Q1820.81 176.236 1820.78 176.025 Q1820.76 175.791 1820.76 175.65 Q1820.76 174.502 1821.32 174.502 Q1821.91 174.502 1821.91 175.65 L1821.91 189.844 L1835.45 189.844 Q1835.49 189.844 1835.73 189.821 Q1835.96 189.797 1836.1 189.797 Q1837.2 189.797 1837.2 190.383 Q1837.23 190.968 1836.06 190.968 Q1835.91 190.968 1835.7 190.945 Q1835.49 190.921 1835.45 190.921 L1821.91 190.921 L1821.91 205.162 Q1821.91 206.263 1821.32 206.263 Q1820.76 206.263 1820.76 205.115 Q1820.76 204.975 1820.78 204.741 Q1820.81 204.53 1820.81 204.483 L1820.81 190.921 L1807.29 190.921 Q1807.25 190.921 1806.96 190.945 Q1806.71 190.968 1806.57 190.968 Z" fill="#000000" fill-rule="nonzero" fill-opacity="1" /><path clip-path="url(#clip590)" d="M1858.77 199.752 Q1855.73 196.566 1855.73 192.022 Q1855.73 187.455 1858.72 184.176 Q1861.72 180.873 1866.13 180.873 Q1869.05 180.873 1871.25 182.279 Q1873.46 183.661 1873.46 186.026 Q1873.46 187.08 1872.82 187.689 Q1872.21 188.275 1871.25 188.275 Q1870.25 188.275 1869.64 187.666 Q1869.05 187.033 1869.05 186.073 Q1869.05 185.651 1869.19 185.23 Q1869.33 184.808 1869.85 184.363 Q1870.39 183.918 1871.3 183.848 Q1869.59 182.091 1866.27 182.091 Q1866.22 182.091 1866.17 182.091 Q1863.74 182.091 1861.72 184.387 Q1859.71 186.682 1859.71 191.929 Q1859.71 194.669 1860.36 196.683 Q1861.04 198.674 1862.14 199.705 Q1863.24 200.735 1864.32 201.227 Q1865.4 201.696 1866.45 201.696 Q1871.16 201.696 1872.75 196.66 Q1872.89 196.192 1873.36 196.192 Q1874 196.192 1874 196.66 Q1874 196.894 1873.81 197.503 Q1873.62 198.112 1873.03 199.072 Q1872.45 200.033 1871.61 200.876 Q1870.79 201.696 1869.31 202.305 Q1867.86 202.914 1866.03 202.914 Q1861.82 202.914 1858.77 199.752 Z" fill="#000000" fill-rule="nonzero" fill-opacity="1" /><path clip-path="url(#clip590)" d="M1879.59 199.799 Q1876.43 196.66 1876.43 192.116 Q1876.43 187.549 1879.52 184.223 Q1882.63 180.873 1887.08 180.873 Q1891.44 180.873 1894.56 184.199 Q1897.69 187.502 1897.69 192.116 Q1897.69 196.637 1894.53 199.775 Q1891.39 202.914 1887.04 202.914 Q1882.77 202.914 1879.59 199.799 M1880.41 191.718 Q1880.41 196.379 1881.63 198.487 Q1883.5 201.696 1887.08 201.696 Q1888.86 201.696 1890.34 200.735 Q1891.84 199.775 1892.66 198.159 Q1893.71 196.051 1893.71 191.718 Q1893.71 187.104 1892.45 185.066 Q1890.57 181.951 1887.04 181.951 Q1885.49 181.951 1883.97 182.77 Q1882.47 183.567 1881.56 185.16 Q1880.41 187.268 1880.41 191.718 Z" fill="#000000" fill-rule="nonzero" fill-opacity="1" /><path clip-path="url(#clip590)" d="M1900.18 201.743 L1900.18 195.419 Q1900.18 194.88 1900.2 194.692 Q1900.23 194.505 1900.37 194.365 Q1900.51 194.224 1900.79 194.224 Q1901.12 194.224 1901.23 194.365 Q1901.37 194.505 1901.47 195.044 Q1902.19 198.346 1903.74 200.103 Q1905.31 201.836 1908.14 201.836 Q1910.84 201.836 1912.2 200.642 Q1913.55 199.447 1913.55 197.48 Q1913.55 193.966 1908.57 193.076 Q1905.68 192.491 1904.49 192.116 Q1903.3 191.718 1902.24 190.851 Q1900.18 189.165 1900.18 186.776 Q1900.18 184.387 1901.98 182.63 Q1903.81 180.873 1907.84 180.873 Q1910.53 180.873 1912.36 182.232 Q1912.9 181.81 1913.18 181.459 Q1913.81 180.873 1914.14 180.873 Q1914.51 180.873 1914.59 181.131 Q1914.66 181.365 1914.66 182.044 L1914.66 186.869 Q1914.66 187.408 1914.63 187.595 Q1914.61 187.783 1914.47 187.923 Q1914.33 188.041 1914.02 188.041 Q1913.48 188.041 1913.46 187.595 Q1913.09 181.787 1907.84 181.787 Q1905.01 181.787 1903.74 182.888 Q1902.48 183.965 1902.48 185.441 Q1902.48 186.26 1902.85 186.893 Q1903.25 187.502 1903.74 187.877 Q1904.26 188.228 1905.19 188.579 Q1906.13 188.907 1906.69 189.024 Q1907.28 189.141 1908.38 189.376 Q1912.22 190.102 1913.84 191.671 Q1915.85 193.685 1915.85 196.238 Q1915.85 199.072 1913.93 200.993 Q1912.01 202.914 1908.14 202.914 Q1905.03 202.914 1902.85 200.829 Q1902.57 201.11 1902.36 201.368 Q1902.15 201.602 1902.05 201.696 Q1901.98 201.789 1901.96 201.86 Q1901.94 201.907 1901.89 201.953 Q1900.93 202.914 1900.7 202.914 Q1900.32 202.914 1900.25 202.656 Q1900.18 202.422 1900.18 201.743 Z" fill="#000000" fill-rule="nonzero" fill-opacity="1" /><path clip-path="url(#clip590)" d="M1918.88 190.383 Q1918.88 182.279 1921.9 175.744 Q1923.19 173.003 1924.99 170.708 Q1926.79 168.412 1927.99 167.405 Q1929.18 166.398 1929.51 166.398 Q1929.98 166.398 1930 166.867 Q1930 167.101 1929.37 167.686 Q1921.64 175.556 1921.66 190.383 Q1921.66 205.256 1929.18 212.821 Q1930 213.641 1930 213.899 Q1930 214.367 1929.51 214.367 Q1929.18 214.367 1928.03 213.407 Q1926.89 212.447 1925.11 210.245 Q1923.33 208.043 1922.04 205.35 Q1918.88 198.815 1918.88 190.383 Z" fill="#000000" fill-rule="nonzero" fill-opacity="1" /><path clip-path="url(#clip590)" d="M1954.42 178.39 Q1954.42 182.325 1953.16 186.752 Q1951.92 191.156 1949.95 194.716 Q1947.98 198.253 1945.4 200.595 Q1942.83 202.914 1940.37 202.914 Q1938.8 202.914 1937.63 202.047 Q1936.48 201.157 1935.85 199.681 Q1935.22 198.182 1934.91 196.543 Q1934.61 194.88 1934.61 193.076 Q1934.61 190.383 1935.19 187.455 Q1935.78 184.504 1936.76 181.834 Q1937.75 179.14 1939.13 176.704 Q1940.51 174.245 1942.03 172.465 Q1943.58 170.661 1945.31 169.607 Q1947.04 168.553 1948.66 168.553 Q1949.83 168.553 1950.77 169.068 Q1951.73 169.56 1952.34 170.427 Q1952.95 171.27 1953.37 172.277 Q1953.81 173.284 1954.02 174.455 Q1954.23 175.603 1954.33 176.564 Q1954.42 177.5 1954.42 178.39 M1951.26 175.416 Q1951.26 174.221 1951.17 173.331 Q1951.07 172.418 1950.81 171.504 Q1950.56 170.591 1950 170.099 Q1949.46 169.607 1948.61 169.607 Q1946.15 169.607 1943.39 174.643 Q1942.5 176.212 1941.7 178.344 Q1940.91 180.475 1940.63 181.482 Q1940.35 182.489 1939.69 184.972 L1949.71 184.972 Q1951.26 178.578 1951.26 175.416 M1949.29 186.495 L1939.31 186.495 Q1937.77 192.35 1937.77 196.004 Q1937.77 199.19 1938.42 200.525 Q1939.1 201.836 1940.37 201.836 Q1941.82 201.836 1943.18 200.384 Q1944.54 198.909 1945.92 196.238 Q1947.75 192.772 1949.29 186.495 Z" fill="#000000" fill-rule="nonzero" fill-opacity="1" /><path clip-path="url(#clip590)" d="M1959.37 213.899 Q1959.37 213.665 1959.98 213.079 Q1967.71 205.209 1967.71 190.383 Q1967.71 175.509 1960.28 167.991 Q1959.37 167.124 1959.37 166.867 Q1959.37 166.398 1959.84 166.398 Q1960.17 166.398 1961.32 167.358 Q1962.49 168.319 1964.24 170.521 Q1966.02 172.722 1967.33 175.416 Q1970.5 181.951 1970.5 190.383 Q1970.5 198.487 1967.48 205.022 Q1966.19 207.762 1964.38 210.058 Q1962.58 212.353 1961.39 213.36 Q1960.19 214.367 1959.84 214.367 Q1959.37 214.367 1959.37 213.899 Z" fill="#000000" fill-rule="nonzero" fill-opacity="1" /></svg>
