<?xml version="1.0" encoding="utf-8"?>
<svg xmlns="http://www.w3.org/2000/svg" xmlns:xlink="http://www.w3.org/1999/xlink" width="528" height="336" viewBox="0 0 2112 1344">
<defs>
  <clipPath id="clip020">
    <rect x="0" y="0" width="2112" height="1344"/>
  </clipPath>
</defs>
<path clip-path="url(#clip020)" d="M0 1344 L2112 1344 L2112 0 L0 0  Z" fill="#ffffff" fill-rule="evenodd" fill-opacity="1"/>
<defs>
  <clipPath id="clip021">
    <rect x="422" y="0" width="1479" height="1344"/>
  </clipPath>
</defs>
<path clip-path="url(#clip020)" d="M196.403 1234.58 L2064.76 1234.58 L2064.76 47.2441 L196.403 47.2441  Z" fill="#ffffff" fill-rule="evenodd" fill-opacity="1"/>
<defs>
  <clipPath id="clip022">
    <rect x="196" y="47" width="1869" height="1188"/>
  </clipPath>
</defs>
<polyline clip-path="url(#clip022)" style="stroke:#000000; stroke-linecap:round; stroke-linejoin:round; stroke-width:2; stroke-opacity:0.1; fill:none" points="249.281,1234.58 249.281,47.2441 "/>
<polyline clip-path="url(#clip022)" style="stroke:#000000; stroke-linecap:round; stroke-linejoin:round; stroke-width:2; stroke-opacity:0.1; fill:none" points="640.969,1234.58 640.969,47.2441 "/>
<polyline clip-path="url(#clip022)" style="stroke:#000000; stroke-linecap:round; stroke-linejoin:round; stroke-width:2; stroke-opacity:0.1; fill:none" points="1032.66,1234.58 1032.66,47.2441 "/>
<polyline clip-path="url(#clip022)" style="stroke:#000000; stroke-linecap:round; stroke-linejoin:round; stroke-width:2; stroke-opacity:0.1; fill:none" points="1424.35,1234.58 1424.35,47.2441 "/>
<polyline clip-path="url(#clip022)" style="stroke:#000000; stroke-linecap:round; stroke-linejoin:round; stroke-width:2; stroke-opacity:0.1; fill:none" points="1816.03,1234.58 1816.03,47.2441 "/>
<polyline clip-path="url(#clip020)" style="stroke:#000000; stroke-linecap:round; stroke-linejoin:round; stroke-width:4; stroke-opacity:1; fill:none" points="196.403,1234.58 2064.76,1234.58 "/>
<polyline clip-path="url(#clip020)" style="stroke:#000000; stroke-linecap:round; stroke-linejoin:round; stroke-width:4; stroke-opacity:1; fill:none" points="249.281,1234.58 249.281,1215.68 "/>
<polyline clip-path="url(#clip020)" style="stroke:#000000; stroke-linecap:round; stroke-linejoin:round; stroke-width:4; stroke-opacity:1; fill:none" points="640.969,1234.58 640.969,1215.68 "/>
<polyline clip-path="url(#clip020)" style="stroke:#000000; stroke-linecap:round; stroke-linejoin:round; stroke-width:4; stroke-opacity:1; fill:none" points="1032.66,1234.58 1032.66,1215.68 "/>
<polyline clip-path="url(#clip020)" style="stroke:#000000; stroke-linecap:round; stroke-linejoin:round; stroke-width:4; stroke-opacity:1; fill:none" points="1424.35,1234.58 1424.35,1215.68 "/>
<polyline clip-path="url(#clip020)" style="stroke:#000000; stroke-linecap:round; stroke-linejoin:round; stroke-width:4; stroke-opacity:1; fill:none" points="1816.03,1234.58 1816.03,1215.68 "/>
<path clip-path="url(#clip020)" d="M249.281 1263.19 Q245.67 1263.19 243.841 1266.76 Q242.036 1270.3 242.036 1277.43 Q242.036 1284.54 243.841 1288.1 Q245.67 1291.64 249.281 1291.64 Q252.915 1291.64 254.721 1288.1 Q256.55 1284.54 256.55 1277.43 Q256.55 1270.3 254.721 1266.76 Q252.915 1263.19 249.281 1263.19 M249.281 1259.49 Q255.091 1259.49 258.147 1264.1 Q261.225 1268.68 261.225 1277.43 Q261.225 1286.16 258.147 1290.76 Q255.091 1295.35 249.281 1295.35 Q243.471 1295.35 240.392 1290.76 Q237.337 1286.16 237.337 1277.43 Q237.337 1268.68 240.392 1264.1 Q243.471 1259.49 249.281 1259.49 Z" fill="#000000" fill-rule="nonzero" fill-opacity="1" /><path clip-path="url(#clip020)" d="M635.622 1290.74 L651.941 1290.74 L651.941 1294.67 L629.997 1294.67 L629.997 1290.74 Q632.659 1287.99 637.242 1283.36 Q641.849 1278.7 643.029 1277.36 Q645.275 1274.84 646.154 1273.1 Q647.057 1271.34 647.057 1269.65 Q647.057 1266.9 645.113 1265.16 Q643.192 1263.42 640.09 1263.42 Q637.891 1263.42 635.437 1264.19 Q633.006 1264.95 630.229 1266.5 L630.229 1261.78 Q633.053 1260.65 635.506 1260.07 Q637.96 1259.49 639.997 1259.49 Q645.367 1259.49 648.562 1262.17 Q651.756 1264.86 651.756 1269.35 Q651.756 1271.48 650.946 1273.4 Q650.159 1275.3 648.053 1277.89 Q647.474 1278.56 644.372 1281.78 Q641.27 1284.98 635.622 1290.74 Z" fill="#000000" fill-rule="nonzero" fill-opacity="1" /><path clip-path="url(#clip020)" d="M1035.67 1264.19 L1023.86 1282.64 L1035.67 1282.64 L1035.67 1264.19 M1034.44 1260.11 L1040.32 1260.11 L1040.32 1282.64 L1045.25 1282.64 L1045.25 1286.53 L1040.32 1286.53 L1040.32 1294.67 L1035.67 1294.67 L1035.67 1286.53 L1020.06 1286.53 L1020.06 1282.01 L1034.44 1260.11 Z" fill="#000000" fill-rule="nonzero" fill-opacity="1" /><path clip-path="url(#clip020)" d="M1424.75 1275.53 Q1421.6 1275.53 1419.75 1277.68 Q1417.92 1279.84 1417.92 1283.59 Q1417.92 1287.31 1419.75 1289.49 Q1421.6 1291.64 1424.75 1291.64 Q1427.9 1291.64 1429.73 1289.49 Q1431.58 1287.31 1431.58 1283.59 Q1431.58 1279.84 1429.73 1277.68 Q1427.9 1275.53 1424.75 1275.53 M1434.03 1260.88 L1434.03 1265.14 Q1432.27 1264.3 1430.47 1263.86 Q1428.69 1263.42 1426.93 1263.42 Q1422.3 1263.42 1419.84 1266.55 Q1417.41 1269.67 1417.07 1275.99 Q1418.43 1273.98 1420.49 1272.92 Q1422.55 1271.83 1425.03 1271.83 Q1430.24 1271.83 1433.25 1275 Q1436.28 1278.15 1436.28 1283.59 Q1436.28 1288.91 1433.13 1292.13 Q1429.98 1295.35 1424.75 1295.35 Q1418.76 1295.35 1415.58 1290.76 Q1412.41 1286.16 1412.41 1277.43 Q1412.41 1269.24 1416.3 1264.37 Q1420.19 1259.49 1426.74 1259.49 Q1428.5 1259.49 1430.28 1259.84 Q1432.09 1260.18 1434.03 1260.88 Z" fill="#000000" fill-rule="nonzero" fill-opacity="1" /><path clip-path="url(#clip020)" d="M1816.03 1278.26 Q1812.7 1278.26 1810.78 1280.05 Q1808.88 1281.83 1808.88 1284.95 Q1808.88 1288.08 1810.78 1289.86 Q1812.7 1291.64 1816.03 1291.64 Q1819.37 1291.64 1821.29 1289.86 Q1823.21 1288.05 1823.21 1284.95 Q1823.21 1281.83 1821.29 1280.05 Q1819.39 1278.26 1816.03 1278.26 M1811.36 1276.27 Q1808.35 1275.53 1806.66 1273.47 Q1804.99 1271.41 1804.99 1268.45 Q1804.99 1264.3 1807.93 1261.9 Q1810.9 1259.49 1816.03 1259.49 Q1821.2 1259.49 1824.14 1261.9 Q1827.08 1264.3 1827.08 1268.45 Q1827.08 1271.41 1825.39 1273.47 Q1823.72 1275.53 1820.73 1276.27 Q1824.11 1277.06 1825.99 1279.35 Q1827.89 1281.64 1827.89 1284.95 Q1827.89 1289.98 1824.81 1292.66 Q1821.75 1295.35 1816.03 1295.35 Q1810.32 1295.35 1807.24 1292.66 Q1804.18 1289.98 1804.18 1284.95 Q1804.18 1281.64 1806.08 1279.35 Q1807.98 1277.06 1811.36 1276.27 M1809.65 1268.89 Q1809.65 1271.57 1811.31 1273.08 Q1813 1274.58 1816.03 1274.58 Q1819.04 1274.58 1820.73 1273.08 Q1822.45 1271.57 1822.45 1268.89 Q1822.45 1266.2 1820.73 1264.7 Q1819.04 1263.19 1816.03 1263.19 Q1813 1263.19 1811.31 1264.7 Q1809.65 1266.2 1809.65 1268.89 Z" fill="#000000" fill-rule="nonzero" fill-opacity="1" /><polyline clip-path="url(#clip022)" style="stroke:#000000; stroke-linecap:round; stroke-linejoin:round; stroke-width:2; stroke-opacity:0.1; fill:none" points="196.403,1202.07 2064.76,1202.07 "/>
<polyline clip-path="url(#clip022)" style="stroke:#000000; stroke-linecap:round; stroke-linejoin:round; stroke-width:2; stroke-opacity:0.1; fill:none" points="196.403,928.067 2064.76,928.067 "/>
<polyline clip-path="url(#clip022)" style="stroke:#000000; stroke-linecap:round; stroke-linejoin:round; stroke-width:2; stroke-opacity:0.1; fill:none" points="196.403,654.064 2064.76,654.064 "/>
<polyline clip-path="url(#clip022)" style="stroke:#000000; stroke-linecap:round; stroke-linejoin:round; stroke-width:2; stroke-opacity:0.1; fill:none" points="196.403,380.06 2064.76,380.06 "/>
<polyline clip-path="url(#clip022)" style="stroke:#000000; stroke-linecap:round; stroke-linejoin:round; stroke-width:2; stroke-opacity:0.1; fill:none" points="196.403,106.056 2064.76,106.056 "/>
<polyline clip-path="url(#clip020)" style="stroke:#000000; stroke-linecap:round; stroke-linejoin:round; stroke-width:4; stroke-opacity:1; fill:none" points="196.403,1234.58 196.403,47.2441 "/>
<polyline clip-path="url(#clip020)" style="stroke:#000000; stroke-linecap:round; stroke-linejoin:round; stroke-width:4; stroke-opacity:1; fill:none" points="196.403,1202.07 215.301,1202.07 "/>
<polyline clip-path="url(#clip020)" style="stroke:#000000; stroke-linecap:round; stroke-linejoin:round; stroke-width:4; stroke-opacity:1; fill:none" points="196.403,928.067 215.301,928.067 "/>
<polyline clip-path="url(#clip020)" style="stroke:#000000; stroke-linecap:round; stroke-linejoin:round; stroke-width:4; stroke-opacity:1; fill:none" points="196.403,654.064 215.301,654.064 "/>
<polyline clip-path="url(#clip020)" style="stroke:#000000; stroke-linecap:round; stroke-linejoin:round; stroke-width:4; stroke-opacity:1; fill:none" points="196.403,380.06 215.301,380.06 "/>
<polyline clip-path="url(#clip020)" style="stroke:#000000; stroke-linecap:round; stroke-linejoin:round; stroke-width:4; stroke-opacity:1; fill:none" points="196.403,106.056 215.301,106.056 "/>
<path clip-path="url(#clip020)" d="M152.779 1187.87 Q149.168 1187.87 147.339 1191.43 Q145.533 1194.98 145.533 1202.11 Q145.533 1209.21 147.339 1212.78 Q149.168 1216.32 152.779 1216.32 Q156.413 1216.32 158.219 1212.78 Q160.047 1209.21 160.047 1202.11 Q160.047 1194.98 158.219 1191.43 Q156.413 1187.87 152.779 1187.87 M152.779 1184.17 Q158.589 1184.17 161.645 1188.77 Q164.723 1193.36 164.723 1202.11 Q164.723 1210.83 161.645 1215.44 Q158.589 1220.02 152.779 1220.02 Q146.969 1220.02 143.89 1215.44 Q140.834 1210.83 140.834 1202.11 Q140.834 1193.36 143.89 1188.77 Q146.969 1184.17 152.779 1184.17 Z" fill="#000000" fill-rule="nonzero" fill-opacity="1" /><path clip-path="url(#clip020)" d="M86.4829 941.412 L102.802 941.412 L102.802 945.347 L80.8579 945.347 L80.8579 941.412 Q83.5199 938.658 88.1032 934.028 Q92.7097 929.375 93.8902 928.033 Q96.1356 925.509 97.0152 923.773 Q97.918 922.014 97.918 920.324 Q97.918 917.57 95.9736 915.834 Q94.0523 914.097 90.9504 914.097 Q88.7514 914.097 86.2977 914.861 Q83.8671 915.625 81.0894 917.176 L81.0894 912.454 Q83.9134 911.32 86.3671 910.741 Q88.8208 910.162 90.8578 910.162 Q96.2282 910.162 99.4226 912.847 Q102.617 915.533 102.617 920.023 Q102.617 922.153 101.807 924.074 Q101.02 925.972 98.9134 928.565 Q98.3347 929.236 95.2328 932.454 Q92.131 935.648 86.4829 941.412 Z" fill="#000000" fill-rule="nonzero" fill-opacity="1" /><path clip-path="url(#clip020)" d="M112.663 910.787 L131.02 910.787 L131.02 914.722 L116.946 914.722 L116.946 923.195 Q117.964 922.847 118.983 922.685 Q120.001 922.5 121.02 922.5 Q126.807 922.5 130.186 925.671 Q133.566 928.843 133.566 934.259 Q133.566 939.838 130.094 942.94 Q126.622 946.019 120.302 946.019 Q118.126 946.019 115.858 945.648 Q113.612 945.278 111.205 944.537 L111.205 939.838 Q113.288 940.972 115.51 941.528 Q117.733 942.083 120.21 942.083 Q124.214 942.083 126.552 939.977 Q128.89 937.87 128.89 934.259 Q128.89 930.648 126.552 928.542 Q124.214 926.435 120.21 926.435 Q118.335 926.435 116.46 926.852 Q114.608 927.269 112.663 928.148 L112.663 910.787 Z" fill="#000000" fill-rule="nonzero" fill-opacity="1" /><path clip-path="url(#clip020)" d="M152.779 913.866 Q149.168 913.866 147.339 917.431 Q145.533 920.972 145.533 928.102 Q145.533 935.208 147.339 938.773 Q149.168 942.315 152.779 942.315 Q156.413 942.315 158.219 938.773 Q160.047 935.208 160.047 928.102 Q160.047 920.972 158.219 917.431 Q156.413 913.866 152.779 913.866 M152.779 910.162 Q158.589 910.162 161.645 914.769 Q164.723 919.352 164.723 928.102 Q164.723 936.829 161.645 941.435 Q158.589 946.019 152.779 946.019 Q146.969 946.019 143.89 941.435 Q140.834 936.829 140.834 928.102 Q140.834 919.352 143.89 914.769 Q146.969 910.162 152.779 910.162 Z" fill="#000000" fill-rule="nonzero" fill-opacity="1" /><path clip-path="url(#clip020)" d="M82.5014 636.784 L100.858 636.784 L100.858 640.719 L86.7838 640.719 L86.7838 649.191 Q87.8023 648.844 88.8208 648.682 Q89.8393 648.497 90.8578 648.497 Q96.6449 648.497 100.024 651.668 Q103.404 654.839 103.404 660.256 Q103.404 665.834 99.9319 668.936 Q96.4597 672.015 90.1403 672.015 Q87.9643 672.015 85.6958 671.645 Q83.4505 671.274 81.0431 670.533 L81.0431 665.834 Q83.1264 666.969 85.3486 667.524 Q87.5708 668.08 90.0477 668.08 Q94.0523 668.08 96.3902 665.973 Q98.7282 663.867 98.7282 660.256 Q98.7282 656.645 96.3902 654.538 Q94.0523 652.432 90.0477 652.432 Q88.1727 652.432 86.2977 652.848 Q84.4458 653.265 82.5014 654.145 L82.5014 636.784 Z" fill="#000000" fill-rule="nonzero" fill-opacity="1" /><path clip-path="url(#clip020)" d="M122.617 639.862 Q119.006 639.862 117.177 643.427 Q115.372 646.969 115.372 654.098 Q115.372 661.205 117.177 664.77 Q119.006 668.311 122.617 668.311 Q126.251 668.311 128.057 664.77 Q129.885 661.205 129.885 654.098 Q129.885 646.969 128.057 643.427 Q126.251 639.862 122.617 639.862 M122.617 636.159 Q128.427 636.159 131.483 640.765 Q134.561 645.348 134.561 654.098 Q134.561 662.825 131.483 667.432 Q128.427 672.015 122.617 672.015 Q116.807 672.015 113.728 667.432 Q110.673 662.825 110.673 654.098 Q110.673 645.348 113.728 640.765 Q116.807 636.159 122.617 636.159 Z" fill="#000000" fill-rule="nonzero" fill-opacity="1" /><path clip-path="url(#clip020)" d="M152.779 639.862 Q149.168 639.862 147.339 643.427 Q145.533 646.969 145.533 654.098 Q145.533 661.205 147.339 664.77 Q149.168 668.311 152.779 668.311 Q156.413 668.311 158.219 664.77 Q160.047 661.205 160.047 654.098 Q160.047 646.969 158.219 643.427 Q156.413 639.862 152.779 639.862 M152.779 636.159 Q158.589 636.159 161.645 640.765 Q164.723 645.348 164.723 654.098 Q164.723 662.825 161.645 667.432 Q158.589 672.015 152.779 672.015 Q146.969 672.015 143.89 667.432 Q140.834 662.825 140.834 654.098 Q140.834 645.348 143.89 640.765 Q146.969 636.159 152.779 636.159 Z" fill="#000000" fill-rule="nonzero" fill-opacity="1" /><path clip-path="url(#clip020)" d="M81.2746 362.78 L103.497 362.78 L103.497 364.771 L90.9504 397.34 L86.0662 397.34 L97.8717 366.715 L81.2746 366.715 L81.2746 362.78 Z" fill="#000000" fill-rule="nonzero" fill-opacity="1" /><path clip-path="url(#clip020)" d="M112.663 362.78 L131.02 362.78 L131.02 366.715 L116.946 366.715 L116.946 375.187 Q117.964 374.84 118.983 374.678 Q120.001 374.493 121.02 374.493 Q126.807 374.493 130.186 377.664 Q133.566 380.835 133.566 386.252 Q133.566 391.831 130.094 394.933 Q126.622 398.011 120.302 398.011 Q118.126 398.011 115.858 397.641 Q113.612 397.27 111.205 396.53 L111.205 391.831 Q113.288 392.965 115.51 393.521 Q117.733 394.076 120.21 394.076 Q124.214 394.076 126.552 391.97 Q128.89 389.863 128.89 386.252 Q128.89 382.641 126.552 380.534 Q124.214 378.428 120.21 378.428 Q118.335 378.428 116.46 378.845 Q114.608 379.261 112.663 380.141 L112.663 362.78 Z" fill="#000000" fill-rule="nonzero" fill-opacity="1" /><path clip-path="url(#clip020)" d="M152.779 365.859 Q149.168 365.859 147.339 369.423 Q145.533 372.965 145.533 380.095 Q145.533 387.201 147.339 390.766 Q149.168 394.308 152.779 394.308 Q156.413 394.308 158.219 390.766 Q160.047 387.201 160.047 380.095 Q160.047 372.965 158.219 369.423 Q156.413 365.859 152.779 365.859 M152.779 362.155 Q158.589 362.155 161.645 366.761 Q164.723 371.345 164.723 380.095 Q164.723 388.821 161.645 393.428 Q158.589 398.011 152.779 398.011 Q146.969 398.011 143.89 393.428 Q140.834 388.821 140.834 380.095 Q140.834 371.345 143.89 366.761 Q146.969 362.155 152.779 362.155 Z" fill="#000000" fill-rule="nonzero" fill-opacity="1" /><path clip-path="url(#clip020)" d="M53.1034 119.401 L60.7423 119.401 L60.7423 93.0355 L52.4321 94.7021 L52.4321 90.4429 L60.696 88.7762 L65.3719 88.7762 L65.3719 119.401 L73.0107 119.401 L73.0107 123.336 L53.1034 123.336 L53.1034 119.401 Z" fill="#000000" fill-rule="nonzero" fill-opacity="1" /><path clip-path="url(#clip020)" d="M92.4551 91.8549 Q88.844 91.8549 87.0153 95.4197 Q85.2097 98.9614 85.2097 106.091 Q85.2097 113.197 87.0153 116.762 Q88.844 120.304 92.4551 120.304 Q96.0893 120.304 97.8948 116.762 Q99.7235 113.197 99.7235 106.091 Q99.7235 98.9614 97.8948 95.4197 Q96.0893 91.8549 92.4551 91.8549 M92.4551 88.1512 Q98.2652 88.1512 101.321 92.7577 Q104.399 97.341 104.399 106.091 Q104.399 114.818 101.321 119.424 Q98.2652 124.008 92.4551 124.008 Q86.6449 124.008 83.5662 119.424 Q80.5107 114.818 80.5107 106.091 Q80.5107 97.341 83.5662 92.7577 Q86.6449 88.1512 92.4551 88.1512 Z" fill="#000000" fill-rule="nonzero" fill-opacity="1" /><path clip-path="url(#clip020)" d="M122.617 91.8549 Q119.006 91.8549 117.177 95.4197 Q115.372 98.9614 115.372 106.091 Q115.372 113.197 117.177 116.762 Q119.006 120.304 122.617 120.304 Q126.251 120.304 128.057 116.762 Q129.885 113.197 129.885 106.091 Q129.885 98.9614 128.057 95.4197 Q126.251 91.8549 122.617 91.8549 M122.617 88.1512 Q128.427 88.1512 131.483 92.7577 Q134.561 97.341 134.561 106.091 Q134.561 114.818 131.483 119.424 Q128.427 124.008 122.617 124.008 Q116.807 124.008 113.728 119.424 Q110.673 114.818 110.673 106.091 Q110.673 97.341 113.728 92.7577 Q116.807 88.1512 122.617 88.1512 Z" fill="#000000" fill-rule="nonzero" fill-opacity="1" /><path clip-path="url(#clip020)" d="M152.779 91.8549 Q149.168 91.8549 147.339 95.4197 Q145.533 98.9614 145.533 106.091 Q145.533 113.197 147.339 116.762 Q149.168 120.304 152.779 120.304 Q156.413 120.304 158.219 116.762 Q160.047 113.197 160.047 106.091 Q160.047 98.9614 158.219 95.4197 Q156.413 91.8549 152.779 91.8549 M152.779 88.1512 Q158.589 88.1512 161.645 92.7577 Q164.723 97.341 164.723 106.091 Q164.723 114.818 161.645 119.424 Q158.589 124.008 152.779 124.008 Q146.969 124.008 143.89 119.424 Q140.834 114.818 140.834 106.091 Q140.834 97.341 143.89 92.7577 Q146.969 88.1512 152.779 88.1512 Z" fill="#000000" fill-rule="nonzero" fill-opacity="1" /><circle clip-path="url(#clip022)" cx="249.281" cy="1200.97" r="14.4" fill="#009af9" fill-rule="evenodd" fill-opacity="1" stroke="#000000" stroke-opacity="1" stroke-width="2.688"/>
<circle clip-path="url(#clip022)" cx="445.125" cy="1198.78" r="14.4" fill="#009af9" fill-rule="evenodd" fill-opacity="1" stroke="#000000" stroke-opacity="1" stroke-width="2.688"/>
<circle clip-path="url(#clip022)" cx="640.969" cy="1194.4" r="14.4" fill="#009af9" fill-rule="evenodd" fill-opacity="1" stroke="#000000" stroke-opacity="1" stroke-width="2.688"/>
<circle clip-path="url(#clip022)" cx="836.813" cy="1185.63" r="14.4" fill="#009af9" fill-rule="evenodd" fill-opacity="1" stroke="#000000" stroke-opacity="1" stroke-width="2.688"/>
<circle clip-path="url(#clip022)" cx="1032.66" cy="1168.09" r="14.4" fill="#009af9" fill-rule="evenodd" fill-opacity="1" stroke="#000000" stroke-opacity="1" stroke-width="2.688"/>
<circle clip-path="url(#clip022)" cx="1228.5" cy="1133.02" r="14.4" fill="#009af9" fill-rule="evenodd" fill-opacity="1" stroke="#000000" stroke-opacity="1" stroke-width="2.688"/>
<circle clip-path="url(#clip022)" cx="1424.35" cy="1062.88" r="14.4" fill="#009af9" fill-rule="evenodd" fill-opacity="1" stroke="#000000" stroke-opacity="1" stroke-width="2.688"/>
<circle clip-path="url(#clip022)" cx="1620.19" cy="922.587" r="14.4" fill="#009af9" fill-rule="evenodd" fill-opacity="1" stroke="#000000" stroke-opacity="1" stroke-width="2.688"/>
<circle clip-path="url(#clip022)" cx="1816.03" cy="642.007" r="14.4" fill="#009af9" fill-rule="evenodd" fill-opacity="1" stroke="#000000" stroke-opacity="1" stroke-width="2.688"/>
<circle clip-path="url(#clip022)" cx="2011.88" cy="80.8479" r="14.4" fill="#009af9" fill-rule="evenodd" fill-opacity="1" stroke="#000000" stroke-opacity="1" stroke-width="2.688"/>
<path clip-path="url(#clip020)" d="M258.682 195.186 L542.887 195.186 L542.887 86.8219 L258.682 86.8219  Z" fill="#ffffff" fill-rule="evenodd" fill-opacity="1"/>
<polyline clip-path="url(#clip020)" style="stroke:#000000; stroke-linecap:round; stroke-linejoin:round; stroke-width:4; stroke-opacity:1; fill:none" points="258.682,195.186 542.887,195.186 542.887,86.8219 258.682,86.8219 258.682,195.186 "/>
<circle clip-path="url(#clip020)" cx="341.72" cy="141.004" r="20.48" fill="#009af9" fill-rule="evenodd" fill-opacity="1" stroke="#000000" stroke-opacity="1" stroke-width="3.82293"/>
<path clip-path="url(#clip020)" d="M469.986 156.262 L465.864 168.208 L426.092 168.208 Q425.554 168.208 425.343 168.184 Q425.132 168.161 424.968 168.044 Q424.804 167.927 424.804 167.669 Q424.804 167.458 425.226 166.919 L442.254 145.863 L424.757 121.784 Q424.757 120.684 424.945 120.473 Q425.132 120.238 426.092 120.238 L465.864 120.238 L469.986 131.458 L468.792 131.458 Q468.253 130.006 467.386 128.788 Q466.543 127.546 465.559 126.656 Q464.599 125.766 463.334 125.063 Q462.093 124.337 460.922 123.892 Q459.774 123.424 458.345 123.096 Q456.916 122.745 455.769 122.581 Q454.644 122.393 453.239 122.3 Q451.834 122.206 450.944 122.183 Q450.054 122.159 448.929 122.159 L429.934 122.159 L445.51 143.544 Q445.861 144.083 445.861 144.223 Q445.861 144.434 445.416 144.996 L428.786 165.561 L449.164 165.561 Q455.722 165.561 460.289 164.179 Q463.381 163.125 465.63 161.04 Q467.902 158.956 468.792 156.262 L469.986 156.262 Z" fill="#000000" fill-rule="nonzero" fill-opacity="1" /><path clip-path="url(#clip020)" d="M474.908 156.215 Q474.908 155.349 474.978 155.091 Q475.072 154.833 475.447 154.435 L484.652 144.176 Q489.688 138.508 489.688 133.566 Q489.688 130.357 488.001 128.062 Q486.338 125.766 483.27 125.766 Q481.162 125.766 479.382 127.054 Q477.602 128.343 476.782 130.638 Q476.922 130.591 477.414 130.591 Q478.609 130.591 479.265 131.341 Q479.944 132.09 479.944 133.097 Q479.944 134.386 479.101 135.018 Q478.281 135.627 477.461 135.627 Q477.133 135.627 476.688 135.557 Q476.267 135.486 475.587 134.831 Q474.908 134.151 474.908 132.957 Q474.908 129.607 477.438 126.937 Q479.991 124.267 483.879 124.267 Q488.282 124.267 491.163 126.89 Q494.068 129.49 494.068 133.566 Q494.068 134.995 493.623 136.306 Q493.201 137.595 492.615 138.602 Q492.053 139.609 490.507 141.225 Q488.962 142.841 487.72 143.989 Q486.479 145.137 483.691 147.572 L478.609 152.515 L487.252 152.515 Q491.468 152.515 491.796 152.14 Q492.264 151.461 492.85 147.877 L494.068 147.877 L492.709 156.215 L474.908 156.215 Z" fill="#000000" fill-rule="nonzero" fill-opacity="1" /><path clip-path="url(#clip020)" d="M517.189 123.806 Q517.189 123.938 517.041 124.446 Q516.893 124.954 516.533 125.741 Q516.188 126.528 515.713 127.25 Q515.237 127.955 514.45 128.479 Q513.68 128.988 512.794 128.988 Q511.614 128.988 510.827 128.201 Q510.04 127.414 510.04 126.233 Q510.04 125.577 510.384 124.675 Q512.565 118.855 512.565 116.855 Q512.565 114.51 510.745 114.51 Q509.843 114.51 508.991 114.854 Q508.155 115.182 507.581 115.641 Q507.007 116.101 506.482 116.74 Q505.974 117.363 505.712 117.789 Q505.466 118.199 505.269 118.609 L504.843 120.281 Q504.744 120.74 504.269 122.528 L503.531 125.561 Q503.006 127.823 502.891 128.037 Q502.728 128.496 502.367 128.742 Q502.006 128.988 501.645 128.988 Q501.236 128.988 500.957 128.742 Q500.678 128.496 500.678 128.069 Q500.678 128.004 500.727 127.758 Q500.776 127.512 500.858 127.168 Q500.94 126.823 500.973 126.627 L502.924 118.871 Q503.285 117.461 503.367 117.019 Q503.465 116.56 503.465 116.051 Q503.465 114.51 502.416 114.51 Q501.563 114.51 501.006 115.527 Q500.449 116.543 499.973 118.511 Q499.825 119.052 499.727 119.167 Q499.645 119.281 499.399 119.281 Q498.989 119.265 498.989 118.937 Q498.989 118.855 499.12 118.314 Q499.252 117.773 499.498 117.002 Q499.76 116.215 500.006 115.691 Q500.219 115.297 500.334 115.117 Q500.465 114.92 500.776 114.543 Q501.104 114.149 501.531 113.969 Q501.973 113.772 502.514 113.772 Q503.728 113.772 504.613 114.559 Q505.498 115.33 505.613 116.691 Q507.794 113.772 510.843 113.772 Q512.647 113.772 513.68 114.723 Q514.713 115.674 514.713 117.363 Q514.713 117.756 514.631 118.265 Q514.565 118.757 514.401 119.38 Q514.254 120.003 514.123 120.478 Q513.991 120.954 513.729 121.724 Q513.467 122.478 513.352 122.806 Q513.237 123.134 512.958 123.905 Q512.696 124.659 512.663 124.741 Q512.057 126.266 512.057 127.135 Q512.057 127.709 512.237 127.971 Q512.434 128.233 512.86 128.233 Q514.008 128.233 514.86 127.102 Q515.729 125.954 516.287 124.085 Q516.418 123.675 516.484 123.577 Q516.566 123.479 516.795 123.479 Q517.189 123.479 517.189 123.806 Z" fill="#000000" fill-rule="nonzero" fill-opacity="1" /></svg>
